<?xml version="1.0" encoding="utf-8" standalone="no"?>
<!DOCTYPE svg PUBLIC "-//W3C//DTD SVG 1.1//EN"
  "http://www.w3.org/Graphics/SVG/1.1/DTD/svg11.dtd">
<svg xmlns:xlink="http://www.w3.org/1999/xlink" width="515pt" height="355.860125pt" viewBox="0 0 515 355.860125" xmlns="http://www.w3.org/2000/svg" version="1.1">
 <metadata>
  <rdf:RDF xmlns:dc="http://purl.org/dc/elements/1.1/" xmlns:cc="http://creativecommons.org/ns#" xmlns:rdf="http://www.w3.org/1999/02/22-rdf-syntax-ns#">
   <cc:Work>
    <dc:type rdf:resource="http://purl.org/dc/dcmitype/StillImage"/>
    <dc:date>2021-12-11T12:11:53.653250</dc:date>
    <dc:format>image/svg+xml</dc:format>
    <dc:creator>
     <cc:Agent>
      <dc:title>Matplotlib v3.5.0, https://matplotlib.org/</dc:title>
     </cc:Agent>
    </dc:creator>
   </cc:Work>
  </rdf:RDF>
 </metadata>
 <defs>
  <style type="text/css">*{stroke-linejoin: round; stroke-linecap: butt}</style>
 </defs>
 <g id="figure_1">
  <g id="patch_1">
   <path d="M 0 355.860125 
L 515 355.860125 
L 515 0 
L 0 0 
z
" style="fill: #ffffff"/>
  </g>
  <g id="axes_1">
   <g id="patch_2">
    <path d="M 61.4 305.260125 
L 507.8 305.260125 
L 507.8 28.060125 
L 61.4 28.060125 
z
" style="fill: #ffffff"/>
   </g>
   <g id="matplotlib.axis_1">
    <g id="xtick_1">
     <g id="line2d_1">
      <path d="M 81.690909 305.260125 
L 81.690909 28.060125 
" clip-path="url(#p4652907d9c)" style="fill: none; stroke: #b0b0b0; stroke-width: 0.8; stroke-linecap: square"/>
     </g>
     <g id="line2d_2">
      <defs>
       <path id="m4ff3f1273a" d="M 0 0 
L 0 3.5 
" style="stroke: #000000; stroke-width: 0.8"/>
      </defs>
      <g>
       <use xlink:href="#m4ff3f1273a" x="81.690909" y="305.260125" style="stroke: #000000; stroke-width: 0.8"/>
      </g>
     </g>
     <g id="text_1">
      <!-- 0 -->
      <g transform="translate(77.190909 324.553562)scale(0.18 -0.18)">
       <defs>
        <path id="STIXGeneral-Regular-30" d="M 3046 2112 
Q 3046 1683 2963 1302 
Q 2880 922 2717 602 
Q 2554 282 2266 96 
Q 1978 -90 1600 -90 
Q 1210 -90 915 108 
Q 621 307 461 640 
Q 301 973 227 1350 
Q 154 1728 154 2150 
Q 154 2746 301 3222 
Q 448 3699 790 4012 
Q 1133 4326 1626 4326 
Q 2253 4326 2649 3712 
Q 3046 3098 3046 2112 
z
M 2432 2080 
Q 2432 3091 2217 3625 
Q 2003 4160 1587 4160 
Q 1190 4160 979 3622 
Q 768 3085 768 2106 
Q 768 1120 979 598 
Q 1190 77 1600 77 
Q 2003 77 2217 598 
Q 2432 1120 2432 2080 
z
" transform="scale(0.015625)"/>
       </defs>
       <use xlink:href="#STIXGeneral-Regular-30"/>
      </g>
     </g>
    </g>
    <g id="xtick_2">
     <g id="line2d_3">
      <path d="M 147.357282 305.260125 
L 147.357282 28.060125 
" clip-path="url(#p4652907d9c)" style="fill: none; stroke: #b0b0b0; stroke-width: 0.8; stroke-linecap: square"/>
     </g>
     <g id="line2d_4">
      <g>
       <use xlink:href="#m4ff3f1273a" x="147.357282" y="305.260125" style="stroke: #000000; stroke-width: 0.8"/>
      </g>
     </g>
     <g id="text_2">
      <!-- 50 -->
      <g transform="translate(138.357282 324.553562)scale(0.18 -0.18)">
       <defs>
        <path id="STIXGeneral-Regular-35" d="M 2803 4358 
L 2573 3814 
Q 2534 3731 2400 3731 
L 1158 3731 
L 902 3187 
Q 1606 3053 1920 2896 
Q 2234 2739 2502 2368 
Q 2726 2061 2726 1555 
Q 2726 1094 2576 780 
Q 2426 467 2099 224 
Q 1664 -90 1011 -90 
Q 646 -90 422 19 
Q 198 128 198 307 
Q 198 550 486 550 
Q 717 550 960 352 
Q 1210 147 1414 147 
Q 1747 147 2012 480 
Q 2278 813 2278 1229 
Q 2278 1843 1850 2189 
Q 1293 2637 486 2637 
Q 410 2637 410 2688 
L 416 2720 
L 1114 4237 
L 2438 4237 
Q 2547 4237 2608 4269 
Q 2669 4301 2746 4403 
L 2803 4358 
z
" transform="scale(0.015625)"/>
       </defs>
       <use xlink:href="#STIXGeneral-Regular-35"/>
       <use xlink:href="#STIXGeneral-Regular-30" x="49.999985"/>
      </g>
     </g>
    </g>
    <g id="xtick_3">
     <g id="line2d_5">
      <path d="M 213.023654 305.260125 
L 213.023654 28.060125 
" clip-path="url(#p4652907d9c)" style="fill: none; stroke: #b0b0b0; stroke-width: 0.8; stroke-linecap: square"/>
     </g>
     <g id="line2d_6">
      <g>
       <use xlink:href="#m4ff3f1273a" x="213.023654" y="305.260125" style="stroke: #000000; stroke-width: 0.8"/>
      </g>
     </g>
     <g id="text_3">
      <!-- 100 -->
      <g transform="translate(199.523654 324.553562)scale(0.18 -0.18)">
       <defs>
        <path id="STIXGeneral-Regular-31" d="M 2522 0 
L 755 0 
L 755 96 
Q 1107 115 1235 227 
Q 1363 339 1363 608 
L 1363 3482 
Q 1363 3795 1171 3795 
Q 1082 3795 883 3718 
L 710 3654 
L 710 3744 
L 1856 4326 
L 1914 4307 
L 1914 486 
Q 1914 275 2042 185 
Q 2170 96 2522 96 
L 2522 0 
z
" transform="scale(0.015625)"/>
       </defs>
       <use xlink:href="#STIXGeneral-Regular-31"/>
       <use xlink:href="#STIXGeneral-Regular-30" x="49.999985"/>
       <use xlink:href="#STIXGeneral-Regular-30" x="99.999969"/>
      </g>
     </g>
    </g>
    <g id="xtick_4">
     <g id="line2d_7">
      <path d="M 278.690026 305.260125 
L 278.690026 28.060125 
" clip-path="url(#p4652907d9c)" style="fill: none; stroke: #b0b0b0; stroke-width: 0.8; stroke-linecap: square"/>
     </g>
     <g id="line2d_8">
      <g>
       <use xlink:href="#m4ff3f1273a" x="278.690026" y="305.260125" style="stroke: #000000; stroke-width: 0.8"/>
      </g>
     </g>
     <g id="text_4">
      <!-- 150 -->
      <g transform="translate(265.190026 324.553562)scale(0.18 -0.18)">
       <use xlink:href="#STIXGeneral-Regular-31"/>
       <use xlink:href="#STIXGeneral-Regular-35" x="49.999985"/>
       <use xlink:href="#STIXGeneral-Regular-30" x="99.999969"/>
      </g>
     </g>
    </g>
    <g id="xtick_5">
     <g id="line2d_9">
      <path d="M 344.356399 305.260125 
L 344.356399 28.060125 
" clip-path="url(#p4652907d9c)" style="fill: none; stroke: #b0b0b0; stroke-width: 0.8; stroke-linecap: square"/>
     </g>
     <g id="line2d_10">
      <g>
       <use xlink:href="#m4ff3f1273a" x="344.356399" y="305.260125" style="stroke: #000000; stroke-width: 0.8"/>
      </g>
     </g>
     <g id="text_5">
      <!-- 200 -->
      <g transform="translate(330.856399 324.553562)scale(0.18 -0.18)">
       <defs>
        <path id="STIXGeneral-Regular-32" d="M 3034 877 
L 2688 0 
L 186 0 
L 186 77 
L 1325 1286 
Q 1773 1754 1965 2144 
Q 2157 2534 2157 2950 
Q 2157 3379 1920 3616 
Q 1683 3853 1267 3853 
Q 922 3853 720 3673 
Q 518 3494 326 3021 
L 192 3053 
Q 301 3648 630 3987 
Q 960 4326 1523 4326 
Q 2054 4326 2380 4006 
Q 2707 3686 2707 3200 
Q 2707 2477 1888 1613 
L 832 486 
L 2330 486 
Q 2541 486 2665 569 
Q 2790 653 2944 915 
L 3034 877 
z
" transform="scale(0.015625)"/>
       </defs>
       <use xlink:href="#STIXGeneral-Regular-32"/>
       <use xlink:href="#STIXGeneral-Regular-30" x="49.999985"/>
       <use xlink:href="#STIXGeneral-Regular-30" x="99.999969"/>
      </g>
     </g>
    </g>
    <g id="xtick_6">
     <g id="line2d_11">
      <path d="M 410.022771 305.260125 
L 410.022771 28.060125 
" clip-path="url(#p4652907d9c)" style="fill: none; stroke: #b0b0b0; stroke-width: 0.8; stroke-linecap: square"/>
     </g>
     <g id="line2d_12">
      <g>
       <use xlink:href="#m4ff3f1273a" x="410.022771" y="305.260125" style="stroke: #000000; stroke-width: 0.8"/>
      </g>
     </g>
     <g id="text_6">
      <!-- 250 -->
      <g transform="translate(396.522771 324.553562)scale(0.18 -0.18)">
       <use xlink:href="#STIXGeneral-Regular-32"/>
       <use xlink:href="#STIXGeneral-Regular-35" x="49.999985"/>
       <use xlink:href="#STIXGeneral-Regular-30" x="99.999969"/>
      </g>
     </g>
    </g>
    <g id="xtick_7">
     <g id="line2d_13">
      <path d="M 475.689144 305.260125 
L 475.689144 28.060125 
" clip-path="url(#p4652907d9c)" style="fill: none; stroke: #b0b0b0; stroke-width: 0.8; stroke-linecap: square"/>
     </g>
     <g id="line2d_14">
      <g>
       <use xlink:href="#m4ff3f1273a" x="475.689144" y="305.260125" style="stroke: #000000; stroke-width: 0.8"/>
      </g>
     </g>
     <g id="text_7">
      <!-- 300 -->
      <g transform="translate(462.189144 324.553562)scale(0.18 -0.18)">
       <defs>
        <path id="STIXGeneral-Regular-33" d="M 390 3264 
L 288 3290 
Q 435 3770 748 4048 
Q 1062 4326 1542 4326 
Q 1990 4326 2265 4083 
Q 2541 3840 2541 3450 
Q 2541 2925 1946 2566 
Q 2298 2413 2477 2227 
Q 2758 1914 2758 1402 
Q 2758 890 2464 506 
Q 2246 211 1840 60 
Q 1434 -90 979 -90 
Q 262 -90 262 275 
Q 262 378 339 442 
Q 416 506 525 506 
Q 685 506 915 339 
Q 1197 141 1466 141 
Q 1818 141 2058 425 
Q 2298 710 2298 1120 
Q 2298 1856 1632 2048 
Q 1434 2112 979 2112 
L 979 2202 
Q 1338 2323 1517 2432 
Q 2035 2726 2035 3290 
Q 2035 3610 1852 3776 
Q 1670 3942 1344 3942 
Q 768 3942 390 3264 
z
" transform="scale(0.015625)"/>
       </defs>
       <use xlink:href="#STIXGeneral-Regular-33"/>
       <use xlink:href="#STIXGeneral-Regular-30" x="49.999985"/>
       <use xlink:href="#STIXGeneral-Regular-30" x="99.999969"/>
      </g>
     </g>
    </g>
    <g id="text_8">
     <!-- Epoch -->
     <g transform="translate(261.605 344.753562)scale(0.18 -0.18)">
      <defs>
       <path id="STIXGeneral-Regular-45" d="M 3821 1082 
L 3526 0 
L 77 0 
L 77 122 
Q 442 147 538 252 
Q 634 358 634 730 
L 634 3520 
Q 634 3878 534 3987 
Q 435 4096 77 4115 
L 77 4237 
L 3469 4237 
L 3494 3322 
L 3334 3322 
Q 3264 3750 3085 3872 
Q 2906 3994 2349 3994 
L 1510 3994 
Q 1370 3994 1328 3952 
Q 1286 3910 1286 3763 
L 1286 2355 
L 2253 2355 
Q 2656 2355 2787 2470 
Q 2918 2586 2976 2970 
L 3123 2970 
L 3123 1472 
L 2976 1472 
Q 2918 1875 2790 1984 
Q 2662 2093 2253 2093 
L 1286 2093 
L 1286 538 
Q 1286 346 1420 291 
Q 1555 237 1933 237 
L 2163 237 
Q 2848 237 3136 403 
Q 3424 570 3642 1082 
L 3821 1082 
z
" transform="scale(0.015625)"/>
       <path id="STIXGeneral-Regular-70" d="M 1018 2931 
L 1018 2438 
Q 1421 2944 1939 2944 
Q 2406 2944 2707 2560 
Q 3008 2176 3008 1581 
Q 3008 883 2621 409 
Q 2234 -64 1664 -64 
Q 1466 -64 1328 -6 
Q 1190 51 1018 211 
L 1018 -794 
Q 1018 -1094 1120 -1180 
Q 1222 -1267 1581 -1274 
L 1581 -1389 
L 32 -1389 
L 32 -1280 
Q 314 -1254 397 -1171 
Q 480 -1088 480 -838 
L 480 2157 
Q 480 2381 429 2451 
Q 378 2522 218 2522 
Q 115 2522 58 2515 
L 58 2618 
Q 506 2752 979 2944 
L 1018 2931 
z
M 1018 2138 
L 1018 563 
Q 1018 422 1238 281 
Q 1459 141 1683 141 
Q 2029 141 2243 467 
Q 2458 794 2458 1325 
Q 2458 1888 2243 2224 
Q 2029 2560 1670 2560 
Q 1446 2560 1232 2419 
Q 1018 2278 1018 2138 
z
" transform="scale(0.015625)"/>
       <path id="STIXGeneral-Regular-6f" d="M 3008 1478 
Q 3008 806 2608 371 
Q 2208 -64 1568 -64 
Q 979 -64 582 368 
Q 186 800 186 1459 
Q 186 2125 582 2534 
Q 979 2944 1626 2944 
Q 2221 2944 2614 2537 
Q 3008 2131 3008 1478 
z
M 2432 1306 
Q 2432 2035 2112 2445 
Q 1856 2765 1504 2765 
Q 1171 2765 966 2493 
Q 762 2221 762 1747 
Q 762 928 1101 435 
Q 1318 115 1677 115 
Q 2029 115 2230 432 
Q 2432 749 2432 1306 
z
" transform="scale(0.015625)"/>
       <path id="STIXGeneral-Regular-63" d="M 2547 998 
L 2637 941 
Q 2362 403 2112 205 
Q 1786 -64 1376 -64 
Q 845 -64 502 336 
Q 160 736 160 1357 
Q 160 2170 698 2618 
Q 1094 2944 1562 2944 
Q 1965 2944 2256 2749 
Q 2547 2554 2547 2285 
Q 2547 2176 2457 2096 
Q 2368 2016 2246 2016 
Q 2022 2016 1939 2310 
L 1901 2451 
Q 1850 2630 1773 2694 
Q 1696 2758 1523 2758 
Q 1133 2758 893 2451 
Q 653 2144 653 1645 
Q 653 1094 928 745 
Q 1203 397 1645 397 
Q 1920 397 2118 528 
Q 2317 659 2547 998 
z
" transform="scale(0.015625)"/>
       <path id="STIXGeneral-Regular-68" d="M 3117 0 
L 1760 0 
L 1760 96 
Q 2042 128 2118 224 
Q 2195 320 2195 653 
L 2195 1920 
Q 2195 2598 1722 2598 
Q 1530 2598 1370 2508 
Q 1210 2419 1005 2195 
L 1005 653 
Q 1005 320 1081 224 
Q 1158 128 1440 96 
L 1440 0 
L 58 0 
L 58 96 
Q 333 134 400 224 
Q 467 314 467 653 
L 467 3667 
Q 467 3872 406 3933 
Q 346 3994 141 3994 
Q 83 3994 64 3987 
L 64 4090 
L 237 4141 
Q 730 4288 973 4371 
L 1005 4352 
L 1005 2406 
Q 1229 2694 1446 2819 
Q 1664 2944 1946 2944 
Q 2733 2944 2733 1926 
L 2733 653 
Q 2733 320 2793 233 
Q 2854 147 3117 96 
L 3117 0 
z
" transform="scale(0.015625)"/>
      </defs>
      <use xlink:href="#STIXGeneral-Regular-45"/>
      <use xlink:href="#STIXGeneral-Regular-70" x="61.099991"/>
      <use xlink:href="#STIXGeneral-Regular-6f" x="111.099976"/>
      <use xlink:href="#STIXGeneral-Regular-63" x="161.09996"/>
      <use xlink:href="#STIXGeneral-Regular-68" x="205.499954"/>
     </g>
    </g>
   </g>
   <g id="matplotlib.axis_2">
    <g id="ytick_1">
     <g id="line2d_15">
      <path d="M 61.4 283.287122 
L 507.8 283.287122 
" clip-path="url(#p4652907d9c)" style="fill: none; stroke: #b0b0b0; stroke-width: 0.8; stroke-linecap: square"/>
     </g>
     <g id="line2d_16">
      <defs>
       <path id="m5e6599d233" d="M 0 0 
L -3.5 0 
" style="stroke: #000000; stroke-width: 0.8"/>
      </defs>
      <g>
       <use xlink:href="#m5e6599d233" x="61.4" y="283.287122" style="stroke: #000000; stroke-width: 0.8"/>
      </g>
     </g>
     <g id="text_9">
      <!-- 350 -->
      <g transform="translate(27.4 289.433841)scale(0.18 -0.18)">
       <use xlink:href="#STIXGeneral-Regular-33"/>
       <use xlink:href="#STIXGeneral-Regular-35" x="49.999985"/>
       <use xlink:href="#STIXGeneral-Regular-30" x="99.999969"/>
      </g>
     </g>
    </g>
    <g id="ytick_2">
     <g id="line2d_17">
      <path d="M 61.4 230.574458 
L 507.8 230.574458 
" clip-path="url(#p4652907d9c)" style="fill: none; stroke: #b0b0b0; stroke-width: 0.8; stroke-linecap: square"/>
     </g>
     <g id="line2d_18">
      <g>
       <use xlink:href="#m5e6599d233" x="61.4" y="230.574458" style="stroke: #000000; stroke-width: 0.8"/>
      </g>
     </g>
     <g id="text_10">
      <!-- 400 -->
      <g transform="translate(27.4 236.721177)scale(0.18 -0.18)">
       <defs>
        <path id="STIXGeneral-Regular-34" d="M 3027 1069 
L 2368 1069 
L 2368 0 
L 1869 0 
L 1869 1069 
L 77 1069 
L 77 1478 
L 2086 4326 
L 2368 4326 
L 2368 1478 
L 3027 1478 
L 3027 1069 
z
M 1869 1478 
L 1869 3674 
L 333 1478 
L 1869 1478 
z
" transform="scale(0.015625)"/>
       </defs>
       <use xlink:href="#STIXGeneral-Regular-34"/>
       <use xlink:href="#STIXGeneral-Regular-30" x="49.999985"/>
       <use xlink:href="#STIXGeneral-Regular-30" x="99.999969"/>
      </g>
     </g>
    </g>
    <g id="ytick_3">
     <g id="line2d_19">
      <path d="M 61.4 177.861794 
L 507.8 177.861794 
" clip-path="url(#p4652907d9c)" style="fill: none; stroke: #b0b0b0; stroke-width: 0.8; stroke-linecap: square"/>
     </g>
     <g id="line2d_20">
      <g>
       <use xlink:href="#m5e6599d233" x="61.4" y="177.861794" style="stroke: #000000; stroke-width: 0.8"/>
      </g>
     </g>
     <g id="text_11">
      <!-- 450 -->
      <g transform="translate(27.4 184.008512)scale(0.18 -0.18)">
       <use xlink:href="#STIXGeneral-Regular-34"/>
       <use xlink:href="#STIXGeneral-Regular-35" x="49.999985"/>
       <use xlink:href="#STIXGeneral-Regular-30" x="99.999969"/>
      </g>
     </g>
    </g>
    <g id="ytick_4">
     <g id="line2d_21">
      <path d="M 61.4 125.149129 
L 507.8 125.149129 
" clip-path="url(#p4652907d9c)" style="fill: none; stroke: #b0b0b0; stroke-width: 0.8; stroke-linecap: square"/>
     </g>
     <g id="line2d_22">
      <g>
       <use xlink:href="#m5e6599d233" x="61.4" y="125.149129" style="stroke: #000000; stroke-width: 0.8"/>
      </g>
     </g>
     <g id="text_12">
      <!-- 500 -->
      <g transform="translate(27.4 131.295848)scale(0.18 -0.18)">
       <use xlink:href="#STIXGeneral-Regular-35"/>
       <use xlink:href="#STIXGeneral-Regular-30" x="49.999985"/>
       <use xlink:href="#STIXGeneral-Regular-30" x="99.999969"/>
      </g>
     </g>
    </g>
    <g id="ytick_5">
     <g id="line2d_23">
      <path d="M 61.4 72.436465 
L 507.8 72.436465 
" clip-path="url(#p4652907d9c)" style="fill: none; stroke: #b0b0b0; stroke-width: 0.8; stroke-linecap: square"/>
     </g>
     <g id="line2d_24">
      <g>
       <use xlink:href="#m5e6599d233" x="61.4" y="72.436465" style="stroke: #000000; stroke-width: 0.8"/>
      </g>
     </g>
     <g id="text_13">
      <!-- 550 -->
      <g transform="translate(27.4 78.583184)scale(0.18 -0.18)">
       <use xlink:href="#STIXGeneral-Regular-35"/>
       <use xlink:href="#STIXGeneral-Regular-35" x="49.999985"/>
       <use xlink:href="#STIXGeneral-Regular-30" x="99.999969"/>
      </g>
     </g>
    </g>
    <g id="text_14">
     <!-- Average Return -->
     <g transform="translate(19.476562 223.893094)rotate(-90)scale(0.18 -0.18)">
      <defs>
       <path id="STIXGeneral-Regular-41" d="M 4525 0 
L 2893 0 
L 2893 122 
Q 3149 122 3245 179 
Q 3334 224 3334 333 
Q 3334 499 3213 781 
L 2950 1382 
L 1274 1382 
L 979 653 
Q 922 506 922 384 
Q 922 237 1027 179 
Q 1133 122 1370 122 
L 1370 0 
L 96 0 
L 96 122 
Q 365 147 486 316 
Q 608 486 902 1190 
L 2221 4314 
L 2349 4314 
L 3923 710 
Q 4064 378 4176 262 
Q 4288 147 4525 122 
L 4525 0 
z
M 2861 1645 
L 2118 3405 
L 1382 1645 
L 2861 1645 
z
" transform="scale(0.015625)"/>
       <path id="STIXGeneral-Regular-76" d="M 3053 2880 
L 3053 2784 
Q 2906 2771 2835 2688 
Q 2765 2605 2637 2285 
L 1818 230 
Q 1690 -90 1638 -90 
Q 1587 -90 1523 77 
Q 1510 96 1497 141 
Q 1485 186 1472 211 
L 704 2048 
Q 499 2534 403 2652 
Q 307 2771 122 2784 
L 122 2880 
L 1376 2880 
L 1376 2784 
Q 1210 2771 1146 2732 
Q 1082 2694 1082 2611 
Q 1082 2509 1139 2368 
L 1792 730 
L 2426 2387 
Q 2464 2483 2464 2579 
Q 2464 2758 2163 2784 
L 2163 2880 
L 3053 2880 
z
" transform="scale(0.015625)"/>
       <path id="STIXGeneral-Regular-65" d="M 2611 1050 
L 2714 1005 
Q 2330 -64 1376 -64 
Q 813 -64 486 329 
Q 160 723 160 1389 
Q 160 2074 525 2509 
Q 890 2944 1485 2944 
Q 2061 2944 2374 2502 
Q 2560 2246 2592 1773 
L 621 1773 
Q 646 1370 700 1158 
Q 755 947 915 730 
Q 1184 378 1626 378 
Q 1939 378 2153 531 
Q 2368 685 2611 1050 
z
M 634 1978 
L 1939 1978 
Q 1882 2381 1750 2547 
Q 1619 2714 1312 2714 
Q 1043 2714 864 2525 
Q 685 2336 634 1978 
z
" transform="scale(0.015625)"/>
       <path id="STIXGeneral-Regular-72" d="M 1024 2931 
L 1024 2342 
Q 1267 2688 1430 2816 
Q 1594 2944 1792 2944 
Q 1958 2944 2051 2854 
Q 2144 2765 2144 2605 
Q 2144 2470 2077 2393 
Q 2010 2317 1894 2317 
Q 1773 2317 1638 2445 
Q 1536 2541 1472 2541 
Q 1338 2541 1181 2355 
Q 1024 2170 1024 2016 
L 1024 576 
Q 1024 301 1133 205 
Q 1242 109 1568 96 
L 1568 0 
L 32 0 
L 32 96 
Q 339 154 412 224 
Q 486 294 486 538 
L 486 2138 
Q 486 2349 438 2435 
Q 390 2522 269 2522 
Q 166 2522 45 2496 
L 45 2598 
Q 448 2726 992 2944 
L 1024 2931 
z
" transform="scale(0.015625)"/>
       <path id="STIXGeneral-Regular-61" d="M 2829 422 
L 2829 243 
Q 2586 -64 2253 -64 
Q 1888 -64 1843 403 
L 1837 403 
Q 1427 -64 909 -64 
Q 608 -64 422 112 
Q 237 288 237 602 
Q 237 1050 685 1350 
Q 992 1555 1837 1869 
L 1837 2214 
Q 1837 2502 1699 2646 
Q 1562 2790 1338 2790 
Q 1146 2790 1018 2697 
Q 890 2605 890 2477 
Q 890 2419 909 2348 
Q 928 2278 928 2208 
Q 928 2112 841 2029 
Q 755 1946 634 1946 
Q 525 1946 441 2029 
Q 358 2112 358 2240 
Q 358 2547 685 2752 
Q 986 2944 1421 2944 
Q 1939 2944 2176 2656 
Q 2291 2522 2323 2384 
Q 2355 2246 2355 1946 
L 2355 723 
Q 2355 301 2554 301 
Q 2682 301 2829 422 
z
M 1837 813 
L 1837 1715 
Q 1248 1510 1018 1293 
Q 800 1094 800 800 
Q 800 557 921 432 
Q 1043 307 1242 307 
Q 1453 307 1613 410 
Q 1747 506 1792 589 
Q 1837 672 1837 813 
z
" transform="scale(0.015625)"/>
       <path id="STIXGeneral-Regular-67" d="M 3008 2483 
L 2477 2483 
Q 2598 2208 2598 1946 
Q 2598 1453 2265 1203 
Q 1933 954 1600 954 
Q 1530 954 1357 973 
L 1235 986 
Q 1107 947 979 812 
Q 851 678 851 582 
Q 851 435 1350 410 
L 2176 371 
Q 2528 358 2739 172 
Q 2950 -13 2950 -314 
Q 2950 -685 2566 -986 
Q 2035 -1395 1286 -1395 
Q 826 -1395 502 -1212 
Q 179 -1030 179 -774 
Q 179 -595 320 -419 
Q 461 -243 806 6 
Q 602 102 534 172 
Q 467 243 467 346 
Q 467 531 762 787 
Q 909 915 1037 1043 
Q 717 1203 579 1401 
Q 442 1600 442 1901 
Q 442 2336 752 2640 
Q 1062 2944 1510 2944 
Q 1766 2944 2022 2848 
L 2163 2797 
Q 2349 2733 2515 2733 
L 3008 2733 
L 3008 2483 
z
M 973 2163 
L 973 2144 
Q 973 1683 1155 1398 
Q 1338 1114 1632 1114 
Q 1850 1114 1978 1270 
Q 2106 1427 2106 1690 
Q 2106 2112 1914 2464 
Q 1754 2765 1446 2765 
Q 1222 2765 1097 2605 
Q 973 2445 973 2163 
z
M 2771 -410 
Q 2771 -230 2595 -163 
Q 2419 -96 1978 -96 
Q 1344 -96 941 -13 
Q 749 -243 688 -348 
Q 627 -454 627 -563 
Q 627 -774 880 -902 
Q 1133 -1030 1555 -1030 
Q 2099 -1030 2435 -860 
Q 2771 -691 2771 -410 
z
" transform="scale(0.015625)"/>
       <path id="STIXGeneral-Regular-20" transform="scale(0.015625)"/>
       <path id="STIXGeneral-Regular-52" d="M 4224 0 
L 3187 0 
L 1664 1971 
L 1306 1958 
L 1306 717 
Q 1306 352 1405 249 
Q 1504 147 1875 122 
L 1875 0 
L 109 0 
L 109 122 
Q 474 154 563 262 
Q 653 371 653 794 
L 653 3526 
Q 653 3885 563 3987 
Q 474 4090 109 4115 
L 109 4237 
L 1850 4237 
Q 2726 4237 3187 3859 
Q 3501 3603 3501 3091 
Q 3501 2221 2342 2042 
L 3622 422 
Q 3757 256 3878 198 
Q 4000 141 4224 122 
L 4224 0 
z
M 1306 3731 
L 1306 2195 
Q 1766 2202 1990 2246 
Q 2214 2291 2438 2413 
Q 2803 2618 2803 3142 
Q 2803 4000 1632 4000 
Q 1459 4000 1382 3945 
Q 1306 3891 1306 3731 
z
" transform="scale(0.015625)"/>
       <path id="STIXGeneral-Regular-74" d="M 1702 493 
L 1786 422 
Q 1478 -64 1011 -64 
Q 448 -64 448 749 
L 448 2675 
L 109 2675 
Q 83 2694 83 2720 
Q 83 2771 192 2842 
Q 435 2982 813 3526 
Q 826 3546 874 3606 
Q 922 3667 941 3706 
Q 986 3706 986 3622 
L 986 2880 
L 1632 2880 
L 1632 2675 
L 986 2675 
L 986 845 
Q 986 538 1062 403 
Q 1139 269 1318 269 
Q 1510 269 1702 493 
z
" transform="scale(0.015625)"/>
       <path id="STIXGeneral-Regular-75" d="M 3072 320 
L 3072 230 
Q 2573 96 2195 -58 
L 2163 -38 
L 2163 486 
L 2150 486 
Q 1747 -64 1235 -64 
Q 870 -64 662 160 
Q 454 384 454 755 
L 454 2362 
Q 454 2598 371 2688 
Q 288 2778 58 2790 
L 58 2880 
L 992 2880 
L 992 813 
Q 992 595 1123 451 
Q 1254 307 1446 307 
Q 1760 307 1984 506 
Q 2067 582 2099 649 
Q 2131 717 2131 877 
L 2131 2355 
Q 2131 2605 2041 2678 
Q 1952 2752 1658 2771 
L 1658 2880 
L 2669 2880 
L 2669 685 
Q 2669 461 2742 390 
Q 2816 320 3034 320 
L 3072 320 
z
" transform="scale(0.015625)"/>
       <path id="STIXGeneral-Regular-6e" d="M 3104 0 
L 1773 0 
L 1779 96 
Q 2016 115 2096 233 
Q 2176 352 2176 672 
L 2176 1946 
Q 2176 2592 1709 2592 
Q 1549 2592 1408 2515 
Q 1267 2438 1050 2227 
L 1050 461 
Q 1050 269 1136 192 
Q 1222 115 1466 96 
L 1466 0 
L 115 0 
L 115 96 
Q 358 115 435 214 
Q 512 314 512 602 
L 512 2157 
Q 512 2394 467 2483 
Q 422 2573 288 2573 
Q 160 2573 102 2547 
L 102 2656 
Q 550 2784 979 2944 
L 1030 2925 
L 1030 2426 
L 1037 2426 
Q 1491 2944 1958 2944 
Q 2323 2944 2518 2688 
Q 2714 2432 2714 1958 
L 2714 544 
Q 2714 288 2790 205 
Q 2867 122 3104 96 
L 3104 0 
z
" transform="scale(0.015625)"/>
      </defs>
      <use xlink:href="#STIXGeneral-Regular-41"/>
      <use xlink:href="#STIXGeneral-Regular-76" x="72.199982"/>
      <use xlink:href="#STIXGeneral-Regular-65" x="122.199966"/>
      <use xlink:href="#STIXGeneral-Regular-72" x="166.59996"/>
      <use xlink:href="#STIXGeneral-Regular-61" x="199.899948"/>
      <use xlink:href="#STIXGeneral-Regular-67" x="244.299942"/>
      <use xlink:href="#STIXGeneral-Regular-65" x="294.299927"/>
      <use xlink:href="#STIXGeneral-Regular-20" x="338.699921"/>
      <use xlink:href="#STIXGeneral-Regular-52" x="363.699905"/>
      <use xlink:href="#STIXGeneral-Regular-65" x="430.399902"/>
      <use xlink:href="#STIXGeneral-Regular-74" x="474.799896"/>
      <use xlink:href="#STIXGeneral-Regular-75" x="502.599884"/>
      <use xlink:href="#STIXGeneral-Regular-72" x="552.599869"/>
      <use xlink:href="#STIXGeneral-Regular-6e" x="585.899857"/>
     </g>
    </g>
   </g>
   <g id="line2d_25">
    <path d="M 81.690909 292.660125 
L 83.004237 283.742432 
L 84.317564 279.197395 
L 85.630891 268.163934 
L 86.944219 272.904903 
L 88.257546 279.183915 
L 89.570874 278.034876 
L 90.884201 274.92444 
L 92.197529 276.756379 
L 94.824184 271.621912 
L 96.137511 271.822747 
L 97.450838 269.695895 
L 98.764166 268.266664 
L 100.077493 264.981139 
L 101.390821 262.528615 
L 102.704148 264.920632 
L 104.017476 263.764042 
L 105.330803 265.624915 
L 106.644131 256.475056 
L 107.957458 251.37508 
L 109.270786 246.906575 
L 110.584113 253.186612 
L 111.89744 258.155456 
L 113.210768 256.454279 
L 114.524095 254.496971 
L 115.837423 257.028341 
L 117.15075 259.023211 
L 118.464078 250.441959 
L 119.777405 246.2852 
L 121.090733 247.092095 
L 122.40406 254.14946 
L 123.717387 261.901832 
L 125.030715 254.442185 
L 126.344042 261.68189 
L 127.65737 252.008172 
L 128.970697 247.57837 
L 130.284025 245.269453 
L 131.597352 251.44837 
L 132.91068 238.545865 
L 134.224007 249.4043 
L 135.537335 239.985531 
L 136.850662 245.362721 
L 138.163989 244.440744 
L 139.477317 237.452674 
L 140.790644 237.964039 
L 142.103972 234.072145 
L 143.417299 230.819517 
L 144.730627 232.340696 
L 146.043954 229.134738 
L 147.357282 232.704978 
L 148.670609 232.192713 
L 149.983936 241.46902 
L 151.297264 227.775546 
L 152.610591 227.546626 
L 153.923919 229.319813 
L 155.237246 210.37618 
L 156.550574 215.765331 
L 157.863901 205.837166 
L 159.177229 199.162418 
L 160.490556 194.806083 
L 161.803883 195.860869 
L 163.117211 200.626049 
L 164.430538 204.950893 
L 165.743866 205.83072 
L 167.057193 195.477363 
L 168.370521 195.030565 
L 169.683848 195.446233 
L 170.997176 207.866004 
L 172.310503 213.628732 
L 173.623831 205.227834 
L 174.937158 195.889193 
L 176.250485 187.913591 
L 177.563813 197.90448 
L 178.87714 190.543946 
L 180.190468 189.927338 
L 181.503795 197.08127 
L 182.817123 200.658585 
L 184.13045 193.012464 
L 185.443778 196.519249 
L 186.757105 188.213018 
L 188.070432 185.313232 
L 189.38376 187.697354 
L 190.697087 180.081827 
L 192.010415 193.79822 
L 193.323742 198.710543 
L 194.63707 186.467603 
L 195.950397 193.117207 
L 197.263725 196.811747 
L 198.577052 193.692575 
L 199.89038 188.942157 
L 201.203707 185.35075 
L 202.517034 172.099942 
L 203.830362 171.210779 
L 205.143689 170.729016 
L 206.457017 171.35261 
L 207.770344 176.102304 
L 209.083672 170.132916 
L 210.396999 153.988167 
L 211.710327 157.627931 
L 213.023654 157.662345 
L 214.336981 154.702811 
L 215.650309 146.451115 
L 216.963636 155.683383 
L 218.276964 156.925863 
L 219.590291 149.995378 
L 220.903619 153.430105 
L 222.216946 160.444515 
L 223.530274 162.033036 
L 224.843601 156.067238 
L 226.156929 163.308926 
L 227.470256 158.927277 
L 228.783583 162.525009 
L 230.096911 156.745348 
L 231.410238 162.720287 
L 232.723566 155.523464 
L 234.036893 153.751896 
L 235.350221 155.776314 
L 236.663548 147.54518 
L 237.976876 140.405733 
L 239.290203 144.072488 
L 240.60353 141.662731 
L 241.916858 147.88092 
L 243.230185 148.935263 
L 244.543513 160.830812 
L 245.85684 153.029815 
L 247.170168 160.977156 
L 248.483495 163.543533 
L 249.796823 167.497589 
L 251.11015 166.380138 
L 252.423477 161.433751 
L 253.736805 163.341712 
L 255.050132 158.164456 
L 256.36346 144.686719 
L 257.676787 155.353598 
L 258.990115 159.622813 
L 260.303442 153.624943 
L 261.61677 148.304488 
L 262.930097 159.511756 
L 264.243425 158.21634 
L 265.556752 157.318518 
L 266.870079 142.682585 
L 268.183407 150.691977 
L 269.496734 145.43423 
L 270.810062 148.473461 
L 272.123389 149.267159 
L 273.436717 156.961423 
L 274.750044 153.78123 
L 276.063372 151.416086 
L 277.376699 145.084762 
L 278.690026 150.541762 
L 280.003354 164.840271 
L 281.316681 155.943326 
L 282.630009 152.145834 
L 283.943336 158.471317 
L 285.256664 157.977435 
L 286.569991 152.838168 
L 287.883319 158.597338 
L 289.196646 159.545321 
L 290.509974 147.304482 
L 291.823301 153.297455 
L 293.136628 147.980358 
L 294.449956 154.950092 
L 295.763283 160.626741 
L 297.076611 153.555021 
L 298.389938 156.036147 
L 299.703266 147.678932 
L 301.016593 152.701642 
L 302.329921 167.12146 
L 303.643248 169.036322 
L 304.956575 168.827232 
L 306.269903 167.063567 
L 307.58323 164.285746 
L 308.896558 151.880971 
L 310.209885 147.827945 
L 311.523213 148.631666 
L 312.83654 153.212101 
L 314.149868 152.086677 
L 315.463195 153.524626 
L 316.776523 159.793378 
L 318.08985 158.366962 
L 319.403177 160.584366 
L 320.716505 160.771023 
L 322.029832 164.178344 
L 323.34316 163.983542 
L 324.656487 156.690455 
L 325.969815 153.214952 
L 328.59647 145.41376 
L 329.909797 139.808375 
L 331.223124 138.201572 
L 332.536452 141.01647 
L 333.849779 128.666133 
L 335.163107 147.230636 
L 336.476434 143.789473 
L 337.789762 136.115806 
L 339.103089 147.498291 
L 340.416417 149.210458 
L 341.729744 143.862666 
L 343.043071 145.978626 
L 344.356399 136.218914 
L 345.669726 140.901566 
L 346.983054 131.043348 
L 348.296381 132.681193 
L 349.609709 135.760567 
L 350.923036 133.268624 
L 352.236364 133.968703 
L 353.549691 140.748851 
L 354.863019 146.177211 
L 356.176346 144.922315 
L 357.489673 150.120554 
L 358.803001 151.799667 
L 360.116328 170.153257 
L 361.429656 169.672994 
L 362.742983 168.043649 
L 364.056311 173.518981 
L 365.369638 166.518583 
L 366.682966 170.704059 
L 367.996293 169.405105 
L 369.30962 164.109147 
L 370.622948 162.259594 
L 371.936275 154.57123 
L 373.249603 159.724365 
L 374.56293 170.688025 
L 375.876258 173.658994 
L 377.189585 159.453886 
L 378.502913 151.804415 
L 379.81624 158.009581 
L 381.129568 162.342712 
L 382.442895 165.978736 
L 383.756222 166.390641 
L 385.06955 165.35088 
L 386.382877 182.829808 
L 387.696205 172.419386 
L 389.009532 164.336542 
L 390.32286 163.50682 
L 391.636187 163.951933 
L 392.949515 161.085197 
L 394.262842 167.390414 
L 395.576169 166.992359 
L 396.889497 169.461125 
L 398.202824 171.168176 
L 399.516152 177.831812 
L 400.829479 178.199963 
L 402.142807 175.624199 
L 403.456134 176.497719 
L 404.769462 166.472568 
L 406.082789 179.560915 
L 408.709444 181.996351 
L 410.022771 177.664503 
L 411.336099 186.577141 
L 412.649426 185.753519 
L 413.962754 172.044181 
L 415.276081 175.549282 
L 416.589409 170.070032 
L 417.902736 180.50789 
L 419.216064 177.820597 
L 420.529391 189.594393 
L 421.842718 191.792119 
L 423.156046 184.467833 
L 424.469373 175.545416 
L 425.782701 172.51032 
L 427.096028 171.453467 
L 428.409356 167.934237 
L 429.722683 166.68161 
L 431.036011 168.438891 
L 432.349338 172.13211 
L 433.662665 172.028993 
L 434.975993 175.461216 
L 437.602648 188.615779 
L 438.915975 195.333512 
L 440.229303 203.233656 
L 441.54263 201.195055 
L 442.855958 195.043621 
L 444.169285 194.647702 
L 445.482613 201.246014 
L 446.79594 210.757836 
L 448.109267 201.945022 
L 449.422595 212.273808 
L 450.735922 216.90329 
L 452.04925 200.755073 
L 453.362577 195.717483 
L 454.675905 203.328486 
L 455.989232 201.823222 
L 457.30256 198.074558 
L 458.615887 189.640784 
L 459.929214 200.789754 
L 461.242542 197.436087 
L 462.555869 191.389707 
L 463.869197 198.485612 
L 465.182524 193.062312 
L 466.495852 199.755531 
L 467.809179 207.884157 
L 469.122507 199.532294 
L 471.749162 195.943796 
L 473.062489 197.167221 
L 474.375816 197.65286 
L 475.689144 202.419993 
L 477.002471 194.39579 
L 478.315799 182.256473 
L 479.629126 185.762133 
L 479.629126 185.762133 
" clip-path="url(#p4652907d9c)" style="fill: none; stroke: #1f77b4; stroke-width: 1.5; stroke-linecap: square"/>
   </g>
   <g id="line2d_26">
    <path d="M 81.690909 259.35926 
L 83.004237 259.036292 
L 84.317564 273.097374 
L 85.630891 271.583183 
L 86.944219 271.315958 
L 88.257546 259.891638 
L 89.570874 253.128649 
L 90.884201 260.67961 
L 92.197529 263.178819 
L 93.510856 254.342634 
L 94.824184 249.836516 
L 96.137511 244.399148 
L 97.450838 246.407891 
L 98.764166 246.7616 
L 100.077493 248.963163 
L 101.390821 255.659209 
L 102.704148 265.484033 
L 104.017476 263.255656 
L 105.330803 258.841721 
L 106.644131 259.811641 
L 107.957458 261.496429 
L 109.270786 270.424612 
L 110.584113 270.650068 
L 111.89744 275.357701 
L 113.210768 274.218987 
L 114.524095 279.443579 
L 115.837423 278.709873 
L 117.15075 270.800075 
L 118.464078 274.137572 
L 119.777405 275.141425 
L 121.090733 277.113803 
L 122.40406 271.48794 
L 123.717387 269.804633 
L 125.030715 265.941936 
L 127.65737 253.317747 
L 128.970697 248.125029 
L 130.284025 248.921178 
L 131.597352 236.676802 
L 132.91068 240.869166 
L 134.224007 244.081303 
L 136.850662 258.163861 
L 138.163989 261.881288 
L 139.477317 259.808327 
L 140.790644 247.457068 
L 142.103972 236.165433 
L 143.417299 244.046747 
L 144.730627 240.694206 
L 146.043954 240.372896 
L 147.357282 234.173685 
L 148.670609 226.520438 
L 149.983936 225.479271 
L 151.297264 226.300489 
L 152.610591 218.114187 
L 153.923919 209.13617 
L 155.237246 210.791494 
L 156.550574 207.859229 
L 157.863901 203.161371 
L 159.177229 199.238714 
L 160.490556 211.33718 
L 161.803883 210.688047 
L 163.117211 220.783252 
L 164.430538 217.005964 
L 165.743866 221.170908 
L 167.057193 216.604499 
L 168.370521 218.621032 
L 169.683848 210.820986 
L 170.997176 204.186883 
L 172.310503 192.984967 
L 173.623831 198.1628 
L 174.937158 192.37447 
L 176.250485 191.787258 
L 177.563813 195.183025 
L 178.87714 195.827422 
L 180.190468 203.110257 
L 181.503795 193.064189 
L 182.817123 169.51655 
L 184.13045 143.699654 
L 185.443778 138.216827 
L 186.757105 147.18751 
L 188.070432 132.469575 
L 190.697087 139.766632 
L 192.010415 152.636359 
L 193.323742 141.559695 
L 194.63707 137.82584 
L 195.950397 140.555292 
L 197.263725 153.933589 
L 198.577052 162.472869 
L 199.89038 163.046636 
L 201.203707 172.955671 
L 202.517034 156.239884 
L 203.830362 158.737507 
L 205.143689 152.773571 
L 206.457017 149.975257 
L 207.770344 151.14355 
L 209.083672 152.965005 
L 210.396999 135.513649 
L 211.710327 128.767972 
L 213.023654 143.817028 
L 214.336981 147.963153 
L 215.650309 154.299149 
L 216.963636 161.434745 
L 218.276964 161.123228 
L 219.590291 171.821703 
L 220.903619 177.557286 
L 222.216946 166.991236 
L 223.530274 153.059914 
L 224.843601 168.259036 
L 226.156929 169.337267 
L 227.470256 170.803272 
L 228.783583 165.017323 
L 230.096911 179.915229 
L 231.410238 182.314604 
L 232.723566 174.73138 
L 235.350221 163.377366 
L 236.663548 172.003027 
L 237.976876 191.735394 
L 239.290203 189.893162 
L 240.60353 190.524729 
L 241.916858 172.900994 
L 244.543513 183.202231 
L 245.85684 188.421055 
L 247.170168 171.587853 
L 248.483495 185.027161 
L 249.796823 176.668769 
L 251.11015 185.437632 
L 252.423477 164.686563 
L 253.736805 169.79669 
L 255.050132 179.830219 
L 256.36346 180.932333 
L 257.676787 176.460036 
L 258.990115 180.559398 
L 260.303442 183.419213 
L 261.61677 171.801602 
L 262.930097 187.617771 
L 264.243425 169.350175 
L 265.556752 182.966447 
L 266.870079 201.12629 
L 268.183407 209.171271 
L 269.496734 202.537464 
L 270.810062 202.692885 
L 272.123389 201.836987 
L 273.436717 205.011572 
L 274.750044 205.227433 
L 276.063372 200.0205 
L 277.376699 185.579732 
L 278.690026 176.465721 
L 280.003354 189.001854 
L 281.316681 188.039035 
L 282.630009 195.019253 
L 283.943336 192.179883 
L 285.256664 205.977464 
L 286.569991 205.82532 
L 287.883319 213.9277 
L 289.196646 213.370469 
L 290.509974 203.54224 
L 291.823301 174.568494 
L 293.136628 172.923467 
L 294.449956 184.106166 
L 295.763283 185.154669 
L 297.076611 175.033232 
L 298.389938 162.926314 
L 299.703266 162.985903 
L 301.016593 164.023171 
L 302.329921 149.103417 
L 303.643248 159.506648 
L 304.956575 160.689548 
L 306.269903 186.507491 
L 307.58323 209.164656 
L 308.896558 199.505979 
L 310.209885 195.26716 
L 311.523213 185.221258 
L 312.83654 188.254813 
L 314.149868 198.501624 
L 315.463195 197.729256 
L 316.776523 188.24336 
L 318.08985 193.201736 
L 319.403177 190.019702 
L 320.716505 194.193376 
L 322.029832 188.501649 
L 323.34316 173.882816 
L 324.656487 189.743079 
L 325.969815 190.381233 
L 327.283142 186.813918 
L 328.59647 177.798851 
L 329.909797 185.125324 
L 331.223124 181.914253 
L 332.536452 186.503364 
L 333.849779 188.480349 
L 335.163107 205.402917 
L 336.476434 200.333707 
L 337.789762 207.710525 
L 339.103089 199.496528 
L 340.416417 186.55744 
L 341.729744 192.907043 
L 343.043071 191.588491 
L 344.356399 190.711174 
L 345.669726 200.916405 
L 346.983054 209.978314 
L 348.296381 190.291002 
L 349.609709 165.795505 
L 350.923036 173.439059 
L 352.236364 168.063142 
L 353.549691 156.956585 
L 354.863019 166.107261 
L 356.176346 159.688156 
L 358.803001 130.360682 
L 360.116328 144.430652 
L 361.429656 149.745162 
L 362.742983 131.366577 
L 364.056311 149.783785 
L 365.369638 134.02003 
L 366.682966 129.436141 
L 367.996293 137.733422 
L 369.30962 134.797955 
L 370.622948 138.753437 
L 371.936275 131.471378 
L 373.249603 138.487743 
L 374.56293 149.398995 
L 375.876258 151.691746 
L 377.189585 134.01218 
L 378.502913 128.85194 
L 379.81624 127.037539 
L 381.129568 121.010831 
L 382.442895 110.070475 
L 383.756222 121.889429 
L 385.06955 121.616331 
L 386.382877 125.94898 
L 387.696205 122.293175 
L 389.009532 123.330003 
L 390.32286 120.253474 
L 391.636187 128.857354 
L 392.949515 143.463794 
L 394.262842 138.418485 
L 395.576169 121.58188 
L 396.889497 120.297218 
L 398.202824 127.874789 
L 399.516152 109.919175 
L 400.829479 118.538662 
L 402.142807 118.926667 
L 403.456134 116.716838 
L 404.769462 99.768533 
L 406.082789 99.698118 
L 407.396117 117.986183 
L 408.709444 105.877696 
L 410.022771 113.135548 
L 411.336099 103.484995 
L 412.649426 103.729415 
L 413.962754 88.186945 
L 415.276081 76.307936 
L 416.589409 65.506653 
L 417.902736 59.431267 
L 419.216064 65.820977 
L 420.529391 64.184191 
L 421.842718 58.402822 
L 423.156046 69.768729 
L 424.469373 60.783559 
L 425.782701 64.080061 
L 427.096028 60.022053 
L 428.409356 40.660125 
L 429.722683 46.300215 
L 431.036011 50.645734 
L 432.349338 57.972888 
L 433.662665 57.999718 
L 434.975993 68.572401 
L 436.28932 60.25296 
L 437.602648 67.984634 
L 438.915975 66.655293 
L 440.229303 61.415875 
L 440.229303 61.415875 
" clip-path="url(#p4652907d9c)" style="fill: none; stroke: #ff7f0e; stroke-width: 1.5; stroke-linecap: square"/>
   </g>
   <g id="line2d_27">
    <path d="M 81.690909 274.006907 
L 83.004237 276.732033 
L 84.317564 276.530145 
L 85.630891 269.117625 
L 86.944219 273.708495 
L 89.570874 262.558274 
L 90.884201 253.755107 
L 92.197529 248.534078 
L 93.510856 250.022647 
L 94.824184 257.590067 
L 96.137511 263.150063 
L 97.450838 261.158092 
L 98.764166 260.725841 
L 100.077493 261.759378 
L 101.390821 272.68753 
L 102.704148 273.169183 
L 105.330803 278.824961 
L 106.644131 275.56354 
L 107.957458 276.94707 
L 109.270786 273.552311 
L 110.584113 272.791229 
L 111.89744 270.526789 
L 113.210768 269.023694 
L 114.524095 267.756014 
L 115.837423 267.978594 
L 117.15075 267.109985 
L 118.464078 267.295935 
L 121.090733 261.716316 
L 122.40406 261.388273 
L 123.717387 257.023196 
L 125.030715 253.335186 
L 126.344042 262.369405 
L 127.65737 260.196983 
L 128.970697 265.58145 
L 130.284025 262.636717 
L 131.597352 270.661924 
L 132.91068 267.033473 
L 134.224007 270.411013 
L 135.537335 265.768908 
L 136.850662 269.246594 
L 138.163989 262.395128 
L 139.477317 267.980894 
L 140.790644 260.319178 
L 142.103972 264.828905 
L 143.417299 271.743492 
L 144.730627 264.694535 
L 146.043954 252.627923 
L 147.357282 263.043378 
L 148.670609 249.140107 
L 149.983936 243.968138 
L 151.297264 247.371238 
L 152.610591 249.530183 
L 153.923919 244.846742 
L 155.237246 236.24033 
L 156.550574 237.760709 
L 157.863901 225.176526 
L 159.177229 220.945807 
L 160.490556 224.166388 
L 161.803883 224.010023 
L 163.117211 213.995414 
L 164.430538 213.380237 
L 165.743866 220.15896 
L 167.057193 217.663738 
L 168.370521 221.686197 
L 169.683848 222.48204 
L 170.997176 226.919893 
L 172.310503 239.899307 
L 173.623831 238.389799 
L 174.937158 238.428533 
L 176.250485 245.845303 
L 177.563813 249.375726 
L 178.87714 246.624196 
L 180.190468 236.728572 
L 181.503795 248.138375 
L 182.817123 247.162461 
L 184.13045 246.37058 
L 185.443778 253.937362 
L 186.757105 241.016799 
L 188.070432 239.53974 
L 189.38376 246.012274 
L 190.697087 248.937791 
L 192.010415 232.79979 
L 193.323742 242.130058 
L 194.63707 247.095577 
L 195.950397 239.014637 
L 197.263725 236.512275 
L 198.577052 238.15026 
L 199.89038 236.61911 
L 201.203707 232.361904 
L 202.517034 227.313947 
L 203.830362 223.381503 
L 205.143689 228.854128 
L 206.457017 230.211116 
L 207.770344 235.828944 
L 209.083672 235.48323 
L 210.396999 237.232193 
L 211.710327 241.375763 
L 213.023654 241.478266 
L 214.336981 234.113498 
L 215.650309 241.962171 
L 216.963636 239.946727 
L 218.276964 251.29292 
L 219.590291 249.426558 
L 220.903619 256.903087 
L 222.216946 253.708271 
L 223.530274 243.957386 
L 224.843601 252.388164 
L 226.156929 253.756462 
L 227.470256 260.954026 
L 228.783583 258.580166 
L 230.096911 253.075998 
L 231.410238 259.222629 
L 232.723566 264.781842 
L 234.036893 261.932139 
L 235.350221 261.194644 
L 236.663548 260.843288 
L 237.976876 262.74905 
L 239.290203 257.969513 
L 240.60353 254.4644 
L 241.916858 251.759229 
L 243.230185 263.289391 
L 244.543513 267.073259 
L 245.85684 266.521934 
L 247.170168 265.654424 
L 248.483495 261.839802 
L 249.796823 256.751286 
L 251.11015 260.329535 
L 252.423477 257.674163 
L 253.736805 242.024327 
L 255.050132 234.780434 
L 256.36346 231.012521 
L 257.676787 230.848248 
L 258.990115 219.671067 
L 260.303442 215.354254 
L 261.61677 213.392921 
L 262.930097 204.863618 
L 264.243425 200.794164 
L 265.556752 213.020087 
L 266.870079 221.0098 
L 268.183407 232.236722 
L 269.496734 230.396836 
L 270.810062 240.176706 
L 272.123389 239.63493 
L 273.436717 240.038331 
L 274.750044 242.320104 
L 276.063372 246.770556 
L 277.376699 240.602344 
L 278.690026 239.348566 
L 280.003354 243.520739 
L 281.316681 234.825393 
L 282.630009 234.000145 
L 285.256664 220.902703 
L 286.569991 236.296599 
L 287.883319 237.712673 
L 289.196646 233.370468 
L 290.509974 234.854327 
L 291.823301 242.810701 
L 293.136628 240.455265 
L 294.449956 241.337232 
L 295.763283 242.64678 
L 297.076611 245.242294 
L 298.389938 228.9576 
L 299.703266 222.143996 
L 301.016593 232.485642 
L 302.329921 233.775727 
L 303.643248 229.762538 
L 304.956575 235.680678 
L 307.58323 251.550764 
L 308.896558 248.026241 
L 310.209885 247.192782 
L 311.523213 249.601387 
L 312.83654 241.809017 
L 314.149868 236.348181 
L 315.463195 243.197131 
L 316.776523 240.771701 
L 318.08985 235.242202 
L 319.403177 235.000162 
L 320.716505 238.299292 
L 322.029832 238.650739 
L 323.34316 230.046147 
L 324.656487 226.327688 
L 325.969815 218.778927 
L 327.283142 221.515743 
L 328.59647 228.762234 
L 329.909797 228.078308 
L 331.223124 234.642484 
L 332.536452 234.87539 
L 333.849779 238.89425 
L 335.163107 246.932025 
L 336.476434 245.312176 
L 337.789762 256.992412 
L 340.416417 257.455484 
L 341.729744 258.565534 
L 343.043071 254.704246 
L 344.356399 260.813494 
L 345.669726 255.511366 
L 346.983054 256.716166 
L 348.296381 259.326136 
L 349.609709 251.470167 
L 350.923036 247.411904 
L 353.549691 254.583491 
L 354.863019 257.043125 
L 356.176346 254.525972 
L 357.489673 251.539031 
L 358.803001 250.961342 
L 360.116328 256.605197 
L 361.429656 257.605849 
L 362.742983 259.919583 
L 364.056311 255.166578 
L 365.369638 247.37519 
L 367.996293 237.385938 
L 369.30962 246.030281 
L 370.622948 248.182009 
L 371.936275 240.351079 
L 373.249603 240.432874 
L 374.56293 240.341985 
L 375.876258 248.577779 
L 377.189585 253.341595 
L 378.502913 259.703887 
L 379.81624 250.76508 
L 381.129568 256.585812 
L 382.442895 237.81199 
L 383.756222 237.593766 
L 385.06955 240.137871 
L 386.382877 245.293671 
L 387.696205 233.448052 
L 389.009532 234.192937 
L 390.32286 238.465873 
L 392.949515 245.223854 
L 394.262842 249.7532 
L 395.576169 237.179477 
L 396.889497 227.470511 
L 398.202824 244.230718 
L 399.516152 243.787101 
L 400.829479 241.153004 
L 402.142807 231.212673 
L 403.456134 236.356741 
L 404.769462 236.5214 
L 406.082789 230.842793 
L 407.396117 220.022176 
L 408.709444 219.491575 
L 410.022771 224.837548 
L 411.336099 210.976897 
L 412.649426 206.45291 
L 413.962754 204.106502 
L 415.276081 208.276754 
L 416.589409 202.118791 
L 417.902736 215.583877 
L 419.216064 213.316434 
L 420.529391 221.336558 
L 421.842718 220.703231 
L 423.156046 217.170101 
L 424.469373 222.805329 
L 425.782701 198.777734 
L 427.096028 188.175033 
L 428.409356 163.070123 
L 429.722683 154.389591 
L 431.036011 157.684162 
L 432.349338 149.594343 
L 433.662665 131.986471 
L 434.975993 129.872143 
L 436.28932 133.423423 
L 437.602648 124.501016 
L 438.915975 125.943092 
L 440.229303 126.529884 
L 441.54263 138.611673 
L 442.855958 137.410878 
L 444.169285 134.944332 
L 445.482613 133.758391 
L 446.79594 141.767774 
L 448.109267 141.65038 
L 449.422595 156.74248 
L 450.735922 150.412822 
L 452.04925 156.371452 
L 453.362577 175.635186 
L 454.675905 191.884994 
L 455.989232 187.247604 
L 457.30256 193.36989 
L 458.615887 204.389653 
L 459.929214 209.904234 
L 461.242542 220.998024 
L 462.555869 210.796424 
L 463.869197 205.433608 
L 465.182524 207.673545 
L 466.495852 198.943495 
L 467.809179 194.301004 
L 469.122507 181.716308 
L 470.435834 178.394986 
L 471.749162 166.353353 
L 473.062489 160.471671 
L 474.375816 159.196205 
L 475.689144 143.431817 
L 477.002471 132.396476 
L 478.315799 153.615615 
L 479.629126 170.082053 
L 480.942454 175.047618 
L 482.255781 187.852245 
L 483.569109 182.126777 
L 484.882436 178.521107 
L 486.195763 185.446522 
L 487.509091 169.972172 
L 487.509091 169.972172 
" clip-path="url(#p4652907d9c)" style="fill: none; stroke: #2ca02c; stroke-width: 1.5; stroke-linecap: square"/>
   </g>
   <g id="line2d_28">
    <path d="M 81.690909 262.711649 
L 83.004237 271.159213 
L 84.317564 266.324296 
L 85.630891 270.423281 
L 86.944219 266.763769 
L 88.257546 261.129513 
L 89.570874 256.691219 
L 90.884201 258.040299 
L 92.197529 258.233127 
L 93.510856 252.060213 
L 94.824184 256.461487 
L 96.137511 262.048254 
L 97.450838 262.885691 
L 98.764166 258.069708 
L 100.077493 250.125545 
L 101.390821 250.145591 
L 102.704148 251.730492 
L 104.017476 255.221731 
L 105.330803 259.300933 
L 106.644131 252.289761 
L 107.957458 260.743788 
L 110.584113 245.564293 
L 111.89744 236.758308 
L 113.210768 234.904914 
L 114.524095 243.381847 
L 115.837423 251.12683 
L 117.15075 252.530485 
L 118.464078 239.247139 
L 119.777405 240.277676 
L 121.090733 228.791969 
L 122.40406 230.252234 
L 123.717387 237.457799 
L 125.030715 235.285885 
L 126.344042 227.47796 
L 127.65737 245.965916 
L 128.970697 232.937383 
L 130.284025 236.044203 
L 131.597352 226.083568 
L 132.91068 217.675506 
L 134.224007 232.876232 
L 135.537335 229.30581 
L 136.850662 226.932656 
L 138.163989 225.58939 
L 139.477317 222.144965 
L 142.103972 230.439668 
L 143.417299 233.244011 
L 144.730627 239.038849 
L 146.043954 239.210283 
L 147.357282 234.348978 
L 148.670609 244.681541 
L 151.297264 250.967071 
L 152.610591 247.193002 
L 153.923919 254.657315 
L 155.237246 245.768185 
L 156.550574 247.909044 
L 157.863901 251.907296 
L 159.177229 249.827447 
L 160.490556 248.27245 
L 161.803883 246.442578 
L 165.743866 260.276805 
L 167.057193 249.46416 
L 168.370521 250.868171 
L 169.683848 255.035259 
L 170.997176 249.743638 
L 172.310503 241.29839 
L 173.623831 240.363407 
L 174.937158 243.784089 
L 176.250485 244.999736 
L 177.563813 246.483588 
L 178.87714 240.508936 
L 180.190468 229.667274 
L 181.503795 234.724856 
L 182.817123 236.98699 
L 184.13045 230.753737 
L 185.443778 222.769926 
L 186.757105 233.309747 
L 188.070432 242.803709 
L 189.38376 235.628878 
L 190.697087 230.69018 
L 192.010415 233.300141 
L 193.323742 227.436025 
L 195.950397 224.442358 
L 197.263725 217.259899 
L 198.577052 213.244089 
L 199.89038 205.124892 
L 201.203707 196.238576 
L 202.517034 203.550104 
L 203.830362 202.773484 
L 206.457017 191.389341 
L 207.770344 189.096207 
L 209.083672 190.118546 
L 210.396999 197.76088 
L 211.710327 199.153149 
L 213.023654 191.123864 
L 214.336981 182.379059 
L 215.650309 183.611779 
L 216.963636 181.998993 
L 218.276964 187.50256 
L 219.590291 190.247369 
L 220.903619 190.479803 
L 222.216946 187.27031 
L 223.530274 178.587677 
L 224.843601 158.499909 
L 226.156929 171.393388 
L 227.470256 162.103555 
L 228.783583 157.028688 
L 230.096911 163.148873 
L 231.410238 172.592828 
L 232.723566 176.25585 
L 234.036893 182.264495 
L 235.350221 173.743762 
L 236.663548 170.822192 
L 237.976876 170.838354 
L 239.290203 178.077614 
L 240.60353 178.071578 
L 241.916858 185.749951 
L 243.230185 178.888869 
L 244.543513 180.098966 
L 245.85684 168.718807 
L 247.170168 160.638747 
L 248.483495 163.844063 
L 249.796823 165.785283 
L 251.11015 175.341611 
L 252.423477 176.112606 
L 253.736805 187.595894 
L 255.050132 201.857996 
L 256.36346 198.071846 
L 257.676787 197.364625 
L 258.990115 196.314471 
L 260.303442 191.095263 
L 261.61677 198.65782 
L 262.930097 201.423933 
L 264.243425 190.620633 
L 265.556752 198.091384 
L 266.870079 207.060988 
L 268.183407 197.612294 
L 269.496734 203.713033 
L 270.810062 197.124981 
L 272.123389 202.096716 
L 273.436717 208.768408 
L 274.750044 206.027265 
L 276.063372 199.016028 
L 277.376699 189.504572 
L 278.690026 200.956726 
L 280.003354 209.992777 
L 281.316681 211.49519 
L 282.630009 197.560661 
L 283.943336 198.895779 
L 285.256664 193.771991 
L 286.569991 179.513418 
L 287.883319 191.179218 
L 289.196646 189.008123 
L 290.509974 196.459603 
L 291.823301 192.389534 
L 293.136628 197.897312 
L 294.449956 193.394429 
L 295.763283 194.617348 
L 297.076611 209.826015 
L 298.389938 193.912829 
L 299.703266 205.763556 
L 301.016593 210.703378 
L 302.329921 209.775607 
L 303.643248 218.472488 
L 304.956575 212.352491 
L 306.269903 211.539035 
L 307.58323 217.972188 
L 308.896558 213.104376 
L 310.209885 212.460346 
L 311.523213 216.013994 
L 312.83654 218.771103 
L 314.149868 217.508206 
L 315.463195 217.707378 
L 316.776523 214.860533 
L 318.08985 223.330242 
L 319.403177 223.450089 
L 320.716505 216.374001 
L 322.029832 213.778386 
L 323.34316 213.441 
L 324.656487 205.029756 
L 327.283142 227.817292 
L 328.59647 221.685345 
L 329.909797 224.225242 
L 331.223124 220.246202 
L 332.536452 220.365177 
L 333.849779 215.282934 
L 335.163107 225.768814 
L 336.476434 223.364129 
L 337.789762 229.978209 
L 339.103089 228.627787 
L 340.416417 232.166998 
L 341.729744 229.039 
L 343.043071 236.333664 
L 344.356399 242.841065 
L 345.669726 234.182339 
L 346.983054 241.338815 
L 348.296381 238.981703 
L 349.609709 239.78604 
L 350.923036 235.798078 
L 352.236364 244.641733 
L 353.549691 247.307351 
L 354.863019 241.283411 
L 356.176346 247.728607 
L 358.803001 235.981461 
L 360.116328 234.026229 
L 361.429656 237.485575 
L 362.742983 231.019556 
L 364.056311 230.423329 
L 365.369638 236.387149 
L 366.682966 233.347697 
L 367.996293 233.985101 
L 369.30962 219.16582 
L 370.622948 224.379715 
L 371.936275 221.079682 
L 373.249603 216.798591 
L 374.56293 229.736997 
L 375.876258 219.362456 
L 377.189585 218.779673 
L 378.502913 228.655616 
L 379.81624 224.663403 
L 381.129568 223.318518 
L 382.442895 233.676789 
L 383.756222 247.91822 
L 385.06955 230.601803 
L 386.382877 242.329818 
L 386.382877 242.329818 
" clip-path="url(#p4652907d9c)" style="fill: none; stroke: #d62728; stroke-width: 1.5; stroke-linecap: square"/>
   </g>
   <g id="patch_3">
    <path d="M 61.4 305.260125 
L 61.4 28.060125 
" style="fill: none; stroke: #000000; stroke-width: 0.8; stroke-linejoin: miter; stroke-linecap: square"/>
   </g>
   <g id="patch_4">
    <path d="M 507.8 305.260125 
L 507.8 28.060125 
" style="fill: none; stroke: #000000; stroke-width: 0.8; stroke-linejoin: miter; stroke-linecap: square"/>
   </g>
   <g id="patch_5">
    <path d="M 61.4 305.260125 
L 507.8 305.260125 
" style="fill: none; stroke: #000000; stroke-width: 0.8; stroke-linejoin: miter; stroke-linecap: square"/>
   </g>
   <g id="patch_6">
    <path d="M 61.4 28.060125 
L 507.8 28.060125 
" style="fill: none; stroke: #000000; stroke-width: 0.8; stroke-linejoin: miter; stroke-linecap: square"/>
   </g>
   <g id="text_15">
    <!-- ML45 Meta Test Average  Return -->
    <g transform="translate(137.326813 22.060125)scale(0.216 -0.216)">
     <defs>
      <path id="STIXGeneral-Regular-4d" d="M 5530 0 
L 3738 0 
L 3738 122 
Q 4115 147 4214 265 
Q 4314 384 4314 787 
L 4314 3661 
L 2682 0 
L 2592 0 
L 979 3514 
L 979 966 
Q 979 448 1088 294 
Q 1197 141 1574 122 
L 1574 0 
L 77 0 
L 77 122 
Q 358 141 480 205 
Q 602 269 650 432 
Q 698 595 698 966 
L 698 3514 
Q 698 3878 589 3984 
Q 480 4090 90 4115 
L 90 4237 
L 1357 4237 
L 2835 1024 
L 4250 4237 
L 5523 4237 
L 5523 4115 
Q 5178 4109 5072 3993 
Q 4966 3878 4966 3520 
L 4966 717 
Q 4966 378 5072 262 
Q 5178 147 5530 122 
L 5530 0 
z
" transform="scale(0.015625)"/>
      <path id="STIXGeneral-Regular-4c" d="M 3827 1114 
L 3520 0 
L 77 0 
L 77 122 
Q 429 141 531 256 
Q 634 371 634 736 
L 634 3494 
Q 634 3872 541 3981 
Q 448 4090 77 4115 
L 77 4237 
L 1888 4237 
L 1888 4115 
Q 1498 4090 1392 3984 
Q 1286 3878 1286 3507 
L 1286 538 
Q 1286 358 1398 304 
Q 1510 250 1862 250 
L 2310 250 
Q 3085 250 3392 640 
Q 3520 813 3661 1114 
L 3827 1114 
z
" transform="scale(0.015625)"/>
      <path id="STIXGeneral-Regular-54" d="M 3795 3149 
L 3642 3149 
Q 3539 3674 3353 3821 
Q 3168 3968 2656 3968 
L 2278 3968 
L 2278 710 
Q 2278 346 2387 243 
Q 2496 141 2893 122 
L 2893 0 
L 1024 0 
L 1024 122 
Q 1427 147 1526 256 
Q 1626 365 1626 787 
L 1626 3968 
L 1242 3968 
Q 723 3968 540 3817 
Q 358 3667 262 3149 
L 109 3149 
L 154 4237 
L 3750 4237 
L 3795 3149 
z
" transform="scale(0.015625)"/>
      <path id="STIXGeneral-Regular-73" d="M 998 1926 
L 1664 1523 
Q 1984 1331 2105 1164 
Q 2227 998 2227 736 
Q 2227 416 1961 176 
Q 1696 -64 1331 -64 
Q 1030 -64 864 -6 
Q 691 51 570 51 
Q 461 51 416 -26 
L 333 -26 
L 333 979 
L 435 979 
Q 538 512 730 294 
Q 922 77 1248 77 
Q 1485 77 1632 211 
Q 1779 346 1779 550 
Q 1779 845 1440 1030 
L 1094 1222 
Q 326 1651 326 2150 
Q 326 2522 566 2730 
Q 806 2938 1210 2938 
Q 1491 2938 1638 2867 
Q 1754 2816 1818 2816 
Q 1862 2816 1920 2880 
L 1990 2880 
L 2022 2010 
L 1926 2010 
Q 1818 2445 1654 2621 
Q 1491 2797 1203 2797 
Q 986 2797 854 2688 
Q 723 2579 723 2362 
Q 723 2253 796 2128 
Q 870 2003 998 1926 
z
" transform="scale(0.015625)"/>
     </defs>
     <use xlink:href="#STIXGeneral-Regular-4d"/>
     <use xlink:href="#STIXGeneral-Regular-4c" x="88.899994"/>
     <use xlink:href="#STIXGeneral-Regular-34" x="149.999985"/>
     <use xlink:href="#STIXGeneral-Regular-35" x="199.999969"/>
     <use xlink:href="#STIXGeneral-Regular-20" x="249.999954"/>
     <use xlink:href="#STIXGeneral-Regular-4d" x="274.999939"/>
     <use xlink:href="#STIXGeneral-Regular-65" x="363.899933"/>
     <use xlink:href="#STIXGeneral-Regular-74" x="408.299927"/>
     <use xlink:href="#STIXGeneral-Regular-61" x="436.099915"/>
     <use xlink:href="#STIXGeneral-Regular-20" x="480.499908"/>
     <use xlink:href="#STIXGeneral-Regular-54" x="505.499893"/>
     <use xlink:href="#STIXGeneral-Regular-65" x="566.599884"/>
     <use xlink:href="#STIXGeneral-Regular-73" x="610.999878"/>
     <use xlink:href="#STIXGeneral-Regular-74" x="649.899872"/>
     <use xlink:href="#STIXGeneral-Regular-20" x="677.69986"/>
     <use xlink:href="#STIXGeneral-Regular-41" x="702.699844"/>
     <use xlink:href="#STIXGeneral-Regular-76" x="774.899826"/>
     <use xlink:href="#STIXGeneral-Regular-65" x="824.899811"/>
     <use xlink:href="#STIXGeneral-Regular-72" x="869.299805"/>
     <use xlink:href="#STIXGeneral-Regular-61" x="902.599792"/>
     <use xlink:href="#STIXGeneral-Regular-67" x="946.999786"/>
     <use xlink:href="#STIXGeneral-Regular-65" x="996.999771"/>
     <use xlink:href="#STIXGeneral-Regular-20" x="1041.399765"/>
     <use xlink:href="#STIXGeneral-Regular-20" x="1066.39975"/>
     <use xlink:href="#STIXGeneral-Regular-52" x="1091.399734"/>
     <use xlink:href="#STIXGeneral-Regular-65" x="1158.099731"/>
     <use xlink:href="#STIXGeneral-Regular-74" x="1202.499725"/>
     <use xlink:href="#STIXGeneral-Regular-75" x="1230.299713"/>
     <use xlink:href="#STIXGeneral-Regular-72" x="1280.299698"/>
     <use xlink:href="#STIXGeneral-Regular-6e" x="1313.599686"/>
    </g>
   </g>
   <g id="legend_1">
    <g id="patch_7">
     <path d="M 71.2 118.613875 
L 206.074688 118.613875 
Q 208.874688 118.613875 208.874688 115.813875 
L 208.874688 37.860125 
Q 208.874688 35.060125 206.074688 35.060125 
L 71.2 35.060125 
Q 68.4 35.060125 68.4 37.860125 
L 68.4 115.813875 
Q 68.4 118.613875 71.2 118.613875 
z
" style="fill: #ffffff; opacity: 0.8; stroke: #cccccc; stroke-linejoin: miter"/>
    </g>
    <g id="line2d_29">
     <path d="M 74 45.560125 
L 88 45.560125 
L 102 45.560125 
" style="fill: none; stroke: #1f77b4; stroke-width: 1.5; stroke-linecap: square"/>
    </g>
    <g id="text_16">
     <!-- outer-lr=0.0005 -->
     <g transform="translate(113.2 50.460125)scale(0.14 -0.14)">
      <defs>
       <path id="STIXGeneral-Regular-2d" d="M 1824 1242 
L 250 1242 
L 250 1645 
L 1824 1645 
L 1824 1242 
z
" transform="scale(0.015625)"/>
       <path id="STIXGeneral-Regular-6c" d="M 1645 0 
L 134 0 
L 134 96 
Q 435 122 531 221 
Q 627 320 627 589 
L 627 3590 
Q 627 3821 569 3910 
Q 512 4000 358 4000 
Q 224 4000 122 3987 
L 122 4090 
Q 730 4237 1133 4371 
L 1165 4346 
L 1165 557 
Q 1165 288 1254 201 
Q 1344 115 1645 96 
L 1645 0 
z
" transform="scale(0.015625)"/>
       <path id="STIXGeneral-Regular-3d" d="M 4077 2048 
L 307 2048 
L 307 2470 
L 4077 2470 
L 4077 2048 
z
M 4077 768 
L 307 768 
L 307 1190 
L 4077 1190 
L 4077 768 
z
" transform="scale(0.015625)"/>
       <path id="STIXGeneral-Regular-2e" d="M 1158 275 
Q 1158 134 1052 32 
Q 947 -70 800 -70 
Q 653 -70 550 32 
Q 448 134 448 281 
Q 448 429 553 534 
Q 659 640 806 640 
Q 947 640 1052 531 
Q 1158 422 1158 275 
z
" transform="scale(0.015625)"/>
      </defs>
      <use xlink:href="#STIXGeneral-Regular-6f"/>
      <use xlink:href="#STIXGeneral-Regular-75" x="49.999985"/>
      <use xlink:href="#STIXGeneral-Regular-74" x="99.999969"/>
      <use xlink:href="#STIXGeneral-Regular-65" x="127.799957"/>
      <use xlink:href="#STIXGeneral-Regular-72" x="172.199951"/>
      <use xlink:href="#STIXGeneral-Regular-2d" x="205.499939"/>
      <use xlink:href="#STIXGeneral-Regular-6c" x="238.799927"/>
      <use xlink:href="#STIXGeneral-Regular-72" x="266.599915"/>
      <use xlink:href="#STIXGeneral-Regular-3d" x="299.899902"/>
      <use xlink:href="#STIXGeneral-Regular-30" x="368.399887"/>
      <use xlink:href="#STIXGeneral-Regular-2e" x="418.399872"/>
      <use xlink:href="#STIXGeneral-Regular-30" x="443.399857"/>
      <use xlink:href="#STIXGeneral-Regular-30" x="493.399841"/>
      <use xlink:href="#STIXGeneral-Regular-30" x="543.399826"/>
      <use xlink:href="#STIXGeneral-Regular-35" x="593.399811"/>
     </g>
    </g>
    <g id="line2d_30">
     <path d="M 74 65.398562 
L 88 65.398562 
L 102 65.398562 
" style="fill: none; stroke: #ff7f0e; stroke-width: 1.5; stroke-linecap: square"/>
    </g>
    <g id="text_17">
     <!-- outer-lr=0.001 -->
     <g transform="translate(113.2 70.298563)scale(0.14 -0.14)">
      <use xlink:href="#STIXGeneral-Regular-6f"/>
      <use xlink:href="#STIXGeneral-Regular-75" x="49.999985"/>
      <use xlink:href="#STIXGeneral-Regular-74" x="99.999969"/>
      <use xlink:href="#STIXGeneral-Regular-65" x="127.799957"/>
      <use xlink:href="#STIXGeneral-Regular-72" x="172.199951"/>
      <use xlink:href="#STIXGeneral-Regular-2d" x="205.499939"/>
      <use xlink:href="#STIXGeneral-Regular-6c" x="238.799927"/>
      <use xlink:href="#STIXGeneral-Regular-72" x="266.599915"/>
      <use xlink:href="#STIXGeneral-Regular-3d" x="299.899902"/>
      <use xlink:href="#STIXGeneral-Regular-30" x="368.399887"/>
      <use xlink:href="#STIXGeneral-Regular-2e" x="418.399872"/>
      <use xlink:href="#STIXGeneral-Regular-30" x="443.399857"/>
      <use xlink:href="#STIXGeneral-Regular-30" x="493.399841"/>
      <use xlink:href="#STIXGeneral-Regular-31" x="543.399826"/>
     </g>
    </g>
    <g id="line2d_31">
     <path d="M 74 85.237 
L 88 85.237 
L 102 85.237 
" style="fill: none; stroke: #2ca02c; stroke-width: 1.5; stroke-linecap: square"/>
    </g>
    <g id="text_18">
     <!-- outer-lr=0.005 -->
     <g transform="translate(113.2 90.137)scale(0.14 -0.14)">
      <use xlink:href="#STIXGeneral-Regular-6f"/>
      <use xlink:href="#STIXGeneral-Regular-75" x="49.999985"/>
      <use xlink:href="#STIXGeneral-Regular-74" x="99.999969"/>
      <use xlink:href="#STIXGeneral-Regular-65" x="127.799957"/>
      <use xlink:href="#STIXGeneral-Regular-72" x="172.199951"/>
      <use xlink:href="#STIXGeneral-Regular-2d" x="205.499939"/>
      <use xlink:href="#STIXGeneral-Regular-6c" x="238.799927"/>
      <use xlink:href="#STIXGeneral-Regular-72" x="266.599915"/>
      <use xlink:href="#STIXGeneral-Regular-3d" x="299.899902"/>
      <use xlink:href="#STIXGeneral-Regular-30" x="368.399887"/>
      <use xlink:href="#STIXGeneral-Regular-2e" x="418.399872"/>
      <use xlink:href="#STIXGeneral-Regular-30" x="443.399857"/>
      <use xlink:href="#STIXGeneral-Regular-30" x="493.399841"/>
      <use xlink:href="#STIXGeneral-Regular-35" x="543.399826"/>
     </g>
    </g>
    <g id="line2d_32">
     <path d="M 74 105.075437 
L 88 105.075437 
L 102 105.075437 
" style="fill: none; stroke: #d62728; stroke-width: 1.5; stroke-linecap: square"/>
    </g>
    <g id="text_19">
     <!-- outer-lr=0.01 -->
     <g transform="translate(113.2 109.975437)scale(0.14 -0.14)">
      <use xlink:href="#STIXGeneral-Regular-6f"/>
      <use xlink:href="#STIXGeneral-Regular-75" x="49.999985"/>
      <use xlink:href="#STIXGeneral-Regular-74" x="99.999969"/>
      <use xlink:href="#STIXGeneral-Regular-65" x="127.799957"/>
      <use xlink:href="#STIXGeneral-Regular-72" x="172.199951"/>
      <use xlink:href="#STIXGeneral-Regular-2d" x="205.499939"/>
      <use xlink:href="#STIXGeneral-Regular-6c" x="238.799927"/>
      <use xlink:href="#STIXGeneral-Regular-72" x="266.599915"/>
      <use xlink:href="#STIXGeneral-Regular-3d" x="299.899902"/>
      <use xlink:href="#STIXGeneral-Regular-30" x="368.399887"/>
      <use xlink:href="#STIXGeneral-Regular-2e" x="418.399872"/>
      <use xlink:href="#STIXGeneral-Regular-30" x="443.399857"/>
      <use xlink:href="#STIXGeneral-Regular-31" x="493.399841"/>
     </g>
    </g>
   </g>
  </g>
 </g>
 <defs>
  <clipPath id="p4652907d9c">
   <rect x="61.4" y="28.060125" width="446.4" height="277.2"/>
  </clipPath>
 </defs>
</svg>
