<?xml version="1.0" encoding="utf-8" standalone="no"?>
<!DOCTYPE svg PUBLIC "-//W3C//DTD SVG 1.1//EN"
  "http://www.w3.org/Graphics/SVG/1.1/DTD/svg11.dtd">
<svg xmlns:xlink="http://www.w3.org/1999/xlink" width="524pt" height="355.877pt" viewBox="0 0 524 355.877" xmlns="http://www.w3.org/2000/svg" version="1.1">
 <metadata>
  <rdf:RDF xmlns:dc="http://purl.org/dc/elements/1.1/" xmlns:cc="http://creativecommons.org/ns#" xmlns:rdf="http://www.w3.org/1999/02/22-rdf-syntax-ns#">
   <cc:Work>
    <dc:type rdf:resource="http://purl.org/dc/dcmitype/StillImage"/>
    <dc:date>2021-12-11T20:28:14.373415</dc:date>
    <dc:format>image/svg+xml</dc:format>
    <dc:creator>
     <cc:Agent>
      <dc:title>Matplotlib v3.5.0, https://matplotlib.org/</dc:title>
     </cc:Agent>
    </dc:creator>
   </cc:Work>
  </rdf:RDF>
 </metadata>
 <defs>
  <style type="text/css">*{stroke-linejoin: round; stroke-linecap: butt}</style>
 </defs>
 <g id="figure_1">
  <g id="patch_1">
   <path d="M 0 355.877 
L 524 355.877 
L 524 0 
L 0 0 
z
" style="fill: #ffffff"/>
  </g>
  <g id="axes_1">
   <g id="patch_2">
    <path d="M 70.4 305.260125 
L 516.8 305.260125 
L 516.8 28.060125 
L 70.4 28.060125 
z
" style="fill: #ffffff"/>
   </g>
   <g id="matplotlib.axis_1">
    <g id="xtick_1">
     <g id="line2d_1">
      <path d="M 89.236364 305.260125 
L 89.236364 28.060125 
" clip-path="url(#p2b264a512f)" style="fill: none; stroke: #b0b0b0; stroke-width: 0.8; stroke-linecap: square"/>
     </g>
     <g id="line2d_2">
      <defs>
       <path id="m497c6a392b" d="M 0 0 
L 0 3.5 
" style="stroke: #000000; stroke-width: 0.8"/>
      </defs>
      <g>
       <use xlink:href="#m497c6a392b" x="89.236364" y="305.260125" style="stroke: #000000; stroke-width: 0.8"/>
      </g>
     </g>
     <g id="text_1">
      <!-- 0 -->
      <g transform="translate(84.736364 324.553562)scale(0.18 -0.18)">
       <defs>
        <path id="STIXGeneral-Regular-30" d="M 3046 2112 
Q 3046 1683 2963 1302 
Q 2880 922 2717 602 
Q 2554 282 2266 96 
Q 1978 -90 1600 -90 
Q 1210 -90 915 108 
Q 621 307 461 640 
Q 301 973 227 1350 
Q 154 1728 154 2150 
Q 154 2746 301 3222 
Q 448 3699 790 4012 
Q 1133 4326 1626 4326 
Q 2253 4326 2649 3712 
Q 3046 3098 3046 2112 
z
M 2432 2080 
Q 2432 3091 2217 3625 
Q 2003 4160 1587 4160 
Q 1190 4160 979 3622 
Q 768 3085 768 2106 
Q 768 1120 979 598 
Q 1190 77 1600 77 
Q 2003 77 2217 598 
Q 2432 1120 2432 2080 
z
" transform="scale(0.015625)"/>
       </defs>
       <use xlink:href="#STIXGeneral-Regular-30"/>
      </g>
     </g>
    </g>
    <g id="xtick_2">
     <g id="line2d_3">
      <path d="M 161.065769 305.260125 
L 161.065769 28.060125 
" clip-path="url(#p2b264a512f)" style="fill: none; stroke: #b0b0b0; stroke-width: 0.8; stroke-linecap: square"/>
     </g>
     <g id="line2d_4">
      <g>
       <use xlink:href="#m497c6a392b" x="161.065769" y="305.260125" style="stroke: #000000; stroke-width: 0.8"/>
      </g>
     </g>
     <g id="text_2">
      <!-- 1 -->
      <g transform="translate(156.565769 324.553562)scale(0.18 -0.18)">
       <defs>
        <path id="STIXGeneral-Regular-31" d="M 2522 0 
L 755 0 
L 755 96 
Q 1107 115 1235 227 
Q 1363 339 1363 608 
L 1363 3482 
Q 1363 3795 1171 3795 
Q 1082 3795 883 3718 
L 710 3654 
L 710 3744 
L 1856 4326 
L 1914 4307 
L 1914 486 
Q 1914 275 2042 185 
Q 2170 96 2522 96 
L 2522 0 
z
" transform="scale(0.015625)"/>
       </defs>
       <use xlink:href="#STIXGeneral-Regular-31"/>
      </g>
     </g>
    </g>
    <g id="xtick_3">
     <g id="line2d_5">
      <path d="M 232.895174 305.260125 
L 232.895174 28.060125 
" clip-path="url(#p2b264a512f)" style="fill: none; stroke: #b0b0b0; stroke-width: 0.8; stroke-linecap: square"/>
     </g>
     <g id="line2d_6">
      <g>
       <use xlink:href="#m497c6a392b" x="232.895174" y="305.260125" style="stroke: #000000; stroke-width: 0.8"/>
      </g>
     </g>
     <g id="text_3">
      <!-- 2 -->
      <g transform="translate(228.395174 324.553562)scale(0.18 -0.18)">
       <defs>
        <path id="STIXGeneral-Regular-32" d="M 3034 877 
L 2688 0 
L 186 0 
L 186 77 
L 1325 1286 
Q 1773 1754 1965 2144 
Q 2157 2534 2157 2950 
Q 2157 3379 1920 3616 
Q 1683 3853 1267 3853 
Q 922 3853 720 3673 
Q 518 3494 326 3021 
L 192 3053 
Q 301 3648 630 3987 
Q 960 4326 1523 4326 
Q 2054 4326 2380 4006 
Q 2707 3686 2707 3200 
Q 2707 2477 1888 1613 
L 832 486 
L 2330 486 
Q 2541 486 2665 569 
Q 2790 653 2944 915 
L 3034 877 
z
" transform="scale(0.015625)"/>
       </defs>
       <use xlink:href="#STIXGeneral-Regular-32"/>
      </g>
     </g>
    </g>
    <g id="xtick_4">
     <g id="line2d_7">
      <path d="M 304.724579 305.260125 
L 304.724579 28.060125 
" clip-path="url(#p2b264a512f)" style="fill: none; stroke: #b0b0b0; stroke-width: 0.8; stroke-linecap: square"/>
     </g>
     <g id="line2d_8">
      <g>
       <use xlink:href="#m497c6a392b" x="304.724579" y="305.260125" style="stroke: #000000; stroke-width: 0.8"/>
      </g>
     </g>
     <g id="text_4">
      <!-- 3 -->
      <g transform="translate(300.224579 324.553562)scale(0.18 -0.18)">
       <defs>
        <path id="STIXGeneral-Regular-33" d="M 390 3264 
L 288 3290 
Q 435 3770 748 4048 
Q 1062 4326 1542 4326 
Q 1990 4326 2265 4083 
Q 2541 3840 2541 3450 
Q 2541 2925 1946 2566 
Q 2298 2413 2477 2227 
Q 2758 1914 2758 1402 
Q 2758 890 2464 506 
Q 2246 211 1840 60 
Q 1434 -90 979 -90 
Q 262 -90 262 275 
Q 262 378 339 442 
Q 416 506 525 506 
Q 685 506 915 339 
Q 1197 141 1466 141 
Q 1818 141 2058 425 
Q 2298 710 2298 1120 
Q 2298 1856 1632 2048 
Q 1434 2112 979 2112 
L 979 2202 
Q 1338 2323 1517 2432 
Q 2035 2726 2035 3290 
Q 2035 3610 1852 3776 
Q 1670 3942 1344 3942 
Q 768 3942 390 3264 
z
" transform="scale(0.015625)"/>
       </defs>
       <use xlink:href="#STIXGeneral-Regular-33"/>
      </g>
     </g>
    </g>
    <g id="xtick_5">
     <g id="line2d_9">
      <path d="M 376.553984 305.260125 
L 376.553984 28.060125 
" clip-path="url(#p2b264a512f)" style="fill: none; stroke: #b0b0b0; stroke-width: 0.8; stroke-linecap: square"/>
     </g>
     <g id="line2d_10">
      <g>
       <use xlink:href="#m497c6a392b" x="376.553984" y="305.260125" style="stroke: #000000; stroke-width: 0.8"/>
      </g>
     </g>
     <g id="text_5">
      <!-- 4 -->
      <g transform="translate(372.053984 324.553562)scale(0.18 -0.18)">
       <defs>
        <path id="STIXGeneral-Regular-34" d="M 3027 1069 
L 2368 1069 
L 2368 0 
L 1869 0 
L 1869 1069 
L 77 1069 
L 77 1478 
L 2086 4326 
L 2368 4326 
L 2368 1478 
L 3027 1478 
L 3027 1069 
z
M 1869 1478 
L 1869 3674 
L 333 1478 
L 1869 1478 
z
" transform="scale(0.015625)"/>
       </defs>
       <use xlink:href="#STIXGeneral-Regular-34"/>
      </g>
     </g>
    </g>
    <g id="xtick_6">
     <g id="line2d_11">
      <path d="M 448.383389 305.260125 
L 448.383389 28.060125 
" clip-path="url(#p2b264a512f)" style="fill: none; stroke: #b0b0b0; stroke-width: 0.8; stroke-linecap: square"/>
     </g>
     <g id="line2d_12">
      <g>
       <use xlink:href="#m497c6a392b" x="448.383389" y="305.260125" style="stroke: #000000; stroke-width: 0.8"/>
      </g>
     </g>
     <g id="text_6">
      <!-- 5 -->
      <g transform="translate(443.883389 324.553562)scale(0.18 -0.18)">
       <defs>
        <path id="STIXGeneral-Regular-35" d="M 2803 4358 
L 2573 3814 
Q 2534 3731 2400 3731 
L 1158 3731 
L 902 3187 
Q 1606 3053 1920 2896 
Q 2234 2739 2502 2368 
Q 2726 2061 2726 1555 
Q 2726 1094 2576 780 
Q 2426 467 2099 224 
Q 1664 -90 1011 -90 
Q 646 -90 422 19 
Q 198 128 198 307 
Q 198 550 486 550 
Q 717 550 960 352 
Q 1210 147 1414 147 
Q 1747 147 2012 480 
Q 2278 813 2278 1229 
Q 2278 1843 1850 2189 
Q 1293 2637 486 2637 
Q 410 2637 410 2688 
L 416 2720 
L 1114 4237 
L 2438 4237 
Q 2547 4237 2608 4269 
Q 2669 4301 2746 4403 
L 2803 4358 
z
" transform="scale(0.015625)"/>
       </defs>
       <use xlink:href="#STIXGeneral-Regular-35"/>
      </g>
     </g>
    </g>
    <g id="text_7">
     <!-- Training Environment Steps -->
     <g transform="translate(191.604688 344.753562)scale(0.18 -0.18)">
      <defs>
       <path id="STIXGeneral-Regular-54" d="M 3795 3149 
L 3642 3149 
Q 3539 3674 3353 3821 
Q 3168 3968 2656 3968 
L 2278 3968 
L 2278 710 
Q 2278 346 2387 243 
Q 2496 141 2893 122 
L 2893 0 
L 1024 0 
L 1024 122 
Q 1427 147 1526 256 
Q 1626 365 1626 787 
L 1626 3968 
L 1242 3968 
Q 723 3968 540 3817 
Q 358 3667 262 3149 
L 109 3149 
L 154 4237 
L 3750 4237 
L 3795 3149 
z
" transform="scale(0.015625)"/>
       <path id="STIXGeneral-Regular-72" d="M 1024 2931 
L 1024 2342 
Q 1267 2688 1430 2816 
Q 1594 2944 1792 2944 
Q 1958 2944 2051 2854 
Q 2144 2765 2144 2605 
Q 2144 2470 2077 2393 
Q 2010 2317 1894 2317 
Q 1773 2317 1638 2445 
Q 1536 2541 1472 2541 
Q 1338 2541 1181 2355 
Q 1024 2170 1024 2016 
L 1024 576 
Q 1024 301 1133 205 
Q 1242 109 1568 96 
L 1568 0 
L 32 0 
L 32 96 
Q 339 154 412 224 
Q 486 294 486 538 
L 486 2138 
Q 486 2349 438 2435 
Q 390 2522 269 2522 
Q 166 2522 45 2496 
L 45 2598 
Q 448 2726 992 2944 
L 1024 2931 
z
" transform="scale(0.015625)"/>
       <path id="STIXGeneral-Regular-61" d="M 2829 422 
L 2829 243 
Q 2586 -64 2253 -64 
Q 1888 -64 1843 403 
L 1837 403 
Q 1427 -64 909 -64 
Q 608 -64 422 112 
Q 237 288 237 602 
Q 237 1050 685 1350 
Q 992 1555 1837 1869 
L 1837 2214 
Q 1837 2502 1699 2646 
Q 1562 2790 1338 2790 
Q 1146 2790 1018 2697 
Q 890 2605 890 2477 
Q 890 2419 909 2348 
Q 928 2278 928 2208 
Q 928 2112 841 2029 
Q 755 1946 634 1946 
Q 525 1946 441 2029 
Q 358 2112 358 2240 
Q 358 2547 685 2752 
Q 986 2944 1421 2944 
Q 1939 2944 2176 2656 
Q 2291 2522 2323 2384 
Q 2355 2246 2355 1946 
L 2355 723 
Q 2355 301 2554 301 
Q 2682 301 2829 422 
z
M 1837 813 
L 1837 1715 
Q 1248 1510 1018 1293 
Q 800 1094 800 800 
Q 800 557 921 432 
Q 1043 307 1242 307 
Q 1453 307 1613 410 
Q 1747 506 1792 589 
Q 1837 672 1837 813 
z
" transform="scale(0.015625)"/>
       <path id="STIXGeneral-Regular-69" d="M 1152 4045 
Q 1152 3904 1056 3811 
Q 960 3718 819 3718 
Q 685 3718 592 3811 
Q 499 3904 499 4045 
Q 499 4179 595 4275 
Q 691 4371 826 4371 
Q 966 4371 1059 4275 
Q 1152 4179 1152 4045 
z
M 1619 0 
L 102 0 
L 102 96 
Q 435 115 521 211 
Q 608 307 608 666 
L 608 2118 
Q 608 2342 563 2432 
Q 518 2522 397 2522 
Q 243 2522 128 2490 
L 128 2592 
L 1120 2944 
L 1146 2918 
L 1146 672 
Q 1146 314 1226 218 
Q 1306 122 1619 96 
L 1619 0 
z
" transform="scale(0.015625)"/>
       <path id="STIXGeneral-Regular-6e" d="M 3104 0 
L 1773 0 
L 1779 96 
Q 2016 115 2096 233 
Q 2176 352 2176 672 
L 2176 1946 
Q 2176 2592 1709 2592 
Q 1549 2592 1408 2515 
Q 1267 2438 1050 2227 
L 1050 461 
Q 1050 269 1136 192 
Q 1222 115 1466 96 
L 1466 0 
L 115 0 
L 115 96 
Q 358 115 435 214 
Q 512 314 512 602 
L 512 2157 
Q 512 2394 467 2483 
Q 422 2573 288 2573 
Q 160 2573 102 2547 
L 102 2656 
Q 550 2784 979 2944 
L 1030 2925 
L 1030 2426 
L 1037 2426 
Q 1491 2944 1958 2944 
Q 2323 2944 2518 2688 
Q 2714 2432 2714 1958 
L 2714 544 
Q 2714 288 2790 205 
Q 2867 122 3104 96 
L 3104 0 
z
" transform="scale(0.015625)"/>
       <path id="STIXGeneral-Regular-67" d="M 3008 2483 
L 2477 2483 
Q 2598 2208 2598 1946 
Q 2598 1453 2265 1203 
Q 1933 954 1600 954 
Q 1530 954 1357 973 
L 1235 986 
Q 1107 947 979 812 
Q 851 678 851 582 
Q 851 435 1350 410 
L 2176 371 
Q 2528 358 2739 172 
Q 2950 -13 2950 -314 
Q 2950 -685 2566 -986 
Q 2035 -1395 1286 -1395 
Q 826 -1395 502 -1212 
Q 179 -1030 179 -774 
Q 179 -595 320 -419 
Q 461 -243 806 6 
Q 602 102 534 172 
Q 467 243 467 346 
Q 467 531 762 787 
Q 909 915 1037 1043 
Q 717 1203 579 1401 
Q 442 1600 442 1901 
Q 442 2336 752 2640 
Q 1062 2944 1510 2944 
Q 1766 2944 2022 2848 
L 2163 2797 
Q 2349 2733 2515 2733 
L 3008 2733 
L 3008 2483 
z
M 973 2163 
L 973 2144 
Q 973 1683 1155 1398 
Q 1338 1114 1632 1114 
Q 1850 1114 1978 1270 
Q 2106 1427 2106 1690 
Q 2106 2112 1914 2464 
Q 1754 2765 1446 2765 
Q 1222 2765 1097 2605 
Q 973 2445 973 2163 
z
M 2771 -410 
Q 2771 -230 2595 -163 
Q 2419 -96 1978 -96 
Q 1344 -96 941 -13 
Q 749 -243 688 -348 
Q 627 -454 627 -563 
Q 627 -774 880 -902 
Q 1133 -1030 1555 -1030 
Q 2099 -1030 2435 -860 
Q 2771 -691 2771 -410 
z
" transform="scale(0.015625)"/>
       <path id="STIXGeneral-Regular-20" transform="scale(0.015625)"/>
       <path id="STIXGeneral-Regular-45" d="M 3821 1082 
L 3526 0 
L 77 0 
L 77 122 
Q 442 147 538 252 
Q 634 358 634 730 
L 634 3520 
Q 634 3878 534 3987 
Q 435 4096 77 4115 
L 77 4237 
L 3469 4237 
L 3494 3322 
L 3334 3322 
Q 3264 3750 3085 3872 
Q 2906 3994 2349 3994 
L 1510 3994 
Q 1370 3994 1328 3952 
Q 1286 3910 1286 3763 
L 1286 2355 
L 2253 2355 
Q 2656 2355 2787 2470 
Q 2918 2586 2976 2970 
L 3123 2970 
L 3123 1472 
L 2976 1472 
Q 2918 1875 2790 1984 
Q 2662 2093 2253 2093 
L 1286 2093 
L 1286 538 
Q 1286 346 1420 291 
Q 1555 237 1933 237 
L 2163 237 
Q 2848 237 3136 403 
Q 3424 570 3642 1082 
L 3821 1082 
z
" transform="scale(0.015625)"/>
       <path id="STIXGeneral-Regular-76" d="M 3053 2880 
L 3053 2784 
Q 2906 2771 2835 2688 
Q 2765 2605 2637 2285 
L 1818 230 
Q 1690 -90 1638 -90 
Q 1587 -90 1523 77 
Q 1510 96 1497 141 
Q 1485 186 1472 211 
L 704 2048 
Q 499 2534 403 2652 
Q 307 2771 122 2784 
L 122 2880 
L 1376 2880 
L 1376 2784 
Q 1210 2771 1146 2732 
Q 1082 2694 1082 2611 
Q 1082 2509 1139 2368 
L 1792 730 
L 2426 2387 
Q 2464 2483 2464 2579 
Q 2464 2758 2163 2784 
L 2163 2880 
L 3053 2880 
z
" transform="scale(0.015625)"/>
       <path id="STIXGeneral-Regular-6f" d="M 3008 1478 
Q 3008 806 2608 371 
Q 2208 -64 1568 -64 
Q 979 -64 582 368 
Q 186 800 186 1459 
Q 186 2125 582 2534 
Q 979 2944 1626 2944 
Q 2221 2944 2614 2537 
Q 3008 2131 3008 1478 
z
M 2432 1306 
Q 2432 2035 2112 2445 
Q 1856 2765 1504 2765 
Q 1171 2765 966 2493 
Q 762 2221 762 1747 
Q 762 928 1101 435 
Q 1318 115 1677 115 
Q 2029 115 2230 432 
Q 2432 749 2432 1306 
z
" transform="scale(0.015625)"/>
       <path id="STIXGeneral-Regular-6d" d="M 4960 0 
L 3565 0 
L 3565 96 
Q 3834 122 3907 208 
Q 3981 294 3981 576 
L 3981 1894 
Q 3981 2278 3869 2444 
Q 3757 2611 3488 2611 
Q 3264 2611 3107 2521 
Q 2950 2432 2803 2221 
L 2803 608 
Q 2803 301 2896 201 
Q 2989 102 3264 96 
L 3264 0 
L 1830 0 
L 1830 96 
Q 2112 115 2189 188 
Q 2266 262 2266 550 
L 2266 1901 
Q 2266 2611 1850 2611 
Q 1670 2611 1468 2531 
Q 1267 2451 1171 2336 
Q 1088 2240 1088 2227 
L 1088 448 
Q 1088 243 1177 176 
Q 1267 109 1523 96 
L 1523 0 
L 102 0 
L 102 96 
Q 371 102 460 195 
Q 550 288 550 563 
L 550 2150 
Q 550 2387 499 2480 
Q 448 2573 326 2573 
Q 230 2573 122 2547 
L 122 2656 
Q 557 2778 1011 2944 
L 1062 2925 
L 1062 2451 
L 1075 2451 
Q 1363 2752 1584 2848 
Q 1805 2944 2054 2944 
Q 2560 2944 2733 2406 
Q 3232 2944 3776 2944 
Q 4518 2944 4518 1792 
L 4518 493 
Q 4518 282 4582 202 
Q 4646 122 4794 109 
L 4960 96 
L 4960 0 
z
" transform="scale(0.015625)"/>
       <path id="STIXGeneral-Regular-65" d="M 2611 1050 
L 2714 1005 
Q 2330 -64 1376 -64 
Q 813 -64 486 329 
Q 160 723 160 1389 
Q 160 2074 525 2509 
Q 890 2944 1485 2944 
Q 2061 2944 2374 2502 
Q 2560 2246 2592 1773 
L 621 1773 
Q 646 1370 700 1158 
Q 755 947 915 730 
Q 1184 378 1626 378 
Q 1939 378 2153 531 
Q 2368 685 2611 1050 
z
M 634 1978 
L 1939 1978 
Q 1882 2381 1750 2547 
Q 1619 2714 1312 2714 
Q 1043 2714 864 2525 
Q 685 2336 634 1978 
z
" transform="scale(0.015625)"/>
       <path id="STIXGeneral-Regular-74" d="M 1702 493 
L 1786 422 
Q 1478 -64 1011 -64 
Q 448 -64 448 749 
L 448 2675 
L 109 2675 
Q 83 2694 83 2720 
Q 83 2771 192 2842 
Q 435 2982 813 3526 
Q 826 3546 874 3606 
Q 922 3667 941 3706 
Q 986 3706 986 3622 
L 986 2880 
L 1632 2880 
L 1632 2675 
L 986 2675 
L 986 845 
Q 986 538 1062 403 
Q 1139 269 1318 269 
Q 1510 269 1702 493 
z
" transform="scale(0.015625)"/>
       <path id="STIXGeneral-Regular-53" d="M 3002 2963 
L 2842 2963 
Q 2733 3360 2579 3565 
Q 2189 4064 1651 4064 
Q 1357 4064 1181 3894 
Q 1005 3725 1005 3456 
Q 1005 3328 1069 3206 
Q 1133 3085 1206 2998 
Q 1280 2912 1465 2784 
Q 1651 2656 1766 2589 
Q 1882 2522 2150 2362 
Q 2669 2061 2905 1763 
Q 3142 1466 3142 1107 
Q 3142 576 2771 243 
Q 2400 -90 1837 -90 
Q 1421 -90 1082 58 
Q 915 128 781 128 
Q 704 128 653 70 
Q 602 13 602 -83 
L 461 -83 
L 275 1274 
L 416 1274 
Q 845 141 1734 141 
Q 2074 141 2285 342 
Q 2496 544 2496 858 
Q 2496 1158 2310 1363 
Q 2003 1696 1235 2106 
Q 454 2522 454 3206 
Q 454 3718 768 4022 
Q 1082 4326 1568 4326 
Q 1907 4326 2240 4186 
Q 2413 4109 2522 4109 
Q 2688 4109 2726 4326 
L 2861 4326 
L 3002 2963 
z
" transform="scale(0.015625)"/>
       <path id="STIXGeneral-Regular-70" d="M 1018 2931 
L 1018 2438 
Q 1421 2944 1939 2944 
Q 2406 2944 2707 2560 
Q 3008 2176 3008 1581 
Q 3008 883 2621 409 
Q 2234 -64 1664 -64 
Q 1466 -64 1328 -6 
Q 1190 51 1018 211 
L 1018 -794 
Q 1018 -1094 1120 -1180 
Q 1222 -1267 1581 -1274 
L 1581 -1389 
L 32 -1389 
L 32 -1280 
Q 314 -1254 397 -1171 
Q 480 -1088 480 -838 
L 480 2157 
Q 480 2381 429 2451 
Q 378 2522 218 2522 
Q 115 2522 58 2515 
L 58 2618 
Q 506 2752 979 2944 
L 1018 2931 
z
M 1018 2138 
L 1018 563 
Q 1018 422 1238 281 
Q 1459 141 1683 141 
Q 2029 141 2243 467 
Q 2458 794 2458 1325 
Q 2458 1888 2243 2224 
Q 2029 2560 1670 2560 
Q 1446 2560 1232 2419 
Q 1018 2278 1018 2138 
z
" transform="scale(0.015625)"/>
       <path id="STIXGeneral-Regular-73" d="M 998 1926 
L 1664 1523 
Q 1984 1331 2105 1164 
Q 2227 998 2227 736 
Q 2227 416 1961 176 
Q 1696 -64 1331 -64 
Q 1030 -64 864 -6 
Q 691 51 570 51 
Q 461 51 416 -26 
L 333 -26 
L 333 979 
L 435 979 
Q 538 512 730 294 
Q 922 77 1248 77 
Q 1485 77 1632 211 
Q 1779 346 1779 550 
Q 1779 845 1440 1030 
L 1094 1222 
Q 326 1651 326 2150 
Q 326 2522 566 2730 
Q 806 2938 1210 2938 
Q 1491 2938 1638 2867 
Q 1754 2816 1818 2816 
Q 1862 2816 1920 2880 
L 1990 2880 
L 2022 2010 
L 1926 2010 
Q 1818 2445 1654 2621 
Q 1491 2797 1203 2797 
Q 986 2797 854 2688 
Q 723 2579 723 2362 
Q 723 2253 796 2128 
Q 870 2003 998 1926 
z
" transform="scale(0.015625)"/>
      </defs>
      <use xlink:href="#STIXGeneral-Regular-54"/>
      <use xlink:href="#STIXGeneral-Regular-72" x="61.099991"/>
      <use xlink:href="#STIXGeneral-Regular-61" x="94.399979"/>
      <use xlink:href="#STIXGeneral-Regular-69" x="138.799973"/>
      <use xlink:href="#STIXGeneral-Regular-6e" x="166.59996"/>
      <use xlink:href="#STIXGeneral-Regular-69" x="216.599945"/>
      <use xlink:href="#STIXGeneral-Regular-6e" x="244.399933"/>
      <use xlink:href="#STIXGeneral-Regular-67" x="294.399918"/>
      <use xlink:href="#STIXGeneral-Regular-20" x="344.399902"/>
      <use xlink:href="#STIXGeneral-Regular-45" x="369.399887"/>
      <use xlink:href="#STIXGeneral-Regular-6e" x="430.499878"/>
      <use xlink:href="#STIXGeneral-Regular-76" x="480.499863"/>
      <use xlink:href="#STIXGeneral-Regular-69" x="530.499847"/>
      <use xlink:href="#STIXGeneral-Regular-72" x="558.299835"/>
      <use xlink:href="#STIXGeneral-Regular-6f" x="591.599823"/>
      <use xlink:href="#STIXGeneral-Regular-6e" x="641.599808"/>
      <use xlink:href="#STIXGeneral-Regular-6d" x="691.599792"/>
      <use xlink:href="#STIXGeneral-Regular-65" x="769.39978"/>
      <use xlink:href="#STIXGeneral-Regular-6e" x="813.799774"/>
      <use xlink:href="#STIXGeneral-Regular-74" x="863.799759"/>
      <use xlink:href="#STIXGeneral-Regular-20" x="891.599747"/>
      <use xlink:href="#STIXGeneral-Regular-53" x="916.599731"/>
      <use xlink:href="#STIXGeneral-Regular-74" x="972.199722"/>
      <use xlink:href="#STIXGeneral-Regular-65" x="999.99971"/>
      <use xlink:href="#STIXGeneral-Regular-70" x="1044.399704"/>
      <use xlink:href="#STIXGeneral-Regular-73" x="1094.399689"/>
     </g>
    </g>
    <g id="text_8">
     <!-- 1e8 -->
     <g transform="translate(490.806875 343.753562)scale(0.18 -0.18)">
      <defs>
       <path id="STIXGeneral-Regular-38" d="M 2848 992 
Q 2848 499 2505 204 
Q 2163 -90 1587 -90 
Q 1050 -90 704 204 
Q 358 499 358 954 
Q 358 1293 524 1533 
Q 691 1773 1190 2125 
Q 710 2522 553 2765 
Q 397 3008 397 3328 
Q 397 3782 745 4054 
Q 1094 4326 1638 4326 
Q 2106 4326 2410 4060 
Q 2714 3795 2714 3411 
Q 2714 3059 2531 2848 
Q 2349 2637 1856 2374 
Q 2432 1990 2640 1689 
Q 2848 1389 2848 992 
z
M 2272 3411 
Q 2272 3744 2086 3945 
Q 1901 4147 1574 4147 
Q 1248 4147 1059 3977 
Q 870 3808 870 3513 
Q 870 3219 1059 2979 
Q 1248 2739 1670 2490 
Q 1997 2682 2134 2896 
Q 2272 3110 2272 3411 
z
M 1734 1741 
L 1357 1997 
Q 1075 1766 960 1545 
Q 845 1325 845 1011 
Q 845 576 1065 333 
Q 1286 90 1658 90 
Q 1971 90 2166 285 
Q 2362 480 2362 794 
Q 2362 1082 2214 1299 
Q 2067 1517 1734 1741 
z
" transform="scale(0.015625)"/>
      </defs>
      <use xlink:href="#STIXGeneral-Regular-31"/>
      <use xlink:href="#STIXGeneral-Regular-65" x="49.999985"/>
      <use xlink:href="#STIXGeneral-Regular-38" x="94.399979"/>
     </g>
    </g>
   </g>
   <g id="matplotlib.axis_2">
    <g id="ytick_1">
     <g id="line2d_13">
      <path d="M 70.4 295.319468 
L 516.8 295.319468 
" clip-path="url(#p2b264a512f)" style="fill: none; stroke: #b0b0b0; stroke-width: 0.8; stroke-linecap: square"/>
     </g>
     <g id="line2d_14">
      <defs>
       <path id="m5614e8ecd3" d="M 0 0 
L -3.5 0 
" style="stroke: #000000; stroke-width: 0.8"/>
      </defs>
      <g>
       <use xlink:href="#m5614e8ecd3" x="70.4" y="295.319468" style="stroke: #000000; stroke-width: 0.8"/>
      </g>
     </g>
     <g id="text_9">
      <!-- 0 -->
      <g transform="translate(54.4 301.466187)scale(0.18 -0.18)">
       <use xlink:href="#STIXGeneral-Regular-30"/>
      </g>
     </g>
    </g>
    <g id="ytick_2">
     <g id="line2d_15">
      <path d="M 70.4 249.698552 
L 516.8 249.698552 
" clip-path="url(#p2b264a512f)" style="fill: none; stroke: #b0b0b0; stroke-width: 0.8; stroke-linecap: square"/>
     </g>
     <g id="line2d_16">
      <g>
       <use xlink:href="#m5614e8ecd3" x="70.4" y="249.698552" style="stroke: #000000; stroke-width: 0.8"/>
      </g>
     </g>
     <g id="text_10">
      <!-- 250 -->
      <g transform="translate(36.4 255.845271)scale(0.18 -0.18)">
       <use xlink:href="#STIXGeneral-Regular-32"/>
       <use xlink:href="#STIXGeneral-Regular-35" x="49.999985"/>
       <use xlink:href="#STIXGeneral-Regular-30" x="99.999969"/>
      </g>
     </g>
    </g>
    <g id="ytick_3">
     <g id="line2d_17">
      <path d="M 70.4 204.077637 
L 516.8 204.077637 
" clip-path="url(#p2b264a512f)" style="fill: none; stroke: #b0b0b0; stroke-width: 0.8; stroke-linecap: square"/>
     </g>
     <g id="line2d_18">
      <g>
       <use xlink:href="#m5614e8ecd3" x="70.4" y="204.077637" style="stroke: #000000; stroke-width: 0.8"/>
      </g>
     </g>
     <g id="text_11">
      <!-- 500 -->
      <g transform="translate(36.4 210.224355)scale(0.18 -0.18)">
       <use xlink:href="#STIXGeneral-Regular-35"/>
       <use xlink:href="#STIXGeneral-Regular-30" x="49.999985"/>
       <use xlink:href="#STIXGeneral-Regular-30" x="99.999969"/>
      </g>
     </g>
    </g>
    <g id="ytick_4">
     <g id="line2d_19">
      <path d="M 70.4 158.456721 
L 516.8 158.456721 
" clip-path="url(#p2b264a512f)" style="fill: none; stroke: #b0b0b0; stroke-width: 0.8; stroke-linecap: square"/>
     </g>
     <g id="line2d_20">
      <g>
       <use xlink:href="#m5614e8ecd3" x="70.4" y="158.456721" style="stroke: #000000; stroke-width: 0.8"/>
      </g>
     </g>
     <g id="text_12">
      <!-- 750 -->
      <g transform="translate(36.4 164.60344)scale(0.18 -0.18)">
       <defs>
        <path id="STIXGeneral-Regular-37" d="M 2874 4134 
L 1517 -51 
L 1101 -51 
L 2368 3763 
L 992 3763 
Q 717 3763 582 3667 
Q 448 3571 243 3238 
L 128 3296 
L 512 4237 
L 2874 4237 
L 2874 4134 
z
" transform="scale(0.015625)"/>
       </defs>
       <use xlink:href="#STIXGeneral-Regular-37"/>
       <use xlink:href="#STIXGeneral-Regular-35" x="49.999985"/>
       <use xlink:href="#STIXGeneral-Regular-30" x="99.999969"/>
      </g>
     </g>
    </g>
    <g id="ytick_5">
     <g id="line2d_21">
      <path d="M 70.4 112.835806 
L 516.8 112.835806 
" clip-path="url(#p2b264a512f)" style="fill: none; stroke: #b0b0b0; stroke-width: 0.8; stroke-linecap: square"/>
     </g>
     <g id="line2d_22">
      <g>
       <use xlink:href="#m5614e8ecd3" x="70.4" y="112.835806" style="stroke: #000000; stroke-width: 0.8"/>
      </g>
     </g>
     <g id="text_13">
      <!-- 1000 -->
      <g transform="translate(27.4 118.982524)scale(0.18 -0.18)">
       <use xlink:href="#STIXGeneral-Regular-31"/>
       <use xlink:href="#STIXGeneral-Regular-30" x="49.999985"/>
       <use xlink:href="#STIXGeneral-Regular-30" x="99.999969"/>
       <use xlink:href="#STIXGeneral-Regular-30" x="149.999954"/>
      </g>
     </g>
    </g>
    <g id="ytick_6">
     <g id="line2d_23">
      <path d="M 70.4 67.21489 
L 516.8 67.21489 
" clip-path="url(#p2b264a512f)" style="fill: none; stroke: #b0b0b0; stroke-width: 0.8; stroke-linecap: square"/>
     </g>
     <g id="line2d_24">
      <g>
       <use xlink:href="#m5614e8ecd3" x="70.4" y="67.21489" style="stroke: #000000; stroke-width: 0.8"/>
      </g>
     </g>
     <g id="text_14">
      <!-- 1250 -->
      <g transform="translate(27.4 73.361609)scale(0.18 -0.18)">
       <use xlink:href="#STIXGeneral-Regular-31"/>
       <use xlink:href="#STIXGeneral-Regular-32" x="49.999985"/>
       <use xlink:href="#STIXGeneral-Regular-35" x="99.999969"/>
       <use xlink:href="#STIXGeneral-Regular-30" x="149.999954"/>
      </g>
     </g>
    </g>
    <g id="text_15">
     <!-- Average Test Return -->
     <g transform="translate(19.476562 241.641375)rotate(-90)scale(0.18 -0.18)">
      <defs>
       <path id="STIXGeneral-Regular-41" d="M 4525 0 
L 2893 0 
L 2893 122 
Q 3149 122 3245 179 
Q 3334 224 3334 333 
Q 3334 499 3213 781 
L 2950 1382 
L 1274 1382 
L 979 653 
Q 922 506 922 384 
Q 922 237 1027 179 
Q 1133 122 1370 122 
L 1370 0 
L 96 0 
L 96 122 
Q 365 147 486 316 
Q 608 486 902 1190 
L 2221 4314 
L 2349 4314 
L 3923 710 
Q 4064 378 4176 262 
Q 4288 147 4525 122 
L 4525 0 
z
M 2861 1645 
L 2118 3405 
L 1382 1645 
L 2861 1645 
z
" transform="scale(0.015625)"/>
       <path id="STIXGeneral-Regular-52" d="M 4224 0 
L 3187 0 
L 1664 1971 
L 1306 1958 
L 1306 717 
Q 1306 352 1405 249 
Q 1504 147 1875 122 
L 1875 0 
L 109 0 
L 109 122 
Q 474 154 563 262 
Q 653 371 653 794 
L 653 3526 
Q 653 3885 563 3987 
Q 474 4090 109 4115 
L 109 4237 
L 1850 4237 
Q 2726 4237 3187 3859 
Q 3501 3603 3501 3091 
Q 3501 2221 2342 2042 
L 3622 422 
Q 3757 256 3878 198 
Q 4000 141 4224 122 
L 4224 0 
z
M 1306 3731 
L 1306 2195 
Q 1766 2202 1990 2246 
Q 2214 2291 2438 2413 
Q 2803 2618 2803 3142 
Q 2803 4000 1632 4000 
Q 1459 4000 1382 3945 
Q 1306 3891 1306 3731 
z
" transform="scale(0.015625)"/>
       <path id="STIXGeneral-Regular-75" d="M 3072 320 
L 3072 230 
Q 2573 96 2195 -58 
L 2163 -38 
L 2163 486 
L 2150 486 
Q 1747 -64 1235 -64 
Q 870 -64 662 160 
Q 454 384 454 755 
L 454 2362 
Q 454 2598 371 2688 
Q 288 2778 58 2790 
L 58 2880 
L 992 2880 
L 992 813 
Q 992 595 1123 451 
Q 1254 307 1446 307 
Q 1760 307 1984 506 
Q 2067 582 2099 649 
Q 2131 717 2131 877 
L 2131 2355 
Q 2131 2605 2041 2678 
Q 1952 2752 1658 2771 
L 1658 2880 
L 2669 2880 
L 2669 685 
Q 2669 461 2742 390 
Q 2816 320 3034 320 
L 3072 320 
z
" transform="scale(0.015625)"/>
      </defs>
      <use xlink:href="#STIXGeneral-Regular-41"/>
      <use xlink:href="#STIXGeneral-Regular-76" x="72.199982"/>
      <use xlink:href="#STIXGeneral-Regular-65" x="122.199966"/>
      <use xlink:href="#STIXGeneral-Regular-72" x="166.59996"/>
      <use xlink:href="#STIXGeneral-Regular-61" x="199.899948"/>
      <use xlink:href="#STIXGeneral-Regular-67" x="244.299942"/>
      <use xlink:href="#STIXGeneral-Regular-65" x="294.299927"/>
      <use xlink:href="#STIXGeneral-Regular-20" x="338.699921"/>
      <use xlink:href="#STIXGeneral-Regular-54" x="363.699905"/>
      <use xlink:href="#STIXGeneral-Regular-65" x="424.799896"/>
      <use xlink:href="#STIXGeneral-Regular-73" x="469.19989"/>
      <use xlink:href="#STIXGeneral-Regular-74" x="508.099884"/>
      <use xlink:href="#STIXGeneral-Regular-20" x="535.899872"/>
      <use xlink:href="#STIXGeneral-Regular-52" x="560.899857"/>
      <use xlink:href="#STIXGeneral-Regular-65" x="627.599854"/>
      <use xlink:href="#STIXGeneral-Regular-74" x="671.999847"/>
      <use xlink:href="#STIXGeneral-Regular-75" x="699.799835"/>
      <use xlink:href="#STIXGeneral-Regular-72" x="749.79982"/>
      <use xlink:href="#STIXGeneral-Regular-6e" x="783.099808"/>
     </g>
    </g>
   </g>
   <g id="line2d_25">
    <path d="M 90.690909 292.567842 
L 102.327273 292.640723 
L 103.781818 292.588088 
L 105.236364 292.660125 
L 108.145455 292.59867 
L 112.509091 292.516852 
L 118.327273 292.462038 
L 121.236364 292.431489 
L 122.690909 292.339907 
L 125.6 292.370661 
L 134.327273 292.338421 
L 137.236364 292.35764 
L 140.145455 292.292782 
L 144.509091 292.284774 
L 151.781818 292.151581 
L 153.236364 291.95771 
L 161.963636 291.787073 
L 166.327273 291.805344 
L 176.509091 291.727865 
L 180.872727 291.750034 
L 183.781818 291.74817 
L 191.054545 291.915013 
L 192.509091 291.900507 
L 193.963636 291.759142 
L 196.872727 291.667526 
L 198.327273 291.546554 
L 201.236364 291.542985 
L 207.054545 291.233397 
L 209.963636 291.204569 
L 211.418182 291.244473 
L 212.872727 291.051667 
L 217.236364 290.863832 
L 221.6 290.918416 
L 224.509091 290.511266 
L 228.872727 290.236718 
L 230.327273 290.199582 
L 231.781818 290.301201 
L 233.236364 290.246885 
L 234.690909 290.350946 
L 237.6 290.221167 
L 239.054545 290.28884 
L 241.963636 290.199444 
L 244.872727 290.227876 
L 247.781818 290.291378 
L 252.145455 290.303149 
L 253.6 290.190459 
L 257.963636 290.313351 
L 259.418182 290.482059 
L 262.327273 290.297792 
L 263.781818 290.282527 
L 265.236364 290.077772 
L 271.054545 290.184218 
L 273.963636 290.352448 
L 275.418182 290.30848 
L 276.872727 290.115814 
L 281.236364 290.294596 
L 284.145455 290.190235 
L 287.054545 290.491265 
L 288.509091 290.654825 
L 291.418182 290.546409 
L 295.781818 290.289641 
L 300.145455 290.399266 
L 301.6 290.312496 
L 303.054545 290.542307 
L 304.509091 290.54484 
L 305.963636 290.900096 
L 307.418182 290.771672 
L 310.327273 290.199944 
L 316.145455 289.885479 
L 320.509091 290.190908 
L 321.963636 290.130012 
L 324.872727 290.211949 
L 326.327273 290.186386 
L 327.781818 290.277569 
L 332.145455 290.087482 
L 336.509091 290.36293 
L 337.963636 290.671063 
L 339.418182 290.777685 
L 342.327273 290.621929 
L 343.781818 290.774514 
L 345.236364 290.518598 
L 348.145455 290.519309 
L 351.054545 290.248478 
L 352.509091 290.180139 
L 353.963636 290.232922 
L 355.418182 290.146665 
L 358.327273 290.238666 
L 359.781818 290.43824 
L 362.690909 290.47187 
L 367.054545 290.304905 
L 372.872727 290.296486 
L 375.781818 290.100698 
L 377.236364 290.060937 
L 378.690909 290.147246 
L 380.145455 289.974236 
L 381.6 289.976347 
L 383.054545 289.838769 
L 388.872727 289.955758 
L 391.781818 290.10012 
L 396.145455 290.169061 
L 397.6 290.315673 
L 400.509091 290.386067 
L 401.963636 290.557969 
L 404.872727 290.691356 
L 409.236364 290.413091 
L 410.690909 290.443756 
L 412.145455 290.290321 
L 415.054545 290.207201 
L 420.872727 290.13335 
L 423.781818 289.98393 
L 426.690909 289.974771 
L 433.963636 289.997622 
L 435.418182 289.764161 
L 436.872727 289.713351 
L 438.327273 289.852152 
L 442.690909 289.829727 
L 444.145455 289.652743 
L 445.6 289.745993 
L 448.509091 290.446022 
L 451.418182 290.719597 
L 452.872727 290.791855 
L 454.327273 290.665726 
L 457.236364 290.532227 
L 460.145455 290.43463 
L 464.509091 290.571831 
L 465.963636 290.904976 
L 467.418182 291.04202 
L 470.327273 291.093137 
L 471.781818 290.960144 
L 473.236364 291.20166 
L 476.145455 291.375046 
L 477.6 291.308112 
L 479.054545 291.101508 
L 480.509091 291.384377 
L 481.963636 290.878424 
L 483.418182 290.940222 
L 484.872727 290.81128 
L 486.327273 290.976426 
L 492.145455 290.963021 
L 493.6 291.224798 
L 495.054545 291.08368 
L 496.509091 291.193302 
L 496.509091 291.193302 
" clip-path="url(#p2b264a512f)" style="fill: none; stroke: #1f77b4; stroke-width: 1.5; stroke-linecap: square"/>
   </g>
   <g id="line2d_26">
    <path d="M 90.690909 253.014572 
L 92.145455 252.92778 
L 93.6 252.719903 
L 95.054545 252.785757 
L 96.509091 252.656545 
L 99.418182 252.757619 
L 102.327273 252.752641 
L 106.690909 252.989748 
L 108.145455 253.309245 
L 109.6 253.374495 
L 111.054545 253.727277 
L 113.963636 253.059534 
L 115.418182 252.726577 
L 119.781818 252.294431 
L 121.236364 251.924272 
L 125.6 251.851692 
L 127.054545 251.730387 
L 128.509091 251.784631 
L 129.963636 251.545611 
L 134.327273 252.056762 
L 137.236364 251.836285 
L 138.690909 251.835569 
L 140.145455 252.034786 
L 141.6 251.847179 
L 143.054545 252.139512 
L 144.509091 252.001634 
L 147.418182 252.069167 
L 150.327273 251.879829 
L 153.236364 252.07817 
L 154.690909 251.906289 
L 156.145455 252.294228 
L 157.6 252.07731 
L 161.963636 252.433846 
L 163.418182 252.305835 
L 166.327273 252.601746 
L 167.781818 252.589392 
L 169.236364 252.709959 
L 170.690909 252.7063 
L 172.145455 251.838103 
L 173.6 252.223448 
L 175.054545 252.389986 
L 177.963636 252.397497 
L 179.418182 252.312938 
L 180.872727 252.372798 
L 183.781818 252.248297 
L 186.690909 252.365225 
L 188.145455 252.303066 
L 189.6 252.100104 
L 191.054545 252.095583 
L 192.509091 252.323654 
L 195.418182 252.516394 
L 198.327273 252.711621 
L 199.781818 252.316619 
L 201.236364 252.08173 
L 202.690909 252.478964 
L 204.145455 252.434206 
L 205.6 252.606955 
L 208.509091 252.108703 
L 209.963636 252.103261 
L 211.418182 252.29767 
L 214.327273 252.18542 
L 215.781818 252.460509 
L 221.6 252.278096 
L 223.054545 252.518807 
L 224.509091 252.49567 
L 227.418182 252.737275 
L 231.781818 252.269271 
L 233.236364 252.296206 
L 234.690909 252.034462 
L 236.145455 251.978591 
L 237.6 252.290175 
L 239.054545 252.195908 
L 241.963636 252.353457 
L 243.418182 252.558359 
L 247.781818 252.683063 
L 249.236364 252.618007 
L 250.690909 252.282278 
L 256.509091 251.765224 
L 257.963636 251.988757 
L 259.418182 251.848277 
L 260.872727 252.064542 
L 262.327273 251.76029 
L 265.236364 252.018031 
L 266.690909 252.136774 
L 268.145455 252.023849 
L 269.6 252.785604 
L 271.054545 252.773868 
L 273.963636 252.472755 
L 276.872727 251.944972 
L 278.327273 252.355307 
L 281.236364 252.367852 
L 282.690909 252.517226 
L 284.145455 252.221153 
L 285.6 252.978637 
L 287.054545 252.649588 
L 288.509091 252.798453 
L 292.872727 252.121348 
L 294.327273 252.126497 
L 295.781818 251.903676 
L 297.236364 251.909915 
L 298.690909 252.206759 
L 300.145455 252.753887 
L 301.6 252.888129 
L 303.054545 252.7027 
L 305.963636 253.236526 
L 307.418182 253.748333 
L 308.872727 253.927092 
L 311.781818 253.661273 
L 313.236364 253.349234 
L 314.690909 253.230176 
L 317.6 253.752579 
L 319.054545 254.24522 
L 320.509091 254.023212 
L 321.963636 254.034855 
L 324.872727 253.518352 
L 329.236364 251.80494 
L 330.690909 252.031581 
L 332.145455 251.602869 
L 333.6 252.08482 
L 335.054545 252.03992 
L 336.509091 251.694792 
L 337.963636 250.139693 
L 339.418182 248.795649 
L 340.872727 248.16797 
L 342.327273 246.705982 
L 343.781818 246.107089 
L 345.236364 246.719945 
L 346.690909 246.402416 
L 348.145455 245.611413 
L 349.6 246.175015 
L 351.054545 245.83624 
L 352.509091 244.095595 
L 353.963636 245.364985 
L 356.872727 246.089991 
L 358.327273 246.587684 
L 359.781818 247.212562 
L 361.236364 248.919759 
L 364.145455 249.492735 
L 365.6 248.274202 
L 367.054545 248.053016 
L 368.509091 247.45846 
L 369.963636 248.230635 
L 371.418182 248.681819 
L 372.872727 248.677895 
L 374.327273 248.015962 
L 377.236364 248.335121 
L 378.690909 249.956231 
L 380.145455 250.648852 
L 381.6 251.135391 
L 383.054545 251.782983 
L 385.963636 252.343223 
L 388.872727 252.537878 
L 393.236364 253.043521 
L 396.145455 253.050858 
L 397.6 253.148411 
L 399.054545 253.500838 
L 401.963636 253.729148 
L 404.872727 253.552315 
L 406.327273 253.138739 
L 412.145455 252.697477 
L 413.6 252.719954 
L 415.054545 252.443886 
L 417.963636 252.224155 
L 422.327273 252.167884 
L 423.781818 252.06541 
L 425.236364 251.076229 
L 426.690909 250.768155 
L 428.145455 251.080546 
L 429.6 248.76051 
L 431.054545 248.156824 
L 432.509091 246.030832 
L 433.963636 244.590496 
L 435.418182 243.654534 
L 436.872727 243.265114 
L 438.327273 243.411622 
L 439.781818 242.67714 
L 441.236364 241.429836 
L 444.145455 240.937846 
L 445.6 241.835425 
L 447.054545 240.937667 
L 448.509091 240.830457 
L 449.963636 239.728238 
L 451.418182 240.505678 
L 452.872727 241.859511 
L 454.327273 240.827472 
L 455.781818 241.991066 
L 457.236364 239.539758 
L 458.690909 240.802648 
L 460.145455 240.870716 
L 461.6 240.528744 
L 464.509091 237.447824 
L 465.963636 237.812804 
L 467.418182 238.720491 
L 468.872727 238.026441 
L 470.327273 239.109463 
L 471.781818 237.496074 
L 473.236364 238.174354 
L 474.690909 239.327844 
L 476.145455 239.758475 
L 477.6 237.266812 
L 479.054545 237.811361 
L 480.509091 237.781737 
L 481.963636 240.160632 
L 484.872727 243.041957 
L 486.327273 243.223058 
L 487.781818 243.133577 
L 489.236364 242.811545 
L 490.690909 242.640396 
L 492.145455 242.287051 
L 493.6 241.750422 
L 495.054545 241.493675 
L 496.509091 239.863519 
L 496.509091 239.863519 
" clip-path="url(#p2b264a512f)" style="fill: none; stroke: #ff7f0e; stroke-width: 1.5; stroke-linecap: square"/>
   </g>
   <g id="line2d_27">
    <path d="M 90.690909 289.966647 
L 93.6 290.144359 
L 95.054545 290.273788 
L 99.418182 289.967804 
L 100.872727 289.519765 
L 103.781818 289.903118 
L 106.690909 289.565547 
L 108.145455 289.631804 
L 109.6 289.389772 
L 111.054545 289.577584 
L 112.509091 289.395866 
L 113.963636 289.472212 
L 115.418182 289.11163 
L 116.872727 289.409991 
L 119.781818 289.413289 
L 121.236364 289.541525 
L 124.145455 289.602516 
L 125.6 289.782921 
L 127.054545 289.692099 
L 131.418182 289.955856 
L 138.690909 289.648202 
L 140.145455 289.7288 
L 141.6 289.469807 
L 144.509091 289.455135 
L 145.963636 289.560328 
L 147.418182 289.55337 
L 150.327273 289.232103 
L 153.236364 288.896434 
L 157.6 289.035754 
L 159.054545 289.20813 
L 160.509091 288.99325 
L 161.963636 289.152811 
L 163.418182 288.616488 
L 164.872727 288.741335 
L 166.327273 288.524606 
L 167.781818 287.815572 
L 169.236364 288.380116 
L 170.690909 288.583002 
L 172.145455 289.009453 
L 173.6 288.921527 
L 175.054545 289.013449 
L 176.509091 288.609406 
L 180.872727 288.926765 
L 182.327273 289.171211 
L 183.781818 289.256466 
L 185.236364 289.562864 
L 186.690909 289.290221 
L 188.145455 289.289277 
L 189.6 289.499798 
L 193.963636 289.367317 
L 196.872727 288.951509 
L 198.327273 288.812422 
L 202.690909 288.793674 
L 204.145455 289.134135 
L 205.6 289.074947 
L 207.054545 289.271009 
L 208.509091 289.21645 
L 211.418182 289.345031 
L 212.872727 289.303726 
L 214.327273 289.021389 
L 217.236364 288.874794 
L 218.690909 289.065895 
L 220.145455 289.096991 
L 221.6 288.877559 
L 223.054545 288.938103 
L 224.509091 288.805262 
L 225.963636 288.909117 
L 230.327273 288.580465 
L 231.781818 288.237786 
L 233.236364 288.441035 
L 234.690909 288.335892 
L 237.6 288.83499 
L 239.054545 288.631392 
L 240.509091 288.855057 
L 241.963636 288.885126 
L 243.418182 289.082371 
L 244.872727 288.855287 
L 246.327273 288.431867 
L 247.781818 288.763357 
L 249.236364 288.791058 
L 250.690909 288.693657 
L 252.145455 288.734665 
L 256.509091 288.485404 
L 259.418182 289.052835 
L 260.872727 288.098389 
L 262.327273 288.14262 
L 263.781818 288.708351 
L 268.145455 288.808483 
L 269.6 288.749207 
L 271.054545 288.536415 
L 275.418182 288.814171 
L 278.327273 288.759912 
L 279.781818 288.538134 
L 284.145455 289.61232 
L 285.6 289.391796 
L 287.054545 289.662973 
L 288.509091 289.64158 
L 289.963636 289.391864 
L 291.418182 288.984802 
L 292.872727 289.347133 
L 294.327273 289.121025 
L 295.781818 289.264008 
L 298.690909 288.92495 
L 304.509091 288.822487 
L 305.963636 288.982816 
L 307.418182 289.408154 
L 308.872727 289.360254 
L 310.327273 289.001969 
L 311.781818 289.249106 
L 313.236364 288.645009 
L 314.690909 288.773398 
L 316.145455 288.421453 
L 317.6 288.912365 
L 319.054545 288.441613 
L 321.963636 288.138444 
L 323.418182 287.774194 
L 324.872727 288.06373 
L 326.327273 287.987301 
L 330.690909 288.593713 
L 332.145455 288.526934 
L 333.6 288.689353 
L 335.054545 288.965057 
L 337.963636 289.210799 
L 339.418182 289.067056 
L 340.872727 289.423377 
L 342.327273 289.502833 
L 343.781818 289.405216 
L 345.236364 289.131878 
L 346.690909 288.976592 
L 348.145455 288.940661 
L 349.6 288.431339 
L 352.509091 288.694414 
L 353.963636 288.341147 
L 355.418182 288.271366 
L 356.872727 287.747162 
L 358.327273 288.217874 
L 359.781818 287.985731 
L 361.236364 288.004508 
L 362.690909 288.449995 
L 364.145455 288.517798 
L 365.6 288.810765 
L 367.054545 288.136364 
L 368.509091 287.825508 
L 369.963636 287.970037 
L 371.418182 287.897283 
L 374.327273 288.682737 
L 375.781818 288.491232 
L 377.236364 288.747837 
L 378.690909 288.248259 
L 381.6 287.661773 
L 384.509091 287.600113 
L 385.963636 287.761924 
L 387.418182 287.582477 
L 390.327273 287.670866 
L 391.781818 287.809556 
L 393.236364 287.814351 
L 394.690909 288.116333 
L 396.145455 288.114383 
L 397.6 288.259829 
L 399.054545 288.224815 
L 400.509091 288.035527 
L 401.963636 288.322199 
L 403.418182 288.440021 
L 404.872727 288.270235 
L 406.327273 288.578066 
L 407.781818 288.615221 
L 409.236364 288.421964 
L 410.690909 287.805567 
L 412.145455 288.015879 
L 413.6 287.617088 
L 415.054545 287.591362 
L 416.509091 287.909676 
L 417.963636 287.635579 
L 419.418182 287.72185 
L 422.327273 287.43663 
L 423.781818 287.390806 
L 425.236364 287.609368 
L 426.690909 288.052198 
L 428.145455 288.203609 
L 429.6 288.194351 
L 431.054545 288.042247 
L 432.509091 288.330874 
L 433.963636 288.029703 
L 436.872727 287.741703 
L 441.236364 287.953048 
L 442.690909 288.179456 
L 444.145455 287.395308 
L 447.054545 288.679369 
L 448.509091 288.803106 
L 449.963636 289.047095 
L 451.418182 288.925611 
L 454.327273 289.114399 
L 455.781818 288.508969 
L 457.236364 288.220089 
L 458.690909 288.324486 
L 460.145455 287.346429 
L 461.6 287.843342 
L 463.054545 288.592055 
L 470.327273 288.733401 
L 473.236364 288.084532 
L 476.145455 288.101529 
L 477.6 287.708604 
L 479.054545 288.080326 
L 480.509091 288.090395 
L 481.963636 287.341223 
L 484.872727 288.276859 
L 486.327273 288.42918 
L 489.236364 288.362791 
L 490.690909 288.627704 
L 492.145455 288.326723 
L 495.054545 288.280979 
L 496.509091 288.875261 
L 496.509091 288.875261 
" clip-path="url(#p2b264a512f)" style="fill: none; stroke: #2ca02c; stroke-width: 1.5; stroke-linecap: square"/>
   </g>
   <g id="line2d_28">
    <path d="M 90.690909 157.59302 
L 92.145455 159.705126 
L 93.6 163.779207 
L 95.054545 163.011244 
L 96.509091 162.673496 
L 99.418182 167.294393 
L 100.872727 169.567593 
L 102.327273 170.62117 
L 103.781818 171.840557 
L 105.236364 170.300147 
L 106.690909 160.15881 
L 108.145455 162.458709 
L 109.6 152.10199 
L 111.054545 163.190934 
L 112.509091 166.333081 
L 113.963636 157.962128 
L 115.418182 153.669735 
L 116.872727 152.64542 
L 118.327273 148.432958 
L 119.781818 154.795803 
L 121.236364 150.065946 
L 122.690909 150.913444 
L 125.6 157.632053 
L 127.054545 166.588938 
L 128.509091 160.188863 
L 129.963636 157.254348 
L 131.418182 160.544236 
L 132.872727 161.477776 
L 134.327273 158.902589 
L 135.781818 154.889603 
L 137.236364 153.607031 
L 138.690909 156.476799 
L 140.145455 146.014738 
L 141.6 150.242217 
L 143.054545 153.818228 
L 144.509091 151.75633 
L 147.418182 140.663916 
L 148.872727 141.990122 
L 150.327273 140.232362 
L 151.781818 134.49185 
L 154.690909 129.604201 
L 156.145455 122.025171 
L 157.6 117.60326 
L 159.054545 124.266867 
L 160.509091 116.389893 
L 163.418182 95.197763 
L 164.872727 88.890872 
L 166.327273 89.350561 
L 167.781818 93.663549 
L 169.236364 105.638336 
L 170.690909 114.048124 
L 172.145455 119.270801 
L 173.6 120.415562 
L 175.054545 118.650709 
L 176.509091 122.277315 
L 177.963636 113.252141 
L 179.418182 108.690949 
L 180.872727 108.488547 
L 183.781818 115.004508 
L 185.236364 117.312488 
L 186.690909 127.136192 
L 188.145455 132.888152 
L 189.6 128.144777 
L 191.054545 126.681423 
L 192.509091 134.926899 
L 193.963636 128.293239 
L 195.418182 123.546995 
L 196.872727 120.335118 
L 198.327273 121.863363 
L 199.781818 114.975475 
L 201.236364 104.222185 
L 202.690909 99.726983 
L 204.145455 85.200252 
L 205.6 84.319792 
L 207.054545 81.111787 
L 208.509091 77.303802 
L 209.963636 72.78323 
L 211.418182 74.108106 
L 212.872727 72.784956 
L 215.781818 60.809852 
L 217.236364 63.356158 
L 218.690909 51.749894 
L 220.145455 53.556463 
L 221.6 54.364389 
L 223.054545 50.646887 
L 224.509091 48.418 
L 225.963636 45.753374 
L 227.418182 43.398504 
L 228.872727 46.398701 
L 230.327273 45.963716 
L 231.781818 40.660125 
L 233.236364 52.912025 
L 234.690909 44.147247 
L 236.145455 49.466918 
L 237.6 51.499262 
L 240.509091 43.254793 
L 241.963636 49.552655 
L 243.418182 53.309498 
L 244.872727 54.683753 
L 246.327273 54.700103 
L 247.781818 53.029308 
L 249.236364 52.871076 
L 250.690909 48.939186 
L 252.145455 54.673817 
L 253.6 59.814572 
L 255.054545 61.361191 
L 256.509091 60.644554 
L 257.963636 63.802461 
L 259.418182 70.257952 
L 260.872727 71.411509 
L 262.327273 72.277154 
L 263.781818 67.125345 
L 265.236364 63.064244 
L 266.690909 66.762626 
L 268.145455 64.801683 
L 269.6 54.43302 
L 271.054545 54.081817 
L 273.963636 66.383983 
L 275.418182 63.74139 
L 276.872727 66.931676 
L 278.327273 85.868071 
L 279.781818 99.257611 
L 281.236364 105.973376 
L 282.690909 109.644448 
L 284.145455 113.757672 
L 285.6 122.058089 
L 287.054545 123.527293 
L 288.509091 125.534596 
L 289.963636 114.52862 
L 291.418182 111.686969 
L 292.872727 107.330851 
L 294.327273 105.100271 
L 295.781818 99.524319 
L 297.236364 102.077238 
L 298.690909 100.41148 
L 300.145455 98.230488 
L 301.6 100.869163 
L 303.054545 109.442062 
L 304.509091 116.736502 
L 305.963636 128.95055 
L 307.418182 133.366703 
L 308.872727 132.353378 
L 310.327273 130.357888 
L 311.781818 124.607381 
L 313.236364 117.347544 
L 314.690909 121.156422 
L 316.145455 107.159092 
L 317.6 107.450828 
L 319.054545 100.975533 
L 320.509091 107.534829 
L 321.963636 105.130792 
L 323.418182 109.373311 
L 324.872727 104.950089 
L 326.327273 114.928013 
L 327.781818 115.740451 
L 329.236364 124.042019 
L 330.690909 127.578768 
L 332.145455 121.711108 
L 333.6 128.035986 
L 335.054545 127.937426 
L 336.509091 131.056709 
L 337.963636 130.110969 
L 339.418182 138.372906 
L 340.872727 141.10456 
L 342.327273 147.224462 
L 343.781818 143.930739 
L 345.236364 143.23256 
L 346.690909 145.246281 
L 348.145455 147.514897 
L 349.6 147.498867 
L 351.054545 145.804933 
L 352.509091 141.691068 
L 353.963636 140.04696 
L 355.418182 126.42666 
L 356.872727 129.836053 
L 358.327273 120.026988 
L 359.781818 114.205114 
L 361.236364 110.97031 
L 364.145455 111.366806 
L 365.6 123.182372 
L 367.054545 119.414839 
L 368.509091 119.505444 
L 369.963636 118.263113 
L 371.418182 116.522011 
L 372.872727 109.475594 
L 374.327273 107.212588 
L 375.781818 107.835035 
L 378.690909 112.026473 
L 380.145455 106.960549 
L 381.6 94.918786 
L 383.054545 86.438671 
L 384.509091 89.798402 
L 385.963636 83.260942 
L 387.418182 83.419641 
L 388.872727 87.323146 
L 390.327273 84.508054 
L 391.781818 80.948149 
L 393.236364 89.254611 
L 394.690909 90.048448 
L 396.145455 86.502874 
L 397.6 78.52209 
L 399.054545 78.843715 
L 400.509091 74.245781 
L 401.963636 75.04129 
L 403.418182 69.964651 
L 404.872727 68.485558 
L 406.327273 70.077796 
L 407.781818 69.745006 
L 409.236364 75.222491 
L 410.690909 76.628776 
L 412.145455 83.474352 
L 413.6 88.557674 
L 415.054545 89.390214 
L 416.509091 81.913572 
L 417.963636 86.140843 
L 419.418182 84.313306 
L 420.872727 91.435775 
L 422.327273 95.534169 
L 423.781818 95.178858 
L 425.236364 90.68969 
L 426.690909 85.501947 
L 428.145455 78.365438 
L 429.6 75.243765 
L 431.054545 80.896216 
L 432.509091 83.715047 
L 433.963636 94.100987 
L 435.418182 92.109729 
L 439.781818 105.63594 
L 441.236364 103.992929 
L 442.690909 103.301805 
L 444.145455 106.631186 
L 445.6 102.082691 
L 447.054545 112.044641 
L 448.509091 117.306053 
L 449.963636 113.830381 
L 451.418182 116.772947 
L 452.872727 122.237602 
L 454.327273 130.222456 
L 455.781818 124.979315 
L 457.236364 121.156958 
L 458.690909 115.96008 
L 460.145455 104.634171 
L 461.6 109.867124 
L 463.054545 114.137203 
L 464.509091 113.778055 
L 465.963636 123.849418 
L 467.418182 126.218416 
L 468.872727 116.168743 
L 470.327273 108.907727 
L 471.781818 111.676494 
L 473.236364 109.939473 
L 476.145455 107.445205 
L 477.6 115.194168 
L 479.054545 114.242751 
L 480.509091 105.64441 
L 481.963636 103.07261 
L 483.418182 100.269609 
L 484.872727 103.008537 
L 486.327273 105.054971 
L 487.781818 106.226768 
L 489.236364 97.923564 
L 490.690909 98.278041 
L 492.145455 95.30261 
L 493.6 110.98388 
L 495.054545 112.309605 
L 496.509091 108.048255 
L 496.509091 108.048255 
" clip-path="url(#p2b264a512f)" style="fill: none; stroke: #d62728; stroke-width: 1.5; stroke-linecap: square"/>
   </g>
   <g id="line2d_29">
    <path d="M 90.690909 155.206042 
L 92.145455 152.156756 
L 95.054545 155.171843 
L 96.509091 156.639663 
L 97.963636 157.420625 
L 99.418182 153.240579 
L 100.872727 154.886442 
L 102.327273 157.683177 
L 103.781818 157.490644 
L 105.236364 160.534204 
L 106.690909 160.871342 
L 108.145455 159.214404 
L 109.6 160.744213 
L 112.509091 159.31315 
L 113.963636 158.879653 
L 115.418182 161.181971 
L 116.872727 160.457435 
L 118.327273 158.553235 
L 119.781818 157.190514 
L 121.236364 158.197477 
L 122.690909 156.487877 
L 124.145455 151.949315 
L 125.6 149.094978 
L 127.054545 148.909375 
L 128.509091 147.366221 
L 129.963636 149.955812 
L 131.418182 150.402132 
L 132.872727 151.075015 
L 134.327273 149.014244 
L 135.781818 153.97475 
L 137.236364 153.506528 
L 138.690909 152.602668 
L 140.145455 152.531308 
L 143.054545 158.991022 
L 144.509091 160.47742 
L 145.963636 161.46963 
L 147.418182 160.337874 
L 148.872727 161.835736 
L 150.327273 161.593516 
L 151.781818 159.253715 
L 153.236364 160.050897 
L 154.690909 161.805638 
L 156.145455 164.878509 
L 157.6 164.706247 
L 159.054545 161.055756 
L 160.509091 162.502852 
L 161.963636 166.842821 
L 163.418182 165.874426 
L 164.872727 168.382126 
L 166.327273 163.327371 
L 167.781818 167.822553 
L 169.236364 169.377968 
L 170.690909 163.862656 
L 172.145455 163.21793 
L 173.6 160.888593 
L 175.054545 163.634278 
L 176.509091 162.016997 
L 177.963636 164.717699 
L 179.418182 165.829754 
L 180.872727 160.577772 
L 182.327273 164.311598 
L 183.781818 160.024918 
L 185.236364 158.598208 
L 186.690909 156.95961 
L 188.145455 154.230257 
L 189.6 154.150684 
L 191.054545 150.285771 
L 192.509091 152.567799 
L 193.963636 159.374232 
L 195.418182 162.701804 
L 196.872727 163.596331 
L 198.327273 162.958888 
L 199.781818 165.760427 
L 201.236364 165.03855 
L 202.690909 166.155715 
L 204.145455 165.796064 
L 205.6 165.241886 
L 207.054545 167.160811 
L 208.509091 167.063882 
L 209.963636 169.258382 
L 211.418182 170.332747 
L 212.872727 173.337433 
L 214.327273 172.1688 
L 215.781818 173.215837 
L 217.236364 174.083809 
L 218.690909 170.672127 
L 220.145455 170.608929 
L 221.6 171.513679 
L 223.054545 172.244643 
L 224.509091 178.029049 
L 225.963636 173.819759 
L 227.418182 177.740843 
L 228.872727 173.881084 
L 230.327273 180.231709 
L 231.781818 181.643681 
L 233.236364 173.861115 
L 234.690909 175.698722 
L 236.145455 176.838652 
L 237.6 177.215315 
L 239.054545 173.59366 
L 240.509091 176.493437 
L 241.963636 174.665596 
L 243.418182 176.15153 
L 244.872727 174.049057 
L 246.327273 173.707374 
L 247.781818 174.101905 
L 249.236364 174.756046 
L 250.690909 175.621492 
L 252.145455 178.970984 
L 253.6 178.285134 
L 255.054545 182.148713 
L 256.509091 178.442388 
L 257.963636 177.243873 
L 259.418182 177.463798 
L 260.872727 176.872456 
L 262.327273 181.467592 
L 263.781818 184.816151 
L 265.236364 184.05463 
L 268.145455 180.251142 
L 269.6 175.291045 
L 271.054545 177.712658 
L 272.509091 176.786419 
L 273.963636 175.585305 
L 275.418182 180.348908 
L 276.872727 177.369075 
L 278.327273 176.331328 
L 279.781818 174.22535 
L 281.236364 175.679571 
L 285.6 179.270584 
L 287.054545 180.04888 
L 288.509091 179.29327 
L 289.963636 176.763025 
L 291.418182 175.53323 
L 292.872727 176.541057 
L 294.327273 176.918023 
L 295.781818 175.105402 
L 297.236364 175.401703 
L 298.690909 175.427695 
L 300.145455 176.78836 
L 301.6 177.429229 
L 303.054545 176.020376 
L 304.509091 175.167745 
L 305.963636 170.863219 
L 307.418182 174.200481 
L 308.872727 174.687957 
L 310.327273 174.551476 
L 311.781818 174.926171 
L 313.236364 167.597925 
L 314.690909 167.0875 
L 316.145455 171.704392 
L 317.6 169.856876 
L 319.054545 172.308464 
L 320.509091 168.504627 
L 321.963636 168.080776 
L 323.418182 174.302982 
L 324.872727 174.180991 
L 326.327273 168.742425 
L 327.781818 166.186579 
L 329.236364 162.511062 
L 330.690909 160.679639 
L 333.6 160.947223 
L 335.054545 163.948372 
L 337.963636 152.016159 
L 339.418182 150.541331 
L 340.872727 145.071836 
L 342.327273 143.507676 
L 343.781818 142.242929 
L 345.236364 147.050113 
L 346.690909 143.595067 
L 348.145455 143.138932 
L 349.6 144.518456 
L 351.054545 143.23141 
L 352.509091 143.852335 
L 353.963636 144.34199 
L 355.418182 144.62783 
L 356.872727 154.088871 
L 358.327273 152.761643 
L 361.236364 158.959082 
L 362.690909 156.032698 
L 364.145455 156.364038 
L 365.6 157.801806 
L 367.054545 158.125668 
L 368.509091 156.149048 
L 369.963636 160.915069 
L 371.418182 156.387822 
L 374.327273 151.320353 
L 375.781818 153.915583 
L 377.236364 155.996528 
L 378.690909 156.410709 
L 380.145455 161.619423 
L 381.6 158.308258 
L 383.054545 158.990315 
L 384.509091 161.416734 
L 385.963636 164.163126 
L 387.418182 170.783419 
L 390.327273 171.736452 
L 391.781818 168.863822 
L 393.236364 170.887458 
L 394.690909 170.081436 
L 396.145455 164.252886 
L 397.6 166.649663 
L 399.054545 169.536932 
L 401.963636 170.895904 
L 403.418182 168.973874 
L 404.872727 165.277334 
L 406.327273 166.243706 
L 409.236364 158.961691 
L 410.690909 165.045713 
L 412.145455 163.568059 
L 413.6 158.319229 
L 415.054545 166.539777 
L 416.509091 170.487425 
L 417.963636 170.578073 
L 419.418182 173.811402 
L 420.872727 171.945408 
L 422.327273 175.682978 
L 423.781818 169.149013 
L 425.236364 167.476565 
L 426.690909 168.646795 
L 428.145455 169.058077 
L 429.6 167.713322 
L 431.054545 163.896915 
L 432.509091 165.342563 
L 433.963636 160.264358 
L 435.418182 156.33552 
L 436.872727 156.560896 
L 438.327273 154.545377 
L 441.236364 161.445219 
L 442.690909 163.470674 
L 444.145455 161.11894 
L 445.6 162.933525 
L 447.054545 159.775735 
L 448.509091 156.345067 
L 449.963636 154.666847 
L 451.418182 149.448985 
L 452.872727 145.294884 
L 454.327273 151.672992 
L 455.781818 151.237206 
L 457.236364 153.084913 
L 458.690909 153.347568 
L 460.145455 147.274921 
L 461.6 150.264391 
L 463.054545 152.506895 
L 464.509091 143.779407 
L 465.963636 141.275584 
L 467.418182 141.660255 
L 468.872727 140.984248 
L 470.327273 147.119453 
L 471.781818 146.338027 
L 473.236364 144.661825 
L 474.690909 140.876106 
L 476.145455 140.484034 
L 477.6 146.659812 
L 479.054545 143.05385 
L 480.509091 139.093633 
L 481.963636 145.870043 
L 483.418182 147.135509 
L 484.872727 148.665688 
L 486.327273 149.756158 
L 487.781818 152.910697 
L 489.236364 148.791974 
L 492.145455 153.501541 
L 493.6 144.50514 
L 495.054545 149.361536 
L 496.509091 145.829985 
L 496.509091 145.829985 
" clip-path="url(#p2b264a512f)" style="fill: none; stroke: #9467bd; stroke-width: 1.5; stroke-linecap: square"/>
   </g>
   <g id="patch_3">
    <path d="M 70.4 305.260125 
L 70.4 28.060125 
" style="fill: none; stroke: #000000; stroke-width: 0.8; stroke-linejoin: miter; stroke-linecap: square"/>
   </g>
   <g id="patch_4">
    <path d="M 516.8 305.260125 
L 516.8 28.060125 
" style="fill: none; stroke: #000000; stroke-width: 0.8; stroke-linejoin: miter; stroke-linecap: square"/>
   </g>
   <g id="patch_5">
    <path d="M 70.4 305.260125 
L 516.8 305.260125 
" style="fill: none; stroke: #000000; stroke-width: 0.8; stroke-linejoin: miter; stroke-linecap: square"/>
   </g>
   <g id="patch_6">
    <path d="M 70.4 28.060125 
L 516.8 28.060125 
" style="fill: none; stroke: #000000; stroke-width: 0.8; stroke-linejoin: miter; stroke-linecap: square"/>
   </g>
   <g id="text_16">
    <!-- ML45 Meta Testing -->
    <g transform="translate(206.604313 22.060125)scale(0.216 -0.216)">
     <defs>
      <path id="STIXGeneral-Regular-4d" d="M 5530 0 
L 3738 0 
L 3738 122 
Q 4115 147 4214 265 
Q 4314 384 4314 787 
L 4314 3661 
L 2682 0 
L 2592 0 
L 979 3514 
L 979 966 
Q 979 448 1088 294 
Q 1197 141 1574 122 
L 1574 0 
L 77 0 
L 77 122 
Q 358 141 480 205 
Q 602 269 650 432 
Q 698 595 698 966 
L 698 3514 
Q 698 3878 589 3984 
Q 480 4090 90 4115 
L 90 4237 
L 1357 4237 
L 2835 1024 
L 4250 4237 
L 5523 4237 
L 5523 4115 
Q 5178 4109 5072 3993 
Q 4966 3878 4966 3520 
L 4966 717 
Q 4966 378 5072 262 
Q 5178 147 5530 122 
L 5530 0 
z
" transform="scale(0.015625)"/>
      <path id="STIXGeneral-Regular-4c" d="M 3827 1114 
L 3520 0 
L 77 0 
L 77 122 
Q 429 141 531 256 
Q 634 371 634 736 
L 634 3494 
Q 634 3872 541 3981 
Q 448 4090 77 4115 
L 77 4237 
L 1888 4237 
L 1888 4115 
Q 1498 4090 1392 3984 
Q 1286 3878 1286 3507 
L 1286 538 
Q 1286 358 1398 304 
Q 1510 250 1862 250 
L 2310 250 
Q 3085 250 3392 640 
Q 3520 813 3661 1114 
L 3827 1114 
z
" transform="scale(0.015625)"/>
     </defs>
     <use xlink:href="#STIXGeneral-Regular-4d"/>
     <use xlink:href="#STIXGeneral-Regular-4c" x="88.899994"/>
     <use xlink:href="#STIXGeneral-Regular-34" x="149.999985"/>
     <use xlink:href="#STIXGeneral-Regular-35" x="199.999969"/>
     <use xlink:href="#STIXGeneral-Regular-20" x="249.999954"/>
     <use xlink:href="#STIXGeneral-Regular-4d" x="274.999939"/>
     <use xlink:href="#STIXGeneral-Regular-65" x="363.899933"/>
     <use xlink:href="#STIXGeneral-Regular-74" x="408.299927"/>
     <use xlink:href="#STIXGeneral-Regular-61" x="436.099915"/>
     <use xlink:href="#STIXGeneral-Regular-20" x="480.499908"/>
     <use xlink:href="#STIXGeneral-Regular-54" x="505.499893"/>
     <use xlink:href="#STIXGeneral-Regular-65" x="566.599884"/>
     <use xlink:href="#STIXGeneral-Regular-73" x="610.999878"/>
     <use xlink:href="#STIXGeneral-Regular-74" x="649.899872"/>
     <use xlink:href="#STIXGeneral-Regular-69" x="677.69986"/>
     <use xlink:href="#STIXGeneral-Regular-6e" x="705.499847"/>
     <use xlink:href="#STIXGeneral-Regular-67" x="755.499832"/>
    </g>
   </g>
   <g id="legend_1">
    <g id="patch_7">
     <path d="M 76 107.87325 
L 184.093125 107.87325 
Q 186.893125 107.87325 186.893125 105.07325 
L 186.893125 33.660125 
Q 186.893125 30.860125 184.093125 30.860125 
L 76 30.860125 
Q 73.2 30.860125 73.2 33.660125 
L 73.2 105.07325 
Q 73.2 107.87325 76 107.87325 
z
" style="fill: #ffffff; opacity: 0.8; stroke: #cccccc; stroke-linejoin: miter"/>
    </g>
    <g id="line2d_30">
     <path d="M 77.4 40.771687 
L 84.4 40.771687 
L 91.4 40.771687 
" style="fill: none; stroke: #1f77b4; stroke-width: 1.5; stroke-linecap: square"/>
    </g>
    <g id="text_17">
     <!-- bin-picking-v2 -->
     <g transform="translate(95.6 44.621687)scale(0.14 -0.14)">
      <defs>
       <path id="STIXGeneral-Regular-62" d="M 979 4358 
L 979 2406 
Q 1082 2650 1315 2797 
Q 1549 2944 1843 2944 
Q 2349 2944 2672 2541 
Q 2995 2138 2995 1536 
Q 2995 832 2566 384 
Q 2138 -64 1498 -64 
Q 1107 -64 774 67 
Q 442 198 442 358 
L 442 3622 
Q 442 3859 384 3926 
Q 326 3994 128 3994 
Q 83 3994 19 3981 
L 19 4090 
L 211 4147 
Q 864 4346 947 4371 
L 979 4358 
z
M 979 2035 
L 979 474 
Q 979 326 1161 233 
Q 1344 141 1600 141 
Q 1978 141 2195 416 
Q 2432 710 2432 1261 
Q 2432 1888 2182 2240 
Q 1971 2541 1613 2541 
Q 1357 2541 1168 2390 
Q 979 2240 979 2035 
z
" transform="scale(0.015625)"/>
       <path id="STIXGeneral-Regular-2d" d="M 1824 1242 
L 250 1242 
L 250 1645 
L 1824 1645 
L 1824 1242 
z
" transform="scale(0.015625)"/>
       <path id="STIXGeneral-Regular-63" d="M 2547 998 
L 2637 941 
Q 2362 403 2112 205 
Q 1786 -64 1376 -64 
Q 845 -64 502 336 
Q 160 736 160 1357 
Q 160 2170 698 2618 
Q 1094 2944 1562 2944 
Q 1965 2944 2256 2749 
Q 2547 2554 2547 2285 
Q 2547 2176 2457 2096 
Q 2368 2016 2246 2016 
Q 2022 2016 1939 2310 
L 1901 2451 
Q 1850 2630 1773 2694 
Q 1696 2758 1523 2758 
Q 1133 2758 893 2451 
Q 653 2144 653 1645 
Q 653 1094 928 745 
Q 1203 397 1645 397 
Q 1920 397 2118 528 
Q 2317 659 2547 998 
z
" transform="scale(0.015625)"/>
       <path id="STIXGeneral-Regular-6b" d="M 3232 0 
L 1837 0 
L 1837 96 
L 1958 96 
Q 2093 96 2093 192 
Q 2093 250 2022 339 
L 1062 1606 
L 1062 429 
Q 1062 262 1142 185 
Q 1222 109 1414 102 
L 1542 96 
L 1542 0 
L 45 0 
L 45 96 
Q 390 154 457 214 
Q 525 275 525 525 
L 525 3610 
Q 525 3840 467 3920 
Q 410 4000 250 4000 
Q 211 4000 45 3987 
L 45 4090 
L 237 4141 
Q 621 4243 1037 4371 
L 1062 4358 
L 1062 1670 
L 1939 2451 
Q 2086 2586 2086 2675 
Q 2086 2739 2019 2761 
Q 1952 2784 1766 2790 
L 1766 2880 
L 3072 2880 
L 3072 2784 
Q 2752 2784 2505 2646 
Q 2259 2509 1690 1978 
L 1504 1805 
L 2483 563 
Q 2829 122 3232 96 
L 3232 0 
z
" transform="scale(0.015625)"/>
      </defs>
      <use xlink:href="#STIXGeneral-Regular-62"/>
      <use xlink:href="#STIXGeneral-Regular-69" x="49.999985"/>
      <use xlink:href="#STIXGeneral-Regular-6e" x="77.799973"/>
      <use xlink:href="#STIXGeneral-Regular-2d" x="127.799957"/>
      <use xlink:href="#STIXGeneral-Regular-70" x="161.099945"/>
      <use xlink:href="#STIXGeneral-Regular-69" x="211.09993"/>
      <use xlink:href="#STIXGeneral-Regular-63" x="238.899918"/>
      <use xlink:href="#STIXGeneral-Regular-6b" x="283.299911"/>
      <use xlink:href="#STIXGeneral-Regular-69" x="333.299896"/>
      <use xlink:href="#STIXGeneral-Regular-6e" x="361.099884"/>
      <use xlink:href="#STIXGeneral-Regular-67" x="411.099869"/>
      <use xlink:href="#STIXGeneral-Regular-2d" x="461.099854"/>
      <use xlink:href="#STIXGeneral-Regular-76" x="494.399841"/>
      <use xlink:href="#STIXGeneral-Regular-32" x="544.399826"/>
     </g>
    </g>
    <g id="line2d_31">
     <path d="M 77.4 54.784812 
L 84.4 54.784812 
L 91.4 54.784812 
" style="fill: none; stroke: #ff7f0e; stroke-width: 1.5; stroke-linecap: square"/>
    </g>
    <g id="text_18">
     <!-- box-close-v2 -->
     <g transform="translate(95.6 58.634812)scale(0.14 -0.14)">
      <defs>
       <path id="STIXGeneral-Regular-78" d="M 3066 0 
L 1779 0 
L 1779 96 
Q 1939 109 1987 137 
Q 2035 166 2035 250 
Q 2035 307 1997 365 
L 1414 1261 
L 909 474 
Q 781 275 781 211 
Q 781 96 1037 96 
L 1037 0 
L 109 0 
L 109 96 
Q 269 109 355 169 
Q 442 230 576 422 
L 1306 1478 
L 704 2400 
Q 557 2624 454 2704 
Q 352 2784 211 2784 
L 154 2784 
L 154 2880 
L 1478 2880 
L 1478 2784 
Q 1203 2778 1203 2643 
Q 1203 2509 1498 2074 
Q 1581 1958 1587 1946 
Q 1619 1990 1779 2227 
Q 1811 2285 1856 2349 
Q 1901 2413 1923 2451 
Q 1946 2490 1971 2528 
Q 1997 2566 2006 2595 
Q 2016 2624 2016 2643 
Q 2016 2765 1760 2784 
L 1760 2880 
L 2771 2880 
L 2771 2784 
Q 2445 2771 2253 2502 
L 1722 1734 
L 2541 480 
Q 2790 96 3066 96 
L 3066 0 
z
" transform="scale(0.015625)"/>
       <path id="STIXGeneral-Regular-6c" d="M 1645 0 
L 134 0 
L 134 96 
Q 435 122 531 221 
Q 627 320 627 589 
L 627 3590 
Q 627 3821 569 3910 
Q 512 4000 358 4000 
Q 224 4000 122 3987 
L 122 4090 
Q 730 4237 1133 4371 
L 1165 4346 
L 1165 557 
Q 1165 288 1254 201 
Q 1344 115 1645 96 
L 1645 0 
z
" transform="scale(0.015625)"/>
      </defs>
      <use xlink:href="#STIXGeneral-Regular-62"/>
      <use xlink:href="#STIXGeneral-Regular-6f" x="49.999985"/>
      <use xlink:href="#STIXGeneral-Regular-78" x="99.999969"/>
      <use xlink:href="#STIXGeneral-Regular-2d" x="149.999954"/>
      <use xlink:href="#STIXGeneral-Regular-63" x="183.299942"/>
      <use xlink:href="#STIXGeneral-Regular-6c" x="227.699936"/>
      <use xlink:href="#STIXGeneral-Regular-6f" x="255.499924"/>
      <use xlink:href="#STIXGeneral-Regular-73" x="305.499908"/>
      <use xlink:href="#STIXGeneral-Regular-65" x="344.399902"/>
      <use xlink:href="#STIXGeneral-Regular-2d" x="388.799896"/>
      <use xlink:href="#STIXGeneral-Regular-76" x="422.099884"/>
      <use xlink:href="#STIXGeneral-Regular-32" x="472.099869"/>
     </g>
    </g>
    <g id="line2d_32">
     <path d="M 77.4 68.784812 
L 84.4 68.784812 
L 91.4 68.784812 
" style="fill: none; stroke: #2ca02c; stroke-width: 1.5; stroke-linecap: square"/>
    </g>
    <g id="text_19">
     <!-- hand-insert-v2 -->
     <g transform="translate(95.6 72.634812)scale(0.14 -0.14)">
      <defs>
       <path id="STIXGeneral-Regular-68" d="M 3117 0 
L 1760 0 
L 1760 96 
Q 2042 128 2118 224 
Q 2195 320 2195 653 
L 2195 1920 
Q 2195 2598 1722 2598 
Q 1530 2598 1370 2508 
Q 1210 2419 1005 2195 
L 1005 653 
Q 1005 320 1081 224 
Q 1158 128 1440 96 
L 1440 0 
L 58 0 
L 58 96 
Q 333 134 400 224 
Q 467 314 467 653 
L 467 3667 
Q 467 3872 406 3933 
Q 346 3994 141 3994 
Q 83 3994 64 3987 
L 64 4090 
L 237 4141 
Q 730 4288 973 4371 
L 1005 4352 
L 1005 2406 
Q 1229 2694 1446 2819 
Q 1664 2944 1946 2944 
Q 2733 2944 2733 1926 
L 2733 653 
Q 2733 320 2793 233 
Q 2854 147 3117 96 
L 3117 0 
z
" transform="scale(0.015625)"/>
       <path id="STIXGeneral-Regular-64" d="M 3142 269 
L 2202 -64 
L 2176 -45 
L 2176 365 
Q 1869 -64 1357 -64 
Q 826 -64 499 317 
Q 173 698 173 1312 
Q 173 1990 563 2467 
Q 954 2944 1504 2944 
Q 1850 2944 2176 2669 
L 2176 3667 
Q 2176 3866 2118 3930 
Q 2061 3994 1882 3994 
Q 1792 3994 1741 3987 
L 1741 4090 
Q 2323 4243 2682 4371 
L 2714 4358 
L 2714 730 
Q 2714 506 2768 435 
Q 2822 365 2995 365 
Q 3034 365 3142 371 
L 3142 269 
z
M 2176 653 
L 2176 2125 
Q 2176 2381 1981 2573 
Q 1786 2765 1523 2765 
Q 1158 2765 940 2438 
Q 723 2112 723 1568 
Q 723 979 963 624 
Q 1203 269 1606 269 
Q 1907 269 2080 474 
Q 2176 582 2176 653 
z
" transform="scale(0.015625)"/>
      </defs>
      <use xlink:href="#STIXGeneral-Regular-68"/>
      <use xlink:href="#STIXGeneral-Regular-61" x="49.999985"/>
      <use xlink:href="#STIXGeneral-Regular-6e" x="94.399979"/>
      <use xlink:href="#STIXGeneral-Regular-64" x="144.399963"/>
      <use xlink:href="#STIXGeneral-Regular-2d" x="194.399948"/>
      <use xlink:href="#STIXGeneral-Regular-69" x="227.699936"/>
      <use xlink:href="#STIXGeneral-Regular-6e" x="255.499924"/>
      <use xlink:href="#STIXGeneral-Regular-73" x="305.499908"/>
      <use xlink:href="#STIXGeneral-Regular-65" x="344.399902"/>
      <use xlink:href="#STIXGeneral-Regular-72" x="388.799896"/>
      <use xlink:href="#STIXGeneral-Regular-74" x="422.099884"/>
      <use xlink:href="#STIXGeneral-Regular-2d" x="449.899872"/>
      <use xlink:href="#STIXGeneral-Regular-76" x="483.19986"/>
      <use xlink:href="#STIXGeneral-Regular-32" x="533.199844"/>
     </g>
    </g>
    <g id="line2d_33">
     <path d="M 77.4 82.784812 
L 84.4 82.784812 
L 91.4 82.784812 
" style="fill: none; stroke: #d62728; stroke-width: 1.5; stroke-linecap: square"/>
    </g>
    <g id="text_20">
     <!-- door-lock-v2 -->
     <g transform="translate(95.6 86.634812)scale(0.14 -0.14)">
      <use xlink:href="#STIXGeneral-Regular-64"/>
      <use xlink:href="#STIXGeneral-Regular-6f" x="49.999985"/>
      <use xlink:href="#STIXGeneral-Regular-6f" x="99.999969"/>
      <use xlink:href="#STIXGeneral-Regular-72" x="149.999954"/>
      <use xlink:href="#STIXGeneral-Regular-2d" x="183.299942"/>
      <use xlink:href="#STIXGeneral-Regular-6c" x="216.59993"/>
      <use xlink:href="#STIXGeneral-Regular-6f" x="244.399918"/>
      <use xlink:href="#STIXGeneral-Regular-63" x="294.399902"/>
      <use xlink:href="#STIXGeneral-Regular-6b" x="338.799896"/>
      <use xlink:href="#STIXGeneral-Regular-2d" x="388.799881"/>
      <use xlink:href="#STIXGeneral-Regular-76" x="422.099869"/>
      <use xlink:href="#STIXGeneral-Regular-32" x="472.099854"/>
     </g>
    </g>
    <g id="line2d_34">
     <path d="M 77.4 96.784812 
L 84.4 96.784812 
L 91.4 96.784812 
" style="fill: none; stroke: #9467bd; stroke-width: 1.5; stroke-linecap: square"/>
    </g>
    <g id="text_21">
     <!-- door-unlock-v2 -->
     <g transform="translate(95.6 100.634812)scale(0.14 -0.14)">
      <use xlink:href="#STIXGeneral-Regular-64"/>
      <use xlink:href="#STIXGeneral-Regular-6f" x="49.999985"/>
      <use xlink:href="#STIXGeneral-Regular-6f" x="99.999969"/>
      <use xlink:href="#STIXGeneral-Regular-72" x="149.999954"/>
      <use xlink:href="#STIXGeneral-Regular-2d" x="183.299942"/>
      <use xlink:href="#STIXGeneral-Regular-75" x="216.59993"/>
      <use xlink:href="#STIXGeneral-Regular-6e" x="266.599915"/>
      <use xlink:href="#STIXGeneral-Regular-6c" x="316.599899"/>
      <use xlink:href="#STIXGeneral-Regular-6f" x="344.399887"/>
      <use xlink:href="#STIXGeneral-Regular-63" x="394.399872"/>
      <use xlink:href="#STIXGeneral-Regular-6b" x="438.799866"/>
      <use xlink:href="#STIXGeneral-Regular-2d" x="488.79985"/>
      <use xlink:href="#STIXGeneral-Regular-76" x="522.099838"/>
      <use xlink:href="#STIXGeneral-Regular-32" x="572.099823"/>
     </g>
    </g>
   </g>
  </g>
 </g>
 <defs>
  <clipPath id="p2b264a512f">
   <rect x="70.4" y="28.060125" width="446.4" height="277.2"/>
  </clipPath>
 </defs>
</svg>
