<?xml version="1.0" encoding="utf-8" standalone="no"?>
<!DOCTYPE svg PUBLIC "-//W3C//DTD SVG 1.1//EN"
  "http://www.w3.org/Graphics/SVG/1.1/DTD/svg11.dtd">
<svg xmlns:xlink="http://www.w3.org/1999/xlink" width="524pt" height="355.877pt" viewBox="0 0 524 355.877" xmlns="http://www.w3.org/2000/svg" version="1.1">
 <metadata>
  <rdf:RDF xmlns:dc="http://purl.org/dc/elements/1.1/" xmlns:cc="http://creativecommons.org/ns#" xmlns:rdf="http://www.w3.org/1999/02/22-rdf-syntax-ns#">
   <cc:Work>
    <dc:type rdf:resource="http://purl.org/dc/dcmitype/StillImage"/>
    <dc:date>2021-12-11T15:58:52.551237</dc:date>
    <dc:format>image/svg+xml</dc:format>
    <dc:creator>
     <cc:Agent>
      <dc:title>Matplotlib v3.5.0, https://matplotlib.org/</dc:title>
     </cc:Agent>
    </dc:creator>
   </cc:Work>
  </rdf:RDF>
 </metadata>
 <defs>
  <style type="text/css">*{stroke-linejoin: round; stroke-linecap: butt}</style>
 </defs>
 <g id="figure_1">
  <g id="patch_1">
   <path d="M 0 355.877 
L 524 355.877 
L 524 0 
L 0 0 
z
" style="fill: #ffffff"/>
  </g>
  <g id="axes_1">
   <g id="patch_2">
    <path d="M 70.4 305.260125 
L 516.8 305.260125 
L 516.8 28.060125 
L 70.4 28.060125 
z
" style="fill: #ffffff"/>
   </g>
   <g id="matplotlib.axis_1">
    <g id="xtick_1">
     <g id="line2d_1">
      <path d="M 88.941693 305.260125 
L 88.941693 28.060125 
" clip-path="url(#pa3a2610c45)" style="fill: none; stroke: #b0b0b0; stroke-width: 0.8; stroke-linecap: square"/>
     </g>
     <g id="line2d_2">
      <defs>
       <path id="maafab37e11" d="M 0 0 
L 0 3.5 
" style="stroke: #000000; stroke-width: 0.8"/>
      </defs>
      <g>
       <use xlink:href="#maafab37e11" x="88.941693" y="305.260125" style="stroke: #000000; stroke-width: 0.8"/>
      </g>
     </g>
     <g id="text_1">
      <!-- 0 -->
      <g transform="translate(84.441693 324.553562)scale(0.18 -0.18)">
       <defs>
        <path id="STIXGeneral-Regular-30" d="M 3046 2112 
Q 3046 1683 2963 1302 
Q 2880 922 2717 602 
Q 2554 282 2266 96 
Q 1978 -90 1600 -90 
Q 1210 -90 915 108 
Q 621 307 461 640 
Q 301 973 227 1350 
Q 154 1728 154 2150 
Q 154 2746 301 3222 
Q 448 3699 790 4012 
Q 1133 4326 1626 4326 
Q 2253 4326 2649 3712 
Q 3046 3098 3046 2112 
z
M 2432 2080 
Q 2432 3091 2217 3625 
Q 2003 4160 1587 4160 
Q 1190 4160 979 3622 
Q 768 3085 768 2106 
Q 768 1120 979 598 
Q 1190 77 1600 77 
Q 2003 77 2217 598 
Q 2432 1120 2432 2080 
z
" transform="scale(0.015625)"/>
       </defs>
       <use xlink:href="#STIXGeneral-Regular-30"/>
      </g>
     </g>
    </g>
    <g id="xtick_2">
     <g id="line2d_3">
      <path d="M 175.322745 305.260125 
L 175.322745 28.060125 
" clip-path="url(#pa3a2610c45)" style="fill: none; stroke: #b0b0b0; stroke-width: 0.8; stroke-linecap: square"/>
     </g>
     <g id="line2d_4">
      <g>
       <use xlink:href="#maafab37e11" x="175.322745" y="305.260125" style="stroke: #000000; stroke-width: 0.8"/>
      </g>
     </g>
     <g id="text_2">
      <!-- 1 -->
      <g transform="translate(170.822745 324.553562)scale(0.18 -0.18)">
       <defs>
        <path id="STIXGeneral-Regular-31" d="M 2522 0 
L 755 0 
L 755 96 
Q 1107 115 1235 227 
Q 1363 339 1363 608 
L 1363 3482 
Q 1363 3795 1171 3795 
Q 1082 3795 883 3718 
L 710 3654 
L 710 3744 
L 1856 4326 
L 1914 4307 
L 1914 486 
Q 1914 275 2042 185 
Q 2170 96 2522 96 
L 2522 0 
z
" transform="scale(0.015625)"/>
       </defs>
       <use xlink:href="#STIXGeneral-Regular-31"/>
      </g>
     </g>
    </g>
    <g id="xtick_3">
     <g id="line2d_5">
      <path d="M 261.703797 305.260125 
L 261.703797 28.060125 
" clip-path="url(#pa3a2610c45)" style="fill: none; stroke: #b0b0b0; stroke-width: 0.8; stroke-linecap: square"/>
     </g>
     <g id="line2d_6">
      <g>
       <use xlink:href="#maafab37e11" x="261.703797" y="305.260125" style="stroke: #000000; stroke-width: 0.8"/>
      </g>
     </g>
     <g id="text_3">
      <!-- 2 -->
      <g transform="translate(257.203797 324.553562)scale(0.18 -0.18)">
       <defs>
        <path id="STIXGeneral-Regular-32" d="M 3034 877 
L 2688 0 
L 186 0 
L 186 77 
L 1325 1286 
Q 1773 1754 1965 2144 
Q 2157 2534 2157 2950 
Q 2157 3379 1920 3616 
Q 1683 3853 1267 3853 
Q 922 3853 720 3673 
Q 518 3494 326 3021 
L 192 3053 
Q 301 3648 630 3987 
Q 960 4326 1523 4326 
Q 2054 4326 2380 4006 
Q 2707 3686 2707 3200 
Q 2707 2477 1888 1613 
L 832 486 
L 2330 486 
Q 2541 486 2665 569 
Q 2790 653 2944 915 
L 3034 877 
z
" transform="scale(0.015625)"/>
       </defs>
       <use xlink:href="#STIXGeneral-Regular-32"/>
      </g>
     </g>
    </g>
    <g id="xtick_4">
     <g id="line2d_7">
      <path d="M 348.084848 305.260125 
L 348.084848 28.060125 
" clip-path="url(#pa3a2610c45)" style="fill: none; stroke: #b0b0b0; stroke-width: 0.8; stroke-linecap: square"/>
     </g>
     <g id="line2d_8">
      <g>
       <use xlink:href="#maafab37e11" x="348.084848" y="305.260125" style="stroke: #000000; stroke-width: 0.8"/>
      </g>
     </g>
     <g id="text_4">
      <!-- 3 -->
      <g transform="translate(343.584848 324.553562)scale(0.18 -0.18)">
       <defs>
        <path id="STIXGeneral-Regular-33" d="M 390 3264 
L 288 3290 
Q 435 3770 748 4048 
Q 1062 4326 1542 4326 
Q 1990 4326 2265 4083 
Q 2541 3840 2541 3450 
Q 2541 2925 1946 2566 
Q 2298 2413 2477 2227 
Q 2758 1914 2758 1402 
Q 2758 890 2464 506 
Q 2246 211 1840 60 
Q 1434 -90 979 -90 
Q 262 -90 262 275 
Q 262 378 339 442 
Q 416 506 525 506 
Q 685 506 915 339 
Q 1197 141 1466 141 
Q 1818 141 2058 425 
Q 2298 710 2298 1120 
Q 2298 1856 1632 2048 
Q 1434 2112 979 2112 
L 979 2202 
Q 1338 2323 1517 2432 
Q 2035 2726 2035 3290 
Q 2035 3610 1852 3776 
Q 1670 3942 1344 3942 
Q 768 3942 390 3264 
z
" transform="scale(0.015625)"/>
       </defs>
       <use xlink:href="#STIXGeneral-Regular-33"/>
      </g>
     </g>
    </g>
    <g id="xtick_5">
     <g id="line2d_9">
      <path d="M 434.4659 305.260125 
L 434.4659 28.060125 
" clip-path="url(#pa3a2610c45)" style="fill: none; stroke: #b0b0b0; stroke-width: 0.8; stroke-linecap: square"/>
     </g>
     <g id="line2d_10">
      <g>
       <use xlink:href="#maafab37e11" x="434.4659" y="305.260125" style="stroke: #000000; stroke-width: 0.8"/>
      </g>
     </g>
     <g id="text_5">
      <!-- 4 -->
      <g transform="translate(429.9659 324.553562)scale(0.18 -0.18)">
       <defs>
        <path id="STIXGeneral-Regular-34" d="M 3027 1069 
L 2368 1069 
L 2368 0 
L 1869 0 
L 1869 1069 
L 77 1069 
L 77 1478 
L 2086 4326 
L 2368 4326 
L 2368 1478 
L 3027 1478 
L 3027 1069 
z
M 1869 1478 
L 1869 3674 
L 333 1478 
L 1869 1478 
z
" transform="scale(0.015625)"/>
       </defs>
       <use xlink:href="#STIXGeneral-Regular-34"/>
      </g>
     </g>
    </g>
    <g id="text_6">
     <!-- Training Environment Steps -->
     <g transform="translate(191.604688 344.753562)scale(0.18 -0.18)">
      <defs>
       <path id="STIXGeneral-Regular-54" d="M 3795 3149 
L 3642 3149 
Q 3539 3674 3353 3821 
Q 3168 3968 2656 3968 
L 2278 3968 
L 2278 710 
Q 2278 346 2387 243 
Q 2496 141 2893 122 
L 2893 0 
L 1024 0 
L 1024 122 
Q 1427 147 1526 256 
Q 1626 365 1626 787 
L 1626 3968 
L 1242 3968 
Q 723 3968 540 3817 
Q 358 3667 262 3149 
L 109 3149 
L 154 4237 
L 3750 4237 
L 3795 3149 
z
" transform="scale(0.015625)"/>
       <path id="STIXGeneral-Regular-72" d="M 1024 2931 
L 1024 2342 
Q 1267 2688 1430 2816 
Q 1594 2944 1792 2944 
Q 1958 2944 2051 2854 
Q 2144 2765 2144 2605 
Q 2144 2470 2077 2393 
Q 2010 2317 1894 2317 
Q 1773 2317 1638 2445 
Q 1536 2541 1472 2541 
Q 1338 2541 1181 2355 
Q 1024 2170 1024 2016 
L 1024 576 
Q 1024 301 1133 205 
Q 1242 109 1568 96 
L 1568 0 
L 32 0 
L 32 96 
Q 339 154 412 224 
Q 486 294 486 538 
L 486 2138 
Q 486 2349 438 2435 
Q 390 2522 269 2522 
Q 166 2522 45 2496 
L 45 2598 
Q 448 2726 992 2944 
L 1024 2931 
z
" transform="scale(0.015625)"/>
       <path id="STIXGeneral-Regular-61" d="M 2829 422 
L 2829 243 
Q 2586 -64 2253 -64 
Q 1888 -64 1843 403 
L 1837 403 
Q 1427 -64 909 -64 
Q 608 -64 422 112 
Q 237 288 237 602 
Q 237 1050 685 1350 
Q 992 1555 1837 1869 
L 1837 2214 
Q 1837 2502 1699 2646 
Q 1562 2790 1338 2790 
Q 1146 2790 1018 2697 
Q 890 2605 890 2477 
Q 890 2419 909 2348 
Q 928 2278 928 2208 
Q 928 2112 841 2029 
Q 755 1946 634 1946 
Q 525 1946 441 2029 
Q 358 2112 358 2240 
Q 358 2547 685 2752 
Q 986 2944 1421 2944 
Q 1939 2944 2176 2656 
Q 2291 2522 2323 2384 
Q 2355 2246 2355 1946 
L 2355 723 
Q 2355 301 2554 301 
Q 2682 301 2829 422 
z
M 1837 813 
L 1837 1715 
Q 1248 1510 1018 1293 
Q 800 1094 800 800 
Q 800 557 921 432 
Q 1043 307 1242 307 
Q 1453 307 1613 410 
Q 1747 506 1792 589 
Q 1837 672 1837 813 
z
" transform="scale(0.015625)"/>
       <path id="STIXGeneral-Regular-69" d="M 1152 4045 
Q 1152 3904 1056 3811 
Q 960 3718 819 3718 
Q 685 3718 592 3811 
Q 499 3904 499 4045 
Q 499 4179 595 4275 
Q 691 4371 826 4371 
Q 966 4371 1059 4275 
Q 1152 4179 1152 4045 
z
M 1619 0 
L 102 0 
L 102 96 
Q 435 115 521 211 
Q 608 307 608 666 
L 608 2118 
Q 608 2342 563 2432 
Q 518 2522 397 2522 
Q 243 2522 128 2490 
L 128 2592 
L 1120 2944 
L 1146 2918 
L 1146 672 
Q 1146 314 1226 218 
Q 1306 122 1619 96 
L 1619 0 
z
" transform="scale(0.015625)"/>
       <path id="STIXGeneral-Regular-6e" d="M 3104 0 
L 1773 0 
L 1779 96 
Q 2016 115 2096 233 
Q 2176 352 2176 672 
L 2176 1946 
Q 2176 2592 1709 2592 
Q 1549 2592 1408 2515 
Q 1267 2438 1050 2227 
L 1050 461 
Q 1050 269 1136 192 
Q 1222 115 1466 96 
L 1466 0 
L 115 0 
L 115 96 
Q 358 115 435 214 
Q 512 314 512 602 
L 512 2157 
Q 512 2394 467 2483 
Q 422 2573 288 2573 
Q 160 2573 102 2547 
L 102 2656 
Q 550 2784 979 2944 
L 1030 2925 
L 1030 2426 
L 1037 2426 
Q 1491 2944 1958 2944 
Q 2323 2944 2518 2688 
Q 2714 2432 2714 1958 
L 2714 544 
Q 2714 288 2790 205 
Q 2867 122 3104 96 
L 3104 0 
z
" transform="scale(0.015625)"/>
       <path id="STIXGeneral-Regular-67" d="M 3008 2483 
L 2477 2483 
Q 2598 2208 2598 1946 
Q 2598 1453 2265 1203 
Q 1933 954 1600 954 
Q 1530 954 1357 973 
L 1235 986 
Q 1107 947 979 812 
Q 851 678 851 582 
Q 851 435 1350 410 
L 2176 371 
Q 2528 358 2739 172 
Q 2950 -13 2950 -314 
Q 2950 -685 2566 -986 
Q 2035 -1395 1286 -1395 
Q 826 -1395 502 -1212 
Q 179 -1030 179 -774 
Q 179 -595 320 -419 
Q 461 -243 806 6 
Q 602 102 534 172 
Q 467 243 467 346 
Q 467 531 762 787 
Q 909 915 1037 1043 
Q 717 1203 579 1401 
Q 442 1600 442 1901 
Q 442 2336 752 2640 
Q 1062 2944 1510 2944 
Q 1766 2944 2022 2848 
L 2163 2797 
Q 2349 2733 2515 2733 
L 3008 2733 
L 3008 2483 
z
M 973 2163 
L 973 2144 
Q 973 1683 1155 1398 
Q 1338 1114 1632 1114 
Q 1850 1114 1978 1270 
Q 2106 1427 2106 1690 
Q 2106 2112 1914 2464 
Q 1754 2765 1446 2765 
Q 1222 2765 1097 2605 
Q 973 2445 973 2163 
z
M 2771 -410 
Q 2771 -230 2595 -163 
Q 2419 -96 1978 -96 
Q 1344 -96 941 -13 
Q 749 -243 688 -348 
Q 627 -454 627 -563 
Q 627 -774 880 -902 
Q 1133 -1030 1555 -1030 
Q 2099 -1030 2435 -860 
Q 2771 -691 2771 -410 
z
" transform="scale(0.015625)"/>
       <path id="STIXGeneral-Regular-20" transform="scale(0.015625)"/>
       <path id="STIXGeneral-Regular-45" d="M 3821 1082 
L 3526 0 
L 77 0 
L 77 122 
Q 442 147 538 252 
Q 634 358 634 730 
L 634 3520 
Q 634 3878 534 3987 
Q 435 4096 77 4115 
L 77 4237 
L 3469 4237 
L 3494 3322 
L 3334 3322 
Q 3264 3750 3085 3872 
Q 2906 3994 2349 3994 
L 1510 3994 
Q 1370 3994 1328 3952 
Q 1286 3910 1286 3763 
L 1286 2355 
L 2253 2355 
Q 2656 2355 2787 2470 
Q 2918 2586 2976 2970 
L 3123 2970 
L 3123 1472 
L 2976 1472 
Q 2918 1875 2790 1984 
Q 2662 2093 2253 2093 
L 1286 2093 
L 1286 538 
Q 1286 346 1420 291 
Q 1555 237 1933 237 
L 2163 237 
Q 2848 237 3136 403 
Q 3424 570 3642 1082 
L 3821 1082 
z
" transform="scale(0.015625)"/>
       <path id="STIXGeneral-Regular-76" d="M 3053 2880 
L 3053 2784 
Q 2906 2771 2835 2688 
Q 2765 2605 2637 2285 
L 1818 230 
Q 1690 -90 1638 -90 
Q 1587 -90 1523 77 
Q 1510 96 1497 141 
Q 1485 186 1472 211 
L 704 2048 
Q 499 2534 403 2652 
Q 307 2771 122 2784 
L 122 2880 
L 1376 2880 
L 1376 2784 
Q 1210 2771 1146 2732 
Q 1082 2694 1082 2611 
Q 1082 2509 1139 2368 
L 1792 730 
L 2426 2387 
Q 2464 2483 2464 2579 
Q 2464 2758 2163 2784 
L 2163 2880 
L 3053 2880 
z
" transform="scale(0.015625)"/>
       <path id="STIXGeneral-Regular-6f" d="M 3008 1478 
Q 3008 806 2608 371 
Q 2208 -64 1568 -64 
Q 979 -64 582 368 
Q 186 800 186 1459 
Q 186 2125 582 2534 
Q 979 2944 1626 2944 
Q 2221 2944 2614 2537 
Q 3008 2131 3008 1478 
z
M 2432 1306 
Q 2432 2035 2112 2445 
Q 1856 2765 1504 2765 
Q 1171 2765 966 2493 
Q 762 2221 762 1747 
Q 762 928 1101 435 
Q 1318 115 1677 115 
Q 2029 115 2230 432 
Q 2432 749 2432 1306 
z
" transform="scale(0.015625)"/>
       <path id="STIXGeneral-Regular-6d" d="M 4960 0 
L 3565 0 
L 3565 96 
Q 3834 122 3907 208 
Q 3981 294 3981 576 
L 3981 1894 
Q 3981 2278 3869 2444 
Q 3757 2611 3488 2611 
Q 3264 2611 3107 2521 
Q 2950 2432 2803 2221 
L 2803 608 
Q 2803 301 2896 201 
Q 2989 102 3264 96 
L 3264 0 
L 1830 0 
L 1830 96 
Q 2112 115 2189 188 
Q 2266 262 2266 550 
L 2266 1901 
Q 2266 2611 1850 2611 
Q 1670 2611 1468 2531 
Q 1267 2451 1171 2336 
Q 1088 2240 1088 2227 
L 1088 448 
Q 1088 243 1177 176 
Q 1267 109 1523 96 
L 1523 0 
L 102 0 
L 102 96 
Q 371 102 460 195 
Q 550 288 550 563 
L 550 2150 
Q 550 2387 499 2480 
Q 448 2573 326 2573 
Q 230 2573 122 2547 
L 122 2656 
Q 557 2778 1011 2944 
L 1062 2925 
L 1062 2451 
L 1075 2451 
Q 1363 2752 1584 2848 
Q 1805 2944 2054 2944 
Q 2560 2944 2733 2406 
Q 3232 2944 3776 2944 
Q 4518 2944 4518 1792 
L 4518 493 
Q 4518 282 4582 202 
Q 4646 122 4794 109 
L 4960 96 
L 4960 0 
z
" transform="scale(0.015625)"/>
       <path id="STIXGeneral-Regular-65" d="M 2611 1050 
L 2714 1005 
Q 2330 -64 1376 -64 
Q 813 -64 486 329 
Q 160 723 160 1389 
Q 160 2074 525 2509 
Q 890 2944 1485 2944 
Q 2061 2944 2374 2502 
Q 2560 2246 2592 1773 
L 621 1773 
Q 646 1370 700 1158 
Q 755 947 915 730 
Q 1184 378 1626 378 
Q 1939 378 2153 531 
Q 2368 685 2611 1050 
z
M 634 1978 
L 1939 1978 
Q 1882 2381 1750 2547 
Q 1619 2714 1312 2714 
Q 1043 2714 864 2525 
Q 685 2336 634 1978 
z
" transform="scale(0.015625)"/>
       <path id="STIXGeneral-Regular-74" d="M 1702 493 
L 1786 422 
Q 1478 -64 1011 -64 
Q 448 -64 448 749 
L 448 2675 
L 109 2675 
Q 83 2694 83 2720 
Q 83 2771 192 2842 
Q 435 2982 813 3526 
Q 826 3546 874 3606 
Q 922 3667 941 3706 
Q 986 3706 986 3622 
L 986 2880 
L 1632 2880 
L 1632 2675 
L 986 2675 
L 986 845 
Q 986 538 1062 403 
Q 1139 269 1318 269 
Q 1510 269 1702 493 
z
" transform="scale(0.015625)"/>
       <path id="STIXGeneral-Regular-53" d="M 3002 2963 
L 2842 2963 
Q 2733 3360 2579 3565 
Q 2189 4064 1651 4064 
Q 1357 4064 1181 3894 
Q 1005 3725 1005 3456 
Q 1005 3328 1069 3206 
Q 1133 3085 1206 2998 
Q 1280 2912 1465 2784 
Q 1651 2656 1766 2589 
Q 1882 2522 2150 2362 
Q 2669 2061 2905 1763 
Q 3142 1466 3142 1107 
Q 3142 576 2771 243 
Q 2400 -90 1837 -90 
Q 1421 -90 1082 58 
Q 915 128 781 128 
Q 704 128 653 70 
Q 602 13 602 -83 
L 461 -83 
L 275 1274 
L 416 1274 
Q 845 141 1734 141 
Q 2074 141 2285 342 
Q 2496 544 2496 858 
Q 2496 1158 2310 1363 
Q 2003 1696 1235 2106 
Q 454 2522 454 3206 
Q 454 3718 768 4022 
Q 1082 4326 1568 4326 
Q 1907 4326 2240 4186 
Q 2413 4109 2522 4109 
Q 2688 4109 2726 4326 
L 2861 4326 
L 3002 2963 
z
" transform="scale(0.015625)"/>
       <path id="STIXGeneral-Regular-70" d="M 1018 2931 
L 1018 2438 
Q 1421 2944 1939 2944 
Q 2406 2944 2707 2560 
Q 3008 2176 3008 1581 
Q 3008 883 2621 409 
Q 2234 -64 1664 -64 
Q 1466 -64 1328 -6 
Q 1190 51 1018 211 
L 1018 -794 
Q 1018 -1094 1120 -1180 
Q 1222 -1267 1581 -1274 
L 1581 -1389 
L 32 -1389 
L 32 -1280 
Q 314 -1254 397 -1171 
Q 480 -1088 480 -838 
L 480 2157 
Q 480 2381 429 2451 
Q 378 2522 218 2522 
Q 115 2522 58 2515 
L 58 2618 
Q 506 2752 979 2944 
L 1018 2931 
z
M 1018 2138 
L 1018 563 
Q 1018 422 1238 281 
Q 1459 141 1683 141 
Q 2029 141 2243 467 
Q 2458 794 2458 1325 
Q 2458 1888 2243 2224 
Q 2029 2560 1670 2560 
Q 1446 2560 1232 2419 
Q 1018 2278 1018 2138 
z
" transform="scale(0.015625)"/>
       <path id="STIXGeneral-Regular-73" d="M 998 1926 
L 1664 1523 
Q 1984 1331 2105 1164 
Q 2227 998 2227 736 
Q 2227 416 1961 176 
Q 1696 -64 1331 -64 
Q 1030 -64 864 -6 
Q 691 51 570 51 
Q 461 51 416 -26 
L 333 -26 
L 333 979 
L 435 979 
Q 538 512 730 294 
Q 922 77 1248 77 
Q 1485 77 1632 211 
Q 1779 346 1779 550 
Q 1779 845 1440 1030 
L 1094 1222 
Q 326 1651 326 2150 
Q 326 2522 566 2730 
Q 806 2938 1210 2938 
Q 1491 2938 1638 2867 
Q 1754 2816 1818 2816 
Q 1862 2816 1920 2880 
L 1990 2880 
L 2022 2010 
L 1926 2010 
Q 1818 2445 1654 2621 
Q 1491 2797 1203 2797 
Q 986 2797 854 2688 
Q 723 2579 723 2362 
Q 723 2253 796 2128 
Q 870 2003 998 1926 
z
" transform="scale(0.015625)"/>
      </defs>
      <use xlink:href="#STIXGeneral-Regular-54"/>
      <use xlink:href="#STIXGeneral-Regular-72" x="61.099991"/>
      <use xlink:href="#STIXGeneral-Regular-61" x="94.399979"/>
      <use xlink:href="#STIXGeneral-Regular-69" x="138.799973"/>
      <use xlink:href="#STIXGeneral-Regular-6e" x="166.59996"/>
      <use xlink:href="#STIXGeneral-Regular-69" x="216.599945"/>
      <use xlink:href="#STIXGeneral-Regular-6e" x="244.399933"/>
      <use xlink:href="#STIXGeneral-Regular-67" x="294.399918"/>
      <use xlink:href="#STIXGeneral-Regular-20" x="344.399902"/>
      <use xlink:href="#STIXGeneral-Regular-45" x="369.399887"/>
      <use xlink:href="#STIXGeneral-Regular-6e" x="430.499878"/>
      <use xlink:href="#STIXGeneral-Regular-76" x="480.499863"/>
      <use xlink:href="#STIXGeneral-Regular-69" x="530.499847"/>
      <use xlink:href="#STIXGeneral-Regular-72" x="558.299835"/>
      <use xlink:href="#STIXGeneral-Regular-6f" x="591.599823"/>
      <use xlink:href="#STIXGeneral-Regular-6e" x="641.599808"/>
      <use xlink:href="#STIXGeneral-Regular-6d" x="691.599792"/>
      <use xlink:href="#STIXGeneral-Regular-65" x="769.39978"/>
      <use xlink:href="#STIXGeneral-Regular-6e" x="813.799774"/>
      <use xlink:href="#STIXGeneral-Regular-74" x="863.799759"/>
      <use xlink:href="#STIXGeneral-Regular-20" x="891.599747"/>
      <use xlink:href="#STIXGeneral-Regular-53" x="916.599731"/>
      <use xlink:href="#STIXGeneral-Regular-74" x="972.199722"/>
      <use xlink:href="#STIXGeneral-Regular-65" x="999.99971"/>
      <use xlink:href="#STIXGeneral-Regular-70" x="1044.399704"/>
      <use xlink:href="#STIXGeneral-Regular-73" x="1094.399689"/>
     </g>
    </g>
    <g id="text_7">
     <!-- 1e8 -->
     <g transform="translate(490.806875 343.753562)scale(0.18 -0.18)">
      <defs>
       <path id="STIXGeneral-Regular-38" d="M 2848 992 
Q 2848 499 2505 204 
Q 2163 -90 1587 -90 
Q 1050 -90 704 204 
Q 358 499 358 954 
Q 358 1293 524 1533 
Q 691 1773 1190 2125 
Q 710 2522 553 2765 
Q 397 3008 397 3328 
Q 397 3782 745 4054 
Q 1094 4326 1638 4326 
Q 2106 4326 2410 4060 
Q 2714 3795 2714 3411 
Q 2714 3059 2531 2848 
Q 2349 2637 1856 2374 
Q 2432 1990 2640 1689 
Q 2848 1389 2848 992 
z
M 2272 3411 
Q 2272 3744 2086 3945 
Q 1901 4147 1574 4147 
Q 1248 4147 1059 3977 
Q 870 3808 870 3513 
Q 870 3219 1059 2979 
Q 1248 2739 1670 2490 
Q 1997 2682 2134 2896 
Q 2272 3110 2272 3411 
z
M 1734 1741 
L 1357 1997 
Q 1075 1766 960 1545 
Q 845 1325 845 1011 
Q 845 576 1065 333 
Q 1286 90 1658 90 
Q 1971 90 2166 285 
Q 2362 480 2362 794 
Q 2362 1082 2214 1299 
Q 2067 1517 1734 1741 
z
" transform="scale(0.015625)"/>
      </defs>
      <use xlink:href="#STIXGeneral-Regular-31"/>
      <use xlink:href="#STIXGeneral-Regular-65" x="49.999985"/>
      <use xlink:href="#STIXGeneral-Regular-38" x="94.399979"/>
     </g>
    </g>
   </g>
   <g id="matplotlib.axis_2">
    <g id="ytick_1">
     <g id="line2d_11">
      <path d="M 70.4 295.593216 
L 516.8 295.593216 
" clip-path="url(#pa3a2610c45)" style="fill: none; stroke: #b0b0b0; stroke-width: 0.8; stroke-linecap: square"/>
     </g>
     <g id="line2d_12">
      <defs>
       <path id="ma71849c26c" d="M 0 0 
L -3.5 0 
" style="stroke: #000000; stroke-width: 0.8"/>
      </defs>
      <g>
       <use xlink:href="#ma71849c26c" x="70.4" y="295.593216" style="stroke: #000000; stroke-width: 0.8"/>
      </g>
     </g>
     <g id="text_8">
      <!-- 0 -->
      <g transform="translate(54.4 301.739935)scale(0.18 -0.18)">
       <use xlink:href="#STIXGeneral-Regular-30"/>
      </g>
     </g>
    </g>
    <g id="ytick_2">
     <g id="line2d_13">
      <path d="M 70.4 249.9497 
L 516.8 249.9497 
" clip-path="url(#pa3a2610c45)" style="fill: none; stroke: #b0b0b0; stroke-width: 0.8; stroke-linecap: square"/>
     </g>
     <g id="line2d_14">
      <g>
       <use xlink:href="#ma71849c26c" x="70.4" y="249.9497" style="stroke: #000000; stroke-width: 0.8"/>
      </g>
     </g>
     <g id="text_9">
      <!-- 250 -->
      <g transform="translate(36.4 256.096419)scale(0.18 -0.18)">
       <defs>
        <path id="STIXGeneral-Regular-35" d="M 2803 4358 
L 2573 3814 
Q 2534 3731 2400 3731 
L 1158 3731 
L 902 3187 
Q 1606 3053 1920 2896 
Q 2234 2739 2502 2368 
Q 2726 2061 2726 1555 
Q 2726 1094 2576 780 
Q 2426 467 2099 224 
Q 1664 -90 1011 -90 
Q 646 -90 422 19 
Q 198 128 198 307 
Q 198 550 486 550 
Q 717 550 960 352 
Q 1210 147 1414 147 
Q 1747 147 2012 480 
Q 2278 813 2278 1229 
Q 2278 1843 1850 2189 
Q 1293 2637 486 2637 
Q 410 2637 410 2688 
L 416 2720 
L 1114 4237 
L 2438 4237 
Q 2547 4237 2608 4269 
Q 2669 4301 2746 4403 
L 2803 4358 
z
" transform="scale(0.015625)"/>
       </defs>
       <use xlink:href="#STIXGeneral-Regular-32"/>
       <use xlink:href="#STIXGeneral-Regular-35" x="49.999985"/>
       <use xlink:href="#STIXGeneral-Regular-30" x="99.999969"/>
      </g>
     </g>
    </g>
    <g id="ytick_3">
     <g id="line2d_15">
      <path d="M 70.4 204.306185 
L 516.8 204.306185 
" clip-path="url(#pa3a2610c45)" style="fill: none; stroke: #b0b0b0; stroke-width: 0.8; stroke-linecap: square"/>
     </g>
     <g id="line2d_16">
      <g>
       <use xlink:href="#ma71849c26c" x="70.4" y="204.306185" style="stroke: #000000; stroke-width: 0.8"/>
      </g>
     </g>
     <g id="text_10">
      <!-- 500 -->
      <g transform="translate(36.4 210.452904)scale(0.18 -0.18)">
       <use xlink:href="#STIXGeneral-Regular-35"/>
       <use xlink:href="#STIXGeneral-Regular-30" x="49.999985"/>
       <use xlink:href="#STIXGeneral-Regular-30" x="99.999969"/>
      </g>
     </g>
    </g>
    <g id="ytick_4">
     <g id="line2d_17">
      <path d="M 70.4 158.662669 
L 516.8 158.662669 
" clip-path="url(#pa3a2610c45)" style="fill: none; stroke: #b0b0b0; stroke-width: 0.8; stroke-linecap: square"/>
     </g>
     <g id="line2d_18">
      <g>
       <use xlink:href="#ma71849c26c" x="70.4" y="158.662669" style="stroke: #000000; stroke-width: 0.8"/>
      </g>
     </g>
     <g id="text_11">
      <!-- 750 -->
      <g transform="translate(36.4 164.809388)scale(0.18 -0.18)">
       <defs>
        <path id="STIXGeneral-Regular-37" d="M 2874 4134 
L 1517 -51 
L 1101 -51 
L 2368 3763 
L 992 3763 
Q 717 3763 582 3667 
Q 448 3571 243 3238 
L 128 3296 
L 512 4237 
L 2874 4237 
L 2874 4134 
z
" transform="scale(0.015625)"/>
       </defs>
       <use xlink:href="#STIXGeneral-Regular-37"/>
       <use xlink:href="#STIXGeneral-Regular-35" x="49.999985"/>
       <use xlink:href="#STIXGeneral-Regular-30" x="99.999969"/>
      </g>
     </g>
    </g>
    <g id="ytick_5">
     <g id="line2d_19">
      <path d="M 70.4 113.019154 
L 516.8 113.019154 
" clip-path="url(#pa3a2610c45)" style="fill: none; stroke: #b0b0b0; stroke-width: 0.8; stroke-linecap: square"/>
     </g>
     <g id="line2d_20">
      <g>
       <use xlink:href="#ma71849c26c" x="70.4" y="113.019154" style="stroke: #000000; stroke-width: 0.8"/>
      </g>
     </g>
     <g id="text_12">
      <!-- 1000 -->
      <g transform="translate(27.4 119.165872)scale(0.18 -0.18)">
       <use xlink:href="#STIXGeneral-Regular-31"/>
       <use xlink:href="#STIXGeneral-Regular-30" x="49.999985"/>
       <use xlink:href="#STIXGeneral-Regular-30" x="99.999969"/>
       <use xlink:href="#STIXGeneral-Regular-30" x="149.999954"/>
      </g>
     </g>
    </g>
    <g id="ytick_6">
     <g id="line2d_21">
      <path d="M 70.4 67.375638 
L 516.8 67.375638 
" clip-path="url(#pa3a2610c45)" style="fill: none; stroke: #b0b0b0; stroke-width: 0.8; stroke-linecap: square"/>
     </g>
     <g id="line2d_22">
      <g>
       <use xlink:href="#ma71849c26c" x="70.4" y="67.375638" style="stroke: #000000; stroke-width: 0.8"/>
      </g>
     </g>
     <g id="text_13">
      <!-- 1250 -->
      <g transform="translate(27.4 73.522357)scale(0.18 -0.18)">
       <use xlink:href="#STIXGeneral-Regular-31"/>
       <use xlink:href="#STIXGeneral-Regular-32" x="49.999985"/>
       <use xlink:href="#STIXGeneral-Regular-35" x="99.999969"/>
       <use xlink:href="#STIXGeneral-Regular-30" x="149.999954"/>
      </g>
     </g>
    </g>
    <g id="text_14">
     <!-- Average Test Return -->
     <g transform="translate(19.476562 241.641375)rotate(-90)scale(0.18 -0.18)">
      <defs>
       <path id="STIXGeneral-Regular-41" d="M 4525 0 
L 2893 0 
L 2893 122 
Q 3149 122 3245 179 
Q 3334 224 3334 333 
Q 3334 499 3213 781 
L 2950 1382 
L 1274 1382 
L 979 653 
Q 922 506 922 384 
Q 922 237 1027 179 
Q 1133 122 1370 122 
L 1370 0 
L 96 0 
L 96 122 
Q 365 147 486 316 
Q 608 486 902 1190 
L 2221 4314 
L 2349 4314 
L 3923 710 
Q 4064 378 4176 262 
Q 4288 147 4525 122 
L 4525 0 
z
M 2861 1645 
L 2118 3405 
L 1382 1645 
L 2861 1645 
z
" transform="scale(0.015625)"/>
       <path id="STIXGeneral-Regular-52" d="M 4224 0 
L 3187 0 
L 1664 1971 
L 1306 1958 
L 1306 717 
Q 1306 352 1405 249 
Q 1504 147 1875 122 
L 1875 0 
L 109 0 
L 109 122 
Q 474 154 563 262 
Q 653 371 653 794 
L 653 3526 
Q 653 3885 563 3987 
Q 474 4090 109 4115 
L 109 4237 
L 1850 4237 
Q 2726 4237 3187 3859 
Q 3501 3603 3501 3091 
Q 3501 2221 2342 2042 
L 3622 422 
Q 3757 256 3878 198 
Q 4000 141 4224 122 
L 4224 0 
z
M 1306 3731 
L 1306 2195 
Q 1766 2202 1990 2246 
Q 2214 2291 2438 2413 
Q 2803 2618 2803 3142 
Q 2803 4000 1632 4000 
Q 1459 4000 1382 3945 
Q 1306 3891 1306 3731 
z
" transform="scale(0.015625)"/>
       <path id="STIXGeneral-Regular-75" d="M 3072 320 
L 3072 230 
Q 2573 96 2195 -58 
L 2163 -38 
L 2163 486 
L 2150 486 
Q 1747 -64 1235 -64 
Q 870 -64 662 160 
Q 454 384 454 755 
L 454 2362 
Q 454 2598 371 2688 
Q 288 2778 58 2790 
L 58 2880 
L 992 2880 
L 992 813 
Q 992 595 1123 451 
Q 1254 307 1446 307 
Q 1760 307 1984 506 
Q 2067 582 2099 649 
Q 2131 717 2131 877 
L 2131 2355 
Q 2131 2605 2041 2678 
Q 1952 2752 1658 2771 
L 1658 2880 
L 2669 2880 
L 2669 685 
Q 2669 461 2742 390 
Q 2816 320 3034 320 
L 3072 320 
z
" transform="scale(0.015625)"/>
      </defs>
      <use xlink:href="#STIXGeneral-Regular-41"/>
      <use xlink:href="#STIXGeneral-Regular-76" x="72.199982"/>
      <use xlink:href="#STIXGeneral-Regular-65" x="122.199966"/>
      <use xlink:href="#STIXGeneral-Regular-72" x="166.59996"/>
      <use xlink:href="#STIXGeneral-Regular-61" x="199.899948"/>
      <use xlink:href="#STIXGeneral-Regular-67" x="244.299942"/>
      <use xlink:href="#STIXGeneral-Regular-65" x="294.299927"/>
      <use xlink:href="#STIXGeneral-Regular-20" x="338.699921"/>
      <use xlink:href="#STIXGeneral-Regular-54" x="363.699905"/>
      <use xlink:href="#STIXGeneral-Regular-65" x="424.799896"/>
      <use xlink:href="#STIXGeneral-Regular-73" x="469.19989"/>
      <use xlink:href="#STIXGeneral-Regular-74" x="508.099884"/>
      <use xlink:href="#STIXGeneral-Regular-20" x="535.899872"/>
      <use xlink:href="#STIXGeneral-Regular-52" x="560.899857"/>
      <use xlink:href="#STIXGeneral-Regular-65" x="627.599854"/>
      <use xlink:href="#STIXGeneral-Regular-74" x="671.999847"/>
      <use xlink:href="#STIXGeneral-Regular-75" x="699.799835"/>
      <use xlink:href="#STIXGeneral-Regular-72" x="749.79982"/>
      <use xlink:href="#STIXGeneral-Regular-6e" x="783.099808"/>
     </g>
    </g>
   </g>
   <g id="line2d_23">
    <path d="M 90.690909 292.649483 
L 95.938558 292.60126 
L 97.687774 292.57988 
L 101.186207 292.387975 
L 111.681505 292.225916 
L 116.929154 292.229672 
L 118.67837 292.274054 
L 120.427586 292.192341 
L 123.926019 292.291928 
L 132.6721 292.220817 
L 151.91348 292.12766 
L 155.411912 291.978358 
L 158.910345 291.874935 
L 160.659561 291.943479 
L 169.405643 291.772378 
L 174.653292 291.779353 
L 178.151724 292.069107 
L 214.885266 291.93956 
L 218.383699 291.871563 
L 221.882132 291.891759 
L 228.878997 291.686024 
L 235.875862 291.841415 
L 241.123511 291.568589 
L 242.872727 291.646945 
L 248.120376 291.425637 
L 249.869592 291.499055 
L 251.618809 291.421655 
L 267.361755 291.756911 
L 270.860188 291.683002 
L 272.609404 291.64623 
L 277.857053 291.876009 
L 284.853918 291.618016 
L 305.844514 291.444687 
L 309.342947 291.179393 
L 314.590596 290.996087 
L 316.339812 291.12173 
L 318.089028 291.009085 
L 325.085893 291.100731 
L 326.83511 291.336293 
L 339.079624 291.413171 
L 344.327273 291.429554 
L 346.076489 291.546054 
L 351.324138 291.531667 
L 354.822571 291.639647 
L 360.070219 291.425371 
L 361.819436 291.46976 
L 365.317868 291.368212 
L 370.565517 291.467245 
L 372.314734 291.250725 
L 375.813166 291.318265 
L 377.562382 291.579119 
L 384.559248 291.633475 
L 386.308464 291.731076 
L 388.05768 291.710925 
L 391.556113 291.891108 
L 396.803762 291.73434 
L 402.051411 291.759438 
L 409.048276 291.869874 
L 414.295925 291.718063 
L 416.045141 291.75707 
L 419.543574 291.625196 
L 421.29279 291.655619 
L 424.791223 291.409176 
L 430.038871 291.714018 
L 438.784953 291.518983 
L 440.534169 291.358397 
L 444.032602 291.614057 
L 447.531034 291.561097 
L 449.280251 291.732245 
L 456.277116 291.974037 
L 458.026332 291.662044 
L 461.524765 291.395668 
L 470.270846 291.407862 
L 473.769279 291.537231 
L 475.518495 291.408528 
L 477.267712 291.545259 
L 479.016928 291.347184 
L 487.763009 291.203274 
L 493.010658 291.385142 
L 496.509091 291.079497 
L 496.509091 291.079497 
" clip-path="url(#pa3a2610c45)" style="fill: none; stroke: #1f77b4; stroke-width: 1.5; stroke-linecap: square"/>
   </g>
   <g id="line2d_24">
    <path d="M 90.690909 253.036226 
L 92.440125 253.001215 
L 94.189342 253.117908 
L 97.687774 252.910019 
L 101.186207 252.87675 
L 102.935423 252.755535 
L 104.684639 253.081283 
L 109.932288 253.244396 
L 113.430721 252.859533 
L 115.179937 252.833132 
L 118.67837 253.149012 
L 120.427586 253.053186 
L 127.424451 253.210445 
L 130.922884 252.934236 
L 132.6721 253.057724 
L 134.421317 252.903147 
L 136.170533 253.017875 
L 137.919749 253.272215 
L 139.668966 253.131055 
L 141.418182 253.538229 
L 143.167398 254.070947 
L 144.916614 254.070887 
L 150.164263 253.719269 
L 151.91348 253.925216 
L 157.161129 253.523516 
L 158.910345 253.62216 
L 160.659561 253.553045 
L 162.408777 253.788323 
L 167.656426 253.715747 
L 169.405643 253.995713 
L 172.904075 253.76216 
L 179.90094 254.61658 
L 185.148589 254.390309 
L 186.897806 254.73022 
L 188.647022 254.831885 
L 190.396238 255.056246 
L 192.145455 254.877552 
L 193.894671 254.437395 
L 195.643887 254.247044 
L 199.14232 254.007585 
L 202.640752 253.808715 
L 206.139185 253.931197 
L 207.888401 254.16198 
L 211.386834 252.924938 
L 214.885266 252.680227 
L 216.634483 252.687958 
L 218.383699 252.528784 
L 220.132915 252.612549 
L 221.882132 252.816532 
L 225.380564 252.722622 
L 227.129781 252.30157 
L 228.878997 252.840067 
L 230.628213 252.625404 
L 232.377429 252.719766 
L 234.126646 252.512535 
L 235.875862 252.596875 
L 237.625078 252.961729 
L 239.374295 252.561674 
L 241.123511 252.587447 
L 242.872727 252.823846 
L 246.37116 252.728698 
L 248.120376 252.377845 
L 249.869592 252.48062 
L 251.618809 253.27562 
L 255.117241 253.504422 
L 256.866458 253.518338 
L 258.615674 254.049465 
L 260.36489 254.16572 
L 263.863323 254.056948 
L 265.612539 254.256371 
L 267.361755 254.107844 
L 269.110972 254.207921 
L 270.860188 253.882656 
L 274.358621 254.047477 
L 279.60627 253.515391 
L 281.355486 253.723907 
L 283.104702 254.243654 
L 284.853918 254.550025 
L 286.603135 254.458754 
L 288.352351 254.230297 
L 290.101567 254.507573 
L 293.6 254.237015 
L 295.349216 254.385043 
L 297.098433 253.979482 
L 300.596865 253.500206 
L 304.095298 252.957612 
L 309.342947 252.772347 
L 314.590596 252.771674 
L 316.339812 253.357768 
L 318.089028 253.80671 
L 319.838245 254.624661 
L 325.085893 253.93909 
L 326.83511 254.088765 
L 328.584326 255.278795 
L 330.333542 254.933204 
L 332.082759 256.01958 
L 333.831975 255.564811 
L 335.581191 255.355304 
L 337.330408 255.83869 
L 339.079624 255.061605 
L 340.82884 255.344216 
L 342.578056 255.05819 
L 344.327273 255.57903 
L 346.076489 255.716328 
L 347.825705 256.002132 
L 349.574922 255.914771 
L 351.324138 256.486472 
L 353.073354 256.217421 
L 354.822571 256.400071 
L 356.571787 255.819956 
L 358.321003 255.814164 
L 360.070219 255.38881 
L 361.819436 256.107632 
L 363.568652 255.979892 
L 367.067085 255.078786 
L 368.816301 254.86833 
L 370.565517 255.143156 
L 372.314734 255.234613 
L 375.813166 256.136685 
L 379.311599 255.978998 
L 381.060815 255.306871 
L 382.810031 255.179895 
L 384.559248 254.646825 
L 386.308464 254.313036 
L 389.806897 254.061335 
L 391.556113 253.764334 
L 395.054545 253.818895 
L 396.803762 253.231103 
L 398.552978 253.59474 
L 400.302194 253.506251 
L 402.051411 254.105981 
L 403.800627 253.655947 
L 405.549843 253.329211 
L 409.048276 253.515316 
L 410.797492 253.803332 
L 412.546708 253.803989 
L 414.295925 253.597159 
L 416.045141 253.081212 
L 417.794357 252.950644 
L 419.543574 252.701487 
L 421.29279 252.887393 
L 423.042006 252.710075 
L 424.791223 252.409093 
L 428.289655 252.249604 
L 430.038871 252.520928 
L 431.788088 252.41807 
L 438.784953 252.770096 
L 442.283386 253.148464 
L 445.781818 253.154485 
L 451.029467 253.416019 
L 452.778683 253.363751 
L 454.5279 253.157007 
L 456.277116 253.378094 
L 465.023197 253.259166 
L 466.772414 253.118754 
L 472.020063 253.402242 
L 477.267712 253.24565 
L 484.264577 252.861976 
L 489.512226 252.920506 
L 496.509091 253.081203 
L 496.509091 253.081203 
" clip-path="url(#pa3a2610c45)" style="fill: none; stroke: #ff7f0e; stroke-width: 1.5; stroke-linecap: square"/>
   </g>
   <g id="line2d_25">
    <path d="M 90.690909 290.092116 
L 92.440125 290.141338 
L 94.189342 289.892286 
L 95.938558 289.805318 
L 97.687774 289.53911 
L 99.436991 289.149979 
L 101.186207 289.320939 
L 102.935423 289.698218 
L 104.684639 289.777374 
L 113.430721 289.15668 
L 115.179937 289.68446 
L 116.929154 289.516846 
L 118.67837 289.691849 
L 123.926019 289.24135 
L 125.675235 289.488238 
L 129.173668 289.581164 
L 130.922884 288.932517 
L 132.6721 288.902073 
L 134.421317 289.126315 
L 136.170533 289.095039 
L 137.919749 288.462856 
L 139.668966 287.512781 
L 141.418182 288.46538 
L 143.167398 288.202171 
L 144.916614 288.540748 
L 146.665831 288.552189 
L 148.415047 288.890357 
L 151.91348 288.989873 
L 153.662696 289.242772 
L 155.411912 289.657133 
L 158.910345 289.606157 
L 160.659561 289.918935 
L 165.90721 289.613553 
L 167.656426 289.361487 
L 171.154859 289.220376 
L 172.904075 289.127455 
L 174.653292 289.732536 
L 176.402508 289.653188 
L 179.90094 290.021698 
L 181.650157 290.020286 
L 185.148589 289.534144 
L 186.897806 289.736677 
L 188.647022 289.671843 
L 197.393103 290.094423 
L 199.14232 289.885435 
L 200.891536 290.000346 
L 202.640752 289.92746 
L 204.389969 289.714736 
L 207.888401 289.495371 
L 209.637618 289.60803 
L 211.386834 289.50646 
L 221.882132 290.164398 
L 225.380564 289.60916 
L 227.129781 289.491837 
L 228.878997 289.799067 
L 232.377429 289.896696 
L 234.126646 289.385447 
L 237.625078 289.650938 
L 241.123511 289.327958 
L 242.872727 289.417637 
L 244.621944 289.648458 
L 246.37116 289.425638 
L 251.618809 289.443232 
L 253.368025 289.521711 
L 255.117241 289.729256 
L 256.866458 289.446782 
L 260.36489 289.428796 
L 262.114107 289.266002 
L 263.863323 289.620892 
L 265.612539 289.389721 
L 267.361755 289.464422 
L 269.110972 289.183619 
L 270.860188 289.039634 
L 272.609404 289.474294 
L 277.857053 289.420564 
L 279.60627 289.484715 
L 281.355486 289.175818 
L 283.104702 289.320087 
L 284.853918 289.048633 
L 286.603135 289.078897 
L 288.352351 289.347293 
L 291.850784 289.278258 
L 293.6 289.161764 
L 295.349216 289.32357 
L 298.847649 289.001242 
L 300.596865 289.331034 
L 302.346082 289.48953 
L 304.095298 289.20824 
L 307.59373 289.351987 
L 309.342947 289.247924 
L 311.092163 289.297407 
L 312.841379 289.202789 
L 314.590596 289.353736 
L 316.339812 289.111812 
L 321.587461 288.919891 
L 325.085893 289.343459 
L 326.83511 289.156678 
L 328.584326 289.409438 
L 330.333542 289.403441 
L 332.082759 288.900642 
L 333.831975 289.007663 
L 335.581191 288.953345 
L 337.330408 289.024821 
L 339.079624 288.967965 
L 340.82884 289.120699 
L 342.578056 289.424356 
L 346.076489 289.517024 
L 347.825705 289.639559 
L 349.574922 289.463839 
L 351.324138 289.500013 
L 353.073354 289.191124 
L 356.571787 289.229839 
L 360.070219 289.524726 
L 361.819436 289.422708 
L 365.317868 289.507806 
L 367.067085 289.131958 
L 368.816301 289.054486 
L 370.565517 289.215922 
L 372.314734 289.127284 
L 374.06395 289.166611 
L 375.813166 289.42136 
L 379.311599 289.393712 
L 381.060815 289.29699 
L 382.810031 289.47105 
L 389.806897 289.462997 
L 391.556113 289.745654 
L 403.800627 289.371882 
L 405.549843 289.612962 
L 410.797492 289.452171 
L 412.546708 289.579786 
L 423.042006 289.371603 
L 424.791223 289.488283 
L 426.540439 289.437535 
L 428.289655 289.600279 
L 430.038871 289.608007 
L 433.537304 289.829146 
L 435.28652 289.613958 
L 437.035737 289.578847 
L 440.534169 289.20559 
L 442.283386 289.508312 
L 444.032602 289.661259 
L 445.781818 289.478686 
L 449.280251 289.966409 
L 452.778683 289.90679 
L 454.5279 289.755189 
L 456.277116 290.003023 
L 458.026332 289.911117 
L 461.524765 289.374274 
L 463.273981 289.570073 
L 466.772414 289.669099 
L 472.020063 289.309046 
L 475.518495 289.472011 
L 479.016928 289.211112 
L 480.766144 289.389756 
L 484.264577 289.212006 
L 486.013793 289.350469 
L 487.763009 289.246721 
L 489.512226 289.284862 
L 491.261442 289.571037 
L 493.010658 289.209999 
L 494.759875 289.390315 
L 496.509091 288.849518 
L 496.509091 288.849518 
" clip-path="url(#pa3a2610c45)" style="fill: none; stroke: #2ca02c; stroke-width: 1.5; stroke-linecap: square"/>
   </g>
   <g id="line2d_26">
    <path d="M 90.690909 142.522293 
L 92.440125 146.679205 
L 94.189342 142.207675 
L 95.938558 148.807569 
L 99.436991 142.015784 
L 101.186207 138.322286 
L 104.684639 136.240968 
L 106.433856 132.988718 
L 108.183072 133.748102 
L 109.932288 135.064897 
L 111.681505 139.648285 
L 113.430721 138.510627 
L 115.179937 130.634667 
L 116.929154 129.646983 
L 118.67837 133.492861 
L 120.427586 133.818818 
L 122.176803 137.150324 
L 123.926019 129.993357 
L 125.675235 134.294707 
L 127.424451 127.47186 
L 129.173668 123.054369 
L 130.922884 116.013868 
L 132.6721 112.88248 
L 134.421317 116.564615 
L 136.170533 118.861384 
L 137.919749 118.023458 
L 139.668966 110.182495 
L 141.418182 112.346567 
L 143.167398 106.374377 
L 144.916614 106.918618 
L 146.665831 108.701838 
L 148.415047 111.062184 
L 150.164263 104.525089 
L 151.91348 120.085856 
L 153.662696 110.682827 
L 155.411912 114.013277 
L 157.161129 105.493676 
L 158.910345 95.051725 
L 160.659561 104.311572 
L 162.408777 100.208786 
L 164.157994 99.72158 
L 165.90721 100.675066 
L 167.656426 98.586978 
L 171.154859 114.30301 
L 172.904075 116.075267 
L 174.653292 118.290157 
L 176.402508 122.157277 
L 178.151724 121.621142 
L 179.90094 126.9417 
L 181.650157 129.209472 
L 183.399373 128.991958 
L 185.148589 130.009807 
L 186.897806 133.094319 
L 188.647022 126.638259 
L 190.396238 126.932023 
L 192.145455 130.140936 
L 193.894671 135.758087 
L 195.643887 133.860982 
L 197.393103 134.704258 
L 199.14232 138.886715 
L 200.891536 142.418868 
L 202.640752 143.267557 
L 204.389969 135.891096 
L 206.139185 134.101311 
L 207.888401 138.24678 
L 209.637618 131.674149 
L 211.386834 122.842908 
L 213.13605 121.994705 
L 214.885266 125.757084 
L 216.634483 127.643881 
L 218.383699 128.688782 
L 220.132915 126.266392 
L 221.882132 118.828956 
L 223.631348 124.08645 
L 225.380564 124.833857 
L 227.129781 120.212452 
L 228.878997 110.006754 
L 230.628213 116.434108 
L 232.377429 127.288959 
L 235.875862 115.426649 
L 237.625078 117.212991 
L 239.374295 110.92662 
L 241.123511 105.782461 
L 242.872727 106.33074 
L 244.621944 103.207284 
L 246.37116 100.46848 
L 248.120376 97.45164 
L 249.869592 87.475741 
L 251.618809 90.237345 
L 253.368025 87.700488 
L 255.117241 78.991838 
L 256.866458 73.933577 
L 258.615674 69.266455 
L 260.36489 73.745662 
L 262.114107 82.547456 
L 263.863323 84.350372 
L 265.612539 73.604238 
L 267.361755 70.237575 
L 269.110972 67.245512 
L 270.860188 65.731348 
L 272.609404 74.961077 
L 274.358621 71.428273 
L 276.107837 69.615837 
L 277.857053 64.65284 
L 279.60627 57.826491 
L 281.355486 45.940546 
L 283.104702 54.382422 
L 286.603135 40.660125 
L 288.352351 46.479261 
L 290.101567 54.700114 
L 291.850784 56.653469 
L 293.6 62.992667 
L 295.349216 53.637329 
L 297.098433 51.820419 
L 298.847649 52.464432 
L 300.596865 59.78138 
L 302.346082 58.976541 
L 304.095298 66.545546 
L 305.844514 63.104112 
L 307.59373 66.194223 
L 309.342947 57.664952 
L 311.092163 56.653692 
L 312.841379 55.893656 
L 314.590596 60.508174 
L 316.339812 64.123626 
L 318.089028 61.940529 
L 321.587461 78.871922 
L 323.336677 75.852826 
L 325.085893 77.612073 
L 326.83511 73.338508 
L 328.584326 65.303246 
L 330.333542 74.297346 
L 332.082759 79.682271 
L 333.831975 72.448817 
L 335.581191 80.278598 
L 337.330408 85.559795 
L 339.079624 80.284311 
L 340.82884 83.106852 
L 342.578056 79.120889 
L 344.327273 85.281996 
L 346.076489 94.838623 
L 347.825705 93.705716 
L 349.574922 86.948297 
L 351.324138 79.093461 
L 353.073354 86.945033 
L 354.822571 90.5456 
L 356.571787 89.773371 
L 358.321003 80.045434 
L 360.070219 81.365486 
L 361.819436 71.641082 
L 363.568652 57.718052 
L 365.317868 69.047956 
L 367.067085 67.741758 
L 368.816301 74.123081 
L 370.565517 72.645781 
L 372.314734 79.426317 
L 374.06395 74.676071 
L 375.813166 78.273159 
L 377.562382 88.718188 
L 379.311599 79.067974 
L 381.060815 89.766228 
L 382.810031 93.947675 
L 384.559248 95.68647 
L 386.308464 100.640353 
L 388.05768 96.447293 
L 389.806897 94.490376 
L 391.556113 103.904657 
L 393.305329 100.503141 
L 395.054545 98.267632 
L 396.803762 102.487342 
L 398.552978 108.475493 
L 400.302194 108.870609 
L 402.051411 105.066427 
L 403.800627 100.922536 
L 405.549843 103.110409 
L 407.29906 102.736846 
L 409.048276 98.923853 
L 410.797492 98.421164 
L 412.546708 98.539774 
L 414.295925 91.938723 
L 416.045141 102.686475 
L 417.794357 110.381006 
L 419.543574 108.221874 
L 421.29279 111.45388 
L 423.042006 105.939474 
L 424.791223 106.224777 
L 426.540439 98.56074 
L 428.289655 104.45106 
L 430.038871 103.505337 
L 431.788088 112.397526 
L 433.537304 113.694141 
L 435.28652 118.074949 
L 437.035737 120.325974 
L 438.784953 126.730574 
L 440.534169 128.555307 
L 442.283386 121.177034 
L 444.032602 125.925005 
L 445.781818 123.293156 
L 447.531034 124.621285 
L 449.280251 126.503359 
L 451.029467 133.388491 
L 452.778683 134.609832 
L 454.5279 130.028778 
L 456.277116 132.563163 
L 458.026332 126.129668 
L 459.775549 121.478543 
L 461.524765 115.579491 
L 463.273981 118.521751 
L 465.023197 113.829521 
L 466.772414 116.324409 
L 468.52163 118.387812 
L 470.270846 114.384619 
L 472.020063 118.1929 
L 473.769279 105.161327 
L 475.518495 108.337077 
L 477.267712 108.036928 
L 479.016928 105.08503 
L 480.766144 111.682594 
L 482.515361 101.770095 
L 484.264577 103.65217 
L 486.013793 112.264513 
L 487.763009 107.132776 
L 489.512226 108.999361 
L 491.261442 117.454478 
L 493.010658 130.272518 
L 494.759875 115.964005 
L 496.509091 123.921998 
L 496.509091 123.921998 
" clip-path="url(#pa3a2610c45)" style="fill: none; stroke: #d62728; stroke-width: 1.5; stroke-linecap: square"/>
   </g>
   <g id="line2d_27">
    <path d="M 90.690909 162.345185 
L 92.440125 165.478109 
L 94.189342 165.934235 
L 95.938558 163.096606 
L 97.687774 163.661553 
L 99.436991 162.755442 
L 101.186207 162.524318 
L 102.935423 164.496911 
L 104.684639 165.379259 
L 106.433856 163.381435 
L 108.183072 166.395159 
L 109.932288 169.940794 
L 111.681505 166.627914 
L 113.430721 163.906836 
L 115.179937 164.387168 
L 116.929154 165.426087 
L 118.67837 162.529035 
L 120.427586 165.568561 
L 122.176803 165.818271 
L 123.926019 167.018722 
L 125.675235 169.798233 
L 127.424451 169.822336 
L 129.173668 167.897577 
L 130.922884 168.086384 
L 132.6721 169.504578 
L 134.421317 173.093655 
L 136.170533 177.428063 
L 137.919749 179.850757 
L 141.418182 174.669696 
L 143.167398 170.416833 
L 144.916614 170.793174 
L 146.665831 175.41559 
L 148.415047 170.965774 
L 150.164263 170.832889 
L 151.91348 171.0167 
L 153.662696 169.078382 
L 155.411912 168.262906 
L 157.161129 168.400292 
L 158.910345 171.493867 
L 160.659561 175.084011 
L 162.408777 175.986578 
L 164.157994 174.579554 
L 165.90721 172.61551 
L 167.656426 172.16158 
L 169.405643 167.480103 
L 171.154859 163.475959 
L 172.904075 164.414092 
L 174.653292 166.386054 
L 176.402508 162.431292 
L 178.151724 158.093838 
L 179.90094 161.387327 
L 181.650157 161.973526 
L 183.399373 165.121142 
L 185.148589 161.200282 
L 186.897806 164.105632 
L 188.647022 162.777238 
L 190.396238 164.062513 
L 192.145455 164.448173 
L 193.894671 157.344095 
L 195.643887 158.015689 
L 197.393103 155.513044 
L 199.14232 155.723214 
L 200.891536 156.225406 
L 202.640752 159.535731 
L 204.389969 157.676691 
L 206.139185 160.681972 
L 207.888401 160.063346 
L 209.637618 162.57171 
L 211.386834 164.869214 
L 213.13605 164.935506 
L 214.885266 164.157312 
L 216.634483 163.208523 
L 218.383699 163.559826 
L 220.132915 160.569893 
L 221.882132 158.330797 
L 223.631348 157.813732 
L 225.380564 159.350812 
L 227.129781 159.249143 
L 228.878997 161.728158 
L 230.628213 164.514041 
L 232.377429 161.708405 
L 234.126646 162.265938 
L 235.875862 163.581994 
L 237.625078 163.598767 
L 239.374295 165.434768 
L 241.123511 169.568881 
L 242.872727 167.289047 
L 244.621944 164.062907 
L 246.37116 163.699031 
L 248.120376 160.10679 
L 249.869592 162.26104 
L 251.618809 165.039906 
L 253.368025 166.655083 
L 255.117241 170.16594 
L 256.866458 170.489598 
L 258.615674 172.620892 
L 260.36489 168.874648 
L 262.114107 166.88213 
L 263.863323 165.939286 
L 265.612539 169.710801 
L 267.361755 165.519155 
L 269.110972 169.842431 
L 270.860188 170.420175 
L 272.609404 165.462081 
L 274.358621 171.224981 
L 276.107837 173.342273 
L 277.857053 175.657269 
L 279.60627 175.191152 
L 281.355486 169.782688 
L 283.104702 171.97411 
L 284.853918 171.014195 
L 286.603135 173.335441 
L 288.352351 172.783142 
L 290.101567 172.470747 
L 291.850784 173.914843 
L 293.6 173.027171 
L 295.349216 174.716106 
L 298.847649 174.494639 
L 300.596865 173.294807 
L 302.346082 174.248537 
L 304.095298 173.861187 
L 305.844514 171.372476 
L 307.59373 169.48774 
L 309.342947 168.392977 
L 311.092163 162.470854 
L 312.841379 166.248985 
L 314.590596 163.087812 
L 316.339812 167.277305 
L 318.089028 169.862457 
L 319.838245 170.667414 
L 321.587461 174.715897 
L 323.336677 174.34403 
L 325.085893 172.066448 
L 326.83511 175.232237 
L 328.584326 177.278858 
L 330.333542 175.176355 
L 332.082759 171.454138 
L 333.831975 169.8163 
L 335.581191 168.659625 
L 337.330408 170.548295 
L 339.079624 168.549197 
L 340.82884 170.582828 
L 342.578056 168.845427 
L 344.327273 166.452781 
L 346.076489 162.318222 
L 347.825705 160.685511 
L 349.574922 161.562799 
L 351.324138 160.64423 
L 353.073354 163.185499 
L 354.822571 167.247318 
L 356.571787 169.935783 
L 358.321003 167.464712 
L 360.070219 167.683222 
L 361.819436 172.309778 
L 363.568652 174.023692 
L 365.317868 173.259557 
L 368.816301 173.847663 
L 370.565517 171.281802 
L 372.314734 169.484119 
L 374.06395 169.767161 
L 375.813166 166.533487 
L 377.562382 169.01099 
L 379.311599 165.047238 
L 381.060815 165.420791 
L 382.810031 165.517313 
L 384.559248 163.350956 
L 386.308464 166.102882 
L 388.05768 165.10412 
L 389.806897 166.489878 
L 391.556113 162.599984 
L 393.305329 161.916047 
L 395.054545 163.708867 
L 396.803762 163.162302 
L 398.552978 159.229863 
L 400.302194 157.88315 
L 402.051411 161.297135 
L 403.800627 163.457093 
L 405.549843 168.64638 
L 407.29906 169.074696 
L 409.048276 166.803744 
L 410.797492 164.790373 
L 412.546708 164.252241 
L 414.295925 163.909691 
L 416.045141 163.39687 
L 417.794357 166.023578 
L 419.543574 163.247142 
L 421.29279 162.028025 
L 423.042006 164.330257 
L 424.791223 164.446491 
L 428.289655 170.790834 
L 430.038871 169.226285 
L 431.788088 166.050452 
L 433.537304 163.440585 
L 435.28652 162.310952 
L 437.035737 157.478418 
L 438.784953 157.361205 
L 440.534169 161.316715 
L 442.283386 160.630394 
L 444.032602 161.807433 
L 445.781818 162.618832 
L 447.531034 161.616454 
L 449.280251 155.688144 
L 451.029467 156.436407 
L 452.778683 157.654943 
L 454.5279 157.33084 
L 456.277116 159.753298 
L 458.026332 161.36377 
L 459.775549 161.46309 
L 461.524765 166.087541 
L 463.273981 165.991975 
L 465.023197 165.091104 
L 466.772414 162.228249 
L 468.52163 165.331213 
L 470.270846 166.789738 
L 472.020063 163.371046 
L 473.769279 163.48102 
L 475.518495 164.960438 
L 477.267712 162.478656 
L 479.016928 162.113684 
L 480.766144 166.617048 
L 482.515361 167.761816 
L 484.264577 165.695775 
L 486.013793 165.445956 
L 487.763009 167.208523 
L 489.512226 164.030006 
L 491.261442 164.101154 
L 493.010658 163.91666 
L 494.759875 163.217265 
L 496.509091 166.06462 
L 496.509091 166.06462 
" clip-path="url(#pa3a2610c45)" style="fill: none; stroke: #9467bd; stroke-width: 1.5; stroke-linecap: square"/>
   </g>
   <g id="patch_3">
    <path d="M 70.4 305.260125 
L 70.4 28.060125 
" style="fill: none; stroke: #000000; stroke-width: 0.8; stroke-linejoin: miter; stroke-linecap: square"/>
   </g>
   <g id="patch_4">
    <path d="M 516.8 305.260125 
L 516.8 28.060125 
" style="fill: none; stroke: #000000; stroke-width: 0.8; stroke-linejoin: miter; stroke-linecap: square"/>
   </g>
   <g id="patch_5">
    <path d="M 70.4 305.260125 
L 516.8 305.260125 
" style="fill: none; stroke: #000000; stroke-width: 0.8; stroke-linejoin: miter; stroke-linecap: square"/>
   </g>
   <g id="patch_6">
    <path d="M 70.4 28.060125 
L 516.8 28.060125 
" style="fill: none; stroke: #000000; stroke-width: 0.8; stroke-linejoin: miter; stroke-linecap: square"/>
   </g>
   <g id="text_15">
    <!-- ML45 Meta Testing -->
    <g transform="translate(206.604313 22.060125)scale(0.216 -0.216)">
     <defs>
      <path id="STIXGeneral-Regular-4d" d="M 5530 0 
L 3738 0 
L 3738 122 
Q 4115 147 4214 265 
Q 4314 384 4314 787 
L 4314 3661 
L 2682 0 
L 2592 0 
L 979 3514 
L 979 966 
Q 979 448 1088 294 
Q 1197 141 1574 122 
L 1574 0 
L 77 0 
L 77 122 
Q 358 141 480 205 
Q 602 269 650 432 
Q 698 595 698 966 
L 698 3514 
Q 698 3878 589 3984 
Q 480 4090 90 4115 
L 90 4237 
L 1357 4237 
L 2835 1024 
L 4250 4237 
L 5523 4237 
L 5523 4115 
Q 5178 4109 5072 3993 
Q 4966 3878 4966 3520 
L 4966 717 
Q 4966 378 5072 262 
Q 5178 147 5530 122 
L 5530 0 
z
" transform="scale(0.015625)"/>
      <path id="STIXGeneral-Regular-4c" d="M 3827 1114 
L 3520 0 
L 77 0 
L 77 122 
Q 429 141 531 256 
Q 634 371 634 736 
L 634 3494 
Q 634 3872 541 3981 
Q 448 4090 77 4115 
L 77 4237 
L 1888 4237 
L 1888 4115 
Q 1498 4090 1392 3984 
Q 1286 3878 1286 3507 
L 1286 538 
Q 1286 358 1398 304 
Q 1510 250 1862 250 
L 2310 250 
Q 3085 250 3392 640 
Q 3520 813 3661 1114 
L 3827 1114 
z
" transform="scale(0.015625)"/>
     </defs>
     <use xlink:href="#STIXGeneral-Regular-4d"/>
     <use xlink:href="#STIXGeneral-Regular-4c" x="88.899994"/>
     <use xlink:href="#STIXGeneral-Regular-34" x="149.999985"/>
     <use xlink:href="#STIXGeneral-Regular-35" x="199.999969"/>
     <use xlink:href="#STIXGeneral-Regular-20" x="249.999954"/>
     <use xlink:href="#STIXGeneral-Regular-4d" x="274.999939"/>
     <use xlink:href="#STIXGeneral-Regular-65" x="363.899933"/>
     <use xlink:href="#STIXGeneral-Regular-74" x="408.299927"/>
     <use xlink:href="#STIXGeneral-Regular-61" x="436.099915"/>
     <use xlink:href="#STIXGeneral-Regular-20" x="480.499908"/>
     <use xlink:href="#STIXGeneral-Regular-54" x="505.499893"/>
     <use xlink:href="#STIXGeneral-Regular-65" x="566.599884"/>
     <use xlink:href="#STIXGeneral-Regular-73" x="610.999878"/>
     <use xlink:href="#STIXGeneral-Regular-74" x="649.899872"/>
     <use xlink:href="#STIXGeneral-Regular-69" x="677.69986"/>
     <use xlink:href="#STIXGeneral-Regular-6e" x="705.499847"/>
     <use xlink:href="#STIXGeneral-Regular-67" x="755.499832"/>
    </g>
   </g>
   <g id="legend_1">
    <g id="patch_7">
     <path d="M 80.2 138.465437 
L 212.093125 138.465437 
Q 214.893125 138.465437 214.893125 135.665437 
L 214.893125 37.860125 
Q 214.893125 35.060125 212.093125 35.060125 
L 80.2 35.060125 
Q 77.4 35.060125 77.4 37.860125 
L 77.4 135.665437 
Q 77.4 138.465437 80.2 138.465437 
z
" style="fill: #ffffff; opacity: 0.8; stroke: #cccccc; stroke-linejoin: miter"/>
    </g>
    <g id="line2d_28">
     <path d="M 83 45.560125 
L 97 45.560125 
L 111 45.560125 
" style="fill: none; stroke: #1f77b4; stroke-width: 1.5; stroke-linecap: square"/>
    </g>
    <g id="text_16">
     <!-- bin-picking-v2 -->
     <g transform="translate(122.2 50.460125)scale(0.14 -0.14)">
      <defs>
       <path id="STIXGeneral-Regular-62" d="M 979 4358 
L 979 2406 
Q 1082 2650 1315 2797 
Q 1549 2944 1843 2944 
Q 2349 2944 2672 2541 
Q 2995 2138 2995 1536 
Q 2995 832 2566 384 
Q 2138 -64 1498 -64 
Q 1107 -64 774 67 
Q 442 198 442 358 
L 442 3622 
Q 442 3859 384 3926 
Q 326 3994 128 3994 
Q 83 3994 19 3981 
L 19 4090 
L 211 4147 
Q 864 4346 947 4371 
L 979 4358 
z
M 979 2035 
L 979 474 
Q 979 326 1161 233 
Q 1344 141 1600 141 
Q 1978 141 2195 416 
Q 2432 710 2432 1261 
Q 2432 1888 2182 2240 
Q 1971 2541 1613 2541 
Q 1357 2541 1168 2390 
Q 979 2240 979 2035 
z
" transform="scale(0.015625)"/>
       <path id="STIXGeneral-Regular-2d" d="M 1824 1242 
L 250 1242 
L 250 1645 
L 1824 1645 
L 1824 1242 
z
" transform="scale(0.015625)"/>
       <path id="STIXGeneral-Regular-63" d="M 2547 998 
L 2637 941 
Q 2362 403 2112 205 
Q 1786 -64 1376 -64 
Q 845 -64 502 336 
Q 160 736 160 1357 
Q 160 2170 698 2618 
Q 1094 2944 1562 2944 
Q 1965 2944 2256 2749 
Q 2547 2554 2547 2285 
Q 2547 2176 2457 2096 
Q 2368 2016 2246 2016 
Q 2022 2016 1939 2310 
L 1901 2451 
Q 1850 2630 1773 2694 
Q 1696 2758 1523 2758 
Q 1133 2758 893 2451 
Q 653 2144 653 1645 
Q 653 1094 928 745 
Q 1203 397 1645 397 
Q 1920 397 2118 528 
Q 2317 659 2547 998 
z
" transform="scale(0.015625)"/>
       <path id="STIXGeneral-Regular-6b" d="M 3232 0 
L 1837 0 
L 1837 96 
L 1958 96 
Q 2093 96 2093 192 
Q 2093 250 2022 339 
L 1062 1606 
L 1062 429 
Q 1062 262 1142 185 
Q 1222 109 1414 102 
L 1542 96 
L 1542 0 
L 45 0 
L 45 96 
Q 390 154 457 214 
Q 525 275 525 525 
L 525 3610 
Q 525 3840 467 3920 
Q 410 4000 250 4000 
Q 211 4000 45 3987 
L 45 4090 
L 237 4141 
Q 621 4243 1037 4371 
L 1062 4358 
L 1062 1670 
L 1939 2451 
Q 2086 2586 2086 2675 
Q 2086 2739 2019 2761 
Q 1952 2784 1766 2790 
L 1766 2880 
L 3072 2880 
L 3072 2784 
Q 2752 2784 2505 2646 
Q 2259 2509 1690 1978 
L 1504 1805 
L 2483 563 
Q 2829 122 3232 96 
L 3232 0 
z
" transform="scale(0.015625)"/>
      </defs>
      <use xlink:href="#STIXGeneral-Regular-62"/>
      <use xlink:href="#STIXGeneral-Regular-69" x="49.999985"/>
      <use xlink:href="#STIXGeneral-Regular-6e" x="77.799973"/>
      <use xlink:href="#STIXGeneral-Regular-2d" x="127.799957"/>
      <use xlink:href="#STIXGeneral-Regular-70" x="161.099945"/>
      <use xlink:href="#STIXGeneral-Regular-69" x="211.09993"/>
      <use xlink:href="#STIXGeneral-Regular-63" x="238.899918"/>
      <use xlink:href="#STIXGeneral-Regular-6b" x="283.299911"/>
      <use xlink:href="#STIXGeneral-Regular-69" x="333.299896"/>
      <use xlink:href="#STIXGeneral-Regular-6e" x="361.099884"/>
      <use xlink:href="#STIXGeneral-Regular-67" x="411.099869"/>
      <use xlink:href="#STIXGeneral-Regular-2d" x="461.099854"/>
      <use xlink:href="#STIXGeneral-Regular-76" x="494.399841"/>
      <use xlink:href="#STIXGeneral-Regular-32" x="544.399826"/>
     </g>
    </g>
    <g id="line2d_29">
     <path d="M 83 65.411687 
L 97 65.411687 
L 111 65.411687 
" style="fill: none; stroke: #ff7f0e; stroke-width: 1.5; stroke-linecap: square"/>
    </g>
    <g id="text_17">
     <!-- box-close-v2 -->
     <g transform="translate(122.2 70.311687)scale(0.14 -0.14)">
      <defs>
       <path id="STIXGeneral-Regular-78" d="M 3066 0 
L 1779 0 
L 1779 96 
Q 1939 109 1987 137 
Q 2035 166 2035 250 
Q 2035 307 1997 365 
L 1414 1261 
L 909 474 
Q 781 275 781 211 
Q 781 96 1037 96 
L 1037 0 
L 109 0 
L 109 96 
Q 269 109 355 169 
Q 442 230 576 422 
L 1306 1478 
L 704 2400 
Q 557 2624 454 2704 
Q 352 2784 211 2784 
L 154 2784 
L 154 2880 
L 1478 2880 
L 1478 2784 
Q 1203 2778 1203 2643 
Q 1203 2509 1498 2074 
Q 1581 1958 1587 1946 
Q 1619 1990 1779 2227 
Q 1811 2285 1856 2349 
Q 1901 2413 1923 2451 
Q 1946 2490 1971 2528 
Q 1997 2566 2006 2595 
Q 2016 2624 2016 2643 
Q 2016 2765 1760 2784 
L 1760 2880 
L 2771 2880 
L 2771 2784 
Q 2445 2771 2253 2502 
L 1722 1734 
L 2541 480 
Q 2790 96 3066 96 
L 3066 0 
z
" transform="scale(0.015625)"/>
       <path id="STIXGeneral-Regular-6c" d="M 1645 0 
L 134 0 
L 134 96 
Q 435 122 531 221 
Q 627 320 627 589 
L 627 3590 
Q 627 3821 569 3910 
Q 512 4000 358 4000 
Q 224 4000 122 3987 
L 122 4090 
Q 730 4237 1133 4371 
L 1165 4346 
L 1165 557 
Q 1165 288 1254 201 
Q 1344 115 1645 96 
L 1645 0 
z
" transform="scale(0.015625)"/>
      </defs>
      <use xlink:href="#STIXGeneral-Regular-62"/>
      <use xlink:href="#STIXGeneral-Regular-6f" x="49.999985"/>
      <use xlink:href="#STIXGeneral-Regular-78" x="99.999969"/>
      <use xlink:href="#STIXGeneral-Regular-2d" x="149.999954"/>
      <use xlink:href="#STIXGeneral-Regular-63" x="183.299942"/>
      <use xlink:href="#STIXGeneral-Regular-6c" x="227.699936"/>
      <use xlink:href="#STIXGeneral-Regular-6f" x="255.499924"/>
      <use xlink:href="#STIXGeneral-Regular-73" x="305.499908"/>
      <use xlink:href="#STIXGeneral-Regular-65" x="344.399902"/>
      <use xlink:href="#STIXGeneral-Regular-2d" x="388.799896"/>
      <use xlink:href="#STIXGeneral-Regular-76" x="422.099884"/>
      <use xlink:href="#STIXGeneral-Regular-32" x="472.099869"/>
     </g>
    </g>
    <g id="line2d_30">
     <path d="M 83 85.250125 
L 97 85.250125 
L 111 85.250125 
" style="fill: none; stroke: #2ca02c; stroke-width: 1.5; stroke-linecap: square"/>
    </g>
    <g id="text_18">
     <!-- hand-insert-v2 -->
     <g transform="translate(122.2 90.150125)scale(0.14 -0.14)">
      <defs>
       <path id="STIXGeneral-Regular-68" d="M 3117 0 
L 1760 0 
L 1760 96 
Q 2042 128 2118 224 
Q 2195 320 2195 653 
L 2195 1920 
Q 2195 2598 1722 2598 
Q 1530 2598 1370 2508 
Q 1210 2419 1005 2195 
L 1005 653 
Q 1005 320 1081 224 
Q 1158 128 1440 96 
L 1440 0 
L 58 0 
L 58 96 
Q 333 134 400 224 
Q 467 314 467 653 
L 467 3667 
Q 467 3872 406 3933 
Q 346 3994 141 3994 
Q 83 3994 64 3987 
L 64 4090 
L 237 4141 
Q 730 4288 973 4371 
L 1005 4352 
L 1005 2406 
Q 1229 2694 1446 2819 
Q 1664 2944 1946 2944 
Q 2733 2944 2733 1926 
L 2733 653 
Q 2733 320 2793 233 
Q 2854 147 3117 96 
L 3117 0 
z
" transform="scale(0.015625)"/>
       <path id="STIXGeneral-Regular-64" d="M 3142 269 
L 2202 -64 
L 2176 -45 
L 2176 365 
Q 1869 -64 1357 -64 
Q 826 -64 499 317 
Q 173 698 173 1312 
Q 173 1990 563 2467 
Q 954 2944 1504 2944 
Q 1850 2944 2176 2669 
L 2176 3667 
Q 2176 3866 2118 3930 
Q 2061 3994 1882 3994 
Q 1792 3994 1741 3987 
L 1741 4090 
Q 2323 4243 2682 4371 
L 2714 4358 
L 2714 730 
Q 2714 506 2768 435 
Q 2822 365 2995 365 
Q 3034 365 3142 371 
L 3142 269 
z
M 2176 653 
L 2176 2125 
Q 2176 2381 1981 2573 
Q 1786 2765 1523 2765 
Q 1158 2765 940 2438 
Q 723 2112 723 1568 
Q 723 979 963 624 
Q 1203 269 1606 269 
Q 1907 269 2080 474 
Q 2176 582 2176 653 
z
" transform="scale(0.015625)"/>
      </defs>
      <use xlink:href="#STIXGeneral-Regular-68"/>
      <use xlink:href="#STIXGeneral-Regular-61" x="49.999985"/>
      <use xlink:href="#STIXGeneral-Regular-6e" x="94.399979"/>
      <use xlink:href="#STIXGeneral-Regular-64" x="144.399963"/>
      <use xlink:href="#STIXGeneral-Regular-2d" x="194.399948"/>
      <use xlink:href="#STIXGeneral-Regular-69" x="227.699936"/>
      <use xlink:href="#STIXGeneral-Regular-6e" x="255.499924"/>
      <use xlink:href="#STIXGeneral-Regular-73" x="305.499908"/>
      <use xlink:href="#STIXGeneral-Regular-65" x="344.399902"/>
      <use xlink:href="#STIXGeneral-Regular-72" x="388.799896"/>
      <use xlink:href="#STIXGeneral-Regular-74" x="422.099884"/>
      <use xlink:href="#STIXGeneral-Regular-2d" x="449.899872"/>
      <use xlink:href="#STIXGeneral-Regular-76" x="483.19986"/>
      <use xlink:href="#STIXGeneral-Regular-32" x="533.199844"/>
     </g>
    </g>
    <g id="line2d_31">
     <path d="M 83 105.088562 
L 97 105.088562 
L 111 105.088562 
" style="fill: none; stroke: #d62728; stroke-width: 1.5; stroke-linecap: square"/>
    </g>
    <g id="text_19">
     <!-- door-lock-v2 -->
     <g transform="translate(122.2 109.988562)scale(0.14 -0.14)">
      <use xlink:href="#STIXGeneral-Regular-64"/>
      <use xlink:href="#STIXGeneral-Regular-6f" x="49.999985"/>
      <use xlink:href="#STIXGeneral-Regular-6f" x="99.999969"/>
      <use xlink:href="#STIXGeneral-Regular-72" x="149.999954"/>
      <use xlink:href="#STIXGeneral-Regular-2d" x="183.299942"/>
      <use xlink:href="#STIXGeneral-Regular-6c" x="216.59993"/>
      <use xlink:href="#STIXGeneral-Regular-6f" x="244.399918"/>
      <use xlink:href="#STIXGeneral-Regular-63" x="294.399902"/>
      <use xlink:href="#STIXGeneral-Regular-6b" x="338.799896"/>
      <use xlink:href="#STIXGeneral-Regular-2d" x="388.799881"/>
      <use xlink:href="#STIXGeneral-Regular-76" x="422.099869"/>
      <use xlink:href="#STIXGeneral-Regular-32" x="472.099854"/>
     </g>
    </g>
    <g id="line2d_32">
     <path d="M 83 124.927 
L 97 124.927 
L 111 124.927 
" style="fill: none; stroke: #9467bd; stroke-width: 1.5; stroke-linecap: square"/>
    </g>
    <g id="text_20">
     <!-- door-unlock-v2 -->
     <g transform="translate(122.2 129.827)scale(0.14 -0.14)">
      <use xlink:href="#STIXGeneral-Regular-64"/>
      <use xlink:href="#STIXGeneral-Regular-6f" x="49.999985"/>
      <use xlink:href="#STIXGeneral-Regular-6f" x="99.999969"/>
      <use xlink:href="#STIXGeneral-Regular-72" x="149.999954"/>
      <use xlink:href="#STIXGeneral-Regular-2d" x="183.299942"/>
      <use xlink:href="#STIXGeneral-Regular-75" x="216.59993"/>
      <use xlink:href="#STIXGeneral-Regular-6e" x="266.599915"/>
      <use xlink:href="#STIXGeneral-Regular-6c" x="316.599899"/>
      <use xlink:href="#STIXGeneral-Regular-6f" x="344.399887"/>
      <use xlink:href="#STIXGeneral-Regular-63" x="394.399872"/>
      <use xlink:href="#STIXGeneral-Regular-6b" x="438.799866"/>
      <use xlink:href="#STIXGeneral-Regular-2d" x="488.79985"/>
      <use xlink:href="#STIXGeneral-Regular-76" x="522.099838"/>
      <use xlink:href="#STIXGeneral-Regular-32" x="572.099823"/>
     </g>
    </g>
   </g>
  </g>
 </g>
 <defs>
  <clipPath id="pa3a2610c45">
   <rect x="70.4" y="28.060125" width="446.4" height="277.2"/>
  </clipPath>
 </defs>
</svg>
