<?xml version="1.0" encoding="utf-8" standalone="no"?>
<!DOCTYPE svg PUBLIC "-//W3C//DTD SVG 1.1//EN"
  "http://www.w3.org/Graphics/SVG/1.1/DTD/svg11.dtd">
<svg xmlns:xlink="http://www.w3.org/1999/xlink" width="519.5pt" height="355.877pt" viewBox="0 0 519.5 355.877" xmlns="http://www.w3.org/2000/svg" version="1.1">
 <metadata>
  <rdf:RDF xmlns:dc="http://purl.org/dc/elements/1.1/" xmlns:cc="http://creativecommons.org/ns#" xmlns:rdf="http://www.w3.org/1999/02/22-rdf-syntax-ns#">
   <cc:Work>
    <dc:type rdf:resource="http://purl.org/dc/dcmitype/StillImage"/>
    <dc:date>2021-12-11T16:37:48.319399</dc:date>
    <dc:format>image/svg+xml</dc:format>
    <dc:creator>
     <cc:Agent>
      <dc:title>Matplotlib v3.5.0, https://matplotlib.org/</dc:title>
     </cc:Agent>
    </dc:creator>
   </cc:Work>
  </rdf:RDF>
 </metadata>
 <defs>
  <style type="text/css">*{stroke-linejoin: round; stroke-linecap: butt}</style>
 </defs>
 <g id="figure_1">
  <g id="patch_1">
   <path d="M 0 355.877 
L 519.5 355.877 
L 519.5 0 
L 0 0 
z
" style="fill: #ffffff"/>
  </g>
  <g id="axes_1">
   <g id="patch_2">
    <path d="M 65.9 305.260125 
L 512.3 305.260125 
L 512.3 28.060125 
L 65.9 28.060125 
z
" style="fill: #ffffff"/>
   </g>
   <g id="matplotlib.axis_1">
    <g id="xtick_1">
     <g id="line2d_1">
      <path d="M 84.441693 305.260125 
L 84.441693 28.060125 
" clip-path="url(#pb9b6d2a14a)" style="fill: none; stroke: #b0b0b0; stroke-width: 0.8; stroke-linecap: square"/>
     </g>
     <g id="line2d_2">
      <defs>
       <path id="mb8f951cf21" d="M 0 0 
L 0 3.5 
" style="stroke: #000000; stroke-width: 0.8"/>
      </defs>
      <g>
       <use xlink:href="#mb8f951cf21" x="84.441693" y="305.260125" style="stroke: #000000; stroke-width: 0.8"/>
      </g>
     </g>
     <g id="text_1">
      <!-- 0 -->
      <g transform="translate(79.941693 324.553562)scale(0.18 -0.18)">
       <defs>
        <path id="STIXGeneral-Regular-30" d="M 3046 2112 
Q 3046 1683 2963 1302 
Q 2880 922 2717 602 
Q 2554 282 2266 96 
Q 1978 -90 1600 -90 
Q 1210 -90 915 108 
Q 621 307 461 640 
Q 301 973 227 1350 
Q 154 1728 154 2150 
Q 154 2746 301 3222 
Q 448 3699 790 4012 
Q 1133 4326 1626 4326 
Q 2253 4326 2649 3712 
Q 3046 3098 3046 2112 
z
M 2432 2080 
Q 2432 3091 2217 3625 
Q 2003 4160 1587 4160 
Q 1190 4160 979 3622 
Q 768 3085 768 2106 
Q 768 1120 979 598 
Q 1190 77 1600 77 
Q 2003 77 2217 598 
Q 2432 1120 2432 2080 
z
" transform="scale(0.015625)"/>
       </defs>
       <use xlink:href="#STIXGeneral-Regular-30"/>
      </g>
     </g>
    </g>
    <g id="xtick_2">
     <g id="line2d_3">
      <path d="M 170.822745 305.260125 
L 170.822745 28.060125 
" clip-path="url(#pb9b6d2a14a)" style="fill: none; stroke: #b0b0b0; stroke-width: 0.8; stroke-linecap: square"/>
     </g>
     <g id="line2d_4">
      <g>
       <use xlink:href="#mb8f951cf21" x="170.822745" y="305.260125" style="stroke: #000000; stroke-width: 0.8"/>
      </g>
     </g>
     <g id="text_2">
      <!-- 1 -->
      <g transform="translate(166.322745 324.553562)scale(0.18 -0.18)">
       <defs>
        <path id="STIXGeneral-Regular-31" d="M 2522 0 
L 755 0 
L 755 96 
Q 1107 115 1235 227 
Q 1363 339 1363 608 
L 1363 3482 
Q 1363 3795 1171 3795 
Q 1082 3795 883 3718 
L 710 3654 
L 710 3744 
L 1856 4326 
L 1914 4307 
L 1914 486 
Q 1914 275 2042 185 
Q 2170 96 2522 96 
L 2522 0 
z
" transform="scale(0.015625)"/>
       </defs>
       <use xlink:href="#STIXGeneral-Regular-31"/>
      </g>
     </g>
    </g>
    <g id="xtick_3">
     <g id="line2d_5">
      <path d="M 257.203797 305.260125 
L 257.203797 28.060125 
" clip-path="url(#pb9b6d2a14a)" style="fill: none; stroke: #b0b0b0; stroke-width: 0.8; stroke-linecap: square"/>
     </g>
     <g id="line2d_6">
      <g>
       <use xlink:href="#mb8f951cf21" x="257.203797" y="305.260125" style="stroke: #000000; stroke-width: 0.8"/>
      </g>
     </g>
     <g id="text_3">
      <!-- 2 -->
      <g transform="translate(252.703797 324.553562)scale(0.18 -0.18)">
       <defs>
        <path id="STIXGeneral-Regular-32" d="M 3034 877 
L 2688 0 
L 186 0 
L 186 77 
L 1325 1286 
Q 1773 1754 1965 2144 
Q 2157 2534 2157 2950 
Q 2157 3379 1920 3616 
Q 1683 3853 1267 3853 
Q 922 3853 720 3673 
Q 518 3494 326 3021 
L 192 3053 
Q 301 3648 630 3987 
Q 960 4326 1523 4326 
Q 2054 4326 2380 4006 
Q 2707 3686 2707 3200 
Q 2707 2477 1888 1613 
L 832 486 
L 2330 486 
Q 2541 486 2665 569 
Q 2790 653 2944 915 
L 3034 877 
z
" transform="scale(0.015625)"/>
       </defs>
       <use xlink:href="#STIXGeneral-Regular-32"/>
      </g>
     </g>
    </g>
    <g id="xtick_4">
     <g id="line2d_7">
      <path d="M 343.584848 305.260125 
L 343.584848 28.060125 
" clip-path="url(#pb9b6d2a14a)" style="fill: none; stroke: #b0b0b0; stroke-width: 0.8; stroke-linecap: square"/>
     </g>
     <g id="line2d_8">
      <g>
       <use xlink:href="#mb8f951cf21" x="343.584848" y="305.260125" style="stroke: #000000; stroke-width: 0.8"/>
      </g>
     </g>
     <g id="text_4">
      <!-- 3 -->
      <g transform="translate(339.084848 324.553562)scale(0.18 -0.18)">
       <defs>
        <path id="STIXGeneral-Regular-33" d="M 390 3264 
L 288 3290 
Q 435 3770 748 4048 
Q 1062 4326 1542 4326 
Q 1990 4326 2265 4083 
Q 2541 3840 2541 3450 
Q 2541 2925 1946 2566 
Q 2298 2413 2477 2227 
Q 2758 1914 2758 1402 
Q 2758 890 2464 506 
Q 2246 211 1840 60 
Q 1434 -90 979 -90 
Q 262 -90 262 275 
Q 262 378 339 442 
Q 416 506 525 506 
Q 685 506 915 339 
Q 1197 141 1466 141 
Q 1818 141 2058 425 
Q 2298 710 2298 1120 
Q 2298 1856 1632 2048 
Q 1434 2112 979 2112 
L 979 2202 
Q 1338 2323 1517 2432 
Q 2035 2726 2035 3290 
Q 2035 3610 1852 3776 
Q 1670 3942 1344 3942 
Q 768 3942 390 3264 
z
" transform="scale(0.015625)"/>
       </defs>
       <use xlink:href="#STIXGeneral-Regular-33"/>
      </g>
     </g>
    </g>
    <g id="xtick_5">
     <g id="line2d_9">
      <path d="M 429.9659 305.260125 
L 429.9659 28.060125 
" clip-path="url(#pb9b6d2a14a)" style="fill: none; stroke: #b0b0b0; stroke-width: 0.8; stroke-linecap: square"/>
     </g>
     <g id="line2d_10">
      <g>
       <use xlink:href="#mb8f951cf21" x="429.9659" y="305.260125" style="stroke: #000000; stroke-width: 0.8"/>
      </g>
     </g>
     <g id="text_5">
      <!-- 4 -->
      <g transform="translate(425.4659 324.553562)scale(0.18 -0.18)">
       <defs>
        <path id="STIXGeneral-Regular-34" d="M 3027 1069 
L 2368 1069 
L 2368 0 
L 1869 0 
L 1869 1069 
L 77 1069 
L 77 1478 
L 2086 4326 
L 2368 4326 
L 2368 1478 
L 3027 1478 
L 3027 1069 
z
M 1869 1478 
L 1869 3674 
L 333 1478 
L 1869 1478 
z
" transform="scale(0.015625)"/>
       </defs>
       <use xlink:href="#STIXGeneral-Regular-34"/>
      </g>
     </g>
    </g>
    <g id="text_6">
     <!-- Training Environment Steps -->
     <g transform="translate(187.104688 344.753562)scale(0.18 -0.18)">
      <defs>
       <path id="STIXGeneral-Regular-54" d="M 3795 3149 
L 3642 3149 
Q 3539 3674 3353 3821 
Q 3168 3968 2656 3968 
L 2278 3968 
L 2278 710 
Q 2278 346 2387 243 
Q 2496 141 2893 122 
L 2893 0 
L 1024 0 
L 1024 122 
Q 1427 147 1526 256 
Q 1626 365 1626 787 
L 1626 3968 
L 1242 3968 
Q 723 3968 540 3817 
Q 358 3667 262 3149 
L 109 3149 
L 154 4237 
L 3750 4237 
L 3795 3149 
z
" transform="scale(0.015625)"/>
       <path id="STIXGeneral-Regular-72" d="M 1024 2931 
L 1024 2342 
Q 1267 2688 1430 2816 
Q 1594 2944 1792 2944 
Q 1958 2944 2051 2854 
Q 2144 2765 2144 2605 
Q 2144 2470 2077 2393 
Q 2010 2317 1894 2317 
Q 1773 2317 1638 2445 
Q 1536 2541 1472 2541 
Q 1338 2541 1181 2355 
Q 1024 2170 1024 2016 
L 1024 576 
Q 1024 301 1133 205 
Q 1242 109 1568 96 
L 1568 0 
L 32 0 
L 32 96 
Q 339 154 412 224 
Q 486 294 486 538 
L 486 2138 
Q 486 2349 438 2435 
Q 390 2522 269 2522 
Q 166 2522 45 2496 
L 45 2598 
Q 448 2726 992 2944 
L 1024 2931 
z
" transform="scale(0.015625)"/>
       <path id="STIXGeneral-Regular-61" d="M 2829 422 
L 2829 243 
Q 2586 -64 2253 -64 
Q 1888 -64 1843 403 
L 1837 403 
Q 1427 -64 909 -64 
Q 608 -64 422 112 
Q 237 288 237 602 
Q 237 1050 685 1350 
Q 992 1555 1837 1869 
L 1837 2214 
Q 1837 2502 1699 2646 
Q 1562 2790 1338 2790 
Q 1146 2790 1018 2697 
Q 890 2605 890 2477 
Q 890 2419 909 2348 
Q 928 2278 928 2208 
Q 928 2112 841 2029 
Q 755 1946 634 1946 
Q 525 1946 441 2029 
Q 358 2112 358 2240 
Q 358 2547 685 2752 
Q 986 2944 1421 2944 
Q 1939 2944 2176 2656 
Q 2291 2522 2323 2384 
Q 2355 2246 2355 1946 
L 2355 723 
Q 2355 301 2554 301 
Q 2682 301 2829 422 
z
M 1837 813 
L 1837 1715 
Q 1248 1510 1018 1293 
Q 800 1094 800 800 
Q 800 557 921 432 
Q 1043 307 1242 307 
Q 1453 307 1613 410 
Q 1747 506 1792 589 
Q 1837 672 1837 813 
z
" transform="scale(0.015625)"/>
       <path id="STIXGeneral-Regular-69" d="M 1152 4045 
Q 1152 3904 1056 3811 
Q 960 3718 819 3718 
Q 685 3718 592 3811 
Q 499 3904 499 4045 
Q 499 4179 595 4275 
Q 691 4371 826 4371 
Q 966 4371 1059 4275 
Q 1152 4179 1152 4045 
z
M 1619 0 
L 102 0 
L 102 96 
Q 435 115 521 211 
Q 608 307 608 666 
L 608 2118 
Q 608 2342 563 2432 
Q 518 2522 397 2522 
Q 243 2522 128 2490 
L 128 2592 
L 1120 2944 
L 1146 2918 
L 1146 672 
Q 1146 314 1226 218 
Q 1306 122 1619 96 
L 1619 0 
z
" transform="scale(0.015625)"/>
       <path id="STIXGeneral-Regular-6e" d="M 3104 0 
L 1773 0 
L 1779 96 
Q 2016 115 2096 233 
Q 2176 352 2176 672 
L 2176 1946 
Q 2176 2592 1709 2592 
Q 1549 2592 1408 2515 
Q 1267 2438 1050 2227 
L 1050 461 
Q 1050 269 1136 192 
Q 1222 115 1466 96 
L 1466 0 
L 115 0 
L 115 96 
Q 358 115 435 214 
Q 512 314 512 602 
L 512 2157 
Q 512 2394 467 2483 
Q 422 2573 288 2573 
Q 160 2573 102 2547 
L 102 2656 
Q 550 2784 979 2944 
L 1030 2925 
L 1030 2426 
L 1037 2426 
Q 1491 2944 1958 2944 
Q 2323 2944 2518 2688 
Q 2714 2432 2714 1958 
L 2714 544 
Q 2714 288 2790 205 
Q 2867 122 3104 96 
L 3104 0 
z
" transform="scale(0.015625)"/>
       <path id="STIXGeneral-Regular-67" d="M 3008 2483 
L 2477 2483 
Q 2598 2208 2598 1946 
Q 2598 1453 2265 1203 
Q 1933 954 1600 954 
Q 1530 954 1357 973 
L 1235 986 
Q 1107 947 979 812 
Q 851 678 851 582 
Q 851 435 1350 410 
L 2176 371 
Q 2528 358 2739 172 
Q 2950 -13 2950 -314 
Q 2950 -685 2566 -986 
Q 2035 -1395 1286 -1395 
Q 826 -1395 502 -1212 
Q 179 -1030 179 -774 
Q 179 -595 320 -419 
Q 461 -243 806 6 
Q 602 102 534 172 
Q 467 243 467 346 
Q 467 531 762 787 
Q 909 915 1037 1043 
Q 717 1203 579 1401 
Q 442 1600 442 1901 
Q 442 2336 752 2640 
Q 1062 2944 1510 2944 
Q 1766 2944 2022 2848 
L 2163 2797 
Q 2349 2733 2515 2733 
L 3008 2733 
L 3008 2483 
z
M 973 2163 
L 973 2144 
Q 973 1683 1155 1398 
Q 1338 1114 1632 1114 
Q 1850 1114 1978 1270 
Q 2106 1427 2106 1690 
Q 2106 2112 1914 2464 
Q 1754 2765 1446 2765 
Q 1222 2765 1097 2605 
Q 973 2445 973 2163 
z
M 2771 -410 
Q 2771 -230 2595 -163 
Q 2419 -96 1978 -96 
Q 1344 -96 941 -13 
Q 749 -243 688 -348 
Q 627 -454 627 -563 
Q 627 -774 880 -902 
Q 1133 -1030 1555 -1030 
Q 2099 -1030 2435 -860 
Q 2771 -691 2771 -410 
z
" transform="scale(0.015625)"/>
       <path id="STIXGeneral-Regular-20" transform="scale(0.015625)"/>
       <path id="STIXGeneral-Regular-45" d="M 3821 1082 
L 3526 0 
L 77 0 
L 77 122 
Q 442 147 538 252 
Q 634 358 634 730 
L 634 3520 
Q 634 3878 534 3987 
Q 435 4096 77 4115 
L 77 4237 
L 3469 4237 
L 3494 3322 
L 3334 3322 
Q 3264 3750 3085 3872 
Q 2906 3994 2349 3994 
L 1510 3994 
Q 1370 3994 1328 3952 
Q 1286 3910 1286 3763 
L 1286 2355 
L 2253 2355 
Q 2656 2355 2787 2470 
Q 2918 2586 2976 2970 
L 3123 2970 
L 3123 1472 
L 2976 1472 
Q 2918 1875 2790 1984 
Q 2662 2093 2253 2093 
L 1286 2093 
L 1286 538 
Q 1286 346 1420 291 
Q 1555 237 1933 237 
L 2163 237 
Q 2848 237 3136 403 
Q 3424 570 3642 1082 
L 3821 1082 
z
" transform="scale(0.015625)"/>
       <path id="STIXGeneral-Regular-76" d="M 3053 2880 
L 3053 2784 
Q 2906 2771 2835 2688 
Q 2765 2605 2637 2285 
L 1818 230 
Q 1690 -90 1638 -90 
Q 1587 -90 1523 77 
Q 1510 96 1497 141 
Q 1485 186 1472 211 
L 704 2048 
Q 499 2534 403 2652 
Q 307 2771 122 2784 
L 122 2880 
L 1376 2880 
L 1376 2784 
Q 1210 2771 1146 2732 
Q 1082 2694 1082 2611 
Q 1082 2509 1139 2368 
L 1792 730 
L 2426 2387 
Q 2464 2483 2464 2579 
Q 2464 2758 2163 2784 
L 2163 2880 
L 3053 2880 
z
" transform="scale(0.015625)"/>
       <path id="STIXGeneral-Regular-6f" d="M 3008 1478 
Q 3008 806 2608 371 
Q 2208 -64 1568 -64 
Q 979 -64 582 368 
Q 186 800 186 1459 
Q 186 2125 582 2534 
Q 979 2944 1626 2944 
Q 2221 2944 2614 2537 
Q 3008 2131 3008 1478 
z
M 2432 1306 
Q 2432 2035 2112 2445 
Q 1856 2765 1504 2765 
Q 1171 2765 966 2493 
Q 762 2221 762 1747 
Q 762 928 1101 435 
Q 1318 115 1677 115 
Q 2029 115 2230 432 
Q 2432 749 2432 1306 
z
" transform="scale(0.015625)"/>
       <path id="STIXGeneral-Regular-6d" d="M 4960 0 
L 3565 0 
L 3565 96 
Q 3834 122 3907 208 
Q 3981 294 3981 576 
L 3981 1894 
Q 3981 2278 3869 2444 
Q 3757 2611 3488 2611 
Q 3264 2611 3107 2521 
Q 2950 2432 2803 2221 
L 2803 608 
Q 2803 301 2896 201 
Q 2989 102 3264 96 
L 3264 0 
L 1830 0 
L 1830 96 
Q 2112 115 2189 188 
Q 2266 262 2266 550 
L 2266 1901 
Q 2266 2611 1850 2611 
Q 1670 2611 1468 2531 
Q 1267 2451 1171 2336 
Q 1088 2240 1088 2227 
L 1088 448 
Q 1088 243 1177 176 
Q 1267 109 1523 96 
L 1523 0 
L 102 0 
L 102 96 
Q 371 102 460 195 
Q 550 288 550 563 
L 550 2150 
Q 550 2387 499 2480 
Q 448 2573 326 2573 
Q 230 2573 122 2547 
L 122 2656 
Q 557 2778 1011 2944 
L 1062 2925 
L 1062 2451 
L 1075 2451 
Q 1363 2752 1584 2848 
Q 1805 2944 2054 2944 
Q 2560 2944 2733 2406 
Q 3232 2944 3776 2944 
Q 4518 2944 4518 1792 
L 4518 493 
Q 4518 282 4582 202 
Q 4646 122 4794 109 
L 4960 96 
L 4960 0 
z
" transform="scale(0.015625)"/>
       <path id="STIXGeneral-Regular-65" d="M 2611 1050 
L 2714 1005 
Q 2330 -64 1376 -64 
Q 813 -64 486 329 
Q 160 723 160 1389 
Q 160 2074 525 2509 
Q 890 2944 1485 2944 
Q 2061 2944 2374 2502 
Q 2560 2246 2592 1773 
L 621 1773 
Q 646 1370 700 1158 
Q 755 947 915 730 
Q 1184 378 1626 378 
Q 1939 378 2153 531 
Q 2368 685 2611 1050 
z
M 634 1978 
L 1939 1978 
Q 1882 2381 1750 2547 
Q 1619 2714 1312 2714 
Q 1043 2714 864 2525 
Q 685 2336 634 1978 
z
" transform="scale(0.015625)"/>
       <path id="STIXGeneral-Regular-74" d="M 1702 493 
L 1786 422 
Q 1478 -64 1011 -64 
Q 448 -64 448 749 
L 448 2675 
L 109 2675 
Q 83 2694 83 2720 
Q 83 2771 192 2842 
Q 435 2982 813 3526 
Q 826 3546 874 3606 
Q 922 3667 941 3706 
Q 986 3706 986 3622 
L 986 2880 
L 1632 2880 
L 1632 2675 
L 986 2675 
L 986 845 
Q 986 538 1062 403 
Q 1139 269 1318 269 
Q 1510 269 1702 493 
z
" transform="scale(0.015625)"/>
       <path id="STIXGeneral-Regular-53" d="M 3002 2963 
L 2842 2963 
Q 2733 3360 2579 3565 
Q 2189 4064 1651 4064 
Q 1357 4064 1181 3894 
Q 1005 3725 1005 3456 
Q 1005 3328 1069 3206 
Q 1133 3085 1206 2998 
Q 1280 2912 1465 2784 
Q 1651 2656 1766 2589 
Q 1882 2522 2150 2362 
Q 2669 2061 2905 1763 
Q 3142 1466 3142 1107 
Q 3142 576 2771 243 
Q 2400 -90 1837 -90 
Q 1421 -90 1082 58 
Q 915 128 781 128 
Q 704 128 653 70 
Q 602 13 602 -83 
L 461 -83 
L 275 1274 
L 416 1274 
Q 845 141 1734 141 
Q 2074 141 2285 342 
Q 2496 544 2496 858 
Q 2496 1158 2310 1363 
Q 2003 1696 1235 2106 
Q 454 2522 454 3206 
Q 454 3718 768 4022 
Q 1082 4326 1568 4326 
Q 1907 4326 2240 4186 
Q 2413 4109 2522 4109 
Q 2688 4109 2726 4326 
L 2861 4326 
L 3002 2963 
z
" transform="scale(0.015625)"/>
       <path id="STIXGeneral-Regular-70" d="M 1018 2931 
L 1018 2438 
Q 1421 2944 1939 2944 
Q 2406 2944 2707 2560 
Q 3008 2176 3008 1581 
Q 3008 883 2621 409 
Q 2234 -64 1664 -64 
Q 1466 -64 1328 -6 
Q 1190 51 1018 211 
L 1018 -794 
Q 1018 -1094 1120 -1180 
Q 1222 -1267 1581 -1274 
L 1581 -1389 
L 32 -1389 
L 32 -1280 
Q 314 -1254 397 -1171 
Q 480 -1088 480 -838 
L 480 2157 
Q 480 2381 429 2451 
Q 378 2522 218 2522 
Q 115 2522 58 2515 
L 58 2618 
Q 506 2752 979 2944 
L 1018 2931 
z
M 1018 2138 
L 1018 563 
Q 1018 422 1238 281 
Q 1459 141 1683 141 
Q 2029 141 2243 467 
Q 2458 794 2458 1325 
Q 2458 1888 2243 2224 
Q 2029 2560 1670 2560 
Q 1446 2560 1232 2419 
Q 1018 2278 1018 2138 
z
" transform="scale(0.015625)"/>
       <path id="STIXGeneral-Regular-73" d="M 998 1926 
L 1664 1523 
Q 1984 1331 2105 1164 
Q 2227 998 2227 736 
Q 2227 416 1961 176 
Q 1696 -64 1331 -64 
Q 1030 -64 864 -6 
Q 691 51 570 51 
Q 461 51 416 -26 
L 333 -26 
L 333 979 
L 435 979 
Q 538 512 730 294 
Q 922 77 1248 77 
Q 1485 77 1632 211 
Q 1779 346 1779 550 
Q 1779 845 1440 1030 
L 1094 1222 
Q 326 1651 326 2150 
Q 326 2522 566 2730 
Q 806 2938 1210 2938 
Q 1491 2938 1638 2867 
Q 1754 2816 1818 2816 
Q 1862 2816 1920 2880 
L 1990 2880 
L 2022 2010 
L 1926 2010 
Q 1818 2445 1654 2621 
Q 1491 2797 1203 2797 
Q 986 2797 854 2688 
Q 723 2579 723 2362 
Q 723 2253 796 2128 
Q 870 2003 998 1926 
z
" transform="scale(0.015625)"/>
      </defs>
      <use xlink:href="#STIXGeneral-Regular-54"/>
      <use xlink:href="#STIXGeneral-Regular-72" x="61.099991"/>
      <use xlink:href="#STIXGeneral-Regular-61" x="94.399979"/>
      <use xlink:href="#STIXGeneral-Regular-69" x="138.799973"/>
      <use xlink:href="#STIXGeneral-Regular-6e" x="166.59996"/>
      <use xlink:href="#STIXGeneral-Regular-69" x="216.599945"/>
      <use xlink:href="#STIXGeneral-Regular-6e" x="244.399933"/>
      <use xlink:href="#STIXGeneral-Regular-67" x="294.399918"/>
      <use xlink:href="#STIXGeneral-Regular-20" x="344.399902"/>
      <use xlink:href="#STIXGeneral-Regular-45" x="369.399887"/>
      <use xlink:href="#STIXGeneral-Regular-6e" x="430.499878"/>
      <use xlink:href="#STIXGeneral-Regular-76" x="480.499863"/>
      <use xlink:href="#STIXGeneral-Regular-69" x="530.499847"/>
      <use xlink:href="#STIXGeneral-Regular-72" x="558.299835"/>
      <use xlink:href="#STIXGeneral-Regular-6f" x="591.599823"/>
      <use xlink:href="#STIXGeneral-Regular-6e" x="641.599808"/>
      <use xlink:href="#STIXGeneral-Regular-6d" x="691.599792"/>
      <use xlink:href="#STIXGeneral-Regular-65" x="769.39978"/>
      <use xlink:href="#STIXGeneral-Regular-6e" x="813.799774"/>
      <use xlink:href="#STIXGeneral-Regular-74" x="863.799759"/>
      <use xlink:href="#STIXGeneral-Regular-20" x="891.599747"/>
      <use xlink:href="#STIXGeneral-Regular-53" x="916.599731"/>
      <use xlink:href="#STIXGeneral-Regular-74" x="972.199722"/>
      <use xlink:href="#STIXGeneral-Regular-65" x="999.99971"/>
      <use xlink:href="#STIXGeneral-Regular-70" x="1044.399704"/>
      <use xlink:href="#STIXGeneral-Regular-73" x="1094.399689"/>
     </g>
    </g>
    <g id="text_7">
     <!-- 1e8 -->
     <g transform="translate(486.306875 343.753562)scale(0.18 -0.18)">
      <defs>
       <path id="STIXGeneral-Regular-38" d="M 2848 992 
Q 2848 499 2505 204 
Q 2163 -90 1587 -90 
Q 1050 -90 704 204 
Q 358 499 358 954 
Q 358 1293 524 1533 
Q 691 1773 1190 2125 
Q 710 2522 553 2765 
Q 397 3008 397 3328 
Q 397 3782 745 4054 
Q 1094 4326 1638 4326 
Q 2106 4326 2410 4060 
Q 2714 3795 2714 3411 
Q 2714 3059 2531 2848 
Q 2349 2637 1856 2374 
Q 2432 1990 2640 1689 
Q 2848 1389 2848 992 
z
M 2272 3411 
Q 2272 3744 2086 3945 
Q 1901 4147 1574 4147 
Q 1248 4147 1059 3977 
Q 870 3808 870 3513 
Q 870 3219 1059 2979 
Q 1248 2739 1670 2490 
Q 1997 2682 2134 2896 
Q 2272 3110 2272 3411 
z
M 1734 1741 
L 1357 1997 
Q 1075 1766 960 1545 
Q 845 1325 845 1011 
Q 845 576 1065 333 
Q 1286 90 1658 90 
Q 1971 90 2166 285 
Q 2362 480 2362 794 
Q 2362 1082 2214 1299 
Q 2067 1517 1734 1741 
z
" transform="scale(0.015625)"/>
      </defs>
      <use xlink:href="#STIXGeneral-Regular-31"/>
      <use xlink:href="#STIXGeneral-Regular-65" x="49.999985"/>
      <use xlink:href="#STIXGeneral-Regular-38" x="94.399979"/>
     </g>
    </g>
   </g>
   <g id="matplotlib.axis_2">
    <g id="ytick_1">
     <g id="line2d_11">
      <path d="M 65.9 292.660125 
L 512.3 292.660125 
" clip-path="url(#pb9b6d2a14a)" style="fill: none; stroke: #b0b0b0; stroke-width: 0.8; stroke-linecap: square"/>
     </g>
     <g id="line2d_12">
      <defs>
       <path id="mbaf13ce8e1" d="M 0 0 
L -3.5 0 
" style="stroke: #000000; stroke-width: 0.8"/>
      </defs>
      <g>
       <use xlink:href="#mbaf13ce8e1" x="65.9" y="292.660125" style="stroke: #000000; stroke-width: 0.8"/>
      </g>
     </g>
     <g id="text_8">
      <!-- 0.00 -->
      <g transform="translate(27.4 298.806844)scale(0.18 -0.18)">
       <defs>
        <path id="STIXGeneral-Regular-2e" d="M 1158 275 
Q 1158 134 1052 32 
Q 947 -70 800 -70 
Q 653 -70 550 32 
Q 448 134 448 281 
Q 448 429 553 534 
Q 659 640 806 640 
Q 947 640 1052 531 
Q 1158 422 1158 275 
z
" transform="scale(0.015625)"/>
       </defs>
       <use xlink:href="#STIXGeneral-Regular-30"/>
       <use xlink:href="#STIXGeneral-Regular-2e" x="49.999985"/>
       <use xlink:href="#STIXGeneral-Regular-30" x="74.999969"/>
       <use xlink:href="#STIXGeneral-Regular-30" x="124.999954"/>
      </g>
     </g>
    </g>
    <g id="ytick_2">
     <g id="line2d_13">
      <path d="M 65.9 246.541334 
L 512.3 246.541334 
" clip-path="url(#pb9b6d2a14a)" style="fill: none; stroke: #b0b0b0; stroke-width: 0.8; stroke-linecap: square"/>
     </g>
     <g id="line2d_14">
      <g>
       <use xlink:href="#mbaf13ce8e1" x="65.9" y="246.541334" style="stroke: #000000; stroke-width: 0.8"/>
      </g>
     </g>
     <g id="text_9">
      <!-- 0.05 -->
      <g transform="translate(27.4 252.688052)scale(0.18 -0.18)">
       <defs>
        <path id="STIXGeneral-Regular-35" d="M 2803 4358 
L 2573 3814 
Q 2534 3731 2400 3731 
L 1158 3731 
L 902 3187 
Q 1606 3053 1920 2896 
Q 2234 2739 2502 2368 
Q 2726 2061 2726 1555 
Q 2726 1094 2576 780 
Q 2426 467 2099 224 
Q 1664 -90 1011 -90 
Q 646 -90 422 19 
Q 198 128 198 307 
Q 198 550 486 550 
Q 717 550 960 352 
Q 1210 147 1414 147 
Q 1747 147 2012 480 
Q 2278 813 2278 1229 
Q 2278 1843 1850 2189 
Q 1293 2637 486 2637 
Q 410 2637 410 2688 
L 416 2720 
L 1114 4237 
L 2438 4237 
Q 2547 4237 2608 4269 
Q 2669 4301 2746 4403 
L 2803 4358 
z
" transform="scale(0.015625)"/>
       </defs>
       <use xlink:href="#STIXGeneral-Regular-30"/>
       <use xlink:href="#STIXGeneral-Regular-2e" x="49.999985"/>
       <use xlink:href="#STIXGeneral-Regular-30" x="74.999969"/>
       <use xlink:href="#STIXGeneral-Regular-35" x="124.999954"/>
      </g>
     </g>
    </g>
    <g id="ytick_3">
     <g id="line2d_15">
      <path d="M 65.9 200.422542 
L 512.3 200.422542 
" clip-path="url(#pb9b6d2a14a)" style="fill: none; stroke: #b0b0b0; stroke-width: 0.8; stroke-linecap: square"/>
     </g>
     <g id="line2d_16">
      <g>
       <use xlink:href="#mbaf13ce8e1" x="65.9" y="200.422542" style="stroke: #000000; stroke-width: 0.8"/>
      </g>
     </g>
     <g id="text_10">
      <!-- 0.10 -->
      <g transform="translate(27.4 206.569261)scale(0.18 -0.18)">
       <use xlink:href="#STIXGeneral-Regular-30"/>
       <use xlink:href="#STIXGeneral-Regular-2e" x="49.999985"/>
       <use xlink:href="#STIXGeneral-Regular-31" x="74.999969"/>
       <use xlink:href="#STIXGeneral-Regular-30" x="124.999954"/>
      </g>
     </g>
    </g>
    <g id="ytick_4">
     <g id="line2d_17">
      <path d="M 65.9 154.303751 
L 512.3 154.303751 
" clip-path="url(#pb9b6d2a14a)" style="fill: none; stroke: #b0b0b0; stroke-width: 0.8; stroke-linecap: square"/>
     </g>
     <g id="line2d_18">
      <g>
       <use xlink:href="#mbaf13ce8e1" x="65.9" y="154.303751" style="stroke: #000000; stroke-width: 0.8"/>
      </g>
     </g>
     <g id="text_11">
      <!-- 0.15 -->
      <g transform="translate(27.4 160.45047)scale(0.18 -0.18)">
       <use xlink:href="#STIXGeneral-Regular-30"/>
       <use xlink:href="#STIXGeneral-Regular-2e" x="49.999985"/>
       <use xlink:href="#STIXGeneral-Regular-31" x="74.999969"/>
       <use xlink:href="#STIXGeneral-Regular-35" x="124.999954"/>
      </g>
     </g>
    </g>
    <g id="ytick_5">
     <g id="line2d_19">
      <path d="M 65.9 108.18496 
L 512.3 108.18496 
" clip-path="url(#pb9b6d2a14a)" style="fill: none; stroke: #b0b0b0; stroke-width: 0.8; stroke-linecap: square"/>
     </g>
     <g id="line2d_20">
      <g>
       <use xlink:href="#mbaf13ce8e1" x="65.9" y="108.18496" style="stroke: #000000; stroke-width: 0.8"/>
      </g>
     </g>
     <g id="text_12">
      <!-- 0.20 -->
      <g transform="translate(27.4 114.331679)scale(0.18 -0.18)">
       <use xlink:href="#STIXGeneral-Regular-30"/>
       <use xlink:href="#STIXGeneral-Regular-2e" x="49.999985"/>
       <use xlink:href="#STIXGeneral-Regular-32" x="74.999969"/>
       <use xlink:href="#STIXGeneral-Regular-30" x="124.999954"/>
      </g>
     </g>
    </g>
    <g id="ytick_6">
     <g id="line2d_21">
      <path d="M 65.9 62.066169 
L 512.3 62.066169 
" clip-path="url(#pb9b6d2a14a)" style="fill: none; stroke: #b0b0b0; stroke-width: 0.8; stroke-linecap: square"/>
     </g>
     <g id="line2d_22">
      <g>
       <use xlink:href="#mbaf13ce8e1" x="65.9" y="62.066169" style="stroke: #000000; stroke-width: 0.8"/>
      </g>
     </g>
     <g id="text_13">
      <!-- 0.25 -->
      <g transform="translate(27.4 68.212887)scale(0.18 -0.18)">
       <use xlink:href="#STIXGeneral-Regular-30"/>
       <use xlink:href="#STIXGeneral-Regular-2e" x="49.999985"/>
       <use xlink:href="#STIXGeneral-Regular-32" x="74.999969"/>
       <use xlink:href="#STIXGeneral-Regular-35" x="124.999954"/>
      </g>
     </g>
    </g>
    <g id="text_14">
     <!-- Success Rate -->
     <g transform="translate(19.493438 213.9045)rotate(-90)scale(0.18 -0.18)">
      <defs>
       <path id="STIXGeneral-Regular-75" d="M 3072 320 
L 3072 230 
Q 2573 96 2195 -58 
L 2163 -38 
L 2163 486 
L 2150 486 
Q 1747 -64 1235 -64 
Q 870 -64 662 160 
Q 454 384 454 755 
L 454 2362 
Q 454 2598 371 2688 
Q 288 2778 58 2790 
L 58 2880 
L 992 2880 
L 992 813 
Q 992 595 1123 451 
Q 1254 307 1446 307 
Q 1760 307 1984 506 
Q 2067 582 2099 649 
Q 2131 717 2131 877 
L 2131 2355 
Q 2131 2605 2041 2678 
Q 1952 2752 1658 2771 
L 1658 2880 
L 2669 2880 
L 2669 685 
Q 2669 461 2742 390 
Q 2816 320 3034 320 
L 3072 320 
z
" transform="scale(0.015625)"/>
       <path id="STIXGeneral-Regular-63" d="M 2547 998 
L 2637 941 
Q 2362 403 2112 205 
Q 1786 -64 1376 -64 
Q 845 -64 502 336 
Q 160 736 160 1357 
Q 160 2170 698 2618 
Q 1094 2944 1562 2944 
Q 1965 2944 2256 2749 
Q 2547 2554 2547 2285 
Q 2547 2176 2457 2096 
Q 2368 2016 2246 2016 
Q 2022 2016 1939 2310 
L 1901 2451 
Q 1850 2630 1773 2694 
Q 1696 2758 1523 2758 
Q 1133 2758 893 2451 
Q 653 2144 653 1645 
Q 653 1094 928 745 
Q 1203 397 1645 397 
Q 1920 397 2118 528 
Q 2317 659 2547 998 
z
" transform="scale(0.015625)"/>
       <path id="STIXGeneral-Regular-52" d="M 4224 0 
L 3187 0 
L 1664 1971 
L 1306 1958 
L 1306 717 
Q 1306 352 1405 249 
Q 1504 147 1875 122 
L 1875 0 
L 109 0 
L 109 122 
Q 474 154 563 262 
Q 653 371 653 794 
L 653 3526 
Q 653 3885 563 3987 
Q 474 4090 109 4115 
L 109 4237 
L 1850 4237 
Q 2726 4237 3187 3859 
Q 3501 3603 3501 3091 
Q 3501 2221 2342 2042 
L 3622 422 
Q 3757 256 3878 198 
Q 4000 141 4224 122 
L 4224 0 
z
M 1306 3731 
L 1306 2195 
Q 1766 2202 1990 2246 
Q 2214 2291 2438 2413 
Q 2803 2618 2803 3142 
Q 2803 4000 1632 4000 
Q 1459 4000 1382 3945 
Q 1306 3891 1306 3731 
z
" transform="scale(0.015625)"/>
      </defs>
      <use xlink:href="#STIXGeneral-Regular-53"/>
      <use xlink:href="#STIXGeneral-Regular-75" x="55.599991"/>
      <use xlink:href="#STIXGeneral-Regular-63" x="105.599976"/>
      <use xlink:href="#STIXGeneral-Regular-63" x="149.999969"/>
      <use xlink:href="#STIXGeneral-Regular-65" x="194.399963"/>
      <use xlink:href="#STIXGeneral-Regular-73" x="238.799957"/>
      <use xlink:href="#STIXGeneral-Regular-73" x="277.699951"/>
      <use xlink:href="#STIXGeneral-Regular-20" x="316.599945"/>
      <use xlink:href="#STIXGeneral-Regular-52" x="341.59993"/>
      <use xlink:href="#STIXGeneral-Regular-61" x="408.299927"/>
      <use xlink:href="#STIXGeneral-Regular-74" x="452.699921"/>
      <use xlink:href="#STIXGeneral-Regular-65" x="480.499908"/>
     </g>
    </g>
   </g>
   <g id="line2d_23">
    <path d="M 86.190909 292.660125 
L 492.009091 292.660125 
L 492.009091 292.660125 
" clip-path="url(#pb9b6d2a14a)" style="fill: none; stroke: #1f77b4; stroke-width: 1.5; stroke-linecap: square"/>
   </g>
   <g id="line2d_24">
    <path d="M 86.190909 292.660125 
L 91.438558 292.660125 
L 93.187774 285.281119 
L 94.936991 288.232721 
L 96.686207 290.003683 
L 98.435423 291.06626 
L 100.184639 284.324799 
L 101.933856 287.65893 
L 103.683072 289.659408 
L 105.432288 290.859695 
L 107.181505 291.579867 
L 108.930721 284.632964 
L 110.679937 287.843828 
L 112.429154 289.770347 
L 114.17837 290.926258 
L 115.927586 291.619805 
L 117.676803 292.035933 
L 121.175235 292.435416 
L 122.924451 285.146293 
L 124.673668 288.151826 
L 126.422884 289.955146 
L 128.1721 291.037137 
L 129.921317 291.686332 
L 131.670533 292.075849 
L 135.168966 292.449786 
L 136.918182 285.154915 
L 138.667398 288.156999 
L 140.416614 289.958249 
L 142.165831 291.039 
L 143.915047 291.68745 
L 145.664263 292.07652 
L 149.162696 292.450027 
L 154.410345 292.614744 
L 168.404075 292.659363 
L 217.382132 292.660125 
L 219.131348 285.281119 
L 220.880564 288.232721 
L 222.629781 290.003683 
L 224.378997 291.06626 
L 226.128213 291.703806 
L 227.877429 292.086333 
L 231.375862 292.45356 
L 236.623511 292.615507 
L 240.121944 292.644063 
L 241.87116 285.271481 
L 243.620376 288.226939 
L 245.369592 282.621207 
L 247.118809 286.636774 
L 248.868025 281.667108 
L 250.617241 278.685308 
L 252.366458 276.896229 
L 254.115674 283.201787 
L 255.86489 286.985122 
L 257.614107 289.255123 
L 259.363323 290.617124 
L 261.112539 291.434324 
L 262.861755 291.924645 
L 264.610972 284.83983 
L 266.360188 280.588942 
L 268.109404 285.417415 
L 269.858621 288.314499 
L 271.607837 290.052749 
L 273.357053 291.0957 
L 275.10627 291.72147 
L 276.855486 292.096932 
L 280.353918 292.457375 
L 282.103135 285.159469 
L 283.852351 280.780725 
L 285.601567 285.532485 
L 287.350784 281.004535 
L 289.1 285.666771 
L 290.849216 288.464112 
L 292.598433 282.763511 
L 294.347649 286.722157 
L 296.096865 289.097344 
L 297.846082 283.14345 
L 299.595298 286.95012 
L 301.344514 289.234122 
L 303.09373 290.604523 
L 304.842947 291.426764 
L 306.592163 291.920108 
L 308.341379 292.216115 
L 311.839812 292.500281 
L 317.087461 292.625599 
L 324.084326 292.65565 
L 325.833542 285.278434 
L 327.582759 288.23111 
L 329.331975 290.002716 
L 331.081191 291.06568 
L 332.830408 291.703458 
L 334.579624 284.707118 
L 336.32884 287.888321 
L 338.078056 282.418036 
L 339.827273 279.135865 
L 341.576489 277.166563 
L 343.325705 283.363988 
L 345.074922 272.32443 
L 346.824138 280.458708 
L 348.573354 285.339275 
L 350.322571 280.888608 
L 352.071787 285.597215 
L 353.821003 288.422379 
L 355.570219 290.117477 
L 357.319436 291.134536 
L 359.068652 291.744772 
L 360.817868 284.731907 
L 362.567085 287.903194 
L 364.316301 289.805966 
L 366.065517 283.568623 
L 367.814734 287.205224 
L 369.56395 289.387184 
L 371.313166 290.696361 
L 373.062382 291.481866 
L 374.811599 284.574163 
L 376.560815 287.808548 
L 378.310031 289.749179 
L 380.059248 283.534551 
L 381.808464 287.184781 
L 383.55768 289.374918 
L 385.306897 290.689001 
L 387.056113 291.477451 
L 388.805329 284.571514 
L 390.554545 287.806958 
L 392.303762 289.748225 
L 394.052978 290.912985 
L 395.802194 291.611841 
L 397.551411 284.652148 
L 399.300627 287.855339 
L 401.049843 282.398247 
L 402.79906 279.123992 
L 404.548276 284.538445 
L 406.297492 280.408111 
L 408.046708 285.308916 
L 409.795925 288.2494 
L 411.545141 290.01369 
L 413.294357 291.072264 
L 415.043574 284.328402 
L 416.79279 280.282085 
L 418.542006 285.233301 
L 420.291223 288.20403 
L 422.040439 289.986468 
L 423.789655 291.055931 
L 425.538871 291.697609 
L 427.288088 292.082615 
L 430.78652 292.452221 
L 436.034169 292.615218 
L 446.529467 292.65803 
L 448.278683 285.279861 
L 450.0279 280.85296 
L 451.777116 285.575826 
L 453.526332 288.409546 
L 455.275549 290.109777 
L 457.024765 291.129916 
L 458.773981 291.742 
L 460.523197 292.10925 
L 464.02163 292.46181 
L 469.269279 292.617289 
L 471.018495 285.255417 
L 472.767712 288.2173 
L 474.516928 289.99443 
L 476.266144 283.681702 
L 478.015361 287.273071 
L 479.764577 289.427893 
L 481.513793 290.720786 
L 483.263009 291.496521 
L 485.012226 291.961963 
L 488.510658 292.408787 
L 492.009091 292.569643 
L 492.009091 292.569643 
" clip-path="url(#pb9b6d2a14a)" style="fill: none; stroke: #ff7f0e; stroke-width: 1.5; stroke-linecap: square"/>
   </g>
   <g id="line2d_25">
    <path d="M 86.190909 274.212609 
L 87.940125 281.591615 
L 89.689342 278.640013 
L 91.438558 284.248058 
L 93.187774 287.612885 
L 94.936991 282.252774 
L 96.686207 286.415715 
L 98.435423 288.913479 
L 100.184639 290.412137 
L 101.933856 291.311332 
L 103.683072 291.850849 
L 105.432288 292.17456 
L 108.930721 292.485321 
L 114.17837 292.622367 
L 124.673668 292.658363 
L 126.422884 285.280062 
L 128.1721 288.232087 
L 129.921317 290.003302 
L 131.670533 283.687025 
L 133.419749 272.518252 
L 135.168966 273.195995 
L 136.918182 280.981647 
L 138.667398 278.274032 
L 140.416614 284.028469 
L 142.165831 280.102125 
L 143.915047 285.125325 
L 145.664263 288.139245 
L 147.41348 289.947597 
L 149.162696 291.032608 
L 150.911912 291.683615 
L 152.661129 292.074219 
L 156.159561 292.449199 
L 159.657994 292.584192 
L 161.40721 285.235559 
L 163.156426 288.205385 
L 164.905643 289.987281 
L 166.654859 291.056419 
L 168.404075 291.697901 
L 170.153292 292.082791 
L 173.651724 292.452285 
L 178.899373 292.615231 
L 192.893103 292.659371 
L 282.103135 292.660125 
L 283.852351 285.281119 
L 285.601567 280.853715 
L 287.350784 285.576279 
L 289.1 288.409817 
L 290.849216 290.10994 
L 292.598433 291.130014 
L 294.347649 291.742059 
L 296.096865 292.109285 
L 299.595298 292.461823 
L 304.842947 292.617292 
L 311.839812 292.654574 
L 313.589028 285.277788 
L 315.338245 288.230723 
L 317.087461 290.002484 
L 318.836677 291.06554 
L 320.585893 291.703374 
L 322.33511 292.086074 
L 325.833542 292.453467 
L 327.582759 285.157124 
L 329.331975 288.158324 
L 331.081191 289.959045 
L 332.830408 291.039477 
L 334.579624 291.687736 
L 336.32884 292.076692 
L 339.827273 292.450089 
L 345.074922 292.614757 
L 359.068652 292.659363 
L 492.009091 292.660125 
L 492.009091 292.660125 
" clip-path="url(#pb9b6d2a14a)" style="fill: none; stroke: #2ca02c; stroke-width: 1.5; stroke-linecap: square"/>
   </g>
   <g id="line2d_26">
    <path d="M 86.190909 218.870061 
L 87.940125 226.249067 
L 89.689342 223.297464 
L 91.438558 236.284516 
L 93.187774 229.318734 
L 94.936991 225.139264 
L 96.686207 207.87357 
L 98.435423 204.893158 
L 100.184639 203.104911 
L 101.933856 194.652958 
L 103.683072 196.960791 
L 105.432288 198.345491 
L 107.181505 199.176311 
L 108.930721 207.053811 
L 110.679937 197.022298 
L 112.429154 198.382395 
L 114.17837 199.198454 
L 115.927586 207.067096 
L 117.676803 204.409274 
L 119.426019 195.435576 
L 121.175235 204.80937 
L 122.924451 203.054638 
L 124.673668 179.864781 
L 126.422884 158.571857 
L 128.1721 153.175113 
L 129.921317 164.695079 
L 131.670533 178.986064 
L 133.419749 172.802642 
L 135.168966 161.713584 
L 136.918182 162.439154 
L 138.667398 148.11648 
L 140.416614 146.901887 
L 142.165831 146.17313 
L 143.915047 160.49389 
L 145.664263 154.328332 
L 147.41348 180.145024 
L 149.162696 151.360997 
L 150.911912 156.227602 
L 152.661129 144.389549 
L 154.410345 115.149702 
L 156.159561 134.500825 
L 157.908777 138.732493 
L 159.657994 148.6505 
L 161.40721 139.843288 
L 163.156426 134.55896 
L 164.905643 146.14638 
L 166.654859 160.477839 
L 168.404075 176.45572 
L 170.153292 186.042448 
L 171.902508 184.41548 
L 173.651724 183.4393 
L 175.40094 182.853591 
L 177.150157 189.881171 
L 178.899373 186.718714 
L 180.648589 184.82124 
L 182.397806 191.06176 
L 184.147022 172.669055 
L 185.896238 183.770449 
L 187.645455 183.052281 
L 189.394671 190.000385 
L 191.143887 179.411235 
L 192.893103 187.815757 
L 194.64232 192.858471 
L 196.391536 195.884099 
L 198.140752 197.699476 
L 199.889969 184.030689 
L 201.639185 183.208425 
L 203.388401 182.715066 
L 205.137618 175.040043 
L 206.886834 163.056024 
L 208.63605 163.244618 
L 210.385266 178.115787 
L 212.134483 187.038489 
L 213.883699 185.013105 
L 215.632915 161.660851 
L 217.382132 155.028509 
L 219.131348 165.807117 
L 220.880564 164.895274 
L 222.629781 156.969163 
L 224.378997 152.213496 
L 226.128213 164.118109 
L 227.877429 178.639882 
L 229.626646 165.215928 
L 231.375862 149.782544 
L 233.125078 155.28053 
L 234.874295 143.821306 
L 236.623511 136.945772 
L 238.372727 140.199461 
L 240.121944 149.53068 
L 241.87116 132.992391 
L 243.620376 152.585446 
L 245.369592 120.06724 
L 247.118809 122.693332 
L 248.868025 116.889982 
L 250.617241 98.649962 
L 252.366458 102.46396 
L 254.115674 89.994349 
L 255.86489 97.270592 
L 257.614107 116.394354 
L 259.363323 113.110595 
L 261.112539 96.38233 
L 262.861755 93.724376 
L 264.610972 99.508608 
L 266.360188 110.358153 
L 268.109404 116.86788 
L 269.858621 106.015706 
L 271.607837 114.262411 
L 273.357053 97.073419 
L 275.10627 101.518035 
L 276.855486 67.289767 
L 278.604702 83.647843 
L 280.353918 71.325674 
L 282.103135 41.795351 
L 283.852351 60.972188 
L 285.601567 87.236301 
L 287.350784 88.236758 
L 289.1 96.216038 
L 290.849216 71.48758 
L 292.598433 64.029516 
L 294.347649 52.175666 
L 296.096865 67.200378 
L 297.846082 76.215204 
L 299.595298 89.003105 
L 301.344514 74.538831 
L 303.09373 87.997281 
L 304.842947 51.798316 
L 306.592163 44.836947 
L 308.341379 40.660125 
L 310.090596 45.533043 
L 311.839812 55.835798 
L 313.589028 54.638447 
L 315.338245 68.678046 
L 317.087461 99.238826 
L 318.836677 102.817278 
L 320.585893 104.96435 
L 322.33511 76.736567 
L 324.084326 59.799897 
L 325.833542 86.532926 
L 327.582759 102.572744 
L 329.331975 90.059619 
L 331.081191 104.688759 
L 332.830408 120.845254 
L 334.579624 101.023125 
L 336.32884 103.887858 
L 338.078056 90.848687 
L 339.827273 105.1622 
L 341.576489 128.508324 
L 343.325705 127.757982 
L 345.074922 127.307777 
L 346.824138 119.658649 
L 348.573354 137.206193 
L 350.322571 147.734719 
L 352.071787 154.051835 
L 353.821003 120.947074 
L 355.570219 123.221232 
L 359.068652 82.606195 
L 360.817868 100.216705 
L 362.567085 81.266991 
L 364.316301 92.034177 
L 366.065517 120.63151 
L 367.814734 130.410904 
L 369.56395 106.762515 
L 371.313166 107.331492 
L 373.062382 129.809899 
L 374.811599 113.780917 
L 376.560815 141.058562 
L 378.310031 150.04614 
L 380.059248 162.817696 
L 381.808464 170.480629 
L 383.55768 160.320376 
L 385.306897 161.603229 
L 387.056113 169.751949 
L 388.805329 152.504157 
L 390.554545 164.292506 
L 392.303762 178.74452 
L 394.052978 172.657715 
L 395.802194 176.384641 
L 397.551411 178.620796 
L 399.300627 172.583481 
L 401.049843 161.582087 
L 402.79906 162.360256 
L 404.548276 155.448152 
L 406.297492 143.921879 
L 408.046708 151.764131 
L 409.795925 141.711466 
L 411.545141 157.816891 
L 413.294357 160.101138 
L 415.043574 161.471687 
L 416.79279 169.673023 
L 418.542006 167.214817 
L 420.291223 158.360889 
L 422.040439 145.669521 
L 423.789655 160.191724 
L 425.538871 154.147033 
L 427.288088 165.278231 
L 429.037304 157.198937 
L 430.78652 159.730366 
L 432.535737 161.249223 
L 434.284953 176.91855 
L 436.034169 178.941141 
L 437.783386 158.017673 
L 439.532602 167.600615 
L 441.281818 180.729385 
L 443.031034 181.227643 
L 444.780251 188.905602 
L 446.529467 193.512378 
L 448.278683 188.897438 
L 450.0279 178.749466 
L 451.777116 180.039691 
L 453.526332 158.676803 
L 455.275549 167.996093 
L 457.024765 158.829654 
L 458.773981 160.708796 
L 460.523197 154.457276 
L 462.272414 158.085369 
L 464.02163 160.262225 
L 465.770846 154.189334 
L 467.520063 157.924604 
L 469.269279 138.028745 
L 471.018495 148.228251 
L 472.767712 146.968949 
L 474.516928 131.455352 
L 476.266144 144.284215 
L 478.015361 115.086502 
L 479.764577 112.325884 
L 481.513793 147.564547 
L 483.263009 139.191716 
L 485.012226 141.547028 
L 486.761442 142.960215 
L 488.510658 158.566141 
L 490.259875 138.413667 
L 492.009091 148.459204 
L 492.009091 148.459204 
" clip-path="url(#pb9b6d2a14a)" style="fill: none; stroke: #d62728; stroke-width: 1.5; stroke-linecap: square"/>
   </g>
   <g id="line2d_27">
    <path d="M 86.190909 292.660125 
L 105.432288 292.660125 
L 107.181505 285.281119 
L 108.930721 288.232721 
L 110.679937 290.003683 
L 112.429154 291.06626 
L 114.17837 284.324799 
L 115.927586 287.65893 
L 117.676803 289.659408 
L 119.426019 290.859695 
L 121.175235 291.579867 
L 122.924451 292.01197 
L 124.673668 284.892226 
L 126.422884 287.999385 
L 128.1721 289.863681 
L 129.921317 290.982259 
L 131.670533 291.653405 
L 133.419749 292.056093 
L 135.168966 284.918699 
L 136.918182 280.636263 
L 138.667398 278.066801 
L 140.416614 276.525124 
L 142.165831 282.979125 
L 143.915047 279.472518 
L 145.664263 284.747561 
L 147.41348 287.912587 
L 149.162696 289.811602 
L 150.911912 290.951011 
L 152.661129 284.25565 
L 154.410345 287.61744 
L 156.159561 289.634514 
L 157.908777 290.844758 
L 159.657994 291.570905 
L 161.40721 292.006593 
L 164.905643 292.424853 
L 166.654859 285.139956 
L 168.404075 280.769017 
L 170.153292 285.52546 
L 171.902508 288.379326 
L 173.651724 290.091646 
L 175.40094 291.119037 
L 177.150157 291.735472 
L 178.899373 292.105333 
L 180.648589 284.948244 
L 182.397806 288.032996 
L 184.147022 289.883848 
L 185.896238 290.994359 
L 187.645455 291.660665 
L 189.394671 292.060449 
L 192.893103 292.444242 
L 198.140752 292.613494 
L 199.889969 285.25314 
L 201.639185 288.215934 
L 203.388401 289.99361 
L 205.137618 283.68121 
L 206.886834 287.272776 
L 208.63605 282.048709 
L 210.385266 286.293275 
L 212.134483 288.840015 
L 213.883699 290.368059 
L 215.632915 291.284885 
L 217.382132 291.834981 
L 219.131348 292.165039 
L 222.629781 292.481894 
L 226.128213 292.595962 
L 227.877429 285.242621 
L 229.626646 288.209622 
L 231.375862 289.989823 
L 233.125078 291.057944 
L 234.874295 291.698816 
L 236.623511 292.08334 
L 238.372727 284.935047 
L 240.121944 273.267066 
L 241.87116 281.024289 
L 243.620376 270.920611 
L 245.369592 272.23741 
L 247.118809 280.406496 
L 248.868025 285.307948 
L 250.617241 288.248819 
L 252.366458 290.013341 
L 254.115674 291.072055 
L 255.86489 291.707283 
L 257.614107 284.709413 
L 259.363323 280.510692 
L 261.112539 285.370465 
L 262.861755 273.528316 
L 264.610972 281.18104 
L 266.360188 285.772674 
L 268.109404 281.148648 
L 269.858621 285.753239 
L 271.607837 288.515993 
L 273.357053 290.173646 
L 275.10627 283.789231 
L 276.855486 272.579576 
L 278.604702 273.232789 
L 280.353918 281.003723 
L 282.103135 278.287278 
L 283.852351 284.036417 
L 285.601567 280.106893 
L 287.350784 285.128186 
L 289.1 280.761955 
L 290.849216 285.521223 
L 292.598433 280.997777 
L 294.347649 278.28371 
L 296.096865 284.034276 
L 297.846082 287.484616 
L 299.595298 289.554819 
L 301.344514 290.796942 
L 303.09373 276.784202 
L 304.842947 283.134571 
L 306.592163 272.18678 
L 308.341379 280.376118 
L 310.090596 277.910714 
L 311.839812 276.431472 
L 313.589028 282.922933 
L 315.338245 286.81781 
L 317.087461 289.154736 
L 318.836677 290.556892 
L 320.585893 284.019179 
L 322.33511 287.475557 
L 324.084326 289.549384 
L 325.833542 290.793681 
L 327.582759 284.161252 
L 329.331975 280.181795 
L 331.081191 277.79412 
L 332.830408 283.740522 
L 334.579624 287.308363 
L 336.32884 289.449068 
L 338.078056 290.733491 
L 339.827273 291.504144 
L 341.576489 284.58753 
L 343.325705 280.437562 
L 345.074922 285.326587 
L 346.824138 280.880996 
L 348.573354 285.592647 
L 350.322571 288.419638 
L 352.071787 290.115833 
L 353.821003 291.13355 
L 355.570219 291.74418 
L 357.319436 292.110558 
L 360.817868 292.462281 
L 366.065517 292.617391 
L 367.814734 285.255478 
L 369.56395 288.217337 
L 371.313166 289.994452 
L 373.062382 291.060721 
L 374.811599 291.700483 
L 376.560815 292.08434 
L 380.059248 292.452842 
L 381.808464 292.535755 
L 383.55768 285.206497 
L 385.306897 288.187948 
L 387.056113 282.597812 
L 388.805329 279.243731 
L 390.554545 284.610289 
L 392.303762 280.451217 
L 394.052978 277.955774 
L 395.802194 283.837514 
L 397.551411 287.366558 
L 399.300627 289.483985 
L 401.049843 290.754441 
L 402.79906 291.516715 
L 404.548276 291.974079 
L 406.297492 284.869491 
L 408.046708 287.985744 
L 409.795925 289.855497 
L 411.545141 290.977348 
L 413.294357 291.650459 
L 415.043574 292.054325 
L 418.542006 292.442037 
L 423.789655 292.613018 
L 430.78652 292.65402 
L 432.535737 285.277456 
L 434.284953 288.230523 
L 436.034169 290.002364 
L 437.783386 291.065468 
L 439.532602 291.703331 
L 441.281818 292.086049 
L 443.031034 292.315679 
L 444.780251 285.074451 
L 446.529467 288.108721 
L 448.278683 289.929282 
L 450.0279 291.021619 
L 451.777116 291.677022 
L 453.526332 292.070263 
L 455.275549 284.927201 
L 457.024765 288.020371 
L 458.773981 289.876272 
L 460.523197 290.989813 
L 462.272414 291.657938 
L 464.02163 292.058813 
L 467.520063 292.443653 
L 469.269279 285.151235 
L 471.018495 288.154791 
L 472.767712 282.577918 
L 474.516928 279.231794 
L 476.266144 284.603127 
L 478.015361 287.825926 
L 479.764577 282.380599 
L 481.513793 286.49241 
L 483.263009 288.959496 
L 485.012226 283.060741 
L 486.761442 286.900495 
L 488.510658 281.82534 
L 490.259875 286.159254 
L 492.009091 288.759603 
L 492.009091 288.759603 
" clip-path="url(#pb9b6d2a14a)" style="fill: none; stroke: #9467bd; stroke-width: 1.5; stroke-linecap: square"/>
   </g>
   <g id="patch_3">
    <path d="M 65.9 305.260125 
L 65.9 28.060125 
" style="fill: none; stroke: #000000; stroke-width: 0.8; stroke-linejoin: miter; stroke-linecap: square"/>
   </g>
   <g id="patch_4">
    <path d="M 512.3 305.260125 
L 512.3 28.060125 
" style="fill: none; stroke: #000000; stroke-width: 0.8; stroke-linejoin: miter; stroke-linecap: square"/>
   </g>
   <g id="patch_5">
    <path d="M 65.9 305.260125 
L 512.3 305.260125 
" style="fill: none; stroke: #000000; stroke-width: 0.8; stroke-linejoin: miter; stroke-linecap: square"/>
   </g>
   <g id="patch_6">
    <path d="M 65.9 28.060125 
L 512.3 28.060125 
" style="fill: none; stroke: #000000; stroke-width: 0.8; stroke-linejoin: miter; stroke-linecap: square"/>
   </g>
   <g id="text_15">
    <!-- ML45 Meta Testing -->
    <g transform="translate(202.104313 22.060125)scale(0.216 -0.216)">
     <defs>
      <path id="STIXGeneral-Regular-4d" d="M 5530 0 
L 3738 0 
L 3738 122 
Q 4115 147 4214 265 
Q 4314 384 4314 787 
L 4314 3661 
L 2682 0 
L 2592 0 
L 979 3514 
L 979 966 
Q 979 448 1088 294 
Q 1197 141 1574 122 
L 1574 0 
L 77 0 
L 77 122 
Q 358 141 480 205 
Q 602 269 650 432 
Q 698 595 698 966 
L 698 3514 
Q 698 3878 589 3984 
Q 480 4090 90 4115 
L 90 4237 
L 1357 4237 
L 2835 1024 
L 4250 4237 
L 5523 4237 
L 5523 4115 
Q 5178 4109 5072 3993 
Q 4966 3878 4966 3520 
L 4966 717 
Q 4966 378 5072 262 
Q 5178 147 5530 122 
L 5530 0 
z
" transform="scale(0.015625)"/>
      <path id="STIXGeneral-Regular-4c" d="M 3827 1114 
L 3520 0 
L 77 0 
L 77 122 
Q 429 141 531 256 
Q 634 371 634 736 
L 634 3494 
Q 634 3872 541 3981 
Q 448 4090 77 4115 
L 77 4237 
L 1888 4237 
L 1888 4115 
Q 1498 4090 1392 3984 
Q 1286 3878 1286 3507 
L 1286 538 
Q 1286 358 1398 304 
Q 1510 250 1862 250 
L 2310 250 
Q 3085 250 3392 640 
Q 3520 813 3661 1114 
L 3827 1114 
z
" transform="scale(0.015625)"/>
     </defs>
     <use xlink:href="#STIXGeneral-Regular-4d"/>
     <use xlink:href="#STIXGeneral-Regular-4c" x="88.899994"/>
     <use xlink:href="#STIXGeneral-Regular-34" x="149.999985"/>
     <use xlink:href="#STIXGeneral-Regular-35" x="199.999969"/>
     <use xlink:href="#STIXGeneral-Regular-20" x="249.999954"/>
     <use xlink:href="#STIXGeneral-Regular-4d" x="274.999939"/>
     <use xlink:href="#STIXGeneral-Regular-65" x="363.899933"/>
     <use xlink:href="#STIXGeneral-Regular-74" x="408.299927"/>
     <use xlink:href="#STIXGeneral-Regular-61" x="436.099915"/>
     <use xlink:href="#STIXGeneral-Regular-20" x="480.499908"/>
     <use xlink:href="#STIXGeneral-Regular-54" x="505.499893"/>
     <use xlink:href="#STIXGeneral-Regular-65" x="566.599884"/>
     <use xlink:href="#STIXGeneral-Regular-73" x="610.999878"/>
     <use xlink:href="#STIXGeneral-Regular-74" x="649.899872"/>
     <use xlink:href="#STIXGeneral-Regular-69" x="677.69986"/>
     <use xlink:href="#STIXGeneral-Regular-6e" x="705.499847"/>
     <use xlink:href="#STIXGeneral-Regular-67" x="755.499832"/>
    </g>
   </g>
   <g id="legend_1">
    <g id="patch_7">
     <path d="M 398.606875 107.87325 
L 506.7 107.87325 
Q 509.5 107.87325 509.5 105.07325 
L 509.5 33.660125 
Q 509.5 30.860125 506.7 30.860125 
L 398.606875 30.860125 
Q 395.806875 30.860125 395.806875 33.660125 
L 395.806875 105.07325 
Q 395.806875 107.87325 398.606875 107.87325 
z
" style="fill: #ffffff; opacity: 0.8; stroke: #cccccc; stroke-linejoin: miter"/>
    </g>
    <g id="line2d_28">
     <path d="M 400.006875 40.771687 
L 407.006875 40.771687 
L 414.006875 40.771687 
" style="fill: none; stroke: #1f77b4; stroke-width: 1.5; stroke-linecap: square"/>
    </g>
    <g id="text_16">
     <!-- bin-picking-v2 -->
     <g transform="translate(418.206875 44.621687)scale(0.14 -0.14)">
      <defs>
       <path id="STIXGeneral-Regular-62" d="M 979 4358 
L 979 2406 
Q 1082 2650 1315 2797 
Q 1549 2944 1843 2944 
Q 2349 2944 2672 2541 
Q 2995 2138 2995 1536 
Q 2995 832 2566 384 
Q 2138 -64 1498 -64 
Q 1107 -64 774 67 
Q 442 198 442 358 
L 442 3622 
Q 442 3859 384 3926 
Q 326 3994 128 3994 
Q 83 3994 19 3981 
L 19 4090 
L 211 4147 
Q 864 4346 947 4371 
L 979 4358 
z
M 979 2035 
L 979 474 
Q 979 326 1161 233 
Q 1344 141 1600 141 
Q 1978 141 2195 416 
Q 2432 710 2432 1261 
Q 2432 1888 2182 2240 
Q 1971 2541 1613 2541 
Q 1357 2541 1168 2390 
Q 979 2240 979 2035 
z
" transform="scale(0.015625)"/>
       <path id="STIXGeneral-Regular-2d" d="M 1824 1242 
L 250 1242 
L 250 1645 
L 1824 1645 
L 1824 1242 
z
" transform="scale(0.015625)"/>
       <path id="STIXGeneral-Regular-6b" d="M 3232 0 
L 1837 0 
L 1837 96 
L 1958 96 
Q 2093 96 2093 192 
Q 2093 250 2022 339 
L 1062 1606 
L 1062 429 
Q 1062 262 1142 185 
Q 1222 109 1414 102 
L 1542 96 
L 1542 0 
L 45 0 
L 45 96 
Q 390 154 457 214 
Q 525 275 525 525 
L 525 3610 
Q 525 3840 467 3920 
Q 410 4000 250 4000 
Q 211 4000 45 3987 
L 45 4090 
L 237 4141 
Q 621 4243 1037 4371 
L 1062 4358 
L 1062 1670 
L 1939 2451 
Q 2086 2586 2086 2675 
Q 2086 2739 2019 2761 
Q 1952 2784 1766 2790 
L 1766 2880 
L 3072 2880 
L 3072 2784 
Q 2752 2784 2505 2646 
Q 2259 2509 1690 1978 
L 1504 1805 
L 2483 563 
Q 2829 122 3232 96 
L 3232 0 
z
" transform="scale(0.015625)"/>
      </defs>
      <use xlink:href="#STIXGeneral-Regular-62"/>
      <use xlink:href="#STIXGeneral-Regular-69" x="49.999985"/>
      <use xlink:href="#STIXGeneral-Regular-6e" x="77.799973"/>
      <use xlink:href="#STIXGeneral-Regular-2d" x="127.799957"/>
      <use xlink:href="#STIXGeneral-Regular-70" x="161.099945"/>
      <use xlink:href="#STIXGeneral-Regular-69" x="211.09993"/>
      <use xlink:href="#STIXGeneral-Regular-63" x="238.899918"/>
      <use xlink:href="#STIXGeneral-Regular-6b" x="283.299911"/>
      <use xlink:href="#STIXGeneral-Regular-69" x="333.299896"/>
      <use xlink:href="#STIXGeneral-Regular-6e" x="361.099884"/>
      <use xlink:href="#STIXGeneral-Regular-67" x="411.099869"/>
      <use xlink:href="#STIXGeneral-Regular-2d" x="461.099854"/>
      <use xlink:href="#STIXGeneral-Regular-76" x="494.399841"/>
      <use xlink:href="#STIXGeneral-Regular-32" x="544.399826"/>
     </g>
    </g>
    <g id="line2d_29">
     <path d="M 400.006875 54.784812 
L 407.006875 54.784812 
L 414.006875 54.784812 
" style="fill: none; stroke: #ff7f0e; stroke-width: 1.5; stroke-linecap: square"/>
    </g>
    <g id="text_17">
     <!-- box-close-v2 -->
     <g transform="translate(418.206875 58.634812)scale(0.14 -0.14)">
      <defs>
       <path id="STIXGeneral-Regular-78" d="M 3066 0 
L 1779 0 
L 1779 96 
Q 1939 109 1987 137 
Q 2035 166 2035 250 
Q 2035 307 1997 365 
L 1414 1261 
L 909 474 
Q 781 275 781 211 
Q 781 96 1037 96 
L 1037 0 
L 109 0 
L 109 96 
Q 269 109 355 169 
Q 442 230 576 422 
L 1306 1478 
L 704 2400 
Q 557 2624 454 2704 
Q 352 2784 211 2784 
L 154 2784 
L 154 2880 
L 1478 2880 
L 1478 2784 
Q 1203 2778 1203 2643 
Q 1203 2509 1498 2074 
Q 1581 1958 1587 1946 
Q 1619 1990 1779 2227 
Q 1811 2285 1856 2349 
Q 1901 2413 1923 2451 
Q 1946 2490 1971 2528 
Q 1997 2566 2006 2595 
Q 2016 2624 2016 2643 
Q 2016 2765 1760 2784 
L 1760 2880 
L 2771 2880 
L 2771 2784 
Q 2445 2771 2253 2502 
L 1722 1734 
L 2541 480 
Q 2790 96 3066 96 
L 3066 0 
z
" transform="scale(0.015625)"/>
       <path id="STIXGeneral-Regular-6c" d="M 1645 0 
L 134 0 
L 134 96 
Q 435 122 531 221 
Q 627 320 627 589 
L 627 3590 
Q 627 3821 569 3910 
Q 512 4000 358 4000 
Q 224 4000 122 3987 
L 122 4090 
Q 730 4237 1133 4371 
L 1165 4346 
L 1165 557 
Q 1165 288 1254 201 
Q 1344 115 1645 96 
L 1645 0 
z
" transform="scale(0.015625)"/>
      </defs>
      <use xlink:href="#STIXGeneral-Regular-62"/>
      <use xlink:href="#STIXGeneral-Regular-6f" x="49.999985"/>
      <use xlink:href="#STIXGeneral-Regular-78" x="99.999969"/>
      <use xlink:href="#STIXGeneral-Regular-2d" x="149.999954"/>
      <use xlink:href="#STIXGeneral-Regular-63" x="183.299942"/>
      <use xlink:href="#STIXGeneral-Regular-6c" x="227.699936"/>
      <use xlink:href="#STIXGeneral-Regular-6f" x="255.499924"/>
      <use xlink:href="#STIXGeneral-Regular-73" x="305.499908"/>
      <use xlink:href="#STIXGeneral-Regular-65" x="344.399902"/>
      <use xlink:href="#STIXGeneral-Regular-2d" x="388.799896"/>
      <use xlink:href="#STIXGeneral-Regular-76" x="422.099884"/>
      <use xlink:href="#STIXGeneral-Regular-32" x="472.099869"/>
     </g>
    </g>
    <g id="line2d_30">
     <path d="M 400.006875 68.784812 
L 407.006875 68.784812 
L 414.006875 68.784812 
" style="fill: none; stroke: #2ca02c; stroke-width: 1.5; stroke-linecap: square"/>
    </g>
    <g id="text_18">
     <!-- hand-insert-v2 -->
     <g transform="translate(418.206875 72.634812)scale(0.14 -0.14)">
      <defs>
       <path id="STIXGeneral-Regular-68" d="M 3117 0 
L 1760 0 
L 1760 96 
Q 2042 128 2118 224 
Q 2195 320 2195 653 
L 2195 1920 
Q 2195 2598 1722 2598 
Q 1530 2598 1370 2508 
Q 1210 2419 1005 2195 
L 1005 653 
Q 1005 320 1081 224 
Q 1158 128 1440 96 
L 1440 0 
L 58 0 
L 58 96 
Q 333 134 400 224 
Q 467 314 467 653 
L 467 3667 
Q 467 3872 406 3933 
Q 346 3994 141 3994 
Q 83 3994 64 3987 
L 64 4090 
L 237 4141 
Q 730 4288 973 4371 
L 1005 4352 
L 1005 2406 
Q 1229 2694 1446 2819 
Q 1664 2944 1946 2944 
Q 2733 2944 2733 1926 
L 2733 653 
Q 2733 320 2793 233 
Q 2854 147 3117 96 
L 3117 0 
z
" transform="scale(0.015625)"/>
       <path id="STIXGeneral-Regular-64" d="M 3142 269 
L 2202 -64 
L 2176 -45 
L 2176 365 
Q 1869 -64 1357 -64 
Q 826 -64 499 317 
Q 173 698 173 1312 
Q 173 1990 563 2467 
Q 954 2944 1504 2944 
Q 1850 2944 2176 2669 
L 2176 3667 
Q 2176 3866 2118 3930 
Q 2061 3994 1882 3994 
Q 1792 3994 1741 3987 
L 1741 4090 
Q 2323 4243 2682 4371 
L 2714 4358 
L 2714 730 
Q 2714 506 2768 435 
Q 2822 365 2995 365 
Q 3034 365 3142 371 
L 3142 269 
z
M 2176 653 
L 2176 2125 
Q 2176 2381 1981 2573 
Q 1786 2765 1523 2765 
Q 1158 2765 940 2438 
Q 723 2112 723 1568 
Q 723 979 963 624 
Q 1203 269 1606 269 
Q 1907 269 2080 474 
Q 2176 582 2176 653 
z
" transform="scale(0.015625)"/>
      </defs>
      <use xlink:href="#STIXGeneral-Regular-68"/>
      <use xlink:href="#STIXGeneral-Regular-61" x="49.999985"/>
      <use xlink:href="#STIXGeneral-Regular-6e" x="94.399979"/>
      <use xlink:href="#STIXGeneral-Regular-64" x="144.399963"/>
      <use xlink:href="#STIXGeneral-Regular-2d" x="194.399948"/>
      <use xlink:href="#STIXGeneral-Regular-69" x="227.699936"/>
      <use xlink:href="#STIXGeneral-Regular-6e" x="255.499924"/>
      <use xlink:href="#STIXGeneral-Regular-73" x="305.499908"/>
      <use xlink:href="#STIXGeneral-Regular-65" x="344.399902"/>
      <use xlink:href="#STIXGeneral-Regular-72" x="388.799896"/>
      <use xlink:href="#STIXGeneral-Regular-74" x="422.099884"/>
      <use xlink:href="#STIXGeneral-Regular-2d" x="449.899872"/>
      <use xlink:href="#STIXGeneral-Regular-76" x="483.19986"/>
      <use xlink:href="#STIXGeneral-Regular-32" x="533.199844"/>
     </g>
    </g>
    <g id="line2d_31">
     <path d="M 400.006875 82.784812 
L 407.006875 82.784812 
L 414.006875 82.784812 
" style="fill: none; stroke: #d62728; stroke-width: 1.5; stroke-linecap: square"/>
    </g>
    <g id="text_19">
     <!-- door-lock-v2 -->
     <g transform="translate(418.206875 86.634812)scale(0.14 -0.14)">
      <use xlink:href="#STIXGeneral-Regular-64"/>
      <use xlink:href="#STIXGeneral-Regular-6f" x="49.999985"/>
      <use xlink:href="#STIXGeneral-Regular-6f" x="99.999969"/>
      <use xlink:href="#STIXGeneral-Regular-72" x="149.999954"/>
      <use xlink:href="#STIXGeneral-Regular-2d" x="183.299942"/>
      <use xlink:href="#STIXGeneral-Regular-6c" x="216.59993"/>
      <use xlink:href="#STIXGeneral-Regular-6f" x="244.399918"/>
      <use xlink:href="#STIXGeneral-Regular-63" x="294.399902"/>
      <use xlink:href="#STIXGeneral-Regular-6b" x="338.799896"/>
      <use xlink:href="#STIXGeneral-Regular-2d" x="388.799881"/>
      <use xlink:href="#STIXGeneral-Regular-76" x="422.099869"/>
      <use xlink:href="#STIXGeneral-Regular-32" x="472.099854"/>
     </g>
    </g>
    <g id="line2d_32">
     <path d="M 400.006875 96.784812 
L 407.006875 96.784812 
L 414.006875 96.784812 
" style="fill: none; stroke: #9467bd; stroke-width: 1.5; stroke-linecap: square"/>
    </g>
    <g id="text_20">
     <!-- door-unlock-v2 -->
     <g transform="translate(418.206875 100.634812)scale(0.14 -0.14)">
      <use xlink:href="#STIXGeneral-Regular-64"/>
      <use xlink:href="#STIXGeneral-Regular-6f" x="49.999985"/>
      <use xlink:href="#STIXGeneral-Regular-6f" x="99.999969"/>
      <use xlink:href="#STIXGeneral-Regular-72" x="149.999954"/>
      <use xlink:href="#STIXGeneral-Regular-2d" x="183.299942"/>
      <use xlink:href="#STIXGeneral-Regular-75" x="216.59993"/>
      <use xlink:href="#STIXGeneral-Regular-6e" x="266.599915"/>
      <use xlink:href="#STIXGeneral-Regular-6c" x="316.599899"/>
      <use xlink:href="#STIXGeneral-Regular-6f" x="344.399887"/>
      <use xlink:href="#STIXGeneral-Regular-63" x="394.399872"/>
      <use xlink:href="#STIXGeneral-Regular-6b" x="438.799866"/>
      <use xlink:href="#STIXGeneral-Regular-2d" x="488.79985"/>
      <use xlink:href="#STIXGeneral-Regular-76" x="522.099838"/>
      <use xlink:href="#STIXGeneral-Regular-32" x="572.099823"/>
     </g>
    </g>
   </g>
  </g>
 </g>
 <defs>
  <clipPath id="pb9b6d2a14a">
   <rect x="65.9" y="28.060125" width="446.4" height="277.2"/>
  </clipPath>
 </defs>
</svg>
