<?xml version="1.0" encoding="utf-8" standalone="no"?>
<!DOCTYPE svg PUBLIC "-//W3C//DTD SVG 1.1//EN"
  "http://www.w3.org/Graphics/SVG/1.1/DTD/svg11.dtd">
<svg xmlns:xlink="http://www.w3.org/1999/xlink" width="510.5pt" height="355.877pt" viewBox="0 0 510.5 355.877" xmlns="http://www.w3.org/2000/svg" version="1.1">
 <metadata>
  <rdf:RDF xmlns:dc="http://purl.org/dc/elements/1.1/" xmlns:cc="http://creativecommons.org/ns#" xmlns:rdf="http://www.w3.org/1999/02/22-rdf-syntax-ns#">
   <cc:Work>
    <dc:type rdf:resource="http://purl.org/dc/dcmitype/StillImage"/>
    <dc:date>2021-12-11T16:36:59.230354</dc:date>
    <dc:format>image/svg+xml</dc:format>
    <dc:creator>
     <cc:Agent>
      <dc:title>Matplotlib v3.5.0, https://matplotlib.org/</dc:title>
     </cc:Agent>
    </dc:creator>
   </cc:Work>
  </rdf:RDF>
 </metadata>
 <defs>
  <style type="text/css">*{stroke-linejoin: round; stroke-linecap: butt}</style>
 </defs>
 <g id="figure_1">
  <g id="patch_1">
   <path d="M 0 355.877 
L 510.5 355.877 
L 510.5 0 
L 0 0 
z
" style="fill: #ffffff"/>
  </g>
  <g id="axes_1">
   <g id="patch_2">
    <path d="M 56.9 305.260125 
L 503.3 305.260125 
L 503.3 28.060125 
L 56.9 28.060125 
z
" style="fill: #ffffff"/>
   </g>
   <g id="matplotlib.axis_1">
    <g id="xtick_1">
     <g id="line2d_1">
      <path d="M 76.458385 305.260125 
L 76.458385 28.060125 
" clip-path="url(#p739cfb53ae)" style="fill: none; stroke: #b0b0b0; stroke-width: 0.8; stroke-linecap: square"/>
     </g>
     <g id="line2d_2">
      <defs>
       <path id="m787bf4d648" d="M 0 0 
L 0 3.5 
" style="stroke: #000000; stroke-width: 0.8"/>
      </defs>
      <g>
       <use xlink:href="#m787bf4d648" x="76.458385" y="305.260125" style="stroke: #000000; stroke-width: 0.8"/>
      </g>
     </g>
     <g id="text_1">
      <!-- 0.0 -->
      <g transform="translate(65.208385 324.553562)scale(0.18 -0.18)">
       <defs>
        <path id="STIXGeneral-Regular-30" d="M 3046 2112 
Q 3046 1683 2963 1302 
Q 2880 922 2717 602 
Q 2554 282 2266 96 
Q 1978 -90 1600 -90 
Q 1210 -90 915 108 
Q 621 307 461 640 
Q 301 973 227 1350 
Q 154 1728 154 2150 
Q 154 2746 301 3222 
Q 448 3699 790 4012 
Q 1133 4326 1626 4326 
Q 2253 4326 2649 3712 
Q 3046 3098 3046 2112 
z
M 2432 2080 
Q 2432 3091 2217 3625 
Q 2003 4160 1587 4160 
Q 1190 4160 979 3622 
Q 768 3085 768 2106 
Q 768 1120 979 598 
Q 1190 77 1600 77 
Q 2003 77 2217 598 
Q 2432 1120 2432 2080 
z
" transform="scale(0.015625)"/>
        <path id="STIXGeneral-Regular-2e" d="M 1158 275 
Q 1158 134 1052 32 
Q 947 -70 800 -70 
Q 653 -70 550 32 
Q 448 134 448 281 
Q 448 429 553 534 
Q 659 640 806 640 
Q 947 640 1052 531 
Q 1158 422 1158 275 
z
" transform="scale(0.015625)"/>
       </defs>
       <use xlink:href="#STIXGeneral-Regular-30"/>
       <use xlink:href="#STIXGeneral-Regular-2e" x="49.999985"/>
       <use xlink:href="#STIXGeneral-Regular-30" x="74.999969"/>
      </g>
     </g>
    </g>
    <g id="xtick_2">
     <g id="line2d_3">
      <path d="M 157.849918 305.260125 
L 157.849918 28.060125 
" clip-path="url(#p739cfb53ae)" style="fill: none; stroke: #b0b0b0; stroke-width: 0.8; stroke-linecap: square"/>
     </g>
     <g id="line2d_4">
      <g>
       <use xlink:href="#m787bf4d648" x="157.849918" y="305.260125" style="stroke: #000000; stroke-width: 0.8"/>
      </g>
     </g>
     <g id="text_2">
      <!-- 0.5 -->
      <g transform="translate(146.599918 324.553562)scale(0.18 -0.18)">
       <defs>
        <path id="STIXGeneral-Regular-35" d="M 2803 4358 
L 2573 3814 
Q 2534 3731 2400 3731 
L 1158 3731 
L 902 3187 
Q 1606 3053 1920 2896 
Q 2234 2739 2502 2368 
Q 2726 2061 2726 1555 
Q 2726 1094 2576 780 
Q 2426 467 2099 224 
Q 1664 -90 1011 -90 
Q 646 -90 422 19 
Q 198 128 198 307 
Q 198 550 486 550 
Q 717 550 960 352 
Q 1210 147 1414 147 
Q 1747 147 2012 480 
Q 2278 813 2278 1229 
Q 2278 1843 1850 2189 
Q 1293 2637 486 2637 
Q 410 2637 410 2688 
L 416 2720 
L 1114 4237 
L 2438 4237 
Q 2547 4237 2608 4269 
Q 2669 4301 2746 4403 
L 2803 4358 
z
" transform="scale(0.015625)"/>
       </defs>
       <use xlink:href="#STIXGeneral-Regular-30"/>
       <use xlink:href="#STIXGeneral-Regular-2e" x="49.999985"/>
       <use xlink:href="#STIXGeneral-Regular-35" x="74.999969"/>
      </g>
     </g>
    </g>
    <g id="xtick_3">
     <g id="line2d_5">
      <path d="M 239.241451 305.260125 
L 239.241451 28.060125 
" clip-path="url(#p739cfb53ae)" style="fill: none; stroke: #b0b0b0; stroke-width: 0.8; stroke-linecap: square"/>
     </g>
     <g id="line2d_6">
      <g>
       <use xlink:href="#m787bf4d648" x="239.241451" y="305.260125" style="stroke: #000000; stroke-width: 0.8"/>
      </g>
     </g>
     <g id="text_3">
      <!-- 1.0 -->
      <g transform="translate(227.991451 324.553562)scale(0.18 -0.18)">
       <defs>
        <path id="STIXGeneral-Regular-31" d="M 2522 0 
L 755 0 
L 755 96 
Q 1107 115 1235 227 
Q 1363 339 1363 608 
L 1363 3482 
Q 1363 3795 1171 3795 
Q 1082 3795 883 3718 
L 710 3654 
L 710 3744 
L 1856 4326 
L 1914 4307 
L 1914 486 
Q 1914 275 2042 185 
Q 2170 96 2522 96 
L 2522 0 
z
" transform="scale(0.015625)"/>
       </defs>
       <use xlink:href="#STIXGeneral-Regular-31"/>
       <use xlink:href="#STIXGeneral-Regular-2e" x="49.999985"/>
       <use xlink:href="#STIXGeneral-Regular-30" x="74.999969"/>
      </g>
     </g>
    </g>
    <g id="xtick_4">
     <g id="line2d_7">
      <path d="M 320.632983 305.260125 
L 320.632983 28.060125 
" clip-path="url(#p739cfb53ae)" style="fill: none; stroke: #b0b0b0; stroke-width: 0.8; stroke-linecap: square"/>
     </g>
     <g id="line2d_8">
      <g>
       <use xlink:href="#m787bf4d648" x="320.632983" y="305.260125" style="stroke: #000000; stroke-width: 0.8"/>
      </g>
     </g>
     <g id="text_4">
      <!-- 1.5 -->
      <g transform="translate(309.382983 324.553562)scale(0.18 -0.18)">
       <use xlink:href="#STIXGeneral-Regular-31"/>
       <use xlink:href="#STIXGeneral-Regular-2e" x="49.999985"/>
       <use xlink:href="#STIXGeneral-Regular-35" x="74.999969"/>
      </g>
     </g>
    </g>
    <g id="xtick_5">
     <g id="line2d_9">
      <path d="M 402.024516 305.260125 
L 402.024516 28.060125 
" clip-path="url(#p739cfb53ae)" style="fill: none; stroke: #b0b0b0; stroke-width: 0.8; stroke-linecap: square"/>
     </g>
     <g id="line2d_10">
      <g>
       <use xlink:href="#m787bf4d648" x="402.024516" y="305.260125" style="stroke: #000000; stroke-width: 0.8"/>
      </g>
     </g>
     <g id="text_5">
      <!-- 2.0 -->
      <g transform="translate(390.774516 324.553562)scale(0.18 -0.18)">
       <defs>
        <path id="STIXGeneral-Regular-32" d="M 3034 877 
L 2688 0 
L 186 0 
L 186 77 
L 1325 1286 
Q 1773 1754 1965 2144 
Q 2157 2534 2157 2950 
Q 2157 3379 1920 3616 
Q 1683 3853 1267 3853 
Q 922 3853 720 3673 
Q 518 3494 326 3021 
L 192 3053 
Q 301 3648 630 3987 
Q 960 4326 1523 4326 
Q 2054 4326 2380 4006 
Q 2707 3686 2707 3200 
Q 2707 2477 1888 1613 
L 832 486 
L 2330 486 
Q 2541 486 2665 569 
Q 2790 653 2944 915 
L 3034 877 
z
" transform="scale(0.015625)"/>
       </defs>
       <use xlink:href="#STIXGeneral-Regular-32"/>
       <use xlink:href="#STIXGeneral-Regular-2e" x="49.999985"/>
       <use xlink:href="#STIXGeneral-Regular-30" x="74.999969"/>
      </g>
     </g>
    </g>
    <g id="xtick_6">
     <g id="line2d_11">
      <path d="M 483.416049 305.260125 
L 483.416049 28.060125 
" clip-path="url(#p739cfb53ae)" style="fill: none; stroke: #b0b0b0; stroke-width: 0.8; stroke-linecap: square"/>
     </g>
     <g id="line2d_12">
      <g>
       <use xlink:href="#m787bf4d648" x="483.416049" y="305.260125" style="stroke: #000000; stroke-width: 0.8"/>
      </g>
     </g>
     <g id="text_6">
      <!-- 2.5 -->
      <g transform="translate(472.166049 324.553562)scale(0.18 -0.18)">
       <use xlink:href="#STIXGeneral-Regular-32"/>
       <use xlink:href="#STIXGeneral-Regular-2e" x="49.999985"/>
       <use xlink:href="#STIXGeneral-Regular-35" x="74.999969"/>
      </g>
     </g>
    </g>
    <g id="text_7">
     <!-- Training Environment Steps -->
     <g transform="translate(178.104688 344.753562)scale(0.18 -0.18)">
      <defs>
       <path id="STIXGeneral-Regular-54" d="M 3795 3149 
L 3642 3149 
Q 3539 3674 3353 3821 
Q 3168 3968 2656 3968 
L 2278 3968 
L 2278 710 
Q 2278 346 2387 243 
Q 2496 141 2893 122 
L 2893 0 
L 1024 0 
L 1024 122 
Q 1427 147 1526 256 
Q 1626 365 1626 787 
L 1626 3968 
L 1242 3968 
Q 723 3968 540 3817 
Q 358 3667 262 3149 
L 109 3149 
L 154 4237 
L 3750 4237 
L 3795 3149 
z
" transform="scale(0.015625)"/>
       <path id="STIXGeneral-Regular-72" d="M 1024 2931 
L 1024 2342 
Q 1267 2688 1430 2816 
Q 1594 2944 1792 2944 
Q 1958 2944 2051 2854 
Q 2144 2765 2144 2605 
Q 2144 2470 2077 2393 
Q 2010 2317 1894 2317 
Q 1773 2317 1638 2445 
Q 1536 2541 1472 2541 
Q 1338 2541 1181 2355 
Q 1024 2170 1024 2016 
L 1024 576 
Q 1024 301 1133 205 
Q 1242 109 1568 96 
L 1568 0 
L 32 0 
L 32 96 
Q 339 154 412 224 
Q 486 294 486 538 
L 486 2138 
Q 486 2349 438 2435 
Q 390 2522 269 2522 
Q 166 2522 45 2496 
L 45 2598 
Q 448 2726 992 2944 
L 1024 2931 
z
" transform="scale(0.015625)"/>
       <path id="STIXGeneral-Regular-61" d="M 2829 422 
L 2829 243 
Q 2586 -64 2253 -64 
Q 1888 -64 1843 403 
L 1837 403 
Q 1427 -64 909 -64 
Q 608 -64 422 112 
Q 237 288 237 602 
Q 237 1050 685 1350 
Q 992 1555 1837 1869 
L 1837 2214 
Q 1837 2502 1699 2646 
Q 1562 2790 1338 2790 
Q 1146 2790 1018 2697 
Q 890 2605 890 2477 
Q 890 2419 909 2348 
Q 928 2278 928 2208 
Q 928 2112 841 2029 
Q 755 1946 634 1946 
Q 525 1946 441 2029 
Q 358 2112 358 2240 
Q 358 2547 685 2752 
Q 986 2944 1421 2944 
Q 1939 2944 2176 2656 
Q 2291 2522 2323 2384 
Q 2355 2246 2355 1946 
L 2355 723 
Q 2355 301 2554 301 
Q 2682 301 2829 422 
z
M 1837 813 
L 1837 1715 
Q 1248 1510 1018 1293 
Q 800 1094 800 800 
Q 800 557 921 432 
Q 1043 307 1242 307 
Q 1453 307 1613 410 
Q 1747 506 1792 589 
Q 1837 672 1837 813 
z
" transform="scale(0.015625)"/>
       <path id="STIXGeneral-Regular-69" d="M 1152 4045 
Q 1152 3904 1056 3811 
Q 960 3718 819 3718 
Q 685 3718 592 3811 
Q 499 3904 499 4045 
Q 499 4179 595 4275 
Q 691 4371 826 4371 
Q 966 4371 1059 4275 
Q 1152 4179 1152 4045 
z
M 1619 0 
L 102 0 
L 102 96 
Q 435 115 521 211 
Q 608 307 608 666 
L 608 2118 
Q 608 2342 563 2432 
Q 518 2522 397 2522 
Q 243 2522 128 2490 
L 128 2592 
L 1120 2944 
L 1146 2918 
L 1146 672 
Q 1146 314 1226 218 
Q 1306 122 1619 96 
L 1619 0 
z
" transform="scale(0.015625)"/>
       <path id="STIXGeneral-Regular-6e" d="M 3104 0 
L 1773 0 
L 1779 96 
Q 2016 115 2096 233 
Q 2176 352 2176 672 
L 2176 1946 
Q 2176 2592 1709 2592 
Q 1549 2592 1408 2515 
Q 1267 2438 1050 2227 
L 1050 461 
Q 1050 269 1136 192 
Q 1222 115 1466 96 
L 1466 0 
L 115 0 
L 115 96 
Q 358 115 435 214 
Q 512 314 512 602 
L 512 2157 
Q 512 2394 467 2483 
Q 422 2573 288 2573 
Q 160 2573 102 2547 
L 102 2656 
Q 550 2784 979 2944 
L 1030 2925 
L 1030 2426 
L 1037 2426 
Q 1491 2944 1958 2944 
Q 2323 2944 2518 2688 
Q 2714 2432 2714 1958 
L 2714 544 
Q 2714 288 2790 205 
Q 2867 122 3104 96 
L 3104 0 
z
" transform="scale(0.015625)"/>
       <path id="STIXGeneral-Regular-67" d="M 3008 2483 
L 2477 2483 
Q 2598 2208 2598 1946 
Q 2598 1453 2265 1203 
Q 1933 954 1600 954 
Q 1530 954 1357 973 
L 1235 986 
Q 1107 947 979 812 
Q 851 678 851 582 
Q 851 435 1350 410 
L 2176 371 
Q 2528 358 2739 172 
Q 2950 -13 2950 -314 
Q 2950 -685 2566 -986 
Q 2035 -1395 1286 -1395 
Q 826 -1395 502 -1212 
Q 179 -1030 179 -774 
Q 179 -595 320 -419 
Q 461 -243 806 6 
Q 602 102 534 172 
Q 467 243 467 346 
Q 467 531 762 787 
Q 909 915 1037 1043 
Q 717 1203 579 1401 
Q 442 1600 442 1901 
Q 442 2336 752 2640 
Q 1062 2944 1510 2944 
Q 1766 2944 2022 2848 
L 2163 2797 
Q 2349 2733 2515 2733 
L 3008 2733 
L 3008 2483 
z
M 973 2163 
L 973 2144 
Q 973 1683 1155 1398 
Q 1338 1114 1632 1114 
Q 1850 1114 1978 1270 
Q 2106 1427 2106 1690 
Q 2106 2112 1914 2464 
Q 1754 2765 1446 2765 
Q 1222 2765 1097 2605 
Q 973 2445 973 2163 
z
M 2771 -410 
Q 2771 -230 2595 -163 
Q 2419 -96 1978 -96 
Q 1344 -96 941 -13 
Q 749 -243 688 -348 
Q 627 -454 627 -563 
Q 627 -774 880 -902 
Q 1133 -1030 1555 -1030 
Q 2099 -1030 2435 -860 
Q 2771 -691 2771 -410 
z
" transform="scale(0.015625)"/>
       <path id="STIXGeneral-Regular-20" transform="scale(0.015625)"/>
       <path id="STIXGeneral-Regular-45" d="M 3821 1082 
L 3526 0 
L 77 0 
L 77 122 
Q 442 147 538 252 
Q 634 358 634 730 
L 634 3520 
Q 634 3878 534 3987 
Q 435 4096 77 4115 
L 77 4237 
L 3469 4237 
L 3494 3322 
L 3334 3322 
Q 3264 3750 3085 3872 
Q 2906 3994 2349 3994 
L 1510 3994 
Q 1370 3994 1328 3952 
Q 1286 3910 1286 3763 
L 1286 2355 
L 2253 2355 
Q 2656 2355 2787 2470 
Q 2918 2586 2976 2970 
L 3123 2970 
L 3123 1472 
L 2976 1472 
Q 2918 1875 2790 1984 
Q 2662 2093 2253 2093 
L 1286 2093 
L 1286 538 
Q 1286 346 1420 291 
Q 1555 237 1933 237 
L 2163 237 
Q 2848 237 3136 403 
Q 3424 570 3642 1082 
L 3821 1082 
z
" transform="scale(0.015625)"/>
       <path id="STIXGeneral-Regular-76" d="M 3053 2880 
L 3053 2784 
Q 2906 2771 2835 2688 
Q 2765 2605 2637 2285 
L 1818 230 
Q 1690 -90 1638 -90 
Q 1587 -90 1523 77 
Q 1510 96 1497 141 
Q 1485 186 1472 211 
L 704 2048 
Q 499 2534 403 2652 
Q 307 2771 122 2784 
L 122 2880 
L 1376 2880 
L 1376 2784 
Q 1210 2771 1146 2732 
Q 1082 2694 1082 2611 
Q 1082 2509 1139 2368 
L 1792 730 
L 2426 2387 
Q 2464 2483 2464 2579 
Q 2464 2758 2163 2784 
L 2163 2880 
L 3053 2880 
z
" transform="scale(0.015625)"/>
       <path id="STIXGeneral-Regular-6f" d="M 3008 1478 
Q 3008 806 2608 371 
Q 2208 -64 1568 -64 
Q 979 -64 582 368 
Q 186 800 186 1459 
Q 186 2125 582 2534 
Q 979 2944 1626 2944 
Q 2221 2944 2614 2537 
Q 3008 2131 3008 1478 
z
M 2432 1306 
Q 2432 2035 2112 2445 
Q 1856 2765 1504 2765 
Q 1171 2765 966 2493 
Q 762 2221 762 1747 
Q 762 928 1101 435 
Q 1318 115 1677 115 
Q 2029 115 2230 432 
Q 2432 749 2432 1306 
z
" transform="scale(0.015625)"/>
       <path id="STIXGeneral-Regular-6d" d="M 4960 0 
L 3565 0 
L 3565 96 
Q 3834 122 3907 208 
Q 3981 294 3981 576 
L 3981 1894 
Q 3981 2278 3869 2444 
Q 3757 2611 3488 2611 
Q 3264 2611 3107 2521 
Q 2950 2432 2803 2221 
L 2803 608 
Q 2803 301 2896 201 
Q 2989 102 3264 96 
L 3264 0 
L 1830 0 
L 1830 96 
Q 2112 115 2189 188 
Q 2266 262 2266 550 
L 2266 1901 
Q 2266 2611 1850 2611 
Q 1670 2611 1468 2531 
Q 1267 2451 1171 2336 
Q 1088 2240 1088 2227 
L 1088 448 
Q 1088 243 1177 176 
Q 1267 109 1523 96 
L 1523 0 
L 102 0 
L 102 96 
Q 371 102 460 195 
Q 550 288 550 563 
L 550 2150 
Q 550 2387 499 2480 
Q 448 2573 326 2573 
Q 230 2573 122 2547 
L 122 2656 
Q 557 2778 1011 2944 
L 1062 2925 
L 1062 2451 
L 1075 2451 
Q 1363 2752 1584 2848 
Q 1805 2944 2054 2944 
Q 2560 2944 2733 2406 
Q 3232 2944 3776 2944 
Q 4518 2944 4518 1792 
L 4518 493 
Q 4518 282 4582 202 
Q 4646 122 4794 109 
L 4960 96 
L 4960 0 
z
" transform="scale(0.015625)"/>
       <path id="STIXGeneral-Regular-65" d="M 2611 1050 
L 2714 1005 
Q 2330 -64 1376 -64 
Q 813 -64 486 329 
Q 160 723 160 1389 
Q 160 2074 525 2509 
Q 890 2944 1485 2944 
Q 2061 2944 2374 2502 
Q 2560 2246 2592 1773 
L 621 1773 
Q 646 1370 700 1158 
Q 755 947 915 730 
Q 1184 378 1626 378 
Q 1939 378 2153 531 
Q 2368 685 2611 1050 
z
M 634 1978 
L 1939 1978 
Q 1882 2381 1750 2547 
Q 1619 2714 1312 2714 
Q 1043 2714 864 2525 
Q 685 2336 634 1978 
z
" transform="scale(0.015625)"/>
       <path id="STIXGeneral-Regular-74" d="M 1702 493 
L 1786 422 
Q 1478 -64 1011 -64 
Q 448 -64 448 749 
L 448 2675 
L 109 2675 
Q 83 2694 83 2720 
Q 83 2771 192 2842 
Q 435 2982 813 3526 
Q 826 3546 874 3606 
Q 922 3667 941 3706 
Q 986 3706 986 3622 
L 986 2880 
L 1632 2880 
L 1632 2675 
L 986 2675 
L 986 845 
Q 986 538 1062 403 
Q 1139 269 1318 269 
Q 1510 269 1702 493 
z
" transform="scale(0.015625)"/>
       <path id="STIXGeneral-Regular-53" d="M 3002 2963 
L 2842 2963 
Q 2733 3360 2579 3565 
Q 2189 4064 1651 4064 
Q 1357 4064 1181 3894 
Q 1005 3725 1005 3456 
Q 1005 3328 1069 3206 
Q 1133 3085 1206 2998 
Q 1280 2912 1465 2784 
Q 1651 2656 1766 2589 
Q 1882 2522 2150 2362 
Q 2669 2061 2905 1763 
Q 3142 1466 3142 1107 
Q 3142 576 2771 243 
Q 2400 -90 1837 -90 
Q 1421 -90 1082 58 
Q 915 128 781 128 
Q 704 128 653 70 
Q 602 13 602 -83 
L 461 -83 
L 275 1274 
L 416 1274 
Q 845 141 1734 141 
Q 2074 141 2285 342 
Q 2496 544 2496 858 
Q 2496 1158 2310 1363 
Q 2003 1696 1235 2106 
Q 454 2522 454 3206 
Q 454 3718 768 4022 
Q 1082 4326 1568 4326 
Q 1907 4326 2240 4186 
Q 2413 4109 2522 4109 
Q 2688 4109 2726 4326 
L 2861 4326 
L 3002 2963 
z
" transform="scale(0.015625)"/>
       <path id="STIXGeneral-Regular-70" d="M 1018 2931 
L 1018 2438 
Q 1421 2944 1939 2944 
Q 2406 2944 2707 2560 
Q 3008 2176 3008 1581 
Q 3008 883 2621 409 
Q 2234 -64 1664 -64 
Q 1466 -64 1328 -6 
Q 1190 51 1018 211 
L 1018 -794 
Q 1018 -1094 1120 -1180 
Q 1222 -1267 1581 -1274 
L 1581 -1389 
L 32 -1389 
L 32 -1280 
Q 314 -1254 397 -1171 
Q 480 -1088 480 -838 
L 480 2157 
Q 480 2381 429 2451 
Q 378 2522 218 2522 
Q 115 2522 58 2515 
L 58 2618 
Q 506 2752 979 2944 
L 1018 2931 
z
M 1018 2138 
L 1018 563 
Q 1018 422 1238 281 
Q 1459 141 1683 141 
Q 2029 141 2243 467 
Q 2458 794 2458 1325 
Q 2458 1888 2243 2224 
Q 2029 2560 1670 2560 
Q 1446 2560 1232 2419 
Q 1018 2278 1018 2138 
z
" transform="scale(0.015625)"/>
       <path id="STIXGeneral-Regular-73" d="M 998 1926 
L 1664 1523 
Q 1984 1331 2105 1164 
Q 2227 998 2227 736 
Q 2227 416 1961 176 
Q 1696 -64 1331 -64 
Q 1030 -64 864 -6 
Q 691 51 570 51 
Q 461 51 416 -26 
L 333 -26 
L 333 979 
L 435 979 
Q 538 512 730 294 
Q 922 77 1248 77 
Q 1485 77 1632 211 
Q 1779 346 1779 550 
Q 1779 845 1440 1030 
L 1094 1222 
Q 326 1651 326 2150 
Q 326 2522 566 2730 
Q 806 2938 1210 2938 
Q 1491 2938 1638 2867 
Q 1754 2816 1818 2816 
Q 1862 2816 1920 2880 
L 1990 2880 
L 2022 2010 
L 1926 2010 
Q 1818 2445 1654 2621 
Q 1491 2797 1203 2797 
Q 986 2797 854 2688 
Q 723 2579 723 2362 
Q 723 2253 796 2128 
Q 870 2003 998 1926 
z
" transform="scale(0.015625)"/>
      </defs>
      <use xlink:href="#STIXGeneral-Regular-54"/>
      <use xlink:href="#STIXGeneral-Regular-72" x="61.099991"/>
      <use xlink:href="#STIXGeneral-Regular-61" x="94.399979"/>
      <use xlink:href="#STIXGeneral-Regular-69" x="138.799973"/>
      <use xlink:href="#STIXGeneral-Regular-6e" x="166.59996"/>
      <use xlink:href="#STIXGeneral-Regular-69" x="216.599945"/>
      <use xlink:href="#STIXGeneral-Regular-6e" x="244.399933"/>
      <use xlink:href="#STIXGeneral-Regular-67" x="294.399918"/>
      <use xlink:href="#STIXGeneral-Regular-20" x="344.399902"/>
      <use xlink:href="#STIXGeneral-Regular-45" x="369.399887"/>
      <use xlink:href="#STIXGeneral-Regular-6e" x="430.499878"/>
      <use xlink:href="#STIXGeneral-Regular-76" x="480.499863"/>
      <use xlink:href="#STIXGeneral-Regular-69" x="530.499847"/>
      <use xlink:href="#STIXGeneral-Regular-72" x="558.299835"/>
      <use xlink:href="#STIXGeneral-Regular-6f" x="591.599823"/>
      <use xlink:href="#STIXGeneral-Regular-6e" x="641.599808"/>
      <use xlink:href="#STIXGeneral-Regular-6d" x="691.599792"/>
      <use xlink:href="#STIXGeneral-Regular-65" x="769.39978"/>
      <use xlink:href="#STIXGeneral-Regular-6e" x="813.799774"/>
      <use xlink:href="#STIXGeneral-Regular-74" x="863.799759"/>
      <use xlink:href="#STIXGeneral-Regular-20" x="891.599747"/>
      <use xlink:href="#STIXGeneral-Regular-53" x="916.599731"/>
      <use xlink:href="#STIXGeneral-Regular-74" x="972.199722"/>
      <use xlink:href="#STIXGeneral-Regular-65" x="999.99971"/>
      <use xlink:href="#STIXGeneral-Regular-70" x="1044.399704"/>
      <use xlink:href="#STIXGeneral-Regular-73" x="1094.399689"/>
     </g>
    </g>
    <g id="text_8">
     <!-- 1e8 -->
     <g transform="translate(477.306875 343.753562)scale(0.18 -0.18)">
      <defs>
       <path id="STIXGeneral-Regular-38" d="M 2848 992 
Q 2848 499 2505 204 
Q 2163 -90 1587 -90 
Q 1050 -90 704 204 
Q 358 499 358 954 
Q 358 1293 524 1533 
Q 691 1773 1190 2125 
Q 710 2522 553 2765 
Q 397 3008 397 3328 
Q 397 3782 745 4054 
Q 1094 4326 1638 4326 
Q 2106 4326 2410 4060 
Q 2714 3795 2714 3411 
Q 2714 3059 2531 2848 
Q 2349 2637 1856 2374 
Q 2432 1990 2640 1689 
Q 2848 1389 2848 992 
z
M 2272 3411 
Q 2272 3744 2086 3945 
Q 1901 4147 1574 4147 
Q 1248 4147 1059 3977 
Q 870 3808 870 3513 
Q 870 3219 1059 2979 
Q 1248 2739 1670 2490 
Q 1997 2682 2134 2896 
Q 2272 3110 2272 3411 
z
M 1734 1741 
L 1357 1997 
Q 1075 1766 960 1545 
Q 845 1325 845 1011 
Q 845 576 1065 333 
Q 1286 90 1658 90 
Q 1971 90 2166 285 
Q 2362 480 2362 794 
Q 2362 1082 2214 1299 
Q 2067 1517 1734 1741 
z
" transform="scale(0.015625)"/>
      </defs>
      <use xlink:href="#STIXGeneral-Regular-31"/>
      <use xlink:href="#STIXGeneral-Regular-65" x="49.999985"/>
      <use xlink:href="#STIXGeneral-Regular-38" x="94.399979"/>
     </g>
    </g>
   </g>
   <g id="matplotlib.axis_2">
    <g id="ytick_1">
     <g id="line2d_13">
      <path d="M 56.9 292.660125 
L 503.3 292.660125 
" clip-path="url(#p739cfb53ae)" style="fill: none; stroke: #b0b0b0; stroke-width: 0.8; stroke-linecap: square"/>
     </g>
     <g id="line2d_14">
      <defs>
       <path id="m4098572f37" d="M 0 0 
L -3.5 0 
" style="stroke: #000000; stroke-width: 0.8"/>
      </defs>
      <g>
       <use xlink:href="#m4098572f37" x="56.9" y="292.660125" style="stroke: #000000; stroke-width: 0.8"/>
      </g>
     </g>
     <g id="text_9">
      <!-- 0.0 -->
      <g transform="translate(27.4 298.806844)scale(0.18 -0.18)">
       <use xlink:href="#STIXGeneral-Regular-30"/>
       <use xlink:href="#STIXGeneral-Regular-2e" x="49.999985"/>
       <use xlink:href="#STIXGeneral-Regular-30" x="74.999969"/>
      </g>
     </g>
    </g>
    <g id="ytick_2">
     <g id="line2d_15">
      <path d="M 56.9 235.404616 
L 503.3 235.404616 
" clip-path="url(#p739cfb53ae)" style="fill: none; stroke: #b0b0b0; stroke-width: 0.8; stroke-linecap: square"/>
     </g>
     <g id="line2d_16">
      <g>
       <use xlink:href="#m4098572f37" x="56.9" y="235.404616" style="stroke: #000000; stroke-width: 0.8"/>
      </g>
     </g>
     <g id="text_10">
      <!-- 0.1 -->
      <g transform="translate(27.4 241.551334)scale(0.18 -0.18)">
       <use xlink:href="#STIXGeneral-Regular-30"/>
       <use xlink:href="#STIXGeneral-Regular-2e" x="49.999985"/>
       <use xlink:href="#STIXGeneral-Regular-31" x="74.999969"/>
      </g>
     </g>
    </g>
    <g id="ytick_3">
     <g id="line2d_17">
      <path d="M 56.9 178.149106 
L 503.3 178.149106 
" clip-path="url(#p739cfb53ae)" style="fill: none; stroke: #b0b0b0; stroke-width: 0.8; stroke-linecap: square"/>
     </g>
     <g id="line2d_18">
      <g>
       <use xlink:href="#m4098572f37" x="56.9" y="178.149106" style="stroke: #000000; stroke-width: 0.8"/>
      </g>
     </g>
     <g id="text_11">
      <!-- 0.2 -->
      <g transform="translate(27.4 184.295825)scale(0.18 -0.18)">
       <use xlink:href="#STIXGeneral-Regular-30"/>
       <use xlink:href="#STIXGeneral-Regular-2e" x="49.999985"/>
       <use xlink:href="#STIXGeneral-Regular-32" x="74.999969"/>
      </g>
     </g>
    </g>
    <g id="ytick_4">
     <g id="line2d_19">
      <path d="M 56.9 120.893597 
L 503.3 120.893597 
" clip-path="url(#p739cfb53ae)" style="fill: none; stroke: #b0b0b0; stroke-width: 0.8; stroke-linecap: square"/>
     </g>
     <g id="line2d_20">
      <g>
       <use xlink:href="#m4098572f37" x="56.9" y="120.893597" style="stroke: #000000; stroke-width: 0.8"/>
      </g>
     </g>
     <g id="text_12">
      <!-- 0.3 -->
      <g transform="translate(27.4 127.040316)scale(0.18 -0.18)">
       <defs>
        <path id="STIXGeneral-Regular-33" d="M 390 3264 
L 288 3290 
Q 435 3770 748 4048 
Q 1062 4326 1542 4326 
Q 1990 4326 2265 4083 
Q 2541 3840 2541 3450 
Q 2541 2925 1946 2566 
Q 2298 2413 2477 2227 
Q 2758 1914 2758 1402 
Q 2758 890 2464 506 
Q 2246 211 1840 60 
Q 1434 -90 979 -90 
Q 262 -90 262 275 
Q 262 378 339 442 
Q 416 506 525 506 
Q 685 506 915 339 
Q 1197 141 1466 141 
Q 1818 141 2058 425 
Q 2298 710 2298 1120 
Q 2298 1856 1632 2048 
Q 1434 2112 979 2112 
L 979 2202 
Q 1338 2323 1517 2432 
Q 2035 2726 2035 3290 
Q 2035 3610 1852 3776 
Q 1670 3942 1344 3942 
Q 768 3942 390 3264 
z
" transform="scale(0.015625)"/>
       </defs>
       <use xlink:href="#STIXGeneral-Regular-30"/>
       <use xlink:href="#STIXGeneral-Regular-2e" x="49.999985"/>
       <use xlink:href="#STIXGeneral-Regular-33" x="74.999969"/>
      </g>
     </g>
    </g>
    <g id="ytick_5">
     <g id="line2d_21">
      <path d="M 56.9 63.638088 
L 503.3 63.638088 
" clip-path="url(#p739cfb53ae)" style="fill: none; stroke: #b0b0b0; stroke-width: 0.8; stroke-linecap: square"/>
     </g>
     <g id="line2d_22">
      <g>
       <use xlink:href="#m4098572f37" x="56.9" y="63.638088" style="stroke: #000000; stroke-width: 0.8"/>
      </g>
     </g>
     <g id="text_13">
      <!-- 0.4 -->
      <g transform="translate(27.4 69.784807)scale(0.18 -0.18)">
       <defs>
        <path id="STIXGeneral-Regular-34" d="M 3027 1069 
L 2368 1069 
L 2368 0 
L 1869 0 
L 1869 1069 
L 77 1069 
L 77 1478 
L 2086 4326 
L 2368 4326 
L 2368 1478 
L 3027 1478 
L 3027 1069 
z
M 1869 1478 
L 1869 3674 
L 333 1478 
L 1869 1478 
z
" transform="scale(0.015625)"/>
       </defs>
       <use xlink:href="#STIXGeneral-Regular-30"/>
       <use xlink:href="#STIXGeneral-Regular-2e" x="49.999985"/>
       <use xlink:href="#STIXGeneral-Regular-34" x="74.999969"/>
      </g>
     </g>
    </g>
    <g id="text_14">
     <!-- Success Rate -->
     <g transform="translate(19.493438 213.9045)rotate(-90)scale(0.18 -0.18)">
      <defs>
       <path id="STIXGeneral-Regular-75" d="M 3072 320 
L 3072 230 
Q 2573 96 2195 -58 
L 2163 -38 
L 2163 486 
L 2150 486 
Q 1747 -64 1235 -64 
Q 870 -64 662 160 
Q 454 384 454 755 
L 454 2362 
Q 454 2598 371 2688 
Q 288 2778 58 2790 
L 58 2880 
L 992 2880 
L 992 813 
Q 992 595 1123 451 
Q 1254 307 1446 307 
Q 1760 307 1984 506 
Q 2067 582 2099 649 
Q 2131 717 2131 877 
L 2131 2355 
Q 2131 2605 2041 2678 
Q 1952 2752 1658 2771 
L 1658 2880 
L 2669 2880 
L 2669 685 
Q 2669 461 2742 390 
Q 2816 320 3034 320 
L 3072 320 
z
" transform="scale(0.015625)"/>
       <path id="STIXGeneral-Regular-63" d="M 2547 998 
L 2637 941 
Q 2362 403 2112 205 
Q 1786 -64 1376 -64 
Q 845 -64 502 336 
Q 160 736 160 1357 
Q 160 2170 698 2618 
Q 1094 2944 1562 2944 
Q 1965 2944 2256 2749 
Q 2547 2554 2547 2285 
Q 2547 2176 2457 2096 
Q 2368 2016 2246 2016 
Q 2022 2016 1939 2310 
L 1901 2451 
Q 1850 2630 1773 2694 
Q 1696 2758 1523 2758 
Q 1133 2758 893 2451 
Q 653 2144 653 1645 
Q 653 1094 928 745 
Q 1203 397 1645 397 
Q 1920 397 2118 528 
Q 2317 659 2547 998 
z
" transform="scale(0.015625)"/>
       <path id="STIXGeneral-Regular-52" d="M 4224 0 
L 3187 0 
L 1664 1971 
L 1306 1958 
L 1306 717 
Q 1306 352 1405 249 
Q 1504 147 1875 122 
L 1875 0 
L 109 0 
L 109 122 
Q 474 154 563 262 
Q 653 371 653 794 
L 653 3526 
Q 653 3885 563 3987 
Q 474 4090 109 4115 
L 109 4237 
L 1850 4237 
Q 2726 4237 3187 3859 
Q 3501 3603 3501 3091 
Q 3501 2221 2342 2042 
L 3622 422 
Q 3757 256 3878 198 
Q 4000 141 4224 122 
L 4224 0 
z
M 1306 3731 
L 1306 2195 
Q 1766 2202 1990 2246 
Q 2214 2291 2438 2413 
Q 2803 2618 2803 3142 
Q 2803 4000 1632 4000 
Q 1459 4000 1382 3945 
Q 1306 3891 1306 3731 
z
" transform="scale(0.015625)"/>
      </defs>
      <use xlink:href="#STIXGeneral-Regular-53"/>
      <use xlink:href="#STIXGeneral-Regular-75" x="55.599991"/>
      <use xlink:href="#STIXGeneral-Regular-63" x="105.599976"/>
      <use xlink:href="#STIXGeneral-Regular-63" x="149.999969"/>
      <use xlink:href="#STIXGeneral-Regular-65" x="194.399963"/>
      <use xlink:href="#STIXGeneral-Regular-73" x="238.799957"/>
      <use xlink:href="#STIXGeneral-Regular-73" x="277.699951"/>
      <use xlink:href="#STIXGeneral-Regular-20" x="316.599945"/>
      <use xlink:href="#STIXGeneral-Regular-52" x="341.59993"/>
      <use xlink:href="#STIXGeneral-Regular-61" x="408.299927"/>
      <use xlink:href="#STIXGeneral-Regular-74" x="452.699921"/>
      <use xlink:href="#STIXGeneral-Regular-65" x="480.499908"/>
     </g>
    </g>
   </g>
   <g id="line2d_23">
    <path d="M 77.190909 292.660125 
L 483.009091 292.660125 
L 483.009091 292.660125 
" clip-path="url(#p739cfb53ae)" style="fill: none; stroke: #1f77b4; stroke-width: 1.5; stroke-linecap: square"/>
   </g>
   <g id="line2d_24">
    <path d="M 77.190909 292.660125 
L 86.713718 292.660125 
L 87.446242 288.079684 
L 88.178766 289.911861 
L 88.91129 291.011166 
L 89.643814 291.67075 
L 90.376337 292.0665 
L 91.841385 292.44642 
L 94.038956 292.613965 
L 99.899147 292.65935 
L 100.63167 288.079219 
L 101.364194 289.911582 
L 102.096718 291.010999 
L 102.829242 291.670649 
L 103.561766 292.06644 
L 104.294289 287.723473 
L 105.026813 289.698134 
L 105.759337 290.88293 
L 106.491861 291.593808 
L 107.224385 292.020335 
L 108.689432 292.429801 
L 110.15448 292.577208 
L 110.887004 288.029934 
L 111.619527 285.30157 
L 112.352051 288.244992 
L 113.084575 290.011045 
L 113.817099 286.490236 
L 114.549623 288.958192 
L 115.282146 290.438965 
L 116.01467 291.327429 
L 116.747194 291.860507 
L 117.479718 292.180354 
L 118.944765 292.487408 
L 121.142337 292.622818 
L 123.339908 292.652067 
L 124.072432 288.074849 
L 124.804956 285.328519 
L 125.537479 288.261161 
L 126.270003 290.020747 
L 127.002527 291.076498 
L 127.735051 291.709949 
L 128.467575 292.090019 
L 129.932622 292.454887 
L 131.39767 292.586239 
L 132.130194 288.035353 
L 132.862717 289.885262 
L 133.595241 290.995207 
L 134.327765 291.661174 
L 135.060289 292.060755 
L 136.525336 292.444352 
L 137.25786 292.530661 
L 137.990384 288.002006 
L 138.722908 289.865254 
L 139.455432 290.983202 
L 140.187955 291.653971 
L 140.920479 292.056433 
L 142.385527 292.442796 
L 143.118051 292.529727 
L 143.850574 288.001446 
L 144.583098 289.864918 
L 145.315622 290.983001 
L 146.048146 291.65385 
L 146.78067 292.05636 
L 148.245717 292.44277 
L 148.978241 287.949271 
L 149.710765 285.253172 
L 150.443288 283.635513 
L 151.175812 287.245358 
L 151.908336 289.411265 
L 152.64086 290.710809 
L 153.373384 291.490535 
L 154.105907 291.958371 
L 154.838431 292.239073 
L 155.570955 287.827053 
L 156.303479 289.760282 
L 157.036003 286.339778 
L 157.768526 284.287476 
L 158.50105 283.056095 
L 159.233574 286.897707 
L 159.966098 289.202674 
L 160.698622 290.585655 
L 161.431145 291.415443 
L 162.163669 291.913316 
L 163.628717 292.391274 
L 164.361241 292.498814 
L 165.093764 287.982898 
L 165.826288 285.273348 
L 166.558812 288.228059 
L 167.291336 290.000885 
L 168.02386 286.484141 
L 168.756383 288.954534 
L 169.488907 290.436771 
L 170.221431 291.326112 
L 170.953955 291.859717 
L 171.686479 292.17988 
L 173.151526 292.487237 
L 175.349097 292.622781 
L 176.081621 288.057278 
L 176.814145 289.898417 
L 177.546669 291.0031 
L 178.279193 291.66591 
L 179.011716 292.063596 
L 180.476764 292.445375 
L 181.209288 287.950834 
L 181.941812 289.83455 
L 182.674335 290.96478 
L 183.406859 291.642918 
L 184.139383 292.049801 
L 185.604431 292.440408 
L 187.802002 292.612666 
L 190.732097 292.653974 
L 191.464621 288.075994 
L 192.197145 289.909646 
L 192.929669 291.009838 
L 193.662192 291.669953 
L 194.394716 292.066022 
L 195.859764 292.446248 
L 196.592287 292.531799 
L 197.324811 288.002689 
L 198.057335 289.865663 
L 198.789859 290.983448 
L 199.522383 291.654119 
L 200.254906 292.056521 
L 201.719954 292.442828 
L 203.917525 292.613189 
L 204.650049 292.631963 
L 205.382573 288.062787 
L 206.115097 289.901722 
L 206.847621 291.005083 
L 207.580144 291.6671 
L 208.312668 292.06431 
L 209.777716 292.445632 
L 211.975287 292.613794 
L 217.835478 292.659347 
L 240.543715 292.660125 
L 241.276239 288.079684 
L 242.008763 289.911861 
L 242.741287 291.011166 
L 243.47381 291.67075 
L 244.206334 287.486059 
L 244.938858 289.555686 
L 245.671382 290.797461 
L 246.403905 291.542527 
L 247.136429 287.409125 
L 247.868953 289.509525 
L 248.601477 290.769765 
L 249.334001 291.525909 
L 250.066524 287.399155 
L 250.799048 289.503543 
L 251.531572 290.766176 
L 252.264096 291.523755 
L 252.99662 291.978303 
L 254.461667 292.414669 
L 256.659239 292.607107 
L 257.391762 292.628314 
L 258.124286 288.060598 
L 258.85681 280.739527 
L 259.589334 285.507766 
L 260.321858 288.36871 
L 261.054381 290.085276 
L 261.786905 291.115216 
L 262.519429 291.733179 
L 263.251953 292.103958 
L 264.717 292.459905 
L 266.914572 292.616877 
L 267.647096 288.053736 
L 268.379619 289.896291 
L 269.112143 286.421384 
L 269.844667 284.33644 
L 270.577191 287.665914 
L 271.309714 289.663598 
L 272.042238 290.862209 
L 272.774762 291.581375 
L 273.507286 292.012875 
L 274.972333 292.427115 
L 277.169905 292.609795 
L 282.297571 292.658716 
L 284.495143 292.659821 
L 285.227667 288.079502 
L 285.96019 289.911751 
L 286.692714 291.011101 
L 287.425238 291.67071 
L 288.157762 292.066476 
L 288.890286 292.303936 
L 289.622809 287.865971 
L 290.355333 289.783632 
L 291.087857 290.934229 
L 291.820381 291.624588 
L 292.552904 292.038803 
L 293.285428 292.287332 
L 294.017952 287.856008 
L 294.750476 289.777655 
L 295.483 290.930643 
L 296.215523 291.622436 
L 296.948047 292.037511 
L 298.413095 292.435984 
L 299.145619 292.52564 
L 299.878142 287.998994 
L 300.610666 285.283006 
L 301.34319 288.233853 
L 302.075714 285.423921 
L 302.808238 288.318403 
L 303.540761 290.055092 
L 304.273285 291.097105 
L 305.005809 291.722313 
L 305.738333 292.097438 
L 307.20338 292.457558 
L 309.400952 292.61637 
L 310.865999 292.644373 
L 311.598523 288.070233 
L 312.331047 285.325749 
L 313.063571 283.679059 
L 313.796095 287.271485 
L 314.528618 284.846501 
L 315.261142 287.97195 
L 315.993666 289.84722 
L 316.72619 290.972382 
L 317.458713 291.647479 
L 318.191237 292.052538 
L 319.656285 292.441394 
L 321.853856 292.612879 
L 322.58638 288.051337 
L 323.318904 289.894852 
L 324.051428 286.420521 
L 324.783951 284.335922 
L 325.516475 287.665603 
L 326.248999 289.663412 
L 326.981523 290.862097 
L 327.714047 287.000868 
L 328.44657 289.264571 
L 329.179094 290.622792 
L 329.911618 291.437725 
L 330.644142 291.926685 
L 332.109189 292.396087 
L 332.841713 287.921261 
L 333.574237 289.816807 
L 334.306761 290.954134 
L 335.039285 291.63653 
L 335.771808 292.045968 
L 337.236856 292.439029 
L 339.434427 292.612368 
L 344.562094 292.658788 
L 345.294618 288.078882 
L 346.027141 289.911379 
L 346.759665 291.010878 
L 347.492189 291.670577 
L 348.224713 292.066396 
L 349.68976 292.446383 
L 351.887332 292.613957 
L 357.747522 292.65935 
L 376.060617 292.660125 
L 376.793141 288.079684 
L 377.525665 289.911861 
L 378.258188 291.011166 
L 378.990712 291.67075 
L 379.723236 292.0665 
L 381.188284 292.44642 
L 383.385855 292.613965 
L 384.118379 292.632429 
L 384.850903 288.063067 
L 385.583426 289.90189 
L 386.31595 291.005184 
L 387.048474 291.66716 
L 387.780998 292.064346 
L 389.246045 292.445645 
L 391.443617 292.613797 
L 392.908664 292.643447 
L 393.641188 288.069678 
L 394.373712 289.905857 
L 395.106236 291.007564 
L 395.838759 291.668588 
L 396.571283 292.065203 
L 398.036331 292.445953 
L 400.233902 292.613864 
L 406.094093 292.659348 
L 429.534854 292.660125 
L 430.267378 288.079684 
L 430.999902 289.911861 
L 431.732425 291.011166 
L 432.464949 291.67075 
L 433.197473 292.0665 
L 434.662521 292.44642 
L 436.860092 292.613965 
L 438.325139 292.643507 
L 439.057663 288.069714 
L 439.790187 285.325438 
L 440.522711 288.259313 
L 441.255235 290.019638 
L 441.987758 291.075833 
L 442.720282 287.129109 
L 443.452806 289.341515 
L 444.18533 290.668959 
L 444.917854 291.465426 
L 445.650377 291.943305 
L 446.382901 287.649593 
L 447.115425 289.653806 
L 447.847949 290.856333 
L 448.580473 291.57785 
L 449.312996 292.01076 
L 450.778044 292.426354 
L 451.510568 292.519862 
L 452.243092 287.995527 
L 452.975615 289.861366 
L 453.708139 290.98087 
L 454.440663 291.652572 
L 455.173187 292.055593 
L 456.638234 292.442493 
L 458.835806 292.613117 
L 461.765901 292.654033 
L 462.498425 288.076029 
L 463.230948 289.909667 
L 463.963472 291.00985 
L 464.695996 291.66996 
L 465.42852 292.066026 
L 466.893567 292.446249 
L 468.358615 292.58313 
L 469.091139 288.033487 
L 469.823663 289.884142 
L 470.556186 290.994535 
L 471.28871 291.660771 
L 472.021234 292.060513 
L 472.753758 287.719917 
L 473.486282 289.696 
L 474.218805 286.301209 
L 474.951329 288.844776 
L 475.683853 290.370915 
L 476.416377 291.286599 
L 477.148901 287.255569 
L 477.881424 289.417391 
L 478.613948 290.714485 
L 479.346472 291.492741 
L 480.078996 291.959695 
L 481.544043 292.40797 
L 483.009091 292.569349 
L 483.009091 292.569349 
" clip-path="url(#p739cfb53ae)" style="fill: none; stroke: #ff7f0e; stroke-width: 1.5; stroke-linecap: square"/>
   </g>
   <g id="line2d_25">
    <path d="M 77.190909 292.660125 
L 79.38848 292.660125 
L 80.121004 283.499244 
L 80.853528 278.002715 
L 81.586052 274.704798 
L 82.318576 277.306488 
L 83.051099 274.287062 
L 83.783623 277.055846 
L 84.516147 278.717117 
L 85.248671 279.71388 
L 85.981195 275.731496 
L 86.713718 282.502948 
L 87.446242 281.985378 
L 88.178766 281.674836 
L 89.643814 281.376716 
L 90.376337 285.89008 
L 91.108861 288.598098 
L 91.841385 285.642468 
L 92.573909 288.449531 
L 93.306433 285.553328 
L 94.038956 283.815606 
L 94.77148 273.612092 
L 95.504004 281.231305 
L 96.236528 281.222392 
L 96.969052 276.636604 
L 97.701575 283.046012 
L 98.434099 286.891657 
L 99.166623 289.199044 
L 99.899147 290.583477 
L 100.63167 291.414136 
L 101.364194 287.332091 
L 102.096718 289.463305 
L 102.829242 290.742033 
L 103.561766 291.50927 
L 104.294289 291.969612 
L 105.026813 292.245817 
L 105.759337 287.8311 
L 106.491861 289.76271 
L 107.224385 290.921676 
L 107.956908 291.617056 
L 108.689432 292.034283 
L 109.421956 287.704179 
L 110.15448 289.686558 
L 110.887004 286.295544 
L 111.619527 279.680495 
L 112.352051 275.711466 
L 113.084575 277.910489 
L 113.817099 283.810343 
L 114.549623 278.189375 
L 115.282146 283.977675 
L 116.01467 287.450655 
L 116.747194 280.373562 
L 117.479718 276.127306 
L 118.212242 273.579552 
L 118.944765 276.631341 
L 119.677289 278.462414 
L 120.409813 279.561058 
L 121.142337 280.220244 
L 121.874861 280.615756 
L 122.607384 276.272622 
L 123.339908 269.086301 
L 124.072432 278.515831 
L 124.804956 275.012667 
L 125.537479 268.330328 
L 126.270003 264.320925 
L 127.002527 271.076164 
L 127.735051 275.129308 
L 128.467575 268.400313 
L 129.200098 273.523797 
L 129.932622 276.597888 
L 130.665146 273.861901 
L 131.39767 267.639869 
L 132.130194 259.326209 
L 132.862717 263.498894 
L 133.595241 275.163386 
L 134.327765 277.581641 
L 135.060289 274.452153 
L 135.792813 267.99402 
L 136.525336 268.699581 
L 137.25786 273.703358 
L 137.990384 276.705624 
L 138.722908 273.926543 
L 139.455432 276.839535 
L 140.187955 274.00689 
L 140.920479 276.887743 
L 141.653003 274.035815 
L 142.385527 272.324658 
L 143.118051 280.458845 
L 143.850574 267.017594 
L 144.583098 268.113725 
L 145.315622 259.610523 
L 146.048146 259.089042 
L 146.78067 263.356594 
L 147.513193 265.917125 
L 148.245717 267.453444 
L 148.978241 259.214354 
L 149.710765 263.431781 
L 150.443288 261.381797 
L 151.175812 269.312687 
L 152.64086 243.031081 
L 153.373384 253.721817 
L 154.105907 260.136259 
L 154.838431 263.984924 
L 155.570955 261.713683 
L 156.303479 269.511819 
L 157.036003 265.029819 
L 157.768526 266.92106 
L 158.50105 277.216686 
L 159.233574 278.813621 
L 159.966098 279.771782 
L 160.698622 284.927119 
L 161.431145 278.85944 
L 162.163669 284.379714 
L 162.896193 264.789674 
L 163.628717 257.616092 
L 164.361241 267.053265 
L 165.093764 263.554687 
L 165.826288 270.616421 
L 166.558812 274.853462 
L 167.291336 277.395687 
L 168.02386 278.921021 
L 168.756383 279.836222 
L 169.488907 275.804902 
L 170.221431 273.38611 
L 170.953955 281.095716 
L 171.686479 281.141039 
L 172.419002 276.587792 
L 173.151526 283.016725 
L 173.88405 286.874085 
L 174.616574 284.60806 
L 175.349097 283.248446 
L 176.081621 282.432677 
L 176.814145 281.943215 
L 178.279193 281.473333 
L 180.476764 281.266114 
L 181.209288 285.823719 
L 181.941812 288.558281 
L 182.674335 290.199019 
L 183.406859 282.02258 
L 184.139383 281.697157 
L 184.871907 276.921463 
L 185.604431 274.056047 
L 186.336954 272.336797 
L 187.069478 280.466128 
L 187.802002 280.763286 
L 188.534526 276.36114 
L 189.26705 278.300294 
L 189.999573 279.463786 
L 190.732097 284.742321 
L 191.464621 287.909443 
L 192.197145 289.809716 
L 192.929669 290.949879 
L 193.662192 291.633978 
L 194.394716 292.044437 
L 195.859764 292.438477 
L 198.057335 292.612249 
L 203.917525 292.659321 
L 267.647096 292.660125 
L 268.379619 288.079684 
L 269.112143 289.911861 
L 269.844667 291.011166 
L 270.577191 291.67075 
L 271.309714 292.0665 
L 272.042238 287.723509 
L 272.774762 289.698156 
L 273.507286 290.882943 
L 274.23981 287.013375 
L 274.972333 289.272075 
L 275.704857 290.627295 
L 276.437381 291.440427 
L 277.169905 291.928306 
L 278.634952 292.39667 
L 280.832524 292.603219 
L 285.96019 292.658532 
L 304.273285 292.660125 
L 305.005809 288.079684 
L 305.738333 289.911861 
L 306.470857 291.011166 
L 307.20338 291.67075 
L 307.935904 292.0665 
L 309.400952 292.44642 
L 311.598523 292.613965 
L 312.331047 292.632429 
L 313.063571 288.063067 
L 313.796095 289.90189 
L 314.528618 291.005184 
L 315.261142 291.66716 
L 315.993666 292.064346 
L 317.458713 292.445645 
L 319.656285 292.613797 
L 320.388809 288.051888 
L 321.121332 285.314742 
L 321.853856 288.252895 
L 322.58638 290.015787 
L 323.318904 291.073522 
L 324.051428 291.708163 
L 324.783951 287.508507 
L 325.516475 289.569154 
L 326.248999 290.805543 
L 326.981523 291.547376 
L 327.714047 287.412035 
L 328.44657 289.511271 
L 329.179094 290.770812 
L 329.911618 291.526537 
L 330.644142 291.979972 
L 332.109189 292.41527 
L 334.306761 292.607236 
L 335.771808 292.641085 
L 336.504332 288.06826 
L 337.236856 289.905006 
L 337.96938 286.426613 
L 338.701904 288.920018 
L 339.434427 290.416061 
L 340.166951 286.733246 
L 340.899475 284.523557 
L 341.631999 287.778184 
L 342.364522 289.73096 
L 343.097046 290.902626 
L 343.82957 291.605626 
L 344.562094 287.446985 
L 345.294618 289.532241 
L 346.027141 286.202954 
L 346.759665 288.785822 
L 347.492189 290.335543 
L 348.224713 291.265376 
L 348.957237 291.823276 
L 349.68976 292.158015 
L 351.154808 292.479366 
L 351.887332 287.971229 
L 352.619856 289.846787 
L 353.352379 290.972122 
L 354.084903 291.647323 
L 354.817427 292.052444 
L 356.282475 292.44136 
L 358.480046 292.612872 
L 359.21257 292.631773 
L 359.945094 288.062673 
L 360.677617 289.901654 
L 361.410141 291.005042 
L 362.142665 291.667075 
L 362.875189 292.064295 
L 363.607713 287.722187 
L 364.340236 289.697362 
L 365.07276 286.302027 
L 365.805284 288.845266 
L 366.537808 290.37121 
L 367.270331 291.286776 
L 368.002855 291.836115 
L 368.735379 292.165719 
L 370.200427 292.482139 
L 372.397998 292.62168 
L 378.990712 292.659738 
L 381.920807 292.660075 
L 382.653331 283.499214 
L 383.385855 287.163578 
L 384.118379 284.781756 
L 384.850903 283.352663 
L 385.583426 287.075648 
L 386.31595 289.309439 
L 387.048474 286.069273 
L 387.780998 288.705614 
L 388.513521 290.287418 
L 389.246045 291.236501 
L 389.978569 287.22551 
L 390.711093 289.399356 
L 391.443617 290.703664 
L 392.17614 291.486248 
L 392.908664 291.955799 
L 394.373712 292.406568 
L 396.571283 292.605357 
L 398.768855 292.648295 
L 399.501378 288.072586 
L 400.233902 289.907602 
L 400.966426 286.42817 
L 401.69895 284.340512 
L 402.431474 283.087916 
L 403.163997 282.336359 
L 403.896521 286.465865 
L 404.629045 288.943569 
L 405.361569 290.430192 
L 406.094093 291.322165 
L 406.826616 291.857349 
L 407.55914 292.178459 
L 409.024188 292.486725 
L 409.756712 292.556085 
L 410.489235 288.01726 
L 411.221759 289.874406 
L 411.954283 286.408253 
L 412.686807 288.909002 
L 413.41933 290.409451 
L 414.151854 286.72928 
L 414.884378 289.101618 
L 415.616902 290.525021 
L 416.349426 291.379062 
L 417.081949 291.891487 
L 417.814473 292.198942 
L 418.546997 292.383415 
L 419.279521 287.913659 
L 420.012045 289.812245 
L 420.744568 290.951397 
L 421.477092 287.054448 
L 422.209616 289.296719 
L 422.94214 290.642081 
L 423.674664 291.449299 
L 424.407187 291.933629 
L 425.139711 292.224228 
L 425.872235 287.818146 
L 426.604759 285.174497 
L 427.337283 288.168748 
L 428.069806 289.965299 
L 428.80233 286.462789 
L 429.534854 288.941723 
L 430.267378 290.429084 
L 430.999902 282.160619 
L 431.732425 281.779981 
L 432.464949 276.971157 
L 433.197473 278.666304 
L 433.929997 284.263832 
L 434.662521 287.622349 
L 435.395044 285.057019 
L 436.127568 288.098261 
L 436.860092 285.342566 
L 437.592616 283.689149 
L 438.325139 282.697099 
L 439.057663 286.682309 
L 439.790187 284.492995 
L 440.522711 287.759847 
L 441.255235 289.719958 
L 441.987758 290.896025 
L 442.720282 287.021224 
L 443.452806 289.276785 
L 444.18533 281.469239 
L 444.917854 285.945594 
L 445.650377 288.631406 
L 446.382901 290.242894 
L 447.115425 291.209786 
L 447.847949 291.789922 
L 448.580473 292.138003 
L 449.312996 292.346852 
L 450.04552 287.89172 
L 450.778044 285.218642 
L 451.510568 283.614794 
L 452.243092 282.652486 
L 452.975615 286.655542 
L 453.708139 289.057375 
L 454.440663 290.498475 
L 455.173187 286.782694 
L 455.905711 289.133667 
L 456.638234 285.963809 
L 457.370758 288.642336 
L 458.103282 290.249451 
L 458.835806 286.63328 
L 459.56833 284.463577 
L 460.300853 287.742196 
L 461.033377 280.548487 
L 462.498425 280.97123 
L 463.230948 285.646788 
L 463.963472 288.452123 
L 464.695996 285.554883 
L 465.42852 279.236099 
L 466.161044 280.025268 
L 466.893567 271.337889 
L 467.626091 275.286343 
L 468.358615 277.655415 
L 469.091139 274.496418 
L 469.823663 281.761901 
L 470.556186 286.12119 
L 471.28871 284.156324 
L 472.021234 278.396963 
L 472.753758 284.102228 
L 473.486282 282.944946 
L 474.218805 277.670136 
L 474.951329 279.085691 
L 475.683853 279.935024 
L 476.416377 275.864183 
L 477.148901 282.58256 
L 477.881424 282.033145 
L 478.613948 286.283937 
L 479.346472 284.253972 
L 480.078996 287.616433 
L 480.81152 280.473029 
L 482.276567 280.944065 
L 483.009091 281.050049 
L 483.009091 281.050049 
" clip-path="url(#p739cfb53ae)" style="fill: none; stroke: #2ca02c; stroke-width: 1.5; stroke-linecap: square"/>
   </g>
   <g id="line2d_26">
    <path d="M 77.190909 258.30682 
L 77.923433 253.72638 
L 78.655957 246.397674 
L 79.38848 242.00045 
L 80.121004 262.26432 
L 80.853528 251.520438 
L 81.586052 254.234991 
L 82.318576 260.444163 
L 83.051099 259.589226 
L 83.783623 263.656704 
L 84.516147 256.93631 
L 85.248671 248.323632 
L 85.981195 247.736467 
L 86.713718 247.384167 
L 87.446242 238.011907 
L 88.178766 241.549431 
L 88.91129 234.511065 
L 89.643814 225.707604 
L 90.376337 238.74729 
L 91.108861 237.41022 
L 91.841385 236.607978 
L 92.573909 254.448396 
L 93.306433 251.411325 
L 94.038956 249.589083 
L 94.77148 248.495737 
L 95.504004 252.42017 
L 96.236528 250.19439 
L 96.969052 253.439362 
L 97.701575 259.966786 
L 98.434099 254.722359 
L 99.166623 256.156143 
L 99.899147 261.596855 
L 100.63167 255.7004 
L 101.364194 256.742968 
L 102.096718 243.627187 
L 102.829242 244.9186 
L 103.561766 241.113006 
L 104.294289 257.151413 
L 105.026813 262.194016 
L 105.759337 260.639138 
L 106.491861 264.286651 
L 107.224385 266.47516 
L 107.956908 267.788264 
L 108.689432 268.576127 
L 109.421956 264.468405 
L 110.15448 262.003771 
L 110.887004 260.524991 
L 111.619527 264.218163 
L 112.352051 257.273185 
L 113.084575 253.106199 
L 113.817099 241.445125 
L 114.549623 234.448481 
L 115.282146 234.830935 
L 116.01467 235.060407 
L 116.747194 226.037209 
L 117.479718 225.203731 
L 118.212242 233.864526 
L 118.944765 225.31968 
L 119.677289 224.773214 
L 120.409813 224.445335 
L 121.142337 233.409488 
L 121.874861 225.046658 
L 122.607384 229.189841 
L 123.339908 231.67575 
L 124.072432 228.586856 
L 124.804956 231.31396 
L 125.537479 219.208901 
L 126.270003 225.687186 
L 127.002527 224.993718 
L 127.735051 229.158077 
L 128.467575 213.334928 
L 129.200098 217.582363 
L 129.932622 224.711264 
L 130.665146 224.408164 
L 131.39767 224.226305 
L 132.130194 228.697629 
L 132.862717 231.380423 
L 133.595241 242.150982 
L 134.327765 248.613317 
L 135.060289 238.749397 
L 135.792813 241.991925 
L 136.525336 243.937443 
L 137.25786 226.78299 
L 137.990384 230.23164 
L 138.722908 236.881272 
L 139.455432 217.968845 
L 140.187955 220.362713 
L 140.920479 217.218592 
L 141.653003 229.073443 
L 142.385527 231.605912 
L 143.118051 228.544953 
L 143.850574 208.386614 
L 144.583098 205.452493 
L 145.315622 212.852902 
L 146.048146 212.712706 
L 146.78067 171.404623 
L 147.513193 160.361096 
L 148.245717 153.73498 
L 148.978241 117.696222 
L 149.710765 109.81429 
L 150.443288 100.504687 
L 151.175812 94.918926 
L 152.64086 116.123154 
L 153.373384 118.031329 
L 154.105907 91.693595 
L 154.838431 85.051834 
L 155.570955 76.486334 
L 156.303479 89.6688 
L 157.036003 88.417393 
L 157.768526 92.246993 
L 158.50105 80.803429 
L 159.233574 83.098171 
L 159.966098 79.89458 
L 161.431145 57.581281 
L 162.163669 50.843123 
L 162.896193 55.961108 
L 163.628717 54.451462 
L 164.361241 53.545675 
L 165.093764 53.002202 
L 165.826288 43.515232 
L 166.558812 51.564373 
L 167.291336 60.974301 
L 168.02386 52.878935 
L 168.756383 43.441272 
L 169.488907 51.519997 
L 170.221431 51.786796 
L 170.953955 47.366431 
L 171.686479 44.714213 
L 172.419002 61.444641 
L 173.151526 48.580696 
L 173.88405 50.023215 
L 174.616574 55.469163 
L 175.349097 49.575852 
L 176.081621 59.781188 
L 176.814145 65.90439 
L 177.546669 64.997868 
L 178.279193 64.453954 
L 179.011716 54.966727 
L 179.74424 63.015713 
L 180.476764 58.684225 
L 181.209288 69.826648 
L 181.941812 62.770786 
L 182.674335 53.956826 
L 183.406859 53.248893 
L 184.139383 48.24369 
L 184.871907 40.660125 
L 185.604431 54.431752 
L 186.336954 58.114285 
L 187.069478 46.582482 
L 187.802002 48.824287 
L 188.534526 54.749806 
L 189.26705 53.724681 
L 189.999573 48.529163 
L 190.732097 54.572731 
L 191.464621 76.520639 
L 192.197145 85.10894 
L 192.929669 90.26192 
L 193.662192 107.095032 
L 194.394716 140.097101 
L 195.12724 155.317902 
L 196.592287 212.986017 
L 197.324811 226.533897 
L 198.057335 188.858218 
L 198.789859 198.315895 
L 199.522383 217.731825 
L 200.254906 220.220501 
L 200.98743 226.294146 
L 201.719954 229.938334 
L 202.452478 222.963965 
L 203.185002 232.520666 
L 203.917525 219.932925 
L 204.650049 221.541161 
L 205.382573 217.925661 
L 206.115097 224.917243 
L 206.847621 233.692633 
L 207.580144 238.957867 
L 208.312668 228.375685 
L 209.045192 235.767698 
L 209.777716 240.202907 
L 210.51024 252.024913 
L 211.242763 254.537676 
L 211.975287 265.206215 
L 212.707811 253.285575 
L 213.440335 250.713632 
L 214.172859 258.331348 
L 214.905382 258.321537 
L 216.37043 277.549969 
L 217.102954 283.594031 
L 217.835478 282.640028 
L 218.568001 286.648067 
L 219.300525 284.472449 
L 220.033049 287.74752 
L 220.765573 289.712562 
L 221.498096 286.311146 
L 222.23062 270.528975 
L 222.963144 270.220554 
L 223.695668 274.615942 
L 224.428192 268.092293 
L 225.160715 264.178104 
L 225.893239 275.570912 
L 226.625763 277.826157 
L 227.358287 260.85754 
L 228.090811 273.578574 
L 228.823334 276.630754 
L 229.555858 283.042502 
L 230.288382 282.309111 
L 231.020906 281.869076 
L 231.75343 277.024614 
L 232.485953 283.278819 
L 233.218477 282.4509 
L 233.951001 277.373709 
L 234.683525 278.907835 
L 235.416049 275.24787 
L 236.148572 268.47145 
L 236.881096 255.244716 
L 237.61362 256.469558 
L 238.346144 252.624022 
L 239.078668 264.058023 
L 239.811191 270.918423 
L 241.276239 250.937851 
L 242.008763 249.304998 
L 242.741287 239.164405 
L 243.47381 223.919168 
L 244.206334 201.030703 
L 244.938858 201.038947 
L 245.671382 187.30257 
L 246.403905 169.899865 
L 247.136429 168.619121 
L 247.868953 167.850675 
L 248.601477 167.389607 
L 249.334001 162.532526 
L 250.066524 155.037838 
L 250.799048 159.701905 
L 251.531572 144.178579 
L 252.264096 153.18635 
L 252.99662 131.108366 
L 254.461667 112.661768 
L 255.194191 83.891415 
L 255.926715 89.531406 
L 256.659239 97.495843 
L 257.391762 116.015828 
L 258.124286 104.22561 
L 258.85681 120.053689 
L 259.589334 115.809213 
L 260.321858 140.74517 
L 261.054381 137.384981 
L 261.786905 139.949311 
L 262.519429 141.487909 
L 263.251953 133.250182 
L 263.984477 109.985786 
L 264.717 100.607585 
L 265.449524 122.463313 
L 266.182048 140.15719 
L 266.914572 146.193076 
L 267.647096 154.395048 
L 268.379619 159.316231 
L 269.112143 125.625415 
L 269.844667 146.634891 
L 270.577191 140.918814 
L 271.309714 146.650051 
L 272.042238 140.92791 
L 272.774762 123.753302 
L 273.507286 95.126779 
L 274.23981 100.853067 
L 274.972333 127.191042 
L 275.704857 147.574267 
L 276.437381 150.643323 
L 277.169905 152.484756 
L 277.902429 162.750495 
L 278.634952 168.909939 
L 279.367476 177.186045 
L 280.1 195.893033 
L 280.832524 211.697666 
L 281.565048 207.439124 
L 282.297571 223.205762 
L 283.030095 241.826626 
L 285.227667 275.633908 
L 286.692714 252.635425 
L 287.425238 254.903983 
L 288.157762 247.104236 
L 288.890286 224.102623 
L 289.622809 210.301656 
L 290.355333 188.279756 
L 291.087857 188.807935 
L 291.820381 189.124843 
L 292.552904 207.636752 
L 293.285428 223.324338 
L 294.017952 200.673805 
L 294.750476 209.985689 
L 295.483 210.992378 
L 296.215523 220.757273 
L 296.948047 240.357532 
L 297.680571 247.537248 
L 299.145619 247.101069 
L 299.878142 260.744251 
L 300.610666 259.769279 
L 301.34319 245.442973 
L 302.075714 246.008071 
L 302.808238 218.864485 
L 303.540761 220.900097 
L 304.273285 212.960583 
L 305.005809 203.616432 
L 305.738333 216.331705 
L 307.20338 247.776219 
L 307.935904 261.149341 
L 308.668428 264.592773 
L 309.400952 266.658833 
L 310.133476 244.996264 
L 310.865999 241.159605 
L 311.598523 229.696727 
L 312.331047 209.077678 
L 313.063571 192.125809 
L 313.796095 191.115567 
L 314.528618 195.089865 
L 315.261142 197.474444 
L 315.993666 194.324748 
L 316.72619 215.337136 
L 317.458713 214.203246 
L 318.191237 208.942473 
L 319.656285 172.745134 
L 320.388809 179.487162 
L 321.853856 159.392958 
L 322.58638 171.475857 
L 323.318904 160.403836 
L 324.051428 162.921504 
L 324.783951 150.690782 
L 325.516475 129.611026 
L 326.248999 139.865378 
L 326.981523 141.437549 
L 327.714047 142.380852 
L 329.179094 124.048568 
L 329.911618 109.045254 
L 330.644142 109.204152 
L 331.376666 104.719048 
L 332.109189 111.188865 
L 332.841713 105.909875 
L 333.574237 111.903361 
L 334.306761 106.338573 
L 335.039285 98.419257 
L 335.771808 102.828554 
L 336.504332 105.474132 
L 337.236856 111.641915 
L 337.96938 115.342585 
L 338.701904 112.982551 
L 339.434427 120.72741 
L 340.166951 107.052559 
L 340.899475 108.008535 
L 341.631999 104.001678 
L 342.364522 92.436684 
L 343.097046 90.078124 
L 343.82957 84.082551 
L 344.562094 80.485208 
L 345.294618 92.068124 
L 346.027141 99.017874 
L 346.759665 98.607281 
L 347.492189 93.780482 
L 348.224713 95.464846 
L 348.957237 73.573262 
L 349.68976 78.76007 
L 350.422284 77.291719 
L 351.154808 76.410708 
L 351.887332 75.882102 
L 352.619856 70.984495 
L 353.352379 81.787254 
L 354.084903 79.108029 
L 354.817427 72.920051 
L 355.549951 73.787708 
L 356.282475 92.630061 
L 357.014998 103.935473 
L 357.747522 110.71872 
L 358.480046 119.369111 
L 359.945094 101.106927 
L 360.677617 118.182479 
L 361.410141 123.847367 
L 362.142665 122.665856 
L 362.875189 117.376513 
L 363.607713 118.783344 
L 365.07276 139.37176 
L 365.805284 127.400056 
L 366.537808 111.056147 
L 367.270331 110.410688 
L 368.002855 105.442969 
L 368.735379 107.042781 
L 369.467903 117.163548 
L 370.200427 114.075129 
L 370.93295 116.802513 
L 371.665474 118.438944 
L 372.397998 124.001246 
L 373.130522 127.338627 
L 373.863046 124.760612 
L 374.595569 114.052924 
L 375.328093 112.208754 
L 376.060617 115.682689 
L 376.793141 113.186613 
L 377.525665 120.849847 
L 378.258188 120.867344 
L 378.990712 107.13652 
L 379.723236 103.478469 
L 380.45576 101.283638 
L 381.188284 104.547182 
L 381.920807 92.763986 
L 382.653331 76.533189 
L 383.385855 75.95559 
L 384.118379 89.350354 
L 384.850903 83.645889 
L 385.583426 84.803647 
L 386.31595 80.917865 
L 387.048474 83.166832 
L 387.780998 79.935776 
L 388.513521 82.577579 
L 389.246045 84.162661 
L 389.978569 80.533273 
L 390.711093 92.096964 
L 391.443617 94.454735 
L 392.17614 105.030277 
L 392.908664 111.375602 
L 393.641188 119.763241 
L 394.373712 124.795824 
L 395.106236 155.298019 
L 395.838759 159.858014 
L 396.571283 158.01357 
L 397.303807 161.487344 
L 398.036331 136.088963 
L 398.768855 134.591257 
L 399.501378 147.433956 
L 400.233902 132.237374 
L 400.966426 127.69986 
L 402.431474 104.105997 
L 403.163997 97.079712 
L 403.896521 102.024827 
L 404.629045 114.152775 
L 405.361569 107.688222 
L 406.094093 103.80949 
L 406.826616 119.804016 
L 408.291664 101.263493 
L 409.024188 95.374209 
L 409.756712 91.840639 
L 410.489235 94.30094 
L 411.221759 91.196677 
L 411.954283 103.075442 
L 412.686807 87.300499 
L 413.41933 77.835533 
L 414.151854 72.156554 
L 414.884378 64.16873 
L 415.616902 63.956472 
L 416.349426 54.668237 
L 418.546997 107.871441 
L 419.279521 108.499864 
L 420.012045 95.135595 
L 420.744568 87.117034 
L 421.477092 82.305897 
L 422.209616 102.321418 
L 422.94214 100.589407 
L 423.674664 90.389321 
L 424.407187 84.26927 
L 425.139711 85.177675 
L 425.872235 81.142282 
L 426.604759 78.721046 
L 427.337283 77.268305 
L 428.069806 76.39666 
L 428.80233 75.873673 
L 429.534854 66.399001 
L 430.267378 65.294634 
L 430.999902 78.373337 
L 431.732425 72.479236 
L 432.464949 64.362339 
L 433.197473 77.81396 
L 433.929997 76.724053 
L 434.662521 80.650545 
L 435.395044 83.00644 
L 436.127568 84.419978 
L 436.860092 89.848543 
L 437.592616 93.105682 
L 438.325139 99.640409 
L 439.057663 94.400359 
L 439.790187 95.836772 
L 440.522711 87.53774 
L 441.255235 96.299644 
L 441.987758 101.556786 
L 442.720282 109.291508 
L 443.452806 104.771461 
L 444.917854 81.194366 
L 445.650377 92.493619 
L 446.382901 85.531849 
L 447.115425 81.354786 
L 447.847949 78.848549 
L 448.580473 86.505686 
L 449.312996 81.939088 
L 450.04552 83.779566 
L 450.778044 84.883853 
L 451.510568 80.965989 
L 452.243092 74.034827 
L 453.708139 93.947471 
L 454.440663 100.145483 
L 455.173187 90.122967 
L 455.905711 84.109457 
L 456.638234 94.242674 
L 457.370758 86.581281 
L 458.103282 95.725769 
L 458.835806 101.212461 
L 459.56833 122.826239 
L 460.300853 112.8923 
L 461.033377 125.253702 
L 461.765901 118.929221 
L 462.498425 119.714969 
L 463.230948 111.025538 
L 463.963472 105.811879 
L 464.695996 84.361925 
L 465.42852 85.233268 
L 466.161044 85.756074 
L 466.893567 86.069758 
L 467.626091 90.838411 
L 468.358615 98.280047 
L 469.823663 98.095307 
L 470.556186 98.053741 
L 471.28871 107.189681 
L 472.021234 112.671245 
L 472.753758 115.960183 
L 474.218805 92.551011 
L 474.951329 99.307606 
L 475.683853 112.522443 
L 476.416377 106.710022 
L 477.148901 98.642127 
L 477.881424 93.801389 
L 478.613948 90.896947 
L 479.346472 107.476048 
L 480.81152 82.168017 
L 481.544043 83.916924 
L 482.276567 75.805388 
L 483.009091 84.679789 
L 483.009091 84.679789 
" clip-path="url(#p739cfb53ae)" style="fill: none; stroke: #d62728; stroke-width: 1.5; stroke-linecap: square"/>
   </g>
   <g id="line2d_27">
    <path d="M 77.190909 292.660125 
L 78.655957 292.660125 
L 79.38848 288.079684 
L 80.121004 289.911861 
L 80.853528 291.011166 
L 81.586052 291.67075 
L 82.318576 287.486059 
L 83.051099 289.555686 
L 83.783623 290.797461 
L 84.516147 291.542527 
L 85.248671 287.409125 
L 85.981195 289.509525 
L 86.713718 290.769765 
L 87.446242 286.945468 
L 88.178766 289.231331 
L 88.91129 290.602849 
L 89.643814 291.425759 
L 90.376337 291.919506 
L 91.108861 292.215753 
L 91.841385 287.813061 
L 92.573909 285.171446 
L 93.306433 288.166918 
L 94.038956 289.964201 
L 94.77148 291.04257 
L 95.504004 291.689592 
L 96.236528 292.077805 
L 97.701575 292.45049 
L 99.899147 292.614844 
L 105.759337 292.659364 
L 109.421956 292.660066 
L 110.15448 288.079649 
L 110.887004 289.911839 
L 111.619527 286.430713 
L 112.352051 288.922478 
L 113.084575 290.417537 
L 113.817099 291.314572 
L 114.549623 291.852793 
L 115.282146 292.175726 
L 116.747194 292.485741 
L 117.479718 292.555495 
L 118.212242 288.016906 
L 118.944765 289.874194 
L 119.677289 290.988566 
L 120.409813 291.65719 
L 121.142337 292.058364 
L 122.607384 292.443491 
L 124.804956 292.613332 
L 125.537479 288.051609 
L 126.270003 289.895015 
L 127.002527 291.001059 
L 127.735051 291.664685 
L 128.467575 292.062861 
L 129.932622 292.44511 
L 130.665146 292.531116 
L 131.39767 288.002279 
L 132.130194 289.865417 
L 132.862717 290.9833 
L 133.595241 287.07359 
L 134.327765 284.727763 
L 135.060289 283.320267 
L 135.792813 287.05621 
L 136.525336 289.297776 
L 137.25786 290.642716 
L 137.990384 286.869239 
L 138.722908 289.185593 
L 139.455432 285.994965 
L 140.187955 288.661029 
L 140.920479 290.260668 
L 141.653003 291.220451 
L 142.385527 291.79632 
L 143.118051 287.561402 
L 143.850574 289.600891 
L 144.583098 290.824585 
L 145.315622 286.97836 
L 146.048146 284.670625 
L 146.78067 287.866425 
L 147.513193 289.783905 
L 148.245717 281.773512 
L 148.978241 286.128157 
L 149.710765 279.580063 
L 150.443288 280.231647 
L 151.175812 280.622598 
L 152.64086 280.99791 
L 153.373384 285.662796 
L 154.105907 283.881287 
L 154.838431 287.392822 
L 155.570955 289.499743 
L 156.303479 290.763896 
L 157.036003 286.941947 
L 157.768526 284.648778 
L 158.50105 278.692435 
L 159.233574 284.279511 
L 159.966098 287.631757 
L 160.698622 289.643104 
L 161.431145 286.269472 
L 162.163669 279.664852 
L 162.896193 284.862961 
L 163.628717 287.981827 
L 164.361241 289.853146 
L 165.093764 281.815056 
L 166.558812 281.427195 
L 167.291336 276.759486 
L 168.02386 273.95886 
L 168.756383 276.858926 
L 169.488907 283.179405 
L 170.221431 282.391253 
L 170.953955 286.498802 
L 171.686479 288.963331 
L 172.419002 290.442049 
L 173.151526 282.168398 
L 173.88405 277.204207 
L 174.616574 265.064812 
L 175.349097 257.781175 
L 176.081621 257.991433 
L 176.814145 253.537147 
L 177.546669 246.284134 
L 178.279193 251.093209 
L 179.011716 249.398213 
L 179.74424 252.961656 
L 180.476764 241.3584 
L 181.209288 248.137768 
L 181.941812 247.624948 
L 182.674335 251.897697 
L 183.406859 254.461346 
L 184.871907 276.1603 
L 185.604431 259.858026 
L 186.336954 259.237544 
L 187.069478 254.284814 
L 187.802002 265.054498 
L 188.534526 271.516308 
L 189.26705 279.973835 
L 189.999573 285.048351 
L 190.732097 288.093061 
L 191.464621 289.919886 
L 192.197145 291.015982 
L 192.929669 282.512758 
L 193.662192 286.571705 
L 194.394716 289.007073 
L 195.12724 290.468294 
L 195.859764 291.345026 
L 196.592287 291.871066 
L 197.324811 292.186689 
L 198.789859 292.489688 
L 200.98743 292.623311 
L 208.312668 292.659902 
L 252.264096 292.660125 
L 252.99662 288.079684 
L 253.729143 289.911861 
L 254.461667 291.011166 
L 255.194191 291.67075 
L 255.926715 292.0665 
L 257.391762 292.44642 
L 258.124286 292.531902 
L 258.85681 288.002751 
L 259.589334 289.8657 
L 260.321858 290.98347 
L 261.054381 291.654132 
L 261.786905 287.476089 
L 262.519429 289.549703 
L 263.251953 290.793872 
L 263.984477 291.540373 
L 264.717 291.988274 
L 266.182048 292.418259 
L 266.914572 287.934565 
L 267.647096 285.244348 
L 268.379619 288.210659 
L 269.112143 280.829564 
L 269.844667 285.561788 
L 270.577191 288.401123 
L 271.309714 285.524283 
L 272.042238 283.798179 
L 272.774762 282.762517 
L 273.507286 277.560679 
L 274.23981 283.600457 
L 274.972333 282.643884 
L 275.704857 286.65038 
L 276.437381 289.054278 
L 277.169905 285.916176 
L 277.902429 284.033315 
L 278.634952 282.903598 
L 279.367476 282.225768 
L 280.1 281.81907 
L 280.832524 286.155492 
L 281.565048 288.757345 
L 282.297571 290.318457 
L 283.030095 291.255124 
L 283.762619 291.817125 
L 284.495143 292.154325 
L 285.96019 292.478037 
L 288.157762 292.620794 
L 289.622809 292.645966 
L 290.355333 288.071189 
L 291.087857 289.906763 
L 291.820381 291.008108 
L 292.552904 291.668915 
L 293.285428 292.065399 
L 294.017952 287.722849 
L 294.750476 289.697759 
L 295.483 290.882706 
L 296.215523 291.593673 
L 296.948047 292.020254 
L 298.413095 292.429771 
L 300.610666 292.610369 
L 302.808238 292.649378 
L 303.540761 288.073236 
L 304.273285 289.907992 
L 305.005809 291.008845 
L 305.738333 291.669357 
L 306.470857 292.065664 
L 307.20338 287.723008 
L 307.935904 289.697855 
L 308.668428 290.882763 
L 309.400952 291.593708 
L 310.133476 292.020275 
L 311.598523 292.429779 
L 313.796095 292.61037 
L 317.458713 292.656256 
L 318.191237 288.077363 
L 318.923761 289.910468 
L 319.656285 291.010331 
L 320.388809 291.670248 
L 321.121332 292.066199 
L 322.58638 292.446312 
L 324.783951 292.613941 
L 327.714047 292.65414 
L 328.44657 288.076093 
L 329.179094 289.909706 
L 329.911618 286.429433 
L 330.644142 288.92171 
L 331.376666 281.256195 
L 332.109189 285.817767 
L 332.841713 288.55471 
L 333.574237 285.616435 
L 334.306761 288.433911 
L 335.039285 290.124397 
L 335.771808 286.558247 
L 336.504332 288.998998 
L 337.236856 290.463449 
L 337.96938 291.342119 
L 338.701904 291.869322 
L 339.434427 292.185643 
L 340.899475 292.489311 
L 343.097046 292.623229 
L 346.027141 292.655343 
L 346.759665 288.076815 
L 347.492189 289.910139 
L 348.224713 291.010134 
L 348.957237 287.089689 
L 349.68976 289.317864 
L 350.422284 290.654768 
L 351.154808 291.456911 
L 351.887332 291.938197 
L 353.352379 292.400231 
L 354.084903 292.504188 
L 354.817427 287.986122 
L 355.549951 289.855723 
L 356.282475 290.977484 
L 357.014998 291.65054 
L 357.747522 292.054374 
L 359.21257 292.442055 
L 361.410141 292.613022 
L 367.270331 292.659334 
L 406.826616 292.660125 
L 407.55914 288.079684 
L 408.291664 289.911861 
L 409.024188 291.011166 
L 409.756712 291.67075 
L 410.489235 292.0665 
L 411.954283 292.44642 
L 413.41933 292.583191 
L 414.151854 288.033524 
L 414.884378 289.884164 
L 415.616902 286.414108 
L 416.349426 288.912515 
L 417.081949 290.411559 
L 417.814473 291.310985 
L 418.546997 291.850641 
L 419.279521 292.174435 
L 420.744568 292.485276 
L 422.94214 292.622358 
L 429.534854 292.659744 
L 430.267378 288.079456 
L 430.999902 289.911724 
L 431.732425 291.011084 
L 432.464949 291.6707 
L 433.197473 292.06647 
L 434.662521 292.446409 
L 436.860092 292.613962 
L 442.720282 292.65935 
L 458.835806 292.660125 
L 459.56833 288.079684 
L 460.300853 289.911861 
L 461.033377 291.011166 
L 461.765901 291.67075 
L 462.498425 292.0665 
L 463.963472 292.44642 
L 466.161044 292.613965 
L 472.021234 292.65935 
L 482.276567 292.660124 
L 483.009091 288.079684 
L 483.009091 288.079684 
" clip-path="url(#p739cfb53ae)" style="fill: none; stroke: #9467bd; stroke-width: 1.5; stroke-linecap: square"/>
   </g>
   <g id="patch_3">
    <path d="M 56.9 305.260125 
L 56.9 28.060125 
" style="fill: none; stroke: #000000; stroke-width: 0.8; stroke-linejoin: miter; stroke-linecap: square"/>
   </g>
   <g id="patch_4">
    <path d="M 503.3 305.260125 
L 503.3 28.060125 
" style="fill: none; stroke: #000000; stroke-width: 0.8; stroke-linejoin: miter; stroke-linecap: square"/>
   </g>
   <g id="patch_5">
    <path d="M 56.9 305.260125 
L 503.3 305.260125 
" style="fill: none; stroke: #000000; stroke-width: 0.8; stroke-linejoin: miter; stroke-linecap: square"/>
   </g>
   <g id="patch_6">
    <path d="M 56.9 28.060125 
L 503.3 28.060125 
" style="fill: none; stroke: #000000; stroke-width: 0.8; stroke-linejoin: miter; stroke-linecap: square"/>
   </g>
   <g id="text_15">
    <!-- ML45 Meta Testing -->
    <g transform="translate(193.104313 22.060125)scale(0.216 -0.216)">
     <defs>
      <path id="STIXGeneral-Regular-4d" d="M 5530 0 
L 3738 0 
L 3738 122 
Q 4115 147 4214 265 
Q 4314 384 4314 787 
L 4314 3661 
L 2682 0 
L 2592 0 
L 979 3514 
L 979 966 
Q 979 448 1088 294 
Q 1197 141 1574 122 
L 1574 0 
L 77 0 
L 77 122 
Q 358 141 480 205 
Q 602 269 650 432 
Q 698 595 698 966 
L 698 3514 
Q 698 3878 589 3984 
Q 480 4090 90 4115 
L 90 4237 
L 1357 4237 
L 2835 1024 
L 4250 4237 
L 5523 4237 
L 5523 4115 
Q 5178 4109 5072 3993 
Q 4966 3878 4966 3520 
L 4966 717 
Q 4966 378 5072 262 
Q 5178 147 5530 122 
L 5530 0 
z
" transform="scale(0.015625)"/>
      <path id="STIXGeneral-Regular-4c" d="M 3827 1114 
L 3520 0 
L 77 0 
L 77 122 
Q 429 141 531 256 
Q 634 371 634 736 
L 634 3494 
Q 634 3872 541 3981 
Q 448 4090 77 4115 
L 77 4237 
L 1888 4237 
L 1888 4115 
Q 1498 4090 1392 3984 
Q 1286 3878 1286 3507 
L 1286 538 
Q 1286 358 1398 304 
Q 1510 250 1862 250 
L 2310 250 
Q 3085 250 3392 640 
Q 3520 813 3661 1114 
L 3827 1114 
z
" transform="scale(0.015625)"/>
     </defs>
     <use xlink:href="#STIXGeneral-Regular-4d"/>
     <use xlink:href="#STIXGeneral-Regular-4c" x="88.899994"/>
     <use xlink:href="#STIXGeneral-Regular-34" x="149.999985"/>
     <use xlink:href="#STIXGeneral-Regular-35" x="199.999969"/>
     <use xlink:href="#STIXGeneral-Regular-20" x="249.999954"/>
     <use xlink:href="#STIXGeneral-Regular-4d" x="274.999939"/>
     <use xlink:href="#STIXGeneral-Regular-65" x="363.899933"/>
     <use xlink:href="#STIXGeneral-Regular-74" x="408.299927"/>
     <use xlink:href="#STIXGeneral-Regular-61" x="436.099915"/>
     <use xlink:href="#STIXGeneral-Regular-20" x="480.499908"/>
     <use xlink:href="#STIXGeneral-Regular-54" x="505.499893"/>
     <use xlink:href="#STIXGeneral-Regular-65" x="566.599884"/>
     <use xlink:href="#STIXGeneral-Regular-73" x="610.999878"/>
     <use xlink:href="#STIXGeneral-Regular-74" x="649.899872"/>
     <use xlink:href="#STIXGeneral-Regular-69" x="677.69986"/>
     <use xlink:href="#STIXGeneral-Regular-6e" x="705.499847"/>
     <use xlink:href="#STIXGeneral-Regular-67" x="755.499832"/>
    </g>
   </g>
   <g id="legend_1">
    <g id="patch_7">
     <path d="M 62.5 205.166687 
L 170.593125 205.166687 
Q 173.393125 205.166687 173.393125 202.366687 
L 173.393125 130.953562 
Q 173.393125 128.153562 170.593125 128.153562 
L 62.5 128.153562 
Q 59.7 128.153562 59.7 130.953562 
L 59.7 202.366687 
Q 59.7 205.166687 62.5 205.166687 
z
" style="fill: #ffffff; opacity: 0.8; stroke: #cccccc; stroke-linejoin: miter"/>
    </g>
    <g id="line2d_28">
     <path d="M 63.9 138.065125 
L 70.9 138.065125 
L 77.9 138.065125 
" style="fill: none; stroke: #1f77b4; stroke-width: 1.5; stroke-linecap: square"/>
    </g>
    <g id="text_16">
     <!-- bin-picking-v2 -->
     <g transform="translate(82.1 141.915125)scale(0.14 -0.14)">
      <defs>
       <path id="STIXGeneral-Regular-62" d="M 979 4358 
L 979 2406 
Q 1082 2650 1315 2797 
Q 1549 2944 1843 2944 
Q 2349 2944 2672 2541 
Q 2995 2138 2995 1536 
Q 2995 832 2566 384 
Q 2138 -64 1498 -64 
Q 1107 -64 774 67 
Q 442 198 442 358 
L 442 3622 
Q 442 3859 384 3926 
Q 326 3994 128 3994 
Q 83 3994 19 3981 
L 19 4090 
L 211 4147 
Q 864 4346 947 4371 
L 979 4358 
z
M 979 2035 
L 979 474 
Q 979 326 1161 233 
Q 1344 141 1600 141 
Q 1978 141 2195 416 
Q 2432 710 2432 1261 
Q 2432 1888 2182 2240 
Q 1971 2541 1613 2541 
Q 1357 2541 1168 2390 
Q 979 2240 979 2035 
z
" transform="scale(0.015625)"/>
       <path id="STIXGeneral-Regular-2d" d="M 1824 1242 
L 250 1242 
L 250 1645 
L 1824 1645 
L 1824 1242 
z
" transform="scale(0.015625)"/>
       <path id="STIXGeneral-Regular-6b" d="M 3232 0 
L 1837 0 
L 1837 96 
L 1958 96 
Q 2093 96 2093 192 
Q 2093 250 2022 339 
L 1062 1606 
L 1062 429 
Q 1062 262 1142 185 
Q 1222 109 1414 102 
L 1542 96 
L 1542 0 
L 45 0 
L 45 96 
Q 390 154 457 214 
Q 525 275 525 525 
L 525 3610 
Q 525 3840 467 3920 
Q 410 4000 250 4000 
Q 211 4000 45 3987 
L 45 4090 
L 237 4141 
Q 621 4243 1037 4371 
L 1062 4358 
L 1062 1670 
L 1939 2451 
Q 2086 2586 2086 2675 
Q 2086 2739 2019 2761 
Q 1952 2784 1766 2790 
L 1766 2880 
L 3072 2880 
L 3072 2784 
Q 2752 2784 2505 2646 
Q 2259 2509 1690 1978 
L 1504 1805 
L 2483 563 
Q 2829 122 3232 96 
L 3232 0 
z
" transform="scale(0.015625)"/>
      </defs>
      <use xlink:href="#STIXGeneral-Regular-62"/>
      <use xlink:href="#STIXGeneral-Regular-69" x="49.999985"/>
      <use xlink:href="#STIXGeneral-Regular-6e" x="77.799973"/>
      <use xlink:href="#STIXGeneral-Regular-2d" x="127.799957"/>
      <use xlink:href="#STIXGeneral-Regular-70" x="161.099945"/>
      <use xlink:href="#STIXGeneral-Regular-69" x="211.09993"/>
      <use xlink:href="#STIXGeneral-Regular-63" x="238.899918"/>
      <use xlink:href="#STIXGeneral-Regular-6b" x="283.299911"/>
      <use xlink:href="#STIXGeneral-Regular-69" x="333.299896"/>
      <use xlink:href="#STIXGeneral-Regular-6e" x="361.099884"/>
      <use xlink:href="#STIXGeneral-Regular-67" x="411.099869"/>
      <use xlink:href="#STIXGeneral-Regular-2d" x="461.099854"/>
      <use xlink:href="#STIXGeneral-Regular-76" x="494.399841"/>
      <use xlink:href="#STIXGeneral-Regular-32" x="544.399826"/>
     </g>
    </g>
    <g id="line2d_29">
     <path d="M 63.9 152.07825 
L 70.9 152.07825 
L 77.9 152.07825 
" style="fill: none; stroke: #ff7f0e; stroke-width: 1.5; stroke-linecap: square"/>
    </g>
    <g id="text_17">
     <!-- box-close-v2 -->
     <g transform="translate(82.1 155.92825)scale(0.14 -0.14)">
      <defs>
       <path id="STIXGeneral-Regular-78" d="M 3066 0 
L 1779 0 
L 1779 96 
Q 1939 109 1987 137 
Q 2035 166 2035 250 
Q 2035 307 1997 365 
L 1414 1261 
L 909 474 
Q 781 275 781 211 
Q 781 96 1037 96 
L 1037 0 
L 109 0 
L 109 96 
Q 269 109 355 169 
Q 442 230 576 422 
L 1306 1478 
L 704 2400 
Q 557 2624 454 2704 
Q 352 2784 211 2784 
L 154 2784 
L 154 2880 
L 1478 2880 
L 1478 2784 
Q 1203 2778 1203 2643 
Q 1203 2509 1498 2074 
Q 1581 1958 1587 1946 
Q 1619 1990 1779 2227 
Q 1811 2285 1856 2349 
Q 1901 2413 1923 2451 
Q 1946 2490 1971 2528 
Q 1997 2566 2006 2595 
Q 2016 2624 2016 2643 
Q 2016 2765 1760 2784 
L 1760 2880 
L 2771 2880 
L 2771 2784 
Q 2445 2771 2253 2502 
L 1722 1734 
L 2541 480 
Q 2790 96 3066 96 
L 3066 0 
z
" transform="scale(0.015625)"/>
       <path id="STIXGeneral-Regular-6c" d="M 1645 0 
L 134 0 
L 134 96 
Q 435 122 531 221 
Q 627 320 627 589 
L 627 3590 
Q 627 3821 569 3910 
Q 512 4000 358 4000 
Q 224 4000 122 3987 
L 122 4090 
Q 730 4237 1133 4371 
L 1165 4346 
L 1165 557 
Q 1165 288 1254 201 
Q 1344 115 1645 96 
L 1645 0 
z
" transform="scale(0.015625)"/>
      </defs>
      <use xlink:href="#STIXGeneral-Regular-62"/>
      <use xlink:href="#STIXGeneral-Regular-6f" x="49.999985"/>
      <use xlink:href="#STIXGeneral-Regular-78" x="99.999969"/>
      <use xlink:href="#STIXGeneral-Regular-2d" x="149.999954"/>
      <use xlink:href="#STIXGeneral-Regular-63" x="183.299942"/>
      <use xlink:href="#STIXGeneral-Regular-6c" x="227.699936"/>
      <use xlink:href="#STIXGeneral-Regular-6f" x="255.499924"/>
      <use xlink:href="#STIXGeneral-Regular-73" x="305.499908"/>
      <use xlink:href="#STIXGeneral-Regular-65" x="344.399902"/>
      <use xlink:href="#STIXGeneral-Regular-2d" x="388.799896"/>
      <use xlink:href="#STIXGeneral-Regular-76" x="422.099884"/>
      <use xlink:href="#STIXGeneral-Regular-32" x="472.099869"/>
     </g>
    </g>
    <g id="line2d_30">
     <path d="M 63.9 166.07825 
L 70.9 166.07825 
L 77.9 166.07825 
" style="fill: none; stroke: #2ca02c; stroke-width: 1.5; stroke-linecap: square"/>
    </g>
    <g id="text_18">
     <!-- hand-insert-v2 -->
     <g transform="translate(82.1 169.92825)scale(0.14 -0.14)">
      <defs>
       <path id="STIXGeneral-Regular-68" d="M 3117 0 
L 1760 0 
L 1760 96 
Q 2042 128 2118 224 
Q 2195 320 2195 653 
L 2195 1920 
Q 2195 2598 1722 2598 
Q 1530 2598 1370 2508 
Q 1210 2419 1005 2195 
L 1005 653 
Q 1005 320 1081 224 
Q 1158 128 1440 96 
L 1440 0 
L 58 0 
L 58 96 
Q 333 134 400 224 
Q 467 314 467 653 
L 467 3667 
Q 467 3872 406 3933 
Q 346 3994 141 3994 
Q 83 3994 64 3987 
L 64 4090 
L 237 4141 
Q 730 4288 973 4371 
L 1005 4352 
L 1005 2406 
Q 1229 2694 1446 2819 
Q 1664 2944 1946 2944 
Q 2733 2944 2733 1926 
L 2733 653 
Q 2733 320 2793 233 
Q 2854 147 3117 96 
L 3117 0 
z
" transform="scale(0.015625)"/>
       <path id="STIXGeneral-Regular-64" d="M 3142 269 
L 2202 -64 
L 2176 -45 
L 2176 365 
Q 1869 -64 1357 -64 
Q 826 -64 499 317 
Q 173 698 173 1312 
Q 173 1990 563 2467 
Q 954 2944 1504 2944 
Q 1850 2944 2176 2669 
L 2176 3667 
Q 2176 3866 2118 3930 
Q 2061 3994 1882 3994 
Q 1792 3994 1741 3987 
L 1741 4090 
Q 2323 4243 2682 4371 
L 2714 4358 
L 2714 730 
Q 2714 506 2768 435 
Q 2822 365 2995 365 
Q 3034 365 3142 371 
L 3142 269 
z
M 2176 653 
L 2176 2125 
Q 2176 2381 1981 2573 
Q 1786 2765 1523 2765 
Q 1158 2765 940 2438 
Q 723 2112 723 1568 
Q 723 979 963 624 
Q 1203 269 1606 269 
Q 1907 269 2080 474 
Q 2176 582 2176 653 
z
" transform="scale(0.015625)"/>
      </defs>
      <use xlink:href="#STIXGeneral-Regular-68"/>
      <use xlink:href="#STIXGeneral-Regular-61" x="49.999985"/>
      <use xlink:href="#STIXGeneral-Regular-6e" x="94.399979"/>
      <use xlink:href="#STIXGeneral-Regular-64" x="144.399963"/>
      <use xlink:href="#STIXGeneral-Regular-2d" x="194.399948"/>
      <use xlink:href="#STIXGeneral-Regular-69" x="227.699936"/>
      <use xlink:href="#STIXGeneral-Regular-6e" x="255.499924"/>
      <use xlink:href="#STIXGeneral-Regular-73" x="305.499908"/>
      <use xlink:href="#STIXGeneral-Regular-65" x="344.399902"/>
      <use xlink:href="#STIXGeneral-Regular-72" x="388.799896"/>
      <use xlink:href="#STIXGeneral-Regular-74" x="422.099884"/>
      <use xlink:href="#STIXGeneral-Regular-2d" x="449.899872"/>
      <use xlink:href="#STIXGeneral-Regular-76" x="483.19986"/>
      <use xlink:href="#STIXGeneral-Regular-32" x="533.199844"/>
     </g>
    </g>
    <g id="line2d_31">
     <path d="M 63.9 180.07825 
L 70.9 180.07825 
L 77.9 180.07825 
" style="fill: none; stroke: #d62728; stroke-width: 1.5; stroke-linecap: square"/>
    </g>
    <g id="text_19">
     <!-- door-lock-v2 -->
     <g transform="translate(82.1 183.92825)scale(0.14 -0.14)">
      <use xlink:href="#STIXGeneral-Regular-64"/>
      <use xlink:href="#STIXGeneral-Regular-6f" x="49.999985"/>
      <use xlink:href="#STIXGeneral-Regular-6f" x="99.999969"/>
      <use xlink:href="#STIXGeneral-Regular-72" x="149.999954"/>
      <use xlink:href="#STIXGeneral-Regular-2d" x="183.299942"/>
      <use xlink:href="#STIXGeneral-Regular-6c" x="216.59993"/>
      <use xlink:href="#STIXGeneral-Regular-6f" x="244.399918"/>
      <use xlink:href="#STIXGeneral-Regular-63" x="294.399902"/>
      <use xlink:href="#STIXGeneral-Regular-6b" x="338.799896"/>
      <use xlink:href="#STIXGeneral-Regular-2d" x="388.799881"/>
      <use xlink:href="#STIXGeneral-Regular-76" x="422.099869"/>
      <use xlink:href="#STIXGeneral-Regular-32" x="472.099854"/>
     </g>
    </g>
    <g id="line2d_32">
     <path d="M 63.9 194.07825 
L 70.9 194.07825 
L 77.9 194.07825 
" style="fill: none; stroke: #9467bd; stroke-width: 1.5; stroke-linecap: square"/>
    </g>
    <g id="text_20">
     <!-- door-unlock-v2 -->
     <g transform="translate(82.1 197.92825)scale(0.14 -0.14)">
      <use xlink:href="#STIXGeneral-Regular-64"/>
      <use xlink:href="#STIXGeneral-Regular-6f" x="49.999985"/>
      <use xlink:href="#STIXGeneral-Regular-6f" x="99.999969"/>
      <use xlink:href="#STIXGeneral-Regular-72" x="149.999954"/>
      <use xlink:href="#STIXGeneral-Regular-2d" x="183.299942"/>
      <use xlink:href="#STIXGeneral-Regular-75" x="216.59993"/>
      <use xlink:href="#STIXGeneral-Regular-6e" x="266.599915"/>
      <use xlink:href="#STIXGeneral-Regular-6c" x="316.599899"/>
      <use xlink:href="#STIXGeneral-Regular-6f" x="344.399887"/>
      <use xlink:href="#STIXGeneral-Regular-63" x="394.399872"/>
      <use xlink:href="#STIXGeneral-Regular-6b" x="438.799866"/>
      <use xlink:href="#STIXGeneral-Regular-2d" x="488.79985"/>
      <use xlink:href="#STIXGeneral-Regular-76" x="522.099838"/>
      <use xlink:href="#STIXGeneral-Regular-32" x="572.099823"/>
     </g>
    </g>
   </g>
  </g>
 </g>
 <defs>
  <clipPath id="p739cfb53ae">
   <rect x="56.9" y="28.060125" width="446.4" height="277.2"/>
  </clipPath>
 </defs>
</svg>
