<?xml version="1.0" encoding="utf-8" standalone="no"?>
<!DOCTYPE svg PUBLIC "-//W3C//DTD SVG 1.1//EN"
  "http://www.w3.org/Graphics/SVG/1.1/DTD/svg11.dtd">
<svg xmlns:xlink="http://www.w3.org/1999/xlink" width="519.5pt" height="355.877pt" viewBox="0 0 519.5 355.877" xmlns="http://www.w3.org/2000/svg" version="1.1">
 <metadata>
  <rdf:RDF xmlns:dc="http://purl.org/dc/elements/1.1/" xmlns:cc="http://creativecommons.org/ns#" xmlns:rdf="http://www.w3.org/1999/02/22-rdf-syntax-ns#">
   <cc:Work>
    <dc:type rdf:resource="http://purl.org/dc/dcmitype/StillImage"/>
    <dc:date>2021-12-11T20:28:13.038959</dc:date>
    <dc:format>image/svg+xml</dc:format>
    <dc:creator>
     <cc:Agent>
      <dc:title>Matplotlib v3.5.0, https://matplotlib.org/</dc:title>
     </cc:Agent>
    </dc:creator>
   </cc:Work>
  </rdf:RDF>
 </metadata>
 <defs>
  <style type="text/css">*{stroke-linejoin: round; stroke-linecap: butt}</style>
 </defs>
 <g id="figure_1">
  <g id="patch_1">
   <path d="M 0 355.877 
L 519.5 355.877 
L 519.5 0 
L 0 0 
z
" style="fill: #ffffff"/>
  </g>
  <g id="axes_1">
   <g id="patch_2">
    <path d="M 65.9 305.260125 
L 512.3 305.260125 
L 512.3 28.060125 
L 65.9 28.060125 
z
" style="fill: #ffffff"/>
   </g>
   <g id="matplotlib.axis_1">
    <g id="xtick_1">
     <g id="line2d_1">
      <path d="M 84.715207 305.260125 
L 84.715207 28.060125 
" clip-path="url(#pa60196f563)" style="fill: none; stroke: #b0b0b0; stroke-width: 0.8; stroke-linecap: square"/>
     </g>
     <g id="line2d_2">
      <defs>
       <path id="m73b72dc942" d="M 0 0 
L 0 3.5 
" style="stroke: #000000; stroke-width: 0.8"/>
      </defs>
      <g>
       <use xlink:href="#m73b72dc942" x="84.715207" y="305.260125" style="stroke: #000000; stroke-width: 0.8"/>
      </g>
     </g>
     <g id="text_1">
      <!-- 0 -->
      <g transform="translate(80.215207 324.553562)scale(0.18 -0.18)">
       <defs>
        <path id="STIXGeneral-Regular-30" d="M 3046 2112 
Q 3046 1683 2963 1302 
Q 2880 922 2717 602 
Q 2554 282 2266 96 
Q 1978 -90 1600 -90 
Q 1210 -90 915 108 
Q 621 307 461 640 
Q 301 973 227 1350 
Q 154 1728 154 2150 
Q 154 2746 301 3222 
Q 448 3699 790 4012 
Q 1133 4326 1626 4326 
Q 2253 4326 2649 3712 
Q 3046 3098 3046 2112 
z
M 2432 2080 
Q 2432 3091 2217 3625 
Q 2003 4160 1587 4160 
Q 1190 4160 979 3622 
Q 768 3085 768 2106 
Q 768 1120 979 598 
Q 1190 77 1600 77 
Q 2003 77 2217 598 
Q 2432 1120 2432 2080 
z
" transform="scale(0.015625)"/>
       </defs>
       <use xlink:href="#STIXGeneral-Regular-30"/>
      </g>
     </g>
    </g>
    <g id="xtick_2">
     <g id="line2d_3">
      <path d="M 157.589403 305.260125 
L 157.589403 28.060125 
" clip-path="url(#pa60196f563)" style="fill: none; stroke: #b0b0b0; stroke-width: 0.8; stroke-linecap: square"/>
     </g>
     <g id="line2d_4">
      <g>
       <use xlink:href="#m73b72dc942" x="157.589403" y="305.260125" style="stroke: #000000; stroke-width: 0.8"/>
      </g>
     </g>
     <g id="text_2">
      <!-- 1 -->
      <g transform="translate(153.089403 324.553562)scale(0.18 -0.18)">
       <defs>
        <path id="STIXGeneral-Regular-31" d="M 2522 0 
L 755 0 
L 755 96 
Q 1107 115 1235 227 
Q 1363 339 1363 608 
L 1363 3482 
Q 1363 3795 1171 3795 
Q 1082 3795 883 3718 
L 710 3654 
L 710 3744 
L 1856 4326 
L 1914 4307 
L 1914 486 
Q 1914 275 2042 185 
Q 2170 96 2522 96 
L 2522 0 
z
" transform="scale(0.015625)"/>
       </defs>
       <use xlink:href="#STIXGeneral-Regular-31"/>
      </g>
     </g>
    </g>
    <g id="xtick_3">
     <g id="line2d_5">
      <path d="M 230.4636 305.260125 
L 230.4636 28.060125 
" clip-path="url(#pa60196f563)" style="fill: none; stroke: #b0b0b0; stroke-width: 0.8; stroke-linecap: square"/>
     </g>
     <g id="line2d_6">
      <g>
       <use xlink:href="#m73b72dc942" x="230.4636" y="305.260125" style="stroke: #000000; stroke-width: 0.8"/>
      </g>
     </g>
     <g id="text_3">
      <!-- 2 -->
      <g transform="translate(225.9636 324.553562)scale(0.18 -0.18)">
       <defs>
        <path id="STIXGeneral-Regular-32" d="M 3034 877 
L 2688 0 
L 186 0 
L 186 77 
L 1325 1286 
Q 1773 1754 1965 2144 
Q 2157 2534 2157 2950 
Q 2157 3379 1920 3616 
Q 1683 3853 1267 3853 
Q 922 3853 720 3673 
Q 518 3494 326 3021 
L 192 3053 
Q 301 3648 630 3987 
Q 960 4326 1523 4326 
Q 2054 4326 2380 4006 
Q 2707 3686 2707 3200 
Q 2707 2477 1888 1613 
L 832 486 
L 2330 486 
Q 2541 486 2665 569 
Q 2790 653 2944 915 
L 3034 877 
z
" transform="scale(0.015625)"/>
       </defs>
       <use xlink:href="#STIXGeneral-Regular-32"/>
      </g>
     </g>
    </g>
    <g id="xtick_4">
     <g id="line2d_7">
      <path d="M 303.337796 305.260125 
L 303.337796 28.060125 
" clip-path="url(#pa60196f563)" style="fill: none; stroke: #b0b0b0; stroke-width: 0.8; stroke-linecap: square"/>
     </g>
     <g id="line2d_8">
      <g>
       <use xlink:href="#m73b72dc942" x="303.337796" y="305.260125" style="stroke: #000000; stroke-width: 0.8"/>
      </g>
     </g>
     <g id="text_4">
      <!-- 3 -->
      <g transform="translate(298.837796 324.553562)scale(0.18 -0.18)">
       <defs>
        <path id="STIXGeneral-Regular-33" d="M 390 3264 
L 288 3290 
Q 435 3770 748 4048 
Q 1062 4326 1542 4326 
Q 1990 4326 2265 4083 
Q 2541 3840 2541 3450 
Q 2541 2925 1946 2566 
Q 2298 2413 2477 2227 
Q 2758 1914 2758 1402 
Q 2758 890 2464 506 
Q 2246 211 1840 60 
Q 1434 -90 979 -90 
Q 262 -90 262 275 
Q 262 378 339 442 
Q 416 506 525 506 
Q 685 506 915 339 
Q 1197 141 1466 141 
Q 1818 141 2058 425 
Q 2298 710 2298 1120 
Q 2298 1856 1632 2048 
Q 1434 2112 979 2112 
L 979 2202 
Q 1338 2323 1517 2432 
Q 2035 2726 2035 3290 
Q 2035 3610 1852 3776 
Q 1670 3942 1344 3942 
Q 768 3942 390 3264 
z
" transform="scale(0.015625)"/>
       </defs>
       <use xlink:href="#STIXGeneral-Regular-33"/>
      </g>
     </g>
    </g>
    <g id="xtick_5">
     <g id="line2d_9">
      <path d="M 376.211993 305.260125 
L 376.211993 28.060125 
" clip-path="url(#pa60196f563)" style="fill: none; stroke: #b0b0b0; stroke-width: 0.8; stroke-linecap: square"/>
     </g>
     <g id="line2d_10">
      <g>
       <use xlink:href="#m73b72dc942" x="376.211993" y="305.260125" style="stroke: #000000; stroke-width: 0.8"/>
      </g>
     </g>
     <g id="text_5">
      <!-- 4 -->
      <g transform="translate(371.711993 324.553562)scale(0.18 -0.18)">
       <defs>
        <path id="STIXGeneral-Regular-34" d="M 3027 1069 
L 2368 1069 
L 2368 0 
L 1869 0 
L 1869 1069 
L 77 1069 
L 77 1478 
L 2086 4326 
L 2368 4326 
L 2368 1478 
L 3027 1478 
L 3027 1069 
z
M 1869 1478 
L 1869 3674 
L 333 1478 
L 1869 1478 
z
" transform="scale(0.015625)"/>
       </defs>
       <use xlink:href="#STIXGeneral-Regular-34"/>
      </g>
     </g>
    </g>
    <g id="xtick_6">
     <g id="line2d_11">
      <path d="M 449.086189 305.260125 
L 449.086189 28.060125 
" clip-path="url(#pa60196f563)" style="fill: none; stroke: #b0b0b0; stroke-width: 0.8; stroke-linecap: square"/>
     </g>
     <g id="line2d_12">
      <g>
       <use xlink:href="#m73b72dc942" x="449.086189" y="305.260125" style="stroke: #000000; stroke-width: 0.8"/>
      </g>
     </g>
     <g id="text_6">
      <!-- 5 -->
      <g transform="translate(444.586189 324.553562)scale(0.18 -0.18)">
       <defs>
        <path id="STIXGeneral-Regular-35" d="M 2803 4358 
L 2573 3814 
Q 2534 3731 2400 3731 
L 1158 3731 
L 902 3187 
Q 1606 3053 1920 2896 
Q 2234 2739 2502 2368 
Q 2726 2061 2726 1555 
Q 2726 1094 2576 780 
Q 2426 467 2099 224 
Q 1664 -90 1011 -90 
Q 646 -90 422 19 
Q 198 128 198 307 
Q 198 550 486 550 
Q 717 550 960 352 
Q 1210 147 1414 147 
Q 1747 147 2012 480 
Q 2278 813 2278 1229 
Q 2278 1843 1850 2189 
Q 1293 2637 486 2637 
Q 410 2637 410 2688 
L 416 2720 
L 1114 4237 
L 2438 4237 
Q 2547 4237 2608 4269 
Q 2669 4301 2746 4403 
L 2803 4358 
z
" transform="scale(0.015625)"/>
       </defs>
       <use xlink:href="#STIXGeneral-Regular-35"/>
      </g>
     </g>
    </g>
    <g id="text_7">
     <!-- Training Environment Steps -->
     <g transform="translate(187.104688 344.753562)scale(0.18 -0.18)">
      <defs>
       <path id="STIXGeneral-Regular-54" d="M 3795 3149 
L 3642 3149 
Q 3539 3674 3353 3821 
Q 3168 3968 2656 3968 
L 2278 3968 
L 2278 710 
Q 2278 346 2387 243 
Q 2496 141 2893 122 
L 2893 0 
L 1024 0 
L 1024 122 
Q 1427 147 1526 256 
Q 1626 365 1626 787 
L 1626 3968 
L 1242 3968 
Q 723 3968 540 3817 
Q 358 3667 262 3149 
L 109 3149 
L 154 4237 
L 3750 4237 
L 3795 3149 
z
" transform="scale(0.015625)"/>
       <path id="STIXGeneral-Regular-72" d="M 1024 2931 
L 1024 2342 
Q 1267 2688 1430 2816 
Q 1594 2944 1792 2944 
Q 1958 2944 2051 2854 
Q 2144 2765 2144 2605 
Q 2144 2470 2077 2393 
Q 2010 2317 1894 2317 
Q 1773 2317 1638 2445 
Q 1536 2541 1472 2541 
Q 1338 2541 1181 2355 
Q 1024 2170 1024 2016 
L 1024 576 
Q 1024 301 1133 205 
Q 1242 109 1568 96 
L 1568 0 
L 32 0 
L 32 96 
Q 339 154 412 224 
Q 486 294 486 538 
L 486 2138 
Q 486 2349 438 2435 
Q 390 2522 269 2522 
Q 166 2522 45 2496 
L 45 2598 
Q 448 2726 992 2944 
L 1024 2931 
z
" transform="scale(0.015625)"/>
       <path id="STIXGeneral-Regular-61" d="M 2829 422 
L 2829 243 
Q 2586 -64 2253 -64 
Q 1888 -64 1843 403 
L 1837 403 
Q 1427 -64 909 -64 
Q 608 -64 422 112 
Q 237 288 237 602 
Q 237 1050 685 1350 
Q 992 1555 1837 1869 
L 1837 2214 
Q 1837 2502 1699 2646 
Q 1562 2790 1338 2790 
Q 1146 2790 1018 2697 
Q 890 2605 890 2477 
Q 890 2419 909 2348 
Q 928 2278 928 2208 
Q 928 2112 841 2029 
Q 755 1946 634 1946 
Q 525 1946 441 2029 
Q 358 2112 358 2240 
Q 358 2547 685 2752 
Q 986 2944 1421 2944 
Q 1939 2944 2176 2656 
Q 2291 2522 2323 2384 
Q 2355 2246 2355 1946 
L 2355 723 
Q 2355 301 2554 301 
Q 2682 301 2829 422 
z
M 1837 813 
L 1837 1715 
Q 1248 1510 1018 1293 
Q 800 1094 800 800 
Q 800 557 921 432 
Q 1043 307 1242 307 
Q 1453 307 1613 410 
Q 1747 506 1792 589 
Q 1837 672 1837 813 
z
" transform="scale(0.015625)"/>
       <path id="STIXGeneral-Regular-69" d="M 1152 4045 
Q 1152 3904 1056 3811 
Q 960 3718 819 3718 
Q 685 3718 592 3811 
Q 499 3904 499 4045 
Q 499 4179 595 4275 
Q 691 4371 826 4371 
Q 966 4371 1059 4275 
Q 1152 4179 1152 4045 
z
M 1619 0 
L 102 0 
L 102 96 
Q 435 115 521 211 
Q 608 307 608 666 
L 608 2118 
Q 608 2342 563 2432 
Q 518 2522 397 2522 
Q 243 2522 128 2490 
L 128 2592 
L 1120 2944 
L 1146 2918 
L 1146 672 
Q 1146 314 1226 218 
Q 1306 122 1619 96 
L 1619 0 
z
" transform="scale(0.015625)"/>
       <path id="STIXGeneral-Regular-6e" d="M 3104 0 
L 1773 0 
L 1779 96 
Q 2016 115 2096 233 
Q 2176 352 2176 672 
L 2176 1946 
Q 2176 2592 1709 2592 
Q 1549 2592 1408 2515 
Q 1267 2438 1050 2227 
L 1050 461 
Q 1050 269 1136 192 
Q 1222 115 1466 96 
L 1466 0 
L 115 0 
L 115 96 
Q 358 115 435 214 
Q 512 314 512 602 
L 512 2157 
Q 512 2394 467 2483 
Q 422 2573 288 2573 
Q 160 2573 102 2547 
L 102 2656 
Q 550 2784 979 2944 
L 1030 2925 
L 1030 2426 
L 1037 2426 
Q 1491 2944 1958 2944 
Q 2323 2944 2518 2688 
Q 2714 2432 2714 1958 
L 2714 544 
Q 2714 288 2790 205 
Q 2867 122 3104 96 
L 3104 0 
z
" transform="scale(0.015625)"/>
       <path id="STIXGeneral-Regular-67" d="M 3008 2483 
L 2477 2483 
Q 2598 2208 2598 1946 
Q 2598 1453 2265 1203 
Q 1933 954 1600 954 
Q 1530 954 1357 973 
L 1235 986 
Q 1107 947 979 812 
Q 851 678 851 582 
Q 851 435 1350 410 
L 2176 371 
Q 2528 358 2739 172 
Q 2950 -13 2950 -314 
Q 2950 -685 2566 -986 
Q 2035 -1395 1286 -1395 
Q 826 -1395 502 -1212 
Q 179 -1030 179 -774 
Q 179 -595 320 -419 
Q 461 -243 806 6 
Q 602 102 534 172 
Q 467 243 467 346 
Q 467 531 762 787 
Q 909 915 1037 1043 
Q 717 1203 579 1401 
Q 442 1600 442 1901 
Q 442 2336 752 2640 
Q 1062 2944 1510 2944 
Q 1766 2944 2022 2848 
L 2163 2797 
Q 2349 2733 2515 2733 
L 3008 2733 
L 3008 2483 
z
M 973 2163 
L 973 2144 
Q 973 1683 1155 1398 
Q 1338 1114 1632 1114 
Q 1850 1114 1978 1270 
Q 2106 1427 2106 1690 
Q 2106 2112 1914 2464 
Q 1754 2765 1446 2765 
Q 1222 2765 1097 2605 
Q 973 2445 973 2163 
z
M 2771 -410 
Q 2771 -230 2595 -163 
Q 2419 -96 1978 -96 
Q 1344 -96 941 -13 
Q 749 -243 688 -348 
Q 627 -454 627 -563 
Q 627 -774 880 -902 
Q 1133 -1030 1555 -1030 
Q 2099 -1030 2435 -860 
Q 2771 -691 2771 -410 
z
" transform="scale(0.015625)"/>
       <path id="STIXGeneral-Regular-20" transform="scale(0.015625)"/>
       <path id="STIXGeneral-Regular-45" d="M 3821 1082 
L 3526 0 
L 77 0 
L 77 122 
Q 442 147 538 252 
Q 634 358 634 730 
L 634 3520 
Q 634 3878 534 3987 
Q 435 4096 77 4115 
L 77 4237 
L 3469 4237 
L 3494 3322 
L 3334 3322 
Q 3264 3750 3085 3872 
Q 2906 3994 2349 3994 
L 1510 3994 
Q 1370 3994 1328 3952 
Q 1286 3910 1286 3763 
L 1286 2355 
L 2253 2355 
Q 2656 2355 2787 2470 
Q 2918 2586 2976 2970 
L 3123 2970 
L 3123 1472 
L 2976 1472 
Q 2918 1875 2790 1984 
Q 2662 2093 2253 2093 
L 1286 2093 
L 1286 538 
Q 1286 346 1420 291 
Q 1555 237 1933 237 
L 2163 237 
Q 2848 237 3136 403 
Q 3424 570 3642 1082 
L 3821 1082 
z
" transform="scale(0.015625)"/>
       <path id="STIXGeneral-Regular-76" d="M 3053 2880 
L 3053 2784 
Q 2906 2771 2835 2688 
Q 2765 2605 2637 2285 
L 1818 230 
Q 1690 -90 1638 -90 
Q 1587 -90 1523 77 
Q 1510 96 1497 141 
Q 1485 186 1472 211 
L 704 2048 
Q 499 2534 403 2652 
Q 307 2771 122 2784 
L 122 2880 
L 1376 2880 
L 1376 2784 
Q 1210 2771 1146 2732 
Q 1082 2694 1082 2611 
Q 1082 2509 1139 2368 
L 1792 730 
L 2426 2387 
Q 2464 2483 2464 2579 
Q 2464 2758 2163 2784 
L 2163 2880 
L 3053 2880 
z
" transform="scale(0.015625)"/>
       <path id="STIXGeneral-Regular-6f" d="M 3008 1478 
Q 3008 806 2608 371 
Q 2208 -64 1568 -64 
Q 979 -64 582 368 
Q 186 800 186 1459 
Q 186 2125 582 2534 
Q 979 2944 1626 2944 
Q 2221 2944 2614 2537 
Q 3008 2131 3008 1478 
z
M 2432 1306 
Q 2432 2035 2112 2445 
Q 1856 2765 1504 2765 
Q 1171 2765 966 2493 
Q 762 2221 762 1747 
Q 762 928 1101 435 
Q 1318 115 1677 115 
Q 2029 115 2230 432 
Q 2432 749 2432 1306 
z
" transform="scale(0.015625)"/>
       <path id="STIXGeneral-Regular-6d" d="M 4960 0 
L 3565 0 
L 3565 96 
Q 3834 122 3907 208 
Q 3981 294 3981 576 
L 3981 1894 
Q 3981 2278 3869 2444 
Q 3757 2611 3488 2611 
Q 3264 2611 3107 2521 
Q 2950 2432 2803 2221 
L 2803 608 
Q 2803 301 2896 201 
Q 2989 102 3264 96 
L 3264 0 
L 1830 0 
L 1830 96 
Q 2112 115 2189 188 
Q 2266 262 2266 550 
L 2266 1901 
Q 2266 2611 1850 2611 
Q 1670 2611 1468 2531 
Q 1267 2451 1171 2336 
Q 1088 2240 1088 2227 
L 1088 448 
Q 1088 243 1177 176 
Q 1267 109 1523 96 
L 1523 0 
L 102 0 
L 102 96 
Q 371 102 460 195 
Q 550 288 550 563 
L 550 2150 
Q 550 2387 499 2480 
Q 448 2573 326 2573 
Q 230 2573 122 2547 
L 122 2656 
Q 557 2778 1011 2944 
L 1062 2925 
L 1062 2451 
L 1075 2451 
Q 1363 2752 1584 2848 
Q 1805 2944 2054 2944 
Q 2560 2944 2733 2406 
Q 3232 2944 3776 2944 
Q 4518 2944 4518 1792 
L 4518 493 
Q 4518 282 4582 202 
Q 4646 122 4794 109 
L 4960 96 
L 4960 0 
z
" transform="scale(0.015625)"/>
       <path id="STIXGeneral-Regular-65" d="M 2611 1050 
L 2714 1005 
Q 2330 -64 1376 -64 
Q 813 -64 486 329 
Q 160 723 160 1389 
Q 160 2074 525 2509 
Q 890 2944 1485 2944 
Q 2061 2944 2374 2502 
Q 2560 2246 2592 1773 
L 621 1773 
Q 646 1370 700 1158 
Q 755 947 915 730 
Q 1184 378 1626 378 
Q 1939 378 2153 531 
Q 2368 685 2611 1050 
z
M 634 1978 
L 1939 1978 
Q 1882 2381 1750 2547 
Q 1619 2714 1312 2714 
Q 1043 2714 864 2525 
Q 685 2336 634 1978 
z
" transform="scale(0.015625)"/>
       <path id="STIXGeneral-Regular-74" d="M 1702 493 
L 1786 422 
Q 1478 -64 1011 -64 
Q 448 -64 448 749 
L 448 2675 
L 109 2675 
Q 83 2694 83 2720 
Q 83 2771 192 2842 
Q 435 2982 813 3526 
Q 826 3546 874 3606 
Q 922 3667 941 3706 
Q 986 3706 986 3622 
L 986 2880 
L 1632 2880 
L 1632 2675 
L 986 2675 
L 986 845 
Q 986 538 1062 403 
Q 1139 269 1318 269 
Q 1510 269 1702 493 
z
" transform="scale(0.015625)"/>
       <path id="STIXGeneral-Regular-53" d="M 3002 2963 
L 2842 2963 
Q 2733 3360 2579 3565 
Q 2189 4064 1651 4064 
Q 1357 4064 1181 3894 
Q 1005 3725 1005 3456 
Q 1005 3328 1069 3206 
Q 1133 3085 1206 2998 
Q 1280 2912 1465 2784 
Q 1651 2656 1766 2589 
Q 1882 2522 2150 2362 
Q 2669 2061 2905 1763 
Q 3142 1466 3142 1107 
Q 3142 576 2771 243 
Q 2400 -90 1837 -90 
Q 1421 -90 1082 58 
Q 915 128 781 128 
Q 704 128 653 70 
Q 602 13 602 -83 
L 461 -83 
L 275 1274 
L 416 1274 
Q 845 141 1734 141 
Q 2074 141 2285 342 
Q 2496 544 2496 858 
Q 2496 1158 2310 1363 
Q 2003 1696 1235 2106 
Q 454 2522 454 3206 
Q 454 3718 768 4022 
Q 1082 4326 1568 4326 
Q 1907 4326 2240 4186 
Q 2413 4109 2522 4109 
Q 2688 4109 2726 4326 
L 2861 4326 
L 3002 2963 
z
" transform="scale(0.015625)"/>
       <path id="STIXGeneral-Regular-70" d="M 1018 2931 
L 1018 2438 
Q 1421 2944 1939 2944 
Q 2406 2944 2707 2560 
Q 3008 2176 3008 1581 
Q 3008 883 2621 409 
Q 2234 -64 1664 -64 
Q 1466 -64 1328 -6 
Q 1190 51 1018 211 
L 1018 -794 
Q 1018 -1094 1120 -1180 
Q 1222 -1267 1581 -1274 
L 1581 -1389 
L 32 -1389 
L 32 -1280 
Q 314 -1254 397 -1171 
Q 480 -1088 480 -838 
L 480 2157 
Q 480 2381 429 2451 
Q 378 2522 218 2522 
Q 115 2522 58 2515 
L 58 2618 
Q 506 2752 979 2944 
L 1018 2931 
z
M 1018 2138 
L 1018 563 
Q 1018 422 1238 281 
Q 1459 141 1683 141 
Q 2029 141 2243 467 
Q 2458 794 2458 1325 
Q 2458 1888 2243 2224 
Q 2029 2560 1670 2560 
Q 1446 2560 1232 2419 
Q 1018 2278 1018 2138 
z
" transform="scale(0.015625)"/>
       <path id="STIXGeneral-Regular-73" d="M 998 1926 
L 1664 1523 
Q 1984 1331 2105 1164 
Q 2227 998 2227 736 
Q 2227 416 1961 176 
Q 1696 -64 1331 -64 
Q 1030 -64 864 -6 
Q 691 51 570 51 
Q 461 51 416 -26 
L 333 -26 
L 333 979 
L 435 979 
Q 538 512 730 294 
Q 922 77 1248 77 
Q 1485 77 1632 211 
Q 1779 346 1779 550 
Q 1779 845 1440 1030 
L 1094 1222 
Q 326 1651 326 2150 
Q 326 2522 566 2730 
Q 806 2938 1210 2938 
Q 1491 2938 1638 2867 
Q 1754 2816 1818 2816 
Q 1862 2816 1920 2880 
L 1990 2880 
L 2022 2010 
L 1926 2010 
Q 1818 2445 1654 2621 
Q 1491 2797 1203 2797 
Q 986 2797 854 2688 
Q 723 2579 723 2362 
Q 723 2253 796 2128 
Q 870 2003 998 1926 
z
" transform="scale(0.015625)"/>
      </defs>
      <use xlink:href="#STIXGeneral-Regular-54"/>
      <use xlink:href="#STIXGeneral-Regular-72" x="61.099991"/>
      <use xlink:href="#STIXGeneral-Regular-61" x="94.399979"/>
      <use xlink:href="#STIXGeneral-Regular-69" x="138.799973"/>
      <use xlink:href="#STIXGeneral-Regular-6e" x="166.59996"/>
      <use xlink:href="#STIXGeneral-Regular-69" x="216.599945"/>
      <use xlink:href="#STIXGeneral-Regular-6e" x="244.399933"/>
      <use xlink:href="#STIXGeneral-Regular-67" x="294.399918"/>
      <use xlink:href="#STIXGeneral-Regular-20" x="344.399902"/>
      <use xlink:href="#STIXGeneral-Regular-45" x="369.399887"/>
      <use xlink:href="#STIXGeneral-Regular-6e" x="430.499878"/>
      <use xlink:href="#STIXGeneral-Regular-76" x="480.499863"/>
      <use xlink:href="#STIXGeneral-Regular-69" x="530.499847"/>
      <use xlink:href="#STIXGeneral-Regular-72" x="558.299835"/>
      <use xlink:href="#STIXGeneral-Regular-6f" x="591.599823"/>
      <use xlink:href="#STIXGeneral-Regular-6e" x="641.599808"/>
      <use xlink:href="#STIXGeneral-Regular-6d" x="691.599792"/>
      <use xlink:href="#STIXGeneral-Regular-65" x="769.39978"/>
      <use xlink:href="#STIXGeneral-Regular-6e" x="813.799774"/>
      <use xlink:href="#STIXGeneral-Regular-74" x="863.799759"/>
      <use xlink:href="#STIXGeneral-Regular-20" x="891.599747"/>
      <use xlink:href="#STIXGeneral-Regular-53" x="916.599731"/>
      <use xlink:href="#STIXGeneral-Regular-74" x="972.199722"/>
      <use xlink:href="#STIXGeneral-Regular-65" x="999.99971"/>
      <use xlink:href="#STIXGeneral-Regular-70" x="1044.399704"/>
      <use xlink:href="#STIXGeneral-Regular-73" x="1094.399689"/>
     </g>
    </g>
    <g id="text_8">
     <!-- 1e8 -->
     <g transform="translate(486.306875 343.753562)scale(0.18 -0.18)">
      <defs>
       <path id="STIXGeneral-Regular-38" d="M 2848 992 
Q 2848 499 2505 204 
Q 2163 -90 1587 -90 
Q 1050 -90 704 204 
Q 358 499 358 954 
Q 358 1293 524 1533 
Q 691 1773 1190 2125 
Q 710 2522 553 2765 
Q 397 3008 397 3328 
Q 397 3782 745 4054 
Q 1094 4326 1638 4326 
Q 2106 4326 2410 4060 
Q 2714 3795 2714 3411 
Q 2714 3059 2531 2848 
Q 2349 2637 1856 2374 
Q 2432 1990 2640 1689 
Q 2848 1389 2848 992 
z
M 2272 3411 
Q 2272 3744 2086 3945 
Q 1901 4147 1574 4147 
Q 1248 4147 1059 3977 
Q 870 3808 870 3513 
Q 870 3219 1059 2979 
Q 1248 2739 1670 2490 
Q 1997 2682 2134 2896 
Q 2272 3110 2272 3411 
z
M 1734 1741 
L 1357 1997 
Q 1075 1766 960 1545 
Q 845 1325 845 1011 
Q 845 576 1065 333 
Q 1286 90 1658 90 
Q 1971 90 2166 285 
Q 2362 480 2362 794 
Q 2362 1082 2214 1299 
Q 2067 1517 1734 1741 
z
" transform="scale(0.015625)"/>
      </defs>
      <use xlink:href="#STIXGeneral-Regular-31"/>
      <use xlink:href="#STIXGeneral-Regular-65" x="49.999985"/>
      <use xlink:href="#STIXGeneral-Regular-38" x="94.399979"/>
     </g>
    </g>
   </g>
   <g id="matplotlib.axis_2">
    <g id="ytick_1">
     <g id="line2d_13">
      <path d="M 65.9 292.660125 
L 512.3 292.660125 
" clip-path="url(#pa60196f563)" style="fill: none; stroke: #b0b0b0; stroke-width: 0.8; stroke-linecap: square"/>
     </g>
     <g id="line2d_14">
      <defs>
       <path id="mf4230c7f51" d="M 0 0 
L -3.5 0 
" style="stroke: #000000; stroke-width: 0.8"/>
      </defs>
      <g>
       <use xlink:href="#mf4230c7f51" x="65.9" y="292.660125" style="stroke: #000000; stroke-width: 0.8"/>
      </g>
     </g>
     <g id="text_9">
      <!-- 0.00 -->
      <g transform="translate(27.4 298.806844)scale(0.18 -0.18)">
       <defs>
        <path id="STIXGeneral-Regular-2e" d="M 1158 275 
Q 1158 134 1052 32 
Q 947 -70 800 -70 
Q 653 -70 550 32 
Q 448 134 448 281 
Q 448 429 553 534 
Q 659 640 806 640 
Q 947 640 1052 531 
Q 1158 422 1158 275 
z
" transform="scale(0.015625)"/>
       </defs>
       <use xlink:href="#STIXGeneral-Regular-30"/>
       <use xlink:href="#STIXGeneral-Regular-2e" x="49.999985"/>
       <use xlink:href="#STIXGeneral-Regular-30" x="74.999969"/>
       <use xlink:href="#STIXGeneral-Regular-30" x="124.999954"/>
      </g>
     </g>
    </g>
    <g id="ytick_2">
     <g id="line2d_15">
      <path d="M 65.9 247.335707 
L 512.3 247.335707 
" clip-path="url(#pa60196f563)" style="fill: none; stroke: #b0b0b0; stroke-width: 0.8; stroke-linecap: square"/>
     </g>
     <g id="line2d_16">
      <g>
       <use xlink:href="#mf4230c7f51" x="65.9" y="247.335707" style="stroke: #000000; stroke-width: 0.8"/>
      </g>
     </g>
     <g id="text_10">
      <!-- 0.05 -->
      <g transform="translate(27.4 253.482425)scale(0.18 -0.18)">
       <use xlink:href="#STIXGeneral-Regular-30"/>
       <use xlink:href="#STIXGeneral-Regular-2e" x="49.999985"/>
       <use xlink:href="#STIXGeneral-Regular-30" x="74.999969"/>
       <use xlink:href="#STIXGeneral-Regular-35" x="124.999954"/>
      </g>
     </g>
    </g>
    <g id="ytick_3">
     <g id="line2d_17">
      <path d="M 65.9 202.011288 
L 512.3 202.011288 
" clip-path="url(#pa60196f563)" style="fill: none; stroke: #b0b0b0; stroke-width: 0.8; stroke-linecap: square"/>
     </g>
     <g id="line2d_18">
      <g>
       <use xlink:href="#mf4230c7f51" x="65.9" y="202.011288" style="stroke: #000000; stroke-width: 0.8"/>
      </g>
     </g>
     <g id="text_11">
      <!-- 0.10 -->
      <g transform="translate(27.4 208.158007)scale(0.18 -0.18)">
       <use xlink:href="#STIXGeneral-Regular-30"/>
       <use xlink:href="#STIXGeneral-Regular-2e" x="49.999985"/>
       <use xlink:href="#STIXGeneral-Regular-31" x="74.999969"/>
       <use xlink:href="#STIXGeneral-Regular-30" x="124.999954"/>
      </g>
     </g>
    </g>
    <g id="ytick_4">
     <g id="line2d_19">
      <path d="M 65.9 156.68687 
L 512.3 156.68687 
" clip-path="url(#pa60196f563)" style="fill: none; stroke: #b0b0b0; stroke-width: 0.8; stroke-linecap: square"/>
     </g>
     <g id="line2d_20">
      <g>
       <use xlink:href="#mf4230c7f51" x="65.9" y="156.68687" style="stroke: #000000; stroke-width: 0.8"/>
      </g>
     </g>
     <g id="text_12">
      <!-- 0.15 -->
      <g transform="translate(27.4 162.833588)scale(0.18 -0.18)">
       <use xlink:href="#STIXGeneral-Regular-30"/>
       <use xlink:href="#STIXGeneral-Regular-2e" x="49.999985"/>
       <use xlink:href="#STIXGeneral-Regular-31" x="74.999969"/>
       <use xlink:href="#STIXGeneral-Regular-35" x="124.999954"/>
      </g>
     </g>
    </g>
    <g id="ytick_5">
     <g id="line2d_21">
      <path d="M 65.9 111.362451 
L 512.3 111.362451 
" clip-path="url(#pa60196f563)" style="fill: none; stroke: #b0b0b0; stroke-width: 0.8; stroke-linecap: square"/>
     </g>
     <g id="line2d_22">
      <g>
       <use xlink:href="#mf4230c7f51" x="65.9" y="111.362451" style="stroke: #000000; stroke-width: 0.8"/>
      </g>
     </g>
     <g id="text_13">
      <!-- 0.20 -->
      <g transform="translate(27.4 117.50917)scale(0.18 -0.18)">
       <use xlink:href="#STIXGeneral-Regular-30"/>
       <use xlink:href="#STIXGeneral-Regular-2e" x="49.999985"/>
       <use xlink:href="#STIXGeneral-Regular-32" x="74.999969"/>
       <use xlink:href="#STIXGeneral-Regular-30" x="124.999954"/>
      </g>
     </g>
    </g>
    <g id="ytick_6">
     <g id="line2d_23">
      <path d="M 65.9 66.038033 
L 512.3 66.038033 
" clip-path="url(#pa60196f563)" style="fill: none; stroke: #b0b0b0; stroke-width: 0.8; stroke-linecap: square"/>
     </g>
     <g id="line2d_24">
      <g>
       <use xlink:href="#mf4230c7f51" x="65.9" y="66.038033" style="stroke: #000000; stroke-width: 0.8"/>
      </g>
     </g>
     <g id="text_14">
      <!-- 0.25 -->
      <g transform="translate(27.4 72.184751)scale(0.18 -0.18)">
       <use xlink:href="#STIXGeneral-Regular-30"/>
       <use xlink:href="#STIXGeneral-Regular-2e" x="49.999985"/>
       <use xlink:href="#STIXGeneral-Regular-32" x="74.999969"/>
       <use xlink:href="#STIXGeneral-Regular-35" x="124.999954"/>
      </g>
     </g>
    </g>
    <g id="text_15">
     <!-- Success Rate -->
     <g transform="translate(19.493438 213.9045)rotate(-90)scale(0.18 -0.18)">
      <defs>
       <path id="STIXGeneral-Regular-75" d="M 3072 320 
L 3072 230 
Q 2573 96 2195 -58 
L 2163 -38 
L 2163 486 
L 2150 486 
Q 1747 -64 1235 -64 
Q 870 -64 662 160 
Q 454 384 454 755 
L 454 2362 
Q 454 2598 371 2688 
Q 288 2778 58 2790 
L 58 2880 
L 992 2880 
L 992 813 
Q 992 595 1123 451 
Q 1254 307 1446 307 
Q 1760 307 1984 506 
Q 2067 582 2099 649 
Q 2131 717 2131 877 
L 2131 2355 
Q 2131 2605 2041 2678 
Q 1952 2752 1658 2771 
L 1658 2880 
L 2669 2880 
L 2669 685 
Q 2669 461 2742 390 
Q 2816 320 3034 320 
L 3072 320 
z
" transform="scale(0.015625)"/>
       <path id="STIXGeneral-Regular-63" d="M 2547 998 
L 2637 941 
Q 2362 403 2112 205 
Q 1786 -64 1376 -64 
Q 845 -64 502 336 
Q 160 736 160 1357 
Q 160 2170 698 2618 
Q 1094 2944 1562 2944 
Q 1965 2944 2256 2749 
Q 2547 2554 2547 2285 
Q 2547 2176 2457 2096 
Q 2368 2016 2246 2016 
Q 2022 2016 1939 2310 
L 1901 2451 
Q 1850 2630 1773 2694 
Q 1696 2758 1523 2758 
Q 1133 2758 893 2451 
Q 653 2144 653 1645 
Q 653 1094 928 745 
Q 1203 397 1645 397 
Q 1920 397 2118 528 
Q 2317 659 2547 998 
z
" transform="scale(0.015625)"/>
       <path id="STIXGeneral-Regular-52" d="M 4224 0 
L 3187 0 
L 1664 1971 
L 1306 1958 
L 1306 717 
Q 1306 352 1405 249 
Q 1504 147 1875 122 
L 1875 0 
L 109 0 
L 109 122 
Q 474 154 563 262 
Q 653 371 653 794 
L 653 3526 
Q 653 3885 563 3987 
Q 474 4090 109 4115 
L 109 4237 
L 1850 4237 
Q 2726 4237 3187 3859 
Q 3501 3603 3501 3091 
Q 3501 2221 2342 2042 
L 3622 422 
Q 3757 256 3878 198 
Q 4000 141 4224 122 
L 4224 0 
z
M 1306 3731 
L 1306 2195 
Q 1766 2202 1990 2246 
Q 2214 2291 2438 2413 
Q 2803 2618 2803 3142 
Q 2803 4000 1632 4000 
Q 1459 4000 1382 3945 
Q 1306 3891 1306 3731 
z
" transform="scale(0.015625)"/>
      </defs>
      <use xlink:href="#STIXGeneral-Regular-53"/>
      <use xlink:href="#STIXGeneral-Regular-75" x="55.599991"/>
      <use xlink:href="#STIXGeneral-Regular-63" x="105.599976"/>
      <use xlink:href="#STIXGeneral-Regular-63" x="149.999969"/>
      <use xlink:href="#STIXGeneral-Regular-65" x="194.399963"/>
      <use xlink:href="#STIXGeneral-Regular-73" x="238.799957"/>
      <use xlink:href="#STIXGeneral-Regular-73" x="277.699951"/>
      <use xlink:href="#STIXGeneral-Regular-20" x="316.599945"/>
      <use xlink:href="#STIXGeneral-Regular-52" x="341.59993"/>
      <use xlink:href="#STIXGeneral-Regular-61" x="408.299927"/>
      <use xlink:href="#STIXGeneral-Regular-74" x="452.699921"/>
      <use xlink:href="#STIXGeneral-Regular-65" x="480.499908"/>
     </g>
    </g>
   </g>
   <g id="line2d_25">
    <path d="M 86.190909 292.660125 
L 492.009091 292.660125 
L 492.009091 292.660125 
" clip-path="url(#pa60196f563)" style="fill: none; stroke: #1f77b4; stroke-width: 1.5; stroke-linecap: square"/>
   </g>
   <g id="line2d_26">
    <path d="M 86.190909 292.660125 
L 130.461983 292.660125 
L 131.937686 285.408218 
L 133.413388 288.308981 
L 134.889091 290.049439 
L 136.364793 291.093713 
L 137.840496 291.720278 
L 139.316198 292.096217 
L 140.791901 292.32178 
L 142.267603 285.205211 
L 143.743306 288.187177 
L 145.219008 289.976356 
L 146.694711 291.049864 
L 148.170413 291.693968 
L 149.646116 284.828524 
L 151.121818 287.961164 
L 152.597521 289.840749 
L 154.073223 283.716592 
L 155.548926 287.294005 
L 157.024628 289.440453 
L 158.500331 290.728322 
L 159.976033 291.501043 
L 161.451736 291.964676 
L 164.40314 292.409763 
L 165.878843 292.509908 
L 167.354545 285.318088 
L 168.830248 288.254903 
L 170.30595 282.765085 
L 171.781653 279.471194 
L 173.257355 284.746766 
L 174.733058 287.91211 
L 176.20876 289.811316 
L 177.684463 290.95084 
L 179.160165 284.382647 
L 180.635868 280.441731 
L 182.11157 285.329089 
L 183.587273 288.261503 
L 185.062975 282.769045 
L 186.538678 286.725477 
L 188.01438 289.099336 
L 189.490083 283.271745 
L 190.965785 287.027097 
L 192.441488 289.280308 
L 193.91719 290.632235 
L 195.392893 291.443391 
L 196.868595 284.678178 
L 198.344298 287.870957 
L 199.82 282.534717 
L 201.295702 286.58488 
L 202.771405 289.014978 
L 204.247107 290.473037 
L 205.72281 291.347872 
L 207.198512 291.872773 
L 208.674215 284.935807 
L 210.149917 288.025534 
L 211.62562 289.879371 
L 213.101322 283.739766 
L 214.577025 287.307909 
L 216.052727 289.448796 
L 217.52843 290.733327 
L 219.004132 291.504046 
L 220.479835 291.966478 
L 223.43124 292.410412 
L 224.906942 285.25839 
L 226.382645 288.219084 
L 227.858347 282.743594 
L 229.33405 286.710206 
L 230.809752 289.090174 
L 232.285455 283.266247 
L 233.761157 279.771892 
L 235.23686 284.927185 
L 236.712562 280.768454 
L 238.188264 278.273216 
L 239.663967 284.027979 
L 241.139669 287.480838 
L 242.615372 282.300646 
L 244.091074 286.444437 
L 245.566777 288.930712 
L 247.042479 290.422477 
L 248.518182 291.317536 
L 249.993884 291.854572 
L 251.469587 292.176793 
L 252.945289 285.118219 
L 254.420992 280.883075 
L 255.896694 285.593895 
L 257.372397 288.420387 
L 258.848099 290.116282 
L 260.323802 291.133819 
L 261.799504 291.744342 
L 263.275207 292.110655 
L 266.226612 292.462316 
L 270.653719 292.617398 
L 272.129421 285.382582 
L 273.605124 288.293599 
L 275.080826 290.04021 
L 276.556529 291.088176 
L 278.032231 291.716955 
L 279.507934 292.094223 
L 282.459339 292.4564 
L 283.935041 285.285983 
L 285.410744 288.23564 
L 286.886446 290.005434 
L 288.362149 283.815404 
L 289.837851 287.353292 
L 291.313554 289.476025 
L 292.789256 290.749665 
L 294.264959 291.513849 
L 295.740661 291.972359 
L 298.692066 292.412529 
L 300.167769 285.259661 
L 301.643471 288.219847 
L 303.119174 289.995958 
L 304.594876 291.061625 
L 306.070579 284.449118 
L 307.546281 287.733521 
L 309.021983 282.452256 
L 310.497686 286.535403 
L 311.973388 288.985292 
L 313.449091 290.455225 
L 314.924793 291.337185 
L 316.400496 291.866361 
L 317.876198 284.93196 
L 319.351901 288.023226 
L 320.827603 289.877986 
L 322.303306 290.990841 
L 323.779008 291.658555 
L 325.254711 292.059183 
L 328.206116 292.443786 
L 329.681818 292.530322 
L 331.157521 285.330336 
L 332.633223 288.262252 
L 334.108926 290.021401 
L 335.584628 291.076891 
L 337.060331 291.710184 
L 338.536033 292.090161 
L 341.487438 292.454938 
L 345.914545 292.615805 
L 347.390248 285.381626 
L 348.86595 288.293026 
L 350.341653 290.039865 
L 351.817355 291.087969 
L 353.293058 291.716832 
L 354.76876 292.094149 
L 357.720165 292.456374 
L 362.147273 292.616115 
L 368.050083 292.654421 
L 369.525785 285.404796 
L 371.001488 288.306928 
L 372.47719 290.048207 
L 373.952893 291.092974 
L 375.428595 291.719834 
L 376.904298 292.095951 
L 379.855702 292.457022 
L 384.28281 292.616255 
L 390.18562 292.654439 
L 391.661322 285.404807 
L 393.137025 281.055027 
L 394.612727 285.697066 
L 396.08843 288.48229 
L 397.564132 290.153424 
L 399.039835 291.156104 
L 400.515537 291.757713 
L 401.99124 292.118678 
L 404.942645 292.465204 
L 409.369752 292.618022 
L 422.651074 292.659701 
L 450.689421 292.660125 
L 452.165124 285.408218 
L 453.640826 288.308981 
L 455.116529 290.049439 
L 456.592231 291.093713 
L 458.067934 291.720278 
L 459.543636 292.096217 
L 462.495041 292.457118 
L 466.922149 292.616275 
L 468.397851 285.381908 
L 469.873554 288.293195 
L 471.349256 290.039967 
L 472.824959 291.08803 
L 474.300661 291.716868 
L 475.776364 292.094171 
L 477.252066 285.068646 
L 478.727769 288.105237 
L 480.203471 289.927192 
L 481.679174 283.768459 
L 483.154876 287.325125 
L 484.630579 289.459125 
L 486.106281 290.739525 
L 487.581983 291.507765 
L 489.057686 291.968709 
L 492.009091 292.411215 
L 492.009091 292.411215 
" clip-path="url(#pa60196f563)" style="fill: none; stroke: #ff7f0e; stroke-width: 1.5; stroke-linecap: square"/>
   </g>
   <g id="line2d_27">
    <path d="M 86.190909 274.530358 
L 87.666612 281.782265 
L 89.142314 286.133409 
L 90.618017 288.744095 
L 92.093719 290.310507 
L 93.569421 291.250354 
L 95.045124 291.814263 
L 96.520826 292.152608 
L 99.472231 292.477419 
L 103.899339 292.62066 
L 117.180661 292.659727 
L 161.451736 292.660125 
L 162.927438 285.408218 
L 164.40314 288.308981 
L 165.878843 290.049439 
L 167.354545 283.841806 
L 168.830248 287.369134 
L 170.30595 289.48553 
L 171.781653 290.755368 
L 173.257355 291.517271 
L 174.733058 291.974413 
L 176.20876 284.996791 
L 177.684463 266.306404 
L 179.160165 276.847892 
L 180.635868 283.172785 
L 182.11157 279.715814 
L 183.587273 270.389725 
L 185.062975 272.045978 
L 186.538678 280.291637 
L 188.01438 277.987125 
L 189.490083 262.100605 
L 190.965785 267.072506 
L 192.441488 277.307554 
L 193.91719 276.196675 
L 195.392893 268.278242 
L 196.868595 270.779088 
L 198.344298 265.027689 
L 199.82 268.828757 
L 201.295702 271.109397 
L 202.771405 272.477782 
L 204.247107 258.794999 
L 205.72281 265.089142 
L 207.198512 268.865629 
L 208.674215 271.13152 
L 210.149917 279.742962 
L 211.62562 284.909827 
L 213.101322 280.75804 
L 214.577025 278.266967 
L 216.052727 284.02423 
L 217.52843 280.226681 
L 219.004132 285.200059 
L 220.479835 280.932178 
L 221.955537 271.119543 
L 223.43124 279.735776 
L 224.906942 277.653609 
L 226.382645 283.656215 
L 227.858347 287.257779 
L 229.33405 282.166811 
L 230.809752 286.364136 
L 232.285455 288.882532 
L 233.761157 290.393569 
L 235.23686 291.300191 
L 236.712562 291.844165 
L 238.188264 292.170549 
L 241.139669 292.483878 
L 245.566777 292.622056 
L 248.518182 292.64642 
L 249.993884 285.399995 
L 251.469587 288.304047 
L 252.945289 282.794571 
L 254.420992 286.740793 
L 255.896694 281.856619 
L 257.372397 278.926115 
L 258.848099 284.419719 
L 260.323802 280.463974 
L 261.799504 285.342435 
L 263.275207 288.269511 
L 264.750909 290.025756 
L 266.226612 291.079504 
L 267.702314 291.711752 
L 269.178017 292.091101 
L 272.129421 292.455277 
L 276.556529 292.615878 
L 279.507934 292.644196 
L 280.983636 285.398661 
L 282.459339 288.303246 
L 283.935041 290.045998 
L 285.410744 291.091649 
L 286.886446 291.719039 
L 288.362149 292.095474 
L 291.313554 292.45685 
L 295.740661 292.616218 
L 306.070579 292.658896 
L 307.546281 285.407481 
L 309.021983 288.308538 
L 310.497686 290.049173 
L 311.973388 291.093554 
L 313.449091 291.720182 
L 314.924793 292.096159 
L 316.400496 285.069839 
L 317.876198 280.854047 
L 319.351901 285.576478 
L 320.827603 288.409937 
L 322.303306 290.110012 
L 323.779008 291.130057 
L 325.254711 291.742084 
L 326.730413 284.857394 
L 328.206116 287.978486 
L 329.681818 289.851142 
L 331.157521 283.722828 
L 332.633223 280.04584 
L 334.108926 285.091554 
L 335.584628 288.118982 
L 337.060331 289.935439 
L 338.536033 291.025314 
L 340.011736 291.679238 
L 341.487438 284.819686 
L 342.96314 287.955862 
L 344.438843 289.837567 
L 345.914545 290.96659 
L 347.390248 284.392097 
L 348.86595 287.699308 
L 350.341653 289.683635 
L 351.817355 283.622324 
L 353.293058 287.237445 
L 354.76876 289.406517 
L 356.244463 290.70796 
L 357.720165 291.488826 
L 359.195868 291.957346 
L 362.147273 292.407124 
L 363.622975 285.256418 
L 365.098678 288.217901 
L 366.57438 289.99479 
L 368.050083 291.060924 
L 369.525785 291.700605 
L 371.001488 292.084413 
L 373.952893 292.452869 
L 378.38 292.615358 
L 382.807107 292.650455 
L 384.28281 285.402416 
L 385.758512 281.053593 
L 387.234215 278.444299 
L 388.709917 284.130629 
L 390.18562 280.290521 
L 391.661322 285.238363 
L 393.137025 288.207068 
L 394.612727 289.988291 
L 396.08843 291.057024 
L 397.564132 291.698265 
L 399.039835 292.083009 
L 400.515537 285.061948 
L 401.99124 288.101219 
L 403.466942 289.924781 
L 404.942645 283.767012 
L 406.418347 287.324257 
L 407.89405 282.206698 
L 409.369752 286.388069 
L 410.845455 288.896891 
L 412.321157 290.402185 
L 413.79686 291.305361 
L 415.272562 291.847266 
L 416.748264 292.17241 
L 419.699669 292.484548 
L 421.175372 285.302872 
L 422.651074 288.245773 
L 424.126777 290.011514 
L 425.602479 291.070958 
L 427.078182 284.454718 
L 428.553884 287.736881 
L 430.029587 289.706179 
L 431.505289 290.887757 
L 432.980992 291.596704 
L 434.456694 292.022073 
L 437.408099 292.430426 
L 438.883802 292.522306 
L 440.359504 285.325527 
L 441.835207 288.259366 
L 443.310909 290.01967 
L 444.786612 291.075852 
L 446.262314 291.709561 
L 447.738017 292.089787 
L 450.689421 292.454803 
L 455.116529 292.615775 
L 456.592231 285.381608 
L 458.067934 288.293015 
L 459.543636 290.039859 
L 461.019339 291.087965 
L 462.495041 291.716829 
L 463.970744 284.842241 
L 465.446446 287.969394 
L 466.922149 289.845687 
L 468.397851 283.719555 
L 469.873554 287.295783 
L 471.349256 289.44152 
L 472.824959 290.728962 
L 474.300661 291.501427 
L 475.776364 291.964906 
L 478.727769 292.409846 
L 483.154876 292.606065 
L 492.009091 292.657603 
L 492.009091 292.657603 
" clip-path="url(#pa60196f563)" style="fill: none; stroke: #2ca02c; stroke-width: 1.5; stroke-linecap: square"/>
   </g>
   <g id="line2d_28">
    <path d="M 86.190909 256.400591 
L 87.666612 256.400591 
L 89.142314 263.652498 
L 90.618017 268.003642 
L 92.093719 263.362422 
L 93.569421 260.577689 
L 95.045124 273.410664 
L 96.520826 266.606635 
L 97.996529 262.524217 
L 99.472231 260.074767 
L 100.947934 265.857003 
L 102.423636 269.326345 
L 103.899339 256.904137 
L 105.375041 256.702718 
L 106.850744 263.833774 
L 108.326446 260.860501 
L 109.802149 259.076537 
L 111.277851 258.006159 
L 112.753554 264.615838 
L 114.229256 268.581646 
L 115.704959 249.205411 
L 117.180661 244.831576 
L 118.656364 249.459182 
L 120.132066 252.235746 
L 121.607769 239.39787 
L 123.083471 246.198959 
L 124.559174 243.027705 
L 126.034876 241.124952 
L 127.510579 232.731394 
L 128.986281 249.45098 
L 130.461983 237.727011 
L 131.937686 223.440721 
L 133.413388 229.372762 
L 134.889091 232.931987 
L 136.364793 242.319429 
L 137.840496 233.44808 
L 139.316198 228.125271 
L 140.791901 217.679677 
L 142.267603 218.664229 
L 143.743306 226.506867 
L 145.219008 231.21245 
L 146.694711 226.783893 
L 148.170413 231.378665 
L 149.646116 226.883622 
L 151.121818 224.186596 
L 152.597521 229.820287 
L 154.073223 240.452409 
L 155.548926 239.579775 
L 157.024628 246.308101 
L 158.500331 221.33747 
L 159.976033 220.858905 
L 161.451736 206.067952 
L 162.927438 218.949101 
L 164.40314 212.173975 
L 165.878843 193.605086 
L 167.354545 189.715661 
L 168.830248 194.633911 
L 170.30595 190.332956 
L 171.781653 187.752383 
L 173.257355 186.204039 
L 174.733058 185.275033 
L 176.20876 177.465721 
L 177.684463 180.032042 
L 179.160165 174.319926 
L 180.635868 178.144565 
L 182.11157 180.439348 
L 183.587273 181.816218 
L 185.062975 182.64234 
L 186.538678 183.138013 
L 188.01438 176.183509 
L 189.490083 157.50699 
L 190.965785 168.056803 
L 192.441488 174.386691 
L 193.91719 178.184624 
L 195.392893 151.455754 
L 196.868595 164.426061 
L 198.344298 157.704432 
L 199.82 160.923361 
L 201.295702 170.106626 
L 202.771405 190.120398 
L 204.247107 187.624848 
L 205.72281 178.87561 
L 207.198512 188.129881 
L 208.674215 186.430538 
L 210.149917 178.159024 
L 211.62562 187.699929 
L 213.101322 200.67638 
L 214.577025 186.706529 
L 216.052727 178.324619 
L 217.52843 173.295472 
L 219.004132 170.277984 
L 220.479835 175.7194 
L 221.955537 186.236155 
L 223.43124 207.050022 
L 224.906942 183.278809 
L 227.858347 183.664546 
L 230.809752 183.803411 
L 232.285455 176.582748 
L 233.761157 186.754163 
L 235.23686 185.605107 
L 236.712562 184.915674 
L 238.188264 191.753919 
L 239.663967 195.856866 
L 241.139669 205.570542 
L 242.615372 211.398748 
L 244.091074 222.147579 
L 245.566777 228.596877 
L 247.042479 217.962641 
L 248.518182 211.582099 
L 249.993884 215.005682 
L 251.469587 202.556019 
L 252.945289 224.093848 
L 254.420992 215.260823 
L 255.896694 217.212917 
L 257.372397 211.132265 
L 258.848099 207.483873 
L 260.323802 212.546747 
L 261.799504 215.584471 
L 263.275207 202.903292 
L 264.750909 188.042676 
L 266.226612 193.63012 
L 267.702314 211.486402 
L 269.178017 200.44445 
L 270.653719 201.071185 
L 272.129421 201.447226 
L 273.605124 201.67285 
L 275.080826 209.060133 
L 276.556529 198.988689 
L 278.032231 207.449636 
L 279.507934 198.022391 
L 280.983636 206.869857 
L 282.459339 197.674524 
L 283.935041 199.409229 
L 285.410744 193.198147 
L 286.886446 189.471497 
L 288.362149 179.983599 
L 289.837851 174.290861 
L 291.313554 178.127126 
L 292.789256 194.932698 
L 294.264959 190.512228 
L 295.740661 180.608038 
L 297.216364 196.421246 
L 298.692066 198.657262 
L 300.167769 192.746966 
L 301.643471 196.452695 
L 303.119174 198.676131 
L 304.594876 185.50638 
L 306.070579 184.856437 
L 307.546281 184.466472 
L 309.021983 205.988213 
L 310.497686 189.893629 
L 311.973388 187.488786 
L 313.449091 193.297786 
L 314.924793 196.783187 
L 316.400496 191.622521 
L 317.876198 166.770397 
L 319.351901 180.866753 
L 320.827603 182.072661 
L 322.303306 197.300019 
L 323.779008 184.680713 
L 325.254711 198.86485 
L 326.730413 185.619611 
L 328.206116 184.924376 
L 329.681818 177.255327 
L 331.157521 179.905805 
L 332.633223 174.244184 
L 334.108926 178.09912 
L 335.584628 180.412081 
L 337.060331 174.54795 
L 338.536033 178.281379 
L 340.011736 166.017623 
L 341.487438 165.911275 
L 342.96314 158.595561 
L 344.438843 161.458037 
L 345.914545 148.671707 
L 347.390248 155.503725 
L 348.86595 145.09912 
L 350.341653 146.108268 
L 351.817355 132.20994 
L 353.293058 131.122849 
L 354.76876 159.478224 
L 356.244463 161.987635 
L 357.720165 163.493282 
L 359.195868 178.900484 
L 360.67157 180.8929 
L 362.147273 160.332625 
L 363.622975 155.24837 
L 365.098678 137.694002 
L 366.57438 148.917102 
L 368.050083 155.650962 
L 369.525785 152.439373 
L 371.001488 128.756698 
L 372.47719 143.55472 
L 373.952893 152.433533 
L 375.428595 136.005099 
L 376.904298 140.651855 
L 378.38 157.943722 
L 379.855702 153.815029 
L 381.331405 151.337813 
L 382.807107 142.599573 
L 384.28281 137.356628 
L 385.758512 119.707051 
L 387.234215 138.124932 
L 388.709917 127.419938 
L 390.18562 135.500759 
L 391.661322 140.349251 
L 393.137025 150.510252 
L 394.612727 142.103036 
L 396.08843 144.310617 
L 397.564132 152.887071 
L 399.039835 150.781038 
L 400.515537 135.013602 
L 401.99124 147.308863 
L 403.466942 147.434113 
L 404.942645 154.761169 
L 406.418347 137.401681 
L 407.89405 141.489804 
L 409.369752 151.194584 
L 410.845455 142.513635 
L 412.321157 108.297444 
L 413.79686 95.019635 
L 415.272562 94.304855 
L 416.748264 86.624081 
L 418.223967 96.519428 
L 419.699669 87.952825 
L 421.175372 68.309047 
L 422.651074 63.774691 
L 424.126777 82.809794 
L 425.602479 79.727045 
L 427.078182 77.877395 
L 428.553884 69.5157 
L 430.029587 79.002494 
L 431.505289 77.442665 
L 432.980992 83.758673 
L 434.456694 94.800183 
L 435.932397 94.173184 
L 437.408099 101.04889 
L 438.883802 105.174313 
L 440.359504 93.145756 
L 441.835207 93.180528 
L 443.310909 85.949485 
L 444.786612 103.366576 
L 446.262314 99.313019 
L 447.738017 82.377075 
L 449.213719 101.22313 
L 450.689421 105.278857 
L 452.165124 93.208483 
L 453.640826 93.218163 
L 455.116529 100.475877 
L 456.592231 97.5786 
L 458.067934 103.09214 
L 459.543636 84.644547 
L 461.019339 80.827896 
L 462.495041 64.03409 
L 463.970744 53.957806 
L 465.446446 40.660125 
L 466.922149 54.437243 
L 468.397851 62.703515 
L 469.873554 60.411372 
L 471.349256 66.287991 
L 472.824959 77.065869 
L 474.300661 83.532595 
L 475.776364 109.168353 
L 477.252066 95.54218 
L 478.727769 87.366476 
L 480.203471 96.964865 
L 481.679174 95.471993 
L 483.154876 87.324364 
L 484.630579 96.939598 
L 486.106281 88.204927 
L 487.581983 90.21603 
L 489.057686 91.422692 
L 490.533388 92.146689 
L 492.009091 85.329182 
L 492.009091 85.329182 
" clip-path="url(#pa60196f563)" style="fill: none; stroke: #d62728; stroke-width: 1.5; stroke-linecap: square"/>
   </g>
   <g id="line2d_29">
    <path d="M 86.190909 292.660125 
L 87.666612 292.660125 
L 89.142314 285.408218 
L 90.618017 288.308981 
L 92.093719 290.049439 
L 93.569421 291.093713 
L 95.045124 291.720278 
L 96.520826 292.096217 
L 99.472231 292.457118 
L 103.899339 292.616275 
L 108.326446 292.650654 
L 109.802149 285.402535 
L 111.277851 288.305571 
L 112.753554 290.047393 
L 114.229256 291.092486 
L 115.704959 291.719541 
L 117.180661 292.095775 
L 118.656364 292.321515 
L 120.132066 285.205052 
L 121.607769 288.187081 
L 123.083471 289.976299 
L 124.559174 283.797922 
L 126.034876 287.342803 
L 127.510579 289.469732 
L 128.986281 290.745889 
L 130.461983 291.511584 
L 131.937686 291.971 
L 134.889091 292.41204 
L 139.316198 292.606539 
L 149.646116 292.658625 
L 151.121818 292.659225 
L 152.597521 285.407678 
L 154.073223 281.05675 
L 155.548926 285.6981 
L 157.024628 288.48291 
L 158.500331 290.153796 
L 159.976033 291.156328 
L 161.451736 284.50594 
L 162.927438 287.767614 
L 164.40314 289.724618 
L 165.878843 290.898821 
L 167.354545 291.603343 
L 168.830248 292.026056 
L 171.781653 292.43186 
L 173.257355 285.271259 
L 174.733058 288.226806 
L 176.20876 282.748227 
L 177.684463 286.712986 
L 179.160165 289.091842 
L 180.635868 290.519155 
L 182.11157 291.375543 
L 183.587273 291.889376 
L 185.062975 292.197675 
L 188.01438 292.493643 
L 189.490083 292.560236 
L 190.965785 285.348285 
L 192.441488 281.021114 
L 193.91719 285.676718 
L 195.392893 281.218174 
L 196.868595 285.794955 
L 198.344298 288.541023 
L 199.82 290.188664 
L 201.295702 291.177248 
L 202.771405 291.770399 
L 204.247107 292.126289 
L 205.72281 277.83601 
L 207.198512 283.765656 
L 208.674215 287.323444 
L 210.149917 282.206209 
L 211.62562 286.387776 
L 213.101322 288.896715 
L 214.577025 283.150172 
L 216.052727 286.954153 
L 217.52843 281.984635 
L 219.004132 286.254831 
L 220.479835 288.816949 
L 221.955537 290.354219 
L 223.43124 291.276582 
L 224.906942 291.829999 
L 226.382645 292.162049 
L 227.858347 285.109373 
L 229.33405 280.877767 
L 230.809752 285.59071 
L 232.285455 281.166569 
L 233.761157 271.260178 
L 235.23686 272.56825 
L 236.712562 280.605 
L 238.188264 285.42705 
L 239.663967 288.32028 
L 241.139669 290.056218 
L 242.615372 291.097781 
L 244.091074 291.722718 
L 245.566777 292.097681 
L 247.042479 292.322659 
L 248.518182 285.205738 
L 249.993884 288.187493 
L 251.469587 282.724639 
L 252.945289 286.698833 
L 254.420992 289.08335 
L 255.896694 290.51406 
L 257.372397 291.372486 
L 258.848099 291.887542 
L 260.323802 292.196575 
L 263.275207 292.493247 
L 267.702314 292.624079 
L 270.653719 292.647149 
L 272.129421 285.400432 
L 273.605124 288.304309 
L 275.080826 290.046636 
L 276.556529 291.092031 
L 278.032231 291.719269 
L 279.507934 292.095611 
L 282.459339 292.4569 
L 283.935041 285.286283 
L 285.410744 288.23582 
L 286.886446 290.005542 
L 288.362149 291.067375 
L 289.837851 291.704475 
L 291.313554 292.086735 
L 292.789256 285.064184 
L 294.264959 288.102561 
L 295.740661 289.925586 
L 297.216364 291.019402 
L 298.692066 291.675691 
L 300.167769 292.069465 
L 303.119174 292.447487 
L 307.546281 292.614195 
L 314.924793 292.656554 
L 316.400496 285.406075 
L 317.876198 281.055788 
L 319.351901 278.445616 
L 320.827603 284.13142 
L 322.303306 265.787181 
L 323.779008 269.284452 
L 325.254711 278.634721 
L 326.730413 284.244883 
L 328.206116 287.61098 
L 329.681818 289.630638 
L 331.157521 283.590526 
L 332.633223 272.714552 
L 334.108926 280.692781 
L 335.584628 285.479719 
L 337.060331 281.099974 
L 338.536033 285.724035 
L 340.011736 288.498471 
L 341.487438 282.911226 
L 342.96314 279.558879 
L 344.438843 277.54747 
L 345.914545 283.592532 
L 347.390248 272.715756 
L 348.86595 273.441597 
L 350.341653 273.877101 
L 353.293058 274.295186 
L 354.76876 274.389255 
L 356.244463 281.697603 
L 357.720165 278.830705 
L 359.195868 277.110566 
L 360.67157 276.078483 
L 362.147273 282.71114 
L 363.622975 272.18692 
L 365.098678 280.376202 
L 366.57438 278.037864 
L 368.050083 283.886769 
L 369.525785 287.396111 
L 371.001488 282.24981 
L 372.47719 279.162029 
L 373.952893 277.309361 
L 375.428595 283.449666 
L 376.904298 279.881943 
L 378.38 284.993216 
L 379.855702 280.808073 
L 381.331405 285.548894 
L 382.807107 288.393386 
L 384.28281 290.100082 
L 385.758512 283.872192 
L 387.234215 287.387365 
L 388.709917 282.244562 
L 390.18562 279.158881 
L 391.661322 284.559378 
L 393.137025 280.54777 
L 394.612727 278.140805 
L 396.08843 283.948533 
L 397.564132 280.181263 
L 399.039835 285.172808 
L 400.515537 280.915828 
L 401.99124 278.36164 
L 403.466942 276.829127 
L 404.942645 268.657713 
L 406.418347 278.258678 
L 407.89405 284.019257 
L 409.369752 272.97179 
L 410.845455 280.847124 
L 412.321157 271.068511 
L 413.79686 279.705157 
L 415.272562 270.38333 
L 416.748264 279.294048 
L 418.223967 284.640479 
L 419.699669 287.848337 
L 421.175372 282.521146 
L 422.651074 279.324831 
L 424.126777 284.658948 
L 425.602479 287.859419 
L 427.078182 289.779701 
L 428.553884 290.931871 
L 430.029587 269.867452 
L 431.505289 271.732614 
L 432.980992 265.599805 
L 434.456694 276.423933 
L 435.932397 275.666503 
L 437.408099 275.212045 
L 438.883802 282.191277 
L 440.359504 264.623096 
L 441.835207 268.586001 
L 443.310909 278.21565 
L 444.786612 269.489627 
L 446.262314 271.505919 
L 447.738017 272.715695 
L 449.213719 273.44156 
L 450.689421 281.128986 
L 452.165124 285.741442 
L 453.640826 274.005101 
L 455.116529 266.963297 
L 456.592231 277.242028 
L 458.067934 283.409267 
L 459.543636 287.10961 
L 461.019339 282.077909 
L 462.495041 279.058889 
L 463.970744 277.247476 
L 465.446446 283.412536 
L 466.922149 279.859665 
L 468.397851 284.979849 
L 469.873554 280.800053 
L 471.349256 278.292175 
L 472.824959 269.535541 
L 474.300661 264.281561 
L 475.776364 253.877266 
L 477.252066 262.138503 
L 478.727769 267.095245 
L 480.203471 277.321197 
L 481.679174 276.204861 
L 483.154876 282.786967 
L 484.630579 279.484323 
L 486.106281 277.502737 
L 487.581983 276.313786 
L 489.057686 282.852321 
L 490.533388 272.271629 
L 492.009091 280.427028 
L 492.009091 280.427028 
" clip-path="url(#pa60196f563)" style="fill: none; stroke: #9467bd; stroke-width: 1.5; stroke-linecap: square"/>
   </g>
   <g id="patch_3">
    <path d="M 65.9 305.260125 
L 65.9 28.060125 
" style="fill: none; stroke: #000000; stroke-width: 0.8; stroke-linejoin: miter; stroke-linecap: square"/>
   </g>
   <g id="patch_4">
    <path d="M 512.3 305.260125 
L 512.3 28.060125 
" style="fill: none; stroke: #000000; stroke-width: 0.8; stroke-linejoin: miter; stroke-linecap: square"/>
   </g>
   <g id="patch_5">
    <path d="M 65.9 305.260125 
L 512.3 305.260125 
" style="fill: none; stroke: #000000; stroke-width: 0.8; stroke-linejoin: miter; stroke-linecap: square"/>
   </g>
   <g id="patch_6">
    <path d="M 65.9 28.060125 
L 512.3 28.060125 
" style="fill: none; stroke: #000000; stroke-width: 0.8; stroke-linejoin: miter; stroke-linecap: square"/>
   </g>
   <g id="text_16">
    <!-- ML45 Meta Testing -->
    <g transform="translate(202.104313 22.060125)scale(0.216 -0.216)">
     <defs>
      <path id="STIXGeneral-Regular-4d" d="M 5530 0 
L 3738 0 
L 3738 122 
Q 4115 147 4214 265 
Q 4314 384 4314 787 
L 4314 3661 
L 2682 0 
L 2592 0 
L 979 3514 
L 979 966 
Q 979 448 1088 294 
Q 1197 141 1574 122 
L 1574 0 
L 77 0 
L 77 122 
Q 358 141 480 205 
Q 602 269 650 432 
Q 698 595 698 966 
L 698 3514 
Q 698 3878 589 3984 
Q 480 4090 90 4115 
L 90 4237 
L 1357 4237 
L 2835 1024 
L 4250 4237 
L 5523 4237 
L 5523 4115 
Q 5178 4109 5072 3993 
Q 4966 3878 4966 3520 
L 4966 717 
Q 4966 378 5072 262 
Q 5178 147 5530 122 
L 5530 0 
z
" transform="scale(0.015625)"/>
      <path id="STIXGeneral-Regular-4c" d="M 3827 1114 
L 3520 0 
L 77 0 
L 77 122 
Q 429 141 531 256 
Q 634 371 634 736 
L 634 3494 
Q 634 3872 541 3981 
Q 448 4090 77 4115 
L 77 4237 
L 1888 4237 
L 1888 4115 
Q 1498 4090 1392 3984 
Q 1286 3878 1286 3507 
L 1286 538 
Q 1286 358 1398 304 
Q 1510 250 1862 250 
L 2310 250 
Q 3085 250 3392 640 
Q 3520 813 3661 1114 
L 3827 1114 
z
" transform="scale(0.015625)"/>
     </defs>
     <use xlink:href="#STIXGeneral-Regular-4d"/>
     <use xlink:href="#STIXGeneral-Regular-4c" x="88.899994"/>
     <use xlink:href="#STIXGeneral-Regular-34" x="149.999985"/>
     <use xlink:href="#STIXGeneral-Regular-35" x="199.999969"/>
     <use xlink:href="#STIXGeneral-Regular-20" x="249.999954"/>
     <use xlink:href="#STIXGeneral-Regular-4d" x="274.999939"/>
     <use xlink:href="#STIXGeneral-Regular-65" x="363.899933"/>
     <use xlink:href="#STIXGeneral-Regular-74" x="408.299927"/>
     <use xlink:href="#STIXGeneral-Regular-61" x="436.099915"/>
     <use xlink:href="#STIXGeneral-Regular-20" x="480.499908"/>
     <use xlink:href="#STIXGeneral-Regular-54" x="505.499893"/>
     <use xlink:href="#STIXGeneral-Regular-65" x="566.599884"/>
     <use xlink:href="#STIXGeneral-Regular-73" x="610.999878"/>
     <use xlink:href="#STIXGeneral-Regular-74" x="649.899872"/>
     <use xlink:href="#STIXGeneral-Regular-69" x="677.69986"/>
     <use xlink:href="#STIXGeneral-Regular-6e" x="705.499847"/>
     <use xlink:href="#STIXGeneral-Regular-67" x="755.499832"/>
    </g>
   </g>
   <g id="legend_1">
    <g id="patch_7">
     <path d="M 71.5 107.87325 
L 179.593125 107.87325 
Q 182.393125 107.87325 182.393125 105.07325 
L 182.393125 33.660125 
Q 182.393125 30.860125 179.593125 30.860125 
L 71.5 30.860125 
Q 68.7 30.860125 68.7 33.660125 
L 68.7 105.07325 
Q 68.7 107.87325 71.5 107.87325 
z
" style="fill: #ffffff; opacity: 0.8; stroke: #cccccc; stroke-linejoin: miter"/>
    </g>
    <g id="line2d_30">
     <path d="M 72.9 40.771687 
L 79.9 40.771687 
L 86.9 40.771687 
" style="fill: none; stroke: #1f77b4; stroke-width: 1.5; stroke-linecap: square"/>
    </g>
    <g id="text_17">
     <!-- bin-picking-v2 -->
     <g transform="translate(91.1 44.621687)scale(0.14 -0.14)">
      <defs>
       <path id="STIXGeneral-Regular-62" d="M 979 4358 
L 979 2406 
Q 1082 2650 1315 2797 
Q 1549 2944 1843 2944 
Q 2349 2944 2672 2541 
Q 2995 2138 2995 1536 
Q 2995 832 2566 384 
Q 2138 -64 1498 -64 
Q 1107 -64 774 67 
Q 442 198 442 358 
L 442 3622 
Q 442 3859 384 3926 
Q 326 3994 128 3994 
Q 83 3994 19 3981 
L 19 4090 
L 211 4147 
Q 864 4346 947 4371 
L 979 4358 
z
M 979 2035 
L 979 474 
Q 979 326 1161 233 
Q 1344 141 1600 141 
Q 1978 141 2195 416 
Q 2432 710 2432 1261 
Q 2432 1888 2182 2240 
Q 1971 2541 1613 2541 
Q 1357 2541 1168 2390 
Q 979 2240 979 2035 
z
" transform="scale(0.015625)"/>
       <path id="STIXGeneral-Regular-2d" d="M 1824 1242 
L 250 1242 
L 250 1645 
L 1824 1645 
L 1824 1242 
z
" transform="scale(0.015625)"/>
       <path id="STIXGeneral-Regular-6b" d="M 3232 0 
L 1837 0 
L 1837 96 
L 1958 96 
Q 2093 96 2093 192 
Q 2093 250 2022 339 
L 1062 1606 
L 1062 429 
Q 1062 262 1142 185 
Q 1222 109 1414 102 
L 1542 96 
L 1542 0 
L 45 0 
L 45 96 
Q 390 154 457 214 
Q 525 275 525 525 
L 525 3610 
Q 525 3840 467 3920 
Q 410 4000 250 4000 
Q 211 4000 45 3987 
L 45 4090 
L 237 4141 
Q 621 4243 1037 4371 
L 1062 4358 
L 1062 1670 
L 1939 2451 
Q 2086 2586 2086 2675 
Q 2086 2739 2019 2761 
Q 1952 2784 1766 2790 
L 1766 2880 
L 3072 2880 
L 3072 2784 
Q 2752 2784 2505 2646 
Q 2259 2509 1690 1978 
L 1504 1805 
L 2483 563 
Q 2829 122 3232 96 
L 3232 0 
z
" transform="scale(0.015625)"/>
      </defs>
      <use xlink:href="#STIXGeneral-Regular-62"/>
      <use xlink:href="#STIXGeneral-Regular-69" x="49.999985"/>
      <use xlink:href="#STIXGeneral-Regular-6e" x="77.799973"/>
      <use xlink:href="#STIXGeneral-Regular-2d" x="127.799957"/>
      <use xlink:href="#STIXGeneral-Regular-70" x="161.099945"/>
      <use xlink:href="#STIXGeneral-Regular-69" x="211.09993"/>
      <use xlink:href="#STIXGeneral-Regular-63" x="238.899918"/>
      <use xlink:href="#STIXGeneral-Regular-6b" x="283.299911"/>
      <use xlink:href="#STIXGeneral-Regular-69" x="333.299896"/>
      <use xlink:href="#STIXGeneral-Regular-6e" x="361.099884"/>
      <use xlink:href="#STIXGeneral-Regular-67" x="411.099869"/>
      <use xlink:href="#STIXGeneral-Regular-2d" x="461.099854"/>
      <use xlink:href="#STIXGeneral-Regular-76" x="494.399841"/>
      <use xlink:href="#STIXGeneral-Regular-32" x="544.399826"/>
     </g>
    </g>
    <g id="line2d_31">
     <path d="M 72.9 54.784812 
L 79.9 54.784812 
L 86.9 54.784812 
" style="fill: none; stroke: #ff7f0e; stroke-width: 1.5; stroke-linecap: square"/>
    </g>
    <g id="text_18">
     <!-- box-close-v2 -->
     <g transform="translate(91.1 58.634812)scale(0.14 -0.14)">
      <defs>
       <path id="STIXGeneral-Regular-78" d="M 3066 0 
L 1779 0 
L 1779 96 
Q 1939 109 1987 137 
Q 2035 166 2035 250 
Q 2035 307 1997 365 
L 1414 1261 
L 909 474 
Q 781 275 781 211 
Q 781 96 1037 96 
L 1037 0 
L 109 0 
L 109 96 
Q 269 109 355 169 
Q 442 230 576 422 
L 1306 1478 
L 704 2400 
Q 557 2624 454 2704 
Q 352 2784 211 2784 
L 154 2784 
L 154 2880 
L 1478 2880 
L 1478 2784 
Q 1203 2778 1203 2643 
Q 1203 2509 1498 2074 
Q 1581 1958 1587 1946 
Q 1619 1990 1779 2227 
Q 1811 2285 1856 2349 
Q 1901 2413 1923 2451 
Q 1946 2490 1971 2528 
Q 1997 2566 2006 2595 
Q 2016 2624 2016 2643 
Q 2016 2765 1760 2784 
L 1760 2880 
L 2771 2880 
L 2771 2784 
Q 2445 2771 2253 2502 
L 1722 1734 
L 2541 480 
Q 2790 96 3066 96 
L 3066 0 
z
" transform="scale(0.015625)"/>
       <path id="STIXGeneral-Regular-6c" d="M 1645 0 
L 134 0 
L 134 96 
Q 435 122 531 221 
Q 627 320 627 589 
L 627 3590 
Q 627 3821 569 3910 
Q 512 4000 358 4000 
Q 224 4000 122 3987 
L 122 4090 
Q 730 4237 1133 4371 
L 1165 4346 
L 1165 557 
Q 1165 288 1254 201 
Q 1344 115 1645 96 
L 1645 0 
z
" transform="scale(0.015625)"/>
      </defs>
      <use xlink:href="#STIXGeneral-Regular-62"/>
      <use xlink:href="#STIXGeneral-Regular-6f" x="49.999985"/>
      <use xlink:href="#STIXGeneral-Regular-78" x="99.999969"/>
      <use xlink:href="#STIXGeneral-Regular-2d" x="149.999954"/>
      <use xlink:href="#STIXGeneral-Regular-63" x="183.299942"/>
      <use xlink:href="#STIXGeneral-Regular-6c" x="227.699936"/>
      <use xlink:href="#STIXGeneral-Regular-6f" x="255.499924"/>
      <use xlink:href="#STIXGeneral-Regular-73" x="305.499908"/>
      <use xlink:href="#STIXGeneral-Regular-65" x="344.399902"/>
      <use xlink:href="#STIXGeneral-Regular-2d" x="388.799896"/>
      <use xlink:href="#STIXGeneral-Regular-76" x="422.099884"/>
      <use xlink:href="#STIXGeneral-Regular-32" x="472.099869"/>
     </g>
    </g>
    <g id="line2d_32">
     <path d="M 72.9 68.784812 
L 79.9 68.784812 
L 86.9 68.784812 
" style="fill: none; stroke: #2ca02c; stroke-width: 1.5; stroke-linecap: square"/>
    </g>
    <g id="text_19">
     <!-- hand-insert-v2 -->
     <g transform="translate(91.1 72.634812)scale(0.14 -0.14)">
      <defs>
       <path id="STIXGeneral-Regular-68" d="M 3117 0 
L 1760 0 
L 1760 96 
Q 2042 128 2118 224 
Q 2195 320 2195 653 
L 2195 1920 
Q 2195 2598 1722 2598 
Q 1530 2598 1370 2508 
Q 1210 2419 1005 2195 
L 1005 653 
Q 1005 320 1081 224 
Q 1158 128 1440 96 
L 1440 0 
L 58 0 
L 58 96 
Q 333 134 400 224 
Q 467 314 467 653 
L 467 3667 
Q 467 3872 406 3933 
Q 346 3994 141 3994 
Q 83 3994 64 3987 
L 64 4090 
L 237 4141 
Q 730 4288 973 4371 
L 1005 4352 
L 1005 2406 
Q 1229 2694 1446 2819 
Q 1664 2944 1946 2944 
Q 2733 2944 2733 1926 
L 2733 653 
Q 2733 320 2793 233 
Q 2854 147 3117 96 
L 3117 0 
z
" transform="scale(0.015625)"/>
       <path id="STIXGeneral-Regular-64" d="M 3142 269 
L 2202 -64 
L 2176 -45 
L 2176 365 
Q 1869 -64 1357 -64 
Q 826 -64 499 317 
Q 173 698 173 1312 
Q 173 1990 563 2467 
Q 954 2944 1504 2944 
Q 1850 2944 2176 2669 
L 2176 3667 
Q 2176 3866 2118 3930 
Q 2061 3994 1882 3994 
Q 1792 3994 1741 3987 
L 1741 4090 
Q 2323 4243 2682 4371 
L 2714 4358 
L 2714 730 
Q 2714 506 2768 435 
Q 2822 365 2995 365 
Q 3034 365 3142 371 
L 3142 269 
z
M 2176 653 
L 2176 2125 
Q 2176 2381 1981 2573 
Q 1786 2765 1523 2765 
Q 1158 2765 940 2438 
Q 723 2112 723 1568 
Q 723 979 963 624 
Q 1203 269 1606 269 
Q 1907 269 2080 474 
Q 2176 582 2176 653 
z
" transform="scale(0.015625)"/>
      </defs>
      <use xlink:href="#STIXGeneral-Regular-68"/>
      <use xlink:href="#STIXGeneral-Regular-61" x="49.999985"/>
      <use xlink:href="#STIXGeneral-Regular-6e" x="94.399979"/>
      <use xlink:href="#STIXGeneral-Regular-64" x="144.399963"/>
      <use xlink:href="#STIXGeneral-Regular-2d" x="194.399948"/>
      <use xlink:href="#STIXGeneral-Regular-69" x="227.699936"/>
      <use xlink:href="#STIXGeneral-Regular-6e" x="255.499924"/>
      <use xlink:href="#STIXGeneral-Regular-73" x="305.499908"/>
      <use xlink:href="#STIXGeneral-Regular-65" x="344.399902"/>
      <use xlink:href="#STIXGeneral-Regular-72" x="388.799896"/>
      <use xlink:href="#STIXGeneral-Regular-74" x="422.099884"/>
      <use xlink:href="#STIXGeneral-Regular-2d" x="449.899872"/>
      <use xlink:href="#STIXGeneral-Regular-76" x="483.19986"/>
      <use xlink:href="#STIXGeneral-Regular-32" x="533.199844"/>
     </g>
    </g>
    <g id="line2d_33">
     <path d="M 72.9 82.784812 
L 79.9 82.784812 
L 86.9 82.784812 
" style="fill: none; stroke: #d62728; stroke-width: 1.5; stroke-linecap: square"/>
    </g>
    <g id="text_20">
     <!-- door-lock-v2 -->
     <g transform="translate(91.1 86.634812)scale(0.14 -0.14)">
      <use xlink:href="#STIXGeneral-Regular-64"/>
      <use xlink:href="#STIXGeneral-Regular-6f" x="49.999985"/>
      <use xlink:href="#STIXGeneral-Regular-6f" x="99.999969"/>
      <use xlink:href="#STIXGeneral-Regular-72" x="149.999954"/>
      <use xlink:href="#STIXGeneral-Regular-2d" x="183.299942"/>
      <use xlink:href="#STIXGeneral-Regular-6c" x="216.59993"/>
      <use xlink:href="#STIXGeneral-Regular-6f" x="244.399918"/>
      <use xlink:href="#STIXGeneral-Regular-63" x="294.399902"/>
      <use xlink:href="#STIXGeneral-Regular-6b" x="338.799896"/>
      <use xlink:href="#STIXGeneral-Regular-2d" x="388.799881"/>
      <use xlink:href="#STIXGeneral-Regular-76" x="422.099869"/>
      <use xlink:href="#STIXGeneral-Regular-32" x="472.099854"/>
     </g>
    </g>
    <g id="line2d_34">
     <path d="M 72.9 96.784812 
L 79.9 96.784812 
L 86.9 96.784812 
" style="fill: none; stroke: #9467bd; stroke-width: 1.5; stroke-linecap: square"/>
    </g>
    <g id="text_21">
     <!-- door-unlock-v2 -->
     <g transform="translate(91.1 100.634812)scale(0.14 -0.14)">
      <use xlink:href="#STIXGeneral-Regular-64"/>
      <use xlink:href="#STIXGeneral-Regular-6f" x="49.999985"/>
      <use xlink:href="#STIXGeneral-Regular-6f" x="99.999969"/>
      <use xlink:href="#STIXGeneral-Regular-72" x="149.999954"/>
      <use xlink:href="#STIXGeneral-Regular-2d" x="183.299942"/>
      <use xlink:href="#STIXGeneral-Regular-75" x="216.59993"/>
      <use xlink:href="#STIXGeneral-Regular-6e" x="266.599915"/>
      <use xlink:href="#STIXGeneral-Regular-6c" x="316.599899"/>
      <use xlink:href="#STIXGeneral-Regular-6f" x="344.399887"/>
      <use xlink:href="#STIXGeneral-Regular-63" x="394.399872"/>
      <use xlink:href="#STIXGeneral-Regular-6b" x="438.799866"/>
      <use xlink:href="#STIXGeneral-Regular-2d" x="488.79985"/>
      <use xlink:href="#STIXGeneral-Regular-76" x="522.099838"/>
      <use xlink:href="#STIXGeneral-Regular-32" x="572.099823"/>
     </g>
    </g>
   </g>
  </g>
 </g>
 <defs>
  <clipPath id="pa60196f563">
   <rect x="65.9" y="28.060125" width="446.4" height="277.2"/>
  </clipPath>
 </defs>
</svg>
