<?xml version="1.0" encoding="utf-8" standalone="no"?>
<!DOCTYPE svg PUBLIC "-//W3C//DTD SVG 1.1//EN"
  "http://www.w3.org/Graphics/SVG/1.1/DTD/svg11.dtd">
<svg xmlns:xlink="http://www.w3.org/1999/xlink" width="510.5pt" height="355.877pt" viewBox="0 0 510.5 355.877" xmlns="http://www.w3.org/2000/svg" version="1.1">
 <metadata>
  <rdf:RDF xmlns:dc="http://purl.org/dc/elements/1.1/" xmlns:cc="http://creativecommons.org/ns#" xmlns:rdf="http://www.w3.org/1999/02/22-rdf-syntax-ns#">
   <cc:Work>
    <dc:type rdf:resource="http://purl.org/dc/dcmitype/StillImage"/>
    <dc:date>2021-12-11T16:37:24.083850</dc:date>
    <dc:format>image/svg+xml</dc:format>
    <dc:creator>
     <cc:Agent>
      <dc:title>Matplotlib v3.5.0, https://matplotlib.org/</dc:title>
     </cc:Agent>
    </dc:creator>
   </cc:Work>
  </rdf:RDF>
 </metadata>
 <defs>
  <style type="text/css">*{stroke-linejoin: round; stroke-linecap: butt}</style>
 </defs>
 <g id="figure_1">
  <g id="patch_1">
   <path d="M 0 355.877 
L 510.5 355.877 
L 510.5 0 
L 0 0 
z
" style="fill: #ffffff"/>
  </g>
  <g id="axes_1">
   <g id="patch_2">
    <path d="M 56.9 305.260125 
L 503.3 305.260125 
L 503.3 28.060125 
L 56.9 28.060125 
z
" style="fill: #ffffff"/>
   </g>
   <g id="matplotlib.axis_1">
    <g id="xtick_1">
     <g id="line2d_1">
      <path d="M 75.736364 305.260125 
L 75.736364 28.060125 
" clip-path="url(#pda08d0dbd6)" style="fill: none; stroke: #b0b0b0; stroke-width: 0.8; stroke-linecap: square"/>
     </g>
     <g id="line2d_2">
      <defs>
       <path id="m793761a8f1" d="M 0 0 
L 0 3.5 
" style="stroke: #000000; stroke-width: 0.8"/>
      </defs>
      <g>
       <use xlink:href="#m793761a8f1" x="75.736364" y="305.260125" style="stroke: #000000; stroke-width: 0.8"/>
      </g>
     </g>
     <g id="text_1">
      <!-- 0 -->
      <g transform="translate(71.236364 324.553562)scale(0.18 -0.18)">
       <defs>
        <path id="STIXGeneral-Regular-30" d="M 3046 2112 
Q 3046 1683 2963 1302 
Q 2880 922 2717 602 
Q 2554 282 2266 96 
Q 1978 -90 1600 -90 
Q 1210 -90 915 108 
Q 621 307 461 640 
Q 301 973 227 1350 
Q 154 1728 154 2150 
Q 154 2746 301 3222 
Q 448 3699 790 4012 
Q 1133 4326 1626 4326 
Q 2253 4326 2649 3712 
Q 3046 3098 3046 2112 
z
M 2432 2080 
Q 2432 3091 2217 3625 
Q 2003 4160 1587 4160 
Q 1190 4160 979 3622 
Q 768 3085 768 2106 
Q 768 1120 979 598 
Q 1190 77 1600 77 
Q 2003 77 2217 598 
Q 2432 1120 2432 2080 
z
" transform="scale(0.015625)"/>
       </defs>
       <use xlink:href="#STIXGeneral-Regular-30"/>
      </g>
     </g>
    </g>
    <g id="xtick_2">
     <g id="line2d_3">
      <path d="M 147.565769 305.260125 
L 147.565769 28.060125 
" clip-path="url(#pda08d0dbd6)" style="fill: none; stroke: #b0b0b0; stroke-width: 0.8; stroke-linecap: square"/>
     </g>
     <g id="line2d_4">
      <g>
       <use xlink:href="#m793761a8f1" x="147.565769" y="305.260125" style="stroke: #000000; stroke-width: 0.8"/>
      </g>
     </g>
     <g id="text_2">
      <!-- 1 -->
      <g transform="translate(143.065769 324.553562)scale(0.18 -0.18)">
       <defs>
        <path id="STIXGeneral-Regular-31" d="M 2522 0 
L 755 0 
L 755 96 
Q 1107 115 1235 227 
Q 1363 339 1363 608 
L 1363 3482 
Q 1363 3795 1171 3795 
Q 1082 3795 883 3718 
L 710 3654 
L 710 3744 
L 1856 4326 
L 1914 4307 
L 1914 486 
Q 1914 275 2042 185 
Q 2170 96 2522 96 
L 2522 0 
z
" transform="scale(0.015625)"/>
       </defs>
       <use xlink:href="#STIXGeneral-Regular-31"/>
      </g>
     </g>
    </g>
    <g id="xtick_3">
     <g id="line2d_5">
      <path d="M 219.395174 305.260125 
L 219.395174 28.060125 
" clip-path="url(#pda08d0dbd6)" style="fill: none; stroke: #b0b0b0; stroke-width: 0.8; stroke-linecap: square"/>
     </g>
     <g id="line2d_6">
      <g>
       <use xlink:href="#m793761a8f1" x="219.395174" y="305.260125" style="stroke: #000000; stroke-width: 0.8"/>
      </g>
     </g>
     <g id="text_3">
      <!-- 2 -->
      <g transform="translate(214.895174 324.553562)scale(0.18 -0.18)">
       <defs>
        <path id="STIXGeneral-Regular-32" d="M 3034 877 
L 2688 0 
L 186 0 
L 186 77 
L 1325 1286 
Q 1773 1754 1965 2144 
Q 2157 2534 2157 2950 
Q 2157 3379 1920 3616 
Q 1683 3853 1267 3853 
Q 922 3853 720 3673 
Q 518 3494 326 3021 
L 192 3053 
Q 301 3648 630 3987 
Q 960 4326 1523 4326 
Q 2054 4326 2380 4006 
Q 2707 3686 2707 3200 
Q 2707 2477 1888 1613 
L 832 486 
L 2330 486 
Q 2541 486 2665 569 
Q 2790 653 2944 915 
L 3034 877 
z
" transform="scale(0.015625)"/>
       </defs>
       <use xlink:href="#STIXGeneral-Regular-32"/>
      </g>
     </g>
    </g>
    <g id="xtick_4">
     <g id="line2d_7">
      <path d="M 291.224579 305.260125 
L 291.224579 28.060125 
" clip-path="url(#pda08d0dbd6)" style="fill: none; stroke: #b0b0b0; stroke-width: 0.8; stroke-linecap: square"/>
     </g>
     <g id="line2d_8">
      <g>
       <use xlink:href="#m793761a8f1" x="291.224579" y="305.260125" style="stroke: #000000; stroke-width: 0.8"/>
      </g>
     </g>
     <g id="text_4">
      <!-- 3 -->
      <g transform="translate(286.724579 324.553562)scale(0.18 -0.18)">
       <defs>
        <path id="STIXGeneral-Regular-33" d="M 390 3264 
L 288 3290 
Q 435 3770 748 4048 
Q 1062 4326 1542 4326 
Q 1990 4326 2265 4083 
Q 2541 3840 2541 3450 
Q 2541 2925 1946 2566 
Q 2298 2413 2477 2227 
Q 2758 1914 2758 1402 
Q 2758 890 2464 506 
Q 2246 211 1840 60 
Q 1434 -90 979 -90 
Q 262 -90 262 275 
Q 262 378 339 442 
Q 416 506 525 506 
Q 685 506 915 339 
Q 1197 141 1466 141 
Q 1818 141 2058 425 
Q 2298 710 2298 1120 
Q 2298 1856 1632 2048 
Q 1434 2112 979 2112 
L 979 2202 
Q 1338 2323 1517 2432 
Q 2035 2726 2035 3290 
Q 2035 3610 1852 3776 
Q 1670 3942 1344 3942 
Q 768 3942 390 3264 
z
" transform="scale(0.015625)"/>
       </defs>
       <use xlink:href="#STIXGeneral-Regular-33"/>
      </g>
     </g>
    </g>
    <g id="xtick_5">
     <g id="line2d_9">
      <path d="M 363.053984 305.260125 
L 363.053984 28.060125 
" clip-path="url(#pda08d0dbd6)" style="fill: none; stroke: #b0b0b0; stroke-width: 0.8; stroke-linecap: square"/>
     </g>
     <g id="line2d_10">
      <g>
       <use xlink:href="#m793761a8f1" x="363.053984" y="305.260125" style="stroke: #000000; stroke-width: 0.8"/>
      </g>
     </g>
     <g id="text_5">
      <!-- 4 -->
      <g transform="translate(358.553984 324.553562)scale(0.18 -0.18)">
       <defs>
        <path id="STIXGeneral-Regular-34" d="M 3027 1069 
L 2368 1069 
L 2368 0 
L 1869 0 
L 1869 1069 
L 77 1069 
L 77 1478 
L 2086 4326 
L 2368 4326 
L 2368 1478 
L 3027 1478 
L 3027 1069 
z
M 1869 1478 
L 1869 3674 
L 333 1478 
L 1869 1478 
z
" transform="scale(0.015625)"/>
       </defs>
       <use xlink:href="#STIXGeneral-Regular-34"/>
      </g>
     </g>
    </g>
    <g id="xtick_6">
     <g id="line2d_11">
      <path d="M 434.883389 305.260125 
L 434.883389 28.060125 
" clip-path="url(#pda08d0dbd6)" style="fill: none; stroke: #b0b0b0; stroke-width: 0.8; stroke-linecap: square"/>
     </g>
     <g id="line2d_12">
      <g>
       <use xlink:href="#m793761a8f1" x="434.883389" y="305.260125" style="stroke: #000000; stroke-width: 0.8"/>
      </g>
     </g>
     <g id="text_6">
      <!-- 5 -->
      <g transform="translate(430.383389 324.553562)scale(0.18 -0.18)">
       <defs>
        <path id="STIXGeneral-Regular-35" d="M 2803 4358 
L 2573 3814 
Q 2534 3731 2400 3731 
L 1158 3731 
L 902 3187 
Q 1606 3053 1920 2896 
Q 2234 2739 2502 2368 
Q 2726 2061 2726 1555 
Q 2726 1094 2576 780 
Q 2426 467 2099 224 
Q 1664 -90 1011 -90 
Q 646 -90 422 19 
Q 198 128 198 307 
Q 198 550 486 550 
Q 717 550 960 352 
Q 1210 147 1414 147 
Q 1747 147 2012 480 
Q 2278 813 2278 1229 
Q 2278 1843 1850 2189 
Q 1293 2637 486 2637 
Q 410 2637 410 2688 
L 416 2720 
L 1114 4237 
L 2438 4237 
Q 2547 4237 2608 4269 
Q 2669 4301 2746 4403 
L 2803 4358 
z
" transform="scale(0.015625)"/>
       </defs>
       <use xlink:href="#STIXGeneral-Regular-35"/>
      </g>
     </g>
    </g>
    <g id="text_7">
     <!-- Training Environment Steps -->
     <g transform="translate(178.104688 344.753562)scale(0.18 -0.18)">
      <defs>
       <path id="STIXGeneral-Regular-54" d="M 3795 3149 
L 3642 3149 
Q 3539 3674 3353 3821 
Q 3168 3968 2656 3968 
L 2278 3968 
L 2278 710 
Q 2278 346 2387 243 
Q 2496 141 2893 122 
L 2893 0 
L 1024 0 
L 1024 122 
Q 1427 147 1526 256 
Q 1626 365 1626 787 
L 1626 3968 
L 1242 3968 
Q 723 3968 540 3817 
Q 358 3667 262 3149 
L 109 3149 
L 154 4237 
L 3750 4237 
L 3795 3149 
z
" transform="scale(0.015625)"/>
       <path id="STIXGeneral-Regular-72" d="M 1024 2931 
L 1024 2342 
Q 1267 2688 1430 2816 
Q 1594 2944 1792 2944 
Q 1958 2944 2051 2854 
Q 2144 2765 2144 2605 
Q 2144 2470 2077 2393 
Q 2010 2317 1894 2317 
Q 1773 2317 1638 2445 
Q 1536 2541 1472 2541 
Q 1338 2541 1181 2355 
Q 1024 2170 1024 2016 
L 1024 576 
Q 1024 301 1133 205 
Q 1242 109 1568 96 
L 1568 0 
L 32 0 
L 32 96 
Q 339 154 412 224 
Q 486 294 486 538 
L 486 2138 
Q 486 2349 438 2435 
Q 390 2522 269 2522 
Q 166 2522 45 2496 
L 45 2598 
Q 448 2726 992 2944 
L 1024 2931 
z
" transform="scale(0.015625)"/>
       <path id="STIXGeneral-Regular-61" d="M 2829 422 
L 2829 243 
Q 2586 -64 2253 -64 
Q 1888 -64 1843 403 
L 1837 403 
Q 1427 -64 909 -64 
Q 608 -64 422 112 
Q 237 288 237 602 
Q 237 1050 685 1350 
Q 992 1555 1837 1869 
L 1837 2214 
Q 1837 2502 1699 2646 
Q 1562 2790 1338 2790 
Q 1146 2790 1018 2697 
Q 890 2605 890 2477 
Q 890 2419 909 2348 
Q 928 2278 928 2208 
Q 928 2112 841 2029 
Q 755 1946 634 1946 
Q 525 1946 441 2029 
Q 358 2112 358 2240 
Q 358 2547 685 2752 
Q 986 2944 1421 2944 
Q 1939 2944 2176 2656 
Q 2291 2522 2323 2384 
Q 2355 2246 2355 1946 
L 2355 723 
Q 2355 301 2554 301 
Q 2682 301 2829 422 
z
M 1837 813 
L 1837 1715 
Q 1248 1510 1018 1293 
Q 800 1094 800 800 
Q 800 557 921 432 
Q 1043 307 1242 307 
Q 1453 307 1613 410 
Q 1747 506 1792 589 
Q 1837 672 1837 813 
z
" transform="scale(0.015625)"/>
       <path id="STIXGeneral-Regular-69" d="M 1152 4045 
Q 1152 3904 1056 3811 
Q 960 3718 819 3718 
Q 685 3718 592 3811 
Q 499 3904 499 4045 
Q 499 4179 595 4275 
Q 691 4371 826 4371 
Q 966 4371 1059 4275 
Q 1152 4179 1152 4045 
z
M 1619 0 
L 102 0 
L 102 96 
Q 435 115 521 211 
Q 608 307 608 666 
L 608 2118 
Q 608 2342 563 2432 
Q 518 2522 397 2522 
Q 243 2522 128 2490 
L 128 2592 
L 1120 2944 
L 1146 2918 
L 1146 672 
Q 1146 314 1226 218 
Q 1306 122 1619 96 
L 1619 0 
z
" transform="scale(0.015625)"/>
       <path id="STIXGeneral-Regular-6e" d="M 3104 0 
L 1773 0 
L 1779 96 
Q 2016 115 2096 233 
Q 2176 352 2176 672 
L 2176 1946 
Q 2176 2592 1709 2592 
Q 1549 2592 1408 2515 
Q 1267 2438 1050 2227 
L 1050 461 
Q 1050 269 1136 192 
Q 1222 115 1466 96 
L 1466 0 
L 115 0 
L 115 96 
Q 358 115 435 214 
Q 512 314 512 602 
L 512 2157 
Q 512 2394 467 2483 
Q 422 2573 288 2573 
Q 160 2573 102 2547 
L 102 2656 
Q 550 2784 979 2944 
L 1030 2925 
L 1030 2426 
L 1037 2426 
Q 1491 2944 1958 2944 
Q 2323 2944 2518 2688 
Q 2714 2432 2714 1958 
L 2714 544 
Q 2714 288 2790 205 
Q 2867 122 3104 96 
L 3104 0 
z
" transform="scale(0.015625)"/>
       <path id="STIXGeneral-Regular-67" d="M 3008 2483 
L 2477 2483 
Q 2598 2208 2598 1946 
Q 2598 1453 2265 1203 
Q 1933 954 1600 954 
Q 1530 954 1357 973 
L 1235 986 
Q 1107 947 979 812 
Q 851 678 851 582 
Q 851 435 1350 410 
L 2176 371 
Q 2528 358 2739 172 
Q 2950 -13 2950 -314 
Q 2950 -685 2566 -986 
Q 2035 -1395 1286 -1395 
Q 826 -1395 502 -1212 
Q 179 -1030 179 -774 
Q 179 -595 320 -419 
Q 461 -243 806 6 
Q 602 102 534 172 
Q 467 243 467 346 
Q 467 531 762 787 
Q 909 915 1037 1043 
Q 717 1203 579 1401 
Q 442 1600 442 1901 
Q 442 2336 752 2640 
Q 1062 2944 1510 2944 
Q 1766 2944 2022 2848 
L 2163 2797 
Q 2349 2733 2515 2733 
L 3008 2733 
L 3008 2483 
z
M 973 2163 
L 973 2144 
Q 973 1683 1155 1398 
Q 1338 1114 1632 1114 
Q 1850 1114 1978 1270 
Q 2106 1427 2106 1690 
Q 2106 2112 1914 2464 
Q 1754 2765 1446 2765 
Q 1222 2765 1097 2605 
Q 973 2445 973 2163 
z
M 2771 -410 
Q 2771 -230 2595 -163 
Q 2419 -96 1978 -96 
Q 1344 -96 941 -13 
Q 749 -243 688 -348 
Q 627 -454 627 -563 
Q 627 -774 880 -902 
Q 1133 -1030 1555 -1030 
Q 2099 -1030 2435 -860 
Q 2771 -691 2771 -410 
z
" transform="scale(0.015625)"/>
       <path id="STIXGeneral-Regular-20" transform="scale(0.015625)"/>
       <path id="STIXGeneral-Regular-45" d="M 3821 1082 
L 3526 0 
L 77 0 
L 77 122 
Q 442 147 538 252 
Q 634 358 634 730 
L 634 3520 
Q 634 3878 534 3987 
Q 435 4096 77 4115 
L 77 4237 
L 3469 4237 
L 3494 3322 
L 3334 3322 
Q 3264 3750 3085 3872 
Q 2906 3994 2349 3994 
L 1510 3994 
Q 1370 3994 1328 3952 
Q 1286 3910 1286 3763 
L 1286 2355 
L 2253 2355 
Q 2656 2355 2787 2470 
Q 2918 2586 2976 2970 
L 3123 2970 
L 3123 1472 
L 2976 1472 
Q 2918 1875 2790 1984 
Q 2662 2093 2253 2093 
L 1286 2093 
L 1286 538 
Q 1286 346 1420 291 
Q 1555 237 1933 237 
L 2163 237 
Q 2848 237 3136 403 
Q 3424 570 3642 1082 
L 3821 1082 
z
" transform="scale(0.015625)"/>
       <path id="STIXGeneral-Regular-76" d="M 3053 2880 
L 3053 2784 
Q 2906 2771 2835 2688 
Q 2765 2605 2637 2285 
L 1818 230 
Q 1690 -90 1638 -90 
Q 1587 -90 1523 77 
Q 1510 96 1497 141 
Q 1485 186 1472 211 
L 704 2048 
Q 499 2534 403 2652 
Q 307 2771 122 2784 
L 122 2880 
L 1376 2880 
L 1376 2784 
Q 1210 2771 1146 2732 
Q 1082 2694 1082 2611 
Q 1082 2509 1139 2368 
L 1792 730 
L 2426 2387 
Q 2464 2483 2464 2579 
Q 2464 2758 2163 2784 
L 2163 2880 
L 3053 2880 
z
" transform="scale(0.015625)"/>
       <path id="STIXGeneral-Regular-6f" d="M 3008 1478 
Q 3008 806 2608 371 
Q 2208 -64 1568 -64 
Q 979 -64 582 368 
Q 186 800 186 1459 
Q 186 2125 582 2534 
Q 979 2944 1626 2944 
Q 2221 2944 2614 2537 
Q 3008 2131 3008 1478 
z
M 2432 1306 
Q 2432 2035 2112 2445 
Q 1856 2765 1504 2765 
Q 1171 2765 966 2493 
Q 762 2221 762 1747 
Q 762 928 1101 435 
Q 1318 115 1677 115 
Q 2029 115 2230 432 
Q 2432 749 2432 1306 
z
" transform="scale(0.015625)"/>
       <path id="STIXGeneral-Regular-6d" d="M 4960 0 
L 3565 0 
L 3565 96 
Q 3834 122 3907 208 
Q 3981 294 3981 576 
L 3981 1894 
Q 3981 2278 3869 2444 
Q 3757 2611 3488 2611 
Q 3264 2611 3107 2521 
Q 2950 2432 2803 2221 
L 2803 608 
Q 2803 301 2896 201 
Q 2989 102 3264 96 
L 3264 0 
L 1830 0 
L 1830 96 
Q 2112 115 2189 188 
Q 2266 262 2266 550 
L 2266 1901 
Q 2266 2611 1850 2611 
Q 1670 2611 1468 2531 
Q 1267 2451 1171 2336 
Q 1088 2240 1088 2227 
L 1088 448 
Q 1088 243 1177 176 
Q 1267 109 1523 96 
L 1523 0 
L 102 0 
L 102 96 
Q 371 102 460 195 
Q 550 288 550 563 
L 550 2150 
Q 550 2387 499 2480 
Q 448 2573 326 2573 
Q 230 2573 122 2547 
L 122 2656 
Q 557 2778 1011 2944 
L 1062 2925 
L 1062 2451 
L 1075 2451 
Q 1363 2752 1584 2848 
Q 1805 2944 2054 2944 
Q 2560 2944 2733 2406 
Q 3232 2944 3776 2944 
Q 4518 2944 4518 1792 
L 4518 493 
Q 4518 282 4582 202 
Q 4646 122 4794 109 
L 4960 96 
L 4960 0 
z
" transform="scale(0.015625)"/>
       <path id="STIXGeneral-Regular-65" d="M 2611 1050 
L 2714 1005 
Q 2330 -64 1376 -64 
Q 813 -64 486 329 
Q 160 723 160 1389 
Q 160 2074 525 2509 
Q 890 2944 1485 2944 
Q 2061 2944 2374 2502 
Q 2560 2246 2592 1773 
L 621 1773 
Q 646 1370 700 1158 
Q 755 947 915 730 
Q 1184 378 1626 378 
Q 1939 378 2153 531 
Q 2368 685 2611 1050 
z
M 634 1978 
L 1939 1978 
Q 1882 2381 1750 2547 
Q 1619 2714 1312 2714 
Q 1043 2714 864 2525 
Q 685 2336 634 1978 
z
" transform="scale(0.015625)"/>
       <path id="STIXGeneral-Regular-74" d="M 1702 493 
L 1786 422 
Q 1478 -64 1011 -64 
Q 448 -64 448 749 
L 448 2675 
L 109 2675 
Q 83 2694 83 2720 
Q 83 2771 192 2842 
Q 435 2982 813 3526 
Q 826 3546 874 3606 
Q 922 3667 941 3706 
Q 986 3706 986 3622 
L 986 2880 
L 1632 2880 
L 1632 2675 
L 986 2675 
L 986 845 
Q 986 538 1062 403 
Q 1139 269 1318 269 
Q 1510 269 1702 493 
z
" transform="scale(0.015625)"/>
       <path id="STIXGeneral-Regular-53" d="M 3002 2963 
L 2842 2963 
Q 2733 3360 2579 3565 
Q 2189 4064 1651 4064 
Q 1357 4064 1181 3894 
Q 1005 3725 1005 3456 
Q 1005 3328 1069 3206 
Q 1133 3085 1206 2998 
Q 1280 2912 1465 2784 
Q 1651 2656 1766 2589 
Q 1882 2522 2150 2362 
Q 2669 2061 2905 1763 
Q 3142 1466 3142 1107 
Q 3142 576 2771 243 
Q 2400 -90 1837 -90 
Q 1421 -90 1082 58 
Q 915 128 781 128 
Q 704 128 653 70 
Q 602 13 602 -83 
L 461 -83 
L 275 1274 
L 416 1274 
Q 845 141 1734 141 
Q 2074 141 2285 342 
Q 2496 544 2496 858 
Q 2496 1158 2310 1363 
Q 2003 1696 1235 2106 
Q 454 2522 454 3206 
Q 454 3718 768 4022 
Q 1082 4326 1568 4326 
Q 1907 4326 2240 4186 
Q 2413 4109 2522 4109 
Q 2688 4109 2726 4326 
L 2861 4326 
L 3002 2963 
z
" transform="scale(0.015625)"/>
       <path id="STIXGeneral-Regular-70" d="M 1018 2931 
L 1018 2438 
Q 1421 2944 1939 2944 
Q 2406 2944 2707 2560 
Q 3008 2176 3008 1581 
Q 3008 883 2621 409 
Q 2234 -64 1664 -64 
Q 1466 -64 1328 -6 
Q 1190 51 1018 211 
L 1018 -794 
Q 1018 -1094 1120 -1180 
Q 1222 -1267 1581 -1274 
L 1581 -1389 
L 32 -1389 
L 32 -1280 
Q 314 -1254 397 -1171 
Q 480 -1088 480 -838 
L 480 2157 
Q 480 2381 429 2451 
Q 378 2522 218 2522 
Q 115 2522 58 2515 
L 58 2618 
Q 506 2752 979 2944 
L 1018 2931 
z
M 1018 2138 
L 1018 563 
Q 1018 422 1238 281 
Q 1459 141 1683 141 
Q 2029 141 2243 467 
Q 2458 794 2458 1325 
Q 2458 1888 2243 2224 
Q 2029 2560 1670 2560 
Q 1446 2560 1232 2419 
Q 1018 2278 1018 2138 
z
" transform="scale(0.015625)"/>
       <path id="STIXGeneral-Regular-73" d="M 998 1926 
L 1664 1523 
Q 1984 1331 2105 1164 
Q 2227 998 2227 736 
Q 2227 416 1961 176 
Q 1696 -64 1331 -64 
Q 1030 -64 864 -6 
Q 691 51 570 51 
Q 461 51 416 -26 
L 333 -26 
L 333 979 
L 435 979 
Q 538 512 730 294 
Q 922 77 1248 77 
Q 1485 77 1632 211 
Q 1779 346 1779 550 
Q 1779 845 1440 1030 
L 1094 1222 
Q 326 1651 326 2150 
Q 326 2522 566 2730 
Q 806 2938 1210 2938 
Q 1491 2938 1638 2867 
Q 1754 2816 1818 2816 
Q 1862 2816 1920 2880 
L 1990 2880 
L 2022 2010 
L 1926 2010 
Q 1818 2445 1654 2621 
Q 1491 2797 1203 2797 
Q 986 2797 854 2688 
Q 723 2579 723 2362 
Q 723 2253 796 2128 
Q 870 2003 998 1926 
z
" transform="scale(0.015625)"/>
      </defs>
      <use xlink:href="#STIXGeneral-Regular-54"/>
      <use xlink:href="#STIXGeneral-Regular-72" x="61.099991"/>
      <use xlink:href="#STIXGeneral-Regular-61" x="94.399979"/>
      <use xlink:href="#STIXGeneral-Regular-69" x="138.799973"/>
      <use xlink:href="#STIXGeneral-Regular-6e" x="166.59996"/>
      <use xlink:href="#STIXGeneral-Regular-69" x="216.599945"/>
      <use xlink:href="#STIXGeneral-Regular-6e" x="244.399933"/>
      <use xlink:href="#STIXGeneral-Regular-67" x="294.399918"/>
      <use xlink:href="#STIXGeneral-Regular-20" x="344.399902"/>
      <use xlink:href="#STIXGeneral-Regular-45" x="369.399887"/>
      <use xlink:href="#STIXGeneral-Regular-6e" x="430.499878"/>
      <use xlink:href="#STIXGeneral-Regular-76" x="480.499863"/>
      <use xlink:href="#STIXGeneral-Regular-69" x="530.499847"/>
      <use xlink:href="#STIXGeneral-Regular-72" x="558.299835"/>
      <use xlink:href="#STIXGeneral-Regular-6f" x="591.599823"/>
      <use xlink:href="#STIXGeneral-Regular-6e" x="641.599808"/>
      <use xlink:href="#STIXGeneral-Regular-6d" x="691.599792"/>
      <use xlink:href="#STIXGeneral-Regular-65" x="769.39978"/>
      <use xlink:href="#STIXGeneral-Regular-6e" x="813.799774"/>
      <use xlink:href="#STIXGeneral-Regular-74" x="863.799759"/>
      <use xlink:href="#STIXGeneral-Regular-20" x="891.599747"/>
      <use xlink:href="#STIXGeneral-Regular-53" x="916.599731"/>
      <use xlink:href="#STIXGeneral-Regular-74" x="972.199722"/>
      <use xlink:href="#STIXGeneral-Regular-65" x="999.99971"/>
      <use xlink:href="#STIXGeneral-Regular-70" x="1044.399704"/>
      <use xlink:href="#STIXGeneral-Regular-73" x="1094.399689"/>
     </g>
    </g>
    <g id="text_8">
     <!-- 1e8 -->
     <g transform="translate(477.306875 343.753562)scale(0.18 -0.18)">
      <defs>
       <path id="STIXGeneral-Regular-38" d="M 2848 992 
Q 2848 499 2505 204 
Q 2163 -90 1587 -90 
Q 1050 -90 704 204 
Q 358 499 358 954 
Q 358 1293 524 1533 
Q 691 1773 1190 2125 
Q 710 2522 553 2765 
Q 397 3008 397 3328 
Q 397 3782 745 4054 
Q 1094 4326 1638 4326 
Q 2106 4326 2410 4060 
Q 2714 3795 2714 3411 
Q 2714 3059 2531 2848 
Q 2349 2637 1856 2374 
Q 2432 1990 2640 1689 
Q 2848 1389 2848 992 
z
M 2272 3411 
Q 2272 3744 2086 3945 
Q 1901 4147 1574 4147 
Q 1248 4147 1059 3977 
Q 870 3808 870 3513 
Q 870 3219 1059 2979 
Q 1248 2739 1670 2490 
Q 1997 2682 2134 2896 
Q 2272 3110 2272 3411 
z
M 1734 1741 
L 1357 1997 
Q 1075 1766 960 1545 
Q 845 1325 845 1011 
Q 845 576 1065 333 
Q 1286 90 1658 90 
Q 1971 90 2166 285 
Q 2362 480 2362 794 
Q 2362 1082 2214 1299 
Q 2067 1517 1734 1741 
z
" transform="scale(0.015625)"/>
      </defs>
      <use xlink:href="#STIXGeneral-Regular-31"/>
      <use xlink:href="#STIXGeneral-Regular-65" x="49.999985"/>
      <use xlink:href="#STIXGeneral-Regular-38" x="94.399979"/>
     </g>
    </g>
   </g>
   <g id="matplotlib.axis_2">
    <g id="ytick_1">
     <g id="line2d_13">
      <path d="M 56.9 292.660125 
L 503.3 292.660125 
" clip-path="url(#pda08d0dbd6)" style="fill: none; stroke: #b0b0b0; stroke-width: 0.8; stroke-linecap: square"/>
     </g>
     <g id="line2d_14">
      <defs>
       <path id="m3ca28e9dca" d="M 0 0 
L -3.5 0 
" style="stroke: #000000; stroke-width: 0.8"/>
      </defs>
      <g>
       <use xlink:href="#m3ca28e9dca" x="56.9" y="292.660125" style="stroke: #000000; stroke-width: 0.8"/>
      </g>
     </g>
     <g id="text_9">
      <!-- 0.0 -->
      <g transform="translate(27.4 298.806844)scale(0.18 -0.18)">
       <defs>
        <path id="STIXGeneral-Regular-2e" d="M 1158 275 
Q 1158 134 1052 32 
Q 947 -70 800 -70 
Q 653 -70 550 32 
Q 448 134 448 281 
Q 448 429 553 534 
Q 659 640 806 640 
Q 947 640 1052 531 
Q 1158 422 1158 275 
z
" transform="scale(0.015625)"/>
       </defs>
       <use xlink:href="#STIXGeneral-Regular-30"/>
       <use xlink:href="#STIXGeneral-Regular-2e" x="49.999985"/>
       <use xlink:href="#STIXGeneral-Regular-30" x="74.999969"/>
      </g>
     </g>
    </g>
    <g id="ytick_2">
     <g id="line2d_15">
      <path d="M 56.9 226.437162 
L 503.3 226.437162 
" clip-path="url(#pda08d0dbd6)" style="fill: none; stroke: #b0b0b0; stroke-width: 0.8; stroke-linecap: square"/>
     </g>
     <g id="line2d_16">
      <g>
       <use xlink:href="#m3ca28e9dca" x="56.9" y="226.437162" style="stroke: #000000; stroke-width: 0.8"/>
      </g>
     </g>
     <g id="text_10">
      <!-- 0.1 -->
      <g transform="translate(27.4 232.583881)scale(0.18 -0.18)">
       <use xlink:href="#STIXGeneral-Regular-30"/>
       <use xlink:href="#STIXGeneral-Regular-2e" x="49.999985"/>
       <use xlink:href="#STIXGeneral-Regular-31" x="74.999969"/>
      </g>
     </g>
    </g>
    <g id="ytick_3">
     <g id="line2d_17">
      <path d="M 56.9 160.214199 
L 503.3 160.214199 
" clip-path="url(#pda08d0dbd6)" style="fill: none; stroke: #b0b0b0; stroke-width: 0.8; stroke-linecap: square"/>
     </g>
     <g id="line2d_18">
      <g>
       <use xlink:href="#m3ca28e9dca" x="56.9" y="160.214199" style="stroke: #000000; stroke-width: 0.8"/>
      </g>
     </g>
     <g id="text_11">
      <!-- 0.2 -->
      <g transform="translate(27.4 166.360918)scale(0.18 -0.18)">
       <use xlink:href="#STIXGeneral-Regular-30"/>
       <use xlink:href="#STIXGeneral-Regular-2e" x="49.999985"/>
       <use xlink:href="#STIXGeneral-Regular-32" x="74.999969"/>
      </g>
     </g>
    </g>
    <g id="ytick_4">
     <g id="line2d_19">
      <path d="M 56.9 93.991236 
L 503.3 93.991236 
" clip-path="url(#pda08d0dbd6)" style="fill: none; stroke: #b0b0b0; stroke-width: 0.8; stroke-linecap: square"/>
     </g>
     <g id="line2d_20">
      <g>
       <use xlink:href="#m3ca28e9dca" x="56.9" y="93.991236" style="stroke: #000000; stroke-width: 0.8"/>
      </g>
     </g>
     <g id="text_12">
      <!-- 0.3 -->
      <g transform="translate(27.4 100.137955)scale(0.18 -0.18)">
       <use xlink:href="#STIXGeneral-Regular-30"/>
       <use xlink:href="#STIXGeneral-Regular-2e" x="49.999985"/>
       <use xlink:href="#STIXGeneral-Regular-33" x="74.999969"/>
      </g>
     </g>
    </g>
    <g id="text_13">
     <!-- Success Rate -->
     <g transform="translate(19.493438 213.9045)rotate(-90)scale(0.18 -0.18)">
      <defs>
       <path id="STIXGeneral-Regular-75" d="M 3072 320 
L 3072 230 
Q 2573 96 2195 -58 
L 2163 -38 
L 2163 486 
L 2150 486 
Q 1747 -64 1235 -64 
Q 870 -64 662 160 
Q 454 384 454 755 
L 454 2362 
Q 454 2598 371 2688 
Q 288 2778 58 2790 
L 58 2880 
L 992 2880 
L 992 813 
Q 992 595 1123 451 
Q 1254 307 1446 307 
Q 1760 307 1984 506 
Q 2067 582 2099 649 
Q 2131 717 2131 877 
L 2131 2355 
Q 2131 2605 2041 2678 
Q 1952 2752 1658 2771 
L 1658 2880 
L 2669 2880 
L 2669 685 
Q 2669 461 2742 390 
Q 2816 320 3034 320 
L 3072 320 
z
" transform="scale(0.015625)"/>
       <path id="STIXGeneral-Regular-63" d="M 2547 998 
L 2637 941 
Q 2362 403 2112 205 
Q 1786 -64 1376 -64 
Q 845 -64 502 336 
Q 160 736 160 1357 
Q 160 2170 698 2618 
Q 1094 2944 1562 2944 
Q 1965 2944 2256 2749 
Q 2547 2554 2547 2285 
Q 2547 2176 2457 2096 
Q 2368 2016 2246 2016 
Q 2022 2016 1939 2310 
L 1901 2451 
Q 1850 2630 1773 2694 
Q 1696 2758 1523 2758 
Q 1133 2758 893 2451 
Q 653 2144 653 1645 
Q 653 1094 928 745 
Q 1203 397 1645 397 
Q 1920 397 2118 528 
Q 2317 659 2547 998 
z
" transform="scale(0.015625)"/>
       <path id="STIXGeneral-Regular-52" d="M 4224 0 
L 3187 0 
L 1664 1971 
L 1306 1958 
L 1306 717 
Q 1306 352 1405 249 
Q 1504 147 1875 122 
L 1875 0 
L 109 0 
L 109 122 
Q 474 154 563 262 
Q 653 371 653 794 
L 653 3526 
Q 653 3885 563 3987 
Q 474 4090 109 4115 
L 109 4237 
L 1850 4237 
Q 2726 4237 3187 3859 
Q 3501 3603 3501 3091 
Q 3501 2221 2342 2042 
L 3622 422 
Q 3757 256 3878 198 
Q 4000 141 4224 122 
L 4224 0 
z
M 1306 3731 
L 1306 2195 
Q 1766 2202 1990 2246 
Q 2214 2291 2438 2413 
Q 2803 2618 2803 3142 
Q 2803 4000 1632 4000 
Q 1459 4000 1382 3945 
Q 1306 3891 1306 3731 
z
" transform="scale(0.015625)"/>
      </defs>
      <use xlink:href="#STIXGeneral-Regular-53"/>
      <use xlink:href="#STIXGeneral-Regular-75" x="55.599991"/>
      <use xlink:href="#STIXGeneral-Regular-63" x="105.599976"/>
      <use xlink:href="#STIXGeneral-Regular-63" x="149.999969"/>
      <use xlink:href="#STIXGeneral-Regular-65" x="194.399963"/>
      <use xlink:href="#STIXGeneral-Regular-73" x="238.799957"/>
      <use xlink:href="#STIXGeneral-Regular-73" x="277.699951"/>
      <use xlink:href="#STIXGeneral-Regular-20" x="316.599945"/>
      <use xlink:href="#STIXGeneral-Regular-52" x="341.59993"/>
      <use xlink:href="#STIXGeneral-Regular-61" x="408.299927"/>
      <use xlink:href="#STIXGeneral-Regular-74" x="452.699921"/>
      <use xlink:href="#STIXGeneral-Regular-65" x="480.499908"/>
     </g>
    </g>
   </g>
   <g id="line2d_21">
    <path d="M 77.190909 292.660125 
L 483.009091 292.660125 
L 483.009091 292.660125 
" clip-path="url(#pda08d0dbd6)" style="fill: none; stroke: #1f77b4; stroke-width: 1.5; stroke-linecap: square"/>
   </g>
   <g id="line2d_22">
    <path d="M 77.190909 292.660125 
L 97.554545 292.660125 
L 99.009091 287.362288 
L 100.463636 289.481423 
L 101.918182 290.752904 
L 103.372727 291.515792 
L 104.827273 291.973525 
L 107.736364 292.412949 
L 112.1 292.606735 
L 122.281818 292.65863 
L 155.736364 292.660125 
L 157.190909 287.362288 
L 158.645455 289.481423 
L 160.1 290.752904 
L 161.554545 291.515792 
L 163.009091 291.973525 
L 165.918182 292.412949 
L 170.281818 292.606735 
L 180.463636 292.65863 
L 195.009091 292.660116 
L 196.463636 287.362283 
L 197.918182 289.48142 
L 199.372727 290.752902 
L 200.827273 286.217954 
L 202.281818 288.794822 
L 203.736364 290.340943 
L 205.190909 291.268616 
L 206.645455 291.82522 
L 208.1 292.159182 
L 211.009091 292.479785 
L 212.463636 292.551921 
L 213.918182 287.297366 
L 215.372727 289.44247 
L 216.827273 290.729532 
L 218.281818 291.501769 
L 219.736364 286.667274 
L 221.190909 289.064415 
L 222.645455 290.502699 
L 224.1 286.067832 
L 225.554545 288.704749 
L 227.009091 284.989063 
L 228.463636 288.057488 
L 229.918182 289.898543 
L 231.372727 291.003176 
L 232.827273 291.665955 
L 234.281818 292.063623 
L 237.190909 292.445384 
L 238.645455 292.531281 
L 240.1 287.284981 
L 241.554545 278.839365 
L 243.009091 284.367669 
L 244.463636 287.684651 
L 245.918182 289.674841 
L 247.372727 290.868955 
L 248.827273 291.585423 
L 250.281818 292.015304 
L 253.190909 292.427989 
L 257.554545 292.609984 
L 261.918182 292.649294 
L 263.372727 287.35579 
L 264.827273 289.477524 
L 266.281818 290.750564 
L 267.736364 291.514389 
L 269.190909 286.674846 
L 270.645455 289.068958 
L 272.1 290.505425 
L 273.554545 291.367305 
L 275.009091 291.884433 
L 276.463636 292.19471 
L 279.372727 292.492576 
L 283.736364 292.623934 
L 298.281818 292.659906 
L 305.554545 292.660108 
L 307.009091 287.362278 
L 308.463636 284.18358 
L 309.918182 287.574198 
L 311.372727 289.608569 
L 312.827273 285.531354 
L 314.281818 288.382863 
L 315.736364 290.093768 
L 317.190909 291.120311 
L 318.645455 291.736236 
L 320.1 292.105792 
L 323.009091 292.460565 
L 324.463636 287.242552 
L 325.918182 289.409581 
L 327.372727 285.411962 
L 328.827273 288.311227 
L 330.281818 290.050786 
L 331.736364 291.094522 
L 333.190909 291.720763 
L 334.645455 292.096508 
L 337.554545 292.457223 
L 341.918182 292.616298 
L 346.281818 292.650658 
L 347.736364 287.356608 
L 349.190909 289.478015 
L 350.645455 290.750859 
L 352.1 291.514565 
L 353.554545 291.972789 
L 355.009091 286.949887 
L 356.463636 289.233982 
L 357.918182 290.604439 
L 359.372727 286.128877 
L 360.827273 288.741376 
L 362.281818 285.011039 
L 363.736364 288.070673 
L 365.190909 289.906454 
L 366.645455 291.007922 
L 368.1 291.668803 
L 369.554545 292.065332 
L 372.463636 292.446 
L 376.827273 292.613874 
L 378.281818 287.334537 
L 379.736364 289.464772 
L 381.190909 290.742913 
L 382.645455 291.509798 
L 384.1 291.969929 
L 387.009091 292.411654 
L 391.372727 292.606455 
L 392.827273 292.627923 
L 394.281818 287.342967 
L 395.736364 289.46983 
L 397.190909 290.745948 
L 398.645455 291.511619 
L 400.1 291.971021 
L 403.009091 292.412048 
L 407.372727 292.60654 
L 408.827273 287.330137 
L 410.281818 289.462132 
L 411.736364 290.741329 
L 413.190909 291.508848 
L 414.645455 286.671522 
L 416.1 289.066963 
L 417.554545 290.504228 
L 419.009091 291.366587 
L 420.463636 291.884002 
L 421.918182 292.194451 
L 423.372727 287.082884 
L 424.827273 289.31378 
L 426.281818 290.652318 
L 427.736364 291.455441 
L 429.190909 291.937315 
L 430.645455 292.226439 
L 432.1 292.399913 
L 433.554545 287.206161 
L 435.009091 289.387747 
L 436.463636 285.398861 
L 437.918182 288.303367 
L 439.372727 290.04607 
L 440.827273 291.091692 
L 442.281818 291.719065 
L 443.736364 292.095489 
L 446.645455 292.456856 
L 451.009091 292.616219 
L 462.645455 292.659388 
L 480.1 292.660123 
L 481.554545 287.362287 
L 483.009091 289.481422 
L 483.009091 289.481422 
" clip-path="url(#pda08d0dbd6)" style="fill: none; stroke: #ff7f0e; stroke-width: 1.5; stroke-linecap: square"/>
   </g>
   <g id="line2d_23">
    <path d="M 77.190909 266.17094 
L 78.645455 271.468777 
L 80.1 279.945316 
L 81.554545 274.435566 
L 83.009091 271.129716 
L 84.463636 263.848369 
L 85.918182 270.075234 
L 87.372727 257.917843 
L 88.827273 261.219082 
L 90.281818 273.795499 
L 91.736364 270.745676 
L 93.190909 263.617945 
L 94.645455 264.639143 
L 96.1 254.656188 
L 97.554545 259.262089 
L 99.009091 262.02563 
L 100.463636 253.08808 
L 103.372727 252.984572 
L 104.827273 247.663445 
L 106.281818 255.066443 
L 107.736364 259.508242 
L 109.190909 251.577648 
L 110.645455 262.712802 
L 112.1 258.79822 
L 113.554545 261.747308 
L 115.009091 268.814598 
L 116.463636 273.054972 
L 117.918182 265.003522 
L 119.372727 260.172653 
L 120.827273 251.976294 
L 122.281818 257.654153 
L 123.736364 261.060868 
L 125.190909 252.509223 
L 126.645455 252.676073 
L 128.1 263.371857 
L 129.554545 264.49149 
L 131.009091 259.865433 
L 132.463636 262.387636 
L 133.918182 258.603121 
L 135.372727 261.630249 
L 136.827273 258.148689 
L 138.281818 250.761915 
L 139.736364 246.329852 
L 141.190909 248.96845 
L 142.645455 261.147283 
L 144.1 263.156746 
L 145.554545 259.064587 
L 147.009091 261.907128 
L 148.463636 263.612653 
L 149.918182 259.338131 
L 151.372727 251.475581 
L 152.827273 252.055888 
L 154.281818 252.404072 
L 155.736364 257.910819 
L 157.190909 261.214868 
L 158.645455 252.601623 
L 160.1 252.731513 
L 161.554545 258.107284 
L 163.009091 256.03491 
L 164.463636 260.089322 
L 165.918182 257.224132 
L 167.372727 260.802856 
L 168.827273 252.354416 
L 170.281818 263.178863 
L 171.736364 248.482182 
L 173.190909 260.855522 
L 174.645455 262.98169 
L 176.1 269.555227 
L 177.554545 257.605838 
L 179.009091 261.031879 
L 180.463636 252.49183 
L 181.918182 257.963474 
L 183.372727 266.544298 
L 184.827273 271.692792 
L 186.281818 274.781888 
L 187.736364 276.635346 
L 189.190909 277.747421 
L 190.645455 273.116829 
L 192.1 265.040636 
L 193.554545 270.790595 
L 195.009091 268.942733 
L 196.463636 257.238342 
L 197.918182 255.513545 
L 199.372727 265.07434 
L 200.827273 270.810817 
L 202.281818 258.359193 
L 203.736364 256.186055 
L 205.190909 265.477846 
L 206.645455 260.457247 
L 208.1 268.040561 
L 209.554545 272.59055 
L 211.009091 264.724869 
L 212.463636 270.601135 
L 213.918182 263.53122 
L 215.372727 264.587108 
L 216.827273 249.327129 
L 218.281818 250.766817 
L 219.736364 256.928466 
L 221.190909 255.327619 
L 222.645455 249.069274 
L 224.1 261.207777 
L 225.554545 268.490879 
L 227.009091 262.265067 
L 228.463636 274.42309 
L 229.918182 265.824393 
L 231.372727 271.260849 
L 232.827273 269.224886 
L 234.281818 268.003308 
L 235.736364 261.972524 
L 237.190909 258.354054 
L 238.645455 261.480808 
L 240.1 263.356861 
L 241.554545 264.482493 
L 243.009091 275.753546 
L 244.463636 271.920504 
L 245.918182 264.322841 
L 247.372727 265.062081 
L 248.827273 270.803462 
L 250.281818 263.652616 
L 251.736364 259.362109 
L 253.190909 262.085642 
L 254.645455 263.719761 
L 256.1 269.99807 
L 257.554545 273.765055 
L 259.009091 270.727409 
L 260.463636 274.202659 
L 261.918182 276.287808 
L 263.372727 277.538898 
L 264.827273 272.991715 
L 266.281818 275.561242 
L 267.736364 266.507285 
L 269.190909 261.07491 
L 270.645455 263.113322 
L 272.1 269.634206 
L 273.554545 273.546737 
L 275.009091 265.298581 
L 276.463636 265.647525 
L 277.918182 271.154728 
L 279.372727 269.161213 
L 280.827273 262.667267 
L 282.281818 269.366573 
L 283.736364 268.08832 
L 285.190909 262.023531 
L 286.645455 268.980332 
L 288.1 262.558738 
L 289.554545 269.301456 
L 291.009091 268.04925 
L 292.463636 272.595763 
L 293.918182 270.025834 
L 295.372727 263.18604 
L 296.827273 269.677837 
L 298.281818 268.275078 
L 299.736364 267.433423 
L 301.190909 256.332756 
L 302.645455 260.26803 
L 304.1 262.629194 
L 305.554545 269.34373 
L 307.009091 273.372451 
L 308.463636 265.19401 
L 309.918182 270.882619 
L 311.372727 274.295784 
L 312.827273 271.045847 
L 314.281818 263.798047 
L 315.736364 259.449368 
L 317.190909 267.435834 
L 318.645455 277.52555 
L 320.1 272.983706 
L 321.554545 275.556437 
L 323.009091 282.397912 
L 324.463636 275.907123 
L 325.918182 282.608324 
L 327.372727 270.735534 
L 328.827273 268.909696 
L 330.281818 267.814194 
L 331.736364 272.454729 
L 333.190909 269.941214 
L 334.645455 273.730941 
L 336.1 276.004778 
L 337.554545 266.773406 
L 339.009091 271.830257 
L 340.463636 274.864367 
L 341.918182 271.386996 
L 343.372727 258.7049 
L 344.827273 261.691316 
L 346.281818 268.781003 
L 347.736364 267.736978 
L 349.190909 267.110563 
L 350.645455 266.734714 
L 352.1 261.211368 
L 353.554545 257.89736 
L 355.009091 261.206792 
L 356.463636 268.490288 
L 357.918182 272.860386 
L 359.372727 264.886771 
L 360.827273 270.698276 
L 362.281818 268.887342 
L 363.736364 273.098618 
L 365.190909 265.02971 
L 366.645455 260.188365 
L 368.1 262.581395 
L 369.554545 269.31505 
L 371.009091 262.759569 
L 372.463636 258.826281 
L 373.918182 267.061982 
L 375.372727 266.705565 
L 378.281818 266.363405 
L 379.736364 271.584256 
L 381.190909 274.716767 
L 382.645455 276.596273 
L 384.1 267.128303 
L 385.554545 277.341032 
L 387.009091 272.872995 
L 388.463636 270.192173 
L 389.918182 263.285843 
L 391.372727 269.737719 
L 392.827273 268.311008 
L 394.281818 267.454981 
L 395.736364 266.941365 
L 397.190909 261.335358 
L 398.645455 263.269591 
L 400.1 264.430131 
L 401.554545 259.828618 
L 403.009091 267.663384 
L 404.463636 267.066406 
L 405.918182 256.112546 
L 407.372727 265.433741 
L 408.827273 271.026458 
L 410.281818 269.084251 
L 411.736364 262.62109 
L 413.190909 258.743193 
L 414.645455 267.012129 
L 416.1 266.675654 
L 417.554545 266.473768 
L 419.009091 261.0548 
L 420.463636 263.101256 
L 421.918182 264.32913 
L 423.372727 259.768017 
L 424.827273 262.329187 
L 426.281818 253.270214 
L 427.736364 258.430505 
L 429.190909 261.526679 
L 430.645455 258.086547 
L 432.1 261.320304 
L 433.554545 252.664885 
L 435.009091 247.471633 
L 436.463636 249.653519 
L 437.918182 261.558325 
L 439.372727 268.701208 
L 440.827273 272.986938 
L 442.281818 275.558376 
L 443.736364 271.803402 
L 445.190909 274.848254 
L 446.645455 260.781655 
L 448.1 273.533043 
L 449.554545 265.290365 
L 451.009091 265.642595 
L 452.463636 260.556096 
L 453.918182 257.504197 
L 455.372727 255.673057 
L 456.827273 259.872211 
L 458.281818 267.689539 
L 459.736364 267.0821 
L 461.190909 272.015473 
L 462.645455 274.975497 
L 464.1 271.453674 
L 465.554545 264.042744 
L 467.009091 264.894022 
L 468.463636 270.702627 
L 469.918182 274.187789 
L 471.372727 270.98105 
L 472.827273 263.759169 
L 474.281818 270.021714 
L 475.736364 273.779242 
L 477.190909 270.735921 
L 478.645455 268.909929 
L 480.1 267.814334 
L 481.554545 267.156976 
L 483.009091 272.060399 
L 483.009091 272.060399 
" clip-path="url(#pda08d0dbd6)" style="fill: none; stroke: #2ca02c; stroke-width: 1.5; stroke-linecap: square"/>
   </g>
   <g id="line2d_24">
    <path d="M 77.190909 252.926348 
L 78.645455 252.926348 
L 80.1 242.330673 
L 81.554545 246.568943 
L 83.009091 243.814068 
L 84.463636 252.756817 
L 85.918182 247.526793 
L 87.372727 244.388778 
L 88.827273 253.101643 
L 90.281818 247.733688 
L 91.736364 244.512915 
L 93.190909 237.282614 
L 94.645455 243.540107 
L 96.1 247.294604 
L 97.554545 244.249465 
L 99.009091 258.315892 
L 100.463636 256.160074 
L 101.918182 254.866584 
L 103.372727 248.792653 
L 104.827273 245.148294 
L 106.281818 248.259516 
L 107.736364 239.530574 
L 109.190909 244.888884 
L 110.645455 253.401706 
L 113.554545 253.097477 
L 115.009091 258.326862 
L 116.463636 250.86882 
L 117.918182 246.393994 
L 119.372727 243.709099 
L 120.827273 247.395999 
L 122.281818 254.905975 
L 123.736364 259.411961 
L 125.190909 256.817716 
L 126.645455 260.559006 
L 128.1 257.505943 
L 129.554545 255.674105 
L 131.009091 254.575002 
L 132.463636 259.213377 
L 133.918182 256.698566 
L 135.372727 255.189679 
L 136.827273 259.582183 
L 138.281818 262.217686 
L 139.736364 247.905476 
L 141.190909 244.615988 
L 142.645455 247.940132 
L 144.1 244.636782 
L 145.554545 247.952608 
L 147.009091 244.644267 
L 148.463636 237.361425 
L 149.918182 243.587394 
L 151.372727 242.025139 
L 152.827273 241.087786 
L 154.281818 240.525374 
L 155.736364 240.187927 
L 157.190909 250.581132 
L 158.645455 246.221382 
L 160.1 233.009857 
L 161.554545 240.976454 
L 163.009091 229.862901 
L 164.463636 228.492605 
L 165.918182 227.670427 
L 167.372727 232.474959 
L 168.827273 235.357678 
L 170.281818 231.789471 
L 171.736364 229.648547 
L 173.190909 212.470483 
L 174.645455 212.759318 
L 176.1 212.932619 
L 177.554545 207.738762 
L 179.009091 199.324612 
L 180.463636 215.46747 
L 181.918182 219.855346 
L 183.372727 217.190236 
L 184.827273 210.293332 
L 186.281818 211.453028 
L 187.736364 201.553171 
L 189.190909 211.506767 
L 190.645455 201.585415 
L 192.1 206.228278 
L 193.554545 214.311831 
L 195.009091 229.757638 
L 196.463636 223.131611 
L 197.918182 229.751669 
L 199.372727 228.425866 
L 200.827273 227.630384 
L 202.281818 211.259585 
L 203.736364 206.734942 
L 205.190909 204.020156 
L 206.645455 191.795608 
L 209.554545 219.26404 
L 211.009091 222.133288 
L 212.463636 213.259164 
L 218.281818 213.201202 
L 219.736364 207.899912 
L 221.190909 204.719138 
L 222.645455 213.406347 
L 224.1 218.618673 
L 225.554545 216.448232 
L 227.009091 209.84813 
L 228.463636 195.292393 
L 229.918182 197.154626 
L 231.372727 187.676291 
L 232.827273 213.776314 
L 234.281818 213.542817 
L 235.736364 208.104881 
L 237.190909 210.139957 
L 238.645455 211.361003 
L 240.1 212.09363 
L 241.554545 223.12888 
L 243.009091 219.154357 
L 244.463636 206.173969 
L 245.918182 187.79006 
L 247.372727 187.355391 
L 248.827273 202.988099 
L 250.281818 191.176374 
L 251.736364 173.493667 
L 253.190909 157.586207 
L 254.645455 169.233079 
L 256.1 170.923362 
L 257.554545 177.235372 
L 259.009091 186.320414 
L 260.463636 202.367113 
L 261.918182 180.208111 
L 263.372727 182.806221 
L 264.827273 189.662923 
L 266.281818 188.479109 
L 267.736364 193.066656 
L 269.190909 190.521348 
L 270.645455 210.185511 
L 272.1 206.090497 
L 273.554545 214.229163 
L 275.009091 208.516688 
L 276.463636 199.791368 
L 277.918182 199.854011 
L 279.372727 221.082946 
L 280.827273 207.331122 
L 282.281818 199.080028 
L 283.736364 199.427207 
L 285.190909 178.444167 
L 286.645455 176.450015 
L 288.1 185.8492 
L 289.554545 202.084384 
L 291.009091 211.825495 
L 292.463636 222.967999 
L 293.918182 197.866478 
L 295.372727 209.294752 
L 296.827273 205.556042 
L 298.281818 219.206327 
L 299.736364 222.098661 
L 301.190909 207.940551 
L 302.645455 204.743521 
L 304.1 208.123141 
L 305.554545 199.555239 
L 307.009091 183.818823 
L 308.463636 190.270484 
L 309.918182 199.439319 
L 312.827273 199.76486 
L 314.281818 189.242431 
L 315.736364 177.631137 
L 317.190909 191.855711 
L 318.645455 179.199105 
L 320.1 182.200818 
L 321.554545 184.001845 
L 323.009091 190.380298 
L 324.463636 183.611694 
L 325.918182 174.252695 
L 327.372727 179.232972 
L 328.827273 176.923298 
L 330.281818 159.643986 
L 331.736364 165.169906 
L 333.190909 152.591951 
L 334.645455 166.236525 
L 336.1 163.827594 
L 337.554545 167.680071 
L 339.009091 159.395886 
L 340.463636 154.425374 
L 341.918182 124.953884 
L 343.372727 133.760173 
L 344.827273 133.746111 
L 346.281818 128.439838 
L 347.736364 125.256074 
L 349.190909 128.643651 
L 350.645455 125.378362 
L 352.1 118.121348 
L 353.554545 119.06498 
L 355.009091 109.035479 
L 356.463636 118.911295 
L 357.918182 130.13462 
L 359.372727 110.379431 
L 360.827273 103.82415 
L 362.281818 110.486661 
L 363.736364 109.186328 
L 365.190909 92.512616 
L 366.645455 119.593249 
L 368.1 114.65028 
L 369.554545 116.982339 
L 371.009091 107.785895 
L 372.463636 102.268028 
L 373.918182 104.255148 
L 375.372727 116.043096 
L 376.827273 112.520189 
L 378.281818 121.00212 
L 379.736364 115.495603 
L 381.190909 133.383041 
L 382.645455 128.221996 
L 384.1 130.423204 
L 385.554545 137.041766 
L 387.009091 141.012902 
L 388.463636 122.204233 
L 389.918182 110.919031 
L 391.372727 104.14791 
L 392.827273 89.489565 
L 394.281818 107.183746 
L 395.736364 117.800255 
L 397.190909 108.276644 
L 398.645455 97.264646 
L 400.1 85.359607 
L 401.554545 88.812256 
L 403.009091 96.181685 
L 404.463636 100.603342 
L 405.918182 108.554176 
L 407.372727 97.431165 
L 408.827273 96.05519 
L 410.281818 95.229606 
L 411.736364 110.62777 
L 413.190909 103.973154 
L 414.645455 99.980383 
L 416.1 108.180401 
L 417.554545 107.802572 
L 419.009091 112.873714 
L 420.463636 115.9164 
L 421.918182 117.742011 
L 423.372727 108.241698 
L 424.827273 123.732862 
L 426.281818 122.431888 
L 427.736364 105.757792 
L 429.190909 106.349007 
L 430.645455 90.810223 
L 432.1 92.082625 
L 433.554545 92.846067 
L 435.009091 98.601971 
L 436.463636 96.757674 
L 437.918182 95.651096 
L 439.372727 94.987149 
L 440.827273 99.886621 
L 442.281818 86.932792 
L 443.736364 84.458334 
L 445.190909 67.080148 
L 446.645455 72.546748 
L 448.1 70.528869 
L 449.554545 64.020301 
L 451.009091 86.604352 
L 452.463636 89.559102 
L 453.918182 80.736281 
L 455.372727 54.251244 
L 456.827273 64.849406 
L 458.281818 50.016951 
L 459.736364 62.30883 
L 461.190909 48.492606 
L 462.645455 50.798543 
L 464.1 62.777785 
L 465.554545 48.773979 
L 467.009091 61.563047 
L 468.463636 63.938648 
L 469.918182 65.364008 
L 471.372727 55.623552 
L 472.827273 55.077111 
L 474.281818 54.749246 
L 475.736364 49.254695 
L 477.190909 40.660125 
L 478.645455 56.694734 
L 480.1 50.421988 
L 481.554545 57.254012 
L 483.009091 71.948899 
L 483.009091 71.948899 
" clip-path="url(#pda08d0dbd6)" style="fill: none; stroke: #d62728; stroke-width: 1.5; stroke-linecap: square"/>
   </g>
   <g id="line2d_25">
    <path d="M 77.190909 292.660125 
L 126.645455 292.660125 
L 128.1 287.362288 
L 129.554545 284.183586 
L 131.009091 287.574202 
L 132.463636 284.310734 
L 133.918182 287.65049 
L 135.372727 289.654344 
L 136.827273 285.55882 
L 138.281818 288.399342 
L 139.736364 290.103655 
L 141.190909 291.126243 
L 142.645455 286.441959 
L 144.1 288.929225 
L 145.554545 290.421585 
L 147.009091 291.317001 
L 148.463636 291.854251 
L 149.918182 292.1766 
L 151.372727 287.072173 
L 152.827273 289.307354 
L 154.281818 285.350625 
L 155.736364 288.274425 
L 157.190909 290.028705 
L 158.645455 291.081273 
L 160.1 286.414977 
L 161.554545 288.913036 
L 163.009091 285.114035 
L 164.463636 288.132471 
L 165.918182 289.943533 
L 167.372727 291.03017 
L 168.827273 291.682152 
L 170.281818 286.775504 
L 171.736364 289.129352 
L 173.190909 290.541661 
L 174.645455 286.09121 
L 176.1 288.718776 
L 177.554545 284.997479 
L 179.009091 288.062537 
L 180.463636 289.901572 
L 181.918182 291.004993 
L 183.372727 281.071372 
L 184.827273 280.409036 
L 186.281818 285.309472 
L 187.736364 288.249733 
L 189.190909 290.01389 
L 190.645455 291.072384 
L 192.1 291.70748 
L 193.554545 286.790701 
L 195.009091 278.542797 
L 196.463636 284.189728 
L 197.918182 287.577887 
L 199.372727 289.610782 
L 200.827273 290.830519 
L 202.281818 291.562362 
L 203.736364 286.70363 
L 205.190909 289.086228 
L 206.645455 285.21795 
L 208.1 288.19482 
L 209.554545 289.980942 
L 211.009091 291.052615 
L 212.463636 286.397782 
L 213.918182 288.902719 
L 215.372727 285.107845 
L 216.827273 282.83092 
L 218.281818 286.762602 
L 219.736364 289.121611 
L 221.190909 290.537017 
L 222.645455 291.38626 
L 224.1 286.597969 
L 225.554545 278.427158 
L 227.009091 284.120345 
L 228.463636 287.536257 
L 229.918182 284.287967 
L 231.372727 287.63683 
L 232.827273 289.646148 
L 234.281818 290.851739 
L 235.736364 291.575093 
L 237.190909 286.711269 
L 238.645455 289.090811 
L 240.1 290.518537 
L 241.554545 291.375172 
L 243.009091 286.591316 
L 244.463636 283.721003 
L 245.918182 287.296652 
L 247.372727 284.144204 
L 248.827273 287.550572 
L 250.281818 289.594393 
L 251.736364 290.820686 
L 253.190909 291.556462 
L 254.645455 291.997927 
L 257.554545 292.421734 
L 261.918182 292.608632 
L 264.827273 292.641588 
L 266.281818 287.351166 
L 267.736364 284.176913 
L 269.190909 287.570198 
L 270.645455 289.606169 
L 272.1 290.827751 
L 273.554545 291.560701 
L 275.009091 292.00047 
L 276.463636 286.966495 
L 277.918182 289.243947 
L 279.372727 290.610418 
L 280.827273 291.430301 
L 282.281818 291.922231 
L 283.736364 292.217388 
L 285.190909 287.096646 
L 286.645455 289.322038 
L 288.1 290.657273 
L 289.554545 291.458414 
L 291.009091 291.939098 
L 292.463636 286.929672 
L 293.918182 283.924016 
L 295.372727 282.120623 
L 296.827273 286.336424 
L 298.281818 288.865904 
L 299.736364 290.383593 
L 301.190909 285.996369 
L 302.645455 288.661871 
L 304.1 284.963336 
L 305.554545 277.446378 
L 307.009091 278.23404 
L 308.463636 273.4088 
L 309.918182 275.811493 
L 311.372727 282.550946 
L 312.827273 270.701107 
L 314.281818 263.591203 
L 315.736364 275.218772 
L 317.190909 282.195313 
L 318.645455 270.487727 
L 320.1 263.463176 
L 321.554545 264.546282 
L 323.009091 270.493982 
L 324.463636 268.764765 
L 325.918182 262.429398 
L 327.372727 263.926015 
L 328.827273 270.121822 
L 330.281818 279.137143 
L 331.736364 284.546336 
L 333.190909 287.791852 
L 334.645455 284.441324 
L 336.1 277.133171 
L 337.554545 283.343952 
L 339.009091 287.070421 
L 340.463636 284.008466 
L 341.918182 287.46913 
L 343.372727 284.247691 
L 344.827273 287.612664 
L 346.281818 289.631649 
L 347.736364 285.545202 
L 349.190909 288.391171 
L 350.645455 279.503079 
L 352.1 284.765897 
L 353.554545 287.923588 
L 355.009091 284.520366 
L 356.463636 287.77627 
L 357.918182 279.134138 
L 359.372727 284.544533 
L 360.827273 287.79077 
L 362.281818 284.440675 
L 363.736364 282.430618 
L 365.190909 281.224584 
L 366.645455 280.500963 
L 368.1 285.364628 
L 369.554545 288.282827 
L 371.009091 279.438072 
L 372.463636 268.833383 
L 373.918182 278.36408 
L 375.372727 278.784661 
L 376.827273 257.845661 
L 378.281818 266.47361 
L 379.736364 271.650379 
L 381.190909 269.458603 
L 382.645455 268.143538 
L 384.1 267.354499 
L 385.554545 261.583239 
L 387.009091 258.120482 
L 388.463636 266.638503 
L 389.918182 261.153641 
L 391.372727 263.160561 
L 392.827273 274.960386 
L 394.281818 271.444608 
L 395.736364 274.632978 
L 397.190909 276.546 
L 398.645455 277.693813 
L 400.1 283.680338 
L 401.554545 287.272253 
L 403.009091 284.129565 
L 404.463636 282.243952 
L 405.918182 286.410421 
L 407.372727 283.612466 
L 408.827273 281.933693 
L 410.281818 280.926429 
L 411.736364 275.024233 
L 413.190909 276.780753 
L 414.645455 272.536828 
L 416.1 269.990473 
L 417.554545 273.760497 
L 419.009091 270.724674 
L 420.463636 279.498855 
L 421.918182 284.763363 
L 423.372727 287.922068 
L 424.827273 289.817291 
L 426.281818 285.656587 
L 427.736364 288.458002 
L 429.190909 279.543178 
L 430.645455 284.789957 
L 432.1 277.34235 
L 433.554545 278.171623 
L 435.009091 283.967024 
L 436.463636 282.146427 
L 437.918182 286.351906 
L 439.372727 283.577357 
L 440.827273 276.61479 
L 442.281818 283.032924 
L 443.736364 276.288131 
L 445.190909 277.539092 
L 446.645455 278.289668 
L 448.1 278.740014 
L 449.554545 284.308058 
L 451.009091 282.351048 
L 452.463636 286.474679 
L 453.918182 288.948857 
L 455.372727 290.433364 
L 456.827273 280.728395 
L 458.281818 280.20325 
L 459.736364 279.888163 
L 462.645455 279.58568 
L 464.1 284.815458 
L 465.554545 277.357651 
L 467.009091 283.478641 
L 468.463636 287.151234 
L 469.918182 273.46128 
L 471.372727 275.842981 
L 472.827273 282.569839 
L 474.281818 286.605953 
L 475.736364 283.729785 
L 477.190909 287.301921 
L 478.645455 284.147366 
L 480.1 287.552469 
L 481.554545 289.595532 
L 483.009091 285.523532 
L 483.009091 285.523532 
" clip-path="url(#pda08d0dbd6)" style="fill: none; stroke: #9467bd; stroke-width: 1.5; stroke-linecap: square"/>
   </g>
   <g id="patch_3">
    <path d="M 56.9 305.260125 
L 56.9 28.060125 
" style="fill: none; stroke: #000000; stroke-width: 0.8; stroke-linejoin: miter; stroke-linecap: square"/>
   </g>
   <g id="patch_4">
    <path d="M 503.3 305.260125 
L 503.3 28.060125 
" style="fill: none; stroke: #000000; stroke-width: 0.8; stroke-linejoin: miter; stroke-linecap: square"/>
   </g>
   <g id="patch_5">
    <path d="M 56.9 305.260125 
L 503.3 305.260125 
" style="fill: none; stroke: #000000; stroke-width: 0.8; stroke-linejoin: miter; stroke-linecap: square"/>
   </g>
   <g id="patch_6">
    <path d="M 56.9 28.060125 
L 503.3 28.060125 
" style="fill: none; stroke: #000000; stroke-width: 0.8; stroke-linejoin: miter; stroke-linecap: square"/>
   </g>
   <g id="text_14">
    <!-- ML45 Meta Testing -->
    <g transform="translate(193.104313 22.060125)scale(0.216 -0.216)">
     <defs>
      <path id="STIXGeneral-Regular-4d" d="M 5530 0 
L 3738 0 
L 3738 122 
Q 4115 147 4214 265 
Q 4314 384 4314 787 
L 4314 3661 
L 2682 0 
L 2592 0 
L 979 3514 
L 979 966 
Q 979 448 1088 294 
Q 1197 141 1574 122 
L 1574 0 
L 77 0 
L 77 122 
Q 358 141 480 205 
Q 602 269 650 432 
Q 698 595 698 966 
L 698 3514 
Q 698 3878 589 3984 
Q 480 4090 90 4115 
L 90 4237 
L 1357 4237 
L 2835 1024 
L 4250 4237 
L 5523 4237 
L 5523 4115 
Q 5178 4109 5072 3993 
Q 4966 3878 4966 3520 
L 4966 717 
Q 4966 378 5072 262 
Q 5178 147 5530 122 
L 5530 0 
z
" transform="scale(0.015625)"/>
      <path id="STIXGeneral-Regular-4c" d="M 3827 1114 
L 3520 0 
L 77 0 
L 77 122 
Q 429 141 531 256 
Q 634 371 634 736 
L 634 3494 
Q 634 3872 541 3981 
Q 448 4090 77 4115 
L 77 4237 
L 1888 4237 
L 1888 4115 
Q 1498 4090 1392 3984 
Q 1286 3878 1286 3507 
L 1286 538 
Q 1286 358 1398 304 
Q 1510 250 1862 250 
L 2310 250 
Q 3085 250 3392 640 
Q 3520 813 3661 1114 
L 3827 1114 
z
" transform="scale(0.015625)"/>
     </defs>
     <use xlink:href="#STIXGeneral-Regular-4d"/>
     <use xlink:href="#STIXGeneral-Regular-4c" x="88.899994"/>
     <use xlink:href="#STIXGeneral-Regular-34" x="149.999985"/>
     <use xlink:href="#STIXGeneral-Regular-35" x="199.999969"/>
     <use xlink:href="#STIXGeneral-Regular-20" x="249.999954"/>
     <use xlink:href="#STIXGeneral-Regular-4d" x="274.999939"/>
     <use xlink:href="#STIXGeneral-Regular-65" x="363.899933"/>
     <use xlink:href="#STIXGeneral-Regular-74" x="408.299927"/>
     <use xlink:href="#STIXGeneral-Regular-61" x="436.099915"/>
     <use xlink:href="#STIXGeneral-Regular-20" x="480.499908"/>
     <use xlink:href="#STIXGeneral-Regular-54" x="505.499893"/>
     <use xlink:href="#STIXGeneral-Regular-65" x="566.599884"/>
     <use xlink:href="#STIXGeneral-Regular-73" x="610.999878"/>
     <use xlink:href="#STIXGeneral-Regular-74" x="649.899872"/>
     <use xlink:href="#STIXGeneral-Regular-69" x="677.69986"/>
     <use xlink:href="#STIXGeneral-Regular-6e" x="705.499847"/>
     <use xlink:href="#STIXGeneral-Regular-67" x="755.499832"/>
    </g>
   </g>
   <g id="legend_1">
    <g id="patch_7">
     <path d="M 62.5 107.87325 
L 170.593125 107.87325 
Q 173.393125 107.87325 173.393125 105.07325 
L 173.393125 33.660125 
Q 173.393125 30.860125 170.593125 30.860125 
L 62.5 30.860125 
Q 59.7 30.860125 59.7 33.660125 
L 59.7 105.07325 
Q 59.7 107.87325 62.5 107.87325 
z
" style="fill: #ffffff; opacity: 0.8; stroke: #cccccc; stroke-linejoin: miter"/>
    </g>
    <g id="line2d_26">
     <path d="M 63.9 40.771687 
L 70.9 40.771687 
L 77.9 40.771687 
" style="fill: none; stroke: #1f77b4; stroke-width: 1.5; stroke-linecap: square"/>
    </g>
    <g id="text_15">
     <!-- bin-picking-v2 -->
     <g transform="translate(82.1 44.621687)scale(0.14 -0.14)">
      <defs>
       <path id="STIXGeneral-Regular-62" d="M 979 4358 
L 979 2406 
Q 1082 2650 1315 2797 
Q 1549 2944 1843 2944 
Q 2349 2944 2672 2541 
Q 2995 2138 2995 1536 
Q 2995 832 2566 384 
Q 2138 -64 1498 -64 
Q 1107 -64 774 67 
Q 442 198 442 358 
L 442 3622 
Q 442 3859 384 3926 
Q 326 3994 128 3994 
Q 83 3994 19 3981 
L 19 4090 
L 211 4147 
Q 864 4346 947 4371 
L 979 4358 
z
M 979 2035 
L 979 474 
Q 979 326 1161 233 
Q 1344 141 1600 141 
Q 1978 141 2195 416 
Q 2432 710 2432 1261 
Q 2432 1888 2182 2240 
Q 1971 2541 1613 2541 
Q 1357 2541 1168 2390 
Q 979 2240 979 2035 
z
" transform="scale(0.015625)"/>
       <path id="STIXGeneral-Regular-2d" d="M 1824 1242 
L 250 1242 
L 250 1645 
L 1824 1645 
L 1824 1242 
z
" transform="scale(0.015625)"/>
       <path id="STIXGeneral-Regular-6b" d="M 3232 0 
L 1837 0 
L 1837 96 
L 1958 96 
Q 2093 96 2093 192 
Q 2093 250 2022 339 
L 1062 1606 
L 1062 429 
Q 1062 262 1142 185 
Q 1222 109 1414 102 
L 1542 96 
L 1542 0 
L 45 0 
L 45 96 
Q 390 154 457 214 
Q 525 275 525 525 
L 525 3610 
Q 525 3840 467 3920 
Q 410 4000 250 4000 
Q 211 4000 45 3987 
L 45 4090 
L 237 4141 
Q 621 4243 1037 4371 
L 1062 4358 
L 1062 1670 
L 1939 2451 
Q 2086 2586 2086 2675 
Q 2086 2739 2019 2761 
Q 1952 2784 1766 2790 
L 1766 2880 
L 3072 2880 
L 3072 2784 
Q 2752 2784 2505 2646 
Q 2259 2509 1690 1978 
L 1504 1805 
L 2483 563 
Q 2829 122 3232 96 
L 3232 0 
z
" transform="scale(0.015625)"/>
      </defs>
      <use xlink:href="#STIXGeneral-Regular-62"/>
      <use xlink:href="#STIXGeneral-Regular-69" x="49.999985"/>
      <use xlink:href="#STIXGeneral-Regular-6e" x="77.799973"/>
      <use xlink:href="#STIXGeneral-Regular-2d" x="127.799957"/>
      <use xlink:href="#STIXGeneral-Regular-70" x="161.099945"/>
      <use xlink:href="#STIXGeneral-Regular-69" x="211.09993"/>
      <use xlink:href="#STIXGeneral-Regular-63" x="238.899918"/>
      <use xlink:href="#STIXGeneral-Regular-6b" x="283.299911"/>
      <use xlink:href="#STIXGeneral-Regular-69" x="333.299896"/>
      <use xlink:href="#STIXGeneral-Regular-6e" x="361.099884"/>
      <use xlink:href="#STIXGeneral-Regular-67" x="411.099869"/>
      <use xlink:href="#STIXGeneral-Regular-2d" x="461.099854"/>
      <use xlink:href="#STIXGeneral-Regular-76" x="494.399841"/>
      <use xlink:href="#STIXGeneral-Regular-32" x="544.399826"/>
     </g>
    </g>
    <g id="line2d_27">
     <path d="M 63.9 54.784812 
L 70.9 54.784812 
L 77.9 54.784812 
" style="fill: none; stroke: #ff7f0e; stroke-width: 1.5; stroke-linecap: square"/>
    </g>
    <g id="text_16">
     <!-- box-close-v2 -->
     <g transform="translate(82.1 58.634812)scale(0.14 -0.14)">
      <defs>
       <path id="STIXGeneral-Regular-78" d="M 3066 0 
L 1779 0 
L 1779 96 
Q 1939 109 1987 137 
Q 2035 166 2035 250 
Q 2035 307 1997 365 
L 1414 1261 
L 909 474 
Q 781 275 781 211 
Q 781 96 1037 96 
L 1037 0 
L 109 0 
L 109 96 
Q 269 109 355 169 
Q 442 230 576 422 
L 1306 1478 
L 704 2400 
Q 557 2624 454 2704 
Q 352 2784 211 2784 
L 154 2784 
L 154 2880 
L 1478 2880 
L 1478 2784 
Q 1203 2778 1203 2643 
Q 1203 2509 1498 2074 
Q 1581 1958 1587 1946 
Q 1619 1990 1779 2227 
Q 1811 2285 1856 2349 
Q 1901 2413 1923 2451 
Q 1946 2490 1971 2528 
Q 1997 2566 2006 2595 
Q 2016 2624 2016 2643 
Q 2016 2765 1760 2784 
L 1760 2880 
L 2771 2880 
L 2771 2784 
Q 2445 2771 2253 2502 
L 1722 1734 
L 2541 480 
Q 2790 96 3066 96 
L 3066 0 
z
" transform="scale(0.015625)"/>
       <path id="STIXGeneral-Regular-6c" d="M 1645 0 
L 134 0 
L 134 96 
Q 435 122 531 221 
Q 627 320 627 589 
L 627 3590 
Q 627 3821 569 3910 
Q 512 4000 358 4000 
Q 224 4000 122 3987 
L 122 4090 
Q 730 4237 1133 4371 
L 1165 4346 
L 1165 557 
Q 1165 288 1254 201 
Q 1344 115 1645 96 
L 1645 0 
z
" transform="scale(0.015625)"/>
      </defs>
      <use xlink:href="#STIXGeneral-Regular-62"/>
      <use xlink:href="#STIXGeneral-Regular-6f" x="49.999985"/>
      <use xlink:href="#STIXGeneral-Regular-78" x="99.999969"/>
      <use xlink:href="#STIXGeneral-Regular-2d" x="149.999954"/>
      <use xlink:href="#STIXGeneral-Regular-63" x="183.299942"/>
      <use xlink:href="#STIXGeneral-Regular-6c" x="227.699936"/>
      <use xlink:href="#STIXGeneral-Regular-6f" x="255.499924"/>
      <use xlink:href="#STIXGeneral-Regular-73" x="305.499908"/>
      <use xlink:href="#STIXGeneral-Regular-65" x="344.399902"/>
      <use xlink:href="#STIXGeneral-Regular-2d" x="388.799896"/>
      <use xlink:href="#STIXGeneral-Regular-76" x="422.099884"/>
      <use xlink:href="#STIXGeneral-Regular-32" x="472.099869"/>
     </g>
    </g>
    <g id="line2d_28">
     <path d="M 63.9 68.784812 
L 70.9 68.784812 
L 77.9 68.784812 
" style="fill: none; stroke: #2ca02c; stroke-width: 1.5; stroke-linecap: square"/>
    </g>
    <g id="text_17">
     <!-- hand-insert-v2 -->
     <g transform="translate(82.1 72.634812)scale(0.14 -0.14)">
      <defs>
       <path id="STIXGeneral-Regular-68" d="M 3117 0 
L 1760 0 
L 1760 96 
Q 2042 128 2118 224 
Q 2195 320 2195 653 
L 2195 1920 
Q 2195 2598 1722 2598 
Q 1530 2598 1370 2508 
Q 1210 2419 1005 2195 
L 1005 653 
Q 1005 320 1081 224 
Q 1158 128 1440 96 
L 1440 0 
L 58 0 
L 58 96 
Q 333 134 400 224 
Q 467 314 467 653 
L 467 3667 
Q 467 3872 406 3933 
Q 346 3994 141 3994 
Q 83 3994 64 3987 
L 64 4090 
L 237 4141 
Q 730 4288 973 4371 
L 1005 4352 
L 1005 2406 
Q 1229 2694 1446 2819 
Q 1664 2944 1946 2944 
Q 2733 2944 2733 1926 
L 2733 653 
Q 2733 320 2793 233 
Q 2854 147 3117 96 
L 3117 0 
z
" transform="scale(0.015625)"/>
       <path id="STIXGeneral-Regular-64" d="M 3142 269 
L 2202 -64 
L 2176 -45 
L 2176 365 
Q 1869 -64 1357 -64 
Q 826 -64 499 317 
Q 173 698 173 1312 
Q 173 1990 563 2467 
Q 954 2944 1504 2944 
Q 1850 2944 2176 2669 
L 2176 3667 
Q 2176 3866 2118 3930 
Q 2061 3994 1882 3994 
Q 1792 3994 1741 3987 
L 1741 4090 
Q 2323 4243 2682 4371 
L 2714 4358 
L 2714 730 
Q 2714 506 2768 435 
Q 2822 365 2995 365 
Q 3034 365 3142 371 
L 3142 269 
z
M 2176 653 
L 2176 2125 
Q 2176 2381 1981 2573 
Q 1786 2765 1523 2765 
Q 1158 2765 940 2438 
Q 723 2112 723 1568 
Q 723 979 963 624 
Q 1203 269 1606 269 
Q 1907 269 2080 474 
Q 2176 582 2176 653 
z
" transform="scale(0.015625)"/>
      </defs>
      <use xlink:href="#STIXGeneral-Regular-68"/>
      <use xlink:href="#STIXGeneral-Regular-61" x="49.999985"/>
      <use xlink:href="#STIXGeneral-Regular-6e" x="94.399979"/>
      <use xlink:href="#STIXGeneral-Regular-64" x="144.399963"/>
      <use xlink:href="#STIXGeneral-Regular-2d" x="194.399948"/>
      <use xlink:href="#STIXGeneral-Regular-69" x="227.699936"/>
      <use xlink:href="#STIXGeneral-Regular-6e" x="255.499924"/>
      <use xlink:href="#STIXGeneral-Regular-73" x="305.499908"/>
      <use xlink:href="#STIXGeneral-Regular-65" x="344.399902"/>
      <use xlink:href="#STIXGeneral-Regular-72" x="388.799896"/>
      <use xlink:href="#STIXGeneral-Regular-74" x="422.099884"/>
      <use xlink:href="#STIXGeneral-Regular-2d" x="449.899872"/>
      <use xlink:href="#STIXGeneral-Regular-76" x="483.19986"/>
      <use xlink:href="#STIXGeneral-Regular-32" x="533.199844"/>
     </g>
    </g>
    <g id="line2d_29">
     <path d="M 63.9 82.784812 
L 70.9 82.784812 
L 77.9 82.784812 
" style="fill: none; stroke: #d62728; stroke-width: 1.5; stroke-linecap: square"/>
    </g>
    <g id="text_18">
     <!-- door-lock-v2 -->
     <g transform="translate(82.1 86.634812)scale(0.14 -0.14)">
      <use xlink:href="#STIXGeneral-Regular-64"/>
      <use xlink:href="#STIXGeneral-Regular-6f" x="49.999985"/>
      <use xlink:href="#STIXGeneral-Regular-6f" x="99.999969"/>
      <use xlink:href="#STIXGeneral-Regular-72" x="149.999954"/>
      <use xlink:href="#STIXGeneral-Regular-2d" x="183.299942"/>
      <use xlink:href="#STIXGeneral-Regular-6c" x="216.59993"/>
      <use xlink:href="#STIXGeneral-Regular-6f" x="244.399918"/>
      <use xlink:href="#STIXGeneral-Regular-63" x="294.399902"/>
      <use xlink:href="#STIXGeneral-Regular-6b" x="338.799896"/>
      <use xlink:href="#STIXGeneral-Regular-2d" x="388.799881"/>
      <use xlink:href="#STIXGeneral-Regular-76" x="422.099869"/>
      <use xlink:href="#STIXGeneral-Regular-32" x="472.099854"/>
     </g>
    </g>
    <g id="line2d_30">
     <path d="M 63.9 96.784812 
L 70.9 96.784812 
L 77.9 96.784812 
" style="fill: none; stroke: #9467bd; stroke-width: 1.5; stroke-linecap: square"/>
    </g>
    <g id="text_19">
     <!-- door-unlock-v2 -->
     <g transform="translate(82.1 100.634812)scale(0.14 -0.14)">
      <use xlink:href="#STIXGeneral-Regular-64"/>
      <use xlink:href="#STIXGeneral-Regular-6f" x="49.999985"/>
      <use xlink:href="#STIXGeneral-Regular-6f" x="99.999969"/>
      <use xlink:href="#STIXGeneral-Regular-72" x="149.999954"/>
      <use xlink:href="#STIXGeneral-Regular-2d" x="183.299942"/>
      <use xlink:href="#STIXGeneral-Regular-75" x="216.59993"/>
      <use xlink:href="#STIXGeneral-Regular-6e" x="266.599915"/>
      <use xlink:href="#STIXGeneral-Regular-6c" x="316.599899"/>
      <use xlink:href="#STIXGeneral-Regular-6f" x="344.399887"/>
      <use xlink:href="#STIXGeneral-Regular-63" x="394.399872"/>
      <use xlink:href="#STIXGeneral-Regular-6b" x="438.799866"/>
      <use xlink:href="#STIXGeneral-Regular-2d" x="488.79985"/>
      <use xlink:href="#STIXGeneral-Regular-76" x="522.099838"/>
      <use xlink:href="#STIXGeneral-Regular-32" x="572.099823"/>
     </g>
    </g>
   </g>
  </g>
 </g>
 <defs>
  <clipPath id="pda08d0dbd6">
   <rect x="56.9" y="28.060125" width="446.4" height="277.2"/>
  </clipPath>
 </defs>
</svg>
