<?xml version="1.0" encoding="utf-8" standalone="no"?>
<!DOCTYPE svg PUBLIC "-//W3C//DTD SVG 1.1//EN"
  "http://www.w3.org/Graphics/SVG/1.1/DTD/svg11.dtd">
<svg xmlns:xlink="http://www.w3.org/1999/xlink" width="524pt" height="355.877pt" viewBox="0 0 524 355.877" xmlns="http://www.w3.org/2000/svg" version="1.1">
 <metadata>
  <rdf:RDF xmlns:dc="http://purl.org/dc/elements/1.1/" xmlns:cc="http://creativecommons.org/ns#" xmlns:rdf="http://www.w3.org/1999/02/22-rdf-syntax-ns#">
   <cc:Work>
    <dc:type rdf:resource="http://purl.org/dc/dcmitype/StillImage"/>
    <dc:date>2021-12-11T15:57:30.879903</dc:date>
    <dc:format>image/svg+xml</dc:format>
    <dc:creator>
     <cc:Agent>
      <dc:title>Matplotlib v3.5.0, https://matplotlib.org/</dc:title>
     </cc:Agent>
    </dc:creator>
   </cc:Work>
  </rdf:RDF>
 </metadata>
 <defs>
  <style type="text/css">*{stroke-linejoin: round; stroke-linecap: butt}</style>
 </defs>
 <g id="figure_1">
  <g id="patch_1">
   <path d="M 0 355.877 
L 524 355.877 
L 524 0 
L 0 0 
z
" style="fill: #ffffff"/>
  </g>
  <g id="axes_1">
   <g id="patch_2">
    <path d="M 70.4 305.260125 
L 516.8 305.260125 
L 516.8 28.060125 
L 70.4 28.060125 
z
" style="fill: #ffffff"/>
   </g>
   <g id="matplotlib.axis_1">
    <g id="xtick_1">
     <g id="line2d_1">
      <path d="M 88.941693 305.260125 
L 88.941693 28.060125 
" clip-path="url(#p775340f2ad)" style="fill: none; stroke: #b0b0b0; stroke-width: 0.8; stroke-linecap: square"/>
     </g>
     <g id="line2d_2">
      <defs>
       <path id="mf657e28ab3" d="M 0 0 
L 0 3.5 
" style="stroke: #000000; stroke-width: 0.8"/>
      </defs>
      <g>
       <use xlink:href="#mf657e28ab3" x="88.941693" y="305.260125" style="stroke: #000000; stroke-width: 0.8"/>
      </g>
     </g>
     <g id="text_1">
      <!-- 0 -->
      <g transform="translate(84.441693 324.553562)scale(0.18 -0.18)">
       <defs>
        <path id="STIXGeneral-Regular-30" d="M 3046 2112 
Q 3046 1683 2963 1302 
Q 2880 922 2717 602 
Q 2554 282 2266 96 
Q 1978 -90 1600 -90 
Q 1210 -90 915 108 
Q 621 307 461 640 
Q 301 973 227 1350 
Q 154 1728 154 2150 
Q 154 2746 301 3222 
Q 448 3699 790 4012 
Q 1133 4326 1626 4326 
Q 2253 4326 2649 3712 
Q 3046 3098 3046 2112 
z
M 2432 2080 
Q 2432 3091 2217 3625 
Q 2003 4160 1587 4160 
Q 1190 4160 979 3622 
Q 768 3085 768 2106 
Q 768 1120 979 598 
Q 1190 77 1600 77 
Q 2003 77 2217 598 
Q 2432 1120 2432 2080 
z
" transform="scale(0.015625)"/>
       </defs>
       <use xlink:href="#STIXGeneral-Regular-30"/>
      </g>
     </g>
    </g>
    <g id="xtick_2">
     <g id="line2d_3">
      <path d="M 175.322745 305.260125 
L 175.322745 28.060125 
" clip-path="url(#p775340f2ad)" style="fill: none; stroke: #b0b0b0; stroke-width: 0.8; stroke-linecap: square"/>
     </g>
     <g id="line2d_4">
      <g>
       <use xlink:href="#mf657e28ab3" x="175.322745" y="305.260125" style="stroke: #000000; stroke-width: 0.8"/>
      </g>
     </g>
     <g id="text_2">
      <!-- 1 -->
      <g transform="translate(170.822745 324.553562)scale(0.18 -0.18)">
       <defs>
        <path id="STIXGeneral-Regular-31" d="M 2522 0 
L 755 0 
L 755 96 
Q 1107 115 1235 227 
Q 1363 339 1363 608 
L 1363 3482 
Q 1363 3795 1171 3795 
Q 1082 3795 883 3718 
L 710 3654 
L 710 3744 
L 1856 4326 
L 1914 4307 
L 1914 486 
Q 1914 275 2042 185 
Q 2170 96 2522 96 
L 2522 0 
z
" transform="scale(0.015625)"/>
       </defs>
       <use xlink:href="#STIXGeneral-Regular-31"/>
      </g>
     </g>
    </g>
    <g id="xtick_3">
     <g id="line2d_5">
      <path d="M 261.703797 305.260125 
L 261.703797 28.060125 
" clip-path="url(#p775340f2ad)" style="fill: none; stroke: #b0b0b0; stroke-width: 0.8; stroke-linecap: square"/>
     </g>
     <g id="line2d_6">
      <g>
       <use xlink:href="#mf657e28ab3" x="261.703797" y="305.260125" style="stroke: #000000; stroke-width: 0.8"/>
      </g>
     </g>
     <g id="text_3">
      <!-- 2 -->
      <g transform="translate(257.203797 324.553562)scale(0.18 -0.18)">
       <defs>
        <path id="STIXGeneral-Regular-32" d="M 3034 877 
L 2688 0 
L 186 0 
L 186 77 
L 1325 1286 
Q 1773 1754 1965 2144 
Q 2157 2534 2157 2950 
Q 2157 3379 1920 3616 
Q 1683 3853 1267 3853 
Q 922 3853 720 3673 
Q 518 3494 326 3021 
L 192 3053 
Q 301 3648 630 3987 
Q 960 4326 1523 4326 
Q 2054 4326 2380 4006 
Q 2707 3686 2707 3200 
Q 2707 2477 1888 1613 
L 832 486 
L 2330 486 
Q 2541 486 2665 569 
Q 2790 653 2944 915 
L 3034 877 
z
" transform="scale(0.015625)"/>
       </defs>
       <use xlink:href="#STIXGeneral-Regular-32"/>
      </g>
     </g>
    </g>
    <g id="xtick_4">
     <g id="line2d_7">
      <path d="M 348.084848 305.260125 
L 348.084848 28.060125 
" clip-path="url(#p775340f2ad)" style="fill: none; stroke: #b0b0b0; stroke-width: 0.8; stroke-linecap: square"/>
     </g>
     <g id="line2d_8">
      <g>
       <use xlink:href="#mf657e28ab3" x="348.084848" y="305.260125" style="stroke: #000000; stroke-width: 0.8"/>
      </g>
     </g>
     <g id="text_4">
      <!-- 3 -->
      <g transform="translate(343.584848 324.553562)scale(0.18 -0.18)">
       <defs>
        <path id="STIXGeneral-Regular-33" d="M 390 3264 
L 288 3290 
Q 435 3770 748 4048 
Q 1062 4326 1542 4326 
Q 1990 4326 2265 4083 
Q 2541 3840 2541 3450 
Q 2541 2925 1946 2566 
Q 2298 2413 2477 2227 
Q 2758 1914 2758 1402 
Q 2758 890 2464 506 
Q 2246 211 1840 60 
Q 1434 -90 979 -90 
Q 262 -90 262 275 
Q 262 378 339 442 
Q 416 506 525 506 
Q 685 506 915 339 
Q 1197 141 1466 141 
Q 1818 141 2058 425 
Q 2298 710 2298 1120 
Q 2298 1856 1632 2048 
Q 1434 2112 979 2112 
L 979 2202 
Q 1338 2323 1517 2432 
Q 2035 2726 2035 3290 
Q 2035 3610 1852 3776 
Q 1670 3942 1344 3942 
Q 768 3942 390 3264 
z
" transform="scale(0.015625)"/>
       </defs>
       <use xlink:href="#STIXGeneral-Regular-33"/>
      </g>
     </g>
    </g>
    <g id="xtick_5">
     <g id="line2d_9">
      <path d="M 434.4659 305.260125 
L 434.4659 28.060125 
" clip-path="url(#p775340f2ad)" style="fill: none; stroke: #b0b0b0; stroke-width: 0.8; stroke-linecap: square"/>
     </g>
     <g id="line2d_10">
      <g>
       <use xlink:href="#mf657e28ab3" x="434.4659" y="305.260125" style="stroke: #000000; stroke-width: 0.8"/>
      </g>
     </g>
     <g id="text_5">
      <!-- 4 -->
      <g transform="translate(429.9659 324.553562)scale(0.18 -0.18)">
       <defs>
        <path id="STIXGeneral-Regular-34" d="M 3027 1069 
L 2368 1069 
L 2368 0 
L 1869 0 
L 1869 1069 
L 77 1069 
L 77 1478 
L 2086 4326 
L 2368 4326 
L 2368 1478 
L 3027 1478 
L 3027 1069 
z
M 1869 1478 
L 1869 3674 
L 333 1478 
L 1869 1478 
z
" transform="scale(0.015625)"/>
       </defs>
       <use xlink:href="#STIXGeneral-Regular-34"/>
      </g>
     </g>
    </g>
    <g id="text_6">
     <!-- Training Environment Steps -->
     <g transform="translate(191.604688 344.753562)scale(0.18 -0.18)">
      <defs>
       <path id="STIXGeneral-Regular-54" d="M 3795 3149 
L 3642 3149 
Q 3539 3674 3353 3821 
Q 3168 3968 2656 3968 
L 2278 3968 
L 2278 710 
Q 2278 346 2387 243 
Q 2496 141 2893 122 
L 2893 0 
L 1024 0 
L 1024 122 
Q 1427 147 1526 256 
Q 1626 365 1626 787 
L 1626 3968 
L 1242 3968 
Q 723 3968 540 3817 
Q 358 3667 262 3149 
L 109 3149 
L 154 4237 
L 3750 4237 
L 3795 3149 
z
" transform="scale(0.015625)"/>
       <path id="STIXGeneral-Regular-72" d="M 1024 2931 
L 1024 2342 
Q 1267 2688 1430 2816 
Q 1594 2944 1792 2944 
Q 1958 2944 2051 2854 
Q 2144 2765 2144 2605 
Q 2144 2470 2077 2393 
Q 2010 2317 1894 2317 
Q 1773 2317 1638 2445 
Q 1536 2541 1472 2541 
Q 1338 2541 1181 2355 
Q 1024 2170 1024 2016 
L 1024 576 
Q 1024 301 1133 205 
Q 1242 109 1568 96 
L 1568 0 
L 32 0 
L 32 96 
Q 339 154 412 224 
Q 486 294 486 538 
L 486 2138 
Q 486 2349 438 2435 
Q 390 2522 269 2522 
Q 166 2522 45 2496 
L 45 2598 
Q 448 2726 992 2944 
L 1024 2931 
z
" transform="scale(0.015625)"/>
       <path id="STIXGeneral-Regular-61" d="M 2829 422 
L 2829 243 
Q 2586 -64 2253 -64 
Q 1888 -64 1843 403 
L 1837 403 
Q 1427 -64 909 -64 
Q 608 -64 422 112 
Q 237 288 237 602 
Q 237 1050 685 1350 
Q 992 1555 1837 1869 
L 1837 2214 
Q 1837 2502 1699 2646 
Q 1562 2790 1338 2790 
Q 1146 2790 1018 2697 
Q 890 2605 890 2477 
Q 890 2419 909 2348 
Q 928 2278 928 2208 
Q 928 2112 841 2029 
Q 755 1946 634 1946 
Q 525 1946 441 2029 
Q 358 2112 358 2240 
Q 358 2547 685 2752 
Q 986 2944 1421 2944 
Q 1939 2944 2176 2656 
Q 2291 2522 2323 2384 
Q 2355 2246 2355 1946 
L 2355 723 
Q 2355 301 2554 301 
Q 2682 301 2829 422 
z
M 1837 813 
L 1837 1715 
Q 1248 1510 1018 1293 
Q 800 1094 800 800 
Q 800 557 921 432 
Q 1043 307 1242 307 
Q 1453 307 1613 410 
Q 1747 506 1792 589 
Q 1837 672 1837 813 
z
" transform="scale(0.015625)"/>
       <path id="STIXGeneral-Regular-69" d="M 1152 4045 
Q 1152 3904 1056 3811 
Q 960 3718 819 3718 
Q 685 3718 592 3811 
Q 499 3904 499 4045 
Q 499 4179 595 4275 
Q 691 4371 826 4371 
Q 966 4371 1059 4275 
Q 1152 4179 1152 4045 
z
M 1619 0 
L 102 0 
L 102 96 
Q 435 115 521 211 
Q 608 307 608 666 
L 608 2118 
Q 608 2342 563 2432 
Q 518 2522 397 2522 
Q 243 2522 128 2490 
L 128 2592 
L 1120 2944 
L 1146 2918 
L 1146 672 
Q 1146 314 1226 218 
Q 1306 122 1619 96 
L 1619 0 
z
" transform="scale(0.015625)"/>
       <path id="STIXGeneral-Regular-6e" d="M 3104 0 
L 1773 0 
L 1779 96 
Q 2016 115 2096 233 
Q 2176 352 2176 672 
L 2176 1946 
Q 2176 2592 1709 2592 
Q 1549 2592 1408 2515 
Q 1267 2438 1050 2227 
L 1050 461 
Q 1050 269 1136 192 
Q 1222 115 1466 96 
L 1466 0 
L 115 0 
L 115 96 
Q 358 115 435 214 
Q 512 314 512 602 
L 512 2157 
Q 512 2394 467 2483 
Q 422 2573 288 2573 
Q 160 2573 102 2547 
L 102 2656 
Q 550 2784 979 2944 
L 1030 2925 
L 1030 2426 
L 1037 2426 
Q 1491 2944 1958 2944 
Q 2323 2944 2518 2688 
Q 2714 2432 2714 1958 
L 2714 544 
Q 2714 288 2790 205 
Q 2867 122 3104 96 
L 3104 0 
z
" transform="scale(0.015625)"/>
       <path id="STIXGeneral-Regular-67" d="M 3008 2483 
L 2477 2483 
Q 2598 2208 2598 1946 
Q 2598 1453 2265 1203 
Q 1933 954 1600 954 
Q 1530 954 1357 973 
L 1235 986 
Q 1107 947 979 812 
Q 851 678 851 582 
Q 851 435 1350 410 
L 2176 371 
Q 2528 358 2739 172 
Q 2950 -13 2950 -314 
Q 2950 -685 2566 -986 
Q 2035 -1395 1286 -1395 
Q 826 -1395 502 -1212 
Q 179 -1030 179 -774 
Q 179 -595 320 -419 
Q 461 -243 806 6 
Q 602 102 534 172 
Q 467 243 467 346 
Q 467 531 762 787 
Q 909 915 1037 1043 
Q 717 1203 579 1401 
Q 442 1600 442 1901 
Q 442 2336 752 2640 
Q 1062 2944 1510 2944 
Q 1766 2944 2022 2848 
L 2163 2797 
Q 2349 2733 2515 2733 
L 3008 2733 
L 3008 2483 
z
M 973 2163 
L 973 2144 
Q 973 1683 1155 1398 
Q 1338 1114 1632 1114 
Q 1850 1114 1978 1270 
Q 2106 1427 2106 1690 
Q 2106 2112 1914 2464 
Q 1754 2765 1446 2765 
Q 1222 2765 1097 2605 
Q 973 2445 973 2163 
z
M 2771 -410 
Q 2771 -230 2595 -163 
Q 2419 -96 1978 -96 
Q 1344 -96 941 -13 
Q 749 -243 688 -348 
Q 627 -454 627 -563 
Q 627 -774 880 -902 
Q 1133 -1030 1555 -1030 
Q 2099 -1030 2435 -860 
Q 2771 -691 2771 -410 
z
" transform="scale(0.015625)"/>
       <path id="STIXGeneral-Regular-20" transform="scale(0.015625)"/>
       <path id="STIXGeneral-Regular-45" d="M 3821 1082 
L 3526 0 
L 77 0 
L 77 122 
Q 442 147 538 252 
Q 634 358 634 730 
L 634 3520 
Q 634 3878 534 3987 
Q 435 4096 77 4115 
L 77 4237 
L 3469 4237 
L 3494 3322 
L 3334 3322 
Q 3264 3750 3085 3872 
Q 2906 3994 2349 3994 
L 1510 3994 
Q 1370 3994 1328 3952 
Q 1286 3910 1286 3763 
L 1286 2355 
L 2253 2355 
Q 2656 2355 2787 2470 
Q 2918 2586 2976 2970 
L 3123 2970 
L 3123 1472 
L 2976 1472 
Q 2918 1875 2790 1984 
Q 2662 2093 2253 2093 
L 1286 2093 
L 1286 538 
Q 1286 346 1420 291 
Q 1555 237 1933 237 
L 2163 237 
Q 2848 237 3136 403 
Q 3424 570 3642 1082 
L 3821 1082 
z
" transform="scale(0.015625)"/>
       <path id="STIXGeneral-Regular-76" d="M 3053 2880 
L 3053 2784 
Q 2906 2771 2835 2688 
Q 2765 2605 2637 2285 
L 1818 230 
Q 1690 -90 1638 -90 
Q 1587 -90 1523 77 
Q 1510 96 1497 141 
Q 1485 186 1472 211 
L 704 2048 
Q 499 2534 403 2652 
Q 307 2771 122 2784 
L 122 2880 
L 1376 2880 
L 1376 2784 
Q 1210 2771 1146 2732 
Q 1082 2694 1082 2611 
Q 1082 2509 1139 2368 
L 1792 730 
L 2426 2387 
Q 2464 2483 2464 2579 
Q 2464 2758 2163 2784 
L 2163 2880 
L 3053 2880 
z
" transform="scale(0.015625)"/>
       <path id="STIXGeneral-Regular-6f" d="M 3008 1478 
Q 3008 806 2608 371 
Q 2208 -64 1568 -64 
Q 979 -64 582 368 
Q 186 800 186 1459 
Q 186 2125 582 2534 
Q 979 2944 1626 2944 
Q 2221 2944 2614 2537 
Q 3008 2131 3008 1478 
z
M 2432 1306 
Q 2432 2035 2112 2445 
Q 1856 2765 1504 2765 
Q 1171 2765 966 2493 
Q 762 2221 762 1747 
Q 762 928 1101 435 
Q 1318 115 1677 115 
Q 2029 115 2230 432 
Q 2432 749 2432 1306 
z
" transform="scale(0.015625)"/>
       <path id="STIXGeneral-Regular-6d" d="M 4960 0 
L 3565 0 
L 3565 96 
Q 3834 122 3907 208 
Q 3981 294 3981 576 
L 3981 1894 
Q 3981 2278 3869 2444 
Q 3757 2611 3488 2611 
Q 3264 2611 3107 2521 
Q 2950 2432 2803 2221 
L 2803 608 
Q 2803 301 2896 201 
Q 2989 102 3264 96 
L 3264 0 
L 1830 0 
L 1830 96 
Q 2112 115 2189 188 
Q 2266 262 2266 550 
L 2266 1901 
Q 2266 2611 1850 2611 
Q 1670 2611 1468 2531 
Q 1267 2451 1171 2336 
Q 1088 2240 1088 2227 
L 1088 448 
Q 1088 243 1177 176 
Q 1267 109 1523 96 
L 1523 0 
L 102 0 
L 102 96 
Q 371 102 460 195 
Q 550 288 550 563 
L 550 2150 
Q 550 2387 499 2480 
Q 448 2573 326 2573 
Q 230 2573 122 2547 
L 122 2656 
Q 557 2778 1011 2944 
L 1062 2925 
L 1062 2451 
L 1075 2451 
Q 1363 2752 1584 2848 
Q 1805 2944 2054 2944 
Q 2560 2944 2733 2406 
Q 3232 2944 3776 2944 
Q 4518 2944 4518 1792 
L 4518 493 
Q 4518 282 4582 202 
Q 4646 122 4794 109 
L 4960 96 
L 4960 0 
z
" transform="scale(0.015625)"/>
       <path id="STIXGeneral-Regular-65" d="M 2611 1050 
L 2714 1005 
Q 2330 -64 1376 -64 
Q 813 -64 486 329 
Q 160 723 160 1389 
Q 160 2074 525 2509 
Q 890 2944 1485 2944 
Q 2061 2944 2374 2502 
Q 2560 2246 2592 1773 
L 621 1773 
Q 646 1370 700 1158 
Q 755 947 915 730 
Q 1184 378 1626 378 
Q 1939 378 2153 531 
Q 2368 685 2611 1050 
z
M 634 1978 
L 1939 1978 
Q 1882 2381 1750 2547 
Q 1619 2714 1312 2714 
Q 1043 2714 864 2525 
Q 685 2336 634 1978 
z
" transform="scale(0.015625)"/>
       <path id="STIXGeneral-Regular-74" d="M 1702 493 
L 1786 422 
Q 1478 -64 1011 -64 
Q 448 -64 448 749 
L 448 2675 
L 109 2675 
Q 83 2694 83 2720 
Q 83 2771 192 2842 
Q 435 2982 813 3526 
Q 826 3546 874 3606 
Q 922 3667 941 3706 
Q 986 3706 986 3622 
L 986 2880 
L 1632 2880 
L 1632 2675 
L 986 2675 
L 986 845 
Q 986 538 1062 403 
Q 1139 269 1318 269 
Q 1510 269 1702 493 
z
" transform="scale(0.015625)"/>
       <path id="STIXGeneral-Regular-53" d="M 3002 2963 
L 2842 2963 
Q 2733 3360 2579 3565 
Q 2189 4064 1651 4064 
Q 1357 4064 1181 3894 
Q 1005 3725 1005 3456 
Q 1005 3328 1069 3206 
Q 1133 3085 1206 2998 
Q 1280 2912 1465 2784 
Q 1651 2656 1766 2589 
Q 1882 2522 2150 2362 
Q 2669 2061 2905 1763 
Q 3142 1466 3142 1107 
Q 3142 576 2771 243 
Q 2400 -90 1837 -90 
Q 1421 -90 1082 58 
Q 915 128 781 128 
Q 704 128 653 70 
Q 602 13 602 -83 
L 461 -83 
L 275 1274 
L 416 1274 
Q 845 141 1734 141 
Q 2074 141 2285 342 
Q 2496 544 2496 858 
Q 2496 1158 2310 1363 
Q 2003 1696 1235 2106 
Q 454 2522 454 3206 
Q 454 3718 768 4022 
Q 1082 4326 1568 4326 
Q 1907 4326 2240 4186 
Q 2413 4109 2522 4109 
Q 2688 4109 2726 4326 
L 2861 4326 
L 3002 2963 
z
" transform="scale(0.015625)"/>
       <path id="STIXGeneral-Regular-70" d="M 1018 2931 
L 1018 2438 
Q 1421 2944 1939 2944 
Q 2406 2944 2707 2560 
Q 3008 2176 3008 1581 
Q 3008 883 2621 409 
Q 2234 -64 1664 -64 
Q 1466 -64 1328 -6 
Q 1190 51 1018 211 
L 1018 -794 
Q 1018 -1094 1120 -1180 
Q 1222 -1267 1581 -1274 
L 1581 -1389 
L 32 -1389 
L 32 -1280 
Q 314 -1254 397 -1171 
Q 480 -1088 480 -838 
L 480 2157 
Q 480 2381 429 2451 
Q 378 2522 218 2522 
Q 115 2522 58 2515 
L 58 2618 
Q 506 2752 979 2944 
L 1018 2931 
z
M 1018 2138 
L 1018 563 
Q 1018 422 1238 281 
Q 1459 141 1683 141 
Q 2029 141 2243 467 
Q 2458 794 2458 1325 
Q 2458 1888 2243 2224 
Q 2029 2560 1670 2560 
Q 1446 2560 1232 2419 
Q 1018 2278 1018 2138 
z
" transform="scale(0.015625)"/>
       <path id="STIXGeneral-Regular-73" d="M 998 1926 
L 1664 1523 
Q 1984 1331 2105 1164 
Q 2227 998 2227 736 
Q 2227 416 1961 176 
Q 1696 -64 1331 -64 
Q 1030 -64 864 -6 
Q 691 51 570 51 
Q 461 51 416 -26 
L 333 -26 
L 333 979 
L 435 979 
Q 538 512 730 294 
Q 922 77 1248 77 
Q 1485 77 1632 211 
Q 1779 346 1779 550 
Q 1779 845 1440 1030 
L 1094 1222 
Q 326 1651 326 2150 
Q 326 2522 566 2730 
Q 806 2938 1210 2938 
Q 1491 2938 1638 2867 
Q 1754 2816 1818 2816 
Q 1862 2816 1920 2880 
L 1990 2880 
L 2022 2010 
L 1926 2010 
Q 1818 2445 1654 2621 
Q 1491 2797 1203 2797 
Q 986 2797 854 2688 
Q 723 2579 723 2362 
Q 723 2253 796 2128 
Q 870 2003 998 1926 
z
" transform="scale(0.015625)"/>
      </defs>
      <use xlink:href="#STIXGeneral-Regular-54"/>
      <use xlink:href="#STIXGeneral-Regular-72" x="61.099991"/>
      <use xlink:href="#STIXGeneral-Regular-61" x="94.399979"/>
      <use xlink:href="#STIXGeneral-Regular-69" x="138.799973"/>
      <use xlink:href="#STIXGeneral-Regular-6e" x="166.59996"/>
      <use xlink:href="#STIXGeneral-Regular-69" x="216.599945"/>
      <use xlink:href="#STIXGeneral-Regular-6e" x="244.399933"/>
      <use xlink:href="#STIXGeneral-Regular-67" x="294.399918"/>
      <use xlink:href="#STIXGeneral-Regular-20" x="344.399902"/>
      <use xlink:href="#STIXGeneral-Regular-45" x="369.399887"/>
      <use xlink:href="#STIXGeneral-Regular-6e" x="430.499878"/>
      <use xlink:href="#STIXGeneral-Regular-76" x="480.499863"/>
      <use xlink:href="#STIXGeneral-Regular-69" x="530.499847"/>
      <use xlink:href="#STIXGeneral-Regular-72" x="558.299835"/>
      <use xlink:href="#STIXGeneral-Regular-6f" x="591.599823"/>
      <use xlink:href="#STIXGeneral-Regular-6e" x="641.599808"/>
      <use xlink:href="#STIXGeneral-Regular-6d" x="691.599792"/>
      <use xlink:href="#STIXGeneral-Regular-65" x="769.39978"/>
      <use xlink:href="#STIXGeneral-Regular-6e" x="813.799774"/>
      <use xlink:href="#STIXGeneral-Regular-74" x="863.799759"/>
      <use xlink:href="#STIXGeneral-Regular-20" x="891.599747"/>
      <use xlink:href="#STIXGeneral-Regular-53" x="916.599731"/>
      <use xlink:href="#STIXGeneral-Regular-74" x="972.199722"/>
      <use xlink:href="#STIXGeneral-Regular-65" x="999.99971"/>
      <use xlink:href="#STIXGeneral-Regular-70" x="1044.399704"/>
      <use xlink:href="#STIXGeneral-Regular-73" x="1094.399689"/>
     </g>
    </g>
    <g id="text_7">
     <!-- 1e8 -->
     <g transform="translate(490.806875 343.753562)scale(0.18 -0.18)">
      <defs>
       <path id="STIXGeneral-Regular-38" d="M 2848 992 
Q 2848 499 2505 204 
Q 2163 -90 1587 -90 
Q 1050 -90 704 204 
Q 358 499 358 954 
Q 358 1293 524 1533 
Q 691 1773 1190 2125 
Q 710 2522 553 2765 
Q 397 3008 397 3328 
Q 397 3782 745 4054 
Q 1094 4326 1638 4326 
Q 2106 4326 2410 4060 
Q 2714 3795 2714 3411 
Q 2714 3059 2531 2848 
Q 2349 2637 1856 2374 
Q 2432 1990 2640 1689 
Q 2848 1389 2848 992 
z
M 2272 3411 
Q 2272 3744 2086 3945 
Q 1901 4147 1574 4147 
Q 1248 4147 1059 3977 
Q 870 3808 870 3513 
Q 870 3219 1059 2979 
Q 1248 2739 1670 2490 
Q 1997 2682 2134 2896 
Q 2272 3110 2272 3411 
z
M 1734 1741 
L 1357 1997 
Q 1075 1766 960 1545 
Q 845 1325 845 1011 
Q 845 576 1065 333 
Q 1286 90 1658 90 
Q 1971 90 2166 285 
Q 2362 480 2362 794 
Q 2362 1082 2214 1299 
Q 2067 1517 1734 1741 
z
" transform="scale(0.015625)"/>
      </defs>
      <use xlink:href="#STIXGeneral-Regular-31"/>
      <use xlink:href="#STIXGeneral-Regular-65" x="49.999985"/>
      <use xlink:href="#STIXGeneral-Regular-38" x="94.399979"/>
     </g>
    </g>
   </g>
   <g id="matplotlib.axis_2">
    <g id="ytick_1">
     <g id="line2d_11">
      <path d="M 70.4 294.385642 
L 516.8 294.385642 
" clip-path="url(#p775340f2ad)" style="fill: none; stroke: #b0b0b0; stroke-width: 0.8; stroke-linecap: square"/>
     </g>
     <g id="line2d_12">
      <defs>
       <path id="m90f383b991" d="M 0 0 
L -3.5 0 
" style="stroke: #000000; stroke-width: 0.8"/>
      </defs>
      <g>
       <use xlink:href="#m90f383b991" x="70.4" y="294.385642" style="stroke: #000000; stroke-width: 0.8"/>
      </g>
     </g>
     <g id="text_8">
      <!-- 0 -->
      <g transform="translate(54.4 300.53236)scale(0.18 -0.18)">
       <use xlink:href="#STIXGeneral-Regular-30"/>
      </g>
     </g>
    </g>
    <g id="ytick_2">
     <g id="line2d_13">
      <path d="M 70.4 250.08191 
L 516.8 250.08191 
" clip-path="url(#p775340f2ad)" style="fill: none; stroke: #b0b0b0; stroke-width: 0.8; stroke-linecap: square"/>
     </g>
     <g id="line2d_14">
      <g>
       <use xlink:href="#m90f383b991" x="70.4" y="250.08191" style="stroke: #000000; stroke-width: 0.8"/>
      </g>
     </g>
     <g id="text_9">
      <!-- 250 -->
      <g transform="translate(36.4 256.228628)scale(0.18 -0.18)">
       <defs>
        <path id="STIXGeneral-Regular-35" d="M 2803 4358 
L 2573 3814 
Q 2534 3731 2400 3731 
L 1158 3731 
L 902 3187 
Q 1606 3053 1920 2896 
Q 2234 2739 2502 2368 
Q 2726 2061 2726 1555 
Q 2726 1094 2576 780 
Q 2426 467 2099 224 
Q 1664 -90 1011 -90 
Q 646 -90 422 19 
Q 198 128 198 307 
Q 198 550 486 550 
Q 717 550 960 352 
Q 1210 147 1414 147 
Q 1747 147 2012 480 
Q 2278 813 2278 1229 
Q 2278 1843 1850 2189 
Q 1293 2637 486 2637 
Q 410 2637 410 2688 
L 416 2720 
L 1114 4237 
L 2438 4237 
Q 2547 4237 2608 4269 
Q 2669 4301 2746 4403 
L 2803 4358 
z
" transform="scale(0.015625)"/>
       </defs>
       <use xlink:href="#STIXGeneral-Regular-32"/>
       <use xlink:href="#STIXGeneral-Regular-35" x="49.999985"/>
       <use xlink:href="#STIXGeneral-Regular-30" x="99.999969"/>
      </g>
     </g>
    </g>
    <g id="ytick_3">
     <g id="line2d_15">
      <path d="M 70.4 205.778178 
L 516.8 205.778178 
" clip-path="url(#p775340f2ad)" style="fill: none; stroke: #b0b0b0; stroke-width: 0.8; stroke-linecap: square"/>
     </g>
     <g id="line2d_16">
      <g>
       <use xlink:href="#m90f383b991" x="70.4" y="205.778178" style="stroke: #000000; stroke-width: 0.8"/>
      </g>
     </g>
     <g id="text_10">
      <!-- 500 -->
      <g transform="translate(36.4 211.924896)scale(0.18 -0.18)">
       <use xlink:href="#STIXGeneral-Regular-35"/>
       <use xlink:href="#STIXGeneral-Regular-30" x="49.999985"/>
       <use xlink:href="#STIXGeneral-Regular-30" x="99.999969"/>
      </g>
     </g>
    </g>
    <g id="ytick_4">
     <g id="line2d_17">
      <path d="M 70.4 161.474446 
L 516.8 161.474446 
" clip-path="url(#p775340f2ad)" style="fill: none; stroke: #b0b0b0; stroke-width: 0.8; stroke-linecap: square"/>
     </g>
     <g id="line2d_18">
      <g>
       <use xlink:href="#m90f383b991" x="70.4" y="161.474446" style="stroke: #000000; stroke-width: 0.8"/>
      </g>
     </g>
     <g id="text_11">
      <!-- 750 -->
      <g transform="translate(36.4 167.621164)scale(0.18 -0.18)">
       <defs>
        <path id="STIXGeneral-Regular-37" d="M 2874 4134 
L 1517 -51 
L 1101 -51 
L 2368 3763 
L 992 3763 
Q 717 3763 582 3667 
Q 448 3571 243 3238 
L 128 3296 
L 512 4237 
L 2874 4237 
L 2874 4134 
z
" transform="scale(0.015625)"/>
       </defs>
       <use xlink:href="#STIXGeneral-Regular-37"/>
       <use xlink:href="#STIXGeneral-Regular-35" x="49.999985"/>
       <use xlink:href="#STIXGeneral-Regular-30" x="99.999969"/>
      </g>
     </g>
    </g>
    <g id="ytick_5">
     <g id="line2d_19">
      <path d="M 70.4 117.170713 
L 516.8 117.170713 
" clip-path="url(#p775340f2ad)" style="fill: none; stroke: #b0b0b0; stroke-width: 0.8; stroke-linecap: square"/>
     </g>
     <g id="line2d_20">
      <g>
       <use xlink:href="#m90f383b991" x="70.4" y="117.170713" style="stroke: #000000; stroke-width: 0.8"/>
      </g>
     </g>
     <g id="text_12">
      <!-- 1000 -->
      <g transform="translate(27.4 123.317432)scale(0.18 -0.18)">
       <use xlink:href="#STIXGeneral-Regular-31"/>
       <use xlink:href="#STIXGeneral-Regular-30" x="49.999985"/>
       <use xlink:href="#STIXGeneral-Regular-30" x="99.999969"/>
       <use xlink:href="#STIXGeneral-Regular-30" x="149.999954"/>
      </g>
     </g>
    </g>
    <g id="ytick_6">
     <g id="line2d_21">
      <path d="M 70.4 72.866981 
L 516.8 72.866981 
" clip-path="url(#p775340f2ad)" style="fill: none; stroke: #b0b0b0; stroke-width: 0.8; stroke-linecap: square"/>
     </g>
     <g id="line2d_22">
      <g>
       <use xlink:href="#m90f383b991" x="70.4" y="72.866981" style="stroke: #000000; stroke-width: 0.8"/>
      </g>
     </g>
     <g id="text_13">
      <!-- 1250 -->
      <g transform="translate(27.4 79.0137)scale(0.18 -0.18)">
       <use xlink:href="#STIXGeneral-Regular-31"/>
       <use xlink:href="#STIXGeneral-Regular-32" x="49.999985"/>
       <use xlink:href="#STIXGeneral-Regular-35" x="99.999969"/>
       <use xlink:href="#STIXGeneral-Regular-30" x="149.999954"/>
      </g>
     </g>
    </g>
    <g id="ytick_7">
     <g id="line2d_23">
      <path d="M 70.4 28.563249 
L 516.8 28.563249 
" clip-path="url(#p775340f2ad)" style="fill: none; stroke: #b0b0b0; stroke-width: 0.8; stroke-linecap: square"/>
     </g>
     <g id="line2d_24">
      <g>
       <use xlink:href="#m90f383b991" x="70.4" y="28.563249" style="stroke: #000000; stroke-width: 0.8"/>
      </g>
     </g>
     <g id="text_14">
      <!-- 1500 -->
      <g transform="translate(27.4 34.709968)scale(0.18 -0.18)">
       <use xlink:href="#STIXGeneral-Regular-31"/>
       <use xlink:href="#STIXGeneral-Regular-35" x="49.999985"/>
       <use xlink:href="#STIXGeneral-Regular-30" x="99.999969"/>
       <use xlink:href="#STIXGeneral-Regular-30" x="149.999954"/>
      </g>
     </g>
    </g>
    <g id="text_15">
     <!-- Average Test Return -->
     <g transform="translate(19.476562 241.641375)rotate(-90)scale(0.18 -0.18)">
      <defs>
       <path id="STIXGeneral-Regular-41" d="M 4525 0 
L 2893 0 
L 2893 122 
Q 3149 122 3245 179 
Q 3334 224 3334 333 
Q 3334 499 3213 781 
L 2950 1382 
L 1274 1382 
L 979 653 
Q 922 506 922 384 
Q 922 237 1027 179 
Q 1133 122 1370 122 
L 1370 0 
L 96 0 
L 96 122 
Q 365 147 486 316 
Q 608 486 902 1190 
L 2221 4314 
L 2349 4314 
L 3923 710 
Q 4064 378 4176 262 
Q 4288 147 4525 122 
L 4525 0 
z
M 2861 1645 
L 2118 3405 
L 1382 1645 
L 2861 1645 
z
" transform="scale(0.015625)"/>
       <path id="STIXGeneral-Regular-52" d="M 4224 0 
L 3187 0 
L 1664 1971 
L 1306 1958 
L 1306 717 
Q 1306 352 1405 249 
Q 1504 147 1875 122 
L 1875 0 
L 109 0 
L 109 122 
Q 474 154 563 262 
Q 653 371 653 794 
L 653 3526 
Q 653 3885 563 3987 
Q 474 4090 109 4115 
L 109 4237 
L 1850 4237 
Q 2726 4237 3187 3859 
Q 3501 3603 3501 3091 
Q 3501 2221 2342 2042 
L 3622 422 
Q 3757 256 3878 198 
Q 4000 141 4224 122 
L 4224 0 
z
M 1306 3731 
L 1306 2195 
Q 1766 2202 1990 2246 
Q 2214 2291 2438 2413 
Q 2803 2618 2803 3142 
Q 2803 4000 1632 4000 
Q 1459 4000 1382 3945 
Q 1306 3891 1306 3731 
z
" transform="scale(0.015625)"/>
       <path id="STIXGeneral-Regular-75" d="M 3072 320 
L 3072 230 
Q 2573 96 2195 -58 
L 2163 -38 
L 2163 486 
L 2150 486 
Q 1747 -64 1235 -64 
Q 870 -64 662 160 
Q 454 384 454 755 
L 454 2362 
Q 454 2598 371 2688 
Q 288 2778 58 2790 
L 58 2880 
L 992 2880 
L 992 813 
Q 992 595 1123 451 
Q 1254 307 1446 307 
Q 1760 307 1984 506 
Q 2067 582 2099 649 
Q 2131 717 2131 877 
L 2131 2355 
Q 2131 2605 2041 2678 
Q 1952 2752 1658 2771 
L 1658 2880 
L 2669 2880 
L 2669 685 
Q 2669 461 2742 390 
Q 2816 320 3034 320 
L 3072 320 
z
" transform="scale(0.015625)"/>
      </defs>
      <use xlink:href="#STIXGeneral-Regular-41"/>
      <use xlink:href="#STIXGeneral-Regular-76" x="72.199982"/>
      <use xlink:href="#STIXGeneral-Regular-65" x="122.199966"/>
      <use xlink:href="#STIXGeneral-Regular-72" x="166.59996"/>
      <use xlink:href="#STIXGeneral-Regular-61" x="199.899948"/>
      <use xlink:href="#STIXGeneral-Regular-67" x="244.299942"/>
      <use xlink:href="#STIXGeneral-Regular-65" x="294.299927"/>
      <use xlink:href="#STIXGeneral-Regular-20" x="338.699921"/>
      <use xlink:href="#STIXGeneral-Regular-54" x="363.699905"/>
      <use xlink:href="#STIXGeneral-Regular-65" x="424.799896"/>
      <use xlink:href="#STIXGeneral-Regular-73" x="469.19989"/>
      <use xlink:href="#STIXGeneral-Regular-74" x="508.099884"/>
      <use xlink:href="#STIXGeneral-Regular-20" x="535.899872"/>
      <use xlink:href="#STIXGeneral-Regular-52" x="560.899857"/>
      <use xlink:href="#STIXGeneral-Regular-65" x="627.599854"/>
      <use xlink:href="#STIXGeneral-Regular-74" x="671.999847"/>
      <use xlink:href="#STIXGeneral-Regular-75" x="699.799835"/>
      <use xlink:href="#STIXGeneral-Regular-72" x="749.79982"/>
      <use xlink:href="#STIXGeneral-Regular-6e" x="783.099808"/>
     </g>
    </g>
   </g>
   <g id="line2d_25">
    <path d="M 90.690909 291.788796 
L 99.436991 291.706363 
L 102.935423 291.551597 
L 132.6721 291.551092 
L 137.919749 291.561454 
L 141.418182 291.742296 
L 148.415047 291.796956 
L 160.659561 291.723427 
L 164.157994 291.803684 
L 185.148589 291.823974 
L 190.396238 291.975127 
L 223.631348 292.167704 
L 235.875862 292.31592 
L 239.374295 292.057441 
L 244.621944 292.039605 
L 246.37116 291.990968 
L 249.869592 292.049711 
L 260.36489 292.154574 
L 267.361755 292.426445 
L 276.107837 292.498192 
L 279.60627 292.42527 
L 284.853918 292.551587 
L 288.352351 292.620032 
L 302.346082 292.449177 
L 307.59373 292.269079 
L 311.092163 292.332776 
L 314.590596 292.239174 
L 323.336677 292.131127 
L 328.584326 291.940997 
L 330.333542 291.88811 
L 332.082759 291.977138 
L 335.581191 291.978702 
L 340.82884 292.175799 
L 344.327273 292.202344 
L 347.825705 292.08911 
L 351.324138 292.099203 
L 356.571787 292.026752 
L 358.321003 292.102723 
L 365.317868 291.970607 
L 374.06395 292.117609 
L 398.552978 291.885694 
L 405.549843 292.008201 
L 409.048276 291.859833 
L 414.295925 291.784233 
L 417.794357 291.809025 
L 421.29279 291.705835 
L 423.042006 291.539669 
L 428.289655 291.539414 
L 431.788088 291.368017 
L 440.534169 291.405982 
L 442.283386 291.279824 
L 445.781818 291.306512 
L 461.524765 291.015235 
L 465.023197 290.852817 
L 468.52163 291.047792 
L 472.020063 291.23782 
L 475.518495 291.205972 
L 479.016928 291.564107 
L 491.261442 291.753154 
L 493.010658 292.034741 
L 496.509091 292.170149 
L 496.509091 292.170149 
" clip-path="url(#p775340f2ad)" style="fill: none; stroke: #1f77b4; stroke-width: 1.5; stroke-linecap: square"/>
   </g>
   <g id="line2d_26">
    <path d="M 90.690909 253.40844 
L 92.440125 253.271279 
L 94.189342 252.850188 
L 95.938558 252.719416 
L 97.687774 253.045261 
L 99.436991 252.79975 
L 101.186207 252.772953 
L 102.935423 253.245932 
L 104.684639 252.76463 
L 106.433856 253.061433 
L 109.932288 252.800843 
L 120.427586 252.587161 
L 123.926019 252.393554 
L 125.675235 252.509481 
L 127.424451 252.385043 
L 130.922884 253.024739 
L 132.6721 252.78832 
L 134.421317 253.042504 
L 137.919749 253.064068 
L 139.668966 252.735458 
L 141.418182 253.076232 
L 143.167398 252.68152 
L 148.415047 253.212792 
L 150.164263 252.719258 
L 151.91348 252.610337 
L 153.662696 252.794367 
L 155.411912 252.439449 
L 157.161129 252.532422 
L 158.910345 252.346958 
L 160.659561 252.700423 
L 162.408777 252.774355 
L 165.90721 252.353175 
L 167.656426 252.263763 
L 169.405643 252.557625 
L 171.154859 252.368915 
L 172.904075 252.622075 
L 174.653292 252.448192 
L 176.402508 251.97627 
L 178.151724 251.935385 
L 179.90094 252.155244 
L 181.650157 251.920555 
L 183.399373 251.54763 
L 188.647022 252.362433 
L 190.396238 252.094231 
L 192.145455 252.266109 
L 193.894671 252.308605 
L 195.643887 251.921828 
L 197.393103 251.932734 
L 199.14232 252.104843 
L 200.891536 252.074649 
L 202.640752 252.216368 
L 204.389969 252.039899 
L 207.888401 252.515161 
L 211.386834 252.497385 
L 216.634483 252.799093 
L 218.383699 252.685779 
L 223.631348 252.8402 
L 225.380564 252.743695 
L 227.129781 252.796079 
L 228.878997 253.298128 
L 230.628213 253.277255 
L 232.377429 253.477231 
L 234.126646 254.012061 
L 235.875862 253.968391 
L 237.625078 254.835277 
L 239.374295 257.172786 
L 241.123511 257.69893 
L 242.872727 257.602248 
L 244.621944 256.712175 
L 249.869592 255.829266 
L 251.618809 256.266292 
L 255.117241 255.076584 
L 260.36489 253.962663 
L 262.114107 253.569803 
L 263.863323 252.913224 
L 267.361755 252.516599 
L 269.110972 253.011607 
L 270.860188 253.638968 
L 279.60627 252.566484 
L 283.104702 252.447211 
L 284.853918 252.767354 
L 286.603135 253.257769 
L 288.352351 253.406124 
L 290.101567 253.805382 
L 291.850784 253.619912 
L 295.349216 252.327301 
L 297.098433 252.525885 
L 298.847649 253.127674 
L 300.596865 253.375587 
L 302.346082 252.235617 
L 304.095298 252.283301 
L 309.342947 253.021095 
L 311.092163 253.567508 
L 312.841379 253.384385 
L 314.590596 252.903251 
L 318.089028 250.513325 
L 319.838245 251.831178 
L 321.587461 252.473454 
L 323.336677 252.780755 
L 326.83511 255.427974 
L 330.333542 255.957464 
L 332.082759 254.337134 
L 333.831975 253.324902 
L 335.581191 252.550516 
L 337.330408 250.783516 
L 339.079624 249.465351 
L 340.82884 251.113182 
L 342.578056 252.521817 
L 344.327273 252.967153 
L 346.076489 253.107276 
L 347.825705 253.699261 
L 349.574922 253.171413 
L 353.073354 253.577565 
L 354.822571 254.336374 
L 356.571787 253.631999 
L 358.321003 253.8633 
L 360.070219 254.849992 
L 361.819436 256.025633 
L 363.568652 255.934817 
L 367.067085 254.970431 
L 368.816301 254.103345 
L 370.565517 252.901928 
L 374.06395 251.994393 
L 375.813166 251.829319 
L 377.562382 251.800407 
L 379.311599 251.49 
L 381.060815 250.249929 
L 382.810031 249.985602 
L 384.559248 250.446454 
L 388.05768 252.554695 
L 391.556113 253.374656 
L 393.305329 252.747458 
L 395.054545 252.393377 
L 396.803762 252.340391 
L 398.552978 252.724227 
L 400.302194 252.623457 
L 402.051411 251.266986 
L 403.800627 251.107979 
L 405.549843 251.347207 
L 407.29906 250.887132 
L 409.048276 250.238498 
L 410.797492 249.735499 
L 412.546708 249.990277 
L 414.295925 250.740425 
L 416.045141 251.209925 
L 417.794357 252.425187 
L 419.543574 253.306734 
L 421.29279 254.779923 
L 423.042006 255.822082 
L 424.791223 255.295272 
L 426.540439 254.353688 
L 430.038871 254.642957 
L 431.788088 254.236208 
L 433.537304 254.757931 
L 435.28652 254.107298 
L 437.035737 253.589354 
L 438.784953 252.314872 
L 440.534169 249.336461 
L 442.283386 247.607217 
L 444.032602 246.222245 
L 445.781818 246.988834 
L 447.531034 248.959361 
L 449.280251 249.774356 
L 451.029467 249.911922 
L 452.778683 249.478104 
L 454.5279 248.741264 
L 456.277116 246.213216 
L 458.026332 244.604732 
L 459.775549 242.537564 
L 463.273981 244.139285 
L 465.023197 245.051895 
L 466.772414 246.612596 
L 468.52163 247.340395 
L 470.270846 247.262039 
L 472.020063 247.826562 
L 473.769279 246.38247 
L 475.518495 245.397738 
L 477.267712 243.59288 
L 480.766144 241.010518 
L 482.515361 241.587564 
L 484.264577 241.196455 
L 487.763009 245.262029 
L 489.512226 245.723405 
L 491.261442 246.849364 
L 494.759875 246.931396 
L 496.509091 247.887641 
L 496.509091 247.887641 
" clip-path="url(#p775340f2ad)" style="fill: none; stroke: #ff7f0e; stroke-width: 1.5; stroke-linecap: square"/>
   </g>
   <g id="line2d_27">
    <path d="M 90.690909 289.166876 
L 94.189342 288.737911 
L 95.938558 288.327711 
L 102.935423 288.744632 
L 104.684639 288.633901 
L 106.433856 288.639521 
L 108.183072 288.768676 
L 109.932288 288.685751 
L 111.681505 288.731085 
L 113.430721 288.59187 
L 115.179937 288.167301 
L 118.67837 288.413063 
L 122.176803 288.26692 
L 123.926019 288.773086 
L 125.675235 288.775827 
L 127.424451 288.461483 
L 130.922884 288.122402 
L 132.6721 287.730213 
L 136.170533 288.142252 
L 137.919749 287.399375 
L 141.418182 288.173902 
L 148.415047 288.51515 
L 150.164263 287.762048 
L 153.662696 287.838801 
L 157.161129 287.632367 
L 158.910345 287.85112 
L 160.659561 287.297749 
L 162.408777 288.02624 
L 164.157994 287.466642 
L 167.656426 287.672978 
L 169.405643 287.033162 
L 171.154859 287.864059 
L 172.904075 287.995406 
L 174.653292 287.938006 
L 176.402508 288.171063 
L 178.151724 288.138214 
L 179.90094 287.675195 
L 181.650157 287.596152 
L 183.399373 287.765339 
L 186.897806 288.776033 
L 188.647022 288.542085 
L 190.396238 288.620095 
L 192.145455 289.361383 
L 195.643887 289.568798 
L 197.393103 289.531328 
L 199.14232 290.173584 
L 202.640752 289.69347 
L 207.888401 289.638855 
L 211.386834 289.900546 
L 213.13605 289.727063 
L 214.885266 290.250774 
L 218.383699 290.475833 
L 220.132915 290.302976 
L 221.882132 290.562566 
L 223.631348 290.387849 
L 225.380564 290.417703 
L 228.878997 290.762802 
L 230.628213 291.01317 
L 234.126646 290.47505 
L 235.875862 290.594871 
L 237.625078 289.731607 
L 242.872727 289.438564 
L 244.621944 289.771951 
L 246.37116 289.290396 
L 248.120376 289.775843 
L 249.869592 290.03675 
L 251.618809 289.705674 
L 253.368025 289.728182 
L 255.117241 289.632286 
L 256.866458 289.284272 
L 258.615674 289.372535 
L 260.36489 289.641762 
L 262.114107 290.502722 
L 265.612539 291.50665 
L 267.361755 291.787636 
L 269.110972 291.777226 
L 270.860188 291.567327 
L 272.609404 291.594736 
L 274.358621 291.42449 
L 276.107837 291.547148 
L 277.857053 291.499264 
L 279.60627 291.663283 
L 281.355486 291.430665 
L 283.104702 291.659085 
L 286.603135 291.660554 
L 288.352351 291.867794 
L 295.349216 291.979534 
L 298.847649 291.434717 
L 302.346082 291.398208 
L 304.095298 291.589183 
L 305.844514 291.333732 
L 307.59373 291.497346 
L 311.092163 291.261968 
L 312.841379 291.330612 
L 316.339812 291.178467 
L 318.089028 291.40683 
L 319.838245 290.374322 
L 323.336677 290.338736 
L 325.085893 290.055897 
L 326.83511 289.578935 
L 328.584326 289.407886 
L 332.082759 289.369555 
L 333.831975 289.899404 
L 335.581191 290.024472 
L 337.330408 290.472671 
L 339.079624 289.979983 
L 342.578056 289.926374 
L 344.327273 289.78955 
L 346.076489 290.02867 
L 347.825705 290.521415 
L 349.574922 290.447101 
L 351.324138 290.185819 
L 353.073354 290.102631 
L 354.822571 290.368492 
L 356.571787 290.439338 
L 358.321003 290.719167 
L 360.070219 290.640194 
L 361.819436 290.363013 
L 363.568652 290.337729 
L 365.317868 289.601467 
L 370.565517 289.253317 
L 372.314734 289.885575 
L 375.813166 289.989998 
L 377.562382 290.245267 
L 379.311599 289.702079 
L 382.810031 290.503494 
L 384.559248 290.13052 
L 386.308464 289.973093 
L 388.05768 289.629559 
L 389.806897 288.509373 
L 391.556113 288.82175 
L 393.305329 289.402787 
L 395.054545 289.530596 
L 396.803762 289.849618 
L 398.552978 289.816644 
L 400.302194 289.257066 
L 403.800627 289.15176 
L 405.549843 289.323414 
L 407.29906 289.186692 
L 409.048276 289.300205 
L 410.797492 288.813648 
L 412.546708 288.563876 
L 419.543574 289.040917 
L 423.042006 288.59374 
L 426.540439 288.674691 
L 430.038871 288.003462 
L 437.035737 288.335075 
L 440.534169 287.869058 
L 442.283386 287.9589 
L 444.032602 287.821624 
L 445.781818 287.799363 
L 447.531034 288.268345 
L 449.280251 289.107753 
L 452.778683 289.411819 
L 454.5279 289.143318 
L 458.026332 288.793985 
L 459.775549 288.436637 
L 461.524765 288.463567 
L 463.273981 288.06556 
L 465.023197 288.513416 
L 466.772414 288.758384 
L 468.52163 288.731462 
L 470.270846 288.37155 
L 472.020063 288.648314 
L 473.769279 289.285144 
L 475.518495 289.098727 
L 477.267712 289.81588 
L 479.016928 289.95664 
L 480.766144 290.412747 
L 482.515361 290.514542 
L 484.264577 290.33272 
L 486.013793 289.942932 
L 489.512226 290.516295 
L 491.261442 290.759225 
L 496.509091 291.214748 
L 496.509091 291.214748 
" clip-path="url(#p775340f2ad)" style="fill: none; stroke: #2ca02c; stroke-width: 1.5; stroke-linecap: square"/>
   </g>
   <g id="line2d_28">
    <path d="M 90.690909 120.276312 
L 92.440125 133.990887 
L 94.189342 139.508287 
L 95.938558 134.408806 
L 97.687774 140.525757 
L 99.436991 148.005178 
L 101.186207 139.58108 
L 102.935423 143.842882 
L 104.684639 136.989951 
L 106.433856 122.601171 
L 108.183072 126.256542 
L 109.932288 118.421499 
L 111.681505 120.19455 
L 113.430721 119.196302 
L 115.179937 121.241931 
L 116.929154 121.264446 
L 118.67837 123.288414 
L 120.427586 129.544478 
L 122.176803 124.686296 
L 123.926019 117.418243 
L 125.675235 114.267206 
L 127.424451 113.575744 
L 129.173668 109.433062 
L 130.922884 107.728307 
L 132.6721 100.871526 
L 134.421317 102.926085 
L 136.170533 105.334653 
L 137.919749 103.584205 
L 139.668966 104.1069 
L 141.418182 102.689003 
L 143.167398 104.392617 
L 144.916614 103.723889 
L 146.665831 101.362956 
L 148.415047 97.155529 
L 150.164263 95.802457 
L 151.91348 95.544202 
L 155.411912 96.562942 
L 157.161129 89.644146 
L 158.910345 86.023448 
L 160.659561 88.751905 
L 162.408777 78.220076 
L 164.157994 78.34089 
L 165.90721 65.678106 
L 167.656426 66.121433 
L 169.405643 64.372163 
L 171.154859 55.776257 
L 172.904075 59.032762 
L 174.653292 58.601887 
L 176.402508 64.740111 
L 178.151724 63.714917 
L 179.90094 70.620593 
L 181.650157 66.601702 
L 183.399373 65.088704 
L 185.148589 63.92127 
L 186.897806 63.266964 
L 188.647022 65.988544 
L 190.396238 63.242804 
L 192.145455 69.815848 
L 193.894671 69.220385 
L 195.643887 80.455031 
L 197.393103 82.076402 
L 199.14232 90.360119 
L 200.891536 85.736575 
L 202.640752 92.612519 
L 204.389969 89.849211 
L 206.139185 93.225912 
L 207.888401 97.245194 
L 209.637618 104.164161 
L 211.386834 106.276839 
L 213.13605 110.099936 
L 214.885266 116.510974 
L 216.634483 111.569337 
L 218.383699 115.19155 
L 220.132915 108.771243 
L 221.882132 104.074112 
L 223.631348 95.729055 
L 225.380564 99.446724 
L 227.129781 91.371974 
L 228.878997 91.936818 
L 230.628213 92.964188 
L 232.377429 87.64019 
L 234.126646 88.920459 
L 235.875862 84.853214 
L 237.625078 84.868575 
L 239.374295 89.129911 
L 241.123511 87.566968 
L 242.872727 95.545648 
L 244.621944 106.523524 
L 246.37116 101.81702 
L 248.120376 95.094173 
L 249.869592 96.730183 
L 251.618809 92.641106 
L 253.368025 97.4619 
L 255.117241 87.57429 
L 256.866458 91.221722 
L 258.615674 90.10958 
L 260.36489 93.22373 
L 262.114107 94.968179 
L 263.863323 102.982903 
L 265.612539 110.080121 
L 267.361755 111.030481 
L 269.110972 105.609924 
L 270.860188 118.328151 
L 272.609404 116.153183 
L 274.358621 111.41282 
L 276.107837 99.988976 
L 277.857053 113.06952 
L 279.60627 115.440213 
L 283.104702 134.080008 
L 284.853918 130.526883 
L 286.603135 132.844863 
L 288.352351 123.844493 
L 290.101567 131.561052 
L 291.850784 127.519436 
L 293.6 128.475962 
L 295.349216 135.199318 
L 297.098433 129.520496 
L 298.847649 108.934806 
L 300.596865 117.893622 
L 302.346082 124.099481 
L 304.095298 120.878023 
L 305.844514 127.637601 
L 307.59373 120.525121 
L 309.342947 107.695911 
L 311.092163 117.174353 
L 312.841379 118.073466 
L 314.590596 116.918722 
L 316.339812 111.54716 
L 318.089028 125.536729 
L 319.838245 118.314689 
L 321.587461 115.765694 
L 323.336677 117.772592 
L 325.085893 125.121498 
L 326.83511 116.30902 
L 328.584326 102.754457 
L 330.333542 100.636263 
L 332.082759 101.166431 
L 333.831975 105.287237 
L 335.581191 118.138043 
L 337.330408 123.879797 
L 339.079624 113.714137 
L 340.82884 118.299002 
L 342.578056 124.771278 
L 344.327273 122.856389 
L 346.076489 116.799618 
L 347.825705 125.069424 
L 349.574922 124.095459 
L 351.324138 129.379439 
L 353.073354 119.772046 
L 354.822571 122.74775 
L 356.571787 120.010622 
L 358.321003 116.536469 
L 360.070219 110.995567 
L 361.819436 101.616446 
L 363.568652 99.470086 
L 365.317868 94.68199 
L 368.816301 75.938235 
L 370.565517 80.939288 
L 372.314734 87.460769 
L 374.06395 91.713334 
L 375.813166 101.81332 
L 377.562382 94.193531 
L 379.311599 81.018833 
L 381.060815 90.454702 
L 382.810031 96.54591 
L 384.559248 91.629048 
L 386.308464 84.983333 
L 388.05768 81.971495 
L 389.806897 70.606078 
L 391.556113 72.036659 
L 393.305329 70.798056 
L 395.054545 80.878106 
L 396.803762 78.369476 
L 398.552978 68.301658 
L 400.302194 59.730238 
L 402.051411 58.097981 
L 403.800627 54.261832 
L 405.549843 48.050866 
L 407.29906 47.145162 
L 409.048276 52.605882 
L 410.797492 57.303036 
L 412.546708 67.04293 
L 414.295925 62.450283 
L 416.045141 61.461859 
L 417.794357 67.74298 
L 419.543574 65.637444 
L 421.29279 67.16653 
L 423.042006 78.59685 
L 424.791223 76.337421 
L 426.540439 56.37905 
L 428.289655 52.580775 
L 430.038871 45.074359 
L 431.788088 45.020646 
L 433.537304 40.660125 
L 435.28652 56.612675 
L 437.035737 71.394765 
L 438.784953 67.804884 
L 440.534169 72.713697 
L 442.283386 75.039312 
L 444.032602 89.123547 
L 445.781818 82.39762 
L 447.531034 90.669778 
L 449.280251 102.076753 
L 451.029467 94.224157 
L 452.778683 98.243696 
L 454.5279 106.811034 
L 456.277116 105.308525 
L 458.026332 118.358295 
L 459.775549 113.400815 
L 461.524765 104.956971 
L 463.273981 103.482234 
L 465.023197 117.172131 
L 466.772414 121.666039 
L 468.52163 115.30748 
L 472.020063 98.5278 
L 473.769279 110.417017 
L 475.518495 119.598055 
L 477.267712 129.834042 
L 479.016928 133.227167 
L 480.766144 135.93211 
L 482.515361 139.835079 
L 484.264577 136.8789 
L 486.013793 125.598602 
L 487.763009 129.190842 
L 489.512226 117.696934 
L 491.261442 137.094646 
L 493.010658 147.710683 
L 494.759875 147.645552 
L 496.509091 153.389023 
L 496.509091 153.389023 
" clip-path="url(#p775340f2ad)" style="fill: none; stroke: #d62728; stroke-width: 1.5; stroke-linecap: square"/>
   </g>
   <g id="line2d_29">
    <path d="M 90.690909 179.230886 
L 92.440125 179.298324 
L 94.189342 178.231336 
L 95.938558 175.34076 
L 97.687774 174.15482 
L 99.436991 170.82286 
L 101.186207 172.780097 
L 102.935423 172.694838 
L 104.684639 172.096116 
L 106.433856 170.396777 
L 108.183072 167.260905 
L 109.932288 163.122249 
L 111.681505 165.514439 
L 113.430721 166.58988 
L 115.179937 168.278758 
L 116.929154 169.283613 
L 118.67837 171.879713 
L 120.427586 169.964814 
L 122.176803 173.105647 
L 123.926019 172.59939 
L 125.675235 172.627005 
L 127.424451 171.724367 
L 129.173668 170.018535 
L 130.922884 174.840671 
L 134.421317 178.402968 
L 136.170533 177.274621 
L 137.919749 175.679198 
L 139.668966 176.28552 
L 141.418182 172.469169 
L 143.167398 167.857393 
L 144.916614 170.171874 
L 146.665831 168.838584 
L 148.415047 167.105726 
L 150.164263 166.230238 
L 151.91348 169.049634 
L 153.662696 168.713429 
L 155.411912 166.864611 
L 157.161129 166.707833 
L 158.910345 166.301533 
L 160.659561 164.977988 
L 162.408777 167.48956 
L 164.157994 163.185116 
L 165.90721 160.891688 
L 167.656426 166.645971 
L 169.405643 164.308873 
L 172.904075 154.699476 
L 174.653292 154.628401 
L 176.402508 159.47064 
L 178.151724 153.417016 
L 179.90094 146.223882 
L 181.650157 141.979043 
L 183.399373 145.667964 
L 185.148589 140.770299 
L 186.897806 132.890519 
L 188.647022 127.270497 
L 190.396238 123.389653 
L 192.145455 121.788801 
L 193.894671 123.999243 
L 195.643887 126.670511 
L 197.393103 119.907745 
L 199.14232 120.677652 
L 200.891536 120.185396 
L 202.640752 121.194256 
L 204.389969 121.968068 
L 206.139185 121.986 
L 207.888401 116.341712 
L 209.637618 114.052037 
L 211.386834 117.283026 
L 213.13605 120.140687 
L 214.885266 127.221271 
L 216.634483 131.252079 
L 218.383699 126.386481 
L 220.132915 125.086877 
L 221.882132 124.133037 
L 223.631348 127.270495 
L 225.380564 125.70036 
L 227.129781 119.676191 
L 228.878997 114.683601 
L 230.628213 120.292234 
L 232.377429 113.331525 
L 234.126646 118.578512 
L 235.875862 127.221353 
L 237.625078 125.459229 
L 239.374295 126.535145 
L 241.123511 124.118925 
L 242.872727 124.622439 
L 244.621944 125.355263 
L 246.37116 130.947585 
L 248.120376 126.722189 
L 249.869592 126.992906 
L 251.618809 126.666264 
L 253.368025 119.992853 
L 255.117241 120.705237 
L 256.866458 117.253231 
L 258.615674 121.201429 
L 260.36489 123.323346 
L 262.114107 125.744361 
L 263.863323 132.32048 
L 265.612539 129.098799 
L 267.361755 135.41954 
L 269.110972 133.516641 
L 270.860188 134.314847 
L 272.609404 136.462671 
L 274.358621 133.013692 
L 276.107837 138.042865 
L 277.857053 139.174631 
L 279.60627 137.776819 
L 283.104702 142.414776 
L 284.853918 148.383843 
L 286.603135 151.664308 
L 288.352351 153.762041 
L 290.101567 153.305928 
L 291.850784 153.569654 
L 293.6 151.48748 
L 295.349216 153.014942 
L 297.098433 153.496408 
L 298.847649 153.72366 
L 300.596865 154.656198 
L 302.346082 150.673467 
L 304.095298 155.662174 
L 305.844514 161.841356 
L 307.59373 158.464746 
L 309.342947 160.573568 
L 311.092163 159.818495 
L 312.841379 156.301134 
L 314.590596 153.305629 
L 316.339812 157.137561 
L 318.089028 159.820086 
L 319.838245 158.329862 
L 321.587461 151.085117 
L 323.336677 150.266578 
L 325.085893 146.302985 
L 326.83511 145.97559 
L 328.584326 151.956642 
L 330.333542 146.47623 
L 332.082759 146.498649 
L 333.831975 146.844313 
L 335.581191 155.237933 
L 339.079624 161.246624 
L 340.82884 162.017979 
L 342.578056 161.179059 
L 344.327273 159.2536 
L 346.076489 159.330103 
L 347.825705 159.916925 
L 349.574922 156.798604 
L 351.324138 156.987675 
L 353.073354 160.136706 
L 354.822571 159.841777 
L 358.321003 157.692067 
L 360.070219 157.043611 
L 361.819436 153.072386 
L 363.568652 152.159578 
L 367.067085 147.267839 
L 368.816301 147.078775 
L 370.565517 148.166759 
L 372.314734 154.232025 
L 374.06395 152.670939 
L 375.813166 151.547805 
L 377.562382 150.726268 
L 379.311599 146.532336 
L 381.060815 148.202615 
L 382.810031 155.940589 
L 384.559248 153.944152 
L 386.308464 148.357266 
L 388.05768 146.693564 
L 389.806897 151.534775 
L 391.556113 152.391427 
L 393.305329 156.563106 
L 395.054545 155.928899 
L 396.803762 154.995989 
L 398.552978 148.832439 
L 400.302194 147.91841 
L 403.800627 133.422352 
L 405.549843 139.406419 
L 407.29906 144.830761 
L 409.048276 141.43137 
L 410.797492 138.657011 
L 412.546708 135.051997 
L 414.295925 127.797208 
L 416.045141 139.870061 
L 417.794357 142.439049 
L 419.543574 149.603339 
L 421.29279 155.118266 
L 423.042006 151.545949 
L 424.791223 157.463973 
L 426.540439 152.944352 
L 428.289655 151.674329 
L 430.038871 157.175742 
L 431.788088 154.234103 
L 433.537304 157.468718 
L 435.28652 164.406113 
L 437.035737 162.380417 
L 438.784953 164.030262 
L 440.534169 167.453901 
L 442.283386 166.525652 
L 444.032602 171.019752 
L 445.781818 173.922653 
L 447.531034 173.19491 
L 449.280251 175.559043 
L 451.029467 174.203777 
L 454.5279 168.114693 
L 456.277116 172.676749 
L 458.026332 170.559609 
L 459.775549 176.24351 
L 461.524765 173.201799 
L 463.273981 175.589054 
L 465.023197 174.669181 
L 466.772414 176.007617 
L 468.52163 171.876259 
L 470.270846 175.543761 
L 472.020063 175.878439 
L 473.769279 176.57707 
L 475.518495 178.955949 
L 477.267712 174.890747 
L 479.016928 175.085119 
L 480.766144 176.141856 
L 484.264577 174.89067 
L 486.013793 167.742599 
L 487.763009 165.961149 
L 489.512226 170.575201 
L 491.261442 164.282062 
L 494.759875 165.030089 
L 496.509091 170.604503 
L 496.509091 170.604503 
" clip-path="url(#p775340f2ad)" style="fill: none; stroke: #9467bd; stroke-width: 1.5; stroke-linecap: square"/>
   </g>
   <g id="patch_3">
    <path d="M 70.4 305.260125 
L 70.4 28.060125 
" style="fill: none; stroke: #000000; stroke-width: 0.8; stroke-linejoin: miter; stroke-linecap: square"/>
   </g>
   <g id="patch_4">
    <path d="M 516.8 305.260125 
L 516.8 28.060125 
" style="fill: none; stroke: #000000; stroke-width: 0.8; stroke-linejoin: miter; stroke-linecap: square"/>
   </g>
   <g id="patch_5">
    <path d="M 70.4 305.260125 
L 516.8 305.260125 
" style="fill: none; stroke: #000000; stroke-width: 0.8; stroke-linejoin: miter; stroke-linecap: square"/>
   </g>
   <g id="patch_6">
    <path d="M 70.4 28.060125 
L 516.8 28.060125 
" style="fill: none; stroke: #000000; stroke-width: 0.8; stroke-linejoin: miter; stroke-linecap: square"/>
   </g>
   <g id="text_16">
    <!-- ML45 Meta Testing -->
    <g transform="translate(206.604313 22.060125)scale(0.216 -0.216)">
     <defs>
      <path id="STIXGeneral-Regular-4d" d="M 5530 0 
L 3738 0 
L 3738 122 
Q 4115 147 4214 265 
Q 4314 384 4314 787 
L 4314 3661 
L 2682 0 
L 2592 0 
L 979 3514 
L 979 966 
Q 979 448 1088 294 
Q 1197 141 1574 122 
L 1574 0 
L 77 0 
L 77 122 
Q 358 141 480 205 
Q 602 269 650 432 
Q 698 595 698 966 
L 698 3514 
Q 698 3878 589 3984 
Q 480 4090 90 4115 
L 90 4237 
L 1357 4237 
L 2835 1024 
L 4250 4237 
L 5523 4237 
L 5523 4115 
Q 5178 4109 5072 3993 
Q 4966 3878 4966 3520 
L 4966 717 
Q 4966 378 5072 262 
Q 5178 147 5530 122 
L 5530 0 
z
" transform="scale(0.015625)"/>
      <path id="STIXGeneral-Regular-4c" d="M 3827 1114 
L 3520 0 
L 77 0 
L 77 122 
Q 429 141 531 256 
Q 634 371 634 736 
L 634 3494 
Q 634 3872 541 3981 
Q 448 4090 77 4115 
L 77 4237 
L 1888 4237 
L 1888 4115 
Q 1498 4090 1392 3984 
Q 1286 3878 1286 3507 
L 1286 538 
Q 1286 358 1398 304 
Q 1510 250 1862 250 
L 2310 250 
Q 3085 250 3392 640 
Q 3520 813 3661 1114 
L 3827 1114 
z
" transform="scale(0.015625)"/>
     </defs>
     <use xlink:href="#STIXGeneral-Regular-4d"/>
     <use xlink:href="#STIXGeneral-Regular-4c" x="88.899994"/>
     <use xlink:href="#STIXGeneral-Regular-34" x="149.999985"/>
     <use xlink:href="#STIXGeneral-Regular-35" x="199.999969"/>
     <use xlink:href="#STIXGeneral-Regular-20" x="249.999954"/>
     <use xlink:href="#STIXGeneral-Regular-4d" x="274.999939"/>
     <use xlink:href="#STIXGeneral-Regular-65" x="363.899933"/>
     <use xlink:href="#STIXGeneral-Regular-74" x="408.299927"/>
     <use xlink:href="#STIXGeneral-Regular-61" x="436.099915"/>
     <use xlink:href="#STIXGeneral-Regular-20" x="480.499908"/>
     <use xlink:href="#STIXGeneral-Regular-54" x="505.499893"/>
     <use xlink:href="#STIXGeneral-Regular-65" x="566.599884"/>
     <use xlink:href="#STIXGeneral-Regular-73" x="610.999878"/>
     <use xlink:href="#STIXGeneral-Regular-74" x="649.899872"/>
     <use xlink:href="#STIXGeneral-Regular-69" x="677.69986"/>
     <use xlink:href="#STIXGeneral-Regular-6e" x="705.499847"/>
     <use xlink:href="#STIXGeneral-Regular-67" x="755.499832"/>
    </g>
   </g>
   <g id="legend_1">
    <g id="patch_7">
     <path d="M 375.106875 138.465437 
L 507 138.465437 
Q 509.8 138.465437 509.8 135.665437 
L 509.8 37.860125 
Q 509.8 35.060125 507 35.060125 
L 375.106875 35.060125 
Q 372.306875 35.060125 372.306875 37.860125 
L 372.306875 135.665437 
Q 372.306875 138.465437 375.106875 138.465437 
z
" style="fill: #ffffff; opacity: 0.8; stroke: #cccccc; stroke-linejoin: miter"/>
    </g>
    <g id="line2d_30">
     <path d="M 377.906875 45.560125 
L 391.906875 45.560125 
L 405.906875 45.560125 
" style="fill: none; stroke: #1f77b4; stroke-width: 1.5; stroke-linecap: square"/>
    </g>
    <g id="text_17">
     <!-- bin-picking-v2 -->
     <g transform="translate(417.106875 50.460125)scale(0.14 -0.14)">
      <defs>
       <path id="STIXGeneral-Regular-62" d="M 979 4358 
L 979 2406 
Q 1082 2650 1315 2797 
Q 1549 2944 1843 2944 
Q 2349 2944 2672 2541 
Q 2995 2138 2995 1536 
Q 2995 832 2566 384 
Q 2138 -64 1498 -64 
Q 1107 -64 774 67 
Q 442 198 442 358 
L 442 3622 
Q 442 3859 384 3926 
Q 326 3994 128 3994 
Q 83 3994 19 3981 
L 19 4090 
L 211 4147 
Q 864 4346 947 4371 
L 979 4358 
z
M 979 2035 
L 979 474 
Q 979 326 1161 233 
Q 1344 141 1600 141 
Q 1978 141 2195 416 
Q 2432 710 2432 1261 
Q 2432 1888 2182 2240 
Q 1971 2541 1613 2541 
Q 1357 2541 1168 2390 
Q 979 2240 979 2035 
z
" transform="scale(0.015625)"/>
       <path id="STIXGeneral-Regular-2d" d="M 1824 1242 
L 250 1242 
L 250 1645 
L 1824 1645 
L 1824 1242 
z
" transform="scale(0.015625)"/>
       <path id="STIXGeneral-Regular-63" d="M 2547 998 
L 2637 941 
Q 2362 403 2112 205 
Q 1786 -64 1376 -64 
Q 845 -64 502 336 
Q 160 736 160 1357 
Q 160 2170 698 2618 
Q 1094 2944 1562 2944 
Q 1965 2944 2256 2749 
Q 2547 2554 2547 2285 
Q 2547 2176 2457 2096 
Q 2368 2016 2246 2016 
Q 2022 2016 1939 2310 
L 1901 2451 
Q 1850 2630 1773 2694 
Q 1696 2758 1523 2758 
Q 1133 2758 893 2451 
Q 653 2144 653 1645 
Q 653 1094 928 745 
Q 1203 397 1645 397 
Q 1920 397 2118 528 
Q 2317 659 2547 998 
z
" transform="scale(0.015625)"/>
       <path id="STIXGeneral-Regular-6b" d="M 3232 0 
L 1837 0 
L 1837 96 
L 1958 96 
Q 2093 96 2093 192 
Q 2093 250 2022 339 
L 1062 1606 
L 1062 429 
Q 1062 262 1142 185 
Q 1222 109 1414 102 
L 1542 96 
L 1542 0 
L 45 0 
L 45 96 
Q 390 154 457 214 
Q 525 275 525 525 
L 525 3610 
Q 525 3840 467 3920 
Q 410 4000 250 4000 
Q 211 4000 45 3987 
L 45 4090 
L 237 4141 
Q 621 4243 1037 4371 
L 1062 4358 
L 1062 1670 
L 1939 2451 
Q 2086 2586 2086 2675 
Q 2086 2739 2019 2761 
Q 1952 2784 1766 2790 
L 1766 2880 
L 3072 2880 
L 3072 2784 
Q 2752 2784 2505 2646 
Q 2259 2509 1690 1978 
L 1504 1805 
L 2483 563 
Q 2829 122 3232 96 
L 3232 0 
z
" transform="scale(0.015625)"/>
      </defs>
      <use xlink:href="#STIXGeneral-Regular-62"/>
      <use xlink:href="#STIXGeneral-Regular-69" x="49.999985"/>
      <use xlink:href="#STIXGeneral-Regular-6e" x="77.799973"/>
      <use xlink:href="#STIXGeneral-Regular-2d" x="127.799957"/>
      <use xlink:href="#STIXGeneral-Regular-70" x="161.099945"/>
      <use xlink:href="#STIXGeneral-Regular-69" x="211.09993"/>
      <use xlink:href="#STIXGeneral-Regular-63" x="238.899918"/>
      <use xlink:href="#STIXGeneral-Regular-6b" x="283.299911"/>
      <use xlink:href="#STIXGeneral-Regular-69" x="333.299896"/>
      <use xlink:href="#STIXGeneral-Regular-6e" x="361.099884"/>
      <use xlink:href="#STIXGeneral-Regular-67" x="411.099869"/>
      <use xlink:href="#STIXGeneral-Regular-2d" x="461.099854"/>
      <use xlink:href="#STIXGeneral-Regular-76" x="494.399841"/>
      <use xlink:href="#STIXGeneral-Regular-32" x="544.399826"/>
     </g>
    </g>
    <g id="line2d_31">
     <path d="M 377.906875 65.411687 
L 391.906875 65.411687 
L 405.906875 65.411687 
" style="fill: none; stroke: #ff7f0e; stroke-width: 1.5; stroke-linecap: square"/>
    </g>
    <g id="text_18">
     <!-- box-close-v2 -->
     <g transform="translate(417.106875 70.311687)scale(0.14 -0.14)">
      <defs>
       <path id="STIXGeneral-Regular-78" d="M 3066 0 
L 1779 0 
L 1779 96 
Q 1939 109 1987 137 
Q 2035 166 2035 250 
Q 2035 307 1997 365 
L 1414 1261 
L 909 474 
Q 781 275 781 211 
Q 781 96 1037 96 
L 1037 0 
L 109 0 
L 109 96 
Q 269 109 355 169 
Q 442 230 576 422 
L 1306 1478 
L 704 2400 
Q 557 2624 454 2704 
Q 352 2784 211 2784 
L 154 2784 
L 154 2880 
L 1478 2880 
L 1478 2784 
Q 1203 2778 1203 2643 
Q 1203 2509 1498 2074 
Q 1581 1958 1587 1946 
Q 1619 1990 1779 2227 
Q 1811 2285 1856 2349 
Q 1901 2413 1923 2451 
Q 1946 2490 1971 2528 
Q 1997 2566 2006 2595 
Q 2016 2624 2016 2643 
Q 2016 2765 1760 2784 
L 1760 2880 
L 2771 2880 
L 2771 2784 
Q 2445 2771 2253 2502 
L 1722 1734 
L 2541 480 
Q 2790 96 3066 96 
L 3066 0 
z
" transform="scale(0.015625)"/>
       <path id="STIXGeneral-Regular-6c" d="M 1645 0 
L 134 0 
L 134 96 
Q 435 122 531 221 
Q 627 320 627 589 
L 627 3590 
Q 627 3821 569 3910 
Q 512 4000 358 4000 
Q 224 4000 122 3987 
L 122 4090 
Q 730 4237 1133 4371 
L 1165 4346 
L 1165 557 
Q 1165 288 1254 201 
Q 1344 115 1645 96 
L 1645 0 
z
" transform="scale(0.015625)"/>
      </defs>
      <use xlink:href="#STIXGeneral-Regular-62"/>
      <use xlink:href="#STIXGeneral-Regular-6f" x="49.999985"/>
      <use xlink:href="#STIXGeneral-Regular-78" x="99.999969"/>
      <use xlink:href="#STIXGeneral-Regular-2d" x="149.999954"/>
      <use xlink:href="#STIXGeneral-Regular-63" x="183.299942"/>
      <use xlink:href="#STIXGeneral-Regular-6c" x="227.699936"/>
      <use xlink:href="#STIXGeneral-Regular-6f" x="255.499924"/>
      <use xlink:href="#STIXGeneral-Regular-73" x="305.499908"/>
      <use xlink:href="#STIXGeneral-Regular-65" x="344.399902"/>
      <use xlink:href="#STIXGeneral-Regular-2d" x="388.799896"/>
      <use xlink:href="#STIXGeneral-Regular-76" x="422.099884"/>
      <use xlink:href="#STIXGeneral-Regular-32" x="472.099869"/>
     </g>
    </g>
    <g id="line2d_32">
     <path d="M 377.906875 85.250125 
L 391.906875 85.250125 
L 405.906875 85.250125 
" style="fill: none; stroke: #2ca02c; stroke-width: 1.5; stroke-linecap: square"/>
    </g>
    <g id="text_19">
     <!-- hand-insert-v2 -->
     <g transform="translate(417.106875 90.150125)scale(0.14 -0.14)">
      <defs>
       <path id="STIXGeneral-Regular-68" d="M 3117 0 
L 1760 0 
L 1760 96 
Q 2042 128 2118 224 
Q 2195 320 2195 653 
L 2195 1920 
Q 2195 2598 1722 2598 
Q 1530 2598 1370 2508 
Q 1210 2419 1005 2195 
L 1005 653 
Q 1005 320 1081 224 
Q 1158 128 1440 96 
L 1440 0 
L 58 0 
L 58 96 
Q 333 134 400 224 
Q 467 314 467 653 
L 467 3667 
Q 467 3872 406 3933 
Q 346 3994 141 3994 
Q 83 3994 64 3987 
L 64 4090 
L 237 4141 
Q 730 4288 973 4371 
L 1005 4352 
L 1005 2406 
Q 1229 2694 1446 2819 
Q 1664 2944 1946 2944 
Q 2733 2944 2733 1926 
L 2733 653 
Q 2733 320 2793 233 
Q 2854 147 3117 96 
L 3117 0 
z
" transform="scale(0.015625)"/>
       <path id="STIXGeneral-Regular-64" d="M 3142 269 
L 2202 -64 
L 2176 -45 
L 2176 365 
Q 1869 -64 1357 -64 
Q 826 -64 499 317 
Q 173 698 173 1312 
Q 173 1990 563 2467 
Q 954 2944 1504 2944 
Q 1850 2944 2176 2669 
L 2176 3667 
Q 2176 3866 2118 3930 
Q 2061 3994 1882 3994 
Q 1792 3994 1741 3987 
L 1741 4090 
Q 2323 4243 2682 4371 
L 2714 4358 
L 2714 730 
Q 2714 506 2768 435 
Q 2822 365 2995 365 
Q 3034 365 3142 371 
L 3142 269 
z
M 2176 653 
L 2176 2125 
Q 2176 2381 1981 2573 
Q 1786 2765 1523 2765 
Q 1158 2765 940 2438 
Q 723 2112 723 1568 
Q 723 979 963 624 
Q 1203 269 1606 269 
Q 1907 269 2080 474 
Q 2176 582 2176 653 
z
" transform="scale(0.015625)"/>
      </defs>
      <use xlink:href="#STIXGeneral-Regular-68"/>
      <use xlink:href="#STIXGeneral-Regular-61" x="49.999985"/>
      <use xlink:href="#STIXGeneral-Regular-6e" x="94.399979"/>
      <use xlink:href="#STIXGeneral-Regular-64" x="144.399963"/>
      <use xlink:href="#STIXGeneral-Regular-2d" x="194.399948"/>
      <use xlink:href="#STIXGeneral-Regular-69" x="227.699936"/>
      <use xlink:href="#STIXGeneral-Regular-6e" x="255.499924"/>
      <use xlink:href="#STIXGeneral-Regular-73" x="305.499908"/>
      <use xlink:href="#STIXGeneral-Regular-65" x="344.399902"/>
      <use xlink:href="#STIXGeneral-Regular-72" x="388.799896"/>
      <use xlink:href="#STIXGeneral-Regular-74" x="422.099884"/>
      <use xlink:href="#STIXGeneral-Regular-2d" x="449.899872"/>
      <use xlink:href="#STIXGeneral-Regular-76" x="483.19986"/>
      <use xlink:href="#STIXGeneral-Regular-32" x="533.199844"/>
     </g>
    </g>
    <g id="line2d_33">
     <path d="M 377.906875 105.088562 
L 391.906875 105.088562 
L 405.906875 105.088562 
" style="fill: none; stroke: #d62728; stroke-width: 1.5; stroke-linecap: square"/>
    </g>
    <g id="text_20">
     <!-- door-lock-v2 -->
     <g transform="translate(417.106875 109.988562)scale(0.14 -0.14)">
      <use xlink:href="#STIXGeneral-Regular-64"/>
      <use xlink:href="#STIXGeneral-Regular-6f" x="49.999985"/>
      <use xlink:href="#STIXGeneral-Regular-6f" x="99.999969"/>
      <use xlink:href="#STIXGeneral-Regular-72" x="149.999954"/>
      <use xlink:href="#STIXGeneral-Regular-2d" x="183.299942"/>
      <use xlink:href="#STIXGeneral-Regular-6c" x="216.59993"/>
      <use xlink:href="#STIXGeneral-Regular-6f" x="244.399918"/>
      <use xlink:href="#STIXGeneral-Regular-63" x="294.399902"/>
      <use xlink:href="#STIXGeneral-Regular-6b" x="338.799896"/>
      <use xlink:href="#STIXGeneral-Regular-2d" x="388.799881"/>
      <use xlink:href="#STIXGeneral-Regular-76" x="422.099869"/>
      <use xlink:href="#STIXGeneral-Regular-32" x="472.099854"/>
     </g>
    </g>
    <g id="line2d_34">
     <path d="M 377.906875 124.927 
L 391.906875 124.927 
L 405.906875 124.927 
" style="fill: none; stroke: #9467bd; stroke-width: 1.5; stroke-linecap: square"/>
    </g>
    <g id="text_21">
     <!-- door-unlock-v2 -->
     <g transform="translate(417.106875 129.827)scale(0.14 -0.14)">
      <use xlink:href="#STIXGeneral-Regular-64"/>
      <use xlink:href="#STIXGeneral-Regular-6f" x="49.999985"/>
      <use xlink:href="#STIXGeneral-Regular-6f" x="99.999969"/>
      <use xlink:href="#STIXGeneral-Regular-72" x="149.999954"/>
      <use xlink:href="#STIXGeneral-Regular-2d" x="183.299942"/>
      <use xlink:href="#STIXGeneral-Regular-75" x="216.59993"/>
      <use xlink:href="#STIXGeneral-Regular-6e" x="266.599915"/>
      <use xlink:href="#STIXGeneral-Regular-6c" x="316.599899"/>
      <use xlink:href="#STIXGeneral-Regular-6f" x="344.399887"/>
      <use xlink:href="#STIXGeneral-Regular-63" x="394.399872"/>
      <use xlink:href="#STIXGeneral-Regular-6b" x="438.799866"/>
      <use xlink:href="#STIXGeneral-Regular-2d" x="488.79985"/>
      <use xlink:href="#STIXGeneral-Regular-76" x="522.099838"/>
      <use xlink:href="#STIXGeneral-Regular-32" x="572.099823"/>
     </g>
    </g>
   </g>
  </g>
 </g>
 <defs>
  <clipPath id="p775340f2ad">
   <rect x="70.4" y="28.060125" width="446.4" height="277.2"/>
  </clipPath>
 </defs>
</svg>
