<?xml version="1.0" encoding="utf-8" standalone="no"?>
<!DOCTYPE svg PUBLIC "-//W3C//DTD SVG 1.1//EN"
  "http://www.w3.org/Graphics/SVG/1.1/DTD/svg11.dtd">
<svg xmlns:xlink="http://www.w3.org/1999/xlink" width="515pt" height="355.877pt" viewBox="0 0 515 355.877" xmlns="http://www.w3.org/2000/svg" version="1.1">
 <metadata>
  <rdf:RDF xmlns:dc="http://purl.org/dc/elements/1.1/" xmlns:cc="http://creativecommons.org/ns#" xmlns:rdf="http://www.w3.org/1999/02/22-rdf-syntax-ns#">
   <cc:Work>
    <dc:type rdf:resource="http://purl.org/dc/dcmitype/StillImage"/>
    <dc:date>2021-12-11T16:37:22.963089</dc:date>
    <dc:format>image/svg+xml</dc:format>
    <dc:creator>
     <cc:Agent>
      <dc:title>Matplotlib v3.5.0, https://matplotlib.org/</dc:title>
     </cc:Agent>
    </dc:creator>
   </cc:Work>
  </rdf:RDF>
 </metadata>
 <defs>
  <style type="text/css">*{stroke-linejoin: round; stroke-linecap: butt}</style>
 </defs>
 <g id="figure_1">
  <g id="patch_1">
   <path d="M 0 355.877 
L 515 355.877 
L 515 0 
L 0 0 
z
" style="fill: #ffffff"/>
  </g>
  <g id="axes_1">
   <g id="patch_2">
    <path d="M 61.4 305.260125 
L 507.8 305.260125 
L 507.8 28.060125 
L 61.4 28.060125 
z
" style="fill: #ffffff"/>
   </g>
   <g id="matplotlib.axis_1">
    <g id="xtick_1">
     <g id="line2d_1">
      <path d="M 80.236364 305.260125 
L 80.236364 28.060125 
" clip-path="url(#pad9f110cba)" style="fill: none; stroke: #b0b0b0; stroke-width: 0.8; stroke-linecap: square"/>
     </g>
     <g id="line2d_2">
      <defs>
       <path id="m727d2146f4" d="M 0 0 
L 0 3.5 
" style="stroke: #000000; stroke-width: 0.8"/>
      </defs>
      <g>
       <use xlink:href="#m727d2146f4" x="80.236364" y="305.260125" style="stroke: #000000; stroke-width: 0.8"/>
      </g>
     </g>
     <g id="text_1">
      <!-- 0 -->
      <g transform="translate(75.736364 324.553562)scale(0.18 -0.18)">
       <defs>
        <path id="STIXGeneral-Regular-30" d="M 3046 2112 
Q 3046 1683 2963 1302 
Q 2880 922 2717 602 
Q 2554 282 2266 96 
Q 1978 -90 1600 -90 
Q 1210 -90 915 108 
Q 621 307 461 640 
Q 301 973 227 1350 
Q 154 1728 154 2150 
Q 154 2746 301 3222 
Q 448 3699 790 4012 
Q 1133 4326 1626 4326 
Q 2253 4326 2649 3712 
Q 3046 3098 3046 2112 
z
M 2432 2080 
Q 2432 3091 2217 3625 
Q 2003 4160 1587 4160 
Q 1190 4160 979 3622 
Q 768 3085 768 2106 
Q 768 1120 979 598 
Q 1190 77 1600 77 
Q 2003 77 2217 598 
Q 2432 1120 2432 2080 
z
" transform="scale(0.015625)"/>
       </defs>
       <use xlink:href="#STIXGeneral-Regular-30"/>
      </g>
     </g>
    </g>
    <g id="xtick_2">
     <g id="line2d_3">
      <path d="M 152.065769 305.260125 
L 152.065769 28.060125 
" clip-path="url(#pad9f110cba)" style="fill: none; stroke: #b0b0b0; stroke-width: 0.8; stroke-linecap: square"/>
     </g>
     <g id="line2d_4">
      <g>
       <use xlink:href="#m727d2146f4" x="152.065769" y="305.260125" style="stroke: #000000; stroke-width: 0.8"/>
      </g>
     </g>
     <g id="text_2">
      <!-- 1 -->
      <g transform="translate(147.565769 324.553562)scale(0.18 -0.18)">
       <defs>
        <path id="STIXGeneral-Regular-31" d="M 2522 0 
L 755 0 
L 755 96 
Q 1107 115 1235 227 
Q 1363 339 1363 608 
L 1363 3482 
Q 1363 3795 1171 3795 
Q 1082 3795 883 3718 
L 710 3654 
L 710 3744 
L 1856 4326 
L 1914 4307 
L 1914 486 
Q 1914 275 2042 185 
Q 2170 96 2522 96 
L 2522 0 
z
" transform="scale(0.015625)"/>
       </defs>
       <use xlink:href="#STIXGeneral-Regular-31"/>
      </g>
     </g>
    </g>
    <g id="xtick_3">
     <g id="line2d_5">
      <path d="M 223.895174 305.260125 
L 223.895174 28.060125 
" clip-path="url(#pad9f110cba)" style="fill: none; stroke: #b0b0b0; stroke-width: 0.8; stroke-linecap: square"/>
     </g>
     <g id="line2d_6">
      <g>
       <use xlink:href="#m727d2146f4" x="223.895174" y="305.260125" style="stroke: #000000; stroke-width: 0.8"/>
      </g>
     </g>
     <g id="text_3">
      <!-- 2 -->
      <g transform="translate(219.395174 324.553562)scale(0.18 -0.18)">
       <defs>
        <path id="STIXGeneral-Regular-32" d="M 3034 877 
L 2688 0 
L 186 0 
L 186 77 
L 1325 1286 
Q 1773 1754 1965 2144 
Q 2157 2534 2157 2950 
Q 2157 3379 1920 3616 
Q 1683 3853 1267 3853 
Q 922 3853 720 3673 
Q 518 3494 326 3021 
L 192 3053 
Q 301 3648 630 3987 
Q 960 4326 1523 4326 
Q 2054 4326 2380 4006 
Q 2707 3686 2707 3200 
Q 2707 2477 1888 1613 
L 832 486 
L 2330 486 
Q 2541 486 2665 569 
Q 2790 653 2944 915 
L 3034 877 
z
" transform="scale(0.015625)"/>
       </defs>
       <use xlink:href="#STIXGeneral-Regular-32"/>
      </g>
     </g>
    </g>
    <g id="xtick_4">
     <g id="line2d_7">
      <path d="M 295.724579 305.260125 
L 295.724579 28.060125 
" clip-path="url(#pad9f110cba)" style="fill: none; stroke: #b0b0b0; stroke-width: 0.8; stroke-linecap: square"/>
     </g>
     <g id="line2d_8">
      <g>
       <use xlink:href="#m727d2146f4" x="295.724579" y="305.260125" style="stroke: #000000; stroke-width: 0.8"/>
      </g>
     </g>
     <g id="text_4">
      <!-- 3 -->
      <g transform="translate(291.224579 324.553562)scale(0.18 -0.18)">
       <defs>
        <path id="STIXGeneral-Regular-33" d="M 390 3264 
L 288 3290 
Q 435 3770 748 4048 
Q 1062 4326 1542 4326 
Q 1990 4326 2265 4083 
Q 2541 3840 2541 3450 
Q 2541 2925 1946 2566 
Q 2298 2413 2477 2227 
Q 2758 1914 2758 1402 
Q 2758 890 2464 506 
Q 2246 211 1840 60 
Q 1434 -90 979 -90 
Q 262 -90 262 275 
Q 262 378 339 442 
Q 416 506 525 506 
Q 685 506 915 339 
Q 1197 141 1466 141 
Q 1818 141 2058 425 
Q 2298 710 2298 1120 
Q 2298 1856 1632 2048 
Q 1434 2112 979 2112 
L 979 2202 
Q 1338 2323 1517 2432 
Q 2035 2726 2035 3290 
Q 2035 3610 1852 3776 
Q 1670 3942 1344 3942 
Q 768 3942 390 3264 
z
" transform="scale(0.015625)"/>
       </defs>
       <use xlink:href="#STIXGeneral-Regular-33"/>
      </g>
     </g>
    </g>
    <g id="xtick_5">
     <g id="line2d_9">
      <path d="M 367.553984 305.260125 
L 367.553984 28.060125 
" clip-path="url(#pad9f110cba)" style="fill: none; stroke: #b0b0b0; stroke-width: 0.8; stroke-linecap: square"/>
     </g>
     <g id="line2d_10">
      <g>
       <use xlink:href="#m727d2146f4" x="367.553984" y="305.260125" style="stroke: #000000; stroke-width: 0.8"/>
      </g>
     </g>
     <g id="text_5">
      <!-- 4 -->
      <g transform="translate(363.053984 324.553562)scale(0.18 -0.18)">
       <defs>
        <path id="STIXGeneral-Regular-34" d="M 3027 1069 
L 2368 1069 
L 2368 0 
L 1869 0 
L 1869 1069 
L 77 1069 
L 77 1478 
L 2086 4326 
L 2368 4326 
L 2368 1478 
L 3027 1478 
L 3027 1069 
z
M 1869 1478 
L 1869 3674 
L 333 1478 
L 1869 1478 
z
" transform="scale(0.015625)"/>
       </defs>
       <use xlink:href="#STIXGeneral-Regular-34"/>
      </g>
     </g>
    </g>
    <g id="xtick_6">
     <g id="line2d_11">
      <path d="M 439.383389 305.260125 
L 439.383389 28.060125 
" clip-path="url(#pad9f110cba)" style="fill: none; stroke: #b0b0b0; stroke-width: 0.8; stroke-linecap: square"/>
     </g>
     <g id="line2d_12">
      <g>
       <use xlink:href="#m727d2146f4" x="439.383389" y="305.260125" style="stroke: #000000; stroke-width: 0.8"/>
      </g>
     </g>
     <g id="text_6">
      <!-- 5 -->
      <g transform="translate(434.883389 324.553562)scale(0.18 -0.18)">
       <defs>
        <path id="STIXGeneral-Regular-35" d="M 2803 4358 
L 2573 3814 
Q 2534 3731 2400 3731 
L 1158 3731 
L 902 3187 
Q 1606 3053 1920 2896 
Q 2234 2739 2502 2368 
Q 2726 2061 2726 1555 
Q 2726 1094 2576 780 
Q 2426 467 2099 224 
Q 1664 -90 1011 -90 
Q 646 -90 422 19 
Q 198 128 198 307 
Q 198 550 486 550 
Q 717 550 960 352 
Q 1210 147 1414 147 
Q 1747 147 2012 480 
Q 2278 813 2278 1229 
Q 2278 1843 1850 2189 
Q 1293 2637 486 2637 
Q 410 2637 410 2688 
L 416 2720 
L 1114 4237 
L 2438 4237 
Q 2547 4237 2608 4269 
Q 2669 4301 2746 4403 
L 2803 4358 
z
" transform="scale(0.015625)"/>
       </defs>
       <use xlink:href="#STIXGeneral-Regular-35"/>
      </g>
     </g>
    </g>
    <g id="text_7">
     <!-- Training Environment Steps -->
     <g transform="translate(182.604688 344.753562)scale(0.18 -0.18)">
      <defs>
       <path id="STIXGeneral-Regular-54" d="M 3795 3149 
L 3642 3149 
Q 3539 3674 3353 3821 
Q 3168 3968 2656 3968 
L 2278 3968 
L 2278 710 
Q 2278 346 2387 243 
Q 2496 141 2893 122 
L 2893 0 
L 1024 0 
L 1024 122 
Q 1427 147 1526 256 
Q 1626 365 1626 787 
L 1626 3968 
L 1242 3968 
Q 723 3968 540 3817 
Q 358 3667 262 3149 
L 109 3149 
L 154 4237 
L 3750 4237 
L 3795 3149 
z
" transform="scale(0.015625)"/>
       <path id="STIXGeneral-Regular-72" d="M 1024 2931 
L 1024 2342 
Q 1267 2688 1430 2816 
Q 1594 2944 1792 2944 
Q 1958 2944 2051 2854 
Q 2144 2765 2144 2605 
Q 2144 2470 2077 2393 
Q 2010 2317 1894 2317 
Q 1773 2317 1638 2445 
Q 1536 2541 1472 2541 
Q 1338 2541 1181 2355 
Q 1024 2170 1024 2016 
L 1024 576 
Q 1024 301 1133 205 
Q 1242 109 1568 96 
L 1568 0 
L 32 0 
L 32 96 
Q 339 154 412 224 
Q 486 294 486 538 
L 486 2138 
Q 486 2349 438 2435 
Q 390 2522 269 2522 
Q 166 2522 45 2496 
L 45 2598 
Q 448 2726 992 2944 
L 1024 2931 
z
" transform="scale(0.015625)"/>
       <path id="STIXGeneral-Regular-61" d="M 2829 422 
L 2829 243 
Q 2586 -64 2253 -64 
Q 1888 -64 1843 403 
L 1837 403 
Q 1427 -64 909 -64 
Q 608 -64 422 112 
Q 237 288 237 602 
Q 237 1050 685 1350 
Q 992 1555 1837 1869 
L 1837 2214 
Q 1837 2502 1699 2646 
Q 1562 2790 1338 2790 
Q 1146 2790 1018 2697 
Q 890 2605 890 2477 
Q 890 2419 909 2348 
Q 928 2278 928 2208 
Q 928 2112 841 2029 
Q 755 1946 634 1946 
Q 525 1946 441 2029 
Q 358 2112 358 2240 
Q 358 2547 685 2752 
Q 986 2944 1421 2944 
Q 1939 2944 2176 2656 
Q 2291 2522 2323 2384 
Q 2355 2246 2355 1946 
L 2355 723 
Q 2355 301 2554 301 
Q 2682 301 2829 422 
z
M 1837 813 
L 1837 1715 
Q 1248 1510 1018 1293 
Q 800 1094 800 800 
Q 800 557 921 432 
Q 1043 307 1242 307 
Q 1453 307 1613 410 
Q 1747 506 1792 589 
Q 1837 672 1837 813 
z
" transform="scale(0.015625)"/>
       <path id="STIXGeneral-Regular-69" d="M 1152 4045 
Q 1152 3904 1056 3811 
Q 960 3718 819 3718 
Q 685 3718 592 3811 
Q 499 3904 499 4045 
Q 499 4179 595 4275 
Q 691 4371 826 4371 
Q 966 4371 1059 4275 
Q 1152 4179 1152 4045 
z
M 1619 0 
L 102 0 
L 102 96 
Q 435 115 521 211 
Q 608 307 608 666 
L 608 2118 
Q 608 2342 563 2432 
Q 518 2522 397 2522 
Q 243 2522 128 2490 
L 128 2592 
L 1120 2944 
L 1146 2918 
L 1146 672 
Q 1146 314 1226 218 
Q 1306 122 1619 96 
L 1619 0 
z
" transform="scale(0.015625)"/>
       <path id="STIXGeneral-Regular-6e" d="M 3104 0 
L 1773 0 
L 1779 96 
Q 2016 115 2096 233 
Q 2176 352 2176 672 
L 2176 1946 
Q 2176 2592 1709 2592 
Q 1549 2592 1408 2515 
Q 1267 2438 1050 2227 
L 1050 461 
Q 1050 269 1136 192 
Q 1222 115 1466 96 
L 1466 0 
L 115 0 
L 115 96 
Q 358 115 435 214 
Q 512 314 512 602 
L 512 2157 
Q 512 2394 467 2483 
Q 422 2573 288 2573 
Q 160 2573 102 2547 
L 102 2656 
Q 550 2784 979 2944 
L 1030 2925 
L 1030 2426 
L 1037 2426 
Q 1491 2944 1958 2944 
Q 2323 2944 2518 2688 
Q 2714 2432 2714 1958 
L 2714 544 
Q 2714 288 2790 205 
Q 2867 122 3104 96 
L 3104 0 
z
" transform="scale(0.015625)"/>
       <path id="STIXGeneral-Regular-67" d="M 3008 2483 
L 2477 2483 
Q 2598 2208 2598 1946 
Q 2598 1453 2265 1203 
Q 1933 954 1600 954 
Q 1530 954 1357 973 
L 1235 986 
Q 1107 947 979 812 
Q 851 678 851 582 
Q 851 435 1350 410 
L 2176 371 
Q 2528 358 2739 172 
Q 2950 -13 2950 -314 
Q 2950 -685 2566 -986 
Q 2035 -1395 1286 -1395 
Q 826 -1395 502 -1212 
Q 179 -1030 179 -774 
Q 179 -595 320 -419 
Q 461 -243 806 6 
Q 602 102 534 172 
Q 467 243 467 346 
Q 467 531 762 787 
Q 909 915 1037 1043 
Q 717 1203 579 1401 
Q 442 1600 442 1901 
Q 442 2336 752 2640 
Q 1062 2944 1510 2944 
Q 1766 2944 2022 2848 
L 2163 2797 
Q 2349 2733 2515 2733 
L 3008 2733 
L 3008 2483 
z
M 973 2163 
L 973 2144 
Q 973 1683 1155 1398 
Q 1338 1114 1632 1114 
Q 1850 1114 1978 1270 
Q 2106 1427 2106 1690 
Q 2106 2112 1914 2464 
Q 1754 2765 1446 2765 
Q 1222 2765 1097 2605 
Q 973 2445 973 2163 
z
M 2771 -410 
Q 2771 -230 2595 -163 
Q 2419 -96 1978 -96 
Q 1344 -96 941 -13 
Q 749 -243 688 -348 
Q 627 -454 627 -563 
Q 627 -774 880 -902 
Q 1133 -1030 1555 -1030 
Q 2099 -1030 2435 -860 
Q 2771 -691 2771 -410 
z
" transform="scale(0.015625)"/>
       <path id="STIXGeneral-Regular-20" transform="scale(0.015625)"/>
       <path id="STIXGeneral-Regular-45" d="M 3821 1082 
L 3526 0 
L 77 0 
L 77 122 
Q 442 147 538 252 
Q 634 358 634 730 
L 634 3520 
Q 634 3878 534 3987 
Q 435 4096 77 4115 
L 77 4237 
L 3469 4237 
L 3494 3322 
L 3334 3322 
Q 3264 3750 3085 3872 
Q 2906 3994 2349 3994 
L 1510 3994 
Q 1370 3994 1328 3952 
Q 1286 3910 1286 3763 
L 1286 2355 
L 2253 2355 
Q 2656 2355 2787 2470 
Q 2918 2586 2976 2970 
L 3123 2970 
L 3123 1472 
L 2976 1472 
Q 2918 1875 2790 1984 
Q 2662 2093 2253 2093 
L 1286 2093 
L 1286 538 
Q 1286 346 1420 291 
Q 1555 237 1933 237 
L 2163 237 
Q 2848 237 3136 403 
Q 3424 570 3642 1082 
L 3821 1082 
z
" transform="scale(0.015625)"/>
       <path id="STIXGeneral-Regular-76" d="M 3053 2880 
L 3053 2784 
Q 2906 2771 2835 2688 
Q 2765 2605 2637 2285 
L 1818 230 
Q 1690 -90 1638 -90 
Q 1587 -90 1523 77 
Q 1510 96 1497 141 
Q 1485 186 1472 211 
L 704 2048 
Q 499 2534 403 2652 
Q 307 2771 122 2784 
L 122 2880 
L 1376 2880 
L 1376 2784 
Q 1210 2771 1146 2732 
Q 1082 2694 1082 2611 
Q 1082 2509 1139 2368 
L 1792 730 
L 2426 2387 
Q 2464 2483 2464 2579 
Q 2464 2758 2163 2784 
L 2163 2880 
L 3053 2880 
z
" transform="scale(0.015625)"/>
       <path id="STIXGeneral-Regular-6f" d="M 3008 1478 
Q 3008 806 2608 371 
Q 2208 -64 1568 -64 
Q 979 -64 582 368 
Q 186 800 186 1459 
Q 186 2125 582 2534 
Q 979 2944 1626 2944 
Q 2221 2944 2614 2537 
Q 3008 2131 3008 1478 
z
M 2432 1306 
Q 2432 2035 2112 2445 
Q 1856 2765 1504 2765 
Q 1171 2765 966 2493 
Q 762 2221 762 1747 
Q 762 928 1101 435 
Q 1318 115 1677 115 
Q 2029 115 2230 432 
Q 2432 749 2432 1306 
z
" transform="scale(0.015625)"/>
       <path id="STIXGeneral-Regular-6d" d="M 4960 0 
L 3565 0 
L 3565 96 
Q 3834 122 3907 208 
Q 3981 294 3981 576 
L 3981 1894 
Q 3981 2278 3869 2444 
Q 3757 2611 3488 2611 
Q 3264 2611 3107 2521 
Q 2950 2432 2803 2221 
L 2803 608 
Q 2803 301 2896 201 
Q 2989 102 3264 96 
L 3264 0 
L 1830 0 
L 1830 96 
Q 2112 115 2189 188 
Q 2266 262 2266 550 
L 2266 1901 
Q 2266 2611 1850 2611 
Q 1670 2611 1468 2531 
Q 1267 2451 1171 2336 
Q 1088 2240 1088 2227 
L 1088 448 
Q 1088 243 1177 176 
Q 1267 109 1523 96 
L 1523 0 
L 102 0 
L 102 96 
Q 371 102 460 195 
Q 550 288 550 563 
L 550 2150 
Q 550 2387 499 2480 
Q 448 2573 326 2573 
Q 230 2573 122 2547 
L 122 2656 
Q 557 2778 1011 2944 
L 1062 2925 
L 1062 2451 
L 1075 2451 
Q 1363 2752 1584 2848 
Q 1805 2944 2054 2944 
Q 2560 2944 2733 2406 
Q 3232 2944 3776 2944 
Q 4518 2944 4518 1792 
L 4518 493 
Q 4518 282 4582 202 
Q 4646 122 4794 109 
L 4960 96 
L 4960 0 
z
" transform="scale(0.015625)"/>
       <path id="STIXGeneral-Regular-65" d="M 2611 1050 
L 2714 1005 
Q 2330 -64 1376 -64 
Q 813 -64 486 329 
Q 160 723 160 1389 
Q 160 2074 525 2509 
Q 890 2944 1485 2944 
Q 2061 2944 2374 2502 
Q 2560 2246 2592 1773 
L 621 1773 
Q 646 1370 700 1158 
Q 755 947 915 730 
Q 1184 378 1626 378 
Q 1939 378 2153 531 
Q 2368 685 2611 1050 
z
M 634 1978 
L 1939 1978 
Q 1882 2381 1750 2547 
Q 1619 2714 1312 2714 
Q 1043 2714 864 2525 
Q 685 2336 634 1978 
z
" transform="scale(0.015625)"/>
       <path id="STIXGeneral-Regular-74" d="M 1702 493 
L 1786 422 
Q 1478 -64 1011 -64 
Q 448 -64 448 749 
L 448 2675 
L 109 2675 
Q 83 2694 83 2720 
Q 83 2771 192 2842 
Q 435 2982 813 3526 
Q 826 3546 874 3606 
Q 922 3667 941 3706 
Q 986 3706 986 3622 
L 986 2880 
L 1632 2880 
L 1632 2675 
L 986 2675 
L 986 845 
Q 986 538 1062 403 
Q 1139 269 1318 269 
Q 1510 269 1702 493 
z
" transform="scale(0.015625)"/>
       <path id="STIXGeneral-Regular-53" d="M 3002 2963 
L 2842 2963 
Q 2733 3360 2579 3565 
Q 2189 4064 1651 4064 
Q 1357 4064 1181 3894 
Q 1005 3725 1005 3456 
Q 1005 3328 1069 3206 
Q 1133 3085 1206 2998 
Q 1280 2912 1465 2784 
Q 1651 2656 1766 2589 
Q 1882 2522 2150 2362 
Q 2669 2061 2905 1763 
Q 3142 1466 3142 1107 
Q 3142 576 2771 243 
Q 2400 -90 1837 -90 
Q 1421 -90 1082 58 
Q 915 128 781 128 
Q 704 128 653 70 
Q 602 13 602 -83 
L 461 -83 
L 275 1274 
L 416 1274 
Q 845 141 1734 141 
Q 2074 141 2285 342 
Q 2496 544 2496 858 
Q 2496 1158 2310 1363 
Q 2003 1696 1235 2106 
Q 454 2522 454 3206 
Q 454 3718 768 4022 
Q 1082 4326 1568 4326 
Q 1907 4326 2240 4186 
Q 2413 4109 2522 4109 
Q 2688 4109 2726 4326 
L 2861 4326 
L 3002 2963 
z
" transform="scale(0.015625)"/>
       <path id="STIXGeneral-Regular-70" d="M 1018 2931 
L 1018 2438 
Q 1421 2944 1939 2944 
Q 2406 2944 2707 2560 
Q 3008 2176 3008 1581 
Q 3008 883 2621 409 
Q 2234 -64 1664 -64 
Q 1466 -64 1328 -6 
Q 1190 51 1018 211 
L 1018 -794 
Q 1018 -1094 1120 -1180 
Q 1222 -1267 1581 -1274 
L 1581 -1389 
L 32 -1389 
L 32 -1280 
Q 314 -1254 397 -1171 
Q 480 -1088 480 -838 
L 480 2157 
Q 480 2381 429 2451 
Q 378 2522 218 2522 
Q 115 2522 58 2515 
L 58 2618 
Q 506 2752 979 2944 
L 1018 2931 
z
M 1018 2138 
L 1018 563 
Q 1018 422 1238 281 
Q 1459 141 1683 141 
Q 2029 141 2243 467 
Q 2458 794 2458 1325 
Q 2458 1888 2243 2224 
Q 2029 2560 1670 2560 
Q 1446 2560 1232 2419 
Q 1018 2278 1018 2138 
z
" transform="scale(0.015625)"/>
       <path id="STIXGeneral-Regular-73" d="M 998 1926 
L 1664 1523 
Q 1984 1331 2105 1164 
Q 2227 998 2227 736 
Q 2227 416 1961 176 
Q 1696 -64 1331 -64 
Q 1030 -64 864 -6 
Q 691 51 570 51 
Q 461 51 416 -26 
L 333 -26 
L 333 979 
L 435 979 
Q 538 512 730 294 
Q 922 77 1248 77 
Q 1485 77 1632 211 
Q 1779 346 1779 550 
Q 1779 845 1440 1030 
L 1094 1222 
Q 326 1651 326 2150 
Q 326 2522 566 2730 
Q 806 2938 1210 2938 
Q 1491 2938 1638 2867 
Q 1754 2816 1818 2816 
Q 1862 2816 1920 2880 
L 1990 2880 
L 2022 2010 
L 1926 2010 
Q 1818 2445 1654 2621 
Q 1491 2797 1203 2797 
Q 986 2797 854 2688 
Q 723 2579 723 2362 
Q 723 2253 796 2128 
Q 870 2003 998 1926 
z
" transform="scale(0.015625)"/>
      </defs>
      <use xlink:href="#STIXGeneral-Regular-54"/>
      <use xlink:href="#STIXGeneral-Regular-72" x="61.099991"/>
      <use xlink:href="#STIXGeneral-Regular-61" x="94.399979"/>
      <use xlink:href="#STIXGeneral-Regular-69" x="138.799973"/>
      <use xlink:href="#STIXGeneral-Regular-6e" x="166.59996"/>
      <use xlink:href="#STIXGeneral-Regular-69" x="216.599945"/>
      <use xlink:href="#STIXGeneral-Regular-6e" x="244.399933"/>
      <use xlink:href="#STIXGeneral-Regular-67" x="294.399918"/>
      <use xlink:href="#STIXGeneral-Regular-20" x="344.399902"/>
      <use xlink:href="#STIXGeneral-Regular-45" x="369.399887"/>
      <use xlink:href="#STIXGeneral-Regular-6e" x="430.499878"/>
      <use xlink:href="#STIXGeneral-Regular-76" x="480.499863"/>
      <use xlink:href="#STIXGeneral-Regular-69" x="530.499847"/>
      <use xlink:href="#STIXGeneral-Regular-72" x="558.299835"/>
      <use xlink:href="#STIXGeneral-Regular-6f" x="591.599823"/>
      <use xlink:href="#STIXGeneral-Regular-6e" x="641.599808"/>
      <use xlink:href="#STIXGeneral-Regular-6d" x="691.599792"/>
      <use xlink:href="#STIXGeneral-Regular-65" x="769.39978"/>
      <use xlink:href="#STIXGeneral-Regular-6e" x="813.799774"/>
      <use xlink:href="#STIXGeneral-Regular-74" x="863.799759"/>
      <use xlink:href="#STIXGeneral-Regular-20" x="891.599747"/>
      <use xlink:href="#STIXGeneral-Regular-53" x="916.599731"/>
      <use xlink:href="#STIXGeneral-Regular-74" x="972.199722"/>
      <use xlink:href="#STIXGeneral-Regular-65" x="999.99971"/>
      <use xlink:href="#STIXGeneral-Regular-70" x="1044.399704"/>
      <use xlink:href="#STIXGeneral-Regular-73" x="1094.399689"/>
     </g>
    </g>
    <g id="text_8">
     <!-- 1e8 -->
     <g transform="translate(481.806875 343.753562)scale(0.18 -0.18)">
      <defs>
       <path id="STIXGeneral-Regular-38" d="M 2848 992 
Q 2848 499 2505 204 
Q 2163 -90 1587 -90 
Q 1050 -90 704 204 
Q 358 499 358 954 
Q 358 1293 524 1533 
Q 691 1773 1190 2125 
Q 710 2522 553 2765 
Q 397 3008 397 3328 
Q 397 3782 745 4054 
Q 1094 4326 1638 4326 
Q 2106 4326 2410 4060 
Q 2714 3795 2714 3411 
Q 2714 3059 2531 2848 
Q 2349 2637 1856 2374 
Q 2432 1990 2640 1689 
Q 2848 1389 2848 992 
z
M 2272 3411 
Q 2272 3744 2086 3945 
Q 1901 4147 1574 4147 
Q 1248 4147 1059 3977 
Q 870 3808 870 3513 
Q 870 3219 1059 2979 
Q 1248 2739 1670 2490 
Q 1997 2682 2134 2896 
Q 2272 3110 2272 3411 
z
M 1734 1741 
L 1357 1997 
Q 1075 1766 960 1545 
Q 845 1325 845 1011 
Q 845 576 1065 333 
Q 1286 90 1658 90 
Q 1971 90 2166 285 
Q 2362 480 2362 794 
Q 2362 1082 2214 1299 
Q 2067 1517 1734 1741 
z
" transform="scale(0.015625)"/>
      </defs>
      <use xlink:href="#STIXGeneral-Regular-31"/>
      <use xlink:href="#STIXGeneral-Regular-65" x="49.999985"/>
      <use xlink:href="#STIXGeneral-Regular-38" x="94.399979"/>
     </g>
    </g>
   </g>
   <g id="matplotlib.axis_2">
    <g id="ytick_1">
     <g id="line2d_13">
      <path d="M 61.4 252.315089 
L 507.8 252.315089 
" clip-path="url(#pad9f110cba)" style="fill: none; stroke: #b0b0b0; stroke-width: 0.8; stroke-linecap: square"/>
     </g>
     <g id="line2d_14">
      <defs>
       <path id="m8946ddd097" d="M 0 0 
L -3.5 0 
" style="stroke: #000000; stroke-width: 0.8"/>
      </defs>
      <g>
       <use xlink:href="#m8946ddd097" x="61.4" y="252.315089" style="stroke: #000000; stroke-width: 0.8"/>
      </g>
     </g>
     <g id="text_9">
      <!-- 400 -->
      <g transform="translate(27.4 258.461807)scale(0.18 -0.18)">
       <use xlink:href="#STIXGeneral-Regular-34"/>
       <use xlink:href="#STIXGeneral-Regular-30" x="49.999985"/>
       <use xlink:href="#STIXGeneral-Regular-30" x="99.999969"/>
      </g>
     </g>
    </g>
    <g id="ytick_2">
     <g id="line2d_15">
      <path d="M 61.4 196.087291 
L 507.8 196.087291 
" clip-path="url(#pad9f110cba)" style="fill: none; stroke: #b0b0b0; stroke-width: 0.8; stroke-linecap: square"/>
     </g>
     <g id="line2d_16">
      <g>
       <use xlink:href="#m8946ddd097" x="61.4" y="196.087291" style="stroke: #000000; stroke-width: 0.8"/>
      </g>
     </g>
     <g id="text_10">
      <!-- 500 -->
      <g transform="translate(27.4 202.23401)scale(0.18 -0.18)">
       <use xlink:href="#STIXGeneral-Regular-35"/>
       <use xlink:href="#STIXGeneral-Regular-30" x="49.999985"/>
       <use xlink:href="#STIXGeneral-Regular-30" x="99.999969"/>
      </g>
     </g>
    </g>
    <g id="ytick_3">
     <g id="line2d_17">
      <path d="M 61.4 139.859493 
L 507.8 139.859493 
" clip-path="url(#pad9f110cba)" style="fill: none; stroke: #b0b0b0; stroke-width: 0.8; stroke-linecap: square"/>
     </g>
     <g id="line2d_18">
      <g>
       <use xlink:href="#m8946ddd097" x="61.4" y="139.859493" style="stroke: #000000; stroke-width: 0.8"/>
      </g>
     </g>
     <g id="text_11">
      <!-- 600 -->
      <g transform="translate(27.4 146.006212)scale(0.18 -0.18)">
       <defs>
        <path id="STIXGeneral-Regular-36" d="M 2854 4378 
L 2867 4275 
Q 2112 4154 1606 3664 
Q 1101 3174 973 2451 
Q 1344 2739 1786 2739 
Q 2349 2739 2672 2380 
Q 2995 2022 2995 1402 
Q 2995 774 2669 378 
Q 2291 -90 1651 -90 
Q 870 -90 518 557 
Q 218 1107 218 1786 
Q 218 2835 915 3552 
Q 1312 3962 1731 4131 
Q 2150 4301 2854 4378 
z
M 2419 1203 
Q 2419 2445 1555 2445 
Q 1235 2445 1024 2275 
Q 813 2106 813 1702 
Q 813 954 1046 522 
Q 1280 90 1722 90 
Q 2061 90 2240 394 
Q 2419 698 2419 1203 
z
" transform="scale(0.015625)"/>
       </defs>
       <use xlink:href="#STIXGeneral-Regular-36"/>
       <use xlink:href="#STIXGeneral-Regular-30" x="49.999985"/>
       <use xlink:href="#STIXGeneral-Regular-30" x="99.999969"/>
      </g>
     </g>
    </g>
    <g id="ytick_4">
     <g id="line2d_19">
      <path d="M 61.4 83.631696 
L 507.8 83.631696 
" clip-path="url(#pad9f110cba)" style="fill: none; stroke: #b0b0b0; stroke-width: 0.8; stroke-linecap: square"/>
     </g>
     <g id="line2d_20">
      <g>
       <use xlink:href="#m8946ddd097" x="61.4" y="83.631696" style="stroke: #000000; stroke-width: 0.8"/>
      </g>
     </g>
     <g id="text_12">
      <!-- 700 -->
      <g transform="translate(27.4 89.778414)scale(0.18 -0.18)">
       <defs>
        <path id="STIXGeneral-Regular-37" d="M 2874 4134 
L 1517 -51 
L 1101 -51 
L 2368 3763 
L 992 3763 
Q 717 3763 582 3667 
Q 448 3571 243 3238 
L 128 3296 
L 512 4237 
L 2874 4237 
L 2874 4134 
z
" transform="scale(0.015625)"/>
       </defs>
       <use xlink:href="#STIXGeneral-Regular-37"/>
       <use xlink:href="#STIXGeneral-Regular-30" x="49.999985"/>
       <use xlink:href="#STIXGeneral-Regular-30" x="99.999969"/>
      </g>
     </g>
    </g>
    <g id="text_13">
     <!-- Average Test Return -->
     <g transform="translate(19.476562 241.641375)rotate(-90)scale(0.18 -0.18)">
      <defs>
       <path id="STIXGeneral-Regular-41" d="M 4525 0 
L 2893 0 
L 2893 122 
Q 3149 122 3245 179 
Q 3334 224 3334 333 
Q 3334 499 3213 781 
L 2950 1382 
L 1274 1382 
L 979 653 
Q 922 506 922 384 
Q 922 237 1027 179 
Q 1133 122 1370 122 
L 1370 0 
L 96 0 
L 96 122 
Q 365 147 486 316 
Q 608 486 902 1190 
L 2221 4314 
L 2349 4314 
L 3923 710 
Q 4064 378 4176 262 
Q 4288 147 4525 122 
L 4525 0 
z
M 2861 1645 
L 2118 3405 
L 1382 1645 
L 2861 1645 
z
" transform="scale(0.015625)"/>
       <path id="STIXGeneral-Regular-52" d="M 4224 0 
L 3187 0 
L 1664 1971 
L 1306 1958 
L 1306 717 
Q 1306 352 1405 249 
Q 1504 147 1875 122 
L 1875 0 
L 109 0 
L 109 122 
Q 474 154 563 262 
Q 653 371 653 794 
L 653 3526 
Q 653 3885 563 3987 
Q 474 4090 109 4115 
L 109 4237 
L 1850 4237 
Q 2726 4237 3187 3859 
Q 3501 3603 3501 3091 
Q 3501 2221 2342 2042 
L 3622 422 
Q 3757 256 3878 198 
Q 4000 141 4224 122 
L 4224 0 
z
M 1306 3731 
L 1306 2195 
Q 1766 2202 1990 2246 
Q 2214 2291 2438 2413 
Q 2803 2618 2803 3142 
Q 2803 4000 1632 4000 
Q 1459 4000 1382 3945 
Q 1306 3891 1306 3731 
z
" transform="scale(0.015625)"/>
       <path id="STIXGeneral-Regular-75" d="M 3072 320 
L 3072 230 
Q 2573 96 2195 -58 
L 2163 -38 
L 2163 486 
L 2150 486 
Q 1747 -64 1235 -64 
Q 870 -64 662 160 
Q 454 384 454 755 
L 454 2362 
Q 454 2598 371 2688 
Q 288 2778 58 2790 
L 58 2880 
L 992 2880 
L 992 813 
Q 992 595 1123 451 
Q 1254 307 1446 307 
Q 1760 307 1984 506 
Q 2067 582 2099 649 
Q 2131 717 2131 877 
L 2131 2355 
Q 2131 2605 2041 2678 
Q 1952 2752 1658 2771 
L 1658 2880 
L 2669 2880 
L 2669 685 
Q 2669 461 2742 390 
Q 2816 320 3034 320 
L 3072 320 
z
" transform="scale(0.015625)"/>
      </defs>
      <use xlink:href="#STIXGeneral-Regular-41"/>
      <use xlink:href="#STIXGeneral-Regular-76" x="72.199982"/>
      <use xlink:href="#STIXGeneral-Regular-65" x="122.199966"/>
      <use xlink:href="#STIXGeneral-Regular-72" x="166.59996"/>
      <use xlink:href="#STIXGeneral-Regular-61" x="199.899948"/>
      <use xlink:href="#STIXGeneral-Regular-67" x="244.299942"/>
      <use xlink:href="#STIXGeneral-Regular-65" x="294.299927"/>
      <use xlink:href="#STIXGeneral-Regular-20" x="338.699921"/>
      <use xlink:href="#STIXGeneral-Regular-54" x="363.699905"/>
      <use xlink:href="#STIXGeneral-Regular-65" x="424.799896"/>
      <use xlink:href="#STIXGeneral-Regular-73" x="469.19989"/>
      <use xlink:href="#STIXGeneral-Regular-74" x="508.099884"/>
      <use xlink:href="#STIXGeneral-Regular-20" x="535.899872"/>
      <use xlink:href="#STIXGeneral-Regular-52" x="560.899857"/>
      <use xlink:href="#STIXGeneral-Regular-65" x="627.599854"/>
      <use xlink:href="#STIXGeneral-Regular-74" x="671.999847"/>
      <use xlink:href="#STIXGeneral-Regular-75" x="699.799835"/>
      <use xlink:href="#STIXGeneral-Regular-72" x="749.79982"/>
      <use xlink:href="#STIXGeneral-Regular-6e" x="783.099808"/>
     </g>
    </g>
   </g>
   <g id="line2d_21">
    <path d="M 81.690909 280.18529 
L 84.6 273.983727 
L 86.054545 266.786918 
L 87.509091 264.864328 
L 88.963636 259.771877 
L 90.418182 257.738472 
L 91.872727 254.150568 
L 93.327273 253.715347 
L 94.781818 254.45313 
L 96.236364 251.300549 
L 97.690909 252.604438 
L 99.145455 246.96267 
L 100.6 244.408376 
L 102.054545 249.055325 
L 103.509091 247.274623 
L 104.963636 250.845543 
L 106.418182 253.65195 
L 107.872727 248.945923 
L 109.327273 247.540095 
L 110.781818 242.616225 
L 112.236364 240.155586 
L 113.690909 235.740441 
L 115.145455 227.225118 
L 116.6 225.167648 
L 118.054545 224.414417 
L 119.509091 224.058873 
L 120.963636 223.157395 
L 122.418182 224.259427 
L 123.872727 222.311044 
L 125.327273 219.69259 
L 126.781818 223.532229 
L 128.236364 226.278401 
L 129.690909 223.368454 
L 131.145455 224.334838 
L 134.054545 225.779115 
L 135.509091 229.99727 
L 138.418182 221.637461 
L 139.872727 221.061566 
L 141.327273 212.284247 
L 142.781818 214.226072 
L 145.690909 215.025585 
L 147.145455 210.999475 
L 148.6 209.417302 
L 150.054545 206.229367 
L 151.509091 207.561976 
L 152.963636 209.188582 
L 154.418182 208.376382 
L 155.872727 200.971657 
L 157.327273 209.653269 
L 158.781818 211.840068 
L 160.236364 215.83071 
L 161.690909 209.78969 
L 163.145455 212.400976 
L 164.6 220.068004 
L 166.054545 214.665088 
L 167.509091 204.400066 
L 168.963636 203.254216 
L 170.418182 204.044676 
L 171.872727 206.950316 
L 173.327273 205.135467 
L 174.781818 200.217597 
L 176.236364 197.495506 
L 177.690909 195.294784 
L 179.145455 191.311829 
L 182.054545 187.174344 
L 183.509091 183.525892 
L 184.963636 179.127147 
L 186.418182 180.302949 
L 187.872727 182.138792 
L 189.327273 177.350025 
L 192.236364 183.065442 
L 193.690909 181.971685 
L 195.145455 182.104487 
L 196.6 177.583016 
L 198.054545 170.024 
L 199.509091 172.188223 
L 200.963636 172.651645 
L 202.418182 168.213674 
L 203.872727 162.56913 
L 205.327273 164.103392 
L 206.781818 153.217773 
L 208.236364 156.737052 
L 209.690909 175.29731 
L 211.145455 178.503436 
L 212.6 176.671985 
L 214.054545 179.724074 
L 215.509091 173.908607 
L 216.963636 165.480465 
L 218.418182 173.917359 
L 219.872727 192.731941 
L 221.327273 195.257295 
L 222.781818 205.148993 
L 224.236364 203.106543 
L 225.690909 178.217228 
L 227.145455 163.475261 
L 228.6 166.188792 
L 230.054545 168.391282 
L 231.509091 162.499598 
L 232.963636 168.259457 
L 234.418182 164.809485 
L 235.872727 166.434022 
L 237.327273 156.675618 
L 238.781818 154.537019 
L 240.236364 150.137664 
L 241.690909 147.665293 
L 243.145455 157.964985 
L 244.6 152.236052 
L 246.054545 134.353653 
L 247.509091 136.063831 
L 248.963636 133.069472 
L 250.418182 144.075827 
L 251.872727 145.706857 
L 253.327273 142.207706 
L 254.781818 141.906776 
L 256.236364 144.670848 
L 257.690909 143.14325 
L 259.145455 137.544766 
L 260.6 142.845087 
L 262.054545 143.160228 
L 263.509091 141.243818 
L 264.963636 135.02883 
L 266.418182 137.042046 
L 267.872727 137.442429 
L 269.327273 138.641071 
L 270.781818 132.730867 
L 272.236364 132.739231 
L 273.690909 131.089153 
L 275.145455 130.689965 
L 276.6 125.337004 
L 278.054545 126.045523 
L 279.509091 116.80559 
L 280.963636 116.605344 
L 282.418182 106.988217 
L 283.872727 91.177064 
L 285.327273 86.81284 
L 286.781818 90.731089 
L 288.236364 82.712952 
L 289.690909 82.261619 
L 291.145455 78.92536 
L 292.6 84.331068 
L 294.054545 81.605781 
L 295.509091 72.322955 
L 296.963636 83.178297 
L 298.418182 88.218927 
L 299.872727 95.43461 
L 301.327273 85.873323 
L 302.781818 82.326402 
L 304.236364 65.141019 
L 305.690909 65.460535 
L 307.145455 54.800788 
L 308.6 46.183503 
L 310.054545 50.071325 
L 312.963636 74.095209 
L 314.418182 89.085394 
L 317.327273 105.47604 
L 318.781818 102.589274 
L 320.236364 112.606298 
L 321.690909 115.161455 
L 323.145455 119.020342 
L 324.6 110.240431 
L 326.054545 112.69638 
L 327.509091 116.533837 
L 328.963636 122.286304 
L 330.418182 119.008075 
L 331.872727 110.189417 
L 333.327273 105.18488 
L 334.781818 115.608247 
L 336.236364 118.462407 
L 337.690909 113.700951 
L 339.145455 100.992598 
L 340.6 92.206022 
L 342.054545 84.384771 
L 343.509091 81.746024 
L 344.963636 92.905098 
L 346.418182 94.594402 
L 347.872727 99.792302 
L 349.327273 98.264108 
L 350.781818 95.464919 
L 352.236364 88.828533 
L 353.690909 81.027274 
L 355.145455 64.189811 
L 356.6 55.364168 
L 358.054545 56.365994 
L 359.509091 65.505327 
L 360.963636 66.75504 
L 362.418182 67.279476 
L 363.872727 61.949036 
L 365.327273 73.020073 
L 366.781818 76.553817 
L 368.236364 55.993491 
L 369.690909 44.815758 
L 371.145455 40.660125 
L 372.6 46.576988 
L 374.054545 54.17909 
L 375.509091 70.584374 
L 376.963636 67.308334 
L 378.418182 77.495918 
L 379.872727 99.193383 
L 381.327273 99.681711 
L 382.781818 110.721123 
L 384.236364 111.753192 
L 385.690909 115.355843 
L 387.145455 117.630644 
L 388.6 116.080286 
L 390.054545 122.259415 
L 391.509091 137.872456 
L 392.963636 160.109946 
L 394.418182 165.769528 
L 395.872727 176.314938 
L 397.327273 194.571764 
L 398.781818 203.408895 
L 400.236364 209.277749 
L 401.690909 207.037393 
L 403.145455 186.45551 
L 404.6 190.837349 
L 406.054545 209.60976 
L 407.509091 223.229867 
L 408.963636 240.071925 
L 410.418182 252.486075 
L 411.872727 260.554074 
L 413.327273 267.658165 
L 414.781818 256.455676 
L 416.236364 248.577457 
L 417.690909 259.07208 
L 419.145455 261.968576 
L 420.6 266.418325 
L 422.054545 277.157783 
L 423.509091 269.7562 
L 424.963636 248.463851 
L 426.418182 256.456685 
L 427.872727 259.604331 
L 429.327273 266.404711 
L 430.781818 275.807121 
L 432.236364 275.288095 
L 433.690909 276.630348 
L 436.6 285.177752 
L 438.054545 283.539803 
L 439.509091 291.82057 
L 440.963636 286.063502 
L 442.418182 286.1962 
L 443.872727 285.940545 
L 445.327273 282.823298 
L 446.781818 286.715674 
L 448.236364 288.644307 
L 449.690909 289.41212 
L 451.145455 284.109678 
L 452.6 286.178847 
L 454.054545 288.010301 
L 455.509091 283.069126 
L 456.963636 281.333958 
L 458.418182 282.03574 
L 459.872727 285.048141 
L 461.327273 286.845753 
L 462.781818 281.63459 
L 464.236364 281.947473 
L 465.690909 281.810458 
L 467.145455 283.314179 
L 468.6 289.041316 
L 470.054545 292.660125 
L 471.509091 283.909827 
L 472.963636 288.927364 
L 474.418182 287.4672 
L 475.872727 277.801294 
L 477.327273 284.963074 
L 478.781818 285.514521 
L 480.236364 285.945408 
L 481.690909 271.018811 
L 483.145455 263.962284 
L 484.6 261.714022 
L 486.054545 258.778674 
L 486.054545 258.778674 
" clip-path="url(#pad9f110cba)" style="fill: none; stroke: #1f77b4; stroke-width: 1.5; stroke-linecap: square"/>
   </g>
   <g id="line2d_22">
    <path d="M 81.690909 274.942625 
L 83.145455 274.35769 
L 84.6 277.76874 
L 87.509091 278.861204 
L 88.963636 280.856536 
L 90.418182 279.581065 
L 91.872727 281.67644 
L 93.327273 284.235676 
L 94.781818 284.999348 
L 96.236364 285.963719 
L 97.690909 279.773377 
L 99.145455 280.405509 
L 100.6 274.86084 
L 102.054545 281.557838 
L 103.509091 282.676702 
L 104.963636 277.10086 
L 106.418182 275.471222 
L 107.872727 274.47455 
L 109.327273 270.520066 
L 110.781818 273.593098 
L 112.236364 271.129636 
L 115.145455 269.999418 
L 116.6 270.249384 
L 118.054545 275.511365 
L 119.509091 270.70606 
L 120.963636 270.440235 
L 122.418182 272.846731 
L 123.872727 273.891633 
L 125.327273 271.15888 
L 126.781818 271.647483 
L 128.236364 270.385115 
L 129.690909 271.566983 
L 131.145455 265.239338 
L 134.054545 273.916101 
L 135.509091 273.48037 
L 136.963636 270.785809 
L 138.418182 266.624538 
L 139.872727 268.1496 
L 141.327273 266.777549 
L 142.781818 261.731872 
L 144.236364 260.580095 
L 145.690909 260.049324 
L 147.145455 257.484282 
L 148.6 254.515512 
L 150.054545 256.611003 
L 152.963636 248.944255 
L 154.418182 241.33464 
L 155.872727 239.197929 
L 157.327273 236.280018 
L 158.781818 241.251541 
L 160.236364 249.984029 
L 161.690909 251.84975 
L 163.145455 254.403994 
L 164.6 253.8399 
L 166.054545 254.632534 
L 167.509091 255.664482 
L 168.963636 251.822464 
L 170.418182 249.678359 
L 171.872727 246.452024 
L 173.327273 250.763898 
L 174.781818 250.25209 
L 176.236364 251.078305 
L 177.690909 255.997141 
L 179.145455 257.847945 
L 180.6 254.909174 
L 182.054545 251.577285 
L 183.509091 258.118325 
L 184.963636 258.194255 
L 186.418182 257.229196 
L 187.872727 255.746273 
L 189.327273 256.174565 
L 190.781818 253.430573 
L 192.236364 246.243846 
L 193.690909 244.2856 
L 195.145455 235.269874 
L 198.054545 233.491866 
L 199.509091 230.892553 
L 200.963636 229.515678 
L 202.418182 231.176481 
L 203.872727 232.021719 
L 205.327273 227.39566 
L 206.781818 224.395134 
L 208.236364 226.417512 
L 209.690909 217.252943 
L 211.145455 218.403887 
L 212.6 219.236087 
L 214.054545 217.421405 
L 215.509091 219.425344 
L 216.963636 215.280645 
L 218.418182 216.178289 
L 219.872727 215.418414 
L 221.327273 218.925958 
L 222.781818 216.253386 
L 224.236364 219.115993 
L 225.690909 214.685159 
L 227.145455 218.751583 
L 228.6 220.535614 
L 230.054545 215.58136 
L 231.509091 215.004955 
L 232.963636 217.82126 
L 234.418182 221.330305 
L 237.327273 220.290235 
L 238.781818 219.801108 
L 240.236364 220.099595 
L 241.690909 217.971756 
L 243.145455 223.492102 
L 244.6 226.097111 
L 246.054545 229.239285 
L 247.509091 226.407357 
L 248.963636 227.967841 
L 250.418182 232.271492 
L 251.872727 232.088609 
L 253.327273 235.254471 
L 254.781818 234.529587 
L 256.236364 231.568044 
L 257.690909 232.781384 
L 259.145455 230.389692 
L 260.6 221.390816 
L 262.054545 222.524911 
L 263.509091 225.821814 
L 264.963636 228.821659 
L 266.418182 230.001879 
L 267.872727 229.862352 
L 269.327273 241.15077 
L 270.781818 248.013324 
L 272.236364 253.298249 
L 275.145455 259.846363 
L 276.6 266.091769 
L 278.054545 267.56727 
L 279.509091 268.517976 
L 280.963636 259.886842 
L 282.418182 256.98072 
L 283.872727 254.88946 
L 285.327273 253.590138 
L 286.781818 248.899233 
L 288.236364 250.599002 
L 289.690909 249.740072 
L 291.145455 249.505138 
L 292.6 251.543692 
L 295.509091 260.085753 
L 298.418182 270.719605 
L 299.872727 270.305301 
L 301.327273 268.53012 
L 302.781818 265.214004 
L 304.236364 255.633301 
L 305.690909 257.640368 
L 307.145455 251.704509 
L 308.6 251.288263 
L 310.054545 248.88932 
L 311.509091 250.426505 
L 312.963636 248.546638 
L 314.418182 254.683415 
L 315.872727 251.880691 
L 317.327273 254.279758 
L 318.781818 252.986063 
L 320.236364 255.627352 
L 321.690909 256.839403 
L 323.145455 253.03123 
L 324.6 257.414659 
L 326.054545 259.392757 
L 327.509091 257.480581 
L 328.963636 252.634725 
L 330.418182 255.966136 
L 331.872727 254.083885 
L 333.327273 255.971219 
L 334.781818 252.826868 
L 336.236364 255.410566 
L 337.690909 254.233415 
L 339.145455 254.838751 
L 340.6 255.594689 
L 342.054545 253.552396 
L 343.509091 250.394566 
L 344.963636 250.280221 
L 346.418182 242.171245 
L 347.872727 250.045375 
L 349.327273 243.812577 
L 350.781818 242.541458 
L 352.236364 243.5162 
L 353.690909 242.292304 
L 355.145455 242.765532 
L 356.6 250.352631 
L 358.054545 247.63453 
L 359.509091 245.920804 
L 360.963636 248.659755 
L 362.418182 245.013196 
L 363.872727 239.339083 
L 365.327273 236.146629 
L 366.781818 238.057653 
L 368.236364 240.820295 
L 369.690909 243.169259 
L 371.145455 243.361942 
L 372.6 234.055922 
L 374.054545 229.515538 
L 375.509091 233.276572 
L 376.963636 231.244738 
L 378.418182 235.381116 
L 379.872727 238.160568 
L 381.327273 236.933476 
L 382.781818 233.190743 
L 384.236364 239.657618 
L 385.690909 239.840202 
L 387.145455 234.111081 
L 388.6 230.910037 
L 390.054545 233.071464 
L 391.509091 230.689882 
L 392.963636 231.927374 
L 394.418182 227.687814 
L 395.872727 224.366161 
L 397.327273 225.812235 
L 398.781818 223.244191 
L 400.236364 224.139396 
L 401.690909 228.323351 
L 403.145455 231.618984 
L 404.6 231.293674 
L 406.054545 236.626857 
L 407.509091 234.570202 
L 408.963636 237.009479 
L 410.418182 237.896079 
L 411.872727 241.031581 
L 413.327273 245.682993 
L 416.236364 237.057704 
L 417.690909 234.637246 
L 420.6 226.616467 
L 422.054545 227.257138 
L 423.509091 228.780209 
L 424.963636 230.963961 
L 426.418182 226.516374 
L 427.872727 229.086877 
L 429.327273 230.670671 
L 430.781818 235.364056 
L 432.236364 235.726215 
L 433.690909 236.469404 
L 435.145455 236.357913 
L 436.6 235.70749 
L 438.054545 239.916598 
L 439.509091 241.284636 
L 440.963636 237.674719 
L 442.418182 236.750331 
L 443.872727 238.477798 
L 445.327273 246.69059 
L 448.236364 240.547129 
L 449.690909 238.290831 
L 451.145455 227.006215 
L 452.6 232.185672 
L 454.054545 235.712282 
L 455.509091 229.248127 
L 456.963636 234.396886 
L 458.418182 236.723113 
L 459.872727 229.747723 
L 462.781818 229.687032 
L 464.236364 227.931192 
L 465.690909 225.550535 
L 467.145455 224.913071 
L 468.6 231.675325 
L 470.054545 229.30417 
L 471.509091 221.727224 
L 472.963636 225.010838 
L 474.418182 225.264316 
L 475.872727 229.005002 
L 477.327273 231.245364 
L 478.781818 233.848426 
L 480.236364 225.995388 
L 481.690909 227.765425 
L 483.145455 226.895344 
L 484.6 230.840907 
L 486.054545 234.381877 
L 487.509091 229.008696 
L 487.509091 229.008696 
" clip-path="url(#pad9f110cba)" style="fill: none; stroke: #ff7f0e; stroke-width: 1.5; stroke-linecap: square"/>
   </g>
   <g id="line2d_23">
    <path d="M 81.690909 278.297434 
L 83.145455 280.624615 
L 84.6 277.554801 
L 86.054545 282.532619 
L 87.509091 276.232643 
L 88.963636 274.916968 
L 90.418182 276.455842 
L 91.872727 276.429285 
L 94.781818 276.988573 
L 96.236364 278.466988 
L 97.690909 281.510626 
L 99.145455 278.325986 
L 100.6 276.760662 
L 102.054545 277.061526 
L 103.509091 278.419232 
L 104.963636 270.487667 
L 106.418182 268.651097 
L 107.872727 270.562402 
L 109.327273 274.400513 
L 110.781818 272.002388 
L 112.236364 271.16862 
L 113.690909 272.054891 
L 115.145455 271.092547 
L 116.6 266.013127 
L 118.054545 268.406346 
L 119.509091 268.698379 
L 120.963636 271.192035 
L 122.418182 269.73482 
L 123.872727 273.182962 
L 125.327273 271.948739 
L 126.781818 270.173921 
L 128.236364 266.985367 
L 129.690909 267.028182 
L 131.145455 267.713951 
L 132.6 266.841357 
L 134.054545 267.421071 
L 135.509091 268.183278 
L 136.963636 268.366087 
L 138.418182 267.579154 
L 139.872727 269.328343 
L 141.327273 267.150633 
L 142.781818 268.588036 
L 144.236364 268.378306 
L 145.690909 266.887022 
L 147.145455 266.324066 
L 148.6 267.582833 
L 150.054545 267.857563 
L 151.509091 271.462846 
L 152.963636 267.387112 
L 154.418182 268.978631 
L 155.872727 268.633179 
L 157.327273 270.409475 
L 158.781818 269.021656 
L 160.236364 263.601635 
L 161.690909 263.372101 
L 163.145455 263.984189 
L 164.6 260.627909 
L 166.054545 259.357408 
L 167.509091 260.755074 
L 168.963636 260.400006 
L 170.418182 257.142345 
L 171.872727 259.958862 
L 173.327273 260.528498 
L 174.781818 260.471538 
L 176.236364 259.575598 
L 177.690909 259.737175 
L 179.145455 260.526282 
L 180.6 261.795254 
L 182.054545 261.079985 
L 183.509091 254.962097 
L 184.963636 249.61974 
L 186.418182 251.680157 
L 187.872727 253.117563 
L 189.327273 249.494089 
L 190.781818 251.117681 
L 192.236364 252.098775 
L 193.690909 251.448354 
L 195.145455 256.180617 
L 196.6 260.181451 
L 198.054545 259.491619 
L 199.509091 252.884796 
L 200.963636 254.568123 
L 202.418182 257.37202 
L 203.872727 254.712594 
L 205.327273 258.919212 
L 206.781818 261.614193 
L 208.236364 262.176704 
L 209.690909 258.237467 
L 211.145455 257.598577 
L 212.6 259.186614 
L 214.054545 261.850348 
L 215.509091 263.35752 
L 216.963636 266.311983 
L 218.418182 260.774546 
L 219.872727 265.73046 
L 221.327273 257.171044 
L 222.781818 258.174986 
L 224.236364 260.970833 
L 225.690909 261.008654 
L 227.145455 258.867036 
L 228.6 259.036809 
L 230.054545 261.519712 
L 231.509091 267.424798 
L 232.963636 268.199901 
L 234.418182 267.492587 
L 235.872727 268.61517 
L 237.327273 271.189702 
L 238.781818 271.634918 
L 240.236364 271.109018 
L 241.690909 268.598239 
L 243.145455 272.432932 
L 244.6 269.659842 
L 246.054545 271.491692 
L 247.509091 271.082351 
L 248.963636 272.801925 
L 250.418182 272.779467 
L 251.872727 271.046871 
L 253.327273 270.638126 
L 254.781818 272.229 
L 256.236364 270.841875 
L 257.690909 266.878346 
L 259.145455 270.0995 
L 260.6 274.085207 
L 262.054545 271.21065 
L 263.509091 270.439639 
L 264.963636 269.111995 
L 266.418182 268.612444 
L 267.872727 270.588725 
L 269.327273 268.669911 
L 270.781818 269.74527 
L 272.236364 265.924398 
L 273.690909 270.083623 
L 275.145455 265.600054 
L 276.6 263.920922 
L 278.054545 265.065858 
L 279.509091 261.924628 
L 280.963636 260.839564 
L 282.418182 258.954932 
L 283.872727 261.640114 
L 285.327273 261.680338 
L 286.781818 260.903996 
L 288.236364 258.022845 
L 289.690909 260.986567 
L 291.145455 259.931893 
L 292.6 256.052222 
L 294.054545 257.796123 
L 295.509091 256.319687 
L 296.963636 253.344 
L 298.418182 252.616113 
L 299.872727 254.217501 
L 301.327273 257.851303 
L 302.781818 255.561192 
L 304.236364 252.353484 
L 305.690909 250.293581 
L 307.145455 254.926518 
L 308.6 252.852083 
L 310.054545 247.823864 
L 311.509091 244.557834 
L 312.963636 245.897838 
L 314.418182 245.04741 
L 315.872727 244.630082 
L 317.327273 246.930843 
L 318.781818 246.30863 
L 320.236364 248.325279 
L 321.690909 251.520215 
L 323.145455 246.136424 
L 324.6 243.303471 
L 326.054545 246.33621 
L 327.509091 246.83446 
L 328.963636 245.665947 
L 330.418182 248.155877 
L 331.872727 245.926542 
L 333.327273 247.352106 
L 334.781818 244.638414 
L 336.236364 242.184449 
L 337.690909 238.800153 
L 339.145455 236.970759 
L 340.6 234.005984 
L 342.054545 237.017925 
L 343.509091 234.858544 
L 344.963636 234.066235 
L 346.418182 237.923725 
L 347.872727 238.877269 
L 349.327273 240.198223 
L 350.781818 241.74162 
L 352.236364 245.724194 
L 353.690909 239.648312 
L 355.145455 231.788182 
L 356.6 234.418123 
L 358.054545 236.253752 
L 359.509091 242.679673 
L 360.963636 243.212316 
L 362.418182 238.249384 
L 363.872727 247.076498 
L 365.327273 245.934484 
L 366.781818 243.435085 
L 368.236364 240.411427 
L 369.690909 247.02961 
L 371.145455 242.954488 
L 372.6 249.345073 
L 374.054545 248.776297 
L 375.509091 244.973267 
L 376.963636 242.71351 
L 378.418182 249.719639 
L 379.872727 241.279124 
L 381.327273 244.461619 
L 382.781818 246.492638 
L 385.690909 247.908562 
L 387.145455 248.924219 
L 388.6 245.297172 
L 390.054545 249.73268 
L 391.509091 243.343155 
L 392.963636 245.390977 
L 394.418182 243.981047 
L 395.872727 243.107717 
L 397.327273 243.775532 
L 398.781818 245.059812 
L 400.236364 241.665542 
L 401.690909 242.062768 
L 403.145455 231.39221 
L 404.6 233.993723 
L 406.054545 234.599897 
L 407.509091 233.670039 
L 408.963636 238.954812 
L 410.418182 239.782311 
L 411.872727 232.143035 
L 413.327273 231.494647 
L 414.781818 237.393669 
L 416.236364 237.680216 
L 417.690909 236.079548 
L 419.145455 234.678543 
L 420.6 233.041937 
L 422.054545 232.789274 
L 423.509091 231.349414 
L 424.963636 232.324288 
L 426.418182 239.613443 
L 427.872727 235.319105 
L 429.327273 242.879896 
L 430.781818 236.898882 
L 432.236364 237.272618 
L 433.690909 238.442258 
L 435.145455 239.955563 
L 436.6 237.100588 
L 438.054545 233.594161 
L 439.509091 239.558959 
L 440.963636 238.953026 
L 442.418182 241.631451 
L 443.872727 241.287418 
L 445.327273 241.676558 
L 446.781818 245.150918 
L 448.236364 245.52158 
L 451.145455 238.752264 
L 452.6 232.787476 
L 454.054545 231.730432 
L 455.509091 231.575481 
L 456.963636 227.926383 
L 458.418182 233.81164 
L 459.872727 234.431413 
L 461.327273 233.265125 
L 462.781818 237.630453 
L 464.236364 239.441128 
L 465.690909 242.094966 
L 467.145455 241.607643 
L 468.6 238.678267 
L 470.054545 240.364875 
L 471.509091 239.146137 
L 472.963636 240.939098 
L 474.418182 240.442178 
L 475.872727 239.321296 
L 477.327273 243.11259 
L 478.781818 246.176264 
L 480.236364 242.550681 
L 481.690909 250.404964 
L 481.690909 250.404964 
" clip-path="url(#pad9f110cba)" style="fill: none; stroke: #2ca02c; stroke-width: 1.5; stroke-linecap: square"/>
   </g>
   <g id="line2d_24">
    <path d="M 81.690909 285.070887 
L 83.145455 280.26945 
L 84.6 273.501588 
L 86.054545 272.531251 
L 87.509091 267.79835 
L 88.963636 272.606091 
L 90.418182 271.226401 
L 91.872727 267.19481 
L 93.327273 270.202586 
L 94.781818 271.630508 
L 96.236364 270.68583 
L 97.690909 262.48032 
L 99.145455 266.223948 
L 100.6 264.508672 
L 102.054545 263.288997 
L 103.509091 263.50734 
L 104.963636 262.522185 
L 106.418182 263.399081 
L 107.872727 261.062736 
L 109.327273 260.254876 
L 110.781818 262.219151 
L 112.236364 263.10891 
L 113.690909 268.237411 
L 115.145455 269.420578 
L 116.6 268.552016 
L 119.509091 269.734101 
L 120.963636 267.459636 
L 122.418182 266.431137 
L 123.872727 265.13649 
L 125.327273 264.860878 
L 126.781818 267.481945 
L 128.236364 270.492052 
L 129.690909 269.295743 
L 131.145455 275.073997 
L 132.6 270.315068 
L 134.054545 267.952602 
L 135.509091 268.783398 
L 136.963636 267.461726 
L 138.418182 264.98804 
L 139.872727 267.878929 
L 141.327273 268.812753 
L 142.781818 270.389698 
L 144.236364 264.025132 
L 145.690909 266.127629 
L 147.145455 265.52958 
L 148.6 265.555704 
L 150.054545 266.361314 
L 151.509091 266.90298 
L 152.963636 266.461491 
L 154.418182 268.041889 
L 155.872727 260.136624 
L 157.327273 259.730919 
L 158.781818 259.463858 
L 160.236364 262.868725 
L 161.690909 260.146985 
L 163.145455 256.346666 
L 164.6 250.647629 
L 166.054545 247.395559 
L 167.509091 239.574977 
L 168.963636 243.483772 
L 170.418182 251.676734 
L 171.872727 254.432408 
L 173.327273 255.011533 
L 174.781818 252.549362 
L 176.236364 252.33739 
L 177.690909 251.730898 
L 179.145455 246.534034 
L 180.6 246.622726 
L 182.054545 244.627471 
L 183.509091 245.884408 
L 184.963636 249.488356 
L 186.418182 253.617805 
L 187.872727 245.305854 
L 190.781818 248.669501 
L 192.236364 247.511462 
L 193.690909 247.444499 
L 195.145455 244.971646 
L 196.6 248.23722 
L 198.054545 248.508186 
L 199.509091 251.885318 
L 200.963636 248.92843 
L 202.418182 254.77875 
L 203.872727 253.550803 
L 205.327273 250.026915 
L 206.781818 244.129602 
L 208.236364 240.618093 
L 209.690909 242.721353 
L 211.145455 238.237229 
L 212.6 243.609013 
L 214.054545 247.330597 
L 215.509091 250.038127 
L 216.963636 246.635247 
L 218.418182 245.218964 
L 219.872727 243.235249 
L 221.327273 240.142472 
L 222.781818 243.871698 
L 224.236364 245.155166 
L 225.690909 244.817205 
L 227.145455 248.418865 
L 228.6 249.350722 
L 230.054545 243.911445 
L 231.509091 241.318247 
L 232.963636 240.398597 
L 234.418182 235.790574 
L 235.872727 233.450654 
L 237.327273 242.322853 
L 238.781818 241.332633 
L 240.236364 238.514819 
L 241.690909 233.573584 
L 243.145455 231.267317 
L 244.6 232.059124 
L 246.054545 235.765954 
L 247.509091 236.066062 
L 248.963636 233.888334 
L 250.418182 230.88732 
L 251.872727 225.097586 
L 253.327273 234.374023 
L 254.781818 226.145508 
L 256.236364 226.284963 
L 257.690909 218.016728 
L 259.145455 221.025267 
L 260.6 224.932728 
L 262.054545 224.251151 
L 263.509091 227.462789 
L 264.963636 228.810685 
L 266.418182 225.608634 
L 267.872727 230.345806 
L 269.327273 231.131793 
L 270.781818 232.049611 
L 272.236364 225.027937 
L 273.690909 225.161028 
L 275.145455 229.463596 
L 276.6 232.021992 
L 278.054545 232.057686 
L 279.509091 229.606294 
L 280.963636 232.022061 
L 282.418182 230.821375 
L 283.872727 236.374316 
L 285.327273 232.517207 
L 286.781818 227.730477 
L 288.236364 230.584099 
L 291.145455 218.702833 
L 292.6 220.652741 
L 294.054545 227.490175 
L 295.509091 225.209854 
L 296.963636 232.892868 
L 298.418182 224.071131 
L 299.872727 222.494759 
L 301.327273 225.79563 
L 302.781818 229.928692 
L 304.236364 234.723952 
L 305.690909 226.569621 
L 307.145455 222.051482 
L 308.6 221.403551 
L 310.054545 219.148946 
L 311.509091 220.841763 
L 312.963636 221.920593 
L 314.418182 220.93224 
L 315.872727 223.421949 
L 317.327273 214.773795 
L 318.781818 203.734467 
L 320.236364 206.210239 
L 321.690909 211.212191 
L 323.145455 202.657733 
L 324.6 198.288306 
L 326.054545 202.289046 
L 327.509091 205.69176 
L 328.963636 198.200437 
L 330.418182 195.379189 
L 333.327273 199.511265 
L 334.781818 200.203558 
L 336.236364 208.976799 
L 337.690909 209.186852 
L 339.145455 206.825037 
L 340.6 206.972971 
L 344.963636 215.932451 
L 346.418182 215.630982 
L 347.872727 214.624475 
L 349.327273 213.955832 
L 350.781818 211.935269 
L 352.236364 209.369538 
L 353.690909 207.995104 
L 355.145455 208.342998 
L 356.6 208.226626 
L 358.054545 209.38973 
L 359.509091 208.380827 
L 360.963636 205.914291 
L 362.418182 209.919003 
L 363.872727 207.944223 
L 365.327273 208.007122 
L 366.781818 203.226951 
L 368.236364 207.294746 
L 369.690909 205.798351 
L 371.145455 212.052433 
L 372.6 212.795899 
L 374.054545 213.160149 
L 375.509091 208.549526 
L 376.963636 206.821891 
L 378.418182 205.467408 
L 379.872727 208.743363 
L 381.327273 197.894866 
L 382.781818 200.180558 
L 384.236364 204.536159 
L 385.690909 205.754923 
L 387.145455 209.449369 
L 388.6 211.217375 
L 390.054545 207.548049 
L 391.509091 202.704248 
L 392.963636 204.182967 
L 394.418182 197.756158 
L 395.872727 192.345489 
L 397.327273 199.001357 
L 398.781818 200.066194 
L 400.236364 201.62759 
L 401.690909 202.240699 
L 403.145455 201.239206 
L 404.6 203.070486 
L 406.054545 207.263175 
L 407.509091 209.43668 
L 408.963636 211.8575 
L 410.418182 216.243659 
L 411.872727 212.108423 
L 413.327273 210.827064 
L 414.781818 208.729435 
L 416.236364 208.315324 
L 417.690909 206.994336 
L 419.145455 208.246789 
L 420.6 209.859619 
L 422.054545 209.25077 
L 423.509091 206.848947 
L 424.963636 209.831042 
L 426.418182 212.375579 
L 427.872727 213.82868 
L 429.327273 211.23588 
L 430.781818 211.515168 
L 432.236364 208.888949 
L 433.690909 205.834095 
L 435.145455 204.469928 
L 436.6 201.834752 
L 438.054545 203.151225 
L 439.509091 205.91414 
L 440.963636 206.676129 
L 442.418182 208.103073 
L 443.872727 208.088238 
L 445.327273 212.550984 
L 446.781818 210.87504 
L 448.236364 211.002473 
L 449.690909 206.696294 
L 451.145455 207.400059 
L 452.6 210.357573 
L 454.054545 211.968134 
L 455.509091 208.578436 
L 456.963636 207.208232 
L 458.418182 209.666313 
L 459.872727 202.055109 
L 461.327273 206.393971 
L 462.781818 205.453352 
L 464.236364 205.539093 
L 465.690909 201.314892 
L 467.145455 205.553982 
L 468.6 207.634558 
L 470.054545 200.643493 
L 471.509091 202.071462 
L 472.963636 211.88994 
L 475.872727 205.291407 
L 477.327273 206.589531 
L 478.781818 209.334889 
L 480.236364 204.700748 
L 481.690909 205.108218 
L 483.145455 208.719553 
L 484.6 206.008228 
L 486.054545 207.918781 
L 487.509091 214.408744 
L 487.509091 214.408744 
" clip-path="url(#pad9f110cba)" style="fill: none; stroke: #d62728; stroke-width: 1.5; stroke-linecap: square"/>
   </g>
   <g id="patch_3">
    <path d="M 61.4 305.260125 
L 61.4 28.060125 
" style="fill: none; stroke: #000000; stroke-width: 0.8; stroke-linejoin: miter; stroke-linecap: square"/>
   </g>
   <g id="patch_4">
    <path d="M 507.8 305.260125 
L 507.8 28.060125 
" style="fill: none; stroke: #000000; stroke-width: 0.8; stroke-linejoin: miter; stroke-linecap: square"/>
   </g>
   <g id="patch_5">
    <path d="M 61.4 305.260125 
L 507.8 305.260125 
" style="fill: none; stroke: #000000; stroke-width: 0.8; stroke-linejoin: miter; stroke-linecap: square"/>
   </g>
   <g id="patch_6">
    <path d="M 61.4 28.060125 
L 507.8 28.060125 
" style="fill: none; stroke: #000000; stroke-width: 0.8; stroke-linejoin: miter; stroke-linecap: square"/>
   </g>
   <g id="text_14">
    <!-- ML45 Meta Testing -->
    <g transform="translate(197.604313 22.060125)scale(0.216 -0.216)">
     <defs>
      <path id="STIXGeneral-Regular-4d" d="M 5530 0 
L 3738 0 
L 3738 122 
Q 4115 147 4214 265 
Q 4314 384 4314 787 
L 4314 3661 
L 2682 0 
L 2592 0 
L 979 3514 
L 979 966 
Q 979 448 1088 294 
Q 1197 141 1574 122 
L 1574 0 
L 77 0 
L 77 122 
Q 358 141 480 205 
Q 602 269 650 432 
Q 698 595 698 966 
L 698 3514 
Q 698 3878 589 3984 
Q 480 4090 90 4115 
L 90 4237 
L 1357 4237 
L 2835 1024 
L 4250 4237 
L 5523 4237 
L 5523 4115 
Q 5178 4109 5072 3993 
Q 4966 3878 4966 3520 
L 4966 717 
Q 4966 378 5072 262 
Q 5178 147 5530 122 
L 5530 0 
z
" transform="scale(0.015625)"/>
      <path id="STIXGeneral-Regular-4c" d="M 3827 1114 
L 3520 0 
L 77 0 
L 77 122 
Q 429 141 531 256 
Q 634 371 634 736 
L 634 3494 
Q 634 3872 541 3981 
Q 448 4090 77 4115 
L 77 4237 
L 1888 4237 
L 1888 4115 
Q 1498 4090 1392 3984 
Q 1286 3878 1286 3507 
L 1286 538 
Q 1286 358 1398 304 
Q 1510 250 1862 250 
L 2310 250 
Q 3085 250 3392 640 
Q 3520 813 3661 1114 
L 3827 1114 
z
" transform="scale(0.015625)"/>
     </defs>
     <use xlink:href="#STIXGeneral-Regular-4d"/>
     <use xlink:href="#STIXGeneral-Regular-4c" x="88.899994"/>
     <use xlink:href="#STIXGeneral-Regular-34" x="149.999985"/>
     <use xlink:href="#STIXGeneral-Regular-35" x="199.999969"/>
     <use xlink:href="#STIXGeneral-Regular-20" x="249.999954"/>
     <use xlink:href="#STIXGeneral-Regular-4d" x="274.999939"/>
     <use xlink:href="#STIXGeneral-Regular-65" x="363.899933"/>
     <use xlink:href="#STIXGeneral-Regular-74" x="408.299927"/>
     <use xlink:href="#STIXGeneral-Regular-61" x="436.099915"/>
     <use xlink:href="#STIXGeneral-Regular-20" x="480.499908"/>
     <use xlink:href="#STIXGeneral-Regular-54" x="505.499893"/>
     <use xlink:href="#STIXGeneral-Regular-65" x="566.599884"/>
     <use xlink:href="#STIXGeneral-Regular-73" x="610.999878"/>
     <use xlink:href="#STIXGeneral-Regular-74" x="649.899872"/>
     <use xlink:href="#STIXGeneral-Regular-69" x="677.69986"/>
     <use xlink:href="#STIXGeneral-Regular-6e" x="705.499847"/>
     <use xlink:href="#STIXGeneral-Regular-67" x="755.499832"/>
    </g>
   </g>
   <g id="legend_1">
    <g id="patch_7">
     <path d="M 405.125312 93.860125 
L 502.2 93.860125 
Q 505 93.860125 505 91.060125 
L 505 33.660125 
Q 505 30.860125 502.2 30.860125 
L 405.125312 30.860125 
Q 402.325312 30.860125 402.325312 33.660125 
L 402.325312 91.060125 
Q 402.325312 93.860125 405.125312 93.860125 
z
" style="fill: #ffffff; opacity: 0.8; stroke: #cccccc; stroke-linejoin: miter"/>
    </g>
    <g id="line2d_25">
     <path d="M 406.525312 40.771687 
L 413.525312 40.771687 
L 420.525312 40.771687 
" style="fill: none; stroke: #1f77b4; stroke-width: 1.5; stroke-linecap: square"/>
    </g>
    <g id="text_15">
     <!-- inner-lr=0.01 -->
     <g transform="translate(424.725312 44.621687)scale(0.14 -0.14)">
      <defs>
       <path id="STIXGeneral-Regular-2d" d="M 1824 1242 
L 250 1242 
L 250 1645 
L 1824 1645 
L 1824 1242 
z
" transform="scale(0.015625)"/>
       <path id="STIXGeneral-Regular-6c" d="M 1645 0 
L 134 0 
L 134 96 
Q 435 122 531 221 
Q 627 320 627 589 
L 627 3590 
Q 627 3821 569 3910 
Q 512 4000 358 4000 
Q 224 4000 122 3987 
L 122 4090 
Q 730 4237 1133 4371 
L 1165 4346 
L 1165 557 
Q 1165 288 1254 201 
Q 1344 115 1645 96 
L 1645 0 
z
" transform="scale(0.015625)"/>
       <path id="STIXGeneral-Regular-3d" d="M 4077 2048 
L 307 2048 
L 307 2470 
L 4077 2470 
L 4077 2048 
z
M 4077 768 
L 307 768 
L 307 1190 
L 4077 1190 
L 4077 768 
z
" transform="scale(0.015625)"/>
       <path id="STIXGeneral-Regular-2e" d="M 1158 275 
Q 1158 134 1052 32 
Q 947 -70 800 -70 
Q 653 -70 550 32 
Q 448 134 448 281 
Q 448 429 553 534 
Q 659 640 806 640 
Q 947 640 1052 531 
Q 1158 422 1158 275 
z
" transform="scale(0.015625)"/>
      </defs>
      <use xlink:href="#STIXGeneral-Regular-69"/>
      <use xlink:href="#STIXGeneral-Regular-6e" x="27.799988"/>
      <use xlink:href="#STIXGeneral-Regular-6e" x="77.799973"/>
      <use xlink:href="#STIXGeneral-Regular-65" x="127.799957"/>
      <use xlink:href="#STIXGeneral-Regular-72" x="172.199951"/>
      <use xlink:href="#STIXGeneral-Regular-2d" x="205.499939"/>
      <use xlink:href="#STIXGeneral-Regular-6c" x="238.799927"/>
      <use xlink:href="#STIXGeneral-Regular-72" x="266.599915"/>
      <use xlink:href="#STIXGeneral-Regular-3d" x="299.899902"/>
      <use xlink:href="#STIXGeneral-Regular-30" x="368.399887"/>
      <use xlink:href="#STIXGeneral-Regular-2e" x="418.399872"/>
      <use xlink:href="#STIXGeneral-Regular-30" x="443.399857"/>
      <use xlink:href="#STIXGeneral-Regular-31" x="493.399841"/>
     </g>
    </g>
    <g id="line2d_26">
     <path d="M 406.525312 54.771687 
L 413.525312 54.771687 
L 420.525312 54.771687 
" style="fill: none; stroke: #ff7f0e; stroke-width: 1.5; stroke-linecap: square"/>
    </g>
    <g id="text_16">
     <!-- inner-lr=0.05 -->
     <g transform="translate(424.725312 58.621687)scale(0.14 -0.14)">
      <use xlink:href="#STIXGeneral-Regular-69"/>
      <use xlink:href="#STIXGeneral-Regular-6e" x="27.799988"/>
      <use xlink:href="#STIXGeneral-Regular-6e" x="77.799973"/>
      <use xlink:href="#STIXGeneral-Regular-65" x="127.799957"/>
      <use xlink:href="#STIXGeneral-Regular-72" x="172.199951"/>
      <use xlink:href="#STIXGeneral-Regular-2d" x="205.499939"/>
      <use xlink:href="#STIXGeneral-Regular-6c" x="238.799927"/>
      <use xlink:href="#STIXGeneral-Regular-72" x="266.599915"/>
      <use xlink:href="#STIXGeneral-Regular-3d" x="299.899902"/>
      <use xlink:href="#STIXGeneral-Regular-30" x="368.399887"/>
      <use xlink:href="#STIXGeneral-Regular-2e" x="418.399872"/>
      <use xlink:href="#STIXGeneral-Regular-30" x="443.399857"/>
      <use xlink:href="#STIXGeneral-Regular-35" x="493.399841"/>
     </g>
    </g>
    <g id="line2d_27">
     <path d="M 406.525312 68.771687 
L 413.525312 68.771687 
L 420.525312 68.771687 
" style="fill: none; stroke: #2ca02c; stroke-width: 1.5; stroke-linecap: square"/>
    </g>
    <g id="text_17">
     <!-- inner-lr=0.1 -->
     <g transform="translate(424.725312 72.621687)scale(0.14 -0.14)">
      <use xlink:href="#STIXGeneral-Regular-69"/>
      <use xlink:href="#STIXGeneral-Regular-6e" x="27.799988"/>
      <use xlink:href="#STIXGeneral-Regular-6e" x="77.799973"/>
      <use xlink:href="#STIXGeneral-Regular-65" x="127.799957"/>
      <use xlink:href="#STIXGeneral-Regular-72" x="172.199951"/>
      <use xlink:href="#STIXGeneral-Regular-2d" x="205.499939"/>
      <use xlink:href="#STIXGeneral-Regular-6c" x="238.799927"/>
      <use xlink:href="#STIXGeneral-Regular-72" x="266.599915"/>
      <use xlink:href="#STIXGeneral-Regular-3d" x="299.899902"/>
      <use xlink:href="#STIXGeneral-Regular-30" x="368.399887"/>
      <use xlink:href="#STIXGeneral-Regular-2e" x="418.399872"/>
      <use xlink:href="#STIXGeneral-Regular-31" x="443.399857"/>
     </g>
    </g>
    <g id="line2d_28">
     <path d="M 406.525312 82.771687 
L 413.525312 82.771687 
L 420.525312 82.771687 
" style="fill: none; stroke: #d62728; stroke-width: 1.5; stroke-linecap: square"/>
    </g>
    <g id="text_18">
     <!-- inner-lr=0.5 -->
     <g transform="translate(424.725312 86.621687)scale(0.14 -0.14)">
      <use xlink:href="#STIXGeneral-Regular-69"/>
      <use xlink:href="#STIXGeneral-Regular-6e" x="27.799988"/>
      <use xlink:href="#STIXGeneral-Regular-6e" x="77.799973"/>
      <use xlink:href="#STIXGeneral-Regular-65" x="127.799957"/>
      <use xlink:href="#STIXGeneral-Regular-72" x="172.199951"/>
      <use xlink:href="#STIXGeneral-Regular-2d" x="205.499939"/>
      <use xlink:href="#STIXGeneral-Regular-6c" x="238.799927"/>
      <use xlink:href="#STIXGeneral-Regular-72" x="266.599915"/>
      <use xlink:href="#STIXGeneral-Regular-3d" x="299.899902"/>
      <use xlink:href="#STIXGeneral-Regular-30" x="368.399887"/>
      <use xlink:href="#STIXGeneral-Regular-2e" x="418.399872"/>
      <use xlink:href="#STIXGeneral-Regular-35" x="443.399857"/>
     </g>
    </g>
   </g>
  </g>
 </g>
 <defs>
  <clipPath id="pad9f110cba">
   <rect x="61.4" y="28.060125" width="446.4" height="277.2"/>
  </clipPath>
 </defs>
</svg>
