<?xml version="1.0" encoding="utf-8" standalone="no"?>
<!DOCTYPE svg PUBLIC "-//W3C//DTD SVG 1.1//EN"
  "http://www.w3.org/Graphics/SVG/1.1/DTD/svg11.dtd">
<svg xmlns:xlink="http://www.w3.org/1999/xlink" width="510.5pt" height="355.877pt" viewBox="0 0 510.5 355.877" xmlns="http://www.w3.org/2000/svg" version="1.1">
 <metadata>
  <rdf:RDF xmlns:dc="http://purl.org/dc/elements/1.1/" xmlns:cc="http://creativecommons.org/ns#" xmlns:rdf="http://www.w3.org/1999/02/22-rdf-syntax-ns#">
   <cc:Work>
    <dc:type rdf:resource="http://purl.org/dc/dcmitype/StillImage"/>
    <dc:date>2021-12-11T15:58:50.709628</dc:date>
    <dc:format>image/svg+xml</dc:format>
    <dc:creator>
     <cc:Agent>
      <dc:title>Matplotlib v3.5.0, https://matplotlib.org/</dc:title>
     </cc:Agent>
    </dc:creator>
   </cc:Work>
  </rdf:RDF>
 </metadata>
 <defs>
  <style type="text/css">*{stroke-linejoin: round; stroke-linecap: butt}</style>
 </defs>
 <g id="figure_1">
  <g id="patch_1">
   <path d="M 0 355.877 
L 510.5 355.877 
L 510.5 0 
L 0 0 
z
" style="fill: #ffffff"/>
  </g>
  <g id="axes_1">
   <g id="patch_2">
    <path d="M 56.9 305.260125 
L 503.3 305.260125 
L 503.3 28.060125 
L 56.9 28.060125 
z
" style="fill: #ffffff"/>
   </g>
   <g id="matplotlib.axis_1">
    <g id="xtick_1">
     <g id="line2d_1">
      <path d="M 75.704396 305.260125 
L 75.704396 28.060125 
" clip-path="url(#pa88c59d479)" style="fill: none; stroke: #b0b0b0; stroke-width: 0.8; stroke-linecap: square"/>
     </g>
     <g id="line2d_2">
      <defs>
       <path id="m7fb0ef375f" d="M 0 0 
L 0 3.5 
" style="stroke: #000000; stroke-width: 0.8"/>
      </defs>
      <g>
       <use xlink:href="#m7fb0ef375f" x="75.704396" y="305.260125" style="stroke: #000000; stroke-width: 0.8"/>
      </g>
     </g>
     <g id="text_1">
      <!-- 0 -->
      <g transform="translate(71.204396 324.553562)scale(0.18 -0.18)">
       <defs>
        <path id="STIXGeneral-Regular-30" d="M 3046 2112 
Q 3046 1683 2963 1302 
Q 2880 922 2717 602 
Q 2554 282 2266 96 
Q 1978 -90 1600 -90 
Q 1210 -90 915 108 
Q 621 307 461 640 
Q 301 973 227 1350 
Q 154 1728 154 2150 
Q 154 2746 301 3222 
Q 448 3699 790 4012 
Q 1133 4326 1626 4326 
Q 2253 4326 2649 3712 
Q 3046 3098 3046 2112 
z
M 2432 2080 
Q 2432 3091 2217 3625 
Q 2003 4160 1587 4160 
Q 1190 4160 979 3622 
Q 768 3085 768 2106 
Q 768 1120 979 598 
Q 1190 77 1600 77 
Q 2003 77 2217 598 
Q 2432 1120 2432 2080 
z
" transform="scale(0.015625)"/>
       </defs>
       <use xlink:href="#STIXGeneral-Regular-30"/>
      </g>
     </g>
    </g>
    <g id="xtick_2">
     <g id="line2d_3">
      <path d="M 149.112469 305.260125 
L 149.112469 28.060125 
" clip-path="url(#pa88c59d479)" style="fill: none; stroke: #b0b0b0; stroke-width: 0.8; stroke-linecap: square"/>
     </g>
     <g id="line2d_4">
      <g>
       <use xlink:href="#m7fb0ef375f" x="149.112469" y="305.260125" style="stroke: #000000; stroke-width: 0.8"/>
      </g>
     </g>
     <g id="text_2">
      <!-- 1 -->
      <g transform="translate(144.612469 324.553562)scale(0.18 -0.18)">
       <defs>
        <path id="STIXGeneral-Regular-31" d="M 2522 0 
L 755 0 
L 755 96 
Q 1107 115 1235 227 
Q 1363 339 1363 608 
L 1363 3482 
Q 1363 3795 1171 3795 
Q 1082 3795 883 3718 
L 710 3654 
L 710 3744 
L 1856 4326 
L 1914 4307 
L 1914 486 
Q 1914 275 2042 185 
Q 2170 96 2522 96 
L 2522 0 
z
" transform="scale(0.015625)"/>
       </defs>
       <use xlink:href="#STIXGeneral-Regular-31"/>
      </g>
     </g>
    </g>
    <g id="xtick_3">
     <g id="line2d_5">
      <path d="M 222.520542 305.260125 
L 222.520542 28.060125 
" clip-path="url(#pa88c59d479)" style="fill: none; stroke: #b0b0b0; stroke-width: 0.8; stroke-linecap: square"/>
     </g>
     <g id="line2d_6">
      <g>
       <use xlink:href="#m7fb0ef375f" x="222.520542" y="305.260125" style="stroke: #000000; stroke-width: 0.8"/>
      </g>
     </g>
     <g id="text_3">
      <!-- 2 -->
      <g transform="translate(218.020542 324.553562)scale(0.18 -0.18)">
       <defs>
        <path id="STIXGeneral-Regular-32" d="M 3034 877 
L 2688 0 
L 186 0 
L 186 77 
L 1325 1286 
Q 1773 1754 1965 2144 
Q 2157 2534 2157 2950 
Q 2157 3379 1920 3616 
Q 1683 3853 1267 3853 
Q 922 3853 720 3673 
Q 518 3494 326 3021 
L 192 3053 
Q 301 3648 630 3987 
Q 960 4326 1523 4326 
Q 2054 4326 2380 4006 
Q 2707 3686 2707 3200 
Q 2707 2477 1888 1613 
L 832 486 
L 2330 486 
Q 2541 486 2665 569 
Q 2790 653 2944 915 
L 3034 877 
z
" transform="scale(0.015625)"/>
       </defs>
       <use xlink:href="#STIXGeneral-Regular-32"/>
      </g>
     </g>
    </g>
    <g id="xtick_4">
     <g id="line2d_7">
      <path d="M 295.928616 305.260125 
L 295.928616 28.060125 
" clip-path="url(#pa88c59d479)" style="fill: none; stroke: #b0b0b0; stroke-width: 0.8; stroke-linecap: square"/>
     </g>
     <g id="line2d_8">
      <g>
       <use xlink:href="#m7fb0ef375f" x="295.928616" y="305.260125" style="stroke: #000000; stroke-width: 0.8"/>
      </g>
     </g>
     <g id="text_4">
      <!-- 3 -->
      <g transform="translate(291.428616 324.553562)scale(0.18 -0.18)">
       <defs>
        <path id="STIXGeneral-Regular-33" d="M 390 3264 
L 288 3290 
Q 435 3770 748 4048 
Q 1062 4326 1542 4326 
Q 1990 4326 2265 4083 
Q 2541 3840 2541 3450 
Q 2541 2925 1946 2566 
Q 2298 2413 2477 2227 
Q 2758 1914 2758 1402 
Q 2758 890 2464 506 
Q 2246 211 1840 60 
Q 1434 -90 979 -90 
Q 262 -90 262 275 
Q 262 378 339 442 
Q 416 506 525 506 
Q 685 506 915 339 
Q 1197 141 1466 141 
Q 1818 141 2058 425 
Q 2298 710 2298 1120 
Q 2298 1856 1632 2048 
Q 1434 2112 979 2112 
L 979 2202 
Q 1338 2323 1517 2432 
Q 2035 2726 2035 3290 
Q 2035 3610 1852 3776 
Q 1670 3942 1344 3942 
Q 768 3942 390 3264 
z
" transform="scale(0.015625)"/>
       </defs>
       <use xlink:href="#STIXGeneral-Regular-33"/>
      </g>
     </g>
    </g>
    <g id="xtick_5">
     <g id="line2d_9">
      <path d="M 369.336689 305.260125 
L 369.336689 28.060125 
" clip-path="url(#pa88c59d479)" style="fill: none; stroke: #b0b0b0; stroke-width: 0.8; stroke-linecap: square"/>
     </g>
     <g id="line2d_10">
      <g>
       <use xlink:href="#m7fb0ef375f" x="369.336689" y="305.260125" style="stroke: #000000; stroke-width: 0.8"/>
      </g>
     </g>
     <g id="text_5">
      <!-- 4 -->
      <g transform="translate(364.836689 324.553562)scale(0.18 -0.18)">
       <defs>
        <path id="STIXGeneral-Regular-34" d="M 3027 1069 
L 2368 1069 
L 2368 0 
L 1869 0 
L 1869 1069 
L 77 1069 
L 77 1478 
L 2086 4326 
L 2368 4326 
L 2368 1478 
L 3027 1478 
L 3027 1069 
z
M 1869 1478 
L 1869 3674 
L 333 1478 
L 1869 1478 
z
" transform="scale(0.015625)"/>
       </defs>
       <use xlink:href="#STIXGeneral-Regular-34"/>
      </g>
     </g>
    </g>
    <g id="xtick_6">
     <g id="line2d_11">
      <path d="M 442.744763 305.260125 
L 442.744763 28.060125 
" clip-path="url(#pa88c59d479)" style="fill: none; stroke: #b0b0b0; stroke-width: 0.8; stroke-linecap: square"/>
     </g>
     <g id="line2d_12">
      <g>
       <use xlink:href="#m7fb0ef375f" x="442.744763" y="305.260125" style="stroke: #000000; stroke-width: 0.8"/>
      </g>
     </g>
     <g id="text_6">
      <!-- 5 -->
      <g transform="translate(438.244763 324.553562)scale(0.18 -0.18)">
       <defs>
        <path id="STIXGeneral-Regular-35" d="M 2803 4358 
L 2573 3814 
Q 2534 3731 2400 3731 
L 1158 3731 
L 902 3187 
Q 1606 3053 1920 2896 
Q 2234 2739 2502 2368 
Q 2726 2061 2726 1555 
Q 2726 1094 2576 780 
Q 2426 467 2099 224 
Q 1664 -90 1011 -90 
Q 646 -90 422 19 
Q 198 128 198 307 
Q 198 550 486 550 
Q 717 550 960 352 
Q 1210 147 1414 147 
Q 1747 147 2012 480 
Q 2278 813 2278 1229 
Q 2278 1843 1850 2189 
Q 1293 2637 486 2637 
Q 410 2637 410 2688 
L 416 2720 
L 1114 4237 
L 2438 4237 
Q 2547 4237 2608 4269 
Q 2669 4301 2746 4403 
L 2803 4358 
z
" transform="scale(0.015625)"/>
       </defs>
       <use xlink:href="#STIXGeneral-Regular-35"/>
      </g>
     </g>
    </g>
    <g id="text_7">
     <!-- Training Environment Steps -->
     <g transform="translate(178.104688 344.753562)scale(0.18 -0.18)">
      <defs>
       <path id="STIXGeneral-Regular-54" d="M 3795 3149 
L 3642 3149 
Q 3539 3674 3353 3821 
Q 3168 3968 2656 3968 
L 2278 3968 
L 2278 710 
Q 2278 346 2387 243 
Q 2496 141 2893 122 
L 2893 0 
L 1024 0 
L 1024 122 
Q 1427 147 1526 256 
Q 1626 365 1626 787 
L 1626 3968 
L 1242 3968 
Q 723 3968 540 3817 
Q 358 3667 262 3149 
L 109 3149 
L 154 4237 
L 3750 4237 
L 3795 3149 
z
" transform="scale(0.015625)"/>
       <path id="STIXGeneral-Regular-72" d="M 1024 2931 
L 1024 2342 
Q 1267 2688 1430 2816 
Q 1594 2944 1792 2944 
Q 1958 2944 2051 2854 
Q 2144 2765 2144 2605 
Q 2144 2470 2077 2393 
Q 2010 2317 1894 2317 
Q 1773 2317 1638 2445 
Q 1536 2541 1472 2541 
Q 1338 2541 1181 2355 
Q 1024 2170 1024 2016 
L 1024 576 
Q 1024 301 1133 205 
Q 1242 109 1568 96 
L 1568 0 
L 32 0 
L 32 96 
Q 339 154 412 224 
Q 486 294 486 538 
L 486 2138 
Q 486 2349 438 2435 
Q 390 2522 269 2522 
Q 166 2522 45 2496 
L 45 2598 
Q 448 2726 992 2944 
L 1024 2931 
z
" transform="scale(0.015625)"/>
       <path id="STIXGeneral-Regular-61" d="M 2829 422 
L 2829 243 
Q 2586 -64 2253 -64 
Q 1888 -64 1843 403 
L 1837 403 
Q 1427 -64 909 -64 
Q 608 -64 422 112 
Q 237 288 237 602 
Q 237 1050 685 1350 
Q 992 1555 1837 1869 
L 1837 2214 
Q 1837 2502 1699 2646 
Q 1562 2790 1338 2790 
Q 1146 2790 1018 2697 
Q 890 2605 890 2477 
Q 890 2419 909 2348 
Q 928 2278 928 2208 
Q 928 2112 841 2029 
Q 755 1946 634 1946 
Q 525 1946 441 2029 
Q 358 2112 358 2240 
Q 358 2547 685 2752 
Q 986 2944 1421 2944 
Q 1939 2944 2176 2656 
Q 2291 2522 2323 2384 
Q 2355 2246 2355 1946 
L 2355 723 
Q 2355 301 2554 301 
Q 2682 301 2829 422 
z
M 1837 813 
L 1837 1715 
Q 1248 1510 1018 1293 
Q 800 1094 800 800 
Q 800 557 921 432 
Q 1043 307 1242 307 
Q 1453 307 1613 410 
Q 1747 506 1792 589 
Q 1837 672 1837 813 
z
" transform="scale(0.015625)"/>
       <path id="STIXGeneral-Regular-69" d="M 1152 4045 
Q 1152 3904 1056 3811 
Q 960 3718 819 3718 
Q 685 3718 592 3811 
Q 499 3904 499 4045 
Q 499 4179 595 4275 
Q 691 4371 826 4371 
Q 966 4371 1059 4275 
Q 1152 4179 1152 4045 
z
M 1619 0 
L 102 0 
L 102 96 
Q 435 115 521 211 
Q 608 307 608 666 
L 608 2118 
Q 608 2342 563 2432 
Q 518 2522 397 2522 
Q 243 2522 128 2490 
L 128 2592 
L 1120 2944 
L 1146 2918 
L 1146 672 
Q 1146 314 1226 218 
Q 1306 122 1619 96 
L 1619 0 
z
" transform="scale(0.015625)"/>
       <path id="STIXGeneral-Regular-6e" d="M 3104 0 
L 1773 0 
L 1779 96 
Q 2016 115 2096 233 
Q 2176 352 2176 672 
L 2176 1946 
Q 2176 2592 1709 2592 
Q 1549 2592 1408 2515 
Q 1267 2438 1050 2227 
L 1050 461 
Q 1050 269 1136 192 
Q 1222 115 1466 96 
L 1466 0 
L 115 0 
L 115 96 
Q 358 115 435 214 
Q 512 314 512 602 
L 512 2157 
Q 512 2394 467 2483 
Q 422 2573 288 2573 
Q 160 2573 102 2547 
L 102 2656 
Q 550 2784 979 2944 
L 1030 2925 
L 1030 2426 
L 1037 2426 
Q 1491 2944 1958 2944 
Q 2323 2944 2518 2688 
Q 2714 2432 2714 1958 
L 2714 544 
Q 2714 288 2790 205 
Q 2867 122 3104 96 
L 3104 0 
z
" transform="scale(0.015625)"/>
       <path id="STIXGeneral-Regular-67" d="M 3008 2483 
L 2477 2483 
Q 2598 2208 2598 1946 
Q 2598 1453 2265 1203 
Q 1933 954 1600 954 
Q 1530 954 1357 973 
L 1235 986 
Q 1107 947 979 812 
Q 851 678 851 582 
Q 851 435 1350 410 
L 2176 371 
Q 2528 358 2739 172 
Q 2950 -13 2950 -314 
Q 2950 -685 2566 -986 
Q 2035 -1395 1286 -1395 
Q 826 -1395 502 -1212 
Q 179 -1030 179 -774 
Q 179 -595 320 -419 
Q 461 -243 806 6 
Q 602 102 534 172 
Q 467 243 467 346 
Q 467 531 762 787 
Q 909 915 1037 1043 
Q 717 1203 579 1401 
Q 442 1600 442 1901 
Q 442 2336 752 2640 
Q 1062 2944 1510 2944 
Q 1766 2944 2022 2848 
L 2163 2797 
Q 2349 2733 2515 2733 
L 3008 2733 
L 3008 2483 
z
M 973 2163 
L 973 2144 
Q 973 1683 1155 1398 
Q 1338 1114 1632 1114 
Q 1850 1114 1978 1270 
Q 2106 1427 2106 1690 
Q 2106 2112 1914 2464 
Q 1754 2765 1446 2765 
Q 1222 2765 1097 2605 
Q 973 2445 973 2163 
z
M 2771 -410 
Q 2771 -230 2595 -163 
Q 2419 -96 1978 -96 
Q 1344 -96 941 -13 
Q 749 -243 688 -348 
Q 627 -454 627 -563 
Q 627 -774 880 -902 
Q 1133 -1030 1555 -1030 
Q 2099 -1030 2435 -860 
Q 2771 -691 2771 -410 
z
" transform="scale(0.015625)"/>
       <path id="STIXGeneral-Regular-20" transform="scale(0.015625)"/>
       <path id="STIXGeneral-Regular-45" d="M 3821 1082 
L 3526 0 
L 77 0 
L 77 122 
Q 442 147 538 252 
Q 634 358 634 730 
L 634 3520 
Q 634 3878 534 3987 
Q 435 4096 77 4115 
L 77 4237 
L 3469 4237 
L 3494 3322 
L 3334 3322 
Q 3264 3750 3085 3872 
Q 2906 3994 2349 3994 
L 1510 3994 
Q 1370 3994 1328 3952 
Q 1286 3910 1286 3763 
L 1286 2355 
L 2253 2355 
Q 2656 2355 2787 2470 
Q 2918 2586 2976 2970 
L 3123 2970 
L 3123 1472 
L 2976 1472 
Q 2918 1875 2790 1984 
Q 2662 2093 2253 2093 
L 1286 2093 
L 1286 538 
Q 1286 346 1420 291 
Q 1555 237 1933 237 
L 2163 237 
Q 2848 237 3136 403 
Q 3424 570 3642 1082 
L 3821 1082 
z
" transform="scale(0.015625)"/>
       <path id="STIXGeneral-Regular-76" d="M 3053 2880 
L 3053 2784 
Q 2906 2771 2835 2688 
Q 2765 2605 2637 2285 
L 1818 230 
Q 1690 -90 1638 -90 
Q 1587 -90 1523 77 
Q 1510 96 1497 141 
Q 1485 186 1472 211 
L 704 2048 
Q 499 2534 403 2652 
Q 307 2771 122 2784 
L 122 2880 
L 1376 2880 
L 1376 2784 
Q 1210 2771 1146 2732 
Q 1082 2694 1082 2611 
Q 1082 2509 1139 2368 
L 1792 730 
L 2426 2387 
Q 2464 2483 2464 2579 
Q 2464 2758 2163 2784 
L 2163 2880 
L 3053 2880 
z
" transform="scale(0.015625)"/>
       <path id="STIXGeneral-Regular-6f" d="M 3008 1478 
Q 3008 806 2608 371 
Q 2208 -64 1568 -64 
Q 979 -64 582 368 
Q 186 800 186 1459 
Q 186 2125 582 2534 
Q 979 2944 1626 2944 
Q 2221 2944 2614 2537 
Q 3008 2131 3008 1478 
z
M 2432 1306 
Q 2432 2035 2112 2445 
Q 1856 2765 1504 2765 
Q 1171 2765 966 2493 
Q 762 2221 762 1747 
Q 762 928 1101 435 
Q 1318 115 1677 115 
Q 2029 115 2230 432 
Q 2432 749 2432 1306 
z
" transform="scale(0.015625)"/>
       <path id="STIXGeneral-Regular-6d" d="M 4960 0 
L 3565 0 
L 3565 96 
Q 3834 122 3907 208 
Q 3981 294 3981 576 
L 3981 1894 
Q 3981 2278 3869 2444 
Q 3757 2611 3488 2611 
Q 3264 2611 3107 2521 
Q 2950 2432 2803 2221 
L 2803 608 
Q 2803 301 2896 201 
Q 2989 102 3264 96 
L 3264 0 
L 1830 0 
L 1830 96 
Q 2112 115 2189 188 
Q 2266 262 2266 550 
L 2266 1901 
Q 2266 2611 1850 2611 
Q 1670 2611 1468 2531 
Q 1267 2451 1171 2336 
Q 1088 2240 1088 2227 
L 1088 448 
Q 1088 243 1177 176 
Q 1267 109 1523 96 
L 1523 0 
L 102 0 
L 102 96 
Q 371 102 460 195 
Q 550 288 550 563 
L 550 2150 
Q 550 2387 499 2480 
Q 448 2573 326 2573 
Q 230 2573 122 2547 
L 122 2656 
Q 557 2778 1011 2944 
L 1062 2925 
L 1062 2451 
L 1075 2451 
Q 1363 2752 1584 2848 
Q 1805 2944 2054 2944 
Q 2560 2944 2733 2406 
Q 3232 2944 3776 2944 
Q 4518 2944 4518 1792 
L 4518 493 
Q 4518 282 4582 202 
Q 4646 122 4794 109 
L 4960 96 
L 4960 0 
z
" transform="scale(0.015625)"/>
       <path id="STIXGeneral-Regular-65" d="M 2611 1050 
L 2714 1005 
Q 2330 -64 1376 -64 
Q 813 -64 486 329 
Q 160 723 160 1389 
Q 160 2074 525 2509 
Q 890 2944 1485 2944 
Q 2061 2944 2374 2502 
Q 2560 2246 2592 1773 
L 621 1773 
Q 646 1370 700 1158 
Q 755 947 915 730 
Q 1184 378 1626 378 
Q 1939 378 2153 531 
Q 2368 685 2611 1050 
z
M 634 1978 
L 1939 1978 
Q 1882 2381 1750 2547 
Q 1619 2714 1312 2714 
Q 1043 2714 864 2525 
Q 685 2336 634 1978 
z
" transform="scale(0.015625)"/>
       <path id="STIXGeneral-Regular-74" d="M 1702 493 
L 1786 422 
Q 1478 -64 1011 -64 
Q 448 -64 448 749 
L 448 2675 
L 109 2675 
Q 83 2694 83 2720 
Q 83 2771 192 2842 
Q 435 2982 813 3526 
Q 826 3546 874 3606 
Q 922 3667 941 3706 
Q 986 3706 986 3622 
L 986 2880 
L 1632 2880 
L 1632 2675 
L 986 2675 
L 986 845 
Q 986 538 1062 403 
Q 1139 269 1318 269 
Q 1510 269 1702 493 
z
" transform="scale(0.015625)"/>
       <path id="STIXGeneral-Regular-53" d="M 3002 2963 
L 2842 2963 
Q 2733 3360 2579 3565 
Q 2189 4064 1651 4064 
Q 1357 4064 1181 3894 
Q 1005 3725 1005 3456 
Q 1005 3328 1069 3206 
Q 1133 3085 1206 2998 
Q 1280 2912 1465 2784 
Q 1651 2656 1766 2589 
Q 1882 2522 2150 2362 
Q 2669 2061 2905 1763 
Q 3142 1466 3142 1107 
Q 3142 576 2771 243 
Q 2400 -90 1837 -90 
Q 1421 -90 1082 58 
Q 915 128 781 128 
Q 704 128 653 70 
Q 602 13 602 -83 
L 461 -83 
L 275 1274 
L 416 1274 
Q 845 141 1734 141 
Q 2074 141 2285 342 
Q 2496 544 2496 858 
Q 2496 1158 2310 1363 
Q 2003 1696 1235 2106 
Q 454 2522 454 3206 
Q 454 3718 768 4022 
Q 1082 4326 1568 4326 
Q 1907 4326 2240 4186 
Q 2413 4109 2522 4109 
Q 2688 4109 2726 4326 
L 2861 4326 
L 3002 2963 
z
" transform="scale(0.015625)"/>
       <path id="STIXGeneral-Regular-70" d="M 1018 2931 
L 1018 2438 
Q 1421 2944 1939 2944 
Q 2406 2944 2707 2560 
Q 3008 2176 3008 1581 
Q 3008 883 2621 409 
Q 2234 -64 1664 -64 
Q 1466 -64 1328 -6 
Q 1190 51 1018 211 
L 1018 -794 
Q 1018 -1094 1120 -1180 
Q 1222 -1267 1581 -1274 
L 1581 -1389 
L 32 -1389 
L 32 -1280 
Q 314 -1254 397 -1171 
Q 480 -1088 480 -838 
L 480 2157 
Q 480 2381 429 2451 
Q 378 2522 218 2522 
Q 115 2522 58 2515 
L 58 2618 
Q 506 2752 979 2944 
L 1018 2931 
z
M 1018 2138 
L 1018 563 
Q 1018 422 1238 281 
Q 1459 141 1683 141 
Q 2029 141 2243 467 
Q 2458 794 2458 1325 
Q 2458 1888 2243 2224 
Q 2029 2560 1670 2560 
Q 1446 2560 1232 2419 
Q 1018 2278 1018 2138 
z
" transform="scale(0.015625)"/>
       <path id="STIXGeneral-Regular-73" d="M 998 1926 
L 1664 1523 
Q 1984 1331 2105 1164 
Q 2227 998 2227 736 
Q 2227 416 1961 176 
Q 1696 -64 1331 -64 
Q 1030 -64 864 -6 
Q 691 51 570 51 
Q 461 51 416 -26 
L 333 -26 
L 333 979 
L 435 979 
Q 538 512 730 294 
Q 922 77 1248 77 
Q 1485 77 1632 211 
Q 1779 346 1779 550 
Q 1779 845 1440 1030 
L 1094 1222 
Q 326 1651 326 2150 
Q 326 2522 566 2730 
Q 806 2938 1210 2938 
Q 1491 2938 1638 2867 
Q 1754 2816 1818 2816 
Q 1862 2816 1920 2880 
L 1990 2880 
L 2022 2010 
L 1926 2010 
Q 1818 2445 1654 2621 
Q 1491 2797 1203 2797 
Q 986 2797 854 2688 
Q 723 2579 723 2362 
Q 723 2253 796 2128 
Q 870 2003 998 1926 
z
" transform="scale(0.015625)"/>
      </defs>
      <use xlink:href="#STIXGeneral-Regular-54"/>
      <use xlink:href="#STIXGeneral-Regular-72" x="61.099991"/>
      <use xlink:href="#STIXGeneral-Regular-61" x="94.399979"/>
      <use xlink:href="#STIXGeneral-Regular-69" x="138.799973"/>
      <use xlink:href="#STIXGeneral-Regular-6e" x="166.59996"/>
      <use xlink:href="#STIXGeneral-Regular-69" x="216.599945"/>
      <use xlink:href="#STIXGeneral-Regular-6e" x="244.399933"/>
      <use xlink:href="#STIXGeneral-Regular-67" x="294.399918"/>
      <use xlink:href="#STIXGeneral-Regular-20" x="344.399902"/>
      <use xlink:href="#STIXGeneral-Regular-45" x="369.399887"/>
      <use xlink:href="#STIXGeneral-Regular-6e" x="430.499878"/>
      <use xlink:href="#STIXGeneral-Regular-76" x="480.499863"/>
      <use xlink:href="#STIXGeneral-Regular-69" x="530.499847"/>
      <use xlink:href="#STIXGeneral-Regular-72" x="558.299835"/>
      <use xlink:href="#STIXGeneral-Regular-6f" x="591.599823"/>
      <use xlink:href="#STIXGeneral-Regular-6e" x="641.599808"/>
      <use xlink:href="#STIXGeneral-Regular-6d" x="691.599792"/>
      <use xlink:href="#STIXGeneral-Regular-65" x="769.39978"/>
      <use xlink:href="#STIXGeneral-Regular-6e" x="813.799774"/>
      <use xlink:href="#STIXGeneral-Regular-74" x="863.799759"/>
      <use xlink:href="#STIXGeneral-Regular-20" x="891.599747"/>
      <use xlink:href="#STIXGeneral-Regular-53" x="916.599731"/>
      <use xlink:href="#STIXGeneral-Regular-74" x="972.199722"/>
      <use xlink:href="#STIXGeneral-Regular-65" x="999.99971"/>
      <use xlink:href="#STIXGeneral-Regular-70" x="1044.399704"/>
      <use xlink:href="#STIXGeneral-Regular-73" x="1094.399689"/>
     </g>
    </g>
    <g id="text_8">
     <!-- 1e8 -->
     <g transform="translate(477.306875 343.753562)scale(0.18 -0.18)">
      <defs>
       <path id="STIXGeneral-Regular-38" d="M 2848 992 
Q 2848 499 2505 204 
Q 2163 -90 1587 -90 
Q 1050 -90 704 204 
Q 358 499 358 954 
Q 358 1293 524 1533 
Q 691 1773 1190 2125 
Q 710 2522 553 2765 
Q 397 3008 397 3328 
Q 397 3782 745 4054 
Q 1094 4326 1638 4326 
Q 2106 4326 2410 4060 
Q 2714 3795 2714 3411 
Q 2714 3059 2531 2848 
Q 2349 2637 1856 2374 
Q 2432 1990 2640 1689 
Q 2848 1389 2848 992 
z
M 2272 3411 
Q 2272 3744 2086 3945 
Q 1901 4147 1574 4147 
Q 1248 4147 1059 3977 
Q 870 3808 870 3513 
Q 870 3219 1059 2979 
Q 1248 2739 1670 2490 
Q 1997 2682 2134 2896 
Q 2272 3110 2272 3411 
z
M 1734 1741 
L 1357 1997 
Q 1075 1766 960 1545 
Q 845 1325 845 1011 
Q 845 576 1065 333 
Q 1286 90 1658 90 
Q 1971 90 2166 285 
Q 2362 480 2362 794 
Q 2362 1082 2214 1299 
Q 2067 1517 1734 1741 
z
" transform="scale(0.015625)"/>
      </defs>
      <use xlink:href="#STIXGeneral-Regular-31"/>
      <use xlink:href="#STIXGeneral-Regular-65" x="49.999985"/>
      <use xlink:href="#STIXGeneral-Regular-38" x="94.399979"/>
     </g>
    </g>
   </g>
   <g id="matplotlib.axis_2">
    <g id="ytick_1">
     <g id="line2d_13">
      <path d="M 56.9 292.660125 
L 503.3 292.660125 
" clip-path="url(#pa88c59d479)" style="fill: none; stroke: #b0b0b0; stroke-width: 0.8; stroke-linecap: square"/>
     </g>
     <g id="line2d_14">
      <defs>
       <path id="m55a3fa822b" d="M 0 0 
L -3.5 0 
" style="stroke: #000000; stroke-width: 0.8"/>
      </defs>
      <g>
       <use xlink:href="#m55a3fa822b" x="56.9" y="292.660125" style="stroke: #000000; stroke-width: 0.8"/>
      </g>
     </g>
     <g id="text_9">
      <!-- 0.0 -->
      <g transform="translate(27.4 298.806844)scale(0.18 -0.18)">
       <defs>
        <path id="STIXGeneral-Regular-2e" d="M 1158 275 
Q 1158 134 1052 32 
Q 947 -70 800 -70 
Q 653 -70 550 32 
Q 448 134 448 281 
Q 448 429 553 534 
Q 659 640 806 640 
Q 947 640 1052 531 
Q 1158 422 1158 275 
z
" transform="scale(0.015625)"/>
       </defs>
       <use xlink:href="#STIXGeneral-Regular-30"/>
       <use xlink:href="#STIXGeneral-Regular-2e" x="49.999985"/>
       <use xlink:href="#STIXGeneral-Regular-30" x="74.999969"/>
      </g>
     </g>
    </g>
    <g id="ytick_2">
     <g id="line2d_15">
      <path d="M 56.9 246.011468 
L 503.3 246.011468 
" clip-path="url(#pa88c59d479)" style="fill: none; stroke: #b0b0b0; stroke-width: 0.8; stroke-linecap: square"/>
     </g>
     <g id="line2d_16">
      <g>
       <use xlink:href="#m55a3fa822b" x="56.9" y="246.011468" style="stroke: #000000; stroke-width: 0.8"/>
      </g>
     </g>
     <g id="text_10">
      <!-- 0.1 -->
      <g transform="translate(27.4 252.158187)scale(0.18 -0.18)">
       <use xlink:href="#STIXGeneral-Regular-30"/>
       <use xlink:href="#STIXGeneral-Regular-2e" x="49.999985"/>
       <use xlink:href="#STIXGeneral-Regular-31" x="74.999969"/>
      </g>
     </g>
    </g>
    <g id="ytick_3">
     <g id="line2d_17">
      <path d="M 56.9 199.362811 
L 503.3 199.362811 
" clip-path="url(#pa88c59d479)" style="fill: none; stroke: #b0b0b0; stroke-width: 0.8; stroke-linecap: square"/>
     </g>
     <g id="line2d_18">
      <g>
       <use xlink:href="#m55a3fa822b" x="56.9" y="199.362811" style="stroke: #000000; stroke-width: 0.8"/>
      </g>
     </g>
     <g id="text_11">
      <!-- 0.2 -->
      <g transform="translate(27.4 205.50953)scale(0.18 -0.18)">
       <use xlink:href="#STIXGeneral-Regular-30"/>
       <use xlink:href="#STIXGeneral-Regular-2e" x="49.999985"/>
       <use xlink:href="#STIXGeneral-Regular-32" x="74.999969"/>
      </g>
     </g>
    </g>
    <g id="ytick_4">
     <g id="line2d_19">
      <path d="M 56.9 152.714154 
L 503.3 152.714154 
" clip-path="url(#pa88c59d479)" style="fill: none; stroke: #b0b0b0; stroke-width: 0.8; stroke-linecap: square"/>
     </g>
     <g id="line2d_20">
      <g>
       <use xlink:href="#m55a3fa822b" x="56.9" y="152.714154" style="stroke: #000000; stroke-width: 0.8"/>
      </g>
     </g>
     <g id="text_12">
      <!-- 0.3 -->
      <g transform="translate(27.4 158.860873)scale(0.18 -0.18)">
       <use xlink:href="#STIXGeneral-Regular-30"/>
       <use xlink:href="#STIXGeneral-Regular-2e" x="49.999985"/>
       <use xlink:href="#STIXGeneral-Regular-33" x="74.999969"/>
      </g>
     </g>
    </g>
    <g id="ytick_5">
     <g id="line2d_21">
      <path d="M 56.9 106.065497 
L 503.3 106.065497 
" clip-path="url(#pa88c59d479)" style="fill: none; stroke: #b0b0b0; stroke-width: 0.8; stroke-linecap: square"/>
     </g>
     <g id="line2d_22">
      <g>
       <use xlink:href="#m55a3fa822b" x="56.9" y="106.065497" style="stroke: #000000; stroke-width: 0.8"/>
      </g>
     </g>
     <g id="text_13">
      <!-- 0.4 -->
      <g transform="translate(27.4 112.212216)scale(0.18 -0.18)">
       <use xlink:href="#STIXGeneral-Regular-30"/>
       <use xlink:href="#STIXGeneral-Regular-2e" x="49.999985"/>
       <use xlink:href="#STIXGeneral-Regular-34" x="74.999969"/>
      </g>
     </g>
    </g>
    <g id="ytick_6">
     <g id="line2d_23">
      <path d="M 56.9 59.41684 
L 503.3 59.41684 
" clip-path="url(#pa88c59d479)" style="fill: none; stroke: #b0b0b0; stroke-width: 0.8; stroke-linecap: square"/>
     </g>
     <g id="line2d_24">
      <g>
       <use xlink:href="#m55a3fa822b" x="56.9" y="59.41684" style="stroke: #000000; stroke-width: 0.8"/>
      </g>
     </g>
     <g id="text_14">
      <!-- 0.5 -->
      <g transform="translate(27.4 65.563559)scale(0.18 -0.18)">
       <use xlink:href="#STIXGeneral-Regular-30"/>
       <use xlink:href="#STIXGeneral-Regular-2e" x="49.999985"/>
       <use xlink:href="#STIXGeneral-Regular-35" x="74.999969"/>
      </g>
     </g>
    </g>
    <g id="text_15">
     <!-- Success Rate -->
     <g transform="translate(19.493438 213.9045)rotate(-90)scale(0.18 -0.18)">
      <defs>
       <path id="STIXGeneral-Regular-75" d="M 3072 320 
L 3072 230 
Q 2573 96 2195 -58 
L 2163 -38 
L 2163 486 
L 2150 486 
Q 1747 -64 1235 -64 
Q 870 -64 662 160 
Q 454 384 454 755 
L 454 2362 
Q 454 2598 371 2688 
Q 288 2778 58 2790 
L 58 2880 
L 992 2880 
L 992 813 
Q 992 595 1123 451 
Q 1254 307 1446 307 
Q 1760 307 1984 506 
Q 2067 582 2099 649 
Q 2131 717 2131 877 
L 2131 2355 
Q 2131 2605 2041 2678 
Q 1952 2752 1658 2771 
L 1658 2880 
L 2669 2880 
L 2669 685 
Q 2669 461 2742 390 
Q 2816 320 3034 320 
L 3072 320 
z
" transform="scale(0.015625)"/>
       <path id="STIXGeneral-Regular-63" d="M 2547 998 
L 2637 941 
Q 2362 403 2112 205 
Q 1786 -64 1376 -64 
Q 845 -64 502 336 
Q 160 736 160 1357 
Q 160 2170 698 2618 
Q 1094 2944 1562 2944 
Q 1965 2944 2256 2749 
Q 2547 2554 2547 2285 
Q 2547 2176 2457 2096 
Q 2368 2016 2246 2016 
Q 2022 2016 1939 2310 
L 1901 2451 
Q 1850 2630 1773 2694 
Q 1696 2758 1523 2758 
Q 1133 2758 893 2451 
Q 653 2144 653 1645 
Q 653 1094 928 745 
Q 1203 397 1645 397 
Q 1920 397 2118 528 
Q 2317 659 2547 998 
z
" transform="scale(0.015625)"/>
       <path id="STIXGeneral-Regular-52" d="M 4224 0 
L 3187 0 
L 1664 1971 
L 1306 1958 
L 1306 717 
Q 1306 352 1405 249 
Q 1504 147 1875 122 
L 1875 0 
L 109 0 
L 109 122 
Q 474 154 563 262 
Q 653 371 653 794 
L 653 3526 
Q 653 3885 563 3987 
Q 474 4090 109 4115 
L 109 4237 
L 1850 4237 
Q 2726 4237 3187 3859 
Q 3501 3603 3501 3091 
Q 3501 2221 2342 2042 
L 3622 422 
Q 3757 256 3878 198 
Q 4000 141 4224 122 
L 4224 0 
z
M 1306 3731 
L 1306 2195 
Q 1766 2202 1990 2246 
Q 2214 2291 2438 2413 
Q 2803 2618 2803 3142 
Q 2803 4000 1632 4000 
Q 1459 4000 1382 3945 
Q 1306 3891 1306 3731 
z
" transform="scale(0.015625)"/>
      </defs>
      <use xlink:href="#STIXGeneral-Regular-53"/>
      <use xlink:href="#STIXGeneral-Regular-75" x="55.599991"/>
      <use xlink:href="#STIXGeneral-Regular-63" x="105.599976"/>
      <use xlink:href="#STIXGeneral-Regular-63" x="149.999969"/>
      <use xlink:href="#STIXGeneral-Regular-65" x="194.399963"/>
      <use xlink:href="#STIXGeneral-Regular-73" x="238.799957"/>
      <use xlink:href="#STIXGeneral-Regular-73" x="277.699951"/>
      <use xlink:href="#STIXGeneral-Regular-20" x="316.599945"/>
      <use xlink:href="#STIXGeneral-Regular-52" x="341.59993"/>
      <use xlink:href="#STIXGeneral-Regular-61" x="408.299927"/>
      <use xlink:href="#STIXGeneral-Regular-74" x="452.699921"/>
      <use xlink:href="#STIXGeneral-Regular-65" x="480.499908"/>
     </g>
    </g>
   </g>
   <g id="line2d_25">
    <path d="M 77.190909 292.660125 
L 439.9002 292.660125 
L 441.386713 288.928233 
L 442.873227 290.42099 
L 444.35974 291.316644 
L 445.846254 291.854036 
L 447.332767 292.176472 
L 450.305794 292.48601 
L 454.765335 292.622516 
L 468.143956 292.659746 
L 483.009091 292.660123 
L 483.009091 292.660123 
" clip-path="url(#pa88c59d479)" style="fill: none; stroke: #1f77b4; stroke-width: 1.5; stroke-linecap: square"/>
   </g>
   <g id="line2d_26">
    <path d="M 77.190909 292.660125 
L 78.677423 288.928233 
L 80.163936 290.42099 
L 81.65045 291.316644 
L 83.136963 288.122144 
L 84.623477 289.937336 
L 86.10999 291.026452 
L 87.596503 291.679921 
L 89.083017 292.072003 
L 92.056044 292.448401 
L 96.515584 292.614393 
L 98.002098 288.900793 
L 99.488611 290.404526 
L 100.975125 291.306766 
L 102.461638 291.848109 
L 103.948152 292.172916 
L 106.921179 292.48473 
L 111.380719 292.62224 
L 123.272827 292.659489 
L 124.759341 288.927851 
L 126.245854 290.42076 
L 127.732368 291.316506 
L 129.218881 291.853954 
L 130.705395 292.176422 
L 133.678422 292.485992 
L 138.137962 292.622512 
L 148.543556 292.659072 
L 150.03007 288.927601 
L 151.516583 290.42061 
L 153.003097 291.316416 
L 154.48961 291.8539 
L 155.976124 292.17639 
L 158.949151 292.48598 
L 163.408691 292.62251 
L 166.381718 292.646584 
L 167.868232 288.920108 
L 169.354745 290.416115 
L 170.841259 291.313719 
L 172.327772 291.852281 
L 173.814286 292.175419 
L 176.787313 292.485631 
L 181.246853 292.622434 
L 194.625475 292.659745 
L 265.978122 292.660125 
L 267.464635 288.928233 
L 268.951149 290.42099 
L 270.437662 291.316644 
L 271.924176 291.854036 
L 273.410689 292.176472 
L 276.383716 292.48601 
L 280.843257 292.622516 
L 294.221878 292.659746 
L 295.708392 292.659898 
L 297.194905 288.928096 
L 298.681419 290.420908 
L 300.167932 291.316595 
L 301.654446 291.854007 
L 303.140959 292.176454 
L 306.113986 292.486003 
L 307.6005 288.82376 
L 309.087013 290.358306 
L 310.573526 291.279033 
L 312.06004 291.83147 
L 313.546553 292.162932 
L 316.51958 292.481136 
L 320.979121 292.621463 
L 334.357742 292.659735 
L 337.330769 292.659985 
L 338.817283 288.928148 
L 340.303796 290.420939 
L 341.79031 291.316613 
L 343.276823 291.854018 
L 344.763337 292.176461 
L 347.736364 292.486006 
L 349.222877 292.555654 
L 350.709391 288.86555 
L 352.195904 290.38338 
L 353.682418 291.294078 
L 355.168931 291.840497 
L 356.655445 292.168348 
L 359.628472 292.483085 
L 364.088012 292.621884 
L 374.493606 292.659055 
L 375.98012 288.92759 
L 377.466633 290.420604 
L 378.953147 291.316412 
L 380.43966 291.853897 
L 381.926174 292.176388 
L 384.899201 292.48598 
L 387.872228 292.597433 
L 389.358741 288.890617 
L 390.845255 290.39842 
L 392.331768 287.57121 
L 393.818282 289.606776 
L 395.304795 290.828115 
L 396.791309 291.560919 
L 398.277822 292.000602 
L 401.250849 292.422697 
L 405.71039 292.60884 
L 411.656444 292.653479 
L 413.142957 288.924245 
L 414.629471 290.418597 
L 416.115984 291.315208 
L 417.602498 291.853175 
L 419.089011 292.175955 
L 420.575524 292.369623 
L 422.062038 288.753931 
L 423.548551 290.316409 
L 425.035065 291.253895 
L 426.521578 291.816387 
L 428.008092 288.42199 
L 429.494605 286.385351 
L 430.981119 288.895261 
L 432.467632 286.669314 
L 433.954146 285.333746 
L 435.440659 288.264298 
L 436.927173 290.022629 
L 438.413686 291.077627 
L 439.9002 291.710626 
L 441.386713 292.090426 
L 444.35974 292.455033 
L 447.332767 292.586292 
L 448.819281 288.883933 
L 450.305794 286.662517 
L 451.792308 289.06156 
L 453.278821 290.500986 
L 454.765335 291.364642 
L 456.251848 291.882835 
L 457.738362 292.193751 
L 460.711389 292.49223 
L 465.170929 292.62386 
L 469.63047 292.652292 
L 471.116983 288.923533 
L 472.603497 290.41817 
L 474.09001 291.314952 
L 475.576523 288.121129 
L 477.063037 289.936727 
L 478.54955 291.026086 
L 480.036064 291.679702 
L 481.522577 292.071871 
L 483.009091 292.307173 
L 483.009091 292.307173 
" clip-path="url(#pa88c59d479)" style="fill: none; stroke: #ff7f0e; stroke-width: 1.5; stroke-linecap: square"/>
   </g>
   <g id="line2d_27">
    <path d="M 77.190909 292.660125 
L 83.136963 292.660125 
L 84.623477 288.928233 
L 86.10999 290.42099 
L 87.596503 291.316644 
L 89.083017 291.854036 
L 90.56953 292.176472 
L 93.542557 292.48601 
L 98.002098 292.622516 
L 111.380719 292.659746 
L 245.166933 292.660125 
L 246.653447 288.928233 
L 248.13996 290.42099 
L 249.626474 291.316644 
L 251.112987 291.854036 
L 252.5995 292.176472 
L 255.572527 292.48601 
L 260.032068 292.622516 
L 273.410689 292.659746 
L 356.655445 292.660125 
L 358.141958 281.464448 
L 359.628472 282.210826 
L 361.114985 286.390546 
L 362.601499 288.898377 
L 364.088012 286.671184 
L 365.574525 289.06676 
L 367.061039 290.504106 
L 368.547552 283.902729 
L 370.034066 287.405687 
L 371.520579 289.507462 
L 373.007093 290.768527 
L 374.493606 287.793274 
L 375.98012 286.008122 
L 377.466633 288.668923 
L 378.953147 290.265404 
L 380.43966 291.223292 
L 381.926174 288.066133 
L 383.412687 286.171837 
L 384.899201 285.03526 
L 386.385714 284.353313 
L 387.872228 283.944146 
L 389.358741 287.430537 
L 390.845255 285.79048 
L 392.331768 284.806445 
L 393.818282 287.947917 
L 395.304795 289.8328 
L 396.791309 290.96373 
L 398.277822 291.642288 
L 399.764336 292.049423 
L 401.250849 292.293704 
L 402.737363 288.70838 
L 404.223876 290.289078 
L 405.71039 291.237497 
L 407.196903 291.806548 
L 408.683417 292.147979 
L 410.16993 292.352837 
L 411.656444 288.74386 
L 413.142957 290.310366 
L 414.629471 287.518377 
L 416.115984 289.575076 
L 417.602498 283.345311 
L 419.089011 287.071236 
L 420.575524 289.306792 
L 422.062038 290.648125 
L 423.548551 291.452925 
L 425.035065 291.935805 
L 426.521578 292.225533 
L 429.494605 292.503672 
L 432.467632 292.603802 
L 433.954146 288.894439 
L 435.440659 290.400713 
L 436.927173 291.304478 
L 438.413686 291.846737 
L 439.9002 292.172092 
L 442.873227 292.484433 
L 447.332767 292.622176 
L 450.305794 292.646463 
L 451.792308 288.920035 
L 453.278821 290.416071 
L 454.765335 287.5818 
L 456.251848 289.61313 
L 457.738362 290.831928 
L 459.224875 287.831314 
L 460.711389 286.030946 
L 462.197902 288.682618 
L 463.684416 290.273621 
L 465.170929 287.49633 
L 466.657443 289.561848 
L 468.143956 290.801159 
L 469.63047 291.544745 
L 471.116983 291.990897 
L 474.09001 292.419203 
L 475.576523 292.515572 
L 477.063037 288.841501 
L 478.54955 290.36895 
L 480.036064 291.28542 
L 481.522577 291.835302 
L 483.009091 292.165231 
L 483.009091 292.165231 
" clip-path="url(#pa88c59d479)" style="fill: none; stroke: #2ca02c; stroke-width: 1.5; stroke-linecap: square"/>
   </g>
   <g id="line2d_28">
    <path d="M 77.190909 255.3412 
L 78.677423 262.804985 
L 80.163936 267.283256 
L 81.65045 266.238326 
L 83.136963 269.343261 
L 84.623477 256.278652 
L 86.10999 252.171778 
L 87.596503 257.171439 
L 89.083017 252.707451 
L 90.56953 250.029057 
L 92.056044 244.69013 
L 93.542557 237.75488 
L 95.029071 248.5213 
L 96.515584 247.517367 
L 98.002098 246.915007 
L 99.488611 250.285484 
L 100.975125 256.039663 
L 103.948152 255.592647 
L 106.921179 255.431721 
L 108.407692 259.127405 
L 109.894206 261.344816 
L 111.380719 266.407154 
L 112.867233 269.444558 
L 114.353746 274.998892 
L 115.84026 274.5996 
L 117.326773 263.164347 
L 118.813287 260.035088 
L 120.2998 258.157533 
L 121.786314 260.762892 
L 123.272827 262.326108 
L 124.759341 259.532145 
L 126.245854 254.123874 
L 127.732368 239.683235 
L 129.218881 231.018851 
L 130.705395 229.552113 
L 132.191908 228.67207 
L 133.678422 220.680257 
L 135.164935 219.617065 
L 138.137962 240.241376 
L 139.624476 246.281305 
L 141.110989 253.637156 
L 142.597502 254.318774 
L 144.084016 250.995851 
L 145.570529 241.538313 
L 147.057043 239.595683 
L 148.543556 230.96632 
L 150.03007 233.252487 
L 151.516583 219.696616 
L 153.003097 219.02688 
L 154.48961 214.893144 
L 155.976124 219.876688 
L 157.462637 219.134923 
L 158.949151 200.030402 
L 160.435664 207.227152 
L 161.922178 204.081415 
L 163.408691 205.925865 
L 164.895205 203.300643 
L 166.381718 216.653081 
L 167.868232 213.468864 
L 169.354745 219.02212 
L 170.841259 211.158396 
L 172.327772 217.63584 
L 173.814286 206.594736 
L 175.300799 207.433857 
L 176.787313 204.205438 
L 178.273826 202.268387 
L 179.76034 197.374264 
L 181.246853 198.169682 
L 182.733367 191.18315 
L 184.21988 190.723122 
L 185.706394 194.178997 
L 187.192907 199.984414 
L 188.679421 203.467664 
L 190.165934 198.093831 
L 191.652448 183.673852 
L 193.138961 167.558082 
L 194.625475 161.620509 
L 196.111988 165.521754 
L 197.598501 160.398712 
L 199.085015 149.861103 
L 200.571528 154.734216 
L 202.058042 165.12187 
L 203.544555 148.963103 
L 205.031069 154.195416 
L 206.517582 153.602909 
L 208.004096 156.979299 
L 209.490609 162.737028 
L 210.977123 158.727876 
L 212.463636 156.322385 
L 213.95015 143.683412 
L 215.436663 139.831923 
L 216.923177 137.52103 
L 218.40969 136.134494 
L 219.896204 142.766356 
L 221.382717 154.209262 
L 222.869231 131.219866 
L 224.355744 132.353795 
L 225.842258 144.229831 
L 227.328771 140.159775 
L 228.815285 137.717741 
L 230.301798 151.180093 
L 231.788312 151.793715 
L 233.274825 159.625678 
L 234.761339 168.056747 
L 236.247852 158.187819 
L 237.734366 152.266462 
L 239.220879 167.373109 
L 240.707393 165.241419 
L 242.193906 182.621867 
L 243.68042 189.318244 
L 245.166933 197.067962 
L 246.653447 194.254009 
L 248.13996 192.565638 
L 249.626474 172.893153 
L 251.112987 172.28534 
L 252.5995 190.580114 
L 254.086014 201.556979 
L 255.572527 189.483636 
L 257.059041 193.435305 
L 258.545554 188.342524 
L 260.032068 185.286854 
L 261.518581 190.917237 
L 263.005095 194.295466 
L 264.491608 170.199155 
L 265.978122 181.864617 
L 267.464635 181.400111 
L 268.951149 188.58519 
L 270.437662 163.041095 
L 271.924176 177.569781 
L 273.410689 182.555101 
L 274.897203 181.814401 
L 276.383716 177.638089 
L 277.87023 175.132302 
L 279.356743 181.092613 
L 280.843257 180.936908 
L 282.32977 195.771055 
L 283.816284 178.548293 
L 285.302797 186.874099 
L 286.789311 199.33337 
L 288.275824 203.077038 
L 289.762338 194.127563 
L 291.248851 203.685448 
L 292.735365 194.492609 
L 294.221878 192.708798 
L 295.708392 191.638511 
L 297.194905 183.532555 
L 298.681419 178.668982 
L 300.167932 168.287048 
L 301.654446 173.253569 
L 303.140959 172.50159 
L 304.627473 179.514186 
L 306.113986 183.721744 
L 307.6005 197.441957 
L 309.087013 190.746514 
L 310.573526 194.193032 
L 312.06004 196.260943 
L 313.546553 186.306015 
L 315.033067 161.67359 
L 316.51958 169.285494 
L 318.006094 177.584529 
L 319.492607 175.100166 
L 320.979121 166.145759 
L 322.465634 160.773115 
L 323.952148 157.549528 
L 325.438661 159.347271 
L 326.925175 141.766455 
L 328.411688 157.341213 
L 329.898202 151.758498 
L 331.384715 163.336439 
L 332.871229 185.210774 
L 334.357742 172.212124 
L 335.844256 168.144828 
L 337.330769 169.436346 
L 338.817283 170.211256 
L 340.303796 178.139986 
L 341.79031 179.165332 
L 343.276823 172.316753 
L 344.763337 175.671392 
L 346.24985 177.684176 
L 347.736364 182.623737 
L 349.222877 178.123691 
L 350.709391 171.691769 
L 352.195904 179.028293 
L 353.682418 187.1621 
L 355.168931 180.846708 
L 356.655445 169.593685 
L 358.141958 170.305659 
L 359.628472 170.732844 
L 361.114985 170.989155 
L 362.601499 178.606725 
L 364.088012 186.909159 
L 365.574525 184.426836 
L 367.061039 194.133117 
L 368.547552 192.493102 
L 370.034066 169.117737 
L 371.520579 170.020091 
L 373.007093 166.829609 
L 374.493606 172.379105 
L 375.98012 186.904479 
L 377.466633 199.351598 
L 378.953147 188.160407 
L 380.43966 162.786226 
L 381.926174 173.684967 
L 383.412687 157.832856 
L 384.899201 144.589695 
L 386.385714 151.571371 
L 387.872228 152.028482 
L 389.358741 137.375182 
L 390.845255 128.583201 
L 392.331768 145.699369 
L 393.818282 141.041497 
L 395.304795 112.123529 
L 396.791309 135.823566 
L 398.277822 120.188448 
L 399.764336 114.539267 
L 401.250849 137.273009 
L 402.737363 135.985681 
L 404.223876 138.945179 
L 405.71039 129.5252 
L 407.196903 127.605101 
L 408.683417 126.453042 
L 410.16993 140.689379 
L 411.656444 115.644147 
L 413.142957 100.617008 
L 414.629471 102.796403 
L 416.115984 111.567823 
L 417.602498 101.903108 
L 419.089011 114.763741 
L 420.575524 115.016337 
L 422.062038 122.631678 
L 423.548551 134.664666 
L 425.035065 130.688781 
L 426.521578 120.839466 
L 428.008092 137.321234 
L 429.494605 143.4784 
L 430.981119 132.245132 
L 432.467632 106.84571 
L 433.954146 99.06984 
L 435.440659 101.868102 
L 436.927173 88.619492 
L 438.413686 99.329787 
L 439.9002 98.292181 
L 441.386713 93.937723 
L 444.35974 74.083495 
L 445.846254 83.144406 
L 447.332767 66.18959 
L 448.819281 85.871847 
L 450.305794 75.289844 
L 451.792308 76.404426 
L 453.278821 65.877503 
L 454.765335 63.293238 
L 456.251848 46.815112 
L 457.738362 40.660125 
L 459.224875 44.430922 
L 460.711389 50.425289 
L 462.197902 54.02191 
L 463.684416 63.643666 
L 465.170929 54.489146 
L 466.657443 52.728335 
L 468.143956 55.403737 
L 469.63047 45.8133 
L 471.116983 43.790927 
L 472.603497 46.309403 
L 474.09001 47.820489 
L 475.576523 52.45903 
L 477.063037 62.705937 
L 478.54955 46.462731 
L 480.036064 44.180586 
L 481.522577 50.275088 
L 483.009091 50.1999 
L 483.009091 50.1999 
" clip-path="url(#pa88c59d479)" style="fill: none; stroke: #d62728; stroke-width: 1.5; stroke-linecap: square"/>
   </g>
   <g id="line2d_29">
    <path d="M 77.190909 292.660125 
L 78.677423 288.928233 
L 80.163936 290.42099 
L 81.65045 291.316644 
L 83.136963 291.854036 
L 84.623477 292.176472 
L 87.596503 292.48601 
L 89.083017 292.555656 
L 90.56953 285.133659 
L 92.056044 288.144245 
L 93.542557 289.950597 
L 95.029071 291.034408 
L 96.515584 291.684695 
L 98.002098 292.074867 
L 100.975125 292.449432 
L 102.461638 292.533709 
L 103.948152 288.852383 
L 105.434665 290.37548 
L 106.921179 291.289338 
L 108.407692 291.837653 
L 109.894206 288.434749 
L 111.380719 290.1249 
L 112.867233 291.13899 
L 114.353746 291.747444 
L 115.84026 292.112516 
L 118.813287 292.462986 
L 123.272827 292.617543 
L 133.678422 292.658933 
L 135.164935 288.927517 
L 136.651449 290.42056 
L 138.137962 291.316386 
L 139.624476 291.853882 
L 141.110989 288.444487 
L 142.597502 290.130742 
L 144.084016 287.410603 
L 145.570529 285.778519 
L 147.057043 288.531161 
L 148.543556 290.182747 
L 150.03007 287.441806 
L 151.516583 285.797241 
L 153.003097 288.542395 
L 154.48961 290.189487 
L 155.976124 291.177742 
L 157.462637 291.770695 
L 158.949151 288.394575 
L 160.435664 286.368902 
L 161.922178 285.153499 
L 163.408691 280.692364 
L 164.895205 285.479469 
L 166.381718 288.351731 
L 167.868232 290.075089 
L 169.354745 291.109103 
L 170.841259 287.997619 
L 172.327772 289.862622 
L 173.814286 290.981623 
L 175.300799 291.653024 
L 176.787313 292.055864 
L 178.273826 288.565676 
L 179.76034 290.203456 
L 181.246853 291.186123 
L 182.733367 291.775724 
L 184.21988 292.129484 
L 185.706394 288.609848 
L 187.192907 286.498066 
L 188.679421 288.96289 
L 190.165934 286.709891 
L 191.652448 277.894307 
L 193.138961 272.604957 
L 194.625475 273.163239 
L 196.111988 277.230101 
L 197.598501 275.938326 
L 199.085015 282.627045 
L 200.571528 279.176492 
L 202.058042 280.838053 
L 203.544555 281.834989 
L 205.031069 274.969366 
L 206.517582 278.313777 
L 208.004096 284.052316 
L 209.490609 287.49544 
L 210.977123 285.829421 
L 212.463636 288.561703 
L 213.95015 286.469179 
L 215.436663 288.945558 
L 216.923177 290.431385 
L 218.40969 283.859096 
L 219.896204 283.647615 
L 221.382717 276.056942 
L 222.869231 278.966322 
L 224.355744 280.711951 
L 225.842258 278.027436 
L 227.328771 283.880511 
L 228.815285 287.392357 
L 230.301798 282.035679 
L 231.788312 282.553565 
L 233.274825 286.596189 
L 234.761339 285.289871 
L 236.247852 284.50608 
L 237.734366 280.303913 
L 239.220879 281.514505 
L 240.707393 285.972753 
L 242.193906 277.452025 
L 243.68042 272.339587 
L 245.166933 276.73591 
L 246.653447 279.373703 
L 248.13996 273.492595 
L 249.626474 281.159607 
L 251.112987 282.027922 
L 252.5995 278.817018 
L 254.086014 284.354261 
L 255.572527 287.676606 
L 257.059041 285.938121 
L 258.545554 281.163138 
L 260.032068 282.03004 
L 261.518581 286.282074 
L 263.005095 285.101402 
L 264.491608 288.124891 
L 265.978122 289.938985 
L 267.464635 291.027441 
L 268.951149 291.680515 
L 270.437662 292.072359 
L 271.924176 288.575573 
L 273.410689 286.477501 
L 274.897203 288.950551 
L 276.383716 286.702488 
L 277.87023 289.085543 
L 279.356743 286.783483 
L 280.843257 289.13414 
L 282.32977 290.544534 
L 283.816284 291.39077 
L 285.302797 291.898512 
L 286.789311 292.203157 
L 288.275824 292.385944 
L 289.762338 288.763724 
L 291.248851 282.8585 
L 292.735365 286.77915 
L 294.221878 285.399647 
L 295.708392 288.303838 
L 297.194905 286.314461 
L 298.681419 285.120834 
L 300.167932 288.13655 
L 301.654446 289.94598 
L 303.140959 291.031638 
L 304.627473 291.683033 
L 306.113986 292.07387 
L 307.6005 288.576479 
L 309.087013 290.209938 
L 310.573526 291.190013 
L 312.06004 291.778058 
L 313.546553 288.398992 
L 315.033067 286.371553 
L 316.51958 285.155089 
L 318.006094 288.157104 
L 319.492607 289.958312 
L 320.979121 287.307145 
L 322.465634 285.716444 
L 323.952148 288.493917 
L 325.438661 286.428508 
L 326.925175 285.189262 
L 328.411688 284.445715 
L 329.898202 287.731479 
L 331.384715 289.702937 
L 332.871229 290.885812 
L 334.357742 291.595537 
L 335.844256 292.021372 
L 337.330769 284.813089 
L 338.817283 287.951903 
L 340.303796 289.835192 
L 341.79031 287.233273 
L 343.276823 289.404014 
L 344.763337 286.974566 
L 346.24985 285.516897 
L 347.736364 288.374188 
L 349.222877 286.35667 
L 350.709391 277.682375 
L 352.195904 283.673475 
L 353.682418 279.80435 
L 355.168931 277.482875 
L 356.655445 279.821883 
L 358.141958 284.95718 
L 359.628472 284.306465 
L 361.114985 287.647929 
L 362.601499 285.920915 
L 364.088012 288.616599 
L 365.574525 290.234009 
L 367.061039 287.472563 
L 368.547552 282.083803 
L 370.034066 286.314332 
L 371.520579 288.852649 
L 373.007093 290.375639 
L 374.493606 291.289434 
L 375.98012 291.83771 
L 377.466633 292.166676 
L 378.953147 284.900271 
L 380.43966 284.27232 
L 381.926174 280.163657 
L 383.412687 285.162244 
L 384.899201 284.429504 
L 386.385714 287.721752 
L 387.872228 285.965209 
L 389.358741 288.643175 
L 390.845255 286.518063 
L 392.331768 288.974888 
L 393.818282 290.448983 
L 395.304795 291.33344 
L 396.791309 291.864114 
L 398.277822 288.450626 
L 399.764336 286.402533 
L 401.250849 285.173677 
L 402.737363 280.704471 
L 404.223876 281.75484 
L 405.71039 282.385062 
L 407.196903 282.763195 
L 408.683417 286.721967 
L 410.16993 285.365338 
L 411.656444 280.819468 
L 413.142957 285.555731 
L 414.629471 280.933703 
L 416.115984 281.89238 
L 417.602498 275.0038 
L 419.089011 274.602545 
L 420.575524 278.093685 
L 422.062038 280.188368 
L 423.548551 277.713286 
L 425.035065 279.960129 
L 426.521578 277.576343 
L 428.008092 268.682286 
L 429.494605 278.273421 
L 430.981119 284.028103 
L 432.467632 287.480912 
L 433.954146 289.552597 
L 435.440659 290.795608 
L 436.927173 284.07763 
L 438.413686 280.046843 
L 439.9002 277.628371 
L 441.386713 272.445395 
L 442.873227 269.33561 
L 444.35974 271.201631 
L 445.846254 279.785029 
L 447.332767 277.471282 
L 448.819281 279.814927 
L 450.305794 281.221114 
L 451.792308 278.332933 
L 453.278821 272.868133 
L 454.765335 265.85736 
L 456.251848 269.114681 
L 457.738362 267.337181 
L 459.224875 262.538789 
L 460.711389 259.659753 
L 462.197902 254.200439 
L 463.684416 250.92485 
L 465.170929 248.959497 
L 466.657443 251.512178 
L 468.143956 245.580002 
L 469.63047 242.020696 
L 471.116983 239.885113 
L 472.603497 246.067548 
L 474.09001 246.045116 
L 475.576523 242.299765 
L 477.063037 251.248231 
L 478.54955 252.885419 
L 480.036064 250.135838 
L 481.522577 248.48609 
L 483.009091 243.764349 
L 483.009091 243.764349 
" clip-path="url(#pa88c59d479)" style="fill: none; stroke: #9467bd; stroke-width: 1.5; stroke-linecap: square"/>
   </g>
   <g id="patch_3">
    <path d="M 56.9 305.260125 
L 56.9 28.060125 
" style="fill: none; stroke: #000000; stroke-width: 0.8; stroke-linejoin: miter; stroke-linecap: square"/>
   </g>
   <g id="patch_4">
    <path d="M 503.3 305.260125 
L 503.3 28.060125 
" style="fill: none; stroke: #000000; stroke-width: 0.8; stroke-linejoin: miter; stroke-linecap: square"/>
   </g>
   <g id="patch_5">
    <path d="M 56.9 305.260125 
L 503.3 305.260125 
" style="fill: none; stroke: #000000; stroke-width: 0.8; stroke-linejoin: miter; stroke-linecap: square"/>
   </g>
   <g id="patch_6">
    <path d="M 56.9 28.060125 
L 503.3 28.060125 
" style="fill: none; stroke: #000000; stroke-width: 0.8; stroke-linejoin: miter; stroke-linecap: square"/>
   </g>
   <g id="text_16">
    <!-- ML45 Meta Testing -->
    <g transform="translate(193.104313 22.060125)scale(0.216 -0.216)">
     <defs>
      <path id="STIXGeneral-Regular-4d" d="M 5530 0 
L 3738 0 
L 3738 122 
Q 4115 147 4214 265 
Q 4314 384 4314 787 
L 4314 3661 
L 2682 0 
L 2592 0 
L 979 3514 
L 979 966 
Q 979 448 1088 294 
Q 1197 141 1574 122 
L 1574 0 
L 77 0 
L 77 122 
Q 358 141 480 205 
Q 602 269 650 432 
Q 698 595 698 966 
L 698 3514 
Q 698 3878 589 3984 
Q 480 4090 90 4115 
L 90 4237 
L 1357 4237 
L 2835 1024 
L 4250 4237 
L 5523 4237 
L 5523 4115 
Q 5178 4109 5072 3993 
Q 4966 3878 4966 3520 
L 4966 717 
Q 4966 378 5072 262 
Q 5178 147 5530 122 
L 5530 0 
z
" transform="scale(0.015625)"/>
      <path id="STIXGeneral-Regular-4c" d="M 3827 1114 
L 3520 0 
L 77 0 
L 77 122 
Q 429 141 531 256 
Q 634 371 634 736 
L 634 3494 
Q 634 3872 541 3981 
Q 448 4090 77 4115 
L 77 4237 
L 1888 4237 
L 1888 4115 
Q 1498 4090 1392 3984 
Q 1286 3878 1286 3507 
L 1286 538 
Q 1286 358 1398 304 
Q 1510 250 1862 250 
L 2310 250 
Q 3085 250 3392 640 
Q 3520 813 3661 1114 
L 3827 1114 
z
" transform="scale(0.015625)"/>
     </defs>
     <use xlink:href="#STIXGeneral-Regular-4d"/>
     <use xlink:href="#STIXGeneral-Regular-4c" x="88.899994"/>
     <use xlink:href="#STIXGeneral-Regular-34" x="149.999985"/>
     <use xlink:href="#STIXGeneral-Regular-35" x="199.999969"/>
     <use xlink:href="#STIXGeneral-Regular-20" x="249.999954"/>
     <use xlink:href="#STIXGeneral-Regular-4d" x="274.999939"/>
     <use xlink:href="#STIXGeneral-Regular-65" x="363.899933"/>
     <use xlink:href="#STIXGeneral-Regular-74" x="408.299927"/>
     <use xlink:href="#STIXGeneral-Regular-61" x="436.099915"/>
     <use xlink:href="#STIXGeneral-Regular-20" x="480.499908"/>
     <use xlink:href="#STIXGeneral-Regular-54" x="505.499893"/>
     <use xlink:href="#STIXGeneral-Regular-65" x="566.599884"/>
     <use xlink:href="#STIXGeneral-Regular-73" x="610.999878"/>
     <use xlink:href="#STIXGeneral-Regular-74" x="649.899872"/>
     <use xlink:href="#STIXGeneral-Regular-69" x="677.69986"/>
     <use xlink:href="#STIXGeneral-Regular-6e" x="705.499847"/>
     <use xlink:href="#STIXGeneral-Regular-67" x="755.499832"/>
    </g>
   </g>
   <g id="legend_1">
    <g id="patch_7">
     <path d="M 66.7 138.465437 
L 198.593125 138.465437 
Q 201.393125 138.465437 201.393125 135.665437 
L 201.393125 37.860125 
Q 201.393125 35.060125 198.593125 35.060125 
L 66.7 35.060125 
Q 63.9 35.060125 63.9 37.860125 
L 63.9 135.665437 
Q 63.9 138.465437 66.7 138.465437 
z
" style="fill: #ffffff; opacity: 0.8; stroke: #cccccc; stroke-linejoin: miter"/>
    </g>
    <g id="line2d_30">
     <path d="M 69.5 45.560125 
L 83.5 45.560125 
L 97.5 45.560125 
" style="fill: none; stroke: #1f77b4; stroke-width: 1.5; stroke-linecap: square"/>
    </g>
    <g id="text_17">
     <!-- bin-picking-v2 -->
     <g transform="translate(108.7 50.460125)scale(0.14 -0.14)">
      <defs>
       <path id="STIXGeneral-Regular-62" d="M 979 4358 
L 979 2406 
Q 1082 2650 1315 2797 
Q 1549 2944 1843 2944 
Q 2349 2944 2672 2541 
Q 2995 2138 2995 1536 
Q 2995 832 2566 384 
Q 2138 -64 1498 -64 
Q 1107 -64 774 67 
Q 442 198 442 358 
L 442 3622 
Q 442 3859 384 3926 
Q 326 3994 128 3994 
Q 83 3994 19 3981 
L 19 4090 
L 211 4147 
Q 864 4346 947 4371 
L 979 4358 
z
M 979 2035 
L 979 474 
Q 979 326 1161 233 
Q 1344 141 1600 141 
Q 1978 141 2195 416 
Q 2432 710 2432 1261 
Q 2432 1888 2182 2240 
Q 1971 2541 1613 2541 
Q 1357 2541 1168 2390 
Q 979 2240 979 2035 
z
" transform="scale(0.015625)"/>
       <path id="STIXGeneral-Regular-2d" d="M 1824 1242 
L 250 1242 
L 250 1645 
L 1824 1645 
L 1824 1242 
z
" transform="scale(0.015625)"/>
       <path id="STIXGeneral-Regular-6b" d="M 3232 0 
L 1837 0 
L 1837 96 
L 1958 96 
Q 2093 96 2093 192 
Q 2093 250 2022 339 
L 1062 1606 
L 1062 429 
Q 1062 262 1142 185 
Q 1222 109 1414 102 
L 1542 96 
L 1542 0 
L 45 0 
L 45 96 
Q 390 154 457 214 
Q 525 275 525 525 
L 525 3610 
Q 525 3840 467 3920 
Q 410 4000 250 4000 
Q 211 4000 45 3987 
L 45 4090 
L 237 4141 
Q 621 4243 1037 4371 
L 1062 4358 
L 1062 1670 
L 1939 2451 
Q 2086 2586 2086 2675 
Q 2086 2739 2019 2761 
Q 1952 2784 1766 2790 
L 1766 2880 
L 3072 2880 
L 3072 2784 
Q 2752 2784 2505 2646 
Q 2259 2509 1690 1978 
L 1504 1805 
L 2483 563 
Q 2829 122 3232 96 
L 3232 0 
z
" transform="scale(0.015625)"/>
      </defs>
      <use xlink:href="#STIXGeneral-Regular-62"/>
      <use xlink:href="#STIXGeneral-Regular-69" x="49.999985"/>
      <use xlink:href="#STIXGeneral-Regular-6e" x="77.799973"/>
      <use xlink:href="#STIXGeneral-Regular-2d" x="127.799957"/>
      <use xlink:href="#STIXGeneral-Regular-70" x="161.099945"/>
      <use xlink:href="#STIXGeneral-Regular-69" x="211.09993"/>
      <use xlink:href="#STIXGeneral-Regular-63" x="238.899918"/>
      <use xlink:href="#STIXGeneral-Regular-6b" x="283.299911"/>
      <use xlink:href="#STIXGeneral-Regular-69" x="333.299896"/>
      <use xlink:href="#STIXGeneral-Regular-6e" x="361.099884"/>
      <use xlink:href="#STIXGeneral-Regular-67" x="411.099869"/>
      <use xlink:href="#STIXGeneral-Regular-2d" x="461.099854"/>
      <use xlink:href="#STIXGeneral-Regular-76" x="494.399841"/>
      <use xlink:href="#STIXGeneral-Regular-32" x="544.399826"/>
     </g>
    </g>
    <g id="line2d_31">
     <path d="M 69.5 65.411687 
L 83.5 65.411687 
L 97.5 65.411687 
" style="fill: none; stroke: #ff7f0e; stroke-width: 1.5; stroke-linecap: square"/>
    </g>
    <g id="text_18">
     <!-- box-close-v2 -->
     <g transform="translate(108.7 70.311687)scale(0.14 -0.14)">
      <defs>
       <path id="STIXGeneral-Regular-78" d="M 3066 0 
L 1779 0 
L 1779 96 
Q 1939 109 1987 137 
Q 2035 166 2035 250 
Q 2035 307 1997 365 
L 1414 1261 
L 909 474 
Q 781 275 781 211 
Q 781 96 1037 96 
L 1037 0 
L 109 0 
L 109 96 
Q 269 109 355 169 
Q 442 230 576 422 
L 1306 1478 
L 704 2400 
Q 557 2624 454 2704 
Q 352 2784 211 2784 
L 154 2784 
L 154 2880 
L 1478 2880 
L 1478 2784 
Q 1203 2778 1203 2643 
Q 1203 2509 1498 2074 
Q 1581 1958 1587 1946 
Q 1619 1990 1779 2227 
Q 1811 2285 1856 2349 
Q 1901 2413 1923 2451 
Q 1946 2490 1971 2528 
Q 1997 2566 2006 2595 
Q 2016 2624 2016 2643 
Q 2016 2765 1760 2784 
L 1760 2880 
L 2771 2880 
L 2771 2784 
Q 2445 2771 2253 2502 
L 1722 1734 
L 2541 480 
Q 2790 96 3066 96 
L 3066 0 
z
" transform="scale(0.015625)"/>
       <path id="STIXGeneral-Regular-6c" d="M 1645 0 
L 134 0 
L 134 96 
Q 435 122 531 221 
Q 627 320 627 589 
L 627 3590 
Q 627 3821 569 3910 
Q 512 4000 358 4000 
Q 224 4000 122 3987 
L 122 4090 
Q 730 4237 1133 4371 
L 1165 4346 
L 1165 557 
Q 1165 288 1254 201 
Q 1344 115 1645 96 
L 1645 0 
z
" transform="scale(0.015625)"/>
      </defs>
      <use xlink:href="#STIXGeneral-Regular-62"/>
      <use xlink:href="#STIXGeneral-Regular-6f" x="49.999985"/>
      <use xlink:href="#STIXGeneral-Regular-78" x="99.999969"/>
      <use xlink:href="#STIXGeneral-Regular-2d" x="149.999954"/>
      <use xlink:href="#STIXGeneral-Regular-63" x="183.299942"/>
      <use xlink:href="#STIXGeneral-Regular-6c" x="227.699936"/>
      <use xlink:href="#STIXGeneral-Regular-6f" x="255.499924"/>
      <use xlink:href="#STIXGeneral-Regular-73" x="305.499908"/>
      <use xlink:href="#STIXGeneral-Regular-65" x="344.399902"/>
      <use xlink:href="#STIXGeneral-Regular-2d" x="388.799896"/>
      <use xlink:href="#STIXGeneral-Regular-76" x="422.099884"/>
      <use xlink:href="#STIXGeneral-Regular-32" x="472.099869"/>
     </g>
    </g>
    <g id="line2d_32">
     <path d="M 69.5 85.250125 
L 83.5 85.250125 
L 97.5 85.250125 
" style="fill: none; stroke: #2ca02c; stroke-width: 1.5; stroke-linecap: square"/>
    </g>
    <g id="text_19">
     <!-- hand-insert-v2 -->
     <g transform="translate(108.7 90.150125)scale(0.14 -0.14)">
      <defs>
       <path id="STIXGeneral-Regular-68" d="M 3117 0 
L 1760 0 
L 1760 96 
Q 2042 128 2118 224 
Q 2195 320 2195 653 
L 2195 1920 
Q 2195 2598 1722 2598 
Q 1530 2598 1370 2508 
Q 1210 2419 1005 2195 
L 1005 653 
Q 1005 320 1081 224 
Q 1158 128 1440 96 
L 1440 0 
L 58 0 
L 58 96 
Q 333 134 400 224 
Q 467 314 467 653 
L 467 3667 
Q 467 3872 406 3933 
Q 346 3994 141 3994 
Q 83 3994 64 3987 
L 64 4090 
L 237 4141 
Q 730 4288 973 4371 
L 1005 4352 
L 1005 2406 
Q 1229 2694 1446 2819 
Q 1664 2944 1946 2944 
Q 2733 2944 2733 1926 
L 2733 653 
Q 2733 320 2793 233 
Q 2854 147 3117 96 
L 3117 0 
z
" transform="scale(0.015625)"/>
       <path id="STIXGeneral-Regular-64" d="M 3142 269 
L 2202 -64 
L 2176 -45 
L 2176 365 
Q 1869 -64 1357 -64 
Q 826 -64 499 317 
Q 173 698 173 1312 
Q 173 1990 563 2467 
Q 954 2944 1504 2944 
Q 1850 2944 2176 2669 
L 2176 3667 
Q 2176 3866 2118 3930 
Q 2061 3994 1882 3994 
Q 1792 3994 1741 3987 
L 1741 4090 
Q 2323 4243 2682 4371 
L 2714 4358 
L 2714 730 
Q 2714 506 2768 435 
Q 2822 365 2995 365 
Q 3034 365 3142 371 
L 3142 269 
z
M 2176 653 
L 2176 2125 
Q 2176 2381 1981 2573 
Q 1786 2765 1523 2765 
Q 1158 2765 940 2438 
Q 723 2112 723 1568 
Q 723 979 963 624 
Q 1203 269 1606 269 
Q 1907 269 2080 474 
Q 2176 582 2176 653 
z
" transform="scale(0.015625)"/>
      </defs>
      <use xlink:href="#STIXGeneral-Regular-68"/>
      <use xlink:href="#STIXGeneral-Regular-61" x="49.999985"/>
      <use xlink:href="#STIXGeneral-Regular-6e" x="94.399979"/>
      <use xlink:href="#STIXGeneral-Regular-64" x="144.399963"/>
      <use xlink:href="#STIXGeneral-Regular-2d" x="194.399948"/>
      <use xlink:href="#STIXGeneral-Regular-69" x="227.699936"/>
      <use xlink:href="#STIXGeneral-Regular-6e" x="255.499924"/>
      <use xlink:href="#STIXGeneral-Regular-73" x="305.499908"/>
      <use xlink:href="#STIXGeneral-Regular-65" x="344.399902"/>
      <use xlink:href="#STIXGeneral-Regular-72" x="388.799896"/>
      <use xlink:href="#STIXGeneral-Regular-74" x="422.099884"/>
      <use xlink:href="#STIXGeneral-Regular-2d" x="449.899872"/>
      <use xlink:href="#STIXGeneral-Regular-76" x="483.19986"/>
      <use xlink:href="#STIXGeneral-Regular-32" x="533.199844"/>
     </g>
    </g>
    <g id="line2d_33">
     <path d="M 69.5 105.088562 
L 83.5 105.088562 
L 97.5 105.088562 
" style="fill: none; stroke: #d62728; stroke-width: 1.5; stroke-linecap: square"/>
    </g>
    <g id="text_20">
     <!-- door-lock-v2 -->
     <g transform="translate(108.7 109.988562)scale(0.14 -0.14)">
      <use xlink:href="#STIXGeneral-Regular-64"/>
      <use xlink:href="#STIXGeneral-Regular-6f" x="49.999985"/>
      <use xlink:href="#STIXGeneral-Regular-6f" x="99.999969"/>
      <use xlink:href="#STIXGeneral-Regular-72" x="149.999954"/>
      <use xlink:href="#STIXGeneral-Regular-2d" x="183.299942"/>
      <use xlink:href="#STIXGeneral-Regular-6c" x="216.59993"/>
      <use xlink:href="#STIXGeneral-Regular-6f" x="244.399918"/>
      <use xlink:href="#STIXGeneral-Regular-63" x="294.399902"/>
      <use xlink:href="#STIXGeneral-Regular-6b" x="338.799896"/>
      <use xlink:href="#STIXGeneral-Regular-2d" x="388.799881"/>
      <use xlink:href="#STIXGeneral-Regular-76" x="422.099869"/>
      <use xlink:href="#STIXGeneral-Regular-32" x="472.099854"/>
     </g>
    </g>
    <g id="line2d_34">
     <path d="M 69.5 124.927 
L 83.5 124.927 
L 97.5 124.927 
" style="fill: none; stroke: #9467bd; stroke-width: 1.5; stroke-linecap: square"/>
    </g>
    <g id="text_21">
     <!-- door-unlock-v2 -->
     <g transform="translate(108.7 129.827)scale(0.14 -0.14)">
      <use xlink:href="#STIXGeneral-Regular-64"/>
      <use xlink:href="#STIXGeneral-Regular-6f" x="49.999985"/>
      <use xlink:href="#STIXGeneral-Regular-6f" x="99.999969"/>
      <use xlink:href="#STIXGeneral-Regular-72" x="149.999954"/>
      <use xlink:href="#STIXGeneral-Regular-2d" x="183.299942"/>
      <use xlink:href="#STIXGeneral-Regular-75" x="216.59993"/>
      <use xlink:href="#STIXGeneral-Regular-6e" x="266.599915"/>
      <use xlink:href="#STIXGeneral-Regular-6c" x="316.599899"/>
      <use xlink:href="#STIXGeneral-Regular-6f" x="344.399887"/>
      <use xlink:href="#STIXGeneral-Regular-63" x="394.399872"/>
      <use xlink:href="#STIXGeneral-Regular-6b" x="438.799866"/>
      <use xlink:href="#STIXGeneral-Regular-2d" x="488.79985"/>
      <use xlink:href="#STIXGeneral-Regular-76" x="522.099838"/>
      <use xlink:href="#STIXGeneral-Regular-32" x="572.099823"/>
     </g>
    </g>
   </g>
  </g>
 </g>
 <defs>
  <clipPath id="pa88c59d479">
   <rect x="56.9" y="28.060125" width="446.4" height="277.2"/>
  </clipPath>
 </defs>
</svg>
