<?xml version="1.0" encoding="utf-8" standalone="no"?>
<!DOCTYPE svg PUBLIC "-//W3C//DTD SVG 1.1//EN"
  "http://www.w3.org/Graphics/SVG/1.1/DTD/svg11.dtd">
<svg xmlns:xlink="http://www.w3.org/1999/xlink" width="524pt" height="355.877pt" viewBox="0 0 524 355.877" xmlns="http://www.w3.org/2000/svg" version="1.1">
 <metadata>
  <rdf:RDF xmlns:dc="http://purl.org/dc/elements/1.1/" xmlns:cc="http://creativecommons.org/ns#" xmlns:rdf="http://www.w3.org/1999/02/22-rdf-syntax-ns#">
   <cc:Work>
    <dc:type rdf:resource="http://purl.org/dc/dcmitype/StillImage"/>
    <dc:date>2021-12-11T15:58:27.594518</dc:date>
    <dc:format>image/svg+xml</dc:format>
    <dc:creator>
     <cc:Agent>
      <dc:title>Matplotlib v3.5.0, https://matplotlib.org/</dc:title>
     </cc:Agent>
    </dc:creator>
   </cc:Work>
  </rdf:RDF>
 </metadata>
 <defs>
  <style type="text/css">*{stroke-linejoin: round; stroke-linecap: butt}</style>
 </defs>
 <g id="figure_1">
  <g id="patch_1">
   <path d="M 0 355.877 
L 524 355.877 
L 524 0 
L 0 0 
z
" style="fill: #ffffff"/>
  </g>
  <g id="axes_1">
   <g id="patch_2">
    <path d="M 70.4 305.260125 
L 516.8 305.260125 
L 516.8 28.060125 
L 70.4 28.060125 
z
" style="fill: #ffffff"/>
   </g>
   <g id="matplotlib.axis_1">
    <g id="xtick_1">
     <g id="line2d_1">
      <path d="M 89.215207 305.260125 
L 89.215207 28.060125 
" clip-path="url(#p09c14efb3b)" style="fill: none; stroke: #b0b0b0; stroke-width: 0.8; stroke-linecap: square"/>
     </g>
     <g id="line2d_2">
      <defs>
       <path id="m2d4d7bca58" d="M 0 0 
L 0 3.5 
" style="stroke: #000000; stroke-width: 0.8"/>
      </defs>
      <g>
       <use xlink:href="#m2d4d7bca58" x="89.215207" y="305.260125" style="stroke: #000000; stroke-width: 0.8"/>
      </g>
     </g>
     <g id="text_1">
      <!-- 0 -->
      <g transform="translate(84.715207 324.553562)scale(0.18 -0.18)">
       <defs>
        <path id="STIXGeneral-Regular-30" d="M 3046 2112 
Q 3046 1683 2963 1302 
Q 2880 922 2717 602 
Q 2554 282 2266 96 
Q 1978 -90 1600 -90 
Q 1210 -90 915 108 
Q 621 307 461 640 
Q 301 973 227 1350 
Q 154 1728 154 2150 
Q 154 2746 301 3222 
Q 448 3699 790 4012 
Q 1133 4326 1626 4326 
Q 2253 4326 2649 3712 
Q 3046 3098 3046 2112 
z
M 2432 2080 
Q 2432 3091 2217 3625 
Q 2003 4160 1587 4160 
Q 1190 4160 979 3622 
Q 768 3085 768 2106 
Q 768 1120 979 598 
Q 1190 77 1600 77 
Q 2003 77 2217 598 
Q 2432 1120 2432 2080 
z
" transform="scale(0.015625)"/>
       </defs>
       <use xlink:href="#STIXGeneral-Regular-30"/>
      </g>
     </g>
    </g>
    <g id="xtick_2">
     <g id="line2d_3">
      <path d="M 162.089403 305.260125 
L 162.089403 28.060125 
" clip-path="url(#p09c14efb3b)" style="fill: none; stroke: #b0b0b0; stroke-width: 0.8; stroke-linecap: square"/>
     </g>
     <g id="line2d_4">
      <g>
       <use xlink:href="#m2d4d7bca58" x="162.089403" y="305.260125" style="stroke: #000000; stroke-width: 0.8"/>
      </g>
     </g>
     <g id="text_2">
      <!-- 1 -->
      <g transform="translate(157.589403 324.553562)scale(0.18 -0.18)">
       <defs>
        <path id="STIXGeneral-Regular-31" d="M 2522 0 
L 755 0 
L 755 96 
Q 1107 115 1235 227 
Q 1363 339 1363 608 
L 1363 3482 
Q 1363 3795 1171 3795 
Q 1082 3795 883 3718 
L 710 3654 
L 710 3744 
L 1856 4326 
L 1914 4307 
L 1914 486 
Q 1914 275 2042 185 
Q 2170 96 2522 96 
L 2522 0 
z
" transform="scale(0.015625)"/>
       </defs>
       <use xlink:href="#STIXGeneral-Regular-31"/>
      </g>
     </g>
    </g>
    <g id="xtick_3">
     <g id="line2d_5">
      <path d="M 234.9636 305.260125 
L 234.9636 28.060125 
" clip-path="url(#p09c14efb3b)" style="fill: none; stroke: #b0b0b0; stroke-width: 0.8; stroke-linecap: square"/>
     </g>
     <g id="line2d_6">
      <g>
       <use xlink:href="#m2d4d7bca58" x="234.9636" y="305.260125" style="stroke: #000000; stroke-width: 0.8"/>
      </g>
     </g>
     <g id="text_3">
      <!-- 2 -->
      <g transform="translate(230.4636 324.553562)scale(0.18 -0.18)">
       <defs>
        <path id="STIXGeneral-Regular-32" d="M 3034 877 
L 2688 0 
L 186 0 
L 186 77 
L 1325 1286 
Q 1773 1754 1965 2144 
Q 2157 2534 2157 2950 
Q 2157 3379 1920 3616 
Q 1683 3853 1267 3853 
Q 922 3853 720 3673 
Q 518 3494 326 3021 
L 192 3053 
Q 301 3648 630 3987 
Q 960 4326 1523 4326 
Q 2054 4326 2380 4006 
Q 2707 3686 2707 3200 
Q 2707 2477 1888 1613 
L 832 486 
L 2330 486 
Q 2541 486 2665 569 
Q 2790 653 2944 915 
L 3034 877 
z
" transform="scale(0.015625)"/>
       </defs>
       <use xlink:href="#STIXGeneral-Regular-32"/>
      </g>
     </g>
    </g>
    <g id="xtick_4">
     <g id="line2d_7">
      <path d="M 307.837796 305.260125 
L 307.837796 28.060125 
" clip-path="url(#p09c14efb3b)" style="fill: none; stroke: #b0b0b0; stroke-width: 0.8; stroke-linecap: square"/>
     </g>
     <g id="line2d_8">
      <g>
       <use xlink:href="#m2d4d7bca58" x="307.837796" y="305.260125" style="stroke: #000000; stroke-width: 0.8"/>
      </g>
     </g>
     <g id="text_4">
      <!-- 3 -->
      <g transform="translate(303.337796 324.553562)scale(0.18 -0.18)">
       <defs>
        <path id="STIXGeneral-Regular-33" d="M 390 3264 
L 288 3290 
Q 435 3770 748 4048 
Q 1062 4326 1542 4326 
Q 1990 4326 2265 4083 
Q 2541 3840 2541 3450 
Q 2541 2925 1946 2566 
Q 2298 2413 2477 2227 
Q 2758 1914 2758 1402 
Q 2758 890 2464 506 
Q 2246 211 1840 60 
Q 1434 -90 979 -90 
Q 262 -90 262 275 
Q 262 378 339 442 
Q 416 506 525 506 
Q 685 506 915 339 
Q 1197 141 1466 141 
Q 1818 141 2058 425 
Q 2298 710 2298 1120 
Q 2298 1856 1632 2048 
Q 1434 2112 979 2112 
L 979 2202 
Q 1338 2323 1517 2432 
Q 2035 2726 2035 3290 
Q 2035 3610 1852 3776 
Q 1670 3942 1344 3942 
Q 768 3942 390 3264 
z
" transform="scale(0.015625)"/>
       </defs>
       <use xlink:href="#STIXGeneral-Regular-33"/>
      </g>
     </g>
    </g>
    <g id="xtick_5">
     <g id="line2d_9">
      <path d="M 380.711993 305.260125 
L 380.711993 28.060125 
" clip-path="url(#p09c14efb3b)" style="fill: none; stroke: #b0b0b0; stroke-width: 0.8; stroke-linecap: square"/>
     </g>
     <g id="line2d_10">
      <g>
       <use xlink:href="#m2d4d7bca58" x="380.711993" y="305.260125" style="stroke: #000000; stroke-width: 0.8"/>
      </g>
     </g>
     <g id="text_5">
      <!-- 4 -->
      <g transform="translate(376.211993 324.553562)scale(0.18 -0.18)">
       <defs>
        <path id="STIXGeneral-Regular-34" d="M 3027 1069 
L 2368 1069 
L 2368 0 
L 1869 0 
L 1869 1069 
L 77 1069 
L 77 1478 
L 2086 4326 
L 2368 4326 
L 2368 1478 
L 3027 1478 
L 3027 1069 
z
M 1869 1478 
L 1869 3674 
L 333 1478 
L 1869 1478 
z
" transform="scale(0.015625)"/>
       </defs>
       <use xlink:href="#STIXGeneral-Regular-34"/>
      </g>
     </g>
    </g>
    <g id="xtick_6">
     <g id="line2d_11">
      <path d="M 453.586189 305.260125 
L 453.586189 28.060125 
" clip-path="url(#p09c14efb3b)" style="fill: none; stroke: #b0b0b0; stroke-width: 0.8; stroke-linecap: square"/>
     </g>
     <g id="line2d_12">
      <g>
       <use xlink:href="#m2d4d7bca58" x="453.586189" y="305.260125" style="stroke: #000000; stroke-width: 0.8"/>
      </g>
     </g>
     <g id="text_6">
      <!-- 5 -->
      <g transform="translate(449.086189 324.553562)scale(0.18 -0.18)">
       <defs>
        <path id="STIXGeneral-Regular-35" d="M 2803 4358 
L 2573 3814 
Q 2534 3731 2400 3731 
L 1158 3731 
L 902 3187 
Q 1606 3053 1920 2896 
Q 2234 2739 2502 2368 
Q 2726 2061 2726 1555 
Q 2726 1094 2576 780 
Q 2426 467 2099 224 
Q 1664 -90 1011 -90 
Q 646 -90 422 19 
Q 198 128 198 307 
Q 198 550 486 550 
Q 717 550 960 352 
Q 1210 147 1414 147 
Q 1747 147 2012 480 
Q 2278 813 2278 1229 
Q 2278 1843 1850 2189 
Q 1293 2637 486 2637 
Q 410 2637 410 2688 
L 416 2720 
L 1114 4237 
L 2438 4237 
Q 2547 4237 2608 4269 
Q 2669 4301 2746 4403 
L 2803 4358 
z
" transform="scale(0.015625)"/>
       </defs>
       <use xlink:href="#STIXGeneral-Regular-35"/>
      </g>
     </g>
    </g>
    <g id="text_7">
     <!-- Training Environment Steps -->
     <g transform="translate(191.604688 344.753562)scale(0.18 -0.18)">
      <defs>
       <path id="STIXGeneral-Regular-54" d="M 3795 3149 
L 3642 3149 
Q 3539 3674 3353 3821 
Q 3168 3968 2656 3968 
L 2278 3968 
L 2278 710 
Q 2278 346 2387 243 
Q 2496 141 2893 122 
L 2893 0 
L 1024 0 
L 1024 122 
Q 1427 147 1526 256 
Q 1626 365 1626 787 
L 1626 3968 
L 1242 3968 
Q 723 3968 540 3817 
Q 358 3667 262 3149 
L 109 3149 
L 154 4237 
L 3750 4237 
L 3795 3149 
z
" transform="scale(0.015625)"/>
       <path id="STIXGeneral-Regular-72" d="M 1024 2931 
L 1024 2342 
Q 1267 2688 1430 2816 
Q 1594 2944 1792 2944 
Q 1958 2944 2051 2854 
Q 2144 2765 2144 2605 
Q 2144 2470 2077 2393 
Q 2010 2317 1894 2317 
Q 1773 2317 1638 2445 
Q 1536 2541 1472 2541 
Q 1338 2541 1181 2355 
Q 1024 2170 1024 2016 
L 1024 576 
Q 1024 301 1133 205 
Q 1242 109 1568 96 
L 1568 0 
L 32 0 
L 32 96 
Q 339 154 412 224 
Q 486 294 486 538 
L 486 2138 
Q 486 2349 438 2435 
Q 390 2522 269 2522 
Q 166 2522 45 2496 
L 45 2598 
Q 448 2726 992 2944 
L 1024 2931 
z
" transform="scale(0.015625)"/>
       <path id="STIXGeneral-Regular-61" d="M 2829 422 
L 2829 243 
Q 2586 -64 2253 -64 
Q 1888 -64 1843 403 
L 1837 403 
Q 1427 -64 909 -64 
Q 608 -64 422 112 
Q 237 288 237 602 
Q 237 1050 685 1350 
Q 992 1555 1837 1869 
L 1837 2214 
Q 1837 2502 1699 2646 
Q 1562 2790 1338 2790 
Q 1146 2790 1018 2697 
Q 890 2605 890 2477 
Q 890 2419 909 2348 
Q 928 2278 928 2208 
Q 928 2112 841 2029 
Q 755 1946 634 1946 
Q 525 1946 441 2029 
Q 358 2112 358 2240 
Q 358 2547 685 2752 
Q 986 2944 1421 2944 
Q 1939 2944 2176 2656 
Q 2291 2522 2323 2384 
Q 2355 2246 2355 1946 
L 2355 723 
Q 2355 301 2554 301 
Q 2682 301 2829 422 
z
M 1837 813 
L 1837 1715 
Q 1248 1510 1018 1293 
Q 800 1094 800 800 
Q 800 557 921 432 
Q 1043 307 1242 307 
Q 1453 307 1613 410 
Q 1747 506 1792 589 
Q 1837 672 1837 813 
z
" transform="scale(0.015625)"/>
       <path id="STIXGeneral-Regular-69" d="M 1152 4045 
Q 1152 3904 1056 3811 
Q 960 3718 819 3718 
Q 685 3718 592 3811 
Q 499 3904 499 4045 
Q 499 4179 595 4275 
Q 691 4371 826 4371 
Q 966 4371 1059 4275 
Q 1152 4179 1152 4045 
z
M 1619 0 
L 102 0 
L 102 96 
Q 435 115 521 211 
Q 608 307 608 666 
L 608 2118 
Q 608 2342 563 2432 
Q 518 2522 397 2522 
Q 243 2522 128 2490 
L 128 2592 
L 1120 2944 
L 1146 2918 
L 1146 672 
Q 1146 314 1226 218 
Q 1306 122 1619 96 
L 1619 0 
z
" transform="scale(0.015625)"/>
       <path id="STIXGeneral-Regular-6e" d="M 3104 0 
L 1773 0 
L 1779 96 
Q 2016 115 2096 233 
Q 2176 352 2176 672 
L 2176 1946 
Q 2176 2592 1709 2592 
Q 1549 2592 1408 2515 
Q 1267 2438 1050 2227 
L 1050 461 
Q 1050 269 1136 192 
Q 1222 115 1466 96 
L 1466 0 
L 115 0 
L 115 96 
Q 358 115 435 214 
Q 512 314 512 602 
L 512 2157 
Q 512 2394 467 2483 
Q 422 2573 288 2573 
Q 160 2573 102 2547 
L 102 2656 
Q 550 2784 979 2944 
L 1030 2925 
L 1030 2426 
L 1037 2426 
Q 1491 2944 1958 2944 
Q 2323 2944 2518 2688 
Q 2714 2432 2714 1958 
L 2714 544 
Q 2714 288 2790 205 
Q 2867 122 3104 96 
L 3104 0 
z
" transform="scale(0.015625)"/>
       <path id="STIXGeneral-Regular-67" d="M 3008 2483 
L 2477 2483 
Q 2598 2208 2598 1946 
Q 2598 1453 2265 1203 
Q 1933 954 1600 954 
Q 1530 954 1357 973 
L 1235 986 
Q 1107 947 979 812 
Q 851 678 851 582 
Q 851 435 1350 410 
L 2176 371 
Q 2528 358 2739 172 
Q 2950 -13 2950 -314 
Q 2950 -685 2566 -986 
Q 2035 -1395 1286 -1395 
Q 826 -1395 502 -1212 
Q 179 -1030 179 -774 
Q 179 -595 320 -419 
Q 461 -243 806 6 
Q 602 102 534 172 
Q 467 243 467 346 
Q 467 531 762 787 
Q 909 915 1037 1043 
Q 717 1203 579 1401 
Q 442 1600 442 1901 
Q 442 2336 752 2640 
Q 1062 2944 1510 2944 
Q 1766 2944 2022 2848 
L 2163 2797 
Q 2349 2733 2515 2733 
L 3008 2733 
L 3008 2483 
z
M 973 2163 
L 973 2144 
Q 973 1683 1155 1398 
Q 1338 1114 1632 1114 
Q 1850 1114 1978 1270 
Q 2106 1427 2106 1690 
Q 2106 2112 1914 2464 
Q 1754 2765 1446 2765 
Q 1222 2765 1097 2605 
Q 973 2445 973 2163 
z
M 2771 -410 
Q 2771 -230 2595 -163 
Q 2419 -96 1978 -96 
Q 1344 -96 941 -13 
Q 749 -243 688 -348 
Q 627 -454 627 -563 
Q 627 -774 880 -902 
Q 1133 -1030 1555 -1030 
Q 2099 -1030 2435 -860 
Q 2771 -691 2771 -410 
z
" transform="scale(0.015625)"/>
       <path id="STIXGeneral-Regular-20" transform="scale(0.015625)"/>
       <path id="STIXGeneral-Regular-45" d="M 3821 1082 
L 3526 0 
L 77 0 
L 77 122 
Q 442 147 538 252 
Q 634 358 634 730 
L 634 3520 
Q 634 3878 534 3987 
Q 435 4096 77 4115 
L 77 4237 
L 3469 4237 
L 3494 3322 
L 3334 3322 
Q 3264 3750 3085 3872 
Q 2906 3994 2349 3994 
L 1510 3994 
Q 1370 3994 1328 3952 
Q 1286 3910 1286 3763 
L 1286 2355 
L 2253 2355 
Q 2656 2355 2787 2470 
Q 2918 2586 2976 2970 
L 3123 2970 
L 3123 1472 
L 2976 1472 
Q 2918 1875 2790 1984 
Q 2662 2093 2253 2093 
L 1286 2093 
L 1286 538 
Q 1286 346 1420 291 
Q 1555 237 1933 237 
L 2163 237 
Q 2848 237 3136 403 
Q 3424 570 3642 1082 
L 3821 1082 
z
" transform="scale(0.015625)"/>
       <path id="STIXGeneral-Regular-76" d="M 3053 2880 
L 3053 2784 
Q 2906 2771 2835 2688 
Q 2765 2605 2637 2285 
L 1818 230 
Q 1690 -90 1638 -90 
Q 1587 -90 1523 77 
Q 1510 96 1497 141 
Q 1485 186 1472 211 
L 704 2048 
Q 499 2534 403 2652 
Q 307 2771 122 2784 
L 122 2880 
L 1376 2880 
L 1376 2784 
Q 1210 2771 1146 2732 
Q 1082 2694 1082 2611 
Q 1082 2509 1139 2368 
L 1792 730 
L 2426 2387 
Q 2464 2483 2464 2579 
Q 2464 2758 2163 2784 
L 2163 2880 
L 3053 2880 
z
" transform="scale(0.015625)"/>
       <path id="STIXGeneral-Regular-6f" d="M 3008 1478 
Q 3008 806 2608 371 
Q 2208 -64 1568 -64 
Q 979 -64 582 368 
Q 186 800 186 1459 
Q 186 2125 582 2534 
Q 979 2944 1626 2944 
Q 2221 2944 2614 2537 
Q 3008 2131 3008 1478 
z
M 2432 1306 
Q 2432 2035 2112 2445 
Q 1856 2765 1504 2765 
Q 1171 2765 966 2493 
Q 762 2221 762 1747 
Q 762 928 1101 435 
Q 1318 115 1677 115 
Q 2029 115 2230 432 
Q 2432 749 2432 1306 
z
" transform="scale(0.015625)"/>
       <path id="STIXGeneral-Regular-6d" d="M 4960 0 
L 3565 0 
L 3565 96 
Q 3834 122 3907 208 
Q 3981 294 3981 576 
L 3981 1894 
Q 3981 2278 3869 2444 
Q 3757 2611 3488 2611 
Q 3264 2611 3107 2521 
Q 2950 2432 2803 2221 
L 2803 608 
Q 2803 301 2896 201 
Q 2989 102 3264 96 
L 3264 0 
L 1830 0 
L 1830 96 
Q 2112 115 2189 188 
Q 2266 262 2266 550 
L 2266 1901 
Q 2266 2611 1850 2611 
Q 1670 2611 1468 2531 
Q 1267 2451 1171 2336 
Q 1088 2240 1088 2227 
L 1088 448 
Q 1088 243 1177 176 
Q 1267 109 1523 96 
L 1523 0 
L 102 0 
L 102 96 
Q 371 102 460 195 
Q 550 288 550 563 
L 550 2150 
Q 550 2387 499 2480 
Q 448 2573 326 2573 
Q 230 2573 122 2547 
L 122 2656 
Q 557 2778 1011 2944 
L 1062 2925 
L 1062 2451 
L 1075 2451 
Q 1363 2752 1584 2848 
Q 1805 2944 2054 2944 
Q 2560 2944 2733 2406 
Q 3232 2944 3776 2944 
Q 4518 2944 4518 1792 
L 4518 493 
Q 4518 282 4582 202 
Q 4646 122 4794 109 
L 4960 96 
L 4960 0 
z
" transform="scale(0.015625)"/>
       <path id="STIXGeneral-Regular-65" d="M 2611 1050 
L 2714 1005 
Q 2330 -64 1376 -64 
Q 813 -64 486 329 
Q 160 723 160 1389 
Q 160 2074 525 2509 
Q 890 2944 1485 2944 
Q 2061 2944 2374 2502 
Q 2560 2246 2592 1773 
L 621 1773 
Q 646 1370 700 1158 
Q 755 947 915 730 
Q 1184 378 1626 378 
Q 1939 378 2153 531 
Q 2368 685 2611 1050 
z
M 634 1978 
L 1939 1978 
Q 1882 2381 1750 2547 
Q 1619 2714 1312 2714 
Q 1043 2714 864 2525 
Q 685 2336 634 1978 
z
" transform="scale(0.015625)"/>
       <path id="STIXGeneral-Regular-74" d="M 1702 493 
L 1786 422 
Q 1478 -64 1011 -64 
Q 448 -64 448 749 
L 448 2675 
L 109 2675 
Q 83 2694 83 2720 
Q 83 2771 192 2842 
Q 435 2982 813 3526 
Q 826 3546 874 3606 
Q 922 3667 941 3706 
Q 986 3706 986 3622 
L 986 2880 
L 1632 2880 
L 1632 2675 
L 986 2675 
L 986 845 
Q 986 538 1062 403 
Q 1139 269 1318 269 
Q 1510 269 1702 493 
z
" transform="scale(0.015625)"/>
       <path id="STIXGeneral-Regular-53" d="M 3002 2963 
L 2842 2963 
Q 2733 3360 2579 3565 
Q 2189 4064 1651 4064 
Q 1357 4064 1181 3894 
Q 1005 3725 1005 3456 
Q 1005 3328 1069 3206 
Q 1133 3085 1206 2998 
Q 1280 2912 1465 2784 
Q 1651 2656 1766 2589 
Q 1882 2522 2150 2362 
Q 2669 2061 2905 1763 
Q 3142 1466 3142 1107 
Q 3142 576 2771 243 
Q 2400 -90 1837 -90 
Q 1421 -90 1082 58 
Q 915 128 781 128 
Q 704 128 653 70 
Q 602 13 602 -83 
L 461 -83 
L 275 1274 
L 416 1274 
Q 845 141 1734 141 
Q 2074 141 2285 342 
Q 2496 544 2496 858 
Q 2496 1158 2310 1363 
Q 2003 1696 1235 2106 
Q 454 2522 454 3206 
Q 454 3718 768 4022 
Q 1082 4326 1568 4326 
Q 1907 4326 2240 4186 
Q 2413 4109 2522 4109 
Q 2688 4109 2726 4326 
L 2861 4326 
L 3002 2963 
z
" transform="scale(0.015625)"/>
       <path id="STIXGeneral-Regular-70" d="M 1018 2931 
L 1018 2438 
Q 1421 2944 1939 2944 
Q 2406 2944 2707 2560 
Q 3008 2176 3008 1581 
Q 3008 883 2621 409 
Q 2234 -64 1664 -64 
Q 1466 -64 1328 -6 
Q 1190 51 1018 211 
L 1018 -794 
Q 1018 -1094 1120 -1180 
Q 1222 -1267 1581 -1274 
L 1581 -1389 
L 32 -1389 
L 32 -1280 
Q 314 -1254 397 -1171 
Q 480 -1088 480 -838 
L 480 2157 
Q 480 2381 429 2451 
Q 378 2522 218 2522 
Q 115 2522 58 2515 
L 58 2618 
Q 506 2752 979 2944 
L 1018 2931 
z
M 1018 2138 
L 1018 563 
Q 1018 422 1238 281 
Q 1459 141 1683 141 
Q 2029 141 2243 467 
Q 2458 794 2458 1325 
Q 2458 1888 2243 2224 
Q 2029 2560 1670 2560 
Q 1446 2560 1232 2419 
Q 1018 2278 1018 2138 
z
" transform="scale(0.015625)"/>
       <path id="STIXGeneral-Regular-73" d="M 998 1926 
L 1664 1523 
Q 1984 1331 2105 1164 
Q 2227 998 2227 736 
Q 2227 416 1961 176 
Q 1696 -64 1331 -64 
Q 1030 -64 864 -6 
Q 691 51 570 51 
Q 461 51 416 -26 
L 333 -26 
L 333 979 
L 435 979 
Q 538 512 730 294 
Q 922 77 1248 77 
Q 1485 77 1632 211 
Q 1779 346 1779 550 
Q 1779 845 1440 1030 
L 1094 1222 
Q 326 1651 326 2150 
Q 326 2522 566 2730 
Q 806 2938 1210 2938 
Q 1491 2938 1638 2867 
Q 1754 2816 1818 2816 
Q 1862 2816 1920 2880 
L 1990 2880 
L 2022 2010 
L 1926 2010 
Q 1818 2445 1654 2621 
Q 1491 2797 1203 2797 
Q 986 2797 854 2688 
Q 723 2579 723 2362 
Q 723 2253 796 2128 
Q 870 2003 998 1926 
z
" transform="scale(0.015625)"/>
      </defs>
      <use xlink:href="#STIXGeneral-Regular-54"/>
      <use xlink:href="#STIXGeneral-Regular-72" x="61.099991"/>
      <use xlink:href="#STIXGeneral-Regular-61" x="94.399979"/>
      <use xlink:href="#STIXGeneral-Regular-69" x="138.799973"/>
      <use xlink:href="#STIXGeneral-Regular-6e" x="166.59996"/>
      <use xlink:href="#STIXGeneral-Regular-69" x="216.599945"/>
      <use xlink:href="#STIXGeneral-Regular-6e" x="244.399933"/>
      <use xlink:href="#STIXGeneral-Regular-67" x="294.399918"/>
      <use xlink:href="#STIXGeneral-Regular-20" x="344.399902"/>
      <use xlink:href="#STIXGeneral-Regular-45" x="369.399887"/>
      <use xlink:href="#STIXGeneral-Regular-6e" x="430.499878"/>
      <use xlink:href="#STIXGeneral-Regular-76" x="480.499863"/>
      <use xlink:href="#STIXGeneral-Regular-69" x="530.499847"/>
      <use xlink:href="#STIXGeneral-Regular-72" x="558.299835"/>
      <use xlink:href="#STIXGeneral-Regular-6f" x="591.599823"/>
      <use xlink:href="#STIXGeneral-Regular-6e" x="641.599808"/>
      <use xlink:href="#STIXGeneral-Regular-6d" x="691.599792"/>
      <use xlink:href="#STIXGeneral-Regular-65" x="769.39978"/>
      <use xlink:href="#STIXGeneral-Regular-6e" x="813.799774"/>
      <use xlink:href="#STIXGeneral-Regular-74" x="863.799759"/>
      <use xlink:href="#STIXGeneral-Regular-20" x="891.599747"/>
      <use xlink:href="#STIXGeneral-Regular-53" x="916.599731"/>
      <use xlink:href="#STIXGeneral-Regular-74" x="972.199722"/>
      <use xlink:href="#STIXGeneral-Regular-65" x="999.99971"/>
      <use xlink:href="#STIXGeneral-Regular-70" x="1044.399704"/>
      <use xlink:href="#STIXGeneral-Regular-73" x="1094.399689"/>
     </g>
    </g>
    <g id="text_8">
     <!-- 1e8 -->
     <g transform="translate(490.806875 343.753562)scale(0.18 -0.18)">
      <defs>
       <path id="STIXGeneral-Regular-38" d="M 2848 992 
Q 2848 499 2505 204 
Q 2163 -90 1587 -90 
Q 1050 -90 704 204 
Q 358 499 358 954 
Q 358 1293 524 1533 
Q 691 1773 1190 2125 
Q 710 2522 553 2765 
Q 397 3008 397 3328 
Q 397 3782 745 4054 
Q 1094 4326 1638 4326 
Q 2106 4326 2410 4060 
Q 2714 3795 2714 3411 
Q 2714 3059 2531 2848 
Q 2349 2637 1856 2374 
Q 2432 1990 2640 1689 
Q 2848 1389 2848 992 
z
M 2272 3411 
Q 2272 3744 2086 3945 
Q 1901 4147 1574 4147 
Q 1248 4147 1059 3977 
Q 870 3808 870 3513 
Q 870 3219 1059 2979 
Q 1248 2739 1670 2490 
Q 1997 2682 2134 2896 
Q 2272 3110 2272 3411 
z
M 1734 1741 
L 1357 1997 
Q 1075 1766 960 1545 
Q 845 1325 845 1011 
Q 845 576 1065 333 
Q 1286 90 1658 90 
Q 1971 90 2166 285 
Q 2362 480 2362 794 
Q 2362 1082 2214 1299 
Q 2067 1517 1734 1741 
z
" transform="scale(0.015625)"/>
      </defs>
      <use xlink:href="#STIXGeneral-Regular-31"/>
      <use xlink:href="#STIXGeneral-Regular-65" x="49.999985"/>
      <use xlink:href="#STIXGeneral-Regular-38" x="94.399979"/>
     </g>
    </g>
   </g>
   <g id="matplotlib.axis_2">
    <g id="ytick_1">
     <g id="line2d_13">
      <path d="M 70.4 295.662473 
L 516.8 295.662473 
" clip-path="url(#p09c14efb3b)" style="fill: none; stroke: #b0b0b0; stroke-width: 0.8; stroke-linecap: square"/>
     </g>
     <g id="line2d_14">
      <defs>
       <path id="mf637ccd049" d="M 0 0 
L -3.5 0 
" style="stroke: #000000; stroke-width: 0.8"/>
      </defs>
      <g>
       <use xlink:href="#mf637ccd049" x="70.4" y="295.662473" style="stroke: #000000; stroke-width: 0.8"/>
      </g>
     </g>
     <g id="text_9">
      <!-- 0 -->
      <g transform="translate(54.4 301.809192)scale(0.18 -0.18)">
       <use xlink:href="#STIXGeneral-Regular-30"/>
      </g>
     </g>
    </g>
    <g id="ytick_2">
     <g id="line2d_15">
      <path d="M 70.4 252.520221 
L 516.8 252.520221 
" clip-path="url(#p09c14efb3b)" style="fill: none; stroke: #b0b0b0; stroke-width: 0.8; stroke-linecap: square"/>
     </g>
     <g id="line2d_16">
      <g>
       <use xlink:href="#mf637ccd049" x="70.4" y="252.520221" style="stroke: #000000; stroke-width: 0.8"/>
      </g>
     </g>
     <g id="text_10">
      <!-- 200 -->
      <g transform="translate(36.4 258.66694)scale(0.18 -0.18)">
       <use xlink:href="#STIXGeneral-Regular-32"/>
       <use xlink:href="#STIXGeneral-Regular-30" x="49.999985"/>
       <use xlink:href="#STIXGeneral-Regular-30" x="99.999969"/>
      </g>
     </g>
    </g>
    <g id="ytick_3">
     <g id="line2d_17">
      <path d="M 70.4 209.377969 
L 516.8 209.377969 
" clip-path="url(#p09c14efb3b)" style="fill: none; stroke: #b0b0b0; stroke-width: 0.8; stroke-linecap: square"/>
     </g>
     <g id="line2d_18">
      <g>
       <use xlink:href="#mf637ccd049" x="70.4" y="209.377969" style="stroke: #000000; stroke-width: 0.8"/>
      </g>
     </g>
     <g id="text_11">
      <!-- 400 -->
      <g transform="translate(36.4 215.524687)scale(0.18 -0.18)">
       <use xlink:href="#STIXGeneral-Regular-34"/>
       <use xlink:href="#STIXGeneral-Regular-30" x="49.999985"/>
       <use xlink:href="#STIXGeneral-Regular-30" x="99.999969"/>
      </g>
     </g>
    </g>
    <g id="ytick_4">
     <g id="line2d_19">
      <path d="M 70.4 166.235716 
L 516.8 166.235716 
" clip-path="url(#p09c14efb3b)" style="fill: none; stroke: #b0b0b0; stroke-width: 0.8; stroke-linecap: square"/>
     </g>
     <g id="line2d_20">
      <g>
       <use xlink:href="#mf637ccd049" x="70.4" y="166.235716" style="stroke: #000000; stroke-width: 0.8"/>
      </g>
     </g>
     <g id="text_12">
      <!-- 600 -->
      <g transform="translate(36.4 172.382435)scale(0.18 -0.18)">
       <defs>
        <path id="STIXGeneral-Regular-36" d="M 2854 4378 
L 2867 4275 
Q 2112 4154 1606 3664 
Q 1101 3174 973 2451 
Q 1344 2739 1786 2739 
Q 2349 2739 2672 2380 
Q 2995 2022 2995 1402 
Q 2995 774 2669 378 
Q 2291 -90 1651 -90 
Q 870 -90 518 557 
Q 218 1107 218 1786 
Q 218 2835 915 3552 
Q 1312 3962 1731 4131 
Q 2150 4301 2854 4378 
z
M 2419 1203 
Q 2419 2445 1555 2445 
Q 1235 2445 1024 2275 
Q 813 2106 813 1702 
Q 813 954 1046 522 
Q 1280 90 1722 90 
Q 2061 90 2240 394 
Q 2419 698 2419 1203 
z
" transform="scale(0.015625)"/>
       </defs>
       <use xlink:href="#STIXGeneral-Regular-36"/>
       <use xlink:href="#STIXGeneral-Regular-30" x="49.999985"/>
       <use xlink:href="#STIXGeneral-Regular-30" x="99.999969"/>
      </g>
     </g>
    </g>
    <g id="ytick_5">
     <g id="line2d_21">
      <path d="M 70.4 123.093464 
L 516.8 123.093464 
" clip-path="url(#p09c14efb3b)" style="fill: none; stroke: #b0b0b0; stroke-width: 0.8; stroke-linecap: square"/>
     </g>
     <g id="line2d_22">
      <g>
       <use xlink:href="#mf637ccd049" x="70.4" y="123.093464" style="stroke: #000000; stroke-width: 0.8"/>
      </g>
     </g>
     <g id="text_13">
      <!-- 800 -->
      <g transform="translate(36.4 129.240183)scale(0.18 -0.18)">
       <use xlink:href="#STIXGeneral-Regular-38"/>
       <use xlink:href="#STIXGeneral-Regular-30" x="49.999985"/>
       <use xlink:href="#STIXGeneral-Regular-30" x="99.999969"/>
      </g>
     </g>
    </g>
    <g id="ytick_6">
     <g id="line2d_23">
      <path d="M 70.4 79.951212 
L 516.8 79.951212 
" clip-path="url(#p09c14efb3b)" style="fill: none; stroke: #b0b0b0; stroke-width: 0.8; stroke-linecap: square"/>
     </g>
     <g id="line2d_24">
      <g>
       <use xlink:href="#mf637ccd049" x="70.4" y="79.951212" style="stroke: #000000; stroke-width: 0.8"/>
      </g>
     </g>
     <g id="text_14">
      <!-- 1000 -->
      <g transform="translate(27.4 86.09793)scale(0.18 -0.18)">
       <use xlink:href="#STIXGeneral-Regular-31"/>
       <use xlink:href="#STIXGeneral-Regular-30" x="49.999985"/>
       <use xlink:href="#STIXGeneral-Regular-30" x="99.999969"/>
       <use xlink:href="#STIXGeneral-Regular-30" x="149.999954"/>
      </g>
     </g>
    </g>
    <g id="ytick_7">
     <g id="line2d_25">
      <path d="M 70.4 36.808959 
L 516.8 36.808959 
" clip-path="url(#p09c14efb3b)" style="fill: none; stroke: #b0b0b0; stroke-width: 0.8; stroke-linecap: square"/>
     </g>
     <g id="line2d_26">
      <g>
       <use xlink:href="#mf637ccd049" x="70.4" y="36.808959" style="stroke: #000000; stroke-width: 0.8"/>
      </g>
     </g>
     <g id="text_15">
      <!-- 1200 -->
      <g transform="translate(27.4 42.955678)scale(0.18 -0.18)">
       <use xlink:href="#STIXGeneral-Regular-31"/>
       <use xlink:href="#STIXGeneral-Regular-32" x="49.999985"/>
       <use xlink:href="#STIXGeneral-Regular-30" x="99.999969"/>
       <use xlink:href="#STIXGeneral-Regular-30" x="149.999954"/>
      </g>
     </g>
    </g>
    <g id="text_16">
     <!-- Average Test Return -->
     <g transform="translate(19.476562 241.641375)rotate(-90)scale(0.18 -0.18)">
      <defs>
       <path id="STIXGeneral-Regular-41" d="M 4525 0 
L 2893 0 
L 2893 122 
Q 3149 122 3245 179 
Q 3334 224 3334 333 
Q 3334 499 3213 781 
L 2950 1382 
L 1274 1382 
L 979 653 
Q 922 506 922 384 
Q 922 237 1027 179 
Q 1133 122 1370 122 
L 1370 0 
L 96 0 
L 96 122 
Q 365 147 486 316 
Q 608 486 902 1190 
L 2221 4314 
L 2349 4314 
L 3923 710 
Q 4064 378 4176 262 
Q 4288 147 4525 122 
L 4525 0 
z
M 2861 1645 
L 2118 3405 
L 1382 1645 
L 2861 1645 
z
" transform="scale(0.015625)"/>
       <path id="STIXGeneral-Regular-52" d="M 4224 0 
L 3187 0 
L 1664 1971 
L 1306 1958 
L 1306 717 
Q 1306 352 1405 249 
Q 1504 147 1875 122 
L 1875 0 
L 109 0 
L 109 122 
Q 474 154 563 262 
Q 653 371 653 794 
L 653 3526 
Q 653 3885 563 3987 
Q 474 4090 109 4115 
L 109 4237 
L 1850 4237 
Q 2726 4237 3187 3859 
Q 3501 3603 3501 3091 
Q 3501 2221 2342 2042 
L 3622 422 
Q 3757 256 3878 198 
Q 4000 141 4224 122 
L 4224 0 
z
M 1306 3731 
L 1306 2195 
Q 1766 2202 1990 2246 
Q 2214 2291 2438 2413 
Q 2803 2618 2803 3142 
Q 2803 4000 1632 4000 
Q 1459 4000 1382 3945 
Q 1306 3891 1306 3731 
z
" transform="scale(0.015625)"/>
       <path id="STIXGeneral-Regular-75" d="M 3072 320 
L 3072 230 
Q 2573 96 2195 -58 
L 2163 -38 
L 2163 486 
L 2150 486 
Q 1747 -64 1235 -64 
Q 870 -64 662 160 
Q 454 384 454 755 
L 454 2362 
Q 454 2598 371 2688 
Q 288 2778 58 2790 
L 58 2880 
L 992 2880 
L 992 813 
Q 992 595 1123 451 
Q 1254 307 1446 307 
Q 1760 307 1984 506 
Q 2067 582 2099 649 
Q 2131 717 2131 877 
L 2131 2355 
Q 2131 2605 2041 2678 
Q 1952 2752 1658 2771 
L 1658 2880 
L 2669 2880 
L 2669 685 
Q 2669 461 2742 390 
Q 2816 320 3034 320 
L 3072 320 
z
" transform="scale(0.015625)"/>
      </defs>
      <use xlink:href="#STIXGeneral-Regular-41"/>
      <use xlink:href="#STIXGeneral-Regular-76" x="72.199982"/>
      <use xlink:href="#STIXGeneral-Regular-65" x="122.199966"/>
      <use xlink:href="#STIXGeneral-Regular-72" x="166.59996"/>
      <use xlink:href="#STIXGeneral-Regular-61" x="199.899948"/>
      <use xlink:href="#STIXGeneral-Regular-67" x="244.299942"/>
      <use xlink:href="#STIXGeneral-Regular-65" x="294.299927"/>
      <use xlink:href="#STIXGeneral-Regular-20" x="338.699921"/>
      <use xlink:href="#STIXGeneral-Regular-54" x="363.699905"/>
      <use xlink:href="#STIXGeneral-Regular-65" x="424.799896"/>
      <use xlink:href="#STIXGeneral-Regular-73" x="469.19989"/>
      <use xlink:href="#STIXGeneral-Regular-74" x="508.099884"/>
      <use xlink:href="#STIXGeneral-Regular-20" x="535.899872"/>
      <use xlink:href="#STIXGeneral-Regular-52" x="560.899857"/>
      <use xlink:href="#STIXGeneral-Regular-65" x="627.599854"/>
      <use xlink:href="#STIXGeneral-Regular-74" x="671.999847"/>
      <use xlink:href="#STIXGeneral-Regular-75" x="699.799835"/>
      <use xlink:href="#STIXGeneral-Regular-72" x="749.79982"/>
      <use xlink:href="#STIXGeneral-Regular-6e" x="783.099808"/>
     </g>
    </g>
   </g>
   <g id="line2d_27">
    <path d="M 90.690909 292.349086 
L 96.593719 292.482559 
L 98.069421 292.612224 
L 102.496529 292.557108 
L 108.399339 292.20838 
L 111.350744 292.193604 
L 112.826446 292.102548 
L 115.777851 292.133189 
L 118.729256 291.967613 
L 121.680661 291.738597 
L 123.156364 291.785477 
L 124.632066 291.611478 
L 142.340496 291.471286 
L 145.291901 291.575505 
L 146.767603 291.520265 
L 149.719008 291.600687 
L 160.048926 291.508756 
L 174.80595 290.61854 
L 176.281653 290.709711 
L 180.70876 290.539581 
L 182.184463 290.468303 
L 185.135868 290.676211 
L 186.61157 290.426022 
L 188.087273 290.497296 
L 192.51438 290.292351 
L 195.465785 290.222183 
L 201.368595 290.540135 
L 202.844298 290.453204 
L 205.795702 290.811316 
L 208.747107 290.694433 
L 214.649917 290.857903 
L 217.601322 290.675864 
L 219.077025 290.362741 
L 220.552727 290.490402 
L 224.979835 290.387467 
L 232.358347 290.484697 
L 235.309752 290.389801 
L 236.785455 290.211545 
L 239.73686 290.342779 
L 241.212562 290.178705 
L 242.688264 290.271292 
L 244.163967 290.101155 
L 247.115372 290.110041 
L 248.591074 290.128131 
L 251.542479 290.453025 
L 257.445289 290.364569 
L 258.920992 290.213951 
L 260.396694 290.279707 
L 261.872397 290.09097 
L 264.823802 290.094367 
L 266.299504 289.944824 
L 267.775207 289.966803 
L 269.250909 289.800701 
L 278.105124 289.884153 
L 284.007934 290.013911 
L 286.959339 289.764523 
L 288.435041 289.74381 
L 289.910744 289.606832 
L 291.386446 289.611543 
L 294.337851 290.025957 
L 298.764959 289.884065 
L 304.667769 290.000133 
L 306.143471 290.161875 
L 314.997686 289.909885 
L 316.473388 290.00232 
L 317.949091 289.917395 
L 320.900496 290.151231 
L 323.851901 290.221319 
L 325.327603 290.076122 
L 331.230413 290.127236 
L 334.181818 289.936013 
L 335.657521 290.015031 
L 337.133223 289.956039 
L 340.084628 290.067259 
L 356.317355 289.558573 
L 357.793058 289.389448 
L 359.26876 289.502017 
L 360.744463 289.41863 
L 362.220165 289.475642 
L 363.695868 289.730642 
L 369.598678 289.570174 
L 374.025785 289.649943 
L 376.97719 289.279293 
L 379.928595 289.098729 
L 384.355702 289.3661 
L 387.307107 289.312752 
L 388.78281 289.409415 
L 391.734215 289.23208 
L 397.637025 289.225921 
L 399.112727 289.084892 
L 400.58843 289.237841 
L 402.064132 289.232843 
L 403.539835 289.067116 
L 406.49124 289.261574 
L 409.442645 289.117474 
L 412.39405 289.045064 
L 415.345455 289.310834 
L 418.29686 289.332445 
L 421.248264 289.636602 
L 425.675372 289.608284 
L 428.626777 289.597021 
L 431.578182 289.564448 
L 433.053884 289.653282 
L 436.005289 289.642173 
L 437.480992 289.774172 
L 440.432397 289.58588 
L 446.335207 289.520541 
L 449.286612 289.73438 
L 450.762314 289.716755 
L 452.238017 289.487584 
L 455.189421 289.497305 
L 456.665124 289.290677 
L 458.140826 289.488139 
L 459.616529 289.434831 
L 461.092231 289.236609 
L 464.043636 289.310035 
L 465.519339 289.198589 
L 466.995041 289.400956 
L 468.470744 289.225907 
L 472.897851 289.472522 
L 474.373554 289.608543 
L 478.800661 289.264226 
L 483.227769 289.434691 
L 486.179174 289.606865 
L 489.130579 289.265729 
L 490.606281 289.343073 
L 492.081983 289.229198 
L 493.557686 289.263779 
L 495.033388 289.115119 
L 496.509091 289.123037 
L 496.509091 289.123037 
" clip-path="url(#p09c14efb3b)" style="fill: none; stroke: #1f77b4; stroke-width: 1.5; stroke-linecap: square"/>
   </g>
   <g id="line2d_28">
    <path d="M 90.690909 244.940039 
L 92.166612 245.091176 
L 96.593719 245.138115 
L 98.069421 245.941993 
L 101.020826 246.726126 
L 102.496529 246.885073 
L 103.972231 246.412596 
L 108.399339 246.110275 
L 109.875041 245.937147 
L 111.350744 246.311359 
L 112.826446 246.519731 
L 115.777851 246.614062 
L 118.729256 246.349721 
L 123.156364 245.980969 
L 126.107769 246.391412 
L 127.583471 246.340058 
L 129.059174 245.883705 
L 132.010579 245.651461 
L 133.486281 245.952591 
L 139.389091 246.2015 
L 140.864793 246.511976 
L 142.340496 246.338156 
L 143.816198 246.581283 
L 149.719008 246.005382 
L 152.670413 246.267491 
L 154.146116 246.726403 
L 155.621818 246.943617 
L 161.524628 246.880103 
L 163.000331 246.55606 
L 164.476033 246.695437 
L 165.951736 246.661771 
L 167.427438 246.862085 
L 168.90314 246.894222 
L 170.378843 246.680843 
L 171.854545 246.281093 
L 173.330248 245.338384 
L 174.80595 245.20716 
L 176.281653 244.8609 
L 177.757355 244.942152 
L 179.233058 245.547595 
L 180.70876 244.322444 
L 182.184463 244.135302 
L 183.660165 244.523493 
L 186.61157 244.589728 
L 188.087273 245.195755 
L 191.038678 245.356119 
L 192.51438 244.343153 
L 193.990083 244.090558 
L 195.465785 242.919109 
L 196.941488 242.270417 
L 198.41719 242.316436 
L 201.368595 241.589342 
L 202.844298 240.810376 
L 205.795702 242.166631 
L 207.271405 243.103956 
L 208.747107 242.901045 
L 211.698512 243.410957 
L 213.174215 244.120818 
L 214.649917 243.203766 
L 217.601322 244.649616 
L 219.077025 245.021231 
L 220.552727 244.444787 
L 222.02843 244.765836 
L 223.504132 243.946184 
L 224.979835 243.816737 
L 226.455537 241.554323 
L 227.93124 240.504643 
L 229.406942 240.165136 
L 230.882645 241.828019 
L 232.358347 241.297006 
L 233.83405 240.350734 
L 236.785455 241.01121 
L 238.261157 241.895296 
L 239.73686 242.391748 
L 241.212562 242.71148 
L 242.688264 242.914951 
L 244.163967 242.697669 
L 245.639669 241.936552 
L 247.115372 242.464403 
L 248.591074 242.520569 
L 250.066777 243.163132 
L 251.542479 243.168596 
L 253.018182 243.864647 
L 254.493884 244.89736 
L 255.969587 246.310044 
L 257.445289 247.119407 
L 258.920992 248.1922 
L 260.396694 247.909961 
L 261.872397 247.829649 
L 263.348099 247.483254 
L 264.823802 245.90581 
L 266.299504 244.496537 
L 267.775207 243.906362 
L 269.250909 243.08574 
L 272.202314 244.618115 
L 273.678017 244.571775 
L 275.153719 243.337922 
L 276.629421 242.627404 
L 278.105124 241.784387 
L 279.580826 241.212225 
L 281.056529 239.761967 
L 284.007934 237.800157 
L 285.483636 238.365639 
L 286.959339 236.44585 
L 288.435041 236.808377 
L 291.386446 237.246709 
L 292.862149 236.619068 
L 294.337851 235.085327 
L 295.813554 236.013802 
L 297.289256 234.123745 
L 298.764959 233.945167 
L 301.716364 233.218547 
L 303.192066 233.958127 
L 304.667769 233.868721 
L 306.143471 235.84319 
L 307.619174 235.859471 
L 309.094876 233.192086 
L 310.570579 233.128696 
L 312.046281 234.827735 
L 313.521983 234.951488 
L 316.473388 234.860369 
L 317.949091 235.21826 
L 319.424793 235.381375 
L 320.900496 234.626364 
L 322.376198 235.186194 
L 323.851901 233.401499 
L 325.327603 234.493204 
L 326.803306 236.074586 
L 328.279008 234.221189 
L 329.754711 234.933523 
L 331.230413 234.756365 
L 332.706116 234.900064 
L 334.181818 235.215465 
L 335.657521 234.501197 
L 337.133223 234.134529 
L 338.608926 234.754788 
L 341.560331 236.864315 
L 343.036033 236.0674 
L 344.511736 235.834504 
L 348.938843 236.636443 
L 350.414545 233.97761 
L 351.890248 234.776295 
L 353.36595 234.107499 
L 354.841653 236.556875 
L 356.317355 236.146735 
L 357.793058 235.43373 
L 359.26876 234.875934 
L 360.744463 234.667418 
L 362.220165 236.638365 
L 363.695868 236.737092 
L 365.17157 236.296306 
L 366.647273 237.344416 
L 368.122975 239.493347 
L 369.598678 240.208966 
L 371.07438 239.456983 
L 372.550083 240.415634 
L 374.025785 241.185514 
L 375.501488 240.979858 
L 376.97719 240.355294 
L 378.452893 237.654215 
L 379.928595 236.729945 
L 381.404298 236.054809 
L 382.88 236.843323 
L 384.355702 236.31829 
L 385.831405 238.149703 
L 387.307107 238.900208 
L 388.78281 238.737353 
L 390.258512 239.518604 
L 391.734215 241.126229 
L 393.209917 240.602201 
L 394.68562 241.038731 
L 396.161322 242.409309 
L 397.637025 242.850856 
L 399.112727 242.577575 
L 400.58843 243.496564 
L 402.064132 243.493044 
L 403.539835 243.836205 
L 405.015537 243.823676 
L 406.49124 243.115855 
L 407.966942 242.622335 
L 409.442645 242.366469 
L 410.918347 243.04166 
L 412.39405 240.914994 
L 413.869752 239.062588 
L 415.345455 240.234969 
L 416.821157 240.094896 
L 418.29686 240.443882 
L 419.772562 240.297973 
L 421.248264 240.569142 
L 422.723967 241.17766 
L 427.151074 242.351985 
L 428.626777 243.621062 
L 430.102479 243.932189 
L 431.578182 243.456523 
L 433.053884 242.736797 
L 434.529587 242.697879 
L 436.005289 243.240368 
L 437.480992 242.819388 
L 438.956694 244.203568 
L 440.432397 244.461875 
L 441.908099 244.294298 
L 443.383802 244.389017 
L 444.859504 244.283514 
L 446.335207 243.369277 
L 447.810909 243.272299 
L 449.286612 242.481412 
L 450.762314 239.369227 
L 452.238017 238.452072 
L 453.713719 237.936748 
L 455.189421 235.394837 
L 456.665124 237.059828 
L 458.140826 236.627443 
L 459.616529 235.021443 
L 461.092231 235.175598 
L 462.567934 234.171528 
L 464.043636 233.689034 
L 465.519339 233.609595 
L 466.995041 234.220062 
L 468.470744 235.433443 
L 469.946446 235.427384 
L 471.422149 236.472851 
L 472.897851 236.379978 
L 474.373554 237.812512 
L 475.849256 237.4862 
L 477.324959 237.716053 
L 478.800661 236.7488 
L 480.276364 236.297298 
L 481.752066 237.005808 
L 483.227769 235.25751 
L 484.703471 234.963552 
L 486.179174 236.749208 
L 487.654876 237.39555 
L 489.130579 239.44633 
L 490.606281 238.973689 
L 492.081983 239.417179 
L 493.557686 240.004654 
L 495.033388 240.916138 
L 496.509091 243.428177 
L 496.509091 243.428177 
" clip-path="url(#p09c14efb3b)" style="fill: none; stroke: #ff7f0e; stroke-width: 1.5; stroke-linecap: square"/>
   </g>
   <g id="line2d_29">
    <path d="M 90.690909 288.030938 
L 92.166612 288.439738 
L 93.642314 288.983343 
L 95.118017 288.996407 
L 96.593719 288.710717 
L 98.069421 288.784281 
L 101.020826 289.376198 
L 102.496529 289.344528 
L 103.972231 289.483605 
L 111.350744 289.604693 
L 112.826446 289.480758 
L 115.777851 289.664771 
L 117.253554 289.306894 
L 121.680661 289.329187 
L 124.632066 289.225898 
L 126.107769 288.852722 
L 127.583471 288.944662 
L 129.059174 289.154861 
L 130.534876 289.174607 
L 136.437686 288.650289 
L 137.913388 288.780698 
L 139.389091 288.470513 
L 140.864793 288.857825 
L 142.340496 289.023195 
L 145.291901 288.917792 
L 146.767603 289.066578 
L 149.719008 288.999631 
L 152.670413 288.770518 
L 154.146116 288.56205 
L 157.097521 288.532524 
L 160.048926 288.730331 
L 161.524628 288.762028 
L 163.000331 288.935918 
L 164.476033 288.669377 
L 165.951736 288.723699 
L 167.427438 288.466281 
L 168.90314 287.861289 
L 170.378843 287.778641 
L 173.330248 287.964394 
L 174.80595 288.262908 
L 176.281653 288.211052 
L 179.233058 288.520056 
L 182.184463 287.533778 
L 183.660165 288.152075 
L 185.135868 288.354398 
L 186.61157 287.604996 
L 188.087273 287.212534 
L 189.562975 287.689896 
L 191.038678 287.666928 
L 192.51438 287.383655 
L 193.990083 285.524406 
L 195.465785 285.12957 
L 196.941488 286.354597 
L 198.41719 286.491968 
L 199.892893 287.035092 
L 201.368595 286.894847 
L 202.844298 285.69889 
L 204.32 286.165797 
L 205.795702 287.119506 
L 207.271405 286.945096 
L 208.747107 285.77199 
L 210.22281 286.223687 
L 211.698512 286.983799 
L 213.174215 287.525569 
L 214.649917 287.742043 
L 216.12562 287.30835 
L 217.601322 287.258716 
L 219.077025 287.718305 
L 220.552727 287.611535 
L 222.02843 287.129991 
L 223.504132 287.53927 
L 224.979835 286.775783 
L 226.455537 286.588279 
L 227.93124 287.058328 
L 229.406942 287.057646 
L 230.882645 287.209017 
L 232.358347 287.615691 
L 233.83405 287.877205 
L 236.785455 287.820135 
L 239.73686 287.705978 
L 241.212562 287.641771 
L 242.688264 288.234054 
L 244.163967 287.806539 
L 247.115372 288.29149 
L 248.591074 288.278919 
L 251.542479 288.533254 
L 253.018182 288.578664 
L 254.493884 288.203648 
L 255.969587 288.133703 
L 257.445289 287.008978 
L 258.920992 287.785808 
L 260.396694 287.141552 
L 261.872397 287.436412 
L 267.775207 288.11272 
L 269.250909 287.982038 
L 270.726612 288.070973 
L 272.202314 287.851786 
L 273.678017 288.028854 
L 276.629421 288.014719 
L 278.105124 288.040595 
L 279.580826 288.235126 
L 284.007934 288.046728 
L 285.483636 287.606101 
L 286.959339 287.296823 
L 288.435041 287.532802 
L 289.910744 288.063157 
L 291.386446 287.94847 
L 294.337851 288.056329 
L 295.813554 287.874493 
L 298.764959 288.050351 
L 301.716364 287.934901 
L 303.192066 287.217323 
L 304.667769 287.651035 
L 307.619174 287.053936 
L 309.094876 287.65058 
L 310.570579 287.918773 
L 312.046281 287.629744 
L 313.521983 287.637795 
L 314.997686 287.414496 
L 316.473388 287.317298 
L 317.949091 287.062151 
L 319.424793 287.542381 
L 320.900496 287.053482 
L 322.376198 287.045966 
L 323.851901 286.494772 
L 325.327603 286.798565 
L 326.803306 286.11408 
L 328.279008 285.751718 
L 329.754711 286.531485 
L 331.230413 286.556372 
L 332.706116 286.696449 
L 334.181818 286.298891 
L 335.657521 285.207368 
L 337.133223 284.295416 
L 338.608926 284.763565 
L 340.084628 284.324019 
L 341.560331 285.0328 
L 343.036033 285.95244 
L 344.511736 285.830921 
L 345.987438 286.083693 
L 347.46314 284.870326 
L 348.938843 285.303205 
L 350.414545 285.885317 
L 351.890248 286.127238 
L 353.36595 286.513828 
L 354.841653 286.146587 
L 356.317355 284.491944 
L 357.793058 284.553478 
L 359.26876 285.036404 
L 360.744463 285.703411 
L 362.220165 285.182195 
L 363.695868 284.393392 
L 365.17157 285.565321 
L 366.647273 285.437499 
L 368.122975 283.775504 
L 369.598678 283.867871 
L 371.07438 285.181709 
L 372.550083 286.062379 
L 374.025785 286.058007 
L 375.501488 284.934597 
L 376.97719 284.956741 
L 378.452893 284.218962 
L 379.928595 285.374337 
L 381.404298 285.076872 
L 382.88 285.702105 
L 384.355702 285.862247 
L 385.831405 285.876937 
L 387.307107 285.082409 
L 388.78281 282.859622 
L 390.258512 283.359735 
L 391.734215 282.640214 
L 393.209917 281.388928 
L 396.161322 283.748803 
L 397.637025 285.290737 
L 399.112727 284.899483 
L 400.58843 285.372917 
L 402.064132 284.177501 
L 403.539835 284.493147 
L 405.015537 283.987412 
L 406.49124 285.295522 
L 407.966942 284.911195 
L 409.442645 283.197976 
L 410.918347 284.6796 
L 412.39405 284.467458 
L 413.869752 284.550669 
L 415.345455 284.339434 
L 416.821157 283.442002 
L 418.29686 283.28631 
L 419.772562 282.832981 
L 421.248264 283.477552 
L 422.723967 285.225676 
L 424.199669 282.704033 
L 425.675372 282.470741 
L 427.151074 283.340446 
L 428.626777 283.742502 
L 430.102479 284.270408 
L 431.578182 284.318018 
L 433.053884 281.298804 
L 434.529587 283.857728 
L 436.005289 284.245973 
L 437.480992 283.735399 
L 438.956694 282.967265 
L 441.908099 282.879109 
L 443.383802 283.978626 
L 444.859504 281.897633 
L 446.335207 284.006582 
L 447.810909 285.320118 
L 449.286612 285.357588 
L 452.238017 284.014592 
L 453.713719 285.765534 
L 455.189421 285.687216 
L 456.665124 283.562231 
L 458.140826 282.970548 
L 461.092231 283.486049 
L 465.519339 285.384131 
L 466.995041 284.716047 
L 468.470744 283.736748 
L 469.946446 285.021251 
L 471.422149 284.382667 
L 472.897851 286.495536 
L 474.373554 285.929996 
L 475.849256 285.835105 
L 477.324959 285.380537 
L 478.800661 286.670559 
L 481.752066 285.412067 
L 483.227769 285.300697 
L 484.703471 285.779201 
L 486.179174 285.880112 
L 487.654876 287.036912 
L 489.130579 286.191213 
L 490.606281 286.44356 
L 492.081983 286.865739 
L 493.557686 287.494133 
L 495.033388 286.252547 
L 496.509091 286.833827 
L 496.509091 286.833827 
" clip-path="url(#p09c14efb3b)" style="fill: none; stroke: #2ca02c; stroke-width: 1.5; stroke-linecap: square"/>
   </g>
   <g id="line2d_30">
    <path d="M 90.690909 133.165063 
L 92.166612 135.33917 
L 93.642314 135.678337 
L 95.118017 142.194472 
L 96.593719 132.302999 
L 98.069421 129.18875 
L 99.545124 132.568999 
L 101.020826 133.21776 
L 102.496529 134.612945 
L 103.972231 137.049673 
L 105.447934 141.350173 
L 106.923636 144.036158 
L 108.399339 140.314378 
L 109.875041 140.827236 
L 111.350744 145.221732 
L 112.826446 146.905487 
L 114.302149 139.127928 
L 115.777851 135.764129 
L 117.253554 137.758379 
L 118.729256 142.834999 
L 120.204959 138.626747 
L 121.680661 135.812019 
L 123.156364 133.908824 
L 124.632066 132.95657 
L 126.107769 123.166769 
L 127.583471 129.302513 
L 129.059174 132.133974 
L 130.534876 131.742838 
L 132.010579 125.327444 
L 133.486281 130.646226 
L 134.961983 127.49048 
L 136.437686 125.656191 
L 137.913388 119.091528 
L 140.864793 120.797566 
L 142.340496 116.720624 
L 145.291901 116.607988 
L 146.767603 113.428247 
L 148.243306 112.974142 
L 149.719008 112.916731 
L 151.194711 111.456221 
L 152.670413 110.822927 
L 154.146116 111.320268 
L 155.621818 108.405085 
L 157.097521 111.002363 
L 158.573223 119.399424 
L 160.048926 120.567645 
L 161.524628 126.356904 
L 163.000331 117.159508 
L 164.476033 115.172152 
L 165.951736 114.776217 
L 167.427438 117.626323 
L 168.90314 114.499562 
L 171.854545 99.368762 
L 173.330248 101.678981 
L 174.80595 99.07941 
L 176.281653 95.423681 
L 177.757355 95.378257 
L 179.233058 92.295491 
L 180.70876 91.883818 
L 182.184463 94.431382 
L 183.660165 94.653303 
L 185.135868 99.047648 
L 186.61157 99.027599 
L 188.087273 97.03842 
L 189.562975 98.721214 
L 191.038678 96.555232 
L 192.51438 95.357853 
L 193.990083 84.658118 
L 195.465785 85.223684 
L 196.941488 90.552636 
L 198.41719 89.533763 
L 199.892893 78.656043 
L 201.368595 82.300786 
L 202.844298 80.19562 
L 204.32 81.101583 
L 207.271405 93.316408 
L 208.747107 94.320082 
L 210.22281 89.18333 
L 211.698512 93.486387 
L 213.174215 93.440457 
L 214.649917 87.912277 
L 216.12562 96.390663 
L 219.077025 99.070453 
L 220.552727 90.248847 
L 222.02843 87.243755 
L 223.504132 88.658542 
L 224.979835 96.039826 
L 226.455537 100.990249 
L 227.93124 105.213771 
L 229.406942 97.772318 
L 230.882645 103.346572 
L 232.358347 97.808087 
L 233.83405 97.76556 
L 235.309752 102.622402 
L 236.785455 100.393985 
L 238.261157 102.217141 
L 239.73686 102.319169 
L 241.212562 102.854923 
L 242.688264 108.646964 
L 244.163967 112.679756 
L 245.639669 113.782482 
L 247.115372 114.499098 
L 248.591074 120.004334 
L 250.066777 122.044758 
L 251.542479 121.753052 
L 253.018182 118.475762 
L 254.493884 122.573444 
L 255.969587 118.393676 
L 257.445289 120.769812 
L 258.920992 116.986429 
L 260.396694 119.951 
L 261.872397 117.289677 
L 263.348099 112.313041 
L 264.823802 110.313844 
L 266.299504 113.932387 
L 267.775207 111.042945 
L 269.250909 105.624851 
L 270.726612 107.359043 
L 272.202314 112.352492 
L 273.678017 109.592537 
L 276.629421 113.212846 
L 278.105124 116.119283 
L 279.580826 119.495952 
L 281.056529 115.767698 
L 282.532231 123.381319 
L 284.007934 118.666887 
L 285.483636 122.876899 
L 286.959339 113.334661 
L 288.435041 110.210708 
L 289.910744 110.100714 
L 292.862149 103.075012 
L 294.337851 104.417431 
L 295.813554 104.056709 
L 297.289256 108.5813 
L 298.764959 104.625294 
L 300.240661 99.721244 
L 301.716364 104.63272 
L 303.192066 107.026725 
L 304.667769 101.852758 
L 306.143471 103.393158 
L 307.619174 105.188953 
L 309.094876 102.481204 
L 310.570579 102.24431 
L 312.046281 104.53997 
L 313.521983 107.566145 
L 316.473388 93.324174 
L 317.949091 89.920171 
L 319.424793 94.763746 
L 320.900496 94.979431 
L 322.376198 84.334806 
L 323.851901 83.79426 
L 325.327603 80.342735 
L 326.803306 88.59343 
L 328.279008 83.719895 
L 329.754711 86.699052 
L 331.230413 81.804201 
L 332.706116 85.825437 
L 334.181818 81.845768 
L 335.657521 82.861191 
L 337.133223 81.255117 
L 338.608926 81.347495 
L 340.084628 77.403705 
L 341.560331 78.399736 
L 343.036033 82.543856 
L 344.511736 74.899219 
L 345.987438 78.783733 
L 347.46314 79.36016 
L 348.938843 75.211533 
L 350.414545 70.577778 
L 351.890248 69.078995 
L 353.36595 62.70758 
L 354.841653 67.369114 
L 356.317355 60.895632 
L 357.793058 62.142353 
L 359.26876 68.320896 
L 360.744463 68.570269 
L 362.220165 69.5049 
L 363.695868 73.43424 
L 365.17157 77.774887 
L 366.647273 70.434949 
L 368.122975 61.046855 
L 369.598678 57.808247 
L 371.07438 63.93539 
L 372.550083 71.469036 
L 374.025785 66.715657 
L 375.501488 60.263073 
L 376.97719 74.204439 
L 378.452893 78.168654 
L 379.928595 72.883008 
L 381.404298 71.101346 
L 382.88 82.196379 
L 384.355702 76.321954 
L 385.831405 79.075077 
L 387.307107 79.574585 
L 388.78281 71.396896 
L 390.258512 64.65503 
L 391.734215 72.647399 
L 393.209917 70.403156 
L 394.68562 75.631479 
L 396.161322 73.157626 
L 397.637025 73.351871 
L 399.112727 74.344497 
L 400.58843 73.28778 
L 402.064132 74.384448 
L 403.539835 77.431852 
L 405.015537 69.979627 
L 406.49124 70.492476 
L 407.966942 70.345718 
L 409.442645 76.607878 
L 410.918347 68.142831 
L 412.39405 70.14386 
L 413.869752 69.206704 
L 415.345455 63.572099 
L 416.821157 50.083251 
L 418.29686 50.536627 
L 419.772562 49.864885 
L 421.248264 46.374008 
L 422.723967 49.302353 
L 424.199669 50.084498 
L 425.675372 42.485078 
L 427.151074 40.660125 
L 428.626777 45.569773 
L 430.102479 45.129179 
L 431.578182 40.800846 
L 433.053884 42.254878 
L 434.529587 48.021184 
L 436.005289 44.043131 
L 437.480992 43.910946 
L 438.956694 46.752363 
L 440.432397 53.826865 
L 441.908099 49.354356 
L 443.383802 58.419088 
L 444.859504 56.202063 
L 446.335207 54.695413 
L 447.810909 51.456339 
L 449.286612 57.042154 
L 450.762314 55.900214 
L 452.238017 48.968133 
L 453.713719 58.016566 
L 455.189421 55.865502 
L 456.665124 56.700609 
L 458.140826 60.007216 
L 459.616529 63.677962 
L 461.092231 63.673203 
L 462.567934 65.146348 
L 464.043636 56.795317 
L 465.519339 54.950989 
L 466.995041 53.424155 
L 468.470744 51.6387 
L 469.946446 44.275968 
L 471.422149 41.679499 
L 472.897851 47.011369 
L 474.373554 46.826184 
L 475.849256 44.602051 
L 477.324959 55.570865 
L 478.800661 58.268413 
L 480.276364 68.432173 
L 481.752066 68.210647 
L 483.227769 61.197786 
L 484.703471 61.536057 
L 486.179174 63.565677 
L 487.654876 59.536115 
L 489.130579 60.666722 
L 490.606281 59.812441 
L 492.081983 60.958164 
L 493.557686 60.909524 
L 495.033388 59.46402 
L 496.509091 62.152066 
L 496.509091 62.152066 
" clip-path="url(#p09c14efb3b)" style="fill: none; stroke: #d62728; stroke-width: 1.5; stroke-linecap: square"/>
   </g>
   <g id="line2d_31">
    <path d="M 90.690909 138.243823 
L 92.166612 139.944076 
L 93.642314 133.095201 
L 95.118017 136.081234 
L 96.593719 134.133887 
L 98.069421 133.717318 
L 99.545124 132.558083 
L 101.020826 131.165256 
L 102.496529 130.187256 
L 105.447934 127.432211 
L 106.923636 130.802971 
L 108.399339 128.501253 
L 109.875041 125.120806 
L 111.350744 121.026829 
L 112.826446 121.954034 
L 114.302149 114.329229 
L 115.777851 114.049269 
L 117.253554 116.30399 
L 118.729256 118.771343 
L 120.204959 118.710767 
L 121.680661 120.013659 
L 123.156364 123.800485 
L 124.632066 122.970952 
L 126.107769 123.156835 
L 127.583471 121.677716 
L 129.059174 119.648149 
L 130.534876 124.881635 
L 132.010579 128.776989 
L 133.486281 129.949556 
L 134.961983 130.668574 
L 136.437686 129.174835 
L 137.913388 129.485227 
L 139.389091 128.994579 
L 140.864793 128.703012 
L 142.340496 131.200738 
L 143.816198 132.10503 
L 145.291901 133.795441 
L 146.767603 137.440433 
L 148.243306 136.439104 
L 149.719008 140.002087 
L 151.194711 137.254238 
L 152.670413 140.53601 
L 154.146116 139.470323 
L 155.621818 139.382981 
L 157.097521 135.759401 
L 158.573223 129.641929 
L 160.048926 129.060171 
L 161.524628 130.206298 
L 163.000331 131.881084 
L 164.476033 137.197158 
L 165.951736 136.949046 
L 167.427438 137.578952 
L 168.90314 138.724445 
L 170.378843 136.134515 
L 171.854545 143.89972 
L 173.330248 143.571858 
L 174.80595 139.667399 
L 176.281653 141.193016 
L 177.757355 143.817852 
L 179.233058 145.575533 
L 180.70876 141.432859 
L 182.184463 144.983289 
L 183.660165 144.768156 
L 185.135868 139.929387 
L 186.61157 139.168545 
L 188.087273 141.182818 
L 189.562975 140.545566 
L 191.038678 145.253253 
L 193.990083 147.450949 
L 195.465785 138.225109 
L 196.941488 136.18448 
L 199.892893 143.329105 
L 201.368595 143.267876 
L 202.844298 149.316819 
L 204.32 145.893832 
L 205.795702 146.999473 
L 207.271405 147.906275 
L 208.747107 146.968242 
L 210.22281 138.653915 
L 211.698512 136.540646 
L 213.174215 140.553397 
L 214.649917 141.772719 
L 216.12562 141.131912 
L 217.601322 144.47403 
L 219.077025 143.633565 
L 220.552727 145.454523 
L 223.504132 149.573475 
L 224.979835 148.160469 
L 226.455537 148.515335 
L 227.93124 150.489919 
L 229.406942 147.672431 
L 230.882645 149.726566 
L 232.358347 138.999017 
L 233.83405 141.690391 
L 235.309752 141.920477 
L 236.785455 144.128888 
L 238.261157 137.299922 
L 239.73686 137.023702 
L 241.212562 141.159177 
L 242.688264 145.805875 
L 245.639669 142.209015 
L 247.115372 142.791458 
L 248.591074 142.162981 
L 250.066777 140.016626 
L 251.542479 139.032241 
L 253.018182 136.750963 
L 254.493884 139.455173 
L 255.969587 136.951168 
L 257.445289 138.411456 
L 260.396694 140.905271 
L 261.872397 143.497703 
L 263.348099 145.330312 
L 264.823802 148.038842 
L 266.299504 148.863991 
L 267.775207 149.398926 
L 269.250909 148.33162 
L 270.726612 151.970492 
L 272.202314 153.989583 
L 273.678017 151.155209 
L 275.153719 148.972046 
L 276.629421 145.399819 
L 278.105124 142.322852 
L 279.580826 143.080369 
L 281.056529 144.667605 
L 282.532231 140.039061 
L 284.007934 138.467416 
L 285.483636 142.255668 
L 286.959339 145.531081 
L 288.435041 144.856346 
L 289.910744 146.574866 
L 291.386446 143.88162 
L 292.862149 145.685064 
L 294.337851 142.041295 
L 295.813554 146.873249 
L 297.289256 144.264016 
L 298.764959 146.860124 
L 300.240661 146.601986 
L 301.716364 147.746452 
L 303.192066 143.273583 
L 304.667769 140.685736 
L 306.143471 140.66679 
L 307.619174 136.354695 
L 309.094876 135.479998 
L 310.570579 134.093226 
L 312.046281 133.602782 
L 313.521983 137.320856 
L 314.997686 140.231691 
L 316.473388 141.459337 
L 317.949091 140.894226 
L 319.424793 144.149465 
L 320.900496 141.109392 
L 322.376198 141.47655 
L 323.851901 138.098107 
L 325.327603 142.86971 
L 326.803306 132.05858 
L 328.279008 138.361162 
L 329.754711 138.321626 
L 331.230413 142.124135 
L 332.706116 141.819818 
L 334.181818 152.068989 
L 335.657521 142.453195 
L 337.133223 139.962741 
L 340.084628 148.787875 
L 341.560331 143.814406 
L 343.036033 144.298163 
L 344.511736 148.132606 
L 345.987438 146.506237 
L 347.46314 141.813167 
L 348.938843 140.555186 
L 350.414545 140.695404 
L 351.890248 137.737296 
L 353.36595 138.840506 
L 354.841653 137.812744 
L 356.317355 142.311977 
L 357.793058 140.366046 
L 360.744463 142.753818 
L 362.220165 142.846278 
L 363.695868 142.312545 
L 365.17157 144.945511 
L 366.647273 139.774424 
L 368.122975 133.696431 
L 369.598678 141.10479 
L 371.07438 137.878005 
L 372.550083 140.714282 
L 374.025785 145.819857 
L 375.501488 144.295177 
L 376.97719 148.045457 
L 378.452893 145.414337 
L 379.928595 145.770282 
L 381.404298 142.600733 
L 382.88 142.691967 
L 384.355702 141.065835 
L 385.831405 148.759347 
L 387.307107 147.231807 
L 388.78281 150.403543 
L 390.258512 151.64955 
L 391.734215 156.265353 
L 393.209917 144.070962 
L 394.68562 143.312692 
L 396.161322 147.157109 
L 397.637025 146.354473 
L 399.112727 147.530835 
L 400.58843 148.990399 
L 402.064132 142.140298 
L 403.539835 147.107969 
L 405.015537 142.742787 
L 406.49124 145.442645 
L 407.966942 143.876743 
L 409.442645 137.938551 
L 410.918347 145.612892 
L 412.39405 148.401467 
L 413.869752 144.482092 
L 415.345455 149.766599 
L 416.821157 143.862057 
L 418.29686 148.146707 
L 419.772562 150.408849 
L 421.248264 151.06778 
L 422.723967 155.901877 
L 424.199669 158.844793 
L 425.675372 151.71121 
L 427.151074 151.049048 
L 428.626777 155.737354 
L 430.102479 155.915459 
L 431.578182 157.607141 
L 433.053884 157.115816 
L 434.529587 145.730181 
L 436.005289 148.26396 
L 437.480992 146.433773 
L 438.956694 144.954879 
L 440.432397 151.694316 
L 441.908099 148.193303 
L 443.383802 152.426285 
L 444.859504 145.413284 
L 446.335207 146.443696 
L 447.810909 150.551941 
L 449.286612 148.56637 
L 450.762314 148.053801 
L 452.238017 150.057145 
L 453.713719 151.240835 
L 455.189421 154.814 
L 456.665124 159.783238 
L 458.140826 156.643315 
L 459.616529 155.078446 
L 461.092231 161.576134 
L 462.567934 161.10405 
L 464.043636 162.53483 
L 465.519339 157.73045 
L 466.995041 147.670942 
L 468.470744 147.369759 
L 469.946446 153.093698 
L 471.422149 148.221634 
L 472.897851 152.037298 
L 474.373554 152.408309 
L 475.849256 152.926808 
L 477.324959 150.752572 
L 478.800661 151.243132 
L 480.276364 147.267696 
L 481.752066 146.348497 
L 483.227769 149.541121 
L 484.703471 152.12222 
L 486.179174 145.827421 
L 487.654876 151.667614 
L 489.130579 148.545344 
L 490.606281 147.392503 
L 492.081983 152.76741 
L 493.557686 157.442311 
L 495.033388 152.412014 
L 496.509091 161.688741 
L 496.509091 161.688741 
" clip-path="url(#p09c14efb3b)" style="fill: none; stroke: #9467bd; stroke-width: 1.5; stroke-linecap: square"/>
   </g>
   <g id="patch_3">
    <path d="M 70.4 305.260125 
L 70.4 28.060125 
" style="fill: none; stroke: #000000; stroke-width: 0.8; stroke-linejoin: miter; stroke-linecap: square"/>
   </g>
   <g id="patch_4">
    <path d="M 516.8 305.260125 
L 516.8 28.060125 
" style="fill: none; stroke: #000000; stroke-width: 0.8; stroke-linejoin: miter; stroke-linecap: square"/>
   </g>
   <g id="patch_5">
    <path d="M 70.4 305.260125 
L 516.8 305.260125 
" style="fill: none; stroke: #000000; stroke-width: 0.8; stroke-linejoin: miter; stroke-linecap: square"/>
   </g>
   <g id="patch_6">
    <path d="M 70.4 28.060125 
L 516.8 28.060125 
" style="fill: none; stroke: #000000; stroke-width: 0.8; stroke-linejoin: miter; stroke-linecap: square"/>
   </g>
   <g id="text_17">
    <!-- ML45 Meta Testing -->
    <g transform="translate(206.604313 22.060125)scale(0.216 -0.216)">
     <defs>
      <path id="STIXGeneral-Regular-4d" d="M 5530 0 
L 3738 0 
L 3738 122 
Q 4115 147 4214 265 
Q 4314 384 4314 787 
L 4314 3661 
L 2682 0 
L 2592 0 
L 979 3514 
L 979 966 
Q 979 448 1088 294 
Q 1197 141 1574 122 
L 1574 0 
L 77 0 
L 77 122 
Q 358 141 480 205 
Q 602 269 650 432 
Q 698 595 698 966 
L 698 3514 
Q 698 3878 589 3984 
Q 480 4090 90 4115 
L 90 4237 
L 1357 4237 
L 2835 1024 
L 4250 4237 
L 5523 4237 
L 5523 4115 
Q 5178 4109 5072 3993 
Q 4966 3878 4966 3520 
L 4966 717 
Q 4966 378 5072 262 
Q 5178 147 5530 122 
L 5530 0 
z
" transform="scale(0.015625)"/>
      <path id="STIXGeneral-Regular-4c" d="M 3827 1114 
L 3520 0 
L 77 0 
L 77 122 
Q 429 141 531 256 
Q 634 371 634 736 
L 634 3494 
Q 634 3872 541 3981 
Q 448 4090 77 4115 
L 77 4237 
L 1888 4237 
L 1888 4115 
Q 1498 4090 1392 3984 
Q 1286 3878 1286 3507 
L 1286 538 
Q 1286 358 1398 304 
Q 1510 250 1862 250 
L 2310 250 
Q 3085 250 3392 640 
Q 3520 813 3661 1114 
L 3827 1114 
z
" transform="scale(0.015625)"/>
     </defs>
     <use xlink:href="#STIXGeneral-Regular-4d"/>
     <use xlink:href="#STIXGeneral-Regular-4c" x="88.899994"/>
     <use xlink:href="#STIXGeneral-Regular-34" x="149.999985"/>
     <use xlink:href="#STIXGeneral-Regular-35" x="199.999969"/>
     <use xlink:href="#STIXGeneral-Regular-20" x="249.999954"/>
     <use xlink:href="#STIXGeneral-Regular-4d" x="274.999939"/>
     <use xlink:href="#STIXGeneral-Regular-65" x="363.899933"/>
     <use xlink:href="#STIXGeneral-Regular-74" x="408.299927"/>
     <use xlink:href="#STIXGeneral-Regular-61" x="436.099915"/>
     <use xlink:href="#STIXGeneral-Regular-20" x="480.499908"/>
     <use xlink:href="#STIXGeneral-Regular-54" x="505.499893"/>
     <use xlink:href="#STIXGeneral-Regular-65" x="566.599884"/>
     <use xlink:href="#STIXGeneral-Regular-73" x="610.999878"/>
     <use xlink:href="#STIXGeneral-Regular-74" x="649.899872"/>
     <use xlink:href="#STIXGeneral-Regular-69" x="677.69986"/>
     <use xlink:href="#STIXGeneral-Regular-6e" x="705.499847"/>
     <use xlink:href="#STIXGeneral-Regular-67" x="755.499832"/>
    </g>
   </g>
   <g id="legend_1">
    <g id="patch_7">
     <path d="M 375.106875 218.362781 
L 507 218.362781 
Q 509.8 218.362781 509.8 215.562781 
L 509.8 117.757469 
Q 509.8 114.957469 507 114.957469 
L 375.106875 114.957469 
Q 372.306875 114.957469 372.306875 117.757469 
L 372.306875 215.562781 
Q 372.306875 218.362781 375.106875 218.362781 
z
" style="fill: #ffffff; opacity: 0.8; stroke: #cccccc; stroke-linejoin: miter"/>
    </g>
    <g id="line2d_32">
     <path d="M 377.906875 125.457469 
L 391.906875 125.457469 
L 405.906875 125.457469 
" style="fill: none; stroke: #1f77b4; stroke-width: 1.5; stroke-linecap: square"/>
    </g>
    <g id="text_18">
     <!-- bin-picking-v2 -->
     <g transform="translate(417.106875 130.357469)scale(0.14 -0.14)">
      <defs>
       <path id="STIXGeneral-Regular-62" d="M 979 4358 
L 979 2406 
Q 1082 2650 1315 2797 
Q 1549 2944 1843 2944 
Q 2349 2944 2672 2541 
Q 2995 2138 2995 1536 
Q 2995 832 2566 384 
Q 2138 -64 1498 -64 
Q 1107 -64 774 67 
Q 442 198 442 358 
L 442 3622 
Q 442 3859 384 3926 
Q 326 3994 128 3994 
Q 83 3994 19 3981 
L 19 4090 
L 211 4147 
Q 864 4346 947 4371 
L 979 4358 
z
M 979 2035 
L 979 474 
Q 979 326 1161 233 
Q 1344 141 1600 141 
Q 1978 141 2195 416 
Q 2432 710 2432 1261 
Q 2432 1888 2182 2240 
Q 1971 2541 1613 2541 
Q 1357 2541 1168 2390 
Q 979 2240 979 2035 
z
" transform="scale(0.015625)"/>
       <path id="STIXGeneral-Regular-2d" d="M 1824 1242 
L 250 1242 
L 250 1645 
L 1824 1645 
L 1824 1242 
z
" transform="scale(0.015625)"/>
       <path id="STIXGeneral-Regular-63" d="M 2547 998 
L 2637 941 
Q 2362 403 2112 205 
Q 1786 -64 1376 -64 
Q 845 -64 502 336 
Q 160 736 160 1357 
Q 160 2170 698 2618 
Q 1094 2944 1562 2944 
Q 1965 2944 2256 2749 
Q 2547 2554 2547 2285 
Q 2547 2176 2457 2096 
Q 2368 2016 2246 2016 
Q 2022 2016 1939 2310 
L 1901 2451 
Q 1850 2630 1773 2694 
Q 1696 2758 1523 2758 
Q 1133 2758 893 2451 
Q 653 2144 653 1645 
Q 653 1094 928 745 
Q 1203 397 1645 397 
Q 1920 397 2118 528 
Q 2317 659 2547 998 
z
" transform="scale(0.015625)"/>
       <path id="STIXGeneral-Regular-6b" d="M 3232 0 
L 1837 0 
L 1837 96 
L 1958 96 
Q 2093 96 2093 192 
Q 2093 250 2022 339 
L 1062 1606 
L 1062 429 
Q 1062 262 1142 185 
Q 1222 109 1414 102 
L 1542 96 
L 1542 0 
L 45 0 
L 45 96 
Q 390 154 457 214 
Q 525 275 525 525 
L 525 3610 
Q 525 3840 467 3920 
Q 410 4000 250 4000 
Q 211 4000 45 3987 
L 45 4090 
L 237 4141 
Q 621 4243 1037 4371 
L 1062 4358 
L 1062 1670 
L 1939 2451 
Q 2086 2586 2086 2675 
Q 2086 2739 2019 2761 
Q 1952 2784 1766 2790 
L 1766 2880 
L 3072 2880 
L 3072 2784 
Q 2752 2784 2505 2646 
Q 2259 2509 1690 1978 
L 1504 1805 
L 2483 563 
Q 2829 122 3232 96 
L 3232 0 
z
" transform="scale(0.015625)"/>
      </defs>
      <use xlink:href="#STIXGeneral-Regular-62"/>
      <use xlink:href="#STIXGeneral-Regular-69" x="49.999985"/>
      <use xlink:href="#STIXGeneral-Regular-6e" x="77.799973"/>
      <use xlink:href="#STIXGeneral-Regular-2d" x="127.799957"/>
      <use xlink:href="#STIXGeneral-Regular-70" x="161.099945"/>
      <use xlink:href="#STIXGeneral-Regular-69" x="211.09993"/>
      <use xlink:href="#STIXGeneral-Regular-63" x="238.899918"/>
      <use xlink:href="#STIXGeneral-Regular-6b" x="283.299911"/>
      <use xlink:href="#STIXGeneral-Regular-69" x="333.299896"/>
      <use xlink:href="#STIXGeneral-Regular-6e" x="361.099884"/>
      <use xlink:href="#STIXGeneral-Regular-67" x="411.099869"/>
      <use xlink:href="#STIXGeneral-Regular-2d" x="461.099854"/>
      <use xlink:href="#STIXGeneral-Regular-76" x="494.399841"/>
      <use xlink:href="#STIXGeneral-Regular-32" x="544.399826"/>
     </g>
    </g>
    <g id="line2d_33">
     <path d="M 377.906875 145.309031 
L 391.906875 145.309031 
L 405.906875 145.309031 
" style="fill: none; stroke: #ff7f0e; stroke-width: 1.5; stroke-linecap: square"/>
    </g>
    <g id="text_19">
     <!-- box-close-v2 -->
     <g transform="translate(417.106875 150.209031)scale(0.14 -0.14)">
      <defs>
       <path id="STIXGeneral-Regular-78" d="M 3066 0 
L 1779 0 
L 1779 96 
Q 1939 109 1987 137 
Q 2035 166 2035 250 
Q 2035 307 1997 365 
L 1414 1261 
L 909 474 
Q 781 275 781 211 
Q 781 96 1037 96 
L 1037 0 
L 109 0 
L 109 96 
Q 269 109 355 169 
Q 442 230 576 422 
L 1306 1478 
L 704 2400 
Q 557 2624 454 2704 
Q 352 2784 211 2784 
L 154 2784 
L 154 2880 
L 1478 2880 
L 1478 2784 
Q 1203 2778 1203 2643 
Q 1203 2509 1498 2074 
Q 1581 1958 1587 1946 
Q 1619 1990 1779 2227 
Q 1811 2285 1856 2349 
Q 1901 2413 1923 2451 
Q 1946 2490 1971 2528 
Q 1997 2566 2006 2595 
Q 2016 2624 2016 2643 
Q 2016 2765 1760 2784 
L 1760 2880 
L 2771 2880 
L 2771 2784 
Q 2445 2771 2253 2502 
L 1722 1734 
L 2541 480 
Q 2790 96 3066 96 
L 3066 0 
z
" transform="scale(0.015625)"/>
       <path id="STIXGeneral-Regular-6c" d="M 1645 0 
L 134 0 
L 134 96 
Q 435 122 531 221 
Q 627 320 627 589 
L 627 3590 
Q 627 3821 569 3910 
Q 512 4000 358 4000 
Q 224 4000 122 3987 
L 122 4090 
Q 730 4237 1133 4371 
L 1165 4346 
L 1165 557 
Q 1165 288 1254 201 
Q 1344 115 1645 96 
L 1645 0 
z
" transform="scale(0.015625)"/>
      </defs>
      <use xlink:href="#STIXGeneral-Regular-62"/>
      <use xlink:href="#STIXGeneral-Regular-6f" x="49.999985"/>
      <use xlink:href="#STIXGeneral-Regular-78" x="99.999969"/>
      <use xlink:href="#STIXGeneral-Regular-2d" x="149.999954"/>
      <use xlink:href="#STIXGeneral-Regular-63" x="183.299942"/>
      <use xlink:href="#STIXGeneral-Regular-6c" x="227.699936"/>
      <use xlink:href="#STIXGeneral-Regular-6f" x="255.499924"/>
      <use xlink:href="#STIXGeneral-Regular-73" x="305.499908"/>
      <use xlink:href="#STIXGeneral-Regular-65" x="344.399902"/>
      <use xlink:href="#STIXGeneral-Regular-2d" x="388.799896"/>
      <use xlink:href="#STIXGeneral-Regular-76" x="422.099884"/>
      <use xlink:href="#STIXGeneral-Regular-32" x="472.099869"/>
     </g>
    </g>
    <g id="line2d_34">
     <path d="M 377.906875 165.147469 
L 391.906875 165.147469 
L 405.906875 165.147469 
" style="fill: none; stroke: #2ca02c; stroke-width: 1.5; stroke-linecap: square"/>
    </g>
    <g id="text_20">
     <!-- hand-insert-v2 -->
     <g transform="translate(417.106875 170.047469)scale(0.14 -0.14)">
      <defs>
       <path id="STIXGeneral-Regular-68" d="M 3117 0 
L 1760 0 
L 1760 96 
Q 2042 128 2118 224 
Q 2195 320 2195 653 
L 2195 1920 
Q 2195 2598 1722 2598 
Q 1530 2598 1370 2508 
Q 1210 2419 1005 2195 
L 1005 653 
Q 1005 320 1081 224 
Q 1158 128 1440 96 
L 1440 0 
L 58 0 
L 58 96 
Q 333 134 400 224 
Q 467 314 467 653 
L 467 3667 
Q 467 3872 406 3933 
Q 346 3994 141 3994 
Q 83 3994 64 3987 
L 64 4090 
L 237 4141 
Q 730 4288 973 4371 
L 1005 4352 
L 1005 2406 
Q 1229 2694 1446 2819 
Q 1664 2944 1946 2944 
Q 2733 2944 2733 1926 
L 2733 653 
Q 2733 320 2793 233 
Q 2854 147 3117 96 
L 3117 0 
z
" transform="scale(0.015625)"/>
       <path id="STIXGeneral-Regular-64" d="M 3142 269 
L 2202 -64 
L 2176 -45 
L 2176 365 
Q 1869 -64 1357 -64 
Q 826 -64 499 317 
Q 173 698 173 1312 
Q 173 1990 563 2467 
Q 954 2944 1504 2944 
Q 1850 2944 2176 2669 
L 2176 3667 
Q 2176 3866 2118 3930 
Q 2061 3994 1882 3994 
Q 1792 3994 1741 3987 
L 1741 4090 
Q 2323 4243 2682 4371 
L 2714 4358 
L 2714 730 
Q 2714 506 2768 435 
Q 2822 365 2995 365 
Q 3034 365 3142 371 
L 3142 269 
z
M 2176 653 
L 2176 2125 
Q 2176 2381 1981 2573 
Q 1786 2765 1523 2765 
Q 1158 2765 940 2438 
Q 723 2112 723 1568 
Q 723 979 963 624 
Q 1203 269 1606 269 
Q 1907 269 2080 474 
Q 2176 582 2176 653 
z
" transform="scale(0.015625)"/>
      </defs>
      <use xlink:href="#STIXGeneral-Regular-68"/>
      <use xlink:href="#STIXGeneral-Regular-61" x="49.999985"/>
      <use xlink:href="#STIXGeneral-Regular-6e" x="94.399979"/>
      <use xlink:href="#STIXGeneral-Regular-64" x="144.399963"/>
      <use xlink:href="#STIXGeneral-Regular-2d" x="194.399948"/>
      <use xlink:href="#STIXGeneral-Regular-69" x="227.699936"/>
      <use xlink:href="#STIXGeneral-Regular-6e" x="255.499924"/>
      <use xlink:href="#STIXGeneral-Regular-73" x="305.499908"/>
      <use xlink:href="#STIXGeneral-Regular-65" x="344.399902"/>
      <use xlink:href="#STIXGeneral-Regular-72" x="388.799896"/>
      <use xlink:href="#STIXGeneral-Regular-74" x="422.099884"/>
      <use xlink:href="#STIXGeneral-Regular-2d" x="449.899872"/>
      <use xlink:href="#STIXGeneral-Regular-76" x="483.19986"/>
      <use xlink:href="#STIXGeneral-Regular-32" x="533.199844"/>
     </g>
    </g>
    <g id="line2d_35">
     <path d="M 377.906875 184.985906 
L 391.906875 184.985906 
L 405.906875 184.985906 
" style="fill: none; stroke: #d62728; stroke-width: 1.5; stroke-linecap: square"/>
    </g>
    <g id="text_21">
     <!-- door-lock-v2 -->
     <g transform="translate(417.106875 189.885906)scale(0.14 -0.14)">
      <use xlink:href="#STIXGeneral-Regular-64"/>
      <use xlink:href="#STIXGeneral-Regular-6f" x="49.999985"/>
      <use xlink:href="#STIXGeneral-Regular-6f" x="99.999969"/>
      <use xlink:href="#STIXGeneral-Regular-72" x="149.999954"/>
      <use xlink:href="#STIXGeneral-Regular-2d" x="183.299942"/>
      <use xlink:href="#STIXGeneral-Regular-6c" x="216.59993"/>
      <use xlink:href="#STIXGeneral-Regular-6f" x="244.399918"/>
      <use xlink:href="#STIXGeneral-Regular-63" x="294.399902"/>
      <use xlink:href="#STIXGeneral-Regular-6b" x="338.799896"/>
      <use xlink:href="#STIXGeneral-Regular-2d" x="388.799881"/>
      <use xlink:href="#STIXGeneral-Regular-76" x="422.099869"/>
      <use xlink:href="#STIXGeneral-Regular-32" x="472.099854"/>
     </g>
    </g>
    <g id="line2d_36">
     <path d="M 377.906875 204.824344 
L 391.906875 204.824344 
L 405.906875 204.824344 
" style="fill: none; stroke: #9467bd; stroke-width: 1.5; stroke-linecap: square"/>
    </g>
    <g id="text_22">
     <!-- door-unlock-v2 -->
     <g transform="translate(417.106875 209.724344)scale(0.14 -0.14)">
      <use xlink:href="#STIXGeneral-Regular-64"/>
      <use xlink:href="#STIXGeneral-Regular-6f" x="49.999985"/>
      <use xlink:href="#STIXGeneral-Regular-6f" x="99.999969"/>
      <use xlink:href="#STIXGeneral-Regular-72" x="149.999954"/>
      <use xlink:href="#STIXGeneral-Regular-2d" x="183.299942"/>
      <use xlink:href="#STIXGeneral-Regular-75" x="216.59993"/>
      <use xlink:href="#STIXGeneral-Regular-6e" x="266.599915"/>
      <use xlink:href="#STIXGeneral-Regular-6c" x="316.599899"/>
      <use xlink:href="#STIXGeneral-Regular-6f" x="344.399887"/>
      <use xlink:href="#STIXGeneral-Regular-63" x="394.399872"/>
      <use xlink:href="#STIXGeneral-Regular-6b" x="438.799866"/>
      <use xlink:href="#STIXGeneral-Regular-2d" x="488.79985"/>
      <use xlink:href="#STIXGeneral-Regular-76" x="522.099838"/>
      <use xlink:href="#STIXGeneral-Regular-32" x="572.099823"/>
     </g>
    </g>
   </g>
  </g>
 </g>
 <defs>
  <clipPath id="p09c14efb3b">
   <rect x="70.4" y="28.060125" width="446.4" height="277.2"/>
  </clipPath>
 </defs>
</svg>
