<?xml version="1.0" encoding="utf-8" standalone="no"?>
<!DOCTYPE svg PUBLIC "-//W3C//DTD SVG 1.1//EN"
  "http://www.w3.org/Graphics/SVG/1.1/DTD/svg11.dtd">
<svg xmlns:xlink="http://www.w3.org/1999/xlink" width="524pt" height="355.877pt" viewBox="0 0 524 355.877" xmlns="http://www.w3.org/2000/svg" version="1.1">
 <metadata>
  <rdf:RDF xmlns:dc="http://purl.org/dc/elements/1.1/" xmlns:cc="http://creativecommons.org/ns#" xmlns:rdf="http://www.w3.org/1999/02/22-rdf-syntax-ns#">
   <cc:Work>
    <dc:type rdf:resource="http://purl.org/dc/dcmitype/StillImage"/>
    <dc:date>2021-12-11T20:27:12.455341</dc:date>
    <dc:format>image/svg+xml</dc:format>
    <dc:creator>
     <cc:Agent>
      <dc:title>Matplotlib v3.5.0, https://matplotlib.org/</dc:title>
     </cc:Agent>
    </dc:creator>
   </cc:Work>
  </rdf:RDF>
 </metadata>
 <defs>
  <style type="text/css">*{stroke-linejoin: round; stroke-linecap: butt}</style>
 </defs>
 <g id="figure_1">
  <g id="patch_1">
   <path d="M 0 355.877 
L 524 355.877 
L 524 0 
L 0 0 
z
" style="fill: #ffffff"/>
  </g>
  <g id="axes_1">
   <g id="patch_2">
    <path d="M 70.4 305.260125 
L 516.8 305.260125 
L 516.8 28.060125 
L 70.4 28.060125 
z
" style="fill: #ffffff"/>
   </g>
   <g id="matplotlib.axis_1">
    <g id="xtick_1">
     <g id="line2d_1">
      <path d="M 88.93412 305.260125 
L 88.93412 28.060125 
" clip-path="url(#p7f8eae6440)" style="fill: none; stroke: #b0b0b0; stroke-width: 0.8; stroke-linecap: square"/>
     </g>
     <g id="line2d_2">
      <defs>
       <path id="m326b534863" d="M 0 0 
L 0 3.5 
" style="stroke: #000000; stroke-width: 0.8"/>
      </defs>
      <g>
       <use xlink:href="#m326b534863" x="88.93412" y="305.260125" style="stroke: #000000; stroke-width: 0.8"/>
      </g>
     </g>
     <g id="text_1">
      <!-- 0 -->
      <g transform="translate(84.43412 324.553562)scale(0.18 -0.18)">
       <defs>
        <path id="STIXGeneral-Regular-30" d="M 3046 2112 
Q 3046 1683 2963 1302 
Q 2880 922 2717 602 
Q 2554 282 2266 96 
Q 1978 -90 1600 -90 
Q 1210 -90 915 108 
Q 621 307 461 640 
Q 301 973 227 1350 
Q 154 1728 154 2150 
Q 154 2746 301 3222 
Q 448 3699 790 4012 
Q 1133 4326 1626 4326 
Q 2253 4326 2649 3712 
Q 3046 3098 3046 2112 
z
M 2432 2080 
Q 2432 3091 2217 3625 
Q 2003 4160 1587 4160 
Q 1190 4160 979 3622 
Q 768 3085 768 2106 
Q 768 1120 979 598 
Q 1190 77 1600 77 
Q 2003 77 2217 598 
Q 2432 1120 2432 2080 
z
" transform="scale(0.015625)"/>
       </defs>
       <use xlink:href="#STIXGeneral-Regular-30"/>
      </g>
     </g>
    </g>
    <g id="xtick_2">
     <g id="line2d_3">
      <path d="M 175.689116 305.260125 
L 175.689116 28.060125 
" clip-path="url(#p7f8eae6440)" style="fill: none; stroke: #b0b0b0; stroke-width: 0.8; stroke-linecap: square"/>
     </g>
     <g id="line2d_4">
      <g>
       <use xlink:href="#m326b534863" x="175.689116" y="305.260125" style="stroke: #000000; stroke-width: 0.8"/>
      </g>
     </g>
     <g id="text_2">
      <!-- 1 -->
      <g transform="translate(171.189116 324.553562)scale(0.18 -0.18)">
       <defs>
        <path id="STIXGeneral-Regular-31" d="M 2522 0 
L 755 0 
L 755 96 
Q 1107 115 1235 227 
Q 1363 339 1363 608 
L 1363 3482 
Q 1363 3795 1171 3795 
Q 1082 3795 883 3718 
L 710 3654 
L 710 3744 
L 1856 4326 
L 1914 4307 
L 1914 486 
Q 1914 275 2042 185 
Q 2170 96 2522 96 
L 2522 0 
z
" transform="scale(0.015625)"/>
       </defs>
       <use xlink:href="#STIXGeneral-Regular-31"/>
      </g>
     </g>
    </g>
    <g id="xtick_3">
     <g id="line2d_5">
      <path d="M 262.444112 305.260125 
L 262.444112 28.060125 
" clip-path="url(#p7f8eae6440)" style="fill: none; stroke: #b0b0b0; stroke-width: 0.8; stroke-linecap: square"/>
     </g>
     <g id="line2d_6">
      <g>
       <use xlink:href="#m326b534863" x="262.444112" y="305.260125" style="stroke: #000000; stroke-width: 0.8"/>
      </g>
     </g>
     <g id="text_3">
      <!-- 2 -->
      <g transform="translate(257.944112 324.553562)scale(0.18 -0.18)">
       <defs>
        <path id="STIXGeneral-Regular-32" d="M 3034 877 
L 2688 0 
L 186 0 
L 186 77 
L 1325 1286 
Q 1773 1754 1965 2144 
Q 2157 2534 2157 2950 
Q 2157 3379 1920 3616 
Q 1683 3853 1267 3853 
Q 922 3853 720 3673 
Q 518 3494 326 3021 
L 192 3053 
Q 301 3648 630 3987 
Q 960 4326 1523 4326 
Q 2054 4326 2380 4006 
Q 2707 3686 2707 3200 
Q 2707 2477 1888 1613 
L 832 486 
L 2330 486 
Q 2541 486 2665 569 
Q 2790 653 2944 915 
L 3034 877 
z
" transform="scale(0.015625)"/>
       </defs>
       <use xlink:href="#STIXGeneral-Regular-32"/>
      </g>
     </g>
    </g>
    <g id="xtick_4">
     <g id="line2d_7">
      <path d="M 349.199108 305.260125 
L 349.199108 28.060125 
" clip-path="url(#p7f8eae6440)" style="fill: none; stroke: #b0b0b0; stroke-width: 0.8; stroke-linecap: square"/>
     </g>
     <g id="line2d_8">
      <g>
       <use xlink:href="#m326b534863" x="349.199108" y="305.260125" style="stroke: #000000; stroke-width: 0.8"/>
      </g>
     </g>
     <g id="text_4">
      <!-- 3 -->
      <g transform="translate(344.699108 324.553562)scale(0.18 -0.18)">
       <defs>
        <path id="STIXGeneral-Regular-33" d="M 390 3264 
L 288 3290 
Q 435 3770 748 4048 
Q 1062 4326 1542 4326 
Q 1990 4326 2265 4083 
Q 2541 3840 2541 3450 
Q 2541 2925 1946 2566 
Q 2298 2413 2477 2227 
Q 2758 1914 2758 1402 
Q 2758 890 2464 506 
Q 2246 211 1840 60 
Q 1434 -90 979 -90 
Q 262 -90 262 275 
Q 262 378 339 442 
Q 416 506 525 506 
Q 685 506 915 339 
Q 1197 141 1466 141 
Q 1818 141 2058 425 
Q 2298 710 2298 1120 
Q 2298 1856 1632 2048 
Q 1434 2112 979 2112 
L 979 2202 
Q 1338 2323 1517 2432 
Q 2035 2726 2035 3290 
Q 2035 3610 1852 3776 
Q 1670 3942 1344 3942 
Q 768 3942 390 3264 
z
" transform="scale(0.015625)"/>
       </defs>
       <use xlink:href="#STIXGeneral-Regular-33"/>
      </g>
     </g>
    </g>
    <g id="xtick_5">
     <g id="line2d_9">
      <path d="M 435.954104 305.260125 
L 435.954104 28.060125 
" clip-path="url(#p7f8eae6440)" style="fill: none; stroke: #b0b0b0; stroke-width: 0.8; stroke-linecap: square"/>
     </g>
     <g id="line2d_10">
      <g>
       <use xlink:href="#m326b534863" x="435.954104" y="305.260125" style="stroke: #000000; stroke-width: 0.8"/>
      </g>
     </g>
     <g id="text_5">
      <!-- 4 -->
      <g transform="translate(431.454104 324.553562)scale(0.18 -0.18)">
       <defs>
        <path id="STIXGeneral-Regular-34" d="M 3027 1069 
L 2368 1069 
L 2368 0 
L 1869 0 
L 1869 1069 
L 77 1069 
L 77 1478 
L 2086 4326 
L 2368 4326 
L 2368 1478 
L 3027 1478 
L 3027 1069 
z
M 1869 1478 
L 1869 3674 
L 333 1478 
L 1869 1478 
z
" transform="scale(0.015625)"/>
       </defs>
       <use xlink:href="#STIXGeneral-Regular-34"/>
      </g>
     </g>
    </g>
    <g id="text_6">
     <!-- Training Environment Steps -->
     <g transform="translate(191.604688 344.753562)scale(0.18 -0.18)">
      <defs>
       <path id="STIXGeneral-Regular-54" d="M 3795 3149 
L 3642 3149 
Q 3539 3674 3353 3821 
Q 3168 3968 2656 3968 
L 2278 3968 
L 2278 710 
Q 2278 346 2387 243 
Q 2496 141 2893 122 
L 2893 0 
L 1024 0 
L 1024 122 
Q 1427 147 1526 256 
Q 1626 365 1626 787 
L 1626 3968 
L 1242 3968 
Q 723 3968 540 3817 
Q 358 3667 262 3149 
L 109 3149 
L 154 4237 
L 3750 4237 
L 3795 3149 
z
" transform="scale(0.015625)"/>
       <path id="STIXGeneral-Regular-72" d="M 1024 2931 
L 1024 2342 
Q 1267 2688 1430 2816 
Q 1594 2944 1792 2944 
Q 1958 2944 2051 2854 
Q 2144 2765 2144 2605 
Q 2144 2470 2077 2393 
Q 2010 2317 1894 2317 
Q 1773 2317 1638 2445 
Q 1536 2541 1472 2541 
Q 1338 2541 1181 2355 
Q 1024 2170 1024 2016 
L 1024 576 
Q 1024 301 1133 205 
Q 1242 109 1568 96 
L 1568 0 
L 32 0 
L 32 96 
Q 339 154 412 224 
Q 486 294 486 538 
L 486 2138 
Q 486 2349 438 2435 
Q 390 2522 269 2522 
Q 166 2522 45 2496 
L 45 2598 
Q 448 2726 992 2944 
L 1024 2931 
z
" transform="scale(0.015625)"/>
       <path id="STIXGeneral-Regular-61" d="M 2829 422 
L 2829 243 
Q 2586 -64 2253 -64 
Q 1888 -64 1843 403 
L 1837 403 
Q 1427 -64 909 -64 
Q 608 -64 422 112 
Q 237 288 237 602 
Q 237 1050 685 1350 
Q 992 1555 1837 1869 
L 1837 2214 
Q 1837 2502 1699 2646 
Q 1562 2790 1338 2790 
Q 1146 2790 1018 2697 
Q 890 2605 890 2477 
Q 890 2419 909 2348 
Q 928 2278 928 2208 
Q 928 2112 841 2029 
Q 755 1946 634 1946 
Q 525 1946 441 2029 
Q 358 2112 358 2240 
Q 358 2547 685 2752 
Q 986 2944 1421 2944 
Q 1939 2944 2176 2656 
Q 2291 2522 2323 2384 
Q 2355 2246 2355 1946 
L 2355 723 
Q 2355 301 2554 301 
Q 2682 301 2829 422 
z
M 1837 813 
L 1837 1715 
Q 1248 1510 1018 1293 
Q 800 1094 800 800 
Q 800 557 921 432 
Q 1043 307 1242 307 
Q 1453 307 1613 410 
Q 1747 506 1792 589 
Q 1837 672 1837 813 
z
" transform="scale(0.015625)"/>
       <path id="STIXGeneral-Regular-69" d="M 1152 4045 
Q 1152 3904 1056 3811 
Q 960 3718 819 3718 
Q 685 3718 592 3811 
Q 499 3904 499 4045 
Q 499 4179 595 4275 
Q 691 4371 826 4371 
Q 966 4371 1059 4275 
Q 1152 4179 1152 4045 
z
M 1619 0 
L 102 0 
L 102 96 
Q 435 115 521 211 
Q 608 307 608 666 
L 608 2118 
Q 608 2342 563 2432 
Q 518 2522 397 2522 
Q 243 2522 128 2490 
L 128 2592 
L 1120 2944 
L 1146 2918 
L 1146 672 
Q 1146 314 1226 218 
Q 1306 122 1619 96 
L 1619 0 
z
" transform="scale(0.015625)"/>
       <path id="STIXGeneral-Regular-6e" d="M 3104 0 
L 1773 0 
L 1779 96 
Q 2016 115 2096 233 
Q 2176 352 2176 672 
L 2176 1946 
Q 2176 2592 1709 2592 
Q 1549 2592 1408 2515 
Q 1267 2438 1050 2227 
L 1050 461 
Q 1050 269 1136 192 
Q 1222 115 1466 96 
L 1466 0 
L 115 0 
L 115 96 
Q 358 115 435 214 
Q 512 314 512 602 
L 512 2157 
Q 512 2394 467 2483 
Q 422 2573 288 2573 
Q 160 2573 102 2547 
L 102 2656 
Q 550 2784 979 2944 
L 1030 2925 
L 1030 2426 
L 1037 2426 
Q 1491 2944 1958 2944 
Q 2323 2944 2518 2688 
Q 2714 2432 2714 1958 
L 2714 544 
Q 2714 288 2790 205 
Q 2867 122 3104 96 
L 3104 0 
z
" transform="scale(0.015625)"/>
       <path id="STIXGeneral-Regular-67" d="M 3008 2483 
L 2477 2483 
Q 2598 2208 2598 1946 
Q 2598 1453 2265 1203 
Q 1933 954 1600 954 
Q 1530 954 1357 973 
L 1235 986 
Q 1107 947 979 812 
Q 851 678 851 582 
Q 851 435 1350 410 
L 2176 371 
Q 2528 358 2739 172 
Q 2950 -13 2950 -314 
Q 2950 -685 2566 -986 
Q 2035 -1395 1286 -1395 
Q 826 -1395 502 -1212 
Q 179 -1030 179 -774 
Q 179 -595 320 -419 
Q 461 -243 806 6 
Q 602 102 534 172 
Q 467 243 467 346 
Q 467 531 762 787 
Q 909 915 1037 1043 
Q 717 1203 579 1401 
Q 442 1600 442 1901 
Q 442 2336 752 2640 
Q 1062 2944 1510 2944 
Q 1766 2944 2022 2848 
L 2163 2797 
Q 2349 2733 2515 2733 
L 3008 2733 
L 3008 2483 
z
M 973 2163 
L 973 2144 
Q 973 1683 1155 1398 
Q 1338 1114 1632 1114 
Q 1850 1114 1978 1270 
Q 2106 1427 2106 1690 
Q 2106 2112 1914 2464 
Q 1754 2765 1446 2765 
Q 1222 2765 1097 2605 
Q 973 2445 973 2163 
z
M 2771 -410 
Q 2771 -230 2595 -163 
Q 2419 -96 1978 -96 
Q 1344 -96 941 -13 
Q 749 -243 688 -348 
Q 627 -454 627 -563 
Q 627 -774 880 -902 
Q 1133 -1030 1555 -1030 
Q 2099 -1030 2435 -860 
Q 2771 -691 2771 -410 
z
" transform="scale(0.015625)"/>
       <path id="STIXGeneral-Regular-20" transform="scale(0.015625)"/>
       <path id="STIXGeneral-Regular-45" d="M 3821 1082 
L 3526 0 
L 77 0 
L 77 122 
Q 442 147 538 252 
Q 634 358 634 730 
L 634 3520 
Q 634 3878 534 3987 
Q 435 4096 77 4115 
L 77 4237 
L 3469 4237 
L 3494 3322 
L 3334 3322 
Q 3264 3750 3085 3872 
Q 2906 3994 2349 3994 
L 1510 3994 
Q 1370 3994 1328 3952 
Q 1286 3910 1286 3763 
L 1286 2355 
L 2253 2355 
Q 2656 2355 2787 2470 
Q 2918 2586 2976 2970 
L 3123 2970 
L 3123 1472 
L 2976 1472 
Q 2918 1875 2790 1984 
Q 2662 2093 2253 2093 
L 1286 2093 
L 1286 538 
Q 1286 346 1420 291 
Q 1555 237 1933 237 
L 2163 237 
Q 2848 237 3136 403 
Q 3424 570 3642 1082 
L 3821 1082 
z
" transform="scale(0.015625)"/>
       <path id="STIXGeneral-Regular-76" d="M 3053 2880 
L 3053 2784 
Q 2906 2771 2835 2688 
Q 2765 2605 2637 2285 
L 1818 230 
Q 1690 -90 1638 -90 
Q 1587 -90 1523 77 
Q 1510 96 1497 141 
Q 1485 186 1472 211 
L 704 2048 
Q 499 2534 403 2652 
Q 307 2771 122 2784 
L 122 2880 
L 1376 2880 
L 1376 2784 
Q 1210 2771 1146 2732 
Q 1082 2694 1082 2611 
Q 1082 2509 1139 2368 
L 1792 730 
L 2426 2387 
Q 2464 2483 2464 2579 
Q 2464 2758 2163 2784 
L 2163 2880 
L 3053 2880 
z
" transform="scale(0.015625)"/>
       <path id="STIXGeneral-Regular-6f" d="M 3008 1478 
Q 3008 806 2608 371 
Q 2208 -64 1568 -64 
Q 979 -64 582 368 
Q 186 800 186 1459 
Q 186 2125 582 2534 
Q 979 2944 1626 2944 
Q 2221 2944 2614 2537 
Q 3008 2131 3008 1478 
z
M 2432 1306 
Q 2432 2035 2112 2445 
Q 1856 2765 1504 2765 
Q 1171 2765 966 2493 
Q 762 2221 762 1747 
Q 762 928 1101 435 
Q 1318 115 1677 115 
Q 2029 115 2230 432 
Q 2432 749 2432 1306 
z
" transform="scale(0.015625)"/>
       <path id="STIXGeneral-Regular-6d" d="M 4960 0 
L 3565 0 
L 3565 96 
Q 3834 122 3907 208 
Q 3981 294 3981 576 
L 3981 1894 
Q 3981 2278 3869 2444 
Q 3757 2611 3488 2611 
Q 3264 2611 3107 2521 
Q 2950 2432 2803 2221 
L 2803 608 
Q 2803 301 2896 201 
Q 2989 102 3264 96 
L 3264 0 
L 1830 0 
L 1830 96 
Q 2112 115 2189 188 
Q 2266 262 2266 550 
L 2266 1901 
Q 2266 2611 1850 2611 
Q 1670 2611 1468 2531 
Q 1267 2451 1171 2336 
Q 1088 2240 1088 2227 
L 1088 448 
Q 1088 243 1177 176 
Q 1267 109 1523 96 
L 1523 0 
L 102 0 
L 102 96 
Q 371 102 460 195 
Q 550 288 550 563 
L 550 2150 
Q 550 2387 499 2480 
Q 448 2573 326 2573 
Q 230 2573 122 2547 
L 122 2656 
Q 557 2778 1011 2944 
L 1062 2925 
L 1062 2451 
L 1075 2451 
Q 1363 2752 1584 2848 
Q 1805 2944 2054 2944 
Q 2560 2944 2733 2406 
Q 3232 2944 3776 2944 
Q 4518 2944 4518 1792 
L 4518 493 
Q 4518 282 4582 202 
Q 4646 122 4794 109 
L 4960 96 
L 4960 0 
z
" transform="scale(0.015625)"/>
       <path id="STIXGeneral-Regular-65" d="M 2611 1050 
L 2714 1005 
Q 2330 -64 1376 -64 
Q 813 -64 486 329 
Q 160 723 160 1389 
Q 160 2074 525 2509 
Q 890 2944 1485 2944 
Q 2061 2944 2374 2502 
Q 2560 2246 2592 1773 
L 621 1773 
Q 646 1370 700 1158 
Q 755 947 915 730 
Q 1184 378 1626 378 
Q 1939 378 2153 531 
Q 2368 685 2611 1050 
z
M 634 1978 
L 1939 1978 
Q 1882 2381 1750 2547 
Q 1619 2714 1312 2714 
Q 1043 2714 864 2525 
Q 685 2336 634 1978 
z
" transform="scale(0.015625)"/>
       <path id="STIXGeneral-Regular-74" d="M 1702 493 
L 1786 422 
Q 1478 -64 1011 -64 
Q 448 -64 448 749 
L 448 2675 
L 109 2675 
Q 83 2694 83 2720 
Q 83 2771 192 2842 
Q 435 2982 813 3526 
Q 826 3546 874 3606 
Q 922 3667 941 3706 
Q 986 3706 986 3622 
L 986 2880 
L 1632 2880 
L 1632 2675 
L 986 2675 
L 986 845 
Q 986 538 1062 403 
Q 1139 269 1318 269 
Q 1510 269 1702 493 
z
" transform="scale(0.015625)"/>
       <path id="STIXGeneral-Regular-53" d="M 3002 2963 
L 2842 2963 
Q 2733 3360 2579 3565 
Q 2189 4064 1651 4064 
Q 1357 4064 1181 3894 
Q 1005 3725 1005 3456 
Q 1005 3328 1069 3206 
Q 1133 3085 1206 2998 
Q 1280 2912 1465 2784 
Q 1651 2656 1766 2589 
Q 1882 2522 2150 2362 
Q 2669 2061 2905 1763 
Q 3142 1466 3142 1107 
Q 3142 576 2771 243 
Q 2400 -90 1837 -90 
Q 1421 -90 1082 58 
Q 915 128 781 128 
Q 704 128 653 70 
Q 602 13 602 -83 
L 461 -83 
L 275 1274 
L 416 1274 
Q 845 141 1734 141 
Q 2074 141 2285 342 
Q 2496 544 2496 858 
Q 2496 1158 2310 1363 
Q 2003 1696 1235 2106 
Q 454 2522 454 3206 
Q 454 3718 768 4022 
Q 1082 4326 1568 4326 
Q 1907 4326 2240 4186 
Q 2413 4109 2522 4109 
Q 2688 4109 2726 4326 
L 2861 4326 
L 3002 2963 
z
" transform="scale(0.015625)"/>
       <path id="STIXGeneral-Regular-70" d="M 1018 2931 
L 1018 2438 
Q 1421 2944 1939 2944 
Q 2406 2944 2707 2560 
Q 3008 2176 3008 1581 
Q 3008 883 2621 409 
Q 2234 -64 1664 -64 
Q 1466 -64 1328 -6 
Q 1190 51 1018 211 
L 1018 -794 
Q 1018 -1094 1120 -1180 
Q 1222 -1267 1581 -1274 
L 1581 -1389 
L 32 -1389 
L 32 -1280 
Q 314 -1254 397 -1171 
Q 480 -1088 480 -838 
L 480 2157 
Q 480 2381 429 2451 
Q 378 2522 218 2522 
Q 115 2522 58 2515 
L 58 2618 
Q 506 2752 979 2944 
L 1018 2931 
z
M 1018 2138 
L 1018 563 
Q 1018 422 1238 281 
Q 1459 141 1683 141 
Q 2029 141 2243 467 
Q 2458 794 2458 1325 
Q 2458 1888 2243 2224 
Q 2029 2560 1670 2560 
Q 1446 2560 1232 2419 
Q 1018 2278 1018 2138 
z
" transform="scale(0.015625)"/>
       <path id="STIXGeneral-Regular-73" d="M 998 1926 
L 1664 1523 
Q 1984 1331 2105 1164 
Q 2227 998 2227 736 
Q 2227 416 1961 176 
Q 1696 -64 1331 -64 
Q 1030 -64 864 -6 
Q 691 51 570 51 
Q 461 51 416 -26 
L 333 -26 
L 333 979 
L 435 979 
Q 538 512 730 294 
Q 922 77 1248 77 
Q 1485 77 1632 211 
Q 1779 346 1779 550 
Q 1779 845 1440 1030 
L 1094 1222 
Q 326 1651 326 2150 
Q 326 2522 566 2730 
Q 806 2938 1210 2938 
Q 1491 2938 1638 2867 
Q 1754 2816 1818 2816 
Q 1862 2816 1920 2880 
L 1990 2880 
L 2022 2010 
L 1926 2010 
Q 1818 2445 1654 2621 
Q 1491 2797 1203 2797 
Q 986 2797 854 2688 
Q 723 2579 723 2362 
Q 723 2253 796 2128 
Q 870 2003 998 1926 
z
" transform="scale(0.015625)"/>
      </defs>
      <use xlink:href="#STIXGeneral-Regular-54"/>
      <use xlink:href="#STIXGeneral-Regular-72" x="61.099991"/>
      <use xlink:href="#STIXGeneral-Regular-61" x="94.399979"/>
      <use xlink:href="#STIXGeneral-Regular-69" x="138.799973"/>
      <use xlink:href="#STIXGeneral-Regular-6e" x="166.59996"/>
      <use xlink:href="#STIXGeneral-Regular-69" x="216.599945"/>
      <use xlink:href="#STIXGeneral-Regular-6e" x="244.399933"/>
      <use xlink:href="#STIXGeneral-Regular-67" x="294.399918"/>
      <use xlink:href="#STIXGeneral-Regular-20" x="344.399902"/>
      <use xlink:href="#STIXGeneral-Regular-45" x="369.399887"/>
      <use xlink:href="#STIXGeneral-Regular-6e" x="430.499878"/>
      <use xlink:href="#STIXGeneral-Regular-76" x="480.499863"/>
      <use xlink:href="#STIXGeneral-Regular-69" x="530.499847"/>
      <use xlink:href="#STIXGeneral-Regular-72" x="558.299835"/>
      <use xlink:href="#STIXGeneral-Regular-6f" x="591.599823"/>
      <use xlink:href="#STIXGeneral-Regular-6e" x="641.599808"/>
      <use xlink:href="#STIXGeneral-Regular-6d" x="691.599792"/>
      <use xlink:href="#STIXGeneral-Regular-65" x="769.39978"/>
      <use xlink:href="#STIXGeneral-Regular-6e" x="813.799774"/>
      <use xlink:href="#STIXGeneral-Regular-74" x="863.799759"/>
      <use xlink:href="#STIXGeneral-Regular-20" x="891.599747"/>
      <use xlink:href="#STIXGeneral-Regular-53" x="916.599731"/>
      <use xlink:href="#STIXGeneral-Regular-74" x="972.199722"/>
      <use xlink:href="#STIXGeneral-Regular-65" x="999.99971"/>
      <use xlink:href="#STIXGeneral-Regular-70" x="1044.399704"/>
      <use xlink:href="#STIXGeneral-Regular-73" x="1094.399689"/>
     </g>
    </g>
    <g id="text_7">
     <!-- 1e8 -->
     <g transform="translate(490.806875 343.753562)scale(0.18 -0.18)">
      <defs>
       <path id="STIXGeneral-Regular-38" d="M 2848 992 
Q 2848 499 2505 204 
Q 2163 -90 1587 -90 
Q 1050 -90 704 204 
Q 358 499 358 954 
Q 358 1293 524 1533 
Q 691 1773 1190 2125 
Q 710 2522 553 2765 
Q 397 3008 397 3328 
Q 397 3782 745 4054 
Q 1094 4326 1638 4326 
Q 2106 4326 2410 4060 
Q 2714 3795 2714 3411 
Q 2714 3059 2531 2848 
Q 2349 2637 1856 2374 
Q 2432 1990 2640 1689 
Q 2848 1389 2848 992 
z
M 2272 3411 
Q 2272 3744 2086 3945 
Q 1901 4147 1574 4147 
Q 1248 4147 1059 3977 
Q 870 3808 870 3513 
Q 870 3219 1059 2979 
Q 1248 2739 1670 2490 
Q 1997 2682 2134 2896 
Q 2272 3110 2272 3411 
z
M 1734 1741 
L 1357 1997 
Q 1075 1766 960 1545 
Q 845 1325 845 1011 
Q 845 576 1065 333 
Q 1286 90 1658 90 
Q 1971 90 2166 285 
Q 2362 480 2362 794 
Q 2362 1082 2214 1299 
Q 2067 1517 1734 1741 
z
" transform="scale(0.015625)"/>
      </defs>
      <use xlink:href="#STIXGeneral-Regular-31"/>
      <use xlink:href="#STIXGeneral-Regular-65" x="49.999985"/>
      <use xlink:href="#STIXGeneral-Regular-38" x="94.399979"/>
     </g>
    </g>
   </g>
   <g id="matplotlib.axis_2">
    <g id="ytick_1">
     <g id="line2d_11">
      <path d="M 70.4 295.373227 
L 516.8 295.373227 
" clip-path="url(#p7f8eae6440)" style="fill: none; stroke: #b0b0b0; stroke-width: 0.8; stroke-linecap: square"/>
     </g>
     <g id="line2d_12">
      <defs>
       <path id="m7e8340a8e8" d="M 0 0 
L -3.5 0 
" style="stroke: #000000; stroke-width: 0.8"/>
      </defs>
      <g>
       <use xlink:href="#m7e8340a8e8" x="70.4" y="295.373227" style="stroke: #000000; stroke-width: 0.8"/>
      </g>
     </g>
     <g id="text_8">
      <!-- 0 -->
      <g transform="translate(54.4 301.519946)scale(0.18 -0.18)">
       <use xlink:href="#STIXGeneral-Regular-30"/>
      </g>
     </g>
    </g>
    <g id="ytick_2">
     <g id="line2d_13">
      <path d="M 70.4 251.710473 
L 516.8 251.710473 
" clip-path="url(#p7f8eae6440)" style="fill: none; stroke: #b0b0b0; stroke-width: 0.8; stroke-linecap: square"/>
     </g>
     <g id="line2d_14">
      <g>
       <use xlink:href="#m7e8340a8e8" x="70.4" y="251.710473" style="stroke: #000000; stroke-width: 0.8"/>
      </g>
     </g>
     <g id="text_9">
      <!-- 250 -->
      <g transform="translate(36.4 257.857191)scale(0.18 -0.18)">
       <defs>
        <path id="STIXGeneral-Regular-35" d="M 2803 4358 
L 2573 3814 
Q 2534 3731 2400 3731 
L 1158 3731 
L 902 3187 
Q 1606 3053 1920 2896 
Q 2234 2739 2502 2368 
Q 2726 2061 2726 1555 
Q 2726 1094 2576 780 
Q 2426 467 2099 224 
Q 1664 -90 1011 -90 
Q 646 -90 422 19 
Q 198 128 198 307 
Q 198 550 486 550 
Q 717 550 960 352 
Q 1210 147 1414 147 
Q 1747 147 2012 480 
Q 2278 813 2278 1229 
Q 2278 1843 1850 2189 
Q 1293 2637 486 2637 
Q 410 2637 410 2688 
L 416 2720 
L 1114 4237 
L 2438 4237 
Q 2547 4237 2608 4269 
Q 2669 4301 2746 4403 
L 2803 4358 
z
" transform="scale(0.015625)"/>
       </defs>
       <use xlink:href="#STIXGeneral-Regular-32"/>
       <use xlink:href="#STIXGeneral-Regular-35" x="49.999985"/>
       <use xlink:href="#STIXGeneral-Regular-30" x="99.999969"/>
      </g>
     </g>
    </g>
    <g id="ytick_3">
     <g id="line2d_15">
      <path d="M 70.4 208.047718 
L 516.8 208.047718 
" clip-path="url(#p7f8eae6440)" style="fill: none; stroke: #b0b0b0; stroke-width: 0.8; stroke-linecap: square"/>
     </g>
     <g id="line2d_16">
      <g>
       <use xlink:href="#m7e8340a8e8" x="70.4" y="208.047718" style="stroke: #000000; stroke-width: 0.8"/>
      </g>
     </g>
     <g id="text_10">
      <!-- 500 -->
      <g transform="translate(36.4 214.194436)scale(0.18 -0.18)">
       <use xlink:href="#STIXGeneral-Regular-35"/>
       <use xlink:href="#STIXGeneral-Regular-30" x="49.999985"/>
       <use xlink:href="#STIXGeneral-Regular-30" x="99.999969"/>
      </g>
     </g>
    </g>
    <g id="ytick_4">
     <g id="line2d_17">
      <path d="M 70.4 164.384963 
L 516.8 164.384963 
" clip-path="url(#p7f8eae6440)" style="fill: none; stroke: #b0b0b0; stroke-width: 0.8; stroke-linecap: square"/>
     </g>
     <g id="line2d_18">
      <g>
       <use xlink:href="#m7e8340a8e8" x="70.4" y="164.384963" style="stroke: #000000; stroke-width: 0.8"/>
      </g>
     </g>
     <g id="text_11">
      <!-- 750 -->
      <g transform="translate(36.4 170.531681)scale(0.18 -0.18)">
       <defs>
        <path id="STIXGeneral-Regular-37" d="M 2874 4134 
L 1517 -51 
L 1101 -51 
L 2368 3763 
L 992 3763 
Q 717 3763 582 3667 
Q 448 3571 243 3238 
L 128 3296 
L 512 4237 
L 2874 4237 
L 2874 4134 
z
" transform="scale(0.015625)"/>
       </defs>
       <use xlink:href="#STIXGeneral-Regular-37"/>
       <use xlink:href="#STIXGeneral-Regular-35" x="49.999985"/>
       <use xlink:href="#STIXGeneral-Regular-30" x="99.999969"/>
      </g>
     </g>
    </g>
    <g id="ytick_5">
     <g id="line2d_19">
      <path d="M 70.4 120.722208 
L 516.8 120.722208 
" clip-path="url(#p7f8eae6440)" style="fill: none; stroke: #b0b0b0; stroke-width: 0.8; stroke-linecap: square"/>
     </g>
     <g id="line2d_20">
      <g>
       <use xlink:href="#m7e8340a8e8" x="70.4" y="120.722208" style="stroke: #000000; stroke-width: 0.8"/>
      </g>
     </g>
     <g id="text_12">
      <!-- 1000 -->
      <g transform="translate(27.4 126.868927)scale(0.18 -0.18)">
       <use xlink:href="#STIXGeneral-Regular-31"/>
       <use xlink:href="#STIXGeneral-Regular-30" x="49.999985"/>
       <use xlink:href="#STIXGeneral-Regular-30" x="99.999969"/>
       <use xlink:href="#STIXGeneral-Regular-30" x="149.999954"/>
      </g>
     </g>
    </g>
    <g id="ytick_6">
     <g id="line2d_21">
      <path d="M 70.4 77.059453 
L 516.8 77.059453 
" clip-path="url(#p7f8eae6440)" style="fill: none; stroke: #b0b0b0; stroke-width: 0.8; stroke-linecap: square"/>
     </g>
     <g id="line2d_22">
      <g>
       <use xlink:href="#m7e8340a8e8" x="70.4" y="77.059453" style="stroke: #000000; stroke-width: 0.8"/>
      </g>
     </g>
     <g id="text_13">
      <!-- 1250 -->
      <g transform="translate(27.4 83.206172)scale(0.18 -0.18)">
       <use xlink:href="#STIXGeneral-Regular-31"/>
       <use xlink:href="#STIXGeneral-Regular-32" x="49.999985"/>
       <use xlink:href="#STIXGeneral-Regular-35" x="99.999969"/>
       <use xlink:href="#STIXGeneral-Regular-30" x="149.999954"/>
      </g>
     </g>
    </g>
    <g id="ytick_7">
     <g id="line2d_23">
      <path d="M 70.4 33.396698 
L 516.8 33.396698 
" clip-path="url(#p7f8eae6440)" style="fill: none; stroke: #b0b0b0; stroke-width: 0.8; stroke-linecap: square"/>
     </g>
     <g id="line2d_24">
      <g>
       <use xlink:href="#m7e8340a8e8" x="70.4" y="33.396698" style="stroke: #000000; stroke-width: 0.8"/>
      </g>
     </g>
     <g id="text_14">
      <!-- 1500 -->
      <g transform="translate(27.4 39.543417)scale(0.18 -0.18)">
       <use xlink:href="#STIXGeneral-Regular-31"/>
       <use xlink:href="#STIXGeneral-Regular-35" x="49.999985"/>
       <use xlink:href="#STIXGeneral-Regular-30" x="99.999969"/>
       <use xlink:href="#STIXGeneral-Regular-30" x="149.999954"/>
      </g>
     </g>
    </g>
    <g id="text_15">
     <!-- Average Test Return -->
     <g transform="translate(19.476562 241.641375)rotate(-90)scale(0.18 -0.18)">
      <defs>
       <path id="STIXGeneral-Regular-41" d="M 4525 0 
L 2893 0 
L 2893 122 
Q 3149 122 3245 179 
Q 3334 224 3334 333 
Q 3334 499 3213 781 
L 2950 1382 
L 1274 1382 
L 979 653 
Q 922 506 922 384 
Q 922 237 1027 179 
Q 1133 122 1370 122 
L 1370 0 
L 96 0 
L 96 122 
Q 365 147 486 316 
Q 608 486 902 1190 
L 2221 4314 
L 2349 4314 
L 3923 710 
Q 4064 378 4176 262 
Q 4288 147 4525 122 
L 4525 0 
z
M 2861 1645 
L 2118 3405 
L 1382 1645 
L 2861 1645 
z
" transform="scale(0.015625)"/>
       <path id="STIXGeneral-Regular-52" d="M 4224 0 
L 3187 0 
L 1664 1971 
L 1306 1958 
L 1306 717 
Q 1306 352 1405 249 
Q 1504 147 1875 122 
L 1875 0 
L 109 0 
L 109 122 
Q 474 154 563 262 
Q 653 371 653 794 
L 653 3526 
Q 653 3885 563 3987 
Q 474 4090 109 4115 
L 109 4237 
L 1850 4237 
Q 2726 4237 3187 3859 
Q 3501 3603 3501 3091 
Q 3501 2221 2342 2042 
L 3622 422 
Q 3757 256 3878 198 
Q 4000 141 4224 122 
L 4224 0 
z
M 1306 3731 
L 1306 2195 
Q 1766 2202 1990 2246 
Q 2214 2291 2438 2413 
Q 2803 2618 2803 3142 
Q 2803 4000 1632 4000 
Q 1459 4000 1382 3945 
Q 1306 3891 1306 3731 
z
" transform="scale(0.015625)"/>
       <path id="STIXGeneral-Regular-75" d="M 3072 320 
L 3072 230 
Q 2573 96 2195 -58 
L 2163 -38 
L 2163 486 
L 2150 486 
Q 1747 -64 1235 -64 
Q 870 -64 662 160 
Q 454 384 454 755 
L 454 2362 
Q 454 2598 371 2688 
Q 288 2778 58 2790 
L 58 2880 
L 992 2880 
L 992 813 
Q 992 595 1123 451 
Q 1254 307 1446 307 
Q 1760 307 1984 506 
Q 2067 582 2099 649 
Q 2131 717 2131 877 
L 2131 2355 
Q 2131 2605 2041 2678 
Q 1952 2752 1658 2771 
L 1658 2880 
L 2669 2880 
L 2669 685 
Q 2669 461 2742 390 
Q 2816 320 3034 320 
L 3072 320 
z
" transform="scale(0.015625)"/>
      </defs>
      <use xlink:href="#STIXGeneral-Regular-41"/>
      <use xlink:href="#STIXGeneral-Regular-76" x="72.199982"/>
      <use xlink:href="#STIXGeneral-Regular-65" x="122.199966"/>
      <use xlink:href="#STIXGeneral-Regular-72" x="166.59996"/>
      <use xlink:href="#STIXGeneral-Regular-61" x="199.899948"/>
      <use xlink:href="#STIXGeneral-Regular-67" x="244.299942"/>
      <use xlink:href="#STIXGeneral-Regular-65" x="294.299927"/>
      <use xlink:href="#STIXGeneral-Regular-20" x="338.699921"/>
      <use xlink:href="#STIXGeneral-Regular-54" x="363.699905"/>
      <use xlink:href="#STIXGeneral-Regular-65" x="424.799896"/>
      <use xlink:href="#STIXGeneral-Regular-73" x="469.19989"/>
      <use xlink:href="#STIXGeneral-Regular-74" x="508.099884"/>
      <use xlink:href="#STIXGeneral-Regular-20" x="535.899872"/>
      <use xlink:href="#STIXGeneral-Regular-52" x="560.899857"/>
      <use xlink:href="#STIXGeneral-Regular-65" x="627.599854"/>
      <use xlink:href="#STIXGeneral-Regular-74" x="671.999847"/>
      <use xlink:href="#STIXGeneral-Regular-75" x="699.799835"/>
      <use xlink:href="#STIXGeneral-Regular-72" x="749.79982"/>
      <use xlink:href="#STIXGeneral-Regular-6e" x="783.099808"/>
     </g>
    </g>
   </g>
   <g id="line2d_25">
    <path d="M 90.690909 292.612827 
L 94.204486 292.660125 
L 97.718064 292.606297 
L 113.529162 292.373802 
L 117.042739 292.503646 
L 122.313105 292.380225 
L 124.069894 292.433863 
L 127.583471 292.263598 
L 131.097048 292.149501 
L 132.853837 291.957479 
L 150.421724 291.684717 
L 159.205667 291.042523 
L 171.503188 291.314731 
L 175.016765 291.425015 
L 176.773554 291.16165 
L 178.530342 291.078613 
L 182.04392 291.193982 
L 183.800708 291.382625 
L 185.557497 291.283184 
L 187.314286 291.380182 
L 192.584652 291.132016 
L 204.882172 291.357593 
L 208.39575 291.127936 
L 213.666116 291.234195 
L 215.422904 291.109973 
L 224.206848 291.267403 
L 227.720425 291.1647 
L 229.477214 290.870733 
L 231.234002 290.751259 
L 234.74758 290.8451 
L 240.017946 290.782351 
L 243.531523 290.882256 
L 245.288312 290.680727 
L 250.558678 290.703878 
L 252.315466 290.565767 
L 259.342621 290.588035 
L 261.09941 290.389653 
L 276.910508 289.572559 
L 278.667296 289.733331 
L 282.180874 289.885075 
L 283.937662 289.669498 
L 285.694451 289.730735 
L 287.45124 289.490898 
L 297.991972 289.690826 
L 303.262338 289.343641 
L 305.019126 289.606613 
L 306.775915 289.573403 
L 310.289492 289.27844 
L 312.046281 289.354241 
L 313.80307 289.266886 
L 317.316647 289.468548 
L 320.830224 289.496448 
L 322.587013 289.245751 
L 326.10059 288.947243 
L 329.614168 289.001741 
L 331.370956 288.974105 
L 333.127745 289.274697 
L 334.884534 289.026832 
L 340.1549 289.100647 
L 345.425266 289.313464 
L 347.182054 289.192949 
L 350.695632 289.291342 
L 354.209209 289.337854 
L 355.965998 289.505746 
L 357.722786 289.32662 
L 359.479575 289.382277 
L 361.236364 289.712962 
L 362.993152 289.901974 
L 364.749941 289.798454 
L 368.263518 289.903692 
L 370.020307 289.901486 
L 371.777096 289.673268 
L 373.533884 289.701648 
L 377.047462 289.466062 
L 387.588194 289.113645 
L 389.344982 289.21926 
L 391.101771 289.04893 
L 394.615348 289.065737 
L 396.372137 289.440907 
L 399.885714 289.438348 
L 401.642503 289.630513 
L 403.399292 289.416968 
L 405.15608 289.636157 
L 406.912869 289.738763 
L 410.426446 289.525682 
L 415.696812 289.527885 
L 419.21039 289.373031 
L 422.723967 289.142407 
L 427.994333 288.967129 
L 431.50791 289.14075 
L 435.021488 288.910817 
L 436.778276 288.909006 
L 438.535065 288.707256 
L 445.56222 289.177169 
L 452.589374 289.386121 
L 454.346163 289.379493 
L 459.616529 289.029286 
L 470.157261 289.193466 
L 471.91405 289.433341 
L 475.427627 289.494659 
L 477.184416 289.383805 
L 484.21157 289.53033 
L 487.725148 289.323594 
L 491.238725 289.393293 
L 492.995514 289.479909 
L 494.752302 289.109761 
L 496.509091 288.938095 
L 496.509091 288.938095 
" clip-path="url(#p7f8eae6440)" style="fill: none; stroke: #1f77b4; stroke-width: 1.5; stroke-linecap: square"/>
   </g>
   <g id="line2d_26">
    <path d="M 90.690909 254.954551 
L 94.204486 255.136559 
L 99.474852 254.730304 
L 101.231641 254.99882 
L 102.98843 254.825815 
L 104.745218 254.90841 
L 106.502007 254.691392 
L 108.258796 254.949021 
L 110.015584 255.08139 
L 111.772373 254.801302 
L 113.529162 255.0147 
L 115.28595 254.927064 
L 118.799528 255.130929 
L 120.556316 254.952348 
L 125.826682 255.098538 
L 129.34026 255.511519 
L 131.097048 255.716128 
L 132.853837 256.063448 
L 134.610626 256.168455 
L 136.367414 255.838861 
L 138.124203 256.115488 
L 139.880992 255.853683 
L 141.63778 255.989248 
L 145.151358 255.89266 
L 146.908146 256.031619 
L 148.664935 256.297139 
L 150.421724 256.228655 
L 152.178512 256.391136 
L 153.935301 255.803585 
L 155.69209 255.519434 
L 159.205667 255.480995 
L 162.719244 254.873733 
L 164.476033 255.132908 
L 166.232822 255.634333 
L 167.98961 255.853091 
L 169.746399 256.202506 
L 171.503188 256.230982 
L 173.259976 256.147154 
L 175.016765 256.414849 
L 176.773554 255.946462 
L 178.530342 255.640131 
L 180.287131 255.539247 
L 183.800708 256.122378 
L 185.557497 255.927041 
L 187.314286 255.460866 
L 189.071074 255.16636 
L 190.827863 255.18996 
L 192.584652 254.703592 
L 194.34144 255.057256 
L 196.098229 255.173869 
L 197.855018 256.126655 
L 199.611806 255.87211 
L 203.125384 255.741943 
L 204.882172 255.759522 
L 206.638961 255.917639 
L 210.152538 255.27669 
L 211.909327 255.431711 
L 213.666116 255.978546 
L 215.422904 255.654538 
L 217.179693 255.207608 
L 222.450059 255.191994 
L 224.206848 255.113339 
L 225.963636 255.17796 
L 227.720425 255.689713 
L 229.477214 255.491027 
L 231.234002 255.534711 
L 232.990791 255.730819 
L 236.504368 255.657878 
L 238.261157 255.880645 
L 240.017946 255.946652 
L 241.774734 255.579366 
L 243.531523 255.381739 
L 245.288312 256.029052 
L 247.0451 255.781368 
L 248.801889 255.93653 
L 250.558678 256.516196 
L 252.315466 256.379683 
L 255.829044 255.373422 
L 259.342621 255.643383 
L 262.856198 255.433946 
L 264.612987 254.985254 
L 266.369776 255.543014 
L 268.126564 255.821769 
L 269.883353 255.951088 
L 271.640142 256.530149 
L 273.39693 256.565575 
L 276.910508 256.056642 
L 278.667296 256.266185 
L 280.424085 256.23609 
L 283.937662 255.914014 
L 285.694451 256.268052 
L 287.45124 256.357443 
L 289.208028 256.169407 
L 292.721606 255.979928 
L 294.478394 256.379374 
L 296.235183 256.456084 
L 297.991972 256.715691 
L 299.74876 256.701105 
L 301.505549 257.055376 
L 303.262338 256.62525 
L 305.019126 255.66946 
L 306.775915 255.615887 
L 308.532704 255.686297 
L 310.289492 255.113919 
L 313.80307 254.655024 
L 317.316647 254.846323 
L 319.073436 254.499002 
L 322.587013 254.275992 
L 324.343802 254.39937 
L 326.10059 254.031174 
L 327.857379 253.786079 
L 329.614168 253.225713 
L 331.370956 253.032137 
L 334.884534 252.937783 
L 336.641322 252.687149 
L 341.911688 253.173004 
L 343.668477 253.286608 
L 345.425266 253.177573 
L 347.182054 253.216605 
L 348.938843 253.562934 
L 352.45242 252.87142 
L 357.722786 252.663128 
L 359.479575 252.689058 
L 364.749941 251.881973 
L 375.290673 252.794528 
L 377.047462 253.137623 
L 378.80425 252.793047 
L 380.561039 252.771033 
L 384.074616 253.299661 
L 391.101771 252.454903 
L 394.615348 251.548652 
L 396.372137 251.321421 
L 403.399292 251.486705 
L 412.183235 251.504327 
L 415.696812 251.093575 
L 417.453601 251.074815 
L 419.21039 251.343753 
L 420.967178 251.391809 
L 422.723967 251.612712 
L 424.480756 251.60996 
L 426.237544 251.896421 
L 427.994333 252.01293 
L 429.751122 252.726203 
L 431.50791 253.104432 
L 435.021488 253.252983 
L 436.778276 253.495151 
L 440.291854 253.499182 
L 442.048642 253.309195 
L 445.56222 253.370006 
L 447.319008 253.125363 
L 449.075797 252.620332 
L 450.832586 252.373391 
L 452.589374 252.657464 
L 454.346163 252.804496 
L 463.130106 253.016331 
L 464.886895 253.19675 
L 466.643684 252.806356 
L 468.400472 253.124636 
L 470.157261 253.087663 
L 471.91405 253.412805 
L 473.670838 253.389417 
L 475.427627 253.744887 
L 477.184416 254.387313 
L 478.941204 254.438091 
L 482.454782 255.240587 
L 484.21157 255.175309 
L 485.968359 255.40224 
L 489.481936 255.109698 
L 491.238725 255.350155 
L 492.995514 255.121957 
L 494.752302 255.1758 
L 496.509091 255.062617 
L 496.509091 255.062617 
" clip-path="url(#p7f8eae6440)" style="fill: none; stroke: #ff7f0e; stroke-width: 1.5; stroke-linecap: square"/>
   </g>
   <g id="line2d_27">
    <path d="M 90.690909 290.087084 
L 92.447698 288.332704 
L 94.204486 288.836647 
L 95.961275 287.016257 
L 97.718064 287.985014 
L 99.474852 288.556118 
L 101.231641 288.725974 
L 102.98843 288.445741 
L 106.502007 288.74054 
L 108.258796 289.087317 
L 110.015584 288.930855 
L 113.529162 288.931019 
L 115.28595 288.132679 
L 117.042739 288.596137 
L 118.799528 288.584457 
L 120.556316 289.041221 
L 122.313105 289.292469 
L 124.069894 288.747101 
L 125.826682 288.478378 
L 129.34026 288.688496 
L 131.097048 287.881935 
L 134.610626 287.232488 
L 136.367414 287.096459 
L 138.124203 287.275409 
L 139.880992 287.08329 
L 141.63778 287.773919 
L 143.394569 288.120291 
L 145.151358 287.774321 
L 146.908146 286.281493 
L 148.664935 286.89797 
L 150.421724 287.060349 
L 152.178512 285.907565 
L 153.935301 285.327175 
L 155.69209 285.829274 
L 157.448878 285.341224 
L 159.205667 284.346453 
L 160.962456 285.228418 
L 162.719244 286.707157 
L 164.476033 285.911455 
L 166.232822 285.861175 
L 167.98961 286.857726 
L 169.746399 286.717646 
L 171.503188 287.367324 
L 173.259976 287.407157 
L 175.016765 287.184583 
L 176.773554 287.493616 
L 178.530342 287.436296 
L 180.287131 285.238331 
L 182.04392 285.615853 
L 185.557497 287.310966 
L 187.314286 287.472218 
L 189.071074 286.529719 
L 190.827863 287.166097 
L 192.584652 287.609999 
L 194.34144 287.559587 
L 197.855018 286.38847 
L 199.611806 286.840298 
L 201.368595 287.063682 
L 203.125384 287.456192 
L 204.882172 288.117423 
L 208.39575 285.840356 
L 210.152538 285.825223 
L 211.909327 285.47519 
L 213.666116 285.569954 
L 215.422904 285.179936 
L 217.179693 286.224024 
L 218.936482 287.012877 
L 220.69327 287.532907 
L 222.450059 284.775886 
L 224.206848 285.529918 
L 225.963636 285.06233 
L 227.720425 285.340852 
L 229.477214 286.385081 
L 231.234002 286.365898 
L 232.990791 286.162968 
L 234.74758 285.743302 
L 236.504368 285.609319 
L 238.261157 285.85704 
L 240.017946 285.795155 
L 241.774734 286.038645 
L 243.531523 285.949349 
L 245.288312 287.486116 
L 247.0451 286.697488 
L 248.801889 287.528586 
L 250.558678 288.124071 
L 252.315466 287.726263 
L 254.072255 286.485506 
L 255.829044 284.659896 
L 257.585832 286.403411 
L 259.342621 284.660327 
L 261.09941 285.919572 
L 262.856198 286.229249 
L 264.612987 287.33745 
L 266.369776 285.382671 
L 268.126564 286.280661 
L 269.883353 285.947017 
L 271.640142 285.980338 
L 273.39693 285.839125 
L 275.153719 285.975609 
L 276.910508 285.929641 
L 278.667296 286.415228 
L 280.424085 287.272258 
L 282.180874 286.85151 
L 283.937662 285.68141 
L 285.694451 286.706252 
L 287.45124 285.529714 
L 289.208028 284.169121 
L 290.964817 283.884744 
L 292.721606 285.255077 
L 294.478394 286.798722 
L 296.235183 286.658565 
L 297.991972 286.103515 
L 299.74876 286.917385 
L 301.505549 285.434518 
L 303.262338 286.502061 
L 305.019126 285.466363 
L 306.775915 285.563869 
L 308.532704 284.998083 
L 310.289492 286.299605 
L 312.046281 286.209283 
L 313.80307 285.242617 
L 315.559858 286.630556 
L 317.316647 285.916924 
L 319.073436 284.848573 
L 320.830224 286.329264 
L 322.587013 284.53938 
L 324.343802 286.149254 
L 326.10059 285.342201 
L 327.857379 285.255589 
L 329.614168 286.515875 
L 331.370956 286.571742 
L 333.127745 286.926638 
L 334.884534 288.129761 
L 336.641322 288.084603 
L 338.398111 288.683525 
L 340.1549 288.711658 
L 341.911688 287.378793 
L 343.668477 288.451441 
L 345.425266 286.746651 
L 347.182054 287.105205 
L 348.938843 285.091006 
L 352.45242 288.259008 
L 354.209209 287.966034 
L 355.965998 288.136585 
L 357.722786 288.620943 
L 359.479575 288.642072 
L 361.236364 289.14537 
L 362.993152 288.892418 
L 364.749941 284.275151 
L 366.50673 285.276842 
L 368.263518 285.71511 
L 370.020307 287.337752 
L 371.777096 287.784553 
L 373.533884 287.903135 
L 375.290673 287.573427 
L 377.047462 288.291775 
L 378.80425 287.383044 
L 380.561039 284.693355 
L 382.317828 285.722961 
L 384.074616 286.340699 
L 387.588194 286.203745 
L 389.344982 286.42084 
L 391.101771 287.547406 
L 394.615348 286.955167 
L 396.372137 287.001728 
L 398.128926 287.764202 
L 399.885714 287.090219 
L 401.642503 283.861701 
L 403.399292 285.279428 
L 408.669658 287.42979 
L 412.183235 287.0452 
L 413.940024 287.44372 
L 415.696812 286.754786 
L 417.453601 286.444663 
L 419.21039 287.394571 
L 420.967178 286.579724 
L 422.723967 287.551577 
L 424.480756 286.979468 
L 426.237544 287.634805 
L 427.994333 287.489064 
L 429.751122 288.627925 
L 433.264699 289.400375 
L 435.021488 289.07824 
L 436.778276 289.560189 
L 440.291854 288.7816 
L 442.048642 288.438358 
L 443.805431 288.823733 
L 445.56222 288.723385 
L 447.319008 289.174656 
L 449.075797 287.440659 
L 450.832586 288.672236 
L 452.589374 288.755584 
L 454.346163 289.744341 
L 456.102952 290.364703 
L 459.616529 289.282909 
L 461.373318 289.684329 
L 463.130106 288.978838 
L 464.886895 289.959213 
L 466.643684 290.138602 
L 468.400472 290.777177 
L 470.157261 290.963106 
L 471.91405 290.968491 
L 473.670838 288.982609 
L 475.427627 288.597085 
L 477.184416 289.786654 
L 478.941204 289.337365 
L 480.697993 288.351261 
L 482.454782 288.187972 
L 485.968359 289.417693 
L 489.481936 287.62571 
L 491.238725 288.834321 
L 492.995514 289.052249 
L 494.752302 289.156663 
L 496.509091 288.76789 
L 496.509091 288.76789 
" clip-path="url(#p7f8eae6440)" style="fill: none; stroke: #2ca02c; stroke-width: 1.5; stroke-linecap: square"/>
   </g>
   <g id="line2d_28">
    <path d="M 90.690909 160.676251 
L 92.447698 148.876579 
L 94.204486 147.782232 
L 95.961275 147.774744 
L 97.718064 145.662049 
L 99.474852 142.315082 
L 101.231641 140.120564 
L 104.745218 136.325571 
L 106.502007 137.995861 
L 108.258796 140.130031 
L 110.015584 133.784266 
L 111.772373 132.344189 
L 113.529162 123.820259 
L 115.28595 121.91151 
L 117.042739 111.487341 
L 118.799528 114.794079 
L 120.556316 124.321703 
L 124.069894 134.644197 
L 125.826682 130.039534 
L 127.583471 121.448641 
L 129.34026 115.463174 
L 131.097048 110.734487 
L 132.853837 108.034395 
L 134.610626 101.96699 
L 136.367414 105.451029 
L 138.124203 105.012927 
L 139.880992 96.561952 
L 141.63778 96.409908 
L 143.394569 91.908146 
L 145.151358 95.166544 
L 146.908146 94.908478 
L 148.664935 83.635412 
L 150.421724 90.753779 
L 152.178512 81.098427 
L 155.69209 66.443536 
L 157.448878 74.453973 
L 159.205667 66.718937 
L 160.962456 60.234783 
L 162.719244 63.57116 
L 164.476033 68.897938 
L 166.232822 65.183948 
L 167.98961 60.026653 
L 169.746399 71.841103 
L 171.503188 73.528016 
L 173.259976 71.616005 
L 175.016765 65.598704 
L 176.773554 71.868198 
L 178.530342 57.321232 
L 180.287131 58.431703 
L 182.04392 55.983467 
L 183.800708 63.944052 
L 185.557497 68.663215 
L 187.314286 63.963612 
L 189.071074 66.113815 
L 190.827863 62.650231 
L 192.584652 53.074614 
L 194.34144 56.189892 
L 196.098229 55.552203 
L 197.855018 56.911162 
L 201.368595 57.528088 
L 203.125384 58.895252 
L 204.882172 49.685679 
L 206.638961 54.623143 
L 208.39575 54.285442 
L 210.152538 50.242298 
L 211.909327 46.731494 
L 213.666116 51.124563 
L 215.422904 51.202765 
L 217.179693 51.488287 
L 218.936482 44.698734 
L 220.69327 41.132898 
L 222.450059 49.332617 
L 224.206848 41.92473 
L 225.963636 47.162981 
L 227.720425 41.863584 
L 229.477214 41.862399 
L 231.234002 43.129417 
L 232.990791 41.498973 
L 234.74758 46.278101 
L 236.504368 44.234746 
L 238.261157 46.936905 
L 240.017946 53.050698 
L 241.774734 56.201254 
L 245.288312 51.391895 
L 247.0451 42.090337 
L 248.801889 44.411381 
L 250.558678 45.612445 
L 252.315466 47.651741 
L 254.072255 45.758225 
L 255.829044 50.450189 
L 257.585832 56.240404 
L 259.342621 56.8562 
L 261.09941 56.849189 
L 262.856198 54.733922 
L 264.612987 47.463206 
L 266.369776 49.794336 
L 268.126564 49.935706 
L 269.883353 48.152572 
L 271.640142 52.622694 
L 273.39693 40.660125 
L 275.153719 43.395411 
L 276.910508 49.647761 
L 278.667296 45.889485 
L 280.424085 44.321133 
L 282.180874 52.254423 
L 283.937662 52.290761 
L 285.694451 54.005553 
L 287.45124 60.540259 
L 289.208028 57.26656 
L 290.964817 60.130282 
L 292.721606 54.238933 
L 294.478394 57.421868 
L 296.235183 49.515492 
L 297.991972 52.779816 
L 299.74876 58.813101 
L 301.505549 58.123191 
L 305.019126 61.037565 
L 306.775915 56.733092 
L 308.532704 53.764095 
L 310.289492 57.935951 
L 312.046281 59.721009 
L 313.80307 64.899967 
L 315.559858 65.720701 
L 317.316647 68.951018 
L 319.073436 64.633973 
L 320.830224 67.8841 
L 322.587013 69.209039 
L 324.343802 67.607813 
L 326.10059 60.967585 
L 327.857379 70.004927 
L 329.614168 66.086436 
L 331.370956 78.700606 
L 333.127745 80.397209 
L 334.884534 78.33791 
L 336.641322 72.444564 
L 338.398111 71.364279 
L 340.1549 74.623865 
L 345.425266 79.536334 
L 347.182054 78.506354 
L 348.938843 78.550291 
L 350.695632 78.870439 
L 352.45242 89.341635 
L 354.209209 87.747925 
L 355.965998 86.425571 
L 357.722786 91.662232 
L 359.479575 99.158046 
L 361.236364 99.334481 
L 362.993152 106.637018 
L 364.749941 106.565677 
L 366.50673 109.836636 
L 368.263518 109.253912 
L 370.020307 106.88699 
L 371.777096 112.866233 
L 373.533884 112.073491 
L 375.290673 116.830968 
L 377.047462 112.684059 
L 378.80425 111.704249 
L 380.561039 106.681071 
L 382.317828 95.70069 
L 384.074616 96.652098 
L 385.831405 100.505547 
L 387.588194 109.185295 
L 389.344982 100.724259 
L 391.101771 102.629201 
L 392.85856 103.364482 
L 394.615348 101.593032 
L 396.372137 106.729574 
L 398.128926 110.050238 
L 399.885714 105.235015 
L 401.642503 107.991032 
L 403.399292 108.078617 
L 405.15608 105.269244 
L 406.912869 105.266283 
L 408.669658 108.073624 
L 410.426446 107.930709 
L 412.183235 111.696893 
L 413.940024 108.125127 
L 415.696812 99.779866 
L 417.453601 108.1225 
L 419.21039 101.231058 
L 420.967178 110.204139 
L 422.723967 115.458697 
L 424.480756 115.29432 
L 426.237544 115.331228 
L 427.994333 113.760867 
L 429.751122 117.594896 
L 431.50791 117.848873 
L 433.264699 116.174079 
L 435.021488 119.215334 
L 436.778276 128.592835 
L 438.535065 125.413193 
L 440.291854 125.98958 
L 442.048642 134.552708 
L 443.805431 141.951263 
L 445.56222 145.89284 
L 447.319008 149.303873 
L 449.075797 160.260022 
L 450.832586 164.258999 
L 452.589374 158.296392 
L 454.346163 157.884906 
L 456.102952 158.387228 
L 457.85974 159.888677 
L 459.616529 155.914898 
L 461.373318 161.078617 
L 463.130106 161.885738 
L 466.643684 168.519878 
L 468.400472 170.811315 
L 470.157261 174.954869 
L 471.91405 175.064217 
L 473.670838 175.719951 
L 475.427627 176.876726 
L 477.184416 177.492284 
L 478.941204 178.872914 
L 480.697993 176.124358 
L 482.454782 174.634938 
L 484.21157 167.555502 
L 485.968359 162.547248 
L 487.725148 155.789515 
L 489.481936 157.861476 
L 491.238725 155.366017 
L 492.995514 150.937691 
L 494.752302 149.997951 
L 496.509091 148.210074 
L 496.509091 148.210074 
" clip-path="url(#p7f8eae6440)" style="fill: none; stroke: #d62728; stroke-width: 1.5; stroke-linecap: square"/>
   </g>
   <g id="line2d_29">
    <path d="M 90.690909 168.750695 
L 92.447698 170.833353 
L 94.204486 173.736145 
L 95.961275 174.731116 
L 97.718064 174.875783 
L 99.474852 175.67719 
L 101.231641 172.257859 
L 102.98843 169.839075 
L 104.745218 172.537161 
L 106.502007 174.271484 
L 108.258796 172.9604 
L 110.015584 174.705928 
L 111.772373 175.955165 
L 113.529162 176.615364 
L 115.28595 174.504982 
L 117.042739 173.79274 
L 118.799528 171.870253 
L 120.556316 173.420777 
L 122.313105 173.37766 
L 124.069894 172.474266 
L 127.583471 174.635752 
L 129.34026 179.39284 
L 131.097048 176.81652 
L 132.853837 180.197098 
L 134.610626 180.782255 
L 136.367414 184.607953 
L 138.124203 184.757364 
L 139.880992 185.850619 
L 143.394569 182.689964 
L 145.151358 185.870911 
L 146.908146 186.481127 
L 148.664935 180.831125 
L 150.421724 183.440924 
L 152.178512 184.452427 
L 153.935301 182.482041 
L 155.69209 184.332759 
L 157.448878 185.940259 
L 159.205667 185.351196 
L 160.962456 182.685765 
L 162.719244 181.753539 
L 164.476033 182.801429 
L 166.232822 185.94303 
L 167.98961 184.339171 
L 169.746399 185.224801 
L 171.503188 184.671935 
L 173.259976 185.926858 
L 175.016765 186.288394 
L 176.773554 187.509577 
L 178.530342 184.649323 
L 180.287131 184.041992 
L 182.04392 186.557676 
L 183.800708 176.196455 
L 185.557497 173.186657 
L 187.314286 171.000508 
L 189.071074 176.234492 
L 190.827863 177.266282 
L 192.584652 183.115643 
L 194.34144 183.287293 
L 196.098229 187.670887 
L 197.855018 182.980992 
L 199.611806 178.923024 
L 201.368595 184.134594 
L 203.125384 183.917152 
L 204.882172 187.283182 
L 206.638961 187.350743 
L 208.39575 185.78029 
L 210.152538 189.107455 
L 211.909327 186.830697 
L 213.666116 183.152887 
L 215.422904 181.5149 
L 217.179693 178.931006 
L 218.936482 177.387168 
L 220.69327 181.976073 
L 222.450059 181.791001 
L 224.206848 177.416431 
L 225.963636 173.744018 
L 227.720425 182.886571 
L 229.477214 184.66363 
L 231.234002 188.225597 
L 232.990791 187.553855 
L 234.74758 179.419474 
L 236.504368 179.217366 
L 238.261157 186.120406 
L 240.017946 183.280291 
L 241.774734 183.061848 
L 243.531523 177.876451 
L 247.0451 180.812532 
L 248.801889 187.697785 
L 250.558678 185.917022 
L 252.315466 181.899516 
L 254.072255 174.603137 
L 255.829044 176.677394 
L 257.585832 183.162566 
L 259.342621 188.997835 
L 261.09941 187.922295 
L 262.856198 187.544205 
L 264.612987 186.732632 
L 266.369776 190.269809 
L 271.640142 173.577934 
L 273.39693 180.337845 
L 275.153719 177.883731 
L 276.910508 174.238891 
L 278.667296 175.964741 
L 280.424085 171.294356 
L 282.180874 168.800391 
L 283.937662 169.875791 
L 285.694451 175.293622 
L 287.45124 175.197629 
L 289.208028 172.806136 
L 290.964817 175.066888 
L 292.721606 179.492416 
L 294.478394 173.358131 
L 296.235183 180.662551 
L 299.74876 166.787486 
L 301.505549 167.655477 
L 303.262338 171.187885 
L 305.019126 164.624824 
L 306.775915 170.999086 
L 308.532704 173.582371 
L 310.289492 174.631129 
L 312.046281 173.960385 
L 313.80307 171.240845 
L 315.559858 168.054543 
L 317.316647 177.236573 
L 319.073436 179.669848 
L 320.830224 177.467915 
L 322.587013 173.20423 
L 324.343802 170.791416 
L 326.10059 176.079402 
L 327.857379 175.059879 
L 329.614168 176.579001 
L 331.370956 179.871497 
L 333.127745 179.102211 
L 334.884534 168.382194 
L 336.641322 176.338465 
L 338.398111 168.993289 
L 341.911688 178.750264 
L 343.668477 177.076391 
L 345.425266 177.731187 
L 347.182054 180.429548 
L 348.938843 173.850047 
L 350.695632 181.15069 
L 352.45242 178.932611 
L 354.209209 172.676391 
L 355.965998 177.536135 
L 357.722786 180.620655 
L 359.479575 179.051844 
L 361.236364 176.402584 
L 362.993152 175.55246 
L 364.749941 174.910007 
L 366.50673 177.551533 
L 368.263518 179.13745 
L 370.020307 173.528603 
L 371.777096 174.03967 
L 373.533884 168.423687 
L 375.290673 174.653738 
L 377.047462 172.861948 
L 378.80425 177.472887 
L 380.561039 172.825182 
L 382.317828 177.638052 
L 385.831405 180.528907 
L 387.588194 179.927264 
L 389.344982 175.287626 
L 391.101771 175.433977 
L 392.85856 174.16585 
L 394.615348 178.952173 
L 396.372137 169.992926 
L 398.128926 176.069111 
L 399.885714 173.587548 
L 401.642503 178.074511 
L 403.399292 183.843829 
L 405.15608 184.481724 
L 406.912869 182.690486 
L 408.669658 176.686504 
L 410.426446 181.352783 
L 412.183235 180.876803 
L 413.940024 178.737923 
L 415.696812 174.719363 
L 417.453601 177.742815 
L 419.21039 180.015469 
L 420.967178 186.208188 
L 422.723967 184.833914 
L 424.480756 185.02477 
L 426.237544 185.849237 
L 427.994333 185.100374 
L 429.751122 179.617439 
L 431.50791 181.858428 
L 433.264699 185.450361 
L 435.021488 182.288612 
L 436.778276 188.893495 
L 438.535065 186.126548 
L 440.291854 184.925977 
L 442.048642 187.832705 
L 443.805431 185.200583 
L 445.56222 192.575602 
L 447.319008 194.811464 
L 449.075797 202.154175 
L 450.832586 206.00754 
L 452.589374 201.225837 
L 454.346163 204.479911 
L 456.102952 201.286235 
L 457.85974 199.230172 
L 459.616529 204.734578 
L 463.130106 208.730075 
L 464.886895 205.194808 
L 466.643684 208.204761 
L 468.400472 210.441545 
L 470.157261 211.584951 
L 471.91405 210.257388 
L 473.670838 211.087822 
L 475.427627 211.187711 
L 477.184416 212.056647 
L 478.941204 209.731544 
L 480.697993 210.922624 
L 482.454782 209.291947 
L 484.21157 206.268795 
L 485.968359 205.644489 
L 487.725148 202.40614 
L 489.481936 196.54575 
L 491.238725 199.319843 
L 492.995514 204.313045 
L 494.752302 202.323662 
L 496.509091 202.187187 
L 496.509091 202.187187 
" clip-path="url(#p7f8eae6440)" style="fill: none; stroke: #9467bd; stroke-width: 1.5; stroke-linecap: square"/>
   </g>
   <g id="patch_3">
    <path d="M 70.4 305.260125 
L 70.4 28.060125 
" style="fill: none; stroke: #000000; stroke-width: 0.8; stroke-linejoin: miter; stroke-linecap: square"/>
   </g>
   <g id="patch_4">
    <path d="M 516.8 305.260125 
L 516.8 28.060125 
" style="fill: none; stroke: #000000; stroke-width: 0.8; stroke-linejoin: miter; stroke-linecap: square"/>
   </g>
   <g id="patch_5">
    <path d="M 70.4 305.260125 
L 516.8 305.260125 
" style="fill: none; stroke: #000000; stroke-width: 0.8; stroke-linejoin: miter; stroke-linecap: square"/>
   </g>
   <g id="patch_6">
    <path d="M 70.4 28.060125 
L 516.8 28.060125 
" style="fill: none; stroke: #000000; stroke-width: 0.8; stroke-linejoin: miter; stroke-linecap: square"/>
   </g>
   <g id="text_16">
    <!-- ML45 Meta Testing -->
    <g transform="translate(206.604313 22.060125)scale(0.216 -0.216)">
     <defs>
      <path id="STIXGeneral-Regular-4d" d="M 5530 0 
L 3738 0 
L 3738 122 
Q 4115 147 4214 265 
Q 4314 384 4314 787 
L 4314 3661 
L 2682 0 
L 2592 0 
L 979 3514 
L 979 966 
Q 979 448 1088 294 
Q 1197 141 1574 122 
L 1574 0 
L 77 0 
L 77 122 
Q 358 141 480 205 
Q 602 269 650 432 
Q 698 595 698 966 
L 698 3514 
Q 698 3878 589 3984 
Q 480 4090 90 4115 
L 90 4237 
L 1357 4237 
L 2835 1024 
L 4250 4237 
L 5523 4237 
L 5523 4115 
Q 5178 4109 5072 3993 
Q 4966 3878 4966 3520 
L 4966 717 
Q 4966 378 5072 262 
Q 5178 147 5530 122 
L 5530 0 
z
" transform="scale(0.015625)"/>
      <path id="STIXGeneral-Regular-4c" d="M 3827 1114 
L 3520 0 
L 77 0 
L 77 122 
Q 429 141 531 256 
Q 634 371 634 736 
L 634 3494 
Q 634 3872 541 3981 
Q 448 4090 77 4115 
L 77 4237 
L 1888 4237 
L 1888 4115 
Q 1498 4090 1392 3984 
Q 1286 3878 1286 3507 
L 1286 538 
Q 1286 358 1398 304 
Q 1510 250 1862 250 
L 2310 250 
Q 3085 250 3392 640 
Q 3520 813 3661 1114 
L 3827 1114 
z
" transform="scale(0.015625)"/>
     </defs>
     <use xlink:href="#STIXGeneral-Regular-4d"/>
     <use xlink:href="#STIXGeneral-Regular-4c" x="88.899994"/>
     <use xlink:href="#STIXGeneral-Regular-34" x="149.999985"/>
     <use xlink:href="#STIXGeneral-Regular-35" x="199.999969"/>
     <use xlink:href="#STIXGeneral-Regular-20" x="249.999954"/>
     <use xlink:href="#STIXGeneral-Regular-4d" x="274.999939"/>
     <use xlink:href="#STIXGeneral-Regular-65" x="363.899933"/>
     <use xlink:href="#STIXGeneral-Regular-74" x="408.299927"/>
     <use xlink:href="#STIXGeneral-Regular-61" x="436.099915"/>
     <use xlink:href="#STIXGeneral-Regular-20" x="480.499908"/>
     <use xlink:href="#STIXGeneral-Regular-54" x="505.499893"/>
     <use xlink:href="#STIXGeneral-Regular-65" x="566.599884"/>
     <use xlink:href="#STIXGeneral-Regular-73" x="610.999878"/>
     <use xlink:href="#STIXGeneral-Regular-74" x="649.899872"/>
     <use xlink:href="#STIXGeneral-Regular-69" x="677.69986"/>
     <use xlink:href="#STIXGeneral-Regular-6e" x="705.499847"/>
     <use xlink:href="#STIXGeneral-Regular-67" x="755.499832"/>
    </g>
   </g>
   <g id="legend_1">
    <g id="patch_7">
     <path d="M 403.106875 107.87325 
L 511.2 107.87325 
Q 514 107.87325 514 105.07325 
L 514 33.660125 
Q 514 30.860125 511.2 30.860125 
L 403.106875 30.860125 
Q 400.306875 30.860125 400.306875 33.660125 
L 400.306875 105.07325 
Q 400.306875 107.87325 403.106875 107.87325 
z
" style="fill: #ffffff; opacity: 0.8; stroke: #cccccc; stroke-linejoin: miter"/>
    </g>
    <g id="line2d_30">
     <path d="M 404.506875 40.771687 
L 411.506875 40.771687 
L 418.506875 40.771687 
" style="fill: none; stroke: #1f77b4; stroke-width: 1.5; stroke-linecap: square"/>
    </g>
    <g id="text_17">
     <!-- bin-picking-v2 -->
     <g transform="translate(422.706875 44.621687)scale(0.14 -0.14)">
      <defs>
       <path id="STIXGeneral-Regular-62" d="M 979 4358 
L 979 2406 
Q 1082 2650 1315 2797 
Q 1549 2944 1843 2944 
Q 2349 2944 2672 2541 
Q 2995 2138 2995 1536 
Q 2995 832 2566 384 
Q 2138 -64 1498 -64 
Q 1107 -64 774 67 
Q 442 198 442 358 
L 442 3622 
Q 442 3859 384 3926 
Q 326 3994 128 3994 
Q 83 3994 19 3981 
L 19 4090 
L 211 4147 
Q 864 4346 947 4371 
L 979 4358 
z
M 979 2035 
L 979 474 
Q 979 326 1161 233 
Q 1344 141 1600 141 
Q 1978 141 2195 416 
Q 2432 710 2432 1261 
Q 2432 1888 2182 2240 
Q 1971 2541 1613 2541 
Q 1357 2541 1168 2390 
Q 979 2240 979 2035 
z
" transform="scale(0.015625)"/>
       <path id="STIXGeneral-Regular-2d" d="M 1824 1242 
L 250 1242 
L 250 1645 
L 1824 1645 
L 1824 1242 
z
" transform="scale(0.015625)"/>
       <path id="STIXGeneral-Regular-63" d="M 2547 998 
L 2637 941 
Q 2362 403 2112 205 
Q 1786 -64 1376 -64 
Q 845 -64 502 336 
Q 160 736 160 1357 
Q 160 2170 698 2618 
Q 1094 2944 1562 2944 
Q 1965 2944 2256 2749 
Q 2547 2554 2547 2285 
Q 2547 2176 2457 2096 
Q 2368 2016 2246 2016 
Q 2022 2016 1939 2310 
L 1901 2451 
Q 1850 2630 1773 2694 
Q 1696 2758 1523 2758 
Q 1133 2758 893 2451 
Q 653 2144 653 1645 
Q 653 1094 928 745 
Q 1203 397 1645 397 
Q 1920 397 2118 528 
Q 2317 659 2547 998 
z
" transform="scale(0.015625)"/>
       <path id="STIXGeneral-Regular-6b" d="M 3232 0 
L 1837 0 
L 1837 96 
L 1958 96 
Q 2093 96 2093 192 
Q 2093 250 2022 339 
L 1062 1606 
L 1062 429 
Q 1062 262 1142 185 
Q 1222 109 1414 102 
L 1542 96 
L 1542 0 
L 45 0 
L 45 96 
Q 390 154 457 214 
Q 525 275 525 525 
L 525 3610 
Q 525 3840 467 3920 
Q 410 4000 250 4000 
Q 211 4000 45 3987 
L 45 4090 
L 237 4141 
Q 621 4243 1037 4371 
L 1062 4358 
L 1062 1670 
L 1939 2451 
Q 2086 2586 2086 2675 
Q 2086 2739 2019 2761 
Q 1952 2784 1766 2790 
L 1766 2880 
L 3072 2880 
L 3072 2784 
Q 2752 2784 2505 2646 
Q 2259 2509 1690 1978 
L 1504 1805 
L 2483 563 
Q 2829 122 3232 96 
L 3232 0 
z
" transform="scale(0.015625)"/>
      </defs>
      <use xlink:href="#STIXGeneral-Regular-62"/>
      <use xlink:href="#STIXGeneral-Regular-69" x="49.999985"/>
      <use xlink:href="#STIXGeneral-Regular-6e" x="77.799973"/>
      <use xlink:href="#STIXGeneral-Regular-2d" x="127.799957"/>
      <use xlink:href="#STIXGeneral-Regular-70" x="161.099945"/>
      <use xlink:href="#STIXGeneral-Regular-69" x="211.09993"/>
      <use xlink:href="#STIXGeneral-Regular-63" x="238.899918"/>
      <use xlink:href="#STIXGeneral-Regular-6b" x="283.299911"/>
      <use xlink:href="#STIXGeneral-Regular-69" x="333.299896"/>
      <use xlink:href="#STIXGeneral-Regular-6e" x="361.099884"/>
      <use xlink:href="#STIXGeneral-Regular-67" x="411.099869"/>
      <use xlink:href="#STIXGeneral-Regular-2d" x="461.099854"/>
      <use xlink:href="#STIXGeneral-Regular-76" x="494.399841"/>
      <use xlink:href="#STIXGeneral-Regular-32" x="544.399826"/>
     </g>
    </g>
    <g id="line2d_31">
     <path d="M 404.506875 54.784812 
L 411.506875 54.784812 
L 418.506875 54.784812 
" style="fill: none; stroke: #ff7f0e; stroke-width: 1.5; stroke-linecap: square"/>
    </g>
    <g id="text_18">
     <!-- box-close-v2 -->
     <g transform="translate(422.706875 58.634812)scale(0.14 -0.14)">
      <defs>
       <path id="STIXGeneral-Regular-78" d="M 3066 0 
L 1779 0 
L 1779 96 
Q 1939 109 1987 137 
Q 2035 166 2035 250 
Q 2035 307 1997 365 
L 1414 1261 
L 909 474 
Q 781 275 781 211 
Q 781 96 1037 96 
L 1037 0 
L 109 0 
L 109 96 
Q 269 109 355 169 
Q 442 230 576 422 
L 1306 1478 
L 704 2400 
Q 557 2624 454 2704 
Q 352 2784 211 2784 
L 154 2784 
L 154 2880 
L 1478 2880 
L 1478 2784 
Q 1203 2778 1203 2643 
Q 1203 2509 1498 2074 
Q 1581 1958 1587 1946 
Q 1619 1990 1779 2227 
Q 1811 2285 1856 2349 
Q 1901 2413 1923 2451 
Q 1946 2490 1971 2528 
Q 1997 2566 2006 2595 
Q 2016 2624 2016 2643 
Q 2016 2765 1760 2784 
L 1760 2880 
L 2771 2880 
L 2771 2784 
Q 2445 2771 2253 2502 
L 1722 1734 
L 2541 480 
Q 2790 96 3066 96 
L 3066 0 
z
" transform="scale(0.015625)"/>
       <path id="STIXGeneral-Regular-6c" d="M 1645 0 
L 134 0 
L 134 96 
Q 435 122 531 221 
Q 627 320 627 589 
L 627 3590 
Q 627 3821 569 3910 
Q 512 4000 358 4000 
Q 224 4000 122 3987 
L 122 4090 
Q 730 4237 1133 4371 
L 1165 4346 
L 1165 557 
Q 1165 288 1254 201 
Q 1344 115 1645 96 
L 1645 0 
z
" transform="scale(0.015625)"/>
      </defs>
      <use xlink:href="#STIXGeneral-Regular-62"/>
      <use xlink:href="#STIXGeneral-Regular-6f" x="49.999985"/>
      <use xlink:href="#STIXGeneral-Regular-78" x="99.999969"/>
      <use xlink:href="#STIXGeneral-Regular-2d" x="149.999954"/>
      <use xlink:href="#STIXGeneral-Regular-63" x="183.299942"/>
      <use xlink:href="#STIXGeneral-Regular-6c" x="227.699936"/>
      <use xlink:href="#STIXGeneral-Regular-6f" x="255.499924"/>
      <use xlink:href="#STIXGeneral-Regular-73" x="305.499908"/>
      <use xlink:href="#STIXGeneral-Regular-65" x="344.399902"/>
      <use xlink:href="#STIXGeneral-Regular-2d" x="388.799896"/>
      <use xlink:href="#STIXGeneral-Regular-76" x="422.099884"/>
      <use xlink:href="#STIXGeneral-Regular-32" x="472.099869"/>
     </g>
    </g>
    <g id="line2d_32">
     <path d="M 404.506875 68.784812 
L 411.506875 68.784812 
L 418.506875 68.784812 
" style="fill: none; stroke: #2ca02c; stroke-width: 1.5; stroke-linecap: square"/>
    </g>
    <g id="text_19">
     <!-- hand-insert-v2 -->
     <g transform="translate(422.706875 72.634812)scale(0.14 -0.14)">
      <defs>
       <path id="STIXGeneral-Regular-68" d="M 3117 0 
L 1760 0 
L 1760 96 
Q 2042 128 2118 224 
Q 2195 320 2195 653 
L 2195 1920 
Q 2195 2598 1722 2598 
Q 1530 2598 1370 2508 
Q 1210 2419 1005 2195 
L 1005 653 
Q 1005 320 1081 224 
Q 1158 128 1440 96 
L 1440 0 
L 58 0 
L 58 96 
Q 333 134 400 224 
Q 467 314 467 653 
L 467 3667 
Q 467 3872 406 3933 
Q 346 3994 141 3994 
Q 83 3994 64 3987 
L 64 4090 
L 237 4141 
Q 730 4288 973 4371 
L 1005 4352 
L 1005 2406 
Q 1229 2694 1446 2819 
Q 1664 2944 1946 2944 
Q 2733 2944 2733 1926 
L 2733 653 
Q 2733 320 2793 233 
Q 2854 147 3117 96 
L 3117 0 
z
" transform="scale(0.015625)"/>
       <path id="STIXGeneral-Regular-64" d="M 3142 269 
L 2202 -64 
L 2176 -45 
L 2176 365 
Q 1869 -64 1357 -64 
Q 826 -64 499 317 
Q 173 698 173 1312 
Q 173 1990 563 2467 
Q 954 2944 1504 2944 
Q 1850 2944 2176 2669 
L 2176 3667 
Q 2176 3866 2118 3930 
Q 2061 3994 1882 3994 
Q 1792 3994 1741 3987 
L 1741 4090 
Q 2323 4243 2682 4371 
L 2714 4358 
L 2714 730 
Q 2714 506 2768 435 
Q 2822 365 2995 365 
Q 3034 365 3142 371 
L 3142 269 
z
M 2176 653 
L 2176 2125 
Q 2176 2381 1981 2573 
Q 1786 2765 1523 2765 
Q 1158 2765 940 2438 
Q 723 2112 723 1568 
Q 723 979 963 624 
Q 1203 269 1606 269 
Q 1907 269 2080 474 
Q 2176 582 2176 653 
z
" transform="scale(0.015625)"/>
      </defs>
      <use xlink:href="#STIXGeneral-Regular-68"/>
      <use xlink:href="#STIXGeneral-Regular-61" x="49.999985"/>
      <use xlink:href="#STIXGeneral-Regular-6e" x="94.399979"/>
      <use xlink:href="#STIXGeneral-Regular-64" x="144.399963"/>
      <use xlink:href="#STIXGeneral-Regular-2d" x="194.399948"/>
      <use xlink:href="#STIXGeneral-Regular-69" x="227.699936"/>
      <use xlink:href="#STIXGeneral-Regular-6e" x="255.499924"/>
      <use xlink:href="#STIXGeneral-Regular-73" x="305.499908"/>
      <use xlink:href="#STIXGeneral-Regular-65" x="344.399902"/>
      <use xlink:href="#STIXGeneral-Regular-72" x="388.799896"/>
      <use xlink:href="#STIXGeneral-Regular-74" x="422.099884"/>
      <use xlink:href="#STIXGeneral-Regular-2d" x="449.899872"/>
      <use xlink:href="#STIXGeneral-Regular-76" x="483.19986"/>
      <use xlink:href="#STIXGeneral-Regular-32" x="533.199844"/>
     </g>
    </g>
    <g id="line2d_33">
     <path d="M 404.506875 82.784812 
L 411.506875 82.784812 
L 418.506875 82.784812 
" style="fill: none; stroke: #d62728; stroke-width: 1.5; stroke-linecap: square"/>
    </g>
    <g id="text_20">
     <!-- door-lock-v2 -->
     <g transform="translate(422.706875 86.634812)scale(0.14 -0.14)">
      <use xlink:href="#STIXGeneral-Regular-64"/>
      <use xlink:href="#STIXGeneral-Regular-6f" x="49.999985"/>
      <use xlink:href="#STIXGeneral-Regular-6f" x="99.999969"/>
      <use xlink:href="#STIXGeneral-Regular-72" x="149.999954"/>
      <use xlink:href="#STIXGeneral-Regular-2d" x="183.299942"/>
      <use xlink:href="#STIXGeneral-Regular-6c" x="216.59993"/>
      <use xlink:href="#STIXGeneral-Regular-6f" x="244.399918"/>
      <use xlink:href="#STIXGeneral-Regular-63" x="294.399902"/>
      <use xlink:href="#STIXGeneral-Regular-6b" x="338.799896"/>
      <use xlink:href="#STIXGeneral-Regular-2d" x="388.799881"/>
      <use xlink:href="#STIXGeneral-Regular-76" x="422.099869"/>
      <use xlink:href="#STIXGeneral-Regular-32" x="472.099854"/>
     </g>
    </g>
    <g id="line2d_34">
     <path d="M 404.506875 96.784812 
L 411.506875 96.784812 
L 418.506875 96.784812 
" style="fill: none; stroke: #9467bd; stroke-width: 1.5; stroke-linecap: square"/>
    </g>
    <g id="text_21">
     <!-- door-unlock-v2 -->
     <g transform="translate(422.706875 100.634812)scale(0.14 -0.14)">
      <use xlink:href="#STIXGeneral-Regular-64"/>
      <use xlink:href="#STIXGeneral-Regular-6f" x="49.999985"/>
      <use xlink:href="#STIXGeneral-Regular-6f" x="99.999969"/>
      <use xlink:href="#STIXGeneral-Regular-72" x="149.999954"/>
      <use xlink:href="#STIXGeneral-Regular-2d" x="183.299942"/>
      <use xlink:href="#STIXGeneral-Regular-75" x="216.59993"/>
      <use xlink:href="#STIXGeneral-Regular-6e" x="266.599915"/>
      <use xlink:href="#STIXGeneral-Regular-6c" x="316.599899"/>
      <use xlink:href="#STIXGeneral-Regular-6f" x="344.399887"/>
      <use xlink:href="#STIXGeneral-Regular-63" x="394.399872"/>
      <use xlink:href="#STIXGeneral-Regular-6b" x="438.799866"/>
      <use xlink:href="#STIXGeneral-Regular-2d" x="488.79985"/>
      <use xlink:href="#STIXGeneral-Regular-76" x="522.099838"/>
      <use xlink:href="#STIXGeneral-Regular-32" x="572.099823"/>
     </g>
    </g>
   </g>
  </g>
 </g>
 <defs>
  <clipPath id="p7f8eae6440">
   <rect x="70.4" y="28.060125" width="446.4" height="277.2"/>
  </clipPath>
 </defs>
</svg>
