<?xml version="1.0" encoding="utf-8" standalone="no"?>
<!DOCTYPE svg PUBLIC "-//W3C//DTD SVG 1.1//EN"
  "http://www.w3.org/Graphics/SVG/1.1/DTD/svg11.dtd">
<svg xmlns:xlink="http://www.w3.org/1999/xlink" width="524pt" height="355.877pt" viewBox="0 0 524 355.877" xmlns="http://www.w3.org/2000/svg" version="1.1">
 <metadata>
  <rdf:RDF xmlns:dc="http://purl.org/dc/elements/1.1/" xmlns:cc="http://creativecommons.org/ns#" xmlns:rdf="http://www.w3.org/1999/02/22-rdf-syntax-ns#">
   <cc:Work>
    <dc:type rdf:resource="http://purl.org/dc/dcmitype/StillImage"/>
    <dc:date>2021-12-11T16:37:00.622505</dc:date>
    <dc:format>image/svg+xml</dc:format>
    <dc:creator>
     <cc:Agent>
      <dc:title>Matplotlib v3.5.0, https://matplotlib.org/</dc:title>
     </cc:Agent>
    </dc:creator>
   </cc:Work>
  </rdf:RDF>
 </metadata>
 <defs>
  <style type="text/css">*{stroke-linejoin: round; stroke-linecap: butt}</style>
 </defs>
 <g id="figure_1">
  <g id="patch_1">
   <path d="M 0 355.877 
L 524 355.877 
L 524 0 
L 0 0 
z
" style="fill: #ffffff"/>
  </g>
  <g id="axes_1">
   <g id="patch_2">
    <path d="M 70.4 305.260125 
L 516.8 305.260125 
L 516.8 28.060125 
L 70.4 28.060125 
z
" style="fill: #ffffff"/>
   </g>
   <g id="matplotlib.axis_1">
    <g id="xtick_1">
     <g id="line2d_1">
      <path d="M 89.768595 305.260125 
L 89.768595 28.060125 
" clip-path="url(#pc52708296e)" style="fill: none; stroke: #b0b0b0; stroke-width: 0.8; stroke-linecap: square"/>
     </g>
     <g id="line2d_2">
      <defs>
       <path id="mbf77ef359a" d="M 0 0 
L 0 3.5 
" style="stroke: #000000; stroke-width: 0.8"/>
      </defs>
      <g>
       <use xlink:href="#mbf77ef359a" x="89.768595" y="305.260125" style="stroke: #000000; stroke-width: 0.8"/>
      </g>
     </g>
     <g id="text_1">
      <!-- 0 -->
      <g transform="translate(85.268595 324.553562)scale(0.18 -0.18)">
       <defs>
        <path id="STIXGeneral-Regular-30" d="M 3046 2112 
Q 3046 1683 2963 1302 
Q 2880 922 2717 602 
Q 2554 282 2266 96 
Q 1978 -90 1600 -90 
Q 1210 -90 915 108 
Q 621 307 461 640 
Q 301 973 227 1350 
Q 154 1728 154 2150 
Q 154 2746 301 3222 
Q 448 3699 790 4012 
Q 1133 4326 1626 4326 
Q 2253 4326 2649 3712 
Q 3046 3098 3046 2112 
z
M 2432 2080 
Q 2432 3091 2217 3625 
Q 2003 4160 1587 4160 
Q 1190 4160 979 3622 
Q 768 3085 768 2106 
Q 768 1120 979 598 
Q 1190 77 1600 77 
Q 2003 77 2217 598 
Q 2432 1120 2432 2080 
z
" transform="scale(0.015625)"/>
       </defs>
       <use xlink:href="#STIXGeneral-Regular-30"/>
      </g>
     </g>
    </g>
    <g id="xtick_2">
     <g id="line2d_3">
      <path d="M 192.247934 305.260125 
L 192.247934 28.060125 
" clip-path="url(#pc52708296e)" style="fill: none; stroke: #b0b0b0; stroke-width: 0.8; stroke-linecap: square"/>
     </g>
     <g id="line2d_4">
      <g>
       <use xlink:href="#mbf77ef359a" x="192.247934" y="305.260125" style="stroke: #000000; stroke-width: 0.8"/>
      </g>
     </g>
     <g id="text_2">
      <!-- 1 -->
      <g transform="translate(187.747934 324.553562)scale(0.18 -0.18)">
       <defs>
        <path id="STIXGeneral-Regular-31" d="M 2522 0 
L 755 0 
L 755 96 
Q 1107 115 1235 227 
Q 1363 339 1363 608 
L 1363 3482 
Q 1363 3795 1171 3795 
Q 1082 3795 883 3718 
L 710 3654 
L 710 3744 
L 1856 4326 
L 1914 4307 
L 1914 486 
Q 1914 275 2042 185 
Q 2170 96 2522 96 
L 2522 0 
z
" transform="scale(0.015625)"/>
       </defs>
       <use xlink:href="#STIXGeneral-Regular-31"/>
      </g>
     </g>
    </g>
    <g id="xtick_3">
     <g id="line2d_5">
      <path d="M 294.727273 305.260125 
L 294.727273 28.060125 
" clip-path="url(#pc52708296e)" style="fill: none; stroke: #b0b0b0; stroke-width: 0.8; stroke-linecap: square"/>
     </g>
     <g id="line2d_6">
      <g>
       <use xlink:href="#mbf77ef359a" x="294.727273" y="305.260125" style="stroke: #000000; stroke-width: 0.8"/>
      </g>
     </g>
     <g id="text_3">
      <!-- 2 -->
      <g transform="translate(290.227273 324.553562)scale(0.18 -0.18)">
       <defs>
        <path id="STIXGeneral-Regular-32" d="M 3034 877 
L 2688 0 
L 186 0 
L 186 77 
L 1325 1286 
Q 1773 1754 1965 2144 
Q 2157 2534 2157 2950 
Q 2157 3379 1920 3616 
Q 1683 3853 1267 3853 
Q 922 3853 720 3673 
Q 518 3494 326 3021 
L 192 3053 
Q 301 3648 630 3987 
Q 960 4326 1523 4326 
Q 2054 4326 2380 4006 
Q 2707 3686 2707 3200 
Q 2707 2477 1888 1613 
L 832 486 
L 2330 486 
Q 2541 486 2665 569 
Q 2790 653 2944 915 
L 3034 877 
z
" transform="scale(0.015625)"/>
       </defs>
       <use xlink:href="#STIXGeneral-Regular-32"/>
      </g>
     </g>
    </g>
    <g id="xtick_4">
     <g id="line2d_7">
      <path d="M 397.206612 305.260125 
L 397.206612 28.060125 
" clip-path="url(#pc52708296e)" style="fill: none; stroke: #b0b0b0; stroke-width: 0.8; stroke-linecap: square"/>
     </g>
     <g id="line2d_8">
      <g>
       <use xlink:href="#mbf77ef359a" x="397.206612" y="305.260125" style="stroke: #000000; stroke-width: 0.8"/>
      </g>
     </g>
     <g id="text_4">
      <!-- 3 -->
      <g transform="translate(392.706612 324.553562)scale(0.18 -0.18)">
       <defs>
        <path id="STIXGeneral-Regular-33" d="M 390 3264 
L 288 3290 
Q 435 3770 748 4048 
Q 1062 4326 1542 4326 
Q 1990 4326 2265 4083 
Q 2541 3840 2541 3450 
Q 2541 2925 1946 2566 
Q 2298 2413 2477 2227 
Q 2758 1914 2758 1402 
Q 2758 890 2464 506 
Q 2246 211 1840 60 
Q 1434 -90 979 -90 
Q 262 -90 262 275 
Q 262 378 339 442 
Q 416 506 525 506 
Q 685 506 915 339 
Q 1197 141 1466 141 
Q 1818 141 2058 425 
Q 2298 710 2298 1120 
Q 2298 1856 1632 2048 
Q 1434 2112 979 2112 
L 979 2202 
Q 1338 2323 1517 2432 
Q 2035 2726 2035 3290 
Q 2035 3610 1852 3776 
Q 1670 3942 1344 3942 
Q 768 3942 390 3264 
z
" transform="scale(0.015625)"/>
       </defs>
       <use xlink:href="#STIXGeneral-Regular-33"/>
      </g>
     </g>
    </g>
    <g id="xtick_5">
     <g id="line2d_9">
      <path d="M 499.68595 305.260125 
L 499.68595 28.060125 
" clip-path="url(#pc52708296e)" style="fill: none; stroke: #b0b0b0; stroke-width: 0.8; stroke-linecap: square"/>
     </g>
     <g id="line2d_10">
      <g>
       <use xlink:href="#mbf77ef359a" x="499.68595" y="305.260125" style="stroke: #000000; stroke-width: 0.8"/>
      </g>
     </g>
     <g id="text_5">
      <!-- 4 -->
      <g transform="translate(495.18595 324.553562)scale(0.18 -0.18)">
       <defs>
        <path id="STIXGeneral-Regular-34" d="M 3027 1069 
L 2368 1069 
L 2368 0 
L 1869 0 
L 1869 1069 
L 77 1069 
L 77 1478 
L 2086 4326 
L 2368 4326 
L 2368 1478 
L 3027 1478 
L 3027 1069 
z
M 1869 1478 
L 1869 3674 
L 333 1478 
L 1869 1478 
z
" transform="scale(0.015625)"/>
       </defs>
       <use xlink:href="#STIXGeneral-Regular-34"/>
      </g>
     </g>
    </g>
    <g id="text_6">
     <!-- Training Environment Steps -->
     <g transform="translate(191.604688 344.753562)scale(0.18 -0.18)">
      <defs>
       <path id="STIXGeneral-Regular-54" d="M 3795 3149 
L 3642 3149 
Q 3539 3674 3353 3821 
Q 3168 3968 2656 3968 
L 2278 3968 
L 2278 710 
Q 2278 346 2387 243 
Q 2496 141 2893 122 
L 2893 0 
L 1024 0 
L 1024 122 
Q 1427 147 1526 256 
Q 1626 365 1626 787 
L 1626 3968 
L 1242 3968 
Q 723 3968 540 3817 
Q 358 3667 262 3149 
L 109 3149 
L 154 4237 
L 3750 4237 
L 3795 3149 
z
" transform="scale(0.015625)"/>
       <path id="STIXGeneral-Regular-72" d="M 1024 2931 
L 1024 2342 
Q 1267 2688 1430 2816 
Q 1594 2944 1792 2944 
Q 1958 2944 2051 2854 
Q 2144 2765 2144 2605 
Q 2144 2470 2077 2393 
Q 2010 2317 1894 2317 
Q 1773 2317 1638 2445 
Q 1536 2541 1472 2541 
Q 1338 2541 1181 2355 
Q 1024 2170 1024 2016 
L 1024 576 
Q 1024 301 1133 205 
Q 1242 109 1568 96 
L 1568 0 
L 32 0 
L 32 96 
Q 339 154 412 224 
Q 486 294 486 538 
L 486 2138 
Q 486 2349 438 2435 
Q 390 2522 269 2522 
Q 166 2522 45 2496 
L 45 2598 
Q 448 2726 992 2944 
L 1024 2931 
z
" transform="scale(0.015625)"/>
       <path id="STIXGeneral-Regular-61" d="M 2829 422 
L 2829 243 
Q 2586 -64 2253 -64 
Q 1888 -64 1843 403 
L 1837 403 
Q 1427 -64 909 -64 
Q 608 -64 422 112 
Q 237 288 237 602 
Q 237 1050 685 1350 
Q 992 1555 1837 1869 
L 1837 2214 
Q 1837 2502 1699 2646 
Q 1562 2790 1338 2790 
Q 1146 2790 1018 2697 
Q 890 2605 890 2477 
Q 890 2419 909 2348 
Q 928 2278 928 2208 
Q 928 2112 841 2029 
Q 755 1946 634 1946 
Q 525 1946 441 2029 
Q 358 2112 358 2240 
Q 358 2547 685 2752 
Q 986 2944 1421 2944 
Q 1939 2944 2176 2656 
Q 2291 2522 2323 2384 
Q 2355 2246 2355 1946 
L 2355 723 
Q 2355 301 2554 301 
Q 2682 301 2829 422 
z
M 1837 813 
L 1837 1715 
Q 1248 1510 1018 1293 
Q 800 1094 800 800 
Q 800 557 921 432 
Q 1043 307 1242 307 
Q 1453 307 1613 410 
Q 1747 506 1792 589 
Q 1837 672 1837 813 
z
" transform="scale(0.015625)"/>
       <path id="STIXGeneral-Regular-69" d="M 1152 4045 
Q 1152 3904 1056 3811 
Q 960 3718 819 3718 
Q 685 3718 592 3811 
Q 499 3904 499 4045 
Q 499 4179 595 4275 
Q 691 4371 826 4371 
Q 966 4371 1059 4275 
Q 1152 4179 1152 4045 
z
M 1619 0 
L 102 0 
L 102 96 
Q 435 115 521 211 
Q 608 307 608 666 
L 608 2118 
Q 608 2342 563 2432 
Q 518 2522 397 2522 
Q 243 2522 128 2490 
L 128 2592 
L 1120 2944 
L 1146 2918 
L 1146 672 
Q 1146 314 1226 218 
Q 1306 122 1619 96 
L 1619 0 
z
" transform="scale(0.015625)"/>
       <path id="STIXGeneral-Regular-6e" d="M 3104 0 
L 1773 0 
L 1779 96 
Q 2016 115 2096 233 
Q 2176 352 2176 672 
L 2176 1946 
Q 2176 2592 1709 2592 
Q 1549 2592 1408 2515 
Q 1267 2438 1050 2227 
L 1050 461 
Q 1050 269 1136 192 
Q 1222 115 1466 96 
L 1466 0 
L 115 0 
L 115 96 
Q 358 115 435 214 
Q 512 314 512 602 
L 512 2157 
Q 512 2394 467 2483 
Q 422 2573 288 2573 
Q 160 2573 102 2547 
L 102 2656 
Q 550 2784 979 2944 
L 1030 2925 
L 1030 2426 
L 1037 2426 
Q 1491 2944 1958 2944 
Q 2323 2944 2518 2688 
Q 2714 2432 2714 1958 
L 2714 544 
Q 2714 288 2790 205 
Q 2867 122 3104 96 
L 3104 0 
z
" transform="scale(0.015625)"/>
       <path id="STIXGeneral-Regular-67" d="M 3008 2483 
L 2477 2483 
Q 2598 2208 2598 1946 
Q 2598 1453 2265 1203 
Q 1933 954 1600 954 
Q 1530 954 1357 973 
L 1235 986 
Q 1107 947 979 812 
Q 851 678 851 582 
Q 851 435 1350 410 
L 2176 371 
Q 2528 358 2739 172 
Q 2950 -13 2950 -314 
Q 2950 -685 2566 -986 
Q 2035 -1395 1286 -1395 
Q 826 -1395 502 -1212 
Q 179 -1030 179 -774 
Q 179 -595 320 -419 
Q 461 -243 806 6 
Q 602 102 534 172 
Q 467 243 467 346 
Q 467 531 762 787 
Q 909 915 1037 1043 
Q 717 1203 579 1401 
Q 442 1600 442 1901 
Q 442 2336 752 2640 
Q 1062 2944 1510 2944 
Q 1766 2944 2022 2848 
L 2163 2797 
Q 2349 2733 2515 2733 
L 3008 2733 
L 3008 2483 
z
M 973 2163 
L 973 2144 
Q 973 1683 1155 1398 
Q 1338 1114 1632 1114 
Q 1850 1114 1978 1270 
Q 2106 1427 2106 1690 
Q 2106 2112 1914 2464 
Q 1754 2765 1446 2765 
Q 1222 2765 1097 2605 
Q 973 2445 973 2163 
z
M 2771 -410 
Q 2771 -230 2595 -163 
Q 2419 -96 1978 -96 
Q 1344 -96 941 -13 
Q 749 -243 688 -348 
Q 627 -454 627 -563 
Q 627 -774 880 -902 
Q 1133 -1030 1555 -1030 
Q 2099 -1030 2435 -860 
Q 2771 -691 2771 -410 
z
" transform="scale(0.015625)"/>
       <path id="STIXGeneral-Regular-20" transform="scale(0.015625)"/>
       <path id="STIXGeneral-Regular-45" d="M 3821 1082 
L 3526 0 
L 77 0 
L 77 122 
Q 442 147 538 252 
Q 634 358 634 730 
L 634 3520 
Q 634 3878 534 3987 
Q 435 4096 77 4115 
L 77 4237 
L 3469 4237 
L 3494 3322 
L 3334 3322 
Q 3264 3750 3085 3872 
Q 2906 3994 2349 3994 
L 1510 3994 
Q 1370 3994 1328 3952 
Q 1286 3910 1286 3763 
L 1286 2355 
L 2253 2355 
Q 2656 2355 2787 2470 
Q 2918 2586 2976 2970 
L 3123 2970 
L 3123 1472 
L 2976 1472 
Q 2918 1875 2790 1984 
Q 2662 2093 2253 2093 
L 1286 2093 
L 1286 538 
Q 1286 346 1420 291 
Q 1555 237 1933 237 
L 2163 237 
Q 2848 237 3136 403 
Q 3424 570 3642 1082 
L 3821 1082 
z
" transform="scale(0.015625)"/>
       <path id="STIXGeneral-Regular-76" d="M 3053 2880 
L 3053 2784 
Q 2906 2771 2835 2688 
Q 2765 2605 2637 2285 
L 1818 230 
Q 1690 -90 1638 -90 
Q 1587 -90 1523 77 
Q 1510 96 1497 141 
Q 1485 186 1472 211 
L 704 2048 
Q 499 2534 403 2652 
Q 307 2771 122 2784 
L 122 2880 
L 1376 2880 
L 1376 2784 
Q 1210 2771 1146 2732 
Q 1082 2694 1082 2611 
Q 1082 2509 1139 2368 
L 1792 730 
L 2426 2387 
Q 2464 2483 2464 2579 
Q 2464 2758 2163 2784 
L 2163 2880 
L 3053 2880 
z
" transform="scale(0.015625)"/>
       <path id="STIXGeneral-Regular-6f" d="M 3008 1478 
Q 3008 806 2608 371 
Q 2208 -64 1568 -64 
Q 979 -64 582 368 
Q 186 800 186 1459 
Q 186 2125 582 2534 
Q 979 2944 1626 2944 
Q 2221 2944 2614 2537 
Q 3008 2131 3008 1478 
z
M 2432 1306 
Q 2432 2035 2112 2445 
Q 1856 2765 1504 2765 
Q 1171 2765 966 2493 
Q 762 2221 762 1747 
Q 762 928 1101 435 
Q 1318 115 1677 115 
Q 2029 115 2230 432 
Q 2432 749 2432 1306 
z
" transform="scale(0.015625)"/>
       <path id="STIXGeneral-Regular-6d" d="M 4960 0 
L 3565 0 
L 3565 96 
Q 3834 122 3907 208 
Q 3981 294 3981 576 
L 3981 1894 
Q 3981 2278 3869 2444 
Q 3757 2611 3488 2611 
Q 3264 2611 3107 2521 
Q 2950 2432 2803 2221 
L 2803 608 
Q 2803 301 2896 201 
Q 2989 102 3264 96 
L 3264 0 
L 1830 0 
L 1830 96 
Q 2112 115 2189 188 
Q 2266 262 2266 550 
L 2266 1901 
Q 2266 2611 1850 2611 
Q 1670 2611 1468 2531 
Q 1267 2451 1171 2336 
Q 1088 2240 1088 2227 
L 1088 448 
Q 1088 243 1177 176 
Q 1267 109 1523 96 
L 1523 0 
L 102 0 
L 102 96 
Q 371 102 460 195 
Q 550 288 550 563 
L 550 2150 
Q 550 2387 499 2480 
Q 448 2573 326 2573 
Q 230 2573 122 2547 
L 122 2656 
Q 557 2778 1011 2944 
L 1062 2925 
L 1062 2451 
L 1075 2451 
Q 1363 2752 1584 2848 
Q 1805 2944 2054 2944 
Q 2560 2944 2733 2406 
Q 3232 2944 3776 2944 
Q 4518 2944 4518 1792 
L 4518 493 
Q 4518 282 4582 202 
Q 4646 122 4794 109 
L 4960 96 
L 4960 0 
z
" transform="scale(0.015625)"/>
       <path id="STIXGeneral-Regular-65" d="M 2611 1050 
L 2714 1005 
Q 2330 -64 1376 -64 
Q 813 -64 486 329 
Q 160 723 160 1389 
Q 160 2074 525 2509 
Q 890 2944 1485 2944 
Q 2061 2944 2374 2502 
Q 2560 2246 2592 1773 
L 621 1773 
Q 646 1370 700 1158 
Q 755 947 915 730 
Q 1184 378 1626 378 
Q 1939 378 2153 531 
Q 2368 685 2611 1050 
z
M 634 1978 
L 1939 1978 
Q 1882 2381 1750 2547 
Q 1619 2714 1312 2714 
Q 1043 2714 864 2525 
Q 685 2336 634 1978 
z
" transform="scale(0.015625)"/>
       <path id="STIXGeneral-Regular-74" d="M 1702 493 
L 1786 422 
Q 1478 -64 1011 -64 
Q 448 -64 448 749 
L 448 2675 
L 109 2675 
Q 83 2694 83 2720 
Q 83 2771 192 2842 
Q 435 2982 813 3526 
Q 826 3546 874 3606 
Q 922 3667 941 3706 
Q 986 3706 986 3622 
L 986 2880 
L 1632 2880 
L 1632 2675 
L 986 2675 
L 986 845 
Q 986 538 1062 403 
Q 1139 269 1318 269 
Q 1510 269 1702 493 
z
" transform="scale(0.015625)"/>
       <path id="STIXGeneral-Regular-53" d="M 3002 2963 
L 2842 2963 
Q 2733 3360 2579 3565 
Q 2189 4064 1651 4064 
Q 1357 4064 1181 3894 
Q 1005 3725 1005 3456 
Q 1005 3328 1069 3206 
Q 1133 3085 1206 2998 
Q 1280 2912 1465 2784 
Q 1651 2656 1766 2589 
Q 1882 2522 2150 2362 
Q 2669 2061 2905 1763 
Q 3142 1466 3142 1107 
Q 3142 576 2771 243 
Q 2400 -90 1837 -90 
Q 1421 -90 1082 58 
Q 915 128 781 128 
Q 704 128 653 70 
Q 602 13 602 -83 
L 461 -83 
L 275 1274 
L 416 1274 
Q 845 141 1734 141 
Q 2074 141 2285 342 
Q 2496 544 2496 858 
Q 2496 1158 2310 1363 
Q 2003 1696 1235 2106 
Q 454 2522 454 3206 
Q 454 3718 768 4022 
Q 1082 4326 1568 4326 
Q 1907 4326 2240 4186 
Q 2413 4109 2522 4109 
Q 2688 4109 2726 4326 
L 2861 4326 
L 3002 2963 
z
" transform="scale(0.015625)"/>
       <path id="STIXGeneral-Regular-70" d="M 1018 2931 
L 1018 2438 
Q 1421 2944 1939 2944 
Q 2406 2944 2707 2560 
Q 3008 2176 3008 1581 
Q 3008 883 2621 409 
Q 2234 -64 1664 -64 
Q 1466 -64 1328 -6 
Q 1190 51 1018 211 
L 1018 -794 
Q 1018 -1094 1120 -1180 
Q 1222 -1267 1581 -1274 
L 1581 -1389 
L 32 -1389 
L 32 -1280 
Q 314 -1254 397 -1171 
Q 480 -1088 480 -838 
L 480 2157 
Q 480 2381 429 2451 
Q 378 2522 218 2522 
Q 115 2522 58 2515 
L 58 2618 
Q 506 2752 979 2944 
L 1018 2931 
z
M 1018 2138 
L 1018 563 
Q 1018 422 1238 281 
Q 1459 141 1683 141 
Q 2029 141 2243 467 
Q 2458 794 2458 1325 
Q 2458 1888 2243 2224 
Q 2029 2560 1670 2560 
Q 1446 2560 1232 2419 
Q 1018 2278 1018 2138 
z
" transform="scale(0.015625)"/>
       <path id="STIXGeneral-Regular-73" d="M 998 1926 
L 1664 1523 
Q 1984 1331 2105 1164 
Q 2227 998 2227 736 
Q 2227 416 1961 176 
Q 1696 -64 1331 -64 
Q 1030 -64 864 -6 
Q 691 51 570 51 
Q 461 51 416 -26 
L 333 -26 
L 333 979 
L 435 979 
Q 538 512 730 294 
Q 922 77 1248 77 
Q 1485 77 1632 211 
Q 1779 346 1779 550 
Q 1779 845 1440 1030 
L 1094 1222 
Q 326 1651 326 2150 
Q 326 2522 566 2730 
Q 806 2938 1210 2938 
Q 1491 2938 1638 2867 
Q 1754 2816 1818 2816 
Q 1862 2816 1920 2880 
L 1990 2880 
L 2022 2010 
L 1926 2010 
Q 1818 2445 1654 2621 
Q 1491 2797 1203 2797 
Q 986 2797 854 2688 
Q 723 2579 723 2362 
Q 723 2253 796 2128 
Q 870 2003 998 1926 
z
" transform="scale(0.015625)"/>
      </defs>
      <use xlink:href="#STIXGeneral-Regular-54"/>
      <use xlink:href="#STIXGeneral-Regular-72" x="61.099991"/>
      <use xlink:href="#STIXGeneral-Regular-61" x="94.399979"/>
      <use xlink:href="#STIXGeneral-Regular-69" x="138.799973"/>
      <use xlink:href="#STIXGeneral-Regular-6e" x="166.59996"/>
      <use xlink:href="#STIXGeneral-Regular-69" x="216.599945"/>
      <use xlink:href="#STIXGeneral-Regular-6e" x="244.399933"/>
      <use xlink:href="#STIXGeneral-Regular-67" x="294.399918"/>
      <use xlink:href="#STIXGeneral-Regular-20" x="344.399902"/>
      <use xlink:href="#STIXGeneral-Regular-45" x="369.399887"/>
      <use xlink:href="#STIXGeneral-Regular-6e" x="430.499878"/>
      <use xlink:href="#STIXGeneral-Regular-76" x="480.499863"/>
      <use xlink:href="#STIXGeneral-Regular-69" x="530.499847"/>
      <use xlink:href="#STIXGeneral-Regular-72" x="558.299835"/>
      <use xlink:href="#STIXGeneral-Regular-6f" x="591.599823"/>
      <use xlink:href="#STIXGeneral-Regular-6e" x="641.599808"/>
      <use xlink:href="#STIXGeneral-Regular-6d" x="691.599792"/>
      <use xlink:href="#STIXGeneral-Regular-65" x="769.39978"/>
      <use xlink:href="#STIXGeneral-Regular-6e" x="813.799774"/>
      <use xlink:href="#STIXGeneral-Regular-74" x="863.799759"/>
      <use xlink:href="#STIXGeneral-Regular-20" x="891.599747"/>
      <use xlink:href="#STIXGeneral-Regular-53" x="916.599731"/>
      <use xlink:href="#STIXGeneral-Regular-74" x="972.199722"/>
      <use xlink:href="#STIXGeneral-Regular-65" x="999.99971"/>
      <use xlink:href="#STIXGeneral-Regular-70" x="1044.399704"/>
      <use xlink:href="#STIXGeneral-Regular-73" x="1094.399689"/>
     </g>
    </g>
    <g id="text_7">
     <!-- 1e8 -->
     <g transform="translate(490.806875 343.753562)scale(0.18 -0.18)">
      <defs>
       <path id="STIXGeneral-Regular-38" d="M 2848 992 
Q 2848 499 2505 204 
Q 2163 -90 1587 -90 
Q 1050 -90 704 204 
Q 358 499 358 954 
Q 358 1293 524 1533 
Q 691 1773 1190 2125 
Q 710 2522 553 2765 
Q 397 3008 397 3328 
Q 397 3782 745 4054 
Q 1094 4326 1638 4326 
Q 2106 4326 2410 4060 
Q 2714 3795 2714 3411 
Q 2714 3059 2531 2848 
Q 2349 2637 1856 2374 
Q 2432 1990 2640 1689 
Q 2848 1389 2848 992 
z
M 2272 3411 
Q 2272 3744 2086 3945 
Q 1901 4147 1574 4147 
Q 1248 4147 1059 3977 
Q 870 3808 870 3513 
Q 870 3219 1059 2979 
Q 1248 2739 1670 2490 
Q 1997 2682 2134 2896 
Q 2272 3110 2272 3411 
z
M 1734 1741 
L 1357 1997 
Q 1075 1766 960 1545 
Q 845 1325 845 1011 
Q 845 576 1065 333 
Q 1286 90 1658 90 
Q 1971 90 2166 285 
Q 2362 480 2362 794 
Q 2362 1082 2214 1299 
Q 2067 1517 1734 1741 
z
" transform="scale(0.015625)"/>
      </defs>
      <use xlink:href="#STIXGeneral-Regular-31"/>
      <use xlink:href="#STIXGeneral-Regular-65" x="49.999985"/>
      <use xlink:href="#STIXGeneral-Regular-38" x="94.399979"/>
     </g>
    </g>
   </g>
   <g id="matplotlib.axis_2">
    <g id="ytick_1">
     <g id="line2d_11">
      <path d="M 70.4 294.777605 
L 516.8 294.777605 
" clip-path="url(#pc52708296e)" style="fill: none; stroke: #b0b0b0; stroke-width: 0.8; stroke-linecap: square"/>
     </g>
     <g id="line2d_12">
      <defs>
       <path id="ma86dde7a9c" d="M 0 0 
L -3.5 0 
" style="stroke: #000000; stroke-width: 0.8"/>
      </defs>
      <g>
       <use xlink:href="#ma86dde7a9c" x="70.4" y="294.777605" style="stroke: #000000; stroke-width: 0.8"/>
      </g>
     </g>
     <g id="text_8">
      <!-- 0 -->
      <g transform="translate(54.4 300.924323)scale(0.18 -0.18)">
       <use xlink:href="#STIXGeneral-Regular-30"/>
      </g>
     </g>
    </g>
    <g id="ytick_2">
     <g id="line2d_13">
      <path d="M 70.4 221.102454 
L 516.8 221.102454 
" clip-path="url(#pc52708296e)" style="fill: none; stroke: #b0b0b0; stroke-width: 0.8; stroke-linecap: square"/>
     </g>
     <g id="line2d_14">
      <g>
       <use xlink:href="#ma86dde7a9c" x="70.4" y="221.102454" style="stroke: #000000; stroke-width: 0.8"/>
      </g>
     </g>
     <g id="text_9">
      <!-- 500 -->
      <g transform="translate(36.4 227.249173)scale(0.18 -0.18)">
       <defs>
        <path id="STIXGeneral-Regular-35" d="M 2803 4358 
L 2573 3814 
Q 2534 3731 2400 3731 
L 1158 3731 
L 902 3187 
Q 1606 3053 1920 2896 
Q 2234 2739 2502 2368 
Q 2726 2061 2726 1555 
Q 2726 1094 2576 780 
Q 2426 467 2099 224 
Q 1664 -90 1011 -90 
Q 646 -90 422 19 
Q 198 128 198 307 
Q 198 550 486 550 
Q 717 550 960 352 
Q 1210 147 1414 147 
Q 1747 147 2012 480 
Q 2278 813 2278 1229 
Q 2278 1843 1850 2189 
Q 1293 2637 486 2637 
Q 410 2637 410 2688 
L 416 2720 
L 1114 4237 
L 2438 4237 
Q 2547 4237 2608 4269 
Q 2669 4301 2746 4403 
L 2803 4358 
z
" transform="scale(0.015625)"/>
       </defs>
       <use xlink:href="#STIXGeneral-Regular-35"/>
       <use xlink:href="#STIXGeneral-Regular-30" x="49.999985"/>
       <use xlink:href="#STIXGeneral-Regular-30" x="99.999969"/>
      </g>
     </g>
    </g>
    <g id="ytick_3">
     <g id="line2d_15">
      <path d="M 70.4 147.427303 
L 516.8 147.427303 
" clip-path="url(#pc52708296e)" style="fill: none; stroke: #b0b0b0; stroke-width: 0.8; stroke-linecap: square"/>
     </g>
     <g id="line2d_16">
      <g>
       <use xlink:href="#ma86dde7a9c" x="70.4" y="147.427303" style="stroke: #000000; stroke-width: 0.8"/>
      </g>
     </g>
     <g id="text_10">
      <!-- 1000 -->
      <g transform="translate(27.4 153.574022)scale(0.18 -0.18)">
       <use xlink:href="#STIXGeneral-Regular-31"/>
       <use xlink:href="#STIXGeneral-Regular-30" x="49.999985"/>
       <use xlink:href="#STIXGeneral-Regular-30" x="99.999969"/>
       <use xlink:href="#STIXGeneral-Regular-30" x="149.999954"/>
      </g>
     </g>
    </g>
    <g id="ytick_4">
     <g id="line2d_17">
      <path d="M 70.4 73.752153 
L 516.8 73.752153 
" clip-path="url(#pc52708296e)" style="fill: none; stroke: #b0b0b0; stroke-width: 0.8; stroke-linecap: square"/>
     </g>
     <g id="line2d_18">
      <g>
       <use xlink:href="#ma86dde7a9c" x="70.4" y="73.752153" style="stroke: #000000; stroke-width: 0.8"/>
      </g>
     </g>
     <g id="text_11">
      <!-- 1500 -->
      <g transform="translate(27.4 79.898871)scale(0.18 -0.18)">
       <use xlink:href="#STIXGeneral-Regular-31"/>
       <use xlink:href="#STIXGeneral-Regular-35" x="49.999985"/>
       <use xlink:href="#STIXGeneral-Regular-30" x="99.999969"/>
       <use xlink:href="#STIXGeneral-Regular-30" x="149.999954"/>
      </g>
     </g>
    </g>
    <g id="text_12">
     <!-- Average Test Return -->
     <g transform="translate(19.476562 241.641375)rotate(-90)scale(0.18 -0.18)">
      <defs>
       <path id="STIXGeneral-Regular-41" d="M 4525 0 
L 2893 0 
L 2893 122 
Q 3149 122 3245 179 
Q 3334 224 3334 333 
Q 3334 499 3213 781 
L 2950 1382 
L 1274 1382 
L 979 653 
Q 922 506 922 384 
Q 922 237 1027 179 
Q 1133 122 1370 122 
L 1370 0 
L 96 0 
L 96 122 
Q 365 147 486 316 
Q 608 486 902 1190 
L 2221 4314 
L 2349 4314 
L 3923 710 
Q 4064 378 4176 262 
Q 4288 147 4525 122 
L 4525 0 
z
M 2861 1645 
L 2118 3405 
L 1382 1645 
L 2861 1645 
z
" transform="scale(0.015625)"/>
       <path id="STIXGeneral-Regular-52" d="M 4224 0 
L 3187 0 
L 1664 1971 
L 1306 1958 
L 1306 717 
Q 1306 352 1405 249 
Q 1504 147 1875 122 
L 1875 0 
L 109 0 
L 109 122 
Q 474 154 563 262 
Q 653 371 653 794 
L 653 3526 
Q 653 3885 563 3987 
Q 474 4090 109 4115 
L 109 4237 
L 1850 4237 
Q 2726 4237 3187 3859 
Q 3501 3603 3501 3091 
Q 3501 2221 2342 2042 
L 3622 422 
Q 3757 256 3878 198 
Q 4000 141 4224 122 
L 4224 0 
z
M 1306 3731 
L 1306 2195 
Q 1766 2202 1990 2246 
Q 2214 2291 2438 2413 
Q 2803 2618 2803 3142 
Q 2803 4000 1632 4000 
Q 1459 4000 1382 3945 
Q 1306 3891 1306 3731 
z
" transform="scale(0.015625)"/>
       <path id="STIXGeneral-Regular-75" d="M 3072 320 
L 3072 230 
Q 2573 96 2195 -58 
L 2163 -38 
L 2163 486 
L 2150 486 
Q 1747 -64 1235 -64 
Q 870 -64 662 160 
Q 454 384 454 755 
L 454 2362 
Q 454 2598 371 2688 
Q 288 2778 58 2790 
L 58 2880 
L 992 2880 
L 992 813 
Q 992 595 1123 451 
Q 1254 307 1446 307 
Q 1760 307 1984 506 
Q 2067 582 2099 649 
Q 2131 717 2131 877 
L 2131 2355 
Q 2131 2605 2041 2678 
Q 1952 2752 1658 2771 
L 1658 2880 
L 2669 2880 
L 2669 685 
Q 2669 461 2742 390 
Q 2816 320 3034 320 
L 3072 320 
z
" transform="scale(0.015625)"/>
      </defs>
      <use xlink:href="#STIXGeneral-Regular-41"/>
      <use xlink:href="#STIXGeneral-Regular-76" x="72.199982"/>
      <use xlink:href="#STIXGeneral-Regular-65" x="122.199966"/>
      <use xlink:href="#STIXGeneral-Regular-72" x="166.59996"/>
      <use xlink:href="#STIXGeneral-Regular-61" x="199.899948"/>
      <use xlink:href="#STIXGeneral-Regular-67" x="244.299942"/>
      <use xlink:href="#STIXGeneral-Regular-65" x="294.299927"/>
      <use xlink:href="#STIXGeneral-Regular-20" x="338.699921"/>
      <use xlink:href="#STIXGeneral-Regular-54" x="363.699905"/>
      <use xlink:href="#STIXGeneral-Regular-65" x="424.799896"/>
      <use xlink:href="#STIXGeneral-Regular-73" x="469.19989"/>
      <use xlink:href="#STIXGeneral-Regular-74" x="508.099884"/>
      <use xlink:href="#STIXGeneral-Regular-20" x="535.899872"/>
      <use xlink:href="#STIXGeneral-Regular-52" x="560.899857"/>
      <use xlink:href="#STIXGeneral-Regular-65" x="627.599854"/>
      <use xlink:href="#STIXGeneral-Regular-74" x="671.999847"/>
      <use xlink:href="#STIXGeneral-Regular-75" x="699.799835"/>
      <use xlink:href="#STIXGeneral-Regular-72" x="749.79982"/>
      <use xlink:href="#STIXGeneral-Regular-6e" x="783.099808"/>
     </g>
    </g>
   </g>
   <g id="line2d_19">
    <path d="M 90.690909 292.384169 
L 92.535537 292.36858 
L 104.52562 292.062823 
L 112.826446 292.224459 
L 114.671074 292.145803 
L 117.438017 292.123906 
L 121.127273 292.186862 
L 124.816529 292.167629 
L 131.272727 291.979803 
L 132.195041 291.8922 
L 136.806612 292.123912 
L 151.563636 292.303753 
L 155.252893 292.633182 
L 157.097521 292.598559 
L 158.019835 292.4884 
L 164.476033 292.41486 
L 169.087603 292.458581 
L 174.621488 292.5184 
L 178.310744 292.326176 
L 180.155372 292.253306 
L 186.61157 292.284088 
L 192.145455 292.265214 
L 193.990083 292.022189 
L 196.757025 291.914968 
L 200.446281 291.583333 
L 205.057851 291.536827 
L 205.980165 291.447138 
L 207.824793 291.514447 
L 213.358678 291.549964 
L 217.970248 291.563346 
L 218.892562 291.503025 
L 219.814876 291.572548 
L 222.581818 291.487342 
L 226.271074 291.540119 
L 230.882645 291.451784 
L 243.795041 291.249637 
L 253.018182 290.956067 
L 255.785124 290.908552 
L 258.552066 290.773421 
L 263.163636 290.661013 
L 265.008264 290.807604 
L 274.231405 290.804294 
L 276.998347 291.057035 
L 284.37686 290.675893 
L 289.910744 291.324055 
L 290.833058 291.491434 
L 291.755372 291.5205 
L 292.677686 291.671727 
L 293.6 291.673175 
L 294.522314 291.51371 
L 296.366942 291.415599 
L 297.289256 291.227286 
L 298.21157 291.173663 
L 299.133884 291.002736 
L 300.978512 291.013049 
L 304.667769 291.087286 
L 306.512397 291.170307 
L 311.123967 291.070813 
L 312.046281 291.010407 
L 315.735537 291.36917 
L 316.657851 291.315598 
L 318.502479 291.546774 
L 320.347107 291.628931 
L 325.880992 292.04708 
L 328.647934 291.984706 
L 334.181818 291.840072 
L 335.104132 291.598813 
L 338.793388 291.511463 
L 339.715702 291.488237 
L 341.560331 291.692402 
L 343.404959 291.605578 
L 345.249587 291.517006 
L 347.094215 291.407775 
L 348.016529 291.561062 
L 349.861157 291.493709 
L 353.550413 291.398588 
L 354.472727 291.299709 
L 362.773554 291.596279 
L 364.618182 292.044839 
L 366.46281 291.954226 
L 370.152066 291.733936 
L 372.919008 291.71034 
L 373.841322 291.613743 
L 376.608264 291.650518 
L 378.452893 291.499198 
L 379.375207 291.524235 
L 380.297521 291.418795 
L 389.520661 291.639145 
L 390.442975 291.789825 
L 395.97686 291.166269 
L 400.58843 291.332189 
L 402.433058 291.153599 
L 404.277686 291.096748 
L 405.2 290.969852 
L 406.122314 291.058149 
L 407.044628 290.961084 
L 408.889256 291.185195 
L 410.733884 291.260013 
L 418.112397 290.911141 
L 419.957025 290.756554 
L 420.879339 290.792379 
L 421.801653 290.669655 
L 423.646281 290.698001 
L 424.568595 290.849721 
L 425.490909 290.884337 
L 426.413223 291.040119 
L 429.180165 291.171827 
L 431.024793 291.269893 
L 433.791736 291.318853 
L 434.71405 291.208891 
L 435.636364 291.284753 
L 436.558678 291.23875 
L 437.480992 291.412747 
L 441.170248 291.156646 
L 442.092562 290.972234 
L 444.859504 291.079361 
L 447.626446 290.793345 
L 449.471074 291.104119 
L 457.771901 291.336568 
L 459.616529 291.285352 
L 461.461157 291.226609 
L 463.305785 291.413526 
L 466.072727 291.486073 
L 470.684298 291.673581 
L 472.528926 291.57371 
L 473.45124 291.676689 
L 474.373554 291.632913 
L 476.218182 291.729023 
L 478.985124 291.677438 
L 480.829752 291.607441 
L 482.67438 291.765094 
L 484.519008 291.853026 
L 485.441322 292.047505 
L 487.28595 291.981523 
L 488.208264 291.845711 
L 494.664463 291.814594 
L 495.586777 291.693346 
L 496.509091 291.698565 
L 496.509091 291.698565 
" clip-path="url(#pc52708296e)" style="fill: none; stroke: #1f77b4; stroke-width: 1.5; stroke-linecap: square"/>
   </g>
   <g id="line2d_20">
    <path d="M 90.690909 260.296508 
L 91.613223 260.456595 
L 93.457851 260.212003 
L 94.380165 260.146294 
L 95.302479 260.302159 
L 96.224793 260.289975 
L 97.147107 260.608725 
L 98.069421 260.745818 
L 98.991736 260.693077 
L 99.91405 260.309661 
L 100.836364 260.213795 
L 101.758678 260.253769 
L 102.680992 260.56693 
L 104.52562 260.366381 
L 105.447934 260.518234 
L 106.370248 260.229934 
L 107.292562 260.062707 
L 108.214876 260.360768 
L 109.13719 260.449726 
L 110.059504 259.935693 
L 111.904132 260.320051 
L 113.74876 260.435147 
L 114.671074 260.404757 
L 115.593388 260.581006 
L 116.515702 260.617228 
L 117.438017 260.07312 
L 118.360331 260.488295 
L 119.282645 260.246918 
L 121.127273 260.161811 
L 122.049587 259.988647 
L 122.971901 260.212692 
L 124.816529 260.211164 
L 127.583471 260.380768 
L 128.505785 260.220184 
L 129.428099 260.345726 
L 130.350413 260.236352 
L 131.272727 260.402806 
L 133.117355 260.220261 
L 134.039669 260.332492 
L 137.728926 260.339819 
L 138.65124 260.445265 
L 139.573554 260.149037 
L 140.495868 260.256179 
L 141.418182 260.651577 
L 142.340496 260.737694 
L 143.26281 260.510724 
L 147.87438 260.412482 
L 148.796694 260.749771 
L 149.719008 260.721486 
L 150.641322 260.563574 
L 151.563636 260.201717 
L 152.48595 260.158459 
L 153.408264 259.865104 
L 156.175207 260.286283 
L 158.942149 260.150344 
L 159.864463 259.93278 
L 160.786777 260.110453 
L 162.631405 259.897406 
L 163.553719 259.664242 
L 164.476033 260.353699 
L 165.398347 260.240553 
L 166.320661 259.879534 
L 168.165289 259.904146 
L 169.087603 260.463994 
L 170.009917 260.573618 
L 170.932231 260.249733 
L 172.77686 260.215549 
L 173.699174 260.394112 
L 174.621488 260.409342 
L 175.543802 260.250689 
L 176.466116 259.877311 
L 177.38843 260.284866 
L 178.310744 260.19822 
L 179.233058 260.31531 
L 180.155372 260.5545 
L 183.844628 260.283443 
L 184.766942 260.374 
L 185.689256 260.202266 
L 187.533884 260.550469 
L 188.456198 260.769895 
L 191.22314 260.869105 
L 192.145455 261.141136 
L 193.067769 261.188328 
L 193.990083 260.980524 
L 194.912397 261.073951 
L 195.834711 260.813965 
L 196.757025 261.130394 
L 199.523967 261.127017 
L 200.446281 260.665786 
L 201.368595 260.429177 
L 203.213223 261.003214 
L 204.135537 261.626216 
L 205.980165 261.620477 
L 206.902479 261.048259 
L 207.824793 261.379781 
L 208.747107 261.535624 
L 209.669421 261.452143 
L 210.591736 262.245067 
L 211.51405 261.851437 
L 212.436364 261.677223 
L 213.358678 262.161908 
L 214.280992 261.806455 
L 215.203306 262.021556 
L 216.12562 262.055957 
L 217.047934 261.461466 
L 217.970248 261.517139 
L 219.814876 260.908114 
L 220.73719 260.926082 
L 221.659504 260.603905 
L 223.504132 261.433313 
L 224.426446 261.364699 
L 225.34876 261.873316 
L 226.271074 262.183859 
L 227.193388 261.842843 
L 228.115702 261.873406 
L 229.038017 262.029026 
L 229.960331 261.581959 
L 230.882645 261.770491 
L 231.804959 261.778107 
L 232.727273 262.032173 
L 233.649587 261.963645 
L 234.571901 261.588264 
L 235.494215 261.682637 
L 236.416529 262.35255 
L 237.338843 262.430998 
L 238.261157 262.092431 
L 242.872727 261.218449 
L 243.795041 261.138736 
L 246.561983 261.794389 
L 247.484298 261.522493 
L 250.25124 261.103479 
L 251.173554 260.772548 
L 252.095868 260.656555 
L 253.018182 260.865208 
L 253.940496 260.698894 
L 254.86281 261.268005 
L 255.785124 261.141907 
L 256.707438 260.826523 
L 257.629752 261.101002 
L 258.552066 261.08099 
L 261.319008 260.360743 
L 262.241322 260.574365 
L 263.163636 260.454601 
L 265.008264 260.965638 
L 265.930579 260.990811 
L 266.852893 261.148026 
L 271.464463 261.329575 
L 272.386777 261.521173 
L 273.309091 261.464712 
L 274.231405 261.792394 
L 275.153719 261.864348 
L 276.076033 261.289796 
L 278.842975 260.606719 
L 280.687603 261.39157 
L 281.609917 261.469855 
L 282.532231 261.406471 
L 284.37686 260.990106 
L 286.221488 261.300256 
L 287.143802 260.856387 
L 288.98843 260.651561 
L 289.910744 260.985658 
L 290.833058 260.669666 
L 291.755372 260.484186 
L 293.6 260.602732 
L 295.444628 260.277154 
L 296.366942 260.296206 
L 299.133884 259.960484 
L 300.056198 260.606724 
L 300.978512 260.383846 
L 301.900826 260.548843 
L 302.82314 260.575948 
L 304.667769 261.232073 
L 305.590083 261.041733 
L 306.512397 260.983907 
L 307.434711 260.617046 
L 309.279339 260.274443 
L 310.201653 260.376043 
L 311.123967 260.269433 
L 312.968595 260.565033 
L 313.890909 260.462996 
L 317.580165 261.717128 
L 318.502479 261.550474 
L 319.424793 261.063979 
L 321.269421 261.204101 
L 322.191736 260.597221 
L 323.11405 260.424469 
L 324.036364 260.668151 
L 324.958678 260.762035 
L 325.880992 261.172006 
L 326.803306 261.111482 
L 327.72562 261.317266 
L 329.570248 261.432124 
L 331.414876 261.14666 
L 332.33719 260.818224 
L 333.259504 260.887039 
L 334.181818 261.342138 
L 335.104132 261.671672 
L 336.94876 261.225271 
L 337.871074 261.685367 
L 338.793388 261.298955 
L 339.715702 261.399429 
L 340.638017 260.919522 
L 341.560331 260.970822 
L 344.327273 260.770979 
L 345.249587 261.125389 
L 346.171901 261.061507 
L 347.094215 261.146635 
L 348.016529 261.385616 
L 348.938843 261.055875 
L 349.861157 261.016472 
L 350.783471 260.497894 
L 351.705785 260.967584 
L 352.628099 261.010117 
L 353.550413 261.18433 
L 354.472727 261.206339 
L 355.395041 261.500718 
L 356.317355 261.5936 
L 357.239669 260.97448 
L 358.161983 260.734713 
L 359.084298 261.244195 
L 360.006612 260.951441 
L 361.85124 260.660682 
L 362.773554 260.868864 
L 364.618182 260.764375 
L 365.540496 260.343421 
L 366.46281 260.268618 
L 367.385124 260.33349 
L 368.307438 260.707734 
L 369.229752 260.59336 
L 370.152066 260.788503 
L 371.996694 260.626634 
L 372.919008 260.419672 
L 373.841322 260.918751 
L 374.763636 260.644715 
L 375.68595 261.06626 
L 376.608264 261.079525 
L 377.530579 260.928227 
L 378.452893 260.96674 
L 379.375207 261.506435 
L 380.297521 261.228852 
L 381.219835 261.118686 
L 382.142149 261.451966 
L 383.064463 261.581014 
L 383.986777 261.473093 
L 384.909091 261.057144 
L 385.831405 261.488371 
L 386.753719 261.220067 
L 387.676033 261.409132 
L 388.598347 261.093528 
L 389.520661 260.959031 
L 390.442975 260.603929 
L 391.365289 260.497248 
L 392.287603 261.391909 
L 393.209917 261.243762 
L 394.132231 261.340542 
L 396.899174 261.188906 
L 397.821488 260.990471 
L 398.743802 261.258458 
L 399.666116 261.237762 
L 400.58843 260.883718 
L 401.510744 260.770833 
L 402.433058 261.573935 
L 403.355372 261.648028 
L 404.277686 262.069571 
L 405.2 262.160372 
L 406.122314 262.368694 
L 407.044628 262.415269 
L 407.966942 262.296069 
L 408.889256 261.866266 
L 409.81157 261.856345 
L 412.578512 262.554255 
L 413.500826 262.018729 
L 414.42314 262.519022 
L 415.345455 262.08796 
L 416.267769 261.452084 
L 417.190083 261.112956 
L 418.112397 261.265907 
L 419.034711 261.15341 
L 419.957025 260.857312 
L 420.879339 261.304517 
L 421.801653 261.169677 
L 423.646281 260.554073 
L 424.568595 260.38831 
L 425.490909 260.436683 
L 426.413223 260.341645 
L 427.335537 259.563219 
L 428.257851 259.458369 
L 430.102479 259.587373 
L 431.947107 259.628033 
L 432.869421 259.559806 
L 433.791736 259.793763 
L 434.71405 259.398645 
L 435.636364 259.210475 
L 436.558678 259.437255 
L 437.480992 259.411885 
L 439.32562 259.002598 
L 440.247934 259.29321 
L 441.170248 259.947717 
L 442.092562 260.177631 
L 443.014876 260.261474 
L 443.93719 260.605222 
L 444.859504 260.384954 
L 445.781818 260.019385 
L 446.704132 260.009533 
L 447.626446 259.346696 
L 448.54876 259.062923 
L 449.471074 259.072434 
L 450.393388 259.591371 
L 452.238017 259.832793 
L 453.160331 259.796261 
L 454.082645 259.415754 
L 455.927273 260.371411 
L 456.849587 260.141009 
L 457.771901 260.550295 
L 459.616529 260.509662 
L 460.538843 260.53212 
L 461.461157 260.344936 
L 462.383471 260.499976 
L 463.305785 260.185314 
L 464.228099 260.442947 
L 465.150413 261.277675 
L 466.072727 261.426326 
L 467.917355 262.519646 
L 468.839669 261.947402 
L 469.761983 261.831798 
L 470.684298 261.327479 
L 471.606612 261.177719 
L 472.528926 261.268059 
L 473.45124 260.983011 
L 474.373554 261.378901 
L 475.295868 261.070874 
L 476.218182 261.420476 
L 477.140496 260.539229 
L 478.06281 260.185196 
L 478.985124 260.813847 
L 479.907438 260.451145 
L 480.829752 260.506612 
L 481.752066 261.11867 
L 482.67438 261.300558 
L 483.596694 261.152893 
L 484.519008 261.248406 
L 486.363636 261.739649 
L 487.28595 261.581478 
L 490.052893 261.892603 
L 490.975207 262.33468 
L 491.897521 262.968987 
L 492.819835 262.404226 
L 493.742149 262.284338 
L 494.664463 262.914107 
L 496.509091 263.808056 
L 496.509091 263.808056 
" clip-path="url(#pc52708296e)" style="fill: none; stroke: #ff7f0e; stroke-width: 1.5; stroke-linecap: square"/>
   </g>
   <g id="line2d_21">
    <path d="M 90.690909 290.065316 
L 91.613223 290.056172 
L 92.535537 289.893006 
L 94.380165 289.967713 
L 96.224793 289.929754 
L 98.991736 290.144756 
L 99.91405 289.866664 
L 103.603306 289.799353 
L 104.52562 290.030037 
L 105.447934 290.018538 
L 106.370248 289.824062 
L 107.292562 290.077803 
L 109.13719 290.051236 
L 110.059504 289.959758 
L 110.981818 289.725357 
L 111.904132 289.801853 
L 112.826446 289.716767 
L 113.74876 289.945426 
L 114.671074 289.89062 
L 116.515702 289.959456 
L 120.204959 289.943768 
L 121.127273 290.107053 
L 122.049587 289.898698 
L 122.971901 290.152391 
L 123.894215 290.127759 
L 124.816529 290.417374 
L 130.350413 289.633113 
L 131.272727 289.949787 
L 134.039669 290.131763 
L 134.961983 289.955023 
L 136.806612 290.114806 
L 137.728926 290.077316 
L 139.573554 290.144572 
L 140.495868 290.085824 
L 141.418182 289.773631 
L 142.340496 289.582322 
L 143.26281 289.637216 
L 145.107438 289.961618 
L 146.029752 289.872936 
L 146.952066 290.030107 
L 147.87438 290.419365 
L 148.796694 290.374491 
L 150.641322 290.528453 
L 152.48595 290.143484 
L 153.408264 290.279945 
L 154.330579 290.159365 
L 155.252893 290.183625 
L 156.175207 290.396407 
L 159.864463 290.219954 
L 162.631405 290.128111 
L 163.553719 290.26321 
L 167.242975 289.837847 
L 169.087603 289.57954 
L 170.009917 289.859471 
L 170.932231 289.994803 
L 171.854545 289.951804 
L 172.77686 289.795491 
L 174.621488 289.982534 
L 175.543802 290.095425 
L 176.466116 289.812456 
L 178.310744 289.738466 
L 179.233058 290.056998 
L 181.077686 289.694925 
L 182.922314 290.132117 
L 183.844628 289.978201 
L 185.689256 290.06207 
L 186.61157 289.842981 
L 187.533884 290.164585 
L 188.456198 290.157612 
L 190.300826 289.81066 
L 191.22314 290.046749 
L 192.145455 289.830388 
L 193.067769 289.978281 
L 198.601653 289.891096 
L 200.446281 289.436125 
L 203.213223 289.673783 
L 205.057851 289.485974 
L 205.980165 289.089616 
L 207.824793 288.795133 
L 209.669421 289.264131 
L 210.591736 289.687285 
L 211.51405 289.51305 
L 212.436364 289.22516 
L 213.358678 289.321366 
L 214.280992 289.125239 
L 215.203306 289.069264 
L 216.12562 289.462541 
L 217.047934 289.286761 
L 217.970248 289.353304 
L 218.892562 289.024626 
L 219.814876 289.08359 
L 220.73719 289.324806 
L 222.581818 289.017025 
L 223.504132 289.398953 
L 225.34876 289.377033 
L 226.271074 290.013316 
L 227.193388 289.86717 
L 228.115702 289.353739 
L 229.038017 289.586274 
L 229.960331 288.463531 
L 231.804959 288.877087 
L 232.727273 288.548594 
L 233.649587 288.648734 
L 234.571901 289.32454 
L 235.494215 289.361351 
L 236.416529 289.806942 
L 238.261157 288.838264 
L 239.183471 288.676387 
L 241.028099 288.593251 
L 241.950413 288.698887 
L 242.872727 288.129492 
L 243.795041 288.367655 
L 244.717355 288.184136 
L 245.639669 288.996323 
L 246.561983 289.141392 
L 247.484298 288.957573 
L 248.406612 288.492789 
L 249.328926 288.341488 
L 250.25124 288.458674 
L 251.173554 288.958029 
L 253.018182 288.751743 
L 253.940496 289.073726 
L 254.86281 289.033661 
L 255.785124 289.239636 
L 256.707438 289.114544 
L 257.629752 288.669611 
L 258.552066 289.057148 
L 259.47438 288.728328 
L 260.396694 288.140257 
L 261.319008 288.665568 
L 262.241322 288.071825 
L 263.163636 288.403114 
L 264.08595 288.616195 
L 265.008264 288.525057 
L 265.930579 288.112407 
L 266.852893 288.655447 
L 267.775207 288.946706 
L 268.697521 288.583835 
L 269.619835 289.104601 
L 270.542149 289.225904 
L 272.386777 289.026849 
L 274.231405 288.465786 
L 275.153719 287.738462 
L 276.076033 288.860553 
L 276.998347 289.737462 
L 277.920661 290.373053 
L 278.842975 290.025899 
L 279.765289 289.237055 
L 280.687603 289.250739 
L 281.609917 289.144506 
L 282.532231 287.602463 
L 284.37686 288.423662 
L 285.299174 288.514404 
L 286.221488 288.990463 
L 288.98843 290.029132 
L 289.910744 290.778544 
L 290.833058 290.544975 
L 291.755372 288.068626 
L 292.677686 287.929654 
L 293.6 288.408134 
L 294.522314 288.591844 
L 295.444628 286.795205 
L 296.366942 287.767674 
L 297.289256 287.225944 
L 298.21157 287.523923 
L 299.133884 287.481684 
L 300.056198 286.116242 
L 300.978512 285.8808 
L 301.900826 285.47763 
L 302.82314 286.756105 
L 303.745455 287.508864 
L 304.667769 288.554615 
L 305.590083 287.932212 
L 306.512397 288.505412 
L 307.434711 289.424874 
L 308.357025 289.3151 
L 310.201653 290.205609 
L 311.123967 289.423018 
L 312.046281 288.900604 
L 312.968595 287.842875 
L 313.890909 288.758955 
L 314.813223 289.151776 
L 315.735537 287.40117 
L 316.657851 285.326518 
L 317.580165 286.979762 
L 318.502479 286.483237 
L 319.424793 288.185563 
L 320.347107 288.28981 
L 321.269421 287.732506 
L 322.191736 287.996071 
L 324.036364 289.666437 
L 324.958678 288.299484 
L 325.880992 289.35668 
L 326.803306 290.10799 
L 327.72562 290.062829 
L 328.647934 288.870028 
L 329.570248 288.619532 
L 330.492562 289.170891 
L 332.33719 290.854796 
L 333.259504 291.052966 
L 334.181818 290.139249 
L 335.104132 290.538215 
L 336.026446 291.224515 
L 336.94876 291.659146 
L 337.871074 291.952189 
L 338.793388 291.019906 
L 339.715702 290.919602 
L 340.638017 291.542506 
L 341.560331 291.264848 
L 344.327273 291.427094 
L 345.249587 291.124848 
L 346.171901 291.008771 
L 347.094215 290.005728 
L 348.016529 290.816911 
L 348.938843 290.428205 
L 349.861157 288.91885 
L 350.783471 289.109988 
L 352.628099 289.069595 
L 353.550413 288.260456 
L 354.472727 287.205134 
L 355.395041 285.46365 
L 356.317355 287.552077 
L 357.239669 286.608044 
L 358.161983 286.515673 
L 359.084298 286.783167 
L 360.006612 286.489513 
L 360.928926 285.66118 
L 361.85124 284.081573 
L 362.773554 286.364811 
L 363.695868 286.734361 
L 365.540496 288.381004 
L 367.385124 288.882577 
L 368.307438 289.46828 
L 369.229752 289.77111 
L 370.152066 288.833355 
L 371.07438 289.578873 
L 371.996694 285.981186 
L 372.919008 285.339768 
L 373.841322 286.249002 
L 375.68595 288.978294 
L 376.608264 288.186557 
L 377.530579 287.988124 
L 378.452893 283.260563 
L 379.375207 282.680336 
L 380.297521 284.072455 
L 381.219835 286.351304 
L 382.142149 286.736003 
L 383.986777 288.432864 
L 384.909091 288.935709 
L 385.831405 289.294347 
L 386.753719 289.35983 
L 387.676033 289.724679 
L 388.598347 289.965987 
L 389.520661 288.799635 
L 390.442975 289.255575 
L 391.365289 289.435488 
L 392.287603 289.037583 
L 393.209917 288.8631 
L 394.132231 288.16879 
L 395.054545 288.509649 
L 395.97686 288.238632 
L 396.899174 287.1007 
L 397.821488 287.413717 
L 398.743802 288.040552 
L 400.58843 288.640967 
L 401.510744 286.593088 
L 402.433058 287.866862 
L 403.355372 288.390936 
L 404.277686 287.419445 
L 405.2 288.414429 
L 406.122314 288.152724 
L 407.044628 288.691759 
L 407.966942 288.848018 
L 408.889256 289.859828 
L 409.81157 289.335026 
L 410.733884 289.344307 
L 411.656198 289.517063 
L 412.578512 288.831908 
L 413.500826 289.456284 
L 414.42314 289.102278 
L 415.345455 289.864923 
L 416.267769 290.006621 
L 418.112397 288.423301 
L 419.034711 286.7105 
L 420.879339 287.654156 
L 421.801653 286.746075 
L 422.723967 286.887678 
L 423.646281 287.789111 
L 424.568595 288.871642 
L 425.490909 289.433055 
L 430.102479 290.804392 
L 431.024793 290.3955 
L 431.947107 290.770495 
L 432.869421 290.429936 
L 433.791736 290.443236 
L 434.71405 291.082485 
L 435.636364 291.351936 
L 436.558678 291.118397 
L 437.480992 291.681558 
L 438.403306 291.917944 
L 439.32562 291.724567 
L 440.247934 291.885251 
L 441.170248 291.543909 
L 442.092562 291.529174 
L 443.014876 291.274019 
L 444.859504 291.45454 
L 445.781818 291.523701 
L 446.704132 290.386882 
L 448.54876 289.077692 
L 449.471074 289.941056 
L 450.393388 290.258873 
L 451.315702 290.032738 
L 452.238017 289.604495 
L 453.160331 288.97784 
L 454.082645 289.958727 
L 455.927273 290.869054 
L 457.771901 291.09478 
L 458.694215 290.575344 
L 459.616529 289.683674 
L 460.538843 290.074774 
L 461.461157 288.667002 
L 462.383471 288.803653 
L 463.305785 290.004483 
L 464.228099 289.152944 
L 465.150413 289.898393 
L 466.072727 289.482965 
L 466.995041 290.389355 
L 467.917355 289.794011 
L 470.684298 290.355291 
L 471.606612 290.8605 
L 472.528926 290.419101 
L 473.45124 290.506748 
L 475.295868 291.592976 
L 476.218182 291.344061 
L 477.140496 290.475165 
L 478.06281 290.474522 
L 478.985124 290.1047 
L 479.907438 290.215808 
L 480.829752 289.896352 
L 481.752066 289.939745 
L 482.67438 288.843974 
L 483.596694 288.112298 
L 484.519008 288.932916 
L 485.441322 289.434202 
L 486.363636 287.556916 
L 487.28595 288.627831 
L 488.208264 289.49672 
L 489.130579 289.996204 
L 490.052893 289.118163 
L 490.975207 289.598671 
L 491.897521 288.905519 
L 492.819835 289.61937 
L 493.742149 289.698771 
L 494.664463 289.540515 
L 495.586777 288.573964 
L 496.509091 289.603341 
L 496.509091 289.603341 
" clip-path="url(#pc52708296e)" style="fill: none; stroke: #2ca02c; stroke-width: 1.5; stroke-linecap: square"/>
   </g>
   <g id="line2d_22">
    <path d="M 90.690909 160.434025 
L 91.613223 161.92149 
L 92.535537 159.570988 
L 94.380165 164.743352 
L 95.302479 160.431048 
L 96.224793 159.295782 
L 97.147107 152.62208 
L 98.069421 149.677404 
L 98.991736 147.238128 
L 99.91405 150.147795 
L 100.836364 147.598902 
L 101.758678 152.173653 
L 102.680992 149.982963 
L 103.603306 151.278632 
L 104.52562 147.135569 
L 105.447934 146.914803 
L 106.370248 142.776149 
L 107.292562 144.640698 
L 108.214876 141.3138 
L 109.13719 151.016128 
L 110.059504 157.375839 
L 110.981818 157.258589 
L 111.904132 155.683439 
L 112.826446 151.935505 
L 113.74876 154.145894 
L 114.671074 153.462454 
L 115.593388 156.504503 
L 116.515702 156.924105 
L 117.438017 156.656169 
L 118.360331 155.941199 
L 120.204959 153.563681 
L 122.049587 159.069394 
L 122.971901 166.519921 
L 123.894215 167.010455 
L 124.816529 168.701251 
L 126.661157 172.724989 
L 127.583471 168.433555 
L 128.505785 162.209137 
L 129.428099 161.899776 
L 130.350413 171.78891 
L 131.272727 171.987739 
L 132.195041 168.672552 
L 134.039669 167.043963 
L 134.961983 168.151326 
L 135.884298 168.334104 
L 136.806612 165.222019 
L 137.728926 164.507993 
L 138.65124 169.108291 
L 139.573554 169.304772 
L 140.495868 167.813852 
L 141.418182 166.878671 
L 143.26281 163.41144 
L 144.185124 164.712806 
L 145.107438 164.48796 
L 146.029752 163.117399 
L 146.952066 163.631062 
L 147.87438 167.810576 
L 148.796694 173.416767 
L 149.719008 181.775462 
L 150.641322 182.691341 
L 151.563636 181.36263 
L 152.48595 188.052198 
L 153.408264 187.702698 
L 154.330579 186.315871 
L 155.252893 188.315135 
L 156.175207 187.35939 
L 157.097521 184.715742 
L 158.019835 178.134505 
L 158.942149 180.965941 
L 159.864463 178.186807 
L 160.786777 171.924505 
L 161.709091 175.955518 
L 162.631405 172.548332 
L 163.553719 176.73936 
L 164.476033 172.607297 
L 165.398347 174.246781 
L 166.320661 169.876519 
L 167.242975 167.361726 
L 168.165289 168.198066 
L 169.087603 169.272763 
L 170.009917 165.280946 
L 170.932231 167.184315 
L 171.854545 162.669862 
L 172.77686 163.364936 
L 173.699174 153.990606 
L 174.621488 162.487409 
L 175.543802 165.011292 
L 176.466116 161.536203 
L 177.38843 159.509078 
L 178.310744 160.152166 
L 179.233058 157.357587 
L 180.155372 151.368559 
L 181.077686 159.999497 
L 182 163.044883 
L 182.922314 163.306465 
L 183.844628 165.693551 
L 184.766942 158.339591 
L 185.689256 161.690666 
L 186.61157 165.886024 
L 187.533884 162.76742 
L 188.456198 163.397814 
L 189.378512 162.175896 
L 190.300826 159.509507 
L 191.22314 157.690007 
L 192.145455 158.069005 
L 193.067769 153.997832 
L 193.990083 139.722558 
L 194.912397 145.787318 
L 195.834711 146.753183 
L 196.757025 146.150468 
L 197.679339 144.385222 
L 198.601653 139.842435 
L 199.523967 143.815338 
L 200.446281 145.500284 
L 201.368595 144.723691 
L 202.290909 152.042237 
L 203.213223 147.376297 
L 204.135537 154.251035 
L 205.057851 151.545465 
L 205.980165 143.626042 
L 206.902479 142.78915 
L 207.824793 135.450796 
L 208.747107 130.932306 
L 209.669421 122.998853 
L 210.591736 127.397106 
L 211.51405 130.592765 
L 212.436364 129.766913 
L 213.358678 123.37644 
L 215.203306 116.804356 
L 216.12562 116.791983 
L 217.047934 120.665152 
L 217.970248 122.237445 
L 218.892562 122.853578 
L 219.814876 113.522385 
L 220.73719 111.280932 
L 221.659504 115.328527 
L 222.581818 109.068294 
L 223.504132 99.159294 
L 224.426446 93.04198 
L 225.34876 92.835151 
L 226.271074 95.832017 
L 227.193388 86.90079 
L 228.115702 80.606365 
L 229.038017 89.170952 
L 229.960331 98.998322 
L 230.882645 94.892709 
L 231.804959 92.661957 
L 232.727273 89.36046 
L 233.649587 81.68091 
L 234.571901 76.835816 
L 235.494215 77.430717 
L 236.416529 77.477108 
L 237.338843 77.351943 
L 238.261157 76.305419 
L 239.183471 75.039186 
L 240.105785 81.446916 
L 241.028099 80.898629 
L 241.950413 86.509228 
L 242.872727 91.221302 
L 243.795041 83.474982 
L 244.717355 90.3363 
L 245.639669 86.399734 
L 246.561983 85.500909 
L 247.484298 90.389249 
L 248.406612 98.498788 
L 249.328926 95.159201 
L 250.25124 92.908054 
L 251.173554 95.442881 
L 252.095868 90.517907 
L 253.018182 90.64463 
L 253.940496 88.976297 
L 254.86281 89.283297 
L 255.785124 90.832063 
L 256.707438 94.324671 
L 257.629752 104.382772 
L 258.552066 107.790105 
L 259.47438 103.582968 
L 260.396694 109.595045 
L 261.319008 112.628352 
L 262.241322 122.043754 
L 263.163636 120.98383 
L 264.08595 125.151352 
L 265.008264 120.259974 
L 265.930579 123.432903 
L 266.852893 127.396047 
L 267.775207 126.102831 
L 268.697521 132.153897 
L 269.619835 135.207561 
L 270.542149 130.930233 
L 271.464463 133.633243 
L 274.231405 130.664428 
L 275.153719 122.84676 
L 276.076033 130.370139 
L 276.998347 133.313591 
L 277.920661 131.947518 
L 278.842975 137.064998 
L 279.765289 132.454362 
L 280.687603 130.131392 
L 281.609917 130.783044 
L 282.532231 126.583463 
L 283.454545 132.360974 
L 284.37686 126.669329 
L 285.299174 128.27975 
L 286.221488 123.056966 
L 287.143802 128.338926 
L 288.066116 115.712683 
L 288.98843 109.514885 
L 289.910744 105.262493 
L 290.833058 103.499195 
L 291.755372 105.008176 
L 292.677686 112.797536 
L 293.6 111.545512 
L 294.522314 113.901338 
L 295.444628 110.154149 
L 296.366942 110.705512 
L 297.289256 115.142785 
L 298.21157 115.956305 
L 299.133884 112.672854 
L 300.056198 114.073255 
L 300.978512 111.870216 
L 301.900826 108.83787 
L 302.82314 110.528933 
L 303.745455 108.213086 
L 304.667769 104.818672 
L 306.512397 102.337868 
L 307.434711 101.259682 
L 308.357025 102.640218 
L 309.279339 98.039293 
L 310.201653 95.674648 
L 311.123967 101.102003 
L 312.046281 95.826502 
L 312.968595 84.061282 
L 313.890909 76.863578 
L 314.813223 67.063013 
L 315.735537 66.28424 
L 316.657851 68.356322 
L 317.580165 69.933923 
L 318.502479 67.475965 
L 319.424793 70.193011 
L 320.347107 66.86857 
L 321.269421 66.76017 
L 322.191736 64.836379 
L 323.11405 66.570767 
L 324.036364 63.530531 
L 324.958678 67.691301 
L 325.880992 73.930554 
L 326.803306 72.341521 
L 327.72562 68.400524 
L 328.647934 62.188306 
L 329.570248 67.184407 
L 330.492562 73.531496 
L 331.414876 75.662762 
L 332.33719 82.598039 
L 333.259504 83.722897 
L 334.181818 80.610003 
L 336.026446 73.159523 
L 336.94876 70.992484 
L 337.871074 68.282188 
L 338.793388 71.016348 
L 339.715702 67.698802 
L 340.638017 78.987148 
L 341.560331 85.737787 
L 342.482645 84.203141 
L 343.404959 86.617038 
L 344.327273 81.614643 
L 345.249587 83.411076 
L 346.171901 84.417089 
L 347.094215 92.082589 
L 348.016529 93.816351 
L 348.938843 91.427756 
L 349.861157 93.614538 
L 350.783471 88.188806 
L 351.705785 89.215671 
L 352.628099 87.668863 
L 353.550413 83.591812 
L 354.472727 85.051999 
L 355.395041 87.897259 
L 356.317355 87.96048 
L 357.239669 93.977785 
L 359.084298 73.804402 
L 360.006612 72.670202 
L 360.928926 70.033282 
L 361.85124 70.093518 
L 362.773554 72.795779 
L 363.695868 72.170763 
L 364.618182 75.259716 
L 366.46281 76.766756 
L 367.385124 77.122389 
L 368.307438 70.682953 
L 369.229752 69.544819 
L 370.152066 76.121034 
L 371.07438 68.732086 
L 371.996694 64.484869 
L 372.919008 64.045361 
L 373.841322 59.240857 
L 374.763636 65.829641 
L 375.68595 62.290538 
L 376.608264 70.334764 
L 377.530579 68.418276 
L 378.452893 71.343252 
L 379.375207 66.100911 
L 380.297521 68.16693 
L 381.219835 66.856834 
L 383.064463 76.100762 
L 383.986777 76.196181 
L 384.909091 68.686109 
L 385.831405 66.946575 
L 386.753719 68.147105 
L 387.676033 69.838172 
L 388.598347 70.50133 
L 389.520661 69.116157 
L 390.442975 72.678682 
L 391.365289 73.386906 
L 392.287603 66.754812 
L 394.132231 58.798055 
L 395.054545 57.02468 
L 395.97686 53.307104 
L 396.899174 55.184862 
L 397.821488 55.731145 
L 398.743802 53.674632 
L 399.666116 47.889974 
L 400.58843 53.1014 
L 401.510744 55.105695 
L 402.433058 49.36036 
L 403.355372 45.626366 
L 404.277686 40.660125 
L 405.2 44.819287 
L 406.122314 44.512222 
L 407.966942 54.039175 
L 408.889256 65.745056 
L 410.733884 72.592356 
L 411.656198 76.042903 
L 412.578512 75.667259 
L 413.500826 72.237442 
L 414.42314 75.361232 
L 415.345455 65.683379 
L 416.267769 62.533405 
L 417.190083 70.599041 
L 418.112397 67.80062 
L 419.034711 68.397963 
L 419.957025 64.063838 
L 420.879339 68.493397 
L 421.801653 73.901704 
L 422.723967 61.459177 
L 423.646281 66.11613 
L 424.568595 74.76221 
L 425.490909 77.354873 
L 426.413223 82.167863 
L 427.335537 90.778172 
L 428.257851 93.900736 
L 429.180165 92.327061 
L 430.102479 93.569728 
L 431.024793 98.948164 
L 431.947107 102.698117 
L 432.869421 101.901881 
L 433.791736 99.255831 
L 434.71405 103.405236 
L 435.636364 105.768314 
L 436.558678 108.883337 
L 437.480992 106.050028 
L 438.403306 105.143194 
L 439.32562 114.238595 
L 440.247934 109.525074 
L 441.170248 109.215227 
L 443.014876 110.705814 
L 443.93719 108.359269 
L 444.859504 108.460481 
L 445.781818 110.767106 
L 446.704132 106.689334 
L 447.626446 111.082812 
L 448.54876 107.042081 
L 449.471074 107.55382 
L 450.393388 104.267452 
L 451.315702 104.66656 
L 452.238017 108.135861 
L 453.160331 104.703691 
L 454.082645 108.505736 
L 455.004959 107.60829 
L 455.927273 106.231855 
L 456.849587 104.600473 
L 457.771901 103.403562 
L 458.694215 103.83792 
L 459.616529 113.214468 
L 460.538843 111.953749 
L 461.461157 112.44106 
L 462.383471 111.520469 
L 463.305785 112.682803 
L 464.228099 115.025814 
L 465.150413 113.125823 
L 466.072727 111.878128 
L 466.995041 111.458682 
L 467.917355 106.11363 
L 468.839669 114.441408 
L 469.761983 114.593329 
L 470.684298 114.000619 
L 471.606612 115.772709 
L 473.45124 109.033186 
L 474.373554 103.765748 
L 475.295868 106.316174 
L 476.218182 99.386968 
L 477.140496 98.532703 
L 478.06281 99.176801 
L 478.985124 101.834116 
L 479.907438 101.96986 
L 480.829752 101.978401 
L 481.752066 104.630514 
L 482.67438 101.996202 
L 483.596694 103.586503 
L 484.519008 103.241634 
L 485.441322 103.596744 
L 486.363636 97.097753 
L 487.28595 87.618566 
L 488.208264 81.206742 
L 489.130579 80.684491 
L 490.052893 86.141149 
L 490.975207 88.425336 
L 491.897521 92.471666 
L 492.819835 85.951818 
L 493.742149 86.761062 
L 494.664463 89.879531 
L 495.586777 85.655274 
L 496.509091 88.727903 
L 496.509091 88.727903 
" clip-path="url(#pc52708296e)" style="fill: none; stroke: #d62728; stroke-width: 1.5; stroke-linecap: square"/>
   </g>
   <g id="line2d_23">
    <path d="M 90.690909 193.186902 
L 91.613223 191.338544 
L 92.535537 190.902898 
L 93.457851 192.780518 
L 94.380165 191.705962 
L 95.302479 192.504121 
L 96.224793 190.574638 
L 97.147107 190.314601 
L 98.991736 195.000627 
L 99.91405 195.60089 
L 100.836364 192.345516 
L 101.758678 191.955744 
L 102.680992 191.009757 
L 103.603306 188.790608 
L 104.52562 191.470478 
L 106.370248 188.680829 
L 108.214876 193.216649 
L 109.13719 194.06649 
L 110.059504 192.729055 
L 110.981818 192.868176 
L 111.904132 194.352656 
L 112.826446 194.189764 
L 113.74876 191.280585 
L 114.671074 190.643737 
L 115.593388 189.683213 
L 116.515702 189.883388 
L 117.438017 188.355166 
L 118.360331 188.736545 
L 119.282645 189.265847 
L 120.204959 189.248472 
L 121.127273 187.320256 
L 122.049587 187.609086 
L 123.894215 183.652515 
L 124.816529 179.053654 
L 125.738843 180.418768 
L 126.661157 182.829842 
L 127.583471 183.998485 
L 128.505785 185.803463 
L 129.428099 186.248412 
L 130.350413 182.38631 
L 131.272727 186.297908 
L 132.195041 181.347362 
L 133.117355 182.072796 
L 134.039669 181.399497 
L 134.961983 180.918044 
L 135.884298 179.327309 
L 136.806612 180.854199 
L 137.728926 178.740644 
L 138.65124 179.983197 
L 139.573554 182.056122 
L 140.495868 185.04027 
L 141.418182 185.136661 
L 142.340496 185.458874 
L 143.26281 186.00544 
L 144.185124 187.070195 
L 145.107438 184.171875 
L 146.029752 184.538604 
L 146.952066 184.694154 
L 147.87438 181.668711 
L 148.796694 181.253983 
L 149.719008 179.444189 
L 151.563636 178.083596 
L 152.48595 174.153998 
L 153.408264 173.608615 
L 154.330579 172.807655 
L 155.252893 170.687973 
L 156.175207 172.597117 
L 157.097521 174.982303 
L 158.019835 180.501723 
L 158.942149 177.834335 
L 159.864463 177.450244 
L 160.786777 175.953558 
L 161.709091 175.171308 
L 162.631405 179.006587 
L 163.553719 182.140798 
L 164.476033 180.406364 
L 166.320661 183.591617 
L 167.242975 183.527794 
L 168.165289 181.646761 
L 170.009917 176.953986 
L 170.932231 177.130166 
L 171.854545 177.822257 
L 172.77686 181.591487 
L 173.699174 178.810313 
L 174.621488 180.09781 
L 177.38843 189.824667 
L 178.310744 188.202157 
L 179.233058 189.489342 
L 180.155372 187.311668 
L 181.077686 185.433034 
L 182 186.384422 
L 182.922314 185.942361 
L 183.844628 188.805189 
L 184.766942 187.789451 
L 185.689256 184.54869 
L 186.61157 184.652871 
L 187.533884 186.426088 
L 188.456198 185.229717 
L 189.378512 184.580854 
L 190.300826 183.716126 
L 191.22314 182.646549 
L 192.145455 183.283564 
L 193.067769 188.293547 
L 193.990083 190.79035 
L 194.912397 192.259999 
L 195.834711 188.112005 
L 196.757025 189.784895 
L 197.679339 189.948232 
L 198.601653 191.620785 
L 199.523967 193.060245 
L 201.368595 188.047046 
L 202.290909 186.477045 
L 203.213223 187.016713 
L 204.135537 185.298583 
L 205.057851 181.59534 
L 206.902479 192.221228 
L 207.824793 192.342562 
L 208.747107 189.376377 
L 209.669421 188.942947 
L 210.591736 190.514389 
L 211.51405 189.441494 
L 212.436364 192.081071 
L 213.358678 192.350418 
L 215.203306 196.987469 
L 216.12562 195.227531 
L 217.047934 195.137951 
L 217.970248 196.929042 
L 218.892562 198.166084 
L 219.814876 199.18262 
L 220.73719 198.209882 
L 221.659504 198.475144 
L 222.581818 203.328667 
L 223.504132 201.949679 
L 224.426446 202.343638 
L 225.34876 202.983162 
L 226.271074 201.623438 
L 227.193388 203.402886 
L 228.115702 206.806823 
L 229.038017 204.337413 
L 229.960331 205.397305 
L 230.882645 205.700241 
L 231.804959 203.39615 
L 232.727273 204.407375 
L 233.649587 204.254112 
L 234.571901 199.915372 
L 235.494215 200.473597 
L 236.416529 204.724382 
L 238.261157 206.543668 
L 239.183471 207.594345 
L 240.105785 209.217607 
L 241.028099 204.879547 
L 241.950413 206.514625 
L 242.872727 202.072213 
L 243.795041 204.33345 
L 244.717355 203.456807 
L 245.639669 204.765968 
L 246.561983 204.609456 
L 247.484298 207.28118 
L 248.406612 203.826109 
L 249.328926 207.020811 
L 250.25124 204.255886 
L 251.173554 199.815234 
L 253.018182 206.098526 
L 253.940496 207.07756 
L 255.785124 206.084687 
L 256.707438 206.384373 
L 257.629752 204.063729 
L 258.552066 200.454768 
L 259.47438 196.387367 
L 260.396694 198.184986 
L 261.319008 204.108083 
L 262.241322 205.876678 
L 263.163636 205.842033 
L 264.08595 198.608182 
L 265.008264 203.513931 
L 265.930579 205.721786 
L 266.852893 206.181731 
L 267.775207 199.322852 
L 268.697521 197.425953 
L 269.619835 199.918974 
L 270.542149 201.700453 
L 271.464463 200.763294 
L 272.386777 201.726794 
L 273.309091 200.072079 
L 274.231405 205.024418 
L 276.076033 205.326239 
L 276.998347 210.999419 
L 277.920661 211.53071 
L 279.765289 213.047824 
L 280.687603 211.465103 
L 281.609917 209.547908 
L 282.532231 210.403628 
L 283.454545 206.475739 
L 284.37686 208.249926 
L 285.299174 206.641365 
L 286.221488 209.411681 
L 287.143802 208.673914 
L 288.066116 210.457966 
L 288.98843 210.516346 
L 289.910744 213.909907 
L 290.833058 212.611512 
L 292.677686 214.565484 
L 293.6 215.854817 
L 294.522314 211.770066 
L 295.444628 214.990601 
L 296.366942 216.087195 
L 297.289256 211.486569 
L 298.21157 210.355519 
L 299.133884 210.901904 
L 300.056198 204.810643 
L 300.978512 202.061645 
L 301.900826 202.557219 
L 302.82314 206.720479 
L 303.745455 204.211108 
L 304.667769 205.120502 
L 305.590083 210.133248 
L 306.512397 213.690174 
L 307.434711 213.050055 
L 308.357025 210.646233 
L 309.279339 212.003492 
L 310.201653 212.888532 
L 311.123967 208.779969 
L 312.046281 206.974313 
L 312.968595 204.009606 
L 313.890909 205.37889 
L 314.813223 205.602106 
L 315.735537 204.901873 
L 316.657851 203.057044 
L 317.580165 204.00592 
L 318.502479 208.362908 
L 319.424793 211.536661 
L 320.347107 212.068066 
L 321.269421 209.85235 
L 322.191736 210.130039 
L 324.036364 212.841071 
L 324.958678 215.936303 
L 325.880992 211.539956 
L 326.803306 212.401106 
L 327.72562 207.991091 
L 328.647934 207.969154 
L 329.570248 205.250556 
L 331.414876 211.531914 
L 332.33719 213.352356 
L 333.259504 213.234122 
L 334.181818 216.421901 
L 335.104132 211.562569 
L 336.026446 215.168929 
L 336.94876 215.388801 
L 337.871074 215.185826 
L 338.793388 212.360718 
L 339.715702 213.481583 
L 340.638017 217.244611 
L 341.560331 212.078528 
L 342.482645 212.48147 
L 343.404959 212.087647 
L 344.327273 213.892389 
L 345.249587 211.290181 
L 346.171901 206.369079 
L 347.094215 209.992544 
L 348.016529 210.423176 
L 348.938843 213.463401 
L 349.861157 213.190355 
L 350.783471 214.945287 
L 351.705785 212.149543 
L 352.628099 211.196617 
L 353.550413 206.513248 
L 354.472727 204.928685 
L 355.395041 205.013863 
L 356.317355 199.154097 
L 357.239669 195.675661 
L 358.161983 199.632397 
L 359.084298 198.358871 
L 360.006612 198.488895 
L 360.928926 201.402625 
L 361.85124 201.155882 
L 362.773554 200.110898 
L 363.695868 202.602367 
L 364.618182 203.62294 
L 365.540496 200.018075 
L 366.46281 205.106101 
L 367.385124 208.209147 
L 368.307438 204.257473 
L 369.229752 205.854051 
L 370.152066 200.610324 
L 371.07438 203.326065 
L 371.996694 202.135359 
L 372.919008 200.037591 
L 373.841322 205.302473 
L 374.763636 204.120479 
L 375.68595 203.50651 
L 376.608264 203.31883 
L 377.530579 206.911169 
L 378.452893 205.111303 
L 379.375207 200.906233 
L 380.297521 203.431953 
L 381.219835 201.692253 
L 382.142149 202.133858 
L 383.064463 206.352658 
L 383.986777 201.115793 
L 384.909091 204.706083 
L 385.831405 207.077537 
L 386.753719 202.448201 
L 387.676033 200.896197 
L 388.598347 203.465529 
L 389.520661 200.696825 
L 390.442975 206.688955 
L 391.365289 205.867947 
L 392.287603 208.963599 
L 393.209917 201.052173 
L 394.132231 202.593926 
L 395.054545 199.394307 
L 395.97686 195.655489 
L 396.899174 188.319803 
L 397.821488 191.456169 
L 398.743802 192.380934 
L 399.666116 198.922767 
L 400.58843 200.061064 
L 401.510744 205.702707 
L 402.433058 205.375387 
L 403.355372 205.625801 
L 404.277686 205.678272 
L 405.2 207.984136 
L 406.122314 210.884384 
L 407.044628 205.85383 
L 407.966942 206.562734 
L 408.889256 210.246964 
L 409.81157 211.462995 
L 411.656198 212.2917 
L 412.578512 210.503667 
L 413.500826 212.470156 
L 414.42314 208.318235 
L 415.345455 201.492512 
L 416.267769 202.373334 
L 417.190083 204.255976 
L 418.112397 204.660285 
L 419.034711 203.231973 
L 419.957025 200.111206 
L 421.801653 208.431983 
L 422.723967 206.909868 
L 423.646281 209.211357 
L 424.568595 209.280617 
L 425.490909 212.918654 
L 426.413223 214.641096 
L 427.335537 212.968827 
L 428.257851 213.99164 
L 429.180165 217.763681 
L 430.102479 219.846899 
L 431.024793 218.403176 
L 431.947107 220.844217 
L 432.869421 212.423844 
L 434.71405 217.078262 
L 435.636364 218.400647 
L 436.558678 218.109361 
L 437.480992 217.992389 
L 438.403306 219.883886 
L 439.32562 218.012593 
L 440.247934 219.417781 
L 441.170248 213.281721 
L 442.092562 215.26597 
L 443.014876 215.963612 
L 443.93719 210.265882 
L 444.859504 212.229711 
L 445.781818 209.701587 
L 446.704132 211.17093 
L 447.626446 211.013569 
L 448.54876 208.973787 
L 450.393388 206.822797 
L 451.315702 204.727673 
L 452.238017 208.263034 
L 453.160331 201.154165 
L 454.082645 198.334527 
L 455.004959 205.092774 
L 455.927273 206.267282 
L 456.849587 209.562716 
L 457.771901 205.663972 
L 458.694215 209.426464 
L 459.616529 210.45925 
L 460.538843 204.277633 
L 461.461157 199.994789 
L 462.383471 194.87504 
L 463.305785 195.705085 
L 464.228099 196.799252 
L 465.150413 194.827711 
L 466.072727 197.619042 
L 466.995041 198.137084 
L 467.917355 194.41277 
L 468.839669 189.635428 
L 469.761983 196.875171 
L 470.684298 200.06554 
L 471.606612 200.695947 
L 472.528926 199.012902 
L 473.45124 196.79913 
L 474.373554 199.102415 
L 475.295868 205.765639 
L 476.218182 203.994608 
L 477.140496 203.868829 
L 478.06281 207.665465 
L 478.985124 204.560708 
L 479.907438 203.499416 
L 480.829752 202.990277 
L 481.752066 201.563716 
L 482.67438 199.378414 
L 483.596694 195.255115 
L 484.519008 194.982545 
L 485.441322 188.206913 
L 486.363636 194.310575 
L 487.28595 195.505598 
L 488.208264 195.966277 
L 489.130579 195.588199 
L 490.052893 198.784682 
L 490.975207 201.539986 
L 492.819835 204.29198 
L 493.742149 201.870875 
L 494.664463 203.647241 
L 495.586777 206.444728 
L 496.509091 202.966223 
L 496.509091 202.966223 
" clip-path="url(#pc52708296e)" style="fill: none; stroke: #9467bd; stroke-width: 1.5; stroke-linecap: square"/>
   </g>
   <g id="patch_3">
    <path d="M 70.4 305.260125 
L 70.4 28.060125 
" style="fill: none; stroke: #000000; stroke-width: 0.8; stroke-linejoin: miter; stroke-linecap: square"/>
   </g>
   <g id="patch_4">
    <path d="M 516.8 305.260125 
L 516.8 28.060125 
" style="fill: none; stroke: #000000; stroke-width: 0.8; stroke-linejoin: miter; stroke-linecap: square"/>
   </g>
   <g id="patch_5">
    <path d="M 70.4 305.260125 
L 516.8 305.260125 
" style="fill: none; stroke: #000000; stroke-width: 0.8; stroke-linejoin: miter; stroke-linecap: square"/>
   </g>
   <g id="patch_6">
    <path d="M 70.4 28.060125 
L 516.8 28.060125 
" style="fill: none; stroke: #000000; stroke-width: 0.8; stroke-linejoin: miter; stroke-linecap: square"/>
   </g>
   <g id="text_13">
    <!-- ML45 Meta Testing -->
    <g transform="translate(206.604313 22.060125)scale(0.216 -0.216)">
     <defs>
      <path id="STIXGeneral-Regular-4d" d="M 5530 0 
L 3738 0 
L 3738 122 
Q 4115 147 4214 265 
Q 4314 384 4314 787 
L 4314 3661 
L 2682 0 
L 2592 0 
L 979 3514 
L 979 966 
Q 979 448 1088 294 
Q 1197 141 1574 122 
L 1574 0 
L 77 0 
L 77 122 
Q 358 141 480 205 
Q 602 269 650 432 
Q 698 595 698 966 
L 698 3514 
Q 698 3878 589 3984 
Q 480 4090 90 4115 
L 90 4237 
L 1357 4237 
L 2835 1024 
L 4250 4237 
L 5523 4237 
L 5523 4115 
Q 5178 4109 5072 3993 
Q 4966 3878 4966 3520 
L 4966 717 
Q 4966 378 5072 262 
Q 5178 147 5530 122 
L 5530 0 
z
" transform="scale(0.015625)"/>
      <path id="STIXGeneral-Regular-4c" d="M 3827 1114 
L 3520 0 
L 77 0 
L 77 122 
Q 429 141 531 256 
Q 634 371 634 736 
L 634 3494 
Q 634 3872 541 3981 
Q 448 4090 77 4115 
L 77 4237 
L 1888 4237 
L 1888 4115 
Q 1498 4090 1392 3984 
Q 1286 3878 1286 3507 
L 1286 538 
Q 1286 358 1398 304 
Q 1510 250 1862 250 
L 2310 250 
Q 3085 250 3392 640 
Q 3520 813 3661 1114 
L 3827 1114 
z
" transform="scale(0.015625)"/>
     </defs>
     <use xlink:href="#STIXGeneral-Regular-4d"/>
     <use xlink:href="#STIXGeneral-Regular-4c" x="88.899994"/>
     <use xlink:href="#STIXGeneral-Regular-34" x="149.999985"/>
     <use xlink:href="#STIXGeneral-Regular-35" x="199.999969"/>
     <use xlink:href="#STIXGeneral-Regular-20" x="249.999954"/>
     <use xlink:href="#STIXGeneral-Regular-4d" x="274.999939"/>
     <use xlink:href="#STIXGeneral-Regular-65" x="363.899933"/>
     <use xlink:href="#STIXGeneral-Regular-74" x="408.299927"/>
     <use xlink:href="#STIXGeneral-Regular-61" x="436.099915"/>
     <use xlink:href="#STIXGeneral-Regular-20" x="480.499908"/>
     <use xlink:href="#STIXGeneral-Regular-54" x="505.499893"/>
     <use xlink:href="#STIXGeneral-Regular-65" x="566.599884"/>
     <use xlink:href="#STIXGeneral-Regular-73" x="610.999878"/>
     <use xlink:href="#STIXGeneral-Regular-74" x="649.899872"/>
     <use xlink:href="#STIXGeneral-Regular-69" x="677.69986"/>
     <use xlink:href="#STIXGeneral-Regular-6e" x="705.499847"/>
     <use xlink:href="#STIXGeneral-Regular-67" x="755.499832"/>
    </g>
   </g>
   <g id="legend_1">
    <g id="patch_7">
     <path d="M 76 107.87325 
L 184.093125 107.87325 
Q 186.893125 107.87325 186.893125 105.07325 
L 186.893125 33.660125 
Q 186.893125 30.860125 184.093125 30.860125 
L 76 30.860125 
Q 73.2 30.860125 73.2 33.660125 
L 73.2 105.07325 
Q 73.2 107.87325 76 107.87325 
z
" style="fill: #ffffff; opacity: 0.8; stroke: #cccccc; stroke-linejoin: miter"/>
    </g>
    <g id="line2d_24">
     <path d="M 77.4 40.771687 
L 84.4 40.771687 
L 91.4 40.771687 
" style="fill: none; stroke: #1f77b4; stroke-width: 1.5; stroke-linecap: square"/>
    </g>
    <g id="text_14">
     <!-- bin-picking-v2 -->
     <g transform="translate(95.6 44.621687)scale(0.14 -0.14)">
      <defs>
       <path id="STIXGeneral-Regular-62" d="M 979 4358 
L 979 2406 
Q 1082 2650 1315 2797 
Q 1549 2944 1843 2944 
Q 2349 2944 2672 2541 
Q 2995 2138 2995 1536 
Q 2995 832 2566 384 
Q 2138 -64 1498 -64 
Q 1107 -64 774 67 
Q 442 198 442 358 
L 442 3622 
Q 442 3859 384 3926 
Q 326 3994 128 3994 
Q 83 3994 19 3981 
L 19 4090 
L 211 4147 
Q 864 4346 947 4371 
L 979 4358 
z
M 979 2035 
L 979 474 
Q 979 326 1161 233 
Q 1344 141 1600 141 
Q 1978 141 2195 416 
Q 2432 710 2432 1261 
Q 2432 1888 2182 2240 
Q 1971 2541 1613 2541 
Q 1357 2541 1168 2390 
Q 979 2240 979 2035 
z
" transform="scale(0.015625)"/>
       <path id="STIXGeneral-Regular-2d" d="M 1824 1242 
L 250 1242 
L 250 1645 
L 1824 1645 
L 1824 1242 
z
" transform="scale(0.015625)"/>
       <path id="STIXGeneral-Regular-63" d="M 2547 998 
L 2637 941 
Q 2362 403 2112 205 
Q 1786 -64 1376 -64 
Q 845 -64 502 336 
Q 160 736 160 1357 
Q 160 2170 698 2618 
Q 1094 2944 1562 2944 
Q 1965 2944 2256 2749 
Q 2547 2554 2547 2285 
Q 2547 2176 2457 2096 
Q 2368 2016 2246 2016 
Q 2022 2016 1939 2310 
L 1901 2451 
Q 1850 2630 1773 2694 
Q 1696 2758 1523 2758 
Q 1133 2758 893 2451 
Q 653 2144 653 1645 
Q 653 1094 928 745 
Q 1203 397 1645 397 
Q 1920 397 2118 528 
Q 2317 659 2547 998 
z
" transform="scale(0.015625)"/>
       <path id="STIXGeneral-Regular-6b" d="M 3232 0 
L 1837 0 
L 1837 96 
L 1958 96 
Q 2093 96 2093 192 
Q 2093 250 2022 339 
L 1062 1606 
L 1062 429 
Q 1062 262 1142 185 
Q 1222 109 1414 102 
L 1542 96 
L 1542 0 
L 45 0 
L 45 96 
Q 390 154 457 214 
Q 525 275 525 525 
L 525 3610 
Q 525 3840 467 3920 
Q 410 4000 250 4000 
Q 211 4000 45 3987 
L 45 4090 
L 237 4141 
Q 621 4243 1037 4371 
L 1062 4358 
L 1062 1670 
L 1939 2451 
Q 2086 2586 2086 2675 
Q 2086 2739 2019 2761 
Q 1952 2784 1766 2790 
L 1766 2880 
L 3072 2880 
L 3072 2784 
Q 2752 2784 2505 2646 
Q 2259 2509 1690 1978 
L 1504 1805 
L 2483 563 
Q 2829 122 3232 96 
L 3232 0 
z
" transform="scale(0.015625)"/>
      </defs>
      <use xlink:href="#STIXGeneral-Regular-62"/>
      <use xlink:href="#STIXGeneral-Regular-69" x="49.999985"/>
      <use xlink:href="#STIXGeneral-Regular-6e" x="77.799973"/>
      <use xlink:href="#STIXGeneral-Regular-2d" x="127.799957"/>
      <use xlink:href="#STIXGeneral-Regular-70" x="161.099945"/>
      <use xlink:href="#STIXGeneral-Regular-69" x="211.09993"/>
      <use xlink:href="#STIXGeneral-Regular-63" x="238.899918"/>
      <use xlink:href="#STIXGeneral-Regular-6b" x="283.299911"/>
      <use xlink:href="#STIXGeneral-Regular-69" x="333.299896"/>
      <use xlink:href="#STIXGeneral-Regular-6e" x="361.099884"/>
      <use xlink:href="#STIXGeneral-Regular-67" x="411.099869"/>
      <use xlink:href="#STIXGeneral-Regular-2d" x="461.099854"/>
      <use xlink:href="#STIXGeneral-Regular-76" x="494.399841"/>
      <use xlink:href="#STIXGeneral-Regular-32" x="544.399826"/>
     </g>
    </g>
    <g id="line2d_25">
     <path d="M 77.4 54.784812 
L 84.4 54.784812 
L 91.4 54.784812 
" style="fill: none; stroke: #ff7f0e; stroke-width: 1.5; stroke-linecap: square"/>
    </g>
    <g id="text_15">
     <!-- box-close-v2 -->
     <g transform="translate(95.6 58.634812)scale(0.14 -0.14)">
      <defs>
       <path id="STIXGeneral-Regular-78" d="M 3066 0 
L 1779 0 
L 1779 96 
Q 1939 109 1987 137 
Q 2035 166 2035 250 
Q 2035 307 1997 365 
L 1414 1261 
L 909 474 
Q 781 275 781 211 
Q 781 96 1037 96 
L 1037 0 
L 109 0 
L 109 96 
Q 269 109 355 169 
Q 442 230 576 422 
L 1306 1478 
L 704 2400 
Q 557 2624 454 2704 
Q 352 2784 211 2784 
L 154 2784 
L 154 2880 
L 1478 2880 
L 1478 2784 
Q 1203 2778 1203 2643 
Q 1203 2509 1498 2074 
Q 1581 1958 1587 1946 
Q 1619 1990 1779 2227 
Q 1811 2285 1856 2349 
Q 1901 2413 1923 2451 
Q 1946 2490 1971 2528 
Q 1997 2566 2006 2595 
Q 2016 2624 2016 2643 
Q 2016 2765 1760 2784 
L 1760 2880 
L 2771 2880 
L 2771 2784 
Q 2445 2771 2253 2502 
L 1722 1734 
L 2541 480 
Q 2790 96 3066 96 
L 3066 0 
z
" transform="scale(0.015625)"/>
       <path id="STIXGeneral-Regular-6c" d="M 1645 0 
L 134 0 
L 134 96 
Q 435 122 531 221 
Q 627 320 627 589 
L 627 3590 
Q 627 3821 569 3910 
Q 512 4000 358 4000 
Q 224 4000 122 3987 
L 122 4090 
Q 730 4237 1133 4371 
L 1165 4346 
L 1165 557 
Q 1165 288 1254 201 
Q 1344 115 1645 96 
L 1645 0 
z
" transform="scale(0.015625)"/>
      </defs>
      <use xlink:href="#STIXGeneral-Regular-62"/>
      <use xlink:href="#STIXGeneral-Regular-6f" x="49.999985"/>
      <use xlink:href="#STIXGeneral-Regular-78" x="99.999969"/>
      <use xlink:href="#STIXGeneral-Regular-2d" x="149.999954"/>
      <use xlink:href="#STIXGeneral-Regular-63" x="183.299942"/>
      <use xlink:href="#STIXGeneral-Regular-6c" x="227.699936"/>
      <use xlink:href="#STIXGeneral-Regular-6f" x="255.499924"/>
      <use xlink:href="#STIXGeneral-Regular-73" x="305.499908"/>
      <use xlink:href="#STIXGeneral-Regular-65" x="344.399902"/>
      <use xlink:href="#STIXGeneral-Regular-2d" x="388.799896"/>
      <use xlink:href="#STIXGeneral-Regular-76" x="422.099884"/>
      <use xlink:href="#STIXGeneral-Regular-32" x="472.099869"/>
     </g>
    </g>
    <g id="line2d_26">
     <path d="M 77.4 68.784812 
L 84.4 68.784812 
L 91.4 68.784812 
" style="fill: none; stroke: #2ca02c; stroke-width: 1.5; stroke-linecap: square"/>
    </g>
    <g id="text_16">
     <!-- hand-insert-v2 -->
     <g transform="translate(95.6 72.634812)scale(0.14 -0.14)">
      <defs>
       <path id="STIXGeneral-Regular-68" d="M 3117 0 
L 1760 0 
L 1760 96 
Q 2042 128 2118 224 
Q 2195 320 2195 653 
L 2195 1920 
Q 2195 2598 1722 2598 
Q 1530 2598 1370 2508 
Q 1210 2419 1005 2195 
L 1005 653 
Q 1005 320 1081 224 
Q 1158 128 1440 96 
L 1440 0 
L 58 0 
L 58 96 
Q 333 134 400 224 
Q 467 314 467 653 
L 467 3667 
Q 467 3872 406 3933 
Q 346 3994 141 3994 
Q 83 3994 64 3987 
L 64 4090 
L 237 4141 
Q 730 4288 973 4371 
L 1005 4352 
L 1005 2406 
Q 1229 2694 1446 2819 
Q 1664 2944 1946 2944 
Q 2733 2944 2733 1926 
L 2733 653 
Q 2733 320 2793 233 
Q 2854 147 3117 96 
L 3117 0 
z
" transform="scale(0.015625)"/>
       <path id="STIXGeneral-Regular-64" d="M 3142 269 
L 2202 -64 
L 2176 -45 
L 2176 365 
Q 1869 -64 1357 -64 
Q 826 -64 499 317 
Q 173 698 173 1312 
Q 173 1990 563 2467 
Q 954 2944 1504 2944 
Q 1850 2944 2176 2669 
L 2176 3667 
Q 2176 3866 2118 3930 
Q 2061 3994 1882 3994 
Q 1792 3994 1741 3987 
L 1741 4090 
Q 2323 4243 2682 4371 
L 2714 4358 
L 2714 730 
Q 2714 506 2768 435 
Q 2822 365 2995 365 
Q 3034 365 3142 371 
L 3142 269 
z
M 2176 653 
L 2176 2125 
Q 2176 2381 1981 2573 
Q 1786 2765 1523 2765 
Q 1158 2765 940 2438 
Q 723 2112 723 1568 
Q 723 979 963 624 
Q 1203 269 1606 269 
Q 1907 269 2080 474 
Q 2176 582 2176 653 
z
" transform="scale(0.015625)"/>
      </defs>
      <use xlink:href="#STIXGeneral-Regular-68"/>
      <use xlink:href="#STIXGeneral-Regular-61" x="49.999985"/>
      <use xlink:href="#STIXGeneral-Regular-6e" x="94.399979"/>
      <use xlink:href="#STIXGeneral-Regular-64" x="144.399963"/>
      <use xlink:href="#STIXGeneral-Regular-2d" x="194.399948"/>
      <use xlink:href="#STIXGeneral-Regular-69" x="227.699936"/>
      <use xlink:href="#STIXGeneral-Regular-6e" x="255.499924"/>
      <use xlink:href="#STIXGeneral-Regular-73" x="305.499908"/>
      <use xlink:href="#STIXGeneral-Regular-65" x="344.399902"/>
      <use xlink:href="#STIXGeneral-Regular-72" x="388.799896"/>
      <use xlink:href="#STIXGeneral-Regular-74" x="422.099884"/>
      <use xlink:href="#STIXGeneral-Regular-2d" x="449.899872"/>
      <use xlink:href="#STIXGeneral-Regular-76" x="483.19986"/>
      <use xlink:href="#STIXGeneral-Regular-32" x="533.199844"/>
     </g>
    </g>
    <g id="line2d_27">
     <path d="M 77.4 82.784812 
L 84.4 82.784812 
L 91.4 82.784812 
" style="fill: none; stroke: #d62728; stroke-width: 1.5; stroke-linecap: square"/>
    </g>
    <g id="text_17">
     <!-- door-lock-v2 -->
     <g transform="translate(95.6 86.634812)scale(0.14 -0.14)">
      <use xlink:href="#STIXGeneral-Regular-64"/>
      <use xlink:href="#STIXGeneral-Regular-6f" x="49.999985"/>
      <use xlink:href="#STIXGeneral-Regular-6f" x="99.999969"/>
      <use xlink:href="#STIXGeneral-Regular-72" x="149.999954"/>
      <use xlink:href="#STIXGeneral-Regular-2d" x="183.299942"/>
      <use xlink:href="#STIXGeneral-Regular-6c" x="216.59993"/>
      <use xlink:href="#STIXGeneral-Regular-6f" x="244.399918"/>
      <use xlink:href="#STIXGeneral-Regular-63" x="294.399902"/>
      <use xlink:href="#STIXGeneral-Regular-6b" x="338.799896"/>
      <use xlink:href="#STIXGeneral-Regular-2d" x="388.799881"/>
      <use xlink:href="#STIXGeneral-Regular-76" x="422.099869"/>
      <use xlink:href="#STIXGeneral-Regular-32" x="472.099854"/>
     </g>
    </g>
    <g id="line2d_28">
     <path d="M 77.4 96.784812 
L 84.4 96.784812 
L 91.4 96.784812 
" style="fill: none; stroke: #9467bd; stroke-width: 1.5; stroke-linecap: square"/>
    </g>
    <g id="text_18">
     <!-- door-unlock-v2 -->
     <g transform="translate(95.6 100.634812)scale(0.14 -0.14)">
      <use xlink:href="#STIXGeneral-Regular-64"/>
      <use xlink:href="#STIXGeneral-Regular-6f" x="49.999985"/>
      <use xlink:href="#STIXGeneral-Regular-6f" x="99.999969"/>
      <use xlink:href="#STIXGeneral-Regular-72" x="149.999954"/>
      <use xlink:href="#STIXGeneral-Regular-2d" x="183.299942"/>
      <use xlink:href="#STIXGeneral-Regular-75" x="216.59993"/>
      <use xlink:href="#STIXGeneral-Regular-6e" x="266.599915"/>
      <use xlink:href="#STIXGeneral-Regular-6c" x="316.599899"/>
      <use xlink:href="#STIXGeneral-Regular-6f" x="344.399887"/>
      <use xlink:href="#STIXGeneral-Regular-63" x="394.399872"/>
      <use xlink:href="#STIXGeneral-Regular-6b" x="438.799866"/>
      <use xlink:href="#STIXGeneral-Regular-2d" x="488.79985"/>
      <use xlink:href="#STIXGeneral-Regular-76" x="522.099838"/>
      <use xlink:href="#STIXGeneral-Regular-32" x="572.099823"/>
     </g>
    </g>
   </g>
  </g>
 </g>
 <defs>
  <clipPath id="pc52708296e">
   <rect x="70.4" y="28.060125" width="446.4" height="277.2"/>
  </clipPath>
 </defs>
</svg>
