<?xml version="1.0" encoding="utf-8" standalone="no"?>
<!DOCTYPE svg PUBLIC "-//W3C//DTD SVG 1.1//EN"
  "http://www.w3.org/Graphics/SVG/1.1/DTD/svg11.dtd">
<svg xmlns:xlink="http://www.w3.org/1999/xlink" width="524pt" height="355.877pt" viewBox="0 0 524 355.877" xmlns="http://www.w3.org/2000/svg" version="1.1">
 <metadata>
  <rdf:RDF xmlns:dc="http://purl.org/dc/elements/1.1/" xmlns:cc="http://creativecommons.org/ns#" xmlns:rdf="http://www.w3.org/1999/02/22-rdf-syntax-ns#">
   <cc:Work>
    <dc:type rdf:resource="http://purl.org/dc/dcmitype/StillImage"/>
    <dc:date>2021-12-11T16:37:01.184649</dc:date>
    <dc:format>image/svg+xml</dc:format>
    <dc:creator>
     <cc:Agent>
      <dc:title>Matplotlib v3.5.0, https://matplotlib.org/</dc:title>
     </cc:Agent>
    </dc:creator>
   </cc:Work>
  </rdf:RDF>
 </metadata>
 <defs>
  <style type="text/css">*{stroke-linejoin: round; stroke-linecap: butt}</style>
 </defs>
 <g id="figure_1">
  <g id="patch_1">
   <path d="M 0 355.877 
L 524 355.877 
L 524 0 
L 0 0 
z
" style="fill: #ffffff"/>
  </g>
  <g id="axes_1">
   <g id="patch_2">
    <path d="M 70.4 305.260125 
L 516.8 305.260125 
L 516.8 28.060125 
L 70.4 28.060125 
z
" style="fill: #ffffff"/>
   </g>
   <g id="matplotlib.axis_1">
    <g id="xtick_1">
     <g id="line2d_1">
      <path d="M 89.086885 305.260125 
L 89.086885 28.060125 
" clip-path="url(#p50ab589747)" style="fill: none; stroke: #b0b0b0; stroke-width: 0.8; stroke-linecap: square"/>
     </g>
     <g id="line2d_2">
      <defs>
       <path id="mdbbbda7aaf" d="M 0 0 
L 0 3.5 
" style="stroke: #000000; stroke-width: 0.8"/>
      </defs>
      <g>
       <use xlink:href="#mdbbbda7aaf" x="89.086885" y="305.260125" style="stroke: #000000; stroke-width: 0.8"/>
      </g>
     </g>
     <g id="text_1">
      <!-- 0 -->
      <g transform="translate(84.586885 324.553562)scale(0.18 -0.18)">
       <defs>
        <path id="STIXGeneral-Regular-30" d="M 3046 2112 
Q 3046 1683 2963 1302 
Q 2880 922 2717 602 
Q 2554 282 2266 96 
Q 1978 -90 1600 -90 
Q 1210 -90 915 108 
Q 621 307 461 640 
Q 301 973 227 1350 
Q 154 1728 154 2150 
Q 154 2746 301 3222 
Q 448 3699 790 4012 
Q 1133 4326 1626 4326 
Q 2253 4326 2649 3712 
Q 3046 3098 3046 2112 
z
M 2432 2080 
Q 2432 3091 2217 3625 
Q 2003 4160 1587 4160 
Q 1190 4160 979 3622 
Q 768 3085 768 2106 
Q 768 1120 979 598 
Q 1190 77 1600 77 
Q 2003 77 2217 598 
Q 2432 1120 2432 2080 
z
" transform="scale(0.015625)"/>
       </defs>
       <use xlink:href="#STIXGeneral-Regular-30"/>
      </g>
     </g>
    </g>
    <g id="xtick_2">
     <g id="line2d_3">
      <path d="M 148.495197 305.260125 
L 148.495197 28.060125 
" clip-path="url(#p50ab589747)" style="fill: none; stroke: #b0b0b0; stroke-width: 0.8; stroke-linecap: square"/>
     </g>
     <g id="line2d_4">
      <g>
       <use xlink:href="#mdbbbda7aaf" x="148.495197" y="305.260125" style="stroke: #000000; stroke-width: 0.8"/>
      </g>
     </g>
     <g id="text_2">
      <!-- 1 -->
      <g transform="translate(143.995197 324.553562)scale(0.18 -0.18)">
       <defs>
        <path id="STIXGeneral-Regular-31" d="M 2522 0 
L 755 0 
L 755 96 
Q 1107 115 1235 227 
Q 1363 339 1363 608 
L 1363 3482 
Q 1363 3795 1171 3795 
Q 1082 3795 883 3718 
L 710 3654 
L 710 3744 
L 1856 4326 
L 1914 4307 
L 1914 486 
Q 1914 275 2042 185 
Q 2170 96 2522 96 
L 2522 0 
z
" transform="scale(0.015625)"/>
       </defs>
       <use xlink:href="#STIXGeneral-Regular-31"/>
      </g>
     </g>
    </g>
    <g id="xtick_3">
     <g id="line2d_5">
      <path d="M 207.903509 305.260125 
L 207.903509 28.060125 
" clip-path="url(#p50ab589747)" style="fill: none; stroke: #b0b0b0; stroke-width: 0.8; stroke-linecap: square"/>
     </g>
     <g id="line2d_6">
      <g>
       <use xlink:href="#mdbbbda7aaf" x="207.903509" y="305.260125" style="stroke: #000000; stroke-width: 0.8"/>
      </g>
     </g>
     <g id="text_3">
      <!-- 2 -->
      <g transform="translate(203.403509 324.553562)scale(0.18 -0.18)">
       <defs>
        <path id="STIXGeneral-Regular-32" d="M 3034 877 
L 2688 0 
L 186 0 
L 186 77 
L 1325 1286 
Q 1773 1754 1965 2144 
Q 2157 2534 2157 2950 
Q 2157 3379 1920 3616 
Q 1683 3853 1267 3853 
Q 922 3853 720 3673 
Q 518 3494 326 3021 
L 192 3053 
Q 301 3648 630 3987 
Q 960 4326 1523 4326 
Q 2054 4326 2380 4006 
Q 2707 3686 2707 3200 
Q 2707 2477 1888 1613 
L 832 486 
L 2330 486 
Q 2541 486 2665 569 
Q 2790 653 2944 915 
L 3034 877 
z
" transform="scale(0.015625)"/>
       </defs>
       <use xlink:href="#STIXGeneral-Regular-32"/>
      </g>
     </g>
    </g>
    <g id="xtick_4">
     <g id="line2d_7">
      <path d="M 267.311822 305.260125 
L 267.311822 28.060125 
" clip-path="url(#p50ab589747)" style="fill: none; stroke: #b0b0b0; stroke-width: 0.8; stroke-linecap: square"/>
     </g>
     <g id="line2d_8">
      <g>
       <use xlink:href="#mdbbbda7aaf" x="267.311822" y="305.260125" style="stroke: #000000; stroke-width: 0.8"/>
      </g>
     </g>
     <g id="text_4">
      <!-- 3 -->
      <g transform="translate(262.811822 324.553562)scale(0.18 -0.18)">
       <defs>
        <path id="STIXGeneral-Regular-33" d="M 390 3264 
L 288 3290 
Q 435 3770 748 4048 
Q 1062 4326 1542 4326 
Q 1990 4326 2265 4083 
Q 2541 3840 2541 3450 
Q 2541 2925 1946 2566 
Q 2298 2413 2477 2227 
Q 2758 1914 2758 1402 
Q 2758 890 2464 506 
Q 2246 211 1840 60 
Q 1434 -90 979 -90 
Q 262 -90 262 275 
Q 262 378 339 442 
Q 416 506 525 506 
Q 685 506 915 339 
Q 1197 141 1466 141 
Q 1818 141 2058 425 
Q 2298 710 2298 1120 
Q 2298 1856 1632 2048 
Q 1434 2112 979 2112 
L 979 2202 
Q 1338 2323 1517 2432 
Q 2035 2726 2035 3290 
Q 2035 3610 1852 3776 
Q 1670 3942 1344 3942 
Q 768 3942 390 3264 
z
" transform="scale(0.015625)"/>
       </defs>
       <use xlink:href="#STIXGeneral-Regular-33"/>
      </g>
     </g>
    </g>
    <g id="xtick_5">
     <g id="line2d_9">
      <path d="M 326.720134 305.260125 
L 326.720134 28.060125 
" clip-path="url(#p50ab589747)" style="fill: none; stroke: #b0b0b0; stroke-width: 0.8; stroke-linecap: square"/>
     </g>
     <g id="line2d_10">
      <g>
       <use xlink:href="#mdbbbda7aaf" x="326.720134" y="305.260125" style="stroke: #000000; stroke-width: 0.8"/>
      </g>
     </g>
     <g id="text_5">
      <!-- 4 -->
      <g transform="translate(322.220134 324.553562)scale(0.18 -0.18)">
       <defs>
        <path id="STIXGeneral-Regular-34" d="M 3027 1069 
L 2368 1069 
L 2368 0 
L 1869 0 
L 1869 1069 
L 77 1069 
L 77 1478 
L 2086 4326 
L 2368 4326 
L 2368 1478 
L 3027 1478 
L 3027 1069 
z
M 1869 1478 
L 1869 3674 
L 333 1478 
L 1869 1478 
z
" transform="scale(0.015625)"/>
       </defs>
       <use xlink:href="#STIXGeneral-Regular-34"/>
      </g>
     </g>
    </g>
    <g id="xtick_6">
     <g id="line2d_11">
      <path d="M 386.128447 305.260125 
L 386.128447 28.060125 
" clip-path="url(#p50ab589747)" style="fill: none; stroke: #b0b0b0; stroke-width: 0.8; stroke-linecap: square"/>
     </g>
     <g id="line2d_12">
      <g>
       <use xlink:href="#mdbbbda7aaf" x="386.128447" y="305.260125" style="stroke: #000000; stroke-width: 0.8"/>
      </g>
     </g>
     <g id="text_6">
      <!-- 5 -->
      <g transform="translate(381.628447 324.553562)scale(0.18 -0.18)">
       <defs>
        <path id="STIXGeneral-Regular-35" d="M 2803 4358 
L 2573 3814 
Q 2534 3731 2400 3731 
L 1158 3731 
L 902 3187 
Q 1606 3053 1920 2896 
Q 2234 2739 2502 2368 
Q 2726 2061 2726 1555 
Q 2726 1094 2576 780 
Q 2426 467 2099 224 
Q 1664 -90 1011 -90 
Q 646 -90 422 19 
Q 198 128 198 307 
Q 198 550 486 550 
Q 717 550 960 352 
Q 1210 147 1414 147 
Q 1747 147 2012 480 
Q 2278 813 2278 1229 
Q 2278 1843 1850 2189 
Q 1293 2637 486 2637 
Q 410 2637 410 2688 
L 416 2720 
L 1114 4237 
L 2438 4237 
Q 2547 4237 2608 4269 
Q 2669 4301 2746 4403 
L 2803 4358 
z
" transform="scale(0.015625)"/>
       </defs>
       <use xlink:href="#STIXGeneral-Regular-35"/>
      </g>
     </g>
    </g>
    <g id="xtick_7">
     <g id="line2d_13">
      <path d="M 445.536759 305.260125 
L 445.536759 28.060125 
" clip-path="url(#p50ab589747)" style="fill: none; stroke: #b0b0b0; stroke-width: 0.8; stroke-linecap: square"/>
     </g>
     <g id="line2d_14">
      <g>
       <use xlink:href="#mdbbbda7aaf" x="445.536759" y="305.260125" style="stroke: #000000; stroke-width: 0.8"/>
      </g>
     </g>
     <g id="text_7">
      <!-- 6 -->
      <g transform="translate(441.036759 324.553562)scale(0.18 -0.18)">
       <defs>
        <path id="STIXGeneral-Regular-36" d="M 2854 4378 
L 2867 4275 
Q 2112 4154 1606 3664 
Q 1101 3174 973 2451 
Q 1344 2739 1786 2739 
Q 2349 2739 2672 2380 
Q 2995 2022 2995 1402 
Q 2995 774 2669 378 
Q 2291 -90 1651 -90 
Q 870 -90 518 557 
Q 218 1107 218 1786 
Q 218 2835 915 3552 
Q 1312 3962 1731 4131 
Q 2150 4301 2854 4378 
z
M 2419 1203 
Q 2419 2445 1555 2445 
Q 1235 2445 1024 2275 
Q 813 2106 813 1702 
Q 813 954 1046 522 
Q 1280 90 1722 90 
Q 2061 90 2240 394 
Q 2419 698 2419 1203 
z
" transform="scale(0.015625)"/>
       </defs>
       <use xlink:href="#STIXGeneral-Regular-36"/>
      </g>
     </g>
    </g>
    <g id="xtick_8">
     <g id="line2d_15">
      <path d="M 504.945071 305.260125 
L 504.945071 28.060125 
" clip-path="url(#p50ab589747)" style="fill: none; stroke: #b0b0b0; stroke-width: 0.8; stroke-linecap: square"/>
     </g>
     <g id="line2d_16">
      <g>
       <use xlink:href="#mdbbbda7aaf" x="504.945071" y="305.260125" style="stroke: #000000; stroke-width: 0.8"/>
      </g>
     </g>
     <g id="text_8">
      <!-- 7 -->
      <g transform="translate(500.445071 324.553562)scale(0.18 -0.18)">
       <defs>
        <path id="STIXGeneral-Regular-37" d="M 2874 4134 
L 1517 -51 
L 1101 -51 
L 2368 3763 
L 992 3763 
Q 717 3763 582 3667 
Q 448 3571 243 3238 
L 128 3296 
L 512 4237 
L 2874 4237 
L 2874 4134 
z
" transform="scale(0.015625)"/>
       </defs>
       <use xlink:href="#STIXGeneral-Regular-37"/>
      </g>
     </g>
    </g>
    <g id="text_9">
     <!-- Training Environment Steps -->
     <g transform="translate(191.604688 344.753562)scale(0.18 -0.18)">
      <defs>
       <path id="STIXGeneral-Regular-54" d="M 3795 3149 
L 3642 3149 
Q 3539 3674 3353 3821 
Q 3168 3968 2656 3968 
L 2278 3968 
L 2278 710 
Q 2278 346 2387 243 
Q 2496 141 2893 122 
L 2893 0 
L 1024 0 
L 1024 122 
Q 1427 147 1526 256 
Q 1626 365 1626 787 
L 1626 3968 
L 1242 3968 
Q 723 3968 540 3817 
Q 358 3667 262 3149 
L 109 3149 
L 154 4237 
L 3750 4237 
L 3795 3149 
z
" transform="scale(0.015625)"/>
       <path id="STIXGeneral-Regular-72" d="M 1024 2931 
L 1024 2342 
Q 1267 2688 1430 2816 
Q 1594 2944 1792 2944 
Q 1958 2944 2051 2854 
Q 2144 2765 2144 2605 
Q 2144 2470 2077 2393 
Q 2010 2317 1894 2317 
Q 1773 2317 1638 2445 
Q 1536 2541 1472 2541 
Q 1338 2541 1181 2355 
Q 1024 2170 1024 2016 
L 1024 576 
Q 1024 301 1133 205 
Q 1242 109 1568 96 
L 1568 0 
L 32 0 
L 32 96 
Q 339 154 412 224 
Q 486 294 486 538 
L 486 2138 
Q 486 2349 438 2435 
Q 390 2522 269 2522 
Q 166 2522 45 2496 
L 45 2598 
Q 448 2726 992 2944 
L 1024 2931 
z
" transform="scale(0.015625)"/>
       <path id="STIXGeneral-Regular-61" d="M 2829 422 
L 2829 243 
Q 2586 -64 2253 -64 
Q 1888 -64 1843 403 
L 1837 403 
Q 1427 -64 909 -64 
Q 608 -64 422 112 
Q 237 288 237 602 
Q 237 1050 685 1350 
Q 992 1555 1837 1869 
L 1837 2214 
Q 1837 2502 1699 2646 
Q 1562 2790 1338 2790 
Q 1146 2790 1018 2697 
Q 890 2605 890 2477 
Q 890 2419 909 2348 
Q 928 2278 928 2208 
Q 928 2112 841 2029 
Q 755 1946 634 1946 
Q 525 1946 441 2029 
Q 358 2112 358 2240 
Q 358 2547 685 2752 
Q 986 2944 1421 2944 
Q 1939 2944 2176 2656 
Q 2291 2522 2323 2384 
Q 2355 2246 2355 1946 
L 2355 723 
Q 2355 301 2554 301 
Q 2682 301 2829 422 
z
M 1837 813 
L 1837 1715 
Q 1248 1510 1018 1293 
Q 800 1094 800 800 
Q 800 557 921 432 
Q 1043 307 1242 307 
Q 1453 307 1613 410 
Q 1747 506 1792 589 
Q 1837 672 1837 813 
z
" transform="scale(0.015625)"/>
       <path id="STIXGeneral-Regular-69" d="M 1152 4045 
Q 1152 3904 1056 3811 
Q 960 3718 819 3718 
Q 685 3718 592 3811 
Q 499 3904 499 4045 
Q 499 4179 595 4275 
Q 691 4371 826 4371 
Q 966 4371 1059 4275 
Q 1152 4179 1152 4045 
z
M 1619 0 
L 102 0 
L 102 96 
Q 435 115 521 211 
Q 608 307 608 666 
L 608 2118 
Q 608 2342 563 2432 
Q 518 2522 397 2522 
Q 243 2522 128 2490 
L 128 2592 
L 1120 2944 
L 1146 2918 
L 1146 672 
Q 1146 314 1226 218 
Q 1306 122 1619 96 
L 1619 0 
z
" transform="scale(0.015625)"/>
       <path id="STIXGeneral-Regular-6e" d="M 3104 0 
L 1773 0 
L 1779 96 
Q 2016 115 2096 233 
Q 2176 352 2176 672 
L 2176 1946 
Q 2176 2592 1709 2592 
Q 1549 2592 1408 2515 
Q 1267 2438 1050 2227 
L 1050 461 
Q 1050 269 1136 192 
Q 1222 115 1466 96 
L 1466 0 
L 115 0 
L 115 96 
Q 358 115 435 214 
Q 512 314 512 602 
L 512 2157 
Q 512 2394 467 2483 
Q 422 2573 288 2573 
Q 160 2573 102 2547 
L 102 2656 
Q 550 2784 979 2944 
L 1030 2925 
L 1030 2426 
L 1037 2426 
Q 1491 2944 1958 2944 
Q 2323 2944 2518 2688 
Q 2714 2432 2714 1958 
L 2714 544 
Q 2714 288 2790 205 
Q 2867 122 3104 96 
L 3104 0 
z
" transform="scale(0.015625)"/>
       <path id="STIXGeneral-Regular-67" d="M 3008 2483 
L 2477 2483 
Q 2598 2208 2598 1946 
Q 2598 1453 2265 1203 
Q 1933 954 1600 954 
Q 1530 954 1357 973 
L 1235 986 
Q 1107 947 979 812 
Q 851 678 851 582 
Q 851 435 1350 410 
L 2176 371 
Q 2528 358 2739 172 
Q 2950 -13 2950 -314 
Q 2950 -685 2566 -986 
Q 2035 -1395 1286 -1395 
Q 826 -1395 502 -1212 
Q 179 -1030 179 -774 
Q 179 -595 320 -419 
Q 461 -243 806 6 
Q 602 102 534 172 
Q 467 243 467 346 
Q 467 531 762 787 
Q 909 915 1037 1043 
Q 717 1203 579 1401 
Q 442 1600 442 1901 
Q 442 2336 752 2640 
Q 1062 2944 1510 2944 
Q 1766 2944 2022 2848 
L 2163 2797 
Q 2349 2733 2515 2733 
L 3008 2733 
L 3008 2483 
z
M 973 2163 
L 973 2144 
Q 973 1683 1155 1398 
Q 1338 1114 1632 1114 
Q 1850 1114 1978 1270 
Q 2106 1427 2106 1690 
Q 2106 2112 1914 2464 
Q 1754 2765 1446 2765 
Q 1222 2765 1097 2605 
Q 973 2445 973 2163 
z
M 2771 -410 
Q 2771 -230 2595 -163 
Q 2419 -96 1978 -96 
Q 1344 -96 941 -13 
Q 749 -243 688 -348 
Q 627 -454 627 -563 
Q 627 -774 880 -902 
Q 1133 -1030 1555 -1030 
Q 2099 -1030 2435 -860 
Q 2771 -691 2771 -410 
z
" transform="scale(0.015625)"/>
       <path id="STIXGeneral-Regular-20" transform="scale(0.015625)"/>
       <path id="STIXGeneral-Regular-45" d="M 3821 1082 
L 3526 0 
L 77 0 
L 77 122 
Q 442 147 538 252 
Q 634 358 634 730 
L 634 3520 
Q 634 3878 534 3987 
Q 435 4096 77 4115 
L 77 4237 
L 3469 4237 
L 3494 3322 
L 3334 3322 
Q 3264 3750 3085 3872 
Q 2906 3994 2349 3994 
L 1510 3994 
Q 1370 3994 1328 3952 
Q 1286 3910 1286 3763 
L 1286 2355 
L 2253 2355 
Q 2656 2355 2787 2470 
Q 2918 2586 2976 2970 
L 3123 2970 
L 3123 1472 
L 2976 1472 
Q 2918 1875 2790 1984 
Q 2662 2093 2253 2093 
L 1286 2093 
L 1286 538 
Q 1286 346 1420 291 
Q 1555 237 1933 237 
L 2163 237 
Q 2848 237 3136 403 
Q 3424 570 3642 1082 
L 3821 1082 
z
" transform="scale(0.015625)"/>
       <path id="STIXGeneral-Regular-76" d="M 3053 2880 
L 3053 2784 
Q 2906 2771 2835 2688 
Q 2765 2605 2637 2285 
L 1818 230 
Q 1690 -90 1638 -90 
Q 1587 -90 1523 77 
Q 1510 96 1497 141 
Q 1485 186 1472 211 
L 704 2048 
Q 499 2534 403 2652 
Q 307 2771 122 2784 
L 122 2880 
L 1376 2880 
L 1376 2784 
Q 1210 2771 1146 2732 
Q 1082 2694 1082 2611 
Q 1082 2509 1139 2368 
L 1792 730 
L 2426 2387 
Q 2464 2483 2464 2579 
Q 2464 2758 2163 2784 
L 2163 2880 
L 3053 2880 
z
" transform="scale(0.015625)"/>
       <path id="STIXGeneral-Regular-6f" d="M 3008 1478 
Q 3008 806 2608 371 
Q 2208 -64 1568 -64 
Q 979 -64 582 368 
Q 186 800 186 1459 
Q 186 2125 582 2534 
Q 979 2944 1626 2944 
Q 2221 2944 2614 2537 
Q 3008 2131 3008 1478 
z
M 2432 1306 
Q 2432 2035 2112 2445 
Q 1856 2765 1504 2765 
Q 1171 2765 966 2493 
Q 762 2221 762 1747 
Q 762 928 1101 435 
Q 1318 115 1677 115 
Q 2029 115 2230 432 
Q 2432 749 2432 1306 
z
" transform="scale(0.015625)"/>
       <path id="STIXGeneral-Regular-6d" d="M 4960 0 
L 3565 0 
L 3565 96 
Q 3834 122 3907 208 
Q 3981 294 3981 576 
L 3981 1894 
Q 3981 2278 3869 2444 
Q 3757 2611 3488 2611 
Q 3264 2611 3107 2521 
Q 2950 2432 2803 2221 
L 2803 608 
Q 2803 301 2896 201 
Q 2989 102 3264 96 
L 3264 0 
L 1830 0 
L 1830 96 
Q 2112 115 2189 188 
Q 2266 262 2266 550 
L 2266 1901 
Q 2266 2611 1850 2611 
Q 1670 2611 1468 2531 
Q 1267 2451 1171 2336 
Q 1088 2240 1088 2227 
L 1088 448 
Q 1088 243 1177 176 
Q 1267 109 1523 96 
L 1523 0 
L 102 0 
L 102 96 
Q 371 102 460 195 
Q 550 288 550 563 
L 550 2150 
Q 550 2387 499 2480 
Q 448 2573 326 2573 
Q 230 2573 122 2547 
L 122 2656 
Q 557 2778 1011 2944 
L 1062 2925 
L 1062 2451 
L 1075 2451 
Q 1363 2752 1584 2848 
Q 1805 2944 2054 2944 
Q 2560 2944 2733 2406 
Q 3232 2944 3776 2944 
Q 4518 2944 4518 1792 
L 4518 493 
Q 4518 282 4582 202 
Q 4646 122 4794 109 
L 4960 96 
L 4960 0 
z
" transform="scale(0.015625)"/>
       <path id="STIXGeneral-Regular-65" d="M 2611 1050 
L 2714 1005 
Q 2330 -64 1376 -64 
Q 813 -64 486 329 
Q 160 723 160 1389 
Q 160 2074 525 2509 
Q 890 2944 1485 2944 
Q 2061 2944 2374 2502 
Q 2560 2246 2592 1773 
L 621 1773 
Q 646 1370 700 1158 
Q 755 947 915 730 
Q 1184 378 1626 378 
Q 1939 378 2153 531 
Q 2368 685 2611 1050 
z
M 634 1978 
L 1939 1978 
Q 1882 2381 1750 2547 
Q 1619 2714 1312 2714 
Q 1043 2714 864 2525 
Q 685 2336 634 1978 
z
" transform="scale(0.015625)"/>
       <path id="STIXGeneral-Regular-74" d="M 1702 493 
L 1786 422 
Q 1478 -64 1011 -64 
Q 448 -64 448 749 
L 448 2675 
L 109 2675 
Q 83 2694 83 2720 
Q 83 2771 192 2842 
Q 435 2982 813 3526 
Q 826 3546 874 3606 
Q 922 3667 941 3706 
Q 986 3706 986 3622 
L 986 2880 
L 1632 2880 
L 1632 2675 
L 986 2675 
L 986 845 
Q 986 538 1062 403 
Q 1139 269 1318 269 
Q 1510 269 1702 493 
z
" transform="scale(0.015625)"/>
       <path id="STIXGeneral-Regular-53" d="M 3002 2963 
L 2842 2963 
Q 2733 3360 2579 3565 
Q 2189 4064 1651 4064 
Q 1357 4064 1181 3894 
Q 1005 3725 1005 3456 
Q 1005 3328 1069 3206 
Q 1133 3085 1206 2998 
Q 1280 2912 1465 2784 
Q 1651 2656 1766 2589 
Q 1882 2522 2150 2362 
Q 2669 2061 2905 1763 
Q 3142 1466 3142 1107 
Q 3142 576 2771 243 
Q 2400 -90 1837 -90 
Q 1421 -90 1082 58 
Q 915 128 781 128 
Q 704 128 653 70 
Q 602 13 602 -83 
L 461 -83 
L 275 1274 
L 416 1274 
Q 845 141 1734 141 
Q 2074 141 2285 342 
Q 2496 544 2496 858 
Q 2496 1158 2310 1363 
Q 2003 1696 1235 2106 
Q 454 2522 454 3206 
Q 454 3718 768 4022 
Q 1082 4326 1568 4326 
Q 1907 4326 2240 4186 
Q 2413 4109 2522 4109 
Q 2688 4109 2726 4326 
L 2861 4326 
L 3002 2963 
z
" transform="scale(0.015625)"/>
       <path id="STIXGeneral-Regular-70" d="M 1018 2931 
L 1018 2438 
Q 1421 2944 1939 2944 
Q 2406 2944 2707 2560 
Q 3008 2176 3008 1581 
Q 3008 883 2621 409 
Q 2234 -64 1664 -64 
Q 1466 -64 1328 -6 
Q 1190 51 1018 211 
L 1018 -794 
Q 1018 -1094 1120 -1180 
Q 1222 -1267 1581 -1274 
L 1581 -1389 
L 32 -1389 
L 32 -1280 
Q 314 -1254 397 -1171 
Q 480 -1088 480 -838 
L 480 2157 
Q 480 2381 429 2451 
Q 378 2522 218 2522 
Q 115 2522 58 2515 
L 58 2618 
Q 506 2752 979 2944 
L 1018 2931 
z
M 1018 2138 
L 1018 563 
Q 1018 422 1238 281 
Q 1459 141 1683 141 
Q 2029 141 2243 467 
Q 2458 794 2458 1325 
Q 2458 1888 2243 2224 
Q 2029 2560 1670 2560 
Q 1446 2560 1232 2419 
Q 1018 2278 1018 2138 
z
" transform="scale(0.015625)"/>
       <path id="STIXGeneral-Regular-73" d="M 998 1926 
L 1664 1523 
Q 1984 1331 2105 1164 
Q 2227 998 2227 736 
Q 2227 416 1961 176 
Q 1696 -64 1331 -64 
Q 1030 -64 864 -6 
Q 691 51 570 51 
Q 461 51 416 -26 
L 333 -26 
L 333 979 
L 435 979 
Q 538 512 730 294 
Q 922 77 1248 77 
Q 1485 77 1632 211 
Q 1779 346 1779 550 
Q 1779 845 1440 1030 
L 1094 1222 
Q 326 1651 326 2150 
Q 326 2522 566 2730 
Q 806 2938 1210 2938 
Q 1491 2938 1638 2867 
Q 1754 2816 1818 2816 
Q 1862 2816 1920 2880 
L 1990 2880 
L 2022 2010 
L 1926 2010 
Q 1818 2445 1654 2621 
Q 1491 2797 1203 2797 
Q 986 2797 854 2688 
Q 723 2579 723 2362 
Q 723 2253 796 2128 
Q 870 2003 998 1926 
z
" transform="scale(0.015625)"/>
      </defs>
      <use xlink:href="#STIXGeneral-Regular-54"/>
      <use xlink:href="#STIXGeneral-Regular-72" x="61.099991"/>
      <use xlink:href="#STIXGeneral-Regular-61" x="94.399979"/>
      <use xlink:href="#STIXGeneral-Regular-69" x="138.799973"/>
      <use xlink:href="#STIXGeneral-Regular-6e" x="166.59996"/>
      <use xlink:href="#STIXGeneral-Regular-69" x="216.599945"/>
      <use xlink:href="#STIXGeneral-Regular-6e" x="244.399933"/>
      <use xlink:href="#STIXGeneral-Regular-67" x="294.399918"/>
      <use xlink:href="#STIXGeneral-Regular-20" x="344.399902"/>
      <use xlink:href="#STIXGeneral-Regular-45" x="369.399887"/>
      <use xlink:href="#STIXGeneral-Regular-6e" x="430.499878"/>
      <use xlink:href="#STIXGeneral-Regular-76" x="480.499863"/>
      <use xlink:href="#STIXGeneral-Regular-69" x="530.499847"/>
      <use xlink:href="#STIXGeneral-Regular-72" x="558.299835"/>
      <use xlink:href="#STIXGeneral-Regular-6f" x="591.599823"/>
      <use xlink:href="#STIXGeneral-Regular-6e" x="641.599808"/>
      <use xlink:href="#STIXGeneral-Regular-6d" x="691.599792"/>
      <use xlink:href="#STIXGeneral-Regular-65" x="769.39978"/>
      <use xlink:href="#STIXGeneral-Regular-6e" x="813.799774"/>
      <use xlink:href="#STIXGeneral-Regular-74" x="863.799759"/>
      <use xlink:href="#STIXGeneral-Regular-20" x="891.599747"/>
      <use xlink:href="#STIXGeneral-Regular-53" x="916.599731"/>
      <use xlink:href="#STIXGeneral-Regular-74" x="972.199722"/>
      <use xlink:href="#STIXGeneral-Regular-65" x="999.99971"/>
      <use xlink:href="#STIXGeneral-Regular-70" x="1044.399704"/>
      <use xlink:href="#STIXGeneral-Regular-73" x="1094.399689"/>
     </g>
    </g>
    <g id="text_10">
     <!-- 1e8 -->
     <g transform="translate(490.806875 343.753562)scale(0.18 -0.18)">
      <defs>
       <path id="STIXGeneral-Regular-38" d="M 2848 992 
Q 2848 499 2505 204 
Q 2163 -90 1587 -90 
Q 1050 -90 704 204 
Q 358 499 358 954 
Q 358 1293 524 1533 
Q 691 1773 1190 2125 
Q 710 2522 553 2765 
Q 397 3008 397 3328 
Q 397 3782 745 4054 
Q 1094 4326 1638 4326 
Q 2106 4326 2410 4060 
Q 2714 3795 2714 3411 
Q 2714 3059 2531 2848 
Q 2349 2637 1856 2374 
Q 2432 1990 2640 1689 
Q 2848 1389 2848 992 
z
M 2272 3411 
Q 2272 3744 2086 3945 
Q 1901 4147 1574 4147 
Q 1248 4147 1059 3977 
Q 870 3808 870 3513 
Q 870 3219 1059 2979 
Q 1248 2739 1670 2490 
Q 1997 2682 2134 2896 
Q 2272 3110 2272 3411 
z
M 1734 1741 
L 1357 1997 
Q 1075 1766 960 1545 
Q 845 1325 845 1011 
Q 845 576 1065 333 
Q 1286 90 1658 90 
Q 1971 90 2166 285 
Q 2362 480 2362 794 
Q 2362 1082 2214 1299 
Q 2067 1517 1734 1741 
z
" transform="scale(0.015625)"/>
      </defs>
      <use xlink:href="#STIXGeneral-Regular-31"/>
      <use xlink:href="#STIXGeneral-Regular-65" x="49.999985"/>
      <use xlink:href="#STIXGeneral-Regular-38" x="94.399979"/>
     </g>
    </g>
   </g>
   <g id="matplotlib.axis_2">
    <g id="ytick_1">
     <g id="line2d_17">
      <path d="M 70.4 295.704264 
L 516.8 295.704264 
" clip-path="url(#p50ab589747)" style="fill: none; stroke: #b0b0b0; stroke-width: 0.8; stroke-linecap: square"/>
     </g>
     <g id="line2d_18">
      <defs>
       <path id="m92c7b21ef4" d="M 0 0 
L -3.5 0 
" style="stroke: #000000; stroke-width: 0.8"/>
      </defs>
      <g>
       <use xlink:href="#m92c7b21ef4" x="70.4" y="295.704264" style="stroke: #000000; stroke-width: 0.8"/>
      </g>
     </g>
     <g id="text_11">
      <!-- 0 -->
      <g transform="translate(54.4 301.850983)scale(0.18 -0.18)">
       <use xlink:href="#STIXGeneral-Regular-30"/>
      </g>
     </g>
    </g>
    <g id="ytick_2">
     <g id="line2d_19">
      <path d="M 70.4 248.678418 
L 516.8 248.678418 
" clip-path="url(#p50ab589747)" style="fill: none; stroke: #b0b0b0; stroke-width: 0.8; stroke-linecap: square"/>
     </g>
     <g id="line2d_20">
      <g>
       <use xlink:href="#m92c7b21ef4" x="70.4" y="248.678418" style="stroke: #000000; stroke-width: 0.8"/>
      </g>
     </g>
     <g id="text_12">
      <!-- 200 -->
      <g transform="translate(36.4 254.825137)scale(0.18 -0.18)">
       <use xlink:href="#STIXGeneral-Regular-32"/>
       <use xlink:href="#STIXGeneral-Regular-30" x="49.999985"/>
       <use xlink:href="#STIXGeneral-Regular-30" x="99.999969"/>
      </g>
     </g>
    </g>
    <g id="ytick_3">
     <g id="line2d_21">
      <path d="M 70.4 201.652573 
L 516.8 201.652573 
" clip-path="url(#p50ab589747)" style="fill: none; stroke: #b0b0b0; stroke-width: 0.8; stroke-linecap: square"/>
     </g>
     <g id="line2d_22">
      <g>
       <use xlink:href="#m92c7b21ef4" x="70.4" y="201.652573" style="stroke: #000000; stroke-width: 0.8"/>
      </g>
     </g>
     <g id="text_13">
      <!-- 400 -->
      <g transform="translate(36.4 207.799292)scale(0.18 -0.18)">
       <use xlink:href="#STIXGeneral-Regular-34"/>
       <use xlink:href="#STIXGeneral-Regular-30" x="49.999985"/>
       <use xlink:href="#STIXGeneral-Regular-30" x="99.999969"/>
      </g>
     </g>
    </g>
    <g id="ytick_4">
     <g id="line2d_23">
      <path d="M 70.4 154.626728 
L 516.8 154.626728 
" clip-path="url(#p50ab589747)" style="fill: none; stroke: #b0b0b0; stroke-width: 0.8; stroke-linecap: square"/>
     </g>
     <g id="line2d_24">
      <g>
       <use xlink:href="#m92c7b21ef4" x="70.4" y="154.626728" style="stroke: #000000; stroke-width: 0.8"/>
      </g>
     </g>
     <g id="text_14">
      <!-- 600 -->
      <g transform="translate(36.4 160.773446)scale(0.18 -0.18)">
       <use xlink:href="#STIXGeneral-Regular-36"/>
       <use xlink:href="#STIXGeneral-Regular-30" x="49.999985"/>
       <use xlink:href="#STIXGeneral-Regular-30" x="99.999969"/>
      </g>
     </g>
    </g>
    <g id="ytick_5">
     <g id="line2d_25">
      <path d="M 70.4 107.600882 
L 516.8 107.600882 
" clip-path="url(#p50ab589747)" style="fill: none; stroke: #b0b0b0; stroke-width: 0.8; stroke-linecap: square"/>
     </g>
     <g id="line2d_26">
      <g>
       <use xlink:href="#m92c7b21ef4" x="70.4" y="107.600882" style="stroke: #000000; stroke-width: 0.8"/>
      </g>
     </g>
     <g id="text_15">
      <!-- 800 -->
      <g transform="translate(36.4 113.747601)scale(0.18 -0.18)">
       <use xlink:href="#STIXGeneral-Regular-38"/>
       <use xlink:href="#STIXGeneral-Regular-30" x="49.999985"/>
       <use xlink:href="#STIXGeneral-Regular-30" x="99.999969"/>
      </g>
     </g>
    </g>
    <g id="ytick_6">
     <g id="line2d_27">
      <path d="M 70.4 60.575037 
L 516.8 60.575037 
" clip-path="url(#p50ab589747)" style="fill: none; stroke: #b0b0b0; stroke-width: 0.8; stroke-linecap: square"/>
     </g>
     <g id="line2d_28">
      <g>
       <use xlink:href="#m92c7b21ef4" x="70.4" y="60.575037" style="stroke: #000000; stroke-width: 0.8"/>
      </g>
     </g>
     <g id="text_16">
      <!-- 1000 -->
      <g transform="translate(27.4 66.721755)scale(0.18 -0.18)">
       <use xlink:href="#STIXGeneral-Regular-31"/>
       <use xlink:href="#STIXGeneral-Regular-30" x="49.999985"/>
       <use xlink:href="#STIXGeneral-Regular-30" x="99.999969"/>
       <use xlink:href="#STIXGeneral-Regular-30" x="149.999954"/>
      </g>
     </g>
    </g>
    <g id="text_17">
     <!-- Average Test Return -->
     <g transform="translate(19.476562 241.641375)rotate(-90)scale(0.18 -0.18)">
      <defs>
       <path id="STIXGeneral-Regular-41" d="M 4525 0 
L 2893 0 
L 2893 122 
Q 3149 122 3245 179 
Q 3334 224 3334 333 
Q 3334 499 3213 781 
L 2950 1382 
L 1274 1382 
L 979 653 
Q 922 506 922 384 
Q 922 237 1027 179 
Q 1133 122 1370 122 
L 1370 0 
L 96 0 
L 96 122 
Q 365 147 486 316 
Q 608 486 902 1190 
L 2221 4314 
L 2349 4314 
L 3923 710 
Q 4064 378 4176 262 
Q 4288 147 4525 122 
L 4525 0 
z
M 2861 1645 
L 2118 3405 
L 1382 1645 
L 2861 1645 
z
" transform="scale(0.015625)"/>
       <path id="STIXGeneral-Regular-52" d="M 4224 0 
L 3187 0 
L 1664 1971 
L 1306 1958 
L 1306 717 
Q 1306 352 1405 249 
Q 1504 147 1875 122 
L 1875 0 
L 109 0 
L 109 122 
Q 474 154 563 262 
Q 653 371 653 794 
L 653 3526 
Q 653 3885 563 3987 
Q 474 4090 109 4115 
L 109 4237 
L 1850 4237 
Q 2726 4237 3187 3859 
Q 3501 3603 3501 3091 
Q 3501 2221 2342 2042 
L 3622 422 
Q 3757 256 3878 198 
Q 4000 141 4224 122 
L 4224 0 
z
M 1306 3731 
L 1306 2195 
Q 1766 2202 1990 2246 
Q 2214 2291 2438 2413 
Q 2803 2618 2803 3142 
Q 2803 4000 1632 4000 
Q 1459 4000 1382 3945 
Q 1306 3891 1306 3731 
z
" transform="scale(0.015625)"/>
       <path id="STIXGeneral-Regular-75" d="M 3072 320 
L 3072 230 
Q 2573 96 2195 -58 
L 2163 -38 
L 2163 486 
L 2150 486 
Q 1747 -64 1235 -64 
Q 870 -64 662 160 
Q 454 384 454 755 
L 454 2362 
Q 454 2598 371 2688 
Q 288 2778 58 2790 
L 58 2880 
L 992 2880 
L 992 813 
Q 992 595 1123 451 
Q 1254 307 1446 307 
Q 1760 307 1984 506 
Q 2067 582 2099 649 
Q 2131 717 2131 877 
L 2131 2355 
Q 2131 2605 2041 2678 
Q 1952 2752 1658 2771 
L 1658 2880 
L 2669 2880 
L 2669 685 
Q 2669 461 2742 390 
Q 2816 320 3034 320 
L 3072 320 
z
" transform="scale(0.015625)"/>
      </defs>
      <use xlink:href="#STIXGeneral-Regular-41"/>
      <use xlink:href="#STIXGeneral-Regular-76" x="72.199982"/>
      <use xlink:href="#STIXGeneral-Regular-65" x="122.199966"/>
      <use xlink:href="#STIXGeneral-Regular-72" x="166.59996"/>
      <use xlink:href="#STIXGeneral-Regular-61" x="199.899948"/>
      <use xlink:href="#STIXGeneral-Regular-67" x="244.299942"/>
      <use xlink:href="#STIXGeneral-Regular-65" x="294.299927"/>
      <use xlink:href="#STIXGeneral-Regular-20" x="338.699921"/>
      <use xlink:href="#STIXGeneral-Regular-54" x="363.699905"/>
      <use xlink:href="#STIXGeneral-Regular-65" x="424.799896"/>
      <use xlink:href="#STIXGeneral-Regular-73" x="469.19989"/>
      <use xlink:href="#STIXGeneral-Regular-74" x="508.099884"/>
      <use xlink:href="#STIXGeneral-Regular-20" x="535.899872"/>
      <use xlink:href="#STIXGeneral-Regular-52" x="560.899857"/>
      <use xlink:href="#STIXGeneral-Regular-65" x="627.599854"/>
      <use xlink:href="#STIXGeneral-Regular-74" x="671.999847"/>
      <use xlink:href="#STIXGeneral-Regular-75" x="699.799835"/>
      <use xlink:href="#STIXGeneral-Regular-72" x="749.79982"/>
      <use xlink:href="#STIXGeneral-Regular-6e" x="783.099808"/>
     </g>
    </g>
   </g>
   <g id="line2d_29">
    <path d="M 90.690909 292.164286 
L 93.898958 292.318334 
L 95.502982 292.421659 
L 97.107007 292.401075 
L 100.315056 292.630264 
L 105.127129 292.660125 
L 109.939202 292.489142 
L 117.959324 292.386372 
L 122.771398 292.37734 
L 130.79152 292.259 
L 133.999569 292.089863 
L 137.207618 292.070073 
L 142.019691 291.83148 
L 143.623715 292.100316 
L 148.435789 292.142733 
L 151.643838 292.186345 
L 158.059935 291.912878 
L 159.66396 291.621491 
L 170.892131 291.615161 
L 172.496155 291.745377 
L 180.516277 291.771872 
L 183.724326 291.778281 
L 191.744448 291.722637 
L 207.784693 291.947483 
L 209.388717 291.95328 
L 210.992742 291.843521 
L 217.408839 292.002564 
L 222.220913 292.164068 
L 223.824937 292.038668 
L 227.032986 292.10519 
L 233.449084 291.635969 
L 238.261157 291.630811 
L 239.865181 291.504271 
L 243.07323 291.689407 
L 249.489328 291.711126 
L 254.301401 291.695518 
L 255.905426 291.730489 
L 257.50945 291.559181 
L 260.717499 291.508254 
L 262.321524 291.239881 
L 265.529572 291.144738 
L 270.341646 291.453603 
L 273.549695 291.303668 
L 275.153719 291.461913 
L 279.965792 291.265431 
L 283.173841 291.326701 
L 284.777866 291.244967 
L 287.985914 290.679134 
L 291.193963 290.82439 
L 292.797988 290.742974 
L 299.214086 291.485952 
L 304.026159 291.507987 
L 310.442257 291.354174 
L 312.046281 290.996278 
L 313.650305 291.107785 
L 315.25433 291.070338 
L 318.462379 291.311326 
L 323.274452 291.096919 
L 331.294574 291.333002 
L 332.898599 291.536799 
L 337.710672 291.309658 
L 339.314696 291.378403 
L 340.918721 291.582389 
L 342.522745 291.602812 
L 344.12677 291.737386 
L 345.730794 291.647966 
L 347.334819 291.347772 
L 348.938843 291.377852 
L 352.146892 290.852287 
L 355.354941 290.522957 
L 360.167014 290.480144 
L 361.771038 290.650135 
L 363.375063 290.627677 
L 364.979087 290.467174 
L 374.603234 290.249833 
L 381.019332 290.705871 
L 382.623356 290.674612 
L 384.227381 290.28716 
L 387.435429 289.890654 
L 390.643478 289.500001 
L 393.851527 289.653373 
L 400.267625 289.754342 
L 403.475674 289.205704 
L 405.079698 289.092956 
L 406.683723 289.142901 
L 409.891771 288.832811 
L 414.703845 288.819917 
L 416.307869 288.608615 
L 419.515918 288.678207 
L 421.119943 288.469634 
L 422.723967 288.690479 
L 425.932016 288.869726 
L 429.140065 288.720666 
L 430.744089 288.730975 
L 432.348114 288.912373 
L 435.556162 288.965305 
L 437.160187 289.17893 
L 440.368236 289.300017 
L 445.180309 289.172098 
L 446.784333 288.884697 
L 449.992382 288.791149 
L 451.596407 288.54466 
L 453.200431 288.5416 
L 456.40848 288.775651 
L 461.220553 288.804152 
L 464.428602 288.813682 
L 466.032627 289.082046 
L 467.636651 289.032499 
L 469.240676 288.798695 
L 472.448724 289.116553 
L 474.052749 289.437457 
L 477.260798 289.337753 
L 478.864822 289.592261 
L 480.468847 289.641032 
L 482.072871 289.455783 
L 485.28092 289.471104 
L 486.884944 289.307247 
L 488.488969 289.377036 
L 491.697018 288.62745 
L 493.301042 288.62822 
L 496.509091 288.2381 
L 496.509091 288.2381 
" clip-path="url(#p50ab589747)" style="fill: none; stroke: #1f77b4; stroke-width: 1.5; stroke-linecap: square"/>
   </g>
   <g id="line2d_30">
    <path d="M 90.690909 240.759634 
L 92.294934 240.621939 
L 95.502982 241.454394 
L 97.107007 241.5688 
L 98.711031 242.25011 
L 100.315056 242.276061 
L 101.91908 242.846321 
L 103.523105 242.935674 
L 105.127129 243.140383 
L 106.731153 242.90961 
L 108.335178 243.345732 
L 109.939202 243.104563 
L 111.543227 242.549602 
L 113.147251 242.377411 
L 116.3553 242.711039 
L 117.959324 242.665583 
L 121.167373 243.301788 
L 122.771398 244.042018 
L 124.375422 244.122489 
L 125.979447 244.005967 
L 127.583471 243.411729 
L 129.187496 243.567041 
L 130.79152 243.43625 
L 132.395544 243.93615 
L 137.207618 243.747499 
L 138.811642 243.17135 
L 140.415667 243.277975 
L 142.019691 243.121237 
L 143.623715 242.755297 
L 145.22774 242.739247 
L 146.831764 242.958152 
L 148.435789 242.80492 
L 154.851886 243.405945 
L 156.455911 242.995886 
L 159.66396 242.66651 
L 161.267984 242.786895 
L 162.872009 242.62341 
L 164.476033 242.789305 
L 166.080057 242.605141 
L 167.684082 242.66035 
L 169.288106 242.414316 
L 170.892131 242.38722 
L 174.10018 241.252448 
L 175.704204 241.027698 
L 178.912253 241.18156 
L 180.516277 240.824242 
L 183.724326 240.640253 
L 185.328351 240.630203 
L 188.5364 240.961487 
L 190.140424 240.936221 
L 191.744448 241.07938 
L 194.952497 240.840626 
L 196.556522 240.837528 
L 209.388717 240.003792 
L 212.596766 240.340607 
L 215.804815 240.180765 
L 217.408839 240.017313 
L 219.012864 240.028043 
L 220.616888 239.805666 
L 223.824937 239.681057 
L 228.63701 239.801478 
L 231.845059 239.965784 
L 236.657133 240.093912 
L 239.865181 240.225064 
L 241.469206 240.00412 
L 249.489328 239.857383 
L 251.093352 239.932978 
L 252.697377 239.597388 
L 255.905426 240.223773 
L 257.50945 240.133623 
L 260.717499 239.240552 
L 263.925548 239.390425 
L 265.529572 239.053364 
L 267.133597 238.903094 
L 268.737621 238.975871 
L 271.94567 238.577058 
L 273.549695 238.816579 
L 276.757743 238.765705 
L 278.361768 238.581281 
L 279.965792 238.742861 
L 283.173841 238.493904 
L 284.777866 238.749192 
L 286.38189 238.107322 
L 291.193963 238.833142 
L 292.797988 238.988509 
L 296.006037 239.465702 
L 297.610061 239.677551 
L 305.630183 240.0388 
L 308.838232 239.991733 
L 310.442257 239.81819 
L 331.294574 239.932106 
L 332.898599 239.913641 
L 334.502623 240.070589 
L 337.710672 239.933417 
L 339.314696 240.017692 
L 340.918721 239.746165 
L 342.522745 239.935908 
L 345.730794 239.617594 
L 350.542867 239.173419 
L 356.958965 239.067893 
L 358.56299 238.884483 
L 361.771038 238.850609 
L 363.375063 239.136671 
L 366.583112 239.166112 
L 368.187136 238.856917 
L 369.791161 238.792986 
L 371.395185 238.891152 
L 372.999209 238.699757 
L 374.603234 238.819603 
L 376.207258 238.650875 
L 382.623356 238.708966 
L 384.227381 238.57204 
L 387.435429 238.673564 
L 393.851527 238.272322 
L 400.267625 238.447085 
L 403.475674 238.200912 
L 408.287747 237.850138 
L 409.891771 238.026685 
L 413.09982 237.909181 
L 414.703845 238.036071 
L 419.515918 237.731736 
L 422.723967 237.208692 
L 425.932016 237.159555 
L 427.53604 237.031983 
L 430.744089 237.005104 
L 432.348114 237.031702 
L 433.952138 237.199626 
L 435.556162 237.175878 
L 437.160187 236.993728 
L 438.764211 236.222996 
L 440.368236 235.943801 
L 441.97226 236.594772 
L 445.180309 237.153338 
L 448.388358 237.360182 
L 449.992382 237.381691 
L 451.596407 236.679642 
L 453.200431 236.573184 
L 454.804456 236.805536 
L 456.40848 236.739989 
L 458.012504 236.06317 
L 462.824578 235.06786 
L 464.428602 235.062384 
L 466.032627 235.511941 
L 467.636651 234.464845 
L 469.240676 233.824575 
L 470.8447 230.57134 
L 472.448724 231.472008 
L 474.052749 231.186865 
L 475.656773 231.997556 
L 477.260798 232.074885 
L 478.864822 233.094293 
L 480.468847 233.663918 
L 482.072871 233.887606 
L 483.676895 234.795078 
L 485.28092 234.622573 
L 486.884944 234.865762 
L 488.488969 233.993518 
L 490.092993 234.219687 
L 491.697018 233.393927 
L 493.301042 233.339287 
L 496.509091 233.966798 
L 496.509091 233.966798 
" clip-path="url(#p50ab589747)" style="fill: none; stroke: #ff7f0e; stroke-width: 1.5; stroke-linecap: square"/>
   </g>
   <g id="line2d_31">
    <path d="M 90.690909 289.196121 
L 93.898958 288.635631 
L 97.107007 288.571004 
L 98.711031 288.903154 
L 101.91908 289.03949 
L 103.523105 289.202415 
L 105.127129 289.097643 
L 108.335178 289.259462 
L 111.543227 288.965416 
L 114.751276 288.947633 
L 116.3553 289.319273 
L 117.959324 289.191038 
L 119.563349 289.413867 
L 125.979447 289.730873 
L 127.583471 289.942018 
L 129.187496 290.386484 
L 130.79152 290.55684 
L 132.395544 290.446243 
L 133.999569 290.169383 
L 137.207618 290.229758 
L 140.415667 289.958159 
L 142.019691 290.236625 
L 143.623715 290.383519 
L 150.039813 290.352747 
L 151.643838 290.29216 
L 153.247862 289.970676 
L 154.851886 290.102002 
L 156.455911 289.968052 
L 158.059935 289.450235 
L 159.66396 289.303488 
L 161.267984 289.599671 
L 162.872009 289.539973 
L 164.476033 289.759509 
L 167.684082 289.625449 
L 175.704204 290.038634 
L 177.308229 289.925467 
L 178.912253 290.076541 
L 180.516277 289.623586 
L 182.120302 289.490431 
L 185.328351 289.671342 
L 190.140424 289.377268 
L 191.744448 289.421748 
L 193.348473 289.34013 
L 194.952497 289.444817 
L 196.556522 289.34972 
L 198.160546 289.017547 
L 199.764571 289.193793 
L 201.368595 288.900877 
L 202.972619 288.738615 
L 204.576644 288.933318 
L 206.180668 288.993987 
L 207.784693 289.2233 
L 209.388717 289.323793 
L 210.992742 289.177282 
L 214.200791 289.276813 
L 215.804815 289.309435 
L 217.408839 288.985566 
L 220.616888 289.003422 
L 222.220913 288.964424 
L 223.824937 288.667083 
L 225.428962 288.56108 
L 227.032986 288.682991 
L 230.241035 288.382685 
L 231.845059 288.471781 
L 233.449084 288.190078 
L 235.053108 288.382001 
L 236.657133 288.228952 
L 239.865181 288.336189 
L 241.469206 288.227374 
L 243.07323 288.304279 
L 244.677255 288.558354 
L 246.281279 288.357555 
L 251.093352 288.520261 
L 252.697377 288.681484 
L 254.301401 288.624292 
L 255.905426 288.949579 
L 260.717499 288.922532 
L 262.321524 289.117031 
L 263.925548 288.961096 
L 265.529572 288.640318 
L 268.737621 288.55866 
L 270.341646 288.34137 
L 271.94567 288.420685 
L 275.153719 288.901437 
L 276.757743 288.739765 
L 279.965792 288.905313 
L 281.569817 288.542085 
L 283.173841 288.511894 
L 284.777866 288.614812 
L 286.38189 288.362907 
L 287.985914 288.241218 
L 289.589939 287.964526 
L 291.193963 288.217043 
L 292.797988 288.303674 
L 294.402012 287.89434 
L 296.006037 288.552818 
L 299.214086 289.202645 
L 302.422134 289.345836 
L 307.234208 288.222195 
L 308.838232 288.478835 
L 310.442257 288.121571 
L 312.046281 288.347794 
L 313.650305 288.166899 
L 315.25433 288.620348 
L 316.858354 288.71197 
L 318.462379 288.412441 
L 321.670428 288.573885 
L 323.274452 288.827494 
L 328.086525 288.713317 
L 329.69055 288.491713 
L 331.294574 288.464963 
L 332.898599 288.300231 
L 334.502623 288.426508 
L 336.106648 288.333157 
L 339.314696 288.467431 
L 340.918721 289.186007 
L 342.522745 288.968232 
L 344.12677 289.15121 
L 345.730794 289.034102 
L 347.334819 289.051447 
L 348.938843 288.850411 
L 350.542867 288.429699 
L 352.146892 288.593289 
L 353.750916 288.597604 
L 356.958965 287.664772 
L 358.56299 288.292742 
L 360.167014 287.27263 
L 361.771038 287.777289 
L 363.375063 287.765988 
L 366.583112 287.320534 
L 368.187136 287.820628 
L 369.791161 287.949059 
L 371.395185 288.226339 
L 372.999209 287.940434 
L 374.603234 288.026483 
L 376.207258 287.368137 
L 377.811283 287.05185 
L 381.019332 287.78009 
L 382.623356 288.001102 
L 384.227381 287.638263 
L 387.435429 288.424635 
L 389.039454 288.465951 
L 390.643478 288.089701 
L 392.247503 288.409692 
L 395.455552 287.75286 
L 397.059576 288.31544 
L 398.6636 288.216252 
L 400.267625 286.39324 
L 403.475674 287.286503 
L 405.079698 287.011181 
L 406.683723 285.559224 
L 408.287747 285.583653 
L 409.891771 284.656949 
L 411.495796 283.935787 
L 413.09982 283.741765 
L 414.703845 284.984846 
L 417.911894 285.045759 
L 419.515918 284.592119 
L 421.119943 283.917322 
L 422.723967 283.88384 
L 424.327991 283.714363 
L 425.932016 284.60275 
L 427.53604 284.305998 
L 429.140065 282.996796 
L 430.744089 281.92887 
L 432.348114 283.649718 
L 433.952138 284.209342 
L 435.556162 285.059043 
L 437.160187 284.382671 
L 438.764211 285.61111 
L 441.97226 285.862358 
L 443.576285 284.845566 
L 445.180309 285.322207 
L 446.784333 283.554128 
L 448.388358 282.438493 
L 449.992382 282.565015 
L 451.596407 281.504889 
L 453.200431 281.70008 
L 454.804456 282.796501 
L 456.40848 284.122942 
L 458.012504 285.04415 
L 459.616529 285.248402 
L 461.220553 285.111979 
L 462.824578 284.625329 
L 464.428602 285.013527 
L 466.032627 285.132919 
L 467.636651 283.531556 
L 469.240676 283.21547 
L 470.8447 283.882527 
L 474.052749 283.689435 
L 475.656773 283.856132 
L 477.260798 279.94538 
L 478.864822 281.839103 
L 480.468847 281.412117 
L 482.072871 282.743354 
L 483.676895 283.482918 
L 485.28092 283.088362 
L 486.884944 284.464906 
L 488.488969 284.980118 
L 490.092993 286.195068 
L 493.301042 283.763669 
L 494.905066 285.61565 
L 496.509091 286.159537 
L 496.509091 286.159537 
" clip-path="url(#p50ab589747)" style="fill: none; stroke: #2ca02c; stroke-width: 1.5; stroke-linecap: square"/>
   </g>
   <g id="line2d_32">
    <path d="M 90.690909 80.694759 
L 92.294934 98.637657 
L 93.898958 104.06033 
L 95.502982 99.003299 
L 97.107007 107.662166 
L 98.711031 117.677665 
L 100.315056 121.342727 
L 101.91908 127.650159 
L 103.523105 122.261112 
L 105.127129 133.794528 
L 106.731153 123.547916 
L 108.335178 127.93437 
L 109.939202 126.454581 
L 111.543227 134.802659 
L 113.147251 131.535819 
L 114.751276 131.744793 
L 116.3553 128.263045 
L 117.959324 128.017165 
L 119.563349 130.340739 
L 121.167373 126.356762 
L 122.771398 133.544573 
L 124.375422 136.381331 
L 125.979447 140.341309 
L 127.583471 138.426566 
L 129.187496 141.377132 
L 130.79152 143.624992 
L 132.395544 139.587939 
L 133.999569 147.250042 
L 135.603593 148.149191 
L 137.207618 140.29676 
L 138.811642 134.762079 
L 140.415667 133.47256 
L 142.019691 143.948101 
L 143.623715 144.534429 
L 145.22774 155.793381 
L 146.831764 156.599471 
L 148.435789 150.552262 
L 150.039813 146.958775 
L 151.643838 148.835081 
L 153.247862 144.746621 
L 154.851886 143.319273 
L 156.455911 143.284973 
L 158.059935 145.045353 
L 159.66396 129.827648 
L 161.267984 132.851679 
L 162.872009 135.130346 
L 164.476033 139.205476 
L 166.080057 140.872055 
L 167.684082 145.243771 
L 169.288106 141.401878 
L 170.892131 138.483781 
L 172.496155 144.499742 
L 174.10018 147.898168 
L 175.704204 155.222602 
L 177.308229 154.685036 
L 178.912253 153.161863 
L 180.516277 150.43313 
L 182.120302 134.277119 
L 183.724326 127.377859 
L 185.328351 118.879228 
L 186.932375 117.463622 
L 188.5364 123.165719 
L 190.140424 130.989456 
L 191.744448 133.758778 
L 193.348473 133.419827 
L 194.952497 130.175959 
L 196.556522 120.91445 
L 198.160546 106.924253 
L 199.764571 106.805173 
L 201.368595 114.303641 
L 202.972619 112.792259 
L 204.576644 107.175016 
L 206.180668 109.358071 
L 207.784693 118.85923 
L 209.388717 115.018523 
L 210.992742 108.001682 
L 212.596766 110.982869 
L 214.200791 101.229956 
L 215.804815 97.160489 
L 217.408839 102.918229 
L 219.012864 94.399107 
L 220.616888 94.820879 
L 222.220913 91.683943 
L 223.824937 79.379013 
L 225.428962 87.481404 
L 227.032986 94.417572 
L 228.63701 99.088188 
L 230.241035 92.579285 
L 231.845059 90.466413 
L 233.449084 92.092755 
L 235.053108 83.963105 
L 236.657133 73.678704 
L 238.261157 69.434728 
L 239.865181 73.936978 
L 241.469206 67.468426 
L 243.07323 52.60172 
L 244.677255 40.660125 
L 246.281279 49.638443 
L 247.885304 57.600471 
L 249.489328 72.958768 
L 251.093352 78.371696 
L 252.697377 79.612181 
L 254.301401 91.263448 
L 255.905426 89.676217 
L 257.50945 96.231222 
L 259.113475 94.007295 
L 260.717499 88.551915 
L 262.321524 89.657733 
L 263.925548 80.336998 
L 265.529572 84.690793 
L 267.133597 84.265706 
L 268.737621 85.052617 
L 270.341646 82.674992 
L 273.549695 94.558065 
L 275.153719 91.552242 
L 276.757743 89.006403 
L 278.361768 80.075159 
L 279.965792 76.409751 
L 281.569817 83.342458 
L 283.173841 83.485235 
L 284.777866 77.660536 
L 286.38189 81.749455 
L 287.985914 73.403412 
L 289.589939 77.091302 
L 291.193963 68.387266 
L 292.797988 68.668775 
L 294.402012 68.09898 
L 296.006037 67.873686 
L 297.610061 83.158843 
L 299.214086 87.274842 
L 300.81811 87.480146 
L 302.422134 85.75637 
L 304.026159 86.533305 
L 305.630183 74.532784 
L 307.234208 68.451982 
L 308.838232 74.183555 
L 310.442257 72.534775 
L 312.046281 64.259854 
L 313.650305 51.624211 
L 315.25433 53.33349 
L 316.858354 63.288251 
L 318.462379 61.449794 
L 320.066403 54.211776 
L 321.670428 66.845192 
L 323.274452 68.81354 
L 324.878476 69.730637 
L 326.482501 65.326592 
L 328.086525 68.246004 
L 329.69055 70.62467 
L 331.294574 67.204643 
L 332.898599 69.710081 
L 334.502623 78.877179 
L 336.106648 70.22023 
L 337.710672 79.841716 
L 339.314696 73.878043 
L 340.918721 80.933473 
L 342.522745 83.387871 
L 344.12677 93.238831 
L 345.730794 99.01775 
L 347.334819 84.834244 
L 348.938843 80.512385 
L 350.542867 75.553776 
L 352.146892 80.55762 
L 353.750916 72.417292 
L 355.354941 68.782105 
L 356.958965 67.565579 
L 358.56299 67.461747 
L 360.167014 75.128104 
L 361.771038 85.054054 
L 363.375063 77.17844 
L 364.979087 76.96691 
L 366.583112 73.973609 
L 368.187136 69.724798 
L 369.791161 79.246998 
L 371.395185 87.446597 
L 372.999209 76.9339 
L 374.603234 71.764225 
L 376.207258 58.56847 
L 377.811283 61.74104 
L 379.415307 62.440767 
L 381.019332 58.870835 
L 382.623356 67.987323 
L 384.227381 73.620383 
L 385.831405 73.270401 
L 387.435429 82.885846 
L 389.039454 75.521216 
L 390.643478 85.217506 
L 392.247503 85.570425 
L 393.851527 96.22138 
L 395.455552 97.713993 
L 397.059576 105.847751 
L 398.6636 107.642079 
L 400.267625 113.885015 
L 401.871649 117.205167 
L 403.475674 109.643756 
L 405.079698 112.177783 
L 406.683723 117.467753 
L 408.287747 110.804487 
L 409.891771 107.86741 
L 411.495796 107.715059 
L 414.703845 96.368181 
L 416.307869 87.983436 
L 417.911894 90.4465 
L 419.515918 85.282805 
L 421.119943 82.087724 
L 422.723967 77.777931 
L 424.327991 83.002306 
L 425.932016 77.666154 
L 427.53604 68.440378 
L 429.140065 68.539111 
L 430.744089 79.140504 
L 432.348114 93.394432 
L 433.952138 98.056634 
L 435.556162 98.949454 
L 437.160187 110.209714 
L 438.764211 112.110182 
L 440.368236 108.29834 
L 441.97226 98.806608 
L 443.576285 94.441409 
L 445.180309 91.965021 
L 446.784333 89.24546 
L 448.388358 98.843233 
L 449.992382 97.141056 
L 451.596407 92.389491 
L 453.200431 90.409155 
L 454.804456 94.094919 
L 456.40848 86.979589 
L 458.012504 82.937535 
L 459.616529 70.653908 
L 461.220553 74.970417 
L 462.824578 72.211058 
L 464.428602 75.188459 
L 466.032627 75.8078 
L 467.636651 83.319952 
L 469.240676 89.840691 
L 470.8447 81.189433 
L 472.448724 92.243507 
L 474.052749 90.436753 
L 475.656773 93.066634 
L 477.260798 88.241677 
L 478.864822 90.955528 
L 480.468847 100.081602 
L 482.072871 102.516009 
L 483.676895 99.694999 
L 485.28092 96.499541 
L 486.884944 90.942504 
L 488.488969 90.633275 
L 490.092993 106.64968 
L 491.697018 128.200006 
L 493.301042 130.41615 
L 494.905066 134.144361 
L 496.509091 128.048529 
L 496.509091 128.048529 
" clip-path="url(#p50ab589747)" style="fill: none; stroke: #d62728; stroke-width: 1.5; stroke-linecap: square"/>
   </g>
   <g id="line2d_33">
    <path d="M 90.690909 127.775484 
L 92.294934 126.36329 
L 93.898958 120.121974 
L 95.502982 118.138341 
L 97.107007 119.117394 
L 98.711031 114.737004 
L 100.315056 106.85397 
L 101.91908 104.615555 
L 103.523105 100.3694 
L 105.127129 95.515777 
L 106.731153 89.366735 
L 108.335178 90.413063 
L 109.939202 96.780734 
L 111.543227 94.357123 
L 113.147251 93.643349 
L 114.751276 96.285668 
L 116.3553 94.865728 
L 117.959324 98.549474 
L 119.563349 93.42769 
L 121.167373 90.767692 
L 122.771398 88.98646 
L 124.375422 88.269175 
L 125.979447 84.651476 
L 127.583471 83.004095 
L 129.187496 72.746333 
L 130.79152 70.138516 
L 132.395544 73.141522 
L 133.999569 76.603139 
L 135.603593 75.435395 
L 138.811642 68.678192 
L 140.415667 71.487805 
L 142.019691 65.370416 
L 143.623715 57.858405 
L 145.22774 57.412969 
L 146.831764 51.900472 
L 148.435789 54.424723 
L 150.039813 54.024676 
L 151.643838 60.040423 
L 153.247862 64.147913 
L 154.851886 61.630986 
L 156.455911 64.989525 
L 159.66396 84.486463 
L 161.267984 85.991221 
L 162.872009 80.862879 
L 164.476033 80.341486 
L 166.080057 77.59159 
L 167.684082 79.918063 
L 169.288106 81.670372 
L 170.892131 75.544185 
L 172.496155 71.638705 
L 174.10018 72.700669 
L 175.704204 72.848175 
L 177.308229 73.328448 
L 178.912253 74.020126 
L 180.516277 77.838639 
L 182.120302 82.545195 
L 183.724326 82.509025 
L 185.328351 87.08139 
L 188.5364 90.813933 
L 190.140424 92.699115 
L 191.744448 92.888272 
L 193.348473 91.159285 
L 194.952497 92.109653 
L 196.556522 92.662401 
L 198.160546 100.192206 
L 199.764571 98.365464 
L 201.368595 99.534282 
L 202.972619 98.365234 
L 204.576644 90.5535 
L 206.180668 90.939056 
L 207.784693 92.550529 
L 209.388717 94.892792 
L 210.992742 96.684644 
L 212.596766 96.34379 
L 214.200791 95.567413 
L 215.804815 97.004325 
L 217.408839 91.799352 
L 219.012864 93.916633 
L 220.616888 93.682766 
L 222.220913 95.838159 
L 223.824937 97.240917 
L 225.428962 96.684304 
L 227.032986 97.297766 
L 228.63701 102.338536 
L 230.241035 104.011815 
L 231.845059 108.225216 
L 233.449084 109.069677 
L 235.053108 109.019811 
L 236.657133 105.56488 
L 238.261157 109.286663 
L 239.865181 107.589005 
L 241.469206 109.383803 
L 243.07323 108.089769 
L 244.677255 111.782939 
L 246.281279 108.432484 
L 247.885304 108.575067 
L 249.489328 105.586435 
L 251.093352 104.556661 
L 252.697377 100.48191 
L 254.301401 97.599246 
L 255.905426 100.969454 
L 257.50945 103.731278 
L 259.113475 95.738016 
L 260.717499 97.915828 
L 262.321524 99.695598 
L 263.925548 105.480688 
L 265.529572 105.38508 
L 267.133597 105.130634 
L 268.737621 95.345687 
L 270.341646 92.982117 
L 271.94567 91.757652 
L 273.549695 98.557034 
L 275.153719 96.408706 
L 276.757743 98.059198 
L 278.361768 93.918303 
L 279.965792 98.61461 
L 281.569817 101.644906 
L 283.173841 104.224924 
L 284.777866 103.272148 
L 286.38189 105.113841 
L 287.985914 109.011832 
L 289.589939 112.300552 
L 291.193963 104.955875 
L 292.797988 102.746558 
L 294.402012 98.749977 
L 296.006037 92.320177 
L 297.610061 91.008202 
L 299.214086 85.835639 
L 300.81811 82.945382 
L 302.422134 83.445472 
L 304.026159 84.340961 
L 305.630183 84.385298 
L 308.838232 93.307963 
L 310.442257 96.441137 
L 312.046281 99.260635 
L 313.650305 101.378711 
L 315.25433 98.816245 
L 316.858354 98.105041 
L 318.462379 94.416819 
L 321.670428 99.843985 
L 323.274452 99.821408 
L 324.878476 94.385952 
L 326.482501 87.338007 
L 328.086525 86.515669 
L 329.69055 93.60167 
L 331.294574 86.969888 
L 332.898599 87.280055 
L 334.502623 87.01487 
L 336.106648 84.153701 
L 337.710672 87.638396 
L 339.314696 91.892453 
L 340.918721 86.301472 
L 342.522745 83.673952 
L 344.12677 82.924962 
L 345.730794 82.964592 
L 347.334819 89.998596 
L 348.938843 94.210308 
L 350.542867 102.992639 
L 352.146892 104.03303 
L 353.750916 109.659581 
L 355.354941 111.140339 
L 356.958965 105.195213 
L 358.56299 110.606687 
L 360.167014 104.417318 
L 361.771038 105.267517 
L 363.375063 102.435161 
L 364.979087 104.388449 
L 366.583112 105.122085 
L 368.187136 106.332103 
L 369.791161 112.818493 
L 371.395185 108.470597 
L 372.999209 106.479614 
L 374.603234 100.213477 
L 376.207258 97.64816 
L 377.811283 98.98486 
L 379.415307 101.474765 
L 381.019332 103.125417 
L 382.623356 102.512296 
L 384.227381 107.758255 
L 385.831405 104.649395 
L 387.435429 111.478924 
L 389.039454 110.595541 
L 390.643478 108.813396 
L 392.247503 111.212397 
L 393.851527 115.430737 
L 395.455552 112.964011 
L 397.059576 118.889346 
L 398.6636 118.613158 
L 400.267625 121.745201 
L 401.871649 127.037263 
L 403.475674 125.499605 
L 406.683723 127.907422 
L 408.287747 124.097763 
L 409.891771 128.621478 
L 411.495796 122.651098 
L 413.09982 126.03338 
L 414.703845 130.662367 
L 416.307869 131.094133 
L 417.911894 132.502324 
L 419.515918 131.058356 
L 421.119943 131.173881 
L 422.723967 140.091437 
L 424.327991 140.108441 
L 425.932016 131.202045 
L 427.53604 135.510601 
L 430.744089 141.960775 
L 432.348114 134.926434 
L 433.952138 140.868538 
L 435.556162 139.974645 
L 437.160187 142.819934 
L 438.764211 147.210893 
L 440.368236 147.62635 
L 441.97226 139.042883 
L 443.576285 137.335052 
L 445.180309 138.407802 
L 446.784333 133.382731 
L 448.388358 132.763458 
L 449.992382 141.417487 
L 451.596407 141.086933 
L 453.200431 139.450444 
L 454.804456 146.010934 
L 456.40848 140.250295 
L 459.616529 134.492598 
L 461.220553 132.616581 
L 462.824578 134.94613 
L 466.032627 138.120146 
L 467.636651 147.227818 
L 469.240676 149.301744 
L 470.8447 146.036664 
L 472.448724 146.772366 
L 474.052749 147.214952 
L 475.656773 148.225857 
L 477.260798 146.761557 
L 478.864822 144.407341 
L 480.468847 145.732241 
L 482.072871 133.571985 
L 483.676895 136.986841 
L 485.28092 135.855712 
L 486.884944 137.032936 
L 488.488969 139.852311 
L 490.092993 144.048287 
L 491.697018 150.045922 
L 494.905066 157.109957 
L 496.509091 154.594037 
L 496.509091 154.594037 
" clip-path="url(#p50ab589747)" style="fill: none; stroke: #9467bd; stroke-width: 1.5; stroke-linecap: square"/>
   </g>
   <g id="patch_3">
    <path d="M 70.4 305.260125 
L 70.4 28.060125 
" style="fill: none; stroke: #000000; stroke-width: 0.8; stroke-linejoin: miter; stroke-linecap: square"/>
   </g>
   <g id="patch_4">
    <path d="M 516.8 305.260125 
L 516.8 28.060125 
" style="fill: none; stroke: #000000; stroke-width: 0.8; stroke-linejoin: miter; stroke-linecap: square"/>
   </g>
   <g id="patch_5">
    <path d="M 70.4 305.260125 
L 516.8 305.260125 
" style="fill: none; stroke: #000000; stroke-width: 0.8; stroke-linejoin: miter; stroke-linecap: square"/>
   </g>
   <g id="patch_6">
    <path d="M 70.4 28.060125 
L 516.8 28.060125 
" style="fill: none; stroke: #000000; stroke-width: 0.8; stroke-linejoin: miter; stroke-linecap: square"/>
   </g>
   <g id="text_18">
    <!-- ML45 Meta Testing -->
    <g transform="translate(206.604313 22.060125)scale(0.216 -0.216)">
     <defs>
      <path id="STIXGeneral-Regular-4d" d="M 5530 0 
L 3738 0 
L 3738 122 
Q 4115 147 4214 265 
Q 4314 384 4314 787 
L 4314 3661 
L 2682 0 
L 2592 0 
L 979 3514 
L 979 966 
Q 979 448 1088 294 
Q 1197 141 1574 122 
L 1574 0 
L 77 0 
L 77 122 
Q 358 141 480 205 
Q 602 269 650 432 
Q 698 595 698 966 
L 698 3514 
Q 698 3878 589 3984 
Q 480 4090 90 4115 
L 90 4237 
L 1357 4237 
L 2835 1024 
L 4250 4237 
L 5523 4237 
L 5523 4115 
Q 5178 4109 5072 3993 
Q 4966 3878 4966 3520 
L 4966 717 
Q 4966 378 5072 262 
Q 5178 147 5530 122 
L 5530 0 
z
" transform="scale(0.015625)"/>
      <path id="STIXGeneral-Regular-4c" d="M 3827 1114 
L 3520 0 
L 77 0 
L 77 122 
Q 429 141 531 256 
Q 634 371 634 736 
L 634 3494 
Q 634 3872 541 3981 
Q 448 4090 77 4115 
L 77 4237 
L 1888 4237 
L 1888 4115 
Q 1498 4090 1392 3984 
Q 1286 3878 1286 3507 
L 1286 538 
Q 1286 358 1398 304 
Q 1510 250 1862 250 
L 2310 250 
Q 3085 250 3392 640 
Q 3520 813 3661 1114 
L 3827 1114 
z
" transform="scale(0.015625)"/>
     </defs>
     <use xlink:href="#STIXGeneral-Regular-4d"/>
     <use xlink:href="#STIXGeneral-Regular-4c" x="88.899994"/>
     <use xlink:href="#STIXGeneral-Regular-34" x="149.999985"/>
     <use xlink:href="#STIXGeneral-Regular-35" x="199.999969"/>
     <use xlink:href="#STIXGeneral-Regular-20" x="249.999954"/>
     <use xlink:href="#STIXGeneral-Regular-4d" x="274.999939"/>
     <use xlink:href="#STIXGeneral-Regular-65" x="363.899933"/>
     <use xlink:href="#STIXGeneral-Regular-74" x="408.299927"/>
     <use xlink:href="#STIXGeneral-Regular-61" x="436.099915"/>
     <use xlink:href="#STIXGeneral-Regular-20" x="480.499908"/>
     <use xlink:href="#STIXGeneral-Regular-54" x="505.499893"/>
     <use xlink:href="#STIXGeneral-Regular-65" x="566.599884"/>
     <use xlink:href="#STIXGeneral-Regular-73" x="610.999878"/>
     <use xlink:href="#STIXGeneral-Regular-74" x="649.899872"/>
     <use xlink:href="#STIXGeneral-Regular-69" x="677.69986"/>
     <use xlink:href="#STIXGeneral-Regular-6e" x="705.499847"/>
     <use xlink:href="#STIXGeneral-Regular-67" x="755.499832"/>
    </g>
   </g>
   <g id="legend_1">
    <g id="patch_7">
     <path d="M 239.553437 205.166687 
L 347.646563 205.166687 
Q 350.446563 205.166687 350.446563 202.366687 
L 350.446563 130.953562 
Q 350.446563 128.153562 347.646563 128.153562 
L 239.553437 128.153562 
Q 236.753437 128.153562 236.753437 130.953562 
L 236.753437 202.366687 
Q 236.753437 205.166687 239.553437 205.166687 
z
" style="fill: #ffffff; opacity: 0.8; stroke: #cccccc; stroke-linejoin: miter"/>
    </g>
    <g id="line2d_34">
     <path d="M 240.953437 138.065125 
L 247.953437 138.065125 
L 254.953437 138.065125 
" style="fill: none; stroke: #1f77b4; stroke-width: 1.5; stroke-linecap: square"/>
    </g>
    <g id="text_19">
     <!-- bin-picking-v2 -->
     <g transform="translate(259.153437 141.915125)scale(0.14 -0.14)">
      <defs>
       <path id="STIXGeneral-Regular-62" d="M 979 4358 
L 979 2406 
Q 1082 2650 1315 2797 
Q 1549 2944 1843 2944 
Q 2349 2944 2672 2541 
Q 2995 2138 2995 1536 
Q 2995 832 2566 384 
Q 2138 -64 1498 -64 
Q 1107 -64 774 67 
Q 442 198 442 358 
L 442 3622 
Q 442 3859 384 3926 
Q 326 3994 128 3994 
Q 83 3994 19 3981 
L 19 4090 
L 211 4147 
Q 864 4346 947 4371 
L 979 4358 
z
M 979 2035 
L 979 474 
Q 979 326 1161 233 
Q 1344 141 1600 141 
Q 1978 141 2195 416 
Q 2432 710 2432 1261 
Q 2432 1888 2182 2240 
Q 1971 2541 1613 2541 
Q 1357 2541 1168 2390 
Q 979 2240 979 2035 
z
" transform="scale(0.015625)"/>
       <path id="STIXGeneral-Regular-2d" d="M 1824 1242 
L 250 1242 
L 250 1645 
L 1824 1645 
L 1824 1242 
z
" transform="scale(0.015625)"/>
       <path id="STIXGeneral-Regular-63" d="M 2547 998 
L 2637 941 
Q 2362 403 2112 205 
Q 1786 -64 1376 -64 
Q 845 -64 502 336 
Q 160 736 160 1357 
Q 160 2170 698 2618 
Q 1094 2944 1562 2944 
Q 1965 2944 2256 2749 
Q 2547 2554 2547 2285 
Q 2547 2176 2457 2096 
Q 2368 2016 2246 2016 
Q 2022 2016 1939 2310 
L 1901 2451 
Q 1850 2630 1773 2694 
Q 1696 2758 1523 2758 
Q 1133 2758 893 2451 
Q 653 2144 653 1645 
Q 653 1094 928 745 
Q 1203 397 1645 397 
Q 1920 397 2118 528 
Q 2317 659 2547 998 
z
" transform="scale(0.015625)"/>
       <path id="STIXGeneral-Regular-6b" d="M 3232 0 
L 1837 0 
L 1837 96 
L 1958 96 
Q 2093 96 2093 192 
Q 2093 250 2022 339 
L 1062 1606 
L 1062 429 
Q 1062 262 1142 185 
Q 1222 109 1414 102 
L 1542 96 
L 1542 0 
L 45 0 
L 45 96 
Q 390 154 457 214 
Q 525 275 525 525 
L 525 3610 
Q 525 3840 467 3920 
Q 410 4000 250 4000 
Q 211 4000 45 3987 
L 45 4090 
L 237 4141 
Q 621 4243 1037 4371 
L 1062 4358 
L 1062 1670 
L 1939 2451 
Q 2086 2586 2086 2675 
Q 2086 2739 2019 2761 
Q 1952 2784 1766 2790 
L 1766 2880 
L 3072 2880 
L 3072 2784 
Q 2752 2784 2505 2646 
Q 2259 2509 1690 1978 
L 1504 1805 
L 2483 563 
Q 2829 122 3232 96 
L 3232 0 
z
" transform="scale(0.015625)"/>
      </defs>
      <use xlink:href="#STIXGeneral-Regular-62"/>
      <use xlink:href="#STIXGeneral-Regular-69" x="49.999985"/>
      <use xlink:href="#STIXGeneral-Regular-6e" x="77.799973"/>
      <use xlink:href="#STIXGeneral-Regular-2d" x="127.799957"/>
      <use xlink:href="#STIXGeneral-Regular-70" x="161.099945"/>
      <use xlink:href="#STIXGeneral-Regular-69" x="211.09993"/>
      <use xlink:href="#STIXGeneral-Regular-63" x="238.899918"/>
      <use xlink:href="#STIXGeneral-Regular-6b" x="283.299911"/>
      <use xlink:href="#STIXGeneral-Regular-69" x="333.299896"/>
      <use xlink:href="#STIXGeneral-Regular-6e" x="361.099884"/>
      <use xlink:href="#STIXGeneral-Regular-67" x="411.099869"/>
      <use xlink:href="#STIXGeneral-Regular-2d" x="461.099854"/>
      <use xlink:href="#STIXGeneral-Regular-76" x="494.399841"/>
      <use xlink:href="#STIXGeneral-Regular-32" x="544.399826"/>
     </g>
    </g>
    <g id="line2d_35">
     <path d="M 240.953437 152.07825 
L 247.953437 152.07825 
L 254.953437 152.07825 
" style="fill: none; stroke: #ff7f0e; stroke-width: 1.5; stroke-linecap: square"/>
    </g>
    <g id="text_20">
     <!-- box-close-v2 -->
     <g transform="translate(259.153437 155.92825)scale(0.14 -0.14)">
      <defs>
       <path id="STIXGeneral-Regular-78" d="M 3066 0 
L 1779 0 
L 1779 96 
Q 1939 109 1987 137 
Q 2035 166 2035 250 
Q 2035 307 1997 365 
L 1414 1261 
L 909 474 
Q 781 275 781 211 
Q 781 96 1037 96 
L 1037 0 
L 109 0 
L 109 96 
Q 269 109 355 169 
Q 442 230 576 422 
L 1306 1478 
L 704 2400 
Q 557 2624 454 2704 
Q 352 2784 211 2784 
L 154 2784 
L 154 2880 
L 1478 2880 
L 1478 2784 
Q 1203 2778 1203 2643 
Q 1203 2509 1498 2074 
Q 1581 1958 1587 1946 
Q 1619 1990 1779 2227 
Q 1811 2285 1856 2349 
Q 1901 2413 1923 2451 
Q 1946 2490 1971 2528 
Q 1997 2566 2006 2595 
Q 2016 2624 2016 2643 
Q 2016 2765 1760 2784 
L 1760 2880 
L 2771 2880 
L 2771 2784 
Q 2445 2771 2253 2502 
L 1722 1734 
L 2541 480 
Q 2790 96 3066 96 
L 3066 0 
z
" transform="scale(0.015625)"/>
       <path id="STIXGeneral-Regular-6c" d="M 1645 0 
L 134 0 
L 134 96 
Q 435 122 531 221 
Q 627 320 627 589 
L 627 3590 
Q 627 3821 569 3910 
Q 512 4000 358 4000 
Q 224 4000 122 3987 
L 122 4090 
Q 730 4237 1133 4371 
L 1165 4346 
L 1165 557 
Q 1165 288 1254 201 
Q 1344 115 1645 96 
L 1645 0 
z
" transform="scale(0.015625)"/>
      </defs>
      <use xlink:href="#STIXGeneral-Regular-62"/>
      <use xlink:href="#STIXGeneral-Regular-6f" x="49.999985"/>
      <use xlink:href="#STIXGeneral-Regular-78" x="99.999969"/>
      <use xlink:href="#STIXGeneral-Regular-2d" x="149.999954"/>
      <use xlink:href="#STIXGeneral-Regular-63" x="183.299942"/>
      <use xlink:href="#STIXGeneral-Regular-6c" x="227.699936"/>
      <use xlink:href="#STIXGeneral-Regular-6f" x="255.499924"/>
      <use xlink:href="#STIXGeneral-Regular-73" x="305.499908"/>
      <use xlink:href="#STIXGeneral-Regular-65" x="344.399902"/>
      <use xlink:href="#STIXGeneral-Regular-2d" x="388.799896"/>
      <use xlink:href="#STIXGeneral-Regular-76" x="422.099884"/>
      <use xlink:href="#STIXGeneral-Regular-32" x="472.099869"/>
     </g>
    </g>
    <g id="line2d_36">
     <path d="M 240.953437 166.07825 
L 247.953437 166.07825 
L 254.953437 166.07825 
" style="fill: none; stroke: #2ca02c; stroke-width: 1.5; stroke-linecap: square"/>
    </g>
    <g id="text_21">
     <!-- hand-insert-v2 -->
     <g transform="translate(259.153437 169.92825)scale(0.14 -0.14)">
      <defs>
       <path id="STIXGeneral-Regular-68" d="M 3117 0 
L 1760 0 
L 1760 96 
Q 2042 128 2118 224 
Q 2195 320 2195 653 
L 2195 1920 
Q 2195 2598 1722 2598 
Q 1530 2598 1370 2508 
Q 1210 2419 1005 2195 
L 1005 653 
Q 1005 320 1081 224 
Q 1158 128 1440 96 
L 1440 0 
L 58 0 
L 58 96 
Q 333 134 400 224 
Q 467 314 467 653 
L 467 3667 
Q 467 3872 406 3933 
Q 346 3994 141 3994 
Q 83 3994 64 3987 
L 64 4090 
L 237 4141 
Q 730 4288 973 4371 
L 1005 4352 
L 1005 2406 
Q 1229 2694 1446 2819 
Q 1664 2944 1946 2944 
Q 2733 2944 2733 1926 
L 2733 653 
Q 2733 320 2793 233 
Q 2854 147 3117 96 
L 3117 0 
z
" transform="scale(0.015625)"/>
       <path id="STIXGeneral-Regular-64" d="M 3142 269 
L 2202 -64 
L 2176 -45 
L 2176 365 
Q 1869 -64 1357 -64 
Q 826 -64 499 317 
Q 173 698 173 1312 
Q 173 1990 563 2467 
Q 954 2944 1504 2944 
Q 1850 2944 2176 2669 
L 2176 3667 
Q 2176 3866 2118 3930 
Q 2061 3994 1882 3994 
Q 1792 3994 1741 3987 
L 1741 4090 
Q 2323 4243 2682 4371 
L 2714 4358 
L 2714 730 
Q 2714 506 2768 435 
Q 2822 365 2995 365 
Q 3034 365 3142 371 
L 3142 269 
z
M 2176 653 
L 2176 2125 
Q 2176 2381 1981 2573 
Q 1786 2765 1523 2765 
Q 1158 2765 940 2438 
Q 723 2112 723 1568 
Q 723 979 963 624 
Q 1203 269 1606 269 
Q 1907 269 2080 474 
Q 2176 582 2176 653 
z
" transform="scale(0.015625)"/>
      </defs>
      <use xlink:href="#STIXGeneral-Regular-68"/>
      <use xlink:href="#STIXGeneral-Regular-61" x="49.999985"/>
      <use xlink:href="#STIXGeneral-Regular-6e" x="94.399979"/>
      <use xlink:href="#STIXGeneral-Regular-64" x="144.399963"/>
      <use xlink:href="#STIXGeneral-Regular-2d" x="194.399948"/>
      <use xlink:href="#STIXGeneral-Regular-69" x="227.699936"/>
      <use xlink:href="#STIXGeneral-Regular-6e" x="255.499924"/>
      <use xlink:href="#STIXGeneral-Regular-73" x="305.499908"/>
      <use xlink:href="#STIXGeneral-Regular-65" x="344.399902"/>
      <use xlink:href="#STIXGeneral-Regular-72" x="388.799896"/>
      <use xlink:href="#STIXGeneral-Regular-74" x="422.099884"/>
      <use xlink:href="#STIXGeneral-Regular-2d" x="449.899872"/>
      <use xlink:href="#STIXGeneral-Regular-76" x="483.19986"/>
      <use xlink:href="#STIXGeneral-Regular-32" x="533.199844"/>
     </g>
    </g>
    <g id="line2d_37">
     <path d="M 240.953437 180.07825 
L 247.953437 180.07825 
L 254.953437 180.07825 
" style="fill: none; stroke: #d62728; stroke-width: 1.5; stroke-linecap: square"/>
    </g>
    <g id="text_22">
     <!-- door-lock-v2 -->
     <g transform="translate(259.153437 183.92825)scale(0.14 -0.14)">
      <use xlink:href="#STIXGeneral-Regular-64"/>
      <use xlink:href="#STIXGeneral-Regular-6f" x="49.999985"/>
      <use xlink:href="#STIXGeneral-Regular-6f" x="99.999969"/>
      <use xlink:href="#STIXGeneral-Regular-72" x="149.999954"/>
      <use xlink:href="#STIXGeneral-Regular-2d" x="183.299942"/>
      <use xlink:href="#STIXGeneral-Regular-6c" x="216.59993"/>
      <use xlink:href="#STIXGeneral-Regular-6f" x="244.399918"/>
      <use xlink:href="#STIXGeneral-Regular-63" x="294.399902"/>
      <use xlink:href="#STIXGeneral-Regular-6b" x="338.799896"/>
      <use xlink:href="#STIXGeneral-Regular-2d" x="388.799881"/>
      <use xlink:href="#STIXGeneral-Regular-76" x="422.099869"/>
      <use xlink:href="#STIXGeneral-Regular-32" x="472.099854"/>
     </g>
    </g>
    <g id="line2d_38">
     <path d="M 240.953437 194.07825 
L 247.953437 194.07825 
L 254.953437 194.07825 
" style="fill: none; stroke: #9467bd; stroke-width: 1.5; stroke-linecap: square"/>
    </g>
    <g id="text_23">
     <!-- door-unlock-v2 -->
     <g transform="translate(259.153437 197.92825)scale(0.14 -0.14)">
      <use xlink:href="#STIXGeneral-Regular-64"/>
      <use xlink:href="#STIXGeneral-Regular-6f" x="49.999985"/>
      <use xlink:href="#STIXGeneral-Regular-6f" x="99.999969"/>
      <use xlink:href="#STIXGeneral-Regular-72" x="149.999954"/>
      <use xlink:href="#STIXGeneral-Regular-2d" x="183.299942"/>
      <use xlink:href="#STIXGeneral-Regular-75" x="216.59993"/>
      <use xlink:href="#STIXGeneral-Regular-6e" x="266.599915"/>
      <use xlink:href="#STIXGeneral-Regular-6c" x="316.599899"/>
      <use xlink:href="#STIXGeneral-Regular-6f" x="344.399887"/>
      <use xlink:href="#STIXGeneral-Regular-63" x="394.399872"/>
      <use xlink:href="#STIXGeneral-Regular-6b" x="438.799866"/>
      <use xlink:href="#STIXGeneral-Regular-2d" x="488.79985"/>
      <use xlink:href="#STIXGeneral-Regular-76" x="522.099838"/>
      <use xlink:href="#STIXGeneral-Regular-32" x="572.099823"/>
     </g>
    </g>
   </g>
  </g>
 </g>
 <defs>
  <clipPath id="p50ab589747">
   <rect x="70.4" y="28.060125" width="446.4" height="277.2"/>
  </clipPath>
 </defs>
</svg>
