<?xml version="1.0" encoding="utf-8" standalone="no"?>
<!DOCTYPE svg PUBLIC "-//W3C//DTD SVG 1.1//EN"
  "http://www.w3.org/Graphics/SVG/1.1/DTD/svg11.dtd">
<svg xmlns:xlink="http://www.w3.org/1999/xlink" width="519.5pt" height="355.877pt" viewBox="0 0 519.5 355.877" xmlns="http://www.w3.org/2000/svg" version="1.1">
 <metadata>
  <rdf:RDF xmlns:dc="http://purl.org/dc/elements/1.1/" xmlns:cc="http://creativecommons.org/ns#" xmlns:rdf="http://www.w3.org/1999/02/22-rdf-syntax-ns#">
   <cc:Work>
    <dc:type rdf:resource="http://purl.org/dc/dcmitype/StillImage"/>
    <dc:date>2021-12-11T15:58:50.981461</dc:date>
    <dc:format>image/svg+xml</dc:format>
    <dc:creator>
     <cc:Agent>
      <dc:title>Matplotlib v3.5.0, https://matplotlib.org/</dc:title>
     </cc:Agent>
    </dc:creator>
   </cc:Work>
  </rdf:RDF>
 </metadata>
 <defs>
  <style type="text/css">*{stroke-linejoin: round; stroke-linecap: butt}</style>
 </defs>
 <g id="figure_1">
  <g id="patch_1">
   <path d="M 0 355.877 
L 519.5 355.877 
L 519.5 0 
L 0 0 
z
" style="fill: #ffffff"/>
  </g>
  <g id="axes_1">
   <g id="patch_2">
    <path d="M 65.9 305.260125 
L 512.3 305.260125 
L 512.3 28.060125 
L 65.9 28.060125 
z
" style="fill: #ffffff"/>
   </g>
   <g id="matplotlib.axis_1">
    <g id="xtick_1">
     <g id="line2d_1">
      <path d="M 84.877582 305.260125 
L 84.877582 28.060125 
" clip-path="url(#pc202862295)" style="fill: none; stroke: #b0b0b0; stroke-width: 0.8; stroke-linecap: square"/>
     </g>
     <g id="line2d_2">
      <defs>
       <path id="meafbe84146" d="M 0 0 
L 0 3.5 
" style="stroke: #000000; stroke-width: 0.8"/>
      </defs>
      <g>
       <use xlink:href="#meafbe84146" x="84.877582" y="305.260125" style="stroke: #000000; stroke-width: 0.8"/>
      </g>
     </g>
     <g id="text_1">
      <!-- 0 -->
      <g transform="translate(80.377582 324.553562)scale(0.18 -0.18)">
       <defs>
        <path id="STIXGeneral-Regular-30" d="M 3046 2112 
Q 3046 1683 2963 1302 
Q 2880 922 2717 602 
Q 2554 282 2266 96 
Q 1978 -90 1600 -90 
Q 1210 -90 915 108 
Q 621 307 461 640 
Q 301 973 227 1350 
Q 154 1728 154 2150 
Q 154 2746 301 3222 
Q 448 3699 790 4012 
Q 1133 4326 1626 4326 
Q 2253 4326 2649 3712 
Q 3046 3098 3046 2112 
z
M 2432 2080 
Q 2432 3091 2217 3625 
Q 2003 4160 1587 4160 
Q 1190 4160 979 3622 
Q 768 3085 768 2106 
Q 768 1120 979 598 
Q 1190 77 1600 77 
Q 2003 77 2217 598 
Q 2432 1120 2432 2080 
z
" transform="scale(0.015625)"/>
       </defs>
       <use xlink:href="#STIXGeneral-Regular-30"/>
      </g>
     </g>
    </g>
    <g id="xtick_2">
     <g id="line2d_3">
      <path d="M 149.733258 305.260125 
L 149.733258 28.060125 
" clip-path="url(#pc202862295)" style="fill: none; stroke: #b0b0b0; stroke-width: 0.8; stroke-linecap: square"/>
     </g>
     <g id="line2d_4">
      <g>
       <use xlink:href="#meafbe84146" x="149.733258" y="305.260125" style="stroke: #000000; stroke-width: 0.8"/>
      </g>
     </g>
     <g id="text_2">
      <!-- 1 -->
      <g transform="translate(145.233258 324.553562)scale(0.18 -0.18)">
       <defs>
        <path id="STIXGeneral-Regular-31" d="M 2522 0 
L 755 0 
L 755 96 
Q 1107 115 1235 227 
Q 1363 339 1363 608 
L 1363 3482 
Q 1363 3795 1171 3795 
Q 1082 3795 883 3718 
L 710 3654 
L 710 3744 
L 1856 4326 
L 1914 4307 
L 1914 486 
Q 1914 275 2042 185 
Q 2170 96 2522 96 
L 2522 0 
z
" transform="scale(0.015625)"/>
       </defs>
       <use xlink:href="#STIXGeneral-Regular-31"/>
      </g>
     </g>
    </g>
    <g id="xtick_3">
     <g id="line2d_5">
      <path d="M 214.588935 305.260125 
L 214.588935 28.060125 
" clip-path="url(#pc202862295)" style="fill: none; stroke: #b0b0b0; stroke-width: 0.8; stroke-linecap: square"/>
     </g>
     <g id="line2d_6">
      <g>
       <use xlink:href="#meafbe84146" x="214.588935" y="305.260125" style="stroke: #000000; stroke-width: 0.8"/>
      </g>
     </g>
     <g id="text_3">
      <!-- 2 -->
      <g transform="translate(210.088935 324.553562)scale(0.18 -0.18)">
       <defs>
        <path id="STIXGeneral-Regular-32" d="M 3034 877 
L 2688 0 
L 186 0 
L 186 77 
L 1325 1286 
Q 1773 1754 1965 2144 
Q 2157 2534 2157 2950 
Q 2157 3379 1920 3616 
Q 1683 3853 1267 3853 
Q 922 3853 720 3673 
Q 518 3494 326 3021 
L 192 3053 
Q 301 3648 630 3987 
Q 960 4326 1523 4326 
Q 2054 4326 2380 4006 
Q 2707 3686 2707 3200 
Q 2707 2477 1888 1613 
L 832 486 
L 2330 486 
Q 2541 486 2665 569 
Q 2790 653 2944 915 
L 3034 877 
z
" transform="scale(0.015625)"/>
       </defs>
       <use xlink:href="#STIXGeneral-Regular-32"/>
      </g>
     </g>
    </g>
    <g id="xtick_4">
     <g id="line2d_7">
      <path d="M 279.444611 305.260125 
L 279.444611 28.060125 
" clip-path="url(#pc202862295)" style="fill: none; stroke: #b0b0b0; stroke-width: 0.8; stroke-linecap: square"/>
     </g>
     <g id="line2d_8">
      <g>
       <use xlink:href="#meafbe84146" x="279.444611" y="305.260125" style="stroke: #000000; stroke-width: 0.8"/>
      </g>
     </g>
     <g id="text_4">
      <!-- 3 -->
      <g transform="translate(274.944611 324.553562)scale(0.18 -0.18)">
       <defs>
        <path id="STIXGeneral-Regular-33" d="M 390 3264 
L 288 3290 
Q 435 3770 748 4048 
Q 1062 4326 1542 4326 
Q 1990 4326 2265 4083 
Q 2541 3840 2541 3450 
Q 2541 2925 1946 2566 
Q 2298 2413 2477 2227 
Q 2758 1914 2758 1402 
Q 2758 890 2464 506 
Q 2246 211 1840 60 
Q 1434 -90 979 -90 
Q 262 -90 262 275 
Q 262 378 339 442 
Q 416 506 525 506 
Q 685 506 915 339 
Q 1197 141 1466 141 
Q 1818 141 2058 425 
Q 2298 710 2298 1120 
Q 2298 1856 1632 2048 
Q 1434 2112 979 2112 
L 979 2202 
Q 1338 2323 1517 2432 
Q 2035 2726 2035 3290 
Q 2035 3610 1852 3776 
Q 1670 3942 1344 3942 
Q 768 3942 390 3264 
z
" transform="scale(0.015625)"/>
       </defs>
       <use xlink:href="#STIXGeneral-Regular-33"/>
      </g>
     </g>
    </g>
    <g id="xtick_5">
     <g id="line2d_9">
      <path d="M 344.300288 305.260125 
L 344.300288 28.060125 
" clip-path="url(#pc202862295)" style="fill: none; stroke: #b0b0b0; stroke-width: 0.8; stroke-linecap: square"/>
     </g>
     <g id="line2d_10">
      <g>
       <use xlink:href="#meafbe84146" x="344.300288" y="305.260125" style="stroke: #000000; stroke-width: 0.8"/>
      </g>
     </g>
     <g id="text_5">
      <!-- 4 -->
      <g transform="translate(339.800288 324.553562)scale(0.18 -0.18)">
       <defs>
        <path id="STIXGeneral-Regular-34" d="M 3027 1069 
L 2368 1069 
L 2368 0 
L 1869 0 
L 1869 1069 
L 77 1069 
L 77 1478 
L 2086 4326 
L 2368 4326 
L 2368 1478 
L 3027 1478 
L 3027 1069 
z
M 1869 1478 
L 1869 3674 
L 333 1478 
L 1869 1478 
z
" transform="scale(0.015625)"/>
       </defs>
       <use xlink:href="#STIXGeneral-Regular-34"/>
      </g>
     </g>
    </g>
    <g id="xtick_6">
     <g id="line2d_11">
      <path d="M 409.155964 305.260125 
L 409.155964 28.060125 
" clip-path="url(#pc202862295)" style="fill: none; stroke: #b0b0b0; stroke-width: 0.8; stroke-linecap: square"/>
     </g>
     <g id="line2d_12">
      <g>
       <use xlink:href="#meafbe84146" x="409.155964" y="305.260125" style="stroke: #000000; stroke-width: 0.8"/>
      </g>
     </g>
     <g id="text_6">
      <!-- 5 -->
      <g transform="translate(404.655964 324.553562)scale(0.18 -0.18)">
       <defs>
        <path id="STIXGeneral-Regular-35" d="M 2803 4358 
L 2573 3814 
Q 2534 3731 2400 3731 
L 1158 3731 
L 902 3187 
Q 1606 3053 1920 2896 
Q 2234 2739 2502 2368 
Q 2726 2061 2726 1555 
Q 2726 1094 2576 780 
Q 2426 467 2099 224 
Q 1664 -90 1011 -90 
Q 646 -90 422 19 
Q 198 128 198 307 
Q 198 550 486 550 
Q 717 550 960 352 
Q 1210 147 1414 147 
Q 1747 147 2012 480 
Q 2278 813 2278 1229 
Q 2278 1843 1850 2189 
Q 1293 2637 486 2637 
Q 410 2637 410 2688 
L 416 2720 
L 1114 4237 
L 2438 4237 
Q 2547 4237 2608 4269 
Q 2669 4301 2746 4403 
L 2803 4358 
z
" transform="scale(0.015625)"/>
       </defs>
       <use xlink:href="#STIXGeneral-Regular-35"/>
      </g>
     </g>
    </g>
    <g id="xtick_7">
     <g id="line2d_13">
      <path d="M 474.011641 305.260125 
L 474.011641 28.060125 
" clip-path="url(#pc202862295)" style="fill: none; stroke: #b0b0b0; stroke-width: 0.8; stroke-linecap: square"/>
     </g>
     <g id="line2d_14">
      <g>
       <use xlink:href="#meafbe84146" x="474.011641" y="305.260125" style="stroke: #000000; stroke-width: 0.8"/>
      </g>
     </g>
     <g id="text_7">
      <!-- 6 -->
      <g transform="translate(469.511641 324.553562)scale(0.18 -0.18)">
       <defs>
        <path id="STIXGeneral-Regular-36" d="M 2854 4378 
L 2867 4275 
Q 2112 4154 1606 3664 
Q 1101 3174 973 2451 
Q 1344 2739 1786 2739 
Q 2349 2739 2672 2380 
Q 2995 2022 2995 1402 
Q 2995 774 2669 378 
Q 2291 -90 1651 -90 
Q 870 -90 518 557 
Q 218 1107 218 1786 
Q 218 2835 915 3552 
Q 1312 3962 1731 4131 
Q 2150 4301 2854 4378 
z
M 2419 1203 
Q 2419 2445 1555 2445 
Q 1235 2445 1024 2275 
Q 813 2106 813 1702 
Q 813 954 1046 522 
Q 1280 90 1722 90 
Q 2061 90 2240 394 
Q 2419 698 2419 1203 
z
" transform="scale(0.015625)"/>
       </defs>
       <use xlink:href="#STIXGeneral-Regular-36"/>
      </g>
     </g>
    </g>
    <g id="text_8">
     <!-- Training Environment Steps -->
     <g transform="translate(187.104688 344.753562)scale(0.18 -0.18)">
      <defs>
       <path id="STIXGeneral-Regular-54" d="M 3795 3149 
L 3642 3149 
Q 3539 3674 3353 3821 
Q 3168 3968 2656 3968 
L 2278 3968 
L 2278 710 
Q 2278 346 2387 243 
Q 2496 141 2893 122 
L 2893 0 
L 1024 0 
L 1024 122 
Q 1427 147 1526 256 
Q 1626 365 1626 787 
L 1626 3968 
L 1242 3968 
Q 723 3968 540 3817 
Q 358 3667 262 3149 
L 109 3149 
L 154 4237 
L 3750 4237 
L 3795 3149 
z
" transform="scale(0.015625)"/>
       <path id="STIXGeneral-Regular-72" d="M 1024 2931 
L 1024 2342 
Q 1267 2688 1430 2816 
Q 1594 2944 1792 2944 
Q 1958 2944 2051 2854 
Q 2144 2765 2144 2605 
Q 2144 2470 2077 2393 
Q 2010 2317 1894 2317 
Q 1773 2317 1638 2445 
Q 1536 2541 1472 2541 
Q 1338 2541 1181 2355 
Q 1024 2170 1024 2016 
L 1024 576 
Q 1024 301 1133 205 
Q 1242 109 1568 96 
L 1568 0 
L 32 0 
L 32 96 
Q 339 154 412 224 
Q 486 294 486 538 
L 486 2138 
Q 486 2349 438 2435 
Q 390 2522 269 2522 
Q 166 2522 45 2496 
L 45 2598 
Q 448 2726 992 2944 
L 1024 2931 
z
" transform="scale(0.015625)"/>
       <path id="STIXGeneral-Regular-61" d="M 2829 422 
L 2829 243 
Q 2586 -64 2253 -64 
Q 1888 -64 1843 403 
L 1837 403 
Q 1427 -64 909 -64 
Q 608 -64 422 112 
Q 237 288 237 602 
Q 237 1050 685 1350 
Q 992 1555 1837 1869 
L 1837 2214 
Q 1837 2502 1699 2646 
Q 1562 2790 1338 2790 
Q 1146 2790 1018 2697 
Q 890 2605 890 2477 
Q 890 2419 909 2348 
Q 928 2278 928 2208 
Q 928 2112 841 2029 
Q 755 1946 634 1946 
Q 525 1946 441 2029 
Q 358 2112 358 2240 
Q 358 2547 685 2752 
Q 986 2944 1421 2944 
Q 1939 2944 2176 2656 
Q 2291 2522 2323 2384 
Q 2355 2246 2355 1946 
L 2355 723 
Q 2355 301 2554 301 
Q 2682 301 2829 422 
z
M 1837 813 
L 1837 1715 
Q 1248 1510 1018 1293 
Q 800 1094 800 800 
Q 800 557 921 432 
Q 1043 307 1242 307 
Q 1453 307 1613 410 
Q 1747 506 1792 589 
Q 1837 672 1837 813 
z
" transform="scale(0.015625)"/>
       <path id="STIXGeneral-Regular-69" d="M 1152 4045 
Q 1152 3904 1056 3811 
Q 960 3718 819 3718 
Q 685 3718 592 3811 
Q 499 3904 499 4045 
Q 499 4179 595 4275 
Q 691 4371 826 4371 
Q 966 4371 1059 4275 
Q 1152 4179 1152 4045 
z
M 1619 0 
L 102 0 
L 102 96 
Q 435 115 521 211 
Q 608 307 608 666 
L 608 2118 
Q 608 2342 563 2432 
Q 518 2522 397 2522 
Q 243 2522 128 2490 
L 128 2592 
L 1120 2944 
L 1146 2918 
L 1146 672 
Q 1146 314 1226 218 
Q 1306 122 1619 96 
L 1619 0 
z
" transform="scale(0.015625)"/>
       <path id="STIXGeneral-Regular-6e" d="M 3104 0 
L 1773 0 
L 1779 96 
Q 2016 115 2096 233 
Q 2176 352 2176 672 
L 2176 1946 
Q 2176 2592 1709 2592 
Q 1549 2592 1408 2515 
Q 1267 2438 1050 2227 
L 1050 461 
Q 1050 269 1136 192 
Q 1222 115 1466 96 
L 1466 0 
L 115 0 
L 115 96 
Q 358 115 435 214 
Q 512 314 512 602 
L 512 2157 
Q 512 2394 467 2483 
Q 422 2573 288 2573 
Q 160 2573 102 2547 
L 102 2656 
Q 550 2784 979 2944 
L 1030 2925 
L 1030 2426 
L 1037 2426 
Q 1491 2944 1958 2944 
Q 2323 2944 2518 2688 
Q 2714 2432 2714 1958 
L 2714 544 
Q 2714 288 2790 205 
Q 2867 122 3104 96 
L 3104 0 
z
" transform="scale(0.015625)"/>
       <path id="STIXGeneral-Regular-67" d="M 3008 2483 
L 2477 2483 
Q 2598 2208 2598 1946 
Q 2598 1453 2265 1203 
Q 1933 954 1600 954 
Q 1530 954 1357 973 
L 1235 986 
Q 1107 947 979 812 
Q 851 678 851 582 
Q 851 435 1350 410 
L 2176 371 
Q 2528 358 2739 172 
Q 2950 -13 2950 -314 
Q 2950 -685 2566 -986 
Q 2035 -1395 1286 -1395 
Q 826 -1395 502 -1212 
Q 179 -1030 179 -774 
Q 179 -595 320 -419 
Q 461 -243 806 6 
Q 602 102 534 172 
Q 467 243 467 346 
Q 467 531 762 787 
Q 909 915 1037 1043 
Q 717 1203 579 1401 
Q 442 1600 442 1901 
Q 442 2336 752 2640 
Q 1062 2944 1510 2944 
Q 1766 2944 2022 2848 
L 2163 2797 
Q 2349 2733 2515 2733 
L 3008 2733 
L 3008 2483 
z
M 973 2163 
L 973 2144 
Q 973 1683 1155 1398 
Q 1338 1114 1632 1114 
Q 1850 1114 1978 1270 
Q 2106 1427 2106 1690 
Q 2106 2112 1914 2464 
Q 1754 2765 1446 2765 
Q 1222 2765 1097 2605 
Q 973 2445 973 2163 
z
M 2771 -410 
Q 2771 -230 2595 -163 
Q 2419 -96 1978 -96 
Q 1344 -96 941 -13 
Q 749 -243 688 -348 
Q 627 -454 627 -563 
Q 627 -774 880 -902 
Q 1133 -1030 1555 -1030 
Q 2099 -1030 2435 -860 
Q 2771 -691 2771 -410 
z
" transform="scale(0.015625)"/>
       <path id="STIXGeneral-Regular-20" transform="scale(0.015625)"/>
       <path id="STIXGeneral-Regular-45" d="M 3821 1082 
L 3526 0 
L 77 0 
L 77 122 
Q 442 147 538 252 
Q 634 358 634 730 
L 634 3520 
Q 634 3878 534 3987 
Q 435 4096 77 4115 
L 77 4237 
L 3469 4237 
L 3494 3322 
L 3334 3322 
Q 3264 3750 3085 3872 
Q 2906 3994 2349 3994 
L 1510 3994 
Q 1370 3994 1328 3952 
Q 1286 3910 1286 3763 
L 1286 2355 
L 2253 2355 
Q 2656 2355 2787 2470 
Q 2918 2586 2976 2970 
L 3123 2970 
L 3123 1472 
L 2976 1472 
Q 2918 1875 2790 1984 
Q 2662 2093 2253 2093 
L 1286 2093 
L 1286 538 
Q 1286 346 1420 291 
Q 1555 237 1933 237 
L 2163 237 
Q 2848 237 3136 403 
Q 3424 570 3642 1082 
L 3821 1082 
z
" transform="scale(0.015625)"/>
       <path id="STIXGeneral-Regular-76" d="M 3053 2880 
L 3053 2784 
Q 2906 2771 2835 2688 
Q 2765 2605 2637 2285 
L 1818 230 
Q 1690 -90 1638 -90 
Q 1587 -90 1523 77 
Q 1510 96 1497 141 
Q 1485 186 1472 211 
L 704 2048 
Q 499 2534 403 2652 
Q 307 2771 122 2784 
L 122 2880 
L 1376 2880 
L 1376 2784 
Q 1210 2771 1146 2732 
Q 1082 2694 1082 2611 
Q 1082 2509 1139 2368 
L 1792 730 
L 2426 2387 
Q 2464 2483 2464 2579 
Q 2464 2758 2163 2784 
L 2163 2880 
L 3053 2880 
z
" transform="scale(0.015625)"/>
       <path id="STIXGeneral-Regular-6f" d="M 3008 1478 
Q 3008 806 2608 371 
Q 2208 -64 1568 -64 
Q 979 -64 582 368 
Q 186 800 186 1459 
Q 186 2125 582 2534 
Q 979 2944 1626 2944 
Q 2221 2944 2614 2537 
Q 3008 2131 3008 1478 
z
M 2432 1306 
Q 2432 2035 2112 2445 
Q 1856 2765 1504 2765 
Q 1171 2765 966 2493 
Q 762 2221 762 1747 
Q 762 928 1101 435 
Q 1318 115 1677 115 
Q 2029 115 2230 432 
Q 2432 749 2432 1306 
z
" transform="scale(0.015625)"/>
       <path id="STIXGeneral-Regular-6d" d="M 4960 0 
L 3565 0 
L 3565 96 
Q 3834 122 3907 208 
Q 3981 294 3981 576 
L 3981 1894 
Q 3981 2278 3869 2444 
Q 3757 2611 3488 2611 
Q 3264 2611 3107 2521 
Q 2950 2432 2803 2221 
L 2803 608 
Q 2803 301 2896 201 
Q 2989 102 3264 96 
L 3264 0 
L 1830 0 
L 1830 96 
Q 2112 115 2189 188 
Q 2266 262 2266 550 
L 2266 1901 
Q 2266 2611 1850 2611 
Q 1670 2611 1468 2531 
Q 1267 2451 1171 2336 
Q 1088 2240 1088 2227 
L 1088 448 
Q 1088 243 1177 176 
Q 1267 109 1523 96 
L 1523 0 
L 102 0 
L 102 96 
Q 371 102 460 195 
Q 550 288 550 563 
L 550 2150 
Q 550 2387 499 2480 
Q 448 2573 326 2573 
Q 230 2573 122 2547 
L 122 2656 
Q 557 2778 1011 2944 
L 1062 2925 
L 1062 2451 
L 1075 2451 
Q 1363 2752 1584 2848 
Q 1805 2944 2054 2944 
Q 2560 2944 2733 2406 
Q 3232 2944 3776 2944 
Q 4518 2944 4518 1792 
L 4518 493 
Q 4518 282 4582 202 
Q 4646 122 4794 109 
L 4960 96 
L 4960 0 
z
" transform="scale(0.015625)"/>
       <path id="STIXGeneral-Regular-65" d="M 2611 1050 
L 2714 1005 
Q 2330 -64 1376 -64 
Q 813 -64 486 329 
Q 160 723 160 1389 
Q 160 2074 525 2509 
Q 890 2944 1485 2944 
Q 2061 2944 2374 2502 
Q 2560 2246 2592 1773 
L 621 1773 
Q 646 1370 700 1158 
Q 755 947 915 730 
Q 1184 378 1626 378 
Q 1939 378 2153 531 
Q 2368 685 2611 1050 
z
M 634 1978 
L 1939 1978 
Q 1882 2381 1750 2547 
Q 1619 2714 1312 2714 
Q 1043 2714 864 2525 
Q 685 2336 634 1978 
z
" transform="scale(0.015625)"/>
       <path id="STIXGeneral-Regular-74" d="M 1702 493 
L 1786 422 
Q 1478 -64 1011 -64 
Q 448 -64 448 749 
L 448 2675 
L 109 2675 
Q 83 2694 83 2720 
Q 83 2771 192 2842 
Q 435 2982 813 3526 
Q 826 3546 874 3606 
Q 922 3667 941 3706 
Q 986 3706 986 3622 
L 986 2880 
L 1632 2880 
L 1632 2675 
L 986 2675 
L 986 845 
Q 986 538 1062 403 
Q 1139 269 1318 269 
Q 1510 269 1702 493 
z
" transform="scale(0.015625)"/>
       <path id="STIXGeneral-Regular-53" d="M 3002 2963 
L 2842 2963 
Q 2733 3360 2579 3565 
Q 2189 4064 1651 4064 
Q 1357 4064 1181 3894 
Q 1005 3725 1005 3456 
Q 1005 3328 1069 3206 
Q 1133 3085 1206 2998 
Q 1280 2912 1465 2784 
Q 1651 2656 1766 2589 
Q 1882 2522 2150 2362 
Q 2669 2061 2905 1763 
Q 3142 1466 3142 1107 
Q 3142 576 2771 243 
Q 2400 -90 1837 -90 
Q 1421 -90 1082 58 
Q 915 128 781 128 
Q 704 128 653 70 
Q 602 13 602 -83 
L 461 -83 
L 275 1274 
L 416 1274 
Q 845 141 1734 141 
Q 2074 141 2285 342 
Q 2496 544 2496 858 
Q 2496 1158 2310 1363 
Q 2003 1696 1235 2106 
Q 454 2522 454 3206 
Q 454 3718 768 4022 
Q 1082 4326 1568 4326 
Q 1907 4326 2240 4186 
Q 2413 4109 2522 4109 
Q 2688 4109 2726 4326 
L 2861 4326 
L 3002 2963 
z
" transform="scale(0.015625)"/>
       <path id="STIXGeneral-Regular-70" d="M 1018 2931 
L 1018 2438 
Q 1421 2944 1939 2944 
Q 2406 2944 2707 2560 
Q 3008 2176 3008 1581 
Q 3008 883 2621 409 
Q 2234 -64 1664 -64 
Q 1466 -64 1328 -6 
Q 1190 51 1018 211 
L 1018 -794 
Q 1018 -1094 1120 -1180 
Q 1222 -1267 1581 -1274 
L 1581 -1389 
L 32 -1389 
L 32 -1280 
Q 314 -1254 397 -1171 
Q 480 -1088 480 -838 
L 480 2157 
Q 480 2381 429 2451 
Q 378 2522 218 2522 
Q 115 2522 58 2515 
L 58 2618 
Q 506 2752 979 2944 
L 1018 2931 
z
M 1018 2138 
L 1018 563 
Q 1018 422 1238 281 
Q 1459 141 1683 141 
Q 2029 141 2243 467 
Q 2458 794 2458 1325 
Q 2458 1888 2243 2224 
Q 2029 2560 1670 2560 
Q 1446 2560 1232 2419 
Q 1018 2278 1018 2138 
z
" transform="scale(0.015625)"/>
       <path id="STIXGeneral-Regular-73" d="M 998 1926 
L 1664 1523 
Q 1984 1331 2105 1164 
Q 2227 998 2227 736 
Q 2227 416 1961 176 
Q 1696 -64 1331 -64 
Q 1030 -64 864 -6 
Q 691 51 570 51 
Q 461 51 416 -26 
L 333 -26 
L 333 979 
L 435 979 
Q 538 512 730 294 
Q 922 77 1248 77 
Q 1485 77 1632 211 
Q 1779 346 1779 550 
Q 1779 845 1440 1030 
L 1094 1222 
Q 326 1651 326 2150 
Q 326 2522 566 2730 
Q 806 2938 1210 2938 
Q 1491 2938 1638 2867 
Q 1754 2816 1818 2816 
Q 1862 2816 1920 2880 
L 1990 2880 
L 2022 2010 
L 1926 2010 
Q 1818 2445 1654 2621 
Q 1491 2797 1203 2797 
Q 986 2797 854 2688 
Q 723 2579 723 2362 
Q 723 2253 796 2128 
Q 870 2003 998 1926 
z
" transform="scale(0.015625)"/>
      </defs>
      <use xlink:href="#STIXGeneral-Regular-54"/>
      <use xlink:href="#STIXGeneral-Regular-72" x="61.099991"/>
      <use xlink:href="#STIXGeneral-Regular-61" x="94.399979"/>
      <use xlink:href="#STIXGeneral-Regular-69" x="138.799973"/>
      <use xlink:href="#STIXGeneral-Regular-6e" x="166.59996"/>
      <use xlink:href="#STIXGeneral-Regular-69" x="216.599945"/>
      <use xlink:href="#STIXGeneral-Regular-6e" x="244.399933"/>
      <use xlink:href="#STIXGeneral-Regular-67" x="294.399918"/>
      <use xlink:href="#STIXGeneral-Regular-20" x="344.399902"/>
      <use xlink:href="#STIXGeneral-Regular-45" x="369.399887"/>
      <use xlink:href="#STIXGeneral-Regular-6e" x="430.499878"/>
      <use xlink:href="#STIXGeneral-Regular-76" x="480.499863"/>
      <use xlink:href="#STIXGeneral-Regular-69" x="530.499847"/>
      <use xlink:href="#STIXGeneral-Regular-72" x="558.299835"/>
      <use xlink:href="#STIXGeneral-Regular-6f" x="591.599823"/>
      <use xlink:href="#STIXGeneral-Regular-6e" x="641.599808"/>
      <use xlink:href="#STIXGeneral-Regular-6d" x="691.599792"/>
      <use xlink:href="#STIXGeneral-Regular-65" x="769.39978"/>
      <use xlink:href="#STIXGeneral-Regular-6e" x="813.799774"/>
      <use xlink:href="#STIXGeneral-Regular-74" x="863.799759"/>
      <use xlink:href="#STIXGeneral-Regular-20" x="891.599747"/>
      <use xlink:href="#STIXGeneral-Regular-53" x="916.599731"/>
      <use xlink:href="#STIXGeneral-Regular-74" x="972.199722"/>
      <use xlink:href="#STIXGeneral-Regular-65" x="999.99971"/>
      <use xlink:href="#STIXGeneral-Regular-70" x="1044.399704"/>
      <use xlink:href="#STIXGeneral-Regular-73" x="1094.399689"/>
     </g>
    </g>
    <g id="text_9">
     <!-- 1e8 -->
     <g transform="translate(486.306875 343.753562)scale(0.18 -0.18)">
      <defs>
       <path id="STIXGeneral-Regular-38" d="M 2848 992 
Q 2848 499 2505 204 
Q 2163 -90 1587 -90 
Q 1050 -90 704 204 
Q 358 499 358 954 
Q 358 1293 524 1533 
Q 691 1773 1190 2125 
Q 710 2522 553 2765 
Q 397 3008 397 3328 
Q 397 3782 745 4054 
Q 1094 4326 1638 4326 
Q 2106 4326 2410 4060 
Q 2714 3795 2714 3411 
Q 2714 3059 2531 2848 
Q 2349 2637 1856 2374 
Q 2432 1990 2640 1689 
Q 2848 1389 2848 992 
z
M 2272 3411 
Q 2272 3744 2086 3945 
Q 1901 4147 1574 4147 
Q 1248 4147 1059 3977 
Q 870 3808 870 3513 
Q 870 3219 1059 2979 
Q 1248 2739 1670 2490 
Q 1997 2682 2134 2896 
Q 2272 3110 2272 3411 
z
M 1734 1741 
L 1357 1997 
Q 1075 1766 960 1545 
Q 845 1325 845 1011 
Q 845 576 1065 333 
Q 1286 90 1658 90 
Q 1971 90 2166 285 
Q 2362 480 2362 794 
Q 2362 1082 2214 1299 
Q 2067 1517 1734 1741 
z
" transform="scale(0.015625)"/>
      </defs>
      <use xlink:href="#STIXGeneral-Regular-31"/>
      <use xlink:href="#STIXGeneral-Regular-65" x="49.999985"/>
      <use xlink:href="#STIXGeneral-Regular-38" x="94.399979"/>
     </g>
    </g>
   </g>
   <g id="matplotlib.axis_2">
    <g id="ytick_1">
     <g id="line2d_15">
      <path d="M 65.9 292.660125 
L 512.3 292.660125 
" clip-path="url(#pc202862295)" style="fill: none; stroke: #b0b0b0; stroke-width: 0.8; stroke-linecap: square"/>
     </g>
     <g id="line2d_16">
      <defs>
       <path id="m2c780e24f1" d="M 0 0 
L -3.5 0 
" style="stroke: #000000; stroke-width: 0.8"/>
      </defs>
      <g>
       <use xlink:href="#m2c780e24f1" x="65.9" y="292.660125" style="stroke: #000000; stroke-width: 0.8"/>
      </g>
     </g>
     <g id="text_10">
      <!-- 0.00 -->
      <g transform="translate(27.4 298.806844)scale(0.18 -0.18)">
       <defs>
        <path id="STIXGeneral-Regular-2e" d="M 1158 275 
Q 1158 134 1052 32 
Q 947 -70 800 -70 
Q 653 -70 550 32 
Q 448 134 448 281 
Q 448 429 553 534 
Q 659 640 806 640 
Q 947 640 1052 531 
Q 1158 422 1158 275 
z
" transform="scale(0.015625)"/>
       </defs>
       <use xlink:href="#STIXGeneral-Regular-30"/>
       <use xlink:href="#STIXGeneral-Regular-2e" x="49.999985"/>
       <use xlink:href="#STIXGeneral-Regular-30" x="74.999969"/>
       <use xlink:href="#STIXGeneral-Regular-30" x="124.999954"/>
      </g>
     </g>
    </g>
    <g id="ytick_2">
     <g id="line2d_17">
      <path d="M 65.9 220.77013 
L 512.3 220.77013 
" clip-path="url(#pc202862295)" style="fill: none; stroke: #b0b0b0; stroke-width: 0.8; stroke-linecap: square"/>
     </g>
     <g id="line2d_18">
      <g>
       <use xlink:href="#m2c780e24f1" x="65.9" y="220.77013" style="stroke: #000000; stroke-width: 0.8"/>
      </g>
     </g>
     <g id="text_11">
      <!-- 0.05 -->
      <g transform="translate(27.4 226.916849)scale(0.18 -0.18)">
       <use xlink:href="#STIXGeneral-Regular-30"/>
       <use xlink:href="#STIXGeneral-Regular-2e" x="49.999985"/>
       <use xlink:href="#STIXGeneral-Regular-30" x="74.999969"/>
       <use xlink:href="#STIXGeneral-Regular-35" x="124.999954"/>
      </g>
     </g>
    </g>
    <g id="ytick_3">
     <g id="line2d_19">
      <path d="M 65.9 148.880136 
L 512.3 148.880136 
" clip-path="url(#pc202862295)" style="fill: none; stroke: #b0b0b0; stroke-width: 0.8; stroke-linecap: square"/>
     </g>
     <g id="line2d_20">
      <g>
       <use xlink:href="#m2c780e24f1" x="65.9" y="148.880136" style="stroke: #000000; stroke-width: 0.8"/>
      </g>
     </g>
     <g id="text_12">
      <!-- 0.10 -->
      <g transform="translate(27.4 155.026855)scale(0.18 -0.18)">
       <use xlink:href="#STIXGeneral-Regular-30"/>
       <use xlink:href="#STIXGeneral-Regular-2e" x="49.999985"/>
       <use xlink:href="#STIXGeneral-Regular-31" x="74.999969"/>
       <use xlink:href="#STIXGeneral-Regular-30" x="124.999954"/>
      </g>
     </g>
    </g>
    <g id="ytick_4">
     <g id="line2d_21">
      <path d="M 65.9 76.990141 
L 512.3 76.990141 
" clip-path="url(#pc202862295)" style="fill: none; stroke: #b0b0b0; stroke-width: 0.8; stroke-linecap: square"/>
     </g>
     <g id="line2d_22">
      <g>
       <use xlink:href="#m2c780e24f1" x="65.9" y="76.990141" style="stroke: #000000; stroke-width: 0.8"/>
      </g>
     </g>
     <g id="text_13">
      <!-- 0.15 -->
      <g transform="translate(27.4 83.13686)scale(0.18 -0.18)">
       <use xlink:href="#STIXGeneral-Regular-30"/>
       <use xlink:href="#STIXGeneral-Regular-2e" x="49.999985"/>
       <use xlink:href="#STIXGeneral-Regular-31" x="74.999969"/>
       <use xlink:href="#STIXGeneral-Regular-35" x="124.999954"/>
      </g>
     </g>
    </g>
    <g id="text_14">
     <!-- Success Rate -->
     <g transform="translate(19.493438 213.9045)rotate(-90)scale(0.18 -0.18)">
      <defs>
       <path id="STIXGeneral-Regular-75" d="M 3072 320 
L 3072 230 
Q 2573 96 2195 -58 
L 2163 -38 
L 2163 486 
L 2150 486 
Q 1747 -64 1235 -64 
Q 870 -64 662 160 
Q 454 384 454 755 
L 454 2362 
Q 454 2598 371 2688 
Q 288 2778 58 2790 
L 58 2880 
L 992 2880 
L 992 813 
Q 992 595 1123 451 
Q 1254 307 1446 307 
Q 1760 307 1984 506 
Q 2067 582 2099 649 
Q 2131 717 2131 877 
L 2131 2355 
Q 2131 2605 2041 2678 
Q 1952 2752 1658 2771 
L 1658 2880 
L 2669 2880 
L 2669 685 
Q 2669 461 2742 390 
Q 2816 320 3034 320 
L 3072 320 
z
" transform="scale(0.015625)"/>
       <path id="STIXGeneral-Regular-63" d="M 2547 998 
L 2637 941 
Q 2362 403 2112 205 
Q 1786 -64 1376 -64 
Q 845 -64 502 336 
Q 160 736 160 1357 
Q 160 2170 698 2618 
Q 1094 2944 1562 2944 
Q 1965 2944 2256 2749 
Q 2547 2554 2547 2285 
Q 2547 2176 2457 2096 
Q 2368 2016 2246 2016 
Q 2022 2016 1939 2310 
L 1901 2451 
Q 1850 2630 1773 2694 
Q 1696 2758 1523 2758 
Q 1133 2758 893 2451 
Q 653 2144 653 1645 
Q 653 1094 928 745 
Q 1203 397 1645 397 
Q 1920 397 2118 528 
Q 2317 659 2547 998 
z
" transform="scale(0.015625)"/>
       <path id="STIXGeneral-Regular-52" d="M 4224 0 
L 3187 0 
L 1664 1971 
L 1306 1958 
L 1306 717 
Q 1306 352 1405 249 
Q 1504 147 1875 122 
L 1875 0 
L 109 0 
L 109 122 
Q 474 154 563 262 
Q 653 371 653 794 
L 653 3526 
Q 653 3885 563 3987 
Q 474 4090 109 4115 
L 109 4237 
L 1850 4237 
Q 2726 4237 3187 3859 
Q 3501 3603 3501 3091 
Q 3501 2221 2342 2042 
L 3622 422 
Q 3757 256 3878 198 
Q 4000 141 4224 122 
L 4224 0 
z
M 1306 3731 
L 1306 2195 
Q 1766 2202 1990 2246 
Q 2214 2291 2438 2413 
Q 2803 2618 2803 3142 
Q 2803 4000 1632 4000 
Q 1459 4000 1382 3945 
Q 1306 3891 1306 3731 
z
" transform="scale(0.015625)"/>
      </defs>
      <use xlink:href="#STIXGeneral-Regular-53"/>
      <use xlink:href="#STIXGeneral-Regular-75" x="55.599991"/>
      <use xlink:href="#STIXGeneral-Regular-63" x="105.599976"/>
      <use xlink:href="#STIXGeneral-Regular-63" x="149.999969"/>
      <use xlink:href="#STIXGeneral-Regular-65" x="194.399963"/>
      <use xlink:href="#STIXGeneral-Regular-73" x="238.799957"/>
      <use xlink:href="#STIXGeneral-Regular-73" x="277.699951"/>
      <use xlink:href="#STIXGeneral-Regular-20" x="316.599945"/>
      <use xlink:href="#STIXGeneral-Regular-52" x="341.59993"/>
      <use xlink:href="#STIXGeneral-Regular-61" x="408.299927"/>
      <use xlink:href="#STIXGeneral-Regular-74" x="452.699921"/>
      <use xlink:href="#STIXGeneral-Regular-65" x="480.499908"/>
     </g>
    </g>
   </g>
   <g id="line2d_23">
    <path d="M 86.190909 292.660125 
L 492.009091 292.660125 
L 492.009091 292.660125 
" clip-path="url(#pc202862295)" style="fill: none; stroke: #1f77b4; stroke-width: 1.5; stroke-linecap: square"/>
   </g>
   <g id="line2d_24">
    <path d="M 86.190909 292.660125 
L 99.324184 292.660125 
L 100.637511 281.157726 
L 101.950838 285.758686 
L 103.264166 277.016863 
L 104.577493 283.274168 
L 105.890821 287.028551 
L 107.204148 289.28118 
L 108.517476 290.632758 
L 109.830803 291.443705 
L 111.144131 291.930273 
L 112.457458 292.222214 
L 115.084113 292.502477 
L 119.024095 292.626073 
L 132.15737 292.659919 
L 141.350662 292.660119 
L 142.663989 281.157723 
L 143.977317 285.758684 
L 145.290644 288.51926 
L 146.603972 290.175606 
L 147.917299 291.169414 
L 149.230627 291.765698 
L 150.543954 292.123469 
L 151.857282 280.835732 
L 153.170609 285.565489 
L 154.483936 288.403344 
L 155.797264 290.106056 
L 157.110591 279.625285 
L 158.423919 284.839221 
L 159.737246 287.967583 
L 161.050574 289.8446 
L 162.363901 290.97081 
L 163.677229 291.646536 
L 164.990556 280.549573 
L 166.303883 285.393794 
L 167.617211 288.300326 
L 168.930538 290.044246 
L 170.243866 291.090597 
L 171.557193 291.718408 
L 172.870521 292.095095 
L 175.497176 292.456714 
L 178.123831 292.586897 
L 179.437158 281.113789 
L 180.750485 285.732324 
L 182.063813 277.001045 
L 183.37714 283.264677 
L 184.690468 287.022856 
L 186.003795 289.277764 
L 187.317123 290.630708 
L 188.63045 291.442475 
L 189.943778 291.929535 
L 191.257105 292.221771 
L 193.88376 292.502318 
L 197.823742 292.626039 
L 200.450397 292.647854 
L 201.763725 281.150363 
L 203.077052 285.754268 
L 204.39038 288.516611 
L 205.703707 278.671618 
L 207.017034 284.267021 
L 208.330362 276.121863 
L 209.643689 282.737168 
L 210.957017 286.706351 
L 212.270344 289.087861 
L 213.583672 290.516766 
L 214.896999 291.37411 
L 216.210327 291.888516 
L 217.523654 292.19716 
L 218.836981 292.382346 
L 220.150309 280.991059 
L 221.463636 285.658685 
L 222.776964 288.459261 
L 224.090291 290.139607 
L 225.403619 291.147814 
L 226.716946 291.752738 
L 228.030274 280.613294 
L 229.343601 285.432026 
L 230.656929 288.323266 
L 231.970256 290.05801 
L 233.283583 291.098856 
L 234.596911 280.220965 
L 235.910238 285.196629 
L 237.223566 288.182027 
L 238.536893 289.973266 
L 239.850221 291.04801 
L 241.163548 280.190457 
L 242.476876 285.178324 
L 243.790203 288.171045 
L 245.10353 278.464278 
L 246.416858 284.142617 
L 247.730185 287.54962 
L 249.043513 289.593822 
L 250.35684 290.820343 
L 251.670168 291.556256 
L 252.983495 291.997804 
L 255.61015 292.421689 
L 256.923477 292.517064 
L 258.236805 281.071889 
L 259.550132 285.707184 
L 260.86346 288.48836 
L 262.176787 290.157066 
L 263.490115 291.15829 
L 264.803442 280.256625 
L 266.11677 273.715626 
L 267.430097 281.293426 
L 268.743425 285.840105 
L 270.056752 288.568113 
L 271.370079 290.204918 
L 272.683407 279.684602 
L 273.996734 284.874811 
L 275.310062 276.486538 
L 276.623389 282.955973 
L 277.936717 286.837634 
L 279.250044 277.664231 
L 280.563372 283.662589 
L 281.876699 287.261603 
L 283.190026 289.421012 
L 284.503354 290.716657 
L 285.816681 291.494044 
L 287.130009 280.458078 
L 288.443336 285.338897 
L 289.756664 288.267388 
L 291.069991 290.024483 
L 292.383319 291.07874 
L 293.696646 291.711294 
L 295.009974 292.090826 
L 297.636628 292.455177 
L 301.576611 292.615856 
L 302.889938 292.633564 
L 304.203266 281.141789 
L 305.516593 285.749124 
L 306.829921 288.513524 
L 308.143248 278.669766 
L 309.456575 284.265909 
L 310.769903 287.623596 
L 312.08323 289.638207 
L 313.396558 290.846974 
L 314.709885 291.572235 
L 316.023213 292.007391 
L 318.649868 292.425141 
L 322.58985 292.609368 
L 331.783142 292.658704 
L 339.663107 292.660059 
L 340.976434 281.157686 
L 342.289762 285.758662 
L 343.603089 288.519247 
L 344.916417 290.175598 
L 346.229744 291.169409 
L 347.543071 291.765695 
L 348.856399 292.123467 
L 351.483054 292.466928 
L 355.423036 292.618394 
L 367.242983 292.659704 
L 371.182966 292.660034 
L 372.496293 281.157672 
L 373.80962 285.758653 
L 375.122948 288.519242 
L 376.436275 290.175595 
L 377.749603 291.169407 
L 379.06293 280.263295 
L 380.376258 285.222027 
L 381.689585 288.197266 
L 383.002913 289.98241 
L 384.31624 291.053496 
L 385.629568 291.696148 
L 386.942895 292.081739 
L 388.256222 292.313093 
L 389.56955 280.949507 
L 390.882877 285.633754 
L 392.196205 288.444303 
L 393.509532 290.130632 
L 394.82286 291.142429 
L 396.136187 291.749507 
L 397.449515 292.113754 
L 400.076169 292.463432 
L 402.702824 292.589315 
L 404.016152 281.11524 
L 405.329479 285.733194 
L 406.642807 288.503967 
L 407.956134 290.16643 
L 409.269462 291.163908 
L 410.582789 280.259996 
L 411.896117 285.220048 
L 413.209444 288.196079 
L 414.522771 266.976899 
L 415.836099 277.25019 
L 417.149426 283.414164 
L 418.462754 287.112548 
L 419.776081 289.331579 
L 421.089409 290.662997 
L 422.402736 291.461848 
L 423.716064 280.43876 
L 425.029391 285.327306 
L 426.342718 288.260434 
L 427.656046 290.02031 
L 428.969373 291.076236 
L 430.282701 291.709792 
L 431.596028 269.085127 
L 432.909356 278.515126 
L 434.222683 249.665929 
L 435.536011 255.361209 
L 436.849338 270.280775 
L 438.162665 267.730116 
L 439.475993 266.199721 
L 440.78932 276.783883 
L 442.102648 283.13438 
L 443.415975 286.944678 
L 444.729303 277.728458 
L 446.04263 283.701125 
L 447.355958 275.782326 
L 448.669285 282.533446 
L 449.982613 286.584117 
L 451.29594 277.512122 
L 452.609267 283.571323 
L 453.922595 275.704445 
L 455.235922 282.486717 
L 456.54925 286.55608 
L 457.862577 288.997698 
L 459.175905 290.462669 
L 460.489232 291.341651 
L 461.80256 280.366642 
L 463.115887 285.284035 
L 464.429214 288.234471 
L 465.742542 290.004733 
L 467.055869 291.06689 
L 468.369197 291.704184 
L 469.682524 292.08656 
L 470.995852 292.315986 
L 472.309179 280.951243 
L 473.622507 285.634796 
L 474.935834 288.444927 
L 476.249162 290.131006 
L 477.562489 279.640255 
L 478.875816 284.848203 
L 480.189144 287.972972 
L 481.502471 289.847833 
L 482.815799 290.97275 
L 484.129126 291.6477 
L 485.442454 292.05267 
L 488.069109 292.441441 
L 492.009091 292.612889 
L 492.009091 292.612889 
" clip-path="url(#pc202862295)" style="fill: none; stroke: #ff7f0e; stroke-width: 1.5; stroke-linecap: square"/>
   </g>
   <g id="line2d_25">
    <path d="M 86.190909 263.904128 
L 87.504237 275.406527 
L 88.817564 270.805567 
L 90.130891 279.54739 
L 91.444219 250.285288 
L 92.757546 267.235223 
L 94.070874 277.405184 
L 95.384201 283.50716 
L 96.697529 287.168346 
L 98.010856 277.862659 
L 99.324184 260.776848 
L 100.637511 262.02776 
L 101.950838 274.280706 
L 103.264166 281.632473 
L 104.577493 286.043534 
L 105.890821 288.69017 
L 107.204148 290.278152 
L 108.517476 291.230941 
L 109.830803 291.802615 
L 111.144131 292.145619 
L 113.770786 292.474903 
L 117.710768 292.620117 
L 129.530715 292.659722 
L 154.483936 292.660125 
L 155.797264 281.157726 
L 157.110591 274.256287 
L 158.423919 281.617822 
L 159.737246 286.034743 
L 161.050574 277.182497 
L 162.363901 283.373548 
L 163.677229 287.088179 
L 164.990556 289.316957 
L 166.303883 290.654224 
L 167.617211 291.456585 
L 168.930538 291.938001 
L 170.243866 292.22685 
L 171.557193 292.40016 
L 172.870521 281.001747 
L 174.183848 285.665098 
L 175.497176 276.96071 
L 176.810503 283.240476 
L 178.123831 287.008336 
L 179.437158 289.269051 
L 180.750485 290.625481 
L 182.063813 291.439339 
L 183.37714 291.927653 
L 184.690468 292.220642 
L 187.317123 292.501911 
L 188.63045 292.565197 
L 189.943778 281.100769 
L 191.257105 285.724511 
L 192.570432 288.498757 
L 193.88376 290.163304 
L 195.197087 291.162032 
L 196.510415 291.761269 
L 197.823742 280.618413 
L 199.13707 285.435098 
L 200.450397 288.325109 
L 201.763725 278.556716 
L 203.077052 284.19808 
L 204.39038 287.582898 
L 205.703707 289.613789 
L 207.017034 290.832323 
L 208.330362 291.563444 
L 209.643689 292.002116 
L 212.270344 292.423242 
L 213.583672 292.517995 
L 214.896999 281.072448 
L 216.210327 285.707519 
L 217.523654 288.488561 
L 218.836981 290.157187 
L 220.150309 291.158362 
L 221.463636 291.759067 
L 222.776964 292.11949 
L 225.403619 292.465497 
L 229.343601 292.618085 
L 241.163548 292.659701 
L 242.476876 292.659871 
L 243.790203 281.157574 
L 245.10353 285.758594 
L 246.416858 288.519206 
L 247.730185 290.175574 
L 249.043513 291.169394 
L 250.35684 291.765687 
L 251.670168 292.123462 
L 254.296823 292.466926 
L 255.61015 292.544206 
L 256.923477 269.585776 
L 258.236805 278.815515 
L 259.550132 284.353359 
L 260.86346 276.173667 
L 262.176787 259.763452 
L 263.490115 226.912526 
L 264.803442 207.20197 
L 266.11677 229.882833 
L 267.430097 220.486553 
L 268.743425 214.848785 
L 270.056752 222.968523 
L 271.370079 250.845164 
L 272.683407 256.06875 
L 273.996734 270.7053 
L 275.310062 279.48723 
L 276.623389 284.756388 
L 277.936717 264.913085 
L 279.250044 276.011901 
L 280.563372 271.168792 
L 281.876699 279.765325 
L 283.190026 284.923245 
L 284.503354 288.017997 
L 285.816681 289.874848 
L 287.130009 290.988959 
L 288.443336 291.657425 
L 289.756664 292.058505 
L 292.383319 292.443542 
L 296.323301 292.613343 
L 306.829921 292.659339 
L 309.456575 292.659842 
L 310.769903 281.157556 
L 312.08323 285.758584 
L 313.396558 288.5192 
L 314.709885 290.17557 
L 316.023213 291.169392 
L 317.33654 280.263286 
L 318.649868 285.222022 
L 319.963195 288.197263 
L 321.276523 289.982408 
L 322.58985 291.053495 
L 323.903177 291.696147 
L 325.216505 292.081738 
L 327.84316 292.451906 
L 331.783142 292.61515 
L 333.09647 292.63314 
L 334.409797 281.141535 
L 335.723124 285.748971 
L 337.036452 288.513433 
L 338.349779 278.669711 
L 339.663107 284.265876 
L 340.976434 287.623576 
L 342.289762 289.638196 
L 343.603089 290.846967 
L 344.916417 291.57223 
L 346.229744 292.007388 
L 348.856399 292.42514 
L 352.796381 292.609368 
L 361.989673 292.658704 
L 492.009091 292.660125 
L 492.009091 292.660125 
" clip-path="url(#pc202862295)" style="fill: none; stroke: #2ca02c; stroke-width: 1.5; stroke-linecap: square"/>
   </g>
   <g id="line2d_26">
    <path d="M 86.190909 206.392133 
L 87.504237 229.396931 
L 88.817564 231.697411 
L 90.130891 221.5753 
L 91.444219 227.004432 
L 92.757546 195.754713 
L 94.070874 177.004881 
L 95.384201 165.754982 
L 96.697529 170.507444 
L 98.010856 161.85652 
L 99.324184 168.168366 
L 100.637511 160.453073 
L 101.950838 155.823897 
L 103.264166 164.548793 
L 104.577493 181.286129 
L 105.890821 202.83093 
L 107.204148 192.753012 
L 108.517476 198.208661 
L 109.830803 224.486848 
L 111.144131 228.751361 
L 112.457458 242.812468 
L 113.770786 216.741935 
L 115.084113 224.104413 
L 116.39744 217.019501 
L 117.710768 212.768554 
L 119.024095 210.217986 
L 120.337423 220.190044 
L 121.65075 226.173279 
L 122.964078 218.26082 
L 124.277405 213.513346 
L 125.590733 210.664861 
L 126.90406 208.95577 
L 128.217387 207.930315 
L 129.530715 195.812644 
L 130.844042 211.546838 
L 132.15737 186.480157 
L 133.470697 182.942548 
L 134.784025 169.317583 
L 136.097352 184.147403 
L 137.41068 181.542896 
L 138.724007 191.482591 
L 140.037335 174.441608 
L 141.350662 175.719419 
L 142.663989 164.983705 
L 143.977317 181.547076 
L 145.290644 179.9827 
L 146.603972 190.546474 
L 147.917299 208.387136 
L 149.230627 196.086736 
L 150.543954 188.706496 
L 151.857282 195.780751 
L 153.170609 165.518107 
L 154.483936 147.360521 
L 155.797264 170.973166 
L 157.110591 150.633556 
L 158.423919 138.429791 
L 159.737246 154.112329 
L 161.050574 163.521852 
L 162.363901 134.660367 
L 163.677229 117.343476 
L 164.990556 106.953341 
L 166.303883 100.71926 
L 167.617211 73.97401 
L 168.930538 57.92686 
L 170.243866 71.303372 
L 171.557193 79.329279 
L 172.870521 84.144823 
L 174.183848 87.034149 
L 175.497176 77.265349 
L 176.810503 117.413664 
L 178.123831 118.497855 
L 179.437158 96.143572 
L 180.750485 117.238197 
L 182.063813 106.890174 
L 183.37714 89.178963 
L 184.690468 78.552237 
L 186.003795 106.683396 
L 187.317123 112.059694 
L 188.63045 115.285473 
L 189.943778 128.723337 
L 191.257105 113.781258 
L 192.570432 93.313614 
L 193.88376 150.047421 
L 195.197087 161.082907 
L 196.510415 133.197 
L 197.823742 150.972654 
L 199.13707 173.140446 
L 200.450397 140.431523 
L 201.763725 132.308571 
L 203.077052 138.937196 
L 204.39038 131.411974 
L 205.703707 115.39444 
L 207.017034 94.281523 
L 208.330362 93.11617 
L 209.643689 115.421755 
L 210.957017 117.30271 
L 212.270344 129.933679 
L 213.583672 137.512261 
L 214.896999 142.05941 
L 216.210327 133.285303 
L 217.523654 151.025636 
L 218.836981 127.162637 
L 220.150309 147.352037 
L 221.463636 147.963276 
L 222.776964 182.837218 
L 224.090291 169.254384 
L 225.403619 184.109484 
L 226.716946 170.017744 
L 228.030274 161.5627 
L 229.343601 190.996872 
L 230.656929 174.150177 
L 231.970256 187.046959 
L 233.283583 183.28263 
L 234.596911 158.019235 
L 235.910238 177.368394 
L 237.223566 188.97789 
L 238.536893 184.441188 
L 239.850221 181.719168 
L 241.163548 191.588354 
L 242.476876 209.012265 
L 243.790203 207.964212 
L 245.10353 184.330581 
L 246.416858 193.155202 
L 247.730185 209.952373 
L 249.043513 197.025878 
L 250.35684 189.269982 
L 251.670168 207.621241 
L 252.983495 184.124798 
L 254.296823 170.026932 
L 255.61015 184.573013 
L 256.923477 170.295861 
L 258.236805 115.71997 
L 259.550132 105.979238 
L 260.86346 134.641997 
L 262.176787 117.332454 
L 263.490115 106.946728 
L 264.803442 112.217694 
L 266.11677 103.877872 
L 267.430097 64.36678 
L 268.743425 40.660125 
L 270.056752 49.440934 
L 271.370079 77.714217 
L 272.683407 83.175786 
L 273.996734 74.950331 
L 275.310062 93.019855 
L 276.623389 103.86157 
L 277.936717 110.366599 
L 279.250044 114.269616 
L 280.563372 139.616224 
L 281.876699 108.814593 
L 283.190026 90.333615 
L 284.503354 90.747425 
L 285.816681 79.493314 
L 287.130009 84.243244 
L 288.443336 87.093202 
L 289.756664 88.803177 
L 291.069991 112.83396 
L 292.383319 104.247632 
L 293.696646 87.593438 
L 295.009974 100.605719 
L 296.323301 108.413088 
L 297.636628 101.595109 
L 298.949956 97.504321 
L 300.263283 106.552249 
L 301.576611 111.981006 
L 302.889938 69.228661 
L 304.203266 66.582055 
L 305.516593 87.99889 
L 306.829921 89.34659 
L 308.143248 78.652813 
L 309.456575 83.738943 
L 310.769903 98.293023 
L 312.08323 118.527867 
L 313.396558 96.161579 
L 314.709885 105.746604 
L 316.023213 111.497619 
L 317.33654 103.445827 
L 318.649868 98.614752 
L 319.963195 107.218508 
L 321.276523 112.380762 
L 322.58985 103.975713 
L 323.903177 98.932683 
L 325.216505 95.906866 
L 326.529832 105.593776 
L 327.84316 88.401125 
L 329.156487 55.080732 
L 330.469815 46.590893 
L 331.783142 41.496989 
L 333.09647 84.450247 
L 334.409797 75.715007 
L 335.723124 93.478661 
L 337.036452 92.634452 
L 338.349779 92.127927 
L 339.663107 114.82881 
L 340.976434 105.444542 
L 342.289762 134.321179 
L 343.603089 128.642364 
L 344.916417 125.235075 
L 346.229744 134.693099 
L 347.543071 128.865516 
L 348.856399 171.378562 
L 350.169726 150.876794 
L 351.483054 173.08293 
L 352.796381 186.406611 
L 354.109709 182.898421 
L 355.423036 192.295906 
L 356.736364 186.431998 
L 358.049691 171.411252 
L 359.363019 173.901206 
L 360.676346 186.897577 
L 361.989673 183.193001 
L 363.303001 169.467854 
L 364.616328 161.232766 
L 365.929656 190.798912 
L 367.242983 185.533802 
L 368.556311 182.374735 
L 369.869638 157.474498 
L 371.182966 154.036752 
L 372.496293 174.978905 
L 373.80962 199.046595 
L 375.122948 201.98481 
L 376.436275 180.74294 
L 377.749603 167.997817 
L 379.06293 183.355544 
L 380.376258 192.57018 
L 381.689585 198.098961 
L 383.002913 212.918629 
L 384.31624 198.805632 
L 385.629568 201.840232 
L 386.942895 146.148998 
L 388.256222 158.743854 
L 389.56955 177.803166 
L 390.882877 177.736354 
L 392.196205 120.184266 
L 393.509532 120.160216 
L 394.82286 131.648183 
L 396.136187 138.540963 
L 397.449515 154.179033 
L 398.762842 175.064273 
L 400.076169 176.093018 
L 401.389497 176.710265 
L 402.702824 200.085412 
L 404.016152 179.6033 
L 405.329479 201.821232 
L 406.642807 192.147194 
L 407.956134 220.849968 
L 409.269462 215.066834 
L 411.896117 112.894867 
L 413.209444 161.796173 
L 414.522771 168.132158 
L 415.836099 148.928952 
L 417.149426 148.909424 
L 418.462754 160.400109 
L 419.776081 190.299318 
L 421.089409 231.243641 
L 422.402736 232.805437 
L 423.716064 210.737716 
L 425.029391 197.497084 
L 426.342718 212.557503 
L 427.656046 198.588956 
L 428.969373 213.212626 
L 430.282701 187.479629 
L 431.596028 172.039831 
L 432.909356 185.780752 
L 434.222683 148.015707 
L 435.536011 136.859081 
L 436.849338 164.672302 
L 438.162665 158.355435 
L 439.475993 97.053318 
L 440.78932 106.281647 
L 442.102648 123.321042 
L 443.415975 133.544679 
L 444.729303 116.674063 
L 446.04263 141.058892 
L 447.355958 132.684992 
L 448.669285 162.167849 
L 449.982613 156.852763 
L 451.29594 211.175708 
L 452.609267 197.759879 
L 453.922595 224.217579 
L 455.235922 171.077803 
L 456.54925 162.198735 
L 457.862577 214.383291 
L 459.175905 222.689227 
L 460.489232 227.672788 
L 461.80256 219.160526 
L 463.115887 214.053169 
L 464.429214 233.993553 
L 465.742542 245.957783 
L 467.055869 253.136321 
L 468.369197 257.443444 
L 469.682524 237.02292 
L 470.995852 190.263408 
L 472.309179 196.714898 
L 473.622507 212.088191 
L 474.935834 175.302572 
L 477.562489 225.106128 
L 478.875816 229.122929 
L 480.189144 151.016211 
L 481.502471 127.156982 
L 482.815799 135.846243 
L 484.129126 175.566998 
L 486.755781 243.60516 
L 488.069109 205.715149 
L 489.382436 217.488342 
L 490.695763 224.552257 
L 492.009091 228.790607 
L 492.009091 228.790607 
" clip-path="url(#pc202862295)" style="fill: none; stroke: #d62728; stroke-width: 1.5; stroke-linecap: square"/>
   </g>
   <g id="line2d_27">
    <path d="M 86.190909 292.660125 
L 87.504237 292.660125 
L 88.817564 281.157726 
L 90.130891 285.758686 
L 91.444219 288.519261 
L 92.757546 290.175607 
L 94.070874 291.169414 
L 95.384201 280.2633 
L 96.697529 273.719631 
L 98.010856 281.295829 
L 99.324184 285.841547 
L 100.637511 288.568978 
L 101.950838 290.205437 
L 103.264166 279.684913 
L 104.577493 284.874998 
L 105.890821 287.989049 
L 107.204148 289.857479 
L 108.517476 290.978538 
L 109.830803 291.651173 
L 111.144131 292.054754 
L 113.770786 292.442191 
L 117.710768 292.613051 
L 120.337423 292.643178 
L 121.65075 281.147558 
L 122.964078 285.752585 
L 124.277405 288.515601 
L 125.590733 290.173411 
L 126.90406 291.168096 
L 128.217387 291.764908 
L 129.530715 292.122995 
L 132.15737 292.466758 
L 136.097352 292.618358 
L 147.917299 292.659704 
L 149.230627 292.659872 
L 150.543954 281.157575 
L 151.857282 285.758595 
L 153.170609 288.519207 
L 154.483936 278.673175 
L 155.797264 284.267955 
L 157.110591 287.624823 
L 158.423919 289.638944 
L 159.737246 290.847416 
L 161.050574 291.5725 
L 162.363901 292.00755 
L 164.990556 292.425198 
L 167.617211 292.575551 
L 168.930538 281.106982 
L 170.243866 285.728239 
L 171.557193 288.500993 
L 172.870521 290.164646 
L 174.183848 279.660439 
L 175.497176 284.860313 
L 176.810503 287.980238 
L 178.123831 289.852193 
L 179.437158 290.975366 
L 180.750485 291.649269 
L 182.063813 292.053612 
L 184.690468 292.44178 
L 188.63045 292.612963 
L 189.943778 292.631828 
L 191.257105 281.140748 
L 192.570432 285.748499 
L 193.88376 288.513149 
L 195.197087 290.171939 
L 196.510415 291.167214 
L 197.823742 291.764378 
L 199.13707 292.122677 
L 201.763725 292.466644 
L 205.703707 292.618333 
L 217.523654 292.659704 
L 226.716946 292.660113 
L 228.030274 281.157719 
L 229.343601 285.758681 
L 230.656929 288.519259 
L 231.970256 290.175605 
L 233.283583 291.169413 
L 234.596911 291.765698 
L 235.910238 292.123469 
L 238.536893 292.466929 
L 242.476876 292.618395 
L 254.296823 292.659704 
L 259.550132 292.66007 
L 260.86346 281.157693 
L 262.176787 285.758666 
L 263.490115 277.016851 
L 264.803442 271.771762 
L 266.11677 268.624708 
L 267.430097 266.736476 
L 268.743425 277.105936 
L 270.056752 283.327611 
L 271.370079 287.060617 
L 272.683407 289.30042 
L 273.996734 290.644302 
L 275.310062 291.450631 
L 276.623389 291.934429 
L 277.936717 292.224707 
L 279.250044 280.896475 
L 280.563372 285.601935 
L 281.876699 288.425211 
L 283.190026 290.119177 
L 284.503354 291.135556 
L 285.816681 291.745384 
L 287.130009 292.11128 
L 288.443336 280.828419 
L 289.756664 285.561102 
L 291.069991 288.400711 
L 292.383319 290.104477 
L 293.696646 291.126736 
L 295.009974 291.740092 
L 296.323301 292.108105 
L 298.949956 292.461398 
L 302.889938 292.6172 
L 313.396558 292.659404 
L 314.709885 292.659692 
L 316.023213 281.157467 
L 317.33654 285.75853 
L 318.649868 288.519168 
L 319.963195 290.175551 
L 321.276523 291.16938 
L 322.58985 291.765678 
L 323.903177 292.123457 
L 326.529832 292.466925 
L 330.469815 292.618394 
L 342.289762 292.659704 
L 352.796381 292.660118 
L 354.109709 281.157722 
L 355.423036 285.758683 
L 356.736364 288.51926 
L 358.049691 290.175606 
L 359.363019 291.169414 
L 360.676346 291.765698 
L 361.989673 280.62107 
L 363.303001 285.436692 
L 364.616328 288.326065 
L 365.929656 290.059689 
L 367.242983 291.099863 
L 368.556311 291.723968 
L 369.869638 292.098431 
L 372.496293 292.457915 
L 376.436275 292.616448 
L 380.376258 292.650691 
L 381.689585 281.152066 
L 383.002913 285.755289 
L 384.31624 277.014825 
L 385.629568 283.272945 
L 386.942895 275.525418 
L 388.256222 282.379301 
L 389.56955 263.486833 
L 390.882877 275.15615 
L 392.196205 270.655341 
L 393.509532 267.954856 
L 394.82286 266.334565 
L 396.136187 276.864789 
L 397.449515 283.182923 
L 398.762842 286.973804 
L 400.076169 277.745933 
L 401.389497 272.209211 
L 402.702824 280.389577 
L 404.016152 285.297796 
L 405.329479 276.740329 
L 406.642807 271.605848 
L 407.956134 257.022761 
L 409.269462 259.775308 
L 410.582789 261.426836 
L 411.896117 273.920152 
L 413.209444 269.913742 
L 414.522771 267.509896 
L 415.836099 254.56519 
L 417.149426 258.300765 
L 418.462754 272.044509 
L 419.776081 268.788357 
L 421.089409 255.332266 
L 422.402736 270.26341 
L 423.716064 267.719697 
L 425.029391 277.695868 
L 426.342718 283.681571 
L 427.656046 275.770594 
L 428.969373 282.526406 
L 430.282701 252.072697 
L 431.596028 256.805269 
L 432.909356 248.142414 
L 434.222683 242.944701 
L 435.536011 228.323674 
L 436.849338 219.551058 
L 438.162665 214.287488 
L 439.475993 222.631745 
L 440.78932 204.633501 
L 442.102648 193.834555 
L 443.415975 187.355188 
L 444.729303 171.965166 
L 446.04263 185.735953 
L 447.355958 170.993625 
L 448.669285 162.148229 
L 449.982613 168.343392 
L 451.29594 172.06049 
L 452.609267 174.290748 
L 453.922595 164.126502 
L 455.235922 181.032755 
L 456.54925 214.181304 
L 457.862577 222.568035 
L 459.175905 216.097674 
L 460.489232 223.717857 
L 461.80256 239.792365 
L 463.115887 260.939469 
L 464.429214 239.120535 
L 465.742542 249.033972 
L 467.055869 243.479635 
L 468.369197 240.147034 
L 469.682524 249.649871 
L 470.995852 266.853973 
L 472.309179 277.176434 
L 473.622507 283.36991 
L 474.935834 264.081198 
L 476.249162 241.005572 
L 477.562489 204.155397 
L 478.875816 216.55249 
L 480.189144 212.488348 
L 481.502471 198.547463 
L 484.129126 251.878127 
L 485.442454 245.186129 
L 486.755781 264.175727 
L 488.069109 264.067087 
L 489.382436 275.504302 
L 490.695763 282.366631 
L 492.009091 274.98163 
L 492.009091 274.98163 
" clip-path="url(#pc202862295)" style="fill: none; stroke: #9467bd; stroke-width: 1.5; stroke-linecap: square"/>
   </g>
   <g id="patch_3">
    <path d="M 65.9 305.260125 
L 65.9 28.060125 
" style="fill: none; stroke: #000000; stroke-width: 0.8; stroke-linejoin: miter; stroke-linecap: square"/>
   </g>
   <g id="patch_4">
    <path d="M 512.3 305.260125 
L 512.3 28.060125 
" style="fill: none; stroke: #000000; stroke-width: 0.8; stroke-linejoin: miter; stroke-linecap: square"/>
   </g>
   <g id="patch_5">
    <path d="M 65.9 305.260125 
L 512.3 305.260125 
" style="fill: none; stroke: #000000; stroke-width: 0.8; stroke-linejoin: miter; stroke-linecap: square"/>
   </g>
   <g id="patch_6">
    <path d="M 65.9 28.060125 
L 512.3 28.060125 
" style="fill: none; stroke: #000000; stroke-width: 0.8; stroke-linejoin: miter; stroke-linecap: square"/>
   </g>
   <g id="text_15">
    <!-- ML45 Meta Testing -->
    <g transform="translate(202.104313 22.060125)scale(0.216 -0.216)">
     <defs>
      <path id="STIXGeneral-Regular-4d" d="M 5530 0 
L 3738 0 
L 3738 122 
Q 4115 147 4214 265 
Q 4314 384 4314 787 
L 4314 3661 
L 2682 0 
L 2592 0 
L 979 3514 
L 979 966 
Q 979 448 1088 294 
Q 1197 141 1574 122 
L 1574 0 
L 77 0 
L 77 122 
Q 358 141 480 205 
Q 602 269 650 432 
Q 698 595 698 966 
L 698 3514 
Q 698 3878 589 3984 
Q 480 4090 90 4115 
L 90 4237 
L 1357 4237 
L 2835 1024 
L 4250 4237 
L 5523 4237 
L 5523 4115 
Q 5178 4109 5072 3993 
Q 4966 3878 4966 3520 
L 4966 717 
Q 4966 378 5072 262 
Q 5178 147 5530 122 
L 5530 0 
z
" transform="scale(0.015625)"/>
      <path id="STIXGeneral-Regular-4c" d="M 3827 1114 
L 3520 0 
L 77 0 
L 77 122 
Q 429 141 531 256 
Q 634 371 634 736 
L 634 3494 
Q 634 3872 541 3981 
Q 448 4090 77 4115 
L 77 4237 
L 1888 4237 
L 1888 4115 
Q 1498 4090 1392 3984 
Q 1286 3878 1286 3507 
L 1286 538 
Q 1286 358 1398 304 
Q 1510 250 1862 250 
L 2310 250 
Q 3085 250 3392 640 
Q 3520 813 3661 1114 
L 3827 1114 
z
" transform="scale(0.015625)"/>
     </defs>
     <use xlink:href="#STIXGeneral-Regular-4d"/>
     <use xlink:href="#STIXGeneral-Regular-4c" x="88.899994"/>
     <use xlink:href="#STIXGeneral-Regular-34" x="149.999985"/>
     <use xlink:href="#STIXGeneral-Regular-35" x="199.999969"/>
     <use xlink:href="#STIXGeneral-Regular-20" x="249.999954"/>
     <use xlink:href="#STIXGeneral-Regular-4d" x="274.999939"/>
     <use xlink:href="#STIXGeneral-Regular-65" x="363.899933"/>
     <use xlink:href="#STIXGeneral-Regular-74" x="408.299927"/>
     <use xlink:href="#STIXGeneral-Regular-61" x="436.099915"/>
     <use xlink:href="#STIXGeneral-Regular-20" x="480.499908"/>
     <use xlink:href="#STIXGeneral-Regular-54" x="505.499893"/>
     <use xlink:href="#STIXGeneral-Regular-65" x="566.599884"/>
     <use xlink:href="#STIXGeneral-Regular-73" x="610.999878"/>
     <use xlink:href="#STIXGeneral-Regular-74" x="649.899872"/>
     <use xlink:href="#STIXGeneral-Regular-69" x="677.69986"/>
     <use xlink:href="#STIXGeneral-Regular-6e" x="705.499847"/>
     <use xlink:href="#STIXGeneral-Regular-67" x="755.499832"/>
    </g>
   </g>
   <g id="legend_1">
    <g id="patch_7">
     <path d="M 370.606875 138.465437 
L 502.5 138.465437 
Q 505.3 138.465437 505.3 135.665437 
L 505.3 37.860125 
Q 505.3 35.060125 502.5 35.060125 
L 370.606875 35.060125 
Q 367.806875 35.060125 367.806875 37.860125 
L 367.806875 135.665437 
Q 367.806875 138.465437 370.606875 138.465437 
z
" style="fill: #ffffff; opacity: 0.8; stroke: #cccccc; stroke-linejoin: miter"/>
    </g>
    <g id="line2d_28">
     <path d="M 373.406875 45.560125 
L 387.406875 45.560125 
L 401.406875 45.560125 
" style="fill: none; stroke: #1f77b4; stroke-width: 1.5; stroke-linecap: square"/>
    </g>
    <g id="text_16">
     <!-- bin-picking-v2 -->
     <g transform="translate(412.606875 50.460125)scale(0.14 -0.14)">
      <defs>
       <path id="STIXGeneral-Regular-62" d="M 979 4358 
L 979 2406 
Q 1082 2650 1315 2797 
Q 1549 2944 1843 2944 
Q 2349 2944 2672 2541 
Q 2995 2138 2995 1536 
Q 2995 832 2566 384 
Q 2138 -64 1498 -64 
Q 1107 -64 774 67 
Q 442 198 442 358 
L 442 3622 
Q 442 3859 384 3926 
Q 326 3994 128 3994 
Q 83 3994 19 3981 
L 19 4090 
L 211 4147 
Q 864 4346 947 4371 
L 979 4358 
z
M 979 2035 
L 979 474 
Q 979 326 1161 233 
Q 1344 141 1600 141 
Q 1978 141 2195 416 
Q 2432 710 2432 1261 
Q 2432 1888 2182 2240 
Q 1971 2541 1613 2541 
Q 1357 2541 1168 2390 
Q 979 2240 979 2035 
z
" transform="scale(0.015625)"/>
       <path id="STIXGeneral-Regular-2d" d="M 1824 1242 
L 250 1242 
L 250 1645 
L 1824 1645 
L 1824 1242 
z
" transform="scale(0.015625)"/>
       <path id="STIXGeneral-Regular-6b" d="M 3232 0 
L 1837 0 
L 1837 96 
L 1958 96 
Q 2093 96 2093 192 
Q 2093 250 2022 339 
L 1062 1606 
L 1062 429 
Q 1062 262 1142 185 
Q 1222 109 1414 102 
L 1542 96 
L 1542 0 
L 45 0 
L 45 96 
Q 390 154 457 214 
Q 525 275 525 525 
L 525 3610 
Q 525 3840 467 3920 
Q 410 4000 250 4000 
Q 211 4000 45 3987 
L 45 4090 
L 237 4141 
Q 621 4243 1037 4371 
L 1062 4358 
L 1062 1670 
L 1939 2451 
Q 2086 2586 2086 2675 
Q 2086 2739 2019 2761 
Q 1952 2784 1766 2790 
L 1766 2880 
L 3072 2880 
L 3072 2784 
Q 2752 2784 2505 2646 
Q 2259 2509 1690 1978 
L 1504 1805 
L 2483 563 
Q 2829 122 3232 96 
L 3232 0 
z
" transform="scale(0.015625)"/>
      </defs>
      <use xlink:href="#STIXGeneral-Regular-62"/>
      <use xlink:href="#STIXGeneral-Regular-69" x="49.999985"/>
      <use xlink:href="#STIXGeneral-Regular-6e" x="77.799973"/>
      <use xlink:href="#STIXGeneral-Regular-2d" x="127.799957"/>
      <use xlink:href="#STIXGeneral-Regular-70" x="161.099945"/>
      <use xlink:href="#STIXGeneral-Regular-69" x="211.09993"/>
      <use xlink:href="#STIXGeneral-Regular-63" x="238.899918"/>
      <use xlink:href="#STIXGeneral-Regular-6b" x="283.299911"/>
      <use xlink:href="#STIXGeneral-Regular-69" x="333.299896"/>
      <use xlink:href="#STIXGeneral-Regular-6e" x="361.099884"/>
      <use xlink:href="#STIXGeneral-Regular-67" x="411.099869"/>
      <use xlink:href="#STIXGeneral-Regular-2d" x="461.099854"/>
      <use xlink:href="#STIXGeneral-Regular-76" x="494.399841"/>
      <use xlink:href="#STIXGeneral-Regular-32" x="544.399826"/>
     </g>
    </g>
    <g id="line2d_29">
     <path d="M 373.406875 65.411687 
L 387.406875 65.411687 
L 401.406875 65.411687 
" style="fill: none; stroke: #ff7f0e; stroke-width: 1.5; stroke-linecap: square"/>
    </g>
    <g id="text_17">
     <!-- box-close-v2 -->
     <g transform="translate(412.606875 70.311687)scale(0.14 -0.14)">
      <defs>
       <path id="STIXGeneral-Regular-78" d="M 3066 0 
L 1779 0 
L 1779 96 
Q 1939 109 1987 137 
Q 2035 166 2035 250 
Q 2035 307 1997 365 
L 1414 1261 
L 909 474 
Q 781 275 781 211 
Q 781 96 1037 96 
L 1037 0 
L 109 0 
L 109 96 
Q 269 109 355 169 
Q 442 230 576 422 
L 1306 1478 
L 704 2400 
Q 557 2624 454 2704 
Q 352 2784 211 2784 
L 154 2784 
L 154 2880 
L 1478 2880 
L 1478 2784 
Q 1203 2778 1203 2643 
Q 1203 2509 1498 2074 
Q 1581 1958 1587 1946 
Q 1619 1990 1779 2227 
Q 1811 2285 1856 2349 
Q 1901 2413 1923 2451 
Q 1946 2490 1971 2528 
Q 1997 2566 2006 2595 
Q 2016 2624 2016 2643 
Q 2016 2765 1760 2784 
L 1760 2880 
L 2771 2880 
L 2771 2784 
Q 2445 2771 2253 2502 
L 1722 1734 
L 2541 480 
Q 2790 96 3066 96 
L 3066 0 
z
" transform="scale(0.015625)"/>
       <path id="STIXGeneral-Regular-6c" d="M 1645 0 
L 134 0 
L 134 96 
Q 435 122 531 221 
Q 627 320 627 589 
L 627 3590 
Q 627 3821 569 3910 
Q 512 4000 358 4000 
Q 224 4000 122 3987 
L 122 4090 
Q 730 4237 1133 4371 
L 1165 4346 
L 1165 557 
Q 1165 288 1254 201 
Q 1344 115 1645 96 
L 1645 0 
z
" transform="scale(0.015625)"/>
      </defs>
      <use xlink:href="#STIXGeneral-Regular-62"/>
      <use xlink:href="#STIXGeneral-Regular-6f" x="49.999985"/>
      <use xlink:href="#STIXGeneral-Regular-78" x="99.999969"/>
      <use xlink:href="#STIXGeneral-Regular-2d" x="149.999954"/>
      <use xlink:href="#STIXGeneral-Regular-63" x="183.299942"/>
      <use xlink:href="#STIXGeneral-Regular-6c" x="227.699936"/>
      <use xlink:href="#STIXGeneral-Regular-6f" x="255.499924"/>
      <use xlink:href="#STIXGeneral-Regular-73" x="305.499908"/>
      <use xlink:href="#STIXGeneral-Regular-65" x="344.399902"/>
      <use xlink:href="#STIXGeneral-Regular-2d" x="388.799896"/>
      <use xlink:href="#STIXGeneral-Regular-76" x="422.099884"/>
      <use xlink:href="#STIXGeneral-Regular-32" x="472.099869"/>
     </g>
    </g>
    <g id="line2d_30">
     <path d="M 373.406875 85.250125 
L 387.406875 85.250125 
L 401.406875 85.250125 
" style="fill: none; stroke: #2ca02c; stroke-width: 1.5; stroke-linecap: square"/>
    </g>
    <g id="text_18">
     <!-- hand-insert-v2 -->
     <g transform="translate(412.606875 90.150125)scale(0.14 -0.14)">
      <defs>
       <path id="STIXGeneral-Regular-68" d="M 3117 0 
L 1760 0 
L 1760 96 
Q 2042 128 2118 224 
Q 2195 320 2195 653 
L 2195 1920 
Q 2195 2598 1722 2598 
Q 1530 2598 1370 2508 
Q 1210 2419 1005 2195 
L 1005 653 
Q 1005 320 1081 224 
Q 1158 128 1440 96 
L 1440 0 
L 58 0 
L 58 96 
Q 333 134 400 224 
Q 467 314 467 653 
L 467 3667 
Q 467 3872 406 3933 
Q 346 3994 141 3994 
Q 83 3994 64 3987 
L 64 4090 
L 237 4141 
Q 730 4288 973 4371 
L 1005 4352 
L 1005 2406 
Q 1229 2694 1446 2819 
Q 1664 2944 1946 2944 
Q 2733 2944 2733 1926 
L 2733 653 
Q 2733 320 2793 233 
Q 2854 147 3117 96 
L 3117 0 
z
" transform="scale(0.015625)"/>
       <path id="STIXGeneral-Regular-64" d="M 3142 269 
L 2202 -64 
L 2176 -45 
L 2176 365 
Q 1869 -64 1357 -64 
Q 826 -64 499 317 
Q 173 698 173 1312 
Q 173 1990 563 2467 
Q 954 2944 1504 2944 
Q 1850 2944 2176 2669 
L 2176 3667 
Q 2176 3866 2118 3930 
Q 2061 3994 1882 3994 
Q 1792 3994 1741 3987 
L 1741 4090 
Q 2323 4243 2682 4371 
L 2714 4358 
L 2714 730 
Q 2714 506 2768 435 
Q 2822 365 2995 365 
Q 3034 365 3142 371 
L 3142 269 
z
M 2176 653 
L 2176 2125 
Q 2176 2381 1981 2573 
Q 1786 2765 1523 2765 
Q 1158 2765 940 2438 
Q 723 2112 723 1568 
Q 723 979 963 624 
Q 1203 269 1606 269 
Q 1907 269 2080 474 
Q 2176 582 2176 653 
z
" transform="scale(0.015625)"/>
      </defs>
      <use xlink:href="#STIXGeneral-Regular-68"/>
      <use xlink:href="#STIXGeneral-Regular-61" x="49.999985"/>
      <use xlink:href="#STIXGeneral-Regular-6e" x="94.399979"/>
      <use xlink:href="#STIXGeneral-Regular-64" x="144.399963"/>
      <use xlink:href="#STIXGeneral-Regular-2d" x="194.399948"/>
      <use xlink:href="#STIXGeneral-Regular-69" x="227.699936"/>
      <use xlink:href="#STIXGeneral-Regular-6e" x="255.499924"/>
      <use xlink:href="#STIXGeneral-Regular-73" x="305.499908"/>
      <use xlink:href="#STIXGeneral-Regular-65" x="344.399902"/>
      <use xlink:href="#STIXGeneral-Regular-72" x="388.799896"/>
      <use xlink:href="#STIXGeneral-Regular-74" x="422.099884"/>
      <use xlink:href="#STIXGeneral-Regular-2d" x="449.899872"/>
      <use xlink:href="#STIXGeneral-Regular-76" x="483.19986"/>
      <use xlink:href="#STIXGeneral-Regular-32" x="533.199844"/>
     </g>
    </g>
    <g id="line2d_31">
     <path d="M 373.406875 105.088562 
L 387.406875 105.088562 
L 401.406875 105.088562 
" style="fill: none; stroke: #d62728; stroke-width: 1.5; stroke-linecap: square"/>
    </g>
    <g id="text_19">
     <!-- door-lock-v2 -->
     <g transform="translate(412.606875 109.988562)scale(0.14 -0.14)">
      <use xlink:href="#STIXGeneral-Regular-64"/>
      <use xlink:href="#STIXGeneral-Regular-6f" x="49.999985"/>
      <use xlink:href="#STIXGeneral-Regular-6f" x="99.999969"/>
      <use xlink:href="#STIXGeneral-Regular-72" x="149.999954"/>
      <use xlink:href="#STIXGeneral-Regular-2d" x="183.299942"/>
      <use xlink:href="#STIXGeneral-Regular-6c" x="216.59993"/>
      <use xlink:href="#STIXGeneral-Regular-6f" x="244.399918"/>
      <use xlink:href="#STIXGeneral-Regular-63" x="294.399902"/>
      <use xlink:href="#STIXGeneral-Regular-6b" x="338.799896"/>
      <use xlink:href="#STIXGeneral-Regular-2d" x="388.799881"/>
      <use xlink:href="#STIXGeneral-Regular-76" x="422.099869"/>
      <use xlink:href="#STIXGeneral-Regular-32" x="472.099854"/>
     </g>
    </g>
    <g id="line2d_32">
     <path d="M 373.406875 124.927 
L 387.406875 124.927 
L 401.406875 124.927 
" style="fill: none; stroke: #9467bd; stroke-width: 1.5; stroke-linecap: square"/>
    </g>
    <g id="text_20">
     <!-- door-unlock-v2 -->
     <g transform="translate(412.606875 129.827)scale(0.14 -0.14)">
      <use xlink:href="#STIXGeneral-Regular-64"/>
      <use xlink:href="#STIXGeneral-Regular-6f" x="49.999985"/>
      <use xlink:href="#STIXGeneral-Regular-6f" x="99.999969"/>
      <use xlink:href="#STIXGeneral-Regular-72" x="149.999954"/>
      <use xlink:href="#STIXGeneral-Regular-2d" x="183.299942"/>
      <use xlink:href="#STIXGeneral-Regular-75" x="216.59993"/>
      <use xlink:href="#STIXGeneral-Regular-6e" x="266.599915"/>
      <use xlink:href="#STIXGeneral-Regular-6c" x="316.599899"/>
      <use xlink:href="#STIXGeneral-Regular-6f" x="344.399887"/>
      <use xlink:href="#STIXGeneral-Regular-63" x="394.399872"/>
      <use xlink:href="#STIXGeneral-Regular-6b" x="438.799866"/>
      <use xlink:href="#STIXGeneral-Regular-2d" x="488.79985"/>
      <use xlink:href="#STIXGeneral-Regular-76" x="522.099838"/>
      <use xlink:href="#STIXGeneral-Regular-32" x="572.099823"/>
     </g>
    </g>
   </g>
  </g>
 </g>
 <defs>
  <clipPath id="pc202862295">
   <rect x="65.9" y="28.060125" width="446.4" height="277.2"/>
  </clipPath>
 </defs>
</svg>
