<?xml version="1.0" encoding="utf-8" standalone="no"?>
<!DOCTYPE svg PUBLIC "-//W3C//DTD SVG 1.1//EN"
  "http://www.w3.org/Graphics/SVG/1.1/DTD/svg11.dtd">
<svg xmlns:xlink="http://www.w3.org/1999/xlink" width="524pt" height="355.877pt" viewBox="0 0 524 355.877" xmlns="http://www.w3.org/2000/svg" version="1.1">
 <metadata>
  <rdf:RDF xmlns:dc="http://purl.org/dc/elements/1.1/" xmlns:cc="http://creativecommons.org/ns#" xmlns:rdf="http://www.w3.org/1999/02/22-rdf-syntax-ns#">
   <cc:Work>
    <dc:type rdf:resource="http://purl.org/dc/dcmitype/StillImage"/>
    <dc:date>2021-12-11T15:58:26.994101</dc:date>
    <dc:format>image/svg+xml</dc:format>
    <dc:creator>
     <cc:Agent>
      <dc:title>Matplotlib v3.5.0, https://matplotlib.org/</dc:title>
     </cc:Agent>
    </dc:creator>
   </cc:Work>
  </rdf:RDF>
 </metadata>
 <defs>
  <style type="text/css">*{stroke-linejoin: round; stroke-linecap: butt}</style>
 </defs>
 <g id="figure_1">
  <g id="patch_1">
   <path d="M 0 355.877 
L 524 355.877 
L 524 0 
L 0 0 
z
" style="fill: #ffffff"/>
  </g>
  <g id="axes_1">
   <g id="patch_2">
    <path d="M 70.4 305.260125 
L 516.8 305.260125 
L 516.8 28.060125 
L 70.4 28.060125 
z
" style="fill: #ffffff"/>
   </g>
   <g id="matplotlib.axis_1">
    <g id="xtick_1">
     <g id="line2d_1">
      <path d="M 89.231131 305.260125 
L 89.231131 28.060125 
" clip-path="url(#p974fef0817)" style="fill: none; stroke: #b0b0b0; stroke-width: 0.8; stroke-linecap: square"/>
     </g>
     <g id="line2d_2">
      <defs>
       <path id="m4e493b64ca" d="M 0 0 
L 0 3.5 
" style="stroke: #000000; stroke-width: 0.8"/>
      </defs>
      <g>
       <use xlink:href="#m4e493b64ca" x="89.231131" y="305.260125" style="stroke: #000000; stroke-width: 0.8"/>
      </g>
     </g>
     <g id="text_1">
      <!-- 0 -->
      <g transform="translate(84.731131 324.553562)scale(0.18 -0.18)">
       <defs>
        <path id="STIXGeneral-Regular-30" d="M 3046 2112 
Q 3046 1683 2963 1302 
Q 2880 922 2717 602 
Q 2554 282 2266 96 
Q 1978 -90 1600 -90 
Q 1210 -90 915 108 
Q 621 307 461 640 
Q 301 973 227 1350 
Q 154 1728 154 2150 
Q 154 2746 301 3222 
Q 448 3699 790 4012 
Q 1133 4326 1626 4326 
Q 2253 4326 2649 3712 
Q 3046 3098 3046 2112 
z
M 2432 2080 
Q 2432 3091 2217 3625 
Q 2003 4160 1587 4160 
Q 1190 4160 979 3622 
Q 768 3085 768 2106 
Q 768 1120 979 598 
Q 1190 77 1600 77 
Q 2003 77 2217 598 
Q 2432 1120 2432 2080 
z
" transform="scale(0.015625)"/>
       </defs>
       <use xlink:href="#STIXGeneral-Regular-30"/>
      </g>
     </g>
    </g>
    <g id="xtick_2">
     <g id="line2d_3">
      <path d="M 161.318916 305.260125 
L 161.318916 28.060125 
" clip-path="url(#p974fef0817)" style="fill: none; stroke: #b0b0b0; stroke-width: 0.8; stroke-linecap: square"/>
     </g>
     <g id="line2d_4">
      <g>
       <use xlink:href="#m4e493b64ca" x="161.318916" y="305.260125" style="stroke: #000000; stroke-width: 0.8"/>
      </g>
     </g>
     <g id="text_2">
      <!-- 1 -->
      <g transform="translate(156.818916 324.553562)scale(0.18 -0.18)">
       <defs>
        <path id="STIXGeneral-Regular-31" d="M 2522 0 
L 755 0 
L 755 96 
Q 1107 115 1235 227 
Q 1363 339 1363 608 
L 1363 3482 
Q 1363 3795 1171 3795 
Q 1082 3795 883 3718 
L 710 3654 
L 710 3744 
L 1856 4326 
L 1914 4307 
L 1914 486 
Q 1914 275 2042 185 
Q 2170 96 2522 96 
L 2522 0 
z
" transform="scale(0.015625)"/>
       </defs>
       <use xlink:href="#STIXGeneral-Regular-31"/>
      </g>
     </g>
    </g>
    <g id="xtick_3">
     <g id="line2d_5">
      <path d="M 233.4067 305.260125 
L 233.4067 28.060125 
" clip-path="url(#p974fef0817)" style="fill: none; stroke: #b0b0b0; stroke-width: 0.8; stroke-linecap: square"/>
     </g>
     <g id="line2d_6">
      <g>
       <use xlink:href="#m4e493b64ca" x="233.4067" y="305.260125" style="stroke: #000000; stroke-width: 0.8"/>
      </g>
     </g>
     <g id="text_3">
      <!-- 2 -->
      <g transform="translate(228.9067 324.553562)scale(0.18 -0.18)">
       <defs>
        <path id="STIXGeneral-Regular-32" d="M 3034 877 
L 2688 0 
L 186 0 
L 186 77 
L 1325 1286 
Q 1773 1754 1965 2144 
Q 2157 2534 2157 2950 
Q 2157 3379 1920 3616 
Q 1683 3853 1267 3853 
Q 922 3853 720 3673 
Q 518 3494 326 3021 
L 192 3053 
Q 301 3648 630 3987 
Q 960 4326 1523 4326 
Q 2054 4326 2380 4006 
Q 2707 3686 2707 3200 
Q 2707 2477 1888 1613 
L 832 486 
L 2330 486 
Q 2541 486 2665 569 
Q 2790 653 2944 915 
L 3034 877 
z
" transform="scale(0.015625)"/>
       </defs>
       <use xlink:href="#STIXGeneral-Regular-32"/>
      </g>
     </g>
    </g>
    <g id="xtick_4">
     <g id="line2d_7">
      <path d="M 305.494484 305.260125 
L 305.494484 28.060125 
" clip-path="url(#p974fef0817)" style="fill: none; stroke: #b0b0b0; stroke-width: 0.8; stroke-linecap: square"/>
     </g>
     <g id="line2d_8">
      <g>
       <use xlink:href="#m4e493b64ca" x="305.494484" y="305.260125" style="stroke: #000000; stroke-width: 0.8"/>
      </g>
     </g>
     <g id="text_4">
      <!-- 3 -->
      <g transform="translate(300.994484 324.553562)scale(0.18 -0.18)">
       <defs>
        <path id="STIXGeneral-Regular-33" d="M 390 3264 
L 288 3290 
Q 435 3770 748 4048 
Q 1062 4326 1542 4326 
Q 1990 4326 2265 4083 
Q 2541 3840 2541 3450 
Q 2541 2925 1946 2566 
Q 2298 2413 2477 2227 
Q 2758 1914 2758 1402 
Q 2758 890 2464 506 
Q 2246 211 1840 60 
Q 1434 -90 979 -90 
Q 262 -90 262 275 
Q 262 378 339 442 
Q 416 506 525 506 
Q 685 506 915 339 
Q 1197 141 1466 141 
Q 1818 141 2058 425 
Q 2298 710 2298 1120 
Q 2298 1856 1632 2048 
Q 1434 2112 979 2112 
L 979 2202 
Q 1338 2323 1517 2432 
Q 2035 2726 2035 3290 
Q 2035 3610 1852 3776 
Q 1670 3942 1344 3942 
Q 768 3942 390 3264 
z
" transform="scale(0.015625)"/>
       </defs>
       <use xlink:href="#STIXGeneral-Regular-33"/>
      </g>
     </g>
    </g>
    <g id="xtick_5">
     <g id="line2d_9">
      <path d="M 377.582269 305.260125 
L 377.582269 28.060125 
" clip-path="url(#p974fef0817)" style="fill: none; stroke: #b0b0b0; stroke-width: 0.8; stroke-linecap: square"/>
     </g>
     <g id="line2d_10">
      <g>
       <use xlink:href="#m4e493b64ca" x="377.582269" y="305.260125" style="stroke: #000000; stroke-width: 0.8"/>
      </g>
     </g>
     <g id="text_5">
      <!-- 4 -->
      <g transform="translate(373.082269 324.553562)scale(0.18 -0.18)">
       <defs>
        <path id="STIXGeneral-Regular-34" d="M 3027 1069 
L 2368 1069 
L 2368 0 
L 1869 0 
L 1869 1069 
L 77 1069 
L 77 1478 
L 2086 4326 
L 2368 4326 
L 2368 1478 
L 3027 1478 
L 3027 1069 
z
M 1869 1478 
L 1869 3674 
L 333 1478 
L 1869 1478 
z
" transform="scale(0.015625)"/>
       </defs>
       <use xlink:href="#STIXGeneral-Regular-34"/>
      </g>
     </g>
    </g>
    <g id="xtick_6">
     <g id="line2d_11">
      <path d="M 449.670053 305.260125 
L 449.670053 28.060125 
" clip-path="url(#p974fef0817)" style="fill: none; stroke: #b0b0b0; stroke-width: 0.8; stroke-linecap: square"/>
     </g>
     <g id="line2d_12">
      <g>
       <use xlink:href="#m4e493b64ca" x="449.670053" y="305.260125" style="stroke: #000000; stroke-width: 0.8"/>
      </g>
     </g>
     <g id="text_6">
      <!-- 5 -->
      <g transform="translate(445.170053 324.553562)scale(0.18 -0.18)">
       <defs>
        <path id="STIXGeneral-Regular-35" d="M 2803 4358 
L 2573 3814 
Q 2534 3731 2400 3731 
L 1158 3731 
L 902 3187 
Q 1606 3053 1920 2896 
Q 2234 2739 2502 2368 
Q 2726 2061 2726 1555 
Q 2726 1094 2576 780 
Q 2426 467 2099 224 
Q 1664 -90 1011 -90 
Q 646 -90 422 19 
Q 198 128 198 307 
Q 198 550 486 550 
Q 717 550 960 352 
Q 1210 147 1414 147 
Q 1747 147 2012 480 
Q 2278 813 2278 1229 
Q 2278 1843 1850 2189 
Q 1293 2637 486 2637 
Q 410 2637 410 2688 
L 416 2720 
L 1114 4237 
L 2438 4237 
Q 2547 4237 2608 4269 
Q 2669 4301 2746 4403 
L 2803 4358 
z
" transform="scale(0.015625)"/>
       </defs>
       <use xlink:href="#STIXGeneral-Regular-35"/>
      </g>
     </g>
    </g>
    <g id="text_7">
     <!-- Training Environment Steps -->
     <g transform="translate(191.604688 344.753562)scale(0.18 -0.18)">
      <defs>
       <path id="STIXGeneral-Regular-54" d="M 3795 3149 
L 3642 3149 
Q 3539 3674 3353 3821 
Q 3168 3968 2656 3968 
L 2278 3968 
L 2278 710 
Q 2278 346 2387 243 
Q 2496 141 2893 122 
L 2893 0 
L 1024 0 
L 1024 122 
Q 1427 147 1526 256 
Q 1626 365 1626 787 
L 1626 3968 
L 1242 3968 
Q 723 3968 540 3817 
Q 358 3667 262 3149 
L 109 3149 
L 154 4237 
L 3750 4237 
L 3795 3149 
z
" transform="scale(0.015625)"/>
       <path id="STIXGeneral-Regular-72" d="M 1024 2931 
L 1024 2342 
Q 1267 2688 1430 2816 
Q 1594 2944 1792 2944 
Q 1958 2944 2051 2854 
Q 2144 2765 2144 2605 
Q 2144 2470 2077 2393 
Q 2010 2317 1894 2317 
Q 1773 2317 1638 2445 
Q 1536 2541 1472 2541 
Q 1338 2541 1181 2355 
Q 1024 2170 1024 2016 
L 1024 576 
Q 1024 301 1133 205 
Q 1242 109 1568 96 
L 1568 0 
L 32 0 
L 32 96 
Q 339 154 412 224 
Q 486 294 486 538 
L 486 2138 
Q 486 2349 438 2435 
Q 390 2522 269 2522 
Q 166 2522 45 2496 
L 45 2598 
Q 448 2726 992 2944 
L 1024 2931 
z
" transform="scale(0.015625)"/>
       <path id="STIXGeneral-Regular-61" d="M 2829 422 
L 2829 243 
Q 2586 -64 2253 -64 
Q 1888 -64 1843 403 
L 1837 403 
Q 1427 -64 909 -64 
Q 608 -64 422 112 
Q 237 288 237 602 
Q 237 1050 685 1350 
Q 992 1555 1837 1869 
L 1837 2214 
Q 1837 2502 1699 2646 
Q 1562 2790 1338 2790 
Q 1146 2790 1018 2697 
Q 890 2605 890 2477 
Q 890 2419 909 2348 
Q 928 2278 928 2208 
Q 928 2112 841 2029 
Q 755 1946 634 1946 
Q 525 1946 441 2029 
Q 358 2112 358 2240 
Q 358 2547 685 2752 
Q 986 2944 1421 2944 
Q 1939 2944 2176 2656 
Q 2291 2522 2323 2384 
Q 2355 2246 2355 1946 
L 2355 723 
Q 2355 301 2554 301 
Q 2682 301 2829 422 
z
M 1837 813 
L 1837 1715 
Q 1248 1510 1018 1293 
Q 800 1094 800 800 
Q 800 557 921 432 
Q 1043 307 1242 307 
Q 1453 307 1613 410 
Q 1747 506 1792 589 
Q 1837 672 1837 813 
z
" transform="scale(0.015625)"/>
       <path id="STIXGeneral-Regular-69" d="M 1152 4045 
Q 1152 3904 1056 3811 
Q 960 3718 819 3718 
Q 685 3718 592 3811 
Q 499 3904 499 4045 
Q 499 4179 595 4275 
Q 691 4371 826 4371 
Q 966 4371 1059 4275 
Q 1152 4179 1152 4045 
z
M 1619 0 
L 102 0 
L 102 96 
Q 435 115 521 211 
Q 608 307 608 666 
L 608 2118 
Q 608 2342 563 2432 
Q 518 2522 397 2522 
Q 243 2522 128 2490 
L 128 2592 
L 1120 2944 
L 1146 2918 
L 1146 672 
Q 1146 314 1226 218 
Q 1306 122 1619 96 
L 1619 0 
z
" transform="scale(0.015625)"/>
       <path id="STIXGeneral-Regular-6e" d="M 3104 0 
L 1773 0 
L 1779 96 
Q 2016 115 2096 233 
Q 2176 352 2176 672 
L 2176 1946 
Q 2176 2592 1709 2592 
Q 1549 2592 1408 2515 
Q 1267 2438 1050 2227 
L 1050 461 
Q 1050 269 1136 192 
Q 1222 115 1466 96 
L 1466 0 
L 115 0 
L 115 96 
Q 358 115 435 214 
Q 512 314 512 602 
L 512 2157 
Q 512 2394 467 2483 
Q 422 2573 288 2573 
Q 160 2573 102 2547 
L 102 2656 
Q 550 2784 979 2944 
L 1030 2925 
L 1030 2426 
L 1037 2426 
Q 1491 2944 1958 2944 
Q 2323 2944 2518 2688 
Q 2714 2432 2714 1958 
L 2714 544 
Q 2714 288 2790 205 
Q 2867 122 3104 96 
L 3104 0 
z
" transform="scale(0.015625)"/>
       <path id="STIXGeneral-Regular-67" d="M 3008 2483 
L 2477 2483 
Q 2598 2208 2598 1946 
Q 2598 1453 2265 1203 
Q 1933 954 1600 954 
Q 1530 954 1357 973 
L 1235 986 
Q 1107 947 979 812 
Q 851 678 851 582 
Q 851 435 1350 410 
L 2176 371 
Q 2528 358 2739 172 
Q 2950 -13 2950 -314 
Q 2950 -685 2566 -986 
Q 2035 -1395 1286 -1395 
Q 826 -1395 502 -1212 
Q 179 -1030 179 -774 
Q 179 -595 320 -419 
Q 461 -243 806 6 
Q 602 102 534 172 
Q 467 243 467 346 
Q 467 531 762 787 
Q 909 915 1037 1043 
Q 717 1203 579 1401 
Q 442 1600 442 1901 
Q 442 2336 752 2640 
Q 1062 2944 1510 2944 
Q 1766 2944 2022 2848 
L 2163 2797 
Q 2349 2733 2515 2733 
L 3008 2733 
L 3008 2483 
z
M 973 2163 
L 973 2144 
Q 973 1683 1155 1398 
Q 1338 1114 1632 1114 
Q 1850 1114 1978 1270 
Q 2106 1427 2106 1690 
Q 2106 2112 1914 2464 
Q 1754 2765 1446 2765 
Q 1222 2765 1097 2605 
Q 973 2445 973 2163 
z
M 2771 -410 
Q 2771 -230 2595 -163 
Q 2419 -96 1978 -96 
Q 1344 -96 941 -13 
Q 749 -243 688 -348 
Q 627 -454 627 -563 
Q 627 -774 880 -902 
Q 1133 -1030 1555 -1030 
Q 2099 -1030 2435 -860 
Q 2771 -691 2771 -410 
z
" transform="scale(0.015625)"/>
       <path id="STIXGeneral-Regular-20" transform="scale(0.015625)"/>
       <path id="STIXGeneral-Regular-45" d="M 3821 1082 
L 3526 0 
L 77 0 
L 77 122 
Q 442 147 538 252 
Q 634 358 634 730 
L 634 3520 
Q 634 3878 534 3987 
Q 435 4096 77 4115 
L 77 4237 
L 3469 4237 
L 3494 3322 
L 3334 3322 
Q 3264 3750 3085 3872 
Q 2906 3994 2349 3994 
L 1510 3994 
Q 1370 3994 1328 3952 
Q 1286 3910 1286 3763 
L 1286 2355 
L 2253 2355 
Q 2656 2355 2787 2470 
Q 2918 2586 2976 2970 
L 3123 2970 
L 3123 1472 
L 2976 1472 
Q 2918 1875 2790 1984 
Q 2662 2093 2253 2093 
L 1286 2093 
L 1286 538 
Q 1286 346 1420 291 
Q 1555 237 1933 237 
L 2163 237 
Q 2848 237 3136 403 
Q 3424 570 3642 1082 
L 3821 1082 
z
" transform="scale(0.015625)"/>
       <path id="STIXGeneral-Regular-76" d="M 3053 2880 
L 3053 2784 
Q 2906 2771 2835 2688 
Q 2765 2605 2637 2285 
L 1818 230 
Q 1690 -90 1638 -90 
Q 1587 -90 1523 77 
Q 1510 96 1497 141 
Q 1485 186 1472 211 
L 704 2048 
Q 499 2534 403 2652 
Q 307 2771 122 2784 
L 122 2880 
L 1376 2880 
L 1376 2784 
Q 1210 2771 1146 2732 
Q 1082 2694 1082 2611 
Q 1082 2509 1139 2368 
L 1792 730 
L 2426 2387 
Q 2464 2483 2464 2579 
Q 2464 2758 2163 2784 
L 2163 2880 
L 3053 2880 
z
" transform="scale(0.015625)"/>
       <path id="STIXGeneral-Regular-6f" d="M 3008 1478 
Q 3008 806 2608 371 
Q 2208 -64 1568 -64 
Q 979 -64 582 368 
Q 186 800 186 1459 
Q 186 2125 582 2534 
Q 979 2944 1626 2944 
Q 2221 2944 2614 2537 
Q 3008 2131 3008 1478 
z
M 2432 1306 
Q 2432 2035 2112 2445 
Q 1856 2765 1504 2765 
Q 1171 2765 966 2493 
Q 762 2221 762 1747 
Q 762 928 1101 435 
Q 1318 115 1677 115 
Q 2029 115 2230 432 
Q 2432 749 2432 1306 
z
" transform="scale(0.015625)"/>
       <path id="STIXGeneral-Regular-6d" d="M 4960 0 
L 3565 0 
L 3565 96 
Q 3834 122 3907 208 
Q 3981 294 3981 576 
L 3981 1894 
Q 3981 2278 3869 2444 
Q 3757 2611 3488 2611 
Q 3264 2611 3107 2521 
Q 2950 2432 2803 2221 
L 2803 608 
Q 2803 301 2896 201 
Q 2989 102 3264 96 
L 3264 0 
L 1830 0 
L 1830 96 
Q 2112 115 2189 188 
Q 2266 262 2266 550 
L 2266 1901 
Q 2266 2611 1850 2611 
Q 1670 2611 1468 2531 
Q 1267 2451 1171 2336 
Q 1088 2240 1088 2227 
L 1088 448 
Q 1088 243 1177 176 
Q 1267 109 1523 96 
L 1523 0 
L 102 0 
L 102 96 
Q 371 102 460 195 
Q 550 288 550 563 
L 550 2150 
Q 550 2387 499 2480 
Q 448 2573 326 2573 
Q 230 2573 122 2547 
L 122 2656 
Q 557 2778 1011 2944 
L 1062 2925 
L 1062 2451 
L 1075 2451 
Q 1363 2752 1584 2848 
Q 1805 2944 2054 2944 
Q 2560 2944 2733 2406 
Q 3232 2944 3776 2944 
Q 4518 2944 4518 1792 
L 4518 493 
Q 4518 282 4582 202 
Q 4646 122 4794 109 
L 4960 96 
L 4960 0 
z
" transform="scale(0.015625)"/>
       <path id="STIXGeneral-Regular-65" d="M 2611 1050 
L 2714 1005 
Q 2330 -64 1376 -64 
Q 813 -64 486 329 
Q 160 723 160 1389 
Q 160 2074 525 2509 
Q 890 2944 1485 2944 
Q 2061 2944 2374 2502 
Q 2560 2246 2592 1773 
L 621 1773 
Q 646 1370 700 1158 
Q 755 947 915 730 
Q 1184 378 1626 378 
Q 1939 378 2153 531 
Q 2368 685 2611 1050 
z
M 634 1978 
L 1939 1978 
Q 1882 2381 1750 2547 
Q 1619 2714 1312 2714 
Q 1043 2714 864 2525 
Q 685 2336 634 1978 
z
" transform="scale(0.015625)"/>
       <path id="STIXGeneral-Regular-74" d="M 1702 493 
L 1786 422 
Q 1478 -64 1011 -64 
Q 448 -64 448 749 
L 448 2675 
L 109 2675 
Q 83 2694 83 2720 
Q 83 2771 192 2842 
Q 435 2982 813 3526 
Q 826 3546 874 3606 
Q 922 3667 941 3706 
Q 986 3706 986 3622 
L 986 2880 
L 1632 2880 
L 1632 2675 
L 986 2675 
L 986 845 
Q 986 538 1062 403 
Q 1139 269 1318 269 
Q 1510 269 1702 493 
z
" transform="scale(0.015625)"/>
       <path id="STIXGeneral-Regular-53" d="M 3002 2963 
L 2842 2963 
Q 2733 3360 2579 3565 
Q 2189 4064 1651 4064 
Q 1357 4064 1181 3894 
Q 1005 3725 1005 3456 
Q 1005 3328 1069 3206 
Q 1133 3085 1206 2998 
Q 1280 2912 1465 2784 
Q 1651 2656 1766 2589 
Q 1882 2522 2150 2362 
Q 2669 2061 2905 1763 
Q 3142 1466 3142 1107 
Q 3142 576 2771 243 
Q 2400 -90 1837 -90 
Q 1421 -90 1082 58 
Q 915 128 781 128 
Q 704 128 653 70 
Q 602 13 602 -83 
L 461 -83 
L 275 1274 
L 416 1274 
Q 845 141 1734 141 
Q 2074 141 2285 342 
Q 2496 544 2496 858 
Q 2496 1158 2310 1363 
Q 2003 1696 1235 2106 
Q 454 2522 454 3206 
Q 454 3718 768 4022 
Q 1082 4326 1568 4326 
Q 1907 4326 2240 4186 
Q 2413 4109 2522 4109 
Q 2688 4109 2726 4326 
L 2861 4326 
L 3002 2963 
z
" transform="scale(0.015625)"/>
       <path id="STIXGeneral-Regular-70" d="M 1018 2931 
L 1018 2438 
Q 1421 2944 1939 2944 
Q 2406 2944 2707 2560 
Q 3008 2176 3008 1581 
Q 3008 883 2621 409 
Q 2234 -64 1664 -64 
Q 1466 -64 1328 -6 
Q 1190 51 1018 211 
L 1018 -794 
Q 1018 -1094 1120 -1180 
Q 1222 -1267 1581 -1274 
L 1581 -1389 
L 32 -1389 
L 32 -1280 
Q 314 -1254 397 -1171 
Q 480 -1088 480 -838 
L 480 2157 
Q 480 2381 429 2451 
Q 378 2522 218 2522 
Q 115 2522 58 2515 
L 58 2618 
Q 506 2752 979 2944 
L 1018 2931 
z
M 1018 2138 
L 1018 563 
Q 1018 422 1238 281 
Q 1459 141 1683 141 
Q 2029 141 2243 467 
Q 2458 794 2458 1325 
Q 2458 1888 2243 2224 
Q 2029 2560 1670 2560 
Q 1446 2560 1232 2419 
Q 1018 2278 1018 2138 
z
" transform="scale(0.015625)"/>
       <path id="STIXGeneral-Regular-73" d="M 998 1926 
L 1664 1523 
Q 1984 1331 2105 1164 
Q 2227 998 2227 736 
Q 2227 416 1961 176 
Q 1696 -64 1331 -64 
Q 1030 -64 864 -6 
Q 691 51 570 51 
Q 461 51 416 -26 
L 333 -26 
L 333 979 
L 435 979 
Q 538 512 730 294 
Q 922 77 1248 77 
Q 1485 77 1632 211 
Q 1779 346 1779 550 
Q 1779 845 1440 1030 
L 1094 1222 
Q 326 1651 326 2150 
Q 326 2522 566 2730 
Q 806 2938 1210 2938 
Q 1491 2938 1638 2867 
Q 1754 2816 1818 2816 
Q 1862 2816 1920 2880 
L 1990 2880 
L 2022 2010 
L 1926 2010 
Q 1818 2445 1654 2621 
Q 1491 2797 1203 2797 
Q 986 2797 854 2688 
Q 723 2579 723 2362 
Q 723 2253 796 2128 
Q 870 2003 998 1926 
z
" transform="scale(0.015625)"/>
      </defs>
      <use xlink:href="#STIXGeneral-Regular-54"/>
      <use xlink:href="#STIXGeneral-Regular-72" x="61.099991"/>
      <use xlink:href="#STIXGeneral-Regular-61" x="94.399979"/>
      <use xlink:href="#STIXGeneral-Regular-69" x="138.799973"/>
      <use xlink:href="#STIXGeneral-Regular-6e" x="166.59996"/>
      <use xlink:href="#STIXGeneral-Regular-69" x="216.599945"/>
      <use xlink:href="#STIXGeneral-Regular-6e" x="244.399933"/>
      <use xlink:href="#STIXGeneral-Regular-67" x="294.399918"/>
      <use xlink:href="#STIXGeneral-Regular-20" x="344.399902"/>
      <use xlink:href="#STIXGeneral-Regular-45" x="369.399887"/>
      <use xlink:href="#STIXGeneral-Regular-6e" x="430.499878"/>
      <use xlink:href="#STIXGeneral-Regular-76" x="480.499863"/>
      <use xlink:href="#STIXGeneral-Regular-69" x="530.499847"/>
      <use xlink:href="#STIXGeneral-Regular-72" x="558.299835"/>
      <use xlink:href="#STIXGeneral-Regular-6f" x="591.599823"/>
      <use xlink:href="#STIXGeneral-Regular-6e" x="641.599808"/>
      <use xlink:href="#STIXGeneral-Regular-6d" x="691.599792"/>
      <use xlink:href="#STIXGeneral-Regular-65" x="769.39978"/>
      <use xlink:href="#STIXGeneral-Regular-6e" x="813.799774"/>
      <use xlink:href="#STIXGeneral-Regular-74" x="863.799759"/>
      <use xlink:href="#STIXGeneral-Regular-20" x="891.599747"/>
      <use xlink:href="#STIXGeneral-Regular-53" x="916.599731"/>
      <use xlink:href="#STIXGeneral-Regular-74" x="972.199722"/>
      <use xlink:href="#STIXGeneral-Regular-65" x="999.99971"/>
      <use xlink:href="#STIXGeneral-Regular-70" x="1044.399704"/>
      <use xlink:href="#STIXGeneral-Regular-73" x="1094.399689"/>
     </g>
    </g>
    <g id="text_8">
     <!-- 1e8 -->
     <g transform="translate(490.806875 343.753562)scale(0.18 -0.18)">
      <defs>
       <path id="STIXGeneral-Regular-38" d="M 2848 992 
Q 2848 499 2505 204 
Q 2163 -90 1587 -90 
Q 1050 -90 704 204 
Q 358 499 358 954 
Q 358 1293 524 1533 
Q 691 1773 1190 2125 
Q 710 2522 553 2765 
Q 397 3008 397 3328 
Q 397 3782 745 4054 
Q 1094 4326 1638 4326 
Q 2106 4326 2410 4060 
Q 2714 3795 2714 3411 
Q 2714 3059 2531 2848 
Q 2349 2637 1856 2374 
Q 2432 1990 2640 1689 
Q 2848 1389 2848 992 
z
M 2272 3411 
Q 2272 3744 2086 3945 
Q 1901 4147 1574 4147 
Q 1248 4147 1059 3977 
Q 870 3808 870 3513 
Q 870 3219 1059 2979 
Q 1248 2739 1670 2490 
Q 1997 2682 2134 2896 
Q 2272 3110 2272 3411 
z
M 1734 1741 
L 1357 1997 
Q 1075 1766 960 1545 
Q 845 1325 845 1011 
Q 845 576 1065 333 
Q 1286 90 1658 90 
Q 1971 90 2166 285 
Q 2362 480 2362 794 
Q 2362 1082 2214 1299 
Q 2067 1517 1734 1741 
z
" transform="scale(0.015625)"/>
      </defs>
      <use xlink:href="#STIXGeneral-Regular-31"/>
      <use xlink:href="#STIXGeneral-Regular-65" x="49.999985"/>
      <use xlink:href="#STIXGeneral-Regular-38" x="94.399979"/>
     </g>
    </g>
   </g>
   <g id="matplotlib.axis_2">
    <g id="ytick_1">
     <g id="line2d_13">
      <path d="M 70.4 294.166401 
L 516.8 294.166401 
" clip-path="url(#p974fef0817)" style="fill: none; stroke: #b0b0b0; stroke-width: 0.8; stroke-linecap: square"/>
     </g>
     <g id="line2d_14">
      <defs>
       <path id="m0a748d412c" d="M 0 0 
L -3.5 0 
" style="stroke: #000000; stroke-width: 0.8"/>
      </defs>
      <g>
       <use xlink:href="#m0a748d412c" x="70.4" y="294.166401" style="stroke: #000000; stroke-width: 0.8"/>
      </g>
     </g>
     <g id="text_9">
      <!-- 0 -->
      <g transform="translate(54.4 300.31312)scale(0.18 -0.18)">
       <use xlink:href="#STIXGeneral-Regular-30"/>
      </g>
     </g>
    </g>
    <g id="ytick_2">
     <g id="line2d_15">
      <path d="M 70.4 238.220518 
L 516.8 238.220518 
" clip-path="url(#p974fef0817)" style="fill: none; stroke: #b0b0b0; stroke-width: 0.8; stroke-linecap: square"/>
     </g>
     <g id="line2d_16">
      <g>
       <use xlink:href="#m0a748d412c" x="70.4" y="238.220518" style="stroke: #000000; stroke-width: 0.8"/>
      </g>
     </g>
     <g id="text_10">
      <!-- 500 -->
      <g transform="translate(36.4 244.367236)scale(0.18 -0.18)">
       <use xlink:href="#STIXGeneral-Regular-35"/>
       <use xlink:href="#STIXGeneral-Regular-30" x="49.999985"/>
       <use xlink:href="#STIXGeneral-Regular-30" x="99.999969"/>
      </g>
     </g>
    </g>
    <g id="ytick_3">
     <g id="line2d_17">
      <path d="M 70.4 182.274635 
L 516.8 182.274635 
" clip-path="url(#p974fef0817)" style="fill: none; stroke: #b0b0b0; stroke-width: 0.8; stroke-linecap: square"/>
     </g>
     <g id="line2d_18">
      <g>
       <use xlink:href="#m0a748d412c" x="70.4" y="182.274635" style="stroke: #000000; stroke-width: 0.8"/>
      </g>
     </g>
     <g id="text_11">
      <!-- 1000 -->
      <g transform="translate(27.4 188.421353)scale(0.18 -0.18)">
       <use xlink:href="#STIXGeneral-Regular-31"/>
       <use xlink:href="#STIXGeneral-Regular-30" x="49.999985"/>
       <use xlink:href="#STIXGeneral-Regular-30" x="99.999969"/>
       <use xlink:href="#STIXGeneral-Regular-30" x="149.999954"/>
      </g>
     </g>
    </g>
    <g id="ytick_4">
     <g id="line2d_19">
      <path d="M 70.4 126.328751 
L 516.8 126.328751 
" clip-path="url(#p974fef0817)" style="fill: none; stroke: #b0b0b0; stroke-width: 0.8; stroke-linecap: square"/>
     </g>
     <g id="line2d_20">
      <g>
       <use xlink:href="#m0a748d412c" x="70.4" y="126.328751" style="stroke: #000000; stroke-width: 0.8"/>
      </g>
     </g>
     <g id="text_12">
      <!-- 1500 -->
      <g transform="translate(27.4 132.47547)scale(0.18 -0.18)">
       <use xlink:href="#STIXGeneral-Regular-31"/>
       <use xlink:href="#STIXGeneral-Regular-35" x="49.999985"/>
       <use xlink:href="#STIXGeneral-Regular-30" x="99.999969"/>
       <use xlink:href="#STIXGeneral-Regular-30" x="149.999954"/>
      </g>
     </g>
    </g>
    <g id="ytick_5">
     <g id="line2d_21">
      <path d="M 70.4 70.382868 
L 516.8 70.382868 
" clip-path="url(#p974fef0817)" style="fill: none; stroke: #b0b0b0; stroke-width: 0.8; stroke-linecap: square"/>
     </g>
     <g id="line2d_22">
      <g>
       <use xlink:href="#m0a748d412c" x="70.4" y="70.382868" style="stroke: #000000; stroke-width: 0.8"/>
      </g>
     </g>
     <g id="text_13">
      <!-- 2000 -->
      <g transform="translate(27.4 76.529587)scale(0.18 -0.18)">
       <use xlink:href="#STIXGeneral-Regular-32"/>
       <use xlink:href="#STIXGeneral-Regular-30" x="49.999985"/>
       <use xlink:href="#STIXGeneral-Regular-30" x="99.999969"/>
       <use xlink:href="#STIXGeneral-Regular-30" x="149.999954"/>
      </g>
     </g>
    </g>
    <g id="text_14">
     <!-- Average Test Return -->
     <g transform="translate(19.476562 241.641375)rotate(-90)scale(0.18 -0.18)">
      <defs>
       <path id="STIXGeneral-Regular-41" d="M 4525 0 
L 2893 0 
L 2893 122 
Q 3149 122 3245 179 
Q 3334 224 3334 333 
Q 3334 499 3213 781 
L 2950 1382 
L 1274 1382 
L 979 653 
Q 922 506 922 384 
Q 922 237 1027 179 
Q 1133 122 1370 122 
L 1370 0 
L 96 0 
L 96 122 
Q 365 147 486 316 
Q 608 486 902 1190 
L 2221 4314 
L 2349 4314 
L 3923 710 
Q 4064 378 4176 262 
Q 4288 147 4525 122 
L 4525 0 
z
M 2861 1645 
L 2118 3405 
L 1382 1645 
L 2861 1645 
z
" transform="scale(0.015625)"/>
       <path id="STIXGeneral-Regular-52" d="M 4224 0 
L 3187 0 
L 1664 1971 
L 1306 1958 
L 1306 717 
Q 1306 352 1405 249 
Q 1504 147 1875 122 
L 1875 0 
L 109 0 
L 109 122 
Q 474 154 563 262 
Q 653 371 653 794 
L 653 3526 
Q 653 3885 563 3987 
Q 474 4090 109 4115 
L 109 4237 
L 1850 4237 
Q 2726 4237 3187 3859 
Q 3501 3603 3501 3091 
Q 3501 2221 2342 2042 
L 3622 422 
Q 3757 256 3878 198 
Q 4000 141 4224 122 
L 4224 0 
z
M 1306 3731 
L 1306 2195 
Q 1766 2202 1990 2246 
Q 2214 2291 2438 2413 
Q 2803 2618 2803 3142 
Q 2803 4000 1632 4000 
Q 1459 4000 1382 3945 
Q 1306 3891 1306 3731 
z
" transform="scale(0.015625)"/>
       <path id="STIXGeneral-Regular-75" d="M 3072 320 
L 3072 230 
Q 2573 96 2195 -58 
L 2163 -38 
L 2163 486 
L 2150 486 
Q 1747 -64 1235 -64 
Q 870 -64 662 160 
Q 454 384 454 755 
L 454 2362 
Q 454 2598 371 2688 
Q 288 2778 58 2790 
L 58 2880 
L 992 2880 
L 992 813 
Q 992 595 1123 451 
Q 1254 307 1446 307 
Q 1760 307 1984 506 
Q 2067 582 2099 649 
Q 2131 717 2131 877 
L 2131 2355 
Q 2131 2605 2041 2678 
Q 1952 2752 1658 2771 
L 1658 2880 
L 2669 2880 
L 2669 685 
Q 2669 461 2742 390 
Q 2816 320 3034 320 
L 3072 320 
z
" transform="scale(0.015625)"/>
      </defs>
      <use xlink:href="#STIXGeneral-Regular-41"/>
      <use xlink:href="#STIXGeneral-Regular-76" x="72.199982"/>
      <use xlink:href="#STIXGeneral-Regular-65" x="122.199966"/>
      <use xlink:href="#STIXGeneral-Regular-72" x="166.59996"/>
      <use xlink:href="#STIXGeneral-Regular-61" x="199.899948"/>
      <use xlink:href="#STIXGeneral-Regular-67" x="244.299942"/>
      <use xlink:href="#STIXGeneral-Regular-65" x="294.299927"/>
      <use xlink:href="#STIXGeneral-Regular-20" x="338.699921"/>
      <use xlink:href="#STIXGeneral-Regular-54" x="363.699905"/>
      <use xlink:href="#STIXGeneral-Regular-65" x="424.799896"/>
      <use xlink:href="#STIXGeneral-Regular-73" x="469.19989"/>
      <use xlink:href="#STIXGeneral-Regular-74" x="508.099884"/>
      <use xlink:href="#STIXGeneral-Regular-20" x="535.899872"/>
      <use xlink:href="#STIXGeneral-Regular-52" x="560.899857"/>
      <use xlink:href="#STIXGeneral-Regular-65" x="627.599854"/>
      <use xlink:href="#STIXGeneral-Regular-74" x="671.999847"/>
      <use xlink:href="#STIXGeneral-Regular-75" x="699.799835"/>
      <use xlink:href="#STIXGeneral-Regular-72" x="749.79982"/>
      <use xlink:href="#STIXGeneral-Regular-6e" x="783.099808"/>
     </g>
    </g>
   </g>
   <g id="line2d_23">
    <path d="M 90.690909 292.442253 
L 97.989797 292.558912 
L 100.909353 292.477495 
L 109.668018 292.524141 
L 111.127796 292.500006 
L 114.047351 292.618385 
L 118.426684 292.517793 
L 131.564683 292.203668 
L 134.484238 292.06754 
L 137.403793 291.887005 
L 140.323349 291.715123 
L 144.702681 292.058572 
L 154.921125 292.001924 
L 157.84068 292.101423 
L 160.760235 291.919144 
L 163.679791 291.737266 
L 166.599346 291.705935 
L 168.059124 291.484486 
L 169.518901 291.475331 
L 172.438457 291.311523 
L 173.898234 291.307778 
L 175.358012 291.124926 
L 179.737345 291.450254 
L 185.576455 291.097377 
L 188.49601 291.041647 
L 189.955788 291.276873 
L 194.335121 291.292513 
L 195.794899 291.385289 
L 197.254676 291.658403 
L 198.714454 291.768457 
L 206.013342 291.457588 
L 208.932897 291.154842 
L 213.31223 291.002706 
L 214.772008 290.800735 
L 216.231785 290.734295 
L 220.611118 290.893497 
L 222.070896 290.873934 
L 223.530674 291.031035 
L 226.450229 290.877108 
L 227.910007 290.918805 
L 229.369784 291.448996 
L 232.289339 291.681457 
L 235.208895 291.458721 
L 238.12845 290.992347 
L 239.588228 291.017263 
L 241.048005 290.727169 
L 242.507783 290.843014 
L 258.565337 290.883245 
L 260.025114 290.973457 
L 261.484892 290.89893 
L 262.94467 291.017001 
L 273.163113 290.972511 
L 276.082668 291.002659 
L 279.002224 290.955608 
L 281.921779 291.152885 
L 287.760889 291.14594 
L 290.680445 291.482569 
L 295.059778 291.573587 
L 299.439111 291.3711 
L 300.898888 291.385757 
L 303.818443 291.032572 
L 306.737999 290.938177 
L 309.657554 290.568602 
L 312.577109 290.567979 
L 319.875997 290.412718 
L 321.335775 290.249475 
L 324.25533 290.368156 
L 325.715108 290.252648 
L 327.174886 290.344068 
L 330.094441 290.339553 
L 331.554218 290.487035 
L 333.013996 290.44564 
L 334.473774 290.585138 
L 337.393329 290.371891 
L 340.312884 290.267 
L 341.772662 290.344756 
L 346.151995 290.191625 
L 349.07155 290.313362 
L 359.289993 290.139252 
L 365.129104 290.244314 
L 366.588882 290.141792 
L 375.347547 290.405003 
L 378.267103 290.534009 
L 381.186658 290.578333 
L 384.106213 290.626667 
L 385.565991 290.779526 
L 388.485546 290.699875 
L 391.405101 290.636481 
L 392.864879 290.520248 
L 398.70399 290.444513 
L 408.922433 290.178135 
L 411.841988 290.48465 
L 413.301766 290.508123 
L 416.221321 290.905782 
L 417.681099 291.094681 
L 419.140876 290.901543 
L 423.520209 289.827377 
L 424.979987 289.705239 
L 426.439765 289.782521 
L 427.899542 290.130557 
L 430.819097 290.182045 
L 432.278875 290.277566 
L 433.738653 290.134084 
L 435.19843 290.111604 
L 436.658208 290.395138 
L 438.117986 290.548187 
L 441.037541 290.503885 
L 445.416874 290.904645 
L 448.336429 290.965185 
L 451.255984 290.487709 
L 454.17554 290.590712 
L 455.635317 290.455289 
L 458.554872 290.627918 
L 460.01465 290.655342 
L 461.474428 290.455605 
L 462.934205 290.488258 
L 464.393983 290.353808 
L 465.853761 290.587829 
L 468.773316 290.515815 
L 470.233094 290.78031 
L 476.072204 290.844095 
L 477.531982 290.753626 
L 483.371092 290.837551 
L 486.290647 290.786364 
L 487.750425 290.97537 
L 490.66998 290.986393 
L 492.129758 290.827204 
L 495.049313 290.744634 
L 496.509091 290.52949 
L 496.509091 290.52949 
" clip-path="url(#p974fef0817)" style="fill: none; stroke: #1f77b4; stroke-width: 1.5; stroke-linecap: square"/>
   </g>
   <g id="line2d_24">
    <path d="M 90.690909 268.04472 
L 93.610464 268.112922 
L 96.53002 267.848596 
L 97.989797 268.215579 
L 99.449575 267.982889 
L 100.909353 268.178459 
L 102.36913 268.507498 
L 103.828908 268.121522 
L 105.288685 268.115175 
L 108.208241 268.699194 
L 109.668018 268.450583 
L 111.127796 268.655986 
L 112.587574 269.406771 
L 114.047351 269.548561 
L 115.507129 269.44675 
L 116.966906 269.17528 
L 118.426684 269.37814 
L 119.886462 269.095294 
L 121.346239 269.047516 
L 122.806017 268.749323 
L 124.265795 268.801044 
L 125.725572 268.611457 
L 128.645128 268.684489 
L 130.104905 268.896458 
L 131.564683 268.914583 
L 133.02446 269.317929 
L 134.484238 268.988009 
L 135.944016 268.862269 
L 137.403793 269.682409 
L 138.863571 269.729443 
L 141.783126 269.182321 
L 143.242904 269.223532 
L 144.702681 269.051088 
L 149.082014 268.981504 
L 152.00157 268.48685 
L 153.461347 268.452514 
L 154.921125 268.561972 
L 156.380903 268.889094 
L 157.84068 268.589037 
L 160.760235 269.038078 
L 165.139568 268.946851 
L 166.599346 269.231149 
L 170.978679 268.903151 
L 172.438457 269.067106 
L 173.898234 269.534079 
L 175.358012 268.958554 
L 176.817789 269.408533 
L 178.277567 269.34858 
L 181.197122 270.59214 
L 182.6569 271.545308 
L 184.116678 271.287964 
L 185.576455 270.022456 
L 187.036233 269.685184 
L 188.49601 268.604163 
L 189.955788 266.365732 
L 191.415566 265.310839 
L 192.875343 263.981236 
L 194.335121 264.795877 
L 195.794899 265.205645 
L 197.254676 266.638392 
L 201.634009 268.746698 
L 203.093787 269.226881 
L 204.553564 270.493969 
L 206.013342 271.019905 
L 207.47312 270.590527 
L 208.932897 269.84257 
L 210.392675 269.406636 
L 211.852453 268.775503 
L 213.31223 269.68679 
L 214.772008 269.221208 
L 219.151341 269.961144 
L 222.070896 269.707919 
L 223.530674 270.033474 
L 224.990451 271.548141 
L 226.450229 271.86497 
L 227.910007 272.528302 
L 229.369784 273.462136 
L 230.829562 273.285005 
L 232.289339 273.889986 
L 233.749117 273.513853 
L 235.208895 271.574132 
L 236.668672 268.039931 
L 239.588228 270.500068 
L 241.048005 269.399679 
L 242.507783 269.823153 
L 243.96756 270.524325 
L 245.427338 270.867004 
L 246.887116 270.732592 
L 248.346893 270.333479 
L 249.806671 270.631695 
L 251.266449 270.193579 
L 252.726226 270.023457 
L 254.186004 268.069247 
L 255.645782 267.156796 
L 257.105559 267.549471 
L 258.565337 268.513801 
L 260.025114 269.087762 
L 261.484892 269.337499 
L 264.404447 269.412276 
L 265.864225 269.047645 
L 267.324003 269.234569 
L 268.78378 269.735074 
L 270.243558 269.851704 
L 271.703336 269.773209 
L 273.163113 269.914133 
L 274.622891 269.691535 
L 276.082668 269.271663 
L 277.542446 269.168704 
L 279.002224 269.625966 
L 280.462001 269.709866 
L 281.921779 269.601749 
L 283.381557 269.375403 
L 284.841334 269.552577 
L 286.301112 270.53856 
L 287.760889 270.787906 
L 289.220667 270.840217 
L 292.140222 271.84927 
L 295.059778 270.834885 
L 296.519555 270.859683 
L 297.979333 269.55732 
L 299.439111 269.861241 
L 300.898888 269.449206 
L 302.358666 270.447316 
L 303.818443 270.600102 
L 305.278221 270.372046 
L 306.737999 270.865286 
L 308.197776 270.769862 
L 309.657554 271.040721 
L 311.117332 270.458884 
L 312.577109 270.342638 
L 314.036887 269.660505 
L 315.496664 269.894297 
L 316.956442 269.805621 
L 318.41622 269.569856 
L 321.335775 269.915974 
L 322.795553 270.046156 
L 324.25533 270.002263 
L 325.715108 270.150214 
L 327.174886 269.903983 
L 330.094441 270.26689 
L 333.013996 270.103975 
L 334.473774 270.381644 
L 335.933551 270.92043 
L 337.393329 270.887022 
L 338.853107 271.529567 
L 340.312884 271.443031 
L 341.772662 271.219637 
L 344.692217 270.419471 
L 347.611772 270.192573 
L 349.07155 269.966987 
L 350.531328 270.046475 
L 351.991105 269.802716 
L 353.450883 269.876864 
L 354.910661 270.120173 
L 356.370438 270.102841 
L 359.289993 269.609794 
L 360.749771 269.839863 
L 362.209549 269.691563 
L 363.669326 269.721308 
L 365.129104 270.034372 
L 366.588882 269.899198 
L 368.048659 270.135623 
L 369.508437 270.037361 
L 370.968215 269.75664 
L 372.427992 269.239735 
L 373.88777 269.518017 
L 376.807325 270.286835 
L 378.267103 270.33956 
L 379.72688 269.920374 
L 381.186658 269.901494 
L 382.646436 270.132337 
L 384.106213 269.69913 
L 385.565991 268.807251 
L 387.025768 269.123987 
L 388.485546 268.966589 
L 389.945324 269.140583 
L 391.405101 268.750343 
L 392.864879 268.685461 
L 394.324657 268.241027 
L 397.244212 269.247388 
L 398.70399 269.409411 
L 404.5431 269.136892 
L 406.002878 268.8783 
L 407.462655 268.827716 
L 410.382211 268.409166 
L 411.841988 268.490297 
L 413.301766 268.877375 
L 416.221321 268.525758 
L 417.681099 268.057845 
L 420.600654 267.354634 
L 423.520209 267.424862 
L 426.439765 267.797459 
L 432.278875 267.936681 
L 433.738653 268.122856 
L 438.117986 268.157031 
L 441.037541 268.286191 
L 443.957096 268.370869 
L 454.17554 268.284053 
L 460.01465 268.288831 
L 462.934205 268.414175 
L 465.853761 268.401572 
L 467.313538 268.711556 
L 468.773316 268.205829 
L 470.233094 268.474002 
L 477.531982 268.634841 
L 478.991759 268.499974 
L 489.210203 268.53018 
L 490.66998 268.680015 
L 493.589536 268.718691 
L 496.509091 268.945129 
L 496.509091 268.945129 
" clip-path="url(#p974fef0817)" style="fill: none; stroke: #ff7f0e; stroke-width: 1.5; stroke-linecap: square"/>
   </g>
   <g id="line2d_25">
    <path d="M 90.690909 290.822004 
L 92.150687 290.606588 
L 93.610464 290.668494 
L 95.070242 290.596017 
L 96.53002 290.060895 
L 97.989797 289.846607 
L 99.449575 289.758529 
L 100.909353 290.004063 
L 102.36913 290.416861 
L 103.828908 289.517885 
L 105.288685 289.30904 
L 106.748463 289.761914 
L 108.208241 289.722437 
L 109.668018 290.149608 
L 111.127796 290.075309 
L 114.047351 290.635798 
L 115.507129 290.506436 
L 118.426684 290.682836 
L 122.806017 289.384096 
L 124.265795 289.852537 
L 125.725572 289.50847 
L 127.18535 289.91026 
L 128.645128 290.108841 
L 130.104905 290.14839 
L 131.564683 290.327142 
L 134.484238 290.10536 
L 135.944016 290.507939 
L 137.403793 290.305049 
L 138.863571 290.631568 
L 141.783126 290.723839 
L 143.242904 289.235104 
L 144.702681 289.638454 
L 146.162459 288.404327 
L 147.622237 288.310042 
L 149.082014 289.339349 
L 150.541792 289.039633 
L 152.00157 289.180826 
L 153.461347 289.76082 
L 154.921125 289.053035 
L 157.84068 286.460434 
L 159.300458 285.745401 
L 162.220013 287.609119 
L 163.679791 286.920828 
L 165.139568 285.712486 
L 166.599346 287.274091 
L 168.059124 287.783846 
L 169.518901 288.608542 
L 170.978679 289.208387 
L 172.438457 288.304533 
L 173.898234 288.061841 
L 175.358012 288.640537 
L 176.817789 285.999851 
L 178.277567 285.341382 
L 179.737345 285.407939 
L 181.197122 286.911328 
L 182.6569 287.568161 
L 184.116678 288.617234 
L 185.576455 288.124022 
L 187.036233 286.386133 
L 188.49601 287.884457 
L 189.955788 288.478441 
L 191.415566 288.83393 
L 192.875343 288.703961 
L 194.335121 288.080204 
L 195.794899 288.704722 
L 198.714454 288.403035 
L 201.634009 289.351174 
L 203.093787 287.984059 
L 204.553564 288.400924 
L 207.47312 287.961078 
L 208.932897 288.240111 
L 210.392675 287.349687 
L 211.852453 288.382803 
L 213.31223 288.378575 
L 214.772008 287.506424 
L 216.231785 288.511755 
L 217.691563 286.556611 
L 219.151341 287.529414 
L 222.070896 288.89695 
L 223.530674 289.057622 
L 224.990451 288.599563 
L 226.450229 288.270548 
L 227.910007 288.505577 
L 229.369784 288.485126 
L 230.829562 288.817001 
L 232.289339 288.966809 
L 235.208895 287.933795 
L 239.588228 288.16459 
L 241.048005 287.440926 
L 242.507783 288.163978 
L 243.96756 287.524805 
L 245.427338 286.444682 
L 246.887116 284.98142 
L 248.346893 286.039382 
L 249.806671 285.814378 
L 251.266449 283.893636 
L 252.726226 283.352194 
L 254.186004 283.682103 
L 255.645782 283.653087 
L 257.105559 284.278847 
L 258.565337 283.442582 
L 260.025114 282.794754 
L 261.484892 284.751143 
L 262.94467 282.682921 
L 264.404447 283.050726 
L 265.864225 284.113741 
L 267.324003 284.21969 
L 268.78378 283.886391 
L 270.243558 283.823227 
L 271.703336 284.837493 
L 273.163113 286.003826 
L 274.622891 286.750684 
L 276.082668 286.787814 
L 277.542446 286.100187 
L 279.002224 285.962706 
L 281.921779 284.643725 
L 283.381557 285.00743 
L 284.841334 283.892637 
L 286.301112 281.67728 
L 287.760889 283.631289 
L 289.220667 285.201556 
L 290.680445 285.986948 
L 292.140222 285.83911 
L 293.6 286.456015 
L 295.059778 286.752294 
L 296.519555 286.426873 
L 297.979333 286.386842 
L 299.439111 286.532374 
L 300.898888 286.831034 
L 302.358666 285.833614 
L 303.818443 285.462527 
L 305.278221 284.895083 
L 306.737999 285.191244 
L 308.197776 284.594072 
L 309.657554 285.177328 
L 311.117332 283.747952 
L 312.577109 284.86833 
L 314.036887 284.972771 
L 315.496664 284.865341 
L 316.956442 283.465081 
L 319.875997 282.141221 
L 321.335775 283.021678 
L 322.795553 283.547677 
L 324.25533 283.723538 
L 325.715108 281.795866 
L 327.174886 282.302593 
L 328.634663 283.916981 
L 330.094441 284.856018 
L 331.554218 284.11398 
L 333.013996 284.317873 
L 334.473774 282.984503 
L 335.933551 284.441391 
L 337.393329 285.159408 
L 338.853107 285.499592 
L 341.772662 286.579773 
L 343.23244 286.090993 
L 344.692217 286.383906 
L 346.151995 286.43192 
L 347.611772 285.299277 
L 349.07155 284.942277 
L 350.531328 282.761114 
L 351.991105 283.530013 
L 353.450883 282.107055 
L 354.910661 282.356141 
L 356.370438 282.48707 
L 357.830216 281.397864 
L 359.289993 280.548689 
L 360.749771 282.282918 
L 362.209549 282.917555 
L 363.669326 282.292735 
L 365.129104 277.941649 
L 366.588882 280.245954 
L 368.048659 279.314174 
L 369.508437 279.515032 
L 370.968215 281.052396 
L 372.427992 279.097957 
L 373.88777 280.233192 
L 375.347547 281.026825 
L 376.807325 282.551856 
L 378.267103 283.069908 
L 379.72688 282.343789 
L 382.646436 283.974129 
L 384.106213 283.524793 
L 385.565991 284.012096 
L 387.025768 283.589777 
L 388.485546 283.927627 
L 389.945324 283.680336 
L 391.405101 282.288692 
L 392.864879 281.672608 
L 395.784434 280.845333 
L 397.244212 281.149046 
L 398.70399 280.83559 
L 400.163767 281.501079 
L 401.623545 281.795272 
L 403.083322 281.814986 
L 404.5431 281.384112 
L 406.002878 280.767245 
L 407.462655 279.557689 
L 408.922433 280.164695 
L 410.382211 280.095695 
L 411.841988 278.514939 
L 413.301766 278.291629 
L 414.761543 281.195343 
L 416.221321 281.430169 
L 417.681099 282.422672 
L 419.140876 279.343868 
L 422.060432 281.354892 
L 423.520209 281.198408 
L 424.979987 280.7278 
L 426.439765 281.142734 
L 427.899542 281.393995 
L 429.35932 281.9062 
L 430.819097 281.787276 
L 432.278875 284.094459 
L 433.738653 282.777469 
L 435.19843 282.940912 
L 436.658208 281.955023 
L 438.117986 279.913498 
L 439.577763 277.347452 
L 441.037541 281.223827 
L 442.497319 281.805348 
L 443.957096 280.057593 
L 445.416874 281.766193 
L 448.336429 283.488045 
L 449.796207 284.809396 
L 451.255984 284.839247 
L 452.715762 285.161847 
L 455.635317 287.159336 
L 457.095095 287.841239 
L 458.554872 288.023675 
L 460.01465 288.537009 
L 461.474428 286.20561 
L 462.934205 286.583265 
L 464.393983 285.685475 
L 465.853761 282.858199 
L 467.313538 282.514976 
L 468.773316 282.868692 
L 470.233094 283.011734 
L 471.692871 282.924358 
L 473.152649 281.824504 
L 474.612426 283.190383 
L 476.072204 280.78132 
L 477.531982 279.505401 
L 478.991759 282.143057 
L 480.451537 279.200079 
L 481.911315 279.241368 
L 483.371092 279.810775 
L 484.83087 278.517048 
L 486.290647 275.918699 
L 489.210203 280.616505 
L 490.66998 280.125069 
L 492.129758 276.921735 
L 493.589536 274.635751 
L 495.049313 277.611655 
L 496.509091 275.151555 
L 496.509091 275.151555 
" clip-path="url(#p974fef0817)" style="fill: none; stroke: #2ca02c; stroke-width: 1.5; stroke-linecap: square"/>
   </g>
   <g id="line2d_26">
    <path d="M 90.690909 205.221318 
L 93.610464 200.218474 
L 95.070242 193.102006 
L 96.53002 190.137801 
L 97.989797 188.066575 
L 99.449575 184.456099 
L 102.36913 182.681279 
L 103.828908 183.548301 
L 105.288685 180.607795 
L 106.748463 181.895402 
L 108.208241 181.384868 
L 109.668018 179.228154 
L 111.127796 181.790551 
L 112.587574 180.605359 
L 114.047351 181.195056 
L 115.507129 184.856913 
L 116.966906 182.669069 
L 118.426684 177.001532 
L 119.886462 173.280234 
L 121.346239 167.805184 
L 122.806017 161.636783 
L 124.265795 153.741434 
L 125.725572 151.916268 
L 127.18535 151.405459 
L 128.645128 148.574612 
L 130.104905 144.835544 
L 131.564683 144.857534 
L 133.02446 143.199307 
L 134.484238 140.46866 
L 135.944016 141.593037 
L 137.403793 145.477427 
L 138.863571 143.458477 
L 140.323349 145.170847 
L 141.783126 149.206158 
L 143.242904 149.5486 
L 144.702681 150.963348 
L 146.162459 146.655205 
L 147.622237 141.401264 
L 149.082014 140.196723 
L 150.541792 132.551968 
L 152.00157 131.994732 
L 154.921125 133.485327 
L 156.380903 133.082168 
L 157.84068 133.988661 
L 159.300458 132.641001 
L 160.760235 133.800618 
L 162.220013 135.317247 
L 163.679791 134.737572 
L 165.139568 131.701377 
L 166.599346 137.798438 
L 168.059124 138.834119 
L 169.518901 141.59095 
L 170.978679 140.080566 
L 172.438457 142.08303 
L 173.898234 145.637328 
L 175.358012 139.562891 
L 176.817789 132.566311 
L 178.277567 129.856169 
L 179.737345 132.997246 
L 181.197122 133.71912 
L 182.6569 133.694963 
L 184.116678 129.961805 
L 185.576455 130.371789 
L 187.036233 129.725994 
L 188.49601 127.359132 
L 189.955788 127.408129 
L 191.415566 125.994817 
L 192.875343 122.328207 
L 194.335121 121.544218 
L 198.714454 112.195112 
L 200.174232 113.726148 
L 201.634009 114.846509 
L 203.093787 111.563968 
L 204.553564 111.750961 
L 206.013342 110.335709 
L 207.47312 104.02778 
L 208.932897 105.06753 
L 210.392675 104.929079 
L 211.852453 106.321969 
L 213.31223 103.987849 
L 214.772008 105.492636 
L 216.231785 99.48795 
L 217.691563 101.149493 
L 219.151341 110.157072 
L 220.611118 112.272979 
L 222.070896 111.550184 
L 223.530674 113.900759 
L 224.990451 110.571903 
L 226.450229 104.712423 
L 227.910007 111.788907 
L 229.369784 126.105751 
L 230.829562 126.509625 
L 232.289339 136.098567 
L 233.749117 138.294058 
L 235.208895 124.5961 
L 236.668672 116.946269 
L 238.12845 116.428406 
L 239.588228 112.053449 
L 241.048005 106.736068 
L 242.507783 111.830214 
L 243.96756 105.600844 
L 245.427338 105.711648 
L 246.887116 97.844108 
L 248.346893 96.356437 
L 249.806671 91.932796 
L 251.266449 89.053026 
L 252.726226 95.720488 
L 254.186004 96.700663 
L 255.645782 89.201796 
L 257.105559 86.921851 
L 258.565337 83.724578 
L 260.025114 87.336679 
L 261.484892 86.618415 
L 262.94467 84.649525 
L 264.404447 83.909114 
L 265.864225 82.401469 
L 267.324003 81.496145 
L 268.78378 77.243154 
L 270.243558 81.693019 
L 271.703336 81.093918 
L 273.163113 78.57865 
L 274.622891 78.654708 
L 276.082668 80.291577 
L 277.542446 79.828804 
L 279.002224 82.155136 
L 280.462001 78.187031 
L 281.921779 79.760187 
L 283.381557 81.965497 
L 284.841334 80.694012 
L 286.301112 77.85785 
L 287.760889 76.625301 
L 289.220667 67.506892 
L 290.680445 65.477459 
L 292.140222 55.984779 
L 293.6 41.456759 
L 295.059778 40.660125 
L 296.519555 45.871819 
L 297.979333 43.159812 
L 299.439111 43.481032 
L 300.898888 41.748832 
L 302.358666 45.332675 
L 303.818443 46.345181 
L 305.278221 45.843415 
L 306.737999 51.106338 
L 309.657554 60.351502 
L 311.117332 57.902889 
L 312.577109 57.739588 
L 314.036887 54.781909 
L 315.496664 52.42258 
L 316.956442 55.097632 
L 318.41622 56.327279 
L 322.795553 69.075238 
L 324.25533 67.508116 
L 325.715108 71.979875 
L 327.174886 70.343383 
L 328.634663 71.99631 
L 330.094441 78.461906 
L 331.554218 78.875488 
L 333.013996 74.280548 
L 334.473774 70.752656 
L 335.933551 74.761395 
L 337.393329 76.594077 
L 338.853107 81.575288 
L 340.312884 80.310204 
L 343.23244 80.969808 
L 346.151995 86.62926 
L 347.611772 88.659473 
L 349.07155 84.723668 
L 350.531328 87.221096 
L 351.991105 86.443146 
L 353.450883 82.849492 
L 354.910661 84.72484 
L 357.830216 87.53637 
L 359.289993 82.608293 
L 360.749771 80.201383 
L 362.209549 84.066932 
L 363.669326 83.719949 
L 365.129104 82.748393 
L 366.588882 84.335433 
L 368.048659 89.021892 
L 369.508437 103.444958 
L 370.968215 103.648369 
L 372.427992 113.613662 
L 373.88777 107.667088 
L 376.807325 97.598158 
L 378.267103 77.440422 
L 379.72688 72.011207 
L 381.186658 65.844733 
L 382.646436 69.582996 
L 384.106213 77.694671 
L 385.565991 95.062691 
L 387.025768 92.897897 
L 388.485546 104.024798 
L 389.945324 123.71841 
L 391.405101 128.082197 
L 392.864879 137.868257 
L 394.324657 144.703441 
L 395.784434 149.010715 
L 397.244212 137.888491 
L 398.70399 134.090605 
L 400.163767 143.066186 
L 401.623545 161.238737 
L 403.083322 173.781662 
L 404.5431 180.09762 
L 407.462655 202.05407 
L 408.922433 208.260373 
L 410.382211 212.369597 
L 411.841988 215.691434 
L 413.301766 207.841355 
L 416.221321 195.850272 
L 417.681099 197.57691 
L 419.140876 201.80704 
L 420.600654 206.684658 
L 422.060432 213.171469 
L 423.520209 216.123378 
L 424.979987 214.572837 
L 426.439765 210.644407 
L 427.899542 210.450509 
L 429.35932 207.233654 
L 430.819097 208.542594 
L 432.278875 211.756185 
L 433.738653 207.527257 
L 435.19843 196.292298 
L 436.658208 202.702553 
L 438.117986 202.30788 
L 439.577763 209.695418 
L 441.037541 211.063257 
L 442.497319 212.166082 
L 443.957096 215.722313 
L 446.876651 215.247254 
L 448.336429 215.633497 
L 449.796207 217.506085 
L 452.715762 214.092411 
L 454.17554 215.04069 
L 455.635317 211.195196 
L 457.095095 211.42062 
L 458.554872 213.678855 
L 460.01465 214.442916 
L 461.474428 215.049585 
L 462.934205 213.290407 
L 464.393983 213.847434 
L 465.853761 213.136697 
L 467.313538 210.436734 
L 468.773316 210.384646 
L 470.233094 212.391541 
L 471.692871 213.68708 
L 473.152649 208.296967 
L 474.612426 207.818311 
L 476.072204 208.630099 
L 477.531982 211.82682 
L 478.991759 212.844204 
L 480.451537 216.145142 
L 481.911315 214.805008 
L 483.371092 215.945444 
L 484.83087 213.90699 
L 486.290647 210.634765 
L 487.750425 213.333091 
L 489.210203 213.472679 
L 490.66998 214.184596 
L 492.129758 210.815395 
L 493.589536 206.093639 
L 495.049313 202.12929 
L 496.509091 199.920553 
L 496.509091 199.920553 
" clip-path="url(#p974fef0817)" style="fill: none; stroke: #d62728; stroke-width: 1.5; stroke-linecap: square"/>
   </g>
   <g id="line2d_27">
    <path d="M 90.690909 218.248643 
L 92.150687 217.999255 
L 93.610464 217.094337 
L 95.070242 217.254752 
L 96.53002 218.948876 
L 97.989797 215.7802 
L 99.449575 217.766878 
L 100.909353 214.70396 
L 102.36913 214.332475 
L 103.828908 215.486286 
L 105.288685 215.483367 
L 106.748463 214.733544 
L 108.208241 209.41629 
L 109.668018 208.828915 
L 111.127796 210.783198 
L 112.587574 209.083909 
L 114.047351 211.588496 
L 115.507129 210.952447 
L 116.966906 208.551923 
L 118.426684 212.717112 
L 119.886462 212.318448 
L 121.346239 215.967993 
L 122.806017 218.418331 
L 124.265795 217.342799 
L 125.725572 217.678606 
L 127.18535 216.99473 
L 128.645128 219.327993 
L 130.104905 221.961937 
L 131.564683 222.830551 
L 133.02446 222.355948 
L 134.484238 222.959969 
L 135.944016 225.426305 
L 137.403793 223.790437 
L 138.863571 222.666885 
L 140.323349 222.191875 
L 141.783126 219.006611 
L 143.242904 220.700714 
L 144.702681 223.13109 
L 147.622237 225.715862 
L 149.082014 225.294164 
L 150.541792 224.737369 
L 152.00157 227.44106 
L 153.461347 226.61231 
L 154.921125 226.843675 
L 156.380903 224.088967 
L 157.84068 223.226214 
L 159.300458 222.063469 
L 160.760235 221.110451 
L 162.220013 220.407468 
L 163.679791 221.054442 
L 165.139568 217.872087 
L 166.599346 218.590935 
L 168.059124 219.539475 
L 169.518901 220.054849 
L 170.978679 215.189525 
L 172.438457 216.568288 
L 173.898234 220.422038 
L 175.358012 221.300328 
L 176.817789 220.13203 
L 178.277567 222.287061 
L 179.737345 219.161813 
L 181.197122 219.343875 
L 182.6569 216.132883 
L 184.116678 214.266333 
L 185.576455 212.888099 
L 187.036233 213.406739 
L 188.49601 211.461676 
L 189.955788 210.703243 
L 191.415566 210.838084 
L 192.875343 212.308834 
L 194.335121 208.51467 
L 197.254676 214.912429 
L 198.714454 212.74895 
L 201.634009 213.558238 
L 203.093787 216.632683 
L 204.553564 215.04145 
L 206.013342 211.72453 
L 207.47312 211.305039 
L 208.932897 213.018296 
L 210.392675 214.967371 
L 211.852453 208.707903 
L 213.31223 204.696564 
L 214.772008 206.258053 
L 216.231785 200.242067 
L 217.691563 203.765778 
L 219.151341 211.86334 
L 220.611118 212.372702 
L 222.070896 210.755649 
L 223.530674 210.798536 
L 224.990451 207.39367 
L 226.450229 204.924172 
L 227.910007 205.302225 
L 229.369784 208.262057 
L 230.829562 210.054377 
L 232.289339 209.48204 
L 233.749117 206.222966 
L 235.208895 197.759382 
L 236.668672 194.418652 
L 238.12845 196.516126 
L 239.588228 201.810074 
L 241.048005 203.379457 
L 242.507783 202.753916 
L 243.96756 205.489552 
L 245.427338 207.774868 
L 246.887116 207.554387 
L 248.346893 206.277294 
L 249.806671 206.149125 
L 251.266449 208.885318 
L 252.726226 213.285761 
L 254.186004 208.222653 
L 255.645782 198.80822 
L 257.105559 201.808515 
L 258.565337 201.836521 
L 260.025114 209.159246 
L 261.484892 209.368765 
L 262.94467 209.801487 
L 264.404447 209.819092 
L 265.864225 213.46269 
L 267.324003 212.463531 
L 268.78378 211.019217 
L 270.243558 211.735949 
L 271.703336 211.788903 
L 273.163113 211.064966 
L 274.622891 204.239002 
L 276.082668 204.999672 
L 277.542446 206.688333 
L 280.462001 203.847123 
L 281.921779 202.913601 
L 283.381557 198.958248 
L 284.841334 200.762603 
L 286.301112 199.527478 
L 287.760889 199.22156 
L 289.220667 197.354655 
L 290.680445 197.69043 
L 292.140222 197.257117 
L 293.6 195.911083 
L 295.059778 192.555127 
L 296.519555 191.645034 
L 297.979333 187.769051 
L 299.439111 186.601872 
L 300.898888 185.113262 
L 302.358666 187.132006 
L 303.818443 183.754679 
L 305.278221 175.829965 
L 306.737999 180.658646 
L 308.197776 181.849563 
L 309.657554 183.8164 
L 311.117332 178.73041 
L 312.577109 174.393541 
L 314.036887 160.862872 
L 315.496664 163.485332 
L 316.956442 151.603594 
L 318.41622 142.731279 
L 319.875997 142.937901 
L 322.795553 156.722693 
L 324.25533 173.035105 
L 325.715108 178.936916 
L 327.174886 188.051617 
L 328.634663 181.699035 
L 330.094441 184.115792 
L 331.554218 186.9537 
L 333.013996 195.274004 
L 334.473774 190.982213 
L 335.933551 187.583174 
L 337.393329 188.935607 
L 338.853107 188.782775 
L 340.312884 186.294017 
L 341.772662 176.863664 
L 343.23244 172.472806 
L 344.692217 180.248873 
L 346.151995 180.273911 
L 347.611772 174.716464 
L 349.07155 166.538389 
L 350.531328 157.437678 
L 351.991105 149.990528 
L 353.450883 152.316194 
L 354.910661 161.093073 
L 356.370438 161.227499 
L 357.830216 166.357375 
L 359.289993 170.863849 
L 360.749771 168.479427 
L 362.209549 157.493191 
L 363.669326 150.57375 
L 366.588882 126.462646 
L 368.048659 123.432193 
L 369.508437 118.008073 
L 370.968215 117.761348 
L 372.427992 110.804518 
L 373.88777 109.825504 
L 375.347547 124.639271 
L 376.807325 131.20682 
L 378.267103 130.327295 
L 379.72688 125.718251 
L 381.186658 127.016376 
L 382.646436 128.089059 
L 384.106213 128.360629 
L 385.565991 127.567355 
L 387.025768 126.644829 
L 388.485546 125.486912 
L 389.945324 127.459229 
L 391.405101 125.422655 
L 392.864879 127.41785 
L 394.324657 122.499727 
L 395.784434 121.657734 
L 397.244212 134.10176 
L 398.70399 136.716602 
L 400.163767 133.345966 
L 401.623545 130.608821 
L 403.083322 140.224458 
L 404.5431 140.136923 
L 406.002878 140.697704 
L 407.462655 148.857335 
L 408.922433 151.196879 
L 410.382211 153.003607 
L 411.841988 148.81647 
L 413.301766 136.000612 
L 414.761543 143.555198 
L 416.221321 167.845276 
L 417.681099 178.956964 
L 419.140876 195.099097 
L 420.600654 202.302178 
L 422.060432 203.214417 
L 423.520209 207.740592 
L 424.979987 198.512569 
L 426.439765 193.962457 
L 427.899542 203.96617 
L 429.35932 209.582918 
L 430.819097 212.771997 
L 432.278875 217.70172 
L 433.738653 215.840466 
L 435.19843 205.702123 
L 436.658208 207.952363 
L 438.117986 213.374567 
L 439.577763 215.353315 
L 441.037541 219.345559 
L 442.497319 216.898611 
L 443.957096 216.309561 
L 445.416874 219.102925 
L 446.876651 222.609049 
L 448.336429 219.710216 
L 449.796207 225.05467 
L 451.255984 221.031488 
L 452.715762 222.613494 
L 454.17554 220.435281 
L 455.635317 220.315379 
L 457.095095 223.154121 
L 460.01465 222.035406 
L 461.474428 218.596469 
L 462.934205 221.966339 
L 464.393983 224.319041 
L 465.853761 222.664017 
L 467.313538 223.756178 
L 468.773316 224.645127 
L 470.233094 224.959822 
L 471.692871 225.445422 
L 473.152649 226.566087 
L 474.612426 226.002774 
L 476.072204 227.525568 
L 477.531982 227.17145 
L 478.991759 229.303926 
L 480.451537 232.474599 
L 481.911315 225.078515 
L 483.371092 228.335024 
L 484.83087 230.196086 
L 486.290647 226.48718 
L 487.750425 228.356592 
L 489.210203 226.432904 
L 490.66998 226.534102 
L 492.129758 218.438526 
L 493.589536 218.360046 
L 495.049313 217.118178 
L 496.509091 218.932919 
L 496.509091 218.932919 
" clip-path="url(#p974fef0817)" style="fill: none; stroke: #9467bd; stroke-width: 1.5; stroke-linecap: square"/>
   </g>
   <g id="patch_3">
    <path d="M 70.4 305.260125 
L 70.4 28.060125 
" style="fill: none; stroke: #000000; stroke-width: 0.8; stroke-linejoin: miter; stroke-linecap: square"/>
   </g>
   <g id="patch_4">
    <path d="M 516.8 305.260125 
L 516.8 28.060125 
" style="fill: none; stroke: #000000; stroke-width: 0.8; stroke-linejoin: miter; stroke-linecap: square"/>
   </g>
   <g id="patch_5">
    <path d="M 70.4 305.260125 
L 516.8 305.260125 
" style="fill: none; stroke: #000000; stroke-width: 0.8; stroke-linejoin: miter; stroke-linecap: square"/>
   </g>
   <g id="patch_6">
    <path d="M 70.4 28.060125 
L 516.8 28.060125 
" style="fill: none; stroke: #000000; stroke-width: 0.8; stroke-linejoin: miter; stroke-linecap: square"/>
   </g>
   <g id="text_15">
    <!-- ML45 Meta Testing -->
    <g transform="translate(206.604313 22.060125)scale(0.216 -0.216)">
     <defs>
      <path id="STIXGeneral-Regular-4d" d="M 5530 0 
L 3738 0 
L 3738 122 
Q 4115 147 4214 265 
Q 4314 384 4314 787 
L 4314 3661 
L 2682 0 
L 2592 0 
L 979 3514 
L 979 966 
Q 979 448 1088 294 
Q 1197 141 1574 122 
L 1574 0 
L 77 0 
L 77 122 
Q 358 141 480 205 
Q 602 269 650 432 
Q 698 595 698 966 
L 698 3514 
Q 698 3878 589 3984 
Q 480 4090 90 4115 
L 90 4237 
L 1357 4237 
L 2835 1024 
L 4250 4237 
L 5523 4237 
L 5523 4115 
Q 5178 4109 5072 3993 
Q 4966 3878 4966 3520 
L 4966 717 
Q 4966 378 5072 262 
Q 5178 147 5530 122 
L 5530 0 
z
" transform="scale(0.015625)"/>
      <path id="STIXGeneral-Regular-4c" d="M 3827 1114 
L 3520 0 
L 77 0 
L 77 122 
Q 429 141 531 256 
Q 634 371 634 736 
L 634 3494 
Q 634 3872 541 3981 
Q 448 4090 77 4115 
L 77 4237 
L 1888 4237 
L 1888 4115 
Q 1498 4090 1392 3984 
Q 1286 3878 1286 3507 
L 1286 538 
Q 1286 358 1398 304 
Q 1510 250 1862 250 
L 2310 250 
Q 3085 250 3392 640 
Q 3520 813 3661 1114 
L 3827 1114 
z
" transform="scale(0.015625)"/>
     </defs>
     <use xlink:href="#STIXGeneral-Regular-4d"/>
     <use xlink:href="#STIXGeneral-Regular-4c" x="88.899994"/>
     <use xlink:href="#STIXGeneral-Regular-34" x="149.999985"/>
     <use xlink:href="#STIXGeneral-Regular-35" x="199.999969"/>
     <use xlink:href="#STIXGeneral-Regular-20" x="249.999954"/>
     <use xlink:href="#STIXGeneral-Regular-4d" x="274.999939"/>
     <use xlink:href="#STIXGeneral-Regular-65" x="363.899933"/>
     <use xlink:href="#STIXGeneral-Regular-74" x="408.299927"/>
     <use xlink:href="#STIXGeneral-Regular-61" x="436.099915"/>
     <use xlink:href="#STIXGeneral-Regular-20" x="480.499908"/>
     <use xlink:href="#STIXGeneral-Regular-54" x="505.499893"/>
     <use xlink:href="#STIXGeneral-Regular-65" x="566.599884"/>
     <use xlink:href="#STIXGeneral-Regular-73" x="610.999878"/>
     <use xlink:href="#STIXGeneral-Regular-74" x="649.899872"/>
     <use xlink:href="#STIXGeneral-Regular-69" x="677.69986"/>
     <use xlink:href="#STIXGeneral-Regular-6e" x="705.499847"/>
     <use xlink:href="#STIXGeneral-Regular-67" x="755.499832"/>
    </g>
   </g>
   <g id="legend_1">
    <g id="patch_7">
     <path d="M 80.2 138.465437 
L 212.093125 138.465437 
Q 214.893125 138.465437 214.893125 135.665437 
L 214.893125 37.860125 
Q 214.893125 35.060125 212.093125 35.060125 
L 80.2 35.060125 
Q 77.4 35.060125 77.4 37.860125 
L 77.4 135.665437 
Q 77.4 138.465437 80.2 138.465437 
z
" style="fill: #ffffff; opacity: 0.8; stroke: #cccccc; stroke-linejoin: miter"/>
    </g>
    <g id="line2d_28">
     <path d="M 83 45.560125 
L 97 45.560125 
L 111 45.560125 
" style="fill: none; stroke: #1f77b4; stroke-width: 1.5; stroke-linecap: square"/>
    </g>
    <g id="text_16">
     <!-- bin-picking-v2 -->
     <g transform="translate(122.2 50.460125)scale(0.14 -0.14)">
      <defs>
       <path id="STIXGeneral-Regular-62" d="M 979 4358 
L 979 2406 
Q 1082 2650 1315 2797 
Q 1549 2944 1843 2944 
Q 2349 2944 2672 2541 
Q 2995 2138 2995 1536 
Q 2995 832 2566 384 
Q 2138 -64 1498 -64 
Q 1107 -64 774 67 
Q 442 198 442 358 
L 442 3622 
Q 442 3859 384 3926 
Q 326 3994 128 3994 
Q 83 3994 19 3981 
L 19 4090 
L 211 4147 
Q 864 4346 947 4371 
L 979 4358 
z
M 979 2035 
L 979 474 
Q 979 326 1161 233 
Q 1344 141 1600 141 
Q 1978 141 2195 416 
Q 2432 710 2432 1261 
Q 2432 1888 2182 2240 
Q 1971 2541 1613 2541 
Q 1357 2541 1168 2390 
Q 979 2240 979 2035 
z
" transform="scale(0.015625)"/>
       <path id="STIXGeneral-Regular-2d" d="M 1824 1242 
L 250 1242 
L 250 1645 
L 1824 1645 
L 1824 1242 
z
" transform="scale(0.015625)"/>
       <path id="STIXGeneral-Regular-63" d="M 2547 998 
L 2637 941 
Q 2362 403 2112 205 
Q 1786 -64 1376 -64 
Q 845 -64 502 336 
Q 160 736 160 1357 
Q 160 2170 698 2618 
Q 1094 2944 1562 2944 
Q 1965 2944 2256 2749 
Q 2547 2554 2547 2285 
Q 2547 2176 2457 2096 
Q 2368 2016 2246 2016 
Q 2022 2016 1939 2310 
L 1901 2451 
Q 1850 2630 1773 2694 
Q 1696 2758 1523 2758 
Q 1133 2758 893 2451 
Q 653 2144 653 1645 
Q 653 1094 928 745 
Q 1203 397 1645 397 
Q 1920 397 2118 528 
Q 2317 659 2547 998 
z
" transform="scale(0.015625)"/>
       <path id="STIXGeneral-Regular-6b" d="M 3232 0 
L 1837 0 
L 1837 96 
L 1958 96 
Q 2093 96 2093 192 
Q 2093 250 2022 339 
L 1062 1606 
L 1062 429 
Q 1062 262 1142 185 
Q 1222 109 1414 102 
L 1542 96 
L 1542 0 
L 45 0 
L 45 96 
Q 390 154 457 214 
Q 525 275 525 525 
L 525 3610 
Q 525 3840 467 3920 
Q 410 4000 250 4000 
Q 211 4000 45 3987 
L 45 4090 
L 237 4141 
Q 621 4243 1037 4371 
L 1062 4358 
L 1062 1670 
L 1939 2451 
Q 2086 2586 2086 2675 
Q 2086 2739 2019 2761 
Q 1952 2784 1766 2790 
L 1766 2880 
L 3072 2880 
L 3072 2784 
Q 2752 2784 2505 2646 
Q 2259 2509 1690 1978 
L 1504 1805 
L 2483 563 
Q 2829 122 3232 96 
L 3232 0 
z
" transform="scale(0.015625)"/>
      </defs>
      <use xlink:href="#STIXGeneral-Regular-62"/>
      <use xlink:href="#STIXGeneral-Regular-69" x="49.999985"/>
      <use xlink:href="#STIXGeneral-Regular-6e" x="77.799973"/>
      <use xlink:href="#STIXGeneral-Regular-2d" x="127.799957"/>
      <use xlink:href="#STIXGeneral-Regular-70" x="161.099945"/>
      <use xlink:href="#STIXGeneral-Regular-69" x="211.09993"/>
      <use xlink:href="#STIXGeneral-Regular-63" x="238.899918"/>
      <use xlink:href="#STIXGeneral-Regular-6b" x="283.299911"/>
      <use xlink:href="#STIXGeneral-Regular-69" x="333.299896"/>
      <use xlink:href="#STIXGeneral-Regular-6e" x="361.099884"/>
      <use xlink:href="#STIXGeneral-Regular-67" x="411.099869"/>
      <use xlink:href="#STIXGeneral-Regular-2d" x="461.099854"/>
      <use xlink:href="#STIXGeneral-Regular-76" x="494.399841"/>
      <use xlink:href="#STIXGeneral-Regular-32" x="544.399826"/>
     </g>
    </g>
    <g id="line2d_29">
     <path d="M 83 65.411687 
L 97 65.411687 
L 111 65.411687 
" style="fill: none; stroke: #ff7f0e; stroke-width: 1.5; stroke-linecap: square"/>
    </g>
    <g id="text_17">
     <!-- box-close-v2 -->
     <g transform="translate(122.2 70.311687)scale(0.14 -0.14)">
      <defs>
       <path id="STIXGeneral-Regular-78" d="M 3066 0 
L 1779 0 
L 1779 96 
Q 1939 109 1987 137 
Q 2035 166 2035 250 
Q 2035 307 1997 365 
L 1414 1261 
L 909 474 
Q 781 275 781 211 
Q 781 96 1037 96 
L 1037 0 
L 109 0 
L 109 96 
Q 269 109 355 169 
Q 442 230 576 422 
L 1306 1478 
L 704 2400 
Q 557 2624 454 2704 
Q 352 2784 211 2784 
L 154 2784 
L 154 2880 
L 1478 2880 
L 1478 2784 
Q 1203 2778 1203 2643 
Q 1203 2509 1498 2074 
Q 1581 1958 1587 1946 
Q 1619 1990 1779 2227 
Q 1811 2285 1856 2349 
Q 1901 2413 1923 2451 
Q 1946 2490 1971 2528 
Q 1997 2566 2006 2595 
Q 2016 2624 2016 2643 
Q 2016 2765 1760 2784 
L 1760 2880 
L 2771 2880 
L 2771 2784 
Q 2445 2771 2253 2502 
L 1722 1734 
L 2541 480 
Q 2790 96 3066 96 
L 3066 0 
z
" transform="scale(0.015625)"/>
       <path id="STIXGeneral-Regular-6c" d="M 1645 0 
L 134 0 
L 134 96 
Q 435 122 531 221 
Q 627 320 627 589 
L 627 3590 
Q 627 3821 569 3910 
Q 512 4000 358 4000 
Q 224 4000 122 3987 
L 122 4090 
Q 730 4237 1133 4371 
L 1165 4346 
L 1165 557 
Q 1165 288 1254 201 
Q 1344 115 1645 96 
L 1645 0 
z
" transform="scale(0.015625)"/>
      </defs>
      <use xlink:href="#STIXGeneral-Regular-62"/>
      <use xlink:href="#STIXGeneral-Regular-6f" x="49.999985"/>
      <use xlink:href="#STIXGeneral-Regular-78" x="99.999969"/>
      <use xlink:href="#STIXGeneral-Regular-2d" x="149.999954"/>
      <use xlink:href="#STIXGeneral-Regular-63" x="183.299942"/>
      <use xlink:href="#STIXGeneral-Regular-6c" x="227.699936"/>
      <use xlink:href="#STIXGeneral-Regular-6f" x="255.499924"/>
      <use xlink:href="#STIXGeneral-Regular-73" x="305.499908"/>
      <use xlink:href="#STIXGeneral-Regular-65" x="344.399902"/>
      <use xlink:href="#STIXGeneral-Regular-2d" x="388.799896"/>
      <use xlink:href="#STIXGeneral-Regular-76" x="422.099884"/>
      <use xlink:href="#STIXGeneral-Regular-32" x="472.099869"/>
     </g>
    </g>
    <g id="line2d_30">
     <path d="M 83 85.250125 
L 97 85.250125 
L 111 85.250125 
" style="fill: none; stroke: #2ca02c; stroke-width: 1.5; stroke-linecap: square"/>
    </g>
    <g id="text_18">
     <!-- hand-insert-v2 -->
     <g transform="translate(122.2 90.150125)scale(0.14 -0.14)">
      <defs>
       <path id="STIXGeneral-Regular-68" d="M 3117 0 
L 1760 0 
L 1760 96 
Q 2042 128 2118 224 
Q 2195 320 2195 653 
L 2195 1920 
Q 2195 2598 1722 2598 
Q 1530 2598 1370 2508 
Q 1210 2419 1005 2195 
L 1005 653 
Q 1005 320 1081 224 
Q 1158 128 1440 96 
L 1440 0 
L 58 0 
L 58 96 
Q 333 134 400 224 
Q 467 314 467 653 
L 467 3667 
Q 467 3872 406 3933 
Q 346 3994 141 3994 
Q 83 3994 64 3987 
L 64 4090 
L 237 4141 
Q 730 4288 973 4371 
L 1005 4352 
L 1005 2406 
Q 1229 2694 1446 2819 
Q 1664 2944 1946 2944 
Q 2733 2944 2733 1926 
L 2733 653 
Q 2733 320 2793 233 
Q 2854 147 3117 96 
L 3117 0 
z
" transform="scale(0.015625)"/>
       <path id="STIXGeneral-Regular-64" d="M 3142 269 
L 2202 -64 
L 2176 -45 
L 2176 365 
Q 1869 -64 1357 -64 
Q 826 -64 499 317 
Q 173 698 173 1312 
Q 173 1990 563 2467 
Q 954 2944 1504 2944 
Q 1850 2944 2176 2669 
L 2176 3667 
Q 2176 3866 2118 3930 
Q 2061 3994 1882 3994 
Q 1792 3994 1741 3987 
L 1741 4090 
Q 2323 4243 2682 4371 
L 2714 4358 
L 2714 730 
Q 2714 506 2768 435 
Q 2822 365 2995 365 
Q 3034 365 3142 371 
L 3142 269 
z
M 2176 653 
L 2176 2125 
Q 2176 2381 1981 2573 
Q 1786 2765 1523 2765 
Q 1158 2765 940 2438 
Q 723 2112 723 1568 
Q 723 979 963 624 
Q 1203 269 1606 269 
Q 1907 269 2080 474 
Q 2176 582 2176 653 
z
" transform="scale(0.015625)"/>
      </defs>
      <use xlink:href="#STIXGeneral-Regular-68"/>
      <use xlink:href="#STIXGeneral-Regular-61" x="49.999985"/>
      <use xlink:href="#STIXGeneral-Regular-6e" x="94.399979"/>
      <use xlink:href="#STIXGeneral-Regular-64" x="144.399963"/>
      <use xlink:href="#STIXGeneral-Regular-2d" x="194.399948"/>
      <use xlink:href="#STIXGeneral-Regular-69" x="227.699936"/>
      <use xlink:href="#STIXGeneral-Regular-6e" x="255.499924"/>
      <use xlink:href="#STIXGeneral-Regular-73" x="305.499908"/>
      <use xlink:href="#STIXGeneral-Regular-65" x="344.399902"/>
      <use xlink:href="#STIXGeneral-Regular-72" x="388.799896"/>
      <use xlink:href="#STIXGeneral-Regular-74" x="422.099884"/>
      <use xlink:href="#STIXGeneral-Regular-2d" x="449.899872"/>
      <use xlink:href="#STIXGeneral-Regular-76" x="483.19986"/>
      <use xlink:href="#STIXGeneral-Regular-32" x="533.199844"/>
     </g>
    </g>
    <g id="line2d_31">
     <path d="M 83 105.088562 
L 97 105.088562 
L 111 105.088562 
" style="fill: none; stroke: #d62728; stroke-width: 1.5; stroke-linecap: square"/>
    </g>
    <g id="text_19">
     <!-- door-lock-v2 -->
     <g transform="translate(122.2 109.988562)scale(0.14 -0.14)">
      <use xlink:href="#STIXGeneral-Regular-64"/>
      <use xlink:href="#STIXGeneral-Regular-6f" x="49.999985"/>
      <use xlink:href="#STIXGeneral-Regular-6f" x="99.999969"/>
      <use xlink:href="#STIXGeneral-Regular-72" x="149.999954"/>
      <use xlink:href="#STIXGeneral-Regular-2d" x="183.299942"/>
      <use xlink:href="#STIXGeneral-Regular-6c" x="216.59993"/>
      <use xlink:href="#STIXGeneral-Regular-6f" x="244.399918"/>
      <use xlink:href="#STIXGeneral-Regular-63" x="294.399902"/>
      <use xlink:href="#STIXGeneral-Regular-6b" x="338.799896"/>
      <use xlink:href="#STIXGeneral-Regular-2d" x="388.799881"/>
      <use xlink:href="#STIXGeneral-Regular-76" x="422.099869"/>
      <use xlink:href="#STIXGeneral-Regular-32" x="472.099854"/>
     </g>
    </g>
    <g id="line2d_32">
     <path d="M 83 124.927 
L 97 124.927 
L 111 124.927 
" style="fill: none; stroke: #9467bd; stroke-width: 1.5; stroke-linecap: square"/>
    </g>
    <g id="text_20">
     <!-- door-unlock-v2 -->
     <g transform="translate(122.2 129.827)scale(0.14 -0.14)">
      <use xlink:href="#STIXGeneral-Regular-64"/>
      <use xlink:href="#STIXGeneral-Regular-6f" x="49.999985"/>
      <use xlink:href="#STIXGeneral-Regular-6f" x="99.999969"/>
      <use xlink:href="#STIXGeneral-Regular-72" x="149.999954"/>
      <use xlink:href="#STIXGeneral-Regular-2d" x="183.299942"/>
      <use xlink:href="#STIXGeneral-Regular-75" x="216.59993"/>
      <use xlink:href="#STIXGeneral-Regular-6e" x="266.599915"/>
      <use xlink:href="#STIXGeneral-Regular-6c" x="316.599899"/>
      <use xlink:href="#STIXGeneral-Regular-6f" x="344.399887"/>
      <use xlink:href="#STIXGeneral-Regular-63" x="394.399872"/>
      <use xlink:href="#STIXGeneral-Regular-6b" x="438.799866"/>
      <use xlink:href="#STIXGeneral-Regular-2d" x="488.79985"/>
      <use xlink:href="#STIXGeneral-Regular-76" x="522.099838"/>
      <use xlink:href="#STIXGeneral-Regular-32" x="572.099823"/>
     </g>
    </g>
   </g>
  </g>
 </g>
 <defs>
  <clipPath id="p974fef0817">
   <rect x="70.4" y="28.060125" width="446.4" height="277.2"/>
  </clipPath>
 </defs>
</svg>
