<?xml version="1.0" encoding="utf-8" standalone="no"?>
<!DOCTYPE svg PUBLIC "-//W3C//DTD SVG 1.1//EN"
  "http://www.w3.org/Graphics/SVG/1.1/DTD/svg11.dtd">
<svg xmlns:xlink="http://www.w3.org/1999/xlink" width="510.5pt" height="355.877pt" viewBox="0 0 510.5 355.877" xmlns="http://www.w3.org/2000/svg" version="1.1">
 <metadata>
  <rdf:RDF xmlns:dc="http://purl.org/dc/elements/1.1/" xmlns:cc="http://creativecommons.org/ns#" xmlns:rdf="http://www.w3.org/1999/02/22-rdf-syntax-ns#">
   <cc:Work>
    <dc:type rdf:resource="http://purl.org/dc/dcmitype/StillImage"/>
    <dc:date>2021-12-11T20:27:11.123402</dc:date>
    <dc:format>image/svg+xml</dc:format>
    <dc:creator>
     <cc:Agent>
      <dc:title>Matplotlib v3.5.0, https://matplotlib.org/</dc:title>
     </cc:Agent>
    </dc:creator>
   </cc:Work>
  </rdf:RDF>
 </metadata>
 <defs>
  <style type="text/css">*{stroke-linejoin: round; stroke-linecap: butt}</style>
 </defs>
 <g id="figure_1">
  <g id="patch_1">
   <path d="M 0 355.877 
L 510.5 355.877 
L 510.5 0 
L 0 0 
z
" style="fill: #ffffff"/>
  </g>
  <g id="axes_1">
   <g id="patch_2">
    <path d="M 56.9 305.260125 
L 503.3 305.260125 
L 503.3 28.060125 
L 56.9 28.060125 
z
" style="fill: #ffffff"/>
   </g>
   <g id="matplotlib.axis_1">
    <g id="xtick_1">
     <g id="line2d_1">
      <path d="M 75.43412 305.260125 
L 75.43412 28.060125 
" clip-path="url(#p38ad1cc9e1)" style="fill: none; stroke: #b0b0b0; stroke-width: 0.8; stroke-linecap: square"/>
     </g>
     <g id="line2d_2">
      <defs>
       <path id="m61ee175c7a" d="M 0 0 
L 0 3.5 
" style="stroke: #000000; stroke-width: 0.8"/>
      </defs>
      <g>
       <use xlink:href="#m61ee175c7a" x="75.43412" y="305.260125" style="stroke: #000000; stroke-width: 0.8"/>
      </g>
     </g>
     <g id="text_1">
      <!-- 0 -->
      <g transform="translate(70.93412 324.553562)scale(0.18 -0.18)">
       <defs>
        <path id="STIXGeneral-Regular-30" d="M 3046 2112 
Q 3046 1683 2963 1302 
Q 2880 922 2717 602 
Q 2554 282 2266 96 
Q 1978 -90 1600 -90 
Q 1210 -90 915 108 
Q 621 307 461 640 
Q 301 973 227 1350 
Q 154 1728 154 2150 
Q 154 2746 301 3222 
Q 448 3699 790 4012 
Q 1133 4326 1626 4326 
Q 2253 4326 2649 3712 
Q 3046 3098 3046 2112 
z
M 2432 2080 
Q 2432 3091 2217 3625 
Q 2003 4160 1587 4160 
Q 1190 4160 979 3622 
Q 768 3085 768 2106 
Q 768 1120 979 598 
Q 1190 77 1600 77 
Q 2003 77 2217 598 
Q 2432 1120 2432 2080 
z
" transform="scale(0.015625)"/>
       </defs>
       <use xlink:href="#STIXGeneral-Regular-30"/>
      </g>
     </g>
    </g>
    <g id="xtick_2">
     <g id="line2d_3">
      <path d="M 162.189116 305.260125 
L 162.189116 28.060125 
" clip-path="url(#p38ad1cc9e1)" style="fill: none; stroke: #b0b0b0; stroke-width: 0.8; stroke-linecap: square"/>
     </g>
     <g id="line2d_4">
      <g>
       <use xlink:href="#m61ee175c7a" x="162.189116" y="305.260125" style="stroke: #000000; stroke-width: 0.8"/>
      </g>
     </g>
     <g id="text_2">
      <!-- 1 -->
      <g transform="translate(157.689116 324.553562)scale(0.18 -0.18)">
       <defs>
        <path id="STIXGeneral-Regular-31" d="M 2522 0 
L 755 0 
L 755 96 
Q 1107 115 1235 227 
Q 1363 339 1363 608 
L 1363 3482 
Q 1363 3795 1171 3795 
Q 1082 3795 883 3718 
L 710 3654 
L 710 3744 
L 1856 4326 
L 1914 4307 
L 1914 486 
Q 1914 275 2042 185 
Q 2170 96 2522 96 
L 2522 0 
z
" transform="scale(0.015625)"/>
       </defs>
       <use xlink:href="#STIXGeneral-Regular-31"/>
      </g>
     </g>
    </g>
    <g id="xtick_3">
     <g id="line2d_5">
      <path d="M 248.944112 305.260125 
L 248.944112 28.060125 
" clip-path="url(#p38ad1cc9e1)" style="fill: none; stroke: #b0b0b0; stroke-width: 0.8; stroke-linecap: square"/>
     </g>
     <g id="line2d_6">
      <g>
       <use xlink:href="#m61ee175c7a" x="248.944112" y="305.260125" style="stroke: #000000; stroke-width: 0.8"/>
      </g>
     </g>
     <g id="text_3">
      <!-- 2 -->
      <g transform="translate(244.444112 324.553562)scale(0.18 -0.18)">
       <defs>
        <path id="STIXGeneral-Regular-32" d="M 3034 877 
L 2688 0 
L 186 0 
L 186 77 
L 1325 1286 
Q 1773 1754 1965 2144 
Q 2157 2534 2157 2950 
Q 2157 3379 1920 3616 
Q 1683 3853 1267 3853 
Q 922 3853 720 3673 
Q 518 3494 326 3021 
L 192 3053 
Q 301 3648 630 3987 
Q 960 4326 1523 4326 
Q 2054 4326 2380 4006 
Q 2707 3686 2707 3200 
Q 2707 2477 1888 1613 
L 832 486 
L 2330 486 
Q 2541 486 2665 569 
Q 2790 653 2944 915 
L 3034 877 
z
" transform="scale(0.015625)"/>
       </defs>
       <use xlink:href="#STIXGeneral-Regular-32"/>
      </g>
     </g>
    </g>
    <g id="xtick_4">
     <g id="line2d_7">
      <path d="M 335.699108 305.260125 
L 335.699108 28.060125 
" clip-path="url(#p38ad1cc9e1)" style="fill: none; stroke: #b0b0b0; stroke-width: 0.8; stroke-linecap: square"/>
     </g>
     <g id="line2d_8">
      <g>
       <use xlink:href="#m61ee175c7a" x="335.699108" y="305.260125" style="stroke: #000000; stroke-width: 0.8"/>
      </g>
     </g>
     <g id="text_4">
      <!-- 3 -->
      <g transform="translate(331.199108 324.553562)scale(0.18 -0.18)">
       <defs>
        <path id="STIXGeneral-Regular-33" d="M 390 3264 
L 288 3290 
Q 435 3770 748 4048 
Q 1062 4326 1542 4326 
Q 1990 4326 2265 4083 
Q 2541 3840 2541 3450 
Q 2541 2925 1946 2566 
Q 2298 2413 2477 2227 
Q 2758 1914 2758 1402 
Q 2758 890 2464 506 
Q 2246 211 1840 60 
Q 1434 -90 979 -90 
Q 262 -90 262 275 
Q 262 378 339 442 
Q 416 506 525 506 
Q 685 506 915 339 
Q 1197 141 1466 141 
Q 1818 141 2058 425 
Q 2298 710 2298 1120 
Q 2298 1856 1632 2048 
Q 1434 2112 979 2112 
L 979 2202 
Q 1338 2323 1517 2432 
Q 2035 2726 2035 3290 
Q 2035 3610 1852 3776 
Q 1670 3942 1344 3942 
Q 768 3942 390 3264 
z
" transform="scale(0.015625)"/>
       </defs>
       <use xlink:href="#STIXGeneral-Regular-33"/>
      </g>
     </g>
    </g>
    <g id="xtick_5">
     <g id="line2d_9">
      <path d="M 422.454104 305.260125 
L 422.454104 28.060125 
" clip-path="url(#p38ad1cc9e1)" style="fill: none; stroke: #b0b0b0; stroke-width: 0.8; stroke-linecap: square"/>
     </g>
     <g id="line2d_10">
      <g>
       <use xlink:href="#m61ee175c7a" x="422.454104" y="305.260125" style="stroke: #000000; stroke-width: 0.8"/>
      </g>
     </g>
     <g id="text_5">
      <!-- 4 -->
      <g transform="translate(417.954104 324.553562)scale(0.18 -0.18)">
       <defs>
        <path id="STIXGeneral-Regular-34" d="M 3027 1069 
L 2368 1069 
L 2368 0 
L 1869 0 
L 1869 1069 
L 77 1069 
L 77 1478 
L 2086 4326 
L 2368 4326 
L 2368 1478 
L 3027 1478 
L 3027 1069 
z
M 1869 1478 
L 1869 3674 
L 333 1478 
L 1869 1478 
z
" transform="scale(0.015625)"/>
       </defs>
       <use xlink:href="#STIXGeneral-Regular-34"/>
      </g>
     </g>
    </g>
    <g id="text_6">
     <!-- Training Environment Steps -->
     <g transform="translate(178.104688 344.753562)scale(0.18 -0.18)">
      <defs>
       <path id="STIXGeneral-Regular-54" d="M 3795 3149 
L 3642 3149 
Q 3539 3674 3353 3821 
Q 3168 3968 2656 3968 
L 2278 3968 
L 2278 710 
Q 2278 346 2387 243 
Q 2496 141 2893 122 
L 2893 0 
L 1024 0 
L 1024 122 
Q 1427 147 1526 256 
Q 1626 365 1626 787 
L 1626 3968 
L 1242 3968 
Q 723 3968 540 3817 
Q 358 3667 262 3149 
L 109 3149 
L 154 4237 
L 3750 4237 
L 3795 3149 
z
" transform="scale(0.015625)"/>
       <path id="STIXGeneral-Regular-72" d="M 1024 2931 
L 1024 2342 
Q 1267 2688 1430 2816 
Q 1594 2944 1792 2944 
Q 1958 2944 2051 2854 
Q 2144 2765 2144 2605 
Q 2144 2470 2077 2393 
Q 2010 2317 1894 2317 
Q 1773 2317 1638 2445 
Q 1536 2541 1472 2541 
Q 1338 2541 1181 2355 
Q 1024 2170 1024 2016 
L 1024 576 
Q 1024 301 1133 205 
Q 1242 109 1568 96 
L 1568 0 
L 32 0 
L 32 96 
Q 339 154 412 224 
Q 486 294 486 538 
L 486 2138 
Q 486 2349 438 2435 
Q 390 2522 269 2522 
Q 166 2522 45 2496 
L 45 2598 
Q 448 2726 992 2944 
L 1024 2931 
z
" transform="scale(0.015625)"/>
       <path id="STIXGeneral-Regular-61" d="M 2829 422 
L 2829 243 
Q 2586 -64 2253 -64 
Q 1888 -64 1843 403 
L 1837 403 
Q 1427 -64 909 -64 
Q 608 -64 422 112 
Q 237 288 237 602 
Q 237 1050 685 1350 
Q 992 1555 1837 1869 
L 1837 2214 
Q 1837 2502 1699 2646 
Q 1562 2790 1338 2790 
Q 1146 2790 1018 2697 
Q 890 2605 890 2477 
Q 890 2419 909 2348 
Q 928 2278 928 2208 
Q 928 2112 841 2029 
Q 755 1946 634 1946 
Q 525 1946 441 2029 
Q 358 2112 358 2240 
Q 358 2547 685 2752 
Q 986 2944 1421 2944 
Q 1939 2944 2176 2656 
Q 2291 2522 2323 2384 
Q 2355 2246 2355 1946 
L 2355 723 
Q 2355 301 2554 301 
Q 2682 301 2829 422 
z
M 1837 813 
L 1837 1715 
Q 1248 1510 1018 1293 
Q 800 1094 800 800 
Q 800 557 921 432 
Q 1043 307 1242 307 
Q 1453 307 1613 410 
Q 1747 506 1792 589 
Q 1837 672 1837 813 
z
" transform="scale(0.015625)"/>
       <path id="STIXGeneral-Regular-69" d="M 1152 4045 
Q 1152 3904 1056 3811 
Q 960 3718 819 3718 
Q 685 3718 592 3811 
Q 499 3904 499 4045 
Q 499 4179 595 4275 
Q 691 4371 826 4371 
Q 966 4371 1059 4275 
Q 1152 4179 1152 4045 
z
M 1619 0 
L 102 0 
L 102 96 
Q 435 115 521 211 
Q 608 307 608 666 
L 608 2118 
Q 608 2342 563 2432 
Q 518 2522 397 2522 
Q 243 2522 128 2490 
L 128 2592 
L 1120 2944 
L 1146 2918 
L 1146 672 
Q 1146 314 1226 218 
Q 1306 122 1619 96 
L 1619 0 
z
" transform="scale(0.015625)"/>
       <path id="STIXGeneral-Regular-6e" d="M 3104 0 
L 1773 0 
L 1779 96 
Q 2016 115 2096 233 
Q 2176 352 2176 672 
L 2176 1946 
Q 2176 2592 1709 2592 
Q 1549 2592 1408 2515 
Q 1267 2438 1050 2227 
L 1050 461 
Q 1050 269 1136 192 
Q 1222 115 1466 96 
L 1466 0 
L 115 0 
L 115 96 
Q 358 115 435 214 
Q 512 314 512 602 
L 512 2157 
Q 512 2394 467 2483 
Q 422 2573 288 2573 
Q 160 2573 102 2547 
L 102 2656 
Q 550 2784 979 2944 
L 1030 2925 
L 1030 2426 
L 1037 2426 
Q 1491 2944 1958 2944 
Q 2323 2944 2518 2688 
Q 2714 2432 2714 1958 
L 2714 544 
Q 2714 288 2790 205 
Q 2867 122 3104 96 
L 3104 0 
z
" transform="scale(0.015625)"/>
       <path id="STIXGeneral-Regular-67" d="M 3008 2483 
L 2477 2483 
Q 2598 2208 2598 1946 
Q 2598 1453 2265 1203 
Q 1933 954 1600 954 
Q 1530 954 1357 973 
L 1235 986 
Q 1107 947 979 812 
Q 851 678 851 582 
Q 851 435 1350 410 
L 2176 371 
Q 2528 358 2739 172 
Q 2950 -13 2950 -314 
Q 2950 -685 2566 -986 
Q 2035 -1395 1286 -1395 
Q 826 -1395 502 -1212 
Q 179 -1030 179 -774 
Q 179 -595 320 -419 
Q 461 -243 806 6 
Q 602 102 534 172 
Q 467 243 467 346 
Q 467 531 762 787 
Q 909 915 1037 1043 
Q 717 1203 579 1401 
Q 442 1600 442 1901 
Q 442 2336 752 2640 
Q 1062 2944 1510 2944 
Q 1766 2944 2022 2848 
L 2163 2797 
Q 2349 2733 2515 2733 
L 3008 2733 
L 3008 2483 
z
M 973 2163 
L 973 2144 
Q 973 1683 1155 1398 
Q 1338 1114 1632 1114 
Q 1850 1114 1978 1270 
Q 2106 1427 2106 1690 
Q 2106 2112 1914 2464 
Q 1754 2765 1446 2765 
Q 1222 2765 1097 2605 
Q 973 2445 973 2163 
z
M 2771 -410 
Q 2771 -230 2595 -163 
Q 2419 -96 1978 -96 
Q 1344 -96 941 -13 
Q 749 -243 688 -348 
Q 627 -454 627 -563 
Q 627 -774 880 -902 
Q 1133 -1030 1555 -1030 
Q 2099 -1030 2435 -860 
Q 2771 -691 2771 -410 
z
" transform="scale(0.015625)"/>
       <path id="STIXGeneral-Regular-20" transform="scale(0.015625)"/>
       <path id="STIXGeneral-Regular-45" d="M 3821 1082 
L 3526 0 
L 77 0 
L 77 122 
Q 442 147 538 252 
Q 634 358 634 730 
L 634 3520 
Q 634 3878 534 3987 
Q 435 4096 77 4115 
L 77 4237 
L 3469 4237 
L 3494 3322 
L 3334 3322 
Q 3264 3750 3085 3872 
Q 2906 3994 2349 3994 
L 1510 3994 
Q 1370 3994 1328 3952 
Q 1286 3910 1286 3763 
L 1286 2355 
L 2253 2355 
Q 2656 2355 2787 2470 
Q 2918 2586 2976 2970 
L 3123 2970 
L 3123 1472 
L 2976 1472 
Q 2918 1875 2790 1984 
Q 2662 2093 2253 2093 
L 1286 2093 
L 1286 538 
Q 1286 346 1420 291 
Q 1555 237 1933 237 
L 2163 237 
Q 2848 237 3136 403 
Q 3424 570 3642 1082 
L 3821 1082 
z
" transform="scale(0.015625)"/>
       <path id="STIXGeneral-Regular-76" d="M 3053 2880 
L 3053 2784 
Q 2906 2771 2835 2688 
Q 2765 2605 2637 2285 
L 1818 230 
Q 1690 -90 1638 -90 
Q 1587 -90 1523 77 
Q 1510 96 1497 141 
Q 1485 186 1472 211 
L 704 2048 
Q 499 2534 403 2652 
Q 307 2771 122 2784 
L 122 2880 
L 1376 2880 
L 1376 2784 
Q 1210 2771 1146 2732 
Q 1082 2694 1082 2611 
Q 1082 2509 1139 2368 
L 1792 730 
L 2426 2387 
Q 2464 2483 2464 2579 
Q 2464 2758 2163 2784 
L 2163 2880 
L 3053 2880 
z
" transform="scale(0.015625)"/>
       <path id="STIXGeneral-Regular-6f" d="M 3008 1478 
Q 3008 806 2608 371 
Q 2208 -64 1568 -64 
Q 979 -64 582 368 
Q 186 800 186 1459 
Q 186 2125 582 2534 
Q 979 2944 1626 2944 
Q 2221 2944 2614 2537 
Q 3008 2131 3008 1478 
z
M 2432 1306 
Q 2432 2035 2112 2445 
Q 1856 2765 1504 2765 
Q 1171 2765 966 2493 
Q 762 2221 762 1747 
Q 762 928 1101 435 
Q 1318 115 1677 115 
Q 2029 115 2230 432 
Q 2432 749 2432 1306 
z
" transform="scale(0.015625)"/>
       <path id="STIXGeneral-Regular-6d" d="M 4960 0 
L 3565 0 
L 3565 96 
Q 3834 122 3907 208 
Q 3981 294 3981 576 
L 3981 1894 
Q 3981 2278 3869 2444 
Q 3757 2611 3488 2611 
Q 3264 2611 3107 2521 
Q 2950 2432 2803 2221 
L 2803 608 
Q 2803 301 2896 201 
Q 2989 102 3264 96 
L 3264 0 
L 1830 0 
L 1830 96 
Q 2112 115 2189 188 
Q 2266 262 2266 550 
L 2266 1901 
Q 2266 2611 1850 2611 
Q 1670 2611 1468 2531 
Q 1267 2451 1171 2336 
Q 1088 2240 1088 2227 
L 1088 448 
Q 1088 243 1177 176 
Q 1267 109 1523 96 
L 1523 0 
L 102 0 
L 102 96 
Q 371 102 460 195 
Q 550 288 550 563 
L 550 2150 
Q 550 2387 499 2480 
Q 448 2573 326 2573 
Q 230 2573 122 2547 
L 122 2656 
Q 557 2778 1011 2944 
L 1062 2925 
L 1062 2451 
L 1075 2451 
Q 1363 2752 1584 2848 
Q 1805 2944 2054 2944 
Q 2560 2944 2733 2406 
Q 3232 2944 3776 2944 
Q 4518 2944 4518 1792 
L 4518 493 
Q 4518 282 4582 202 
Q 4646 122 4794 109 
L 4960 96 
L 4960 0 
z
" transform="scale(0.015625)"/>
       <path id="STIXGeneral-Regular-65" d="M 2611 1050 
L 2714 1005 
Q 2330 -64 1376 -64 
Q 813 -64 486 329 
Q 160 723 160 1389 
Q 160 2074 525 2509 
Q 890 2944 1485 2944 
Q 2061 2944 2374 2502 
Q 2560 2246 2592 1773 
L 621 1773 
Q 646 1370 700 1158 
Q 755 947 915 730 
Q 1184 378 1626 378 
Q 1939 378 2153 531 
Q 2368 685 2611 1050 
z
M 634 1978 
L 1939 1978 
Q 1882 2381 1750 2547 
Q 1619 2714 1312 2714 
Q 1043 2714 864 2525 
Q 685 2336 634 1978 
z
" transform="scale(0.015625)"/>
       <path id="STIXGeneral-Regular-74" d="M 1702 493 
L 1786 422 
Q 1478 -64 1011 -64 
Q 448 -64 448 749 
L 448 2675 
L 109 2675 
Q 83 2694 83 2720 
Q 83 2771 192 2842 
Q 435 2982 813 3526 
Q 826 3546 874 3606 
Q 922 3667 941 3706 
Q 986 3706 986 3622 
L 986 2880 
L 1632 2880 
L 1632 2675 
L 986 2675 
L 986 845 
Q 986 538 1062 403 
Q 1139 269 1318 269 
Q 1510 269 1702 493 
z
" transform="scale(0.015625)"/>
       <path id="STIXGeneral-Regular-53" d="M 3002 2963 
L 2842 2963 
Q 2733 3360 2579 3565 
Q 2189 4064 1651 4064 
Q 1357 4064 1181 3894 
Q 1005 3725 1005 3456 
Q 1005 3328 1069 3206 
Q 1133 3085 1206 2998 
Q 1280 2912 1465 2784 
Q 1651 2656 1766 2589 
Q 1882 2522 2150 2362 
Q 2669 2061 2905 1763 
Q 3142 1466 3142 1107 
Q 3142 576 2771 243 
Q 2400 -90 1837 -90 
Q 1421 -90 1082 58 
Q 915 128 781 128 
Q 704 128 653 70 
Q 602 13 602 -83 
L 461 -83 
L 275 1274 
L 416 1274 
Q 845 141 1734 141 
Q 2074 141 2285 342 
Q 2496 544 2496 858 
Q 2496 1158 2310 1363 
Q 2003 1696 1235 2106 
Q 454 2522 454 3206 
Q 454 3718 768 4022 
Q 1082 4326 1568 4326 
Q 1907 4326 2240 4186 
Q 2413 4109 2522 4109 
Q 2688 4109 2726 4326 
L 2861 4326 
L 3002 2963 
z
" transform="scale(0.015625)"/>
       <path id="STIXGeneral-Regular-70" d="M 1018 2931 
L 1018 2438 
Q 1421 2944 1939 2944 
Q 2406 2944 2707 2560 
Q 3008 2176 3008 1581 
Q 3008 883 2621 409 
Q 2234 -64 1664 -64 
Q 1466 -64 1328 -6 
Q 1190 51 1018 211 
L 1018 -794 
Q 1018 -1094 1120 -1180 
Q 1222 -1267 1581 -1274 
L 1581 -1389 
L 32 -1389 
L 32 -1280 
Q 314 -1254 397 -1171 
Q 480 -1088 480 -838 
L 480 2157 
Q 480 2381 429 2451 
Q 378 2522 218 2522 
Q 115 2522 58 2515 
L 58 2618 
Q 506 2752 979 2944 
L 1018 2931 
z
M 1018 2138 
L 1018 563 
Q 1018 422 1238 281 
Q 1459 141 1683 141 
Q 2029 141 2243 467 
Q 2458 794 2458 1325 
Q 2458 1888 2243 2224 
Q 2029 2560 1670 2560 
Q 1446 2560 1232 2419 
Q 1018 2278 1018 2138 
z
" transform="scale(0.015625)"/>
       <path id="STIXGeneral-Regular-73" d="M 998 1926 
L 1664 1523 
Q 1984 1331 2105 1164 
Q 2227 998 2227 736 
Q 2227 416 1961 176 
Q 1696 -64 1331 -64 
Q 1030 -64 864 -6 
Q 691 51 570 51 
Q 461 51 416 -26 
L 333 -26 
L 333 979 
L 435 979 
Q 538 512 730 294 
Q 922 77 1248 77 
Q 1485 77 1632 211 
Q 1779 346 1779 550 
Q 1779 845 1440 1030 
L 1094 1222 
Q 326 1651 326 2150 
Q 326 2522 566 2730 
Q 806 2938 1210 2938 
Q 1491 2938 1638 2867 
Q 1754 2816 1818 2816 
Q 1862 2816 1920 2880 
L 1990 2880 
L 2022 2010 
L 1926 2010 
Q 1818 2445 1654 2621 
Q 1491 2797 1203 2797 
Q 986 2797 854 2688 
Q 723 2579 723 2362 
Q 723 2253 796 2128 
Q 870 2003 998 1926 
z
" transform="scale(0.015625)"/>
      </defs>
      <use xlink:href="#STIXGeneral-Regular-54"/>
      <use xlink:href="#STIXGeneral-Regular-72" x="61.099991"/>
      <use xlink:href="#STIXGeneral-Regular-61" x="94.399979"/>
      <use xlink:href="#STIXGeneral-Regular-69" x="138.799973"/>
      <use xlink:href="#STIXGeneral-Regular-6e" x="166.59996"/>
      <use xlink:href="#STIXGeneral-Regular-69" x="216.599945"/>
      <use xlink:href="#STIXGeneral-Regular-6e" x="244.399933"/>
      <use xlink:href="#STIXGeneral-Regular-67" x="294.399918"/>
      <use xlink:href="#STIXGeneral-Regular-20" x="344.399902"/>
      <use xlink:href="#STIXGeneral-Regular-45" x="369.399887"/>
      <use xlink:href="#STIXGeneral-Regular-6e" x="430.499878"/>
      <use xlink:href="#STIXGeneral-Regular-76" x="480.499863"/>
      <use xlink:href="#STIXGeneral-Regular-69" x="530.499847"/>
      <use xlink:href="#STIXGeneral-Regular-72" x="558.299835"/>
      <use xlink:href="#STIXGeneral-Regular-6f" x="591.599823"/>
      <use xlink:href="#STIXGeneral-Regular-6e" x="641.599808"/>
      <use xlink:href="#STIXGeneral-Regular-6d" x="691.599792"/>
      <use xlink:href="#STIXGeneral-Regular-65" x="769.39978"/>
      <use xlink:href="#STIXGeneral-Regular-6e" x="813.799774"/>
      <use xlink:href="#STIXGeneral-Regular-74" x="863.799759"/>
      <use xlink:href="#STIXGeneral-Regular-20" x="891.599747"/>
      <use xlink:href="#STIXGeneral-Regular-53" x="916.599731"/>
      <use xlink:href="#STIXGeneral-Regular-74" x="972.199722"/>
      <use xlink:href="#STIXGeneral-Regular-65" x="999.99971"/>
      <use xlink:href="#STIXGeneral-Regular-70" x="1044.399704"/>
      <use xlink:href="#STIXGeneral-Regular-73" x="1094.399689"/>
     </g>
    </g>
    <g id="text_7">
     <!-- 1e8 -->
     <g transform="translate(477.306875 343.753562)scale(0.18 -0.18)">
      <defs>
       <path id="STIXGeneral-Regular-38" d="M 2848 992 
Q 2848 499 2505 204 
Q 2163 -90 1587 -90 
Q 1050 -90 704 204 
Q 358 499 358 954 
Q 358 1293 524 1533 
Q 691 1773 1190 2125 
Q 710 2522 553 2765 
Q 397 3008 397 3328 
Q 397 3782 745 4054 
Q 1094 4326 1638 4326 
Q 2106 4326 2410 4060 
Q 2714 3795 2714 3411 
Q 2714 3059 2531 2848 
Q 2349 2637 1856 2374 
Q 2432 1990 2640 1689 
Q 2848 1389 2848 992 
z
M 2272 3411 
Q 2272 3744 2086 3945 
Q 1901 4147 1574 4147 
Q 1248 4147 1059 3977 
Q 870 3808 870 3513 
Q 870 3219 1059 2979 
Q 1248 2739 1670 2490 
Q 1997 2682 2134 2896 
Q 2272 3110 2272 3411 
z
M 1734 1741 
L 1357 1997 
Q 1075 1766 960 1545 
Q 845 1325 845 1011 
Q 845 576 1065 333 
Q 1286 90 1658 90 
Q 1971 90 2166 285 
Q 2362 480 2362 794 
Q 2362 1082 2214 1299 
Q 2067 1517 1734 1741 
z
" transform="scale(0.015625)"/>
      </defs>
      <use xlink:href="#STIXGeneral-Regular-31"/>
      <use xlink:href="#STIXGeneral-Regular-65" x="49.999985"/>
      <use xlink:href="#STIXGeneral-Regular-38" x="94.399979"/>
     </g>
    </g>
   </g>
   <g id="matplotlib.axis_2">
    <g id="ytick_1">
     <g id="line2d_11">
      <path d="M 56.9 292.660125 
L 503.3 292.660125 
" clip-path="url(#p38ad1cc9e1)" style="fill: none; stroke: #b0b0b0; stroke-width: 0.8; stroke-linecap: square"/>
     </g>
     <g id="line2d_12">
      <defs>
       <path id="me29d2c98a1" d="M 0 0 
L -3.5 0 
" style="stroke: #000000; stroke-width: 0.8"/>
      </defs>
      <g>
       <use xlink:href="#me29d2c98a1" x="56.9" y="292.660125" style="stroke: #000000; stroke-width: 0.8"/>
      </g>
     </g>
     <g id="text_8">
      <!-- 0.0 -->
      <g transform="translate(27.4 298.806844)scale(0.18 -0.18)">
       <defs>
        <path id="STIXGeneral-Regular-2e" d="M 1158 275 
Q 1158 134 1052 32 
Q 947 -70 800 -70 
Q 653 -70 550 32 
Q 448 134 448 281 
Q 448 429 553 534 
Q 659 640 806 640 
Q 947 640 1052 531 
Q 1158 422 1158 275 
z
" transform="scale(0.015625)"/>
       </defs>
       <use xlink:href="#STIXGeneral-Regular-30"/>
       <use xlink:href="#STIXGeneral-Regular-2e" x="49.999985"/>
       <use xlink:href="#STIXGeneral-Regular-30" x="74.999969"/>
      </g>
     </g>
    </g>
    <g id="ytick_2">
     <g id="line2d_13">
      <path d="M 56.9 225.409944 
L 503.3 225.409944 
" clip-path="url(#p38ad1cc9e1)" style="fill: none; stroke: #b0b0b0; stroke-width: 0.8; stroke-linecap: square"/>
     </g>
     <g id="line2d_14">
      <g>
       <use xlink:href="#me29d2c98a1" x="56.9" y="225.409944" style="stroke: #000000; stroke-width: 0.8"/>
      </g>
     </g>
     <g id="text_9">
      <!-- 0.1 -->
      <g transform="translate(27.4 231.556663)scale(0.18 -0.18)">
       <use xlink:href="#STIXGeneral-Regular-30"/>
       <use xlink:href="#STIXGeneral-Regular-2e" x="49.999985"/>
       <use xlink:href="#STIXGeneral-Regular-31" x="74.999969"/>
      </g>
     </g>
    </g>
    <g id="ytick_3">
     <g id="line2d_15">
      <path d="M 56.9 158.159763 
L 503.3 158.159763 
" clip-path="url(#p38ad1cc9e1)" style="fill: none; stroke: #b0b0b0; stroke-width: 0.8; stroke-linecap: square"/>
     </g>
     <g id="line2d_16">
      <g>
       <use xlink:href="#me29d2c98a1" x="56.9" y="158.159763" style="stroke: #000000; stroke-width: 0.8"/>
      </g>
     </g>
     <g id="text_10">
      <!-- 0.2 -->
      <g transform="translate(27.4 164.306482)scale(0.18 -0.18)">
       <use xlink:href="#STIXGeneral-Regular-30"/>
       <use xlink:href="#STIXGeneral-Regular-2e" x="49.999985"/>
       <use xlink:href="#STIXGeneral-Regular-32" x="74.999969"/>
      </g>
     </g>
    </g>
    <g id="ytick_4">
     <g id="line2d_17">
      <path d="M 56.9 90.909583 
L 503.3 90.909583 
" clip-path="url(#p38ad1cc9e1)" style="fill: none; stroke: #b0b0b0; stroke-width: 0.8; stroke-linecap: square"/>
     </g>
     <g id="line2d_18">
      <g>
       <use xlink:href="#me29d2c98a1" x="56.9" y="90.909583" style="stroke: #000000; stroke-width: 0.8"/>
      </g>
     </g>
     <g id="text_11">
      <!-- 0.3 -->
      <g transform="translate(27.4 97.056301)scale(0.18 -0.18)">
       <use xlink:href="#STIXGeneral-Regular-30"/>
       <use xlink:href="#STIXGeneral-Regular-2e" x="49.999985"/>
       <use xlink:href="#STIXGeneral-Regular-33" x="74.999969"/>
      </g>
     </g>
    </g>
    <g id="text_12">
     <!-- Success Rate -->
     <g transform="translate(19.493438 213.9045)rotate(-90)scale(0.18 -0.18)">
      <defs>
       <path id="STIXGeneral-Regular-75" d="M 3072 320 
L 3072 230 
Q 2573 96 2195 -58 
L 2163 -38 
L 2163 486 
L 2150 486 
Q 1747 -64 1235 -64 
Q 870 -64 662 160 
Q 454 384 454 755 
L 454 2362 
Q 454 2598 371 2688 
Q 288 2778 58 2790 
L 58 2880 
L 992 2880 
L 992 813 
Q 992 595 1123 451 
Q 1254 307 1446 307 
Q 1760 307 1984 506 
Q 2067 582 2099 649 
Q 2131 717 2131 877 
L 2131 2355 
Q 2131 2605 2041 2678 
Q 1952 2752 1658 2771 
L 1658 2880 
L 2669 2880 
L 2669 685 
Q 2669 461 2742 390 
Q 2816 320 3034 320 
L 3072 320 
z
" transform="scale(0.015625)"/>
       <path id="STIXGeneral-Regular-63" d="M 2547 998 
L 2637 941 
Q 2362 403 2112 205 
Q 1786 -64 1376 -64 
Q 845 -64 502 336 
Q 160 736 160 1357 
Q 160 2170 698 2618 
Q 1094 2944 1562 2944 
Q 1965 2944 2256 2749 
Q 2547 2554 2547 2285 
Q 2547 2176 2457 2096 
Q 2368 2016 2246 2016 
Q 2022 2016 1939 2310 
L 1901 2451 
Q 1850 2630 1773 2694 
Q 1696 2758 1523 2758 
Q 1133 2758 893 2451 
Q 653 2144 653 1645 
Q 653 1094 928 745 
Q 1203 397 1645 397 
Q 1920 397 2118 528 
Q 2317 659 2547 998 
z
" transform="scale(0.015625)"/>
       <path id="STIXGeneral-Regular-52" d="M 4224 0 
L 3187 0 
L 1664 1971 
L 1306 1958 
L 1306 717 
Q 1306 352 1405 249 
Q 1504 147 1875 122 
L 1875 0 
L 109 0 
L 109 122 
Q 474 154 563 262 
Q 653 371 653 794 
L 653 3526 
Q 653 3885 563 3987 
Q 474 4090 109 4115 
L 109 4237 
L 1850 4237 
Q 2726 4237 3187 3859 
Q 3501 3603 3501 3091 
Q 3501 2221 2342 2042 
L 3622 422 
Q 3757 256 3878 198 
Q 4000 141 4224 122 
L 4224 0 
z
M 1306 3731 
L 1306 2195 
Q 1766 2202 1990 2246 
Q 2214 2291 2438 2413 
Q 2803 2618 2803 3142 
Q 2803 4000 1632 4000 
Q 1459 4000 1382 3945 
Q 1306 3891 1306 3731 
z
" transform="scale(0.015625)"/>
      </defs>
      <use xlink:href="#STIXGeneral-Regular-53"/>
      <use xlink:href="#STIXGeneral-Regular-75" x="55.599991"/>
      <use xlink:href="#STIXGeneral-Regular-63" x="105.599976"/>
      <use xlink:href="#STIXGeneral-Regular-63" x="149.999969"/>
      <use xlink:href="#STIXGeneral-Regular-65" x="194.399963"/>
      <use xlink:href="#STIXGeneral-Regular-73" x="238.799957"/>
      <use xlink:href="#STIXGeneral-Regular-73" x="277.699951"/>
      <use xlink:href="#STIXGeneral-Regular-20" x="316.599945"/>
      <use xlink:href="#STIXGeneral-Regular-52" x="341.59993"/>
      <use xlink:href="#STIXGeneral-Regular-61" x="408.299927"/>
      <use xlink:href="#STIXGeneral-Regular-74" x="452.699921"/>
      <use xlink:href="#STIXGeneral-Regular-65" x="480.499908"/>
     </g>
    </g>
   </g>
   <g id="line2d_19">
    <path d="M 77.190909 292.660125 
L 483.009091 292.660125 
L 483.009091 292.660125 
" clip-path="url(#p38ad1cc9e1)" style="fill: none; stroke: #1f77b4; stroke-width: 1.5; stroke-linecap: square"/>
   </g>
   <g id="line2d_20">
    <path d="M 77.190909 292.660125 
L 103.542739 292.660125 
L 105.299528 287.280111 
L 107.056316 289.432116 
L 108.813105 290.72332 
L 110.569894 291.498042 
L 112.326682 291.962875 
L 115.84026 292.409115 
L 121.110626 292.605907 
L 133.408146 292.658607 
L 152.732822 292.660119 
L 154.48961 287.280107 
L 156.246399 284.0521 
L 158.003188 282.115296 
L 159.759976 286.333227 
L 161.516765 288.863986 
L 163.273554 290.382442 
L 165.030342 291.293515 
L 166.787131 291.840159 
L 168.54392 292.168145 
L 172.057497 292.483012 
L 177.327863 292.621869 
L 186.111806 292.65715 
L 187.868595 287.278326 
L 189.625384 289.431045 
L 191.382172 290.722677 
L 193.138961 291.497656 
L 194.89575 291.962644 
L 198.409327 292.409032 
L 203.679693 292.605889 
L 215.977214 292.658607 
L 224.761157 292.660007 
L 226.517946 287.28004 
L 228.274734 289.432074 
L 230.031523 285.34328 
L 231.788312 288.270018 
L 233.5451 290.026061 
L 235.301889 291.079686 
L 237.058678 286.331848 
L 238.815466 288.863159 
L 240.572255 290.381945 
L 242.329044 291.293217 
L 244.085832 291.83998 
L 245.842621 286.788024 
L 247.59941 289.136864 
L 249.356198 290.546169 
L 251.112987 291.391751 
L 252.869776 291.899101 
L 254.626564 292.20351 
L 258.140142 292.495744 
L 263.410508 292.624619 
L 280.978394 292.65991 
L 286.24876 292.660079 
L 288.005549 287.280083 
L 289.762338 284.052085 
L 291.519126 287.495301 
L 293.275915 289.561231 
L 295.032704 290.800788 
L 296.789492 291.544523 
L 298.546281 291.990764 
L 302.059858 292.419155 
L 307.330224 292.608075 
L 319.627745 292.658668 
L 447.873318 292.660125 
L 449.630106 287.280111 
L 451.386895 289.432116 
L 453.143684 290.72332 
L 454.900472 291.498042 
L 456.657261 291.962875 
L 460.170838 292.409115 
L 465.441204 292.605907 
L 477.738725 292.658607 
L 483.009091 292.659797 
L 483.009091 292.659797 
" clip-path="url(#p38ad1cc9e1)" style="fill: none; stroke: #ff7f0e; stroke-width: 1.5; stroke-linecap: square"/>
   </g>
   <g id="line2d_21">
    <path d="M 77.190909 292.660125 
L 78.947698 287.280111 
L 80.704486 284.052102 
L 82.461275 282.115297 
L 84.218064 286.333228 
L 85.974852 283.483973 
L 87.731641 287.154434 
L 89.48843 283.976696 
L 91.245218 287.450067 
L 93.002007 289.53409 
L 94.758796 290.784504 
L 96.515584 291.534753 
L 98.272373 286.604887 
L 100.029162 289.026982 
L 101.78595 285.100225 
L 103.542739 288.124185 
L 105.299528 289.938561 
L 107.056316 291.027187 
L 108.813105 291.680362 
L 110.569894 292.072267 
L 112.326682 286.927396 
L 114.083471 289.220488 
L 115.84026 290.596343 
L 117.597048 286.041841 
L 119.353837 288.689155 
L 121.110626 290.277543 
L 122.867414 291.230576 
L 124.624203 291.802395 
L 126.380992 292.145487 
L 129.894569 292.474855 
L 131.651358 287.168949 
L 133.408146 289.365419 
L 135.164935 290.683302 
L 136.921724 291.474031 
L 138.678512 291.948469 
L 140.435301 292.233131 
L 143.948878 292.506407 
L 145.705667 292.567894 
L 147.462456 287.224772 
L 149.219244 289.398913 
L 150.976033 290.703398 
L 152.732822 286.106074 
L 154.48961 288.727695 
L 156.246399 290.300667 
L 158.003188 291.24445 
L 159.759976 291.81072 
L 161.516765 286.770468 
L 163.273554 289.126331 
L 165.030342 290.539848 
L 166.787131 291.387959 
L 168.54392 291.896825 
L 170.300708 292.202145 
L 173.814286 292.495252 
L 175.571074 292.561201 
L 177.327863 287.220756 
L 179.084652 289.396504 
L 180.84144 290.701952 
L 182.598229 291.485221 
L 184.355018 291.955183 
L 186.111806 292.23716 
L 187.868595 292.406346 
L 189.625384 287.127843 
L 191.382172 289.340756 
L 193.138961 290.668504 
L 194.89575 291.465152 
L 196.652538 281.183113 
L 198.409327 285.773918 
L 200.166116 288.528401 
L 201.922904 290.18109 
L 203.679693 285.79269 
L 205.436482 283.15965 
L 207.19327 286.95984 
L 208.950059 283.85994 
L 210.706848 287.380014 
L 212.463636 289.492058 
L 214.220425 290.759285 
L 215.977214 291.519621 
L 217.734002 291.975823 
L 219.490791 292.249544 
L 221.24758 287.033762 
L 223.004368 289.284307 
L 224.761157 290.634634 
L 226.517946 291.444831 
L 228.274734 291.930948 
L 230.031523 292.222619 
L 233.5451 292.502623 
L 238.815466 292.626105 
L 240.572255 292.639713 
L 242.329044 287.267863 
L 244.085832 289.424768 
L 245.842621 285.338896 
L 247.59941 288.267388 
L 249.356198 290.024483 
L 251.112987 291.07874 
L 252.869776 286.331279 
L 254.626564 288.862818 
L 256.383353 290.381741 
L 258.140142 285.91308 
L 259.89693 288.611898 
L 261.653719 290.231189 
L 263.410508 285.822749 
L 265.167296 288.557699 
L 266.924085 290.19867 
L 268.680874 291.183252 
L 270.437662 291.774001 
L 272.194451 292.128451 
L 275.708028 292.468722 
L 280.978394 292.618782 
L 282.735183 292.635319 
L 284.491972 287.265227 
L 286.24876 289.423186 
L 288.005549 290.717962 
L 289.762338 291.494827 
L 291.519126 291.960946 
L 295.032704 292.408421 
L 300.30307 292.605757 
L 312.60059 292.658603 
L 389.899292 292.660125 
L 391.65608 287.280111 
L 393.412869 289.432116 
L 395.169658 290.72332 
L 396.926446 291.498042 
L 398.683235 291.962875 
L 402.196812 292.409115 
L 407.467178 292.605907 
L 419.764699 292.658607 
L 483.009091 292.660125 
L 483.009091 292.660125 
" clip-path="url(#p38ad1cc9e1)" style="fill: none; stroke: #2ca02c; stroke-width: 1.5; stroke-linecap: square"/>
   </g>
   <g id="line2d_22">
    <path d="M 77.190909 252.310017 
L 87.731641 252.310017 
L 89.48843 246.930003 
L 91.245218 243.701995 
L 93.002007 236.385174 
L 94.758796 248.135126 
L 96.515584 249.805082 
L 98.272373 240.047027 
L 100.029162 239.572209 
L 101.78595 239.287318 
L 103.542739 233.736368 
L 105.299528 230.405798 
L 107.056316 239.167486 
L 108.813105 244.424498 
L 110.569894 236.818676 
L 112.326682 226.87517 
L 114.083471 226.289079 
L 115.84026 220.557411 
L 117.597048 206.358382 
L 119.353837 203.218978 
L 121.110626 195.955322 
L 122.867414 191.597128 
L 124.624203 205.122254 
L 126.380992 191.717271 
L 128.13778 205.19434 
L 129.894569 191.760522 
L 131.651358 205.22029 
L 133.408146 197.156109 
L 135.164935 176.177557 
L 136.921724 179.730469 
L 138.678512 160.34216 
L 140.435301 143.32916 
L 142.19209 133.121361 
L 143.948878 143.136721 
L 145.705667 133.005897 
L 147.462456 121.547386 
L 149.219244 120.052296 
L 150.976033 135.295282 
L 152.732822 144.441074 
L 154.48961 144.548536 
L 156.246399 166.13307 
L 158.003188 168.32376 
L 161.516765 139.222745 
L 163.273554 152.177565 
L 165.030342 116.910342 
L 166.787131 122.650083 
L 168.54392 120.713914 
L 170.300708 135.692253 
L 172.057497 139.299243 
L 173.814286 136.083424 
L 175.571074 134.153932 
L 177.327863 143.756264 
L 179.084652 117.237579 
L 180.84144 122.846425 
L 182.598229 115.451702 
L 184.355018 111.014869 
L 186.111806 119.112799 
L 187.868595 123.971557 
L 189.625384 137.646839 
L 191.382172 113.571924 
L 193.138961 115.267019 
L 194.89575 100.144032 
L 196.652538 96.450249 
L 198.409327 83.473953 
L 200.166116 86.448201 
L 201.922904 104.372799 
L 203.679693 93.6075 
L 205.436482 81.768303 
L 207.19327 74.664785 
L 208.950059 86.542718 
L 210.706848 66.769407 
L 212.463636 65.665448 
L 214.220425 65.003072 
L 215.977214 53.84562 
L 217.734002 57.911175 
L 219.490791 49.590482 
L 221.24758 49.978075 
L 223.004368 44.830621 
L 224.761157 52.502176 
L 226.517946 67.865136 
L 228.274734 66.322885 
L 230.031523 65.397534 
L 231.788312 64.842324 
L 233.5451 48.369153 
L 235.301889 43.865269 
L 237.058678 46.542947 
L 238.815466 58.909589 
L 240.572255 55.569539 
L 242.329044 58.945527 
L 244.085832 66.351137 
L 245.842621 65.414485 
L 247.59941 59.472477 
L 249.356198 55.907272 
L 251.112987 53.768149 
L 252.869776 57.864693 
L 254.626564 49.562592 
L 256.383353 49.961341 
L 258.140142 60.960625 
L 259.89693 40.660125 
L 261.653719 49.999878 
L 263.410508 71.743774 
L 265.167296 79.410094 
L 266.924085 78.629877 
L 268.680874 99.681804 
L 270.437662 101.55293 
L 273.95124 125.945273 
L 275.708028 122.691028 
L 277.464817 120.738482 
L 279.221606 103.426909 
L 280.978394 98.419976 
L 282.735183 90.035806 
L 284.491972 95.765331 
L 286.24876 136.863147 
L 288.005549 118.481718 
L 291.519126 149.255679 
L 293.275915 142.057285 
L 295.032704 126.978218 
L 296.789492 150.210866 
L 298.546281 142.630398 
L 300.30307 138.082117 
L 302.059858 140.733161 
L 303.816647 153.083815 
L 305.573436 133.594136 
L 307.330224 148.8004 
L 309.087013 152.544144 
L 310.843802 133.270334 
L 312.60059 121.706048 
L 314.357379 136.287533 
L 316.114168 112.75634 
L 317.870956 141.67774 
L 319.627745 153.650562 
L 321.384534 160.834255 
L 323.141322 143.624418 
L 324.898111 133.298515 
L 326.6549 143.243014 
L 328.411688 159.969743 
L 330.168477 175.385795 
L 331.925266 184.635425 
L 333.682054 168.665147 
L 335.438843 169.843006 
L 337.195632 175.929739 
L 338.95242 195.721821 
L 342.465998 220.102234 
L 344.222786 227.605333 
L 345.979575 242.867221 
L 347.736364 225.124281 
L 349.493152 241.37859 
L 351.249941 245.751161 
L 353.00673 248.374704 
L 354.763518 249.948829 
L 356.520307 250.893304 
L 358.277096 256.840004 
L 360.033884 265.788038 
L 361.790673 276.536873 
L 363.547462 266.846131 
L 365.30425 277.171728 
L 367.061039 272.607058 
L 368.817828 248.348199 
L 370.574616 244.552912 
L 372.331405 236.895725 
L 374.088194 243.061442 
L 375.844982 236.000842 
L 377.601771 237.144498 
L 379.35856 237.830691 
L 381.115348 238.242408 
L 382.872137 249.249466 
L 384.628926 245.093672 
L 386.385714 242.600196 
L 388.142503 241.10411 
L 389.899292 240.206459 
L 391.65608 239.667868 
L 393.412869 239.344713 
L 395.169658 239.150821 
L 396.926446 244.414499 
L 398.683235 252.952721 
L 400.440024 252.69564 
L 402.196812 236.401348 
L 403.953601 253.524844 
L 405.71039 220.758824 
L 407.467178 233.379302 
L 409.223967 240.951588 
L 410.980756 223.974901 
L 412.737544 213.788889 
L 414.494333 207.677282 
L 416.251122 220.150362 
L 418.00791 216.874181 
L 419.764699 204.148444 
L 421.521488 218.033059 
L 423.278276 220.983813 
L 425.035065 217.374252 
L 426.791854 215.208515 
L 428.548642 235.42913 
L 432.06222 260.220935 
L 433.819008 267.816597 
L 435.575797 277.754008 
L 437.332586 278.336441 
L 439.089374 273.305886 
L 440.846163 270.287553 
L 442.602952 273.856567 
L 444.35974 275.997976 
L 446.116529 277.282821 
L 447.873318 283.433743 
L 449.630106 287.124296 
L 451.386895 289.338627 
L 453.143684 285.287212 
L 454.900472 288.236377 
L 456.657261 290.005876 
L 458.41405 291.067576 
L 460.170838 291.704595 
L 461.927627 292.086807 
L 463.684416 286.93612 
L 465.441204 289.225722 
L 467.197993 290.599483 
L 468.954782 291.42374 
L 470.71157 286.53828 
L 472.468359 283.607003 
L 474.225148 287.228252 
L 475.981936 284.020987 
L 477.738725 282.096628 
L 479.495514 280.942012 
L 481.252302 280.249243 
L 483.009091 279.833581 
L 483.009091 279.833581 
" clip-path="url(#p38ad1cc9e1)" style="fill: none; stroke: #d62728; stroke-width: 1.5; stroke-linecap: square"/>
   </g>
   <g id="line2d_23">
    <path d="M 77.190909 292.660125 
L 85.974852 292.660125 
L 87.731641 287.280111 
L 89.48843 284.052102 
L 91.245218 287.495311 
L 93.002007 289.561237 
L 94.758796 290.800792 
L 96.515584 291.544525 
L 98.272373 291.990765 
L 101.78595 292.419155 
L 107.056316 292.608076 
L 108.813105 292.628895 
L 110.569894 287.261373 
L 112.326682 289.420874 
L 114.083471 290.716574 
L 115.84026 291.493995 
L 117.597048 286.580432 
L 119.353837 289.012309 
L 121.110626 290.471436 
L 122.867414 291.346911 
L 124.624203 291.872197 
L 126.380992 292.187368 
L 129.894569 292.489933 
L 133.408146 292.598856 
L 135.164935 281.863335 
L 136.921724 286.182051 
L 138.678512 288.773281 
L 140.435301 290.328018 
L 142.19209 291.260861 
L 143.948878 291.820567 
L 145.705667 292.15639 
L 147.462456 286.97787 
L 149.219244 289.250772 
L 150.976033 290.614513 
L 152.732822 291.432758 
L 154.48961 286.54369 
L 156.246399 288.990264 
L 158.003188 290.458209 
L 159.759976 291.338975 
L 161.516765 291.867435 
L 163.273554 292.184511 
L 165.030342 286.994742 
L 166.787131 283.880881 
L 168.54392 287.392579 
L 170.300708 267.97954 
L 172.057497 267.091745 
L 173.814286 266.559068 
L 175.571074 271.619477 
L 177.327863 274.655722 
L 179.084652 281.857483 
L 180.84144 280.798525 
L 182.598229 285.543165 
L 184.355018 283.009935 
L 186.111806 281.489997 
L 187.868595 285.958048 
L 189.625384 283.258864 
L 191.382172 287.019369 
L 193.138961 283.895657 
L 194.89575 287.401444 
L 196.652538 289.504916 
L 198.409327 280.006971 
L 200.166116 279.688218 
L 201.922904 274.116952 
L 203.679693 276.154207 
L 205.436482 271.996546 
L 207.19327 274.881963 
L 208.950059 271.233199 
L 210.706848 263.663926 
L 212.463636 259.122363 
L 214.220425 272.537468 
L 215.977214 269.826502 
L 217.734002 273.579937 
L 219.490791 275.831998 
L 221.24758 261.043191 
L 223.004368 262.929936 
L 224.761157 274.822012 
L 226.517946 271.197228 
L 228.274734 269.022358 
L 230.031523 267.717436 
L 231.788312 266.934483 
L 233.5451 266.464711 
L 235.301889 271.562862 
L 237.058678 269.241739 
L 238.815466 262.46905 
L 240.572255 258.405437 
L 242.329044 255.967269 
L 244.085832 265.264397 
L 245.842621 270.842674 
L 247.59941 263.429611 
L 249.356198 264.361788 
L 251.112987 270.301109 
L 252.869776 279.244715 
L 254.626564 273.85085 
L 256.383353 270.614532 
L 258.140142 263.292726 
L 259.89693 269.659671 
L 261.653719 268.099824 
L 263.410508 267.163916 
L 265.167296 266.602371 
L 266.924085 260.885429 
L 268.680874 252.07525 
L 270.437662 257.549172 
L 272.194451 266.213539 
L 273.95124 255.272116 
L 275.708028 248.707262 
L 277.464817 250.148364 
L 279.221606 261.773054 
L 280.978394 252.607825 
L 282.735183 263.248731 
L 284.491972 253.493231 
L 286.24876 253.019946 
L 288.005549 252.735974 
L 289.762338 257.945606 
L 291.519126 255.691371 
L 293.275915 259.718844 
L 295.032704 256.755313 
L 296.789492 254.977195 
L 298.546281 264.670353 
L 300.30307 254.346204 
L 302.059858 248.151715 
L 303.816647 260.575065 
L 305.573436 262.64906 
L 307.330224 263.893457 
L 309.087013 248.500052 
L 310.843802 244.644024 
L 312.60059 258.47045 
L 314.357379 250.626263 
L 316.114168 251.299765 
L 317.870956 257.08388 
L 319.627745 255.174335 
L 321.384534 243.268578 
L 323.141322 257.645183 
L 324.898111 250.131102 
L 326.6549 256.382683 
L 328.411688 265.513645 
L 330.168477 260.232194 
L 331.925266 257.063323 
L 333.682054 260.542015 
L 335.438843 251.869202 
L 337.195632 257.425542 
L 338.95242 255.379332 
L 340.709209 243.391577 
L 342.465998 252.338967 
L 344.222786 257.707402 
L 345.979575 255.548448 
L 347.736364 254.253076 
L 349.493152 253.475852 
L 351.249941 242.249489 
L 353.00673 240.893686 
L 354.763518 250.840233 
L 356.520307 246.048132 
L 358.277096 248.552886 
L 360.033884 239.295709 
L 361.790673 244.501432 
L 363.547462 247.624866 
L 365.30425 249.498927 
L 367.061039 245.243349 
L 368.817828 253.450031 
L 370.574616 263.754054 
L 372.331405 269.936468 
L 374.088194 262.885888 
L 375.844982 253.275525 
L 377.601771 252.889322 
L 379.35856 247.277586 
L 381.115348 249.290559 
L 382.872137 234.358299 
L 384.628926 246.919001 
L 386.385714 243.695393 
L 388.142503 252.521257 
L 389.899292 263.19679 
L 391.65608 269.60211 
L 393.412869 268.065287 
L 395.169658 267.143194 
L 396.926446 266.589937 
L 398.683235 260.877969 
L 400.440024 252.070774 
L 402.196812 246.786457 
L 403.953601 248.995881 
L 405.71039 250.321536 
L 407.467178 256.496943 
L 409.223967 254.822173 
L 410.980756 253.817311 
L 412.737544 258.594408 
L 414.494333 256.080652 
L 416.251122 243.812368 
L 418.00791 247.211428 
L 419.764699 249.250864 
L 421.521488 245.094511 
L 423.278276 253.360728 
L 425.035065 252.940444 
L 426.791854 247.308259 
L 428.548642 254.688977 
L 430.305431 248.357379 
L 432.06222 260.698463 
L 433.819008 262.723099 
L 435.575797 274.697909 
L 437.332586 281.882796 
L 439.089374 275.433699 
L 440.846163 276.944255 
L 442.602952 272.470574 
L 444.35974 264.406352 
L 446.116529 275.707861 
L 447.873318 277.108752 
L 449.630106 283.329301 
L 451.386895 276.301602 
L 453.143684 282.845011 
L 454.900472 286.771057 
L 456.657261 289.126684 
L 458.41405 285.160046 
L 460.170838 288.160078 
L 461.927627 289.960097 
L 463.684416 291.040108 
L 465.441204 286.3081 
L 467.197993 288.84891 
L 468.954782 284.993382 
L 470.71157 282.680065 
L 472.468359 281.292075 
L 474.225148 275.079266 
L 475.981936 260.591552 
L 477.738725 268.038967 
L 479.495514 277.88743 
L 481.252302 273.036479 
L 483.009091 270.125909 
L 483.009091 270.125909 
" clip-path="url(#p38ad1cc9e1)" style="fill: none; stroke: #9467bd; stroke-width: 1.5; stroke-linecap: square"/>
   </g>
   <g id="patch_3">
    <path d="M 56.9 305.260125 
L 56.9 28.060125 
" style="fill: none; stroke: #000000; stroke-width: 0.8; stroke-linejoin: miter; stroke-linecap: square"/>
   </g>
   <g id="patch_4">
    <path d="M 503.3 305.260125 
L 503.3 28.060125 
" style="fill: none; stroke: #000000; stroke-width: 0.8; stroke-linejoin: miter; stroke-linecap: square"/>
   </g>
   <g id="patch_5">
    <path d="M 56.9 305.260125 
L 503.3 305.260125 
" style="fill: none; stroke: #000000; stroke-width: 0.8; stroke-linejoin: miter; stroke-linecap: square"/>
   </g>
   <g id="patch_6">
    <path d="M 56.9 28.060125 
L 503.3 28.060125 
" style="fill: none; stroke: #000000; stroke-width: 0.8; stroke-linejoin: miter; stroke-linecap: square"/>
   </g>
   <g id="text_13">
    <!-- ML45 Meta Testing -->
    <g transform="translate(193.104313 22.060125)scale(0.216 -0.216)">
     <defs>
      <path id="STIXGeneral-Regular-4d" d="M 5530 0 
L 3738 0 
L 3738 122 
Q 4115 147 4214 265 
Q 4314 384 4314 787 
L 4314 3661 
L 2682 0 
L 2592 0 
L 979 3514 
L 979 966 
Q 979 448 1088 294 
Q 1197 141 1574 122 
L 1574 0 
L 77 0 
L 77 122 
Q 358 141 480 205 
Q 602 269 650 432 
Q 698 595 698 966 
L 698 3514 
Q 698 3878 589 3984 
Q 480 4090 90 4115 
L 90 4237 
L 1357 4237 
L 2835 1024 
L 4250 4237 
L 5523 4237 
L 5523 4115 
Q 5178 4109 5072 3993 
Q 4966 3878 4966 3520 
L 4966 717 
Q 4966 378 5072 262 
Q 5178 147 5530 122 
L 5530 0 
z
" transform="scale(0.015625)"/>
      <path id="STIXGeneral-Regular-4c" d="M 3827 1114 
L 3520 0 
L 77 0 
L 77 122 
Q 429 141 531 256 
Q 634 371 634 736 
L 634 3494 
Q 634 3872 541 3981 
Q 448 4090 77 4115 
L 77 4237 
L 1888 4237 
L 1888 4115 
Q 1498 4090 1392 3984 
Q 1286 3878 1286 3507 
L 1286 538 
Q 1286 358 1398 304 
Q 1510 250 1862 250 
L 2310 250 
Q 3085 250 3392 640 
Q 3520 813 3661 1114 
L 3827 1114 
z
" transform="scale(0.015625)"/>
      <path id="STIXGeneral-Regular-35" d="M 2803 4358 
L 2573 3814 
Q 2534 3731 2400 3731 
L 1158 3731 
L 902 3187 
Q 1606 3053 1920 2896 
Q 2234 2739 2502 2368 
Q 2726 2061 2726 1555 
Q 2726 1094 2576 780 
Q 2426 467 2099 224 
Q 1664 -90 1011 -90 
Q 646 -90 422 19 
Q 198 128 198 307 
Q 198 550 486 550 
Q 717 550 960 352 
Q 1210 147 1414 147 
Q 1747 147 2012 480 
Q 2278 813 2278 1229 
Q 2278 1843 1850 2189 
Q 1293 2637 486 2637 
Q 410 2637 410 2688 
L 416 2720 
L 1114 4237 
L 2438 4237 
Q 2547 4237 2608 4269 
Q 2669 4301 2746 4403 
L 2803 4358 
z
" transform="scale(0.015625)"/>
     </defs>
     <use xlink:href="#STIXGeneral-Regular-4d"/>
     <use xlink:href="#STIXGeneral-Regular-4c" x="88.899994"/>
     <use xlink:href="#STIXGeneral-Regular-34" x="149.999985"/>
     <use xlink:href="#STIXGeneral-Regular-35" x="199.999969"/>
     <use xlink:href="#STIXGeneral-Regular-20" x="249.999954"/>
     <use xlink:href="#STIXGeneral-Regular-4d" x="274.999939"/>
     <use xlink:href="#STIXGeneral-Regular-65" x="363.899933"/>
     <use xlink:href="#STIXGeneral-Regular-74" x="408.299927"/>
     <use xlink:href="#STIXGeneral-Regular-61" x="436.099915"/>
     <use xlink:href="#STIXGeneral-Regular-20" x="480.499908"/>
     <use xlink:href="#STIXGeneral-Regular-54" x="505.499893"/>
     <use xlink:href="#STIXGeneral-Regular-65" x="566.599884"/>
     <use xlink:href="#STIXGeneral-Regular-73" x="610.999878"/>
     <use xlink:href="#STIXGeneral-Regular-74" x="649.899872"/>
     <use xlink:href="#STIXGeneral-Regular-69" x="677.69986"/>
     <use xlink:href="#STIXGeneral-Regular-6e" x="705.499847"/>
     <use xlink:href="#STIXGeneral-Regular-67" x="755.499832"/>
    </g>
   </g>
   <g id="legend_1">
    <g id="patch_7">
     <path d="M 389.606875 107.87325 
L 497.7 107.87325 
Q 500.5 107.87325 500.5 105.07325 
L 500.5 33.660125 
Q 500.5 30.860125 497.7 30.860125 
L 389.606875 30.860125 
Q 386.806875 30.860125 386.806875 33.660125 
L 386.806875 105.07325 
Q 386.806875 107.87325 389.606875 107.87325 
z
" style="fill: #ffffff; opacity: 0.8; stroke: #cccccc; stroke-linejoin: miter"/>
    </g>
    <g id="line2d_24">
     <path d="M 391.006875 40.771687 
L 398.006875 40.771687 
L 405.006875 40.771687 
" style="fill: none; stroke: #1f77b4; stroke-width: 1.5; stroke-linecap: square"/>
    </g>
    <g id="text_14">
     <!-- bin-picking-v2 -->
     <g transform="translate(409.206875 44.621687)scale(0.14 -0.14)">
      <defs>
       <path id="STIXGeneral-Regular-62" d="M 979 4358 
L 979 2406 
Q 1082 2650 1315 2797 
Q 1549 2944 1843 2944 
Q 2349 2944 2672 2541 
Q 2995 2138 2995 1536 
Q 2995 832 2566 384 
Q 2138 -64 1498 -64 
Q 1107 -64 774 67 
Q 442 198 442 358 
L 442 3622 
Q 442 3859 384 3926 
Q 326 3994 128 3994 
Q 83 3994 19 3981 
L 19 4090 
L 211 4147 
Q 864 4346 947 4371 
L 979 4358 
z
M 979 2035 
L 979 474 
Q 979 326 1161 233 
Q 1344 141 1600 141 
Q 1978 141 2195 416 
Q 2432 710 2432 1261 
Q 2432 1888 2182 2240 
Q 1971 2541 1613 2541 
Q 1357 2541 1168 2390 
Q 979 2240 979 2035 
z
" transform="scale(0.015625)"/>
       <path id="STIXGeneral-Regular-2d" d="M 1824 1242 
L 250 1242 
L 250 1645 
L 1824 1645 
L 1824 1242 
z
" transform="scale(0.015625)"/>
       <path id="STIXGeneral-Regular-6b" d="M 3232 0 
L 1837 0 
L 1837 96 
L 1958 96 
Q 2093 96 2093 192 
Q 2093 250 2022 339 
L 1062 1606 
L 1062 429 
Q 1062 262 1142 185 
Q 1222 109 1414 102 
L 1542 96 
L 1542 0 
L 45 0 
L 45 96 
Q 390 154 457 214 
Q 525 275 525 525 
L 525 3610 
Q 525 3840 467 3920 
Q 410 4000 250 4000 
Q 211 4000 45 3987 
L 45 4090 
L 237 4141 
Q 621 4243 1037 4371 
L 1062 4358 
L 1062 1670 
L 1939 2451 
Q 2086 2586 2086 2675 
Q 2086 2739 2019 2761 
Q 1952 2784 1766 2790 
L 1766 2880 
L 3072 2880 
L 3072 2784 
Q 2752 2784 2505 2646 
Q 2259 2509 1690 1978 
L 1504 1805 
L 2483 563 
Q 2829 122 3232 96 
L 3232 0 
z
" transform="scale(0.015625)"/>
      </defs>
      <use xlink:href="#STIXGeneral-Regular-62"/>
      <use xlink:href="#STIXGeneral-Regular-69" x="49.999985"/>
      <use xlink:href="#STIXGeneral-Regular-6e" x="77.799973"/>
      <use xlink:href="#STIXGeneral-Regular-2d" x="127.799957"/>
      <use xlink:href="#STIXGeneral-Regular-70" x="161.099945"/>
      <use xlink:href="#STIXGeneral-Regular-69" x="211.09993"/>
      <use xlink:href="#STIXGeneral-Regular-63" x="238.899918"/>
      <use xlink:href="#STIXGeneral-Regular-6b" x="283.299911"/>
      <use xlink:href="#STIXGeneral-Regular-69" x="333.299896"/>
      <use xlink:href="#STIXGeneral-Regular-6e" x="361.099884"/>
      <use xlink:href="#STIXGeneral-Regular-67" x="411.099869"/>
      <use xlink:href="#STIXGeneral-Regular-2d" x="461.099854"/>
      <use xlink:href="#STIXGeneral-Regular-76" x="494.399841"/>
      <use xlink:href="#STIXGeneral-Regular-32" x="544.399826"/>
     </g>
    </g>
    <g id="line2d_25">
     <path d="M 391.006875 54.784812 
L 398.006875 54.784812 
L 405.006875 54.784812 
" style="fill: none; stroke: #ff7f0e; stroke-width: 1.5; stroke-linecap: square"/>
    </g>
    <g id="text_15">
     <!-- box-close-v2 -->
     <g transform="translate(409.206875 58.634812)scale(0.14 -0.14)">
      <defs>
       <path id="STIXGeneral-Regular-78" d="M 3066 0 
L 1779 0 
L 1779 96 
Q 1939 109 1987 137 
Q 2035 166 2035 250 
Q 2035 307 1997 365 
L 1414 1261 
L 909 474 
Q 781 275 781 211 
Q 781 96 1037 96 
L 1037 0 
L 109 0 
L 109 96 
Q 269 109 355 169 
Q 442 230 576 422 
L 1306 1478 
L 704 2400 
Q 557 2624 454 2704 
Q 352 2784 211 2784 
L 154 2784 
L 154 2880 
L 1478 2880 
L 1478 2784 
Q 1203 2778 1203 2643 
Q 1203 2509 1498 2074 
Q 1581 1958 1587 1946 
Q 1619 1990 1779 2227 
Q 1811 2285 1856 2349 
Q 1901 2413 1923 2451 
Q 1946 2490 1971 2528 
Q 1997 2566 2006 2595 
Q 2016 2624 2016 2643 
Q 2016 2765 1760 2784 
L 1760 2880 
L 2771 2880 
L 2771 2784 
Q 2445 2771 2253 2502 
L 1722 1734 
L 2541 480 
Q 2790 96 3066 96 
L 3066 0 
z
" transform="scale(0.015625)"/>
       <path id="STIXGeneral-Regular-6c" d="M 1645 0 
L 134 0 
L 134 96 
Q 435 122 531 221 
Q 627 320 627 589 
L 627 3590 
Q 627 3821 569 3910 
Q 512 4000 358 4000 
Q 224 4000 122 3987 
L 122 4090 
Q 730 4237 1133 4371 
L 1165 4346 
L 1165 557 
Q 1165 288 1254 201 
Q 1344 115 1645 96 
L 1645 0 
z
" transform="scale(0.015625)"/>
      </defs>
      <use xlink:href="#STIXGeneral-Regular-62"/>
      <use xlink:href="#STIXGeneral-Regular-6f" x="49.999985"/>
      <use xlink:href="#STIXGeneral-Regular-78" x="99.999969"/>
      <use xlink:href="#STIXGeneral-Regular-2d" x="149.999954"/>
      <use xlink:href="#STIXGeneral-Regular-63" x="183.299942"/>
      <use xlink:href="#STIXGeneral-Regular-6c" x="227.699936"/>
      <use xlink:href="#STIXGeneral-Regular-6f" x="255.499924"/>
      <use xlink:href="#STIXGeneral-Regular-73" x="305.499908"/>
      <use xlink:href="#STIXGeneral-Regular-65" x="344.399902"/>
      <use xlink:href="#STIXGeneral-Regular-2d" x="388.799896"/>
      <use xlink:href="#STIXGeneral-Regular-76" x="422.099884"/>
      <use xlink:href="#STIXGeneral-Regular-32" x="472.099869"/>
     </g>
    </g>
    <g id="line2d_26">
     <path d="M 391.006875 68.784812 
L 398.006875 68.784812 
L 405.006875 68.784812 
" style="fill: none; stroke: #2ca02c; stroke-width: 1.5; stroke-linecap: square"/>
    </g>
    <g id="text_16">
     <!-- hand-insert-v2 -->
     <g transform="translate(409.206875 72.634812)scale(0.14 -0.14)">
      <defs>
       <path id="STIXGeneral-Regular-68" d="M 3117 0 
L 1760 0 
L 1760 96 
Q 2042 128 2118 224 
Q 2195 320 2195 653 
L 2195 1920 
Q 2195 2598 1722 2598 
Q 1530 2598 1370 2508 
Q 1210 2419 1005 2195 
L 1005 653 
Q 1005 320 1081 224 
Q 1158 128 1440 96 
L 1440 0 
L 58 0 
L 58 96 
Q 333 134 400 224 
Q 467 314 467 653 
L 467 3667 
Q 467 3872 406 3933 
Q 346 3994 141 3994 
Q 83 3994 64 3987 
L 64 4090 
L 237 4141 
Q 730 4288 973 4371 
L 1005 4352 
L 1005 2406 
Q 1229 2694 1446 2819 
Q 1664 2944 1946 2944 
Q 2733 2944 2733 1926 
L 2733 653 
Q 2733 320 2793 233 
Q 2854 147 3117 96 
L 3117 0 
z
" transform="scale(0.015625)"/>
       <path id="STIXGeneral-Regular-64" d="M 3142 269 
L 2202 -64 
L 2176 -45 
L 2176 365 
Q 1869 -64 1357 -64 
Q 826 -64 499 317 
Q 173 698 173 1312 
Q 173 1990 563 2467 
Q 954 2944 1504 2944 
Q 1850 2944 2176 2669 
L 2176 3667 
Q 2176 3866 2118 3930 
Q 2061 3994 1882 3994 
Q 1792 3994 1741 3987 
L 1741 4090 
Q 2323 4243 2682 4371 
L 2714 4358 
L 2714 730 
Q 2714 506 2768 435 
Q 2822 365 2995 365 
Q 3034 365 3142 371 
L 3142 269 
z
M 2176 653 
L 2176 2125 
Q 2176 2381 1981 2573 
Q 1786 2765 1523 2765 
Q 1158 2765 940 2438 
Q 723 2112 723 1568 
Q 723 979 963 624 
Q 1203 269 1606 269 
Q 1907 269 2080 474 
Q 2176 582 2176 653 
z
" transform="scale(0.015625)"/>
      </defs>
      <use xlink:href="#STIXGeneral-Regular-68"/>
      <use xlink:href="#STIXGeneral-Regular-61" x="49.999985"/>
      <use xlink:href="#STIXGeneral-Regular-6e" x="94.399979"/>
      <use xlink:href="#STIXGeneral-Regular-64" x="144.399963"/>
      <use xlink:href="#STIXGeneral-Regular-2d" x="194.399948"/>
      <use xlink:href="#STIXGeneral-Regular-69" x="227.699936"/>
      <use xlink:href="#STIXGeneral-Regular-6e" x="255.499924"/>
      <use xlink:href="#STIXGeneral-Regular-73" x="305.499908"/>
      <use xlink:href="#STIXGeneral-Regular-65" x="344.399902"/>
      <use xlink:href="#STIXGeneral-Regular-72" x="388.799896"/>
      <use xlink:href="#STIXGeneral-Regular-74" x="422.099884"/>
      <use xlink:href="#STIXGeneral-Regular-2d" x="449.899872"/>
      <use xlink:href="#STIXGeneral-Regular-76" x="483.19986"/>
      <use xlink:href="#STIXGeneral-Regular-32" x="533.199844"/>
     </g>
    </g>
    <g id="line2d_27">
     <path d="M 391.006875 82.784812 
L 398.006875 82.784812 
L 405.006875 82.784812 
" style="fill: none; stroke: #d62728; stroke-width: 1.5; stroke-linecap: square"/>
    </g>
    <g id="text_17">
     <!-- door-lock-v2 -->
     <g transform="translate(409.206875 86.634812)scale(0.14 -0.14)">
      <use xlink:href="#STIXGeneral-Regular-64"/>
      <use xlink:href="#STIXGeneral-Regular-6f" x="49.999985"/>
      <use xlink:href="#STIXGeneral-Regular-6f" x="99.999969"/>
      <use xlink:href="#STIXGeneral-Regular-72" x="149.999954"/>
      <use xlink:href="#STIXGeneral-Regular-2d" x="183.299942"/>
      <use xlink:href="#STIXGeneral-Regular-6c" x="216.59993"/>
      <use xlink:href="#STIXGeneral-Regular-6f" x="244.399918"/>
      <use xlink:href="#STIXGeneral-Regular-63" x="294.399902"/>
      <use xlink:href="#STIXGeneral-Regular-6b" x="338.799896"/>
      <use xlink:href="#STIXGeneral-Regular-2d" x="388.799881"/>
      <use xlink:href="#STIXGeneral-Regular-76" x="422.099869"/>
      <use xlink:href="#STIXGeneral-Regular-32" x="472.099854"/>
     </g>
    </g>
    <g id="line2d_28">
     <path d="M 391.006875 96.784812 
L 398.006875 96.784812 
L 405.006875 96.784812 
" style="fill: none; stroke: #9467bd; stroke-width: 1.5; stroke-linecap: square"/>
    </g>
    <g id="text_18">
     <!-- door-unlock-v2 -->
     <g transform="translate(409.206875 100.634812)scale(0.14 -0.14)">
      <use xlink:href="#STIXGeneral-Regular-64"/>
      <use xlink:href="#STIXGeneral-Regular-6f" x="49.999985"/>
      <use xlink:href="#STIXGeneral-Regular-6f" x="99.999969"/>
      <use xlink:href="#STIXGeneral-Regular-72" x="149.999954"/>
      <use xlink:href="#STIXGeneral-Regular-2d" x="183.299942"/>
      <use xlink:href="#STIXGeneral-Regular-75" x="216.59993"/>
      <use xlink:href="#STIXGeneral-Regular-6e" x="266.599915"/>
      <use xlink:href="#STIXGeneral-Regular-6c" x="316.599899"/>
      <use xlink:href="#STIXGeneral-Regular-6f" x="344.399887"/>
      <use xlink:href="#STIXGeneral-Regular-63" x="394.399872"/>
      <use xlink:href="#STIXGeneral-Regular-6b" x="438.799866"/>
      <use xlink:href="#STIXGeneral-Regular-2d" x="488.79985"/>
      <use xlink:href="#STIXGeneral-Regular-76" x="522.099838"/>
      <use xlink:href="#STIXGeneral-Regular-32" x="572.099823"/>
     </g>
    </g>
   </g>
  </g>
 </g>
 <defs>
  <clipPath id="p38ad1cc9e1">
   <rect x="56.9" y="28.060125" width="446.4" height="277.2"/>
  </clipPath>
 </defs>
</svg>
