<?xml version="1.0" encoding="utf-8" standalone="no"?>
<!DOCTYPE svg PUBLIC "-//W3C//DTD SVG 1.1//EN"
  "http://www.w3.org/Graphics/SVG/1.1/DTD/svg11.dtd">
<svg xmlns:xlink="http://www.w3.org/1999/xlink" width="524pt" height="355.877pt" viewBox="0 0 524 355.877" xmlns="http://www.w3.org/2000/svg" version="1.1">
 <metadata>
  <rdf:RDF xmlns:dc="http://purl.org/dc/elements/1.1/" xmlns:cc="http://creativecommons.org/ns#" xmlns:rdf="http://www.w3.org/1999/02/22-rdf-syntax-ns#">
   <cc:Work>
    <dc:type rdf:resource="http://purl.org/dc/dcmitype/StillImage"/>
    <dc:date>2021-12-11T20:28:41.158609</dc:date>
    <dc:format>image/svg+xml</dc:format>
    <dc:creator>
     <cc:Agent>
      <dc:title>Matplotlib v3.5.0, https://matplotlib.org/</dc:title>
     </cc:Agent>
    </dc:creator>
   </cc:Work>
  </rdf:RDF>
 </metadata>
 <defs>
  <style type="text/css">*{stroke-linejoin: round; stroke-linecap: butt}</style>
 </defs>
 <g id="figure_1">
  <g id="patch_1">
   <path d="M 0 355.877 
L 524 355.877 
L 524 0 
L 0 0 
z
" style="fill: #ffffff"/>
  </g>
  <g id="axes_1">
   <g id="patch_2">
    <path d="M 70.4 305.260125 
L 516.8 305.260125 
L 516.8 28.060125 
L 70.4 28.060125 
z
" style="fill: #ffffff"/>
   </g>
   <g id="matplotlib.axis_1">
    <g id="xtick_1">
     <g id="line2d_1">
      <path d="M 89.351575 305.260125 
L 89.351575 28.060125 
" clip-path="url(#p52fdacd944)" style="fill: none; stroke: #b0b0b0; stroke-width: 0.8; stroke-linecap: square"/>
     </g>
     <g id="line2d_2">
      <defs>
       <path id="md9a31a74b9" d="M 0 0 
L 0 3.5 
" style="stroke: #000000; stroke-width: 0.8"/>
      </defs>
      <g>
       <use xlink:href="#md9a31a74b9" x="89.351575" y="305.260125" style="stroke: #000000; stroke-width: 0.8"/>
      </g>
     </g>
     <g id="text_1">
      <!-- 0 -->
      <g transform="translate(84.851575 324.553562)scale(0.18 -0.18)">
       <defs>
        <path id="STIXGeneral-Regular-30" d="M 3046 2112 
Q 3046 1683 2963 1302 
Q 2880 922 2717 602 
Q 2554 282 2266 96 
Q 1978 -90 1600 -90 
Q 1210 -90 915 108 
Q 621 307 461 640 
Q 301 973 227 1350 
Q 154 1728 154 2150 
Q 154 2746 301 3222 
Q 448 3699 790 4012 
Q 1133 4326 1626 4326 
Q 2253 4326 2649 3712 
Q 3046 3098 3046 2112 
z
M 2432 2080 
Q 2432 3091 2217 3625 
Q 2003 4160 1587 4160 
Q 1190 4160 979 3622 
Q 768 3085 768 2106 
Q 768 1120 979 598 
Q 1190 77 1600 77 
Q 2003 77 2217 598 
Q 2432 1120 2432 2080 
z
" transform="scale(0.015625)"/>
       </defs>
       <use xlink:href="#STIXGeneral-Regular-30"/>
      </g>
     </g>
    </g>
    <g id="xtick_2">
     <g id="line2d_3">
      <path d="M 155.491522 305.260125 
L 155.491522 28.060125 
" clip-path="url(#p52fdacd944)" style="fill: none; stroke: #b0b0b0; stroke-width: 0.8; stroke-linecap: square"/>
     </g>
     <g id="line2d_4">
      <g>
       <use xlink:href="#md9a31a74b9" x="155.491522" y="305.260125" style="stroke: #000000; stroke-width: 0.8"/>
      </g>
     </g>
     <g id="text_2">
      <!-- 1 -->
      <g transform="translate(150.991522 324.553562)scale(0.18 -0.18)">
       <defs>
        <path id="STIXGeneral-Regular-31" d="M 2522 0 
L 755 0 
L 755 96 
Q 1107 115 1235 227 
Q 1363 339 1363 608 
L 1363 3482 
Q 1363 3795 1171 3795 
Q 1082 3795 883 3718 
L 710 3654 
L 710 3744 
L 1856 4326 
L 1914 4307 
L 1914 486 
Q 1914 275 2042 185 
Q 2170 96 2522 96 
L 2522 0 
z
" transform="scale(0.015625)"/>
       </defs>
       <use xlink:href="#STIXGeneral-Regular-31"/>
      </g>
     </g>
    </g>
    <g id="xtick_3">
     <g id="line2d_5">
      <path d="M 221.63147 305.260125 
L 221.63147 28.060125 
" clip-path="url(#p52fdacd944)" style="fill: none; stroke: #b0b0b0; stroke-width: 0.8; stroke-linecap: square"/>
     </g>
     <g id="line2d_6">
      <g>
       <use xlink:href="#md9a31a74b9" x="221.63147" y="305.260125" style="stroke: #000000; stroke-width: 0.8"/>
      </g>
     </g>
     <g id="text_3">
      <!-- 2 -->
      <g transform="translate(217.13147 324.553562)scale(0.18 -0.18)">
       <defs>
        <path id="STIXGeneral-Regular-32" d="M 3034 877 
L 2688 0 
L 186 0 
L 186 77 
L 1325 1286 
Q 1773 1754 1965 2144 
Q 2157 2534 2157 2950 
Q 2157 3379 1920 3616 
Q 1683 3853 1267 3853 
Q 922 3853 720 3673 
Q 518 3494 326 3021 
L 192 3053 
Q 301 3648 630 3987 
Q 960 4326 1523 4326 
Q 2054 4326 2380 4006 
Q 2707 3686 2707 3200 
Q 2707 2477 1888 1613 
L 832 486 
L 2330 486 
Q 2541 486 2665 569 
Q 2790 653 2944 915 
L 3034 877 
z
" transform="scale(0.015625)"/>
       </defs>
       <use xlink:href="#STIXGeneral-Regular-32"/>
      </g>
     </g>
    </g>
    <g id="xtick_4">
     <g id="line2d_7">
      <path d="M 287.771417 305.260125 
L 287.771417 28.060125 
" clip-path="url(#p52fdacd944)" style="fill: none; stroke: #b0b0b0; stroke-width: 0.8; stroke-linecap: square"/>
     </g>
     <g id="line2d_8">
      <g>
       <use xlink:href="#md9a31a74b9" x="287.771417" y="305.260125" style="stroke: #000000; stroke-width: 0.8"/>
      </g>
     </g>
     <g id="text_4">
      <!-- 3 -->
      <g transform="translate(283.271417 324.553562)scale(0.18 -0.18)">
       <defs>
        <path id="STIXGeneral-Regular-33" d="M 390 3264 
L 288 3290 
Q 435 3770 748 4048 
Q 1062 4326 1542 4326 
Q 1990 4326 2265 4083 
Q 2541 3840 2541 3450 
Q 2541 2925 1946 2566 
Q 2298 2413 2477 2227 
Q 2758 1914 2758 1402 
Q 2758 890 2464 506 
Q 2246 211 1840 60 
Q 1434 -90 979 -90 
Q 262 -90 262 275 
Q 262 378 339 442 
Q 416 506 525 506 
Q 685 506 915 339 
Q 1197 141 1466 141 
Q 1818 141 2058 425 
Q 2298 710 2298 1120 
Q 2298 1856 1632 2048 
Q 1434 2112 979 2112 
L 979 2202 
Q 1338 2323 1517 2432 
Q 2035 2726 2035 3290 
Q 2035 3610 1852 3776 
Q 1670 3942 1344 3942 
Q 768 3942 390 3264 
z
" transform="scale(0.015625)"/>
       </defs>
       <use xlink:href="#STIXGeneral-Regular-33"/>
      </g>
     </g>
    </g>
    <g id="xtick_5">
     <g id="line2d_9">
      <path d="M 353.911364 305.260125 
L 353.911364 28.060125 
" clip-path="url(#p52fdacd944)" style="fill: none; stroke: #b0b0b0; stroke-width: 0.8; stroke-linecap: square"/>
     </g>
     <g id="line2d_10">
      <g>
       <use xlink:href="#md9a31a74b9" x="353.911364" y="305.260125" style="stroke: #000000; stroke-width: 0.8"/>
      </g>
     </g>
     <g id="text_5">
      <!-- 4 -->
      <g transform="translate(349.411364 324.553562)scale(0.18 -0.18)">
       <defs>
        <path id="STIXGeneral-Regular-34" d="M 3027 1069 
L 2368 1069 
L 2368 0 
L 1869 0 
L 1869 1069 
L 77 1069 
L 77 1478 
L 2086 4326 
L 2368 4326 
L 2368 1478 
L 3027 1478 
L 3027 1069 
z
M 1869 1478 
L 1869 3674 
L 333 1478 
L 1869 1478 
z
" transform="scale(0.015625)"/>
       </defs>
       <use xlink:href="#STIXGeneral-Regular-34"/>
      </g>
     </g>
    </g>
    <g id="xtick_6">
     <g id="line2d_11">
      <path d="M 420.051312 305.260125 
L 420.051312 28.060125 
" clip-path="url(#p52fdacd944)" style="fill: none; stroke: #b0b0b0; stroke-width: 0.8; stroke-linecap: square"/>
     </g>
     <g id="line2d_12">
      <g>
       <use xlink:href="#md9a31a74b9" x="420.051312" y="305.260125" style="stroke: #000000; stroke-width: 0.8"/>
      </g>
     </g>
     <g id="text_6">
      <!-- 5 -->
      <g transform="translate(415.551312 324.553562)scale(0.18 -0.18)">
       <defs>
        <path id="STIXGeneral-Regular-35" d="M 2803 4358 
L 2573 3814 
Q 2534 3731 2400 3731 
L 1158 3731 
L 902 3187 
Q 1606 3053 1920 2896 
Q 2234 2739 2502 2368 
Q 2726 2061 2726 1555 
Q 2726 1094 2576 780 
Q 2426 467 2099 224 
Q 1664 -90 1011 -90 
Q 646 -90 422 19 
Q 198 128 198 307 
Q 198 550 486 550 
Q 717 550 960 352 
Q 1210 147 1414 147 
Q 1747 147 2012 480 
Q 2278 813 2278 1229 
Q 2278 1843 1850 2189 
Q 1293 2637 486 2637 
Q 410 2637 410 2688 
L 416 2720 
L 1114 4237 
L 2438 4237 
Q 2547 4237 2608 4269 
Q 2669 4301 2746 4403 
L 2803 4358 
z
" transform="scale(0.015625)"/>
       </defs>
       <use xlink:href="#STIXGeneral-Regular-35"/>
      </g>
     </g>
    </g>
    <g id="xtick_7">
     <g id="line2d_13">
      <path d="M 486.191259 305.260125 
L 486.191259 28.060125 
" clip-path="url(#p52fdacd944)" style="fill: none; stroke: #b0b0b0; stroke-width: 0.8; stroke-linecap: square"/>
     </g>
     <g id="line2d_14">
      <g>
       <use xlink:href="#md9a31a74b9" x="486.191259" y="305.260125" style="stroke: #000000; stroke-width: 0.8"/>
      </g>
     </g>
     <g id="text_7">
      <!-- 6 -->
      <g transform="translate(481.691259 324.553562)scale(0.18 -0.18)">
       <defs>
        <path id="STIXGeneral-Regular-36" d="M 2854 4378 
L 2867 4275 
Q 2112 4154 1606 3664 
Q 1101 3174 973 2451 
Q 1344 2739 1786 2739 
Q 2349 2739 2672 2380 
Q 2995 2022 2995 1402 
Q 2995 774 2669 378 
Q 2291 -90 1651 -90 
Q 870 -90 518 557 
Q 218 1107 218 1786 
Q 218 2835 915 3552 
Q 1312 3962 1731 4131 
Q 2150 4301 2854 4378 
z
M 2419 1203 
Q 2419 2445 1555 2445 
Q 1235 2445 1024 2275 
Q 813 2106 813 1702 
Q 813 954 1046 522 
Q 1280 90 1722 90 
Q 2061 90 2240 394 
Q 2419 698 2419 1203 
z
" transform="scale(0.015625)"/>
       </defs>
       <use xlink:href="#STIXGeneral-Regular-36"/>
      </g>
     </g>
    </g>
    <g id="text_8">
     <!-- Training Environment Steps -->
     <g transform="translate(191.604688 344.753562)scale(0.18 -0.18)">
      <defs>
       <path id="STIXGeneral-Regular-54" d="M 3795 3149 
L 3642 3149 
Q 3539 3674 3353 3821 
Q 3168 3968 2656 3968 
L 2278 3968 
L 2278 710 
Q 2278 346 2387 243 
Q 2496 141 2893 122 
L 2893 0 
L 1024 0 
L 1024 122 
Q 1427 147 1526 256 
Q 1626 365 1626 787 
L 1626 3968 
L 1242 3968 
Q 723 3968 540 3817 
Q 358 3667 262 3149 
L 109 3149 
L 154 4237 
L 3750 4237 
L 3795 3149 
z
" transform="scale(0.015625)"/>
       <path id="STIXGeneral-Regular-72" d="M 1024 2931 
L 1024 2342 
Q 1267 2688 1430 2816 
Q 1594 2944 1792 2944 
Q 1958 2944 2051 2854 
Q 2144 2765 2144 2605 
Q 2144 2470 2077 2393 
Q 2010 2317 1894 2317 
Q 1773 2317 1638 2445 
Q 1536 2541 1472 2541 
Q 1338 2541 1181 2355 
Q 1024 2170 1024 2016 
L 1024 576 
Q 1024 301 1133 205 
Q 1242 109 1568 96 
L 1568 0 
L 32 0 
L 32 96 
Q 339 154 412 224 
Q 486 294 486 538 
L 486 2138 
Q 486 2349 438 2435 
Q 390 2522 269 2522 
Q 166 2522 45 2496 
L 45 2598 
Q 448 2726 992 2944 
L 1024 2931 
z
" transform="scale(0.015625)"/>
       <path id="STIXGeneral-Regular-61" d="M 2829 422 
L 2829 243 
Q 2586 -64 2253 -64 
Q 1888 -64 1843 403 
L 1837 403 
Q 1427 -64 909 -64 
Q 608 -64 422 112 
Q 237 288 237 602 
Q 237 1050 685 1350 
Q 992 1555 1837 1869 
L 1837 2214 
Q 1837 2502 1699 2646 
Q 1562 2790 1338 2790 
Q 1146 2790 1018 2697 
Q 890 2605 890 2477 
Q 890 2419 909 2348 
Q 928 2278 928 2208 
Q 928 2112 841 2029 
Q 755 1946 634 1946 
Q 525 1946 441 2029 
Q 358 2112 358 2240 
Q 358 2547 685 2752 
Q 986 2944 1421 2944 
Q 1939 2944 2176 2656 
Q 2291 2522 2323 2384 
Q 2355 2246 2355 1946 
L 2355 723 
Q 2355 301 2554 301 
Q 2682 301 2829 422 
z
M 1837 813 
L 1837 1715 
Q 1248 1510 1018 1293 
Q 800 1094 800 800 
Q 800 557 921 432 
Q 1043 307 1242 307 
Q 1453 307 1613 410 
Q 1747 506 1792 589 
Q 1837 672 1837 813 
z
" transform="scale(0.015625)"/>
       <path id="STIXGeneral-Regular-69" d="M 1152 4045 
Q 1152 3904 1056 3811 
Q 960 3718 819 3718 
Q 685 3718 592 3811 
Q 499 3904 499 4045 
Q 499 4179 595 4275 
Q 691 4371 826 4371 
Q 966 4371 1059 4275 
Q 1152 4179 1152 4045 
z
M 1619 0 
L 102 0 
L 102 96 
Q 435 115 521 211 
Q 608 307 608 666 
L 608 2118 
Q 608 2342 563 2432 
Q 518 2522 397 2522 
Q 243 2522 128 2490 
L 128 2592 
L 1120 2944 
L 1146 2918 
L 1146 672 
Q 1146 314 1226 218 
Q 1306 122 1619 96 
L 1619 0 
z
" transform="scale(0.015625)"/>
       <path id="STIXGeneral-Regular-6e" d="M 3104 0 
L 1773 0 
L 1779 96 
Q 2016 115 2096 233 
Q 2176 352 2176 672 
L 2176 1946 
Q 2176 2592 1709 2592 
Q 1549 2592 1408 2515 
Q 1267 2438 1050 2227 
L 1050 461 
Q 1050 269 1136 192 
Q 1222 115 1466 96 
L 1466 0 
L 115 0 
L 115 96 
Q 358 115 435 214 
Q 512 314 512 602 
L 512 2157 
Q 512 2394 467 2483 
Q 422 2573 288 2573 
Q 160 2573 102 2547 
L 102 2656 
Q 550 2784 979 2944 
L 1030 2925 
L 1030 2426 
L 1037 2426 
Q 1491 2944 1958 2944 
Q 2323 2944 2518 2688 
Q 2714 2432 2714 1958 
L 2714 544 
Q 2714 288 2790 205 
Q 2867 122 3104 96 
L 3104 0 
z
" transform="scale(0.015625)"/>
       <path id="STIXGeneral-Regular-67" d="M 3008 2483 
L 2477 2483 
Q 2598 2208 2598 1946 
Q 2598 1453 2265 1203 
Q 1933 954 1600 954 
Q 1530 954 1357 973 
L 1235 986 
Q 1107 947 979 812 
Q 851 678 851 582 
Q 851 435 1350 410 
L 2176 371 
Q 2528 358 2739 172 
Q 2950 -13 2950 -314 
Q 2950 -685 2566 -986 
Q 2035 -1395 1286 -1395 
Q 826 -1395 502 -1212 
Q 179 -1030 179 -774 
Q 179 -595 320 -419 
Q 461 -243 806 6 
Q 602 102 534 172 
Q 467 243 467 346 
Q 467 531 762 787 
Q 909 915 1037 1043 
Q 717 1203 579 1401 
Q 442 1600 442 1901 
Q 442 2336 752 2640 
Q 1062 2944 1510 2944 
Q 1766 2944 2022 2848 
L 2163 2797 
Q 2349 2733 2515 2733 
L 3008 2733 
L 3008 2483 
z
M 973 2163 
L 973 2144 
Q 973 1683 1155 1398 
Q 1338 1114 1632 1114 
Q 1850 1114 1978 1270 
Q 2106 1427 2106 1690 
Q 2106 2112 1914 2464 
Q 1754 2765 1446 2765 
Q 1222 2765 1097 2605 
Q 973 2445 973 2163 
z
M 2771 -410 
Q 2771 -230 2595 -163 
Q 2419 -96 1978 -96 
Q 1344 -96 941 -13 
Q 749 -243 688 -348 
Q 627 -454 627 -563 
Q 627 -774 880 -902 
Q 1133 -1030 1555 -1030 
Q 2099 -1030 2435 -860 
Q 2771 -691 2771 -410 
z
" transform="scale(0.015625)"/>
       <path id="STIXGeneral-Regular-20" transform="scale(0.015625)"/>
       <path id="STIXGeneral-Regular-45" d="M 3821 1082 
L 3526 0 
L 77 0 
L 77 122 
Q 442 147 538 252 
Q 634 358 634 730 
L 634 3520 
Q 634 3878 534 3987 
Q 435 4096 77 4115 
L 77 4237 
L 3469 4237 
L 3494 3322 
L 3334 3322 
Q 3264 3750 3085 3872 
Q 2906 3994 2349 3994 
L 1510 3994 
Q 1370 3994 1328 3952 
Q 1286 3910 1286 3763 
L 1286 2355 
L 2253 2355 
Q 2656 2355 2787 2470 
Q 2918 2586 2976 2970 
L 3123 2970 
L 3123 1472 
L 2976 1472 
Q 2918 1875 2790 1984 
Q 2662 2093 2253 2093 
L 1286 2093 
L 1286 538 
Q 1286 346 1420 291 
Q 1555 237 1933 237 
L 2163 237 
Q 2848 237 3136 403 
Q 3424 570 3642 1082 
L 3821 1082 
z
" transform="scale(0.015625)"/>
       <path id="STIXGeneral-Regular-76" d="M 3053 2880 
L 3053 2784 
Q 2906 2771 2835 2688 
Q 2765 2605 2637 2285 
L 1818 230 
Q 1690 -90 1638 -90 
Q 1587 -90 1523 77 
Q 1510 96 1497 141 
Q 1485 186 1472 211 
L 704 2048 
Q 499 2534 403 2652 
Q 307 2771 122 2784 
L 122 2880 
L 1376 2880 
L 1376 2784 
Q 1210 2771 1146 2732 
Q 1082 2694 1082 2611 
Q 1082 2509 1139 2368 
L 1792 730 
L 2426 2387 
Q 2464 2483 2464 2579 
Q 2464 2758 2163 2784 
L 2163 2880 
L 3053 2880 
z
" transform="scale(0.015625)"/>
       <path id="STIXGeneral-Regular-6f" d="M 3008 1478 
Q 3008 806 2608 371 
Q 2208 -64 1568 -64 
Q 979 -64 582 368 
Q 186 800 186 1459 
Q 186 2125 582 2534 
Q 979 2944 1626 2944 
Q 2221 2944 2614 2537 
Q 3008 2131 3008 1478 
z
M 2432 1306 
Q 2432 2035 2112 2445 
Q 1856 2765 1504 2765 
Q 1171 2765 966 2493 
Q 762 2221 762 1747 
Q 762 928 1101 435 
Q 1318 115 1677 115 
Q 2029 115 2230 432 
Q 2432 749 2432 1306 
z
" transform="scale(0.015625)"/>
       <path id="STIXGeneral-Regular-6d" d="M 4960 0 
L 3565 0 
L 3565 96 
Q 3834 122 3907 208 
Q 3981 294 3981 576 
L 3981 1894 
Q 3981 2278 3869 2444 
Q 3757 2611 3488 2611 
Q 3264 2611 3107 2521 
Q 2950 2432 2803 2221 
L 2803 608 
Q 2803 301 2896 201 
Q 2989 102 3264 96 
L 3264 0 
L 1830 0 
L 1830 96 
Q 2112 115 2189 188 
Q 2266 262 2266 550 
L 2266 1901 
Q 2266 2611 1850 2611 
Q 1670 2611 1468 2531 
Q 1267 2451 1171 2336 
Q 1088 2240 1088 2227 
L 1088 448 
Q 1088 243 1177 176 
Q 1267 109 1523 96 
L 1523 0 
L 102 0 
L 102 96 
Q 371 102 460 195 
Q 550 288 550 563 
L 550 2150 
Q 550 2387 499 2480 
Q 448 2573 326 2573 
Q 230 2573 122 2547 
L 122 2656 
Q 557 2778 1011 2944 
L 1062 2925 
L 1062 2451 
L 1075 2451 
Q 1363 2752 1584 2848 
Q 1805 2944 2054 2944 
Q 2560 2944 2733 2406 
Q 3232 2944 3776 2944 
Q 4518 2944 4518 1792 
L 4518 493 
Q 4518 282 4582 202 
Q 4646 122 4794 109 
L 4960 96 
L 4960 0 
z
" transform="scale(0.015625)"/>
       <path id="STIXGeneral-Regular-65" d="M 2611 1050 
L 2714 1005 
Q 2330 -64 1376 -64 
Q 813 -64 486 329 
Q 160 723 160 1389 
Q 160 2074 525 2509 
Q 890 2944 1485 2944 
Q 2061 2944 2374 2502 
Q 2560 2246 2592 1773 
L 621 1773 
Q 646 1370 700 1158 
Q 755 947 915 730 
Q 1184 378 1626 378 
Q 1939 378 2153 531 
Q 2368 685 2611 1050 
z
M 634 1978 
L 1939 1978 
Q 1882 2381 1750 2547 
Q 1619 2714 1312 2714 
Q 1043 2714 864 2525 
Q 685 2336 634 1978 
z
" transform="scale(0.015625)"/>
       <path id="STIXGeneral-Regular-74" d="M 1702 493 
L 1786 422 
Q 1478 -64 1011 -64 
Q 448 -64 448 749 
L 448 2675 
L 109 2675 
Q 83 2694 83 2720 
Q 83 2771 192 2842 
Q 435 2982 813 3526 
Q 826 3546 874 3606 
Q 922 3667 941 3706 
Q 986 3706 986 3622 
L 986 2880 
L 1632 2880 
L 1632 2675 
L 986 2675 
L 986 845 
Q 986 538 1062 403 
Q 1139 269 1318 269 
Q 1510 269 1702 493 
z
" transform="scale(0.015625)"/>
       <path id="STIXGeneral-Regular-53" d="M 3002 2963 
L 2842 2963 
Q 2733 3360 2579 3565 
Q 2189 4064 1651 4064 
Q 1357 4064 1181 3894 
Q 1005 3725 1005 3456 
Q 1005 3328 1069 3206 
Q 1133 3085 1206 2998 
Q 1280 2912 1465 2784 
Q 1651 2656 1766 2589 
Q 1882 2522 2150 2362 
Q 2669 2061 2905 1763 
Q 3142 1466 3142 1107 
Q 3142 576 2771 243 
Q 2400 -90 1837 -90 
Q 1421 -90 1082 58 
Q 915 128 781 128 
Q 704 128 653 70 
Q 602 13 602 -83 
L 461 -83 
L 275 1274 
L 416 1274 
Q 845 141 1734 141 
Q 2074 141 2285 342 
Q 2496 544 2496 858 
Q 2496 1158 2310 1363 
Q 2003 1696 1235 2106 
Q 454 2522 454 3206 
Q 454 3718 768 4022 
Q 1082 4326 1568 4326 
Q 1907 4326 2240 4186 
Q 2413 4109 2522 4109 
Q 2688 4109 2726 4326 
L 2861 4326 
L 3002 2963 
z
" transform="scale(0.015625)"/>
       <path id="STIXGeneral-Regular-70" d="M 1018 2931 
L 1018 2438 
Q 1421 2944 1939 2944 
Q 2406 2944 2707 2560 
Q 3008 2176 3008 1581 
Q 3008 883 2621 409 
Q 2234 -64 1664 -64 
Q 1466 -64 1328 -6 
Q 1190 51 1018 211 
L 1018 -794 
Q 1018 -1094 1120 -1180 
Q 1222 -1267 1581 -1274 
L 1581 -1389 
L 32 -1389 
L 32 -1280 
Q 314 -1254 397 -1171 
Q 480 -1088 480 -838 
L 480 2157 
Q 480 2381 429 2451 
Q 378 2522 218 2522 
Q 115 2522 58 2515 
L 58 2618 
Q 506 2752 979 2944 
L 1018 2931 
z
M 1018 2138 
L 1018 563 
Q 1018 422 1238 281 
Q 1459 141 1683 141 
Q 2029 141 2243 467 
Q 2458 794 2458 1325 
Q 2458 1888 2243 2224 
Q 2029 2560 1670 2560 
Q 1446 2560 1232 2419 
Q 1018 2278 1018 2138 
z
" transform="scale(0.015625)"/>
       <path id="STIXGeneral-Regular-73" d="M 998 1926 
L 1664 1523 
Q 1984 1331 2105 1164 
Q 2227 998 2227 736 
Q 2227 416 1961 176 
Q 1696 -64 1331 -64 
Q 1030 -64 864 -6 
Q 691 51 570 51 
Q 461 51 416 -26 
L 333 -26 
L 333 979 
L 435 979 
Q 538 512 730 294 
Q 922 77 1248 77 
Q 1485 77 1632 211 
Q 1779 346 1779 550 
Q 1779 845 1440 1030 
L 1094 1222 
Q 326 1651 326 2150 
Q 326 2522 566 2730 
Q 806 2938 1210 2938 
Q 1491 2938 1638 2867 
Q 1754 2816 1818 2816 
Q 1862 2816 1920 2880 
L 1990 2880 
L 2022 2010 
L 1926 2010 
Q 1818 2445 1654 2621 
Q 1491 2797 1203 2797 
Q 986 2797 854 2688 
Q 723 2579 723 2362 
Q 723 2253 796 2128 
Q 870 2003 998 1926 
z
" transform="scale(0.015625)"/>
      </defs>
      <use xlink:href="#STIXGeneral-Regular-54"/>
      <use xlink:href="#STIXGeneral-Regular-72" x="61.099991"/>
      <use xlink:href="#STIXGeneral-Regular-61" x="94.399979"/>
      <use xlink:href="#STIXGeneral-Regular-69" x="138.799973"/>
      <use xlink:href="#STIXGeneral-Regular-6e" x="166.59996"/>
      <use xlink:href="#STIXGeneral-Regular-69" x="216.599945"/>
      <use xlink:href="#STIXGeneral-Regular-6e" x="244.399933"/>
      <use xlink:href="#STIXGeneral-Regular-67" x="294.399918"/>
      <use xlink:href="#STIXGeneral-Regular-20" x="344.399902"/>
      <use xlink:href="#STIXGeneral-Regular-45" x="369.399887"/>
      <use xlink:href="#STIXGeneral-Regular-6e" x="430.499878"/>
      <use xlink:href="#STIXGeneral-Regular-76" x="480.499863"/>
      <use xlink:href="#STIXGeneral-Regular-69" x="530.499847"/>
      <use xlink:href="#STIXGeneral-Regular-72" x="558.299835"/>
      <use xlink:href="#STIXGeneral-Regular-6f" x="591.599823"/>
      <use xlink:href="#STIXGeneral-Regular-6e" x="641.599808"/>
      <use xlink:href="#STIXGeneral-Regular-6d" x="691.599792"/>
      <use xlink:href="#STIXGeneral-Regular-65" x="769.39978"/>
      <use xlink:href="#STIXGeneral-Regular-6e" x="813.799774"/>
      <use xlink:href="#STIXGeneral-Regular-74" x="863.799759"/>
      <use xlink:href="#STIXGeneral-Regular-20" x="891.599747"/>
      <use xlink:href="#STIXGeneral-Regular-53" x="916.599731"/>
      <use xlink:href="#STIXGeneral-Regular-74" x="972.199722"/>
      <use xlink:href="#STIXGeneral-Regular-65" x="999.99971"/>
      <use xlink:href="#STIXGeneral-Regular-70" x="1044.399704"/>
      <use xlink:href="#STIXGeneral-Regular-73" x="1094.399689"/>
     </g>
    </g>
    <g id="text_9">
     <!-- 1e8 -->
     <g transform="translate(490.806875 343.753562)scale(0.18 -0.18)">
      <defs>
       <path id="STIXGeneral-Regular-38" d="M 2848 992 
Q 2848 499 2505 204 
Q 2163 -90 1587 -90 
Q 1050 -90 704 204 
Q 358 499 358 954 
Q 358 1293 524 1533 
Q 691 1773 1190 2125 
Q 710 2522 553 2765 
Q 397 3008 397 3328 
Q 397 3782 745 4054 
Q 1094 4326 1638 4326 
Q 2106 4326 2410 4060 
Q 2714 3795 2714 3411 
Q 2714 3059 2531 2848 
Q 2349 2637 1856 2374 
Q 2432 1990 2640 1689 
Q 2848 1389 2848 992 
z
M 2272 3411 
Q 2272 3744 2086 3945 
Q 1901 4147 1574 4147 
Q 1248 4147 1059 3977 
Q 870 3808 870 3513 
Q 870 3219 1059 2979 
Q 1248 2739 1670 2490 
Q 1997 2682 2134 2896 
Q 2272 3110 2272 3411 
z
M 1734 1741 
L 1357 1997 
Q 1075 1766 960 1545 
Q 845 1325 845 1011 
Q 845 576 1065 333 
Q 1286 90 1658 90 
Q 1971 90 2166 285 
Q 2362 480 2362 794 
Q 2362 1082 2214 1299 
Q 2067 1517 1734 1741 
z
" transform="scale(0.015625)"/>
      </defs>
      <use xlink:href="#STIXGeneral-Regular-31"/>
      <use xlink:href="#STIXGeneral-Regular-65" x="49.999985"/>
      <use xlink:href="#STIXGeneral-Regular-38" x="94.399979"/>
     </g>
    </g>
   </g>
   <g id="matplotlib.axis_2">
    <g id="ytick_1">
     <g id="line2d_15">
      <path d="M 70.4 295.233175 
L 516.8 295.233175 
" clip-path="url(#p52fdacd944)" style="fill: none; stroke: #b0b0b0; stroke-width: 0.8; stroke-linecap: square"/>
     </g>
     <g id="line2d_16">
      <defs>
       <path id="meae6f35aca" d="M 0 0 
L -3.5 0 
" style="stroke: #000000; stroke-width: 0.8"/>
      </defs>
      <g>
       <use xlink:href="#meae6f35aca" x="70.4" y="295.233175" style="stroke: #000000; stroke-width: 0.8"/>
      </g>
     </g>
     <g id="text_10">
      <!-- 0 -->
      <g transform="translate(54.4 301.379894)scale(0.18 -0.18)">
       <use xlink:href="#STIXGeneral-Regular-30"/>
      </g>
     </g>
    </g>
    <g id="ytick_2">
     <g id="line2d_17">
      <path d="M 70.4 253.774893 
L 516.8 253.774893 
" clip-path="url(#p52fdacd944)" style="fill: none; stroke: #b0b0b0; stroke-width: 0.8; stroke-linecap: square"/>
     </g>
     <g id="line2d_18">
      <g>
       <use xlink:href="#meae6f35aca" x="70.4" y="253.774893" style="stroke: #000000; stroke-width: 0.8"/>
      </g>
     </g>
     <g id="text_11">
      <!-- 250 -->
      <g transform="translate(36.4 259.921612)scale(0.18 -0.18)">
       <use xlink:href="#STIXGeneral-Regular-32"/>
       <use xlink:href="#STIXGeneral-Regular-35" x="49.999985"/>
       <use xlink:href="#STIXGeneral-Regular-30" x="99.999969"/>
      </g>
     </g>
    </g>
    <g id="ytick_3">
     <g id="line2d_19">
      <path d="M 70.4 212.316611 
L 516.8 212.316611 
" clip-path="url(#p52fdacd944)" style="fill: none; stroke: #b0b0b0; stroke-width: 0.8; stroke-linecap: square"/>
     </g>
     <g id="line2d_20">
      <g>
       <use xlink:href="#meae6f35aca" x="70.4" y="212.316611" style="stroke: #000000; stroke-width: 0.8"/>
      </g>
     </g>
     <g id="text_12">
      <!-- 500 -->
      <g transform="translate(36.4 218.46333)scale(0.18 -0.18)">
       <use xlink:href="#STIXGeneral-Regular-35"/>
       <use xlink:href="#STIXGeneral-Regular-30" x="49.999985"/>
       <use xlink:href="#STIXGeneral-Regular-30" x="99.999969"/>
      </g>
     </g>
    </g>
    <g id="ytick_4">
     <g id="line2d_21">
      <path d="M 70.4 170.858329 
L 516.8 170.858329 
" clip-path="url(#p52fdacd944)" style="fill: none; stroke: #b0b0b0; stroke-width: 0.8; stroke-linecap: square"/>
     </g>
     <g id="line2d_22">
      <g>
       <use xlink:href="#meae6f35aca" x="70.4" y="170.858329" style="stroke: #000000; stroke-width: 0.8"/>
      </g>
     </g>
     <g id="text_13">
      <!-- 750 -->
      <g transform="translate(36.4 177.005048)scale(0.18 -0.18)">
       <defs>
        <path id="STIXGeneral-Regular-37" d="M 2874 4134 
L 1517 -51 
L 1101 -51 
L 2368 3763 
L 992 3763 
Q 717 3763 582 3667 
Q 448 3571 243 3238 
L 128 3296 
L 512 4237 
L 2874 4237 
L 2874 4134 
z
" transform="scale(0.015625)"/>
       </defs>
       <use xlink:href="#STIXGeneral-Regular-37"/>
       <use xlink:href="#STIXGeneral-Regular-35" x="49.999985"/>
       <use xlink:href="#STIXGeneral-Regular-30" x="99.999969"/>
      </g>
     </g>
    </g>
    <g id="ytick_5">
     <g id="line2d_23">
      <path d="M 70.4 129.400047 
L 516.8 129.400047 
" clip-path="url(#p52fdacd944)" style="fill: none; stroke: #b0b0b0; stroke-width: 0.8; stroke-linecap: square"/>
     </g>
     <g id="line2d_24">
      <g>
       <use xlink:href="#meae6f35aca" x="70.4" y="129.400047" style="stroke: #000000; stroke-width: 0.8"/>
      </g>
     </g>
     <g id="text_14">
      <!-- 1000 -->
      <g transform="translate(27.4 135.546766)scale(0.18 -0.18)">
       <use xlink:href="#STIXGeneral-Regular-31"/>
       <use xlink:href="#STIXGeneral-Regular-30" x="49.999985"/>
       <use xlink:href="#STIXGeneral-Regular-30" x="99.999969"/>
       <use xlink:href="#STIXGeneral-Regular-30" x="149.999954"/>
      </g>
     </g>
    </g>
    <g id="ytick_6">
     <g id="line2d_25">
      <path d="M 70.4 87.941765 
L 516.8 87.941765 
" clip-path="url(#p52fdacd944)" style="fill: none; stroke: #b0b0b0; stroke-width: 0.8; stroke-linecap: square"/>
     </g>
     <g id="line2d_26">
      <g>
       <use xlink:href="#meae6f35aca" x="70.4" y="87.941765" style="stroke: #000000; stroke-width: 0.8"/>
      </g>
     </g>
     <g id="text_15">
      <!-- 1250 -->
      <g transform="translate(27.4 94.088484)scale(0.18 -0.18)">
       <use xlink:href="#STIXGeneral-Regular-31"/>
       <use xlink:href="#STIXGeneral-Regular-32" x="49.999985"/>
       <use xlink:href="#STIXGeneral-Regular-35" x="99.999969"/>
       <use xlink:href="#STIXGeneral-Regular-30" x="149.999954"/>
      </g>
     </g>
    </g>
    <g id="ytick_7">
     <g id="line2d_27">
      <path d="M 70.4 46.483483 
L 516.8 46.483483 
" clip-path="url(#p52fdacd944)" style="fill: none; stroke: #b0b0b0; stroke-width: 0.8; stroke-linecap: square"/>
     </g>
     <g id="line2d_28">
      <g>
       <use xlink:href="#meae6f35aca" x="70.4" y="46.483483" style="stroke: #000000; stroke-width: 0.8"/>
      </g>
     </g>
     <g id="text_16">
      <!-- 1500 -->
      <g transform="translate(27.4 52.630202)scale(0.18 -0.18)">
       <use xlink:href="#STIXGeneral-Regular-31"/>
       <use xlink:href="#STIXGeneral-Regular-35" x="49.999985"/>
       <use xlink:href="#STIXGeneral-Regular-30" x="99.999969"/>
       <use xlink:href="#STIXGeneral-Regular-30" x="149.999954"/>
      </g>
     </g>
    </g>
    <g id="text_17">
     <!-- Average Test Return -->
     <g transform="translate(19.476562 241.641375)rotate(-90)scale(0.18 -0.18)">
      <defs>
       <path id="STIXGeneral-Regular-41" d="M 4525 0 
L 2893 0 
L 2893 122 
Q 3149 122 3245 179 
Q 3334 224 3334 333 
Q 3334 499 3213 781 
L 2950 1382 
L 1274 1382 
L 979 653 
Q 922 506 922 384 
Q 922 237 1027 179 
Q 1133 122 1370 122 
L 1370 0 
L 96 0 
L 96 122 
Q 365 147 486 316 
Q 608 486 902 1190 
L 2221 4314 
L 2349 4314 
L 3923 710 
Q 4064 378 4176 262 
Q 4288 147 4525 122 
L 4525 0 
z
M 2861 1645 
L 2118 3405 
L 1382 1645 
L 2861 1645 
z
" transform="scale(0.015625)"/>
       <path id="STIXGeneral-Regular-52" d="M 4224 0 
L 3187 0 
L 1664 1971 
L 1306 1958 
L 1306 717 
Q 1306 352 1405 249 
Q 1504 147 1875 122 
L 1875 0 
L 109 0 
L 109 122 
Q 474 154 563 262 
Q 653 371 653 794 
L 653 3526 
Q 653 3885 563 3987 
Q 474 4090 109 4115 
L 109 4237 
L 1850 4237 
Q 2726 4237 3187 3859 
Q 3501 3603 3501 3091 
Q 3501 2221 2342 2042 
L 3622 422 
Q 3757 256 3878 198 
Q 4000 141 4224 122 
L 4224 0 
z
M 1306 3731 
L 1306 2195 
Q 1766 2202 1990 2246 
Q 2214 2291 2438 2413 
Q 2803 2618 2803 3142 
Q 2803 4000 1632 4000 
Q 1459 4000 1382 3945 
Q 1306 3891 1306 3731 
z
" transform="scale(0.015625)"/>
       <path id="STIXGeneral-Regular-75" d="M 3072 320 
L 3072 230 
Q 2573 96 2195 -58 
L 2163 -38 
L 2163 486 
L 2150 486 
Q 1747 -64 1235 -64 
Q 870 -64 662 160 
Q 454 384 454 755 
L 454 2362 
Q 454 2598 371 2688 
Q 288 2778 58 2790 
L 58 2880 
L 992 2880 
L 992 813 
Q 992 595 1123 451 
Q 1254 307 1446 307 
Q 1760 307 1984 506 
Q 2067 582 2099 649 
Q 2131 717 2131 877 
L 2131 2355 
Q 2131 2605 2041 2678 
Q 1952 2752 1658 2771 
L 1658 2880 
L 2669 2880 
L 2669 685 
Q 2669 461 2742 390 
Q 2816 320 3034 320 
L 3072 320 
z
" transform="scale(0.015625)"/>
      </defs>
      <use xlink:href="#STIXGeneral-Regular-41"/>
      <use xlink:href="#STIXGeneral-Regular-76" x="72.199982"/>
      <use xlink:href="#STIXGeneral-Regular-65" x="122.199966"/>
      <use xlink:href="#STIXGeneral-Regular-72" x="166.59996"/>
      <use xlink:href="#STIXGeneral-Regular-61" x="199.899948"/>
      <use xlink:href="#STIXGeneral-Regular-67" x="244.299942"/>
      <use xlink:href="#STIXGeneral-Regular-65" x="294.299927"/>
      <use xlink:href="#STIXGeneral-Regular-20" x="338.699921"/>
      <use xlink:href="#STIXGeneral-Regular-54" x="363.699905"/>
      <use xlink:href="#STIXGeneral-Regular-65" x="424.799896"/>
      <use xlink:href="#STIXGeneral-Regular-73" x="469.19989"/>
      <use xlink:href="#STIXGeneral-Regular-74" x="508.099884"/>
      <use xlink:href="#STIXGeneral-Regular-20" x="535.899872"/>
      <use xlink:href="#STIXGeneral-Regular-52" x="560.899857"/>
      <use xlink:href="#STIXGeneral-Regular-65" x="627.599854"/>
      <use xlink:href="#STIXGeneral-Regular-74" x="671.999847"/>
      <use xlink:href="#STIXGeneral-Regular-75" x="699.799835"/>
      <use xlink:href="#STIXGeneral-Regular-72" x="749.79982"/>
      <use xlink:href="#STIXGeneral-Regular-6e" x="783.099808"/>
     </g>
    </g>
   </g>
   <g id="line2d_29">
    <path d="M 90.690909 292.660125 
L 108.10225 292.63664 
L 110.780918 292.482464 
L 114.79892 292.523363 
L 117.477588 292.577612 
L 125.513591 292.438507 
L 129.531593 292.521525 
L 141.585599 292.487533 
L 142.924932 292.403812 
L 146.942934 292.461508 
L 152.30027 292.163559 
L 156.318272 292.28449 
L 161.675608 292.180762 
L 164.354275 292.237122 
L 169.711611 292.117708 
L 175.068947 292.048116 
L 180.426283 292.027263 
L 184.444284 291.922226 
L 185.783618 291.921198 
L 187.122952 291.803766 
L 191.140954 291.842147 
L 193.819622 291.746917 
L 195.158956 291.883526 
L 199.176958 291.798276 
L 207.212961 291.937362 
L 209.891629 291.905395 
L 212.570297 291.691952 
L 220.606301 291.696026 
L 225.963636 291.641547 
L 228.642304 291.650214 
L 231.320972 291.699877 
L 235.338974 291.805067 
L 236.678308 291.701457 
L 238.017642 291.797306 
L 243.374977 291.772974 
L 246.053645 291.849718 
L 248.732313 291.989927 
L 255.428983 291.876701 
L 256.768317 291.872032 
L 260.786319 291.575654 
L 268.822322 291.574701 
L 271.50099 291.674782 
L 276.858326 291.70156 
L 280.876328 291.486793 
L 282.215662 291.574993 
L 284.894329 291.514398 
L 288.912331 291.539802 
L 290.251665 291.437588 
L 291.590999 291.524859 
L 292.930333 291.440127 
L 298.287669 291.656363 
L 299.627003 291.751521 
L 300.966337 291.678852 
L 302.305671 291.756632 
L 309.00234 291.093178 
L 314.359676 291.097418 
L 317.038344 290.934688 
L 321.056346 290.61649 
L 322.39568 290.754704 
L 330.431683 290.762954 
L 333.110351 290.693854 
L 334.449685 290.91022 
L 338.467687 290.992661 
L 341.146355 291.161372 
L 343.825023 291.401602 
L 346.50369 291.176463 
L 349.182358 291.498321 
L 351.861026 291.400717 
L 367.933033 291.486315 
L 369.272367 291.442932 
L 371.951035 291.673495 
L 375.969037 291.695154 
L 378.647705 291.634942 
L 386.683708 291.343166 
L 404.09505 291.448819 
L 406.773717 291.539462 
L 409.452385 291.644111 
L 412.131053 291.36181 
L 414.809721 291.220127 
L 416.149055 291.276012 
L 420.167057 291.011292 
L 432.221062 291.039918 
L 437.578398 291.320832 
L 446.953735 291.257165 
L 449.632403 291.509854 
L 453.650405 291.766409 
L 457.668407 291.71823 
L 461.686409 291.648817 
L 464.365077 291.721806 
L 472.40108 291.789029 
L 475.079748 291.646975 
L 479.09775 291.698033 
L 485.794419 291.215122 
L 488.473087 291.224109 
L 491.151755 291.287795 
L 492.491089 291.185706 
L 496.509091 291.246238 
L 496.509091 291.246238 
" clip-path="url(#p52fdacd944)" style="fill: none; stroke: #1f77b4; stroke-width: 1.5; stroke-linecap: square"/>
   </g>
   <g id="line2d_30">
    <path d="M 90.690909 256.499806 
L 93.369577 256.429692 
L 94.708911 256.53872 
L 96.048245 256.832784 
L 97.387579 256.849037 
L 101.405581 256.589462 
L 104.084248 256.645305 
L 105.423582 256.692538 
L 108.10225 256.497178 
L 109.441584 256.563635 
L 110.780918 256.745783 
L 113.459586 256.610041 
L 114.79892 256.717753 
L 116.138254 257.06051 
L 117.477588 256.841868 
L 118.816922 256.857396 
L 120.156256 256.52106 
L 121.49559 257.094688 
L 122.834923 256.858219 
L 124.174257 256.787443 
L 125.513591 257.017928 
L 128.192259 258.048593 
L 129.531593 258.107228 
L 130.870927 257.783463 
L 132.210261 257.576615 
L 133.549595 257.512975 
L 134.888929 258.028057 
L 137.567597 258.388021 
L 138.906931 258.541079 
L 140.246265 258.41812 
L 141.585599 259.381371 
L 142.924932 259.481545 
L 144.264266 259.224536 
L 145.6036 259.208484 
L 146.942934 258.879453 
L 148.282268 258.782643 
L 149.621602 258.385314 
L 150.960936 258.625129 
L 152.30027 258.677417 
L 153.639604 258.075479 
L 154.978938 258.489864 
L 156.318272 258.269388 
L 157.657606 259.11734 
L 158.99694 258.966228 
L 160.336274 258.942192 
L 161.675608 259.220125 
L 165.693609 258.795784 
L 169.711611 258.980318 
L 171.050945 258.411933 
L 172.390279 259.167068 
L 173.729613 258.85168 
L 176.408281 259.18294 
L 177.747615 258.999191 
L 179.086949 259.233766 
L 180.426283 259.591466 
L 181.765617 259.623626 
L 184.444284 259.124164 
L 185.783618 259.462426 
L 187.122952 259.058238 
L 188.462286 259.321216 
L 191.140954 258.812462 
L 195.158956 258.461511 
L 196.49829 258.566827 
L 197.837624 258.216591 
L 200.516292 257.840606 
L 201.855626 258.156217 
L 203.194959 258.012661 
L 204.534293 258.879142 
L 205.873627 258.189002 
L 207.212961 258.175994 
L 208.552295 257.59993 
L 209.891629 257.396562 
L 212.570297 257.699549 
L 213.909631 258.098735 
L 215.248965 257.874667 
L 217.927633 257.788704 
L 221.945635 257.401084 
L 223.284968 257.195149 
L 225.963636 257.488263 
L 227.30297 257.498543 
L 228.642304 257.268681 
L 229.981638 257.644512 
L 231.320972 257.49547 
L 232.660306 257.833375 
L 233.99964 257.839561 
L 235.338974 257.647421 
L 236.678308 257.579835 
L 238.017642 257.692989 
L 242.035644 257.19977 
L 246.053645 257.035653 
L 247.392979 257.169328 
L 255.428983 257.089549 
L 256.768317 257.211635 
L 259.446985 257.012418 
L 260.786319 257.1097 
L 264.80432 256.851866 
L 267.482988 256.648264 
L 276.858326 256.626761 
L 279.536994 256.623812 
L 280.876328 256.711618 
L 284.894329 256.715417 
L 287.572997 256.778345 
L 288.912331 256.651506 
L 291.590999 256.722751 
L 292.930333 256.813016 
L 295.609001 256.679626 
L 303.645005 256.704092 
L 310.341674 256.433867 
L 311.681008 256.29863 
L 321.056346 256.280439 
L 322.39568 256.559844 
L 325.074347 256.918174 
L 343.825023 256.882324 
L 345.164356 257.058422 
L 353.20036 256.799287 
L 354.539694 257.035862 
L 359.89703 256.917631 
L 361.236364 257.115611 
L 362.575698 257.020527 
L 365.254365 257.046159 
L 367.933033 256.915792 
L 370.611701 257.021247 
L 373.290369 257.484528 
L 375.969037 257.372679 
L 378.647705 257.598233 
L 379.987039 257.299445 
L 381.326373 257.691294 
L 384.005041 258.23097 
L 388.023042 257.811123 
L 389.362376 257.520735 
L 390.70171 257.44593 
L 392.041044 257.524978 
L 393.380378 257.344759 
L 394.719712 257.353128 
L 397.39838 257.06903 
L 398.737714 257.260528 
L 400.077048 257.632941 
L 401.416382 257.360282 
L 402.755716 257.351935 
L 404.09505 257.557528 
L 406.773717 257.285197 
L 408.113051 257.365583 
L 409.452385 257.306011 
L 410.791719 257.574421 
L 412.131053 257.477919 
L 413.470387 257.171976 
L 414.809721 257.181892 
L 416.149055 257.077327 
L 417.488389 257.221525 
L 418.827723 257.253074 
L 421.506391 256.65123 
L 424.185059 257.049256 
L 425.524392 257.17451 
L 428.20306 257.086302 
L 429.542394 256.94382 
L 432.221062 257.321973 
L 433.560396 257.233381 
L 436.239064 257.445852 
L 437.578398 257.982493 
L 438.917732 257.941128 
L 441.5964 257.045711 
L 442.935734 256.761884 
L 444.275068 257.065703 
L 445.614401 257.034031 
L 446.953735 257.344926 
L 448.293069 257.485531 
L 449.632403 257.438529 
L 450.971737 257.898288 
L 452.311071 258.007443 
L 453.650405 258.401437 
L 456.329073 258.156316 
L 457.668407 257.66313 
L 461.686409 258.322429 
L 463.025743 258.040701 
L 464.365077 258.150032 
L 467.043744 258.741406 
L 468.383078 258.422104 
L 471.061746 258.237863 
L 472.40108 257.95268 
L 473.740414 257.992717 
L 475.079748 258.226999 
L 476.419082 257.949858 
L 477.758416 257.87964 
L 479.09775 257.949745 
L 480.437084 257.843451 
L 481.776418 258.796226 
L 483.115752 258.818512 
L 484.455086 258.325648 
L 485.794419 259.115955 
L 487.133753 258.482018 
L 489.812421 258.714024 
L 491.151755 258.948969 
L 492.491089 258.827375 
L 493.830423 258.92351 
L 495.169757 259.955939 
L 496.509091 259.229367 
L 496.509091 259.229367 
" clip-path="url(#p52fdacd944)" style="fill: none; stroke: #ff7f0e; stroke-width: 1.5; stroke-linecap: square"/>
   </g>
   <g id="line2d_31">
    <path d="M 90.690909 290.371705 
L 93.369577 290.073625 
L 97.387579 289.706528 
L 98.726913 289.92546 
L 100.066247 288.427722 
L 101.405581 289.208131 
L 104.084248 289.773265 
L 106.762916 289.995235 
L 110.780918 290.038755 
L 114.79892 289.956047 
L 116.138254 290.063282 
L 117.477588 289.811683 
L 118.816922 289.323502 
L 120.156256 289.510996 
L 121.49559 289.547857 
L 122.834923 289.800971 
L 128.192259 289.716777 
L 130.870927 289.951198 
L 133.549595 289.709042 
L 137.567597 289.957964 
L 140.246265 289.476792 
L 141.585599 289.131907 
L 144.264266 289.515391 
L 145.6036 289.773279 
L 146.942934 289.64945 
L 153.639604 289.662133 
L 154.978938 289.580171 
L 156.318272 289.752439 
L 157.657606 289.661041 
L 158.99694 289.438924 
L 160.336274 288.777645 
L 161.675608 289.446925 
L 163.014941 289.361141 
L 165.693609 289.636797 
L 169.711611 289.357906 
L 173.729613 289.272566 
L 175.068947 288.741728 
L 176.408281 288.821906 
L 177.747615 289.18439 
L 180.426283 289.272982 
L 181.765617 288.821923 
L 183.10495 289.112006 
L 187.122952 289.388479 
L 188.462286 289.373979 
L 189.80162 289.726117 
L 191.140954 289.600109 
L 192.480288 289.323804 
L 193.819622 289.346722 
L 195.158956 287.151225 
L 196.49829 288.420945 
L 200.516292 288.915609 
L 201.855626 288.511599 
L 205.873627 289.412568 
L 207.212961 289.509425 
L 208.552295 289.438048 
L 209.891629 289.252417 
L 213.909631 289.406806 
L 215.248965 289.642616 
L 216.588299 289.454395 
L 217.927633 288.795978 
L 220.606301 289.05654 
L 221.945635 289.363309 
L 224.624302 289.31357 
L 225.963636 289.040812 
L 227.30297 289.45403 
L 228.642304 289.586139 
L 229.981638 289.31247 
L 231.320972 289.47879 
L 232.660306 289.436155 
L 233.99964 289.590408 
L 236.678308 289.617708 
L 238.017642 290.0576 
L 239.356976 289.603875 
L 240.69631 289.569578 
L 242.035644 289.661887 
L 243.374977 289.495852 
L 244.714311 288.546939 
L 246.053645 288.832178 
L 247.392979 288.678192 
L 248.732313 288.338815 
L 250.071647 288.176245 
L 252.750315 287.049588 
L 254.089649 287.805178 
L 255.428983 287.978743 
L 256.768317 288.566269 
L 258.107651 288.669057 
L 259.446985 287.965015 
L 260.786319 288.414148 
L 262.125653 288.556074 
L 264.80432 289.204311 
L 266.143654 288.201314 
L 267.482988 288.632102 
L 268.822322 287.279995 
L 270.161656 286.466415 
L 271.50099 287.515884 
L 272.840324 287.416278 
L 274.179658 288.28187 
L 275.518992 288.060733 
L 276.858326 288.203611 
L 278.19766 287.282386 
L 279.536994 286.716894 
L 280.876328 287.70056 
L 282.215662 285.045722 
L 283.554995 285.833723 
L 284.894329 287.320716 
L 286.233663 286.321548 
L 287.572997 286.043892 
L 288.912331 286.348902 
L 290.251665 286.508696 
L 291.590999 287.651512 
L 292.930333 287.35985 
L 294.269667 288.343613 
L 296.948335 288.89667 
L 298.287669 288.38281 
L 299.627003 288.892384 
L 300.966337 288.458461 
L 302.305671 286.603572 
L 303.645005 287.708131 
L 304.984338 288.409196 
L 307.663006 288.78292 
L 310.341674 288.241538 
L 311.681008 288.404245 
L 313.020342 288.311128 
L 314.359676 287.93007 
L 315.69901 288.085005 
L 318.377678 288.06829 
L 319.717012 287.652487 
L 321.056346 288.373895 
L 322.39568 288.444125 
L 323.735014 287.96249 
L 325.074347 288.364 
L 326.413681 287.094423 
L 327.753015 286.795506 
L 329.092349 287.674118 
L 330.431683 287.570151 
L 331.771017 286.370411 
L 334.449685 286.264553 
L 335.789019 286.976925 
L 337.128353 287.08774 
L 338.467687 287.753489 
L 341.146355 288.325252 
L 342.485689 286.289578 
L 343.825023 286.675682 
L 346.50369 288.62628 
L 347.843024 286.898058 
L 349.182358 287.394645 
L 350.521692 286.099116 
L 351.861026 287.167082 
L 353.20036 286.477716 
L 355.879028 286.123737 
L 357.218362 286.428589 
L 358.557696 286.061167 
L 359.89703 285.042646 
L 361.236364 285.163484 
L 362.575698 284.787275 
L 363.915032 284.913653 
L 365.254365 285.545319 
L 366.593699 285.436678 
L 367.933033 284.807408 
L 369.272367 285.080296 
L 370.611701 283.467498 
L 373.290369 286.444189 
L 374.629703 286.436939 
L 375.969037 287.745944 
L 377.308371 286.657055 
L 378.647705 286.260725 
L 379.987039 286.518425 
L 381.326373 285.904902 
L 382.665707 285.977024 
L 384.005041 287.024255 
L 385.344374 287.754098 
L 386.683708 287.224061 
L 388.023042 288.027183 
L 390.70171 288.682846 
L 392.041044 289.201094 
L 393.380378 286.547317 
L 394.719712 287.053567 
L 396.059046 287.161645 
L 397.39838 287.717959 
L 398.737714 288.526849 
L 401.416382 289.3944 
L 404.09505 288.234241 
L 405.434383 288.081627 
L 406.773717 288.041108 
L 409.452385 288.697774 
L 410.791719 289.320791 
L 412.131053 289.108162 
L 413.470387 289.273873 
L 414.809721 289.131121 
L 416.149055 288.625672 
L 417.488389 288.474395 
L 418.827723 288.201717 
L 420.167057 287.638266 
L 421.506391 288.34217 
L 422.845725 287.502491 
L 424.185059 287.982242 
L 425.524392 287.291742 
L 426.863726 288.341962 
L 428.20306 288.668303 
L 429.542394 288.741208 
L 432.221062 287.766636 
L 433.560396 287.855765 
L 434.89973 286.267471 
L 436.239064 287.448499 
L 437.578398 288.19273 
L 438.917732 288.767287 
L 441.5964 288.765787 
L 442.935734 289.199011 
L 444.275068 288.957912 
L 445.614401 289.019569 
L 446.953735 288.492125 
L 448.293069 288.583642 
L 449.632403 287.903039 
L 450.971737 286.500153 
L 453.650405 287.841538 
L 454.989739 288.058792 
L 456.329073 288.132324 
L 457.668407 288.374295 
L 459.007741 289.066103 
L 460.347075 287.980689 
L 461.686409 288.690883 
L 463.025743 288.992068 
L 464.365077 288.895682 
L 467.043744 288.917231 
L 468.383078 288.628914 
L 469.722412 287.721136 
L 471.061746 288.285916 
L 472.40108 288.41936 
L 473.740414 288.766763 
L 475.079748 288.200195 
L 476.419082 287.823186 
L 477.758416 288.218611 
L 479.09775 287.328704 
L 480.437084 287.202034 
L 481.776418 287.888689 
L 483.115752 288.361321 
L 485.794419 289.036365 
L 487.133753 289.456369 
L 488.473087 289.644493 
L 489.812421 289.683679 
L 492.491089 288.882952 
L 493.830423 286.471493 
L 495.169757 287.068246 
L 496.509091 288.039344 
L 496.509091 288.039344 
" clip-path="url(#p52fdacd944)" style="fill: none; stroke: #2ca02c; stroke-width: 1.5; stroke-linecap: square"/>
   </g>
   <g id="line2d_32">
    <path d="M 90.690909 177.418889 
L 92.030243 171.48893 
L 93.369577 165.016627 
L 94.708911 159.241412 
L 96.048245 161.178058 
L 97.387579 167.698168 
L 98.726913 166.579361 
L 100.066247 164.422121 
L 101.405581 165.612201 
L 102.744914 166.041122 
L 104.084248 164.690319 
L 105.423582 164.862989 
L 106.762916 160.8222 
L 108.10225 159.384831 
L 109.441584 157.75148 
L 110.780918 159.464067 
L 112.120252 160.230209 
L 113.459586 158.877334 
L 114.79892 159.578727 
L 116.138254 155.256974 
L 117.477588 149.480359 
L 118.816922 148.416732 
L 120.156256 150.302174 
L 121.49559 151.738373 
L 122.834923 148.570695 
L 124.174257 146.896773 
L 125.513591 151.471757 
L 126.852925 150.605549 
L 128.192259 145.071336 
L 129.531593 144.435333 
L 130.870927 146.631901 
L 132.210261 150.776237 
L 133.549595 156.317261 
L 134.888929 147.555041 
L 136.228263 153.236987 
L 137.567597 146.048082 
L 138.906931 140.070719 
L 140.246265 141.229542 
L 141.585599 143.73702 
L 142.924932 131.758832 
L 144.264266 139.295767 
L 145.6036 130.420754 
L 146.942934 134.711905 
L 148.282268 132.706378 
L 149.621602 130.123988 
L 150.960936 130.70691 
L 152.30027 127.572139 
L 153.639604 125.148675 
L 154.978938 124.898895 
L 156.318272 124.418357 
L 157.657606 122.100529 
L 158.99694 123.510328 
L 160.336274 129.621307 
L 161.675608 118.621607 
L 163.014941 117.508693 
L 164.354275 116.928493 
L 165.693609 103.535953 
L 167.032943 104.036204 
L 168.372277 94.604914 
L 169.711611 89.201804 
L 171.050945 89.70729 
L 172.390279 89.17318 
L 173.729613 90.353731 
L 175.068947 93.998158 
L 176.408281 94.387711 
L 177.747615 85.517812 
L 179.086949 84.738598 
L 180.426283 88.914058 
L 181.765617 96.687629 
L 183.10495 101.491612 
L 184.444284 96.453794 
L 185.783618 88.071988 
L 187.122952 83.220852 
L 188.462286 90.142843 
L 189.80162 84.530694 
L 191.140954 82.966483 
L 192.480288 88.594876 
L 193.819622 92.58862 
L 195.158956 86.897221 
L 196.49829 88.380598 
L 197.837624 81.409898 
L 199.176958 81.049066 
L 200.516292 84.010514 
L 201.855626 75.703376 
L 203.194959 84.782301 
L 204.534293 87.617024 
L 205.873627 78.131489 
L 208.552295 88.642168 
L 211.230963 81.530908 
L 212.570297 80.63482 
L 213.909631 73.832951 
L 215.248965 71.178512 
L 217.927633 69.488674 
L 219.266967 70.073457 
L 220.606301 65.649676 
L 221.945635 53.304737 
L 223.284968 54.47252 
L 224.624302 57.890943 
L 225.963636 55.68534 
L 227.30297 47.993856 
L 228.642304 53.453345 
L 229.981638 54.101239 
L 231.320972 52.802753 
L 232.660306 50.676802 
L 233.99964 57.126301 
L 235.338974 58.059888 
L 236.678308 52.072774 
L 238.017642 55.28091 
L 239.356976 53.434004 
L 240.69631 53.914659 
L 242.035644 53.184563 
L 243.374977 58.257073 
L 244.714311 51.055978 
L 246.053645 50.42731 
L 247.392979 51.350694 
L 250.071647 40.660125 
L 251.410981 46.113382 
L 254.089649 50.278359 
L 255.428983 50.9982 
L 256.768317 56.148009 
L 258.107651 50.096351 
L 259.446985 60.425267 
L 260.786319 61.564317 
L 262.125653 63.663548 
L 263.464986 60.567367 
L 264.80432 55.597049 
L 266.143654 56.991379 
L 267.482988 54.50533 
L 268.822322 47.900729 
L 270.161656 54.25023 
L 271.50099 57.334435 
L 272.840324 50.806474 
L 274.179658 49.393251 
L 275.518992 54.896791 
L 276.858326 52.658858 
L 278.19766 54.26332 
L 279.536994 47.527413 
L 280.876328 50.461071 
L 282.215662 48.492377 
L 283.554995 50.870596 
L 284.894329 48.116315 
L 286.233663 52.724068 
L 287.572997 52.071691 
L 288.912331 50.254869 
L 290.251665 51.949639 
L 291.590999 54.655424 
L 292.930333 63.970532 
L 294.269667 57.764699 
L 296.948335 60.174649 
L 298.287669 57.245907 
L 299.627003 56.753537 
L 300.966337 58.950089 
L 302.305671 59.507884 
L 303.645005 51.058815 
L 304.984338 52.132397 
L 306.323672 52.714351 
L 307.663006 55.053003 
L 309.00234 56.503717 
L 310.341674 52.743134 
L 311.681008 54.87797 
L 313.020342 50.84962 
L 314.359676 52.072469 
L 315.69901 60.488576 
L 317.038344 65.035024 
L 318.377678 66.996206 
L 319.717012 69.367019 
L 321.056346 67.390357 
L 322.39568 58.849717 
L 323.735014 55.576616 
L 325.074347 53.544907 
L 326.413681 58.431732 
L 327.753015 54.190734 
L 329.092349 54.02278 
L 330.431683 55.815112 
L 331.771017 59.221739 
L 333.110351 59.117471 
L 334.449685 59.644833 
L 337.128353 63.836072 
L 338.467687 55.971391 
L 339.807021 52.918315 
L 341.146355 51.048857 
L 342.485689 48.309338 
L 343.825023 48.312767 
L 345.164356 47.38862 
L 346.50369 44.110866 
L 347.843024 41.796984 
L 349.182358 51.357374 
L 350.521692 48.167535 
L 351.861026 45.507293 
L 353.20036 53.711189 
L 354.539694 56.906928 
L 355.879028 55.907149 
L 357.218362 56.116673 
L 358.557696 52.128431 
L 359.89703 58.374331 
L 361.236364 51.477303 
L 362.575698 52.967882 
L 363.915032 50.295287 
L 365.254365 48.565857 
L 366.593699 49.758954 
L 367.933033 55.21202 
L 369.272367 57.11653 
L 370.611701 58.659001 
L 371.951035 62.237797 
L 373.290369 58.127336 
L 374.629703 69.42235 
L 375.969037 67.344081 
L 377.308371 66.304993 
L 378.647705 71.318628 
L 379.987039 70.125838 
L 381.326373 70.823908 
L 382.665707 73.454598 
L 384.005041 65.743676 
L 385.344374 62.63976 
L 386.683708 59.84961 
L 388.023042 61.87862 
L 389.362376 72.849208 
L 390.70171 75.977536 
L 392.041044 65.035996 
L 393.380378 58.593325 
L 394.719712 64.644997 
L 396.059046 71.954063 
L 397.39838 71.951677 
L 398.737714 69.440368 
L 400.077048 73.025477 
L 401.416382 86.619312 
L 402.755716 79.681746 
L 404.09505 70.639744 
L 405.434383 70.531965 
L 406.773717 65.622897 
L 408.113051 67.115865 
L 409.452385 71.439598 
L 410.791719 69.088374 
L 412.131053 68.629108 
L 413.470387 71.154201 
L 414.809721 74.982167 
L 416.149055 76.356282 
L 417.488389 78.452418 
L 418.827723 79.767664 
L 420.167057 74.064801 
L 421.506391 80.890453 
L 422.845725 84.317127 
L 424.185059 84.969647 
L 425.524392 81.45702 
L 426.863726 85.836037 
L 428.20306 87.743644 
L 429.542394 79.621351 
L 430.881728 78.238212 
L 432.221062 71.059989 
L 433.560396 76.087735 
L 434.89973 73.947183 
L 436.239064 80.642049 
L 437.578398 82.169771 
L 440.257066 76.064542 
L 441.5964 77.129256 
L 442.935734 71.272899 
L 444.275068 69.061814 
L 445.614401 68.755879 
L 446.953735 71.290418 
L 448.293069 76.383445 
L 449.632403 76.410199 
L 450.971737 78.245858 
L 453.650405 89.948214 
L 454.989739 96.631203 
L 456.329073 100.749662 
L 457.668407 99.025831 
L 459.007741 94.984714 
L 460.347075 94.43191 
L 463.025743 112.503481 
L 464.365077 108.305307 
L 465.70441 112.338771 
L 467.043744 113.951133 
L 468.383078 101.958562 
L 469.722412 100.576426 
L 471.061746 105.873958 
L 472.40108 103.200778 
L 473.740414 100.133271 
L 475.079748 92.817173 
L 476.419082 101.253742 
L 477.758416 97.007644 
L 479.09775 96.969304 
L 480.437084 100.305514 
L 481.776418 96.684518 
L 483.115752 99.311355 
L 484.455086 107.566614 
L 485.794419 100.766881 
L 487.133753 97.574685 
L 488.473087 97.376785 
L 489.812421 104.563578 
L 491.151755 99.01391 
L 492.491089 103.220359 
L 493.830423 99.132555 
L 495.169757 92.049622 
L 496.509091 92.885288 
L 496.509091 92.885288 
" clip-path="url(#p52fdacd944)" style="fill: none; stroke: #d62728; stroke-width: 1.5; stroke-linecap: square"/>
   </g>
   <g id="line2d_33">
    <path d="M 90.690909 176.379193 
L 92.030243 175.548182 
L 93.369577 178.581063 
L 94.708911 175.650543 
L 96.048245 177.35648 
L 97.387579 175.844864 
L 98.726913 175.951581 
L 100.066247 177.218935 
L 101.405581 176.800182 
L 102.744914 173.999805 
L 104.084248 173.055872 
L 105.423582 172.828608 
L 106.762916 175.225112 
L 108.10225 175.581961 
L 109.441584 174.584412 
L 110.780918 170.900362 
L 112.120252 172.082543 
L 114.79892 173.290763 
L 116.138254 169.920663 
L 117.477588 172.147692 
L 118.816922 170.204632 
L 120.156256 173.475703 
L 122.834923 177.09788 
L 124.174257 177.422077 
L 125.513591 174.548723 
L 126.852925 176.488472 
L 128.192259 174.788948 
L 129.531593 171.914623 
L 130.870927 170.602586 
L 132.210261 172.294671 
L 133.549595 173.046957 
L 134.888929 175.359716 
L 136.228263 175.014736 
L 137.567597 174.457939 
L 138.906931 176.981555 
L 140.246265 174.424194 
L 142.924932 177.839672 
L 144.264266 178.836284 
L 145.6036 180.025198 
L 146.942934 180.4282 
L 148.282268 181.882251 
L 149.621602 179.462611 
L 150.960936 179.064138 
L 152.30027 179.251954 
L 153.639604 179.591793 
L 154.978938 180.666515 
L 156.318272 178.642609 
L 157.657606 183.049923 
L 158.99694 181.704365 
L 160.336274 183.562907 
L 161.675608 182.828871 
L 163.014941 183.903932 
L 164.354275 185.968575 
L 165.693609 184.464632 
L 167.032943 188.301608 
L 168.372277 190.090354 
L 169.711611 190.136449 
L 171.050945 186.803633 
L 172.390279 187.562806 
L 173.729613 190.431286 
L 175.068947 190.588863 
L 176.408281 190.591161 
L 177.747615 191.10597 
L 179.086949 191.272403 
L 180.426283 187.065643 
L 181.765617 189.540641 
L 183.10495 189.248283 
L 184.444284 187.823196 
L 185.783618 188.348417 
L 187.122952 187.475689 
L 188.462286 188.134565 
L 189.80162 187.915 
L 191.140954 189.30963 
L 192.480288 189.777349 
L 193.819622 188.722808 
L 195.158956 190.563787 
L 196.49829 190.518491 
L 197.837624 191.170483 
L 199.176958 189.163953 
L 200.516292 188.171666 
L 201.855626 190.557695 
L 203.194959 192.041314 
L 204.534293 191.897882 
L 205.873627 192.086229 
L 207.212961 192.106418 
L 208.552295 190.342011 
L 209.891629 191.912021 
L 211.230963 191.606889 
L 212.570297 189.639833 
L 213.909631 185.462793 
L 215.248965 187.320325 
L 216.588299 187.960312 
L 217.927633 190.15404 
L 219.266967 193.2914 
L 221.945635 192.527213 
L 223.284968 194.440364 
L 224.624302 190.904942 
L 225.963636 190.970941 
L 227.30297 191.705963 
L 228.642304 193.639733 
L 229.981638 193.870216 
L 231.320972 189.647629 
L 232.660306 194.116138 
L 233.99964 193.026564 
L 235.338974 193.466687 
L 236.678308 194.928232 
L 238.017642 196.766753 
L 239.356976 195.844434 
L 240.69631 198.50593 
L 242.035644 194.634448 
L 243.374977 194.478491 
L 244.714311 196.978055 
L 246.053645 195.934146 
L 247.392979 196.526512 
L 248.732313 195.749699 
L 250.071647 195.609246 
L 251.410981 193.678784 
L 252.750315 190.292023 
L 254.089649 192.467173 
L 255.428983 192.347547 
L 256.768317 195.848589 
L 258.107651 195.878065 
L 259.446985 192.782169 
L 260.786319 193.11626 
L 262.125653 194.053434 
L 263.464986 196.071616 
L 264.80432 196.993612 
L 266.143654 198.228245 
L 267.482988 196.287871 
L 268.822322 193.533544 
L 270.161656 196.269943 
L 271.50099 195.497007 
L 272.840324 197.335022 
L 274.179658 193.695688 
L 275.518992 197.192136 
L 276.858326 198.399481 
L 278.19766 197.129202 
L 279.536994 192.954435 
L 280.876328 195.312352 
L 282.215662 195.739379 
L 283.554995 195.010597 
L 284.894329 196.884926 
L 286.233663 199.259366 
L 287.572997 197.684806 
L 288.912331 197.446816 
L 290.251665 190.702799 
L 291.590999 190.999699 
L 292.930333 193.216436 
L 294.269667 191.522275 
L 295.609001 187.005477 
L 296.948335 190.409903 
L 298.287669 193.41427 
L 299.627003 189.256727 
L 300.966337 192.067805 
L 302.305671 194.018129 
L 303.645005 191.922743 
L 304.984338 195.096595 
L 306.323672 190.423174 
L 307.663006 193.490011 
L 309.00234 196.92222 
L 310.341674 195.396271 
L 311.681008 195.123604 
L 313.020342 192.779598 
L 315.69901 198.672784 
L 317.038344 195.742482 
L 318.377678 193.696474 
L 319.717012 190.598222 
L 321.056346 189.702649 
L 322.39568 187.999142 
L 323.735014 188.383676 
L 325.074347 190.43407 
L 326.413681 190.43811 
L 327.753015 194.104279 
L 329.092349 194.418557 
L 330.431683 197.810038 
L 331.771017 194.494687 
L 333.110351 196.388656 
L 334.449685 195.838216 
L 335.789019 195.801706 
L 337.128353 193.292543 
L 338.467687 194.707343 
L 339.807021 194.778791 
L 341.146355 193.104304 
L 342.485689 194.696329 
L 343.825023 189.840125 
L 345.164356 188.471971 
L 346.50369 193.135794 
L 347.843024 187.309393 
L 349.182358 191.740826 
L 350.521692 193.641768 
L 351.861026 189.21166 
L 353.20036 190.758862 
L 354.539694 188.826015 
L 355.879028 185.729464 
L 357.218362 187.000933 
L 358.557696 183.678915 
L 359.89703 182.065821 
L 361.236364 180.962411 
L 362.575698 181.153187 
L 363.915032 186.036557 
L 365.254365 185.260513 
L 366.593699 184.772529 
L 367.933033 185.430632 
L 369.272367 187.52272 
L 370.611701 186.392624 
L 371.951035 185.051287 
L 373.290369 188.793348 
L 374.629703 191.998822 
L 375.969037 192.443026 
L 377.308371 193.270162 
L 378.647705 192.813202 
L 379.987039 188.605045 
L 381.326373 191.485873 
L 382.665707 187.612178 
L 384.005041 189.848542 
L 385.344374 190.855087 
L 386.683708 188.377477 
L 388.023042 189.714196 
L 389.362376 187.311113 
L 390.70171 186.294721 
L 392.041044 185.483667 
L 393.380378 188.767148 
L 394.719712 186.942451 
L 396.059046 183.152011 
L 397.39838 185.584767 
L 398.737714 187.46779 
L 400.077048 182.325949 
L 401.416382 182.22878 
L 402.755716 181.495766 
L 404.09505 184.523456 
L 405.434383 184.151503 
L 406.773717 189.612621 
L 408.113051 185.438093 
L 409.452385 185.71815 
L 410.791719 187.040676 
L 412.131053 189.857247 
L 413.470387 188.921451 
L 414.809721 190.502443 
L 416.149055 189.972014 
L 417.488389 185.962682 
L 418.827723 185.585588 
L 420.167057 184.408928 
L 421.506391 187.487357 
L 422.845725 185.646416 
L 424.185059 185.342811 
L 425.524392 186.06113 
L 426.863726 187.603807 
L 428.20306 184.696093 
L 429.542394 182.150514 
L 430.881728 186.606411 
L 433.560396 192.826012 
L 434.89973 194.292066 
L 436.239064 195.503648 
L 437.578398 194.331658 
L 441.5964 184.528208 
L 442.935734 189.425191 
L 444.275068 188.86297 
L 446.953735 187.245626 
L 448.293069 184.648244 
L 449.632403 185.192248 
L 450.971737 186.899106 
L 452.311071 185.043356 
L 454.989739 182.028088 
L 456.329073 184.18229 
L 457.668407 184.611354 
L 459.007741 182.906237 
L 460.347075 183.873682 
L 461.686409 179.048423 
L 463.025743 177.660024 
L 464.365077 174.90986 
L 465.70441 178.609547 
L 467.043744 180.390194 
L 468.383078 180.285591 
L 469.722412 178.610536 
L 471.061746 178.952419 
L 472.40108 180.525045 
L 473.740414 180.366393 
L 476.419082 182.38312 
L 477.758416 183.68941 
L 479.09775 179.735198 
L 480.437084 182.323685 
L 481.776418 180.229351 
L 483.115752 182.465243 
L 484.455086 180.878026 
L 485.794419 179.950773 
L 487.133753 181.97366 
L 488.473087 180.428563 
L 489.812421 174.003954 
L 491.151755 180.100541 
L 493.830423 180.310049 
L 495.169757 176.207687 
L 496.509091 177.85468 
L 496.509091 177.85468 
" clip-path="url(#p52fdacd944)" style="fill: none; stroke: #9467bd; stroke-width: 1.5; stroke-linecap: square"/>
   </g>
   <g id="patch_3">
    <path d="M 70.4 305.260125 
L 70.4 28.060125 
" style="fill: none; stroke: #000000; stroke-width: 0.8; stroke-linejoin: miter; stroke-linecap: square"/>
   </g>
   <g id="patch_4">
    <path d="M 516.8 305.260125 
L 516.8 28.060125 
" style="fill: none; stroke: #000000; stroke-width: 0.8; stroke-linejoin: miter; stroke-linecap: square"/>
   </g>
   <g id="patch_5">
    <path d="M 70.4 305.260125 
L 516.8 305.260125 
" style="fill: none; stroke: #000000; stroke-width: 0.8; stroke-linejoin: miter; stroke-linecap: square"/>
   </g>
   <g id="patch_6">
    <path d="M 70.4 28.060125 
L 516.8 28.060125 
" style="fill: none; stroke: #000000; stroke-width: 0.8; stroke-linejoin: miter; stroke-linecap: square"/>
   </g>
   <g id="text_18">
    <!-- ML45 Meta Testing -->
    <g transform="translate(206.604313 22.060125)scale(0.216 -0.216)">
     <defs>
      <path id="STIXGeneral-Regular-4d" d="M 5530 0 
L 3738 0 
L 3738 122 
Q 4115 147 4214 265 
Q 4314 384 4314 787 
L 4314 3661 
L 2682 0 
L 2592 0 
L 979 3514 
L 979 966 
Q 979 448 1088 294 
Q 1197 141 1574 122 
L 1574 0 
L 77 0 
L 77 122 
Q 358 141 480 205 
Q 602 269 650 432 
Q 698 595 698 966 
L 698 3514 
Q 698 3878 589 3984 
Q 480 4090 90 4115 
L 90 4237 
L 1357 4237 
L 2835 1024 
L 4250 4237 
L 5523 4237 
L 5523 4115 
Q 5178 4109 5072 3993 
Q 4966 3878 4966 3520 
L 4966 717 
Q 4966 378 5072 262 
Q 5178 147 5530 122 
L 5530 0 
z
" transform="scale(0.015625)"/>
      <path id="STIXGeneral-Regular-4c" d="M 3827 1114 
L 3520 0 
L 77 0 
L 77 122 
Q 429 141 531 256 
Q 634 371 634 736 
L 634 3494 
Q 634 3872 541 3981 
Q 448 4090 77 4115 
L 77 4237 
L 1888 4237 
L 1888 4115 
Q 1498 4090 1392 3984 
Q 1286 3878 1286 3507 
L 1286 538 
Q 1286 358 1398 304 
Q 1510 250 1862 250 
L 2310 250 
Q 3085 250 3392 640 
Q 3520 813 3661 1114 
L 3827 1114 
z
" transform="scale(0.015625)"/>
     </defs>
     <use xlink:href="#STIXGeneral-Regular-4d"/>
     <use xlink:href="#STIXGeneral-Regular-4c" x="88.899994"/>
     <use xlink:href="#STIXGeneral-Regular-34" x="149.999985"/>
     <use xlink:href="#STIXGeneral-Regular-35" x="199.999969"/>
     <use xlink:href="#STIXGeneral-Regular-20" x="249.999954"/>
     <use xlink:href="#STIXGeneral-Regular-4d" x="274.999939"/>
     <use xlink:href="#STIXGeneral-Regular-65" x="363.899933"/>
     <use xlink:href="#STIXGeneral-Regular-74" x="408.299927"/>
     <use xlink:href="#STIXGeneral-Regular-61" x="436.099915"/>
     <use xlink:href="#STIXGeneral-Regular-20" x="480.499908"/>
     <use xlink:href="#STIXGeneral-Regular-54" x="505.499893"/>
     <use xlink:href="#STIXGeneral-Regular-65" x="566.599884"/>
     <use xlink:href="#STIXGeneral-Regular-73" x="610.999878"/>
     <use xlink:href="#STIXGeneral-Regular-74" x="649.899872"/>
     <use xlink:href="#STIXGeneral-Regular-69" x="677.69986"/>
     <use xlink:href="#STIXGeneral-Regular-6e" x="705.499847"/>
     <use xlink:href="#STIXGeneral-Regular-67" x="755.499832"/>
    </g>
   </g>
   <g id="legend_1">
    <g id="patch_7">
     <path d="M 76 107.87325 
L 184.093125 107.87325 
Q 186.893125 107.87325 186.893125 105.07325 
L 186.893125 33.660125 
Q 186.893125 30.860125 184.093125 30.860125 
L 76 30.860125 
Q 73.2 30.860125 73.2 33.660125 
L 73.2 105.07325 
Q 73.2 107.87325 76 107.87325 
z
" style="fill: #ffffff; opacity: 0.8; stroke: #cccccc; stroke-linejoin: miter"/>
    </g>
    <g id="line2d_34">
     <path d="M 77.4 40.771687 
L 84.4 40.771687 
L 91.4 40.771687 
" style="fill: none; stroke: #1f77b4; stroke-width: 1.5; stroke-linecap: square"/>
    </g>
    <g id="text_19">
     <!-- bin-picking-v2 -->
     <g transform="translate(95.6 44.621687)scale(0.14 -0.14)">
      <defs>
       <path id="STIXGeneral-Regular-62" d="M 979 4358 
L 979 2406 
Q 1082 2650 1315 2797 
Q 1549 2944 1843 2944 
Q 2349 2944 2672 2541 
Q 2995 2138 2995 1536 
Q 2995 832 2566 384 
Q 2138 -64 1498 -64 
Q 1107 -64 774 67 
Q 442 198 442 358 
L 442 3622 
Q 442 3859 384 3926 
Q 326 3994 128 3994 
Q 83 3994 19 3981 
L 19 4090 
L 211 4147 
Q 864 4346 947 4371 
L 979 4358 
z
M 979 2035 
L 979 474 
Q 979 326 1161 233 
Q 1344 141 1600 141 
Q 1978 141 2195 416 
Q 2432 710 2432 1261 
Q 2432 1888 2182 2240 
Q 1971 2541 1613 2541 
Q 1357 2541 1168 2390 
Q 979 2240 979 2035 
z
" transform="scale(0.015625)"/>
       <path id="STIXGeneral-Regular-2d" d="M 1824 1242 
L 250 1242 
L 250 1645 
L 1824 1645 
L 1824 1242 
z
" transform="scale(0.015625)"/>
       <path id="STIXGeneral-Regular-63" d="M 2547 998 
L 2637 941 
Q 2362 403 2112 205 
Q 1786 -64 1376 -64 
Q 845 -64 502 336 
Q 160 736 160 1357 
Q 160 2170 698 2618 
Q 1094 2944 1562 2944 
Q 1965 2944 2256 2749 
Q 2547 2554 2547 2285 
Q 2547 2176 2457 2096 
Q 2368 2016 2246 2016 
Q 2022 2016 1939 2310 
L 1901 2451 
Q 1850 2630 1773 2694 
Q 1696 2758 1523 2758 
Q 1133 2758 893 2451 
Q 653 2144 653 1645 
Q 653 1094 928 745 
Q 1203 397 1645 397 
Q 1920 397 2118 528 
Q 2317 659 2547 998 
z
" transform="scale(0.015625)"/>
       <path id="STIXGeneral-Regular-6b" d="M 3232 0 
L 1837 0 
L 1837 96 
L 1958 96 
Q 2093 96 2093 192 
Q 2093 250 2022 339 
L 1062 1606 
L 1062 429 
Q 1062 262 1142 185 
Q 1222 109 1414 102 
L 1542 96 
L 1542 0 
L 45 0 
L 45 96 
Q 390 154 457 214 
Q 525 275 525 525 
L 525 3610 
Q 525 3840 467 3920 
Q 410 4000 250 4000 
Q 211 4000 45 3987 
L 45 4090 
L 237 4141 
Q 621 4243 1037 4371 
L 1062 4358 
L 1062 1670 
L 1939 2451 
Q 2086 2586 2086 2675 
Q 2086 2739 2019 2761 
Q 1952 2784 1766 2790 
L 1766 2880 
L 3072 2880 
L 3072 2784 
Q 2752 2784 2505 2646 
Q 2259 2509 1690 1978 
L 1504 1805 
L 2483 563 
Q 2829 122 3232 96 
L 3232 0 
z
" transform="scale(0.015625)"/>
      </defs>
      <use xlink:href="#STIXGeneral-Regular-62"/>
      <use xlink:href="#STIXGeneral-Regular-69" x="49.999985"/>
      <use xlink:href="#STIXGeneral-Regular-6e" x="77.799973"/>
      <use xlink:href="#STIXGeneral-Regular-2d" x="127.799957"/>
      <use xlink:href="#STIXGeneral-Regular-70" x="161.099945"/>
      <use xlink:href="#STIXGeneral-Regular-69" x="211.09993"/>
      <use xlink:href="#STIXGeneral-Regular-63" x="238.899918"/>
      <use xlink:href="#STIXGeneral-Regular-6b" x="283.299911"/>
      <use xlink:href="#STIXGeneral-Regular-69" x="333.299896"/>
      <use xlink:href="#STIXGeneral-Regular-6e" x="361.099884"/>
      <use xlink:href="#STIXGeneral-Regular-67" x="411.099869"/>
      <use xlink:href="#STIXGeneral-Regular-2d" x="461.099854"/>
      <use xlink:href="#STIXGeneral-Regular-76" x="494.399841"/>
      <use xlink:href="#STIXGeneral-Regular-32" x="544.399826"/>
     </g>
    </g>
    <g id="line2d_35">
     <path d="M 77.4 54.784812 
L 84.4 54.784812 
L 91.4 54.784812 
" style="fill: none; stroke: #ff7f0e; stroke-width: 1.5; stroke-linecap: square"/>
    </g>
    <g id="text_20">
     <!-- box-close-v2 -->
     <g transform="translate(95.6 58.634812)scale(0.14 -0.14)">
      <defs>
       <path id="STIXGeneral-Regular-78" d="M 3066 0 
L 1779 0 
L 1779 96 
Q 1939 109 1987 137 
Q 2035 166 2035 250 
Q 2035 307 1997 365 
L 1414 1261 
L 909 474 
Q 781 275 781 211 
Q 781 96 1037 96 
L 1037 0 
L 109 0 
L 109 96 
Q 269 109 355 169 
Q 442 230 576 422 
L 1306 1478 
L 704 2400 
Q 557 2624 454 2704 
Q 352 2784 211 2784 
L 154 2784 
L 154 2880 
L 1478 2880 
L 1478 2784 
Q 1203 2778 1203 2643 
Q 1203 2509 1498 2074 
Q 1581 1958 1587 1946 
Q 1619 1990 1779 2227 
Q 1811 2285 1856 2349 
Q 1901 2413 1923 2451 
Q 1946 2490 1971 2528 
Q 1997 2566 2006 2595 
Q 2016 2624 2016 2643 
Q 2016 2765 1760 2784 
L 1760 2880 
L 2771 2880 
L 2771 2784 
Q 2445 2771 2253 2502 
L 1722 1734 
L 2541 480 
Q 2790 96 3066 96 
L 3066 0 
z
" transform="scale(0.015625)"/>
       <path id="STIXGeneral-Regular-6c" d="M 1645 0 
L 134 0 
L 134 96 
Q 435 122 531 221 
Q 627 320 627 589 
L 627 3590 
Q 627 3821 569 3910 
Q 512 4000 358 4000 
Q 224 4000 122 3987 
L 122 4090 
Q 730 4237 1133 4371 
L 1165 4346 
L 1165 557 
Q 1165 288 1254 201 
Q 1344 115 1645 96 
L 1645 0 
z
" transform="scale(0.015625)"/>
      </defs>
      <use xlink:href="#STIXGeneral-Regular-62"/>
      <use xlink:href="#STIXGeneral-Regular-6f" x="49.999985"/>
      <use xlink:href="#STIXGeneral-Regular-78" x="99.999969"/>
      <use xlink:href="#STIXGeneral-Regular-2d" x="149.999954"/>
      <use xlink:href="#STIXGeneral-Regular-63" x="183.299942"/>
      <use xlink:href="#STIXGeneral-Regular-6c" x="227.699936"/>
      <use xlink:href="#STIXGeneral-Regular-6f" x="255.499924"/>
      <use xlink:href="#STIXGeneral-Regular-73" x="305.499908"/>
      <use xlink:href="#STIXGeneral-Regular-65" x="344.399902"/>
      <use xlink:href="#STIXGeneral-Regular-2d" x="388.799896"/>
      <use xlink:href="#STIXGeneral-Regular-76" x="422.099884"/>
      <use xlink:href="#STIXGeneral-Regular-32" x="472.099869"/>
     </g>
    </g>
    <g id="line2d_36">
     <path d="M 77.4 68.784812 
L 84.4 68.784812 
L 91.4 68.784812 
" style="fill: none; stroke: #2ca02c; stroke-width: 1.5; stroke-linecap: square"/>
    </g>
    <g id="text_21">
     <!-- hand-insert-v2 -->
     <g transform="translate(95.6 72.634812)scale(0.14 -0.14)">
      <defs>
       <path id="STIXGeneral-Regular-68" d="M 3117 0 
L 1760 0 
L 1760 96 
Q 2042 128 2118 224 
Q 2195 320 2195 653 
L 2195 1920 
Q 2195 2598 1722 2598 
Q 1530 2598 1370 2508 
Q 1210 2419 1005 2195 
L 1005 653 
Q 1005 320 1081 224 
Q 1158 128 1440 96 
L 1440 0 
L 58 0 
L 58 96 
Q 333 134 400 224 
Q 467 314 467 653 
L 467 3667 
Q 467 3872 406 3933 
Q 346 3994 141 3994 
Q 83 3994 64 3987 
L 64 4090 
L 237 4141 
Q 730 4288 973 4371 
L 1005 4352 
L 1005 2406 
Q 1229 2694 1446 2819 
Q 1664 2944 1946 2944 
Q 2733 2944 2733 1926 
L 2733 653 
Q 2733 320 2793 233 
Q 2854 147 3117 96 
L 3117 0 
z
" transform="scale(0.015625)"/>
       <path id="STIXGeneral-Regular-64" d="M 3142 269 
L 2202 -64 
L 2176 -45 
L 2176 365 
Q 1869 -64 1357 -64 
Q 826 -64 499 317 
Q 173 698 173 1312 
Q 173 1990 563 2467 
Q 954 2944 1504 2944 
Q 1850 2944 2176 2669 
L 2176 3667 
Q 2176 3866 2118 3930 
Q 2061 3994 1882 3994 
Q 1792 3994 1741 3987 
L 1741 4090 
Q 2323 4243 2682 4371 
L 2714 4358 
L 2714 730 
Q 2714 506 2768 435 
Q 2822 365 2995 365 
Q 3034 365 3142 371 
L 3142 269 
z
M 2176 653 
L 2176 2125 
Q 2176 2381 1981 2573 
Q 1786 2765 1523 2765 
Q 1158 2765 940 2438 
Q 723 2112 723 1568 
Q 723 979 963 624 
Q 1203 269 1606 269 
Q 1907 269 2080 474 
Q 2176 582 2176 653 
z
" transform="scale(0.015625)"/>
      </defs>
      <use xlink:href="#STIXGeneral-Regular-68"/>
      <use xlink:href="#STIXGeneral-Regular-61" x="49.999985"/>
      <use xlink:href="#STIXGeneral-Regular-6e" x="94.399979"/>
      <use xlink:href="#STIXGeneral-Regular-64" x="144.399963"/>
      <use xlink:href="#STIXGeneral-Regular-2d" x="194.399948"/>
      <use xlink:href="#STIXGeneral-Regular-69" x="227.699936"/>
      <use xlink:href="#STIXGeneral-Regular-6e" x="255.499924"/>
      <use xlink:href="#STIXGeneral-Regular-73" x="305.499908"/>
      <use xlink:href="#STIXGeneral-Regular-65" x="344.399902"/>
      <use xlink:href="#STIXGeneral-Regular-72" x="388.799896"/>
      <use xlink:href="#STIXGeneral-Regular-74" x="422.099884"/>
      <use xlink:href="#STIXGeneral-Regular-2d" x="449.899872"/>
      <use xlink:href="#STIXGeneral-Regular-76" x="483.19986"/>
      <use xlink:href="#STIXGeneral-Regular-32" x="533.199844"/>
     </g>
    </g>
    <g id="line2d_37">
     <path d="M 77.4 82.784812 
L 84.4 82.784812 
L 91.4 82.784812 
" style="fill: none; stroke: #d62728; stroke-width: 1.5; stroke-linecap: square"/>
    </g>
    <g id="text_22">
     <!-- door-lock-v2 -->
     <g transform="translate(95.6 86.634812)scale(0.14 -0.14)">
      <use xlink:href="#STIXGeneral-Regular-64"/>
      <use xlink:href="#STIXGeneral-Regular-6f" x="49.999985"/>
      <use xlink:href="#STIXGeneral-Regular-6f" x="99.999969"/>
      <use xlink:href="#STIXGeneral-Regular-72" x="149.999954"/>
      <use xlink:href="#STIXGeneral-Regular-2d" x="183.299942"/>
      <use xlink:href="#STIXGeneral-Regular-6c" x="216.59993"/>
      <use xlink:href="#STIXGeneral-Regular-6f" x="244.399918"/>
      <use xlink:href="#STIXGeneral-Regular-63" x="294.399902"/>
      <use xlink:href="#STIXGeneral-Regular-6b" x="338.799896"/>
      <use xlink:href="#STIXGeneral-Regular-2d" x="388.799881"/>
      <use xlink:href="#STIXGeneral-Regular-76" x="422.099869"/>
      <use xlink:href="#STIXGeneral-Regular-32" x="472.099854"/>
     </g>
    </g>
    <g id="line2d_38">
     <path d="M 77.4 96.784812 
L 84.4 96.784812 
L 91.4 96.784812 
" style="fill: none; stroke: #9467bd; stroke-width: 1.5; stroke-linecap: square"/>
    </g>
    <g id="text_23">
     <!-- door-unlock-v2 -->
     <g transform="translate(95.6 100.634812)scale(0.14 -0.14)">
      <use xlink:href="#STIXGeneral-Regular-64"/>
      <use xlink:href="#STIXGeneral-Regular-6f" x="49.999985"/>
      <use xlink:href="#STIXGeneral-Regular-6f" x="99.999969"/>
      <use xlink:href="#STIXGeneral-Regular-72" x="149.999954"/>
      <use xlink:href="#STIXGeneral-Regular-2d" x="183.299942"/>
      <use xlink:href="#STIXGeneral-Regular-75" x="216.59993"/>
      <use xlink:href="#STIXGeneral-Regular-6e" x="266.599915"/>
      <use xlink:href="#STIXGeneral-Regular-6c" x="316.599899"/>
      <use xlink:href="#STIXGeneral-Regular-6f" x="344.399887"/>
      <use xlink:href="#STIXGeneral-Regular-63" x="394.399872"/>
      <use xlink:href="#STIXGeneral-Regular-6b" x="438.799866"/>
      <use xlink:href="#STIXGeneral-Regular-2d" x="488.79985"/>
      <use xlink:href="#STIXGeneral-Regular-76" x="522.099838"/>
      <use xlink:href="#STIXGeneral-Regular-32" x="572.099823"/>
     </g>
    </g>
   </g>
  </g>
 </g>
 <defs>
  <clipPath id="p52fdacd944">
   <rect x="70.4" y="28.060125" width="446.4" height="277.2"/>
  </clipPath>
 </defs>
</svg>
