<?xml version="1.0" encoding="utf-8" standalone="no"?>
<!DOCTYPE svg PUBLIC "-//W3C//DTD SVG 1.1//EN"
  "http://www.w3.org/Graphics/SVG/1.1/DTD/svg11.dtd">
<svg xmlns:xlink="http://www.w3.org/1999/xlink" width="524pt" height="355.769pt" viewBox="0 0 524 355.769" xmlns="http://www.w3.org/2000/svg" version="1.1">
 <metadata>
  <rdf:RDF xmlns:dc="http://purl.org/dc/elements/1.1/" xmlns:cc="http://creativecommons.org/ns#" xmlns:rdf="http://www.w3.org/1999/02/22-rdf-syntax-ns#">
   <cc:Work>
    <dc:type rdf:resource="http://purl.org/dc/dcmitype/StillImage"/>
    <dc:date>2021-12-11T16:38:55.738594</dc:date>
    <dc:format>image/svg+xml</dc:format>
    <dc:creator>
     <cc:Agent>
      <dc:title>Matplotlib v3.5.0, https://matplotlib.org/</dc:title>
     </cc:Agent>
    </dc:creator>
   </cc:Work>
  </rdf:RDF>
 </metadata>
 <defs>
  <style type="text/css">*{stroke-linejoin: round; stroke-linecap: butt}</style>
 </defs>
 <g id="figure_1">
  <g id="patch_1">
   <path d="M 0 355.769 
L 524 355.769 
L 524 0 
L 0 0 
z
" style="fill: #ffffff"/>
  </g>
  <g id="axes_1">
   <g id="patch_2">
    <path d="M 70.4 305.152125 
L 516.8 305.152125 
L 516.8 27.952125 
L 70.4 27.952125 
z
" style="fill: #ffffff"/>
   </g>
   <g id="matplotlib.axis_1">
    <g id="xtick_1">
     <g id="line2d_1">
      <path d="M 90.433083 305.152125 
L 90.433083 27.952125 
" clip-path="url(#pde9e10882f)" style="fill: none; stroke: #b0b0b0; stroke-width: 0.8; stroke-linecap: square"/>
     </g>
     <g id="line2d_2">
      <defs>
       <path id="m8661d31ebf" d="M 0 0 
L 0 3.5 
" style="stroke: #000000; stroke-width: 0.8"/>
      </defs>
      <g>
       <use xlink:href="#m8661d31ebf" x="90.433083" y="305.152125" style="stroke: #000000; stroke-width: 0.8"/>
      </g>
     </g>
     <g id="text_1">
      <!-- 0.0 -->
      <g transform="translate(79.183083 324.445562)scale(0.18 -0.18)">
       <defs>
        <path id="STIXGeneral-Regular-30" d="M 3046 2112 
Q 3046 1683 2963 1302 
Q 2880 922 2717 602 
Q 2554 282 2266 96 
Q 1978 -90 1600 -90 
Q 1210 -90 915 108 
Q 621 307 461 640 
Q 301 973 227 1350 
Q 154 1728 154 2150 
Q 154 2746 301 3222 
Q 448 3699 790 4012 
Q 1133 4326 1626 4326 
Q 2253 4326 2649 3712 
Q 3046 3098 3046 2112 
z
M 2432 2080 
Q 2432 3091 2217 3625 
Q 2003 4160 1587 4160 
Q 1190 4160 979 3622 
Q 768 3085 768 2106 
Q 768 1120 979 598 
Q 1190 77 1600 77 
Q 2003 77 2217 598 
Q 2432 1120 2432 2080 
z
" transform="scale(0.015625)"/>
        <path id="STIXGeneral-Regular-2e" d="M 1158 275 
Q 1158 134 1052 32 
Q 947 -70 800 -70 
Q 653 -70 550 32 
Q 448 134 448 281 
Q 448 429 553 534 
Q 659 640 806 640 
Q 947 640 1052 531 
Q 1158 422 1158 275 
z
" transform="scale(0.015625)"/>
       </defs>
       <use xlink:href="#STIXGeneral-Regular-30"/>
       <use xlink:href="#STIXGeneral-Regular-2e" x="49.999985"/>
       <use xlink:href="#STIXGeneral-Regular-30" x="74.999969"/>
      </g>
     </g>
    </g>
    <g id="xtick_2">
     <g id="line2d_3">
      <path d="M 154.889592 305.152125 
L 154.889592 27.952125 
" clip-path="url(#pde9e10882f)" style="fill: none; stroke: #b0b0b0; stroke-width: 0.8; stroke-linecap: square"/>
     </g>
     <g id="line2d_4">
      <g>
       <use xlink:href="#m8661d31ebf" x="154.889592" y="305.152125" style="stroke: #000000; stroke-width: 0.8"/>
      </g>
     </g>
     <g id="text_2">
      <!-- 0.5 -->
      <g transform="translate(143.639592 324.445562)scale(0.18 -0.18)">
       <defs>
        <path id="STIXGeneral-Regular-35" d="M 2803 4358 
L 2573 3814 
Q 2534 3731 2400 3731 
L 1158 3731 
L 902 3187 
Q 1606 3053 1920 2896 
Q 2234 2739 2502 2368 
Q 2726 2061 2726 1555 
Q 2726 1094 2576 780 
Q 2426 467 2099 224 
Q 1664 -90 1011 -90 
Q 646 -90 422 19 
Q 198 128 198 307 
Q 198 550 486 550 
Q 717 550 960 352 
Q 1210 147 1414 147 
Q 1747 147 2012 480 
Q 2278 813 2278 1229 
Q 2278 1843 1850 2189 
Q 1293 2637 486 2637 
Q 410 2637 410 2688 
L 416 2720 
L 1114 4237 
L 2438 4237 
Q 2547 4237 2608 4269 
Q 2669 4301 2746 4403 
L 2803 4358 
z
" transform="scale(0.015625)"/>
       </defs>
       <use xlink:href="#STIXGeneral-Regular-30"/>
       <use xlink:href="#STIXGeneral-Regular-2e" x="49.999985"/>
       <use xlink:href="#STIXGeneral-Regular-35" x="74.999969"/>
      </g>
     </g>
    </g>
    <g id="xtick_3">
     <g id="line2d_5">
      <path d="M 219.346101 305.152125 
L 219.346101 27.952125 
" clip-path="url(#pde9e10882f)" style="fill: none; stroke: #b0b0b0; stroke-width: 0.8; stroke-linecap: square"/>
     </g>
     <g id="line2d_6">
      <g>
       <use xlink:href="#m8661d31ebf" x="219.346101" y="305.152125" style="stroke: #000000; stroke-width: 0.8"/>
      </g>
     </g>
     <g id="text_3">
      <!-- 1.0 -->
      <g transform="translate(208.096101 324.445562)scale(0.18 -0.18)">
       <defs>
        <path id="STIXGeneral-Regular-31" d="M 2522 0 
L 755 0 
L 755 96 
Q 1107 115 1235 227 
Q 1363 339 1363 608 
L 1363 3482 
Q 1363 3795 1171 3795 
Q 1082 3795 883 3718 
L 710 3654 
L 710 3744 
L 1856 4326 
L 1914 4307 
L 1914 486 
Q 1914 275 2042 185 
Q 2170 96 2522 96 
L 2522 0 
z
" transform="scale(0.015625)"/>
       </defs>
       <use xlink:href="#STIXGeneral-Regular-31"/>
       <use xlink:href="#STIXGeneral-Regular-2e" x="49.999985"/>
       <use xlink:href="#STIXGeneral-Regular-30" x="74.999969"/>
      </g>
     </g>
    </g>
    <g id="xtick_4">
     <g id="line2d_7">
      <path d="M 283.802611 305.152125 
L 283.802611 27.952125 
" clip-path="url(#pde9e10882f)" style="fill: none; stroke: #b0b0b0; stroke-width: 0.8; stroke-linecap: square"/>
     </g>
     <g id="line2d_8">
      <g>
       <use xlink:href="#m8661d31ebf" x="283.802611" y="305.152125" style="stroke: #000000; stroke-width: 0.8"/>
      </g>
     </g>
     <g id="text_4">
      <!-- 1.5 -->
      <g transform="translate(272.552611 324.445562)scale(0.18 -0.18)">
       <use xlink:href="#STIXGeneral-Regular-31"/>
       <use xlink:href="#STIXGeneral-Regular-2e" x="49.999985"/>
       <use xlink:href="#STIXGeneral-Regular-35" x="74.999969"/>
      </g>
     </g>
    </g>
    <g id="xtick_5">
     <g id="line2d_9">
      <path d="M 348.25912 305.152125 
L 348.25912 27.952125 
" clip-path="url(#pde9e10882f)" style="fill: none; stroke: #b0b0b0; stroke-width: 0.8; stroke-linecap: square"/>
     </g>
     <g id="line2d_10">
      <g>
       <use xlink:href="#m8661d31ebf" x="348.25912" y="305.152125" style="stroke: #000000; stroke-width: 0.8"/>
      </g>
     </g>
     <g id="text_5">
      <!-- 2.0 -->
      <g transform="translate(337.00912 324.445562)scale(0.18 -0.18)">
       <defs>
        <path id="STIXGeneral-Regular-32" d="M 3034 877 
L 2688 0 
L 186 0 
L 186 77 
L 1325 1286 
Q 1773 1754 1965 2144 
Q 2157 2534 2157 2950 
Q 2157 3379 1920 3616 
Q 1683 3853 1267 3853 
Q 922 3853 720 3673 
Q 518 3494 326 3021 
L 192 3053 
Q 301 3648 630 3987 
Q 960 4326 1523 4326 
Q 2054 4326 2380 4006 
Q 2707 3686 2707 3200 
Q 2707 2477 1888 1613 
L 832 486 
L 2330 486 
Q 2541 486 2665 569 
Q 2790 653 2944 915 
L 3034 877 
z
" transform="scale(0.015625)"/>
       </defs>
       <use xlink:href="#STIXGeneral-Regular-32"/>
       <use xlink:href="#STIXGeneral-Regular-2e" x="49.999985"/>
       <use xlink:href="#STIXGeneral-Regular-30" x="74.999969"/>
      </g>
     </g>
    </g>
    <g id="xtick_6">
     <g id="line2d_11">
      <path d="M 412.715629 305.152125 
L 412.715629 27.952125 
" clip-path="url(#pde9e10882f)" style="fill: none; stroke: #b0b0b0; stroke-width: 0.8; stroke-linecap: square"/>
     </g>
     <g id="line2d_12">
      <g>
       <use xlink:href="#m8661d31ebf" x="412.715629" y="305.152125" style="stroke: #000000; stroke-width: 0.8"/>
      </g>
     </g>
     <g id="text_6">
      <!-- 2.5 -->
      <g transform="translate(401.465629 324.445562)scale(0.18 -0.18)">
       <use xlink:href="#STIXGeneral-Regular-32"/>
       <use xlink:href="#STIXGeneral-Regular-2e" x="49.999985"/>
       <use xlink:href="#STIXGeneral-Regular-35" x="74.999969"/>
      </g>
     </g>
    </g>
    <g id="xtick_7">
     <g id="line2d_13">
      <path d="M 477.172138 305.152125 
L 477.172138 27.952125 
" clip-path="url(#pde9e10882f)" style="fill: none; stroke: #b0b0b0; stroke-width: 0.8; stroke-linecap: square"/>
     </g>
     <g id="line2d_14">
      <g>
       <use xlink:href="#m8661d31ebf" x="477.172138" y="305.152125" style="stroke: #000000; stroke-width: 0.8"/>
      </g>
     </g>
     <g id="text_7">
      <!-- 3.0 -->
      <g transform="translate(465.922138 324.445562)scale(0.18 -0.18)">
       <defs>
        <path id="STIXGeneral-Regular-33" d="M 390 3264 
L 288 3290 
Q 435 3770 748 4048 
Q 1062 4326 1542 4326 
Q 1990 4326 2265 4083 
Q 2541 3840 2541 3450 
Q 2541 2925 1946 2566 
Q 2298 2413 2477 2227 
Q 2758 1914 2758 1402 
Q 2758 890 2464 506 
Q 2246 211 1840 60 
Q 1434 -90 979 -90 
Q 262 -90 262 275 
Q 262 378 339 442 
Q 416 506 525 506 
Q 685 506 915 339 
Q 1197 141 1466 141 
Q 1818 141 2058 425 
Q 2298 710 2298 1120 
Q 2298 1856 1632 2048 
Q 1434 2112 979 2112 
L 979 2202 
Q 1338 2323 1517 2432 
Q 2035 2726 2035 3290 
Q 2035 3610 1852 3776 
Q 1670 3942 1344 3942 
Q 768 3942 390 3264 
z
" transform="scale(0.015625)"/>
       </defs>
       <use xlink:href="#STIXGeneral-Regular-33"/>
       <use xlink:href="#STIXGeneral-Regular-2e" x="49.999985"/>
       <use xlink:href="#STIXGeneral-Regular-30" x="74.999969"/>
      </g>
     </g>
    </g>
    <g id="text_8">
     <!-- Training Environment Steps -->
     <g transform="translate(191.604688 344.645562)scale(0.18 -0.18)">
      <defs>
       <path id="STIXGeneral-Regular-54" d="M 3795 3149 
L 3642 3149 
Q 3539 3674 3353 3821 
Q 3168 3968 2656 3968 
L 2278 3968 
L 2278 710 
Q 2278 346 2387 243 
Q 2496 141 2893 122 
L 2893 0 
L 1024 0 
L 1024 122 
Q 1427 147 1526 256 
Q 1626 365 1626 787 
L 1626 3968 
L 1242 3968 
Q 723 3968 540 3817 
Q 358 3667 262 3149 
L 109 3149 
L 154 4237 
L 3750 4237 
L 3795 3149 
z
" transform="scale(0.015625)"/>
       <path id="STIXGeneral-Regular-72" d="M 1024 2931 
L 1024 2342 
Q 1267 2688 1430 2816 
Q 1594 2944 1792 2944 
Q 1958 2944 2051 2854 
Q 2144 2765 2144 2605 
Q 2144 2470 2077 2393 
Q 2010 2317 1894 2317 
Q 1773 2317 1638 2445 
Q 1536 2541 1472 2541 
Q 1338 2541 1181 2355 
Q 1024 2170 1024 2016 
L 1024 576 
Q 1024 301 1133 205 
Q 1242 109 1568 96 
L 1568 0 
L 32 0 
L 32 96 
Q 339 154 412 224 
Q 486 294 486 538 
L 486 2138 
Q 486 2349 438 2435 
Q 390 2522 269 2522 
Q 166 2522 45 2496 
L 45 2598 
Q 448 2726 992 2944 
L 1024 2931 
z
" transform="scale(0.015625)"/>
       <path id="STIXGeneral-Regular-61" d="M 2829 422 
L 2829 243 
Q 2586 -64 2253 -64 
Q 1888 -64 1843 403 
L 1837 403 
Q 1427 -64 909 -64 
Q 608 -64 422 112 
Q 237 288 237 602 
Q 237 1050 685 1350 
Q 992 1555 1837 1869 
L 1837 2214 
Q 1837 2502 1699 2646 
Q 1562 2790 1338 2790 
Q 1146 2790 1018 2697 
Q 890 2605 890 2477 
Q 890 2419 909 2348 
Q 928 2278 928 2208 
Q 928 2112 841 2029 
Q 755 1946 634 1946 
Q 525 1946 441 2029 
Q 358 2112 358 2240 
Q 358 2547 685 2752 
Q 986 2944 1421 2944 
Q 1939 2944 2176 2656 
Q 2291 2522 2323 2384 
Q 2355 2246 2355 1946 
L 2355 723 
Q 2355 301 2554 301 
Q 2682 301 2829 422 
z
M 1837 813 
L 1837 1715 
Q 1248 1510 1018 1293 
Q 800 1094 800 800 
Q 800 557 921 432 
Q 1043 307 1242 307 
Q 1453 307 1613 410 
Q 1747 506 1792 589 
Q 1837 672 1837 813 
z
" transform="scale(0.015625)"/>
       <path id="STIXGeneral-Regular-69" d="M 1152 4045 
Q 1152 3904 1056 3811 
Q 960 3718 819 3718 
Q 685 3718 592 3811 
Q 499 3904 499 4045 
Q 499 4179 595 4275 
Q 691 4371 826 4371 
Q 966 4371 1059 4275 
Q 1152 4179 1152 4045 
z
M 1619 0 
L 102 0 
L 102 96 
Q 435 115 521 211 
Q 608 307 608 666 
L 608 2118 
Q 608 2342 563 2432 
Q 518 2522 397 2522 
Q 243 2522 128 2490 
L 128 2592 
L 1120 2944 
L 1146 2918 
L 1146 672 
Q 1146 314 1226 218 
Q 1306 122 1619 96 
L 1619 0 
z
" transform="scale(0.015625)"/>
       <path id="STIXGeneral-Regular-6e" d="M 3104 0 
L 1773 0 
L 1779 96 
Q 2016 115 2096 233 
Q 2176 352 2176 672 
L 2176 1946 
Q 2176 2592 1709 2592 
Q 1549 2592 1408 2515 
Q 1267 2438 1050 2227 
L 1050 461 
Q 1050 269 1136 192 
Q 1222 115 1466 96 
L 1466 0 
L 115 0 
L 115 96 
Q 358 115 435 214 
Q 512 314 512 602 
L 512 2157 
Q 512 2394 467 2483 
Q 422 2573 288 2573 
Q 160 2573 102 2547 
L 102 2656 
Q 550 2784 979 2944 
L 1030 2925 
L 1030 2426 
L 1037 2426 
Q 1491 2944 1958 2944 
Q 2323 2944 2518 2688 
Q 2714 2432 2714 1958 
L 2714 544 
Q 2714 288 2790 205 
Q 2867 122 3104 96 
L 3104 0 
z
" transform="scale(0.015625)"/>
       <path id="STIXGeneral-Regular-67" d="M 3008 2483 
L 2477 2483 
Q 2598 2208 2598 1946 
Q 2598 1453 2265 1203 
Q 1933 954 1600 954 
Q 1530 954 1357 973 
L 1235 986 
Q 1107 947 979 812 
Q 851 678 851 582 
Q 851 435 1350 410 
L 2176 371 
Q 2528 358 2739 172 
Q 2950 -13 2950 -314 
Q 2950 -685 2566 -986 
Q 2035 -1395 1286 -1395 
Q 826 -1395 502 -1212 
Q 179 -1030 179 -774 
Q 179 -595 320 -419 
Q 461 -243 806 6 
Q 602 102 534 172 
Q 467 243 467 346 
Q 467 531 762 787 
Q 909 915 1037 1043 
Q 717 1203 579 1401 
Q 442 1600 442 1901 
Q 442 2336 752 2640 
Q 1062 2944 1510 2944 
Q 1766 2944 2022 2848 
L 2163 2797 
Q 2349 2733 2515 2733 
L 3008 2733 
L 3008 2483 
z
M 973 2163 
L 973 2144 
Q 973 1683 1155 1398 
Q 1338 1114 1632 1114 
Q 1850 1114 1978 1270 
Q 2106 1427 2106 1690 
Q 2106 2112 1914 2464 
Q 1754 2765 1446 2765 
Q 1222 2765 1097 2605 
Q 973 2445 973 2163 
z
M 2771 -410 
Q 2771 -230 2595 -163 
Q 2419 -96 1978 -96 
Q 1344 -96 941 -13 
Q 749 -243 688 -348 
Q 627 -454 627 -563 
Q 627 -774 880 -902 
Q 1133 -1030 1555 -1030 
Q 2099 -1030 2435 -860 
Q 2771 -691 2771 -410 
z
" transform="scale(0.015625)"/>
       <path id="STIXGeneral-Regular-20" transform="scale(0.015625)"/>
       <path id="STIXGeneral-Regular-45" d="M 3821 1082 
L 3526 0 
L 77 0 
L 77 122 
Q 442 147 538 252 
Q 634 358 634 730 
L 634 3520 
Q 634 3878 534 3987 
Q 435 4096 77 4115 
L 77 4237 
L 3469 4237 
L 3494 3322 
L 3334 3322 
Q 3264 3750 3085 3872 
Q 2906 3994 2349 3994 
L 1510 3994 
Q 1370 3994 1328 3952 
Q 1286 3910 1286 3763 
L 1286 2355 
L 2253 2355 
Q 2656 2355 2787 2470 
Q 2918 2586 2976 2970 
L 3123 2970 
L 3123 1472 
L 2976 1472 
Q 2918 1875 2790 1984 
Q 2662 2093 2253 2093 
L 1286 2093 
L 1286 538 
Q 1286 346 1420 291 
Q 1555 237 1933 237 
L 2163 237 
Q 2848 237 3136 403 
Q 3424 570 3642 1082 
L 3821 1082 
z
" transform="scale(0.015625)"/>
       <path id="STIXGeneral-Regular-76" d="M 3053 2880 
L 3053 2784 
Q 2906 2771 2835 2688 
Q 2765 2605 2637 2285 
L 1818 230 
Q 1690 -90 1638 -90 
Q 1587 -90 1523 77 
Q 1510 96 1497 141 
Q 1485 186 1472 211 
L 704 2048 
Q 499 2534 403 2652 
Q 307 2771 122 2784 
L 122 2880 
L 1376 2880 
L 1376 2784 
Q 1210 2771 1146 2732 
Q 1082 2694 1082 2611 
Q 1082 2509 1139 2368 
L 1792 730 
L 2426 2387 
Q 2464 2483 2464 2579 
Q 2464 2758 2163 2784 
L 2163 2880 
L 3053 2880 
z
" transform="scale(0.015625)"/>
       <path id="STIXGeneral-Regular-6f" d="M 3008 1478 
Q 3008 806 2608 371 
Q 2208 -64 1568 -64 
Q 979 -64 582 368 
Q 186 800 186 1459 
Q 186 2125 582 2534 
Q 979 2944 1626 2944 
Q 2221 2944 2614 2537 
Q 3008 2131 3008 1478 
z
M 2432 1306 
Q 2432 2035 2112 2445 
Q 1856 2765 1504 2765 
Q 1171 2765 966 2493 
Q 762 2221 762 1747 
Q 762 928 1101 435 
Q 1318 115 1677 115 
Q 2029 115 2230 432 
Q 2432 749 2432 1306 
z
" transform="scale(0.015625)"/>
       <path id="STIXGeneral-Regular-6d" d="M 4960 0 
L 3565 0 
L 3565 96 
Q 3834 122 3907 208 
Q 3981 294 3981 576 
L 3981 1894 
Q 3981 2278 3869 2444 
Q 3757 2611 3488 2611 
Q 3264 2611 3107 2521 
Q 2950 2432 2803 2221 
L 2803 608 
Q 2803 301 2896 201 
Q 2989 102 3264 96 
L 3264 0 
L 1830 0 
L 1830 96 
Q 2112 115 2189 188 
Q 2266 262 2266 550 
L 2266 1901 
Q 2266 2611 1850 2611 
Q 1670 2611 1468 2531 
Q 1267 2451 1171 2336 
Q 1088 2240 1088 2227 
L 1088 448 
Q 1088 243 1177 176 
Q 1267 109 1523 96 
L 1523 0 
L 102 0 
L 102 96 
Q 371 102 460 195 
Q 550 288 550 563 
L 550 2150 
Q 550 2387 499 2480 
Q 448 2573 326 2573 
Q 230 2573 122 2547 
L 122 2656 
Q 557 2778 1011 2944 
L 1062 2925 
L 1062 2451 
L 1075 2451 
Q 1363 2752 1584 2848 
Q 1805 2944 2054 2944 
Q 2560 2944 2733 2406 
Q 3232 2944 3776 2944 
Q 4518 2944 4518 1792 
L 4518 493 
Q 4518 282 4582 202 
Q 4646 122 4794 109 
L 4960 96 
L 4960 0 
z
" transform="scale(0.015625)"/>
       <path id="STIXGeneral-Regular-65" d="M 2611 1050 
L 2714 1005 
Q 2330 -64 1376 -64 
Q 813 -64 486 329 
Q 160 723 160 1389 
Q 160 2074 525 2509 
Q 890 2944 1485 2944 
Q 2061 2944 2374 2502 
Q 2560 2246 2592 1773 
L 621 1773 
Q 646 1370 700 1158 
Q 755 947 915 730 
Q 1184 378 1626 378 
Q 1939 378 2153 531 
Q 2368 685 2611 1050 
z
M 634 1978 
L 1939 1978 
Q 1882 2381 1750 2547 
Q 1619 2714 1312 2714 
Q 1043 2714 864 2525 
Q 685 2336 634 1978 
z
" transform="scale(0.015625)"/>
       <path id="STIXGeneral-Regular-74" d="M 1702 493 
L 1786 422 
Q 1478 -64 1011 -64 
Q 448 -64 448 749 
L 448 2675 
L 109 2675 
Q 83 2694 83 2720 
Q 83 2771 192 2842 
Q 435 2982 813 3526 
Q 826 3546 874 3606 
Q 922 3667 941 3706 
Q 986 3706 986 3622 
L 986 2880 
L 1632 2880 
L 1632 2675 
L 986 2675 
L 986 845 
Q 986 538 1062 403 
Q 1139 269 1318 269 
Q 1510 269 1702 493 
z
" transform="scale(0.015625)"/>
       <path id="STIXGeneral-Regular-53" d="M 3002 2963 
L 2842 2963 
Q 2733 3360 2579 3565 
Q 2189 4064 1651 4064 
Q 1357 4064 1181 3894 
Q 1005 3725 1005 3456 
Q 1005 3328 1069 3206 
Q 1133 3085 1206 2998 
Q 1280 2912 1465 2784 
Q 1651 2656 1766 2589 
Q 1882 2522 2150 2362 
Q 2669 2061 2905 1763 
Q 3142 1466 3142 1107 
Q 3142 576 2771 243 
Q 2400 -90 1837 -90 
Q 1421 -90 1082 58 
Q 915 128 781 128 
Q 704 128 653 70 
Q 602 13 602 -83 
L 461 -83 
L 275 1274 
L 416 1274 
Q 845 141 1734 141 
Q 2074 141 2285 342 
Q 2496 544 2496 858 
Q 2496 1158 2310 1363 
Q 2003 1696 1235 2106 
Q 454 2522 454 3206 
Q 454 3718 768 4022 
Q 1082 4326 1568 4326 
Q 1907 4326 2240 4186 
Q 2413 4109 2522 4109 
Q 2688 4109 2726 4326 
L 2861 4326 
L 3002 2963 
z
" transform="scale(0.015625)"/>
       <path id="STIXGeneral-Regular-70" d="M 1018 2931 
L 1018 2438 
Q 1421 2944 1939 2944 
Q 2406 2944 2707 2560 
Q 3008 2176 3008 1581 
Q 3008 883 2621 409 
Q 2234 -64 1664 -64 
Q 1466 -64 1328 -6 
Q 1190 51 1018 211 
L 1018 -794 
Q 1018 -1094 1120 -1180 
Q 1222 -1267 1581 -1274 
L 1581 -1389 
L 32 -1389 
L 32 -1280 
Q 314 -1254 397 -1171 
Q 480 -1088 480 -838 
L 480 2157 
Q 480 2381 429 2451 
Q 378 2522 218 2522 
Q 115 2522 58 2515 
L 58 2618 
Q 506 2752 979 2944 
L 1018 2931 
z
M 1018 2138 
L 1018 563 
Q 1018 422 1238 281 
Q 1459 141 1683 141 
Q 2029 141 2243 467 
Q 2458 794 2458 1325 
Q 2458 1888 2243 2224 
Q 2029 2560 1670 2560 
Q 1446 2560 1232 2419 
Q 1018 2278 1018 2138 
z
" transform="scale(0.015625)"/>
       <path id="STIXGeneral-Regular-73" d="M 998 1926 
L 1664 1523 
Q 1984 1331 2105 1164 
Q 2227 998 2227 736 
Q 2227 416 1961 176 
Q 1696 -64 1331 -64 
Q 1030 -64 864 -6 
Q 691 51 570 51 
Q 461 51 416 -26 
L 333 -26 
L 333 979 
L 435 979 
Q 538 512 730 294 
Q 922 77 1248 77 
Q 1485 77 1632 211 
Q 1779 346 1779 550 
Q 1779 845 1440 1030 
L 1094 1222 
Q 326 1651 326 2150 
Q 326 2522 566 2730 
Q 806 2938 1210 2938 
Q 1491 2938 1638 2867 
Q 1754 2816 1818 2816 
Q 1862 2816 1920 2880 
L 1990 2880 
L 2022 2010 
L 1926 2010 
Q 1818 2445 1654 2621 
Q 1491 2797 1203 2797 
Q 986 2797 854 2688 
Q 723 2579 723 2362 
Q 723 2253 796 2128 
Q 870 2003 998 1926 
z
" transform="scale(0.015625)"/>
      </defs>
      <use xlink:href="#STIXGeneral-Regular-54"/>
      <use xlink:href="#STIXGeneral-Regular-72" x="61.099991"/>
      <use xlink:href="#STIXGeneral-Regular-61" x="94.399979"/>
      <use xlink:href="#STIXGeneral-Regular-69" x="138.799973"/>
      <use xlink:href="#STIXGeneral-Regular-6e" x="166.59996"/>
      <use xlink:href="#STIXGeneral-Regular-69" x="216.599945"/>
      <use xlink:href="#STIXGeneral-Regular-6e" x="244.399933"/>
      <use xlink:href="#STIXGeneral-Regular-67" x="294.399918"/>
      <use xlink:href="#STIXGeneral-Regular-20" x="344.399902"/>
      <use xlink:href="#STIXGeneral-Regular-45" x="369.399887"/>
      <use xlink:href="#STIXGeneral-Regular-6e" x="430.499878"/>
      <use xlink:href="#STIXGeneral-Regular-76" x="480.499863"/>
      <use xlink:href="#STIXGeneral-Regular-69" x="530.499847"/>
      <use xlink:href="#STIXGeneral-Regular-72" x="558.299835"/>
      <use xlink:href="#STIXGeneral-Regular-6f" x="591.599823"/>
      <use xlink:href="#STIXGeneral-Regular-6e" x="641.599808"/>
      <use xlink:href="#STIXGeneral-Regular-6d" x="691.599792"/>
      <use xlink:href="#STIXGeneral-Regular-65" x="769.39978"/>
      <use xlink:href="#STIXGeneral-Regular-6e" x="813.799774"/>
      <use xlink:href="#STIXGeneral-Regular-74" x="863.799759"/>
      <use xlink:href="#STIXGeneral-Regular-20" x="891.599747"/>
      <use xlink:href="#STIXGeneral-Regular-53" x="916.599731"/>
      <use xlink:href="#STIXGeneral-Regular-74" x="972.199722"/>
      <use xlink:href="#STIXGeneral-Regular-65" x="999.99971"/>
      <use xlink:href="#STIXGeneral-Regular-70" x="1044.399704"/>
      <use xlink:href="#STIXGeneral-Regular-73" x="1094.399689"/>
     </g>
    </g>
    <g id="text_9">
     <!-- 1e8 -->
     <g transform="translate(490.806875 343.645562)scale(0.18 -0.18)">
      <defs>
       <path id="STIXGeneral-Regular-38" d="M 2848 992 
Q 2848 499 2505 204 
Q 2163 -90 1587 -90 
Q 1050 -90 704 204 
Q 358 499 358 954 
Q 358 1293 524 1533 
Q 691 1773 1190 2125 
Q 710 2522 553 2765 
Q 397 3008 397 3328 
Q 397 3782 745 4054 
Q 1094 4326 1638 4326 
Q 2106 4326 2410 4060 
Q 2714 3795 2714 3411 
Q 2714 3059 2531 2848 
Q 2349 2637 1856 2374 
Q 2432 1990 2640 1689 
Q 2848 1389 2848 992 
z
M 2272 3411 
Q 2272 3744 2086 3945 
Q 1901 4147 1574 4147 
Q 1248 4147 1059 3977 
Q 870 3808 870 3513 
Q 870 3219 1059 2979 
Q 1248 2739 1670 2490 
Q 1997 2682 2134 2896 
Q 2272 3110 2272 3411 
z
M 1734 1741 
L 1357 1997 
Q 1075 1766 960 1545 
Q 845 1325 845 1011 
Q 845 576 1065 333 
Q 1286 90 1658 90 
Q 1971 90 2166 285 
Q 2362 480 2362 794 
Q 2362 1082 2214 1299 
Q 2067 1517 1734 1741 
z
" transform="scale(0.015625)"/>
      </defs>
      <use xlink:href="#STIXGeneral-Regular-31"/>
      <use xlink:href="#STIXGeneral-Regular-65" x="49.999985"/>
      <use xlink:href="#STIXGeneral-Regular-38" x="94.399979"/>
     </g>
    </g>
   </g>
   <g id="matplotlib.axis_2">
    <g id="ytick_1">
     <g id="line2d_15">
      <path d="M 70.4 292.817699 
L 516.8 292.817699 
" clip-path="url(#pde9e10882f)" style="fill: none; stroke: #b0b0b0; stroke-width: 0.8; stroke-linecap: square"/>
     </g>
     <g id="line2d_16">
      <defs>
       <path id="m51a8be3ef0" d="M 0 0 
L -3.5 0 
" style="stroke: #000000; stroke-width: 0.8"/>
      </defs>
      <g>
       <use xlink:href="#m51a8be3ef0" x="70.4" y="292.817699" style="stroke: #000000; stroke-width: 0.8"/>
      </g>
     </g>
     <g id="text_10">
      <!-- 0 -->
      <g transform="translate(54.4 298.964418)scale(0.18 -0.18)">
       <use xlink:href="#STIXGeneral-Regular-30"/>
      </g>
     </g>
    </g>
    <g id="ytick_2">
     <g id="line2d_17">
      <path d="M 70.4 230.106468 
L 516.8 230.106468 
" clip-path="url(#pde9e10882f)" style="fill: none; stroke: #b0b0b0; stroke-width: 0.8; stroke-linecap: square"/>
     </g>
     <g id="line2d_18">
      <g>
       <use xlink:href="#m51a8be3ef0" x="70.4" y="230.106468" style="stroke: #000000; stroke-width: 0.8"/>
      </g>
     </g>
     <g id="text_11">
      <!-- 1000 -->
      <g transform="translate(27.4 236.253186)scale(0.18 -0.18)">
       <use xlink:href="#STIXGeneral-Regular-31"/>
       <use xlink:href="#STIXGeneral-Regular-30" x="49.999985"/>
       <use xlink:href="#STIXGeneral-Regular-30" x="99.999969"/>
       <use xlink:href="#STIXGeneral-Regular-30" x="149.999954"/>
      </g>
     </g>
    </g>
    <g id="ytick_3">
     <g id="line2d_19">
      <path d="M 70.4 167.395236 
L 516.8 167.395236 
" clip-path="url(#pde9e10882f)" style="fill: none; stroke: #b0b0b0; stroke-width: 0.8; stroke-linecap: square"/>
     </g>
     <g id="line2d_20">
      <g>
       <use xlink:href="#m51a8be3ef0" x="70.4" y="167.395236" style="stroke: #000000; stroke-width: 0.8"/>
      </g>
     </g>
     <g id="text_12">
      <!-- 2000 -->
      <g transform="translate(27.4 173.541955)scale(0.18 -0.18)">
       <use xlink:href="#STIXGeneral-Regular-32"/>
       <use xlink:href="#STIXGeneral-Regular-30" x="49.999985"/>
       <use xlink:href="#STIXGeneral-Regular-30" x="99.999969"/>
       <use xlink:href="#STIXGeneral-Regular-30" x="149.999954"/>
      </g>
     </g>
    </g>
    <g id="ytick_4">
     <g id="line2d_21">
      <path d="M 70.4 104.684004 
L 516.8 104.684004 
" clip-path="url(#pde9e10882f)" style="fill: none; stroke: #b0b0b0; stroke-width: 0.8; stroke-linecap: square"/>
     </g>
     <g id="line2d_22">
      <g>
       <use xlink:href="#m51a8be3ef0" x="70.4" y="104.684004" style="stroke: #000000; stroke-width: 0.8"/>
      </g>
     </g>
     <g id="text_13">
      <!-- 3000 -->
      <g transform="translate(27.4 110.830723)scale(0.18 -0.18)">
       <use xlink:href="#STIXGeneral-Regular-33"/>
       <use xlink:href="#STIXGeneral-Regular-30" x="49.999985"/>
       <use xlink:href="#STIXGeneral-Regular-30" x="99.999969"/>
       <use xlink:href="#STIXGeneral-Regular-30" x="149.999954"/>
      </g>
     </g>
    </g>
    <g id="ytick_5">
     <g id="line2d_23">
      <path d="M 70.4 41.972773 
L 516.8 41.972773 
" clip-path="url(#pde9e10882f)" style="fill: none; stroke: #b0b0b0; stroke-width: 0.8; stroke-linecap: square"/>
     </g>
     <g id="line2d_24">
      <g>
       <use xlink:href="#m51a8be3ef0" x="70.4" y="41.972773" style="stroke: #000000; stroke-width: 0.8"/>
      </g>
     </g>
     <g id="text_14">
      <!-- 4000 -->
      <g transform="translate(27.4 48.119492)scale(0.18 -0.18)">
       <defs>
        <path id="STIXGeneral-Regular-34" d="M 3027 1069 
L 2368 1069 
L 2368 0 
L 1869 0 
L 1869 1069 
L 77 1069 
L 77 1478 
L 2086 4326 
L 2368 4326 
L 2368 1478 
L 3027 1478 
L 3027 1069 
z
M 1869 1478 
L 1869 3674 
L 333 1478 
L 1869 1478 
z
" transform="scale(0.015625)"/>
       </defs>
       <use xlink:href="#STIXGeneral-Regular-34"/>
       <use xlink:href="#STIXGeneral-Regular-30" x="49.999985"/>
       <use xlink:href="#STIXGeneral-Regular-30" x="99.999969"/>
       <use xlink:href="#STIXGeneral-Regular-30" x="149.999954"/>
      </g>
     </g>
    </g>
    <g id="text_15">
     <!-- Average Test Return -->
     <g transform="translate(19.476562 241.533375)rotate(-90)scale(0.18 -0.18)">
      <defs>
       <path id="STIXGeneral-Regular-41" d="M 4525 0 
L 2893 0 
L 2893 122 
Q 3149 122 3245 179 
Q 3334 224 3334 333 
Q 3334 499 3213 781 
L 2950 1382 
L 1274 1382 
L 979 653 
Q 922 506 922 384 
Q 922 237 1027 179 
Q 1133 122 1370 122 
L 1370 0 
L 96 0 
L 96 122 
Q 365 147 486 316 
Q 608 486 902 1190 
L 2221 4314 
L 2349 4314 
L 3923 710 
Q 4064 378 4176 262 
Q 4288 147 4525 122 
L 4525 0 
z
M 2861 1645 
L 2118 3405 
L 1382 1645 
L 2861 1645 
z
" transform="scale(0.015625)"/>
       <path id="STIXGeneral-Regular-52" d="M 4224 0 
L 3187 0 
L 1664 1971 
L 1306 1958 
L 1306 717 
Q 1306 352 1405 249 
Q 1504 147 1875 122 
L 1875 0 
L 109 0 
L 109 122 
Q 474 154 563 262 
Q 653 371 653 794 
L 653 3526 
Q 653 3885 563 3987 
Q 474 4090 109 4115 
L 109 4237 
L 1850 4237 
Q 2726 4237 3187 3859 
Q 3501 3603 3501 3091 
Q 3501 2221 2342 2042 
L 3622 422 
Q 3757 256 3878 198 
Q 4000 141 4224 122 
L 4224 0 
z
M 1306 3731 
L 1306 2195 
Q 1766 2202 1990 2246 
Q 2214 2291 2438 2413 
Q 2803 2618 2803 3142 
Q 2803 4000 1632 4000 
Q 1459 4000 1382 3945 
Q 1306 3891 1306 3731 
z
" transform="scale(0.015625)"/>
       <path id="STIXGeneral-Regular-75" d="M 3072 320 
L 3072 230 
Q 2573 96 2195 -58 
L 2163 -38 
L 2163 486 
L 2150 486 
Q 1747 -64 1235 -64 
Q 870 -64 662 160 
Q 454 384 454 755 
L 454 2362 
Q 454 2598 371 2688 
Q 288 2778 58 2790 
L 58 2880 
L 992 2880 
L 992 813 
Q 992 595 1123 451 
Q 1254 307 1446 307 
Q 1760 307 1984 506 
Q 2067 582 2099 649 
Q 2131 717 2131 877 
L 2131 2355 
Q 2131 2605 2041 2678 
Q 1952 2752 1658 2771 
L 1658 2880 
L 2669 2880 
L 2669 685 
Q 2669 461 2742 390 
Q 2816 320 3034 320 
L 3072 320 
z
" transform="scale(0.015625)"/>
      </defs>
      <use xlink:href="#STIXGeneral-Regular-41"/>
      <use xlink:href="#STIXGeneral-Regular-76" x="72.199982"/>
      <use xlink:href="#STIXGeneral-Regular-65" x="122.199966"/>
      <use xlink:href="#STIXGeneral-Regular-72" x="166.59996"/>
      <use xlink:href="#STIXGeneral-Regular-61" x="199.899948"/>
      <use xlink:href="#STIXGeneral-Regular-67" x="244.299942"/>
      <use xlink:href="#STIXGeneral-Regular-65" x="294.299927"/>
      <use xlink:href="#STIXGeneral-Regular-20" x="338.699921"/>
      <use xlink:href="#STIXGeneral-Regular-54" x="363.699905"/>
      <use xlink:href="#STIXGeneral-Regular-65" x="424.799896"/>
      <use xlink:href="#STIXGeneral-Regular-73" x="469.19989"/>
      <use xlink:href="#STIXGeneral-Regular-74" x="508.099884"/>
      <use xlink:href="#STIXGeneral-Regular-20" x="535.899872"/>
      <use xlink:href="#STIXGeneral-Regular-52" x="560.899857"/>
      <use xlink:href="#STIXGeneral-Regular-65" x="627.599854"/>
      <use xlink:href="#STIXGeneral-Regular-74" x="671.999847"/>
      <use xlink:href="#STIXGeneral-Regular-75" x="699.799835"/>
      <use xlink:href="#STIXGeneral-Regular-72" x="749.79982"/>
      <use xlink:href="#STIXGeneral-Regular-6e" x="783.099808"/>
     </g>
    </g>
   </g>
   <g id="line2d_25">
    <path d="M 90.690909 292.402073 
L 93.784822 292.484608 
L 94.816126 292.524037 
L 95.589604 292.532999 
L 96.620908 292.466322 
L 103.582211 292.349893 
L 104.097863 292.326665 
L 105.129167 292.345064 
L 106.418297 292.46408 
L 106.933949 292.435057 
L 109.254384 292.219197 
L 111.832644 292.387938 
L 112.606122 292.323129 
L 112.863948 292.056284 
L 113.3796 292.1732 
L 113.895252 292.192291 
L 114.668731 292.243966 
L 115.442209 292.171044 
L 115.700035 292.061525 
L 116.215687 292.216882 
L 116.731339 292.164144 
L 117.504817 292.12629 
L 118.278295 292.175762 
L 119.825251 292.060679 
L 120.083077 291.881542 
L 120.856555 292.038426 
L 121.372207 292.01919 
L 121.630033 291.776812 
L 121.88786 291.753117 
L 122.661338 292.058818 
L 122.919164 292.029079 
L 123.434816 292.227659 
L 124.208294 292.084761 
L 124.723946 291.902604 
L 125.239598 292.084096 
L 125.497424 291.969789 
L 126.013076 292.27374 
L 127.560032 292.284932 
L 128.075684 292.318278 
L 129.106989 292.117703 
L 129.622641 292.1108 
L 130.138293 292.044508 
L 130.396119 291.384149 
L 130.653945 291.74543 
L 131.169597 291.892345 
L 131.427423 291.878328 
L 131.685249 292.006189 
L 132.458727 292.041332 
L 132.974379 292.102098 
L 133.490031 291.967444 
L 134.005683 292.088474 
L 134.263509 292.156762 
L 134.521335 292.060162 
L 135.294813 292.225994 
L 135.552639 292.092291 
L 135.810466 291.659683 
L 136.068292 291.844413 
L 138.904378 292.137594 
L 139.162204 291.948895 
L 139.42003 291.898307 
L 139.677856 291.982054 
L 139.935682 291.902874 
L 140.451334 292.159028 
L 140.966986 291.940394 
L 141.224812 292.076123 
L 141.482638 291.719715 
L 142.256116 292.17525 
L 142.513942 291.934431 
L 142.771769 292.020979 
L 143.029595 291.957456 
L 143.545247 292.071967 
L 143.803073 291.78607 
L 144.060899 291.999176 
L 144.318725 291.553689 
L 144.576551 291.80893 
L 144.834377 291.688591 
L 145.092203 291.069258 
L 145.350029 291.143292 
L 145.607855 291.539308 
L 145.865681 291.556896 
L 146.123507 291.428806 
L 146.381333 291.767207 
L 146.639159 291.857294 
L 146.896985 291.803253 
L 147.154811 291.16935 
L 147.670463 291.660363 
L 148.443941 291.991713 
L 148.959593 292.045651 
L 149.217419 292.062651 
L 149.733072 291.702534 
L 149.990898 291.438745 
L 151.022202 291.967546 
L 151.280028 291.821823 
L 151.537854 291.85199 
L 152.053506 291.690639 
L 152.569158 291.645228 
L 153.08481 291.949925 
L 153.858288 291.990043 
L 154.116114 291.542674 
L 154.631766 291.510292 
L 154.889592 291.586135 
L 155.405244 291.89112 
L 155.920896 291.989725 
L 157.210027 291.816861 
L 157.725679 291.973424 
L 158.241331 292.015621 
L 158.499157 291.759785 
L 158.756983 291.901028 
L 159.014809 291.731836 
L 159.272635 291.917225 
L 160.046113 291.964339 
L 160.303939 291.688272 
L 160.561765 291.581657 
L 161.077417 291.54573 
L 161.335243 291.800391 
L 161.593069 291.887765 
L 162.366547 291.328434 
L 162.624373 291.533663 
L 163.140025 291.180265 
L 163.397851 291.48942 
L 163.655677 291.401433 
L 163.913504 291.658388 
L 164.17133 291.679119 
L 164.429156 291.401568 
L 164.686982 290.82608 
L 165.202634 291.345417 
L 165.46046 291.395145 
L 165.718286 290.895801 
L 165.976112 290.9432 
L 166.233938 291.231352 
L 166.491764 290.722417 
L 167.007416 291.085032 
L 167.265242 291.385822 
L 168.03872 290.482556 
L 168.812198 290.445478 
L 169.070024 290.89135 
L 169.32785 290.916154 
L 169.843502 290.400802 
L 170.101328 289.896557 
L 170.61698 290.760424 
L 170.874807 290.616569 
L 171.390459 291.139541 
L 172.421763 290.967717 
L 172.937415 291.362816 
L 173.195241 291.113107 
L 173.453067 291.378223 
L 173.710893 291.045501 
L 173.968719 290.917781 
L 174.484371 291.4226 
L 174.742197 290.828636 
L 175.515675 291.698619 
L 175.773501 291.413012 
L 176.031327 291.753853 
L 176.546979 291.305607 
L 176.804805 291.20106 
L 177.062631 291.464096 
L 177.320457 291.257911 
L 177.578283 291.524712 
L 177.83611 291.218067 
L 178.093936 291.152296 
L 178.351762 291.291565 
L 178.609588 291.225116 
L 178.867414 291.367752 
L 179.12524 291.333123 
L 179.383066 291.186004 
L 179.640892 291.289783 
L 179.898718 290.773315 
L 180.156544 291.027947 
L 180.41437 290.960633 
L 180.672196 290.717901 
L 181.187848 291.05118 
L 181.445674 290.980586 
L 182.219152 291.528647 
L 182.476978 291.562061 
L 182.734804 291.735203 
L 182.99263 291.472221 
L 183.250456 291.507557 
L 183.508282 291.348333 
L 183.766108 290.979488 
L 184.023934 291.049676 
L 184.539586 290.878131 
L 184.797412 291.123654 
L 185.055239 291.147927 
L 185.313065 291.029456 
L 185.570891 291.104104 
L 185.828717 290.857069 
L 186.086543 290.933498 
L 186.344369 290.786323 
L 186.860021 291.202551 
L 187.117847 291.312127 
L 187.375673 290.890433 
L 187.633499 291.031615 
L 187.891325 290.354435 
L 188.149151 290.646588 
L 188.406977 290.498557 
L 188.664803 290.092118 
L 188.922629 290.475025 
L 189.180455 290.430176 
L 189.696107 291.362993 
L 189.953933 290.868492 
L 190.211759 290.647955 
L 190.469585 290.743303 
L 190.727411 289.887 
L 190.985237 290.339129 
L 191.500889 290.457105 
L 191.758715 290.537292 
L 192.016542 291.204805 
L 192.274368 290.975702 
L 192.532194 291.267183 
L 193.305672 290.457408 
L 193.563498 290.479139 
L 193.821324 290.345352 
L 194.07915 289.94973 
L 194.336976 289.330064 
L 194.594802 289.273406 
L 194.852628 288.973978 
L 195.110454 289.184238 
L 195.626106 290.368897 
L 195.883932 290.358791 
L 196.141758 290.087648 
L 196.399584 290.604014 
L 196.65741 290.500435 
L 197.688714 291.398336 
L 197.94654 290.282161 
L 198.204366 290.697393 
L 198.720018 290.022807 
L 199.235671 290.738256 
L 199.751323 290.933881 
L 200.009149 290.870274 
L 200.266975 290.962864 
L 200.524801 290.306826 
L 200.782627 290.196827 
L 201.040453 289.685711 
L 201.298279 289.42175 
L 201.556105 289.410966 
L 201.813931 288.475976 
L 202.071757 288.25832 
L 202.329583 287.535681 
L 202.845235 288.666114 
L 203.360887 289.598745 
L 203.618713 288.566832 
L 203.876539 289.536237 
L 204.134365 289.779364 
L 204.392191 289.056365 
L 204.650017 287.922107 
L 204.907843 288.445606 
L 205.423495 287.88559 
L 205.681321 289.021454 
L 205.939148 288.388586 
L 206.196974 288.995216 
L 206.4548 289.269004 
L 206.970452 288.515159 
L 207.228278 288.686921 
L 207.486104 289.540204 
L 208.259582 289.74382 
L 208.517408 289.417141 
L 208.775234 289.714722 
L 209.03306 289.000739 
L 209.290886 289.347292 
L 209.548712 289.420605 
L 210.064364 290.724972 
L 210.32219 289.751457 
L 210.580016 289.754673 
L 210.837842 289.593509 
L 211.095668 288.769776 
L 211.353494 289.005898 
L 211.61132 288.259353 
L 211.869146 288.985277 
L 212.126972 287.825106 
L 212.900451 289.346261 
L 213.158277 289.103995 
L 213.416103 287.863911 
L 213.673929 287.903584 
L 213.931755 286.500656 
L 214.189581 287.897508 
L 214.447407 286.130591 
L 214.705233 287.049499 
L 214.963059 288.722379 
L 215.220885 288.263129 
L 215.478711 289.088575 
L 215.736537 287.779782 
L 216.252189 290.275933 
L 216.510015 290.871592 
L 216.767841 290.82223 
L 217.025667 291.052941 
L 217.283493 291.029722 
L 217.541319 291.37581 
L 217.799145 290.388588 
L 218.056971 290.995155 
L 218.314797 290.723906 
L 218.572623 290.086122 
L 218.830449 290.620484 
L 219.088275 290.518368 
L 219.346101 291.049529 
L 219.861753 291.404451 
L 220.11958 291.437965 
L 220.377406 291.612704 
L 220.635232 291.175167 
L 220.893058 291.112631 
L 221.150884 291.346244 
L 221.666536 290.44537 
L 221.924362 290.474671 
L 222.182188 290.132552 
L 222.440014 290.584234 
L 222.69784 290.657406 
L 222.955666 290.584636 
L 223.213492 290.377742 
L 223.729144 290.99888 
L 223.98697 291.317187 
L 224.244796 291.096706 
L 224.502622 291.037545 
L 224.760448 290.243539 
L 225.018274 288.794165 
L 225.2761 289.442707 
L 225.533926 289.031331 
L 225.791752 289.668159 
L 226.049578 289.567928 
L 226.307404 289.977129 
L 226.56523 288.718173 
L 226.823056 289.220815 
L 227.080883 289.083412 
L 227.596535 290.174984 
L 227.854361 290.040766 
L 228.112187 289.539518 
L 228.370013 290.404856 
L 228.627839 290.380808 
L 228.885665 290.014385 
L 229.143491 290.658994 
L 229.659143 288.703657 
L 229.916969 288.917006 
L 230.174795 288.631062 
L 230.432621 287.280805 
L 230.690447 287.856376 
L 230.948273 287.921932 
L 231.206099 287.465422 
L 231.463925 289.06154 
L 231.721751 289.289905 
L 231.979577 290.027246 
L 232.237403 289.520588 
L 232.495229 289.746987 
L 232.753055 288.422767 
L 233.010881 288.70579 
L 233.268707 289.4415 
L 233.526533 288.459541 
L 233.784359 288.62066 
L 234.042186 289.273479 
L 234.557838 287.579766 
L 234.815664 288.11321 
L 235.07349 289.162631 
L 235.331316 288.900538 
L 235.589142 288.255635 
L 235.846968 288.380398 
L 236.104794 289.434805 
L 236.36262 288.534601 
L 236.620446 288.436984 
L 236.878272 288.703237 
L 237.136098 288.08437 
L 237.393924 288.378891 
L 237.65175 289.616605 
L 237.909576 290.058302 
L 238.167402 289.816743 
L 238.425228 290.329535 
L 238.683054 290.478984 
L 238.94088 290.422598 
L 239.198706 290.130244 
L 239.456532 290.661183 
L 239.714358 290.355911 
L 239.972184 290.976573 
L 240.23001 290.921037 
L 240.487836 289.551759 
L 240.745662 289.301456 
L 241.003489 289.222463 
L 241.261315 288.643838 
L 241.519141 289.589525 
L 241.776967 289.358792 
L 242.034793 287.601101 
L 242.808271 288.289201 
L 243.581749 289.012912 
L 243.839575 289.968501 
L 244.097401 289.186057 
L 244.355227 289.705637 
L 244.613053 289.287339 
L 244.870879 290.325413 
L 245.128705 288.965282 
L 245.386531 289.399369 
L 246.417835 289.311786 
L 246.933487 290.803449 
L 247.191313 289.837107 
L 247.449139 289.44675 
L 247.964791 288.173377 
L 248.222618 288.778219 
L 248.480444 288.493485 
L 248.73827 288.782977 
L 248.996096 288.331512 
L 249.253922 289.213228 
L 249.511748 289.618495 
L 249.769574 289.365383 
L 250.0274 289.848089 
L 250.285226 290.022536 
L 250.543052 289.777035 
L 251.574356 291.086913 
L 252.090008 289.120134 
L 252.347834 289.339738 
L 252.60566 288.665706 
L 252.863486 288.834053 
L 253.636964 286.722519 
L 253.89479 286.645121 
L 254.152616 287.178545 
L 254.410442 286.764723 
L 254.668268 285.010519 
L 254.926094 284.105918 
L 255.183921 283.705619 
L 255.699573 285.31373 
L 255.957399 284.090899 
L 256.215225 286.080535 
L 256.473051 285.563569 
L 256.730877 286.130524 
L 256.988703 287.461084 
L 257.246529 288.172052 
L 257.504355 287.55241 
L 257.762181 287.774825 
L 258.020007 287.315985 
L 258.277833 287.483259 
L 258.535659 285.853384 
L 258.793485 286.863835 
L 259.309137 285.936376 
L 259.566963 284.489142 
L 259.824789 284.825936 
L 260.340441 287.109058 
L 260.598267 286.662201 
L 260.856093 284.429763 
L 261.113919 285.068035 
L 261.371745 284.220166 
L 261.887397 283.600942 
L 262.40305 285.140319 
L 262.660876 284.280676 
L 262.918702 285.235704 
L 263.176528 284.560603 
L 263.434354 285.376409 
L 263.69218 285.631028 
L 263.950006 285.483575 
L 264.207832 285.874612 
L 264.465658 288.045889 
L 264.723484 286.428727 
L 264.98131 286.803142 
L 265.239136 287.405166 
L 265.496962 285.547842 
L 265.754788 285.016318 
L 266.012614 286.57538 
L 266.27044 286.826964 
L 266.528266 286.499699 
L 266.786092 287.101365 
L 267.301744 287.081485 
L 267.55957 286.644101 
L 267.817396 284.95453 
L 268.075222 287.222867 
L 268.590874 289.284554 
L 268.8487 289.455674 
L 269.364353 287.837227 
L 269.880005 289.91218 
L 270.137831 289.238114 
L 270.395657 289.227662 
L 270.653483 288.695784 
L 270.911309 289.757354 
L 271.426961 290.136172 
L 271.684787 289.857811 
L 272.200439 290.665426 
L 272.716091 290.695827 
L 272.973917 290.572168 
L 273.231743 289.745953 
L 273.747395 284.980421 
L 274.005221 285.114212 
L 274.263047 285.00778 
L 274.520873 286.443501 
L 274.778699 286.825132 
L 275.036525 286.856176 
L 275.294351 287.626572 
L 275.552177 286.809758 
L 275.810003 286.408936 
L 276.06783 287.514965 
L 276.325656 287.667727 
L 276.583482 288.185399 
L 276.841308 287.830766 
L 277.099134 286.550894 
L 277.614786 288.627867 
L 278.388264 288.19029 
L 278.64609 286.484481 
L 278.903916 287.355144 
L 279.161742 288.705551 
L 279.419568 287.618392 
L 279.677394 288.700648 
L 279.93522 288.755836 
L 280.450872 288.202975 
L 280.966524 289.702706 
L 281.22435 288.969885 
L 281.482176 289.38079 
L 281.740002 288.68531 
L 281.997828 287.642619 
L 282.51348 289.329713 
L 282.771306 287.77648 
L 283.029132 287.1149 
L 283.286959 287.376078 
L 283.544785 285.445912 
L 283.802611 284.651112 
L 284.060437 285.732312 
L 284.318263 286.156135 
L 284.576089 286.293705 
L 284.833915 285.327802 
L 285.091741 286.008626 
L 285.349567 285.368249 
L 285.607393 286.890345 
L 285.865219 287.366736 
L 286.123045 287.392047 
L 286.380871 286.495941 
L 286.638697 286.621217 
L 286.896523 287.068932 
L 287.154349 288.150808 
L 287.412175 288.311894 
L 287.670001 288.210679 
L 288.185653 289.771158 
L 288.443479 289.683558 
L 288.701305 288.261952 
L 288.959131 288.776291 
L 289.216957 288.520658 
L 289.474783 287.938627 
L 289.732609 287.870472 
L 289.990435 288.327836 
L 290.506088 287.436141 
L 291.537392 289.890749 
L 291.795218 289.179893 
L 292.053044 289.584408 
L 292.31087 289.772447 
L 292.568696 289.1264 
L 292.826522 288.141868 
L 293.084348 289.388528 
L 293.6 288.865785 
L 293.857826 289.008983 
L 294.115652 288.550676 
L 294.373478 289.253989 
L 294.631304 288.920469 
L 294.88913 289.751107 
L 295.404782 289.429713 
L 295.662608 289.805925 
L 295.920434 290.382644 
L 296.17826 287.960227 
L 296.436086 288.923885 
L 296.693912 288.827562 
L 296.951738 287.965547 
L 297.209565 289.437219 
L 297.467391 289.792081 
L 297.725217 290.5939 
L 297.983043 290.46105 
L 298.240869 290.460666 
L 298.498695 290.322347 
L 298.756521 290.638816 
L 299.014347 290.261038 
L 299.272173 289.263945 
L 299.529999 290.338773 
L 299.787825 290.169326 
L 300.303477 291.24183 
L 300.561303 290.936799 
L 300.819129 291.258916 
L 301.076955 291.007859 
L 301.592607 291.656398 
L 301.850433 290.855459 
L 302.108259 290.669992 
L 302.623911 291.562809 
L 302.881737 291.710677 
L 303.397389 291.739635 
L 303.913041 291.958607 
L 304.170868 291.857639 
L 304.428694 291.892869 
L 304.68652 291.644751 
L 305.202172 291.858723 
L 305.459998 291.952318 
L 305.717824 291.414932 
L 305.97565 291.372353 
L 306.233476 291.611296 
L 306.491302 291.559905 
L 307.26478 291.970019 
L 307.780432 292.03472 
L 308.038258 291.522081 
L 308.296084 291.715756 
L 308.55391 291.685466 
L 308.811736 291.843222 
L 309.069562 291.733924 
L 309.327388 291.823771 
L 309.585214 291.322137 
L 309.84304 291.608061 
L 310.100866 291.524781 
L 310.616518 291.824778 
L 310.874344 291.702283 
L 311.389997 291.946603 
L 311.647823 291.965018 
L 311.905649 291.45785 
L 312.163475 291.393285 
L 312.421301 291.468897 
L 312.936953 291.814513 
L 313.710431 291.992873 
L 313.968257 291.883728 
L 314.226083 291.977336 
L 314.741735 291.982967 
L 315.773039 292.078004 
L 316.030865 291.984804 
L 317.062169 292.106391 
L 318.609126 292.12582 
L 319.124778 292.082832 
L 321.187386 292.04036 
L 321.703038 291.38142 
L 322.21869 291.878014 
L 322.734342 292.057266 
L 322.992168 291.571817 
L 323.50782 291.902756 
L 323.765646 291.830137 
L 324.539124 292.047111 
L 324.79695 291.425054 
L 325.054776 291.721322 
L 325.312603 291.686215 
L 325.828255 291.984812 
L 326.086081 291.8413 
L 327.375211 292.108103 
L 327.633037 291.737999 
L 328.148689 292.000232 
L 328.922167 292.128721 
L 329.437819 291.971692 
L 329.953471 292.057086 
L 330.211297 291.894941 
L 330.469123 291.996431 
L 330.726949 291.933531 
L 331.758253 292.120179 
L 332.016079 291.695031 
L 332.531732 291.986099 
L 333.047384 292.05022 
L 333.30521 292.117616 
L 333.563036 291.694628 
L 334.078688 291.995786 
L 334.59434 292.066765 
L 338.46173 292.161668 
L 338.719556 291.621668 
L 339.235209 292.013216 
L 339.493035 292.103001 
L 339.750861 291.810755 
L 341.813469 292.215403 
L 343.102599 292.246576 
L 343.876077 292.275373 
L 344.133903 291.919159 
L 344.391729 291.159717 
L 344.649555 291.513122 
L 344.907381 291.297289 
L 345.423033 291.926557 
L 346.196511 292.211529 
L 346.454338 291.955461 
L 346.712164 292.033272 
L 346.96999 291.626061 
L 347.227816 291.841027 
L 347.485642 291.882437 
L 348.001294 292.132861 
L 348.25912 291.799802 
L 348.774772 292.025602 
L 349.290424 292.14674 
L 349.806076 291.105798 
L 350.063902 290.170839 
L 350.321728 291.015377 
L 350.579554 291.163786 
L 350.83738 289.91929 
L 351.353032 291.341787 
L 351.610858 291.12551 
L 351.868684 291.490115 
L 352.12651 291.390112 
L 352.384336 290.173276 
L 352.642162 290.556664 
L 352.899988 290.518866 
L 353.157814 291.122063 
L 353.415641 290.85116 
L 353.673467 291.312238 
L 353.931293 291.00186 
L 354.189119 291.371605 
L 354.446945 291.328691 
L 354.704771 290.763399 
L 354.962597 289.79677 
L 355.478249 290.488769 
L 355.736075 290.582251 
L 355.993901 291.161757 
L 356.251727 291.142406 
L 356.509553 290.492637 
L 357.025205 291.393238 
L 357.283031 290.887891 
L 357.540857 291.343935 
L 357.798683 291.418238 
L 358.056509 289.995149 
L 358.314335 290.153361 
L 358.572161 289.52893 
L 358.829987 290.499624 
L 359.087813 290.915377 
L 359.345639 290.927152 
L 359.603465 290.822516 
L 359.861291 290.988085 
L 360.119117 291.419783 
L 360.376944 291.628241 
L 360.63477 291.321859 
L 360.892596 290.810653 
L 361.150422 291.285072 
L 361.408248 291.46089 
L 361.666074 291.226514 
L 362.181726 291.779371 
L 362.439552 291.619996 
L 362.697378 291.814218 
L 363.21303 291.862334 
L 363.986508 291.857965 
L 364.244334 291.452727 
L 364.50216 291.704781 
L 364.759986 291.367309 
L 365.017812 291.685589 
L 365.79129 292.054655 
L 366.564768 292.168327 
L 366.822594 291.995369 
L 367.338247 292.106948 
L 367.596073 292.103515 
L 367.853899 291.570535 
L 368.369551 291.832404 
L 368.885203 292.064301 
L 369.143029 291.964534 
L 370.689985 292.124139 
L 371.205637 292.067457 
L 371.463463 292.172937 
L 371.979115 292.029081 
L 372.236941 292.093272 
L 372.752593 292.073723 
L 373.010419 291.776926 
L 373.526071 292.016788 
L 374.299549 292.071931 
L 374.557376 291.960009 
L 377.651288 292.41001 
L 381.003026 292.300431 
L 381.260852 292.178681 
L 381.776505 292.116221 
L 382.034331 291.888319 
L 382.807809 291.857844 
L 383.065635 291.336755 
L 383.323461 291.070371 
L 383.581287 291.19681 
L 383.839113 291.549504 
L 384.096939 291.449167 
L 384.354765 291.473026 
L 384.612591 290.978407 
L 384.870417 291.431339 
L 385.128243 291.654536 
L 387.448677 291.783439 
L 387.964329 291.593308 
L 388.479982 291.860241 
L 388.737808 291.850465 
L 388.995634 291.598592 
L 390.284764 291.79033 
L 390.54259 291.763035 
L 390.800416 291.442193 
L 391.316068 291.663248 
L 391.573894 290.879126 
L 391.83172 291.217003 
L 392.089546 290.819457 
L 392.605198 291.362314 
L 392.863024 291.156578 
L 393.378676 291.477158 
L 393.636502 291.384409 
L 394.667806 291.585765 
L 394.925632 291.242444 
L 395.441285 291.478529 
L 395.699111 291.373795 
L 396.214763 291.51657 
L 396.730415 291.496892 
L 397.503893 291.61982 
L 397.761719 291.546183 
L 398.277371 291.640247 
L 398.535197 291.38555 
L 399.050849 291.570067 
L 399.566501 291.622495 
L 399.824327 291.679965 
L 400.082153 291.389255 
L 401.113457 291.720966 
L 401.629109 291.751268 
L 402.144761 291.677136 
L 403.949544 291.809242 
L 404.20737 291.684492 
L 404.723022 291.745779 
L 404.980848 291.134312 
L 405.238674 291.061821 
L 405.754326 291.323648 
L 406.269978 291.734029 
L 407.301282 291.801091 
L 407.816934 291.814594 
L 408.848238 292.080449 
L 409.879543 292.017078 
L 410.137369 291.811 
L 410.910847 292.085735 
L 411.168673 292.15854 
L 411.684325 292.122552 
L 412.199977 292.196354 
L 412.457803 291.945807 
L 413.231281 292.173261 
L 413.489107 291.563282 
L 414.004759 291.984078 
L 416.325193 292.245865 
L 416.58302 292.042495 
L 417.614324 292.229987 
L 417.87215 292.014249 
L 418.387802 292.204683 
L 419.934758 292.312786 
L 420.192584 292.32405 
L 420.45041 292.04896 
L 420.966062 292.231549 
L 421.481714 292.295322 
L 421.73954 292.214621 
L 422.770844 292.288511 
L 423.544323 292.186581 
L 424.575627 292.329384 
L 424.833453 292.343019 
L 425.091279 291.905688 
L 425.606931 292.190681 
L 426.122583 292.321443 
L 426.638235 291.882574 
L 427.153887 292.193368 
L 427.411713 292.264414 
L 427.669539 292.11311 
L 428.958669 292.367137 
L 430.247799 292.379418 
L 430.505626 292.371465 
L 430.763452 291.883751 
L 431.279104 292.191678 
L 431.794756 292.304943 
L 432.310408 292.302839 
L 432.568234 292.106669 
L 433.599538 292.327182 
L 434.11519 292.323744 
L 435.662146 292.385896 
L 437.724755 292.433879 
L 438.498233 292.438052 
L 439.787363 292.428607 
L 440.045189 292.307849 
L 440.303015 292.358246 
L 440.560841 292.184987 
L 440.818667 292.293328 
L 441.076493 292.183584 
L 441.592145 292.375151 
L 442.623449 292.393561 
L 443.139101 292.414679 
L 443.396927 292.142772 
L 444.170405 292.367665 
L 444.428231 292.404127 
L 444.686058 292.003393 
L 445.20171 292.316535 
L 445.975188 292.453839 
L 446.233014 292.426239 
L 446.49084 292.111071 
L 447.006492 292.361591 
L 448.037796 292.485269 
L 448.811274 292.271532 
L 449.0691 292.163095 
L 449.584752 292.34443 
L 450.100404 292.364781 
L 450.873882 292.474167 
L 450.873882 292.474167 
" clip-path="url(#pde9e10882f)" style="fill: none; stroke: #1f77b4; stroke-width: 1.5; stroke-linecap: square"/>
   </g>
   <g id="line2d_26">
    <path d="M 90.690909 292.31043 
L 91.722213 292.089519 
L 93.011343 291.886621 
L 93.526995 291.868048 
L 97.910038 291.602507 
L 98.683516 291.70888 
L 103.066559 291.391719 
L 103.840037 291.628575 
L 105.902645 291.785928 
L 106.933949 291.687226 
L 108.996558 291.909034 
L 109.51221 291.86125 
L 114.668731 292.155184 
L 119.825251 292.121819 
L 120.340903 292.211317 
L 122.661338 292.167765 
L 123.692642 292.167518 
L 126.013076 292.139416 
L 127.04438 292.171725 
L 128.591336 292.126994 
L 129.880467 292.14089 
L 130.911771 292.129833 
L 133.490031 292.158801 
L 137.873074 292.092898 
L 138.388726 292.128167 
L 139.42003 292.107803 
L 146.123507 292.135114 
L 147.670463 292.103536 
L 148.959593 292.141212 
L 150.764376 292.090881 
L 153.08481 292.161859 
L 157.467853 292.158892 
L 158.241331 292.142048 
L 159.788287 292.118767 
L 165.46046 292.05987 
L 168.812198 292.068747 
L 170.61698 292.025717 
L 181.7035 292.07969 
L 182.99263 292.071319 
L 200.782627 292.115227 
L 202.071757 292.133292 
L 206.712626 292.11255 
L 210.064364 292.103046 
L 211.353494 292.064857 
L 213.158277 292.101458 
L 214.963059 292.034602 
L 217.541319 292.154924 
L 218.056971 292.149306 
L 218.830449 292.261546 
L 236.36262 292.3486 
L 237.136098 292.301357 
L 238.167402 292.30239 
L 252.60566 292.282378 
L 253.121312 292.319747 
L 254.410442 292.30282 
L 255.441747 292.293738 
L 255.957399 292.281136 
L 256.473051 292.30009 
L 256.988703 292.24417 
L 258.535659 292.286974 
L 259.051311 292.209246 
L 260.082615 292.286288 
L 262.40305 292.323155 
L 263.176528 292.264237 
L 269.622179 292.223499 
L 270.395657 292.219591 
L 272.458265 291.951977 
L 275.552177 291.767154 
L 276.325656 291.861295 
L 278.903916 291.806128 
L 280.708698 291.80203 
L 283.286959 291.778679 
L 288.959131 291.820767 
L 289.474783 291.739469 
L 290.506088 291.846248 
L 291.537392 291.805846 
L 292.568696 291.810236 
L 295.404782 291.742877 
L 296.436086 291.720717 
L 297.725217 291.751331 
L 299.529999 291.70829 
L 302.108259 291.81744 
L 304.428694 291.798015 
L 306.233476 291.89247 
L 313.452605 291.711867 
L 326.086081 291.777756 
L 328.406515 291.701143 
L 328.664341 291.704745 
L 328.922167 291.535642 
L 330.211297 291.762011 
L 331.500427 291.731087 
L 333.30521 291.68962 
L 334.336514 291.78784 
L 338.719556 291.62096 
L 339.493035 291.634844 
L 340.266513 291.618012 
L 345.423033 291.709274 
L 345.938685 291.697932 
L 351.868684 291.68955 
L 352.899988 291.730759 
L 353.931293 291.680842 
L 354.704771 291.68938 
L 355.993901 291.670314 
L 357.025205 291.695936 
L 360.376944 291.668397 
L 384.096939 291.684104 
L 388.995634 291.711406 
L 390.284764 291.624044 
L 390.800416 291.671677 
L 391.316068 291.677115 
L 392.089546 291.616517 
L 392.605198 291.671878 
L 393.894328 291.589751 
L 394.925632 291.627632 
L 396.472589 291.620543 
L 396.988241 291.59639 
L 398.019545 291.640319 
L 399.308675 291.65901 
L 401.886935 291.589128 
L 402.660414 291.499757 
L 407.043456 291.546348 
L 408.07476 291.599595 
L 408.848238 291.615238 
L 410.910847 291.598241 
L 411.168673 291.584858 
L 411.426499 291.30348 
L 411.942151 291.48793 
L 413.489107 291.511515 
L 414.004759 291.505096 
L 414.778237 291.528398 
L 415.293889 291.50562 
L 415.809541 291.494871 
L 420.45041 291.489066 
L 421.481714 291.471571 
L 423.544323 291.484834 
L 423.802149 291.508318 
L 424.059975 291.372199 
L 425.864757 291.433893 
L 426.122583 291.08122 
L 426.638235 291.319746 
L 427.669539 291.426047 
L 427.927365 291.458247 
L 428.185191 291.192676 
L 428.700843 291.335239 
L 429.474321 291.459919 
L 430.247799 291.435088 
L 430.763452 291.372137 
L 431.53693 291.402862 
L 432.052582 291.433665 
L 432.568234 291.451097 
L 434.888668 291.36754 
L 435.662146 291.463139 
L 437.724755 291.457654 
L 438.498233 291.426919 
L 439.271711 291.397941 
L 440.560841 291.426619 
L 440.818667 291.330301 
L 441.334319 291.443023 
L 441.592145 291.379358 
L 442.107797 291.433857 
L 443.139101 291.455455 
L 447.77997 291.382234 
L 448.037796 291.170425 
L 448.553448 291.287136 
L 449.584752 291.409844 
L 449.842578 291.054286 
L 450.35823 291.274599 
L 454.999099 291.344681 
L 455.514751 291.320261 
L 456.030403 291.361001 
L 456.288229 291.048371 
L 457.061707 291.26027 
L 457.835185 291.404403 
L 458.093011 291.179242 
L 460.929098 291.336114 
L 461.44475 291.213023 
L 461.702576 291.155878 
L 461.960402 290.970719 
L 462.476054 291.16049 
L 462.73388 291.213022 
L 462.991706 290.965167 
L 463.507358 291.169133 
L 464.796488 291.300414 
L 465.054314 291.101487 
L 465.827793 291.334249 
L 466.601271 291.315718 
L 466.859097 291.170573 
L 467.374749 291.26466 
L 467.890401 291.223886 
L 468.921705 291.391713 
L 469.179531 291.37564 
L 469.437357 291.030294 
L 469.953009 291.217981 
L 470.210835 291.095106 
L 470.984313 291.310374 
L 471.499965 291.153546 
L 472.015617 291.315528 
L 472.531269 291.279776 
L 475.883008 291.296058 
L 476.656486 291.384864 
L 477.172138 291.305555 
L 477.429964 291.388587 
L 478.461268 291.32441 
L 481.297355 291.314769 
L 481.813007 291.350316 
L 482.328659 291.296244 
L 482.586485 291.319327 
L 482.844311 291.064588 
L 483.875615 291.27841 
L 484.906919 291.29332 
L 485.164745 291.16438 
L 486.711702 291.296319 
L 488.000832 291.268225 
L 494.188657 291.212527 
L 495.735613 291.352431 
L 496.509091 291.226932 
L 496.509091 291.226932 
" clip-path="url(#pde9e10882f)" style="fill: none; stroke: #ff7f0e; stroke-width: 1.5; stroke-linecap: square"/>
   </g>
   <g id="line2d_27">
    <path d="M 90.690909 292.436557 
L 91.206561 292.389077 
L 91.722213 292.198579 
L 93.784822 291.890545 
L 94.300474 291.751023 
L 95.84743 291.547892 
L 96.363082 291.318455 
L 97.394386 291.642467 
L 101.519603 291.298012 
L 101.777429 291.218702 
L 102.808733 291.392663 
L 103.582211 291.470093 
L 104.097863 291.576207 
L 104.355689 291.34043 
L 104.871341 291.477672 
L 105.129167 291.217756 
L 105.386993 291.243071 
L 105.644819 291.024678 
L 106.418297 291.241371 
L 106.676123 290.574927 
L 107.449601 291.115511 
L 107.707428 291.286417 
L 107.965254 291.193242 
L 108.738732 291.385145 
L 108.996558 291.190424 
L 109.770036 291.373647 
L 111.574818 291.415117 
L 111.832644 291.286038 
L 112.606122 291.449187 
L 112.863948 291.274341 
L 113.3796 291.36869 
L 113.637426 291.274624 
L 113.895252 291.378914 
L 114.153078 291.169998 
L 115.184383 291.402913 
L 115.442209 290.926301 
L 115.957861 291.233277 
L 116.473513 291.05673 
L 117.246991 291.080544 
L 117.762643 291.211644 
L 118.278295 291.101867 
L 118.536121 290.986831 
L 118.793947 291.062468 
L 119.051773 290.959247 
L 119.309599 291.155431 
L 120.340903 291.238883 
L 121.630033 291.245899 
L 123.434816 291.391129 
L 125.239598 291.195837 
L 125.497424 290.915175 
L 126.528728 291.238538 
L 126.786554 290.767626 
L 127.04438 290.997841 
L 127.302206 290.443374 
L 127.817858 290.900002 
L 128.075684 290.382737 
L 128.849163 290.402463 
L 129.364815 290.393122 
L 129.622641 290.76198 
L 129.880467 290.713075 
L 130.138293 289.942721 
L 130.653945 289.881926 
L 130.911771 289.346399 
L 131.169597 289.263344 
L 131.427423 289.620742 
L 131.685249 289.290051 
L 132.200901 289.744114 
L 132.458727 289.82271 
L 132.716553 289.252461 
L 132.974379 289.512524 
L 133.232205 290.086532 
L 134.005683 290.077862 
L 134.263509 290.323927 
L 134.521335 289.904364 
L 134.779161 289.984998 
L 135.036987 290.257801 
L 135.294813 289.964071 
L 135.552639 290.213127 
L 135.810466 289.909093 
L 136.326118 288.844399 
L 136.84177 288.833935 
L 137.357422 289.598266 
L 137.615248 289.567304 
L 137.873074 288.951992 
L 138.1309 288.677758 
L 138.388726 289.540504 
L 138.646552 289.299771 
L 138.904378 288.786548 
L 139.42003 288.698125 
L 139.677856 289.246122 
L 139.935682 288.628471 
L 140.193508 288.945712 
L 140.451334 288.428699 
L 140.966986 289.457331 
L 141.224812 289.619807 
L 141.482638 289.11195 
L 141.740464 289.044044 
L 141.99829 289.585888 
L 142.513942 289.583656 
L 142.771769 288.665761 
L 143.029595 289.05802 
L 143.287421 289.226715 
L 143.545247 289.024362 
L 143.803073 289.725059 
L 144.060899 290.078923 
L 144.834377 289.697146 
L 145.350029 289.564801 
L 145.607855 289.722083 
L 145.865681 289.617679 
L 146.381333 290.309362 
L 146.639159 289.704858 
L 147.154811 290.375927 
L 147.412637 290.158467 
L 147.928289 290.403969 
L 148.186115 289.766009 
L 148.443941 290.051511 
L 148.701767 290.168953 
L 148.959593 289.722045 
L 149.217419 289.739562 
L 149.475245 290.249545 
L 149.733072 290.346335 
L 149.990898 289.785331 
L 150.248724 290.268689 
L 151.022202 289.829712 
L 151.280028 290.320907 
L 151.537854 290.285005 
L 152.053506 290.798527 
L 152.311332 290.617503 
L 152.569158 290.59284 
L 153.08481 290.267626 
L 153.600462 289.232972 
L 153.858288 289.679984 
L 154.116114 289.484291 
L 154.37394 289.130695 
L 154.631766 288.295539 
L 154.889592 288.234484 
L 155.147418 287.733402 
L 155.405244 288.842763 
L 155.66307 288.649835 
L 155.920896 288.097867 
L 156.436548 289.480564 
L 156.952201 289.564218 
L 157.210027 289.036261 
L 157.467853 288.923912 
L 157.983505 289.541027 
L 158.241331 289.211568 
L 158.499157 287.758799 
L 159.014809 288.558809 
L 159.272635 288.044711 
L 159.530461 288.78609 
L 160.303939 289.443878 
L 160.819591 290.468913 
L 161.077417 290.47795 
L 161.335243 290.344371 
L 161.593069 290.022669 
L 161.850895 289.417466 
L 162.108721 290.178376 
L 162.624373 290.815963 
L 162.882199 290.945453 
L 163.140025 290.642802 
L 163.397851 289.498321 
L 163.655677 289.191698 
L 164.17133 289.746257 
L 164.429156 289.567975 
L 164.686982 289.816568 
L 164.944808 289.861491 
L 165.202634 289.297904 
L 165.46046 289.100705 
L 165.718286 288.641031 
L 165.976112 289.092412 
L 166.233938 288.988948 
L 166.491764 288.558587 
L 166.74959 289.044011 
L 167.265242 288.731619 
L 168.03872 288.341033 
L 168.296546 288.442253 
L 168.554372 288.138914 
L 168.812198 287.25984 
L 169.32785 286.859121 
L 169.585676 284.469519 
L 169.843502 286.126223 
L 170.101328 286.975391 
L 170.359154 286.94735 
L 170.61698 286.710415 
L 170.874807 286.789922 
L 171.132633 287.386717 
L 171.390459 286.870654 
L 171.648285 286.961518 
L 171.906111 288.04161 
L 172.163937 288.181133 
L 172.421763 288.709836 
L 172.679589 288.597369 
L 172.937415 288.088045 
L 173.453067 284.761589 
L 173.710893 285.455068 
L 173.968719 284.212132 
L 174.226545 284.082261 
L 174.484371 281.728809 
L 174.742197 282.713214 
L 175.000023 282.138913 
L 175.257849 283.568892 
L 175.515675 283.540988 
L 175.773501 282.931576 
L 176.031327 283.03192 
L 176.289153 280.045234 
L 176.546979 280.627063 
L 176.804805 278.058015 
L 177.062631 279.935368 
L 177.320457 278.250612 
L 177.578283 278.56814 
L 177.83611 276.594243 
L 178.093936 280.284627 
L 178.351762 277.061553 
L 178.609588 276.574364 
L 178.867414 277.835296 
L 179.383066 276.665931 
L 179.640892 276.184545 
L 180.156544 277.056634 
L 180.41437 277.5521 
L 180.672196 277.776728 
L 180.930022 276.782017 
L 181.187848 276.824202 
L 181.445674 275.215624 
L 181.7035 274.974379 
L 181.961326 273.266056 
L 182.219152 274.637418 
L 182.476978 274.958999 
L 182.734804 274.116441 
L 182.99263 274.563634 
L 183.250456 276.295052 
L 183.508282 276.565596 
L 183.766108 277.370003 
L 184.023934 279.081525 
L 184.28176 279.368065 
L 185.313065 275.524897 
L 185.828717 274.585531 
L 186.086543 274.959873 
L 186.344369 275.983466 
L 186.602195 272.774536 
L 186.860021 272.925049 
L 187.117847 271.965419 
L 187.375673 273.654813 
L 187.891325 271.323859 
L 188.406977 273.26192 
L 188.664803 271.922153 
L 189.180455 271.347978 
L 189.438281 269.651351 
L 189.696107 269.6731 
L 189.953933 267.02249 
L 190.211759 267.237072 
L 190.469585 268.48946 
L 190.727411 268.070518 
L 190.985237 268.838666 
L 191.243063 268.112109 
L 191.500889 267.04402 
L 191.758715 267.199183 
L 192.016542 267.496085 
L 192.274368 268.912099 
L 192.532194 268.322541 
L 192.79002 265.802795 
L 193.305672 264.751787 
L 193.563498 264.559735 
L 193.821324 267.168272 
L 194.07915 266.316508 
L 194.336976 264.486104 
L 194.594802 263.609859 
L 194.852628 263.405364 
L 195.110454 261.853454 
L 195.36828 261.191955 
L 195.626106 260.17828 
L 195.883932 263.66235 
L 196.399584 266.475584 
L 196.65741 263.454041 
L 196.915236 263.830396 
L 197.173062 264.524237 
L 197.430888 264.601749 
L 197.688714 265.322485 
L 197.94654 263.118906 
L 198.204366 262.338756 
L 198.462192 262.647744 
L 198.720018 263.13847 
L 198.977845 264.268777 
L 199.235671 264.4006 
L 199.751323 259.190618 
L 200.009149 259.155509 
L 200.266975 260.139549 
L 200.524801 260.644513 
L 200.782627 257.491752 
L 201.040453 257.794522 
L 201.298279 259.283279 
L 201.556105 260.115124 
L 201.813931 259.579454 
L 202.071757 258.101598 
L 202.587409 260.639725 
L 203.103061 255.498485 
L 203.360887 255.984236 
L 203.618713 253.914735 
L 203.876539 254.374035 
L 204.134365 256.429161 
L 204.392191 255.737851 
L 204.650017 258.150327 
L 204.907843 257.207861 
L 205.165669 257.004653 
L 205.423495 253.582778 
L 205.681321 255.29203 
L 205.939148 258.876918 
L 206.196974 260.159614 
L 206.4548 258.424289 
L 207.228278 255.638959 
L 207.74393 251.691639 
L 208.001756 252.344083 
L 208.259582 254.499988 
L 208.775234 252.347534 
L 209.03306 254.435531 
L 209.290886 254.368979 
L 209.548712 254.15862 
L 209.806538 256.188526 
L 210.064364 255.141437 
L 210.32219 257.145832 
L 210.580016 261.302869 
L 211.095668 254.988932 
L 211.353494 255.891287 
L 211.61132 252.010331 
L 211.869146 252.827319 
L 212.126972 253.04621 
L 212.384798 250.676908 
L 212.642624 252.838308 
L 212.900451 250.821671 
L 213.158277 251.477778 
L 213.416103 253.062475 
L 213.673929 252.34377 
L 213.931755 252.701852 
L 214.189581 253.714725 
L 214.447407 251.794135 
L 214.963059 253.317356 
L 215.220885 249.857574 
L 215.478711 252.803895 
L 215.736537 253.186884 
L 215.994363 251.507129 
L 216.252189 251.803304 
L 216.767841 245.850774 
L 217.025667 247.186204 
L 217.283493 245.227894 
L 217.541319 246.978156 
L 217.799145 245.96773 
L 218.056971 248.939315 
L 218.314797 249.153884 
L 218.572623 248.846447 
L 219.088275 246.642449 
L 219.346101 246.883963 
L 219.603927 245.744287 
L 219.861753 248.451306 
L 220.11958 249.639528 
L 220.377406 247.146159 
L 220.635232 247.91533 
L 220.893058 250.980387 
L 221.666536 247.606914 
L 221.924362 248.310427 
L 222.182188 248.177674 
L 222.440014 244.167823 
L 222.69784 245.882386 
L 222.955666 245.333758 
L 223.213492 249.008079 
L 223.471318 249.328869 
L 223.729144 248.439115 
L 223.98697 248.180607 
L 224.502622 247.280894 
L 225.018274 245.173831 
L 225.2761 246.081338 
L 225.533926 247.439789 
L 226.049578 239.337862 
L 226.307404 241.583249 
L 226.56523 240.844547 
L 226.823056 242.721383 
L 227.080883 240.793332 
L 227.338709 243.892469 
L 227.596535 244.451749 
L 227.854361 244.414882 
L 228.112187 242.959718 
L 228.370013 243.64549 
L 228.627839 244.867061 
L 228.885665 242.106878 
L 229.143491 245.966434 
L 229.401317 244.431659 
L 229.659143 240.625547 
L 229.916969 240.818996 
L 230.174795 240.749102 
L 230.432621 242.767653 
L 230.690447 241.48831 
L 231.206099 240.262077 
L 231.463925 239.055223 
L 231.979577 240.492514 
L 232.237403 240.908803 
L 232.753055 238.856559 
L 233.010881 239.620312 
L 233.268707 237.778382 
L 233.526533 241.852033 
L 233.784359 241.595355 
L 234.300012 234.54901 
L 234.557838 236.196175 
L 234.815664 236.390137 
L 235.07349 235.914786 
L 235.331316 237.105433 
L 235.589142 236.466504 
L 235.846968 236.812456 
L 236.104794 239.031035 
L 236.36262 237.771892 
L 236.620446 237.486678 
L 236.878272 240.941423 
L 237.136098 240.460893 
L 237.909576 237.020174 
L 238.167402 238.096165 
L 238.425228 234.220292 
L 238.683054 232.906136 
L 238.94088 235.955719 
L 239.198706 235.972526 
L 239.456532 236.634769 
L 239.714358 236.472913 
L 239.972184 234.16006 
L 240.23001 233.13302 
L 240.487836 235.503278 
L 240.745662 234.665649 
L 241.003489 235.978036 
L 241.261315 236.122296 
L 241.519141 236.011753 
L 241.776967 236.89147 
L 242.034793 235.41602 
L 242.292619 235.506426 
L 242.550445 237.979814 
L 242.808271 235.831309 
L 243.066097 237.089349 
L 243.323923 236.33437 
L 243.581749 236.095719 
L 244.097401 234.059934 
L 244.355227 236.223708 
L 244.613053 235.913409 
L 244.870879 236.87395 
L 245.128705 234.949401 
L 245.386531 236.535303 
L 245.644357 233.265191 
L 245.902183 236.767327 
L 246.160009 234.359693 
L 246.417835 236.415088 
L 246.675661 237.48358 
L 246.933487 236.275653 
L 247.449139 235.584272 
L 247.706965 232.661726 
L 248.222618 234.82435 
L 248.480444 233.043341 
L 248.996096 234.787357 
L 249.253922 234.271315 
L 249.511748 235.450087 
L 249.769574 234.864242 
L 250.0274 235.833412 
L 250.285226 232.943384 
L 250.543052 233.057926 
L 250.800878 231.596682 
L 251.058704 234.223 
L 251.31653 232.091039 
L 251.574356 232.277031 
L 251.832182 231.803132 
L 252.090008 232.123265 
L 252.347834 231.73725 
L 252.863486 233.145963 
L 253.121312 231.141767 
L 253.379138 233.230276 
L 253.636964 231.456582 
L 253.89479 230.644643 
L 254.152616 228.858407 
L 254.668268 229.331878 
L 254.926094 230.495092 
L 255.183921 229.693413 
L 255.441747 230.807343 
L 255.699573 230.268133 
L 255.957399 231.261869 
L 256.215225 229.345139 
L 256.473051 230.863884 
L 256.730877 230.272976 
L 256.988703 228.378952 
L 257.246529 230.802088 
L 257.504355 229.649104 
L 257.762181 230.036997 
L 258.020007 228.957258 
L 258.277833 231.1677 
L 258.535659 229.026104 
L 258.793485 228.60557 
L 259.309137 225.588407 
L 259.566963 226.616989 
L 259.824789 226.597895 
L 260.082615 225.438379 
L 260.340441 228.789923 
L 260.598267 228.278688 
L 260.856093 229.278665 
L 261.113919 227.002827 
L 261.371745 229.618641 
L 261.629571 228.282668 
L 261.887397 228.468961 
L 262.145224 228.486502 
L 262.40305 227.265611 
L 262.660876 225.293516 
L 262.918702 226.553302 
L 263.434354 227.44713 
L 263.69218 228.418588 
L 263.950006 227.578409 
L 264.207832 228.694267 
L 264.465658 228.396237 
L 264.723484 227.364831 
L 265.239136 228.200447 
L 265.754788 226.026934 
L 266.012614 226.297577 
L 266.27044 226.310169 
L 266.528266 228.841457 
L 266.786092 226.519135 
L 267.043918 225.256542 
L 267.301744 225.192723 
L 267.55957 224.83443 
L 267.817396 225.568773 
L 268.075222 228.072425 
L 268.333048 227.48997 
L 268.590874 227.780011 
L 268.8487 227.075508 
L 269.106527 225.763349 
L 269.364353 225.070395 
L 269.622179 227.369774 
L 269.880005 226.886894 
L 270.137831 225.726689 
L 270.395657 225.59707 
L 270.653483 224.673717 
L 270.911309 224.672146 
L 271.169135 225.906407 
L 271.426961 224.291042 
L 271.684787 226.934533 
L 271.942613 226.716297 
L 272.200439 227.388586 
L 272.458265 230.184987 
L 272.716091 228.643598 
L 273.231743 230.9431 
L 273.489569 230.164704 
L 273.747395 230.181662 
L 274.005221 228.359565 
L 274.520873 226.588127 
L 274.778699 226.93071 
L 275.036525 227.564023 
L 275.294351 226.410776 
L 275.810003 225.381786 
L 276.06783 225.013071 
L 276.325656 225.026385 
L 276.583482 225.258903 
L 276.841308 226.839749 
L 277.35696 224.982314 
L 277.614786 224.583433 
L 277.872612 223.420907 
L 278.130438 223.782006 
L 278.64609 229.175308 
L 278.903916 229.99549 
L 279.161742 227.806069 
L 279.677394 228.865375 
L 279.93522 226.475209 
L 280.193046 225.84765 
L 280.450872 226.121771 
L 280.708698 225.779058 
L 281.22435 223.313478 
L 281.482176 225.740747 
L 281.740002 225.025963 
L 281.997828 223.588546 
L 282.255654 225.924731 
L 282.51348 223.86735 
L 283.029132 225.004182 
L 283.286959 224.480295 
L 283.544785 222.804499 
L 284.060437 224.936538 
L 284.318263 225.207536 
L 284.576089 222.984227 
L 284.833915 222.225868 
L 285.091741 223.367992 
L 285.349567 222.729362 
L 285.607393 224.536113 
L 285.865219 224.335392 
L 286.123045 224.423312 
L 286.380871 225.250459 
L 286.896523 222.155393 
L 287.154349 221.388873 
L 287.412175 223.13219 
L 287.670001 221.897901 
L 287.927827 223.183307 
L 288.185653 222.573808 
L 288.443479 222.801559 
L 288.701305 221.662854 
L 289.216957 226.382335 
L 289.474783 224.742695 
L 289.732609 224.966539 
L 289.990435 224.35803 
L 290.248262 224.729353 
L 290.763914 220.466002 
L 291.02174 220.035205 
L 291.279566 222.518689 
L 291.537392 221.952308 
L 292.053044 219.297083 
L 292.31087 219.594488 
L 292.568696 222.916386 
L 292.826522 222.031916 
L 293.342174 218.720679 
L 293.6 218.045217 
L 293.857826 219.444453 
L 294.115652 219.340889 
L 294.373478 219.993821 
L 294.631304 218.868418 
L 294.88913 218.639106 
L 295.146956 218.597919 
L 295.404782 219.855918 
L 295.662608 220.510103 
L 295.920434 219.943543 
L 296.17826 220.538746 
L 296.436086 220.287856 
L 296.693912 218.971441 
L 296.951738 219.682479 
L 297.209565 218.411248 
L 297.467391 219.243732 
L 297.725217 218.522098 
L 297.983043 219.108185 
L 298.240869 219.355347 
L 298.498695 218.776065 
L 299.014347 220.653733 
L 299.529999 218.221463 
L 300.303477 219.785839 
L 300.561303 218.468817 
L 300.819129 222.185414 
L 301.334781 219.744567 
L 301.592607 217.699089 
L 301.850433 218.157852 
L 302.108259 217.543563 
L 302.366085 216.346818 
L 302.623911 217.374734 
L 302.881737 217.311517 
L 303.139563 216.080282 
L 303.397389 217.451358 
L 303.655215 217.03169 
L 303.913041 215.146485 
L 304.170868 215.859425 
L 304.428694 213.723576 
L 304.68652 214.55226 
L 304.944346 212.290834 
L 305.202172 213.406213 
L 305.459998 215.93785 
L 305.717824 215.143306 
L 305.97565 215.749919 
L 306.233476 214.062932 
L 306.491302 214.052791 
L 306.749128 212.383946 
L 307.006954 212.51504 
L 307.522606 214.717617 
L 307.780432 212.892063 
L 308.038258 209.616783 
L 308.296084 210.056894 
L 308.55391 209.487269 
L 308.811736 209.516158 
L 309.069562 208.075185 
L 309.327388 207.578259 
L 309.585214 206.772917 
L 309.84304 206.720196 
L 310.100866 206.417086 
L 310.358692 205.836734 
L 310.616518 208.531647 
L 310.874344 206.598315 
L 311.13217 207.909693 
L 311.905649 202.107126 
L 312.163475 203.390331 
L 312.421301 205.641901 
L 312.679127 205.283338 
L 312.936953 206.632025 
L 313.194779 204.33083 
L 313.710431 203.115709 
L 313.968257 203.704173 
L 314.226083 203.24787 
L 314.483909 204.80193 
L 314.741735 203.637126 
L 314.999561 201.531653 
L 315.257387 204.023278 
L 315.515213 203.806738 
L 315.773039 204.753356 
L 316.288691 200.367159 
L 316.546517 203.470131 
L 316.804343 198.743279 
L 317.062169 197.283198 
L 317.319995 199.019094 
L 317.835647 195.135115 
L 318.093473 195.122587 
L 318.3513 194.249795 
L 318.609126 194.130088 
L 318.866952 193.636022 
L 319.124778 194.635022 
L 319.382604 193.907281 
L 319.898256 195.874762 
L 320.156082 196.14556 
L 320.413908 192.860491 
L 320.671734 193.11671 
L 320.92956 192.609477 
L 321.187386 192.871578 
L 321.445212 189.815093 
L 321.703038 188.873471 
L 321.960864 189.542657 
L 322.21869 191.79227 
L 322.476516 189.470763 
L 322.734342 185.046895 
L 322.992168 187.508901 
L 323.249994 187.486097 
L 323.50782 185.952111 
L 323.765646 185.276456 
L 324.023472 183.946635 
L 324.281298 186.137123 
L 324.539124 184.40338 
L 324.79695 186.723195 
L 325.054776 186.879498 
L 325.312603 187.553227 
L 325.570429 184.749106 
L 325.828255 184.94582 
L 326.601733 175.659298 
L 326.859559 175.083311 
L 327.117385 177.909768 
L 327.375211 176.7038 
L 327.633037 177.445699 
L 328.148689 177.979133 
L 328.406515 177.667684 
L 328.664341 179.518363 
L 328.922167 176.908987 
L 329.437819 178.974518 
L 329.695645 177.134226 
L 329.953471 174.320898 
L 330.211297 176.008771 
L 330.726949 171.832908 
L 330.984775 175.006851 
L 331.242601 174.264056 
L 331.500427 174.946159 
L 331.758253 173.348533 
L 332.016079 173.080255 
L 332.273906 173.229696 
L 332.789558 171.361148 
L 333.30521 167.9028 
L 333.820862 170.036531 
L 334.078688 168.374454 
L 334.336514 170.241492 
L 334.59434 169.44867 
L 334.852166 167.64924 
L 335.109992 168.822829 
L 335.367818 169.40235 
L 335.625644 168.171626 
L 335.88347 171.900883 
L 336.141296 168.388971 
L 336.399122 169.185113 
L 336.656948 168.855127 
L 336.914774 167.969459 
L 337.1726 168.0494 
L 337.430426 166.77892 
L 337.688252 168.399707 
L 337.946078 173.073673 
L 338.203904 173.32223 
L 338.46173 168.798386 
L 338.719556 166.38543 
L 338.977382 165.135601 
L 339.235209 165.9839 
L 340.266513 160.588876 
L 340.524339 160.881495 
L 340.782165 161.688679 
L 341.297817 158.400521 
L 341.555643 157.253212 
L 341.813469 154.735631 
L 342.071295 162.415879 
L 342.329121 159.579867 
L 342.586947 161.052502 
L 342.844773 160.656431 
L 343.102599 161.17929 
L 343.360425 161.120089 
L 343.618251 161.700969 
L 343.876077 157.976323 
L 344.133903 156.952352 
L 344.391729 158.740551 
L 344.649555 156.566982 
L 344.907381 156.410131 
L 345.165207 159.699028 
L 345.423033 156.146987 
L 345.680859 154.890841 
L 345.938685 154.294586 
L 346.196511 155.165888 
L 346.454338 152.950712 
L 346.712164 153.789271 
L 347.227816 150.181302 
L 347.485642 151.42973 
L 347.743468 147.349765 
L 348.25912 146.834034 
L 348.516946 147.83453 
L 348.774772 146.931522 
L 349.290424 152.170518 
L 349.806076 148.767055 
L 350.063902 149.451118 
L 350.321728 148.561908 
L 350.579554 145.315093 
L 350.83738 146.704319 
L 351.095206 146.414583 
L 351.353032 150.559505 
L 351.610858 149.386309 
L 351.868684 149.912451 
L 352.384336 144.474033 
L 352.899988 143.247015 
L 353.157814 144.610459 
L 353.415641 141.777157 
L 353.673467 141.703921 
L 353.931293 144.92825 
L 354.189119 144.284804 
L 354.704771 139.999815 
L 355.220423 146.921207 
L 355.478249 145.524427 
L 355.736075 146.124014 
L 355.993901 144.481202 
L 356.251727 143.974067 
L 356.509553 141.735261 
L 356.767379 142.021049 
L 357.025205 141.150297 
L 357.283031 141.225102 
L 357.540857 138.463064 
L 357.798683 137.330962 
L 358.056509 137.813451 
L 358.314335 138.817864 
L 358.572161 138.222899 
L 359.345639 137.697784 
L 359.603465 138.394924 
L 360.63477 132.870738 
L 360.892596 133.387643 
L 361.408248 133.411142 
L 361.666074 132.185289 
L 361.9239 132.662314 
L 362.181726 132.69834 
L 362.439552 130.763059 
L 362.697378 130.298934 
L 362.955204 130.334904 
L 363.21303 130.566519 
L 363.470856 133.7434 
L 363.728682 134.091063 
L 363.986508 130.770978 
L 364.244334 129.442619 
L 364.50216 130.388345 
L 364.759986 128.647119 
L 365.017812 128.29688 
L 365.79129 139.056277 
L 366.049116 145.336661 
L 366.822594 135.039127 
L 367.08042 135.802309 
L 367.338247 132.291356 
L 367.596073 130.299257 
L 368.111725 129.15725 
L 368.369551 129.954539 
L 368.627377 132.423797 
L 369.143029 131.053453 
L 369.400855 128.398084 
L 369.658681 127.759745 
L 369.916507 132.865322 
L 370.432159 127.317712 
L 370.689985 127.400741 
L 370.947811 126.274956 
L 371.463463 122.858698 
L 371.721289 123.390955 
L 371.979115 123.302478 
L 372.494767 122.562689 
L 372.752593 124.785993 
L 373.010419 122.30159 
L 373.268245 122.620743 
L 373.526071 120.316236 
L 373.783897 121.060459 
L 374.041723 120.168409 
L 374.299549 120.097002 
L 374.557376 121.693451 
L 374.815202 120.761244 
L 375.073028 117.502061 
L 375.58868 125.764678 
L 375.846506 122.127105 
L 376.104332 120.701193 
L 376.619984 123.161455 
L 376.87781 121.673727 
L 377.135636 126.783755 
L 377.393462 123.020739 
L 377.909114 118.874245 
L 378.16694 119.008093 
L 378.424766 120.072074 
L 378.682592 119.15795 
L 378.940418 120.974074 
L 379.198244 113.480486 
L 379.45607 111.460012 
L 379.713896 112.481607 
L 379.971722 116.368764 
L 380.229548 116.73944 
L 380.487374 117.995974 
L 380.7452 112.037264 
L 381.003026 111.582828 
L 381.260852 111.615933 
L 381.518679 112.422043 
L 381.776505 114.284187 
L 382.034331 110.458365 
L 382.292157 112.301978 
L 382.549983 116.514777 
L 382.807809 111.974932 
L 383.065635 112.548116 
L 383.581287 108.848852 
L 383.839113 108.986639 
L 384.096939 108.251762 
L 384.354765 107.036462 
L 384.612591 109.92964 
L 384.870417 108.842635 
L 385.128243 109.449072 
L 385.386069 104.440052 
L 385.643895 104.708049 
L 385.901721 105.579867 
L 386.159547 108.677817 
L 386.417373 104.333381 
L 386.675199 105.122673 
L 386.933025 103.973902 
L 387.190851 100.947672 
L 387.448677 103.127484 
L 387.706503 101.399952 
L 387.964329 101.067495 
L 388.222155 102.366734 
L 388.479982 100.370502 
L 388.995634 98.963145 
L 389.25346 98.663879 
L 389.511286 99.64681 
L 389.769112 101.550908 
L 390.284764 94.805104 
L 390.54259 96.671399 
L 390.800416 97.013869 
L 391.058242 97.164473 
L 391.573894 98.699329 
L 391.83172 101.477832 
L 392.089546 98.227565 
L 392.347372 99.089599 
L 392.863024 102.274659 
L 393.12085 99.690736 
L 393.378676 94.99869 
L 393.636502 95.082485 
L 394.152154 98.858254 
L 394.40998 101.25818 
L 394.667806 102.158206 
L 394.925632 101.042823 
L 395.183458 98.934566 
L 395.441285 97.890724 
L 395.699111 97.570253 
L 395.956937 99.429766 
L 396.214763 96.038252 
L 396.472589 95.956075 
L 396.730415 99.713727 
L 397.246067 92.197805 
L 397.503893 91.153401 
L 397.761719 92.892105 
L 398.019545 93.000698 
L 398.277371 97.207367 
L 398.793023 93.593732 
L 399.050849 93.218163 
L 399.566501 96.04018 
L 399.824327 98.783923 
L 400.339979 90.455163 
L 400.597805 97.375693 
L 401.113457 88.876474 
L 401.371283 87.168982 
L 401.629109 86.452244 
L 401.886935 86.120475 
L 402.144761 83.340528 
L 402.402588 84.033178 
L 402.660414 82.675719 
L 402.91824 83.056523 
L 403.176066 81.500478 
L 403.433892 82.908149 
L 403.691718 85.895981 
L 403.949544 83.635906 
L 404.20737 83.150046 
L 404.723022 85.417208 
L 404.980848 83.136839 
L 405.238674 83.447294 
L 405.4965 86.210496 
L 405.754326 78.680995 
L 406.012152 79.137869 
L 406.269978 81.909163 
L 406.527804 74.442861 
L 406.78563 73.36936 
L 407.043456 75.430648 
L 407.301282 71.73296 
L 407.559108 73.990955 
L 407.816934 79.088241 
L 408.07476 77.297528 
L 408.332586 72.098489 
L 408.590412 76.425253 
L 408.848238 72.433962 
L 409.106064 73.281113 
L 409.879543 76.722056 
L 410.137369 72.574876 
L 410.395195 72.811169 
L 410.653021 75.073956 
L 410.910847 68.928757 
L 411.168673 72.890037 
L 411.426499 72.366239 
L 411.684325 72.477338 
L 411.942151 70.001215 
L 412.199977 70.98198 
L 412.973455 65.95781 
L 413.231281 67.683326 
L 413.489107 64.740477 
L 413.746933 63.675627 
L 414.004759 64.846285 
L 414.262585 66.931677 
L 414.520411 64.465863 
L 414.778237 65.41916 
L 415.036063 61.453044 
L 415.293889 61.041233 
L 415.809541 66.941218 
L 416.067367 69.944502 
L 416.58302 64.571965 
L 416.840846 67.152777 
L 417.098672 65.395715 
L 417.356498 65.016469 
L 417.614324 61.60575 
L 417.87215 62.277067 
L 418.129976 61.855186 
L 418.387802 62.170231 
L 418.645628 60.997059 
L 419.16128 64.988511 
L 419.676932 57.849023 
L 419.934758 61.521897 
L 420.192584 61.920578 
L 420.45041 68.125047 
L 420.708236 65.104506 
L 420.966062 59.059786 
L 421.223888 61.2629 
L 422.255192 56.024304 
L 422.513018 60.185584 
L 422.770844 58.460888 
L 423.02867 60.120504 
L 423.286496 64.181285 
L 423.544323 62.308561 
L 423.802149 61.923651 
L 424.059975 59.320182 
L 424.317801 64.820763 
L 424.575627 58.322334 
L 424.833453 58.477038 
L 425.091279 59.300691 
L 425.349105 62.583713 
L 425.606931 60.164396 
L 425.864757 60.567111 
L 426.122583 56.516915 
L 426.380409 58.475524 
L 426.638235 56.145775 
L 427.153887 66.547904 
L 427.411713 64.465451 
L 427.669539 64.995838 
L 427.927365 59.448421 
L 428.443017 54.453394 
L 428.700843 59.783139 
L 428.958669 58.66513 
L 429.216495 56.126204 
L 429.474321 57.828428 
L 429.732147 56.588533 
L 429.989973 56.772404 
L 430.505626 67.133621 
L 430.763452 68.669947 
L 431.021278 64.278699 
L 431.53693 59.692033 
L 431.794756 52.724233 
L 432.052582 57.189369 
L 432.310408 56.748872 
L 432.568234 60.038648 
L 432.82606 55.8954 
L 433.341712 56.461682 
L 433.599538 55.428853 
L 433.857364 53.558623 
L 434.11519 50.747918 
L 434.373016 50.87197 
L 434.630842 53.20896 
L 434.888668 54.266456 
L 435.146494 59.781731 
L 435.40432 57.218038 
L 435.662146 59.260468 
L 435.919972 58.611253 
L 436.177798 58.55762 
L 436.435624 56.61186 
L 436.69345 60.831366 
L 436.951276 58.993659 
L 437.209102 51.050507 
L 437.466928 53.950384 
L 437.724755 53.677408 
L 437.982581 50.999221 
L 438.240407 54.411479 
L 438.498233 54.67255 
L 438.756059 57.52256 
L 439.013885 59.091276 
L 439.271711 59.300015 
L 439.529537 61.355319 
L 439.787363 62.321434 
L 440.303015 52.447303 
L 440.818667 55.631928 
L 441.076493 51.812164 
L 441.334319 50.320761 
L 441.592145 51.183696 
L 441.849971 57.953589 
L 442.107797 58.461819 
L 442.365623 55.903052 
L 442.623449 58.430482 
L 442.881275 56.554556 
L 443.139101 58.164398 
L 443.654753 52.99431 
L 443.912579 57.433828 
L 444.170405 59.559924 
L 444.428231 55.552013 
L 444.686058 58.80246 
L 444.943884 54.970263 
L 445.20171 54.469085 
L 445.717362 51.684497 
L 445.975188 53.651573 
L 446.49084 48.020661 
L 446.748666 53.337585 
L 447.264318 58.279657 
L 447.522144 56.800981 
L 447.77997 56.787758 
L 448.037796 54.310122 
L 448.295622 55.763944 
L 448.553448 53.308084 
L 448.811274 54.479353 
L 449.0691 56.80097 
L 449.326926 52.344048 
L 449.584752 58.223548 
L 449.842578 58.434325 
L 450.100404 59.440856 
L 450.616056 50.809119 
L 450.873882 50.311311 
L 451.131708 55.279548 
L 451.389534 57.904133 
L 451.647361 53.96808 
L 452.163013 51.705207 
L 452.420839 49.600716 
L 452.678665 49.487762 
L 452.936491 52.978681 
L 453.194317 50.991171 
L 453.452143 56.512093 
L 453.709969 54.234589 
L 453.967795 52.99245 
L 454.225621 48.536523 
L 454.483447 51.893448 
L 454.741273 48.28837 
L 454.999099 48.751277 
L 455.256925 52.459319 
L 455.514751 49.588716 
L 455.772577 49.740587 
L 456.288229 52.492601 
L 456.546055 52.624213 
L 456.803881 54.23061 
L 457.577359 49.332493 
L 457.835185 50.856939 
L 458.350837 50.627737 
L 458.608664 51.069899 
L 458.86649 50.451103 
L 459.124316 51.80202 
L 459.382142 51.652751 
L 459.639968 52.523603 
L 459.897794 52.098813 
L 460.15562 50.700378 
L 460.413446 52.202491 
L 460.671272 51.885183 
L 460.929098 49.421577 
L 461.186924 48.912566 
L 461.44475 47.245082 
L 462.218228 55.052569 
L 462.73388 46.621398 
L 462.991706 47.694641 
L 463.249532 50.534037 
L 463.507358 49.526909 
L 463.765184 50.854603 
L 464.280836 46.941169 
L 464.538662 47.511712 
L 464.796488 50.728944 
L 465.054314 45.348127 
L 465.31214 47.393541 
L 465.569967 48.066175 
L 465.827793 49.538933 
L 466.085619 52.33923 
L 466.343445 50.007776 
L 466.601271 49.001865 
L 466.859097 49.20779 
L 467.116923 49.643523 
L 467.374749 48.31669 
L 467.632575 49.87187 
L 467.890401 50.678025 
L 468.406053 47.357946 
L 468.663879 48.438938 
L 468.921705 48.052264 
L 469.179531 48.294416 
L 469.437357 49.061375 
L 469.695183 51.404969 
L 470.210835 49.044232 
L 470.468661 51.086786 
L 470.726487 50.221291 
L 470.984313 53.391074 
L 471.242139 51.670121 
L 471.499965 47.565397 
L 471.757791 47.413551 
L 472.015617 51.799015 
L 472.273443 51.118154 
L 472.531269 52.903581 
L 473.046922 47.603851 
L 473.304748 44.022021 
L 473.562574 47.314403 
L 473.8204 47.364621 
L 474.078226 46.304006 
L 474.336052 47.815612 
L 474.593878 46.689214 
L 474.851704 47.174334 
L 475.10953 46.23506 
L 475.367356 44.438234 
L 475.625182 44.889815 
L 475.883008 45.914406 
L 476.140834 46.23135 
L 476.39866 45.095958 
L 476.656486 48.75957 
L 477.172138 49.496019 
L 477.429964 48.841797 
L 477.68779 45.497438 
L 477.945616 45.045437 
L 478.203442 42.906036 
L 478.461268 45.107014 
L 478.719094 44.425864 
L 479.234746 46.138914 
L 479.750399 42.557959 
L 480.008225 41.79891 
L 480.266051 41.993768 
L 480.781703 41.167999 
L 481.039529 44.014519 
L 481.555181 41.15987 
L 481.813007 44.967311 
L 482.070833 44.733363 
L 482.328659 47.064875 
L 482.844311 48.596503 
L 483.102137 48.699164 
L 483.617789 43.990328 
L 483.875615 44.135304 
L 484.133441 43.592023 
L 484.649093 47.579953 
L 484.906919 46.822131 
L 485.164745 45.180995 
L 485.422571 45.425471 
L 485.680397 43.700038 
L 485.938223 44.678634 
L 486.196049 43.71018 
L 486.453875 45.306106 
L 486.711702 44.594717 
L 486.969528 45.084814 
L 487.227354 43.695272 
L 487.48518 43.372349 
L 487.743006 45.231929 
L 488.258658 43.1788 
L 488.516484 42.971933 
L 488.77431 44.771473 
L 489.032136 45.345607 
L 489.289962 43.91316 
L 489.547788 44.766781 
L 489.805614 44.694263 
L 490.06344 44.930007 
L 490.321266 42.414604 
L 490.579092 42.069537 
L 491.094744 42.263198 
L 491.35257 41.01193 
L 491.610396 42.211636 
L 491.868222 40.552125 
L 492.126048 43.079614 
L 492.383874 44.314354 
L 492.6417 43.726632 
L 492.899526 44.454862 
L 493.157352 45.537278 
L 493.415178 45.737914 
L 493.673005 45.155733 
L 493.930831 44.166924 
L 494.188657 42.467152 
L 494.188657 42.467152 
" clip-path="url(#pde9e10882f)" style="fill: none; stroke: #2ca02c; stroke-width: 1.5; stroke-linecap: square"/>
   </g>
   <g id="patch_3">
    <path d="M 70.4 305.152125 
L 70.4 27.952125 
" style="fill: none; stroke: #000000; stroke-width: 0.8; stroke-linejoin: miter; stroke-linecap: square"/>
   </g>
   <g id="patch_4">
    <path d="M 516.8 305.152125 
L 516.8 27.952125 
" style="fill: none; stroke: #000000; stroke-width: 0.8; stroke-linejoin: miter; stroke-linecap: square"/>
   </g>
   <g id="patch_5">
    <path d="M 70.4 305.152125 
L 516.8 305.152125 
" style="fill: none; stroke: #000000; stroke-width: 0.8; stroke-linejoin: miter; stroke-linecap: square"/>
   </g>
   <g id="patch_6">
    <path d="M 70.4 27.952125 
L 516.8 27.952125 
" style="fill: none; stroke: #000000; stroke-width: 0.8; stroke-linejoin: miter; stroke-linecap: square"/>
   </g>
   <g id="text_16">
    <!-- ML1 Meta Testing -->
    <g transform="translate(212.004313 21.952125)scale(0.216 -0.216)">
     <defs>
      <path id="STIXGeneral-Regular-4d" d="M 5530 0 
L 3738 0 
L 3738 122 
Q 4115 147 4214 265 
Q 4314 384 4314 787 
L 4314 3661 
L 2682 0 
L 2592 0 
L 979 3514 
L 979 966 
Q 979 448 1088 294 
Q 1197 141 1574 122 
L 1574 0 
L 77 0 
L 77 122 
Q 358 141 480 205 
Q 602 269 650 432 
Q 698 595 698 966 
L 698 3514 
Q 698 3878 589 3984 
Q 480 4090 90 4115 
L 90 4237 
L 1357 4237 
L 2835 1024 
L 4250 4237 
L 5523 4237 
L 5523 4115 
Q 5178 4109 5072 3993 
Q 4966 3878 4966 3520 
L 4966 717 
Q 4966 378 5072 262 
Q 5178 147 5530 122 
L 5530 0 
z
" transform="scale(0.015625)"/>
      <path id="STIXGeneral-Regular-4c" d="M 3827 1114 
L 3520 0 
L 77 0 
L 77 122 
Q 429 141 531 256 
Q 634 371 634 736 
L 634 3494 
Q 634 3872 541 3981 
Q 448 4090 77 4115 
L 77 4237 
L 1888 4237 
L 1888 4115 
Q 1498 4090 1392 3984 
Q 1286 3878 1286 3507 
L 1286 538 
Q 1286 358 1398 304 
Q 1510 250 1862 250 
L 2310 250 
Q 3085 250 3392 640 
Q 3520 813 3661 1114 
L 3827 1114 
z
" transform="scale(0.015625)"/>
     </defs>
     <use xlink:href="#STIXGeneral-Regular-4d"/>
     <use xlink:href="#STIXGeneral-Regular-4c" x="88.899994"/>
     <use xlink:href="#STIXGeneral-Regular-31" x="149.999985"/>
     <use xlink:href="#STIXGeneral-Regular-20" x="199.999969"/>
     <use xlink:href="#STIXGeneral-Regular-4d" x="224.999954"/>
     <use xlink:href="#STIXGeneral-Regular-65" x="313.899948"/>
     <use xlink:href="#STIXGeneral-Regular-74" x="358.299942"/>
     <use xlink:href="#STIXGeneral-Regular-61" x="386.09993"/>
     <use xlink:href="#STIXGeneral-Regular-20" x="430.499924"/>
     <use xlink:href="#STIXGeneral-Regular-54" x="455.499908"/>
     <use xlink:href="#STIXGeneral-Regular-65" x="516.599899"/>
     <use xlink:href="#STIXGeneral-Regular-73" x="560.999893"/>
     <use xlink:href="#STIXGeneral-Regular-74" x="599.899887"/>
     <use xlink:href="#STIXGeneral-Regular-69" x="627.699875"/>
     <use xlink:href="#STIXGeneral-Regular-6e" x="655.499863"/>
     <use xlink:href="#STIXGeneral-Regular-67" x="705.499847"/>
    </g>
   </g>
   <g id="legend_1">
    <g id="patch_7">
     <path d="M 76 79.752125 
L 160.645312 79.752125 
Q 163.445312 79.752125 163.445312 76.952125 
L 163.445312 33.552125 
Q 163.445312 30.752125 160.645312 30.752125 
L 76 30.752125 
Q 73.2 30.752125 73.2 33.552125 
L 73.2 76.952125 
Q 73.2 79.752125 76 79.752125 
z
" style="fill: #ffffff; opacity: 0.8; stroke: #cccccc; stroke-linejoin: miter"/>
    </g>
    <g id="line2d_28">
     <path d="M 77.4 40.663687 
L 84.4 40.663687 
L 91.4 40.663687 
" style="fill: none; stroke: #1f77b4; stroke-width: 1.5; stroke-linecap: square"/>
    </g>
    <g id="text_17">
     <!-- disc=0.95 -->
     <g transform="translate(95.6 44.513687)scale(0.14 -0.14)">
      <defs>
       <path id="STIXGeneral-Regular-64" d="M 3142 269 
L 2202 -64 
L 2176 -45 
L 2176 365 
Q 1869 -64 1357 -64 
Q 826 -64 499 317 
Q 173 698 173 1312 
Q 173 1990 563 2467 
Q 954 2944 1504 2944 
Q 1850 2944 2176 2669 
L 2176 3667 
Q 2176 3866 2118 3930 
Q 2061 3994 1882 3994 
Q 1792 3994 1741 3987 
L 1741 4090 
Q 2323 4243 2682 4371 
L 2714 4358 
L 2714 730 
Q 2714 506 2768 435 
Q 2822 365 2995 365 
Q 3034 365 3142 371 
L 3142 269 
z
M 2176 653 
L 2176 2125 
Q 2176 2381 1981 2573 
Q 1786 2765 1523 2765 
Q 1158 2765 940 2438 
Q 723 2112 723 1568 
Q 723 979 963 624 
Q 1203 269 1606 269 
Q 1907 269 2080 474 
Q 2176 582 2176 653 
z
" transform="scale(0.015625)"/>
       <path id="STIXGeneral-Regular-63" d="M 2547 998 
L 2637 941 
Q 2362 403 2112 205 
Q 1786 -64 1376 -64 
Q 845 -64 502 336 
Q 160 736 160 1357 
Q 160 2170 698 2618 
Q 1094 2944 1562 2944 
Q 1965 2944 2256 2749 
Q 2547 2554 2547 2285 
Q 2547 2176 2457 2096 
Q 2368 2016 2246 2016 
Q 2022 2016 1939 2310 
L 1901 2451 
Q 1850 2630 1773 2694 
Q 1696 2758 1523 2758 
Q 1133 2758 893 2451 
Q 653 2144 653 1645 
Q 653 1094 928 745 
Q 1203 397 1645 397 
Q 1920 397 2118 528 
Q 2317 659 2547 998 
z
" transform="scale(0.015625)"/>
       <path id="STIXGeneral-Regular-3d" d="M 4077 2048 
L 307 2048 
L 307 2470 
L 4077 2470 
L 4077 2048 
z
M 4077 768 
L 307 768 
L 307 1190 
L 4077 1190 
L 4077 768 
z
" transform="scale(0.015625)"/>
       <path id="STIXGeneral-Regular-39" d="M 378 -141 
L 358 -13 
Q 1094 115 1603 608 
Q 2112 1101 2304 1882 
Q 1933 1517 1344 1517 
Q 826 1517 509 1875 
Q 192 2234 192 2816 
Q 192 3462 573 3894 
Q 954 4326 1523 4326 
Q 2131 4326 2528 3840 
Q 2938 3328 2938 2522 
Q 2938 1958 2742 1462 
Q 2547 966 2170 621 
Q 1773 262 1395 105 
Q 1018 -51 378 -141 
z
M 2317 2272 
L 2317 2522 
Q 2317 4147 1472 4147 
Q 1171 4147 1005 3930 
Q 909 3802 845 3546 
Q 781 3290 781 3034 
Q 781 2464 995 2128 
Q 1210 1792 1568 1792 
Q 1824 1792 2070 1917 
Q 2317 2042 2317 2272 
z
" transform="scale(0.015625)"/>
      </defs>
      <use xlink:href="#STIXGeneral-Regular-64"/>
      <use xlink:href="#STIXGeneral-Regular-69" x="49.999985"/>
      <use xlink:href="#STIXGeneral-Regular-73" x="77.799973"/>
      <use xlink:href="#STIXGeneral-Regular-63" x="116.699966"/>
      <use xlink:href="#STIXGeneral-Regular-3d" x="161.09996"/>
      <use xlink:href="#STIXGeneral-Regular-30" x="229.599945"/>
      <use xlink:href="#STIXGeneral-Regular-2e" x="279.59993"/>
      <use xlink:href="#STIXGeneral-Regular-39" x="304.599915"/>
      <use xlink:href="#STIXGeneral-Regular-35" x="354.599899"/>
     </g>
    </g>
    <g id="line2d_29">
     <path d="M 77.4 54.663687 
L 84.4 54.663687 
L 91.4 54.663687 
" style="fill: none; stroke: #ff7f0e; stroke-width: 1.5; stroke-linecap: square"/>
    </g>
    <g id="text_18">
     <!-- disc=0.99 -->
     <g transform="translate(95.6 58.513687)scale(0.14 -0.14)">
      <use xlink:href="#STIXGeneral-Regular-64"/>
      <use xlink:href="#STIXGeneral-Regular-69" x="49.999985"/>
      <use xlink:href="#STIXGeneral-Regular-73" x="77.799973"/>
      <use xlink:href="#STIXGeneral-Regular-63" x="116.699966"/>
      <use xlink:href="#STIXGeneral-Regular-3d" x="161.09996"/>
      <use xlink:href="#STIXGeneral-Regular-30" x="229.599945"/>
      <use xlink:href="#STIXGeneral-Regular-2e" x="279.59993"/>
      <use xlink:href="#STIXGeneral-Regular-39" x="304.599915"/>
      <use xlink:href="#STIXGeneral-Regular-39" x="354.599899"/>
     </g>
    </g>
    <g id="line2d_30">
     <path d="M 77.4 68.663687 
L 84.4 68.663687 
L 91.4 68.663687 
" style="fill: none; stroke: #2ca02c; stroke-width: 1.5; stroke-linecap: square"/>
    </g>
    <g id="text_19">
     <!-- disc=0.999 -->
     <g transform="translate(95.6 72.513687)scale(0.14 -0.14)">
      <use xlink:href="#STIXGeneral-Regular-64"/>
      <use xlink:href="#STIXGeneral-Regular-69" x="49.999985"/>
      <use xlink:href="#STIXGeneral-Regular-73" x="77.799973"/>
      <use xlink:href="#STIXGeneral-Regular-63" x="116.699966"/>
      <use xlink:href="#STIXGeneral-Regular-3d" x="161.09996"/>
      <use xlink:href="#STIXGeneral-Regular-30" x="229.599945"/>
      <use xlink:href="#STIXGeneral-Regular-2e" x="279.59993"/>
      <use xlink:href="#STIXGeneral-Regular-39" x="304.599915"/>
      <use xlink:href="#STIXGeneral-Regular-39" x="354.599899"/>
      <use xlink:href="#STIXGeneral-Regular-39" x="404.599884"/>
     </g>
    </g>
   </g>
  </g>
 </g>
 <defs>
  <clipPath id="pde9e10882f">
   <rect x="70.4" y="27.952125" width="446.4" height="277.2"/>
  </clipPath>
 </defs>
</svg>
