<?xml version="1.0" encoding="utf-8" standalone="no"?>
<!DOCTYPE svg PUBLIC "-//W3C//DTD SVG 1.1//EN"
  "http://www.w3.org/Graphics/SVG/1.1/DTD/svg11.dtd">
<svg xmlns:xlink="http://www.w3.org/1999/xlink" width="524pt" height="355.769pt" viewBox="0 0 524 355.769" xmlns="http://www.w3.org/2000/svg" version="1.1">
 <metadata>
  <rdf:RDF xmlns:dc="http://purl.org/dc/elements/1.1/" xmlns:cc="http://creativecommons.org/ns#" xmlns:rdf="http://www.w3.org/1999/02/22-rdf-syntax-ns#">
   <cc:Work>
    <dc:type rdf:resource="http://purl.org/dc/dcmitype/StillImage"/>
    <dc:date>2021-12-11T15:59:59.631276</dc:date>
    <dc:format>image/svg+xml</dc:format>
    <dc:creator>
     <cc:Agent>
      <dc:title>Matplotlib v3.5.0, https://matplotlib.org/</dc:title>
     </cc:Agent>
    </dc:creator>
   </cc:Work>
  </rdf:RDF>
 </metadata>
 <defs>
  <style type="text/css">*{stroke-linejoin: round; stroke-linecap: butt}</style>
 </defs>
 <g id="figure_1">
  <g id="patch_1">
   <path d="M 0 355.769 
L 524 355.769 
L 524 0 
L 0 0 
z
" style="fill: #ffffff"/>
  </g>
  <g id="axes_1">
   <g id="patch_2">
    <path d="M 70.4 305.152125 
L 516.8 305.152125 
L 516.8 27.952125 
L 70.4 27.952125 
z
" style="fill: #ffffff"/>
   </g>
   <g id="matplotlib.axis_1">
    <g id="xtick_1">
     <g id="line2d_1">
      <path d="M 90.4316 305.152125 
L 90.4316 27.952125 
" clip-path="url(#p5d637514c2)" style="fill: none; stroke: #b0b0b0; stroke-width: 0.8; stroke-linecap: square"/>
     </g>
     <g id="line2d_2">
      <defs>
       <path id="m2d2aeb8d66" d="M 0 0 
L 0 3.5 
" style="stroke: #000000; stroke-width: 0.8"/>
      </defs>
      <g>
       <use xlink:href="#m2d2aeb8d66" x="90.4316" y="305.152125" style="stroke: #000000; stroke-width: 0.8"/>
      </g>
     </g>
     <g id="text_1">
      <!-- 0.0 -->
      <g transform="translate(79.1816 324.445562)scale(0.18 -0.18)">
       <defs>
        <path id="STIXGeneral-Regular-30" d="M 3046 2112 
Q 3046 1683 2963 1302 
Q 2880 922 2717 602 
Q 2554 282 2266 96 
Q 1978 -90 1600 -90 
Q 1210 -90 915 108 
Q 621 307 461 640 
Q 301 973 227 1350 
Q 154 1728 154 2150 
Q 154 2746 301 3222 
Q 448 3699 790 4012 
Q 1133 4326 1626 4326 
Q 2253 4326 2649 3712 
Q 3046 3098 3046 2112 
z
M 2432 2080 
Q 2432 3091 2217 3625 
Q 2003 4160 1587 4160 
Q 1190 4160 979 3622 
Q 768 3085 768 2106 
Q 768 1120 979 598 
Q 1190 77 1600 77 
Q 2003 77 2217 598 
Q 2432 1120 2432 2080 
z
" transform="scale(0.015625)"/>
        <path id="STIXGeneral-Regular-2e" d="M 1158 275 
Q 1158 134 1052 32 
Q 947 -70 800 -70 
Q 653 -70 550 32 
Q 448 134 448 281 
Q 448 429 553 534 
Q 659 640 806 640 
Q 947 640 1052 531 
Q 1158 422 1158 275 
z
" transform="scale(0.015625)"/>
       </defs>
       <use xlink:href="#STIXGeneral-Regular-30"/>
       <use xlink:href="#STIXGeneral-Regular-2e" x="49.999985"/>
       <use xlink:href="#STIXGeneral-Regular-30" x="74.999969"/>
      </g>
     </g>
    </g>
    <g id="xtick_2">
     <g id="line2d_3">
      <path d="M 155.258786 305.152125 
L 155.258786 27.952125 
" clip-path="url(#p5d637514c2)" style="fill: none; stroke: #b0b0b0; stroke-width: 0.8; stroke-linecap: square"/>
     </g>
     <g id="line2d_4">
      <g>
       <use xlink:href="#m2d2aeb8d66" x="155.258786" y="305.152125" style="stroke: #000000; stroke-width: 0.8"/>
      </g>
     </g>
     <g id="text_2">
      <!-- 0.5 -->
      <g transform="translate(144.008786 324.445562)scale(0.18 -0.18)">
       <defs>
        <path id="STIXGeneral-Regular-35" d="M 2803 4358 
L 2573 3814 
Q 2534 3731 2400 3731 
L 1158 3731 
L 902 3187 
Q 1606 3053 1920 2896 
Q 2234 2739 2502 2368 
Q 2726 2061 2726 1555 
Q 2726 1094 2576 780 
Q 2426 467 2099 224 
Q 1664 -90 1011 -90 
Q 646 -90 422 19 
Q 198 128 198 307 
Q 198 550 486 550 
Q 717 550 960 352 
Q 1210 147 1414 147 
Q 1747 147 2012 480 
Q 2278 813 2278 1229 
Q 2278 1843 1850 2189 
Q 1293 2637 486 2637 
Q 410 2637 410 2688 
L 416 2720 
L 1114 4237 
L 2438 4237 
Q 2547 4237 2608 4269 
Q 2669 4301 2746 4403 
L 2803 4358 
z
" transform="scale(0.015625)"/>
       </defs>
       <use xlink:href="#STIXGeneral-Regular-30"/>
       <use xlink:href="#STIXGeneral-Regular-2e" x="49.999985"/>
       <use xlink:href="#STIXGeneral-Regular-35" x="74.999969"/>
      </g>
     </g>
    </g>
    <g id="xtick_3">
     <g id="line2d_5">
      <path d="M 220.085972 305.152125 
L 220.085972 27.952125 
" clip-path="url(#p5d637514c2)" style="fill: none; stroke: #b0b0b0; stroke-width: 0.8; stroke-linecap: square"/>
     </g>
     <g id="line2d_6">
      <g>
       <use xlink:href="#m2d2aeb8d66" x="220.085972" y="305.152125" style="stroke: #000000; stroke-width: 0.8"/>
      </g>
     </g>
     <g id="text_3">
      <!-- 1.0 -->
      <g transform="translate(208.835972 324.445562)scale(0.18 -0.18)">
       <defs>
        <path id="STIXGeneral-Regular-31" d="M 2522 0 
L 755 0 
L 755 96 
Q 1107 115 1235 227 
Q 1363 339 1363 608 
L 1363 3482 
Q 1363 3795 1171 3795 
Q 1082 3795 883 3718 
L 710 3654 
L 710 3744 
L 1856 4326 
L 1914 4307 
L 1914 486 
Q 1914 275 2042 185 
Q 2170 96 2522 96 
L 2522 0 
z
" transform="scale(0.015625)"/>
       </defs>
       <use xlink:href="#STIXGeneral-Regular-31"/>
       <use xlink:href="#STIXGeneral-Regular-2e" x="49.999985"/>
       <use xlink:href="#STIXGeneral-Regular-30" x="74.999969"/>
      </g>
     </g>
    </g>
    <g id="xtick_4">
     <g id="line2d_7">
      <path d="M 284.913157 305.152125 
L 284.913157 27.952125 
" clip-path="url(#p5d637514c2)" style="fill: none; stroke: #b0b0b0; stroke-width: 0.8; stroke-linecap: square"/>
     </g>
     <g id="line2d_8">
      <g>
       <use xlink:href="#m2d2aeb8d66" x="284.913157" y="305.152125" style="stroke: #000000; stroke-width: 0.8"/>
      </g>
     </g>
     <g id="text_4">
      <!-- 1.5 -->
      <g transform="translate(273.663157 324.445562)scale(0.18 -0.18)">
       <use xlink:href="#STIXGeneral-Regular-31"/>
       <use xlink:href="#STIXGeneral-Regular-2e" x="49.999985"/>
       <use xlink:href="#STIXGeneral-Regular-35" x="74.999969"/>
      </g>
     </g>
    </g>
    <g id="xtick_5">
     <g id="line2d_9">
      <path d="M 349.740343 305.152125 
L 349.740343 27.952125 
" clip-path="url(#p5d637514c2)" style="fill: none; stroke: #b0b0b0; stroke-width: 0.8; stroke-linecap: square"/>
     </g>
     <g id="line2d_10">
      <g>
       <use xlink:href="#m2d2aeb8d66" x="349.740343" y="305.152125" style="stroke: #000000; stroke-width: 0.8"/>
      </g>
     </g>
     <g id="text_5">
      <!-- 2.0 -->
      <g transform="translate(338.490343 324.445562)scale(0.18 -0.18)">
       <defs>
        <path id="STIXGeneral-Regular-32" d="M 3034 877 
L 2688 0 
L 186 0 
L 186 77 
L 1325 1286 
Q 1773 1754 1965 2144 
Q 2157 2534 2157 2950 
Q 2157 3379 1920 3616 
Q 1683 3853 1267 3853 
Q 922 3853 720 3673 
Q 518 3494 326 3021 
L 192 3053 
Q 301 3648 630 3987 
Q 960 4326 1523 4326 
Q 2054 4326 2380 4006 
Q 2707 3686 2707 3200 
Q 2707 2477 1888 1613 
L 832 486 
L 2330 486 
Q 2541 486 2665 569 
Q 2790 653 2944 915 
L 3034 877 
z
" transform="scale(0.015625)"/>
       </defs>
       <use xlink:href="#STIXGeneral-Regular-32"/>
       <use xlink:href="#STIXGeneral-Regular-2e" x="49.999985"/>
       <use xlink:href="#STIXGeneral-Regular-30" x="74.999969"/>
      </g>
     </g>
    </g>
    <g id="xtick_6">
     <g id="line2d_11">
      <path d="M 414.567528 305.152125 
L 414.567528 27.952125 
" clip-path="url(#p5d637514c2)" style="fill: none; stroke: #b0b0b0; stroke-width: 0.8; stroke-linecap: square"/>
     </g>
     <g id="line2d_12">
      <g>
       <use xlink:href="#m2d2aeb8d66" x="414.567528" y="305.152125" style="stroke: #000000; stroke-width: 0.8"/>
      </g>
     </g>
     <g id="text_6">
      <!-- 2.5 -->
      <g transform="translate(403.317528 324.445562)scale(0.18 -0.18)">
       <use xlink:href="#STIXGeneral-Regular-32"/>
       <use xlink:href="#STIXGeneral-Regular-2e" x="49.999985"/>
       <use xlink:href="#STIXGeneral-Regular-35" x="74.999969"/>
      </g>
     </g>
    </g>
    <g id="xtick_7">
     <g id="line2d_13">
      <path d="M 479.394714 305.152125 
L 479.394714 27.952125 
" clip-path="url(#p5d637514c2)" style="fill: none; stroke: #b0b0b0; stroke-width: 0.8; stroke-linecap: square"/>
     </g>
     <g id="line2d_14">
      <g>
       <use xlink:href="#m2d2aeb8d66" x="479.394714" y="305.152125" style="stroke: #000000; stroke-width: 0.8"/>
      </g>
     </g>
     <g id="text_7">
      <!-- 3.0 -->
      <g transform="translate(468.144714 324.445562)scale(0.18 -0.18)">
       <defs>
        <path id="STIXGeneral-Regular-33" d="M 390 3264 
L 288 3290 
Q 435 3770 748 4048 
Q 1062 4326 1542 4326 
Q 1990 4326 2265 4083 
Q 2541 3840 2541 3450 
Q 2541 2925 1946 2566 
Q 2298 2413 2477 2227 
Q 2758 1914 2758 1402 
Q 2758 890 2464 506 
Q 2246 211 1840 60 
Q 1434 -90 979 -90 
Q 262 -90 262 275 
Q 262 378 339 442 
Q 416 506 525 506 
Q 685 506 915 339 
Q 1197 141 1466 141 
Q 1818 141 2058 425 
Q 2298 710 2298 1120 
Q 2298 1856 1632 2048 
Q 1434 2112 979 2112 
L 979 2202 
Q 1338 2323 1517 2432 
Q 2035 2726 2035 3290 
Q 2035 3610 1852 3776 
Q 1670 3942 1344 3942 
Q 768 3942 390 3264 
z
" transform="scale(0.015625)"/>
       </defs>
       <use xlink:href="#STIXGeneral-Regular-33"/>
       <use xlink:href="#STIXGeneral-Regular-2e" x="49.999985"/>
       <use xlink:href="#STIXGeneral-Regular-30" x="74.999969"/>
      </g>
     </g>
    </g>
    <g id="text_8">
     <!-- Training Environment Steps -->
     <g transform="translate(191.604688 344.645562)scale(0.18 -0.18)">
      <defs>
       <path id="STIXGeneral-Regular-54" d="M 3795 3149 
L 3642 3149 
Q 3539 3674 3353 3821 
Q 3168 3968 2656 3968 
L 2278 3968 
L 2278 710 
Q 2278 346 2387 243 
Q 2496 141 2893 122 
L 2893 0 
L 1024 0 
L 1024 122 
Q 1427 147 1526 256 
Q 1626 365 1626 787 
L 1626 3968 
L 1242 3968 
Q 723 3968 540 3817 
Q 358 3667 262 3149 
L 109 3149 
L 154 4237 
L 3750 4237 
L 3795 3149 
z
" transform="scale(0.015625)"/>
       <path id="STIXGeneral-Regular-72" d="M 1024 2931 
L 1024 2342 
Q 1267 2688 1430 2816 
Q 1594 2944 1792 2944 
Q 1958 2944 2051 2854 
Q 2144 2765 2144 2605 
Q 2144 2470 2077 2393 
Q 2010 2317 1894 2317 
Q 1773 2317 1638 2445 
Q 1536 2541 1472 2541 
Q 1338 2541 1181 2355 
Q 1024 2170 1024 2016 
L 1024 576 
Q 1024 301 1133 205 
Q 1242 109 1568 96 
L 1568 0 
L 32 0 
L 32 96 
Q 339 154 412 224 
Q 486 294 486 538 
L 486 2138 
Q 486 2349 438 2435 
Q 390 2522 269 2522 
Q 166 2522 45 2496 
L 45 2598 
Q 448 2726 992 2944 
L 1024 2931 
z
" transform="scale(0.015625)"/>
       <path id="STIXGeneral-Regular-61" d="M 2829 422 
L 2829 243 
Q 2586 -64 2253 -64 
Q 1888 -64 1843 403 
L 1837 403 
Q 1427 -64 909 -64 
Q 608 -64 422 112 
Q 237 288 237 602 
Q 237 1050 685 1350 
Q 992 1555 1837 1869 
L 1837 2214 
Q 1837 2502 1699 2646 
Q 1562 2790 1338 2790 
Q 1146 2790 1018 2697 
Q 890 2605 890 2477 
Q 890 2419 909 2348 
Q 928 2278 928 2208 
Q 928 2112 841 2029 
Q 755 1946 634 1946 
Q 525 1946 441 2029 
Q 358 2112 358 2240 
Q 358 2547 685 2752 
Q 986 2944 1421 2944 
Q 1939 2944 2176 2656 
Q 2291 2522 2323 2384 
Q 2355 2246 2355 1946 
L 2355 723 
Q 2355 301 2554 301 
Q 2682 301 2829 422 
z
M 1837 813 
L 1837 1715 
Q 1248 1510 1018 1293 
Q 800 1094 800 800 
Q 800 557 921 432 
Q 1043 307 1242 307 
Q 1453 307 1613 410 
Q 1747 506 1792 589 
Q 1837 672 1837 813 
z
" transform="scale(0.015625)"/>
       <path id="STIXGeneral-Regular-69" d="M 1152 4045 
Q 1152 3904 1056 3811 
Q 960 3718 819 3718 
Q 685 3718 592 3811 
Q 499 3904 499 4045 
Q 499 4179 595 4275 
Q 691 4371 826 4371 
Q 966 4371 1059 4275 
Q 1152 4179 1152 4045 
z
M 1619 0 
L 102 0 
L 102 96 
Q 435 115 521 211 
Q 608 307 608 666 
L 608 2118 
Q 608 2342 563 2432 
Q 518 2522 397 2522 
Q 243 2522 128 2490 
L 128 2592 
L 1120 2944 
L 1146 2918 
L 1146 672 
Q 1146 314 1226 218 
Q 1306 122 1619 96 
L 1619 0 
z
" transform="scale(0.015625)"/>
       <path id="STIXGeneral-Regular-6e" d="M 3104 0 
L 1773 0 
L 1779 96 
Q 2016 115 2096 233 
Q 2176 352 2176 672 
L 2176 1946 
Q 2176 2592 1709 2592 
Q 1549 2592 1408 2515 
Q 1267 2438 1050 2227 
L 1050 461 
Q 1050 269 1136 192 
Q 1222 115 1466 96 
L 1466 0 
L 115 0 
L 115 96 
Q 358 115 435 214 
Q 512 314 512 602 
L 512 2157 
Q 512 2394 467 2483 
Q 422 2573 288 2573 
Q 160 2573 102 2547 
L 102 2656 
Q 550 2784 979 2944 
L 1030 2925 
L 1030 2426 
L 1037 2426 
Q 1491 2944 1958 2944 
Q 2323 2944 2518 2688 
Q 2714 2432 2714 1958 
L 2714 544 
Q 2714 288 2790 205 
Q 2867 122 3104 96 
L 3104 0 
z
" transform="scale(0.015625)"/>
       <path id="STIXGeneral-Regular-67" d="M 3008 2483 
L 2477 2483 
Q 2598 2208 2598 1946 
Q 2598 1453 2265 1203 
Q 1933 954 1600 954 
Q 1530 954 1357 973 
L 1235 986 
Q 1107 947 979 812 
Q 851 678 851 582 
Q 851 435 1350 410 
L 2176 371 
Q 2528 358 2739 172 
Q 2950 -13 2950 -314 
Q 2950 -685 2566 -986 
Q 2035 -1395 1286 -1395 
Q 826 -1395 502 -1212 
Q 179 -1030 179 -774 
Q 179 -595 320 -419 
Q 461 -243 806 6 
Q 602 102 534 172 
Q 467 243 467 346 
Q 467 531 762 787 
Q 909 915 1037 1043 
Q 717 1203 579 1401 
Q 442 1600 442 1901 
Q 442 2336 752 2640 
Q 1062 2944 1510 2944 
Q 1766 2944 2022 2848 
L 2163 2797 
Q 2349 2733 2515 2733 
L 3008 2733 
L 3008 2483 
z
M 973 2163 
L 973 2144 
Q 973 1683 1155 1398 
Q 1338 1114 1632 1114 
Q 1850 1114 1978 1270 
Q 2106 1427 2106 1690 
Q 2106 2112 1914 2464 
Q 1754 2765 1446 2765 
Q 1222 2765 1097 2605 
Q 973 2445 973 2163 
z
M 2771 -410 
Q 2771 -230 2595 -163 
Q 2419 -96 1978 -96 
Q 1344 -96 941 -13 
Q 749 -243 688 -348 
Q 627 -454 627 -563 
Q 627 -774 880 -902 
Q 1133 -1030 1555 -1030 
Q 2099 -1030 2435 -860 
Q 2771 -691 2771 -410 
z
" transform="scale(0.015625)"/>
       <path id="STIXGeneral-Regular-20" transform="scale(0.015625)"/>
       <path id="STIXGeneral-Regular-45" d="M 3821 1082 
L 3526 0 
L 77 0 
L 77 122 
Q 442 147 538 252 
Q 634 358 634 730 
L 634 3520 
Q 634 3878 534 3987 
Q 435 4096 77 4115 
L 77 4237 
L 3469 4237 
L 3494 3322 
L 3334 3322 
Q 3264 3750 3085 3872 
Q 2906 3994 2349 3994 
L 1510 3994 
Q 1370 3994 1328 3952 
Q 1286 3910 1286 3763 
L 1286 2355 
L 2253 2355 
Q 2656 2355 2787 2470 
Q 2918 2586 2976 2970 
L 3123 2970 
L 3123 1472 
L 2976 1472 
Q 2918 1875 2790 1984 
Q 2662 2093 2253 2093 
L 1286 2093 
L 1286 538 
Q 1286 346 1420 291 
Q 1555 237 1933 237 
L 2163 237 
Q 2848 237 3136 403 
Q 3424 570 3642 1082 
L 3821 1082 
z
" transform="scale(0.015625)"/>
       <path id="STIXGeneral-Regular-76" d="M 3053 2880 
L 3053 2784 
Q 2906 2771 2835 2688 
Q 2765 2605 2637 2285 
L 1818 230 
Q 1690 -90 1638 -90 
Q 1587 -90 1523 77 
Q 1510 96 1497 141 
Q 1485 186 1472 211 
L 704 2048 
Q 499 2534 403 2652 
Q 307 2771 122 2784 
L 122 2880 
L 1376 2880 
L 1376 2784 
Q 1210 2771 1146 2732 
Q 1082 2694 1082 2611 
Q 1082 2509 1139 2368 
L 1792 730 
L 2426 2387 
Q 2464 2483 2464 2579 
Q 2464 2758 2163 2784 
L 2163 2880 
L 3053 2880 
z
" transform="scale(0.015625)"/>
       <path id="STIXGeneral-Regular-6f" d="M 3008 1478 
Q 3008 806 2608 371 
Q 2208 -64 1568 -64 
Q 979 -64 582 368 
Q 186 800 186 1459 
Q 186 2125 582 2534 
Q 979 2944 1626 2944 
Q 2221 2944 2614 2537 
Q 3008 2131 3008 1478 
z
M 2432 1306 
Q 2432 2035 2112 2445 
Q 1856 2765 1504 2765 
Q 1171 2765 966 2493 
Q 762 2221 762 1747 
Q 762 928 1101 435 
Q 1318 115 1677 115 
Q 2029 115 2230 432 
Q 2432 749 2432 1306 
z
" transform="scale(0.015625)"/>
       <path id="STIXGeneral-Regular-6d" d="M 4960 0 
L 3565 0 
L 3565 96 
Q 3834 122 3907 208 
Q 3981 294 3981 576 
L 3981 1894 
Q 3981 2278 3869 2444 
Q 3757 2611 3488 2611 
Q 3264 2611 3107 2521 
Q 2950 2432 2803 2221 
L 2803 608 
Q 2803 301 2896 201 
Q 2989 102 3264 96 
L 3264 0 
L 1830 0 
L 1830 96 
Q 2112 115 2189 188 
Q 2266 262 2266 550 
L 2266 1901 
Q 2266 2611 1850 2611 
Q 1670 2611 1468 2531 
Q 1267 2451 1171 2336 
Q 1088 2240 1088 2227 
L 1088 448 
Q 1088 243 1177 176 
Q 1267 109 1523 96 
L 1523 0 
L 102 0 
L 102 96 
Q 371 102 460 195 
Q 550 288 550 563 
L 550 2150 
Q 550 2387 499 2480 
Q 448 2573 326 2573 
Q 230 2573 122 2547 
L 122 2656 
Q 557 2778 1011 2944 
L 1062 2925 
L 1062 2451 
L 1075 2451 
Q 1363 2752 1584 2848 
Q 1805 2944 2054 2944 
Q 2560 2944 2733 2406 
Q 3232 2944 3776 2944 
Q 4518 2944 4518 1792 
L 4518 493 
Q 4518 282 4582 202 
Q 4646 122 4794 109 
L 4960 96 
L 4960 0 
z
" transform="scale(0.015625)"/>
       <path id="STIXGeneral-Regular-65" d="M 2611 1050 
L 2714 1005 
Q 2330 -64 1376 -64 
Q 813 -64 486 329 
Q 160 723 160 1389 
Q 160 2074 525 2509 
Q 890 2944 1485 2944 
Q 2061 2944 2374 2502 
Q 2560 2246 2592 1773 
L 621 1773 
Q 646 1370 700 1158 
Q 755 947 915 730 
Q 1184 378 1626 378 
Q 1939 378 2153 531 
Q 2368 685 2611 1050 
z
M 634 1978 
L 1939 1978 
Q 1882 2381 1750 2547 
Q 1619 2714 1312 2714 
Q 1043 2714 864 2525 
Q 685 2336 634 1978 
z
" transform="scale(0.015625)"/>
       <path id="STIXGeneral-Regular-74" d="M 1702 493 
L 1786 422 
Q 1478 -64 1011 -64 
Q 448 -64 448 749 
L 448 2675 
L 109 2675 
Q 83 2694 83 2720 
Q 83 2771 192 2842 
Q 435 2982 813 3526 
Q 826 3546 874 3606 
Q 922 3667 941 3706 
Q 986 3706 986 3622 
L 986 2880 
L 1632 2880 
L 1632 2675 
L 986 2675 
L 986 845 
Q 986 538 1062 403 
Q 1139 269 1318 269 
Q 1510 269 1702 493 
z
" transform="scale(0.015625)"/>
       <path id="STIXGeneral-Regular-53" d="M 3002 2963 
L 2842 2963 
Q 2733 3360 2579 3565 
Q 2189 4064 1651 4064 
Q 1357 4064 1181 3894 
Q 1005 3725 1005 3456 
Q 1005 3328 1069 3206 
Q 1133 3085 1206 2998 
Q 1280 2912 1465 2784 
Q 1651 2656 1766 2589 
Q 1882 2522 2150 2362 
Q 2669 2061 2905 1763 
Q 3142 1466 3142 1107 
Q 3142 576 2771 243 
Q 2400 -90 1837 -90 
Q 1421 -90 1082 58 
Q 915 128 781 128 
Q 704 128 653 70 
Q 602 13 602 -83 
L 461 -83 
L 275 1274 
L 416 1274 
Q 845 141 1734 141 
Q 2074 141 2285 342 
Q 2496 544 2496 858 
Q 2496 1158 2310 1363 
Q 2003 1696 1235 2106 
Q 454 2522 454 3206 
Q 454 3718 768 4022 
Q 1082 4326 1568 4326 
Q 1907 4326 2240 4186 
Q 2413 4109 2522 4109 
Q 2688 4109 2726 4326 
L 2861 4326 
L 3002 2963 
z
" transform="scale(0.015625)"/>
       <path id="STIXGeneral-Regular-70" d="M 1018 2931 
L 1018 2438 
Q 1421 2944 1939 2944 
Q 2406 2944 2707 2560 
Q 3008 2176 3008 1581 
Q 3008 883 2621 409 
Q 2234 -64 1664 -64 
Q 1466 -64 1328 -6 
Q 1190 51 1018 211 
L 1018 -794 
Q 1018 -1094 1120 -1180 
Q 1222 -1267 1581 -1274 
L 1581 -1389 
L 32 -1389 
L 32 -1280 
Q 314 -1254 397 -1171 
Q 480 -1088 480 -838 
L 480 2157 
Q 480 2381 429 2451 
Q 378 2522 218 2522 
Q 115 2522 58 2515 
L 58 2618 
Q 506 2752 979 2944 
L 1018 2931 
z
M 1018 2138 
L 1018 563 
Q 1018 422 1238 281 
Q 1459 141 1683 141 
Q 2029 141 2243 467 
Q 2458 794 2458 1325 
Q 2458 1888 2243 2224 
Q 2029 2560 1670 2560 
Q 1446 2560 1232 2419 
Q 1018 2278 1018 2138 
z
" transform="scale(0.015625)"/>
       <path id="STIXGeneral-Regular-73" d="M 998 1926 
L 1664 1523 
Q 1984 1331 2105 1164 
Q 2227 998 2227 736 
Q 2227 416 1961 176 
Q 1696 -64 1331 -64 
Q 1030 -64 864 -6 
Q 691 51 570 51 
Q 461 51 416 -26 
L 333 -26 
L 333 979 
L 435 979 
Q 538 512 730 294 
Q 922 77 1248 77 
Q 1485 77 1632 211 
Q 1779 346 1779 550 
Q 1779 845 1440 1030 
L 1094 1222 
Q 326 1651 326 2150 
Q 326 2522 566 2730 
Q 806 2938 1210 2938 
Q 1491 2938 1638 2867 
Q 1754 2816 1818 2816 
Q 1862 2816 1920 2880 
L 1990 2880 
L 2022 2010 
L 1926 2010 
Q 1818 2445 1654 2621 
Q 1491 2797 1203 2797 
Q 986 2797 854 2688 
Q 723 2579 723 2362 
Q 723 2253 796 2128 
Q 870 2003 998 1926 
z
" transform="scale(0.015625)"/>
      </defs>
      <use xlink:href="#STIXGeneral-Regular-54"/>
      <use xlink:href="#STIXGeneral-Regular-72" x="61.099991"/>
      <use xlink:href="#STIXGeneral-Regular-61" x="94.399979"/>
      <use xlink:href="#STIXGeneral-Regular-69" x="138.799973"/>
      <use xlink:href="#STIXGeneral-Regular-6e" x="166.59996"/>
      <use xlink:href="#STIXGeneral-Regular-69" x="216.599945"/>
      <use xlink:href="#STIXGeneral-Regular-6e" x="244.399933"/>
      <use xlink:href="#STIXGeneral-Regular-67" x="294.399918"/>
      <use xlink:href="#STIXGeneral-Regular-20" x="344.399902"/>
      <use xlink:href="#STIXGeneral-Regular-45" x="369.399887"/>
      <use xlink:href="#STIXGeneral-Regular-6e" x="430.499878"/>
      <use xlink:href="#STIXGeneral-Regular-76" x="480.499863"/>
      <use xlink:href="#STIXGeneral-Regular-69" x="530.499847"/>
      <use xlink:href="#STIXGeneral-Regular-72" x="558.299835"/>
      <use xlink:href="#STIXGeneral-Regular-6f" x="591.599823"/>
      <use xlink:href="#STIXGeneral-Regular-6e" x="641.599808"/>
      <use xlink:href="#STIXGeneral-Regular-6d" x="691.599792"/>
      <use xlink:href="#STIXGeneral-Regular-65" x="769.39978"/>
      <use xlink:href="#STIXGeneral-Regular-6e" x="813.799774"/>
      <use xlink:href="#STIXGeneral-Regular-74" x="863.799759"/>
      <use xlink:href="#STIXGeneral-Regular-20" x="891.599747"/>
      <use xlink:href="#STIXGeneral-Regular-53" x="916.599731"/>
      <use xlink:href="#STIXGeneral-Regular-74" x="972.199722"/>
      <use xlink:href="#STIXGeneral-Regular-65" x="999.99971"/>
      <use xlink:href="#STIXGeneral-Regular-70" x="1044.399704"/>
      <use xlink:href="#STIXGeneral-Regular-73" x="1094.399689"/>
     </g>
    </g>
    <g id="text_9">
     <!-- 1e8 -->
     <g transform="translate(490.806875 343.645562)scale(0.18 -0.18)">
      <defs>
       <path id="STIXGeneral-Regular-38" d="M 2848 992 
Q 2848 499 2505 204 
Q 2163 -90 1587 -90 
Q 1050 -90 704 204 
Q 358 499 358 954 
Q 358 1293 524 1533 
Q 691 1773 1190 2125 
Q 710 2522 553 2765 
Q 397 3008 397 3328 
Q 397 3782 745 4054 
Q 1094 4326 1638 4326 
Q 2106 4326 2410 4060 
Q 2714 3795 2714 3411 
Q 2714 3059 2531 2848 
Q 2349 2637 1856 2374 
Q 2432 1990 2640 1689 
Q 2848 1389 2848 992 
z
M 2272 3411 
Q 2272 3744 2086 3945 
Q 1901 4147 1574 4147 
Q 1248 4147 1059 3977 
Q 870 3808 870 3513 
Q 870 3219 1059 2979 
Q 1248 2739 1670 2490 
Q 1997 2682 2134 2896 
Q 2272 3110 2272 3411 
z
M 1734 1741 
L 1357 1997 
Q 1075 1766 960 1545 
Q 845 1325 845 1011 
Q 845 576 1065 333 
Q 1286 90 1658 90 
Q 1971 90 2166 285 
Q 2362 480 2362 794 
Q 2362 1082 2214 1299 
Q 2067 1517 1734 1741 
z
" transform="scale(0.015625)"/>
      </defs>
      <use xlink:href="#STIXGeneral-Regular-31"/>
      <use xlink:href="#STIXGeneral-Regular-65" x="49.999985"/>
      <use xlink:href="#STIXGeneral-Regular-38" x="94.399979"/>
     </g>
    </g>
   </g>
   <g id="matplotlib.axis_2">
    <g id="ytick_1">
     <g id="line2d_15">
      <path d="M 70.4 292.933442 
L 516.8 292.933442 
" clip-path="url(#p5d637514c2)" style="fill: none; stroke: #b0b0b0; stroke-width: 0.8; stroke-linecap: square"/>
     </g>
     <g id="line2d_16">
      <defs>
       <path id="m528e6fbca2" d="M 0 0 
L -3.5 0 
" style="stroke: #000000; stroke-width: 0.8"/>
      </defs>
      <g>
       <use xlink:href="#m528e6fbca2" x="70.4" y="292.933442" style="stroke: #000000; stroke-width: 0.8"/>
      </g>
     </g>
     <g id="text_10">
      <!-- 0 -->
      <g transform="translate(54.4 299.080161)scale(0.18 -0.18)">
       <use xlink:href="#STIXGeneral-Regular-30"/>
      </g>
     </g>
    </g>
    <g id="ytick_2">
     <g id="line2d_17">
      <path d="M 70.4 230.193438 
L 516.8 230.193438 
" clip-path="url(#p5d637514c2)" style="fill: none; stroke: #b0b0b0; stroke-width: 0.8; stroke-linecap: square"/>
     </g>
     <g id="line2d_18">
      <g>
       <use xlink:href="#m528e6fbca2" x="70.4" y="230.193438" style="stroke: #000000; stroke-width: 0.8"/>
      </g>
     </g>
     <g id="text_11">
      <!-- 1000 -->
      <g transform="translate(27.4 236.340156)scale(0.18 -0.18)">
       <use xlink:href="#STIXGeneral-Regular-31"/>
       <use xlink:href="#STIXGeneral-Regular-30" x="49.999985"/>
       <use xlink:href="#STIXGeneral-Regular-30" x="99.999969"/>
       <use xlink:href="#STIXGeneral-Regular-30" x="149.999954"/>
      </g>
     </g>
    </g>
    <g id="ytick_3">
     <g id="line2d_19">
      <path d="M 70.4 167.453433 
L 516.8 167.453433 
" clip-path="url(#p5d637514c2)" style="fill: none; stroke: #b0b0b0; stroke-width: 0.8; stroke-linecap: square"/>
     </g>
     <g id="line2d_20">
      <g>
       <use xlink:href="#m528e6fbca2" x="70.4" y="167.453433" style="stroke: #000000; stroke-width: 0.8"/>
      </g>
     </g>
     <g id="text_12">
      <!-- 2000 -->
      <g transform="translate(27.4 173.600152)scale(0.18 -0.18)">
       <use xlink:href="#STIXGeneral-Regular-32"/>
       <use xlink:href="#STIXGeneral-Regular-30" x="49.999985"/>
       <use xlink:href="#STIXGeneral-Regular-30" x="99.999969"/>
       <use xlink:href="#STIXGeneral-Regular-30" x="149.999954"/>
      </g>
     </g>
    </g>
    <g id="ytick_4">
     <g id="line2d_21">
      <path d="M 70.4 104.713429 
L 516.8 104.713429 
" clip-path="url(#p5d637514c2)" style="fill: none; stroke: #b0b0b0; stroke-width: 0.8; stroke-linecap: square"/>
     </g>
     <g id="line2d_22">
      <g>
       <use xlink:href="#m528e6fbca2" x="70.4" y="104.713429" style="stroke: #000000; stroke-width: 0.8"/>
      </g>
     </g>
     <g id="text_13">
      <!-- 3000 -->
      <g transform="translate(27.4 110.860148)scale(0.18 -0.18)">
       <use xlink:href="#STIXGeneral-Regular-33"/>
       <use xlink:href="#STIXGeneral-Regular-30" x="49.999985"/>
       <use xlink:href="#STIXGeneral-Regular-30" x="99.999969"/>
       <use xlink:href="#STIXGeneral-Regular-30" x="149.999954"/>
      </g>
     </g>
    </g>
    <g id="ytick_5">
     <g id="line2d_23">
      <path d="M 70.4 41.973425 
L 516.8 41.973425 
" clip-path="url(#p5d637514c2)" style="fill: none; stroke: #b0b0b0; stroke-width: 0.8; stroke-linecap: square"/>
     </g>
     <g id="line2d_24">
      <g>
       <use xlink:href="#m528e6fbca2" x="70.4" y="41.973425" style="stroke: #000000; stroke-width: 0.8"/>
      </g>
     </g>
     <g id="text_14">
      <!-- 4000 -->
      <g transform="translate(27.4 48.120143)scale(0.18 -0.18)">
       <defs>
        <path id="STIXGeneral-Regular-34" d="M 3027 1069 
L 2368 1069 
L 2368 0 
L 1869 0 
L 1869 1069 
L 77 1069 
L 77 1478 
L 2086 4326 
L 2368 4326 
L 2368 1478 
L 3027 1478 
L 3027 1069 
z
M 1869 1478 
L 1869 3674 
L 333 1478 
L 1869 1478 
z
" transform="scale(0.015625)"/>
       </defs>
       <use xlink:href="#STIXGeneral-Regular-34"/>
       <use xlink:href="#STIXGeneral-Regular-30" x="49.999985"/>
       <use xlink:href="#STIXGeneral-Regular-30" x="99.999969"/>
       <use xlink:href="#STIXGeneral-Regular-30" x="149.999954"/>
      </g>
     </g>
    </g>
    <g id="text_15">
     <!-- Average Test Return -->
     <g transform="translate(19.476562 241.533375)rotate(-90)scale(0.18 -0.18)">
      <defs>
       <path id="STIXGeneral-Regular-41" d="M 4525 0 
L 2893 0 
L 2893 122 
Q 3149 122 3245 179 
Q 3334 224 3334 333 
Q 3334 499 3213 781 
L 2950 1382 
L 1274 1382 
L 979 653 
Q 922 506 922 384 
Q 922 237 1027 179 
Q 1133 122 1370 122 
L 1370 0 
L 96 0 
L 96 122 
Q 365 147 486 316 
Q 608 486 902 1190 
L 2221 4314 
L 2349 4314 
L 3923 710 
Q 4064 378 4176 262 
Q 4288 147 4525 122 
L 4525 0 
z
M 2861 1645 
L 2118 3405 
L 1382 1645 
L 2861 1645 
z
" transform="scale(0.015625)"/>
       <path id="STIXGeneral-Regular-52" d="M 4224 0 
L 3187 0 
L 1664 1971 
L 1306 1958 
L 1306 717 
Q 1306 352 1405 249 
Q 1504 147 1875 122 
L 1875 0 
L 109 0 
L 109 122 
Q 474 154 563 262 
Q 653 371 653 794 
L 653 3526 
Q 653 3885 563 3987 
Q 474 4090 109 4115 
L 109 4237 
L 1850 4237 
Q 2726 4237 3187 3859 
Q 3501 3603 3501 3091 
Q 3501 2221 2342 2042 
L 3622 422 
Q 3757 256 3878 198 
Q 4000 141 4224 122 
L 4224 0 
z
M 1306 3731 
L 1306 2195 
Q 1766 2202 1990 2246 
Q 2214 2291 2438 2413 
Q 2803 2618 2803 3142 
Q 2803 4000 1632 4000 
Q 1459 4000 1382 3945 
Q 1306 3891 1306 3731 
z
" transform="scale(0.015625)"/>
       <path id="STIXGeneral-Regular-75" d="M 3072 320 
L 3072 230 
Q 2573 96 2195 -58 
L 2163 -38 
L 2163 486 
L 2150 486 
Q 1747 -64 1235 -64 
Q 870 -64 662 160 
Q 454 384 454 755 
L 454 2362 
Q 454 2598 371 2688 
Q 288 2778 58 2790 
L 58 2880 
L 992 2880 
L 992 813 
Q 992 595 1123 451 
Q 1254 307 1446 307 
Q 1760 307 1984 506 
Q 2067 582 2099 649 
Q 2131 717 2131 877 
L 2131 2355 
Q 2131 2605 2041 2678 
Q 1952 2752 1658 2771 
L 1658 2880 
L 2669 2880 
L 2669 685 
Q 2669 461 2742 390 
Q 2816 320 3034 320 
L 3072 320 
z
" transform="scale(0.015625)"/>
      </defs>
      <use xlink:href="#STIXGeneral-Regular-41"/>
      <use xlink:href="#STIXGeneral-Regular-76" x="72.199982"/>
      <use xlink:href="#STIXGeneral-Regular-65" x="122.199966"/>
      <use xlink:href="#STIXGeneral-Regular-72" x="166.59996"/>
      <use xlink:href="#STIXGeneral-Regular-61" x="199.899948"/>
      <use xlink:href="#STIXGeneral-Regular-67" x="244.299942"/>
      <use xlink:href="#STIXGeneral-Regular-65" x="294.299927"/>
      <use xlink:href="#STIXGeneral-Regular-20" x="338.699921"/>
      <use xlink:href="#STIXGeneral-Regular-54" x="363.699905"/>
      <use xlink:href="#STIXGeneral-Regular-65" x="424.799896"/>
      <use xlink:href="#STIXGeneral-Regular-73" x="469.19989"/>
      <use xlink:href="#STIXGeneral-Regular-74" x="508.099884"/>
      <use xlink:href="#STIXGeneral-Regular-20" x="535.899872"/>
      <use xlink:href="#STIXGeneral-Regular-52" x="560.899857"/>
      <use xlink:href="#STIXGeneral-Regular-65" x="627.599854"/>
      <use xlink:href="#STIXGeneral-Regular-74" x="671.999847"/>
      <use xlink:href="#STIXGeneral-Regular-75" x="699.799835"/>
      <use xlink:href="#STIXGeneral-Regular-72" x="749.79982"/>
      <use xlink:href="#STIXGeneral-Regular-6e" x="783.099808"/>
     </g>
    </g>
   </g>
   <g id="line2d_25">
    <path d="M 90.690909 292.552125 
L 91.209527 292.504623 
L 91.728144 292.314038 
L 93.802614 292.005862 
L 94.321231 291.866276 
L 95.877084 291.663052 
L 96.395701 291.43351 
L 97.432936 291.757671 
L 101.581876 291.413057 
L 101.841185 291.333711 
L 102.87842 291.507751 
L 103.656346 291.585217 
L 104.174964 291.69138 
L 104.434272 291.455495 
L 104.95289 291.592799 
L 105.212199 291.332764 
L 105.471507 291.358091 
L 105.730816 291.139598 
L 106.508742 291.35639 
L 106.768051 290.68964 
L 107.545977 291.230473 
L 107.805286 291.401457 
L 108.064595 291.308239 
L 108.842521 291.500231 
L 109.10183 291.30542 
L 109.879756 291.488727 
L 111.694917 291.530216 
L 111.954226 291.401077 
L 112.732152 291.564301 
L 112.991461 291.389375 
L 113.510078 291.483768 
L 113.769387 291.389659 
L 114.028696 291.493997 
L 114.288005 291.284985 
L 115.32524 291.518006 
L 115.584548 291.041176 
L 116.103166 291.348293 
L 116.621783 291.171664 
L 117.39971 291.19549 
L 117.918327 291.32665 
L 118.436945 291.216822 
L 118.696253 291.101734 
L 118.955562 291.177406 
L 119.214871 291.074137 
L 119.474179 291.270411 
L 120.511414 291.353901 
L 121.807958 291.36092 
L 123.623119 291.506217 
L 125.438281 291.310836 
L 125.697589 291.030045 
L 126.734824 291.353556 
L 126.994133 290.882428 
L 127.253442 291.112748 
L 127.512751 290.558027 
L 128.031368 291.014864 
L 128.290677 290.497362 
L 129.068603 290.517097 
L 129.58722 290.507752 
L 129.846529 290.876779 
L 130.105838 290.827852 
L 130.365147 290.057145 
L 130.883764 289.996321 
L 131.143073 289.460549 
L 131.402382 289.377456 
L 131.66169 289.735018 
L 131.920999 289.404175 
L 132.439617 289.858447 
L 132.698925 289.937079 
L 132.958234 289.366568 
L 133.217543 289.62675 
L 133.476852 290.201022 
L 134.254778 290.192348 
L 134.514087 290.438526 
L 134.773395 290.01877 
L 135.032704 290.099441 
L 135.292013 290.372369 
L 135.551322 290.078504 
L 135.81063 290.327675 
L 136.069939 290.023501 
L 136.588556 288.958319 
L 137.107174 288.94785 
L 137.625791 289.712531 
L 137.8851 289.681555 
L 138.144409 289.065961 
L 138.403718 288.791601 
L 138.663026 289.654742 
L 138.922335 289.4139 
L 139.181644 288.900441 
L 139.700261 288.811977 
L 139.95957 289.360225 
L 140.218879 288.742292 
L 140.478188 289.059678 
L 140.737496 288.542428 
L 141.256114 289.571532 
L 141.515423 289.734082 
L 141.774731 289.225992 
L 142.03404 289.158055 
L 142.293349 289.700148 
L 142.811966 289.697915 
L 143.071275 288.779599 
L 143.330584 289.172038 
L 143.589893 289.34081 
L 143.849201 289.138364 
L 144.10851 289.839383 
L 144.367819 290.193409 
L 145.145745 289.811457 
L 145.664362 289.679051 
L 145.923671 289.836405 
L 146.18298 289.731953 
L 146.701597 290.423954 
L 146.960906 289.819172 
L 147.479524 290.49055 
L 147.738832 290.272989 
L 148.25745 290.518604 
L 148.516759 289.880351 
L 148.776067 290.165985 
L 149.035376 290.283481 
L 149.294685 289.836367 
L 149.553994 289.853892 
L 149.813302 290.36411 
L 150.072611 290.460943 
L 150.33192 289.899683 
L 150.591229 290.383262 
L 151.369155 289.944084 
L 151.628464 290.435504 
L 151.887772 290.399586 
L 152.40639 290.913343 
L 152.665699 290.732236 
L 152.925007 290.707561 
L 153.443625 290.382199 
L 153.962242 289.34707 
L 154.221551 289.794287 
L 154.48086 289.598504 
L 154.740168 289.244746 
L 154.999477 288.409207 
L 155.258786 288.348124 
L 155.518095 287.846811 
L 155.777403 288.956682 
L 156.036712 288.763665 
L 156.296021 288.211444 
L 156.814638 289.594775 
L 157.333256 289.678468 
L 157.592565 289.150268 
L 157.851873 289.037868 
L 158.370491 289.655266 
L 158.6298 289.325656 
L 158.889108 287.87222 
L 159.407726 288.672597 
L 159.667035 288.158263 
L 159.926343 288.899983 
L 160.70427 289.558073 
L 161.222887 290.583578 
L 161.482196 290.592619 
L 161.741505 290.458979 
L 162.000813 290.13713 
L 162.260122 289.531649 
L 162.519431 290.292908 
L 163.038048 290.930787 
L 163.297357 291.060337 
L 163.556666 290.757547 
L 163.815974 289.612541 
L 164.075283 289.305777 
L 164.593901 289.86059 
L 164.853209 289.682227 
L 165.112518 289.930933 
L 165.371827 289.975877 
L 165.631136 289.412032 
L 165.890444 289.214743 
L 166.149753 288.754857 
L 166.409062 289.206446 
L 166.668371 289.102934 
L 166.927679 288.672375 
L 167.186988 289.158022 
L 167.705606 288.845487 
L 168.483532 288.454722 
L 168.742841 288.555988 
L 169.002149 288.25251 
L 169.261458 287.373032 
L 169.780076 286.97213 
L 170.039384 284.581431 
L 170.298693 286.238895 
L 170.558002 287.088453 
L 170.81731 287.060399 
L 171.076619 286.823356 
L 171.335928 286.902899 
L 171.595237 287.499968 
L 171.854545 286.983668 
L 172.113854 287.074574 
L 172.373163 288.155161 
L 172.632472 288.294748 
L 172.89178 288.823694 
L 173.151089 288.711175 
L 173.410398 288.201618 
L 173.929015 284.873635 
L 174.188324 285.567432 
L 174.447633 284.323927 
L 174.706942 284.193996 
L 174.96625 281.839464 
L 175.225559 282.824321 
L 175.484868 282.249756 
L 175.744177 283.680391 
L 176.003485 283.652474 
L 176.262794 283.042782 
L 176.522103 283.143173 
L 176.781412 280.155117 
L 177.04072 280.737212 
L 177.300029 278.166986 
L 177.559338 280.0452 
L 177.818647 278.359671 
L 178.077955 278.677345 
L 178.337264 276.702542 
L 178.596573 280.394619 
L 178.855881 277.170066 
L 179.11519 276.682654 
L 179.374499 277.944164 
L 179.893116 276.774263 
L 180.152425 276.292656 
L 180.671043 277.165146 
L 180.930351 277.660839 
L 181.18966 277.885569 
L 181.448969 276.890402 
L 181.708278 276.932607 
L 181.967586 275.32329 
L 182.226895 275.081934 
L 182.486204 273.372828 
L 182.745513 274.744819 
L 183.004821 275.066548 
L 183.26413 274.223603 
L 183.523439 274.671002 
L 183.782748 276.403214 
L 184.042056 276.673882 
L 184.301365 277.478658 
L 184.560674 279.190966 
L 184.819983 279.477637 
L 185.857218 275.632706 
L 186.375835 274.692908 
L 186.635144 275.067422 
L 186.894453 276.091485 
L 187.153761 272.881083 
L 187.41307 273.031665 
L 187.672379 272.071594 
L 187.931687 273.761763 
L 188.450305 271.42974 
L 188.968922 273.36869 
L 189.228231 272.028308 
L 189.746849 271.45387 
L 190.006157 269.756464 
L 190.265466 269.778224 
L 190.524775 267.126398 
L 190.784084 267.341078 
L 191.043392 268.59404 
L 191.302701 268.174906 
L 191.56201 268.943407 
L 191.821319 268.216517 
L 192.080627 267.147938 
L 192.339936 267.303172 
L 192.599245 267.600209 
L 192.858554 269.016873 
L 193.117862 268.427045 
L 193.377171 265.906143 
L 193.895789 264.854652 
L 194.155097 264.662512 
L 194.414406 267.272246 
L 194.673715 266.420092 
L 194.933024 264.588847 
L 195.192332 263.7122 
L 195.451641 263.507612 
L 195.71095 261.954989 
L 195.970258 261.293187 
L 196.229567 260.279048 
L 196.488876 263.764716 
L 197.007493 266.57924 
L 197.266802 263.556312 
L 197.526111 263.932839 
L 197.78542 264.626998 
L 198.044728 264.704546 
L 198.304037 265.425613 
L 198.563346 263.221022 
L 198.822655 262.440515 
L 199.081963 262.749644 
L 199.341272 263.240596 
L 199.600581 264.371421 
L 199.85989 264.503305 
L 200.378507 259.290932 
L 200.637816 259.255807 
L 200.897125 260.240298 
L 201.156433 260.745494 
L 201.415742 257.591287 
L 201.675051 257.894195 
L 201.93436 259.383635 
L 202.193668 260.215862 
L 202.452977 259.679947 
L 202.712286 258.201413 
L 203.230903 260.740704 
L 203.749521 255.597105 
L 204.00883 256.083079 
L 204.268138 254.012628 
L 204.527447 254.472139 
L 204.786756 256.528208 
L 205.046064 255.836581 
L 205.305373 258.250164 
L 205.564682 257.307265 
L 205.823991 257.103965 
L 206.083299 253.68052 
L 206.342608 255.390556 
L 206.601917 258.977088 
L 206.861226 260.260372 
L 207.120534 258.524252 
L 207.898461 255.737644 
L 208.417078 251.788512 
L 208.676387 252.441255 
L 208.935696 254.59815 
L 209.454313 252.444708 
L 209.713622 254.533663 
L 209.972931 254.46708 
L 210.232239 254.256625 
L 210.491548 256.287463 
L 210.750857 255.239893 
L 211.010166 257.245207 
L 211.269474 261.404152 
L 211.788092 255.087318 
L 212.047401 255.990087 
L 212.306709 252.107351 
L 212.566018 252.924713 
L 212.825327 253.143705 
L 213.084635 250.773316 
L 213.343944 252.935708 
L 213.603253 250.918145 
L 213.862562 251.574553 
L 214.12187 253.159977 
L 214.381179 252.440943 
L 214.640488 252.799189 
L 214.899797 253.812527 
L 215.159105 251.891056 
L 215.677723 253.414975 
L 215.937032 249.953606 
L 216.19634 252.901279 
L 216.455649 253.284443 
L 216.714958 251.603918 
L 216.974267 251.900229 
L 217.492884 245.944967 
L 217.752193 247.28101 
L 218.011502 245.321802 
L 218.27081 247.072866 
L 218.530119 246.061977 
L 218.789428 249.034926 
L 219.048737 249.249593 
L 219.308045 248.942015 
L 219.826663 246.737006 
L 220.085972 246.978631 
L 220.34528 245.838432 
L 220.604589 248.546693 
L 220.863898 249.73546 
L 221.123207 247.240947 
L 221.382515 248.010471 
L 221.641824 251.076934 
L 222.41975 247.701913 
L 222.679059 248.40575 
L 222.938368 248.272936 
L 223.197676 244.261244 
L 223.456985 245.976594 
L 223.716294 245.427715 
L 223.975603 249.103721 
L 224.234911 249.424658 
L 224.49422 248.534496 
L 224.753529 248.27587 
L 225.272146 247.375744 
L 225.790764 245.267714 
L 226.050073 246.175637 
L 226.309381 247.534712 
L 226.827999 239.429067 
L 227.087308 241.675485 
L 227.346616 240.936443 
L 227.605925 242.814141 
L 227.865234 240.885205 
L 228.124543 243.985764 
L 228.383851 244.545301 
L 228.64316 244.508417 
L 228.902469 243.052585 
L 229.161778 243.738672 
L 229.421086 244.960804 
L 229.680395 242.199354 
L 229.939704 246.06068 
L 230.199012 244.525202 
L 230.458321 240.717343 
L 230.71763 240.910881 
L 230.976939 240.840955 
L 231.236247 242.860432 
L 231.495556 241.580502 
L 232.014174 240.353706 
L 232.273482 239.146298 
L 232.7921 240.584249 
L 233.051409 241.000729 
L 233.570026 238.947544 
L 233.829335 239.711647 
L 234.088644 237.868871 
L 234.347952 241.944392 
L 234.607261 241.687596 
L 235.125879 234.638019 
L 235.385187 236.285939 
L 235.644496 236.47999 
L 235.903805 236.004421 
L 236.163114 237.195614 
L 236.422422 236.556392 
L 236.681731 236.902503 
L 236.94104 239.1221 
L 237.200349 237.862379 
L 237.459657 237.577034 
L 237.718966 241.033364 
L 237.978275 240.552614 
L 238.756201 237.110316 
L 239.01551 238.186801 
L 239.274818 234.309149 
L 239.534127 232.994391 
L 239.793436 236.045373 
L 240.052745 236.062188 
L 240.312053 236.724734 
L 240.571362 236.562804 
L 240.830671 234.24889 
L 241.08998 233.221379 
L 241.349288 235.592724 
L 241.608597 234.754711 
L 241.867906 236.0677 
L 242.127215 236.212026 
L 242.386523 236.101433 
L 242.645832 236.981553 
L 242.905141 235.505426 
L 243.16445 235.595874 
L 243.423758 238.070396 
L 243.683067 235.920905 
L 243.942376 237.179523 
L 244.201685 236.424197 
L 244.460993 236.185437 
L 244.979611 234.148718 
L 245.23892 236.313484 
L 245.498228 236.003043 
L 245.757537 236.964025 
L 246.016846 235.038592 
L 246.276155 236.625223 
L 246.535463 233.35361 
L 246.794772 236.857353 
L 247.054081 234.448615 
L 247.313389 236.504952 
L 247.572698 237.573935 
L 247.832007 236.365453 
L 248.350624 235.673755 
L 248.609933 232.749868 
L 249.128551 234.913485 
L 249.387859 233.131658 
L 249.906477 234.876474 
L 250.165786 234.360196 
L 250.425094 235.539509 
L 250.684403 234.953394 
L 250.943712 235.92301 
L 251.203021 233.031655 
L 251.462329 233.14625 
L 251.721638 231.684336 
L 251.980947 234.311858 
L 252.240256 232.17892 
L 252.499564 232.364997 
L 252.758873 231.89088 
L 253.018182 232.21116 
L 253.277491 231.824968 
L 253.796108 233.234328 
L 254.055417 231.229212 
L 254.314726 233.318679 
L 254.574034 231.544172 
L 254.833343 230.73186 
L 255.092652 228.944805 
L 255.611269 229.418493 
L 255.870578 230.58224 
L 256.129887 229.780194 
L 256.389195 230.894635 
L 256.648504 230.355177 
L 256.907813 231.349369 
L 257.167122 229.431759 
L 257.42643 230.951202 
L 257.685739 230.360022 
L 257.945048 228.46513 
L 258.204357 230.889377 
L 258.463665 229.735864 
L 258.722974 230.123935 
L 258.982283 229.043701 
L 259.241592 231.255157 
L 259.5009 229.112579 
L 259.760209 228.691851 
L 260.278827 225.673303 
L 260.538135 226.702358 
L 260.797444 226.683255 
L 261.056753 225.523207 
L 261.316062 228.876289 
L 261.57537 228.36482 
L 261.834679 229.365255 
L 262.093988 227.088373 
L 262.353297 229.705387 
L 262.612605 228.368801 
L 262.871914 228.55518 
L 263.131223 228.572728 
L 263.390532 227.351277 
L 263.64984 225.378277 
L 263.909149 226.638642 
L 264.427766 227.53288 
L 264.687075 228.504783 
L 264.946384 227.664219 
L 265.205693 228.780589 
L 265.465001 228.482422 
L 265.72431 227.450543 
L 266.242928 228.286542 
L 266.761545 226.112032 
L 267.020854 226.382799 
L 267.280163 226.395397 
L 267.539471 228.927846 
L 267.79878 226.604459 
L 268.058089 225.341287 
L 268.317398 225.277439 
L 268.576706 224.918981 
L 268.836015 225.653661 
L 269.095324 228.158462 
L 269.354633 227.575739 
L 269.613941 227.865913 
L 269.87325 227.161088 
L 270.132559 225.848326 
L 270.391868 225.155054 
L 270.651176 227.455489 
L 270.910485 226.972386 
L 271.169794 225.811649 
L 271.429103 225.681971 
L 271.688411 224.758195 
L 271.94772 224.756623 
L 272.207029 225.99145 
L 272.466337 224.375343 
L 272.725646 227.020048 
L 272.984955 226.801712 
L 273.244264 227.474309 
L 273.503572 230.271993 
L 273.762881 228.729897 
L 274.281499 231.030453 
L 274.540807 230.2517 
L 274.800116 230.268666 
L 275.059425 228.445733 
L 275.578042 226.673483 
L 275.837351 227.016223 
L 276.09666 227.649826 
L 276.355969 226.49605 
L 276.874586 225.466588 
L 277.133895 225.097704 
L 277.393204 225.111024 
L 277.652512 225.343649 
L 277.911821 226.92522 
L 278.430439 225.066933 
L 278.689747 224.667868 
L 278.949056 223.50481 
L 279.208365 223.866074 
L 279.726982 229.261851 
L 279.986291 230.082409 
L 280.2456 227.891983 
L 280.764217 228.951776 
L 281.023526 226.560513 
L 281.282835 225.932666 
L 281.542143 226.206913 
L 281.801452 225.864042 
L 282.32007 223.397331 
L 282.579378 225.825714 
L 282.838687 225.110602 
L 283.097996 223.672526 
L 283.357305 226.009782 
L 283.616613 223.951458 
L 284.135231 225.08881 
L 284.39454 224.564684 
L 284.653848 222.888119 
L 285.172466 225.021136 
L 285.431775 225.292258 
L 285.691083 223.067929 
L 285.950392 222.309222 
L 286.209701 223.45187 
L 286.46901 222.812947 
L 286.728318 224.620527 
L 286.987627 224.419714 
L 287.246936 224.507674 
L 287.506245 225.335201 
L 288.024862 222.238714 
L 288.284171 221.471843 
L 288.54348 223.21596 
L 288.802788 221.981104 
L 289.062097 223.267101 
L 289.321406 222.657322 
L 289.580714 222.885177 
L 289.840023 221.74595 
L 290.358641 226.467596 
L 290.617949 224.827204 
L 290.877258 225.051151 
L 291.136567 224.442363 
L 291.395876 224.813856 
L 291.914493 220.548548 
L 292.173802 220.117554 
L 292.433111 222.602178 
L 292.692419 222.035537 
L 293.211037 219.379093 
L 293.470346 219.676635 
L 293.729654 223.000057 
L 293.988963 222.115181 
L 294.507581 218.802425 
L 294.766889 218.126653 
L 295.026198 219.526531 
L 295.285507 219.422919 
L 295.544816 220.076151 
L 295.804124 218.950232 
L 296.063433 218.720814 
L 296.322742 218.679608 
L 296.582051 219.938185 
L 296.841359 220.59267 
L 297.100668 220.02585 
L 297.359977 220.621326 
L 297.619286 220.370321 
L 297.878594 219.053302 
L 298.137903 219.764667 
L 298.397212 218.492852 
L 298.65652 219.325718 
L 298.915829 218.603753 
L 299.175138 219.190109 
L 299.434447 219.437384 
L 299.693755 218.857837 
L 300.212373 220.736366 
L 300.73099 218.30298 
L 301.508917 219.868074 
L 301.768225 218.550448 
L 302.027534 222.268749 
L 302.546152 219.826783 
L 302.80546 217.780366 
L 303.064769 218.23934 
L 303.324078 217.624769 
L 303.583387 216.427475 
L 303.842695 217.455863 
L 304.102004 217.392617 
L 304.361313 216.160817 
L 304.620622 217.532521 
L 304.87993 217.112661 
L 305.139239 215.226591 
L 305.398548 215.939858 
L 305.657857 213.803029 
L 305.917165 214.632093 
L 306.176474 212.36963 
L 306.435783 213.48552 
L 306.695091 216.01832 
L 306.9544 215.223411 
L 307.213709 215.830302 
L 307.473018 214.142541 
L 307.732326 214.132396 
L 307.991635 212.462785 
L 308.250944 212.593938 
L 308.769561 214.797526 
L 309.02887 212.971135 
L 309.288179 209.694352 
L 309.547488 210.134665 
L 309.806796 209.564779 
L 310.066105 209.593681 
L 310.325414 208.152047 
L 310.584723 207.654893 
L 310.844031 206.849181 
L 311.10334 206.796436 
L 311.362649 206.493187 
L 311.621958 205.912569 
L 311.881266 208.608718 
L 312.140575 206.6745 
L 312.399884 207.986479 
L 313.17781 202.18125 
L 313.437119 203.465043 
L 313.696428 205.717647 
L 313.955736 205.358919 
L 314.215045 206.708224 
L 314.474354 204.405973 
L 314.992971 203.190295 
L 315.25228 203.77903 
L 315.511589 203.322517 
L 315.770897 204.87729 
L 316.030206 203.711951 
L 316.289515 201.605513 
L 316.548824 204.09828 
L 316.808132 203.881642 
L 317.067441 204.828694 
L 317.586059 200.440484 
L 317.845367 203.54488 
L 318.104676 198.815859 
L 318.363985 197.355108 
L 318.623294 199.0918 
L 319.141911 195.206039 
L 319.40122 195.193505 
L 319.660529 194.320314 
L 319.919837 194.200551 
L 320.179146 193.706258 
L 320.438455 194.705717 
L 320.697764 193.977642 
L 321.216381 195.946026 
L 321.47569 196.216948 
L 321.734999 192.930372 
L 321.994307 193.186708 
L 322.253616 192.679243 
L 322.512925 192.941464 
L 322.772234 189.883577 
L 323.031542 188.941523 
L 323.290851 189.611016 
L 323.55016 191.861661 
L 323.809468 189.539089 
L 324.068777 185.113191 
L 324.328086 187.576327 
L 324.587395 187.553512 
L 324.846703 186.018823 
L 325.106012 185.342857 
L 325.365321 184.012427 
L 325.62463 186.203919 
L 325.883938 184.469381 
L 326.143247 186.79026 
L 326.402556 186.946635 
L 326.661865 187.620673 
L 326.921173 184.815265 
L 327.180482 185.012069 
L 327.958408 175.721287 
L 328.217717 175.145036 
L 328.477026 177.97279 
L 328.736335 176.766268 
L 328.995643 177.508507 
L 329.514261 178.042186 
L 329.77357 177.730594 
L 330.032878 179.582123 
L 330.292187 176.971549 
L 330.810805 179.038027 
L 331.070113 177.196892 
L 331.329422 174.382273 
L 331.588731 176.07092 
L 332.107348 171.893141 
L 332.366657 175.068541 
L 332.625966 174.325405 
L 332.885274 175.007821 
L 333.144583 173.409461 
L 333.403892 173.14106 
L 333.663201 173.290571 
L 334.181818 171.421165 
L 334.700436 167.96123 
L 335.219053 170.09594 
L 335.478362 168.433101 
L 335.737671 170.300995 
L 335.996979 169.507809 
L 336.256288 167.707554 
L 336.515597 168.881681 
L 336.774906 169.461468 
L 337.034214 168.230179 
L 337.293523 171.961147 
L 337.552832 168.447624 
L 337.812141 169.244131 
L 338.071449 168.913994 
L 338.330758 168.027919 
L 338.590067 168.107897 
L 338.849376 166.836834 
L 339.108684 168.458365 
L 339.367993 173.134476 
L 339.627302 173.383147 
L 339.886611 168.857227 
L 340.145919 166.443164 
L 340.405228 165.192761 
L 340.664537 166.041449 
L 341.701772 160.64395 
L 341.96108 160.936703 
L 342.220389 161.744258 
L 342.739007 158.454591 
L 342.998315 157.306756 
L 343.257624 154.78802 
L 343.516933 162.471791 
L 343.776242 159.634479 
L 344.03555 161.107789 
L 344.294859 160.711536 
L 344.554168 161.234636 
L 344.813477 161.175407 
L 345.072785 161.756553 
L 345.332094 158.030199 
L 345.591403 157.005758 
L 345.850712 158.794777 
L 346.11002 156.620211 
L 346.369329 156.463288 
L 346.628638 159.753695 
L 346.887947 156.200023 
L 347.147255 154.943301 
L 347.406564 154.346773 
L 347.665873 155.218474 
L 347.925182 153.002282 
L 348.18449 153.841226 
L 348.703108 150.231601 
L 348.962416 151.480602 
L 349.221725 147.398765 
L 349.740343 146.882797 
L 349.999651 147.883752 
L 350.25896 146.98033 
L 350.777578 152.22173 
L 351.296195 148.816706 
L 351.555504 149.501082 
L 351.814813 148.611465 
L 352.074121 145.36316 
L 352.33343 146.753023 
L 352.592739 146.463154 
L 352.852048 150.609978 
L 353.111356 149.436244 
L 353.370665 149.962626 
L 353.889283 144.521713 
L 354.4079 143.294132 
L 354.667209 144.658202 
L 354.926518 141.823601 
L 355.185826 141.75033 
L 355.445135 144.976139 
L 355.704444 144.332398 
L 356.223061 140.045443 
L 356.741679 146.970011 
L 357.000988 145.57259 
L 357.260296 146.172452 
L 357.519605 144.528886 
L 357.778914 144.021519 
L 358.038222 141.781686 
L 358.297531 142.067604 
L 358.55684 141.196452 
L 358.816149 141.271292 
L 359.075457 138.507987 
L 359.334766 137.375365 
L 359.594075 137.858075 
L 359.853384 138.86295 
L 360.112692 138.267712 
L 360.890619 137.742356 
L 361.149927 138.439815 
L 362.187162 132.913095 
L 362.446471 133.430237 
L 362.965089 133.453747 
L 363.224397 132.227331 
L 363.483706 132.704576 
L 363.743015 132.740618 
L 364.002324 130.804449 
L 364.261632 130.340111 
L 364.520941 130.376097 
L 364.78025 130.607818 
L 365.039559 133.786157 
L 365.298867 134.13398 
L 365.558176 130.812371 
L 365.817485 129.483403 
L 366.076793 130.429563 
L 366.336102 128.687538 
L 366.595411 128.337138 
L 367.373337 139.101471 
L 367.632646 145.384738 
L 368.410572 135.082479 
L 368.669881 135.846011 
L 368.92919 132.333447 
L 369.188498 130.340434 
L 369.707116 129.197903 
L 369.966425 129.995558 
L 370.225733 132.465949 
L 370.744351 131.094976 
L 371.00366 128.438389 
L 371.262968 127.799757 
L 371.522277 132.907677 
L 372.040895 127.357521 
L 372.300203 127.440588 
L 372.559512 126.314286 
L 373.07813 122.896461 
L 373.337438 123.428963 
L 373.596747 123.340445 
L 374.115365 122.600317 
L 374.374673 124.824641 
L 374.633982 122.339098 
L 374.893291 122.658398 
L 375.152599 120.352833 
L 375.411908 121.097398 
L 375.671217 120.204938 
L 375.930526 120.133499 
L 376.189834 121.73068 
L 376.449143 120.798045 
L 376.708452 117.537366 
L 377.227069 125.803775 
L 377.486378 122.164533 
L 377.745687 120.737966 
L 378.264304 123.199357 
L 378.523613 121.710946 
L 378.782922 126.823319 
L 379.042231 123.058577 
L 379.560848 118.91018 
L 379.820157 119.04409 
L 380.079466 120.108559 
L 380.338774 119.194015 
L 380.598083 121.010973 
L 380.857392 113.513946 
L 381.116701 111.492545 
L 381.376009 112.514609 
L 381.635318 116.40355 
L 381.894627 116.774395 
L 382.153936 118.031507 
L 382.413244 112.070062 
L 382.672553 111.615418 
L 382.931862 111.648537 
L 383.19117 112.455018 
L 383.450479 114.318017 
L 383.709788 110.490439 
L 383.969097 112.334898 
L 384.228405 116.54963 
L 384.487714 112.007701 
L 384.747023 112.581149 
L 385.26564 108.880187 
L 385.524949 109.018037 
L 385.784258 108.282823 
L 386.043567 107.066966 
L 386.302875 109.961472 
L 386.562184 108.873968 
L 386.821493 109.480683 
L 387.080802 104.469364 
L 387.34011 104.737485 
L 387.599419 105.609703 
L 387.858728 108.709074 
L 388.118037 104.362645 
L 388.377345 105.152299 
L 388.636654 104.003 
L 388.895963 100.975382 
L 389.155272 103.156194 
L 389.41458 101.42787 
L 389.673889 101.09526 
L 389.933198 102.395095 
L 390.192507 100.397948 
L 390.711124 98.989944 
L 390.970433 98.690541 
L 391.229742 99.673923 
L 391.48905 101.578895 
L 392.007668 94.829996 
L 392.266976 96.697147 
L 392.526285 97.039775 
L 392.785594 97.190448 
L 393.304211 98.726008 
L 393.56352 101.505786 
L 393.822829 98.254027 
L 394.082138 99.116457 
L 394.600755 102.302978 
L 394.860064 99.717869 
L 395.119373 95.023671 
L 395.378681 95.107504 
L 395.897299 98.885006 
L 396.156608 101.286032 
L 396.415916 102.186472 
L 396.675225 101.070577 
L 396.934534 98.961353 
L 397.193843 97.917032 
L 397.453151 97.596413 
L 397.71246 99.45678 
L 397.971769 96.063709 
L 398.231078 95.981495 
L 398.490386 99.740871 
L 399.009004 92.2215 
L 399.268313 91.176618 
L 399.527621 92.91612 
L 399.78693 93.024762 
L 400.046239 97.233361 
L 400.564856 93.618069 
L 400.824165 93.242327 
L 401.342782 96.065639 
L 401.602091 98.81064 
L 402.120709 90.478059 
L 402.380017 97.401764 
L 402.898635 88.898645 
L 403.157944 87.19037 
L 403.417252 86.473303 
L 403.676561 86.141382 
L 403.93587 83.36016 
L 404.195179 84.053128 
L 404.454487 82.695045 
L 404.713796 83.076024 
L 404.973105 81.519266 
L 405.232414 82.927582 
L 405.491722 85.916785 
L 405.751031 83.655673 
L 406.01034 83.169591 
L 406.528957 85.437793 
L 406.788266 83.156377 
L 407.047575 83.466974 
L 407.306884 86.231444 
L 407.566192 78.698489 
L 407.825501 79.155573 
L 408.08481 81.928138 
L 408.344119 74.458411 
L 408.603427 73.384417 
L 408.862736 75.446651 
L 409.122045 71.747266 
L 409.381353 74.006297 
L 409.640662 79.105922 
L 409.899971 77.314387 
L 410.15928 72.112963 
L 410.418588 76.441712 
L 410.677897 72.44859 
L 410.937206 73.296129 
L 411.715132 76.738651 
L 411.974441 72.589568 
L 412.23375 72.82597 
L 412.493058 75.089796 
L 412.752367 68.941776 
L 413.011676 72.904874 
L 413.270985 72.380836 
L 413.530293 72.491985 
L 413.789602 70.014727 
L 414.048911 70.995941 
L 414.30822 69.089695 
L 414.567528 66.358955 
L 414.826837 65.969467 
L 415.086146 67.695774 
L 415.345455 64.751575 
L 415.604763 63.686236 
L 415.864072 64.857431 
L 416.123381 66.94378 
L 416.38269 64.476835 
L 416.641998 65.430569 
L 416.901307 61.462633 
L 417.160616 61.050633 
L 417.679233 66.953325 
L 417.938542 69.957988 
L 418.457159 64.582986 
L 418.716468 67.164982 
L 418.975777 65.407114 
L 419.235086 65.027693 
L 419.494394 61.61541 
L 419.753703 62.287035 
L 420.013012 61.86496 
L 420.272321 62.18015 
L 420.531629 61.006439 
L 421.050247 64.999722 
L 421.568864 57.856959 
L 421.828173 61.531518 
L 422.087482 61.930383 
L 422.346791 68.137697 
L 422.606099 65.115771 
L 422.865408 59.068278 
L 423.124717 61.272403 
L 424.161952 56.031403 
L 424.421261 60.194592 
L 424.680569 58.469105 
L 424.939878 60.129482 
L 425.199187 64.192126 
L 425.458495 62.318543 
L 425.717804 61.933457 
L 425.977113 59.328793 
L 426.236422 64.831897 
L 426.49573 58.330487 
L 426.755039 58.485262 
L 427.014348 59.309293 
L 427.273657 62.593822 
L 427.532965 60.173394 
L 427.792274 60.576294 
L 428.051583 56.52424 
L 428.310892 58.483748 
L 428.5702 56.15293 
L 429.088818 66.559831 
L 429.348127 64.476422 
L 429.607435 65.007054 
L 429.866744 59.457091 
L 430.385362 54.459772 
L 430.64467 59.791962 
L 430.903979 58.67344 
L 431.163288 56.133349 
L 431.422597 57.836355 
L 431.681905 56.595891 
L 431.941214 56.779846 
L 432.459832 67.145816 
L 432.71914 68.682848 
L 432.978449 64.289585 
L 433.497067 59.700814 
L 433.756375 52.729818 
L 434.015684 57.197002 
L 434.274993 56.756304 
L 434.534301 60.047589 
L 434.79361 55.90244 
L 435.312228 56.468981 
L 435.571536 55.435678 
L 435.830845 53.564591 
L 436.090154 50.752596 
L 436.349463 50.876705 
L 436.608771 53.214767 
L 436.86808 54.272748 
L 437.127389 59.790554 
L 437.386698 57.225685 
L 437.646006 59.269052 
L 437.905315 58.619538 
L 438.164624 58.565881 
L 438.423933 56.619229 
L 438.683241 60.840671 
L 438.94255 59.00212 
L 439.201859 51.055324 
L 439.461168 53.956531 
L 439.720476 53.68343 
L 439.979785 51.004014 
L 440.239094 54.417838 
L 440.498403 54.679028 
L 440.757711 57.530346 
L 441.01702 59.099782 
L 441.276329 59.308617 
L 441.535638 61.364864 
L 441.794946 62.331422 
L 442.313564 52.452761 
L 442.832181 55.638847 
L 443.09149 51.81733 
L 443.350799 50.325243 
L 443.610107 51.188574 
L 443.869416 57.961573 
L 444.128725 58.470036 
L 444.388034 55.910096 
L 444.647342 58.438685 
L 444.906651 56.561898 
L 445.16596 58.172479 
L 445.684577 53.000019 
L 445.943886 57.441573 
L 446.203195 59.568645 
L 446.462504 55.558895 
L 446.721812 58.810834 
L 446.981121 54.976879 
L 447.24043 54.475471 
L 447.759047 51.689604 
L 448.018356 53.657584 
L 448.536974 48.024088 
L 448.796282 53.343452 
L 449.3149 58.28779 
L 449.574209 56.808436 
L 449.833517 56.795207 
L 450.092826 54.316434 
L 450.352135 55.770924 
L 450.611444 53.313936 
L 450.870752 54.485742 
L 451.130061 56.808425 
L 451.38937 52.349458 
L 451.648678 58.231656 
L 451.907987 58.44253 
L 452.167296 59.449522 
L 452.685913 50.813825 
L 452.945222 50.315788 
L 453.204531 55.286306 
L 453.46384 57.912095 
L 453.723148 53.974235 
L 454.241766 51.710324 
L 454.501075 49.604868 
L 454.760383 49.491862 
L 455.019692 52.984382 
L 455.279001 50.995961 
L 455.53831 56.519416 
L 455.797618 54.240867 
L 456.056927 52.998157 
L 456.316236 48.540186 
L 456.575545 51.898651 
L 456.834853 48.291919 
L 457.094162 48.755039 
L 457.353471 52.464782 
L 457.61278 49.592862 
L 457.872088 49.744803 
L 458.390706 52.498079 
L 458.650015 52.629752 
L 458.909323 54.236885 
L 459.687249 49.336522 
L 459.946558 50.861667 
L 460.465176 50.63236 
L 460.724484 51.074725 
L 460.983793 50.455645 
L 461.243102 51.807181 
L 461.502411 51.657845 
L 461.761719 52.529096 
L 462.021028 52.104111 
L 462.280337 50.705034 
L 462.539646 52.207836 
L 462.798954 51.890383 
L 463.058263 49.425647 
L 463.317572 48.916401 
L 463.576881 47.248153 
L 464.354807 55.059222 
L 464.873424 46.624183 
L 465.132733 47.697918 
L 465.392042 50.538617 
L 465.651351 49.531026 
L 465.910659 50.85933 
L 466.429277 46.9441 
L 466.688586 47.514905 
L 466.947894 50.733613 
L 467.207203 45.350327 
L 467.466512 47.39668 
L 467.725821 48.069623 
L 467.985129 49.543056 
L 468.244438 52.344638 
L 468.503747 50.012114 
L 468.763055 49.005742 
L 469.022364 49.211761 
L 469.281673 49.647694 
L 469.540982 48.320253 
L 469.80029 49.876146 
L 470.059599 50.682671 
L 470.578217 47.361069 
L 470.837525 48.442556 
L 471.096834 48.055705 
L 471.356143 48.297968 
L 471.615452 49.065279 
L 471.87476 51.409948 
L 472.393378 49.048129 
L 472.652687 51.09162 
L 472.911995 50.225727 
L 473.171304 53.396965 
L 473.430613 51.675222 
L 473.689922 47.568614 
L 473.94923 47.416699 
L 474.208539 51.804175 
L 474.467848 51.123002 
L 474.727157 52.909248 
L 475.245774 47.607087 
L 475.505083 44.023613 
L 475.764392 47.317505 
L 476.0237 47.367747 
L 476.283009 46.306645 
L 476.542318 47.818945 
L 476.801626 46.692029 
L 477.060935 47.177373 
L 477.320244 46.237668 
L 477.579553 44.440017 
L 477.838861 44.891805 
L 478.09817 45.916867 
L 478.357479 46.233956 
L 478.616788 45.098043 
L 478.876096 48.763336 
L 479.394714 49.500123 
L 479.654023 48.8456 
L 479.913331 45.499707 
L 480.17264 45.047499 
L 480.431949 42.907116 
L 480.691258 45.109104 
L 480.950566 44.427641 
L 481.469184 46.141477 
L 481.987801 42.558879 
L 482.24711 41.799483 
L 482.506419 41.994429 
L 483.025036 41.168281 
L 483.284345 44.016108 
L 483.802963 41.160149 
L 484.062271 44.969337 
L 484.32158 44.735281 
L 484.580889 47.067864 
L 485.099506 48.600194 
L 485.358815 48.702902 
L 485.877432 43.991905 
L 486.136741 44.136948 
L 486.39605 43.593418 
L 486.914667 47.583177 
L 487.173976 46.825007 
L 487.433285 45.183118 
L 487.692594 45.427707 
L 487.951902 43.701482 
L 488.211211 44.680528 
L 488.47052 43.711629 
L 488.729829 45.308288 
L 488.989137 44.596571 
L 489.248446 45.086893 
L 489.507755 43.696714 
L 489.767064 43.373643 
L 490.026372 45.234076 
L 490.54499 43.180005 
L 490.804299 42.973043 
L 491.063607 44.773409 
L 491.322916 45.347806 
L 491.582225 43.914702 
L 491.841534 44.768714 
L 492.100842 44.696163 
L 492.360151 44.932015 
L 492.61946 42.415458 
L 492.878769 42.070233 
L 493.397386 42.263983 
L 493.656695 41.012141 
L 493.916003 42.212397 
L 494.175312 40.552125 
L 494.434621 43.080774 
L 494.69393 44.31608 
L 494.953238 43.728089 
L 495.212547 44.456652 
L 495.471856 45.539565 
L 495.731165 45.740293 
L 495.990473 45.157846 
L 496.249782 44.168582 
L 496.509091 42.468031 
L 496.509091 42.468031 
" clip-path="url(#p5d637514c2)" style="fill: none; stroke: #1f77b4; stroke-width: 1.5; stroke-linecap: square"/>
   </g>
   <g id="patch_3">
    <path d="M 70.4 305.152125 
L 70.4 27.952125 
" style="fill: none; stroke: #000000; stroke-width: 0.8; stroke-linejoin: miter; stroke-linecap: square"/>
   </g>
   <g id="patch_4">
    <path d="M 516.8 305.152125 
L 516.8 27.952125 
" style="fill: none; stroke: #000000; stroke-width: 0.8; stroke-linejoin: miter; stroke-linecap: square"/>
   </g>
   <g id="patch_5">
    <path d="M 70.4 305.152125 
L 516.8 305.152125 
" style="fill: none; stroke: #000000; stroke-width: 0.8; stroke-linejoin: miter; stroke-linecap: square"/>
   </g>
   <g id="patch_6">
    <path d="M 70.4 27.952125 
L 516.8 27.952125 
" style="fill: none; stroke: #000000; stroke-width: 0.8; stroke-linejoin: miter; stroke-linecap: square"/>
   </g>
   <g id="text_16">
    <!-- ML1 Meta Testing -->
    <g transform="translate(212.004313 21.952125)scale(0.216 -0.216)">
     <defs>
      <path id="STIXGeneral-Regular-4d" d="M 5530 0 
L 3738 0 
L 3738 122 
Q 4115 147 4214 265 
Q 4314 384 4314 787 
L 4314 3661 
L 2682 0 
L 2592 0 
L 979 3514 
L 979 966 
Q 979 448 1088 294 
Q 1197 141 1574 122 
L 1574 0 
L 77 0 
L 77 122 
Q 358 141 480 205 
Q 602 269 650 432 
Q 698 595 698 966 
L 698 3514 
Q 698 3878 589 3984 
Q 480 4090 90 4115 
L 90 4237 
L 1357 4237 
L 2835 1024 
L 4250 4237 
L 5523 4237 
L 5523 4115 
Q 5178 4109 5072 3993 
Q 4966 3878 4966 3520 
L 4966 717 
Q 4966 378 5072 262 
Q 5178 147 5530 122 
L 5530 0 
z
" transform="scale(0.015625)"/>
      <path id="STIXGeneral-Regular-4c" d="M 3827 1114 
L 3520 0 
L 77 0 
L 77 122 
Q 429 141 531 256 
Q 634 371 634 736 
L 634 3494 
Q 634 3872 541 3981 
Q 448 4090 77 4115 
L 77 4237 
L 1888 4237 
L 1888 4115 
Q 1498 4090 1392 3984 
Q 1286 3878 1286 3507 
L 1286 538 
Q 1286 358 1398 304 
Q 1510 250 1862 250 
L 2310 250 
Q 3085 250 3392 640 
Q 3520 813 3661 1114 
L 3827 1114 
z
" transform="scale(0.015625)"/>
     </defs>
     <use xlink:href="#STIXGeneral-Regular-4d"/>
     <use xlink:href="#STIXGeneral-Regular-4c" x="88.899994"/>
     <use xlink:href="#STIXGeneral-Regular-31" x="149.999985"/>
     <use xlink:href="#STIXGeneral-Regular-20" x="199.999969"/>
     <use xlink:href="#STIXGeneral-Regular-4d" x="224.999954"/>
     <use xlink:href="#STIXGeneral-Regular-65" x="313.899948"/>
     <use xlink:href="#STIXGeneral-Regular-74" x="358.299942"/>
     <use xlink:href="#STIXGeneral-Regular-61" x="386.09993"/>
     <use xlink:href="#STIXGeneral-Regular-20" x="430.499924"/>
     <use xlink:href="#STIXGeneral-Regular-54" x="455.499908"/>
     <use xlink:href="#STIXGeneral-Regular-65" x="516.599899"/>
     <use xlink:href="#STIXGeneral-Regular-73" x="560.999893"/>
     <use xlink:href="#STIXGeneral-Regular-74" x="599.899887"/>
     <use xlink:href="#STIXGeneral-Regular-69" x="627.699875"/>
     <use xlink:href="#STIXGeneral-Regular-6e" x="655.499863"/>
     <use xlink:href="#STIXGeneral-Regular-67" x="705.499847"/>
    </g>
   </g>
   <g id="legend_1">
    <g id="patch_7">
     <path d="M 80.2 58.990562 
L 200.43375 58.990562 
Q 203.23375 58.990562 203.23375 56.190562 
L 203.23375 37.752125 
Q 203.23375 34.952125 200.43375 34.952125 
L 80.2 34.952125 
Q 77.4 34.952125 77.4 37.752125 
L 77.4 56.190562 
Q 77.4 58.990562 80.2 58.990562 
z
" style="fill: #ffffff; opacity: 0.8; stroke: #cccccc; stroke-linejoin: miter"/>
    </g>
    <g id="line2d_26">
     <path d="M 83 45.452125 
L 97 45.452125 
L 111 45.452125 
" style="fill: none; stroke: #1f77b4; stroke-width: 1.5; stroke-linecap: square"/>
    </g>
    <g id="text_17">
     <!-- basketball-v2 -->
     <g transform="translate(122.2 50.352125)scale(0.14 -0.14)">
      <defs>
       <path id="STIXGeneral-Regular-62" d="M 979 4358 
L 979 2406 
Q 1082 2650 1315 2797 
Q 1549 2944 1843 2944 
Q 2349 2944 2672 2541 
Q 2995 2138 2995 1536 
Q 2995 832 2566 384 
Q 2138 -64 1498 -64 
Q 1107 -64 774 67 
Q 442 198 442 358 
L 442 3622 
Q 442 3859 384 3926 
Q 326 3994 128 3994 
Q 83 3994 19 3981 
L 19 4090 
L 211 4147 
Q 864 4346 947 4371 
L 979 4358 
z
M 979 2035 
L 979 474 
Q 979 326 1161 233 
Q 1344 141 1600 141 
Q 1978 141 2195 416 
Q 2432 710 2432 1261 
Q 2432 1888 2182 2240 
Q 1971 2541 1613 2541 
Q 1357 2541 1168 2390 
Q 979 2240 979 2035 
z
" transform="scale(0.015625)"/>
       <path id="STIXGeneral-Regular-6b" d="M 3232 0 
L 1837 0 
L 1837 96 
L 1958 96 
Q 2093 96 2093 192 
Q 2093 250 2022 339 
L 1062 1606 
L 1062 429 
Q 1062 262 1142 185 
Q 1222 109 1414 102 
L 1542 96 
L 1542 0 
L 45 0 
L 45 96 
Q 390 154 457 214 
Q 525 275 525 525 
L 525 3610 
Q 525 3840 467 3920 
Q 410 4000 250 4000 
Q 211 4000 45 3987 
L 45 4090 
L 237 4141 
Q 621 4243 1037 4371 
L 1062 4358 
L 1062 1670 
L 1939 2451 
Q 2086 2586 2086 2675 
Q 2086 2739 2019 2761 
Q 1952 2784 1766 2790 
L 1766 2880 
L 3072 2880 
L 3072 2784 
Q 2752 2784 2505 2646 
Q 2259 2509 1690 1978 
L 1504 1805 
L 2483 563 
Q 2829 122 3232 96 
L 3232 0 
z
" transform="scale(0.015625)"/>
       <path id="STIXGeneral-Regular-6c" d="M 1645 0 
L 134 0 
L 134 96 
Q 435 122 531 221 
Q 627 320 627 589 
L 627 3590 
Q 627 3821 569 3910 
Q 512 4000 358 4000 
Q 224 4000 122 3987 
L 122 4090 
Q 730 4237 1133 4371 
L 1165 4346 
L 1165 557 
Q 1165 288 1254 201 
Q 1344 115 1645 96 
L 1645 0 
z
" transform="scale(0.015625)"/>
       <path id="STIXGeneral-Regular-2d" d="M 1824 1242 
L 250 1242 
L 250 1645 
L 1824 1645 
L 1824 1242 
z
" transform="scale(0.015625)"/>
      </defs>
      <use xlink:href="#STIXGeneral-Regular-62"/>
      <use xlink:href="#STIXGeneral-Regular-61" x="49.999985"/>
      <use xlink:href="#STIXGeneral-Regular-73" x="94.399979"/>
      <use xlink:href="#STIXGeneral-Regular-6b" x="133.299973"/>
      <use xlink:href="#STIXGeneral-Regular-65" x="183.299957"/>
      <use xlink:href="#STIXGeneral-Regular-74" x="227.699951"/>
      <use xlink:href="#STIXGeneral-Regular-62" x="255.499939"/>
      <use xlink:href="#STIXGeneral-Regular-61" x="305.499924"/>
      <use xlink:href="#STIXGeneral-Regular-6c" x="349.899918"/>
      <use xlink:href="#STIXGeneral-Regular-6c" x="377.699905"/>
      <use xlink:href="#STIXGeneral-Regular-2d" x="405.499893"/>
      <use xlink:href="#STIXGeneral-Regular-76" x="438.799881"/>
      <use xlink:href="#STIXGeneral-Regular-32" x="488.799866"/>
     </g>
    </g>
   </g>
  </g>
 </g>
 <defs>
  <clipPath id="p5d637514c2">
   <rect x="70.4" y="27.952125" width="446.4" height="277.2"/>
  </clipPath>
 </defs>
</svg>
