<?xml version="1.0" encoding="utf-8" standalone="no"?>
<!DOCTYPE svg PUBLIC "-//W3C//DTD SVG 1.1//EN"
  "http://www.w3.org/Graphics/SVG/1.1/DTD/svg11.dtd">
<svg xmlns:xlink="http://www.w3.org/1999/xlink" width="510.5pt" height="355.769pt" viewBox="0 0 510.5 355.769" xmlns="http://www.w3.org/2000/svg" version="1.1">
 <metadata>
  <rdf:RDF xmlns:dc="http://purl.org/dc/elements/1.1/" xmlns:cc="http://creativecommons.org/ns#" xmlns:rdf="http://www.w3.org/1999/02/22-rdf-syntax-ns#">
   <cc:Work>
    <dc:type rdf:resource="http://purl.org/dc/dcmitype/StillImage"/>
    <dc:date>2021-12-11T16:00:08.083015</dc:date>
    <dc:format>image/svg+xml</dc:format>
    <dc:creator>
     <cc:Agent>
      <dc:title>Matplotlib v3.5.0, https://matplotlib.org/</dc:title>
     </cc:Agent>
    </dc:creator>
   </cc:Work>
  </rdf:RDF>
 </metadata>
 <defs>
  <style type="text/css">*{stroke-linejoin: round; stroke-linecap: butt}</style>
 </defs>
 <g id="figure_1">
  <g id="patch_1">
   <path d="M 0 355.769 
L 510.5 355.769 
L 510.5 0 
L 0 0 
z
" style="fill: #ffffff"/>
  </g>
  <g id="axes_1">
   <g id="patch_2">
    <path d="M 56.9 305.152125 
L 503.3 305.152125 
L 503.3 27.952125 
L 56.9 27.952125 
z
" style="fill: #ffffff"/>
   </g>
   <g id="matplotlib.axis_1">
    <g id="xtick_1">
     <g id="line2d_1">
      <path d="M 76.579737 305.152125 
L 76.579737 27.952125 
" clip-path="url(#p933dbcbcdf)" style="fill: none; stroke: #b0b0b0; stroke-width: 0.8; stroke-linecap: square"/>
     </g>
     <g id="line2d_2">
      <defs>
       <path id="m9626fe2d13" d="M 0 0 
L 0 3.5 
" style="stroke: #000000; stroke-width: 0.8"/>
      </defs>
      <g>
       <use xlink:href="#m9626fe2d13" x="76.579737" y="305.152125" style="stroke: #000000; stroke-width: 0.8"/>
      </g>
     </g>
     <g id="text_1">
      <!-- 0 -->
      <g transform="translate(72.079737 324.445562)scale(0.18 -0.18)">
       <defs>
        <path id="STIXGeneral-Regular-30" d="M 3046 2112 
Q 3046 1683 2963 1302 
Q 2880 922 2717 602 
Q 2554 282 2266 96 
Q 1978 -90 1600 -90 
Q 1210 -90 915 108 
Q 621 307 461 640 
Q 301 973 227 1350 
Q 154 1728 154 2150 
Q 154 2746 301 3222 
Q 448 3699 790 4012 
Q 1133 4326 1626 4326 
Q 2253 4326 2649 3712 
Q 3046 3098 3046 2112 
z
M 2432 2080 
Q 2432 3091 2217 3625 
Q 2003 4160 1587 4160 
Q 1190 4160 979 3622 
Q 768 3085 768 2106 
Q 768 1120 979 598 
Q 1190 77 1600 77 
Q 2003 77 2217 598 
Q 2432 1120 2432 2080 
z
" transform="scale(0.015625)"/>
       </defs>
       <use xlink:href="#STIXGeneral-Regular-30"/>
      </g>
     </g>
    </g>
    <g id="xtick_2">
     <g id="line2d_3">
      <path d="M 178.441731 305.152125 
L 178.441731 27.952125 
" clip-path="url(#p933dbcbcdf)" style="fill: none; stroke: #b0b0b0; stroke-width: 0.8; stroke-linecap: square"/>
     </g>
     <g id="line2d_4">
      <g>
       <use xlink:href="#m9626fe2d13" x="178.441731" y="305.152125" style="stroke: #000000; stroke-width: 0.8"/>
      </g>
     </g>
     <g id="text_2">
      <!-- 2 -->
      <g transform="translate(173.941731 324.445562)scale(0.18 -0.18)">
       <defs>
        <path id="STIXGeneral-Regular-32" d="M 3034 877 
L 2688 0 
L 186 0 
L 186 77 
L 1325 1286 
Q 1773 1754 1965 2144 
Q 2157 2534 2157 2950 
Q 2157 3379 1920 3616 
Q 1683 3853 1267 3853 
Q 922 3853 720 3673 
Q 518 3494 326 3021 
L 192 3053 
Q 301 3648 630 3987 
Q 960 4326 1523 4326 
Q 2054 4326 2380 4006 
Q 2707 3686 2707 3200 
Q 2707 2477 1888 1613 
L 832 486 
L 2330 486 
Q 2541 486 2665 569 
Q 2790 653 2944 915 
L 3034 877 
z
" transform="scale(0.015625)"/>
       </defs>
       <use xlink:href="#STIXGeneral-Regular-32"/>
      </g>
     </g>
    </g>
    <g id="xtick_3">
     <g id="line2d_5">
      <path d="M 280.303724 305.152125 
L 280.303724 27.952125 
" clip-path="url(#p933dbcbcdf)" style="fill: none; stroke: #b0b0b0; stroke-width: 0.8; stroke-linecap: square"/>
     </g>
     <g id="line2d_6">
      <g>
       <use xlink:href="#m9626fe2d13" x="280.303724" y="305.152125" style="stroke: #000000; stroke-width: 0.8"/>
      </g>
     </g>
     <g id="text_3">
      <!-- 4 -->
      <g transform="translate(275.803724 324.445562)scale(0.18 -0.18)">
       <defs>
        <path id="STIXGeneral-Regular-34" d="M 3027 1069 
L 2368 1069 
L 2368 0 
L 1869 0 
L 1869 1069 
L 77 1069 
L 77 1478 
L 2086 4326 
L 2368 4326 
L 2368 1478 
L 3027 1478 
L 3027 1069 
z
M 1869 1478 
L 1869 3674 
L 333 1478 
L 1869 1478 
z
" transform="scale(0.015625)"/>
       </defs>
       <use xlink:href="#STIXGeneral-Regular-34"/>
      </g>
     </g>
    </g>
    <g id="xtick_4">
     <g id="line2d_7">
      <path d="M 382.165717 305.152125 
L 382.165717 27.952125 
" clip-path="url(#p933dbcbcdf)" style="fill: none; stroke: #b0b0b0; stroke-width: 0.8; stroke-linecap: square"/>
     </g>
     <g id="line2d_8">
      <g>
       <use xlink:href="#m9626fe2d13" x="382.165717" y="305.152125" style="stroke: #000000; stroke-width: 0.8"/>
      </g>
     </g>
     <g id="text_4">
      <!-- 6 -->
      <g transform="translate(377.665717 324.445562)scale(0.18 -0.18)">
       <defs>
        <path id="STIXGeneral-Regular-36" d="M 2854 4378 
L 2867 4275 
Q 2112 4154 1606 3664 
Q 1101 3174 973 2451 
Q 1344 2739 1786 2739 
Q 2349 2739 2672 2380 
Q 2995 2022 2995 1402 
Q 2995 774 2669 378 
Q 2291 -90 1651 -90 
Q 870 -90 518 557 
Q 218 1107 218 1786 
Q 218 2835 915 3552 
Q 1312 3962 1731 4131 
Q 2150 4301 2854 4378 
z
M 2419 1203 
Q 2419 2445 1555 2445 
Q 1235 2445 1024 2275 
Q 813 2106 813 1702 
Q 813 954 1046 522 
Q 1280 90 1722 90 
Q 2061 90 2240 394 
Q 2419 698 2419 1203 
z
" transform="scale(0.015625)"/>
       </defs>
       <use xlink:href="#STIXGeneral-Regular-36"/>
      </g>
     </g>
    </g>
    <g id="xtick_5">
     <g id="line2d_9">
      <path d="M 484.027711 305.152125 
L 484.027711 27.952125 
" clip-path="url(#p933dbcbcdf)" style="fill: none; stroke: #b0b0b0; stroke-width: 0.8; stroke-linecap: square"/>
     </g>
     <g id="line2d_10">
      <g>
       <use xlink:href="#m9626fe2d13" x="484.027711" y="305.152125" style="stroke: #000000; stroke-width: 0.8"/>
      </g>
     </g>
     <g id="text_5">
      <!-- 8 -->
      <g transform="translate(479.527711 324.445562)scale(0.18 -0.18)">
       <defs>
        <path id="STIXGeneral-Regular-38" d="M 2848 992 
Q 2848 499 2505 204 
Q 2163 -90 1587 -90 
Q 1050 -90 704 204 
Q 358 499 358 954 
Q 358 1293 524 1533 
Q 691 1773 1190 2125 
Q 710 2522 553 2765 
Q 397 3008 397 3328 
Q 397 3782 745 4054 
Q 1094 4326 1638 4326 
Q 2106 4326 2410 4060 
Q 2714 3795 2714 3411 
Q 2714 3059 2531 2848 
Q 2349 2637 1856 2374 
Q 2432 1990 2640 1689 
Q 2848 1389 2848 992 
z
M 2272 3411 
Q 2272 3744 2086 3945 
Q 1901 4147 1574 4147 
Q 1248 4147 1059 3977 
Q 870 3808 870 3513 
Q 870 3219 1059 2979 
Q 1248 2739 1670 2490 
Q 1997 2682 2134 2896 
Q 2272 3110 2272 3411 
z
M 1734 1741 
L 1357 1997 
Q 1075 1766 960 1545 
Q 845 1325 845 1011 
Q 845 576 1065 333 
Q 1286 90 1658 90 
Q 1971 90 2166 285 
Q 2362 480 2362 794 
Q 2362 1082 2214 1299 
Q 2067 1517 1734 1741 
z
" transform="scale(0.015625)"/>
       </defs>
       <use xlink:href="#STIXGeneral-Regular-38"/>
      </g>
     </g>
    </g>
    <g id="text_6">
     <!-- Training Environment Steps -->
     <g transform="translate(178.104688 344.645562)scale(0.18 -0.18)">
      <defs>
       <path id="STIXGeneral-Regular-54" d="M 3795 3149 
L 3642 3149 
Q 3539 3674 3353 3821 
Q 3168 3968 2656 3968 
L 2278 3968 
L 2278 710 
Q 2278 346 2387 243 
Q 2496 141 2893 122 
L 2893 0 
L 1024 0 
L 1024 122 
Q 1427 147 1526 256 
Q 1626 365 1626 787 
L 1626 3968 
L 1242 3968 
Q 723 3968 540 3817 
Q 358 3667 262 3149 
L 109 3149 
L 154 4237 
L 3750 4237 
L 3795 3149 
z
" transform="scale(0.015625)"/>
       <path id="STIXGeneral-Regular-72" d="M 1024 2931 
L 1024 2342 
Q 1267 2688 1430 2816 
Q 1594 2944 1792 2944 
Q 1958 2944 2051 2854 
Q 2144 2765 2144 2605 
Q 2144 2470 2077 2393 
Q 2010 2317 1894 2317 
Q 1773 2317 1638 2445 
Q 1536 2541 1472 2541 
Q 1338 2541 1181 2355 
Q 1024 2170 1024 2016 
L 1024 576 
Q 1024 301 1133 205 
Q 1242 109 1568 96 
L 1568 0 
L 32 0 
L 32 96 
Q 339 154 412 224 
Q 486 294 486 538 
L 486 2138 
Q 486 2349 438 2435 
Q 390 2522 269 2522 
Q 166 2522 45 2496 
L 45 2598 
Q 448 2726 992 2944 
L 1024 2931 
z
" transform="scale(0.015625)"/>
       <path id="STIXGeneral-Regular-61" d="M 2829 422 
L 2829 243 
Q 2586 -64 2253 -64 
Q 1888 -64 1843 403 
L 1837 403 
Q 1427 -64 909 -64 
Q 608 -64 422 112 
Q 237 288 237 602 
Q 237 1050 685 1350 
Q 992 1555 1837 1869 
L 1837 2214 
Q 1837 2502 1699 2646 
Q 1562 2790 1338 2790 
Q 1146 2790 1018 2697 
Q 890 2605 890 2477 
Q 890 2419 909 2348 
Q 928 2278 928 2208 
Q 928 2112 841 2029 
Q 755 1946 634 1946 
Q 525 1946 441 2029 
Q 358 2112 358 2240 
Q 358 2547 685 2752 
Q 986 2944 1421 2944 
Q 1939 2944 2176 2656 
Q 2291 2522 2323 2384 
Q 2355 2246 2355 1946 
L 2355 723 
Q 2355 301 2554 301 
Q 2682 301 2829 422 
z
M 1837 813 
L 1837 1715 
Q 1248 1510 1018 1293 
Q 800 1094 800 800 
Q 800 557 921 432 
Q 1043 307 1242 307 
Q 1453 307 1613 410 
Q 1747 506 1792 589 
Q 1837 672 1837 813 
z
" transform="scale(0.015625)"/>
       <path id="STIXGeneral-Regular-69" d="M 1152 4045 
Q 1152 3904 1056 3811 
Q 960 3718 819 3718 
Q 685 3718 592 3811 
Q 499 3904 499 4045 
Q 499 4179 595 4275 
Q 691 4371 826 4371 
Q 966 4371 1059 4275 
Q 1152 4179 1152 4045 
z
M 1619 0 
L 102 0 
L 102 96 
Q 435 115 521 211 
Q 608 307 608 666 
L 608 2118 
Q 608 2342 563 2432 
Q 518 2522 397 2522 
Q 243 2522 128 2490 
L 128 2592 
L 1120 2944 
L 1146 2918 
L 1146 672 
Q 1146 314 1226 218 
Q 1306 122 1619 96 
L 1619 0 
z
" transform="scale(0.015625)"/>
       <path id="STIXGeneral-Regular-6e" d="M 3104 0 
L 1773 0 
L 1779 96 
Q 2016 115 2096 233 
Q 2176 352 2176 672 
L 2176 1946 
Q 2176 2592 1709 2592 
Q 1549 2592 1408 2515 
Q 1267 2438 1050 2227 
L 1050 461 
Q 1050 269 1136 192 
Q 1222 115 1466 96 
L 1466 0 
L 115 0 
L 115 96 
Q 358 115 435 214 
Q 512 314 512 602 
L 512 2157 
Q 512 2394 467 2483 
Q 422 2573 288 2573 
Q 160 2573 102 2547 
L 102 2656 
Q 550 2784 979 2944 
L 1030 2925 
L 1030 2426 
L 1037 2426 
Q 1491 2944 1958 2944 
Q 2323 2944 2518 2688 
Q 2714 2432 2714 1958 
L 2714 544 
Q 2714 288 2790 205 
Q 2867 122 3104 96 
L 3104 0 
z
" transform="scale(0.015625)"/>
       <path id="STIXGeneral-Regular-67" d="M 3008 2483 
L 2477 2483 
Q 2598 2208 2598 1946 
Q 2598 1453 2265 1203 
Q 1933 954 1600 954 
Q 1530 954 1357 973 
L 1235 986 
Q 1107 947 979 812 
Q 851 678 851 582 
Q 851 435 1350 410 
L 2176 371 
Q 2528 358 2739 172 
Q 2950 -13 2950 -314 
Q 2950 -685 2566 -986 
Q 2035 -1395 1286 -1395 
Q 826 -1395 502 -1212 
Q 179 -1030 179 -774 
Q 179 -595 320 -419 
Q 461 -243 806 6 
Q 602 102 534 172 
Q 467 243 467 346 
Q 467 531 762 787 
Q 909 915 1037 1043 
Q 717 1203 579 1401 
Q 442 1600 442 1901 
Q 442 2336 752 2640 
Q 1062 2944 1510 2944 
Q 1766 2944 2022 2848 
L 2163 2797 
Q 2349 2733 2515 2733 
L 3008 2733 
L 3008 2483 
z
M 973 2163 
L 973 2144 
Q 973 1683 1155 1398 
Q 1338 1114 1632 1114 
Q 1850 1114 1978 1270 
Q 2106 1427 2106 1690 
Q 2106 2112 1914 2464 
Q 1754 2765 1446 2765 
Q 1222 2765 1097 2605 
Q 973 2445 973 2163 
z
M 2771 -410 
Q 2771 -230 2595 -163 
Q 2419 -96 1978 -96 
Q 1344 -96 941 -13 
Q 749 -243 688 -348 
Q 627 -454 627 -563 
Q 627 -774 880 -902 
Q 1133 -1030 1555 -1030 
Q 2099 -1030 2435 -860 
Q 2771 -691 2771 -410 
z
" transform="scale(0.015625)"/>
       <path id="STIXGeneral-Regular-20" transform="scale(0.015625)"/>
       <path id="STIXGeneral-Regular-45" d="M 3821 1082 
L 3526 0 
L 77 0 
L 77 122 
Q 442 147 538 252 
Q 634 358 634 730 
L 634 3520 
Q 634 3878 534 3987 
Q 435 4096 77 4115 
L 77 4237 
L 3469 4237 
L 3494 3322 
L 3334 3322 
Q 3264 3750 3085 3872 
Q 2906 3994 2349 3994 
L 1510 3994 
Q 1370 3994 1328 3952 
Q 1286 3910 1286 3763 
L 1286 2355 
L 2253 2355 
Q 2656 2355 2787 2470 
Q 2918 2586 2976 2970 
L 3123 2970 
L 3123 1472 
L 2976 1472 
Q 2918 1875 2790 1984 
Q 2662 2093 2253 2093 
L 1286 2093 
L 1286 538 
Q 1286 346 1420 291 
Q 1555 237 1933 237 
L 2163 237 
Q 2848 237 3136 403 
Q 3424 570 3642 1082 
L 3821 1082 
z
" transform="scale(0.015625)"/>
       <path id="STIXGeneral-Regular-76" d="M 3053 2880 
L 3053 2784 
Q 2906 2771 2835 2688 
Q 2765 2605 2637 2285 
L 1818 230 
Q 1690 -90 1638 -90 
Q 1587 -90 1523 77 
Q 1510 96 1497 141 
Q 1485 186 1472 211 
L 704 2048 
Q 499 2534 403 2652 
Q 307 2771 122 2784 
L 122 2880 
L 1376 2880 
L 1376 2784 
Q 1210 2771 1146 2732 
Q 1082 2694 1082 2611 
Q 1082 2509 1139 2368 
L 1792 730 
L 2426 2387 
Q 2464 2483 2464 2579 
Q 2464 2758 2163 2784 
L 2163 2880 
L 3053 2880 
z
" transform="scale(0.015625)"/>
       <path id="STIXGeneral-Regular-6f" d="M 3008 1478 
Q 3008 806 2608 371 
Q 2208 -64 1568 -64 
Q 979 -64 582 368 
Q 186 800 186 1459 
Q 186 2125 582 2534 
Q 979 2944 1626 2944 
Q 2221 2944 2614 2537 
Q 3008 2131 3008 1478 
z
M 2432 1306 
Q 2432 2035 2112 2445 
Q 1856 2765 1504 2765 
Q 1171 2765 966 2493 
Q 762 2221 762 1747 
Q 762 928 1101 435 
Q 1318 115 1677 115 
Q 2029 115 2230 432 
Q 2432 749 2432 1306 
z
" transform="scale(0.015625)"/>
       <path id="STIXGeneral-Regular-6d" d="M 4960 0 
L 3565 0 
L 3565 96 
Q 3834 122 3907 208 
Q 3981 294 3981 576 
L 3981 1894 
Q 3981 2278 3869 2444 
Q 3757 2611 3488 2611 
Q 3264 2611 3107 2521 
Q 2950 2432 2803 2221 
L 2803 608 
Q 2803 301 2896 201 
Q 2989 102 3264 96 
L 3264 0 
L 1830 0 
L 1830 96 
Q 2112 115 2189 188 
Q 2266 262 2266 550 
L 2266 1901 
Q 2266 2611 1850 2611 
Q 1670 2611 1468 2531 
Q 1267 2451 1171 2336 
Q 1088 2240 1088 2227 
L 1088 448 
Q 1088 243 1177 176 
Q 1267 109 1523 96 
L 1523 0 
L 102 0 
L 102 96 
Q 371 102 460 195 
Q 550 288 550 563 
L 550 2150 
Q 550 2387 499 2480 
Q 448 2573 326 2573 
Q 230 2573 122 2547 
L 122 2656 
Q 557 2778 1011 2944 
L 1062 2925 
L 1062 2451 
L 1075 2451 
Q 1363 2752 1584 2848 
Q 1805 2944 2054 2944 
Q 2560 2944 2733 2406 
Q 3232 2944 3776 2944 
Q 4518 2944 4518 1792 
L 4518 493 
Q 4518 282 4582 202 
Q 4646 122 4794 109 
L 4960 96 
L 4960 0 
z
" transform="scale(0.015625)"/>
       <path id="STIXGeneral-Regular-65" d="M 2611 1050 
L 2714 1005 
Q 2330 -64 1376 -64 
Q 813 -64 486 329 
Q 160 723 160 1389 
Q 160 2074 525 2509 
Q 890 2944 1485 2944 
Q 2061 2944 2374 2502 
Q 2560 2246 2592 1773 
L 621 1773 
Q 646 1370 700 1158 
Q 755 947 915 730 
Q 1184 378 1626 378 
Q 1939 378 2153 531 
Q 2368 685 2611 1050 
z
M 634 1978 
L 1939 1978 
Q 1882 2381 1750 2547 
Q 1619 2714 1312 2714 
Q 1043 2714 864 2525 
Q 685 2336 634 1978 
z
" transform="scale(0.015625)"/>
       <path id="STIXGeneral-Regular-74" d="M 1702 493 
L 1786 422 
Q 1478 -64 1011 -64 
Q 448 -64 448 749 
L 448 2675 
L 109 2675 
Q 83 2694 83 2720 
Q 83 2771 192 2842 
Q 435 2982 813 3526 
Q 826 3546 874 3606 
Q 922 3667 941 3706 
Q 986 3706 986 3622 
L 986 2880 
L 1632 2880 
L 1632 2675 
L 986 2675 
L 986 845 
Q 986 538 1062 403 
Q 1139 269 1318 269 
Q 1510 269 1702 493 
z
" transform="scale(0.015625)"/>
       <path id="STIXGeneral-Regular-53" d="M 3002 2963 
L 2842 2963 
Q 2733 3360 2579 3565 
Q 2189 4064 1651 4064 
Q 1357 4064 1181 3894 
Q 1005 3725 1005 3456 
Q 1005 3328 1069 3206 
Q 1133 3085 1206 2998 
Q 1280 2912 1465 2784 
Q 1651 2656 1766 2589 
Q 1882 2522 2150 2362 
Q 2669 2061 2905 1763 
Q 3142 1466 3142 1107 
Q 3142 576 2771 243 
Q 2400 -90 1837 -90 
Q 1421 -90 1082 58 
Q 915 128 781 128 
Q 704 128 653 70 
Q 602 13 602 -83 
L 461 -83 
L 275 1274 
L 416 1274 
Q 845 141 1734 141 
Q 2074 141 2285 342 
Q 2496 544 2496 858 
Q 2496 1158 2310 1363 
Q 2003 1696 1235 2106 
Q 454 2522 454 3206 
Q 454 3718 768 4022 
Q 1082 4326 1568 4326 
Q 1907 4326 2240 4186 
Q 2413 4109 2522 4109 
Q 2688 4109 2726 4326 
L 2861 4326 
L 3002 2963 
z
" transform="scale(0.015625)"/>
       <path id="STIXGeneral-Regular-70" d="M 1018 2931 
L 1018 2438 
Q 1421 2944 1939 2944 
Q 2406 2944 2707 2560 
Q 3008 2176 3008 1581 
Q 3008 883 2621 409 
Q 2234 -64 1664 -64 
Q 1466 -64 1328 -6 
Q 1190 51 1018 211 
L 1018 -794 
Q 1018 -1094 1120 -1180 
Q 1222 -1267 1581 -1274 
L 1581 -1389 
L 32 -1389 
L 32 -1280 
Q 314 -1254 397 -1171 
Q 480 -1088 480 -838 
L 480 2157 
Q 480 2381 429 2451 
Q 378 2522 218 2522 
Q 115 2522 58 2515 
L 58 2618 
Q 506 2752 979 2944 
L 1018 2931 
z
M 1018 2138 
L 1018 563 
Q 1018 422 1238 281 
Q 1459 141 1683 141 
Q 2029 141 2243 467 
Q 2458 794 2458 1325 
Q 2458 1888 2243 2224 
Q 2029 2560 1670 2560 
Q 1446 2560 1232 2419 
Q 1018 2278 1018 2138 
z
" transform="scale(0.015625)"/>
       <path id="STIXGeneral-Regular-73" d="M 998 1926 
L 1664 1523 
Q 1984 1331 2105 1164 
Q 2227 998 2227 736 
Q 2227 416 1961 176 
Q 1696 -64 1331 -64 
Q 1030 -64 864 -6 
Q 691 51 570 51 
Q 461 51 416 -26 
L 333 -26 
L 333 979 
L 435 979 
Q 538 512 730 294 
Q 922 77 1248 77 
Q 1485 77 1632 211 
Q 1779 346 1779 550 
Q 1779 845 1440 1030 
L 1094 1222 
Q 326 1651 326 2150 
Q 326 2522 566 2730 
Q 806 2938 1210 2938 
Q 1491 2938 1638 2867 
Q 1754 2816 1818 2816 
Q 1862 2816 1920 2880 
L 1990 2880 
L 2022 2010 
L 1926 2010 
Q 1818 2445 1654 2621 
Q 1491 2797 1203 2797 
Q 986 2797 854 2688 
Q 723 2579 723 2362 
Q 723 2253 796 2128 
Q 870 2003 998 1926 
z
" transform="scale(0.015625)"/>
      </defs>
      <use xlink:href="#STIXGeneral-Regular-54"/>
      <use xlink:href="#STIXGeneral-Regular-72" x="61.099991"/>
      <use xlink:href="#STIXGeneral-Regular-61" x="94.399979"/>
      <use xlink:href="#STIXGeneral-Regular-69" x="138.799973"/>
      <use xlink:href="#STIXGeneral-Regular-6e" x="166.59996"/>
      <use xlink:href="#STIXGeneral-Regular-69" x="216.599945"/>
      <use xlink:href="#STIXGeneral-Regular-6e" x="244.399933"/>
      <use xlink:href="#STIXGeneral-Regular-67" x="294.399918"/>
      <use xlink:href="#STIXGeneral-Regular-20" x="344.399902"/>
      <use xlink:href="#STIXGeneral-Regular-45" x="369.399887"/>
      <use xlink:href="#STIXGeneral-Regular-6e" x="430.499878"/>
      <use xlink:href="#STIXGeneral-Regular-76" x="480.499863"/>
      <use xlink:href="#STIXGeneral-Regular-69" x="530.499847"/>
      <use xlink:href="#STIXGeneral-Regular-72" x="558.299835"/>
      <use xlink:href="#STIXGeneral-Regular-6f" x="591.599823"/>
      <use xlink:href="#STIXGeneral-Regular-6e" x="641.599808"/>
      <use xlink:href="#STIXGeneral-Regular-6d" x="691.599792"/>
      <use xlink:href="#STIXGeneral-Regular-65" x="769.39978"/>
      <use xlink:href="#STIXGeneral-Regular-6e" x="813.799774"/>
      <use xlink:href="#STIXGeneral-Regular-74" x="863.799759"/>
      <use xlink:href="#STIXGeneral-Regular-20" x="891.599747"/>
      <use xlink:href="#STIXGeneral-Regular-53" x="916.599731"/>
      <use xlink:href="#STIXGeneral-Regular-74" x="972.199722"/>
      <use xlink:href="#STIXGeneral-Regular-65" x="999.99971"/>
      <use xlink:href="#STIXGeneral-Regular-70" x="1044.399704"/>
      <use xlink:href="#STIXGeneral-Regular-73" x="1094.399689"/>
     </g>
    </g>
    <g id="text_7">
     <!-- 1e8 -->
     <g transform="translate(477.306875 343.645562)scale(0.18 -0.18)">
      <defs>
       <path id="STIXGeneral-Regular-31" d="M 2522 0 
L 755 0 
L 755 96 
Q 1107 115 1235 227 
Q 1363 339 1363 608 
L 1363 3482 
Q 1363 3795 1171 3795 
Q 1082 3795 883 3718 
L 710 3654 
L 710 3744 
L 1856 4326 
L 1914 4307 
L 1914 486 
Q 1914 275 2042 185 
Q 2170 96 2522 96 
L 2522 0 
z
" transform="scale(0.015625)"/>
      </defs>
      <use xlink:href="#STIXGeneral-Regular-31"/>
      <use xlink:href="#STIXGeneral-Regular-65" x="49.999985"/>
      <use xlink:href="#STIXGeneral-Regular-38" x="94.399979"/>
     </g>
    </g>
   </g>
   <g id="matplotlib.axis_2">
    <g id="ytick_1">
     <g id="line2d_11">
      <path d="M 56.9 292.552125 
L 503.3 292.552125 
" clip-path="url(#p933dbcbcdf)" style="fill: none; stroke: #b0b0b0; stroke-width: 0.8; stroke-linecap: square"/>
     </g>
     <g id="line2d_12">
      <defs>
       <path id="mc094824c06" d="M 0 0 
L -3.5 0 
" style="stroke: #000000; stroke-width: 0.8"/>
      </defs>
      <g>
       <use xlink:href="#mc094824c06" x="56.9" y="292.552125" style="stroke: #000000; stroke-width: 0.8"/>
      </g>
     </g>
     <g id="text_8">
      <!-- 0.0 -->
      <g transform="translate(27.4 298.698844)scale(0.18 -0.18)">
       <defs>
        <path id="STIXGeneral-Regular-2e" d="M 1158 275 
Q 1158 134 1052 32 
Q 947 -70 800 -70 
Q 653 -70 550 32 
Q 448 134 448 281 
Q 448 429 553 534 
Q 659 640 806 640 
Q 947 640 1052 531 
Q 1158 422 1158 275 
z
" transform="scale(0.015625)"/>
       </defs>
       <use xlink:href="#STIXGeneral-Regular-30"/>
       <use xlink:href="#STIXGeneral-Regular-2e" x="49.999985"/>
       <use xlink:href="#STIXGeneral-Regular-30" x="74.999969"/>
      </g>
     </g>
    </g>
    <g id="ytick_2">
     <g id="line2d_13">
      <path d="M 56.9 227.496095 
L 503.3 227.496095 
" clip-path="url(#p933dbcbcdf)" style="fill: none; stroke: #b0b0b0; stroke-width: 0.8; stroke-linecap: square"/>
     </g>
     <g id="line2d_14">
      <g>
       <use xlink:href="#mc094824c06" x="56.9" y="227.496095" style="stroke: #000000; stroke-width: 0.8"/>
      </g>
     </g>
     <g id="text_9">
      <!-- 0.2 -->
      <g transform="translate(27.4 233.642814)scale(0.18 -0.18)">
       <use xlink:href="#STIXGeneral-Regular-30"/>
       <use xlink:href="#STIXGeneral-Regular-2e" x="49.999985"/>
       <use xlink:href="#STIXGeneral-Regular-32" x="74.999969"/>
      </g>
     </g>
    </g>
    <g id="ytick_3">
     <g id="line2d_15">
      <path d="M 56.9 162.440065 
L 503.3 162.440065 
" clip-path="url(#p933dbcbcdf)" style="fill: none; stroke: #b0b0b0; stroke-width: 0.8; stroke-linecap: square"/>
     </g>
     <g id="line2d_16">
      <g>
       <use xlink:href="#mc094824c06" x="56.9" y="162.440065" style="stroke: #000000; stroke-width: 0.8"/>
      </g>
     </g>
     <g id="text_10">
      <!-- 0.4 -->
      <g transform="translate(27.4 168.586783)scale(0.18 -0.18)">
       <use xlink:href="#STIXGeneral-Regular-30"/>
       <use xlink:href="#STIXGeneral-Regular-2e" x="49.999985"/>
       <use xlink:href="#STIXGeneral-Regular-34" x="74.999969"/>
      </g>
     </g>
    </g>
    <g id="ytick_4">
     <g id="line2d_17">
      <path d="M 56.9 97.384034 
L 503.3 97.384034 
" clip-path="url(#p933dbcbcdf)" style="fill: none; stroke: #b0b0b0; stroke-width: 0.8; stroke-linecap: square"/>
     </g>
     <g id="line2d_18">
      <g>
       <use xlink:href="#mc094824c06" x="56.9" y="97.384034" style="stroke: #000000; stroke-width: 0.8"/>
      </g>
     </g>
     <g id="text_11">
      <!-- 0.6 -->
      <g transform="translate(27.4 103.530753)scale(0.18 -0.18)">
       <use xlink:href="#STIXGeneral-Regular-30"/>
       <use xlink:href="#STIXGeneral-Regular-2e" x="49.999985"/>
       <use xlink:href="#STIXGeneral-Regular-36" x="74.999969"/>
      </g>
     </g>
    </g>
    <g id="ytick_5">
     <g id="line2d_19">
      <path d="M 56.9 32.328004 
L 503.3 32.328004 
" clip-path="url(#p933dbcbcdf)" style="fill: none; stroke: #b0b0b0; stroke-width: 0.8; stroke-linecap: square"/>
     </g>
     <g id="line2d_20">
      <g>
       <use xlink:href="#mc094824c06" x="56.9" y="32.328004" style="stroke: #000000; stroke-width: 0.8"/>
      </g>
     </g>
     <g id="text_12">
      <!-- 0.8 -->
      <g transform="translate(27.4 38.474723)scale(0.18 -0.18)">
       <use xlink:href="#STIXGeneral-Regular-30"/>
       <use xlink:href="#STIXGeneral-Regular-2e" x="49.999985"/>
       <use xlink:href="#STIXGeneral-Regular-38" x="74.999969"/>
      </g>
     </g>
    </g>
    <g id="text_13">
     <!-- Success Rate -->
     <g transform="translate(19.493438 213.7965)rotate(-90)scale(0.18 -0.18)">
      <defs>
       <path id="STIXGeneral-Regular-75" d="M 3072 320 
L 3072 230 
Q 2573 96 2195 -58 
L 2163 -38 
L 2163 486 
L 2150 486 
Q 1747 -64 1235 -64 
Q 870 -64 662 160 
Q 454 384 454 755 
L 454 2362 
Q 454 2598 371 2688 
Q 288 2778 58 2790 
L 58 2880 
L 992 2880 
L 992 813 
Q 992 595 1123 451 
Q 1254 307 1446 307 
Q 1760 307 1984 506 
Q 2067 582 2099 649 
Q 2131 717 2131 877 
L 2131 2355 
Q 2131 2605 2041 2678 
Q 1952 2752 1658 2771 
L 1658 2880 
L 2669 2880 
L 2669 685 
Q 2669 461 2742 390 
Q 2816 320 3034 320 
L 3072 320 
z
" transform="scale(0.015625)"/>
       <path id="STIXGeneral-Regular-63" d="M 2547 998 
L 2637 941 
Q 2362 403 2112 205 
Q 1786 -64 1376 -64 
Q 845 -64 502 336 
Q 160 736 160 1357 
Q 160 2170 698 2618 
Q 1094 2944 1562 2944 
Q 1965 2944 2256 2749 
Q 2547 2554 2547 2285 
Q 2547 2176 2457 2096 
Q 2368 2016 2246 2016 
Q 2022 2016 1939 2310 
L 1901 2451 
Q 1850 2630 1773 2694 
Q 1696 2758 1523 2758 
Q 1133 2758 893 2451 
Q 653 2144 653 1645 
Q 653 1094 928 745 
Q 1203 397 1645 397 
Q 1920 397 2118 528 
Q 2317 659 2547 998 
z
" transform="scale(0.015625)"/>
       <path id="STIXGeneral-Regular-52" d="M 4224 0 
L 3187 0 
L 1664 1971 
L 1306 1958 
L 1306 717 
Q 1306 352 1405 249 
Q 1504 147 1875 122 
L 1875 0 
L 109 0 
L 109 122 
Q 474 154 563 262 
Q 653 371 653 794 
L 653 3526 
Q 653 3885 563 3987 
Q 474 4090 109 4115 
L 109 4237 
L 1850 4237 
Q 2726 4237 3187 3859 
Q 3501 3603 3501 3091 
Q 3501 2221 2342 2042 
L 3622 422 
Q 3757 256 3878 198 
Q 4000 141 4224 122 
L 4224 0 
z
M 1306 3731 
L 1306 2195 
Q 1766 2202 1990 2246 
Q 2214 2291 2438 2413 
Q 2803 2618 2803 3142 
Q 2803 4000 1632 4000 
Q 1459 4000 1382 3945 
Q 1306 3891 1306 3731 
z
" transform="scale(0.015625)"/>
      </defs>
      <use xlink:href="#STIXGeneral-Regular-53"/>
      <use xlink:href="#STIXGeneral-Regular-75" x="55.599991"/>
      <use xlink:href="#STIXGeneral-Regular-63" x="105.599976"/>
      <use xlink:href="#STIXGeneral-Regular-63" x="149.999969"/>
      <use xlink:href="#STIXGeneral-Regular-65" x="194.399963"/>
      <use xlink:href="#STIXGeneral-Regular-73" x="238.799957"/>
      <use xlink:href="#STIXGeneral-Regular-73" x="277.699951"/>
      <use xlink:href="#STIXGeneral-Regular-20" x="316.599945"/>
      <use xlink:href="#STIXGeneral-Regular-52" x="341.59993"/>
      <use xlink:href="#STIXGeneral-Regular-61" x="408.299927"/>
      <use xlink:href="#STIXGeneral-Regular-74" x="452.699921"/>
      <use xlink:href="#STIXGeneral-Regular-65" x="480.499908"/>
     </g>
    </g>
   </g>
   <g id="line2d_21">
    <path d="M 77.190909 292.552125 
L 138.919277 292.552125 
L 139.530449 289.949884 
L 140.141621 290.99078 
L 140.752793 291.615318 
L 141.363965 291.990041 
L 142.586309 292.349775 
L 144.419825 292.508417 
L 145.030997 292.5259 
L 145.642169 287.331908 
L 146.253341 286.817754 
L 146.864513 289.111502 
L 147.475685 285.283269 
L 148.698028 274.842338 
L 149.3092 266.312806 
L 149.920372 263.797327 
L 150.531544 262.28804 
L 151.753888 241.582539 
L 152.36506 235.947961 
L 152.976232 235.169455 
L 153.587404 237.304594 
L 154.198576 233.381194 
L 154.809748 215.413708 
L 155.42092 217.644422 
L 156.032092 216.380609 
L 156.643264 210.417838 
L 157.254436 219.851381 
L 157.865608 220.307026 
L 158.47678 217.978172 
L 159.087952 229.592064 
L 159.699124 215.742469 
L 160.310296 217.841678 
L 160.921468 224.305685 
L 161.53264 209.968403 
L 162.143812 216.979479 
L 162.754984 231.595091 
L 163.366156 219.546527 
L 163.977327 204.510665 
L 164.588499 205.898115 
L 165.199671 211.935066 
L 165.810843 207.750512 
L 166.422015 218.250986 
L 167.033187 193.324378 
L 167.644359 212.197547 
L 168.255531 210.510244 
L 168.866703 214.702343 
L 169.477875 212.013122 
L 170.089047 210.399588 
L 170.700219 204.226983 
L 171.311391 205.727906 
L 171.922563 206.628459 
L 172.533735 201.964306 
L 173.144907 204.370299 
L 173.756079 198.007171 
L 174.367251 196.791533 
L 174.978423 193.459911 
L 175.589595 181.051972 
L 176.200767 181.413932 
L 176.811939 181.631108 
L 177.423111 192.170381 
L 178.034283 177.676015 
L 178.645455 189.797324 
L 179.256627 194.467868 
L 179.867798 197.270193 
L 180.47897 196.349346 
L 181.090142 201.001323 
L 181.701314 198.588024 
L 182.312486 176.322116 
L 182.923658 201.99619 
L 183.53483 191.378221 
L 184.146002 192.814163 
L 184.757174 180.664523 
L 185.368346 188.988187 
L 185.979518 183.573418 
L 186.59069 195.938007 
L 187.201862 185.141072 
L 187.813034 191.674116 
L 188.424206 211.207391 
L 189.035378 202.109426 
L 189.64655 207.059612 
L 190.868894 181.625789 
L 191.480066 181.758223 
L 192.091238 179.23544 
L 192.70241 180.324013 
L 193.313582 180.977157 
L 193.924754 196.982491 
L 194.535926 193.574486 
L 195.147097 186.325198 
L 195.758269 189.782349 
L 196.369441 202.265606 
L 196.980613 207.15332 
L 197.591785 202.279222 
L 198.202957 188.945801 
L 198.814129 186.15023 
L 199.425301 174.063924 
L 200.036473 177.221104 
L 200.647645 179.115411 
L 201.258817 180.251996 
L 201.869989 186.138428 
L 202.481161 171.4546 
L 203.703505 189.105467 
L 204.314677 194.052753 
L 204.925849 178.805438 
L 205.537021 182.668255 
L 206.148193 190.190426 
L 206.759365 181.692523 
L 207.370537 171.3893 
L 207.981709 178.218572 
L 208.592881 177.111649 
L 209.204053 173.845257 
L 209.815225 171.885422 
L 210.426396 168.107278 
L 211.037568 163.238153 
L 212.259912 177.820376 
L 212.871084 169.066012 
L 213.482256 169.017875 
L 214.093428 176.795717 
L 214.7046 168.451216 
L 215.315772 155.637792 
L 215.926944 173.972148 
L 216.538116 169.359314 
L 217.149288 166.591614 
L 217.76046 172.737717 
L 218.371632 163.414174 
L 218.982804 165.626772 
L 219.593976 166.954331 
L 220.205148 172.955348 
L 220.81632 184.362681 
L 221.427492 170.389153 
L 222.038664 159.402793 
L 222.649836 168.424425 
L 223.261008 184.24637 
L 223.87218 185.932814 
L 224.483352 184.342437 
L 225.094524 178.18373 
L 225.705696 179.692987 
L 226.928039 159.283048 
L 227.539211 163.148097 
L 228.150383 160.262644 
L 228.761555 163.735854 
L 229.372727 171.024262 
L 229.983899 193.612995 
L 230.595071 183.746064 
L 231.817415 171.671569 
L 232.428587 178.387933 
L 233.039759 174.611027 
L 233.650931 177.549365 
L 234.262103 166.301163 
L 234.873275 172.563447 
L 235.484447 163.309612 
L 236.095619 160.359553 
L 236.706791 150.782795 
L 237.317963 155.445702 
L 237.929135 171.254651 
L 238.540307 170.331059 
L 239.151479 159.367936 
L 239.762651 165.801268 
L 240.373823 169.661267 
L 240.984995 161.568304 
L 241.596166 151.508045 
L 242.207338 148.074128 
L 242.81851 156.422745 
L 243.429682 174.44312 
L 244.040854 167.039658 
L 244.652026 157.393096 
L 245.263198 154.207401 
L 245.87437 139.284775 
L 246.485542 132.933446 
L 247.096714 142.133854 
L 247.707886 147.654099 
L 248.319058 145.76176 
L 248.93023 149.830843 
L 249.541402 141.863325 
L 250.152574 155.298502 
L 250.763746 150.348402 
L 251.374918 152.582828 
L 251.98609 164.332446 
L 252.597262 147.962048 
L 253.208434 151.151015 
L 253.819606 163.473358 
L 254.430778 157.855559 
L 255.04195 149.280398 
L 255.653122 138.93082 
L 256.264294 150.93676 
L 256.875465 152.935842 
L 257.486637 148.930806 
L 258.097809 136.118818 
L 259.320153 147.239487 
L 259.931325 158.524199 
L 260.542497 162.692787 
L 261.153669 149.580492 
L 261.764841 144.315358 
L 262.376013 135.951796 
L 262.987185 133.535897 
L 263.598357 152.904287 
L 264.209529 143.707392 
L 264.820701 164.211666 
L 265.431873 142.685095 
L 266.043045 134.973638 
L 266.654217 140.755727 
L 267.265389 154.633942 
L 267.876561 160.358633 
L 268.487733 150.782242 
L 269.098905 145.036408 
L 269.710077 146.793388 
L 270.321249 140.040853 
L 270.932421 125.580369 
L 271.543593 124.710802 
L 272.154765 134.598025 
L 272.765936 122.314672 
L 273.377108 130.558105 
L 273.98828 125.095197 
L 274.599452 145.237625 
L 275.210624 146.914119 
L 275.821796 145.317772 
L 276.432968 136.553245 
L 277.04414 136.499009 
L 277.655312 149.477673 
L 278.266484 141.651424 
L 278.877656 147.364641 
L 279.488828 132.57688 
L 280.1 144.522153 
L 280.711172 133.473627 
L 281.322344 137.253477 
L 281.933516 136.919149 
L 282.544688 131.51407 
L 283.15586 146.48671 
L 283.767032 145.061327 
L 284.378204 144.206097 
L 284.989376 148.897445 
L 285.600548 151.712253 
L 286.21172 142.992172 
L 286.822892 142.964604 
L 287.434064 145.550306 
L 288.045235 149.70397 
L 288.656407 152.196168 
L 289.267579 156.293726 
L 289.878751 148.343298 
L 290.489923 146.17528 
L 291.101095 152.681193 
L 291.712267 135.766812 
L 292.323439 130.822668 
L 292.934611 120.049458 
L 293.545783 126.596737 
L 294.156955 130.525105 
L 294.768127 143.291088 
L 295.379299 137.939473 
L 295.990471 155.546433 
L 296.601643 127.076993 
L 297.212815 133.415497 
L 297.823987 116.40067 
L 298.435159 113.998498 
L 299.046331 130.772885 
L 299.657503 125.224066 
L 300.268675 129.701502 
L 300.879847 140.194687 
L 301.491019 125.67267 
L 302.102191 129.970664 
L 302.713363 135.1517 
L 303.324535 120.04463 
L 303.935706 123.991598 
L 304.546878 118.553055 
L 305.15805 125.698895 
L 305.769222 119.577433 
L 306.380394 126.313522 
L 306.991566 143.366381 
L 307.602738 132.780163 
L 308.21391 116.01947 
L 308.825082 129.383226 
L 309.436254 116.583546 
L 310.047426 134.926153 
L 310.658598 132.920511 
L 311.26977 126.512642 
L 311.880942 135.679129 
L 312.492114 133.372297 
L 313.103286 134.590441 
L 313.714458 137.923566 
L 314.32563 119.105511 
L 314.936802 113.019164 
L 315.547974 130.185285 
L 316.159146 119.667028 
L 316.770318 123.765037 
L 317.38149 131.428323 
L 317.992662 117.810605 
L 318.603834 130.457906 
L 319.215005 114.626116 
L 319.826177 118.138251 
L 320.437349 128.052252 
L 321.048521 134.000652 
L 321.659693 124.558487 
L 322.270865 124.097673 
L 322.882037 129.025666 
L 323.493209 121.573496 
L 324.104381 130.113399 
L 324.715553 130.032859 
L 325.326725 114.371087 
L 325.937897 123.189715 
L 326.549069 105.060716 
L 327.160241 91.581077 
L 327.771413 86.095533 
L 328.382585 98.417655 
L 328.993757 90.197479 
L 329.604929 95.674345 
L 330.216101 111.971669 
L 330.827273 106.136612 
L 331.438445 105.237825 
L 332.049617 104.698552 
L 332.660789 101.772742 
L 333.271961 113.028465 
L 333.883133 119.781899 
L 334.494304 95.209302 
L 335.105476 109.090401 
L 335.716648 101.805613 
L 336.32782 110.445949 
L 336.938992 113.027904 
L 337.550164 127.588286 
L 338.772508 144.168496 
L 339.38368 141.06816 
L 339.994852 128.798992 
L 340.606024 103.221804 
L 341.217196 116.500145 
L 341.828368 116.660422 
L 342.43954 106.347625 
L 343.050712 105.364432 
L 343.661884 107.376755 
L 344.273056 116.390873 
L 344.884228 116.594858 
L 345.4954 121.921735 
L 346.106572 119.913376 
L 346.717744 118.70836 
L 347.328916 117.985351 
L 347.940088 107.142582 
L 348.55126 116.250369 
L 349.162432 119.112803 
L 349.773604 118.228016 
L 350.384775 120.299391 
L 350.995947 124.144454 
L 351.607119 105.633559 
L 352.829463 126.376274 
L 353.440635 112.177137 
L 354.051807 108.862139 
L 354.662979 112.077618 
L 355.274151 114.006905 
L 355.885323 125.573444 
L 356.496495 111.695439 
L 357.107667 105.970874 
L 357.718839 105.138381 
L 358.330011 117.650091 
L 358.941183 132.963841 
L 359.552355 131.743125 
L 360.163527 120.601732 
L 360.774699 116.519135 
L 361.385871 129.683025 
L 362.608215 129.829601 
L 363.219387 132.464823 
L 363.830559 128.841475 
L 364.441731 118.860742 
L 365.052903 99.861093 
L 365.664074 111.881476 
L 366.275246 106.082496 
L 366.886418 92.194146 
L 367.49759 91.667859 
L 368.108762 114.772259 
L 368.719934 100.010242 
L 369.331106 98.959756 
L 369.942278 111.340673 
L 371.164622 99.806181 
L 371.775794 98.837319 
L 372.386966 108.664973 
L 372.998138 101.550356 
L 373.60931 105.088309 
L 374.220482 88.995395 
L 374.831654 81.941885 
L 375.442826 98.527712 
L 376.053998 105.876962 
L 376.66517 107.684273 
L 377.276342 121.779865 
L 377.887514 117.226015 
L 378.498686 114.493705 
L 379.109858 99.84311 
L 379.72103 117.075167 
L 380.332202 114.403196 
L 380.943373 102.391051 
L 381.554545 92.581517 
L 382.165717 99.707006 
L 382.776889 114.391266 
L 383.388061 102.383893 
L 383.999233 100.383946 
L 384.610405 106.990702 
L 385.221577 100.545793 
L 385.832749 104.485572 
L 386.443921 99.042715 
L 387.055093 100.981486 
L 387.666265 96.940264 
L 388.277437 91.913291 
L 388.888609 91.499347 
L 389.499781 112.068909 
L 390.110953 111.399441 
L 390.722125 103.191037 
L 391.333297 85.254785 
L 391.944469 82.299758 
L 392.555641 80.526741 
L 393.166813 84.667417 
L 393.777985 79.345098 
L 394.389157 86.56067 
L 395.000329 98.696736 
L 395.611501 87.76269 
L 396.222673 89.008986 
L 396.833844 79.347801 
L 397.445016 78.755567 
L 398.056188 75.797988 
L 398.66736 76.62568 
L 399.278532 74.520056 
L 399.889704 70.654443 
L 400.500876 83.948523 
L 401.112048 86.720486 
L 401.72322 98.792626 
L 402.334392 93.024709 
L 402.945564 105.177406 
L 404.167908 89.260233 
L 404.77908 97.714236 
L 405.390252 92.377675 
L 406.001424 99.584701 
L 406.612596 103.908916 
L 407.223768 101.29896 
L 407.83494 97.130748 
L 408.446112 76.414134 
L 409.057284 74.393129 
L 409.668456 70.578286 
L 410.279628 89.107307 
L 410.8908 84.611271 
L 411.501972 81.913649 
L 412.113143 72.488352 
L 412.724315 69.435421 
L 413.335487 70.2059 
L 413.946659 68.06595 
L 414.557831 66.781979 
L 415.169003 71.216074 
L 415.780175 71.274293 
L 416.391347 84.320433 
L 417.002519 84.341393 
L 417.613691 89.558446 
L 418.224863 82.279716 
L 418.836035 70.105754 
L 419.447207 78.414824 
L 420.058379 75.593543 
L 420.669551 55.685087 
L 421.280723 67.160185 
L 421.891895 66.238521 
L 422.503067 60.481036 
L 423.114239 70.037755 
L 423.725411 70.567301 
L 424.336583 63.078305 
L 424.947755 63.789392 
L 425.558927 64.216045 
L 426.170099 59.267551 
L 427.392442 73.773584 
L 428.003614 72.808798 
L 428.614786 69.627688 
L 429.225958 72.9235 
L 429.83713 69.696509 
L 431.059474 55.669183 
L 431.670646 67.150643 
L 432.281818 66.232795 
L 432.89299 70.886564 
L 433.504162 71.076586 
L 434.115334 65.986115 
L 434.726506 65.534078 
L 435.337678 73.06958 
L 435.94885 74.988635 
L 436.560022 76.140068 
L 437.171194 82.035413 
L 437.782366 90.777105 
L 438.393538 69.999709 
L 439.00471 57.533272 
L 439.615882 65.66685 
L 440.227054 65.342519 
L 440.838226 62.545674 
L 441.449398 63.469814 
L 442.06057 61.422051 
L 442.671742 52.386677 
L 443.282913 52.169931 
L 443.894085 49.437644 
L 444.505257 42.593786 
L 445.116429 59.305405 
L 445.727601 61.525652 
L 446.338773 52.448838 
L 446.949945 57.411712 
L 447.561117 47.378227 
L 448.172289 56.971585 
L 448.783461 60.12536 
L 449.394633 75.028827 
L 450.005805 68.357459 
L 450.616977 77.365847 
L 451.839321 62.593727 
L 452.450493 63.498645 
L 453.061665 58.837111 
L 453.672837 50.835713 
L 454.895181 40.552125 
L 455.506353 60.682647 
L 456.117525 67.556475 
L 456.728697 61.271809 
L 457.339869 57.50101 
L 457.951041 60.443015 
L 458.562212 64.810457 
L 459.173384 54.419721 
L 459.784556 63.798719 
L 460.395728 69.426118 
L 461.0069 64.995834 
L 461.618072 54.530947 
L 462.229244 66.467701 
L 462.840416 50.209582 
L 463.451588 53.465912 
L 464.06276 52.817471 
L 464.673932 42.019444 
L 465.285104 53.756315 
L 465.896276 47.787235 
L 466.507448 62.421474 
L 467.11862 47.781846 
L 467.729792 52.009271 
L 468.340964 44.136762 
L 468.952136 44.617743 
L 469.563308 47.50857 
L 470.17448 46.640827 
L 470.785652 59.131383 
L 471.396824 61.421239 
L 472.619168 48.526504 
L 473.23034 44.649349 
L 473.841512 47.527534 
L 474.452683 46.652205 
L 475.063855 51.331486 
L 475.675027 48.934577 
L 476.286199 44.894193 
L 476.897371 55.481164 
L 477.508543 59.231108 
L 478.119715 51.072111 
L 478.730887 56.585676 
L 479.342059 57.291568 
L 479.953231 52.510626 
L 480.564403 49.642061 
L 481.175575 66.136609 
L 481.786747 60.419889 
L 482.397919 62.194343 
L 483.009091 58.05453 
L 483.009091 58.05453 
" clip-path="url(#p933dbcbcdf)" style="fill: none; stroke: #1f77b4; stroke-width: 1.5; stroke-linecap: square"/>
   </g>
   <g id="patch_3">
    <path d="M 56.9 305.152125 
L 56.9 27.952125 
" style="fill: none; stroke: #000000; stroke-width: 0.8; stroke-linejoin: miter; stroke-linecap: square"/>
   </g>
   <g id="patch_4">
    <path d="M 503.3 305.152125 
L 503.3 27.952125 
" style="fill: none; stroke: #000000; stroke-width: 0.8; stroke-linejoin: miter; stroke-linecap: square"/>
   </g>
   <g id="patch_5">
    <path d="M 56.9 305.152125 
L 503.3 305.152125 
" style="fill: none; stroke: #000000; stroke-width: 0.8; stroke-linejoin: miter; stroke-linecap: square"/>
   </g>
   <g id="patch_6">
    <path d="M 56.9 27.952125 
L 503.3 27.952125 
" style="fill: none; stroke: #000000; stroke-width: 0.8; stroke-linejoin: miter; stroke-linecap: square"/>
   </g>
   <g id="text_14">
    <!-- ML1 Meta Testing -->
    <g transform="translate(198.504313 21.952125)scale(0.216 -0.216)">
     <defs>
      <path id="STIXGeneral-Regular-4d" d="M 5530 0 
L 3738 0 
L 3738 122 
Q 4115 147 4214 265 
Q 4314 384 4314 787 
L 4314 3661 
L 2682 0 
L 2592 0 
L 979 3514 
L 979 966 
Q 979 448 1088 294 
Q 1197 141 1574 122 
L 1574 0 
L 77 0 
L 77 122 
Q 358 141 480 205 
Q 602 269 650 432 
Q 698 595 698 966 
L 698 3514 
Q 698 3878 589 3984 
Q 480 4090 90 4115 
L 90 4237 
L 1357 4237 
L 2835 1024 
L 4250 4237 
L 5523 4237 
L 5523 4115 
Q 5178 4109 5072 3993 
Q 4966 3878 4966 3520 
L 4966 717 
Q 4966 378 5072 262 
Q 5178 147 5530 122 
L 5530 0 
z
" transform="scale(0.015625)"/>
      <path id="STIXGeneral-Regular-4c" d="M 3827 1114 
L 3520 0 
L 77 0 
L 77 122 
Q 429 141 531 256 
Q 634 371 634 736 
L 634 3494 
Q 634 3872 541 3981 
Q 448 4090 77 4115 
L 77 4237 
L 1888 4237 
L 1888 4115 
Q 1498 4090 1392 3984 
Q 1286 3878 1286 3507 
L 1286 538 
Q 1286 358 1398 304 
Q 1510 250 1862 250 
L 2310 250 
Q 3085 250 3392 640 
Q 3520 813 3661 1114 
L 3827 1114 
z
" transform="scale(0.015625)"/>
     </defs>
     <use xlink:href="#STIXGeneral-Regular-4d"/>
     <use xlink:href="#STIXGeneral-Regular-4c" x="88.899994"/>
     <use xlink:href="#STIXGeneral-Regular-31" x="149.999985"/>
     <use xlink:href="#STIXGeneral-Regular-20" x="199.999969"/>
     <use xlink:href="#STIXGeneral-Regular-4d" x="224.999954"/>
     <use xlink:href="#STIXGeneral-Regular-65" x="313.899948"/>
     <use xlink:href="#STIXGeneral-Regular-74" x="358.299942"/>
     <use xlink:href="#STIXGeneral-Regular-61" x="386.09993"/>
     <use xlink:href="#STIXGeneral-Regular-20" x="430.499924"/>
     <use xlink:href="#STIXGeneral-Regular-54" x="455.499908"/>
     <use xlink:href="#STIXGeneral-Regular-65" x="516.599899"/>
     <use xlink:href="#STIXGeneral-Regular-73" x="560.999893"/>
     <use xlink:href="#STIXGeneral-Regular-74" x="599.899887"/>
     <use xlink:href="#STIXGeneral-Regular-69" x="627.699875"/>
     <use xlink:href="#STIXGeneral-Regular-6e" x="655.499863"/>
     <use xlink:href="#STIXGeneral-Regular-67" x="705.499847"/>
    </g>
   </g>
   <g id="legend_1">
    <g id="patch_7">
     <path d="M 66.7 58.990562 
L 186.93375 58.990562 
Q 189.73375 58.990562 189.73375 56.190562 
L 189.73375 37.752125 
Q 189.73375 34.952125 186.93375 34.952125 
L 66.7 34.952125 
Q 63.9 34.952125 63.9 37.752125 
L 63.9 56.190562 
Q 63.9 58.990562 66.7 58.990562 
z
" style="fill: #ffffff; opacity: 0.8; stroke: #cccccc; stroke-linejoin: miter"/>
    </g>
    <g id="line2d_22">
     <path d="M 69.5 45.452125 
L 83.5 45.452125 
L 97.5 45.452125 
" style="fill: none; stroke: #1f77b4; stroke-width: 1.5; stroke-linecap: square"/>
    </g>
    <g id="text_15">
     <!-- basketball-v2 -->
     <g transform="translate(108.7 50.352125)scale(0.14 -0.14)">
      <defs>
       <path id="STIXGeneral-Regular-62" d="M 979 4358 
L 979 2406 
Q 1082 2650 1315 2797 
Q 1549 2944 1843 2944 
Q 2349 2944 2672 2541 
Q 2995 2138 2995 1536 
Q 2995 832 2566 384 
Q 2138 -64 1498 -64 
Q 1107 -64 774 67 
Q 442 198 442 358 
L 442 3622 
Q 442 3859 384 3926 
Q 326 3994 128 3994 
Q 83 3994 19 3981 
L 19 4090 
L 211 4147 
Q 864 4346 947 4371 
L 979 4358 
z
M 979 2035 
L 979 474 
Q 979 326 1161 233 
Q 1344 141 1600 141 
Q 1978 141 2195 416 
Q 2432 710 2432 1261 
Q 2432 1888 2182 2240 
Q 1971 2541 1613 2541 
Q 1357 2541 1168 2390 
Q 979 2240 979 2035 
z
" transform="scale(0.015625)"/>
       <path id="STIXGeneral-Regular-6b" d="M 3232 0 
L 1837 0 
L 1837 96 
L 1958 96 
Q 2093 96 2093 192 
Q 2093 250 2022 339 
L 1062 1606 
L 1062 429 
Q 1062 262 1142 185 
Q 1222 109 1414 102 
L 1542 96 
L 1542 0 
L 45 0 
L 45 96 
Q 390 154 457 214 
Q 525 275 525 525 
L 525 3610 
Q 525 3840 467 3920 
Q 410 4000 250 4000 
Q 211 4000 45 3987 
L 45 4090 
L 237 4141 
Q 621 4243 1037 4371 
L 1062 4358 
L 1062 1670 
L 1939 2451 
Q 2086 2586 2086 2675 
Q 2086 2739 2019 2761 
Q 1952 2784 1766 2790 
L 1766 2880 
L 3072 2880 
L 3072 2784 
Q 2752 2784 2505 2646 
Q 2259 2509 1690 1978 
L 1504 1805 
L 2483 563 
Q 2829 122 3232 96 
L 3232 0 
z
" transform="scale(0.015625)"/>
       <path id="STIXGeneral-Regular-6c" d="M 1645 0 
L 134 0 
L 134 96 
Q 435 122 531 221 
Q 627 320 627 589 
L 627 3590 
Q 627 3821 569 3910 
Q 512 4000 358 4000 
Q 224 4000 122 3987 
L 122 4090 
Q 730 4237 1133 4371 
L 1165 4346 
L 1165 557 
Q 1165 288 1254 201 
Q 1344 115 1645 96 
L 1645 0 
z
" transform="scale(0.015625)"/>
       <path id="STIXGeneral-Regular-2d" d="M 1824 1242 
L 250 1242 
L 250 1645 
L 1824 1645 
L 1824 1242 
z
" transform="scale(0.015625)"/>
      </defs>
      <use xlink:href="#STIXGeneral-Regular-62"/>
      <use xlink:href="#STIXGeneral-Regular-61" x="49.999985"/>
      <use xlink:href="#STIXGeneral-Regular-73" x="94.399979"/>
      <use xlink:href="#STIXGeneral-Regular-6b" x="133.299973"/>
      <use xlink:href="#STIXGeneral-Regular-65" x="183.299957"/>
      <use xlink:href="#STIXGeneral-Regular-74" x="227.699951"/>
      <use xlink:href="#STIXGeneral-Regular-62" x="255.499939"/>
      <use xlink:href="#STIXGeneral-Regular-61" x="305.499924"/>
      <use xlink:href="#STIXGeneral-Regular-6c" x="349.899918"/>
      <use xlink:href="#STIXGeneral-Regular-6c" x="377.699905"/>
      <use xlink:href="#STIXGeneral-Regular-2d" x="405.499893"/>
      <use xlink:href="#STIXGeneral-Regular-76" x="438.799881"/>
      <use xlink:href="#STIXGeneral-Regular-32" x="488.799866"/>
     </g>
    </g>
   </g>
  </g>
 </g>
 <defs>
  <clipPath id="p933dbcbcdf">
   <rect x="56.9" y="27.952125" width="446.4" height="277.2"/>
  </clipPath>
 </defs>
</svg>
