<?xml version="1.0" encoding="utf-8" standalone="no"?>
<!DOCTYPE svg PUBLIC "-//W3C//DTD SVG 1.1//EN"
  "http://www.w3.org/Graphics/SVG/1.1/DTD/svg11.dtd">
<svg xmlns:xlink="http://www.w3.org/1999/xlink" width="524pt" height="355.769pt" viewBox="0 0 524 355.769" xmlns="http://www.w3.org/2000/svg" version="1.1">
 <metadata>
  <rdf:RDF xmlns:dc="http://purl.org/dc/elements/1.1/" xmlns:cc="http://creativecommons.org/ns#" xmlns:rdf="http://www.w3.org/1999/02/22-rdf-syntax-ns#">
   <cc:Work>
    <dc:type rdf:resource="http://purl.org/dc/dcmitype/StillImage"/>
    <dc:date>2021-12-11T16:00:08.310907</dc:date>
    <dc:format>image/svg+xml</dc:format>
    <dc:creator>
     <cc:Agent>
      <dc:title>Matplotlib v3.5.0, https://matplotlib.org/</dc:title>
     </cc:Agent>
    </dc:creator>
   </cc:Work>
  </rdf:RDF>
 </metadata>
 <defs>
  <style type="text/css">*{stroke-linejoin: round; stroke-linecap: butt}</style>
 </defs>
 <g id="figure_1">
  <g id="patch_1">
   <path d="M 0 355.769 
L 524 355.769 
L 524 0 
L 0 0 
z
" style="fill: #ffffff"/>
  </g>
  <g id="axes_1">
   <g id="patch_2">
    <path d="M 70.4 305.152125 
L 516.8 305.152125 
L 516.8 27.952125 
L 70.4 27.952125 
z
" style="fill: #ffffff"/>
   </g>
   <g id="matplotlib.axis_1">
    <g id="xtick_1">
     <g id="line2d_1">
      <path d="M 90.405924 305.152125 
L 90.405924 27.952125 
" clip-path="url(#p2d8c662c96)" style="fill: none; stroke: #b0b0b0; stroke-width: 0.8; stroke-linecap: square"/>
     </g>
     <g id="line2d_2">
      <defs>
       <path id="m1fe78a70cb" d="M 0 0 
L 0 3.5 
" style="stroke: #000000; stroke-width: 0.8"/>
      </defs>
      <g>
       <use xlink:href="#m1fe78a70cb" x="90.405924" y="305.152125" style="stroke: #000000; stroke-width: 0.8"/>
      </g>
     </g>
     <g id="text_1">
      <!-- 0.0 -->
      <g transform="translate(79.155924 324.445562)scale(0.18 -0.18)">
       <defs>
        <path id="STIXGeneral-Regular-30" d="M 3046 2112 
Q 3046 1683 2963 1302 
Q 2880 922 2717 602 
Q 2554 282 2266 96 
Q 1978 -90 1600 -90 
Q 1210 -90 915 108 
Q 621 307 461 640 
Q 301 973 227 1350 
Q 154 1728 154 2150 
Q 154 2746 301 3222 
Q 448 3699 790 4012 
Q 1133 4326 1626 4326 
Q 2253 4326 2649 3712 
Q 3046 3098 3046 2112 
z
M 2432 2080 
Q 2432 3091 2217 3625 
Q 2003 4160 1587 4160 
Q 1190 4160 979 3622 
Q 768 3085 768 2106 
Q 768 1120 979 598 
Q 1190 77 1600 77 
Q 2003 77 2217 598 
Q 2432 1120 2432 2080 
z
" transform="scale(0.015625)"/>
        <path id="STIXGeneral-Regular-2e" d="M 1158 275 
Q 1158 134 1052 32 
Q 947 -70 800 -70 
Q 653 -70 550 32 
Q 448 134 448 281 
Q 448 429 553 534 
Q 659 640 806 640 
Q 947 640 1052 531 
Q 1158 422 1158 275 
z
" transform="scale(0.015625)"/>
       </defs>
       <use xlink:href="#STIXGeneral-Regular-30"/>
       <use xlink:href="#STIXGeneral-Regular-2e" x="49.999985"/>
       <use xlink:href="#STIXGeneral-Regular-30" x="74.999969"/>
      </g>
     </g>
    </g>
    <g id="xtick_2">
     <g id="line2d_3">
      <path d="M 161.652094 305.152125 
L 161.652094 27.952125 
" clip-path="url(#p2d8c662c96)" style="fill: none; stroke: #b0b0b0; stroke-width: 0.8; stroke-linecap: square"/>
     </g>
     <g id="line2d_4">
      <g>
       <use xlink:href="#m1fe78a70cb" x="161.652094" y="305.152125" style="stroke: #000000; stroke-width: 0.8"/>
      </g>
     </g>
     <g id="text_2">
      <!-- 0.5 -->
      <g transform="translate(150.402094 324.445562)scale(0.18 -0.18)">
       <defs>
        <path id="STIXGeneral-Regular-35" d="M 2803 4358 
L 2573 3814 
Q 2534 3731 2400 3731 
L 1158 3731 
L 902 3187 
Q 1606 3053 1920 2896 
Q 2234 2739 2502 2368 
Q 2726 2061 2726 1555 
Q 2726 1094 2576 780 
Q 2426 467 2099 224 
Q 1664 -90 1011 -90 
Q 646 -90 422 19 
Q 198 128 198 307 
Q 198 550 486 550 
Q 717 550 960 352 
Q 1210 147 1414 147 
Q 1747 147 2012 480 
Q 2278 813 2278 1229 
Q 2278 1843 1850 2189 
Q 1293 2637 486 2637 
Q 410 2637 410 2688 
L 416 2720 
L 1114 4237 
L 2438 4237 
Q 2547 4237 2608 4269 
Q 2669 4301 2746 4403 
L 2803 4358 
z
" transform="scale(0.015625)"/>
       </defs>
       <use xlink:href="#STIXGeneral-Regular-30"/>
       <use xlink:href="#STIXGeneral-Regular-2e" x="49.999985"/>
       <use xlink:href="#STIXGeneral-Regular-35" x="74.999969"/>
      </g>
     </g>
    </g>
    <g id="xtick_3">
     <g id="line2d_5">
      <path d="M 232.898264 305.152125 
L 232.898264 27.952125 
" clip-path="url(#p2d8c662c96)" style="fill: none; stroke: #b0b0b0; stroke-width: 0.8; stroke-linecap: square"/>
     </g>
     <g id="line2d_6">
      <g>
       <use xlink:href="#m1fe78a70cb" x="232.898264" y="305.152125" style="stroke: #000000; stroke-width: 0.8"/>
      </g>
     </g>
     <g id="text_3">
      <!-- 1.0 -->
      <g transform="translate(221.648264 324.445562)scale(0.18 -0.18)">
       <defs>
        <path id="STIXGeneral-Regular-31" d="M 2522 0 
L 755 0 
L 755 96 
Q 1107 115 1235 227 
Q 1363 339 1363 608 
L 1363 3482 
Q 1363 3795 1171 3795 
Q 1082 3795 883 3718 
L 710 3654 
L 710 3744 
L 1856 4326 
L 1914 4307 
L 1914 486 
Q 1914 275 2042 185 
Q 2170 96 2522 96 
L 2522 0 
z
" transform="scale(0.015625)"/>
       </defs>
       <use xlink:href="#STIXGeneral-Regular-31"/>
       <use xlink:href="#STIXGeneral-Regular-2e" x="49.999985"/>
       <use xlink:href="#STIXGeneral-Regular-30" x="74.999969"/>
      </g>
     </g>
    </g>
    <g id="xtick_4">
     <g id="line2d_7">
      <path d="M 304.144433 305.152125 
L 304.144433 27.952125 
" clip-path="url(#p2d8c662c96)" style="fill: none; stroke: #b0b0b0; stroke-width: 0.8; stroke-linecap: square"/>
     </g>
     <g id="line2d_8">
      <g>
       <use xlink:href="#m1fe78a70cb" x="304.144433" y="305.152125" style="stroke: #000000; stroke-width: 0.8"/>
      </g>
     </g>
     <g id="text_4">
      <!-- 1.5 -->
      <g transform="translate(292.894433 324.445562)scale(0.18 -0.18)">
       <use xlink:href="#STIXGeneral-Regular-31"/>
       <use xlink:href="#STIXGeneral-Regular-2e" x="49.999985"/>
       <use xlink:href="#STIXGeneral-Regular-35" x="74.999969"/>
      </g>
     </g>
    </g>
    <g id="xtick_5">
     <g id="line2d_9">
      <path d="M 375.390603 305.152125 
L 375.390603 27.952125 
" clip-path="url(#p2d8c662c96)" style="fill: none; stroke: #b0b0b0; stroke-width: 0.8; stroke-linecap: square"/>
     </g>
     <g id="line2d_10">
      <g>
       <use xlink:href="#m1fe78a70cb" x="375.390603" y="305.152125" style="stroke: #000000; stroke-width: 0.8"/>
      </g>
     </g>
     <g id="text_5">
      <!-- 2.0 -->
      <g transform="translate(364.140603 324.445562)scale(0.18 -0.18)">
       <defs>
        <path id="STIXGeneral-Regular-32" d="M 3034 877 
L 2688 0 
L 186 0 
L 186 77 
L 1325 1286 
Q 1773 1754 1965 2144 
Q 2157 2534 2157 2950 
Q 2157 3379 1920 3616 
Q 1683 3853 1267 3853 
Q 922 3853 720 3673 
Q 518 3494 326 3021 
L 192 3053 
Q 301 3648 630 3987 
Q 960 4326 1523 4326 
Q 2054 4326 2380 4006 
Q 2707 3686 2707 3200 
Q 2707 2477 1888 1613 
L 832 486 
L 2330 486 
Q 2541 486 2665 569 
Q 2790 653 2944 915 
L 3034 877 
z
" transform="scale(0.015625)"/>
       </defs>
       <use xlink:href="#STIXGeneral-Regular-32"/>
       <use xlink:href="#STIXGeneral-Regular-2e" x="49.999985"/>
       <use xlink:href="#STIXGeneral-Regular-30" x="74.999969"/>
      </g>
     </g>
    </g>
    <g id="xtick_6">
     <g id="line2d_11">
      <path d="M 446.636772 305.152125 
L 446.636772 27.952125 
" clip-path="url(#p2d8c662c96)" style="fill: none; stroke: #b0b0b0; stroke-width: 0.8; stroke-linecap: square"/>
     </g>
     <g id="line2d_12">
      <g>
       <use xlink:href="#m1fe78a70cb" x="446.636772" y="305.152125" style="stroke: #000000; stroke-width: 0.8"/>
      </g>
     </g>
     <g id="text_6">
      <!-- 2.5 -->
      <g transform="translate(435.386772 324.445562)scale(0.18 -0.18)">
       <use xlink:href="#STIXGeneral-Regular-32"/>
       <use xlink:href="#STIXGeneral-Regular-2e" x="49.999985"/>
       <use xlink:href="#STIXGeneral-Regular-35" x="74.999969"/>
      </g>
     </g>
    </g>
    <g id="text_7">
     <!-- Training Environment Steps -->
     <g transform="translate(191.604688 344.645562)scale(0.18 -0.18)">
      <defs>
       <path id="STIXGeneral-Regular-54" d="M 3795 3149 
L 3642 3149 
Q 3539 3674 3353 3821 
Q 3168 3968 2656 3968 
L 2278 3968 
L 2278 710 
Q 2278 346 2387 243 
Q 2496 141 2893 122 
L 2893 0 
L 1024 0 
L 1024 122 
Q 1427 147 1526 256 
Q 1626 365 1626 787 
L 1626 3968 
L 1242 3968 
Q 723 3968 540 3817 
Q 358 3667 262 3149 
L 109 3149 
L 154 4237 
L 3750 4237 
L 3795 3149 
z
" transform="scale(0.015625)"/>
       <path id="STIXGeneral-Regular-72" d="M 1024 2931 
L 1024 2342 
Q 1267 2688 1430 2816 
Q 1594 2944 1792 2944 
Q 1958 2944 2051 2854 
Q 2144 2765 2144 2605 
Q 2144 2470 2077 2393 
Q 2010 2317 1894 2317 
Q 1773 2317 1638 2445 
Q 1536 2541 1472 2541 
Q 1338 2541 1181 2355 
Q 1024 2170 1024 2016 
L 1024 576 
Q 1024 301 1133 205 
Q 1242 109 1568 96 
L 1568 0 
L 32 0 
L 32 96 
Q 339 154 412 224 
Q 486 294 486 538 
L 486 2138 
Q 486 2349 438 2435 
Q 390 2522 269 2522 
Q 166 2522 45 2496 
L 45 2598 
Q 448 2726 992 2944 
L 1024 2931 
z
" transform="scale(0.015625)"/>
       <path id="STIXGeneral-Regular-61" d="M 2829 422 
L 2829 243 
Q 2586 -64 2253 -64 
Q 1888 -64 1843 403 
L 1837 403 
Q 1427 -64 909 -64 
Q 608 -64 422 112 
Q 237 288 237 602 
Q 237 1050 685 1350 
Q 992 1555 1837 1869 
L 1837 2214 
Q 1837 2502 1699 2646 
Q 1562 2790 1338 2790 
Q 1146 2790 1018 2697 
Q 890 2605 890 2477 
Q 890 2419 909 2348 
Q 928 2278 928 2208 
Q 928 2112 841 2029 
Q 755 1946 634 1946 
Q 525 1946 441 2029 
Q 358 2112 358 2240 
Q 358 2547 685 2752 
Q 986 2944 1421 2944 
Q 1939 2944 2176 2656 
Q 2291 2522 2323 2384 
Q 2355 2246 2355 1946 
L 2355 723 
Q 2355 301 2554 301 
Q 2682 301 2829 422 
z
M 1837 813 
L 1837 1715 
Q 1248 1510 1018 1293 
Q 800 1094 800 800 
Q 800 557 921 432 
Q 1043 307 1242 307 
Q 1453 307 1613 410 
Q 1747 506 1792 589 
Q 1837 672 1837 813 
z
" transform="scale(0.015625)"/>
       <path id="STIXGeneral-Regular-69" d="M 1152 4045 
Q 1152 3904 1056 3811 
Q 960 3718 819 3718 
Q 685 3718 592 3811 
Q 499 3904 499 4045 
Q 499 4179 595 4275 
Q 691 4371 826 4371 
Q 966 4371 1059 4275 
Q 1152 4179 1152 4045 
z
M 1619 0 
L 102 0 
L 102 96 
Q 435 115 521 211 
Q 608 307 608 666 
L 608 2118 
Q 608 2342 563 2432 
Q 518 2522 397 2522 
Q 243 2522 128 2490 
L 128 2592 
L 1120 2944 
L 1146 2918 
L 1146 672 
Q 1146 314 1226 218 
Q 1306 122 1619 96 
L 1619 0 
z
" transform="scale(0.015625)"/>
       <path id="STIXGeneral-Regular-6e" d="M 3104 0 
L 1773 0 
L 1779 96 
Q 2016 115 2096 233 
Q 2176 352 2176 672 
L 2176 1946 
Q 2176 2592 1709 2592 
Q 1549 2592 1408 2515 
Q 1267 2438 1050 2227 
L 1050 461 
Q 1050 269 1136 192 
Q 1222 115 1466 96 
L 1466 0 
L 115 0 
L 115 96 
Q 358 115 435 214 
Q 512 314 512 602 
L 512 2157 
Q 512 2394 467 2483 
Q 422 2573 288 2573 
Q 160 2573 102 2547 
L 102 2656 
Q 550 2784 979 2944 
L 1030 2925 
L 1030 2426 
L 1037 2426 
Q 1491 2944 1958 2944 
Q 2323 2944 2518 2688 
Q 2714 2432 2714 1958 
L 2714 544 
Q 2714 288 2790 205 
Q 2867 122 3104 96 
L 3104 0 
z
" transform="scale(0.015625)"/>
       <path id="STIXGeneral-Regular-67" d="M 3008 2483 
L 2477 2483 
Q 2598 2208 2598 1946 
Q 2598 1453 2265 1203 
Q 1933 954 1600 954 
Q 1530 954 1357 973 
L 1235 986 
Q 1107 947 979 812 
Q 851 678 851 582 
Q 851 435 1350 410 
L 2176 371 
Q 2528 358 2739 172 
Q 2950 -13 2950 -314 
Q 2950 -685 2566 -986 
Q 2035 -1395 1286 -1395 
Q 826 -1395 502 -1212 
Q 179 -1030 179 -774 
Q 179 -595 320 -419 
Q 461 -243 806 6 
Q 602 102 534 172 
Q 467 243 467 346 
Q 467 531 762 787 
Q 909 915 1037 1043 
Q 717 1203 579 1401 
Q 442 1600 442 1901 
Q 442 2336 752 2640 
Q 1062 2944 1510 2944 
Q 1766 2944 2022 2848 
L 2163 2797 
Q 2349 2733 2515 2733 
L 3008 2733 
L 3008 2483 
z
M 973 2163 
L 973 2144 
Q 973 1683 1155 1398 
Q 1338 1114 1632 1114 
Q 1850 1114 1978 1270 
Q 2106 1427 2106 1690 
Q 2106 2112 1914 2464 
Q 1754 2765 1446 2765 
Q 1222 2765 1097 2605 
Q 973 2445 973 2163 
z
M 2771 -410 
Q 2771 -230 2595 -163 
Q 2419 -96 1978 -96 
Q 1344 -96 941 -13 
Q 749 -243 688 -348 
Q 627 -454 627 -563 
Q 627 -774 880 -902 
Q 1133 -1030 1555 -1030 
Q 2099 -1030 2435 -860 
Q 2771 -691 2771 -410 
z
" transform="scale(0.015625)"/>
       <path id="STIXGeneral-Regular-20" transform="scale(0.015625)"/>
       <path id="STIXGeneral-Regular-45" d="M 3821 1082 
L 3526 0 
L 77 0 
L 77 122 
Q 442 147 538 252 
Q 634 358 634 730 
L 634 3520 
Q 634 3878 534 3987 
Q 435 4096 77 4115 
L 77 4237 
L 3469 4237 
L 3494 3322 
L 3334 3322 
Q 3264 3750 3085 3872 
Q 2906 3994 2349 3994 
L 1510 3994 
Q 1370 3994 1328 3952 
Q 1286 3910 1286 3763 
L 1286 2355 
L 2253 2355 
Q 2656 2355 2787 2470 
Q 2918 2586 2976 2970 
L 3123 2970 
L 3123 1472 
L 2976 1472 
Q 2918 1875 2790 1984 
Q 2662 2093 2253 2093 
L 1286 2093 
L 1286 538 
Q 1286 346 1420 291 
Q 1555 237 1933 237 
L 2163 237 
Q 2848 237 3136 403 
Q 3424 570 3642 1082 
L 3821 1082 
z
" transform="scale(0.015625)"/>
       <path id="STIXGeneral-Regular-76" d="M 3053 2880 
L 3053 2784 
Q 2906 2771 2835 2688 
Q 2765 2605 2637 2285 
L 1818 230 
Q 1690 -90 1638 -90 
Q 1587 -90 1523 77 
Q 1510 96 1497 141 
Q 1485 186 1472 211 
L 704 2048 
Q 499 2534 403 2652 
Q 307 2771 122 2784 
L 122 2880 
L 1376 2880 
L 1376 2784 
Q 1210 2771 1146 2732 
Q 1082 2694 1082 2611 
Q 1082 2509 1139 2368 
L 1792 730 
L 2426 2387 
Q 2464 2483 2464 2579 
Q 2464 2758 2163 2784 
L 2163 2880 
L 3053 2880 
z
" transform="scale(0.015625)"/>
       <path id="STIXGeneral-Regular-6f" d="M 3008 1478 
Q 3008 806 2608 371 
Q 2208 -64 1568 -64 
Q 979 -64 582 368 
Q 186 800 186 1459 
Q 186 2125 582 2534 
Q 979 2944 1626 2944 
Q 2221 2944 2614 2537 
Q 3008 2131 3008 1478 
z
M 2432 1306 
Q 2432 2035 2112 2445 
Q 1856 2765 1504 2765 
Q 1171 2765 966 2493 
Q 762 2221 762 1747 
Q 762 928 1101 435 
Q 1318 115 1677 115 
Q 2029 115 2230 432 
Q 2432 749 2432 1306 
z
" transform="scale(0.015625)"/>
       <path id="STIXGeneral-Regular-6d" d="M 4960 0 
L 3565 0 
L 3565 96 
Q 3834 122 3907 208 
Q 3981 294 3981 576 
L 3981 1894 
Q 3981 2278 3869 2444 
Q 3757 2611 3488 2611 
Q 3264 2611 3107 2521 
Q 2950 2432 2803 2221 
L 2803 608 
Q 2803 301 2896 201 
Q 2989 102 3264 96 
L 3264 0 
L 1830 0 
L 1830 96 
Q 2112 115 2189 188 
Q 2266 262 2266 550 
L 2266 1901 
Q 2266 2611 1850 2611 
Q 1670 2611 1468 2531 
Q 1267 2451 1171 2336 
Q 1088 2240 1088 2227 
L 1088 448 
Q 1088 243 1177 176 
Q 1267 109 1523 96 
L 1523 0 
L 102 0 
L 102 96 
Q 371 102 460 195 
Q 550 288 550 563 
L 550 2150 
Q 550 2387 499 2480 
Q 448 2573 326 2573 
Q 230 2573 122 2547 
L 122 2656 
Q 557 2778 1011 2944 
L 1062 2925 
L 1062 2451 
L 1075 2451 
Q 1363 2752 1584 2848 
Q 1805 2944 2054 2944 
Q 2560 2944 2733 2406 
Q 3232 2944 3776 2944 
Q 4518 2944 4518 1792 
L 4518 493 
Q 4518 282 4582 202 
Q 4646 122 4794 109 
L 4960 96 
L 4960 0 
z
" transform="scale(0.015625)"/>
       <path id="STIXGeneral-Regular-65" d="M 2611 1050 
L 2714 1005 
Q 2330 -64 1376 -64 
Q 813 -64 486 329 
Q 160 723 160 1389 
Q 160 2074 525 2509 
Q 890 2944 1485 2944 
Q 2061 2944 2374 2502 
Q 2560 2246 2592 1773 
L 621 1773 
Q 646 1370 700 1158 
Q 755 947 915 730 
Q 1184 378 1626 378 
Q 1939 378 2153 531 
Q 2368 685 2611 1050 
z
M 634 1978 
L 1939 1978 
Q 1882 2381 1750 2547 
Q 1619 2714 1312 2714 
Q 1043 2714 864 2525 
Q 685 2336 634 1978 
z
" transform="scale(0.015625)"/>
       <path id="STIXGeneral-Regular-74" d="M 1702 493 
L 1786 422 
Q 1478 -64 1011 -64 
Q 448 -64 448 749 
L 448 2675 
L 109 2675 
Q 83 2694 83 2720 
Q 83 2771 192 2842 
Q 435 2982 813 3526 
Q 826 3546 874 3606 
Q 922 3667 941 3706 
Q 986 3706 986 3622 
L 986 2880 
L 1632 2880 
L 1632 2675 
L 986 2675 
L 986 845 
Q 986 538 1062 403 
Q 1139 269 1318 269 
Q 1510 269 1702 493 
z
" transform="scale(0.015625)"/>
       <path id="STIXGeneral-Regular-53" d="M 3002 2963 
L 2842 2963 
Q 2733 3360 2579 3565 
Q 2189 4064 1651 4064 
Q 1357 4064 1181 3894 
Q 1005 3725 1005 3456 
Q 1005 3328 1069 3206 
Q 1133 3085 1206 2998 
Q 1280 2912 1465 2784 
Q 1651 2656 1766 2589 
Q 1882 2522 2150 2362 
Q 2669 2061 2905 1763 
Q 3142 1466 3142 1107 
Q 3142 576 2771 243 
Q 2400 -90 1837 -90 
Q 1421 -90 1082 58 
Q 915 128 781 128 
Q 704 128 653 70 
Q 602 13 602 -83 
L 461 -83 
L 275 1274 
L 416 1274 
Q 845 141 1734 141 
Q 2074 141 2285 342 
Q 2496 544 2496 858 
Q 2496 1158 2310 1363 
Q 2003 1696 1235 2106 
Q 454 2522 454 3206 
Q 454 3718 768 4022 
Q 1082 4326 1568 4326 
Q 1907 4326 2240 4186 
Q 2413 4109 2522 4109 
Q 2688 4109 2726 4326 
L 2861 4326 
L 3002 2963 
z
" transform="scale(0.015625)"/>
       <path id="STIXGeneral-Regular-70" d="M 1018 2931 
L 1018 2438 
Q 1421 2944 1939 2944 
Q 2406 2944 2707 2560 
Q 3008 2176 3008 1581 
Q 3008 883 2621 409 
Q 2234 -64 1664 -64 
Q 1466 -64 1328 -6 
Q 1190 51 1018 211 
L 1018 -794 
Q 1018 -1094 1120 -1180 
Q 1222 -1267 1581 -1274 
L 1581 -1389 
L 32 -1389 
L 32 -1280 
Q 314 -1254 397 -1171 
Q 480 -1088 480 -838 
L 480 2157 
Q 480 2381 429 2451 
Q 378 2522 218 2522 
Q 115 2522 58 2515 
L 58 2618 
Q 506 2752 979 2944 
L 1018 2931 
z
M 1018 2138 
L 1018 563 
Q 1018 422 1238 281 
Q 1459 141 1683 141 
Q 2029 141 2243 467 
Q 2458 794 2458 1325 
Q 2458 1888 2243 2224 
Q 2029 2560 1670 2560 
Q 1446 2560 1232 2419 
Q 1018 2278 1018 2138 
z
" transform="scale(0.015625)"/>
       <path id="STIXGeneral-Regular-73" d="M 998 1926 
L 1664 1523 
Q 1984 1331 2105 1164 
Q 2227 998 2227 736 
Q 2227 416 1961 176 
Q 1696 -64 1331 -64 
Q 1030 -64 864 -6 
Q 691 51 570 51 
Q 461 51 416 -26 
L 333 -26 
L 333 979 
L 435 979 
Q 538 512 730 294 
Q 922 77 1248 77 
Q 1485 77 1632 211 
Q 1779 346 1779 550 
Q 1779 845 1440 1030 
L 1094 1222 
Q 326 1651 326 2150 
Q 326 2522 566 2730 
Q 806 2938 1210 2938 
Q 1491 2938 1638 2867 
Q 1754 2816 1818 2816 
Q 1862 2816 1920 2880 
L 1990 2880 
L 2022 2010 
L 1926 2010 
Q 1818 2445 1654 2621 
Q 1491 2797 1203 2797 
Q 986 2797 854 2688 
Q 723 2579 723 2362 
Q 723 2253 796 2128 
Q 870 2003 998 1926 
z
" transform="scale(0.015625)"/>
      </defs>
      <use xlink:href="#STIXGeneral-Regular-54"/>
      <use xlink:href="#STIXGeneral-Regular-72" x="61.099991"/>
      <use xlink:href="#STIXGeneral-Regular-61" x="94.399979"/>
      <use xlink:href="#STIXGeneral-Regular-69" x="138.799973"/>
      <use xlink:href="#STIXGeneral-Regular-6e" x="166.59996"/>
      <use xlink:href="#STIXGeneral-Regular-69" x="216.599945"/>
      <use xlink:href="#STIXGeneral-Regular-6e" x="244.399933"/>
      <use xlink:href="#STIXGeneral-Regular-67" x="294.399918"/>
      <use xlink:href="#STIXGeneral-Regular-20" x="344.399902"/>
      <use xlink:href="#STIXGeneral-Regular-45" x="369.399887"/>
      <use xlink:href="#STIXGeneral-Regular-6e" x="430.499878"/>
      <use xlink:href="#STIXGeneral-Regular-76" x="480.499863"/>
      <use xlink:href="#STIXGeneral-Regular-69" x="530.499847"/>
      <use xlink:href="#STIXGeneral-Regular-72" x="558.299835"/>
      <use xlink:href="#STIXGeneral-Regular-6f" x="591.599823"/>
      <use xlink:href="#STIXGeneral-Regular-6e" x="641.599808"/>
      <use xlink:href="#STIXGeneral-Regular-6d" x="691.599792"/>
      <use xlink:href="#STIXGeneral-Regular-65" x="769.39978"/>
      <use xlink:href="#STIXGeneral-Regular-6e" x="813.799774"/>
      <use xlink:href="#STIXGeneral-Regular-74" x="863.799759"/>
      <use xlink:href="#STIXGeneral-Regular-20" x="891.599747"/>
      <use xlink:href="#STIXGeneral-Regular-53" x="916.599731"/>
      <use xlink:href="#STIXGeneral-Regular-74" x="972.199722"/>
      <use xlink:href="#STIXGeneral-Regular-65" x="999.99971"/>
      <use xlink:href="#STIXGeneral-Regular-70" x="1044.399704"/>
      <use xlink:href="#STIXGeneral-Regular-73" x="1094.399689"/>
     </g>
    </g>
    <g id="text_8">
     <!-- 1e8 -->
     <g transform="translate(490.806875 343.645562)scale(0.18 -0.18)">
      <defs>
       <path id="STIXGeneral-Regular-38" d="M 2848 992 
Q 2848 499 2505 204 
Q 2163 -90 1587 -90 
Q 1050 -90 704 204 
Q 358 499 358 954 
Q 358 1293 524 1533 
Q 691 1773 1190 2125 
Q 710 2522 553 2765 
Q 397 3008 397 3328 
Q 397 3782 745 4054 
Q 1094 4326 1638 4326 
Q 2106 4326 2410 4060 
Q 2714 3795 2714 3411 
Q 2714 3059 2531 2848 
Q 2349 2637 1856 2374 
Q 2432 1990 2640 1689 
Q 2848 1389 2848 992 
z
M 2272 3411 
Q 2272 3744 2086 3945 
Q 1901 4147 1574 4147 
Q 1248 4147 1059 3977 
Q 870 3808 870 3513 
Q 870 3219 1059 2979 
Q 1248 2739 1670 2490 
Q 1997 2682 2134 2896 
Q 2272 3110 2272 3411 
z
M 1734 1741 
L 1357 1997 
Q 1075 1766 960 1545 
Q 845 1325 845 1011 
Q 845 576 1065 333 
Q 1286 90 1658 90 
Q 1971 90 2166 285 
Q 2362 480 2362 794 
Q 2362 1082 2214 1299 
Q 2067 1517 1734 1741 
z
" transform="scale(0.015625)"/>
      </defs>
      <use xlink:href="#STIXGeneral-Regular-31"/>
      <use xlink:href="#STIXGeneral-Regular-65" x="49.999985"/>
      <use xlink:href="#STIXGeneral-Regular-38" x="94.399979"/>
     </g>
    </g>
   </g>
   <g id="matplotlib.axis_2">
    <g id="ytick_1">
     <g id="line2d_13">
      <path d="M 70.4 293.223636 
L 516.8 293.223636 
" clip-path="url(#p2d8c662c96)" style="fill: none; stroke: #b0b0b0; stroke-width: 0.8; stroke-linecap: square"/>
     </g>
     <g id="line2d_14">
      <defs>
       <path id="mcfc900b352" d="M 0 0 
L -3.5 0 
" style="stroke: #000000; stroke-width: 0.8"/>
      </defs>
      <g>
       <use xlink:href="#mcfc900b352" x="70.4" y="293.223636" style="stroke: #000000; stroke-width: 0.8"/>
      </g>
     </g>
     <g id="text_9">
      <!-- 0 -->
      <g transform="translate(54.4 299.370355)scale(0.18 -0.18)">
       <use xlink:href="#STIXGeneral-Regular-30"/>
      </g>
     </g>
    </g>
    <g id="ytick_2">
     <g id="line2d_15">
      <path d="M 70.4 230.293502 
L 516.8 230.293502 
" clip-path="url(#p2d8c662c96)" style="fill: none; stroke: #b0b0b0; stroke-width: 0.8; stroke-linecap: square"/>
     </g>
     <g id="line2d_16">
      <g>
       <use xlink:href="#mcfc900b352" x="70.4" y="230.293502" style="stroke: #000000; stroke-width: 0.8"/>
      </g>
     </g>
     <g id="text_10">
      <!-- 1000 -->
      <g transform="translate(27.4 236.440221)scale(0.18 -0.18)">
       <use xlink:href="#STIXGeneral-Regular-31"/>
       <use xlink:href="#STIXGeneral-Regular-30" x="49.999985"/>
       <use xlink:href="#STIXGeneral-Regular-30" x="99.999969"/>
       <use xlink:href="#STIXGeneral-Regular-30" x="149.999954"/>
      </g>
     </g>
    </g>
    <g id="ytick_3">
     <g id="line2d_17">
      <path d="M 70.4 167.363368 
L 516.8 167.363368 
" clip-path="url(#p2d8c662c96)" style="fill: none; stroke: #b0b0b0; stroke-width: 0.8; stroke-linecap: square"/>
     </g>
     <g id="line2d_18">
      <g>
       <use xlink:href="#mcfc900b352" x="70.4" y="167.363368" style="stroke: #000000; stroke-width: 0.8"/>
      </g>
     </g>
     <g id="text_11">
      <!-- 2000 -->
      <g transform="translate(27.4 173.510087)scale(0.18 -0.18)">
       <use xlink:href="#STIXGeneral-Regular-32"/>
       <use xlink:href="#STIXGeneral-Regular-30" x="49.999985"/>
       <use xlink:href="#STIXGeneral-Regular-30" x="99.999969"/>
       <use xlink:href="#STIXGeneral-Regular-30" x="149.999954"/>
      </g>
     </g>
    </g>
    <g id="ytick_4">
     <g id="line2d_19">
      <path d="M 70.4 104.433234 
L 516.8 104.433234 
" clip-path="url(#p2d8c662c96)" style="fill: none; stroke: #b0b0b0; stroke-width: 0.8; stroke-linecap: square"/>
     </g>
     <g id="line2d_20">
      <g>
       <use xlink:href="#mcfc900b352" x="70.4" y="104.433234" style="stroke: #000000; stroke-width: 0.8"/>
      </g>
     </g>
     <g id="text_12">
      <!-- 3000 -->
      <g transform="translate(27.4 110.579953)scale(0.18 -0.18)">
       <defs>
        <path id="STIXGeneral-Regular-33" d="M 390 3264 
L 288 3290 
Q 435 3770 748 4048 
Q 1062 4326 1542 4326 
Q 1990 4326 2265 4083 
Q 2541 3840 2541 3450 
Q 2541 2925 1946 2566 
Q 2298 2413 2477 2227 
Q 2758 1914 2758 1402 
Q 2758 890 2464 506 
Q 2246 211 1840 60 
Q 1434 -90 979 -90 
Q 262 -90 262 275 
Q 262 378 339 442 
Q 416 506 525 506 
Q 685 506 915 339 
Q 1197 141 1466 141 
Q 1818 141 2058 425 
Q 2298 710 2298 1120 
Q 2298 1856 1632 2048 
Q 1434 2112 979 2112 
L 979 2202 
Q 1338 2323 1517 2432 
Q 2035 2726 2035 3290 
Q 2035 3610 1852 3776 
Q 1670 3942 1344 3942 
Q 768 3942 390 3264 
z
" transform="scale(0.015625)"/>
       </defs>
       <use xlink:href="#STIXGeneral-Regular-33"/>
       <use xlink:href="#STIXGeneral-Regular-30" x="49.999985"/>
       <use xlink:href="#STIXGeneral-Regular-30" x="99.999969"/>
       <use xlink:href="#STIXGeneral-Regular-30" x="149.999954"/>
      </g>
     </g>
    </g>
    <g id="ytick_5">
     <g id="line2d_21">
      <path d="M 70.4 41.5031 
L 516.8 41.5031 
" clip-path="url(#p2d8c662c96)" style="fill: none; stroke: #b0b0b0; stroke-width: 0.8; stroke-linecap: square"/>
     </g>
     <g id="line2d_22">
      <g>
       <use xlink:href="#mcfc900b352" x="70.4" y="41.5031" style="stroke: #000000; stroke-width: 0.8"/>
      </g>
     </g>
     <g id="text_13">
      <!-- 4000 -->
      <g transform="translate(27.4 47.649819)scale(0.18 -0.18)">
       <defs>
        <path id="STIXGeneral-Regular-34" d="M 3027 1069 
L 2368 1069 
L 2368 0 
L 1869 0 
L 1869 1069 
L 77 1069 
L 77 1478 
L 2086 4326 
L 2368 4326 
L 2368 1478 
L 3027 1478 
L 3027 1069 
z
M 1869 1478 
L 1869 3674 
L 333 1478 
L 1869 1478 
z
" transform="scale(0.015625)"/>
       </defs>
       <use xlink:href="#STIXGeneral-Regular-34"/>
       <use xlink:href="#STIXGeneral-Regular-30" x="49.999985"/>
       <use xlink:href="#STIXGeneral-Regular-30" x="99.999969"/>
       <use xlink:href="#STIXGeneral-Regular-30" x="149.999954"/>
      </g>
     </g>
    </g>
    <g id="text_14">
     <!-- Average Test Return -->
     <g transform="translate(19.476562 241.533375)rotate(-90)scale(0.18 -0.18)">
      <defs>
       <path id="STIXGeneral-Regular-41" d="M 4525 0 
L 2893 0 
L 2893 122 
Q 3149 122 3245 179 
Q 3334 224 3334 333 
Q 3334 499 3213 781 
L 2950 1382 
L 1274 1382 
L 979 653 
Q 922 506 922 384 
Q 922 237 1027 179 
Q 1133 122 1370 122 
L 1370 0 
L 96 0 
L 96 122 
Q 365 147 486 316 
Q 608 486 902 1190 
L 2221 4314 
L 2349 4314 
L 3923 710 
Q 4064 378 4176 262 
Q 4288 147 4525 122 
L 4525 0 
z
M 2861 1645 
L 2118 3405 
L 1382 1645 
L 2861 1645 
z
" transform="scale(0.015625)"/>
       <path id="STIXGeneral-Regular-52" d="M 4224 0 
L 3187 0 
L 1664 1971 
L 1306 1958 
L 1306 717 
Q 1306 352 1405 249 
Q 1504 147 1875 122 
L 1875 0 
L 109 0 
L 109 122 
Q 474 154 563 262 
Q 653 371 653 794 
L 653 3526 
Q 653 3885 563 3987 
Q 474 4090 109 4115 
L 109 4237 
L 1850 4237 
Q 2726 4237 3187 3859 
Q 3501 3603 3501 3091 
Q 3501 2221 2342 2042 
L 3622 422 
Q 3757 256 3878 198 
Q 4000 141 4224 122 
L 4224 0 
z
M 1306 3731 
L 1306 2195 
Q 1766 2202 1990 2246 
Q 2214 2291 2438 2413 
Q 2803 2618 2803 3142 
Q 2803 4000 1632 4000 
Q 1459 4000 1382 3945 
Q 1306 3891 1306 3731 
z
" transform="scale(0.015625)"/>
       <path id="STIXGeneral-Regular-75" d="M 3072 320 
L 3072 230 
Q 2573 96 2195 -58 
L 2163 -38 
L 2163 486 
L 2150 486 
Q 1747 -64 1235 -64 
Q 870 -64 662 160 
Q 454 384 454 755 
L 454 2362 
Q 454 2598 371 2688 
Q 288 2778 58 2790 
L 58 2880 
L 992 2880 
L 992 813 
Q 992 595 1123 451 
Q 1254 307 1446 307 
Q 1760 307 1984 506 
Q 2067 582 2099 649 
Q 2131 717 2131 877 
L 2131 2355 
Q 2131 2605 2041 2678 
Q 1952 2752 1658 2771 
L 1658 2880 
L 2669 2880 
L 2669 685 
Q 2669 461 2742 390 
Q 2816 320 3034 320 
L 3072 320 
z
" transform="scale(0.015625)"/>
      </defs>
      <use xlink:href="#STIXGeneral-Regular-41"/>
      <use xlink:href="#STIXGeneral-Regular-76" x="72.199982"/>
      <use xlink:href="#STIXGeneral-Regular-65" x="122.199966"/>
      <use xlink:href="#STIXGeneral-Regular-72" x="166.59996"/>
      <use xlink:href="#STIXGeneral-Regular-61" x="199.899948"/>
      <use xlink:href="#STIXGeneral-Regular-67" x="244.299942"/>
      <use xlink:href="#STIXGeneral-Regular-65" x="294.299927"/>
      <use xlink:href="#STIXGeneral-Regular-20" x="338.699921"/>
      <use xlink:href="#STIXGeneral-Regular-54" x="363.699905"/>
      <use xlink:href="#STIXGeneral-Regular-65" x="424.799896"/>
      <use xlink:href="#STIXGeneral-Regular-73" x="469.19989"/>
      <use xlink:href="#STIXGeneral-Regular-74" x="508.099884"/>
      <use xlink:href="#STIXGeneral-Regular-20" x="535.899872"/>
      <use xlink:href="#STIXGeneral-Regular-52" x="560.899857"/>
      <use xlink:href="#STIXGeneral-Regular-65" x="627.599854"/>
      <use xlink:href="#STIXGeneral-Regular-74" x="671.999847"/>
      <use xlink:href="#STIXGeneral-Regular-75" x="699.799835"/>
      <use xlink:href="#STIXGeneral-Regular-72" x="749.79982"/>
      <use xlink:href="#STIXGeneral-Regular-6e" x="783.099808"/>
     </g>
    </g>
   </g>
   <g id="line2d_23">
    <path d="M 90.690909 292.552125 
L 91.545863 292.52225 
L 91.830848 292.436391 
L 92.400817 292.401611 
L 93.255771 292.240452 
L 94.110725 292.187342 
L 98.67048 291.748901 
L 98.955465 291.738168 
L 99.240449 291.548291 
L 100.380388 291.521684 
L 100.665373 291.02123 
L 101.235342 291.057184 
L 101.520327 290.84846 
L 101.805312 291.02735 
L 102.090296 290.716077 
L 102.375281 290.873757 
L 102.660266 290.477408 
L 102.94525 290.430663 
L 103.230235 290.17721 
L 103.51522 290.442182 
L 103.800204 290.328796 
L 104.085189 289.684908 
L 104.370174 290.326306 
L 104.655158 290.490818 
L 104.940143 290.51535 
L 105.510112 290.820346 
L 105.795097 290.901882 
L 106.080082 290.786775 
L 106.365066 290.992072 
L 106.650051 290.816156 
L 106.935036 290.176865 
L 107.22002 290.276007 
L 107.505005 290.076722 
L 108.074974 290.592162 
L 108.644944 290.457722 
L 109.214913 290.440758 
L 109.784883 290.444277 
L 110.924821 290.804718 
L 111.209806 290.860498 
L 111.494791 290.688165 
L 112.349745 290.672667 
L 113.204699 290.704432 
L 113.489683 290.582986 
L 114.059653 290.808083 
L 115.199591 290.939444 
L 116.33953 290.831284 
L 116.909499 290.657621 
L 117.194484 290.713952 
L 117.479469 290.541835 
L 118.334423 290.734106 
L 121.754239 290.905137 
L 122.324208 290.827611 
L 123.464147 290.817241 
L 124.604086 290.801666 
L 126.029009 290.9045 
L 127.453933 290.79367 
L 128.023902 290.80606 
L 130.018795 290.812032 
L 131.443718 290.859132 
L 133.153626 290.795905 
L 133.723596 290.822975 
L 134.293565 290.779381 
L 136.003473 291.021692 
L 136.288458 290.980354 
L 136.573442 291.073532 
L 137.713381 291.040598 
L 139.423289 291.085962 
L 141.988151 290.871326 
L 142.558121 290.86851 
L 142.843105 290.706777 
L 143.698059 290.801504 
L 146.547906 290.687674 
L 146.832891 290.719476 
L 147.40286 290.58759 
L 147.972829 290.705109 
L 148.257814 290.629906 
L 148.827783 290.74601 
L 149.397753 290.767843 
L 149.682737 290.355133 
L 149.967722 290.479837 
L 150.252707 290.360881 
L 151.107661 290.693159 
L 151.392646 290.422664 
L 151.67763 290.496557 
L 151.962615 290.231119 
L 152.532584 290.222879 
L 153.102554 289.948804 
L 153.387538 290.220202 
L 153.672523 290.12607 
L 153.957508 289.183583 
L 154.242492 289.106165 
L 154.527477 288.721316 
L 154.812462 289.561699 
L 155.097446 288.747463 
L 155.667416 289.215061 
L 155.9524 289.124955 
L 156.237385 288.249999 
L 156.807354 289.229367 
L 157.092339 289.171518 
L 157.377324 289.590101 
L 157.662308 289.216929 
L 157.947293 289.671153 
L 158.517263 288.249858 
L 158.802247 287.670042 
L 159.087232 288.293462 
L 159.372217 288.23616 
L 159.657201 287.452372 
L 159.942186 287.982474 
L 160.227171 286.744302 
L 161.367109 287.872976 
L 161.652094 286.470655 
L 161.937079 287.424195 
L 162.792033 285.878194 
L 163.077017 286.126782 
L 163.362002 286.087561 
L 163.931971 284.197794 
L 164.216956 284.998307 
L 164.786925 284.766122 
L 165.641879 281.861219 
L 165.926864 282.524374 
L 166.496834 278.029805 
L 167.066803 281.799005 
L 167.921757 276.726568 
L 168.206742 275.90233 
L 168.491726 277.343185 
L 169.061696 275.632967 
L 169.34668 277.280955 
L 169.631665 277.885033 
L 169.91665 276.880041 
L 170.201634 277.575966 
L 170.486619 277.94969 
L 170.771604 277.883794 
L 171.056588 279.374848 
L 171.626558 275.558865 
L 171.911542 278.441046 
L 172.196527 278.270078 
L 173.051481 275.607036 
L 173.336466 276.887057 
L 173.62145 275.936898 
L 173.906435 273.876129 
L 174.19142 275.344254 
L 174.476404 273.198931 
L 174.761389 274.629093 
L 175.046374 273.107558 
L 175.331359 276.470581 
L 175.616343 275.386711 
L 175.901328 275.072558 
L 176.471297 276.071139 
L 176.756282 277.177171 
L 177.611236 274.62063 
L 178.181205 271.317301 
L 178.46619 273.730631 
L 178.751175 274.354486 
L 179.036159 272.488897 
L 179.606129 273.483387 
L 179.891113 273.25181 
L 180.176098 273.64884 
L 180.461083 271.375982 
L 180.746067 273.369502 
L 181.031052 271.164358 
L 181.316037 274.931153 
L 181.601021 274.873234 
L 181.886006 271.569722 
L 182.170991 270.351081 
L 182.455975 270.756456 
L 182.74096 270.862096 
L 183.025945 267.511404 
L 183.31093 267.424571 
L 184.165884 271.208846 
L 184.450868 262.125924 
L 184.735853 261.684415 
L 185.020838 261.913363 
L 185.590807 265.969178 
L 186.160776 264.581929 
L 186.445761 266.753612 
L 186.730746 265.112897 
L 187.5857 266.739702 
L 187.870684 266.495524 
L 188.155669 269.138736 
L 188.440654 267.236001 
L 188.725638 266.160879 
L 189.010623 265.982677 
L 189.295608 268.044387 
L 189.865577 264.464843 
L 190.435546 267.136701 
L 190.720531 264.835719 
L 191.005516 266.445502 
L 191.290501 263.197924 
L 191.575485 265.548681 
L 191.86047 265.992593 
L 192.145455 263.498199 
L 192.430439 263.668843 
L 192.715424 264.88346 
L 193.000409 264.262888 
L 193.285393 262.507534 
L 193.570378 263.800232 
L 193.855363 263.406802 
L 194.140347 264.526992 
L 194.425332 263.977347 
L 194.995301 257.685511 
L 195.280286 256.15416 
L 195.565271 258.496247 
L 195.850255 258.3877 
L 196.13524 256.420579 
L 196.420225 255.58963 
L 196.705209 255.809122 
L 196.990194 255.494322 
L 197.275179 259.113475 
L 197.845148 261.742824 
L 198.130133 258.306624 
L 198.415117 259.935319 
L 198.700102 259.182234 
L 198.985087 263.247014 
L 199.270072 265.082446 
L 199.555056 259.419862 
L 199.840041 260.474501 
L 200.125026 257.97053 
L 200.41001 258.123642 
L 200.694995 259.236867 
L 200.97998 257.800627 
L 201.549949 261.509636 
L 201.834934 261.818714 
L 202.119918 261.861123 
L 202.404903 259.590041 
L 202.689888 260.351261 
L 202.974872 257.740641 
L 203.259857 257.799148 
L 203.544842 256.933117 
L 204.114811 262.144269 
L 204.399796 259.297987 
L 204.68478 259.555662 
L 204.969765 261.564411 
L 205.25475 258.726619 
L 205.539734 258.241846 
L 205.824719 258.114087 
L 206.109704 260.258456 
L 206.394688 258.312681 
L 206.679673 261.426268 
L 207.249642 254.779874 
L 207.534627 253.891946 
L 207.819612 254.425213 
L 208.389581 247.241214 
L 208.959551 251.571931 
L 209.244535 248.508999 
L 209.52952 251.510327 
L 209.814505 251.822648 
L 210.099489 250.349839 
L 210.384474 250.243512 
L 210.669459 249.946436 
L 210.954443 250.276022 
L 211.239428 248.468356 
L 211.524413 248.884916 
L 211.809397 253.002157 
L 212.094382 251.840388 
L 212.664351 245.909052 
L 212.949336 244.071254 
L 213.234321 244.145221 
L 213.519305 244.435229 
L 213.80429 245.17334 
L 214.089275 243.188351 
L 214.374259 242.552782 
L 214.659244 244.460304 
L 214.944229 245.209447 
L 215.229213 243.475864 
L 215.799183 244.580592 
L 216.084168 241.448803 
L 216.369152 239.806235 
L 216.654137 241.726276 
L 216.939122 239.133722 
L 217.224106 239.997069 
L 217.509091 238.739129 
L 217.794076 239.629291 
L 218.07906 242.686618 
L 218.364045 243.453639 
L 218.64903 244.577827 
L 218.934014 244.687331 
L 219.218999 242.955978 
L 219.503984 239.552895 
L 219.788968 242.256032 
L 220.073953 241.152293 
L 220.643922 235.735739 
L 220.928907 237.386192 
L 221.498876 235.265999 
L 221.783861 233.815506 
L 222.068846 233.298859 
L 222.35383 239.05792 
L 222.638815 240.754038 
L 222.9238 240.471895 
L 223.208784 242.985377 
L 223.493769 241.440126 
L 223.778754 241.611713 
L 224.063739 239.63272 
L 224.348723 235.730942 
L 224.633708 236.468488 
L 225.203677 233.724351 
L 225.488662 233.311292 
L 225.773647 231.441191 
L 226.058631 230.853708 
L 226.343616 229.347778 
L 226.628601 232.445193 
L 226.913585 231.787502 
L 227.19857 235.499078 
L 227.483555 236.569781 
L 228.053524 232.451959 
L 228.338509 232.858118 
L 228.623493 232.664775 
L 228.908478 232.028292 
L 229.763432 236.982678 
L 230.048417 235.381393 
L 230.333401 234.758187 
L 230.618386 231.587039 
L 230.903371 233.333097 
L 231.188355 231.456425 
L 231.47334 234.872622 
L 231.758325 235.583992 
L 232.043309 229.558378 
L 232.613279 231.614911 
L 232.898264 231.443533 
L 233.468233 228.088034 
L 233.753218 229.704179 
L 234.038202 226.31984 
L 234.323187 226.30793 
L 234.608172 222.709111 
L 234.893156 224.24922 
L 235.178141 224.047272 
L 235.463126 224.510165 
L 235.74811 226.967268 
L 236.033095 224.431974 
L 236.603064 230.734484 
L 236.888049 227.090773 
L 237.173034 227.403423 
L 237.458018 229.960449 
L 237.743003 229.371313 
L 238.027988 229.201583 
L 238.312972 225.890579 
L 238.597957 227.420372 
L 239.167926 224.495314 
L 239.452911 224.342068 
L 239.737896 219.434312 
L 240.02288 219.573057 
L 240.59285 226.519911 
L 241.162819 215.050276 
L 241.447804 215.9839 
L 242.017773 224.444135 
L 242.302758 223.595592 
L 242.872727 220.685349 
L 243.442697 222.38445 
L 243.727681 222.0458 
L 244.012666 218.623131 
L 244.297651 218.777296 
L 244.582635 220.394978 
L 244.86762 224.074765 
L 245.152605 222.08365 
L 245.437589 223.654767 
L 245.722574 221.070009 
L 246.007559 225.170915 
L 246.292543 220.655274 
L 246.577528 221.332117 
L 246.862513 217.641533 
L 247.147497 216.581683 
L 247.432482 216.386118 
L 248.002451 213.804003 
L 248.287436 216.885889 
L 248.572421 216.757134 
L 248.857406 212.616484 
L 249.14239 213.228647 
L 249.427375 215.064285 
L 249.71236 213.373173 
L 250.282329 214.746198 
L 250.567314 214.577459 
L 250.852298 218.437797 
L 251.707252 202.982429 
L 251.992237 205.750529 
L 252.277222 204.772573 
L 252.562206 204.716831 
L 252.847191 206.650874 
L 253.132176 203.937738 
L 253.41716 206.815744 
L 253.702145 210.978674 
L 253.98713 208.543113 
L 254.272114 210.055396 
L 255.127068 200.60925 
L 255.412053 204.265981 
L 255.697038 203.740971 
L 255.982022 201.247352 
L 256.267007 206.770974 
L 256.551992 205.812878 
L 256.836977 205.721634 
L 257.121961 201.159599 
L 257.691931 203.043005 
L 257.976915 205.841336 
L 258.2619 203.870455 
L 258.546885 200.585236 
L 258.831869 202.481484 
L 260.256793 207.917517 
L 260.541777 206.542278 
L 260.826762 206.426235 
L 261.111747 203.338157 
L 261.396731 204.472356 
L 261.681716 204.253742 
L 262.251685 197.079234 
L 262.53667 202.133127 
L 262.821655 204.000391 
L 263.106639 200.96915 
L 263.391624 207.778486 
L 263.676609 202.399189 
L 264.246578 207.86845 
L 264.531563 202.669545 
L 264.816547 205.353292 
L 265.101532 202.376517 
L 265.386517 204.704709 
L 265.671502 204.242712 
L 265.956486 197.084171 
L 266.241471 199.900447 
L 266.526456 195.063334 
L 266.81144 195.672368 
L 267.096425 195.981394 
L 267.38141 196.54794 
L 267.666394 202.785834 
L 267.951379 201.052954 
L 268.236364 207.096849 
L 268.521348 207.440639 
L 268.806333 203.462821 
L 269.091318 206.740103 
L 269.661287 200.776681 
L 269.946272 200.795661 
L 270.231256 204.071624 
L 270.516241 202.485161 
L 270.801226 204.454262 
L 271.371195 201.86376 
L 271.65618 201.566302 
L 271.941164 202.346808 
L 272.511134 205.912094 
L 272.796118 203.53095 
L 273.081103 204.251847 
L 273.366088 206.542619 
L 273.651073 202.392126 
L 273.936057 202.458023 
L 274.221042 202.369 
L 274.506027 194.002101 
L 274.791011 192.598693 
L 275.075996 195.311623 
L 275.360981 191.250628 
L 275.645965 190.818888 
L 275.93095 200.351653 
L 276.215935 201.386216 
L 276.500919 201.893563 
L 276.785904 203.400569 
L 277.070889 206.92923 
L 277.355873 205.386913 
L 277.640858 206.085831 
L 277.925843 201.173763 
L 278.210827 201.887726 
L 278.495812 200.917341 
L 278.780797 194.065166 
L 279.065781 199.258902 
L 279.350766 193.69301 
L 279.635751 199.213346 
L 279.920735 195.342915 
L 280.20572 187.438861 
L 280.490705 190.999494 
L 280.775689 190.907579 
L 281.060674 195.148896 
L 281.345659 190.072127 
L 281.630644 191.981817 
L 281.915628 188.40471 
L 282.200613 190.051224 
L 282.485598 184.9961 
L 282.770582 189.977302 
L 283.055567 191.448666 
L 283.340552 191.546148 
L 283.625536 191.366732 
L 284.195506 185.514815 
L 284.48049 191.079029 
L 284.765475 186.326254 
L 285.05046 184.024766 
L 285.335444 180.161916 
L 285.620429 177.987858 
L 285.905414 173.898033 
L 286.190398 177.4913 
L 286.475383 179.40544 
L 286.760368 179.637485 
L 287.045352 174.495504 
L 287.330337 165.344118 
L 287.615322 162.019508 
L 287.900306 161.127095 
L 288.185291 154.941019 
L 288.75526 146.304543 
L 289.040245 155.699671 
L 289.610215 150.726217 
L 289.895199 154.646806 
L 290.180184 155.489691 
L 291.035138 144.920809 
L 291.605107 132.494267 
L 291.890092 137.202221 
L 292.175077 136.793995 
L 292.460061 146.023314 
L 292.745046 142.431341 
L 293.030031 146.191915 
L 293.315015 130.76327 
L 293.6 129.450459 
L 293.884985 136.359619 
L 294.169969 135.418689 
L 294.454954 137.47219 
L 295.024923 154.772508 
L 295.309908 143.085808 
L 295.594893 141.988145 
L 295.879877 142.936583 
L 296.164862 136.094356 
L 296.449847 140.565082 
L 296.734831 135.355391 
L 297.019816 136.714067 
L 297.304801 136.702633 
L 297.589785 139.714851 
L 298.159755 136.888915 
L 298.729724 126.412863 
L 299.014709 132.998358 
L 299.299694 131.007791 
L 299.584678 135.627446 
L 300.154648 139.787552 
L 300.439632 131.607109 
L 300.724617 129.392579 
L 301.009602 131.858886 
L 301.294586 128.535343 
L 301.579571 122.479852 
L 302.14954 129.626076 
L 302.434525 127.981141 
L 302.71951 130.381837 
L 303.004494 129.068274 
L 303.574464 144.60624 
L 303.859448 146.669268 
L 304.144433 142.465435 
L 304.429418 134.096809 
L 304.714402 134.930649 
L 304.999387 131.429543 
L 305.284372 124.826653 
L 305.569356 123.9309 
L 305.854341 132.87541 
L 306.139326 124.488735 
L 306.424311 123.852037 
L 306.709295 112.459058 
L 306.99428 118.618313 
L 307.279265 114.720583 
L 307.564249 117.635185 
L 307.849234 117.949275 
L 308.134219 122.334025 
L 308.419203 119.9372 
L 308.989173 130.934782 
L 309.274157 121.797946 
L 309.559142 128.760573 
L 309.844127 127.826435 
L 310.129111 123.796209 
L 310.414096 123.350865 
L 310.699081 116.73348 
L 310.984065 124.395764 
L 311.26905 123.221513 
L 311.554035 123.838944 
L 311.839019 116.592368 
L 312.124004 120.511776 
L 312.408989 117.606161 
L 312.693973 120.255875 
L 312.978958 114.513857 
L 313.263943 115.289157 
L 313.548927 115.691456 
L 313.833912 121.265389 
L 314.118897 122.507895 
L 314.403882 127.585813 
L 314.973851 110.209382 
L 315.54382 125.378074 
L 315.828805 123.142727 
L 316.11379 121.997519 
L 316.398774 115.786547 
L 316.683759 116.674267 
L 316.968744 119.309688 
L 317.253728 124.011568 
L 317.538713 123.361011 
L 317.823698 118.322734 
L 318.108682 117.150208 
L 318.393667 119.468028 
L 318.678652 116.712121 
L 318.963636 108.839747 
L 319.248621 106.072208 
L 319.533606 96.720817 
L 319.81859 98.579986 
L 320.103575 107.073001 
L 320.38856 107.368328 
L 320.673544 108.745548 
L 320.958529 109.336587 
L 321.528498 96.965474 
L 321.813483 92.725839 
L 322.098468 101.448045 
L 322.383453 104.468754 
L 322.668437 96.459727 
L 323.238407 109.463543 
L 323.523391 106.708279 
L 323.808376 100.553575 
L 324.378345 118.380572 
L 324.66333 110.687842 
L 324.948315 113.156748 
L 325.233299 112.950618 
L 325.518284 112.481813 
L 325.803269 109.096496 
L 326.088253 111.847528 
L 326.373238 112.35438 
L 326.658223 104.257435 
L 326.943207 104.836659 
L 327.228192 105.029357 
L 327.513177 108.111333 
L 327.798161 102.714519 
L 328.083146 116.436661 
L 328.368131 104.459891 
L 328.653115 101.708141 
L 328.9381 109.358387 
L 329.223085 105.325422 
L 329.508069 112.850675 
L 329.793054 98.233444 
L 330.078039 106.03229 
L 330.363023 109.781528 
L 330.648008 102.865555 
L 331.217978 96.550345 
L 331.502962 95.990002 
L 332.357916 111.892811 
L 332.642901 107.877418 
L 333.21287 94.890646 
L 333.497855 93.835721 
L 333.78284 95.958233 
L 334.067824 103.356545 
L 334.352809 104.70452 
L 334.637794 102.956897 
L 334.922778 105.140277 
L 335.207763 101.873152 
L 335.492748 103.687966 
L 335.777732 91.415662 
L 336.062717 100.384272 
L 336.347702 90.973477 
L 336.632686 93.46676 
L 336.917671 94.864285 
L 337.202656 91.524731 
L 337.48764 91.129361 
L 337.772625 85.989427 
L 338.05761 91.875579 
L 338.342594 106.26785 
L 338.627579 104.600936 
L 338.912564 93.407015 
L 339.197549 91.580161 
L 339.482533 88.017305 
L 339.767518 90.434522 
L 340.337487 101.167875 
L 340.622472 90.696638 
L 340.907457 95.228298 
L 341.192441 92.836888 
L 341.762411 114.38148 
L 342.33238 97.410531 
L 342.902349 92.1334 
L 343.187334 95.921187 
L 343.472319 98.214613 
L 343.757303 80.239997 
L 344.042288 87.612574 
L 344.327273 83.220174 
L 344.612257 88.354245 
L 344.897242 89.201228 
L 345.182227 98.690193 
L 345.467211 87.297764 
L 345.752196 84.318049 
L 346.037181 87.725545 
L 346.322165 82.452393 
L 346.60715 85.115986 
L 346.892135 75.328943 
L 347.17712 80.37815 
L 347.462104 80.513442 
L 348.032074 64.490089 
L 348.317058 66.393594 
L 348.887028 63.696617 
L 349.172012 66.079734 
L 349.456997 71.022077 
L 349.741982 70.667906 
L 350.026966 65.80816 
L 350.311951 67.616762 
L 350.596936 61.841825 
L 351.45189 76.97033 
L 351.736874 81.898841 
L 352.021859 81.852325 
L 352.306844 82.567562 
L 352.591828 85.969735 
L 352.876813 81.539695 
L 353.161798 79.474105 
L 353.446782 75.383746 
L 353.731767 73.118572 
L 354.016752 66.985492 
L 354.301736 71.305828 
L 354.586721 70.938445 
L 354.871706 77.316345 
L 355.156691 74.186508 
L 355.441675 72.931707 
L 355.72666 74.282376 
L 356.011645 81.677231 
L 356.296629 80.307984 
L 356.581614 84.816618 
L 356.866599 83.754527 
L 357.151583 85.396738 
L 357.436568 100.637301 
L 357.721553 90.952881 
L 358.006537 89.768461 
L 358.291522 75.882955 
L 358.576507 73.123383 
L 358.861491 76.103944 
L 359.146476 81.457765 
L 359.716445 82.776277 
L 360.286415 72.495633 
L 360.571399 74.877928 
L 360.856384 68.066272 
L 361.141369 72.899612 
L 361.426353 79.862039 
L 361.711338 79.720885 
L 361.996323 79.19152 
L 362.281307 71.741871 
L 362.566292 74.869205 
L 362.851277 74.537692 
L 363.136261 82.677064 
L 363.421246 76.903979 
L 363.706231 77.523113 
L 363.991216 71.180895 
L 364.2762 76.764531 
L 364.561185 67.452795 
L 364.84617 68.781511 
L 365.131154 64.490151 
L 365.416139 70.334416 
L 365.701124 71.07951 
L 365.986108 68.910098 
L 366.271093 78.079632 
L 366.556078 74.002919 
L 366.841062 72.263497 
L 367.126047 64.081582 
L 367.411032 75.321718 
L 367.696016 74.279548 
L 367.981001 75.059051 
L 368.265986 79.317512 
L 368.55097 75.4252 
L 368.835955 74.971756 
L 369.12094 71.772836 
L 369.405924 70.165148 
L 369.690909 71.222965 
L 369.975894 69.286621 
L 370.260878 68.507889 
L 370.545863 63.623299 
L 370.830848 65.835682 
L 371.115832 76.538104 
L 371.685802 79.193775 
L 371.970787 73.587108 
L 372.255771 63.550718 
L 372.540756 64.730077 
L 372.825741 70.690435 
L 373.110725 63.945106 
L 373.39571 69.304765 
L 373.680695 78.795568 
L 373.965679 66.778603 
L 374.250664 65.084957 
L 374.820633 72.816989 
L 375.390603 70.737743 
L 375.675587 79.526508 
L 375.960572 77.706317 
L 376.245557 67.624166 
L 376.530541 67.059341 
L 376.815526 62.447822 
L 377.100511 60.391696 
L 377.385495 63.123417 
L 377.67048 59.809117 
L 377.955465 67.286126 
L 378.240449 60.530509 
L 378.525434 60.862232 
L 379.095403 57.011912 
L 379.380388 62.189185 
L 379.665373 56.147536 
L 379.950358 57.129659 
L 380.235342 53.500241 
L 380.520327 53.975723 
L 380.805312 65.779752 
L 381.090296 65.134361 
L 381.660266 62.023001 
L 381.94525 61.567935 
L 382.230235 60.380411 
L 382.51522 66.130809 
L 382.800204 65.169818 
L 383.085189 61.547687 
L 383.370174 60.410433 
L 383.655158 58.741202 
L 383.940143 59.141702 
L 384.225128 56.076179 
L 384.795097 66.443495 
L 385.080082 63.626826 
L 385.650051 67.266142 
L 385.935036 61.323385 
L 386.22002 66.566523 
L 386.505005 64.863799 
L 386.78999 60.872459 
L 387.074974 69.420689 
L 387.644944 66.873993 
L 387.929928 59.446264 
L 388.214913 60.451114 
L 388.499898 61.031599 
L 388.784883 60.276235 
L 389.069867 61.030918 
L 389.354852 52.888842 
L 389.639837 56.009158 
L 390.209806 54.519655 
L 390.494791 54.713403 
L 390.779775 60.420509 
L 391.06476 60.552021 
L 391.349745 66.51551 
L 391.634729 63.83401 
L 391.919714 67.633992 
L 392.204699 69.663587 
L 392.489683 66.059139 
L 392.774668 73.16453 
L 393.059653 70.492354 
L 393.344637 66.331448 
L 393.629622 73.807715 
L 393.914607 72.887291 
L 394.199591 69.031856 
L 394.769561 66.85133 
L 395.054545 69.113927 
L 395.33953 64.736208 
L 395.624515 65.845918 
L 395.909499 60.801105 
L 396.194484 64.678218 
L 396.479469 64.227571 
L 396.764454 61.964313 
L 397.049438 64.296455 
L 397.334423 58.579473 
L 397.619408 65.916476 
L 397.904392 67.060949 
L 398.189377 63.749327 
L 398.474362 70.550473 
L 398.759346 70.283892 
L 399.044331 63.853239 
L 399.329316 66.896974 
L 399.6143 68.102978 
L 399.899285 67.898011 
L 400.18427 70.977744 
L 400.469254 65.437512 
L 400.754239 66.274469 
L 401.039224 62.044948 
L 401.324208 68.522469 
L 401.609193 80.836844 
L 401.894178 85.049858 
L 402.179162 81.180695 
L 402.464147 80.213965 
L 402.749132 74.825057 
L 403.034116 75.235231 
L 403.319101 73.652546 
L 403.604086 78.321016 
L 403.88907 68.783804 
L 404.174055 77.460813 
L 404.45904 75.270515 
L 404.744025 72.16233 
L 405.029009 59.788805 
L 405.313994 57.04078 
L 405.598979 58.109871 
L 405.883963 57.542975 
L 406.168948 60.468254 
L 406.453933 70.16073 
L 406.738917 71.469472 
L 407.023902 67.714596 
L 407.308887 62.36294 
L 407.593871 63.249607 
L 407.878856 63.647408 
L 408.163841 68.631112 
L 408.448825 63.347835 
L 408.73381 55.738425 
L 409.018795 54.389971 
L 409.303779 59.709347 
L 409.588764 59.069573 
L 409.873749 60.405188 
L 410.443718 65.874481 
L 411.013687 75.548249 
L 411.298672 70.21995 
L 411.583657 68.861803 
L 411.868641 68.091064 
L 412.153626 59.010849 
L 412.438611 58.929314 
L 412.723596 58.660673 
L 413.00858 59.597957 
L 413.293565 64.161651 
L 413.57855 59.073719 
L 413.863534 58.358968 
L 414.148519 59.764709 
L 414.433504 62.646727 
L 414.718488 61.060079 
L 415.003473 62.394833 
L 415.573442 61.414302 
L 415.858427 58.978792 
L 416.143412 64.222066 
L 416.713381 58.502588 
L 416.998366 58.269737 
L 417.568335 56.69999 
L 418.138304 57.002634 
L 418.423289 59.421108 
L 418.993258 55.493987 
L 419.278243 59.898927 
L 419.563228 58.008561 
L 419.848212 54.056866 
L 420.133197 52.874633 
L 420.418182 50.674321 
L 420.703166 56.10384 
L 420.988151 55.840088 
L 421.273136 51.99297 
L 421.558121 52.469142 
L 421.843105 55.704431 
L 422.12809 49.476456 
L 422.413075 60.15214 
L 422.698059 62.362317 
L 422.983044 58.167791 
L 423.268029 56.883043 
L 423.553013 50.552287 
L 423.837998 49.612502 
L 424.122983 57.335823 
L 424.407967 55.01059 
L 424.692952 53.781884 
L 424.977937 58.189119 
L 425.832891 53.962218 
L 426.117875 57.167416 
L 426.40286 57.247211 
L 426.687845 54.366617 
L 426.972829 61.939993 
L 427.257814 60.23057 
L 427.542799 53.010679 
L 427.827783 55.435327 
L 428.112768 60.172009 
L 428.397753 61.425652 
L 428.682737 65.627399 
L 428.967722 54.448699 
L 429.252707 48.398932 
L 429.537692 57.657963 
L 429.822676 56.526606 
L 430.107661 56.819779 
L 430.392646 53.131994 
L 430.67763 54.079215 
L 430.962615 48.211731 
L 431.2476 52.191898 
L 431.532584 52.937367 
L 431.817569 49.363838 
L 432.102554 48.105505 
L 432.387538 54.66923 
L 432.672523 54.719766 
L 432.957508 53.31654 
L 433.527477 70.120419 
L 433.812462 64.615387 
L 434.097446 76.991834 
L 434.382431 65.807425 
L 434.667416 64.423716 
L 434.9524 68.254297 
L 435.237385 74.260681 
L 435.52237 63.179925 
L 435.807354 61.370657 
L 436.092339 62.51034 
L 436.377324 66.622244 
L 436.662308 60.690162 
L 436.947293 63.156614 
L 437.232278 57.176979 
L 437.517263 63.906777 
L 437.802247 57.339528 
L 438.087232 61.153313 
L 438.372217 54.82589 
L 438.657201 58.1555 
L 438.942186 55.548033 
L 439.227171 50.150672 
L 439.79714 56.544929 
L 440.082125 52.506797 
L 440.367109 52.642759 
L 440.652094 55.728642 
L 440.937079 51.069724 
L 441.222063 57.172374 
L 441.507048 54.296457 
L 441.792033 53.821422 
L 442.077017 55.423046 
L 442.362002 52.573766 
L 442.646987 56.164347 
L 443.216956 47.967509 
L 443.501941 49.241071 
L 443.786925 47.535956 
L 444.07191 48.409475 
L 444.356895 46.165908 
L 444.641879 40.940291 
L 444.926864 46.10374 
L 445.211849 56.549302 
L 445.496834 56.630724 
L 445.781818 58.91855 
L 446.066803 55.21295 
L 446.351788 55.507711 
L 446.636772 55.528459 
L 446.921757 51.23208 
L 447.206742 53.352393 
L 447.776711 46.514367 
L 448.061696 49.505813 
L 448.34668 47.975424 
L 448.631665 51.07206 
L 448.91665 48.174822 
L 449.201634 47.783012 
L 449.771604 50.348101 
L 450.056588 45.40883 
L 450.341573 47.901807 
L 450.626558 52.391175 
L 450.911542 48.02937 
L 451.196527 54.853982 
L 451.481512 53.552791 
L 451.766496 53.212975 
L 452.051481 52.249646 
L 452.336466 48.912193 
L 452.62145 50.263222 
L 452.906435 50.029899 
L 453.19142 47.313986 
L 453.476404 50.972849 
L 453.761389 53.135338 
L 454.046374 61.556221 
L 454.331359 61.845456 
L 454.616343 61.074412 
L 454.901328 53.127082 
L 455.186313 50.291063 
L 455.471297 62.788229 
L 455.756282 61.051477 
L 456.041267 55.228216 
L 456.326251 52.965053 
L 456.611236 53.09452 
L 456.896221 50.365177 
L 457.181205 63.526859 
L 457.46619 62.84233 
L 457.751175 58.260906 
L 458.036159 47.679247 
L 458.321144 49.053979 
L 458.606129 46.160379 
L 458.891113 50.586302 
L 459.176098 46.533952 
L 459.461083 50.406402 
L 459.746067 51.066268 
L 460.031052 46.861908 
L 460.601021 53.617116 
L 460.886006 47.293709 
L 461.455975 61.361603 
L 462.025945 51.605595 
L 462.31093 49.566316 
L 462.595914 48.957983 
L 462.880899 45.437228 
L 463.165884 43.502374 
L 463.450868 45.569218 
L 463.735853 52.321752 
L 464.020838 51.183239 
L 464.305822 53.170815 
L 464.590807 51.831713 
L 464.875792 51.303528 
L 465.160776 53.478632 
L 465.445761 63.171316 
L 465.730746 58.334576 
L 466.01573 56.026023 
L 466.300715 50.161944 
L 466.5857 54.082846 
L 466.870684 51.083572 
L 467.155669 50.375232 
L 467.725638 58.338356 
L 468.010623 53.075799 
L 468.295608 60.529514 
L 468.580592 57.332158 
L 468.865577 63.596148 
L 469.150562 60.355557 
L 469.435546 51.849199 
L 469.720531 51.594077 
L 470.005516 53.34174 
L 470.290501 51.121357 
L 470.575485 58.280498 
L 470.86047 56.803537 
L 471.145455 60.422925 
L 472.000409 48.310261 
L 472.285393 47.146085 
L 472.570378 57.133178 
L 472.855363 54.356611 
L 473.140347 50.484779 
L 473.425332 57.481989 
L 473.710317 54.241599 
L 473.995301 58.371689 
L 474.280286 56.560115 
L 474.565271 52.655424 
L 474.850255 50.816094 
L 475.13524 53.528403 
L 475.420225 48.242397 
L 475.705209 49.713551 
L 475.990194 53.641305 
L 476.275179 53.420029 
L 476.560163 54.123742 
L 476.845148 54.451212 
L 477.415117 49.322025 
L 477.700102 51.396946 
L 477.985087 49.361265 
L 478.270072 51.420785 
L 478.555056 51.243623 
L 478.840041 48.77119 
L 479.125026 48.252497 
L 479.694995 55.576984 
L 479.97998 51.121348 
L 480.264964 50.888138 
L 480.549949 46.542807 
L 480.834934 46.831826 
L 481.119918 43.921176 
L 481.404903 48.119514 
L 481.689888 48.284862 
L 481.974872 47.926685 
L 482.259857 47.118846 
L 482.544842 47.256586 
L 482.829826 46.331469 
L 483.114811 49.237187 
L 483.399796 45.556507 
L 483.68478 44.863579 
L 483.969765 51.244946 
L 484.25475 54.124812 
L 484.539734 47.99341 
L 484.824719 46.892208 
L 485.109704 44.645574 
L 485.394688 50.830841 
L 485.679673 50.99442 
L 485.964658 48.316684 
L 486.249642 52.066829 
L 486.534627 50.962088 
L 486.819612 50.57468 
L 487.104597 53.693756 
L 487.389581 54.956113 
L 487.674566 51.261755 
L 487.959551 45.542906 
L 488.244535 44.646446 
L 488.52952 46.379002 
L 488.814505 51.551208 
L 489.099489 42.800995 
L 489.384474 40.552125 
L 489.669459 43.395308 
L 489.954443 43.382709 
L 490.239428 46.597326 
L 490.524413 52.298278 
L 490.809397 52.377045 
L 491.094382 48.489659 
L 491.379367 58.363253 
L 491.664351 52.759985 
L 491.949336 51.622979 
L 492.519305 44.923462 
L 492.80429 44.979382 
L 493.089275 52.892622 
L 493.374259 47.083674 
L 493.659244 58.785731 
L 493.944229 64.53628 
L 494.229213 63.21304 
L 494.514198 58.423898 
L 494.799183 57.67693 
L 495.084168 58.187837 
L 495.369152 61.557014 
L 495.654137 63.576603 
L 496.224106 57.211966 
L 496.509091 50.169497 
L 496.509091 50.169497 
" clip-path="url(#p2d8c662c96)" style="fill: none; stroke: #1f77b4; stroke-width: 1.5; stroke-linecap: square"/>
   </g>
   <g id="patch_3">
    <path d="M 70.4 305.152125 
L 70.4 27.952125 
" style="fill: none; stroke: #000000; stroke-width: 0.8; stroke-linejoin: miter; stroke-linecap: square"/>
   </g>
   <g id="patch_4">
    <path d="M 516.8 305.152125 
L 516.8 27.952125 
" style="fill: none; stroke: #000000; stroke-width: 0.8; stroke-linejoin: miter; stroke-linecap: square"/>
   </g>
   <g id="patch_5">
    <path d="M 70.4 305.152125 
L 516.8 305.152125 
" style="fill: none; stroke: #000000; stroke-width: 0.8; stroke-linejoin: miter; stroke-linecap: square"/>
   </g>
   <g id="patch_6">
    <path d="M 70.4 27.952125 
L 516.8 27.952125 
" style="fill: none; stroke: #000000; stroke-width: 0.8; stroke-linejoin: miter; stroke-linecap: square"/>
   </g>
   <g id="text_15">
    <!-- ML1 Meta Testing -->
    <g transform="translate(212.004313 21.952125)scale(0.216 -0.216)">
     <defs>
      <path id="STIXGeneral-Regular-4d" d="M 5530 0 
L 3738 0 
L 3738 122 
Q 4115 147 4214 265 
Q 4314 384 4314 787 
L 4314 3661 
L 2682 0 
L 2592 0 
L 979 3514 
L 979 966 
Q 979 448 1088 294 
Q 1197 141 1574 122 
L 1574 0 
L 77 0 
L 77 122 
Q 358 141 480 205 
Q 602 269 650 432 
Q 698 595 698 966 
L 698 3514 
Q 698 3878 589 3984 
Q 480 4090 90 4115 
L 90 4237 
L 1357 4237 
L 2835 1024 
L 4250 4237 
L 5523 4237 
L 5523 4115 
Q 5178 4109 5072 3993 
Q 4966 3878 4966 3520 
L 4966 717 
Q 4966 378 5072 262 
Q 5178 147 5530 122 
L 5530 0 
z
" transform="scale(0.015625)"/>
      <path id="STIXGeneral-Regular-4c" d="M 3827 1114 
L 3520 0 
L 77 0 
L 77 122 
Q 429 141 531 256 
Q 634 371 634 736 
L 634 3494 
Q 634 3872 541 3981 
Q 448 4090 77 4115 
L 77 4237 
L 1888 4237 
L 1888 4115 
Q 1498 4090 1392 3984 
Q 1286 3878 1286 3507 
L 1286 538 
Q 1286 358 1398 304 
Q 1510 250 1862 250 
L 2310 250 
Q 3085 250 3392 640 
Q 3520 813 3661 1114 
L 3827 1114 
z
" transform="scale(0.015625)"/>
     </defs>
     <use xlink:href="#STIXGeneral-Regular-4d"/>
     <use xlink:href="#STIXGeneral-Regular-4c" x="88.899994"/>
     <use xlink:href="#STIXGeneral-Regular-31" x="149.999985"/>
     <use xlink:href="#STIXGeneral-Regular-20" x="199.999969"/>
     <use xlink:href="#STIXGeneral-Regular-4d" x="224.999954"/>
     <use xlink:href="#STIXGeneral-Regular-65" x="313.899948"/>
     <use xlink:href="#STIXGeneral-Regular-74" x="358.299942"/>
     <use xlink:href="#STIXGeneral-Regular-61" x="386.09993"/>
     <use xlink:href="#STIXGeneral-Regular-20" x="430.499924"/>
     <use xlink:href="#STIXGeneral-Regular-54" x="455.499908"/>
     <use xlink:href="#STIXGeneral-Regular-65" x="516.599899"/>
     <use xlink:href="#STIXGeneral-Regular-73" x="560.999893"/>
     <use xlink:href="#STIXGeneral-Regular-74" x="599.899887"/>
     <use xlink:href="#STIXGeneral-Regular-69" x="627.699875"/>
     <use xlink:href="#STIXGeneral-Regular-6e" x="655.499863"/>
     <use xlink:href="#STIXGeneral-Regular-67" x="705.499847"/>
    </g>
   </g>
   <g id="legend_1">
    <g id="patch_7">
     <path d="M 80.2 58.990562 
L 200.43375 58.990562 
Q 203.23375 58.990562 203.23375 56.190562 
L 203.23375 37.752125 
Q 203.23375 34.952125 200.43375 34.952125 
L 80.2 34.952125 
Q 77.4 34.952125 77.4 37.752125 
L 77.4 56.190562 
Q 77.4 58.990562 80.2 58.990562 
z
" style="fill: #ffffff; opacity: 0.8; stroke: #cccccc; stroke-linejoin: miter"/>
    </g>
    <g id="line2d_24">
     <path d="M 83 45.452125 
L 97 45.452125 
L 111 45.452125 
" style="fill: none; stroke: #1f77b4; stroke-width: 1.5; stroke-linecap: square"/>
    </g>
    <g id="text_16">
     <!-- basketball-v2 -->
     <g transform="translate(122.2 50.352125)scale(0.14 -0.14)">
      <defs>
       <path id="STIXGeneral-Regular-62" d="M 979 4358 
L 979 2406 
Q 1082 2650 1315 2797 
Q 1549 2944 1843 2944 
Q 2349 2944 2672 2541 
Q 2995 2138 2995 1536 
Q 2995 832 2566 384 
Q 2138 -64 1498 -64 
Q 1107 -64 774 67 
Q 442 198 442 358 
L 442 3622 
Q 442 3859 384 3926 
Q 326 3994 128 3994 
Q 83 3994 19 3981 
L 19 4090 
L 211 4147 
Q 864 4346 947 4371 
L 979 4358 
z
M 979 2035 
L 979 474 
Q 979 326 1161 233 
Q 1344 141 1600 141 
Q 1978 141 2195 416 
Q 2432 710 2432 1261 
Q 2432 1888 2182 2240 
Q 1971 2541 1613 2541 
Q 1357 2541 1168 2390 
Q 979 2240 979 2035 
z
" transform="scale(0.015625)"/>
       <path id="STIXGeneral-Regular-6b" d="M 3232 0 
L 1837 0 
L 1837 96 
L 1958 96 
Q 2093 96 2093 192 
Q 2093 250 2022 339 
L 1062 1606 
L 1062 429 
Q 1062 262 1142 185 
Q 1222 109 1414 102 
L 1542 96 
L 1542 0 
L 45 0 
L 45 96 
Q 390 154 457 214 
Q 525 275 525 525 
L 525 3610 
Q 525 3840 467 3920 
Q 410 4000 250 4000 
Q 211 4000 45 3987 
L 45 4090 
L 237 4141 
Q 621 4243 1037 4371 
L 1062 4358 
L 1062 1670 
L 1939 2451 
Q 2086 2586 2086 2675 
Q 2086 2739 2019 2761 
Q 1952 2784 1766 2790 
L 1766 2880 
L 3072 2880 
L 3072 2784 
Q 2752 2784 2505 2646 
Q 2259 2509 1690 1978 
L 1504 1805 
L 2483 563 
Q 2829 122 3232 96 
L 3232 0 
z
" transform="scale(0.015625)"/>
       <path id="STIXGeneral-Regular-6c" d="M 1645 0 
L 134 0 
L 134 96 
Q 435 122 531 221 
Q 627 320 627 589 
L 627 3590 
Q 627 3821 569 3910 
Q 512 4000 358 4000 
Q 224 4000 122 3987 
L 122 4090 
Q 730 4237 1133 4371 
L 1165 4346 
L 1165 557 
Q 1165 288 1254 201 
Q 1344 115 1645 96 
L 1645 0 
z
" transform="scale(0.015625)"/>
       <path id="STIXGeneral-Regular-2d" d="M 1824 1242 
L 250 1242 
L 250 1645 
L 1824 1645 
L 1824 1242 
z
" transform="scale(0.015625)"/>
      </defs>
      <use xlink:href="#STIXGeneral-Regular-62"/>
      <use xlink:href="#STIXGeneral-Regular-61" x="49.999985"/>
      <use xlink:href="#STIXGeneral-Regular-73" x="94.399979"/>
      <use xlink:href="#STIXGeneral-Regular-6b" x="133.299973"/>
      <use xlink:href="#STIXGeneral-Regular-65" x="183.299957"/>
      <use xlink:href="#STIXGeneral-Regular-74" x="227.699951"/>
      <use xlink:href="#STIXGeneral-Regular-62" x="255.499939"/>
      <use xlink:href="#STIXGeneral-Regular-61" x="305.499924"/>
      <use xlink:href="#STIXGeneral-Regular-6c" x="349.899918"/>
      <use xlink:href="#STIXGeneral-Regular-6c" x="377.699905"/>
      <use xlink:href="#STIXGeneral-Regular-2d" x="405.499893"/>
      <use xlink:href="#STIXGeneral-Regular-76" x="438.799881"/>
      <use xlink:href="#STIXGeneral-Regular-32" x="488.799866"/>
     </g>
    </g>
   </g>
  </g>
 </g>
 <defs>
  <clipPath id="p2d8c662c96">
   <rect x="70.4" y="27.952125" width="446.4" height="277.2"/>
  </clipPath>
 </defs>
</svg>
