<?xml version="1.0" encoding="utf-8" standalone="no"?>
<!DOCTYPE svg PUBLIC "-//W3C//DTD SVG 1.1//EN"
  "http://www.w3.org/Graphics/SVG/1.1/DTD/svg11.dtd">
<svg xmlns:xlink="http://www.w3.org/1999/xlink" width="506pt" height="355.769pt" viewBox="0 0 506 355.769" xmlns="http://www.w3.org/2000/svg" version="1.1">
 <metadata>
  <rdf:RDF xmlns:dc="http://purl.org/dc/elements/1.1/" xmlns:cc="http://creativecommons.org/ns#" xmlns:rdf="http://www.w3.org/1999/02/22-rdf-syntax-ns#">
   <cc:Work>
    <dc:type rdf:resource="http://purl.org/dc/dcmitype/StillImage"/>
    <dc:date>2021-12-11T16:39:06.613122</dc:date>
    <dc:format>image/svg+xml</dc:format>
    <dc:creator>
     <cc:Agent>
      <dc:title>Matplotlib v3.5.0, https://matplotlib.org/</dc:title>
     </cc:Agent>
    </dc:creator>
   </cc:Work>
  </rdf:RDF>
 </metadata>
 <defs>
  <style type="text/css">*{stroke-linejoin: round; stroke-linecap: butt}</style>
 </defs>
 <g id="figure_1">
  <g id="patch_1">
   <path d="M 0 355.769 
L 506 355.769 
L 506 0 
L 0 0 
z
" style="fill: #ffffff"/>
  </g>
  <g id="axes_1">
   <g id="patch_2">
    <path d="M 52.4 305.152125 
L 498.8 305.152125 
L 498.8 27.952125 
L 52.4 27.952125 
z
" style="fill: #ffffff"/>
   </g>
   <g id="matplotlib.axis_1">
    <g id="xtick_1">
     <g id="line2d_1">
      <path d="M 72.370611 305.152125 
L 72.370611 27.952125 
" clip-path="url(#pbac873aed7)" style="fill: none; stroke: #b0b0b0; stroke-width: 0.8; stroke-linecap: square"/>
     </g>
     <g id="line2d_2">
      <defs>
       <path id="m3c1af84dd4" d="M 0 0 
L 0 3.5 
" style="stroke: #000000; stroke-width: 0.8"/>
      </defs>
      <g>
       <use xlink:href="#m3c1af84dd4" x="72.370611" y="305.152125" style="stroke: #000000; stroke-width: 0.8"/>
      </g>
     </g>
     <g id="text_1">
      <!-- 0 -->
      <g transform="translate(67.870611 324.445562)scale(0.18 -0.18)">
       <defs>
        <path id="STIXGeneral-Regular-30" d="M 3046 2112 
Q 3046 1683 2963 1302 
Q 2880 922 2717 602 
Q 2554 282 2266 96 
Q 1978 -90 1600 -90 
Q 1210 -90 915 108 
Q 621 307 461 640 
Q 301 973 227 1350 
Q 154 1728 154 2150 
Q 154 2746 301 3222 
Q 448 3699 790 4012 
Q 1133 4326 1626 4326 
Q 2253 4326 2649 3712 
Q 3046 3098 3046 2112 
z
M 2432 2080 
Q 2432 3091 2217 3625 
Q 2003 4160 1587 4160 
Q 1190 4160 979 3622 
Q 768 3085 768 2106 
Q 768 1120 979 598 
Q 1190 77 1600 77 
Q 2003 77 2217 598 
Q 2432 1120 2432 2080 
z
" transform="scale(0.015625)"/>
       </defs>
       <use xlink:href="#STIXGeneral-Regular-30"/>
      </g>
     </g>
    </g>
    <g id="xtick_2">
     <g id="line2d_3">
      <path d="M 152.445232 305.152125 
L 152.445232 27.952125 
" clip-path="url(#pbac873aed7)" style="fill: none; stroke: #b0b0b0; stroke-width: 0.8; stroke-linecap: square"/>
     </g>
     <g id="line2d_4">
      <g>
       <use xlink:href="#m3c1af84dd4" x="152.445232" y="305.152125" style="stroke: #000000; stroke-width: 0.8"/>
      </g>
     </g>
     <g id="text_2">
      <!-- 1 -->
      <g transform="translate(147.945232 324.445562)scale(0.18 -0.18)">
       <defs>
        <path id="STIXGeneral-Regular-31" d="M 2522 0 
L 755 0 
L 755 96 
Q 1107 115 1235 227 
Q 1363 339 1363 608 
L 1363 3482 
Q 1363 3795 1171 3795 
Q 1082 3795 883 3718 
L 710 3654 
L 710 3744 
L 1856 4326 
L 1914 4307 
L 1914 486 
Q 1914 275 2042 185 
Q 2170 96 2522 96 
L 2522 0 
z
" transform="scale(0.015625)"/>
       </defs>
       <use xlink:href="#STIXGeneral-Regular-31"/>
      </g>
     </g>
    </g>
    <g id="xtick_3">
     <g id="line2d_5">
      <path d="M 232.519854 305.152125 
L 232.519854 27.952125 
" clip-path="url(#pbac873aed7)" style="fill: none; stroke: #b0b0b0; stroke-width: 0.8; stroke-linecap: square"/>
     </g>
     <g id="line2d_6">
      <g>
       <use xlink:href="#m3c1af84dd4" x="232.519854" y="305.152125" style="stroke: #000000; stroke-width: 0.8"/>
      </g>
     </g>
     <g id="text_3">
      <!-- 2 -->
      <g transform="translate(228.019854 324.445562)scale(0.18 -0.18)">
       <defs>
        <path id="STIXGeneral-Regular-32" d="M 3034 877 
L 2688 0 
L 186 0 
L 186 77 
L 1325 1286 
Q 1773 1754 1965 2144 
Q 2157 2534 2157 2950 
Q 2157 3379 1920 3616 
Q 1683 3853 1267 3853 
Q 922 3853 720 3673 
Q 518 3494 326 3021 
L 192 3053 
Q 301 3648 630 3987 
Q 960 4326 1523 4326 
Q 2054 4326 2380 4006 
Q 2707 3686 2707 3200 
Q 2707 2477 1888 1613 
L 832 486 
L 2330 486 
Q 2541 486 2665 569 
Q 2790 653 2944 915 
L 3034 877 
z
" transform="scale(0.015625)"/>
       </defs>
       <use xlink:href="#STIXGeneral-Regular-32"/>
      </g>
     </g>
    </g>
    <g id="xtick_4">
     <g id="line2d_7">
      <path d="M 312.594475 305.152125 
L 312.594475 27.952125 
" clip-path="url(#pbac873aed7)" style="fill: none; stroke: #b0b0b0; stroke-width: 0.8; stroke-linecap: square"/>
     </g>
     <g id="line2d_8">
      <g>
       <use xlink:href="#m3c1af84dd4" x="312.594475" y="305.152125" style="stroke: #000000; stroke-width: 0.8"/>
      </g>
     </g>
     <g id="text_4">
      <!-- 3 -->
      <g transform="translate(308.094475 324.445562)scale(0.18 -0.18)">
       <defs>
        <path id="STIXGeneral-Regular-33" d="M 390 3264 
L 288 3290 
Q 435 3770 748 4048 
Q 1062 4326 1542 4326 
Q 1990 4326 2265 4083 
Q 2541 3840 2541 3450 
Q 2541 2925 1946 2566 
Q 2298 2413 2477 2227 
Q 2758 1914 2758 1402 
Q 2758 890 2464 506 
Q 2246 211 1840 60 
Q 1434 -90 979 -90 
Q 262 -90 262 275 
Q 262 378 339 442 
Q 416 506 525 506 
Q 685 506 915 339 
Q 1197 141 1466 141 
Q 1818 141 2058 425 
Q 2298 710 2298 1120 
Q 2298 1856 1632 2048 
Q 1434 2112 979 2112 
L 979 2202 
Q 1338 2323 1517 2432 
Q 2035 2726 2035 3290 
Q 2035 3610 1852 3776 
Q 1670 3942 1344 3942 
Q 768 3942 390 3264 
z
" transform="scale(0.015625)"/>
       </defs>
       <use xlink:href="#STIXGeneral-Regular-33"/>
      </g>
     </g>
    </g>
    <g id="xtick_5">
     <g id="line2d_9">
      <path d="M 392.669097 305.152125 
L 392.669097 27.952125 
" clip-path="url(#pbac873aed7)" style="fill: none; stroke: #b0b0b0; stroke-width: 0.8; stroke-linecap: square"/>
     </g>
     <g id="line2d_10">
      <g>
       <use xlink:href="#m3c1af84dd4" x="392.669097" y="305.152125" style="stroke: #000000; stroke-width: 0.8"/>
      </g>
     </g>
     <g id="text_5">
      <!-- 4 -->
      <g transform="translate(388.169097 324.445562)scale(0.18 -0.18)">
       <defs>
        <path id="STIXGeneral-Regular-34" d="M 3027 1069 
L 2368 1069 
L 2368 0 
L 1869 0 
L 1869 1069 
L 77 1069 
L 77 1478 
L 2086 4326 
L 2368 4326 
L 2368 1478 
L 3027 1478 
L 3027 1069 
z
M 1869 1478 
L 1869 3674 
L 333 1478 
L 1869 1478 
z
" transform="scale(0.015625)"/>
       </defs>
       <use xlink:href="#STIXGeneral-Regular-34"/>
      </g>
     </g>
    </g>
    <g id="xtick_6">
     <g id="line2d_11">
      <path d="M 472.743718 305.152125 
L 472.743718 27.952125 
" clip-path="url(#pbac873aed7)" style="fill: none; stroke: #b0b0b0; stroke-width: 0.8; stroke-linecap: square"/>
     </g>
     <g id="line2d_12">
      <g>
       <use xlink:href="#m3c1af84dd4" x="472.743718" y="305.152125" style="stroke: #000000; stroke-width: 0.8"/>
      </g>
     </g>
     <g id="text_6">
      <!-- 5 -->
      <g transform="translate(468.243718 324.445562)scale(0.18 -0.18)">
       <defs>
        <path id="STIXGeneral-Regular-35" d="M 2803 4358 
L 2573 3814 
Q 2534 3731 2400 3731 
L 1158 3731 
L 902 3187 
Q 1606 3053 1920 2896 
Q 2234 2739 2502 2368 
Q 2726 2061 2726 1555 
Q 2726 1094 2576 780 
Q 2426 467 2099 224 
Q 1664 -90 1011 -90 
Q 646 -90 422 19 
Q 198 128 198 307 
Q 198 550 486 550 
Q 717 550 960 352 
Q 1210 147 1414 147 
Q 1747 147 2012 480 
Q 2278 813 2278 1229 
Q 2278 1843 1850 2189 
Q 1293 2637 486 2637 
Q 410 2637 410 2688 
L 416 2720 
L 1114 4237 
L 2438 4237 
Q 2547 4237 2608 4269 
Q 2669 4301 2746 4403 
L 2803 4358 
z
" transform="scale(0.015625)"/>
       </defs>
       <use xlink:href="#STIXGeneral-Regular-35"/>
      </g>
     </g>
    </g>
    <g id="text_7">
     <!-- Training Environment Steps -->
     <g transform="translate(173.604688 344.645562)scale(0.18 -0.18)">
      <defs>
       <path id="STIXGeneral-Regular-54" d="M 3795 3149 
L 3642 3149 
Q 3539 3674 3353 3821 
Q 3168 3968 2656 3968 
L 2278 3968 
L 2278 710 
Q 2278 346 2387 243 
Q 2496 141 2893 122 
L 2893 0 
L 1024 0 
L 1024 122 
Q 1427 147 1526 256 
Q 1626 365 1626 787 
L 1626 3968 
L 1242 3968 
Q 723 3968 540 3817 
Q 358 3667 262 3149 
L 109 3149 
L 154 4237 
L 3750 4237 
L 3795 3149 
z
" transform="scale(0.015625)"/>
       <path id="STIXGeneral-Regular-72" d="M 1024 2931 
L 1024 2342 
Q 1267 2688 1430 2816 
Q 1594 2944 1792 2944 
Q 1958 2944 2051 2854 
Q 2144 2765 2144 2605 
Q 2144 2470 2077 2393 
Q 2010 2317 1894 2317 
Q 1773 2317 1638 2445 
Q 1536 2541 1472 2541 
Q 1338 2541 1181 2355 
Q 1024 2170 1024 2016 
L 1024 576 
Q 1024 301 1133 205 
Q 1242 109 1568 96 
L 1568 0 
L 32 0 
L 32 96 
Q 339 154 412 224 
Q 486 294 486 538 
L 486 2138 
Q 486 2349 438 2435 
Q 390 2522 269 2522 
Q 166 2522 45 2496 
L 45 2598 
Q 448 2726 992 2944 
L 1024 2931 
z
" transform="scale(0.015625)"/>
       <path id="STIXGeneral-Regular-61" d="M 2829 422 
L 2829 243 
Q 2586 -64 2253 -64 
Q 1888 -64 1843 403 
L 1837 403 
Q 1427 -64 909 -64 
Q 608 -64 422 112 
Q 237 288 237 602 
Q 237 1050 685 1350 
Q 992 1555 1837 1869 
L 1837 2214 
Q 1837 2502 1699 2646 
Q 1562 2790 1338 2790 
Q 1146 2790 1018 2697 
Q 890 2605 890 2477 
Q 890 2419 909 2348 
Q 928 2278 928 2208 
Q 928 2112 841 2029 
Q 755 1946 634 1946 
Q 525 1946 441 2029 
Q 358 2112 358 2240 
Q 358 2547 685 2752 
Q 986 2944 1421 2944 
Q 1939 2944 2176 2656 
Q 2291 2522 2323 2384 
Q 2355 2246 2355 1946 
L 2355 723 
Q 2355 301 2554 301 
Q 2682 301 2829 422 
z
M 1837 813 
L 1837 1715 
Q 1248 1510 1018 1293 
Q 800 1094 800 800 
Q 800 557 921 432 
Q 1043 307 1242 307 
Q 1453 307 1613 410 
Q 1747 506 1792 589 
Q 1837 672 1837 813 
z
" transform="scale(0.015625)"/>
       <path id="STIXGeneral-Regular-69" d="M 1152 4045 
Q 1152 3904 1056 3811 
Q 960 3718 819 3718 
Q 685 3718 592 3811 
Q 499 3904 499 4045 
Q 499 4179 595 4275 
Q 691 4371 826 4371 
Q 966 4371 1059 4275 
Q 1152 4179 1152 4045 
z
M 1619 0 
L 102 0 
L 102 96 
Q 435 115 521 211 
Q 608 307 608 666 
L 608 2118 
Q 608 2342 563 2432 
Q 518 2522 397 2522 
Q 243 2522 128 2490 
L 128 2592 
L 1120 2944 
L 1146 2918 
L 1146 672 
Q 1146 314 1226 218 
Q 1306 122 1619 96 
L 1619 0 
z
" transform="scale(0.015625)"/>
       <path id="STIXGeneral-Regular-6e" d="M 3104 0 
L 1773 0 
L 1779 96 
Q 2016 115 2096 233 
Q 2176 352 2176 672 
L 2176 1946 
Q 2176 2592 1709 2592 
Q 1549 2592 1408 2515 
Q 1267 2438 1050 2227 
L 1050 461 
Q 1050 269 1136 192 
Q 1222 115 1466 96 
L 1466 0 
L 115 0 
L 115 96 
Q 358 115 435 214 
Q 512 314 512 602 
L 512 2157 
Q 512 2394 467 2483 
Q 422 2573 288 2573 
Q 160 2573 102 2547 
L 102 2656 
Q 550 2784 979 2944 
L 1030 2925 
L 1030 2426 
L 1037 2426 
Q 1491 2944 1958 2944 
Q 2323 2944 2518 2688 
Q 2714 2432 2714 1958 
L 2714 544 
Q 2714 288 2790 205 
Q 2867 122 3104 96 
L 3104 0 
z
" transform="scale(0.015625)"/>
       <path id="STIXGeneral-Regular-67" d="M 3008 2483 
L 2477 2483 
Q 2598 2208 2598 1946 
Q 2598 1453 2265 1203 
Q 1933 954 1600 954 
Q 1530 954 1357 973 
L 1235 986 
Q 1107 947 979 812 
Q 851 678 851 582 
Q 851 435 1350 410 
L 2176 371 
Q 2528 358 2739 172 
Q 2950 -13 2950 -314 
Q 2950 -685 2566 -986 
Q 2035 -1395 1286 -1395 
Q 826 -1395 502 -1212 
Q 179 -1030 179 -774 
Q 179 -595 320 -419 
Q 461 -243 806 6 
Q 602 102 534 172 
Q 467 243 467 346 
Q 467 531 762 787 
Q 909 915 1037 1043 
Q 717 1203 579 1401 
Q 442 1600 442 1901 
Q 442 2336 752 2640 
Q 1062 2944 1510 2944 
Q 1766 2944 2022 2848 
L 2163 2797 
Q 2349 2733 2515 2733 
L 3008 2733 
L 3008 2483 
z
M 973 2163 
L 973 2144 
Q 973 1683 1155 1398 
Q 1338 1114 1632 1114 
Q 1850 1114 1978 1270 
Q 2106 1427 2106 1690 
Q 2106 2112 1914 2464 
Q 1754 2765 1446 2765 
Q 1222 2765 1097 2605 
Q 973 2445 973 2163 
z
M 2771 -410 
Q 2771 -230 2595 -163 
Q 2419 -96 1978 -96 
Q 1344 -96 941 -13 
Q 749 -243 688 -348 
Q 627 -454 627 -563 
Q 627 -774 880 -902 
Q 1133 -1030 1555 -1030 
Q 2099 -1030 2435 -860 
Q 2771 -691 2771 -410 
z
" transform="scale(0.015625)"/>
       <path id="STIXGeneral-Regular-20" transform="scale(0.015625)"/>
       <path id="STIXGeneral-Regular-45" d="M 3821 1082 
L 3526 0 
L 77 0 
L 77 122 
Q 442 147 538 252 
Q 634 358 634 730 
L 634 3520 
Q 634 3878 534 3987 
Q 435 4096 77 4115 
L 77 4237 
L 3469 4237 
L 3494 3322 
L 3334 3322 
Q 3264 3750 3085 3872 
Q 2906 3994 2349 3994 
L 1510 3994 
Q 1370 3994 1328 3952 
Q 1286 3910 1286 3763 
L 1286 2355 
L 2253 2355 
Q 2656 2355 2787 2470 
Q 2918 2586 2976 2970 
L 3123 2970 
L 3123 1472 
L 2976 1472 
Q 2918 1875 2790 1984 
Q 2662 2093 2253 2093 
L 1286 2093 
L 1286 538 
Q 1286 346 1420 291 
Q 1555 237 1933 237 
L 2163 237 
Q 2848 237 3136 403 
Q 3424 570 3642 1082 
L 3821 1082 
z
" transform="scale(0.015625)"/>
       <path id="STIXGeneral-Regular-76" d="M 3053 2880 
L 3053 2784 
Q 2906 2771 2835 2688 
Q 2765 2605 2637 2285 
L 1818 230 
Q 1690 -90 1638 -90 
Q 1587 -90 1523 77 
Q 1510 96 1497 141 
Q 1485 186 1472 211 
L 704 2048 
Q 499 2534 403 2652 
Q 307 2771 122 2784 
L 122 2880 
L 1376 2880 
L 1376 2784 
Q 1210 2771 1146 2732 
Q 1082 2694 1082 2611 
Q 1082 2509 1139 2368 
L 1792 730 
L 2426 2387 
Q 2464 2483 2464 2579 
Q 2464 2758 2163 2784 
L 2163 2880 
L 3053 2880 
z
" transform="scale(0.015625)"/>
       <path id="STIXGeneral-Regular-6f" d="M 3008 1478 
Q 3008 806 2608 371 
Q 2208 -64 1568 -64 
Q 979 -64 582 368 
Q 186 800 186 1459 
Q 186 2125 582 2534 
Q 979 2944 1626 2944 
Q 2221 2944 2614 2537 
Q 3008 2131 3008 1478 
z
M 2432 1306 
Q 2432 2035 2112 2445 
Q 1856 2765 1504 2765 
Q 1171 2765 966 2493 
Q 762 2221 762 1747 
Q 762 928 1101 435 
Q 1318 115 1677 115 
Q 2029 115 2230 432 
Q 2432 749 2432 1306 
z
" transform="scale(0.015625)"/>
       <path id="STIXGeneral-Regular-6d" d="M 4960 0 
L 3565 0 
L 3565 96 
Q 3834 122 3907 208 
Q 3981 294 3981 576 
L 3981 1894 
Q 3981 2278 3869 2444 
Q 3757 2611 3488 2611 
Q 3264 2611 3107 2521 
Q 2950 2432 2803 2221 
L 2803 608 
Q 2803 301 2896 201 
Q 2989 102 3264 96 
L 3264 0 
L 1830 0 
L 1830 96 
Q 2112 115 2189 188 
Q 2266 262 2266 550 
L 2266 1901 
Q 2266 2611 1850 2611 
Q 1670 2611 1468 2531 
Q 1267 2451 1171 2336 
Q 1088 2240 1088 2227 
L 1088 448 
Q 1088 243 1177 176 
Q 1267 109 1523 96 
L 1523 0 
L 102 0 
L 102 96 
Q 371 102 460 195 
Q 550 288 550 563 
L 550 2150 
Q 550 2387 499 2480 
Q 448 2573 326 2573 
Q 230 2573 122 2547 
L 122 2656 
Q 557 2778 1011 2944 
L 1062 2925 
L 1062 2451 
L 1075 2451 
Q 1363 2752 1584 2848 
Q 1805 2944 2054 2944 
Q 2560 2944 2733 2406 
Q 3232 2944 3776 2944 
Q 4518 2944 4518 1792 
L 4518 493 
Q 4518 282 4582 202 
Q 4646 122 4794 109 
L 4960 96 
L 4960 0 
z
" transform="scale(0.015625)"/>
       <path id="STIXGeneral-Regular-65" d="M 2611 1050 
L 2714 1005 
Q 2330 -64 1376 -64 
Q 813 -64 486 329 
Q 160 723 160 1389 
Q 160 2074 525 2509 
Q 890 2944 1485 2944 
Q 2061 2944 2374 2502 
Q 2560 2246 2592 1773 
L 621 1773 
Q 646 1370 700 1158 
Q 755 947 915 730 
Q 1184 378 1626 378 
Q 1939 378 2153 531 
Q 2368 685 2611 1050 
z
M 634 1978 
L 1939 1978 
Q 1882 2381 1750 2547 
Q 1619 2714 1312 2714 
Q 1043 2714 864 2525 
Q 685 2336 634 1978 
z
" transform="scale(0.015625)"/>
       <path id="STIXGeneral-Regular-74" d="M 1702 493 
L 1786 422 
Q 1478 -64 1011 -64 
Q 448 -64 448 749 
L 448 2675 
L 109 2675 
Q 83 2694 83 2720 
Q 83 2771 192 2842 
Q 435 2982 813 3526 
Q 826 3546 874 3606 
Q 922 3667 941 3706 
Q 986 3706 986 3622 
L 986 2880 
L 1632 2880 
L 1632 2675 
L 986 2675 
L 986 845 
Q 986 538 1062 403 
Q 1139 269 1318 269 
Q 1510 269 1702 493 
z
" transform="scale(0.015625)"/>
       <path id="STIXGeneral-Regular-53" d="M 3002 2963 
L 2842 2963 
Q 2733 3360 2579 3565 
Q 2189 4064 1651 4064 
Q 1357 4064 1181 3894 
Q 1005 3725 1005 3456 
Q 1005 3328 1069 3206 
Q 1133 3085 1206 2998 
Q 1280 2912 1465 2784 
Q 1651 2656 1766 2589 
Q 1882 2522 2150 2362 
Q 2669 2061 2905 1763 
Q 3142 1466 3142 1107 
Q 3142 576 2771 243 
Q 2400 -90 1837 -90 
Q 1421 -90 1082 58 
Q 915 128 781 128 
Q 704 128 653 70 
Q 602 13 602 -83 
L 461 -83 
L 275 1274 
L 416 1274 
Q 845 141 1734 141 
Q 2074 141 2285 342 
Q 2496 544 2496 858 
Q 2496 1158 2310 1363 
Q 2003 1696 1235 2106 
Q 454 2522 454 3206 
Q 454 3718 768 4022 
Q 1082 4326 1568 4326 
Q 1907 4326 2240 4186 
Q 2413 4109 2522 4109 
Q 2688 4109 2726 4326 
L 2861 4326 
L 3002 2963 
z
" transform="scale(0.015625)"/>
       <path id="STIXGeneral-Regular-70" d="M 1018 2931 
L 1018 2438 
Q 1421 2944 1939 2944 
Q 2406 2944 2707 2560 
Q 3008 2176 3008 1581 
Q 3008 883 2621 409 
Q 2234 -64 1664 -64 
Q 1466 -64 1328 -6 
Q 1190 51 1018 211 
L 1018 -794 
Q 1018 -1094 1120 -1180 
Q 1222 -1267 1581 -1274 
L 1581 -1389 
L 32 -1389 
L 32 -1280 
Q 314 -1254 397 -1171 
Q 480 -1088 480 -838 
L 480 2157 
Q 480 2381 429 2451 
Q 378 2522 218 2522 
Q 115 2522 58 2515 
L 58 2618 
Q 506 2752 979 2944 
L 1018 2931 
z
M 1018 2138 
L 1018 563 
Q 1018 422 1238 281 
Q 1459 141 1683 141 
Q 2029 141 2243 467 
Q 2458 794 2458 1325 
Q 2458 1888 2243 2224 
Q 2029 2560 1670 2560 
Q 1446 2560 1232 2419 
Q 1018 2278 1018 2138 
z
" transform="scale(0.015625)"/>
       <path id="STIXGeneral-Regular-73" d="M 998 1926 
L 1664 1523 
Q 1984 1331 2105 1164 
Q 2227 998 2227 736 
Q 2227 416 1961 176 
Q 1696 -64 1331 -64 
Q 1030 -64 864 -6 
Q 691 51 570 51 
Q 461 51 416 -26 
L 333 -26 
L 333 979 
L 435 979 
Q 538 512 730 294 
Q 922 77 1248 77 
Q 1485 77 1632 211 
Q 1779 346 1779 550 
Q 1779 845 1440 1030 
L 1094 1222 
Q 326 1651 326 2150 
Q 326 2522 566 2730 
Q 806 2938 1210 2938 
Q 1491 2938 1638 2867 
Q 1754 2816 1818 2816 
Q 1862 2816 1920 2880 
L 1990 2880 
L 2022 2010 
L 1926 2010 
Q 1818 2445 1654 2621 
Q 1491 2797 1203 2797 
Q 986 2797 854 2688 
Q 723 2579 723 2362 
Q 723 2253 796 2128 
Q 870 2003 998 1926 
z
" transform="scale(0.015625)"/>
      </defs>
      <use xlink:href="#STIXGeneral-Regular-54"/>
      <use xlink:href="#STIXGeneral-Regular-72" x="61.099991"/>
      <use xlink:href="#STIXGeneral-Regular-61" x="94.399979"/>
      <use xlink:href="#STIXGeneral-Regular-69" x="138.799973"/>
      <use xlink:href="#STIXGeneral-Regular-6e" x="166.59996"/>
      <use xlink:href="#STIXGeneral-Regular-69" x="216.599945"/>
      <use xlink:href="#STIXGeneral-Regular-6e" x="244.399933"/>
      <use xlink:href="#STIXGeneral-Regular-67" x="294.399918"/>
      <use xlink:href="#STIXGeneral-Regular-20" x="344.399902"/>
      <use xlink:href="#STIXGeneral-Regular-45" x="369.399887"/>
      <use xlink:href="#STIXGeneral-Regular-6e" x="430.499878"/>
      <use xlink:href="#STIXGeneral-Regular-76" x="480.499863"/>
      <use xlink:href="#STIXGeneral-Regular-69" x="530.499847"/>
      <use xlink:href="#STIXGeneral-Regular-72" x="558.299835"/>
      <use xlink:href="#STIXGeneral-Regular-6f" x="591.599823"/>
      <use xlink:href="#STIXGeneral-Regular-6e" x="641.599808"/>
      <use xlink:href="#STIXGeneral-Regular-6d" x="691.599792"/>
      <use xlink:href="#STIXGeneral-Regular-65" x="769.39978"/>
      <use xlink:href="#STIXGeneral-Regular-6e" x="813.799774"/>
      <use xlink:href="#STIXGeneral-Regular-74" x="863.799759"/>
      <use xlink:href="#STIXGeneral-Regular-20" x="891.599747"/>
      <use xlink:href="#STIXGeneral-Regular-53" x="916.599731"/>
      <use xlink:href="#STIXGeneral-Regular-74" x="972.199722"/>
      <use xlink:href="#STIXGeneral-Regular-65" x="999.99971"/>
      <use xlink:href="#STIXGeneral-Regular-70" x="1044.399704"/>
      <use xlink:href="#STIXGeneral-Regular-73" x="1094.399689"/>
     </g>
    </g>
    <g id="text_8">
     <!-- 1e8 -->
     <g transform="translate(472.806875 343.645562)scale(0.18 -0.18)">
      <defs>
       <path id="STIXGeneral-Regular-38" d="M 2848 992 
Q 2848 499 2505 204 
Q 2163 -90 1587 -90 
Q 1050 -90 704 204 
Q 358 499 358 954 
Q 358 1293 524 1533 
Q 691 1773 1190 2125 
Q 710 2522 553 2765 
Q 397 3008 397 3328 
Q 397 3782 745 4054 
Q 1094 4326 1638 4326 
Q 2106 4326 2410 4060 
Q 2714 3795 2714 3411 
Q 2714 3059 2531 2848 
Q 2349 2637 1856 2374 
Q 2432 1990 2640 1689 
Q 2848 1389 2848 992 
z
M 2272 3411 
Q 2272 3744 2086 3945 
Q 1901 4147 1574 4147 
Q 1248 4147 1059 3977 
Q 870 3808 870 3513 
Q 870 3219 1059 2979 
Q 1248 2739 1670 2490 
Q 1997 2682 2134 2896 
Q 2272 3110 2272 3411 
z
M 1734 1741 
L 1357 1997 
Q 1075 1766 960 1545 
Q 845 1325 845 1011 
Q 845 576 1065 333 
Q 1286 90 1658 90 
Q 1971 90 2166 285 
Q 2362 480 2362 794 
Q 2362 1082 2214 1299 
Q 2067 1517 1734 1741 
z
" transform="scale(0.015625)"/>
      </defs>
      <use xlink:href="#STIXGeneral-Regular-31"/>
      <use xlink:href="#STIXGeneral-Regular-65" x="49.999985"/>
      <use xlink:href="#STIXGeneral-Regular-38" x="94.399979"/>
     </g>
    </g>
   </g>
   <g id="matplotlib.axis_2">
    <g id="ytick_1">
     <g id="line2d_13">
      <path d="M 52.4 238.111267 
L 498.8 238.111267 
" clip-path="url(#pbac873aed7)" style="fill: none; stroke: #b0b0b0; stroke-width: 0.8; stroke-linecap: square"/>
     </g>
     <g id="line2d_14">
      <defs>
       <path id="m8f4b1eb6df" d="M 0 0 
L -3.5 0 
" style="stroke: #000000; stroke-width: 0.8"/>
      </defs>
      <g>
       <use xlink:href="#m8f4b1eb6df" x="52.4" y="238.111267" style="stroke: #000000; stroke-width: 0.8"/>
      </g>
     </g>
     <g id="text_9">
      <!-- 10 -->
      <g transform="translate(27.4 244.257985)scale(0.18 -0.18)">
       <use xlink:href="#STIXGeneral-Regular-31"/>
       <use xlink:href="#STIXGeneral-Regular-30" x="49.999985"/>
      </g>
     </g>
    </g>
    <g id="ytick_2">
     <g id="line2d_15">
      <path d="M 52.4 166.717864 
L 498.8 166.717864 
" clip-path="url(#pbac873aed7)" style="fill: none; stroke: #b0b0b0; stroke-width: 0.8; stroke-linecap: square"/>
     </g>
     <g id="line2d_16">
      <g>
       <use xlink:href="#m8f4b1eb6df" x="52.4" y="166.717864" style="stroke: #000000; stroke-width: 0.8"/>
      </g>
     </g>
     <g id="text_10">
      <!-- 15 -->
      <g transform="translate(27.4 172.864582)scale(0.18 -0.18)">
       <use xlink:href="#STIXGeneral-Regular-31"/>
       <use xlink:href="#STIXGeneral-Regular-35" x="49.999985"/>
      </g>
     </g>
    </g>
    <g id="ytick_3">
     <g id="line2d_17">
      <path d="M 52.4 95.32446 
L 498.8 95.32446 
" clip-path="url(#pbac873aed7)" style="fill: none; stroke: #b0b0b0; stroke-width: 0.8; stroke-linecap: square"/>
     </g>
     <g id="line2d_18">
      <g>
       <use xlink:href="#m8f4b1eb6df" x="52.4" y="95.32446" style="stroke: #000000; stroke-width: 0.8"/>
      </g>
     </g>
     <g id="text_11">
      <!-- 20 -->
      <g transform="translate(27.4 101.471179)scale(0.18 -0.18)">
       <use xlink:href="#STIXGeneral-Regular-32"/>
       <use xlink:href="#STIXGeneral-Regular-30" x="49.999985"/>
      </g>
     </g>
    </g>
    <g id="text_12">
     <!-- Average Test Return -->
     <g transform="translate(19.476562 241.533375)rotate(-90)scale(0.18 -0.18)">
      <defs>
       <path id="STIXGeneral-Regular-41" d="M 4525 0 
L 2893 0 
L 2893 122 
Q 3149 122 3245 179 
Q 3334 224 3334 333 
Q 3334 499 3213 781 
L 2950 1382 
L 1274 1382 
L 979 653 
Q 922 506 922 384 
Q 922 237 1027 179 
Q 1133 122 1370 122 
L 1370 0 
L 96 0 
L 96 122 
Q 365 147 486 316 
Q 608 486 902 1190 
L 2221 4314 
L 2349 4314 
L 3923 710 
Q 4064 378 4176 262 
Q 4288 147 4525 122 
L 4525 0 
z
M 2861 1645 
L 2118 3405 
L 1382 1645 
L 2861 1645 
z
" transform="scale(0.015625)"/>
       <path id="STIXGeneral-Regular-52" d="M 4224 0 
L 3187 0 
L 1664 1971 
L 1306 1958 
L 1306 717 
Q 1306 352 1405 249 
Q 1504 147 1875 122 
L 1875 0 
L 109 0 
L 109 122 
Q 474 154 563 262 
Q 653 371 653 794 
L 653 3526 
Q 653 3885 563 3987 
Q 474 4090 109 4115 
L 109 4237 
L 1850 4237 
Q 2726 4237 3187 3859 
Q 3501 3603 3501 3091 
Q 3501 2221 2342 2042 
L 3622 422 
Q 3757 256 3878 198 
Q 4000 141 4224 122 
L 4224 0 
z
M 1306 3731 
L 1306 2195 
Q 1766 2202 1990 2246 
Q 2214 2291 2438 2413 
Q 2803 2618 2803 3142 
Q 2803 4000 1632 4000 
Q 1459 4000 1382 3945 
Q 1306 3891 1306 3731 
z
" transform="scale(0.015625)"/>
       <path id="STIXGeneral-Regular-75" d="M 3072 320 
L 3072 230 
Q 2573 96 2195 -58 
L 2163 -38 
L 2163 486 
L 2150 486 
Q 1747 -64 1235 -64 
Q 870 -64 662 160 
Q 454 384 454 755 
L 454 2362 
Q 454 2598 371 2688 
Q 288 2778 58 2790 
L 58 2880 
L 992 2880 
L 992 813 
Q 992 595 1123 451 
Q 1254 307 1446 307 
Q 1760 307 1984 506 
Q 2067 582 2099 649 
Q 2131 717 2131 877 
L 2131 2355 
Q 2131 2605 2041 2678 
Q 1952 2752 1658 2771 
L 1658 2880 
L 2669 2880 
L 2669 685 
Q 2669 461 2742 390 
Q 2816 320 3034 320 
L 3072 320 
z
" transform="scale(0.015625)"/>
      </defs>
      <use xlink:href="#STIXGeneral-Regular-41"/>
      <use xlink:href="#STIXGeneral-Regular-76" x="72.199982"/>
      <use xlink:href="#STIXGeneral-Regular-65" x="122.199966"/>
      <use xlink:href="#STIXGeneral-Regular-72" x="166.59996"/>
      <use xlink:href="#STIXGeneral-Regular-61" x="199.899948"/>
      <use xlink:href="#STIXGeneral-Regular-67" x="244.299942"/>
      <use xlink:href="#STIXGeneral-Regular-65" x="294.299927"/>
      <use xlink:href="#STIXGeneral-Regular-20" x="338.699921"/>
      <use xlink:href="#STIXGeneral-Regular-54" x="363.699905"/>
      <use xlink:href="#STIXGeneral-Regular-65" x="424.799896"/>
      <use xlink:href="#STIXGeneral-Regular-73" x="469.19989"/>
      <use xlink:href="#STIXGeneral-Regular-74" x="508.099884"/>
      <use xlink:href="#STIXGeneral-Regular-20" x="535.899872"/>
      <use xlink:href="#STIXGeneral-Regular-52" x="560.899857"/>
      <use xlink:href="#STIXGeneral-Regular-65" x="627.599854"/>
      <use xlink:href="#STIXGeneral-Regular-74" x="671.999847"/>
      <use xlink:href="#STIXGeneral-Regular-75" x="699.799835"/>
      <use xlink:href="#STIXGeneral-Regular-72" x="749.79982"/>
      <use xlink:href="#STIXGeneral-Regular-6e" x="783.099808"/>
     </g>
    </g>
   </g>
   <g id="line2d_19">
    <path d="M 72.690909 262.200617 
L 73.011208 253.606228 
L 73.651805 212.440715 
L 73.972103 205.800505 
L 74.292402 194.399078 
L 75.253297 181.789314 
L 75.573595 169.515881 
L 75.893894 164.840637 
L 76.214192 153.485174 
L 76.534491 162.42288 
L 76.854789 148.400096 
L 77.175088 146.914656 
L 77.495386 146.497021 
L 77.815685 128.339622 
L 78.135983 128.157406 
L 78.456282 125.729491 
L 78.77658 128.579909 
L 79.096879 110.951542 
L 79.417177 110.365469 
L 79.737476 110.391589 
L 80.057774 98.492506 
L 80.378073 100.224026 
L 80.698371 83.107089 
L 81.01867 91.644256 
L 81.338968 104.548575 
L 81.659267 101.842506 
L 82.299864 79.007316 
L 82.620162 69.356295 
L 82.940461 76.996828 
L 83.260759 73.130285 
L 83.581058 78.697001 
L 84.221655 56.792328 
L 84.541953 72.813271 
L 84.862252 59.962069 
L 85.18255 60.407893 
L 85.823147 80.312139 
L 86.143446 77.752757 
L 86.463744 94.631857 
L 86.784042 70.854378 
L 87.104341 78.689376 
L 87.424639 81.974871 
L 88.385535 115.368831 
L 88.705833 87.039738 
L 89.026132 92.729329 
L 89.666729 40.552125 
L 89.987027 46.753258 
L 91.268221 129.190686 
L 91.58852 136.858525 
L 91.908818 137.69103 
L 92.229117 147.514494 
L 92.869714 183.125528 
L 93.190012 185.919273 
L 93.510311 183.137495 
L 93.830609 192.971176 
L 94.471206 216.3824 
L 94.791505 221.940877 
L 95.111803 222.074633 
L 95.432102 212.730431 
L 95.7524 222.517029 
L 96.072699 219.659925 
L 96.392997 222.716583 
L 96.713296 232.067889 
L 97.033594 229.08162 
L 97.353893 234.190168 
L 97.674191 233.801564 
L 97.994489 235.814963 
L 98.314788 236.88012 
L 98.635086 236.277837 
L 98.955385 246.010202 
L 99.275683 247.000942 
L 99.595982 254.827154 
L 99.91628 257.807461 
L 100.236579 252.822973 
L 100.556877 251.582718 
L 100.877176 240.631414 
L 101.197474 242.119063 
L 101.517773 246.347847 
L 102.15837 239.918291 
L 102.478668 234.137559 
L 103.119265 253.817687 
L 103.439564 247.309144 
L 103.759862 248.117697 
L 104.400459 257.544438 
L 104.720758 251.919949 
L 105.041056 252.985485 
L 105.361355 247.437538 
L 105.681653 252.981483 
L 106.32225 256.581634 
L 106.642549 264.173473 
L 106.962847 261.097848 
L 107.283146 262.480673 
L 107.603444 275.745692 
L 107.923743 276.42863 
L 108.244041 272.875207 
L 108.56434 275.693704 
L 108.884638 275.099973 
L 109.204936 279.390458 
L 109.525235 270.272665 
L 109.845533 270.002422 
L 110.165832 271.660894 
L 110.48613 279.00494 
L 110.806429 283.487691 
L 111.126727 285.306135 
L 111.447026 281.020878 
L 112.087623 288.158403 
L 112.407921 287.548919 
L 112.72822 290.229666 
L 113.048518 290.40353 
L 113.368817 286.179737 
L 113.689115 285.692883 
L 114.009414 285.728553 
L 114.650011 292.552125 
L 114.970309 289.350224 
L 115.290608 274.886292 
L 115.610906 273.845739 
L 115.931205 269.77316 
L 116.571802 251.718745 
L 116.8921 252.978324 
L 117.212399 244.998337 
L 117.532697 244.443609 
L 117.852996 236.411607 
L 118.173294 239.909231 
L 119.13419 222.832852 
L 119.774787 235.384108 
L 120.095085 232.806577 
L 120.415384 239.726439 
L 120.735682 231.762726 
L 121.05598 231.313453 
L 121.376279 221.556969 
L 121.696577 215.243482 
L 122.016876 223.812049 
L 122.337174 220.352053 
L 122.657473 220.163493 
L 122.977771 222.751146 
L 123.29807 228.47616 
L 123.618368 221.460101 
L 123.938667 223.318272 
L 124.258965 219.479054 
L 124.579264 226.606886 
L 124.899562 229.118919 
L 125.219861 219.932472 
L 125.540159 207.512713 
L 126.180756 219.698473 
L 126.501055 235.436154 
L 126.821353 228.465024 
L 127.141652 229.959638 
L 127.46195 226.999861 
L 127.782249 216.97191 
L 128.102547 219.476081 
L 128.422846 215.248027 
L 128.743144 205.512112 
L 129.063443 205.411884 
L 130.344637 195.082545 
L 130.664935 200.020068 
L 130.985234 194.820284 
L 131.305532 208.116506 
L 131.625831 214.844827 
L 131.946129 209.998589 
L 132.266427 218.879816 
L 132.586726 217.664589 
L 132.907024 215.123829 
L 133.227323 221.117997 
L 133.547621 214.548259 
L 133.86792 224.167611 
L 134.188218 221.648639 
L 134.508517 210.673425 
L 135.149114 214.484491 
L 135.469412 212.567466 
L 135.789711 212.391405 
L 136.110009 207.568298 
L 136.430308 206.78959 
L 136.750606 204.626161 
L 137.070905 205.247543 
L 137.391203 210.082416 
L 137.711502 208.892141 
L 138.0318 204.967174 
L 138.352099 205.710104 
L 138.672397 203.877359 
L 139.312994 209.008395 
L 139.953591 205.338768 
L 140.27389 204.594723 
L 140.594188 208.833357 
L 140.914487 207.713317 
L 141.234785 207.232669 
L 141.555084 201.209703 
L 141.875382 205.879283 
L 142.195681 205.410962 
L 142.515979 206.391968 
L 142.836278 212.825139 
L 143.156576 205.187263 
L 143.797173 200.273669 
L 144.117471 195.549243 
L 144.43777 195.140765 
L 144.758068 192.36303 
L 145.078367 190.578469 
L 145.398665 191.542198 
L 145.718964 188.692368 
L 146.359561 192.239704 
L 146.679859 191.514026 
L 147.000158 183.414205 
L 147.320456 182.187776 
L 147.640755 182.049083 
L 147.961053 187.487417 
L 148.281352 188.272281 
L 148.60165 200.290328 
L 148.921949 206.335942 
L 149.242247 203.520774 
L 149.562546 199.533284 
L 149.882844 198.535737 
L 150.203143 195.026056 
L 150.523441 197.091297 
L 151.164038 190.552677 
L 151.484337 183.610406 
L 151.804635 188.372787 
L 152.124934 188.855085 
L 152.445232 197.589363 
L 152.765531 196.134766 
L 153.085829 185.784696 
L 153.406128 186.270711 
L 153.726426 184.137933 
L 154.046725 191.018445 
L 154.367023 189.574045 
L 154.687322 184.866704 
L 155.327918 192.970911 
L 155.648217 188.922774 
L 155.968515 186.545152 
L 156.288814 187.400513 
L 156.609112 187.48682 
L 156.929411 195.525991 
L 157.249709 198.009697 
L 157.570008 191.69251 
L 157.890306 191.462803 
L 158.530903 180.801455 
L 158.851202 181.013576 
L 159.1715 177.252046 
L 159.491799 176.496371 
L 159.812097 178.731096 
L 160.132396 184.82972 
L 160.452694 184.946115 
L 160.772993 186.076389 
L 161.093291 179.60456 
L 161.41359 178.835337 
L 161.733888 177.280352 
L 162.054187 180.57892 
L 162.374485 188.997689 
L 162.694784 188.4731 
L 163.015082 181.474399 
L 163.335381 182.191274 
L 163.655679 181.832636 
L 163.975978 181.754786 
L 164.296276 187.206123 
L 164.616575 179.742139 
L 164.936873 182.673724 
L 165.57747 172.127678 
L 165.897769 177.53283 
L 166.218067 180.729917 
L 166.538366 180.54632 
L 166.858664 185.138952 
L 167.178962 194.596487 
L 167.499261 186.758089 
L 167.819559 196.309269 
L 168.139858 190.771745 
L 168.460156 193.513868 
L 168.780455 198.013887 
L 169.100753 189.96213 
L 169.421052 190.279422 
L 169.74135 196.083579 
L 170.061649 198.136354 
L 170.381947 201.73189 
L 170.702246 193.605216 
L 171.022544 195.059379 
L 171.342843 194.448609 
L 171.663141 194.555993 
L 171.98344 195.202379 
L 172.303738 194.59055 
L 172.624037 190.856706 
L 172.944335 184.81095 
L 173.264634 189.885722 
L 173.584932 188.72022 
L 173.905231 190.088818 
L 174.225529 189.253639 
L 174.545828 186.155299 
L 174.866126 191.832446 
L 175.186425 190.917585 
L 175.506723 190.629737 
L 175.827022 187.872798 
L 176.14732 191.797312 
L 176.467619 188.224274 
L 176.787917 189.17591 
L 177.108216 187.79311 
L 177.428514 183.503657 
L 177.748813 187.557487 
L 178.069111 189.351247 
L 178.389409 192.443405 
L 178.709708 191.866269 
L 179.030006 189.896952 
L 179.350305 190.625725 
L 179.670603 199.304142 
L 179.990902 191.992084 
L 180.3112 193.169942 
L 180.631499 188.487874 
L 180.951797 193.950337 
L 181.272096 197.408374 
L 182.232991 184.724444 
L 182.55329 189.832473 
L 182.873588 190.678889 
L 183.193887 188.304634 
L 183.514185 187.930589 
L 183.834484 190.750829 
L 184.795379 180.640354 
L 185.115678 185.182475 
L 185.435976 185.795941 
L 185.756275 182.766309 
L 186.076573 188.960014 
L 186.396872 186.093307 
L 186.71717 194.8968 
L 187.037469 194.327688 
L 187.357767 195.741529 
L 187.678066 194.045191 
L 187.998364 188.407858 
L 188.318663 188.64768 
L 188.638961 186.225584 
L 188.95926 192.152 
L 189.279558 188.89712 
L 189.599856 190.751269 
L 189.920155 189.289208 
L 190.240453 190.283139 
L 190.560752 194.387068 
L 190.88105 196.051195 
L 191.201349 207.060577 
L 191.841946 202.608479 
L 192.802841 191.846636 
L 193.12314 199.52302 
L 193.443438 200.394101 
L 193.763737 191.993441 
L 194.084035 190.492332 
L 194.404334 187.196269 
L 194.724632 191.449512 
L 195.044931 187.900093 
L 195.365229 197.502088 
L 195.685528 196.660588 
L 196.005826 195.356281 
L 196.326125 193.346291 
L 196.966722 200.460201 
L 197.28702 201.260025 
L 197.607319 194.189976 
L 198.568214 188.734053 
L 198.888513 191.881767 
L 199.208811 192.35188 
L 199.52911 190.227618 
L 199.849408 189.489339 
L 200.169707 184.164155 
L 200.490005 185.80219 
L 200.810304 192.497224 
L 201.130602 188.141027 
L 201.4509 188.799606 
L 201.771199 191.13263 
L 202.091497 191.390184 
L 202.411796 190.734873 
L 202.732094 188.051103 
L 203.052393 195.81769 
L 203.372691 195.001857 
L 203.69299 191.503809 
L 204.013288 194.919967 
L 204.333587 189.094039 
L 204.653885 185.825045 
L 204.974184 191.178215 
L 205.294482 190.311937 
L 205.935079 198.25372 
L 206.575676 192.038775 
L 206.895975 190.587003 
L 207.216273 197.987219 
L 207.536572 197.278099 
L 207.85687 197.346626 
L 208.497467 195.800885 
L 208.817766 192.82685 
L 209.138064 199.548109 
L 209.458363 194.648846 
L 209.778661 193.777476 
L 210.09896 190.710648 
L 210.739557 194.998361 
L 211.059855 189.407237 
L 211.380154 186.667979 
L 211.700452 192.830817 
L 212.020751 194.996704 
L 212.341049 189.934166 
L 212.661347 190.904215 
L 212.981646 191.137634 
L 213.301944 202.216058 
L 213.622243 193.013267 
L 213.942541 190.13551 
L 214.26284 189.914408 
L 214.583138 189.436615 
L 214.903437 189.405322 
L 215.223735 188.378546 
L 215.544034 189.785105 
L 215.864332 178.789158 
L 216.184631 186.437688 
L 216.504929 185.919834 
L 216.825228 188.292088 
L 217.145526 188.885297 
L 217.465825 188.064178 
L 217.786123 189.39368 
L 218.106422 194.482584 
L 218.42672 194.773844 
L 218.747019 191.723559 
L 219.067317 181.588878 
L 219.387616 188.335989 
L 219.707914 191.640085 
L 220.028213 189.512591 
L 220.348511 189.252527 
L 220.66881 192.023552 
L 220.989108 185.809449 
L 221.309407 186.66838 
L 221.629705 179.906734 
L 221.950004 178.595445 
L 222.270302 178.79349 
L 222.590601 178.69254 
L 223.231198 180.727154 
L 223.871795 197.866362 
L 224.192093 188.443595 
L 224.512391 188.107843 
L 224.83269 179.52923 
L 225.152988 187.260001 
L 225.473287 186.23117 
L 225.793585 191.002023 
L 226.113884 192.422303 
L 226.754481 183.082553 
L 227.074779 182.533784 
L 227.395078 188.110759 
L 227.715376 177.585195 
L 228.035675 182.576526 
L 228.355973 182.414485 
L 228.676272 191.365636 
L 228.99657 188.066635 
L 229.316869 178.262654 
L 229.637167 177.205824 
L 229.957466 176.758096 
L 230.598063 183.375702 
L 230.918361 183.385343 
L 231.23866 184.222785 
L 231.558958 175.397891 
L 231.879257 177.576892 
L 232.199555 175.764589 
L 232.519854 172.102776 
L 233.160451 183.199474 
L 233.801048 179.369513 
L 234.121346 179.410231 
L 234.441645 174.825323 
L 234.761943 174.307759 
L 235.082242 178.017004 
L 235.40254 183.778876 
L 235.722838 184.077509 
L 236.043137 188.471994 
L 236.363435 185.535744 
L 237.004032 191.400911 
L 237.324331 185.967606 
L 237.644629 190.113391 
L 237.964928 190.079903 
L 238.285226 190.258295 
L 238.605525 183.963634 
L 238.925823 180.122558 
L 239.246122 178.439637 
L 239.56642 174.171836 
L 239.886719 176.220788 
L 240.207017 176.124088 
L 240.847614 187.692088 
L 241.167913 182.850134 
L 241.488211 190.769375 
L 241.80851 191.573263 
L 242.769405 186.981198 
L 243.089704 189.717152 
L 243.410002 196.686039 
L 244.050599 189.884442 
L 244.370898 190.629832 
L 244.691196 183.533872 
L 245.011495 190.954787 
L 245.331793 193.126742 
L 245.652092 192.464319 
L 245.97239 189.1541 
L 246.292689 180.607093 
L 246.612987 181.421048 
L 246.933285 180.276897 
L 247.253584 183.334551 
L 247.573882 180.836942 
L 247.894181 176.47093 
L 248.534778 183.763093 
L 249.175375 170.95347 
L 249.495673 178.749416 
L 249.815972 180.774171 
L 250.13627 171.491391 
L 250.456569 177.362533 
L 250.776867 176.237942 
L 251.097166 169.364486 
L 251.417464 175.606318 
L 251.737763 177.308808 
L 252.058061 186.729747 
L 252.37836 179.894717 
L 253.018957 176.87867 
L 253.339255 177.456182 
L 253.659554 182.135365 
L 254.300151 180.202891 
L 254.620449 181.629055 
L 254.940748 175.968525 
L 255.261046 178.851839 
L 255.581345 186.710144 
L 255.901643 183.51252 
L 256.221942 184.111059 
L 256.54224 183.513324 
L 256.862539 178.457458 
L 257.182837 168.503988 
L 257.503136 167.253341 
L 257.823434 160.547543 
L 258.143733 170.005652 
L 258.464031 174.983115 
L 258.784329 176.417852 
L 259.104628 179.508349 
L 259.424926 171.392114 
L 259.745225 171.18379 
L 260.065523 179.812859 
L 260.385822 171.715726 
L 260.70612 170.226072 
L 261.026419 172.885304 
L 261.346717 171.461493 
L 261.667016 182.461637 
L 261.987314 181.723479 
L 262.307613 166.481454 
L 262.627911 173.087213 
L 262.94821 165.399891 
L 263.268508 169.623183 
L 263.588807 176.637303 
L 263.909105 175.495311 
L 264.549702 167.048486 
L 264.870001 167.744441 
L 265.190299 172.975655 
L 265.510598 169.670278 
L 265.830896 171.58689 
L 266.151195 170.139134 
L 266.471493 166.703773 
L 266.791792 160.763165 
L 267.11209 159.797052 
L 267.752687 165.796269 
L 268.072986 164.095897 
L 268.393284 165.014514 
L 268.713583 170.567079 
L 269.033881 173.905181 
L 269.674478 186.318697 
L 270.315075 177.384908 
L 270.635373 171.346632 
L 270.955672 170.86598 
L 271.27597 174.211631 
L 271.596269 173.925523 
L 271.916567 172.264506 
L 272.236866 174.706405 
L 272.557164 163.026061 
L 272.877463 174.780764 
L 273.197761 172.843983 
L 273.838358 179.994303 
L 274.158657 171.898713 
L 274.478955 169.104008 
L 274.799254 169.356454 
L 275.119552 176.561066 
L 275.439851 178.63068 
L 275.760149 178.309002 
L 276.080448 177.233507 
L 276.400746 180.350956 
L 276.721045 180.235731 
L 277.041343 178.373743 
L 277.361642 177.927144 
L 277.68194 182.758132 
L 278.002239 173.964198 
L 278.322537 173.203349 
L 278.642836 167.032262 
L 278.963134 168.840789 
L 279.283433 174.357061 
L 279.603731 184.947363 
L 279.92403 181.977998 
L 280.244328 175.988443 
L 280.564627 179.497546 
L 280.884925 179.611408 
L 281.205224 177.604136 
L 281.525522 180.696809 
L 281.84582 185.11539 
L 282.166119 175.619921 
L 282.806716 187.854432 
L 283.127014 185.60922 
L 283.447313 184.19612 
L 283.767611 186.358694 
L 284.08791 181.056743 
L 284.408208 188.701229 
L 284.728507 183.574099 
L 285.048805 187.991361 
L 285.369104 186.378055 
L 286.329999 175.93487 
L 286.650298 182.608396 
L 286.970596 182.526057 
L 287.290895 180.536522 
L 287.611193 174.94295 
L 287.931492 187.738938 
L 288.25179 186.204945 
L 288.572089 181.938152 
L 288.892387 186.177651 
L 289.212686 188.446685 
L 289.532984 189.052286 
L 289.853283 188.44451 
L 290.173581 187.574755 
L 290.814178 183.149765 
L 291.134477 186.34055 
L 291.454775 186.260443 
L 292.095372 181.781705 
L 292.415671 184.179067 
L 292.735969 183.197068 
L 293.056267 188.92278 
L 293.376566 186.031128 
L 293.696864 186.689443 
L 294.337461 180.182007 
L 294.65776 184.637105 
L 295.298357 179.279404 
L 295.618655 178.676667 
L 296.259252 182.813216 
L 296.579551 182.942487 
L 296.899849 184.000625 
L 297.220148 184.656979 
L 297.540446 184.595977 
L 297.860745 189.770857 
L 298.181043 191.461501 
L 298.501342 184.175784 
L 298.82164 190.965019 
L 299.141939 189.752544 
L 299.462237 189.310242 
L 299.782536 189.655751 
L 300.102834 189.631819 
L 300.423133 191.494685 
L 300.743431 176.899582 
L 301.06373 176.36561 
L 301.384028 175.609367 
L 301.704327 183.937219 
L 302.024625 184.859122 
L 302.344924 187.178955 
L 302.665222 188.386772 
L 302.985521 188.617576 
L 303.305819 190.810346 
L 303.626118 179.810472 
L 303.946416 176.844202 
L 304.266715 181.40421 
L 304.587013 176.171108 
L 304.907311 178.210727 
L 305.22761 185.443898 
L 305.547908 187.738507 
L 305.868207 187.847908 
L 306.188505 185.60682 
L 306.508804 178.294664 
L 306.829102 175.108763 
L 307.469699 187.106403 
L 307.789998 170.529145 
L 308.110296 166.497867 
L 308.430595 165.456841 
L 308.750893 165.102821 
L 309.071192 171.278128 
L 309.39149 165.414858 
L 309.711789 168.348001 
L 310.032087 180.033705 
L 310.352386 184.637322 
L 310.672684 185.057544 
L 310.992983 181.568714 
L 311.313281 179.515695 
L 311.953878 181.538478 
L 312.274177 175.171606 
L 312.594475 175.291998 
L 312.914774 178.181384 
L 313.235072 178.155383 
L 313.555371 177.427815 
L 313.875669 174.241861 
L 314.195968 183.836461 
L 314.516266 167.869042 
L 314.836565 176.663721 
L 315.156863 176.58221 
L 315.477162 175.401647 
L 315.79746 167.904618 
L 316.117758 169.576158 
L 316.438057 177.06503 
L 316.758355 173.685334 
L 317.078654 172.813683 
L 317.398952 182.162702 
L 317.719251 173.356835 
L 318.039549 174.169006 
L 318.359848 173.093041 
L 318.680146 167.217228 
L 319.320743 172.895574 
L 319.641042 172.416601 
L 319.96134 168.292546 
L 320.281639 179.60044 
L 320.601937 175.395396 
L 320.922236 180.089023 
L 321.242534 181.439917 
L 322.20343 190.045034 
L 322.523728 176.826359 
L 322.844027 173.436326 
L 323.164325 182.204599 
L 323.484624 185.232314 
L 324.125221 171.402507 
L 324.445519 176.193806 
L 324.765818 176.66579 
L 325.086116 176.239856 
L 325.406415 178.316973 
L 325.726713 181.621158 
L 326.047012 182.131229 
L 326.36731 181.780105 
L 326.687609 179.158705 
L 327.007907 183.396029 
L 327.328205 181.325926 
L 327.648504 177.729078 
L 327.968802 175.757449 
L 328.289101 167.038663 
L 328.609399 163.127204 
L 328.929698 163.34884 
L 329.249996 167.85336 
L 329.570295 178.097708 
L 329.890593 180.14947 
L 330.210892 180.844711 
L 330.53119 176.981443 
L 330.851489 179.227324 
L 331.171787 172.818064 
L 331.492086 179.440657 
L 331.812384 176.805977 
L 332.132683 175.786976 
L 332.452981 173.862566 
L 332.77328 179.335123 
L 333.093578 182.609212 
L 333.734175 176.7215 
L 334.054474 181.896499 
L 334.374772 174.128215 
L 334.695071 176.731999 
L 335.015369 183.15062 
L 335.335668 183.075683 
L 335.655966 180.446038 
L 335.976265 180.427852 
L 336.296563 182.409629 
L 336.616862 185.110679 
L 336.93716 179.240983 
L 337.257459 179.434648 
L 337.577757 183.061811 
L 337.898056 180.471861 
L 338.218354 185.010935 
L 338.538653 184.246009 
L 339.179249 173.772324 
L 339.499548 177.877441 
L 340.140145 169.280659 
L 340.460443 174.365006 
L 340.780742 175.787546 
L 341.10104 179.814109 
L 341.421339 179.714686 
L 341.741637 180.952317 
L 342.061936 184.538126 
L 342.382234 182.592383 
L 342.702533 186.409381 
L 343.022831 177.937429 
L 343.34313 180.019325 
L 343.663428 176.778116 
L 343.983727 178.947013 
L 344.304025 183.270806 
L 344.624324 174.691529 
L 344.944622 176.785018 
L 345.585219 189.323592 
L 345.905518 178.649899 
L 346.225816 183.527749 
L 346.546115 182.719629 
L 346.866413 184.747159 
L 347.186712 182.344653 
L 347.50701 181.964856 
L 347.827309 181.072415 
L 348.147607 178.187131 
L 348.467906 181.06171 
L 348.788204 185.453508 
L 349.108503 181.192597 
L 349.428801 186.88655 
L 349.7491 185.749233 
L 350.069398 186.628923 
L 350.389696 194.782407 
L 350.709995 185.900215 
L 351.030293 193.630917 
L 351.350592 190.377456 
L 351.67089 194.530084 
L 351.991189 195.770299 
L 352.311487 190.54656 
L 352.631786 189.735794 
L 352.952084 191.199705 
L 353.272383 187.825877 
L 353.592681 182.297245 
L 353.91298 182.899535 
L 354.233278 185.457419 
L 354.553577 178.12557 
L 354.873875 180.276796 
L 355.194174 186.536376 
L 355.514472 196.304205 
L 355.834771 192.515016 
L 356.155069 186.679208 
L 356.475368 187.462994 
L 356.795666 187.92065 
L 357.115965 192.843964 
L 357.436263 187.721328 
L 357.756562 194.502653 
L 358.07686 196.070511 
L 358.397159 190.190382 
L 358.717457 194.364492 
L 359.037756 193.079828 
L 359.358054 179.311119 
L 359.678353 188.17999 
L 359.998651 192.59262 
L 360.31895 187.783446 
L 360.639248 191.443207 
L 360.959547 192.195165 
L 361.279845 194.015981 
L 361.600144 192.08119 
L 361.920442 184.445081 
L 362.24074 188.146749 
L 362.561039 188.013595 
L 362.881337 186.547781 
L 363.201636 200.86369 
L 363.521934 192.499426 
L 363.842233 189.582472 
L 364.162531 189.666755 
L 364.48283 190.040157 
L 364.803128 195.059259 
L 365.123427 193.409353 
L 365.764024 193.717574 
L 366.084322 195.657914 
L 366.404621 193.10846 
L 367.045218 186.200346 
L 367.365516 185.771573 
L 367.685815 189.086033 
L 368.006113 186.868184 
L 368.326412 189.071381 
L 368.64671 185.371309 
L 368.967009 186.714416 
L 369.287307 192.205892 
L 369.607606 188.646773 
L 369.927904 181.225759 
L 370.248203 187.249622 
L 370.568501 182.638802 
L 370.8888 184.646836 
L 371.209098 188.774515 
L 371.529397 187.166824 
L 371.849695 182.593524 
L 372.169994 184.918905 
L 372.810591 176.156754 
L 373.130889 187.276645 
L 373.451187 185.00283 
L 373.771486 187.380359 
L 374.091784 191.533364 
L 374.732381 196.040606 
L 375.05268 184.808739 
L 375.372978 184.57889 
L 375.693277 177.12307 
L 376.013575 177.278744 
L 376.333874 179.01209 
L 376.654172 184.15863 
L 376.974471 177.921994 
L 377.294769 175.282625 
L 377.615068 186.767142 
L 377.935366 190.114381 
L 378.255665 185.738279 
L 378.575963 186.805556 
L 378.896262 183.134534 
L 379.21656 184.53364 
L 379.536859 173.309655 
L 379.857157 181.834759 
L 380.177456 180.673159 
L 380.497754 187.692059 
L 381.138351 190.558622 
L 381.45865 190.665516 
L 381.778948 184.830959 
L 382.099247 186.381301 
L 382.419545 179.478886 
L 382.739844 179.507272 
L 383.060142 189.118343 
L 383.380441 185.755969 
L 383.700739 180.938889 
L 384.021038 182.15855 
L 384.341336 181.713607 
L 384.661634 181.070022 
L 384.981933 182.568771 
L 385.302231 176.134073 
L 385.62253 174.255904 
L 385.942828 183.724549 
L 386.263127 177.506587 
L 386.583425 177.382148 
L 386.903724 175.778338 
L 387.224022 175.05578 
L 387.544321 182.647417 
L 387.864619 177.796529 
L 388.184918 175.771807 
L 388.505216 175.004174 
L 389.145813 181.409902 
L 389.466112 173.987522 
L 389.78641 183.284629 
L 390.106709 180.906509 
L 390.427007 173.821168 
L 390.747306 179.172304 
L 391.067604 173.963801 
L 391.387903 186.716547 
L 391.708201 191.40162 
L 392.0285 190.746294 
L 392.348798 193.708984 
L 392.669097 198.891183 
L 392.989395 200.664355 
L 393.309694 195.253008 
L 393.629992 195.131921 
L 393.950291 195.577061 
L 394.270589 191.940297 
L 394.590888 186.682835 
L 394.911186 179.593535 
L 395.231485 179.855029 
L 395.551783 190.776119 
L 395.872082 189.971099 
L 396.19238 193.289397 
L 396.512678 182.841185 
L 396.832977 186.213896 
L 397.153275 192.743104 
L 397.473574 186.316995 
L 397.793872 190.894621 
L 398.114171 183.763811 
L 398.434469 186.556961 
L 398.754768 179.658599 
L 399.075066 185.637764 
L 399.395365 189.375166 
L 399.715663 187.502666 
L 400.035962 192.2644 
L 400.35626 184.362977 
L 400.676559 182.165067 
L 400.996857 181.913681 
L 401.317156 181.074048 
L 401.957753 187.76088 
L 402.278051 187.247734 
L 402.59835 183.609404 
L 402.918648 175.278573 
L 403.238947 179.043599 
L 403.559245 190.741368 
L 403.879544 188.492902 
L 404.199842 190.328529 
L 404.520141 184.720765 
L 404.840439 185.934491 
L 405.160738 183.801031 
L 405.481036 184.660317 
L 405.801335 184.979245 
L 406.441932 180.439857 
L 406.76223 188.550547 
L 407.082529 186.077474 
L 407.402827 185.798035 
L 407.723125 187.41488 
L 408.043424 188.367115 
L 408.363722 183.547533 
L 408.684021 183.579901 
L 409.004319 183.372164 
L 409.324618 183.724086 
L 409.644916 183.405939 
L 409.965215 176.097775 
L 410.285513 182.978069 
L 410.605812 181.44971 
L 410.92611 183.428749 
L 411.246409 182.45243 
L 411.566707 192.017055 
L 412.207304 183.911025 
L 412.527603 181.155946 
L 413.808797 192.605173 
L 414.129095 183.57979 
L 414.449394 191.636231 
L 414.769692 194.192083 
L 415.410289 183.079516 
L 415.730588 188.039514 
L 416.050886 182.148355 
L 416.371185 185.506 
L 416.691483 184.285977 
L 417.011782 181.768817 
L 417.33208 175.766917 
L 417.652379 184.314355 
L 417.972677 181.6051 
L 418.933573 193.011639 
L 419.253871 194.234649 
L 419.574169 195.987093 
L 419.894468 196.632216 
L 420.214766 200.249325 
L 420.535065 201.435066 
L 420.855363 206.413142 
L 421.175662 198.240395 
L 421.49596 199.872218 
L 421.816259 193.632496 
L 422.136557 194.198941 
L 422.456856 187.902645 
L 423.097453 193.364267 
L 423.417751 193.738893 
L 423.73805 203.743217 
L 424.058348 199.043991 
L 424.378647 199.415382 
L 424.698945 199.378182 
L 425.019244 191.561458 
L 425.339542 196.032396 
L 425.659841 186.848982 
L 426.300438 178.062523 
L 426.620736 184.232782 
L 426.941035 185.713093 
L 427.581632 175.401788 
L 427.90193 178.137421 
L 428.222229 186.252979 
L 428.542527 191.388906 
L 428.862826 191.630571 
L 429.183124 189.221608 
L 429.503423 192.260573 
L 429.823721 183.690556 
L 430.14402 184.142061 
L 430.464318 182.218474 
L 430.784616 189.10212 
L 431.104915 198.853737 
L 431.425213 198.375401 
L 431.745512 196.990623 
L 432.06581 196.630754 
L 432.386109 194.868838 
L 432.706407 198.274593 
L 433.026706 199.705184 
L 433.347004 200.149766 
L 433.667303 191.088394 
L 433.987601 191.474039 
L 434.3079 192.038754 
L 434.628198 193.087808 
L 434.948497 191.612482 
L 435.268795 201.295817 
L 435.589094 199.430367 
L 435.909392 202.570028 
L 436.229691 204.064655 
L 436.549989 202.610125 
L 436.870288 206.481846 
L 437.190586 200.024696 
L 437.510885 198.538141 
L 437.831183 195.549702 
L 438.151482 197.691762 
L 438.47178 195.175737 
L 438.792079 199.815813 
L 439.112377 211.207864 
L 439.432676 210.576494 
L 439.752974 213.63896 
L 440.073273 212.738263 
L 440.393571 206.343381 
L 440.71387 202.23024 
L 441.034168 201.636101 
L 441.354467 203.177633 
L 441.674765 197.269392 
L 441.995064 195.887743 
L 442.315362 198.227304 
L 442.63566 199.120804 
L 442.955959 200.717619 
L 443.276257 196.440065 
L 443.916854 194.391292 
L 444.237153 194.862888 
L 444.557451 192.031127 
L 444.87775 192.310831 
L 445.198048 194.79872 
L 445.518347 194.726505 
L 445.838645 200.88753 
L 446.158944 201.259662 
L 446.479242 201.052403 
L 446.799541 206.665817 
L 447.119839 199.990186 
L 447.440138 204.068698 
L 447.760436 204.852114 
L 448.080735 203.662613 
L 448.401033 194.41384 
L 448.721332 192.627742 
L 449.04163 191.92616 
L 449.361929 192.970173 
L 449.682227 191.910579 
L 450.002526 189.19414 
L 450.322824 184.919792 
L 450.963421 187.278247 
L 451.28372 186.919395 
L 451.604018 184.786475 
L 452.244615 193.109857 
L 452.564914 193.043535 
L 452.885212 185.069642 
L 453.205511 190.403689 
L 453.525809 193.783548 
L 453.846107 201.811447 
L 454.486704 195.118547 
L 454.807003 193.905803 
L 455.127301 199.679057 
L 455.4476 198.998927 
L 455.767898 202.029102 
L 456.088197 201.274769 
L 456.408495 198.801211 
L 456.728794 204.131745 
L 457.369391 201.381503 
L 457.689689 200.696549 
L 458.330286 196.347086 
L 458.650585 201.601855 
L 458.970883 202.091593 
L 459.291182 194.730057 
L 459.61148 192.792177 
L 459.931779 196.167536 
L 460.252077 196.786301 
L 460.572376 199.836311 
L 460.892674 198.913107 
L 461.212973 201.838257 
L 461.533271 196.739042 
L 461.85357 194.260799 
L 462.173868 198.637669 
L 462.494167 198.921925 
L 462.814465 202.520563 
L 463.134764 197.531418 
L 463.455062 197.414033 
L 463.775361 190.665444 
L 464.095659 189.507061 
L 464.415958 187.034451 
L 464.736256 183.584985 
L 465.376853 190.261203 
L 465.697151 200.997617 
L 466.01745 197.368487 
L 466.337748 197.24169 
L 466.658047 201.513277 
L 466.978345 201.223423 
L 467.618942 195.702017 
L 467.939241 195.973865 
L 468.259539 206.318083 
L 468.579838 199.294464 
L 468.900136 204.185658 
L 469.220435 194.577965 
L 469.540733 195.766515 
L 469.861032 191.225853 
L 470.18133 190.500647 
L 470.501629 187.620847 
L 470.821927 187.205563 
L 471.142226 187.817605 
L 471.462524 192.860746 
L 471.782823 194.241547 
L 472.743718 209.103573 
L 473.384315 202.633849 
L 473.704614 202.491787 
L 474.024912 199.10224 
L 474.345211 200.48275 
L 474.665509 199.250571 
L 474.985808 195.364407 
L 475.306106 197.547463 
L 475.626405 192.871486 
L 475.946703 195.558473 
L 476.267002 186.720365 
L 476.5873 188.612268 
L 476.907598 184.118251 
L 477.227897 182.028303 
L 477.548195 184.278129 
L 477.868494 183.56194 
L 478.509091 181.597245 
L 478.509091 181.597245 
" clip-path="url(#pbac873aed7)" style="fill: none; stroke: #1f77b4; stroke-width: 1.5; stroke-linecap: square"/>
   </g>
   <g id="patch_3">
    <path d="M 52.4 305.152125 
L 52.4 27.952125 
" style="fill: none; stroke: #000000; stroke-width: 0.8; stroke-linejoin: miter; stroke-linecap: square"/>
   </g>
   <g id="patch_4">
    <path d="M 498.8 305.152125 
L 498.8 27.952125 
" style="fill: none; stroke: #000000; stroke-width: 0.8; stroke-linejoin: miter; stroke-linecap: square"/>
   </g>
   <g id="patch_5">
    <path d="M 52.4 305.152125 
L 498.8 305.152125 
" style="fill: none; stroke: #000000; stroke-width: 0.8; stroke-linejoin: miter; stroke-linecap: square"/>
   </g>
   <g id="patch_6">
    <path d="M 52.4 27.952125 
L 498.8 27.952125 
" style="fill: none; stroke: #000000; stroke-width: 0.8; stroke-linejoin: miter; stroke-linecap: square"/>
   </g>
   <g id="text_13">
    <!-- ML1 Meta Testing -->
    <g transform="translate(194.004313 21.952125)scale(0.216 -0.216)">
     <defs>
      <path id="STIXGeneral-Regular-4d" d="M 5530 0 
L 3738 0 
L 3738 122 
Q 4115 147 4214 265 
Q 4314 384 4314 787 
L 4314 3661 
L 2682 0 
L 2592 0 
L 979 3514 
L 979 966 
Q 979 448 1088 294 
Q 1197 141 1574 122 
L 1574 0 
L 77 0 
L 77 122 
Q 358 141 480 205 
Q 602 269 650 432 
Q 698 595 698 966 
L 698 3514 
Q 698 3878 589 3984 
Q 480 4090 90 4115 
L 90 4237 
L 1357 4237 
L 2835 1024 
L 4250 4237 
L 5523 4237 
L 5523 4115 
Q 5178 4109 5072 3993 
Q 4966 3878 4966 3520 
L 4966 717 
Q 4966 378 5072 262 
Q 5178 147 5530 122 
L 5530 0 
z
" transform="scale(0.015625)"/>
      <path id="STIXGeneral-Regular-4c" d="M 3827 1114 
L 3520 0 
L 77 0 
L 77 122 
Q 429 141 531 256 
Q 634 371 634 736 
L 634 3494 
Q 634 3872 541 3981 
Q 448 4090 77 4115 
L 77 4237 
L 1888 4237 
L 1888 4115 
Q 1498 4090 1392 3984 
Q 1286 3878 1286 3507 
L 1286 538 
Q 1286 358 1398 304 
Q 1510 250 1862 250 
L 2310 250 
Q 3085 250 3392 640 
Q 3520 813 3661 1114 
L 3827 1114 
z
" transform="scale(0.015625)"/>
     </defs>
     <use xlink:href="#STIXGeneral-Regular-4d"/>
     <use xlink:href="#STIXGeneral-Regular-4c" x="88.899994"/>
     <use xlink:href="#STIXGeneral-Regular-31" x="149.999985"/>
     <use xlink:href="#STIXGeneral-Regular-20" x="199.999969"/>
     <use xlink:href="#STIXGeneral-Regular-4d" x="224.999954"/>
     <use xlink:href="#STIXGeneral-Regular-65" x="313.899948"/>
     <use xlink:href="#STIXGeneral-Regular-74" x="358.299942"/>
     <use xlink:href="#STIXGeneral-Regular-61" x="386.09993"/>
     <use xlink:href="#STIXGeneral-Regular-20" x="430.499924"/>
     <use xlink:href="#STIXGeneral-Regular-54" x="455.499908"/>
     <use xlink:href="#STIXGeneral-Regular-65" x="516.599899"/>
     <use xlink:href="#STIXGeneral-Regular-73" x="560.999893"/>
     <use xlink:href="#STIXGeneral-Regular-74" x="599.899887"/>
     <use xlink:href="#STIXGeneral-Regular-69" x="627.699875"/>
     <use xlink:href="#STIXGeneral-Regular-6e" x="655.499863"/>
     <use xlink:href="#STIXGeneral-Regular-67" x="705.499847"/>
    </g>
   </g>
   <g id="legend_1">
    <g id="patch_7">
     <path d="M 396.76625 51.752125 
L 493.2 51.752125 
Q 496 51.752125 496 48.952125 
L 496 33.552125 
Q 496 30.752125 493.2 30.752125 
L 396.76625 30.752125 
Q 393.96625 30.752125 393.96625 33.552125 
L 393.96625 48.952125 
Q 393.96625 51.752125 396.76625 51.752125 
z
" style="fill: #ffffff; opacity: 0.8; stroke: #cccccc; stroke-linejoin: miter"/>
    </g>
    <g id="line2d_20">
     <path d="M 398.16625 40.663687 
L 405.16625 40.663687 
L 412.16625 40.663687 
" style="fill: none; stroke: #1f77b4; stroke-width: 1.5; stroke-linecap: square"/>
    </g>
    <g id="text_14">
     <!-- basketball-v2 -->
     <g transform="translate(416.36625 44.513687)scale(0.14 -0.14)">
      <defs>
       <path id="STIXGeneral-Regular-62" d="M 979 4358 
L 979 2406 
Q 1082 2650 1315 2797 
Q 1549 2944 1843 2944 
Q 2349 2944 2672 2541 
Q 2995 2138 2995 1536 
Q 2995 832 2566 384 
Q 2138 -64 1498 -64 
Q 1107 -64 774 67 
Q 442 198 442 358 
L 442 3622 
Q 442 3859 384 3926 
Q 326 3994 128 3994 
Q 83 3994 19 3981 
L 19 4090 
L 211 4147 
Q 864 4346 947 4371 
L 979 4358 
z
M 979 2035 
L 979 474 
Q 979 326 1161 233 
Q 1344 141 1600 141 
Q 1978 141 2195 416 
Q 2432 710 2432 1261 
Q 2432 1888 2182 2240 
Q 1971 2541 1613 2541 
Q 1357 2541 1168 2390 
Q 979 2240 979 2035 
z
" transform="scale(0.015625)"/>
       <path id="STIXGeneral-Regular-6b" d="M 3232 0 
L 1837 0 
L 1837 96 
L 1958 96 
Q 2093 96 2093 192 
Q 2093 250 2022 339 
L 1062 1606 
L 1062 429 
Q 1062 262 1142 185 
Q 1222 109 1414 102 
L 1542 96 
L 1542 0 
L 45 0 
L 45 96 
Q 390 154 457 214 
Q 525 275 525 525 
L 525 3610 
Q 525 3840 467 3920 
Q 410 4000 250 4000 
Q 211 4000 45 3987 
L 45 4090 
L 237 4141 
Q 621 4243 1037 4371 
L 1062 4358 
L 1062 1670 
L 1939 2451 
Q 2086 2586 2086 2675 
Q 2086 2739 2019 2761 
Q 1952 2784 1766 2790 
L 1766 2880 
L 3072 2880 
L 3072 2784 
Q 2752 2784 2505 2646 
Q 2259 2509 1690 1978 
L 1504 1805 
L 2483 563 
Q 2829 122 3232 96 
L 3232 0 
z
" transform="scale(0.015625)"/>
       <path id="STIXGeneral-Regular-6c" d="M 1645 0 
L 134 0 
L 134 96 
Q 435 122 531 221 
Q 627 320 627 589 
L 627 3590 
Q 627 3821 569 3910 
Q 512 4000 358 4000 
Q 224 4000 122 3987 
L 122 4090 
Q 730 4237 1133 4371 
L 1165 4346 
L 1165 557 
Q 1165 288 1254 201 
Q 1344 115 1645 96 
L 1645 0 
z
" transform="scale(0.015625)"/>
       <path id="STIXGeneral-Regular-2d" d="M 1824 1242 
L 250 1242 
L 250 1645 
L 1824 1645 
L 1824 1242 
z
" transform="scale(0.015625)"/>
      </defs>
      <use xlink:href="#STIXGeneral-Regular-62"/>
      <use xlink:href="#STIXGeneral-Regular-61" x="49.999985"/>
      <use xlink:href="#STIXGeneral-Regular-73" x="94.399979"/>
      <use xlink:href="#STIXGeneral-Regular-6b" x="133.299973"/>
      <use xlink:href="#STIXGeneral-Regular-65" x="183.299957"/>
      <use xlink:href="#STIXGeneral-Regular-74" x="227.699951"/>
      <use xlink:href="#STIXGeneral-Regular-62" x="255.499939"/>
      <use xlink:href="#STIXGeneral-Regular-61" x="305.499924"/>
      <use xlink:href="#STIXGeneral-Regular-6c" x="349.899918"/>
      <use xlink:href="#STIXGeneral-Regular-6c" x="377.699905"/>
      <use xlink:href="#STIXGeneral-Regular-2d" x="405.499893"/>
      <use xlink:href="#STIXGeneral-Regular-76" x="438.799881"/>
      <use xlink:href="#STIXGeneral-Regular-32" x="488.799866"/>
     </g>
    </g>
   </g>
  </g>
 </g>
 <defs>
  <clipPath id="pbac873aed7">
   <rect x="52.4" y="27.952125" width="446.4" height="277.2"/>
  </clipPath>
 </defs>
</svg>
