<?xml version="1.0" encoding="utf-8" standalone="no"?>
<!DOCTYPE svg PUBLIC "-//W3C//DTD SVG 1.1//EN"
  "http://www.w3.org/Graphics/SVG/1.1/DTD/svg11.dtd">
<svg xmlns:xlink="http://www.w3.org/1999/xlink" width="524pt" height="355.769pt" viewBox="0 0 524 355.769" xmlns="http://www.w3.org/2000/svg" version="1.1">
 <metadata>
  <rdf:RDF xmlns:dc="http://purl.org/dc/elements/1.1/" xmlns:cc="http://creativecommons.org/ns#" xmlns:rdf="http://www.w3.org/1999/02/22-rdf-syntax-ns#">
   <cc:Work>
    <dc:type rdf:resource="http://purl.org/dc/dcmitype/StillImage"/>
    <dc:date>2021-12-11T16:39:33.161994</dc:date>
    <dc:format>image/svg+xml</dc:format>
    <dc:creator>
     <cc:Agent>
      <dc:title>Matplotlib v3.5.0, https://matplotlib.org/</dc:title>
     </cc:Agent>
    </dc:creator>
   </cc:Work>
  </rdf:RDF>
 </metadata>
 <defs>
  <style type="text/css">*{stroke-linejoin: round; stroke-linecap: butt}</style>
 </defs>
 <g id="figure_1">
  <g id="patch_1">
   <path d="M 0 355.769 
L 524 355.769 
L 524 0 
L 0 0 
z
" style="fill: #ffffff"/>
  </g>
  <g id="axes_1">
   <g id="patch_2">
    <path d="M 70.4 305.152125 
L 516.8 305.152125 
L 516.8 27.952125 
L 70.4 27.952125 
z
" style="fill: #ffffff"/>
   </g>
   <g id="matplotlib.axis_1">
    <g id="xtick_1">
     <g id="line2d_1">
      <path d="M 90.436796 305.152125 
L 90.436796 27.952125 
" clip-path="url(#p313549e655)" style="fill: none; stroke: #b0b0b0; stroke-width: 0.8; stroke-linecap: square"/>
     </g>
     <g id="line2d_2">
      <defs>
       <path id="m5d7bd91790" d="M 0 0 
L 0 3.5 
" style="stroke: #000000; stroke-width: 0.8"/>
      </defs>
      <g>
       <use xlink:href="#m5d7bd91790" x="90.436796" y="305.152125" style="stroke: #000000; stroke-width: 0.8"/>
      </g>
     </g>
     <g id="text_1">
      <!-- 0.0 -->
      <g transform="translate(79.186796 324.445562)scale(0.18 -0.18)">
       <defs>
        <path id="STIXGeneral-Regular-30" d="M 3046 2112 
Q 3046 1683 2963 1302 
Q 2880 922 2717 602 
Q 2554 282 2266 96 
Q 1978 -90 1600 -90 
Q 1210 -90 915 108 
Q 621 307 461 640 
Q 301 973 227 1350 
Q 154 1728 154 2150 
Q 154 2746 301 3222 
Q 448 3699 790 4012 
Q 1133 4326 1626 4326 
Q 2253 4326 2649 3712 
Q 3046 3098 3046 2112 
z
M 2432 2080 
Q 2432 3091 2217 3625 
Q 2003 4160 1587 4160 
Q 1190 4160 979 3622 
Q 768 3085 768 2106 
Q 768 1120 979 598 
Q 1190 77 1600 77 
Q 2003 77 2217 598 
Q 2432 1120 2432 2080 
z
" transform="scale(0.015625)"/>
        <path id="STIXGeneral-Regular-2e" d="M 1158 275 
Q 1158 134 1052 32 
Q 947 -70 800 -70 
Q 653 -70 550 32 
Q 448 134 448 281 
Q 448 429 553 534 
Q 659 640 806 640 
Q 947 640 1052 531 
Q 1158 422 1158 275 
z
" transform="scale(0.015625)"/>
       </defs>
       <use xlink:href="#STIXGeneral-Regular-30"/>
       <use xlink:href="#STIXGeneral-Regular-2e" x="49.999985"/>
       <use xlink:href="#STIXGeneral-Regular-30" x="74.999969"/>
      </g>
     </g>
    </g>
    <g id="xtick_2">
     <g id="line2d_3">
      <path d="M 153.965003 305.152125 
L 153.965003 27.952125 
" clip-path="url(#p313549e655)" style="fill: none; stroke: #b0b0b0; stroke-width: 0.8; stroke-linecap: square"/>
     </g>
     <g id="line2d_4">
      <g>
       <use xlink:href="#m5d7bd91790" x="153.965003" y="305.152125" style="stroke: #000000; stroke-width: 0.8"/>
      </g>
     </g>
     <g id="text_2">
      <!-- 0.5 -->
      <g transform="translate(142.715003 324.445562)scale(0.18 -0.18)">
       <defs>
        <path id="STIXGeneral-Regular-35" d="M 2803 4358 
L 2573 3814 
Q 2534 3731 2400 3731 
L 1158 3731 
L 902 3187 
Q 1606 3053 1920 2896 
Q 2234 2739 2502 2368 
Q 2726 2061 2726 1555 
Q 2726 1094 2576 780 
Q 2426 467 2099 224 
Q 1664 -90 1011 -90 
Q 646 -90 422 19 
Q 198 128 198 307 
Q 198 550 486 550 
Q 717 550 960 352 
Q 1210 147 1414 147 
Q 1747 147 2012 480 
Q 2278 813 2278 1229 
Q 2278 1843 1850 2189 
Q 1293 2637 486 2637 
Q 410 2637 410 2688 
L 416 2720 
L 1114 4237 
L 2438 4237 
Q 2547 4237 2608 4269 
Q 2669 4301 2746 4403 
L 2803 4358 
z
" transform="scale(0.015625)"/>
       </defs>
       <use xlink:href="#STIXGeneral-Regular-30"/>
       <use xlink:href="#STIXGeneral-Regular-2e" x="49.999985"/>
       <use xlink:href="#STIXGeneral-Regular-35" x="74.999969"/>
      </g>
     </g>
    </g>
    <g id="xtick_3">
     <g id="line2d_5">
      <path d="M 217.493209 305.152125 
L 217.493209 27.952125 
" clip-path="url(#p313549e655)" style="fill: none; stroke: #b0b0b0; stroke-width: 0.8; stroke-linecap: square"/>
     </g>
     <g id="line2d_6">
      <g>
       <use xlink:href="#m5d7bd91790" x="217.493209" y="305.152125" style="stroke: #000000; stroke-width: 0.8"/>
      </g>
     </g>
     <g id="text_3">
      <!-- 1.0 -->
      <g transform="translate(206.243209 324.445562)scale(0.18 -0.18)">
       <defs>
        <path id="STIXGeneral-Regular-31" d="M 2522 0 
L 755 0 
L 755 96 
Q 1107 115 1235 227 
Q 1363 339 1363 608 
L 1363 3482 
Q 1363 3795 1171 3795 
Q 1082 3795 883 3718 
L 710 3654 
L 710 3744 
L 1856 4326 
L 1914 4307 
L 1914 486 
Q 1914 275 2042 185 
Q 2170 96 2522 96 
L 2522 0 
z
" transform="scale(0.015625)"/>
       </defs>
       <use xlink:href="#STIXGeneral-Regular-31"/>
       <use xlink:href="#STIXGeneral-Regular-2e" x="49.999985"/>
       <use xlink:href="#STIXGeneral-Regular-30" x="74.999969"/>
      </g>
     </g>
    </g>
    <g id="xtick_4">
     <g id="line2d_7">
      <path d="M 281.021415 305.152125 
L 281.021415 27.952125 
" clip-path="url(#p313549e655)" style="fill: none; stroke: #b0b0b0; stroke-width: 0.8; stroke-linecap: square"/>
     </g>
     <g id="line2d_8">
      <g>
       <use xlink:href="#m5d7bd91790" x="281.021415" y="305.152125" style="stroke: #000000; stroke-width: 0.8"/>
      </g>
     </g>
     <g id="text_4">
      <!-- 1.5 -->
      <g transform="translate(269.771415 324.445562)scale(0.18 -0.18)">
       <use xlink:href="#STIXGeneral-Regular-31"/>
       <use xlink:href="#STIXGeneral-Regular-2e" x="49.999985"/>
       <use xlink:href="#STIXGeneral-Regular-35" x="74.999969"/>
      </g>
     </g>
    </g>
    <g id="xtick_5">
     <g id="line2d_9">
      <path d="M 344.549621 305.152125 
L 344.549621 27.952125 
" clip-path="url(#p313549e655)" style="fill: none; stroke: #b0b0b0; stroke-width: 0.8; stroke-linecap: square"/>
     </g>
     <g id="line2d_10">
      <g>
       <use xlink:href="#m5d7bd91790" x="344.549621" y="305.152125" style="stroke: #000000; stroke-width: 0.8"/>
      </g>
     </g>
     <g id="text_5">
      <!-- 2.0 -->
      <g transform="translate(333.299621 324.445562)scale(0.18 -0.18)">
       <defs>
        <path id="STIXGeneral-Regular-32" d="M 3034 877 
L 2688 0 
L 186 0 
L 186 77 
L 1325 1286 
Q 1773 1754 1965 2144 
Q 2157 2534 2157 2950 
Q 2157 3379 1920 3616 
Q 1683 3853 1267 3853 
Q 922 3853 720 3673 
Q 518 3494 326 3021 
L 192 3053 
Q 301 3648 630 3987 
Q 960 4326 1523 4326 
Q 2054 4326 2380 4006 
Q 2707 3686 2707 3200 
Q 2707 2477 1888 1613 
L 832 486 
L 2330 486 
Q 2541 486 2665 569 
Q 2790 653 2944 915 
L 3034 877 
z
" transform="scale(0.015625)"/>
       </defs>
       <use xlink:href="#STIXGeneral-Regular-32"/>
       <use xlink:href="#STIXGeneral-Regular-2e" x="49.999985"/>
       <use xlink:href="#STIXGeneral-Regular-30" x="74.999969"/>
      </g>
     </g>
    </g>
    <g id="xtick_6">
     <g id="line2d_11">
      <path d="M 408.077828 305.152125 
L 408.077828 27.952125 
" clip-path="url(#p313549e655)" style="fill: none; stroke: #b0b0b0; stroke-width: 0.8; stroke-linecap: square"/>
     </g>
     <g id="line2d_12">
      <g>
       <use xlink:href="#m5d7bd91790" x="408.077828" y="305.152125" style="stroke: #000000; stroke-width: 0.8"/>
      </g>
     </g>
     <g id="text_6">
      <!-- 2.5 -->
      <g transform="translate(396.827828 324.445562)scale(0.18 -0.18)">
       <use xlink:href="#STIXGeneral-Regular-32"/>
       <use xlink:href="#STIXGeneral-Regular-2e" x="49.999985"/>
       <use xlink:href="#STIXGeneral-Regular-35" x="74.999969"/>
      </g>
     </g>
    </g>
    <g id="xtick_7">
     <g id="line2d_13">
      <path d="M 471.606034 305.152125 
L 471.606034 27.952125 
" clip-path="url(#p313549e655)" style="fill: none; stroke: #b0b0b0; stroke-width: 0.8; stroke-linecap: square"/>
     </g>
     <g id="line2d_14">
      <g>
       <use xlink:href="#m5d7bd91790" x="471.606034" y="305.152125" style="stroke: #000000; stroke-width: 0.8"/>
      </g>
     </g>
     <g id="text_7">
      <!-- 3.0 -->
      <g transform="translate(460.356034 324.445562)scale(0.18 -0.18)">
       <defs>
        <path id="STIXGeneral-Regular-33" d="M 390 3264 
L 288 3290 
Q 435 3770 748 4048 
Q 1062 4326 1542 4326 
Q 1990 4326 2265 4083 
Q 2541 3840 2541 3450 
Q 2541 2925 1946 2566 
Q 2298 2413 2477 2227 
Q 2758 1914 2758 1402 
Q 2758 890 2464 506 
Q 2246 211 1840 60 
Q 1434 -90 979 -90 
Q 262 -90 262 275 
Q 262 378 339 442 
Q 416 506 525 506 
Q 685 506 915 339 
Q 1197 141 1466 141 
Q 1818 141 2058 425 
Q 2298 710 2298 1120 
Q 2298 1856 1632 2048 
Q 1434 2112 979 2112 
L 979 2202 
Q 1338 2323 1517 2432 
Q 2035 2726 2035 3290 
Q 2035 3610 1852 3776 
Q 1670 3942 1344 3942 
Q 768 3942 390 3264 
z
" transform="scale(0.015625)"/>
       </defs>
       <use xlink:href="#STIXGeneral-Regular-33"/>
       <use xlink:href="#STIXGeneral-Regular-2e" x="49.999985"/>
       <use xlink:href="#STIXGeneral-Regular-30" x="74.999969"/>
      </g>
     </g>
    </g>
    <g id="text_8">
     <!-- Training Environment Steps -->
     <g transform="translate(191.604688 344.645562)scale(0.18 -0.18)">
      <defs>
       <path id="STIXGeneral-Regular-54" d="M 3795 3149 
L 3642 3149 
Q 3539 3674 3353 3821 
Q 3168 3968 2656 3968 
L 2278 3968 
L 2278 710 
Q 2278 346 2387 243 
Q 2496 141 2893 122 
L 2893 0 
L 1024 0 
L 1024 122 
Q 1427 147 1526 256 
Q 1626 365 1626 787 
L 1626 3968 
L 1242 3968 
Q 723 3968 540 3817 
Q 358 3667 262 3149 
L 109 3149 
L 154 4237 
L 3750 4237 
L 3795 3149 
z
" transform="scale(0.015625)"/>
       <path id="STIXGeneral-Regular-72" d="M 1024 2931 
L 1024 2342 
Q 1267 2688 1430 2816 
Q 1594 2944 1792 2944 
Q 1958 2944 2051 2854 
Q 2144 2765 2144 2605 
Q 2144 2470 2077 2393 
Q 2010 2317 1894 2317 
Q 1773 2317 1638 2445 
Q 1536 2541 1472 2541 
Q 1338 2541 1181 2355 
Q 1024 2170 1024 2016 
L 1024 576 
Q 1024 301 1133 205 
Q 1242 109 1568 96 
L 1568 0 
L 32 0 
L 32 96 
Q 339 154 412 224 
Q 486 294 486 538 
L 486 2138 
Q 486 2349 438 2435 
Q 390 2522 269 2522 
Q 166 2522 45 2496 
L 45 2598 
Q 448 2726 992 2944 
L 1024 2931 
z
" transform="scale(0.015625)"/>
       <path id="STIXGeneral-Regular-61" d="M 2829 422 
L 2829 243 
Q 2586 -64 2253 -64 
Q 1888 -64 1843 403 
L 1837 403 
Q 1427 -64 909 -64 
Q 608 -64 422 112 
Q 237 288 237 602 
Q 237 1050 685 1350 
Q 992 1555 1837 1869 
L 1837 2214 
Q 1837 2502 1699 2646 
Q 1562 2790 1338 2790 
Q 1146 2790 1018 2697 
Q 890 2605 890 2477 
Q 890 2419 909 2348 
Q 928 2278 928 2208 
Q 928 2112 841 2029 
Q 755 1946 634 1946 
Q 525 1946 441 2029 
Q 358 2112 358 2240 
Q 358 2547 685 2752 
Q 986 2944 1421 2944 
Q 1939 2944 2176 2656 
Q 2291 2522 2323 2384 
Q 2355 2246 2355 1946 
L 2355 723 
Q 2355 301 2554 301 
Q 2682 301 2829 422 
z
M 1837 813 
L 1837 1715 
Q 1248 1510 1018 1293 
Q 800 1094 800 800 
Q 800 557 921 432 
Q 1043 307 1242 307 
Q 1453 307 1613 410 
Q 1747 506 1792 589 
Q 1837 672 1837 813 
z
" transform="scale(0.015625)"/>
       <path id="STIXGeneral-Regular-69" d="M 1152 4045 
Q 1152 3904 1056 3811 
Q 960 3718 819 3718 
Q 685 3718 592 3811 
Q 499 3904 499 4045 
Q 499 4179 595 4275 
Q 691 4371 826 4371 
Q 966 4371 1059 4275 
Q 1152 4179 1152 4045 
z
M 1619 0 
L 102 0 
L 102 96 
Q 435 115 521 211 
Q 608 307 608 666 
L 608 2118 
Q 608 2342 563 2432 
Q 518 2522 397 2522 
Q 243 2522 128 2490 
L 128 2592 
L 1120 2944 
L 1146 2918 
L 1146 672 
Q 1146 314 1226 218 
Q 1306 122 1619 96 
L 1619 0 
z
" transform="scale(0.015625)"/>
       <path id="STIXGeneral-Regular-6e" d="M 3104 0 
L 1773 0 
L 1779 96 
Q 2016 115 2096 233 
Q 2176 352 2176 672 
L 2176 1946 
Q 2176 2592 1709 2592 
Q 1549 2592 1408 2515 
Q 1267 2438 1050 2227 
L 1050 461 
Q 1050 269 1136 192 
Q 1222 115 1466 96 
L 1466 0 
L 115 0 
L 115 96 
Q 358 115 435 214 
Q 512 314 512 602 
L 512 2157 
Q 512 2394 467 2483 
Q 422 2573 288 2573 
Q 160 2573 102 2547 
L 102 2656 
Q 550 2784 979 2944 
L 1030 2925 
L 1030 2426 
L 1037 2426 
Q 1491 2944 1958 2944 
Q 2323 2944 2518 2688 
Q 2714 2432 2714 1958 
L 2714 544 
Q 2714 288 2790 205 
Q 2867 122 3104 96 
L 3104 0 
z
" transform="scale(0.015625)"/>
       <path id="STIXGeneral-Regular-67" d="M 3008 2483 
L 2477 2483 
Q 2598 2208 2598 1946 
Q 2598 1453 2265 1203 
Q 1933 954 1600 954 
Q 1530 954 1357 973 
L 1235 986 
Q 1107 947 979 812 
Q 851 678 851 582 
Q 851 435 1350 410 
L 2176 371 
Q 2528 358 2739 172 
Q 2950 -13 2950 -314 
Q 2950 -685 2566 -986 
Q 2035 -1395 1286 -1395 
Q 826 -1395 502 -1212 
Q 179 -1030 179 -774 
Q 179 -595 320 -419 
Q 461 -243 806 6 
Q 602 102 534 172 
Q 467 243 467 346 
Q 467 531 762 787 
Q 909 915 1037 1043 
Q 717 1203 579 1401 
Q 442 1600 442 1901 
Q 442 2336 752 2640 
Q 1062 2944 1510 2944 
Q 1766 2944 2022 2848 
L 2163 2797 
Q 2349 2733 2515 2733 
L 3008 2733 
L 3008 2483 
z
M 973 2163 
L 973 2144 
Q 973 1683 1155 1398 
Q 1338 1114 1632 1114 
Q 1850 1114 1978 1270 
Q 2106 1427 2106 1690 
Q 2106 2112 1914 2464 
Q 1754 2765 1446 2765 
Q 1222 2765 1097 2605 
Q 973 2445 973 2163 
z
M 2771 -410 
Q 2771 -230 2595 -163 
Q 2419 -96 1978 -96 
Q 1344 -96 941 -13 
Q 749 -243 688 -348 
Q 627 -454 627 -563 
Q 627 -774 880 -902 
Q 1133 -1030 1555 -1030 
Q 2099 -1030 2435 -860 
Q 2771 -691 2771 -410 
z
" transform="scale(0.015625)"/>
       <path id="STIXGeneral-Regular-20" transform="scale(0.015625)"/>
       <path id="STIXGeneral-Regular-45" d="M 3821 1082 
L 3526 0 
L 77 0 
L 77 122 
Q 442 147 538 252 
Q 634 358 634 730 
L 634 3520 
Q 634 3878 534 3987 
Q 435 4096 77 4115 
L 77 4237 
L 3469 4237 
L 3494 3322 
L 3334 3322 
Q 3264 3750 3085 3872 
Q 2906 3994 2349 3994 
L 1510 3994 
Q 1370 3994 1328 3952 
Q 1286 3910 1286 3763 
L 1286 2355 
L 2253 2355 
Q 2656 2355 2787 2470 
Q 2918 2586 2976 2970 
L 3123 2970 
L 3123 1472 
L 2976 1472 
Q 2918 1875 2790 1984 
Q 2662 2093 2253 2093 
L 1286 2093 
L 1286 538 
Q 1286 346 1420 291 
Q 1555 237 1933 237 
L 2163 237 
Q 2848 237 3136 403 
Q 3424 570 3642 1082 
L 3821 1082 
z
" transform="scale(0.015625)"/>
       <path id="STIXGeneral-Regular-76" d="M 3053 2880 
L 3053 2784 
Q 2906 2771 2835 2688 
Q 2765 2605 2637 2285 
L 1818 230 
Q 1690 -90 1638 -90 
Q 1587 -90 1523 77 
Q 1510 96 1497 141 
Q 1485 186 1472 211 
L 704 2048 
Q 499 2534 403 2652 
Q 307 2771 122 2784 
L 122 2880 
L 1376 2880 
L 1376 2784 
Q 1210 2771 1146 2732 
Q 1082 2694 1082 2611 
Q 1082 2509 1139 2368 
L 1792 730 
L 2426 2387 
Q 2464 2483 2464 2579 
Q 2464 2758 2163 2784 
L 2163 2880 
L 3053 2880 
z
" transform="scale(0.015625)"/>
       <path id="STIXGeneral-Regular-6f" d="M 3008 1478 
Q 3008 806 2608 371 
Q 2208 -64 1568 -64 
Q 979 -64 582 368 
Q 186 800 186 1459 
Q 186 2125 582 2534 
Q 979 2944 1626 2944 
Q 2221 2944 2614 2537 
Q 3008 2131 3008 1478 
z
M 2432 1306 
Q 2432 2035 2112 2445 
Q 1856 2765 1504 2765 
Q 1171 2765 966 2493 
Q 762 2221 762 1747 
Q 762 928 1101 435 
Q 1318 115 1677 115 
Q 2029 115 2230 432 
Q 2432 749 2432 1306 
z
" transform="scale(0.015625)"/>
       <path id="STIXGeneral-Regular-6d" d="M 4960 0 
L 3565 0 
L 3565 96 
Q 3834 122 3907 208 
Q 3981 294 3981 576 
L 3981 1894 
Q 3981 2278 3869 2444 
Q 3757 2611 3488 2611 
Q 3264 2611 3107 2521 
Q 2950 2432 2803 2221 
L 2803 608 
Q 2803 301 2896 201 
Q 2989 102 3264 96 
L 3264 0 
L 1830 0 
L 1830 96 
Q 2112 115 2189 188 
Q 2266 262 2266 550 
L 2266 1901 
Q 2266 2611 1850 2611 
Q 1670 2611 1468 2531 
Q 1267 2451 1171 2336 
Q 1088 2240 1088 2227 
L 1088 448 
Q 1088 243 1177 176 
Q 1267 109 1523 96 
L 1523 0 
L 102 0 
L 102 96 
Q 371 102 460 195 
Q 550 288 550 563 
L 550 2150 
Q 550 2387 499 2480 
Q 448 2573 326 2573 
Q 230 2573 122 2547 
L 122 2656 
Q 557 2778 1011 2944 
L 1062 2925 
L 1062 2451 
L 1075 2451 
Q 1363 2752 1584 2848 
Q 1805 2944 2054 2944 
Q 2560 2944 2733 2406 
Q 3232 2944 3776 2944 
Q 4518 2944 4518 1792 
L 4518 493 
Q 4518 282 4582 202 
Q 4646 122 4794 109 
L 4960 96 
L 4960 0 
z
" transform="scale(0.015625)"/>
       <path id="STIXGeneral-Regular-65" d="M 2611 1050 
L 2714 1005 
Q 2330 -64 1376 -64 
Q 813 -64 486 329 
Q 160 723 160 1389 
Q 160 2074 525 2509 
Q 890 2944 1485 2944 
Q 2061 2944 2374 2502 
Q 2560 2246 2592 1773 
L 621 1773 
Q 646 1370 700 1158 
Q 755 947 915 730 
Q 1184 378 1626 378 
Q 1939 378 2153 531 
Q 2368 685 2611 1050 
z
M 634 1978 
L 1939 1978 
Q 1882 2381 1750 2547 
Q 1619 2714 1312 2714 
Q 1043 2714 864 2525 
Q 685 2336 634 1978 
z
" transform="scale(0.015625)"/>
       <path id="STIXGeneral-Regular-74" d="M 1702 493 
L 1786 422 
Q 1478 -64 1011 -64 
Q 448 -64 448 749 
L 448 2675 
L 109 2675 
Q 83 2694 83 2720 
Q 83 2771 192 2842 
Q 435 2982 813 3526 
Q 826 3546 874 3606 
Q 922 3667 941 3706 
Q 986 3706 986 3622 
L 986 2880 
L 1632 2880 
L 1632 2675 
L 986 2675 
L 986 845 
Q 986 538 1062 403 
Q 1139 269 1318 269 
Q 1510 269 1702 493 
z
" transform="scale(0.015625)"/>
       <path id="STIXGeneral-Regular-53" d="M 3002 2963 
L 2842 2963 
Q 2733 3360 2579 3565 
Q 2189 4064 1651 4064 
Q 1357 4064 1181 3894 
Q 1005 3725 1005 3456 
Q 1005 3328 1069 3206 
Q 1133 3085 1206 2998 
Q 1280 2912 1465 2784 
Q 1651 2656 1766 2589 
Q 1882 2522 2150 2362 
Q 2669 2061 2905 1763 
Q 3142 1466 3142 1107 
Q 3142 576 2771 243 
Q 2400 -90 1837 -90 
Q 1421 -90 1082 58 
Q 915 128 781 128 
Q 704 128 653 70 
Q 602 13 602 -83 
L 461 -83 
L 275 1274 
L 416 1274 
Q 845 141 1734 141 
Q 2074 141 2285 342 
Q 2496 544 2496 858 
Q 2496 1158 2310 1363 
Q 2003 1696 1235 2106 
Q 454 2522 454 3206 
Q 454 3718 768 4022 
Q 1082 4326 1568 4326 
Q 1907 4326 2240 4186 
Q 2413 4109 2522 4109 
Q 2688 4109 2726 4326 
L 2861 4326 
L 3002 2963 
z
" transform="scale(0.015625)"/>
       <path id="STIXGeneral-Regular-70" d="M 1018 2931 
L 1018 2438 
Q 1421 2944 1939 2944 
Q 2406 2944 2707 2560 
Q 3008 2176 3008 1581 
Q 3008 883 2621 409 
Q 2234 -64 1664 -64 
Q 1466 -64 1328 -6 
Q 1190 51 1018 211 
L 1018 -794 
Q 1018 -1094 1120 -1180 
Q 1222 -1267 1581 -1274 
L 1581 -1389 
L 32 -1389 
L 32 -1280 
Q 314 -1254 397 -1171 
Q 480 -1088 480 -838 
L 480 2157 
Q 480 2381 429 2451 
Q 378 2522 218 2522 
Q 115 2522 58 2515 
L 58 2618 
Q 506 2752 979 2944 
L 1018 2931 
z
M 1018 2138 
L 1018 563 
Q 1018 422 1238 281 
Q 1459 141 1683 141 
Q 2029 141 2243 467 
Q 2458 794 2458 1325 
Q 2458 1888 2243 2224 
Q 2029 2560 1670 2560 
Q 1446 2560 1232 2419 
Q 1018 2278 1018 2138 
z
" transform="scale(0.015625)"/>
       <path id="STIXGeneral-Regular-73" d="M 998 1926 
L 1664 1523 
Q 1984 1331 2105 1164 
Q 2227 998 2227 736 
Q 2227 416 1961 176 
Q 1696 -64 1331 -64 
Q 1030 -64 864 -6 
Q 691 51 570 51 
Q 461 51 416 -26 
L 333 -26 
L 333 979 
L 435 979 
Q 538 512 730 294 
Q 922 77 1248 77 
Q 1485 77 1632 211 
Q 1779 346 1779 550 
Q 1779 845 1440 1030 
L 1094 1222 
Q 326 1651 326 2150 
Q 326 2522 566 2730 
Q 806 2938 1210 2938 
Q 1491 2938 1638 2867 
Q 1754 2816 1818 2816 
Q 1862 2816 1920 2880 
L 1990 2880 
L 2022 2010 
L 1926 2010 
Q 1818 2445 1654 2621 
Q 1491 2797 1203 2797 
Q 986 2797 854 2688 
Q 723 2579 723 2362 
Q 723 2253 796 2128 
Q 870 2003 998 1926 
z
" transform="scale(0.015625)"/>
      </defs>
      <use xlink:href="#STIXGeneral-Regular-54"/>
      <use xlink:href="#STIXGeneral-Regular-72" x="61.099991"/>
      <use xlink:href="#STIXGeneral-Regular-61" x="94.399979"/>
      <use xlink:href="#STIXGeneral-Regular-69" x="138.799973"/>
      <use xlink:href="#STIXGeneral-Regular-6e" x="166.59996"/>
      <use xlink:href="#STIXGeneral-Regular-69" x="216.599945"/>
      <use xlink:href="#STIXGeneral-Regular-6e" x="244.399933"/>
      <use xlink:href="#STIXGeneral-Regular-67" x="294.399918"/>
      <use xlink:href="#STIXGeneral-Regular-20" x="344.399902"/>
      <use xlink:href="#STIXGeneral-Regular-45" x="369.399887"/>
      <use xlink:href="#STIXGeneral-Regular-6e" x="430.499878"/>
      <use xlink:href="#STIXGeneral-Regular-76" x="480.499863"/>
      <use xlink:href="#STIXGeneral-Regular-69" x="530.499847"/>
      <use xlink:href="#STIXGeneral-Regular-72" x="558.299835"/>
      <use xlink:href="#STIXGeneral-Regular-6f" x="591.599823"/>
      <use xlink:href="#STIXGeneral-Regular-6e" x="641.599808"/>
      <use xlink:href="#STIXGeneral-Regular-6d" x="691.599792"/>
      <use xlink:href="#STIXGeneral-Regular-65" x="769.39978"/>
      <use xlink:href="#STIXGeneral-Regular-6e" x="813.799774"/>
      <use xlink:href="#STIXGeneral-Regular-74" x="863.799759"/>
      <use xlink:href="#STIXGeneral-Regular-20" x="891.599747"/>
      <use xlink:href="#STIXGeneral-Regular-53" x="916.599731"/>
      <use xlink:href="#STIXGeneral-Regular-74" x="972.199722"/>
      <use xlink:href="#STIXGeneral-Regular-65" x="999.99971"/>
      <use xlink:href="#STIXGeneral-Regular-70" x="1044.399704"/>
      <use xlink:href="#STIXGeneral-Regular-73" x="1094.399689"/>
     </g>
    </g>
    <g id="text_9">
     <!-- 1e8 -->
     <g transform="translate(490.806875 343.645562)scale(0.18 -0.18)">
      <defs>
       <path id="STIXGeneral-Regular-38" d="M 2848 992 
Q 2848 499 2505 204 
Q 2163 -90 1587 -90 
Q 1050 -90 704 204 
Q 358 499 358 954 
Q 358 1293 524 1533 
Q 691 1773 1190 2125 
Q 710 2522 553 2765 
Q 397 3008 397 3328 
Q 397 3782 745 4054 
Q 1094 4326 1638 4326 
Q 2106 4326 2410 4060 
Q 2714 3795 2714 3411 
Q 2714 3059 2531 2848 
Q 2349 2637 1856 2374 
Q 2432 1990 2640 1689 
Q 2848 1389 2848 992 
z
M 2272 3411 
Q 2272 3744 2086 3945 
Q 1901 4147 1574 4147 
Q 1248 4147 1059 3977 
Q 870 3808 870 3513 
Q 870 3219 1059 2979 
Q 1248 2739 1670 2490 
Q 1997 2682 2134 2896 
Q 2272 3110 2272 3411 
z
M 1734 1741 
L 1357 1997 
Q 1075 1766 960 1545 
Q 845 1325 845 1011 
Q 845 576 1065 333 
Q 1286 90 1658 90 
Q 1971 90 2166 285 
Q 2362 480 2362 794 
Q 2362 1082 2214 1299 
Q 2067 1517 1734 1741 
z
" transform="scale(0.015625)"/>
      </defs>
      <use xlink:href="#STIXGeneral-Regular-31"/>
      <use xlink:href="#STIXGeneral-Regular-65" x="49.999985"/>
      <use xlink:href="#STIXGeneral-Regular-38" x="94.399979"/>
     </g>
    </g>
   </g>
   <g id="matplotlib.axis_2">
    <g id="ytick_1">
     <g id="line2d_15">
      <path d="M 70.4 293.146187 
L 516.8 293.146187 
" clip-path="url(#p313549e655)" style="fill: none; stroke: #b0b0b0; stroke-width: 0.8; stroke-linecap: square"/>
     </g>
     <g id="line2d_16">
      <defs>
       <path id="m9d7cfda1e6" d="M 0 0 
L -3.5 0 
" style="stroke: #000000; stroke-width: 0.8"/>
      </defs>
      <g>
       <use xlink:href="#m9d7cfda1e6" x="70.4" y="293.146187" style="stroke: #000000; stroke-width: 0.8"/>
      </g>
     </g>
     <g id="text_10">
      <!-- 0 -->
      <g transform="translate(54.4 299.292906)scale(0.18 -0.18)">
       <use xlink:href="#STIXGeneral-Regular-30"/>
      </g>
     </g>
    </g>
    <g id="ytick_2">
     <g id="line2d_17">
      <path d="M 70.4 234.761151 
L 516.8 234.761151 
" clip-path="url(#p313549e655)" style="fill: none; stroke: #b0b0b0; stroke-width: 0.8; stroke-linecap: square"/>
     </g>
     <g id="line2d_18">
      <g>
       <use xlink:href="#m9d7cfda1e6" x="70.4" y="234.761151" style="stroke: #000000; stroke-width: 0.8"/>
      </g>
     </g>
     <g id="text_11">
      <!-- 1000 -->
      <g transform="translate(27.4 240.90787)scale(0.18 -0.18)">
       <use xlink:href="#STIXGeneral-Regular-31"/>
       <use xlink:href="#STIXGeneral-Regular-30" x="49.999985"/>
       <use xlink:href="#STIXGeneral-Regular-30" x="99.999969"/>
       <use xlink:href="#STIXGeneral-Regular-30" x="149.999954"/>
      </g>
     </g>
    </g>
    <g id="ytick_3">
     <g id="line2d_19">
      <path d="M 70.4 176.376115 
L 516.8 176.376115 
" clip-path="url(#p313549e655)" style="fill: none; stroke: #b0b0b0; stroke-width: 0.8; stroke-linecap: square"/>
     </g>
     <g id="line2d_20">
      <g>
       <use xlink:href="#m9d7cfda1e6" x="70.4" y="176.376115" style="stroke: #000000; stroke-width: 0.8"/>
      </g>
     </g>
     <g id="text_12">
      <!-- 2000 -->
      <g transform="translate(27.4 182.522833)scale(0.18 -0.18)">
       <use xlink:href="#STIXGeneral-Regular-32"/>
       <use xlink:href="#STIXGeneral-Regular-30" x="49.999985"/>
       <use xlink:href="#STIXGeneral-Regular-30" x="99.999969"/>
       <use xlink:href="#STIXGeneral-Regular-30" x="149.999954"/>
      </g>
     </g>
    </g>
    <g id="ytick_4">
     <g id="line2d_21">
      <path d="M 70.4 117.991078 
L 516.8 117.991078 
" clip-path="url(#p313549e655)" style="fill: none; stroke: #b0b0b0; stroke-width: 0.8; stroke-linecap: square"/>
     </g>
     <g id="line2d_22">
      <g>
       <use xlink:href="#m9d7cfda1e6" x="70.4" y="117.991078" style="stroke: #000000; stroke-width: 0.8"/>
      </g>
     </g>
     <g id="text_13">
      <!-- 3000 -->
      <g transform="translate(27.4 124.137797)scale(0.18 -0.18)">
       <use xlink:href="#STIXGeneral-Regular-33"/>
       <use xlink:href="#STIXGeneral-Regular-30" x="49.999985"/>
       <use xlink:href="#STIXGeneral-Regular-30" x="99.999969"/>
       <use xlink:href="#STIXGeneral-Regular-30" x="149.999954"/>
      </g>
     </g>
    </g>
    <g id="ytick_5">
     <g id="line2d_23">
      <path d="M 70.4 59.606042 
L 516.8 59.606042 
" clip-path="url(#p313549e655)" style="fill: none; stroke: #b0b0b0; stroke-width: 0.8; stroke-linecap: square"/>
     </g>
     <g id="line2d_24">
      <g>
       <use xlink:href="#m9d7cfda1e6" x="70.4" y="59.606042" style="stroke: #000000; stroke-width: 0.8"/>
      </g>
     </g>
     <g id="text_14">
      <!-- 4000 -->
      <g transform="translate(27.4 65.752761)scale(0.18 -0.18)">
       <defs>
        <path id="STIXGeneral-Regular-34" d="M 3027 1069 
L 2368 1069 
L 2368 0 
L 1869 0 
L 1869 1069 
L 77 1069 
L 77 1478 
L 2086 4326 
L 2368 4326 
L 2368 1478 
L 3027 1478 
L 3027 1069 
z
M 1869 1478 
L 1869 3674 
L 333 1478 
L 1869 1478 
z
" transform="scale(0.015625)"/>
       </defs>
       <use xlink:href="#STIXGeneral-Regular-34"/>
       <use xlink:href="#STIXGeneral-Regular-30" x="49.999985"/>
       <use xlink:href="#STIXGeneral-Regular-30" x="99.999969"/>
       <use xlink:href="#STIXGeneral-Regular-30" x="149.999954"/>
      </g>
     </g>
    </g>
    <g id="text_15">
     <!-- Average Test Return -->
     <g transform="translate(19.476562 241.533375)rotate(-90)scale(0.18 -0.18)">
      <defs>
       <path id="STIXGeneral-Regular-41" d="M 4525 0 
L 2893 0 
L 2893 122 
Q 3149 122 3245 179 
Q 3334 224 3334 333 
Q 3334 499 3213 781 
L 2950 1382 
L 1274 1382 
L 979 653 
Q 922 506 922 384 
Q 922 237 1027 179 
Q 1133 122 1370 122 
L 1370 0 
L 96 0 
L 96 122 
Q 365 147 486 316 
Q 608 486 902 1190 
L 2221 4314 
L 2349 4314 
L 3923 710 
Q 4064 378 4176 262 
Q 4288 147 4525 122 
L 4525 0 
z
M 2861 1645 
L 2118 3405 
L 1382 1645 
L 2861 1645 
z
" transform="scale(0.015625)"/>
       <path id="STIXGeneral-Regular-52" d="M 4224 0 
L 3187 0 
L 1664 1971 
L 1306 1958 
L 1306 717 
Q 1306 352 1405 249 
Q 1504 147 1875 122 
L 1875 0 
L 109 0 
L 109 122 
Q 474 154 563 262 
Q 653 371 653 794 
L 653 3526 
Q 653 3885 563 3987 
Q 474 4090 109 4115 
L 109 4237 
L 1850 4237 
Q 2726 4237 3187 3859 
Q 3501 3603 3501 3091 
Q 3501 2221 2342 2042 
L 3622 422 
Q 3757 256 3878 198 
Q 4000 141 4224 122 
L 4224 0 
z
M 1306 3731 
L 1306 2195 
Q 1766 2202 1990 2246 
Q 2214 2291 2438 2413 
Q 2803 2618 2803 3142 
Q 2803 4000 1632 4000 
Q 1459 4000 1382 3945 
Q 1306 3891 1306 3731 
z
" transform="scale(0.015625)"/>
       <path id="STIXGeneral-Regular-75" d="M 3072 320 
L 3072 230 
Q 2573 96 2195 -58 
L 2163 -38 
L 2163 486 
L 2150 486 
Q 1747 -64 1235 -64 
Q 870 -64 662 160 
Q 454 384 454 755 
L 454 2362 
Q 454 2598 371 2688 
Q 288 2778 58 2790 
L 58 2880 
L 992 2880 
L 992 813 
Q 992 595 1123 451 
Q 1254 307 1446 307 
Q 1760 307 1984 506 
Q 2067 582 2099 649 
Q 2131 717 2131 877 
L 2131 2355 
Q 2131 2605 2041 2678 
Q 1952 2752 1658 2771 
L 1658 2880 
L 2669 2880 
L 2669 685 
Q 2669 461 2742 390 
Q 2816 320 3034 320 
L 3072 320 
z
" transform="scale(0.015625)"/>
      </defs>
      <use xlink:href="#STIXGeneral-Regular-41"/>
      <use xlink:href="#STIXGeneral-Regular-76" x="72.199982"/>
      <use xlink:href="#STIXGeneral-Regular-65" x="122.199966"/>
      <use xlink:href="#STIXGeneral-Regular-72" x="166.59996"/>
      <use xlink:href="#STIXGeneral-Regular-61" x="199.899948"/>
      <use xlink:href="#STIXGeneral-Regular-67" x="244.299942"/>
      <use xlink:href="#STIXGeneral-Regular-65" x="294.299927"/>
      <use xlink:href="#STIXGeneral-Regular-20" x="338.699921"/>
      <use xlink:href="#STIXGeneral-Regular-54" x="363.699905"/>
      <use xlink:href="#STIXGeneral-Regular-65" x="424.799896"/>
      <use xlink:href="#STIXGeneral-Regular-73" x="469.19989"/>
      <use xlink:href="#STIXGeneral-Regular-74" x="508.099884"/>
      <use xlink:href="#STIXGeneral-Regular-20" x="535.899872"/>
      <use xlink:href="#STIXGeneral-Regular-52" x="560.899857"/>
      <use xlink:href="#STIXGeneral-Regular-65" x="627.599854"/>
      <use xlink:href="#STIXGeneral-Regular-74" x="671.999847"/>
      <use xlink:href="#STIXGeneral-Regular-75" x="699.799835"/>
      <use xlink:href="#STIXGeneral-Regular-72" x="749.79982"/>
      <use xlink:href="#STIXGeneral-Regular-6e" x="783.099808"/>
     </g>
    </g>
   </g>
   <g id="line2d_25">
    <path d="M 90.690909 292.552125 
L 95.010827 292.177978 
L 95.773166 292.190845 
L 96.281391 292.029186 
L 96.535504 292.030073 
L 96.789617 291.83515 
L 97.806068 292.005521 
L 98.568407 291.660779 
L 98.822519 291.835906 
L 99.076632 291.465288 
L 99.584858 291.762679 
L 99.838971 291.5869 
L 100.093084 291.711442 
L 100.855422 291.738023 
L 101.363648 291.896556 
L 102.380099 291.295417 
L 102.634212 291.265972 
L 102.888325 291.354067 
L 103.142438 291.134445 
L 103.39655 291.261506 
L 103.650663 290.579602 
L 103.904776 290.711567 
L 104.158889 291.216251 
L 104.667114 291.209627 
L 104.921227 290.216371 
L 105.17534 290.307416 
L 105.429453 288.975279 
L 105.937679 290.284636 
L 106.191791 290.932876 
L 106.445904 290.314392 
L 106.95413 290.348491 
L 107.462356 291.330219 
L 108.224694 288.795248 
L 108.478807 287.270451 
L 108.73292 287.07749 
L 108.987033 287.09945 
L 109.495258 288.753303 
L 109.749371 289.658532 
L 110.003484 289.829959 
L 110.765822 291.175162 
L 111.019935 291.311766 
L 111.274048 291.296993 
L 111.782274 290.371477 
L 112.290499 287.662867 
L 112.544612 287.15664 
L 112.798725 287.27215 
L 113.052838 287.714114 
L 113.306951 287.584519 
L 113.561063 288.311445 
L 113.815176 287.836877 
L 114.069289 288.593329 
L 114.323402 288.507 
L 114.577515 287.955273 
L 114.831627 287.126711 
L 115.08574 286.889672 
L 115.339853 284.434449 
L 115.593966 283.773579 
L 115.848079 281.503159 
L 116.102192 280.924726 
L 116.356304 281.119247 
L 116.610417 279.831806 
L 116.86453 279.140743 
L 117.118643 279.988976 
L 117.372756 277.469231 
L 117.626869 276.879104 
L 117.880981 278.541321 
L 118.135094 275.702218 
L 118.389207 274.710975 
L 119.151546 277.832087 
L 119.405658 280.950573 
L 119.659771 278.590122 
L 119.913884 277.418841 
L 120.676222 272.60568 
L 120.930335 274.046447 
L 121.184448 273.622378 
L 121.438561 274.750171 
L 121.692674 273.296117 
L 121.946787 273.364274 
L 122.200899 271.405799 
L 122.455012 275.640095 
L 122.709125 274.980898 
L 122.963238 270.734479 
L 123.217351 271.715112 
L 123.471464 273.549661 
L 123.725576 273.870731 
L 123.979689 274.750611 
L 124.233802 272.832464 
L 124.487915 274.822568 
L 124.99614 271.118692 
L 125.504366 270.546679 
L 125.758479 271.199043 
L 126.012592 270.886433 
L 126.266705 271.996319 
L 126.520817 269.820374 
L 127.283156 272.456758 
L 127.537269 272.093257 
L 127.791382 268.847296 
L 128.045494 267.632206 
L 128.299607 269.657588 
L 128.55372 269.345843 
L 128.807833 270.474435 
L 129.061946 267.927846 
L 129.316059 271.958613 
L 129.570171 272.593265 
L 130.586623 266.038161 
L 130.840735 267.835707 
L 131.094848 268.215845 
L 131.348961 266.076525 
L 131.603074 265.032265 
L 131.857187 265.630984 
L 132.365412 268.217804 
L 132.619525 265.250872 
L 132.873638 266.97038 
L 133.127751 267.598021 
L 133.890089 265.685228 
L 134.144202 267.194079 
L 134.398315 264.471935 
L 134.652428 266.014914 
L 134.906541 266.182586 
L 135.160653 267.589571 
L 135.414766 268.231378 
L 135.668879 266.816883 
L 135.922992 266.957647 
L 136.177105 264.878403 
L 136.431218 265.874248 
L 136.68533 267.321937 
L 136.939443 262.467766 
L 137.193556 262.601144 
L 137.447669 261.230533 
L 137.955895 268.291077 
L 138.210007 267.734994 
L 138.718233 264.927958 
L 138.972346 263.845586 
L 139.226459 263.54318 
L 139.480572 263.677431 
L 139.734684 266.440475 
L 139.988797 265.37835 
L 140.24291 265.670363 
L 140.497023 267.616673 
L 140.751136 265.516111 
L 141.259361 264.741421 
L 141.513474 265.675158 
L 141.767587 265.193758 
L 142.0217 265.902692 
L 142.275813 262.401626 
L 142.784038 260.62761 
L 143.292264 265.082801 
L 143.546377 262.66637 
L 143.80049 264.232712 
L 144.054602 263.301602 
L 144.308715 261.659008 
L 144.562828 261.080713 
L 144.816941 262.69263 
L 145.579279 258.404486 
L 145.833392 255.155573 
L 146.849843 262.205823 
L 147.612182 256.254336 
L 147.866295 256.752739 
L 148.37452 258.334972 
L 148.628633 254.556977 
L 148.882746 253.863896 
L 149.136859 250.829765 
L 149.645085 254.513383 
L 149.899197 255.848568 
L 150.15331 254.176193 
L 150.407423 255.537773 
L 150.661536 258.083108 
L 150.915649 256.201191 
L 151.169761 263.26362 
L 151.423874 263.87943 
L 151.677987 258.69098 
L 151.9321 256.619508 
L 152.186213 256.408591 
L 152.440326 252.169851 
L 152.694438 251.073632 
L 152.948551 250.751883 
L 153.202664 252.438852 
L 153.456777 252.487781 
L 153.71089 253.480641 
L 153.965003 253.320481 
L 154.219115 253.436579 
L 154.727341 251.655196 
L 154.981454 256.547396 
L 155.235567 251.183268 
L 155.48968 250.332982 
L 155.743792 251.882094 
L 156.252018 249.814918 
L 156.760244 244.138531 
L 157.014356 247.697384 
L 157.522582 243.474841 
L 157.776695 251.409441 
L 158.030808 248.420199 
L 158.284921 249.467539 
L 158.539033 248.577668 
L 159.047259 245.101374 
L 159.301372 246.66481 
L 159.809598 243.851976 
L 160.06371 244.445545 
L 160.317823 251.272043 
L 160.571936 246.833312 
L 160.826049 244.937797 
L 161.080162 244.762066 
L 161.334274 238.877303 
L 161.588387 238.21394 
L 162.096613 231.538848 
L 162.350726 235.241769 
L 162.604839 235.974561 
L 162.858951 238.987426 
L 163.113064 239.647224 
L 163.367177 241.979829 
L 163.62129 241.932995 
L 163.875403 240.502425 
L 164.129516 243.178935 
L 164.383628 242.77301 
L 164.637741 238.791506 
L 164.891854 237.209727 
L 165.145967 237.560232 
L 165.40008 236.597424 
L 165.908305 238.941105 
L 166.416531 233.559632 
L 166.670644 237.719972 
L 166.924757 238.312378 
L 167.178869 234.473589 
L 167.432982 236.049431 
L 167.687095 236.637745 
L 167.941208 232.10021 
L 168.195321 234.46255 
L 168.449434 233.135801 
L 168.703546 233.416212 
L 168.957659 230.08704 
L 169.211772 229.241258 
L 169.465885 225.054412 
L 169.974111 230.259426 
L 170.228223 227.304632 
L 170.482336 228.300486 
L 170.736449 227.20205 
L 170.990562 227.485015 
L 171.498787 231.111616 
L 172.007013 230.564057 
L 172.515239 221.675853 
L 172.769352 222.76433 
L 173.53169 216.540583 
L 173.785803 218.524797 
L 174.039916 214.239699 
L 174.548141 216.845789 
L 175.056367 206.633516 
L 175.31048 211.285054 
L 175.564593 212.331359 
L 175.818706 209.033569 
L 176.072818 215.558265 
L 176.326931 218.980074 
L 176.835157 208.659177 
L 177.08927 208.593804 
L 177.597495 216.041302 
L 177.851608 210.426032 
L 178.359834 207.117736 
L 178.613947 209.528595 
L 178.868059 204.793796 
L 179.122172 206.695778 
L 179.376285 202.895258 
L 179.630398 204.391474 
L 179.884511 200.425026 
L 180.138624 204.040543 
L 180.392736 201.938468 
L 180.646849 198.574227 
L 180.900962 202.527563 
L 181.155075 196.127418 
L 181.409188 194.17581 
L 181.917413 199.909821 
L 182.425639 192.046736 
L 182.933865 183.20174 
L 183.44209 191.276086 
L 183.696203 188.992841 
L 183.950316 192.335042 
L 184.204429 191.905613 
L 184.458542 186.743698 
L 184.712654 186.19066 
L 184.966767 188.615081 
L 185.22088 189.888786 
L 185.474993 186.939837 
L 185.729106 186.612054 
L 185.983219 184.837523 
L 186.237331 187.79157 
L 186.491444 183.285509 
L 186.745557 181.492608 
L 187.253783 172.33769 
L 187.507895 168.779251 
L 188.016121 173.384167 
L 188.270234 170.513516 
L 188.524347 172.877189 
L 188.77846 171.762935 
L 189.032572 167.341543 
L 189.286685 168.210094 
L 189.794911 167.105609 
L 190.049024 161.577207 
L 190.303137 159.937071 
L 190.557249 163.051585 
L 190.811362 162.869165 
L 191.065475 161.041899 
L 191.573701 165.64862 
L 191.827814 169.50557 
L 192.336039 158.641181 
L 192.590152 157.288402 
L 192.844265 158.287383 
L 193.098378 162.465541 
L 193.35249 159.472086 
L 193.606603 159.864483 
L 193.860716 158.704017 
L 194.114829 159.771952 
L 194.368942 163.580084 
L 194.623055 159.657186 
L 194.877167 159.359102 
L 195.385393 154.360172 
L 195.639506 152.820755 
L 195.893619 154.543805 
L 196.147732 157.043568 
L 196.401844 150.999559 
L 196.655957 158.735419 
L 196.91007 155.733147 
L 197.164183 159.361005 
L 197.418296 154.960611 
L 197.672408 154.506256 
L 197.926521 150.307358 
L 198.434747 147.259097 
L 198.68886 149.47424 
L 198.942973 149.504276 
L 199.197085 149.942197 
L 199.451198 144.58543 
L 199.705311 143.652884 
L 199.959424 139.049492 
L 200.213537 141.412494 
L 200.46765 142.037046 
L 200.721762 140.72145 
L 200.975875 142.11498 
L 201.484101 139.017375 
L 201.738214 140.125813 
L 201.992327 139.226829 
L 202.246439 139.066878 
L 202.500552 137.408156 
L 202.754665 136.971652 
L 203.008778 149.5147 
L 203.771116 138.312265 
L 204.025229 134.293321 
L 204.279342 143.891255 
L 204.533455 143.038714 
L 205.04168 133.872135 
L 205.295793 135.88244 
L 205.549906 133.251602 
L 205.804019 138.629956 
L 206.058132 136.824406 
L 206.312245 138.298318 
L 206.566357 133.532094 
L 206.82047 136.931384 
L 207.074583 130.756645 
L 207.328696 135.238581 
L 207.582809 131.385973 
L 207.836922 135.161539 
L 208.091034 146.318172 
L 208.345147 145.576465 
L 208.59926 145.976751 
L 209.361598 135.632942 
L 209.615711 137.555536 
L 210.123937 119.513749 
L 210.37805 119.41218 
L 210.632163 121.956682 
L 210.886275 122.859416 
L 211.140388 131.670476 
L 211.394501 129.44054 
L 211.648614 117.403607 
L 211.902727 120.733122 
L 212.15684 119.740725 
L 212.410952 120.425356 
L 212.665065 125.337398 
L 212.919178 125.78291 
L 213.173291 120.997779 
L 213.427404 127.17068 
L 213.935629 120.173928 
L 214.189742 121.214586 
L 214.443855 125.855284 
L 214.697968 119.64486 
L 214.952081 121.183694 
L 215.206193 113.87167 
L 215.460306 115.234681 
L 215.714419 127.228085 
L 216.222645 116.286295 
L 216.73087 104.096039 
L 216.984983 105.357269 
L 217.239096 109.823892 
L 217.747322 109.919273 
L 218.001435 103.788019 
L 218.255547 112.693944 
L 218.50966 116.668119 
L 218.763773 111.530431 
L 219.017886 116.25876 
L 219.271999 109.263633 
L 219.526111 111.634308 
L 220.28845 100.757892 
L 220.542563 104.167239 
L 220.796676 99.146496 
L 221.050788 103.700768 
L 221.304901 102.962421 
L 221.559014 103.039056 
L 221.813127 103.785111 
L 222.06724 97.876557 
L 222.321353 96.75474 
L 222.575465 93.833085 
L 222.829578 97.744467 
L 223.083691 98.529639 
L 223.337804 98.803841 
L 223.591917 94.955958 
L 223.846029 95.668518 
L 224.100142 92.732711 
L 224.354255 100.512202 
L 224.608368 99.310257 
L 225.624819 91.322467 
L 225.878932 85.806401 
L 226.133045 89.952324 
L 226.387158 86.76828 
L 226.641271 87.526871 
L 227.149496 82.397691 
L 227.403609 84.105104 
L 227.911835 78.617672 
L 228.165948 79.217161 
L 228.42006 76.273191 
L 228.674173 79.823291 
L 228.928286 81.378612 
L 229.182399 81.596422 
L 229.690624 87.837414 
L 229.944737 81.03208 
L 230.19885 81.601979 
L 230.707076 70.060587 
L 230.961189 72.915563 
L 231.469414 85.214726 
L 231.723527 81.328043 
L 231.97764 83.906602 
L 232.231753 88.316156 
L 232.739978 76.427563 
L 232.994091 79.860077 
L 233.248204 78.992335 
L 233.502317 74.087372 
L 234.010542 69.781487 
L 234.264655 68.711348 
L 234.518768 74.110467 
L 234.772881 65.567691 
L 235.281107 69.028962 
L 235.535219 66.78995 
L 235.789332 71.509475 
L 236.043445 72.035311 
L 236.297558 65.812282 
L 236.551671 69.865318 
L 236.805784 68.935399 
L 237.059896 70.618338 
L 237.314009 68.59375 
L 237.568122 73.623785 
L 237.822235 82.020299 
L 238.076348 82.860095 
L 238.330461 80.514874 
L 238.838686 74.804352 
L 239.346912 71.633597 
L 239.601025 68.861644 
L 239.855137 70.672023 
L 240.10925 73.819715 
L 240.871589 64.504919 
L 241.125702 64.118509 
L 241.379814 72.017879 
L 241.633927 75.652137 
L 242.142153 69.235869 
L 242.396266 68.567189 
L 242.650379 64.334439 
L 242.904491 71.142348 
L 243.158604 66.910128 
L 243.412717 68.041749 
L 243.66683 68.658768 
L 243.920943 66.027281 
L 244.175056 72.539757 
L 244.683281 59.707219 
L 244.937394 63.92621 
L 245.44562 66.175565 
L 245.699732 63.013994 
L 245.953845 62.867497 
L 246.716184 67.2588 
L 246.970297 62.491155 
L 247.224409 60.111201 
L 247.478522 67.012606 
L 247.732635 65.733927 
L 247.986748 61.964086 
L 248.240861 66.213556 
L 248.749086 65.555978 
L 249.003199 69.680411 
L 249.257312 65.181502 
L 249.511425 62.832524 
L 249.765538 61.988314 
L 250.01965 62.050706 
L 250.273763 60.518736 
L 251.036102 67.539173 
L 251.290215 65.158377 
L 251.544327 66.002897 
L 251.79844 60.018778 
L 252.052553 69.004272 
L 252.306666 63.68858 
L 252.560779 65.559214 
L 252.814892 68.857076 
L 253.57723 59.521711 
L 253.831343 72.409782 
L 254.085456 78.222879 
L 254.339569 70.645291 
L 254.847794 74.58442 
L 255.101907 70.181256 
L 255.610133 66.328737 
L 255.864245 60.124366 
L 256.118358 60.099347 
L 256.372471 59.405564 
L 256.626584 57.433282 
L 256.880697 58.38721 
L 257.13481 57.72007 
L 257.388922 54.495393 
L 257.897148 57.972577 
L 258.151261 53.2283 
L 258.405374 52.742942 
L 258.659487 49.035963 
L 259.421825 59.649213 
L 259.930051 50.697574 
L 260.184163 58.20836 
L 260.438276 60.019307 
L 260.692389 62.884829 
L 261.200615 57.513463 
L 261.454728 53.029314 
L 261.70884 52.434859 
L 262.471179 60.199093 
L 262.725292 58.465106 
L 262.979405 59.197926 
L 263.233517 58.327637 
L 263.741743 55.40012 
L 263.995856 58.292182 
L 264.249969 57.295638 
L 264.504082 54.752835 
L 264.758194 60.693983 
L 265.26642 54.794264 
L 265.520533 57.126673 
L 265.774646 56.778558 
L 266.282871 53.41927 
L 266.536984 51.365159 
L 267.04521 55.23436 
L 267.299323 55.7577 
L 267.553435 55.919555 
L 267.807548 58.108386 
L 268.061661 55.321561 
L 268.315774 59.288195 
L 268.569887 55.310558 
L 268.824 59.925299 
L 269.078112 58.626503 
L 269.332225 59.48606 
L 269.586338 63.336122 
L 269.840451 61.984568 
L 270.094564 65.048343 
L 270.602789 59.624453 
L 270.856902 56.02821 
L 271.111015 59.378272 
L 271.365128 58.477427 
L 271.873353 55.577178 
L 272.127466 55.844351 
L 272.381579 56.64928 
L 272.635692 59.570604 
L 272.889805 60.529551 
L 273.143918 60.371343 
L 273.39803 65.324129 
L 273.906256 59.939469 
L 274.160369 54.976402 
L 274.414482 52.574805 
L 274.668595 53.35338 
L 275.17682 57.721184 
L 275.430933 54.81564 
L 275.685046 55.661775 
L 275.939159 52.258839 
L 276.193271 52.426335 
L 276.447384 54.070177 
L 276.701497 54.403561 
L 276.95561 51.514573 
L 277.209723 54.227343 
L 277.717948 48.989313 
L 278.226174 52.996801 
L 278.480287 58.155735 
L 278.7344 60.03269 
L 278.988513 59.728572 
L 279.242625 57.692023 
L 279.496738 53.070368 
L 279.750851 54.761162 
L 280.004964 57.512576 
L 280.259077 55.718394 
L 280.51319 57.167721 
L 280.767302 57.441984 
L 281.021415 53.781684 
L 281.275528 53.814694 
L 281.529641 55.651433 
L 281.783754 53.447737 
L 282.546092 50.690574 
L 282.800205 58.594074 
L 283.054318 56.61739 
L 283.562543 55.670013 
L 283.816656 51.532521 
L 284.070769 52.680246 
L 284.324882 51.826655 
L 284.833108 48.619732 
L 285.08722 51.901622 
L 285.341333 50.323033 
L 285.595446 51.391896 
L 285.849559 50.147092 
L 286.103672 50.312214 
L 286.357784 53.495277 
L 286.611897 54.250961 
L 286.86601 56.130831 
L 287.120123 54.370176 
L 287.374236 56.029879 
L 287.628349 56.483062 
L 287.882461 54.215673 
L 288.136574 56.09972 
L 288.390687 53.561339 
L 288.6448 58.166965 
L 288.898913 58.073962 
L 289.153026 56.479777 
L 289.407138 52.983465 
L 289.661251 54.568537 
L 289.915364 54.115688 
L 290.169477 53.062201 
L 290.42359 54.460294 
L 290.677703 51.804195 
L 290.931815 53.037387 
L 291.185928 50.275499 
L 291.440041 52.349422 
L 291.948267 54.788438 
L 292.202379 56.48231 
L 292.456492 53.641201 
L 292.710605 56.436625 
L 292.964718 55.510711 
L 293.218831 55.677694 
L 293.472944 54.9579 
L 293.981169 59.696268 
L 294.235282 56.378517 
L 294.489395 55.220879 
L 294.743508 55.63157 
L 294.997621 53.611795 
L 295.251733 53.667421 
L 295.505846 50.307977 
L 295.759959 49.944675 
L 296.014072 50.369419 
L 296.268185 51.708244 
L 296.522297 49.456096 
L 297.030523 57.659876 
L 297.284636 57.792709 
L 297.538749 61.700169 
L 297.792862 62.968964 
L 298.046974 61.833605 
L 298.301087 63.533319 
L 298.5552 61.905026 
L 298.809313 58.713308 
L 299.317539 58.06543 
L 299.571651 63.838328 
L 299.825764 64.825441 
L 300.079877 70.610983 
L 300.842216 56.271076 
L 301.096328 53.700198 
L 301.350441 49.478403 
L 301.604554 54.097532 
L 301.858667 52.181416 
L 302.11278 52.389004 
L 302.366892 50.330766 
L 302.621005 50.191604 
L 302.875118 48.650419 
L 303.129231 49.067765 
L 303.383344 52.387744 
L 303.637457 51.280671 
L 304.145682 53.51562 
L 304.399795 55.63188 
L 304.653908 61.976322 
L 304.908021 61.642108 
L 305.416246 54.66894 
L 305.670359 54.040333 
L 305.924472 53.099411 
L 306.178585 54.777413 
L 306.432698 52.534597 
L 306.68681 53.946203 
L 306.940923 54.401577 
L 307.195036 54.259788 
L 307.449149 51.29993 
L 307.703262 51.307165 
L 307.957375 51.177495 
L 308.211487 47.549141 
L 308.4656 49.268885 
L 308.719713 47.102132 
L 308.973826 48.45397 
L 309.227939 46.433182 
L 309.482052 49.988685 
L 309.736164 50.367192 
L 309.990277 52.607251 
L 310.24439 59.254421 
L 310.498503 59.245007 
L 311.006729 55.37747 
L 311.260841 53.522452 
L 311.514954 50.585126 
L 311.769067 49.112466 
L 312.02318 55.729506 
L 312.531405 48.970275 
L 312.785518 54.012021 
L 313.293744 49.979967 
L 313.547857 48.805943 
L 314.056082 50.505342 
L 314.310195 50.046183 
L 314.564308 47.731613 
L 315.072534 49.504786 
L 315.326647 47.294064 
L 315.580759 54.66963 
L 315.834872 50.101228 
L 316.088985 51.734349 
L 316.343098 52.04638 
L 316.851324 46.494397 
L 317.105436 45.338094 
L 317.359549 45.751358 
L 317.613662 46.927525 
L 317.867775 45.302624 
L 318.121888 49.236594 
L 318.376 48.572705 
L 318.630113 46.420277 
L 319.138339 44.73555 
L 319.392452 46.007106 
L 319.646565 45.075539 
L 319.900677 48.054754 
L 320.15479 48.652369 
L 320.408903 47.092716 
L 320.663016 51.232893 
L 320.917129 48.507669 
L 321.171242 49.166188 
L 321.425354 46.836098 
L 321.679467 47.359048 
L 321.93358 47.289142 
L 322.187693 47.91256 
L 322.441806 45.803228 
L 322.695918 48.450157 
L 322.950031 45.894333 
L 323.458257 48.246307 
L 323.71237 47.330573 
L 324.220595 55.838522 
L 324.728821 48.354586 
L 325.237047 43.926754 
L 325.49116 44.991014 
L 325.745272 43.996181 
L 326.507611 52.124767 
L 326.761724 49.269115 
L 327.015837 49.326478 
L 327.269949 51.29173 
L 327.778175 47.131287 
L 328.032288 48.85295 
L 328.540513 46.328269 
L 328.794626 43.51136 
L 329.302852 44.3658 
L 329.556965 42.686242 
L 329.811078 45.640844 
L 330.06519 44.930633 
L 330.319303 44.652989 
L 330.573416 46.497482 
L 330.827529 45.272505 
L 331.081642 45.395586 
L 331.335755 42.999941 
L 331.84398 41.860565 
L 332.098093 42.604046 
L 332.352206 46.593799 
L 332.860431 44.249133 
L 333.114544 43.606529 
L 333.368657 46.191089 
L 333.62277 44.432727 
L 333.876883 53.044699 
L 334.130996 52.116746 
L 334.639221 48.17413 
L 335.40156 55.384903 
L 335.655673 52.498298 
L 335.909785 51.335156 
L 336.163898 50.917188 
L 336.672124 44.485962 
L 336.926237 47.686104 
L 337.18035 48.310247 
L 337.434462 48.593312 
L 337.688575 47.085859 
L 338.196801 48.643325 
L 338.450914 48.676058 
L 338.705026 45.46696 
L 338.959139 45.427007 
L 339.213252 47.770777 
L 339.467365 52.467007 
L 339.721478 50.197315 
L 339.975591 50.636246 
L 340.229703 46.84384 
L 340.483816 46.806538 
L 340.992042 44.168501 
L 341.246155 43.57164 
L 341.500268 45.579645 
L 341.75438 45.995316 
L 342.008493 45.432174 
L 342.262606 46.300555 
L 342.770832 44.763678 
L 343.024944 44.648136 
L 343.279057 45.451178 
L 343.53317 43.699341 
L 343.787283 45.063145 
L 344.041396 44.807028 
L 344.295509 44.108644 
L 344.549621 44.600831 
L 345.057847 43.29408 
L 345.31196 44.598148 
L 345.566073 44.672955 
L 345.820186 44.540894 
L 346.074298 43.526311 
L 346.582524 43.563086 
L 346.836637 44.136907 
L 347.09075 43.57614 
L 347.344863 43.584152 
L 347.598975 44.142032 
L 348.107201 44.001324 
L 348.361314 43.677506 
L 348.615427 42.939562 
L 348.869539 43.505921 
L 349.123652 45.176881 
L 349.631878 43.537016 
L 349.885991 41.879166 
L 350.140104 42.525451 
L 350.394216 44.320484 
L 350.648329 44.294711 
L 350.902442 43.7133 
L 351.156555 45.929176 
L 351.410668 43.925361 
L 351.664781 46.440453 
L 351.918893 44.458916 
L 352.427119 42.729198 
L 352.681232 42.754151 
L 352.935345 44.363775 
L 353.189458 43.382203 
L 353.44357 42.861372 
L 353.697683 43.125334 
L 353.951796 46.23056 
L 354.460022 43.772059 
L 354.714134 44.099063 
L 354.968247 43.206693 
L 355.22236 43.194684 
L 355.730586 43.761915 
L 355.984699 43.507975 
L 356.238811 43.664983 
L 356.492924 43.475941 
L 356.747037 45.833126 
L 357.00115 45.4626 
L 357.255263 44.009455 
L 357.509376 43.475152 
L 357.763488 43.438787 
L 358.017601 43.944246 
L 358.77994 42.64494 
L 359.034052 42.479976 
L 359.288165 45.005257 
L 359.542278 43.95657 
L 359.796391 46.39743 
L 360.050504 44.301953 
L 360.304617 43.881237 
L 360.558729 42.831487 
L 360.812842 42.61974 
L 361.066955 42.89832 
L 361.321068 43.718912 
L 361.575181 42.633823 
L 361.829294 45.343056 
L 362.083406 43.570245 
L 362.337519 43.559975 
L 363.099858 42.917746 
L 363.353971 42.377358 
L 363.608083 42.506681 
L 363.862196 42.192981 
L 364.116309 43.389023 
L 364.624535 43.927699 
L 364.878647 42.954913 
L 365.13276 43.384472 
L 365.386873 42.895016 
L 365.640986 43.80469 
L 365.895099 43.341209 
L 366.403324 42.058483 
L 366.657437 42.594589 
L 366.91155 42.785856 
L 367.165663 43.847583 
L 367.419776 43.009963 
L 367.673889 43.113809 
L 367.928001 42.798496 
L 368.182114 44.511725 
L 368.436227 45.455654 
L 368.69034 49.340562 
L 368.944453 49.730877 
L 369.452678 45.112177 
L 369.960904 48.451028 
L 370.215017 47.517606 
L 370.46913 47.882853 
L 370.977355 46.217729 
L 371.231468 46.212407 
L 371.485581 46.873629 
L 371.739694 46.148833 
L 371.993807 45.903205 
L 372.502032 43.322673 
L 372.756145 43.984152 
L 373.264371 43.093222 
L 373.518484 43.532183 
L 374.026709 42.707193 
L 374.534935 47.307294 
L 374.789048 44.752642 
L 375.04316 44.184595 
L 375.551386 42.506089 
L 375.805499 45.809522 
L 376.313725 47.780659 
L 377.076063 45.524784 
L 377.330176 45.545345 
L 377.584289 45.077795 
L 377.838402 43.822361 
L 378.346627 45.262955 
L 378.60074 48.844471 
L 378.854853 47.823129 
L 379.108966 47.471871 
L 379.363078 48.453141 
L 379.617191 47.74588 
L 380.125417 45.09337 
L 380.37953 46.111561 
L 380.887755 46.31309 
L 381.141868 44.733858 
L 381.395981 44.859406 
L 381.650094 46.626783 
L 381.904207 47.084236 
L 382.15832 46.509034 
L 382.412432 45.316896 
L 382.666545 46.819344 
L 382.920658 44.943978 
L 383.174771 44.796695 
L 383.428884 45.767422 
L 383.682997 44.990033 
L 383.937109 45.797888 
L 384.445335 42.261203 
L 384.699448 44.529009 
L 384.953561 45.775522 
L 385.207673 45.560658 
L 385.461786 43.685115 
L 385.715899 43.467243 
L 385.970012 44.535888 
L 386.224125 43.79092 
L 386.478238 41.972918 
L 386.73235 42.730048 
L 386.986463 41.619516 
L 387.240576 42.490548 
L 387.494689 41.188202 
L 387.748802 42.347355 
L 388.002915 44.141911 
L 388.257027 43.950218 
L 388.51114 44.160038 
L 388.765253 46.689751 
L 389.273479 42.730695 
L 389.527592 42.619965 
L 389.781704 46.39346 
L 390.035817 44.74657 
L 390.28993 45.619482 
L 390.544043 47.213636 
L 390.798156 47.408968 
L 391.560494 42.394004 
L 391.814607 42.766744 
L 392.06872 42.115878 
L 392.322833 45.760095 
L 392.576945 47.171541 
L 392.831058 44.12488 
L 393.085171 44.956241 
L 393.339284 43.428858 
L 393.593397 45.099022 
L 393.84751 44.066151 
L 394.101622 50.979666 
L 394.609848 45.438571 
L 394.863961 43.819209 
L 395.118074 49.526738 
L 395.372186 48.527106 
L 395.626299 44.932038 
L 396.134525 48.90937 
L 396.388638 48.417879 
L 396.642751 44.978961 
L 396.896863 44.283565 
L 397.150976 43.966472 
L 397.405089 43.00681 
L 397.659202 43.716271 
L 397.913315 42.493756 
L 398.167428 46.766969 
L 398.42154 47.686993 
L 398.675653 45.360272 
L 398.929766 44.789954 
L 399.183879 43.401873 
L 399.437992 44.957087 
L 399.692105 45.154027 
L 399.946217 44.251685 
L 400.20033 44.568882 
L 400.708556 42.349882 
L 400.962669 42.523094 
L 401.216781 41.554641 
L 401.470894 42.806369 
L 401.725007 46.646716 
L 401.97912 46.069816 
L 402.233233 46.691431 
L 402.487346 44.569135 
L 402.741458 44.721824 
L 402.995571 45.270721 
L 403.249684 46.233789 
L 403.503797 45.040909 
L 403.75791 46.021209 
L 404.012023 44.532707 
L 404.266135 43.781885 
L 404.520248 42.467259 
L 404.774361 42.043686 
L 405.282587 42.943483 
L 405.790812 42.829632 
L 406.044925 42.437109 
L 406.553151 45.508815 
L 407.061376 43.330133 
L 407.315489 43.471385 
L 407.569602 43.32824 
L 407.823715 42.765432 
L 408.077828 42.80367 
L 408.331941 42.65002 
L 408.586053 44.255512 
L 408.840166 43.779901 
L 409.348392 41.919132 
L 409.602505 41.371239 
L 409.856618 41.578551 
L 410.11073 41.371478 
L 410.364843 42.010812 
L 410.618956 40.552125 
L 410.873069 45.641275 
L 411.127182 44.797381 
L 411.381294 42.81932 
L 411.635407 42.842354 
L 411.88952 47.06756 
L 412.143633 47.630159 
L 412.397746 45.599806 
L 412.651859 46.101729 
L 412.905971 45.149987 
L 413.160084 45.986216 
L 413.414197 44.094611 
L 413.922423 42.496329 
L 414.176536 42.376156 
L 414.430648 42.545769 
L 414.684761 42.888797 
L 414.938874 44.010814 
L 415.192987 43.056245 
L 415.955325 46.155249 
L 416.209438 45.761172 
L 416.463551 44.097064 
L 416.717664 45.668293 
L 416.971777 45.121368 
L 417.225889 47.461956 
L 417.734115 45.501169 
L 417.988228 46.331997 
L 418.242341 44.380843 
L 419.004679 42.767194 
L 419.512905 45.829681 
L 419.767018 44.413833 
L 420.021131 44.764832 
L 420.275243 44.616843 
L 420.529356 43.462579 
L 420.783469 43.982058 
L 421.037582 42.569448 
L 421.291695 45.137657 
L 421.545807 45.380326 
L 421.79992 46.499531 
L 422.054033 45.955745 
L 422.308146 49.321363 
L 422.562259 45.989991 
L 423.070484 44.459019 
L 423.324597 50.244918 
L 423.57871 46.274173 
L 424.086936 42.74852 
L 424.341049 43.24287 
L 424.595161 42.890791 
L 424.849274 44.155054 
L 425.103387 44.55744 
L 425.3575 43.491309 
L 425.611613 41.883751 
L 425.865726 42.610523 
L 426.119838 46.768951 
L 426.373951 45.847971 
L 426.628064 47.15433 
L 426.882177 45.568397 
L 427.13629 45.831566 
L 427.390402 44.880596 
L 427.644515 42.3249 
L 427.898628 41.79615 
L 428.152741 43.781608 
L 428.406854 42.219777 
L 428.660967 41.46227 
L 428.915079 43.256855 
L 429.169192 43.664641 
L 429.423305 45.490806 
L 429.677418 43.228043 
L 429.931531 45.536589 
L 430.185644 52.308962 
L 430.439756 50.320908 
L 430.693869 53.341622 
L 430.947982 48.835963 
L 431.202095 46.941326 
L 431.456208 47.335303 
L 431.71032 46.841877 
L 431.964433 46.992615 
L 432.218546 46.106191 
L 432.472659 43.751949 
L 432.726772 44.32251 
L 432.980885 42.503438 
L 433.234997 43.462312 
L 433.48911 43.856324 
L 433.743223 45.568847 
L 433.997336 44.927631 
L 434.505562 47.954082 
L 434.759674 45.050594 
L 435.013787 46.858825 
L 435.2679 44.51492 
L 435.522013 44.868201 
L 435.776126 44.573805 
L 436.030239 47.500754 
L 436.284351 45.725598 
L 436.538464 45.369928 
L 436.792577 43.831027 
L 437.04669 44.293064 
L 437.300803 45.046558 
L 437.554915 48.335917 
L 437.809028 48.582771 
L 438.063141 44.957569 
L 438.317254 45.020681 
L 438.571367 43.124852 
L 438.82548 43.564606 
L 439.079592 41.939998 
L 439.333705 44.874603 
L 439.587818 43.517342 
L 440.096044 44.029469 
L 440.350157 43.829762 
L 440.604269 43.911526 
L 440.858382 44.283059 
L 441.112495 45.913787 
L 441.366608 45.628086 
L 441.620721 44.252782 
L 441.874833 44.589553 
L 442.128946 43.073852 
L 442.383059 44.04077 
L 442.637172 47.57843 
L 442.891285 45.773447 
L 443.145398 50.493279 
L 443.39951 49.120521 
L 443.653623 49.487054 
L 444.161849 44.016679 
L 444.670075 47.01886 
L 444.924187 51.222173 
L 445.1783 47.966797 
L 445.432413 46.680757 
L 445.686526 47.514733 
L 446.194752 45.908438 
L 446.448864 49.69152 
L 446.702977 48.957938 
L 446.95709 50.105337 
L 447.211203 54.949377 
L 447.465316 52.533891 
L 447.719428 52.114046 
L 447.973541 48.739725 
L 448.227654 50.528018 
L 448.481767 48.657692 
L 448.73588 47.744908 
L 448.989993 48.108739 
L 449.244105 48.99704 
L 449.498218 47.663923 
L 450.006444 53.65292 
L 450.260557 51.463898 
L 450.51467 52.320423 
L 450.768782 51.606109 
L 451.022895 50.429371 
L 451.277008 49.895747 
L 451.531121 50.701993 
L 452.039347 45.049153 
L 452.293459 48.032241 
L 452.547572 48.376083 
L 452.801685 47.587277 
L 453.055798 51.640173 
L 453.309911 52.096621 
L 453.564023 49.164353 
L 453.818136 48.731576 
L 454.072249 52.445057 
L 454.326362 49.85801 
L 455.0887 57.74668 
L 455.342813 56.939008 
L 455.596926 56.801619 
L 455.851039 57.395266 
L 456.105152 59.101882 
L 456.359265 53.850304 
L 456.613377 53.039422 
L 456.86749 55.645875 
L 457.121603 61.166011 
L 457.629829 56.209735 
L 457.883941 53.052689 
L 458.138054 54.315626 
L 458.64628 50.030722 
L 458.900393 55.622225 
L 459.154506 55.787759 
L 459.408618 58.752199 
L 460.170957 51.002382 
L 460.42507 53.953919 
L 460.679183 48.985823 
L 461.187408 46.071055 
L 461.441521 49.43159 
L 461.695634 55.034605 
L 461.949747 55.998357 
L 462.457972 53.951838 
L 462.712085 50.332744 
L 462.966198 48.731066 
L 463.220311 48.125376 
L 463.474424 46.899699 
L 463.728536 48.387611 
L 464.236762 43.191775 
L 464.490875 42.7075 
L 464.744988 42.722339 
L 464.999101 41.501907 
L 465.507326 47.522927 
L 465.761439 44.679441 
L 466.015552 45.996304 
L 466.269665 44.49425 
L 466.523778 47.914559 
L 466.77789 47.10435 
L 467.032003 48.689183 
L 467.286116 48.997813 
L 467.794342 43.687105 
L 468.048454 43.667813 
L 468.302567 42.313815 
L 468.55668 44.295004 
L 469.064906 46.288532 
L 469.827244 52.07654 
L 470.081357 51.00937 
L 470.33547 46.884759 
L 470.589583 47.452218 
L 470.843696 46.915595 
L 471.097808 47.164357 
L 471.351921 44.784779 
L 471.606034 43.970679 
L 471.860147 45.517565 
L 472.11426 45.95638 
L 472.368373 44.988428 
L 472.622485 51.011667 
L 472.876598 50.378395 
L 473.130711 55.484817 
L 473.638937 53.02637 
L 473.893049 49.741463 
L 474.147162 49.41107 
L 474.401275 45.840676 
L 474.655388 48.14698 
L 474.909501 49.128282 
L 475.163614 47.22457 
L 475.417726 47.127674 
L 475.671839 47.287158 
L 475.925952 47.632273 
L 476.180065 46.878247 
L 476.688291 43.151774 
L 476.942403 46.021812 
L 477.196516 45.831086 
L 477.450629 48.557437 
L 477.958855 49.69493 
L 478.212967 51.933059 
L 478.46708 51.890273 
L 478.721193 49.891358 
L 478.975306 50.87537 
L 479.229419 55.286154 
L 479.483532 50.640288 
L 479.737644 49.562229 
L 479.991757 50.063447 
L 480.24587 52.377219 
L 480.499983 51.879006 
L 480.754096 51.962444 
L 481.008209 48.043795 
L 481.262321 49.583409 
L 481.516434 48.272286 
L 481.770547 47.909017 
L 482.02466 48.527056 
L 482.278773 45.738702 
L 482.532886 44.97604 
L 482.786998 48.346962 
L 483.041111 50.185716 
L 483.295224 51.080516 
L 483.549337 51.052543 
L 483.80345 47.768113 
L 484.311675 50.406879 
L 484.565788 55.101566 
L 484.819901 51.461711 
L 485.074014 52.541978 
L 485.328127 52.073228 
L 485.582239 48.930621 
L 485.836352 48.769616 
L 486.344578 45.844255 
L 486.598691 48.293129 
L 486.852804 48.896998 
L 487.615142 44.341682 
L 487.869255 45.392821 
L 488.123368 43.724754 
L 488.377481 46.091316 
L 488.631593 47.343966 
L 488.885706 51.42311 
L 489.139819 50.864902 
L 489.393932 46.818775 
L 489.648045 46.440129 
L 489.902157 47.901991 
L 490.15627 48.092365 
L 490.664496 44.838844 
L 490.918609 44.303379 
L 491.426834 51.542867 
L 491.680947 50.049132 
L 491.93506 49.386386 
L 492.189173 52.232067 
L 492.443286 62.525673 
L 492.697399 66.25693 
L 492.951511 65.801756 
L 493.205624 68.688799 
L 493.71385 56.130376 
L 494.476188 47.042871 
L 494.730301 46.606276 
L 495.238527 43.305823 
L 495.49264 45.566152 
L 495.746752 44.479574 
L 496.000865 45.712199 
L 496.254978 44.333685 
L 496.509091 47.525976 
L 496.509091 47.525976 
" clip-path="url(#p313549e655)" style="fill: none; stroke: #1f77b4; stroke-width: 1.5; stroke-linecap: square"/>
   </g>
   <g id="patch_3">
    <path d="M 70.4 305.152125 
L 70.4 27.952125 
" style="fill: none; stroke: #000000; stroke-width: 0.8; stroke-linejoin: miter; stroke-linecap: square"/>
   </g>
   <g id="patch_4">
    <path d="M 516.8 305.152125 
L 516.8 27.952125 
" style="fill: none; stroke: #000000; stroke-width: 0.8; stroke-linejoin: miter; stroke-linecap: square"/>
   </g>
   <g id="patch_5">
    <path d="M 70.4 305.152125 
L 516.8 305.152125 
" style="fill: none; stroke: #000000; stroke-width: 0.8; stroke-linejoin: miter; stroke-linecap: square"/>
   </g>
   <g id="patch_6">
    <path d="M 70.4 27.952125 
L 516.8 27.952125 
" style="fill: none; stroke: #000000; stroke-width: 0.8; stroke-linejoin: miter; stroke-linecap: square"/>
   </g>
   <g id="text_16">
    <!-- ML1 Meta Testing -->
    <g transform="translate(212.004313 21.952125)scale(0.216 -0.216)">
     <defs>
      <path id="STIXGeneral-Regular-4d" d="M 5530 0 
L 3738 0 
L 3738 122 
Q 4115 147 4214 265 
Q 4314 384 4314 787 
L 4314 3661 
L 2682 0 
L 2592 0 
L 979 3514 
L 979 966 
Q 979 448 1088 294 
Q 1197 141 1574 122 
L 1574 0 
L 77 0 
L 77 122 
Q 358 141 480 205 
Q 602 269 650 432 
Q 698 595 698 966 
L 698 3514 
Q 698 3878 589 3984 
Q 480 4090 90 4115 
L 90 4237 
L 1357 4237 
L 2835 1024 
L 4250 4237 
L 5523 4237 
L 5523 4115 
Q 5178 4109 5072 3993 
Q 4966 3878 4966 3520 
L 4966 717 
Q 4966 378 5072 262 
Q 5178 147 5530 122 
L 5530 0 
z
" transform="scale(0.015625)"/>
      <path id="STIXGeneral-Regular-4c" d="M 3827 1114 
L 3520 0 
L 77 0 
L 77 122 
Q 429 141 531 256 
Q 634 371 634 736 
L 634 3494 
Q 634 3872 541 3981 
Q 448 4090 77 4115 
L 77 4237 
L 1888 4237 
L 1888 4115 
Q 1498 4090 1392 3984 
Q 1286 3878 1286 3507 
L 1286 538 
Q 1286 358 1398 304 
Q 1510 250 1862 250 
L 2310 250 
Q 3085 250 3392 640 
Q 3520 813 3661 1114 
L 3827 1114 
z
" transform="scale(0.015625)"/>
     </defs>
     <use xlink:href="#STIXGeneral-Regular-4d"/>
     <use xlink:href="#STIXGeneral-Regular-4c" x="88.899994"/>
     <use xlink:href="#STIXGeneral-Regular-31" x="149.999985"/>
     <use xlink:href="#STIXGeneral-Regular-20" x="199.999969"/>
     <use xlink:href="#STIXGeneral-Regular-4d" x="224.999954"/>
     <use xlink:href="#STIXGeneral-Regular-65" x="313.899948"/>
     <use xlink:href="#STIXGeneral-Regular-74" x="358.299942"/>
     <use xlink:href="#STIXGeneral-Regular-61" x="386.09993"/>
     <use xlink:href="#STIXGeneral-Regular-20" x="430.499924"/>
     <use xlink:href="#STIXGeneral-Regular-54" x="455.499908"/>
     <use xlink:href="#STIXGeneral-Regular-65" x="516.599899"/>
     <use xlink:href="#STIXGeneral-Regular-73" x="560.999893"/>
     <use xlink:href="#STIXGeneral-Regular-74" x="599.899887"/>
     <use xlink:href="#STIXGeneral-Regular-69" x="627.699875"/>
     <use xlink:href="#STIXGeneral-Regular-6e" x="655.499863"/>
     <use xlink:href="#STIXGeneral-Regular-67" x="705.499847"/>
    </g>
   </g>
   <g id="legend_1">
    <g id="patch_7">
     <path d="M 76 51.752125 
L 172.43375 51.752125 
Q 175.23375 51.752125 175.23375 48.952125 
L 175.23375 33.552125 
Q 175.23375 30.752125 172.43375 30.752125 
L 76 30.752125 
Q 73.2 30.752125 73.2 33.552125 
L 73.2 48.952125 
Q 73.2 51.752125 76 51.752125 
z
" style="fill: #ffffff; opacity: 0.8; stroke: #cccccc; stroke-linejoin: miter"/>
    </g>
    <g id="line2d_26">
     <path d="M 77.4 40.663687 
L 84.4 40.663687 
L 91.4 40.663687 
" style="fill: none; stroke: #1f77b4; stroke-width: 1.5; stroke-linecap: square"/>
    </g>
    <g id="text_17">
     <!-- basketball-v2 -->
     <g transform="translate(95.6 44.513687)scale(0.14 -0.14)">
      <defs>
       <path id="STIXGeneral-Regular-62" d="M 979 4358 
L 979 2406 
Q 1082 2650 1315 2797 
Q 1549 2944 1843 2944 
Q 2349 2944 2672 2541 
Q 2995 2138 2995 1536 
Q 2995 832 2566 384 
Q 2138 -64 1498 -64 
Q 1107 -64 774 67 
Q 442 198 442 358 
L 442 3622 
Q 442 3859 384 3926 
Q 326 3994 128 3994 
Q 83 3994 19 3981 
L 19 4090 
L 211 4147 
Q 864 4346 947 4371 
L 979 4358 
z
M 979 2035 
L 979 474 
Q 979 326 1161 233 
Q 1344 141 1600 141 
Q 1978 141 2195 416 
Q 2432 710 2432 1261 
Q 2432 1888 2182 2240 
Q 1971 2541 1613 2541 
Q 1357 2541 1168 2390 
Q 979 2240 979 2035 
z
" transform="scale(0.015625)"/>
       <path id="STIXGeneral-Regular-6b" d="M 3232 0 
L 1837 0 
L 1837 96 
L 1958 96 
Q 2093 96 2093 192 
Q 2093 250 2022 339 
L 1062 1606 
L 1062 429 
Q 1062 262 1142 185 
Q 1222 109 1414 102 
L 1542 96 
L 1542 0 
L 45 0 
L 45 96 
Q 390 154 457 214 
Q 525 275 525 525 
L 525 3610 
Q 525 3840 467 3920 
Q 410 4000 250 4000 
Q 211 4000 45 3987 
L 45 4090 
L 237 4141 
Q 621 4243 1037 4371 
L 1062 4358 
L 1062 1670 
L 1939 2451 
Q 2086 2586 2086 2675 
Q 2086 2739 2019 2761 
Q 1952 2784 1766 2790 
L 1766 2880 
L 3072 2880 
L 3072 2784 
Q 2752 2784 2505 2646 
Q 2259 2509 1690 1978 
L 1504 1805 
L 2483 563 
Q 2829 122 3232 96 
L 3232 0 
z
" transform="scale(0.015625)"/>
       <path id="STIXGeneral-Regular-6c" d="M 1645 0 
L 134 0 
L 134 96 
Q 435 122 531 221 
Q 627 320 627 589 
L 627 3590 
Q 627 3821 569 3910 
Q 512 4000 358 4000 
Q 224 4000 122 3987 
L 122 4090 
Q 730 4237 1133 4371 
L 1165 4346 
L 1165 557 
Q 1165 288 1254 201 
Q 1344 115 1645 96 
L 1645 0 
z
" transform="scale(0.015625)"/>
       <path id="STIXGeneral-Regular-2d" d="M 1824 1242 
L 250 1242 
L 250 1645 
L 1824 1645 
L 1824 1242 
z
" transform="scale(0.015625)"/>
      </defs>
      <use xlink:href="#STIXGeneral-Regular-62"/>
      <use xlink:href="#STIXGeneral-Regular-61" x="49.999985"/>
      <use xlink:href="#STIXGeneral-Regular-73" x="94.399979"/>
      <use xlink:href="#STIXGeneral-Regular-6b" x="133.299973"/>
      <use xlink:href="#STIXGeneral-Regular-65" x="183.299957"/>
      <use xlink:href="#STIXGeneral-Regular-74" x="227.699951"/>
      <use xlink:href="#STIXGeneral-Regular-62" x="255.499939"/>
      <use xlink:href="#STIXGeneral-Regular-61" x="305.499924"/>
      <use xlink:href="#STIXGeneral-Regular-6c" x="349.899918"/>
      <use xlink:href="#STIXGeneral-Regular-6c" x="377.699905"/>
      <use xlink:href="#STIXGeneral-Regular-2d" x="405.499893"/>
      <use xlink:href="#STIXGeneral-Regular-76" x="438.799881"/>
      <use xlink:href="#STIXGeneral-Regular-32" x="488.799866"/>
     </g>
    </g>
   </g>
  </g>
 </g>
 <defs>
  <clipPath id="p313549e655">
   <rect x="70.4" y="27.952125" width="446.4" height="277.2"/>
  </clipPath>
 </defs>
</svg>
