<?xml version="1.0" encoding="utf-8" standalone="no"?>
<!DOCTYPE svg PUBLIC "-//W3C//DTD SVG 1.1//EN"
  "http://www.w3.org/Graphics/SVG/1.1/DTD/svg11.dtd">
<svg xmlns:xlink="http://www.w3.org/1999/xlink" width="524pt" height="355.769pt" viewBox="0 0 524 355.769" xmlns="http://www.w3.org/2000/svg" version="1.1">
 <metadata>
  <rdf:RDF xmlns:dc="http://purl.org/dc/elements/1.1/" xmlns:cc="http://creativecommons.org/ns#" xmlns:rdf="http://www.w3.org/1999/02/22-rdf-syntax-ns#">
   <cc:Work>
    <dc:type rdf:resource="http://purl.org/dc/dcmitype/StillImage"/>
    <dc:date>2021-12-11T16:39:33.750022</dc:date>
    <dc:format>image/svg+xml</dc:format>
    <dc:creator>
     <cc:Agent>
      <dc:title>Matplotlib v3.5.0, https://matplotlib.org/</dc:title>
     </cc:Agent>
    </dc:creator>
   </cc:Work>
  </rdf:RDF>
 </metadata>
 <defs>
  <style type="text/css">*{stroke-linejoin: round; stroke-linecap: butt}</style>
 </defs>
 <g id="figure_1">
  <g id="patch_1">
   <path d="M 0 355.769 
L 524 355.769 
L 524 0 
L 0 0 
z
" style="fill: #ffffff"/>
  </g>
  <g id="axes_1">
   <g id="patch_2">
    <path d="M 70.4 305.152125 
L 516.8 305.152125 
L 516.8 27.952125 
L 70.4 27.952125 
z
" style="fill: #ffffff"/>
   </g>
   <g id="matplotlib.axis_1">
    <g id="xtick_1">
     <g id="line2d_1">
      <path d="M 90.373616 305.152125 
L 90.373616 27.952125 
" clip-path="url(#peff2aaa35b)" style="fill: none; stroke: #b0b0b0; stroke-width: 0.8; stroke-linecap: square"/>
     </g>
     <g id="line2d_2">
      <defs>
       <path id="m4c9a6b536c" d="M 0 0 
L 0 3.5 
" style="stroke: #000000; stroke-width: 0.8"/>
      </defs>
      <g>
       <use xlink:href="#m4c9a6b536c" x="90.373616" y="305.152125" style="stroke: #000000; stroke-width: 0.8"/>
      </g>
     </g>
     <g id="text_1">
      <!-- 0.0 -->
      <g transform="translate(79.123616 324.445562)scale(0.18 -0.18)">
       <defs>
        <path id="STIXGeneral-Regular-30" d="M 3046 2112 
Q 3046 1683 2963 1302 
Q 2880 922 2717 602 
Q 2554 282 2266 96 
Q 1978 -90 1600 -90 
Q 1210 -90 915 108 
Q 621 307 461 640 
Q 301 973 227 1350 
Q 154 1728 154 2150 
Q 154 2746 301 3222 
Q 448 3699 790 4012 
Q 1133 4326 1626 4326 
Q 2253 4326 2649 3712 
Q 3046 3098 3046 2112 
z
M 2432 2080 
Q 2432 3091 2217 3625 
Q 2003 4160 1587 4160 
Q 1190 4160 979 3622 
Q 768 3085 768 2106 
Q 768 1120 979 598 
Q 1190 77 1600 77 
Q 2003 77 2217 598 
Q 2432 1120 2432 2080 
z
" transform="scale(0.015625)"/>
        <path id="STIXGeneral-Regular-2e" d="M 1158 275 
Q 1158 134 1052 32 
Q 947 -70 800 -70 
Q 653 -70 550 32 
Q 448 134 448 281 
Q 448 429 553 534 
Q 659 640 806 640 
Q 947 640 1052 531 
Q 1158 422 1158 275 
z
" transform="scale(0.015625)"/>
       </defs>
       <use xlink:href="#STIXGeneral-Regular-30"/>
       <use xlink:href="#STIXGeneral-Regular-2e" x="49.999985"/>
       <use xlink:href="#STIXGeneral-Regular-30" x="74.999969"/>
      </g>
     </g>
    </g>
    <g id="xtick_2">
     <g id="line2d_3">
      <path d="M 169.696951 305.152125 
L 169.696951 27.952125 
" clip-path="url(#peff2aaa35b)" style="fill: none; stroke: #b0b0b0; stroke-width: 0.8; stroke-linecap: square"/>
     </g>
     <g id="line2d_4">
      <g>
       <use xlink:href="#m4c9a6b536c" x="169.696951" y="305.152125" style="stroke: #000000; stroke-width: 0.8"/>
      </g>
     </g>
     <g id="text_2">
      <!-- 0.5 -->
      <g transform="translate(158.446951 324.445562)scale(0.18 -0.18)">
       <defs>
        <path id="STIXGeneral-Regular-35" d="M 2803 4358 
L 2573 3814 
Q 2534 3731 2400 3731 
L 1158 3731 
L 902 3187 
Q 1606 3053 1920 2896 
Q 2234 2739 2502 2368 
Q 2726 2061 2726 1555 
Q 2726 1094 2576 780 
Q 2426 467 2099 224 
Q 1664 -90 1011 -90 
Q 646 -90 422 19 
Q 198 128 198 307 
Q 198 550 486 550 
Q 717 550 960 352 
Q 1210 147 1414 147 
Q 1747 147 2012 480 
Q 2278 813 2278 1229 
Q 2278 1843 1850 2189 
Q 1293 2637 486 2637 
Q 410 2637 410 2688 
L 416 2720 
L 1114 4237 
L 2438 4237 
Q 2547 4237 2608 4269 
Q 2669 4301 2746 4403 
L 2803 4358 
z
" transform="scale(0.015625)"/>
       </defs>
       <use xlink:href="#STIXGeneral-Regular-30"/>
       <use xlink:href="#STIXGeneral-Regular-2e" x="49.999985"/>
       <use xlink:href="#STIXGeneral-Regular-35" x="74.999969"/>
      </g>
     </g>
    </g>
    <g id="xtick_3">
     <g id="line2d_5">
      <path d="M 249.020286 305.152125 
L 249.020286 27.952125 
" clip-path="url(#peff2aaa35b)" style="fill: none; stroke: #b0b0b0; stroke-width: 0.8; stroke-linecap: square"/>
     </g>
     <g id="line2d_6">
      <g>
       <use xlink:href="#m4c9a6b536c" x="249.020286" y="305.152125" style="stroke: #000000; stroke-width: 0.8"/>
      </g>
     </g>
     <g id="text_3">
      <!-- 1.0 -->
      <g transform="translate(237.770286 324.445562)scale(0.18 -0.18)">
       <defs>
        <path id="STIXGeneral-Regular-31" d="M 2522 0 
L 755 0 
L 755 96 
Q 1107 115 1235 227 
Q 1363 339 1363 608 
L 1363 3482 
Q 1363 3795 1171 3795 
Q 1082 3795 883 3718 
L 710 3654 
L 710 3744 
L 1856 4326 
L 1914 4307 
L 1914 486 
Q 1914 275 2042 185 
Q 2170 96 2522 96 
L 2522 0 
z
" transform="scale(0.015625)"/>
       </defs>
       <use xlink:href="#STIXGeneral-Regular-31"/>
       <use xlink:href="#STIXGeneral-Regular-2e" x="49.999985"/>
       <use xlink:href="#STIXGeneral-Regular-30" x="74.999969"/>
      </g>
     </g>
    </g>
    <g id="xtick_4">
     <g id="line2d_7">
      <path d="M 328.343621 305.152125 
L 328.343621 27.952125 
" clip-path="url(#peff2aaa35b)" style="fill: none; stroke: #b0b0b0; stroke-width: 0.8; stroke-linecap: square"/>
     </g>
     <g id="line2d_8">
      <g>
       <use xlink:href="#m4c9a6b536c" x="328.343621" y="305.152125" style="stroke: #000000; stroke-width: 0.8"/>
      </g>
     </g>
     <g id="text_4">
      <!-- 1.5 -->
      <g transform="translate(317.093621 324.445562)scale(0.18 -0.18)">
       <use xlink:href="#STIXGeneral-Regular-31"/>
       <use xlink:href="#STIXGeneral-Regular-2e" x="49.999985"/>
       <use xlink:href="#STIXGeneral-Regular-35" x="74.999969"/>
      </g>
     </g>
    </g>
    <g id="xtick_5">
     <g id="line2d_9">
      <path d="M 407.666956 305.152125 
L 407.666956 27.952125 
" clip-path="url(#peff2aaa35b)" style="fill: none; stroke: #b0b0b0; stroke-width: 0.8; stroke-linecap: square"/>
     </g>
     <g id="line2d_10">
      <g>
       <use xlink:href="#m4c9a6b536c" x="407.666956" y="305.152125" style="stroke: #000000; stroke-width: 0.8"/>
      </g>
     </g>
     <g id="text_5">
      <!-- 2.0 -->
      <g transform="translate(396.416956 324.445562)scale(0.18 -0.18)">
       <defs>
        <path id="STIXGeneral-Regular-32" d="M 3034 877 
L 2688 0 
L 186 0 
L 186 77 
L 1325 1286 
Q 1773 1754 1965 2144 
Q 2157 2534 2157 2950 
Q 2157 3379 1920 3616 
Q 1683 3853 1267 3853 
Q 922 3853 720 3673 
Q 518 3494 326 3021 
L 192 3053 
Q 301 3648 630 3987 
Q 960 4326 1523 4326 
Q 2054 4326 2380 4006 
Q 2707 3686 2707 3200 
Q 2707 2477 1888 1613 
L 832 486 
L 2330 486 
Q 2541 486 2665 569 
Q 2790 653 2944 915 
L 3034 877 
z
" transform="scale(0.015625)"/>
       </defs>
       <use xlink:href="#STIXGeneral-Regular-32"/>
       <use xlink:href="#STIXGeneral-Regular-2e" x="49.999985"/>
       <use xlink:href="#STIXGeneral-Regular-30" x="74.999969"/>
      </g>
     </g>
    </g>
    <g id="xtick_6">
     <g id="line2d_11">
      <path d="M 486.990291 305.152125 
L 486.990291 27.952125 
" clip-path="url(#peff2aaa35b)" style="fill: none; stroke: #b0b0b0; stroke-width: 0.8; stroke-linecap: square"/>
     </g>
     <g id="line2d_12">
      <g>
       <use xlink:href="#m4c9a6b536c" x="486.990291" y="305.152125" style="stroke: #000000; stroke-width: 0.8"/>
      </g>
     </g>
     <g id="text_6">
      <!-- 2.5 -->
      <g transform="translate(475.740291 324.445562)scale(0.18 -0.18)">
       <use xlink:href="#STIXGeneral-Regular-32"/>
       <use xlink:href="#STIXGeneral-Regular-2e" x="49.999985"/>
       <use xlink:href="#STIXGeneral-Regular-35" x="74.999969"/>
      </g>
     </g>
    </g>
    <g id="text_7">
     <!-- Training Environment Steps -->
     <g transform="translate(191.604688 344.645562)scale(0.18 -0.18)">
      <defs>
       <path id="STIXGeneral-Regular-54" d="M 3795 3149 
L 3642 3149 
Q 3539 3674 3353 3821 
Q 3168 3968 2656 3968 
L 2278 3968 
L 2278 710 
Q 2278 346 2387 243 
Q 2496 141 2893 122 
L 2893 0 
L 1024 0 
L 1024 122 
Q 1427 147 1526 256 
Q 1626 365 1626 787 
L 1626 3968 
L 1242 3968 
Q 723 3968 540 3817 
Q 358 3667 262 3149 
L 109 3149 
L 154 4237 
L 3750 4237 
L 3795 3149 
z
" transform="scale(0.015625)"/>
       <path id="STIXGeneral-Regular-72" d="M 1024 2931 
L 1024 2342 
Q 1267 2688 1430 2816 
Q 1594 2944 1792 2944 
Q 1958 2944 2051 2854 
Q 2144 2765 2144 2605 
Q 2144 2470 2077 2393 
Q 2010 2317 1894 2317 
Q 1773 2317 1638 2445 
Q 1536 2541 1472 2541 
Q 1338 2541 1181 2355 
Q 1024 2170 1024 2016 
L 1024 576 
Q 1024 301 1133 205 
Q 1242 109 1568 96 
L 1568 0 
L 32 0 
L 32 96 
Q 339 154 412 224 
Q 486 294 486 538 
L 486 2138 
Q 486 2349 438 2435 
Q 390 2522 269 2522 
Q 166 2522 45 2496 
L 45 2598 
Q 448 2726 992 2944 
L 1024 2931 
z
" transform="scale(0.015625)"/>
       <path id="STIXGeneral-Regular-61" d="M 2829 422 
L 2829 243 
Q 2586 -64 2253 -64 
Q 1888 -64 1843 403 
L 1837 403 
Q 1427 -64 909 -64 
Q 608 -64 422 112 
Q 237 288 237 602 
Q 237 1050 685 1350 
Q 992 1555 1837 1869 
L 1837 2214 
Q 1837 2502 1699 2646 
Q 1562 2790 1338 2790 
Q 1146 2790 1018 2697 
Q 890 2605 890 2477 
Q 890 2419 909 2348 
Q 928 2278 928 2208 
Q 928 2112 841 2029 
Q 755 1946 634 1946 
Q 525 1946 441 2029 
Q 358 2112 358 2240 
Q 358 2547 685 2752 
Q 986 2944 1421 2944 
Q 1939 2944 2176 2656 
Q 2291 2522 2323 2384 
Q 2355 2246 2355 1946 
L 2355 723 
Q 2355 301 2554 301 
Q 2682 301 2829 422 
z
M 1837 813 
L 1837 1715 
Q 1248 1510 1018 1293 
Q 800 1094 800 800 
Q 800 557 921 432 
Q 1043 307 1242 307 
Q 1453 307 1613 410 
Q 1747 506 1792 589 
Q 1837 672 1837 813 
z
" transform="scale(0.015625)"/>
       <path id="STIXGeneral-Regular-69" d="M 1152 4045 
Q 1152 3904 1056 3811 
Q 960 3718 819 3718 
Q 685 3718 592 3811 
Q 499 3904 499 4045 
Q 499 4179 595 4275 
Q 691 4371 826 4371 
Q 966 4371 1059 4275 
Q 1152 4179 1152 4045 
z
M 1619 0 
L 102 0 
L 102 96 
Q 435 115 521 211 
Q 608 307 608 666 
L 608 2118 
Q 608 2342 563 2432 
Q 518 2522 397 2522 
Q 243 2522 128 2490 
L 128 2592 
L 1120 2944 
L 1146 2918 
L 1146 672 
Q 1146 314 1226 218 
Q 1306 122 1619 96 
L 1619 0 
z
" transform="scale(0.015625)"/>
       <path id="STIXGeneral-Regular-6e" d="M 3104 0 
L 1773 0 
L 1779 96 
Q 2016 115 2096 233 
Q 2176 352 2176 672 
L 2176 1946 
Q 2176 2592 1709 2592 
Q 1549 2592 1408 2515 
Q 1267 2438 1050 2227 
L 1050 461 
Q 1050 269 1136 192 
Q 1222 115 1466 96 
L 1466 0 
L 115 0 
L 115 96 
Q 358 115 435 214 
Q 512 314 512 602 
L 512 2157 
Q 512 2394 467 2483 
Q 422 2573 288 2573 
Q 160 2573 102 2547 
L 102 2656 
Q 550 2784 979 2944 
L 1030 2925 
L 1030 2426 
L 1037 2426 
Q 1491 2944 1958 2944 
Q 2323 2944 2518 2688 
Q 2714 2432 2714 1958 
L 2714 544 
Q 2714 288 2790 205 
Q 2867 122 3104 96 
L 3104 0 
z
" transform="scale(0.015625)"/>
       <path id="STIXGeneral-Regular-67" d="M 3008 2483 
L 2477 2483 
Q 2598 2208 2598 1946 
Q 2598 1453 2265 1203 
Q 1933 954 1600 954 
Q 1530 954 1357 973 
L 1235 986 
Q 1107 947 979 812 
Q 851 678 851 582 
Q 851 435 1350 410 
L 2176 371 
Q 2528 358 2739 172 
Q 2950 -13 2950 -314 
Q 2950 -685 2566 -986 
Q 2035 -1395 1286 -1395 
Q 826 -1395 502 -1212 
Q 179 -1030 179 -774 
Q 179 -595 320 -419 
Q 461 -243 806 6 
Q 602 102 534 172 
Q 467 243 467 346 
Q 467 531 762 787 
Q 909 915 1037 1043 
Q 717 1203 579 1401 
Q 442 1600 442 1901 
Q 442 2336 752 2640 
Q 1062 2944 1510 2944 
Q 1766 2944 2022 2848 
L 2163 2797 
Q 2349 2733 2515 2733 
L 3008 2733 
L 3008 2483 
z
M 973 2163 
L 973 2144 
Q 973 1683 1155 1398 
Q 1338 1114 1632 1114 
Q 1850 1114 1978 1270 
Q 2106 1427 2106 1690 
Q 2106 2112 1914 2464 
Q 1754 2765 1446 2765 
Q 1222 2765 1097 2605 
Q 973 2445 973 2163 
z
M 2771 -410 
Q 2771 -230 2595 -163 
Q 2419 -96 1978 -96 
Q 1344 -96 941 -13 
Q 749 -243 688 -348 
Q 627 -454 627 -563 
Q 627 -774 880 -902 
Q 1133 -1030 1555 -1030 
Q 2099 -1030 2435 -860 
Q 2771 -691 2771 -410 
z
" transform="scale(0.015625)"/>
       <path id="STIXGeneral-Regular-20" transform="scale(0.015625)"/>
       <path id="STIXGeneral-Regular-45" d="M 3821 1082 
L 3526 0 
L 77 0 
L 77 122 
Q 442 147 538 252 
Q 634 358 634 730 
L 634 3520 
Q 634 3878 534 3987 
Q 435 4096 77 4115 
L 77 4237 
L 3469 4237 
L 3494 3322 
L 3334 3322 
Q 3264 3750 3085 3872 
Q 2906 3994 2349 3994 
L 1510 3994 
Q 1370 3994 1328 3952 
Q 1286 3910 1286 3763 
L 1286 2355 
L 2253 2355 
Q 2656 2355 2787 2470 
Q 2918 2586 2976 2970 
L 3123 2970 
L 3123 1472 
L 2976 1472 
Q 2918 1875 2790 1984 
Q 2662 2093 2253 2093 
L 1286 2093 
L 1286 538 
Q 1286 346 1420 291 
Q 1555 237 1933 237 
L 2163 237 
Q 2848 237 3136 403 
Q 3424 570 3642 1082 
L 3821 1082 
z
" transform="scale(0.015625)"/>
       <path id="STIXGeneral-Regular-76" d="M 3053 2880 
L 3053 2784 
Q 2906 2771 2835 2688 
Q 2765 2605 2637 2285 
L 1818 230 
Q 1690 -90 1638 -90 
Q 1587 -90 1523 77 
Q 1510 96 1497 141 
Q 1485 186 1472 211 
L 704 2048 
Q 499 2534 403 2652 
Q 307 2771 122 2784 
L 122 2880 
L 1376 2880 
L 1376 2784 
Q 1210 2771 1146 2732 
Q 1082 2694 1082 2611 
Q 1082 2509 1139 2368 
L 1792 730 
L 2426 2387 
Q 2464 2483 2464 2579 
Q 2464 2758 2163 2784 
L 2163 2880 
L 3053 2880 
z
" transform="scale(0.015625)"/>
       <path id="STIXGeneral-Regular-6f" d="M 3008 1478 
Q 3008 806 2608 371 
Q 2208 -64 1568 -64 
Q 979 -64 582 368 
Q 186 800 186 1459 
Q 186 2125 582 2534 
Q 979 2944 1626 2944 
Q 2221 2944 2614 2537 
Q 3008 2131 3008 1478 
z
M 2432 1306 
Q 2432 2035 2112 2445 
Q 1856 2765 1504 2765 
Q 1171 2765 966 2493 
Q 762 2221 762 1747 
Q 762 928 1101 435 
Q 1318 115 1677 115 
Q 2029 115 2230 432 
Q 2432 749 2432 1306 
z
" transform="scale(0.015625)"/>
       <path id="STIXGeneral-Regular-6d" d="M 4960 0 
L 3565 0 
L 3565 96 
Q 3834 122 3907 208 
Q 3981 294 3981 576 
L 3981 1894 
Q 3981 2278 3869 2444 
Q 3757 2611 3488 2611 
Q 3264 2611 3107 2521 
Q 2950 2432 2803 2221 
L 2803 608 
Q 2803 301 2896 201 
Q 2989 102 3264 96 
L 3264 0 
L 1830 0 
L 1830 96 
Q 2112 115 2189 188 
Q 2266 262 2266 550 
L 2266 1901 
Q 2266 2611 1850 2611 
Q 1670 2611 1468 2531 
Q 1267 2451 1171 2336 
Q 1088 2240 1088 2227 
L 1088 448 
Q 1088 243 1177 176 
Q 1267 109 1523 96 
L 1523 0 
L 102 0 
L 102 96 
Q 371 102 460 195 
Q 550 288 550 563 
L 550 2150 
Q 550 2387 499 2480 
Q 448 2573 326 2573 
Q 230 2573 122 2547 
L 122 2656 
Q 557 2778 1011 2944 
L 1062 2925 
L 1062 2451 
L 1075 2451 
Q 1363 2752 1584 2848 
Q 1805 2944 2054 2944 
Q 2560 2944 2733 2406 
Q 3232 2944 3776 2944 
Q 4518 2944 4518 1792 
L 4518 493 
Q 4518 282 4582 202 
Q 4646 122 4794 109 
L 4960 96 
L 4960 0 
z
" transform="scale(0.015625)"/>
       <path id="STIXGeneral-Regular-65" d="M 2611 1050 
L 2714 1005 
Q 2330 -64 1376 -64 
Q 813 -64 486 329 
Q 160 723 160 1389 
Q 160 2074 525 2509 
Q 890 2944 1485 2944 
Q 2061 2944 2374 2502 
Q 2560 2246 2592 1773 
L 621 1773 
Q 646 1370 700 1158 
Q 755 947 915 730 
Q 1184 378 1626 378 
Q 1939 378 2153 531 
Q 2368 685 2611 1050 
z
M 634 1978 
L 1939 1978 
Q 1882 2381 1750 2547 
Q 1619 2714 1312 2714 
Q 1043 2714 864 2525 
Q 685 2336 634 1978 
z
" transform="scale(0.015625)"/>
       <path id="STIXGeneral-Regular-74" d="M 1702 493 
L 1786 422 
Q 1478 -64 1011 -64 
Q 448 -64 448 749 
L 448 2675 
L 109 2675 
Q 83 2694 83 2720 
Q 83 2771 192 2842 
Q 435 2982 813 3526 
Q 826 3546 874 3606 
Q 922 3667 941 3706 
Q 986 3706 986 3622 
L 986 2880 
L 1632 2880 
L 1632 2675 
L 986 2675 
L 986 845 
Q 986 538 1062 403 
Q 1139 269 1318 269 
Q 1510 269 1702 493 
z
" transform="scale(0.015625)"/>
       <path id="STIXGeneral-Regular-53" d="M 3002 2963 
L 2842 2963 
Q 2733 3360 2579 3565 
Q 2189 4064 1651 4064 
Q 1357 4064 1181 3894 
Q 1005 3725 1005 3456 
Q 1005 3328 1069 3206 
Q 1133 3085 1206 2998 
Q 1280 2912 1465 2784 
Q 1651 2656 1766 2589 
Q 1882 2522 2150 2362 
Q 2669 2061 2905 1763 
Q 3142 1466 3142 1107 
Q 3142 576 2771 243 
Q 2400 -90 1837 -90 
Q 1421 -90 1082 58 
Q 915 128 781 128 
Q 704 128 653 70 
Q 602 13 602 -83 
L 461 -83 
L 275 1274 
L 416 1274 
Q 845 141 1734 141 
Q 2074 141 2285 342 
Q 2496 544 2496 858 
Q 2496 1158 2310 1363 
Q 2003 1696 1235 2106 
Q 454 2522 454 3206 
Q 454 3718 768 4022 
Q 1082 4326 1568 4326 
Q 1907 4326 2240 4186 
Q 2413 4109 2522 4109 
Q 2688 4109 2726 4326 
L 2861 4326 
L 3002 2963 
z
" transform="scale(0.015625)"/>
       <path id="STIXGeneral-Regular-70" d="M 1018 2931 
L 1018 2438 
Q 1421 2944 1939 2944 
Q 2406 2944 2707 2560 
Q 3008 2176 3008 1581 
Q 3008 883 2621 409 
Q 2234 -64 1664 -64 
Q 1466 -64 1328 -6 
Q 1190 51 1018 211 
L 1018 -794 
Q 1018 -1094 1120 -1180 
Q 1222 -1267 1581 -1274 
L 1581 -1389 
L 32 -1389 
L 32 -1280 
Q 314 -1254 397 -1171 
Q 480 -1088 480 -838 
L 480 2157 
Q 480 2381 429 2451 
Q 378 2522 218 2522 
Q 115 2522 58 2515 
L 58 2618 
Q 506 2752 979 2944 
L 1018 2931 
z
M 1018 2138 
L 1018 563 
Q 1018 422 1238 281 
Q 1459 141 1683 141 
Q 2029 141 2243 467 
Q 2458 794 2458 1325 
Q 2458 1888 2243 2224 
Q 2029 2560 1670 2560 
Q 1446 2560 1232 2419 
Q 1018 2278 1018 2138 
z
" transform="scale(0.015625)"/>
       <path id="STIXGeneral-Regular-73" d="M 998 1926 
L 1664 1523 
Q 1984 1331 2105 1164 
Q 2227 998 2227 736 
Q 2227 416 1961 176 
Q 1696 -64 1331 -64 
Q 1030 -64 864 -6 
Q 691 51 570 51 
Q 461 51 416 -26 
L 333 -26 
L 333 979 
L 435 979 
Q 538 512 730 294 
Q 922 77 1248 77 
Q 1485 77 1632 211 
Q 1779 346 1779 550 
Q 1779 845 1440 1030 
L 1094 1222 
Q 326 1651 326 2150 
Q 326 2522 566 2730 
Q 806 2938 1210 2938 
Q 1491 2938 1638 2867 
Q 1754 2816 1818 2816 
Q 1862 2816 1920 2880 
L 1990 2880 
L 2022 2010 
L 1926 2010 
Q 1818 2445 1654 2621 
Q 1491 2797 1203 2797 
Q 986 2797 854 2688 
Q 723 2579 723 2362 
Q 723 2253 796 2128 
Q 870 2003 998 1926 
z
" transform="scale(0.015625)"/>
      </defs>
      <use xlink:href="#STIXGeneral-Regular-54"/>
      <use xlink:href="#STIXGeneral-Regular-72" x="61.099991"/>
      <use xlink:href="#STIXGeneral-Regular-61" x="94.399979"/>
      <use xlink:href="#STIXGeneral-Regular-69" x="138.799973"/>
      <use xlink:href="#STIXGeneral-Regular-6e" x="166.59996"/>
      <use xlink:href="#STIXGeneral-Regular-69" x="216.599945"/>
      <use xlink:href="#STIXGeneral-Regular-6e" x="244.399933"/>
      <use xlink:href="#STIXGeneral-Regular-67" x="294.399918"/>
      <use xlink:href="#STIXGeneral-Regular-20" x="344.399902"/>
      <use xlink:href="#STIXGeneral-Regular-45" x="369.399887"/>
      <use xlink:href="#STIXGeneral-Regular-6e" x="430.499878"/>
      <use xlink:href="#STIXGeneral-Regular-76" x="480.499863"/>
      <use xlink:href="#STIXGeneral-Regular-69" x="530.499847"/>
      <use xlink:href="#STIXGeneral-Regular-72" x="558.299835"/>
      <use xlink:href="#STIXGeneral-Regular-6f" x="591.599823"/>
      <use xlink:href="#STIXGeneral-Regular-6e" x="641.599808"/>
      <use xlink:href="#STIXGeneral-Regular-6d" x="691.599792"/>
      <use xlink:href="#STIXGeneral-Regular-65" x="769.39978"/>
      <use xlink:href="#STIXGeneral-Regular-6e" x="813.799774"/>
      <use xlink:href="#STIXGeneral-Regular-74" x="863.799759"/>
      <use xlink:href="#STIXGeneral-Regular-20" x="891.599747"/>
      <use xlink:href="#STIXGeneral-Regular-53" x="916.599731"/>
      <use xlink:href="#STIXGeneral-Regular-74" x="972.199722"/>
      <use xlink:href="#STIXGeneral-Regular-65" x="999.99971"/>
      <use xlink:href="#STIXGeneral-Regular-70" x="1044.399704"/>
      <use xlink:href="#STIXGeneral-Regular-73" x="1094.399689"/>
     </g>
    </g>
    <g id="text_8">
     <!-- 1e8 -->
     <g transform="translate(490.806875 343.645562)scale(0.18 -0.18)">
      <defs>
       <path id="STIXGeneral-Regular-38" d="M 2848 992 
Q 2848 499 2505 204 
Q 2163 -90 1587 -90 
Q 1050 -90 704 204 
Q 358 499 358 954 
Q 358 1293 524 1533 
Q 691 1773 1190 2125 
Q 710 2522 553 2765 
Q 397 3008 397 3328 
Q 397 3782 745 4054 
Q 1094 4326 1638 4326 
Q 2106 4326 2410 4060 
Q 2714 3795 2714 3411 
Q 2714 3059 2531 2848 
Q 2349 2637 1856 2374 
Q 2432 1990 2640 1689 
Q 2848 1389 2848 992 
z
M 2272 3411 
Q 2272 3744 2086 3945 
Q 1901 4147 1574 4147 
Q 1248 4147 1059 3977 
Q 870 3808 870 3513 
Q 870 3219 1059 2979 
Q 1248 2739 1670 2490 
Q 1997 2682 2134 2896 
Q 2272 3110 2272 3411 
z
M 1734 1741 
L 1357 1997 
Q 1075 1766 960 1545 
Q 845 1325 845 1011 
Q 845 576 1065 333 
Q 1286 90 1658 90 
Q 1971 90 2166 285 
Q 2362 480 2362 794 
Q 2362 1082 2214 1299 
Q 2067 1517 1734 1741 
z
" transform="scale(0.015625)"/>
      </defs>
      <use xlink:href="#STIXGeneral-Regular-31"/>
      <use xlink:href="#STIXGeneral-Regular-65" x="49.999985"/>
      <use xlink:href="#STIXGeneral-Regular-38" x="94.399979"/>
     </g>
    </g>
   </g>
   <g id="matplotlib.axis_2">
    <g id="ytick_1">
     <g id="line2d_13">
      <path d="M 70.4 295.183135 
L 516.8 295.183135 
" clip-path="url(#peff2aaa35b)" style="fill: none; stroke: #b0b0b0; stroke-width: 0.8; stroke-linecap: square"/>
     </g>
     <g id="line2d_14">
      <defs>
       <path id="me1ac05beb1" d="M 0 0 
L -3.5 0 
" style="stroke: #000000; stroke-width: 0.8"/>
      </defs>
      <g>
       <use xlink:href="#me1ac05beb1" x="70.4" y="295.183135" style="stroke: #000000; stroke-width: 0.8"/>
      </g>
     </g>
     <g id="text_9">
      <!-- 0 -->
      <g transform="translate(54.4 301.329854)scale(0.18 -0.18)">
       <use xlink:href="#STIXGeneral-Regular-30"/>
      </g>
     </g>
    </g>
    <g id="ytick_2">
     <g id="line2d_15">
      <path d="M 70.4 243.096323 
L 516.8 243.096323 
" clip-path="url(#peff2aaa35b)" style="fill: none; stroke: #b0b0b0; stroke-width: 0.8; stroke-linecap: square"/>
     </g>
     <g id="line2d_16">
      <g>
       <use xlink:href="#me1ac05beb1" x="70.4" y="243.096323" style="stroke: #000000; stroke-width: 0.8"/>
      </g>
     </g>
     <g id="text_10">
      <!-- 200 -->
      <g transform="translate(36.4 249.243041)scale(0.18 -0.18)">
       <use xlink:href="#STIXGeneral-Regular-32"/>
       <use xlink:href="#STIXGeneral-Regular-30" x="49.999985"/>
       <use xlink:href="#STIXGeneral-Regular-30" x="99.999969"/>
      </g>
     </g>
    </g>
    <g id="ytick_3">
     <g id="line2d_17">
      <path d="M 70.4 191.009511 
L 516.8 191.009511 
" clip-path="url(#peff2aaa35b)" style="fill: none; stroke: #b0b0b0; stroke-width: 0.8; stroke-linecap: square"/>
     </g>
     <g id="line2d_18">
      <g>
       <use xlink:href="#me1ac05beb1" x="70.4" y="191.009511" style="stroke: #000000; stroke-width: 0.8"/>
      </g>
     </g>
     <g id="text_11">
      <!-- 400 -->
      <g transform="translate(36.4 197.156229)scale(0.18 -0.18)">
       <defs>
        <path id="STIXGeneral-Regular-34" d="M 3027 1069 
L 2368 1069 
L 2368 0 
L 1869 0 
L 1869 1069 
L 77 1069 
L 77 1478 
L 2086 4326 
L 2368 4326 
L 2368 1478 
L 3027 1478 
L 3027 1069 
z
M 1869 1478 
L 1869 3674 
L 333 1478 
L 1869 1478 
z
" transform="scale(0.015625)"/>
       </defs>
       <use xlink:href="#STIXGeneral-Regular-34"/>
       <use xlink:href="#STIXGeneral-Regular-30" x="49.999985"/>
       <use xlink:href="#STIXGeneral-Regular-30" x="99.999969"/>
      </g>
     </g>
    </g>
    <g id="ytick_4">
     <g id="line2d_19">
      <path d="M 70.4 138.922699 
L 516.8 138.922699 
" clip-path="url(#peff2aaa35b)" style="fill: none; stroke: #b0b0b0; stroke-width: 0.8; stroke-linecap: square"/>
     </g>
     <g id="line2d_20">
      <g>
       <use xlink:href="#me1ac05beb1" x="70.4" y="138.922699" style="stroke: #000000; stroke-width: 0.8"/>
      </g>
     </g>
     <g id="text_12">
      <!-- 600 -->
      <g transform="translate(36.4 145.069417)scale(0.18 -0.18)">
       <defs>
        <path id="STIXGeneral-Regular-36" d="M 2854 4378 
L 2867 4275 
Q 2112 4154 1606 3664 
Q 1101 3174 973 2451 
Q 1344 2739 1786 2739 
Q 2349 2739 2672 2380 
Q 2995 2022 2995 1402 
Q 2995 774 2669 378 
Q 2291 -90 1651 -90 
Q 870 -90 518 557 
Q 218 1107 218 1786 
Q 218 2835 915 3552 
Q 1312 3962 1731 4131 
Q 2150 4301 2854 4378 
z
M 2419 1203 
Q 2419 2445 1555 2445 
Q 1235 2445 1024 2275 
Q 813 2106 813 1702 
Q 813 954 1046 522 
Q 1280 90 1722 90 
Q 2061 90 2240 394 
Q 2419 698 2419 1203 
z
" transform="scale(0.015625)"/>
       </defs>
       <use xlink:href="#STIXGeneral-Regular-36"/>
       <use xlink:href="#STIXGeneral-Regular-30" x="49.999985"/>
       <use xlink:href="#STIXGeneral-Regular-30" x="99.999969"/>
      </g>
     </g>
    </g>
    <g id="ytick_5">
     <g id="line2d_21">
      <path d="M 70.4 86.835887 
L 516.8 86.835887 
" clip-path="url(#peff2aaa35b)" style="fill: none; stroke: #b0b0b0; stroke-width: 0.8; stroke-linecap: square"/>
     </g>
     <g id="line2d_22">
      <g>
       <use xlink:href="#me1ac05beb1" x="70.4" y="86.835887" style="stroke: #000000; stroke-width: 0.8"/>
      </g>
     </g>
     <g id="text_13">
      <!-- 800 -->
      <g transform="translate(36.4 92.982605)scale(0.18 -0.18)">
       <use xlink:href="#STIXGeneral-Regular-38"/>
       <use xlink:href="#STIXGeneral-Regular-30" x="49.999985"/>
       <use xlink:href="#STIXGeneral-Regular-30" x="99.999969"/>
      </g>
     </g>
    </g>
    <g id="ytick_6">
     <g id="line2d_23">
      <path d="M 70.4 34.749074 
L 516.8 34.749074 
" clip-path="url(#peff2aaa35b)" style="fill: none; stroke: #b0b0b0; stroke-width: 0.8; stroke-linecap: square"/>
     </g>
     <g id="line2d_24">
      <g>
       <use xlink:href="#me1ac05beb1" x="70.4" y="34.749074" style="stroke: #000000; stroke-width: 0.8"/>
      </g>
     </g>
     <g id="text_14">
      <!-- 1000 -->
      <g transform="translate(27.4 40.895793)scale(0.18 -0.18)">
       <use xlink:href="#STIXGeneral-Regular-31"/>
       <use xlink:href="#STIXGeneral-Regular-30" x="49.999985"/>
       <use xlink:href="#STIXGeneral-Regular-30" x="99.999969"/>
       <use xlink:href="#STIXGeneral-Regular-30" x="149.999954"/>
      </g>
     </g>
    </g>
    <g id="text_15">
     <!-- Average Test Return -->
     <g transform="translate(19.476562 241.533375)rotate(-90)scale(0.18 -0.18)">
      <defs>
       <path id="STIXGeneral-Regular-41" d="M 4525 0 
L 2893 0 
L 2893 122 
Q 3149 122 3245 179 
Q 3334 224 3334 333 
Q 3334 499 3213 781 
L 2950 1382 
L 1274 1382 
L 979 653 
Q 922 506 922 384 
Q 922 237 1027 179 
Q 1133 122 1370 122 
L 1370 0 
L 96 0 
L 96 122 
Q 365 147 486 316 
Q 608 486 902 1190 
L 2221 4314 
L 2349 4314 
L 3923 710 
Q 4064 378 4176 262 
Q 4288 147 4525 122 
L 4525 0 
z
M 2861 1645 
L 2118 3405 
L 1382 1645 
L 2861 1645 
z
" transform="scale(0.015625)"/>
       <path id="STIXGeneral-Regular-52" d="M 4224 0 
L 3187 0 
L 1664 1971 
L 1306 1958 
L 1306 717 
Q 1306 352 1405 249 
Q 1504 147 1875 122 
L 1875 0 
L 109 0 
L 109 122 
Q 474 154 563 262 
Q 653 371 653 794 
L 653 3526 
Q 653 3885 563 3987 
Q 474 4090 109 4115 
L 109 4237 
L 1850 4237 
Q 2726 4237 3187 3859 
Q 3501 3603 3501 3091 
Q 3501 2221 2342 2042 
L 3622 422 
Q 3757 256 3878 198 
Q 4000 141 4224 122 
L 4224 0 
z
M 1306 3731 
L 1306 2195 
Q 1766 2202 1990 2246 
Q 2214 2291 2438 2413 
Q 2803 2618 2803 3142 
Q 2803 4000 1632 4000 
Q 1459 4000 1382 3945 
Q 1306 3891 1306 3731 
z
" transform="scale(0.015625)"/>
       <path id="STIXGeneral-Regular-75" d="M 3072 320 
L 3072 230 
Q 2573 96 2195 -58 
L 2163 -38 
L 2163 486 
L 2150 486 
Q 1747 -64 1235 -64 
Q 870 -64 662 160 
Q 454 384 454 755 
L 454 2362 
Q 454 2598 371 2688 
Q 288 2778 58 2790 
L 58 2880 
L 992 2880 
L 992 813 
Q 992 595 1123 451 
Q 1254 307 1446 307 
Q 1760 307 1984 506 
Q 2067 582 2099 649 
Q 2131 717 2131 877 
L 2131 2355 
Q 2131 2605 2041 2678 
Q 1952 2752 1658 2771 
L 1658 2880 
L 2669 2880 
L 2669 685 
Q 2669 461 2742 390 
Q 2816 320 3034 320 
L 3072 320 
z
" transform="scale(0.015625)"/>
      </defs>
      <use xlink:href="#STIXGeneral-Regular-41"/>
      <use xlink:href="#STIXGeneral-Regular-76" x="72.199982"/>
      <use xlink:href="#STIXGeneral-Regular-65" x="122.199966"/>
      <use xlink:href="#STIXGeneral-Regular-72" x="166.59996"/>
      <use xlink:href="#STIXGeneral-Regular-61" x="199.899948"/>
      <use xlink:href="#STIXGeneral-Regular-67" x="244.299942"/>
      <use xlink:href="#STIXGeneral-Regular-65" x="294.299927"/>
      <use xlink:href="#STIXGeneral-Regular-20" x="338.699921"/>
      <use xlink:href="#STIXGeneral-Regular-54" x="363.699905"/>
      <use xlink:href="#STIXGeneral-Regular-65" x="424.799896"/>
      <use xlink:href="#STIXGeneral-Regular-73" x="469.19989"/>
      <use xlink:href="#STIXGeneral-Regular-74" x="508.099884"/>
      <use xlink:href="#STIXGeneral-Regular-20" x="535.899872"/>
      <use xlink:href="#STIXGeneral-Regular-52" x="560.899857"/>
      <use xlink:href="#STIXGeneral-Regular-65" x="627.599854"/>
      <use xlink:href="#STIXGeneral-Regular-74" x="671.999847"/>
      <use xlink:href="#STIXGeneral-Regular-75" x="699.799835"/>
      <use xlink:href="#STIXGeneral-Regular-72" x="749.79982"/>
      <use xlink:href="#STIXGeneral-Regular-6e" x="783.099808"/>
     </g>
    </g>
   </g>
   <g id="line2d_25">
    <path d="M 90.690909 292.552125 
L 91.325496 292.267989 
L 91.642789 291.975989 
L 91.960082 291.917941 
L 92.594669 291.472132 
L 93.546549 290.987911 
L 94.815723 290.92874 
L 95.133016 290.592856 
L 96.402189 290.277312 
L 96.719483 289.88928 
L 97.036776 289.691312 
L 97.354069 289.824113 
L 97.671363 289.714568 
L 97.988656 289.223883 
L 98.305949 289.105155 
L 98.940536 288.322326 
L 99.257829 288.279529 
L 99.575123 288.350926 
L 100.209709 288.055874 
L 100.527003 287.954402 
L 100.844296 287.606595 
L 101.161589 286.862807 
L 101.478883 287.266374 
L 101.796176 287.423456 
L 102.113469 287.435701 
L 102.430763 287.226788 
L 102.748056 287.1834 
L 103.065349 287.285102 
L 103.382643 286.969697 
L 103.699936 286.976149 
L 104.017229 286.860279 
L 104.334523 286.165057 
L 104.651816 284.037646 
L 104.969109 284.421258 
L 105.286403 281.136295 
L 105.603696 283.153273 
L 106.238283 278.629843 
L 106.555576 276.611202 
L 106.872869 276.435336 
L 107.190163 275.247191 
L 107.507456 276.441098 
L 107.824749 278.398293 
L 108.142043 268.986028 
L 108.459336 265.352505 
L 109.093923 244.30226 
L 109.411216 244.423596 
L 109.728509 245.127615 
L 110.045803 242.545248 
L 110.363096 243.563952 
L 110.997683 222.947869 
L 111.314976 222.018104 
L 111.63227 225.338035 
L 111.949563 227.152528 
L 112.266856 222.701698 
L 112.58415 227.252927 
L 112.901443 234.205141 
L 113.218736 232.753474 
L 113.53603 242.649107 
L 113.853323 241.516936 
L 114.170616 228.479161 
L 114.48791 229.49292 
L 115.122496 215.454551 
L 115.757083 221.413536 
L 116.074376 219.594786 
L 116.39167 224.813927 
L 116.708963 214.905286 
L 117.026256 209.364635 
L 117.34355 214.406104 
L 117.660843 213.106702 
L 117.978136 207.633545 
L 118.29543 200.220121 
L 118.612723 210.295693 
L 118.930016 212.03326 
L 119.24731 200.429866 
L 119.564603 203.106704 
L 120.19919 196.719071 
L 120.516483 214.472415 
L 121.15107 206.235494 
L 121.468363 205.756994 
L 121.785656 209.849637 
L 122.420243 189.411708 
L 122.737536 187.602533 
L 123.05483 187.832884 
L 123.689416 200.846964 
L 124.641296 205.736313 
L 124.95859 193.520036 
L 125.275883 194.042067 
L 125.593176 190.281563 
L 125.91047 194.07936 
L 126.227763 194.931125 
L 126.545057 198.959561 
L 126.86235 190.445256 
L 127.179643 188.909823 
L 127.496937 184.46159 
L 127.81423 188.950167 
L 128.131523 184.43967 
L 128.448817 187.174558 
L 128.76611 182.164914 
L 129.083403 179.970279 
L 129.400697 187.755611 
L 130.035283 180.624955 
L 130.352577 178.166244 
L 130.66987 187.277049 
L 131.62175 154.642101 
L 131.939043 173.172088 
L 132.57363 152.557772 
L 132.890923 169.130128 
L 133.208217 173.348297 
L 133.842803 160.829533 
L 134.160097 168.498446 
L 134.794683 158.852072 
L 135.111977 147.060716 
L 135.42927 154.779203 
L 135.746563 158.263374 
L 136.063857 153.367367 
L 136.38115 145.90991 
L 136.698443 149.067069 
L 137.015737 159.777534 
L 137.650323 164.263013 
L 137.967617 162.311453 
L 138.28491 171.609929 
L 138.602203 170.7927 
L 138.919497 173.097238 
L 139.23679 170.871967 
L 139.554083 165.127133 
L 139.871377 170.737444 
L 140.18867 193.159303 
L 140.505963 191.951656 
L 141.457843 160.975655 
L 141.775137 170.723122 
L 142.09243 170.892995 
L 142.409724 157.821038 
L 142.727017 160.643519 
L 143.361604 144.725657 
L 143.678897 148.572673 
L 143.99619 150.101506 
L 144.313484 152.212225 
L 144.94807 145.992987 
L 145.265364 149.470905 
L 145.582657 155.727582 
L 145.89995 143.729722 
L 146.217244 145.887036 
L 146.534537 144.939885 
L 146.85183 151.157975 
L 147.486417 137.990154 
L 147.80371 137.57658 
L 148.121004 138.930556 
L 148.438297 141.761897 
L 148.75559 139.900398 
L 149.072884 132.835822 
L 149.390177 137.6392 
L 149.70747 138.4408 
L 150.024764 154.550382 
L 150.342057 149.47907 
L 150.65935 153.782297 
L 150.976644 142.921455 
L 151.61123 162.021206 
L 152.245817 141.270197 
L 152.56311 142.798422 
L 152.880404 149.403012 
L 153.197697 147.094965 
L 153.51499 155.27395 
L 153.832284 144.980828 
L 154.149577 156.980686 
L 154.46687 149.91901 
L 154.784164 153.514355 
L 155.101457 165.894673 
L 155.41875 164.188019 
L 155.736044 150.338768 
L 156.053337 149.721064 
L 156.37063 134.503538 
L 156.687924 141.235116 
L 157.005217 138.905128 
L 157.32251 131.379737 
L 157.639804 137.357477 
L 157.957097 135.343104 
L 158.274391 147.514191 
L 158.591684 149.867934 
L 158.908977 130.995349 
L 159.226271 134.775384 
L 159.543564 131.375652 
L 159.860857 131.127377 
L 160.178151 133.218902 
L 160.495444 129.59485 
L 160.812737 129.455218 
L 161.130031 141.206387 
L 161.447324 134.974633 
L 161.764617 146.929098 
L 162.081911 134.295144 
L 162.399204 133.415652 
L 162.716497 126.278114 
L 163.033791 123.863042 
L 163.351084 118.82842 
L 163.668377 121.778442 
L 163.985671 137.873628 
L 164.302964 135.802264 
L 164.620257 123.837415 
L 164.937551 125.87789 
L 165.254844 118.933588 
L 165.572137 126.2317 
L 165.889431 117.735002 
L 166.206724 121.600811 
L 166.524017 121.43476 
L 166.841311 119.851571 
L 167.158604 106.824714 
L 167.475897 108.000385 
L 167.793191 112.265182 
L 168.110484 109.711612 
L 168.745071 119.275116 
L 169.062364 119.903785 
L 169.379657 125.540247 
L 169.696951 126.833438 
L 170.014244 124.715267 
L 170.331537 136.515884 
L 170.648831 134.291275 
L 170.966124 145.458078 
L 171.283417 137.632785 
L 171.600711 122.454482 
L 171.918004 132.046501 
L 172.235297 127.693489 
L 172.552591 125.726459 
L 172.869884 116.912039 
L 173.187177 114.977874 
L 173.504471 114.126024 
L 173.821764 105.730342 
L 174.139058 112.881667 
L 174.456351 115.602349 
L 174.773644 105.041846 
L 175.090938 107.501502 
L 175.408231 99.6211 
L 175.725524 100.035541 
L 176.360111 111.597383 
L 176.677404 109.212144 
L 176.994698 111.660069 
L 177.311991 99.602778 
L 177.629284 96.539068 
L 177.946578 97.634235 
L 178.263871 95.831448 
L 178.581164 96.022679 
L 178.898458 93.916855 
L 179.215751 113.060448 
L 179.533044 112.528106 
L 179.850338 101.089966 
L 180.802218 113.908252 
L 181.119511 111.960806 
L 181.436804 104.732123 
L 181.754098 92.777305 
L 182.071391 93.304145 
L 182.388684 94.098288 
L 182.705978 100.951517 
L 183.023271 96.660215 
L 183.340564 102.912985 
L 183.657858 99.686171 
L 183.975151 109.821341 
L 184.292444 98.173077 
L 184.609738 113.364078 
L 185.561618 123.242968 
L 185.878911 111.453218 
L 186.196204 110.898103 
L 186.513498 113.253349 
L 186.830791 113.883928 
L 187.148084 100.42617 
L 187.782671 109.902381 
L 188.099964 109.754899 
L 188.417258 109.877224 
L 188.734551 107.656497 
L 189.051844 109.066675 
L 189.369138 99.627022 
L 189.686431 107.447426 
L 190.003725 99.882508 
L 190.321018 100.296617 
L 190.638311 104.030365 
L 191.272898 99.965134 
L 191.590191 99.396715 
L 192.224778 90.41433 
L 192.542071 92.159492 
L 193.176658 97.180703 
L 193.493951 102.726683 
L 193.811245 102.20176 
L 194.128538 97.27678 
L 194.445831 98.805448 
L 194.763125 87.953764 
L 195.080418 83.723198 
L 195.397711 84.095399 
L 196.032298 87.438016 
L 196.349591 99.693885 
L 196.666885 94.652628 
L 196.984178 95.867817 
L 197.301471 101.826588 
L 197.618765 93.902816 
L 197.936058 97.668434 
L 198.253351 98.680449 
L 198.570645 103.458291 
L 198.887938 94.444669 
L 199.205231 95.152112 
L 199.522525 95.322649 
L 200.157111 82.668621 
L 200.791698 97.482879 
L 201.108991 97.448747 
L 201.426285 98.835744 
L 201.743578 112.735055 
L 202.060871 107.077761 
L 202.378165 104.68048 
L 202.695458 107.509968 
L 203.012751 107.077805 
L 203.647338 89.934211 
L 203.964631 88.556703 
L 204.281925 89.638591 
L 204.599218 86.320758 
L 204.916511 98.36926 
L 205.551098 89.90838 
L 206.185685 87.553196 
L 206.502978 95.636093 
L 206.820272 87.402313 
L 207.137565 85.325522 
L 207.454858 81.62576 
L 208.089445 92.230445 
L 208.406738 95.77146 
L 208.724032 113.549937 
L 209.041325 111.361519 
L 209.675912 93.799814 
L 209.993205 100.286159 
L 210.310498 98.957211 
L 210.627792 91.695686 
L 210.945085 88.971939 
L 211.262378 88.935158 
L 211.579672 82.278951 
L 211.896965 88.704369 
L 212.214258 90.580792 
L 212.531552 84.507202 
L 212.848845 87.397774 
L 213.166138 86.028012 
L 213.800725 82.141594 
L 214.118018 77.428511 
L 214.435312 83.426126 
L 214.752605 94.401224 
L 215.387192 76.446217 
L 215.704485 91.286958 
L 216.021778 77.73718 
L 216.339072 75.344543 
L 216.656365 80.88935 
L 216.973658 83.410517 
L 217.290952 78.103755 
L 217.608245 81.135392 
L 217.925538 86.20886 
L 218.242832 86.331838 
L 218.560125 95.76547 
L 218.877418 97.862553 
L 219.194712 88.485913 
L 219.512005 85.288845 
L 219.829298 86.262198 
L 220.146592 83.775936 
L 220.463885 86.386098 
L 220.781178 76.53398 
L 221.098472 71.878337 
L 221.415765 75.005885 
L 221.733058 72.708264 
L 222.367645 99.931522 
L 222.684939 88.587755 
L 223.319525 82.938885 
L 223.636819 82.194561 
L 223.954112 92.998546 
L 224.271405 81.718387 
L 224.588699 92.294704 
L 225.223285 79.364468 
L 225.540579 86.228505 
L 225.857872 86.948441 
L 226.175165 95.510593 
L 226.492459 91.388093 
L 226.809752 94.670485 
L 227.444339 87.689139 
L 227.761632 87.635256 
L 228.078925 73.359816 
L 228.396219 75.535073 
L 228.713512 88.488947 
L 229.982685 75.721137 
L 230.299979 83.482891 
L 230.617272 79.10278 
L 230.934565 81.085325 
L 231.251859 86.621462 
L 231.569152 87.03451 
L 231.886445 75.164125 
L 232.203739 72.926037 
L 232.838325 77.817449 
L 233.155619 88.951712 
L 233.472912 87.291589 
L 233.790205 82.256295 
L 234.107499 89.14438 
L 234.424792 93.229519 
L 234.742085 87.015937 
L 235.059379 86.873893 
L 235.376672 81.513809 
L 235.693965 86.422087 
L 236.011259 79.009707 
L 236.328552 87.102637 
L 236.645845 85.751976 
L 236.963139 87.334222 
L 237.915019 69.586221 
L 238.232312 73.492189 
L 238.549606 66.358768 
L 238.866899 70.766849 
L 239.184192 64.188351 
L 239.501486 69.081323 
L 239.818779 68.015184 
L 240.136072 75.18973 
L 240.453366 72.977044 
L 240.770659 73.447146 
L 241.087952 76.663688 
L 241.405246 68.433664 
L 241.722539 72.420921 
L 242.674419 65.737623 
L 242.991712 63.855531 
L 243.309006 65.081583 
L 243.626299 63.787501 
L 243.943592 63.114583 
L 244.260886 68.891594 
L 244.578179 68.38739 
L 244.895472 69.412287 
L 245.212766 71.136619 
L 245.530059 68.644594 
L 245.847352 63.882737 
L 246.164646 62.476907 
L 246.481939 66.861731 
L 246.799232 60.52614 
L 247.116526 60.357803 
L 247.433819 62.604617 
L 247.751112 67.255653 
L 248.068406 65.855391 
L 248.385699 70.190807 
L 248.702992 64.815151 
L 249.020286 63.342709 
L 249.337579 59.396041 
L 249.654872 61.499927 
L 249.972166 55.807588 
L 250.289459 53.921662 
L 250.606752 54.902592 
L 250.924046 62.691739 
L 251.241339 61.764731 
L 251.558632 61.719787 
L 251.875926 67.513878 
L 252.510512 72.774756 
L 252.827806 60.172448 
L 253.145099 60.89349 
L 253.462392 55.776275 
L 253.779686 53.749717 
L 254.096979 48.470699 
L 254.414273 47.308555 
L 254.731566 48.452637 
L 255.048859 52.578959 
L 255.366153 64.758629 
L 256.000739 55.29621 
L 256.318033 53.798074 
L 256.635326 56.008073 
L 256.952619 60.829949 
L 257.904499 53.808732 
L 258.221793 48.396918 
L 258.539086 53.704669 
L 258.856379 52.403349 
L 259.173673 50.589417 
L 259.490966 53.927248 
L 259.808259 55.061028 
L 260.442846 52.474183 
L 260.760139 53.214169 
L 261.077433 56.661006 
L 261.394726 58.423549 
L 261.712019 56.878247 
L 262.029313 59.819104 
L 262.346606 56.840526 
L 262.663899 56.118145 
L 262.981193 52.749244 
L 263.298486 56.590493 
L 263.615779 53.604057 
L 263.933073 58.927252 
L 264.250366 57.301359 
L 264.567659 59.035914 
L 264.884953 59.574148 
L 265.202246 56.707661 
L 265.519539 65.033288 
L 266.154126 62.818724 
L 266.471419 63.545932 
L 266.788713 56.403022 
L 267.106006 62.489469 
L 267.423299 64.361052 
L 267.740593 65.063199 
L 268.057886 65.194208 
L 268.375179 59.172438 
L 268.692473 60.998417 
L 269.009766 60.191119 
L 269.327059 63.047265 
L 269.644353 62.065637 
L 269.961646 56.896163 
L 270.596233 65.048859 
L 270.913526 65.260085 
L 271.23082 57.362908 
L 271.548113 54.077507 
L 271.865406 58.661988 
L 272.499993 55.485239 
L 272.817286 55.326902 
L 273.451873 55.624191 
L 273.769166 54.883314 
L 274.08646 57.166358 
L 274.403753 54.254002 
L 274.721046 53.683158 
L 275.03834 60.638484 
L 275.672926 65.988028 
L 275.99022 57.423297 
L 276.307513 56.248219 
L 276.624806 55.70422 
L 276.9421 53.451238 
L 277.259393 60.868015 
L 277.576686 60.863463 
L 277.89398 62.134824 
L 278.211273 64.338873 
L 278.528566 59.961452 
L 278.84586 57.528125 
L 279.163153 58.106616 
L 279.480446 55.441279 
L 279.79774 61.411399 
L 280.115033 55.619454 
L 280.432326 58.983542 
L 280.74962 58.511753 
L 281.066913 53.870199 
L 281.384206 55.945979 
L 281.7015 53.734045 
L 282.018793 55.64728 
L 282.336086 53.966224 
L 282.65338 53.20794 
L 282.970673 50.763008 
L 283.287966 49.255789 
L 283.60526 46.399327 
L 283.922553 49.662487 
L 284.239846 50.942848 
L 284.55714 53.92916 
L 284.874433 59.152452 
L 285.50902 58.271407 
L 285.826313 55.549417 
L 286.143607 57.881249 
L 286.4609 55.616914 
L 286.778193 55.628643 
L 287.095487 53.659962 
L 287.41278 50.368646 
L 287.730073 49.042658 
L 288.047367 50.555462 
L 288.681953 54.312392 
L 288.999247 62.510481 
L 289.633833 54.055432 
L 289.951127 55.927023 
L 290.26842 56.751604 
L 290.585713 54.803873 
L 290.903007 54.16498 
L 291.2203 54.327004 
L 291.854887 50.081193 
L 292.17218 54.496478 
L 292.489473 53.594018 
L 292.806767 54.46855 
L 293.441353 49.88189 
L 293.758647 50.217696 
L 294.393233 49.000565 
L 294.710527 49.644374 
L 295.02782 51.403025 
L 295.345113 49.578149 
L 295.662407 49.855309 
L 295.9797 55.390101 
L 296.296993 53.757623 
L 296.614287 55.477692 
L 296.93158 53.497517 
L 297.248873 53.895097 
L 297.566167 55.226934 
L 297.88346 55.057948 
L 298.518047 48.202384 
L 298.83534 51.660984 
L 299.152633 49.80881 
L 299.469927 49.177268 
L 299.78722 51.053577 
L 300.104513 51.253531 
L 300.421807 50.658568 
L 300.7391 56.016217 
L 301.056393 50.166099 
L 301.373687 50.30503 
L 301.69098 47.340286 
L 302.008274 53.473269 
L 302.325567 52.092805 
L 302.64286 48.746403 
L 302.960154 49.886044 
L 303.277447 47.643353 
L 303.912034 49.400458 
L 304.229327 46.100755 
L 304.54662 45.791488 
L 304.863914 46.365592 
L 305.181207 44.189249 
L 305.4985 43.474481 
L 305.815794 48.825451 
L 306.133087 48.581104 
L 306.45038 52.171833 
L 307.40226 48.800538 
L 307.719554 46.482003 
L 308.036847 51.344498 
L 308.35414 51.525403 
L 308.671434 53.253952 
L 308.988727 50.78565 
L 309.30602 47.222849 
L 309.623314 47.374616 
L 309.940607 47.302276 
L 310.575194 49.650192 
L 310.892487 52.42973 
L 311.20978 49.169037 
L 311.527074 47.975892 
L 311.844367 51.296109 
L 312.16166 51.168125 
L 312.478954 53.433924 
L 312.796247 50.307752 
L 313.430834 47.568618 
L 313.748127 48.432469 
L 314.06542 45.802643 
L 314.382714 48.702833 
L 314.700007 49.866699 
L 315.0173 46.54067 
L 315.334594 45.084919 
L 315.651887 45.836975 
L 315.96918 44.658245 
L 316.286474 44.774369 
L 316.603767 46.058051 
L 316.92106 46.298986 
L 317.238354 46.855205 
L 317.555647 45.233316 
L 317.872941 50.336931 
L 318.190234 50.55396 
L 318.507527 54.935508 
L 319.142114 58.614199 
L 319.459407 55.612947 
L 320.093994 52.204087 
L 320.411287 49.191978 
L 320.728581 50.767412 
L 321.045874 51.430131 
L 321.363167 52.72034 
L 321.680461 50.342157 
L 321.997754 50.142436 
L 322.315047 48.852786 
L 322.632341 51.091434 
L 322.949634 48.95458 
L 323.266927 47.679658 
L 323.584221 46.967561 
L 323.901514 48.220504 
L 324.536101 49.445342 
L 324.853394 51.556864 
L 325.170687 59.452886 
L 325.487981 55.20045 
L 325.805274 55.112221 
L 326.122567 51.456347 
L 326.439861 54.844085 
L 326.757154 55.521765 
L 327.074447 57.290158 
L 327.391741 57.216544 
L 327.709034 51.935248 
L 328.026327 51.055232 
L 328.660914 60.411686 
L 328.978207 56.578771 
L 329.295501 60.008114 
L 329.612794 65.193084 
L 329.930087 57.589837 
L 330.247381 56.811138 
L 330.564674 50.601233 
L 330.881967 52.371428 
L 331.199261 54.897705 
L 331.516554 50.712712 
L 331.833847 48.928807 
L 332.468434 47.503277 
L 332.785727 48.361391 
L 333.103021 45.411958 
L 333.420314 46.479211 
L 333.737608 51.784187 
L 334.054901 49.894756 
L 334.372194 57.858333 
L 334.689488 54.972819 
L 335.006781 50.761557 
L 335.324074 50.322704 
L 335.958661 46.871448 
L 336.275954 49.17053 
L 336.593248 49.87362 
L 336.910541 51.559335 
L 337.227834 48.908258 
L 337.545128 50.484741 
L 337.862421 48.379673 
L 338.179714 48.336883 
L 338.497008 47.477388 
L 338.814301 49.132672 
L 339.131594 47.176553 
L 339.448888 48.650364 
L 340.083474 46.166755 
L 340.400768 52.987804 
L 340.718061 51.779456 
L 341.035354 51.192848 
L 341.352648 52.71719 
L 341.669941 49.458232 
L 341.987234 50.724393 
L 342.304528 47.944126 
L 342.621821 46.467451 
L 342.939114 47.008104 
L 343.256408 51.006511 
L 343.573701 51.341685 
L 343.890994 49.323111 
L 344.208288 46.027591 
L 344.525581 46.560963 
L 344.842874 53.79118 
L 345.160168 48.687043 
L 345.477461 56.274343 
L 345.794754 51.732494 
L 346.112048 50.581593 
L 346.429341 48.336936 
L 346.746634 49.015659 
L 347.381221 43.467954 
L 347.698514 51.62808 
L 348.015808 49.756895 
L 348.333101 50.317475 
L 348.650394 47.674688 
L 348.967688 50.910887 
L 349.284981 49.391662 
L 349.602275 50.317033 
L 349.919568 50.551393 
L 350.236861 51.970666 
L 350.554155 62.160565 
L 350.871448 55.778483 
L 351.188741 52.653823 
L 351.506035 52.796406 
L 351.823328 52.130983 
L 352.140621 56.528134 
L 352.457915 56.350246 
L 352.775208 50.177963 
L 353.409795 45.51125 
L 354.044381 52.121778 
L 354.361675 51.385619 
L 354.678968 50.167111 
L 355.313555 58.853471 
L 356.265435 48.653182 
L 356.582728 49.108596 
L 356.900021 52.622125 
L 357.217315 48.100351 
L 357.534608 52.43508 
L 357.851901 51.854826 
L 358.169195 55.305438 
L 358.486488 52.988712 
L 358.803781 52.67165 
L 359.121075 48.43244 
L 359.438368 47.165886 
L 359.755661 55.993735 
L 360.072955 59.502193 
L 360.390248 56.90972 
L 360.707541 60.660605 
L 361.024835 56.738779 
L 361.342128 55.744284 
L 361.659421 58.226252 
L 361.976715 56.563145 
L 362.294008 56.256773 
L 362.611301 58.682809 
L 362.928595 59.896537 
L 363.245888 59.891718 
L 363.563181 60.646025 
L 363.880475 60.615592 
L 364.197768 56.524088 
L 364.515061 58.67906 
L 365.149648 56.673576 
L 365.466942 57.896724 
L 365.784235 53.43716 
L 366.101528 54.56395 
L 366.418822 54.133363 
L 366.736115 51.079408 
L 367.053408 62.146449 
L 367.370702 58.214622 
L 367.687995 57.614479 
L 368.322582 49.397606 
L 368.639875 53.703877 
L 368.957168 50.857653 
L 369.274462 49.653963 
L 369.591755 53.134268 
L 369.909048 53.679532 
L 370.226342 54.471078 
L 370.543635 53.123642 
L 370.860928 52.564467 
L 372.130102 55.597024 
L 372.764688 51.159289 
L 373.081982 49.733524 
L 373.399275 46.304212 
L 373.716568 45.246136 
L 374.033862 43.695085 
L 374.351155 45.093617 
L 374.668448 51.730064 
L 374.985742 47.449865 
L 375.303035 48.620894 
L 375.620328 49.163271 
L 375.937622 46.077469 
L 376.254915 49.35776 
L 376.572208 45.856603 
L 376.889502 48.102328 
L 377.206795 51.421095 
L 377.524088 51.04889 
L 377.841382 51.536141 
L 378.158675 54.202345 
L 378.475968 54.422651 
L 378.793262 53.40455 
L 379.110555 56.605437 
L 379.745142 49.742958 
L 380.062435 50.964883 
L 380.379728 47.185364 
L 380.697022 46.808768 
L 381.014315 44.441993 
L 381.331609 48.691252 
L 381.648902 49.694499 
L 381.966195 53.086634 
L 382.283489 51.904231 
L 382.918075 48.983778 
L 383.235369 51.703513 
L 383.552662 49.576589 
L 383.869955 51.082769 
L 384.821835 46.579033 
L 385.139129 49.276274 
L 385.456422 53.71652 
L 385.773715 52.950079 
L 386.091009 51.833934 
L 386.408302 49.363691 
L 386.725595 48.43493 
L 387.042889 46.986462 
L 387.360182 49.408159 
L 388.312062 45.033845 
L 388.629355 43.232421 
L 388.946649 46.161621 
L 389.263942 52.924537 
L 389.898529 48.027342 
L 390.215822 47.414612 
L 390.533115 49.793581 
L 390.850409 49.93196 
L 391.167702 48.559844 
L 391.484995 49.34836 
L 391.802289 46.089245 
L 392.119582 44.568178 
L 392.436875 48.827614 
L 392.754169 49.266747 
L 393.071462 48.746604 
L 393.388755 46.221668 
L 393.706049 44.824696 
L 394.023342 45.163909 
L 394.340635 43.426332 
L 394.657929 44.407758 
L 394.975222 46.356612 
L 395.292515 45.240393 
L 395.609809 43.38975 
L 395.927102 43.876474 
L 396.244395 50.398504 
L 396.561689 52.518109 
L 396.878982 50.766414 
L 397.513569 52.941964 
L 397.830862 47.941158 
L 398.148156 50.197736 
L 398.465449 48.624883 
L 398.782742 49.878514 
L 399.100036 47.453181 
L 399.417329 51.047489 
L 399.734622 49.943047 
L 400.051916 53.42562 
L 400.369209 53.941273 
L 400.686502 57.145603 
L 401.003796 53.048156 
L 401.638382 53.621007 
L 402.272969 51.742963 
L 402.907556 48.220308 
L 403.224849 49.626638 
L 403.542142 54.543699 
L 403.859436 49.425382 
L 404.176729 48.216323 
L 404.494022 48.199433 
L 404.811316 45.594591 
L 405.128609 46.223045 
L 405.445902 48.458482 
L 405.763196 53.353506 
L 406.080489 54.789693 
L 406.397782 51.148947 
L 406.715076 49.095601 
L 407.032369 54.407711 
L 407.349662 55.397972 
L 407.666956 49.533631 
L 407.984249 49.215917 
L 408.301542 47.339792 
L 408.618836 48.564795 
L 408.936129 48.529628 
L 409.253422 49.495742 
L 409.570716 48.110545 
L 409.888009 53.444033 
L 410.205302 52.762724 
L 410.522596 50.24027 
L 410.839889 51.645128 
L 411.157182 49.233044 
L 411.474476 51.730072 
L 411.791769 55.705508 
L 412.109062 53.003716 
L 412.426356 48.281511 
L 412.743649 53.680053 
L 413.060942 52.148238 
L 413.378236 51.70081 
L 413.695529 50.201771 
L 414.012823 50.503256 
L 414.330116 55.181244 
L 414.647409 50.758252 
L 414.964703 49.250849 
L 415.281996 48.475913 
L 415.599289 48.533491 
L 415.916583 49.911645 
L 416.233876 49.587884 
L 416.551169 56.205403 
L 417.185756 47.545506 
L 417.820343 48.767077 
L 418.137636 50.814463 
L 418.454929 49.216771 
L 418.772223 50.425927 
L 419.089516 49.749126 
L 419.406809 52.64633 
L 419.724103 50.602039 
L 420.041396 46.778168 
L 420.358689 46.599485 
L 420.675983 51.510367 
L 420.993276 53.683403 
L 421.310569 50.22664 
L 421.627863 49.95689 
L 421.945156 50.165548 
L 422.262449 48.163087 
L 422.579743 50.174417 
L 422.897036 45.790739 
L 423.214329 47.009412 
L 423.531623 52.812856 
L 423.848916 55.652643 
L 424.166209 44.527804 
L 424.800796 52.675884 
L 425.435383 49.58811 
L 425.752676 55.672825 
L 426.069969 57.052403 
L 426.387263 50.845531 
L 426.704556 48.234445 
L 427.021849 48.135698 
L 427.656436 52.391054 
L 427.973729 48.346669 
L 428.291023 48.850163 
L 428.608316 49.653436 
L 428.925609 54.783226 
L 429.242903 55.998653 
L 429.560196 55.309014 
L 429.87749 52.397785 
L 430.194783 53.254561 
L 430.512076 59.142865 
L 430.82937 52.679388 
L 431.463956 62.38864 
L 431.78125 53.243424 
L 432.098543 54.119393 
L 432.415836 59.513356 
L 432.73313 59.32343 
L 433.050423 56.265253 
L 433.367716 59.405598 
L 433.68501 50.185458 
L 434.002303 48.522257 
L 434.319596 57.645843 
L 434.63689 55.7142 
L 434.954183 54.583584 
L 435.271476 67.711043 
L 435.58877 70.264402 
L 435.906063 61.376136 
L 436.223356 61.014008 
L 436.857943 50.616651 
L 437.49253 60.879931 
L 437.809823 65.071701 
L 438.127116 62.000714 
L 438.44441 63.113126 
L 438.761703 60.393722 
L 439.078996 51.122868 
L 439.39629 50.499681 
L 439.713583 60.024674 
L 440.030876 56.279821 
L 440.34817 65.296925 
L 440.982756 62.615032 
L 441.30005 59.574996 
L 441.934636 72.606281 
L 442.25193 73.256461 
L 442.569223 64.877876 
L 442.886516 63.488485 
L 443.20381 67.853295 
L 443.521103 63.366 
L 444.15569 71.541868 
L 444.472983 70.256707 
L 444.790276 78.549434 
L 445.10757 81.024986 
L 445.424863 72.376521 
L 445.742157 72.103185 
L 446.05945 62.82478 
L 446.694037 51.628407 
L 447.01133 53.023644 
L 447.328623 56.757136 
L 447.645917 55.683551 
L 447.96321 62.528768 
L 448.280503 60.086719 
L 448.597797 58.756774 
L 448.91509 61.802009 
L 449.232383 60.351584 
L 449.549677 63.517854 
L 449.86697 60.626125 
L 450.184263 65.418935 
L 450.501557 59.53125 
L 450.81885 57.712405 
L 451.136143 52.353654 
L 451.77073 68.253985 
L 452.088023 70.216289 
L 452.405317 77.172306 
L 452.72261 76.13218 
L 453.039903 71.832634 
L 453.357197 73.413467 
L 453.67449 64.258658 
L 454.309077 82.909472 
L 454.62637 78.502002 
L 455.260957 56.844994 
L 455.57825 59.278792 
L 455.895543 57.226289 
L 456.212837 61.700874 
L 456.53013 62.153738 
L 456.847423 64.133939 
L 457.164717 68.089145 
L 457.48201 69.030174 
L 457.799303 69.075793 
L 458.116597 57.860246 
L 458.43389 54.834327 
L 458.751183 55.898524 
L 459.38577 70.619819 
L 459.703063 67.036954 
L 460.020357 69.778759 
L 460.654943 59.402373 
L 460.972237 64.948005 
L 461.28953 63.22576 
L 461.606824 66.409665 
L 461.924117 67.881893 
L 462.24141 62.915096 
L 462.875997 64.686278 
L 463.19329 63.32025 
L 463.510584 63.186333 
L 463.827877 62.241483 
L 464.14517 56.079431 
L 464.462464 57.730502 
L 464.779757 57.991268 
L 465.09705 58.781302 
L 465.414344 58.731682 
L 466.04893 48.72974 
L 466.366224 54.196168 
L 466.683517 55.459009 
L 467.00081 49.814212 
L 467.318104 51.122803 
L 467.635397 50.843599 
L 467.95269 47.482694 
L 468.269984 45.798923 
L 468.587277 45.002177 
L 468.90457 46.848249 
L 469.221864 52.279384 
L 469.539157 49.508005 
L 469.85645 47.935256 
L 470.173744 42.25079 
L 470.491037 46.304344 
L 470.80833 46.223047 
L 471.125624 50.491649 
L 471.442917 56.480138 
L 471.76021 48.513978 
L 472.077504 54.314021 
L 472.394797 55.219806 
L 472.71209 62.062832 
L 473.029384 63.409495 
L 473.66397 52.908081 
L 473.981264 52.06166 
L 474.298557 51.782291 
L 474.61585 57.509261 
L 474.933144 55.629408 
L 475.250437 51.68624 
L 475.56773 58.992381 
L 475.885024 57.569238 
L 476.202317 48.253776 
L 476.51961 51.522703 
L 476.836904 50.890705 
L 477.154197 42.455612 
L 477.471491 45.073871 
L 477.788784 44.774597 
L 478.423371 50.94529 
L 478.740664 49.726332 
L 479.057957 53.639763 
L 479.375251 51.354155 
L 479.692544 50.963513 
L 480.009837 52.749959 
L 480.327131 49.723779 
L 480.644424 45.512161 
L 480.961717 48.817559 
L 481.279011 40.676137 
L 481.596304 47.834344 
L 481.913597 49.970138 
L 482.230891 48.919192 
L 482.548184 55.100907 
L 482.865477 47.821794 
L 483.182771 45.487244 
L 483.500064 45.832515 
L 483.817357 48.48217 
L 484.134651 48.458041 
L 484.451944 41.697437 
L 484.769237 40.552125 
L 485.403824 54.403677 
L 485.721117 45.253031 
L 486.038411 50.089222 
L 486.355704 47.76259 
L 486.672997 50.077923 
L 486.990291 43.6276 
L 487.307584 43.553461 
L 487.624877 45.470347 
L 487.942171 49.809447 
L 488.259464 58.161417 
L 488.576757 57.274365 
L 488.894051 53.279913 
L 489.211344 60.214436 
L 489.528637 52.56877 
L 489.845931 47.711996 
L 490.163224 63.214581 
L 490.480517 66.861858 
L 490.797811 68.394047 
L 491.115104 60.115637 
L 491.432397 60.522352 
L 491.749691 47.602533 
L 492.066984 60.17319 
L 492.384277 60.598397 
L 492.701571 48.676181 
L 493.018864 54.037382 
L 493.336158 56.598466 
L 493.653451 56.239421 
L 493.970744 48.633453 
L 494.288038 49.946329 
L 494.605331 49.685185 
L 494.922624 56.558488 
L 495.239918 68.037494 
L 495.557211 68.100006 
L 495.874504 58.354088 
L 496.191798 57.968893 
L 496.509091 55.345947 
L 496.509091 55.345947 
" clip-path="url(#peff2aaa35b)" style="fill: none; stroke: #1f77b4; stroke-width: 1.5; stroke-linecap: square"/>
   </g>
   <g id="patch_3">
    <path d="M 70.4 305.152125 
L 70.4 27.952125 
" style="fill: none; stroke: #000000; stroke-width: 0.8; stroke-linejoin: miter; stroke-linecap: square"/>
   </g>
   <g id="patch_4">
    <path d="M 516.8 305.152125 
L 516.8 27.952125 
" style="fill: none; stroke: #000000; stroke-width: 0.8; stroke-linejoin: miter; stroke-linecap: square"/>
   </g>
   <g id="patch_5">
    <path d="M 70.4 305.152125 
L 516.8 305.152125 
" style="fill: none; stroke: #000000; stroke-width: 0.8; stroke-linejoin: miter; stroke-linecap: square"/>
   </g>
   <g id="patch_6">
    <path d="M 70.4 27.952125 
L 516.8 27.952125 
" style="fill: none; stroke: #000000; stroke-width: 0.8; stroke-linejoin: miter; stroke-linecap: square"/>
   </g>
   <g id="text_16">
    <!-- ML1 Meta Testing -->
    <g transform="translate(212.004313 21.952125)scale(0.216 -0.216)">
     <defs>
      <path id="STIXGeneral-Regular-4d" d="M 5530 0 
L 3738 0 
L 3738 122 
Q 4115 147 4214 265 
Q 4314 384 4314 787 
L 4314 3661 
L 2682 0 
L 2592 0 
L 979 3514 
L 979 966 
Q 979 448 1088 294 
Q 1197 141 1574 122 
L 1574 0 
L 77 0 
L 77 122 
Q 358 141 480 205 
Q 602 269 650 432 
Q 698 595 698 966 
L 698 3514 
Q 698 3878 589 3984 
Q 480 4090 90 4115 
L 90 4237 
L 1357 4237 
L 2835 1024 
L 4250 4237 
L 5523 4237 
L 5523 4115 
Q 5178 4109 5072 3993 
Q 4966 3878 4966 3520 
L 4966 717 
Q 4966 378 5072 262 
Q 5178 147 5530 122 
L 5530 0 
z
" transform="scale(0.015625)"/>
      <path id="STIXGeneral-Regular-4c" d="M 3827 1114 
L 3520 0 
L 77 0 
L 77 122 
Q 429 141 531 256 
Q 634 371 634 736 
L 634 3494 
Q 634 3872 541 3981 
Q 448 4090 77 4115 
L 77 4237 
L 1888 4237 
L 1888 4115 
Q 1498 4090 1392 3984 
Q 1286 3878 1286 3507 
L 1286 538 
Q 1286 358 1398 304 
Q 1510 250 1862 250 
L 2310 250 
Q 3085 250 3392 640 
Q 3520 813 3661 1114 
L 3827 1114 
z
" transform="scale(0.015625)"/>
     </defs>
     <use xlink:href="#STIXGeneral-Regular-4d"/>
     <use xlink:href="#STIXGeneral-Regular-4c" x="88.899994"/>
     <use xlink:href="#STIXGeneral-Regular-31" x="149.999985"/>
     <use xlink:href="#STIXGeneral-Regular-20" x="199.999969"/>
     <use xlink:href="#STIXGeneral-Regular-4d" x="224.999954"/>
     <use xlink:href="#STIXGeneral-Regular-65" x="313.899948"/>
     <use xlink:href="#STIXGeneral-Regular-74" x="358.299942"/>
     <use xlink:href="#STIXGeneral-Regular-61" x="386.09993"/>
     <use xlink:href="#STIXGeneral-Regular-20" x="430.499924"/>
     <use xlink:href="#STIXGeneral-Regular-54" x="455.499908"/>
     <use xlink:href="#STIXGeneral-Regular-65" x="516.599899"/>
     <use xlink:href="#STIXGeneral-Regular-73" x="560.999893"/>
     <use xlink:href="#STIXGeneral-Regular-74" x="599.899887"/>
     <use xlink:href="#STIXGeneral-Regular-69" x="627.699875"/>
     <use xlink:href="#STIXGeneral-Regular-6e" x="655.499863"/>
     <use xlink:href="#STIXGeneral-Regular-67" x="705.499847"/>
    </g>
   </g>
   <g id="legend_1">
    <g id="patch_7">
     <path d="M 76 51.752125 
L 172.43375 51.752125 
Q 175.23375 51.752125 175.23375 48.952125 
L 175.23375 33.552125 
Q 175.23375 30.752125 172.43375 30.752125 
L 76 30.752125 
Q 73.2 30.752125 73.2 33.552125 
L 73.2 48.952125 
Q 73.2 51.752125 76 51.752125 
z
" style="fill: #ffffff; opacity: 0.8; stroke: #cccccc; stroke-linejoin: miter"/>
    </g>
    <g id="line2d_26">
     <path d="M 77.4 40.663687 
L 84.4 40.663687 
L 91.4 40.663687 
" style="fill: none; stroke: #1f77b4; stroke-width: 1.5; stroke-linecap: square"/>
    </g>
    <g id="text_17">
     <!-- basketball-v2 -->
     <g transform="translate(95.6 44.513687)scale(0.14 -0.14)">
      <defs>
       <path id="STIXGeneral-Regular-62" d="M 979 4358 
L 979 2406 
Q 1082 2650 1315 2797 
Q 1549 2944 1843 2944 
Q 2349 2944 2672 2541 
Q 2995 2138 2995 1536 
Q 2995 832 2566 384 
Q 2138 -64 1498 -64 
Q 1107 -64 774 67 
Q 442 198 442 358 
L 442 3622 
Q 442 3859 384 3926 
Q 326 3994 128 3994 
Q 83 3994 19 3981 
L 19 4090 
L 211 4147 
Q 864 4346 947 4371 
L 979 4358 
z
M 979 2035 
L 979 474 
Q 979 326 1161 233 
Q 1344 141 1600 141 
Q 1978 141 2195 416 
Q 2432 710 2432 1261 
Q 2432 1888 2182 2240 
Q 1971 2541 1613 2541 
Q 1357 2541 1168 2390 
Q 979 2240 979 2035 
z
" transform="scale(0.015625)"/>
       <path id="STIXGeneral-Regular-6b" d="M 3232 0 
L 1837 0 
L 1837 96 
L 1958 96 
Q 2093 96 2093 192 
Q 2093 250 2022 339 
L 1062 1606 
L 1062 429 
Q 1062 262 1142 185 
Q 1222 109 1414 102 
L 1542 96 
L 1542 0 
L 45 0 
L 45 96 
Q 390 154 457 214 
Q 525 275 525 525 
L 525 3610 
Q 525 3840 467 3920 
Q 410 4000 250 4000 
Q 211 4000 45 3987 
L 45 4090 
L 237 4141 
Q 621 4243 1037 4371 
L 1062 4358 
L 1062 1670 
L 1939 2451 
Q 2086 2586 2086 2675 
Q 2086 2739 2019 2761 
Q 1952 2784 1766 2790 
L 1766 2880 
L 3072 2880 
L 3072 2784 
Q 2752 2784 2505 2646 
Q 2259 2509 1690 1978 
L 1504 1805 
L 2483 563 
Q 2829 122 3232 96 
L 3232 0 
z
" transform="scale(0.015625)"/>
       <path id="STIXGeneral-Regular-6c" d="M 1645 0 
L 134 0 
L 134 96 
Q 435 122 531 221 
Q 627 320 627 589 
L 627 3590 
Q 627 3821 569 3910 
Q 512 4000 358 4000 
Q 224 4000 122 3987 
L 122 4090 
Q 730 4237 1133 4371 
L 1165 4346 
L 1165 557 
Q 1165 288 1254 201 
Q 1344 115 1645 96 
L 1645 0 
z
" transform="scale(0.015625)"/>
       <path id="STIXGeneral-Regular-2d" d="M 1824 1242 
L 250 1242 
L 250 1645 
L 1824 1645 
L 1824 1242 
z
" transform="scale(0.015625)"/>
      </defs>
      <use xlink:href="#STIXGeneral-Regular-62"/>
      <use xlink:href="#STIXGeneral-Regular-61" x="49.999985"/>
      <use xlink:href="#STIXGeneral-Regular-73" x="94.399979"/>
      <use xlink:href="#STIXGeneral-Regular-6b" x="133.299973"/>
      <use xlink:href="#STIXGeneral-Regular-65" x="183.299957"/>
      <use xlink:href="#STIXGeneral-Regular-74" x="227.699951"/>
      <use xlink:href="#STIXGeneral-Regular-62" x="255.499939"/>
      <use xlink:href="#STIXGeneral-Regular-61" x="305.499924"/>
      <use xlink:href="#STIXGeneral-Regular-6c" x="349.899918"/>
      <use xlink:href="#STIXGeneral-Regular-6c" x="377.699905"/>
      <use xlink:href="#STIXGeneral-Regular-2d" x="405.499893"/>
      <use xlink:href="#STIXGeneral-Regular-76" x="438.799881"/>
      <use xlink:href="#STIXGeneral-Regular-32" x="488.799866"/>
     </g>
    </g>
   </g>
  </g>
 </g>
 <defs>
  <clipPath id="peff2aaa35b">
   <rect x="70.4" y="27.952125" width="446.4" height="277.2"/>
  </clipPath>
 </defs>
</svg>
