<?xml version="1.0" encoding="utf-8" standalone="no"?>
<!DOCTYPE svg PUBLIC "-//W3C//DTD SVG 1.1//EN"
  "http://www.w3.org/Graphics/SVG/1.1/DTD/svg11.dtd">
<svg xmlns:xlink="http://www.w3.org/1999/xlink" width="524.951962pt" height="355.769pt" viewBox="0 0 524.951962 355.769" xmlns="http://www.w3.org/2000/svg" version="1.1">
 <metadata>
  <rdf:RDF xmlns:dc="http://purl.org/dc/elements/1.1/" xmlns:cc="http://creativecommons.org/ns#" xmlns:rdf="http://www.w3.org/1999/02/22-rdf-syntax-ns#">
   <cc:Work>
    <dc:type rdf:resource="http://purl.org/dc/dcmitype/StillImage"/>
    <dc:date>2021-12-11T16:39:06.833168</dc:date>
    <dc:format>image/svg+xml</dc:format>
    <dc:creator>
     <cc:Agent>
      <dc:title>Matplotlib v3.5.0, https://matplotlib.org/</dc:title>
     </cc:Agent>
    </dc:creator>
   </cc:Work>
  </rdf:RDF>
 </metadata>
 <defs>
  <style type="text/css">*{stroke-linejoin: round; stroke-linecap: butt}</style>
 </defs>
 <g id="figure_1">
  <g id="patch_1">
   <path d="M 0 355.769 
L 524.951962 355.769 
L 524.951962 0 
L 0 0 
z
" style="fill: #ffffff"/>
  </g>
  <g id="axes_1">
   <g id="patch_2">
    <path d="M 70.4 305.152125 
L 516.8 305.152125 
L 516.8 27.952125 
L 70.4 27.952125 
z
" style="fill: #ffffff"/>
   </g>
   <g id="matplotlib.axis_1">
    <g id="xtick_1">
     <g id="line2d_1">
      <path d="M 90.146917 305.152125 
L 90.146917 27.952125 
" clip-path="url(#pc73d7033ed)" style="fill: none; stroke: #b0b0b0; stroke-width: 0.8; stroke-linecap: square"/>
     </g>
     <g id="line2d_2">
      <defs>
       <path id="ma6907fa0c3" d="M 0 0 
L 0 3.5 
" style="stroke: #000000; stroke-width: 0.8"/>
      </defs>
      <g>
       <use xlink:href="#ma6907fa0c3" x="90.146917" y="305.152125" style="stroke: #000000; stroke-width: 0.8"/>
      </g>
     </g>
     <g id="text_1">
      <!-- 0 -->
      <g transform="translate(85.646917 324.445562)scale(0.18 -0.18)">
       <defs>
        <path id="STIXGeneral-Regular-30" d="M 3046 2112 
Q 3046 1683 2963 1302 
Q 2880 922 2717 602 
Q 2554 282 2266 96 
Q 1978 -90 1600 -90 
Q 1210 -90 915 108 
Q 621 307 461 640 
Q 301 973 227 1350 
Q 154 1728 154 2150 
Q 154 2746 301 3222 
Q 448 3699 790 4012 
Q 1133 4326 1626 4326 
Q 2253 4326 2649 3712 
Q 3046 3098 3046 2112 
z
M 2432 2080 
Q 2432 3091 2217 3625 
Q 2003 4160 1587 4160 
Q 1190 4160 979 3622 
Q 768 3085 768 2106 
Q 768 1120 979 598 
Q 1190 77 1600 77 
Q 2003 77 2217 598 
Q 2432 1120 2432 2080 
z
" transform="scale(0.015625)"/>
       </defs>
       <use xlink:href="#STIXGeneral-Regular-30"/>
      </g>
     </g>
    </g>
    <g id="xtick_2">
     <g id="line2d_3">
      <path d="M 150.590495 305.152125 
L 150.590495 27.952125 
" clip-path="url(#pc73d7033ed)" style="fill: none; stroke: #b0b0b0; stroke-width: 0.8; stroke-linecap: square"/>
     </g>
     <g id="line2d_4">
      <g>
       <use xlink:href="#ma6907fa0c3" x="150.590495" y="305.152125" style="stroke: #000000; stroke-width: 0.8"/>
      </g>
     </g>
     <g id="text_2">
      <!-- 1 -->
      <g transform="translate(146.090495 324.445562)scale(0.18 -0.18)">
       <defs>
        <path id="STIXGeneral-Regular-31" d="M 2522 0 
L 755 0 
L 755 96 
Q 1107 115 1235 227 
Q 1363 339 1363 608 
L 1363 3482 
Q 1363 3795 1171 3795 
Q 1082 3795 883 3718 
L 710 3654 
L 710 3744 
L 1856 4326 
L 1914 4307 
L 1914 486 
Q 1914 275 2042 185 
Q 2170 96 2522 96 
L 2522 0 
z
" transform="scale(0.015625)"/>
       </defs>
       <use xlink:href="#STIXGeneral-Regular-31"/>
      </g>
     </g>
    </g>
    <g id="xtick_3">
     <g id="line2d_5">
      <path d="M 211.034073 305.152125 
L 211.034073 27.952125 
" clip-path="url(#pc73d7033ed)" style="fill: none; stroke: #b0b0b0; stroke-width: 0.8; stroke-linecap: square"/>
     </g>
     <g id="line2d_6">
      <g>
       <use xlink:href="#ma6907fa0c3" x="211.034073" y="305.152125" style="stroke: #000000; stroke-width: 0.8"/>
      </g>
     </g>
     <g id="text_3">
      <!-- 2 -->
      <g transform="translate(206.534073 324.445562)scale(0.18 -0.18)">
       <defs>
        <path id="STIXGeneral-Regular-32" d="M 3034 877 
L 2688 0 
L 186 0 
L 186 77 
L 1325 1286 
Q 1773 1754 1965 2144 
Q 2157 2534 2157 2950 
Q 2157 3379 1920 3616 
Q 1683 3853 1267 3853 
Q 922 3853 720 3673 
Q 518 3494 326 3021 
L 192 3053 
Q 301 3648 630 3987 
Q 960 4326 1523 4326 
Q 2054 4326 2380 4006 
Q 2707 3686 2707 3200 
Q 2707 2477 1888 1613 
L 832 486 
L 2330 486 
Q 2541 486 2665 569 
Q 2790 653 2944 915 
L 3034 877 
z
" transform="scale(0.015625)"/>
       </defs>
       <use xlink:href="#STIXGeneral-Regular-32"/>
      </g>
     </g>
    </g>
    <g id="xtick_4">
     <g id="line2d_7">
      <path d="M 271.47765 305.152125 
L 271.47765 27.952125 
" clip-path="url(#pc73d7033ed)" style="fill: none; stroke: #b0b0b0; stroke-width: 0.8; stroke-linecap: square"/>
     </g>
     <g id="line2d_8">
      <g>
       <use xlink:href="#ma6907fa0c3" x="271.47765" y="305.152125" style="stroke: #000000; stroke-width: 0.8"/>
      </g>
     </g>
     <g id="text_4">
      <!-- 3 -->
      <g transform="translate(266.97765 324.445562)scale(0.18 -0.18)">
       <defs>
        <path id="STIXGeneral-Regular-33" d="M 390 3264 
L 288 3290 
Q 435 3770 748 4048 
Q 1062 4326 1542 4326 
Q 1990 4326 2265 4083 
Q 2541 3840 2541 3450 
Q 2541 2925 1946 2566 
Q 2298 2413 2477 2227 
Q 2758 1914 2758 1402 
Q 2758 890 2464 506 
Q 2246 211 1840 60 
Q 1434 -90 979 -90 
Q 262 -90 262 275 
Q 262 378 339 442 
Q 416 506 525 506 
Q 685 506 915 339 
Q 1197 141 1466 141 
Q 1818 141 2058 425 
Q 2298 710 2298 1120 
Q 2298 1856 1632 2048 
Q 1434 2112 979 2112 
L 979 2202 
Q 1338 2323 1517 2432 
Q 2035 2726 2035 3290 
Q 2035 3610 1852 3776 
Q 1670 3942 1344 3942 
Q 768 3942 390 3264 
z
" transform="scale(0.015625)"/>
       </defs>
       <use xlink:href="#STIXGeneral-Regular-33"/>
      </g>
     </g>
    </g>
    <g id="xtick_5">
     <g id="line2d_9">
      <path d="M 331.921228 305.152125 
L 331.921228 27.952125 
" clip-path="url(#pc73d7033ed)" style="fill: none; stroke: #b0b0b0; stroke-width: 0.8; stroke-linecap: square"/>
     </g>
     <g id="line2d_10">
      <g>
       <use xlink:href="#ma6907fa0c3" x="331.921228" y="305.152125" style="stroke: #000000; stroke-width: 0.8"/>
      </g>
     </g>
     <g id="text_5">
      <!-- 4 -->
      <g transform="translate(327.421228 324.445562)scale(0.18 -0.18)">
       <defs>
        <path id="STIXGeneral-Regular-34" d="M 3027 1069 
L 2368 1069 
L 2368 0 
L 1869 0 
L 1869 1069 
L 77 1069 
L 77 1478 
L 2086 4326 
L 2368 4326 
L 2368 1478 
L 3027 1478 
L 3027 1069 
z
M 1869 1478 
L 1869 3674 
L 333 1478 
L 1869 1478 
z
" transform="scale(0.015625)"/>
       </defs>
       <use xlink:href="#STIXGeneral-Regular-34"/>
      </g>
     </g>
    </g>
    <g id="xtick_6">
     <g id="line2d_11">
      <path d="M 392.364806 305.152125 
L 392.364806 27.952125 
" clip-path="url(#pc73d7033ed)" style="fill: none; stroke: #b0b0b0; stroke-width: 0.8; stroke-linecap: square"/>
     </g>
     <g id="line2d_12">
      <g>
       <use xlink:href="#ma6907fa0c3" x="392.364806" y="305.152125" style="stroke: #000000; stroke-width: 0.8"/>
      </g>
     </g>
     <g id="text_6">
      <!-- 5 -->
      <g transform="translate(387.864806 324.445562)scale(0.18 -0.18)">
       <defs>
        <path id="STIXGeneral-Regular-35" d="M 2803 4358 
L 2573 3814 
Q 2534 3731 2400 3731 
L 1158 3731 
L 902 3187 
Q 1606 3053 1920 2896 
Q 2234 2739 2502 2368 
Q 2726 2061 2726 1555 
Q 2726 1094 2576 780 
Q 2426 467 2099 224 
Q 1664 -90 1011 -90 
Q 646 -90 422 19 
Q 198 128 198 307 
Q 198 550 486 550 
Q 717 550 960 352 
Q 1210 147 1414 147 
Q 1747 147 2012 480 
Q 2278 813 2278 1229 
Q 2278 1843 1850 2189 
Q 1293 2637 486 2637 
Q 410 2637 410 2688 
L 416 2720 
L 1114 4237 
L 2438 4237 
Q 2547 4237 2608 4269 
Q 2669 4301 2746 4403 
L 2803 4358 
z
" transform="scale(0.015625)"/>
       </defs>
       <use xlink:href="#STIXGeneral-Regular-35"/>
      </g>
     </g>
    </g>
    <g id="xtick_7">
     <g id="line2d_13">
      <path d="M 452.808384 305.152125 
L 452.808384 27.952125 
" clip-path="url(#pc73d7033ed)" style="fill: none; stroke: #b0b0b0; stroke-width: 0.8; stroke-linecap: square"/>
     </g>
     <g id="line2d_14">
      <g>
       <use xlink:href="#ma6907fa0c3" x="452.808384" y="305.152125" style="stroke: #000000; stroke-width: 0.8"/>
      </g>
     </g>
     <g id="text_7">
      <!-- 6 -->
      <g transform="translate(448.308384 324.445562)scale(0.18 -0.18)">
       <defs>
        <path id="STIXGeneral-Regular-36" d="M 2854 4378 
L 2867 4275 
Q 2112 4154 1606 3664 
Q 1101 3174 973 2451 
Q 1344 2739 1786 2739 
Q 2349 2739 2672 2380 
Q 2995 2022 2995 1402 
Q 2995 774 2669 378 
Q 2291 -90 1651 -90 
Q 870 -90 518 557 
Q 218 1107 218 1786 
Q 218 2835 915 3552 
Q 1312 3962 1731 4131 
Q 2150 4301 2854 4378 
z
M 2419 1203 
Q 2419 2445 1555 2445 
Q 1235 2445 1024 2275 
Q 813 2106 813 1702 
Q 813 954 1046 522 
Q 1280 90 1722 90 
Q 2061 90 2240 394 
Q 2419 698 2419 1203 
z
" transform="scale(0.015625)"/>
       </defs>
       <use xlink:href="#STIXGeneral-Regular-36"/>
      </g>
     </g>
    </g>
    <g id="xtick_8">
     <g id="line2d_15">
      <path d="M 513.251962 305.152125 
L 513.251962 27.952125 
" clip-path="url(#pc73d7033ed)" style="fill: none; stroke: #b0b0b0; stroke-width: 0.8; stroke-linecap: square"/>
     </g>
     <g id="line2d_16">
      <g>
       <use xlink:href="#ma6907fa0c3" x="513.251962" y="305.152125" style="stroke: #000000; stroke-width: 0.8"/>
      </g>
     </g>
     <g id="text_8">
      <!-- 7 -->
      <g transform="translate(508.751962 324.445562)scale(0.18 -0.18)">
       <defs>
        <path id="STIXGeneral-Regular-37" d="M 2874 4134 
L 1517 -51 
L 1101 -51 
L 2368 3763 
L 992 3763 
Q 717 3763 582 3667 
Q 448 3571 243 3238 
L 128 3296 
L 512 4237 
L 2874 4237 
L 2874 4134 
z
" transform="scale(0.015625)"/>
       </defs>
       <use xlink:href="#STIXGeneral-Regular-37"/>
      </g>
     </g>
    </g>
    <g id="text_9">
     <!-- Training Environment Steps -->
     <g transform="translate(191.604688 344.645562)scale(0.18 -0.18)">
      <defs>
       <path id="STIXGeneral-Regular-54" d="M 3795 3149 
L 3642 3149 
Q 3539 3674 3353 3821 
Q 3168 3968 2656 3968 
L 2278 3968 
L 2278 710 
Q 2278 346 2387 243 
Q 2496 141 2893 122 
L 2893 0 
L 1024 0 
L 1024 122 
Q 1427 147 1526 256 
Q 1626 365 1626 787 
L 1626 3968 
L 1242 3968 
Q 723 3968 540 3817 
Q 358 3667 262 3149 
L 109 3149 
L 154 4237 
L 3750 4237 
L 3795 3149 
z
" transform="scale(0.015625)"/>
       <path id="STIXGeneral-Regular-72" d="M 1024 2931 
L 1024 2342 
Q 1267 2688 1430 2816 
Q 1594 2944 1792 2944 
Q 1958 2944 2051 2854 
Q 2144 2765 2144 2605 
Q 2144 2470 2077 2393 
Q 2010 2317 1894 2317 
Q 1773 2317 1638 2445 
Q 1536 2541 1472 2541 
Q 1338 2541 1181 2355 
Q 1024 2170 1024 2016 
L 1024 576 
Q 1024 301 1133 205 
Q 1242 109 1568 96 
L 1568 0 
L 32 0 
L 32 96 
Q 339 154 412 224 
Q 486 294 486 538 
L 486 2138 
Q 486 2349 438 2435 
Q 390 2522 269 2522 
Q 166 2522 45 2496 
L 45 2598 
Q 448 2726 992 2944 
L 1024 2931 
z
" transform="scale(0.015625)"/>
       <path id="STIXGeneral-Regular-61" d="M 2829 422 
L 2829 243 
Q 2586 -64 2253 -64 
Q 1888 -64 1843 403 
L 1837 403 
Q 1427 -64 909 -64 
Q 608 -64 422 112 
Q 237 288 237 602 
Q 237 1050 685 1350 
Q 992 1555 1837 1869 
L 1837 2214 
Q 1837 2502 1699 2646 
Q 1562 2790 1338 2790 
Q 1146 2790 1018 2697 
Q 890 2605 890 2477 
Q 890 2419 909 2348 
Q 928 2278 928 2208 
Q 928 2112 841 2029 
Q 755 1946 634 1946 
Q 525 1946 441 2029 
Q 358 2112 358 2240 
Q 358 2547 685 2752 
Q 986 2944 1421 2944 
Q 1939 2944 2176 2656 
Q 2291 2522 2323 2384 
Q 2355 2246 2355 1946 
L 2355 723 
Q 2355 301 2554 301 
Q 2682 301 2829 422 
z
M 1837 813 
L 1837 1715 
Q 1248 1510 1018 1293 
Q 800 1094 800 800 
Q 800 557 921 432 
Q 1043 307 1242 307 
Q 1453 307 1613 410 
Q 1747 506 1792 589 
Q 1837 672 1837 813 
z
" transform="scale(0.015625)"/>
       <path id="STIXGeneral-Regular-69" d="M 1152 4045 
Q 1152 3904 1056 3811 
Q 960 3718 819 3718 
Q 685 3718 592 3811 
Q 499 3904 499 4045 
Q 499 4179 595 4275 
Q 691 4371 826 4371 
Q 966 4371 1059 4275 
Q 1152 4179 1152 4045 
z
M 1619 0 
L 102 0 
L 102 96 
Q 435 115 521 211 
Q 608 307 608 666 
L 608 2118 
Q 608 2342 563 2432 
Q 518 2522 397 2522 
Q 243 2522 128 2490 
L 128 2592 
L 1120 2944 
L 1146 2918 
L 1146 672 
Q 1146 314 1226 218 
Q 1306 122 1619 96 
L 1619 0 
z
" transform="scale(0.015625)"/>
       <path id="STIXGeneral-Regular-6e" d="M 3104 0 
L 1773 0 
L 1779 96 
Q 2016 115 2096 233 
Q 2176 352 2176 672 
L 2176 1946 
Q 2176 2592 1709 2592 
Q 1549 2592 1408 2515 
Q 1267 2438 1050 2227 
L 1050 461 
Q 1050 269 1136 192 
Q 1222 115 1466 96 
L 1466 0 
L 115 0 
L 115 96 
Q 358 115 435 214 
Q 512 314 512 602 
L 512 2157 
Q 512 2394 467 2483 
Q 422 2573 288 2573 
Q 160 2573 102 2547 
L 102 2656 
Q 550 2784 979 2944 
L 1030 2925 
L 1030 2426 
L 1037 2426 
Q 1491 2944 1958 2944 
Q 2323 2944 2518 2688 
Q 2714 2432 2714 1958 
L 2714 544 
Q 2714 288 2790 205 
Q 2867 122 3104 96 
L 3104 0 
z
" transform="scale(0.015625)"/>
       <path id="STIXGeneral-Regular-67" d="M 3008 2483 
L 2477 2483 
Q 2598 2208 2598 1946 
Q 2598 1453 2265 1203 
Q 1933 954 1600 954 
Q 1530 954 1357 973 
L 1235 986 
Q 1107 947 979 812 
Q 851 678 851 582 
Q 851 435 1350 410 
L 2176 371 
Q 2528 358 2739 172 
Q 2950 -13 2950 -314 
Q 2950 -685 2566 -986 
Q 2035 -1395 1286 -1395 
Q 826 -1395 502 -1212 
Q 179 -1030 179 -774 
Q 179 -595 320 -419 
Q 461 -243 806 6 
Q 602 102 534 172 
Q 467 243 467 346 
Q 467 531 762 787 
Q 909 915 1037 1043 
Q 717 1203 579 1401 
Q 442 1600 442 1901 
Q 442 2336 752 2640 
Q 1062 2944 1510 2944 
Q 1766 2944 2022 2848 
L 2163 2797 
Q 2349 2733 2515 2733 
L 3008 2733 
L 3008 2483 
z
M 973 2163 
L 973 2144 
Q 973 1683 1155 1398 
Q 1338 1114 1632 1114 
Q 1850 1114 1978 1270 
Q 2106 1427 2106 1690 
Q 2106 2112 1914 2464 
Q 1754 2765 1446 2765 
Q 1222 2765 1097 2605 
Q 973 2445 973 2163 
z
M 2771 -410 
Q 2771 -230 2595 -163 
Q 2419 -96 1978 -96 
Q 1344 -96 941 -13 
Q 749 -243 688 -348 
Q 627 -454 627 -563 
Q 627 -774 880 -902 
Q 1133 -1030 1555 -1030 
Q 2099 -1030 2435 -860 
Q 2771 -691 2771 -410 
z
" transform="scale(0.015625)"/>
       <path id="STIXGeneral-Regular-20" transform="scale(0.015625)"/>
       <path id="STIXGeneral-Regular-45" d="M 3821 1082 
L 3526 0 
L 77 0 
L 77 122 
Q 442 147 538 252 
Q 634 358 634 730 
L 634 3520 
Q 634 3878 534 3987 
Q 435 4096 77 4115 
L 77 4237 
L 3469 4237 
L 3494 3322 
L 3334 3322 
Q 3264 3750 3085 3872 
Q 2906 3994 2349 3994 
L 1510 3994 
Q 1370 3994 1328 3952 
Q 1286 3910 1286 3763 
L 1286 2355 
L 2253 2355 
Q 2656 2355 2787 2470 
Q 2918 2586 2976 2970 
L 3123 2970 
L 3123 1472 
L 2976 1472 
Q 2918 1875 2790 1984 
Q 2662 2093 2253 2093 
L 1286 2093 
L 1286 538 
Q 1286 346 1420 291 
Q 1555 237 1933 237 
L 2163 237 
Q 2848 237 3136 403 
Q 3424 570 3642 1082 
L 3821 1082 
z
" transform="scale(0.015625)"/>
       <path id="STIXGeneral-Regular-76" d="M 3053 2880 
L 3053 2784 
Q 2906 2771 2835 2688 
Q 2765 2605 2637 2285 
L 1818 230 
Q 1690 -90 1638 -90 
Q 1587 -90 1523 77 
Q 1510 96 1497 141 
Q 1485 186 1472 211 
L 704 2048 
Q 499 2534 403 2652 
Q 307 2771 122 2784 
L 122 2880 
L 1376 2880 
L 1376 2784 
Q 1210 2771 1146 2732 
Q 1082 2694 1082 2611 
Q 1082 2509 1139 2368 
L 1792 730 
L 2426 2387 
Q 2464 2483 2464 2579 
Q 2464 2758 2163 2784 
L 2163 2880 
L 3053 2880 
z
" transform="scale(0.015625)"/>
       <path id="STIXGeneral-Regular-6f" d="M 3008 1478 
Q 3008 806 2608 371 
Q 2208 -64 1568 -64 
Q 979 -64 582 368 
Q 186 800 186 1459 
Q 186 2125 582 2534 
Q 979 2944 1626 2944 
Q 2221 2944 2614 2537 
Q 3008 2131 3008 1478 
z
M 2432 1306 
Q 2432 2035 2112 2445 
Q 1856 2765 1504 2765 
Q 1171 2765 966 2493 
Q 762 2221 762 1747 
Q 762 928 1101 435 
Q 1318 115 1677 115 
Q 2029 115 2230 432 
Q 2432 749 2432 1306 
z
" transform="scale(0.015625)"/>
       <path id="STIXGeneral-Regular-6d" d="M 4960 0 
L 3565 0 
L 3565 96 
Q 3834 122 3907 208 
Q 3981 294 3981 576 
L 3981 1894 
Q 3981 2278 3869 2444 
Q 3757 2611 3488 2611 
Q 3264 2611 3107 2521 
Q 2950 2432 2803 2221 
L 2803 608 
Q 2803 301 2896 201 
Q 2989 102 3264 96 
L 3264 0 
L 1830 0 
L 1830 96 
Q 2112 115 2189 188 
Q 2266 262 2266 550 
L 2266 1901 
Q 2266 2611 1850 2611 
Q 1670 2611 1468 2531 
Q 1267 2451 1171 2336 
Q 1088 2240 1088 2227 
L 1088 448 
Q 1088 243 1177 176 
Q 1267 109 1523 96 
L 1523 0 
L 102 0 
L 102 96 
Q 371 102 460 195 
Q 550 288 550 563 
L 550 2150 
Q 550 2387 499 2480 
Q 448 2573 326 2573 
Q 230 2573 122 2547 
L 122 2656 
Q 557 2778 1011 2944 
L 1062 2925 
L 1062 2451 
L 1075 2451 
Q 1363 2752 1584 2848 
Q 1805 2944 2054 2944 
Q 2560 2944 2733 2406 
Q 3232 2944 3776 2944 
Q 4518 2944 4518 1792 
L 4518 493 
Q 4518 282 4582 202 
Q 4646 122 4794 109 
L 4960 96 
L 4960 0 
z
" transform="scale(0.015625)"/>
       <path id="STIXGeneral-Regular-65" d="M 2611 1050 
L 2714 1005 
Q 2330 -64 1376 -64 
Q 813 -64 486 329 
Q 160 723 160 1389 
Q 160 2074 525 2509 
Q 890 2944 1485 2944 
Q 2061 2944 2374 2502 
Q 2560 2246 2592 1773 
L 621 1773 
Q 646 1370 700 1158 
Q 755 947 915 730 
Q 1184 378 1626 378 
Q 1939 378 2153 531 
Q 2368 685 2611 1050 
z
M 634 1978 
L 1939 1978 
Q 1882 2381 1750 2547 
Q 1619 2714 1312 2714 
Q 1043 2714 864 2525 
Q 685 2336 634 1978 
z
" transform="scale(0.015625)"/>
       <path id="STIXGeneral-Regular-74" d="M 1702 493 
L 1786 422 
Q 1478 -64 1011 -64 
Q 448 -64 448 749 
L 448 2675 
L 109 2675 
Q 83 2694 83 2720 
Q 83 2771 192 2842 
Q 435 2982 813 3526 
Q 826 3546 874 3606 
Q 922 3667 941 3706 
Q 986 3706 986 3622 
L 986 2880 
L 1632 2880 
L 1632 2675 
L 986 2675 
L 986 845 
Q 986 538 1062 403 
Q 1139 269 1318 269 
Q 1510 269 1702 493 
z
" transform="scale(0.015625)"/>
       <path id="STIXGeneral-Regular-53" d="M 3002 2963 
L 2842 2963 
Q 2733 3360 2579 3565 
Q 2189 4064 1651 4064 
Q 1357 4064 1181 3894 
Q 1005 3725 1005 3456 
Q 1005 3328 1069 3206 
Q 1133 3085 1206 2998 
Q 1280 2912 1465 2784 
Q 1651 2656 1766 2589 
Q 1882 2522 2150 2362 
Q 2669 2061 2905 1763 
Q 3142 1466 3142 1107 
Q 3142 576 2771 243 
Q 2400 -90 1837 -90 
Q 1421 -90 1082 58 
Q 915 128 781 128 
Q 704 128 653 70 
Q 602 13 602 -83 
L 461 -83 
L 275 1274 
L 416 1274 
Q 845 141 1734 141 
Q 2074 141 2285 342 
Q 2496 544 2496 858 
Q 2496 1158 2310 1363 
Q 2003 1696 1235 2106 
Q 454 2522 454 3206 
Q 454 3718 768 4022 
Q 1082 4326 1568 4326 
Q 1907 4326 2240 4186 
Q 2413 4109 2522 4109 
Q 2688 4109 2726 4326 
L 2861 4326 
L 3002 2963 
z
" transform="scale(0.015625)"/>
       <path id="STIXGeneral-Regular-70" d="M 1018 2931 
L 1018 2438 
Q 1421 2944 1939 2944 
Q 2406 2944 2707 2560 
Q 3008 2176 3008 1581 
Q 3008 883 2621 409 
Q 2234 -64 1664 -64 
Q 1466 -64 1328 -6 
Q 1190 51 1018 211 
L 1018 -794 
Q 1018 -1094 1120 -1180 
Q 1222 -1267 1581 -1274 
L 1581 -1389 
L 32 -1389 
L 32 -1280 
Q 314 -1254 397 -1171 
Q 480 -1088 480 -838 
L 480 2157 
Q 480 2381 429 2451 
Q 378 2522 218 2522 
Q 115 2522 58 2515 
L 58 2618 
Q 506 2752 979 2944 
L 1018 2931 
z
M 1018 2138 
L 1018 563 
Q 1018 422 1238 281 
Q 1459 141 1683 141 
Q 2029 141 2243 467 
Q 2458 794 2458 1325 
Q 2458 1888 2243 2224 
Q 2029 2560 1670 2560 
Q 1446 2560 1232 2419 
Q 1018 2278 1018 2138 
z
" transform="scale(0.015625)"/>
       <path id="STIXGeneral-Regular-73" d="M 998 1926 
L 1664 1523 
Q 1984 1331 2105 1164 
Q 2227 998 2227 736 
Q 2227 416 1961 176 
Q 1696 -64 1331 -64 
Q 1030 -64 864 -6 
Q 691 51 570 51 
Q 461 51 416 -26 
L 333 -26 
L 333 979 
L 435 979 
Q 538 512 730 294 
Q 922 77 1248 77 
Q 1485 77 1632 211 
Q 1779 346 1779 550 
Q 1779 845 1440 1030 
L 1094 1222 
Q 326 1651 326 2150 
Q 326 2522 566 2730 
Q 806 2938 1210 2938 
Q 1491 2938 1638 2867 
Q 1754 2816 1818 2816 
Q 1862 2816 1920 2880 
L 1990 2880 
L 2022 2010 
L 1926 2010 
Q 1818 2445 1654 2621 
Q 1491 2797 1203 2797 
Q 986 2797 854 2688 
Q 723 2579 723 2362 
Q 723 2253 796 2128 
Q 870 2003 998 1926 
z
" transform="scale(0.015625)"/>
      </defs>
      <use xlink:href="#STIXGeneral-Regular-54"/>
      <use xlink:href="#STIXGeneral-Regular-72" x="61.099991"/>
      <use xlink:href="#STIXGeneral-Regular-61" x="94.399979"/>
      <use xlink:href="#STIXGeneral-Regular-69" x="138.799973"/>
      <use xlink:href="#STIXGeneral-Regular-6e" x="166.59996"/>
      <use xlink:href="#STIXGeneral-Regular-69" x="216.599945"/>
      <use xlink:href="#STIXGeneral-Regular-6e" x="244.399933"/>
      <use xlink:href="#STIXGeneral-Regular-67" x="294.399918"/>
      <use xlink:href="#STIXGeneral-Regular-20" x="344.399902"/>
      <use xlink:href="#STIXGeneral-Regular-45" x="369.399887"/>
      <use xlink:href="#STIXGeneral-Regular-6e" x="430.499878"/>
      <use xlink:href="#STIXGeneral-Regular-76" x="480.499863"/>
      <use xlink:href="#STIXGeneral-Regular-69" x="530.499847"/>
      <use xlink:href="#STIXGeneral-Regular-72" x="558.299835"/>
      <use xlink:href="#STIXGeneral-Regular-6f" x="591.599823"/>
      <use xlink:href="#STIXGeneral-Regular-6e" x="641.599808"/>
      <use xlink:href="#STIXGeneral-Regular-6d" x="691.599792"/>
      <use xlink:href="#STIXGeneral-Regular-65" x="769.39978"/>
      <use xlink:href="#STIXGeneral-Regular-6e" x="813.799774"/>
      <use xlink:href="#STIXGeneral-Regular-74" x="863.799759"/>
      <use xlink:href="#STIXGeneral-Regular-20" x="891.599747"/>
      <use xlink:href="#STIXGeneral-Regular-53" x="916.599731"/>
      <use xlink:href="#STIXGeneral-Regular-74" x="972.199722"/>
      <use xlink:href="#STIXGeneral-Regular-65" x="999.99971"/>
      <use xlink:href="#STIXGeneral-Regular-70" x="1044.399704"/>
      <use xlink:href="#STIXGeneral-Regular-73" x="1094.399689"/>
     </g>
    </g>
    <g id="text_10">
     <!-- 1e8 -->
     <g transform="translate(490.806875 343.645562)scale(0.18 -0.18)">
      <defs>
       <path id="STIXGeneral-Regular-38" d="M 2848 992 
Q 2848 499 2505 204 
Q 2163 -90 1587 -90 
Q 1050 -90 704 204 
Q 358 499 358 954 
Q 358 1293 524 1533 
Q 691 1773 1190 2125 
Q 710 2522 553 2765 
Q 397 3008 397 3328 
Q 397 3782 745 4054 
Q 1094 4326 1638 4326 
Q 2106 4326 2410 4060 
Q 2714 3795 2714 3411 
Q 2714 3059 2531 2848 
Q 2349 2637 1856 2374 
Q 2432 1990 2640 1689 
Q 2848 1389 2848 992 
z
M 2272 3411 
Q 2272 3744 2086 3945 
Q 1901 4147 1574 4147 
Q 1248 4147 1059 3977 
Q 870 3808 870 3513 
Q 870 3219 1059 2979 
Q 1248 2739 1670 2490 
Q 1997 2682 2134 2896 
Q 2272 3110 2272 3411 
z
M 1734 1741 
L 1357 1997 
Q 1075 1766 960 1545 
Q 845 1325 845 1011 
Q 845 576 1065 333 
Q 1286 90 1658 90 
Q 1971 90 2166 285 
Q 2362 480 2362 794 
Q 2362 1082 2214 1299 
Q 2067 1517 1734 1741 
z
" transform="scale(0.015625)"/>
      </defs>
      <use xlink:href="#STIXGeneral-Regular-31"/>
      <use xlink:href="#STIXGeneral-Regular-65" x="49.999985"/>
      <use xlink:href="#STIXGeneral-Regular-38" x="94.399979"/>
     </g>
    </g>
   </g>
   <g id="matplotlib.axis_2">
    <g id="ytick_1">
     <g id="line2d_17">
      <path d="M 70.4 295.264796 
L 516.8 295.264796 
" clip-path="url(#pc73d7033ed)" style="fill: none; stroke: #b0b0b0; stroke-width: 0.8; stroke-linecap: square"/>
     </g>
     <g id="line2d_18">
      <defs>
       <path id="meedf4f8b7f" d="M 0 0 
L -3.5 0 
" style="stroke: #000000; stroke-width: 0.8"/>
      </defs>
      <g>
       <use xlink:href="#meedf4f8b7f" x="70.4" y="295.264796" style="stroke: #000000; stroke-width: 0.8"/>
      </g>
     </g>
     <g id="text_11">
      <!-- 0 -->
      <g transform="translate(54.4 301.411515)scale(0.18 -0.18)">
       <use xlink:href="#STIXGeneral-Regular-30"/>
      </g>
     </g>
    </g>
    <g id="ytick_2">
     <g id="line2d_19">
      <path d="M 70.4 243.075201 
L 516.8 243.075201 
" clip-path="url(#pc73d7033ed)" style="fill: none; stroke: #b0b0b0; stroke-width: 0.8; stroke-linecap: square"/>
     </g>
     <g id="line2d_20">
      <g>
       <use xlink:href="#meedf4f8b7f" x="70.4" y="243.075201" style="stroke: #000000; stroke-width: 0.8"/>
      </g>
     </g>
     <g id="text_12">
      <!-- 200 -->
      <g transform="translate(36.4 249.221919)scale(0.18 -0.18)">
       <use xlink:href="#STIXGeneral-Regular-32"/>
       <use xlink:href="#STIXGeneral-Regular-30" x="49.999985"/>
       <use xlink:href="#STIXGeneral-Regular-30" x="99.999969"/>
      </g>
     </g>
    </g>
    <g id="ytick_3">
     <g id="line2d_21">
      <path d="M 70.4 190.885605 
L 516.8 190.885605 
" clip-path="url(#pc73d7033ed)" style="fill: none; stroke: #b0b0b0; stroke-width: 0.8; stroke-linecap: square"/>
     </g>
     <g id="line2d_22">
      <g>
       <use xlink:href="#meedf4f8b7f" x="70.4" y="190.885605" style="stroke: #000000; stroke-width: 0.8"/>
      </g>
     </g>
     <g id="text_13">
      <!-- 400 -->
      <g transform="translate(36.4 197.032324)scale(0.18 -0.18)">
       <use xlink:href="#STIXGeneral-Regular-34"/>
       <use xlink:href="#STIXGeneral-Regular-30" x="49.999985"/>
       <use xlink:href="#STIXGeneral-Regular-30" x="99.999969"/>
      </g>
     </g>
    </g>
    <g id="ytick_4">
     <g id="line2d_23">
      <path d="M 70.4 138.696009 
L 516.8 138.696009 
" clip-path="url(#pc73d7033ed)" style="fill: none; stroke: #b0b0b0; stroke-width: 0.8; stroke-linecap: square"/>
     </g>
     <g id="line2d_24">
      <g>
       <use xlink:href="#meedf4f8b7f" x="70.4" y="138.696009" style="stroke: #000000; stroke-width: 0.8"/>
      </g>
     </g>
     <g id="text_14">
      <!-- 600 -->
      <g transform="translate(36.4 144.842728)scale(0.18 -0.18)">
       <use xlink:href="#STIXGeneral-Regular-36"/>
       <use xlink:href="#STIXGeneral-Regular-30" x="49.999985"/>
       <use xlink:href="#STIXGeneral-Regular-30" x="99.999969"/>
      </g>
     </g>
    </g>
    <g id="ytick_5">
     <g id="line2d_25">
      <path d="M 70.4 86.506413 
L 516.8 86.506413 
" clip-path="url(#pc73d7033ed)" style="fill: none; stroke: #b0b0b0; stroke-width: 0.8; stroke-linecap: square"/>
     </g>
     <g id="line2d_26">
      <g>
       <use xlink:href="#meedf4f8b7f" x="70.4" y="86.506413" style="stroke: #000000; stroke-width: 0.8"/>
      </g>
     </g>
     <g id="text_15">
      <!-- 800 -->
      <g transform="translate(36.4 92.653132)scale(0.18 -0.18)">
       <use xlink:href="#STIXGeneral-Regular-38"/>
       <use xlink:href="#STIXGeneral-Regular-30" x="49.999985"/>
       <use xlink:href="#STIXGeneral-Regular-30" x="99.999969"/>
      </g>
     </g>
    </g>
    <g id="ytick_6">
     <g id="line2d_27">
      <path d="M 70.4 34.316817 
L 516.8 34.316817 
" clip-path="url(#pc73d7033ed)" style="fill: none; stroke: #b0b0b0; stroke-width: 0.8; stroke-linecap: square"/>
     </g>
     <g id="line2d_28">
      <g>
       <use xlink:href="#meedf4f8b7f" x="70.4" y="34.316817" style="stroke: #000000; stroke-width: 0.8"/>
      </g>
     </g>
     <g id="text_16">
      <!-- 1000 -->
      <g transform="translate(27.4 40.463536)scale(0.18 -0.18)">
       <use xlink:href="#STIXGeneral-Regular-31"/>
       <use xlink:href="#STIXGeneral-Regular-30" x="49.999985"/>
       <use xlink:href="#STIXGeneral-Regular-30" x="99.999969"/>
       <use xlink:href="#STIXGeneral-Regular-30" x="149.999954"/>
      </g>
     </g>
    </g>
    <g id="text_17">
     <!-- Average Test Return -->
     <g transform="translate(19.476562 241.533375)rotate(-90)scale(0.18 -0.18)">
      <defs>
       <path id="STIXGeneral-Regular-41" d="M 4525 0 
L 2893 0 
L 2893 122 
Q 3149 122 3245 179 
Q 3334 224 3334 333 
Q 3334 499 3213 781 
L 2950 1382 
L 1274 1382 
L 979 653 
Q 922 506 922 384 
Q 922 237 1027 179 
Q 1133 122 1370 122 
L 1370 0 
L 96 0 
L 96 122 
Q 365 147 486 316 
Q 608 486 902 1190 
L 2221 4314 
L 2349 4314 
L 3923 710 
Q 4064 378 4176 262 
Q 4288 147 4525 122 
L 4525 0 
z
M 2861 1645 
L 2118 3405 
L 1382 1645 
L 2861 1645 
z
" transform="scale(0.015625)"/>
       <path id="STIXGeneral-Regular-52" d="M 4224 0 
L 3187 0 
L 1664 1971 
L 1306 1958 
L 1306 717 
Q 1306 352 1405 249 
Q 1504 147 1875 122 
L 1875 0 
L 109 0 
L 109 122 
Q 474 154 563 262 
Q 653 371 653 794 
L 653 3526 
Q 653 3885 563 3987 
Q 474 4090 109 4115 
L 109 4237 
L 1850 4237 
Q 2726 4237 3187 3859 
Q 3501 3603 3501 3091 
Q 3501 2221 2342 2042 
L 3622 422 
Q 3757 256 3878 198 
Q 4000 141 4224 122 
L 4224 0 
z
M 1306 3731 
L 1306 2195 
Q 1766 2202 1990 2246 
Q 2214 2291 2438 2413 
Q 2803 2618 2803 3142 
Q 2803 4000 1632 4000 
Q 1459 4000 1382 3945 
Q 1306 3891 1306 3731 
z
" transform="scale(0.015625)"/>
       <path id="STIXGeneral-Regular-75" d="M 3072 320 
L 3072 230 
Q 2573 96 2195 -58 
L 2163 -38 
L 2163 486 
L 2150 486 
Q 1747 -64 1235 -64 
Q 870 -64 662 160 
Q 454 384 454 755 
L 454 2362 
Q 454 2598 371 2688 
Q 288 2778 58 2790 
L 58 2880 
L 992 2880 
L 992 813 
Q 992 595 1123 451 
Q 1254 307 1446 307 
Q 1760 307 1984 506 
Q 2067 582 2099 649 
Q 2131 717 2131 877 
L 2131 2355 
Q 2131 2605 2041 2678 
Q 1952 2752 1658 2771 
L 1658 2880 
L 2669 2880 
L 2669 685 
Q 2669 461 2742 390 
Q 2816 320 3034 320 
L 3072 320 
z
" transform="scale(0.015625)"/>
      </defs>
      <use xlink:href="#STIXGeneral-Regular-41"/>
      <use xlink:href="#STIXGeneral-Regular-76" x="72.199982"/>
      <use xlink:href="#STIXGeneral-Regular-65" x="122.199966"/>
      <use xlink:href="#STIXGeneral-Regular-72" x="166.59996"/>
      <use xlink:href="#STIXGeneral-Regular-61" x="199.899948"/>
      <use xlink:href="#STIXGeneral-Regular-67" x="244.299942"/>
      <use xlink:href="#STIXGeneral-Regular-65" x="294.299927"/>
      <use xlink:href="#STIXGeneral-Regular-20" x="338.699921"/>
      <use xlink:href="#STIXGeneral-Regular-54" x="363.699905"/>
      <use xlink:href="#STIXGeneral-Regular-65" x="424.799896"/>
      <use xlink:href="#STIXGeneral-Regular-73" x="469.19989"/>
      <use xlink:href="#STIXGeneral-Regular-74" x="508.099884"/>
      <use xlink:href="#STIXGeneral-Regular-20" x="535.899872"/>
      <use xlink:href="#STIXGeneral-Regular-52" x="560.899857"/>
      <use xlink:href="#STIXGeneral-Regular-65" x="627.599854"/>
      <use xlink:href="#STIXGeneral-Regular-74" x="671.999847"/>
      <use xlink:href="#STIXGeneral-Regular-75" x="699.799835"/>
      <use xlink:href="#STIXGeneral-Regular-72" x="749.79982"/>
      <use xlink:href="#STIXGeneral-Regular-6e" x="783.099808"/>
     </g>
    </g>
   </g>
   <g id="line2d_29">
    <path d="M 90.690909 292.552125 
L 91.234901 292.369205 
L 91.778893 292.373407 
L 92.322886 292.147412 
L 92.866878 292.135206 
L 93.41087 291.814962 
L 93.954862 291.713505 
L 94.498854 291.432837 
L 95.042847 291.408133 
L 95.586839 290.994114 
L 96.130831 290.765354 
L 96.674823 290.394384 
L 97.762808 290.308587 
L 98.3068 289.36798 
L 98.850792 289.466693 
L 99.394784 289.769978 
L 99.938777 289.529655 
L 100.482769 289.113679 
L 101.026761 288.449128 
L 101.570753 288.69254 
L 102.658738 286.213187 
L 103.20273 283.288035 
L 103.746722 281.038308 
L 104.290714 271.888932 
L 104.834706 265.125597 
L 105.378699 272.043975 
L 105.922691 270.573804 
L 106.466683 272.939962 
L 107.010675 271.190825 
L 107.554667 269.827198 
L 108.642652 253.912054 
L 109.186644 255.11472 
L 109.730636 249.518239 
L 110.274628 245.987071 
L 110.818621 238.313197 
L 111.362613 224.613659 
L 111.906605 223.389442 
L 112.450597 228.894224 
L 112.994589 215.487651 
L 113.538582 220.577733 
L 114.082574 217.920732 
L 114.626566 220.456273 
L 115.170558 225.045811 
L 115.71455 219.384999 
L 116.258543 229.883567 
L 117.890519 215.229852 
L 118.434511 207.701751 
L 119.522496 217.293828 
L 120.066488 213.58006 
L 120.61048 204.789448 
L 121.154472 206.010004 
L 121.698465 204.903004 
L 122.242457 196.938259 
L 122.786449 200.967298 
L 123.330441 193.817127 
L 123.874433 193.429879 
L 124.418426 193.621436 
L 124.962418 168.556847 
L 125.50641 162.244369 
L 126.050402 174.048477 
L 126.594394 177.634436 
L 127.138387 185.25024 
L 127.682379 173.723899 
L 128.226371 168.832244 
L 128.770363 172.698804 
L 129.314355 181.42993 
L 129.858348 179.214509 
L 130.40234 174.193769 
L 130.946332 180.504734 
L 131.490324 178.244136 
L 132.034316 172.991979 
L 132.578309 176.016885 
L 133.122301 175.153064 
L 133.666293 170.047097 
L 134.754277 177.687447 
L 135.842262 167.331209 
L 136.386254 166.865492 
L 136.930246 157.177402 
L 137.474238 158.274344 
L 138.018231 167.33951 
L 138.562223 165.90155 
L 139.106215 168.326327 
L 139.650207 168.051823 
L 140.194199 155.636467 
L 140.738192 153.805503 
L 141.282184 154.974426 
L 141.826176 162.478074 
L 142.370168 160.693921 
L 142.91416 165.237063 
L 144.002145 158.495917 
L 144.546137 144.602373 
L 145.090129 154.413216 
L 145.634121 154.707803 
L 146.178114 165.535396 
L 146.722106 154.292838 
L 147.266098 159.292641 
L 147.81009 153.533293 
L 148.354082 143.071142 
L 148.898075 146.008858 
L 149.442067 154.842269 
L 150.530051 151.319239 
L 151.074043 148.559944 
L 151.618036 148.147737 
L 152.162028 145.882379 
L 152.70602 144.191022 
L 153.250012 149.605359 
L 153.794004 153.034618 
L 154.337997 144.098796 
L 154.881989 143.980854 
L 155.425981 145.204031 
L 155.969973 138.722929 
L 156.513965 140.345143 
L 157.057958 145.913355 
L 157.60195 144.630673 
L 158.145942 149.51378 
L 158.689934 147.527303 
L 159.233926 152.735524 
L 159.777919 154.751401 
L 160.321911 150.680356 
L 160.865903 152.62537 
L 161.409895 140.67088 
L 161.953887 137.841619 
L 162.49788 138.539611 
L 163.041872 130.593036 
L 163.585864 133.909579 
L 164.129856 131.831902 
L 164.673848 140.466681 
L 165.217841 142.808707 
L 165.761833 142.995812 
L 166.305825 153.747099 
L 166.849817 142.168063 
L 167.393809 142.228796 
L 167.937802 141.642344 
L 168.481794 142.487367 
L 169.025786 136.401444 
L 169.569778 127.607316 
L 170.11377 128.155796 
L 170.657763 121.210927 
L 171.745747 139.934963 
L 172.289739 135.013421 
L 172.833731 142.527516 
L 173.377724 136.024294 
L 173.921716 141.495509 
L 174.465708 140.207386 
L 175.0097 140.884799 
L 175.553692 128.933513 
L 176.097685 131.903202 
L 176.641677 132.299034 
L 177.185669 138.970883 
L 177.729661 136.280938 
L 178.273653 125.648351 
L 178.817646 136.123458 
L 179.361638 140.564093 
L 180.449622 128.589957 
L 180.993614 124.637935 
L 181.537607 136.375992 
L 182.081599 137.784848 
L 182.625591 129.005946 
L 183.169583 134.33201 
L 183.713575 133.625113 
L 184.80156 136.039484 
L 185.345552 128.844537 
L 185.889544 132.570328 
L 186.433536 130.516769 
L 187.521521 123.025486 
L 188.065513 130.164673 
L 189.153497 122.577899 
L 189.69749 115.59663 
L 190.241482 116.793628 
L 190.785474 110.823825 
L 191.329466 115.227901 
L 191.873458 103.53393 
L 192.417451 109.412353 
L 192.961443 106.896487 
L 193.505435 107.160999 
L 194.049427 114.262381 
L 194.593419 101.59258 
L 195.137412 102.620846 
L 195.681404 111.045056 
L 196.225396 111.742885 
L 196.769388 107.214872 
L 197.31338 101.429224 
L 197.857373 101.545654 
L 198.401365 98.83553 
L 198.945357 98.808081 
L 199.489349 113.508663 
L 200.033341 115.510243 
L 200.577334 115.6747 
L 201.121326 108.236348 
L 201.665318 112.008972 
L 202.20931 108.416641 
L 202.753302 102.830432 
L 203.297295 107.346684 
L 203.841287 104.995407 
L 204.385279 98.257773 
L 204.929271 101.881565 
L 205.473263 108.58002 
L 206.017256 98.615275 
L 206.561248 96.125473 
L 207.10524 95.660916 
L 207.649232 98.392277 
L 208.193224 119.734997 
L 208.737217 112.501526 
L 209.281209 102.749359 
L 209.825201 95.979924 
L 210.369193 93.498617 
L 210.913185 96.22901 
L 211.457178 100.619342 
L 212.00117 112.183658 
L 212.545162 109.000613 
L 213.089154 122.622925 
L 213.633146 120.842134 
L 214.177139 115.915986 
L 214.721131 103.717866 
L 215.265123 100.131595 
L 215.809115 93.079578 
L 216.353107 99.795505 
L 216.8971 102.038148 
L 217.441092 97.626575 
L 217.985084 99.929908 
L 219.073068 90.322976 
L 219.617061 86.824193 
L 220.161053 89.943087 
L 220.705045 87.832259 
L 221.249037 89.806174 
L 221.793029 93.109375 
L 222.337022 88.32074 
L 222.881014 87.232606 
L 223.968998 98.187492 
L 224.51299 91.832736 
L 225.056983 92.685207 
L 226.144967 80.815862 
L 226.688959 85.66021 
L 227.232951 88.002117 
L 227.776944 88.97597 
L 228.320936 88.078447 
L 228.864928 83.389363 
L 229.40892 87.051118 
L 229.952913 88.925904 
L 230.496905 85.436946 
L 231.040897 88.818128 
L 231.584889 83.562476 
L 232.128881 88.15466 
L 232.672874 81.777269 
L 233.216866 80.834819 
L 233.760858 87.494301 
L 234.30485 85.711662 
L 234.848842 84.959536 
L 235.392835 94.858409 
L 236.480819 93.05469 
L 237.024811 86.074554 
L 237.568803 90.178343 
L 238.112796 90.53678 
L 238.656788 92.518899 
L 239.20078 83.270939 
L 239.744772 85.401991 
L 240.288764 79.397332 
L 240.832757 88.871859 
L 241.376749 87.48693 
L 241.920741 80.5388 
L 242.464733 83.65004 
L 243.008725 91.086316 
L 243.552718 95.399323 
L 244.09671 94.875023 
L 244.640702 97.897456 
L 245.184694 95.943033 
L 245.728686 89.193967 
L 246.272679 79.850169 
L 246.816671 81.219655 
L 247.360663 80.974289 
L 247.904655 83.450552 
L 248.448647 81.283402 
L 248.99264 83.531048 
L 249.536632 78.097887 
L 250.080624 74.472058 
L 250.624616 85.569467 
L 251.168608 92.155336 
L 251.712601 90.296013 
L 252.256593 80.274734 
L 252.800585 73.762012 
L 253.344577 76.642951 
L 253.888569 85.361792 
L 254.976554 79.501992 
L 255.520546 79.728868 
L 256.064538 86.229951 
L 256.60853 86.866114 
L 257.152523 78.271081 
L 257.696515 80.026385 
L 258.240507 74.017969 
L 258.784499 66.032153 
L 259.328491 65.68106 
L 259.872484 64.346901 
L 260.416476 70.829021 
L 260.960468 70.486947 
L 261.50446 79.267041 
L 262.048452 76.39159 
L 262.592445 75.522402 
L 263.136437 72.75029 
L 263.680429 74.110668 
L 264.224421 72.468569 
L 264.768413 76.701357 
L 265.312406 69.542245 
L 265.856398 73.957975 
L 266.40039 76.945046 
L 266.944382 73.95715 
L 267.488374 79.890441 
L 268.032367 82.363741 
L 268.576359 73.88767 
L 269.120351 76.829159 
L 269.664343 71.758165 
L 270.752328 66.148169 
L 271.29632 63.939158 
L 271.840312 65.64638 
L 272.384304 72.706492 
L 272.928296 70.820176 
L 273.472289 67.393592 
L 274.016281 63.035177 
L 274.560273 63.663159 
L 275.104265 67.429659 
L 275.648257 59.698113 
L 276.19225 60.113516 
L 276.736242 66.058394 
L 277.280234 75.368807 
L 277.824226 72.328673 
L 278.912211 61.965661 
L 279.456203 60.287407 
L 280.000195 60.359395 
L 281.088179 74.374414 
L 281.632172 71.398264 
L 282.176164 76.649793 
L 282.720156 73.509844 
L 283.264148 72.749212 
L 284.352133 63.819399 
L 284.896125 66.789443 
L 285.440117 67.621952 
L 285.984109 65.132144 
L 286.528101 60.601643 
L 287.072094 64.987575 
L 287.616086 67.701489 
L 288.160078 64.417295 
L 288.70407 74.000231 
L 289.248062 66.710773 
L 289.792055 64.220524 
L 290.336047 69.330251 
L 290.880039 75.74477 
L 291.424031 67.771201 
L 291.968023 72.297448 
L 292.512016 66.692964 
L 293.056008 72.578401 
L 293.6 69.935809 
L 294.687984 61.343085 
L 295.231977 62.954944 
L 295.775969 66.499118 
L 296.319961 61.948623 
L 296.863953 61.285147 
L 297.407945 62.656806 
L 297.951938 69.850685 
L 298.49593 63.881527 
L 299.039922 62.697268 
L 299.583914 61.843976 
L 300.127906 61.559196 
L 300.671899 64.000184 
L 301.215891 63.356583 
L 301.759883 65.577488 
L 302.303875 64.70137 
L 302.847867 67.103554 
L 303.39186 70.61064 
L 303.935852 68.614301 
L 304.479844 69.238967 
L 305.567828 59.936544 
L 306.111821 57.547686 
L 306.655813 63.065996 
L 307.199805 58.500151 
L 307.743797 61.125329 
L 308.287789 59.401259 
L 308.831782 62.451807 
L 309.375774 67.434879 
L 309.919766 63.271912 
L 310.463758 69.567557 
L 311.00775 72.673314 
L 311.551743 79.083603 
L 312.095735 72.944681 
L 312.639727 62.575408 
L 313.183719 62.19569 
L 313.727711 60.366966 
L 314.271704 63.04912 
L 314.815696 54.924103 
L 315.359688 61.13177 
L 315.90368 56.586089 
L 316.991665 74.100451 
L 317.535657 74.668946 
L 318.079649 74.996817 
L 318.623641 67.471391 
L 319.167633 71.589837 
L 319.711626 62.732781 
L 320.255618 58.825507 
L 320.79961 57.088286 
L 321.343602 52.250728 
L 321.887594 55.216878 
L 322.431587 59.876298 
L 322.975579 60.641442 
L 323.519571 57.832371 
L 324.063563 57.710629 
L 324.607555 59.406959 
L 325.151548 59.095094 
L 325.69554 58.180934 
L 326.239532 53.197538 
L 326.783524 55.818526 
L 327.327516 51.477665 
L 327.871509 52.269671 
L 328.415501 54.764813 
L 328.959493 61.382213 
L 329.503485 60.183704 
L 330.047477 53.653829 
L 330.59147 62.744716 
L 331.135462 54.960859 
L 331.679454 58.641937 
L 332.223446 57.06594 
L 332.767438 57.605847 
L 333.311431 52.473245 
L 333.855423 51.652713 
L 334.399415 55.8439 
L 334.943407 55.610707 
L 335.487399 52.66757 
L 336.031392 55.343346 
L 336.575384 57.083394 
L 337.119376 62.76808 
L 337.663368 57.427667 
L 338.20736 58.58276 
L 338.751353 56.780654 
L 339.295345 57.52451 
L 339.839337 52.167451 
L 340.383329 48.626235 
L 340.927321 52.229918 
L 342.015306 55.549762 
L 342.559298 55.05966 
L 343.10329 51.094151 
L 343.647282 50.580509 
L 344.191275 51.627979 
L 344.735267 56.258356 
L 345.279259 51.058786 
L 345.823251 53.192679 
L 346.367243 50.665615 
L 346.911236 53.90156 
L 347.455228 52.157072 
L 347.99922 52.811962 
L 348.543212 52.703985 
L 349.087204 50.736184 
L 349.631197 54.036622 
L 350.175189 51.436286 
L 350.719181 48.246606 
L 351.263173 47.610188 
L 351.807165 53.043896 
L 352.351158 53.183385 
L 352.89515 47.993126 
L 353.439142 51.809484 
L 353.983134 48.164688 
L 354.527126 48.260481 
L 355.071119 48.977589 
L 355.615111 50.28691 
L 356.159103 52.062193 
L 356.703095 49.568004 
L 357.247087 54.460925 
L 357.79108 54.684456 
L 358.335072 52.937653 
L 358.879064 51.855609 
L 359.423056 56.807456 
L 359.967049 58.686927 
L 360.511041 58.359953 
L 361.055033 67.33544 
L 361.599025 65.010127 
L 362.143017 61.300281 
L 362.68701 55.699932 
L 363.231002 58.413803 
L 363.774994 55.70816 
L 364.318986 54.610059 
L 364.862978 50.75679 
L 365.406971 48.995559 
L 365.950963 45.751928 
L 366.494955 51.272952 
L 367.038947 54.989908 
L 367.582939 53.731801 
L 368.126932 54.06551 
L 368.670924 52.647456 
L 369.214916 52.805478 
L 369.758908 55.863809 
L 370.3029 55.439639 
L 370.846893 54.448927 
L 371.390885 56.145421 
L 371.934877 60.862427 
L 372.478869 58.601762 
L 373.022861 62.468209 
L 374.654838 51.205403 
L 375.19883 52.105874 
L 375.742822 48.602693 
L 376.286815 49.84539 
L 377.918791 57.801859 
L 378.462783 59.873919 
L 379.006776 51.553521 
L 379.550768 46.795523 
L 380.09476 51.48235 
L 380.638752 54.123932 
L 381.182744 55.306941 
L 381.726737 54.314367 
L 382.270729 49.944646 
L 382.814721 48.426203 
L 383.358713 52.456203 
L 383.902705 52.849531 
L 384.446698 49.238852 
L 384.99069 48.265128 
L 385.534682 53.005417 
L 386.078674 51.700976 
L 386.622666 50.756895 
L 387.166659 53.70279 
L 387.710651 55.645332 
L 388.254643 51.643177 
L 388.798635 51.83011 
L 389.342627 50.20831 
L 389.88662 50.819553 
L 390.430612 46.047286 
L 390.974604 52.195493 
L 391.518596 50.258217 
L 392.062588 49.263926 
L 392.606581 49.091207 
L 393.150573 46.698961 
L 393.694565 46.4775 
L 394.238557 47.959843 
L 394.782549 48.492797 
L 395.326542 50.12475 
L 395.870534 50.785828 
L 396.414526 54.444726 
L 396.958518 51.111299 
L 397.50251 51.535601 
L 398.046503 48.456972 
L 398.590495 48.717154 
L 399.134487 45.045699 
L 399.678479 46.589334 
L 400.222471 43.837264 
L 400.766464 45.540904 
L 401.310456 45.048348 
L 401.854448 48.491563 
L 402.39844 44.38002 
L 402.942432 47.700667 
L 404.030417 44.571708 
L 404.574409 43.544421 
L 405.118401 45.735667 
L 405.662393 46.794034 
L 406.206386 49.98674 
L 406.750378 46.874904 
L 407.29437 46.576669 
L 407.838362 43.896214 
L 408.382354 48.189468 
L 408.926347 47.170729 
L 409.470339 44.419304 
L 410.014331 46.769566 
L 410.558323 45.995871 
L 411.102315 46.533691 
L 411.646308 46.569582 
L 412.1903 46.218923 
L 412.734292 48.288088 
L 413.278284 46.197442 
L 413.822276 42.945541 
L 414.366269 45.85069 
L 414.910261 43.296387 
L 415.454253 45.378853 
L 415.998245 46.298427 
L 416.542237 44.581484 
L 417.08623 47.101326 
L 417.630222 45.501134 
L 418.174214 46.366386 
L 418.718206 46.920807 
L 419.262198 49.318184 
L 419.806191 48.990064 
L 420.350183 48.404083 
L 420.894175 47.135634 
L 421.438167 50.185386 
L 421.982159 50.529943 
L 422.526152 49.527805 
L 423.070144 46.705381 
L 423.614136 49.662483 
L 424.158128 50.02407 
L 424.70212 48.800158 
L 425.246113 48.644853 
L 425.790105 51.608902 
L 426.334097 52.19022 
L 426.878089 50.79206 
L 427.422081 53.184091 
L 428.510066 47.714255 
L 429.054058 50.078423 
L 429.59805 50.63986 
L 430.142042 53.539434 
L 430.686035 51.211307 
L 431.230027 50.493106 
L 431.774019 47.882856 
L 432.318011 50.844243 
L 432.862003 48.666948 
L 433.405996 47.195759 
L 433.949988 53.386774 
L 434.49398 51.284849 
L 435.037972 46.462238 
L 435.581964 45.469884 
L 436.125957 47.694246 
L 436.669949 44.18555 
L 437.213941 45.056657 
L 437.757933 44.568179 
L 438.301925 43.155188 
L 438.845918 46.443356 
L 439.38991 50.636442 
L 439.933902 51.121346 
L 440.477894 48.278651 
L 441.021886 46.676955 
L 441.565879 48.459981 
L 442.109871 48.154615 
L 442.653863 49.367823 
L 443.197855 48.73657 
L 443.741847 51.635614 
L 444.28584 52.339875 
L 444.829832 47.589507 
L 445.373824 47.210647 
L 445.917816 45.841569 
L 446.461808 46.467428 
L 447.005801 53.782184 
L 447.549793 55.894165 
L 448.093785 51.256711 
L 448.637777 47.701818 
L 449.181769 49.306496 
L 449.725762 46.530434 
L 450.269754 45.92879 
L 450.813746 47.847352 
L 451.90173 44.522679 
L 452.445723 44.90371 
L 453.533707 41.678058 
L 454.077699 48.691441 
L 454.621691 49.542728 
L 455.165684 45.469506 
L 455.709676 42.680377 
L 456.253668 43.306618 
L 456.79766 43.092376 
L 457.341652 43.181152 
L 457.885645 46.022406 
L 458.429637 46.79276 
L 458.973629 46.192132 
L 459.517621 48.244288 
L 460.061613 46.297604 
L 461.149598 44.398602 
L 461.69359 44.250668 
L 462.237582 48.212883 
L 462.781574 46.135258 
L 463.325567 48.3373 
L 463.869559 47.733128 
L 464.413551 46.354661 
L 464.957543 47.436521 
L 465.501535 44.446439 
L 466.045528 43.487028 
L 466.58952 45.91034 
L 467.133512 43.010777 
L 467.677504 42.670455 
L 468.221496 41.361757 
L 468.765489 40.552125 
L 469.309481 43.265934 
L 469.853473 41.872956 
L 470.397465 45.823558 
L 470.941457 44.769493 
L 471.48545 54.416525 
L 472.029442 48.288844 
L 472.573434 48.739329 
L 473.117426 50.430735 
L 473.661418 49.803251 
L 474.205411 48.948383 
L 474.749403 49.359814 
L 475.293395 47.407664 
L 475.837387 47.162096 
L 476.381379 46.727056 
L 476.925372 46.032008 
L 477.469364 47.615201 
L 478.013356 47.884626 
L 478.557348 47.788174 
L 480.189325 41.423145 
L 480.733317 42.565091 
L 481.277309 41.195452 
L 481.821301 40.708206 
L 482.365294 44.476097 
L 482.909286 46.704927 
L 483.99727 46.802363 
L 484.541262 48.823568 
L 485.085255 46.236669 
L 485.629247 44.403062 
L 486.173239 44.662681 
L 486.717231 46.223157 
L 487.261223 44.414755 
L 487.805216 45.209195 
L 488.349208 51.769139 
L 488.8932 51.060486 
L 489.437192 47.476091 
L 489.981184 47.912349 
L 490.525177 49.901146 
L 491.613161 46.401374 
L 492.157153 43.460788 
L 492.701146 46.601576 
L 493.245138 43.641648 
L 493.78913 44.035006 
L 494.333122 43.991413 
L 494.877114 43.092183 
L 495.421107 44.391329 
L 496.509091 44.344618 
L 496.509091 44.344618 
" clip-path="url(#pc73d7033ed)" style="fill: none; stroke: #1f77b4; stroke-width: 1.5; stroke-linecap: square"/>
   </g>
   <g id="patch_3">
    <path d="M 70.4 305.152125 
L 70.4 27.952125 
" style="fill: none; stroke: #000000; stroke-width: 0.8; stroke-linejoin: miter; stroke-linecap: square"/>
   </g>
   <g id="patch_4">
    <path d="M 516.8 305.152125 
L 516.8 27.952125 
" style="fill: none; stroke: #000000; stroke-width: 0.8; stroke-linejoin: miter; stroke-linecap: square"/>
   </g>
   <g id="patch_5">
    <path d="M 70.4 305.152125 
L 516.8 305.152125 
" style="fill: none; stroke: #000000; stroke-width: 0.8; stroke-linejoin: miter; stroke-linecap: square"/>
   </g>
   <g id="patch_6">
    <path d="M 70.4 27.952125 
L 516.8 27.952125 
" style="fill: none; stroke: #000000; stroke-width: 0.8; stroke-linejoin: miter; stroke-linecap: square"/>
   </g>
   <g id="text_18">
    <!-- ML1 Meta Testing -->
    <g transform="translate(212.004313 21.952125)scale(0.216 -0.216)">
     <defs>
      <path id="STIXGeneral-Regular-4d" d="M 5530 0 
L 3738 0 
L 3738 122 
Q 4115 147 4214 265 
Q 4314 384 4314 787 
L 4314 3661 
L 2682 0 
L 2592 0 
L 979 3514 
L 979 966 
Q 979 448 1088 294 
Q 1197 141 1574 122 
L 1574 0 
L 77 0 
L 77 122 
Q 358 141 480 205 
Q 602 269 650 432 
Q 698 595 698 966 
L 698 3514 
Q 698 3878 589 3984 
Q 480 4090 90 4115 
L 90 4237 
L 1357 4237 
L 2835 1024 
L 4250 4237 
L 5523 4237 
L 5523 4115 
Q 5178 4109 5072 3993 
Q 4966 3878 4966 3520 
L 4966 717 
Q 4966 378 5072 262 
Q 5178 147 5530 122 
L 5530 0 
z
" transform="scale(0.015625)"/>
      <path id="STIXGeneral-Regular-4c" d="M 3827 1114 
L 3520 0 
L 77 0 
L 77 122 
Q 429 141 531 256 
Q 634 371 634 736 
L 634 3494 
Q 634 3872 541 3981 
Q 448 4090 77 4115 
L 77 4237 
L 1888 4237 
L 1888 4115 
Q 1498 4090 1392 3984 
Q 1286 3878 1286 3507 
L 1286 538 
Q 1286 358 1398 304 
Q 1510 250 1862 250 
L 2310 250 
Q 3085 250 3392 640 
Q 3520 813 3661 1114 
L 3827 1114 
z
" transform="scale(0.015625)"/>
     </defs>
     <use xlink:href="#STIXGeneral-Regular-4d"/>
     <use xlink:href="#STIXGeneral-Regular-4c" x="88.899994"/>
     <use xlink:href="#STIXGeneral-Regular-31" x="149.999985"/>
     <use xlink:href="#STIXGeneral-Regular-20" x="199.999969"/>
     <use xlink:href="#STIXGeneral-Regular-4d" x="224.999954"/>
     <use xlink:href="#STIXGeneral-Regular-65" x="313.899948"/>
     <use xlink:href="#STIXGeneral-Regular-74" x="358.299942"/>
     <use xlink:href="#STIXGeneral-Regular-61" x="386.09993"/>
     <use xlink:href="#STIXGeneral-Regular-20" x="430.499924"/>
     <use xlink:href="#STIXGeneral-Regular-54" x="455.499908"/>
     <use xlink:href="#STIXGeneral-Regular-65" x="516.599899"/>
     <use xlink:href="#STIXGeneral-Regular-73" x="560.999893"/>
     <use xlink:href="#STIXGeneral-Regular-74" x="599.899887"/>
     <use xlink:href="#STIXGeneral-Regular-69" x="627.699875"/>
     <use xlink:href="#STIXGeneral-Regular-6e" x="655.499863"/>
     <use xlink:href="#STIXGeneral-Regular-67" x="705.499847"/>
    </g>
   </g>
   <g id="legend_1">
    <g id="patch_7">
     <path d="M 76 51.752125 
L 172.43375 51.752125 
Q 175.23375 51.752125 175.23375 48.952125 
L 175.23375 33.552125 
Q 175.23375 30.752125 172.43375 30.752125 
L 76 30.752125 
Q 73.2 30.752125 73.2 33.552125 
L 73.2 48.952125 
Q 73.2 51.752125 76 51.752125 
z
" style="fill: #ffffff; opacity: 0.8; stroke: #cccccc; stroke-linejoin: miter"/>
    </g>
    <g id="line2d_30">
     <path d="M 77.4 40.663687 
L 84.4 40.663687 
L 91.4 40.663687 
" style="fill: none; stroke: #1f77b4; stroke-width: 1.5; stroke-linecap: square"/>
    </g>
    <g id="text_19">
     <!-- basketball-v2 -->
     <g transform="translate(95.6 44.513687)scale(0.14 -0.14)">
      <defs>
       <path id="STIXGeneral-Regular-62" d="M 979 4358 
L 979 2406 
Q 1082 2650 1315 2797 
Q 1549 2944 1843 2944 
Q 2349 2944 2672 2541 
Q 2995 2138 2995 1536 
Q 2995 832 2566 384 
Q 2138 -64 1498 -64 
Q 1107 -64 774 67 
Q 442 198 442 358 
L 442 3622 
Q 442 3859 384 3926 
Q 326 3994 128 3994 
Q 83 3994 19 3981 
L 19 4090 
L 211 4147 
Q 864 4346 947 4371 
L 979 4358 
z
M 979 2035 
L 979 474 
Q 979 326 1161 233 
Q 1344 141 1600 141 
Q 1978 141 2195 416 
Q 2432 710 2432 1261 
Q 2432 1888 2182 2240 
Q 1971 2541 1613 2541 
Q 1357 2541 1168 2390 
Q 979 2240 979 2035 
z
" transform="scale(0.015625)"/>
       <path id="STIXGeneral-Regular-6b" d="M 3232 0 
L 1837 0 
L 1837 96 
L 1958 96 
Q 2093 96 2093 192 
Q 2093 250 2022 339 
L 1062 1606 
L 1062 429 
Q 1062 262 1142 185 
Q 1222 109 1414 102 
L 1542 96 
L 1542 0 
L 45 0 
L 45 96 
Q 390 154 457 214 
Q 525 275 525 525 
L 525 3610 
Q 525 3840 467 3920 
Q 410 4000 250 4000 
Q 211 4000 45 3987 
L 45 4090 
L 237 4141 
Q 621 4243 1037 4371 
L 1062 4358 
L 1062 1670 
L 1939 2451 
Q 2086 2586 2086 2675 
Q 2086 2739 2019 2761 
Q 1952 2784 1766 2790 
L 1766 2880 
L 3072 2880 
L 3072 2784 
Q 2752 2784 2505 2646 
Q 2259 2509 1690 1978 
L 1504 1805 
L 2483 563 
Q 2829 122 3232 96 
L 3232 0 
z
" transform="scale(0.015625)"/>
       <path id="STIXGeneral-Regular-6c" d="M 1645 0 
L 134 0 
L 134 96 
Q 435 122 531 221 
Q 627 320 627 589 
L 627 3590 
Q 627 3821 569 3910 
Q 512 4000 358 4000 
Q 224 4000 122 3987 
L 122 4090 
Q 730 4237 1133 4371 
L 1165 4346 
L 1165 557 
Q 1165 288 1254 201 
Q 1344 115 1645 96 
L 1645 0 
z
" transform="scale(0.015625)"/>
       <path id="STIXGeneral-Regular-2d" d="M 1824 1242 
L 250 1242 
L 250 1645 
L 1824 1645 
L 1824 1242 
z
" transform="scale(0.015625)"/>
      </defs>
      <use xlink:href="#STIXGeneral-Regular-62"/>
      <use xlink:href="#STIXGeneral-Regular-61" x="49.999985"/>
      <use xlink:href="#STIXGeneral-Regular-73" x="94.399979"/>
      <use xlink:href="#STIXGeneral-Regular-6b" x="133.299973"/>
      <use xlink:href="#STIXGeneral-Regular-65" x="183.299957"/>
      <use xlink:href="#STIXGeneral-Regular-74" x="227.699951"/>
      <use xlink:href="#STIXGeneral-Regular-62" x="255.499939"/>
      <use xlink:href="#STIXGeneral-Regular-61" x="305.499924"/>
      <use xlink:href="#STIXGeneral-Regular-6c" x="349.899918"/>
      <use xlink:href="#STIXGeneral-Regular-6c" x="377.699905"/>
      <use xlink:href="#STIXGeneral-Regular-2d" x="405.499893"/>
      <use xlink:href="#STIXGeneral-Regular-76" x="438.799881"/>
      <use xlink:href="#STIXGeneral-Regular-32" x="488.799866"/>
     </g>
    </g>
   </g>
  </g>
 </g>
 <defs>
  <clipPath id="pc73d7033ed">
   <rect x="70.4" y="27.952125" width="446.4" height="277.2"/>
  </clipPath>
 </defs>
</svg>
