<?xml version="1.0" encoding="utf-8" standalone="no"?>
<!DOCTYPE svg PUBLIC "-//W3C//DTD SVG 1.1//EN"
  "http://www.w3.org/Graphics/SVG/1.1/DTD/svg11.dtd">
<svg xmlns:xlink="http://www.w3.org/1999/xlink" width="524pt" height="355.769pt" viewBox="0 0 524 355.769" xmlns="http://www.w3.org/2000/svg" version="1.1">
 <metadata>
  <rdf:RDF xmlns:dc="http://purl.org/dc/elements/1.1/" xmlns:cc="http://creativecommons.org/ns#" xmlns:rdf="http://www.w3.org/1999/02/22-rdf-syntax-ns#">
   <cc:Work>
    <dc:type rdf:resource="http://purl.org/dc/dcmitype/StillImage"/>
    <dc:date>2021-12-11T16:00:22.312721</dc:date>
    <dc:format>image/svg+xml</dc:format>
    <dc:creator>
     <cc:Agent>
      <dc:title>Matplotlib v3.5.0, https://matplotlib.org/</dc:title>
     </cc:Agent>
    </dc:creator>
   </cc:Work>
  </rdf:RDF>
 </metadata>
 <defs>
  <style type="text/css">*{stroke-linejoin: round; stroke-linecap: butt}</style>
 </defs>
 <g id="figure_1">
  <g id="patch_1">
   <path d="M 0 355.769 
L 524 355.769 
L 524 0 
L 0 0 
z
" style="fill: #ffffff"/>
  </g>
  <g id="axes_1">
   <g id="patch_2">
    <path d="M 70.4 305.152125 
L 516.8 305.152125 
L 516.8 27.952125 
L 70.4 27.952125 
z
" style="fill: #ffffff"/>
   </g>
   <g id="matplotlib.axis_1">
    <g id="xtick_1">
     <g id="line2d_1">
      <path d="M 90.431435 305.152125 
L 90.431435 27.952125 
" clip-path="url(#pcef1f28003)" style="fill: none; stroke: #b0b0b0; stroke-width: 0.8; stroke-linecap: square"/>
     </g>
     <g id="line2d_2">
      <defs>
       <path id="m97930c1c4e" d="M 0 0 
L 0 3.5 
" style="stroke: #000000; stroke-width: 0.8"/>
      </defs>
      <g>
       <use xlink:href="#m97930c1c4e" x="90.431435" y="305.152125" style="stroke: #000000; stroke-width: 0.8"/>
      </g>
     </g>
     <g id="text_1">
      <!-- 0.0 -->
      <g transform="translate(79.181435 324.445562)scale(0.18 -0.18)">
       <defs>
        <path id="STIXGeneral-Regular-30" d="M 3046 2112 
Q 3046 1683 2963 1302 
Q 2880 922 2717 602 
Q 2554 282 2266 96 
Q 1978 -90 1600 -90 
Q 1210 -90 915 108 
Q 621 307 461 640 
Q 301 973 227 1350 
Q 154 1728 154 2150 
Q 154 2746 301 3222 
Q 448 3699 790 4012 
Q 1133 4326 1626 4326 
Q 2253 4326 2649 3712 
Q 3046 3098 3046 2112 
z
M 2432 2080 
Q 2432 3091 2217 3625 
Q 2003 4160 1587 4160 
Q 1190 4160 979 3622 
Q 768 3085 768 2106 
Q 768 1120 979 598 
Q 1190 77 1600 77 
Q 2003 77 2217 598 
Q 2432 1120 2432 2080 
z
" transform="scale(0.015625)"/>
        <path id="STIXGeneral-Regular-2e" d="M 1158 275 
Q 1158 134 1052 32 
Q 947 -70 800 -70 
Q 653 -70 550 32 
Q 448 134 448 281 
Q 448 429 553 534 
Q 659 640 806 640 
Q 947 640 1052 531 
Q 1158 422 1158 275 
z
" transform="scale(0.015625)"/>
       </defs>
       <use xlink:href="#STIXGeneral-Regular-30"/>
       <use xlink:href="#STIXGeneral-Regular-2e" x="49.999985"/>
       <use xlink:href="#STIXGeneral-Regular-30" x="74.999969"/>
      </g>
     </g>
    </g>
    <g id="xtick_2">
     <g id="line2d_3">
      <path d="M 155.30007 305.152125 
L 155.30007 27.952125 
" clip-path="url(#pcef1f28003)" style="fill: none; stroke: #b0b0b0; stroke-width: 0.8; stroke-linecap: square"/>
     </g>
     <g id="line2d_4">
      <g>
       <use xlink:href="#m97930c1c4e" x="155.30007" y="305.152125" style="stroke: #000000; stroke-width: 0.8"/>
      </g>
     </g>
     <g id="text_2">
      <!-- 0.5 -->
      <g transform="translate(144.05007 324.445562)scale(0.18 -0.18)">
       <defs>
        <path id="STIXGeneral-Regular-35" d="M 2803 4358 
L 2573 3814 
Q 2534 3731 2400 3731 
L 1158 3731 
L 902 3187 
Q 1606 3053 1920 2896 
Q 2234 2739 2502 2368 
Q 2726 2061 2726 1555 
Q 2726 1094 2576 780 
Q 2426 467 2099 224 
Q 1664 -90 1011 -90 
Q 646 -90 422 19 
Q 198 128 198 307 
Q 198 550 486 550 
Q 717 550 960 352 
Q 1210 147 1414 147 
Q 1747 147 2012 480 
Q 2278 813 2278 1229 
Q 2278 1843 1850 2189 
Q 1293 2637 486 2637 
Q 410 2637 410 2688 
L 416 2720 
L 1114 4237 
L 2438 4237 
Q 2547 4237 2608 4269 
Q 2669 4301 2746 4403 
L 2803 4358 
z
" transform="scale(0.015625)"/>
       </defs>
       <use xlink:href="#STIXGeneral-Regular-30"/>
       <use xlink:href="#STIXGeneral-Regular-2e" x="49.999985"/>
       <use xlink:href="#STIXGeneral-Regular-35" x="74.999969"/>
      </g>
     </g>
    </g>
    <g id="xtick_3">
     <g id="line2d_5">
      <path d="M 220.168705 305.152125 
L 220.168705 27.952125 
" clip-path="url(#pcef1f28003)" style="fill: none; stroke: #b0b0b0; stroke-width: 0.8; stroke-linecap: square"/>
     </g>
     <g id="line2d_6">
      <g>
       <use xlink:href="#m97930c1c4e" x="220.168705" y="305.152125" style="stroke: #000000; stroke-width: 0.8"/>
      </g>
     </g>
     <g id="text_3">
      <!-- 1.0 -->
      <g transform="translate(208.918705 324.445562)scale(0.18 -0.18)">
       <defs>
        <path id="STIXGeneral-Regular-31" d="M 2522 0 
L 755 0 
L 755 96 
Q 1107 115 1235 227 
Q 1363 339 1363 608 
L 1363 3482 
Q 1363 3795 1171 3795 
Q 1082 3795 883 3718 
L 710 3654 
L 710 3744 
L 1856 4326 
L 1914 4307 
L 1914 486 
Q 1914 275 2042 185 
Q 2170 96 2522 96 
L 2522 0 
z
" transform="scale(0.015625)"/>
       </defs>
       <use xlink:href="#STIXGeneral-Regular-31"/>
       <use xlink:href="#STIXGeneral-Regular-2e" x="49.999985"/>
       <use xlink:href="#STIXGeneral-Regular-30" x="74.999969"/>
      </g>
     </g>
    </g>
    <g id="xtick_4">
     <g id="line2d_7">
      <path d="M 285.03734 305.152125 
L 285.03734 27.952125 
" clip-path="url(#pcef1f28003)" style="fill: none; stroke: #b0b0b0; stroke-width: 0.8; stroke-linecap: square"/>
     </g>
     <g id="line2d_8">
      <g>
       <use xlink:href="#m97930c1c4e" x="285.03734" y="305.152125" style="stroke: #000000; stroke-width: 0.8"/>
      </g>
     </g>
     <g id="text_4">
      <!-- 1.5 -->
      <g transform="translate(273.78734 324.445562)scale(0.18 -0.18)">
       <use xlink:href="#STIXGeneral-Regular-31"/>
       <use xlink:href="#STIXGeneral-Regular-2e" x="49.999985"/>
       <use xlink:href="#STIXGeneral-Regular-35" x="74.999969"/>
      </g>
     </g>
    </g>
    <g id="xtick_5">
     <g id="line2d_9">
      <path d="M 349.905975 305.152125 
L 349.905975 27.952125 
" clip-path="url(#pcef1f28003)" style="fill: none; stroke: #b0b0b0; stroke-width: 0.8; stroke-linecap: square"/>
     </g>
     <g id="line2d_10">
      <g>
       <use xlink:href="#m97930c1c4e" x="349.905975" y="305.152125" style="stroke: #000000; stroke-width: 0.8"/>
      </g>
     </g>
     <g id="text_5">
      <!-- 2.0 -->
      <g transform="translate(338.655975 324.445562)scale(0.18 -0.18)">
       <defs>
        <path id="STIXGeneral-Regular-32" d="M 3034 877 
L 2688 0 
L 186 0 
L 186 77 
L 1325 1286 
Q 1773 1754 1965 2144 
Q 2157 2534 2157 2950 
Q 2157 3379 1920 3616 
Q 1683 3853 1267 3853 
Q 922 3853 720 3673 
Q 518 3494 326 3021 
L 192 3053 
Q 301 3648 630 3987 
Q 960 4326 1523 4326 
Q 2054 4326 2380 4006 
Q 2707 3686 2707 3200 
Q 2707 2477 1888 1613 
L 832 486 
L 2330 486 
Q 2541 486 2665 569 
Q 2790 653 2944 915 
L 3034 877 
z
" transform="scale(0.015625)"/>
       </defs>
       <use xlink:href="#STIXGeneral-Regular-32"/>
       <use xlink:href="#STIXGeneral-Regular-2e" x="49.999985"/>
       <use xlink:href="#STIXGeneral-Regular-30" x="74.999969"/>
      </g>
     </g>
    </g>
    <g id="xtick_6">
     <g id="line2d_11">
      <path d="M 414.774611 305.152125 
L 414.774611 27.952125 
" clip-path="url(#pcef1f28003)" style="fill: none; stroke: #b0b0b0; stroke-width: 0.8; stroke-linecap: square"/>
     </g>
     <g id="line2d_12">
      <g>
       <use xlink:href="#m97930c1c4e" x="414.774611" y="305.152125" style="stroke: #000000; stroke-width: 0.8"/>
      </g>
     </g>
     <g id="text_6">
      <!-- 2.5 -->
      <g transform="translate(403.524611 324.445562)scale(0.18 -0.18)">
       <use xlink:href="#STIXGeneral-Regular-32"/>
       <use xlink:href="#STIXGeneral-Regular-2e" x="49.999985"/>
       <use xlink:href="#STIXGeneral-Regular-35" x="74.999969"/>
      </g>
     </g>
    </g>
    <g id="xtick_7">
     <g id="line2d_13">
      <path d="M 479.643246 305.152125 
L 479.643246 27.952125 
" clip-path="url(#pcef1f28003)" style="fill: none; stroke: #b0b0b0; stroke-width: 0.8; stroke-linecap: square"/>
     </g>
     <g id="line2d_14">
      <g>
       <use xlink:href="#m97930c1c4e" x="479.643246" y="305.152125" style="stroke: #000000; stroke-width: 0.8"/>
      </g>
     </g>
     <g id="text_7">
      <!-- 3.0 -->
      <g transform="translate(468.393246 324.445562)scale(0.18 -0.18)">
       <defs>
        <path id="STIXGeneral-Regular-33" d="M 390 3264 
L 288 3290 
Q 435 3770 748 4048 
Q 1062 4326 1542 4326 
Q 1990 4326 2265 4083 
Q 2541 3840 2541 3450 
Q 2541 2925 1946 2566 
Q 2298 2413 2477 2227 
Q 2758 1914 2758 1402 
Q 2758 890 2464 506 
Q 2246 211 1840 60 
Q 1434 -90 979 -90 
Q 262 -90 262 275 
Q 262 378 339 442 
Q 416 506 525 506 
Q 685 506 915 339 
Q 1197 141 1466 141 
Q 1818 141 2058 425 
Q 2298 710 2298 1120 
Q 2298 1856 1632 2048 
Q 1434 2112 979 2112 
L 979 2202 
Q 1338 2323 1517 2432 
Q 2035 2726 2035 3290 
Q 2035 3610 1852 3776 
Q 1670 3942 1344 3942 
Q 768 3942 390 3264 
z
" transform="scale(0.015625)"/>
       </defs>
       <use xlink:href="#STIXGeneral-Regular-33"/>
       <use xlink:href="#STIXGeneral-Regular-2e" x="49.999985"/>
       <use xlink:href="#STIXGeneral-Regular-30" x="74.999969"/>
      </g>
     </g>
    </g>
    <g id="text_8">
     <!-- Training Environment Steps -->
     <g transform="translate(191.604688 344.645562)scale(0.18 -0.18)">
      <defs>
       <path id="STIXGeneral-Regular-54" d="M 3795 3149 
L 3642 3149 
Q 3539 3674 3353 3821 
Q 3168 3968 2656 3968 
L 2278 3968 
L 2278 710 
Q 2278 346 2387 243 
Q 2496 141 2893 122 
L 2893 0 
L 1024 0 
L 1024 122 
Q 1427 147 1526 256 
Q 1626 365 1626 787 
L 1626 3968 
L 1242 3968 
Q 723 3968 540 3817 
Q 358 3667 262 3149 
L 109 3149 
L 154 4237 
L 3750 4237 
L 3795 3149 
z
" transform="scale(0.015625)"/>
       <path id="STIXGeneral-Regular-72" d="M 1024 2931 
L 1024 2342 
Q 1267 2688 1430 2816 
Q 1594 2944 1792 2944 
Q 1958 2944 2051 2854 
Q 2144 2765 2144 2605 
Q 2144 2470 2077 2393 
Q 2010 2317 1894 2317 
Q 1773 2317 1638 2445 
Q 1536 2541 1472 2541 
Q 1338 2541 1181 2355 
Q 1024 2170 1024 2016 
L 1024 576 
Q 1024 301 1133 205 
Q 1242 109 1568 96 
L 1568 0 
L 32 0 
L 32 96 
Q 339 154 412 224 
Q 486 294 486 538 
L 486 2138 
Q 486 2349 438 2435 
Q 390 2522 269 2522 
Q 166 2522 45 2496 
L 45 2598 
Q 448 2726 992 2944 
L 1024 2931 
z
" transform="scale(0.015625)"/>
       <path id="STIXGeneral-Regular-61" d="M 2829 422 
L 2829 243 
Q 2586 -64 2253 -64 
Q 1888 -64 1843 403 
L 1837 403 
Q 1427 -64 909 -64 
Q 608 -64 422 112 
Q 237 288 237 602 
Q 237 1050 685 1350 
Q 992 1555 1837 1869 
L 1837 2214 
Q 1837 2502 1699 2646 
Q 1562 2790 1338 2790 
Q 1146 2790 1018 2697 
Q 890 2605 890 2477 
Q 890 2419 909 2348 
Q 928 2278 928 2208 
Q 928 2112 841 2029 
Q 755 1946 634 1946 
Q 525 1946 441 2029 
Q 358 2112 358 2240 
Q 358 2547 685 2752 
Q 986 2944 1421 2944 
Q 1939 2944 2176 2656 
Q 2291 2522 2323 2384 
Q 2355 2246 2355 1946 
L 2355 723 
Q 2355 301 2554 301 
Q 2682 301 2829 422 
z
M 1837 813 
L 1837 1715 
Q 1248 1510 1018 1293 
Q 800 1094 800 800 
Q 800 557 921 432 
Q 1043 307 1242 307 
Q 1453 307 1613 410 
Q 1747 506 1792 589 
Q 1837 672 1837 813 
z
" transform="scale(0.015625)"/>
       <path id="STIXGeneral-Regular-69" d="M 1152 4045 
Q 1152 3904 1056 3811 
Q 960 3718 819 3718 
Q 685 3718 592 3811 
Q 499 3904 499 4045 
Q 499 4179 595 4275 
Q 691 4371 826 4371 
Q 966 4371 1059 4275 
Q 1152 4179 1152 4045 
z
M 1619 0 
L 102 0 
L 102 96 
Q 435 115 521 211 
Q 608 307 608 666 
L 608 2118 
Q 608 2342 563 2432 
Q 518 2522 397 2522 
Q 243 2522 128 2490 
L 128 2592 
L 1120 2944 
L 1146 2918 
L 1146 672 
Q 1146 314 1226 218 
Q 1306 122 1619 96 
L 1619 0 
z
" transform="scale(0.015625)"/>
       <path id="STIXGeneral-Regular-6e" d="M 3104 0 
L 1773 0 
L 1779 96 
Q 2016 115 2096 233 
Q 2176 352 2176 672 
L 2176 1946 
Q 2176 2592 1709 2592 
Q 1549 2592 1408 2515 
Q 1267 2438 1050 2227 
L 1050 461 
Q 1050 269 1136 192 
Q 1222 115 1466 96 
L 1466 0 
L 115 0 
L 115 96 
Q 358 115 435 214 
Q 512 314 512 602 
L 512 2157 
Q 512 2394 467 2483 
Q 422 2573 288 2573 
Q 160 2573 102 2547 
L 102 2656 
Q 550 2784 979 2944 
L 1030 2925 
L 1030 2426 
L 1037 2426 
Q 1491 2944 1958 2944 
Q 2323 2944 2518 2688 
Q 2714 2432 2714 1958 
L 2714 544 
Q 2714 288 2790 205 
Q 2867 122 3104 96 
L 3104 0 
z
" transform="scale(0.015625)"/>
       <path id="STIXGeneral-Regular-67" d="M 3008 2483 
L 2477 2483 
Q 2598 2208 2598 1946 
Q 2598 1453 2265 1203 
Q 1933 954 1600 954 
Q 1530 954 1357 973 
L 1235 986 
Q 1107 947 979 812 
Q 851 678 851 582 
Q 851 435 1350 410 
L 2176 371 
Q 2528 358 2739 172 
Q 2950 -13 2950 -314 
Q 2950 -685 2566 -986 
Q 2035 -1395 1286 -1395 
Q 826 -1395 502 -1212 
Q 179 -1030 179 -774 
Q 179 -595 320 -419 
Q 461 -243 806 6 
Q 602 102 534 172 
Q 467 243 467 346 
Q 467 531 762 787 
Q 909 915 1037 1043 
Q 717 1203 579 1401 
Q 442 1600 442 1901 
Q 442 2336 752 2640 
Q 1062 2944 1510 2944 
Q 1766 2944 2022 2848 
L 2163 2797 
Q 2349 2733 2515 2733 
L 3008 2733 
L 3008 2483 
z
M 973 2163 
L 973 2144 
Q 973 1683 1155 1398 
Q 1338 1114 1632 1114 
Q 1850 1114 1978 1270 
Q 2106 1427 2106 1690 
Q 2106 2112 1914 2464 
Q 1754 2765 1446 2765 
Q 1222 2765 1097 2605 
Q 973 2445 973 2163 
z
M 2771 -410 
Q 2771 -230 2595 -163 
Q 2419 -96 1978 -96 
Q 1344 -96 941 -13 
Q 749 -243 688 -348 
Q 627 -454 627 -563 
Q 627 -774 880 -902 
Q 1133 -1030 1555 -1030 
Q 2099 -1030 2435 -860 
Q 2771 -691 2771 -410 
z
" transform="scale(0.015625)"/>
       <path id="STIXGeneral-Regular-20" transform="scale(0.015625)"/>
       <path id="STIXGeneral-Regular-45" d="M 3821 1082 
L 3526 0 
L 77 0 
L 77 122 
Q 442 147 538 252 
Q 634 358 634 730 
L 634 3520 
Q 634 3878 534 3987 
Q 435 4096 77 4115 
L 77 4237 
L 3469 4237 
L 3494 3322 
L 3334 3322 
Q 3264 3750 3085 3872 
Q 2906 3994 2349 3994 
L 1510 3994 
Q 1370 3994 1328 3952 
Q 1286 3910 1286 3763 
L 1286 2355 
L 2253 2355 
Q 2656 2355 2787 2470 
Q 2918 2586 2976 2970 
L 3123 2970 
L 3123 1472 
L 2976 1472 
Q 2918 1875 2790 1984 
Q 2662 2093 2253 2093 
L 1286 2093 
L 1286 538 
Q 1286 346 1420 291 
Q 1555 237 1933 237 
L 2163 237 
Q 2848 237 3136 403 
Q 3424 570 3642 1082 
L 3821 1082 
z
" transform="scale(0.015625)"/>
       <path id="STIXGeneral-Regular-76" d="M 3053 2880 
L 3053 2784 
Q 2906 2771 2835 2688 
Q 2765 2605 2637 2285 
L 1818 230 
Q 1690 -90 1638 -90 
Q 1587 -90 1523 77 
Q 1510 96 1497 141 
Q 1485 186 1472 211 
L 704 2048 
Q 499 2534 403 2652 
Q 307 2771 122 2784 
L 122 2880 
L 1376 2880 
L 1376 2784 
Q 1210 2771 1146 2732 
Q 1082 2694 1082 2611 
Q 1082 2509 1139 2368 
L 1792 730 
L 2426 2387 
Q 2464 2483 2464 2579 
Q 2464 2758 2163 2784 
L 2163 2880 
L 3053 2880 
z
" transform="scale(0.015625)"/>
       <path id="STIXGeneral-Regular-6f" d="M 3008 1478 
Q 3008 806 2608 371 
Q 2208 -64 1568 -64 
Q 979 -64 582 368 
Q 186 800 186 1459 
Q 186 2125 582 2534 
Q 979 2944 1626 2944 
Q 2221 2944 2614 2537 
Q 3008 2131 3008 1478 
z
M 2432 1306 
Q 2432 2035 2112 2445 
Q 1856 2765 1504 2765 
Q 1171 2765 966 2493 
Q 762 2221 762 1747 
Q 762 928 1101 435 
Q 1318 115 1677 115 
Q 2029 115 2230 432 
Q 2432 749 2432 1306 
z
" transform="scale(0.015625)"/>
       <path id="STIXGeneral-Regular-6d" d="M 4960 0 
L 3565 0 
L 3565 96 
Q 3834 122 3907 208 
Q 3981 294 3981 576 
L 3981 1894 
Q 3981 2278 3869 2444 
Q 3757 2611 3488 2611 
Q 3264 2611 3107 2521 
Q 2950 2432 2803 2221 
L 2803 608 
Q 2803 301 2896 201 
Q 2989 102 3264 96 
L 3264 0 
L 1830 0 
L 1830 96 
Q 2112 115 2189 188 
Q 2266 262 2266 550 
L 2266 1901 
Q 2266 2611 1850 2611 
Q 1670 2611 1468 2531 
Q 1267 2451 1171 2336 
Q 1088 2240 1088 2227 
L 1088 448 
Q 1088 243 1177 176 
Q 1267 109 1523 96 
L 1523 0 
L 102 0 
L 102 96 
Q 371 102 460 195 
Q 550 288 550 563 
L 550 2150 
Q 550 2387 499 2480 
Q 448 2573 326 2573 
Q 230 2573 122 2547 
L 122 2656 
Q 557 2778 1011 2944 
L 1062 2925 
L 1062 2451 
L 1075 2451 
Q 1363 2752 1584 2848 
Q 1805 2944 2054 2944 
Q 2560 2944 2733 2406 
Q 3232 2944 3776 2944 
Q 4518 2944 4518 1792 
L 4518 493 
Q 4518 282 4582 202 
Q 4646 122 4794 109 
L 4960 96 
L 4960 0 
z
" transform="scale(0.015625)"/>
       <path id="STIXGeneral-Regular-65" d="M 2611 1050 
L 2714 1005 
Q 2330 -64 1376 -64 
Q 813 -64 486 329 
Q 160 723 160 1389 
Q 160 2074 525 2509 
Q 890 2944 1485 2944 
Q 2061 2944 2374 2502 
Q 2560 2246 2592 1773 
L 621 1773 
Q 646 1370 700 1158 
Q 755 947 915 730 
Q 1184 378 1626 378 
Q 1939 378 2153 531 
Q 2368 685 2611 1050 
z
M 634 1978 
L 1939 1978 
Q 1882 2381 1750 2547 
Q 1619 2714 1312 2714 
Q 1043 2714 864 2525 
Q 685 2336 634 1978 
z
" transform="scale(0.015625)"/>
       <path id="STIXGeneral-Regular-74" d="M 1702 493 
L 1786 422 
Q 1478 -64 1011 -64 
Q 448 -64 448 749 
L 448 2675 
L 109 2675 
Q 83 2694 83 2720 
Q 83 2771 192 2842 
Q 435 2982 813 3526 
Q 826 3546 874 3606 
Q 922 3667 941 3706 
Q 986 3706 986 3622 
L 986 2880 
L 1632 2880 
L 1632 2675 
L 986 2675 
L 986 845 
Q 986 538 1062 403 
Q 1139 269 1318 269 
Q 1510 269 1702 493 
z
" transform="scale(0.015625)"/>
       <path id="STIXGeneral-Regular-53" d="M 3002 2963 
L 2842 2963 
Q 2733 3360 2579 3565 
Q 2189 4064 1651 4064 
Q 1357 4064 1181 3894 
Q 1005 3725 1005 3456 
Q 1005 3328 1069 3206 
Q 1133 3085 1206 2998 
Q 1280 2912 1465 2784 
Q 1651 2656 1766 2589 
Q 1882 2522 2150 2362 
Q 2669 2061 2905 1763 
Q 3142 1466 3142 1107 
Q 3142 576 2771 243 
Q 2400 -90 1837 -90 
Q 1421 -90 1082 58 
Q 915 128 781 128 
Q 704 128 653 70 
Q 602 13 602 -83 
L 461 -83 
L 275 1274 
L 416 1274 
Q 845 141 1734 141 
Q 2074 141 2285 342 
Q 2496 544 2496 858 
Q 2496 1158 2310 1363 
Q 2003 1696 1235 2106 
Q 454 2522 454 3206 
Q 454 3718 768 4022 
Q 1082 4326 1568 4326 
Q 1907 4326 2240 4186 
Q 2413 4109 2522 4109 
Q 2688 4109 2726 4326 
L 2861 4326 
L 3002 2963 
z
" transform="scale(0.015625)"/>
       <path id="STIXGeneral-Regular-70" d="M 1018 2931 
L 1018 2438 
Q 1421 2944 1939 2944 
Q 2406 2944 2707 2560 
Q 3008 2176 3008 1581 
Q 3008 883 2621 409 
Q 2234 -64 1664 -64 
Q 1466 -64 1328 -6 
Q 1190 51 1018 211 
L 1018 -794 
Q 1018 -1094 1120 -1180 
Q 1222 -1267 1581 -1274 
L 1581 -1389 
L 32 -1389 
L 32 -1280 
Q 314 -1254 397 -1171 
Q 480 -1088 480 -838 
L 480 2157 
Q 480 2381 429 2451 
Q 378 2522 218 2522 
Q 115 2522 58 2515 
L 58 2618 
Q 506 2752 979 2944 
L 1018 2931 
z
M 1018 2138 
L 1018 563 
Q 1018 422 1238 281 
Q 1459 141 1683 141 
Q 2029 141 2243 467 
Q 2458 794 2458 1325 
Q 2458 1888 2243 2224 
Q 2029 2560 1670 2560 
Q 1446 2560 1232 2419 
Q 1018 2278 1018 2138 
z
" transform="scale(0.015625)"/>
       <path id="STIXGeneral-Regular-73" d="M 998 1926 
L 1664 1523 
Q 1984 1331 2105 1164 
Q 2227 998 2227 736 
Q 2227 416 1961 176 
Q 1696 -64 1331 -64 
Q 1030 -64 864 -6 
Q 691 51 570 51 
Q 461 51 416 -26 
L 333 -26 
L 333 979 
L 435 979 
Q 538 512 730 294 
Q 922 77 1248 77 
Q 1485 77 1632 211 
Q 1779 346 1779 550 
Q 1779 845 1440 1030 
L 1094 1222 
Q 326 1651 326 2150 
Q 326 2522 566 2730 
Q 806 2938 1210 2938 
Q 1491 2938 1638 2867 
Q 1754 2816 1818 2816 
Q 1862 2816 1920 2880 
L 1990 2880 
L 2022 2010 
L 1926 2010 
Q 1818 2445 1654 2621 
Q 1491 2797 1203 2797 
Q 986 2797 854 2688 
Q 723 2579 723 2362 
Q 723 2253 796 2128 
Q 870 2003 998 1926 
z
" transform="scale(0.015625)"/>
      </defs>
      <use xlink:href="#STIXGeneral-Regular-54"/>
      <use xlink:href="#STIXGeneral-Regular-72" x="61.099991"/>
      <use xlink:href="#STIXGeneral-Regular-61" x="94.399979"/>
      <use xlink:href="#STIXGeneral-Regular-69" x="138.799973"/>
      <use xlink:href="#STIXGeneral-Regular-6e" x="166.59996"/>
      <use xlink:href="#STIXGeneral-Regular-69" x="216.599945"/>
      <use xlink:href="#STIXGeneral-Regular-6e" x="244.399933"/>
      <use xlink:href="#STIXGeneral-Regular-67" x="294.399918"/>
      <use xlink:href="#STIXGeneral-Regular-20" x="344.399902"/>
      <use xlink:href="#STIXGeneral-Regular-45" x="369.399887"/>
      <use xlink:href="#STIXGeneral-Regular-6e" x="430.499878"/>
      <use xlink:href="#STIXGeneral-Regular-76" x="480.499863"/>
      <use xlink:href="#STIXGeneral-Regular-69" x="530.499847"/>
      <use xlink:href="#STIXGeneral-Regular-72" x="558.299835"/>
      <use xlink:href="#STIXGeneral-Regular-6f" x="591.599823"/>
      <use xlink:href="#STIXGeneral-Regular-6e" x="641.599808"/>
      <use xlink:href="#STIXGeneral-Regular-6d" x="691.599792"/>
      <use xlink:href="#STIXGeneral-Regular-65" x="769.39978"/>
      <use xlink:href="#STIXGeneral-Regular-6e" x="813.799774"/>
      <use xlink:href="#STIXGeneral-Regular-74" x="863.799759"/>
      <use xlink:href="#STIXGeneral-Regular-20" x="891.599747"/>
      <use xlink:href="#STIXGeneral-Regular-53" x="916.599731"/>
      <use xlink:href="#STIXGeneral-Regular-74" x="972.199722"/>
      <use xlink:href="#STIXGeneral-Regular-65" x="999.99971"/>
      <use xlink:href="#STIXGeneral-Regular-70" x="1044.399704"/>
      <use xlink:href="#STIXGeneral-Regular-73" x="1094.399689"/>
     </g>
    </g>
    <g id="text_9">
     <!-- 1e8 -->
     <g transform="translate(490.806875 343.645562)scale(0.18 -0.18)">
      <defs>
       <path id="STIXGeneral-Regular-38" d="M 2848 992 
Q 2848 499 2505 204 
Q 2163 -90 1587 -90 
Q 1050 -90 704 204 
Q 358 499 358 954 
Q 358 1293 524 1533 
Q 691 1773 1190 2125 
Q 710 2522 553 2765 
Q 397 3008 397 3328 
Q 397 3782 745 4054 
Q 1094 4326 1638 4326 
Q 2106 4326 2410 4060 
Q 2714 3795 2714 3411 
Q 2714 3059 2531 2848 
Q 2349 2637 1856 2374 
Q 2432 1990 2640 1689 
Q 2848 1389 2848 992 
z
M 2272 3411 
Q 2272 3744 2086 3945 
Q 1901 4147 1574 4147 
Q 1248 4147 1059 3977 
Q 870 3808 870 3513 
Q 870 3219 1059 2979 
Q 1248 2739 1670 2490 
Q 1997 2682 2134 2896 
Q 2272 3110 2272 3411 
z
M 1734 1741 
L 1357 1997 
Q 1075 1766 960 1545 
Q 845 1325 845 1011 
Q 845 576 1065 333 
Q 1286 90 1658 90 
Q 1971 90 2166 285 
Q 2362 480 2362 794 
Q 2362 1082 2214 1299 
Q 2067 1517 1734 1741 
z
" transform="scale(0.015625)"/>
      </defs>
      <use xlink:href="#STIXGeneral-Regular-31"/>
      <use xlink:href="#STIXGeneral-Regular-65" x="49.999985"/>
      <use xlink:href="#STIXGeneral-Regular-38" x="94.399979"/>
     </g>
    </g>
   </g>
   <g id="matplotlib.axis_2">
    <g id="ytick_1">
     <g id="line2d_15">
      <path d="M 70.4 293.103136 
L 516.8 293.103136 
" clip-path="url(#pcef1f28003)" style="fill: none; stroke: #b0b0b0; stroke-width: 0.8; stroke-linecap: square"/>
     </g>
     <g id="line2d_16">
      <defs>
       <path id="m37c0bee8b0" d="M 0 0 
L -3.5 0 
" style="stroke: #000000; stroke-width: 0.8"/>
      </defs>
      <g>
       <use xlink:href="#m37c0bee8b0" x="70.4" y="293.103136" style="stroke: #000000; stroke-width: 0.8"/>
      </g>
     </g>
     <g id="text_10">
      <!-- 0 -->
      <g transform="translate(54.4 299.249854)scale(0.18 -0.18)">
       <use xlink:href="#STIXGeneral-Regular-30"/>
      </g>
     </g>
    </g>
    <g id="ytick_2">
     <g id="line2d_17">
      <path d="M 70.4 225.933439 
L 516.8 225.933439 
" clip-path="url(#pcef1f28003)" style="fill: none; stroke: #b0b0b0; stroke-width: 0.8; stroke-linecap: square"/>
     </g>
     <g id="line2d_18">
      <g>
       <use xlink:href="#m37c0bee8b0" x="70.4" y="225.933439" style="stroke: #000000; stroke-width: 0.8"/>
      </g>
     </g>
     <g id="text_11">
      <!-- 1000 -->
      <g transform="translate(27.4 232.080158)scale(0.18 -0.18)">
       <use xlink:href="#STIXGeneral-Regular-31"/>
       <use xlink:href="#STIXGeneral-Regular-30" x="49.999985"/>
       <use xlink:href="#STIXGeneral-Regular-30" x="99.999969"/>
       <use xlink:href="#STIXGeneral-Regular-30" x="149.999954"/>
      </g>
     </g>
    </g>
    <g id="ytick_3">
     <g id="line2d_19">
      <path d="M 70.4 158.763743 
L 516.8 158.763743 
" clip-path="url(#pcef1f28003)" style="fill: none; stroke: #b0b0b0; stroke-width: 0.8; stroke-linecap: square"/>
     </g>
     <g id="line2d_20">
      <g>
       <use xlink:href="#m37c0bee8b0" x="70.4" y="158.763743" style="stroke: #000000; stroke-width: 0.8"/>
      </g>
     </g>
     <g id="text_12">
      <!-- 2000 -->
      <g transform="translate(27.4 164.910461)scale(0.18 -0.18)">
       <use xlink:href="#STIXGeneral-Regular-32"/>
       <use xlink:href="#STIXGeneral-Regular-30" x="49.999985"/>
       <use xlink:href="#STIXGeneral-Regular-30" x="99.999969"/>
       <use xlink:href="#STIXGeneral-Regular-30" x="149.999954"/>
      </g>
     </g>
    </g>
    <g id="ytick_4">
     <g id="line2d_21">
      <path d="M 70.4 91.594046 
L 516.8 91.594046 
" clip-path="url(#pcef1f28003)" style="fill: none; stroke: #b0b0b0; stroke-width: 0.8; stroke-linecap: square"/>
     </g>
     <g id="line2d_22">
      <g>
       <use xlink:href="#m37c0bee8b0" x="70.4" y="91.594046" style="stroke: #000000; stroke-width: 0.8"/>
      </g>
     </g>
     <g id="text_13">
      <!-- 3000 -->
      <g transform="translate(27.4 97.740765)scale(0.18 -0.18)">
       <use xlink:href="#STIXGeneral-Regular-33"/>
       <use xlink:href="#STIXGeneral-Regular-30" x="49.999985"/>
       <use xlink:href="#STIXGeneral-Regular-30" x="99.999969"/>
       <use xlink:href="#STIXGeneral-Regular-30" x="149.999954"/>
      </g>
     </g>
    </g>
    <g id="text_14">
     <!-- Average Test Return -->
     <g transform="translate(19.476562 241.533375)rotate(-90)scale(0.18 -0.18)">
      <defs>
       <path id="STIXGeneral-Regular-41" d="M 4525 0 
L 2893 0 
L 2893 122 
Q 3149 122 3245 179 
Q 3334 224 3334 333 
Q 3334 499 3213 781 
L 2950 1382 
L 1274 1382 
L 979 653 
Q 922 506 922 384 
Q 922 237 1027 179 
Q 1133 122 1370 122 
L 1370 0 
L 96 0 
L 96 122 
Q 365 147 486 316 
Q 608 486 902 1190 
L 2221 4314 
L 2349 4314 
L 3923 710 
Q 4064 378 4176 262 
Q 4288 147 4525 122 
L 4525 0 
z
M 2861 1645 
L 2118 3405 
L 1382 1645 
L 2861 1645 
z
" transform="scale(0.015625)"/>
       <path id="STIXGeneral-Regular-52" d="M 4224 0 
L 3187 0 
L 1664 1971 
L 1306 1958 
L 1306 717 
Q 1306 352 1405 249 
Q 1504 147 1875 122 
L 1875 0 
L 109 0 
L 109 122 
Q 474 154 563 262 
Q 653 371 653 794 
L 653 3526 
Q 653 3885 563 3987 
Q 474 4090 109 4115 
L 109 4237 
L 1850 4237 
Q 2726 4237 3187 3859 
Q 3501 3603 3501 3091 
Q 3501 2221 2342 2042 
L 3622 422 
Q 3757 256 3878 198 
Q 4000 141 4224 122 
L 4224 0 
z
M 1306 3731 
L 1306 2195 
Q 1766 2202 1990 2246 
Q 2214 2291 2438 2413 
Q 2803 2618 2803 3142 
Q 2803 4000 1632 4000 
Q 1459 4000 1382 3945 
Q 1306 3891 1306 3731 
z
" transform="scale(0.015625)"/>
       <path id="STIXGeneral-Regular-75" d="M 3072 320 
L 3072 230 
Q 2573 96 2195 -58 
L 2163 -38 
L 2163 486 
L 2150 486 
Q 1747 -64 1235 -64 
Q 870 -64 662 160 
Q 454 384 454 755 
L 454 2362 
Q 454 2598 371 2688 
Q 288 2778 58 2790 
L 58 2880 
L 992 2880 
L 992 813 
Q 992 595 1123 451 
Q 1254 307 1446 307 
Q 1760 307 1984 506 
Q 2067 582 2099 649 
Q 2131 717 2131 877 
L 2131 2355 
Q 2131 2605 2041 2678 
Q 1952 2752 1658 2771 
L 1658 2880 
L 2669 2880 
L 2669 685 
Q 2669 461 2742 390 
Q 2816 320 3034 320 
L 3072 320 
z
" transform="scale(0.015625)"/>
      </defs>
      <use xlink:href="#STIXGeneral-Regular-41"/>
      <use xlink:href="#STIXGeneral-Regular-76" x="72.199982"/>
      <use xlink:href="#STIXGeneral-Regular-65" x="122.199966"/>
      <use xlink:href="#STIXGeneral-Regular-72" x="166.59996"/>
      <use xlink:href="#STIXGeneral-Regular-61" x="199.899948"/>
      <use xlink:href="#STIXGeneral-Regular-67" x="244.299942"/>
      <use xlink:href="#STIXGeneral-Regular-65" x="294.299927"/>
      <use xlink:href="#STIXGeneral-Regular-20" x="338.699921"/>
      <use xlink:href="#STIXGeneral-Regular-54" x="363.699905"/>
      <use xlink:href="#STIXGeneral-Regular-65" x="424.799896"/>
      <use xlink:href="#STIXGeneral-Regular-73" x="469.19989"/>
      <use xlink:href="#STIXGeneral-Regular-74" x="508.099884"/>
      <use xlink:href="#STIXGeneral-Regular-20" x="535.899872"/>
      <use xlink:href="#STIXGeneral-Regular-52" x="560.899857"/>
      <use xlink:href="#STIXGeneral-Regular-65" x="627.599854"/>
      <use xlink:href="#STIXGeneral-Regular-74" x="671.999847"/>
      <use xlink:href="#STIXGeneral-Regular-75" x="699.799835"/>
      <use xlink:href="#STIXGeneral-Regular-72" x="749.79982"/>
      <use xlink:href="#STIXGeneral-Regular-6e" x="783.099808"/>
     </g>
    </g>
   </g>
   <g id="line2d_23">
    <path d="M 90.690909 292.552125 
L 91.469333 292.358502 
L 91.728807 292.19586 
L 94.064078 292.100831 
L 94.323553 292.1529 
L 94.842502 292.055874 
L 98.994094 291.78441 
L 99.513043 291.813932 
L 100.031993 291.541063 
L 100.550942 291.602555 
L 101.069891 291.541811 
L 101.329365 291.338924 
L 101.848314 291.368863 
L 102.107789 290.506965 
L 102.367263 290.283684 
L 102.626738 290.600467 
L 102.886213 290.119576 
L 103.145687 290.224057 
L 103.405162 289.53854 
L 103.664636 289.336977 
L 103.924111 289.456638 
L 104.183585 289.291824 
L 104.702534 289.739775 
L 104.962009 289.805608 
L 105.480958 288.627646 
L 105.740432 288.675034 
L 105.999907 287.74096 
L 106.259382 289.00105 
L 107.037805 288.954005 
L 107.29728 289.797295 
L 107.556754 289.804536 
L 107.816229 289.62585 
L 108.075703 288.764553 
L 108.335178 289.326809 
L 108.594652 288.730626 
L 108.854127 288.863221 
L 109.373076 288.520403 
L 109.632551 287.374832 
L 109.892025 287.181459 
L 110.1515 287.667113 
L 110.410974 287.358841 
L 110.670449 286.293249 
L 110.929923 285.983442 
L 111.189398 285.154431 
L 111.448872 286.01578 
L 111.708347 287.431677 
L 111.967821 285.937468 
L 112.227296 286.016842 
L 112.486771 286.453879 
L 112.746245 287.447954 
L 113.00572 285.764228 
L 113.265194 287.001563 
L 113.524669 286.513349 
L 113.784143 286.561474 
L 114.043618 286.755409 
L 114.303092 285.470239 
L 114.562567 285.858273 
L 114.822041 284.439206 
L 115.081516 281.934448 
L 115.34099 282.581441 
L 115.600465 285.386851 
L 115.85994 284.640503 
L 116.119414 284.649172 
L 116.378889 285.790744 
L 116.897838 284.858723 
L 117.157312 285.568982 
L 117.416787 284.261761 
L 117.676261 285.411966 
L 117.935736 284.286359 
L 118.19521 285.229136 
L 118.454685 286.835172 
L 118.714159 287.62946 
L 118.973634 287.518072 
L 119.233109 285.00616 
L 119.492583 285.217761 
L 119.752058 284.990052 
L 120.271007 287.220934 
L 120.530481 286.129874 
L 120.789956 286.153002 
L 121.04943 280.268821 
L 121.308905 280.888824 
L 121.568379 281.155504 
L 122.346803 283.921289 
L 122.606278 286.038938 
L 122.865752 283.814863 
L 123.125227 285.057079 
L 123.644176 284.22152 
L 123.90365 281.856742 
L 124.163125 283.039502 
L 124.422599 280.217497 
L 124.682074 279.760284 
L 124.941548 279.709904 
L 125.201023 277.828883 
L 125.719972 280.126124 
L 125.979447 282.57306 
L 126.238921 280.633049 
L 126.498396 279.954962 
L 126.75787 280.209658 
L 127.017345 283.124789 
L 127.276819 283.609979 
L 127.536294 283.384961 
L 127.795768 281.726675 
L 128.055243 283.922461 
L 128.314718 285.041597 
L 128.574192 285.08085 
L 128.833667 286.492767 
L 129.093141 285.094358 
L 129.61209 283.396014 
L 129.871565 284.777582 
L 130.131039 279.933511 
L 130.390514 282.58276 
L 130.649988 280.739631 
L 131.168937 284.313536 
L 131.428412 284.151072 
L 131.687887 283.125024 
L 131.947361 282.763467 
L 132.206836 282.039677 
L 132.46631 277.089116 
L 132.985259 281.629506 
L 133.244734 280.869337 
L 133.504208 282.80457 
L 133.763683 282.479421 
L 134.023157 282.764962 
L 134.542106 283.924491 
L 134.801581 284.397596 
L 135.061056 282.418962 
L 135.32053 282.623103 
L 135.580005 283.654439 
L 136.098954 284.17015 
L 136.358428 286.019994 
L 136.877377 287.282855 
L 137.136852 285.680059 
L 137.396326 285.846456 
L 137.655801 285.457379 
L 137.915276 284.618847 
L 138.17475 285.214784 
L 138.434225 284.712806 
L 138.693699 286.332576 
L 138.953174 285.314738 
L 139.212648 285.939967 
L 139.472123 285.767016 
L 139.991072 282.347808 
L 140.510021 284.814399 
L 140.769495 284.949638 
L 141.02897 285.53142 
L 141.288445 285.258107 
L 141.547919 284.18429 
L 141.807394 278.730432 
L 142.066868 281.41997 
L 142.326343 282.350933 
L 142.585817 282.697886 
L 143.104766 281.597284 
L 143.364241 282.156231 
L 143.623715 280.778436 
L 143.88319 281.696982 
L 144.142664 281.347362 
L 144.402139 281.346822 
L 144.661614 281.968546 
L 144.921088 280.827201 
L 145.180563 278.318223 
L 145.440037 282.230362 
L 145.699512 282.752794 
L 145.958986 281.635474 
L 146.477935 284.542678 
L 146.73741 283.619817 
L 146.996884 284.978113 
L 147.256359 285.709427 
L 147.515834 287.164184 
L 148.034783 282.804375 
L 148.294257 284.293528 
L 148.553732 284.6525 
L 149.332155 280.098913 
L 149.59163 281.821422 
L 149.851104 281.67354 
L 150.110579 280.174856 
L 150.370053 276.896776 
L 150.629528 279.028134 
L 150.889003 279.815361 
L 151.148477 279.394019 
L 151.667426 283.191471 
L 151.926901 280.653622 
L 152.186375 279.929714 
L 152.44585 279.638445 
L 152.705324 279.686124 
L 152.964799 278.63999 
L 153.224273 279.282664 
L 153.743223 276.694582 
L 154.002697 280.129684 
L 154.262172 279.548146 
L 154.521646 279.770597 
L 154.781121 278.448997 
L 155.040595 279.635083 
L 155.30007 278.855931 
L 155.559544 277.300459 
L 155.819019 277.962517 
L 156.078493 277.277555 
L 156.337968 277.777358 
L 156.597442 277.053506 
L 156.856917 281.054311 
L 157.116392 278.012308 
L 157.375866 276.479032 
L 157.894815 279.171666 
L 158.15429 281.553914 
L 158.413764 281.021175 
L 158.673239 283.104518 
L 158.932713 280.344553 
L 159.192188 279.838923 
L 159.451662 275.777243 
L 159.711137 275.56394 
L 160.230086 273.673416 
L 160.489561 274.775832 
L 160.749035 271.169916 
L 161.00851 272.159715 
L 161.267984 271.373419 
L 161.527459 272.85372 
L 161.786933 277.082637 
L 162.046408 278.059269 
L 162.305882 280.822203 
L 162.565357 280.365569 
L 163.084306 276.591967 
L 163.603255 269.394023 
L 163.86273 267.63276 
L 164.122204 268.584949 
L 164.381679 272.451391 
L 164.641153 269.468619 
L 164.900628 268.446641 
L 165.160102 270.677038 
L 165.419577 271.159316 
L 165.679051 274.554876 
L 165.938526 270.279908 
L 166.198 270.53796 
L 166.457475 271.561981 
L 166.71695 269.55859 
L 166.976424 273.405337 
L 167.235899 274.508102 
L 167.495373 274.989133 
L 167.754848 275.181945 
L 168.014322 270.612689 
L 168.273797 271.481229 
L 168.533271 275.552767 
L 168.792746 276.053 
L 169.05222 278.68798 
L 169.311695 279.431322 
L 169.571169 278.903714 
L 170.090119 276.718299 
L 170.349593 280.656679 
L 170.609068 279.035297 
L 170.868542 279.90006 
L 171.128017 277.716505 
L 171.646966 270.678873 
L 171.90644 270.720384 
L 172.165915 272.65191 
L 172.425389 272.660543 
L 172.684864 273.200477 
L 172.944339 275.742514 
L 173.203813 279.586572 
L 173.463288 277.133774 
L 173.722762 277.380576 
L 173.982237 274.482474 
L 174.241711 274.997893 
L 174.501186 274.244055 
L 175.020135 266.906624 
L 175.279609 271.223394 
L 176.317508 278.059871 
L 176.576982 270.416705 
L 176.836457 274.642521 
L 177.095931 271.103976 
L 177.355406 272.557468 
L 177.61488 276.009586 
L 177.874355 277.8813 
L 178.133829 274.302313 
L 178.393304 275.666784 
L 178.652778 271.692986 
L 178.912253 274.84537 
L 179.171728 275.066119 
L 179.431202 274.441059 
L 179.690677 272.675858 
L 179.950151 268.087281 
L 180.209626 268.338886 
L 180.4691 265.045111 
L 180.728575 269.123097 
L 181.247524 266.103026 
L 181.506998 270.264234 
L 181.766473 269.321006 
L 182.025947 268.81753 
L 182.285422 270.035542 
L 182.544897 270.01692 
L 182.804371 267.411553 
L 183.063846 269.646298 
L 183.32332 263.633405 
L 183.582795 264.83232 
L 183.842269 269.962762 
L 184.101744 269.415911 
L 184.361218 266.002959 
L 184.620693 266.965969 
L 184.880167 268.443384 
L 185.139642 268.867321 
L 185.399116 266.18362 
L 186.17754 268.361608 
L 186.437015 273.486714 
L 186.696489 267.896056 
L 186.955964 269.967859 
L 187.215438 270.843213 
L 187.734387 261.357242 
L 187.993862 265.464196 
L 188.253336 267.350319 
L 188.512811 257.490965 
L 188.772286 255.06415 
L 189.03176 255.063276 
L 189.291235 257.950402 
L 189.810184 255.109248 
L 190.069658 260.419595 
L 190.329133 259.630459 
L 190.588607 260.999629 
L 191.107556 256.294087 
L 191.367031 258.470645 
L 191.626505 252.714303 
L 191.88598 254.955554 
L 192.145455 255.686444 
L 192.404929 251.544631 
L 192.664404 254.123776 
L 192.923878 259.733415 
L 193.183353 259.157674 
L 193.442827 261.926782 
L 193.961776 254.23572 
L 194.221251 255.110455 
L 194.480725 254.649488 
L 194.7402 246.806325 
L 195.259149 256.495396 
L 195.518624 254.551672 
L 195.778098 258.560634 
L 196.037573 254.496735 
L 196.297047 255.79064 
L 196.556522 249.648561 
L 196.815996 254.865925 
L 197.075471 254.573771 
L 197.334945 254.476813 
L 197.59442 253.70497 
L 197.853894 251.525767 
L 198.113369 256.219761 
L 198.372844 255.463284 
L 198.632318 254.091366 
L 198.891793 247.529964 
L 199.151267 248.762812 
L 199.670216 252.59228 
L 199.929691 252.56702 
L 200.189165 254.401502 
L 200.44864 249.164807 
L 200.708114 247.378931 
L 200.967589 248.705162 
L 201.227063 254.381599 
L 201.486538 249.759428 
L 201.746013 247.610008 
L 202.005487 250.970642 
L 202.264962 251.018234 
L 202.524436 254.88836 
L 202.783911 252.922041 
L 203.043385 248.494856 
L 203.30286 247.587642 
L 203.562334 252.162196 
L 203.821809 254.735535 
L 204.081283 252.730291 
L 204.340758 248.549781 
L 204.600233 251.097527 
L 204.859707 250.946001 
L 205.119182 251.951074 
L 205.378656 246.475158 
L 205.638131 246.22774 
L 205.897605 247.98853 
L 206.15708 243.81462 
L 206.935503 256.411765 
L 207.454452 246.931718 
L 207.713927 249.249512 
L 207.973402 246.814244 
L 208.232876 252.933971 
L 208.492351 256.032187 
L 208.751825 252.401965 
L 209.0113 253.994559 
L 209.270774 253.41761 
L 209.530249 252.060076 
L 209.789723 248.449794 
L 210.049198 249.688557 
L 210.308672 253.81025 
L 210.568147 255.818943 
L 210.827621 251.710565 
L 211.087096 253.967681 
L 211.346571 252.43546 
L 211.606045 256.310399 
L 211.86552 253.493079 
L 212.124994 255.644074 
L 212.384469 256.441098 
L 212.643943 257.952538 
L 212.903418 251.955266 
L 213.422367 245.651117 
L 213.681841 247.043572 
L 213.941316 250.161047 
L 214.200791 249.829762 
L 214.460265 247.013566 
L 214.71974 241.217085 
L 214.979214 238.369028 
L 215.238689 238.352854 
L 215.498163 244.13438 
L 215.757638 246.625548 
L 216.017112 251.655449 
L 216.276587 250.960567 
L 216.536061 248.00045 
L 216.795536 255.004182 
L 217.05501 250.902862 
L 217.314485 251.190067 
L 217.833434 245.583454 
L 218.092909 246.052539 
L 218.352383 248.954873 
L 218.611858 247.794289 
L 218.871332 250.42013 
L 219.130807 247.304175 
L 219.390281 253.625867 
L 219.649756 253.368402 
L 219.90923 255.890059 
L 220.168705 254.244657 
L 220.687654 256.011889 
L 221.466078 249.459823 
L 221.725552 249.750253 
L 221.985027 254.947455 
L 222.503976 246.35128 
L 222.76345 239.719914 
L 223.022925 242.606412 
L 223.282399 242.259742 
L 223.801349 255.609036 
L 224.060823 255.111885 
L 224.579772 247.799299 
L 224.839247 251.2758 
L 225.098721 245.658758 
L 225.358196 247.125346 
L 225.61767 246.897624 
L 225.877145 244.513359 
L 226.655568 250.135168 
L 226.915043 252.305012 
L 227.174518 253.528475 
L 227.433992 241.697858 
L 227.952941 239.246447 
L 228.212416 242.029817 
L 228.47189 236.841109 
L 228.731365 244.533012 
L 229.250314 238.88081 
L 229.509788 237.382548 
L 229.769263 240.158572 
L 230.028738 238.240591 
L 230.547687 238.987996 
L 230.807161 238.741052 
L 231.32611 247.233551 
L 231.585585 247.418209 
L 231.845059 239.556741 
L 232.104534 238.628119 
L 232.364008 233.648048 
L 232.882957 237.522388 
L 233.142432 226.916183 
L 233.401907 228.44971 
L 233.661381 231.590013 
L 233.920856 228.26726 
L 234.18033 232.887746 
L 234.439805 230.906984 
L 234.699279 233.444431 
L 234.958754 234.861803 
L 235.218228 229.567325 
L 235.477703 229.632978 
L 235.737177 233.567804 
L 235.996652 233.03069 
L 236.256126 237.405239 
L 236.515601 234.064718 
L 236.775076 228.496413 
L 237.03455 229.004106 
L 237.294025 233.95287 
L 237.553499 236.118627 
L 237.812974 231.343547 
L 238.072448 229.731507 
L 238.331923 221.345664 
L 238.591397 222.443239 
L 238.850872 226.780301 
L 239.110346 222.64045 
L 239.369821 224.824758 
L 239.629296 222.461042 
L 239.88877 226.723453 
L 240.148245 216.885054 
L 240.407719 215.621099 
L 240.667194 211.782362 
L 240.926668 224.605754 
L 241.186143 222.686259 
L 241.445617 217.692626 
L 241.705092 217.71982 
L 241.964566 220.843075 
L 242.224041 217.391755 
L 242.483515 224.14806 
L 242.74299 213.644003 
L 243.261939 219.248654 
L 243.521414 222.620205 
L 243.780888 221.717124 
L 244.040363 228.766396 
L 244.299837 230.952431 
L 244.559312 230.350782 
L 244.818786 233.526675 
L 245.078261 224.348657 
L 245.337735 225.036929 
L 245.856684 230.615555 
L 246.116159 226.779923 
L 246.375634 228.154232 
L 246.635108 228.906763 
L 247.154057 217.08656 
L 247.413532 212.697087 
L 247.673006 222.630997 
L 247.932481 220.801049 
L 248.191955 225.628706 
L 248.45143 224.423515 
L 248.710904 221.25611 
L 248.970379 227.430545 
L 249.229854 222.192428 
L 250.267752 211.798088 
L 250.527226 210.123739 
L 251.046175 217.409002 
L 251.30565 218.139759 
L 251.565124 219.939596 
L 251.824599 220.335473 
L 252.084073 225.407971 
L 252.343548 214.392993 
L 252.603023 218.538315 
L 252.862497 217.834409 
L 253.121972 218.349021 
L 253.381446 216.884668 
L 253.640921 213.814186 
L 253.900395 215.039391 
L 254.15987 215.724077 
L 254.419344 221.53305 
L 254.678819 223.564006 
L 254.938293 229.656186 
L 255.197768 225.433241 
L 255.457243 219.276332 
L 255.716717 220.971915 
L 255.976192 209.61697 
L 256.235666 207.13455 
L 256.495141 217.65664 
L 256.754615 217.235437 
L 257.01409 214.572825 
L 257.273564 214.293457 
L 257.533039 214.236046 
L 257.792513 207.310907 
L 258.051988 210.301547 
L 258.311462 216.913641 
L 258.570937 199.810437 
L 258.830412 207.923834 
L 259.089886 207.303299 
L 259.349361 214.726388 
L 259.608835 210.905561 
L 259.86831 213.411353 
L 260.127784 212.829287 
L 260.387259 215.778087 
L 260.646733 208.239027 
L 260.906208 205.797528 
L 261.165682 198.03722 
L 261.684631 203.601523 
L 262.203581 213.215474 
L 262.463055 211.961496 
L 262.72253 216.685555 
L 262.982004 210.693158 
L 263.241479 199.305805 
L 263.500953 200.902036 
L 263.760428 190.504891 
L 264.019902 190.739031 
L 264.538851 186.370713 
L 264.798326 187.040647 
L 265.057801 192.216737 
L 265.317275 193.974631 
L 265.57675 202.298283 
L 265.836224 204.059536 
L 266.095699 196.327149 
L 266.355173 197.428607 
L 266.614648 191.88435 
L 266.874122 182.842114 
L 267.133597 180.749446 
L 267.652546 194.656535 
L 267.91202 180.776917 
L 268.171495 190.441178 
L 268.43097 188.061274 
L 268.690444 195.685835 
L 268.949919 193.666112 
L 269.209393 187.947309 
L 269.468868 187.606722 
L 269.728342 197.37012 
L 269.987817 183.630829 
L 270.247291 194.623196 
L 270.506766 185.667074 
L 270.76624 199.831094 
L 271.025715 205.954529 
L 271.285189 205.334843 
L 271.544664 205.940803 
L 271.804139 193.90891 
L 272.063613 191.264549 
L 272.323088 196.917848 
L 272.582562 194.189432 
L 272.842037 189.019413 
L 273.101511 202.132246 
L 273.360986 204.811375 
L 273.879935 192.647624 
L 274.139409 185.724868 
L 274.398884 191.178131 
L 274.658359 188.482599 
L 274.917833 196.204007 
L 275.177308 185.533449 
L 275.436782 186.116317 
L 275.696257 196.963644 
L 275.955731 202.401593 
L 276.215206 196.96464 
L 276.47468 194.760145 
L 276.734155 199.110155 
L 276.993629 200.024506 
L 277.253104 193.031292 
L 277.512578 195.949599 
L 277.772053 203.748968 
L 278.031528 188.243236 
L 278.291002 192.795236 
L 278.550477 184.857658 
L 278.809951 182.777773 
L 279.069426 184.061084 
L 279.3289 186.437774 
L 279.588375 189.852962 
L 279.847849 194.788561 
L 280.107324 195.741383 
L 280.366798 184.67955 
L 281.145222 206.245107 
L 281.404697 197.92702 
L 281.664171 194.821583 
L 281.923646 184.47632 
L 282.18312 188.922312 
L 282.442595 184.764954 
L 282.702069 200.864222 
L 283.221018 184.345022 
L 283.480493 186.147424 
L 283.739967 186.496378 
L 283.999442 192.08763 
L 284.518391 178.755601 
L 284.777866 181.064355 
L 285.03734 167.706555 
L 285.296815 189.436918 
L 285.556289 184.489866 
L 285.815764 188.259645 
L 286.075238 185.864982 
L 286.334713 204.700245 
L 286.594187 197.026846 
L 286.853662 192.84527 
L 287.113136 194.753962 
L 287.372611 191.281005 
L 287.632086 191.651152 
L 288.151035 194.800807 
L 288.410509 205.321373 
L 288.669984 204.481842 
L 288.929458 194.706518 
L 289.188933 195.464302 
L 289.448407 193.261535 
L 289.707882 181.851032 
L 289.967356 185.900432 
L 290.226831 184.32751 
L 290.74578 197.275351 
L 291.005255 187.574648 
L 291.264729 201.972872 
L 291.524204 187.147379 
L 291.783678 182.72014 
L 292.043153 187.563861 
L 292.302627 181.643283 
L 292.562102 178.400265 
L 292.821576 186.279039 
L 293.081051 189.01953 
L 293.340525 194.199096 
L 293.6 193.437792 
L 293.859475 185.546905 
L 294.118949 181.773929 
L 294.378424 180.772527 
L 294.637898 175.473418 
L 295.156847 192.622925 
L 295.675796 183.839084 
L 295.935271 196.612754 
L 296.194745 197.524952 
L 296.45422 193.898019 
L 296.713694 185.253739 
L 296.973169 187.770413 
L 297.232644 178.275492 
L 297.492118 180.805978 
L 297.751593 175.636435 
L 298.011067 176.699056 
L 298.270542 178.916431 
L 298.530016 171.544117 
L 298.789491 187.17866 
L 299.048965 188.098667 
L 299.30844 187.802709 
L 299.567914 189.996307 
L 299.827389 181.084167 
L 300.346338 183.516423 
L 300.865287 179.099572 
L 301.124762 180.698116 
L 301.384236 184.812946 
L 301.643711 179.458811 
L 301.903185 178.204904 
L 302.422134 166.449281 
L 302.681609 175.430534 
L 302.941083 168.697638 
L 303.200558 165.746437 
L 303.460033 171.117268 
L 303.719507 167.29404 
L 303.978982 168.390602 
L 304.238456 167.712924 
L 304.497931 161.275739 
L 304.757405 161.603632 
L 305.01688 170.577172 
L 305.276354 173.251841 
L 305.535829 174.448665 
L 305.795303 169.874575 
L 306.054778 174.363142 
L 306.314252 173.176741 
L 306.573727 178.984802 
L 306.833202 177.555142 
L 307.092676 183.840813 
L 307.352151 182.347319 
L 307.611625 182.87418 
L 307.8711 186.455417 
L 308.130574 178.458091 
L 308.390049 176.992971 
L 308.649523 174.769758 
L 308.908998 180.27709 
L 309.427947 174.851737 
L 309.687422 169.769566 
L 309.946896 172.609432 
L 310.206371 170.97792 
L 310.465845 168.027314 
L 310.72532 183.308961 
L 310.984794 184.757491 
L 311.503743 194.049711 
L 312.022692 184.695025 
L 312.282167 190.327043 
L 312.541641 189.94278 
L 312.801116 178.812736 
L 313.060591 173.007016 
L 313.320065 169.711538 
L 313.57954 159.711543 
L 313.839014 177.596801 
L 314.098489 175.444484 
L 314.617438 182.828217 
L 314.876912 179.591978 
L 315.136387 182.579807 
L 315.395861 177.082232 
L 315.655336 175.658157 
L 315.914811 182.994086 
L 316.174285 170.136327 
L 316.43376 169.405212 
L 316.693234 167.633827 
L 316.952709 178.776016 
L 317.212183 181.853706 
L 317.731132 167.25964 
L 317.990607 167.206368 
L 318.250081 170.021308 
L 318.509556 159.831265 
L 319.028505 170.175744 
L 319.28798 163.381408 
L 319.547454 163.745835 
L 319.806929 174.099362 
L 320.066403 176.440038 
L 320.325878 183.105975 
L 320.585352 170.329109 
L 320.844827 164.317043 
L 321.104301 175.321174 
L 321.363776 168.36924 
L 321.62325 171.514641 
L 321.882725 182.581857 
L 322.142199 180.827165 
L 322.401674 173.957986 
L 322.661149 183.294333 
L 322.920623 185.339339 
L 323.180098 172.103343 
L 323.439572 170.42467 
L 323.699047 171.909527 
L 324.217996 183.878586 
L 324.47747 173.890999 
L 324.736945 172.097976 
L 324.996419 174.351087 
L 325.255894 171.485005 
L 325.515369 173.946875 
L 325.774843 180.881713 
L 326.034318 174.325362 
L 326.293792 179.493689 
L 326.553267 176.061425 
L 326.812741 178.37586 
L 327.072216 173.720134 
L 327.33169 178.499481 
L 327.591165 180.291033 
L 327.850639 183.492311 
L 328.110114 185.02699 
L 328.369588 176.819764 
L 328.629063 175.109078 
L 328.888538 170.590866 
L 329.148012 171.186967 
L 329.407487 174.34812 
L 329.666961 175.633285 
L 330.18591 159.692937 
L 330.445385 163.781983 
L 330.704859 164.049663 
L 330.964334 164.883635 
L 331.223808 165.268373 
L 331.483283 162.522454 
L 332.261707 139.53481 
L 332.780656 141.088631 
L 333.04013 155.102186 
L 333.299605 159.145423 
L 333.559079 165.185843 
L 333.818554 160.808727 
L 334.078028 160.315644 
L 334.337503 165.992003 
L 334.596977 166.40611 
L 334.856452 165.796902 
L 335.115927 156.04533 
L 335.375401 151.052466 
L 335.89435 161.638916 
L 336.153825 158.497128 
L 336.413299 158.713098 
L 336.672774 157.494141 
L 336.932248 150.507109 
L 337.191723 147.83532 
L 337.710672 154.566454 
L 337.970146 155.137942 
L 338.489096 163.646245 
L 338.74857 152.29398 
L 339.008045 150.183568 
L 339.267519 140.189563 
L 339.526994 142.693912 
L 339.786468 142.401516 
L 340.045943 140.765452 
L 340.305417 144.44852 
L 340.564892 143.419784 
L 340.824366 153.515473 
L 341.343316 148.348129 
L 341.60279 140.137958 
L 341.862265 141.52294 
L 342.121739 139.051935 
L 342.381214 143.706648 
L 342.640688 143.261431 
L 342.900163 139.183936 
L 343.159637 131.958125 
L 343.419112 133.125778 
L 343.678586 130.563772 
L 343.938061 133.21496 
L 344.197535 139.614157 
L 344.45701 131.169997 
L 344.975959 146.319558 
L 345.494908 141.123583 
L 345.754383 134.488403 
L 346.013857 140.827807 
L 346.532806 127.337325 
L 347.051755 141.584936 
L 347.31123 145.862351 
L 347.570704 144.163707 
L 347.830179 147.050498 
L 348.089654 139.982968 
L 348.349128 139.889904 
L 348.608603 138.376391 
L 348.868077 143.80316 
L 349.127552 131.953458 
L 349.387026 130.68355 
L 349.646501 141.191792 
L 349.905975 138.586988 
L 350.16545 129.427652 
L 350.424924 127.123064 
L 350.684399 130.180524 
L 350.943874 135.711044 
L 351.203348 127.879837 
L 351.462823 129.516408 
L 351.722297 127.661842 
L 351.981772 127.706527 
L 352.241246 136.534411 
L 352.500721 130.041121 
L 352.760195 130.099344 
L 353.01967 134.129595 
L 353.538619 110.925916 
L 353.798093 122.150805 
L 354.057568 117.80893 
L 354.317043 123.043788 
L 354.576517 121.389515 
L 354.835992 129.444368 
L 355.095466 128.120691 
L 355.354941 127.717624 
L 355.87389 122.731231 
L 356.133364 137.055351 
L 356.392839 140.194577 
L 356.911788 128.191819 
L 357.171262 125.223766 
L 357.430737 132.0526 
L 357.690212 121.398458 
L 357.949686 129.341829 
L 358.209161 129.975309 
L 358.468635 128.248216 
L 358.72811 134.607895 
L 358.987584 134.378309 
L 359.506533 159.278601 
L 359.766008 151.807054 
L 360.025482 133.475801 
L 360.284957 124.500097 
L 360.803906 128.542061 
L 361.063381 127.814762 
L 361.322855 124.486432 
L 361.58233 136.205893 
L 361.841804 135.31491 
L 362.101279 136.751849 
L 362.360753 136.783634 
L 362.620228 125.294988 
L 362.879702 124.085295 
L 363.398651 132.364766 
L 363.658126 122.34793 
L 363.917601 117.14235 
L 364.177075 124.068198 
L 364.43655 125.847114 
L 364.696024 116.522032 
L 364.955499 121.934344 
L 365.214973 119.142081 
L 365.474448 111.561719 
L 365.733922 119.915528 
L 365.993397 118.498618 
L 366.252871 115.133222 
L 366.512346 126.359068 
L 366.771821 117.121084 
L 367.031295 120.952901 
L 367.29077 113.404926 
L 367.550244 119.976577 
L 367.809719 119.449909 
L 368.328668 112.897641 
L 369.107091 104.532684 
L 369.366566 105.372288 
L 369.62604 105.807195 
L 369.885515 115.001427 
L 370.14499 114.722448 
L 370.404464 103.931891 
L 370.663939 105.796957 
L 370.923413 98.740211 
L 371.442362 110.143216 
L 371.701837 105.833315 
L 371.961311 103.882239 
L 372.220786 109.257792 
L 372.48026 117.417073 
L 372.739735 113.947148 
L 372.999209 108.231122 
L 373.258684 106.880054 
L 373.518159 107.657412 
L 373.777633 106.667478 
L 374.037108 99.257152 
L 374.296582 100.513295 
L 374.556057 101.044994 
L 374.815531 91.345108 
L 375.075006 95.495186 
L 375.33448 107.140529 
L 375.593955 107.673021 
L 375.853429 98.4438 
L 376.112904 96.580352 
L 376.372379 102.143988 
L 376.631853 102.021461 
L 376.891328 104.201482 
L 377.150802 101.573343 
L 377.410277 103.472361 
L 377.929226 94.969763 
L 378.1887 96.076483 
L 378.448175 94.771984 
L 378.707649 107.155555 
L 378.967124 109.565406 
L 379.226598 105.278147 
L 379.486073 105.126137 
L 379.745548 96.666499 
L 380.005022 98.463206 
L 380.264497 106.441178 
L 380.523971 102.459777 
L 380.783446 101.672488 
L 381.04292 107.065512 
L 381.302395 95.083428 
L 381.561869 89.212304 
L 381.821344 95.227444 
L 382.080818 104.332997 
L 382.340293 109.343045 
L 382.599767 111.641253 
L 383.118717 100.892934 
L 383.378191 92.533448 
L 383.637666 95.442581 
L 383.89714 90.50215 
L 384.156615 87.921349 
L 384.416089 80.535369 
L 384.675564 88.907054 
L 384.935038 86.99482 
L 385.194513 86.011658 
L 385.453987 96.001217 
L 385.713462 96.278058 
L 385.972937 99.540022 
L 386.232411 94.196885 
L 386.491886 91.345939 
L 386.75136 90.042424 
L 387.010835 81.724065 
L 387.270309 80.601775 
L 387.529784 80.716609 
L 387.789258 81.650306 
L 388.048733 81.316832 
L 388.308207 86.761869 
L 388.567682 87.963443 
L 389.086631 101.169698 
L 389.346106 103.627131 
L 389.60558 112.783528 
L 389.865055 110.591001 
L 390.124529 105.231062 
L 390.384004 116.926903 
L 390.643478 114.890227 
L 390.902953 111.956759 
L 391.162427 105.661976 
L 391.421902 104.323819 
L 391.940851 118.857439 
L 392.200326 109.066095 
L 392.4598 109.791656 
L 392.719275 116.280307 
L 392.978749 113.868428 
L 393.238224 119.87473 
L 393.757173 106.889435 
L 394.016647 105.88271 
L 394.276122 101.346164 
L 394.535596 103.957839 
L 395.054545 118.890472 
L 395.31402 113.115887 
L 395.573495 101.673311 
L 396.092444 94.427669 
L 396.351918 98.297483 
L 396.870867 93.678955 
L 397.130342 96.620735 
L 397.389816 94.932212 
L 397.649291 85.652836 
L 397.908765 94.972371 
L 398.16824 113.473675 
L 398.427714 102.890025 
L 398.687189 103.176051 
L 398.946664 96.626623 
L 399.206138 98.735116 
L 399.465613 103.060703 
L 399.725087 97.386796 
L 399.984562 101.033532 
L 400.244036 111.221622 
L 400.503511 103.823298 
L 400.762985 102.997161 
L 401.281934 109.159038 
L 401.541409 105.847296 
L 402.060358 96.29915 
L 402.319833 102.655649 
L 402.579307 101.418912 
L 402.838782 95.956119 
L 403.098256 97.573349 
L 403.357731 97.433827 
L 403.617205 97.030519 
L 403.87668 103.200453 
L 404.136154 95.807081 
L 404.655103 88.732606 
L 405.174053 96.517302 
L 405.433527 102.993802 
L 405.693002 92.575095 
L 405.952476 86.81623 
L 406.471425 99.77928 
L 406.7309 98.694354 
L 406.990374 89.756711 
L 407.249849 89.351335 
L 407.509323 82.3466 
L 407.768798 90.055137 
L 408.028272 86.242177 
L 408.287747 96.56037 
L 408.547222 93.581231 
L 408.806696 94.515944 
L 409.066171 104.425586 
L 409.325645 108.306422 
L 409.844594 98.077753 
L 410.104069 96.52603 
L 410.363543 104.329976 
L 410.623018 96.926856 
L 410.882492 96.483483 
L 411.141967 92.509718 
L 411.401442 96.621418 
L 411.660916 91.752372 
L 411.920391 84.385689 
L 412.179865 83.458876 
L 412.43934 79.149144 
L 412.698814 92.39233 
L 412.958289 85.453731 
L 413.217763 83.959669 
L 413.477238 85.709842 
L 413.736712 85.280363 
L 414.255661 82.026917 
L 414.515136 81.370526 
L 414.774611 77.976423 
L 415.29356 89.867966 
L 415.553034 89.646845 
L 415.812509 91.797129 
L 416.071983 98.718008 
L 416.331458 90.942038 
L 416.590932 92.330446 
L 416.850407 88.904755 
L 417.109881 92.673241 
L 417.369356 87.785595 
L 417.628831 93.981258 
L 417.888305 87.910469 
L 418.14778 89.136927 
L 418.407254 92.762279 
L 418.666729 98.781906 
L 418.926203 108.23513 
L 419.185678 101.035488 
L 419.445152 107.253368 
L 419.704627 105.366985 
L 420.223576 83.76537 
L 420.48305 89.057829 
L 420.742525 101.151564 
L 421.002 100.403466 
L 421.261474 98.972939 
L 421.520949 99.482373 
L 421.780423 93.622543 
L 422.039898 82.356444 
L 422.299372 80.805184 
L 422.558847 77.863174 
L 422.818321 78.172285 
L 423.077796 90.497153 
L 423.33727 89.385195 
L 423.596745 94.388029 
L 423.856219 94.023084 
L 424.115694 107.52335 
L 424.375169 110.079498 
L 424.634643 118.686838 
L 425.153592 99.377529 
L 425.413067 107.063108 
L 425.672541 98.03307 
L 425.932016 98.900977 
L 426.19149 87.592684 
L 426.450965 90.625774 
L 426.710439 89.267786 
L 426.969914 89.575894 
L 427.229389 82.874009 
L 427.748338 90.845628 
L 428.007812 88.784249 
L 428.267287 84.212335 
L 428.526761 85.911124 
L 428.786236 75.05999 
L 429.04571 84.280138 
L 429.305185 82.934856 
L 429.564659 85.180222 
L 429.824134 91.316556 
L 430.083608 80.743962 
L 430.343083 85.82384 
L 430.602558 84.285421 
L 430.862032 85.934273 
L 431.121507 91.295329 
L 431.380981 93.316387 
L 431.640456 84.805677 
L 431.89993 83.658846 
L 432.159405 88.138196 
L 432.418879 86.848782 
L 432.678354 84.044563 
L 432.937828 95.876004 
L 433.456777 76.300086 
L 433.716252 86.877337 
L 433.975727 85.118897 
L 434.235201 93.145078 
L 434.494676 90.114224 
L 434.75415 79.032571 
L 435.273099 75.822767 
L 435.532574 69.311811 
L 436.051523 65.096161 
L 436.310997 70.540034 
L 436.570472 68.260706 
L 436.829947 60.960129 
L 437.089421 74.145492 
L 437.867845 92.900251 
L 438.127319 92.853959 
L 438.386794 83.416831 
L 438.646268 78.212312 
L 438.905743 75.312309 
L 439.165217 67.144883 
L 439.424692 67.868794 
L 439.684166 73.144377 
L 439.943641 84.67057 
L 440.46259 71.960978 
L 440.722065 75.445558 
L 440.981539 75.399115 
L 441.241014 76.214846 
L 441.500488 71.905089 
L 441.759963 71.442242 
L 442.019437 66.598983 
L 442.278912 72.968749 
L 442.797861 68.077931 
L 443.057336 67.018859 
L 443.31681 67.230069 
L 443.835759 69.762776 
L 444.095234 68.398983 
L 444.354708 65.368634 
L 444.614183 65.91954 
L 444.873657 68.361934 
L 445.133132 69.372788 
L 445.392606 73.657458 
L 445.911555 57.682145 
L 446.17103 64.497217 
L 446.430505 66.067718 
L 446.689979 58.830947 
L 446.949454 64.69507 
L 447.208928 60.532617 
L 447.468403 62.034779 
L 447.727877 59.751636 
L 447.987352 59.828437 
L 448.246826 67.271719 
L 448.765775 68.441998 
L 449.284724 64.86099 
L 449.544199 66.128821 
L 449.803674 64.847483 
L 450.063148 67.811524 
L 450.322623 76.240798 
L 450.841572 67.46315 
L 451.101046 71.817079 
L 451.360521 73.111828 
L 451.619995 68.789133 
L 451.87947 68.62044 
L 452.138944 69.696203 
L 452.398419 62.898825 
L 452.657894 62.803949 
L 452.917368 71.665014 
L 453.436317 60.995275 
L 453.695792 58.371442 
L 454.214741 71.962383 
L 454.474215 73.926863 
L 454.73369 62.653044 
L 454.993164 71.78538 
L 455.512113 57.757623 
L 455.771588 57.998575 
L 456.031063 63.300539 
L 456.290537 55.902864 
L 456.809486 78.814656 
L 457.068961 67.923527 
L 457.328435 62.408346 
L 457.58791 69.375369 
L 457.847384 69.040532 
L 458.106859 69.244216 
L 458.366333 59.221631 
L 458.625808 64.143025 
L 458.885282 59.329417 
L 459.144757 61.388484 
L 459.404232 57.439887 
L 459.663706 63.373605 
L 459.923181 59.907787 
L 460.182655 64.372474 
L 460.44213 63.905856 
L 460.701604 54.022252 
L 460.961079 65.694964 
L 461.480028 56.68101 
L 461.739502 59.076769 
L 461.998977 55.925688 
L 462.258452 54.676982 
L 462.777401 59.387267 
L 463.036875 51.841477 
L 463.29635 56.662797 
L 463.555824 53.188099 
L 463.815299 60.988744 
L 464.074773 58.111603 
L 464.334248 66.625298 
L 464.593722 64.162468 
L 464.853197 78.838806 
L 465.112671 76.388404 
L 465.372146 71.606212 
L 465.631621 73.306095 
L 465.891095 64.875551 
L 466.410044 59.059506 
L 466.669519 65.953245 
L 466.928993 82.292522 
L 467.188468 77.083249 
L 467.447942 68.219339 
L 467.707417 67.921587 
L 467.966891 64.088583 
L 468.226366 54.116991 
L 468.485841 55.586081 
L 468.745315 53.25071 
L 469.00479 58.552655 
L 469.264264 57.988528 
L 469.523739 57.031757 
L 469.783213 59.693948 
L 470.561637 63.422961 
L 470.821111 56.417532 
L 471.080586 56.721839 
L 471.599535 68.016109 
L 471.85901 55.52968 
L 472.118484 55.48443 
L 472.377959 62.262916 
L 472.637433 60.705988 
L 472.896908 60.43481 
L 473.156382 60.350221 
L 473.415857 52.934252 
L 473.675331 59.60908 
L 473.934806 60.210678 
L 474.19428 64.560775 
L 474.453755 62.668148 
L 474.713229 64.886773 
L 474.972704 56.495129 
L 475.491653 52.082737 
L 475.751128 50.274185 
L 476.010602 52.071008 
L 476.270077 61.747282 
L 476.529551 60.180268 
L 476.789026 57.037634 
L 477.0485 63.154903 
L 477.567449 58.472813 
L 477.826924 57.938052 
L 478.086399 44.91265 
L 478.345873 50.285582 
L 478.605348 49.656484 
L 478.864822 50.240759 
L 479.383771 59.14448 
L 479.643246 52.44592 
L 479.90272 49.525206 
L 480.162195 53.283815 
L 480.421669 53.211695 
L 480.681144 57.853476 
L 480.940618 51.434945 
L 481.200093 50.171408 
L 481.459568 53.672782 
L 481.719042 55.314406 
L 481.978517 63.129791 
L 482.237991 61.792437 
L 482.497466 59.772771 
L 482.75694 50.042693 
L 483.016415 55.376265 
L 483.275889 54.788635 
L 483.535364 59.008496 
L 483.794838 57.482136 
L 484.054313 57.728146 
L 484.313787 57.593495 
L 484.573262 48.717607 
L 484.832737 51.434313 
L 485.092211 49.700087 
L 485.351686 45.534448 
L 485.61116 43.964604 
L 485.870635 40.552125 
L 486.130109 41.492745 
L 486.389584 42.938391 
L 487.168007 59.039274 
L 487.427482 57.799699 
L 487.686957 53.178392 
L 487.946431 53.710056 
L 488.205906 53.064434 
L 488.724855 63.123328 
L 489.243804 47.900731 
L 489.503278 49.238701 
L 489.762753 55.94032 
L 490.281702 49.586299 
L 490.541176 50.116201 
L 490.800651 56.372369 
L 491.060126 56.663059 
L 491.3196 53.207607 
L 491.579075 55.37279 
L 491.838549 61.627101 
L 492.098024 63.469044 
L 492.357498 53.388731 
L 492.616973 58.066152 
L 492.876447 57.496233 
L 493.135922 56.650528 
L 493.395396 57.574147 
L 493.654871 55.911824 
L 493.914346 56.465256 
L 494.17382 54.586088 
L 494.433295 51.58856 
L 494.692769 44.360673 
L 494.952244 43.991163 
L 495.211718 54.536977 
L 495.471193 54.62825 
L 495.730667 55.717375 
L 495.990142 55.159821 
L 496.249616 52.635288 
L 496.509091 55.772699 
L 496.509091 55.772699 
" clip-path="url(#pcef1f28003)" style="fill: none; stroke: #1f77b4; stroke-width: 1.5; stroke-linecap: square"/>
   </g>
   <g id="patch_3">
    <path d="M 70.4 305.152125 
L 70.4 27.952125 
" style="fill: none; stroke: #000000; stroke-width: 0.8; stroke-linejoin: miter; stroke-linecap: square"/>
   </g>
   <g id="patch_4">
    <path d="M 516.8 305.152125 
L 516.8 27.952125 
" style="fill: none; stroke: #000000; stroke-width: 0.8; stroke-linejoin: miter; stroke-linecap: square"/>
   </g>
   <g id="patch_5">
    <path d="M 70.4 305.152125 
L 516.8 305.152125 
" style="fill: none; stroke: #000000; stroke-width: 0.8; stroke-linejoin: miter; stroke-linecap: square"/>
   </g>
   <g id="patch_6">
    <path d="M 70.4 27.952125 
L 516.8 27.952125 
" style="fill: none; stroke: #000000; stroke-width: 0.8; stroke-linejoin: miter; stroke-linecap: square"/>
   </g>
   <g id="text_15">
    <!-- ML1 Meta Testing -->
    <g transform="translate(212.004313 21.952125)scale(0.216 -0.216)">
     <defs>
      <path id="STIXGeneral-Regular-4d" d="M 5530 0 
L 3738 0 
L 3738 122 
Q 4115 147 4214 265 
Q 4314 384 4314 787 
L 4314 3661 
L 2682 0 
L 2592 0 
L 979 3514 
L 979 966 
Q 979 448 1088 294 
Q 1197 141 1574 122 
L 1574 0 
L 77 0 
L 77 122 
Q 358 141 480 205 
Q 602 269 650 432 
Q 698 595 698 966 
L 698 3514 
Q 698 3878 589 3984 
Q 480 4090 90 4115 
L 90 4237 
L 1357 4237 
L 2835 1024 
L 4250 4237 
L 5523 4237 
L 5523 4115 
Q 5178 4109 5072 3993 
Q 4966 3878 4966 3520 
L 4966 717 
Q 4966 378 5072 262 
Q 5178 147 5530 122 
L 5530 0 
z
" transform="scale(0.015625)"/>
      <path id="STIXGeneral-Regular-4c" d="M 3827 1114 
L 3520 0 
L 77 0 
L 77 122 
Q 429 141 531 256 
Q 634 371 634 736 
L 634 3494 
Q 634 3872 541 3981 
Q 448 4090 77 4115 
L 77 4237 
L 1888 4237 
L 1888 4115 
Q 1498 4090 1392 3984 
Q 1286 3878 1286 3507 
L 1286 538 
Q 1286 358 1398 304 
Q 1510 250 1862 250 
L 2310 250 
Q 3085 250 3392 640 
Q 3520 813 3661 1114 
L 3827 1114 
z
" transform="scale(0.015625)"/>
     </defs>
     <use xlink:href="#STIXGeneral-Regular-4d"/>
     <use xlink:href="#STIXGeneral-Regular-4c" x="88.899994"/>
     <use xlink:href="#STIXGeneral-Regular-31" x="149.999985"/>
     <use xlink:href="#STIXGeneral-Regular-20" x="199.999969"/>
     <use xlink:href="#STIXGeneral-Regular-4d" x="224.999954"/>
     <use xlink:href="#STIXGeneral-Regular-65" x="313.899948"/>
     <use xlink:href="#STIXGeneral-Regular-74" x="358.299942"/>
     <use xlink:href="#STIXGeneral-Regular-61" x="386.09993"/>
     <use xlink:href="#STIXGeneral-Regular-20" x="430.499924"/>
     <use xlink:href="#STIXGeneral-Regular-54" x="455.499908"/>
     <use xlink:href="#STIXGeneral-Regular-65" x="516.599899"/>
     <use xlink:href="#STIXGeneral-Regular-73" x="560.999893"/>
     <use xlink:href="#STIXGeneral-Regular-74" x="599.899887"/>
     <use xlink:href="#STIXGeneral-Regular-69" x="627.699875"/>
     <use xlink:href="#STIXGeneral-Regular-6e" x="655.499863"/>
     <use xlink:href="#STIXGeneral-Regular-67" x="705.499847"/>
    </g>
   </g>
   <g id="legend_1">
    <g id="patch_7">
     <path d="M 80.2 58.990562 
L 200.43375 58.990562 
Q 203.23375 58.990562 203.23375 56.190562 
L 203.23375 37.752125 
Q 203.23375 34.952125 200.43375 34.952125 
L 80.2 34.952125 
Q 77.4 34.952125 77.4 37.752125 
L 77.4 56.190562 
Q 77.4 58.990562 80.2 58.990562 
z
" style="fill: #ffffff; opacity: 0.8; stroke: #cccccc; stroke-linejoin: miter"/>
    </g>
    <g id="line2d_24">
     <path d="M 83 45.452125 
L 97 45.452125 
L 111 45.452125 
" style="fill: none; stroke: #1f77b4; stroke-width: 1.5; stroke-linecap: square"/>
    </g>
    <g id="text_16">
     <!-- basketball-v2 -->
     <g transform="translate(122.2 50.352125)scale(0.14 -0.14)">
      <defs>
       <path id="STIXGeneral-Regular-62" d="M 979 4358 
L 979 2406 
Q 1082 2650 1315 2797 
Q 1549 2944 1843 2944 
Q 2349 2944 2672 2541 
Q 2995 2138 2995 1536 
Q 2995 832 2566 384 
Q 2138 -64 1498 -64 
Q 1107 -64 774 67 
Q 442 198 442 358 
L 442 3622 
Q 442 3859 384 3926 
Q 326 3994 128 3994 
Q 83 3994 19 3981 
L 19 4090 
L 211 4147 
Q 864 4346 947 4371 
L 979 4358 
z
M 979 2035 
L 979 474 
Q 979 326 1161 233 
Q 1344 141 1600 141 
Q 1978 141 2195 416 
Q 2432 710 2432 1261 
Q 2432 1888 2182 2240 
Q 1971 2541 1613 2541 
Q 1357 2541 1168 2390 
Q 979 2240 979 2035 
z
" transform="scale(0.015625)"/>
       <path id="STIXGeneral-Regular-6b" d="M 3232 0 
L 1837 0 
L 1837 96 
L 1958 96 
Q 2093 96 2093 192 
Q 2093 250 2022 339 
L 1062 1606 
L 1062 429 
Q 1062 262 1142 185 
Q 1222 109 1414 102 
L 1542 96 
L 1542 0 
L 45 0 
L 45 96 
Q 390 154 457 214 
Q 525 275 525 525 
L 525 3610 
Q 525 3840 467 3920 
Q 410 4000 250 4000 
Q 211 4000 45 3987 
L 45 4090 
L 237 4141 
Q 621 4243 1037 4371 
L 1062 4358 
L 1062 1670 
L 1939 2451 
Q 2086 2586 2086 2675 
Q 2086 2739 2019 2761 
Q 1952 2784 1766 2790 
L 1766 2880 
L 3072 2880 
L 3072 2784 
Q 2752 2784 2505 2646 
Q 2259 2509 1690 1978 
L 1504 1805 
L 2483 563 
Q 2829 122 3232 96 
L 3232 0 
z
" transform="scale(0.015625)"/>
       <path id="STIXGeneral-Regular-6c" d="M 1645 0 
L 134 0 
L 134 96 
Q 435 122 531 221 
Q 627 320 627 589 
L 627 3590 
Q 627 3821 569 3910 
Q 512 4000 358 4000 
Q 224 4000 122 3987 
L 122 4090 
Q 730 4237 1133 4371 
L 1165 4346 
L 1165 557 
Q 1165 288 1254 201 
Q 1344 115 1645 96 
L 1645 0 
z
" transform="scale(0.015625)"/>
       <path id="STIXGeneral-Regular-2d" d="M 1824 1242 
L 250 1242 
L 250 1645 
L 1824 1645 
L 1824 1242 
z
" transform="scale(0.015625)"/>
      </defs>
      <use xlink:href="#STIXGeneral-Regular-62"/>
      <use xlink:href="#STIXGeneral-Regular-61" x="49.999985"/>
      <use xlink:href="#STIXGeneral-Regular-73" x="94.399979"/>
      <use xlink:href="#STIXGeneral-Regular-6b" x="133.299973"/>
      <use xlink:href="#STIXGeneral-Regular-65" x="183.299957"/>
      <use xlink:href="#STIXGeneral-Regular-74" x="227.699951"/>
      <use xlink:href="#STIXGeneral-Regular-62" x="255.499939"/>
      <use xlink:href="#STIXGeneral-Regular-61" x="305.499924"/>
      <use xlink:href="#STIXGeneral-Regular-6c" x="349.899918"/>
      <use xlink:href="#STIXGeneral-Regular-6c" x="377.699905"/>
      <use xlink:href="#STIXGeneral-Regular-2d" x="405.499893"/>
      <use xlink:href="#STIXGeneral-Regular-76" x="438.799881"/>
      <use xlink:href="#STIXGeneral-Regular-32" x="488.799866"/>
     </g>
    </g>
   </g>
  </g>
 </g>
 <defs>
  <clipPath id="pcef1f28003">
   <rect x="70.4" y="27.952125" width="446.4" height="277.2"/>
  </clipPath>
 </defs>
</svg>
