<?xml version="1.0" encoding="utf-8" standalone="no"?>
<!DOCTYPE svg PUBLIC "-//W3C//DTD SVG 1.1//EN"
  "http://www.w3.org/Graphics/SVG/1.1/DTD/svg11.dtd">
<svg xmlns:xlink="http://www.w3.org/1999/xlink" width="510.5pt" height="355.769pt" viewBox="0 0 510.5 355.769" xmlns="http://www.w3.org/2000/svg" version="1.1">
 <metadata>
  <rdf:RDF xmlns:dc="http://purl.org/dc/elements/1.1/" xmlns:cc="http://creativecommons.org/ns#" xmlns:rdf="http://www.w3.org/1999/02/22-rdf-syntax-ns#">
   <cc:Work>
    <dc:type rdf:resource="http://purl.org/dc/dcmitype/StillImage"/>
    <dc:date>2021-12-11T16:39:05.363326</dc:date>
    <dc:format>image/svg+xml</dc:format>
    <dc:creator>
     <cc:Agent>
      <dc:title>Matplotlib v3.5.0, https://matplotlib.org/</dc:title>
     </cc:Agent>
    </dc:creator>
   </cc:Work>
  </rdf:RDF>
 </metadata>
 <defs>
  <style type="text/css">*{stroke-linejoin: round; stroke-linecap: butt}</style>
 </defs>
 <g id="figure_1">
  <g id="patch_1">
   <path d="M 0 355.769 
L 510.5 355.769 
L 510.5 0 
L 0 0 
z
" style="fill: #ffffff"/>
  </g>
  <g id="axes_1">
   <g id="patch_2">
    <path d="M 56.9 305.152125 
L 503.3 305.152125 
L 503.3 27.952125 
L 56.9 27.952125 
z
" style="fill: #ffffff"/>
   </g>
   <g id="matplotlib.axis_1">
    <g id="xtick_1">
     <g id="line2d_1">
      <path d="M 76.905924 305.152125 
L 76.905924 27.952125 
" clip-path="url(#p8465782c2d)" style="fill: none; stroke: #b0b0b0; stroke-width: 0.8; stroke-linecap: square"/>
     </g>
     <g id="line2d_2">
      <defs>
       <path id="m8ec6786d31" d="M 0 0 
L 0 3.5 
" style="stroke: #000000; stroke-width: 0.8"/>
      </defs>
      <g>
       <use xlink:href="#m8ec6786d31" x="76.905924" y="305.152125" style="stroke: #000000; stroke-width: 0.8"/>
      </g>
     </g>
     <g id="text_1">
      <!-- 0.0 -->
      <g transform="translate(65.655924 324.445562)scale(0.18 -0.18)">
       <defs>
        <path id="STIXGeneral-Regular-30" d="M 3046 2112 
Q 3046 1683 2963 1302 
Q 2880 922 2717 602 
Q 2554 282 2266 96 
Q 1978 -90 1600 -90 
Q 1210 -90 915 108 
Q 621 307 461 640 
Q 301 973 227 1350 
Q 154 1728 154 2150 
Q 154 2746 301 3222 
Q 448 3699 790 4012 
Q 1133 4326 1626 4326 
Q 2253 4326 2649 3712 
Q 3046 3098 3046 2112 
z
M 2432 2080 
Q 2432 3091 2217 3625 
Q 2003 4160 1587 4160 
Q 1190 4160 979 3622 
Q 768 3085 768 2106 
Q 768 1120 979 598 
Q 1190 77 1600 77 
Q 2003 77 2217 598 
Q 2432 1120 2432 2080 
z
" transform="scale(0.015625)"/>
        <path id="STIXGeneral-Regular-2e" d="M 1158 275 
Q 1158 134 1052 32 
Q 947 -70 800 -70 
Q 653 -70 550 32 
Q 448 134 448 281 
Q 448 429 553 534 
Q 659 640 806 640 
Q 947 640 1052 531 
Q 1158 422 1158 275 
z
" transform="scale(0.015625)"/>
       </defs>
       <use xlink:href="#STIXGeneral-Regular-30"/>
       <use xlink:href="#STIXGeneral-Regular-2e" x="49.999985"/>
       <use xlink:href="#STIXGeneral-Regular-30" x="74.999969"/>
      </g>
     </g>
    </g>
    <g id="xtick_2">
     <g id="line2d_3">
      <path d="M 148.152094 305.152125 
L 148.152094 27.952125 
" clip-path="url(#p8465782c2d)" style="fill: none; stroke: #b0b0b0; stroke-width: 0.8; stroke-linecap: square"/>
     </g>
     <g id="line2d_4">
      <g>
       <use xlink:href="#m8ec6786d31" x="148.152094" y="305.152125" style="stroke: #000000; stroke-width: 0.8"/>
      </g>
     </g>
     <g id="text_2">
      <!-- 0.5 -->
      <g transform="translate(136.902094 324.445562)scale(0.18 -0.18)">
       <defs>
        <path id="STIXGeneral-Regular-35" d="M 2803 4358 
L 2573 3814 
Q 2534 3731 2400 3731 
L 1158 3731 
L 902 3187 
Q 1606 3053 1920 2896 
Q 2234 2739 2502 2368 
Q 2726 2061 2726 1555 
Q 2726 1094 2576 780 
Q 2426 467 2099 224 
Q 1664 -90 1011 -90 
Q 646 -90 422 19 
Q 198 128 198 307 
Q 198 550 486 550 
Q 717 550 960 352 
Q 1210 147 1414 147 
Q 1747 147 2012 480 
Q 2278 813 2278 1229 
Q 2278 1843 1850 2189 
Q 1293 2637 486 2637 
Q 410 2637 410 2688 
L 416 2720 
L 1114 4237 
L 2438 4237 
Q 2547 4237 2608 4269 
Q 2669 4301 2746 4403 
L 2803 4358 
z
" transform="scale(0.015625)"/>
       </defs>
       <use xlink:href="#STIXGeneral-Regular-30"/>
       <use xlink:href="#STIXGeneral-Regular-2e" x="49.999985"/>
       <use xlink:href="#STIXGeneral-Regular-35" x="74.999969"/>
      </g>
     </g>
    </g>
    <g id="xtick_3">
     <g id="line2d_5">
      <path d="M 219.398264 305.152125 
L 219.398264 27.952125 
" clip-path="url(#p8465782c2d)" style="fill: none; stroke: #b0b0b0; stroke-width: 0.8; stroke-linecap: square"/>
     </g>
     <g id="line2d_6">
      <g>
       <use xlink:href="#m8ec6786d31" x="219.398264" y="305.152125" style="stroke: #000000; stroke-width: 0.8"/>
      </g>
     </g>
     <g id="text_3">
      <!-- 1.0 -->
      <g transform="translate(208.148264 324.445562)scale(0.18 -0.18)">
       <defs>
        <path id="STIXGeneral-Regular-31" d="M 2522 0 
L 755 0 
L 755 96 
Q 1107 115 1235 227 
Q 1363 339 1363 608 
L 1363 3482 
Q 1363 3795 1171 3795 
Q 1082 3795 883 3718 
L 710 3654 
L 710 3744 
L 1856 4326 
L 1914 4307 
L 1914 486 
Q 1914 275 2042 185 
Q 2170 96 2522 96 
L 2522 0 
z
" transform="scale(0.015625)"/>
       </defs>
       <use xlink:href="#STIXGeneral-Regular-31"/>
       <use xlink:href="#STIXGeneral-Regular-2e" x="49.999985"/>
       <use xlink:href="#STIXGeneral-Regular-30" x="74.999969"/>
      </g>
     </g>
    </g>
    <g id="xtick_4">
     <g id="line2d_7">
      <path d="M 290.644433 305.152125 
L 290.644433 27.952125 
" clip-path="url(#p8465782c2d)" style="fill: none; stroke: #b0b0b0; stroke-width: 0.8; stroke-linecap: square"/>
     </g>
     <g id="line2d_8">
      <g>
       <use xlink:href="#m8ec6786d31" x="290.644433" y="305.152125" style="stroke: #000000; stroke-width: 0.8"/>
      </g>
     </g>
     <g id="text_4">
      <!-- 1.5 -->
      <g transform="translate(279.394433 324.445562)scale(0.18 -0.18)">
       <use xlink:href="#STIXGeneral-Regular-31"/>
       <use xlink:href="#STIXGeneral-Regular-2e" x="49.999985"/>
       <use xlink:href="#STIXGeneral-Regular-35" x="74.999969"/>
      </g>
     </g>
    </g>
    <g id="xtick_5">
     <g id="line2d_9">
      <path d="M 361.890603 305.152125 
L 361.890603 27.952125 
" clip-path="url(#p8465782c2d)" style="fill: none; stroke: #b0b0b0; stroke-width: 0.8; stroke-linecap: square"/>
     </g>
     <g id="line2d_10">
      <g>
       <use xlink:href="#m8ec6786d31" x="361.890603" y="305.152125" style="stroke: #000000; stroke-width: 0.8"/>
      </g>
     </g>
     <g id="text_5">
      <!-- 2.0 -->
      <g transform="translate(350.640603 324.445562)scale(0.18 -0.18)">
       <defs>
        <path id="STIXGeneral-Regular-32" d="M 3034 877 
L 2688 0 
L 186 0 
L 186 77 
L 1325 1286 
Q 1773 1754 1965 2144 
Q 2157 2534 2157 2950 
Q 2157 3379 1920 3616 
Q 1683 3853 1267 3853 
Q 922 3853 720 3673 
Q 518 3494 326 3021 
L 192 3053 
Q 301 3648 630 3987 
Q 960 4326 1523 4326 
Q 2054 4326 2380 4006 
Q 2707 3686 2707 3200 
Q 2707 2477 1888 1613 
L 832 486 
L 2330 486 
Q 2541 486 2665 569 
Q 2790 653 2944 915 
L 3034 877 
z
" transform="scale(0.015625)"/>
       </defs>
       <use xlink:href="#STIXGeneral-Regular-32"/>
       <use xlink:href="#STIXGeneral-Regular-2e" x="49.999985"/>
       <use xlink:href="#STIXGeneral-Regular-30" x="74.999969"/>
      </g>
     </g>
    </g>
    <g id="xtick_6">
     <g id="line2d_11">
      <path d="M 433.136772 305.152125 
L 433.136772 27.952125 
" clip-path="url(#p8465782c2d)" style="fill: none; stroke: #b0b0b0; stroke-width: 0.8; stroke-linecap: square"/>
     </g>
     <g id="line2d_12">
      <g>
       <use xlink:href="#m8ec6786d31" x="433.136772" y="305.152125" style="stroke: #000000; stroke-width: 0.8"/>
      </g>
     </g>
     <g id="text_6">
      <!-- 2.5 -->
      <g transform="translate(421.886772 324.445562)scale(0.18 -0.18)">
       <use xlink:href="#STIXGeneral-Regular-32"/>
       <use xlink:href="#STIXGeneral-Regular-2e" x="49.999985"/>
       <use xlink:href="#STIXGeneral-Regular-35" x="74.999969"/>
      </g>
     </g>
    </g>
    <g id="text_7">
     <!-- Training Environment Steps -->
     <g transform="translate(178.104688 344.645562)scale(0.18 -0.18)">
      <defs>
       <path id="STIXGeneral-Regular-54" d="M 3795 3149 
L 3642 3149 
Q 3539 3674 3353 3821 
Q 3168 3968 2656 3968 
L 2278 3968 
L 2278 710 
Q 2278 346 2387 243 
Q 2496 141 2893 122 
L 2893 0 
L 1024 0 
L 1024 122 
Q 1427 147 1526 256 
Q 1626 365 1626 787 
L 1626 3968 
L 1242 3968 
Q 723 3968 540 3817 
Q 358 3667 262 3149 
L 109 3149 
L 154 4237 
L 3750 4237 
L 3795 3149 
z
" transform="scale(0.015625)"/>
       <path id="STIXGeneral-Regular-72" d="M 1024 2931 
L 1024 2342 
Q 1267 2688 1430 2816 
Q 1594 2944 1792 2944 
Q 1958 2944 2051 2854 
Q 2144 2765 2144 2605 
Q 2144 2470 2077 2393 
Q 2010 2317 1894 2317 
Q 1773 2317 1638 2445 
Q 1536 2541 1472 2541 
Q 1338 2541 1181 2355 
Q 1024 2170 1024 2016 
L 1024 576 
Q 1024 301 1133 205 
Q 1242 109 1568 96 
L 1568 0 
L 32 0 
L 32 96 
Q 339 154 412 224 
Q 486 294 486 538 
L 486 2138 
Q 486 2349 438 2435 
Q 390 2522 269 2522 
Q 166 2522 45 2496 
L 45 2598 
Q 448 2726 992 2944 
L 1024 2931 
z
" transform="scale(0.015625)"/>
       <path id="STIXGeneral-Regular-61" d="M 2829 422 
L 2829 243 
Q 2586 -64 2253 -64 
Q 1888 -64 1843 403 
L 1837 403 
Q 1427 -64 909 -64 
Q 608 -64 422 112 
Q 237 288 237 602 
Q 237 1050 685 1350 
Q 992 1555 1837 1869 
L 1837 2214 
Q 1837 2502 1699 2646 
Q 1562 2790 1338 2790 
Q 1146 2790 1018 2697 
Q 890 2605 890 2477 
Q 890 2419 909 2348 
Q 928 2278 928 2208 
Q 928 2112 841 2029 
Q 755 1946 634 1946 
Q 525 1946 441 2029 
Q 358 2112 358 2240 
Q 358 2547 685 2752 
Q 986 2944 1421 2944 
Q 1939 2944 2176 2656 
Q 2291 2522 2323 2384 
Q 2355 2246 2355 1946 
L 2355 723 
Q 2355 301 2554 301 
Q 2682 301 2829 422 
z
M 1837 813 
L 1837 1715 
Q 1248 1510 1018 1293 
Q 800 1094 800 800 
Q 800 557 921 432 
Q 1043 307 1242 307 
Q 1453 307 1613 410 
Q 1747 506 1792 589 
Q 1837 672 1837 813 
z
" transform="scale(0.015625)"/>
       <path id="STIXGeneral-Regular-69" d="M 1152 4045 
Q 1152 3904 1056 3811 
Q 960 3718 819 3718 
Q 685 3718 592 3811 
Q 499 3904 499 4045 
Q 499 4179 595 4275 
Q 691 4371 826 4371 
Q 966 4371 1059 4275 
Q 1152 4179 1152 4045 
z
M 1619 0 
L 102 0 
L 102 96 
Q 435 115 521 211 
Q 608 307 608 666 
L 608 2118 
Q 608 2342 563 2432 
Q 518 2522 397 2522 
Q 243 2522 128 2490 
L 128 2592 
L 1120 2944 
L 1146 2918 
L 1146 672 
Q 1146 314 1226 218 
Q 1306 122 1619 96 
L 1619 0 
z
" transform="scale(0.015625)"/>
       <path id="STIXGeneral-Regular-6e" d="M 3104 0 
L 1773 0 
L 1779 96 
Q 2016 115 2096 233 
Q 2176 352 2176 672 
L 2176 1946 
Q 2176 2592 1709 2592 
Q 1549 2592 1408 2515 
Q 1267 2438 1050 2227 
L 1050 461 
Q 1050 269 1136 192 
Q 1222 115 1466 96 
L 1466 0 
L 115 0 
L 115 96 
Q 358 115 435 214 
Q 512 314 512 602 
L 512 2157 
Q 512 2394 467 2483 
Q 422 2573 288 2573 
Q 160 2573 102 2547 
L 102 2656 
Q 550 2784 979 2944 
L 1030 2925 
L 1030 2426 
L 1037 2426 
Q 1491 2944 1958 2944 
Q 2323 2944 2518 2688 
Q 2714 2432 2714 1958 
L 2714 544 
Q 2714 288 2790 205 
Q 2867 122 3104 96 
L 3104 0 
z
" transform="scale(0.015625)"/>
       <path id="STIXGeneral-Regular-67" d="M 3008 2483 
L 2477 2483 
Q 2598 2208 2598 1946 
Q 2598 1453 2265 1203 
Q 1933 954 1600 954 
Q 1530 954 1357 973 
L 1235 986 
Q 1107 947 979 812 
Q 851 678 851 582 
Q 851 435 1350 410 
L 2176 371 
Q 2528 358 2739 172 
Q 2950 -13 2950 -314 
Q 2950 -685 2566 -986 
Q 2035 -1395 1286 -1395 
Q 826 -1395 502 -1212 
Q 179 -1030 179 -774 
Q 179 -595 320 -419 
Q 461 -243 806 6 
Q 602 102 534 172 
Q 467 243 467 346 
Q 467 531 762 787 
Q 909 915 1037 1043 
Q 717 1203 579 1401 
Q 442 1600 442 1901 
Q 442 2336 752 2640 
Q 1062 2944 1510 2944 
Q 1766 2944 2022 2848 
L 2163 2797 
Q 2349 2733 2515 2733 
L 3008 2733 
L 3008 2483 
z
M 973 2163 
L 973 2144 
Q 973 1683 1155 1398 
Q 1338 1114 1632 1114 
Q 1850 1114 1978 1270 
Q 2106 1427 2106 1690 
Q 2106 2112 1914 2464 
Q 1754 2765 1446 2765 
Q 1222 2765 1097 2605 
Q 973 2445 973 2163 
z
M 2771 -410 
Q 2771 -230 2595 -163 
Q 2419 -96 1978 -96 
Q 1344 -96 941 -13 
Q 749 -243 688 -348 
Q 627 -454 627 -563 
Q 627 -774 880 -902 
Q 1133 -1030 1555 -1030 
Q 2099 -1030 2435 -860 
Q 2771 -691 2771 -410 
z
" transform="scale(0.015625)"/>
       <path id="STIXGeneral-Regular-20" transform="scale(0.015625)"/>
       <path id="STIXGeneral-Regular-45" d="M 3821 1082 
L 3526 0 
L 77 0 
L 77 122 
Q 442 147 538 252 
Q 634 358 634 730 
L 634 3520 
Q 634 3878 534 3987 
Q 435 4096 77 4115 
L 77 4237 
L 3469 4237 
L 3494 3322 
L 3334 3322 
Q 3264 3750 3085 3872 
Q 2906 3994 2349 3994 
L 1510 3994 
Q 1370 3994 1328 3952 
Q 1286 3910 1286 3763 
L 1286 2355 
L 2253 2355 
Q 2656 2355 2787 2470 
Q 2918 2586 2976 2970 
L 3123 2970 
L 3123 1472 
L 2976 1472 
Q 2918 1875 2790 1984 
Q 2662 2093 2253 2093 
L 1286 2093 
L 1286 538 
Q 1286 346 1420 291 
Q 1555 237 1933 237 
L 2163 237 
Q 2848 237 3136 403 
Q 3424 570 3642 1082 
L 3821 1082 
z
" transform="scale(0.015625)"/>
       <path id="STIXGeneral-Regular-76" d="M 3053 2880 
L 3053 2784 
Q 2906 2771 2835 2688 
Q 2765 2605 2637 2285 
L 1818 230 
Q 1690 -90 1638 -90 
Q 1587 -90 1523 77 
Q 1510 96 1497 141 
Q 1485 186 1472 211 
L 704 2048 
Q 499 2534 403 2652 
Q 307 2771 122 2784 
L 122 2880 
L 1376 2880 
L 1376 2784 
Q 1210 2771 1146 2732 
Q 1082 2694 1082 2611 
Q 1082 2509 1139 2368 
L 1792 730 
L 2426 2387 
Q 2464 2483 2464 2579 
Q 2464 2758 2163 2784 
L 2163 2880 
L 3053 2880 
z
" transform="scale(0.015625)"/>
       <path id="STIXGeneral-Regular-6f" d="M 3008 1478 
Q 3008 806 2608 371 
Q 2208 -64 1568 -64 
Q 979 -64 582 368 
Q 186 800 186 1459 
Q 186 2125 582 2534 
Q 979 2944 1626 2944 
Q 2221 2944 2614 2537 
Q 3008 2131 3008 1478 
z
M 2432 1306 
Q 2432 2035 2112 2445 
Q 1856 2765 1504 2765 
Q 1171 2765 966 2493 
Q 762 2221 762 1747 
Q 762 928 1101 435 
Q 1318 115 1677 115 
Q 2029 115 2230 432 
Q 2432 749 2432 1306 
z
" transform="scale(0.015625)"/>
       <path id="STIXGeneral-Regular-6d" d="M 4960 0 
L 3565 0 
L 3565 96 
Q 3834 122 3907 208 
Q 3981 294 3981 576 
L 3981 1894 
Q 3981 2278 3869 2444 
Q 3757 2611 3488 2611 
Q 3264 2611 3107 2521 
Q 2950 2432 2803 2221 
L 2803 608 
Q 2803 301 2896 201 
Q 2989 102 3264 96 
L 3264 0 
L 1830 0 
L 1830 96 
Q 2112 115 2189 188 
Q 2266 262 2266 550 
L 2266 1901 
Q 2266 2611 1850 2611 
Q 1670 2611 1468 2531 
Q 1267 2451 1171 2336 
Q 1088 2240 1088 2227 
L 1088 448 
Q 1088 243 1177 176 
Q 1267 109 1523 96 
L 1523 0 
L 102 0 
L 102 96 
Q 371 102 460 195 
Q 550 288 550 563 
L 550 2150 
Q 550 2387 499 2480 
Q 448 2573 326 2573 
Q 230 2573 122 2547 
L 122 2656 
Q 557 2778 1011 2944 
L 1062 2925 
L 1062 2451 
L 1075 2451 
Q 1363 2752 1584 2848 
Q 1805 2944 2054 2944 
Q 2560 2944 2733 2406 
Q 3232 2944 3776 2944 
Q 4518 2944 4518 1792 
L 4518 493 
Q 4518 282 4582 202 
Q 4646 122 4794 109 
L 4960 96 
L 4960 0 
z
" transform="scale(0.015625)"/>
       <path id="STIXGeneral-Regular-65" d="M 2611 1050 
L 2714 1005 
Q 2330 -64 1376 -64 
Q 813 -64 486 329 
Q 160 723 160 1389 
Q 160 2074 525 2509 
Q 890 2944 1485 2944 
Q 2061 2944 2374 2502 
Q 2560 2246 2592 1773 
L 621 1773 
Q 646 1370 700 1158 
Q 755 947 915 730 
Q 1184 378 1626 378 
Q 1939 378 2153 531 
Q 2368 685 2611 1050 
z
M 634 1978 
L 1939 1978 
Q 1882 2381 1750 2547 
Q 1619 2714 1312 2714 
Q 1043 2714 864 2525 
Q 685 2336 634 1978 
z
" transform="scale(0.015625)"/>
       <path id="STIXGeneral-Regular-74" d="M 1702 493 
L 1786 422 
Q 1478 -64 1011 -64 
Q 448 -64 448 749 
L 448 2675 
L 109 2675 
Q 83 2694 83 2720 
Q 83 2771 192 2842 
Q 435 2982 813 3526 
Q 826 3546 874 3606 
Q 922 3667 941 3706 
Q 986 3706 986 3622 
L 986 2880 
L 1632 2880 
L 1632 2675 
L 986 2675 
L 986 845 
Q 986 538 1062 403 
Q 1139 269 1318 269 
Q 1510 269 1702 493 
z
" transform="scale(0.015625)"/>
       <path id="STIXGeneral-Regular-53" d="M 3002 2963 
L 2842 2963 
Q 2733 3360 2579 3565 
Q 2189 4064 1651 4064 
Q 1357 4064 1181 3894 
Q 1005 3725 1005 3456 
Q 1005 3328 1069 3206 
Q 1133 3085 1206 2998 
Q 1280 2912 1465 2784 
Q 1651 2656 1766 2589 
Q 1882 2522 2150 2362 
Q 2669 2061 2905 1763 
Q 3142 1466 3142 1107 
Q 3142 576 2771 243 
Q 2400 -90 1837 -90 
Q 1421 -90 1082 58 
Q 915 128 781 128 
Q 704 128 653 70 
Q 602 13 602 -83 
L 461 -83 
L 275 1274 
L 416 1274 
Q 845 141 1734 141 
Q 2074 141 2285 342 
Q 2496 544 2496 858 
Q 2496 1158 2310 1363 
Q 2003 1696 1235 2106 
Q 454 2522 454 3206 
Q 454 3718 768 4022 
Q 1082 4326 1568 4326 
Q 1907 4326 2240 4186 
Q 2413 4109 2522 4109 
Q 2688 4109 2726 4326 
L 2861 4326 
L 3002 2963 
z
" transform="scale(0.015625)"/>
       <path id="STIXGeneral-Regular-70" d="M 1018 2931 
L 1018 2438 
Q 1421 2944 1939 2944 
Q 2406 2944 2707 2560 
Q 3008 2176 3008 1581 
Q 3008 883 2621 409 
Q 2234 -64 1664 -64 
Q 1466 -64 1328 -6 
Q 1190 51 1018 211 
L 1018 -794 
Q 1018 -1094 1120 -1180 
Q 1222 -1267 1581 -1274 
L 1581 -1389 
L 32 -1389 
L 32 -1280 
Q 314 -1254 397 -1171 
Q 480 -1088 480 -838 
L 480 2157 
Q 480 2381 429 2451 
Q 378 2522 218 2522 
Q 115 2522 58 2515 
L 58 2618 
Q 506 2752 979 2944 
L 1018 2931 
z
M 1018 2138 
L 1018 563 
Q 1018 422 1238 281 
Q 1459 141 1683 141 
Q 2029 141 2243 467 
Q 2458 794 2458 1325 
Q 2458 1888 2243 2224 
Q 2029 2560 1670 2560 
Q 1446 2560 1232 2419 
Q 1018 2278 1018 2138 
z
" transform="scale(0.015625)"/>
       <path id="STIXGeneral-Regular-73" d="M 998 1926 
L 1664 1523 
Q 1984 1331 2105 1164 
Q 2227 998 2227 736 
Q 2227 416 1961 176 
Q 1696 -64 1331 -64 
Q 1030 -64 864 -6 
Q 691 51 570 51 
Q 461 51 416 -26 
L 333 -26 
L 333 979 
L 435 979 
Q 538 512 730 294 
Q 922 77 1248 77 
Q 1485 77 1632 211 
Q 1779 346 1779 550 
Q 1779 845 1440 1030 
L 1094 1222 
Q 326 1651 326 2150 
Q 326 2522 566 2730 
Q 806 2938 1210 2938 
Q 1491 2938 1638 2867 
Q 1754 2816 1818 2816 
Q 1862 2816 1920 2880 
L 1990 2880 
L 2022 2010 
L 1926 2010 
Q 1818 2445 1654 2621 
Q 1491 2797 1203 2797 
Q 986 2797 854 2688 
Q 723 2579 723 2362 
Q 723 2253 796 2128 
Q 870 2003 998 1926 
z
" transform="scale(0.015625)"/>
      </defs>
      <use xlink:href="#STIXGeneral-Regular-54"/>
      <use xlink:href="#STIXGeneral-Regular-72" x="61.099991"/>
      <use xlink:href="#STIXGeneral-Regular-61" x="94.399979"/>
      <use xlink:href="#STIXGeneral-Regular-69" x="138.799973"/>
      <use xlink:href="#STIXGeneral-Regular-6e" x="166.59996"/>
      <use xlink:href="#STIXGeneral-Regular-69" x="216.599945"/>
      <use xlink:href="#STIXGeneral-Regular-6e" x="244.399933"/>
      <use xlink:href="#STIXGeneral-Regular-67" x="294.399918"/>
      <use xlink:href="#STIXGeneral-Regular-20" x="344.399902"/>
      <use xlink:href="#STIXGeneral-Regular-45" x="369.399887"/>
      <use xlink:href="#STIXGeneral-Regular-6e" x="430.499878"/>
      <use xlink:href="#STIXGeneral-Regular-76" x="480.499863"/>
      <use xlink:href="#STIXGeneral-Regular-69" x="530.499847"/>
      <use xlink:href="#STIXGeneral-Regular-72" x="558.299835"/>
      <use xlink:href="#STIXGeneral-Regular-6f" x="591.599823"/>
      <use xlink:href="#STIXGeneral-Regular-6e" x="641.599808"/>
      <use xlink:href="#STIXGeneral-Regular-6d" x="691.599792"/>
      <use xlink:href="#STIXGeneral-Regular-65" x="769.39978"/>
      <use xlink:href="#STIXGeneral-Regular-6e" x="813.799774"/>
      <use xlink:href="#STIXGeneral-Regular-74" x="863.799759"/>
      <use xlink:href="#STIXGeneral-Regular-20" x="891.599747"/>
      <use xlink:href="#STIXGeneral-Regular-53" x="916.599731"/>
      <use xlink:href="#STIXGeneral-Regular-74" x="972.199722"/>
      <use xlink:href="#STIXGeneral-Regular-65" x="999.99971"/>
      <use xlink:href="#STIXGeneral-Regular-70" x="1044.399704"/>
      <use xlink:href="#STIXGeneral-Regular-73" x="1094.399689"/>
     </g>
    </g>
    <g id="text_8">
     <!-- 1e8 -->
     <g transform="translate(477.306875 343.645562)scale(0.18 -0.18)">
      <defs>
       <path id="STIXGeneral-Regular-38" d="M 2848 992 
Q 2848 499 2505 204 
Q 2163 -90 1587 -90 
Q 1050 -90 704 204 
Q 358 499 358 954 
Q 358 1293 524 1533 
Q 691 1773 1190 2125 
Q 710 2522 553 2765 
Q 397 3008 397 3328 
Q 397 3782 745 4054 
Q 1094 4326 1638 4326 
Q 2106 4326 2410 4060 
Q 2714 3795 2714 3411 
Q 2714 3059 2531 2848 
Q 2349 2637 1856 2374 
Q 2432 1990 2640 1689 
Q 2848 1389 2848 992 
z
M 2272 3411 
Q 2272 3744 2086 3945 
Q 1901 4147 1574 4147 
Q 1248 4147 1059 3977 
Q 870 3808 870 3513 
Q 870 3219 1059 2979 
Q 1248 2739 1670 2490 
Q 1997 2682 2134 2896 
Q 2272 3110 2272 3411 
z
M 1734 1741 
L 1357 1997 
Q 1075 1766 960 1545 
Q 845 1325 845 1011 
Q 845 576 1065 333 
Q 1286 90 1658 90 
Q 1971 90 2166 285 
Q 2362 480 2362 794 
Q 2362 1082 2214 1299 
Q 2067 1517 1734 1741 
z
" transform="scale(0.015625)"/>
      </defs>
      <use xlink:href="#STIXGeneral-Regular-31"/>
      <use xlink:href="#STIXGeneral-Regular-65" x="49.999985"/>
      <use xlink:href="#STIXGeneral-Regular-38" x="94.399979"/>
     </g>
    </g>
   </g>
   <g id="matplotlib.axis_2">
    <g id="ytick_1">
     <g id="line2d_13">
      <path d="M 56.9 292.552125 
L 503.3 292.552125 
" clip-path="url(#p8465782c2d)" style="fill: none; stroke: #b0b0b0; stroke-width: 0.8; stroke-linecap: square"/>
     </g>
     <g id="line2d_14">
      <defs>
       <path id="mfbbcd2a15a" d="M 0 0 
L -3.5 0 
" style="stroke: #000000; stroke-width: 0.8"/>
      </defs>
      <g>
       <use xlink:href="#mfbbcd2a15a" x="56.9" y="292.552125" style="stroke: #000000; stroke-width: 0.8"/>
      </g>
     </g>
     <g id="text_9">
      <!-- 0.0 -->
      <g transform="translate(27.4 298.698844)scale(0.18 -0.18)">
       <use xlink:href="#STIXGeneral-Regular-30"/>
       <use xlink:href="#STIXGeneral-Regular-2e" x="49.999985"/>
       <use xlink:href="#STIXGeneral-Regular-30" x="74.999969"/>
      </g>
     </g>
    </g>
    <g id="ytick_2">
     <g id="line2d_15">
      <path d="M 56.9 232.421813 
L 503.3 232.421813 
" clip-path="url(#p8465782c2d)" style="fill: none; stroke: #b0b0b0; stroke-width: 0.8; stroke-linecap: square"/>
     </g>
     <g id="line2d_16">
      <g>
       <use xlink:href="#mfbbcd2a15a" x="56.9" y="232.421813" style="stroke: #000000; stroke-width: 0.8"/>
      </g>
     </g>
     <g id="text_10">
      <!-- 0.2 -->
      <g transform="translate(27.4 238.568532)scale(0.18 -0.18)">
       <use xlink:href="#STIXGeneral-Regular-30"/>
       <use xlink:href="#STIXGeneral-Regular-2e" x="49.999985"/>
       <use xlink:href="#STIXGeneral-Regular-32" x="74.999969"/>
      </g>
     </g>
    </g>
    <g id="ytick_3">
     <g id="line2d_17">
      <path d="M 56.9 172.291501 
L 503.3 172.291501 
" clip-path="url(#p8465782c2d)" style="fill: none; stroke: #b0b0b0; stroke-width: 0.8; stroke-linecap: square"/>
     </g>
     <g id="line2d_18">
      <g>
       <use xlink:href="#mfbbcd2a15a" x="56.9" y="172.291501" style="stroke: #000000; stroke-width: 0.8"/>
      </g>
     </g>
     <g id="text_11">
      <!-- 0.4 -->
      <g transform="translate(27.4 178.43822)scale(0.18 -0.18)">
       <defs>
        <path id="STIXGeneral-Regular-34" d="M 3027 1069 
L 2368 1069 
L 2368 0 
L 1869 0 
L 1869 1069 
L 77 1069 
L 77 1478 
L 2086 4326 
L 2368 4326 
L 2368 1478 
L 3027 1478 
L 3027 1069 
z
M 1869 1478 
L 1869 3674 
L 333 1478 
L 1869 1478 
z
" transform="scale(0.015625)"/>
       </defs>
       <use xlink:href="#STIXGeneral-Regular-30"/>
       <use xlink:href="#STIXGeneral-Regular-2e" x="49.999985"/>
       <use xlink:href="#STIXGeneral-Regular-34" x="74.999969"/>
      </g>
     </g>
    </g>
    <g id="ytick_4">
     <g id="line2d_19">
      <path d="M 56.9 112.161189 
L 503.3 112.161189 
" clip-path="url(#p8465782c2d)" style="fill: none; stroke: #b0b0b0; stroke-width: 0.8; stroke-linecap: square"/>
     </g>
     <g id="line2d_20">
      <g>
       <use xlink:href="#mfbbcd2a15a" x="56.9" y="112.161189" style="stroke: #000000; stroke-width: 0.8"/>
      </g>
     </g>
     <g id="text_12">
      <!-- 0.6 -->
      <g transform="translate(27.4 118.307908)scale(0.18 -0.18)">
       <defs>
        <path id="STIXGeneral-Regular-36" d="M 2854 4378 
L 2867 4275 
Q 2112 4154 1606 3664 
Q 1101 3174 973 2451 
Q 1344 2739 1786 2739 
Q 2349 2739 2672 2380 
Q 2995 2022 2995 1402 
Q 2995 774 2669 378 
Q 2291 -90 1651 -90 
Q 870 -90 518 557 
Q 218 1107 218 1786 
Q 218 2835 915 3552 
Q 1312 3962 1731 4131 
Q 2150 4301 2854 4378 
z
M 2419 1203 
Q 2419 2445 1555 2445 
Q 1235 2445 1024 2275 
Q 813 2106 813 1702 
Q 813 954 1046 522 
Q 1280 90 1722 90 
Q 2061 90 2240 394 
Q 2419 698 2419 1203 
z
" transform="scale(0.015625)"/>
       </defs>
       <use xlink:href="#STIXGeneral-Regular-30"/>
       <use xlink:href="#STIXGeneral-Regular-2e" x="49.999985"/>
       <use xlink:href="#STIXGeneral-Regular-36" x="74.999969"/>
      </g>
     </g>
    </g>
    <g id="ytick_5">
     <g id="line2d_21">
      <path d="M 56.9 52.030877 
L 503.3 52.030877 
" clip-path="url(#p8465782c2d)" style="fill: none; stroke: #b0b0b0; stroke-width: 0.8; stroke-linecap: square"/>
     </g>
     <g id="line2d_22">
      <g>
       <use xlink:href="#mfbbcd2a15a" x="56.9" y="52.030877" style="stroke: #000000; stroke-width: 0.8"/>
      </g>
     </g>
     <g id="text_13">
      <!-- 0.8 -->
      <g transform="translate(27.4 58.177596)scale(0.18 -0.18)">
       <use xlink:href="#STIXGeneral-Regular-30"/>
       <use xlink:href="#STIXGeneral-Regular-2e" x="49.999985"/>
       <use xlink:href="#STIXGeneral-Regular-38" x="74.999969"/>
      </g>
     </g>
    </g>
    <g id="text_14">
     <!-- Success Rate -->
     <g transform="translate(19.493438 213.7965)rotate(-90)scale(0.18 -0.18)">
      <defs>
       <path id="STIXGeneral-Regular-75" d="M 3072 320 
L 3072 230 
Q 2573 96 2195 -58 
L 2163 -38 
L 2163 486 
L 2150 486 
Q 1747 -64 1235 -64 
Q 870 -64 662 160 
Q 454 384 454 755 
L 454 2362 
Q 454 2598 371 2688 
Q 288 2778 58 2790 
L 58 2880 
L 992 2880 
L 992 813 
Q 992 595 1123 451 
Q 1254 307 1446 307 
Q 1760 307 1984 506 
Q 2067 582 2099 649 
Q 2131 717 2131 877 
L 2131 2355 
Q 2131 2605 2041 2678 
Q 1952 2752 1658 2771 
L 1658 2880 
L 2669 2880 
L 2669 685 
Q 2669 461 2742 390 
Q 2816 320 3034 320 
L 3072 320 
z
" transform="scale(0.015625)"/>
       <path id="STIXGeneral-Regular-63" d="M 2547 998 
L 2637 941 
Q 2362 403 2112 205 
Q 1786 -64 1376 -64 
Q 845 -64 502 336 
Q 160 736 160 1357 
Q 160 2170 698 2618 
Q 1094 2944 1562 2944 
Q 1965 2944 2256 2749 
Q 2547 2554 2547 2285 
Q 2547 2176 2457 2096 
Q 2368 2016 2246 2016 
Q 2022 2016 1939 2310 
L 1901 2451 
Q 1850 2630 1773 2694 
Q 1696 2758 1523 2758 
Q 1133 2758 893 2451 
Q 653 2144 653 1645 
Q 653 1094 928 745 
Q 1203 397 1645 397 
Q 1920 397 2118 528 
Q 2317 659 2547 998 
z
" transform="scale(0.015625)"/>
       <path id="STIXGeneral-Regular-52" d="M 4224 0 
L 3187 0 
L 1664 1971 
L 1306 1958 
L 1306 717 
Q 1306 352 1405 249 
Q 1504 147 1875 122 
L 1875 0 
L 109 0 
L 109 122 
Q 474 154 563 262 
Q 653 371 653 794 
L 653 3526 
Q 653 3885 563 3987 
Q 474 4090 109 4115 
L 109 4237 
L 1850 4237 
Q 2726 4237 3187 3859 
Q 3501 3603 3501 3091 
Q 3501 2221 2342 2042 
L 3622 422 
Q 3757 256 3878 198 
Q 4000 141 4224 122 
L 4224 0 
z
M 1306 3731 
L 1306 2195 
Q 1766 2202 1990 2246 
Q 2214 2291 2438 2413 
Q 2803 2618 2803 3142 
Q 2803 4000 1632 4000 
Q 1459 4000 1382 3945 
Q 1306 3891 1306 3731 
z
" transform="scale(0.015625)"/>
      </defs>
      <use xlink:href="#STIXGeneral-Regular-53"/>
      <use xlink:href="#STIXGeneral-Regular-75" x="55.599991"/>
      <use xlink:href="#STIXGeneral-Regular-63" x="105.599976"/>
      <use xlink:href="#STIXGeneral-Regular-63" x="149.999969"/>
      <use xlink:href="#STIXGeneral-Regular-65" x="194.399963"/>
      <use xlink:href="#STIXGeneral-Regular-73" x="238.799957"/>
      <use xlink:href="#STIXGeneral-Regular-73" x="277.699951"/>
      <use xlink:href="#STIXGeneral-Regular-20" x="316.599945"/>
      <use xlink:href="#STIXGeneral-Regular-52" x="341.59993"/>
      <use xlink:href="#STIXGeneral-Regular-61" x="408.299927"/>
      <use xlink:href="#STIXGeneral-Regular-74" x="452.699921"/>
      <use xlink:href="#STIXGeneral-Regular-65" x="480.499908"/>
     </g>
    </g>
   </g>
   <g id="line2d_23">
    <path d="M 77.190909 292.552125 
L 169.81093 292.552125 
L 170.095914 290.146913 
L 170.665884 291.686249 
L 171.235853 292.240409 
L 171.520838 289.959883 
L 172.090807 291.618918 
L 172.375792 289.586988 
L 172.945761 291.484676 
L 173.230746 291.911655 
L 173.51573 289.762631 
L 173.800715 290.878429 
L 174.0857 289.142695 
L 174.370684 288.101254 
L 174.655669 289.881603 
L 174.940654 288.544599 
L 175.225638 290.147609 
L 175.510623 288.704203 
L 176.080592 287.318533 
L 176.365577 284.601545 
L 176.650562 287.781777 
L 176.935546 287.284704 
L 177.220531 282.176035 
L 177.505516 279.110834 
L 177.790501 282.082138 
L 178.075485 281.459708 
L 178.36047 285.896675 
L 178.930439 286.307823 
L 179.215424 283.995119 
L 179.500409 285.012709 
L 179.785393 280.812838 
L 180.070378 285.508553 
L 180.355363 281.110344 
L 180.640347 273.660994 
L 180.925332 278.812234 
L 181.210317 279.497766 
L 181.495301 282.314297 
L 181.780286 281.599003 
L 182.065271 276.359402 
L 182.350255 278.026067 
L 182.63524 279.026065 
L 182.920225 277.220852 
L 183.205209 278.542936 
L 183.490194 274.525762 
L 183.775179 279.331095 
L 184.060163 274.998657 
L 184.345148 279.614832 
L 184.630133 275.168899 
L 184.915117 265.285702 
L 185.200102 261.760997 
L 185.485087 262.051386 
L 185.770072 255.009982 
L 186.055056 260.405989 
L 186.340041 270.859231 
L 186.625026 260.294689 
L 186.91001 258.766389 
L 187.194995 257.849409 
L 187.47998 247.67837 
L 187.764964 256.007022 
L 188.049949 261.004214 
L 188.619918 251.851285 
L 188.904903 246.484708 
L 189.189888 231.2387 
L 189.474872 222.091095 
L 189.759857 223.81817 
L 190.044842 224.854415 
L 190.329826 227.881374 
L 190.614811 227.292337 
L 190.899796 231.749339 
L 191.18478 229.613116 
L 191.469765 237.952232 
L 191.75475 223.714001 
L 192.039734 219.981489 
L 192.609704 220.246618 
L 192.894688 220.306272 
L 193.179673 210.721214 
L 193.464658 214.591029 
L 193.749642 209.697279 
L 194.034627 201.950605 
L 194.319612 204.518238 
L 194.604597 203.653604 
L 195.174566 219.179003 
L 195.459551 210.044853 
L 195.744535 206.969573 
L 196.02952 217.150469 
L 196.314505 220.853794 
L 196.599489 208.644514 
L 196.884474 208.534584 
L 197.169459 201.252988 
L 197.454443 206.504881 
L 198.024413 207.698358 
L 198.309397 222.398165 
L 198.879367 203.318048 
L 199.164351 200.52828 
L 199.449336 203.664843 
L 200.019305 220.626176 
L 200.30429 215.723581 
L 200.589275 219.997661 
L 200.874259 222.56211 
L 201.159244 224.100779 
L 201.444229 232.239618 
L 201.729213 232.312496 
L 202.014198 234.761434 
L 202.299183 233.825585 
L 202.584168 245.290139 
L 202.869152 249.763659 
L 204.009091 221.873586 
L 204.294076 235.713727 
L 204.57906 231.991749 
L 204.864045 234.568986 
L 205.14903 238.520542 
L 205.434014 248.107113 
L 205.718999 253.859055 
L 206.003984 247.68937 
L 206.288968 246.392773 
L 206.573953 245.614814 
L 206.858938 240.337613 
L 207.143922 241.981719 
L 207.428907 235.752544 
L 207.713892 224.799402 
L 207.998876 220.63273 
L 208.283861 210.917089 
L 208.568846 205.087705 
L 208.85383 203.995284 
L 209.138815 188.90856 
L 209.4238 182.261736 
L 210.278754 203.307622 
L 210.563739 205.332448 
L 210.848723 196.926493 
L 211.418693 210.503692 
L 211.703677 200.029239 
L 211.988662 184.123719 
L 212.273647 186.606469 
L 212.843616 195.243461 
L 213.128601 200.493952 
L 213.413585 189.212971 
L 213.983555 179.826357 
L 214.553524 196.650961 
L 214.838509 196.528028 
L 215.123493 191.64384 
L 215.693463 211.007149 
L 215.978447 214.76259 
L 216.263432 214.610643 
L 216.548417 204.898623 
L 216.833401 208.692263 
L 217.118386 198.942381 
L 217.403371 195.497666 
L 217.688355 198.241261 
L 217.97334 185.456146 
L 218.258325 177.785077 
L 218.543309 177.99286 
L 218.828294 185.333167 
L 219.113279 196.952989 
L 219.398264 199.114455 
L 219.683248 185.980063 
L 219.968233 187.720275 
L 220.253218 183.953978 
L 220.538202 186.504625 
L 220.823187 188.035012 
L 221.108172 164.901118 
L 221.393156 172.667694 
L 221.678141 160.491155 
L 221.963126 160.400869 
L 222.24811 165.157121 
L 222.533095 165.605662 
L 222.81808 175.495635 
L 223.103064 181.429618 
L 223.388049 184.990008 
L 223.673034 191.936666 
L 223.958018 191.294237 
L 224.243003 188.503566 
L 224.527988 172.397891 
L 224.812972 162.734487 
L 225.097957 164.152082 
L 225.667926 183.311543 
L 225.952911 178.903526 
L 226.237896 169.043077 
L 226.52288 170.342446 
L 226.807865 161.50122 
L 227.09285 158.601694 
L 227.377835 152.051554 
L 227.662819 138.500623 
L 227.947804 142.396125 
L 228.232789 139.923003 
L 228.517773 150.465191 
L 228.802758 144.764443 
L 229.087743 155.775265 
L 229.372727 155.166121 
L 229.657712 140.369363 
L 229.942697 141.112156 
L 230.797651 128.708906 
L 231.082635 141.331519 
L 231.36762 144.094663 
L 231.652605 133.726488 
L 231.937589 134.721221 
L 232.222574 147.344122 
L 232.507559 152.512649 
L 232.792543 129.156424 
L 233.077528 134.384393 
L 233.362513 147.142025 
L 233.647497 140.365326 
L 234.217467 151.65827 
L 234.787436 167.268751 
L 235.072421 152.441361 
L 235.357406 148.355355 
L 235.64239 148.308965 
L 235.927375 143.470707 
L 236.21236 140.567752 
L 236.782329 147.882804 
L 237.067314 155.241072 
L 237.637283 154.608325 
L 238.207252 138.025094 
L 238.492237 118.058681 
L 238.777222 125.320537 
L 239.347191 153.938827 
L 239.632176 125.201711 
L 239.91716 129.606354 
L 240.202145 153.89605 
L 240.48713 137.202103 
L 241.057099 116.365493 
L 241.342084 124.304624 
L 241.627068 126.662885 
L 241.912053 113.646566 
L 242.197038 117.86284 
L 242.482022 115.582177 
L 242.767007 131.050268 
L 243.051992 133.115489 
L 243.336977 143.975469 
L 243.906946 113.512435 
L 244.191931 115.377151 
L 244.476915 121.306401 
L 244.7619 100.811828 
L 245.046885 100.541149 
L 245.331869 107.59438 
L 245.616854 92.584615 
L 245.901839 102.820459 
L 246.471808 115.05208 
L 246.756793 113.895721 
L 247.041777 105.986267 
L 247.611747 126.293661 
L 247.896731 113.425031 
L 248.181716 115.324709 
L 248.466701 114.059298 
L 248.751685 110.894842 
L 249.03667 108.996168 
L 249.321655 110.262173 
L 249.606639 106.211356 
L 249.891624 120.617352 
L 250.176609 114.829674 
L 250.461593 137.814404 
L 250.746578 134.768753 
L 251.031563 120.915304 
L 251.316547 127.03451 
L 251.601532 118.679969 
L 251.886517 125.693309 
L 252.171502 115.470038 
L 252.456486 121.362133 
L 252.741471 129.707818 
L 253.026456 120.283953 
L 253.31144 119.440062 
L 253.596425 116.52851 
L 253.88141 112.376369 
L 254.166394 114.695511 
L 254.451379 118.492207 
L 254.736364 132.796286 
L 255.021348 138.973524 
L 255.306333 140.274652 
L 255.591318 145.865753 
L 255.876302 142.00478 
L 256.161287 134.877768 
L 256.446272 123.385924 
L 256.731256 116.490817 
L 257.016241 112.353753 
L 257.301226 124.30279 
L 257.58621 117.040936 
L 257.871195 134.330738 
L 258.15618 142.299405 
L 258.441164 135.054543 
L 258.726149 133.112836 
L 259.011134 129.542602 
L 259.296118 112.969186 
L 259.581103 119.861622 
L 259.866088 133.617935 
L 260.151073 139.466513 
L 260.436057 128.544381 
L 260.721042 131.611956 
L 261.006027 119.021226 
L 261.291011 130.708488 
L 261.575996 130.505203 
L 261.860981 120.762384 
L 262.145965 124.537541 
L 262.715935 124.313355 
L 263.000919 133.883765 
L 263.285904 134.815587 
L 263.570889 140.185104 
L 263.855873 136.191173 
L 264.140858 138.605242 
L 264.425843 128.027618 
L 264.710827 131.301899 
L 264.995812 142.887315 
L 265.280797 118.570804 
L 265.850766 144.77433 
L 266.420735 115.243151 
L 266.70572 116.415581 
L 266.990705 119.524249 
L 267.275689 118.98424 
L 267.560674 121.065444 
L 267.845659 115.098529 
L 268.415628 113.218627 
L 268.700613 124.821714 
L 268.985598 124.567929 
L 269.270582 141.252147 
L 269.555567 136.831399 
L 270.125536 136.435828 
L 270.410521 133.941607 
L 270.695506 130.039865 
L 270.98049 134.914457 
L 271.265475 130.623574 
L 271.55046 140.075107 
L 271.835444 124.099116 
L 272.120429 128.944798 
L 272.690398 129.748304 
L 272.975383 137.144734 
L 273.260368 141.582592 
L 273.545352 137.029666 
L 273.830337 115.056214 
L 274.115322 109.087781 
L 274.400306 122.343207 
L 274.685291 108.649549 
L 274.970276 112.459419 
L 275.25526 109.934914 
L 275.540245 142.093186 
L 275.82523 139.74124 
L 276.110215 131.114434 
L 276.395199 130.748771 
L 276.680184 123.313735 
L 277.250153 113.770891 
L 277.535138 105.91137 
L 277.820123 103.600874 
L 278.105107 104.619787 
L 278.390092 102.825925 
L 278.675077 106.560028 
L 278.960061 106.395279 
L 279.245046 115.917278 
L 279.530031 114.41484 
L 279.815015 99.082101 
L 280.1 97.098096 
L 280.384985 107.933758 
L 280.669969 102.40909 
L 280.954954 101.499506 
L 281.239939 120.195456 
L 281.809908 102.54642 
L 282.094893 91.96105 
L 282.379877 97.635892 
L 282.664862 93.82516 
L 282.949847 101.159569 
L 283.234831 105.560214 
L 283.519816 103.390181 
L 283.804801 99.682944 
L 284.089785 102.269029 
L 284.37477 103.82068 
L 284.94474 105.310265 
L 285.229724 110.455849 
L 285.514709 113.5432 
L 285.799694 115.39561 
L 286.084678 126.127904 
L 286.654648 124.885886 
L 287.224617 101.829765 
L 287.509602 105.962332 
L 287.794586 101.226234 
L 288.079571 103.195003 
L 288.364556 109.186692 
L 288.64954 112.781705 
L 288.934525 110.128286 
L 289.504494 117.682897 
L 289.789479 125.095066 
L 290.074464 122.32673 
L 290.359448 123.070938 
L 290.644433 116.301826 
L 291.214402 107.398267 
L 291.499387 106.898223 
L 291.784372 109.003407 
L 292.069356 119.887372 
L 292.354341 114.391686 
L 292.639326 113.499484 
L 293.209295 98.69274 
L 293.779265 115.971311 
L 294.064249 114.447259 
L 294.349234 123.153684 
L 294.634219 125.972321 
L 294.919203 122.853083 
L 295.204188 133.007601 
L 295.489173 131.884671 
L 295.774157 114.374428 
L 296.059142 115.894347 
L 296.344127 126.427146 
L 296.629111 120.72076 
L 296.914096 124.512567 
L 297.199081 117.166803 
L 297.484065 119.974982 
L 298.054035 132.772728 
L 298.339019 122.1229 
L 298.624004 120.54343 
L 298.908989 112.38011 
L 299.478958 112.239996 
L 299.763943 117.018898 
L 300.048927 105.454964 
L 300.333912 103.327031 
L 300.618897 104.455481 
L 300.903882 117.158616 
L 301.188866 105.538795 
L 301.473851 108.18775 
L 301.758836 119.397978 
L 302.04382 121.313687 
L 302.328805 112.842265 
L 302.61379 112.569832 
L 302.898774 110.001162 
L 303.183759 103.649532 
L 303.468744 107.054192 
L 303.753728 97.07093 
L 304.038713 91.080973 
L 304.323698 92.297419 
L 304.608682 95.432504 
L 304.893667 90.097917 
L 305.463636 74.874819 
L 305.748621 80.168517 
L 306.033606 71.318677 
L 306.31859 78.034831 
L 306.603575 94.090589 
L 306.88856 84.48234 
L 307.173544 95.553877 
L 307.458529 97.386379 
L 307.743514 96.080662 
L 308.313483 66.926718 
L 308.598468 80.210083 
L 308.883453 88.180102 
L 309.168437 78.530838 
L 309.453422 82.362128 
L 309.738407 99.092177 
L 310.023391 99.509359 
L 310.308376 92.54403 
L 310.593361 95.58047 
L 310.878345 99.807545 
L 311.16333 95.128152 
L 311.448315 92.320516 
L 311.733299 90.635934 
L 312.018284 82.409548 
L 312.303269 84.689354 
L 312.588253 83.652027 
L 312.873238 92.650479 
L 313.158223 86.023485 
L 313.443207 94.073353 
L 313.728192 82.066789 
L 314.013177 91.699336 
L 314.298161 87.858016 
L 314.583146 95.174072 
L 314.868131 85.132431 
L 315.153115 79.107446 
L 315.4381 80.302882 
L 315.723085 76.209716 
L 316.008069 85.779882 
L 316.293054 67.469858 
L 316.578039 75.72554 
L 316.863023 80.678949 
L 317.148008 66.814509 
L 317.432993 68.116692 
L 317.717978 66.492792 
L 318.002962 70.328873 
L 318.287947 70.225311 
L 318.572932 82.189239 
L 319.142901 82.12959 
L 319.427886 86.926589 
L 319.997855 71.327931 
L 320.28284 73.229956 
L 320.567824 71.965961 
L 321.137794 70.752525 
L 321.422778 70.479502 
L 321.707763 75.126116 
L 321.992748 77.914084 
L 322.277732 65.15559 
L 322.562717 71.931769 
L 322.847702 66.376628 
L 323.132686 67.853964 
L 323.417671 73.550793 
L 323.702656 62.537615 
L 324.272625 47.154537 
L 324.842594 68.073966 
L 325.127579 68.872367 
L 325.412564 66.946197 
L 325.697549 60.980068 
L 326.267518 69.202814 
L 326.552503 69.549676 
L 326.837487 67.352582 
L 327.122472 63.629116 
L 327.407457 75.826305 
L 327.692441 73.52377 
L 327.977426 69.737039 
L 328.262411 84.301486 
L 328.83238 66.534551 
L 329.117365 77.569565 
L 329.402349 67.354089 
L 329.687334 73.250868 
L 329.972319 71.978508 
L 330.257303 61.594244 
L 330.542288 64.984534 
L 330.827273 64.613497 
L 331.112257 71.606513 
L 331.397242 75.802323 
L 331.682227 66.293743 
L 331.967211 67.804233 
L 332.252196 73.520955 
L 332.537181 76.950987 
L 332.822165 69.388159 
L 333.10715 69.660883 
L 333.392135 62.608879 
L 333.67712 65.593315 
L 333.962104 62.573556 
L 334.247089 58.356483 
L 334.532074 55.826239 
L 334.817058 49.497673 
L 335.102043 55.321381 
L 335.387028 56.410395 
L 335.672012 45.037739 
L 336.241982 59.615239 
L 336.526966 56.581493 
L 336.811951 59.571673 
L 337.096936 54.150143 
L 337.38192 53.302435 
L 337.666905 47.98339 
L 338.236874 73.182774 
L 338.521859 64.722014 
L 338.806844 64.455985 
L 339.091828 57.08073 
L 339.376813 57.466005 
L 339.661798 67.318018 
L 339.946782 66.013588 
L 340.516752 50.811104 
L 340.801736 60.91986 
L 341.086721 59.769483 
L 341.371706 68.700104 
L 341.656691 66.84284 
L 341.941675 63.323271 
L 342.22666 61.211529 
L 342.511645 62.349694 
L 342.796629 65.437804 
L 343.081614 60.075032 
L 343.366599 64.073006 
L 343.651583 66.471791 
L 343.936568 67.911062 
L 344.221553 63.964204 
L 344.506537 68.81172 
L 344.791522 71.720229 
L 345.076507 68.654915 
L 345.646476 69.560549 
L 345.931461 67.359106 
L 346.216445 68.443451 
L 346.50143 71.499268 
L 346.786415 58.90149 
L 347.071399 58.558461 
L 347.356384 55.947426 
L 347.641369 56.786022 
L 347.926353 64.504811 
L 348.211338 69.136084 
L 348.496323 76.725275 
L 348.781307 66.847515 
L 349.066292 65.731286 
L 349.351277 62.656338 
L 349.636261 68.027 
L 349.921246 64.033767 
L 350.206231 66.448247 
L 350.491216 60.681298 
L 350.7762 59.626346 
L 351.061185 61.398584 
L 351.34617 67.272348 
L 351.631154 61.175758 
L 351.916139 62.328232 
L 352.201124 65.424926 
L 352.486108 64.877733 
L 352.771093 69.359837 
L 353.056078 69.643889 
L 353.341062 77.029959 
L 353.626047 67.030325 
L 353.911032 68.246182 
L 354.196016 73.786124 
L 354.481001 67.489241 
L 354.765986 66.116322 
L 355.05097 65.29257 
L 355.335955 62.393109 
L 355.62094 63.058642 
L 355.905924 61.052752 
L 356.190909 62.254428 
L 356.475894 58.165006 
L 356.760878 62.926991 
L 357.045863 46.542486 
L 358.185802 82.702791 
L 358.755771 62.110684 
L 359.040756 60.483977 
L 359.325741 64.318374 
L 359.89571 64.151058 
L 360.180695 66.518622 
L 360.465679 67.93916 
L 360.750664 61.575846 
L 361.035649 60.163074 
L 361.320633 66.531042 
L 361.605618 58.325764 
L 361.890603 58.213025 
L 362.175587 74.981868 
L 362.460572 82.637956 
L 363.030541 59.682133 
L 363.315526 66.242477 
L 363.600511 67.773474 
L 363.885495 68.692071 
L 364.17048 66.83802 
L 364.455465 75.346437 
L 364.740449 63.615001 
L 365.025434 71.007416 
L 365.310419 58.606378 
L 365.595403 63.191814 
L 365.880388 65.943076 
L 366.165373 55.567775 
L 366.450358 66.179079 
L 366.735342 62.925014 
L 367.020327 60.972576 
L 367.305312 62.206322 
L 367.590296 60.54136 
L 367.875281 64.352803 
L 368.44525 78.113683 
L 368.730235 72.490987 
L 369.01522 73.927789 
L 369.300204 69.979451 
L 369.870174 70.037382 
L 370.155158 65.239996 
L 370.440143 67.171985 
L 370.725128 58.71033 
L 371.010112 68.064613 
L 371.295097 73.677182 
L 371.580082 69.829086 
L 371.865066 67.520229 
L 372.150051 68.540124 
L 372.435036 61.936424 
L 372.72002 67.595052 
L 373.005005 58.96417 
L 373.28999 58.596069 
L 373.574974 80.022114 
L 373.859959 85.662104 
L 374.144944 84.235677 
L 374.429928 68.948545 
L 374.714913 74.207542 
L 374.999898 72.552512 
L 375.284883 57.128219 
L 375.569867 64.710129 
L 375.854852 54.828006 
L 376.139837 58.519581 
L 376.424821 65.544946 
L 376.709806 64.949745 
L 376.994791 66.997834 
L 377.279775 70.631898 
L 377.56476 63.191488 
L 377.849745 70.753308 
L 378.134729 63.264334 
L 378.419714 75.607435 
L 378.704699 78.202876 
L 378.989683 79.76014 
L 379.274668 83.099709 
L 379.559653 82.69824 
L 379.844637 80.052141 
L 380.129622 80.8697 
L 380.414607 76.549807 
L 380.699591 78.768299 
L 380.984576 68.073329 
L 381.269561 68.871984 
L 381.554545 66.945968 
L 381.83953 65.790358 
L 382.409499 58.427418 
L 382.694484 70.300076 
L 382.979469 75.01846 
L 383.264454 68.228643 
L 383.834423 59.305201 
L 384.119408 66.016318 
L 384.404392 70.042988 
L 384.689377 65.24336 
L 384.974362 69.579213 
L 385.259346 69.775515 
L 385.544331 65.082876 
L 385.829316 62.267292 
L 386.1143 65.388363 
L 386.399285 64.855795 
L 386.68427 76.562312 
L 386.969254 73.965374 
L 387.254239 70.002002 
L 387.539224 67.623978 
L 387.824208 78.223222 
L 388.109193 84.582768 
L 388.394178 85.993286 
L 388.679162 84.434386 
L 388.964147 71.472981 
L 389.249132 73.316986 
L 389.534116 86.449454 
L 389.819101 84.708087 
L 390.104086 83.663267 
L 390.38907 78.225947 
L 390.674055 91.800041 
L 390.95904 90.32365 
L 391.529009 54.752299 
L 391.813994 58.474156 
L 392.383963 58.198803 
L 392.668948 65.352479 
L 392.953933 62.429054 
L 393.238917 65.48542 
L 393.523902 72.129667 
L 393.808887 61.684939 
L 394.378856 73.304911 
L 394.663841 74.416144 
L 395.23381 61.532701 
L 395.518795 60.137188 
L 395.803779 64.1103 
L 396.088764 59.278529 
L 396.373749 61.189895 
L 396.658733 71.957562 
L 396.943718 63.986886 
L 397.228703 76.040967 
L 397.513687 83.273415 
L 397.798672 75.586826 
L 398.083657 73.380083 
L 398.368641 72.056037 
L 398.653626 61.640761 
L 398.938611 72.228082 
L 399.223596 66.554416 
L 399.50858 70.365847 
L 399.793565 77.463133 
L 400.07855 62.479809 
L 400.363534 65.515873 
L 400.933504 74.684047 
L 401.218488 75.243626 
L 401.503473 73.174163 
L 402.073442 64.933932 
L 402.643412 78.322889 
L 403.213381 76.889356 
L 403.498366 66.945963 
L 403.78335 70.600775 
L 404.35332 70.261059 
L 404.638304 65.374202 
L 404.923289 69.657719 
L 405.208274 77.038256 
L 405.493258 67.035303 
L 405.778243 63.438749 
L 406.063228 54.065178 
L 406.348212 55.656674 
L 406.633197 54.206354 
L 406.918182 55.741379 
L 407.203166 61.472815 
L 407.488151 57.696038 
L 407.773136 57.83519 
L 408.058121 55.513463 
L 408.343105 54.120427 
L 408.62809 43.663758 
L 408.913075 66.252307 
L 409.198059 58.158524 
L 409.483044 55.707464 
L 409.768029 61.452465 
L 410.053013 52.873408 
L 410.337998 50.131184 
L 410.622983 55.701488 
L 411.192952 57.200642 
L 411.477937 59.943162 
L 411.762921 56.778247 
L 412.047906 54.879298 
L 412.332891 60.955566 
L 412.617875 71.816964 
L 413.187845 60.596997 
L 413.472829 64.386185 
L 413.757814 61.849278 
L 414.042799 55.516706 
L 414.327783 58.932801 
L 414.612768 56.17203 
L 414.897753 64.136415 
L 415.182737 68.915047 
L 415.467722 57.350957 
L 415.752707 52.817713 
L 416.037692 59.718615 
L 416.322676 59.048736 
L 416.607661 65.862439 
L 416.892646 62.73503 
L 417.17763 56.048157 
L 417.462615 54.441244 
L 417.7476 60.692734 
L 418.032584 62.038417 
L 418.317569 55.63019 
L 418.602554 51.785253 
L 418.887538 49.478291 
L 419.457508 57.365502 
L 419.742492 72.068136 
L 420.027477 78.484507 
L 420.312462 72.713481 
L 420.597446 81.276924 
L 420.882431 69.578504 
L 421.167416 72.1803 
L 421.4524 78.551805 
L 421.737385 77.56428 
L 422.02237 62.540497 
L 422.307354 55.931438 
L 422.592339 56.776429 
L 422.877324 54.878207 
L 423.162308 51.334064 
L 423.447293 51.612788 
L 423.732278 49.374812 
L 424.017263 57.652874 
L 424.587232 68.005024 
L 424.872217 61.615364 
L 425.442186 63.177974 
L 425.727171 58.719134 
L 426.012155 51.23341 
L 426.29714 56.362823 
L 426.582125 57.03526 
L 426.867109 52.628296 
L 427.152094 62.010175 
L 427.437079 65.234092 
L 427.722063 59.952805 
L 428.007048 56.784032 
L 428.292033 59.693196 
L 428.577017 71.059543 
L 428.862002 63.448075 
L 429.146987 68.502042 
L 429.431971 61.913575 
L 429.716956 57.960494 
L 430.001941 48.373008 
L 430.286925 45.025734 
L 430.57191 50.233007 
L 431.141879 41.281752 
L 431.426864 43.17619 
L 431.711849 58.744129 
L 431.996834 60.869254 
L 432.281818 57.333902 
L 432.566803 55.212691 
L 432.851788 56.345181 
L 433.136772 61.835096 
L 433.421757 55.508197 
L 433.706742 66.143333 
L 433.991726 62.903567 
L 434.276711 60.959707 
L 434.561696 52.577753 
L 434.84668 54.764219 
L 435.131665 48.86046 
L 435.41665 45.318205 
L 435.701634 45.598062 
L 435.986619 48.171187 
L 436.271604 52.120279 
L 436.556588 42.463669 
L 436.841573 53.506189 
L 437.411542 42.460097 
L 437.696527 58.314473 
L 437.981512 53.395823 
L 438.266496 57.660271 
L 438.551481 53.003302 
L 438.836466 50.20912 
L 439.12145 58.153459 
L 439.406435 53.299215 
L 439.69142 62.412726 
L 439.976404 60.665203 
L 440.261389 62.021899 
L 440.546374 70.051554 
L 441.116343 70.063339 
L 441.686313 56.117351 
L 442.256282 75.14892 
L 442.541267 70.712129 
L 442.826251 70.455265 
L 443.396221 60.106785 
L 443.681205 71.307696 
L 443.96619 68.407394 
L 444.251175 61.856786 
L 444.536159 50.710783 
L 444.821144 53.644037 
L 445.106129 50.593561 
L 445.391113 55.978914 
L 445.676098 51.994488 
L 445.961083 56.81947 
L 446.246067 66.930096 
L 446.531052 58.565197 
L 446.816037 55.951468 
L 447.101021 59.193658 
L 447.386006 53.923334 
L 447.670991 50.76114 
L 447.955975 60.889881 
L 448.24096 54.941068 
L 448.525945 63.397838 
L 448.81093 49.230204 
L 449.095914 50.350472 
L 449.380899 48.617423 
L 449.665884 42.767165 
L 450.235853 54.949497 
L 450.805822 53.081578 
L 451.090807 55.066514 
L 451.375792 53.852258 
L 451.660776 57.934132 
L 451.945761 74.814531 
L 452.230746 63.295858 
L 452.51573 63.600292 
L 452.800715 54.162104 
L 453.0857 62.93046 
L 453.370684 65.786263 
L 453.655669 65.094535 
L 453.940654 74.300346 
L 454.225638 77.418622 
L 454.510623 62.453102 
L 454.795608 63.094638 
L 455.080592 58.669133 
L 455.365577 70.445104 
L 455.650562 70.29505 
L 455.935546 62.989379 
L 456.220531 61.011194 
L 456.505516 62.229494 
L 457.075485 73.500951 
L 457.36047 62.50771 
L 457.645455 65.532613 
L 457.930439 67.347555 
L 458.500409 51.291332 
L 458.785393 46.776729 
L 459.355363 56.392939 
L 459.640347 47.432475 
L 459.925332 61.2979 
L 460.210317 55.185879 
L 460.495301 58.734305 
L 460.780286 48.837294 
L 461.350255 40.779295 
L 461.63524 50.090354 
L 461.920225 48.461352 
L 462.205209 54.699588 
L 462.490194 53.632102 
L 462.775179 50.586401 
L 463.060163 60.785038 
L 463.345148 62.0938 
L 463.630133 55.663419 
L 463.915117 44.589553 
L 464.200102 61.997357 
L 464.485087 53.200343 
L 464.770072 50.327345 
L 465.055056 58.224394 
L 465.340041 60.557414 
L 465.625026 57.146798 
L 465.91001 62.316066 
L 466.194995 63.012416 
L 466.47998 48.998951 
L 466.764964 45.4013 
L 467.049949 48.053129 
L 467.334934 47.239017 
L 467.619918 49.15576 
L 467.904903 52.711023 
L 468.189888 54.84418 
L 468.474872 56.124075 
L 468.759857 47.271157 
L 469.044842 49.175044 
L 469.329826 55.127803 
L 469.614811 58.699459 
L 469.899796 56.032025 
L 470.18478 49.621144 
L 470.469765 60.205884 
L 470.75475 61.746307 
L 471.039734 62.670561 
L 471.324719 58.414686 
L 471.609704 48.645524 
L 471.894688 49.999664 
L 472.179673 60.432996 
L 472.464658 59.477364 
L 472.749642 63.714406 
L 473.034627 63.85142 
L 473.604597 53.88106 
L 473.889581 55.546203 
L 474.174566 56.545289 
L 474.459551 45.118675 
L 474.744535 47.883554 
L 475.02952 49.542482 
L 475.314505 52.943056 
L 475.599489 40.552125 
L 475.884474 42.738414 
L 476.169459 48.860615 
L 476.454443 52.533936 
L 476.739428 64.358776 
L 477.024413 61.832833 
L 477.309397 57.912049 
L 477.594382 50.749159 
L 477.879367 51.261845 
L 478.164351 49.164246 
L 478.449336 50.310897 
L 478.734321 48.593678 
L 479.019305 47.563346 
L 479.30429 49.350357 
L 479.589275 62.448629 
L 479.874259 55.876317 
L 480.159244 66.364205 
L 480.444229 63.03609 
L 480.729213 65.849641 
L 481.014198 57.916924 
L 481.299183 53.157294 
L 481.584168 55.111943 
L 481.869152 51.474305 
L 482.154137 51.696932 
L 482.439122 61.451357 
L 482.724106 57.683164 
L 483.009091 55.422248 
L 483.009091 55.422248 
" clip-path="url(#p8465782c2d)" style="fill: none; stroke: #1f77b4; stroke-width: 1.5; stroke-linecap: square"/>
   </g>
   <g id="patch_3">
    <path d="M 56.9 305.152125 
L 56.9 27.952125 
" style="fill: none; stroke: #000000; stroke-width: 0.8; stroke-linejoin: miter; stroke-linecap: square"/>
   </g>
   <g id="patch_4">
    <path d="M 503.3 305.152125 
L 503.3 27.952125 
" style="fill: none; stroke: #000000; stroke-width: 0.8; stroke-linejoin: miter; stroke-linecap: square"/>
   </g>
   <g id="patch_5">
    <path d="M 56.9 305.152125 
L 503.3 305.152125 
" style="fill: none; stroke: #000000; stroke-width: 0.8; stroke-linejoin: miter; stroke-linecap: square"/>
   </g>
   <g id="patch_6">
    <path d="M 56.9 27.952125 
L 503.3 27.952125 
" style="fill: none; stroke: #000000; stroke-width: 0.8; stroke-linejoin: miter; stroke-linecap: square"/>
   </g>
   <g id="text_15">
    <!-- ML1 Meta Testing -->
    <g transform="translate(198.504313 21.952125)scale(0.216 -0.216)">
     <defs>
      <path id="STIXGeneral-Regular-4d" d="M 5530 0 
L 3738 0 
L 3738 122 
Q 4115 147 4214 265 
Q 4314 384 4314 787 
L 4314 3661 
L 2682 0 
L 2592 0 
L 979 3514 
L 979 966 
Q 979 448 1088 294 
Q 1197 141 1574 122 
L 1574 0 
L 77 0 
L 77 122 
Q 358 141 480 205 
Q 602 269 650 432 
Q 698 595 698 966 
L 698 3514 
Q 698 3878 589 3984 
Q 480 4090 90 4115 
L 90 4237 
L 1357 4237 
L 2835 1024 
L 4250 4237 
L 5523 4237 
L 5523 4115 
Q 5178 4109 5072 3993 
Q 4966 3878 4966 3520 
L 4966 717 
Q 4966 378 5072 262 
Q 5178 147 5530 122 
L 5530 0 
z
" transform="scale(0.015625)"/>
      <path id="STIXGeneral-Regular-4c" d="M 3827 1114 
L 3520 0 
L 77 0 
L 77 122 
Q 429 141 531 256 
Q 634 371 634 736 
L 634 3494 
Q 634 3872 541 3981 
Q 448 4090 77 4115 
L 77 4237 
L 1888 4237 
L 1888 4115 
Q 1498 4090 1392 3984 
Q 1286 3878 1286 3507 
L 1286 538 
Q 1286 358 1398 304 
Q 1510 250 1862 250 
L 2310 250 
Q 3085 250 3392 640 
Q 3520 813 3661 1114 
L 3827 1114 
z
" transform="scale(0.015625)"/>
     </defs>
     <use xlink:href="#STIXGeneral-Regular-4d"/>
     <use xlink:href="#STIXGeneral-Regular-4c" x="88.899994"/>
     <use xlink:href="#STIXGeneral-Regular-31" x="149.999985"/>
     <use xlink:href="#STIXGeneral-Regular-20" x="199.999969"/>
     <use xlink:href="#STIXGeneral-Regular-4d" x="224.999954"/>
     <use xlink:href="#STIXGeneral-Regular-65" x="313.899948"/>
     <use xlink:href="#STIXGeneral-Regular-74" x="358.299942"/>
     <use xlink:href="#STIXGeneral-Regular-61" x="386.09993"/>
     <use xlink:href="#STIXGeneral-Regular-20" x="430.499924"/>
     <use xlink:href="#STIXGeneral-Regular-54" x="455.499908"/>
     <use xlink:href="#STIXGeneral-Regular-65" x="516.599899"/>
     <use xlink:href="#STIXGeneral-Regular-73" x="560.999893"/>
     <use xlink:href="#STIXGeneral-Regular-74" x="599.899887"/>
     <use xlink:href="#STIXGeneral-Regular-69" x="627.699875"/>
     <use xlink:href="#STIXGeneral-Regular-6e" x="655.499863"/>
     <use xlink:href="#STIXGeneral-Regular-67" x="705.499847"/>
    </g>
   </g>
   <g id="legend_1">
    <g id="patch_7">
     <path d="M 62.5 51.752125 
L 158.93375 51.752125 
Q 161.73375 51.752125 161.73375 48.952125 
L 161.73375 33.552125 
Q 161.73375 30.752125 158.93375 30.752125 
L 62.5 30.752125 
Q 59.7 30.752125 59.7 33.552125 
L 59.7 48.952125 
Q 59.7 51.752125 62.5 51.752125 
z
" style="fill: #ffffff; opacity: 0.8; stroke: #cccccc; stroke-linejoin: miter"/>
    </g>
    <g id="line2d_24">
     <path d="M 63.9 40.663687 
L 70.9 40.663687 
L 77.9 40.663687 
" style="fill: none; stroke: #1f77b4; stroke-width: 1.5; stroke-linecap: square"/>
    </g>
    <g id="text_16">
     <!-- basketball-v2 -->
     <g transform="translate(82.1 44.513687)scale(0.14 -0.14)">
      <defs>
       <path id="STIXGeneral-Regular-62" d="M 979 4358 
L 979 2406 
Q 1082 2650 1315 2797 
Q 1549 2944 1843 2944 
Q 2349 2944 2672 2541 
Q 2995 2138 2995 1536 
Q 2995 832 2566 384 
Q 2138 -64 1498 -64 
Q 1107 -64 774 67 
Q 442 198 442 358 
L 442 3622 
Q 442 3859 384 3926 
Q 326 3994 128 3994 
Q 83 3994 19 3981 
L 19 4090 
L 211 4147 
Q 864 4346 947 4371 
L 979 4358 
z
M 979 2035 
L 979 474 
Q 979 326 1161 233 
Q 1344 141 1600 141 
Q 1978 141 2195 416 
Q 2432 710 2432 1261 
Q 2432 1888 2182 2240 
Q 1971 2541 1613 2541 
Q 1357 2541 1168 2390 
Q 979 2240 979 2035 
z
" transform="scale(0.015625)"/>
       <path id="STIXGeneral-Regular-6b" d="M 3232 0 
L 1837 0 
L 1837 96 
L 1958 96 
Q 2093 96 2093 192 
Q 2093 250 2022 339 
L 1062 1606 
L 1062 429 
Q 1062 262 1142 185 
Q 1222 109 1414 102 
L 1542 96 
L 1542 0 
L 45 0 
L 45 96 
Q 390 154 457 214 
Q 525 275 525 525 
L 525 3610 
Q 525 3840 467 3920 
Q 410 4000 250 4000 
Q 211 4000 45 3987 
L 45 4090 
L 237 4141 
Q 621 4243 1037 4371 
L 1062 4358 
L 1062 1670 
L 1939 2451 
Q 2086 2586 2086 2675 
Q 2086 2739 2019 2761 
Q 1952 2784 1766 2790 
L 1766 2880 
L 3072 2880 
L 3072 2784 
Q 2752 2784 2505 2646 
Q 2259 2509 1690 1978 
L 1504 1805 
L 2483 563 
Q 2829 122 3232 96 
L 3232 0 
z
" transform="scale(0.015625)"/>
       <path id="STIXGeneral-Regular-6c" d="M 1645 0 
L 134 0 
L 134 96 
Q 435 122 531 221 
Q 627 320 627 589 
L 627 3590 
Q 627 3821 569 3910 
Q 512 4000 358 4000 
Q 224 4000 122 3987 
L 122 4090 
Q 730 4237 1133 4371 
L 1165 4346 
L 1165 557 
Q 1165 288 1254 201 
Q 1344 115 1645 96 
L 1645 0 
z
" transform="scale(0.015625)"/>
       <path id="STIXGeneral-Regular-2d" d="M 1824 1242 
L 250 1242 
L 250 1645 
L 1824 1645 
L 1824 1242 
z
" transform="scale(0.015625)"/>
      </defs>
      <use xlink:href="#STIXGeneral-Regular-62"/>
      <use xlink:href="#STIXGeneral-Regular-61" x="49.999985"/>
      <use xlink:href="#STIXGeneral-Regular-73" x="94.399979"/>
      <use xlink:href="#STIXGeneral-Regular-6b" x="133.299973"/>
      <use xlink:href="#STIXGeneral-Regular-65" x="183.299957"/>
      <use xlink:href="#STIXGeneral-Regular-74" x="227.699951"/>
      <use xlink:href="#STIXGeneral-Regular-62" x="255.499939"/>
      <use xlink:href="#STIXGeneral-Regular-61" x="305.499924"/>
      <use xlink:href="#STIXGeneral-Regular-6c" x="349.899918"/>
      <use xlink:href="#STIXGeneral-Regular-6c" x="377.699905"/>
      <use xlink:href="#STIXGeneral-Regular-2d" x="405.499893"/>
      <use xlink:href="#STIXGeneral-Regular-76" x="438.799881"/>
      <use xlink:href="#STIXGeneral-Regular-32" x="488.799866"/>
     </g>
    </g>
   </g>
  </g>
 </g>
 <defs>
  <clipPath id="p8465782c2d">
   <rect x="56.9" y="27.952125" width="446.4" height="277.2"/>
  </clipPath>
 </defs>
</svg>
