<?xml version="1.0" encoding="utf-8" standalone="no"?>
<!DOCTYPE svg PUBLIC "-//W3C//DTD SVG 1.1//EN"
  "http://www.w3.org/Graphics/SVG/1.1/DTD/svg11.dtd">
<svg xmlns:xlink="http://www.w3.org/1999/xlink" width="510.5pt" height="355.769pt" viewBox="0 0 510.5 355.769" xmlns="http://www.w3.org/2000/svg" version="1.1">
 <metadata>
  <rdf:RDF xmlns:dc="http://purl.org/dc/elements/1.1/" xmlns:cc="http://creativecommons.org/ns#" xmlns:rdf="http://www.w3.org/1999/02/22-rdf-syntax-ns#">
   <cc:Work>
    <dc:type rdf:resource="http://purl.org/dc/dcmitype/StillImage"/>
    <dc:date>2021-12-11T16:00:21.026668</dc:date>
    <dc:format>image/svg+xml</dc:format>
    <dc:creator>
     <cc:Agent>
      <dc:title>Matplotlib v3.5.0, https://matplotlib.org/</dc:title>
     </cc:Agent>
    </dc:creator>
   </cc:Work>
  </rdf:RDF>
 </metadata>
 <defs>
  <style type="text/css">*{stroke-linejoin: round; stroke-linecap: butt}</style>
 </defs>
 <g id="figure_1">
  <g id="patch_1">
   <path d="M 0 355.769 
L 510.5 355.769 
L 510.5 0 
L 0 0 
z
" style="fill: #ffffff"/>
  </g>
  <g id="axes_1">
   <g id="patch_2">
    <path d="M 56.9 305.152125 
L 503.3 305.152125 
L 503.3 27.952125 
L 56.9 27.952125 
z
" style="fill: #ffffff"/>
   </g>
   <g id="matplotlib.axis_1">
    <g id="xtick_1">
     <g id="line2d_1">
      <path d="M 76.94585 305.152125 
L 76.94585 27.952125 
" clip-path="url(#p953510e76e)" style="fill: none; stroke: #b0b0b0; stroke-width: 0.8; stroke-linecap: square"/>
     </g>
     <g id="line2d_2">
      <defs>
       <path id="mcb85f61d1c" d="M 0 0 
L 0 3.5 
" style="stroke: #000000; stroke-width: 0.8"/>
      </defs>
      <g>
       <use xlink:href="#mcb85f61d1c" x="76.94585" y="305.152125" style="stroke: #000000; stroke-width: 0.8"/>
      </g>
     </g>
     <g id="text_1">
      <!-- 0.0 -->
      <g transform="translate(65.69585 324.445562)scale(0.18 -0.18)">
       <defs>
        <path id="STIXGeneral-Regular-30" d="M 3046 2112 
Q 3046 1683 2963 1302 
Q 2880 922 2717 602 
Q 2554 282 2266 96 
Q 1978 -90 1600 -90 
Q 1210 -90 915 108 
Q 621 307 461 640 
Q 301 973 227 1350 
Q 154 1728 154 2150 
Q 154 2746 301 3222 
Q 448 3699 790 4012 
Q 1133 4326 1626 4326 
Q 2253 4326 2649 3712 
Q 3046 3098 3046 2112 
z
M 2432 2080 
Q 2432 3091 2217 3625 
Q 2003 4160 1587 4160 
Q 1190 4160 979 3622 
Q 768 3085 768 2106 
Q 768 1120 979 598 
Q 1190 77 1600 77 
Q 2003 77 2217 598 
Q 2432 1120 2432 2080 
z
" transform="scale(0.015625)"/>
        <path id="STIXGeneral-Regular-2e" d="M 1158 275 
Q 1158 134 1052 32 
Q 947 -70 800 -70 
Q 653 -70 550 32 
Q 448 134 448 281 
Q 448 429 553 534 
Q 659 640 806 640 
Q 947 640 1052 531 
Q 1158 422 1158 275 
z
" transform="scale(0.015625)"/>
       </defs>
       <use xlink:href="#STIXGeneral-Regular-30"/>
       <use xlink:href="#STIXGeneral-Regular-2e" x="49.999985"/>
       <use xlink:href="#STIXGeneral-Regular-30" x="74.999969"/>
      </g>
     </g>
    </g>
    <g id="xtick_2">
     <g id="line2d_3">
      <path d="M 138.210672 305.152125 
L 138.210672 27.952125 
" clip-path="url(#p953510e76e)" style="fill: none; stroke: #b0b0b0; stroke-width: 0.8; stroke-linecap: square"/>
     </g>
     <g id="line2d_4">
      <g>
       <use xlink:href="#mcb85f61d1c" x="138.210672" y="305.152125" style="stroke: #000000; stroke-width: 0.8"/>
      </g>
     </g>
     <g id="text_2">
      <!-- 0.5 -->
      <g transform="translate(126.960672 324.445562)scale(0.18 -0.18)">
       <defs>
        <path id="STIXGeneral-Regular-35" d="M 2803 4358 
L 2573 3814 
Q 2534 3731 2400 3731 
L 1158 3731 
L 902 3187 
Q 1606 3053 1920 2896 
Q 2234 2739 2502 2368 
Q 2726 2061 2726 1555 
Q 2726 1094 2576 780 
Q 2426 467 2099 224 
Q 1664 -90 1011 -90 
Q 646 -90 422 19 
Q 198 128 198 307 
Q 198 550 486 550 
Q 717 550 960 352 
Q 1210 147 1414 147 
Q 1747 147 2012 480 
Q 2278 813 2278 1229 
Q 2278 1843 1850 2189 
Q 1293 2637 486 2637 
Q 410 2637 410 2688 
L 416 2720 
L 1114 4237 
L 2438 4237 
Q 2547 4237 2608 4269 
Q 2669 4301 2746 4403 
L 2803 4358 
z
" transform="scale(0.015625)"/>
       </defs>
       <use xlink:href="#STIXGeneral-Regular-30"/>
       <use xlink:href="#STIXGeneral-Regular-2e" x="49.999985"/>
       <use xlink:href="#STIXGeneral-Regular-35" x="74.999969"/>
      </g>
     </g>
    </g>
    <g id="xtick_3">
     <g id="line2d_5">
      <path d="M 199.475494 305.152125 
L 199.475494 27.952125 
" clip-path="url(#p953510e76e)" style="fill: none; stroke: #b0b0b0; stroke-width: 0.8; stroke-linecap: square"/>
     </g>
     <g id="line2d_6">
      <g>
       <use xlink:href="#mcb85f61d1c" x="199.475494" y="305.152125" style="stroke: #000000; stroke-width: 0.8"/>
      </g>
     </g>
     <g id="text_3">
      <!-- 1.0 -->
      <g transform="translate(188.225494 324.445562)scale(0.18 -0.18)">
       <defs>
        <path id="STIXGeneral-Regular-31" d="M 2522 0 
L 755 0 
L 755 96 
Q 1107 115 1235 227 
Q 1363 339 1363 608 
L 1363 3482 
Q 1363 3795 1171 3795 
Q 1082 3795 883 3718 
L 710 3654 
L 710 3744 
L 1856 4326 
L 1914 4307 
L 1914 486 
Q 1914 275 2042 185 
Q 2170 96 2522 96 
L 2522 0 
z
" transform="scale(0.015625)"/>
       </defs>
       <use xlink:href="#STIXGeneral-Regular-31"/>
       <use xlink:href="#STIXGeneral-Regular-2e" x="49.999985"/>
       <use xlink:href="#STIXGeneral-Regular-30" x="74.999969"/>
      </g>
     </g>
    </g>
    <g id="xtick_4">
     <g id="line2d_7">
      <path d="M 260.740316 305.152125 
L 260.740316 27.952125 
" clip-path="url(#p953510e76e)" style="fill: none; stroke: #b0b0b0; stroke-width: 0.8; stroke-linecap: square"/>
     </g>
     <g id="line2d_8">
      <g>
       <use xlink:href="#mcb85f61d1c" x="260.740316" y="305.152125" style="stroke: #000000; stroke-width: 0.8"/>
      </g>
     </g>
     <g id="text_4">
      <!-- 1.5 -->
      <g transform="translate(249.490316 324.445562)scale(0.18 -0.18)">
       <use xlink:href="#STIXGeneral-Regular-31"/>
       <use xlink:href="#STIXGeneral-Regular-2e" x="49.999985"/>
       <use xlink:href="#STIXGeneral-Regular-35" x="74.999969"/>
      </g>
     </g>
    </g>
    <g id="xtick_5">
     <g id="line2d_9">
      <path d="M 322.005138 305.152125 
L 322.005138 27.952125 
" clip-path="url(#p953510e76e)" style="fill: none; stroke: #b0b0b0; stroke-width: 0.8; stroke-linecap: square"/>
     </g>
     <g id="line2d_10">
      <g>
       <use xlink:href="#mcb85f61d1c" x="322.005138" y="305.152125" style="stroke: #000000; stroke-width: 0.8"/>
      </g>
     </g>
     <g id="text_5">
      <!-- 2.0 -->
      <g transform="translate(310.755138 324.445562)scale(0.18 -0.18)">
       <defs>
        <path id="STIXGeneral-Regular-32" d="M 3034 877 
L 2688 0 
L 186 0 
L 186 77 
L 1325 1286 
Q 1773 1754 1965 2144 
Q 2157 2534 2157 2950 
Q 2157 3379 1920 3616 
Q 1683 3853 1267 3853 
Q 922 3853 720 3673 
Q 518 3494 326 3021 
L 192 3053 
Q 301 3648 630 3987 
Q 960 4326 1523 4326 
Q 2054 4326 2380 4006 
Q 2707 3686 2707 3200 
Q 2707 2477 1888 1613 
L 832 486 
L 2330 486 
Q 2541 486 2665 569 
Q 2790 653 2944 915 
L 3034 877 
z
" transform="scale(0.015625)"/>
       </defs>
       <use xlink:href="#STIXGeneral-Regular-32"/>
       <use xlink:href="#STIXGeneral-Regular-2e" x="49.999985"/>
       <use xlink:href="#STIXGeneral-Regular-30" x="74.999969"/>
      </g>
     </g>
    </g>
    <g id="xtick_6">
     <g id="line2d_11">
      <path d="M 383.26996 305.152125 
L 383.26996 27.952125 
" clip-path="url(#p953510e76e)" style="fill: none; stroke: #b0b0b0; stroke-width: 0.8; stroke-linecap: square"/>
     </g>
     <g id="line2d_12">
      <g>
       <use xlink:href="#mcb85f61d1c" x="383.26996" y="305.152125" style="stroke: #000000; stroke-width: 0.8"/>
      </g>
     </g>
     <g id="text_6">
      <!-- 2.5 -->
      <g transform="translate(372.01996 324.445562)scale(0.18 -0.18)">
       <use xlink:href="#STIXGeneral-Regular-32"/>
       <use xlink:href="#STIXGeneral-Regular-2e" x="49.999985"/>
       <use xlink:href="#STIXGeneral-Regular-35" x="74.999969"/>
      </g>
     </g>
    </g>
    <g id="xtick_7">
     <g id="line2d_13">
      <path d="M 444.534783 305.152125 
L 444.534783 27.952125 
" clip-path="url(#p953510e76e)" style="fill: none; stroke: #b0b0b0; stroke-width: 0.8; stroke-linecap: square"/>
     </g>
     <g id="line2d_14">
      <g>
       <use xlink:href="#mcb85f61d1c" x="444.534783" y="305.152125" style="stroke: #000000; stroke-width: 0.8"/>
      </g>
     </g>
     <g id="text_7">
      <!-- 3.0 -->
      <g transform="translate(433.284783 324.445562)scale(0.18 -0.18)">
       <defs>
        <path id="STIXGeneral-Regular-33" d="M 390 3264 
L 288 3290 
Q 435 3770 748 4048 
Q 1062 4326 1542 4326 
Q 1990 4326 2265 4083 
Q 2541 3840 2541 3450 
Q 2541 2925 1946 2566 
Q 2298 2413 2477 2227 
Q 2758 1914 2758 1402 
Q 2758 890 2464 506 
Q 2246 211 1840 60 
Q 1434 -90 979 -90 
Q 262 -90 262 275 
Q 262 378 339 442 
Q 416 506 525 506 
Q 685 506 915 339 
Q 1197 141 1466 141 
Q 1818 141 2058 425 
Q 2298 710 2298 1120 
Q 2298 1856 1632 2048 
Q 1434 2112 979 2112 
L 979 2202 
Q 1338 2323 1517 2432 
Q 2035 2726 2035 3290 
Q 2035 3610 1852 3776 
Q 1670 3942 1344 3942 
Q 768 3942 390 3264 
z
" transform="scale(0.015625)"/>
       </defs>
       <use xlink:href="#STIXGeneral-Regular-33"/>
       <use xlink:href="#STIXGeneral-Regular-2e" x="49.999985"/>
       <use xlink:href="#STIXGeneral-Regular-30" x="74.999969"/>
      </g>
     </g>
    </g>
    <g id="text_8">
     <!-- Training Environment Steps -->
     <g transform="translate(178.104688 344.645562)scale(0.18 -0.18)">
      <defs>
       <path id="STIXGeneral-Regular-54" d="M 3795 3149 
L 3642 3149 
Q 3539 3674 3353 3821 
Q 3168 3968 2656 3968 
L 2278 3968 
L 2278 710 
Q 2278 346 2387 243 
Q 2496 141 2893 122 
L 2893 0 
L 1024 0 
L 1024 122 
Q 1427 147 1526 256 
Q 1626 365 1626 787 
L 1626 3968 
L 1242 3968 
Q 723 3968 540 3817 
Q 358 3667 262 3149 
L 109 3149 
L 154 4237 
L 3750 4237 
L 3795 3149 
z
" transform="scale(0.015625)"/>
       <path id="STIXGeneral-Regular-72" d="M 1024 2931 
L 1024 2342 
Q 1267 2688 1430 2816 
Q 1594 2944 1792 2944 
Q 1958 2944 2051 2854 
Q 2144 2765 2144 2605 
Q 2144 2470 2077 2393 
Q 2010 2317 1894 2317 
Q 1773 2317 1638 2445 
Q 1536 2541 1472 2541 
Q 1338 2541 1181 2355 
Q 1024 2170 1024 2016 
L 1024 576 
Q 1024 301 1133 205 
Q 1242 109 1568 96 
L 1568 0 
L 32 0 
L 32 96 
Q 339 154 412 224 
Q 486 294 486 538 
L 486 2138 
Q 486 2349 438 2435 
Q 390 2522 269 2522 
Q 166 2522 45 2496 
L 45 2598 
Q 448 2726 992 2944 
L 1024 2931 
z
" transform="scale(0.015625)"/>
       <path id="STIXGeneral-Regular-61" d="M 2829 422 
L 2829 243 
Q 2586 -64 2253 -64 
Q 1888 -64 1843 403 
L 1837 403 
Q 1427 -64 909 -64 
Q 608 -64 422 112 
Q 237 288 237 602 
Q 237 1050 685 1350 
Q 992 1555 1837 1869 
L 1837 2214 
Q 1837 2502 1699 2646 
Q 1562 2790 1338 2790 
Q 1146 2790 1018 2697 
Q 890 2605 890 2477 
Q 890 2419 909 2348 
Q 928 2278 928 2208 
Q 928 2112 841 2029 
Q 755 1946 634 1946 
Q 525 1946 441 2029 
Q 358 2112 358 2240 
Q 358 2547 685 2752 
Q 986 2944 1421 2944 
Q 1939 2944 2176 2656 
Q 2291 2522 2323 2384 
Q 2355 2246 2355 1946 
L 2355 723 
Q 2355 301 2554 301 
Q 2682 301 2829 422 
z
M 1837 813 
L 1837 1715 
Q 1248 1510 1018 1293 
Q 800 1094 800 800 
Q 800 557 921 432 
Q 1043 307 1242 307 
Q 1453 307 1613 410 
Q 1747 506 1792 589 
Q 1837 672 1837 813 
z
" transform="scale(0.015625)"/>
       <path id="STIXGeneral-Regular-69" d="M 1152 4045 
Q 1152 3904 1056 3811 
Q 960 3718 819 3718 
Q 685 3718 592 3811 
Q 499 3904 499 4045 
Q 499 4179 595 4275 
Q 691 4371 826 4371 
Q 966 4371 1059 4275 
Q 1152 4179 1152 4045 
z
M 1619 0 
L 102 0 
L 102 96 
Q 435 115 521 211 
Q 608 307 608 666 
L 608 2118 
Q 608 2342 563 2432 
Q 518 2522 397 2522 
Q 243 2522 128 2490 
L 128 2592 
L 1120 2944 
L 1146 2918 
L 1146 672 
Q 1146 314 1226 218 
Q 1306 122 1619 96 
L 1619 0 
z
" transform="scale(0.015625)"/>
       <path id="STIXGeneral-Regular-6e" d="M 3104 0 
L 1773 0 
L 1779 96 
Q 2016 115 2096 233 
Q 2176 352 2176 672 
L 2176 1946 
Q 2176 2592 1709 2592 
Q 1549 2592 1408 2515 
Q 1267 2438 1050 2227 
L 1050 461 
Q 1050 269 1136 192 
Q 1222 115 1466 96 
L 1466 0 
L 115 0 
L 115 96 
Q 358 115 435 214 
Q 512 314 512 602 
L 512 2157 
Q 512 2394 467 2483 
Q 422 2573 288 2573 
Q 160 2573 102 2547 
L 102 2656 
Q 550 2784 979 2944 
L 1030 2925 
L 1030 2426 
L 1037 2426 
Q 1491 2944 1958 2944 
Q 2323 2944 2518 2688 
Q 2714 2432 2714 1958 
L 2714 544 
Q 2714 288 2790 205 
Q 2867 122 3104 96 
L 3104 0 
z
" transform="scale(0.015625)"/>
       <path id="STIXGeneral-Regular-67" d="M 3008 2483 
L 2477 2483 
Q 2598 2208 2598 1946 
Q 2598 1453 2265 1203 
Q 1933 954 1600 954 
Q 1530 954 1357 973 
L 1235 986 
Q 1107 947 979 812 
Q 851 678 851 582 
Q 851 435 1350 410 
L 2176 371 
Q 2528 358 2739 172 
Q 2950 -13 2950 -314 
Q 2950 -685 2566 -986 
Q 2035 -1395 1286 -1395 
Q 826 -1395 502 -1212 
Q 179 -1030 179 -774 
Q 179 -595 320 -419 
Q 461 -243 806 6 
Q 602 102 534 172 
Q 467 243 467 346 
Q 467 531 762 787 
Q 909 915 1037 1043 
Q 717 1203 579 1401 
Q 442 1600 442 1901 
Q 442 2336 752 2640 
Q 1062 2944 1510 2944 
Q 1766 2944 2022 2848 
L 2163 2797 
Q 2349 2733 2515 2733 
L 3008 2733 
L 3008 2483 
z
M 973 2163 
L 973 2144 
Q 973 1683 1155 1398 
Q 1338 1114 1632 1114 
Q 1850 1114 1978 1270 
Q 2106 1427 2106 1690 
Q 2106 2112 1914 2464 
Q 1754 2765 1446 2765 
Q 1222 2765 1097 2605 
Q 973 2445 973 2163 
z
M 2771 -410 
Q 2771 -230 2595 -163 
Q 2419 -96 1978 -96 
Q 1344 -96 941 -13 
Q 749 -243 688 -348 
Q 627 -454 627 -563 
Q 627 -774 880 -902 
Q 1133 -1030 1555 -1030 
Q 2099 -1030 2435 -860 
Q 2771 -691 2771 -410 
z
" transform="scale(0.015625)"/>
       <path id="STIXGeneral-Regular-20" transform="scale(0.015625)"/>
       <path id="STIXGeneral-Regular-45" d="M 3821 1082 
L 3526 0 
L 77 0 
L 77 122 
Q 442 147 538 252 
Q 634 358 634 730 
L 634 3520 
Q 634 3878 534 3987 
Q 435 4096 77 4115 
L 77 4237 
L 3469 4237 
L 3494 3322 
L 3334 3322 
Q 3264 3750 3085 3872 
Q 2906 3994 2349 3994 
L 1510 3994 
Q 1370 3994 1328 3952 
Q 1286 3910 1286 3763 
L 1286 2355 
L 2253 2355 
Q 2656 2355 2787 2470 
Q 2918 2586 2976 2970 
L 3123 2970 
L 3123 1472 
L 2976 1472 
Q 2918 1875 2790 1984 
Q 2662 2093 2253 2093 
L 1286 2093 
L 1286 538 
Q 1286 346 1420 291 
Q 1555 237 1933 237 
L 2163 237 
Q 2848 237 3136 403 
Q 3424 570 3642 1082 
L 3821 1082 
z
" transform="scale(0.015625)"/>
       <path id="STIXGeneral-Regular-76" d="M 3053 2880 
L 3053 2784 
Q 2906 2771 2835 2688 
Q 2765 2605 2637 2285 
L 1818 230 
Q 1690 -90 1638 -90 
Q 1587 -90 1523 77 
Q 1510 96 1497 141 
Q 1485 186 1472 211 
L 704 2048 
Q 499 2534 403 2652 
Q 307 2771 122 2784 
L 122 2880 
L 1376 2880 
L 1376 2784 
Q 1210 2771 1146 2732 
Q 1082 2694 1082 2611 
Q 1082 2509 1139 2368 
L 1792 730 
L 2426 2387 
Q 2464 2483 2464 2579 
Q 2464 2758 2163 2784 
L 2163 2880 
L 3053 2880 
z
" transform="scale(0.015625)"/>
       <path id="STIXGeneral-Regular-6f" d="M 3008 1478 
Q 3008 806 2608 371 
Q 2208 -64 1568 -64 
Q 979 -64 582 368 
Q 186 800 186 1459 
Q 186 2125 582 2534 
Q 979 2944 1626 2944 
Q 2221 2944 2614 2537 
Q 3008 2131 3008 1478 
z
M 2432 1306 
Q 2432 2035 2112 2445 
Q 1856 2765 1504 2765 
Q 1171 2765 966 2493 
Q 762 2221 762 1747 
Q 762 928 1101 435 
Q 1318 115 1677 115 
Q 2029 115 2230 432 
Q 2432 749 2432 1306 
z
" transform="scale(0.015625)"/>
       <path id="STIXGeneral-Regular-6d" d="M 4960 0 
L 3565 0 
L 3565 96 
Q 3834 122 3907 208 
Q 3981 294 3981 576 
L 3981 1894 
Q 3981 2278 3869 2444 
Q 3757 2611 3488 2611 
Q 3264 2611 3107 2521 
Q 2950 2432 2803 2221 
L 2803 608 
Q 2803 301 2896 201 
Q 2989 102 3264 96 
L 3264 0 
L 1830 0 
L 1830 96 
Q 2112 115 2189 188 
Q 2266 262 2266 550 
L 2266 1901 
Q 2266 2611 1850 2611 
Q 1670 2611 1468 2531 
Q 1267 2451 1171 2336 
Q 1088 2240 1088 2227 
L 1088 448 
Q 1088 243 1177 176 
Q 1267 109 1523 96 
L 1523 0 
L 102 0 
L 102 96 
Q 371 102 460 195 
Q 550 288 550 563 
L 550 2150 
Q 550 2387 499 2480 
Q 448 2573 326 2573 
Q 230 2573 122 2547 
L 122 2656 
Q 557 2778 1011 2944 
L 1062 2925 
L 1062 2451 
L 1075 2451 
Q 1363 2752 1584 2848 
Q 1805 2944 2054 2944 
Q 2560 2944 2733 2406 
Q 3232 2944 3776 2944 
Q 4518 2944 4518 1792 
L 4518 493 
Q 4518 282 4582 202 
Q 4646 122 4794 109 
L 4960 96 
L 4960 0 
z
" transform="scale(0.015625)"/>
       <path id="STIXGeneral-Regular-65" d="M 2611 1050 
L 2714 1005 
Q 2330 -64 1376 -64 
Q 813 -64 486 329 
Q 160 723 160 1389 
Q 160 2074 525 2509 
Q 890 2944 1485 2944 
Q 2061 2944 2374 2502 
Q 2560 2246 2592 1773 
L 621 1773 
Q 646 1370 700 1158 
Q 755 947 915 730 
Q 1184 378 1626 378 
Q 1939 378 2153 531 
Q 2368 685 2611 1050 
z
M 634 1978 
L 1939 1978 
Q 1882 2381 1750 2547 
Q 1619 2714 1312 2714 
Q 1043 2714 864 2525 
Q 685 2336 634 1978 
z
" transform="scale(0.015625)"/>
       <path id="STIXGeneral-Regular-74" d="M 1702 493 
L 1786 422 
Q 1478 -64 1011 -64 
Q 448 -64 448 749 
L 448 2675 
L 109 2675 
Q 83 2694 83 2720 
Q 83 2771 192 2842 
Q 435 2982 813 3526 
Q 826 3546 874 3606 
Q 922 3667 941 3706 
Q 986 3706 986 3622 
L 986 2880 
L 1632 2880 
L 1632 2675 
L 986 2675 
L 986 845 
Q 986 538 1062 403 
Q 1139 269 1318 269 
Q 1510 269 1702 493 
z
" transform="scale(0.015625)"/>
       <path id="STIXGeneral-Regular-53" d="M 3002 2963 
L 2842 2963 
Q 2733 3360 2579 3565 
Q 2189 4064 1651 4064 
Q 1357 4064 1181 3894 
Q 1005 3725 1005 3456 
Q 1005 3328 1069 3206 
Q 1133 3085 1206 2998 
Q 1280 2912 1465 2784 
Q 1651 2656 1766 2589 
Q 1882 2522 2150 2362 
Q 2669 2061 2905 1763 
Q 3142 1466 3142 1107 
Q 3142 576 2771 243 
Q 2400 -90 1837 -90 
Q 1421 -90 1082 58 
Q 915 128 781 128 
Q 704 128 653 70 
Q 602 13 602 -83 
L 461 -83 
L 275 1274 
L 416 1274 
Q 845 141 1734 141 
Q 2074 141 2285 342 
Q 2496 544 2496 858 
Q 2496 1158 2310 1363 
Q 2003 1696 1235 2106 
Q 454 2522 454 3206 
Q 454 3718 768 4022 
Q 1082 4326 1568 4326 
Q 1907 4326 2240 4186 
Q 2413 4109 2522 4109 
Q 2688 4109 2726 4326 
L 2861 4326 
L 3002 2963 
z
" transform="scale(0.015625)"/>
       <path id="STIXGeneral-Regular-70" d="M 1018 2931 
L 1018 2438 
Q 1421 2944 1939 2944 
Q 2406 2944 2707 2560 
Q 3008 2176 3008 1581 
Q 3008 883 2621 409 
Q 2234 -64 1664 -64 
Q 1466 -64 1328 -6 
Q 1190 51 1018 211 
L 1018 -794 
Q 1018 -1094 1120 -1180 
Q 1222 -1267 1581 -1274 
L 1581 -1389 
L 32 -1389 
L 32 -1280 
Q 314 -1254 397 -1171 
Q 480 -1088 480 -838 
L 480 2157 
Q 480 2381 429 2451 
Q 378 2522 218 2522 
Q 115 2522 58 2515 
L 58 2618 
Q 506 2752 979 2944 
L 1018 2931 
z
M 1018 2138 
L 1018 563 
Q 1018 422 1238 281 
Q 1459 141 1683 141 
Q 2029 141 2243 467 
Q 2458 794 2458 1325 
Q 2458 1888 2243 2224 
Q 2029 2560 1670 2560 
Q 1446 2560 1232 2419 
Q 1018 2278 1018 2138 
z
" transform="scale(0.015625)"/>
       <path id="STIXGeneral-Regular-73" d="M 998 1926 
L 1664 1523 
Q 1984 1331 2105 1164 
Q 2227 998 2227 736 
Q 2227 416 1961 176 
Q 1696 -64 1331 -64 
Q 1030 -64 864 -6 
Q 691 51 570 51 
Q 461 51 416 -26 
L 333 -26 
L 333 979 
L 435 979 
Q 538 512 730 294 
Q 922 77 1248 77 
Q 1485 77 1632 211 
Q 1779 346 1779 550 
Q 1779 845 1440 1030 
L 1094 1222 
Q 326 1651 326 2150 
Q 326 2522 566 2730 
Q 806 2938 1210 2938 
Q 1491 2938 1638 2867 
Q 1754 2816 1818 2816 
Q 1862 2816 1920 2880 
L 1990 2880 
L 2022 2010 
L 1926 2010 
Q 1818 2445 1654 2621 
Q 1491 2797 1203 2797 
Q 986 2797 854 2688 
Q 723 2579 723 2362 
Q 723 2253 796 2128 
Q 870 2003 998 1926 
z
" transform="scale(0.015625)"/>
      </defs>
      <use xlink:href="#STIXGeneral-Regular-54"/>
      <use xlink:href="#STIXGeneral-Regular-72" x="61.099991"/>
      <use xlink:href="#STIXGeneral-Regular-61" x="94.399979"/>
      <use xlink:href="#STIXGeneral-Regular-69" x="138.799973"/>
      <use xlink:href="#STIXGeneral-Regular-6e" x="166.59996"/>
      <use xlink:href="#STIXGeneral-Regular-69" x="216.599945"/>
      <use xlink:href="#STIXGeneral-Regular-6e" x="244.399933"/>
      <use xlink:href="#STIXGeneral-Regular-67" x="294.399918"/>
      <use xlink:href="#STIXGeneral-Regular-20" x="344.399902"/>
      <use xlink:href="#STIXGeneral-Regular-45" x="369.399887"/>
      <use xlink:href="#STIXGeneral-Regular-6e" x="430.499878"/>
      <use xlink:href="#STIXGeneral-Regular-76" x="480.499863"/>
      <use xlink:href="#STIXGeneral-Regular-69" x="530.499847"/>
      <use xlink:href="#STIXGeneral-Regular-72" x="558.299835"/>
      <use xlink:href="#STIXGeneral-Regular-6f" x="591.599823"/>
      <use xlink:href="#STIXGeneral-Regular-6e" x="641.599808"/>
      <use xlink:href="#STIXGeneral-Regular-6d" x="691.599792"/>
      <use xlink:href="#STIXGeneral-Regular-65" x="769.39978"/>
      <use xlink:href="#STIXGeneral-Regular-6e" x="813.799774"/>
      <use xlink:href="#STIXGeneral-Regular-74" x="863.799759"/>
      <use xlink:href="#STIXGeneral-Regular-20" x="891.599747"/>
      <use xlink:href="#STIXGeneral-Regular-53" x="916.599731"/>
      <use xlink:href="#STIXGeneral-Regular-74" x="972.199722"/>
      <use xlink:href="#STIXGeneral-Regular-65" x="999.99971"/>
      <use xlink:href="#STIXGeneral-Regular-70" x="1044.399704"/>
      <use xlink:href="#STIXGeneral-Regular-73" x="1094.399689"/>
     </g>
    </g>
    <g id="text_9">
     <!-- 1e8 -->
     <g transform="translate(477.306875 343.645562)scale(0.18 -0.18)">
      <defs>
       <path id="STIXGeneral-Regular-38" d="M 2848 992 
Q 2848 499 2505 204 
Q 2163 -90 1587 -90 
Q 1050 -90 704 204 
Q 358 499 358 954 
Q 358 1293 524 1533 
Q 691 1773 1190 2125 
Q 710 2522 553 2765 
Q 397 3008 397 3328 
Q 397 3782 745 4054 
Q 1094 4326 1638 4326 
Q 2106 4326 2410 4060 
Q 2714 3795 2714 3411 
Q 2714 3059 2531 2848 
Q 2349 2637 1856 2374 
Q 2432 1990 2640 1689 
Q 2848 1389 2848 992 
z
M 2272 3411 
Q 2272 3744 2086 3945 
Q 1901 4147 1574 4147 
Q 1248 4147 1059 3977 
Q 870 3808 870 3513 
Q 870 3219 1059 2979 
Q 1248 2739 1670 2490 
Q 1997 2682 2134 2896 
Q 2272 3110 2272 3411 
z
M 1734 1741 
L 1357 1997 
Q 1075 1766 960 1545 
Q 845 1325 845 1011 
Q 845 576 1065 333 
Q 1286 90 1658 90 
Q 1971 90 2166 285 
Q 2362 480 2362 794 
Q 2362 1082 2214 1299 
Q 2067 1517 1734 1741 
z
" transform="scale(0.015625)"/>
      </defs>
      <use xlink:href="#STIXGeneral-Regular-31"/>
      <use xlink:href="#STIXGeneral-Regular-65" x="49.999985"/>
      <use xlink:href="#STIXGeneral-Regular-38" x="94.399979"/>
     </g>
    </g>
   </g>
   <g id="matplotlib.axis_2">
    <g id="ytick_1">
     <g id="line2d_15">
      <path d="M 56.9 292.552125 
L 503.3 292.552125 
" clip-path="url(#p953510e76e)" style="fill: none; stroke: #b0b0b0; stroke-width: 0.8; stroke-linecap: square"/>
     </g>
     <g id="line2d_16">
      <defs>
       <path id="m20fe139dff" d="M 0 0 
L -3.5 0 
" style="stroke: #000000; stroke-width: 0.8"/>
      </defs>
      <g>
       <use xlink:href="#m20fe139dff" x="56.9" y="292.552125" style="stroke: #000000; stroke-width: 0.8"/>
      </g>
     </g>
     <g id="text_10">
      <!-- 0.0 -->
      <g transform="translate(27.4 298.698844)scale(0.18 -0.18)">
       <use xlink:href="#STIXGeneral-Regular-30"/>
       <use xlink:href="#STIXGeneral-Regular-2e" x="49.999985"/>
       <use xlink:href="#STIXGeneral-Regular-30" x="74.999969"/>
      </g>
     </g>
    </g>
    <g id="ytick_2">
     <g id="line2d_17">
      <path d="M 56.9 239.668327 
L 503.3 239.668327 
" clip-path="url(#p953510e76e)" style="fill: none; stroke: #b0b0b0; stroke-width: 0.8; stroke-linecap: square"/>
     </g>
     <g id="line2d_18">
      <g>
       <use xlink:href="#m20fe139dff" x="56.9" y="239.668327" style="stroke: #000000; stroke-width: 0.8"/>
      </g>
     </g>
     <g id="text_11">
      <!-- 0.2 -->
      <g transform="translate(27.4 245.815046)scale(0.18 -0.18)">
       <use xlink:href="#STIXGeneral-Regular-30"/>
       <use xlink:href="#STIXGeneral-Regular-2e" x="49.999985"/>
       <use xlink:href="#STIXGeneral-Regular-32" x="74.999969"/>
      </g>
     </g>
    </g>
    <g id="ytick_3">
     <g id="line2d_19">
      <path d="M 56.9 186.78453 
L 503.3 186.78453 
" clip-path="url(#p953510e76e)" style="fill: none; stroke: #b0b0b0; stroke-width: 0.8; stroke-linecap: square"/>
     </g>
     <g id="line2d_20">
      <g>
       <use xlink:href="#m20fe139dff" x="56.9" y="186.78453" style="stroke: #000000; stroke-width: 0.8"/>
      </g>
     </g>
     <g id="text_12">
      <!-- 0.4 -->
      <g transform="translate(27.4 192.931249)scale(0.18 -0.18)">
       <defs>
        <path id="STIXGeneral-Regular-34" d="M 3027 1069 
L 2368 1069 
L 2368 0 
L 1869 0 
L 1869 1069 
L 77 1069 
L 77 1478 
L 2086 4326 
L 2368 4326 
L 2368 1478 
L 3027 1478 
L 3027 1069 
z
M 1869 1478 
L 1869 3674 
L 333 1478 
L 1869 1478 
z
" transform="scale(0.015625)"/>
       </defs>
       <use xlink:href="#STIXGeneral-Regular-30"/>
       <use xlink:href="#STIXGeneral-Regular-2e" x="49.999985"/>
       <use xlink:href="#STIXGeneral-Regular-34" x="74.999969"/>
      </g>
     </g>
    </g>
    <g id="ytick_4">
     <g id="line2d_21">
      <path d="M 56.9 133.900732 
L 503.3 133.900732 
" clip-path="url(#p953510e76e)" style="fill: none; stroke: #b0b0b0; stroke-width: 0.8; stroke-linecap: square"/>
     </g>
     <g id="line2d_22">
      <g>
       <use xlink:href="#m20fe139dff" x="56.9" y="133.900732" style="stroke: #000000; stroke-width: 0.8"/>
      </g>
     </g>
     <g id="text_13">
      <!-- 0.6 -->
      <g transform="translate(27.4 140.047451)scale(0.18 -0.18)">
       <defs>
        <path id="STIXGeneral-Regular-36" d="M 2854 4378 
L 2867 4275 
Q 2112 4154 1606 3664 
Q 1101 3174 973 2451 
Q 1344 2739 1786 2739 
Q 2349 2739 2672 2380 
Q 2995 2022 2995 1402 
Q 2995 774 2669 378 
Q 2291 -90 1651 -90 
Q 870 -90 518 557 
Q 218 1107 218 1786 
Q 218 2835 915 3552 
Q 1312 3962 1731 4131 
Q 2150 4301 2854 4378 
z
M 2419 1203 
Q 2419 2445 1555 2445 
Q 1235 2445 1024 2275 
Q 813 2106 813 1702 
Q 813 954 1046 522 
Q 1280 90 1722 90 
Q 2061 90 2240 394 
Q 2419 698 2419 1203 
z
" transform="scale(0.015625)"/>
       </defs>
       <use xlink:href="#STIXGeneral-Regular-30"/>
       <use xlink:href="#STIXGeneral-Regular-2e" x="49.999985"/>
       <use xlink:href="#STIXGeneral-Regular-36" x="74.999969"/>
      </g>
     </g>
    </g>
    <g id="ytick_5">
     <g id="line2d_23">
      <path d="M 56.9 81.016935 
L 503.3 81.016935 
" clip-path="url(#p953510e76e)" style="fill: none; stroke: #b0b0b0; stroke-width: 0.8; stroke-linecap: square"/>
     </g>
     <g id="line2d_24">
      <g>
       <use xlink:href="#m20fe139dff" x="56.9" y="81.016935" style="stroke: #000000; stroke-width: 0.8"/>
      </g>
     </g>
     <g id="text_14">
      <!-- 0.8 -->
      <g transform="translate(27.4 87.163653)scale(0.18 -0.18)">
       <use xlink:href="#STIXGeneral-Regular-30"/>
       <use xlink:href="#STIXGeneral-Regular-2e" x="49.999985"/>
       <use xlink:href="#STIXGeneral-Regular-38" x="74.999969"/>
      </g>
     </g>
    </g>
    <g id="ytick_6">
     <g id="line2d_25">
      <path d="M 56.9 28.133137 
L 503.3 28.133137 
" clip-path="url(#p953510e76e)" style="fill: none; stroke: #b0b0b0; stroke-width: 0.8; stroke-linecap: square"/>
     </g>
     <g id="line2d_26">
      <g>
       <use xlink:href="#m20fe139dff" x="56.9" y="28.133137" style="stroke: #000000; stroke-width: 0.8"/>
      </g>
     </g>
     <g id="text_15">
      <!-- 1.0 -->
      <g transform="translate(27.4 34.279856)scale(0.18 -0.18)">
       <use xlink:href="#STIXGeneral-Regular-31"/>
       <use xlink:href="#STIXGeneral-Regular-2e" x="49.999985"/>
       <use xlink:href="#STIXGeneral-Regular-30" x="74.999969"/>
      </g>
     </g>
    </g>
    <g id="text_16">
     <!-- Success Rate -->
     <g transform="translate(19.493438 213.7965)rotate(-90)scale(0.18 -0.18)">
      <defs>
       <path id="STIXGeneral-Regular-75" d="M 3072 320 
L 3072 230 
Q 2573 96 2195 -58 
L 2163 -38 
L 2163 486 
L 2150 486 
Q 1747 -64 1235 -64 
Q 870 -64 662 160 
Q 454 384 454 755 
L 454 2362 
Q 454 2598 371 2688 
Q 288 2778 58 2790 
L 58 2880 
L 992 2880 
L 992 813 
Q 992 595 1123 451 
Q 1254 307 1446 307 
Q 1760 307 1984 506 
Q 2067 582 2099 649 
Q 2131 717 2131 877 
L 2131 2355 
Q 2131 2605 2041 2678 
Q 1952 2752 1658 2771 
L 1658 2880 
L 2669 2880 
L 2669 685 
Q 2669 461 2742 390 
Q 2816 320 3034 320 
L 3072 320 
z
" transform="scale(0.015625)"/>
       <path id="STIXGeneral-Regular-63" d="M 2547 998 
L 2637 941 
Q 2362 403 2112 205 
Q 1786 -64 1376 -64 
Q 845 -64 502 336 
Q 160 736 160 1357 
Q 160 2170 698 2618 
Q 1094 2944 1562 2944 
Q 1965 2944 2256 2749 
Q 2547 2554 2547 2285 
Q 2547 2176 2457 2096 
Q 2368 2016 2246 2016 
Q 2022 2016 1939 2310 
L 1901 2451 
Q 1850 2630 1773 2694 
Q 1696 2758 1523 2758 
Q 1133 2758 893 2451 
Q 653 2144 653 1645 
Q 653 1094 928 745 
Q 1203 397 1645 397 
Q 1920 397 2118 528 
Q 2317 659 2547 998 
z
" transform="scale(0.015625)"/>
       <path id="STIXGeneral-Regular-52" d="M 4224 0 
L 3187 0 
L 1664 1971 
L 1306 1958 
L 1306 717 
Q 1306 352 1405 249 
Q 1504 147 1875 122 
L 1875 0 
L 109 0 
L 109 122 
Q 474 154 563 262 
Q 653 371 653 794 
L 653 3526 
Q 653 3885 563 3987 
Q 474 4090 109 4115 
L 109 4237 
L 1850 4237 
Q 2726 4237 3187 3859 
Q 3501 3603 3501 3091 
Q 3501 2221 2342 2042 
L 3622 422 
Q 3757 256 3878 198 
Q 4000 141 4224 122 
L 4224 0 
z
M 1306 3731 
L 1306 2195 
Q 1766 2202 1990 2246 
Q 2214 2291 2438 2413 
Q 2803 2618 2803 3142 
Q 2803 4000 1632 4000 
Q 1459 4000 1382 3945 
Q 1306 3891 1306 3731 
z
" transform="scale(0.015625)"/>
      </defs>
      <use xlink:href="#STIXGeneral-Regular-53"/>
      <use xlink:href="#STIXGeneral-Regular-75" x="55.599991"/>
      <use xlink:href="#STIXGeneral-Regular-63" x="105.599976"/>
      <use xlink:href="#STIXGeneral-Regular-63" x="149.999969"/>
      <use xlink:href="#STIXGeneral-Regular-65" x="194.399963"/>
      <use xlink:href="#STIXGeneral-Regular-73" x="238.799957"/>
      <use xlink:href="#STIXGeneral-Regular-73" x="277.699951"/>
      <use xlink:href="#STIXGeneral-Regular-20" x="316.599945"/>
      <use xlink:href="#STIXGeneral-Regular-52" x="341.59993"/>
      <use xlink:href="#STIXGeneral-Regular-61" x="408.299927"/>
      <use xlink:href="#STIXGeneral-Regular-74" x="452.699921"/>
      <use xlink:href="#STIXGeneral-Regular-65" x="480.499908"/>
     </g>
    </g>
   </g>
   <g id="line2d_27">
    <path d="M 77.190909 292.552125 
L 143.111858 292.552125 
L 143.601976 289.167562 
L 143.847036 290.521387 
L 144.092095 289.21833 
L 144.582213 291.351959 
L 145.072332 292.120065 
L 145.317391 290.177537 
L 145.80751 291.697273 
L 146.052569 289.923862 
L 146.297628 290.975167 
L 146.542688 289.490599 
L 147.032806 291.449975 
L 147.522925 292.155351 
L 147.767984 288.083357 
L 148.258103 290.943369 
L 148.748221 291.972973 
L 149.23834 292.34363 
L 149.483399 292.427028 
L 149.728458 290.361715 
L 149.973518 287.007175 
L 150.218577 289.225155 
L 150.463636 284.209888 
L 150.708696 285.431431 
L 150.953755 277.702949 
L 151.443874 273.66817 
L 151.688933 266.414288 
L 151.933992 264.177312 
L 152.179051 252.258366 
L 152.66917 259.854346 
L 153.159289 267.242673 
L 153.404348 266.789694 
L 153.649407 268.633259 
L 153.894466 267.624046 
L 154.139526 273.364574 
L 154.384585 272.578187 
L 154.874704 256.16965 
L 155.119763 258.030529 
L 155.364822 261.262408 
L 155.609881 252.624775 
L 156.1 245.601859 
L 156.345059 245.343798 
L 157.080237 227.948276 
L 157.325296 232.636297 
L 157.570356 231.218406 
L 157.815415 234.598374 
L 158.060474 234.511004 
L 158.305534 240.804637 
L 158.795652 216.808526 
L 159.285771 228.054236 
L 159.53083 228.469169 
L 159.775889 230.833481 
L 160.020949 225.906012 
L 160.511067 214.406517 
L 160.756126 211.81913 
L 161.246245 221.60428 
L 161.981423 182.798082 
L 162.471542 188.733973 
L 162.716601 198.530954 
L 162.96166 198.063086 
L 163.206719 193.551663 
L 163.451779 195.075512 
L 163.696838 179.06701 
L 163.941897 188.500073 
L 164.186957 192.044558 
L 164.432016 192.055899 
L 164.677075 183.601295 
L 165.167194 192.407689 
L 165.412253 190.158425 
L 165.902372 191.383696 
L 166.147431 189.544029 
L 166.39249 192.670931 
L 166.637549 186.085667 
L 166.882609 167.327047 
L 167.127668 160.302574 
L 167.372727 164.5493 
L 167.617787 171.328041 
L 167.862846 143.665003 
L 168.107905 160.912813 
L 168.352964 169.146149 
L 168.598024 167.740095 
L 168.843083 173.242518 
L 169.088142 182.890025 
L 169.578261 158.306003 
L 169.82332 161.236008 
L 170.068379 171.455416 
L 170.558498 177.881488 
L 170.803557 166.635239 
L 171.048617 166.233549 
L 171.538735 140.040633 
L 171.783794 139.700026 
L 172.028854 135.264956 
L 172.273913 138.94997 
L 172.518972 136.930272 
L 172.764032 139.94916 
L 173.009091 139.645143 
L 173.25415 141.578082 
L 173.499209 130.045734 
L 173.744269 129.472381 
L 174.234387 125.537402 
L 174.479447 124.652032 
L 174.724506 126.23616 
L 174.969565 120.84058 
L 175.214625 119.718583 
L 175.704743 125.410595 
L 175.949802 118.229891 
L 176.194862 122.382875 
L 176.439921 105.836498 
L 176.68498 108.600783 
L 176.93004 108.144005 
L 177.665217 140.18325 
L 177.910277 131.324184 
L 178.155336 132.354801 
L 178.400395 124.511765 
L 178.645455 128.267349 
L 178.890514 126.29 
L 179.135573 133.564997 
L 179.380632 121.007176 
L 179.625692 128.279952 
L 179.870751 130.528262 
L 180.11581 121.300492 
L 180.36087 117.87918 
L 180.605929 111.595686 
L 180.850988 118.402352 
L 181.096047 109.79424 
L 181.341107 108.860079 
L 181.586166 101.953526 
L 182.076285 126.63044 
L 182.321344 116.846442 
L 182.566403 125.783512 
L 182.811462 114.222936 
L 183.056522 124.209408 
L 183.54664 130.411851 
L 184.036759 123.760255 
L 184.281818 127.816444 
L 184.526877 117.558045 
L 184.771937 128.325823 
L 185.016996 119.979029 
L 185.262055 117.086302 
L 185.507115 106.88926 
L 185.997233 117.407478 
L 186.242292 117.658721 
L 186.487352 115.694117 
L 186.732411 125.092117 
L 187.22253 108.306898 
L 187.467589 114.313729 
L 187.712648 100.99501 
L 187.957708 105.695891 
L 188.202767 100.055013 
L 188.692885 110.29337 
L 188.937945 107.0442 
L 189.183004 98.748649 
L 189.428063 100.117368 
L 189.673123 105.169305 
L 189.918182 101.854412 
L 190.163241 104.096182 
L 190.898419 137.701254 
L 191.143478 121.373581 
L 191.388538 120.038383 
L 191.633597 115.006564 
L 191.878656 103.526067 
L 192.123715 102.983819 
L 192.368775 96.31242 
L 192.613834 105.001687 
L 192.858893 99.638491 
L 193.103953 102.766629 
L 193.349012 102.528156 
L 193.594071 106.615778 
L 193.83913 104.837645 
L 194.08419 97.424716 
L 194.329249 95.092308 
L 194.574308 95.808214 
L 194.819368 83.545645 
L 195.309486 110.696053 
L 195.554545 107.28581 
L 195.799605 107.355021 
L 196.044664 113.742603 
L 196.289723 106.99839 
L 196.534783 124.105381 
L 196.779842 113.216057 
L 197.26996 112.915996 
L 197.51502 106.502426 
L 197.760079 104.769634 
L 198.005138 116.422071 
L 198.495257 114.070161 
L 198.985375 99.685224 
L 199.230435 102.794669 
L 199.475494 108.891036 
L 199.720553 106.2028 
L 199.965613 113.051271 
L 200.210672 125.621759 
L 200.455731 122.58729 
L 200.700791 141.920129 
L 200.94585 121.789556 
L 201.190909 126.634024 
L 201.435968 118.963949 
L 201.681028 97.439086 
L 201.926087 107.793042 
L 202.171146 92.851898 
L 202.661265 77.662254 
L 202.906324 81.119481 
L 203.396443 114.476414 
L 203.641502 105.323327 
L 204.131621 103.305483 
L 204.37668 92.274713 
L 204.621739 87.7716 
L 204.866798 93.531139 
L 205.111858 113.90968 
L 205.601976 122.05018 
L 205.847036 116.213642 
L 206.092095 100.019608 
L 206.582213 112.39598 
L 207.072332 96.967169 
L 207.562451 107.066396 
L 208.052569 107.317558 
L 208.297628 124.296881 
L 208.787747 114.789743 
L 209.032806 116.08808 
L 209.277866 106.290327 
L 209.767984 98.153693 
L 210.013043 101.875751 
L 210.258103 93.532223 
L 210.503162 101.218218 
L 210.748221 97.36841 
L 211.23834 100.441713 
L 211.483399 88.441101 
L 211.728458 93.932839 
L 211.973518 90.881832 
L 212.218577 93.281928 
L 212.463636 84.14523 
L 212.708696 82.89391 
L 212.953755 73.681713 
L 213.198814 89.307912 
L 213.443874 90.222226 
L 213.688933 97.11687 
L 213.933992 94.907601 
L 214.179051 97.812739 
L 214.424111 95.325122 
L 214.66917 98.063252 
L 214.914229 82.783318 
L 215.159289 84.192119 
L 215.649407 99.928955 
L 215.894466 88.133446 
L 216.139526 87.402196 
L 216.629644 90.084756 
L 216.874704 88.572983 
L 217.119763 91.896618 
L 217.364822 98.121506 
L 217.609881 89.164326 
L 217.854941 96.48213 
L 218.1 107.218869 
L 218.345059 109.430206 
L 218.590119 108.641658 
L 218.835178 101.822474 
L 219.080237 104.077019 
L 219.325296 92.737634 
L 219.570356 92.280059 
L 220.060474 71.956482 
L 220.550593 74.37061 
L 220.795652 81.259845 
L 221.040711 93.854791 
L 221.285771 86.604297 
L 221.53083 75.907945 
L 221.775889 80.066896 
L 222.020949 80.44691 
L 222.266008 91.251681 
L 222.511067 85.042431 
L 222.756126 83.432231 
L 223.001186 86.696817 
L 223.246245 75.963457 
L 223.491304 84.330903 
L 223.736364 74.543908 
L 224.716601 100.38387 
L 224.96166 96.867801 
L 225.451779 71.069645 
L 225.696838 62.356448 
L 226.186957 75.145304 
L 226.432016 66.917199 
L 226.677075 78.903148 
L 226.922134 75.517962 
L 227.167194 75.6022 
L 227.412253 79.883449 
L 227.657312 76.106142 
L 228.147431 96.171867 
L 228.39249 96.455948 
L 228.637549 92.395698 
L 229.127668 91.882417 
L 229.372727 100.228335 
L 229.617787 98.889829 
L 229.862846 95.971376 
L 230.107905 96.335654 
L 230.352964 94.438871 
L 231.088142 80.531511 
L 231.578261 84.22675 
L 231.82332 72.366067 
L 232.068379 80.057119 
L 232.558498 65.0178 
L 232.803557 60.840697 
L 233.048617 62.565135 
L 233.538735 67.605165 
L 234.028854 59.265886 
L 234.273913 57.389549 
L 234.518972 62.609802 
L 234.764032 57.280542 
L 235.25415 55.549022 
L 235.744269 61.694795 
L 235.989328 60.962243 
L 236.479447 74.64339 
L 236.724506 70.846751 
L 236.969565 72.799473 
L 237.214625 71.855757 
L 237.459684 64.943471 
L 237.704743 71.372855 
L 237.949802 68.88443 
L 238.194862 56.814619 
L 238.439921 62.264844 
L 238.68498 52.842867 
L 238.93004 53.535737 
L 239.175099 64.528215 
L 239.420158 66.893002 
L 239.665217 57.735112 
L 239.910277 56.471084 
L 240.155336 66.289423 
L 240.400395 57.372965 
L 240.645455 58.369146 
L 240.890514 65.31291 
L 241.135573 63.133113 
L 241.380632 57.594528 
L 241.625692 64.84814 
L 241.870751 58.623545 
L 242.11581 65.465549 
L 242.36087 58.99399 
L 242.605929 59.341761 
L 242.850988 63.781129 
L 243.096047 64.329394 
L 243.341107 62.543003 
L 243.586166 65.701875 
L 243.831225 59.135786 
L 244.076285 63.657544 
L 244.321344 64.255243 
L 244.566403 60.383163 
L 245.056522 68.935005 
L 245.301581 52.614258 
L 245.54664 57.629271 
L 245.7917 56.40758 
L 246.036759 57.789915 
L 246.281818 62.850022 
L 246.526877 59.54003 
L 246.771937 70.246147 
L 247.016996 72.439111 
L 247.507115 55.506187 
L 247.752174 57.249079 
L 248.487352 67.675512 
L 248.732411 77.242786 
L 248.97747 68.175688 
L 249.22253 66.96613 
L 249.467589 72.58645 
L 249.957708 67.828269 
L 250.202767 66.757678 
L 250.447826 78.807435 
L 250.692885 75.460534 
L 251.428063 57.732478 
L 251.673123 60.700204 
L 252.163241 72.4337 
L 252.4083 58.944181 
L 252.65336 55.081169 
L 252.898419 59.109418 
L 253.143478 55.180312 
L 253.388538 57.053554 
L 253.633597 62.408205 
L 254.123715 60.779541 
L 254.368775 54.067035 
L 254.613834 52.154882 
L 254.858893 48.89224 
L 255.103953 51.165361 
L 255.349012 50.413877 
L 255.594071 45.732287 
L 255.83913 49.269389 
L 256.329249 49.280437 
L 256.574308 55.628979 
L 257.064427 58.339019 
L 257.309486 58.948778 
L 257.554545 61.429984 
L 257.799605 54.457301 
L 258.044664 58.735097 
L 258.779842 47.942956 
L 259.024901 50.595791 
L 259.26996 50.072135 
L 259.51502 51.873298 
L 260.005138 46.833284 
L 260.495257 61.941699 
L 260.985375 53.842469 
L 261.475494 54.311316 
L 261.720553 48.07075 
L 261.965613 46.441761 
L 262.210672 49.695073 
L 262.455731 49.531705 
L 262.94585 52.759441 
L 263.190909 47.139625 
L 263.435968 47.998436 
L 263.681028 44.283022 
L 263.926087 48.39983 
L 264.416206 48.967396 
L 264.661265 55.441154 
L 264.906324 52.979353 
L 265.151383 49.386923 
L 265.396443 43.000758 
L 265.641502 47.630472 
L 266.131621 45.305867 
L 266.37668 40.552125 
L 267.111858 50.784564 
L 267.847036 55.871649 
L 268.092095 53.23765 
L 268.337154 53.772607 
L 269.072332 48.140268 
L 269.317391 54.944878 
L 269.562451 48.450887 
L 270.052569 52.370346 
L 270.787747 43.691294 
L 271.032806 48.044793 
L 271.277866 44.310837 
L 271.522925 44.185813 
L 271.767984 46.226148 
L 272.258103 57.06935 
L 272.503162 51.840921 
L 272.748221 52.934569 
L 273.23834 50.599902 
L 273.483399 54.305308 
L 273.728458 52.297845 
L 274.218577 63.908941 
L 274.463636 60.175381 
L 274.708696 60.050596 
L 274.953755 68.43713 
L 275.198814 67.122995 
L 275.443874 64.219164 
L 275.688933 58.246159 
L 275.933992 56.777712 
L 276.179051 62.2427 
L 276.424111 57.060281 
L 276.914229 65.623418 
L 277.159289 59.088711 
L 277.404348 63.6293 
L 277.649407 57.89224 
L 277.894466 65.026767 
L 278.139526 60.846077 
L 278.384585 62.568363 
L 278.629644 67.83244 
L 278.874704 66.760181 
L 279.364822 60.230902 
L 279.609881 62.199258 
L 279.854941 52.803516 
L 280.1 49.28142 
L 280.345059 55.629569 
L 280.590119 55.207758 
L 280.835178 48.608616 
L 281.080237 48.87983 
L 281.570356 58.024676 
L 282.060474 50.31699 
L 282.305534 52.020211 
L 282.795652 63.808993 
L 283.040711 66.461468 
L 283.53083 58.854156 
L 283.775889 55.027154 
L 284.020949 56.961659 
L 284.266008 56.007012 
L 284.756126 49.590632 
L 285.001186 51.584396 
L 285.246245 50.665298 
L 285.491304 60.690602 
L 285.736364 54.013672 
L 285.981423 54.23822 
L 286.226482 50.142243 
L 286.471542 49.800006 
L 286.716601 47.479315 
L 286.96166 48.202249 
L 287.206719 61.328122 
L 287.451779 60.74224 
L 287.941897 50.026104 
L 288.186957 47.614973 
L 288.677075 52.069417 
L 288.922134 61.533073 
L 289.167194 56.634505 
L 289.412253 60.041419 
L 289.657312 55.739512 
L 290.147431 54.994251 
L 290.39249 54.826568 
L 290.882609 51.281021 
L 291.127668 56.82933 
L 291.372727 55.927615 
L 291.617787 57.501936 
L 291.862846 60.561878 
L 292.107905 56.051787 
L 292.598024 65.26036 
L 292.843083 65.216933 
L 293.088142 60.960176 
L 293.333202 60.521473 
L 293.578261 58.1429 
L 293.82332 60.946457 
L 294.068379 58.397891 
L 294.313439 52.638045 
L 294.558498 57.643544 
L 295.048617 52.295133 
L 295.293676 51.09174 
L 295.538735 56.715761 
L 295.783794 55.859473 
L 296.028854 57.461051 
L 296.273913 62.652703 
L 296.518972 55.190933 
L 297.009091 54.796763 
L 297.25415 54.708075 
L 297.499209 50.424156 
L 298.234387 55.793801 
L 298.479447 51.075591 
L 298.724506 52.475372 
L 298.969565 46.969184 
L 299.459684 45.067803 
L 299.949802 47.767866 
L 300.439921 57.624369 
L 300.68498 56.404638 
L 300.93004 57.78815 
L 301.175099 60.733606 
L 301.420158 56.154825 
L 301.665217 61.868968 
L 301.910277 61.066747 
L 302.155336 62.700765 
L 302.400395 57.33512 
L 302.645455 58.346439 
L 303.135573 52.548175 
L 303.380632 53.358922 
L 303.625692 55.96072 
L 303.870751 63.867855 
L 304.11581 64.381429 
L 304.605929 61.489901 
L 304.850988 56.608602 
L 305.341107 55.307124 
L 305.586166 52.898935 
L 305.831225 53.569378 
L 306.566403 61.888464 
L 306.811462 61.078445 
L 307.056522 56.361728 
L 307.301581 64.108459 
L 307.7917 61.391632 
L 308.036759 62.895696 
L 308.281818 68.02884 
L 308.526877 77.454783 
L 308.771937 68.302887 
L 309.016996 73.388505 
L 309.262055 70.093819 
L 309.752174 77.084611 
L 310.242292 82.985866 
L 310.732411 67.341359 
L 310.97747 68.580888 
L 311.22253 67.209249 
L 311.467589 64.270916 
L 311.712648 64.623266 
L 311.957708 56.373271 
L 312.202767 55.653979 
L 312.692885 58.348019 
L 313.183004 59.317874 
L 313.673123 59.667021 
L 313.918182 63.976286 
L 314.4083 55.844134 
L 314.65336 55.336497 
L 314.898419 50.801209 
L 315.143478 52.310742 
L 315.633597 59.259804 
L 315.878656 53.155193 
L 316.123715 51.607777 
L 316.613834 53.506827 
L 317.103953 60.959604 
L 317.349012 56.290423 
L 317.594071 59.834971 
L 317.83913 57.730999 
L 318.08419 64.930022 
L 318.329249 60.78803 
L 318.574308 62.533535 
L 319.064427 67.593789 
L 319.309486 62.38629 
L 319.554545 61.377141 
L 319.799605 56.540945 
L 320.289723 55.282767 
L 320.779842 58.214383 
L 321.024901 58.873997 
L 321.51502 71.776265 
L 322.005138 65.421252 
L 322.250198 54.736712 
L 322.740316 64.786933 
L 322.985375 69.163582 
L 323.230435 61.21281 
L 323.475494 73.365165 
L 323.720553 65.849116 
L 323.965613 63.454836 
L 324.210672 57.787562 
L 324.700791 62.500669 
L 324.94585 69.907174 
L 325.435968 61.36382 
L 325.681028 69.225064 
L 325.926087 65.480405 
L 326.171146 67.464316 
L 326.416206 72.885362 
L 326.661265 63.445878 
L 326.906324 70.474299 
L 327.151383 64.114597 
L 327.396443 66.644831 
L 327.886561 60.189376 
L 328.131621 66.405048 
L 328.37668 63.788396 
L 328.621739 64.333754 
L 328.866798 60.430269 
L 329.111858 60.203528 
L 329.356917 62.182834 
L 329.601976 54.909011 
L 330.092095 58.079831 
L 330.337154 58.793265 
L 330.582213 63.452032 
L 330.827273 64.131936 
L 331.072332 58.193822 
L 331.317391 65.207716 
L 331.80751 58.402805 
L 332.052569 67.448455 
L 332.542688 65.978591 
L 333.032806 62.064879 
L 333.277866 61.184294 
L 333.522925 58.540594 
L 333.767984 61.185073 
L 334.013043 54.310354 
L 334.258103 54.41623 
L 334.503162 50.249049 
L 334.748221 49.86409 
L 334.993281 47.517765 
L 335.23834 50.340676 
L 335.483399 58.380478 
L 335.728458 54.742948 
L 335.973518 54.675785 
L 336.218577 56.750838 
L 336.463636 55.88052 
L 336.708696 51.127623 
L 337.198814 53.333971 
L 337.443874 51.715043 
L 338.179051 60.218718 
L 338.424111 55.845892 
L 338.66917 59.568252 
L 338.914229 57.570968 
L 339.404348 69.191825 
L 339.649407 73.921867 
L 339.894466 66.183137 
L 340.139526 67.885955 
L 340.384585 66.79229 
L 340.629644 72.482146 
L 340.874704 71.665361 
L 341.609881 63.174163 
L 342.1 54.286156 
L 342.345059 56.51706 
L 342.835178 55.274169 
L 343.080237 63.455924 
L 343.570356 54.38759 
L 343.815415 62.923977 
L 344.060474 61.699753 
L 344.305534 65.195924 
L 344.550593 65.178271 
L 344.795652 63.05233 
L 345.040711 59.661415 
L 345.285771 66.088271 
L 345.775889 58.719805 
L 346.020949 59.17725 
L 346.266008 57.336367 
L 346.511067 60.462537 
L 346.756126 58.107539 
L 347.001186 60.92524 
L 347.246245 66.846567 
L 347.736364 62.377351 
L 347.981423 63.487127 
L 348.226482 62.037643 
L 348.716601 57.261578 
L 349.206719 55.542195 
L 349.451779 53.039978 
L 349.941897 54.022419 
L 350.186957 54.243468 
L 350.432016 52.260742 
L 350.922134 60.511014 
L 351.167194 60.251975 
L 351.412253 57.981202 
L 351.657312 54.503382 
L 351.902372 54.532046 
L 352.147431 58.779944 
L 352.39249 57.097983 
L 352.637549 53.973451 
L 352.882609 54.214087 
L 353.127668 52.243113 
L 353.372727 53.175885 
L 353.617787 55.850898 
L 353.862846 55.340555 
L 354.107905 59.26505 
L 354.352964 59.504397 
L 354.598024 57.532655 
L 354.843083 58.46496 
L 355.088142 67.485748 
L 355.333202 68.667522 
L 355.82332 59.648335 
L 356.068379 57.619018 
L 356.558498 59.055433 
L 356.803557 59.378627 
L 357.048617 55.341837 
L 357.538735 58.235648 
L 357.783794 65.232812 
L 358.028854 63.085054 
L 358.273913 57.565693 
L 358.518972 60.600132 
L 358.764032 58.190096 
L 359.25415 59.261021 
L 359.499209 55.271274 
L 359.744269 54.992781 
L 360.234387 61.494548 
L 360.724506 63.835184 
L 360.969565 64.361827 
L 361.214625 62.562463 
L 361.949802 54.184969 
L 362.194862 56.456348 
L 362.439921 62.049882 
L 362.68498 59.059946 
L 362.93004 61.496684 
L 363.420158 77.374212 
L 363.665217 74.6006 
L 363.910277 75.051783 
L 364.155336 81.668548 
L 364.645455 77.866954 
L 365.380632 61.129147 
L 365.625692 66.968911 
L 365.870751 66.242063 
L 366.36087 74.428769 
L 366.605929 74.948684 
L 366.850988 73.145283 
L 367.096047 63.601831 
L 367.341107 64.221815 
L 367.831225 58.04788 
L 368.076285 60.889445 
L 368.321344 66.82509 
L 368.811462 60.254269 
L 369.301581 70.157813 
L 369.54664 74.501461 
L 369.7917 68.646243 
L 370.036759 73.594518 
L 370.281818 72.332784 
L 370.526877 67.345037 
L 370.771937 70.698445 
L 371.016996 66.364434 
L 371.262055 70.110083 
L 371.507115 63.896067 
L 371.752174 68.629063 
L 372.242292 66.403609 
L 372.487352 68.018238 
L 372.732411 62.64096 
L 372.97747 69.991349 
L 373.22253 68.055526 
L 373.467589 64.778682 
L 373.712648 69.158632 
L 373.957708 63.325196 
L 374.202767 66.17119 
L 374.692885 65.518775 
L 374.937945 61.141282 
L 375.183004 60.630136 
L 375.428063 58.208098 
L 375.673123 60.985576 
L 376.163241 70.421084 
L 376.4083 74.659423 
L 376.65336 72.971726 
L 376.898419 69.843753 
L 377.143478 61.620912 
L 377.633597 63.880675 
L 377.878656 64.389122 
L 378.123715 62.57884 
L 378.858893 54.188506 
L 379.103953 52.227764 
L 379.594071 63.883712 
L 379.83913 60.160244 
L 380.08419 62.156863 
L 380.574308 53.919928 
L 380.819368 56.297323 
L 381.064427 59.839111 
L 381.309486 70.425595 
L 381.554545 64.085374 
L 382.044664 64.767881 
L 382.289723 64.921445 
L 382.534783 77.705696 
L 382.779842 72.684134 
L 383.26996 81.401694 
L 383.51502 70.671033 
L 383.760079 72.694043 
L 384.005138 82.369254 
L 384.250198 81.828325 
L 384.495257 92.08053 
L 384.985375 91.768957 
L 385.230435 87.468147 
L 385.475494 78.541605 
L 385.720553 75.301036 
L 385.965613 67.010638 
L 386.210672 72.613156 
L 386.455731 69.62861 
L 386.700791 72.068589 
L 386.94585 79.878632 
L 387.190909 80.333952 
L 387.435968 67.915032 
L 387.681028 64.694386 
L 387.926087 64.877348 
L 388.171146 73.448538 
L 388.416206 74.360545 
L 388.661265 72.7924 
L 389.151383 65.787061 
L 389.396443 67.648309 
L 389.886561 66.050538 
L 390.131621 65.691039 
L 390.37668 63.35999 
L 390.621739 64.076711 
L 390.866798 66.622099 
L 391.111858 63.918626 
L 391.601976 64.707852 
L 391.847036 58.539372 
L 392.337154 66.15589 
L 392.582213 67.869607 
L 392.827273 66.782481 
L 393.072332 68.245561 
L 393.317391 71.23876 
L 393.562451 68.803972 
L 393.80751 65.22775 
L 394.052569 65.197367 
L 394.297628 60.948437 
L 394.542688 64.745135 
L 394.787747 64.907798 
L 395.032806 67.120751 
L 395.277866 62.102468 
L 395.522925 61.206847 
L 396.258103 66.41504 
L 396.993281 59.163218 
L 397.23834 57.327947 
L 397.728458 62.335208 
L 398.218577 64.137821 
L 398.463636 60.31271 
L 398.708696 66.479049 
L 398.953755 63.832796 
L 399.198814 68.5911 
L 399.688933 60.890033 
L 399.933992 64.710093 
L 400.179051 62.771422 
L 400.424111 59.49287 
L 400.66917 63.871795 
L 400.914229 62.268444 
L 401.159289 65.537139 
L 401.404348 56.921594 
L 401.894466 73.188756 
L 402.139526 74.204677 
L 402.384585 66.352823 
L 402.629644 65.87241 
L 402.874704 71.930219 
L 403.119763 69.218848 
L 403.364822 69.707382 
L 403.609881 74.231202 
L 404.590119 67.546928 
L 404.835178 64.473524 
L 405.080237 66.860187 
L 405.325296 72.522885 
L 405.570356 73.805154 
L 405.815415 83.035921 
L 406.060474 80.112975 
L 406.550593 68.422468 
L 406.795652 64.998847 
L 407.040711 67.175381 
L 407.285771 76.942707 
L 407.53083 72.226341 
L 407.775889 71.511877 
L 408.020949 73.198549 
L 408.266008 69.979846 
L 408.511067 80.740736 
L 408.756126 70.274459 
L 409.001186 74.571448 
L 409.491304 71.927438 
L 409.981423 81.129284 
L 410.226482 68.392231 
L 411.206719 79.431542 
L 411.696838 73.677072 
L 412.186957 74.990022 
L 412.432016 73.170086 
L 412.677075 74.193474 
L 413.167194 68.406797 
L 413.412253 67.104795 
L 413.902372 62.470313 
L 414.147431 65.658261 
L 414.39249 65.455673 
L 414.637549 58.988064 
L 414.882609 57.222856 
L 415.372727 65.681945 
L 415.862846 72.111776 
L 416.107905 69.327782 
L 416.352964 71.888092 
L 416.843083 67.57686 
L 417.333202 74.909296 
L 417.578261 64.660238 
L 417.82332 69.087566 
L 418.803557 62.277308 
L 419.048617 65.542458 
L 419.293676 71.732247 
L 419.538735 71.215421 
L 420.028854 63.950138 
L 420.273913 60.2001 
L 420.764032 63.369183 
L 421.009091 64.082226 
L 421.25415 66.625409 
L 421.744269 75.835983 
L 421.989328 75.793013 
L 422.234387 73.65188 
L 422.479447 68.136495 
L 422.724506 71.17332 
L 422.969565 70.880065 
L 423.214625 64.358056 
L 423.459684 62.5602 
L 423.704743 65.712193 
L 423.949802 61.257333 
L 424.439921 69.249706 
L 424.93004 66.627041 
L 425.175099 68.152297 
L 425.420158 75.413507 
L 425.665217 75.539527 
L 425.910277 69.269083 
L 426.155336 71.852872 
L 426.645455 60.795061 
L 426.890514 58.307054 
L 427.380632 68.187606 
L 427.625692 60.627224 
L 427.870751 70.898463 
L 428.36087 61.720684 
L 428.605929 60.977777 
L 428.850988 58.416683 
L 429.096047 69.572139 
L 429.586166 54.474077 
L 430.076285 61.307814 
L 430.321344 60.730055 
L 430.566403 56.152694 
L 430.811462 59.752333 
L 431.056522 59.796767 
L 431.301581 57.708077 
L 431.54664 54.339507 
L 431.7917 54.433721 
L 432.036759 56.605599 
L 432.526877 65.459732 
L 432.771937 65.336556 
L 433.016996 69.493356 
L 433.507115 59.945635 
L 433.752174 62.028098 
L 433.997233 65.392932 
L 434.732411 58.942442 
L 435.467589 65.925928 
L 435.712648 67.73163 
L 435.957708 64.584345 
L 436.202767 58.465267 
L 436.447826 59.024527 
L 436.692885 65.706139 
L 436.937945 67.599756 
L 437.183004 66.62057 
L 437.673123 60.180642 
L 437.918182 62.169102 
L 438.4083 67.462593 
L 438.65336 62.307573 
L 438.898419 61.32991 
L 439.143478 62.858663 
L 439.633597 67.710835 
L 439.878656 68.802574 
L 440.123715 71.572967 
L 440.613834 65.348065 
L 440.858893 69.500262 
L 441.103953 61.414818 
L 441.349012 60.794257 
L 441.594071 62.537271 
L 441.83913 65.698435 
L 442.329249 65.348583 
L 442.574308 63.154517 
L 443.309486 72.251038 
L 443.799605 64.322961 
L 444.044664 64.654493 
L 444.534783 56.088288 
L 445.024901 55.119811 
L 445.26996 59.132603 
L 445.51502 59.424929 
L 445.760079 63.83103 
L 446.005138 64.359335 
L 446.250198 62.560968 
L 446.495257 65.712653 
L 446.740316 63.372959 
L 446.985375 66.199848 
L 447.475494 62.144532 
L 447.720553 61.232086 
L 447.965613 58.569268 
L 448.210672 63.317634 
L 448.455731 61.935947 
L 448.700791 63.222285 
L 448.94585 68.224794 
L 449.190909 64.880243 
L 449.435968 69.219568 
L 449.681028 61.246402 
L 449.926087 67.039264 
L 450.416206 69.215851 
L 450.661265 65.474878 
L 450.906324 71.691699 
L 451.151383 69.075736 
L 451.396443 71.736864 
L 451.641502 71.218191 
L 452.131621 74.104825 
L 452.866798 63.701087 
L 453.601976 71.099887 
L 454.092095 67.293106 
L 454.337154 72.782636 
L 454.582213 71.845655 
L 454.827273 67.05276 
L 455.072332 68.407729 
L 455.317391 67.105354 
L 455.562451 72.669985 
L 455.80751 65.432008 
L 456.052569 67.435277 
L 456.542688 72.742976 
L 456.787747 71.821859 
L 457.032806 69.153832 
L 457.277866 71.783722 
L 457.522925 67.0156 
L 457.767984 74.731489 
L 458.013043 66.66891 
L 458.258103 74.523475 
L 458.503162 72.890158 
L 458.748221 76.140867 
L 458.993281 67.514537 
L 459.483399 60.50247 
L 459.728458 64.477555 
L 459.973518 62.6319 
L 460.463636 67.6292 
L 460.708696 68.753593 
L 460.953755 71.543579 
L 461.198814 68.986864 
L 461.443874 69.568191 
L 461.688933 72.032337 
L 462.179051 65.513438 
L 462.424111 67.484136 
L 462.66917 66.551198 
L 463.159289 60.155668 
L 463.404348 62.154118 
L 463.649407 61.237837 
L 463.894466 67.034125 
L 464.139526 68.396548 
L 464.384585 73.444701 
L 464.629644 72.242894 
L 465.119763 67.704588 
L 465.364822 75.144882 
L 465.854941 78.902994 
L 466.1 71.287163 
L 466.345059 79.409776 
L 467.080237 64.846957 
L 467.325296 69.199597 
L 467.570356 65.465125 
L 467.815415 67.455148 
L 468.305534 74.865479 
L 468.550593 68.864654 
L 468.795652 67.379509 
L 469.040711 70.719128 
L 469.285771 68.492194 
L 469.53083 60.809977 
L 469.775889 62.546703 
L 470.020949 61.473388 
L 470.266008 56.598694 
L 470.511067 62.135289 
L 471.001186 64.065851 
L 471.491304 68.145423 
L 471.736364 66.94797 
L 472.471542 59.278331 
L 472.716601 61.627715 
L 473.206719 60.498564 
L 473.451779 58.129155 
L 473.941897 62.623643 
L 474.432016 60.857098 
L 474.922134 56.836582 
L 475.167194 55.931966 
L 475.412253 57.504547 
L 475.657312 56.332745 
L 476.147431 65.361505 
L 476.39249 61.04692 
L 476.637549 60.573519 
L 476.882609 66.635534 
L 477.127668 68.157393 
L 477.372727 64.839803 
L 477.862846 73.923955 
L 478.107905 74.645796 
L 478.352964 72.96355 
L 478.843083 60.348759 
L 479.088142 62.269972 
L 479.333202 65.538056 
L 479.82332 65.290847 
L 480.068379 58.889169 
L 480.313439 57.163518 
L 480.803557 64.391369 
L 481.048617 62.580188 
L 481.293676 59.37813 
L 481.538735 61.687595 
L 482.028854 60.520121 
L 482.273913 64.488145 
L 482.764032 61.528319 
L 483.009091 60.862358 
L 483.009091 60.862358 
" clip-path="url(#p953510e76e)" style="fill: none; stroke: #1f77b4; stroke-width: 1.5; stroke-linecap: square"/>
   </g>
   <g id="patch_3">
    <path d="M 56.9 305.152125 
L 56.9 27.952125 
" style="fill: none; stroke: #000000; stroke-width: 0.8; stroke-linejoin: miter; stroke-linecap: square"/>
   </g>
   <g id="patch_4">
    <path d="M 503.3 305.152125 
L 503.3 27.952125 
" style="fill: none; stroke: #000000; stroke-width: 0.8; stroke-linejoin: miter; stroke-linecap: square"/>
   </g>
   <g id="patch_5">
    <path d="M 56.9 305.152125 
L 503.3 305.152125 
" style="fill: none; stroke: #000000; stroke-width: 0.8; stroke-linejoin: miter; stroke-linecap: square"/>
   </g>
   <g id="patch_6">
    <path d="M 56.9 27.952125 
L 503.3 27.952125 
" style="fill: none; stroke: #000000; stroke-width: 0.8; stroke-linejoin: miter; stroke-linecap: square"/>
   </g>
   <g id="text_17">
    <!-- ML1 Meta Testing -->
    <g transform="translate(198.504313 21.952125)scale(0.216 -0.216)">
     <defs>
      <path id="STIXGeneral-Regular-4d" d="M 5530 0 
L 3738 0 
L 3738 122 
Q 4115 147 4214 265 
Q 4314 384 4314 787 
L 4314 3661 
L 2682 0 
L 2592 0 
L 979 3514 
L 979 966 
Q 979 448 1088 294 
Q 1197 141 1574 122 
L 1574 0 
L 77 0 
L 77 122 
Q 358 141 480 205 
Q 602 269 650 432 
Q 698 595 698 966 
L 698 3514 
Q 698 3878 589 3984 
Q 480 4090 90 4115 
L 90 4237 
L 1357 4237 
L 2835 1024 
L 4250 4237 
L 5523 4237 
L 5523 4115 
Q 5178 4109 5072 3993 
Q 4966 3878 4966 3520 
L 4966 717 
Q 4966 378 5072 262 
Q 5178 147 5530 122 
L 5530 0 
z
" transform="scale(0.015625)"/>
      <path id="STIXGeneral-Regular-4c" d="M 3827 1114 
L 3520 0 
L 77 0 
L 77 122 
Q 429 141 531 256 
Q 634 371 634 736 
L 634 3494 
Q 634 3872 541 3981 
Q 448 4090 77 4115 
L 77 4237 
L 1888 4237 
L 1888 4115 
Q 1498 4090 1392 3984 
Q 1286 3878 1286 3507 
L 1286 538 
Q 1286 358 1398 304 
Q 1510 250 1862 250 
L 2310 250 
Q 3085 250 3392 640 
Q 3520 813 3661 1114 
L 3827 1114 
z
" transform="scale(0.015625)"/>
     </defs>
     <use xlink:href="#STIXGeneral-Regular-4d"/>
     <use xlink:href="#STIXGeneral-Regular-4c" x="88.899994"/>
     <use xlink:href="#STIXGeneral-Regular-31" x="149.999985"/>
     <use xlink:href="#STIXGeneral-Regular-20" x="199.999969"/>
     <use xlink:href="#STIXGeneral-Regular-4d" x="224.999954"/>
     <use xlink:href="#STIXGeneral-Regular-65" x="313.899948"/>
     <use xlink:href="#STIXGeneral-Regular-74" x="358.299942"/>
     <use xlink:href="#STIXGeneral-Regular-61" x="386.09993"/>
     <use xlink:href="#STIXGeneral-Regular-20" x="430.499924"/>
     <use xlink:href="#STIXGeneral-Regular-54" x="455.499908"/>
     <use xlink:href="#STIXGeneral-Regular-65" x="516.599899"/>
     <use xlink:href="#STIXGeneral-Regular-73" x="560.999893"/>
     <use xlink:href="#STIXGeneral-Regular-74" x="599.899887"/>
     <use xlink:href="#STIXGeneral-Regular-69" x="627.699875"/>
     <use xlink:href="#STIXGeneral-Regular-6e" x="655.499863"/>
     <use xlink:href="#STIXGeneral-Regular-67" x="705.499847"/>
    </g>
   </g>
   <g id="legend_1">
    <g id="patch_7">
     <path d="M 66.7 58.990562 
L 186.93375 58.990562 
Q 189.73375 58.990562 189.73375 56.190562 
L 189.73375 37.752125 
Q 189.73375 34.952125 186.93375 34.952125 
L 66.7 34.952125 
Q 63.9 34.952125 63.9 37.752125 
L 63.9 56.190562 
Q 63.9 58.990562 66.7 58.990562 
z
" style="fill: #ffffff; opacity: 0.8; stroke: #cccccc; stroke-linejoin: miter"/>
    </g>
    <g id="line2d_28">
     <path d="M 69.5 45.452125 
L 83.5 45.452125 
L 97.5 45.452125 
" style="fill: none; stroke: #1f77b4; stroke-width: 1.5; stroke-linecap: square"/>
    </g>
    <g id="text_18">
     <!-- basketball-v2 -->
     <g transform="translate(108.7 50.352125)scale(0.14 -0.14)">
      <defs>
       <path id="STIXGeneral-Regular-62" d="M 979 4358 
L 979 2406 
Q 1082 2650 1315 2797 
Q 1549 2944 1843 2944 
Q 2349 2944 2672 2541 
Q 2995 2138 2995 1536 
Q 2995 832 2566 384 
Q 2138 -64 1498 -64 
Q 1107 -64 774 67 
Q 442 198 442 358 
L 442 3622 
Q 442 3859 384 3926 
Q 326 3994 128 3994 
Q 83 3994 19 3981 
L 19 4090 
L 211 4147 
Q 864 4346 947 4371 
L 979 4358 
z
M 979 2035 
L 979 474 
Q 979 326 1161 233 
Q 1344 141 1600 141 
Q 1978 141 2195 416 
Q 2432 710 2432 1261 
Q 2432 1888 2182 2240 
Q 1971 2541 1613 2541 
Q 1357 2541 1168 2390 
Q 979 2240 979 2035 
z
" transform="scale(0.015625)"/>
       <path id="STIXGeneral-Regular-6b" d="M 3232 0 
L 1837 0 
L 1837 96 
L 1958 96 
Q 2093 96 2093 192 
Q 2093 250 2022 339 
L 1062 1606 
L 1062 429 
Q 1062 262 1142 185 
Q 1222 109 1414 102 
L 1542 96 
L 1542 0 
L 45 0 
L 45 96 
Q 390 154 457 214 
Q 525 275 525 525 
L 525 3610 
Q 525 3840 467 3920 
Q 410 4000 250 4000 
Q 211 4000 45 3987 
L 45 4090 
L 237 4141 
Q 621 4243 1037 4371 
L 1062 4358 
L 1062 1670 
L 1939 2451 
Q 2086 2586 2086 2675 
Q 2086 2739 2019 2761 
Q 1952 2784 1766 2790 
L 1766 2880 
L 3072 2880 
L 3072 2784 
Q 2752 2784 2505 2646 
Q 2259 2509 1690 1978 
L 1504 1805 
L 2483 563 
Q 2829 122 3232 96 
L 3232 0 
z
" transform="scale(0.015625)"/>
       <path id="STIXGeneral-Regular-6c" d="M 1645 0 
L 134 0 
L 134 96 
Q 435 122 531 221 
Q 627 320 627 589 
L 627 3590 
Q 627 3821 569 3910 
Q 512 4000 358 4000 
Q 224 4000 122 3987 
L 122 4090 
Q 730 4237 1133 4371 
L 1165 4346 
L 1165 557 
Q 1165 288 1254 201 
Q 1344 115 1645 96 
L 1645 0 
z
" transform="scale(0.015625)"/>
       <path id="STIXGeneral-Regular-2d" d="M 1824 1242 
L 250 1242 
L 250 1645 
L 1824 1645 
L 1824 1242 
z
" transform="scale(0.015625)"/>
      </defs>
      <use xlink:href="#STIXGeneral-Regular-62"/>
      <use xlink:href="#STIXGeneral-Regular-61" x="49.999985"/>
      <use xlink:href="#STIXGeneral-Regular-73" x="94.399979"/>
      <use xlink:href="#STIXGeneral-Regular-6b" x="133.299973"/>
      <use xlink:href="#STIXGeneral-Regular-65" x="183.299957"/>
      <use xlink:href="#STIXGeneral-Regular-74" x="227.699951"/>
      <use xlink:href="#STIXGeneral-Regular-62" x="255.499939"/>
      <use xlink:href="#STIXGeneral-Regular-61" x="305.499924"/>
      <use xlink:href="#STIXGeneral-Regular-6c" x="349.899918"/>
      <use xlink:href="#STIXGeneral-Regular-6c" x="377.699905"/>
      <use xlink:href="#STIXGeneral-Regular-2d" x="405.499893"/>
      <use xlink:href="#STIXGeneral-Regular-76" x="438.799881"/>
      <use xlink:href="#STIXGeneral-Regular-32" x="488.799866"/>
     </g>
    </g>
   </g>
  </g>
 </g>
 <defs>
  <clipPath id="p953510e76e">
   <rect x="56.9" y="27.952125" width="446.4" height="277.2"/>
  </clipPath>
 </defs>
</svg>
