<?xml version="1.0" encoding="utf-8" standalone="no"?>
<!DOCTYPE svg PUBLIC "-//W3C//DTD SVG 1.1//EN"
  "http://www.w3.org/Graphics/SVG/1.1/DTD/svg11.dtd">
<svg xmlns:xlink="http://www.w3.org/1999/xlink" width="524pt" height="355.769pt" viewBox="0 0 524 355.769" xmlns="http://www.w3.org/2000/svg" version="1.1">
 <metadata>
  <rdf:RDF xmlns:dc="http://purl.org/dc/elements/1.1/" xmlns:cc="http://creativecommons.org/ns#" xmlns:rdf="http://www.w3.org/1999/02/22-rdf-syntax-ns#">
   <cc:Work>
    <dc:type rdf:resource="http://purl.org/dc/dcmitype/StillImage"/>
    <dc:date>2021-12-11T16:39:05.096499</dc:date>
    <dc:format>image/svg+xml</dc:format>
    <dc:creator>
     <cc:Agent>
      <dc:title>Matplotlib v3.5.0, https://matplotlib.org/</dc:title>
     </cc:Agent>
    </dc:creator>
   </cc:Work>
  </rdf:RDF>
 </metadata>
 <defs>
  <style type="text/css">*{stroke-linejoin: round; stroke-linecap: butt}</style>
 </defs>
 <g id="figure_1">
  <g id="patch_1">
   <path d="M 0 355.769 
L 524 355.769 
L 524 0 
L 0 0 
z
" style="fill: #ffffff"/>
  </g>
  <g id="axes_1">
   <g id="patch_2">
    <path d="M 70.4 305.152125 
L 516.8 305.152125 
L 516.8 27.952125 
L 70.4 27.952125 
z
" style="fill: #ffffff"/>
   </g>
   <g id="matplotlib.axis_1">
    <g id="xtick_1">
     <g id="line2d_1">
      <path d="M 90.589022 305.152125 
L 90.589022 27.952125 
" clip-path="url(#pa8ee84fdc7)" style="fill: none; stroke: #b0b0b0; stroke-width: 0.8; stroke-linecap: square"/>
     </g>
     <g id="line2d_2">
      <defs>
       <path id="m175657ee21" d="M 0 0 
L 0 3.5 
" style="stroke: #000000; stroke-width: 0.8"/>
      </defs>
      <g>
       <use xlink:href="#m175657ee21" x="90.589022" y="305.152125" style="stroke: #000000; stroke-width: 0.8"/>
      </g>
     </g>
     <g id="text_1">
      <!-- 0 -->
      <g transform="translate(86.089022 324.445562)scale(0.18 -0.18)">
       <defs>
        <path id="STIXGeneral-Regular-30" d="M 3046 2112 
Q 3046 1683 2963 1302 
Q 2880 922 2717 602 
Q 2554 282 2266 96 
Q 1978 -90 1600 -90 
Q 1210 -90 915 108 
Q 621 307 461 640 
Q 301 973 227 1350 
Q 154 1728 154 2150 
Q 154 2746 301 3222 
Q 448 3699 790 4012 
Q 1133 4326 1626 4326 
Q 2253 4326 2649 3712 
Q 3046 3098 3046 2112 
z
M 2432 2080 
Q 2432 3091 2217 3625 
Q 2003 4160 1587 4160 
Q 1190 4160 979 3622 
Q 768 3085 768 2106 
Q 768 1120 979 598 
Q 1190 77 1600 77 
Q 2003 77 2217 598 
Q 2432 1120 2432 2080 
z
" transform="scale(0.015625)"/>
       </defs>
       <use xlink:href="#STIXGeneral-Regular-30"/>
      </g>
     </g>
    </g>
    <g id="xtick_2">
     <g id="line2d_3">
      <path d="M 192.476589 305.152125 
L 192.476589 27.952125 
" clip-path="url(#pa8ee84fdc7)" style="fill: none; stroke: #b0b0b0; stroke-width: 0.8; stroke-linecap: square"/>
     </g>
     <g id="line2d_4">
      <g>
       <use xlink:href="#m175657ee21" x="192.476589" y="305.152125" style="stroke: #000000; stroke-width: 0.8"/>
      </g>
     </g>
     <g id="text_2">
      <!-- 2 -->
      <g transform="translate(187.976589 324.445562)scale(0.18 -0.18)">
       <defs>
        <path id="STIXGeneral-Regular-32" d="M 3034 877 
L 2688 0 
L 186 0 
L 186 77 
L 1325 1286 
Q 1773 1754 1965 2144 
Q 2157 2534 2157 2950 
Q 2157 3379 1920 3616 
Q 1683 3853 1267 3853 
Q 922 3853 720 3673 
Q 518 3494 326 3021 
L 192 3053 
Q 301 3648 630 3987 
Q 960 4326 1523 4326 
Q 2054 4326 2380 4006 
Q 2707 3686 2707 3200 
Q 2707 2477 1888 1613 
L 832 486 
L 2330 486 
Q 2541 486 2665 569 
Q 2790 653 2944 915 
L 3034 877 
z
" transform="scale(0.015625)"/>
       </defs>
       <use xlink:href="#STIXGeneral-Regular-32"/>
      </g>
     </g>
    </g>
    <g id="xtick_3">
     <g id="line2d_5">
      <path d="M 294.364157 305.152125 
L 294.364157 27.952125 
" clip-path="url(#pa8ee84fdc7)" style="fill: none; stroke: #b0b0b0; stroke-width: 0.8; stroke-linecap: square"/>
     </g>
     <g id="line2d_6">
      <g>
       <use xlink:href="#m175657ee21" x="294.364157" y="305.152125" style="stroke: #000000; stroke-width: 0.8"/>
      </g>
     </g>
     <g id="text_3">
      <!-- 4 -->
      <g transform="translate(289.864157 324.445562)scale(0.18 -0.18)">
       <defs>
        <path id="STIXGeneral-Regular-34" d="M 3027 1069 
L 2368 1069 
L 2368 0 
L 1869 0 
L 1869 1069 
L 77 1069 
L 77 1478 
L 2086 4326 
L 2368 4326 
L 2368 1478 
L 3027 1478 
L 3027 1069 
z
M 1869 1478 
L 1869 3674 
L 333 1478 
L 1869 1478 
z
" transform="scale(0.015625)"/>
       </defs>
       <use xlink:href="#STIXGeneral-Regular-34"/>
      </g>
     </g>
    </g>
    <g id="xtick_4">
     <g id="line2d_7">
      <path d="M 396.251724 305.152125 
L 396.251724 27.952125 
" clip-path="url(#pa8ee84fdc7)" style="fill: none; stroke: #b0b0b0; stroke-width: 0.8; stroke-linecap: square"/>
     </g>
     <g id="line2d_8">
      <g>
       <use xlink:href="#m175657ee21" x="396.251724" y="305.152125" style="stroke: #000000; stroke-width: 0.8"/>
      </g>
     </g>
     <g id="text_4">
      <!-- 6 -->
      <g transform="translate(391.751724 324.445562)scale(0.18 -0.18)">
       <defs>
        <path id="STIXGeneral-Regular-36" d="M 2854 4378 
L 2867 4275 
Q 2112 4154 1606 3664 
Q 1101 3174 973 2451 
Q 1344 2739 1786 2739 
Q 2349 2739 2672 2380 
Q 2995 2022 2995 1402 
Q 2995 774 2669 378 
Q 2291 -90 1651 -90 
Q 870 -90 518 557 
Q 218 1107 218 1786 
Q 218 2835 915 3552 
Q 1312 3962 1731 4131 
Q 2150 4301 2854 4378 
z
M 2419 1203 
Q 2419 2445 1555 2445 
Q 1235 2445 1024 2275 
Q 813 2106 813 1702 
Q 813 954 1046 522 
Q 1280 90 1722 90 
Q 2061 90 2240 394 
Q 2419 698 2419 1203 
z
" transform="scale(0.015625)"/>
       </defs>
       <use xlink:href="#STIXGeneral-Regular-36"/>
      </g>
     </g>
    </g>
    <g id="xtick_5">
     <g id="line2d_9">
      <path d="M 498.139292 305.152125 
L 498.139292 27.952125 
" clip-path="url(#pa8ee84fdc7)" style="fill: none; stroke: #b0b0b0; stroke-width: 0.8; stroke-linecap: square"/>
     </g>
     <g id="line2d_10">
      <g>
       <use xlink:href="#m175657ee21" x="498.139292" y="305.152125" style="stroke: #000000; stroke-width: 0.8"/>
      </g>
     </g>
     <g id="text_5">
      <!-- 8 -->
      <g transform="translate(493.639292 324.445562)scale(0.18 -0.18)">
       <defs>
        <path id="STIXGeneral-Regular-38" d="M 2848 992 
Q 2848 499 2505 204 
Q 2163 -90 1587 -90 
Q 1050 -90 704 204 
Q 358 499 358 954 
Q 358 1293 524 1533 
Q 691 1773 1190 2125 
Q 710 2522 553 2765 
Q 397 3008 397 3328 
Q 397 3782 745 4054 
Q 1094 4326 1638 4326 
Q 2106 4326 2410 4060 
Q 2714 3795 2714 3411 
Q 2714 3059 2531 2848 
Q 2349 2637 1856 2374 
Q 2432 1990 2640 1689 
Q 2848 1389 2848 992 
z
M 2272 3411 
Q 2272 3744 2086 3945 
Q 1901 4147 1574 4147 
Q 1248 4147 1059 3977 
Q 870 3808 870 3513 
Q 870 3219 1059 2979 
Q 1248 2739 1670 2490 
Q 1997 2682 2134 2896 
Q 2272 3110 2272 3411 
z
M 1734 1741 
L 1357 1997 
Q 1075 1766 960 1545 
Q 845 1325 845 1011 
Q 845 576 1065 333 
Q 1286 90 1658 90 
Q 1971 90 2166 285 
Q 2362 480 2362 794 
Q 2362 1082 2214 1299 
Q 2067 1517 1734 1741 
z
" transform="scale(0.015625)"/>
       </defs>
       <use xlink:href="#STIXGeneral-Regular-38"/>
      </g>
     </g>
    </g>
    <g id="text_6">
     <!-- Training Environment Steps -->
     <g transform="translate(191.604688 344.645562)scale(0.18 -0.18)">
      <defs>
       <path id="STIXGeneral-Regular-54" d="M 3795 3149 
L 3642 3149 
Q 3539 3674 3353 3821 
Q 3168 3968 2656 3968 
L 2278 3968 
L 2278 710 
Q 2278 346 2387 243 
Q 2496 141 2893 122 
L 2893 0 
L 1024 0 
L 1024 122 
Q 1427 147 1526 256 
Q 1626 365 1626 787 
L 1626 3968 
L 1242 3968 
Q 723 3968 540 3817 
Q 358 3667 262 3149 
L 109 3149 
L 154 4237 
L 3750 4237 
L 3795 3149 
z
" transform="scale(0.015625)"/>
       <path id="STIXGeneral-Regular-72" d="M 1024 2931 
L 1024 2342 
Q 1267 2688 1430 2816 
Q 1594 2944 1792 2944 
Q 1958 2944 2051 2854 
Q 2144 2765 2144 2605 
Q 2144 2470 2077 2393 
Q 2010 2317 1894 2317 
Q 1773 2317 1638 2445 
Q 1536 2541 1472 2541 
Q 1338 2541 1181 2355 
Q 1024 2170 1024 2016 
L 1024 576 
Q 1024 301 1133 205 
Q 1242 109 1568 96 
L 1568 0 
L 32 0 
L 32 96 
Q 339 154 412 224 
Q 486 294 486 538 
L 486 2138 
Q 486 2349 438 2435 
Q 390 2522 269 2522 
Q 166 2522 45 2496 
L 45 2598 
Q 448 2726 992 2944 
L 1024 2931 
z
" transform="scale(0.015625)"/>
       <path id="STIXGeneral-Regular-61" d="M 2829 422 
L 2829 243 
Q 2586 -64 2253 -64 
Q 1888 -64 1843 403 
L 1837 403 
Q 1427 -64 909 -64 
Q 608 -64 422 112 
Q 237 288 237 602 
Q 237 1050 685 1350 
Q 992 1555 1837 1869 
L 1837 2214 
Q 1837 2502 1699 2646 
Q 1562 2790 1338 2790 
Q 1146 2790 1018 2697 
Q 890 2605 890 2477 
Q 890 2419 909 2348 
Q 928 2278 928 2208 
Q 928 2112 841 2029 
Q 755 1946 634 1946 
Q 525 1946 441 2029 
Q 358 2112 358 2240 
Q 358 2547 685 2752 
Q 986 2944 1421 2944 
Q 1939 2944 2176 2656 
Q 2291 2522 2323 2384 
Q 2355 2246 2355 1946 
L 2355 723 
Q 2355 301 2554 301 
Q 2682 301 2829 422 
z
M 1837 813 
L 1837 1715 
Q 1248 1510 1018 1293 
Q 800 1094 800 800 
Q 800 557 921 432 
Q 1043 307 1242 307 
Q 1453 307 1613 410 
Q 1747 506 1792 589 
Q 1837 672 1837 813 
z
" transform="scale(0.015625)"/>
       <path id="STIXGeneral-Regular-69" d="M 1152 4045 
Q 1152 3904 1056 3811 
Q 960 3718 819 3718 
Q 685 3718 592 3811 
Q 499 3904 499 4045 
Q 499 4179 595 4275 
Q 691 4371 826 4371 
Q 966 4371 1059 4275 
Q 1152 4179 1152 4045 
z
M 1619 0 
L 102 0 
L 102 96 
Q 435 115 521 211 
Q 608 307 608 666 
L 608 2118 
Q 608 2342 563 2432 
Q 518 2522 397 2522 
Q 243 2522 128 2490 
L 128 2592 
L 1120 2944 
L 1146 2918 
L 1146 672 
Q 1146 314 1226 218 
Q 1306 122 1619 96 
L 1619 0 
z
" transform="scale(0.015625)"/>
       <path id="STIXGeneral-Regular-6e" d="M 3104 0 
L 1773 0 
L 1779 96 
Q 2016 115 2096 233 
Q 2176 352 2176 672 
L 2176 1946 
Q 2176 2592 1709 2592 
Q 1549 2592 1408 2515 
Q 1267 2438 1050 2227 
L 1050 461 
Q 1050 269 1136 192 
Q 1222 115 1466 96 
L 1466 0 
L 115 0 
L 115 96 
Q 358 115 435 214 
Q 512 314 512 602 
L 512 2157 
Q 512 2394 467 2483 
Q 422 2573 288 2573 
Q 160 2573 102 2547 
L 102 2656 
Q 550 2784 979 2944 
L 1030 2925 
L 1030 2426 
L 1037 2426 
Q 1491 2944 1958 2944 
Q 2323 2944 2518 2688 
Q 2714 2432 2714 1958 
L 2714 544 
Q 2714 288 2790 205 
Q 2867 122 3104 96 
L 3104 0 
z
" transform="scale(0.015625)"/>
       <path id="STIXGeneral-Regular-67" d="M 3008 2483 
L 2477 2483 
Q 2598 2208 2598 1946 
Q 2598 1453 2265 1203 
Q 1933 954 1600 954 
Q 1530 954 1357 973 
L 1235 986 
Q 1107 947 979 812 
Q 851 678 851 582 
Q 851 435 1350 410 
L 2176 371 
Q 2528 358 2739 172 
Q 2950 -13 2950 -314 
Q 2950 -685 2566 -986 
Q 2035 -1395 1286 -1395 
Q 826 -1395 502 -1212 
Q 179 -1030 179 -774 
Q 179 -595 320 -419 
Q 461 -243 806 6 
Q 602 102 534 172 
Q 467 243 467 346 
Q 467 531 762 787 
Q 909 915 1037 1043 
Q 717 1203 579 1401 
Q 442 1600 442 1901 
Q 442 2336 752 2640 
Q 1062 2944 1510 2944 
Q 1766 2944 2022 2848 
L 2163 2797 
Q 2349 2733 2515 2733 
L 3008 2733 
L 3008 2483 
z
M 973 2163 
L 973 2144 
Q 973 1683 1155 1398 
Q 1338 1114 1632 1114 
Q 1850 1114 1978 1270 
Q 2106 1427 2106 1690 
Q 2106 2112 1914 2464 
Q 1754 2765 1446 2765 
Q 1222 2765 1097 2605 
Q 973 2445 973 2163 
z
M 2771 -410 
Q 2771 -230 2595 -163 
Q 2419 -96 1978 -96 
Q 1344 -96 941 -13 
Q 749 -243 688 -348 
Q 627 -454 627 -563 
Q 627 -774 880 -902 
Q 1133 -1030 1555 -1030 
Q 2099 -1030 2435 -860 
Q 2771 -691 2771 -410 
z
" transform="scale(0.015625)"/>
       <path id="STIXGeneral-Regular-20" transform="scale(0.015625)"/>
       <path id="STIXGeneral-Regular-45" d="M 3821 1082 
L 3526 0 
L 77 0 
L 77 122 
Q 442 147 538 252 
Q 634 358 634 730 
L 634 3520 
Q 634 3878 534 3987 
Q 435 4096 77 4115 
L 77 4237 
L 3469 4237 
L 3494 3322 
L 3334 3322 
Q 3264 3750 3085 3872 
Q 2906 3994 2349 3994 
L 1510 3994 
Q 1370 3994 1328 3952 
Q 1286 3910 1286 3763 
L 1286 2355 
L 2253 2355 
Q 2656 2355 2787 2470 
Q 2918 2586 2976 2970 
L 3123 2970 
L 3123 1472 
L 2976 1472 
Q 2918 1875 2790 1984 
Q 2662 2093 2253 2093 
L 1286 2093 
L 1286 538 
Q 1286 346 1420 291 
Q 1555 237 1933 237 
L 2163 237 
Q 2848 237 3136 403 
Q 3424 570 3642 1082 
L 3821 1082 
z
" transform="scale(0.015625)"/>
       <path id="STIXGeneral-Regular-76" d="M 3053 2880 
L 3053 2784 
Q 2906 2771 2835 2688 
Q 2765 2605 2637 2285 
L 1818 230 
Q 1690 -90 1638 -90 
Q 1587 -90 1523 77 
Q 1510 96 1497 141 
Q 1485 186 1472 211 
L 704 2048 
Q 499 2534 403 2652 
Q 307 2771 122 2784 
L 122 2880 
L 1376 2880 
L 1376 2784 
Q 1210 2771 1146 2732 
Q 1082 2694 1082 2611 
Q 1082 2509 1139 2368 
L 1792 730 
L 2426 2387 
Q 2464 2483 2464 2579 
Q 2464 2758 2163 2784 
L 2163 2880 
L 3053 2880 
z
" transform="scale(0.015625)"/>
       <path id="STIXGeneral-Regular-6f" d="M 3008 1478 
Q 3008 806 2608 371 
Q 2208 -64 1568 -64 
Q 979 -64 582 368 
Q 186 800 186 1459 
Q 186 2125 582 2534 
Q 979 2944 1626 2944 
Q 2221 2944 2614 2537 
Q 3008 2131 3008 1478 
z
M 2432 1306 
Q 2432 2035 2112 2445 
Q 1856 2765 1504 2765 
Q 1171 2765 966 2493 
Q 762 2221 762 1747 
Q 762 928 1101 435 
Q 1318 115 1677 115 
Q 2029 115 2230 432 
Q 2432 749 2432 1306 
z
" transform="scale(0.015625)"/>
       <path id="STIXGeneral-Regular-6d" d="M 4960 0 
L 3565 0 
L 3565 96 
Q 3834 122 3907 208 
Q 3981 294 3981 576 
L 3981 1894 
Q 3981 2278 3869 2444 
Q 3757 2611 3488 2611 
Q 3264 2611 3107 2521 
Q 2950 2432 2803 2221 
L 2803 608 
Q 2803 301 2896 201 
Q 2989 102 3264 96 
L 3264 0 
L 1830 0 
L 1830 96 
Q 2112 115 2189 188 
Q 2266 262 2266 550 
L 2266 1901 
Q 2266 2611 1850 2611 
Q 1670 2611 1468 2531 
Q 1267 2451 1171 2336 
Q 1088 2240 1088 2227 
L 1088 448 
Q 1088 243 1177 176 
Q 1267 109 1523 96 
L 1523 0 
L 102 0 
L 102 96 
Q 371 102 460 195 
Q 550 288 550 563 
L 550 2150 
Q 550 2387 499 2480 
Q 448 2573 326 2573 
Q 230 2573 122 2547 
L 122 2656 
Q 557 2778 1011 2944 
L 1062 2925 
L 1062 2451 
L 1075 2451 
Q 1363 2752 1584 2848 
Q 1805 2944 2054 2944 
Q 2560 2944 2733 2406 
Q 3232 2944 3776 2944 
Q 4518 2944 4518 1792 
L 4518 493 
Q 4518 282 4582 202 
Q 4646 122 4794 109 
L 4960 96 
L 4960 0 
z
" transform="scale(0.015625)"/>
       <path id="STIXGeneral-Regular-65" d="M 2611 1050 
L 2714 1005 
Q 2330 -64 1376 -64 
Q 813 -64 486 329 
Q 160 723 160 1389 
Q 160 2074 525 2509 
Q 890 2944 1485 2944 
Q 2061 2944 2374 2502 
Q 2560 2246 2592 1773 
L 621 1773 
Q 646 1370 700 1158 
Q 755 947 915 730 
Q 1184 378 1626 378 
Q 1939 378 2153 531 
Q 2368 685 2611 1050 
z
M 634 1978 
L 1939 1978 
Q 1882 2381 1750 2547 
Q 1619 2714 1312 2714 
Q 1043 2714 864 2525 
Q 685 2336 634 1978 
z
" transform="scale(0.015625)"/>
       <path id="STIXGeneral-Regular-74" d="M 1702 493 
L 1786 422 
Q 1478 -64 1011 -64 
Q 448 -64 448 749 
L 448 2675 
L 109 2675 
Q 83 2694 83 2720 
Q 83 2771 192 2842 
Q 435 2982 813 3526 
Q 826 3546 874 3606 
Q 922 3667 941 3706 
Q 986 3706 986 3622 
L 986 2880 
L 1632 2880 
L 1632 2675 
L 986 2675 
L 986 845 
Q 986 538 1062 403 
Q 1139 269 1318 269 
Q 1510 269 1702 493 
z
" transform="scale(0.015625)"/>
       <path id="STIXGeneral-Regular-53" d="M 3002 2963 
L 2842 2963 
Q 2733 3360 2579 3565 
Q 2189 4064 1651 4064 
Q 1357 4064 1181 3894 
Q 1005 3725 1005 3456 
Q 1005 3328 1069 3206 
Q 1133 3085 1206 2998 
Q 1280 2912 1465 2784 
Q 1651 2656 1766 2589 
Q 1882 2522 2150 2362 
Q 2669 2061 2905 1763 
Q 3142 1466 3142 1107 
Q 3142 576 2771 243 
Q 2400 -90 1837 -90 
Q 1421 -90 1082 58 
Q 915 128 781 128 
Q 704 128 653 70 
Q 602 13 602 -83 
L 461 -83 
L 275 1274 
L 416 1274 
Q 845 141 1734 141 
Q 2074 141 2285 342 
Q 2496 544 2496 858 
Q 2496 1158 2310 1363 
Q 2003 1696 1235 2106 
Q 454 2522 454 3206 
Q 454 3718 768 4022 
Q 1082 4326 1568 4326 
Q 1907 4326 2240 4186 
Q 2413 4109 2522 4109 
Q 2688 4109 2726 4326 
L 2861 4326 
L 3002 2963 
z
" transform="scale(0.015625)"/>
       <path id="STIXGeneral-Regular-70" d="M 1018 2931 
L 1018 2438 
Q 1421 2944 1939 2944 
Q 2406 2944 2707 2560 
Q 3008 2176 3008 1581 
Q 3008 883 2621 409 
Q 2234 -64 1664 -64 
Q 1466 -64 1328 -6 
Q 1190 51 1018 211 
L 1018 -794 
Q 1018 -1094 1120 -1180 
Q 1222 -1267 1581 -1274 
L 1581 -1389 
L 32 -1389 
L 32 -1280 
Q 314 -1254 397 -1171 
Q 480 -1088 480 -838 
L 480 2157 
Q 480 2381 429 2451 
Q 378 2522 218 2522 
Q 115 2522 58 2515 
L 58 2618 
Q 506 2752 979 2944 
L 1018 2931 
z
M 1018 2138 
L 1018 563 
Q 1018 422 1238 281 
Q 1459 141 1683 141 
Q 2029 141 2243 467 
Q 2458 794 2458 1325 
Q 2458 1888 2243 2224 
Q 2029 2560 1670 2560 
Q 1446 2560 1232 2419 
Q 1018 2278 1018 2138 
z
" transform="scale(0.015625)"/>
       <path id="STIXGeneral-Regular-73" d="M 998 1926 
L 1664 1523 
Q 1984 1331 2105 1164 
Q 2227 998 2227 736 
Q 2227 416 1961 176 
Q 1696 -64 1331 -64 
Q 1030 -64 864 -6 
Q 691 51 570 51 
Q 461 51 416 -26 
L 333 -26 
L 333 979 
L 435 979 
Q 538 512 730 294 
Q 922 77 1248 77 
Q 1485 77 1632 211 
Q 1779 346 1779 550 
Q 1779 845 1440 1030 
L 1094 1222 
Q 326 1651 326 2150 
Q 326 2522 566 2730 
Q 806 2938 1210 2938 
Q 1491 2938 1638 2867 
Q 1754 2816 1818 2816 
Q 1862 2816 1920 2880 
L 1990 2880 
L 2022 2010 
L 1926 2010 
Q 1818 2445 1654 2621 
Q 1491 2797 1203 2797 
Q 986 2797 854 2688 
Q 723 2579 723 2362 
Q 723 2253 796 2128 
Q 870 2003 998 1926 
z
" transform="scale(0.015625)"/>
      </defs>
      <use xlink:href="#STIXGeneral-Regular-54"/>
      <use xlink:href="#STIXGeneral-Regular-72" x="61.099991"/>
      <use xlink:href="#STIXGeneral-Regular-61" x="94.399979"/>
      <use xlink:href="#STIXGeneral-Regular-69" x="138.799973"/>
      <use xlink:href="#STIXGeneral-Regular-6e" x="166.59996"/>
      <use xlink:href="#STIXGeneral-Regular-69" x="216.599945"/>
      <use xlink:href="#STIXGeneral-Regular-6e" x="244.399933"/>
      <use xlink:href="#STIXGeneral-Regular-67" x="294.399918"/>
      <use xlink:href="#STIXGeneral-Regular-20" x="344.399902"/>
      <use xlink:href="#STIXGeneral-Regular-45" x="369.399887"/>
      <use xlink:href="#STIXGeneral-Regular-6e" x="430.499878"/>
      <use xlink:href="#STIXGeneral-Regular-76" x="480.499863"/>
      <use xlink:href="#STIXGeneral-Regular-69" x="530.499847"/>
      <use xlink:href="#STIXGeneral-Regular-72" x="558.299835"/>
      <use xlink:href="#STIXGeneral-Regular-6f" x="591.599823"/>
      <use xlink:href="#STIXGeneral-Regular-6e" x="641.599808"/>
      <use xlink:href="#STIXGeneral-Regular-6d" x="691.599792"/>
      <use xlink:href="#STIXGeneral-Regular-65" x="769.39978"/>
      <use xlink:href="#STIXGeneral-Regular-6e" x="813.799774"/>
      <use xlink:href="#STIXGeneral-Regular-74" x="863.799759"/>
      <use xlink:href="#STIXGeneral-Regular-20" x="891.599747"/>
      <use xlink:href="#STIXGeneral-Regular-53" x="916.599731"/>
      <use xlink:href="#STIXGeneral-Regular-74" x="972.199722"/>
      <use xlink:href="#STIXGeneral-Regular-65" x="999.99971"/>
      <use xlink:href="#STIXGeneral-Regular-70" x="1044.399704"/>
      <use xlink:href="#STIXGeneral-Regular-73" x="1094.399689"/>
     </g>
    </g>
    <g id="text_7">
     <!-- 1e8 -->
     <g transform="translate(490.806875 343.645562)scale(0.18 -0.18)">
      <defs>
       <path id="STIXGeneral-Regular-31" d="M 2522 0 
L 755 0 
L 755 96 
Q 1107 115 1235 227 
Q 1363 339 1363 608 
L 1363 3482 
Q 1363 3795 1171 3795 
Q 1082 3795 883 3718 
L 710 3654 
L 710 3744 
L 1856 4326 
L 1914 4307 
L 1914 486 
Q 1914 275 2042 185 
Q 2170 96 2522 96 
L 2522 0 
z
" transform="scale(0.015625)"/>
      </defs>
      <use xlink:href="#STIXGeneral-Regular-31"/>
      <use xlink:href="#STIXGeneral-Regular-65" x="49.999985"/>
      <use xlink:href="#STIXGeneral-Regular-38" x="94.399979"/>
     </g>
    </g>
   </g>
   <g id="matplotlib.axis_2">
    <g id="ytick_1">
     <g id="line2d_11">
      <path d="M 70.4 292.941055 
L 516.8 292.941055 
" clip-path="url(#pa8ee84fdc7)" style="fill: none; stroke: #b0b0b0; stroke-width: 0.8; stroke-linecap: square"/>
     </g>
     <g id="line2d_12">
      <defs>
       <path id="mb9ee19e7d0" d="M 0 0 
L -3.5 0 
" style="stroke: #000000; stroke-width: 0.8"/>
      </defs>
      <g>
       <use xlink:href="#mb9ee19e7d0" x="70.4" y="292.941055" style="stroke: #000000; stroke-width: 0.8"/>
      </g>
     </g>
     <g id="text_8">
      <!-- 0 -->
      <g transform="translate(54.4 299.087774)scale(0.18 -0.18)">
       <use xlink:href="#STIXGeneral-Regular-30"/>
      </g>
     </g>
    </g>
    <g id="ytick_2">
     <g id="line2d_13">
      <path d="M 70.4 230.0813 
L 516.8 230.0813 
" clip-path="url(#pa8ee84fdc7)" style="fill: none; stroke: #b0b0b0; stroke-width: 0.8; stroke-linecap: square"/>
     </g>
     <g id="line2d_14">
      <g>
       <use xlink:href="#mb9ee19e7d0" x="70.4" y="230.0813" style="stroke: #000000; stroke-width: 0.8"/>
      </g>
     </g>
     <g id="text_9">
      <!-- 1000 -->
      <g transform="translate(27.4 236.228019)scale(0.18 -0.18)">
       <use xlink:href="#STIXGeneral-Regular-31"/>
       <use xlink:href="#STIXGeneral-Regular-30" x="49.999985"/>
       <use xlink:href="#STIXGeneral-Regular-30" x="99.999969"/>
       <use xlink:href="#STIXGeneral-Regular-30" x="149.999954"/>
      </g>
     </g>
    </g>
    <g id="ytick_3">
     <g id="line2d_15">
      <path d="M 70.4 167.221546 
L 516.8 167.221546 
" clip-path="url(#pa8ee84fdc7)" style="fill: none; stroke: #b0b0b0; stroke-width: 0.8; stroke-linecap: square"/>
     </g>
     <g id="line2d_16">
      <g>
       <use xlink:href="#mb9ee19e7d0" x="70.4" y="167.221546" style="stroke: #000000; stroke-width: 0.8"/>
      </g>
     </g>
     <g id="text_10">
      <!-- 2000 -->
      <g transform="translate(27.4 173.368264)scale(0.18 -0.18)">
       <use xlink:href="#STIXGeneral-Regular-32"/>
       <use xlink:href="#STIXGeneral-Regular-30" x="49.999985"/>
       <use xlink:href="#STIXGeneral-Regular-30" x="99.999969"/>
       <use xlink:href="#STIXGeneral-Regular-30" x="149.999954"/>
      </g>
     </g>
    </g>
    <g id="ytick_4">
     <g id="line2d_17">
      <path d="M 70.4 104.361791 
L 516.8 104.361791 
" clip-path="url(#pa8ee84fdc7)" style="fill: none; stroke: #b0b0b0; stroke-width: 0.8; stroke-linecap: square"/>
     </g>
     <g id="line2d_18">
      <g>
       <use xlink:href="#mb9ee19e7d0" x="70.4" y="104.361791" style="stroke: #000000; stroke-width: 0.8"/>
      </g>
     </g>
     <g id="text_11">
      <!-- 3000 -->
      <g transform="translate(27.4 110.50851)scale(0.18 -0.18)">
       <defs>
        <path id="STIXGeneral-Regular-33" d="M 390 3264 
L 288 3290 
Q 435 3770 748 4048 
Q 1062 4326 1542 4326 
Q 1990 4326 2265 4083 
Q 2541 3840 2541 3450 
Q 2541 2925 1946 2566 
Q 2298 2413 2477 2227 
Q 2758 1914 2758 1402 
Q 2758 890 2464 506 
Q 2246 211 1840 60 
Q 1434 -90 979 -90 
Q 262 -90 262 275 
Q 262 378 339 442 
Q 416 506 525 506 
Q 685 506 915 339 
Q 1197 141 1466 141 
Q 1818 141 2058 425 
Q 2298 710 2298 1120 
Q 2298 1856 1632 2048 
Q 1434 2112 979 2112 
L 979 2202 
Q 1338 2323 1517 2432 
Q 2035 2726 2035 3290 
Q 2035 3610 1852 3776 
Q 1670 3942 1344 3942 
Q 768 3942 390 3264 
z
" transform="scale(0.015625)"/>
       </defs>
       <use xlink:href="#STIXGeneral-Regular-33"/>
       <use xlink:href="#STIXGeneral-Regular-30" x="49.999985"/>
       <use xlink:href="#STIXGeneral-Regular-30" x="99.999969"/>
       <use xlink:href="#STIXGeneral-Regular-30" x="149.999954"/>
      </g>
     </g>
    </g>
    <g id="ytick_5">
     <g id="line2d_19">
      <path d="M 70.4 41.502037 
L 516.8 41.502037 
" clip-path="url(#pa8ee84fdc7)" style="fill: none; stroke: #b0b0b0; stroke-width: 0.8; stroke-linecap: square"/>
     </g>
     <g id="line2d_20">
      <g>
       <use xlink:href="#mb9ee19e7d0" x="70.4" y="41.502037" style="stroke: #000000; stroke-width: 0.8"/>
      </g>
     </g>
     <g id="text_12">
      <!-- 4000 -->
      <g transform="translate(27.4 47.648755)scale(0.18 -0.18)">
       <use xlink:href="#STIXGeneral-Regular-34"/>
       <use xlink:href="#STIXGeneral-Regular-30" x="49.999985"/>
       <use xlink:href="#STIXGeneral-Regular-30" x="99.999969"/>
       <use xlink:href="#STIXGeneral-Regular-30" x="149.999954"/>
      </g>
     </g>
    </g>
    <g id="text_13">
     <!-- Average Test Return -->
     <g transform="translate(19.476562 241.533375)rotate(-90)scale(0.18 -0.18)">
      <defs>
       <path id="STIXGeneral-Regular-41" d="M 4525 0 
L 2893 0 
L 2893 122 
Q 3149 122 3245 179 
Q 3334 224 3334 333 
Q 3334 499 3213 781 
L 2950 1382 
L 1274 1382 
L 979 653 
Q 922 506 922 384 
Q 922 237 1027 179 
Q 1133 122 1370 122 
L 1370 0 
L 96 0 
L 96 122 
Q 365 147 486 316 
Q 608 486 902 1190 
L 2221 4314 
L 2349 4314 
L 3923 710 
Q 4064 378 4176 262 
Q 4288 147 4525 122 
L 4525 0 
z
M 2861 1645 
L 2118 3405 
L 1382 1645 
L 2861 1645 
z
" transform="scale(0.015625)"/>
       <path id="STIXGeneral-Regular-52" d="M 4224 0 
L 3187 0 
L 1664 1971 
L 1306 1958 
L 1306 717 
Q 1306 352 1405 249 
Q 1504 147 1875 122 
L 1875 0 
L 109 0 
L 109 122 
Q 474 154 563 262 
Q 653 371 653 794 
L 653 3526 
Q 653 3885 563 3987 
Q 474 4090 109 4115 
L 109 4237 
L 1850 4237 
Q 2726 4237 3187 3859 
Q 3501 3603 3501 3091 
Q 3501 2221 2342 2042 
L 3622 422 
Q 3757 256 3878 198 
Q 4000 141 4224 122 
L 4224 0 
z
M 1306 3731 
L 1306 2195 
Q 1766 2202 1990 2246 
Q 2214 2291 2438 2413 
Q 2803 2618 2803 3142 
Q 2803 4000 1632 4000 
Q 1459 4000 1382 3945 
Q 1306 3891 1306 3731 
z
" transform="scale(0.015625)"/>
       <path id="STIXGeneral-Regular-75" d="M 3072 320 
L 3072 230 
Q 2573 96 2195 -58 
L 2163 -38 
L 2163 486 
L 2150 486 
Q 1747 -64 1235 -64 
Q 870 -64 662 160 
Q 454 384 454 755 
L 454 2362 
Q 454 2598 371 2688 
Q 288 2778 58 2790 
L 58 2880 
L 992 2880 
L 992 813 
Q 992 595 1123 451 
Q 1254 307 1446 307 
Q 1760 307 1984 506 
Q 2067 582 2099 649 
Q 2131 717 2131 877 
L 2131 2355 
Q 2131 2605 2041 2678 
Q 1952 2752 1658 2771 
L 1658 2880 
L 2669 2880 
L 2669 685 
Q 2669 461 2742 390 
Q 2816 320 3034 320 
L 3072 320 
z
" transform="scale(0.015625)"/>
      </defs>
      <use xlink:href="#STIXGeneral-Regular-41"/>
      <use xlink:href="#STIXGeneral-Regular-76" x="72.199982"/>
      <use xlink:href="#STIXGeneral-Regular-65" x="122.199966"/>
      <use xlink:href="#STIXGeneral-Regular-72" x="166.59996"/>
      <use xlink:href="#STIXGeneral-Regular-61" x="199.899948"/>
      <use xlink:href="#STIXGeneral-Regular-67" x="244.299942"/>
      <use xlink:href="#STIXGeneral-Regular-65" x="294.299927"/>
      <use xlink:href="#STIXGeneral-Regular-20" x="338.699921"/>
      <use xlink:href="#STIXGeneral-Regular-54" x="363.699905"/>
      <use xlink:href="#STIXGeneral-Regular-65" x="424.799896"/>
      <use xlink:href="#STIXGeneral-Regular-73" x="469.19989"/>
      <use xlink:href="#STIXGeneral-Regular-74" x="508.099884"/>
      <use xlink:href="#STIXGeneral-Regular-20" x="535.899872"/>
      <use xlink:href="#STIXGeneral-Regular-52" x="560.899857"/>
      <use xlink:href="#STIXGeneral-Regular-65" x="627.599854"/>
      <use xlink:href="#STIXGeneral-Regular-74" x="671.999847"/>
      <use xlink:href="#STIXGeneral-Regular-75" x="699.799835"/>
      <use xlink:href="#STIXGeneral-Regular-72" x="749.79982"/>
      <use xlink:href="#STIXGeneral-Regular-6e" x="783.099808"/>
     </g>
    </g>
   </g>
   <g id="line2d_21">
    <path d="M 90.690909 292.270295 
L 90.996572 292.240453 
L 91.404122 292.036397 
L 92.422998 291.699511 
L 92.72866 291.631393 
L 93.034323 291.493145 
L 93.645649 291.457248 
L 93.849424 291.239257 
L 94.155086 291.241006 
L 94.256974 290.741111 
L 94.358862 290.78063 
L 94.460749 290.777025 
L 94.562637 290.568534 
L 94.664524 290.747225 
L 94.766412 290.4363 
L 94.868299 290.593804 
L 95.072074 290.151205 
L 95.173962 289.898035 
L 95.27585 290.162711 
L 95.377737 290.049452 
L 95.479625 289.406284 
L 95.6834 290.211293 
L 95.785287 290.235798 
L 96.09095 290.621897 
L 96.192838 290.506919 
L 96.294725 290.711986 
L 96.396613 290.536268 
L 96.4985 289.897691 
L 96.600388 289.996722 
L 96.702276 289.79766 
L 96.906051 290.312524 
L 97.109826 290.178234 
L 97.721151 290.327158 
L 98.026814 290.580559 
L 98.230589 290.438345 
L 98.434364 290.392939 
L 98.740027 290.424668 
L 98.841915 290.303358 
L 99.147577 290.575668 
L 99.86079 290.551378 
L 100.064565 290.377909 
L 100.166453 290.434177 
L 100.26834 290.262253 
L 100.675891 290.476136 
L 101.083441 290.577124 
L 101.898542 290.559613 
L 102.81553 290.521793 
L 103.324967 290.624513 
L 103.834405 290.513807 
L 104.03818 290.526182 
L 104.751393 290.532148 
L 105.260831 290.579194 
L 105.872157 290.516038 
L 106.075932 290.543079 
L 106.279707 290.499533 
L 106.891032 290.741573 
L 106.99292 290.700281 
L 107.196695 290.76015 
L 107.40047 290.768803 
L 109.234446 290.588562 
L 109.336334 290.42701 
L 109.743884 290.499263 
L 109.947659 290.522992 
L 110.049547 290.415005 
L 110.151435 290.472795 
L 110.253322 290.342403 
L 110.457097 290.443501 
L 110.558985 290.30651 
L 110.76276 290.439696 
L 110.966535 290.307957 
L 111.475973 290.466199 
L 111.679748 290.488008 
L 111.781636 290.07576 
L 111.883523 290.200324 
L 111.985411 290.081502 
L 112.291073 290.413407 
L 112.392961 290.143216 
L 112.494849 290.217025 
L 112.596736 289.951885 
L 112.800511 289.943654 
L 113.004286 289.669886 
L 113.106174 289.940979 
L 113.208062 289.846953 
L 113.411837 288.828189 
L 113.513724 288.44377 
L 113.615612 289.283213 
L 113.717499 288.469888 
L 113.921275 288.936963 
L 114.023162 288.846957 
L 114.12505 287.972979 
L 114.328825 288.951253 
L 114.430712 288.893468 
L 114.5326 289.311583 
L 114.634487 288.938829 
L 114.736375 289.392545 
L 115.042038 287.393671 
L 115.143925 288.016394 
L 115.245813 287.959156 
L 115.3477 287.176245 
L 115.449588 287.705754 
L 115.551476 286.468967 
L 115.959026 287.596379 
L 116.060913 286.195626 
L 116.162801 287.1481 
L 116.468464 285.603828 
L 116.672239 285.81296 
L 116.876014 283.925307 
L 116.977902 284.724924 
L 117.181677 284.492999 
L 117.487339 281.591345 
L 117.589227 282.253758 
L 117.793002 277.764216 
L 117.996777 281.5292 
L 118.404327 275.63912 
L 118.506215 277.078364 
L 118.70999 275.370059 
L 118.913765 277.619606 
L 119.015653 276.615738 
L 119.219428 277.684191 
L 119.321316 277.618368 
L 119.423203 279.107754 
L 119.626978 275.296039 
L 119.728866 278.174997 
L 119.830753 278.00422 
L 120.136416 275.344157 
L 120.238304 276.622746 
L 120.340191 275.67365 
L 120.442079 273.615185 
L 120.543966 275.081669 
L 120.645854 272.938745 
L 120.747742 274.367308 
L 120.849629 272.847474 
L 120.951517 276.206735 
L 121.155292 274.810276 
L 121.460955 276.912535 
L 121.868505 272.744943 
L 121.970392 271.059219 
L 122.174167 274.093008 
L 122.276055 272.229505 
L 122.47983 273.222883 
L 122.581718 272.991565 
L 122.683605 273.38815 
L 122.785493 271.117835 
L 122.88738 273.109125 
L 122.989268 270.906447 
L 123.091156 274.669029 
L 123.193043 274.611176 
L 123.396818 270.09408 
L 123.600593 270.604523 
L 123.804369 267.170843 
L 124.110031 270.950885 
L 124.313806 261.437106 
L 124.415694 261.665799 
L 124.619469 265.717077 
L 124.823244 264.33138 
L 124.925132 266.500634 
L 125.027019 264.861754 
L 125.332682 266.48674 
L 125.43457 266.242835 
L 125.536457 268.88309 
L 125.740232 265.908564 
L 125.84212 265.730561 
L 125.944007 267.789965 
L 126.147783 264.214425 
L 126.351558 266.883294 
L 126.453445 264.584886 
L 126.555333 266.192868 
L 126.65722 262.948922 
L 126.860996 265.740466 
L 126.962883 263.248862 
L 127.064771 263.419314 
L 127.166658 264.632573 
L 127.268546 264.012695 
L 127.370433 262.259304 
L 127.472321 263.550557 
L 127.574209 263.157567 
L 127.676096 264.276504 
L 127.777984 263.727474 
L 128.083646 255.913036 
L 128.185534 258.252504 
L 128.287422 258.144078 
L 128.491197 255.349138 
L 128.593084 255.568384 
L 128.694972 255.253936 
L 128.898747 260.502402 
L 129.000635 261.49545 
L 129.102522 258.063093 
L 129.20441 259.689967 
L 129.306297 258.937723 
L 129.510072 264.831337 
L 129.61196 259.175086 
L 129.713847 260.228546 
L 129.815735 257.727375 
L 129.917623 257.880315 
L 130.01951 258.992295 
L 130.121398 257.557662 
L 130.325173 261.262523 
L 130.528948 261.613616 
L 130.630836 259.345074 
L 130.732723 260.105444 
L 130.834611 257.497743 
L 130.936498 257.556185 
L 131.038386 256.691122 
L 131.242161 261.896446 
L 131.344049 259.053347 
L 131.445936 259.310734 
L 131.547824 261.317236 
L 131.751599 257.998388 
L 131.853486 257.870771 
L 131.955374 260.012742 
L 132.057262 258.069143 
L 132.159149 261.179248 
L 132.464812 253.653352 
L 132.566699 254.186022 
L 132.770475 247.010058 
L 132.97425 251.335932 
L 133.076137 248.276425 
L 133.279912 251.586368 
L 133.483687 250.008999 
L 133.585575 249.712254 
L 133.687463 250.041472 
L 133.78935 248.235828 
L 133.891238 248.651922 
L 133.993125 252.764558 
L 134.095013 251.604089 
L 134.400676 243.843643 
L 134.502563 243.917528 
L 134.604451 244.207211 
L 134.706338 244.944496 
L 134.910113 242.326869 
L 135.113889 244.980564 
L 135.215776 243.24892 
L 135.419551 244.352412 
L 135.623326 239.583395 
L 135.725214 241.501287 
L 135.827102 238.911633 
L 135.928989 239.774015 
L 136.030877 238.517481 
L 136.132764 239.406648 
L 136.336539 243.226719 
L 136.540315 244.459032 
L 136.74409 239.330337 
L 136.845977 242.030452 
L 136.947865 240.927947 
L 137.15164 235.51745 
L 137.253527 237.166057 
L 137.661078 233.083296 
L 137.864853 240.530137 
L 137.96674 240.248309 
L 138.068628 242.758981 
L 138.170516 241.215458 
L 138.272403 241.386853 
L 138.781841 233.508312 
L 138.883729 233.095715 
L 139.189391 229.136633 
L 139.291279 232.230585 
L 139.393166 231.573629 
L 139.596942 236.35056 
L 139.800717 232.237343 
L 139.902604 232.643048 
L 140.004492 232.449921 
L 140.106379 231.81415 
L 140.412042 236.762995 
L 140.717705 231.37339 
L 140.819592 233.117495 
L 140.92148 231.242922 
L 141.125255 235.365874 
L 141.227143 229.346999 
L 141.430918 231.401231 
L 141.532805 231.230045 
L 141.73658 227.878299 
L 141.838468 229.492636 
L 142.144131 222.505391 
L 142.246018 224.043778 
L 142.347906 223.842056 
L 142.449793 224.304431 
L 142.551681 226.758786 
L 142.653569 224.226328 
L 142.857344 230.521789 
L 142.959231 226.882153 
L 143.061119 227.194453 
L 143.163006 229.748619 
L 143.366782 228.990602 
L 143.468669 225.683301 
L 143.570557 227.211384 
L 143.774332 224.289596 
L 143.876219 224.136522 
L 143.978107 219.234255 
L 144.079995 219.372844 
L 144.28377 226.31193 
L 144.487545 214.855122 
L 144.589432 215.787702 
L 144.793207 224.238475 
L 144.996983 221.749713 
L 145.09887 220.483893 
L 145.302645 222.181094 
L 145.404533 221.842822 
L 145.50642 218.423981 
L 145.608308 218.577974 
L 145.710196 220.193847 
L 145.812083 223.869518 
L 145.913971 221.88063 
L 146.015858 223.449989 
L 146.117746 220.868122 
L 146.219633 224.964442 
L 146.321521 220.453851 
L 146.423409 221.129937 
L 146.627184 216.384816 
L 146.729071 216.18947 
L 146.932846 213.610242 
L 147.034734 216.688682 
L 147.136622 216.560071 
L 147.238509 212.424052 
L 147.340397 213.03553 
L 147.442284 214.869115 
L 147.544172 213.179895 
L 147.747947 214.551384 
L 147.849835 214.382834 
L 147.951722 218.238854 
L 148.257385 202.800771 
L 148.359272 205.565775 
L 148.563047 204.533233 
L 148.664935 206.465114 
L 148.766823 203.755012 
L 148.970598 210.788073 
L 149.072485 208.355236 
L 149.174373 209.865828 
L 149.480036 200.430247 
L 149.581923 204.082888 
L 149.683811 203.558464 
L 149.785698 201.067635 
L 149.887586 206.585079 
L 150.091361 205.536913 
L 150.193249 200.97998 
L 150.397024 202.861279 
L 150.498911 205.656481 
L 150.702686 200.406259 
L 151.008349 204.806773 
L 151.110237 205.444288 
L 151.314012 207.73034 
L 151.619675 203.156101 
L 151.721562 204.289031 
L 151.82345 204.070662 
L 152.027225 196.904178 
L 152.231 203.817595 
L 152.332887 200.789743 
L 152.434775 207.591464 
L 152.536663 202.218183 
L 152.740438 207.681327 
L 152.842325 202.488237 
L 152.944213 205.168982 
L 153.0461 202.195537 
L 153.147988 204.521125 
L 153.249876 204.059645 
L 153.351763 196.90911 
L 153.453651 199.722236 
L 153.555538 194.890533 
L 153.861201 196.373478 
L 153.963089 202.604396 
L 154.064976 200.873454 
L 154.268751 207.253995 
L 154.370639 203.280626 
L 154.472526 206.554243 
L 154.676302 200.59749 
L 154.778189 200.616449 
L 154.880077 203.888748 
L 154.981964 202.304059 
L 155.083852 204.270958 
L 155.389515 201.386228 
L 155.491402 202.165861 
L 155.695177 205.72716 
L 155.797065 203.348679 
L 155.898952 204.068769 
L 156.00084 206.356979 
L 156.102728 202.211128 
L 156.204615 202.276952 
L 156.306503 202.188028 
L 156.510278 192.428648 
L 156.612165 195.138543 
L 156.81594 190.650834 
L 157.019716 201.206343 
L 157.121603 201.713123 
L 157.223491 203.218444 
L 157.325378 206.743158 
L 157.427266 205.202566 
L 157.529153 205.900702 
L 157.631041 200.994128 
L 157.732929 201.707293 
L 157.834816 200.737992 
L 157.936704 193.893481 
L 158.038591 199.081408 
L 158.140479 193.521741 
L 158.242366 199.035903 
L 158.446142 187.274586 
L 158.548029 190.831238 
L 158.649917 190.739425 
L 158.751804 194.975998 
L 158.853692 189.904908 
L 158.955579 191.812462 
L 159.057467 188.239355 
L 159.159355 189.884028 
L 159.261242 184.834558 
L 159.465017 191.279907 
L 159.566905 191.37728 
L 159.668792 191.198065 
L 159.872568 185.352693 
L 159.974455 190.910683 
L 160.280118 180.00578 
L 160.483893 173.748902 
L 160.687668 179.25015 
L 160.789556 179.481936 
L 161.502769 146.186272 
L 161.604656 155.570893 
L 161.808431 150.603002 
L 162.012206 155.361148 
L 162.317869 144.804086 
L 162.521644 132.391442 
L 162.827307 145.905358 
L 162.929195 142.317402 
L 163.031082 146.07377 
L 163.234857 129.351037 
L 163.336745 136.25247 
L 163.438632 135.312592 
L 163.54052 137.363797 
L 163.744295 154.644766 
L 163.94807 141.874702 
L 164.049958 142.822079 
L 164.151845 135.987504 
L 164.253733 140.45323 
L 164.35562 135.249365 
L 164.661283 139.60395 
L 164.865058 136.781174 
L 165.068833 126.316839 
L 165.170721 132.894969 
L 165.272609 130.906628 
L 165.476384 137.962115 
L 165.578271 139.67657 
L 165.782046 129.293222 
L 165.883934 131.756771 
L 166.087709 122.388226 
L 166.291484 129.526458 
L 166.393372 127.883363 
L 166.495259 130.281374 
L 166.597147 128.96928 
L 166.90281 146.550589 
L 167.514135 123.837652 
L 167.616023 132.772158 
L 167.921685 112.378639 
L 168.023573 118.531005 
L 168.12546 114.637634 
L 168.431123 122.242562 
L 168.533011 119.848418 
L 168.736786 130.8337 
L 168.838673 121.707083 
L 168.940561 128.661923 
L 169.042449 127.728829 
L 169.348111 116.648281 
L 169.449999 124.301996 
L 169.551886 123.129058 
L 169.653774 123.745799 
L 169.755662 116.507326 
L 169.857549 120.422351 
L 169.959437 117.519986 
L 170.061324 120.166737 
L 170.163212 114.43114 
L 170.366987 115.607422 
L 170.67265 127.488477 
L 170.876425 110.131479 
L 171.0802 125.283207 
L 171.283975 121.906432 
L 171.385863 115.702407 
L 171.48775 116.589134 
L 171.691525 123.918229 
L 171.793413 123.2684 
L 171.997188 117.064543 
L 172.099076 119.37977 
L 172.200963 116.626946 
L 172.506626 96.657999 
L 172.608513 98.515089 
L 172.812289 107.293603 
L 173.016064 109.25966 
L 173.321726 92.667489 
L 173.525502 104.397271 
L 173.627389 96.397202 
L 173.831164 109.386474 
L 173.933052 106.634291 
L 174.034939 100.486471 
L 174.238715 118.29353 
L 174.340602 110.609404 
L 174.44249 113.075549 
L 174.544377 112.869649 
L 174.646265 112.401369 
L 174.748152 109.019837 
L 174.951928 112.274078 
L 175.053815 104.186189 
L 175.155703 104.764765 
L 175.25759 104.957248 
L 175.359478 108.035776 
L 175.461365 102.644998 
L 175.563253 116.351794 
L 175.767028 101.639746 
L 175.868916 109.281436 
L 175.970803 105.252981 
L 176.072691 112.769818 
L 176.174578 98.168935 
L 176.378353 109.704104 
L 176.684016 96.487718 
L 176.785904 95.928002 
L 177.091566 111.813026 
L 177.295342 101.40875 
L 177.499117 93.77613 
L 177.601004 95.896269 
L 177.804779 104.632773 
L 177.906667 102.887105 
L 178.008555 105.068043 
L 178.110442 101.804572 
L 178.21233 103.617356 
L 178.314217 91.358778 
L 178.416105 100.317357 
L 178.517992 90.917087 
L 178.721768 94.803544 
L 179.02743 85.938611 
L 179.129318 91.818181 
L 179.231205 106.194356 
L 179.333093 104.529305 
L 179.536868 91.523093 
L 179.638756 87.964221 
L 179.740643 90.378735 
L 179.944418 101.100084 
L 180.046306 90.640558 
L 180.148193 95.16715 
L 180.250081 92.778414 
L 180.453856 114.298911 
L 180.759519 94.587798 
L 180.861406 92.075713 
L 181.065182 98.150125 
L 181.167069 80.195611 
L 181.268957 87.559943 
L 181.370844 83.172455 
L 181.676507 98.625173 
L 181.880282 84.269102 
L 181.98217 87.672788 
L 182.084057 82.405533 
L 182.185945 85.066147 
L 182.287832 75.29005 
L 182.491608 80.46875 
L 182.695383 64.463317 
L 182.79727 66.364693 
L 183.001045 63.670732 
L 183.20482 70.988 
L 183.306708 70.634225 
L 183.408596 65.779914 
L 183.510483 67.586494 
L 183.612371 61.818016 
L 184.019921 81.8526 
L 184.121809 81.806135 
L 184.223696 82.520573 
L 184.325584 85.918941 
L 184.631246 75.344791 
L 184.733134 73.082151 
L 184.835022 66.95593 
L 185.140684 77.275229 
L 185.344459 72.895494 
L 185.446347 74.244653 
L 185.548235 81.631237 
L 185.650122 80.263522 
L 185.75201 84.767114 
L 185.853897 83.706211 
L 185.955785 85.346585 
L 186.057672 100.570103 
L 186.363335 75.843442 
L 186.465223 73.086956 
L 186.872773 82.729055 
L 187.076548 72.459908 
L 187.178436 74.839538 
L 187.280323 68.0355 
L 187.484098 79.818076 
L 187.585986 79.677079 
L 187.687873 79.148307 
L 187.789761 71.706989 
L 187.891649 74.830826 
L 187.993536 74.499683 
L 188.095424 82.629952 
L 188.197311 76.863324 
L 188.299199 77.481766 
L 188.401086 71.146641 
L 188.502974 76.724032 
L 188.604862 67.42271 
L 188.706749 68.74994 
L 188.808637 64.463379 
L 189.012412 71.045369 
L 189.114299 68.878383 
L 189.216187 78.037662 
L 189.52185 64.055267 
L 189.623737 75.282833 
L 189.725625 74.241828 
L 189.827512 75.020459 
L 189.9294 79.274158 
L 190.235063 71.73792 
L 190.33695 70.132029 
L 190.438838 71.188663 
L 190.7445 63.597497 
L 190.846388 65.807406 
L 191.050163 77.74539 
L 191.152051 79.15056 
L 191.355826 63.524997 
L 191.457713 64.703037 
L 191.559601 70.656729 
L 191.661489 63.918944 
L 191.865264 78.752797 
L 192.069039 65.05752 
L 192.272814 72.780905 
L 192.374702 71.73227 
L 192.476589 70.703984 
L 192.578477 79.48292 
L 192.680364 77.664765 
L 192.884139 67.029696 
L 193.087915 60.369507 
L 193.189802 63.098174 
L 193.29169 59.78758 
L 193.393577 67.256228 
L 193.495465 60.508165 
L 193.597352 60.839517 
L 193.801128 56.993504 
L 193.903015 62.164987 
L 194.004903 56.130094 
L 194.10679 57.111119 
L 194.208678 53.48576 
L 194.310565 53.96071 
L 194.412453 65.751538 
L 194.51434 65.106869 
L 194.820003 61.544432 
L 194.921891 60.358236 
L 195.023778 66.102203 
L 195.125666 65.142286 
L 195.329441 60.388224 
L 195.431329 58.720859 
L 195.533216 59.120912 
L 195.635104 56.058818 
L 195.838879 66.414539 
L 195.940766 63.60102 
L 196.144542 67.236265 
L 196.246429 61.300154 
L 196.348317 66.537429 
L 196.450204 64.83661 
L 196.552092 60.849733 
L 196.653979 69.388403 
L 196.857755 66.844555 
L 196.959642 59.425133 
L 197.163417 61.008696 
L 197.265305 60.254176 
L 197.367192 61.008015 
L 197.46908 52.875045 
L 197.570968 55.991871 
L 197.774743 54.504034 
L 197.87663 54.697566 
L 198.182293 66.486474 
L 198.28418 63.807972 
L 198.487956 69.63103 
L 198.589843 66.030613 
L 198.691731 73.128057 
L 198.895506 66.302617 
L 198.997393 73.770523 
L 199.099281 72.851128 
L 199.303056 67.681134 
L 199.404944 66.821918 
L 199.506831 69.081984 
L 199.608719 64.709161 
L 199.710606 65.81763 
L 199.812494 60.778459 
L 199.914382 64.651236 
L 200.016269 64.201093 
L 200.118157 61.940367 
L 200.220044 64.2699 
L 200.321932 58.559312 
L 200.525707 67.031302 
L 200.627595 63.723383 
L 200.729482 70.516923 
L 200.83137 70.250641 
L 200.933257 63.82718 
L 201.137032 68.072166 
L 201.23892 67.867428 
L 201.340808 70.943717 
L 201.442695 65.409681 
L 201.544583 66.245702 
L 201.64647 62.020911 
L 201.952133 85.000093 
L 202.05402 81.135257 
L 202.155908 80.169608 
L 202.257796 74.786727 
L 202.359683 75.196443 
L 202.461571 73.615527 
L 202.563458 78.278776 
L 202.665346 68.75223 
L 202.767233 77.419535 
L 202.971009 72.126977 
L 203.174784 57.02234 
L 203.276671 58.090235 
L 203.378559 57.523973 
L 203.480446 60.44598 
L 203.684222 71.434894 
L 203.887997 62.338547 
L 203.989884 63.224223 
L 204.091772 63.621578 
L 204.193659 68.599709 
L 204.499322 54.374495 
L 204.60121 59.687922 
L 204.703097 59.048863 
L 204.906872 63.16357 
L 205.00876 65.846162 
L 205.212535 75.50911 
L 205.41631 68.830142 
L 205.518198 68.060265 
L 205.721973 58.908762 
L 205.82386 58.640421 
L 205.925748 59.576656 
L 206.027636 64.135247 
L 206.231411 58.339053 
L 206.435186 62.622017 
L 206.537073 61.037144 
L 206.638961 62.370404 
L 206.842736 61.39097 
L 206.944624 58.958185 
L 207.046511 64.195594 
L 207.352174 58.249922 
L 207.555949 56.681931 
L 207.759724 56.984236 
L 207.861612 59.400006 
L 208.065387 55.477277 
L 208.167275 59.87729 
L 208.574825 50.663001 
L 208.676712 56.086448 
L 208.7786 55.822991 
L 208.880488 51.980174 
L 208.982375 52.455814 
L 209.084263 55.687485 
L 209.18615 49.466475 
L 209.389925 62.337925 
L 209.797476 49.602369 
L 209.899363 57.317052 
L 210.103138 53.767088 
L 210.205026 58.169394 
L 210.510689 53.947221 
L 210.714464 57.228539 
L 210.816351 54.351168 
L 210.918239 61.916073 
L 211.020126 60.208562 
L 211.122014 52.996746 
L 211.427677 61.402308 
L 211.529564 65.599356 
L 211.733339 48.390156 
L 211.835227 57.638832 
L 211.937115 56.50874 
L 212.039002 56.801586 
L 212.14089 53.117925 
L 212.242777 54.064087 
L 212.344665 48.203164 
L 212.54844 52.923516 
L 212.752215 48.097057 
L 212.95599 54.703921 
L 213.057878 53.302265 
L 213.261653 70.087351 
L 213.363541 64.588475 
L 213.465428 76.951081 
L 213.669203 64.397019 
L 213.872978 74.222983 
L 214.076753 61.347374 
L 214.178641 62.485782 
L 214.280529 66.593088 
L 214.382416 60.66764 
L 214.484304 63.131334 
L 214.586191 57.158386 
L 214.688079 63.880658 
L 214.789966 57.320753 
L 214.891854 61.130274 
L 214.993742 54.809927 
L 215.095629 58.135813 
L 215.299404 50.139937 
L 215.503179 56.527043 
L 215.605067 52.493427 
L 215.706955 52.629237 
L 215.808842 55.711669 
L 215.91073 51.057961 
L 216.012617 57.153786 
L 216.216392 53.806582 
L 216.31828 55.406414 
L 216.420168 52.560321 
L 216.522055 56.146887 
L 216.72583 47.959216 
L 216.827718 49.231353 
L 216.929605 47.528146 
L 217.031493 48.400688 
L 217.133381 46.15963 
L 217.235268 40.939857 
L 217.642818 58.89801 
L 217.744706 55.196554 
L 217.846593 55.490985 
L 217.948481 55.51171 
L 218.050369 51.220136 
L 218.152256 53.338078 
L 218.356031 46.507699 
L 218.457919 49.495799 
L 218.559806 47.967122 
L 218.661694 51.060295 
L 218.865469 47.774925 
L 219.069244 50.337145 
L 219.171132 45.403398 
L 219.374907 52.377935 
L 219.476795 48.021007 
L 219.578682 54.837987 
L 219.986232 48.902844 
L 220.08812 50.252361 
L 220.190008 50.0193 
L 220.291895 47.306424 
L 220.699445 61.821642 
L 220.801333 61.051461 
L 221.005108 50.280172 
L 221.106996 62.763361 
L 221.208883 61.028551 
L 221.412658 52.951171 
L 221.514546 53.080493 
L 221.616433 50.354203 
L 221.718321 63.501165 
L 221.820209 62.817401 
L 221.922096 58.241101 
L 222.023984 47.671276 
L 222.125871 49.044471 
L 222.227759 46.154107 
L 222.329646 50.57508 
L 222.431534 46.527262 
L 222.635309 51.054509 
L 222.737197 46.854851 
L 222.940972 53.602505 
L 223.042859 47.286169 
L 223.246635 61.33833 
L 223.552297 49.556235 
L 223.654185 48.948582 
L 223.85796 43.499074 
L 223.959848 45.563607 
L 224.061735 52.308589 
L 224.163623 51.171349 
L 224.26551 53.156702 
L 224.469285 51.291504 
L 224.571173 53.464175 
L 224.673061 63.14602 
L 224.978723 50.151196 
L 225.080611 54.067713 
L 225.284386 50.364246 
L 225.488161 58.318465 
L 225.590049 53.061793 
L 225.691936 60.507172 
L 225.793824 57.313391 
L 225.895711 63.570377 
L 225.997599 60.333409 
L 226.201374 51.581728 
L 226.303262 53.327436 
L 226.405149 51.109537 
L 226.507037 58.260671 
L 226.608924 56.785362 
L 226.710812 60.400702 
L 227.118362 47.13871 
L 227.22025 57.114634 
L 227.424025 50.473671 
L 227.525912 57.463055 
L 227.6278 54.226289 
L 227.729688 58.35176 
L 227.831575 56.542212 
L 228.03535 50.804615 
L 228.137238 53.513891 
L 228.239125 48.233797 
L 228.341013 49.703305 
L 228.442901 53.626667 
L 228.544788 53.405637 
L 228.748563 54.435668 
L 228.952338 49.312217 
L 229.054226 51.384817 
L 229.156113 49.351413 
L 229.258001 51.40863 
L 229.359889 51.231666 
L 229.563664 48.243885 
L 229.767439 55.560181 
L 230.073102 46.536107 
L 230.174989 46.824803 
L 230.276877 43.917408 
L 230.480652 48.276214 
L 230.582539 47.918437 
L 230.684427 47.111502 
L 230.786315 47.249088 
L 230.888202 46.325005 
L 230.99009 49.227474 
L 231.193865 44.858757 
L 231.39764 54.109633 
L 231.601415 46.885118 
L 231.703303 44.640996 
L 231.907078 50.982741 
L 232.008965 48.308 
L 232.110853 52.053951 
L 232.314628 50.563471 
L 232.518403 54.940004 
L 232.824066 44.641867 
L 232.925953 46.372485 
L 233.027841 51.538907 
L 233.231616 40.552125 
L 233.741054 52.36382 
L 233.842942 48.480782 
L 233.944829 58.343333 
L 234.148604 51.610598 
L 234.352379 44.918573 
L 234.454267 44.97443 
L 234.556155 52.878821 
L 234.658042 47.076369 
L 234.861817 64.509457 
L 234.963705 63.187696 
L 235.16748 57.657778 
L 235.269368 58.168114 
L 235.473143 63.550853 
L 235.676918 57.193334 
L 235.778805 50.158741 
L 235.778805 50.158741 
" clip-path="url(#pa8ee84fdc7)" style="fill: none; stroke: #1f77b4; stroke-width: 1.5; stroke-linecap: square"/>
   </g>
   <g id="line2d_22">
    <path d="M 90.792797 292.418507 
L 94.460749 291.817713 
L 95.072074 291.750076 
L 95.6834 291.705429 
L 96.09095 291.667658 
L 96.4985 291.712554 
L 97.109826 291.569539 
L 97.721151 291.61066 
L 98.536252 291.528182 
L 99.351352 291.606503 
L 99.555127 291.680811 
L 99.758903 291.576134 
L 100.777778 291.772102 
L 100.981553 291.647387 
L 101.185329 291.672435 
L 101.592879 291.442733 
L 102.000429 291.563264 
L 103.63063 292.070391 
L 109.540109 292.320412 
L 109.947659 292.346185 
L 110.76276 292.378071 
L 111.985411 292.387459 
L 118.098665 292.469773 
L 120.951517 292.289104 
L 121.562842 292.282531 
L 122.174167 292.249507 
L 123.600593 292.230432 
L 124.211919 292.232428 
L 124.619469 292.203341 
L 125.638345 292.263541 
L 126.453445 292.168944 
L 199.201169 292.099409 
L 199.812494 292.100146 
L 202.869121 292.047218 
L 203.684222 292.019173 
L 204.906872 292.086258 
L 205.721973 292.045432 
L 206.740849 292.038883 
L 207.963499 292.04984 
L 208.574825 291.970995 
L 209.389925 292.054467 
L 210.205026 292.020161 
L 214.688079 291.981225 
L 217.133381 292.031149 
L 225.284386 292.061283 
L 226.099486 292.08471 
L 227.525912 292.034368 
L 227.933463 292.083947 
L 228.952338 292.093807 
L 234.046717 292.099646 
L 235.676918 292.107235 
L 236.084468 292.040631 
L 239.956196 292.062124 
L 240.363746 292.014937 
L 241.586397 292.005335 
L 242.197722 292.078896 
L 244.235473 292.031282 
L 244.643024 292.003226 
L 245.254349 292.036388 
L 245.865675 292.04371 
L 247.495876 292.015113 
L 250.348728 292.079666 
L 251.163828 292.041953 
L 259.518609 292.058708 
L 260.537484 292.047287 
L 261.760135 292.055375 
L 265.835638 292.061352 
L 267.058289 292.081941 
L 272.967768 292.114213 
L 273.375318 292.092642 
L 274.597969 292.109817 
L 275.413069 292.085457 
L 275.820619 292.111658 
L 277.247045 292.117021 
L 278.877246 292.096567 
L 280.507448 292.077088 
L 281.526323 292.058258 
L 282.341424 292.089122 
L 283.360299 292.076789 
L 283.971625 292.052282 
L 285.194276 292.081893 
L 289.066003 292.064175 
L 293.956606 292.10394 
L 295.383032 292.109196 
L 296.401908 292.100527 
L 297.624559 292.104593 
L 298.439659 292.081451 
L 299.458535 292.066162 
L 311.073718 292.113913 
L 315.149221 292.127211 
L 315.964321 292.075265 
L 320.243599 292.145337 
L 320.854924 292.10963 
L 326.560628 292.129006 
L 332.062557 292.094003 
L 333.488983 292.138447 
L 334.915409 292.139401 
L 335.730509 292.147745 
L 337.768261 292.139893 
L 339.398462 292.133294 
L 340.417337 292.087952 
L 342.862639 292.163105 
L 343.677739 292.102859 
L 344.696615 292.119327 
L 345.919266 292.155648 
L 348.568343 292.072312 
L 348.975893 292.063663 
L 348.975893 292.063663 
" clip-path="url(#pa8ee84fdc7)" style="fill: none; stroke: #ff7f0e; stroke-width: 1.5; stroke-linecap: square"/>
   </g>
   <g id="line2d_23">
    <path d="M 91.047516 292.287599 
L 97.007938 291.747154 
L 97.466432 291.520571 
L 98.841915 291.559517 
L 100.217397 291.357864 
L 101.134385 290.760613 
L 102.051373 289.514036 
L 102.509867 287.310043 
L 102.968361 285.680823 
L 103.426855 287.347392 
L 103.885349 286.993242 
L 104.343843 287.563226 
L 105.260831 286.813392 
L 106.177819 282.979593 
L 106.636313 283.269304 
L 107.094807 281.921167 
L 107.553302 281.070544 
L 108.011796 279.221985 
L 108.47029 275.921904 
L 108.928784 275.627002 
L 109.387278 276.953049 
L 109.845772 273.723539 
L 110.304266 274.949689 
L 110.76276 274.309644 
L 111.221254 274.920431 
L 111.679748 276.026005 
L 112.138242 274.662372 
L 112.596736 277.191372 
L 113.972218 273.661438 
L 114.430712 271.847994 
L 115.3477 274.158629 
L 115.806195 273.26402 
L 116.264689 271.14645 
L 116.723183 271.440469 
L 117.181677 271.173804 
L 117.640171 269.255177 
L 118.098665 270.225732 
L 118.557159 268.503327 
L 119.015653 268.410043 
L 119.474147 268.456187 
L 119.932641 262.418379 
L 120.391135 260.897766 
L 120.849629 263.741257 
L 121.308123 264.605079 
L 121.766617 266.43965 
L 122.225111 263.66307 
L 122.683605 262.484719 
L 123.142099 263.416135 
L 123.600593 265.519376 
L 124.059087 264.985703 
L 124.517582 263.776257 
L 124.976076 265.296505 
L 125.43457 264.75195 
L 125.893064 263.486758 
L 126.351558 264.215427 
L 126.810052 264.007341 
L 127.268546 262.777365 
L 128.185534 264.617849 
L 129.102522 262.123135 
L 129.561016 262.010948 
L 130.01951 259.677185 
L 130.478004 259.941427 
L 130.936498 262.125134 
L 131.394992 261.778744 
L 131.853486 262.362849 
L 132.31198 262.296724 
L 132.770475 259.305989 
L 133.228969 258.864928 
L 133.687463 259.14651 
L 134.145957 260.954063 
L 134.604451 260.524279 
L 135.062945 261.618676 
L 135.979933 259.994802 
L 136.438427 256.647986 
L 136.896921 259.01132 
L 137.355415 259.082283 
L 137.813909 261.690542 
L 138.272403 258.982322 
L 138.730897 260.186724 
L 139.189391 258.799355 
L 139.647885 256.279128 
L 140.106379 256.986794 
L 140.564873 259.114674 
L 141.481862 258.266012 
L 141.940356 257.601325 
L 142.39885 257.502029 
L 143.315838 256.548896 
L 143.774332 257.853155 
L 144.232826 258.679229 
L 144.69132 256.526679 
L 145.149814 256.498268 
L 145.608308 256.792919 
L 146.066802 255.231687 
L 146.525296 255.622462 
L 146.98379 256.963788 
L 147.442284 256.654803 
L 147.900778 257.831095 
L 148.359272 257.352572 
L 148.817766 258.607181 
L 149.27626 259.092785 
L 149.734755 258.112111 
L 150.193249 258.580646 
L 150.651743 255.700929 
L 151.110237 255.019388 
L 151.568731 255.187527 
L 152.027225 253.273277 
L 152.485719 254.072199 
L 152.944213 253.571707 
L 153.402707 255.651739 
L 153.861201 256.21591 
L 154.319695 256.260982 
L 154.778189 258.850859 
L 155.236683 256.061585 
L 155.695177 256.076215 
L 156.153671 255.934945 
L 156.612165 256.138502 
L 157.070659 254.672464 
L 157.529153 252.554047 
L 157.987648 252.68617 
L 158.446142 251.013221 
L 159.36313 255.523654 
L 159.821624 254.338103 
L 160.280118 256.148174 
L 160.738612 254.581613 
L 161.197106 255.899574 
L 161.6556 255.589278 
L 162.114094 255.75246 
L 162.572588 252.873515 
L 163.031082 253.588883 
L 163.489576 253.684235 
L 163.94807 255.291416 
L 164.406564 254.643436 
L 164.865058 252.082152 
L 165.323552 254.6055 
L 165.782046 255.675205 
L 166.699035 252.790755 
L 167.157529 251.838753 
L 167.616023 254.666333 
L 168.074517 255.005712 
L 168.533011 252.890963 
L 168.991505 254.173958 
L 169.449999 254.003674 
L 170.366987 254.585272 
L 170.825481 252.852081 
L 171.283975 253.749587 
L 171.742469 253.254905 
L 172.659457 251.45033 
L 173.117951 253.170089 
L 174.034939 251.342511 
L 174.493433 249.660793 
L 174.951928 249.949138 
L 175.410422 248.511072 
L 175.868916 249.57197 
L 176.32741 246.755009 
L 176.785904 248.171063 
L 177.244398 247.565016 
L 177.702892 247.628734 
L 178.161386 249.339386 
L 178.61988 246.287358 
L 179.078374 246.535057 
L 179.536868 248.564364 
L 179.995362 248.732464 
L 180.453856 247.641711 
L 180.91235 246.248007 
L 181.370844 246.276054 
L 181.829338 245.623212 
L 182.287832 245.6166 
L 182.746326 249.157823 
L 183.20482 249.639983 
L 183.663315 249.679599 
L 184.121809 247.887775 
L 184.580303 248.796562 
L 185.038797 247.931206 
L 185.497291 246.585544 
L 185.955785 247.673464 
L 186.414279 247.107065 
L 186.872773 245.484036 
L 187.331267 246.356971 
L 187.789761 247.970562 
L 188.248255 245.570155 
L 188.706749 244.970386 
L 189.165243 244.858479 
L 189.623737 245.516437 
L 190.082231 250.657684 
L 190.540725 248.915213 
L 190.999219 246.566014 
L 191.457713 244.935325 
L 191.916208 244.337603 
L 192.374702 244.995327 
L 192.833196 246.052914 
L 193.29169 248.838642 
L 193.750184 248.071879 
L 194.208678 251.353357 
L 194.667172 250.924382 
L 195.125666 249.737723 
L 195.58416 246.799318 
L 196.042654 245.935421 
L 196.501148 244.236661 
L 196.959642 245.85446 
L 197.418136 246.39469 
L 197.87663 245.331987 
L 198.335124 245.886837 
L 199.252112 243.572623 
L 199.710606 242.729801 
L 200.1691 243.481111 
L 200.627595 242.972634 
L 201.086089 243.44813 
L 201.544583 244.243838 
L 202.003077 243.090304 
L 202.461571 242.828184 
L 203.378559 245.467106 
L 203.837053 243.936309 
L 204.295547 244.141661 
L 205.212535 241.282454 
L 205.671029 242.449409 
L 206.129523 243.013551 
L 206.588017 243.248143 
L 207.046511 243.031938 
L 207.505005 241.902385 
L 207.963499 242.784465 
L 208.421993 243.236082 
L 208.880488 242.395627 
L 209.338982 243.21012 
L 209.797476 241.944086 
L 210.25597 243.050297 
L 210.714464 241.514048 
L 211.172958 241.287021 
L 211.631452 242.891223 
L 212.089946 242.461804 
L 212.54844 242.280624 
L 213.006934 244.665163 
L 213.923922 244.230665 
L 214.382416 242.549221 
L 214.84091 243.537782 
L 215.299404 243.624126 
L 215.757898 244.101599 
L 216.216392 241.873858 
L 216.674886 242.387207 
L 217.133381 240.940745 
L 217.591875 243.223063 
L 218.050369 242.889448 
L 218.508863 241.215713 
L 218.967357 241.965179 
L 219.425851 243.756504 
L 219.884345 244.795464 
L 220.342839 244.669165 
L 220.801333 245.397239 
L 221.259827 244.926438 
L 221.718321 243.300656 
L 222.176815 241.049829 
L 222.635309 241.379724 
L 223.093803 241.320618 
L 223.552297 241.917125 
L 224.010791 241.39508 
L 224.469285 241.936515 
L 224.927779 240.627721 
L 225.386273 239.754296 
L 225.844768 242.42755 
L 226.303262 244.01402 
L 226.761756 243.566128 
L 227.22025 241.152102 
L 227.678744 239.583253 
L 228.137238 240.277242 
L 228.595732 242.377523 
L 229.51272 240.965956 
L 229.971214 241.020608 
L 230.429708 242.586654 
L 230.888202 242.7399 
L 231.346696 240.669442 
L 231.80519 241.092277 
L 232.263684 239.64491 
L 232.722178 237.721207 
L 233.180672 237.636632 
L 233.639166 237.315247 
L 234.097661 238.876724 
L 234.556155 238.794322 
L 235.014649 240.909359 
L 235.473143 240.216692 
L 235.931637 240.007313 
L 236.390131 239.339539 
L 236.848625 239.66724 
L 237.307119 239.271675 
L 237.765613 240.291311 
L 238.224107 238.566753 
L 238.682601 239.630458 
L 239.141095 240.350014 
L 239.599589 239.630259 
L 240.058083 241.05953 
L 240.516577 241.655323 
L 240.975071 239.613522 
L 241.433565 240.322098 
L 241.892059 239.100546 
L 242.809048 237.749154 
L 243.267542 237.217025 
L 243.726036 237.628278 
L 244.18453 239.328988 
L 244.643024 238.874594 
L 245.560012 236.999266 
L 246.018506 237.15054 
L 246.477 238.057852 
L 246.935494 236.1954 
L 247.393988 236.295467 
L 247.852482 237.727528 
L 248.310976 239.970313 
L 248.76947 239.237976 
L 249.686458 236.74163 
L 250.144952 236.337355 
L 250.603446 236.354696 
L 251.520435 239.730774 
L 251.978929 239.013849 
L 252.437423 240.27889 
L 252.895917 239.522508 
L 253.354411 239.339279 
L 254.271399 237.188177 
L 254.729893 237.90363 
L 255.188387 238.104174 
L 255.646881 237.504404 
L 256.105375 236.413052 
L 256.563869 237.469579 
L 257.022363 238.123333 
L 257.480857 237.332204 
L 257.939351 239.640637 
L 258.397845 237.88468 
L 258.856339 237.284804 
L 259.773328 240.060879 
L 260.231822 238.140126 
L 260.690316 239.230454 
L 261.14881 237.88039 
L 261.607304 239.298132 
L 262.065798 238.661559 
L 262.982786 236.591657 
L 263.44128 236.979938 
L 263.899774 237.833694 
L 264.358268 236.737525 
L 264.816762 236.577701 
L 265.275256 236.90812 
L 265.73375 238.641053 
L 266.192244 237.203143 
L 267.109232 236.712317 
L 267.567726 236.643716 
L 268.026221 237.231726 
L 268.484715 237.076689 
L 268.943209 237.611683 
L 269.401703 237.400635 
L 269.860197 237.979297 
L 270.318691 238.824119 
L 270.777185 238.343221 
L 271.235679 238.493696 
L 272.152667 236.252836 
L 272.611161 235.677384 
L 273.069655 237.00669 
L 273.528149 235.906823 
L 273.986643 236.539202 
L 274.445137 236.123891 
L 274.903631 236.858737 
L 275.362125 238.059109 
L 275.820619 237.056293 
L 276.279114 238.57285 
L 276.737608 239.320996 
L 277.196102 240.86517 
L 277.654596 239.386366 
L 278.11309 236.888512 
L 278.571584 236.797041 
L 279.030078 236.35652 
L 279.488572 237.002624 
L 279.947066 235.045389 
L 280.40556 236.540754 
L 280.864054 235.445745 
L 281.781042 239.664779 
L 282.69803 239.880705 
L 283.156524 238.067905 
L 283.615018 239.059997 
L 284.073512 236.926421 
L 284.532006 235.985198 
L 284.990501 235.566719 
L 285.448995 234.4014 
L 285.907489 235.115916 
L 286.365983 236.238323 
L 286.824477 236.422639 
L 287.282971 235.745962 
L 287.741465 235.716635 
L 288.199959 236.125264 
L 288.658453 236.050139 
L 289.116947 235.829927 
L 289.575441 234.629477 
L 290.033935 235.260846 
L 290.492429 234.215177 
L 290.950923 234.405963 
L 291.409417 235.007018 
L 291.867911 236.601083 
L 292.326405 236.312374 
L 292.784899 234.739393 
L 293.243394 236.929296 
L 293.701888 235.054243 
L 294.160382 235.940978 
L 294.618876 235.561336 
L 295.07737 235.691394 
L 295.535864 234.455002 
L 295.994358 234.257344 
L 296.452852 235.266959 
L 296.911346 235.210785 
L 297.36984 234.501813 
L 297.828334 235.14638 
L 298.286828 235.565541 
L 298.745322 236.934924 
L 299.203816 235.648472 
L 299.66231 235.926723 
L 300.120804 235.492614 
L 300.579298 235.671801 
L 301.037792 234.381339 
L 301.496286 233.528296 
L 301.954781 234.396387 
L 302.871769 235.196104 
L 303.330263 235.078043 
L 303.788757 234.122792 
L 304.247251 233.999061 
L 304.705745 234.251386 
L 305.164239 235.366797 
L 305.622733 234.114273 
L 306.081227 234.628306 
L 306.539721 234.019562 
L 306.998215 234.799069 
L 307.456709 234.378839 
L 307.915203 234.536595 
L 308.373697 234.510585 
L 308.832191 234.036561 
L 309.290685 234.831604 
L 310.207674 233.436847 
L 310.666168 233.28354 
L 311.124662 234.592466 
L 311.583156 234.626067 
L 312.04165 233.375786 
L 312.500144 234.295108 
L 312.958638 233.417113 
L 313.417132 233.440189 
L 313.875626 233.612933 
L 314.792614 234.355984 
L 315.251108 233.755158 
L 315.709602 234.933814 
L 316.168096 234.98766 
L 316.62659 234.566873 
L 317.085084 234.306219 
L 317.543578 235.49907 
L 318.002072 235.951816 
L 318.460566 235.873051 
L 318.919061 238.035156 
L 319.377555 237.475011 
L 319.836049 236.581346 
L 320.294543 235.232278 
L 320.753037 235.886023 
L 321.211531 235.23426 
L 321.670025 234.969739 
L 322.128519 234.041525 
L 322.587013 233.617262 
L 323.045507 232.835904 
L 323.504001 234.165863 
L 323.962495 235.061241 
L 324.420989 234.758175 
L 324.879483 234.838562 
L 325.337977 234.496967 
L 325.796471 234.535033 
L 326.254965 235.271755 
L 326.713459 235.169576 
L 327.171954 234.930924 
L 327.630448 235.339592 
L 328.088942 236.475872 
L 328.547436 235.9313 
L 329.00593 236.862688 
L 330.381412 234.149591 
L 330.839906 234.366506 
L 331.2984 233.522625 
L 331.756894 233.821978 
L 333.132376 235.738611 
L 333.59087 236.23775 
L 334.049364 234.233449 
L 334.507858 233.087295 
L 334.966352 234.216305 
L 335.424847 234.852636 
L 335.883341 235.137611 
L 336.341835 234.89851 
L 336.800329 233.845887 
L 337.258823 233.48011 
L 337.717317 234.450897 
L 338.175811 234.545645 
L 338.634305 233.675869 
L 339.092799 233.441308 
L 339.551293 234.583197 
L 340.468281 234.04155 
L 340.926775 234.751187 
L 341.385269 235.219126 
L 341.843763 234.255047 
L 342.302257 234.300077 
L 342.760751 233.909402 
L 343.219245 234.056644 
L 343.677739 232.907053 
L 344.136234 234.388094 
L 344.594728 233.921424 
L 345.053222 233.681909 
L 345.511716 233.640303 
L 345.97021 233.064035 
L 346.428704 233.010687 
L 346.887198 233.367769 
L 347.345692 233.496152 
L 347.804186 233.889273 
L 348.26268 234.04852 
L 348.721174 234.929912 
L 349.179668 234.126923 
L 349.638162 234.229133 
L 350.096656 233.487522 
L 350.55515 233.550197 
L 351.013644 232.66578 
L 351.472138 233.037627 
L 351.930632 232.37468 
L 352.389127 232.78507 
L 352.847621 232.666418 
L 353.306115 233.495854 
L 353.764609 232.505425 
L 354.223103 233.305335 
L 355.140091 232.551601 
L 355.598585 232.304137 
L 356.057079 232.831987 
L 356.515573 233.086937 
L 356.974067 233.856028 
L 357.432561 233.106417 
L 357.891055 233.034576 
L 358.349549 232.388881 
L 358.808043 233.423083 
L 359.266537 233.177679 
L 359.725031 232.514888 
L 360.183525 233.081043 
L 360.642019 232.894667 
L 361.100514 233.024223 
L 362.017502 232.948398 
L 362.475996 233.446839 
L 362.93449 232.943224 
L 363.392984 232.159873 
L 363.851478 232.859695 
L 364.309972 232.244389 
L 364.768466 232.746034 
L 365.22696 232.96755 
L 365.685454 232.553956 
L 366.143948 233.16096 
L 366.602442 232.77549 
L 367.51943 233.117475 
L 367.977924 233.694979 
L 368.894912 233.474781 
L 369.353407 233.169225 
L 369.811901 233.90388 
L 370.270395 233.98688 
L 370.728889 233.745475 
L 371.187383 233.065581 
L 371.645877 233.777917 
L 372.104371 233.86502 
L 372.562865 233.570192 
L 373.021359 233.53278 
L 373.479853 234.24679 
L 373.938347 234.386824 
L 374.396841 234.050021 
L 374.855335 234.626237 
L 375.772323 233.308609 
L 376.230817 233.878113 
L 376.689311 234.013358 
L 377.147805 234.711836 
L 377.6063 234.151014 
L 378.064794 233.978006 
L 378.523288 233.349223 
L 378.981782 234.062591 
L 379.440276 233.538103 
L 379.89877 233.183708 
L 380.357264 234.675062 
L 380.815758 234.168729 
L 381.274252 233.007011 
L 381.732746 232.767962 
L 382.19124 233.303789 
L 382.649734 232.458579 
L 383.108228 232.66842 
L 383.566722 232.550751 
L 384.025216 232.210375 
L 384.942204 234.012534 
L 385.400698 234.129343 
L 385.859192 233.444566 
L 386.317687 233.058734 
L 386.776181 233.488247 
L 387.234675 233.414687 
L 387.693169 233.706937 
L 388.151663 233.554874 
L 388.610157 234.253225 
L 389.068651 234.422874 
L 389.527145 233.278558 
L 389.985639 233.187295 
L 390.444133 232.857497 
L 390.902627 233.008261 
L 391.361121 234.770312 
L 391.819615 235.279067 
L 392.736603 233.305613 
L 393.195097 233.692164 
L 393.653591 233.023438 
L 394.112085 232.878508 
L 394.57058 233.340671 
L 395.487568 232.53979 
L 395.946062 232.631577 
L 396.86305 231.854549 
L 397.321544 233.544003 
L 397.780038 233.74907 
L 398.238532 232.767871 
L 398.697026 232.095998 
L 399.15552 232.246853 
L 400.072508 232.21663 
L 400.531002 232.901059 
L 400.989496 233.08663 
L 401.44799 232.941945 
L 401.906484 233.436288 
L 402.364978 232.967352 
L 403.281967 232.509901 
L 403.740461 232.474265 
L 404.198955 233.428723 
L 404.657449 232.928244 
L 405.115943 233.458694 
L 405.574437 233.313155 
L 406.032931 232.981096 
L 406.491425 233.241705 
L 406.949919 232.521425 
L 407.408413 232.290312 
L 407.866907 232.874064 
L 408.325401 232.175588 
L 408.783895 232.093608 
L 409.700883 231.583323 
L 410.159377 232.237053 
L 410.617871 231.901498 
L 411.076365 232.853159 
L 411.53486 232.599245 
L 411.993354 234.923119 
L 412.451848 233.447022 
L 412.910342 233.555539 
L 413.368836 233.962982 
L 414.285824 233.605898 
L 414.744318 233.705007 
L 415.202812 233.234754 
L 416.1198 233.070802 
L 416.578294 232.903372 
L 417.036788 233.284748 
L 417.953776 233.326415 
L 419.329258 231.793143 
L 419.787752 232.068227 
L 420.246247 231.738294 
L 420.704741 231.620922 
L 421.163235 232.528569 
L 421.621729 233.065472 
L 422.538717 233.088943 
L 422.997211 233.575831 
L 423.914199 232.510975 
L 424.372693 232.573515 
L 424.831187 232.949418 
L 425.289681 232.513792 
L 425.748175 232.705165 
L 426.206669 234.28539 
L 426.665163 234.114682 
L 427.123657 233.251237 
L 427.582151 233.356328 
L 428.040645 233.835409 
L 428.957634 232.992349 
L 429.416128 232.283991 
L 429.874622 233.040576 
L 430.333116 232.327559 
L 431.250104 232.411813 
L 431.708598 232.195198 
L 432.167092 232.508149 
L 432.625586 232.512075 
L 432.625586 232.512075 
" clip-path="url(#pa8ee84fdc7)" style="fill: none; stroke: #2ca02c; stroke-width: 1.5; stroke-linecap: square"/>
   </g>
   <g id="line2d_24">
    <path d="M 91.200347 292.31279 
L 94.256974 292.136312 
L 94.868299 291.99284 
L 96.702276 291.961648 
L 97.924926 291.895887 
L 99.758903 291.838233 
L 102.81553 291.597911 
L 105.260831 291.658881 
L 105.872157 291.383455 
L 107.094807 291.365022 
L 108.317458 291.415692 
L 109.540109 290.712367 
L 110.151435 290.147923 
L 110.76276 289.987872 
L 111.374085 290.444732 
L 111.985411 289.236358 
L 112.596736 289.239489 
L 113.208062 288.58942 
L 113.819387 288.346173 
L 114.430712 288.395261 
L 115.042038 287.385055 
L 115.653363 286.864306 
L 116.876014 287.140822 
L 117.487339 287.033471 
L 118.098665 286.191979 
L 118.70999 285.908678 
L 119.321316 283.392466 
L 119.932641 282.470129 
L 121.155292 278.882638 
L 121.766617 277.524628 
L 122.377943 278.542204 
L 122.989268 278.972226 
L 123.600593 277.145442 
L 124.211919 273.913381 
L 124.823244 273.519436 
L 125.43457 273.565477 
L 126.045895 271.499567 
L 126.65722 268.227325 
L 127.268546 267.44613 
L 127.879871 266.874518 
L 128.491197 264.060241 
L 129.102522 268.056298 
L 129.713847 265.85828 
L 130.325173 264.327218 
L 130.936498 264.774511 
L 131.547824 263.738906 
L 132.159149 261.043004 
L 132.770475 262.974088 
L 133.3818 261.93674 
L 133.993125 263.92096 
L 134.604451 263.35615 
L 135.215776 265.907642 
L 135.827102 263.227516 
L 136.438427 261.423174 
L 137.049752 262.286248 
L 137.661078 261.268316 
L 138.272403 257.284676 
L 138.883729 262.08758 
L 140.106379 255.354908 
L 141.32903 255.778543 
L 142.551681 252.607493 
L 143.163006 256.655535 
L 144.385657 255.111894 
L 144.996983 253.645231 
L 145.608308 256.124841 
L 146.219633 255.56919 
L 147.442284 249.458074 
L 148.05361 251.089163 
L 148.664935 255.014402 
L 149.887586 250.357756 
L 150.498911 248.881329 
L 151.110237 248.593601 
L 151.721562 245.594163 
L 152.332887 248.261221 
L 152.944213 253.378157 
L 153.555538 248.631066 
L 154.166864 250.579539 
L 154.778189 247.935083 
L 155.389515 242.981013 
L 156.00084 245.133438 
L 156.612165 248.531208 
L 157.223491 247.062249 
L 157.834816 246.36921 
L 158.446142 247.054204 
L 159.057467 244.392469 
L 159.668792 245.682393 
L 160.280118 240.501055 
L 160.891443 243.692837 
L 161.502769 241.848433 
L 162.114094 243.17753 
L 162.725419 239.066002 
L 163.336745 237.24955 
L 163.94807 237.231714 
L 164.559396 240.702368 
L 165.170721 240.389718 
L 165.782046 243.14691 
L 166.393372 241.096641 
L 167.616023 241.645066 
L 168.227348 240.370448 
L 168.838673 235.582625 
L 169.449999 237.715849 
L 170.061324 235.274208 
L 170.67265 239.482072 
L 171.283975 238.946392 
L 172.506626 234.682262 
L 173.117951 237.725509 
L 173.729277 230.327449 
L 174.340602 231.67655 
L 174.951928 237.759108 
L 175.563253 236.895404 
L 176.174578 236.279954 
L 176.785904 243.829218 
L 177.397229 234.103779 
L 178.61988 230.91292 
L 179.231205 230.843542 
L 179.842531 225.507922 
L 180.453856 228.208885 
L 181.065182 218.489682 
L 181.676507 225.195554 
L 182.287832 227.216105 
L 182.899158 227.590945 
L 183.510483 218.56366 
L 184.121809 222.942018 
L 184.733134 224.47972 
L 185.344459 215.812441 
L 185.955785 222.752256 
L 187.178436 214.070622 
L 187.789761 207.333248 
L 188.401086 213.656539 
L 189.012412 212.313898 
L 189.623737 208.170458 
L 190.235063 198.287688 
L 190.846388 197.587298 
L 191.457713 209.819308 
L 192.069039 205.552388 
L 192.680364 206.157761 
L 193.29169 206.968032 
L 193.903015 213.4441 
L 194.51434 214.770127 
L 195.125666 217.698448 
L 195.736991 211.161053 
L 196.348317 196.289334 
L 196.959642 214.345245 
L 197.570968 212.775878 
L 198.182293 217.553194 
L 198.793618 201.318926 
L 199.404944 207.84209 
L 200.016269 204.833607 
L 200.627595 213.760604 
L 201.23892 205.21814 
L 201.850245 204.099231 
L 202.461571 220.362775 
L 203.072896 214.446058 
L 203.684222 214.640821 
L 204.295547 205.832389 
L 204.906872 200.815033 
L 205.518198 201.388936 
L 206.129523 203.868325 
L 206.740849 202.53461 
L 207.963499 209.874245 
L 208.574825 212.247192 
L 209.18615 203.543133 
L 209.797476 207.890312 
L 210.408801 213.680453 
L 211.020126 211.997432 
L 211.631452 217.173479 
L 212.242777 207.552294 
L 212.854103 207.447197 
L 213.465428 204.574385 
L 214.076753 207.775704 
L 214.688079 201.97326 
L 215.299404 203.785469 
L 215.91073 204.211569 
L 216.522055 196.639119 
L 217.133381 197.253577 
L 217.744706 202.488671 
L 218.356031 209.664608 
L 218.967357 199.123396 
L 219.578682 206.555045 
L 220.190008 204.552963 
L 220.801333 199.708552 
L 221.412658 195.770382 
L 222.023984 200.170278 
L 222.635309 197.989898 
L 223.246635 199.030562 
L 223.85796 193.744348 
L 224.469285 189.802253 
L 225.080611 184.40811 
L 225.691936 194.253436 
L 226.303262 198.338908 
L 226.914587 191.330406 
L 227.525912 195.401667 
L 228.137238 201.602558 
L 228.748563 185.685359 
L 229.359889 178.816057 
L 229.971214 194.879044 
L 230.582539 198.622206 
L 231.193865 192.157521 
L 231.80519 193.886368 
L 232.416516 188.750425 
L 233.027841 186.137864 
L 233.639166 184.943192 
L 234.250492 185.207651 
L 234.861817 196.169473 
L 235.473143 187.245463 
L 236.084468 180.18239 
L 236.695793 185.59098 
L 237.307119 201.441264 
L 237.918444 201.446816 
L 238.52977 198.574417 
L 239.141095 198.361669 
L 240.975071 183.518738 
L 241.586397 187.129456 
L 242.197722 181.981402 
L 242.809048 185.904474 
L 243.420373 191.065846 
L 244.031698 205.048267 
L 244.643024 196.459004 
L 245.254349 192.257772 
L 245.865675 186.082754 
L 246.477 192.522946 
L 247.088325 193.271368 
L 247.699651 198.897346 
L 248.310976 186.601754 
L 248.922302 199.241335 
L 249.533627 185.25192 
L 250.144952 183.378058 
L 250.756278 176.094369 
L 251.978929 199.871153 
L 252.590254 198.560722 
L 253.201579 189.280036 
L 253.812905 191.304066 
L 254.42423 192.116836 
L 255.035556 192.415391 
L 255.646881 181.595917 
L 256.258206 181.688455 
L 256.869532 187.794131 
L 257.480857 197.524168 
L 258.092183 193.271463 
L 258.703508 181.353832 
L 259.314833 179.237893 
L 260.537484 164.349415 
L 261.14881 172.524751 
L 261.760135 176.351886 
L 262.371461 172.360086 
L 262.982786 177.701716 
L 263.594111 178.258767 
L 264.205437 185.77725 
L 264.816762 183.517921 
L 265.428088 184.790785 
L 266.039413 185.508614 
L 266.650738 179.074348 
L 267.262064 181.289285 
L 267.873389 189.852098 
L 268.484715 187.145821 
L 269.09604 178.314401 
L 269.707365 172.496008 
L 270.318691 175.766404 
L 270.930016 176.823388 
L 271.541342 176.282969 
L 272.152667 173.199512 
L 272.763992 174.928961 
L 273.375318 172.81832 
L 273.986643 178.612611 
L 274.597969 182.838702 
L 275.209294 179.760195 
L 275.820619 175.071143 
L 276.431945 168.405191 
L 277.04327 159.992024 
L 277.654596 175.175324 
L 278.265921 172.308808 
L 278.877246 181.865362 
L 279.488572 169.619651 
L 280.099897 161.703289 
L 280.711223 167.126147 
L 281.322548 174.050298 
L 281.933874 177.427584 
L 282.545199 171.731355 
L 283.156524 169.279709 
L 283.76785 176.892916 
L 284.379175 171.417061 
L 284.990501 160.94976 
L 285.601826 159.909108 
L 286.213151 170.932077 
L 286.824477 160.622766 
L 287.435802 168.154323 
L 288.047128 167.834511 
L 288.658453 175.763027 
L 289.269778 172.532392 
L 289.881104 172.856984 
L 290.492429 164.974491 
L 291.103755 168.943628 
L 291.71508 177.694854 
L 292.326405 169.125421 
L 292.937731 177.069459 
L 293.549056 164.848349 
L 294.160382 167.655658 
L 294.771707 162.204513 
L 295.383032 164.206962 
L 295.994358 166.809546 
L 296.605683 164.288019 
L 297.217009 170.540507 
L 297.828334 167.807731 
L 298.439659 169.808292 
L 299.050985 177.793695 
L 299.66231 184.047746 
L 300.273636 174.351722 
L 301.496286 166.403598 
L 302.107612 166.351783 
L 302.718937 169.003986 
L 303.330263 175.442918 
L 303.941588 172.049294 
L 304.552914 176.082548 
L 305.164239 177.03238 
L 305.775564 165.559406 
L 306.38689 158.381483 
L 306.998215 147.242579 
L 307.609541 160.268326 
L 308.220866 167.529894 
L 308.832191 177.085926 
L 309.443517 169.155399 
L 310.054842 172.521108 
L 310.666168 156.631025 
L 311.277493 164.848991 
L 311.888818 149.505967 
L 312.500144 148.120558 
L 313.111469 165.00951 
L 313.722795 159.996698 
L 314.33412 159.146746 
L 314.945445 171.17244 
L 315.556771 157.263578 
L 316.168096 163.847222 
L 316.779422 164.201343 
L 317.390747 158.378118 
L 318.002072 160.731909 
L 318.613398 155.419792 
L 319.224723 153.773512 
L 319.836049 148.167572 
L 320.447374 160.71322 
L 321.058699 176.58269 
L 321.670025 166.95424 
L 322.28135 150.417354 
L 322.892676 160.330149 
L 323.504001 154.090709 
L 324.115327 166.516042 
L 324.726652 164.988693 
L 325.337977 158.692698 
L 326.560628 167.860861 
L 327.171954 164.148395 
L 327.783279 164.238436 
L 328.394604 149.38472 
L 329.00593 150.010157 
L 329.617255 163.385713 
L 330.228581 152.413318 
L 330.839906 151.3527 
L 331.451231 155.946083 
L 332.062557 147.823004 
L 332.673882 158.647853 
L 333.285208 141.799676 
L 333.896533 144.910863 
L 334.507858 152.924858 
L 335.119184 155.175455 
L 335.730509 150.717037 
L 336.341835 149.645537 
L 336.95316 151.235914 
L 337.564485 145.831096 
L 338.175811 152.05098 
L 338.787136 151.658163 
L 339.398462 145.969033 
L 340.009787 153.789434 
L 340.621112 147.520173 
L 341.232438 142.797016 
L 341.843763 134.180951 
L 342.455089 144.414352 
L 343.066414 142.014404 
L 343.677739 144.164434 
L 344.289065 148.743158 
L 344.90039 144.165887 
L 345.511716 145.29578 
L 346.123041 145.683302 
L 346.734367 129.626889 
L 347.345692 130.475451 
L 347.957017 140.809488 
L 348.568343 124.571599 
L 349.179668 138.873244 
L 349.790994 136.116793 
L 350.402319 141.547112 
L 352.236295 168.719688 
L 352.847621 172.811141 
L 353.458946 168.417286 
L 354.070271 161.230068 
L 354.681597 141.277493 
L 355.292922 145.035331 
L 355.904248 147.15588 
L 356.515573 136.901069 
L 357.738224 143.859785 
L 358.349549 144.358765 
L 359.5722 157.460428 
L 360.183525 154.73346 
L 360.794851 156.03483 
L 361.406176 155.865003 
L 362.017502 148.37638 
L 362.628827 152.587796 
L 363.240152 154.556974 
L 363.851478 151.467431 
L 364.462803 154.451881 
L 365.074129 154.00931 
L 365.685454 145.645627 
L 366.296779 150.153413 
L 366.908105 151.210079 
L 367.51943 144.821668 
L 368.130756 150.09991 
L 368.742081 146.645366 
L 369.353407 148.386569 
L 369.964732 160.966408 
L 370.576057 149.003439 
L 371.187383 144.541218 
L 371.798708 144.905757 
L 372.410034 153.654423 
L 373.021359 160.726571 
L 373.632684 165.124372 
L 374.855335 148.835896 
L 375.466661 156.424867 
L 376.077986 157.313563 
L 376.689311 151.847044 
L 377.300637 153.059014 
L 377.911962 151.218634 
L 378.523288 151.474877 
L 379.134613 143.572102 
L 379.745938 147.012775 
L 380.357264 142.269922 
L 380.968589 130.576234 
L 381.579915 134.566739 
L 382.19124 146.937112 
L 382.802565 140.569631 
L 383.413891 142.016777 
L 384.025216 150.034122 
L 384.636542 155.218588 
L 385.247867 151.612009 
L 385.859192 143.302016 
L 386.470518 149.019208 
L 387.081843 144.282168 
L 387.693169 141.848625 
L 388.91582 122.669676 
L 389.527145 130.690054 
L 390.13847 141.561366 
L 390.749796 142.669559 
L 391.361121 151.210408 
L 391.972447 149.61219 
L 392.583772 149.452726 
L 393.195097 138.513888 
L 393.806423 144.931443 
L 394.417748 133.979474 
L 395.029074 132.203718 
L 395.640399 126.447435 
L 396.251724 124.858593 
L 396.86305 134.230199 
L 397.474375 127.120213 
L 398.085701 138.240749 
L 398.697026 142.353536 
L 399.308351 131.216357 
L 399.919677 137.87435 
L 400.531002 139.144237 
L 401.142328 137.51551 
L 401.753653 126.65203 
L 402.364978 126.525901 
L 402.976304 123.998073 
L 403.587629 134.550394 
L 404.81028 130.449438 
L 405.421605 121.488299 
L 406.032931 122.747599 
L 406.644256 120.224257 
L 407.255582 122.679955 
L 407.866907 111.3615 
L 408.478232 113.569961 
L 409.089558 122.858497 
L 409.700883 115.61446 
L 410.312209 117.09052 
L 410.923534 117.102185 
L 411.53486 118.107727 
L 412.146185 116.242916 
L 412.75751 107.974893 
L 413.368836 109.276225 
L 413.980161 108.895972 
L 414.591487 120.105724 
L 415.202812 114.32365 
L 415.814137 125.094595 
L 416.425463 127.061027 
L 417.036788 133.304779 
L 418.259439 127.196294 
L 418.870764 132.524085 
L 419.48209 135.572377 
L 420.093415 131.261679 
L 420.704741 135.744367 
L 421.316066 135.699845 
L 421.927391 132.088812 
L 422.538717 117.595885 
L 423.150042 113.572935 
L 423.761368 112.505224 
L 424.372693 125.894894 
L 424.984018 128.490719 
L 425.595344 124.234553 
L 426.206669 117.184815 
L 426.817995 112.867203 
L 427.42932 112.305845 
L 428.040645 109.746361 
L 428.651971 110.659285 
L 429.263296 114.870093 
L 429.874622 112.825704 
L 431.097272 119.309256 
L 431.708598 121.440265 
L 432.319923 117.247444 
L 432.931249 107.80616 
L 433.542574 115.558307 
L 434.1539 112.132638 
L 434.765225 95.748375 
L 435.37655 103.464356 
L 435.987876 108.033478 
L 436.599201 106.202955 
L 437.210527 110.625206 
L 438.433177 113.759801 
L 439.044503 112.791011 
L 439.655828 109.188756 
L 440.267154 103.324306 
L 440.878479 103.001158 
L 441.489804 109.688154 
L 442.10113 108.190841 
L 442.712455 107.285437 
L 443.323781 116.412462 
L 443.935106 109.818057 
L 444.546431 101.457904 
L 445.157757 97.913878 
L 445.769082 97.89774 
L 446.380408 102.039268 
L 446.991733 101.525554 
L 447.603058 102.532549 
L 448.825709 107.91977 
L 449.437035 112.779712 
L 450.04836 118.802232 
L 450.659685 117.624682 
L 451.271011 114.909354 
L 451.882336 122.591197 
L 452.493662 114.994043 
L 453.104987 103.466188 
L 453.716313 101.774022 
L 454.327638 102.051412 
L 454.938963 101.605528 
L 455.550289 100.783291 
L 456.161614 103.144512 
L 456.77294 97.619711 
L 457.384265 99.50041 
L 457.99559 93.084603 
L 458.606916 91.899445 
L 459.218241 101.987288 
L 459.829567 106.048543 
L 460.440892 101.286657 
L 461.052217 100.479379 
L 461.663543 91.080978 
L 462.274868 96.579513 
L 462.886194 95.264421 
L 463.497519 109.318531 
L 464.108844 109.678601 
L 464.72017 113.465807 
L 465.331495 106.460295 
L 465.942821 108.76924 
L 466.554146 108.723904 
L 467.165471 105.06113 
L 467.776797 99.475215 
L 468.388122 96.639097 
L 468.999448 98.116092 
L 470.222098 99.296458 
L 470.833424 100.230507 
L 471.444749 91.064427 
L 472.056075 92.24582 
L 472.6674 92.374707 
L 473.278725 93.410552 
L 473.890051 102.668842 
L 474.501376 109.902932 
L 475.112702 103.79798 
L 475.724027 96.03457 
L 476.335353 100.130905 
L 476.946678 88.704742 
L 478.169329 82.61214 
L 478.780654 82.080904 
L 479.39198 94.464247 
L 480.003305 93.020978 
L 480.61463 100.469791 
L 481.225956 91.776283 
L 481.837281 91.180094 
L 482.448607 89.493412 
L 483.059932 96.468527 
L 483.671257 88.542092 
L 484.282583 86.091036 
L 484.893908 97.108285 
L 485.505234 98.526737 
L 486.116559 98.966421 
L 486.727884 94.806881 
L 487.33921 95.440824 
L 487.950535 93.422121 
L 488.561861 90.266298 
L 489.173186 85.603064 
L 489.784511 83.11062 
L 490.395837 79.945411 
L 491.007162 94.87114 
L 491.618488 101.048404 
L 492.229813 88.407746 
L 492.841138 91.200839 
L 493.452464 98.88785 
L 494.063789 86.701192 
L 494.675115 87.939664 
L 495.28644 95.300953 
L 495.897766 95.206428 
L 496.509091 94.793413 
L 496.509091 94.793413 
" clip-path="url(#pa8ee84fdc7)" style="fill: none; stroke: #d62728; stroke-width: 1.5; stroke-linecap: square"/>
   </g>
   <g id="patch_3">
    <path d="M 70.4 305.152125 
L 70.4 27.952125 
" style="fill: none; stroke: #000000; stroke-width: 0.8; stroke-linejoin: miter; stroke-linecap: square"/>
   </g>
   <g id="patch_4">
    <path d="M 516.8 305.152125 
L 516.8 27.952125 
" style="fill: none; stroke: #000000; stroke-width: 0.8; stroke-linejoin: miter; stroke-linecap: square"/>
   </g>
   <g id="patch_5">
    <path d="M 70.4 305.152125 
L 516.8 305.152125 
" style="fill: none; stroke: #000000; stroke-width: 0.8; stroke-linejoin: miter; stroke-linecap: square"/>
   </g>
   <g id="patch_6">
    <path d="M 70.4 27.952125 
L 516.8 27.952125 
" style="fill: none; stroke: #000000; stroke-width: 0.8; stroke-linejoin: miter; stroke-linecap: square"/>
   </g>
   <g id="text_14">
    <!-- ML1 Meta Testing -->
    <g transform="translate(212.004313 21.952125)scale(0.216 -0.216)">
     <defs>
      <path id="STIXGeneral-Regular-4d" d="M 5530 0 
L 3738 0 
L 3738 122 
Q 4115 147 4214 265 
Q 4314 384 4314 787 
L 4314 3661 
L 2682 0 
L 2592 0 
L 979 3514 
L 979 966 
Q 979 448 1088 294 
Q 1197 141 1574 122 
L 1574 0 
L 77 0 
L 77 122 
Q 358 141 480 205 
Q 602 269 650 432 
Q 698 595 698 966 
L 698 3514 
Q 698 3878 589 3984 
Q 480 4090 90 4115 
L 90 4237 
L 1357 4237 
L 2835 1024 
L 4250 4237 
L 5523 4237 
L 5523 4115 
Q 5178 4109 5072 3993 
Q 4966 3878 4966 3520 
L 4966 717 
Q 4966 378 5072 262 
Q 5178 147 5530 122 
L 5530 0 
z
" transform="scale(0.015625)"/>
      <path id="STIXGeneral-Regular-4c" d="M 3827 1114 
L 3520 0 
L 77 0 
L 77 122 
Q 429 141 531 256 
Q 634 371 634 736 
L 634 3494 
Q 634 3872 541 3981 
Q 448 4090 77 4115 
L 77 4237 
L 1888 4237 
L 1888 4115 
Q 1498 4090 1392 3984 
Q 1286 3878 1286 3507 
L 1286 538 
Q 1286 358 1398 304 
Q 1510 250 1862 250 
L 2310 250 
Q 3085 250 3392 640 
Q 3520 813 3661 1114 
L 3827 1114 
z
" transform="scale(0.015625)"/>
     </defs>
     <use xlink:href="#STIXGeneral-Regular-4d"/>
     <use xlink:href="#STIXGeneral-Regular-4c" x="88.899994"/>
     <use xlink:href="#STIXGeneral-Regular-31" x="149.999985"/>
     <use xlink:href="#STIXGeneral-Regular-20" x="199.999969"/>
     <use xlink:href="#STIXGeneral-Regular-4d" x="224.999954"/>
     <use xlink:href="#STIXGeneral-Regular-65" x="313.899948"/>
     <use xlink:href="#STIXGeneral-Regular-74" x="358.299942"/>
     <use xlink:href="#STIXGeneral-Regular-61" x="386.09993"/>
     <use xlink:href="#STIXGeneral-Regular-20" x="430.499924"/>
     <use xlink:href="#STIXGeneral-Regular-54" x="455.499908"/>
     <use xlink:href="#STIXGeneral-Regular-65" x="516.599899"/>
     <use xlink:href="#STIXGeneral-Regular-73" x="560.999893"/>
     <use xlink:href="#STIXGeneral-Regular-74" x="599.899887"/>
     <use xlink:href="#STIXGeneral-Regular-69" x="627.699875"/>
     <use xlink:href="#STIXGeneral-Regular-6e" x="655.499863"/>
     <use xlink:href="#STIXGeneral-Regular-67" x="705.499847"/>
    </g>
   </g>
   <g id="legend_1">
    <g id="patch_7">
     <path d="M 76 93.837437 
L 139.25375 93.837437 
Q 142.05375 93.837437 142.05375 91.037437 
L 142.05375 33.552125 
Q 142.05375 30.752125 139.25375 30.752125 
L 76 30.752125 
Q 73.2 30.752125 73.2 33.552125 
L 73.2 91.037437 
Q 73.2 93.837437 76 93.837437 
z
" style="fill: #ffffff; opacity: 0.8; stroke: #cccccc; stroke-linejoin: miter"/>
    </g>
    <g id="line2d_25">
     <path d="M 77.4 40.663687 
L 84.4 40.663687 
L 91.4 40.663687 
" style="fill: none; stroke: #1f77b4; stroke-width: 1.5; stroke-linecap: square"/>
    </g>
    <g id="text_15">
     <!-- eps=10 -->
     <g transform="translate(95.6 44.513687)scale(0.14 -0.14)">
      <defs>
       <path id="STIXGeneral-Regular-3d" d="M 4077 2048 
L 307 2048 
L 307 2470 
L 4077 2470 
L 4077 2048 
z
M 4077 768 
L 307 768 
L 307 1190 
L 4077 1190 
L 4077 768 
z
" transform="scale(0.015625)"/>
      </defs>
      <use xlink:href="#STIXGeneral-Regular-65"/>
      <use xlink:href="#STIXGeneral-Regular-70" x="44.399994"/>
      <use xlink:href="#STIXGeneral-Regular-73" x="94.399979"/>
      <use xlink:href="#STIXGeneral-Regular-3d" x="133.299973"/>
      <use xlink:href="#STIXGeneral-Regular-31" x="201.799957"/>
      <use xlink:href="#STIXGeneral-Regular-30" x="251.799942"/>
     </g>
    </g>
    <g id="line2d_26">
     <path d="M 77.4 54.663687 
L 84.4 54.663687 
L 91.4 54.663687 
" style="fill: none; stroke: #ff7f0e; stroke-width: 1.5; stroke-linecap: square"/>
    </g>
    <g id="text_16">
     <!-- eps=20 -->
     <g transform="translate(95.6 58.513687)scale(0.14 -0.14)">
      <use xlink:href="#STIXGeneral-Regular-65"/>
      <use xlink:href="#STIXGeneral-Regular-70" x="44.399994"/>
      <use xlink:href="#STIXGeneral-Regular-73" x="94.399979"/>
      <use xlink:href="#STIXGeneral-Regular-3d" x="133.299973"/>
      <use xlink:href="#STIXGeneral-Regular-32" x="201.799957"/>
      <use xlink:href="#STIXGeneral-Regular-30" x="251.799942"/>
     </g>
    </g>
    <g id="line2d_27">
     <path d="M 77.4 68.733687 
L 84.4 68.733687 
L 91.4 68.733687 
" style="fill: none; stroke: #2ca02c; stroke-width: 1.5; stroke-linecap: square"/>
    </g>
    <g id="text_17">
     <!-- eps=45 -->
     <g transform="translate(95.6 72.583687)scale(0.14 -0.14)">
      <defs>
       <path id="STIXGeneral-Regular-35" d="M 2803 4358 
L 2573 3814 
Q 2534 3731 2400 3731 
L 1158 3731 
L 902 3187 
Q 1606 3053 1920 2896 
Q 2234 2739 2502 2368 
Q 2726 2061 2726 1555 
Q 2726 1094 2576 780 
Q 2426 467 2099 224 
Q 1664 -90 1011 -90 
Q 646 -90 422 19 
Q 198 128 198 307 
Q 198 550 486 550 
Q 717 550 960 352 
Q 1210 147 1414 147 
Q 1747 147 2012 480 
Q 2278 813 2278 1229 
Q 2278 1843 1850 2189 
Q 1293 2637 486 2637 
Q 410 2637 410 2688 
L 416 2720 
L 1114 4237 
L 2438 4237 
Q 2547 4237 2608 4269 
Q 2669 4301 2746 4403 
L 2803 4358 
z
" transform="scale(0.015625)"/>
      </defs>
      <use xlink:href="#STIXGeneral-Regular-65"/>
      <use xlink:href="#STIXGeneral-Regular-70" x="44.399994"/>
      <use xlink:href="#STIXGeneral-Regular-73" x="94.399979"/>
      <use xlink:href="#STIXGeneral-Regular-3d" x="133.299973"/>
      <use xlink:href="#STIXGeneral-Regular-34" x="201.799957"/>
      <use xlink:href="#STIXGeneral-Regular-35" x="251.799942"/>
     </g>
    </g>
    <g id="line2d_28">
     <path d="M 77.4 82.749 
L 84.4 82.749 
L 91.4 82.749 
" style="fill: none; stroke: #d62728; stroke-width: 1.5; stroke-linecap: square"/>
    </g>
    <g id="text_18">
     <!-- eps=60 -->
     <g transform="translate(95.6 86.599)scale(0.14 -0.14)">
      <use xlink:href="#STIXGeneral-Regular-65"/>
      <use xlink:href="#STIXGeneral-Regular-70" x="44.399994"/>
      <use xlink:href="#STIXGeneral-Regular-73" x="94.399979"/>
      <use xlink:href="#STIXGeneral-Regular-3d" x="133.299973"/>
      <use xlink:href="#STIXGeneral-Regular-36" x="201.799957"/>
      <use xlink:href="#STIXGeneral-Regular-30" x="251.799942"/>
     </g>
    </g>
   </g>
  </g>
 </g>
 <defs>
  <clipPath id="pa8ee84fdc7">
   <rect x="70.4" y="27.952125" width="446.4" height="277.2"/>
  </clipPath>
 </defs>
</svg>
