<?xml version="1.0" encoding="utf-8" standalone="no"?>
<!DOCTYPE svg PUBLIC "-//W3C//DTD SVG 1.1//EN"
  "http://www.w3.org/Graphics/SVG/1.1/DTD/svg11.dtd">
<svg xmlns:xlink="http://www.w3.org/1999/xlink" width="506pt" height="355.769pt" viewBox="0 0 506 355.769" xmlns="http://www.w3.org/2000/svg" version="1.1">
 <metadata>
  <rdf:RDF xmlns:dc="http://purl.org/dc/elements/1.1/" xmlns:cc="http://creativecommons.org/ns#" xmlns:rdf="http://www.w3.org/1999/02/22-rdf-syntax-ns#">
   <cc:Work>
    <dc:type rdf:resource="http://purl.org/dc/dcmitype/StillImage"/>
    <dc:date>2021-12-11T15:59:59.391257</dc:date>
    <dc:format>image/svg+xml</dc:format>
    <dc:creator>
     <cc:Agent>
      <dc:title>Matplotlib v3.5.0, https://matplotlib.org/</dc:title>
     </cc:Agent>
    </dc:creator>
   </cc:Work>
  </rdf:RDF>
 </metadata>
 <defs>
  <style type="text/css">*{stroke-linejoin: round; stroke-linecap: butt}</style>
 </defs>
 <g id="figure_1">
  <g id="patch_1">
   <path d="M 0 355.769 
L 506 355.769 
L 506 0 
L 0 0 
z
" style="fill: #ffffff"/>
  </g>
  <g id="axes_1">
   <g id="patch_2">
    <path d="M 52.4 305.152125 
L 498.8 305.152125 
L 498.8 27.952125 
L 52.4 27.952125 
z
" style="fill: #ffffff"/>
   </g>
   <g id="matplotlib.axis_1">
    <g id="xtick_1">
     <g id="line2d_1">
      <path d="M 72.433083 305.152125 
L 72.433083 27.952125 
" clip-path="url(#pd732c87448)" style="fill: none; stroke: #b0b0b0; stroke-width: 0.8; stroke-linecap: square"/>
     </g>
     <g id="line2d_2">
      <defs>
       <path id="m95a89ba686" d="M 0 0 
L 0 3.5 
" style="stroke: #000000; stroke-width: 0.8"/>
      </defs>
      <g>
       <use xlink:href="#m95a89ba686" x="72.433083" y="305.152125" style="stroke: #000000; stroke-width: 0.8"/>
      </g>
     </g>
     <g id="text_1">
      <!-- 0.0 -->
      <g transform="translate(61.183083 324.445562)scale(0.18 -0.18)">
       <defs>
        <path id="STIXGeneral-Regular-30" d="M 3046 2112 
Q 3046 1683 2963 1302 
Q 2880 922 2717 602 
Q 2554 282 2266 96 
Q 1978 -90 1600 -90 
Q 1210 -90 915 108 
Q 621 307 461 640 
Q 301 973 227 1350 
Q 154 1728 154 2150 
Q 154 2746 301 3222 
Q 448 3699 790 4012 
Q 1133 4326 1626 4326 
Q 2253 4326 2649 3712 
Q 3046 3098 3046 2112 
z
M 2432 2080 
Q 2432 3091 2217 3625 
Q 2003 4160 1587 4160 
Q 1190 4160 979 3622 
Q 768 3085 768 2106 
Q 768 1120 979 598 
Q 1190 77 1600 77 
Q 2003 77 2217 598 
Q 2432 1120 2432 2080 
z
" transform="scale(0.015625)"/>
        <path id="STIXGeneral-Regular-2e" d="M 1158 275 
Q 1158 134 1052 32 
Q 947 -70 800 -70 
Q 653 -70 550 32 
Q 448 134 448 281 
Q 448 429 553 534 
Q 659 640 806 640 
Q 947 640 1052 531 
Q 1158 422 1158 275 
z
" transform="scale(0.015625)"/>
       </defs>
       <use xlink:href="#STIXGeneral-Regular-30"/>
       <use xlink:href="#STIXGeneral-Regular-2e" x="49.999985"/>
       <use xlink:href="#STIXGeneral-Regular-30" x="74.999969"/>
      </g>
     </g>
    </g>
    <g id="xtick_2">
     <g id="line2d_3">
      <path d="M 136.889592 305.152125 
L 136.889592 27.952125 
" clip-path="url(#pd732c87448)" style="fill: none; stroke: #b0b0b0; stroke-width: 0.8; stroke-linecap: square"/>
     </g>
     <g id="line2d_4">
      <g>
       <use xlink:href="#m95a89ba686" x="136.889592" y="305.152125" style="stroke: #000000; stroke-width: 0.8"/>
      </g>
     </g>
     <g id="text_2">
      <!-- 0.5 -->
      <g transform="translate(125.639592 324.445562)scale(0.18 -0.18)">
       <defs>
        <path id="STIXGeneral-Regular-35" d="M 2803 4358 
L 2573 3814 
Q 2534 3731 2400 3731 
L 1158 3731 
L 902 3187 
Q 1606 3053 1920 2896 
Q 2234 2739 2502 2368 
Q 2726 2061 2726 1555 
Q 2726 1094 2576 780 
Q 2426 467 2099 224 
Q 1664 -90 1011 -90 
Q 646 -90 422 19 
Q 198 128 198 307 
Q 198 550 486 550 
Q 717 550 960 352 
Q 1210 147 1414 147 
Q 1747 147 2012 480 
Q 2278 813 2278 1229 
Q 2278 1843 1850 2189 
Q 1293 2637 486 2637 
Q 410 2637 410 2688 
L 416 2720 
L 1114 4237 
L 2438 4237 
Q 2547 4237 2608 4269 
Q 2669 4301 2746 4403 
L 2803 4358 
z
" transform="scale(0.015625)"/>
       </defs>
       <use xlink:href="#STIXGeneral-Regular-30"/>
       <use xlink:href="#STIXGeneral-Regular-2e" x="49.999985"/>
       <use xlink:href="#STIXGeneral-Regular-35" x="74.999969"/>
      </g>
     </g>
    </g>
    <g id="xtick_3">
     <g id="line2d_5">
      <path d="M 201.346101 305.152125 
L 201.346101 27.952125 
" clip-path="url(#pd732c87448)" style="fill: none; stroke: #b0b0b0; stroke-width: 0.8; stroke-linecap: square"/>
     </g>
     <g id="line2d_6">
      <g>
       <use xlink:href="#m95a89ba686" x="201.346101" y="305.152125" style="stroke: #000000; stroke-width: 0.8"/>
      </g>
     </g>
     <g id="text_3">
      <!-- 1.0 -->
      <g transform="translate(190.096101 324.445562)scale(0.18 -0.18)">
       <defs>
        <path id="STIXGeneral-Regular-31" d="M 2522 0 
L 755 0 
L 755 96 
Q 1107 115 1235 227 
Q 1363 339 1363 608 
L 1363 3482 
Q 1363 3795 1171 3795 
Q 1082 3795 883 3718 
L 710 3654 
L 710 3744 
L 1856 4326 
L 1914 4307 
L 1914 486 
Q 1914 275 2042 185 
Q 2170 96 2522 96 
L 2522 0 
z
" transform="scale(0.015625)"/>
       </defs>
       <use xlink:href="#STIXGeneral-Regular-31"/>
       <use xlink:href="#STIXGeneral-Regular-2e" x="49.999985"/>
       <use xlink:href="#STIXGeneral-Regular-30" x="74.999969"/>
      </g>
     </g>
    </g>
    <g id="xtick_4">
     <g id="line2d_7">
      <path d="M 265.802611 305.152125 
L 265.802611 27.952125 
" clip-path="url(#pd732c87448)" style="fill: none; stroke: #b0b0b0; stroke-width: 0.8; stroke-linecap: square"/>
     </g>
     <g id="line2d_8">
      <g>
       <use xlink:href="#m95a89ba686" x="265.802611" y="305.152125" style="stroke: #000000; stroke-width: 0.8"/>
      </g>
     </g>
     <g id="text_4">
      <!-- 1.5 -->
      <g transform="translate(254.552611 324.445562)scale(0.18 -0.18)">
       <use xlink:href="#STIXGeneral-Regular-31"/>
       <use xlink:href="#STIXGeneral-Regular-2e" x="49.999985"/>
       <use xlink:href="#STIXGeneral-Regular-35" x="74.999969"/>
      </g>
     </g>
    </g>
    <g id="xtick_5">
     <g id="line2d_9">
      <path d="M 330.25912 305.152125 
L 330.25912 27.952125 
" clip-path="url(#pd732c87448)" style="fill: none; stroke: #b0b0b0; stroke-width: 0.8; stroke-linecap: square"/>
     </g>
     <g id="line2d_10">
      <g>
       <use xlink:href="#m95a89ba686" x="330.25912" y="305.152125" style="stroke: #000000; stroke-width: 0.8"/>
      </g>
     </g>
     <g id="text_5">
      <!-- 2.0 -->
      <g transform="translate(319.00912 324.445562)scale(0.18 -0.18)">
       <defs>
        <path id="STIXGeneral-Regular-32" d="M 3034 877 
L 2688 0 
L 186 0 
L 186 77 
L 1325 1286 
Q 1773 1754 1965 2144 
Q 2157 2534 2157 2950 
Q 2157 3379 1920 3616 
Q 1683 3853 1267 3853 
Q 922 3853 720 3673 
Q 518 3494 326 3021 
L 192 3053 
Q 301 3648 630 3987 
Q 960 4326 1523 4326 
Q 2054 4326 2380 4006 
Q 2707 3686 2707 3200 
Q 2707 2477 1888 1613 
L 832 486 
L 2330 486 
Q 2541 486 2665 569 
Q 2790 653 2944 915 
L 3034 877 
z
" transform="scale(0.015625)"/>
       </defs>
       <use xlink:href="#STIXGeneral-Regular-32"/>
       <use xlink:href="#STIXGeneral-Regular-2e" x="49.999985"/>
       <use xlink:href="#STIXGeneral-Regular-30" x="74.999969"/>
      </g>
     </g>
    </g>
    <g id="xtick_6">
     <g id="line2d_11">
      <path d="M 394.715629 305.152125 
L 394.715629 27.952125 
" clip-path="url(#pd732c87448)" style="fill: none; stroke: #b0b0b0; stroke-width: 0.8; stroke-linecap: square"/>
     </g>
     <g id="line2d_12">
      <g>
       <use xlink:href="#m95a89ba686" x="394.715629" y="305.152125" style="stroke: #000000; stroke-width: 0.8"/>
      </g>
     </g>
     <g id="text_6">
      <!-- 2.5 -->
      <g transform="translate(383.465629 324.445562)scale(0.18 -0.18)">
       <use xlink:href="#STIXGeneral-Regular-32"/>
       <use xlink:href="#STIXGeneral-Regular-2e" x="49.999985"/>
       <use xlink:href="#STIXGeneral-Regular-35" x="74.999969"/>
      </g>
     </g>
    </g>
    <g id="xtick_7">
     <g id="line2d_13">
      <path d="M 459.172138 305.152125 
L 459.172138 27.952125 
" clip-path="url(#pd732c87448)" style="fill: none; stroke: #b0b0b0; stroke-width: 0.8; stroke-linecap: square"/>
     </g>
     <g id="line2d_14">
      <g>
       <use xlink:href="#m95a89ba686" x="459.172138" y="305.152125" style="stroke: #000000; stroke-width: 0.8"/>
      </g>
     </g>
     <g id="text_7">
      <!-- 3.0 -->
      <g transform="translate(447.922138 324.445562)scale(0.18 -0.18)">
       <defs>
        <path id="STIXGeneral-Regular-33" d="M 390 3264 
L 288 3290 
Q 435 3770 748 4048 
Q 1062 4326 1542 4326 
Q 1990 4326 2265 4083 
Q 2541 3840 2541 3450 
Q 2541 2925 1946 2566 
Q 2298 2413 2477 2227 
Q 2758 1914 2758 1402 
Q 2758 890 2464 506 
Q 2246 211 1840 60 
Q 1434 -90 979 -90 
Q 262 -90 262 275 
Q 262 378 339 442 
Q 416 506 525 506 
Q 685 506 915 339 
Q 1197 141 1466 141 
Q 1818 141 2058 425 
Q 2298 710 2298 1120 
Q 2298 1856 1632 2048 
Q 1434 2112 979 2112 
L 979 2202 
Q 1338 2323 1517 2432 
Q 2035 2726 2035 3290 
Q 2035 3610 1852 3776 
Q 1670 3942 1344 3942 
Q 768 3942 390 3264 
z
" transform="scale(0.015625)"/>
       </defs>
       <use xlink:href="#STIXGeneral-Regular-33"/>
       <use xlink:href="#STIXGeneral-Regular-2e" x="49.999985"/>
       <use xlink:href="#STIXGeneral-Regular-30" x="74.999969"/>
      </g>
     </g>
    </g>
    <g id="text_8">
     <!-- Training Environment Steps -->
     <g transform="translate(173.604688 344.645562)scale(0.18 -0.18)">
      <defs>
       <path id="STIXGeneral-Regular-54" d="M 3795 3149 
L 3642 3149 
Q 3539 3674 3353 3821 
Q 3168 3968 2656 3968 
L 2278 3968 
L 2278 710 
Q 2278 346 2387 243 
Q 2496 141 2893 122 
L 2893 0 
L 1024 0 
L 1024 122 
Q 1427 147 1526 256 
Q 1626 365 1626 787 
L 1626 3968 
L 1242 3968 
Q 723 3968 540 3817 
Q 358 3667 262 3149 
L 109 3149 
L 154 4237 
L 3750 4237 
L 3795 3149 
z
" transform="scale(0.015625)"/>
       <path id="STIXGeneral-Regular-72" d="M 1024 2931 
L 1024 2342 
Q 1267 2688 1430 2816 
Q 1594 2944 1792 2944 
Q 1958 2944 2051 2854 
Q 2144 2765 2144 2605 
Q 2144 2470 2077 2393 
Q 2010 2317 1894 2317 
Q 1773 2317 1638 2445 
Q 1536 2541 1472 2541 
Q 1338 2541 1181 2355 
Q 1024 2170 1024 2016 
L 1024 576 
Q 1024 301 1133 205 
Q 1242 109 1568 96 
L 1568 0 
L 32 0 
L 32 96 
Q 339 154 412 224 
Q 486 294 486 538 
L 486 2138 
Q 486 2349 438 2435 
Q 390 2522 269 2522 
Q 166 2522 45 2496 
L 45 2598 
Q 448 2726 992 2944 
L 1024 2931 
z
" transform="scale(0.015625)"/>
       <path id="STIXGeneral-Regular-61" d="M 2829 422 
L 2829 243 
Q 2586 -64 2253 -64 
Q 1888 -64 1843 403 
L 1837 403 
Q 1427 -64 909 -64 
Q 608 -64 422 112 
Q 237 288 237 602 
Q 237 1050 685 1350 
Q 992 1555 1837 1869 
L 1837 2214 
Q 1837 2502 1699 2646 
Q 1562 2790 1338 2790 
Q 1146 2790 1018 2697 
Q 890 2605 890 2477 
Q 890 2419 909 2348 
Q 928 2278 928 2208 
Q 928 2112 841 2029 
Q 755 1946 634 1946 
Q 525 1946 441 2029 
Q 358 2112 358 2240 
Q 358 2547 685 2752 
Q 986 2944 1421 2944 
Q 1939 2944 2176 2656 
Q 2291 2522 2323 2384 
Q 2355 2246 2355 1946 
L 2355 723 
Q 2355 301 2554 301 
Q 2682 301 2829 422 
z
M 1837 813 
L 1837 1715 
Q 1248 1510 1018 1293 
Q 800 1094 800 800 
Q 800 557 921 432 
Q 1043 307 1242 307 
Q 1453 307 1613 410 
Q 1747 506 1792 589 
Q 1837 672 1837 813 
z
" transform="scale(0.015625)"/>
       <path id="STIXGeneral-Regular-69" d="M 1152 4045 
Q 1152 3904 1056 3811 
Q 960 3718 819 3718 
Q 685 3718 592 3811 
Q 499 3904 499 4045 
Q 499 4179 595 4275 
Q 691 4371 826 4371 
Q 966 4371 1059 4275 
Q 1152 4179 1152 4045 
z
M 1619 0 
L 102 0 
L 102 96 
Q 435 115 521 211 
Q 608 307 608 666 
L 608 2118 
Q 608 2342 563 2432 
Q 518 2522 397 2522 
Q 243 2522 128 2490 
L 128 2592 
L 1120 2944 
L 1146 2918 
L 1146 672 
Q 1146 314 1226 218 
Q 1306 122 1619 96 
L 1619 0 
z
" transform="scale(0.015625)"/>
       <path id="STIXGeneral-Regular-6e" d="M 3104 0 
L 1773 0 
L 1779 96 
Q 2016 115 2096 233 
Q 2176 352 2176 672 
L 2176 1946 
Q 2176 2592 1709 2592 
Q 1549 2592 1408 2515 
Q 1267 2438 1050 2227 
L 1050 461 
Q 1050 269 1136 192 
Q 1222 115 1466 96 
L 1466 0 
L 115 0 
L 115 96 
Q 358 115 435 214 
Q 512 314 512 602 
L 512 2157 
Q 512 2394 467 2483 
Q 422 2573 288 2573 
Q 160 2573 102 2547 
L 102 2656 
Q 550 2784 979 2944 
L 1030 2925 
L 1030 2426 
L 1037 2426 
Q 1491 2944 1958 2944 
Q 2323 2944 2518 2688 
Q 2714 2432 2714 1958 
L 2714 544 
Q 2714 288 2790 205 
Q 2867 122 3104 96 
L 3104 0 
z
" transform="scale(0.015625)"/>
       <path id="STIXGeneral-Regular-67" d="M 3008 2483 
L 2477 2483 
Q 2598 2208 2598 1946 
Q 2598 1453 2265 1203 
Q 1933 954 1600 954 
Q 1530 954 1357 973 
L 1235 986 
Q 1107 947 979 812 
Q 851 678 851 582 
Q 851 435 1350 410 
L 2176 371 
Q 2528 358 2739 172 
Q 2950 -13 2950 -314 
Q 2950 -685 2566 -986 
Q 2035 -1395 1286 -1395 
Q 826 -1395 502 -1212 
Q 179 -1030 179 -774 
Q 179 -595 320 -419 
Q 461 -243 806 6 
Q 602 102 534 172 
Q 467 243 467 346 
Q 467 531 762 787 
Q 909 915 1037 1043 
Q 717 1203 579 1401 
Q 442 1600 442 1901 
Q 442 2336 752 2640 
Q 1062 2944 1510 2944 
Q 1766 2944 2022 2848 
L 2163 2797 
Q 2349 2733 2515 2733 
L 3008 2733 
L 3008 2483 
z
M 973 2163 
L 973 2144 
Q 973 1683 1155 1398 
Q 1338 1114 1632 1114 
Q 1850 1114 1978 1270 
Q 2106 1427 2106 1690 
Q 2106 2112 1914 2464 
Q 1754 2765 1446 2765 
Q 1222 2765 1097 2605 
Q 973 2445 973 2163 
z
M 2771 -410 
Q 2771 -230 2595 -163 
Q 2419 -96 1978 -96 
Q 1344 -96 941 -13 
Q 749 -243 688 -348 
Q 627 -454 627 -563 
Q 627 -774 880 -902 
Q 1133 -1030 1555 -1030 
Q 2099 -1030 2435 -860 
Q 2771 -691 2771 -410 
z
" transform="scale(0.015625)"/>
       <path id="STIXGeneral-Regular-20" transform="scale(0.015625)"/>
       <path id="STIXGeneral-Regular-45" d="M 3821 1082 
L 3526 0 
L 77 0 
L 77 122 
Q 442 147 538 252 
Q 634 358 634 730 
L 634 3520 
Q 634 3878 534 3987 
Q 435 4096 77 4115 
L 77 4237 
L 3469 4237 
L 3494 3322 
L 3334 3322 
Q 3264 3750 3085 3872 
Q 2906 3994 2349 3994 
L 1510 3994 
Q 1370 3994 1328 3952 
Q 1286 3910 1286 3763 
L 1286 2355 
L 2253 2355 
Q 2656 2355 2787 2470 
Q 2918 2586 2976 2970 
L 3123 2970 
L 3123 1472 
L 2976 1472 
Q 2918 1875 2790 1984 
Q 2662 2093 2253 2093 
L 1286 2093 
L 1286 538 
Q 1286 346 1420 291 
Q 1555 237 1933 237 
L 2163 237 
Q 2848 237 3136 403 
Q 3424 570 3642 1082 
L 3821 1082 
z
" transform="scale(0.015625)"/>
       <path id="STIXGeneral-Regular-76" d="M 3053 2880 
L 3053 2784 
Q 2906 2771 2835 2688 
Q 2765 2605 2637 2285 
L 1818 230 
Q 1690 -90 1638 -90 
Q 1587 -90 1523 77 
Q 1510 96 1497 141 
Q 1485 186 1472 211 
L 704 2048 
Q 499 2534 403 2652 
Q 307 2771 122 2784 
L 122 2880 
L 1376 2880 
L 1376 2784 
Q 1210 2771 1146 2732 
Q 1082 2694 1082 2611 
Q 1082 2509 1139 2368 
L 1792 730 
L 2426 2387 
Q 2464 2483 2464 2579 
Q 2464 2758 2163 2784 
L 2163 2880 
L 3053 2880 
z
" transform="scale(0.015625)"/>
       <path id="STIXGeneral-Regular-6f" d="M 3008 1478 
Q 3008 806 2608 371 
Q 2208 -64 1568 -64 
Q 979 -64 582 368 
Q 186 800 186 1459 
Q 186 2125 582 2534 
Q 979 2944 1626 2944 
Q 2221 2944 2614 2537 
Q 3008 2131 3008 1478 
z
M 2432 1306 
Q 2432 2035 2112 2445 
Q 1856 2765 1504 2765 
Q 1171 2765 966 2493 
Q 762 2221 762 1747 
Q 762 928 1101 435 
Q 1318 115 1677 115 
Q 2029 115 2230 432 
Q 2432 749 2432 1306 
z
" transform="scale(0.015625)"/>
       <path id="STIXGeneral-Regular-6d" d="M 4960 0 
L 3565 0 
L 3565 96 
Q 3834 122 3907 208 
Q 3981 294 3981 576 
L 3981 1894 
Q 3981 2278 3869 2444 
Q 3757 2611 3488 2611 
Q 3264 2611 3107 2521 
Q 2950 2432 2803 2221 
L 2803 608 
Q 2803 301 2896 201 
Q 2989 102 3264 96 
L 3264 0 
L 1830 0 
L 1830 96 
Q 2112 115 2189 188 
Q 2266 262 2266 550 
L 2266 1901 
Q 2266 2611 1850 2611 
Q 1670 2611 1468 2531 
Q 1267 2451 1171 2336 
Q 1088 2240 1088 2227 
L 1088 448 
Q 1088 243 1177 176 
Q 1267 109 1523 96 
L 1523 0 
L 102 0 
L 102 96 
Q 371 102 460 195 
Q 550 288 550 563 
L 550 2150 
Q 550 2387 499 2480 
Q 448 2573 326 2573 
Q 230 2573 122 2547 
L 122 2656 
Q 557 2778 1011 2944 
L 1062 2925 
L 1062 2451 
L 1075 2451 
Q 1363 2752 1584 2848 
Q 1805 2944 2054 2944 
Q 2560 2944 2733 2406 
Q 3232 2944 3776 2944 
Q 4518 2944 4518 1792 
L 4518 493 
Q 4518 282 4582 202 
Q 4646 122 4794 109 
L 4960 96 
L 4960 0 
z
" transform="scale(0.015625)"/>
       <path id="STIXGeneral-Regular-65" d="M 2611 1050 
L 2714 1005 
Q 2330 -64 1376 -64 
Q 813 -64 486 329 
Q 160 723 160 1389 
Q 160 2074 525 2509 
Q 890 2944 1485 2944 
Q 2061 2944 2374 2502 
Q 2560 2246 2592 1773 
L 621 1773 
Q 646 1370 700 1158 
Q 755 947 915 730 
Q 1184 378 1626 378 
Q 1939 378 2153 531 
Q 2368 685 2611 1050 
z
M 634 1978 
L 1939 1978 
Q 1882 2381 1750 2547 
Q 1619 2714 1312 2714 
Q 1043 2714 864 2525 
Q 685 2336 634 1978 
z
" transform="scale(0.015625)"/>
       <path id="STIXGeneral-Regular-74" d="M 1702 493 
L 1786 422 
Q 1478 -64 1011 -64 
Q 448 -64 448 749 
L 448 2675 
L 109 2675 
Q 83 2694 83 2720 
Q 83 2771 192 2842 
Q 435 2982 813 3526 
Q 826 3546 874 3606 
Q 922 3667 941 3706 
Q 986 3706 986 3622 
L 986 2880 
L 1632 2880 
L 1632 2675 
L 986 2675 
L 986 845 
Q 986 538 1062 403 
Q 1139 269 1318 269 
Q 1510 269 1702 493 
z
" transform="scale(0.015625)"/>
       <path id="STIXGeneral-Regular-53" d="M 3002 2963 
L 2842 2963 
Q 2733 3360 2579 3565 
Q 2189 4064 1651 4064 
Q 1357 4064 1181 3894 
Q 1005 3725 1005 3456 
Q 1005 3328 1069 3206 
Q 1133 3085 1206 2998 
Q 1280 2912 1465 2784 
Q 1651 2656 1766 2589 
Q 1882 2522 2150 2362 
Q 2669 2061 2905 1763 
Q 3142 1466 3142 1107 
Q 3142 576 2771 243 
Q 2400 -90 1837 -90 
Q 1421 -90 1082 58 
Q 915 128 781 128 
Q 704 128 653 70 
Q 602 13 602 -83 
L 461 -83 
L 275 1274 
L 416 1274 
Q 845 141 1734 141 
Q 2074 141 2285 342 
Q 2496 544 2496 858 
Q 2496 1158 2310 1363 
Q 2003 1696 1235 2106 
Q 454 2522 454 3206 
Q 454 3718 768 4022 
Q 1082 4326 1568 4326 
Q 1907 4326 2240 4186 
Q 2413 4109 2522 4109 
Q 2688 4109 2726 4326 
L 2861 4326 
L 3002 2963 
z
" transform="scale(0.015625)"/>
       <path id="STIXGeneral-Regular-70" d="M 1018 2931 
L 1018 2438 
Q 1421 2944 1939 2944 
Q 2406 2944 2707 2560 
Q 3008 2176 3008 1581 
Q 3008 883 2621 409 
Q 2234 -64 1664 -64 
Q 1466 -64 1328 -6 
Q 1190 51 1018 211 
L 1018 -794 
Q 1018 -1094 1120 -1180 
Q 1222 -1267 1581 -1274 
L 1581 -1389 
L 32 -1389 
L 32 -1280 
Q 314 -1254 397 -1171 
Q 480 -1088 480 -838 
L 480 2157 
Q 480 2381 429 2451 
Q 378 2522 218 2522 
Q 115 2522 58 2515 
L 58 2618 
Q 506 2752 979 2944 
L 1018 2931 
z
M 1018 2138 
L 1018 563 
Q 1018 422 1238 281 
Q 1459 141 1683 141 
Q 2029 141 2243 467 
Q 2458 794 2458 1325 
Q 2458 1888 2243 2224 
Q 2029 2560 1670 2560 
Q 1446 2560 1232 2419 
Q 1018 2278 1018 2138 
z
" transform="scale(0.015625)"/>
       <path id="STIXGeneral-Regular-73" d="M 998 1926 
L 1664 1523 
Q 1984 1331 2105 1164 
Q 2227 998 2227 736 
Q 2227 416 1961 176 
Q 1696 -64 1331 -64 
Q 1030 -64 864 -6 
Q 691 51 570 51 
Q 461 51 416 -26 
L 333 -26 
L 333 979 
L 435 979 
Q 538 512 730 294 
Q 922 77 1248 77 
Q 1485 77 1632 211 
Q 1779 346 1779 550 
Q 1779 845 1440 1030 
L 1094 1222 
Q 326 1651 326 2150 
Q 326 2522 566 2730 
Q 806 2938 1210 2938 
Q 1491 2938 1638 2867 
Q 1754 2816 1818 2816 
Q 1862 2816 1920 2880 
L 1990 2880 
L 2022 2010 
L 1926 2010 
Q 1818 2445 1654 2621 
Q 1491 2797 1203 2797 
Q 986 2797 854 2688 
Q 723 2579 723 2362 
Q 723 2253 796 2128 
Q 870 2003 998 1926 
z
" transform="scale(0.015625)"/>
      </defs>
      <use xlink:href="#STIXGeneral-Regular-54"/>
      <use xlink:href="#STIXGeneral-Regular-72" x="61.099991"/>
      <use xlink:href="#STIXGeneral-Regular-61" x="94.399979"/>
      <use xlink:href="#STIXGeneral-Regular-69" x="138.799973"/>
      <use xlink:href="#STIXGeneral-Regular-6e" x="166.59996"/>
      <use xlink:href="#STIXGeneral-Regular-69" x="216.599945"/>
      <use xlink:href="#STIXGeneral-Regular-6e" x="244.399933"/>
      <use xlink:href="#STIXGeneral-Regular-67" x="294.399918"/>
      <use xlink:href="#STIXGeneral-Regular-20" x="344.399902"/>
      <use xlink:href="#STIXGeneral-Regular-45" x="369.399887"/>
      <use xlink:href="#STIXGeneral-Regular-6e" x="430.499878"/>
      <use xlink:href="#STIXGeneral-Regular-76" x="480.499863"/>
      <use xlink:href="#STIXGeneral-Regular-69" x="530.499847"/>
      <use xlink:href="#STIXGeneral-Regular-72" x="558.299835"/>
      <use xlink:href="#STIXGeneral-Regular-6f" x="591.599823"/>
      <use xlink:href="#STIXGeneral-Regular-6e" x="641.599808"/>
      <use xlink:href="#STIXGeneral-Regular-6d" x="691.599792"/>
      <use xlink:href="#STIXGeneral-Regular-65" x="769.39978"/>
      <use xlink:href="#STIXGeneral-Regular-6e" x="813.799774"/>
      <use xlink:href="#STIXGeneral-Regular-74" x="863.799759"/>
      <use xlink:href="#STIXGeneral-Regular-20" x="891.599747"/>
      <use xlink:href="#STIXGeneral-Regular-53" x="916.599731"/>
      <use xlink:href="#STIXGeneral-Regular-74" x="972.199722"/>
      <use xlink:href="#STIXGeneral-Regular-65" x="999.99971"/>
      <use xlink:href="#STIXGeneral-Regular-70" x="1044.399704"/>
      <use xlink:href="#STIXGeneral-Regular-73" x="1094.399689"/>
     </g>
    </g>
    <g id="text_9">
     <!-- 1e8 -->
     <g transform="translate(472.806875 343.645562)scale(0.18 -0.18)">
      <defs>
       <path id="STIXGeneral-Regular-38" d="M 2848 992 
Q 2848 499 2505 204 
Q 2163 -90 1587 -90 
Q 1050 -90 704 204 
Q 358 499 358 954 
Q 358 1293 524 1533 
Q 691 1773 1190 2125 
Q 710 2522 553 2765 
Q 397 3008 397 3328 
Q 397 3782 745 4054 
Q 1094 4326 1638 4326 
Q 2106 4326 2410 4060 
Q 2714 3795 2714 3411 
Q 2714 3059 2531 2848 
Q 2349 2637 1856 2374 
Q 2432 1990 2640 1689 
Q 2848 1389 2848 992 
z
M 2272 3411 
Q 2272 3744 2086 3945 
Q 1901 4147 1574 4147 
Q 1248 4147 1059 3977 
Q 870 3808 870 3513 
Q 870 3219 1059 2979 
Q 1248 2739 1670 2490 
Q 1997 2682 2134 2896 
Q 2272 3110 2272 3411 
z
M 1734 1741 
L 1357 1997 
Q 1075 1766 960 1545 
Q 845 1325 845 1011 
Q 845 576 1065 333 
Q 1286 90 1658 90 
Q 1971 90 2166 285 
Q 2362 480 2362 794 
Q 2362 1082 2214 1299 
Q 2067 1517 1734 1741 
z
" transform="scale(0.015625)"/>
      </defs>
      <use xlink:href="#STIXGeneral-Regular-31"/>
      <use xlink:href="#STIXGeneral-Regular-65" x="49.999985"/>
      <use xlink:href="#STIXGeneral-Regular-38" x="94.399979"/>
     </g>
    </g>
   </g>
   <g id="matplotlib.axis_2">
    <g id="ytick_1">
     <g id="line2d_15">
      <path d="M 52.4 253.746516 
L 498.8 253.746516 
" clip-path="url(#pd732c87448)" style="fill: none; stroke: #b0b0b0; stroke-width: 0.8; stroke-linecap: square"/>
     </g>
     <g id="line2d_16">
      <defs>
       <path id="m51d460bb80" d="M 0 0 
L -3.5 0 
" style="stroke: #000000; stroke-width: 0.8"/>
      </defs>
      <g>
       <use xlink:href="#m51d460bb80" x="52.4" y="253.746516" style="stroke: #000000; stroke-width: 0.8"/>
      </g>
     </g>
     <g id="text_10">
      <!-- 10 -->
      <g transform="translate(27.4 259.893235)scale(0.18 -0.18)">
       <use xlink:href="#STIXGeneral-Regular-31"/>
       <use xlink:href="#STIXGeneral-Regular-30" x="49.999985"/>
      </g>
     </g>
    </g>
    <g id="ytick_2">
     <g id="line2d_17">
      <path d="M 52.4 199.195076 
L 498.8 199.195076 
" clip-path="url(#pd732c87448)" style="fill: none; stroke: #b0b0b0; stroke-width: 0.8; stroke-linecap: square"/>
     </g>
     <g id="line2d_18">
      <g>
       <use xlink:href="#m51d460bb80" x="52.4" y="199.195076" style="stroke: #000000; stroke-width: 0.8"/>
      </g>
     </g>
     <g id="text_11">
      <!-- 15 -->
      <g transform="translate(27.4 205.341795)scale(0.18 -0.18)">
       <use xlink:href="#STIXGeneral-Regular-31"/>
       <use xlink:href="#STIXGeneral-Regular-35" x="49.999985"/>
      </g>
     </g>
    </g>
    <g id="ytick_3">
     <g id="line2d_19">
      <path d="M 52.4 144.643637 
L 498.8 144.643637 
" clip-path="url(#pd732c87448)" style="fill: none; stroke: #b0b0b0; stroke-width: 0.8; stroke-linecap: square"/>
     </g>
     <g id="line2d_20">
      <g>
       <use xlink:href="#m51d460bb80" x="52.4" y="144.643637" style="stroke: #000000; stroke-width: 0.8"/>
      </g>
     </g>
     <g id="text_12">
      <!-- 20 -->
      <g transform="translate(27.4 150.790356)scale(0.18 -0.18)">
       <use xlink:href="#STIXGeneral-Regular-32"/>
       <use xlink:href="#STIXGeneral-Regular-30" x="49.999985"/>
      </g>
     </g>
    </g>
    <g id="ytick_4">
     <g id="line2d_21">
      <path d="M 52.4 90.092198 
L 498.8 90.092198 
" clip-path="url(#pd732c87448)" style="fill: none; stroke: #b0b0b0; stroke-width: 0.8; stroke-linecap: square"/>
     </g>
     <g id="line2d_22">
      <g>
       <use xlink:href="#m51d460bb80" x="52.4" y="90.092198" style="stroke: #000000; stroke-width: 0.8"/>
      </g>
     </g>
     <g id="text_13">
      <!-- 25 -->
      <g transform="translate(27.4 96.238916)scale(0.18 -0.18)">
       <use xlink:href="#STIXGeneral-Regular-32"/>
       <use xlink:href="#STIXGeneral-Regular-35" x="49.999985"/>
      </g>
     </g>
    </g>
    <g id="ytick_5">
     <g id="line2d_23">
      <path d="M 52.4 35.540758 
L 498.8 35.540758 
" clip-path="url(#pd732c87448)" style="fill: none; stroke: #b0b0b0; stroke-width: 0.8; stroke-linecap: square"/>
     </g>
     <g id="line2d_24">
      <g>
       <use xlink:href="#m51d460bb80" x="52.4" y="35.540758" style="stroke: #000000; stroke-width: 0.8"/>
      </g>
     </g>
     <g id="text_14">
      <!-- 30 -->
      <g transform="translate(27.4 41.687477)scale(0.18 -0.18)">
       <use xlink:href="#STIXGeneral-Regular-33"/>
       <use xlink:href="#STIXGeneral-Regular-30" x="49.999985"/>
      </g>
     </g>
    </g>
    <g id="text_15">
     <!-- Average Test Return -->
     <g transform="translate(19.476562 241.533375)rotate(-90)scale(0.18 -0.18)">
      <defs>
       <path id="STIXGeneral-Regular-41" d="M 4525 0 
L 2893 0 
L 2893 122 
Q 3149 122 3245 179 
Q 3334 224 3334 333 
Q 3334 499 3213 781 
L 2950 1382 
L 1274 1382 
L 979 653 
Q 922 506 922 384 
Q 922 237 1027 179 
Q 1133 122 1370 122 
L 1370 0 
L 96 0 
L 96 122 
Q 365 147 486 316 
Q 608 486 902 1190 
L 2221 4314 
L 2349 4314 
L 3923 710 
Q 4064 378 4176 262 
Q 4288 147 4525 122 
L 4525 0 
z
M 2861 1645 
L 2118 3405 
L 1382 1645 
L 2861 1645 
z
" transform="scale(0.015625)"/>
       <path id="STIXGeneral-Regular-52" d="M 4224 0 
L 3187 0 
L 1664 1971 
L 1306 1958 
L 1306 717 
Q 1306 352 1405 249 
Q 1504 147 1875 122 
L 1875 0 
L 109 0 
L 109 122 
Q 474 154 563 262 
Q 653 371 653 794 
L 653 3526 
Q 653 3885 563 3987 
Q 474 4090 109 4115 
L 109 4237 
L 1850 4237 
Q 2726 4237 3187 3859 
Q 3501 3603 3501 3091 
Q 3501 2221 2342 2042 
L 3622 422 
Q 3757 256 3878 198 
Q 4000 141 4224 122 
L 4224 0 
z
M 1306 3731 
L 1306 2195 
Q 1766 2202 1990 2246 
Q 2214 2291 2438 2413 
Q 2803 2618 2803 3142 
Q 2803 4000 1632 4000 
Q 1459 4000 1382 3945 
Q 1306 3891 1306 3731 
z
" transform="scale(0.015625)"/>
       <path id="STIXGeneral-Regular-75" d="M 3072 320 
L 3072 230 
Q 2573 96 2195 -58 
L 2163 -38 
L 2163 486 
L 2150 486 
Q 1747 -64 1235 -64 
Q 870 -64 662 160 
Q 454 384 454 755 
L 454 2362 
Q 454 2598 371 2688 
Q 288 2778 58 2790 
L 58 2880 
L 992 2880 
L 992 813 
Q 992 595 1123 451 
Q 1254 307 1446 307 
Q 1760 307 1984 506 
Q 2067 582 2099 649 
Q 2131 717 2131 877 
L 2131 2355 
Q 2131 2605 2041 2678 
Q 1952 2752 1658 2771 
L 1658 2880 
L 2669 2880 
L 2669 685 
Q 2669 461 2742 390 
Q 2816 320 3034 320 
L 3072 320 
z
" transform="scale(0.015625)"/>
      </defs>
      <use xlink:href="#STIXGeneral-Regular-41"/>
      <use xlink:href="#STIXGeneral-Regular-76" x="72.199982"/>
      <use xlink:href="#STIXGeneral-Regular-65" x="122.199966"/>
      <use xlink:href="#STIXGeneral-Regular-72" x="166.59996"/>
      <use xlink:href="#STIXGeneral-Regular-61" x="199.899948"/>
      <use xlink:href="#STIXGeneral-Regular-67" x="244.299942"/>
      <use xlink:href="#STIXGeneral-Regular-65" x="294.299927"/>
      <use xlink:href="#STIXGeneral-Regular-20" x="338.699921"/>
      <use xlink:href="#STIXGeneral-Regular-54" x="363.699905"/>
      <use xlink:href="#STIXGeneral-Regular-65" x="424.799896"/>
      <use xlink:href="#STIXGeneral-Regular-73" x="469.19989"/>
      <use xlink:href="#STIXGeneral-Regular-74" x="508.099884"/>
      <use xlink:href="#STIXGeneral-Regular-20" x="535.899872"/>
      <use xlink:href="#STIXGeneral-Regular-52" x="560.899857"/>
      <use xlink:href="#STIXGeneral-Regular-65" x="627.599854"/>
      <use xlink:href="#STIXGeneral-Regular-74" x="671.999847"/>
      <use xlink:href="#STIXGeneral-Regular-75" x="699.799835"/>
      <use xlink:href="#STIXGeneral-Regular-72" x="749.79982"/>
      <use xlink:href="#STIXGeneral-Regular-6e" x="783.099808"/>
     </g>
    </g>
   </g>
   <g id="line2d_25">
    <path d="M 72.690909 274.596349 
L 73.464387 237.919244 
L 73.722213 236.163137 
L 73.980039 232.974216 
L 74.237865 217.61988 
L 74.495691 213.942556 
L 74.753517 216.207905 
L 75.269169 189.306518 
L 75.526995 197.63225 
L 76.042648 191.459825 
L 76.300474 195.212941 
L 76.5583 184.293267 
L 76.816126 179.552849 
L 77.073952 183.67757 
L 77.331778 177.563128 
L 77.589604 185.299776 
L 78.363082 160.701155 
L 78.620908 158.76067 
L 78.878734 153.129448 
L 79.13656 142.613296 
L 79.394386 142.977565 
L 79.652212 146.283566 
L 79.910038 151.434364 
L 80.167864 161.05575 
L 80.42569 161.022195 
L 80.683516 169.940794 
L 80.941342 166.298858 
L 81.199168 153.739941 
L 81.456994 147.540741 
L 81.71482 153.758189 
L 82.230472 134.180891 
L 82.488298 129.621961 
L 82.746125 138.734235 
L 83.003951 126.429988 
L 83.261777 136.26096 
L 83.519603 114.102859 
L 83.777429 120.492365 
L 84.293081 111.562716 
L 84.550907 107.641455 
L 84.808733 113.975709 
L 85.066559 114.762148 
L 85.582211 146.889419 
L 85.840037 155.969493 
L 86.097863 160.771246 
L 86.613515 177.914263 
L 86.871341 174.026724 
L 87.129167 173.924503 
L 87.386993 179.290438 
L 87.644819 189.37901 
L 88.676123 163.650756 
L 88.933949 166.173395 
L 89.449601 180.618883 
L 89.707428 193.87523 
L 90.480906 205.590505 
L 90.738732 203.697025 
L 90.996558 204.762964 
L 91.254384 195.962492 
L 91.51221 196.449615 
L 91.770036 199.904788 
L 92.027862 198.185819 
L 92.285688 210.55562 
L 92.80134 220.646033 
L 93.059166 220.255674 
L 93.316992 224.189955 
L 93.574818 232.770437 
L 93.832644 230.097746 
L 94.348296 239.162798 
L 94.606122 242.789069 
L 94.863948 242.345041 
L 95.121774 249.424798 
L 95.3796 245.539055 
L 95.637426 248.215748 
L 95.895252 247.566119 
L 96.153078 249.748069 
L 96.410904 245.263301 
L 96.668731 247.587292 
L 96.926557 246.820305 
L 97.184383 246.5515 
L 97.442209 241.77845 
L 97.700035 242.544381 
L 98.215687 235.290577 
L 98.473513 236.41678 
L 98.731339 243.661957 
L 98.989165 244.364348 
L 99.246991 249.916349 
L 99.504817 249.519492 
L 99.762643 249.461132 
L 100.020469 248.137565 
L 100.278295 250.794481 
L 100.536121 247.846458 
L 100.793947 247.272052 
L 101.051773 249.220074 
L 101.309599 244.130551 
L 101.567425 244.514498 
L 101.825251 241.782507 
L 102.083077 255.857821 
L 102.340903 257.353136 
L 102.598729 254.55957 
L 102.856555 248.319056 
L 103.114381 248.882202 
L 103.630033 236.497826 
L 103.88786 240.03622 
L 104.145686 254.858289 
L 104.403512 249.396776 
L 104.661338 249.775999 
L 104.919164 253.668883 
L 105.17699 241.501376 
L 105.434816 244.267688 
L 105.692642 249.73307 
L 105.950468 247.127718 
L 106.208294 251.265787 
L 106.723946 241.132306 
L 106.981772 237.889868 
L 107.239598 247.51 
L 107.497424 244.618351 
L 107.75525 244.408781 
L 108.013076 244.843927 
L 108.270902 250.204155 
L 108.528728 249.487845 
L 108.786554 251.394237 
L 109.04438 250.464912 
L 109.302206 246.44125 
L 109.560032 244.552739 
L 109.817858 246.291745 
L 110.075684 245.493347 
L 110.33351 242.031871 
L 110.591336 242.682911 
L 111.364815 254.718737 
L 111.622641 244.182283 
L 111.880467 245.100462 
L 112.138293 240.259042 
L 112.396119 243.114376 
L 112.653945 243.617124 
L 112.911771 243.176832 
L 113.169597 245.429022 
L 113.427423 249.653867 
L 113.685249 244.75756 
L 114.200901 243.73544 
L 114.458727 249.631462 
L 114.716553 249.70786 
L 114.974379 246.061459 
L 115.232205 249.069419 
L 115.490031 248.216557 
L 115.747857 246.876337 
L 116.005683 246.57049 
L 116.263509 243.110192 
L 116.521335 243.976062 
L 116.779161 243.547202 
L 117.036987 245.308932 
L 117.294813 243.614971 
L 117.552639 239.584131 
L 117.810466 243.518037 
L 118.068292 245.213875 
L 118.326118 244.142711 
L 118.583944 248.105699 
L 118.84177 246.449007 
L 119.099596 246.663633 
L 119.357422 242.165392 
L 119.615248 234.500569 
L 119.873074 236.750837 
L 120.1309 243.917266 
L 120.388726 242.886967 
L 120.646552 238.438196 
L 120.904378 237.593342 
L 121.162204 238.223236 
L 121.677856 240.117227 
L 121.935682 237.787317 
L 122.451334 239.816239 
L 122.70916 240.996387 
L 122.966986 235.331973 
L 123.224812 236.474247 
L 123.482638 233.273309 
L 123.740464 231.555682 
L 123.99829 236.00031 
L 124.256116 236.724129 
L 124.513942 236.322011 
L 125.029595 242.06547 
L 125.287421 243.99314 
L 125.545247 241.722639 
L 125.803073 247.21628 
L 126.576551 241.656508 
L 127.092203 245.280889 
L 127.350029 246.295248 
L 127.607855 243.446785 
L 127.865681 243.191013 
L 128.123507 244.095516 
L 128.381333 240.343499 
L 128.639159 244.017611 
L 128.896985 244.736385 
L 129.154811 238.044241 
L 129.412637 237.88877 
L 129.670463 238.601698 
L 129.928289 242.559645 
L 130.186115 241.576453 
L 130.443941 236.303634 
L 130.701767 239.718736 
L 130.959593 245.156449 
L 131.217419 241.897697 
L 131.475245 243.202613 
L 131.733072 234.447385 
L 131.990898 231.19899 
L 132.50655 239.046871 
L 132.764376 236.399953 
L 133.280028 242.261584 
L 133.537854 240.628913 
L 133.79568 242.633387 
L 134.053506 245.605839 
L 134.311332 245.163589 
L 134.569158 245.027938 
L 134.826984 245.958587 
L 135.08481 248.748573 
L 135.342636 247.640401 
L 135.858288 242.028357 
L 136.116114 246.369796 
L 136.631766 242.902075 
L 136.889592 245.224509 
L 137.147418 242.759293 
L 137.405244 247.441419 
L 137.66307 246.671568 
L 137.920896 239.663222 
L 138.178722 243.582072 
L 138.436548 244.724337 
L 138.694374 244.776836 
L 138.952201 244.33128 
L 139.210027 244.123803 
L 139.725679 251.494864 
L 139.983505 245.204455 
L 140.241331 245.301949 
L 140.499157 241.697327 
L 140.756983 242.827822 
L 141.014809 243.200852 
L 141.272635 241.308176 
L 141.530461 241.413421 
L 141.788287 241.251556 
L 142.046113 239.990375 
L 142.303939 243.993341 
L 142.561765 242.179258 
L 142.819591 242.321058 
L 143.077417 242.939463 
L 143.335243 240.922573 
L 143.593069 240.297596 
L 143.850895 240.45883 
L 144.624373 230.93028 
L 145.140025 235.847899 
L 145.397851 232.683996 
L 145.655677 231.881965 
L 145.913504 230.602302 
L 146.17133 230.605142 
L 146.429156 235.203764 
L 146.686982 233.653352 
L 146.944808 228.593153 
L 147.202634 230.788186 
L 147.46046 231.0048 
L 147.976112 233.741771 
L 148.233938 238.417605 
L 148.74959 230.593579 
L 149.007416 233.384978 
L 149.265242 233.144448 
L 149.523068 227.851851 
L 149.780894 226.107698 
L 150.03872 227.022722 
L 150.812198 232.549242 
L 151.070024 229.089955 
L 151.585676 225.812686 
L 151.843502 221.750321 
L 152.101328 223.005683 
L 152.359154 228.369445 
L 152.61698 225.063058 
L 152.874807 224.896319 
L 153.132633 228.484765 
L 153.390459 230.039766 
L 153.648285 224.832296 
L 153.906111 223.655804 
L 154.163937 230.239225 
L 154.421763 230.281029 
L 154.679589 228.800312 
L 154.937415 228.783576 
L 155.710893 222.339953 
L 155.968719 222.337339 
L 156.226545 228.160615 
L 156.484371 226.868641 
L 157.000023 234.033932 
L 157.257849 235.142342 
L 157.515675 231.53983 
L 157.773501 231.374907 
L 158.031327 231.812982 
L 158.289153 231.334738 
L 158.546979 233.508737 
L 158.804805 232.115002 
L 159.320457 227.112843 
L 159.578283 227.851037 
L 159.83611 234.261874 
L 160.093936 232.95278 
L 160.351762 233.329946 
L 160.609588 230.122575 
L 160.867414 231.052792 
L 161.12524 229.210704 
L 161.383066 225.245484 
L 161.640892 224.532536 
L 162.41437 229.515869 
L 162.672196 233.06228 
L 162.930022 232.382296 
L 163.445674 237.321702 
L 163.7035 234.453045 
L 163.961326 237.449373 
L 164.219152 230.16713 
L 164.476978 234.386628 
L 164.734804 231.702236 
L 164.99263 232.996767 
L 165.250456 232.831692 
L 165.508282 231.680969 
L 165.766108 237.519698 
L 166.023934 233.378646 
L 166.28176 236.551584 
L 166.539586 236.523488 
L 166.797412 235.295372 
L 167.570891 223.88213 
L 167.828717 223.7096 
L 168.086543 224.756036 
L 168.344369 225.065675 
L 168.602195 223.453657 
L 168.860021 225.649341 
L 169.117847 225.697816 
L 169.375673 230.707982 
L 169.891325 225.169748 
L 170.149151 228.272833 
L 170.406977 224.833328 
L 170.664803 226.191609 
L 170.922629 229.739061 
L 171.180455 226.13253 
L 171.696107 235.35149 
L 172.211759 232.932882 
L 172.469585 233.044105 
L 172.727411 236.39431 
L 172.985237 235.263138 
L 173.243063 239.399489 
L 173.500889 240.957314 
L 173.758715 235.89635 
L 174.016542 239.239278 
L 174.274368 231.323926 
L 174.532194 236.501622 
L 174.79002 235.991518 
L 175.047846 237.562713 
L 175.305672 233.556129 
L 175.821324 244.57341 
L 176.07915 240.542152 
L 176.594802 237.403021 
L 176.852628 238.909905 
L 177.110454 238.660062 
L 177.36828 235.765916 
L 177.626106 235.486995 
L 177.883932 238.291013 
L 178.141758 236.045073 
L 178.399584 237.314268 
L 178.65741 235.642056 
L 178.915236 235.309642 
L 179.173062 239.749642 
L 179.430888 235.731361 
L 179.688714 234.626245 
L 179.94654 229.919816 
L 180.204366 232.757269 
L 180.462192 240.410802 
L 180.720018 236.998291 
L 180.977845 237.865889 
L 181.235671 240.018097 
L 181.493497 232.939963 
L 181.751323 237.241355 
L 182.009149 237.158383 
L 182.266975 237.522327 
L 182.524801 233.944741 
L 182.782627 240.635676 
L 183.040453 244.435072 
L 183.556105 247.960413 
L 183.813931 244.59199 
L 184.071757 243.778532 
L 184.329583 242.520972 
L 184.587409 242.820761 
L 184.845235 243.813724 
L 185.103061 240.769623 
L 185.360887 245.150449 
L 185.618713 244.418474 
L 185.876539 242.084643 
L 186.134365 234.482793 
L 186.392191 236.824277 
L 186.650017 237.590545 
L 186.907843 237.703517 
L 187.165669 236.505923 
L 187.423495 236.438411 
L 187.681321 238.694186 
L 187.939148 234.341068 
L 188.196974 238.222729 
L 188.4548 238.009639 
L 188.712626 240.169877 
L 188.970452 241.291088 
L 189.228278 238.437213 
L 189.486104 237.725527 
L 189.74393 234.200031 
L 190.001756 233.549143 
L 190.259582 231.857823 
L 190.517408 240.215127 
L 190.775234 234.985836 
L 191.03306 235.515808 
L 191.290886 234.646206 
L 191.548712 239.604885 
L 191.806538 236.830699 
L 192.064364 238.516507 
L 192.32219 234.214824 
L 192.837842 234.002138 
L 193.095668 232.535389 
L 193.353494 231.872493 
L 193.61132 234.957205 
L 194.126972 235.351285 
L 194.384798 234.837193 
L 194.642624 229.482875 
L 194.900451 237.711573 
L 195.158277 238.240078 
L 195.673929 228.076 
L 195.931755 231.785227 
L 196.189581 231.517988 
L 196.447407 232.942413 
L 196.705233 224.398273 
L 196.963059 226.608823 
L 197.220885 230.619545 
L 197.478711 228.354283 
L 197.736537 230.408024 
L 197.994363 237.360449 
L 198.252189 239.606431 
L 198.510015 239.544115 
L 198.767841 242.749871 
L 199.025667 247.478218 
L 199.283493 244.712095 
L 199.541319 247.542065 
L 199.799145 242.339048 
L 200.056971 246.56451 
L 200.314797 258.443681 
L 200.830449 266.091793 
L 201.088275 266.533095 
L 201.346101 270.429943 
L 201.603927 269.305472 
L 202.11958 277.979877 
L 202.377406 267.58994 
L 202.635232 270.379543 
L 202.893058 268.810414 
L 203.150884 278.432078 
L 203.40871 281.706612 
L 203.924362 281.399175 
L 204.182188 284.402991 
L 204.440014 280.930829 
L 204.69784 280.536955 
L 204.955666 283.15284 
L 205.213492 283.107853 
L 205.471318 286.379851 
L 205.729144 283.550463 
L 205.98697 283.842968 
L 206.244796 285.265845 
L 206.502622 283.9664 
L 206.760448 286.62737 
L 207.018274 280.069064 
L 207.533926 290.095111 
L 207.791752 285.76926 
L 208.049578 284.98155 
L 208.307404 281.613465 
L 208.56523 285.463595 
L 208.823056 281.194463 
L 209.080883 282.558717 
L 209.338709 280.213588 
L 210.112187 292.552125 
L 210.370013 288.662135 
L 210.627839 281.764559 
L 210.885665 281.045731 
L 211.143491 279.506323 
L 211.401317 282.828446 
L 211.659143 265.940944 
L 212.174795 284.620554 
L 212.432621 288.255907 
L 212.948273 279.017182 
L 213.463925 285.071375 
L 213.721751 286.643309 
L 213.979577 284.431332 
L 214.237403 283.755128 
L 214.495229 283.750567 
L 214.753055 283.01805 
L 215.010881 286.461341 
L 215.268707 280.428638 
L 215.526533 281.069438 
L 215.784359 282.364941 
L 216.042186 278.965286 
L 216.300012 279.104477 
L 216.557838 277.758292 
L 217.07349 283.65136 
L 217.331316 278.125416 
L 217.589142 282.869082 
L 217.846968 284.149064 
L 218.104794 284.547203 
L 218.36262 281.237095 
L 218.620446 274.034834 
L 218.878272 276.422417 
L 219.136098 273.017949 
L 219.393924 276.916937 
L 219.65175 275.538438 
L 219.909576 272.378968 
L 220.167402 273.197677 
L 220.425228 272.905945 
L 220.683054 279.787129 
L 220.94088 279.215312 
L 221.198706 280.455786 
L 221.456532 282.888067 
L 221.714358 283.397212 
L 221.972184 286.412907 
L 222.23001 282.704758 
L 222.745662 280.76804 
L 223.003489 278.144077 
L 223.261315 278.108984 
L 223.519141 276.180158 
L 223.776967 275.734542 
L 224.034793 280.275111 
L 224.292619 279.080012 
L 224.550445 280.176123 
L 224.808271 279.899665 
L 225.066097 280.155327 
L 225.323923 278.479094 
L 225.581749 283.119519 
L 226.097401 275.228016 
L 226.355227 269.59634 
L 226.613053 277.420259 
L 227.386531 279.881058 
L 228.160009 269.288862 
L 228.417835 268.494159 
L 229.191313 261.059537 
L 229.449139 262.897961 
L 230.222618 273.331613 
L 230.480444 274.522002 
L 230.73827 273.678665 
L 230.996096 271.797851 
L 231.253922 265.179234 
L 231.511748 263.994128 
L 232.0274 270.587994 
L 232.543052 263.618371 
L 232.800878 265.017303 
L 233.058704 264.18965 
L 233.574356 272.385836 
L 233.832182 268.478528 
L 234.090008 267.571187 
L 234.347834 267.217999 
L 234.60566 269.716087 
L 234.863486 281.124047 
L 235.379138 272.601089 
L 235.636964 272.359344 
L 236.152616 271.556391 
L 236.410442 273.272376 
L 236.668268 277.062487 
L 236.926094 273.192195 
L 237.183921 271.428583 
L 237.441747 271.692386 
L 237.699573 265.685313 
L 237.957399 269.499894 
L 238.215225 277.195786 
L 238.473051 272.797534 
L 238.730877 263.400913 
L 238.988703 263.068779 
L 239.246529 265.66066 
L 239.504355 269.905227 
L 239.762181 269.34795 
L 240.020007 270.03572 
L 240.277833 268.233603 
L 240.535659 270.515637 
L 240.793485 260.913102 
L 241.051311 256.992788 
L 241.309137 264.363776 
L 241.824789 268.938039 
L 242.082615 270.396335 
L 242.340441 269.278569 
L 242.598267 270.42526 
L 242.856093 261.844616 
L 243.371745 269.510299 
L 243.629571 269.139923 
L 243.887397 271.478882 
L 244.145224 270.917538 
L 244.40305 276.810298 
L 244.660876 279.443432 
L 244.918702 275.026436 
L 245.176528 266.559966 
L 245.434354 265.709944 
L 246.207832 273.455802 
L 246.465658 265.164379 
L 246.723484 269.518431 
L 246.98131 264.314432 
L 247.239136 262.606466 
L 247.496962 263.840456 
L 247.754788 263.351387 
L 248.012614 259.874812 
L 248.27044 261.558643 
L 248.528266 258.70642 
L 248.786092 260.959551 
L 249.043918 259.352449 
L 249.301744 263.600745 
L 249.55957 258.813916 
L 249.817396 262.530207 
L 250.075222 263.212528 
L 250.590874 265.242632 
L 250.8487 264.07327 
L 251.106527 266.139209 
L 251.364353 257.166662 
L 251.622179 259.472452 
L 251.880005 264.372324 
L 252.137831 263.245573 
L 252.395657 258.792567 
L 252.911309 244.526648 
L 253.169135 243.67418 
L 253.426961 240.628745 
L 253.684787 231.912209 
L 253.942613 214.692807 
L 254.200439 220.280092 
L 254.458265 212.233896 
L 254.716091 208.110433 
L 254.973917 205.823847 
L 255.231743 189.476695 
L 255.489569 193.34792 
L 255.747395 189.342023 
L 256.263047 199.20477 
L 256.520873 188.428049 
L 256.778699 191.991045 
L 257.036525 177.538409 
L 257.294351 181.343754 
L 257.552177 180.079111 
L 257.810003 189.512141 
L 258.325656 196.457379 
L 258.583482 193.966572 
L 258.841308 189.850059 
L 259.099134 179.635613 
L 259.35696 186.56128 
L 259.614786 179.743118 
L 260.130438 186.95546 
L 260.388264 173.910038 
L 260.64609 185.449503 
L 260.903916 186.859566 
L 261.161742 189.408485 
L 261.677394 196.578676 
L 262.193046 187.391447 
L 262.450872 187.712958 
L 262.966524 184.082248 
L 263.22435 179.785804 
L 263.482176 183.507287 
L 263.740002 188.86265 
L 264.255654 177.839323 
L 264.51348 174.143143 
L 264.771306 180.26283 
L 265.029132 173.905917 
L 265.286959 182.084225 
L 265.544785 182.87828 
L 265.802611 184.97818 
L 266.060437 184.057319 
L 266.576089 194.861731 
L 266.833915 192.342836 
L 267.091741 192.315964 
L 267.349567 191.524629 
L 267.607393 184.128223 
L 267.865219 185.72941 
L 268.380871 192.584762 
L 268.638697 187.402251 
L 269.154349 190.481765 
L 269.412175 188.922871 
L 269.670001 182.457967 
L 269.927827 185.461041 
L 270.185653 189.896735 
L 270.443479 196.849028 
L 270.701305 190.149955 
L 270.959131 189.406415 
L 271.216957 178.953573 
L 271.474783 175.262474 
L 272.248262 195.275499 
L 272.506088 193.839517 
L 272.763914 188.656128 
L 273.02174 185.837213 
L 273.279566 189.43687 
L 273.537392 186.810578 
L 274.053044 196.231539 
L 274.568696 187.574419 
L 274.826522 187.924496 
L 275.084348 186.679098 
L 275.342174 182.379273 
L 275.6 182.345356 
L 275.857826 182.691565 
L 276.115652 182.707933 
L 276.373478 179.992753 
L 276.631304 174.52883 
L 276.88913 175.251686 
L 277.146956 178.555893 
L 277.404782 175.855489 
L 277.920434 165.753929 
L 278.17826 171.719155 
L 278.436086 172.000083 
L 278.693912 176.538973 
L 278.951738 175.281057 
L 279.209565 167.489949 
L 279.467391 177.301603 
L 279.725217 177.326292 
L 279.983043 174.304301 
L 280.240869 179.02645 
L 280.498695 177.431156 
L 280.756521 174.011872 
L 281.014347 173.884677 
L 281.272173 178.495193 
L 281.529999 169.838088 
L 281.787825 173.174929 
L 282.045651 173.688123 
L 282.303477 175.791136 
L 282.561303 174.381933 
L 283.076955 179.798996 
L 283.334781 186.113221 
L 283.592607 185.410614 
L 283.850433 185.693417 
L 284.108259 188.827694 
L 284.366085 186.885756 
L 284.623911 189.317848 
L 284.881737 189.353415 
L 285.139563 179.426859 
L 285.655215 176.946825 
L 285.913041 180.494797 
L 286.170868 180.101758 
L 286.68652 190.343996 
L 286.944346 188.899901 
L 287.202172 192.065185 
L 287.459998 188.52099 
L 287.717824 192.191825 
L 288.233476 201.881216 
L 288.749128 198.767418 
L 289.006954 202.099603 
L 289.26478 200.085909 
L 289.522606 204.149832 
L 289.780432 198.794191 
L 290.296084 194.687621 
L 290.55391 187.137557 
L 290.811736 184.895289 
L 291.069562 177.861766 
L 291.327388 178.403075 
L 291.84304 163.490494 
L 292.100866 162.568693 
L 292.358692 164.912235 
L 292.616518 162.286027 
L 292.874344 163.427461 
L 293.13217 161.897967 
L 293.389997 166.380177 
L 293.647823 168.20739 
L 293.905649 168.675089 
L 294.163475 169.557501 
L 294.421301 168.787322 
L 294.679127 173.825017 
L 294.936953 172.748809 
L 295.194779 169.941445 
L 295.710431 171.050034 
L 295.968257 173.937481 
L 296.226083 182.376016 
L 296.483909 184.501229 
L 296.741735 183.239976 
L 297.515213 171.606955 
L 297.773039 176.283959 
L 298.030865 185.118135 
L 298.288691 189.078861 
L 298.546517 184.549103 
L 298.804343 184.025725 
L 299.062169 189.289386 
L 299.319995 178.862563 
L 299.577821 174.170287 
L 299.835647 176.595075 
L 300.093473 177.66074 
L 300.3513 173.697703 
L 300.609126 176.053676 
L 301.382604 187.088877 
L 301.64043 190.454894 
L 302.156082 178.839634 
L 302.413908 176.624213 
L 302.671734 175.426153 
L 302.92956 179.032393 
L 303.187386 176.897564 
L 303.445212 178.273328 
L 303.703038 182.124877 
L 303.960864 179.404524 
L 304.21869 180.792685 
L 304.476516 176.21403 
L 304.734342 181.159217 
L 304.992168 176.440042 
L 305.249994 180.202156 
L 305.50782 180.904372 
L 305.765646 179.953625 
L 306.023472 185.254025 
L 306.281298 186.25065 
L 306.539124 185.786064 
L 306.79695 188.558018 
L 307.054776 188.279185 
L 307.570429 181.962402 
L 307.828255 183.381574 
L 308.086081 181.92354 
L 308.343907 178.478468 
L 308.601733 177.682592 
L 308.859559 168.826821 
L 309.117385 170.717369 
L 309.375211 167.131695 
L 309.633037 169.398569 
L 309.890863 163.850073 
L 310.406515 168.594689 
L 310.664341 169.221371 
L 310.922167 139.801469 
L 311.695645 170.505754 
L 311.953471 170.537043 
L 312.211297 179.184389 
L 312.469123 181.842496 
L 312.726949 179.465018 
L 312.984775 179.182375 
L 313.242601 175.039763 
L 313.500427 173.804319 
L 313.758253 171.011489 
L 314.016079 169.546044 
L 314.273906 165.642425 
L 314.531732 166.146 
L 314.789558 172.312392 
L 315.047384 171.157385 
L 315.30521 166.590002 
L 315.820862 184.106498 
L 316.078688 183.477466 
L 316.336514 183.677966 
L 316.59434 181.161857 
L 316.852166 176.011989 
L 317.367818 173.730048 
L 317.88347 169.185805 
L 318.141296 166.328558 
L 318.656948 166.284051 
L 318.914774 159.525058 
L 319.1726 158.200397 
L 319.430426 160.028225 
L 319.688252 157.014702 
L 319.946078 159.516473 
L 320.203904 155.026641 
L 320.46173 154.075815 
L 320.719556 154.644826 
L 320.977382 161.588691 
L 321.235209 155.043172 
L 321.493035 157.060183 
L 321.750861 161.937538 
L 322.008687 158.776191 
L 322.266513 154.131791 
L 322.524339 155.362902 
L 322.782165 159.305949 
L 323.039991 170.409314 
L 323.297817 172.189222 
L 323.555643 169.559479 
L 323.813469 172.995869 
L 324.071295 168.967854 
L 324.586947 182.356149 
L 324.844773 179.869949 
L 325.102599 173.31783 
L 325.360425 174.701528 
L 325.618251 173.29674 
L 325.876077 169.45115 
L 326.133903 177.150846 
L 326.391729 174.500733 
L 326.907381 182.7073 
L 327.423033 170.009368 
L 327.680859 160.372764 
L 327.938685 168.036005 
L 328.196511 167.370114 
L 328.454338 167.094696 
L 328.712164 167.242266 
L 328.96999 167.014101 
L 329.227816 171.83441 
L 329.485642 170.081208 
L 329.743468 165.374542 
L 330.001294 166.45095 
L 330.25912 159.103964 
L 330.774772 164.850914 
L 331.032598 166.923572 
L 331.290424 158.590333 
L 331.54825 161.470915 
L 331.806076 161.935207 
L 332.063902 159.949609 
L 332.321728 162.863568 
L 332.579554 162.264764 
L 332.83738 167.369633 
L 333.095206 165.070571 
L 333.353032 165.996634 
L 333.610858 168.150867 
L 333.868684 166.577766 
L 334.384336 177.241995 
L 334.642162 169.778118 
L 334.899988 173.747215 
L 335.157814 167.391054 
L 335.415641 169.297642 
L 335.673467 163.917597 
L 335.931293 165.062858 
L 336.189119 169.411369 
L 336.446945 161.989348 
L 336.704771 166.548202 
L 337.220423 159.907359 
L 337.478249 160.110688 
L 337.736075 163.698186 
L 337.993901 163.231265 
L 338.767379 177.098643 
L 339.025205 167.688838 
L 339.283031 165.849386 
L 339.798683 154.320544 
L 340.056509 159.545511 
L 340.314335 159.601377 
L 340.572161 158.641099 
L 340.829987 160.421483 
L 341.087813 153.50454 
L 341.345639 153.402132 
L 341.603465 153.777808 
L 341.861291 151.096545 
L 342.119117 155.554054 
L 342.376944 162.897637 
L 342.63477 162.71883 
L 342.892596 163.456122 
L 343.150422 161.145328 
L 343.408248 155.177526 
L 343.666074 157.927985 
L 344.181726 166.158038 
L 344.697378 160.401144 
L 344.955204 166.375778 
L 345.21303 161.257091 
L 345.728682 161.502024 
L 345.986508 158.281747 
L 346.244334 162.917778 
L 346.50216 163.134691 
L 347.017812 170.60798 
L 347.275638 158.910981 
L 348.049116 161.184485 
L 348.306942 159.807809 
L 348.564768 164.317375 
L 348.822594 165.441825 
L 349.08042 165.20806 
L 349.338247 166.257692 
L 349.596073 165.172625 
L 349.853899 173.177689 
L 350.111725 174.754529 
L 350.627377 161.337982 
L 350.885203 159.05733 
L 351.143029 160.754952 
L 351.400855 163.438519 
L 351.658681 161.235994 
L 351.916507 163.254689 
L 352.174333 161.010193 
L 352.432159 161.401416 
L 352.689985 164.763576 
L 352.947811 161.162696 
L 353.205637 165.238085 
L 353.463463 158.373465 
L 353.721289 159.444587 
L 353.979115 164.278872 
L 354.236941 165.05477 
L 354.494767 164.967186 
L 354.752593 164.362604 
L 355.010419 158.560293 
L 355.268245 159.557666 
L 355.526071 157.707452 
L 355.783897 157.289763 
L 356.041723 155.55808 
L 356.557376 159.455617 
L 356.815202 163.873041 
L 357.073028 158.123151 
L 357.330854 146.708005 
L 357.846506 154.918819 
L 358.104332 164.120743 
L 358.87781 152.373532 
L 359.135636 152.070119 
L 359.651288 155.9399 
L 359.909114 161.659337 
L 360.16694 161.527401 
L 360.424766 160.930202 
L 361.198244 153.741341 
L 361.45607 153.17494 
L 361.971722 159.026169 
L 362.229548 158.294051 
L 362.487374 158.706398 
L 362.7452 163.33794 
L 363.003026 164.51872 
L 363.260852 157.261817 
L 363.518679 163.942622 
L 363.776505 163.36609 
L 364.034331 164.574183 
L 364.292157 163.408517 
L 364.549983 164.984527 
L 364.807809 161.144688 
L 365.065635 159.707276 
L 365.323461 156.789694 
L 366.612591 169.616774 
L 366.870417 174.292972 
L 367.128243 168.869568 
L 367.386069 167.413803 
L 367.643895 160.313367 
L 367.901721 158.912811 
L 368.675199 184.352087 
L 368.933025 183.761439 
L 369.190851 186.029001 
L 369.706503 181.322952 
L 370.222155 167.386583 
L 370.479982 167.224933 
L 370.737808 166.857059 
L 370.995634 170.380236 
L 371.25346 166.15074 
L 371.511286 158.275915 
L 371.769112 160.640267 
L 372.284764 155.181279 
L 372.54259 168.218065 
L 372.800416 163.4683 
L 373.058242 170.473544 
L 373.316068 164.414375 
L 373.573894 154.84305 
L 373.83172 151.879468 
L 374.089546 153.871808 
L 374.347372 166.159685 
L 374.605198 163.503265 
L 374.863024 163.941116 
L 375.12085 166.284 
L 375.378676 155.924579 
L 376.40998 142.639748 
L 376.667806 145.117044 
L 376.925632 155.805506 
L 377.183458 158.438014 
L 377.441285 155.745683 
L 377.699111 160.324797 
L 378.472589 154.572268 
L 378.730415 148.252006 
L 378.988241 150.370217 
L 379.246067 156.881723 
L 379.503893 153.59955 
L 379.761719 152.534737 
L 380.277371 161.861429 
L 380.535197 157.543065 
L 380.793023 157.88302 
L 381.050849 155.248548 
L 381.308675 161.264603 
L 381.566501 161.030098 
L 381.824327 158.735522 
L 382.082153 151.109034 
L 382.339979 150.893078 
L 382.597805 146.116585 
L 382.855631 154.886803 
L 383.113457 152.933454 
L 383.371283 157.797388 
L 383.629109 155.343211 
L 383.886935 149.106701 
L 384.144761 139.092537 
L 384.402588 144.572396 
L 384.660414 133.558171 
L 384.91824 135.086496 
L 385.176066 139.93588 
L 385.433892 140.805008 
L 385.691718 147.617006 
L 385.949544 146.809251 
L 386.20737 149.735852 
L 386.465196 142.913795 
L 386.723022 146.865625 
L 386.980848 140.456968 
L 387.238674 142.628122 
L 387.4965 135.094707 
L 387.754326 139.069353 
L 388.012152 140.464272 
L 388.269978 143.941903 
L 388.527804 145.000297 
L 388.78563 145.255482 
L 389.043456 141.663933 
L 389.301282 139.745052 
L 389.559108 142.407705 
L 390.07476 150.927742 
L 390.332586 157.518378 
L 390.590412 160.112054 
L 390.848238 153.649175 
L 391.106064 155.597962 
L 391.36389 155.280154 
L 391.621717 153.75669 
L 391.879543 154.148605 
L 392.395195 159.123954 
L 392.653021 149.285942 
L 392.910847 150.69221 
L 393.168673 148.363836 
L 393.426499 99.41071 
L 393.942151 131.500678 
L 394.457803 127.327247 
L 394.715629 134.405764 
L 394.973455 137.49721 
L 395.231281 135.644144 
L 395.489107 135.603921 
L 395.746933 144.347315 
L 396.004759 134.487091 
L 396.262585 129.363207 
L 396.520411 132.487527 
L 397.036063 142.710985 
L 397.551715 125.469916 
L 397.809541 132.708293 
L 398.067367 131.583291 
L 398.840846 145.163267 
L 399.098672 139.058939 
L 399.356498 139.328622 
L 399.614324 141.566859 
L 400.129976 135.139414 
L 400.387802 140.19513 
L 400.645628 133.094933 
L 400.903454 131.850709 
L 401.16128 133.307875 
L 401.419106 130.576964 
L 401.676932 109.493963 
L 402.192584 127.046843 
L 402.708236 135.78437 
L 403.223888 133.958051 
L 403.481714 128.654528 
L 403.73954 126.878185 
L 403.997366 127.236072 
L 404.255192 123.505065 
L 404.513018 130.54768 
L 404.770844 133.638453 
L 405.02867 126.837496 
L 405.286496 133.35687 
L 405.544323 130.961958 
L 405.802149 135.047678 
L 406.059975 111.366094 
L 406.317801 112.709964 
L 406.575627 122.146303 
L 406.833453 126.236498 
L 407.091279 122.408584 
L 407.349105 126.972909 
L 407.606931 122.604152 
L 407.864757 122.099396 
L 408.122583 60.742623 
L 408.638235 102.240476 
L 409.153887 123.327698 
L 409.411713 133.56132 
L 409.669539 120.734471 
L 409.927365 126.336507 
L 410.185191 80.133273 
L 410.443017 102.613249 
L 410.700843 104.936019 
L 411.216495 124.043337 
L 411.474321 126.6273 
L 411.732147 130.552624 
L 412.247799 122.307388 
L 412.505626 110.347769 
L 412.763452 111.355438 
L 413.021278 119.306187 
L 413.279104 120.323895 
L 413.794756 114.416237 
L 414.310408 129.335926 
L 414.82606 122.11447 
L 415.083886 120.139303 
L 415.341712 120.972362 
L 415.599538 125.139429 
L 415.857364 123.893744 
L 416.11519 124.756706 
L 416.373016 116.571333 
L 416.630842 104.670223 
L 416.888668 110.555652 
L 417.146494 120.410161 
L 417.662146 127.187566 
L 418.177798 122.189603 
L 418.435624 116.529562 
L 418.69345 119.846921 
L 418.951276 129.097116 
L 419.209102 123.625846 
L 419.466928 122.822887 
L 419.982581 128.997495 
L 420.240407 116.95708 
L 420.498233 120.886127 
L 420.756059 113.731464 
L 421.013885 115.109724 
L 421.271711 115.844634 
L 421.787363 119.84734 
L 422.045189 114.001262 
L 422.303015 114.77013 
L 422.560841 120.833969 
L 422.818667 104.076879 
L 423.076493 119.164 
L 423.334319 123.687869 
L 423.592145 112.611612 
L 423.849971 124.604028 
L 424.107797 122.09314 
L 424.365623 127.149411 
L 424.623449 127.31343 
L 424.881275 132.736117 
L 425.139101 125.850708 
L 425.396927 126.051639 
L 425.654753 126.988596 
L 425.912579 116.112191 
L 426.170405 115.563507 
L 426.428231 116.007403 
L 426.686058 120.906493 
L 426.943884 122.726941 
L 427.20171 114.703262 
L 427.459536 118.176701 
L 427.717362 115.298486 
L 427.975188 129.788191 
L 428.49084 111.608311 
L 428.748666 111.006384 
L 429.006492 115.419294 
L 429.264318 123.487507 
L 429.77997 113.111985 
L 430.037796 76.262116 
L 430.295622 95.785133 
L 430.553448 96.567246 
L 430.811274 106.343538 
L 431.0691 105.271359 
L 431.326926 123.884562 
L 431.584752 117.915453 
L 431.842578 56.056642 
L 432.35823 94.386077 
L 432.616056 95.510875 
L 432.873882 92.402181 
L 433.131708 100.127998 
L 433.389534 91.966275 
L 433.647361 99.677894 
L 433.905187 99.389343 
L 434.163013 85.311205 
L 434.420839 88.026674 
L 434.936491 99.436928 
L 435.194317 111.329393 
L 435.452143 115.896836 
L 435.709969 106.202261 
L 435.967795 113.602345 
L 436.483447 101.453022 
L 436.741273 101.256925 
L 436.999099 106.578621 
L 437.256925 94.754577 
L 437.772577 107.098527 
L 438.030403 109.417912 
L 438.288229 55.0276 
L 438.803881 82.987087 
L 439.835185 116.96896 
L 440.093011 77.796094 
L 440.350837 81.505574 
L 440.608664 71.293699 
L 440.86649 80.392872 
L 441.124316 93.684599 
L 441.382142 86.689278 
L 441.639968 97.724836 
L 441.897794 97.744469 
L 442.15562 106.259044 
L 442.671272 103.039656 
L 442.929098 105.088131 
L 443.186924 85.00945 
L 443.44475 83.673305 
L 443.702576 73.731389 
L 443.960402 41.517953 
L 444.218228 63.846454 
L 444.73388 83.673013 
L 444.991706 40.552125 
L 445.507358 76.037372 
L 446.02301 89.807001 
L 446.280836 86.101405 
L 446.796488 98.877277 
L 447.054314 64.268525 
L 447.31214 84.191975 
L 447.827793 104.763708 
L 448.343445 108.597596 
L 448.601271 101.539821 
L 448.859097 76.287927 
L 449.116923 87.189964 
L 449.374749 92.656847 
L 449.632575 83.222428 
L 449.890401 85.563164 
L 450.148227 95.993482 
L 450.406053 93.560684 
L 450.663879 100.342096 
L 450.921705 114.761059 
L 451.179531 111.96475 
L 451.437357 51.882655 
L 451.695183 78.383736 
L 451.953009 84.535863 
L 452.210835 63.158432 
L 452.984313 100.610014 
L 453.499965 73.325721 
L 454.015617 101.506767 
L 454.273443 88.983501 
L 454.531269 95.286731 
L 454.789096 94.422091 
L 455.046922 101.865274 
L 455.304748 93.140708 
L 455.562574 97.383864 
L 456.078226 88.995019 
L 456.336052 91.534873 
L 457.10953 77.710297 
L 457.367356 89.386304 
L 457.625182 91.403776 
L 458.39866 108.941135 
L 458.656486 113.569629 
L 459.172138 99.771655 
L 459.429964 114.217223 
L 459.68779 106.550687 
L 459.945616 106.538095 
L 460.203442 97.609061 
L 460.461268 103.052054 
L 460.719094 101.629152 
L 460.97692 103.821913 
L 461.234746 102.544454 
L 461.492572 99.53052 
L 461.750399 104.319615 
L 462.266051 96.272527 
L 462.523877 97.675074 
L 462.781703 102.852375 
L 463.039529 99.215323 
L 463.297355 101.374657 
L 463.555181 107.581835 
L 463.813007 107.559002 
L 464.070833 94.863175 
L 464.586485 102.167694 
L 464.844311 57.848982 
L 465.617789 94.238991 
L 466.133441 95.954757 
L 466.391267 103.496957 
L 466.649093 105.704665 
L 466.906919 97.643047 
L 467.164745 75.210483 
L 467.422571 80.695949 
L 467.680397 88.781772 
L 467.938223 89.877777 
L 468.196049 95.048492 
L 468.453875 102.637523 
L 468.969528 93.582521 
L 469.227354 100.205243 
L 469.48518 100.909137 
L 470.000832 93.277092 
L 470.258658 92.28434 
L 470.516484 80.139301 
L 470.77431 83.255883 
L 471.032136 77.074033 
L 471.289962 82.564578 
L 471.547788 79.714101 
L 471.805614 83.893857 
L 472.06344 69.493071 
L 472.321266 73.16681 
L 472.579092 74.436548 
L 472.836918 72.915031 
L 473.35257 94.781062 
L 473.610396 88.82418 
L 473.868222 94.457155 
L 474.126048 88.519103 
L 474.383874 93.22862 
L 474.6417 85.908192 
L 474.899526 90.534394 
L 475.157352 78.809243 
L 475.415178 55.304964 
L 475.930831 87.573126 
L 476.188657 83.587029 
L 476.704309 92.978677 
L 476.962135 82.100176 
L 477.735613 107.927039 
L 478.251265 95.878777 
L 478.509091 86.093005 
L 478.509091 86.093005 
" clip-path="url(#pd732c87448)" style="fill: none; stroke: #1f77b4; stroke-width: 1.5; stroke-linecap: square"/>
   </g>
   <g id="patch_3">
    <path d="M 52.4 305.152125 
L 52.4 27.952125 
" style="fill: none; stroke: #000000; stroke-width: 0.8; stroke-linejoin: miter; stroke-linecap: square"/>
   </g>
   <g id="patch_4">
    <path d="M 498.8 305.152125 
L 498.8 27.952125 
" style="fill: none; stroke: #000000; stroke-width: 0.8; stroke-linejoin: miter; stroke-linecap: square"/>
   </g>
   <g id="patch_5">
    <path d="M 52.4 305.152125 
L 498.8 305.152125 
" style="fill: none; stroke: #000000; stroke-width: 0.8; stroke-linejoin: miter; stroke-linecap: square"/>
   </g>
   <g id="patch_6">
    <path d="M 52.4 27.952125 
L 498.8 27.952125 
" style="fill: none; stroke: #000000; stroke-width: 0.8; stroke-linejoin: miter; stroke-linecap: square"/>
   </g>
   <g id="text_16">
    <!-- ML1 Meta Testing -->
    <g transform="translate(194.004313 21.952125)scale(0.216 -0.216)">
     <defs>
      <path id="STIXGeneral-Regular-4d" d="M 5530 0 
L 3738 0 
L 3738 122 
Q 4115 147 4214 265 
Q 4314 384 4314 787 
L 4314 3661 
L 2682 0 
L 2592 0 
L 979 3514 
L 979 966 
Q 979 448 1088 294 
Q 1197 141 1574 122 
L 1574 0 
L 77 0 
L 77 122 
Q 358 141 480 205 
Q 602 269 650 432 
Q 698 595 698 966 
L 698 3514 
Q 698 3878 589 3984 
Q 480 4090 90 4115 
L 90 4237 
L 1357 4237 
L 2835 1024 
L 4250 4237 
L 5523 4237 
L 5523 4115 
Q 5178 4109 5072 3993 
Q 4966 3878 4966 3520 
L 4966 717 
Q 4966 378 5072 262 
Q 5178 147 5530 122 
L 5530 0 
z
" transform="scale(0.015625)"/>
      <path id="STIXGeneral-Regular-4c" d="M 3827 1114 
L 3520 0 
L 77 0 
L 77 122 
Q 429 141 531 256 
Q 634 371 634 736 
L 634 3494 
Q 634 3872 541 3981 
Q 448 4090 77 4115 
L 77 4237 
L 1888 4237 
L 1888 4115 
Q 1498 4090 1392 3984 
Q 1286 3878 1286 3507 
L 1286 538 
Q 1286 358 1398 304 
Q 1510 250 1862 250 
L 2310 250 
Q 3085 250 3392 640 
Q 3520 813 3661 1114 
L 3827 1114 
z
" transform="scale(0.015625)"/>
     </defs>
     <use xlink:href="#STIXGeneral-Regular-4d"/>
     <use xlink:href="#STIXGeneral-Regular-4c" x="88.899994"/>
     <use xlink:href="#STIXGeneral-Regular-31" x="149.999985"/>
     <use xlink:href="#STIXGeneral-Regular-20" x="199.999969"/>
     <use xlink:href="#STIXGeneral-Regular-4d" x="224.999954"/>
     <use xlink:href="#STIXGeneral-Regular-65" x="313.899948"/>
     <use xlink:href="#STIXGeneral-Regular-74" x="358.299942"/>
     <use xlink:href="#STIXGeneral-Regular-61" x="386.09993"/>
     <use xlink:href="#STIXGeneral-Regular-20" x="430.499924"/>
     <use xlink:href="#STIXGeneral-Regular-54" x="455.499908"/>
     <use xlink:href="#STIXGeneral-Regular-65" x="516.599899"/>
     <use xlink:href="#STIXGeneral-Regular-73" x="560.999893"/>
     <use xlink:href="#STIXGeneral-Regular-74" x="599.899887"/>
     <use xlink:href="#STIXGeneral-Regular-69" x="627.699875"/>
     <use xlink:href="#STIXGeneral-Regular-6e" x="655.499863"/>
     <use xlink:href="#STIXGeneral-Regular-67" x="705.499847"/>
    </g>
   </g>
   <g id="legend_1">
    <g id="patch_7">
     <path d="M 62.2 58.990562 
L 182.43375 58.990562 
Q 185.23375 58.990562 185.23375 56.190562 
L 185.23375 37.752125 
Q 185.23375 34.952125 182.43375 34.952125 
L 62.2 34.952125 
Q 59.4 34.952125 59.4 37.752125 
L 59.4 56.190562 
Q 59.4 58.990562 62.2 58.990562 
z
" style="fill: #ffffff; opacity: 0.8; stroke: #cccccc; stroke-linejoin: miter"/>
    </g>
    <g id="line2d_26">
     <path d="M 65 45.452125 
L 79 45.452125 
L 93 45.452125 
" style="fill: none; stroke: #1f77b4; stroke-width: 1.5; stroke-linecap: square"/>
    </g>
    <g id="text_17">
     <!-- basketball-v2 -->
     <g transform="translate(104.2 50.352125)scale(0.14 -0.14)">
      <defs>
       <path id="STIXGeneral-Regular-62" d="M 979 4358 
L 979 2406 
Q 1082 2650 1315 2797 
Q 1549 2944 1843 2944 
Q 2349 2944 2672 2541 
Q 2995 2138 2995 1536 
Q 2995 832 2566 384 
Q 2138 -64 1498 -64 
Q 1107 -64 774 67 
Q 442 198 442 358 
L 442 3622 
Q 442 3859 384 3926 
Q 326 3994 128 3994 
Q 83 3994 19 3981 
L 19 4090 
L 211 4147 
Q 864 4346 947 4371 
L 979 4358 
z
M 979 2035 
L 979 474 
Q 979 326 1161 233 
Q 1344 141 1600 141 
Q 1978 141 2195 416 
Q 2432 710 2432 1261 
Q 2432 1888 2182 2240 
Q 1971 2541 1613 2541 
Q 1357 2541 1168 2390 
Q 979 2240 979 2035 
z
" transform="scale(0.015625)"/>
       <path id="STIXGeneral-Regular-6b" d="M 3232 0 
L 1837 0 
L 1837 96 
L 1958 96 
Q 2093 96 2093 192 
Q 2093 250 2022 339 
L 1062 1606 
L 1062 429 
Q 1062 262 1142 185 
Q 1222 109 1414 102 
L 1542 96 
L 1542 0 
L 45 0 
L 45 96 
Q 390 154 457 214 
Q 525 275 525 525 
L 525 3610 
Q 525 3840 467 3920 
Q 410 4000 250 4000 
Q 211 4000 45 3987 
L 45 4090 
L 237 4141 
Q 621 4243 1037 4371 
L 1062 4358 
L 1062 1670 
L 1939 2451 
Q 2086 2586 2086 2675 
Q 2086 2739 2019 2761 
Q 1952 2784 1766 2790 
L 1766 2880 
L 3072 2880 
L 3072 2784 
Q 2752 2784 2505 2646 
Q 2259 2509 1690 1978 
L 1504 1805 
L 2483 563 
Q 2829 122 3232 96 
L 3232 0 
z
" transform="scale(0.015625)"/>
       <path id="STIXGeneral-Regular-6c" d="M 1645 0 
L 134 0 
L 134 96 
Q 435 122 531 221 
Q 627 320 627 589 
L 627 3590 
Q 627 3821 569 3910 
Q 512 4000 358 4000 
Q 224 4000 122 3987 
L 122 4090 
Q 730 4237 1133 4371 
L 1165 4346 
L 1165 557 
Q 1165 288 1254 201 
Q 1344 115 1645 96 
L 1645 0 
z
" transform="scale(0.015625)"/>
       <path id="STIXGeneral-Regular-2d" d="M 1824 1242 
L 250 1242 
L 250 1645 
L 1824 1645 
L 1824 1242 
z
" transform="scale(0.015625)"/>
      </defs>
      <use xlink:href="#STIXGeneral-Regular-62"/>
      <use xlink:href="#STIXGeneral-Regular-61" x="49.999985"/>
      <use xlink:href="#STIXGeneral-Regular-73" x="94.399979"/>
      <use xlink:href="#STIXGeneral-Regular-6b" x="133.299973"/>
      <use xlink:href="#STIXGeneral-Regular-65" x="183.299957"/>
      <use xlink:href="#STIXGeneral-Regular-74" x="227.699951"/>
      <use xlink:href="#STIXGeneral-Regular-62" x="255.499939"/>
      <use xlink:href="#STIXGeneral-Regular-61" x="305.499924"/>
      <use xlink:href="#STIXGeneral-Regular-6c" x="349.899918"/>
      <use xlink:href="#STIXGeneral-Regular-6c" x="377.699905"/>
      <use xlink:href="#STIXGeneral-Regular-2d" x="405.499893"/>
      <use xlink:href="#STIXGeneral-Regular-76" x="438.799881"/>
      <use xlink:href="#STIXGeneral-Regular-32" x="488.799866"/>
     </g>
    </g>
   </g>
  </g>
 </g>
 <defs>
  <clipPath id="pd732c87448">
   <rect x="52.4" y="27.952125" width="446.4" height="277.2"/>
  </clipPath>
 </defs>
</svg>
