<?xml version="1.0" encoding="utf-8" standalone="no"?>
<!DOCTYPE svg PUBLIC "-//W3C//DTD SVG 1.1//EN"
  "http://www.w3.org/Graphics/SVG/1.1/DTD/svg11.dtd">
<svg xmlns:xlink="http://www.w3.org/1999/xlink" width="524pt" height="355.731875pt" viewBox="0 0 524 355.731875" xmlns="http://www.w3.org/2000/svg" version="1.1">
 <metadata>
  <rdf:RDF xmlns:dc="http://purl.org/dc/elements/1.1/" xmlns:cc="http://creativecommons.org/ns#" xmlns:rdf="http://www.w3.org/1999/02/22-rdf-syntax-ns#">
   <cc:Work>
    <dc:type rdf:resource="http://purl.org/dc/dcmitype/StillImage"/>
    <dc:date>2021-11-25T20:19:24.325198</dc:date>
    <dc:format>image/svg+xml</dc:format>
    <dc:creator>
     <cc:Agent>
      <dc:title>Matplotlib v3.5.0, https://matplotlib.org/</dc:title>
     </cc:Agent>
    </dc:creator>
   </cc:Work>
  </rdf:RDF>
 </metadata>
 <defs>
  <style type="text/css">*{stroke-linejoin: round; stroke-linecap: butt}</style>
 </defs>
 <g id="figure_1">
  <g id="patch_1">
   <path d="M 0 355.731875 
L 524 355.731875 
L 524 0 
L 0 0 
z
" style="fill: #ffffff"/>
  </g>
  <g id="axes_1">
   <g id="patch_2">
    <path d="M 70.4 305.131875 
L 516.8 305.131875 
L 516.8 27.931875 
L 70.4 27.931875 
z
" style="fill: #ffffff"/>
   </g>
   <g id="matplotlib.axis_1">
    <g id="xtick_1">
     <g id="line2d_1">
      <path d="M 90.690909 305.131875 
L 90.690909 27.931875 
" clip-path="url(#p457e417f41)" style="fill: none; stroke: #b0b0b0; stroke-width: 0.8; stroke-linecap: square"/>
     </g>
     <g id="line2d_2">
      <defs>
       <path id="ma52a24639d" d="M 0 0 
L 0 3.5 
" style="stroke: #000000; stroke-width: 0.8"/>
      </defs>
      <g>
       <use xlink:href="#ma52a24639d" x="90.690909" y="305.131875" style="stroke: #000000; stroke-width: 0.8"/>
      </g>
     </g>
     <g id="text_1">
      <!-- 0 -->
      <g transform="translate(86.190909 324.425313)scale(0.18 -0.18)">
       <defs>
        <path id="STIXGeneral-Regular-30" d="M 3046 2112 
Q 3046 1683 2963 1302 
Q 2880 922 2717 602 
Q 2554 282 2266 96 
Q 1978 -90 1600 -90 
Q 1210 -90 915 108 
Q 621 307 461 640 
Q 301 973 227 1350 
Q 154 1728 154 2150 
Q 154 2746 301 3222 
Q 448 3699 790 4012 
Q 1133 4326 1626 4326 
Q 2253 4326 2649 3712 
Q 3046 3098 3046 2112 
z
M 2432 2080 
Q 2432 3091 2217 3625 
Q 2003 4160 1587 4160 
Q 1190 4160 979 3622 
Q 768 3085 768 2106 
Q 768 1120 979 598 
Q 1190 77 1600 77 
Q 2003 77 2217 598 
Q 2432 1120 2432 2080 
z
" transform="scale(0.015625)"/>
       </defs>
       <use xlink:href="#STIXGeneral-Regular-30"/>
      </g>
     </g>
    </g>
    <g id="xtick_2">
     <g id="line2d_3">
      <path d="M 158.553481 305.131875 
L 158.553481 27.931875 
" clip-path="url(#p457e417f41)" style="fill: none; stroke: #b0b0b0; stroke-width: 0.8; stroke-linecap: square"/>
     </g>
     <g id="line2d_4">
      <g>
       <use xlink:href="#ma52a24639d" x="158.553481" y="305.131875" style="stroke: #000000; stroke-width: 0.8"/>
      </g>
     </g>
     <g id="text_2">
      <!-- 50 -->
      <g transform="translate(149.553481 324.425313)scale(0.18 -0.18)">
       <defs>
        <path id="STIXGeneral-Regular-35" d="M 2803 4358 
L 2573 3814 
Q 2534 3731 2400 3731 
L 1158 3731 
L 902 3187 
Q 1606 3053 1920 2896 
Q 2234 2739 2502 2368 
Q 2726 2061 2726 1555 
Q 2726 1094 2576 780 
Q 2426 467 2099 224 
Q 1664 -90 1011 -90 
Q 646 -90 422 19 
Q 198 128 198 307 
Q 198 550 486 550 
Q 717 550 960 352 
Q 1210 147 1414 147 
Q 1747 147 2012 480 
Q 2278 813 2278 1229 
Q 2278 1843 1850 2189 
Q 1293 2637 486 2637 
Q 410 2637 410 2688 
L 416 2720 
L 1114 4237 
L 2438 4237 
Q 2547 4237 2608 4269 
Q 2669 4301 2746 4403 
L 2803 4358 
z
" transform="scale(0.015625)"/>
       </defs>
       <use xlink:href="#STIXGeneral-Regular-35"/>
       <use xlink:href="#STIXGeneral-Regular-30" x="49.999985"/>
      </g>
     </g>
    </g>
    <g id="xtick_3">
     <g id="line2d_5">
      <path d="M 226.416054 305.131875 
L 226.416054 27.931875 
" clip-path="url(#p457e417f41)" style="fill: none; stroke: #b0b0b0; stroke-width: 0.8; stroke-linecap: square"/>
     </g>
     <g id="line2d_6">
      <g>
       <use xlink:href="#ma52a24639d" x="226.416054" y="305.131875" style="stroke: #000000; stroke-width: 0.8"/>
      </g>
     </g>
     <g id="text_3">
      <!-- 100 -->
      <g transform="translate(212.916054 324.425313)scale(0.18 -0.18)">
       <defs>
        <path id="STIXGeneral-Regular-31" d="M 2522 0 
L 755 0 
L 755 96 
Q 1107 115 1235 227 
Q 1363 339 1363 608 
L 1363 3482 
Q 1363 3795 1171 3795 
Q 1082 3795 883 3718 
L 710 3654 
L 710 3744 
L 1856 4326 
L 1914 4307 
L 1914 486 
Q 1914 275 2042 185 
Q 2170 96 2522 96 
L 2522 0 
z
" transform="scale(0.015625)"/>
       </defs>
       <use xlink:href="#STIXGeneral-Regular-31"/>
       <use xlink:href="#STIXGeneral-Regular-30" x="49.999985"/>
       <use xlink:href="#STIXGeneral-Regular-30" x="99.999969"/>
      </g>
     </g>
    </g>
    <g id="xtick_4">
     <g id="line2d_7">
      <path d="M 294.278626 305.131875 
L 294.278626 27.931875 
" clip-path="url(#p457e417f41)" style="fill: none; stroke: #b0b0b0; stroke-width: 0.8; stroke-linecap: square"/>
     </g>
     <g id="line2d_8">
      <g>
       <use xlink:href="#ma52a24639d" x="294.278626" y="305.131875" style="stroke: #000000; stroke-width: 0.8"/>
      </g>
     </g>
     <g id="text_4">
      <!-- 150 -->
      <g transform="translate(280.778626 324.425313)scale(0.18 -0.18)">
       <use xlink:href="#STIXGeneral-Regular-31"/>
       <use xlink:href="#STIXGeneral-Regular-35" x="49.999985"/>
       <use xlink:href="#STIXGeneral-Regular-30" x="99.999969"/>
      </g>
     </g>
    </g>
    <g id="xtick_5">
     <g id="line2d_9">
      <path d="M 362.141198 305.131875 
L 362.141198 27.931875 
" clip-path="url(#p457e417f41)" style="fill: none; stroke: #b0b0b0; stroke-width: 0.8; stroke-linecap: square"/>
     </g>
     <g id="line2d_10">
      <g>
       <use xlink:href="#ma52a24639d" x="362.141198" y="305.131875" style="stroke: #000000; stroke-width: 0.8"/>
      </g>
     </g>
     <g id="text_5">
      <!-- 200 -->
      <g transform="translate(348.641198 324.425313)scale(0.18 -0.18)">
       <defs>
        <path id="STIXGeneral-Regular-32" d="M 3034 877 
L 2688 0 
L 186 0 
L 186 77 
L 1325 1286 
Q 1773 1754 1965 2144 
Q 2157 2534 2157 2950 
Q 2157 3379 1920 3616 
Q 1683 3853 1267 3853 
Q 922 3853 720 3673 
Q 518 3494 326 3021 
L 192 3053 
Q 301 3648 630 3987 
Q 960 4326 1523 4326 
Q 2054 4326 2380 4006 
Q 2707 3686 2707 3200 
Q 2707 2477 1888 1613 
L 832 486 
L 2330 486 
Q 2541 486 2665 569 
Q 2790 653 2944 915 
L 3034 877 
z
" transform="scale(0.015625)"/>
       </defs>
       <use xlink:href="#STIXGeneral-Regular-32"/>
       <use xlink:href="#STIXGeneral-Regular-30" x="49.999985"/>
       <use xlink:href="#STIXGeneral-Regular-30" x="99.999969"/>
      </g>
     </g>
    </g>
    <g id="xtick_6">
     <g id="line2d_11">
      <path d="M 430.00377 305.131875 
L 430.00377 27.931875 
" clip-path="url(#p457e417f41)" style="fill: none; stroke: #b0b0b0; stroke-width: 0.8; stroke-linecap: square"/>
     </g>
     <g id="line2d_12">
      <g>
       <use xlink:href="#ma52a24639d" x="430.00377" y="305.131875" style="stroke: #000000; stroke-width: 0.8"/>
      </g>
     </g>
     <g id="text_6">
      <!-- 250 -->
      <g transform="translate(416.50377 324.425313)scale(0.18 -0.18)">
       <use xlink:href="#STIXGeneral-Regular-32"/>
       <use xlink:href="#STIXGeneral-Regular-35" x="49.999985"/>
       <use xlink:href="#STIXGeneral-Regular-30" x="99.999969"/>
      </g>
     </g>
    </g>
    <g id="xtick_7">
     <g id="line2d_13">
      <path d="M 497.866342 305.131875 
L 497.866342 27.931875 
" clip-path="url(#p457e417f41)" style="fill: none; stroke: #b0b0b0; stroke-width: 0.8; stroke-linecap: square"/>
     </g>
     <g id="line2d_14">
      <g>
       <use xlink:href="#ma52a24639d" x="497.866342" y="305.131875" style="stroke: #000000; stroke-width: 0.8"/>
      </g>
     </g>
     <g id="text_7">
      <!-- 300 -->
      <g transform="translate(484.366342 324.425313)scale(0.18 -0.18)">
       <defs>
        <path id="STIXGeneral-Regular-33" d="M 390 3264 
L 288 3290 
Q 435 3770 748 4048 
Q 1062 4326 1542 4326 
Q 1990 4326 2265 4083 
Q 2541 3840 2541 3450 
Q 2541 2925 1946 2566 
Q 2298 2413 2477 2227 
Q 2758 1914 2758 1402 
Q 2758 890 2464 506 
Q 2246 211 1840 60 
Q 1434 -90 979 -90 
Q 262 -90 262 275 
Q 262 378 339 442 
Q 416 506 525 506 
Q 685 506 915 339 
Q 1197 141 1466 141 
Q 1818 141 2058 425 
Q 2298 710 2298 1120 
Q 2298 1856 1632 2048 
Q 1434 2112 979 2112 
L 979 2202 
Q 1338 2323 1517 2432 
Q 2035 2726 2035 3290 
Q 2035 3610 1852 3776 
Q 1670 3942 1344 3942 
Q 768 3942 390 3264 
z
" transform="scale(0.015625)"/>
       </defs>
       <use xlink:href="#STIXGeneral-Regular-33"/>
       <use xlink:href="#STIXGeneral-Regular-30" x="49.999985"/>
       <use xlink:href="#STIXGeneral-Regular-30" x="99.999969"/>
      </g>
     </g>
    </g>
    <g id="text_8">
     <!-- Epoch -->
     <g transform="translate(270.605 344.625313)scale(0.18 -0.18)">
      <defs>
       <path id="STIXGeneral-Regular-45" d="M 3821 1082 
L 3526 0 
L 77 0 
L 77 122 
Q 442 147 538 252 
Q 634 358 634 730 
L 634 3520 
Q 634 3878 534 3987 
Q 435 4096 77 4115 
L 77 4237 
L 3469 4237 
L 3494 3322 
L 3334 3322 
Q 3264 3750 3085 3872 
Q 2906 3994 2349 3994 
L 1510 3994 
Q 1370 3994 1328 3952 
Q 1286 3910 1286 3763 
L 1286 2355 
L 2253 2355 
Q 2656 2355 2787 2470 
Q 2918 2586 2976 2970 
L 3123 2970 
L 3123 1472 
L 2976 1472 
Q 2918 1875 2790 1984 
Q 2662 2093 2253 2093 
L 1286 2093 
L 1286 538 
Q 1286 346 1420 291 
Q 1555 237 1933 237 
L 2163 237 
Q 2848 237 3136 403 
Q 3424 570 3642 1082 
L 3821 1082 
z
" transform="scale(0.015625)"/>
       <path id="STIXGeneral-Regular-70" d="M 1018 2931 
L 1018 2438 
Q 1421 2944 1939 2944 
Q 2406 2944 2707 2560 
Q 3008 2176 3008 1581 
Q 3008 883 2621 409 
Q 2234 -64 1664 -64 
Q 1466 -64 1328 -6 
Q 1190 51 1018 211 
L 1018 -794 
Q 1018 -1094 1120 -1180 
Q 1222 -1267 1581 -1274 
L 1581 -1389 
L 32 -1389 
L 32 -1280 
Q 314 -1254 397 -1171 
Q 480 -1088 480 -838 
L 480 2157 
Q 480 2381 429 2451 
Q 378 2522 218 2522 
Q 115 2522 58 2515 
L 58 2618 
Q 506 2752 979 2944 
L 1018 2931 
z
M 1018 2138 
L 1018 563 
Q 1018 422 1238 281 
Q 1459 141 1683 141 
Q 2029 141 2243 467 
Q 2458 794 2458 1325 
Q 2458 1888 2243 2224 
Q 2029 2560 1670 2560 
Q 1446 2560 1232 2419 
Q 1018 2278 1018 2138 
z
" transform="scale(0.015625)"/>
       <path id="STIXGeneral-Regular-6f" d="M 3008 1478 
Q 3008 806 2608 371 
Q 2208 -64 1568 -64 
Q 979 -64 582 368 
Q 186 800 186 1459 
Q 186 2125 582 2534 
Q 979 2944 1626 2944 
Q 2221 2944 2614 2537 
Q 3008 2131 3008 1478 
z
M 2432 1306 
Q 2432 2035 2112 2445 
Q 1856 2765 1504 2765 
Q 1171 2765 966 2493 
Q 762 2221 762 1747 
Q 762 928 1101 435 
Q 1318 115 1677 115 
Q 2029 115 2230 432 
Q 2432 749 2432 1306 
z
" transform="scale(0.015625)"/>
       <path id="STIXGeneral-Regular-63" d="M 2547 998 
L 2637 941 
Q 2362 403 2112 205 
Q 1786 -64 1376 -64 
Q 845 -64 502 336 
Q 160 736 160 1357 
Q 160 2170 698 2618 
Q 1094 2944 1562 2944 
Q 1965 2944 2256 2749 
Q 2547 2554 2547 2285 
Q 2547 2176 2457 2096 
Q 2368 2016 2246 2016 
Q 2022 2016 1939 2310 
L 1901 2451 
Q 1850 2630 1773 2694 
Q 1696 2758 1523 2758 
Q 1133 2758 893 2451 
Q 653 2144 653 1645 
Q 653 1094 928 745 
Q 1203 397 1645 397 
Q 1920 397 2118 528 
Q 2317 659 2547 998 
z
" transform="scale(0.015625)"/>
       <path id="STIXGeneral-Regular-68" d="M 3117 0 
L 1760 0 
L 1760 96 
Q 2042 128 2118 224 
Q 2195 320 2195 653 
L 2195 1920 
Q 2195 2598 1722 2598 
Q 1530 2598 1370 2508 
Q 1210 2419 1005 2195 
L 1005 653 
Q 1005 320 1081 224 
Q 1158 128 1440 96 
L 1440 0 
L 58 0 
L 58 96 
Q 333 134 400 224 
Q 467 314 467 653 
L 467 3667 
Q 467 3872 406 3933 
Q 346 3994 141 3994 
Q 83 3994 64 3987 
L 64 4090 
L 237 4141 
Q 730 4288 973 4371 
L 1005 4352 
L 1005 2406 
Q 1229 2694 1446 2819 
Q 1664 2944 1946 2944 
Q 2733 2944 2733 1926 
L 2733 653 
Q 2733 320 2793 233 
Q 2854 147 3117 96 
L 3117 0 
z
" transform="scale(0.015625)"/>
      </defs>
      <use xlink:href="#STIXGeneral-Regular-45"/>
      <use xlink:href="#STIXGeneral-Regular-70" x="61.099991"/>
      <use xlink:href="#STIXGeneral-Regular-6f" x="111.099976"/>
      <use xlink:href="#STIXGeneral-Regular-63" x="161.09996"/>
      <use xlink:href="#STIXGeneral-Regular-68" x="205.499954"/>
     </g>
    </g>
   </g>
   <g id="matplotlib.axis_2">
    <g id="ytick_1">
     <g id="line2d_15">
      <path d="M 70.4 248.346905 
L 516.8 248.346905 
" clip-path="url(#p457e417f41)" style="fill: none; stroke: #b0b0b0; stroke-width: 0.8; stroke-linecap: square"/>
     </g>
     <g id="line2d_16">
      <defs>
       <path id="m15f1f20536" d="M 0 0 
L -3.5 0 
" style="stroke: #000000; stroke-width: 0.8"/>
      </defs>
      <g>
       <use xlink:href="#m15f1f20536" x="70.4" y="248.346905" style="stroke: #000000; stroke-width: 0.8"/>
      </g>
     </g>
     <g id="text_9">
      <!-- 500 -->
      <g transform="translate(36.4 254.493624)scale(0.18 -0.18)">
       <use xlink:href="#STIXGeneral-Regular-35"/>
       <use xlink:href="#STIXGeneral-Regular-30" x="49.999985"/>
       <use xlink:href="#STIXGeneral-Regular-30" x="99.999969"/>
      </g>
     </g>
    </g>
    <g id="ytick_2">
     <g id="line2d_17">
      <path d="M 70.4 180.855849 
L 516.8 180.855849 
" clip-path="url(#p457e417f41)" style="fill: none; stroke: #b0b0b0; stroke-width: 0.8; stroke-linecap: square"/>
     </g>
     <g id="line2d_18">
      <g>
       <use xlink:href="#m15f1f20536" x="70.4" y="180.855849" style="stroke: #000000; stroke-width: 0.8"/>
      </g>
     </g>
     <g id="text_10">
      <!-- 1000 -->
      <g transform="translate(27.4 187.002567)scale(0.18 -0.18)">
       <use xlink:href="#STIXGeneral-Regular-31"/>
       <use xlink:href="#STIXGeneral-Regular-30" x="49.999985"/>
       <use xlink:href="#STIXGeneral-Regular-30" x="99.999969"/>
       <use xlink:href="#STIXGeneral-Regular-30" x="149.999954"/>
      </g>
     </g>
    </g>
    <g id="ytick_3">
     <g id="line2d_19">
      <path d="M 70.4 113.364792 
L 516.8 113.364792 
" clip-path="url(#p457e417f41)" style="fill: none; stroke: #b0b0b0; stroke-width: 0.8; stroke-linecap: square"/>
     </g>
     <g id="line2d_20">
      <g>
       <use xlink:href="#m15f1f20536" x="70.4" y="113.364792" style="stroke: #000000; stroke-width: 0.8"/>
      </g>
     </g>
     <g id="text_11">
      <!-- 1500 -->
      <g transform="translate(27.4 119.511511)scale(0.18 -0.18)">
       <use xlink:href="#STIXGeneral-Regular-31"/>
       <use xlink:href="#STIXGeneral-Regular-35" x="49.999985"/>
       <use xlink:href="#STIXGeneral-Regular-30" x="99.999969"/>
       <use xlink:href="#STIXGeneral-Regular-30" x="149.999954"/>
      </g>
     </g>
    </g>
    <g id="ytick_4">
     <g id="line2d_21">
      <path d="M 70.4 45.873736 
L 516.8 45.873736 
" clip-path="url(#p457e417f41)" style="fill: none; stroke: #b0b0b0; stroke-width: 0.8; stroke-linecap: square"/>
     </g>
     <g id="line2d_22">
      <g>
       <use xlink:href="#m15f1f20536" x="70.4" y="45.873736" style="stroke: #000000; stroke-width: 0.8"/>
      </g>
     </g>
     <g id="text_12">
      <!-- 2000 -->
      <g transform="translate(27.4 52.020455)scale(0.18 -0.18)">
       <use xlink:href="#STIXGeneral-Regular-32"/>
       <use xlink:href="#STIXGeneral-Regular-30" x="49.999985"/>
       <use xlink:href="#STIXGeneral-Regular-30" x="99.999969"/>
       <use xlink:href="#STIXGeneral-Regular-30" x="149.999954"/>
      </g>
     </g>
    </g>
    <g id="text_13">
     <!-- Average Return -->
     <g transform="translate(19.476562 223.764844)rotate(-90)scale(0.18 -0.18)">
      <defs>
       <path id="STIXGeneral-Regular-41" d="M 4525 0 
L 2893 0 
L 2893 122 
Q 3149 122 3245 179 
Q 3334 224 3334 333 
Q 3334 499 3213 781 
L 2950 1382 
L 1274 1382 
L 979 653 
Q 922 506 922 384 
Q 922 237 1027 179 
Q 1133 122 1370 122 
L 1370 0 
L 96 0 
L 96 122 
Q 365 147 486 316 
Q 608 486 902 1190 
L 2221 4314 
L 2349 4314 
L 3923 710 
Q 4064 378 4176 262 
Q 4288 147 4525 122 
L 4525 0 
z
M 2861 1645 
L 2118 3405 
L 1382 1645 
L 2861 1645 
z
" transform="scale(0.015625)"/>
       <path id="STIXGeneral-Regular-76" d="M 3053 2880 
L 3053 2784 
Q 2906 2771 2835 2688 
Q 2765 2605 2637 2285 
L 1818 230 
Q 1690 -90 1638 -90 
Q 1587 -90 1523 77 
Q 1510 96 1497 141 
Q 1485 186 1472 211 
L 704 2048 
Q 499 2534 403 2652 
Q 307 2771 122 2784 
L 122 2880 
L 1376 2880 
L 1376 2784 
Q 1210 2771 1146 2732 
Q 1082 2694 1082 2611 
Q 1082 2509 1139 2368 
L 1792 730 
L 2426 2387 
Q 2464 2483 2464 2579 
Q 2464 2758 2163 2784 
L 2163 2880 
L 3053 2880 
z
" transform="scale(0.015625)"/>
       <path id="STIXGeneral-Regular-65" d="M 2611 1050 
L 2714 1005 
Q 2330 -64 1376 -64 
Q 813 -64 486 329 
Q 160 723 160 1389 
Q 160 2074 525 2509 
Q 890 2944 1485 2944 
Q 2061 2944 2374 2502 
Q 2560 2246 2592 1773 
L 621 1773 
Q 646 1370 700 1158 
Q 755 947 915 730 
Q 1184 378 1626 378 
Q 1939 378 2153 531 
Q 2368 685 2611 1050 
z
M 634 1978 
L 1939 1978 
Q 1882 2381 1750 2547 
Q 1619 2714 1312 2714 
Q 1043 2714 864 2525 
Q 685 2336 634 1978 
z
" transform="scale(0.015625)"/>
       <path id="STIXGeneral-Regular-72" d="M 1024 2931 
L 1024 2342 
Q 1267 2688 1430 2816 
Q 1594 2944 1792 2944 
Q 1958 2944 2051 2854 
Q 2144 2765 2144 2605 
Q 2144 2470 2077 2393 
Q 2010 2317 1894 2317 
Q 1773 2317 1638 2445 
Q 1536 2541 1472 2541 
Q 1338 2541 1181 2355 
Q 1024 2170 1024 2016 
L 1024 576 
Q 1024 301 1133 205 
Q 1242 109 1568 96 
L 1568 0 
L 32 0 
L 32 96 
Q 339 154 412 224 
Q 486 294 486 538 
L 486 2138 
Q 486 2349 438 2435 
Q 390 2522 269 2522 
Q 166 2522 45 2496 
L 45 2598 
Q 448 2726 992 2944 
L 1024 2931 
z
" transform="scale(0.015625)"/>
       <path id="STIXGeneral-Regular-61" d="M 2829 422 
L 2829 243 
Q 2586 -64 2253 -64 
Q 1888 -64 1843 403 
L 1837 403 
Q 1427 -64 909 -64 
Q 608 -64 422 112 
Q 237 288 237 602 
Q 237 1050 685 1350 
Q 992 1555 1837 1869 
L 1837 2214 
Q 1837 2502 1699 2646 
Q 1562 2790 1338 2790 
Q 1146 2790 1018 2697 
Q 890 2605 890 2477 
Q 890 2419 909 2348 
Q 928 2278 928 2208 
Q 928 2112 841 2029 
Q 755 1946 634 1946 
Q 525 1946 441 2029 
Q 358 2112 358 2240 
Q 358 2547 685 2752 
Q 986 2944 1421 2944 
Q 1939 2944 2176 2656 
Q 2291 2522 2323 2384 
Q 2355 2246 2355 1946 
L 2355 723 
Q 2355 301 2554 301 
Q 2682 301 2829 422 
z
M 1837 813 
L 1837 1715 
Q 1248 1510 1018 1293 
Q 800 1094 800 800 
Q 800 557 921 432 
Q 1043 307 1242 307 
Q 1453 307 1613 410 
Q 1747 506 1792 589 
Q 1837 672 1837 813 
z
" transform="scale(0.015625)"/>
       <path id="STIXGeneral-Regular-67" d="M 3008 2483 
L 2477 2483 
Q 2598 2208 2598 1946 
Q 2598 1453 2265 1203 
Q 1933 954 1600 954 
Q 1530 954 1357 973 
L 1235 986 
Q 1107 947 979 812 
Q 851 678 851 582 
Q 851 435 1350 410 
L 2176 371 
Q 2528 358 2739 172 
Q 2950 -13 2950 -314 
Q 2950 -685 2566 -986 
Q 2035 -1395 1286 -1395 
Q 826 -1395 502 -1212 
Q 179 -1030 179 -774 
Q 179 -595 320 -419 
Q 461 -243 806 6 
Q 602 102 534 172 
Q 467 243 467 346 
Q 467 531 762 787 
Q 909 915 1037 1043 
Q 717 1203 579 1401 
Q 442 1600 442 1901 
Q 442 2336 752 2640 
Q 1062 2944 1510 2944 
Q 1766 2944 2022 2848 
L 2163 2797 
Q 2349 2733 2515 2733 
L 3008 2733 
L 3008 2483 
z
M 973 2163 
L 973 2144 
Q 973 1683 1155 1398 
Q 1338 1114 1632 1114 
Q 1850 1114 1978 1270 
Q 2106 1427 2106 1690 
Q 2106 2112 1914 2464 
Q 1754 2765 1446 2765 
Q 1222 2765 1097 2605 
Q 973 2445 973 2163 
z
M 2771 -410 
Q 2771 -230 2595 -163 
Q 2419 -96 1978 -96 
Q 1344 -96 941 -13 
Q 749 -243 688 -348 
Q 627 -454 627 -563 
Q 627 -774 880 -902 
Q 1133 -1030 1555 -1030 
Q 2099 -1030 2435 -860 
Q 2771 -691 2771 -410 
z
" transform="scale(0.015625)"/>
       <path id="STIXGeneral-Regular-20" transform="scale(0.015625)"/>
       <path id="STIXGeneral-Regular-52" d="M 4224 0 
L 3187 0 
L 1664 1971 
L 1306 1958 
L 1306 717 
Q 1306 352 1405 249 
Q 1504 147 1875 122 
L 1875 0 
L 109 0 
L 109 122 
Q 474 154 563 262 
Q 653 371 653 794 
L 653 3526 
Q 653 3885 563 3987 
Q 474 4090 109 4115 
L 109 4237 
L 1850 4237 
Q 2726 4237 3187 3859 
Q 3501 3603 3501 3091 
Q 3501 2221 2342 2042 
L 3622 422 
Q 3757 256 3878 198 
Q 4000 141 4224 122 
L 4224 0 
z
M 1306 3731 
L 1306 2195 
Q 1766 2202 1990 2246 
Q 2214 2291 2438 2413 
Q 2803 2618 2803 3142 
Q 2803 4000 1632 4000 
Q 1459 4000 1382 3945 
Q 1306 3891 1306 3731 
z
" transform="scale(0.015625)"/>
       <path id="STIXGeneral-Regular-74" d="M 1702 493 
L 1786 422 
Q 1478 -64 1011 -64 
Q 448 -64 448 749 
L 448 2675 
L 109 2675 
Q 83 2694 83 2720 
Q 83 2771 192 2842 
Q 435 2982 813 3526 
Q 826 3546 874 3606 
Q 922 3667 941 3706 
Q 986 3706 986 3622 
L 986 2880 
L 1632 2880 
L 1632 2675 
L 986 2675 
L 986 845 
Q 986 538 1062 403 
Q 1139 269 1318 269 
Q 1510 269 1702 493 
z
" transform="scale(0.015625)"/>
       <path id="STIXGeneral-Regular-75" d="M 3072 320 
L 3072 230 
Q 2573 96 2195 -58 
L 2163 -38 
L 2163 486 
L 2150 486 
Q 1747 -64 1235 -64 
Q 870 -64 662 160 
Q 454 384 454 755 
L 454 2362 
Q 454 2598 371 2688 
Q 288 2778 58 2790 
L 58 2880 
L 992 2880 
L 992 813 
Q 992 595 1123 451 
Q 1254 307 1446 307 
Q 1760 307 1984 506 
Q 2067 582 2099 649 
Q 2131 717 2131 877 
L 2131 2355 
Q 2131 2605 2041 2678 
Q 1952 2752 1658 2771 
L 1658 2880 
L 2669 2880 
L 2669 685 
Q 2669 461 2742 390 
Q 2816 320 3034 320 
L 3072 320 
z
" transform="scale(0.015625)"/>
       <path id="STIXGeneral-Regular-6e" d="M 3104 0 
L 1773 0 
L 1779 96 
Q 2016 115 2096 233 
Q 2176 352 2176 672 
L 2176 1946 
Q 2176 2592 1709 2592 
Q 1549 2592 1408 2515 
Q 1267 2438 1050 2227 
L 1050 461 
Q 1050 269 1136 192 
Q 1222 115 1466 96 
L 1466 0 
L 115 0 
L 115 96 
Q 358 115 435 214 
Q 512 314 512 602 
L 512 2157 
Q 512 2394 467 2483 
Q 422 2573 288 2573 
Q 160 2573 102 2547 
L 102 2656 
Q 550 2784 979 2944 
L 1030 2925 
L 1030 2426 
L 1037 2426 
Q 1491 2944 1958 2944 
Q 2323 2944 2518 2688 
Q 2714 2432 2714 1958 
L 2714 544 
Q 2714 288 2790 205 
Q 2867 122 3104 96 
L 3104 0 
z
" transform="scale(0.015625)"/>
      </defs>
      <use xlink:href="#STIXGeneral-Regular-41"/>
      <use xlink:href="#STIXGeneral-Regular-76" x="72.199982"/>
      <use xlink:href="#STIXGeneral-Regular-65" x="122.199966"/>
      <use xlink:href="#STIXGeneral-Regular-72" x="166.59996"/>
      <use xlink:href="#STIXGeneral-Regular-61" x="199.899948"/>
      <use xlink:href="#STIXGeneral-Regular-67" x="244.299942"/>
      <use xlink:href="#STIXGeneral-Regular-65" x="294.299927"/>
      <use xlink:href="#STIXGeneral-Regular-20" x="338.699921"/>
      <use xlink:href="#STIXGeneral-Regular-52" x="363.699905"/>
      <use xlink:href="#STIXGeneral-Regular-65" x="430.399902"/>
      <use xlink:href="#STIXGeneral-Regular-74" x="474.799896"/>
      <use xlink:href="#STIXGeneral-Regular-75" x="502.599884"/>
      <use xlink:href="#STIXGeneral-Regular-72" x="552.599869"/>
      <use xlink:href="#STIXGeneral-Regular-6e" x="585.899857"/>
     </g>
    </g>
   </g>
   <g id="line2d_23">
    <path d="M 90.690909 275.743565 
L 92.048161 290.255761 
L 93.405412 285.19219 
L 94.762663 267.437317 
L 96.119915 259.199622 
L 97.477166 280.729937 
L 98.834418 267.085213 
L 100.191669 275.551831 
L 101.548921 197.644924 
L 102.906172 280.030648 
L 104.263424 148.33732 
L 105.620675 192.235193 
L 106.977926 214.830889 
L 108.335178 195.267084 
L 109.692429 143.216881 
L 111.049681 182.5431 
L 112.406932 185.526787 
L 113.764184 188.810508 
L 115.121435 145.520392 
L 116.478687 199.565314 
L 117.835938 178.434846 
L 119.193189 137.76678 
L 120.550441 133.845626 
L 121.907692 153.100003 
L 123.264944 176.826372 
L 124.622195 168.357826 
L 125.979447 188.243203 
L 127.336698 103.103318 
L 128.69395 140.03246 
L 130.051201 193.299768 
L 131.408452 209.249003 
L 132.765704 203.901111 
L 134.122955 212.435673 
L 135.480207 206.315227 
L 136.837458 167.761035 
L 138.19471 144.300643 
L 139.551961 173.906643 
L 140.909213 159.104088 
L 142.266464 177.12387 
L 143.623715 157.504339 
L 144.980967 173.305237 
L 146.338218 122.674159 
L 147.69547 150.71923 
L 149.052721 133.684939 
L 150.409973 215.451309 
L 151.767224 206.2102 
L 153.124476 185.360003 
L 154.481727 229.93413 
L 155.838978 224.240841 
L 157.19623 182.998344 
L 158.553481 182.778981 
L 159.910733 139.342291 
L 161.267984 164.259854 
L 162.625236 160.952034 
L 163.982487 154.363994 
L 165.339739 136.946111 
L 166.69699 153.836951 
L 168.054241 94.076356 
L 169.411493 172.946526 
L 170.768744 146.279403 
L 172.125996 195.230471 
L 173.483247 164.387833 
L 174.840499 167.344604 
L 176.19775 158.437004 
L 177.555002 176.701326 
L 178.912253 190.034179 
L 180.269504 171.610167 
L 181.626756 182.623814 
L 182.984007 162.472379 
L 184.341259 148.426478 
L 185.69851 183.530725 
L 187.055762 153.053999 
L 188.413013 176.421129 
L 189.770265 171.161457 
L 191.127516 175.394461 
L 192.484767 171.85497 
L 193.842019 160.227362 
L 195.19927 162.506668 
L 196.556522 152.826645 
L 197.913773 146.42465 
L 199.271025 154.571806 
L 200.628276 144.28494 
L 201.985528 164.004505 
L 203.342779 158.315203 
L 204.70003 165.412409 
L 206.057282 155.283494 
L 207.414533 157.946804 
L 208.771785 147.19999 
L 210.129036 146.574808 
L 211.486288 158.12555 
L 212.843539 164.361964 
L 214.200791 167.553932 
L 215.558042 151.846723 
L 216.915293 158.790393 
L 218.272545 126.985545 
L 219.629796 153.036994 
L 220.987048 131.64808 
L 222.344299 142.82482 
L 223.701551 150.617713 
L 225.058802 152.998932 
L 226.416054 147.667616 
L 227.773305 150.584512 
L 229.130556 135.50354 
L 230.487808 155.729765 
L 231.845059 145.924152 
L 233.202311 159.880811 
L 234.559562 163.537934 
L 235.916814 151.07776 
L 237.274065 152.760587 
L 238.631317 119.93619 
L 239.988568 128.091815 
L 241.345819 158.468937 
L 242.703071 150.297296 
L 244.060322 160.881297 
L 245.417574 159.657857 
L 246.774825 152.91376 
L 248.132077 165.619809 
L 249.489328 166.324593 
L 250.84658 162.888069 
L 252.203831 165.119722 
L 253.561082 147.66816 
L 254.918334 125.122209 
L 256.275585 152.540253 
L 257.632837 138.13803 
L 260.34734 160.191013 
L 261.704591 164.058847 
L 263.061843 154.521863 
L 264.419094 159.578057 
L 265.776345 170.416551 
L 267.133597 155.854614 
L 268.490848 166.207653 
L 269.8481 167.812658 
L 271.205351 171.021944 
L 272.562603 165.496525 
L 273.919854 147.710358 
L 275.277106 178.866485 
L 276.634357 179.771428 
L 277.991608 140.265432 
L 279.34886 177.976563 
L 280.706111 174.108786 
L 282.063363 113.52655 
L 283.420614 148.729167 
L 284.777866 170.994723 
L 286.135117 153.826191 
L 287.492369 144.556074 
L 288.84962 147.351268 
L 290.206871 130.945834 
L 291.564123 161.25726 
L 292.921374 179.888458 
L 294.278626 146.360867 
L 295.635877 181.67501 
L 296.993129 141.798432 
L 298.35038 144.720979 
L 299.707631 140.349269 
L 301.064883 141.267533 
L 302.422134 119.605985 
L 303.779386 120.213553 
L 305.136637 132.693021 
L 306.493889 130.090249 
L 307.85114 153.583991 
L 309.208392 136.448925 
L 310.565643 147.609583 
L 311.922894 168.917528 
L 313.280146 151.18796 
L 314.637397 172.478538 
L 315.994649 165.247323 
L 317.3519 161.740012 
L 318.709152 166.891214 
L 320.066403 153.153159 
L 321.423655 169.446894 
L 322.780906 120.278193 
L 324.138157 161.462435 
L 325.495409 171.99857 
L 326.85266 177.494033 
L 328.209912 162.882532 
L 329.567163 154.872781 
L 330.924415 129.156513 
L 332.281666 164.152488 
L 333.638918 130.979365 
L 334.996169 166.266461 
L 336.35342 140.257144 
L 337.710672 156.494774 
L 339.067923 162.375229 
L 340.425175 167.355825 
L 341.782426 141.685612 
L 343.139678 187.377848 
L 344.496929 166.66508 
L 345.854181 163.480395 
L 347.211432 159.837591 
L 348.568683 174.179095 
L 349.925935 168.997921 
L 351.283186 156.452394 
L 352.640438 152.375051 
L 353.997689 177.577639 
L 355.354941 161.145346 
L 356.712192 156.587986 
L 358.069444 171.36805 
L 359.426695 178.045611 
L 360.783946 174.701393 
L 362.141198 160.772333 
L 363.498449 180.566886 
L 364.855701 142.530799 
L 366.212952 171.27141 
L 367.570204 172.700454 
L 368.927455 174.400451 
L 370.284707 165.311897 
L 371.641958 144.958779 
L 372.999209 152.901551 
L 374.356461 126.616635 
L 375.713712 157.128541 
L 377.070964 180.335232 
L 378.428215 132.115343 
L 379.785467 158.67978 
L 381.142718 153.424985 
L 382.49997 187.810492 
L 383.857221 165.521159 
L 385.214472 135.426508 
L 386.571724 150.519459 
L 387.928975 173.977511 
L 389.286227 158.745739 
L 390.643478 162.731715 
L 392.00073 144.160009 
L 393.357981 184.704 
L 394.715233 155.348316 
L 396.072484 172.14619 
L 397.429735 155.51327 
L 398.786987 146.892128 
L 400.144238 174.67437 
L 401.50149 174.824313 
L 402.858741 161.853261 
L 404.215993 163.473639 
L 405.573244 143.599962 
L 406.930496 165.811983 
L 408.287747 151.437262 
L 409.644998 156.737287 
L 411.00225 154.577919 
L 412.359501 164.007537 
L 413.716753 163.385469 
L 415.074004 152.170074 
L 416.431256 173.427894 
L 417.788507 168.407225 
L 419.145759 152.263895 
L 420.50301 153.130075 
L 421.860261 167.491235 
L 423.217513 148.803694 
L 424.574764 166.712205 
L 425.932016 157.608129 
L 427.289267 157.442153 
L 428.646519 166.103451 
L 430.00377 157.057309 
L 431.361022 152.693788 
L 432.718273 171.759583 
L 434.075524 164.643363 
L 435.432776 150.300641 
L 436.790027 154.891977 
L 438.147279 154.90964 
L 439.50453 160.822852 
L 442.219033 170.627329 
L 443.576285 168.981542 
L 444.933536 176.292376 
L 446.290787 174.723637 
L 447.648039 150.899657 
L 449.00529 175.114149 
L 450.362542 177.513904 
L 451.719793 162.418482 
L 453.077045 153.256258 
L 454.434296 152.279681 
L 455.791548 155.278056 
L 457.148799 139.570403 
L 458.50605 155.183246 
L 459.863302 156.092662 
L 461.220553 157.850939 
L 462.577805 165.200939 
L 463.935056 174.587139 
L 465.292308 159.990451 
L 466.649559 168.762377 
L 468.006811 172.559194 
L 469.364062 168.329189 
L 470.721313 159.578436 
L 472.078565 166.965296 
L 473.435816 173.475646 
L 474.793068 162.394919 
L 476.150319 159.14248 
L 478.864822 178.452913 
L 480.222074 162.280682 
L 481.579325 158.542821 
L 482.936576 158.66009 
L 484.293828 155.100909 
L 485.651079 132.30765 
L 487.008331 160.412946 
L 488.365582 143.887738 
L 489.722834 156.622111 
L 491.080085 146.424024 
L 492.437337 157.907654 
L 493.794588 157.618411 
L 495.151839 178.997035 
L 496.509091 169.318141 
L 496.509091 169.318141 
" clip-path="url(#p457e417f41)" style="fill: none; stroke: #1f77b4; stroke-width: 1.5; stroke-linecap: square"/>
   </g>
   <g id="line2d_24">
    <path d="M 90.690909 268.612425 
L 92.048161 267.340826 
L 93.405412 275.339929 
L 94.762663 268.723111 
L 96.119915 292.531875 
L 97.477166 270.477755 
L 98.834418 271.835156 
L 100.191669 282.064926 
L 101.548921 285.170374 
L 102.906172 272.911058 
L 104.263424 263.321677 
L 105.620675 232.930026 
L 106.977926 232.835496 
L 108.335178 249.372704 
L 109.692429 270.066403 
L 111.049681 272.053579 
L 112.406932 261.224993 
L 113.764184 215.549737 
L 115.121435 208.92052 
L 116.478687 190.557466 
L 117.835938 250.739686 
L 119.193189 227.989355 
L 120.550441 211.112496 
L 121.907692 231.287305 
L 123.264944 270.884341 
L 124.622195 269.517264 
L 125.979447 253.301784 
L 127.336698 239.480836 
L 130.051201 257.340937 
L 131.408452 224.973554 
L 132.765704 262.739603 
L 134.122955 257.550236 
L 135.480207 248.937476 
L 136.837458 154.592502 
L 138.19471 137.436657 
L 139.551961 182.680109 
L 140.909213 177.073054 
L 142.266464 224.882089 
L 143.623715 247.940447 
L 144.980967 234.069375 
L 146.338218 191.888906 
L 147.69547 211.582618 
L 149.052721 226.908625 
L 150.409973 199.681355 
L 151.767224 199.621724 
L 153.124476 159.996828 
L 154.481727 181.296773 
L 155.838978 143.594936 
L 157.19623 113.639222 
L 158.553481 165.456667 
L 159.910733 152.116242 
L 161.267984 195.837669 
L 162.625236 216.835642 
L 163.982487 188.834878 
L 165.339739 155.393579 
L 166.69699 160.047512 
L 168.054241 152.152426 
L 169.411493 145.451286 
L 170.768744 113.345168 
L 172.125996 135.666451 
L 173.483247 137.695104 
L 174.840499 140.247999 
L 176.19775 141.487389 
L 177.555002 134.962326 
L 178.912253 175.939119 
L 180.269504 155.493777 
L 181.626756 151.095572 
L 182.984007 169.668778 
L 184.341259 135.813988 
L 185.69851 136.039794 
L 187.055762 40.531875 
L 188.413013 130.802135 
L 189.770265 124.160824 
L 191.127516 129.756304 
L 192.484767 111.179769 
L 193.842019 124.073626 
L 195.19927 110.759565 
L 196.556522 122.872793 
L 197.913773 98.473606 
L 199.271025 138.165861 
L 200.628276 124.654764 
L 201.985528 126.429337 
L 203.342779 118.130986 
L 204.70003 115.407385 
L 206.057282 58.226906 
L 207.414533 124.781013 
L 208.771785 122.97978 
L 210.129036 120.077763 
L 211.486288 122.330508 
L 212.843539 130.532896 
L 214.200791 110.50733 
L 215.558042 141.241861 
L 216.915293 131.762762 
L 218.272545 139.052818 
L 219.629796 124.867898 
L 220.987048 119.400249 
L 222.344299 122.204489 
L 223.701551 140.205241 
L 225.058802 136.619119 
L 226.416054 114.806458 
L 227.773305 119.5191 
L 229.130556 117.090427 
L 230.487808 135.635589 
L 231.845059 132.682641 
L 233.202311 106.556204 
L 234.559562 116.262278 
L 235.916814 107.653938 
L 237.274065 121.354755 
L 238.631317 120.413439 
L 239.988568 116.253479 
L 241.345819 118.476482 
L 242.703071 141.696668 
L 244.060322 125.40669 
L 245.417574 113.285553 
L 246.774825 118.510129 
L 248.132077 109.9777 
L 249.489328 105.975379 
L 250.84658 93.222815 
L 252.203831 124.923493 
L 253.561082 126.426174 
L 254.918334 110.494824 
L 256.275585 141.440396 
L 257.632837 121.02913 
L 258.990088 116.595218 
L 260.34734 123.165298 
L 261.704591 136.890451 
L 263.061843 103.063327 
L 264.419094 121.919267 
L 265.776345 124.712286 
L 267.133597 117.580265 
L 268.490848 126.974654 
L 269.8481 131.493012 
L 271.205351 130.520719 
L 272.562603 126.175669 
L 273.919854 154.100654 
L 275.277106 161.843869 
L 276.634357 157.508705 
L 277.991608 103.276807 
L 279.34886 136.610551 
L 280.706111 156.907596 
L 282.063363 156.507082 
L 283.420614 161.734245 
L 284.777866 142.608176 
L 286.135117 166.25313 
L 287.492369 176.586908 
L 288.84962 145.904462 
L 290.206871 153.057673 
L 291.564123 144.1608 
L 292.921374 186.445405 
L 294.278626 112.248834 
L 295.635877 119.119262 
L 296.993129 132.018523 
L 298.35038 120.429356 
L 299.707631 118.989816 
L 301.064883 126.184204 
L 302.422134 115.806383 
L 303.779386 120.113601 
L 305.136637 160.654405 
L 306.493889 115.507897 
L 307.85114 148.325044 
L 309.208392 132.610635 
L 310.565643 106.041172 
L 311.922894 103.887341 
L 313.280146 116.01726 
L 315.994649 158.545589 
L 317.3519 126.002048 
L 318.709152 145.903621 
L 320.066403 177.700642 
L 321.423655 132.60991 
L 322.780906 158.872614 
L 324.138157 164.383862 
L 325.495409 133.555427 
L 326.85266 116.092726 
L 328.209912 137.434433 
L 329.567163 140.592622 
L 330.924415 168.642126 
L 332.281666 157.808312 
L 333.638918 176.623372 
L 334.996169 156.251437 
L 336.35342 101.730231 
L 337.710672 132.030551 
L 339.067923 155.941268 
L 340.425175 156.054863 
L 341.782426 98.112259 
L 343.139678 160.937485 
L 344.496929 101.505167 
L 345.854181 155.838417 
L 347.211432 131.723892 
L 348.568683 105.323306 
L 349.925935 124.616471 
L 351.283186 125.956818 
L 352.640438 131.654654 
L 353.997689 147.254283 
L 355.354941 133.036936 
L 356.712192 103.840035 
L 358.069444 161.813781 
L 359.426695 158.971132 
L 360.783946 138.550046 
L 362.141198 157.203035 
L 363.498449 169.147534 
L 364.855701 144.320416 
L 366.212952 144.472139 
L 367.570204 145.616933 
L 368.927455 155.684206 
L 370.284707 136.615379 
L 371.641958 108.040364 
L 372.999209 150.94314 
L 374.356461 166.650283 
L 375.713712 165.618952 
L 377.070964 137.331812 
L 378.428215 128.687783 
L 379.785467 119.325245 
L 381.142718 99.326356 
L 382.49997 137.825423 
L 383.857221 146.308024 
L 385.214472 123.205881 
L 386.571724 125.529116 
L 387.928975 124.071171 
L 389.286227 144.216444 
L 390.643478 147.498822 
L 392.00073 156.720299 
L 393.357981 117.35151 
L 394.715233 134.208209 
L 396.072484 108.24582 
L 397.429735 137.287735 
L 398.786987 144.574562 
L 400.144238 118.606323 
L 401.50149 133.614581 
L 402.858741 100.832003 
L 404.215993 143.279593 
L 405.573244 135.117493 
L 406.930496 157.363639 
L 408.287747 140.877976 
L 409.644998 155.836308 
L 411.00225 172.686004 
L 412.359501 165.392916 
L 413.716753 168.370217 
L 415.074004 173.160138 
L 416.431256 162.462064 
L 417.788507 154.847735 
L 419.145759 157.951665 
L 420.50301 174.69963 
L 421.860261 128.538301 
L 423.217513 175.297591 
L 424.574764 146.943043 
L 425.932016 129.02949 
L 427.289267 171.566403 
L 428.646519 157.162846 
L 430.00377 169.484479 
L 431.361022 169.156696 
L 432.718273 157.080625 
L 434.075524 159.306808 
L 435.432776 142.142939 
L 436.790027 175.498186 
L 438.147279 162.607773 
L 439.50453 152.604547 
L 440.861782 152.3853 
L 442.219033 158.004491 
L 443.576285 145.747845 
L 444.933536 162.696668 
L 446.290787 160.096977 
L 447.648039 164.103797 
L 450.362542 132.734412 
L 451.719793 159.451709 
L 453.077045 156.08734 
L 454.434296 170.162273 
L 455.791548 145.569742 
L 457.148799 154.909179 
L 458.50605 121.650506 
L 459.863302 174.004485 
L 461.220553 160.82305 
L 462.577805 164.932688 
L 463.935056 163.428228 
L 465.292308 134.538282 
L 466.649559 134.531494 
L 468.006811 132.148727 
L 469.364062 165.254655 
L 470.721313 161.537308 
L 472.078565 121.680297 
L 473.435816 152.227612 
L 474.793068 156.654291 
L 476.150319 147.994575 
L 477.507571 152.547157 
L 478.864822 150.245689 
L 480.222074 163.902445 
L 481.579325 167.050813 
L 482.936576 143.976963 
L 484.293828 170.616997 
L 485.651079 158.625702 
L 487.008331 148.933568 
L 488.365582 146.88155 
L 489.722834 140.665666 
L 491.080085 144.209457 
L 492.437337 167.581465 
L 493.794588 160.316455 
L 495.151839 124.166739 
L 496.509091 131.853189 
L 496.509091 131.853189 
" clip-path="url(#p457e417f41)" style="fill: none; stroke: #ff7f0e; stroke-width: 1.5; stroke-linecap: square"/>
   </g>
   <g id="line2d_25">
    <path d="M 90.690909 278.092661 
L 92.048161 254.389756 
L 93.405412 286.636053 
L 94.762663 271.603386 
L 96.119915 274.633938 
L 97.477166 254.510518 
L 98.834418 268.080418 
L 100.191669 264.044483 
L 101.548921 242.331048 
L 102.906172 244.225584 
L 104.263424 271.69816 
L 105.620675 223.511844 
L 106.977926 252.216712 
L 108.335178 229.905724 
L 109.692429 255.855948 
L 111.049681 220.593358 
L 112.406932 212.773977 
L 113.764184 222.149368 
L 115.121435 205.198395 
L 116.478687 239.002912 
L 117.835938 262.33621 
L 119.193189 262.8603 
L 120.550441 165.226149 
L 121.907692 240.55177 
L 123.264944 198.85155 
L 124.622195 168.216616 
L 125.979447 126.83028 
L 127.336698 146.144701 
L 128.69395 155.085404 
L 130.051201 159.307813 
L 131.408452 171.50402 
L 132.765704 170.242847 
L 134.122955 177.475974 
L 135.480207 191.093926 
L 136.837458 132.461977 
L 138.19471 138.392588 
L 139.551961 170.069209 
L 140.909213 150.689192 
L 142.266464 140.308899 
L 143.623715 164.645785 
L 144.980967 169.297972 
L 146.338218 158.609093 
L 147.69547 183.576697 
L 149.052721 142.971797 
L 150.409973 179.597345 
L 151.767224 183.590991 
L 153.124476 175.231451 
L 154.481727 105.323602 
L 155.838978 182.354872 
L 157.19623 175.297113 
L 158.553481 135.957638 
L 159.910733 159.544015 
L 161.267984 127.720582 
L 162.625236 148.079714 
L 163.982487 153.23927 
L 165.339739 161.512048 
L 166.69699 155.603055 
L 168.054241 170.196381 
L 169.411493 161.313876 
L 170.768744 165.876245 
L 172.125996 129.332771 
L 173.483247 161.991588 
L 174.840499 152.999558 
L 176.19775 161.253981 
L 177.555002 190.240986 
L 178.912253 186.064128 
L 180.269504 188.690191 
L 181.626756 180.195809 
L 182.984007 168.683369 
L 184.341259 181.621541 
L 185.69851 150.81755 
L 187.055762 139.697707 
L 188.413013 138.189291 
L 189.770265 162.710888 
L 191.127516 151.150985 
L 192.484767 134.366819 
L 193.842019 122.430262 
L 195.19927 136.204072 
L 196.556522 162.011179 
L 197.913773 157.898113 
L 199.271025 167.305882 
L 200.628276 182.380931 
L 201.985528 139.675841 
L 203.342779 149.404308 
L 204.70003 68.474293 
L 206.057282 136.412477 
L 207.414533 164.316388 
L 208.771785 167.636994 
L 210.129036 126.244857 
L 211.486288 132.951435 
L 212.843539 167.673919 
L 214.200791 169.066763 
L 215.558042 140.559091 
L 216.915293 159.464562 
L 218.272545 136.123301 
L 219.629796 164.358471 
L 220.987048 151.655174 
L 222.344299 155.718281 
L 223.701551 164.689796 
L 225.058802 148.717105 
L 226.416054 146.141158 
L 227.773305 146.518324 
L 229.130556 126.881079 
L 230.487808 161.235444 
L 231.845059 146.513117 
L 233.202311 145.469906 
L 234.559562 143.777274 
L 235.916814 169.518818 
L 237.274065 151.315231 
L 238.631317 131.370981 
L 239.988568 159.672901 
L 241.345819 167.639482 
L 242.703071 128.140308 
L 244.060322 155.044243 
L 245.417574 142.478022 
L 246.774825 162.945854 
L 249.489328 131.797496 
L 250.84658 136.917803 
L 252.203831 157.946013 
L 253.561082 132.25578 
L 254.918334 134.540737 
L 256.275585 135.138287 
L 257.632837 173.724519 
L 258.990088 137.252639 
L 260.34734 138.00954 
L 261.704591 151.401621 
L 263.061843 142.205042 
L 264.419094 133.876142 
L 265.776345 148.896527 
L 267.133597 160.784509 
L 268.490848 129.910696 
L 269.8481 136.466852 
L 271.205351 136.435694 
L 272.562603 136.074808 
L 273.919854 132.684404 
L 275.277106 141.165934 
L 276.634357 133.573701 
L 277.991608 116.367568 
L 279.34886 140.597648 
L 280.706111 132.919551 
L 282.063363 111.532779 
L 283.420614 134.437326 
L 284.777866 173.698584 
L 286.135117 129.417959 
L 287.492369 148.50669 
L 288.84962 127.611914 
L 290.206871 118.038713 
L 291.564123 174.954484 
L 292.921374 115.617916 
L 294.278626 136.023036 
L 295.635877 145.306896 
L 296.993129 148.837999 
L 298.35038 144.137073 
L 299.707631 149.877355 
L 301.064883 125.914982 
L 302.422134 138.65756 
L 303.779386 130.284813 
L 305.136637 124.560316 
L 306.493889 63.471419 
L 307.85114 143.222088 
L 309.208392 154.853156 
L 310.565643 156.791695 
L 311.922894 151.988856 
L 313.280146 133.542311 
L 314.637397 186.528335 
L 315.994649 131.022667 
L 317.3519 169.561609 
L 318.709152 136.281186 
L 320.066403 147.809568 
L 321.423655 140.981833 
L 322.780906 150.064257 
L 324.138157 151.861882 
L 325.495409 185.235493 
L 326.85266 144.285006 
L 328.209912 175.350203 
L 329.567163 172.541877 
L 330.924415 140.716169 
L 332.281666 137.370435 
L 333.638918 151.100943 
L 334.996169 195.447749 
L 336.35342 175.960127 
L 339.067923 159.152251 
L 340.425175 178.655625 
L 341.782426 168.339718 
L 343.139678 183.11427 
L 344.496929 168.563562 
L 345.854181 159.260737 
L 347.211432 144.707138 
L 348.568683 184.888332 
L 351.283186 197.477754 
L 352.640438 184.39019 
L 353.997689 205.571482 
L 355.354941 158.578066 
L 356.712192 159.143567 
L 358.069444 172.414227 
L 359.426695 197.31308 
L 360.783946 168.661174 
L 362.141198 146.700711 
L 363.498449 152.267817 
L 364.855701 148.883048 
L 366.212952 176.013052 
L 367.570204 163.939074 
L 368.927455 171.388053 
L 370.284707 168.251779 
L 371.641958 140.288187 
L 372.999209 168.1658 
L 374.356461 136.608821 
L 375.713712 171.671314 
L 377.070964 167.956719 
L 378.428215 194.941863 
L 379.785467 136.040337 
L 381.142718 160.685777 
L 382.49997 163.360407 
L 383.857221 161.310894 
L 385.214472 148.955334 
L 386.571724 152.506903 
L 387.928975 177.92386 
L 389.286227 165.189141 
L 390.643478 154.986738 
L 392.00073 127.338028 
L 393.357981 180.193584 
L 396.072484 147.649639 
L 397.429735 172.78149 
L 398.786987 146.9265 
L 400.144238 154.52997 
L 401.50149 144.860591 
L 402.858741 151.238727 
L 404.215993 144.542365 
L 405.573244 135.799324 
L 406.930496 164.675247 
L 408.287747 128.867353 
L 409.644998 154.964015 
L 411.00225 147.432155 
L 412.359501 166.530213 
L 413.716753 167.547192 
L 415.074004 136.961056 
L 416.431256 141.524529 
L 417.788507 158.086927 
L 419.145759 153.866132 
L 420.50301 172.051298 
L 421.860261 165.294398 
L 423.217513 183.148403 
L 424.574764 163.594863 
L 425.932016 165.804503 
L 427.289267 167.44411 
L 428.646519 151.891426 
L 430.00377 154.918258 
L 431.361022 152.47665 
L 432.718273 164.181653 
L 434.075524 162.602764 
L 435.432776 177.523296 
L 436.790027 176.456786 
L 438.147279 178.465716 
L 439.50453 162.729788 
L 440.861782 144.443616 
L 442.219033 156.132619 
L 443.576285 150.522738 
L 444.933536 158.758657 
L 446.290787 175.863257 
L 447.648039 132.843624 
L 449.00529 154.979125 
L 450.362542 129.660834 
L 451.719793 153.090315 
L 453.077045 169.061605 
L 454.434296 179.073589 
L 455.791548 157.909334 
L 457.148799 174.847991 
L 458.50605 159.587697 
L 459.863302 180.705963 
L 461.220553 188.008821 
L 462.577805 173.134681 
L 463.935056 179.541849 
L 465.292308 180.021916 
L 466.649559 181.116956 
L 468.006811 168.463182 
L 469.364062 186.364996 
L 470.721313 185.364872 
L 473.435816 151.774882 
L 474.793068 174.050226 
L 476.150319 178.871206 
L 477.507571 187.346854 
L 478.864822 185.495809 
L 480.222074 182.791916 
L 481.579325 178.921264 
L 482.936576 184.139982 
L 484.293828 164.827893 
L 485.651079 187.347603 
L 487.008331 138.132296 
L 488.365582 149.92125 
L 489.722834 134.469901 
L 491.080085 155.012772 
L 492.437337 172.52217 
L 493.794588 192.66278 
L 495.151839 186.478796 
L 496.509091 171.668332 
L 496.509091 171.668332 
" clip-path="url(#p457e417f41)" style="fill: none; stroke: #2ca02c; stroke-width: 1.5; stroke-linecap: square"/>
   </g>
   <g id="patch_3">
    <path d="M 70.4 305.131875 
L 70.4 27.931875 
" style="fill: none; stroke: #000000; stroke-width: 0.8; stroke-linejoin: miter; stroke-linecap: square"/>
   </g>
   <g id="patch_4">
    <path d="M 516.8 305.131875 
L 516.8 27.931875 
" style="fill: none; stroke: #000000; stroke-width: 0.8; stroke-linejoin: miter; stroke-linecap: square"/>
   </g>
   <g id="patch_5">
    <path d="M 70.4 305.131875 
L 516.8 305.131875 
" style="fill: none; stroke: #000000; stroke-width: 0.8; stroke-linejoin: miter; stroke-linecap: square"/>
   </g>
   <g id="patch_6">
    <path d="M 70.4 27.931875 
L 516.8 27.931875 
" style="fill: none; stroke: #000000; stroke-width: 0.8; stroke-linejoin: miter; stroke-linecap: square"/>
   </g>
   <g id="text_14">
    <!-- Meta Test Average Return -->
    <g transform="translate(178.726813 21.931875)scale(0.216 -0.216)">
     <defs>
      <path id="STIXGeneral-Regular-4d" d="M 5530 0 
L 3738 0 
L 3738 122 
Q 4115 147 4214 265 
Q 4314 384 4314 787 
L 4314 3661 
L 2682 0 
L 2592 0 
L 979 3514 
L 979 966 
Q 979 448 1088 294 
Q 1197 141 1574 122 
L 1574 0 
L 77 0 
L 77 122 
Q 358 141 480 205 
Q 602 269 650 432 
Q 698 595 698 966 
L 698 3514 
Q 698 3878 589 3984 
Q 480 4090 90 4115 
L 90 4237 
L 1357 4237 
L 2835 1024 
L 4250 4237 
L 5523 4237 
L 5523 4115 
Q 5178 4109 5072 3993 
Q 4966 3878 4966 3520 
L 4966 717 
Q 4966 378 5072 262 
Q 5178 147 5530 122 
L 5530 0 
z
" transform="scale(0.015625)"/>
      <path id="STIXGeneral-Regular-54" d="M 3795 3149 
L 3642 3149 
Q 3539 3674 3353 3821 
Q 3168 3968 2656 3968 
L 2278 3968 
L 2278 710 
Q 2278 346 2387 243 
Q 2496 141 2893 122 
L 2893 0 
L 1024 0 
L 1024 122 
Q 1427 147 1526 256 
Q 1626 365 1626 787 
L 1626 3968 
L 1242 3968 
Q 723 3968 540 3817 
Q 358 3667 262 3149 
L 109 3149 
L 154 4237 
L 3750 4237 
L 3795 3149 
z
" transform="scale(0.015625)"/>
      <path id="STIXGeneral-Regular-73" d="M 998 1926 
L 1664 1523 
Q 1984 1331 2105 1164 
Q 2227 998 2227 736 
Q 2227 416 1961 176 
Q 1696 -64 1331 -64 
Q 1030 -64 864 -6 
Q 691 51 570 51 
Q 461 51 416 -26 
L 333 -26 
L 333 979 
L 435 979 
Q 538 512 730 294 
Q 922 77 1248 77 
Q 1485 77 1632 211 
Q 1779 346 1779 550 
Q 1779 845 1440 1030 
L 1094 1222 
Q 326 1651 326 2150 
Q 326 2522 566 2730 
Q 806 2938 1210 2938 
Q 1491 2938 1638 2867 
Q 1754 2816 1818 2816 
Q 1862 2816 1920 2880 
L 1990 2880 
L 2022 2010 
L 1926 2010 
Q 1818 2445 1654 2621 
Q 1491 2797 1203 2797 
Q 986 2797 854 2688 
Q 723 2579 723 2362 
Q 723 2253 796 2128 
Q 870 2003 998 1926 
z
" transform="scale(0.015625)"/>
     </defs>
     <use xlink:href="#STIXGeneral-Regular-4d"/>
     <use xlink:href="#STIXGeneral-Regular-65" x="88.899994"/>
     <use xlink:href="#STIXGeneral-Regular-74" x="133.299988"/>
     <use xlink:href="#STIXGeneral-Regular-61" x="161.099976"/>
     <use xlink:href="#STIXGeneral-Regular-20" x="205.499969"/>
     <use xlink:href="#STIXGeneral-Regular-54" x="230.499954"/>
     <use xlink:href="#STIXGeneral-Regular-65" x="291.599945"/>
     <use xlink:href="#STIXGeneral-Regular-73" x="335.999939"/>
     <use xlink:href="#STIXGeneral-Regular-74" x="374.899933"/>
     <use xlink:href="#STIXGeneral-Regular-20" x="402.699921"/>
     <use xlink:href="#STIXGeneral-Regular-41" x="427.699905"/>
     <use xlink:href="#STIXGeneral-Regular-76" x="499.899887"/>
     <use xlink:href="#STIXGeneral-Regular-65" x="549.899872"/>
     <use xlink:href="#STIXGeneral-Regular-72" x="594.299866"/>
     <use xlink:href="#STIXGeneral-Regular-61" x="627.599854"/>
     <use xlink:href="#STIXGeneral-Regular-67" x="671.999847"/>
     <use xlink:href="#STIXGeneral-Regular-65" x="721.999832"/>
     <use xlink:href="#STIXGeneral-Regular-20" x="766.399826"/>
     <use xlink:href="#STIXGeneral-Regular-52" x="791.399811"/>
     <use xlink:href="#STIXGeneral-Regular-65" x="858.099808"/>
     <use xlink:href="#STIXGeneral-Regular-74" x="902.499802"/>
     <use xlink:href="#STIXGeneral-Regular-75" x="930.299789"/>
     <use xlink:href="#STIXGeneral-Regular-72" x="980.299774"/>
     <use xlink:href="#STIXGeneral-Regular-6e" x="1013.599762"/>
    </g>
   </g>
   <g id="legend_1">
    <g id="patch_7">
     <path d="M 437.321562 98.647187 
L 507 98.647187 
Q 509.8 98.647187 509.8 95.847187 
L 509.8 37.731875 
Q 509.8 34.931875 507 34.931875 
L 437.321562 34.931875 
Q 434.521562 34.931875 434.521562 37.731875 
L 434.521562 95.847187 
Q 434.521562 98.647187 437.321562 98.647187 
z
" style="fill: #ffffff; opacity: 0.8; stroke: #cccccc; stroke-linejoin: miter"/>
    </g>
    <g id="line2d_26">
     <path d="M 440.121562 45.431875 
L 454.121562 45.431875 
L 468.121562 45.431875 
" style="fill: none; stroke: #1f77b4; stroke-width: 1.5; stroke-linecap: square"/>
    </g>
    <g id="text_15">
     <!-- 1e-3 -->
     <g transform="translate(479.321562 50.331875)scale(0.14 -0.14)">
      <defs>
       <path id="STIXGeneral-Regular-2d" d="M 1824 1242 
L 250 1242 
L 250 1645 
L 1824 1645 
L 1824 1242 
z
" transform="scale(0.015625)"/>
      </defs>
      <use xlink:href="#STIXGeneral-Regular-31"/>
      <use xlink:href="#STIXGeneral-Regular-65" x="49.999985"/>
      <use xlink:href="#STIXGeneral-Regular-2d" x="94.399979"/>
      <use xlink:href="#STIXGeneral-Regular-33" x="127.699966"/>
     </g>
    </g>
    <g id="line2d_27">
     <path d="M 440.121562 65.270312 
L 454.121562 65.270312 
L 468.121562 65.270312 
" style="fill: none; stroke: #ff7f0e; stroke-width: 1.5; stroke-linecap: square"/>
    </g>
    <g id="text_16">
     <!-- 5e-3 -->
     <g transform="translate(479.321562 70.170312)scale(0.14 -0.14)">
      <use xlink:href="#STIXGeneral-Regular-35"/>
      <use xlink:href="#STIXGeneral-Regular-65" x="49.999985"/>
      <use xlink:href="#STIXGeneral-Regular-2d" x="94.399979"/>
      <use xlink:href="#STIXGeneral-Regular-33" x="127.699966"/>
     </g>
    </g>
    <g id="line2d_28">
     <path d="M 440.121562 85.10875 
L 454.121562 85.10875 
L 468.121562 85.10875 
" style="fill: none; stroke: #2ca02c; stroke-width: 1.5; stroke-linecap: square"/>
    </g>
    <g id="text_17">
     <!-- 5e-4 -->
     <g transform="translate(479.321562 90.00875)scale(0.14 -0.14)">
      <defs>
       <path id="STIXGeneral-Regular-34" d="M 3027 1069 
L 2368 1069 
L 2368 0 
L 1869 0 
L 1869 1069 
L 77 1069 
L 77 1478 
L 2086 4326 
L 2368 4326 
L 2368 1478 
L 3027 1478 
L 3027 1069 
z
M 1869 1478 
L 1869 3674 
L 333 1478 
L 1869 1478 
z
" transform="scale(0.015625)"/>
      </defs>
      <use xlink:href="#STIXGeneral-Regular-35"/>
      <use xlink:href="#STIXGeneral-Regular-65" x="49.999985"/>
      <use xlink:href="#STIXGeneral-Regular-2d" x="94.399979"/>
      <use xlink:href="#STIXGeneral-Regular-34" x="127.699966"/>
     </g>
    </g>
   </g>
  </g>
 </g>
 <defs>
  <clipPath id="p457e417f41">
   <rect x="70.4" y="27.931875" width="446.4" height="277.2"/>
  </clipPath>
 </defs>
</svg>
