<?xml version="1.0" encoding="utf-8" standalone="no"?>
<!DOCTYPE svg PUBLIC "-//W3C//DTD SVG 1.1//EN"
  "http://www.w3.org/Graphics/SVG/1.1/DTD/svg11.dtd">
<svg xmlns:xlink="http://www.w3.org/1999/xlink" width="524pt" height="355.731875pt" viewBox="0 0 524 355.731875" xmlns="http://www.w3.org/2000/svg" version="1.1">
 <metadata>
  <rdf:RDF xmlns:dc="http://purl.org/dc/elements/1.1/" xmlns:cc="http://creativecommons.org/ns#" xmlns:rdf="http://www.w3.org/1999/02/22-rdf-syntax-ns#">
   <cc:Work>
    <dc:type rdf:resource="http://purl.org/dc/dcmitype/StillImage"/>
    <dc:date>2021-11-25T20:49:52.991751</dc:date>
    <dc:format>image/svg+xml</dc:format>
    <dc:creator>
     <cc:Agent>
      <dc:title>Matplotlib v3.5.0, https://matplotlib.org/</dc:title>
     </cc:Agent>
    </dc:creator>
   </cc:Work>
  </rdf:RDF>
 </metadata>
 <defs>
  <style type="text/css">*{stroke-linejoin: round; stroke-linecap: butt}</style>
 </defs>
 <g id="figure_1">
  <g id="patch_1">
   <path d="M 0 355.731875 
L 524 355.731875 
L 524 0 
L 0 0 
z
" style="fill: #ffffff"/>
  </g>
  <g id="axes_1">
   <g id="patch_2">
    <path d="M 70.4 305.131875 
L 516.8 305.131875 
L 516.8 27.931875 
L 70.4 27.931875 
z
" style="fill: #ffffff"/>
   </g>
   <g id="matplotlib.axis_1">
    <g id="xtick_1">
     <g id="line2d_1">
      <path d="M 90.690909 305.131875 
L 90.690909 27.931875 
" clip-path="url(#pc92815b72f)" style="fill: none; stroke: #b0b0b0; stroke-width: 0.8; stroke-linecap: square"/>
     </g>
     <g id="line2d_2">
      <defs>
       <path id="m435e5ff3c0" d="M 0 0 
L 0 3.5 
" style="stroke: #000000; stroke-width: 0.8"/>
      </defs>
      <g>
       <use xlink:href="#m435e5ff3c0" x="90.690909" y="305.131875" style="stroke: #000000; stroke-width: 0.8"/>
      </g>
     </g>
     <g id="text_1">
      <!-- 0 -->
      <g transform="translate(86.190909 324.425313)scale(0.18 -0.18)">
       <defs>
        <path id="STIXGeneral-Regular-30" d="M 3046 2112 
Q 3046 1683 2963 1302 
Q 2880 922 2717 602 
Q 2554 282 2266 96 
Q 1978 -90 1600 -90 
Q 1210 -90 915 108 
Q 621 307 461 640 
Q 301 973 227 1350 
Q 154 1728 154 2150 
Q 154 2746 301 3222 
Q 448 3699 790 4012 
Q 1133 4326 1626 4326 
Q 2253 4326 2649 3712 
Q 3046 3098 3046 2112 
z
M 2432 2080 
Q 2432 3091 2217 3625 
Q 2003 4160 1587 4160 
Q 1190 4160 979 3622 
Q 768 3085 768 2106 
Q 768 1120 979 598 
Q 1190 77 1600 77 
Q 2003 77 2217 598 
Q 2432 1120 2432 2080 
z
" transform="scale(0.015625)"/>
       </defs>
       <use xlink:href="#STIXGeneral-Regular-30"/>
      </g>
     </g>
    </g>
    <g id="xtick_2">
     <g id="line2d_3">
      <path d="M 158.553481 305.131875 
L 158.553481 27.931875 
" clip-path="url(#pc92815b72f)" style="fill: none; stroke: #b0b0b0; stroke-width: 0.8; stroke-linecap: square"/>
     </g>
     <g id="line2d_4">
      <g>
       <use xlink:href="#m435e5ff3c0" x="158.553481" y="305.131875" style="stroke: #000000; stroke-width: 0.8"/>
      </g>
     </g>
     <g id="text_2">
      <!-- 50 -->
      <g transform="translate(149.553481 324.425313)scale(0.18 -0.18)">
       <defs>
        <path id="STIXGeneral-Regular-35" d="M 2803 4358 
L 2573 3814 
Q 2534 3731 2400 3731 
L 1158 3731 
L 902 3187 
Q 1606 3053 1920 2896 
Q 2234 2739 2502 2368 
Q 2726 2061 2726 1555 
Q 2726 1094 2576 780 
Q 2426 467 2099 224 
Q 1664 -90 1011 -90 
Q 646 -90 422 19 
Q 198 128 198 307 
Q 198 550 486 550 
Q 717 550 960 352 
Q 1210 147 1414 147 
Q 1747 147 2012 480 
Q 2278 813 2278 1229 
Q 2278 1843 1850 2189 
Q 1293 2637 486 2637 
Q 410 2637 410 2688 
L 416 2720 
L 1114 4237 
L 2438 4237 
Q 2547 4237 2608 4269 
Q 2669 4301 2746 4403 
L 2803 4358 
z
" transform="scale(0.015625)"/>
       </defs>
       <use xlink:href="#STIXGeneral-Regular-35"/>
       <use xlink:href="#STIXGeneral-Regular-30" x="49.999985"/>
      </g>
     </g>
    </g>
    <g id="xtick_3">
     <g id="line2d_5">
      <path d="M 226.416054 305.131875 
L 226.416054 27.931875 
" clip-path="url(#pc92815b72f)" style="fill: none; stroke: #b0b0b0; stroke-width: 0.8; stroke-linecap: square"/>
     </g>
     <g id="line2d_6">
      <g>
       <use xlink:href="#m435e5ff3c0" x="226.416054" y="305.131875" style="stroke: #000000; stroke-width: 0.8"/>
      </g>
     </g>
     <g id="text_3">
      <!-- 100 -->
      <g transform="translate(212.916054 324.425313)scale(0.18 -0.18)">
       <defs>
        <path id="STIXGeneral-Regular-31" d="M 2522 0 
L 755 0 
L 755 96 
Q 1107 115 1235 227 
Q 1363 339 1363 608 
L 1363 3482 
Q 1363 3795 1171 3795 
Q 1082 3795 883 3718 
L 710 3654 
L 710 3744 
L 1856 4326 
L 1914 4307 
L 1914 486 
Q 1914 275 2042 185 
Q 2170 96 2522 96 
L 2522 0 
z
" transform="scale(0.015625)"/>
       </defs>
       <use xlink:href="#STIXGeneral-Regular-31"/>
       <use xlink:href="#STIXGeneral-Regular-30" x="49.999985"/>
       <use xlink:href="#STIXGeneral-Regular-30" x="99.999969"/>
      </g>
     </g>
    </g>
    <g id="xtick_4">
     <g id="line2d_7">
      <path d="M 294.278626 305.131875 
L 294.278626 27.931875 
" clip-path="url(#pc92815b72f)" style="fill: none; stroke: #b0b0b0; stroke-width: 0.8; stroke-linecap: square"/>
     </g>
     <g id="line2d_8">
      <g>
       <use xlink:href="#m435e5ff3c0" x="294.278626" y="305.131875" style="stroke: #000000; stroke-width: 0.8"/>
      </g>
     </g>
     <g id="text_4">
      <!-- 150 -->
      <g transform="translate(280.778626 324.425313)scale(0.18 -0.18)">
       <use xlink:href="#STIXGeneral-Regular-31"/>
       <use xlink:href="#STIXGeneral-Regular-35" x="49.999985"/>
       <use xlink:href="#STIXGeneral-Regular-30" x="99.999969"/>
      </g>
     </g>
    </g>
    <g id="xtick_5">
     <g id="line2d_9">
      <path d="M 362.141198 305.131875 
L 362.141198 27.931875 
" clip-path="url(#pc92815b72f)" style="fill: none; stroke: #b0b0b0; stroke-width: 0.8; stroke-linecap: square"/>
     </g>
     <g id="line2d_10">
      <g>
       <use xlink:href="#m435e5ff3c0" x="362.141198" y="305.131875" style="stroke: #000000; stroke-width: 0.8"/>
      </g>
     </g>
     <g id="text_5">
      <!-- 200 -->
      <g transform="translate(348.641198 324.425313)scale(0.18 -0.18)">
       <defs>
        <path id="STIXGeneral-Regular-32" d="M 3034 877 
L 2688 0 
L 186 0 
L 186 77 
L 1325 1286 
Q 1773 1754 1965 2144 
Q 2157 2534 2157 2950 
Q 2157 3379 1920 3616 
Q 1683 3853 1267 3853 
Q 922 3853 720 3673 
Q 518 3494 326 3021 
L 192 3053 
Q 301 3648 630 3987 
Q 960 4326 1523 4326 
Q 2054 4326 2380 4006 
Q 2707 3686 2707 3200 
Q 2707 2477 1888 1613 
L 832 486 
L 2330 486 
Q 2541 486 2665 569 
Q 2790 653 2944 915 
L 3034 877 
z
" transform="scale(0.015625)"/>
       </defs>
       <use xlink:href="#STIXGeneral-Regular-32"/>
       <use xlink:href="#STIXGeneral-Regular-30" x="49.999985"/>
       <use xlink:href="#STIXGeneral-Regular-30" x="99.999969"/>
      </g>
     </g>
    </g>
    <g id="xtick_6">
     <g id="line2d_11">
      <path d="M 430.00377 305.131875 
L 430.00377 27.931875 
" clip-path="url(#pc92815b72f)" style="fill: none; stroke: #b0b0b0; stroke-width: 0.8; stroke-linecap: square"/>
     </g>
     <g id="line2d_12">
      <g>
       <use xlink:href="#m435e5ff3c0" x="430.00377" y="305.131875" style="stroke: #000000; stroke-width: 0.8"/>
      </g>
     </g>
     <g id="text_6">
      <!-- 250 -->
      <g transform="translate(416.50377 324.425313)scale(0.18 -0.18)">
       <use xlink:href="#STIXGeneral-Regular-32"/>
       <use xlink:href="#STIXGeneral-Regular-35" x="49.999985"/>
       <use xlink:href="#STIXGeneral-Regular-30" x="99.999969"/>
      </g>
     </g>
    </g>
    <g id="xtick_7">
     <g id="line2d_13">
      <path d="M 497.866342 305.131875 
L 497.866342 27.931875 
" clip-path="url(#pc92815b72f)" style="fill: none; stroke: #b0b0b0; stroke-width: 0.8; stroke-linecap: square"/>
     </g>
     <g id="line2d_14">
      <g>
       <use xlink:href="#m435e5ff3c0" x="497.866342" y="305.131875" style="stroke: #000000; stroke-width: 0.8"/>
      </g>
     </g>
     <g id="text_7">
      <!-- 300 -->
      <g transform="translate(484.366342 324.425313)scale(0.18 -0.18)">
       <defs>
        <path id="STIXGeneral-Regular-33" d="M 390 3264 
L 288 3290 
Q 435 3770 748 4048 
Q 1062 4326 1542 4326 
Q 1990 4326 2265 4083 
Q 2541 3840 2541 3450 
Q 2541 2925 1946 2566 
Q 2298 2413 2477 2227 
Q 2758 1914 2758 1402 
Q 2758 890 2464 506 
Q 2246 211 1840 60 
Q 1434 -90 979 -90 
Q 262 -90 262 275 
Q 262 378 339 442 
Q 416 506 525 506 
Q 685 506 915 339 
Q 1197 141 1466 141 
Q 1818 141 2058 425 
Q 2298 710 2298 1120 
Q 2298 1856 1632 2048 
Q 1434 2112 979 2112 
L 979 2202 
Q 1338 2323 1517 2432 
Q 2035 2726 2035 3290 
Q 2035 3610 1852 3776 
Q 1670 3942 1344 3942 
Q 768 3942 390 3264 
z
" transform="scale(0.015625)"/>
       </defs>
       <use xlink:href="#STIXGeneral-Regular-33"/>
       <use xlink:href="#STIXGeneral-Regular-30" x="49.999985"/>
       <use xlink:href="#STIXGeneral-Regular-30" x="99.999969"/>
      </g>
     </g>
    </g>
    <g id="text_8">
     <!-- Epoch -->
     <g transform="translate(270.605 344.625313)scale(0.18 -0.18)">
      <defs>
       <path id="STIXGeneral-Regular-45" d="M 3821 1082 
L 3526 0 
L 77 0 
L 77 122 
Q 442 147 538 252 
Q 634 358 634 730 
L 634 3520 
Q 634 3878 534 3987 
Q 435 4096 77 4115 
L 77 4237 
L 3469 4237 
L 3494 3322 
L 3334 3322 
Q 3264 3750 3085 3872 
Q 2906 3994 2349 3994 
L 1510 3994 
Q 1370 3994 1328 3952 
Q 1286 3910 1286 3763 
L 1286 2355 
L 2253 2355 
Q 2656 2355 2787 2470 
Q 2918 2586 2976 2970 
L 3123 2970 
L 3123 1472 
L 2976 1472 
Q 2918 1875 2790 1984 
Q 2662 2093 2253 2093 
L 1286 2093 
L 1286 538 
Q 1286 346 1420 291 
Q 1555 237 1933 237 
L 2163 237 
Q 2848 237 3136 403 
Q 3424 570 3642 1082 
L 3821 1082 
z
" transform="scale(0.015625)"/>
       <path id="STIXGeneral-Regular-70" d="M 1018 2931 
L 1018 2438 
Q 1421 2944 1939 2944 
Q 2406 2944 2707 2560 
Q 3008 2176 3008 1581 
Q 3008 883 2621 409 
Q 2234 -64 1664 -64 
Q 1466 -64 1328 -6 
Q 1190 51 1018 211 
L 1018 -794 
Q 1018 -1094 1120 -1180 
Q 1222 -1267 1581 -1274 
L 1581 -1389 
L 32 -1389 
L 32 -1280 
Q 314 -1254 397 -1171 
Q 480 -1088 480 -838 
L 480 2157 
Q 480 2381 429 2451 
Q 378 2522 218 2522 
Q 115 2522 58 2515 
L 58 2618 
Q 506 2752 979 2944 
L 1018 2931 
z
M 1018 2138 
L 1018 563 
Q 1018 422 1238 281 
Q 1459 141 1683 141 
Q 2029 141 2243 467 
Q 2458 794 2458 1325 
Q 2458 1888 2243 2224 
Q 2029 2560 1670 2560 
Q 1446 2560 1232 2419 
Q 1018 2278 1018 2138 
z
" transform="scale(0.015625)"/>
       <path id="STIXGeneral-Regular-6f" d="M 3008 1478 
Q 3008 806 2608 371 
Q 2208 -64 1568 -64 
Q 979 -64 582 368 
Q 186 800 186 1459 
Q 186 2125 582 2534 
Q 979 2944 1626 2944 
Q 2221 2944 2614 2537 
Q 3008 2131 3008 1478 
z
M 2432 1306 
Q 2432 2035 2112 2445 
Q 1856 2765 1504 2765 
Q 1171 2765 966 2493 
Q 762 2221 762 1747 
Q 762 928 1101 435 
Q 1318 115 1677 115 
Q 2029 115 2230 432 
Q 2432 749 2432 1306 
z
" transform="scale(0.015625)"/>
       <path id="STIXGeneral-Regular-63" d="M 2547 998 
L 2637 941 
Q 2362 403 2112 205 
Q 1786 -64 1376 -64 
Q 845 -64 502 336 
Q 160 736 160 1357 
Q 160 2170 698 2618 
Q 1094 2944 1562 2944 
Q 1965 2944 2256 2749 
Q 2547 2554 2547 2285 
Q 2547 2176 2457 2096 
Q 2368 2016 2246 2016 
Q 2022 2016 1939 2310 
L 1901 2451 
Q 1850 2630 1773 2694 
Q 1696 2758 1523 2758 
Q 1133 2758 893 2451 
Q 653 2144 653 1645 
Q 653 1094 928 745 
Q 1203 397 1645 397 
Q 1920 397 2118 528 
Q 2317 659 2547 998 
z
" transform="scale(0.015625)"/>
       <path id="STIXGeneral-Regular-68" d="M 3117 0 
L 1760 0 
L 1760 96 
Q 2042 128 2118 224 
Q 2195 320 2195 653 
L 2195 1920 
Q 2195 2598 1722 2598 
Q 1530 2598 1370 2508 
Q 1210 2419 1005 2195 
L 1005 653 
Q 1005 320 1081 224 
Q 1158 128 1440 96 
L 1440 0 
L 58 0 
L 58 96 
Q 333 134 400 224 
Q 467 314 467 653 
L 467 3667 
Q 467 3872 406 3933 
Q 346 3994 141 3994 
Q 83 3994 64 3987 
L 64 4090 
L 237 4141 
Q 730 4288 973 4371 
L 1005 4352 
L 1005 2406 
Q 1229 2694 1446 2819 
Q 1664 2944 1946 2944 
Q 2733 2944 2733 1926 
L 2733 653 
Q 2733 320 2793 233 
Q 2854 147 3117 96 
L 3117 0 
z
" transform="scale(0.015625)"/>
      </defs>
      <use xlink:href="#STIXGeneral-Regular-45"/>
      <use xlink:href="#STIXGeneral-Regular-70" x="61.099991"/>
      <use xlink:href="#STIXGeneral-Regular-6f" x="111.099976"/>
      <use xlink:href="#STIXGeneral-Regular-63" x="161.09996"/>
      <use xlink:href="#STIXGeneral-Regular-68" x="205.499954"/>
     </g>
    </g>
   </g>
   <g id="matplotlib.axis_2">
    <g id="ytick_1">
     <g id="line2d_15">
      <path d="M 70.4 246.670601 
L 516.8 246.670601 
" clip-path="url(#pc92815b72f)" style="fill: none; stroke: #b0b0b0; stroke-width: 0.8; stroke-linecap: square"/>
     </g>
     <g id="line2d_16">
      <defs>
       <path id="m442e291e2f" d="M 0 0 
L -3.5 0 
" style="stroke: #000000; stroke-width: 0.8"/>
      </defs>
      <g>
       <use xlink:href="#m442e291e2f" x="70.4" y="246.670601" style="stroke: #000000; stroke-width: 0.8"/>
      </g>
     </g>
     <g id="text_9">
      <!-- 500 -->
      <g transform="translate(36.4 252.817319)scale(0.18 -0.18)">
       <use xlink:href="#STIXGeneral-Regular-35"/>
       <use xlink:href="#STIXGeneral-Regular-30" x="49.999985"/>
       <use xlink:href="#STIXGeneral-Regular-30" x="99.999969"/>
      </g>
     </g>
    </g>
    <g id="ytick_2">
     <g id="line2d_17">
      <path d="M 70.4 184.341753 
L 516.8 184.341753 
" clip-path="url(#pc92815b72f)" style="fill: none; stroke: #b0b0b0; stroke-width: 0.8; stroke-linecap: square"/>
     </g>
     <g id="line2d_18">
      <g>
       <use xlink:href="#m442e291e2f" x="70.4" y="184.341753" style="stroke: #000000; stroke-width: 0.8"/>
      </g>
     </g>
     <g id="text_10">
      <!-- 1000 -->
      <g transform="translate(27.4 190.488471)scale(0.18 -0.18)">
       <use xlink:href="#STIXGeneral-Regular-31"/>
       <use xlink:href="#STIXGeneral-Regular-30" x="49.999985"/>
       <use xlink:href="#STIXGeneral-Regular-30" x="99.999969"/>
       <use xlink:href="#STIXGeneral-Regular-30" x="149.999954"/>
      </g>
     </g>
    </g>
    <g id="ytick_3">
     <g id="line2d_19">
      <path d="M 70.4 122.012905 
L 516.8 122.012905 
" clip-path="url(#pc92815b72f)" style="fill: none; stroke: #b0b0b0; stroke-width: 0.8; stroke-linecap: square"/>
     </g>
     <g id="line2d_20">
      <g>
       <use xlink:href="#m442e291e2f" x="70.4" y="122.012905" style="stroke: #000000; stroke-width: 0.8"/>
      </g>
     </g>
     <g id="text_11">
      <!-- 1500 -->
      <g transform="translate(27.4 128.159624)scale(0.18 -0.18)">
       <use xlink:href="#STIXGeneral-Regular-31"/>
       <use xlink:href="#STIXGeneral-Regular-35" x="49.999985"/>
       <use xlink:href="#STIXGeneral-Regular-30" x="99.999969"/>
       <use xlink:href="#STIXGeneral-Regular-30" x="149.999954"/>
      </g>
     </g>
    </g>
    <g id="ytick_4">
     <g id="line2d_21">
      <path d="M 70.4 59.684057 
L 516.8 59.684057 
" clip-path="url(#pc92815b72f)" style="fill: none; stroke: #b0b0b0; stroke-width: 0.8; stroke-linecap: square"/>
     </g>
     <g id="line2d_22">
      <g>
       <use xlink:href="#m442e291e2f" x="70.4" y="59.684057" style="stroke: #000000; stroke-width: 0.8"/>
      </g>
     </g>
     <g id="text_12">
      <!-- 2000 -->
      <g transform="translate(27.4 65.830776)scale(0.18 -0.18)">
       <use xlink:href="#STIXGeneral-Regular-32"/>
       <use xlink:href="#STIXGeneral-Regular-30" x="49.999985"/>
       <use xlink:href="#STIXGeneral-Regular-30" x="99.999969"/>
       <use xlink:href="#STIXGeneral-Regular-30" x="149.999954"/>
      </g>
     </g>
    </g>
    <g id="text_13">
     <!-- Average Return -->
     <g transform="translate(19.476562 223.764844)rotate(-90)scale(0.18 -0.18)">
      <defs>
       <path id="STIXGeneral-Regular-41" d="M 4525 0 
L 2893 0 
L 2893 122 
Q 3149 122 3245 179 
Q 3334 224 3334 333 
Q 3334 499 3213 781 
L 2950 1382 
L 1274 1382 
L 979 653 
Q 922 506 922 384 
Q 922 237 1027 179 
Q 1133 122 1370 122 
L 1370 0 
L 96 0 
L 96 122 
Q 365 147 486 316 
Q 608 486 902 1190 
L 2221 4314 
L 2349 4314 
L 3923 710 
Q 4064 378 4176 262 
Q 4288 147 4525 122 
L 4525 0 
z
M 2861 1645 
L 2118 3405 
L 1382 1645 
L 2861 1645 
z
" transform="scale(0.015625)"/>
       <path id="STIXGeneral-Regular-76" d="M 3053 2880 
L 3053 2784 
Q 2906 2771 2835 2688 
Q 2765 2605 2637 2285 
L 1818 230 
Q 1690 -90 1638 -90 
Q 1587 -90 1523 77 
Q 1510 96 1497 141 
Q 1485 186 1472 211 
L 704 2048 
Q 499 2534 403 2652 
Q 307 2771 122 2784 
L 122 2880 
L 1376 2880 
L 1376 2784 
Q 1210 2771 1146 2732 
Q 1082 2694 1082 2611 
Q 1082 2509 1139 2368 
L 1792 730 
L 2426 2387 
Q 2464 2483 2464 2579 
Q 2464 2758 2163 2784 
L 2163 2880 
L 3053 2880 
z
" transform="scale(0.015625)"/>
       <path id="STIXGeneral-Regular-65" d="M 2611 1050 
L 2714 1005 
Q 2330 -64 1376 -64 
Q 813 -64 486 329 
Q 160 723 160 1389 
Q 160 2074 525 2509 
Q 890 2944 1485 2944 
Q 2061 2944 2374 2502 
Q 2560 2246 2592 1773 
L 621 1773 
Q 646 1370 700 1158 
Q 755 947 915 730 
Q 1184 378 1626 378 
Q 1939 378 2153 531 
Q 2368 685 2611 1050 
z
M 634 1978 
L 1939 1978 
Q 1882 2381 1750 2547 
Q 1619 2714 1312 2714 
Q 1043 2714 864 2525 
Q 685 2336 634 1978 
z
" transform="scale(0.015625)"/>
       <path id="STIXGeneral-Regular-72" d="M 1024 2931 
L 1024 2342 
Q 1267 2688 1430 2816 
Q 1594 2944 1792 2944 
Q 1958 2944 2051 2854 
Q 2144 2765 2144 2605 
Q 2144 2470 2077 2393 
Q 2010 2317 1894 2317 
Q 1773 2317 1638 2445 
Q 1536 2541 1472 2541 
Q 1338 2541 1181 2355 
Q 1024 2170 1024 2016 
L 1024 576 
Q 1024 301 1133 205 
Q 1242 109 1568 96 
L 1568 0 
L 32 0 
L 32 96 
Q 339 154 412 224 
Q 486 294 486 538 
L 486 2138 
Q 486 2349 438 2435 
Q 390 2522 269 2522 
Q 166 2522 45 2496 
L 45 2598 
Q 448 2726 992 2944 
L 1024 2931 
z
" transform="scale(0.015625)"/>
       <path id="STIXGeneral-Regular-61" d="M 2829 422 
L 2829 243 
Q 2586 -64 2253 -64 
Q 1888 -64 1843 403 
L 1837 403 
Q 1427 -64 909 -64 
Q 608 -64 422 112 
Q 237 288 237 602 
Q 237 1050 685 1350 
Q 992 1555 1837 1869 
L 1837 2214 
Q 1837 2502 1699 2646 
Q 1562 2790 1338 2790 
Q 1146 2790 1018 2697 
Q 890 2605 890 2477 
Q 890 2419 909 2348 
Q 928 2278 928 2208 
Q 928 2112 841 2029 
Q 755 1946 634 1946 
Q 525 1946 441 2029 
Q 358 2112 358 2240 
Q 358 2547 685 2752 
Q 986 2944 1421 2944 
Q 1939 2944 2176 2656 
Q 2291 2522 2323 2384 
Q 2355 2246 2355 1946 
L 2355 723 
Q 2355 301 2554 301 
Q 2682 301 2829 422 
z
M 1837 813 
L 1837 1715 
Q 1248 1510 1018 1293 
Q 800 1094 800 800 
Q 800 557 921 432 
Q 1043 307 1242 307 
Q 1453 307 1613 410 
Q 1747 506 1792 589 
Q 1837 672 1837 813 
z
" transform="scale(0.015625)"/>
       <path id="STIXGeneral-Regular-67" d="M 3008 2483 
L 2477 2483 
Q 2598 2208 2598 1946 
Q 2598 1453 2265 1203 
Q 1933 954 1600 954 
Q 1530 954 1357 973 
L 1235 986 
Q 1107 947 979 812 
Q 851 678 851 582 
Q 851 435 1350 410 
L 2176 371 
Q 2528 358 2739 172 
Q 2950 -13 2950 -314 
Q 2950 -685 2566 -986 
Q 2035 -1395 1286 -1395 
Q 826 -1395 502 -1212 
Q 179 -1030 179 -774 
Q 179 -595 320 -419 
Q 461 -243 806 6 
Q 602 102 534 172 
Q 467 243 467 346 
Q 467 531 762 787 
Q 909 915 1037 1043 
Q 717 1203 579 1401 
Q 442 1600 442 1901 
Q 442 2336 752 2640 
Q 1062 2944 1510 2944 
Q 1766 2944 2022 2848 
L 2163 2797 
Q 2349 2733 2515 2733 
L 3008 2733 
L 3008 2483 
z
M 973 2163 
L 973 2144 
Q 973 1683 1155 1398 
Q 1338 1114 1632 1114 
Q 1850 1114 1978 1270 
Q 2106 1427 2106 1690 
Q 2106 2112 1914 2464 
Q 1754 2765 1446 2765 
Q 1222 2765 1097 2605 
Q 973 2445 973 2163 
z
M 2771 -410 
Q 2771 -230 2595 -163 
Q 2419 -96 1978 -96 
Q 1344 -96 941 -13 
Q 749 -243 688 -348 
Q 627 -454 627 -563 
Q 627 -774 880 -902 
Q 1133 -1030 1555 -1030 
Q 2099 -1030 2435 -860 
Q 2771 -691 2771 -410 
z
" transform="scale(0.015625)"/>
       <path id="STIXGeneral-Regular-20" transform="scale(0.015625)"/>
       <path id="STIXGeneral-Regular-52" d="M 4224 0 
L 3187 0 
L 1664 1971 
L 1306 1958 
L 1306 717 
Q 1306 352 1405 249 
Q 1504 147 1875 122 
L 1875 0 
L 109 0 
L 109 122 
Q 474 154 563 262 
Q 653 371 653 794 
L 653 3526 
Q 653 3885 563 3987 
Q 474 4090 109 4115 
L 109 4237 
L 1850 4237 
Q 2726 4237 3187 3859 
Q 3501 3603 3501 3091 
Q 3501 2221 2342 2042 
L 3622 422 
Q 3757 256 3878 198 
Q 4000 141 4224 122 
L 4224 0 
z
M 1306 3731 
L 1306 2195 
Q 1766 2202 1990 2246 
Q 2214 2291 2438 2413 
Q 2803 2618 2803 3142 
Q 2803 4000 1632 4000 
Q 1459 4000 1382 3945 
Q 1306 3891 1306 3731 
z
" transform="scale(0.015625)"/>
       <path id="STIXGeneral-Regular-74" d="M 1702 493 
L 1786 422 
Q 1478 -64 1011 -64 
Q 448 -64 448 749 
L 448 2675 
L 109 2675 
Q 83 2694 83 2720 
Q 83 2771 192 2842 
Q 435 2982 813 3526 
Q 826 3546 874 3606 
Q 922 3667 941 3706 
Q 986 3706 986 3622 
L 986 2880 
L 1632 2880 
L 1632 2675 
L 986 2675 
L 986 845 
Q 986 538 1062 403 
Q 1139 269 1318 269 
Q 1510 269 1702 493 
z
" transform="scale(0.015625)"/>
       <path id="STIXGeneral-Regular-75" d="M 3072 320 
L 3072 230 
Q 2573 96 2195 -58 
L 2163 -38 
L 2163 486 
L 2150 486 
Q 1747 -64 1235 -64 
Q 870 -64 662 160 
Q 454 384 454 755 
L 454 2362 
Q 454 2598 371 2688 
Q 288 2778 58 2790 
L 58 2880 
L 992 2880 
L 992 813 
Q 992 595 1123 451 
Q 1254 307 1446 307 
Q 1760 307 1984 506 
Q 2067 582 2099 649 
Q 2131 717 2131 877 
L 2131 2355 
Q 2131 2605 2041 2678 
Q 1952 2752 1658 2771 
L 1658 2880 
L 2669 2880 
L 2669 685 
Q 2669 461 2742 390 
Q 2816 320 3034 320 
L 3072 320 
z
" transform="scale(0.015625)"/>
       <path id="STIXGeneral-Regular-6e" d="M 3104 0 
L 1773 0 
L 1779 96 
Q 2016 115 2096 233 
Q 2176 352 2176 672 
L 2176 1946 
Q 2176 2592 1709 2592 
Q 1549 2592 1408 2515 
Q 1267 2438 1050 2227 
L 1050 461 
Q 1050 269 1136 192 
Q 1222 115 1466 96 
L 1466 0 
L 115 0 
L 115 96 
Q 358 115 435 214 
Q 512 314 512 602 
L 512 2157 
Q 512 2394 467 2483 
Q 422 2573 288 2573 
Q 160 2573 102 2547 
L 102 2656 
Q 550 2784 979 2944 
L 1030 2925 
L 1030 2426 
L 1037 2426 
Q 1491 2944 1958 2944 
Q 2323 2944 2518 2688 
Q 2714 2432 2714 1958 
L 2714 544 
Q 2714 288 2790 205 
Q 2867 122 3104 96 
L 3104 0 
z
" transform="scale(0.015625)"/>
      </defs>
      <use xlink:href="#STIXGeneral-Regular-41"/>
      <use xlink:href="#STIXGeneral-Regular-76" x="72.199982"/>
      <use xlink:href="#STIXGeneral-Regular-65" x="122.199966"/>
      <use xlink:href="#STIXGeneral-Regular-72" x="166.59996"/>
      <use xlink:href="#STIXGeneral-Regular-61" x="199.899948"/>
      <use xlink:href="#STIXGeneral-Regular-67" x="244.299942"/>
      <use xlink:href="#STIXGeneral-Regular-65" x="294.299927"/>
      <use xlink:href="#STIXGeneral-Regular-20" x="338.699921"/>
      <use xlink:href="#STIXGeneral-Regular-52" x="363.699905"/>
      <use xlink:href="#STIXGeneral-Regular-65" x="430.399902"/>
      <use xlink:href="#STIXGeneral-Regular-74" x="474.799896"/>
      <use xlink:href="#STIXGeneral-Regular-75" x="502.599884"/>
      <use xlink:href="#STIXGeneral-Regular-72" x="552.599869"/>
      <use xlink:href="#STIXGeneral-Regular-6e" x="585.899857"/>
     </g>
    </g>
   </g>
   <g id="line2d_23">
    <path d="M 90.690909 277.337877 
L 92.048161 281.04624 
L 93.405412 281.161985 
L 94.762663 267.810553 
L 96.119915 276.776982 
L 97.477166 269.899551 
L 98.834418 278.258441 
L 100.191669 277.751297 
L 101.548921 285.711363 
L 102.906172 260.887448 
L 104.263424 281.225529 
L 105.620675 280.766109 
L 106.977926 271.386009 
L 108.335178 284.359031 
L 109.692429 258.438526 
L 111.049681 267.10483 
L 112.406932 272.212946 
L 113.764184 258.710058 
L 115.121435 262.239791 
L 116.478687 244.396153 
L 117.835938 254.472777 
L 119.193189 251.78332 
L 120.550441 263.544729 
L 121.907692 263.78828 
L 123.264944 279.500164 
L 124.622195 267.886901 
L 125.979447 261.733639 
L 127.336698 267.419898 
L 128.69395 269.91527 
L 130.051201 263.44842 
L 131.408452 266.414378 
L 132.765704 264.872762 
L 134.122955 270.721904 
L 135.480207 275.411591 
L 136.837458 203.119551 
L 138.19471 266.758659 
L 139.551961 266.256159 
L 140.909213 260.045974 
L 142.266464 263.242622 
L 143.623715 271.531247 
L 144.980967 284.133487 
L 146.338218 247.941403 
L 147.69547 264.428091 
L 149.052721 263.276342 
L 150.409973 261.849497 
L 151.767224 247.7643 
L 153.124476 256.825398 
L 154.481727 251.31911 
L 155.838978 252.02123 
L 157.19623 277.480843 
L 158.553481 265.268039 
L 159.910733 274.325751 
L 161.267984 276.155356 
L 162.625236 255.251849 
L 163.982487 269.438495 
L 165.339739 232.112128 
L 166.69699 218.843144 
L 169.411493 245.982944 
L 170.768744 174.255999 
L 172.125996 172.614312 
L 173.483247 202.772512 
L 176.19775 227.816687 
L 177.555002 220.089995 
L 178.912253 216.137401 
L 180.269504 253.075373 
L 181.626756 229.794342 
L 182.984007 250.914741 
L 184.341259 168.367566 
L 185.69851 214.312479 
L 187.055762 178.345203 
L 188.413013 160.190405 
L 189.770265 225.905667 
L 191.127516 224.12282 
L 192.484767 224.754029 
L 193.842019 240.893518 
L 195.19927 204.510491 
L 196.556522 233.986155 
L 197.913773 257.517433 
L 199.271025 231.175004 
L 200.628276 223.531099 
L 201.985528 225.48777 
L 203.342779 216.632516 
L 204.70003 155.171258 
L 206.057282 165.550685 
L 207.414533 220.982693 
L 208.771785 217.312397 
L 210.129036 187.225246 
L 211.486288 226.462632 
L 212.843539 198.226888 
L 214.200791 191.154071 
L 215.558042 195.423148 
L 216.915293 148.904759 
L 218.272545 177.921988 
L 219.629796 188.90206 
L 220.987048 130.895679 
L 222.344299 182.824777 
L 223.701551 170.430946 
L 225.058802 183.01149 
L 226.416054 160.875961 
L 227.773305 153.677496 
L 229.130556 159.438076 
L 230.487808 157.656758 
L 231.845059 163.264681 
L 233.202311 146.837849 
L 234.559562 161.638013 
L 235.916814 97.427446 
L 237.274065 132.01282 
L 238.631317 134.533714 
L 239.988568 139.583934 
L 241.345819 155.098232 
L 242.703071 136.405741 
L 244.060322 110.731049 
L 245.417574 160.704465 
L 246.774825 149.569681 
L 248.132077 169.03054 
L 249.489328 125.909538 
L 250.84658 107.570081 
L 252.203831 134.706245 
L 253.561082 153.165231 
L 254.918334 143.0376 
L 256.275585 133.910624 
L 257.632837 165.578609 
L 258.990088 135.053877 
L 260.34734 127.750309 
L 261.704591 132.153181 
L 263.061843 147.912808 
L 264.419094 135.901525 
L 265.776345 145.63426 
L 267.133597 134.409985 
L 268.490848 107.68497 
L 269.8481 153.906193 
L 271.205351 132.493692 
L 272.562603 76.138218 
L 273.919854 138.262002 
L 275.277106 141.656429 
L 276.634357 138.800684 
L 277.991608 159.135836 
L 279.34886 130.118059 
L 280.706111 159.441119 
L 282.063363 133.748882 
L 283.420614 154.061376 
L 284.777866 148.932196 
L 286.135117 154.243615 
L 287.492369 153.377965 
L 288.84962 103.057996 
L 290.206871 150.878861 
L 291.564123 137.578454 
L 292.921374 129.59741 
L 294.278626 148.811464 
L 295.635877 154.973681 
L 296.993129 148.585096 
L 298.35038 166.330253 
L 299.707631 145.867232 
L 301.064883 138.057988 
L 302.422134 144.510956 
L 303.779386 144.008932 
L 305.136637 157.114378 
L 306.493889 112.46352 
L 307.85114 143.851694 
L 309.208392 180.996355 
L 310.565643 156.288278 
L 311.922894 144.352775 
L 313.280146 143.853262 
L 314.637397 155.858747 
L 315.994649 160.116709 
L 317.3519 159.319368 
L 318.709152 164.780462 
L 320.066403 150.584945 
L 321.423655 166.950543 
L 322.780906 93.118447 
L 324.138157 135.236709 
L 325.495409 159.178337 
L 326.85266 155.58828 
L 328.209912 151.331506 
L 329.567163 151.798607 
L 330.924415 138.563557 
L 332.281666 145.494644 
L 333.638918 139.134743 
L 334.996169 165.525912 
L 336.35342 154.893442 
L 337.710672 152.040862 
L 339.067923 172.16818 
L 340.425175 159.820129 
L 341.782426 127.879212 
L 343.139678 142.02856 
L 344.496929 138.528634 
L 345.854181 167.096185 
L 347.211432 159.346287 
L 348.568683 165.104964 
L 349.925935 168.476352 
L 351.283186 181.619514 
L 352.640438 162.567285 
L 353.997689 204.577051 
L 355.354941 131.677041 
L 356.712192 168.499284 
L 358.069444 176.472553 
L 359.426695 162.848328 
L 360.783946 143.534313 
L 362.141198 158.192336 
L 363.498449 140.020875 
L 364.855701 149.374569 
L 366.212952 175.544742 
L 367.570204 119.884655 
L 368.927455 169.19913 
L 370.284707 171.249179 
L 371.641958 159.447906 
L 372.999209 178.959133 
L 374.356461 145.251613 
L 375.713712 146.216523 
L 377.070964 165.675161 
L 378.428215 171.552835 
L 379.785467 158.999659 
L 381.142718 158.934363 
L 382.49997 175.181573 
L 383.857221 127.729431 
L 385.214472 184.185451 
L 386.571724 176.96356 
L 387.928975 174.809502 
L 389.286227 159.765515 
L 390.643478 157.145391 
L 392.00073 180.692959 
L 393.357981 135.746783 
L 394.715233 138.65279 
L 396.072484 165.829902 
L 397.429735 179.825133 
L 398.786987 121.436028 
L 400.144238 176.031306 
L 401.50149 154.360588 
L 402.858741 167.336188 
L 404.215993 202.318162 
L 405.573244 178.977728 
L 406.930496 203.614309 
L 408.287747 157.793985 
L 409.644998 154.531459 
L 411.00225 180.198086 
L 412.359501 185.859976 
L 413.716753 176.514689 
L 415.074004 110.762654 
L 416.431256 180.532084 
L 417.788507 178.508664 
L 419.145759 216.617467 
L 420.50301 167.508018 
L 421.860261 203.73711 
L 423.217513 156.394188 
L 424.574764 151.980359 
L 425.932016 129.814252 
L 427.289267 89.421993 
L 428.646519 135.657064 
L 430.00377 165.648029 
L 431.361022 184.856924 
L 432.718273 180.565866 
L 434.075524 152.36923 
L 435.432776 143.941353 
L 436.790027 149.700198 
L 438.147279 174.63965 
L 439.50453 140.050913 
L 440.861782 151.465203 
L 442.219033 116.729287 
L 443.576285 138.550866 
L 444.933536 168.770923 
L 446.290787 117.243211 
L 447.648039 120.791877 
L 449.00529 144.152565 
L 450.362542 165.144163 
L 451.719793 158.150717 
L 453.077045 106.846954 
L 454.434296 175.300159 
L 455.791548 161.730913 
L 457.148799 186.751434 
L 458.50605 170.418255 
L 459.863302 168.416565 
L 461.220553 163.208226 
L 462.577805 186.376456 
L 463.935056 177.324066 
L 465.292308 152.177587 
L 466.649559 156.28595 
L 468.006811 175.728898 
L 469.364062 161.200357 
L 470.721313 179.684467 
L 472.078565 165.049711 
L 473.435816 156.90971 
L 474.793068 169.676715 
L 476.150319 139.769338 
L 477.507571 89.761332 
L 478.864822 192.999459 
L 480.222074 180.272437 
L 481.579325 182.586677 
L 482.936576 170.70015 
L 484.293828 156.94655 
L 485.651079 177.506031 
L 487.008331 133.16496 
L 488.365582 184.805377 
L 489.722834 166.060881 
L 491.080085 181.613565 
L 492.437337 134.165417 
L 493.794588 146.601864 
L 495.151839 131.781871 
L 496.509091 189.755552 
L 496.509091 189.755552 
" clip-path="url(#pc92815b72f)" style="fill: none; stroke: #1f77b4; stroke-width: 1.5; stroke-linecap: square"/>
   </g>
   <g id="line2d_24">
    <path d="M 90.690909 278.853925 
L 92.048161 285.064256 
L 93.405412 280.804678 
L 94.762663 256.300156 
L 96.119915 287.567373 
L 97.477166 285.497263 
L 98.834418 285.712192 
L 100.191669 277.85995 
L 101.548921 281.42921 
L 102.906172 287.811781 
L 104.263424 272.205581 
L 105.620675 278.414003 
L 106.977926 279.581012 
L 108.335178 276.596604 
L 109.692429 219.783714 
L 111.049681 256.976195 
L 112.406932 271.586538 
L 113.764184 278.617452 
L 115.121435 288.625721 
L 116.478687 274.62666 
L 117.835938 270.904767 
L 119.193189 286.315118 
L 120.550441 272.528357 
L 121.907692 264.162235 
L 123.264944 292.531875 
L 124.622195 270.47047 
L 125.979447 278.755414 
L 127.336698 290.62302 
L 128.69395 286.051174 
L 130.051201 282.88715 
L 131.408452 257.328735 
L 132.765704 291.752072 
L 134.122955 279.075827 
L 135.480207 277.848511 
L 136.837458 270.726842 
L 138.19471 279.681288 
L 139.551961 287.666232 
L 140.909213 244.808009 
L 142.266464 262.902362 
L 143.623715 271.829128 
L 144.980967 232.816234 
L 146.338218 264.536113 
L 147.69547 250.566397 
L 149.052721 283.848627 
L 150.409973 255.358129 
L 151.767224 269.800416 
L 153.124476 268.380685 
L 154.481727 273.920036 
L 155.838978 277.289132 
L 157.19623 281.407016 
L 158.553481 279.431596 
L 159.910733 260.979427 
L 161.267984 279.515277 
L 162.625236 267.981158 
L 163.982487 268.17368 
L 165.339739 263.179155 
L 166.69699 260.000894 
L 168.054241 275.447823 
L 169.411493 225.044225 
L 172.125996 273.180006 
L 173.483247 279.672668 
L 174.840499 269.537504 
L 176.19775 270.188579 
L 177.555002 274.20564 
L 178.912253 279.033112 
L 181.626756 260.784155 
L 182.984007 257.464569 
L 184.341259 277.271292 
L 185.69851 239.05026 
L 187.055762 259.312773 
L 188.413013 285.133978 
L 189.770265 227.565371 
L 191.127516 265.872858 
L 192.484767 236.448822 
L 195.19927 281.803644 
L 196.556522 261.640115 
L 197.913773 274.323686 
L 199.271025 174.474119 
L 200.628276 279.830913 
L 201.985528 262.439285 
L 203.342779 254.950849 
L 204.70003 263.194852 
L 206.057282 284.931914 
L 207.414533 286.173425 
L 208.771785 284.700242 
L 210.129036 277.58429 
L 211.486288 272.6145 
L 212.843539 255.651543 
L 214.200791 279.16027 
L 215.558042 255.139818 
L 216.915293 275.504628 
L 218.272545 261.462597 
L 219.629796 263.754225 
L 220.987048 278.334574 
L 222.344299 269.214934 
L 223.701551 286.979807 
L 225.058802 269.200497 
L 226.416054 247.151648 
L 227.773305 268.886547 
L 229.130556 266.592105 
L 230.487808 258.321952 
L 231.845059 265.26379 
L 233.202311 261.785293 
L 234.559562 247.70915 
L 235.916814 266.394459 
L 237.274065 266.285083 
L 238.631317 249.469289 
L 239.988568 267.833268 
L 241.345819 282.768921 
L 242.703071 270.803388 
L 244.060322 260.329265 
L 245.417574 247.628385 
L 246.774825 265.24524 
L 248.132077 252.195446 
L 249.489328 261.157306 
L 250.84658 267.480724 
L 252.203831 249.725886 
L 253.561082 252.469534 
L 254.918334 256.778473 
L 256.275585 274.698073 
L 257.632837 254.798394 
L 258.990088 257.021344 
L 260.34734 261.571627 
L 261.704591 233.767357 
L 263.061843 262.945848 
L 264.419094 217.431067 
L 265.776345 226.907174 
L 267.133597 267.878254 
L 268.490848 279.832157 
L 269.8481 269.928661 
L 271.205351 268.177264 
L 272.562603 278.769352 
L 273.919854 270.172053 
L 275.277106 280.255483 
L 276.634357 273.286152 
L 277.991608 270.404778 
L 279.34886 272.064619 
L 280.706111 276.613415 
L 282.063363 277.724041 
L 283.420614 278.554382 
L 284.777866 278.886164 
L 286.135117 269.470249 
L 287.492369 277.753239 
L 288.84962 277.206589 
L 290.206871 266.679523 
L 291.564123 177.655934 
L 292.921374 274.166631 
L 294.278626 263.084939 
L 295.635877 267.628805 
L 296.993129 227.075383 
L 298.35038 272.579665 
L 299.707631 270.054148 
L 301.064883 240.701084 
L 302.422134 266.198486 
L 303.779386 262.707717 
L 305.136637 264.957312 
L 306.493889 271.136222 
L 307.85114 210.103227 
L 309.208392 257.024935 
L 310.565643 248.301848 
L 311.922894 255.516504 
L 313.280146 252.471497 
L 314.637397 266.158184 
L 315.994649 252.693719 
L 317.3519 257.760955 
L 318.709152 255.424475 
L 320.066403 257.612505 
L 321.423655 265.8753 
L 322.780906 264.056427 
L 324.138157 257.597452 
L 325.495409 221.280467 
L 326.85266 256.683024 
L 328.209912 239.228398 
L 329.567163 205.017765 
L 330.924415 205.207909 
L 332.281666 259.802707 
L 333.638918 187.27216 
L 334.996169 101.507018 
L 336.35342 240.231107 
L 337.710672 147.35506 
L 339.067923 153.759303 
L 340.425175 67.216976 
L 341.782426 70.51514 
L 343.139678 174.96893 
L 344.496929 136.955653 
L 345.854181 120.79384 
L 347.211432 161.009171 
L 348.568683 157.28942 
L 349.925935 169.8429 
L 351.283186 169.462308 
L 352.640438 172.550781 
L 353.997689 180.645436 
L 355.354941 180.953672 
L 356.712192 190.652229 
L 358.069444 120.711775 
L 359.426695 169.802605 
L 360.783946 183.783038 
L 362.141198 160.524737 
L 363.498449 171.318645 
L 364.855701 98.945373 
L 366.212952 165.046166 
L 367.570204 162.03889 
L 368.927455 171.306837 
L 370.284707 162.058931 
L 371.641958 164.573693 
L 372.999209 165.331028 
L 374.356461 81.190522 
L 375.713712 115.319112 
L 377.070964 163.11458 
L 378.428215 80.524855 
L 379.785467 156.061575 
L 381.142718 152.818055 
L 382.49997 171.663356 
L 383.857221 171.059667 
L 385.214472 144.462566 
L 386.571724 122.522416 
L 387.928975 159.348463 
L 389.286227 123.718655 
L 390.643478 157.23686 
L 392.00073 105.681666 
L 393.357981 157.446779 
L 394.715233 93.850704 
L 396.072484 59.513261 
L 397.429735 135.86823 
L 398.786987 137.38777 
L 400.144238 139.261881 
L 401.50149 140.14745 
L 402.858741 99.866793 
L 404.215993 148.90835 
L 405.573244 130.188012 
L 406.930496 134.611625 
L 408.287747 228.514044 
L 409.644998 120.362058 
L 411.00225 132.752001 
L 412.359501 96.031925 
L 413.716753 157.556935 
L 415.074004 94.108115 
L 416.431256 151.868773 
L 417.788507 178.521188 
L 419.145759 138.661692 
L 420.50301 153.65913 
L 421.860261 155.960047 
L 423.217513 154.301226 
L 424.574764 154.490617 
L 425.932016 140.869968 
L 427.289267 106.702316 
L 428.646519 108.03178 
L 430.00377 167.04988 
L 431.361022 159.032938 
L 432.718273 157.717931 
L 434.075524 144.797051 
L 435.432776 156.110071 
L 436.790027 175.436275 
L 438.147279 158.439871 
L 439.50453 149.655581 
L 440.861782 193.832727 
L 442.219033 160.537139 
L 443.576285 158.536347 
L 444.933536 153.563278 
L 446.290787 111.827966 
L 447.648039 137.716001 
L 449.00529 150.795487 
L 450.362542 152.410163 
L 451.719793 145.352715 
L 453.077045 160.226575 
L 454.434296 149.140334 
L 455.791548 143.966689 
L 457.148799 144.95724 
L 458.50605 178.286161 
L 459.863302 162.414202 
L 461.220553 133.393626 
L 462.577805 135.673087 
L 463.935056 152.369062 
L 465.292308 155.760293 
L 466.649559 161.784766 
L 468.006811 128.982506 
L 469.364062 155.391159 
L 470.721313 139.556132 
L 472.078565 149.309425 
L 473.435816 169.263574 
L 474.793068 157.8946 
L 476.150319 127.387292 
L 477.507571 40.531875 
L 478.864822 192.135506 
L 481.579325 133.548611 
L 482.936576 125.953546 
L 484.293828 175.591488 
L 485.651079 151.957686 
L 487.008331 195.015264 
L 488.365582 128.898766 
L 489.722834 194.811949 
L 491.080085 107.329637 
L 492.437337 157.845129 
L 493.794588 165.244002 
L 495.151839 115.543335 
L 496.509091 181.530328 
L 496.509091 181.530328 
" clip-path="url(#pc92815b72f)" style="fill: none; stroke: #ff7f0e; stroke-width: 1.5; stroke-linecap: square"/>
   </g>
   <g id="line2d_25">
    <path d="M 90.690909 259.723415 
L 92.048161 273.496482 
L 93.405412 254.979682 
L 94.762663 265.353916 
L 96.119915 256.040357 
L 97.477166 254.54182 
L 98.834418 260.597834 
L 100.191669 276.460332 
L 101.548921 262.53737 
L 102.906172 233.548879 
L 104.263424 183.749796 
L 105.620675 251.516855 
L 106.977926 267.980637 
L 108.335178 201.776399 
L 109.692429 268.070539 
L 111.049681 258.518339 
L 112.406932 264.834583 
L 113.764184 265.151838 
L 115.121435 250.17438 
L 116.478687 227.77656 
L 117.835938 227.267863 
L 119.193189 209.025087 
L 120.550441 266.229883 
L 121.907692 251.170607 
L 123.264944 253.059102 
L 124.622195 262.844313 
L 125.979447 227.555563 
L 127.336698 233.233872 
L 128.69395 251.012076 
L 130.051201 255.435313 
L 131.408452 276.089265 
L 132.765704 246.264908 
L 134.122955 234.942977 
L 135.480207 252.355114 
L 136.837458 197.510517 
L 138.19471 205.148342 
L 139.551961 260.915668 
L 140.909213 249.902262 
L 142.266464 264.007265 
L 143.623715 247.528992 
L 144.980967 202.059093 
L 146.338218 195.716562 
L 147.69547 196.125458 
L 149.052721 201.77188 
L 150.409973 164.117244 
L 151.767224 187.074308 
L 153.124476 165.180258 
L 154.481727 161.14515 
L 155.838978 225.881282 
L 157.19623 198.946774 
L 158.553481 152.088126 
L 159.910733 126.646254 
L 161.267984 168.429012 
L 162.625236 177.115258 
L 163.982487 165.280842 
L 165.339739 112.542435 
L 166.69699 152.995775 
L 168.054241 156.195393 
L 169.411493 176.620721 
L 170.768744 154.37617 
L 172.125996 169.818188 
L 173.483247 170.004307 
L 174.840499 168.615588 
L 176.19775 164.37257 
L 177.555002 71.450149 
L 178.912253 122.781957 
L 180.269504 144.610323 
L 181.626756 158.143109 
L 182.984007 155.196199 
L 184.341259 144.119635 
L 185.69851 166.276765 
L 187.055762 71.803305 
L 188.413013 145.61113 
L 189.770265 159.905968 
L 191.127516 149.038441 
L 192.484767 112.850473 
L 193.842019 155.068452 
L 195.19927 150.429533 
L 197.913773 160.977474 
L 199.271025 173.560947 
L 200.628276 152.734164 
L 201.985528 150.340331 
L 203.342779 166.328837 
L 204.70003 165.102043 
L 206.057282 125.588018 
L 207.414533 137.490241 
L 208.771785 182.561888 
L 210.129036 157.031248 
L 211.486288 156.058181 
L 212.843539 155.791123 
L 215.558042 162.409972 
L 216.915293 164.000803 
L 218.272545 141.425282 
L 220.987048 134.60703 
L 222.344299 135.54811 
L 223.701551 137.698318 
L 225.058802 165.223642 
L 226.416054 160.837599 
L 227.773305 161.383281 
L 229.130556 127.745028 
L 230.487808 170.059423 
L 231.845059 175.53062 
L 233.202311 155.526241 
L 234.559562 178.841308 
L 235.916814 166.387377 
L 237.274065 158.274827 
L 238.631317 144.664313 
L 239.988568 149.923751 
L 241.345819 158.103499 
L 242.703071 161.232754 
L 244.060322 163.09072 
L 245.417574 174.290541 
L 246.774825 135.955774 
L 248.132077 165.438445 
L 249.489328 164.666699 
L 250.84658 171.649417 
L 252.203831 175.838232 
L 253.561082 159.0909 
L 254.918334 159.655207 
L 256.275585 164.822217 
L 257.632837 170.668864 
L 258.990088 181.267766 
L 260.34734 125.652432 
L 261.704591 185.710104 
L 263.061843 153.479295 
L 264.419094 180.296373 
L 265.776345 185.704009 
L 267.133597 156.046799 
L 268.490848 158.030336 
L 269.8481 165.824485 
L 271.205351 183.40962 
L 272.562603 156.97105 
L 273.919854 157.245427 
L 275.277106 136.633783 
L 276.634357 167.16031 
L 277.991608 169.888018 
L 279.34886 166.541465 
L 280.706111 179.652663 
L 282.063363 154.140915 
L 283.420614 169.480492 
L 284.777866 172.219872 
L 286.135117 154.541457 
L 287.492369 174.1218 
L 288.84962 164.008853 
L 290.206871 161.724096 
L 291.564123 183.461129 
L 292.921374 178.101046 
L 294.278626 169.318629 
L 295.635877 163.974478 
L 296.993129 167.324684 
L 298.35038 175.738104 
L 299.707631 175.405461 
L 301.064883 173.326803 
L 302.422134 166.407022 
L 303.779386 179.247389 
L 305.136637 175.174299 
L 306.493889 176.943169 
L 307.85114 177.279663 
L 309.208392 183.463519 
L 310.565643 163.824955 
L 311.922894 168.78229 
L 313.280146 167.147117 
L 314.637397 173.759909 
L 315.994649 178.678912 
L 317.3519 180.225857 
L 318.709152 165.67163 
L 320.066403 171.5427 
L 321.423655 147.393848 
L 322.780906 164.383222 
L 324.138157 179.375075 
L 325.495409 129.520564 
L 326.85266 192.898898 
L 328.209912 180.157092 
L 329.567163 160.870194 
L 330.924415 123.854512 
L 332.281666 173.074474 
L 333.638918 150.861605 
L 334.996169 154.096847 
L 336.35342 170.757001 
L 337.710672 173.313092 
L 339.067923 184.747552 
L 340.425175 174.304982 
L 341.782426 143.061765 
L 343.139678 178.500477 
L 344.496929 174.598959 
L 345.854181 166.425237 
L 347.211432 159.291688 
L 348.568683 188.982246 
L 349.925935 164.870805 
L 351.283186 173.11276 
L 352.640438 187.744556 
L 353.997689 187.036501 
L 355.354941 160.450554 
L 356.712192 190.250789 
L 358.069444 183.491959 
L 359.426695 183.08705 
L 360.783946 187.242753 
L 362.141198 180.447615 
L 363.498449 202.255187 
L 364.855701 174.840682 
L 366.212952 164.01672 
L 367.570204 164.527022 
L 368.927455 182.309621 
L 370.284707 193.557528 
L 371.641958 180.192228 
L 372.999209 187.70786 
L 374.356461 192.523167 
L 375.713712 192.105476 
L 377.070964 170.758538 
L 378.428215 179.848506 
L 379.785467 185.566562 
L 381.142718 190.214063 
L 382.49997 193.777665 
L 383.857221 173.016132 
L 385.214472 175.329984 
L 386.571724 190.017482 
L 387.928975 188.340195 
L 389.286227 197.285808 
L 390.643478 188.716466 
L 392.00073 184.873754 
L 393.357981 187.518272 
L 394.715233 193.382053 
L 396.072484 179.977257 
L 397.429735 180.216621 
L 398.786987 171.075356 
L 400.144238 176.549916 
L 401.50149 177.953944 
L 402.858741 172.384809 
L 404.215993 157.756217 
L 405.573244 177.07081 
L 406.930496 181.001651 
L 408.287747 170.768444 
L 409.644998 151.455236 
L 411.00225 185.525803 
L 412.359501 194.048847 
L 413.716753 172.049016 
L 415.074004 171.290022 
L 416.431256 191.083798 
L 417.788507 171.162549 
L 419.145759 176.943869 
L 420.50301 187.986004 
L 421.860261 175.993141 
L 423.217513 175.891081 
L 424.574764 176.652038 
L 425.932016 173.788441 
L 427.289267 184.10579 
L 428.646519 179.896303 
L 430.00377 175.105579 
L 431.361022 166.670383 
L 432.718273 183.426199 
L 434.075524 169.081852 
L 435.432776 167.7101 
L 436.790027 177.620524 
L 438.147279 173.156022 
L 439.50453 177.761251 
L 440.861782 193.693507 
L 442.219033 177.835312 
L 443.576285 176.375697 
L 444.933536 147.548666 
L 446.290787 173.006074 
L 447.648039 176.353389 
L 449.00529 184.359914 
L 450.362542 177.435059 
L 451.719793 182.713731 
L 453.077045 173.887975 
L 454.434296 184.090741 
L 455.791548 187.060392 
L 457.148799 170.328155 
L 458.50605 178.806096 
L 459.863302 170.994919 
L 461.220553 176.836163 
L 462.577805 175.300844 
L 463.935056 172.765615 
L 465.292308 178.937662 
L 466.649559 178.247525 
L 468.006811 179.612932 
L 469.364062 176.224653 
L 470.721313 162.521376 
L 472.078565 171.724817 
L 473.435816 164.79615 
L 474.793068 189.963698 
L 476.150319 165.661374 
L 477.507571 166.071229 
L 478.864822 153.740099 
L 480.222074 189.52611 
L 481.579325 169.360186 
L 482.936576 176.402935 
L 484.293828 176.012436 
L 485.651079 174.711809 
L 487.008331 180.885606 
L 488.365582 168.970098 
L 489.722834 171.280511 
L 491.080085 172.478531 
L 492.437337 145.547234 
L 493.794588 146.009755 
L 495.151839 149.491466 
L 496.509091 183.211844 
L 496.509091 183.211844 
" clip-path="url(#pc92815b72f)" style="fill: none; stroke: #2ca02c; stroke-width: 1.5; stroke-linecap: square"/>
   </g>
   <g id="patch_3">
    <path d="M 70.4 305.131875 
L 70.4 27.931875 
" style="fill: none; stroke: #000000; stroke-width: 0.8; stroke-linejoin: miter; stroke-linecap: square"/>
   </g>
   <g id="patch_4">
    <path d="M 516.8 305.131875 
L 516.8 27.931875 
" style="fill: none; stroke: #000000; stroke-width: 0.8; stroke-linejoin: miter; stroke-linecap: square"/>
   </g>
   <g id="patch_5">
    <path d="M 70.4 305.131875 
L 516.8 305.131875 
" style="fill: none; stroke: #000000; stroke-width: 0.8; stroke-linejoin: miter; stroke-linecap: square"/>
   </g>
   <g id="patch_6">
    <path d="M 70.4 27.931875 
L 516.8 27.931875 
" style="fill: none; stroke: #000000; stroke-width: 0.8; stroke-linejoin: miter; stroke-linecap: square"/>
   </g>
   <g id="text_14">
    <!-- Meta Test Average Return -->
    <g transform="translate(178.726813 21.931875)scale(0.216 -0.216)">
     <defs>
      <path id="STIXGeneral-Regular-4d" d="M 5530 0 
L 3738 0 
L 3738 122 
Q 4115 147 4214 265 
Q 4314 384 4314 787 
L 4314 3661 
L 2682 0 
L 2592 0 
L 979 3514 
L 979 966 
Q 979 448 1088 294 
Q 1197 141 1574 122 
L 1574 0 
L 77 0 
L 77 122 
Q 358 141 480 205 
Q 602 269 650 432 
Q 698 595 698 966 
L 698 3514 
Q 698 3878 589 3984 
Q 480 4090 90 4115 
L 90 4237 
L 1357 4237 
L 2835 1024 
L 4250 4237 
L 5523 4237 
L 5523 4115 
Q 5178 4109 5072 3993 
Q 4966 3878 4966 3520 
L 4966 717 
Q 4966 378 5072 262 
Q 5178 147 5530 122 
L 5530 0 
z
" transform="scale(0.015625)"/>
      <path id="STIXGeneral-Regular-54" d="M 3795 3149 
L 3642 3149 
Q 3539 3674 3353 3821 
Q 3168 3968 2656 3968 
L 2278 3968 
L 2278 710 
Q 2278 346 2387 243 
Q 2496 141 2893 122 
L 2893 0 
L 1024 0 
L 1024 122 
Q 1427 147 1526 256 
Q 1626 365 1626 787 
L 1626 3968 
L 1242 3968 
Q 723 3968 540 3817 
Q 358 3667 262 3149 
L 109 3149 
L 154 4237 
L 3750 4237 
L 3795 3149 
z
" transform="scale(0.015625)"/>
      <path id="STIXGeneral-Regular-73" d="M 998 1926 
L 1664 1523 
Q 1984 1331 2105 1164 
Q 2227 998 2227 736 
Q 2227 416 1961 176 
Q 1696 -64 1331 -64 
Q 1030 -64 864 -6 
Q 691 51 570 51 
Q 461 51 416 -26 
L 333 -26 
L 333 979 
L 435 979 
Q 538 512 730 294 
Q 922 77 1248 77 
Q 1485 77 1632 211 
Q 1779 346 1779 550 
Q 1779 845 1440 1030 
L 1094 1222 
Q 326 1651 326 2150 
Q 326 2522 566 2730 
Q 806 2938 1210 2938 
Q 1491 2938 1638 2867 
Q 1754 2816 1818 2816 
Q 1862 2816 1920 2880 
L 1990 2880 
L 2022 2010 
L 1926 2010 
Q 1818 2445 1654 2621 
Q 1491 2797 1203 2797 
Q 986 2797 854 2688 
Q 723 2579 723 2362 
Q 723 2253 796 2128 
Q 870 2003 998 1926 
z
" transform="scale(0.015625)"/>
     </defs>
     <use xlink:href="#STIXGeneral-Regular-4d"/>
     <use xlink:href="#STIXGeneral-Regular-65" x="88.899994"/>
     <use xlink:href="#STIXGeneral-Regular-74" x="133.299988"/>
     <use xlink:href="#STIXGeneral-Regular-61" x="161.099976"/>
     <use xlink:href="#STIXGeneral-Regular-20" x="205.499969"/>
     <use xlink:href="#STIXGeneral-Regular-54" x="230.499954"/>
     <use xlink:href="#STIXGeneral-Regular-65" x="291.599945"/>
     <use xlink:href="#STIXGeneral-Regular-73" x="335.999939"/>
     <use xlink:href="#STIXGeneral-Regular-74" x="374.899933"/>
     <use xlink:href="#STIXGeneral-Regular-20" x="402.699921"/>
     <use xlink:href="#STIXGeneral-Regular-41" x="427.699905"/>
     <use xlink:href="#STIXGeneral-Regular-76" x="499.899887"/>
     <use xlink:href="#STIXGeneral-Regular-65" x="549.899872"/>
     <use xlink:href="#STIXGeneral-Regular-72" x="594.299866"/>
     <use xlink:href="#STIXGeneral-Regular-61" x="627.599854"/>
     <use xlink:href="#STIXGeneral-Regular-67" x="671.999847"/>
     <use xlink:href="#STIXGeneral-Regular-65" x="721.999832"/>
     <use xlink:href="#STIXGeneral-Regular-20" x="766.399826"/>
     <use xlink:href="#STIXGeneral-Regular-52" x="791.399811"/>
     <use xlink:href="#STIXGeneral-Regular-65" x="858.099808"/>
     <use xlink:href="#STIXGeneral-Regular-74" x="902.499802"/>
     <use xlink:href="#STIXGeneral-Regular-75" x="930.299789"/>
     <use xlink:href="#STIXGeneral-Regular-72" x="980.299774"/>
     <use xlink:href="#STIXGeneral-Regular-6e" x="1013.599762"/>
    </g>
   </g>
   <g id="legend_1">
    <g id="patch_7">
     <path d="M 80.2 98.647187 
L 149.878438 98.647187 
Q 152.678438 98.647187 152.678438 95.847187 
L 152.678438 37.731875 
Q 152.678438 34.931875 149.878438 34.931875 
L 80.2 34.931875 
Q 77.4 34.931875 77.4 37.731875 
L 77.4 95.847187 
Q 77.4 98.647187 80.2 98.647187 
z
" style="fill: #ffffff; opacity: 0.8; stroke: #cccccc; stroke-linejoin: miter"/>
    </g>
    <g id="line2d_26">
     <path d="M 83 45.431875 
L 97 45.431875 
L 111 45.431875 
" style="fill: none; stroke: #1f77b4; stroke-width: 1.5; stroke-linecap: square"/>
    </g>
    <g id="text_15">
     <!-- 1e-1 -->
     <g transform="translate(122.2 50.331875)scale(0.14 -0.14)">
      <defs>
       <path id="STIXGeneral-Regular-2d" d="M 1824 1242 
L 250 1242 
L 250 1645 
L 1824 1645 
L 1824 1242 
z
" transform="scale(0.015625)"/>
      </defs>
      <use xlink:href="#STIXGeneral-Regular-31"/>
      <use xlink:href="#STIXGeneral-Regular-65" x="49.999985"/>
      <use xlink:href="#STIXGeneral-Regular-2d" x="94.399979"/>
      <use xlink:href="#STIXGeneral-Regular-31" x="127.699966"/>
     </g>
    </g>
    <g id="line2d_27">
     <path d="M 83 65.270312 
L 97 65.270312 
L 111 65.270312 
" style="fill: none; stroke: #ff7f0e; stroke-width: 1.5; stroke-linecap: square"/>
    </g>
    <g id="text_16">
     <!-- 5e-1 -->
     <g transform="translate(122.2 70.170312)scale(0.14 -0.14)">
      <use xlink:href="#STIXGeneral-Regular-35"/>
      <use xlink:href="#STIXGeneral-Regular-65" x="49.999985"/>
      <use xlink:href="#STIXGeneral-Regular-2d" x="94.399979"/>
      <use xlink:href="#STIXGeneral-Regular-31" x="127.699966"/>
     </g>
    </g>
    <g id="line2d_28">
     <path d="M 83 85.10875 
L 97 85.10875 
L 111 85.10875 
" style="fill: none; stroke: #2ca02c; stroke-width: 1.5; stroke-linecap: square"/>
    </g>
    <g id="text_17">
     <!-- 5e-2 -->
     <g transform="translate(122.2 90.00875)scale(0.14 -0.14)">
      <use xlink:href="#STIXGeneral-Regular-35"/>
      <use xlink:href="#STIXGeneral-Regular-65" x="49.999985"/>
      <use xlink:href="#STIXGeneral-Regular-2d" x="94.399979"/>
      <use xlink:href="#STIXGeneral-Regular-32" x="127.699966"/>
     </g>
    </g>
   </g>
  </g>
 </g>
 <defs>
  <clipPath id="pc92815b72f">
   <rect x="70.4" y="27.931875" width="446.4" height="277.2"/>
  </clipPath>
 </defs>
</svg>
