<?xml version="1.0" encoding="utf-8" standalone="no"?>
<!DOCTYPE svg PUBLIC "-//W3C//DTD SVG 1.1//EN"
  "http://www.w3.org/Graphics/SVG/1.1/DTD/svg11.dtd">
<svg xmlns:xlink="http://www.w3.org/1999/xlink" width="524pt" height="355.731875pt" viewBox="0 0 524 355.731875" xmlns="http://www.w3.org/2000/svg" version="1.1">
 <metadata>
  <rdf:RDF xmlns:dc="http://purl.org/dc/elements/1.1/" xmlns:cc="http://creativecommons.org/ns#" xmlns:rdf="http://www.w3.org/1999/02/22-rdf-syntax-ns#">
   <cc:Work>
    <dc:type rdf:resource="http://purl.org/dc/dcmitype/StillImage"/>
    <dc:date>2021-11-25T21:39:56.823265</dc:date>
    <dc:format>image/svg+xml</dc:format>
    <dc:creator>
     <cc:Agent>
      <dc:title>Matplotlib v3.5.0, https://matplotlib.org/</dc:title>
     </cc:Agent>
    </dc:creator>
   </cc:Work>
  </rdf:RDF>
 </metadata>
 <defs>
  <style type="text/css">*{stroke-linejoin: round; stroke-linecap: butt}</style>
 </defs>
 <g id="figure_1">
  <g id="patch_1">
   <path d="M 0 355.731875 
L 524 355.731875 
L 524 0 
L 0 0 
z
" style="fill: #ffffff"/>
  </g>
  <g id="axes_1">
   <g id="patch_2">
    <path d="M 70.4 305.131875 
L 516.8 305.131875 
L 516.8 27.931875 
L 70.4 27.931875 
z
" style="fill: #ffffff"/>
   </g>
   <g id="matplotlib.axis_1">
    <g id="xtick_1">
     <g id="line2d_1">
      <path d="M 90.690909 305.131875 
L 90.690909 27.931875 
" clip-path="url(#p8cfe53ce4f)" style="fill: none; stroke: #b0b0b0; stroke-width: 0.8; stroke-linecap: square"/>
     </g>
     <g id="line2d_2">
      <defs>
       <path id="m96fde322ab" d="M 0 0 
L 0 3.5 
" style="stroke: #000000; stroke-width: 0.8"/>
      </defs>
      <g>
       <use xlink:href="#m96fde322ab" x="90.690909" y="305.131875" style="stroke: #000000; stroke-width: 0.8"/>
      </g>
     </g>
     <g id="text_1">
      <!-- 0 -->
      <g transform="translate(86.190909 324.425313)scale(0.18 -0.18)">
       <defs>
        <path id="STIXGeneral-Regular-30" d="M 3046 2112 
Q 3046 1683 2963 1302 
Q 2880 922 2717 602 
Q 2554 282 2266 96 
Q 1978 -90 1600 -90 
Q 1210 -90 915 108 
Q 621 307 461 640 
Q 301 973 227 1350 
Q 154 1728 154 2150 
Q 154 2746 301 3222 
Q 448 3699 790 4012 
Q 1133 4326 1626 4326 
Q 2253 4326 2649 3712 
Q 3046 3098 3046 2112 
z
M 2432 2080 
Q 2432 3091 2217 3625 
Q 2003 4160 1587 4160 
Q 1190 4160 979 3622 
Q 768 3085 768 2106 
Q 768 1120 979 598 
Q 1190 77 1600 77 
Q 2003 77 2217 598 
Q 2432 1120 2432 2080 
z
" transform="scale(0.015625)"/>
       </defs>
       <use xlink:href="#STIXGeneral-Regular-30"/>
      </g>
     </g>
    </g>
    <g id="xtick_2">
     <g id="line2d_3">
      <path d="M 158.553481 305.131875 
L 158.553481 27.931875 
" clip-path="url(#p8cfe53ce4f)" style="fill: none; stroke: #b0b0b0; stroke-width: 0.8; stroke-linecap: square"/>
     </g>
     <g id="line2d_4">
      <g>
       <use xlink:href="#m96fde322ab" x="158.553481" y="305.131875" style="stroke: #000000; stroke-width: 0.8"/>
      </g>
     </g>
     <g id="text_2">
      <!-- 50 -->
      <g transform="translate(149.553481 324.425313)scale(0.18 -0.18)">
       <defs>
        <path id="STIXGeneral-Regular-35" d="M 2803 4358 
L 2573 3814 
Q 2534 3731 2400 3731 
L 1158 3731 
L 902 3187 
Q 1606 3053 1920 2896 
Q 2234 2739 2502 2368 
Q 2726 2061 2726 1555 
Q 2726 1094 2576 780 
Q 2426 467 2099 224 
Q 1664 -90 1011 -90 
Q 646 -90 422 19 
Q 198 128 198 307 
Q 198 550 486 550 
Q 717 550 960 352 
Q 1210 147 1414 147 
Q 1747 147 2012 480 
Q 2278 813 2278 1229 
Q 2278 1843 1850 2189 
Q 1293 2637 486 2637 
Q 410 2637 410 2688 
L 416 2720 
L 1114 4237 
L 2438 4237 
Q 2547 4237 2608 4269 
Q 2669 4301 2746 4403 
L 2803 4358 
z
" transform="scale(0.015625)"/>
       </defs>
       <use xlink:href="#STIXGeneral-Regular-35"/>
       <use xlink:href="#STIXGeneral-Regular-30" x="49.999985"/>
      </g>
     </g>
    </g>
    <g id="xtick_3">
     <g id="line2d_5">
      <path d="M 226.416054 305.131875 
L 226.416054 27.931875 
" clip-path="url(#p8cfe53ce4f)" style="fill: none; stroke: #b0b0b0; stroke-width: 0.8; stroke-linecap: square"/>
     </g>
     <g id="line2d_6">
      <g>
       <use xlink:href="#m96fde322ab" x="226.416054" y="305.131875" style="stroke: #000000; stroke-width: 0.8"/>
      </g>
     </g>
     <g id="text_3">
      <!-- 100 -->
      <g transform="translate(212.916054 324.425313)scale(0.18 -0.18)">
       <defs>
        <path id="STIXGeneral-Regular-31" d="M 2522 0 
L 755 0 
L 755 96 
Q 1107 115 1235 227 
Q 1363 339 1363 608 
L 1363 3482 
Q 1363 3795 1171 3795 
Q 1082 3795 883 3718 
L 710 3654 
L 710 3744 
L 1856 4326 
L 1914 4307 
L 1914 486 
Q 1914 275 2042 185 
Q 2170 96 2522 96 
L 2522 0 
z
" transform="scale(0.015625)"/>
       </defs>
       <use xlink:href="#STIXGeneral-Regular-31"/>
       <use xlink:href="#STIXGeneral-Regular-30" x="49.999985"/>
       <use xlink:href="#STIXGeneral-Regular-30" x="99.999969"/>
      </g>
     </g>
    </g>
    <g id="xtick_4">
     <g id="line2d_7">
      <path d="M 294.278626 305.131875 
L 294.278626 27.931875 
" clip-path="url(#p8cfe53ce4f)" style="fill: none; stroke: #b0b0b0; stroke-width: 0.8; stroke-linecap: square"/>
     </g>
     <g id="line2d_8">
      <g>
       <use xlink:href="#m96fde322ab" x="294.278626" y="305.131875" style="stroke: #000000; stroke-width: 0.8"/>
      </g>
     </g>
     <g id="text_4">
      <!-- 150 -->
      <g transform="translate(280.778626 324.425313)scale(0.18 -0.18)">
       <use xlink:href="#STIXGeneral-Regular-31"/>
       <use xlink:href="#STIXGeneral-Regular-35" x="49.999985"/>
       <use xlink:href="#STIXGeneral-Regular-30" x="99.999969"/>
      </g>
     </g>
    </g>
    <g id="xtick_5">
     <g id="line2d_9">
      <path d="M 362.141198 305.131875 
L 362.141198 27.931875 
" clip-path="url(#p8cfe53ce4f)" style="fill: none; stroke: #b0b0b0; stroke-width: 0.8; stroke-linecap: square"/>
     </g>
     <g id="line2d_10">
      <g>
       <use xlink:href="#m96fde322ab" x="362.141198" y="305.131875" style="stroke: #000000; stroke-width: 0.8"/>
      </g>
     </g>
     <g id="text_5">
      <!-- 200 -->
      <g transform="translate(348.641198 324.425313)scale(0.18 -0.18)">
       <defs>
        <path id="STIXGeneral-Regular-32" d="M 3034 877 
L 2688 0 
L 186 0 
L 186 77 
L 1325 1286 
Q 1773 1754 1965 2144 
Q 2157 2534 2157 2950 
Q 2157 3379 1920 3616 
Q 1683 3853 1267 3853 
Q 922 3853 720 3673 
Q 518 3494 326 3021 
L 192 3053 
Q 301 3648 630 3987 
Q 960 4326 1523 4326 
Q 2054 4326 2380 4006 
Q 2707 3686 2707 3200 
Q 2707 2477 1888 1613 
L 832 486 
L 2330 486 
Q 2541 486 2665 569 
Q 2790 653 2944 915 
L 3034 877 
z
" transform="scale(0.015625)"/>
       </defs>
       <use xlink:href="#STIXGeneral-Regular-32"/>
       <use xlink:href="#STIXGeneral-Regular-30" x="49.999985"/>
       <use xlink:href="#STIXGeneral-Regular-30" x="99.999969"/>
      </g>
     </g>
    </g>
    <g id="xtick_6">
     <g id="line2d_11">
      <path d="M 430.00377 305.131875 
L 430.00377 27.931875 
" clip-path="url(#p8cfe53ce4f)" style="fill: none; stroke: #b0b0b0; stroke-width: 0.8; stroke-linecap: square"/>
     </g>
     <g id="line2d_12">
      <g>
       <use xlink:href="#m96fde322ab" x="430.00377" y="305.131875" style="stroke: #000000; stroke-width: 0.8"/>
      </g>
     </g>
     <g id="text_6">
      <!-- 250 -->
      <g transform="translate(416.50377 324.425313)scale(0.18 -0.18)">
       <use xlink:href="#STIXGeneral-Regular-32"/>
       <use xlink:href="#STIXGeneral-Regular-35" x="49.999985"/>
       <use xlink:href="#STIXGeneral-Regular-30" x="99.999969"/>
      </g>
     </g>
    </g>
    <g id="xtick_7">
     <g id="line2d_13">
      <path d="M 497.866342 305.131875 
L 497.866342 27.931875 
" clip-path="url(#p8cfe53ce4f)" style="fill: none; stroke: #b0b0b0; stroke-width: 0.8; stroke-linecap: square"/>
     </g>
     <g id="line2d_14">
      <g>
       <use xlink:href="#m96fde322ab" x="497.866342" y="305.131875" style="stroke: #000000; stroke-width: 0.8"/>
      </g>
     </g>
     <g id="text_7">
      <!-- 300 -->
      <g transform="translate(484.366342 324.425313)scale(0.18 -0.18)">
       <defs>
        <path id="STIXGeneral-Regular-33" d="M 390 3264 
L 288 3290 
Q 435 3770 748 4048 
Q 1062 4326 1542 4326 
Q 1990 4326 2265 4083 
Q 2541 3840 2541 3450 
Q 2541 2925 1946 2566 
Q 2298 2413 2477 2227 
Q 2758 1914 2758 1402 
Q 2758 890 2464 506 
Q 2246 211 1840 60 
Q 1434 -90 979 -90 
Q 262 -90 262 275 
Q 262 378 339 442 
Q 416 506 525 506 
Q 685 506 915 339 
Q 1197 141 1466 141 
Q 1818 141 2058 425 
Q 2298 710 2298 1120 
Q 2298 1856 1632 2048 
Q 1434 2112 979 2112 
L 979 2202 
Q 1338 2323 1517 2432 
Q 2035 2726 2035 3290 
Q 2035 3610 1852 3776 
Q 1670 3942 1344 3942 
Q 768 3942 390 3264 
z
" transform="scale(0.015625)"/>
       </defs>
       <use xlink:href="#STIXGeneral-Regular-33"/>
       <use xlink:href="#STIXGeneral-Regular-30" x="49.999985"/>
       <use xlink:href="#STIXGeneral-Regular-30" x="99.999969"/>
      </g>
     </g>
    </g>
    <g id="text_8">
     <!-- Epoch -->
     <g transform="translate(270.605 344.625313)scale(0.18 -0.18)">
      <defs>
       <path id="STIXGeneral-Regular-45" d="M 3821 1082 
L 3526 0 
L 77 0 
L 77 122 
Q 442 147 538 252 
Q 634 358 634 730 
L 634 3520 
Q 634 3878 534 3987 
Q 435 4096 77 4115 
L 77 4237 
L 3469 4237 
L 3494 3322 
L 3334 3322 
Q 3264 3750 3085 3872 
Q 2906 3994 2349 3994 
L 1510 3994 
Q 1370 3994 1328 3952 
Q 1286 3910 1286 3763 
L 1286 2355 
L 2253 2355 
Q 2656 2355 2787 2470 
Q 2918 2586 2976 2970 
L 3123 2970 
L 3123 1472 
L 2976 1472 
Q 2918 1875 2790 1984 
Q 2662 2093 2253 2093 
L 1286 2093 
L 1286 538 
Q 1286 346 1420 291 
Q 1555 237 1933 237 
L 2163 237 
Q 2848 237 3136 403 
Q 3424 570 3642 1082 
L 3821 1082 
z
" transform="scale(0.015625)"/>
       <path id="STIXGeneral-Regular-70" d="M 1018 2931 
L 1018 2438 
Q 1421 2944 1939 2944 
Q 2406 2944 2707 2560 
Q 3008 2176 3008 1581 
Q 3008 883 2621 409 
Q 2234 -64 1664 -64 
Q 1466 -64 1328 -6 
Q 1190 51 1018 211 
L 1018 -794 
Q 1018 -1094 1120 -1180 
Q 1222 -1267 1581 -1274 
L 1581 -1389 
L 32 -1389 
L 32 -1280 
Q 314 -1254 397 -1171 
Q 480 -1088 480 -838 
L 480 2157 
Q 480 2381 429 2451 
Q 378 2522 218 2522 
Q 115 2522 58 2515 
L 58 2618 
Q 506 2752 979 2944 
L 1018 2931 
z
M 1018 2138 
L 1018 563 
Q 1018 422 1238 281 
Q 1459 141 1683 141 
Q 2029 141 2243 467 
Q 2458 794 2458 1325 
Q 2458 1888 2243 2224 
Q 2029 2560 1670 2560 
Q 1446 2560 1232 2419 
Q 1018 2278 1018 2138 
z
" transform="scale(0.015625)"/>
       <path id="STIXGeneral-Regular-6f" d="M 3008 1478 
Q 3008 806 2608 371 
Q 2208 -64 1568 -64 
Q 979 -64 582 368 
Q 186 800 186 1459 
Q 186 2125 582 2534 
Q 979 2944 1626 2944 
Q 2221 2944 2614 2537 
Q 3008 2131 3008 1478 
z
M 2432 1306 
Q 2432 2035 2112 2445 
Q 1856 2765 1504 2765 
Q 1171 2765 966 2493 
Q 762 2221 762 1747 
Q 762 928 1101 435 
Q 1318 115 1677 115 
Q 2029 115 2230 432 
Q 2432 749 2432 1306 
z
" transform="scale(0.015625)"/>
       <path id="STIXGeneral-Regular-63" d="M 2547 998 
L 2637 941 
Q 2362 403 2112 205 
Q 1786 -64 1376 -64 
Q 845 -64 502 336 
Q 160 736 160 1357 
Q 160 2170 698 2618 
Q 1094 2944 1562 2944 
Q 1965 2944 2256 2749 
Q 2547 2554 2547 2285 
Q 2547 2176 2457 2096 
Q 2368 2016 2246 2016 
Q 2022 2016 1939 2310 
L 1901 2451 
Q 1850 2630 1773 2694 
Q 1696 2758 1523 2758 
Q 1133 2758 893 2451 
Q 653 2144 653 1645 
Q 653 1094 928 745 
Q 1203 397 1645 397 
Q 1920 397 2118 528 
Q 2317 659 2547 998 
z
" transform="scale(0.015625)"/>
       <path id="STIXGeneral-Regular-68" d="M 3117 0 
L 1760 0 
L 1760 96 
Q 2042 128 2118 224 
Q 2195 320 2195 653 
L 2195 1920 
Q 2195 2598 1722 2598 
Q 1530 2598 1370 2508 
Q 1210 2419 1005 2195 
L 1005 653 
Q 1005 320 1081 224 
Q 1158 128 1440 96 
L 1440 0 
L 58 0 
L 58 96 
Q 333 134 400 224 
Q 467 314 467 653 
L 467 3667 
Q 467 3872 406 3933 
Q 346 3994 141 3994 
Q 83 3994 64 3987 
L 64 4090 
L 237 4141 
Q 730 4288 973 4371 
L 1005 4352 
L 1005 2406 
Q 1229 2694 1446 2819 
Q 1664 2944 1946 2944 
Q 2733 2944 2733 1926 
L 2733 653 
Q 2733 320 2793 233 
Q 2854 147 3117 96 
L 3117 0 
z
" transform="scale(0.015625)"/>
      </defs>
      <use xlink:href="#STIXGeneral-Regular-45"/>
      <use xlink:href="#STIXGeneral-Regular-70" x="61.099991"/>
      <use xlink:href="#STIXGeneral-Regular-6f" x="111.099976"/>
      <use xlink:href="#STIXGeneral-Regular-63" x="161.09996"/>
      <use xlink:href="#STIXGeneral-Regular-68" x="205.499954"/>
     </g>
    </g>
   </g>
   <g id="matplotlib.axis_2">
    <g id="ytick_1">
     <g id="line2d_15">
      <path d="M 70.4 292.679412 
L 516.8 292.679412 
" clip-path="url(#p8cfe53ce4f)" style="fill: none; stroke: #b0b0b0; stroke-width: 0.8; stroke-linecap: square"/>
     </g>
     <g id="line2d_16">
      <defs>
       <path id="meda365b75a" d="M 0 0 
L -3.5 0 
" style="stroke: #000000; stroke-width: 0.8"/>
      </defs>
      <g>
       <use xlink:href="#meda365b75a" x="70.4" y="292.679412" style="stroke: #000000; stroke-width: 0.8"/>
      </g>
     </g>
     <g id="text_9">
      <!-- 0 -->
      <g transform="translate(54.4 298.826131)scale(0.18 -0.18)">
       <use xlink:href="#STIXGeneral-Regular-30"/>
      </g>
     </g>
    </g>
    <g id="ytick_2">
     <g id="line2d_17">
      <path d="M 70.4 234.864372 
L 516.8 234.864372 
" clip-path="url(#p8cfe53ce4f)" style="fill: none; stroke: #b0b0b0; stroke-width: 0.8; stroke-linecap: square"/>
     </g>
     <g id="line2d_18">
      <g>
       <use xlink:href="#meda365b75a" x="70.4" y="234.864372" style="stroke: #000000; stroke-width: 0.8"/>
      </g>
     </g>
     <g id="text_10">
      <!-- 1000 -->
      <g transform="translate(27.4 241.011091)scale(0.18 -0.18)">
       <use xlink:href="#STIXGeneral-Regular-31"/>
       <use xlink:href="#STIXGeneral-Regular-30" x="49.999985"/>
       <use xlink:href="#STIXGeneral-Regular-30" x="99.999969"/>
       <use xlink:href="#STIXGeneral-Regular-30" x="149.999954"/>
      </g>
     </g>
    </g>
    <g id="ytick_3">
     <g id="line2d_19">
      <path d="M 70.4 177.049332 
L 516.8 177.049332 
" clip-path="url(#p8cfe53ce4f)" style="fill: none; stroke: #b0b0b0; stroke-width: 0.8; stroke-linecap: square"/>
     </g>
     <g id="line2d_20">
      <g>
       <use xlink:href="#meda365b75a" x="70.4" y="177.049332" style="stroke: #000000; stroke-width: 0.8"/>
      </g>
     </g>
     <g id="text_11">
      <!-- 2000 -->
      <g transform="translate(27.4 183.196051)scale(0.18 -0.18)">
       <use xlink:href="#STIXGeneral-Regular-32"/>
       <use xlink:href="#STIXGeneral-Regular-30" x="49.999985"/>
       <use xlink:href="#STIXGeneral-Regular-30" x="99.999969"/>
       <use xlink:href="#STIXGeneral-Regular-30" x="149.999954"/>
      </g>
     </g>
    </g>
    <g id="ytick_4">
     <g id="line2d_21">
      <path d="M 70.4 119.234292 
L 516.8 119.234292 
" clip-path="url(#p8cfe53ce4f)" style="fill: none; stroke: #b0b0b0; stroke-width: 0.8; stroke-linecap: square"/>
     </g>
     <g id="line2d_22">
      <g>
       <use xlink:href="#meda365b75a" x="70.4" y="119.234292" style="stroke: #000000; stroke-width: 0.8"/>
      </g>
     </g>
     <g id="text_12">
      <!-- 3000 -->
      <g transform="translate(27.4 125.381011)scale(0.18 -0.18)">
       <use xlink:href="#STIXGeneral-Regular-33"/>
       <use xlink:href="#STIXGeneral-Regular-30" x="49.999985"/>
       <use xlink:href="#STIXGeneral-Regular-30" x="99.999969"/>
       <use xlink:href="#STIXGeneral-Regular-30" x="149.999954"/>
      </g>
     </g>
    </g>
    <g id="ytick_5">
     <g id="line2d_23">
      <path d="M 70.4 61.419252 
L 516.8 61.419252 
" clip-path="url(#p8cfe53ce4f)" style="fill: none; stroke: #b0b0b0; stroke-width: 0.8; stroke-linecap: square"/>
     </g>
     <g id="line2d_24">
      <g>
       <use xlink:href="#meda365b75a" x="70.4" y="61.419252" style="stroke: #000000; stroke-width: 0.8"/>
      </g>
     </g>
     <g id="text_13">
      <!-- 4000 -->
      <g transform="translate(27.4 67.565971)scale(0.18 -0.18)">
       <defs>
        <path id="STIXGeneral-Regular-34" d="M 3027 1069 
L 2368 1069 
L 2368 0 
L 1869 0 
L 1869 1069 
L 77 1069 
L 77 1478 
L 2086 4326 
L 2368 4326 
L 2368 1478 
L 3027 1478 
L 3027 1069 
z
M 1869 1478 
L 1869 3674 
L 333 1478 
L 1869 1478 
z
" transform="scale(0.015625)"/>
       </defs>
       <use xlink:href="#STIXGeneral-Regular-34"/>
       <use xlink:href="#STIXGeneral-Regular-30" x="49.999985"/>
       <use xlink:href="#STIXGeneral-Regular-30" x="99.999969"/>
       <use xlink:href="#STIXGeneral-Regular-30" x="149.999954"/>
      </g>
     </g>
    </g>
    <g id="text_14">
     <!-- Average Return -->
     <g transform="translate(19.476562 223.764844)rotate(-90)scale(0.18 -0.18)">
      <defs>
       <path id="STIXGeneral-Regular-41" d="M 4525 0 
L 2893 0 
L 2893 122 
Q 3149 122 3245 179 
Q 3334 224 3334 333 
Q 3334 499 3213 781 
L 2950 1382 
L 1274 1382 
L 979 653 
Q 922 506 922 384 
Q 922 237 1027 179 
Q 1133 122 1370 122 
L 1370 0 
L 96 0 
L 96 122 
Q 365 147 486 316 
Q 608 486 902 1190 
L 2221 4314 
L 2349 4314 
L 3923 710 
Q 4064 378 4176 262 
Q 4288 147 4525 122 
L 4525 0 
z
M 2861 1645 
L 2118 3405 
L 1382 1645 
L 2861 1645 
z
" transform="scale(0.015625)"/>
       <path id="STIXGeneral-Regular-76" d="M 3053 2880 
L 3053 2784 
Q 2906 2771 2835 2688 
Q 2765 2605 2637 2285 
L 1818 230 
Q 1690 -90 1638 -90 
Q 1587 -90 1523 77 
Q 1510 96 1497 141 
Q 1485 186 1472 211 
L 704 2048 
Q 499 2534 403 2652 
Q 307 2771 122 2784 
L 122 2880 
L 1376 2880 
L 1376 2784 
Q 1210 2771 1146 2732 
Q 1082 2694 1082 2611 
Q 1082 2509 1139 2368 
L 1792 730 
L 2426 2387 
Q 2464 2483 2464 2579 
Q 2464 2758 2163 2784 
L 2163 2880 
L 3053 2880 
z
" transform="scale(0.015625)"/>
       <path id="STIXGeneral-Regular-65" d="M 2611 1050 
L 2714 1005 
Q 2330 -64 1376 -64 
Q 813 -64 486 329 
Q 160 723 160 1389 
Q 160 2074 525 2509 
Q 890 2944 1485 2944 
Q 2061 2944 2374 2502 
Q 2560 2246 2592 1773 
L 621 1773 
Q 646 1370 700 1158 
Q 755 947 915 730 
Q 1184 378 1626 378 
Q 1939 378 2153 531 
Q 2368 685 2611 1050 
z
M 634 1978 
L 1939 1978 
Q 1882 2381 1750 2547 
Q 1619 2714 1312 2714 
Q 1043 2714 864 2525 
Q 685 2336 634 1978 
z
" transform="scale(0.015625)"/>
       <path id="STIXGeneral-Regular-72" d="M 1024 2931 
L 1024 2342 
Q 1267 2688 1430 2816 
Q 1594 2944 1792 2944 
Q 1958 2944 2051 2854 
Q 2144 2765 2144 2605 
Q 2144 2470 2077 2393 
Q 2010 2317 1894 2317 
Q 1773 2317 1638 2445 
Q 1536 2541 1472 2541 
Q 1338 2541 1181 2355 
Q 1024 2170 1024 2016 
L 1024 576 
Q 1024 301 1133 205 
Q 1242 109 1568 96 
L 1568 0 
L 32 0 
L 32 96 
Q 339 154 412 224 
Q 486 294 486 538 
L 486 2138 
Q 486 2349 438 2435 
Q 390 2522 269 2522 
Q 166 2522 45 2496 
L 45 2598 
Q 448 2726 992 2944 
L 1024 2931 
z
" transform="scale(0.015625)"/>
       <path id="STIXGeneral-Regular-61" d="M 2829 422 
L 2829 243 
Q 2586 -64 2253 -64 
Q 1888 -64 1843 403 
L 1837 403 
Q 1427 -64 909 -64 
Q 608 -64 422 112 
Q 237 288 237 602 
Q 237 1050 685 1350 
Q 992 1555 1837 1869 
L 1837 2214 
Q 1837 2502 1699 2646 
Q 1562 2790 1338 2790 
Q 1146 2790 1018 2697 
Q 890 2605 890 2477 
Q 890 2419 909 2348 
Q 928 2278 928 2208 
Q 928 2112 841 2029 
Q 755 1946 634 1946 
Q 525 1946 441 2029 
Q 358 2112 358 2240 
Q 358 2547 685 2752 
Q 986 2944 1421 2944 
Q 1939 2944 2176 2656 
Q 2291 2522 2323 2384 
Q 2355 2246 2355 1946 
L 2355 723 
Q 2355 301 2554 301 
Q 2682 301 2829 422 
z
M 1837 813 
L 1837 1715 
Q 1248 1510 1018 1293 
Q 800 1094 800 800 
Q 800 557 921 432 
Q 1043 307 1242 307 
Q 1453 307 1613 410 
Q 1747 506 1792 589 
Q 1837 672 1837 813 
z
" transform="scale(0.015625)"/>
       <path id="STIXGeneral-Regular-67" d="M 3008 2483 
L 2477 2483 
Q 2598 2208 2598 1946 
Q 2598 1453 2265 1203 
Q 1933 954 1600 954 
Q 1530 954 1357 973 
L 1235 986 
Q 1107 947 979 812 
Q 851 678 851 582 
Q 851 435 1350 410 
L 2176 371 
Q 2528 358 2739 172 
Q 2950 -13 2950 -314 
Q 2950 -685 2566 -986 
Q 2035 -1395 1286 -1395 
Q 826 -1395 502 -1212 
Q 179 -1030 179 -774 
Q 179 -595 320 -419 
Q 461 -243 806 6 
Q 602 102 534 172 
Q 467 243 467 346 
Q 467 531 762 787 
Q 909 915 1037 1043 
Q 717 1203 579 1401 
Q 442 1600 442 1901 
Q 442 2336 752 2640 
Q 1062 2944 1510 2944 
Q 1766 2944 2022 2848 
L 2163 2797 
Q 2349 2733 2515 2733 
L 3008 2733 
L 3008 2483 
z
M 973 2163 
L 973 2144 
Q 973 1683 1155 1398 
Q 1338 1114 1632 1114 
Q 1850 1114 1978 1270 
Q 2106 1427 2106 1690 
Q 2106 2112 1914 2464 
Q 1754 2765 1446 2765 
Q 1222 2765 1097 2605 
Q 973 2445 973 2163 
z
M 2771 -410 
Q 2771 -230 2595 -163 
Q 2419 -96 1978 -96 
Q 1344 -96 941 -13 
Q 749 -243 688 -348 
Q 627 -454 627 -563 
Q 627 -774 880 -902 
Q 1133 -1030 1555 -1030 
Q 2099 -1030 2435 -860 
Q 2771 -691 2771 -410 
z
" transform="scale(0.015625)"/>
       <path id="STIXGeneral-Regular-20" transform="scale(0.015625)"/>
       <path id="STIXGeneral-Regular-52" d="M 4224 0 
L 3187 0 
L 1664 1971 
L 1306 1958 
L 1306 717 
Q 1306 352 1405 249 
Q 1504 147 1875 122 
L 1875 0 
L 109 0 
L 109 122 
Q 474 154 563 262 
Q 653 371 653 794 
L 653 3526 
Q 653 3885 563 3987 
Q 474 4090 109 4115 
L 109 4237 
L 1850 4237 
Q 2726 4237 3187 3859 
Q 3501 3603 3501 3091 
Q 3501 2221 2342 2042 
L 3622 422 
Q 3757 256 3878 198 
Q 4000 141 4224 122 
L 4224 0 
z
M 1306 3731 
L 1306 2195 
Q 1766 2202 1990 2246 
Q 2214 2291 2438 2413 
Q 2803 2618 2803 3142 
Q 2803 4000 1632 4000 
Q 1459 4000 1382 3945 
Q 1306 3891 1306 3731 
z
" transform="scale(0.015625)"/>
       <path id="STIXGeneral-Regular-74" d="M 1702 493 
L 1786 422 
Q 1478 -64 1011 -64 
Q 448 -64 448 749 
L 448 2675 
L 109 2675 
Q 83 2694 83 2720 
Q 83 2771 192 2842 
Q 435 2982 813 3526 
Q 826 3546 874 3606 
Q 922 3667 941 3706 
Q 986 3706 986 3622 
L 986 2880 
L 1632 2880 
L 1632 2675 
L 986 2675 
L 986 845 
Q 986 538 1062 403 
Q 1139 269 1318 269 
Q 1510 269 1702 493 
z
" transform="scale(0.015625)"/>
       <path id="STIXGeneral-Regular-75" d="M 3072 320 
L 3072 230 
Q 2573 96 2195 -58 
L 2163 -38 
L 2163 486 
L 2150 486 
Q 1747 -64 1235 -64 
Q 870 -64 662 160 
Q 454 384 454 755 
L 454 2362 
Q 454 2598 371 2688 
Q 288 2778 58 2790 
L 58 2880 
L 992 2880 
L 992 813 
Q 992 595 1123 451 
Q 1254 307 1446 307 
Q 1760 307 1984 506 
Q 2067 582 2099 649 
Q 2131 717 2131 877 
L 2131 2355 
Q 2131 2605 2041 2678 
Q 1952 2752 1658 2771 
L 1658 2880 
L 2669 2880 
L 2669 685 
Q 2669 461 2742 390 
Q 2816 320 3034 320 
L 3072 320 
z
" transform="scale(0.015625)"/>
       <path id="STIXGeneral-Regular-6e" d="M 3104 0 
L 1773 0 
L 1779 96 
Q 2016 115 2096 233 
Q 2176 352 2176 672 
L 2176 1946 
Q 2176 2592 1709 2592 
Q 1549 2592 1408 2515 
Q 1267 2438 1050 2227 
L 1050 461 
Q 1050 269 1136 192 
Q 1222 115 1466 96 
L 1466 0 
L 115 0 
L 115 96 
Q 358 115 435 214 
Q 512 314 512 602 
L 512 2157 
Q 512 2394 467 2483 
Q 422 2573 288 2573 
Q 160 2573 102 2547 
L 102 2656 
Q 550 2784 979 2944 
L 1030 2925 
L 1030 2426 
L 1037 2426 
Q 1491 2944 1958 2944 
Q 2323 2944 2518 2688 
Q 2714 2432 2714 1958 
L 2714 544 
Q 2714 288 2790 205 
Q 2867 122 3104 96 
L 3104 0 
z
" transform="scale(0.015625)"/>
      </defs>
      <use xlink:href="#STIXGeneral-Regular-41"/>
      <use xlink:href="#STIXGeneral-Regular-76" x="72.199982"/>
      <use xlink:href="#STIXGeneral-Regular-65" x="122.199966"/>
      <use xlink:href="#STIXGeneral-Regular-72" x="166.59996"/>
      <use xlink:href="#STIXGeneral-Regular-61" x="199.899948"/>
      <use xlink:href="#STIXGeneral-Regular-67" x="244.299942"/>
      <use xlink:href="#STIXGeneral-Regular-65" x="294.299927"/>
      <use xlink:href="#STIXGeneral-Regular-20" x="338.699921"/>
      <use xlink:href="#STIXGeneral-Regular-52" x="363.699905"/>
      <use xlink:href="#STIXGeneral-Regular-65" x="430.399902"/>
      <use xlink:href="#STIXGeneral-Regular-74" x="474.799896"/>
      <use xlink:href="#STIXGeneral-Regular-75" x="502.599884"/>
      <use xlink:href="#STIXGeneral-Regular-72" x="552.599869"/>
      <use xlink:href="#STIXGeneral-Regular-6e" x="585.899857"/>
     </g>
    </g>
   </g>
   <g id="line2d_25">
    <path d="M 90.690909 292.249581 
L 92.048161 292.469469 
L 93.405412 291.46244 
L 94.762663 291.933996 
L 96.119915 292.057553 
L 98.834418 291.611925 
L 100.191669 291.109478 
L 101.548921 292.077416 
L 102.906172 291.967358 
L 104.263424 291.53684 
L 105.620675 290.846533 
L 106.977926 291.048105 
L 108.335178 291.024057 
L 109.692429 292.257821 
L 111.049681 291.475065 
L 112.406932 291.100934 
L 113.764184 290.869687 
L 115.121435 291.167912 
L 116.478687 291.77226 
L 117.835938 291.727136 
L 119.193189 291.137196 
L 120.550441 292.031016 
L 121.907692 291.329547 
L 123.264944 291.179918 
L 124.622195 291.489716 
L 127.336698 286.523252 
L 128.69395 291.141587 
L 130.051201 290.614673 
L 131.408452 290.62002 
L 132.765704 291.5011 
L 134.122955 290.378981 
L 135.480207 290.260376 
L 136.837458 290.574223 
L 138.19471 291.826494 
L 140.909213 289.857915 
L 142.266464 291.01163 
L 143.623715 286.8538 
L 144.980967 289.686618 
L 146.338218 290.290508 
L 147.69547 292.406811 
L 149.052721 287.290305 
L 150.409973 290.011797 
L 151.767224 289.718477 
L 153.124476 291.114921 
L 154.481727 289.317749 
L 155.838978 291.573314 
L 157.19623 291.392781 
L 158.553481 290.295143 
L 159.910733 290.287884 
L 161.267984 289.509027 
L 162.625236 291.792799 
L 163.982487 291.326322 
L 165.339739 282.787956 
L 166.69699 291.836823 
L 168.054241 290.764128 
L 169.411493 289.965368 
L 170.768744 289.610056 
L 172.125996 291.505301 
L 173.483247 291.494968 
L 174.840499 289.747066 
L 176.19775 290.717341 
L 177.555002 289.399534 
L 178.912253 291.369233 
L 180.269504 291.297872 
L 181.626756 288.182541 
L 182.984007 291.326265 
L 184.341259 289.330095 
L 185.69851 254.154185 
L 187.055762 290.240676 
L 188.413013 239.127021 
L 189.770265 290.518768 
L 191.127516 289.556747 
L 192.484767 291.174999 
L 193.842019 291.149925 
L 195.19927 287.946196 
L 196.556522 287.895268 
L 197.913773 286.870303 
L 199.271025 283.787965 
L 200.628276 289.560655 
L 201.985528 291.77005 
L 203.342779 290.844452 
L 204.70003 291.665382 
L 206.057282 290.377913 
L 207.414533 279.450369 
L 208.771785 291.176433 
L 210.129036 290.198656 
L 211.486288 291.051425 
L 212.843539 245.990659 
L 214.200791 290.114448 
L 215.558042 290.642536 
L 216.915293 291.404919 
L 218.272545 290.433938 
L 219.629796 290.081599 
L 220.987048 262.711471 
L 222.344299 291.134645 
L 223.701551 291.190655 
L 225.058802 290.95823 
L 226.416054 292.05458 
L 227.773305 291.698134 
L 229.130556 249.214923 
L 230.487808 290.46027 
L 231.845059 290.626097 
L 233.202311 291.493449 
L 234.559562 291.270001 
L 235.916814 291.39326 
L 237.274065 237.039741 
L 238.631317 290.100151 
L 239.988568 290.654789 
L 241.345819 291.952819 
L 242.703071 291.717455 
L 244.060322 291.925783 
L 245.417574 291.895395 
L 246.774825 291.714952 
L 248.132077 291.779786 
L 249.489328 289.11705 
L 250.84658 290.879327 
L 252.203831 291.445458 
L 253.561082 290.827221 
L 254.918334 236.131469 
L 256.275585 291.381377 
L 257.632837 268.493963 
L 258.990088 291.749283 
L 260.34734 291.320647 
L 261.704591 291.319488 
L 263.061843 258.490709 
L 264.419094 235.029832 
L 265.776345 277.754817 
L 267.133597 286.397106 
L 268.490848 289.612589 
L 269.8481 292.082739 
L 271.205351 259.877116 
L 272.562603 283.763379 
L 273.919854 251.103863 
L 275.277106 291.668297 
L 276.634357 291.518686 
L 277.991608 256.661084 
L 279.34886 258.05416 
L 280.706111 288.834394 
L 282.063363 290.951675 
L 283.420614 290.159744 
L 284.777866 291.844539 
L 286.135117 291.402526 
L 287.492369 253.097646 
L 288.84962 290.703115 
L 290.206871 287.195049 
L 291.564123 291.725844 
L 292.921374 290.986927 
L 294.278626 291.371835 
L 295.635877 239.448797 
L 296.993129 289.981081 
L 298.35038 291.261695 
L 299.707631 291.024797 
L 301.064883 259.663499 
L 302.422134 245.386547 
L 303.779386 290.954175 
L 305.136637 290.950726 
L 306.493889 291.737738 
L 307.85114 276.754892 
L 309.208392 291.795926 
L 310.565643 291.881413 
L 311.922894 283.569797 
L 313.280146 291.566269 
L 314.637397 290.351031 
L 315.994649 291.389853 
L 317.3519 153.09142 
L 318.709152 290.189484 
L 320.066403 253.405445 
L 321.423655 291.977709 
L 322.780906 268.619776 
L 324.138157 291.753748 
L 325.495409 291.931483 
L 326.85266 269.598901 
L 328.209912 291.75417 
L 329.567163 255.006283 
L 330.924415 291.685482 
L 332.281666 274.586631 
L 333.638918 263.765345 
L 334.996169 288.469592 
L 337.710672 248.198739 
L 339.067923 253.137058 
L 340.425175 240.785565 
L 341.782426 259.643816 
L 343.139678 223.079738 
L 344.496929 291.722895 
L 345.854181 291.821116 
L 347.211432 260.994163 
L 348.568683 290.224369 
L 349.925935 231.155218 
L 351.283186 291.256672 
L 352.640438 236.838507 
L 353.997689 258.404589 
L 355.354941 228.259689 
L 356.712192 291.77085 
L 358.069444 224.309549 
L 359.426695 226.860419 
L 360.783946 246.960645 
L 362.141198 227.845117 
L 363.498449 283.543501 
L 364.855701 268.89517 
L 366.212952 291.460224 
L 367.570204 290.842933 
L 368.927455 253.164844 
L 370.284707 290.367817 
L 371.641958 243.222393 
L 372.999209 291.421431 
L 374.356461 291.555533 
L 375.713712 291.510558 
L 377.070964 291.014026 
L 378.428215 286.278758 
L 379.785467 207.26882 
L 381.142718 291.31851 
L 382.49997 242.215613 
L 383.857221 290.909967 
L 385.214472 268.535364 
L 386.571724 264.522318 
L 387.928975 201.552753 
L 389.286227 291.466192 
L 390.643478 291.418457 
L 392.00073 291.726392 
L 393.357981 288.590083 
L 394.715233 291.894545 
L 396.072484 263.263668 
L 397.429735 291.451248 
L 398.786987 291.772825 
L 400.144238 274.542562 
L 401.50149 265.605888 
L 402.858741 264.964396 
L 404.215993 230.926358 
L 405.573244 291.908035 
L 406.930496 282.804873 
L 408.287747 291.581728 
L 409.644998 270.921353 
L 411.00225 291.582849 
L 412.359501 291.253242 
L 413.716753 225.649931 
L 415.074004 272.742199 
L 416.431256 291.540921 
L 417.788507 239.513642 
L 419.145759 226.790684 
L 420.50301 230.504969 
L 421.860261 291.562944 
L 423.217513 239.17334 
L 424.574764 278.043843 
L 425.932016 214.360493 
L 427.289267 224.413238 
L 428.646519 267.686029 
L 430.00377 224.601137 
L 431.361022 189.322042 
L 432.718273 205.112931 
L 434.075524 211.359686 
L 435.432776 262.928669 
L 436.790027 291.549528 
L 438.147279 291.185942 
L 439.50453 289.929154 
L 440.861782 76.590576 
L 442.219033 195.159512 
L 443.576285 291.505212 
L 444.933536 273.709131 
L 446.290787 291.7976 
L 447.648039 273.25562 
L 449.00529 291.928589 
L 450.362542 291.082898 
L 451.719793 291.911291 
L 453.077045 290.713072 
L 455.791548 291.534161 
L 457.148799 164.155449 
L 458.50605 291.620777 
L 459.863302 291.823609 
L 461.220553 196.151042 
L 463.935056 291.802444 
L 465.292308 201.911105 
L 466.649559 291.554491 
L 468.006811 291.813506 
L 469.364062 208.413547 
L 470.721313 53.146084 
L 472.078565 183.222852 
L 473.435816 258.982585 
L 474.793068 262.844632 
L 476.150319 291.662465 
L 477.507571 197.830931 
L 478.864822 192.887287 
L 480.222074 230.193923 
L 481.579325 57.765316 
L 482.936576 182.281692 
L 484.293828 288.616717 
L 485.651079 167.724469 
L 487.008331 289.627555 
L 488.365582 239.951041 
L 489.722834 183.562487 
L 491.080085 55.699741 
L 492.437337 211.993577 
L 493.794588 291.80905 
L 495.151839 290.081917 
L 496.509091 190.239644 
L 496.509091 190.239644 
" clip-path="url(#p8cfe53ce4f)" style="fill: none; stroke: #1f77b4; stroke-width: 1.5; stroke-linecap: square"/>
   </g>
   <g id="line2d_26">
    <path d="M 90.690909 292.381573 
L 92.048161 292.416396 
L 93.405412 291.685471 
L 94.762663 291.908336 
L 96.119915 291.900552 
L 97.477166 292.422534 
L 98.834418 292.182417 
L 100.191669 292.133154 
L 101.548921 292.345574 
L 102.906172 291.555628 
L 104.263424 292.463988 
L 105.620675 292.00867 
L 106.977926 292.20624 
L 108.335178 291.627518 
L 109.692429 292.302979 
L 111.049681 291.398331 
L 112.406932 292.082608 
L 113.764184 291.59103 
L 115.121435 290.887599 
L 117.835938 292.312991 
L 119.193189 292.059804 
L 120.550441 290.950627 
L 121.907692 291.813191 
L 124.622195 291.650768 
L 125.979447 291.801163 
L 127.336698 290.505723 
L 128.69395 291.475496 
L 130.051201 291.707179 
L 131.408452 290.255002 
L 132.765704 291.435891 
L 134.122955 291.301217 
L 135.480207 291.336021 
L 136.837458 291.744876 
L 138.19471 292.018946 
L 139.551961 289.990851 
L 140.909213 290.517355 
L 143.623715 290.337445 
L 144.980967 288.690769 
L 146.338218 291.513004 
L 147.69547 291.20059 
L 149.052721 291.940718 
L 150.409973 285.190982 
L 151.767224 290.936095 
L 153.124476 290.804438 
L 155.838978 291.174587 
L 157.19623 290.160869 
L 158.553481 264.694821 
L 159.910733 291.155168 
L 161.267984 290.130142 
L 162.625236 291.512606 
L 163.982487 291.7088 
L 165.339739 291.240843 
L 166.69699 291.468375 
L 168.054241 290.887288 
L 169.411493 289.830401 
L 170.768744 291.076156 
L 172.125996 290.043764 
L 173.483247 290.545919 
L 174.840499 290.763347 
L 176.19775 291.805301 
L 177.555002 249.400469 
L 178.912253 290.913882 
L 180.269504 290.85615 
L 181.626756 289.879905 
L 182.984007 290.925803 
L 184.341259 291.474183 
L 185.69851 290.872874 
L 187.055762 291.746021 
L 188.413013 291.717662 
L 189.770265 240.514416 
L 191.127516 291.136494 
L 192.484767 287.929372 
L 193.842019 280.067938 
L 195.19927 290.866047 
L 196.556522 291.973208 
L 197.913773 291.40639 
L 199.271025 242.186514 
L 200.628276 291.405951 
L 201.985528 291.205346 
L 203.342779 279.195038 
L 204.70003 242.569154 
L 206.057282 290.641617 
L 207.414533 291.158259 
L 208.771785 291.080129 
L 210.129036 289.32818 
L 211.486288 291.27464 
L 212.843539 291.519931 
L 214.200791 283.222602 
L 215.558042 291.554013 
L 216.915293 244.211721 
L 218.272545 289.162558 
L 219.629796 273.663166 
L 220.987048 245.791207 
L 222.344299 291.351557 
L 223.701551 240.537014 
L 225.058802 247.880685 
L 226.416054 290.496179 
L 227.773305 291.765578 
L 230.487808 291.420921 
L 231.845059 243.893561 
L 233.202311 291.544704 
L 234.559562 236.944867 
L 235.916814 291.856766 
L 237.274065 236.712827 
L 238.631317 291.340696 
L 239.988568 291.950099 
L 241.345819 291.288835 
L 242.703071 291.962675 
L 244.060322 291.771508 
L 245.417574 281.571224 
L 246.774825 291.654234 
L 248.132077 291.269313 
L 249.489328 240.841337 
L 250.84658 243.596448 
L 252.203831 286.98815 
L 253.561082 291.794564 
L 254.918334 291.946643 
L 256.275585 243.482893 
L 257.632837 241.447068 
L 258.990088 291.450959 
L 260.34734 252.840506 
L 261.704591 239.716831 
L 263.061843 291.535779 
L 264.419094 291.509462 
L 265.776345 289.756405 
L 267.133597 236.112029 
L 268.490848 236.426225 
L 269.8481 291.789336 
L 271.205351 241.49014 
L 272.562603 291.619718 
L 273.919854 280.143891 
L 275.277106 291.439647 
L 276.634357 291.874687 
L 277.991608 238.39934 
L 279.34886 284.528547 
L 280.706111 239.149065 
L 282.063363 234.540775 
L 283.420614 242.649553 
L 284.777866 291.583187 
L 286.135117 245.11146 
L 287.492369 242.610144 
L 288.84962 239.37012 
L 290.206871 291.411368 
L 291.564123 241.183446 
L 292.921374 240.363908 
L 294.278626 236.316449 
L 295.635877 291.868089 
L 296.993129 290.228518 
L 298.35038 242.067289 
L 299.707631 234.846217 
L 301.064883 236.043617 
L 302.422134 238.179118 
L 303.779386 291.338031 
L 305.136637 290.011434 
L 306.493889 238.9929 
L 307.85114 291.280651 
L 309.208392 291.938092 
L 310.565643 291.685928 
L 311.922894 291.290208 
L 313.280146 243.187194 
L 314.637397 291.207444 
L 315.994649 291.754233 
L 317.3519 277.287515 
L 318.709152 238.358886 
L 320.066403 237.429008 
L 321.423655 291.463053 
L 322.780906 239.65146 
L 324.138157 237.68817 
L 325.495409 289.633027 
L 326.85266 291.890615 
L 328.209912 292.157945 
L 329.567163 291.730604 
L 330.924415 236.077871 
L 332.281666 238.112174 
L 333.638918 291.418095 
L 334.996169 240.134169 
L 336.35342 237.296299 
L 337.710672 286.448923 
L 339.067923 237.369767 
L 340.425175 238.282073 
L 341.782426 291.974153 
L 343.139678 238.45412 
L 344.496929 238.249227 
L 345.854181 291.533832 
L 347.211432 238.012681 
L 348.568683 291.117643 
L 349.925935 235.590667 
L 351.283186 283.84917 
L 352.640438 237.062226 
L 353.997689 291.876837 
L 355.354941 282.081886 
L 356.712192 249.090486 
L 358.069444 239.912867 
L 359.426695 289.592356 
L 360.783946 241.261516 
L 362.141198 237.218955 
L 363.498449 291.334305 
L 364.855701 236.55722 
L 366.212952 291.197516 
L 367.570204 241.008258 
L 368.927455 248.106349 
L 370.284707 236.454939 
L 371.641958 292.021143 
L 372.999209 292.16363 
L 374.356461 236.39856 
L 375.713712 291.101046 
L 377.070964 275.060037 
L 378.428215 237.1187 
L 379.785467 239.680823 
L 381.142718 291.595742 
L 382.49997 234.662972 
L 383.857221 240.025134 
L 385.214472 292.138741 
L 386.571724 236.460976 
L 387.928975 290.691209 
L 389.286227 269.740819 
L 390.643478 236.502323 
L 392.00073 238.021492 
L 393.357981 238.21305 
L 394.715233 289.692583 
L 396.072484 292.231454 
L 397.429735 291.572096 
L 398.786987 238.64445 
L 400.144238 291.909538 
L 401.50149 239.980661 
L 402.858741 236.331496 
L 404.215993 277.574605 
L 405.573244 291.938684 
L 406.930496 238.575597 
L 408.287747 291.697711 
L 409.644998 235.25666 
L 411.00225 291.815646 
L 412.359501 291.713335 
L 413.716753 236.296766 
L 415.074004 277.383719 
L 416.431256 291.700844 
L 417.788507 237.427752 
L 419.145759 240.461478 
L 420.50301 244.638301 
L 421.860261 291.583882 
L 423.217513 236.632431 
L 424.574764 241.274516 
L 425.932016 241.732244 
L 427.289267 250.0638 
L 428.646519 237.21814 
L 430.00377 238.796158 
L 431.361022 239.310001 
L 432.718273 233.463924 
L 434.075524 291.625869 
L 435.432776 237.499572 
L 436.790027 239.854106 
L 438.147279 292.074408 
L 439.50453 236.749025 
L 440.861782 289.794507 
L 442.219033 292.175836 
L 443.576285 235.713771 
L 444.933536 235.927666 
L 446.290787 278.26622 
L 447.648039 238.72059 
L 449.00529 235.181325 
L 450.362542 291.758281 
L 451.719793 236.885171 
L 453.077045 237.405298 
L 454.434296 236.706242 
L 455.791548 291.446791 
L 457.148799 238.670397 
L 458.50605 241.222072 
L 459.863302 239.072523 
L 461.220553 291.805445 
L 462.577805 240.612812 
L 463.935056 237.128891 
L 465.292308 291.814496 
L 466.649559 237.183622 
L 468.006811 289.875409 
L 469.364062 235.595099 
L 470.721313 291.943265 
L 472.078565 291.705716 
L 473.435816 291.140794 
L 474.793068 286.182089 
L 476.150319 243.271079 
L 477.507571 240.963531 
L 478.864822 236.147796 
L 481.579325 237.072124 
L 482.936576 237.248989 
L 484.293828 234.981163 
L 485.651079 241.362213 
L 487.008331 273.941655 
L 488.365582 233.875285 
L 489.722834 235.517452 
L 491.080085 236.833747 
L 492.437337 235.690848 
L 493.794588 237.497388 
L 495.151839 236.444116 
L 496.509091 235.158868 
L 496.509091 235.158868 
" clip-path="url(#p8cfe53ce4f)" style="fill: none; stroke: #ff7f0e; stroke-width: 1.5; stroke-linecap: square"/>
   </g>
   <g id="line2d_27">
    <path d="M 90.690909 292.354474 
L 92.048161 292.357092 
L 93.405412 291.751209 
L 94.762663 292.263322 
L 96.119915 291.655066 
L 97.477166 291.742571 
L 98.834418 292.364726 
L 100.191669 292.193542 
L 101.548921 292.377003 
L 104.263424 292.531875 
L 105.620675 291.46107 
L 106.977926 291.415705 
L 108.335178 292.127366 
L 109.692429 290.887605 
L 111.049681 291.997719 
L 112.406932 292.350793 
L 113.764184 291.381602 
L 115.121435 291.524942 
L 116.478687 291.78799 
L 117.835938 291.921484 
L 119.193189 291.606802 
L 120.550441 291.893949 
L 121.907692 291.907812 
L 123.264944 292.302608 
L 124.622195 291.279808 
L 125.979447 291.619527 
L 127.336698 291.119795 
L 128.69395 291.120495 
L 130.051201 290.431609 
L 131.408452 292.294915 
L 132.765704 291.407706 
L 134.122955 290.870276 
L 135.480207 291.687967 
L 136.837458 290.369226 
L 138.19471 291.763565 
L 139.551961 291.968769 
L 140.909213 291.848397 
L 142.266464 291.049097 
L 143.623715 291.362655 
L 144.980967 290.13742 
L 146.338218 291.801311 
L 147.69547 292.238614 
L 149.052721 290.951541 
L 150.409973 290.772128 
L 151.767224 291.358866 
L 153.124476 291.546734 
L 154.481727 290.686539 
L 157.19623 291.832814 
L 158.553481 290.50253 
L 159.910733 288.240728 
L 161.267984 291.579463 
L 162.625236 291.998637 
L 163.982487 289.843405 
L 165.339739 289.735913 
L 166.69699 290.940028 
L 168.054241 291.426339 
L 169.411493 286.797369 
L 170.768744 289.913298 
L 172.125996 291.605192 
L 173.483247 290.316316 
L 174.840499 290.184992 
L 176.19775 291.601555 
L 177.555002 292.071253 
L 178.912253 291.8512 
L 180.269504 290.738494 
L 181.626756 283.904848 
L 182.984007 290.89086 
L 184.341259 292.129441 
L 185.69851 289.927217 
L 187.055762 291.942974 
L 188.413013 292.283799 
L 189.770265 290.3923 
L 191.127516 276.669994 
L 192.484767 291.673803 
L 193.842019 289.633894 
L 195.19927 291.065748 
L 196.556522 291.120489 
L 197.913773 291.348287 
L 199.271025 292.210049 
L 200.628276 291.382627 
L 201.985528 291.082086 
L 203.342779 287.786206 
L 204.70003 290.459003 
L 206.057282 291.125622 
L 207.414533 290.507648 
L 208.771785 292.060616 
L 210.129036 292.082008 
L 211.486288 291.258678 
L 212.843539 291.739183 
L 214.200791 289.733357 
L 215.558042 290.16069 
L 216.915293 291.484944 
L 218.272545 291.30754 
L 219.629796 290.046244 
L 220.987048 290.976526 
L 222.344299 291.294194 
L 223.701551 291.884134 
L 225.058802 291.032897 
L 226.416054 292.033028 
L 227.773305 291.719449 
L 229.130556 292.082266 
L 230.487808 291.353483 
L 231.845059 292.093485 
L 235.916814 291.938139 
L 237.274065 291.720087 
L 238.631317 292.171068 
L 239.988568 290.265896 
L 241.345819 291.990356 
L 242.703071 291.076304 
L 244.060322 291.457801 
L 245.417574 291.522868 
L 246.774825 286.144024 
L 248.132077 292.124471 
L 249.489328 289.965669 
L 250.84658 290.830811 
L 252.203831 291.830543 
L 253.561082 291.793614 
L 254.918334 292.23562 
L 256.275585 289.901155 
L 257.632837 292.090558 
L 258.990088 290.975563 
L 260.34734 222.222541 
L 261.704591 289.217569 
L 263.061843 264.398298 
L 264.419094 292.255162 
L 265.776345 274.158339 
L 267.133597 287.577754 
L 268.490848 291.675226 
L 269.8481 247.003181 
L 271.205351 291.68949 
L 272.562603 269.969914 
L 273.919854 291.486539 
L 275.277106 248.716212 
L 276.634357 292.283472 
L 277.991608 287.91597 
L 279.34886 291.465885 
L 280.706111 240.825673 
L 282.063363 225.082183 
L 283.420614 291.880965 
L 284.777866 291.221775 
L 286.135117 286.755191 
L 287.492369 220.767468 
L 288.84962 225.907297 
L 290.206871 173.355324 
L 291.564123 291.559522 
L 292.921374 212.002949 
L 294.278626 191.010133 
L 295.635877 195.935908 
L 296.993129 288.461659 
L 298.35038 292.187531 
L 299.707631 292.019487 
L 301.064883 183.906286 
L 302.422134 285.635455 
L 303.779386 282.649126 
L 305.136637 241.628541 
L 306.493889 193.105759 
L 307.85114 211.544515 
L 309.208392 291.183859 
L 310.565643 123.059838 
L 311.922894 282.211465 
L 313.280146 292.298027 
L 314.637397 60.117143 
L 315.994649 292.320275 
L 317.3519 273.411403 
L 318.709152 218.47371 
L 320.066403 277.468884 
L 321.423655 288.381136 
L 322.780906 174.871875 
L 324.138157 291.92082 
L 325.495409 290.842882 
L 326.85266 292.205308 
L 328.209912 288.377672 
L 329.567163 247.974794 
L 330.924415 159.685087 
L 332.281666 291.287972 
L 333.638918 248.880701 
L 334.996169 111.222378 
L 336.35342 269.869246 
L 337.710672 252.518864 
L 339.067923 86.572196 
L 340.425175 292.048714 
L 341.782426 270.722611 
L 343.139678 288.662786 
L 344.496929 292.076597 
L 345.854181 237.901634 
L 347.211432 292.288641 
L 348.568683 176.213477 
L 349.925935 284.26191 
L 351.283186 48.510266 
L 352.640438 263.515792 
L 353.997689 207.263513 
L 355.354941 45.282194 
L 356.712192 291.83627 
L 358.069444 162.7846 
L 359.426695 288.971066 
L 360.783946 148.131762 
L 362.141198 67.660383 
L 363.498449 246.587268 
L 364.855701 243.958751 
L 366.212952 202.313114 
L 367.570204 287.546986 
L 368.927455 291.399256 
L 370.284707 292.316789 
L 371.641958 124.05256 
L 372.999209 188.720031 
L 374.356461 45.091161 
L 375.713712 242.573611 
L 377.070964 189.652976 
L 378.428215 248.114889 
L 379.785467 64.834419 
L 381.142718 203.82097 
L 382.49997 166.092436 
L 383.857221 159.176792 
L 385.214472 292.040223 
L 386.571724 101.978112 
L 387.928975 291.973992 
L 389.286227 166.129234 
L 390.643478 272.12863 
L 392.00073 291.975804 
L 393.357981 235.623068 
L 394.715233 187.729271 
L 396.072484 103.054282 
L 397.429735 292.264208 
L 398.786987 290.737481 
L 400.144238 210.198438 
L 401.50149 264.425771 
L 402.858741 262.963586 
L 404.215993 67.991041 
L 405.573244 169.806799 
L 406.930496 171.781798 
L 408.287747 291.776175 
L 409.644998 180.274518 
L 411.00225 270.877777 
L 412.359501 265.492356 
L 413.716753 252.180344 
L 415.074004 86.306806 
L 416.431256 256.409335 
L 417.788507 41.352747 
L 419.145759 45.654886 
L 420.50301 291.171275 
L 421.860261 68.201185 
L 424.574764 292.154728 
L 425.932016 291.190117 
L 427.289267 73.933512 
L 428.646519 97.54747 
L 430.00377 230.899525 
L 431.361022 247.164734 
L 432.718273 165.611651 
L 434.075524 286.43194 
L 435.432776 100.288843 
L 436.790027 41.787574 
L 438.147279 115.404074 
L 439.50453 291.207727 
L 440.861782 250.171017 
L 442.219033 290.523181 
L 443.576285 147.220611 
L 444.933536 118.290351 
L 446.290787 290.138801 
L 447.648039 89.860596 
L 449.00529 291.613138 
L 450.362542 265.302516 
L 451.719793 292.23084 
L 453.077045 283.560597 
L 454.434296 214.961778 
L 455.791548 291.84445 
L 457.148799 178.22303 
L 458.50605 51.233445 
L 459.863302 51.2525 
L 461.220553 292.243637 
L 462.577805 253.471252 
L 463.935056 150.84427 
L 465.292308 221.669275 
L 466.649559 143.725737 
L 468.006811 139.686617 
L 469.364062 280.380006 
L 470.721313 267.560457 
L 472.078565 291.426992 
L 473.435816 48.048564 
L 474.793068 263.367062 
L 476.150319 92.360772 
L 477.507571 183.460499 
L 478.864822 227.559309 
L 480.222074 254.969761 
L 481.579325 46.463647 
L 482.936576 174.415734 
L 484.293828 147.376779 
L 485.651079 152.66032 
L 487.008331 52.872902 
L 488.365582 177.563083 
L 489.722834 290.656971 
L 491.080085 46.334806 
L 492.437337 54.327227 
L 493.794588 198.858828 
L 495.151839 40.531875 
L 496.509091 53.588109 
L 496.509091 53.588109 
" clip-path="url(#p8cfe53ce4f)" style="fill: none; stroke: #2ca02c; stroke-width: 1.5; stroke-linecap: square"/>
   </g>
   <g id="patch_3">
    <path d="M 70.4 305.131875 
L 70.4 27.931875 
" style="fill: none; stroke: #000000; stroke-width: 0.8; stroke-linejoin: miter; stroke-linecap: square"/>
   </g>
   <g id="patch_4">
    <path d="M 516.8 305.131875 
L 516.8 27.931875 
" style="fill: none; stroke: #000000; stroke-width: 0.8; stroke-linejoin: miter; stroke-linecap: square"/>
   </g>
   <g id="patch_5">
    <path d="M 70.4 305.131875 
L 516.8 305.131875 
" style="fill: none; stroke: #000000; stroke-width: 0.8; stroke-linejoin: miter; stroke-linecap: square"/>
   </g>
   <g id="patch_6">
    <path d="M 70.4 27.931875 
L 516.8 27.931875 
" style="fill: none; stroke: #000000; stroke-width: 0.8; stroke-linejoin: miter; stroke-linecap: square"/>
   </g>
   <g id="text_15">
    <!-- Meta Test Average Return -->
    <g transform="translate(178.726813 21.931875)scale(0.216 -0.216)">
     <defs>
      <path id="STIXGeneral-Regular-4d" d="M 5530 0 
L 3738 0 
L 3738 122 
Q 4115 147 4214 265 
Q 4314 384 4314 787 
L 4314 3661 
L 2682 0 
L 2592 0 
L 979 3514 
L 979 966 
Q 979 448 1088 294 
Q 1197 141 1574 122 
L 1574 0 
L 77 0 
L 77 122 
Q 358 141 480 205 
Q 602 269 650 432 
Q 698 595 698 966 
L 698 3514 
Q 698 3878 589 3984 
Q 480 4090 90 4115 
L 90 4237 
L 1357 4237 
L 2835 1024 
L 4250 4237 
L 5523 4237 
L 5523 4115 
Q 5178 4109 5072 3993 
Q 4966 3878 4966 3520 
L 4966 717 
Q 4966 378 5072 262 
Q 5178 147 5530 122 
L 5530 0 
z
" transform="scale(0.015625)"/>
      <path id="STIXGeneral-Regular-54" d="M 3795 3149 
L 3642 3149 
Q 3539 3674 3353 3821 
Q 3168 3968 2656 3968 
L 2278 3968 
L 2278 710 
Q 2278 346 2387 243 
Q 2496 141 2893 122 
L 2893 0 
L 1024 0 
L 1024 122 
Q 1427 147 1526 256 
Q 1626 365 1626 787 
L 1626 3968 
L 1242 3968 
Q 723 3968 540 3817 
Q 358 3667 262 3149 
L 109 3149 
L 154 4237 
L 3750 4237 
L 3795 3149 
z
" transform="scale(0.015625)"/>
      <path id="STIXGeneral-Regular-73" d="M 998 1926 
L 1664 1523 
Q 1984 1331 2105 1164 
Q 2227 998 2227 736 
Q 2227 416 1961 176 
Q 1696 -64 1331 -64 
Q 1030 -64 864 -6 
Q 691 51 570 51 
Q 461 51 416 -26 
L 333 -26 
L 333 979 
L 435 979 
Q 538 512 730 294 
Q 922 77 1248 77 
Q 1485 77 1632 211 
Q 1779 346 1779 550 
Q 1779 845 1440 1030 
L 1094 1222 
Q 326 1651 326 2150 
Q 326 2522 566 2730 
Q 806 2938 1210 2938 
Q 1491 2938 1638 2867 
Q 1754 2816 1818 2816 
Q 1862 2816 1920 2880 
L 1990 2880 
L 2022 2010 
L 1926 2010 
Q 1818 2445 1654 2621 
Q 1491 2797 1203 2797 
Q 986 2797 854 2688 
Q 723 2579 723 2362 
Q 723 2253 796 2128 
Q 870 2003 998 1926 
z
" transform="scale(0.015625)"/>
     </defs>
     <use xlink:href="#STIXGeneral-Regular-4d"/>
     <use xlink:href="#STIXGeneral-Regular-65" x="88.899994"/>
     <use xlink:href="#STIXGeneral-Regular-74" x="133.299988"/>
     <use xlink:href="#STIXGeneral-Regular-61" x="161.099976"/>
     <use xlink:href="#STIXGeneral-Regular-20" x="205.499969"/>
     <use xlink:href="#STIXGeneral-Regular-54" x="230.499954"/>
     <use xlink:href="#STIXGeneral-Regular-65" x="291.599945"/>
     <use xlink:href="#STIXGeneral-Regular-73" x="335.999939"/>
     <use xlink:href="#STIXGeneral-Regular-74" x="374.899933"/>
     <use xlink:href="#STIXGeneral-Regular-20" x="402.699921"/>
     <use xlink:href="#STIXGeneral-Regular-41" x="427.699905"/>
     <use xlink:href="#STIXGeneral-Regular-76" x="499.899887"/>
     <use xlink:href="#STIXGeneral-Regular-65" x="549.899872"/>
     <use xlink:href="#STIXGeneral-Regular-72" x="594.299866"/>
     <use xlink:href="#STIXGeneral-Regular-61" x="627.599854"/>
     <use xlink:href="#STIXGeneral-Regular-67" x="671.999847"/>
     <use xlink:href="#STIXGeneral-Regular-65" x="721.999832"/>
     <use xlink:href="#STIXGeneral-Regular-20" x="766.399826"/>
     <use xlink:href="#STIXGeneral-Regular-52" x="791.399811"/>
     <use xlink:href="#STIXGeneral-Regular-65" x="858.099808"/>
     <use xlink:href="#STIXGeneral-Regular-74" x="902.499802"/>
     <use xlink:href="#STIXGeneral-Regular-75" x="930.299789"/>
     <use xlink:href="#STIXGeneral-Regular-72" x="980.299774"/>
     <use xlink:href="#STIXGeneral-Regular-6e" x="1013.599762"/>
    </g>
   </g>
   <g id="legend_1">
    <g id="patch_7">
     <path d="M 80.2 98.647187 
L 168.021563 98.647187 
Q 170.821563 98.647187 170.821563 95.847187 
L 170.821563 37.731875 
Q 170.821563 34.931875 168.021563 34.931875 
L 80.2 34.931875 
Q 77.4 34.931875 77.4 37.731875 
L 77.4 95.847187 
Q 77.4 98.647187 80.2 98.647187 
z
" style="fill: #ffffff; opacity: 0.8; stroke: #cccccc; stroke-linejoin: miter"/>
    </g>
    <g id="line2d_28">
     <path d="M 83 45.431875 
L 97 45.431875 
L 111 45.431875 
" style="fill: none; stroke: #1f77b4; stroke-width: 1.5; stroke-linecap: square"/>
    </g>
    <g id="text_16">
     <!-- lr=1e-1 -->
     <g transform="translate(122.2 50.331875)scale(0.14 -0.14)">
      <defs>
       <path id="STIXGeneral-Regular-6c" d="M 1645 0 
L 134 0 
L 134 96 
Q 435 122 531 221 
Q 627 320 627 589 
L 627 3590 
Q 627 3821 569 3910 
Q 512 4000 358 4000 
Q 224 4000 122 3987 
L 122 4090 
Q 730 4237 1133 4371 
L 1165 4346 
L 1165 557 
Q 1165 288 1254 201 
Q 1344 115 1645 96 
L 1645 0 
z
" transform="scale(0.015625)"/>
       <path id="STIXGeneral-Regular-3d" d="M 4077 2048 
L 307 2048 
L 307 2470 
L 4077 2470 
L 4077 2048 
z
M 4077 768 
L 307 768 
L 307 1190 
L 4077 1190 
L 4077 768 
z
" transform="scale(0.015625)"/>
       <path id="STIXGeneral-Regular-2d" d="M 1824 1242 
L 250 1242 
L 250 1645 
L 1824 1645 
L 1824 1242 
z
" transform="scale(0.015625)"/>
      </defs>
      <use xlink:href="#STIXGeneral-Regular-6c"/>
      <use xlink:href="#STIXGeneral-Regular-72" x="27.799988"/>
      <use xlink:href="#STIXGeneral-Regular-3d" x="61.099976"/>
      <use xlink:href="#STIXGeneral-Regular-31" x="129.59996"/>
      <use xlink:href="#STIXGeneral-Regular-65" x="179.599945"/>
      <use xlink:href="#STIXGeneral-Regular-2d" x="223.999939"/>
      <use xlink:href="#STIXGeneral-Regular-31" x="257.299927"/>
     </g>
    </g>
    <g id="line2d_29">
     <path d="M 83 65.270312 
L 97 65.270312 
L 111 65.270312 
" style="fill: none; stroke: #ff7f0e; stroke-width: 1.5; stroke-linecap: square"/>
    </g>
    <g id="text_17">
     <!-- lr=1e-2 -->
     <g transform="translate(122.2 70.170312)scale(0.14 -0.14)">
      <use xlink:href="#STIXGeneral-Regular-6c"/>
      <use xlink:href="#STIXGeneral-Regular-72" x="27.799988"/>
      <use xlink:href="#STIXGeneral-Regular-3d" x="61.099976"/>
      <use xlink:href="#STIXGeneral-Regular-31" x="129.59996"/>
      <use xlink:href="#STIXGeneral-Regular-65" x="179.599945"/>
      <use xlink:href="#STIXGeneral-Regular-2d" x="223.999939"/>
      <use xlink:href="#STIXGeneral-Regular-32" x="257.299927"/>
     </g>
    </g>
    <g id="line2d_30">
     <path d="M 83 85.10875 
L 97 85.10875 
L 111 85.10875 
" style="fill: none; stroke: #2ca02c; stroke-width: 1.5; stroke-linecap: square"/>
    </g>
    <g id="text_18">
     <!-- lr=5e-2 -->
     <g transform="translate(122.2 90.00875)scale(0.14 -0.14)">
      <use xlink:href="#STIXGeneral-Regular-6c"/>
      <use xlink:href="#STIXGeneral-Regular-72" x="27.799988"/>
      <use xlink:href="#STIXGeneral-Regular-3d" x="61.099976"/>
      <use xlink:href="#STIXGeneral-Regular-35" x="129.59996"/>
      <use xlink:href="#STIXGeneral-Regular-65" x="179.599945"/>
      <use xlink:href="#STIXGeneral-Regular-2d" x="223.999939"/>
      <use xlink:href="#STIXGeneral-Regular-32" x="257.299927"/>
     </g>
    </g>
   </g>
  </g>
 </g>
 <defs>
  <clipPath id="p8cfe53ce4f">
   <rect x="70.4" y="27.931875" width="446.4" height="277.2"/>
  </clipPath>
 </defs>
</svg>
