<?xml version="1.0" encoding="utf-8" standalone="no"?>
<!DOCTYPE svg PUBLIC "-//W3C//DTD SVG 1.1//EN"
  "http://www.w3.org/Graphics/SVG/1.1/DTD/svg11.dtd">
<svg xmlns:xlink="http://www.w3.org/1999/xlink" width="524pt" height="355.731875pt" viewBox="0 0 524 355.731875" xmlns="http://www.w3.org/2000/svg" version="1.1">
 <metadata>
  <rdf:RDF xmlns:dc="http://purl.org/dc/elements/1.1/" xmlns:cc="http://creativecommons.org/ns#" xmlns:rdf="http://www.w3.org/1999/02/22-rdf-syntax-ns#">
   <cc:Work>
    <dc:type rdf:resource="http://purl.org/dc/dcmitype/StillImage"/>
    <dc:date>2021-11-25T21:43:22.399160</dc:date>
    <dc:format>image/svg+xml</dc:format>
    <dc:creator>
     <cc:Agent>
      <dc:title>Matplotlib v3.5.0, https://matplotlib.org/</dc:title>
     </cc:Agent>
    </dc:creator>
   </cc:Work>
  </rdf:RDF>
 </metadata>
 <defs>
  <style type="text/css">*{stroke-linejoin: round; stroke-linecap: butt}</style>
 </defs>
 <g id="figure_1">
  <g id="patch_1">
   <path d="M 0 355.731875 
L 524 355.731875 
L 524 0 
L 0 0 
z
" style="fill: #ffffff"/>
  </g>
  <g id="axes_1">
   <g id="patch_2">
    <path d="M 70.4 305.131875 
L 516.8 305.131875 
L 516.8 27.931875 
L 70.4 27.931875 
z
" style="fill: #ffffff"/>
   </g>
   <g id="matplotlib.axis_1">
    <g id="xtick_1">
     <g id="line2d_1">
      <path d="M 90.690909 305.131875 
L 90.690909 27.931875 
" clip-path="url(#p4d262c72aa)" style="fill: none; stroke: #b0b0b0; stroke-width: 0.8; stroke-linecap: square"/>
     </g>
     <g id="line2d_2">
      <defs>
       <path id="m615e2d6d07" d="M 0 0 
L 0 3.5 
" style="stroke: #000000; stroke-width: 0.8"/>
      </defs>
      <g>
       <use xlink:href="#m615e2d6d07" x="90.690909" y="305.131875" style="stroke: #000000; stroke-width: 0.8"/>
      </g>
     </g>
     <g id="text_1">
      <!-- 0 -->
      <g transform="translate(86.190909 324.425313)scale(0.18 -0.18)">
       <defs>
        <path id="STIXGeneral-Regular-30" d="M 3046 2112 
Q 3046 1683 2963 1302 
Q 2880 922 2717 602 
Q 2554 282 2266 96 
Q 1978 -90 1600 -90 
Q 1210 -90 915 108 
Q 621 307 461 640 
Q 301 973 227 1350 
Q 154 1728 154 2150 
Q 154 2746 301 3222 
Q 448 3699 790 4012 
Q 1133 4326 1626 4326 
Q 2253 4326 2649 3712 
Q 3046 3098 3046 2112 
z
M 2432 2080 
Q 2432 3091 2217 3625 
Q 2003 4160 1587 4160 
Q 1190 4160 979 3622 
Q 768 3085 768 2106 
Q 768 1120 979 598 
Q 1190 77 1600 77 
Q 2003 77 2217 598 
Q 2432 1120 2432 2080 
z
" transform="scale(0.015625)"/>
       </defs>
       <use xlink:href="#STIXGeneral-Regular-30"/>
      </g>
     </g>
    </g>
    <g id="xtick_2">
     <g id="line2d_3">
      <path d="M 158.553481 305.131875 
L 158.553481 27.931875 
" clip-path="url(#p4d262c72aa)" style="fill: none; stroke: #b0b0b0; stroke-width: 0.8; stroke-linecap: square"/>
     </g>
     <g id="line2d_4">
      <g>
       <use xlink:href="#m615e2d6d07" x="158.553481" y="305.131875" style="stroke: #000000; stroke-width: 0.8"/>
      </g>
     </g>
     <g id="text_2">
      <!-- 50 -->
      <g transform="translate(149.553481 324.425313)scale(0.18 -0.18)">
       <defs>
        <path id="STIXGeneral-Regular-35" d="M 2803 4358 
L 2573 3814 
Q 2534 3731 2400 3731 
L 1158 3731 
L 902 3187 
Q 1606 3053 1920 2896 
Q 2234 2739 2502 2368 
Q 2726 2061 2726 1555 
Q 2726 1094 2576 780 
Q 2426 467 2099 224 
Q 1664 -90 1011 -90 
Q 646 -90 422 19 
Q 198 128 198 307 
Q 198 550 486 550 
Q 717 550 960 352 
Q 1210 147 1414 147 
Q 1747 147 2012 480 
Q 2278 813 2278 1229 
Q 2278 1843 1850 2189 
Q 1293 2637 486 2637 
Q 410 2637 410 2688 
L 416 2720 
L 1114 4237 
L 2438 4237 
Q 2547 4237 2608 4269 
Q 2669 4301 2746 4403 
L 2803 4358 
z
" transform="scale(0.015625)"/>
       </defs>
       <use xlink:href="#STIXGeneral-Regular-35"/>
       <use xlink:href="#STIXGeneral-Regular-30" x="49.999985"/>
      </g>
     </g>
    </g>
    <g id="xtick_3">
     <g id="line2d_5">
      <path d="M 226.416054 305.131875 
L 226.416054 27.931875 
" clip-path="url(#p4d262c72aa)" style="fill: none; stroke: #b0b0b0; stroke-width: 0.8; stroke-linecap: square"/>
     </g>
     <g id="line2d_6">
      <g>
       <use xlink:href="#m615e2d6d07" x="226.416054" y="305.131875" style="stroke: #000000; stroke-width: 0.8"/>
      </g>
     </g>
     <g id="text_3">
      <!-- 100 -->
      <g transform="translate(212.916054 324.425313)scale(0.18 -0.18)">
       <defs>
        <path id="STIXGeneral-Regular-31" d="M 2522 0 
L 755 0 
L 755 96 
Q 1107 115 1235 227 
Q 1363 339 1363 608 
L 1363 3482 
Q 1363 3795 1171 3795 
Q 1082 3795 883 3718 
L 710 3654 
L 710 3744 
L 1856 4326 
L 1914 4307 
L 1914 486 
Q 1914 275 2042 185 
Q 2170 96 2522 96 
L 2522 0 
z
" transform="scale(0.015625)"/>
       </defs>
       <use xlink:href="#STIXGeneral-Regular-31"/>
       <use xlink:href="#STIXGeneral-Regular-30" x="49.999985"/>
       <use xlink:href="#STIXGeneral-Regular-30" x="99.999969"/>
      </g>
     </g>
    </g>
    <g id="xtick_4">
     <g id="line2d_7">
      <path d="M 294.278626 305.131875 
L 294.278626 27.931875 
" clip-path="url(#p4d262c72aa)" style="fill: none; stroke: #b0b0b0; stroke-width: 0.8; stroke-linecap: square"/>
     </g>
     <g id="line2d_8">
      <g>
       <use xlink:href="#m615e2d6d07" x="294.278626" y="305.131875" style="stroke: #000000; stroke-width: 0.8"/>
      </g>
     </g>
     <g id="text_4">
      <!-- 150 -->
      <g transform="translate(280.778626 324.425313)scale(0.18 -0.18)">
       <use xlink:href="#STIXGeneral-Regular-31"/>
       <use xlink:href="#STIXGeneral-Regular-35" x="49.999985"/>
       <use xlink:href="#STIXGeneral-Regular-30" x="99.999969"/>
      </g>
     </g>
    </g>
    <g id="xtick_5">
     <g id="line2d_9">
      <path d="M 362.141198 305.131875 
L 362.141198 27.931875 
" clip-path="url(#p4d262c72aa)" style="fill: none; stroke: #b0b0b0; stroke-width: 0.8; stroke-linecap: square"/>
     </g>
     <g id="line2d_10">
      <g>
       <use xlink:href="#m615e2d6d07" x="362.141198" y="305.131875" style="stroke: #000000; stroke-width: 0.8"/>
      </g>
     </g>
     <g id="text_5">
      <!-- 200 -->
      <g transform="translate(348.641198 324.425313)scale(0.18 -0.18)">
       <defs>
        <path id="STIXGeneral-Regular-32" d="M 3034 877 
L 2688 0 
L 186 0 
L 186 77 
L 1325 1286 
Q 1773 1754 1965 2144 
Q 2157 2534 2157 2950 
Q 2157 3379 1920 3616 
Q 1683 3853 1267 3853 
Q 922 3853 720 3673 
Q 518 3494 326 3021 
L 192 3053 
Q 301 3648 630 3987 
Q 960 4326 1523 4326 
Q 2054 4326 2380 4006 
Q 2707 3686 2707 3200 
Q 2707 2477 1888 1613 
L 832 486 
L 2330 486 
Q 2541 486 2665 569 
Q 2790 653 2944 915 
L 3034 877 
z
" transform="scale(0.015625)"/>
       </defs>
       <use xlink:href="#STIXGeneral-Regular-32"/>
       <use xlink:href="#STIXGeneral-Regular-30" x="49.999985"/>
       <use xlink:href="#STIXGeneral-Regular-30" x="99.999969"/>
      </g>
     </g>
    </g>
    <g id="xtick_6">
     <g id="line2d_11">
      <path d="M 430.00377 305.131875 
L 430.00377 27.931875 
" clip-path="url(#p4d262c72aa)" style="fill: none; stroke: #b0b0b0; stroke-width: 0.8; stroke-linecap: square"/>
     </g>
     <g id="line2d_12">
      <g>
       <use xlink:href="#m615e2d6d07" x="430.00377" y="305.131875" style="stroke: #000000; stroke-width: 0.8"/>
      </g>
     </g>
     <g id="text_6">
      <!-- 250 -->
      <g transform="translate(416.50377 324.425313)scale(0.18 -0.18)">
       <use xlink:href="#STIXGeneral-Regular-32"/>
       <use xlink:href="#STIXGeneral-Regular-35" x="49.999985"/>
       <use xlink:href="#STIXGeneral-Regular-30" x="99.999969"/>
      </g>
     </g>
    </g>
    <g id="xtick_7">
     <g id="line2d_13">
      <path d="M 497.866342 305.131875 
L 497.866342 27.931875 
" clip-path="url(#p4d262c72aa)" style="fill: none; stroke: #b0b0b0; stroke-width: 0.8; stroke-linecap: square"/>
     </g>
     <g id="line2d_14">
      <g>
       <use xlink:href="#m615e2d6d07" x="497.866342" y="305.131875" style="stroke: #000000; stroke-width: 0.8"/>
      </g>
     </g>
     <g id="text_7">
      <!-- 300 -->
      <g transform="translate(484.366342 324.425313)scale(0.18 -0.18)">
       <defs>
        <path id="STIXGeneral-Regular-33" d="M 390 3264 
L 288 3290 
Q 435 3770 748 4048 
Q 1062 4326 1542 4326 
Q 1990 4326 2265 4083 
Q 2541 3840 2541 3450 
Q 2541 2925 1946 2566 
Q 2298 2413 2477 2227 
Q 2758 1914 2758 1402 
Q 2758 890 2464 506 
Q 2246 211 1840 60 
Q 1434 -90 979 -90 
Q 262 -90 262 275 
Q 262 378 339 442 
Q 416 506 525 506 
Q 685 506 915 339 
Q 1197 141 1466 141 
Q 1818 141 2058 425 
Q 2298 710 2298 1120 
Q 2298 1856 1632 2048 
Q 1434 2112 979 2112 
L 979 2202 
Q 1338 2323 1517 2432 
Q 2035 2726 2035 3290 
Q 2035 3610 1852 3776 
Q 1670 3942 1344 3942 
Q 768 3942 390 3264 
z
" transform="scale(0.015625)"/>
       </defs>
       <use xlink:href="#STIXGeneral-Regular-33"/>
       <use xlink:href="#STIXGeneral-Regular-30" x="49.999985"/>
       <use xlink:href="#STIXGeneral-Regular-30" x="99.999969"/>
      </g>
     </g>
    </g>
    <g id="text_8">
     <!-- Epoch -->
     <g transform="translate(270.605 344.625313)scale(0.18 -0.18)">
      <defs>
       <path id="STIXGeneral-Regular-45" d="M 3821 1082 
L 3526 0 
L 77 0 
L 77 122 
Q 442 147 538 252 
Q 634 358 634 730 
L 634 3520 
Q 634 3878 534 3987 
Q 435 4096 77 4115 
L 77 4237 
L 3469 4237 
L 3494 3322 
L 3334 3322 
Q 3264 3750 3085 3872 
Q 2906 3994 2349 3994 
L 1510 3994 
Q 1370 3994 1328 3952 
Q 1286 3910 1286 3763 
L 1286 2355 
L 2253 2355 
Q 2656 2355 2787 2470 
Q 2918 2586 2976 2970 
L 3123 2970 
L 3123 1472 
L 2976 1472 
Q 2918 1875 2790 1984 
Q 2662 2093 2253 2093 
L 1286 2093 
L 1286 538 
Q 1286 346 1420 291 
Q 1555 237 1933 237 
L 2163 237 
Q 2848 237 3136 403 
Q 3424 570 3642 1082 
L 3821 1082 
z
" transform="scale(0.015625)"/>
       <path id="STIXGeneral-Regular-70" d="M 1018 2931 
L 1018 2438 
Q 1421 2944 1939 2944 
Q 2406 2944 2707 2560 
Q 3008 2176 3008 1581 
Q 3008 883 2621 409 
Q 2234 -64 1664 -64 
Q 1466 -64 1328 -6 
Q 1190 51 1018 211 
L 1018 -794 
Q 1018 -1094 1120 -1180 
Q 1222 -1267 1581 -1274 
L 1581 -1389 
L 32 -1389 
L 32 -1280 
Q 314 -1254 397 -1171 
Q 480 -1088 480 -838 
L 480 2157 
Q 480 2381 429 2451 
Q 378 2522 218 2522 
Q 115 2522 58 2515 
L 58 2618 
Q 506 2752 979 2944 
L 1018 2931 
z
M 1018 2138 
L 1018 563 
Q 1018 422 1238 281 
Q 1459 141 1683 141 
Q 2029 141 2243 467 
Q 2458 794 2458 1325 
Q 2458 1888 2243 2224 
Q 2029 2560 1670 2560 
Q 1446 2560 1232 2419 
Q 1018 2278 1018 2138 
z
" transform="scale(0.015625)"/>
       <path id="STIXGeneral-Regular-6f" d="M 3008 1478 
Q 3008 806 2608 371 
Q 2208 -64 1568 -64 
Q 979 -64 582 368 
Q 186 800 186 1459 
Q 186 2125 582 2534 
Q 979 2944 1626 2944 
Q 2221 2944 2614 2537 
Q 3008 2131 3008 1478 
z
M 2432 1306 
Q 2432 2035 2112 2445 
Q 1856 2765 1504 2765 
Q 1171 2765 966 2493 
Q 762 2221 762 1747 
Q 762 928 1101 435 
Q 1318 115 1677 115 
Q 2029 115 2230 432 
Q 2432 749 2432 1306 
z
" transform="scale(0.015625)"/>
       <path id="STIXGeneral-Regular-63" d="M 2547 998 
L 2637 941 
Q 2362 403 2112 205 
Q 1786 -64 1376 -64 
Q 845 -64 502 336 
Q 160 736 160 1357 
Q 160 2170 698 2618 
Q 1094 2944 1562 2944 
Q 1965 2944 2256 2749 
Q 2547 2554 2547 2285 
Q 2547 2176 2457 2096 
Q 2368 2016 2246 2016 
Q 2022 2016 1939 2310 
L 1901 2451 
Q 1850 2630 1773 2694 
Q 1696 2758 1523 2758 
Q 1133 2758 893 2451 
Q 653 2144 653 1645 
Q 653 1094 928 745 
Q 1203 397 1645 397 
Q 1920 397 2118 528 
Q 2317 659 2547 998 
z
" transform="scale(0.015625)"/>
       <path id="STIXGeneral-Regular-68" d="M 3117 0 
L 1760 0 
L 1760 96 
Q 2042 128 2118 224 
Q 2195 320 2195 653 
L 2195 1920 
Q 2195 2598 1722 2598 
Q 1530 2598 1370 2508 
Q 1210 2419 1005 2195 
L 1005 653 
Q 1005 320 1081 224 
Q 1158 128 1440 96 
L 1440 0 
L 58 0 
L 58 96 
Q 333 134 400 224 
Q 467 314 467 653 
L 467 3667 
Q 467 3872 406 3933 
Q 346 3994 141 3994 
Q 83 3994 64 3987 
L 64 4090 
L 237 4141 
Q 730 4288 973 4371 
L 1005 4352 
L 1005 2406 
Q 1229 2694 1446 2819 
Q 1664 2944 1946 2944 
Q 2733 2944 2733 1926 
L 2733 653 
Q 2733 320 2793 233 
Q 2854 147 3117 96 
L 3117 0 
z
" transform="scale(0.015625)"/>
      </defs>
      <use xlink:href="#STIXGeneral-Regular-45"/>
      <use xlink:href="#STIXGeneral-Regular-70" x="61.099991"/>
      <use xlink:href="#STIXGeneral-Regular-6f" x="111.099976"/>
      <use xlink:href="#STIXGeneral-Regular-63" x="161.09996"/>
      <use xlink:href="#STIXGeneral-Regular-68" x="205.499954"/>
     </g>
    </g>
   </g>
   <g id="matplotlib.axis_2">
    <g id="ytick_1">
     <g id="line2d_15">
      <path d="M 70.4 245.385837 
L 516.8 245.385837 
" clip-path="url(#p4d262c72aa)" style="fill: none; stroke: #b0b0b0; stroke-width: 0.8; stroke-linecap: square"/>
     </g>
     <g id="line2d_16">
      <defs>
       <path id="m53d4e02aac" d="M 0 0 
L -3.5 0 
" style="stroke: #000000; stroke-width: 0.8"/>
      </defs>
      <g>
       <use xlink:href="#m53d4e02aac" x="70.4" y="245.385837" style="stroke: #000000; stroke-width: 0.8"/>
      </g>
     </g>
     <g id="text_9">
      <!-- 500 -->
      <g transform="translate(36.4 251.532556)scale(0.18 -0.18)">
       <use xlink:href="#STIXGeneral-Regular-35"/>
       <use xlink:href="#STIXGeneral-Regular-30" x="49.999985"/>
       <use xlink:href="#STIXGeneral-Regular-30" x="99.999969"/>
      </g>
     </g>
    </g>
    <g id="ytick_2">
     <g id="line2d_17">
      <path d="M 70.4 176.937342 
L 516.8 176.937342 
" clip-path="url(#p4d262c72aa)" style="fill: none; stroke: #b0b0b0; stroke-width: 0.8; stroke-linecap: square"/>
     </g>
     <g id="line2d_18">
      <g>
       <use xlink:href="#m53d4e02aac" x="70.4" y="176.937342" style="stroke: #000000; stroke-width: 0.8"/>
      </g>
     </g>
     <g id="text_10">
      <!-- 1000 -->
      <g transform="translate(27.4 183.084061)scale(0.18 -0.18)">
       <use xlink:href="#STIXGeneral-Regular-31"/>
       <use xlink:href="#STIXGeneral-Regular-30" x="49.999985"/>
       <use xlink:href="#STIXGeneral-Regular-30" x="99.999969"/>
       <use xlink:href="#STIXGeneral-Regular-30" x="149.999954"/>
      </g>
     </g>
    </g>
    <g id="ytick_3">
     <g id="line2d_19">
      <path d="M 70.4 108.488848 
L 516.8 108.488848 
" clip-path="url(#p4d262c72aa)" style="fill: none; stroke: #b0b0b0; stroke-width: 0.8; stroke-linecap: square"/>
     </g>
     <g id="line2d_20">
      <g>
       <use xlink:href="#m53d4e02aac" x="70.4" y="108.488848" style="stroke: #000000; stroke-width: 0.8"/>
      </g>
     </g>
     <g id="text_11">
      <!-- 1500 -->
      <g transform="translate(27.4 114.635566)scale(0.18 -0.18)">
       <use xlink:href="#STIXGeneral-Regular-31"/>
       <use xlink:href="#STIXGeneral-Regular-35" x="49.999985"/>
       <use xlink:href="#STIXGeneral-Regular-30" x="99.999969"/>
       <use xlink:href="#STIXGeneral-Regular-30" x="149.999954"/>
      </g>
     </g>
    </g>
    <g id="ytick_4">
     <g id="line2d_21">
      <path d="M 70.4 40.040353 
L 516.8 40.040353 
" clip-path="url(#p4d262c72aa)" style="fill: none; stroke: #b0b0b0; stroke-width: 0.8; stroke-linecap: square"/>
     </g>
     <g id="line2d_22">
      <g>
       <use xlink:href="#m53d4e02aac" x="70.4" y="40.040353" style="stroke: #000000; stroke-width: 0.8"/>
      </g>
     </g>
     <g id="text_12">
      <!-- 2000 -->
      <g transform="translate(27.4 46.187071)scale(0.18 -0.18)">
       <use xlink:href="#STIXGeneral-Regular-32"/>
       <use xlink:href="#STIXGeneral-Regular-30" x="49.999985"/>
       <use xlink:href="#STIXGeneral-Regular-30" x="99.999969"/>
       <use xlink:href="#STIXGeneral-Regular-30" x="149.999954"/>
      </g>
     </g>
    </g>
    <g id="text_13">
     <!-- Average Return -->
     <g transform="translate(19.476562 223.764844)rotate(-90)scale(0.18 -0.18)">
      <defs>
       <path id="STIXGeneral-Regular-41" d="M 4525 0 
L 2893 0 
L 2893 122 
Q 3149 122 3245 179 
Q 3334 224 3334 333 
Q 3334 499 3213 781 
L 2950 1382 
L 1274 1382 
L 979 653 
Q 922 506 922 384 
Q 922 237 1027 179 
Q 1133 122 1370 122 
L 1370 0 
L 96 0 
L 96 122 
Q 365 147 486 316 
Q 608 486 902 1190 
L 2221 4314 
L 2349 4314 
L 3923 710 
Q 4064 378 4176 262 
Q 4288 147 4525 122 
L 4525 0 
z
M 2861 1645 
L 2118 3405 
L 1382 1645 
L 2861 1645 
z
" transform="scale(0.015625)"/>
       <path id="STIXGeneral-Regular-76" d="M 3053 2880 
L 3053 2784 
Q 2906 2771 2835 2688 
Q 2765 2605 2637 2285 
L 1818 230 
Q 1690 -90 1638 -90 
Q 1587 -90 1523 77 
Q 1510 96 1497 141 
Q 1485 186 1472 211 
L 704 2048 
Q 499 2534 403 2652 
Q 307 2771 122 2784 
L 122 2880 
L 1376 2880 
L 1376 2784 
Q 1210 2771 1146 2732 
Q 1082 2694 1082 2611 
Q 1082 2509 1139 2368 
L 1792 730 
L 2426 2387 
Q 2464 2483 2464 2579 
Q 2464 2758 2163 2784 
L 2163 2880 
L 3053 2880 
z
" transform="scale(0.015625)"/>
       <path id="STIXGeneral-Regular-65" d="M 2611 1050 
L 2714 1005 
Q 2330 -64 1376 -64 
Q 813 -64 486 329 
Q 160 723 160 1389 
Q 160 2074 525 2509 
Q 890 2944 1485 2944 
Q 2061 2944 2374 2502 
Q 2560 2246 2592 1773 
L 621 1773 
Q 646 1370 700 1158 
Q 755 947 915 730 
Q 1184 378 1626 378 
Q 1939 378 2153 531 
Q 2368 685 2611 1050 
z
M 634 1978 
L 1939 1978 
Q 1882 2381 1750 2547 
Q 1619 2714 1312 2714 
Q 1043 2714 864 2525 
Q 685 2336 634 1978 
z
" transform="scale(0.015625)"/>
       <path id="STIXGeneral-Regular-72" d="M 1024 2931 
L 1024 2342 
Q 1267 2688 1430 2816 
Q 1594 2944 1792 2944 
Q 1958 2944 2051 2854 
Q 2144 2765 2144 2605 
Q 2144 2470 2077 2393 
Q 2010 2317 1894 2317 
Q 1773 2317 1638 2445 
Q 1536 2541 1472 2541 
Q 1338 2541 1181 2355 
Q 1024 2170 1024 2016 
L 1024 576 
Q 1024 301 1133 205 
Q 1242 109 1568 96 
L 1568 0 
L 32 0 
L 32 96 
Q 339 154 412 224 
Q 486 294 486 538 
L 486 2138 
Q 486 2349 438 2435 
Q 390 2522 269 2522 
Q 166 2522 45 2496 
L 45 2598 
Q 448 2726 992 2944 
L 1024 2931 
z
" transform="scale(0.015625)"/>
       <path id="STIXGeneral-Regular-61" d="M 2829 422 
L 2829 243 
Q 2586 -64 2253 -64 
Q 1888 -64 1843 403 
L 1837 403 
Q 1427 -64 909 -64 
Q 608 -64 422 112 
Q 237 288 237 602 
Q 237 1050 685 1350 
Q 992 1555 1837 1869 
L 1837 2214 
Q 1837 2502 1699 2646 
Q 1562 2790 1338 2790 
Q 1146 2790 1018 2697 
Q 890 2605 890 2477 
Q 890 2419 909 2348 
Q 928 2278 928 2208 
Q 928 2112 841 2029 
Q 755 1946 634 1946 
Q 525 1946 441 2029 
Q 358 2112 358 2240 
Q 358 2547 685 2752 
Q 986 2944 1421 2944 
Q 1939 2944 2176 2656 
Q 2291 2522 2323 2384 
Q 2355 2246 2355 1946 
L 2355 723 
Q 2355 301 2554 301 
Q 2682 301 2829 422 
z
M 1837 813 
L 1837 1715 
Q 1248 1510 1018 1293 
Q 800 1094 800 800 
Q 800 557 921 432 
Q 1043 307 1242 307 
Q 1453 307 1613 410 
Q 1747 506 1792 589 
Q 1837 672 1837 813 
z
" transform="scale(0.015625)"/>
       <path id="STIXGeneral-Regular-67" d="M 3008 2483 
L 2477 2483 
Q 2598 2208 2598 1946 
Q 2598 1453 2265 1203 
Q 1933 954 1600 954 
Q 1530 954 1357 973 
L 1235 986 
Q 1107 947 979 812 
Q 851 678 851 582 
Q 851 435 1350 410 
L 2176 371 
Q 2528 358 2739 172 
Q 2950 -13 2950 -314 
Q 2950 -685 2566 -986 
Q 2035 -1395 1286 -1395 
Q 826 -1395 502 -1212 
Q 179 -1030 179 -774 
Q 179 -595 320 -419 
Q 461 -243 806 6 
Q 602 102 534 172 
Q 467 243 467 346 
Q 467 531 762 787 
Q 909 915 1037 1043 
Q 717 1203 579 1401 
Q 442 1600 442 1901 
Q 442 2336 752 2640 
Q 1062 2944 1510 2944 
Q 1766 2944 2022 2848 
L 2163 2797 
Q 2349 2733 2515 2733 
L 3008 2733 
L 3008 2483 
z
M 973 2163 
L 973 2144 
Q 973 1683 1155 1398 
Q 1338 1114 1632 1114 
Q 1850 1114 1978 1270 
Q 2106 1427 2106 1690 
Q 2106 2112 1914 2464 
Q 1754 2765 1446 2765 
Q 1222 2765 1097 2605 
Q 973 2445 973 2163 
z
M 2771 -410 
Q 2771 -230 2595 -163 
Q 2419 -96 1978 -96 
Q 1344 -96 941 -13 
Q 749 -243 688 -348 
Q 627 -454 627 -563 
Q 627 -774 880 -902 
Q 1133 -1030 1555 -1030 
Q 2099 -1030 2435 -860 
Q 2771 -691 2771 -410 
z
" transform="scale(0.015625)"/>
       <path id="STIXGeneral-Regular-20" transform="scale(0.015625)"/>
       <path id="STIXGeneral-Regular-52" d="M 4224 0 
L 3187 0 
L 1664 1971 
L 1306 1958 
L 1306 717 
Q 1306 352 1405 249 
Q 1504 147 1875 122 
L 1875 0 
L 109 0 
L 109 122 
Q 474 154 563 262 
Q 653 371 653 794 
L 653 3526 
Q 653 3885 563 3987 
Q 474 4090 109 4115 
L 109 4237 
L 1850 4237 
Q 2726 4237 3187 3859 
Q 3501 3603 3501 3091 
Q 3501 2221 2342 2042 
L 3622 422 
Q 3757 256 3878 198 
Q 4000 141 4224 122 
L 4224 0 
z
M 1306 3731 
L 1306 2195 
Q 1766 2202 1990 2246 
Q 2214 2291 2438 2413 
Q 2803 2618 2803 3142 
Q 2803 4000 1632 4000 
Q 1459 4000 1382 3945 
Q 1306 3891 1306 3731 
z
" transform="scale(0.015625)"/>
       <path id="STIXGeneral-Regular-74" d="M 1702 493 
L 1786 422 
Q 1478 -64 1011 -64 
Q 448 -64 448 749 
L 448 2675 
L 109 2675 
Q 83 2694 83 2720 
Q 83 2771 192 2842 
Q 435 2982 813 3526 
Q 826 3546 874 3606 
Q 922 3667 941 3706 
Q 986 3706 986 3622 
L 986 2880 
L 1632 2880 
L 1632 2675 
L 986 2675 
L 986 845 
Q 986 538 1062 403 
Q 1139 269 1318 269 
Q 1510 269 1702 493 
z
" transform="scale(0.015625)"/>
       <path id="STIXGeneral-Regular-75" d="M 3072 320 
L 3072 230 
Q 2573 96 2195 -58 
L 2163 -38 
L 2163 486 
L 2150 486 
Q 1747 -64 1235 -64 
Q 870 -64 662 160 
Q 454 384 454 755 
L 454 2362 
Q 454 2598 371 2688 
Q 288 2778 58 2790 
L 58 2880 
L 992 2880 
L 992 813 
Q 992 595 1123 451 
Q 1254 307 1446 307 
Q 1760 307 1984 506 
Q 2067 582 2099 649 
Q 2131 717 2131 877 
L 2131 2355 
Q 2131 2605 2041 2678 
Q 1952 2752 1658 2771 
L 1658 2880 
L 2669 2880 
L 2669 685 
Q 2669 461 2742 390 
Q 2816 320 3034 320 
L 3072 320 
z
" transform="scale(0.015625)"/>
       <path id="STIXGeneral-Regular-6e" d="M 3104 0 
L 1773 0 
L 1779 96 
Q 2016 115 2096 233 
Q 2176 352 2176 672 
L 2176 1946 
Q 2176 2592 1709 2592 
Q 1549 2592 1408 2515 
Q 1267 2438 1050 2227 
L 1050 461 
Q 1050 269 1136 192 
Q 1222 115 1466 96 
L 1466 0 
L 115 0 
L 115 96 
Q 358 115 435 214 
Q 512 314 512 602 
L 512 2157 
Q 512 2394 467 2483 
Q 422 2573 288 2573 
Q 160 2573 102 2547 
L 102 2656 
Q 550 2784 979 2944 
L 1030 2925 
L 1030 2426 
L 1037 2426 
Q 1491 2944 1958 2944 
Q 2323 2944 2518 2688 
Q 2714 2432 2714 1958 
L 2714 544 
Q 2714 288 2790 205 
Q 2867 122 3104 96 
L 3104 0 
z
" transform="scale(0.015625)"/>
      </defs>
      <use xlink:href="#STIXGeneral-Regular-41"/>
      <use xlink:href="#STIXGeneral-Regular-76" x="72.199982"/>
      <use xlink:href="#STIXGeneral-Regular-65" x="122.199966"/>
      <use xlink:href="#STIXGeneral-Regular-72" x="166.59996"/>
      <use xlink:href="#STIXGeneral-Regular-61" x="199.899948"/>
      <use xlink:href="#STIXGeneral-Regular-67" x="244.299942"/>
      <use xlink:href="#STIXGeneral-Regular-65" x="294.299927"/>
      <use xlink:href="#STIXGeneral-Regular-20" x="338.699921"/>
      <use xlink:href="#STIXGeneral-Regular-52" x="363.699905"/>
      <use xlink:href="#STIXGeneral-Regular-65" x="430.399902"/>
      <use xlink:href="#STIXGeneral-Regular-74" x="474.799896"/>
      <use xlink:href="#STIXGeneral-Regular-75" x="502.599884"/>
      <use xlink:href="#STIXGeneral-Regular-72" x="552.599869"/>
      <use xlink:href="#STIXGeneral-Regular-6e" x="585.899857"/>
     </g>
    </g>
   </g>
   <g id="line2d_23">
    <path d="M 90.690909 253.800035 
L 92.048161 254.376587 
L 93.405412 244.912095 
L 94.762663 218.655129 
L 96.119915 225.130648 
L 97.477166 227.121494 
L 98.834418 258.861305 
L 100.191669 251.60698 
L 101.548921 211.949441 
L 102.906172 207.166335 
L 104.263424 187.337511 
L 105.620675 214.650566 
L 106.977926 231.470614 
L 108.335178 173.740642 
L 109.692429 200.140288 
L 111.049681 208.313357 
L 112.406932 227.604837 
L 113.764184 206.52697 
L 115.121435 203.443312 
L 116.478687 196.095844 
L 117.835938 185.209726 
L 119.193189 192.495187 
L 120.550441 190.91712 
L 121.907692 263.0568 
L 123.264944 231.896362 
L 124.622195 212.517575 
L 125.979447 207.33149 
L 127.336698 228.915343 
L 128.69395 207.200025 
L 130.051201 200.470974 
L 131.408452 218.310689 
L 132.765704 272.441697 
L 134.122955 271.873153 
L 135.480207 283.813047 
L 136.837458 284.97658 
L 138.19471 270.836152 
L 139.551961 230.1351 
L 140.909213 278.180788 
L 142.266464 276.12054 
L 143.623715 273.139793 
L 144.980967 292.531875 
L 146.338218 288.503933 
L 147.69547 278.179451 
L 149.052721 279.60425 
L 150.409973 260.640356 
L 151.767224 290.377078 
L 153.124476 230.916208 
L 154.481727 258.417785 
L 155.838978 218.692896 
L 157.19623 283.860319 
L 158.553481 219.355874 
L 159.910733 196.212128 
L 161.267984 216.268071 
L 162.625236 182.637217 
L 163.982487 231.731424 
L 165.339739 205.40575 
L 166.69699 203.090316 
L 168.054241 219.78163 
L 169.411493 225.783465 
L 170.768744 202.795416 
L 172.125996 138.015984 
L 173.483247 221.921297 
L 174.840499 203.851839 
L 176.19775 219.7609 
L 177.555002 211.927616 
L 178.912253 212.413749 
L 180.269504 203.475873 
L 181.626756 218.036929 
L 184.341259 240.859747 
L 185.69851 269.241245 
L 187.055762 232.303694 
L 188.413013 238.771851 
L 189.770265 239.036145 
L 191.127516 210.958509 
L 192.484767 195.538421 
L 193.842019 215.441927 
L 195.19927 189.133975 
L 196.556522 206.026741 
L 197.913773 227.825924 
L 199.271025 194.7556 
L 200.628276 227.896286 
L 201.985528 211.389136 
L 203.342779 237.703338 
L 204.70003 223.18482 
L 206.057282 226.213123 
L 207.414533 225.43885 
L 208.771785 227.130243 
L 210.129036 205.377993 
L 211.486288 207.121717 
L 212.843539 234.670164 
L 214.200791 225.172567 
L 215.558042 197.973908 
L 216.915293 217.164561 
L 218.272545 149.835298 
L 219.629796 209.803591 
L 220.987048 225.664925 
L 222.344299 203.770531 
L 223.701551 150.392511 
L 225.058802 205.080845 
L 226.416054 226.036512 
L 227.773305 195.956891 
L 229.130556 232.244236 
L 230.487808 221.481078 
L 231.845059 215.045432 
L 233.202311 201.51224 
L 234.559562 234.828116 
L 235.916814 231.470054 
L 237.274065 232.382044 
L 238.631317 220.722613 
L 239.988568 220.84081 
L 241.345819 214.770234 
L 242.703071 205.804033 
L 244.060322 219.397451 
L 245.417574 187.643599 
L 246.774825 224.044571 
L 248.132077 227.777997 
L 249.489328 217.606778 
L 250.84658 214.035541 
L 252.203831 211.402906 
L 253.561082 244.189012 
L 254.918334 237.596462 
L 256.275585 228.320613 
L 257.632837 224.725195 
L 258.990088 220.374931 
L 260.34734 235.648705 
L 261.704591 211.981209 
L 263.061843 145.017934 
L 264.419094 201.027895 
L 265.776345 208.120645 
L 267.133597 217.272857 
L 268.490848 228.130934 
L 269.8481 200.616812 
L 271.205351 197.088581 
L 272.562603 202.486027 
L 273.919854 163.096341 
L 275.277106 171.12019 
L 276.634357 152.720479 
L 277.991608 220.755659 
L 279.34886 179.251615 
L 280.706111 148.922456 
L 282.063363 167.487957 
L 283.420614 158.382737 
L 284.777866 169.369222 
L 286.135117 147.239903 
L 287.492369 107.295411 
L 288.84962 183.251399 
L 290.206871 172.833374 
L 291.564123 158.481432 
L 292.921374 167.188211 
L 294.278626 192.308976 
L 295.635877 197.911676 
L 296.993129 202.726942 
L 298.35038 199.556428 
L 299.707631 202.675656 
L 301.064883 198.316225 
L 302.422134 254.463861 
L 303.779386 161.533507 
L 305.136637 188.601277 
L 306.493889 237.436454 
L 307.85114 197.964274 
L 309.208392 238.806552 
L 310.565643 251.636868 
L 311.922894 237.771151 
L 313.280146 240.335655 
L 314.637397 182.779052 
L 315.994649 199.020881 
L 317.3519 186.814004 
L 318.709152 257.648508 
L 320.066403 254.77998 
L 321.423655 245.826955 
L 322.780906 201.435161 
L 324.138157 234.464509 
L 325.495409 186.661942 
L 326.85266 203.873337 
L 328.209912 260.138243 
L 329.567163 153.798509 
L 330.924415 125.858121 
L 332.281666 203.772202 
L 333.638918 241.982856 
L 334.996169 196.135959 
L 336.35342 217.625118 
L 337.710672 179.701778 
L 339.067923 211.330463 
L 340.425175 180.106394 
L 343.139678 203.063628 
L 344.496929 215.411195 
L 345.854181 179.628708 
L 347.211432 203.585849 
L 348.568683 234.123921 
L 349.925935 221.281556 
L 351.283186 187.550134 
L 352.640438 181.223879 
L 355.354941 165.012331 
L 356.712192 168.163034 
L 358.069444 190.316826 
L 359.426695 185.738088 
L 360.783946 201.973298 
L 362.141198 173.716846 
L 363.498449 192.316312 
L 364.855701 181.658467 
L 366.212952 198.965901 
L 367.570204 227.776902 
L 368.927455 174.716476 
L 370.284707 193.914499 
L 371.641958 157.89571 
L 372.999209 198.563181 
L 374.356461 101.274015 
L 375.713712 191.229684 
L 377.070964 162.813005 
L 378.428215 198.936465 
L 379.785467 215.550189 
L 381.142718 235.686154 
L 382.49997 246.082275 
L 383.857221 226.119925 
L 385.214472 224.431774 
L 386.571724 241.000814 
L 387.928975 237.903937 
L 389.286227 234.444982 
L 390.643478 166.661061 
L 392.00073 157.787138 
L 394.715233 246.920163 
L 396.072484 219.647908 
L 397.429735 214.182214 
L 398.786987 159.85072 
L 400.144238 244.780763 
L 401.50149 184.751976 
L 402.858741 232.76039 
L 404.215993 158.317764 
L 405.573244 226.573906 
L 406.930496 194.109242 
L 408.287747 123.742284 
L 409.644998 167.298421 
L 411.00225 228.884837 
L 412.359501 228.907029 
L 413.716753 146.646928 
L 415.074004 188.582836 
L 416.431256 203.600295 
L 417.788507 171.929573 
L 419.145759 164.227897 
L 420.50301 160.676781 
L 421.860261 192.410287 
L 423.217513 213.319948 
L 424.574764 161.737766 
L 425.932016 150.764683 
L 427.289267 223.875104 
L 428.646519 222.896329 
L 430.00377 199.093632 
L 431.361022 187.221996 
L 432.718273 214.727145 
L 434.075524 198.991645 
L 435.432776 251.288179 
L 436.790027 229.536309 
L 438.147279 195.857853 
L 439.50453 214.541853 
L 440.861782 208.222733 
L 442.219033 211.641565 
L 443.576285 139.049296 
L 444.933536 161.730714 
L 446.290787 177.22438 
L 447.648039 219.232471 
L 449.00529 194.5515 
L 450.362542 210.577204 
L 451.719793 179.298339 
L 453.077045 173.974087 
L 454.434296 151.875601 
L 457.148799 212.183663 
L 458.50605 220.397366 
L 459.863302 158.161165 
L 461.220553 181.683149 
L 462.577805 191.401432 
L 463.935056 215.277482 
L 465.292308 221.979025 
L 466.649559 205.361064 
L 469.364062 148.140429 
L 470.721313 207.7396 
L 472.078565 200.941658 
L 473.435816 213.510738 
L 474.793068 206.242974 
L 476.150319 180.515004 
L 477.507571 203.622379 
L 478.864822 211.977323 
L 480.222074 181.864013 
L 481.579325 190.851546 
L 482.936576 180.136817 
L 484.293828 205.47348 
L 485.651079 216.166401 
L 487.008331 195.465227 
L 488.365582 215.614301 
L 489.722834 184.337024 
L 491.080085 208.511508 
L 492.437337 192.103296 
L 493.794588 125.360766 
L 495.151839 227.256896 
L 496.509091 223.604293 
L 496.509091 223.604293 
" clip-path="url(#p4d262c72aa)" style="fill: none; stroke: #1f77b4; stroke-width: 1.5; stroke-linecap: square"/>
   </g>
   <g id="line2d_24">
    <path d="M 90.690909 283.082315 
L 92.048161 270.216155 
L 93.405412 252.63072 
L 94.762663 270.737185 
L 96.119915 226.855981 
L 97.477166 257.220241 
L 98.834418 283.340204 
L 100.191669 182.176284 
L 101.548921 191.226701 
L 102.906172 175.247094 
L 104.263424 177.501215 
L 105.620675 228.531139 
L 106.977926 173.36415 
L 108.335178 224.090785 
L 109.692429 222.818965 
L 111.049681 180.9432 
L 112.406932 169.129301 
L 113.764184 216.359072 
L 115.121435 227.61097 
L 116.478687 274.146053 
L 117.835938 268.167167 
L 119.193189 230.758731 
L 120.550441 274.560345 
L 121.907692 273.667795 
L 123.264944 279.716906 
L 124.622195 272.825909 
L 125.979447 277.909973 
L 127.336698 271.189842 
L 128.69395 268.347007 
L 130.051201 265.88927 
L 131.408452 279.496844 
L 132.765704 262.875472 
L 134.122955 220.430896 
L 135.480207 279.04401 
L 136.837458 210.938982 
L 138.19471 265.969942 
L 139.551961 276.148832 
L 140.909213 265.156039 
L 142.266464 207.846475 
L 143.623715 200.563654 
L 144.980967 273.184591 
L 146.338218 239.022208 
L 147.69547 266.212002 
L 149.052721 207.087659 
L 150.409973 249.350014 
L 153.124476 215.350476 
L 154.481727 225.488532 
L 155.838978 143.41013 
L 157.19623 212.703101 
L 158.553481 215.521572 
L 159.910733 145.967874 
L 161.267984 236.665138 
L 162.625236 236.489555 
L 163.982487 255.891737 
L 165.339739 259.462452 
L 166.69699 268.957077 
L 168.054241 247.21419 
L 169.411493 271.858598 
L 170.768744 254.354153 
L 172.125996 255.315682 
L 173.483247 251.650675 
L 174.840499 240.487116 
L 176.19775 238.564174 
L 177.555002 231.121144 
L 178.912253 191.970577 
L 180.269504 199.994926 
L 181.626756 195.453538 
L 182.984007 236.172814 
L 184.341259 201.233759 
L 185.69851 192.960022 
L 187.055762 223.354989 
L 188.413013 223.269554 
L 189.770265 220.002851 
L 191.127516 189.264497 
L 192.484767 167.658427 
L 193.842019 204.683339 
L 195.19927 216.105155 
L 196.556522 222.48075 
L 197.913773 220.991978 
L 199.271025 206.098482 
L 200.628276 176.349355 
L 201.985528 172.925602 
L 203.342779 207.327806 
L 204.70003 183.852896 
L 206.057282 170.446968 
L 207.414533 165.50997 
L 208.771785 153.075087 
L 210.129036 118.725875 
L 211.486288 212.044143 
L 212.843539 196.869282 
L 214.200791 189.306575 
L 215.558042 179.976065 
L 216.915293 112.085719 
L 218.272545 161.369387 
L 219.629796 169.013527 
L 220.987048 148.796722 
L 222.344299 152.423507 
L 223.701551 127.842526 
L 225.058802 196.440626 
L 226.416054 190.249288 
L 227.773305 152.336292 
L 229.130556 145.000354 
L 230.487808 160.270485 
L 231.845059 153.524983 
L 233.202311 168.201553 
L 234.559562 158.552504 
L 235.916814 144.380324 
L 237.274065 167.58433 
L 238.631317 157.403101 
L 239.988568 111.530895 
L 241.345819 187.721841 
L 244.060322 119.774677 
L 245.417574 144.081965 
L 246.774825 177.482883 
L 248.132077 100.786754 
L 249.489328 154.762303 
L 250.84658 176.178995 
L 252.203831 130.04511 
L 253.561082 154.224324 
L 254.918334 134.18113 
L 256.275585 163.083574 
L 257.632837 170.121871 
L 258.990088 140.633822 
L 260.34734 165.621015 
L 261.704591 171.963262 
L 263.061843 147.899322 
L 264.419094 139.838576 
L 265.776345 174.820603 
L 267.133597 152.511357 
L 268.490848 140.533388 
L 269.8481 132.29253 
L 271.205351 138.084265 
L 272.562603 157.844958 
L 273.919854 138.268756 
L 275.277106 170.698436 
L 276.634357 151.997792 
L 277.991608 129.448258 
L 279.34886 121.865164 
L 280.706111 171.765871 
L 282.063363 163.576901 
L 283.420614 147.978148 
L 284.777866 154.839307 
L 286.135117 150.482617 
L 287.492369 156.967862 
L 288.84962 148.429514 
L 290.206871 143.742931 
L 291.564123 149.217256 
L 292.921374 164.315731 
L 294.278626 157.469444 
L 295.635877 128.578431 
L 296.993129 83.753807 
L 298.35038 159.635932 
L 299.707631 173.09054 
L 301.064883 141.666348 
L 302.422134 148.766926 
L 303.779386 152.940697 
L 305.136637 143.84298 
L 306.493889 156.783622 
L 307.85114 142.407299 
L 309.208392 172.264613 
L 310.565643 167.125595 
L 311.922894 146.630718 
L 313.280146 143.829962 
L 314.637397 146.397215 
L 315.994649 170.227451 
L 317.3519 146.783441 
L 318.709152 179.781013 
L 320.066403 174.962931 
L 321.423655 143.145109 
L 322.780906 160.42807 
L 324.138157 158.405263 
L 325.495409 164.257392 
L 326.85266 191.104844 
L 328.209912 162.91775 
L 329.567163 164.308612 
L 330.924415 170.839026 
L 332.281666 174.64832 
L 333.638918 194.851839 
L 334.996169 166.806898 
L 336.35342 177.589892 
L 337.710672 153.278996 
L 339.067923 169.247615 
L 340.425175 134.367342 
L 341.782426 134.668776 
L 343.139678 134.485288 
L 344.496929 150.223295 
L 345.854181 136.717568 
L 347.211432 153.66574 
L 348.568683 168.926663 
L 349.925935 145.765487 
L 351.283186 126.219765 
L 352.640438 116.892404 
L 353.997689 162.781104 
L 355.354941 172.444006 
L 356.712192 160.072058 
L 358.069444 157.309085 
L 359.426695 156.288457 
L 360.783946 136.455639 
L 362.141198 122.791425 
L 363.498449 147.769494 
L 364.855701 133.996791 
L 366.212952 165.229775 
L 367.570204 171.256802 
L 368.927455 147.628202 
L 370.284707 139.228171 
L 371.641958 155.648841 
L 372.999209 170.467522 
L 374.356461 141.499187 
L 375.713712 65.598078 
L 377.070964 160.027907 
L 378.428215 138.69091 
L 379.785467 163.17622 
L 381.142718 136.134052 
L 382.49997 172.068291 
L 383.857221 160.864362 
L 385.214472 169.968965 
L 386.571724 148.673528 
L 387.928975 154.192656 
L 389.286227 177.272717 
L 390.643478 150.73838 
L 392.00073 158.584155 
L 393.357981 144.876442 
L 394.715233 199.0158 
L 396.072484 152.278488 
L 397.429735 182.80716 
L 398.786987 121.131649 
L 401.50149 177.494314 
L 402.858741 149.792384 
L 404.215993 157.154307 
L 405.573244 136.357712 
L 406.930496 145.125938 
L 408.287747 134.516922 
L 409.644998 152.314484 
L 411.00225 180.116045 
L 412.359501 145.722289 
L 413.716753 169.282408 
L 415.074004 130.674398 
L 416.431256 144.847582 
L 417.788507 121.77713 
L 419.145759 153.419051 
L 420.50301 138.433827 
L 421.860261 158.283958 
L 423.217513 165.887807 
L 424.574764 153.040044 
L 425.932016 141.43632 
L 427.289267 131.034004 
L 428.646519 150.30792 
L 430.00377 138.065482 
L 431.361022 158.337784 
L 432.718273 159.744788 
L 434.075524 157.388446 
L 435.432776 130.024472 
L 436.790027 155.363851 
L 438.147279 166.023868 
L 439.50453 111.288702 
L 440.861782 145.768762 
L 442.219033 139.537777 
L 443.576285 89.310619 
L 444.933536 110.812052 
L 446.290787 148.9767 
L 447.648039 107.874783 
L 449.00529 91.034214 
L 450.362542 116.455159 
L 451.719793 132.108675 
L 453.077045 111.774242 
L 454.434296 133.697395 
L 455.791548 95.02423 
L 457.148799 110.854014 
L 458.50605 40.531875 
L 459.863302 105.159286 
L 461.220553 150.867674 
L 462.577805 160.609519 
L 463.935056 121.322406 
L 465.292308 73.336434 
L 466.649559 141.498953 
L 468.006811 107.675855 
L 469.364062 145.31382 
L 470.721313 158.594316 
L 472.078565 156.292568 
L 473.435816 166.630847 
L 474.793068 193.713624 
L 477.507571 152.353471 
L 478.864822 175.7827 
L 480.222074 117.566211 
L 481.579325 176.858642 
L 482.936576 170.607695 
L 484.293828 179.263647 
L 485.651079 176.602612 
L 487.008331 156.237956 
L 488.365582 175.351279 
L 489.722834 163.191845 
L 491.080085 171.269369 
L 492.437337 172.525188 
L 493.794588 148.298348 
L 495.151839 174.565767 
L 496.509091 181.654039 
L 496.509091 181.654039 
" clip-path="url(#p4d262c72aa)" style="fill: none; stroke: #ff7f0e; stroke-width: 1.5; stroke-linecap: square"/>
   </g>
   <g id="line2d_25">
    <path d="M 90.690909 286.809591 
L 92.048161 279.34666 
L 93.405412 284.692206 
L 94.762663 266.039928 
L 96.119915 271.759785 
L 97.477166 273.258888 
L 98.834418 277.44932 
L 100.191669 276.019756 
L 101.548921 196.042485 
L 102.906172 239.412561 
L 104.263424 220.7963 
L 105.620675 157.561639 
L 106.977926 172.346597 
L 108.335178 179.035549 
L 109.692429 231.763333 
L 111.049681 267.128616 
L 112.406932 242.640854 
L 113.764184 226.684233 
L 115.121435 280.378104 
L 116.478687 275.112078 
L 117.835938 287.113319 
L 119.193189 272.083015 
L 120.550441 265.410711 
L 121.907692 289.049859 
L 123.264944 267.47456 
L 124.622195 274.907209 
L 125.979447 280.121758 
L 127.336698 278.737045 
L 128.69395 275.468345 
L 130.051201 275.509162 
L 131.408452 271.431542 
L 132.765704 259.624089 
L 134.122955 258.045036 
L 135.480207 266.088382 
L 136.837458 256.490273 
L 138.19471 242.21722 
L 139.551961 257.225635 
L 140.909213 257.987254 
L 142.266464 272.038789 
L 143.623715 265.098899 
L 144.980967 263.284843 
L 146.338218 266.697462 
L 147.69547 262.288943 
L 149.052721 197.299959 
L 150.409973 194.960804 
L 151.767224 169.781901 
L 153.124476 182.933579 
L 154.481727 205.613335 
L 155.838978 273.954574 
L 157.19623 248.124926 
L 158.553481 259.274799 
L 159.910733 262.06819 
L 161.267984 251.580952 
L 162.625236 271.042831 
L 163.982487 267.17069 
L 165.339739 259.835242 
L 166.69699 271.608546 
L 168.054241 256.700038 
L 169.411493 248.451828 
L 170.768744 251.365133 
L 172.125996 266.916645 
L 173.483247 255.199686 
L 174.840499 258.53472 
L 177.555002 275.206917 
L 178.912253 267.521518 
L 180.269504 245.139119 
L 181.626756 260.830732 
L 182.984007 264.560009 
L 184.341259 246.96967 
L 185.69851 223.598803 
L 187.055762 203.854897 
L 188.413013 235.339876 
L 189.770265 233.369166 
L 191.127516 239.12864 
L 192.484767 233.432384 
L 193.842019 209.784941 
L 195.19927 228.274206 
L 196.556522 235.976534 
L 197.913773 224.899709 
L 200.628276 236.30875 
L 201.985528 250.154785 
L 203.342779 248.282185 
L 204.70003 260.464305 
L 206.057282 266.170605 
L 207.414533 277.492347 
L 208.771785 267.918197 
L 210.129036 257.215646 
L 211.486288 263.519094 
L 212.843539 266.719396 
L 214.200791 260.218305 
L 215.558042 261.264455 
L 216.915293 255.585294 
L 218.272545 265.677252 
L 219.629796 274.24101 
L 220.987048 256.087177 
L 222.344299 251.904809 
L 223.701551 277.117944 
L 225.058802 250.65897 
L 226.416054 255.444578 
L 227.773305 244.491875 
L 229.130556 244.480227 
L 230.487808 258.210626 
L 231.845059 235.351097 
L 233.202311 240.67174 
L 234.559562 217.806374 
L 235.916814 235.678467 
L 237.274065 204.827614 
L 238.631317 223.425418 
L 239.988568 209.719835 
L 241.345819 205.561748 
L 242.703071 182.291206 
L 244.060322 150.641606 
L 245.417574 158.931077 
L 246.774825 191.058462 
L 248.132077 159.13816 
L 249.489328 168.194835 
L 250.84658 157.253487 
L 252.203831 175.225846 
L 253.561082 137.187918 
L 254.918334 129.453923 
L 256.275585 182.586532 
L 257.632837 130.610462 
L 258.990088 171.540623 
L 260.34734 158.152709 
L 261.704591 87.67733 
L 263.061843 188.275795 
L 264.419094 146.280956 
L 265.776345 178.231163 
L 267.133597 157.143428 
L 268.490848 120.203667 
L 269.8481 166.182707 
L 271.205351 177.888477 
L 272.562603 162.464948 
L 273.919854 168.211195 
L 275.277106 131.370096 
L 276.634357 151.216066 
L 277.991608 129.645549 
L 279.34886 133.023622 
L 280.706111 158.509758 
L 282.063363 133.257594 
L 283.420614 145.663533 
L 284.777866 120.390447 
L 286.135117 144.804684 
L 287.492369 107.53229 
L 288.84962 137.140091 
L 290.206871 121.305845 
L 291.564123 139.714379 
L 292.921374 144.688944 
L 294.278626 141.058683 
L 295.635877 172.953994 
L 296.993129 138.881567 
L 298.35038 132.805777 
L 299.707631 142.450063 
L 302.422134 158.509691 
L 303.779386 153.921787 
L 305.136637 175.189458 
L 306.493889 171.306668 
L 307.85114 125.239377 
L 309.208392 209.997138 
L 310.565643 131.919239 
L 311.922894 171.694031 
L 313.280146 193.680386 
L 314.637397 178.742011 
L 315.994649 161.99657 
L 317.3519 160.32279 
L 318.709152 135.842494 
L 320.066403 171.052476 
L 321.423655 179.581959 
L 322.780906 135.21511 
L 324.138157 129.39774 
L 325.495409 172.490647 
L 326.85266 188.368258 
L 328.209912 142.741888 
L 329.567163 151.440378 
L 330.924415 161.794784 
L 332.281666 163.899542 
L 333.638918 189.15031 
L 334.996169 172.629432 
L 336.35342 152.104442 
L 337.710672 156.575703 
L 339.067923 157.620178 
L 340.425175 166.17903 
L 341.782426 109.129165 
L 343.139678 118.410036 
L 344.496929 213.972114 
L 345.854181 181.391717 
L 348.568683 163.888462 
L 349.925935 224.655318 
L 351.283186 193.705444 
L 352.640438 194.745156 
L 353.997689 154.315349 
L 355.354941 168.130548 
L 356.712192 147.806425 
L 358.069444 137.648241 
L 359.426695 143.954142 
L 360.783946 158.341076 
L 362.141198 148.419721 
L 363.498449 162.39299 
L 364.855701 153.812697 
L 366.212952 124.820615 
L 367.570204 150.141779 
L 368.927455 149.481642 
L 370.284707 143.102362 
L 371.641958 162.639261 
L 372.999209 167.366084 
L 374.356461 160.781074 
L 375.713712 140.640339 
L 377.070964 136.429269 
L 378.428215 185.37072 
L 379.785467 162.258449 
L 381.142718 143.475253 
L 382.49997 126.507797 
L 383.857221 138.366047 
L 385.214472 135.737114 
L 386.571724 126.649423 
L 387.928975 136.68291 
L 389.286227 159.993349 
L 390.643478 140.777169 
L 392.00073 132.973539 
L 393.357981 154.267689 
L 394.715233 144.888373 
L 396.072484 146.855699 
L 397.429735 136.92776 
L 398.786987 154.217004 
L 400.144238 134.12331 
L 401.50149 183.093872 
L 402.858741 178.722643 
L 404.215993 142.68477 
L 405.573244 162.086526 
L 406.930496 148.485579 
L 408.287747 136.073574 
L 409.644998 148.796288 
L 411.00225 173.961897 
L 412.359501 152.806156 
L 413.716753 147.542975 
L 415.074004 143.112356 
L 416.431256 156.667815 
L 417.788507 141.636752 
L 419.145759 170.052503 
L 420.50301 155.770865 
L 421.860261 167.642468 
L 423.217513 159.684344 
L 424.574764 158.115728 
L 425.932016 160.923001 
L 427.289267 155.918675 
L 428.646519 165.909214 
L 430.00377 150.143099 
L 431.361022 164.362087 
L 432.718273 143.111921 
L 434.075524 159.995972 
L 435.432776 161.910909 
L 436.790027 117.485463 
L 438.147279 142.697353 
L 439.50453 160.69533 
L 440.861782 162.371182 
L 442.219033 163.695901 
L 443.576285 145.226104 
L 444.933536 152.291372 
L 446.290787 160.680006 
L 447.648039 129.782479 
L 449.00529 126.083486 
L 451.719793 163.075403 
L 453.077045 163.472892 
L 454.434296 159.231692 
L 455.791548 167.22531 
L 457.148799 171.916121 
L 458.50605 158.799644 
L 459.863302 164.751388 
L 461.220553 167.745742 
L 462.577805 207.64885 
L 463.935056 186.450263 
L 465.292308 191.424217 
L 466.649559 165.357665 
L 468.006811 233.519724 
L 469.364062 190.254268 
L 470.721313 242.282619 
L 472.078565 208.427143 
L 473.435816 204.664723 
L 474.793068 185.434138 
L 476.150319 199.840383 
L 477.507571 165.405542 
L 478.864822 194.889155 
L 480.222074 177.414903 
L 481.579325 191.192251 
L 482.936576 181.155857 
L 484.293828 182.16198 
L 485.651079 175.813975 
L 487.008331 168.569414 
L 488.365582 165.038317 
L 489.722834 177.471403 
L 491.080085 172.781954 
L 492.437337 164.26152 
L 493.794588 146.925936 
L 495.151839 171.498561 
L 496.509091 173.687125 
L 496.509091 173.687125 
" clip-path="url(#p4d262c72aa)" style="fill: none; stroke: #2ca02c; stroke-width: 1.5; stroke-linecap: square"/>
   </g>
   <g id="patch_3">
    <path d="M 70.4 305.131875 
L 70.4 27.931875 
" style="fill: none; stroke: #000000; stroke-width: 0.8; stroke-linejoin: miter; stroke-linecap: square"/>
   </g>
   <g id="patch_4">
    <path d="M 516.8 305.131875 
L 516.8 27.931875 
" style="fill: none; stroke: #000000; stroke-width: 0.8; stroke-linejoin: miter; stroke-linecap: square"/>
   </g>
   <g id="patch_5">
    <path d="M 70.4 305.131875 
L 516.8 305.131875 
" style="fill: none; stroke: #000000; stroke-width: 0.8; stroke-linejoin: miter; stroke-linecap: square"/>
   </g>
   <g id="patch_6">
    <path d="M 70.4 27.931875 
L 516.8 27.931875 
" style="fill: none; stroke: #000000; stroke-width: 0.8; stroke-linejoin: miter; stroke-linecap: square"/>
   </g>
   <g id="text_14">
    <!-- Meta Test Average Return -->
    <g transform="translate(178.726813 21.931875)scale(0.216 -0.216)">
     <defs>
      <path id="STIXGeneral-Regular-4d" d="M 5530 0 
L 3738 0 
L 3738 122 
Q 4115 147 4214 265 
Q 4314 384 4314 787 
L 4314 3661 
L 2682 0 
L 2592 0 
L 979 3514 
L 979 966 
Q 979 448 1088 294 
Q 1197 141 1574 122 
L 1574 0 
L 77 0 
L 77 122 
Q 358 141 480 205 
Q 602 269 650 432 
Q 698 595 698 966 
L 698 3514 
Q 698 3878 589 3984 
Q 480 4090 90 4115 
L 90 4237 
L 1357 4237 
L 2835 1024 
L 4250 4237 
L 5523 4237 
L 5523 4115 
Q 5178 4109 5072 3993 
Q 4966 3878 4966 3520 
L 4966 717 
Q 4966 378 5072 262 
Q 5178 147 5530 122 
L 5530 0 
z
" transform="scale(0.015625)"/>
      <path id="STIXGeneral-Regular-54" d="M 3795 3149 
L 3642 3149 
Q 3539 3674 3353 3821 
Q 3168 3968 2656 3968 
L 2278 3968 
L 2278 710 
Q 2278 346 2387 243 
Q 2496 141 2893 122 
L 2893 0 
L 1024 0 
L 1024 122 
Q 1427 147 1526 256 
Q 1626 365 1626 787 
L 1626 3968 
L 1242 3968 
Q 723 3968 540 3817 
Q 358 3667 262 3149 
L 109 3149 
L 154 4237 
L 3750 4237 
L 3795 3149 
z
" transform="scale(0.015625)"/>
      <path id="STIXGeneral-Regular-73" d="M 998 1926 
L 1664 1523 
Q 1984 1331 2105 1164 
Q 2227 998 2227 736 
Q 2227 416 1961 176 
Q 1696 -64 1331 -64 
Q 1030 -64 864 -6 
Q 691 51 570 51 
Q 461 51 416 -26 
L 333 -26 
L 333 979 
L 435 979 
Q 538 512 730 294 
Q 922 77 1248 77 
Q 1485 77 1632 211 
Q 1779 346 1779 550 
Q 1779 845 1440 1030 
L 1094 1222 
Q 326 1651 326 2150 
Q 326 2522 566 2730 
Q 806 2938 1210 2938 
Q 1491 2938 1638 2867 
Q 1754 2816 1818 2816 
Q 1862 2816 1920 2880 
L 1990 2880 
L 2022 2010 
L 1926 2010 
Q 1818 2445 1654 2621 
Q 1491 2797 1203 2797 
Q 986 2797 854 2688 
Q 723 2579 723 2362 
Q 723 2253 796 2128 
Q 870 2003 998 1926 
z
" transform="scale(0.015625)"/>
     </defs>
     <use xlink:href="#STIXGeneral-Regular-4d"/>
     <use xlink:href="#STIXGeneral-Regular-65" x="88.899994"/>
     <use xlink:href="#STIXGeneral-Regular-74" x="133.299988"/>
     <use xlink:href="#STIXGeneral-Regular-61" x="161.099976"/>
     <use xlink:href="#STIXGeneral-Regular-20" x="205.499969"/>
     <use xlink:href="#STIXGeneral-Regular-54" x="230.499954"/>
     <use xlink:href="#STIXGeneral-Regular-65" x="291.599945"/>
     <use xlink:href="#STIXGeneral-Regular-73" x="335.999939"/>
     <use xlink:href="#STIXGeneral-Regular-74" x="374.899933"/>
     <use xlink:href="#STIXGeneral-Regular-20" x="402.699921"/>
     <use xlink:href="#STIXGeneral-Regular-41" x="427.699905"/>
     <use xlink:href="#STIXGeneral-Regular-76" x="499.899887"/>
     <use xlink:href="#STIXGeneral-Regular-65" x="549.899872"/>
     <use xlink:href="#STIXGeneral-Regular-72" x="594.299866"/>
     <use xlink:href="#STIXGeneral-Regular-61" x="627.599854"/>
     <use xlink:href="#STIXGeneral-Regular-67" x="671.999847"/>
     <use xlink:href="#STIXGeneral-Regular-65" x="721.999832"/>
     <use xlink:href="#STIXGeneral-Regular-20" x="766.399826"/>
     <use xlink:href="#STIXGeneral-Regular-52" x="791.399811"/>
     <use xlink:href="#STIXGeneral-Regular-65" x="858.099808"/>
     <use xlink:href="#STIXGeneral-Regular-74" x="902.499802"/>
     <use xlink:href="#STIXGeneral-Regular-75" x="930.299789"/>
     <use xlink:href="#STIXGeneral-Regular-72" x="980.299774"/>
     <use xlink:href="#STIXGeneral-Regular-6e" x="1013.599762"/>
    </g>
   </g>
   <g id="legend_1">
    <g id="patch_7">
     <path d="M 80.2 98.647187 
L 188.645312 98.647187 
Q 191.445312 98.647187 191.445312 95.847187 
L 191.445312 37.731875 
Q 191.445312 34.931875 188.645312 34.931875 
L 80.2 34.931875 
Q 77.4 34.931875 77.4 37.731875 
L 77.4 95.847187 
Q 77.4 98.647187 80.2 98.647187 
z
" style="fill: #ffffff; opacity: 0.8; stroke: #cccccc; stroke-linejoin: miter"/>
    </g>
    <g id="line2d_26">
     <path d="M 83 45.431875 
L 97 45.431875 
L 111 45.431875 
" style="fill: none; stroke: #1f77b4; stroke-width: 1.5; stroke-linecap: square"/>
    </g>
    <g id="text_15">
     <!-- disc=0.95 -->
     <g transform="translate(122.2 50.331875)scale(0.14 -0.14)">
      <defs>
       <path id="STIXGeneral-Regular-64" d="M 3142 269 
L 2202 -64 
L 2176 -45 
L 2176 365 
Q 1869 -64 1357 -64 
Q 826 -64 499 317 
Q 173 698 173 1312 
Q 173 1990 563 2467 
Q 954 2944 1504 2944 
Q 1850 2944 2176 2669 
L 2176 3667 
Q 2176 3866 2118 3930 
Q 2061 3994 1882 3994 
Q 1792 3994 1741 3987 
L 1741 4090 
Q 2323 4243 2682 4371 
L 2714 4358 
L 2714 730 
Q 2714 506 2768 435 
Q 2822 365 2995 365 
Q 3034 365 3142 371 
L 3142 269 
z
M 2176 653 
L 2176 2125 
Q 2176 2381 1981 2573 
Q 1786 2765 1523 2765 
Q 1158 2765 940 2438 
Q 723 2112 723 1568 
Q 723 979 963 624 
Q 1203 269 1606 269 
Q 1907 269 2080 474 
Q 2176 582 2176 653 
z
" transform="scale(0.015625)"/>
       <path id="STIXGeneral-Regular-69" d="M 1152 4045 
Q 1152 3904 1056 3811 
Q 960 3718 819 3718 
Q 685 3718 592 3811 
Q 499 3904 499 4045 
Q 499 4179 595 4275 
Q 691 4371 826 4371 
Q 966 4371 1059 4275 
Q 1152 4179 1152 4045 
z
M 1619 0 
L 102 0 
L 102 96 
Q 435 115 521 211 
Q 608 307 608 666 
L 608 2118 
Q 608 2342 563 2432 
Q 518 2522 397 2522 
Q 243 2522 128 2490 
L 128 2592 
L 1120 2944 
L 1146 2918 
L 1146 672 
Q 1146 314 1226 218 
Q 1306 122 1619 96 
L 1619 0 
z
" transform="scale(0.015625)"/>
       <path id="STIXGeneral-Regular-3d" d="M 4077 2048 
L 307 2048 
L 307 2470 
L 4077 2470 
L 4077 2048 
z
M 4077 768 
L 307 768 
L 307 1190 
L 4077 1190 
L 4077 768 
z
" transform="scale(0.015625)"/>
       <path id="STIXGeneral-Regular-2e" d="M 1158 275 
Q 1158 134 1052 32 
Q 947 -70 800 -70 
Q 653 -70 550 32 
Q 448 134 448 281 
Q 448 429 553 534 
Q 659 640 806 640 
Q 947 640 1052 531 
Q 1158 422 1158 275 
z
" transform="scale(0.015625)"/>
       <path id="STIXGeneral-Regular-39" d="M 378 -141 
L 358 -13 
Q 1094 115 1603 608 
Q 2112 1101 2304 1882 
Q 1933 1517 1344 1517 
Q 826 1517 509 1875 
Q 192 2234 192 2816 
Q 192 3462 573 3894 
Q 954 4326 1523 4326 
Q 2131 4326 2528 3840 
Q 2938 3328 2938 2522 
Q 2938 1958 2742 1462 
Q 2547 966 2170 621 
Q 1773 262 1395 105 
Q 1018 -51 378 -141 
z
M 2317 2272 
L 2317 2522 
Q 2317 4147 1472 4147 
Q 1171 4147 1005 3930 
Q 909 3802 845 3546 
Q 781 3290 781 3034 
Q 781 2464 995 2128 
Q 1210 1792 1568 1792 
Q 1824 1792 2070 1917 
Q 2317 2042 2317 2272 
z
" transform="scale(0.015625)"/>
      </defs>
      <use xlink:href="#STIXGeneral-Regular-64"/>
      <use xlink:href="#STIXGeneral-Regular-69" x="49.999985"/>
      <use xlink:href="#STIXGeneral-Regular-73" x="77.799973"/>
      <use xlink:href="#STIXGeneral-Regular-63" x="116.699966"/>
      <use xlink:href="#STIXGeneral-Regular-3d" x="161.09996"/>
      <use xlink:href="#STIXGeneral-Regular-30" x="229.599945"/>
      <use xlink:href="#STIXGeneral-Regular-2e" x="279.59993"/>
      <use xlink:href="#STIXGeneral-Regular-39" x="304.599915"/>
      <use xlink:href="#STIXGeneral-Regular-35" x="354.599899"/>
     </g>
    </g>
    <g id="line2d_27">
     <path d="M 83 65.270312 
L 97 65.270312 
L 111 65.270312 
" style="fill: none; stroke: #ff7f0e; stroke-width: 1.5; stroke-linecap: square"/>
    </g>
    <g id="text_16">
     <!-- disc=0.99 -->
     <g transform="translate(122.2 70.170312)scale(0.14 -0.14)">
      <use xlink:href="#STIXGeneral-Regular-64"/>
      <use xlink:href="#STIXGeneral-Regular-69" x="49.999985"/>
      <use xlink:href="#STIXGeneral-Regular-73" x="77.799973"/>
      <use xlink:href="#STIXGeneral-Regular-63" x="116.699966"/>
      <use xlink:href="#STIXGeneral-Regular-3d" x="161.09996"/>
      <use xlink:href="#STIXGeneral-Regular-30" x="229.599945"/>
      <use xlink:href="#STIXGeneral-Regular-2e" x="279.59993"/>
      <use xlink:href="#STIXGeneral-Regular-39" x="304.599915"/>
      <use xlink:href="#STIXGeneral-Regular-39" x="354.599899"/>
     </g>
    </g>
    <g id="line2d_28">
     <path d="M 83 85.10875 
L 97 85.10875 
L 111 85.10875 
" style="fill: none; stroke: #2ca02c; stroke-width: 1.5; stroke-linecap: square"/>
    </g>
    <g id="text_17">
     <!-- disc=0.999 -->
     <g transform="translate(122.2 90.00875)scale(0.14 -0.14)">
      <use xlink:href="#STIXGeneral-Regular-64"/>
      <use xlink:href="#STIXGeneral-Regular-69" x="49.999985"/>
      <use xlink:href="#STIXGeneral-Regular-73" x="77.799973"/>
      <use xlink:href="#STIXGeneral-Regular-63" x="116.699966"/>
      <use xlink:href="#STIXGeneral-Regular-3d" x="161.09996"/>
      <use xlink:href="#STIXGeneral-Regular-30" x="229.599945"/>
      <use xlink:href="#STIXGeneral-Regular-2e" x="279.59993"/>
      <use xlink:href="#STIXGeneral-Regular-39" x="304.599915"/>
      <use xlink:href="#STIXGeneral-Regular-39" x="354.599899"/>
      <use xlink:href="#STIXGeneral-Regular-39" x="404.599884"/>
     </g>
    </g>
   </g>
  </g>
 </g>
 <defs>
  <clipPath id="p4d262c72aa">
   <rect x="70.4" y="27.931875" width="446.4" height="277.2"/>
  </clipPath>
 </defs>
</svg>
