<?xml version="1.0" encoding="utf-8" standalone="no"?>
<!DOCTYPE svg PUBLIC "-//W3C//DTD SVG 1.1//EN"
  "http://www.w3.org/Graphics/SVG/1.1/DTD/svg11.dtd">
<svg xmlns:xlink="http://www.w3.org/1999/xlink" width="531.202821pt" height="355.731875pt" viewBox="0 0 531.202821 355.731875" xmlns="http://www.w3.org/2000/svg" version="1.1">
 <metadata>
  <rdf:RDF xmlns:dc="http://purl.org/dc/elements/1.1/" xmlns:cc="http://creativecommons.org/ns#" xmlns:rdf="http://www.w3.org/1999/02/22-rdf-syntax-ns#">
   <cc:Work>
    <dc:type rdf:resource="http://purl.org/dc/dcmitype/StillImage"/>
    <dc:date>2021-12-09T10:50:09.206121</dc:date>
    <dc:format>image/svg+xml</dc:format>
    <dc:creator>
     <cc:Agent>
      <dc:title>Matplotlib v3.5.0, https://matplotlib.org/</dc:title>
     </cc:Agent>
    </dc:creator>
   </cc:Work>
  </rdf:RDF>
 </metadata>
 <defs>
  <style type="text/css">*{stroke-linejoin: round; stroke-linecap: butt}</style>
 </defs>
 <g id="figure_1">
  <g id="patch_1">
   <path d="M 0 355.731875 
L 531.202821 355.731875 
L 531.202821 0 
L 0 0 
z
" style="fill: #ffffff"/>
  </g>
  <g id="axes_1">
   <g id="patch_2">
    <path d="M 70.4 305.131875 
L 516.8 305.131875 
L 516.8 27.931875 
L 70.4 27.931875 
z
" style="fill: #ffffff"/>
   </g>
   <g id="matplotlib.axis_1">
    <g id="xtick_1">
     <g id="line2d_1">
      <path d="M 90.690909 305.131875 
L 90.690909 27.931875 
" clip-path="url(#p45a4501094)" style="fill: none; stroke: #b0b0b0; stroke-width: 0.8; stroke-linecap: square"/>
     </g>
     <g id="line2d_2">
      <defs>
       <path id="m52d9031341" d="M 0 0 
L 0 3.5 
" style="stroke: #000000; stroke-width: 0.8"/>
      </defs>
      <g>
       <use xlink:href="#m52d9031341" x="90.690909" y="305.131875" style="stroke: #000000; stroke-width: 0.8"/>
      </g>
     </g>
     <g id="text_1">
      <!-- 0 -->
      <g transform="translate(86.190909 324.425313)scale(0.18 -0.18)">
       <defs>
        <path id="STIXGeneral-Regular-30" d="M 3046 2112 
Q 3046 1683 2963 1302 
Q 2880 922 2717 602 
Q 2554 282 2266 96 
Q 1978 -90 1600 -90 
Q 1210 -90 915 108 
Q 621 307 461 640 
Q 301 973 227 1350 
Q 154 1728 154 2150 
Q 154 2746 301 3222 
Q 448 3699 790 4012 
Q 1133 4326 1626 4326 
Q 2253 4326 2649 3712 
Q 3046 3098 3046 2112 
z
M 2432 2080 
Q 2432 3091 2217 3625 
Q 2003 4160 1587 4160 
Q 1190 4160 979 3622 
Q 768 3085 768 2106 
Q 768 1120 979 598 
Q 1190 77 1600 77 
Q 2003 77 2217 598 
Q 2432 1120 2432 2080 
z
" transform="scale(0.015625)"/>
       </defs>
       <use xlink:href="#STIXGeneral-Regular-30"/>
      </g>
     </g>
    </g>
    <g id="xtick_2">
     <g id="line2d_3">
      <path d="M 160.659561 305.131875 
L 160.659561 27.931875 
" clip-path="url(#p45a4501094)" style="fill: none; stroke: #b0b0b0; stroke-width: 0.8; stroke-linecap: square"/>
     </g>
     <g id="line2d_4">
      <g>
       <use xlink:href="#m52d9031341" x="160.659561" y="305.131875" style="stroke: #000000; stroke-width: 0.8"/>
      </g>
     </g>
     <g id="text_2">
      <!-- 50 -->
      <g transform="translate(151.659561 324.425313)scale(0.18 -0.18)">
       <defs>
        <path id="STIXGeneral-Regular-35" d="M 2803 4358 
L 2573 3814 
Q 2534 3731 2400 3731 
L 1158 3731 
L 902 3187 
Q 1606 3053 1920 2896 
Q 2234 2739 2502 2368 
Q 2726 2061 2726 1555 
Q 2726 1094 2576 780 
Q 2426 467 2099 224 
Q 1664 -90 1011 -90 
Q 646 -90 422 19 
Q 198 128 198 307 
Q 198 550 486 550 
Q 717 550 960 352 
Q 1210 147 1414 147 
Q 1747 147 2012 480 
Q 2278 813 2278 1229 
Q 2278 1843 1850 2189 
Q 1293 2637 486 2637 
Q 410 2637 410 2688 
L 416 2720 
L 1114 4237 
L 2438 4237 
Q 2547 4237 2608 4269 
Q 2669 4301 2746 4403 
L 2803 4358 
z
" transform="scale(0.015625)"/>
       </defs>
       <use xlink:href="#STIXGeneral-Regular-35"/>
       <use xlink:href="#STIXGeneral-Regular-30" x="49.999985"/>
      </g>
     </g>
    </g>
    <g id="xtick_3">
     <g id="line2d_5">
      <path d="M 230.628213 305.131875 
L 230.628213 27.931875 
" clip-path="url(#p45a4501094)" style="fill: none; stroke: #b0b0b0; stroke-width: 0.8; stroke-linecap: square"/>
     </g>
     <g id="line2d_6">
      <g>
       <use xlink:href="#m52d9031341" x="230.628213" y="305.131875" style="stroke: #000000; stroke-width: 0.8"/>
      </g>
     </g>
     <g id="text_3">
      <!-- 100 -->
      <g transform="translate(217.128213 324.425313)scale(0.18 -0.18)">
       <defs>
        <path id="STIXGeneral-Regular-31" d="M 2522 0 
L 755 0 
L 755 96 
Q 1107 115 1235 227 
Q 1363 339 1363 608 
L 1363 3482 
Q 1363 3795 1171 3795 
Q 1082 3795 883 3718 
L 710 3654 
L 710 3744 
L 1856 4326 
L 1914 4307 
L 1914 486 
Q 1914 275 2042 185 
Q 2170 96 2522 96 
L 2522 0 
z
" transform="scale(0.015625)"/>
       </defs>
       <use xlink:href="#STIXGeneral-Regular-31"/>
       <use xlink:href="#STIXGeneral-Regular-30" x="49.999985"/>
       <use xlink:href="#STIXGeneral-Regular-30" x="99.999969"/>
      </g>
     </g>
    </g>
    <g id="xtick_4">
     <g id="line2d_7">
      <path d="M 300.596865 305.131875 
L 300.596865 27.931875 
" clip-path="url(#p45a4501094)" style="fill: none; stroke: #b0b0b0; stroke-width: 0.8; stroke-linecap: square"/>
     </g>
     <g id="line2d_8">
      <g>
       <use xlink:href="#m52d9031341" x="300.596865" y="305.131875" style="stroke: #000000; stroke-width: 0.8"/>
      </g>
     </g>
     <g id="text_4">
      <!-- 150 -->
      <g transform="translate(287.096865 324.425313)scale(0.18 -0.18)">
       <use xlink:href="#STIXGeneral-Regular-31"/>
       <use xlink:href="#STIXGeneral-Regular-35" x="49.999985"/>
       <use xlink:href="#STIXGeneral-Regular-30" x="99.999969"/>
      </g>
     </g>
    </g>
    <g id="xtick_5">
     <g id="line2d_9">
      <path d="M 370.565517 305.131875 
L 370.565517 27.931875 
" clip-path="url(#p45a4501094)" style="fill: none; stroke: #b0b0b0; stroke-width: 0.8; stroke-linecap: square"/>
     </g>
     <g id="line2d_10">
      <g>
       <use xlink:href="#m52d9031341" x="370.565517" y="305.131875" style="stroke: #000000; stroke-width: 0.8"/>
      </g>
     </g>
     <g id="text_5">
      <!-- 200 -->
      <g transform="translate(357.065517 324.425313)scale(0.18 -0.18)">
       <defs>
        <path id="STIXGeneral-Regular-32" d="M 3034 877 
L 2688 0 
L 186 0 
L 186 77 
L 1325 1286 
Q 1773 1754 1965 2144 
Q 2157 2534 2157 2950 
Q 2157 3379 1920 3616 
Q 1683 3853 1267 3853 
Q 922 3853 720 3673 
Q 518 3494 326 3021 
L 192 3053 
Q 301 3648 630 3987 
Q 960 4326 1523 4326 
Q 2054 4326 2380 4006 
Q 2707 3686 2707 3200 
Q 2707 2477 1888 1613 
L 832 486 
L 2330 486 
Q 2541 486 2665 569 
Q 2790 653 2944 915 
L 3034 877 
z
" transform="scale(0.015625)"/>
       </defs>
       <use xlink:href="#STIXGeneral-Regular-32"/>
       <use xlink:href="#STIXGeneral-Regular-30" x="49.999985"/>
       <use xlink:href="#STIXGeneral-Regular-30" x="99.999969"/>
      </g>
     </g>
    </g>
    <g id="xtick_6">
     <g id="line2d_11">
      <path d="M 440.534169 305.131875 
L 440.534169 27.931875 
" clip-path="url(#p45a4501094)" style="fill: none; stroke: #b0b0b0; stroke-width: 0.8; stroke-linecap: square"/>
     </g>
     <g id="line2d_12">
      <g>
       <use xlink:href="#m52d9031341" x="440.534169" y="305.131875" style="stroke: #000000; stroke-width: 0.8"/>
      </g>
     </g>
     <g id="text_6">
      <!-- 250 -->
      <g transform="translate(427.034169 324.425313)scale(0.18 -0.18)">
       <use xlink:href="#STIXGeneral-Regular-32"/>
       <use xlink:href="#STIXGeneral-Regular-35" x="49.999985"/>
       <use xlink:href="#STIXGeneral-Regular-30" x="99.999969"/>
      </g>
     </g>
    </g>
    <g id="xtick_7">
     <g id="line2d_13">
      <path d="M 510.502821 305.131875 
L 510.502821 27.931875 
" clip-path="url(#p45a4501094)" style="fill: none; stroke: #b0b0b0; stroke-width: 0.8; stroke-linecap: square"/>
     </g>
     <g id="line2d_14">
      <g>
       <use xlink:href="#m52d9031341" x="510.502821" y="305.131875" style="stroke: #000000; stroke-width: 0.8"/>
      </g>
     </g>
     <g id="text_7">
      <!-- 300 -->
      <g transform="translate(497.002821 324.425313)scale(0.18 -0.18)">
       <defs>
        <path id="STIXGeneral-Regular-33" d="M 390 3264 
L 288 3290 
Q 435 3770 748 4048 
Q 1062 4326 1542 4326 
Q 1990 4326 2265 4083 
Q 2541 3840 2541 3450 
Q 2541 2925 1946 2566 
Q 2298 2413 2477 2227 
Q 2758 1914 2758 1402 
Q 2758 890 2464 506 
Q 2246 211 1840 60 
Q 1434 -90 979 -90 
Q 262 -90 262 275 
Q 262 378 339 442 
Q 416 506 525 506 
Q 685 506 915 339 
Q 1197 141 1466 141 
Q 1818 141 2058 425 
Q 2298 710 2298 1120 
Q 2298 1856 1632 2048 
Q 1434 2112 979 2112 
L 979 2202 
Q 1338 2323 1517 2432 
Q 2035 2726 2035 3290 
Q 2035 3610 1852 3776 
Q 1670 3942 1344 3942 
Q 768 3942 390 3264 
z
" transform="scale(0.015625)"/>
       </defs>
       <use xlink:href="#STIXGeneral-Regular-33"/>
       <use xlink:href="#STIXGeneral-Regular-30" x="49.999985"/>
       <use xlink:href="#STIXGeneral-Regular-30" x="99.999969"/>
      </g>
     </g>
    </g>
    <g id="text_8">
     <!-- Epoch -->
     <g transform="translate(270.605 344.625313)scale(0.18 -0.18)">
      <defs>
       <path id="STIXGeneral-Regular-45" d="M 3821 1082 
L 3526 0 
L 77 0 
L 77 122 
Q 442 147 538 252 
Q 634 358 634 730 
L 634 3520 
Q 634 3878 534 3987 
Q 435 4096 77 4115 
L 77 4237 
L 3469 4237 
L 3494 3322 
L 3334 3322 
Q 3264 3750 3085 3872 
Q 2906 3994 2349 3994 
L 1510 3994 
Q 1370 3994 1328 3952 
Q 1286 3910 1286 3763 
L 1286 2355 
L 2253 2355 
Q 2656 2355 2787 2470 
Q 2918 2586 2976 2970 
L 3123 2970 
L 3123 1472 
L 2976 1472 
Q 2918 1875 2790 1984 
Q 2662 2093 2253 2093 
L 1286 2093 
L 1286 538 
Q 1286 346 1420 291 
Q 1555 237 1933 237 
L 2163 237 
Q 2848 237 3136 403 
Q 3424 570 3642 1082 
L 3821 1082 
z
" transform="scale(0.015625)"/>
       <path id="STIXGeneral-Regular-70" d="M 1018 2931 
L 1018 2438 
Q 1421 2944 1939 2944 
Q 2406 2944 2707 2560 
Q 3008 2176 3008 1581 
Q 3008 883 2621 409 
Q 2234 -64 1664 -64 
Q 1466 -64 1328 -6 
Q 1190 51 1018 211 
L 1018 -794 
Q 1018 -1094 1120 -1180 
Q 1222 -1267 1581 -1274 
L 1581 -1389 
L 32 -1389 
L 32 -1280 
Q 314 -1254 397 -1171 
Q 480 -1088 480 -838 
L 480 2157 
Q 480 2381 429 2451 
Q 378 2522 218 2522 
Q 115 2522 58 2515 
L 58 2618 
Q 506 2752 979 2944 
L 1018 2931 
z
M 1018 2138 
L 1018 563 
Q 1018 422 1238 281 
Q 1459 141 1683 141 
Q 2029 141 2243 467 
Q 2458 794 2458 1325 
Q 2458 1888 2243 2224 
Q 2029 2560 1670 2560 
Q 1446 2560 1232 2419 
Q 1018 2278 1018 2138 
z
" transform="scale(0.015625)"/>
       <path id="STIXGeneral-Regular-6f" d="M 3008 1478 
Q 3008 806 2608 371 
Q 2208 -64 1568 -64 
Q 979 -64 582 368 
Q 186 800 186 1459 
Q 186 2125 582 2534 
Q 979 2944 1626 2944 
Q 2221 2944 2614 2537 
Q 3008 2131 3008 1478 
z
M 2432 1306 
Q 2432 2035 2112 2445 
Q 1856 2765 1504 2765 
Q 1171 2765 966 2493 
Q 762 2221 762 1747 
Q 762 928 1101 435 
Q 1318 115 1677 115 
Q 2029 115 2230 432 
Q 2432 749 2432 1306 
z
" transform="scale(0.015625)"/>
       <path id="STIXGeneral-Regular-63" d="M 2547 998 
L 2637 941 
Q 2362 403 2112 205 
Q 1786 -64 1376 -64 
Q 845 -64 502 336 
Q 160 736 160 1357 
Q 160 2170 698 2618 
Q 1094 2944 1562 2944 
Q 1965 2944 2256 2749 
Q 2547 2554 2547 2285 
Q 2547 2176 2457 2096 
Q 2368 2016 2246 2016 
Q 2022 2016 1939 2310 
L 1901 2451 
Q 1850 2630 1773 2694 
Q 1696 2758 1523 2758 
Q 1133 2758 893 2451 
Q 653 2144 653 1645 
Q 653 1094 928 745 
Q 1203 397 1645 397 
Q 1920 397 2118 528 
Q 2317 659 2547 998 
z
" transform="scale(0.015625)"/>
       <path id="STIXGeneral-Regular-68" d="M 3117 0 
L 1760 0 
L 1760 96 
Q 2042 128 2118 224 
Q 2195 320 2195 653 
L 2195 1920 
Q 2195 2598 1722 2598 
Q 1530 2598 1370 2508 
Q 1210 2419 1005 2195 
L 1005 653 
Q 1005 320 1081 224 
Q 1158 128 1440 96 
L 1440 0 
L 58 0 
L 58 96 
Q 333 134 400 224 
Q 467 314 467 653 
L 467 3667 
Q 467 3872 406 3933 
Q 346 3994 141 3994 
Q 83 3994 64 3987 
L 64 4090 
L 237 4141 
Q 730 4288 973 4371 
L 1005 4352 
L 1005 2406 
Q 1229 2694 1446 2819 
Q 1664 2944 1946 2944 
Q 2733 2944 2733 1926 
L 2733 653 
Q 2733 320 2793 233 
Q 2854 147 3117 96 
L 3117 0 
z
" transform="scale(0.015625)"/>
      </defs>
      <use xlink:href="#STIXGeneral-Regular-45"/>
      <use xlink:href="#STIXGeneral-Regular-70" x="61.099991"/>
      <use xlink:href="#STIXGeneral-Regular-6f" x="111.099976"/>
      <use xlink:href="#STIXGeneral-Regular-63" x="161.09996"/>
      <use xlink:href="#STIXGeneral-Regular-68" x="205.499954"/>
     </g>
    </g>
   </g>
   <g id="matplotlib.axis_2">
    <g id="ytick_1">
     <g id="line2d_15">
      <path d="M 70.4 292.620613 
L 516.8 292.620613 
" clip-path="url(#p45a4501094)" style="fill: none; stroke: #b0b0b0; stroke-width: 0.8; stroke-linecap: square"/>
     </g>
     <g id="line2d_16">
      <defs>
       <path id="mb87c53ab5c" d="M 0 0 
L -3.5 0 
" style="stroke: #000000; stroke-width: 0.8"/>
      </defs>
      <g>
       <use xlink:href="#mb87c53ab5c" x="70.4" y="292.620613" style="stroke: #000000; stroke-width: 0.8"/>
      </g>
     </g>
     <g id="text_9">
      <!-- 0 -->
      <g transform="translate(54.4 298.767331)scale(0.18 -0.18)">
       <use xlink:href="#STIXGeneral-Regular-30"/>
      </g>
     </g>
    </g>
    <g id="ytick_2">
     <g id="line2d_17">
      <path d="M 70.4 217.354896 
L 516.8 217.354896 
" clip-path="url(#p45a4501094)" style="fill: none; stroke: #b0b0b0; stroke-width: 0.8; stroke-linecap: square"/>
     </g>
     <g id="line2d_18">
      <g>
       <use xlink:href="#mb87c53ab5c" x="70.4" y="217.354896" style="stroke: #000000; stroke-width: 0.8"/>
      </g>
     </g>
     <g id="text_10">
      <!-- 1000 -->
      <g transform="translate(27.4 223.501614)scale(0.18 -0.18)">
       <use xlink:href="#STIXGeneral-Regular-31"/>
       <use xlink:href="#STIXGeneral-Regular-30" x="49.999985"/>
       <use xlink:href="#STIXGeneral-Regular-30" x="99.999969"/>
       <use xlink:href="#STIXGeneral-Regular-30" x="149.999954"/>
      </g>
     </g>
    </g>
    <g id="ytick_3">
     <g id="line2d_19">
      <path d="M 70.4 142.089179 
L 516.8 142.089179 
" clip-path="url(#p45a4501094)" style="fill: none; stroke: #b0b0b0; stroke-width: 0.8; stroke-linecap: square"/>
     </g>
     <g id="line2d_20">
      <g>
       <use xlink:href="#mb87c53ab5c" x="70.4" y="142.089179" style="stroke: #000000; stroke-width: 0.8"/>
      </g>
     </g>
     <g id="text_11">
      <!-- 2000 -->
      <g transform="translate(27.4 148.235897)scale(0.18 -0.18)">
       <use xlink:href="#STIXGeneral-Regular-32"/>
       <use xlink:href="#STIXGeneral-Regular-30" x="49.999985"/>
       <use xlink:href="#STIXGeneral-Regular-30" x="99.999969"/>
       <use xlink:href="#STIXGeneral-Regular-30" x="149.999954"/>
      </g>
     </g>
    </g>
    <g id="ytick_4">
     <g id="line2d_21">
      <path d="M 70.4 66.823462 
L 516.8 66.823462 
" clip-path="url(#p45a4501094)" style="fill: none; stroke: #b0b0b0; stroke-width: 0.8; stroke-linecap: square"/>
     </g>
     <g id="line2d_22">
      <g>
       <use xlink:href="#mb87c53ab5c" x="70.4" y="66.823462" style="stroke: #000000; stroke-width: 0.8"/>
      </g>
     </g>
     <g id="text_12">
      <!-- 3000 -->
      <g transform="translate(27.4 72.97018)scale(0.18 -0.18)">
       <use xlink:href="#STIXGeneral-Regular-33"/>
       <use xlink:href="#STIXGeneral-Regular-30" x="49.999985"/>
       <use xlink:href="#STIXGeneral-Regular-30" x="99.999969"/>
       <use xlink:href="#STIXGeneral-Regular-30" x="149.999954"/>
      </g>
     </g>
    </g>
    <g id="text_13">
     <!-- Average Return -->
     <g transform="translate(19.476562 223.764844)rotate(-90)scale(0.18 -0.18)">
      <defs>
       <path id="STIXGeneral-Regular-41" d="M 4525 0 
L 2893 0 
L 2893 122 
Q 3149 122 3245 179 
Q 3334 224 3334 333 
Q 3334 499 3213 781 
L 2950 1382 
L 1274 1382 
L 979 653 
Q 922 506 922 384 
Q 922 237 1027 179 
Q 1133 122 1370 122 
L 1370 0 
L 96 0 
L 96 122 
Q 365 147 486 316 
Q 608 486 902 1190 
L 2221 4314 
L 2349 4314 
L 3923 710 
Q 4064 378 4176 262 
Q 4288 147 4525 122 
L 4525 0 
z
M 2861 1645 
L 2118 3405 
L 1382 1645 
L 2861 1645 
z
" transform="scale(0.015625)"/>
       <path id="STIXGeneral-Regular-76" d="M 3053 2880 
L 3053 2784 
Q 2906 2771 2835 2688 
Q 2765 2605 2637 2285 
L 1818 230 
Q 1690 -90 1638 -90 
Q 1587 -90 1523 77 
Q 1510 96 1497 141 
Q 1485 186 1472 211 
L 704 2048 
Q 499 2534 403 2652 
Q 307 2771 122 2784 
L 122 2880 
L 1376 2880 
L 1376 2784 
Q 1210 2771 1146 2732 
Q 1082 2694 1082 2611 
Q 1082 2509 1139 2368 
L 1792 730 
L 2426 2387 
Q 2464 2483 2464 2579 
Q 2464 2758 2163 2784 
L 2163 2880 
L 3053 2880 
z
" transform="scale(0.015625)"/>
       <path id="STIXGeneral-Regular-65" d="M 2611 1050 
L 2714 1005 
Q 2330 -64 1376 -64 
Q 813 -64 486 329 
Q 160 723 160 1389 
Q 160 2074 525 2509 
Q 890 2944 1485 2944 
Q 2061 2944 2374 2502 
Q 2560 2246 2592 1773 
L 621 1773 
Q 646 1370 700 1158 
Q 755 947 915 730 
Q 1184 378 1626 378 
Q 1939 378 2153 531 
Q 2368 685 2611 1050 
z
M 634 1978 
L 1939 1978 
Q 1882 2381 1750 2547 
Q 1619 2714 1312 2714 
Q 1043 2714 864 2525 
Q 685 2336 634 1978 
z
" transform="scale(0.015625)"/>
       <path id="STIXGeneral-Regular-72" d="M 1024 2931 
L 1024 2342 
Q 1267 2688 1430 2816 
Q 1594 2944 1792 2944 
Q 1958 2944 2051 2854 
Q 2144 2765 2144 2605 
Q 2144 2470 2077 2393 
Q 2010 2317 1894 2317 
Q 1773 2317 1638 2445 
Q 1536 2541 1472 2541 
Q 1338 2541 1181 2355 
Q 1024 2170 1024 2016 
L 1024 576 
Q 1024 301 1133 205 
Q 1242 109 1568 96 
L 1568 0 
L 32 0 
L 32 96 
Q 339 154 412 224 
Q 486 294 486 538 
L 486 2138 
Q 486 2349 438 2435 
Q 390 2522 269 2522 
Q 166 2522 45 2496 
L 45 2598 
Q 448 2726 992 2944 
L 1024 2931 
z
" transform="scale(0.015625)"/>
       <path id="STIXGeneral-Regular-61" d="M 2829 422 
L 2829 243 
Q 2586 -64 2253 -64 
Q 1888 -64 1843 403 
L 1837 403 
Q 1427 -64 909 -64 
Q 608 -64 422 112 
Q 237 288 237 602 
Q 237 1050 685 1350 
Q 992 1555 1837 1869 
L 1837 2214 
Q 1837 2502 1699 2646 
Q 1562 2790 1338 2790 
Q 1146 2790 1018 2697 
Q 890 2605 890 2477 
Q 890 2419 909 2348 
Q 928 2278 928 2208 
Q 928 2112 841 2029 
Q 755 1946 634 1946 
Q 525 1946 441 2029 
Q 358 2112 358 2240 
Q 358 2547 685 2752 
Q 986 2944 1421 2944 
Q 1939 2944 2176 2656 
Q 2291 2522 2323 2384 
Q 2355 2246 2355 1946 
L 2355 723 
Q 2355 301 2554 301 
Q 2682 301 2829 422 
z
M 1837 813 
L 1837 1715 
Q 1248 1510 1018 1293 
Q 800 1094 800 800 
Q 800 557 921 432 
Q 1043 307 1242 307 
Q 1453 307 1613 410 
Q 1747 506 1792 589 
Q 1837 672 1837 813 
z
" transform="scale(0.015625)"/>
       <path id="STIXGeneral-Regular-67" d="M 3008 2483 
L 2477 2483 
Q 2598 2208 2598 1946 
Q 2598 1453 2265 1203 
Q 1933 954 1600 954 
Q 1530 954 1357 973 
L 1235 986 
Q 1107 947 979 812 
Q 851 678 851 582 
Q 851 435 1350 410 
L 2176 371 
Q 2528 358 2739 172 
Q 2950 -13 2950 -314 
Q 2950 -685 2566 -986 
Q 2035 -1395 1286 -1395 
Q 826 -1395 502 -1212 
Q 179 -1030 179 -774 
Q 179 -595 320 -419 
Q 461 -243 806 6 
Q 602 102 534 172 
Q 467 243 467 346 
Q 467 531 762 787 
Q 909 915 1037 1043 
Q 717 1203 579 1401 
Q 442 1600 442 1901 
Q 442 2336 752 2640 
Q 1062 2944 1510 2944 
Q 1766 2944 2022 2848 
L 2163 2797 
Q 2349 2733 2515 2733 
L 3008 2733 
L 3008 2483 
z
M 973 2163 
L 973 2144 
Q 973 1683 1155 1398 
Q 1338 1114 1632 1114 
Q 1850 1114 1978 1270 
Q 2106 1427 2106 1690 
Q 2106 2112 1914 2464 
Q 1754 2765 1446 2765 
Q 1222 2765 1097 2605 
Q 973 2445 973 2163 
z
M 2771 -410 
Q 2771 -230 2595 -163 
Q 2419 -96 1978 -96 
Q 1344 -96 941 -13 
Q 749 -243 688 -348 
Q 627 -454 627 -563 
Q 627 -774 880 -902 
Q 1133 -1030 1555 -1030 
Q 2099 -1030 2435 -860 
Q 2771 -691 2771 -410 
z
" transform="scale(0.015625)"/>
       <path id="STIXGeneral-Regular-20" transform="scale(0.015625)"/>
       <path id="STIXGeneral-Regular-52" d="M 4224 0 
L 3187 0 
L 1664 1971 
L 1306 1958 
L 1306 717 
Q 1306 352 1405 249 
Q 1504 147 1875 122 
L 1875 0 
L 109 0 
L 109 122 
Q 474 154 563 262 
Q 653 371 653 794 
L 653 3526 
Q 653 3885 563 3987 
Q 474 4090 109 4115 
L 109 4237 
L 1850 4237 
Q 2726 4237 3187 3859 
Q 3501 3603 3501 3091 
Q 3501 2221 2342 2042 
L 3622 422 
Q 3757 256 3878 198 
Q 4000 141 4224 122 
L 4224 0 
z
M 1306 3731 
L 1306 2195 
Q 1766 2202 1990 2246 
Q 2214 2291 2438 2413 
Q 2803 2618 2803 3142 
Q 2803 4000 1632 4000 
Q 1459 4000 1382 3945 
Q 1306 3891 1306 3731 
z
" transform="scale(0.015625)"/>
       <path id="STIXGeneral-Regular-74" d="M 1702 493 
L 1786 422 
Q 1478 -64 1011 -64 
Q 448 -64 448 749 
L 448 2675 
L 109 2675 
Q 83 2694 83 2720 
Q 83 2771 192 2842 
Q 435 2982 813 3526 
Q 826 3546 874 3606 
Q 922 3667 941 3706 
Q 986 3706 986 3622 
L 986 2880 
L 1632 2880 
L 1632 2675 
L 986 2675 
L 986 845 
Q 986 538 1062 403 
Q 1139 269 1318 269 
Q 1510 269 1702 493 
z
" transform="scale(0.015625)"/>
       <path id="STIXGeneral-Regular-75" d="M 3072 320 
L 3072 230 
Q 2573 96 2195 -58 
L 2163 -38 
L 2163 486 
L 2150 486 
Q 1747 -64 1235 -64 
Q 870 -64 662 160 
Q 454 384 454 755 
L 454 2362 
Q 454 2598 371 2688 
Q 288 2778 58 2790 
L 58 2880 
L 992 2880 
L 992 813 
Q 992 595 1123 451 
Q 1254 307 1446 307 
Q 1760 307 1984 506 
Q 2067 582 2099 649 
Q 2131 717 2131 877 
L 2131 2355 
Q 2131 2605 2041 2678 
Q 1952 2752 1658 2771 
L 1658 2880 
L 2669 2880 
L 2669 685 
Q 2669 461 2742 390 
Q 2816 320 3034 320 
L 3072 320 
z
" transform="scale(0.015625)"/>
       <path id="STIXGeneral-Regular-6e" d="M 3104 0 
L 1773 0 
L 1779 96 
Q 2016 115 2096 233 
Q 2176 352 2176 672 
L 2176 1946 
Q 2176 2592 1709 2592 
Q 1549 2592 1408 2515 
Q 1267 2438 1050 2227 
L 1050 461 
Q 1050 269 1136 192 
Q 1222 115 1466 96 
L 1466 0 
L 115 0 
L 115 96 
Q 358 115 435 214 
Q 512 314 512 602 
L 512 2157 
Q 512 2394 467 2483 
Q 422 2573 288 2573 
Q 160 2573 102 2547 
L 102 2656 
Q 550 2784 979 2944 
L 1030 2925 
L 1030 2426 
L 1037 2426 
Q 1491 2944 1958 2944 
Q 2323 2944 2518 2688 
Q 2714 2432 2714 1958 
L 2714 544 
Q 2714 288 2790 205 
Q 2867 122 3104 96 
L 3104 0 
z
" transform="scale(0.015625)"/>
      </defs>
      <use xlink:href="#STIXGeneral-Regular-41"/>
      <use xlink:href="#STIXGeneral-Regular-76" x="72.199982"/>
      <use xlink:href="#STIXGeneral-Regular-65" x="122.199966"/>
      <use xlink:href="#STIXGeneral-Regular-72" x="166.59996"/>
      <use xlink:href="#STIXGeneral-Regular-61" x="199.899948"/>
      <use xlink:href="#STIXGeneral-Regular-67" x="244.299942"/>
      <use xlink:href="#STIXGeneral-Regular-65" x="294.299927"/>
      <use xlink:href="#STIXGeneral-Regular-20" x="338.699921"/>
      <use xlink:href="#STIXGeneral-Regular-52" x="363.699905"/>
      <use xlink:href="#STIXGeneral-Regular-65" x="430.399902"/>
      <use xlink:href="#STIXGeneral-Regular-74" x="474.799896"/>
      <use xlink:href="#STIXGeneral-Regular-75" x="502.599884"/>
      <use xlink:href="#STIXGeneral-Regular-72" x="552.599869"/>
      <use xlink:href="#STIXGeneral-Regular-6e" x="585.899857"/>
     </g>
    </g>
   </g>
   <g id="line2d_23">
    <path d="M 90.690909 292.216706 
L 92.090282 292.345379 
L 96.288401 292.219817 
L 97.687774 291.923113 
L 99.087147 291.775901 
L 100.48652 292.127263 
L 104.684639 291.740422 
L 107.483386 291.983638 
L 108.882759 292.18697 
L 110.282132 291.777524 
L 111.681505 292.016972 
L 113.080878 292.11932 
L 114.480251 291.645023 
L 115.879624 291.96286 
L 117.278997 285.325976 
L 118.67837 292.238407 
L 120.077743 286.37655 
L 121.477116 291.60297 
L 124.275862 291.964211 
L 127.074608 292.101239 
L 128.473981 291.72382 
L 132.6721 291.927426 
L 134.071473 291.859507 
L 135.470846 281.294453 
L 136.870219 291.81107 
L 139.668966 291.768187 
L 141.068339 292.257139 
L 142.467712 291.741505 
L 143.867085 291.699548 
L 149.464577 291.96484 
L 150.86395 292.252552 
L 155.062069 291.733665 
L 156.461442 292.303709 
L 157.860815 292.033485 
L 159.260188 292.08445 
L 160.659561 291.901614 
L 162.058934 291.598355 
L 163.458307 292.004069 
L 164.85768 283.139857 
L 166.257053 291.788073 
L 167.656426 291.807435 
L 169.055799 290.821241 
L 170.455172 291.851465 
L 171.854545 291.67397 
L 173.253918 291.908202 
L 174.653292 291.912426 
L 176.052665 291.686199 
L 177.452038 291.991359 
L 178.851411 291.63022 
L 180.250784 291.898535 
L 181.650157 291.807976 
L 183.04953 292.252014 
L 185.848276 291.982897 
L 187.247649 291.876239 
L 188.647022 292.005642 
L 190.046395 291.707387 
L 191.445768 291.815596 
L 192.845141 291.226649 
L 194.244514 291.450027 
L 195.643887 290.849258 
L 197.04326 291.831817 
L 198.442633 291.761818 
L 199.842006 291.314339 
L 201.241379 291.910028 
L 202.640752 291.554129 
L 204.040125 291.803951 
L 205.439498 292.19132 
L 206.838871 292.386852 
L 209.637618 291.392444 
L 211.036991 291.781961 
L 212.436364 285.759157 
L 213.835737 291.491853 
L 215.23511 292.050269 
L 216.634483 291.625374 
L 218.033856 278.009183 
L 219.433229 281.09693 
L 220.832602 291.647327 
L 222.231975 291.731364 
L 223.631348 291.325408 
L 225.030721 291.374081 
L 227.829467 291.675262 
L 229.22884 284.396554 
L 230.628213 291.598083 
L 232.027586 290.879651 
L 233.426959 286.702385 
L 234.826332 291.431757 
L 236.225705 291.729577 
L 237.625078 290.81342 
L 239.024451 291.45671 
L 240.423824 292.457111 
L 241.823197 292.294968 
L 243.222571 292.51663 
L 244.621944 292.526245 
L 246.021317 291.983895 
L 247.42069 292.133722 
L 248.820063 291.708947 
L 250.219436 291.587273 
L 251.618809 284.073304 
L 253.018182 291.523087 
L 255.816928 291.684195 
L 257.216301 290.264009 
L 258.615674 291.456948 
L 260.015047 291.901159 
L 261.41442 292.498531 
L 262.813793 291.386363 
L 265.612539 291.30104 
L 267.011912 291.483724 
L 268.411285 281.765198 
L 269.810658 291.608073 
L 271.210031 291.285941 
L 274.008777 291.82466 
L 275.40815 287.09625 
L 276.807524 291.34677 
L 278.206897 289.960623 
L 279.60627 291.486107 
L 281.005643 292.074741 
L 282.405016 291.790152 
L 283.804389 291.95225 
L 285.203762 288.362836 
L 286.603135 291.419487 
L 288.002508 291.639964 
L 289.401881 291.473605 
L 290.801254 291.615731 
L 292.200627 291.299186 
L 293.6 292.094383 
L 294.999373 291.640321 
L 296.398746 291.401693 
L 297.798119 291.424698 
L 299.197492 291.816709 
L 300.596865 291.888577 
L 301.996238 287.344883 
L 303.395611 291.711881 
L 304.794984 291.507532 
L 306.194357 290.156018 
L 307.59373 291.96384 
L 308.993103 287.639472 
L 310.392476 279.235389 
L 311.79185 291.470846 
L 313.191223 291.605642 
L 314.590596 291.906797 
L 315.989969 291.744456 
L 317.389342 283.226373 
L 318.788715 291.710474 
L 321.587461 291.344751 
L 322.986834 288.218395 
L 324.386207 291.767952 
L 325.78558 291.097836 
L 327.184953 284.862268 
L 328.584326 284.874518 
L 329.983699 291.691754 
L 331.383072 291.779785 
L 332.782445 284.70459 
L 334.181818 292.147867 
L 335.581191 280.290188 
L 336.980564 291.892354 
L 338.379937 291.63776 
L 339.77931 291.03102 
L 341.178683 292.025763 
L 342.578056 285.64659 
L 343.977429 292.173962 
L 345.376803 292.393857 
L 346.776176 287.863466 
L 348.175549 291.9779 
L 349.574922 291.736935 
L 350.974295 291.991743 
L 352.373668 286.499331 
L 353.773041 280.514912 
L 355.172414 284.338332 
L 356.571787 291.825061 
L 357.97116 290.262162 
L 359.370533 291.903679 
L 360.769906 292.054867 
L 362.169279 292.410502 
L 363.568652 291.794303 
L 364.968025 291.584991 
L 366.367398 283.928684 
L 367.766771 291.262326 
L 369.166144 286.117106 
L 370.565517 291.428563 
L 371.96489 286.696247 
L 373.364263 284.991364 
L 374.763636 288.111445 
L 376.163009 272.920362 
L 377.562382 285.107411 
L 378.961755 264.251272 
L 380.361129 282.397797 
L 381.760502 285.347127 
L 383.159875 254.473203 
L 384.559248 290.911498 
L 385.958621 291.41315 
L 387.357994 271.748897 
L 388.757367 280.750286 
L 390.15674 284.713042 
L 391.556113 268.653337 
L 392.955486 291.772242 
L 394.354859 292.133257 
L 395.754232 276.612921 
L 397.153605 291.493535 
L 398.552978 262.822895 
L 399.952351 276.892189 
L 401.351724 284.028589 
L 402.751097 281.901443 
L 404.15047 271.161408 
L 405.549843 266.773275 
L 406.949216 277.08236 
L 408.348589 272.601223 
L 409.747962 287.762098 
L 411.147335 278.127638 
L 412.546708 262.783138 
L 413.946082 285.071533 
L 415.345455 271.104547 
L 416.744828 259.292582 
L 418.144201 260.982647 
L 419.543574 291.191325 
L 420.942947 288.661409 
L 422.34232 274.257019 
L 423.741693 269.448848 
L 425.141066 273.68055 
L 426.540439 260.810506 
L 427.939812 254.735136 
L 429.339185 270.652907 
L 430.738558 267.444338 
L 432.137931 263.84656 
L 433.537304 281.030755 
L 434.936677 255.528051 
L 436.33605 239.450281 
L 437.735423 233.943645 
L 439.134796 237.635239 
L 440.534169 238.177195 
L 441.933542 227.400168 
L 443.332915 238.002656 
L 444.732288 265.952727 
L 446.131661 245.091001 
L 447.531034 252.802572 
L 448.930408 187.95632 
L 450.329781 267.110615 
L 451.729154 241.903757 
L 453.128527 234.432422 
L 454.5279 243.391454 
L 455.927273 249.055043 
L 457.326646 233.216098 
L 458.726019 190.882091 
L 460.125392 179.947623 
L 461.524765 236.682988 
L 462.924138 244.587487 
L 464.323511 215.149946 
L 465.722884 222.732366 
L 467.122257 209.814717 
L 468.52163 174.072781 
L 469.921003 159.249385 
L 471.320376 233.96406 
L 472.719749 214.536014 
L 474.119122 226.568914 
L 475.518495 208.685566 
L 476.917868 173.08863 
L 478.317241 203.176147 
L 479.716614 228.261594 
L 481.115987 144.577431 
L 482.515361 191.490997 
L 483.914734 205.217049 
L 485.314107 210.107933 
L 486.71348 215.697552 
L 488.112853 195.271859 
L 489.512226 206.931963 
L 490.911599 204.039093 
L 492.310972 234.397486 
L 493.710345 236.925016 
L 495.109718 190.623466 
L 496.509091 220.908651 
L 496.509091 220.908651 
" clip-path="url(#p45a4501094)" style="fill: none; stroke: #1f77b4; stroke-width: 1.5; stroke-linecap: square"/>
   </g>
   <g id="line2d_24">
    <path d="M 90.690909 292.103684 
L 92.090282 291.966377 
L 93.489655 291.310791 
L 94.889028 292.03821 
L 96.288401 291.831598 
L 97.687774 291.492887 
L 99.087147 291.882761 
L 100.48652 292.081304 
L 101.885893 291.759842 
L 106.084013 291.923731 
L 107.483386 291.441745 
L 110.282132 291.929376 
L 113.080878 291.899043 
L 114.480251 292.20588 
L 115.879624 292.2008 
L 117.278997 291.83835 
L 118.67837 286.336102 
L 120.077743 292.305743 
L 121.477116 291.908346 
L 122.876489 292.227899 
L 124.275862 292.145838 
L 125.675235 292.327175 
L 127.074608 291.513193 
L 128.473981 292.371992 
L 129.873354 292.267712 
L 131.272727 292.417479 
L 134.071473 292.279475 
L 136.870219 292.377881 
L 138.269592 292.386223 
L 139.668966 291.95541 
L 141.068339 291.902643 
L 142.467712 291.088067 
L 143.867085 292.246618 
L 145.266458 291.621926 
L 146.665831 291.92318 
L 149.464577 291.900123 
L 150.86395 292.125669 
L 152.263323 291.498226 
L 153.662696 291.562747 
L 155.062069 291.233229 
L 156.461442 291.685438 
L 157.860815 291.639609 
L 159.260188 281.33734 
L 160.659561 289.437198 
L 162.058934 291.964809 
L 163.458307 281.071511 
L 164.85768 291.440701 
L 166.257053 289.617767 
L 167.656426 291.658296 
L 169.055799 291.894086 
L 171.854545 291.424462 
L 173.253918 291.129638 
L 174.653292 290.6432 
L 176.052665 291.495086 
L 177.452038 291.915814 
L 178.851411 286.950005 
L 180.250784 291.776476 
L 181.650157 291.689706 
L 183.04953 291.837065 
L 184.448903 290.482079 
L 185.848276 291.543056 
L 187.247649 291.79635 
L 188.647022 291.550291 
L 190.046395 291.062843 
L 191.445768 291.689483 
L 192.845141 291.164373 
L 194.244514 291.62622 
L 195.643887 291.444738 
L 197.04326 291.518161 
L 198.442633 291.367708 
L 199.842006 291.738961 
L 201.241379 291.814896 
L 202.640752 291.089006 
L 204.040125 291.721979 
L 205.439498 291.852333 
L 206.838871 291.852712 
L 208.238245 292.106686 
L 209.637618 291.764922 
L 211.036991 286.689827 
L 212.436364 291.783229 
L 215.23511 291.515834 
L 216.634483 291.275714 
L 218.033856 291.630818 
L 219.433229 290.180683 
L 220.832602 282.008724 
L 222.231975 291.522221 
L 223.631348 291.778868 
L 225.030721 292.164178 
L 226.430094 292.001521 
L 227.829467 291.36991 
L 229.22884 291.030938 
L 230.628213 289.055259 
L 232.027586 289.54808 
L 233.426959 291.891656 
L 234.826332 290.288193 
L 236.225705 286.626079 
L 237.625078 289.734103 
L 239.024451 281.864607 
L 240.423824 292.229541 
L 241.823197 289.263275 
L 243.222571 288.679767 
L 244.621944 283.986332 
L 246.021317 274.704915 
L 247.42069 286.049614 
L 248.820063 280.248781 
L 250.219436 291.426034 
L 251.618809 289.463228 
L 253.018182 281.497706 
L 254.417555 274.205646 
L 255.816928 265.904768 
L 257.216301 282.780392 
L 258.615674 289.429243 
L 260.015047 267.902097 
L 261.41442 271.230472 
L 262.813793 244.695572 
L 264.213166 278.031211 
L 265.612539 271.536034 
L 267.011912 242.874301 
L 268.411285 244.329042 
L 269.810658 261.82861 
L 271.210031 243.698723 
L 272.609404 249.284162 
L 274.008777 271.767815 
L 275.40815 233.197759 
L 276.807524 240.99207 
L 278.206897 260.195038 
L 279.60627 257.371154 
L 281.005643 238.334585 
L 282.405016 260.59137 
L 283.804389 241.359257 
L 285.203762 248.655148 
L 286.603135 237.618936 
L 288.002508 233.284533 
L 289.401881 259.298435 
L 290.801254 271.936283 
L 292.200627 245.275904 
L 293.6 257.464464 
L 296.398746 225.824158 
L 297.798119 223.275878 
L 299.197492 238.198648 
L 300.596865 225.676121 
L 301.996238 244.186646 
L 303.395611 208.893952 
L 304.794984 251.94263 
L 306.194357 222.808495 
L 307.59373 214.894886 
L 308.993103 205.524939 
L 310.392476 216.504307 
L 311.79185 224.132228 
L 313.191223 213.995575 
L 314.590596 205.824338 
L 315.989969 201.669445 
L 317.389342 187.811062 
L 318.788715 202.688389 
L 320.188088 233.809261 
L 321.587461 232.206957 
L 322.986834 210.898132 
L 324.386207 204.679283 
L 325.78558 173.687944 
L 327.184953 238.79143 
L 328.584326 223.653286 
L 329.983699 231.033043 
L 331.383072 216.923147 
L 332.782445 241.806533 
L 334.181818 248.293851 
L 335.581191 234.939157 
L 336.980564 216.765697 
L 338.379937 247.857292 
L 339.77931 263.319165 
L 341.178683 242.186863 
L 342.578056 226.972866 
L 343.977429 238.728434 
L 346.776176 179.456062 
L 348.175549 240.792646 
L 349.574922 220.66458 
L 350.974295 209.910618 
L 352.373668 210.141349 
L 353.773041 170.003452 
L 355.172414 194.642124 
L 356.571787 168.096157 
L 357.97116 182.942384 
L 359.370533 152.774007 
L 360.769906 180.623425 
L 362.169279 181.344182 
L 363.568652 198.130183 
L 364.968025 170.841822 
L 366.367398 137.237517 
L 367.766771 152.169722 
L 369.166144 178.546947 
L 370.565517 163.864197 
L 371.96489 185.637075 
L 373.364263 148.575711 
L 374.763636 207.374783 
L 376.163009 209.675128 
L 377.562382 184.023475 
L 378.961755 148.554763 
L 380.361129 167.896426 
L 381.760502 176.892351 
L 383.159875 216.508092 
L 384.559248 126.50245 
L 385.958621 240.412119 
L 387.357994 99.912097 
L 388.757367 241.23859 
L 390.15674 250.475537 
L 391.556113 215.840917 
L 392.955486 201.237714 
L 394.354859 191.504163 
L 395.754232 224.952764 
L 397.153605 246.528129 
L 398.552978 189.061445 
L 399.952351 206.762514 
L 401.351724 209.467091 
L 402.751097 219.52885 
L 404.15047 168.831321 
L 405.549843 240.249556 
L 406.949216 170.836199 
L 408.348589 190.538581 
L 409.747962 186.871711 
L 411.147335 179.865696 
L 412.546708 290.876485 
L 413.946082 285.470412 
L 415.345455 285.376977 
L 416.744828 254.233638 
L 418.144201 285.28378 
L 419.543574 259.655214 
L 420.942947 216.260548 
L 422.34232 160.698636 
L 423.741693 249.566417 
L 425.141066 229.095125 
L 426.540439 250.284469 
L 427.939812 193.445746 
L 429.339185 145.903208 
L 430.738558 245.310863 
L 432.137931 236.384765 
L 433.537304 182.845932 
L 434.936677 213.564864 
L 436.33605 189.109203 
L 437.735423 176.832548 
L 439.134796 152.756385 
L 440.534169 197.986634 
L 441.933542 221.669283 
L 444.732288 202.058535 
L 446.131661 216.293527 
L 447.531034 221.53003 
L 448.930408 225.429 
L 450.329781 188.907578 
L 451.729154 257.857317 
L 453.128527 252.281804 
L 454.5279 193.517025 
L 455.927273 171.809407 
L 457.326646 263.150977 
L 458.726019 158.521498 
L 460.125392 218.096619 
L 461.524765 244.040051 
L 462.924138 155.981611 
L 464.323511 188.307566 
L 465.722884 201.611241 
L 467.122257 139.331543 
L 468.52163 185.309818 
L 469.921003 155.090403 
L 471.320376 183.665843 
L 472.719749 200.740962 
L 474.119122 268.079829 
L 475.518495 196.629122 
L 476.917868 150.448598 
L 478.317241 163.213515 
L 479.716614 183.093605 
L 481.115987 213.965384 
L 482.515361 157.760195 
L 483.914734 229.266485 
L 485.314107 246.523903 
L 486.71348 225.873547 
L 488.112853 134.574496 
L 489.512226 165.4806 
L 490.911599 178.293376 
L 492.310972 172.693026 
L 493.710345 183.144477 
L 495.109718 188.339952 
L 496.509091 270.483683 
L 496.509091 270.483683 
" clip-path="url(#p45a4501094)" style="fill: none; stroke: #ff7f0e; stroke-width: 1.5; stroke-linecap: square"/>
   </g>
   <g id="line2d_25">
    <path d="M 90.690909 292.529237 
L 92.090282 291.732372 
L 93.489655 292.386944 
L 94.889028 292.406212 
L 96.288401 292.208207 
L 97.687774 291.675441 
L 99.087147 291.549854 
L 100.48652 291.17369 
L 101.885893 291.966447 
L 103.285266 291.995107 
L 104.684639 292.160967 
L 106.084013 292.110982 
L 108.882759 291.516152 
L 111.681505 291.680445 
L 113.080878 291.854966 
L 114.480251 292.195881 
L 115.879624 291.353944 
L 117.278997 291.98276 
L 118.67837 291.98869 
L 121.477116 291.59763 
L 122.876489 292.269364 
L 124.275862 292.141509 
L 125.675235 292.194032 
L 127.074608 291.391409 
L 128.473981 291.240831 
L 129.873354 291.349924 
L 131.272727 291.985216 
L 132.6721 292.072207 
L 134.071473 291.782559 
L 135.470846 291.757592 
L 136.870219 291.548412 
L 139.668966 291.507396 
L 141.068339 291.284325 
L 142.467712 291.537462 
L 143.867085 291.298539 
L 145.266458 292.11866 
L 146.665831 292.498591 
L 148.065204 292.081452 
L 149.464577 292.349678 
L 150.86395 292.099582 
L 152.263323 292.233148 
L 153.662696 292.531875 
L 156.461442 292.470909 
L 157.860815 292.069195 
L 159.260188 292.130465 
L 160.659561 292.457959 
L 163.458307 292.307111 
L 166.257053 291.84968 
L 167.656426 292.138339 
L 169.055799 292.286154 
L 171.854545 292.138592 
L 173.253918 292.166092 
L 176.052665 291.620638 
L 177.452038 291.974833 
L 178.851411 291.92407 
L 180.250784 292.163581 
L 181.650157 291.867172 
L 183.04953 289.995397 
L 184.448903 291.589843 
L 185.848276 291.522706 
L 187.247649 292.138821 
L 188.647022 291.86359 
L 190.046395 292.114458 
L 192.845141 291.309301 
L 194.244514 291.735778 
L 195.643887 291.742405 
L 197.04326 292.000576 
L 198.442633 291.928949 
L 199.842006 290.724188 
L 202.640752 292.080628 
L 204.040125 286.177537 
L 205.439498 291.626407 
L 206.838871 291.731965 
L 208.238245 291.432137 
L 209.637618 291.710969 
L 212.436364 291.321146 
L 218.033856 291.779535 
L 219.433229 292.516857 
L 220.832602 289.619539 
L 222.231975 292.377156 
L 223.631348 292.436511 
L 225.030721 278.113583 
L 226.430094 289.630057 
L 227.829467 290.940839 
L 229.22884 291.331856 
L 230.628213 290.591501 
L 232.027586 291.834281 
L 233.426959 290.797369 
L 234.826332 291.813591 
L 236.225705 290.881554 
L 237.625078 291.997848 
L 239.024451 291.74135 
L 240.423824 285.137625 
L 241.823197 291.503505 
L 243.222571 254.710843 
L 244.621944 284.800101 
L 246.021317 290.691021 
L 247.42069 291.755722 
L 248.820063 291.841769 
L 250.219436 254.111575 
L 251.618809 283.973721 
L 253.018182 283.209509 
L 254.417555 286.116116 
L 255.816928 276.005638 
L 257.216301 285.520555 
L 258.615674 291.0672 
L 260.015047 271.328091 
L 261.41442 285.374468 
L 262.813793 291.955134 
L 264.213166 265.373513 
L 265.612539 285.460876 
L 267.011912 291.957676 
L 268.411285 291.291757 
L 269.810658 292.315608 
L 271.210031 292.13722 
L 272.609404 292.20266 
L 274.008777 291.835529 
L 275.40815 291.144874 
L 276.807524 292.185581 
L 278.206897 239.154294 
L 279.60627 259.785151 
L 281.005643 245.752604 
L 282.405016 225.041853 
L 283.804389 259.249347 
L 285.203762 259.830424 
L 286.603135 268.00285 
L 288.002508 225.039565 
L 289.401881 273.045143 
L 290.801254 279.647748 
L 292.200627 275.575083 
L 293.6 288.726845 
L 294.999373 237.596444 
L 296.398746 200.292997 
L 297.798119 225.025572 
L 299.197492 265.093215 
L 300.596865 252.3557 
L 301.996238 243.658771 
L 303.395611 239.784842 
L 304.794984 246.164617 
L 306.194357 288.715659 
L 307.59373 230.462633 
L 308.993103 277.989098 
L 310.392476 251.539276 
L 311.79185 203.511149 
L 313.191223 228.936899 
L 314.590596 287.561426 
L 315.989969 218.703798 
L 317.389342 215.086018 
L 320.188088 193.931978 
L 321.587461 166.230492 
L 322.986834 223.481265 
L 324.386207 197.899048 
L 325.78558 193.055544 
L 327.184953 180.653855 
L 328.584326 252.454234 
L 329.983699 222.555204 
L 331.383072 218.388361 
L 334.181818 242.231304 
L 335.581191 147.280372 
L 336.980564 156.163427 
L 338.379937 223.546516 
L 339.77931 160.400734 
L 342.578056 244.446993 
L 343.977429 210.959478 
L 345.376803 235.825715 
L 346.776176 224.469297 
L 348.175549 224.498445 
L 349.574922 217.18399 
L 350.974295 229.086145 
L 352.373668 188.181152 
L 353.773041 231.073984 
L 355.172414 108.392702 
L 356.571787 215.582563 
L 357.97116 194.165695 
L 359.370533 186.235655 
L 360.769906 192.290686 
L 362.169279 130.583704 
L 363.568652 157.680749 
L 364.968025 103.996714 
L 366.367398 195.418972 
L 367.766771 115.836309 
L 369.166144 161.569907 
L 370.565517 170.67026 
L 371.96489 200.175137 
L 373.364263 40.531875 
L 374.763636 191.37616 
L 376.163009 129.583769 
L 377.562382 194.694338 
L 378.961755 98.581055 
L 380.361129 89.914418 
L 381.760502 135.136728 
L 383.159875 162.031672 
L 384.559248 119.385301 
L 385.958621 189.260919 
L 387.357994 218.923385 
L 388.757367 150.582251 
L 390.15674 174.522657 
L 391.556113 154.603638 
L 392.955486 155.810867 
L 394.354859 161.041081 
L 397.153605 176.210871 
L 398.552978 113.618745 
L 399.952351 68.436382 
L 401.351724 151.023436 
L 402.751097 49.449686 
L 404.15047 154.631633 
L 405.549843 141.379373 
L 406.949216 177.103053 
L 408.348589 195.769511 
L 409.747962 153.631854 
L 411.147335 126.641754 
L 412.546708 142.626696 
L 413.946082 130.453238 
L 415.345455 129.369199 
L 416.744828 73.529461 
L 418.144201 183.849037 
L 419.543574 169.98199 
L 420.942947 107.312852 
L 422.34232 200.161246 
L 423.741693 167.623634 
L 425.141066 164.362309 
L 426.540439 148.55355 
L 427.939812 220.884832 
L 429.339185 176.374725 
L 430.738558 220.419566 
L 432.137931 163.674058 
L 433.537304 146.154474 
L 434.936677 133.362196 
L 436.33605 87.294965 
L 437.735423 168.062007 
L 439.134796 129.933747 
L 440.534169 160.889869 
L 441.933542 230.201941 
L 443.332915 105.565056 
L 444.732288 116.73336 
L 446.131661 125.464073 
L 447.531034 291.125808 
L 448.930408 183.460939 
L 450.329781 172.597216 
L 451.729154 215.807869 
L 453.128527 149.225043 
L 454.5279 206.209478 
L 455.927273 190.827185 
L 457.326646 179.512419 
L 458.726019 265.169379 
L 460.125392 133.493837 
L 461.524765 124.751952 
L 462.924138 174.954709 
L 464.323511 189.401822 
L 465.722884 126.352157 
L 467.122257 186.509614 
L 468.52163 166.079712 
L 469.921003 131.955888 
L 471.320376 168.999677 
L 472.719749 150.62073 
L 474.119122 149.303341 
L 475.518495 264.933813 
L 476.917868 186.222773 
L 478.317241 176.802688 
L 479.716614 168.781276 
L 481.115987 161.423795 
L 482.515361 181.343172 
L 483.914734 104.420708 
L 485.314107 153.455239 
L 486.71348 110.416038 
L 488.112853 82.025519 
L 489.512226 244.273768 
L 490.911599 141.65991 
L 492.310972 122.396462 
L 493.710345 174.636906 
L 495.109718 207.08401 
L 496.509091 235.414391 
L 496.509091 235.414391 
" clip-path="url(#p45a4501094)" style="fill: none; stroke: #2ca02c; stroke-width: 1.5; stroke-linecap: square"/>
   </g>
   <g id="patch_3">
    <path d="M 70.4 305.131875 
L 70.4 27.931875 
" style="fill: none; stroke: #000000; stroke-width: 0.8; stroke-linejoin: miter; stroke-linecap: square"/>
   </g>
   <g id="patch_4">
    <path d="M 516.8 305.131875 
L 516.8 27.931875 
" style="fill: none; stroke: #000000; stroke-width: 0.8; stroke-linejoin: miter; stroke-linecap: square"/>
   </g>
   <g id="patch_5">
    <path d="M 70.4 305.131875 
L 516.8 305.131875 
" style="fill: none; stroke: #000000; stroke-width: 0.8; stroke-linejoin: miter; stroke-linecap: square"/>
   </g>
   <g id="patch_6">
    <path d="M 70.4 27.931875 
L 516.8 27.931875 
" style="fill: none; stroke: #000000; stroke-width: 0.8; stroke-linejoin: miter; stroke-linecap: square"/>
   </g>
   <g id="text_14">
    <!-- Meta Test Average Return -->
    <g transform="translate(178.726813 21.931875)scale(0.216 -0.216)">
     <defs>
      <path id="STIXGeneral-Regular-4d" d="M 5530 0 
L 3738 0 
L 3738 122 
Q 4115 147 4214 265 
Q 4314 384 4314 787 
L 4314 3661 
L 2682 0 
L 2592 0 
L 979 3514 
L 979 966 
Q 979 448 1088 294 
Q 1197 141 1574 122 
L 1574 0 
L 77 0 
L 77 122 
Q 358 141 480 205 
Q 602 269 650 432 
Q 698 595 698 966 
L 698 3514 
Q 698 3878 589 3984 
Q 480 4090 90 4115 
L 90 4237 
L 1357 4237 
L 2835 1024 
L 4250 4237 
L 5523 4237 
L 5523 4115 
Q 5178 4109 5072 3993 
Q 4966 3878 4966 3520 
L 4966 717 
Q 4966 378 5072 262 
Q 5178 147 5530 122 
L 5530 0 
z
" transform="scale(0.015625)"/>
      <path id="STIXGeneral-Regular-54" d="M 3795 3149 
L 3642 3149 
Q 3539 3674 3353 3821 
Q 3168 3968 2656 3968 
L 2278 3968 
L 2278 710 
Q 2278 346 2387 243 
Q 2496 141 2893 122 
L 2893 0 
L 1024 0 
L 1024 122 
Q 1427 147 1526 256 
Q 1626 365 1626 787 
L 1626 3968 
L 1242 3968 
Q 723 3968 540 3817 
Q 358 3667 262 3149 
L 109 3149 
L 154 4237 
L 3750 4237 
L 3795 3149 
z
" transform="scale(0.015625)"/>
      <path id="STIXGeneral-Regular-73" d="M 998 1926 
L 1664 1523 
Q 1984 1331 2105 1164 
Q 2227 998 2227 736 
Q 2227 416 1961 176 
Q 1696 -64 1331 -64 
Q 1030 -64 864 -6 
Q 691 51 570 51 
Q 461 51 416 -26 
L 333 -26 
L 333 979 
L 435 979 
Q 538 512 730 294 
Q 922 77 1248 77 
Q 1485 77 1632 211 
Q 1779 346 1779 550 
Q 1779 845 1440 1030 
L 1094 1222 
Q 326 1651 326 2150 
Q 326 2522 566 2730 
Q 806 2938 1210 2938 
Q 1491 2938 1638 2867 
Q 1754 2816 1818 2816 
Q 1862 2816 1920 2880 
L 1990 2880 
L 2022 2010 
L 1926 2010 
Q 1818 2445 1654 2621 
Q 1491 2797 1203 2797 
Q 986 2797 854 2688 
Q 723 2579 723 2362 
Q 723 2253 796 2128 
Q 870 2003 998 1926 
z
" transform="scale(0.015625)"/>
     </defs>
     <use xlink:href="#STIXGeneral-Regular-4d"/>
     <use xlink:href="#STIXGeneral-Regular-65" x="88.899994"/>
     <use xlink:href="#STIXGeneral-Regular-74" x="133.299988"/>
     <use xlink:href="#STIXGeneral-Regular-61" x="161.099976"/>
     <use xlink:href="#STIXGeneral-Regular-20" x="205.499969"/>
     <use xlink:href="#STIXGeneral-Regular-54" x="230.499954"/>
     <use xlink:href="#STIXGeneral-Regular-65" x="291.599945"/>
     <use xlink:href="#STIXGeneral-Regular-73" x="335.999939"/>
     <use xlink:href="#STIXGeneral-Regular-74" x="374.899933"/>
     <use xlink:href="#STIXGeneral-Regular-20" x="402.699921"/>
     <use xlink:href="#STIXGeneral-Regular-41" x="427.699905"/>
     <use xlink:href="#STIXGeneral-Regular-76" x="499.899887"/>
     <use xlink:href="#STIXGeneral-Regular-65" x="549.899872"/>
     <use xlink:href="#STIXGeneral-Regular-72" x="594.299866"/>
     <use xlink:href="#STIXGeneral-Regular-61" x="627.599854"/>
     <use xlink:href="#STIXGeneral-Regular-67" x="671.999847"/>
     <use xlink:href="#STIXGeneral-Regular-65" x="721.999832"/>
     <use xlink:href="#STIXGeneral-Regular-20" x="766.399826"/>
     <use xlink:href="#STIXGeneral-Regular-52" x="791.399811"/>
     <use xlink:href="#STIXGeneral-Regular-65" x="858.099808"/>
     <use xlink:href="#STIXGeneral-Regular-74" x="902.499802"/>
     <use xlink:href="#STIXGeneral-Regular-75" x="930.299789"/>
     <use xlink:href="#STIXGeneral-Regular-72" x="980.299774"/>
     <use xlink:href="#STIXGeneral-Regular-6e" x="1013.599762"/>
    </g>
   </g>
   <g id="legend_1">
    <g id="patch_7">
     <path d="M 80.2 98.647187 
L 168.021563 98.647187 
Q 170.821563 98.647187 170.821563 95.847187 
L 170.821563 37.731875 
Q 170.821563 34.931875 168.021563 34.931875 
L 80.2 34.931875 
Q 77.4 34.931875 77.4 37.731875 
L 77.4 95.847187 
Q 77.4 98.647187 80.2 98.647187 
z
" style="fill: #ffffff; opacity: 0.8; stroke: #cccccc; stroke-linejoin: miter"/>
    </g>
    <g id="line2d_26">
     <path d="M 83 45.431875 
L 97 45.431875 
L 111 45.431875 
" style="fill: none; stroke: #1f77b4; stroke-width: 1.5; stroke-linecap: square"/>
    </g>
    <g id="text_15">
     <!-- lr=1e-4 -->
     <g transform="translate(122.2 50.331875)scale(0.14 -0.14)">
      <defs>
       <path id="STIXGeneral-Regular-6c" d="M 1645 0 
L 134 0 
L 134 96 
Q 435 122 531 221 
Q 627 320 627 589 
L 627 3590 
Q 627 3821 569 3910 
Q 512 4000 358 4000 
Q 224 4000 122 3987 
L 122 4090 
Q 730 4237 1133 4371 
L 1165 4346 
L 1165 557 
Q 1165 288 1254 201 
Q 1344 115 1645 96 
L 1645 0 
z
" transform="scale(0.015625)"/>
       <path id="STIXGeneral-Regular-3d" d="M 4077 2048 
L 307 2048 
L 307 2470 
L 4077 2470 
L 4077 2048 
z
M 4077 768 
L 307 768 
L 307 1190 
L 4077 1190 
L 4077 768 
z
" transform="scale(0.015625)"/>
       <path id="STIXGeneral-Regular-2d" d="M 1824 1242 
L 250 1242 
L 250 1645 
L 1824 1645 
L 1824 1242 
z
" transform="scale(0.015625)"/>
       <path id="STIXGeneral-Regular-34" d="M 3027 1069 
L 2368 1069 
L 2368 0 
L 1869 0 
L 1869 1069 
L 77 1069 
L 77 1478 
L 2086 4326 
L 2368 4326 
L 2368 1478 
L 3027 1478 
L 3027 1069 
z
M 1869 1478 
L 1869 3674 
L 333 1478 
L 1869 1478 
z
" transform="scale(0.015625)"/>
      </defs>
      <use xlink:href="#STIXGeneral-Regular-6c"/>
      <use xlink:href="#STIXGeneral-Regular-72" x="27.799988"/>
      <use xlink:href="#STIXGeneral-Regular-3d" x="61.099976"/>
      <use xlink:href="#STIXGeneral-Regular-31" x="129.59996"/>
      <use xlink:href="#STIXGeneral-Regular-65" x="179.599945"/>
      <use xlink:href="#STIXGeneral-Regular-2d" x="223.999939"/>
      <use xlink:href="#STIXGeneral-Regular-34" x="257.299927"/>
     </g>
    </g>
    <g id="line2d_27">
     <path d="M 83 65.270312 
L 97 65.270312 
L 111 65.270312 
" style="fill: none; stroke: #ff7f0e; stroke-width: 1.5; stroke-linecap: square"/>
    </g>
    <g id="text_16">
     <!-- lr=3e-4 -->
     <g transform="translate(122.2 70.170312)scale(0.14 -0.14)">
      <use xlink:href="#STIXGeneral-Regular-6c"/>
      <use xlink:href="#STIXGeneral-Regular-72" x="27.799988"/>
      <use xlink:href="#STIXGeneral-Regular-3d" x="61.099976"/>
      <use xlink:href="#STIXGeneral-Regular-33" x="129.59996"/>
      <use xlink:href="#STIXGeneral-Regular-65" x="179.599945"/>
      <use xlink:href="#STIXGeneral-Regular-2d" x="223.999939"/>
      <use xlink:href="#STIXGeneral-Regular-34" x="257.299927"/>
     </g>
    </g>
    <g id="line2d_28">
     <path d="M 83 85.10875 
L 97 85.10875 
L 111 85.10875 
" style="fill: none; stroke: #2ca02c; stroke-width: 1.5; stroke-linecap: square"/>
    </g>
    <g id="text_17">
     <!-- lr=7e-4 -->
     <g transform="translate(122.2 90.00875)scale(0.14 -0.14)">
      <defs>
       <path id="STIXGeneral-Regular-37" d="M 2874 4134 
L 1517 -51 
L 1101 -51 
L 2368 3763 
L 992 3763 
Q 717 3763 582 3667 
Q 448 3571 243 3238 
L 128 3296 
L 512 4237 
L 2874 4237 
L 2874 4134 
z
" transform="scale(0.015625)"/>
      </defs>
      <use xlink:href="#STIXGeneral-Regular-6c"/>
      <use xlink:href="#STIXGeneral-Regular-72" x="27.799988"/>
      <use xlink:href="#STIXGeneral-Regular-3d" x="61.099976"/>
      <use xlink:href="#STIXGeneral-Regular-37" x="129.59996"/>
      <use xlink:href="#STIXGeneral-Regular-65" x="179.599945"/>
      <use xlink:href="#STIXGeneral-Regular-2d" x="223.999939"/>
      <use xlink:href="#STIXGeneral-Regular-34" x="257.299927"/>
     </g>
    </g>
   </g>
  </g>
 </g>
 <defs>
  <clipPath id="p45a4501094">
   <rect x="70.4" y="27.931875" width="446.4" height="277.2"/>
  </clipPath>
 </defs>
</svg>
