<?xml version="1.0" encoding="utf-8" standalone="no"?>
<!DOCTYPE svg PUBLIC "-//W3C//DTD SVG 1.1//EN"
  "http://www.w3.org/Graphics/SVG/1.1/DTD/svg11.dtd">
<svg xmlns:xlink="http://www.w3.org/1999/xlink" width="515pt" height="355.731875pt" viewBox="0 0 515 355.731875" xmlns="http://www.w3.org/2000/svg" version="1.1">
 <metadata>
  <rdf:RDF xmlns:dc="http://purl.org/dc/elements/1.1/" xmlns:cc="http://creativecommons.org/ns#" xmlns:rdf="http://www.w3.org/1999/02/22-rdf-syntax-ns#">
   <cc:Work>
    <dc:type rdf:resource="http://purl.org/dc/dcmitype/StillImage"/>
    <dc:date>2021-11-25T21:40:26.924675</dc:date>
    <dc:format>image/svg+xml</dc:format>
    <dc:creator>
     <cc:Agent>
      <dc:title>Matplotlib v3.5.0, https://matplotlib.org/</dc:title>
     </cc:Agent>
    </dc:creator>
   </cc:Work>
  </rdf:RDF>
 </metadata>
 <defs>
  <style type="text/css">*{stroke-linejoin: round; stroke-linecap: butt}</style>
 </defs>
 <g id="figure_1">
  <g id="patch_1">
   <path d="M 0 355.731875 
L 515 355.731875 
L 515 0 
L 0 0 
z
" style="fill: #ffffff"/>
  </g>
  <g id="axes_1">
   <g id="patch_2">
    <path d="M 61.4 305.131875 
L 507.8 305.131875 
L 507.8 27.931875 
L 61.4 27.931875 
z
" style="fill: #ffffff"/>
   </g>
   <g id="matplotlib.axis_1">
    <g id="xtick_1">
     <g id="line2d_1">
      <path d="M 81.690909 305.131875 
L 81.690909 27.931875 
" clip-path="url(#p33ac74b576)" style="fill: none; stroke: #b0b0b0; stroke-width: 0.8; stroke-linecap: square"/>
     </g>
     <g id="line2d_2">
      <defs>
       <path id="m8c2571dce7" d="M 0 0 
L 0 3.5 
" style="stroke: #000000; stroke-width: 0.8"/>
      </defs>
      <g>
       <use xlink:href="#m8c2571dce7" x="81.690909" y="305.131875" style="stroke: #000000; stroke-width: 0.8"/>
      </g>
     </g>
     <g id="text_1">
      <!-- 0 -->
      <g transform="translate(77.190909 324.425313)scale(0.18 -0.18)">
       <defs>
        <path id="STIXGeneral-Regular-30" d="M 3046 2112 
Q 3046 1683 2963 1302 
Q 2880 922 2717 602 
Q 2554 282 2266 96 
Q 1978 -90 1600 -90 
Q 1210 -90 915 108 
Q 621 307 461 640 
Q 301 973 227 1350 
Q 154 1728 154 2150 
Q 154 2746 301 3222 
Q 448 3699 790 4012 
Q 1133 4326 1626 4326 
Q 2253 4326 2649 3712 
Q 3046 3098 3046 2112 
z
M 2432 2080 
Q 2432 3091 2217 3625 
Q 2003 4160 1587 4160 
Q 1190 4160 979 3622 
Q 768 3085 768 2106 
Q 768 1120 979 598 
Q 1190 77 1600 77 
Q 2003 77 2217 598 
Q 2432 1120 2432 2080 
z
" transform="scale(0.015625)"/>
       </defs>
       <use xlink:href="#STIXGeneral-Regular-30"/>
      </g>
     </g>
    </g>
    <g id="xtick_2">
     <g id="line2d_3">
      <path d="M 149.553481 305.131875 
L 149.553481 27.931875 
" clip-path="url(#p33ac74b576)" style="fill: none; stroke: #b0b0b0; stroke-width: 0.8; stroke-linecap: square"/>
     </g>
     <g id="line2d_4">
      <g>
       <use xlink:href="#m8c2571dce7" x="149.553481" y="305.131875" style="stroke: #000000; stroke-width: 0.8"/>
      </g>
     </g>
     <g id="text_2">
      <!-- 50 -->
      <g transform="translate(140.553481 324.425313)scale(0.18 -0.18)">
       <defs>
        <path id="STIXGeneral-Regular-35" d="M 2803 4358 
L 2573 3814 
Q 2534 3731 2400 3731 
L 1158 3731 
L 902 3187 
Q 1606 3053 1920 2896 
Q 2234 2739 2502 2368 
Q 2726 2061 2726 1555 
Q 2726 1094 2576 780 
Q 2426 467 2099 224 
Q 1664 -90 1011 -90 
Q 646 -90 422 19 
Q 198 128 198 307 
Q 198 550 486 550 
Q 717 550 960 352 
Q 1210 147 1414 147 
Q 1747 147 2012 480 
Q 2278 813 2278 1229 
Q 2278 1843 1850 2189 
Q 1293 2637 486 2637 
Q 410 2637 410 2688 
L 416 2720 
L 1114 4237 
L 2438 4237 
Q 2547 4237 2608 4269 
Q 2669 4301 2746 4403 
L 2803 4358 
z
" transform="scale(0.015625)"/>
       </defs>
       <use xlink:href="#STIXGeneral-Regular-35"/>
       <use xlink:href="#STIXGeneral-Regular-30" x="49.999985"/>
      </g>
     </g>
    </g>
    <g id="xtick_3">
     <g id="line2d_5">
      <path d="M 217.416054 305.131875 
L 217.416054 27.931875 
" clip-path="url(#p33ac74b576)" style="fill: none; stroke: #b0b0b0; stroke-width: 0.8; stroke-linecap: square"/>
     </g>
     <g id="line2d_6">
      <g>
       <use xlink:href="#m8c2571dce7" x="217.416054" y="305.131875" style="stroke: #000000; stroke-width: 0.8"/>
      </g>
     </g>
     <g id="text_3">
      <!-- 100 -->
      <g transform="translate(203.916054 324.425313)scale(0.18 -0.18)">
       <defs>
        <path id="STIXGeneral-Regular-31" d="M 2522 0 
L 755 0 
L 755 96 
Q 1107 115 1235 227 
Q 1363 339 1363 608 
L 1363 3482 
Q 1363 3795 1171 3795 
Q 1082 3795 883 3718 
L 710 3654 
L 710 3744 
L 1856 4326 
L 1914 4307 
L 1914 486 
Q 1914 275 2042 185 
Q 2170 96 2522 96 
L 2522 0 
z
" transform="scale(0.015625)"/>
       </defs>
       <use xlink:href="#STIXGeneral-Regular-31"/>
       <use xlink:href="#STIXGeneral-Regular-30" x="49.999985"/>
       <use xlink:href="#STIXGeneral-Regular-30" x="99.999969"/>
      </g>
     </g>
    </g>
    <g id="xtick_4">
     <g id="line2d_7">
      <path d="M 285.278626 305.131875 
L 285.278626 27.931875 
" clip-path="url(#p33ac74b576)" style="fill: none; stroke: #b0b0b0; stroke-width: 0.8; stroke-linecap: square"/>
     </g>
     <g id="line2d_8">
      <g>
       <use xlink:href="#m8c2571dce7" x="285.278626" y="305.131875" style="stroke: #000000; stroke-width: 0.8"/>
      </g>
     </g>
     <g id="text_4">
      <!-- 150 -->
      <g transform="translate(271.778626 324.425313)scale(0.18 -0.18)">
       <use xlink:href="#STIXGeneral-Regular-31"/>
       <use xlink:href="#STIXGeneral-Regular-35" x="49.999985"/>
       <use xlink:href="#STIXGeneral-Regular-30" x="99.999969"/>
      </g>
     </g>
    </g>
    <g id="xtick_5">
     <g id="line2d_9">
      <path d="M 353.141198 305.131875 
L 353.141198 27.931875 
" clip-path="url(#p33ac74b576)" style="fill: none; stroke: #b0b0b0; stroke-width: 0.8; stroke-linecap: square"/>
     </g>
     <g id="line2d_10">
      <g>
       <use xlink:href="#m8c2571dce7" x="353.141198" y="305.131875" style="stroke: #000000; stroke-width: 0.8"/>
      </g>
     </g>
     <g id="text_5">
      <!-- 200 -->
      <g transform="translate(339.641198 324.425313)scale(0.18 -0.18)">
       <defs>
        <path id="STIXGeneral-Regular-32" d="M 3034 877 
L 2688 0 
L 186 0 
L 186 77 
L 1325 1286 
Q 1773 1754 1965 2144 
Q 2157 2534 2157 2950 
Q 2157 3379 1920 3616 
Q 1683 3853 1267 3853 
Q 922 3853 720 3673 
Q 518 3494 326 3021 
L 192 3053 
Q 301 3648 630 3987 
Q 960 4326 1523 4326 
Q 2054 4326 2380 4006 
Q 2707 3686 2707 3200 
Q 2707 2477 1888 1613 
L 832 486 
L 2330 486 
Q 2541 486 2665 569 
Q 2790 653 2944 915 
L 3034 877 
z
" transform="scale(0.015625)"/>
       </defs>
       <use xlink:href="#STIXGeneral-Regular-32"/>
       <use xlink:href="#STIXGeneral-Regular-30" x="49.999985"/>
       <use xlink:href="#STIXGeneral-Regular-30" x="99.999969"/>
      </g>
     </g>
    </g>
    <g id="xtick_6">
     <g id="line2d_11">
      <path d="M 421.00377 305.131875 
L 421.00377 27.931875 
" clip-path="url(#p33ac74b576)" style="fill: none; stroke: #b0b0b0; stroke-width: 0.8; stroke-linecap: square"/>
     </g>
     <g id="line2d_12">
      <g>
       <use xlink:href="#m8c2571dce7" x="421.00377" y="305.131875" style="stroke: #000000; stroke-width: 0.8"/>
      </g>
     </g>
     <g id="text_6">
      <!-- 250 -->
      <g transform="translate(407.50377 324.425313)scale(0.18 -0.18)">
       <use xlink:href="#STIXGeneral-Regular-32"/>
       <use xlink:href="#STIXGeneral-Regular-35" x="49.999985"/>
       <use xlink:href="#STIXGeneral-Regular-30" x="99.999969"/>
      </g>
     </g>
    </g>
    <g id="xtick_7">
     <g id="line2d_13">
      <path d="M 488.866342 305.131875 
L 488.866342 27.931875 
" clip-path="url(#p33ac74b576)" style="fill: none; stroke: #b0b0b0; stroke-width: 0.8; stroke-linecap: square"/>
     </g>
     <g id="line2d_14">
      <g>
       <use xlink:href="#m8c2571dce7" x="488.866342" y="305.131875" style="stroke: #000000; stroke-width: 0.8"/>
      </g>
     </g>
     <g id="text_7">
      <!-- 300 -->
      <g transform="translate(475.366342 324.425313)scale(0.18 -0.18)">
       <defs>
        <path id="STIXGeneral-Regular-33" d="M 390 3264 
L 288 3290 
Q 435 3770 748 4048 
Q 1062 4326 1542 4326 
Q 1990 4326 2265 4083 
Q 2541 3840 2541 3450 
Q 2541 2925 1946 2566 
Q 2298 2413 2477 2227 
Q 2758 1914 2758 1402 
Q 2758 890 2464 506 
Q 2246 211 1840 60 
Q 1434 -90 979 -90 
Q 262 -90 262 275 
Q 262 378 339 442 
Q 416 506 525 506 
Q 685 506 915 339 
Q 1197 141 1466 141 
Q 1818 141 2058 425 
Q 2298 710 2298 1120 
Q 2298 1856 1632 2048 
Q 1434 2112 979 2112 
L 979 2202 
Q 1338 2323 1517 2432 
Q 2035 2726 2035 3290 
Q 2035 3610 1852 3776 
Q 1670 3942 1344 3942 
Q 768 3942 390 3264 
z
" transform="scale(0.015625)"/>
       </defs>
       <use xlink:href="#STIXGeneral-Regular-33"/>
       <use xlink:href="#STIXGeneral-Regular-30" x="49.999985"/>
       <use xlink:href="#STIXGeneral-Regular-30" x="99.999969"/>
      </g>
     </g>
    </g>
    <g id="text_8">
     <!-- Epoch -->
     <g transform="translate(261.605 344.625313)scale(0.18 -0.18)">
      <defs>
       <path id="STIXGeneral-Regular-45" d="M 3821 1082 
L 3526 0 
L 77 0 
L 77 122 
Q 442 147 538 252 
Q 634 358 634 730 
L 634 3520 
Q 634 3878 534 3987 
Q 435 4096 77 4115 
L 77 4237 
L 3469 4237 
L 3494 3322 
L 3334 3322 
Q 3264 3750 3085 3872 
Q 2906 3994 2349 3994 
L 1510 3994 
Q 1370 3994 1328 3952 
Q 1286 3910 1286 3763 
L 1286 2355 
L 2253 2355 
Q 2656 2355 2787 2470 
Q 2918 2586 2976 2970 
L 3123 2970 
L 3123 1472 
L 2976 1472 
Q 2918 1875 2790 1984 
Q 2662 2093 2253 2093 
L 1286 2093 
L 1286 538 
Q 1286 346 1420 291 
Q 1555 237 1933 237 
L 2163 237 
Q 2848 237 3136 403 
Q 3424 570 3642 1082 
L 3821 1082 
z
" transform="scale(0.015625)"/>
       <path id="STIXGeneral-Regular-70" d="M 1018 2931 
L 1018 2438 
Q 1421 2944 1939 2944 
Q 2406 2944 2707 2560 
Q 3008 2176 3008 1581 
Q 3008 883 2621 409 
Q 2234 -64 1664 -64 
Q 1466 -64 1328 -6 
Q 1190 51 1018 211 
L 1018 -794 
Q 1018 -1094 1120 -1180 
Q 1222 -1267 1581 -1274 
L 1581 -1389 
L 32 -1389 
L 32 -1280 
Q 314 -1254 397 -1171 
Q 480 -1088 480 -838 
L 480 2157 
Q 480 2381 429 2451 
Q 378 2522 218 2522 
Q 115 2522 58 2515 
L 58 2618 
Q 506 2752 979 2944 
L 1018 2931 
z
M 1018 2138 
L 1018 563 
Q 1018 422 1238 281 
Q 1459 141 1683 141 
Q 2029 141 2243 467 
Q 2458 794 2458 1325 
Q 2458 1888 2243 2224 
Q 2029 2560 1670 2560 
Q 1446 2560 1232 2419 
Q 1018 2278 1018 2138 
z
" transform="scale(0.015625)"/>
       <path id="STIXGeneral-Regular-6f" d="M 3008 1478 
Q 3008 806 2608 371 
Q 2208 -64 1568 -64 
Q 979 -64 582 368 
Q 186 800 186 1459 
Q 186 2125 582 2534 
Q 979 2944 1626 2944 
Q 2221 2944 2614 2537 
Q 3008 2131 3008 1478 
z
M 2432 1306 
Q 2432 2035 2112 2445 
Q 1856 2765 1504 2765 
Q 1171 2765 966 2493 
Q 762 2221 762 1747 
Q 762 928 1101 435 
Q 1318 115 1677 115 
Q 2029 115 2230 432 
Q 2432 749 2432 1306 
z
" transform="scale(0.015625)"/>
       <path id="STIXGeneral-Regular-63" d="M 2547 998 
L 2637 941 
Q 2362 403 2112 205 
Q 1786 -64 1376 -64 
Q 845 -64 502 336 
Q 160 736 160 1357 
Q 160 2170 698 2618 
Q 1094 2944 1562 2944 
Q 1965 2944 2256 2749 
Q 2547 2554 2547 2285 
Q 2547 2176 2457 2096 
Q 2368 2016 2246 2016 
Q 2022 2016 1939 2310 
L 1901 2451 
Q 1850 2630 1773 2694 
Q 1696 2758 1523 2758 
Q 1133 2758 893 2451 
Q 653 2144 653 1645 
Q 653 1094 928 745 
Q 1203 397 1645 397 
Q 1920 397 2118 528 
Q 2317 659 2547 998 
z
" transform="scale(0.015625)"/>
       <path id="STIXGeneral-Regular-68" d="M 3117 0 
L 1760 0 
L 1760 96 
Q 2042 128 2118 224 
Q 2195 320 2195 653 
L 2195 1920 
Q 2195 2598 1722 2598 
Q 1530 2598 1370 2508 
Q 1210 2419 1005 2195 
L 1005 653 
Q 1005 320 1081 224 
Q 1158 128 1440 96 
L 1440 0 
L 58 0 
L 58 96 
Q 333 134 400 224 
Q 467 314 467 653 
L 467 3667 
Q 467 3872 406 3933 
Q 346 3994 141 3994 
Q 83 3994 64 3987 
L 64 4090 
L 237 4141 
Q 730 4288 973 4371 
L 1005 4352 
L 1005 2406 
Q 1229 2694 1446 2819 
Q 1664 2944 1946 2944 
Q 2733 2944 2733 1926 
L 2733 653 
Q 2733 320 2793 233 
Q 2854 147 3117 96 
L 3117 0 
z
" transform="scale(0.015625)"/>
      </defs>
      <use xlink:href="#STIXGeneral-Regular-45"/>
      <use xlink:href="#STIXGeneral-Regular-70" x="61.099991"/>
      <use xlink:href="#STIXGeneral-Regular-6f" x="111.099976"/>
      <use xlink:href="#STIXGeneral-Regular-63" x="161.09996"/>
      <use xlink:href="#STIXGeneral-Regular-68" x="205.499954"/>
     </g>
    </g>
   </g>
   <g id="matplotlib.axis_2">
    <g id="ytick_1">
     <g id="line2d_15">
      <path d="M 61.4 234.899087 
L 507.8 234.899087 
" clip-path="url(#p33ac74b576)" style="fill: none; stroke: #b0b0b0; stroke-width: 0.8; stroke-linecap: square"/>
     </g>
     <g id="line2d_16">
      <defs>
       <path id="mb22cc97569" d="M 0 0 
L -3.5 0 
" style="stroke: #000000; stroke-width: 0.8"/>
      </defs>
      <g>
       <use xlink:href="#mb22cc97569" x="61.4" y="234.899087" style="stroke: #000000; stroke-width: 0.8"/>
      </g>
     </g>
     <g id="text_9">
      <!-- 400 -->
      <g transform="translate(27.4 241.045805)scale(0.18 -0.18)">
       <defs>
        <path id="STIXGeneral-Regular-34" d="M 3027 1069 
L 2368 1069 
L 2368 0 
L 1869 0 
L 1869 1069 
L 77 1069 
L 77 1478 
L 2086 4326 
L 2368 4326 
L 2368 1478 
L 3027 1478 
L 3027 1069 
z
M 1869 1478 
L 1869 3674 
L 333 1478 
L 1869 1478 
z
" transform="scale(0.015625)"/>
       </defs>
       <use xlink:href="#STIXGeneral-Regular-34"/>
       <use xlink:href="#STIXGeneral-Regular-30" x="49.999985"/>
       <use xlink:href="#STIXGeneral-Regular-30" x="99.999969"/>
      </g>
     </g>
    </g>
    <g id="ytick_2">
     <g id="line2d_17">
      <path d="M 61.4 163.416653 
L 507.8 163.416653 
" clip-path="url(#p33ac74b576)" style="fill: none; stroke: #b0b0b0; stroke-width: 0.8; stroke-linecap: square"/>
     </g>
     <g id="line2d_18">
      <g>
       <use xlink:href="#mb22cc97569" x="61.4" y="163.416653" style="stroke: #000000; stroke-width: 0.8"/>
      </g>
     </g>
     <g id="text_10">
      <!-- 600 -->
      <g transform="translate(27.4 169.563372)scale(0.18 -0.18)">
       <defs>
        <path id="STIXGeneral-Regular-36" d="M 2854 4378 
L 2867 4275 
Q 2112 4154 1606 3664 
Q 1101 3174 973 2451 
Q 1344 2739 1786 2739 
Q 2349 2739 2672 2380 
Q 2995 2022 2995 1402 
Q 2995 774 2669 378 
Q 2291 -90 1651 -90 
Q 870 -90 518 557 
Q 218 1107 218 1786 
Q 218 2835 915 3552 
Q 1312 3962 1731 4131 
Q 2150 4301 2854 4378 
z
M 2419 1203 
Q 2419 2445 1555 2445 
Q 1235 2445 1024 2275 
Q 813 2106 813 1702 
Q 813 954 1046 522 
Q 1280 90 1722 90 
Q 2061 90 2240 394 
Q 2419 698 2419 1203 
z
" transform="scale(0.015625)"/>
       </defs>
       <use xlink:href="#STIXGeneral-Regular-36"/>
       <use xlink:href="#STIXGeneral-Regular-30" x="49.999985"/>
       <use xlink:href="#STIXGeneral-Regular-30" x="99.999969"/>
      </g>
     </g>
    </g>
    <g id="ytick_3">
     <g id="line2d_19">
      <path d="M 61.4 91.934219 
L 507.8 91.934219 
" clip-path="url(#p33ac74b576)" style="fill: none; stroke: #b0b0b0; stroke-width: 0.8; stroke-linecap: square"/>
     </g>
     <g id="line2d_20">
      <g>
       <use xlink:href="#mb22cc97569" x="61.4" y="91.934219" style="stroke: #000000; stroke-width: 0.8"/>
      </g>
     </g>
     <g id="text_11">
      <!-- 800 -->
      <g transform="translate(27.4 98.080938)scale(0.18 -0.18)">
       <defs>
        <path id="STIXGeneral-Regular-38" d="M 2848 992 
Q 2848 499 2505 204 
Q 2163 -90 1587 -90 
Q 1050 -90 704 204 
Q 358 499 358 954 
Q 358 1293 524 1533 
Q 691 1773 1190 2125 
Q 710 2522 553 2765 
Q 397 3008 397 3328 
Q 397 3782 745 4054 
Q 1094 4326 1638 4326 
Q 2106 4326 2410 4060 
Q 2714 3795 2714 3411 
Q 2714 3059 2531 2848 
Q 2349 2637 1856 2374 
Q 2432 1990 2640 1689 
Q 2848 1389 2848 992 
z
M 2272 3411 
Q 2272 3744 2086 3945 
Q 1901 4147 1574 4147 
Q 1248 4147 1059 3977 
Q 870 3808 870 3513 
Q 870 3219 1059 2979 
Q 1248 2739 1670 2490 
Q 1997 2682 2134 2896 
Q 2272 3110 2272 3411 
z
M 1734 1741 
L 1357 1997 
Q 1075 1766 960 1545 
Q 845 1325 845 1011 
Q 845 576 1065 333 
Q 1286 90 1658 90 
Q 1971 90 2166 285 
Q 2362 480 2362 794 
Q 2362 1082 2214 1299 
Q 2067 1517 1734 1741 
z
" transform="scale(0.015625)"/>
       </defs>
       <use xlink:href="#STIXGeneral-Regular-38"/>
       <use xlink:href="#STIXGeneral-Regular-30" x="49.999985"/>
       <use xlink:href="#STIXGeneral-Regular-30" x="99.999969"/>
      </g>
     </g>
    </g>
    <g id="text_12">
     <!-- Average Return -->
     <g transform="translate(19.476562 223.764844)rotate(-90)scale(0.18 -0.18)">
      <defs>
       <path id="STIXGeneral-Regular-41" d="M 4525 0 
L 2893 0 
L 2893 122 
Q 3149 122 3245 179 
Q 3334 224 3334 333 
Q 3334 499 3213 781 
L 2950 1382 
L 1274 1382 
L 979 653 
Q 922 506 922 384 
Q 922 237 1027 179 
Q 1133 122 1370 122 
L 1370 0 
L 96 0 
L 96 122 
Q 365 147 486 316 
Q 608 486 902 1190 
L 2221 4314 
L 2349 4314 
L 3923 710 
Q 4064 378 4176 262 
Q 4288 147 4525 122 
L 4525 0 
z
M 2861 1645 
L 2118 3405 
L 1382 1645 
L 2861 1645 
z
" transform="scale(0.015625)"/>
       <path id="STIXGeneral-Regular-76" d="M 3053 2880 
L 3053 2784 
Q 2906 2771 2835 2688 
Q 2765 2605 2637 2285 
L 1818 230 
Q 1690 -90 1638 -90 
Q 1587 -90 1523 77 
Q 1510 96 1497 141 
Q 1485 186 1472 211 
L 704 2048 
Q 499 2534 403 2652 
Q 307 2771 122 2784 
L 122 2880 
L 1376 2880 
L 1376 2784 
Q 1210 2771 1146 2732 
Q 1082 2694 1082 2611 
Q 1082 2509 1139 2368 
L 1792 730 
L 2426 2387 
Q 2464 2483 2464 2579 
Q 2464 2758 2163 2784 
L 2163 2880 
L 3053 2880 
z
" transform="scale(0.015625)"/>
       <path id="STIXGeneral-Regular-65" d="M 2611 1050 
L 2714 1005 
Q 2330 -64 1376 -64 
Q 813 -64 486 329 
Q 160 723 160 1389 
Q 160 2074 525 2509 
Q 890 2944 1485 2944 
Q 2061 2944 2374 2502 
Q 2560 2246 2592 1773 
L 621 1773 
Q 646 1370 700 1158 
Q 755 947 915 730 
Q 1184 378 1626 378 
Q 1939 378 2153 531 
Q 2368 685 2611 1050 
z
M 634 1978 
L 1939 1978 
Q 1882 2381 1750 2547 
Q 1619 2714 1312 2714 
Q 1043 2714 864 2525 
Q 685 2336 634 1978 
z
" transform="scale(0.015625)"/>
       <path id="STIXGeneral-Regular-72" d="M 1024 2931 
L 1024 2342 
Q 1267 2688 1430 2816 
Q 1594 2944 1792 2944 
Q 1958 2944 2051 2854 
Q 2144 2765 2144 2605 
Q 2144 2470 2077 2393 
Q 2010 2317 1894 2317 
Q 1773 2317 1638 2445 
Q 1536 2541 1472 2541 
Q 1338 2541 1181 2355 
Q 1024 2170 1024 2016 
L 1024 576 
Q 1024 301 1133 205 
Q 1242 109 1568 96 
L 1568 0 
L 32 0 
L 32 96 
Q 339 154 412 224 
Q 486 294 486 538 
L 486 2138 
Q 486 2349 438 2435 
Q 390 2522 269 2522 
Q 166 2522 45 2496 
L 45 2598 
Q 448 2726 992 2944 
L 1024 2931 
z
" transform="scale(0.015625)"/>
       <path id="STIXGeneral-Regular-61" d="M 2829 422 
L 2829 243 
Q 2586 -64 2253 -64 
Q 1888 -64 1843 403 
L 1837 403 
Q 1427 -64 909 -64 
Q 608 -64 422 112 
Q 237 288 237 602 
Q 237 1050 685 1350 
Q 992 1555 1837 1869 
L 1837 2214 
Q 1837 2502 1699 2646 
Q 1562 2790 1338 2790 
Q 1146 2790 1018 2697 
Q 890 2605 890 2477 
Q 890 2419 909 2348 
Q 928 2278 928 2208 
Q 928 2112 841 2029 
Q 755 1946 634 1946 
Q 525 1946 441 2029 
Q 358 2112 358 2240 
Q 358 2547 685 2752 
Q 986 2944 1421 2944 
Q 1939 2944 2176 2656 
Q 2291 2522 2323 2384 
Q 2355 2246 2355 1946 
L 2355 723 
Q 2355 301 2554 301 
Q 2682 301 2829 422 
z
M 1837 813 
L 1837 1715 
Q 1248 1510 1018 1293 
Q 800 1094 800 800 
Q 800 557 921 432 
Q 1043 307 1242 307 
Q 1453 307 1613 410 
Q 1747 506 1792 589 
Q 1837 672 1837 813 
z
" transform="scale(0.015625)"/>
       <path id="STIXGeneral-Regular-67" d="M 3008 2483 
L 2477 2483 
Q 2598 2208 2598 1946 
Q 2598 1453 2265 1203 
Q 1933 954 1600 954 
Q 1530 954 1357 973 
L 1235 986 
Q 1107 947 979 812 
Q 851 678 851 582 
Q 851 435 1350 410 
L 2176 371 
Q 2528 358 2739 172 
Q 2950 -13 2950 -314 
Q 2950 -685 2566 -986 
Q 2035 -1395 1286 -1395 
Q 826 -1395 502 -1212 
Q 179 -1030 179 -774 
Q 179 -595 320 -419 
Q 461 -243 806 6 
Q 602 102 534 172 
Q 467 243 467 346 
Q 467 531 762 787 
Q 909 915 1037 1043 
Q 717 1203 579 1401 
Q 442 1600 442 1901 
Q 442 2336 752 2640 
Q 1062 2944 1510 2944 
Q 1766 2944 2022 2848 
L 2163 2797 
Q 2349 2733 2515 2733 
L 3008 2733 
L 3008 2483 
z
M 973 2163 
L 973 2144 
Q 973 1683 1155 1398 
Q 1338 1114 1632 1114 
Q 1850 1114 1978 1270 
Q 2106 1427 2106 1690 
Q 2106 2112 1914 2464 
Q 1754 2765 1446 2765 
Q 1222 2765 1097 2605 
Q 973 2445 973 2163 
z
M 2771 -410 
Q 2771 -230 2595 -163 
Q 2419 -96 1978 -96 
Q 1344 -96 941 -13 
Q 749 -243 688 -348 
Q 627 -454 627 -563 
Q 627 -774 880 -902 
Q 1133 -1030 1555 -1030 
Q 2099 -1030 2435 -860 
Q 2771 -691 2771 -410 
z
" transform="scale(0.015625)"/>
       <path id="STIXGeneral-Regular-20" transform="scale(0.015625)"/>
       <path id="STIXGeneral-Regular-52" d="M 4224 0 
L 3187 0 
L 1664 1971 
L 1306 1958 
L 1306 717 
Q 1306 352 1405 249 
Q 1504 147 1875 122 
L 1875 0 
L 109 0 
L 109 122 
Q 474 154 563 262 
Q 653 371 653 794 
L 653 3526 
Q 653 3885 563 3987 
Q 474 4090 109 4115 
L 109 4237 
L 1850 4237 
Q 2726 4237 3187 3859 
Q 3501 3603 3501 3091 
Q 3501 2221 2342 2042 
L 3622 422 
Q 3757 256 3878 198 
Q 4000 141 4224 122 
L 4224 0 
z
M 1306 3731 
L 1306 2195 
Q 1766 2202 1990 2246 
Q 2214 2291 2438 2413 
Q 2803 2618 2803 3142 
Q 2803 4000 1632 4000 
Q 1459 4000 1382 3945 
Q 1306 3891 1306 3731 
z
" transform="scale(0.015625)"/>
       <path id="STIXGeneral-Regular-74" d="M 1702 493 
L 1786 422 
Q 1478 -64 1011 -64 
Q 448 -64 448 749 
L 448 2675 
L 109 2675 
Q 83 2694 83 2720 
Q 83 2771 192 2842 
Q 435 2982 813 3526 
Q 826 3546 874 3606 
Q 922 3667 941 3706 
Q 986 3706 986 3622 
L 986 2880 
L 1632 2880 
L 1632 2675 
L 986 2675 
L 986 845 
Q 986 538 1062 403 
Q 1139 269 1318 269 
Q 1510 269 1702 493 
z
" transform="scale(0.015625)"/>
       <path id="STIXGeneral-Regular-75" d="M 3072 320 
L 3072 230 
Q 2573 96 2195 -58 
L 2163 -38 
L 2163 486 
L 2150 486 
Q 1747 -64 1235 -64 
Q 870 -64 662 160 
Q 454 384 454 755 
L 454 2362 
Q 454 2598 371 2688 
Q 288 2778 58 2790 
L 58 2880 
L 992 2880 
L 992 813 
Q 992 595 1123 451 
Q 1254 307 1446 307 
Q 1760 307 1984 506 
Q 2067 582 2099 649 
Q 2131 717 2131 877 
L 2131 2355 
Q 2131 2605 2041 2678 
Q 1952 2752 1658 2771 
L 1658 2880 
L 2669 2880 
L 2669 685 
Q 2669 461 2742 390 
Q 2816 320 3034 320 
L 3072 320 
z
" transform="scale(0.015625)"/>
       <path id="STIXGeneral-Regular-6e" d="M 3104 0 
L 1773 0 
L 1779 96 
Q 2016 115 2096 233 
Q 2176 352 2176 672 
L 2176 1946 
Q 2176 2592 1709 2592 
Q 1549 2592 1408 2515 
Q 1267 2438 1050 2227 
L 1050 461 
Q 1050 269 1136 192 
Q 1222 115 1466 96 
L 1466 0 
L 115 0 
L 115 96 
Q 358 115 435 214 
Q 512 314 512 602 
L 512 2157 
Q 512 2394 467 2483 
Q 422 2573 288 2573 
Q 160 2573 102 2547 
L 102 2656 
Q 550 2784 979 2944 
L 1030 2925 
L 1030 2426 
L 1037 2426 
Q 1491 2944 1958 2944 
Q 2323 2944 2518 2688 
Q 2714 2432 2714 1958 
L 2714 544 
Q 2714 288 2790 205 
Q 2867 122 3104 96 
L 3104 0 
z
" transform="scale(0.015625)"/>
      </defs>
      <use xlink:href="#STIXGeneral-Regular-41"/>
      <use xlink:href="#STIXGeneral-Regular-76" x="72.199982"/>
      <use xlink:href="#STIXGeneral-Regular-65" x="122.199966"/>
      <use xlink:href="#STIXGeneral-Regular-72" x="166.59996"/>
      <use xlink:href="#STIXGeneral-Regular-61" x="199.899948"/>
      <use xlink:href="#STIXGeneral-Regular-67" x="244.299942"/>
      <use xlink:href="#STIXGeneral-Regular-65" x="294.299927"/>
      <use xlink:href="#STIXGeneral-Regular-20" x="338.699921"/>
      <use xlink:href="#STIXGeneral-Regular-52" x="363.699905"/>
      <use xlink:href="#STIXGeneral-Regular-65" x="430.399902"/>
      <use xlink:href="#STIXGeneral-Regular-74" x="474.799896"/>
      <use xlink:href="#STIXGeneral-Regular-75" x="502.599884"/>
      <use xlink:href="#STIXGeneral-Regular-72" x="552.599869"/>
      <use xlink:href="#STIXGeneral-Regular-6e" x="585.899857"/>
     </g>
    </g>
   </g>
   <g id="line2d_21">
    <path d="M 81.690909 76.64104 
L 83.048161 259.902832 
L 84.405412 276.388991 
L 85.762663 227.919231 
L 87.119915 279.053931 
L 88.477166 279.027458 
L 89.834418 97.883025 
L 91.191669 270.01132 
L 92.548921 283.041997 
L 93.906172 276.565222 
L 95.263424 253.110855 
L 96.620675 275.495919 
L 97.977926 285.409864 
L 99.335178 282.748589 
L 100.692429 277.640948 
L 102.049681 192.481588 
L 103.406932 267.589102 
L 104.764184 177.088236 
L 106.121435 256.402291 
L 107.478687 280.481071 
L 108.835938 187.116762 
L 110.193189 209.961647 
L 111.550441 196.786088 
L 112.907692 198.03174 
L 114.264944 277.104994 
L 115.622195 177.092686 
L 116.979447 199.641687 
L 118.336698 277.059652 
L 119.69395 125.319535 
L 121.051201 245.673807 
L 122.408452 262.486489 
L 123.765704 97.994934 
L 125.122955 281.832797 
L 126.480207 278.380565 
L 127.837458 219.788562 
L 129.19471 245.715091 
L 130.551961 283.984513 
L 131.909213 264.273299 
L 133.266464 198.777661 
L 134.623715 184.056529 
L 135.980967 151.373015 
L 137.338218 229.219998 
L 138.69547 157.383294 
L 140.052721 247.226032 
L 141.409973 265.851604 
L 142.767224 200.708001 
L 144.124476 194.170526 
L 145.481727 254.982241 
L 146.838978 218.501494 
L 148.19623 135.526768 
L 149.553481 183.329423 
L 150.910733 202.512056 
L 152.267984 229.875181 
L 153.625236 235.627545 
L 154.982487 237.88275 
L 156.339739 180.840147 
L 157.69699 180.494253 
L 159.054241 211.624146 
L 160.411493 281.987802 
L 161.768744 129.44631 
L 163.125996 273.790423 
L 164.483247 280.974781 
L 165.840499 222.187002 
L 167.19775 213.066491 
L 168.555002 182.413467 
L 169.912253 138.919784 
L 171.269504 156.618361 
L 172.626756 196.356632 
L 173.984007 192.379975 
L 175.341259 254.190072 
L 176.69851 216.870158 
L 178.055762 134.674489 
L 179.413013 148.222469 
L 180.770265 146.006488 
L 182.127516 128.587836 
L 183.484767 206.546806 
L 184.842019 221.842002 
L 186.19927 241.655614 
L 187.556522 202.240801 
L 188.913773 244.069979 
L 190.271025 158.043712 
L 191.628276 162.016083 
L 192.985528 214.501473 
L 194.342779 285.464706 
L 195.70003 128.160115 
L 197.057282 85.607518 
L 198.414533 226.91762 
L 199.771785 284.531855 
L 201.129036 222.001512 
L 202.486288 189.287718 
L 203.843539 145.360554 
L 205.200791 123.28551 
L 206.558042 245.923062 
L 207.915293 230.442156 
L 209.272545 221.469942 
L 210.629796 208.214464 
L 211.987048 215.683591 
L 213.344299 203.438962 
L 214.701551 131.290526 
L 216.058802 110.252466 
L 217.416054 184.257377 
L 218.773305 215.685936 
L 220.130556 252.552693 
L 221.487808 211.704043 
L 222.845059 231.97356 
L 224.202311 162.573951 
L 225.559562 182.132952 
L 226.916814 186.53023 
L 228.274065 271.226268 
L 229.631317 179.033213 
L 230.988568 68.869856 
L 232.345819 216.658468 
L 233.703071 286.888181 
L 235.060322 216.394543 
L 236.417574 109.991649 
L 237.774825 200.805393 
L 239.132077 158.473026 
L 240.489328 195.607319 
L 241.84658 213.927136 
L 243.203831 274.506884 
L 244.561082 208.959251 
L 245.918334 61.330192 
L 247.275585 194.247837 
L 248.632837 225.084606 
L 249.990088 123.949833 
L 251.34734 189.392254 
L 252.704591 206.00002 
L 254.061843 228.119643 
L 255.419094 181.7652 
L 256.776345 261.91802 
L 258.133597 149.385826 
L 259.490848 171.410456 
L 260.8481 168.112683 
L 262.205351 286.982322 
L 263.562603 164.571415 
L 264.919854 165.243809 
L 266.277106 233.774058 
L 267.634357 261.760387 
L 268.991608 210.852047 
L 270.34886 195.878214 
L 271.706111 117.599114 
L 273.063363 155.885954 
L 274.420614 250.387365 
L 275.777866 155.685717 
L 277.135117 176.634795 
L 278.492369 211.312403 
L 279.84962 225.055527 
L 281.206871 208.884612 
L 282.564123 161.613078 
L 283.921374 121.32199 
L 285.278626 205.691473 
L 286.635877 209.576105 
L 287.993129 230.22582 
L 289.35038 206.804405 
L 290.707631 276.020606 
L 292.064883 183.478265 
L 293.422134 173.311586 
L 294.779386 179.013296 
L 296.136637 287.345701 
L 297.493889 187.048417 
L 298.85114 159.384466 
L 300.208392 190.60369 
L 301.565643 283.836118 
L 302.922894 204.529851 
L 304.280146 191.821933 
L 305.637397 141.441149 
L 306.994649 223.065055 
L 308.3519 177.890733 
L 309.709152 256.474868 
L 311.066403 213.330863 
L 312.423655 242.625267 
L 313.780906 149.624762 
L 315.138157 205.061082 
L 316.495409 174.513686 
L 317.85266 156.797765 
L 319.209912 228.093661 
L 320.567163 228.569331 
L 321.924415 237.958774 
L 323.281666 199.907052 
L 324.638918 243.675394 
L 325.996169 195.190745 
L 327.35342 190.324877 
L 328.710672 223.05309 
L 330.067923 285.369768 
L 331.425175 222.679807 
L 332.782426 268.133564 
L 334.139678 285.585603 
L 335.496929 243.549349 
L 336.854181 232.127113 
L 338.211432 214.257803 
L 339.568683 171.414339 
L 340.925935 272.290848 
L 342.283186 222.44795 
L 343.640438 277.045123 
L 344.997689 287.441326 
L 346.354941 197.413708 
L 347.712192 152.328499 
L 349.069444 149.825305 
L 350.426695 231.97452 
L 351.783946 208.655612 
L 353.141198 258.685789 
L 354.498449 240.029448 
L 357.212952 149.305068 
L 358.570204 220.721763 
L 359.927455 148.381957 
L 361.284707 162.344591 
L 362.641958 228.603231 
L 363.999209 289.429022 
L 365.356461 230.990938 
L 366.713712 282.897093 
L 368.070964 207.296708 
L 369.428215 242.854943 
L 370.785467 195.893288 
L 372.142718 172.909301 
L 373.49997 188.601624 
L 374.857221 272.43008 
L 376.214472 193.56532 
L 377.571724 278.478459 
L 378.928975 286.546214 
L 380.286227 193.617807 
L 381.643478 222.822301 
L 383.00073 156.864191 
L 384.357981 214.531294 
L 385.715233 131.058221 
L 387.072484 198.715729 
L 388.429735 208.904158 
L 389.786987 195.523539 
L 391.144238 145.759894 
L 392.50149 220.506179 
L 393.858741 185.757357 
L 395.215993 131.156038 
L 396.573244 200.538653 
L 397.930496 287.140823 
L 399.287747 202.20774 
L 400.644998 279.897756 
L 402.00225 271.214772 
L 403.359501 268.147526 
L 404.716753 222.824515 
L 406.074004 213.376914 
L 407.431256 214.183851 
L 408.788507 224.708051 
L 410.145759 187.346122 
L 411.50301 274.137943 
L 412.860261 286.138126 
L 414.217513 211.069758 
L 415.574764 211.945051 
L 416.932016 132.602615 
L 418.289267 198.119522 
L 419.646519 153.529071 
L 421.00377 204.827578 
L 422.361022 210.869085 
L 423.718273 121.763759 
L 425.075524 137.672419 
L 426.432776 210.556425 
L 427.790027 194.68832 
L 429.147279 132.861708 
L 430.50453 252.707239 
L 431.861782 286.055688 
L 433.219033 177.950047 
L 434.576285 279.616859 
L 435.933536 291.963787 
L 437.290787 238.213493 
L 438.648039 195.165233 
L 440.00529 205.867474 
L 441.362542 137.152945 
L 442.719793 264.054694 
L 444.077045 184.517758 
L 445.434296 274.798852 
L 446.791548 288.070227 
L 448.148799 200.525368 
L 449.50605 218.79139 
L 450.863302 172.650622 
L 452.220553 204.857311 
L 453.577805 133.764096 
L 454.935056 200.507993 
L 456.292308 226.357036 
L 457.649559 101.907489 
L 459.006811 157.424175 
L 460.364062 219.456237 
L 461.721313 196.424051 
L 463.078565 138.480479 
L 464.435816 249.47587 
L 465.793068 275.324161 
L 467.150319 200.759855 
L 468.507571 282.676688 
L 469.864822 285.070972 
L 471.222074 234.900766 
L 472.579325 234.501448 
L 473.936576 210.121953 
L 475.293828 232.81408 
L 476.651079 265.546853 
L 478.008331 209.997402 
L 479.365582 277.580903 
L 480.722834 292.531875 
L 482.080085 212.817214 
L 483.437337 230.636918 
L 484.794588 162.460318 
L 486.151839 202.633749 
L 487.509091 115.944621 
L 487.509091 115.944621 
" clip-path="url(#p33ac74b576)" style="fill: none; stroke: #1f77b4; stroke-width: 1.5; stroke-linecap: square"/>
   </g>
   <g id="line2d_22">
    <path d="M 81.690909 179.623061 
L 83.048161 170.729619 
L 84.405412 268.631976 
L 85.762663 146.639899 
L 87.119915 277.051373 
L 88.477166 264.106864 
L 89.834418 110.713956 
L 91.191669 277.520957 
L 92.548921 277.758726 
L 93.906172 261.066701 
L 95.263424 268.221336 
L 96.620675 268.414232 
L 97.977926 276.972971 
L 99.335178 269.280691 
L 100.692429 274.718345 
L 102.049681 249.132638 
L 103.406932 261.874259 
L 104.764184 277.528504 
L 106.121435 246.41326 
L 107.478687 266.44479 
L 108.835938 268.318837 
L 110.193189 240.627203 
L 111.550441 205.892659 
L 112.907692 255.477282 
L 114.264944 229.751579 
L 115.622195 176.072172 
L 116.979447 248.957302 
L 118.336698 263.591611 
L 119.69395 128.713925 
L 121.051201 282.370879 
L 122.408452 282.99346 
L 123.765704 71.459197 
L 125.122955 279.451809 
L 126.480207 283.026814 
L 127.837458 275.852131 
L 129.19471 262.821192 
L 130.551961 265.950708 
L 131.909213 282.09513 
L 133.266464 283.806428 
L 134.623715 251.144216 
L 135.980967 278.825171 
L 137.338218 264.263483 
L 138.69547 231.006699 
L 140.052721 262.560397 
L 141.409973 267.938148 
L 142.767224 261.105476 
L 144.124476 212.738594 
L 145.481727 222.017436 
L 146.838978 276.256936 
L 148.19623 265.332676 
L 149.553481 208.982549 
L 150.910733 226.450436 
L 152.267984 185.504306 
L 153.625236 72.203667 
L 154.982487 279.449519 
L 156.339739 281.64398 
L 157.69699 40.531875 
L 159.054241 276.827456 
L 160.411493 276.822253 
L 161.768744 281.172477 
L 163.125996 273.232261 
L 164.483247 261.341795 
L 165.840499 244.06855 
L 167.19775 255.222879 
L 168.555002 272.390356 
L 169.912253 250.168935 
L 171.269504 271.469339 
L 172.626756 267.678837 
L 173.984007 256.793058 
L 175.341259 280.624895 
L 176.69851 250.975555 
L 178.055762 195.659587 
L 179.413013 279.49558 
L 180.770265 256.049558 
L 182.127516 252.223978 
L 183.484767 126.278379 
L 186.19927 242.249923 
L 187.556522 112.014287 
L 188.913773 192.566709 
L 190.271025 250.813952 
L 191.628276 66.904787 
L 192.985528 272.592763 
L 194.342779 277.875707 
L 195.70003 278.562969 
L 197.057282 261.517982 
L 198.414533 255.966771 
L 199.771785 254.164211 
L 201.129036 258.232709 
L 202.486288 252.886916 
L 203.843539 255.911995 
L 205.200791 268.662593 
L 206.558042 193.117268 
L 207.915293 258.975968 
L 209.272545 259.714527 
L 210.629796 263.047029 
L 211.987048 166.626382 
L 213.344299 273.849803 
L 214.701551 270.598986 
L 216.058802 197.048966 
L 217.416054 187.106727 
L 218.773305 180.366942 
L 220.130556 260.537672 
L 221.487808 67.60661 
L 222.845059 281.685504 
L 224.202311 261.21347 
L 225.559562 74.343166 
L 226.916814 277.921573 
L 228.274065 271.018592 
L 229.631317 278.336936 
L 230.988568 267.444089 
L 232.345819 264.714578 
L 233.703071 278.887452 
L 235.060322 258.669155 
L 236.417574 264.787406 
L 237.774825 250.997894 
L 239.132077 244.544012 
L 240.489328 258.653067 
L 241.84658 234.212098 
L 243.203831 262.094926 
L 244.561082 254.975522 
L 245.918334 185.277848 
L 247.275585 259.274143 
L 248.632837 255.634021 
L 249.990088 241.836229 
L 251.34734 135.730386 
L 252.704591 207.76146 
L 254.061843 258.524568 
L 255.419094 178.712602 
L 256.776345 260.541163 
L 258.133597 279.601393 
L 259.490848 80.054955 
L 260.8481 277.373849 
L 262.205351 272.744266 
L 263.562603 271.859975 
L 264.919854 258.411153 
L 266.277106 256.743168 
L 267.634357 279.550761 
L 268.991608 281.272781 
L 270.34886 199.909637 
L 271.706111 253.089193 
L 273.063363 241.32186 
L 274.420614 257.875198 
L 275.777866 257.094788 
L 277.135117 274.708081 
L 278.492369 223.051988 
L 279.84962 199.790933 
L 281.206871 251.566636 
L 282.564123 275.257386 
L 283.921374 252.221011 
L 285.278626 171.594725 
L 286.635877 182.972295 
L 287.993129 248.963225 
L 289.35038 99.740285 
L 290.707631 250.627273 
L 292.064883 198.88896 
L 293.422134 127.73499 
L 294.779386 275.880436 
L 296.136637 277.5091 
L 297.493889 272.946107 
L 298.85114 190.065674 
L 300.208392 272.234271 
L 301.565643 259.754372 
L 302.922894 241.673775 
L 304.280146 263.287307 
L 305.637397 214.766991 
L 306.994649 258.501182 
L 308.3519 251.949691 
L 309.709152 232.165082 
L 311.066403 270.040966 
L 312.423655 188.310463 
L 313.780906 200.247285 
L 315.138157 198.781228 
L 316.495409 243.568284 
L 317.85266 226.914129 
L 319.209912 113.207399 
L 320.567163 183.381321 
L 321.924415 184.219812 
L 323.281666 95.938483 
L 324.638918 197.845181 
L 325.996169 256.091431 
L 327.35342 134.280602 
L 328.710672 271.805612 
L 330.067923 277.6798 
L 331.425175 282.337044 
L 332.782426 231.432522 
L 334.139678 262.313979 
L 335.496929 284.305789 
L 336.854181 169.911328 
L 338.211432 202.922608 
L 339.568683 245.912307 
L 340.925935 263.594458 
L 342.283186 189.952085 
L 343.640438 242.563019 
L 344.997689 279.162393 
L 346.354941 271.755777 
L 347.712192 169.766958 
L 349.069444 167.814454 
L 350.426695 210.835719 
L 351.783946 202.217546 
L 353.141198 103.675571 
L 354.498449 174.527691 
L 355.855701 158.165569 
L 357.212952 110.773924 
L 358.570204 193.719987 
L 359.927455 264.34315 
L 361.284707 126.716178 
L 362.641958 276.10239 
L 363.999209 278.620647 
L 365.356461 274.195381 
L 366.713712 278.346425 
L 368.070964 273.058322 
L 370.785467 187.515644 
L 372.142718 266.77826 
L 373.49997 256.389551 
L 374.857221 270.958645 
L 376.214472 146.046125 
L 377.571724 247.060001 
L 378.928975 283.88302 
L 380.286227 251.731489 
L 381.643478 184.544808 
L 383.00073 166.979169 
L 384.357981 220.287748 
L 385.715233 153.697175 
L 387.072484 102.397208 
L 388.429735 176.384384 
L 389.786987 201.165815 
L 391.144238 114.636153 
L 392.50149 183.263587 
L 393.858741 280.0703 
L 395.215993 113.406785 
L 396.573244 275.277859 
L 397.930496 273.111637 
L 399.287747 269.667662 
L 400.644998 261.28319 
L 402.00225 271.310953 
L 403.359501 235.436775 
L 404.716753 266.870493 
L 406.074004 180.446392 
L 407.431256 231.580699 
L 408.788507 206.074681 
L 410.145759 228.925282 
L 411.50301 236.018999 
L 412.860261 274.340023 
L 414.217513 166.518181 
L 415.574764 186.428312 
L 416.932016 238.030948 
L 418.289267 251.250061 
L 419.646519 156.031218 
L 421.00377 172.129774 
L 422.361022 207.085847 
L 423.718273 247.84725 
L 425.075524 125.810693 
L 426.432776 219.671232 
L 427.790027 237.46298 
L 429.147279 138.515143 
L 430.50453 184.04067 
L 431.861782 275.151389 
L 433.219033 142.456995 
L 434.576285 187.168223 
L 435.933536 261.617904 
L 437.290787 275.411245 
L 438.648039 152.801616 
L 440.00529 138.171343 
L 441.362542 212.861444 
L 442.719793 193.744703 
L 444.077045 232.861287 
L 445.434296 230.788748 
L 446.791548 222.654437 
L 448.148799 225.747413 
L 449.50605 226.265229 
L 450.863302 235.159162 
L 452.220553 167.801453 
L 453.577805 142.844031 
L 454.935056 202.003609 
L 456.292308 213.969107 
L 457.649559 188.764012 
L 459.006811 210.049997 
L 460.364062 237.90584 
L 461.721313 182.283823 
L 463.078565 210.978551 
L 464.435816 260.526361 
L 465.793068 273.107514 
L 467.150319 96.077749 
L 468.507571 132.515531 
L 469.864822 251.210565 
L 471.222074 240.850902 
L 472.579325 188.083612 
L 473.936576 222.217586 
L 475.293828 171.527623 
L 476.651079 235.117615 
L 478.008331 200.911478 
L 479.365582 248.074712 
L 480.722834 278.029021 
L 482.080085 209.918934 
L 483.437337 255.344005 
L 484.794588 215.923825 
L 486.151839 220.953555 
L 487.509091 159.25493 
L 487.509091 159.25493 
" clip-path="url(#p33ac74b576)" style="fill: none; stroke: #ff7f0e; stroke-width: 1.5; stroke-linecap: square"/>
   </g>
   <g id="line2d_23">
    <path d="M 81.690909 180.041751 
L 83.048161 234.938866 
L 84.405412 240.81457 
L 85.762663 117.652669 
L 87.119915 270.934398 
L 88.477166 281.271908 
L 89.834418 85.225433 
L 91.191669 274.756499 
L 92.548921 278.199165 
L 93.906172 266.796116 
L 95.263424 278.338528 
L 96.620675 267.16137 
L 97.977926 281.668249 
L 99.335178 282.754523 
L 102.049681 217.535594 
L 103.406932 253.671493 
L 104.764184 189.900188 
L 106.121435 263.203779 
L 107.478687 273.926907 
L 108.835938 261.952422 
L 110.193189 176.878182 
L 111.550441 272.618843 
L 112.907692 269.736106 
L 114.264944 259.213727 
L 115.622195 183.435726 
L 116.979447 274.072193 
L 118.336698 249.8716 
L 119.69395 191.322354 
L 121.051201 276.449156 
L 122.408452 269.17117 
L 123.765704 107.132264 
L 125.122955 262.646871 
L 126.480207 282.538252 
L 127.837458 250.469116 
L 129.19471 273.02596 
L 130.551961 256.757936 
L 131.909213 257.727633 
L 133.266464 273.552534 
L 134.623715 258.665785 
L 135.980967 241.123662 
L 137.338218 236.205351 
L 138.69547 253.163483 
L 140.052721 242.609888 
L 141.409973 268.052479 
L 142.767224 239.380536 
L 144.124476 244.479168 
L 145.481727 275.784015 
L 146.838978 265.157569 
L 148.19623 256.274893 
L 149.553481 262.556384 
L 150.910733 273.350377 
L 152.267984 249.15971 
L 153.625236 168.163359 
L 154.982487 281.361807 
L 156.339739 256.733427 
L 157.69699 111.951679 
L 159.054241 272.187217 
L 160.411493 278.144366 
L 161.768744 248.846887 
L 163.125996 250.687645 
L 164.483247 256.247123 
L 165.840499 276.630088 
L 167.19775 265.756361 
L 168.555002 257.345155 
L 169.912253 269.739858 
L 171.269504 262.521971 
L 172.626756 257.757061 
L 173.984007 238.423951 
L 175.341259 268.94986 
L 176.69851 262.777803 
L 178.055762 207.614014 
L 179.413013 254.166872 
L 180.770265 259.540795 
L 182.127516 249.257778 
L 183.484767 265.716124 
L 184.842019 272.631812 
L 186.19927 250.804921 
L 187.556522 259.957085 
L 188.913773 272.35086 
L 190.271025 270.519646 
L 191.628276 83.477486 
L 192.985528 269.562886 
L 194.342779 274.427533 
L 195.70003 272.073715 
L 197.057282 282.224131 
L 198.414533 269.074695 
L 199.771785 283.681397 
L 201.129036 242.136694 
L 202.486288 268.510566 
L 203.843539 265.106883 
L 205.200791 253.96729 
L 206.558042 271.760816 
L 207.915293 233.719565 
L 209.272545 274.427893 
L 210.629796 266.104448 
L 211.987048 220.177867 
L 213.344299 259.225267 
L 214.701551 261.255049 
L 216.058802 254.972108 
L 217.416054 207.147659 
L 218.773305 211.27594 
L 220.130556 204.71821 
L 221.487808 177.627735 
L 222.845059 278.993591 
L 224.202311 280.722265 
L 225.559562 95.816779 
L 226.916814 275.670742 
L 228.274065 273.371843 
L 229.631317 269.53276 
L 230.988568 282.510318 
L 232.345819 277.730269 
L 233.703071 284.818871 
L 235.060322 285.226686 
L 236.417574 268.867258 
L 237.774825 270.164154 
L 239.132077 235.72197 
L 240.489328 271.736798 
L 241.84658 244.420541 
L 243.203831 268.250829 
L 244.561082 249.552396 
L 245.918334 213.132982 
L 247.275585 251.650524 
L 248.632837 278.060991 
L 249.990088 257.691115 
L 251.34734 229.223292 
L 252.704591 277.687817 
L 254.061843 262.396362 
L 255.419094 179.103391 
L 256.776345 262.605957 
L 258.133597 273.254512 
L 259.490848 97.569416 
L 260.8481 276.982362 
L 262.205351 288.935573 
L 263.562603 265.88449 
L 264.919854 252.906266 
L 266.277106 276.092944 
L 267.634357 287.398214 
L 268.991608 274.502008 
L 270.34886 268.275109 
L 271.706111 257.281936 
L 273.063363 241.781769 
L 274.420614 272.339996 
L 275.777866 243.811605 
L 277.135117 273.947958 
L 278.492369 259.918004 
L 279.84962 209.872294 
L 281.206871 268.453837 
L 282.564123 278.834027 
L 283.921374 261.003144 
L 285.278626 210.74918 
L 286.635877 261.014651 
L 287.993129 249.473144 
L 289.35038 126.165139 
L 290.707631 279.274717 
L 292.064883 267.074111 
L 293.422134 98.762725 
L 294.779386 282.932564 
L 296.136637 283.424398 
L 297.493889 275.803288 
L 298.85114 288.073816 
L 300.208392 261.160962 
L 301.565643 287.119891 
L 302.922894 264.897178 
L 304.280146 266.200858 
L 305.637397 261.870998 
L 306.994649 252.962177 
L 308.3519 272.355158 
L 309.709152 246.462474 
L 311.066403 266.713209 
L 312.423655 264.929507 
L 313.780906 203.010794 
L 315.138157 196.926749 
L 316.495409 272.28282 
L 317.85266 160.411197 
L 319.209912 212.818131 
L 320.567163 283.847822 
L 321.924415 260.337293 
L 323.281666 158.73862 
L 324.638918 251.322529 
L 325.996169 283.017947 
L 327.35342 72.449672 
L 328.710672 261.171117 
L 330.067923 276.713692 
L 331.425175 249.716127 
L 332.782426 263.987308 
L 334.139678 258.559417 
L 335.496929 280.321572 
L 336.854181 227.657683 
L 338.211432 259.513919 
L 339.568683 271.82302 
L 340.925935 255.460048 
L 342.283186 253.780785 
L 343.640438 239.886289 
L 344.997689 264.405573 
L 346.354941 262.789343 
L 347.712192 175.167734 
L 349.069444 233.103758 
L 350.426695 258.938927 
L 351.783946 247.689115 
L 353.141198 259.8379 
L 354.498449 284.983332 
L 355.855701 263.65687 
L 357.212952 116.894804 
L 358.570204 191.882534 
L 359.927455 279.732641 
L 361.284707 73.963721 
L 362.641958 283.103428 
L 363.999209 281.115846 
L 365.356461 286.02085 
L 366.713712 236.634763 
L 368.070964 274.574422 
L 369.428215 262.313629 
L 370.785467 209.839965 
L 372.142718 275.602528 
L 373.49997 278.34913 
L 374.857221 265.3748 
L 377.571724 251.928204 
L 378.928975 281.067744 
L 380.286227 266.878684 
L 381.643478 213.492805 
L 383.00073 237.79861 
L 384.357981 247.478778 
L 385.715233 242.203087 
L 387.072484 220.855858 
L 388.429735 228.835001 
L 389.786987 284.572517 
L 391.144238 99.434334 
L 392.50149 277.1713 
L 393.858741 281.704985 
L 395.215993 85.504945 
L 396.573244 282.800705 
L 397.930496 281.835044 
L 399.287747 266.53135 
L 400.644998 266.875336 
L 402.00225 257.907331 
L 403.359501 272.57998 
L 404.716753 243.649555 
L 406.074004 269.5788 
L 407.431256 270.542257 
L 408.788507 259.683583 
L 410.145759 184.321076 
L 411.50301 237.30635 
L 412.860261 279.829138 
L 414.217513 256.107891 
L 415.574764 206.063403 
L 416.932016 250.97297 
L 418.289267 274.690509 
L 419.646519 242.704116 
L 421.00377 275.500369 
L 422.361022 190.903839 
L 423.718273 262.169631 
L 425.075524 141.156467 
L 426.432776 241.344765 
L 427.790027 284.389448 
L 429.147279 86.537152 
L 430.50453 282.275963 
L 431.861782 274.235411 
L 433.219033 256.802384 
L 434.576285 270.324525 
L 435.933536 260.728115 
L 437.290787 285.956399 
L 438.648039 264.481968 
L 440.00529 267.692635 
L 441.362542 245.645088 
L 442.719793 241.028245 
L 444.077045 269.501128 
L 445.434296 242.29629 
L 446.791548 261.902586 
L 448.148799 253.52372 
L 449.50605 203.36597 
L 450.863302 248.339313 
L 452.220553 237.865549 
L 453.577805 235.855029 
L 454.935056 251.568097 
L 456.292308 260.461419 
L 457.649559 239.7459 
L 459.006811 154.233665 
L 460.364062 263.431219 
L 461.721313 269.707921 
L 463.078565 122.076691 
L 464.435816 273.88355 
L 465.793068 281.654887 
L 467.150319 267.229192 
L 468.507571 268.759668 
L 469.864822 260.211902 
L 471.222074 284.133627 
L 472.579325 185.696821 
L 473.936576 255.970218 
L 475.293828 278.908667 
L 476.651079 245.913223 
L 478.008331 264.61651 
L 479.365582 236.08729 
L 480.722834 267.585841 
L 482.080085 261.795345 
L 483.437337 222.645089 
L 484.794588 197.673488 
L 486.151839 268.219285 
L 487.509091 239.128238 
L 487.509091 239.128238 
" clip-path="url(#p33ac74b576)" style="fill: none; stroke: #2ca02c; stroke-width: 1.5; stroke-linecap: square"/>
   </g>
   <g id="patch_3">
    <path d="M 61.4 305.131875 
L 61.4 27.931875 
" style="fill: none; stroke: #000000; stroke-width: 0.8; stroke-linejoin: miter; stroke-linecap: square"/>
   </g>
   <g id="patch_4">
    <path d="M 507.8 305.131875 
L 507.8 27.931875 
" style="fill: none; stroke: #000000; stroke-width: 0.8; stroke-linejoin: miter; stroke-linecap: square"/>
   </g>
   <g id="patch_5">
    <path d="M 61.4 305.131875 
L 507.8 305.131875 
" style="fill: none; stroke: #000000; stroke-width: 0.8; stroke-linejoin: miter; stroke-linecap: square"/>
   </g>
   <g id="patch_6">
    <path d="M 61.4 27.931875 
L 507.8 27.931875 
" style="fill: none; stroke: #000000; stroke-width: 0.8; stroke-linejoin: miter; stroke-linecap: square"/>
   </g>
   <g id="text_13">
    <!-- Meta Test Average Return -->
    <g transform="translate(169.726813 21.931875)scale(0.216 -0.216)">
     <defs>
      <path id="STIXGeneral-Regular-4d" d="M 5530 0 
L 3738 0 
L 3738 122 
Q 4115 147 4214 265 
Q 4314 384 4314 787 
L 4314 3661 
L 2682 0 
L 2592 0 
L 979 3514 
L 979 966 
Q 979 448 1088 294 
Q 1197 141 1574 122 
L 1574 0 
L 77 0 
L 77 122 
Q 358 141 480 205 
Q 602 269 650 432 
Q 698 595 698 966 
L 698 3514 
Q 698 3878 589 3984 
Q 480 4090 90 4115 
L 90 4237 
L 1357 4237 
L 2835 1024 
L 4250 4237 
L 5523 4237 
L 5523 4115 
Q 5178 4109 5072 3993 
Q 4966 3878 4966 3520 
L 4966 717 
Q 4966 378 5072 262 
Q 5178 147 5530 122 
L 5530 0 
z
" transform="scale(0.015625)"/>
      <path id="STIXGeneral-Regular-54" d="M 3795 3149 
L 3642 3149 
Q 3539 3674 3353 3821 
Q 3168 3968 2656 3968 
L 2278 3968 
L 2278 710 
Q 2278 346 2387 243 
Q 2496 141 2893 122 
L 2893 0 
L 1024 0 
L 1024 122 
Q 1427 147 1526 256 
Q 1626 365 1626 787 
L 1626 3968 
L 1242 3968 
Q 723 3968 540 3817 
Q 358 3667 262 3149 
L 109 3149 
L 154 4237 
L 3750 4237 
L 3795 3149 
z
" transform="scale(0.015625)"/>
      <path id="STIXGeneral-Regular-73" d="M 998 1926 
L 1664 1523 
Q 1984 1331 2105 1164 
Q 2227 998 2227 736 
Q 2227 416 1961 176 
Q 1696 -64 1331 -64 
Q 1030 -64 864 -6 
Q 691 51 570 51 
Q 461 51 416 -26 
L 333 -26 
L 333 979 
L 435 979 
Q 538 512 730 294 
Q 922 77 1248 77 
Q 1485 77 1632 211 
Q 1779 346 1779 550 
Q 1779 845 1440 1030 
L 1094 1222 
Q 326 1651 326 2150 
Q 326 2522 566 2730 
Q 806 2938 1210 2938 
Q 1491 2938 1638 2867 
Q 1754 2816 1818 2816 
Q 1862 2816 1920 2880 
L 1990 2880 
L 2022 2010 
L 1926 2010 
Q 1818 2445 1654 2621 
Q 1491 2797 1203 2797 
Q 986 2797 854 2688 
Q 723 2579 723 2362 
Q 723 2253 796 2128 
Q 870 2003 998 1926 
z
" transform="scale(0.015625)"/>
     </defs>
     <use xlink:href="#STIXGeneral-Regular-4d"/>
     <use xlink:href="#STIXGeneral-Regular-65" x="88.899994"/>
     <use xlink:href="#STIXGeneral-Regular-74" x="133.299988"/>
     <use xlink:href="#STIXGeneral-Regular-61" x="161.099976"/>
     <use xlink:href="#STIXGeneral-Regular-20" x="205.499969"/>
     <use xlink:href="#STIXGeneral-Regular-54" x="230.499954"/>
     <use xlink:href="#STIXGeneral-Regular-65" x="291.599945"/>
     <use xlink:href="#STIXGeneral-Regular-73" x="335.999939"/>
     <use xlink:href="#STIXGeneral-Regular-74" x="374.899933"/>
     <use xlink:href="#STIXGeneral-Regular-20" x="402.699921"/>
     <use xlink:href="#STIXGeneral-Regular-41" x="427.699905"/>
     <use xlink:href="#STIXGeneral-Regular-76" x="499.899887"/>
     <use xlink:href="#STIXGeneral-Regular-65" x="549.899872"/>
     <use xlink:href="#STIXGeneral-Regular-72" x="594.299866"/>
     <use xlink:href="#STIXGeneral-Regular-61" x="627.599854"/>
     <use xlink:href="#STIXGeneral-Regular-67" x="671.999847"/>
     <use xlink:href="#STIXGeneral-Regular-65" x="721.999832"/>
     <use xlink:href="#STIXGeneral-Regular-20" x="766.399826"/>
     <use xlink:href="#STIXGeneral-Regular-52" x="791.399811"/>
     <use xlink:href="#STIXGeneral-Regular-65" x="858.099808"/>
     <use xlink:href="#STIXGeneral-Regular-74" x="902.499802"/>
     <use xlink:href="#STIXGeneral-Regular-75" x="930.299789"/>
     <use xlink:href="#STIXGeneral-Regular-72" x="980.299774"/>
     <use xlink:href="#STIXGeneral-Regular-6e" x="1013.599762"/>
    </g>
   </g>
   <g id="legend_1">
    <g id="patch_7">
     <path d="M 389.554687 98.647187 
L 498 98.647187 
Q 500.8 98.647187 500.8 95.847187 
L 500.8 37.731875 
Q 500.8 34.931875 498 34.931875 
L 389.554687 34.931875 
Q 386.754687 34.931875 386.754687 37.731875 
L 386.754687 95.847187 
Q 386.754687 98.647187 389.554687 98.647187 
z
" style="fill: #ffffff; opacity: 0.8; stroke: #cccccc; stroke-linejoin: miter"/>
    </g>
    <g id="line2d_24">
     <path d="M 392.354687 45.431875 
L 406.354687 45.431875 
L 420.354687 45.431875 
" style="fill: none; stroke: #1f77b4; stroke-width: 1.5; stroke-linecap: square"/>
    </g>
    <g id="text_14">
     <!-- disc=0.95 -->
     <g transform="translate(431.554687 50.331875)scale(0.14 -0.14)">
      <defs>
       <path id="STIXGeneral-Regular-64" d="M 3142 269 
L 2202 -64 
L 2176 -45 
L 2176 365 
Q 1869 -64 1357 -64 
Q 826 -64 499 317 
Q 173 698 173 1312 
Q 173 1990 563 2467 
Q 954 2944 1504 2944 
Q 1850 2944 2176 2669 
L 2176 3667 
Q 2176 3866 2118 3930 
Q 2061 3994 1882 3994 
Q 1792 3994 1741 3987 
L 1741 4090 
Q 2323 4243 2682 4371 
L 2714 4358 
L 2714 730 
Q 2714 506 2768 435 
Q 2822 365 2995 365 
Q 3034 365 3142 371 
L 3142 269 
z
M 2176 653 
L 2176 2125 
Q 2176 2381 1981 2573 
Q 1786 2765 1523 2765 
Q 1158 2765 940 2438 
Q 723 2112 723 1568 
Q 723 979 963 624 
Q 1203 269 1606 269 
Q 1907 269 2080 474 
Q 2176 582 2176 653 
z
" transform="scale(0.015625)"/>
       <path id="STIXGeneral-Regular-69" d="M 1152 4045 
Q 1152 3904 1056 3811 
Q 960 3718 819 3718 
Q 685 3718 592 3811 
Q 499 3904 499 4045 
Q 499 4179 595 4275 
Q 691 4371 826 4371 
Q 966 4371 1059 4275 
Q 1152 4179 1152 4045 
z
M 1619 0 
L 102 0 
L 102 96 
Q 435 115 521 211 
Q 608 307 608 666 
L 608 2118 
Q 608 2342 563 2432 
Q 518 2522 397 2522 
Q 243 2522 128 2490 
L 128 2592 
L 1120 2944 
L 1146 2918 
L 1146 672 
Q 1146 314 1226 218 
Q 1306 122 1619 96 
L 1619 0 
z
" transform="scale(0.015625)"/>
       <path id="STIXGeneral-Regular-3d" d="M 4077 2048 
L 307 2048 
L 307 2470 
L 4077 2470 
L 4077 2048 
z
M 4077 768 
L 307 768 
L 307 1190 
L 4077 1190 
L 4077 768 
z
" transform="scale(0.015625)"/>
       <path id="STIXGeneral-Regular-2e" d="M 1158 275 
Q 1158 134 1052 32 
Q 947 -70 800 -70 
Q 653 -70 550 32 
Q 448 134 448 281 
Q 448 429 553 534 
Q 659 640 806 640 
Q 947 640 1052 531 
Q 1158 422 1158 275 
z
" transform="scale(0.015625)"/>
       <path id="STIXGeneral-Regular-39" d="M 378 -141 
L 358 -13 
Q 1094 115 1603 608 
Q 2112 1101 2304 1882 
Q 1933 1517 1344 1517 
Q 826 1517 509 1875 
Q 192 2234 192 2816 
Q 192 3462 573 3894 
Q 954 4326 1523 4326 
Q 2131 4326 2528 3840 
Q 2938 3328 2938 2522 
Q 2938 1958 2742 1462 
Q 2547 966 2170 621 
Q 1773 262 1395 105 
Q 1018 -51 378 -141 
z
M 2317 2272 
L 2317 2522 
Q 2317 4147 1472 4147 
Q 1171 4147 1005 3930 
Q 909 3802 845 3546 
Q 781 3290 781 3034 
Q 781 2464 995 2128 
Q 1210 1792 1568 1792 
Q 1824 1792 2070 1917 
Q 2317 2042 2317 2272 
z
" transform="scale(0.015625)"/>
      </defs>
      <use xlink:href="#STIXGeneral-Regular-64"/>
      <use xlink:href="#STIXGeneral-Regular-69" x="49.999985"/>
      <use xlink:href="#STIXGeneral-Regular-73" x="77.799973"/>
      <use xlink:href="#STIXGeneral-Regular-63" x="116.699966"/>
      <use xlink:href="#STIXGeneral-Regular-3d" x="161.09996"/>
      <use xlink:href="#STIXGeneral-Regular-30" x="229.599945"/>
      <use xlink:href="#STIXGeneral-Regular-2e" x="279.59993"/>
      <use xlink:href="#STIXGeneral-Regular-39" x="304.599915"/>
      <use xlink:href="#STIXGeneral-Regular-35" x="354.599899"/>
     </g>
    </g>
    <g id="line2d_25">
     <path d="M 392.354687 65.270312 
L 406.354687 65.270312 
L 420.354687 65.270312 
" style="fill: none; stroke: #ff7f0e; stroke-width: 1.5; stroke-linecap: square"/>
    </g>
    <g id="text_15">
     <!-- disc=0.99 -->
     <g transform="translate(431.554687 70.170312)scale(0.14 -0.14)">
      <use xlink:href="#STIXGeneral-Regular-64"/>
      <use xlink:href="#STIXGeneral-Regular-69" x="49.999985"/>
      <use xlink:href="#STIXGeneral-Regular-73" x="77.799973"/>
      <use xlink:href="#STIXGeneral-Regular-63" x="116.699966"/>
      <use xlink:href="#STIXGeneral-Regular-3d" x="161.09996"/>
      <use xlink:href="#STIXGeneral-Regular-30" x="229.599945"/>
      <use xlink:href="#STIXGeneral-Regular-2e" x="279.59993"/>
      <use xlink:href="#STIXGeneral-Regular-39" x="304.599915"/>
      <use xlink:href="#STIXGeneral-Regular-39" x="354.599899"/>
     </g>
    </g>
    <g id="line2d_26">
     <path d="M 392.354687 85.10875 
L 406.354687 85.10875 
L 420.354687 85.10875 
" style="fill: none; stroke: #2ca02c; stroke-width: 1.5; stroke-linecap: square"/>
    </g>
    <g id="text_16">
     <!-- disc=0.999 -->
     <g transform="translate(431.554687 90.00875)scale(0.14 -0.14)">
      <use xlink:href="#STIXGeneral-Regular-64"/>
      <use xlink:href="#STIXGeneral-Regular-69" x="49.999985"/>
      <use xlink:href="#STIXGeneral-Regular-73" x="77.799973"/>
      <use xlink:href="#STIXGeneral-Regular-63" x="116.699966"/>
      <use xlink:href="#STIXGeneral-Regular-3d" x="161.09996"/>
      <use xlink:href="#STIXGeneral-Regular-30" x="229.599945"/>
      <use xlink:href="#STIXGeneral-Regular-2e" x="279.59993"/>
      <use xlink:href="#STIXGeneral-Regular-39" x="304.599915"/>
      <use xlink:href="#STIXGeneral-Regular-39" x="354.599899"/>
      <use xlink:href="#STIXGeneral-Regular-39" x="404.599884"/>
     </g>
    </g>
   </g>
  </g>
 </g>
 <defs>
  <clipPath id="p33ac74b576">
   <rect x="61.4" y="27.931875" width="446.4" height="277.2"/>
  </clipPath>
 </defs>
</svg>
