<?xml version="1.0" encoding="utf-8" standalone="no"?>
<!DOCTYPE svg PUBLIC "-//W3C//DTD SVG 1.1//EN"
  "http://www.w3.org/Graphics/SVG/1.1/DTD/svg11.dtd">
<svg xmlns:xlink="http://www.w3.org/1999/xlink" width="524pt" height="355.731875pt" viewBox="0 0 524 355.731875" xmlns="http://www.w3.org/2000/svg" version="1.1">
 <metadata>
  <rdf:RDF xmlns:dc="http://purl.org/dc/elements/1.1/" xmlns:cc="http://creativecommons.org/ns#" xmlns:rdf="http://www.w3.org/1999/02/22-rdf-syntax-ns#">
   <cc:Work>
    <dc:type rdf:resource="http://purl.org/dc/dcmitype/StillImage"/>
    <dc:date>2021-11-21T15:30:48.022291</dc:date>
    <dc:format>image/svg+xml</dc:format>
    <dc:creator>
     <cc:Agent>
      <dc:title>Matplotlib v3.5.0, https://matplotlib.org/</dc:title>
     </cc:Agent>
    </dc:creator>
   </cc:Work>
  </rdf:RDF>
 </metadata>
 <defs>
  <style type="text/css">*{stroke-linejoin: round; stroke-linecap: butt}</style>
 </defs>
 <g id="figure_1">
  <g id="patch_1">
   <path d="M 0 355.731875 
L 524 355.731875 
L 524 0 
L 0 0 
z
" style="fill: #ffffff"/>
  </g>
  <g id="axes_1">
   <g id="patch_2">
    <path d="M 70.4 305.131875 
L 516.8 305.131875 
L 516.8 27.931875 
L 70.4 27.931875 
z
" style="fill: #ffffff"/>
   </g>
   <g id="matplotlib.axis_1">
    <g id="xtick_1">
     <g id="line2d_1">
      <path d="M 90.690909 305.131875 
L 90.690909 27.931875 
" clip-path="url(#p204d978101)" style="fill: none; stroke: #b0b0b0; stroke-width: 0.8; stroke-linecap: square"/>
     </g>
     <g id="line2d_2">
      <defs>
       <path id="m40605e2c2f" d="M 0 0 
L 0 3.5 
" style="stroke: #000000; stroke-width: 0.8"/>
      </defs>
      <g>
       <use xlink:href="#m40605e2c2f" x="90.690909" y="305.131875" style="stroke: #000000; stroke-width: 0.8"/>
      </g>
     </g>
     <g id="text_1">
      <!-- 0 -->
      <g transform="translate(86.190909 324.425313)scale(0.18 -0.18)">
       <defs>
        <path id="STIXGeneral-Regular-30" d="M 3046 2112 
Q 3046 1683 2963 1302 
Q 2880 922 2717 602 
Q 2554 282 2266 96 
Q 1978 -90 1600 -90 
Q 1210 -90 915 108 
Q 621 307 461 640 
Q 301 973 227 1350 
Q 154 1728 154 2150 
Q 154 2746 301 3222 
Q 448 3699 790 4012 
Q 1133 4326 1626 4326 
Q 2253 4326 2649 3712 
Q 3046 3098 3046 2112 
z
M 2432 2080 
Q 2432 3091 2217 3625 
Q 2003 4160 1587 4160 
Q 1190 4160 979 3622 
Q 768 3085 768 2106 
Q 768 1120 979 598 
Q 1190 77 1600 77 
Q 2003 77 2217 598 
Q 2432 1120 2432 2080 
z
" transform="scale(0.015625)"/>
       </defs>
       <use xlink:href="#STIXGeneral-Regular-30"/>
      </g>
     </g>
    </g>
    <g id="xtick_2">
     <g id="line2d_3">
      <path d="M 158.553481 305.131875 
L 158.553481 27.931875 
" clip-path="url(#p204d978101)" style="fill: none; stroke: #b0b0b0; stroke-width: 0.8; stroke-linecap: square"/>
     </g>
     <g id="line2d_4">
      <g>
       <use xlink:href="#m40605e2c2f" x="158.553481" y="305.131875" style="stroke: #000000; stroke-width: 0.8"/>
      </g>
     </g>
     <g id="text_2">
      <!-- 50 -->
      <g transform="translate(149.553481 324.425313)scale(0.18 -0.18)">
       <defs>
        <path id="STIXGeneral-Regular-35" d="M 2803 4358 
L 2573 3814 
Q 2534 3731 2400 3731 
L 1158 3731 
L 902 3187 
Q 1606 3053 1920 2896 
Q 2234 2739 2502 2368 
Q 2726 2061 2726 1555 
Q 2726 1094 2576 780 
Q 2426 467 2099 224 
Q 1664 -90 1011 -90 
Q 646 -90 422 19 
Q 198 128 198 307 
Q 198 550 486 550 
Q 717 550 960 352 
Q 1210 147 1414 147 
Q 1747 147 2012 480 
Q 2278 813 2278 1229 
Q 2278 1843 1850 2189 
Q 1293 2637 486 2637 
Q 410 2637 410 2688 
L 416 2720 
L 1114 4237 
L 2438 4237 
Q 2547 4237 2608 4269 
Q 2669 4301 2746 4403 
L 2803 4358 
z
" transform="scale(0.015625)"/>
       </defs>
       <use xlink:href="#STIXGeneral-Regular-35"/>
       <use xlink:href="#STIXGeneral-Regular-30" x="49.999985"/>
      </g>
     </g>
    </g>
    <g id="xtick_3">
     <g id="line2d_5">
      <path d="M 226.416054 305.131875 
L 226.416054 27.931875 
" clip-path="url(#p204d978101)" style="fill: none; stroke: #b0b0b0; stroke-width: 0.8; stroke-linecap: square"/>
     </g>
     <g id="line2d_6">
      <g>
       <use xlink:href="#m40605e2c2f" x="226.416054" y="305.131875" style="stroke: #000000; stroke-width: 0.8"/>
      </g>
     </g>
     <g id="text_3">
      <!-- 100 -->
      <g transform="translate(212.916054 324.425313)scale(0.18 -0.18)">
       <defs>
        <path id="STIXGeneral-Regular-31" d="M 2522 0 
L 755 0 
L 755 96 
Q 1107 115 1235 227 
Q 1363 339 1363 608 
L 1363 3482 
Q 1363 3795 1171 3795 
Q 1082 3795 883 3718 
L 710 3654 
L 710 3744 
L 1856 4326 
L 1914 4307 
L 1914 486 
Q 1914 275 2042 185 
Q 2170 96 2522 96 
L 2522 0 
z
" transform="scale(0.015625)"/>
       </defs>
       <use xlink:href="#STIXGeneral-Regular-31"/>
       <use xlink:href="#STIXGeneral-Regular-30" x="49.999985"/>
       <use xlink:href="#STIXGeneral-Regular-30" x="99.999969"/>
      </g>
     </g>
    </g>
    <g id="xtick_4">
     <g id="line2d_7">
      <path d="M 294.278626 305.131875 
L 294.278626 27.931875 
" clip-path="url(#p204d978101)" style="fill: none; stroke: #b0b0b0; stroke-width: 0.8; stroke-linecap: square"/>
     </g>
     <g id="line2d_8">
      <g>
       <use xlink:href="#m40605e2c2f" x="294.278626" y="305.131875" style="stroke: #000000; stroke-width: 0.8"/>
      </g>
     </g>
     <g id="text_4">
      <!-- 150 -->
      <g transform="translate(280.778626 324.425313)scale(0.18 -0.18)">
       <use xlink:href="#STIXGeneral-Regular-31"/>
       <use xlink:href="#STIXGeneral-Regular-35" x="49.999985"/>
       <use xlink:href="#STIXGeneral-Regular-30" x="99.999969"/>
      </g>
     </g>
    </g>
    <g id="xtick_5">
     <g id="line2d_9">
      <path d="M 362.141198 305.131875 
L 362.141198 27.931875 
" clip-path="url(#p204d978101)" style="fill: none; stroke: #b0b0b0; stroke-width: 0.8; stroke-linecap: square"/>
     </g>
     <g id="line2d_10">
      <g>
       <use xlink:href="#m40605e2c2f" x="362.141198" y="305.131875" style="stroke: #000000; stroke-width: 0.8"/>
      </g>
     </g>
     <g id="text_5">
      <!-- 200 -->
      <g transform="translate(348.641198 324.425313)scale(0.18 -0.18)">
       <defs>
        <path id="STIXGeneral-Regular-32" d="M 3034 877 
L 2688 0 
L 186 0 
L 186 77 
L 1325 1286 
Q 1773 1754 1965 2144 
Q 2157 2534 2157 2950 
Q 2157 3379 1920 3616 
Q 1683 3853 1267 3853 
Q 922 3853 720 3673 
Q 518 3494 326 3021 
L 192 3053 
Q 301 3648 630 3987 
Q 960 4326 1523 4326 
Q 2054 4326 2380 4006 
Q 2707 3686 2707 3200 
Q 2707 2477 1888 1613 
L 832 486 
L 2330 486 
Q 2541 486 2665 569 
Q 2790 653 2944 915 
L 3034 877 
z
" transform="scale(0.015625)"/>
       </defs>
       <use xlink:href="#STIXGeneral-Regular-32"/>
       <use xlink:href="#STIXGeneral-Regular-30" x="49.999985"/>
       <use xlink:href="#STIXGeneral-Regular-30" x="99.999969"/>
      </g>
     </g>
    </g>
    <g id="xtick_6">
     <g id="line2d_11">
      <path d="M 430.00377 305.131875 
L 430.00377 27.931875 
" clip-path="url(#p204d978101)" style="fill: none; stroke: #b0b0b0; stroke-width: 0.8; stroke-linecap: square"/>
     </g>
     <g id="line2d_12">
      <g>
       <use xlink:href="#m40605e2c2f" x="430.00377" y="305.131875" style="stroke: #000000; stroke-width: 0.8"/>
      </g>
     </g>
     <g id="text_6">
      <!-- 250 -->
      <g transform="translate(416.50377 324.425313)scale(0.18 -0.18)">
       <use xlink:href="#STIXGeneral-Regular-32"/>
       <use xlink:href="#STIXGeneral-Regular-35" x="49.999985"/>
       <use xlink:href="#STIXGeneral-Regular-30" x="99.999969"/>
      </g>
     </g>
    </g>
    <g id="xtick_7">
     <g id="line2d_13">
      <path d="M 497.866342 305.131875 
L 497.866342 27.931875 
" clip-path="url(#p204d978101)" style="fill: none; stroke: #b0b0b0; stroke-width: 0.8; stroke-linecap: square"/>
     </g>
     <g id="line2d_14">
      <g>
       <use xlink:href="#m40605e2c2f" x="497.866342" y="305.131875" style="stroke: #000000; stroke-width: 0.8"/>
      </g>
     </g>
     <g id="text_7">
      <!-- 300 -->
      <g transform="translate(484.366342 324.425313)scale(0.18 -0.18)">
       <defs>
        <path id="STIXGeneral-Regular-33" d="M 390 3264 
L 288 3290 
Q 435 3770 748 4048 
Q 1062 4326 1542 4326 
Q 1990 4326 2265 4083 
Q 2541 3840 2541 3450 
Q 2541 2925 1946 2566 
Q 2298 2413 2477 2227 
Q 2758 1914 2758 1402 
Q 2758 890 2464 506 
Q 2246 211 1840 60 
Q 1434 -90 979 -90 
Q 262 -90 262 275 
Q 262 378 339 442 
Q 416 506 525 506 
Q 685 506 915 339 
Q 1197 141 1466 141 
Q 1818 141 2058 425 
Q 2298 710 2298 1120 
Q 2298 1856 1632 2048 
Q 1434 2112 979 2112 
L 979 2202 
Q 1338 2323 1517 2432 
Q 2035 2726 2035 3290 
Q 2035 3610 1852 3776 
Q 1670 3942 1344 3942 
Q 768 3942 390 3264 
z
" transform="scale(0.015625)"/>
       </defs>
       <use xlink:href="#STIXGeneral-Regular-33"/>
       <use xlink:href="#STIXGeneral-Regular-30" x="49.999985"/>
       <use xlink:href="#STIXGeneral-Regular-30" x="99.999969"/>
      </g>
     </g>
    </g>
    <g id="text_8">
     <!-- Epoch -->
     <g transform="translate(270.605 344.625313)scale(0.18 -0.18)">
      <defs>
       <path id="STIXGeneral-Regular-45" d="M 3821 1082 
L 3526 0 
L 77 0 
L 77 122 
Q 442 147 538 252 
Q 634 358 634 730 
L 634 3520 
Q 634 3878 534 3987 
Q 435 4096 77 4115 
L 77 4237 
L 3469 4237 
L 3494 3322 
L 3334 3322 
Q 3264 3750 3085 3872 
Q 2906 3994 2349 3994 
L 1510 3994 
Q 1370 3994 1328 3952 
Q 1286 3910 1286 3763 
L 1286 2355 
L 2253 2355 
Q 2656 2355 2787 2470 
Q 2918 2586 2976 2970 
L 3123 2970 
L 3123 1472 
L 2976 1472 
Q 2918 1875 2790 1984 
Q 2662 2093 2253 2093 
L 1286 2093 
L 1286 538 
Q 1286 346 1420 291 
Q 1555 237 1933 237 
L 2163 237 
Q 2848 237 3136 403 
Q 3424 570 3642 1082 
L 3821 1082 
z
" transform="scale(0.015625)"/>
       <path id="STIXGeneral-Regular-70" d="M 1018 2931 
L 1018 2438 
Q 1421 2944 1939 2944 
Q 2406 2944 2707 2560 
Q 3008 2176 3008 1581 
Q 3008 883 2621 409 
Q 2234 -64 1664 -64 
Q 1466 -64 1328 -6 
Q 1190 51 1018 211 
L 1018 -794 
Q 1018 -1094 1120 -1180 
Q 1222 -1267 1581 -1274 
L 1581 -1389 
L 32 -1389 
L 32 -1280 
Q 314 -1254 397 -1171 
Q 480 -1088 480 -838 
L 480 2157 
Q 480 2381 429 2451 
Q 378 2522 218 2522 
Q 115 2522 58 2515 
L 58 2618 
Q 506 2752 979 2944 
L 1018 2931 
z
M 1018 2138 
L 1018 563 
Q 1018 422 1238 281 
Q 1459 141 1683 141 
Q 2029 141 2243 467 
Q 2458 794 2458 1325 
Q 2458 1888 2243 2224 
Q 2029 2560 1670 2560 
Q 1446 2560 1232 2419 
Q 1018 2278 1018 2138 
z
" transform="scale(0.015625)"/>
       <path id="STIXGeneral-Regular-6f" d="M 3008 1478 
Q 3008 806 2608 371 
Q 2208 -64 1568 -64 
Q 979 -64 582 368 
Q 186 800 186 1459 
Q 186 2125 582 2534 
Q 979 2944 1626 2944 
Q 2221 2944 2614 2537 
Q 3008 2131 3008 1478 
z
M 2432 1306 
Q 2432 2035 2112 2445 
Q 1856 2765 1504 2765 
Q 1171 2765 966 2493 
Q 762 2221 762 1747 
Q 762 928 1101 435 
Q 1318 115 1677 115 
Q 2029 115 2230 432 
Q 2432 749 2432 1306 
z
" transform="scale(0.015625)"/>
       <path id="STIXGeneral-Regular-63" d="M 2547 998 
L 2637 941 
Q 2362 403 2112 205 
Q 1786 -64 1376 -64 
Q 845 -64 502 336 
Q 160 736 160 1357 
Q 160 2170 698 2618 
Q 1094 2944 1562 2944 
Q 1965 2944 2256 2749 
Q 2547 2554 2547 2285 
Q 2547 2176 2457 2096 
Q 2368 2016 2246 2016 
Q 2022 2016 1939 2310 
L 1901 2451 
Q 1850 2630 1773 2694 
Q 1696 2758 1523 2758 
Q 1133 2758 893 2451 
Q 653 2144 653 1645 
Q 653 1094 928 745 
Q 1203 397 1645 397 
Q 1920 397 2118 528 
Q 2317 659 2547 998 
z
" transform="scale(0.015625)"/>
       <path id="STIXGeneral-Regular-68" d="M 3117 0 
L 1760 0 
L 1760 96 
Q 2042 128 2118 224 
Q 2195 320 2195 653 
L 2195 1920 
Q 2195 2598 1722 2598 
Q 1530 2598 1370 2508 
Q 1210 2419 1005 2195 
L 1005 653 
Q 1005 320 1081 224 
Q 1158 128 1440 96 
L 1440 0 
L 58 0 
L 58 96 
Q 333 134 400 224 
Q 467 314 467 653 
L 467 3667 
Q 467 3872 406 3933 
Q 346 3994 141 3994 
Q 83 3994 64 3987 
L 64 4090 
L 237 4141 
Q 730 4288 973 4371 
L 1005 4352 
L 1005 2406 
Q 1229 2694 1446 2819 
Q 1664 2944 1946 2944 
Q 2733 2944 2733 1926 
L 2733 653 
Q 2733 320 2793 233 
Q 2854 147 3117 96 
L 3117 0 
z
" transform="scale(0.015625)"/>
      </defs>
      <use xlink:href="#STIXGeneral-Regular-45"/>
      <use xlink:href="#STIXGeneral-Regular-70" x="61.099991"/>
      <use xlink:href="#STIXGeneral-Regular-6f" x="111.099976"/>
      <use xlink:href="#STIXGeneral-Regular-63" x="161.09996"/>
      <use xlink:href="#STIXGeneral-Regular-68" x="205.499954"/>
     </g>
    </g>
   </g>
   <g id="matplotlib.axis_2">
    <g id="ytick_1">
     <g id="line2d_15">
      <path d="M 70.4 292.723372 
L 516.8 292.723372 
" clip-path="url(#p204d978101)" style="fill: none; stroke: #b0b0b0; stroke-width: 0.8; stroke-linecap: square"/>
     </g>
     <g id="line2d_16">
      <defs>
       <path id="mb85bd69f6c" d="M 0 0 
L -3.5 0 
" style="stroke: #000000; stroke-width: 0.8"/>
      </defs>
      <g>
       <use xlink:href="#mb85bd69f6c" x="70.4" y="292.723372" style="stroke: #000000; stroke-width: 0.8"/>
      </g>
     </g>
     <g id="text_9">
      <!-- 0 -->
      <g transform="translate(54.4 298.87009)scale(0.18 -0.18)">
       <use xlink:href="#STIXGeneral-Regular-30"/>
      </g>
     </g>
    </g>
    <g id="ytick_2">
     <g id="line2d_17">
      <path d="M 70.4 231.853089 
L 516.8 231.853089 
" clip-path="url(#p204d978101)" style="fill: none; stroke: #b0b0b0; stroke-width: 0.8; stroke-linecap: square"/>
     </g>
     <g id="line2d_18">
      <g>
       <use xlink:href="#mb85bd69f6c" x="70.4" y="231.853089" style="stroke: #000000; stroke-width: 0.8"/>
      </g>
     </g>
     <g id="text_10">
      <!-- 1000 -->
      <g transform="translate(27.4 237.999807)scale(0.18 -0.18)">
       <use xlink:href="#STIXGeneral-Regular-31"/>
       <use xlink:href="#STIXGeneral-Regular-30" x="49.999985"/>
       <use xlink:href="#STIXGeneral-Regular-30" x="99.999969"/>
       <use xlink:href="#STIXGeneral-Regular-30" x="149.999954"/>
      </g>
     </g>
    </g>
    <g id="ytick_3">
     <g id="line2d_19">
      <path d="M 70.4 170.982806 
L 516.8 170.982806 
" clip-path="url(#p204d978101)" style="fill: none; stroke: #b0b0b0; stroke-width: 0.8; stroke-linecap: square"/>
     </g>
     <g id="line2d_20">
      <g>
       <use xlink:href="#mb85bd69f6c" x="70.4" y="170.982806" style="stroke: #000000; stroke-width: 0.8"/>
      </g>
     </g>
     <g id="text_11">
      <!-- 2000 -->
      <g transform="translate(27.4 177.129525)scale(0.18 -0.18)">
       <use xlink:href="#STIXGeneral-Regular-32"/>
       <use xlink:href="#STIXGeneral-Regular-30" x="49.999985"/>
       <use xlink:href="#STIXGeneral-Regular-30" x="99.999969"/>
       <use xlink:href="#STIXGeneral-Regular-30" x="149.999954"/>
      </g>
     </g>
    </g>
    <g id="ytick_4">
     <g id="line2d_21">
      <path d="M 70.4 110.112523 
L 516.8 110.112523 
" clip-path="url(#p204d978101)" style="fill: none; stroke: #b0b0b0; stroke-width: 0.8; stroke-linecap: square"/>
     </g>
     <g id="line2d_22">
      <g>
       <use xlink:href="#mb85bd69f6c" x="70.4" y="110.112523" style="stroke: #000000; stroke-width: 0.8"/>
      </g>
     </g>
     <g id="text_12">
      <!-- 3000 -->
      <g transform="translate(27.4 116.259242)scale(0.18 -0.18)">
       <use xlink:href="#STIXGeneral-Regular-33"/>
       <use xlink:href="#STIXGeneral-Regular-30" x="49.999985"/>
       <use xlink:href="#STIXGeneral-Regular-30" x="99.999969"/>
       <use xlink:href="#STIXGeneral-Regular-30" x="149.999954"/>
      </g>
     </g>
    </g>
    <g id="ytick_5">
     <g id="line2d_23">
      <path d="M 70.4 49.24224 
L 516.8 49.24224 
" clip-path="url(#p204d978101)" style="fill: none; stroke: #b0b0b0; stroke-width: 0.8; stroke-linecap: square"/>
     </g>
     <g id="line2d_24">
      <g>
       <use xlink:href="#mb85bd69f6c" x="70.4" y="49.24224" style="stroke: #000000; stroke-width: 0.8"/>
      </g>
     </g>
     <g id="text_13">
      <!-- 4000 -->
      <g transform="translate(27.4 55.388959)scale(0.18 -0.18)">
       <defs>
        <path id="STIXGeneral-Regular-34" d="M 3027 1069 
L 2368 1069 
L 2368 0 
L 1869 0 
L 1869 1069 
L 77 1069 
L 77 1478 
L 2086 4326 
L 2368 4326 
L 2368 1478 
L 3027 1478 
L 3027 1069 
z
M 1869 1478 
L 1869 3674 
L 333 1478 
L 1869 1478 
z
" transform="scale(0.015625)"/>
       </defs>
       <use xlink:href="#STIXGeneral-Regular-34"/>
       <use xlink:href="#STIXGeneral-Regular-30" x="49.999985"/>
       <use xlink:href="#STIXGeneral-Regular-30" x="99.999969"/>
       <use xlink:href="#STIXGeneral-Regular-30" x="149.999954"/>
      </g>
     </g>
    </g>
    <g id="text_14">
     <!-- Average Return -->
     <g transform="translate(19.476562 223.764844)rotate(-90)scale(0.18 -0.18)">
      <defs>
       <path id="STIXGeneral-Regular-41" d="M 4525 0 
L 2893 0 
L 2893 122 
Q 3149 122 3245 179 
Q 3334 224 3334 333 
Q 3334 499 3213 781 
L 2950 1382 
L 1274 1382 
L 979 653 
Q 922 506 922 384 
Q 922 237 1027 179 
Q 1133 122 1370 122 
L 1370 0 
L 96 0 
L 96 122 
Q 365 147 486 316 
Q 608 486 902 1190 
L 2221 4314 
L 2349 4314 
L 3923 710 
Q 4064 378 4176 262 
Q 4288 147 4525 122 
L 4525 0 
z
M 2861 1645 
L 2118 3405 
L 1382 1645 
L 2861 1645 
z
" transform="scale(0.015625)"/>
       <path id="STIXGeneral-Regular-76" d="M 3053 2880 
L 3053 2784 
Q 2906 2771 2835 2688 
Q 2765 2605 2637 2285 
L 1818 230 
Q 1690 -90 1638 -90 
Q 1587 -90 1523 77 
Q 1510 96 1497 141 
Q 1485 186 1472 211 
L 704 2048 
Q 499 2534 403 2652 
Q 307 2771 122 2784 
L 122 2880 
L 1376 2880 
L 1376 2784 
Q 1210 2771 1146 2732 
Q 1082 2694 1082 2611 
Q 1082 2509 1139 2368 
L 1792 730 
L 2426 2387 
Q 2464 2483 2464 2579 
Q 2464 2758 2163 2784 
L 2163 2880 
L 3053 2880 
z
" transform="scale(0.015625)"/>
       <path id="STIXGeneral-Regular-65" d="M 2611 1050 
L 2714 1005 
Q 2330 -64 1376 -64 
Q 813 -64 486 329 
Q 160 723 160 1389 
Q 160 2074 525 2509 
Q 890 2944 1485 2944 
Q 2061 2944 2374 2502 
Q 2560 2246 2592 1773 
L 621 1773 
Q 646 1370 700 1158 
Q 755 947 915 730 
Q 1184 378 1626 378 
Q 1939 378 2153 531 
Q 2368 685 2611 1050 
z
M 634 1978 
L 1939 1978 
Q 1882 2381 1750 2547 
Q 1619 2714 1312 2714 
Q 1043 2714 864 2525 
Q 685 2336 634 1978 
z
" transform="scale(0.015625)"/>
       <path id="STIXGeneral-Regular-72" d="M 1024 2931 
L 1024 2342 
Q 1267 2688 1430 2816 
Q 1594 2944 1792 2944 
Q 1958 2944 2051 2854 
Q 2144 2765 2144 2605 
Q 2144 2470 2077 2393 
Q 2010 2317 1894 2317 
Q 1773 2317 1638 2445 
Q 1536 2541 1472 2541 
Q 1338 2541 1181 2355 
Q 1024 2170 1024 2016 
L 1024 576 
Q 1024 301 1133 205 
Q 1242 109 1568 96 
L 1568 0 
L 32 0 
L 32 96 
Q 339 154 412 224 
Q 486 294 486 538 
L 486 2138 
Q 486 2349 438 2435 
Q 390 2522 269 2522 
Q 166 2522 45 2496 
L 45 2598 
Q 448 2726 992 2944 
L 1024 2931 
z
" transform="scale(0.015625)"/>
       <path id="STIXGeneral-Regular-61" d="M 2829 422 
L 2829 243 
Q 2586 -64 2253 -64 
Q 1888 -64 1843 403 
L 1837 403 
Q 1427 -64 909 -64 
Q 608 -64 422 112 
Q 237 288 237 602 
Q 237 1050 685 1350 
Q 992 1555 1837 1869 
L 1837 2214 
Q 1837 2502 1699 2646 
Q 1562 2790 1338 2790 
Q 1146 2790 1018 2697 
Q 890 2605 890 2477 
Q 890 2419 909 2348 
Q 928 2278 928 2208 
Q 928 2112 841 2029 
Q 755 1946 634 1946 
Q 525 1946 441 2029 
Q 358 2112 358 2240 
Q 358 2547 685 2752 
Q 986 2944 1421 2944 
Q 1939 2944 2176 2656 
Q 2291 2522 2323 2384 
Q 2355 2246 2355 1946 
L 2355 723 
Q 2355 301 2554 301 
Q 2682 301 2829 422 
z
M 1837 813 
L 1837 1715 
Q 1248 1510 1018 1293 
Q 800 1094 800 800 
Q 800 557 921 432 
Q 1043 307 1242 307 
Q 1453 307 1613 410 
Q 1747 506 1792 589 
Q 1837 672 1837 813 
z
" transform="scale(0.015625)"/>
       <path id="STIXGeneral-Regular-67" d="M 3008 2483 
L 2477 2483 
Q 2598 2208 2598 1946 
Q 2598 1453 2265 1203 
Q 1933 954 1600 954 
Q 1530 954 1357 973 
L 1235 986 
Q 1107 947 979 812 
Q 851 678 851 582 
Q 851 435 1350 410 
L 2176 371 
Q 2528 358 2739 172 
Q 2950 -13 2950 -314 
Q 2950 -685 2566 -986 
Q 2035 -1395 1286 -1395 
Q 826 -1395 502 -1212 
Q 179 -1030 179 -774 
Q 179 -595 320 -419 
Q 461 -243 806 6 
Q 602 102 534 172 
Q 467 243 467 346 
Q 467 531 762 787 
Q 909 915 1037 1043 
Q 717 1203 579 1401 
Q 442 1600 442 1901 
Q 442 2336 752 2640 
Q 1062 2944 1510 2944 
Q 1766 2944 2022 2848 
L 2163 2797 
Q 2349 2733 2515 2733 
L 3008 2733 
L 3008 2483 
z
M 973 2163 
L 973 2144 
Q 973 1683 1155 1398 
Q 1338 1114 1632 1114 
Q 1850 1114 1978 1270 
Q 2106 1427 2106 1690 
Q 2106 2112 1914 2464 
Q 1754 2765 1446 2765 
Q 1222 2765 1097 2605 
Q 973 2445 973 2163 
z
M 2771 -410 
Q 2771 -230 2595 -163 
Q 2419 -96 1978 -96 
Q 1344 -96 941 -13 
Q 749 -243 688 -348 
Q 627 -454 627 -563 
Q 627 -774 880 -902 
Q 1133 -1030 1555 -1030 
Q 2099 -1030 2435 -860 
Q 2771 -691 2771 -410 
z
" transform="scale(0.015625)"/>
       <path id="STIXGeneral-Regular-20" transform="scale(0.015625)"/>
       <path id="STIXGeneral-Regular-52" d="M 4224 0 
L 3187 0 
L 1664 1971 
L 1306 1958 
L 1306 717 
Q 1306 352 1405 249 
Q 1504 147 1875 122 
L 1875 0 
L 109 0 
L 109 122 
Q 474 154 563 262 
Q 653 371 653 794 
L 653 3526 
Q 653 3885 563 3987 
Q 474 4090 109 4115 
L 109 4237 
L 1850 4237 
Q 2726 4237 3187 3859 
Q 3501 3603 3501 3091 
Q 3501 2221 2342 2042 
L 3622 422 
Q 3757 256 3878 198 
Q 4000 141 4224 122 
L 4224 0 
z
M 1306 3731 
L 1306 2195 
Q 1766 2202 1990 2246 
Q 2214 2291 2438 2413 
Q 2803 2618 2803 3142 
Q 2803 4000 1632 4000 
Q 1459 4000 1382 3945 
Q 1306 3891 1306 3731 
z
" transform="scale(0.015625)"/>
       <path id="STIXGeneral-Regular-74" d="M 1702 493 
L 1786 422 
Q 1478 -64 1011 -64 
Q 448 -64 448 749 
L 448 2675 
L 109 2675 
Q 83 2694 83 2720 
Q 83 2771 192 2842 
Q 435 2982 813 3526 
Q 826 3546 874 3606 
Q 922 3667 941 3706 
Q 986 3706 986 3622 
L 986 2880 
L 1632 2880 
L 1632 2675 
L 986 2675 
L 986 845 
Q 986 538 1062 403 
Q 1139 269 1318 269 
Q 1510 269 1702 493 
z
" transform="scale(0.015625)"/>
       <path id="STIXGeneral-Regular-75" d="M 3072 320 
L 3072 230 
Q 2573 96 2195 -58 
L 2163 -38 
L 2163 486 
L 2150 486 
Q 1747 -64 1235 -64 
Q 870 -64 662 160 
Q 454 384 454 755 
L 454 2362 
Q 454 2598 371 2688 
Q 288 2778 58 2790 
L 58 2880 
L 992 2880 
L 992 813 
Q 992 595 1123 451 
Q 1254 307 1446 307 
Q 1760 307 1984 506 
Q 2067 582 2099 649 
Q 2131 717 2131 877 
L 2131 2355 
Q 2131 2605 2041 2678 
Q 1952 2752 1658 2771 
L 1658 2880 
L 2669 2880 
L 2669 685 
Q 2669 461 2742 390 
Q 2816 320 3034 320 
L 3072 320 
z
" transform="scale(0.015625)"/>
       <path id="STIXGeneral-Regular-6e" d="M 3104 0 
L 1773 0 
L 1779 96 
Q 2016 115 2096 233 
Q 2176 352 2176 672 
L 2176 1946 
Q 2176 2592 1709 2592 
Q 1549 2592 1408 2515 
Q 1267 2438 1050 2227 
L 1050 461 
Q 1050 269 1136 192 
Q 1222 115 1466 96 
L 1466 0 
L 115 0 
L 115 96 
Q 358 115 435 214 
Q 512 314 512 602 
L 512 2157 
Q 512 2394 467 2483 
Q 422 2573 288 2573 
Q 160 2573 102 2547 
L 102 2656 
Q 550 2784 979 2944 
L 1030 2925 
L 1030 2426 
L 1037 2426 
Q 1491 2944 1958 2944 
Q 2323 2944 2518 2688 
Q 2714 2432 2714 1958 
L 2714 544 
Q 2714 288 2790 205 
Q 2867 122 3104 96 
L 3104 0 
z
" transform="scale(0.015625)"/>
      </defs>
      <use xlink:href="#STIXGeneral-Regular-41"/>
      <use xlink:href="#STIXGeneral-Regular-76" x="72.199982"/>
      <use xlink:href="#STIXGeneral-Regular-65" x="122.199966"/>
      <use xlink:href="#STIXGeneral-Regular-72" x="166.59996"/>
      <use xlink:href="#STIXGeneral-Regular-61" x="199.899948"/>
      <use xlink:href="#STIXGeneral-Regular-67" x="244.299942"/>
      <use xlink:href="#STIXGeneral-Regular-65" x="294.299927"/>
      <use xlink:href="#STIXGeneral-Regular-20" x="338.699921"/>
      <use xlink:href="#STIXGeneral-Regular-52" x="363.699905"/>
      <use xlink:href="#STIXGeneral-Regular-65" x="430.399902"/>
      <use xlink:href="#STIXGeneral-Regular-74" x="474.799896"/>
      <use xlink:href="#STIXGeneral-Regular-75" x="502.599884"/>
      <use xlink:href="#STIXGeneral-Regular-72" x="552.599869"/>
      <use xlink:href="#STIXGeneral-Regular-6e" x="585.899857"/>
     </g>
    </g>
   </g>
   <g id="line2d_25">
    <path d="M 90.690909 292.270826 
L 92.048161 292.502333 
L 93.405412 291.442088 
L 94.762663 291.938564 
L 96.119915 292.06865 
L 98.834418 291.599473 
L 100.191669 291.070473 
L 101.548921 292.089562 
L 102.906172 291.973689 
L 104.263424 291.52042 
L 105.620675 290.793633 
L 106.977926 291.005857 
L 108.335178 290.980539 
L 109.692429 292.279501 
L 111.049681 291.45538 
L 112.406932 291.061478 
L 113.764184 290.818011 
L 115.121435 291.131996 
L 116.478687 291.76828 
L 117.835938 291.720772 
L 119.193189 291.099657 
L 120.550441 292.04071 
L 121.907692 291.302172 
L 123.264944 291.144636 
L 124.622195 291.470806 
L 127.336698 286.241888 
L 128.69395 291.104279 
L 130.051201 290.549521 
L 131.408452 290.55515 
L 132.765704 291.482791 
L 134.122955 290.301373 
L 135.480207 290.176501 
L 136.837458 290.506933 
L 138.19471 291.82538 
L 140.909213 289.752771 
L 142.266464 290.967454 
L 143.623715 286.589904 
L 144.980967 289.572422 
L 146.338218 290.208225 
L 147.69547 292.436365 
L 149.052721 287.049477 
L 150.409973 289.914786 
L 151.767224 289.605965 
L 153.124476 291.076205 
L 154.481727 289.184061 
L 155.838978 291.558822 
L 157.19623 291.368748 
L 158.553481 290.213105 
L 159.910733 290.205462 
L 161.267984 289.385447 
L 162.625236 291.789905 
L 163.982487 291.298777 
L 165.339739 282.3092 
L 166.69699 291.836256 
L 168.054241 290.706873 
L 169.411493 289.865903 
L 170.768744 289.491815 
L 172.125996 291.487214 
L 173.483247 291.476335 
L 174.840499 289.636065 
L 176.19775 290.657614 
L 177.555002 289.270167 
L 178.912253 291.343955 
L 180.269504 291.268824 
L 181.626756 287.988862 
L 182.984007 291.298717 
L 184.341259 289.197059 
L 185.69851 252.162274 
L 187.055762 290.155759 
L 188.413013 236.340998 
L 189.770265 290.448548 
L 191.127516 289.435688 
L 192.484767 291.139457 
L 193.842019 291.113059 
L 195.19927 287.740028 
L 196.556522 287.686408 
L 197.913773 286.607279 
L 199.271025 283.362055 
L 200.628276 289.439804 
L 201.985528 291.765954 
L 203.342779 290.791442 
L 204.70003 291.655754 
L 206.057282 290.300249 
L 207.414533 278.795238 
L 208.771785 291.140967 
L 210.129036 290.11152 
L 211.486288 291.009353 
L 212.843539 243.567345 
L 214.200791 290.022861 
L 215.558042 290.578856 
L 216.915293 291.381527 
L 218.272545 290.359235 
L 219.629796 289.988277 
L 220.987048 261.171771 
L 222.344299 291.096971 
L 223.701551 291.155941 
L 225.058802 290.911233 
L 226.416054 292.065519 
L 227.773305 291.690238 
L 229.130556 246.961996 
L 230.487808 290.386959 
L 231.845059 290.561548 
L 233.202311 291.474736 
L 234.559562 291.23948 
L 235.916814 291.369252 
L 237.274065 234.143415 
L 238.631317 290.007809 
L 239.988568 290.591757 
L 241.345819 291.958381 
L 242.703071 291.71058 
L 244.060322 291.929916 
L 245.417574 291.897923 
L 246.774825 291.707945 
L 248.132077 291.776205 
L 249.489328 288.972755 
L 250.84658 290.828161 
L 252.203831 291.424209 
L 253.561082 290.773301 
L 254.918334 233.187145 
L 256.275585 291.356741 
L 257.632837 267.259839 
L 258.990088 291.744089 
L 260.34734 291.292802 
L 261.704591 291.291582 
L 263.061843 256.727962 
L 264.419094 232.027292 
L 265.776345 277.010084 
L 267.133597 286.109075 
L 268.490848 289.494482 
L 269.8481 292.095167 
L 271.205351 258.187633 
L 272.562603 283.336169 
L 273.919854 248.950758 
L 275.277106 291.658823 
L 276.634357 291.501306 
L 277.991608 254.80165 
L 279.34886 256.268343 
L 280.706111 288.675163 
L 282.063363 290.904332 
L 283.420614 290.07055 
L 284.777866 291.844379 
L 286.135117 291.379008 
L 287.492369 251.049902 
L 288.84962 290.642637 
L 290.206871 286.949187 
L 291.564123 291.719412 
L 292.921374 290.941446 
L 294.278626 291.346695 
L 295.635877 236.679778 
L 296.993129 289.882446 
L 298.35038 291.230734 
L 299.707631 290.981317 
L 301.064883 257.962729 
L 302.422134 242.931309 
L 303.779386 290.906964 
L 305.136637 290.903332 
L 306.493889 291.731934 
L 307.85114 275.957318 
L 309.208392 291.793198 
L 310.565643 291.883202 
L 311.922894 283.132357 
L 313.280146 291.551404 
L 314.637397 290.271946 
L 315.994649 291.365665 
L 317.3519 145.758835 
L 318.709152 290.101863 
L 320.066403 251.373966 
L 321.423655 291.984586 
L 322.780906 267.3923 
L 324.138157 291.74879 
L 325.495409 291.935917 
L 326.85266 268.423168 
L 328.209912 291.749235 
L 329.567163 253.059401 
L 330.924415 291.676916 
L 332.281666 273.674475 
L 333.638918 262.281336 
L 334.996169 288.291082 
L 337.710672 245.892111 
L 339.067923 251.091397 
L 340.425175 238.087188 
L 341.782426 257.942005 
L 343.139678 219.445694 
L 344.496929 291.716307 
L 345.854181 291.819719 
L 347.211432 259.363711 
L 348.568683 290.138591 
L 349.925935 227.947924 
L 351.283186 291.225446 
L 352.640438 233.931547 
L 353.997689 256.637291 
L 355.354941 224.89938 
L 356.712192 291.766796 
L 358.069444 220.740495 
L 359.426695 223.426166 
L 360.783946 244.58859 
L 362.141198 224.4629 
L 363.498449 283.104671 
L 364.855701 267.682248 
L 366.212952 291.439755 
L 367.570204 290.789844 
L 368.927455 251.120651 
L 370.284707 290.289619 
L 371.641958 240.65279 
L 372.999209 291.398912 
L 374.356461 291.5401 
L 375.713712 291.492749 
L 377.070964 290.969977 
L 378.428215 285.984474 
L 379.785467 202.799246 
L 381.142718 291.290552 
L 382.49997 239.592806 
L 383.857221 290.86042 
L 385.214472 267.303428 
L 386.571724 263.078312 
L 387.928975 196.781113 
L 389.286227 291.446039 
L 390.643478 291.395781 
L 392.00073 291.719989 
L 393.357981 288.417941 
L 394.715233 291.897028 
L 396.072484 261.753148 
L 397.429735 291.430305 
L 398.786987 291.768876 
L 400.144238 273.628077 
L 401.50149 264.219143 
L 402.858741 263.543752 
L 404.215993 227.706969 
L 405.573244 291.911231 
L 406.930496 282.327011 
L 408.287747 291.56768 
L 409.644998 269.815505 
L 411.00225 291.56886 
L 412.359501 291.221835 
L 413.716753 222.151709 
L 415.074004 271.732574 
L 416.431256 291.524716 
L 417.788507 236.748049 
L 419.145759 223.352745 
L 420.50301 227.263312 
L 421.860261 291.547903 
L 423.217513 236.389764 
L 424.574764 277.314384 
L 425.932016 210.265679 
L 427.289267 220.849663 
L 428.646519 266.40921 
L 430.00377 221.047491 
L 431.361022 183.904069 
L 432.718273 200.529428 
L 434.075524 207.106294 
L 435.432776 261.400447 
L 436.790027 291.533778 
L 438.147279 291.150978 
L 439.50453 289.827775 
L 440.861782 65.215295 
L 442.219033 190.050021 
L 443.576285 291.48712 
L 444.933536 272.750603 
L 446.290787 291.79496 
L 447.648039 272.273126 
L 449.00529 291.932871 
L 450.362542 291.042489 
L 451.719793 291.914659 
L 453.077045 290.653119 
L 455.791548 291.5176 
L 457.148799 157.407544 
L 458.50605 291.608793 
L 459.863302 291.822343 
L 461.220553 191.093948 
L 463.935056 291.80006 
L 465.292308 197.158402 
L 466.649559 291.539003 
L 468.006811 291.811706 
L 469.364062 204.004466 
L 470.721313 40.531875 
L 472.078565 177.482566 
L 473.435816 257.245831 
L 474.793068 261.311969 
L 476.150319 291.652684 
L 477.507571 192.862611 
L 478.864822 187.657719 
L 480.222074 226.935829 
L 481.579325 45.395211 
L 482.936576 176.49167 
L 484.293828 288.445982 
L 485.651079 161.165169 
L 487.008331 289.510238 
L 488.365582 237.208563 
L 489.722834 177.840149 
L 491.080085 43.220481 
L 492.437337 207.773683 
L 493.794588 291.807015 
L 495.151839 289.988611 
L 496.509091 184.870162 
L 496.509091 184.870162 
" clip-path="url(#p204d978101)" style="fill: none; stroke: #1f77b4; stroke-width: 1.5; stroke-linecap: square"/>
   </g>
   <g id="line2d_26">
    <path d="M 90.690909 292.392847 
L 92.048161 292.056661 
L 93.405412 291.464417 
L 94.762663 291.5775 
L 96.119915 292.260742 
L 97.477166 292.286298 
L 98.834418 291.967742 
L 105.620675 291.874776 
L 106.977926 291.425442 
L 108.335178 291.120421 
L 109.692429 292.432713 
L 111.049681 290.902186 
L 112.406932 291.736347 
L 113.764184 291.375795 
L 115.121435 290.78334 
L 116.478687 291.773439 
L 117.835938 292.511998 
L 119.193189 292.362923 
L 120.550441 290.355028 
L 121.907692 291.923173 
L 123.264944 291.305892 
L 124.622195 291.814193 
L 125.979447 291.573048 
L 128.69395 291.975347 
L 130.051201 291.226535 
L 131.408452 291.850976 
L 132.765704 291.738369 
L 134.122955 291.154574 
L 135.480207 291.711104 
L 136.837458 291.211753 
L 139.551961 292.308237 
L 140.909213 291.050901 
L 142.266464 291.772496 
L 143.623715 291.018236 
L 144.980967 291.754214 
L 146.338218 291.590948 
L 147.69547 290.109843 
L 149.052721 291.485734 
L 150.409973 292.142408 
L 151.767224 291.064429 
L 153.124476 291.22969 
L 154.481727 280.990915 
L 155.838978 291.594913 
L 157.19623 292.127069 
L 158.553481 291.797664 
L 159.910733 290.418033 
L 161.267984 290.239401 
L 162.625236 290.973348 
L 163.982487 291.091766 
L 165.339739 291.07927 
L 166.69699 291.569084 
L 168.054241 280.932986 
L 169.411493 290.863003 
L 170.768744 291.347566 
L 172.125996 290.45114 
L 173.483247 291.886153 
L 174.840499 291.900962 
L 176.19775 292.468937 
L 177.555002 287.481485 
L 178.912253 290.34134 
L 180.269504 291.910921 
L 181.626756 291.566586 
L 182.984007 291.904549 
L 184.341259 291.141609 
L 185.69851 290.755728 
L 187.055762 291.925878 
L 188.413013 291.370256 
L 189.770265 291.819172 
L 191.127516 291.652291 
L 193.842019 289.327568 
L 195.19927 289.057863 
L 196.556522 290.756188 
L 197.913773 291.904391 
L 199.271025 292.073399 
L 200.628276 291.004052 
L 201.985528 282.417282 
L 203.342779 288.97281 
L 204.70003 292.341841 
L 206.057282 290.357612 
L 207.414533 292.431401 
L 210.129036 290.688363 
L 211.486288 290.923989 
L 212.843539 292.249104 
L 214.200791 291.440882 
L 215.558042 277.335482 
L 216.915293 291.12667 
L 218.272545 291.969668 
L 219.629796 290.450349 
L 220.987048 281.977113 
L 222.344299 291.596489 
L 223.701551 291.244884 
L 225.058802 291.4449 
L 226.416054 291.309902 
L 227.773305 291.300007 
L 229.130556 291.455045 
L 230.487808 253.094477 
L 231.845059 291.299907 
L 233.202311 291.764158 
L 234.559562 291.50444 
L 235.916814 291.72401 
L 237.274065 237.339138 
L 238.631317 291.918851 
L 239.988568 291.595447 
L 241.345819 292.241985 
L 242.703071 291.46654 
L 244.060322 291.21506 
L 245.417574 291.585141 
L 246.774825 290.979234 
L 248.132077 291.602033 
L 249.489328 291.098932 
L 250.84658 292.274928 
L 252.203831 291.988002 
L 253.561082 290.733233 
L 254.918334 291.412075 
L 256.275585 290.777205 
L 257.632837 290.442454 
L 258.990088 291.905326 
L 260.34734 291.834994 
L 261.704591 290.777979 
L 263.061843 291.990271 
L 264.419094 290.826111 
L 265.776345 251.378967 
L 267.133597 290.862222 
L 268.490848 291.568679 
L 269.8481 291.954217 
L 271.205351 290.9346 
L 272.562603 291.986302 
L 273.919854 291.615077 
L 275.277106 291.82926 
L 276.634357 291.850686 
L 277.991608 291.654274 
L 279.34886 290.41431 
L 280.706111 292.531875 
L 282.063363 292.441429 
L 283.420614 291.24037 
L 284.777866 290.877278 
L 286.135117 291.371114 
L 287.492369 282.860601 
L 288.84962 291.899521 
L 291.564123 291.241119 
L 292.921374 291.372618 
L 294.278626 291.05415 
L 295.635877 291.790874 
L 296.993129 291.260163 
L 298.35038 291.857474 
L 299.707631 283.152675 
L 301.064883 291.229848 
L 302.422134 280.331082 
L 303.779386 291.697753 
L 305.136637 290.84112 
L 306.493889 290.447684 
L 307.85114 243.225154 
L 309.208392 291.669008 
L 310.565643 291.420398 
L 311.922894 291.687594 
L 313.280146 291.042907 
L 314.637397 291.790146 
L 315.994649 291.518004 
L 317.3519 290.907643 
L 318.709152 291.961222 
L 320.066403 290.298277 
L 321.423655 291.119155 
L 322.780906 291.391797 
L 324.138157 286.960311 
L 325.495409 289.611019 
L 326.85266 291.53655 
L 329.567163 291.863798 
L 330.924415 291.429289 
L 332.281666 261.999145 
L 333.638918 291.291353 
L 334.996169 273.089237 
L 336.35342 291.975942 
L 337.710672 292.353844 
L 339.067923 290.640979 
L 340.425175 289.345366 
L 341.782426 291.603178 
L 343.139678 291.597396 
L 344.496929 290.97883 
L 345.854181 291.810534 
L 347.211432 291.096475 
L 348.568683 247.930913 
L 349.925935 288.373264 
L 351.283186 291.607636 
L 352.640438 290.442884 
L 353.997689 253.441364 
L 355.354941 251.496799 
L 356.712192 291.554836 
L 358.069444 288.675552 
L 359.426695 291.484396 
L 360.783946 291.368862 
L 362.141198 291.703381 
L 363.498449 291.227866 
L 364.855701 291.217734 
L 366.212952 291.500287 
L 367.570204 291.987966 
L 368.927455 291.358349 
L 371.641958 291.670962 
L 372.999209 291.952534 
L 374.356461 291.68215 
L 375.713712 289.215886 
L 377.070964 290.469454 
L 378.428215 286.24327 
L 379.785467 292.06777 
L 381.142718 290.681453 
L 382.49997 290.481963 
L 383.857221 256.898175 
L 385.214472 289.449944 
L 386.571724 291.861952 
L 387.928975 291.79524 
L 389.286227 290.5795 
L 392.00073 292.046878 
L 393.357981 288.613997 
L 394.715233 291.680511 
L 396.072484 291.732475 
L 397.429735 291.899537 
L 398.786987 291.924387 
L 400.144238 273.951348 
L 401.50149 287.812665 
L 402.858741 247.259568 
L 404.215993 266.673617 
L 405.573244 291.877109 
L 406.930496 290.582055 
L 408.287747 291.109234 
L 409.644998 291.93407 
L 411.00225 291.57238 
L 412.359501 291.648291 
L 413.716753 291.449985 
L 415.074004 290.995757 
L 416.431256 291.682586 
L 417.788507 289.936254 
L 419.145759 287.096972 
L 420.50301 280.438706 
L 421.860261 287.356076 
L 423.217513 236.80889 
L 424.574764 235.077731 
L 425.932016 271.561905 
L 427.289267 251.049148 
L 428.646519 291.364194 
L 430.00377 291.891683 
L 431.361022 239.762889 
L 432.718273 291.305474 
L 434.075524 287.083537 
L 435.432776 240.461021 
L 436.790027 291.68516 
L 438.147279 242.11254 
L 439.50453 291.667246 
L 442.219033 291.7657 
L 444.933536 290.696408 
L 446.290787 291.798658 
L 447.648039 285.487728 
L 449.00529 291.348837 
L 451.719793 291.111201 
L 453.077045 291.894981 
L 454.434296 291.872699 
L 455.791548 292.06781 
L 457.148799 291.330162 
L 458.50605 232.396619 
L 459.863302 238.438039 
L 461.220553 234.927677 
L 462.577805 237.449343 
L 463.935056 291.66369 
L 465.292308 230.933031 
L 466.649559 290.839626 
L 468.006811 291.938085 
L 469.364062 292.517139 
L 470.721313 291.158989 
L 472.078565 291.591509 
L 473.435816 238.340578 
L 474.793068 235.768151 
L 476.150319 291.590634 
L 477.507571 292.248053 
L 478.864822 279.480963 
L 480.222074 288.954403 
L 481.579325 292.183837 
L 482.936576 272.884162 
L 484.293828 243.258732 
L 487.008331 230.548847 
L 488.365582 289.545425 
L 489.722834 284.370476 
L 491.080085 291.621618 
L 492.437337 229.540256 
L 493.794588 292.357168 
L 495.151839 253.504913 
L 496.509091 291.63949 
L 496.509091 291.63949 
" clip-path="url(#p204d978101)" style="fill: none; stroke: #ff7f0e; stroke-width: 1.5; stroke-linecap: square"/>
   </g>
   <g id="line2d_27">
    <path d="M 90.690909 292.52453 
L 92.048161 292.360621 
L 94.762663 291.403202 
L 96.119915 292.150345 
L 97.477166 291.23296 
L 98.834418 291.069529 
L 100.191669 292.286328 
L 101.548921 291.646208 
L 102.906172 292.201368 
L 104.263424 291.997675 
L 105.620675 291.434236 
L 106.977926 291.740524 
L 108.335178 292.403664 
L 109.692429 292.050372 
L 111.049681 291.034357 
L 112.406932 292.368745 
L 113.764184 291.363351 
L 115.121435 290.979224 
L 116.478687 291.306588 
L 117.835938 291.802922 
L 119.193189 292.141472 
L 120.550441 291.868678 
L 121.907692 292.234305 
L 124.622195 290.430112 
L 125.979447 291.761599 
L 127.336698 291.92089 
L 128.69395 291.485944 
L 130.051201 292.231261 
L 131.408452 290.892887 
L 132.765704 292.060448 
L 134.122955 291.501732 
L 135.480207 292.419635 
L 136.837458 291.7605 
L 138.19471 291.898462 
L 139.551961 292.409691 
L 140.909213 291.286996 
L 142.266464 291.988023 
L 143.623715 291.321405 
L 144.980967 291.742915 
L 146.338218 291.890954 
L 147.69547 291.257435 
L 149.052721 291.979053 
L 150.409973 291.599926 
L 151.767224 291.375595 
L 153.124476 290.627578 
L 154.481727 291.974187 
L 155.838978 290.996537 
L 157.19623 291.956837 
L 158.553481 291.302759 
L 159.910733 291.650357 
L 161.267984 291.004993 
L 162.625236 290.731334 
L 163.982487 291.050466 
L 165.339739 291.618456 
L 166.69699 291.22888 
L 168.054241 291.115973 
L 169.411493 291.812119 
L 170.768744 291.86199 
L 172.125996 291.033961 
L 173.483247 291.658141 
L 174.840499 290.979933 
L 176.19775 292.028209 
L 177.555002 291.418426 
L 178.912253 290.238022 
L 180.269504 291.794255 
L 181.626756 290.491876 
L 182.984007 291.503242 
L 184.341259 292.108743 
L 185.69851 290.892596 
L 187.055762 292.139996 
L 188.413013 290.571857 
L 189.770265 291.562189 
L 192.484767 291.774459 
L 193.842019 291.553185 
L 195.19927 287.752958 
L 196.556522 291.823044 
L 197.913773 292.009427 
L 199.271025 291.585738 
L 200.628276 291.314749 
L 201.985528 291.981502 
L 203.342779 290.999792 
L 204.70003 291.495004 
L 206.057282 291.851285 
L 207.414533 291.350536 
L 208.771785 291.863709 
L 210.129036 291.376912 
L 211.486288 291.01167 
L 212.843539 291.564782 
L 214.200791 291.47019 
L 215.558042 291.235035 
L 216.915293 291.140153 
L 218.272545 292.082078 
L 219.629796 290.157304 
L 220.987048 290.792739 
L 222.344299 290.873377 
L 223.701551 291.346535 
L 225.058802 290.820267 
L 227.773305 290.703314 
L 229.130556 291.149951 
L 230.487808 246.36526 
L 231.845059 291.025713 
L 233.202311 290.803981 
L 234.559562 290.718367 
L 235.916814 290.980045 
L 237.274065 291.497721 
L 238.631317 291.349138 
L 239.988568 291.739757 
L 241.345819 289.675838 
L 242.703071 290.267371 
L 244.060322 291.329291 
L 245.417574 276.524427 
L 246.774825 291.681898 
L 248.132077 291.211743 
L 249.489328 291.811912 
L 250.84658 291.200624 
L 252.203831 291.801633 
L 253.561082 291.701918 
L 254.918334 291.264456 
L 256.275585 291.724602 
L 257.632837 290.919646 
L 258.990088 291.064577 
L 260.34734 291.555081 
L 261.704591 291.403254 
L 263.061843 290.714109 
L 264.419094 290.341688 
L 265.776345 290.1445 
L 267.133597 291.308524 
L 268.490848 291.089831 
L 269.8481 291.144604 
L 271.205351 290.659247 
L 272.562603 289.636576 
L 273.919854 291.587947 
L 275.277106 291.550201 
L 276.634357 290.021629 
L 277.991608 291.929344 
L 279.34886 292.02136 
L 280.706111 291.401061 
L 282.063363 291.57857 
L 283.420614 290.237911 
L 284.777866 291.349776 
L 286.135117 291.025373 
L 287.492369 291.556748 
L 288.84962 290.841334 
L 290.206871 288.097857 
L 291.564123 289.556005 
L 292.921374 289.750809 
L 294.278626 291.027064 
L 295.635877 290.768442 
L 296.993129 291.847585 
L 298.35038 291.327079 
L 301.064883 291.096226 
L 302.422134 290.551331 
L 303.779386 291.474677 
L 305.136637 291.400686 
L 306.493889 289.838274 
L 307.85114 290.415623 
L 309.208392 290.193474 
L 310.565643 291.228354 
L 311.922894 290.520461 
L 313.280146 290.293381 
L 314.637397 290.922806 
L 315.994649 291.795066 
L 317.3519 290.279455 
L 318.709152 290.008069 
L 320.066403 291.336651 
L 321.423655 291.62738 
L 322.780906 291.329371 
L 324.138157 291.178782 
L 325.495409 291.162019 
L 328.209912 289.860428 
L 330.924415 291.133724 
L 332.281666 290.789994 
L 333.638918 291.350672 
L 334.996169 291.063416 
L 336.35342 291.656036 
L 337.710672 290.922602 
L 339.067923 290.725786 
L 340.425175 290.960808 
L 341.782426 290.398952 
L 343.139678 290.117117 
L 344.496929 290.688681 
L 345.854181 290.59303 
L 347.211432 290.820835 
L 348.568683 290.870789 
L 349.925935 290.345389 
L 352.640438 290.949819 
L 353.997689 290.472077 
L 355.354941 291.500069 
L 356.712192 290.736672 
L 358.069444 290.653725 
L 359.426695 290.828343 
L 360.783946 290.205793 
L 362.141198 290.989714 
L 363.498449 291.459497 
L 364.855701 290.688555 
L 366.212952 291.421392 
L 367.570204 291.463357 
L 368.927455 290.768624 
L 370.284707 289.572031 
L 371.641958 289.9951 
L 372.999209 291.008015 
L 374.356461 290.176177 
L 378.428215 291.000041 
L 379.785467 290.37209 
L 381.142718 291.091149 
L 382.49997 291.527184 
L 383.857221 291.00315 
L 385.214472 290.099052 
L 386.571724 290.392223 
L 387.928975 291.083265 
L 389.286227 289.605608 
L 390.643478 289.986085 
L 393.357981 289.718163 
L 394.715233 290.414229 
L 396.072484 290.783842 
L 397.429735 291.466379 
L 398.786987 290.739456 
L 400.144238 290.255428 
L 401.50149 290.616328 
L 402.858741 290.267237 
L 404.215993 289.555547 
L 405.573244 290.398538 
L 406.930496 290.911448 
L 408.287747 290.573767 
L 409.644998 290.051037 
L 411.00225 290.946948 
L 412.359501 290.871769 
L 413.716753 291.365947 
L 416.431256 290.830953 
L 417.788507 290.291551 
L 419.145759 290.16856 
L 420.50301 289.568344 
L 421.860261 290.411381 
L 423.217513 290.785827 
L 424.574764 289.515138 
L 425.932016 291.111801 
L 427.289267 291.088294 
L 428.646519 290.385341 
L 430.00377 290.85109 
L 431.361022 290.947058 
L 432.718273 289.575723 
L 434.075524 290.865629 
L 435.432776 290.67794 
L 436.790027 290.078819 
L 438.147279 290.944632 
L 440.861782 291.082742 
L 442.219033 290.789971 
L 443.576285 290.675293 
L 444.933536 291.488354 
L 446.290787 289.494554 
L 447.648039 291.019553 
L 449.00529 289.775057 
L 450.362542 290.889868 
L 451.719793 290.846312 
L 453.077045 290.385925 
L 454.434296 290.845367 
L 455.791548 290.749791 
L 457.148799 290.190699 
L 458.50605 290.623519 
L 459.863302 290.563705 
L 461.220553 290.324301 
L 462.577805 291.115466 
L 463.935056 291.1925 
L 465.292308 290.49026 
L 466.649559 290.091616 
L 468.006811 291.409937 
L 469.364062 291.770527 
L 470.721313 290.098023 
L 472.078565 291.279792 
L 473.435816 291.294134 
L 474.793068 290.69212 
L 476.150319 290.385026 
L 477.507571 290.902705 
L 480.222074 291.143625 
L 481.579325 291.02523 
L 484.293828 291.035651 
L 485.651079 290.444811 
L 487.008331 291.539956 
L 488.365582 290.316552 
L 489.722834 290.36817 
L 491.080085 290.817411 
L 492.437337 291.036013 
L 493.794588 291.095868 
L 495.151839 290.734379 
L 496.509091 290.924122 
L 496.509091 290.924122 
" clip-path="url(#p204d978101)" style="fill: none; stroke: #2ca02c; stroke-width: 1.5; stroke-linecap: square"/>
   </g>
   <g id="patch_3">
    <path d="M 70.4 305.131875 
L 70.4 27.931875 
" style="fill: none; stroke: #000000; stroke-width: 0.8; stroke-linejoin: miter; stroke-linecap: square"/>
   </g>
   <g id="patch_4">
    <path d="M 516.8 305.131875 
L 516.8 27.931875 
" style="fill: none; stroke: #000000; stroke-width: 0.8; stroke-linejoin: miter; stroke-linecap: square"/>
   </g>
   <g id="patch_5">
    <path d="M 70.4 305.131875 
L 516.8 305.131875 
" style="fill: none; stroke: #000000; stroke-width: 0.8; stroke-linejoin: miter; stroke-linecap: square"/>
   </g>
   <g id="patch_6">
    <path d="M 70.4 27.931875 
L 516.8 27.931875 
" style="fill: none; stroke: #000000; stroke-width: 0.8; stroke-linejoin: miter; stroke-linecap: square"/>
   </g>
   <g id="text_15">
    <!-- Meta Test Average Return -->
    <g transform="translate(178.726813 21.931875)scale(0.216 -0.216)">
     <defs>
      <path id="STIXGeneral-Regular-4d" d="M 5530 0 
L 3738 0 
L 3738 122 
Q 4115 147 4214 265 
Q 4314 384 4314 787 
L 4314 3661 
L 2682 0 
L 2592 0 
L 979 3514 
L 979 966 
Q 979 448 1088 294 
Q 1197 141 1574 122 
L 1574 0 
L 77 0 
L 77 122 
Q 358 141 480 205 
Q 602 269 650 432 
Q 698 595 698 966 
L 698 3514 
Q 698 3878 589 3984 
Q 480 4090 90 4115 
L 90 4237 
L 1357 4237 
L 2835 1024 
L 4250 4237 
L 5523 4237 
L 5523 4115 
Q 5178 4109 5072 3993 
Q 4966 3878 4966 3520 
L 4966 717 
Q 4966 378 5072 262 
Q 5178 147 5530 122 
L 5530 0 
z
" transform="scale(0.015625)"/>
      <path id="STIXGeneral-Regular-54" d="M 3795 3149 
L 3642 3149 
Q 3539 3674 3353 3821 
Q 3168 3968 2656 3968 
L 2278 3968 
L 2278 710 
Q 2278 346 2387 243 
Q 2496 141 2893 122 
L 2893 0 
L 1024 0 
L 1024 122 
Q 1427 147 1526 256 
Q 1626 365 1626 787 
L 1626 3968 
L 1242 3968 
Q 723 3968 540 3817 
Q 358 3667 262 3149 
L 109 3149 
L 154 4237 
L 3750 4237 
L 3795 3149 
z
" transform="scale(0.015625)"/>
      <path id="STIXGeneral-Regular-73" d="M 998 1926 
L 1664 1523 
Q 1984 1331 2105 1164 
Q 2227 998 2227 736 
Q 2227 416 1961 176 
Q 1696 -64 1331 -64 
Q 1030 -64 864 -6 
Q 691 51 570 51 
Q 461 51 416 -26 
L 333 -26 
L 333 979 
L 435 979 
Q 538 512 730 294 
Q 922 77 1248 77 
Q 1485 77 1632 211 
Q 1779 346 1779 550 
Q 1779 845 1440 1030 
L 1094 1222 
Q 326 1651 326 2150 
Q 326 2522 566 2730 
Q 806 2938 1210 2938 
Q 1491 2938 1638 2867 
Q 1754 2816 1818 2816 
Q 1862 2816 1920 2880 
L 1990 2880 
L 2022 2010 
L 1926 2010 
Q 1818 2445 1654 2621 
Q 1491 2797 1203 2797 
Q 986 2797 854 2688 
Q 723 2579 723 2362 
Q 723 2253 796 2128 
Q 870 2003 998 1926 
z
" transform="scale(0.015625)"/>
     </defs>
     <use xlink:href="#STIXGeneral-Regular-4d"/>
     <use xlink:href="#STIXGeneral-Regular-65" x="88.899994"/>
     <use xlink:href="#STIXGeneral-Regular-74" x="133.299988"/>
     <use xlink:href="#STIXGeneral-Regular-61" x="161.099976"/>
     <use xlink:href="#STIXGeneral-Regular-20" x="205.499969"/>
     <use xlink:href="#STIXGeneral-Regular-54" x="230.499954"/>
     <use xlink:href="#STIXGeneral-Regular-65" x="291.599945"/>
     <use xlink:href="#STIXGeneral-Regular-73" x="335.999939"/>
     <use xlink:href="#STIXGeneral-Regular-74" x="374.899933"/>
     <use xlink:href="#STIXGeneral-Regular-20" x="402.699921"/>
     <use xlink:href="#STIXGeneral-Regular-41" x="427.699905"/>
     <use xlink:href="#STIXGeneral-Regular-76" x="499.899887"/>
     <use xlink:href="#STIXGeneral-Regular-65" x="549.899872"/>
     <use xlink:href="#STIXGeneral-Regular-72" x="594.299866"/>
     <use xlink:href="#STIXGeneral-Regular-61" x="627.599854"/>
     <use xlink:href="#STIXGeneral-Regular-67" x="671.999847"/>
     <use xlink:href="#STIXGeneral-Regular-65" x="721.999832"/>
     <use xlink:href="#STIXGeneral-Regular-20" x="766.399826"/>
     <use xlink:href="#STIXGeneral-Regular-52" x="791.399811"/>
     <use xlink:href="#STIXGeneral-Regular-65" x="858.099808"/>
     <use xlink:href="#STIXGeneral-Regular-74" x="902.499802"/>
     <use xlink:href="#STIXGeneral-Regular-75" x="930.299789"/>
     <use xlink:href="#STIXGeneral-Regular-72" x="980.299774"/>
     <use xlink:href="#STIXGeneral-Regular-6e" x="1013.599762"/>
    </g>
   </g>
   <g id="legend_1">
    <g id="patch_7">
     <path d="M 391.286562 296.131875 
L 504.2 296.131875 
Q 507.8 296.131875 507.8 292.531875 
L 507.8 217.812187 
Q 507.8 214.212187 504.2 214.212187 
L 391.286562 214.212187 
Q 387.686562 214.212187 387.686562 217.812187 
L 387.686562 292.531875 
Q 387.686562 296.131875 391.286562 296.131875 
z
" style="fill: #ffffff; opacity: 0.8; stroke: #cccccc; stroke-linejoin: miter"/>
    </g>
    <g id="line2d_28">
     <path d="M 394.886562 227.712187 
L 412.886562 227.712187 
L 430.886562 227.712187 
" style="fill: none; stroke: #1f77b4; stroke-width: 1.5; stroke-linecap: square"/>
    </g>
    <g id="text_16">
     <!-- lr=1e-3 -->
     <g transform="translate(445.286562 234.012187)scale(0.18 -0.18)">
      <defs>
       <path id="STIXGeneral-Regular-6c" d="M 1645 0 
L 134 0 
L 134 96 
Q 435 122 531 221 
Q 627 320 627 589 
L 627 3590 
Q 627 3821 569 3910 
Q 512 4000 358 4000 
Q 224 4000 122 3987 
L 122 4090 
Q 730 4237 1133 4371 
L 1165 4346 
L 1165 557 
Q 1165 288 1254 201 
Q 1344 115 1645 96 
L 1645 0 
z
" transform="scale(0.015625)"/>
       <path id="STIXGeneral-Regular-3d" d="M 4077 2048 
L 307 2048 
L 307 2470 
L 4077 2470 
L 4077 2048 
z
M 4077 768 
L 307 768 
L 307 1190 
L 4077 1190 
L 4077 768 
z
" transform="scale(0.015625)"/>
       <path id="STIXGeneral-Regular-2d" d="M 1824 1242 
L 250 1242 
L 250 1645 
L 1824 1645 
L 1824 1242 
z
" transform="scale(0.015625)"/>
      </defs>
      <use xlink:href="#STIXGeneral-Regular-6c"/>
      <use xlink:href="#STIXGeneral-Regular-72" x="27.799988"/>
      <use xlink:href="#STIXGeneral-Regular-3d" x="61.099976"/>
      <use xlink:href="#STIXGeneral-Regular-31" x="129.59996"/>
      <use xlink:href="#STIXGeneral-Regular-65" x="179.599945"/>
      <use xlink:href="#STIXGeneral-Regular-2d" x="223.999939"/>
      <use xlink:href="#STIXGeneral-Regular-33" x="257.299927"/>
     </g>
    </g>
    <g id="line2d_29">
     <path d="M 394.886562 253.21875 
L 412.886562 253.21875 
L 430.886562 253.21875 
" style="fill: none; stroke: #ff7f0e; stroke-width: 1.5; stroke-linecap: square"/>
    </g>
    <g id="text_17">
     <!-- lr=5e-3 -->
     <g transform="translate(445.286562 259.51875)scale(0.18 -0.18)">
      <use xlink:href="#STIXGeneral-Regular-6c"/>
      <use xlink:href="#STIXGeneral-Regular-72" x="27.799988"/>
      <use xlink:href="#STIXGeneral-Regular-3d" x="61.099976"/>
      <use xlink:href="#STIXGeneral-Regular-35" x="129.59996"/>
      <use xlink:href="#STIXGeneral-Regular-65" x="179.599945"/>
      <use xlink:href="#STIXGeneral-Regular-2d" x="223.999939"/>
      <use xlink:href="#STIXGeneral-Regular-33" x="257.299927"/>
     </g>
    </g>
    <g id="line2d_30">
     <path d="M 394.886562 278.725312 
L 412.886562 278.725312 
L 430.886562 278.725312 
" style="fill: none; stroke: #2ca02c; stroke-width: 1.5; stroke-linecap: square"/>
    </g>
    <g id="text_18">
     <!-- lr=5e-4 -->
     <g transform="translate(445.286562 285.025312)scale(0.18 -0.18)">
      <use xlink:href="#STIXGeneral-Regular-6c"/>
      <use xlink:href="#STIXGeneral-Regular-72" x="27.799988"/>
      <use xlink:href="#STIXGeneral-Regular-3d" x="61.099976"/>
      <use xlink:href="#STIXGeneral-Regular-35" x="129.59996"/>
      <use xlink:href="#STIXGeneral-Regular-65" x="179.599945"/>
      <use xlink:href="#STIXGeneral-Regular-2d" x="223.999939"/>
      <use xlink:href="#STIXGeneral-Regular-34" x="257.299927"/>
     </g>
    </g>
   </g>
  </g>
 </g>
 <defs>
  <clipPath id="p204d978101">
   <rect x="70.4" y="27.931875" width="446.4" height="277.2"/>
  </clipPath>
 </defs>
</svg>
