<?xml version="1.0" encoding="utf-8" standalone="no"?>
<!DOCTYPE svg PUBLIC "-//W3C//DTD SVG 1.1//EN"
  "http://www.w3.org/Graphics/SVG/1.1/DTD/svg11.dtd">
<svg xmlns:xlink="http://www.w3.org/1999/xlink" width="524pt" height="355.731875pt" viewBox="0 0 524 355.731875" xmlns="http://www.w3.org/2000/svg" version="1.1">
 <metadata>
  <rdf:RDF xmlns:dc="http://purl.org/dc/elements/1.1/" xmlns:cc="http://creativecommons.org/ns#" xmlns:rdf="http://www.w3.org/1999/02/22-rdf-syntax-ns#">
   <cc:Work>
    <dc:type rdf:resource="http://purl.org/dc/dcmitype/StillImage"/>
    <dc:date>2021-11-25T20:00:26.696161</dc:date>
    <dc:format>image/svg+xml</dc:format>
    <dc:creator>
     <cc:Agent>
      <dc:title>Matplotlib v3.5.0, https://matplotlib.org/</dc:title>
     </cc:Agent>
    </dc:creator>
   </cc:Work>
  </rdf:RDF>
 </metadata>
 <defs>
  <style type="text/css">*{stroke-linejoin: round; stroke-linecap: butt}</style>
 </defs>
 <g id="figure_1">
  <g id="patch_1">
   <path d="M 0 355.731875 
L 524 355.731875 
L 524 0 
L 0 0 
z
" style="fill: #ffffff"/>
  </g>
  <g id="axes_1">
   <g id="patch_2">
    <path d="M 70.4 305.131875 
L 516.8 305.131875 
L 516.8 27.931875 
L 70.4 27.931875 
z
" style="fill: #ffffff"/>
   </g>
   <g id="matplotlib.axis_1">
    <g id="xtick_1">
     <g id="line2d_1">
      <path d="M 90.690909 305.131875 
L 90.690909 27.931875 
" clip-path="url(#p1dce783562)" style="fill: none; stroke: #b0b0b0; stroke-width: 0.8; stroke-linecap: square"/>
     </g>
     <g id="line2d_2">
      <defs>
       <path id="me25f6b9830" d="M 0 0 
L 0 3.5 
" style="stroke: #000000; stroke-width: 0.8"/>
      </defs>
      <g>
       <use xlink:href="#me25f6b9830" x="90.690909" y="305.131875" style="stroke: #000000; stroke-width: 0.8"/>
      </g>
     </g>
     <g id="text_1">
      <!-- 0 -->
      <g transform="translate(86.190909 324.425313)scale(0.18 -0.18)">
       <defs>
        <path id="STIXGeneral-Regular-30" d="M 3046 2112 
Q 3046 1683 2963 1302 
Q 2880 922 2717 602 
Q 2554 282 2266 96 
Q 1978 -90 1600 -90 
Q 1210 -90 915 108 
Q 621 307 461 640 
Q 301 973 227 1350 
Q 154 1728 154 2150 
Q 154 2746 301 3222 
Q 448 3699 790 4012 
Q 1133 4326 1626 4326 
Q 2253 4326 2649 3712 
Q 3046 3098 3046 2112 
z
M 2432 2080 
Q 2432 3091 2217 3625 
Q 2003 4160 1587 4160 
Q 1190 4160 979 3622 
Q 768 3085 768 2106 
Q 768 1120 979 598 
Q 1190 77 1600 77 
Q 2003 77 2217 598 
Q 2432 1120 2432 2080 
z
" transform="scale(0.015625)"/>
       </defs>
       <use xlink:href="#STIXGeneral-Regular-30"/>
      </g>
     </g>
    </g>
    <g id="xtick_2">
     <g id="line2d_3">
      <path d="M 158.553481 305.131875 
L 158.553481 27.931875 
" clip-path="url(#p1dce783562)" style="fill: none; stroke: #b0b0b0; stroke-width: 0.8; stroke-linecap: square"/>
     </g>
     <g id="line2d_4">
      <g>
       <use xlink:href="#me25f6b9830" x="158.553481" y="305.131875" style="stroke: #000000; stroke-width: 0.8"/>
      </g>
     </g>
     <g id="text_2">
      <!-- 50 -->
      <g transform="translate(149.553481 324.425313)scale(0.18 -0.18)">
       <defs>
        <path id="STIXGeneral-Regular-35" d="M 2803 4358 
L 2573 3814 
Q 2534 3731 2400 3731 
L 1158 3731 
L 902 3187 
Q 1606 3053 1920 2896 
Q 2234 2739 2502 2368 
Q 2726 2061 2726 1555 
Q 2726 1094 2576 780 
Q 2426 467 2099 224 
Q 1664 -90 1011 -90 
Q 646 -90 422 19 
Q 198 128 198 307 
Q 198 550 486 550 
Q 717 550 960 352 
Q 1210 147 1414 147 
Q 1747 147 2012 480 
Q 2278 813 2278 1229 
Q 2278 1843 1850 2189 
Q 1293 2637 486 2637 
Q 410 2637 410 2688 
L 416 2720 
L 1114 4237 
L 2438 4237 
Q 2547 4237 2608 4269 
Q 2669 4301 2746 4403 
L 2803 4358 
z
" transform="scale(0.015625)"/>
       </defs>
       <use xlink:href="#STIXGeneral-Regular-35"/>
       <use xlink:href="#STIXGeneral-Regular-30" x="49.999985"/>
      </g>
     </g>
    </g>
    <g id="xtick_3">
     <g id="line2d_5">
      <path d="M 226.416054 305.131875 
L 226.416054 27.931875 
" clip-path="url(#p1dce783562)" style="fill: none; stroke: #b0b0b0; stroke-width: 0.8; stroke-linecap: square"/>
     </g>
     <g id="line2d_6">
      <g>
       <use xlink:href="#me25f6b9830" x="226.416054" y="305.131875" style="stroke: #000000; stroke-width: 0.8"/>
      </g>
     </g>
     <g id="text_3">
      <!-- 100 -->
      <g transform="translate(212.916054 324.425313)scale(0.18 -0.18)">
       <defs>
        <path id="STIXGeneral-Regular-31" d="M 2522 0 
L 755 0 
L 755 96 
Q 1107 115 1235 227 
Q 1363 339 1363 608 
L 1363 3482 
Q 1363 3795 1171 3795 
Q 1082 3795 883 3718 
L 710 3654 
L 710 3744 
L 1856 4326 
L 1914 4307 
L 1914 486 
Q 1914 275 2042 185 
Q 2170 96 2522 96 
L 2522 0 
z
" transform="scale(0.015625)"/>
       </defs>
       <use xlink:href="#STIXGeneral-Regular-31"/>
       <use xlink:href="#STIXGeneral-Regular-30" x="49.999985"/>
       <use xlink:href="#STIXGeneral-Regular-30" x="99.999969"/>
      </g>
     </g>
    </g>
    <g id="xtick_4">
     <g id="line2d_7">
      <path d="M 294.278626 305.131875 
L 294.278626 27.931875 
" clip-path="url(#p1dce783562)" style="fill: none; stroke: #b0b0b0; stroke-width: 0.8; stroke-linecap: square"/>
     </g>
     <g id="line2d_8">
      <g>
       <use xlink:href="#me25f6b9830" x="294.278626" y="305.131875" style="stroke: #000000; stroke-width: 0.8"/>
      </g>
     </g>
     <g id="text_4">
      <!-- 150 -->
      <g transform="translate(280.778626 324.425313)scale(0.18 -0.18)">
       <use xlink:href="#STIXGeneral-Regular-31"/>
       <use xlink:href="#STIXGeneral-Regular-35" x="49.999985"/>
       <use xlink:href="#STIXGeneral-Regular-30" x="99.999969"/>
      </g>
     </g>
    </g>
    <g id="xtick_5">
     <g id="line2d_9">
      <path d="M 362.141198 305.131875 
L 362.141198 27.931875 
" clip-path="url(#p1dce783562)" style="fill: none; stroke: #b0b0b0; stroke-width: 0.8; stroke-linecap: square"/>
     </g>
     <g id="line2d_10">
      <g>
       <use xlink:href="#me25f6b9830" x="362.141198" y="305.131875" style="stroke: #000000; stroke-width: 0.8"/>
      </g>
     </g>
     <g id="text_5">
      <!-- 200 -->
      <g transform="translate(348.641198 324.425313)scale(0.18 -0.18)">
       <defs>
        <path id="STIXGeneral-Regular-32" d="M 3034 877 
L 2688 0 
L 186 0 
L 186 77 
L 1325 1286 
Q 1773 1754 1965 2144 
Q 2157 2534 2157 2950 
Q 2157 3379 1920 3616 
Q 1683 3853 1267 3853 
Q 922 3853 720 3673 
Q 518 3494 326 3021 
L 192 3053 
Q 301 3648 630 3987 
Q 960 4326 1523 4326 
Q 2054 4326 2380 4006 
Q 2707 3686 2707 3200 
Q 2707 2477 1888 1613 
L 832 486 
L 2330 486 
Q 2541 486 2665 569 
Q 2790 653 2944 915 
L 3034 877 
z
" transform="scale(0.015625)"/>
       </defs>
       <use xlink:href="#STIXGeneral-Regular-32"/>
       <use xlink:href="#STIXGeneral-Regular-30" x="49.999985"/>
       <use xlink:href="#STIXGeneral-Regular-30" x="99.999969"/>
      </g>
     </g>
    </g>
    <g id="xtick_6">
     <g id="line2d_11">
      <path d="M 430.00377 305.131875 
L 430.00377 27.931875 
" clip-path="url(#p1dce783562)" style="fill: none; stroke: #b0b0b0; stroke-width: 0.8; stroke-linecap: square"/>
     </g>
     <g id="line2d_12">
      <g>
       <use xlink:href="#me25f6b9830" x="430.00377" y="305.131875" style="stroke: #000000; stroke-width: 0.8"/>
      </g>
     </g>
     <g id="text_6">
      <!-- 250 -->
      <g transform="translate(416.50377 324.425313)scale(0.18 -0.18)">
       <use xlink:href="#STIXGeneral-Regular-32"/>
       <use xlink:href="#STIXGeneral-Regular-35" x="49.999985"/>
       <use xlink:href="#STIXGeneral-Regular-30" x="99.999969"/>
      </g>
     </g>
    </g>
    <g id="xtick_7">
     <g id="line2d_13">
      <path d="M 497.866342 305.131875 
L 497.866342 27.931875 
" clip-path="url(#p1dce783562)" style="fill: none; stroke: #b0b0b0; stroke-width: 0.8; stroke-linecap: square"/>
     </g>
     <g id="line2d_14">
      <g>
       <use xlink:href="#me25f6b9830" x="497.866342" y="305.131875" style="stroke: #000000; stroke-width: 0.8"/>
      </g>
     </g>
     <g id="text_7">
      <!-- 300 -->
      <g transform="translate(484.366342 324.425313)scale(0.18 -0.18)">
       <defs>
        <path id="STIXGeneral-Regular-33" d="M 390 3264 
L 288 3290 
Q 435 3770 748 4048 
Q 1062 4326 1542 4326 
Q 1990 4326 2265 4083 
Q 2541 3840 2541 3450 
Q 2541 2925 1946 2566 
Q 2298 2413 2477 2227 
Q 2758 1914 2758 1402 
Q 2758 890 2464 506 
Q 2246 211 1840 60 
Q 1434 -90 979 -90 
Q 262 -90 262 275 
Q 262 378 339 442 
Q 416 506 525 506 
Q 685 506 915 339 
Q 1197 141 1466 141 
Q 1818 141 2058 425 
Q 2298 710 2298 1120 
Q 2298 1856 1632 2048 
Q 1434 2112 979 2112 
L 979 2202 
Q 1338 2323 1517 2432 
Q 2035 2726 2035 3290 
Q 2035 3610 1852 3776 
Q 1670 3942 1344 3942 
Q 768 3942 390 3264 
z
" transform="scale(0.015625)"/>
       </defs>
       <use xlink:href="#STIXGeneral-Regular-33"/>
       <use xlink:href="#STIXGeneral-Regular-30" x="49.999985"/>
       <use xlink:href="#STIXGeneral-Regular-30" x="99.999969"/>
      </g>
     </g>
    </g>
    <g id="text_8">
     <!-- Epoch -->
     <g transform="translate(270.605 344.625313)scale(0.18 -0.18)">
      <defs>
       <path id="STIXGeneral-Regular-45" d="M 3821 1082 
L 3526 0 
L 77 0 
L 77 122 
Q 442 147 538 252 
Q 634 358 634 730 
L 634 3520 
Q 634 3878 534 3987 
Q 435 4096 77 4115 
L 77 4237 
L 3469 4237 
L 3494 3322 
L 3334 3322 
Q 3264 3750 3085 3872 
Q 2906 3994 2349 3994 
L 1510 3994 
Q 1370 3994 1328 3952 
Q 1286 3910 1286 3763 
L 1286 2355 
L 2253 2355 
Q 2656 2355 2787 2470 
Q 2918 2586 2976 2970 
L 3123 2970 
L 3123 1472 
L 2976 1472 
Q 2918 1875 2790 1984 
Q 2662 2093 2253 2093 
L 1286 2093 
L 1286 538 
Q 1286 346 1420 291 
Q 1555 237 1933 237 
L 2163 237 
Q 2848 237 3136 403 
Q 3424 570 3642 1082 
L 3821 1082 
z
" transform="scale(0.015625)"/>
       <path id="STIXGeneral-Regular-70" d="M 1018 2931 
L 1018 2438 
Q 1421 2944 1939 2944 
Q 2406 2944 2707 2560 
Q 3008 2176 3008 1581 
Q 3008 883 2621 409 
Q 2234 -64 1664 -64 
Q 1466 -64 1328 -6 
Q 1190 51 1018 211 
L 1018 -794 
Q 1018 -1094 1120 -1180 
Q 1222 -1267 1581 -1274 
L 1581 -1389 
L 32 -1389 
L 32 -1280 
Q 314 -1254 397 -1171 
Q 480 -1088 480 -838 
L 480 2157 
Q 480 2381 429 2451 
Q 378 2522 218 2522 
Q 115 2522 58 2515 
L 58 2618 
Q 506 2752 979 2944 
L 1018 2931 
z
M 1018 2138 
L 1018 563 
Q 1018 422 1238 281 
Q 1459 141 1683 141 
Q 2029 141 2243 467 
Q 2458 794 2458 1325 
Q 2458 1888 2243 2224 
Q 2029 2560 1670 2560 
Q 1446 2560 1232 2419 
Q 1018 2278 1018 2138 
z
" transform="scale(0.015625)"/>
       <path id="STIXGeneral-Regular-6f" d="M 3008 1478 
Q 3008 806 2608 371 
Q 2208 -64 1568 -64 
Q 979 -64 582 368 
Q 186 800 186 1459 
Q 186 2125 582 2534 
Q 979 2944 1626 2944 
Q 2221 2944 2614 2537 
Q 3008 2131 3008 1478 
z
M 2432 1306 
Q 2432 2035 2112 2445 
Q 1856 2765 1504 2765 
Q 1171 2765 966 2493 
Q 762 2221 762 1747 
Q 762 928 1101 435 
Q 1318 115 1677 115 
Q 2029 115 2230 432 
Q 2432 749 2432 1306 
z
" transform="scale(0.015625)"/>
       <path id="STIXGeneral-Regular-63" d="M 2547 998 
L 2637 941 
Q 2362 403 2112 205 
Q 1786 -64 1376 -64 
Q 845 -64 502 336 
Q 160 736 160 1357 
Q 160 2170 698 2618 
Q 1094 2944 1562 2944 
Q 1965 2944 2256 2749 
Q 2547 2554 2547 2285 
Q 2547 2176 2457 2096 
Q 2368 2016 2246 2016 
Q 2022 2016 1939 2310 
L 1901 2451 
Q 1850 2630 1773 2694 
Q 1696 2758 1523 2758 
Q 1133 2758 893 2451 
Q 653 2144 653 1645 
Q 653 1094 928 745 
Q 1203 397 1645 397 
Q 1920 397 2118 528 
Q 2317 659 2547 998 
z
" transform="scale(0.015625)"/>
       <path id="STIXGeneral-Regular-68" d="M 3117 0 
L 1760 0 
L 1760 96 
Q 2042 128 2118 224 
Q 2195 320 2195 653 
L 2195 1920 
Q 2195 2598 1722 2598 
Q 1530 2598 1370 2508 
Q 1210 2419 1005 2195 
L 1005 653 
Q 1005 320 1081 224 
Q 1158 128 1440 96 
L 1440 0 
L 58 0 
L 58 96 
Q 333 134 400 224 
Q 467 314 467 653 
L 467 3667 
Q 467 3872 406 3933 
Q 346 3994 141 3994 
Q 83 3994 64 3987 
L 64 4090 
L 237 4141 
Q 730 4288 973 4371 
L 1005 4352 
L 1005 2406 
Q 1229 2694 1446 2819 
Q 1664 2944 1946 2944 
Q 2733 2944 2733 1926 
L 2733 653 
Q 2733 320 2793 233 
Q 2854 147 3117 96 
L 3117 0 
z
" transform="scale(0.015625)"/>
      </defs>
      <use xlink:href="#STIXGeneral-Regular-45"/>
      <use xlink:href="#STIXGeneral-Regular-70" x="61.099991"/>
      <use xlink:href="#STIXGeneral-Regular-6f" x="111.099976"/>
      <use xlink:href="#STIXGeneral-Regular-63" x="161.09996"/>
      <use xlink:href="#STIXGeneral-Regular-68" x="205.499954"/>
     </g>
    </g>
   </g>
   <g id="matplotlib.axis_2">
    <g id="ytick_1">
     <g id="line2d_15">
      <path d="M 70.4 293.091616 
L 516.8 293.091616 
" clip-path="url(#p1dce783562)" style="fill: none; stroke: #b0b0b0; stroke-width: 0.8; stroke-linecap: square"/>
     </g>
     <g id="line2d_16">
      <defs>
       <path id="mc35764a12b" d="M 0 0 
L -3.5 0 
" style="stroke: #000000; stroke-width: 0.8"/>
      </defs>
      <g>
       <use xlink:href="#mc35764a12b" x="70.4" y="293.091616" style="stroke: #000000; stroke-width: 0.8"/>
      </g>
     </g>
     <g id="text_9">
      <!-- 0 -->
      <g transform="translate(54.4 299.238335)scale(0.18 -0.18)">
       <use xlink:href="#STIXGeneral-Regular-30"/>
      </g>
     </g>
    </g>
    <g id="ytick_2">
     <g id="line2d_17">
      <path d="M 70.4 216.621696 
L 516.8 216.621696 
" clip-path="url(#p1dce783562)" style="fill: none; stroke: #b0b0b0; stroke-width: 0.8; stroke-linecap: square"/>
     </g>
     <g id="line2d_18">
      <g>
       <use xlink:href="#mc35764a12b" x="70.4" y="216.621696" style="stroke: #000000; stroke-width: 0.8"/>
      </g>
     </g>
     <g id="text_10">
      <!-- 1000 -->
      <g transform="translate(27.4 222.768415)scale(0.18 -0.18)">
       <use xlink:href="#STIXGeneral-Regular-31"/>
       <use xlink:href="#STIXGeneral-Regular-30" x="49.999985"/>
       <use xlink:href="#STIXGeneral-Regular-30" x="99.999969"/>
       <use xlink:href="#STIXGeneral-Regular-30" x="149.999954"/>
      </g>
     </g>
    </g>
    <g id="ytick_3">
     <g id="line2d_19">
      <path d="M 70.4 140.151775 
L 516.8 140.151775 
" clip-path="url(#p1dce783562)" style="fill: none; stroke: #b0b0b0; stroke-width: 0.8; stroke-linecap: square"/>
     </g>
     <g id="line2d_20">
      <g>
       <use xlink:href="#mc35764a12b" x="70.4" y="140.151775" style="stroke: #000000; stroke-width: 0.8"/>
      </g>
     </g>
     <g id="text_11">
      <!-- 2000 -->
      <g transform="translate(27.4 146.298494)scale(0.18 -0.18)">
       <use xlink:href="#STIXGeneral-Regular-32"/>
       <use xlink:href="#STIXGeneral-Regular-30" x="49.999985"/>
       <use xlink:href="#STIXGeneral-Regular-30" x="99.999969"/>
       <use xlink:href="#STIXGeneral-Regular-30" x="149.999954"/>
      </g>
     </g>
    </g>
    <g id="ytick_4">
     <g id="line2d_21">
      <path d="M 70.4 63.681855 
L 516.8 63.681855 
" clip-path="url(#p1dce783562)" style="fill: none; stroke: #b0b0b0; stroke-width: 0.8; stroke-linecap: square"/>
     </g>
     <g id="line2d_22">
      <g>
       <use xlink:href="#mc35764a12b" x="70.4" y="63.681855" style="stroke: #000000; stroke-width: 0.8"/>
      </g>
     </g>
     <g id="text_12">
      <!-- 3000 -->
      <g transform="translate(27.4 69.828574)scale(0.18 -0.18)">
       <use xlink:href="#STIXGeneral-Regular-33"/>
       <use xlink:href="#STIXGeneral-Regular-30" x="49.999985"/>
       <use xlink:href="#STIXGeneral-Regular-30" x="99.999969"/>
       <use xlink:href="#STIXGeneral-Regular-30" x="149.999954"/>
      </g>
     </g>
    </g>
    <g id="text_13">
     <!-- Average Return -->
     <g transform="translate(19.476562 223.764844)rotate(-90)scale(0.18 -0.18)">
      <defs>
       <path id="STIXGeneral-Regular-41" d="M 4525 0 
L 2893 0 
L 2893 122 
Q 3149 122 3245 179 
Q 3334 224 3334 333 
Q 3334 499 3213 781 
L 2950 1382 
L 1274 1382 
L 979 653 
Q 922 506 922 384 
Q 922 237 1027 179 
Q 1133 122 1370 122 
L 1370 0 
L 96 0 
L 96 122 
Q 365 147 486 316 
Q 608 486 902 1190 
L 2221 4314 
L 2349 4314 
L 3923 710 
Q 4064 378 4176 262 
Q 4288 147 4525 122 
L 4525 0 
z
M 2861 1645 
L 2118 3405 
L 1382 1645 
L 2861 1645 
z
" transform="scale(0.015625)"/>
       <path id="STIXGeneral-Regular-76" d="M 3053 2880 
L 3053 2784 
Q 2906 2771 2835 2688 
Q 2765 2605 2637 2285 
L 1818 230 
Q 1690 -90 1638 -90 
Q 1587 -90 1523 77 
Q 1510 96 1497 141 
Q 1485 186 1472 211 
L 704 2048 
Q 499 2534 403 2652 
Q 307 2771 122 2784 
L 122 2880 
L 1376 2880 
L 1376 2784 
Q 1210 2771 1146 2732 
Q 1082 2694 1082 2611 
Q 1082 2509 1139 2368 
L 1792 730 
L 2426 2387 
Q 2464 2483 2464 2579 
Q 2464 2758 2163 2784 
L 2163 2880 
L 3053 2880 
z
" transform="scale(0.015625)"/>
       <path id="STIXGeneral-Regular-65" d="M 2611 1050 
L 2714 1005 
Q 2330 -64 1376 -64 
Q 813 -64 486 329 
Q 160 723 160 1389 
Q 160 2074 525 2509 
Q 890 2944 1485 2944 
Q 2061 2944 2374 2502 
Q 2560 2246 2592 1773 
L 621 1773 
Q 646 1370 700 1158 
Q 755 947 915 730 
Q 1184 378 1626 378 
Q 1939 378 2153 531 
Q 2368 685 2611 1050 
z
M 634 1978 
L 1939 1978 
Q 1882 2381 1750 2547 
Q 1619 2714 1312 2714 
Q 1043 2714 864 2525 
Q 685 2336 634 1978 
z
" transform="scale(0.015625)"/>
       <path id="STIXGeneral-Regular-72" d="M 1024 2931 
L 1024 2342 
Q 1267 2688 1430 2816 
Q 1594 2944 1792 2944 
Q 1958 2944 2051 2854 
Q 2144 2765 2144 2605 
Q 2144 2470 2077 2393 
Q 2010 2317 1894 2317 
Q 1773 2317 1638 2445 
Q 1536 2541 1472 2541 
Q 1338 2541 1181 2355 
Q 1024 2170 1024 2016 
L 1024 576 
Q 1024 301 1133 205 
Q 1242 109 1568 96 
L 1568 0 
L 32 0 
L 32 96 
Q 339 154 412 224 
Q 486 294 486 538 
L 486 2138 
Q 486 2349 438 2435 
Q 390 2522 269 2522 
Q 166 2522 45 2496 
L 45 2598 
Q 448 2726 992 2944 
L 1024 2931 
z
" transform="scale(0.015625)"/>
       <path id="STIXGeneral-Regular-61" d="M 2829 422 
L 2829 243 
Q 2586 -64 2253 -64 
Q 1888 -64 1843 403 
L 1837 403 
Q 1427 -64 909 -64 
Q 608 -64 422 112 
Q 237 288 237 602 
Q 237 1050 685 1350 
Q 992 1555 1837 1869 
L 1837 2214 
Q 1837 2502 1699 2646 
Q 1562 2790 1338 2790 
Q 1146 2790 1018 2697 
Q 890 2605 890 2477 
Q 890 2419 909 2348 
Q 928 2278 928 2208 
Q 928 2112 841 2029 
Q 755 1946 634 1946 
Q 525 1946 441 2029 
Q 358 2112 358 2240 
Q 358 2547 685 2752 
Q 986 2944 1421 2944 
Q 1939 2944 2176 2656 
Q 2291 2522 2323 2384 
Q 2355 2246 2355 1946 
L 2355 723 
Q 2355 301 2554 301 
Q 2682 301 2829 422 
z
M 1837 813 
L 1837 1715 
Q 1248 1510 1018 1293 
Q 800 1094 800 800 
Q 800 557 921 432 
Q 1043 307 1242 307 
Q 1453 307 1613 410 
Q 1747 506 1792 589 
Q 1837 672 1837 813 
z
" transform="scale(0.015625)"/>
       <path id="STIXGeneral-Regular-67" d="M 3008 2483 
L 2477 2483 
Q 2598 2208 2598 1946 
Q 2598 1453 2265 1203 
Q 1933 954 1600 954 
Q 1530 954 1357 973 
L 1235 986 
Q 1107 947 979 812 
Q 851 678 851 582 
Q 851 435 1350 410 
L 2176 371 
Q 2528 358 2739 172 
Q 2950 -13 2950 -314 
Q 2950 -685 2566 -986 
Q 2035 -1395 1286 -1395 
Q 826 -1395 502 -1212 
Q 179 -1030 179 -774 
Q 179 -595 320 -419 
Q 461 -243 806 6 
Q 602 102 534 172 
Q 467 243 467 346 
Q 467 531 762 787 
Q 909 915 1037 1043 
Q 717 1203 579 1401 
Q 442 1600 442 1901 
Q 442 2336 752 2640 
Q 1062 2944 1510 2944 
Q 1766 2944 2022 2848 
L 2163 2797 
Q 2349 2733 2515 2733 
L 3008 2733 
L 3008 2483 
z
M 973 2163 
L 973 2144 
Q 973 1683 1155 1398 
Q 1338 1114 1632 1114 
Q 1850 1114 1978 1270 
Q 2106 1427 2106 1690 
Q 2106 2112 1914 2464 
Q 1754 2765 1446 2765 
Q 1222 2765 1097 2605 
Q 973 2445 973 2163 
z
M 2771 -410 
Q 2771 -230 2595 -163 
Q 2419 -96 1978 -96 
Q 1344 -96 941 -13 
Q 749 -243 688 -348 
Q 627 -454 627 -563 
Q 627 -774 880 -902 
Q 1133 -1030 1555 -1030 
Q 2099 -1030 2435 -860 
Q 2771 -691 2771 -410 
z
" transform="scale(0.015625)"/>
       <path id="STIXGeneral-Regular-20" transform="scale(0.015625)"/>
       <path id="STIXGeneral-Regular-52" d="M 4224 0 
L 3187 0 
L 1664 1971 
L 1306 1958 
L 1306 717 
Q 1306 352 1405 249 
Q 1504 147 1875 122 
L 1875 0 
L 109 0 
L 109 122 
Q 474 154 563 262 
Q 653 371 653 794 
L 653 3526 
Q 653 3885 563 3987 
Q 474 4090 109 4115 
L 109 4237 
L 1850 4237 
Q 2726 4237 3187 3859 
Q 3501 3603 3501 3091 
Q 3501 2221 2342 2042 
L 3622 422 
Q 3757 256 3878 198 
Q 4000 141 4224 122 
L 4224 0 
z
M 1306 3731 
L 1306 2195 
Q 1766 2202 1990 2246 
Q 2214 2291 2438 2413 
Q 2803 2618 2803 3142 
Q 2803 4000 1632 4000 
Q 1459 4000 1382 3945 
Q 1306 3891 1306 3731 
z
" transform="scale(0.015625)"/>
       <path id="STIXGeneral-Regular-74" d="M 1702 493 
L 1786 422 
Q 1478 -64 1011 -64 
Q 448 -64 448 749 
L 448 2675 
L 109 2675 
Q 83 2694 83 2720 
Q 83 2771 192 2842 
Q 435 2982 813 3526 
Q 826 3546 874 3606 
Q 922 3667 941 3706 
Q 986 3706 986 3622 
L 986 2880 
L 1632 2880 
L 1632 2675 
L 986 2675 
L 986 845 
Q 986 538 1062 403 
Q 1139 269 1318 269 
Q 1510 269 1702 493 
z
" transform="scale(0.015625)"/>
       <path id="STIXGeneral-Regular-75" d="M 3072 320 
L 3072 230 
Q 2573 96 2195 -58 
L 2163 -38 
L 2163 486 
L 2150 486 
Q 1747 -64 1235 -64 
Q 870 -64 662 160 
Q 454 384 454 755 
L 454 2362 
Q 454 2598 371 2688 
Q 288 2778 58 2790 
L 58 2880 
L 992 2880 
L 992 813 
Q 992 595 1123 451 
Q 1254 307 1446 307 
Q 1760 307 1984 506 
Q 2067 582 2099 649 
Q 2131 717 2131 877 
L 2131 2355 
Q 2131 2605 2041 2678 
Q 1952 2752 1658 2771 
L 1658 2880 
L 2669 2880 
L 2669 685 
Q 2669 461 2742 390 
Q 2816 320 3034 320 
L 3072 320 
z
" transform="scale(0.015625)"/>
       <path id="STIXGeneral-Regular-6e" d="M 3104 0 
L 1773 0 
L 1779 96 
Q 2016 115 2096 233 
Q 2176 352 2176 672 
L 2176 1946 
Q 2176 2592 1709 2592 
Q 1549 2592 1408 2515 
Q 1267 2438 1050 2227 
L 1050 461 
Q 1050 269 1136 192 
Q 1222 115 1466 96 
L 1466 0 
L 115 0 
L 115 96 
Q 358 115 435 214 
Q 512 314 512 602 
L 512 2157 
Q 512 2394 467 2483 
Q 422 2573 288 2573 
Q 160 2573 102 2547 
L 102 2656 
Q 550 2784 979 2944 
L 1030 2925 
L 1030 2426 
L 1037 2426 
Q 1491 2944 1958 2944 
Q 2323 2944 2518 2688 
Q 2714 2432 2714 1958 
L 2714 544 
Q 2714 288 2790 205 
Q 2867 122 3104 96 
L 3104 0 
z
" transform="scale(0.015625)"/>
      </defs>
      <use xlink:href="#STIXGeneral-Regular-41"/>
      <use xlink:href="#STIXGeneral-Regular-76" x="72.199982"/>
      <use xlink:href="#STIXGeneral-Regular-65" x="122.199966"/>
      <use xlink:href="#STIXGeneral-Regular-72" x="166.59996"/>
      <use xlink:href="#STIXGeneral-Regular-61" x="199.899948"/>
      <use xlink:href="#STIXGeneral-Regular-67" x="244.299942"/>
      <use xlink:href="#STIXGeneral-Regular-65" x="294.299927"/>
      <use xlink:href="#STIXGeneral-Regular-20" x="338.699921"/>
      <use xlink:href="#STIXGeneral-Regular-52" x="363.699905"/>
      <use xlink:href="#STIXGeneral-Regular-65" x="430.399902"/>
      <use xlink:href="#STIXGeneral-Regular-74" x="474.799896"/>
      <use xlink:href="#STIXGeneral-Regular-75" x="502.599884"/>
      <use xlink:href="#STIXGeneral-Regular-72" x="552.599869"/>
      <use xlink:href="#STIXGeneral-Regular-6e" x="585.899857"/>
     </g>
    </g>
   </g>
   <g id="line2d_23">
    <path d="M 90.690909 292.469978 
L 93.405412 291.93636 
L 94.762663 292.28054 
L 96.119915 292.432375 
L 97.477166 291.993584 
L 98.834418 292.065633 
L 100.191669 291.980324 
L 102.906172 292.367819 
L 105.620675 291.879278 
L 108.335178 291.870673 
L 109.692429 292.369901 
L 111.049681 291.83567 
L 112.406932 291.961998 
L 115.121435 291.528719 
L 116.478687 291.558004 
L 117.835938 291.40819 
L 119.193189 291.633758 
L 120.550441 291.704627 
L 124.622195 291.359325 
L 125.979447 290.746986 
L 128.69395 290.627311 
L 131.408452 291.164509 
L 132.765704 290.592255 
L 134.122955 290.931675 
L 135.480207 290.777459 
L 136.837458 288.531617 
L 138.19471 290.8528 
L 139.551961 290.97817 
L 140.909213 290.762262 
L 142.266464 289.199324 
L 143.623715 288.886286 
L 144.980967 290.801473 
L 146.338218 288.895018 
L 147.69547 288.505846 
L 149.052721 288.800042 
L 150.409973 290.947036 
L 151.767224 291.213438 
L 153.124476 290.258963 
L 154.481727 290.345918 
L 155.838978 288.642631 
L 157.19623 290.817896 
L 158.553481 289.945082 
L 159.910733 288.073391 
L 161.267984 290.991631 
L 162.625236 289.262638 
L 163.982487 289.202212 
L 165.339739 289.306218 
L 166.69699 290.083458 
L 168.054241 284.392101 
L 169.411493 282.420627 
L 170.768744 289.526071 
L 172.125996 290.570163 
L 174.840499 288.553662 
L 176.19775 290.519124 
L 177.555002 285.515765 
L 178.912253 282.818263 
L 180.269504 289.959377 
L 181.626756 282.061566 
L 182.984007 290.680594 
L 184.341259 288.545582 
L 185.69851 290.45962 
L 187.055762 284.212475 
L 188.413013 289.69872 
L 189.770265 281.370638 
L 191.127516 290.651467 
L 192.484767 283.625409 
L 193.842019 285.931026 
L 195.19927 290.310886 
L 196.556522 289.162675 
L 197.913773 281.305623 
L 199.271025 287.924416 
L 200.628276 287.744986 
L 201.985528 288.561344 
L 203.342779 284.337224 
L 204.70003 289.449869 
L 206.057282 285.794677 
L 207.414533 279.797767 
L 208.771785 284.965933 
L 211.486288 286.677889 
L 212.843539 285.106044 
L 214.200791 287.477366 
L 216.915293 279.323896 
L 218.272545 283.777724 
L 219.629796 285.765968 
L 220.987048 286.117836 
L 222.344299 283.232878 
L 223.701551 290.349005 
L 225.058802 286.955229 
L 226.416054 278.510196 
L 227.773305 280.666184 
L 229.130556 285.652805 
L 230.487808 281.390075 
L 231.845059 282.346915 
L 233.202311 275.42702 
L 234.559562 291.023449 
L 235.916814 275.880433 
L 237.274065 290.148288 
L 238.631317 279.863853 
L 239.988568 284.089937 
L 241.345819 287.381531 
L 242.703071 286.391786 
L 244.060322 286.267312 
L 245.417574 286.860502 
L 246.774825 283.816327 
L 248.132077 278.411352 
L 249.489328 289.594447 
L 250.84658 283.762538 
L 252.203831 277.021542 
L 253.561082 271.000355 
L 254.918334 283.387035 
L 256.275585 274.841002 
L 257.632837 279.813952 
L 258.990088 277.302178 
L 260.34734 279.746242 
L 261.704591 273.448758 
L 263.061843 270.617688 
L 264.419094 280.083095 
L 265.776345 282.004383 
L 267.133597 290.018491 
L 269.8481 266.686519 
L 271.205351 274.590872 
L 272.562603 278.782456 
L 273.919854 276.139717 
L 275.277106 272.901305 
L 276.634357 273.812773 
L 277.991608 283.564714 
L 279.34886 273.766098 
L 280.706111 271.099016 
L 282.063363 288.128856 
L 283.420614 281.970804 
L 284.777866 272.043926 
L 286.135117 260.183978 
L 287.492369 273.221719 
L 288.84962 276.266996 
L 290.206871 274.844739 
L 291.564123 277.629422 
L 292.921374 266.680306 
L 294.278626 258.859278 
L 295.635877 261.929449 
L 296.993129 279.107867 
L 298.35038 284.832771 
L 299.707631 270.387534 
L 301.064883 254.731424 
L 302.422134 251.598731 
L 303.779386 257.300786 
L 305.136637 278.652714 
L 306.493889 274.884396 
L 307.85114 281.316109 
L 309.208392 265.657535 
L 310.565643 276.43411 
L 311.922894 275.90694 
L 313.280146 286.473205 
L 314.637397 276.507752 
L 315.994649 286.833999 
L 317.3519 270.561673 
L 318.709152 258.981273 
L 320.066403 285.700738 
L 321.423655 261.233353 
L 322.780906 256.212447 
L 324.138157 278.408892 
L 325.495409 266.827592 
L 326.85266 260.54206 
L 328.209912 275.370511 
L 329.567163 262.400278 
L 330.924415 270.478475 
L 332.281666 275.480675 
L 333.638918 230.026522 
L 334.996169 260.34506 
L 336.35342 272.444212 
L 337.710672 246.296515 
L 339.067923 271.766874 
L 340.425175 270.163625 
L 341.782426 252.237874 
L 343.139678 267.153331 
L 344.496929 232.330902 
L 345.854181 266.596198 
L 347.211432 259.937416 
L 348.568683 283.561089 
L 349.925935 279.46362 
L 351.283186 266.957671 
L 352.640438 268.265853 
L 353.997689 258.502657 
L 355.354941 261.430206 
L 356.712192 269.951708 
L 358.069444 286.028235 
L 359.426695 269.727904 
L 360.783946 282.619216 
L 362.141198 267.681458 
L 363.498449 283.250109 
L 364.855701 282.246255 
L 366.212952 248.038026 
L 367.570204 244.064017 
L 368.927455 264.242095 
L 370.284707 274.878404 
L 371.641958 286.80094 
L 372.999209 249.700607 
L 374.356461 260.59934 
L 375.713712 278.50208 
L 377.070964 258.703106 
L 378.428215 254.841942 
L 379.785467 276.078427 
L 382.49997 247.962373 
L 383.857221 256.218067 
L 385.214472 257.796279 
L 387.928975 279.870124 
L 389.286227 277.82095 
L 390.643478 256.493821 
L 392.00073 254.578479 
L 393.357981 264.872806 
L 394.715233 265.263865 
L 396.072484 275.844919 
L 397.429735 260.336334 
L 398.786987 267.827894 
L 400.144238 259.698863 
L 401.50149 273.99775 
L 402.858741 248.997209 
L 404.215993 280.990612 
L 405.573244 272.275012 
L 406.930496 272.670397 
L 408.287747 285.787908 
L 409.644998 268.175432 
L 411.00225 266.038368 
L 412.359501 268.20932 
L 413.716753 267.173982 
L 415.074004 273.044913 
L 416.431256 215.54574 
L 417.788507 240.92392 
L 419.145759 273.94881 
L 420.50301 281.37752 
L 421.860261 251.050779 
L 423.217513 224.146034 
L 424.574764 266.276118 
L 425.932016 260.811238 
L 427.289267 276.149336 
L 428.646519 260.331172 
L 430.00377 236.084037 
L 431.361022 251.537215 
L 432.718273 223.100015 
L 434.075524 266.9468 
L 435.432776 258.027794 
L 436.790027 240.967181 
L 438.147279 217.837149 
L 439.50453 279.147991 
L 440.861782 206.549369 
L 442.219033 232.447147 
L 443.576285 268.524366 
L 444.933536 217.384491 
L 446.290787 270.301197 
L 447.648039 230.522013 
L 449.00529 232.849533 
L 450.362542 262.81465 
L 451.719793 142.312228 
L 454.434296 246.266765 
L 455.791548 202.197193 
L 457.148799 281.733149 
L 458.50605 277.123015 
L 459.863302 264.500727 
L 461.220553 246.868051 
L 462.577805 249.399371 
L 463.935056 193.32686 
L 465.292308 214.209253 
L 466.649559 174.144233 
L 468.006811 221.420496 
L 469.364062 166.850139 
L 470.721313 209.030432 
L 472.078565 264.826562 
L 473.435816 224.898388 
L 474.793068 262.598068 
L 476.150319 186.756355 
L 477.507571 245.292726 
L 478.864822 186.759072 
L 480.222074 244.016559 
L 481.579325 223.44707 
L 482.936576 141.369591 
L 484.293828 196.257071 
L 485.651079 285.502351 
L 487.008331 241.813554 
L 488.365582 271.012163 
L 489.722834 211.289048 
L 491.080085 174.965136 
L 492.437337 241.127617 
L 493.794588 201.258047 
L 495.151839 210.106285 
L 496.509091 235.129904 
L 496.509091 235.129904 
" clip-path="url(#p1dce783562)" style="fill: none; stroke: #1f77b4; stroke-width: 1.5; stroke-linecap: square"/>
   </g>
   <g id="line2d_24">
    <path d="M 90.690909 292.531875 
L 93.405412 292.080617 
L 94.762663 292.315136 
L 97.477166 291.637387 
L 98.834418 292.015708 
L 100.191669 291.409393 
L 101.548921 291.884866 
L 102.906172 291.579266 
L 104.263424 291.637622 
L 105.620675 291.316045 
L 106.977926 291.385488 
L 108.335178 291.299041 
L 111.049681 291.623812 
L 112.406932 291.09927 
L 115.121435 291.436609 
L 117.835938 291.109631 
L 119.193189 290.347705 
L 120.550441 289.951634 
L 121.907692 287.278979 
L 123.264944 289.21991 
L 124.622195 289.736292 
L 125.979447 290.484233 
L 127.336698 288.445454 
L 128.69395 291.095465 
L 130.051201 287.290232 
L 131.408452 284.663313 
L 132.765704 287.525421 
L 134.122955 282.61644 
L 135.480207 279.822995 
L 136.837458 288.059425 
L 138.19471 288.688557 
L 139.551961 290.029977 
L 140.909213 285.874841 
L 142.266464 290.044343 
L 143.623715 285.354312 
L 144.980967 271.0133 
L 146.338218 285.253996 
L 147.69547 284.517522 
L 149.052721 268.783544 
L 150.409973 285.654252 
L 151.767224 279.517104 
L 153.124476 267.528602 
L 154.481727 273.046432 
L 155.838978 284.789438 
L 157.19623 277.597198 
L 158.553481 271.181983 
L 159.910733 252.497103 
L 161.267984 278.273993 
L 162.625236 249.870503 
L 163.982487 278.207831 
L 165.339739 285.044702 
L 166.69699 278.482026 
L 168.054241 289.771214 
L 169.411493 260.401383 
L 170.768744 263.048328 
L 172.125996 278.042709 
L 173.483247 270.248244 
L 174.840499 253.670765 
L 176.19775 270.521529 
L 177.555002 284.557291 
L 178.912253 272.712417 
L 180.269504 263.026275 
L 181.626756 284.332552 
L 182.984007 260.889511 
L 184.341259 272.085057 
L 185.69851 258.115832 
L 187.055762 265.695814 
L 188.413013 262.087756 
L 189.770265 273.249606 
L 191.127516 282.189264 
L 192.484767 256.43031 
L 193.842019 260.969108 
L 195.19927 248.440935 
L 196.556522 265.758467 
L 197.913773 262.630453 
L 199.271025 256.93507 
L 200.628276 259.630915 
L 201.985528 256.564886 
L 203.342779 268.558876 
L 204.70003 269.032624 
L 206.057282 267.304385 
L 207.414533 277.557837 
L 208.771785 269.397616 
L 210.129036 270.142845 
L 211.486288 254.156212 
L 212.843539 269.286991 
L 214.200791 275.731545 
L 215.558042 248.598001 
L 216.915293 273.170462 
L 218.272545 268.327168 
L 219.629796 261.385091 
L 220.987048 259.059251 
L 222.344299 248.439003 
L 223.701551 247.867229 
L 225.058802 260.648576 
L 226.416054 287.129016 
L 227.773305 249.06581 
L 229.130556 255.661795 
L 230.487808 255.182692 
L 231.845059 263.375202 
L 233.202311 262.446557 
L 234.559562 235.463923 
L 235.916814 246.110754 
L 237.274065 248.17442 
L 238.631317 275.749603 
L 239.988568 248.202079 
L 241.345819 261.815209 
L 242.703071 248.355079 
L 244.060322 286.271013 
L 245.417574 262.390936 
L 246.774825 266.65097 
L 248.132077 255.785487 
L 249.489328 258.777665 
L 250.84658 249.514076 
L 252.203831 273.66891 
L 253.561082 256.868383 
L 254.918334 254.466829 
L 256.275585 242.849264 
L 257.632837 240.730299 
L 258.990088 241.579767 
L 260.34734 248.849954 
L 261.704591 268.59419 
L 263.061843 248.637575 
L 264.419094 275.145278 
L 265.776345 254.595104 
L 267.133597 247.169576 
L 268.490848 240.599912 
L 269.8481 269.845323 
L 271.205351 233.809645 
L 272.562603 251.759629 
L 273.919854 236.632871 
L 275.277106 262.961798 
L 276.634357 255.494793 
L 277.991608 258.494744 
L 279.34886 254.145305 
L 280.706111 248.254274 
L 282.063363 247.521256 
L 283.420614 241.432712 
L 284.777866 241.960249 
L 286.135117 247.794684 
L 287.492369 240.731499 
L 288.84962 246.148368 
L 290.206871 239.532432 
L 291.564123 278.670671 
L 292.921374 255.503404 
L 294.278626 241.674696 
L 295.635877 247.420596 
L 296.993129 234.13523 
L 298.35038 245.366363 
L 299.707631 249.68618 
L 301.064883 234.622815 
L 302.422134 247.939554 
L 303.779386 250.378979 
L 305.136637 246.735941 
L 306.493889 241.40377 
L 307.85114 254.558211 
L 309.208392 269.154459 
L 310.565643 276.617123 
L 311.922894 240.2004 
L 313.280146 255.589853 
L 314.637397 262.240248 
L 315.994649 240.281631 
L 318.709152 256.138995 
L 320.066403 242.099019 
L 321.423655 239.827684 
L 322.780906 269.709143 
L 324.138157 246.477561 
L 325.495409 248.312849 
L 326.85266 246.563553 
L 328.209912 247.982988 
L 329.567163 232.484061 
L 330.924415 239.434189 
L 332.281666 269.688696 
L 333.638918 227.020942 
L 334.996169 235.106899 
L 336.35342 254.458657 
L 337.710672 233.921218 
L 339.067923 258.930691 
L 340.425175 268.726136 
L 341.782426 247.197165 
L 343.139678 239.205727 
L 344.496929 247.66867 
L 345.854181 260.764461 
L 347.211432 244.442465 
L 348.568683 240.284464 
L 349.925935 255.965866 
L 351.283186 255.608268 
L 352.640438 249.724915 
L 353.997689 236.661618 
L 355.354941 246.930547 
L 356.712192 234.681498 
L 358.069444 245.974733 
L 359.426695 261.342506 
L 360.783946 239.430254 
L 362.141198 247.636185 
L 363.498449 248.138696 
L 364.855701 241.561559 
L 366.212952 228.271644 
L 367.570204 238.604273 
L 368.927455 253.249705 
L 370.284707 235.200493 
L 371.641958 259.823969 
L 372.999209 247.449986 
L 374.356461 254.145181 
L 375.713712 240.809803 
L 377.070964 252.676848 
L 378.428215 234.275424 
L 379.785467 263.265694 
L 381.142718 248.173846 
L 382.49997 235.174683 
L 383.857221 255.233013 
L 385.214472 238.597622 
L 386.571724 228.904355 
L 387.928975 241.075086 
L 389.286227 239.926609 
L 390.643478 248.353338 
L 393.357981 241.195317 
L 394.715233 233.992442 
L 396.072484 234.93718 
L 397.429735 248.877711 
L 398.786987 231.645837 
L 400.144238 262.547269 
L 401.50149 241.336019 
L 402.858741 248.38867 
L 404.215993 250.166866 
L 405.573244 247.590786 
L 406.930496 226.07107 
L 408.287747 250.944055 
L 409.644998 233.585813 
L 411.00225 248.20115 
L 412.359501 244.749936 
L 413.716753 246.435639 
L 415.074004 247.718195 
L 416.431256 225.833213 
L 417.788507 238.238231 
L 419.145759 236.505737 
L 420.50301 240.284091 
L 421.860261 246.779955 
L 423.217513 241.565107 
L 424.574764 240.352099 
L 425.932016 232.271631 
L 427.289267 229.207919 
L 428.646519 240.953833 
L 430.00377 226.44641 
L 431.361022 247.943461 
L 432.718273 219.73854 
L 434.075524 232.585627 
L 435.432776 224.550461 
L 436.790027 225.849124 
L 439.50453 239.537449 
L 440.861782 240.178856 
L 442.219033 240.2681 
L 443.576285 222.925129 
L 444.933536 241.451251 
L 446.290787 240.241986 
L 447.648039 225.333213 
L 449.00529 218.957062 
L 450.362542 233.809659 
L 451.719793 232.216388 
L 453.077045 235.700227 
L 454.434296 247.85507 
L 455.791548 231.862738 
L 457.148799 233.582 
L 458.50605 247.905422 
L 459.863302 246.298438 
L 461.220553 247.845684 
L 462.577805 241.707671 
L 463.935056 240.773309 
L 465.292308 234.847688 
L 466.649559 219.837796 
L 468.006811 232.692449 
L 469.364062 239.859478 
L 470.721313 235.702243 
L 472.078565 224.868293 
L 473.435816 233.845953 
L 474.793068 224.865241 
L 476.150319 230.745556 
L 477.507571 219.830333 
L 478.864822 233.077057 
L 480.222074 218.829228 
L 482.936576 258.03233 
L 484.293828 233.534169 
L 485.651079 233.604296 
L 487.008331 232.923044 
L 488.365582 233.01543 
L 489.722834 228.070117 
L 491.080085 233.429783 
L 492.437337 232.161869 
L 493.794588 227.865098 
L 495.151839 240.67992 
L 496.509091 241.590142 
L 496.509091 241.590142 
" clip-path="url(#p1dce783562)" style="fill: none; stroke: #ff7f0e; stroke-width: 1.5; stroke-linecap: square"/>
   </g>
   <g id="line2d_25">
    <path d="M 90.690909 292.388971 
L 92.048161 292.34457 
L 93.405412 291.837337 
L 96.119915 292.283541 
L 97.477166 291.580542 
L 98.834418 292.069948 
L 100.191669 292.078402 
L 101.548921 291.50929 
L 102.906172 291.703008 
L 104.263424 291.47479 
L 105.620675 291.716107 
L 106.977926 291.596523 
L 109.692429 292.062158 
L 112.406932 291.288444 
L 113.764184 291.837621 
L 115.121435 291.32181 
L 116.478687 291.533756 
L 117.835938 285.999828 
L 119.193189 285.315795 
L 120.550441 286.549455 
L 121.907692 291.53813 
L 123.264944 291.164979 
L 124.622195 290.513421 
L 125.979447 287.310629 
L 127.336698 291.10839 
L 128.69395 292.2035 
L 130.051201 291.976144 
L 131.408452 286.901002 
L 132.765704 284.290428 
L 134.122955 269.395871 
L 135.480207 288.381632 
L 136.837458 285.91256 
L 138.19471 271.069514 
L 139.551961 291.316871 
L 140.909213 291.752597 
L 142.266464 291.228239 
L 143.623715 269.623754 
L 144.980967 291.58042 
L 146.338218 291.993208 
L 147.69547 283.705565 
L 149.052721 270.978857 
L 150.409973 282.35794 
L 151.767224 289.174751 
L 154.481727 291.422371 
L 155.838978 279.148315 
L 157.19623 290.431823 
L 159.910733 280.2211 
L 161.267984 271.282525 
L 162.625236 277.360288 
L 163.982487 268.060181 
L 165.339739 289.470905 
L 166.69699 276.621902 
L 168.054241 290.34143 
L 169.411493 267.378685 
L 170.768744 291.0964 
L 172.125996 284.056531 
L 173.483247 281.43268 
L 174.840499 283.883104 
L 176.19775 259.371392 
L 177.555002 281.184123 
L 178.912253 262.410142 
L 180.269504 275.095818 
L 181.626756 267.279744 
L 182.984007 286.159925 
L 184.341259 260.195803 
L 187.055762 288.813333 
L 188.413013 257.927436 
L 189.770265 275.578485 
L 191.127516 262.89831 
L 192.484767 268.582881 
L 193.842019 268.518758 
L 195.19927 268.175873 
L 196.556522 284.179636 
L 197.913773 261.204586 
L 199.271025 251.348146 
L 200.628276 291.361379 
L 201.985528 274.112815 
L 203.342779 243.77824 
L 204.70003 273.582766 
L 206.057282 254.985592 
L 207.414533 271.63217 
L 208.771785 271.11281 
L 210.129036 247.821447 
L 211.486288 286.407388 
L 212.843539 253.12813 
L 214.200791 249.864501 
L 216.915293 264.357635 
L 218.272545 246.567819 
L 219.629796 265.230967 
L 220.987048 263.672696 
L 222.344299 254.743928 
L 223.701551 236.575454 
L 225.058802 274.045606 
L 226.416054 242.645225 
L 227.773305 255.517838 
L 229.130556 266.628774 
L 230.487808 267.145322 
L 231.845059 262.639746 
L 233.202311 272.897504 
L 234.559562 228.498244 
L 235.916814 225.324901 
L 237.274065 270.415729 
L 238.631317 240.57124 
L 239.988568 249.548909 
L 242.703071 269.730263 
L 244.060322 241.776743 
L 245.417574 259.041982 
L 246.774825 246.24817 
L 248.132077 258.828893 
L 249.489328 260.057999 
L 250.84658 269.233589 
L 252.203831 228.955308 
L 253.561082 267.170495 
L 254.918334 251.619281 
L 256.275585 234.605303 
L 257.632837 232.418676 
L 260.34734 226.948836 
L 261.704591 249.051397 
L 263.061843 277.187596 
L 264.419094 244.192024 
L 265.776345 173.058466 
L 267.133597 238.64472 
L 268.490848 219.223367 
L 269.8481 216.057455 
L 271.205351 229.541476 
L 272.562603 212.057229 
L 273.919854 191.171802 
L 275.277106 201.290989 
L 276.634357 248.748985 
L 277.991608 228.287606 
L 279.34886 257.257365 
L 280.706111 208.049093 
L 282.063363 266.707552 
L 283.420614 223.314517 
L 284.777866 188.685783 
L 286.135117 206.594419 
L 287.492369 199.311714 
L 288.84962 221.872861 
L 290.206871 235.69955 
L 291.564123 214.305596 
L 292.921374 217.331418 
L 294.278626 198.245802 
L 295.635877 194.320427 
L 296.993129 206.995783 
L 298.35038 205.345351 
L 299.707631 222.202782 
L 301.064883 246.152256 
L 302.422134 223.544683 
L 303.779386 218.193562 
L 305.136637 193.560937 
L 306.493889 200.990327 
L 307.85114 210.618555 
L 309.208392 205.396309 
L 310.565643 240.625503 
L 311.922894 201.915163 
L 313.280146 179.17732 
L 314.637397 265.861701 
L 315.994649 178.208461 
L 317.3519 224.423812 
L 318.709152 226.346239 
L 320.066403 195.757813 
L 321.423655 205.406447 
L 322.780906 228.05035 
L 324.138157 200.80382 
L 325.495409 166.228242 
L 326.85266 159.400875 
L 328.209912 230.468301 
L 329.567163 185.944385 
L 330.924415 165.08616 
L 332.281666 107.241108 
L 333.638918 188.480252 
L 334.996169 214.763137 
L 336.35342 234.91466 
L 337.710672 224.771969 
L 339.067923 193.364506 
L 340.425175 235.062218 
L 341.782426 183.699136 
L 343.139678 164.592848 
L 344.496929 195.96159 
L 345.854181 163.139509 
L 347.211432 191.472352 
L 348.568683 139.992843 
L 349.925935 224.744837 
L 351.283186 191.598903 
L 352.640438 127.180696 
L 353.997689 161.354078 
L 355.354941 162.9592 
L 356.712192 241.834137 
L 358.069444 190.104967 
L 359.426695 168.659691 
L 360.783946 224.738644 
L 362.141198 264.818067 
L 363.498449 228.715444 
L 364.855701 173.565341 
L 366.212952 210.448402 
L 367.570204 127.174143 
L 368.927455 233.633602 
L 370.284707 168.209198 
L 371.641958 183.821551 
L 372.999209 138.440649 
L 374.356461 186.285895 
L 375.713712 212.777654 
L 377.070964 158.607219 
L 378.428215 209.469807 
L 379.785467 157.789415 
L 381.142718 172.993114 
L 382.49997 272.648167 
L 383.857221 131.681462 
L 385.214472 180.448604 
L 386.571724 198.889766 
L 387.928975 154.3063 
L 389.286227 168.391803 
L 390.643478 188.230679 
L 392.00073 111.330867 
L 393.357981 217.27372 
L 394.715233 177.040802 
L 396.072484 182.908794 
L 398.786987 134.28172 
L 400.144238 112.225375 
L 401.50149 180.157623 
L 402.858741 186.840806 
L 404.215993 236.860269 
L 405.573244 208.748038 
L 406.930496 134.653838 
L 408.287747 182.133752 
L 409.644998 183.947477 
L 411.00225 168.623304 
L 412.359501 103.605912 
L 413.716753 125.974502 
L 415.074004 192.550165 
L 416.431256 129.296706 
L 417.788507 123.26094 
L 419.145759 143.696995 
L 420.50301 136.14054 
L 421.860261 177.056895 
L 423.217513 155.512307 
L 424.574764 163.069209 
L 425.932016 108.502432 
L 427.289267 116.768241 
L 428.646519 152.820579 
L 430.00377 152.951507 
L 431.361022 170.20971 
L 432.718273 116.252965 
L 434.075524 172.60661 
L 435.432776 132.96168 
L 436.790027 205.372272 
L 438.147279 83.714155 
L 439.50453 96.515324 
L 440.861782 101.489211 
L 442.219033 154.650611 
L 443.576285 73.282601 
L 444.933536 126.939039 
L 446.290787 151.600794 
L 447.648039 123.030448 
L 449.00529 193.270263 
L 450.362542 188.822415 
L 451.719793 127.413149 
L 453.077045 148.434694 
L 454.434296 142.787169 
L 455.791548 79.008641 
L 457.148799 183.425564 
L 458.50605 151.538279 
L 459.863302 147.643914 
L 461.220553 40.531875 
L 462.577805 141.754349 
L 463.935056 159.102155 
L 465.292308 44.748344 
L 466.649559 202.552295 
L 468.006811 81.754875 
L 469.364062 105.527928 
L 470.721313 204.424323 
L 472.078565 173.832612 
L 473.435816 127.30158 
L 474.793068 117.864882 
L 476.150319 132.926992 
L 477.507571 64.485835 
L 478.864822 188.512372 
L 480.222074 195.669255 
L 481.579325 108.179078 
L 482.936576 116.886568 
L 484.293828 134.768599 
L 485.651079 130.592849 
L 487.008331 116.841276 
L 488.365582 100.062308 
L 489.722834 92.756257 
L 491.080085 180.326086 
L 492.437337 116.172089 
L 493.794588 90.122824 
L 495.151839 56.014047 
L 496.509091 133.033632 
L 496.509091 133.033632 
" clip-path="url(#p1dce783562)" style="fill: none; stroke: #2ca02c; stroke-width: 1.5; stroke-linecap: square"/>
   </g>
   <g id="line2d_26">
    <path d="M 90.690909 292.261845 
L 92.048161 292.312389 
L 93.405412 291.946975 
L 96.119915 292.031762 
L 97.477166 291.900002 
L 98.834418 292.13535 
L 100.191669 291.920235 
L 104.263424 291.633244 
L 105.620675 291.198742 
L 108.335178 291.644044 
L 109.692429 291.470846 
L 111.049681 291.653803 
L 112.406932 291.454828 
L 113.764184 291.708132 
L 115.121435 291.376096 
L 116.478687 291.497517 
L 117.835938 291.803048 
L 119.193189 291.757341 
L 120.550441 291.421855 
L 123.264944 291.630849 
L 124.622195 291.06968 
L 125.979447 291.588507 
L 127.336698 291.074732 
L 128.69395 291.418921 
L 130.051201 290.131503 
L 131.408452 290.805019 
L 132.765704 291.727094 
L 134.122955 286.352347 
L 135.480207 291.569665 
L 136.837458 289.78631 
L 138.19471 291.264482 
L 139.551961 284.196778 
L 140.909213 283.84412 
L 142.266464 282.917754 
L 143.623715 288.059609 
L 144.980967 279.245327 
L 146.338218 286.147551 
L 147.69547 275.875351 
L 149.052721 281.837629 
L 150.409973 280.797861 
L 151.767224 291.517877 
L 153.124476 285.253483 
L 154.481727 281.687031 
L 155.838978 272.240842 
L 157.19623 284.449565 
L 158.553481 284.493314 
L 159.910733 288.18284 
L 161.267984 291.276979 
L 162.625236 265.248666 
L 163.982487 284.929189 
L 165.339739 283.846966 
L 166.69699 281.514254 
L 168.054241 291.336203 
L 169.411493 285.706832 
L 170.768744 272.298204 
L 172.125996 289.146094 
L 173.483247 291.657272 
L 176.19775 279.008037 
L 177.555002 284.48648 
L 178.912253 284.750142 
L 180.269504 281.636111 
L 181.626756 287.890122 
L 182.984007 284.843815 
L 184.341259 288.195658 
L 185.69851 277.130605 
L 187.055762 287.642534 
L 188.413013 274.956986 
L 189.770265 288.23438 
L 191.127516 254.051904 
L 192.484767 279.177379 
L 193.842019 276.304007 
L 195.19927 291.035275 
L 196.556522 277.729154 
L 197.913773 283.205552 
L 199.271025 261.041977 
L 200.628276 258.231125 
L 201.985528 276.561569 
L 203.342779 280.033977 
L 204.70003 249.709377 
L 206.057282 260.300846 
L 207.414533 260.756826 
L 208.771785 266.701762 
L 210.129036 280.426854 
L 211.486288 266.894836 
L 212.843539 284.718608 
L 214.200791 291.352845 
L 215.558042 259.889354 
L 216.915293 269.58312 
L 218.272545 272.811928 
L 219.629796 286.31716 
L 220.987048 250.20343 
L 222.344299 256.715364 
L 223.701551 257.257893 
L 225.058802 259.902049 
L 226.416054 239.851394 
L 227.773305 247.282045 
L 229.130556 232.886639 
L 230.487808 247.988071 
L 231.845059 285.418357 
L 233.202311 234.556818 
L 234.559562 247.804644 
L 235.916814 222.565244 
L 237.274065 266.563268 
L 238.631317 267.227262 
L 239.988568 219.381847 
L 241.345819 238.568423 
L 242.703071 245.017529 
L 244.060322 246.313737 
L 245.417574 222.581103 
L 246.774825 258.821384 
L 248.132077 279.019112 
L 249.489328 259.593121 
L 250.84658 235.000012 
L 252.203831 256.993923 
L 253.561082 217.958416 
L 254.918334 257.819114 
L 256.275585 225.420973 
L 257.632837 235.137209 
L 258.990088 266.304752 
L 260.34734 228.424915 
L 261.704591 246.642688 
L 263.061843 226.782207 
L 264.419094 253.778012 
L 265.776345 257.352866 
L 267.133597 263.009225 
L 268.490848 257.900015 
L 269.8481 261.601999 
L 271.205351 259.577964 
L 272.562603 244.578023 
L 273.919854 216.10432 
L 275.277106 234.221469 
L 276.634357 254.48208 
L 277.991608 269.563856 
L 279.34886 280.572098 
L 280.706111 192.705121 
L 282.063363 212.930239 
L 283.420614 244.468093 
L 286.135117 219.915587 
L 287.492369 263.83835 
L 288.84962 195.224652 
L 290.206871 219.104233 
L 291.564123 258.236098 
L 292.921374 248.409771 
L 294.278626 236.934872 
L 295.635877 257.88908 
L 296.993129 195.710626 
L 298.35038 240.848047 
L 299.707631 238.131162 
L 301.064883 196.06697 
L 302.422134 210.471151 
L 303.779386 187.347168 
L 305.136637 193.41412 
L 306.493889 196.455891 
L 307.85114 209.533722 
L 309.208392 291.176538 
L 310.565643 220.564051 
L 311.922894 250.336641 
L 313.280146 210.406741 
L 314.637397 261.909498 
L 315.994649 179.121918 
L 317.3519 224.49967 
L 320.066403 248.166313 
L 321.423655 243.787537 
L 322.780906 169.973289 
L 324.138157 205.878512 
L 325.495409 175.50163 
L 326.85266 205.904659 
L 328.209912 210.255295 
L 329.567163 139.309738 
L 330.924415 215.113968 
L 332.281666 171.238217 
L 333.638918 262.335005 
L 334.996169 205.803022 
L 336.35342 173.138203 
L 337.710672 203.858584 
L 339.067923 227.796143 
L 340.425175 180.763585 
L 341.782426 166.632827 
L 343.139678 220.460846 
L 344.496929 261.945556 
L 345.854181 160.27662 
L 347.211432 180.687087 
L 348.568683 158.460935 
L 349.925935 186.107294 
L 351.283186 201.105807 
L 352.640438 185.657418 
L 353.997689 200.240181 
L 355.354941 169.328233 
L 356.712192 206.720568 
L 358.069444 122.699159 
L 359.426695 233.209568 
L 360.783946 184.285785 
L 362.141198 184.47934 
L 363.498449 118.503694 
L 364.855701 139.493987 
L 366.212952 122.573943 
L 367.570204 179.936194 
L 368.927455 172.43936 
L 370.284707 202.426547 
L 371.641958 258.986456 
L 372.999209 161.461455 
L 374.356461 187.485844 
L 375.713712 223.110456 
L 377.070964 210.384235 
L 378.428215 165.263818 
L 379.785467 246.694999 
L 381.142718 269.18107 
L 382.49997 192.986479 
L 383.857221 265.758049 
L 385.214472 215.682181 
L 386.571724 251.768287 
L 387.928975 198.296658 
L 389.286227 169.734517 
L 390.643478 247.673277 
L 392.00073 221.274786 
L 393.357981 136.471922 
L 394.715233 190.775731 
L 397.429735 167.645792 
L 398.786987 229.968586 
L 401.50149 167.85376 
L 402.858741 160.626009 
L 404.215993 158.451096 
L 405.573244 199.696332 
L 406.930496 250.329076 
L 408.287747 204.119331 
L 409.644998 199.659852 
L 411.00225 257.793168 
L 412.359501 132.891502 
L 413.716753 174.621479 
L 415.074004 177.877537 
L 416.431256 154.880403 
L 417.788507 179.010145 
L 419.145759 163.823286 
L 420.50301 156.638259 
L 421.860261 181.819425 
L 423.217513 227.694465 
L 424.574764 177.510384 
L 425.932016 156.211934 
L 427.289267 218.489837 
L 428.646519 199.749735 
L 430.00377 225.768556 
L 431.361022 201.877517 
L 432.718273 212.157848 
L 434.075524 193.996886 
L 435.432776 188.500032 
L 436.790027 249.501624 
L 438.147279 225.485509 
L 439.50453 183.528367 
L 440.861782 212.842129 
L 442.219033 135.207461 
L 443.576285 171.962413 
L 444.933536 189.3349 
L 446.290787 182.763369 
L 447.648039 122.752927 
L 449.00529 88.141401 
L 450.362542 187.910256 
L 451.719793 139.596342 
L 453.077045 239.876327 
L 454.434296 131.019183 
L 455.791548 173.804813 
L 457.148799 175.097885 
L 458.50605 174.731834 
L 459.863302 147.161048 
L 461.220553 147.492309 
L 462.577805 142.171003 
L 463.935056 236.909627 
L 465.292308 84.76795 
L 466.649559 160.113412 
L 468.006811 97.98261 
L 469.364062 186.468286 
L 470.721313 205.84754 
L 472.078565 140.745435 
L 473.435816 152.587566 
L 474.793068 212.71668 
L 476.150319 183.228228 
L 477.507571 143.519719 
L 478.864822 181.254778 
L 480.222074 87.73256 
L 481.579325 164.566562 
L 482.936576 225.933565 
L 484.293828 110.94512 
L 485.651079 215.672608 
L 487.008331 121.76763 
L 488.365582 232.256219 
L 489.722834 150.153111 
L 492.437337 233.198959 
L 493.794588 177.549926 
L 495.151839 139.624299 
L 496.509091 160.499327 
L 496.509091 160.499327 
" clip-path="url(#p1dce783562)" style="fill: none; stroke: #d62728; stroke-width: 1.5; stroke-linecap: square"/>
   </g>
   <g id="patch_3">
    <path d="M 70.4 305.131875 
L 70.4 27.931875 
" style="fill: none; stroke: #000000; stroke-width: 0.8; stroke-linejoin: miter; stroke-linecap: square"/>
   </g>
   <g id="patch_4">
    <path d="M 516.8 305.131875 
L 516.8 27.931875 
" style="fill: none; stroke: #000000; stroke-width: 0.8; stroke-linejoin: miter; stroke-linecap: square"/>
   </g>
   <g id="patch_5">
    <path d="M 70.4 305.131875 
L 516.8 305.131875 
" style="fill: none; stroke: #000000; stroke-width: 0.8; stroke-linejoin: miter; stroke-linecap: square"/>
   </g>
   <g id="patch_6">
    <path d="M 70.4 27.931875 
L 516.8 27.931875 
" style="fill: none; stroke: #000000; stroke-width: 0.8; stroke-linejoin: miter; stroke-linecap: square"/>
   </g>
   <g id="text_14">
    <!-- Meta Test Average Return -->
    <g transform="translate(178.726813 21.931875)scale(0.216 -0.216)">
     <defs>
      <path id="STIXGeneral-Regular-4d" d="M 5530 0 
L 3738 0 
L 3738 122 
Q 4115 147 4214 265 
Q 4314 384 4314 787 
L 4314 3661 
L 2682 0 
L 2592 0 
L 979 3514 
L 979 966 
Q 979 448 1088 294 
Q 1197 141 1574 122 
L 1574 0 
L 77 0 
L 77 122 
Q 358 141 480 205 
Q 602 269 650 432 
Q 698 595 698 966 
L 698 3514 
Q 698 3878 589 3984 
Q 480 4090 90 4115 
L 90 4237 
L 1357 4237 
L 2835 1024 
L 4250 4237 
L 5523 4237 
L 5523 4115 
Q 5178 4109 5072 3993 
Q 4966 3878 4966 3520 
L 4966 717 
Q 4966 378 5072 262 
Q 5178 147 5530 122 
L 5530 0 
z
" transform="scale(0.015625)"/>
      <path id="STIXGeneral-Regular-54" d="M 3795 3149 
L 3642 3149 
Q 3539 3674 3353 3821 
Q 3168 3968 2656 3968 
L 2278 3968 
L 2278 710 
Q 2278 346 2387 243 
Q 2496 141 2893 122 
L 2893 0 
L 1024 0 
L 1024 122 
Q 1427 147 1526 256 
Q 1626 365 1626 787 
L 1626 3968 
L 1242 3968 
Q 723 3968 540 3817 
Q 358 3667 262 3149 
L 109 3149 
L 154 4237 
L 3750 4237 
L 3795 3149 
z
" transform="scale(0.015625)"/>
      <path id="STIXGeneral-Regular-73" d="M 998 1926 
L 1664 1523 
Q 1984 1331 2105 1164 
Q 2227 998 2227 736 
Q 2227 416 1961 176 
Q 1696 -64 1331 -64 
Q 1030 -64 864 -6 
Q 691 51 570 51 
Q 461 51 416 -26 
L 333 -26 
L 333 979 
L 435 979 
Q 538 512 730 294 
Q 922 77 1248 77 
Q 1485 77 1632 211 
Q 1779 346 1779 550 
Q 1779 845 1440 1030 
L 1094 1222 
Q 326 1651 326 2150 
Q 326 2522 566 2730 
Q 806 2938 1210 2938 
Q 1491 2938 1638 2867 
Q 1754 2816 1818 2816 
Q 1862 2816 1920 2880 
L 1990 2880 
L 2022 2010 
L 1926 2010 
Q 1818 2445 1654 2621 
Q 1491 2797 1203 2797 
Q 986 2797 854 2688 
Q 723 2579 723 2362 
Q 723 2253 796 2128 
Q 870 2003 998 1926 
z
" transform="scale(0.015625)"/>
     </defs>
     <use xlink:href="#STIXGeneral-Regular-4d"/>
     <use xlink:href="#STIXGeneral-Regular-65" x="88.899994"/>
     <use xlink:href="#STIXGeneral-Regular-74" x="133.299988"/>
     <use xlink:href="#STIXGeneral-Regular-61" x="161.099976"/>
     <use xlink:href="#STIXGeneral-Regular-20" x="205.499969"/>
     <use xlink:href="#STIXGeneral-Regular-54" x="230.499954"/>
     <use xlink:href="#STIXGeneral-Regular-65" x="291.599945"/>
     <use xlink:href="#STIXGeneral-Regular-73" x="335.999939"/>
     <use xlink:href="#STIXGeneral-Regular-74" x="374.899933"/>
     <use xlink:href="#STIXGeneral-Regular-20" x="402.699921"/>
     <use xlink:href="#STIXGeneral-Regular-41" x="427.699905"/>
     <use xlink:href="#STIXGeneral-Regular-76" x="499.899887"/>
     <use xlink:href="#STIXGeneral-Regular-65" x="549.899872"/>
     <use xlink:href="#STIXGeneral-Regular-72" x="594.299866"/>
     <use xlink:href="#STIXGeneral-Regular-61" x="627.599854"/>
     <use xlink:href="#STIXGeneral-Regular-67" x="671.999847"/>
     <use xlink:href="#STIXGeneral-Regular-65" x="721.999832"/>
     <use xlink:href="#STIXGeneral-Regular-20" x="766.399826"/>
     <use xlink:href="#STIXGeneral-Regular-52" x="791.399811"/>
     <use xlink:href="#STIXGeneral-Regular-65" x="858.099808"/>
     <use xlink:href="#STIXGeneral-Regular-74" x="902.499802"/>
     <use xlink:href="#STIXGeneral-Regular-75" x="930.299789"/>
     <use xlink:href="#STIXGeneral-Regular-72" x="980.299774"/>
     <use xlink:href="#STIXGeneral-Regular-6e" x="1013.599762"/>
    </g>
   </g>
   <g id="legend_1">
    <g id="patch_7">
     <path d="M 80.2 118.485625 
L 139 118.485625 
Q 141.8 118.485625 141.8 115.685625 
L 141.8 37.731875 
Q 141.8 34.931875 139 34.931875 
L 80.2 34.931875 
Q 77.4 34.931875 77.4 37.731875 
L 77.4 115.685625 
Q 77.4 118.485625 80.2 118.485625 
z
" style="fill: #ffffff; opacity: 0.8; stroke: #cccccc; stroke-linejoin: miter"/>
    </g>
    <g id="line2d_27">
     <path d="M 83 45.431875 
L 97 45.431875 
L 111 45.431875 
" style="fill: none; stroke: #1f77b4; stroke-width: 1.5; stroke-linecap: square"/>
    </g>
    <g id="text_15">
     <!-- 10 -->
     <g transform="translate(122.2 50.331875)scale(0.14 -0.14)">
      <use xlink:href="#STIXGeneral-Regular-31"/>
      <use xlink:href="#STIXGeneral-Regular-30" x="49.999985"/>
     </g>
    </g>
    <g id="line2d_28">
     <path d="M 83 65.270313 
L 97 65.270313 
L 111 65.270313 
" style="fill: none; stroke: #ff7f0e; stroke-width: 1.5; stroke-linecap: square"/>
    </g>
    <g id="text_16">
     <!-- 20 -->
     <g transform="translate(122.2 70.170313)scale(0.14 -0.14)">
      <use xlink:href="#STIXGeneral-Regular-32"/>
      <use xlink:href="#STIXGeneral-Regular-30" x="49.999985"/>
     </g>
    </g>
    <g id="line2d_29">
     <path d="M 83 85.10875 
L 97 85.10875 
L 111 85.10875 
" style="fill: none; stroke: #2ca02c; stroke-width: 1.5; stroke-linecap: square"/>
    </g>
    <g id="text_17">
     <!-- 45 -->
     <g transform="translate(122.2 90.00875)scale(0.14 -0.14)">
      <defs>
       <path id="STIXGeneral-Regular-34" d="M 3027 1069 
L 2368 1069 
L 2368 0 
L 1869 0 
L 1869 1069 
L 77 1069 
L 77 1478 
L 2086 4326 
L 2368 4326 
L 2368 1478 
L 3027 1478 
L 3027 1069 
z
M 1869 1478 
L 1869 3674 
L 333 1478 
L 1869 1478 
z
" transform="scale(0.015625)"/>
      </defs>
      <use xlink:href="#STIXGeneral-Regular-34"/>
      <use xlink:href="#STIXGeneral-Regular-35" x="49.999985"/>
     </g>
    </g>
    <g id="line2d_30">
     <path d="M 83 104.947188 
L 97 104.947188 
L 111 104.947188 
" style="fill: none; stroke: #d62728; stroke-width: 1.5; stroke-linecap: square"/>
    </g>
    <g id="text_18">
     <!-- 60 -->
     <g transform="translate(122.2 109.847188)scale(0.14 -0.14)">
      <defs>
       <path id="STIXGeneral-Regular-36" d="M 2854 4378 
L 2867 4275 
Q 2112 4154 1606 3664 
Q 1101 3174 973 2451 
Q 1344 2739 1786 2739 
Q 2349 2739 2672 2380 
Q 2995 2022 2995 1402 
Q 2995 774 2669 378 
Q 2291 -90 1651 -90 
Q 870 -90 518 557 
Q 218 1107 218 1786 
Q 218 2835 915 3552 
Q 1312 3962 1731 4131 
Q 2150 4301 2854 4378 
z
M 2419 1203 
Q 2419 2445 1555 2445 
Q 1235 2445 1024 2275 
Q 813 2106 813 1702 
Q 813 954 1046 522 
Q 1280 90 1722 90 
Q 2061 90 2240 394 
Q 2419 698 2419 1203 
z
" transform="scale(0.015625)"/>
      </defs>
      <use xlink:href="#STIXGeneral-Regular-36"/>
      <use xlink:href="#STIXGeneral-Regular-30" x="49.999985"/>
     </g>
    </g>
   </g>
  </g>
 </g>
 <defs>
  <clipPath id="p1dce783562">
   <rect x="70.4" y="27.931875" width="446.4" height="277.2"/>
  </clipPath>
 </defs>
</svg>
