<?xml version="1.0" encoding="utf-8" standalone="no"?>
<!DOCTYPE svg PUBLIC "-//W3C//DTD SVG 1.1//EN"
  "http://www.w3.org/Graphics/SVG/1.1/DTD/svg11.dtd">
<svg xmlns:xlink="http://www.w3.org/1999/xlink" width="515pt" height="355.731875pt" viewBox="0 0 515 355.731875" xmlns="http://www.w3.org/2000/svg" version="1.1">
 <metadata>
  <rdf:RDF xmlns:dc="http://purl.org/dc/elements/1.1/" xmlns:cc="http://creativecommons.org/ns#" xmlns:rdf="http://www.w3.org/1999/02/22-rdf-syntax-ns#">
   <cc:Work>
    <dc:type rdf:resource="http://purl.org/dc/dcmitype/StillImage"/>
    <dc:date>2021-11-25T21:41:01.318135</dc:date>
    <dc:format>image/svg+xml</dc:format>
    <dc:creator>
     <cc:Agent>
      <dc:title>Matplotlib v3.5.0, https://matplotlib.org/</dc:title>
     </cc:Agent>
    </dc:creator>
   </cc:Work>
  </rdf:RDF>
 </metadata>
 <defs>
  <style type="text/css">*{stroke-linejoin: round; stroke-linecap: butt}</style>
 </defs>
 <g id="figure_1">
  <g id="patch_1">
   <path d="M 0 355.731875 
L 515 355.731875 
L 515 0 
L 0 0 
z
" style="fill: #ffffff"/>
  </g>
  <g id="axes_1">
   <g id="patch_2">
    <path d="M 61.4 305.131875 
L 507.8 305.131875 
L 507.8 27.931875 
L 61.4 27.931875 
z
" style="fill: #ffffff"/>
   </g>
   <g id="matplotlib.axis_1">
    <g id="xtick_1">
     <g id="line2d_1">
      <path d="M 81.690909 305.131875 
L 81.690909 27.931875 
" clip-path="url(#p7b77a9fdfd)" style="fill: none; stroke: #b0b0b0; stroke-width: 0.8; stroke-linecap: square"/>
     </g>
     <g id="line2d_2">
      <defs>
       <path id="m318ddc2b78" d="M 0 0 
L 0 3.5 
" style="stroke: #000000; stroke-width: 0.8"/>
      </defs>
      <g>
       <use xlink:href="#m318ddc2b78" x="81.690909" y="305.131875" style="stroke: #000000; stroke-width: 0.8"/>
      </g>
     </g>
     <g id="text_1">
      <!-- 0 -->
      <g transform="translate(77.190909 324.425313)scale(0.18 -0.18)">
       <defs>
        <path id="STIXGeneral-Regular-30" d="M 3046 2112 
Q 3046 1683 2963 1302 
Q 2880 922 2717 602 
Q 2554 282 2266 96 
Q 1978 -90 1600 -90 
Q 1210 -90 915 108 
Q 621 307 461 640 
Q 301 973 227 1350 
Q 154 1728 154 2150 
Q 154 2746 301 3222 
Q 448 3699 790 4012 
Q 1133 4326 1626 4326 
Q 2253 4326 2649 3712 
Q 3046 3098 3046 2112 
z
M 2432 2080 
Q 2432 3091 2217 3625 
Q 2003 4160 1587 4160 
Q 1190 4160 979 3622 
Q 768 3085 768 2106 
Q 768 1120 979 598 
Q 1190 77 1600 77 
Q 2003 77 2217 598 
Q 2432 1120 2432 2080 
z
" transform="scale(0.015625)"/>
       </defs>
       <use xlink:href="#STIXGeneral-Regular-30"/>
      </g>
     </g>
    </g>
    <g id="xtick_2">
     <g id="line2d_3">
      <path d="M 149.553481 305.131875 
L 149.553481 27.931875 
" clip-path="url(#p7b77a9fdfd)" style="fill: none; stroke: #b0b0b0; stroke-width: 0.8; stroke-linecap: square"/>
     </g>
     <g id="line2d_4">
      <g>
       <use xlink:href="#m318ddc2b78" x="149.553481" y="305.131875" style="stroke: #000000; stroke-width: 0.8"/>
      </g>
     </g>
     <g id="text_2">
      <!-- 50 -->
      <g transform="translate(140.553481 324.425313)scale(0.18 -0.18)">
       <defs>
        <path id="STIXGeneral-Regular-35" d="M 2803 4358 
L 2573 3814 
Q 2534 3731 2400 3731 
L 1158 3731 
L 902 3187 
Q 1606 3053 1920 2896 
Q 2234 2739 2502 2368 
Q 2726 2061 2726 1555 
Q 2726 1094 2576 780 
Q 2426 467 2099 224 
Q 1664 -90 1011 -90 
Q 646 -90 422 19 
Q 198 128 198 307 
Q 198 550 486 550 
Q 717 550 960 352 
Q 1210 147 1414 147 
Q 1747 147 2012 480 
Q 2278 813 2278 1229 
Q 2278 1843 1850 2189 
Q 1293 2637 486 2637 
Q 410 2637 410 2688 
L 416 2720 
L 1114 4237 
L 2438 4237 
Q 2547 4237 2608 4269 
Q 2669 4301 2746 4403 
L 2803 4358 
z
" transform="scale(0.015625)"/>
       </defs>
       <use xlink:href="#STIXGeneral-Regular-35"/>
       <use xlink:href="#STIXGeneral-Regular-30" x="49.999985"/>
      </g>
     </g>
    </g>
    <g id="xtick_3">
     <g id="line2d_5">
      <path d="M 217.416054 305.131875 
L 217.416054 27.931875 
" clip-path="url(#p7b77a9fdfd)" style="fill: none; stroke: #b0b0b0; stroke-width: 0.8; stroke-linecap: square"/>
     </g>
     <g id="line2d_6">
      <g>
       <use xlink:href="#m318ddc2b78" x="217.416054" y="305.131875" style="stroke: #000000; stroke-width: 0.8"/>
      </g>
     </g>
     <g id="text_3">
      <!-- 100 -->
      <g transform="translate(203.916054 324.425313)scale(0.18 -0.18)">
       <defs>
        <path id="STIXGeneral-Regular-31" d="M 2522 0 
L 755 0 
L 755 96 
Q 1107 115 1235 227 
Q 1363 339 1363 608 
L 1363 3482 
Q 1363 3795 1171 3795 
Q 1082 3795 883 3718 
L 710 3654 
L 710 3744 
L 1856 4326 
L 1914 4307 
L 1914 486 
Q 1914 275 2042 185 
Q 2170 96 2522 96 
L 2522 0 
z
" transform="scale(0.015625)"/>
       </defs>
       <use xlink:href="#STIXGeneral-Regular-31"/>
       <use xlink:href="#STIXGeneral-Regular-30" x="49.999985"/>
       <use xlink:href="#STIXGeneral-Regular-30" x="99.999969"/>
      </g>
     </g>
    </g>
    <g id="xtick_4">
     <g id="line2d_7">
      <path d="M 285.278626 305.131875 
L 285.278626 27.931875 
" clip-path="url(#p7b77a9fdfd)" style="fill: none; stroke: #b0b0b0; stroke-width: 0.8; stroke-linecap: square"/>
     </g>
     <g id="line2d_8">
      <g>
       <use xlink:href="#m318ddc2b78" x="285.278626" y="305.131875" style="stroke: #000000; stroke-width: 0.8"/>
      </g>
     </g>
     <g id="text_4">
      <!-- 150 -->
      <g transform="translate(271.778626 324.425313)scale(0.18 -0.18)">
       <use xlink:href="#STIXGeneral-Regular-31"/>
       <use xlink:href="#STIXGeneral-Regular-35" x="49.999985"/>
       <use xlink:href="#STIXGeneral-Regular-30" x="99.999969"/>
      </g>
     </g>
    </g>
    <g id="xtick_5">
     <g id="line2d_9">
      <path d="M 353.141198 305.131875 
L 353.141198 27.931875 
" clip-path="url(#p7b77a9fdfd)" style="fill: none; stroke: #b0b0b0; stroke-width: 0.8; stroke-linecap: square"/>
     </g>
     <g id="line2d_10">
      <g>
       <use xlink:href="#m318ddc2b78" x="353.141198" y="305.131875" style="stroke: #000000; stroke-width: 0.8"/>
      </g>
     </g>
     <g id="text_5">
      <!-- 200 -->
      <g transform="translate(339.641198 324.425313)scale(0.18 -0.18)">
       <defs>
        <path id="STIXGeneral-Regular-32" d="M 3034 877 
L 2688 0 
L 186 0 
L 186 77 
L 1325 1286 
Q 1773 1754 1965 2144 
Q 2157 2534 2157 2950 
Q 2157 3379 1920 3616 
Q 1683 3853 1267 3853 
Q 922 3853 720 3673 
Q 518 3494 326 3021 
L 192 3053 
Q 301 3648 630 3987 
Q 960 4326 1523 4326 
Q 2054 4326 2380 4006 
Q 2707 3686 2707 3200 
Q 2707 2477 1888 1613 
L 832 486 
L 2330 486 
Q 2541 486 2665 569 
Q 2790 653 2944 915 
L 3034 877 
z
" transform="scale(0.015625)"/>
       </defs>
       <use xlink:href="#STIXGeneral-Regular-32"/>
       <use xlink:href="#STIXGeneral-Regular-30" x="49.999985"/>
       <use xlink:href="#STIXGeneral-Regular-30" x="99.999969"/>
      </g>
     </g>
    </g>
    <g id="xtick_6">
     <g id="line2d_11">
      <path d="M 421.00377 305.131875 
L 421.00377 27.931875 
" clip-path="url(#p7b77a9fdfd)" style="fill: none; stroke: #b0b0b0; stroke-width: 0.8; stroke-linecap: square"/>
     </g>
     <g id="line2d_12">
      <g>
       <use xlink:href="#m318ddc2b78" x="421.00377" y="305.131875" style="stroke: #000000; stroke-width: 0.8"/>
      </g>
     </g>
     <g id="text_6">
      <!-- 250 -->
      <g transform="translate(407.50377 324.425313)scale(0.18 -0.18)">
       <use xlink:href="#STIXGeneral-Regular-32"/>
       <use xlink:href="#STIXGeneral-Regular-35" x="49.999985"/>
       <use xlink:href="#STIXGeneral-Regular-30" x="99.999969"/>
      </g>
     </g>
    </g>
    <g id="xtick_7">
     <g id="line2d_13">
      <path d="M 488.866342 305.131875 
L 488.866342 27.931875 
" clip-path="url(#p7b77a9fdfd)" style="fill: none; stroke: #b0b0b0; stroke-width: 0.8; stroke-linecap: square"/>
     </g>
     <g id="line2d_14">
      <g>
       <use xlink:href="#m318ddc2b78" x="488.866342" y="305.131875" style="stroke: #000000; stroke-width: 0.8"/>
      </g>
     </g>
     <g id="text_7">
      <!-- 300 -->
      <g transform="translate(475.366342 324.425313)scale(0.18 -0.18)">
       <defs>
        <path id="STIXGeneral-Regular-33" d="M 390 3264 
L 288 3290 
Q 435 3770 748 4048 
Q 1062 4326 1542 4326 
Q 1990 4326 2265 4083 
Q 2541 3840 2541 3450 
Q 2541 2925 1946 2566 
Q 2298 2413 2477 2227 
Q 2758 1914 2758 1402 
Q 2758 890 2464 506 
Q 2246 211 1840 60 
Q 1434 -90 979 -90 
Q 262 -90 262 275 
Q 262 378 339 442 
Q 416 506 525 506 
Q 685 506 915 339 
Q 1197 141 1466 141 
Q 1818 141 2058 425 
Q 2298 710 2298 1120 
Q 2298 1856 1632 2048 
Q 1434 2112 979 2112 
L 979 2202 
Q 1338 2323 1517 2432 
Q 2035 2726 2035 3290 
Q 2035 3610 1852 3776 
Q 1670 3942 1344 3942 
Q 768 3942 390 3264 
z
" transform="scale(0.015625)"/>
       </defs>
       <use xlink:href="#STIXGeneral-Regular-33"/>
       <use xlink:href="#STIXGeneral-Regular-30" x="49.999985"/>
       <use xlink:href="#STIXGeneral-Regular-30" x="99.999969"/>
      </g>
     </g>
    </g>
    <g id="text_8">
     <!-- Epoch -->
     <g transform="translate(261.605 344.625313)scale(0.18 -0.18)">
      <defs>
       <path id="STIXGeneral-Regular-45" d="M 3821 1082 
L 3526 0 
L 77 0 
L 77 122 
Q 442 147 538 252 
Q 634 358 634 730 
L 634 3520 
Q 634 3878 534 3987 
Q 435 4096 77 4115 
L 77 4237 
L 3469 4237 
L 3494 3322 
L 3334 3322 
Q 3264 3750 3085 3872 
Q 2906 3994 2349 3994 
L 1510 3994 
Q 1370 3994 1328 3952 
Q 1286 3910 1286 3763 
L 1286 2355 
L 2253 2355 
Q 2656 2355 2787 2470 
Q 2918 2586 2976 2970 
L 3123 2970 
L 3123 1472 
L 2976 1472 
Q 2918 1875 2790 1984 
Q 2662 2093 2253 2093 
L 1286 2093 
L 1286 538 
Q 1286 346 1420 291 
Q 1555 237 1933 237 
L 2163 237 
Q 2848 237 3136 403 
Q 3424 570 3642 1082 
L 3821 1082 
z
" transform="scale(0.015625)"/>
       <path id="STIXGeneral-Regular-70" d="M 1018 2931 
L 1018 2438 
Q 1421 2944 1939 2944 
Q 2406 2944 2707 2560 
Q 3008 2176 3008 1581 
Q 3008 883 2621 409 
Q 2234 -64 1664 -64 
Q 1466 -64 1328 -6 
Q 1190 51 1018 211 
L 1018 -794 
Q 1018 -1094 1120 -1180 
Q 1222 -1267 1581 -1274 
L 1581 -1389 
L 32 -1389 
L 32 -1280 
Q 314 -1254 397 -1171 
Q 480 -1088 480 -838 
L 480 2157 
Q 480 2381 429 2451 
Q 378 2522 218 2522 
Q 115 2522 58 2515 
L 58 2618 
Q 506 2752 979 2944 
L 1018 2931 
z
M 1018 2138 
L 1018 563 
Q 1018 422 1238 281 
Q 1459 141 1683 141 
Q 2029 141 2243 467 
Q 2458 794 2458 1325 
Q 2458 1888 2243 2224 
Q 2029 2560 1670 2560 
Q 1446 2560 1232 2419 
Q 1018 2278 1018 2138 
z
" transform="scale(0.015625)"/>
       <path id="STIXGeneral-Regular-6f" d="M 3008 1478 
Q 3008 806 2608 371 
Q 2208 -64 1568 -64 
Q 979 -64 582 368 
Q 186 800 186 1459 
Q 186 2125 582 2534 
Q 979 2944 1626 2944 
Q 2221 2944 2614 2537 
Q 3008 2131 3008 1478 
z
M 2432 1306 
Q 2432 2035 2112 2445 
Q 1856 2765 1504 2765 
Q 1171 2765 966 2493 
Q 762 2221 762 1747 
Q 762 928 1101 435 
Q 1318 115 1677 115 
Q 2029 115 2230 432 
Q 2432 749 2432 1306 
z
" transform="scale(0.015625)"/>
       <path id="STIXGeneral-Regular-63" d="M 2547 998 
L 2637 941 
Q 2362 403 2112 205 
Q 1786 -64 1376 -64 
Q 845 -64 502 336 
Q 160 736 160 1357 
Q 160 2170 698 2618 
Q 1094 2944 1562 2944 
Q 1965 2944 2256 2749 
Q 2547 2554 2547 2285 
Q 2547 2176 2457 2096 
Q 2368 2016 2246 2016 
Q 2022 2016 1939 2310 
L 1901 2451 
Q 1850 2630 1773 2694 
Q 1696 2758 1523 2758 
Q 1133 2758 893 2451 
Q 653 2144 653 1645 
Q 653 1094 928 745 
Q 1203 397 1645 397 
Q 1920 397 2118 528 
Q 2317 659 2547 998 
z
" transform="scale(0.015625)"/>
       <path id="STIXGeneral-Regular-68" d="M 3117 0 
L 1760 0 
L 1760 96 
Q 2042 128 2118 224 
Q 2195 320 2195 653 
L 2195 1920 
Q 2195 2598 1722 2598 
Q 1530 2598 1370 2508 
Q 1210 2419 1005 2195 
L 1005 653 
Q 1005 320 1081 224 
Q 1158 128 1440 96 
L 1440 0 
L 58 0 
L 58 96 
Q 333 134 400 224 
Q 467 314 467 653 
L 467 3667 
Q 467 3872 406 3933 
Q 346 3994 141 3994 
Q 83 3994 64 3987 
L 64 4090 
L 237 4141 
Q 730 4288 973 4371 
L 1005 4352 
L 1005 2406 
Q 1229 2694 1446 2819 
Q 1664 2944 1946 2944 
Q 2733 2944 2733 1926 
L 2733 653 
Q 2733 320 2793 233 
Q 2854 147 3117 96 
L 3117 0 
z
" transform="scale(0.015625)"/>
      </defs>
      <use xlink:href="#STIXGeneral-Regular-45"/>
      <use xlink:href="#STIXGeneral-Regular-70" x="61.099991"/>
      <use xlink:href="#STIXGeneral-Regular-6f" x="111.099976"/>
      <use xlink:href="#STIXGeneral-Regular-63" x="161.09996"/>
      <use xlink:href="#STIXGeneral-Regular-68" x="205.499954"/>
     </g>
    </g>
   </g>
   <g id="matplotlib.axis_2">
    <g id="ytick_1">
     <g id="line2d_15">
      <path d="M 61.4 298.35915 
L 507.8 298.35915 
" clip-path="url(#p7b77a9fdfd)" style="fill: none; stroke: #b0b0b0; stroke-width: 0.8; stroke-linecap: square"/>
     </g>
     <g id="line2d_16">
      <defs>
       <path id="m6ba2a6ee0a" d="M 0 0 
L -3.5 0 
" style="stroke: #000000; stroke-width: 0.8"/>
      </defs>
      <g>
       <use xlink:href="#m6ba2a6ee0a" x="61.4" y="298.35915" style="stroke: #000000; stroke-width: 0.8"/>
      </g>
     </g>
     <g id="text_9">
      <!-- 300 -->
      <g transform="translate(27.4 304.505869)scale(0.18 -0.18)">
       <use xlink:href="#STIXGeneral-Regular-33"/>
       <use xlink:href="#STIXGeneral-Regular-30" x="49.999985"/>
       <use xlink:href="#STIXGeneral-Regular-30" x="99.999969"/>
      </g>
     </g>
    </g>
    <g id="ytick_2">
     <g id="line2d_17">
      <path d="M 61.4 257.207062 
L 507.8 257.207062 
" clip-path="url(#p7b77a9fdfd)" style="fill: none; stroke: #b0b0b0; stroke-width: 0.8; stroke-linecap: square"/>
     </g>
     <g id="line2d_18">
      <g>
       <use xlink:href="#m6ba2a6ee0a" x="61.4" y="257.207062" style="stroke: #000000; stroke-width: 0.8"/>
      </g>
     </g>
     <g id="text_10">
      <!-- 350 -->
      <g transform="translate(27.4 263.353781)scale(0.18 -0.18)">
       <use xlink:href="#STIXGeneral-Regular-33"/>
       <use xlink:href="#STIXGeneral-Regular-35" x="49.999985"/>
       <use xlink:href="#STIXGeneral-Regular-30" x="99.999969"/>
      </g>
     </g>
    </g>
    <g id="ytick_3">
     <g id="line2d_19">
      <path d="M 61.4 216.054974 
L 507.8 216.054974 
" clip-path="url(#p7b77a9fdfd)" style="fill: none; stroke: #b0b0b0; stroke-width: 0.8; stroke-linecap: square"/>
     </g>
     <g id="line2d_20">
      <g>
       <use xlink:href="#m6ba2a6ee0a" x="61.4" y="216.054974" style="stroke: #000000; stroke-width: 0.8"/>
      </g>
     </g>
     <g id="text_11">
      <!-- 400 -->
      <g transform="translate(27.4 222.201693)scale(0.18 -0.18)">
       <defs>
        <path id="STIXGeneral-Regular-34" d="M 3027 1069 
L 2368 1069 
L 2368 0 
L 1869 0 
L 1869 1069 
L 77 1069 
L 77 1478 
L 2086 4326 
L 2368 4326 
L 2368 1478 
L 3027 1478 
L 3027 1069 
z
M 1869 1478 
L 1869 3674 
L 333 1478 
L 1869 1478 
z
" transform="scale(0.015625)"/>
       </defs>
       <use xlink:href="#STIXGeneral-Regular-34"/>
       <use xlink:href="#STIXGeneral-Regular-30" x="49.999985"/>
       <use xlink:href="#STIXGeneral-Regular-30" x="99.999969"/>
      </g>
     </g>
    </g>
    <g id="ytick_4">
     <g id="line2d_21">
      <path d="M 61.4 174.902886 
L 507.8 174.902886 
" clip-path="url(#p7b77a9fdfd)" style="fill: none; stroke: #b0b0b0; stroke-width: 0.8; stroke-linecap: square"/>
     </g>
     <g id="line2d_22">
      <g>
       <use xlink:href="#m6ba2a6ee0a" x="61.4" y="174.902886" style="stroke: #000000; stroke-width: 0.8"/>
      </g>
     </g>
     <g id="text_12">
      <!-- 450 -->
      <g transform="translate(27.4 181.049605)scale(0.18 -0.18)">
       <use xlink:href="#STIXGeneral-Regular-34"/>
       <use xlink:href="#STIXGeneral-Regular-35" x="49.999985"/>
       <use xlink:href="#STIXGeneral-Regular-30" x="99.999969"/>
      </g>
     </g>
    </g>
    <g id="ytick_5">
     <g id="line2d_23">
      <path d="M 61.4 133.750798 
L 507.8 133.750798 
" clip-path="url(#p7b77a9fdfd)" style="fill: none; stroke: #b0b0b0; stroke-width: 0.8; stroke-linecap: square"/>
     </g>
     <g id="line2d_24">
      <g>
       <use xlink:href="#m6ba2a6ee0a" x="61.4" y="133.750798" style="stroke: #000000; stroke-width: 0.8"/>
      </g>
     </g>
     <g id="text_13">
      <!-- 500 -->
      <g transform="translate(27.4 139.897517)scale(0.18 -0.18)">
       <use xlink:href="#STIXGeneral-Regular-35"/>
       <use xlink:href="#STIXGeneral-Regular-30" x="49.999985"/>
       <use xlink:href="#STIXGeneral-Regular-30" x="99.999969"/>
      </g>
     </g>
    </g>
    <g id="ytick_6">
     <g id="line2d_25">
      <path d="M 61.4 92.59871 
L 507.8 92.59871 
" clip-path="url(#p7b77a9fdfd)" style="fill: none; stroke: #b0b0b0; stroke-width: 0.8; stroke-linecap: square"/>
     </g>
     <g id="line2d_26">
      <g>
       <use xlink:href="#m6ba2a6ee0a" x="61.4" y="92.59871" style="stroke: #000000; stroke-width: 0.8"/>
      </g>
     </g>
     <g id="text_14">
      <!-- 550 -->
      <g transform="translate(27.4 98.745429)scale(0.18 -0.18)">
       <use xlink:href="#STIXGeneral-Regular-35"/>
       <use xlink:href="#STIXGeneral-Regular-35" x="49.999985"/>
       <use xlink:href="#STIXGeneral-Regular-30" x="99.999969"/>
      </g>
     </g>
    </g>
    <g id="ytick_7">
     <g id="line2d_27">
      <path d="M 61.4 51.446622 
L 507.8 51.446622 
" clip-path="url(#p7b77a9fdfd)" style="fill: none; stroke: #b0b0b0; stroke-width: 0.8; stroke-linecap: square"/>
     </g>
     <g id="line2d_28">
      <g>
       <use xlink:href="#m6ba2a6ee0a" x="61.4" y="51.446622" style="stroke: #000000; stroke-width: 0.8"/>
      </g>
     </g>
     <g id="text_15">
      <!-- 600 -->
      <g transform="translate(27.4 57.593341)scale(0.18 -0.18)">
       <defs>
        <path id="STIXGeneral-Regular-36" d="M 2854 4378 
L 2867 4275 
Q 2112 4154 1606 3664 
Q 1101 3174 973 2451 
Q 1344 2739 1786 2739 
Q 2349 2739 2672 2380 
Q 2995 2022 2995 1402 
Q 2995 774 2669 378 
Q 2291 -90 1651 -90 
Q 870 -90 518 557 
Q 218 1107 218 1786 
Q 218 2835 915 3552 
Q 1312 3962 1731 4131 
Q 2150 4301 2854 4378 
z
M 2419 1203 
Q 2419 2445 1555 2445 
Q 1235 2445 1024 2275 
Q 813 2106 813 1702 
Q 813 954 1046 522 
Q 1280 90 1722 90 
Q 2061 90 2240 394 
Q 2419 698 2419 1203 
z
" transform="scale(0.015625)"/>
       </defs>
       <use xlink:href="#STIXGeneral-Regular-36"/>
       <use xlink:href="#STIXGeneral-Regular-30" x="49.999985"/>
       <use xlink:href="#STIXGeneral-Regular-30" x="99.999969"/>
      </g>
     </g>
    </g>
    <g id="text_16">
     <!-- Average Return -->
     <g transform="translate(19.476562 223.764844)rotate(-90)scale(0.18 -0.18)">
      <defs>
       <path id="STIXGeneral-Regular-41" d="M 4525 0 
L 2893 0 
L 2893 122 
Q 3149 122 3245 179 
Q 3334 224 3334 333 
Q 3334 499 3213 781 
L 2950 1382 
L 1274 1382 
L 979 653 
Q 922 506 922 384 
Q 922 237 1027 179 
Q 1133 122 1370 122 
L 1370 0 
L 96 0 
L 96 122 
Q 365 147 486 316 
Q 608 486 902 1190 
L 2221 4314 
L 2349 4314 
L 3923 710 
Q 4064 378 4176 262 
Q 4288 147 4525 122 
L 4525 0 
z
M 2861 1645 
L 2118 3405 
L 1382 1645 
L 2861 1645 
z
" transform="scale(0.015625)"/>
       <path id="STIXGeneral-Regular-76" d="M 3053 2880 
L 3053 2784 
Q 2906 2771 2835 2688 
Q 2765 2605 2637 2285 
L 1818 230 
Q 1690 -90 1638 -90 
Q 1587 -90 1523 77 
Q 1510 96 1497 141 
Q 1485 186 1472 211 
L 704 2048 
Q 499 2534 403 2652 
Q 307 2771 122 2784 
L 122 2880 
L 1376 2880 
L 1376 2784 
Q 1210 2771 1146 2732 
Q 1082 2694 1082 2611 
Q 1082 2509 1139 2368 
L 1792 730 
L 2426 2387 
Q 2464 2483 2464 2579 
Q 2464 2758 2163 2784 
L 2163 2880 
L 3053 2880 
z
" transform="scale(0.015625)"/>
       <path id="STIXGeneral-Regular-65" d="M 2611 1050 
L 2714 1005 
Q 2330 -64 1376 -64 
Q 813 -64 486 329 
Q 160 723 160 1389 
Q 160 2074 525 2509 
Q 890 2944 1485 2944 
Q 2061 2944 2374 2502 
Q 2560 2246 2592 1773 
L 621 1773 
Q 646 1370 700 1158 
Q 755 947 915 730 
Q 1184 378 1626 378 
Q 1939 378 2153 531 
Q 2368 685 2611 1050 
z
M 634 1978 
L 1939 1978 
Q 1882 2381 1750 2547 
Q 1619 2714 1312 2714 
Q 1043 2714 864 2525 
Q 685 2336 634 1978 
z
" transform="scale(0.015625)"/>
       <path id="STIXGeneral-Regular-72" d="M 1024 2931 
L 1024 2342 
Q 1267 2688 1430 2816 
Q 1594 2944 1792 2944 
Q 1958 2944 2051 2854 
Q 2144 2765 2144 2605 
Q 2144 2470 2077 2393 
Q 2010 2317 1894 2317 
Q 1773 2317 1638 2445 
Q 1536 2541 1472 2541 
Q 1338 2541 1181 2355 
Q 1024 2170 1024 2016 
L 1024 576 
Q 1024 301 1133 205 
Q 1242 109 1568 96 
L 1568 0 
L 32 0 
L 32 96 
Q 339 154 412 224 
Q 486 294 486 538 
L 486 2138 
Q 486 2349 438 2435 
Q 390 2522 269 2522 
Q 166 2522 45 2496 
L 45 2598 
Q 448 2726 992 2944 
L 1024 2931 
z
" transform="scale(0.015625)"/>
       <path id="STIXGeneral-Regular-61" d="M 2829 422 
L 2829 243 
Q 2586 -64 2253 -64 
Q 1888 -64 1843 403 
L 1837 403 
Q 1427 -64 909 -64 
Q 608 -64 422 112 
Q 237 288 237 602 
Q 237 1050 685 1350 
Q 992 1555 1837 1869 
L 1837 2214 
Q 1837 2502 1699 2646 
Q 1562 2790 1338 2790 
Q 1146 2790 1018 2697 
Q 890 2605 890 2477 
Q 890 2419 909 2348 
Q 928 2278 928 2208 
Q 928 2112 841 2029 
Q 755 1946 634 1946 
Q 525 1946 441 2029 
Q 358 2112 358 2240 
Q 358 2547 685 2752 
Q 986 2944 1421 2944 
Q 1939 2944 2176 2656 
Q 2291 2522 2323 2384 
Q 2355 2246 2355 1946 
L 2355 723 
Q 2355 301 2554 301 
Q 2682 301 2829 422 
z
M 1837 813 
L 1837 1715 
Q 1248 1510 1018 1293 
Q 800 1094 800 800 
Q 800 557 921 432 
Q 1043 307 1242 307 
Q 1453 307 1613 410 
Q 1747 506 1792 589 
Q 1837 672 1837 813 
z
" transform="scale(0.015625)"/>
       <path id="STIXGeneral-Regular-67" d="M 3008 2483 
L 2477 2483 
Q 2598 2208 2598 1946 
Q 2598 1453 2265 1203 
Q 1933 954 1600 954 
Q 1530 954 1357 973 
L 1235 986 
Q 1107 947 979 812 
Q 851 678 851 582 
Q 851 435 1350 410 
L 2176 371 
Q 2528 358 2739 172 
Q 2950 -13 2950 -314 
Q 2950 -685 2566 -986 
Q 2035 -1395 1286 -1395 
Q 826 -1395 502 -1212 
Q 179 -1030 179 -774 
Q 179 -595 320 -419 
Q 461 -243 806 6 
Q 602 102 534 172 
Q 467 243 467 346 
Q 467 531 762 787 
Q 909 915 1037 1043 
Q 717 1203 579 1401 
Q 442 1600 442 1901 
Q 442 2336 752 2640 
Q 1062 2944 1510 2944 
Q 1766 2944 2022 2848 
L 2163 2797 
Q 2349 2733 2515 2733 
L 3008 2733 
L 3008 2483 
z
M 973 2163 
L 973 2144 
Q 973 1683 1155 1398 
Q 1338 1114 1632 1114 
Q 1850 1114 1978 1270 
Q 2106 1427 2106 1690 
Q 2106 2112 1914 2464 
Q 1754 2765 1446 2765 
Q 1222 2765 1097 2605 
Q 973 2445 973 2163 
z
M 2771 -410 
Q 2771 -230 2595 -163 
Q 2419 -96 1978 -96 
Q 1344 -96 941 -13 
Q 749 -243 688 -348 
Q 627 -454 627 -563 
Q 627 -774 880 -902 
Q 1133 -1030 1555 -1030 
Q 2099 -1030 2435 -860 
Q 2771 -691 2771 -410 
z
" transform="scale(0.015625)"/>
       <path id="STIXGeneral-Regular-20" transform="scale(0.015625)"/>
       <path id="STIXGeneral-Regular-52" d="M 4224 0 
L 3187 0 
L 1664 1971 
L 1306 1958 
L 1306 717 
Q 1306 352 1405 249 
Q 1504 147 1875 122 
L 1875 0 
L 109 0 
L 109 122 
Q 474 154 563 262 
Q 653 371 653 794 
L 653 3526 
Q 653 3885 563 3987 
Q 474 4090 109 4115 
L 109 4237 
L 1850 4237 
Q 2726 4237 3187 3859 
Q 3501 3603 3501 3091 
Q 3501 2221 2342 2042 
L 3622 422 
Q 3757 256 3878 198 
Q 4000 141 4224 122 
L 4224 0 
z
M 1306 3731 
L 1306 2195 
Q 1766 2202 1990 2246 
Q 2214 2291 2438 2413 
Q 2803 2618 2803 3142 
Q 2803 4000 1632 4000 
Q 1459 4000 1382 3945 
Q 1306 3891 1306 3731 
z
" transform="scale(0.015625)"/>
       <path id="STIXGeneral-Regular-74" d="M 1702 493 
L 1786 422 
Q 1478 -64 1011 -64 
Q 448 -64 448 749 
L 448 2675 
L 109 2675 
Q 83 2694 83 2720 
Q 83 2771 192 2842 
Q 435 2982 813 3526 
Q 826 3546 874 3606 
Q 922 3667 941 3706 
Q 986 3706 986 3622 
L 986 2880 
L 1632 2880 
L 1632 2675 
L 986 2675 
L 986 845 
Q 986 538 1062 403 
Q 1139 269 1318 269 
Q 1510 269 1702 493 
z
" transform="scale(0.015625)"/>
       <path id="STIXGeneral-Regular-75" d="M 3072 320 
L 3072 230 
Q 2573 96 2195 -58 
L 2163 -38 
L 2163 486 
L 2150 486 
Q 1747 -64 1235 -64 
Q 870 -64 662 160 
Q 454 384 454 755 
L 454 2362 
Q 454 2598 371 2688 
Q 288 2778 58 2790 
L 58 2880 
L 992 2880 
L 992 813 
Q 992 595 1123 451 
Q 1254 307 1446 307 
Q 1760 307 1984 506 
Q 2067 582 2099 649 
Q 2131 717 2131 877 
L 2131 2355 
Q 2131 2605 2041 2678 
Q 1952 2752 1658 2771 
L 1658 2880 
L 2669 2880 
L 2669 685 
Q 2669 461 2742 390 
Q 2816 320 3034 320 
L 3072 320 
z
" transform="scale(0.015625)"/>
       <path id="STIXGeneral-Regular-6e" d="M 3104 0 
L 1773 0 
L 1779 96 
Q 2016 115 2096 233 
Q 2176 352 2176 672 
L 2176 1946 
Q 2176 2592 1709 2592 
Q 1549 2592 1408 2515 
Q 1267 2438 1050 2227 
L 1050 461 
Q 1050 269 1136 192 
Q 1222 115 1466 96 
L 1466 0 
L 115 0 
L 115 96 
Q 358 115 435 214 
Q 512 314 512 602 
L 512 2157 
Q 512 2394 467 2483 
Q 422 2573 288 2573 
Q 160 2573 102 2547 
L 102 2656 
Q 550 2784 979 2944 
L 1030 2925 
L 1030 2426 
L 1037 2426 
Q 1491 2944 1958 2944 
Q 2323 2944 2518 2688 
Q 2714 2432 2714 1958 
L 2714 544 
Q 2714 288 2790 205 
Q 2867 122 3104 96 
L 3104 0 
z
" transform="scale(0.015625)"/>
      </defs>
      <use xlink:href="#STIXGeneral-Regular-41"/>
      <use xlink:href="#STIXGeneral-Regular-76" x="72.199982"/>
      <use xlink:href="#STIXGeneral-Regular-65" x="122.199966"/>
      <use xlink:href="#STIXGeneral-Regular-72" x="166.59996"/>
      <use xlink:href="#STIXGeneral-Regular-61" x="199.899948"/>
      <use xlink:href="#STIXGeneral-Regular-67" x="244.299942"/>
      <use xlink:href="#STIXGeneral-Regular-65" x="294.299927"/>
      <use xlink:href="#STIXGeneral-Regular-20" x="338.699921"/>
      <use xlink:href="#STIXGeneral-Regular-52" x="363.699905"/>
      <use xlink:href="#STIXGeneral-Regular-65" x="430.399902"/>
      <use xlink:href="#STIXGeneral-Regular-74" x="474.799896"/>
      <use xlink:href="#STIXGeneral-Regular-75" x="502.599884"/>
      <use xlink:href="#STIXGeneral-Regular-72" x="552.599869"/>
      <use xlink:href="#STIXGeneral-Regular-6e" x="585.899857"/>
     </g>
    </g>
   </g>
   <g id="line2d_29">
    <path d="M 81.690909 250.596204 
L 83.048161 249.467536 
L 84.405412 257.327223 
L 85.762663 250.33182 
L 87.119915 241.894135 
L 88.477166 234.74931 
L 89.834418 212.832156 
L 91.191669 229.211837 
L 92.548921 223.720003 
L 93.906172 239.970582 
L 95.263424 253.156053 
L 96.620675 217.481583 
L 97.977926 238.025176 
L 99.335178 219.138819 
L 100.692429 215.103232 
L 102.049681 232.40135 
L 103.406932 221.305432 
L 104.764184 192.809369 
L 106.121435 201.135634 
L 107.478687 200.631255 
L 108.835938 208.629288 
L 110.193189 196.836392 
L 111.550441 215.256246 
L 112.907692 189.650424 
L 114.264944 217.083123 
L 115.622195 185.048217 
L 116.979447 221.629219 
L 118.336698 220.416709 
L 121.051201 194.28227 
L 122.408452 187.803604 
L 123.765704 201.925572 
L 125.122955 170.427044 
L 126.480207 202.370549 
L 127.837458 175.836645 
L 129.19471 185.912301 
L 130.551961 178.423897 
L 131.909213 192.4249 
L 133.266464 205.058395 
L 134.623715 168.424472 
L 135.980967 172.437981 
L 137.338218 148.795197 
L 138.69547 155.251785 
L 140.052721 164.576209 
L 141.409973 158.410554 
L 142.767224 191.382459 
L 144.124476 180.47708 
L 145.481727 175.31825 
L 146.838978 169.036403 
L 148.19623 171.790986 
L 149.553481 169.311487 
L 150.910733 164.259656 
L 152.267984 167.004067 
L 153.625236 192.096969 
L 154.982487 161.763605 
L 156.339739 185.390766 
L 157.69699 174.440578 
L 160.411493 179.034773 
L 161.768744 195.733921 
L 163.125996 144.534308 
L 164.483247 140.200102 
L 165.840499 150.383586 
L 167.19775 156.076409 
L 168.555002 149.534598 
L 169.912253 167.326296 
L 171.269504 169.664836 
L 172.626756 166.043382 
L 173.984007 180.15573 
L 175.341259 164.142409 
L 176.69851 152.320603 
L 178.055762 178.280201 
L 179.413013 161.783574 
L 180.770265 178.18036 
L 182.127516 190.720695 
L 184.842019 149.565995 
L 186.19927 177.596409 
L 187.556522 146.968772 
L 188.913773 158.767345 
L 190.271025 134.694755 
L 191.628276 141.869947 
L 192.985528 90.867178 
L 194.342779 118.367091 
L 195.70003 136.598315 
L 197.057282 144.480608 
L 198.414533 129.800258 
L 199.771785 121.96393 
L 202.486288 147.996343 
L 203.843539 132.853962 
L 205.200791 98.834719 
L 206.558042 98.055833 
L 207.915293 103.835662 
L 209.272545 100.89167 
L 210.629796 132.636346 
L 211.987048 116.636212 
L 213.344299 139.56662 
L 214.701551 133.270557 
L 216.058802 124.195547 
L 217.416054 147.429397 
L 218.773305 108.386504 
L 220.130556 145.326983 
L 221.487808 141.162519 
L 222.845059 129.917606 
L 224.202311 131.792734 
L 225.559562 122.776975 
L 226.916814 106.790303 
L 228.274065 128.375533 
L 229.631317 122.507216 
L 230.988568 112.720986 
L 232.345819 117.323871 
L 233.703071 125.549366 
L 235.060322 95.647039 
L 237.774825 151.704477 
L 239.132077 98.292287 
L 240.489328 113.81429 
L 241.84658 112.73244 
L 243.203831 105.128195 
L 244.561082 110.576376 
L 245.918334 118.526585 
L 247.275585 120.435797 
L 248.632837 112.127968 
L 249.990088 111.119712 
L 251.34734 119.27749 
L 252.704591 114.990128 
L 254.061843 124.915809 
L 255.419094 131.881975 
L 258.133597 134.704525 
L 259.490848 147.541143 
L 260.8481 114.316233 
L 262.205351 116.847849 
L 263.562603 101.028911 
L 264.919854 97.24751 
L 266.277106 97.937933 
L 267.634357 78.186488 
L 268.991608 139.182879 
L 270.34886 138.686889 
L 271.706111 111.178938 
L 273.063363 94.107151 
L 274.420614 100.835809 
L 275.777866 113.211777 
L 278.492369 93.203785 
L 279.84962 110.302296 
L 281.206871 102.040332 
L 282.564123 99.450744 
L 283.921374 89.853748 
L 285.278626 83.071339 
L 286.635877 102.51339 
L 287.993129 74.014614 
L 289.35038 100.682443 
L 290.707631 94.532035 
L 292.064883 104.156308 
L 293.422134 84.962115 
L 294.779386 91.582818 
L 296.136637 102.300396 
L 297.493889 95.221855 
L 298.85114 79.928921 
L 300.208392 72.438658 
L 301.565643 80.221838 
L 302.922894 100.340648 
L 304.280146 91.083186 
L 305.637397 73.383519 
L 306.994649 86.565298 
L 308.3519 85.95299 
L 309.709152 58.986919 
L 311.066403 75.14263 
L 312.423655 74.790687 
L 313.780906 80.593272 
L 315.138157 101.734052 
L 316.495409 108.326624 
L 317.85266 94.029188 
L 319.209912 114.609451 
L 320.567163 117.137803 
L 321.924415 94.398662 
L 323.281666 96.008928 
L 324.638918 121.480825 
L 325.996169 122.863178 
L 327.35342 121.948609 
L 328.710672 120.125248 
L 330.067923 110.442802 
L 331.425175 131.684328 
L 332.782426 112.679643 
L 335.496929 130.280349 
L 336.854181 122.285029 
L 338.211432 125.993941 
L 339.568683 98.510957 
L 340.925935 106.383856 
L 342.283186 100.223451 
L 343.640438 95.175689 
L 344.997689 133.773756 
L 346.354941 129.295804 
L 347.712192 118.394218 
L 349.069444 133.131533 
L 350.426695 113.453405 
L 351.783946 118.48896 
L 353.141198 112.213919 
L 354.498449 109.43545 
L 355.855701 126.25393 
L 357.212952 117.305234 
L 358.570204 113.123766 
L 359.927455 107.029872 
L 361.284707 115.936948 
L 362.641958 116.450796 
L 363.999209 95.100438 
L 365.356461 102.862218 
L 366.713712 76.830709 
L 368.070964 79.424567 
L 369.428215 99.127686 
L 370.785467 81.019361 
L 372.142718 74.329283 
L 373.49997 86.069534 
L 374.857221 83.578456 
L 376.214472 64.504976 
L 377.571724 76.39603 
L 378.928975 66.215711 
L 380.286227 70.866269 
L 381.643478 67.030816 
L 383.00073 85.296023 
L 384.357981 99.98549 
L 385.715233 47.85988 
L 387.072484 43.640385 
L 388.429735 79.566127 
L 389.786987 73.634138 
L 391.144238 75.902075 
L 393.858741 99.622998 
L 395.215993 78.594994 
L 396.573244 84.923836 
L 397.930496 72.171813 
L 399.287747 90.086986 
L 400.644998 89.979384 
L 402.00225 101.250545 
L 403.359501 109.192868 
L 404.716753 90.558135 
L 406.074004 98.184333 
L 407.431256 76.927712 
L 408.788507 68.546691 
L 410.145759 115.571944 
L 411.50301 79.632286 
L 412.860261 83.73785 
L 414.217513 96.280345 
L 415.574764 123.599163 
L 416.932016 106.01202 
L 418.289267 101.069852 
L 419.646519 106.822252 
L 421.00377 72.380939 
L 422.361022 74.862824 
L 423.718273 99.359267 
L 425.075524 85.858599 
L 426.432776 92.70576 
L 427.790027 84.133899 
L 429.147279 93.809361 
L 430.50453 85.22891 
L 431.861782 100.039341 
L 433.219033 74.803899 
L 434.576285 102.956257 
L 435.933536 89.190602 
L 437.290787 94.537008 
L 438.648039 79.970716 
L 440.00529 45.769423 
L 441.362542 77.917281 
L 442.719793 66.534549 
L 444.077045 65.428084 
L 445.434296 42.6047 
L 446.791548 73.104014 
L 448.148799 66.316833 
L 449.50605 82.558294 
L 450.863302 61.498743 
L 452.220553 66.558411 
L 453.577805 95.66638 
L 454.935056 40.531875 
L 456.292308 52.069982 
L 457.649559 59.759977 
L 459.006811 77.969776 
L 460.364062 53.028657 
L 463.078565 75.732784 
L 464.435816 64.907605 
L 465.793068 79.847441 
L 467.150319 85.975043 
L 468.507571 64.759865 
L 469.864822 99.003959 
L 471.222074 64.457605 
L 472.579325 89.258871 
L 473.936576 91.51887 
L 475.293828 95.465944 
L 476.651079 79.53026 
L 478.008331 62.229153 
L 479.365582 85.667758 
L 480.722834 71.560409 
L 482.080085 64.49302 
L 483.437337 109.69687 
L 484.794588 92.37803 
L 486.151839 96.078302 
L 487.509091 68.862315 
L 487.509091 68.862315 
" clip-path="url(#p7b77a9fdfd)" style="fill: none; stroke: #1f77b4; stroke-width: 1.5; stroke-linecap: square"/>
   </g>
   <g id="line2d_30">
    <path d="M 81.690909 241.950373 
L 83.048161 243.097276 
L 84.405412 247.889771 
L 85.762663 249.065158 
L 87.119915 245.253416 
L 88.477166 235.207172 
L 89.834418 218.678922 
L 91.191669 244.963111 
L 92.548921 226.466498 
L 93.906172 231.654087 
L 95.263424 251.244732 
L 96.620675 224.364059 
L 97.977926 237.312424 
L 99.335178 231.351826 
L 100.692429 237.38657 
L 102.049681 227.25116 
L 103.406932 220.563544 
L 104.764184 209.635786 
L 106.121435 227.674587 
L 107.478687 219.746254 
L 108.835938 212.563527 
L 110.193189 203.272107 
L 111.550441 214.494013 
L 112.907692 196.276654 
L 114.264944 229.582442 
L 115.622195 195.242577 
L 116.979447 224.167743 
L 118.336698 212.726563 
L 119.69395 224.77018 
L 121.051201 240.635988 
L 122.408452 209.673914 
L 123.765704 230.240213 
L 125.122955 191.665882 
L 126.480207 206.124547 
L 129.19471 227.531946 
L 130.551961 209.747131 
L 131.909213 216.965826 
L 133.266464 228.581043 
L 134.623715 223.155116 
L 135.980967 224.533374 
L 137.338218 210.133886 
L 138.69547 203.886274 
L 140.052721 199.372454 
L 141.409973 197.074905 
L 142.767224 214.327762 
L 144.124476 210.384858 
L 145.481727 194.799861 
L 146.838978 186.546009 
L 148.19623 188.684742 
L 149.553481 212.363719 
L 150.910733 220.427308 
L 152.267984 179.755562 
L 153.625236 210.938467 
L 154.982487 187.101075 
L 156.339739 196.665896 
L 157.69699 196.939975 
L 159.054241 190.946173 
L 160.411493 187.207521 
L 161.768744 215.411069 
L 163.125996 169.646526 
L 164.483247 194.407228 
L 165.840499 190.264491 
L 167.19775 188.555162 
L 168.555002 179.418765 
L 169.912253 188.002055 
L 171.269504 183.426598 
L 172.626756 164.018255 
L 173.984007 193.847616 
L 175.341259 153.531204 
L 176.69851 147.787192 
L 178.055762 185.289996 
L 179.413013 168.189902 
L 180.770265 173.311634 
L 182.127516 163.180946 
L 183.484767 149.343984 
L 184.842019 125.616479 
L 186.19927 154.713874 
L 187.556522 137.494247 
L 188.913773 176.082643 
L 190.271025 162.453752 
L 191.628276 153.716267 
L 192.985528 179.622567 
L 194.342779 158.944898 
L 195.70003 172.958058 
L 197.057282 194.45063 
L 198.414533 158.523305 
L 199.771785 146.620797 
L 201.129036 169.692591 
L 202.486288 176.63035 
L 203.843539 185.929506 
L 205.200791 140.090214 
L 206.558042 168.6234 
L 207.915293 140.08067 
L 209.272545 134.055496 
L 210.629796 153.4716 
L 211.987048 145.41409 
L 213.344299 157.303813 
L 214.701551 148.494443 
L 216.058802 146.438823 
L 217.416054 179.11457 
L 218.773305 157.831602 
L 220.130556 157.858929 
L 221.487808 163.65727 
L 222.845059 150.342168 
L 224.202311 171.193572 
L 225.559562 146.678768 
L 226.916814 147.094207 
L 228.274065 149.717075 
L 229.631317 171.235392 
L 232.345819 149.263508 
L 233.703071 132.116997 
L 235.060322 150.484256 
L 236.417574 147.160592 
L 237.774825 155.60958 
L 239.132077 154.803417 
L 240.489328 151.432633 
L 241.84658 154.363664 
L 243.203831 137.441224 
L 244.561082 132.753945 
L 245.918334 162.972473 
L 247.275585 164.86036 
L 248.632837 155.841588 
L 249.990088 146.047069 
L 251.34734 148.370063 
L 252.704591 144.220091 
L 254.061843 152.318116 
L 255.419094 145.987843 
L 256.776345 128.827116 
L 258.133597 153.024237 
L 260.8481 127.892001 
L 262.205351 153.033932 
L 263.562603 146.50139 
L 264.919854 145.807727 
L 266.277106 146.385449 
L 267.634357 108.72192 
L 268.991608 147.392374 
L 270.34886 131.467767 
L 271.706111 143.774085 
L 273.063363 139.896334 
L 274.420614 148.278787 
L 275.777866 124.223427 
L 277.135117 118.706726 
L 278.492369 130.948593 
L 279.84962 148.6888 
L 281.206871 136.249512 
L 282.564123 134.441548 
L 285.278626 154.045881 
L 286.635877 152.195142 
L 289.35038 132.623662 
L 290.707631 136.204502 
L 292.064883 138.775477 
L 293.422134 140.778778 
L 294.779386 126.885528 
L 296.136637 135.498431 
L 297.493889 134.373832 
L 298.85114 137.870754 
L 300.208392 145.653357 
L 301.565643 152.397788 
L 302.922894 150.518817 
L 304.280146 127.069185 
L 305.637397 145.948509 
L 306.994649 159.72288 
L 308.3519 124.612267 
L 309.709152 127.105731 
L 311.066403 130.497161 
L 312.423655 155.348838 
L 313.780906 165.029299 
L 315.138157 140.107646 
L 316.495409 162.906766 
L 317.85266 158.084105 
L 319.209912 164.48541 
L 320.567163 174.196238 
L 321.924415 153.291334 
L 323.281666 126.427013 
L 324.638918 145.259116 
L 325.996169 132.221058 
L 327.35342 127.793491 
L 328.710672 165.454082 
L 330.067923 153.922304 
L 331.425175 114.224605 
L 332.782426 136.94423 
L 334.139678 131.749331 
L 335.496929 120.406711 
L 336.854181 121.944238 
L 338.211432 123.846518 
L 339.568683 110.321486 
L 340.925935 142.65368 
L 342.283186 136.534919 
L 343.640438 127.85116 
L 344.997689 89.150214 
L 346.354941 145.210138 
L 347.712192 119.128344 
L 349.069444 127.401009 
L 350.426695 123.149966 
L 351.783946 143.516959 
L 353.141198 131.149732 
L 354.498449 97.036927 
L 355.855701 152.86522 
L 357.212952 143.453714 
L 358.570204 158.47498 
L 359.927455 126.8421 
L 361.284707 148.567258 
L 362.641958 174.255841 
L 363.999209 144.727686 
L 365.356461 179.155235 
L 366.713712 155.398143 
L 368.070964 181.118675 
L 369.428215 164.610946 
L 370.785467 176.944064 
L 372.142718 185.277161 
L 373.49997 138.435315 
L 374.857221 152.41331 
L 376.214472 172.611918 
L 377.571724 171.053795 
L 378.928975 137.71018 
L 380.286227 161.585147 
L 381.643478 149.473388 
L 383.00073 139.006983 
L 384.357981 182.395686 
L 385.715233 161.119223 
L 387.072484 165.049795 
L 388.429735 154.532427 
L 389.786987 153.130383 
L 391.144238 169.866955 
L 392.50149 150.639079 
L 393.858741 172.331559 
L 395.215993 150.413199 
L 396.573244 156.241304 
L 397.930496 145.948735 
L 399.287747 174.115637 
L 400.644998 156.998965 
L 402.00225 161.434745 
L 403.359501 140.685166 
L 404.716753 141.366044 
L 406.074004 139.593697 
L 407.431256 186.680637 
L 408.788507 162.729815 
L 410.145759 141.246562 
L 411.50301 142.867001 
L 412.860261 148.094225 
L 414.217513 136.689892 
L 415.574764 163.885234 
L 416.932016 162.72223 
L 418.289267 140.571134 
L 419.646519 148.735518 
L 421.00377 139.689293 
L 422.361022 137.068032 
L 423.718273 158.875776 
L 425.075524 150.326017 
L 426.432776 162.321987 
L 427.790027 184.82809 
L 429.147279 173.847435 
L 430.50453 168.729194 
L 431.861782 141.209665 
L 433.219033 146.682536 
L 434.576285 157.854358 
L 435.933536 173.590008 
L 437.290787 160.343803 
L 438.648039 140.660677 
L 440.00529 128.087438 
L 441.362542 129.256997 
L 442.719793 155.22511 
L 444.077045 174.338728 
L 445.434296 180.924695 
L 448.148799 147.001725 
L 449.50605 142.596212 
L 450.863302 142.078344 
L 453.577805 103.455085 
L 454.935056 156.158593 
L 456.292308 163.087862 
L 459.006811 139.125712 
L 460.364062 140.865006 
L 461.721313 140.7406 
L 463.078565 124.396761 
L 464.435816 111.85831 
L 465.793068 150.228688 
L 467.150319 163.681206 
L 468.507571 124.600889 
L 469.864822 117.906441 
L 471.222074 133.390893 
L 472.579325 118.727423 
L 473.936576 113.974739 
L 475.293828 110.566279 
L 476.651079 109.767651 
L 478.008331 106.360346 
L 479.365582 78.463631 
L 480.722834 125.430436 
L 482.080085 125.128652 
L 483.437337 110.792334 
L 484.794588 76.332182 
L 486.151839 86.398821 
L 487.509091 133.077104 
L 487.509091 133.077104 
" clip-path="url(#p7b77a9fdfd)" style="fill: none; stroke: #ff7f0e; stroke-width: 1.5; stroke-linecap: square"/>
   </g>
   <g id="line2d_31">
    <path d="M 81.690909 252.636227 
L 83.048161 246.564385 
L 84.405412 258.173724 
L 85.762663 258.911569 
L 87.119915 249.340945 
L 88.477166 236.086728 
L 89.834418 234.612572 
L 91.191669 249.061667 
L 92.548921 248.480655 
L 93.906172 243.795636 
L 95.263424 254.883441 
L 96.620675 241.030127 
L 97.977926 246.847079 
L 99.335178 248.2441 
L 100.692429 248.573814 
L 102.049681 247.985619 
L 103.406932 239.327831 
L 106.121435 254.502865 
L 107.478687 240.595473 
L 108.835938 254.441855 
L 110.193189 248.727532 
L 111.550441 258.159558 
L 112.907692 261.298987 
L 114.264944 265.522828 
L 115.622195 253.364752 
L 116.979447 252.659485 
L 118.336698 259.678071 
L 119.69395 253.66729 
L 121.051201 257.190184 
L 122.408452 245.267958 
L 123.765704 229.702226 
L 125.122955 238.804865 
L 126.480207 252.991435 
L 127.837458 252.017438 
L 129.19471 248.225664 
L 130.551961 243.501187 
L 131.909213 251.755767 
L 133.266464 245.773594 
L 134.623715 250.301981 
L 135.980967 251.752954 
L 137.338218 243.365378 
L 138.69547 251.005088 
L 140.052721 257.870484 
L 141.409973 253.852002 
L 142.767224 262.574114 
L 144.124476 258.691617 
L 145.481727 266.955365 
L 146.838978 259.732023 
L 148.19623 254.275554 
L 149.553481 262.998395 
L 150.910733 268.990188 
L 152.267984 271.172223 
L 153.625236 257.26011 
L 154.982487 273.011735 
L 156.339739 261.986999 
L 157.69699 267.411369 
L 159.054241 259.780474 
L 160.411493 257.948021 
L 161.768744 274.955332 
L 163.125996 262.395656 
L 164.483247 266.907039 
L 165.840499 277.394342 
L 167.19775 267.01748 
L 168.555002 266.645494 
L 169.912253 273.772787 
L 171.269504 273.68013 
L 172.626756 257.562195 
L 173.984007 270.148922 
L 175.341259 256.819855 
L 176.69851 266.130465 
L 178.055762 263.322282 
L 179.413013 250.354376 
L 180.770265 258.758228 
L 182.127516 264.290702 
L 183.484767 262.591872 
L 184.842019 270.984321 
L 186.19927 264.373865 
L 187.556522 261.858198 
L 188.913773 251.063059 
L 190.271025 270.755252 
L 191.628276 257.483553 
L 192.985528 242.448222 
L 194.342779 229.463914 
L 195.70003 254.684362 
L 197.057282 251.305289 
L 198.414533 268.282234 
L 199.771785 251.915136 
L 201.129036 260.74691 
L 202.486288 253.136964 
L 203.843539 260.812994 
L 205.200791 252.660239 
L 206.558042 255.751945 
L 207.915293 261.285299 
L 209.272545 260.194105 
L 210.629796 267.743243 
L 211.987048 241.490928 
L 213.344299 248.129315 
L 214.701551 253.034184 
L 216.058802 248.428612 
L 217.416054 251.843125 
L 218.773305 230.703148 
L 220.130556 254.227982 
L 221.487808 228.947905 
L 222.845059 240.136682 
L 224.202311 247.364545 
L 225.559562 242.292143 
L 226.916814 270.198654 
L 228.274065 245.340748 
L 229.631317 262.921662 
L 230.988568 255.373629 
L 232.345819 257.972862 
L 233.703071 254.765541 
L 235.060322 242.137873 
L 236.417574 269.030049 
L 237.774825 257.22256 
L 239.132077 249.04946 
L 240.489328 254.533081 
L 241.84658 267.95576 
L 243.203831 236.444372 
L 244.561082 261.317524 
L 245.918334 269.038966 
L 247.275585 250.291532 
L 248.632837 264.474912 
L 249.990088 251.023449 
L 251.34734 257.201386 
L 252.704591 252.511444 
L 254.061843 251.289993 
L 255.419094 247.993255 
L 256.776345 263.466857 
L 258.133597 260.649757 
L 259.490848 248.525112 
L 260.8481 246.189083 
L 262.205351 263.039336 
L 263.562603 252.313546 
L 264.919854 261.780008 
L 267.634357 241.17209 
L 268.991608 263.428327 
L 270.34886 239.84919 
L 271.706111 231.196476 
L 273.063363 265.053412 
L 274.420614 247.16647 
L 275.777866 241.416782 
L 277.135117 247.064369 
L 278.492369 247.339729 
L 279.84962 263.056566 
L 281.206871 250.664749 
L 282.564123 227.358913 
L 283.921374 237.452201 
L 285.278626 236.128774 
L 286.635877 256.948104 
L 287.993129 264.10496 
L 289.35038 250.029409 
L 290.707631 251.412038 
L 292.064883 240.381198 
L 293.422134 242.496547 
L 294.779386 236.367237 
L 296.136637 235.867931 
L 297.493889 249.356342 
L 298.85114 258.318777 
L 300.208392 244.402896 
L 301.565643 255.722859 
L 302.922894 237.069741 
L 304.280146 246.165046 
L 305.637397 252.006563 
L 306.994649 228.496272 
L 308.3519 245.175904 
L 309.709152 254.764034 
L 311.066403 239.450906 
L 312.423655 240.51108 
L 313.780906 252.162892 
L 315.138157 231.026332 
L 316.495409 242.490067 
L 317.85266 239.43134 
L 319.209912 254.942567 
L 320.567163 239.416897 
L 321.924415 253.036797 
L 323.281666 247.735451 
L 324.638918 251.117714 
L 325.996169 234.225942 
L 327.35342 234.147702 
L 328.710672 255.3728 
L 330.067923 241.838174 
L 331.425175 232.898722 
L 332.782426 240.339177 
L 334.139678 250.209474 
L 335.496929 249.259314 
L 336.854181 238.00144 
L 338.211432 245.760834 
L 339.568683 241.410377 
L 340.925935 230.414476 
L 342.283186 260.723903 
L 343.640438 244.293761 
L 344.997689 239.01467 
L 346.354941 252.815087 
L 347.712192 227.082247 
L 349.069444 239.54183 
L 350.426695 238.108766 
L 351.783946 239.436664 
L 353.141198 240.607103 
L 354.498449 230.994207 
L 355.855701 224.970942 
L 357.212952 238.011487 
L 358.570204 236.542857 
L 359.927455 248.350045 
L 361.284707 224.384128 
L 362.641958 247.946989 
L 363.999209 225.597994 
L 365.356461 226.297358 
L 366.713712 215.369299 
L 368.070964 264.489982 
L 369.428215 215.371986 
L 370.785467 220.621565 
L 372.142718 225.349208 
L 373.49997 210.345725 
L 374.857221 228.670511 
L 376.214472 234.017243 
L 377.571724 242.825382 
L 378.928975 227.999629 
L 380.286227 247.500379 
L 381.643478 222.356739 
L 383.00073 236.734049 
L 384.357981 260.379571 
L 387.072484 238.565925 
L 388.429735 239.751559 
L 389.786987 253.99296 
L 391.144238 265.675642 
L 392.50149 231.402739 
L 393.858741 235.233194 
L 395.215993 247.739922 
L 396.573244 225.148747 
L 397.930496 210.781283 
L 399.287747 247.83597 
L 400.644998 242.76274 
L 402.00225 238.270119 
L 403.359501 233.175639 
L 404.716753 226.777675 
L 406.074004 222.412449 
L 407.431256 234.659742 
L 408.788507 224.945423 
L 410.145759 223.490708 
L 411.50301 218.6687 
L 412.860261 204.242386 
L 414.217513 251.841819 
L 415.574764 251.030833 
L 416.932016 269.129036 
L 418.289267 244.411687 
L 419.646519 263.240425 
L 421.00377 258.558018 
L 422.361022 271.33119 
L 423.718273 273.806218 
L 425.075524 236.42777 
L 426.432776 269.848469 
L 427.790027 266.582901 
L 429.147279 239.569434 
L 430.50453 269.439309 
L 431.861782 264.682556 
L 433.219033 260.649581 
L 434.576285 259.56856 
L 435.933536 265.967177 
L 437.290787 262.189067 
L 438.648039 273.235354 
L 440.00529 245.931732 
L 441.362542 267.634887 
L 442.719793 250.679192 
L 444.077045 264.987002 
L 445.434296 270.981659 
L 446.791548 269.396485 
L 448.148799 278.981601 
L 449.50605 259.864291 
L 450.863302 254.695062 
L 452.220553 271.147207 
L 453.577805 281.520024 
L 454.935056 276.295111 
L 456.292308 288.642696 
L 457.649559 276.676918 
L 459.006811 289.28291 
L 460.364062 258.543727 
L 461.721313 279.851913 
L 463.078565 261.156648 
L 464.435816 262.023193 
L 465.793068 282.50236 
L 467.150319 274.79207 
L 468.507571 274.498098 
L 469.864822 289.307072 
L 471.222074 289.839583 
L 472.579325 273.364205 
L 473.936576 290.144732 
L 475.293828 282.416484 
L 476.651079 292.531875 
L 478.008331 281.603363 
L 479.365582 287.195868 
L 480.722834 282.746047 
L 482.080085 276.010231 
L 483.437337 288.776898 
L 484.794588 281.054552 
L 486.151839 267.694088 
L 487.509091 260.67392 
L 487.509091 260.67392 
" clip-path="url(#p7b77a9fdfd)" style="fill: none; stroke: #2ca02c; stroke-width: 1.5; stroke-linecap: square"/>
   </g>
   <g id="patch_3">
    <path d="M 61.4 305.131875 
L 61.4 27.931875 
" style="fill: none; stroke: #000000; stroke-width: 0.8; stroke-linejoin: miter; stroke-linecap: square"/>
   </g>
   <g id="patch_4">
    <path d="M 507.8 305.131875 
L 507.8 27.931875 
" style="fill: none; stroke: #000000; stroke-width: 0.8; stroke-linejoin: miter; stroke-linecap: square"/>
   </g>
   <g id="patch_5">
    <path d="M 61.4 305.131875 
L 507.8 305.131875 
" style="fill: none; stroke: #000000; stroke-width: 0.8; stroke-linejoin: miter; stroke-linecap: square"/>
   </g>
   <g id="patch_6">
    <path d="M 61.4 27.931875 
L 507.8 27.931875 
" style="fill: none; stroke: #000000; stroke-width: 0.8; stroke-linejoin: miter; stroke-linecap: square"/>
   </g>
   <g id="text_17">
    <!-- Meta Test Average Return -->
    <g transform="translate(169.726813 21.931875)scale(0.216 -0.216)">
     <defs>
      <path id="STIXGeneral-Regular-4d" d="M 5530 0 
L 3738 0 
L 3738 122 
Q 4115 147 4214 265 
Q 4314 384 4314 787 
L 4314 3661 
L 2682 0 
L 2592 0 
L 979 3514 
L 979 966 
Q 979 448 1088 294 
Q 1197 141 1574 122 
L 1574 0 
L 77 0 
L 77 122 
Q 358 141 480 205 
Q 602 269 650 432 
Q 698 595 698 966 
L 698 3514 
Q 698 3878 589 3984 
Q 480 4090 90 4115 
L 90 4237 
L 1357 4237 
L 2835 1024 
L 4250 4237 
L 5523 4237 
L 5523 4115 
Q 5178 4109 5072 3993 
Q 4966 3878 4966 3520 
L 4966 717 
Q 4966 378 5072 262 
Q 5178 147 5530 122 
L 5530 0 
z
" transform="scale(0.015625)"/>
      <path id="STIXGeneral-Regular-54" d="M 3795 3149 
L 3642 3149 
Q 3539 3674 3353 3821 
Q 3168 3968 2656 3968 
L 2278 3968 
L 2278 710 
Q 2278 346 2387 243 
Q 2496 141 2893 122 
L 2893 0 
L 1024 0 
L 1024 122 
Q 1427 147 1526 256 
Q 1626 365 1626 787 
L 1626 3968 
L 1242 3968 
Q 723 3968 540 3817 
Q 358 3667 262 3149 
L 109 3149 
L 154 4237 
L 3750 4237 
L 3795 3149 
z
" transform="scale(0.015625)"/>
      <path id="STIXGeneral-Regular-73" d="M 998 1926 
L 1664 1523 
Q 1984 1331 2105 1164 
Q 2227 998 2227 736 
Q 2227 416 1961 176 
Q 1696 -64 1331 -64 
Q 1030 -64 864 -6 
Q 691 51 570 51 
Q 461 51 416 -26 
L 333 -26 
L 333 979 
L 435 979 
Q 538 512 730 294 
Q 922 77 1248 77 
Q 1485 77 1632 211 
Q 1779 346 1779 550 
Q 1779 845 1440 1030 
L 1094 1222 
Q 326 1651 326 2150 
Q 326 2522 566 2730 
Q 806 2938 1210 2938 
Q 1491 2938 1638 2867 
Q 1754 2816 1818 2816 
Q 1862 2816 1920 2880 
L 1990 2880 
L 2022 2010 
L 1926 2010 
Q 1818 2445 1654 2621 
Q 1491 2797 1203 2797 
Q 986 2797 854 2688 
Q 723 2579 723 2362 
Q 723 2253 796 2128 
Q 870 2003 998 1926 
z
" transform="scale(0.015625)"/>
     </defs>
     <use xlink:href="#STIXGeneral-Regular-4d"/>
     <use xlink:href="#STIXGeneral-Regular-65" x="88.899994"/>
     <use xlink:href="#STIXGeneral-Regular-74" x="133.299988"/>
     <use xlink:href="#STIXGeneral-Regular-61" x="161.099976"/>
     <use xlink:href="#STIXGeneral-Regular-20" x="205.499969"/>
     <use xlink:href="#STIXGeneral-Regular-54" x="230.499954"/>
     <use xlink:href="#STIXGeneral-Regular-65" x="291.599945"/>
     <use xlink:href="#STIXGeneral-Regular-73" x="335.999939"/>
     <use xlink:href="#STIXGeneral-Regular-74" x="374.899933"/>
     <use xlink:href="#STIXGeneral-Regular-20" x="402.699921"/>
     <use xlink:href="#STIXGeneral-Regular-41" x="427.699905"/>
     <use xlink:href="#STIXGeneral-Regular-76" x="499.899887"/>
     <use xlink:href="#STIXGeneral-Regular-65" x="549.899872"/>
     <use xlink:href="#STIXGeneral-Regular-72" x="594.299866"/>
     <use xlink:href="#STIXGeneral-Regular-61" x="627.599854"/>
     <use xlink:href="#STIXGeneral-Regular-67" x="671.999847"/>
     <use xlink:href="#STIXGeneral-Regular-65" x="721.999832"/>
     <use xlink:href="#STIXGeneral-Regular-20" x="766.399826"/>
     <use xlink:href="#STIXGeneral-Regular-52" x="791.399811"/>
     <use xlink:href="#STIXGeneral-Regular-65" x="858.099808"/>
     <use xlink:href="#STIXGeneral-Regular-74" x="902.499802"/>
     <use xlink:href="#STIXGeneral-Regular-75" x="930.299789"/>
     <use xlink:href="#STIXGeneral-Regular-72" x="980.299774"/>
     <use xlink:href="#STIXGeneral-Regular-6e" x="1013.599762"/>
    </g>
   </g>
   <g id="legend_1">
    <g id="patch_7">
     <path d="M 71.2 98.647187 
L 159.021563 98.647187 
Q 161.821563 98.647187 161.821563 95.847187 
L 161.821563 37.731875 
Q 161.821563 34.931875 159.021563 34.931875 
L 71.2 34.931875 
Q 68.4 34.931875 68.4 37.731875 
L 68.4 95.847187 
Q 68.4 98.647187 71.2 98.647187 
z
" style="fill: #ffffff; opacity: 0.8; stroke: #cccccc; stroke-linejoin: miter"/>
    </g>
    <g id="line2d_32">
     <path d="M 74 45.431875 
L 88 45.431875 
L 102 45.431875 
" style="fill: none; stroke: #1f77b4; stroke-width: 1.5; stroke-linecap: square"/>
    </g>
    <g id="text_18">
     <!-- lr=1e-3 -->
     <g transform="translate(113.2 50.331875)scale(0.14 -0.14)">
      <defs>
       <path id="STIXGeneral-Regular-6c" d="M 1645 0 
L 134 0 
L 134 96 
Q 435 122 531 221 
Q 627 320 627 589 
L 627 3590 
Q 627 3821 569 3910 
Q 512 4000 358 4000 
Q 224 4000 122 3987 
L 122 4090 
Q 730 4237 1133 4371 
L 1165 4346 
L 1165 557 
Q 1165 288 1254 201 
Q 1344 115 1645 96 
L 1645 0 
z
" transform="scale(0.015625)"/>
       <path id="STIXGeneral-Regular-3d" d="M 4077 2048 
L 307 2048 
L 307 2470 
L 4077 2470 
L 4077 2048 
z
M 4077 768 
L 307 768 
L 307 1190 
L 4077 1190 
L 4077 768 
z
" transform="scale(0.015625)"/>
       <path id="STIXGeneral-Regular-2d" d="M 1824 1242 
L 250 1242 
L 250 1645 
L 1824 1645 
L 1824 1242 
z
" transform="scale(0.015625)"/>
      </defs>
      <use xlink:href="#STIXGeneral-Regular-6c"/>
      <use xlink:href="#STIXGeneral-Regular-72" x="27.799988"/>
      <use xlink:href="#STIXGeneral-Regular-3d" x="61.099976"/>
      <use xlink:href="#STIXGeneral-Regular-31" x="129.59996"/>
      <use xlink:href="#STIXGeneral-Regular-65" x="179.599945"/>
      <use xlink:href="#STIXGeneral-Regular-2d" x="223.999939"/>
      <use xlink:href="#STIXGeneral-Regular-33" x="257.299927"/>
     </g>
    </g>
    <g id="line2d_33">
     <path d="M 74 65.270312 
L 88 65.270312 
L 102 65.270312 
" style="fill: none; stroke: #ff7f0e; stroke-width: 1.5; stroke-linecap: square"/>
    </g>
    <g id="text_19">
     <!-- lr=5e-3 -->
     <g transform="translate(113.2 70.170312)scale(0.14 -0.14)">
      <use xlink:href="#STIXGeneral-Regular-6c"/>
      <use xlink:href="#STIXGeneral-Regular-72" x="27.799988"/>
      <use xlink:href="#STIXGeneral-Regular-3d" x="61.099976"/>
      <use xlink:href="#STIXGeneral-Regular-35" x="129.59996"/>
      <use xlink:href="#STIXGeneral-Regular-65" x="179.599945"/>
      <use xlink:href="#STIXGeneral-Regular-2d" x="223.999939"/>
      <use xlink:href="#STIXGeneral-Regular-33" x="257.299927"/>
     </g>
    </g>
    <g id="line2d_34">
     <path d="M 74 85.10875 
L 88 85.10875 
L 102 85.10875 
" style="fill: none; stroke: #2ca02c; stroke-width: 1.5; stroke-linecap: square"/>
    </g>
    <g id="text_20">
     <!-- lr=5e-4 -->
     <g transform="translate(113.2 90.00875)scale(0.14 -0.14)">
      <use xlink:href="#STIXGeneral-Regular-6c"/>
      <use xlink:href="#STIXGeneral-Regular-72" x="27.799988"/>
      <use xlink:href="#STIXGeneral-Regular-3d" x="61.099976"/>
      <use xlink:href="#STIXGeneral-Regular-35" x="129.59996"/>
      <use xlink:href="#STIXGeneral-Regular-65" x="179.599945"/>
      <use xlink:href="#STIXGeneral-Regular-2d" x="223.999939"/>
      <use xlink:href="#STIXGeneral-Regular-34" x="257.299927"/>
     </g>
    </g>
   </g>
  </g>
 </g>
 <defs>
  <clipPath id="p7b77a9fdfd">
   <rect x="61.4" y="27.931875" width="446.4" height="277.2"/>
  </clipPath>
 </defs>
</svg>
