<?xml version="1.0" encoding="utf-8" standalone="no"?>
<!DOCTYPE svg PUBLIC "-//W3C//DTD SVG 1.1//EN"
  "http://www.w3.org/Graphics/SVG/1.1/DTD/svg11.dtd">
<svg xmlns:xlink="http://www.w3.org/1999/xlink" width="524pt" height="355.731875pt" viewBox="0 0 524 355.731875" xmlns="http://www.w3.org/2000/svg" version="1.1">
 <metadata>
  <rdf:RDF xmlns:dc="http://purl.org/dc/elements/1.1/" xmlns:cc="http://creativecommons.org/ns#" xmlns:rdf="http://www.w3.org/1999/02/22-rdf-syntax-ns#">
   <cc:Work>
    <dc:type rdf:resource="http://purl.org/dc/dcmitype/StillImage"/>
    <dc:date>2021-12-11T12:12:43.904106</dc:date>
    <dc:format>image/svg+xml</dc:format>
    <dc:creator>
     <cc:Agent>
      <dc:title>Matplotlib v3.5.0, https://matplotlib.org/</dc:title>
     </cc:Agent>
    </dc:creator>
   </cc:Work>
  </rdf:RDF>
 </metadata>
 <defs>
  <style type="text/css">*{stroke-linejoin: round; stroke-linecap: butt}</style>
 </defs>
 <g id="figure_1">
  <g id="patch_1">
   <path d="M 0 355.731875 
L 524 355.731875 
L 524 0 
L 0 0 
z
" style="fill: #ffffff"/>
  </g>
  <g id="axes_1">
   <g id="patch_2">
    <path d="M 70.4 305.131875 
L 516.8 305.131875 
L 516.8 27.931875 
L 70.4 27.931875 
z
" style="fill: #ffffff"/>
   </g>
   <g id="matplotlib.axis_1">
    <g id="xtick_1">
     <g id="line2d_1">
      <path d="M 90.690909 305.131875 
L 90.690909 27.931875 
" clip-path="url(#p1d02b5229d)" style="fill: none; stroke: #b0b0b0; stroke-width: 0.8; stroke-linecap: square"/>
     </g>
     <g id="line2d_2">
      <defs>
       <path id="m7cef18c327" d="M 0 0 
L 0 3.5 
" style="stroke: #000000; stroke-width: 0.8"/>
      </defs>
      <g>
       <use xlink:href="#m7cef18c327" x="90.690909" y="305.131875" style="stroke: #000000; stroke-width: 0.8"/>
      </g>
     </g>
     <g id="text_1">
      <!-- 0 -->
      <g transform="translate(86.190909 324.425313)scale(0.18 -0.18)">
       <defs>
        <path id="STIXGeneral-Regular-30" d="M 3046 2112 
Q 3046 1683 2963 1302 
Q 2880 922 2717 602 
Q 2554 282 2266 96 
Q 1978 -90 1600 -90 
Q 1210 -90 915 108 
Q 621 307 461 640 
Q 301 973 227 1350 
Q 154 1728 154 2150 
Q 154 2746 301 3222 
Q 448 3699 790 4012 
Q 1133 4326 1626 4326 
Q 2253 4326 2649 3712 
Q 3046 3098 3046 2112 
z
M 2432 2080 
Q 2432 3091 2217 3625 
Q 2003 4160 1587 4160 
Q 1190 4160 979 3622 
Q 768 3085 768 2106 
Q 768 1120 979 598 
Q 1190 77 1600 77 
Q 2003 77 2217 598 
Q 2432 1120 2432 2080 
z
" transform="scale(0.015625)"/>
       </defs>
       <use xlink:href="#STIXGeneral-Regular-30"/>
      </g>
     </g>
    </g>
    <g id="xtick_2">
     <g id="line2d_3">
      <path d="M 169.797767 305.131875 
L 169.797767 27.931875 
" clip-path="url(#p1d02b5229d)" style="fill: none; stroke: #b0b0b0; stroke-width: 0.8; stroke-linecap: square"/>
     </g>
     <g id="line2d_4">
      <g>
       <use xlink:href="#m7cef18c327" x="169.797767" y="305.131875" style="stroke: #000000; stroke-width: 0.8"/>
      </g>
     </g>
     <g id="text_2">
      <!-- 100 -->
      <g transform="translate(156.297767 324.425313)scale(0.18 -0.18)">
       <defs>
        <path id="STIXGeneral-Regular-31" d="M 2522 0 
L 755 0 
L 755 96 
Q 1107 115 1235 227 
Q 1363 339 1363 608 
L 1363 3482 
Q 1363 3795 1171 3795 
Q 1082 3795 883 3718 
L 710 3654 
L 710 3744 
L 1856 4326 
L 1914 4307 
L 1914 486 
Q 1914 275 2042 185 
Q 2170 96 2522 96 
L 2522 0 
z
" transform="scale(0.015625)"/>
       </defs>
       <use xlink:href="#STIXGeneral-Regular-31"/>
       <use xlink:href="#STIXGeneral-Regular-30" x="49.999985"/>
       <use xlink:href="#STIXGeneral-Regular-30" x="99.999969"/>
      </g>
     </g>
    </g>
    <g id="xtick_3">
     <g id="line2d_5">
      <path d="M 248.904625 305.131875 
L 248.904625 27.931875 
" clip-path="url(#p1d02b5229d)" style="fill: none; stroke: #b0b0b0; stroke-width: 0.8; stroke-linecap: square"/>
     </g>
     <g id="line2d_6">
      <g>
       <use xlink:href="#m7cef18c327" x="248.904625" y="305.131875" style="stroke: #000000; stroke-width: 0.8"/>
      </g>
     </g>
     <g id="text_3">
      <!-- 200 -->
      <g transform="translate(235.404625 324.425313)scale(0.18 -0.18)">
       <defs>
        <path id="STIXGeneral-Regular-32" d="M 3034 877 
L 2688 0 
L 186 0 
L 186 77 
L 1325 1286 
Q 1773 1754 1965 2144 
Q 2157 2534 2157 2950 
Q 2157 3379 1920 3616 
Q 1683 3853 1267 3853 
Q 922 3853 720 3673 
Q 518 3494 326 3021 
L 192 3053 
Q 301 3648 630 3987 
Q 960 4326 1523 4326 
Q 2054 4326 2380 4006 
Q 2707 3686 2707 3200 
Q 2707 2477 1888 1613 
L 832 486 
L 2330 486 
Q 2541 486 2665 569 
Q 2790 653 2944 915 
L 3034 877 
z
" transform="scale(0.015625)"/>
       </defs>
       <use xlink:href="#STIXGeneral-Regular-32"/>
       <use xlink:href="#STIXGeneral-Regular-30" x="49.999985"/>
       <use xlink:href="#STIXGeneral-Regular-30" x="99.999969"/>
      </g>
     </g>
    </g>
    <g id="xtick_4">
     <g id="line2d_7">
      <path d="M 328.011483 305.131875 
L 328.011483 27.931875 
" clip-path="url(#p1d02b5229d)" style="fill: none; stroke: #b0b0b0; stroke-width: 0.8; stroke-linecap: square"/>
     </g>
     <g id="line2d_8">
      <g>
       <use xlink:href="#m7cef18c327" x="328.011483" y="305.131875" style="stroke: #000000; stroke-width: 0.8"/>
      </g>
     </g>
     <g id="text_4">
      <!-- 300 -->
      <g transform="translate(314.511483 324.425313)scale(0.18 -0.18)">
       <defs>
        <path id="STIXGeneral-Regular-33" d="M 390 3264 
L 288 3290 
Q 435 3770 748 4048 
Q 1062 4326 1542 4326 
Q 1990 4326 2265 4083 
Q 2541 3840 2541 3450 
Q 2541 2925 1946 2566 
Q 2298 2413 2477 2227 
Q 2758 1914 2758 1402 
Q 2758 890 2464 506 
Q 2246 211 1840 60 
Q 1434 -90 979 -90 
Q 262 -90 262 275 
Q 262 378 339 442 
Q 416 506 525 506 
Q 685 506 915 339 
Q 1197 141 1466 141 
Q 1818 141 2058 425 
Q 2298 710 2298 1120 
Q 2298 1856 1632 2048 
Q 1434 2112 979 2112 
L 979 2202 
Q 1338 2323 1517 2432 
Q 2035 2726 2035 3290 
Q 2035 3610 1852 3776 
Q 1670 3942 1344 3942 
Q 768 3942 390 3264 
z
" transform="scale(0.015625)"/>
       </defs>
       <use xlink:href="#STIXGeneral-Regular-33"/>
       <use xlink:href="#STIXGeneral-Regular-30" x="49.999985"/>
       <use xlink:href="#STIXGeneral-Regular-30" x="99.999969"/>
      </g>
     </g>
    </g>
    <g id="xtick_5">
     <g id="line2d_9">
      <path d="M 407.118341 305.131875 
L 407.118341 27.931875 
" clip-path="url(#p1d02b5229d)" style="fill: none; stroke: #b0b0b0; stroke-width: 0.8; stroke-linecap: square"/>
     </g>
     <g id="line2d_10">
      <g>
       <use xlink:href="#m7cef18c327" x="407.118341" y="305.131875" style="stroke: #000000; stroke-width: 0.8"/>
      </g>
     </g>
     <g id="text_5">
      <!-- 400 -->
      <g transform="translate(393.618341 324.425313)scale(0.18 -0.18)">
       <defs>
        <path id="STIXGeneral-Regular-34" d="M 3027 1069 
L 2368 1069 
L 2368 0 
L 1869 0 
L 1869 1069 
L 77 1069 
L 77 1478 
L 2086 4326 
L 2368 4326 
L 2368 1478 
L 3027 1478 
L 3027 1069 
z
M 1869 1478 
L 1869 3674 
L 333 1478 
L 1869 1478 
z
" transform="scale(0.015625)"/>
       </defs>
       <use xlink:href="#STIXGeneral-Regular-34"/>
       <use xlink:href="#STIXGeneral-Regular-30" x="49.999985"/>
       <use xlink:href="#STIXGeneral-Regular-30" x="99.999969"/>
      </g>
     </g>
    </g>
    <g id="xtick_6">
     <g id="line2d_11">
      <path d="M 486.225199 305.131875 
L 486.225199 27.931875 
" clip-path="url(#p1d02b5229d)" style="fill: none; stroke: #b0b0b0; stroke-width: 0.8; stroke-linecap: square"/>
     </g>
     <g id="line2d_12">
      <g>
       <use xlink:href="#m7cef18c327" x="486.225199" y="305.131875" style="stroke: #000000; stroke-width: 0.8"/>
      </g>
     </g>
     <g id="text_6">
      <!-- 500 -->
      <g transform="translate(472.725199 324.425313)scale(0.18 -0.18)">
       <defs>
        <path id="STIXGeneral-Regular-35" d="M 2803 4358 
L 2573 3814 
Q 2534 3731 2400 3731 
L 1158 3731 
L 902 3187 
Q 1606 3053 1920 2896 
Q 2234 2739 2502 2368 
Q 2726 2061 2726 1555 
Q 2726 1094 2576 780 
Q 2426 467 2099 224 
Q 1664 -90 1011 -90 
Q 646 -90 422 19 
Q 198 128 198 307 
Q 198 550 486 550 
Q 717 550 960 352 
Q 1210 147 1414 147 
Q 1747 147 2012 480 
Q 2278 813 2278 1229 
Q 2278 1843 1850 2189 
Q 1293 2637 486 2637 
Q 410 2637 410 2688 
L 416 2720 
L 1114 4237 
L 2438 4237 
Q 2547 4237 2608 4269 
Q 2669 4301 2746 4403 
L 2803 4358 
z
" transform="scale(0.015625)"/>
       </defs>
       <use xlink:href="#STIXGeneral-Regular-35"/>
       <use xlink:href="#STIXGeneral-Regular-30" x="49.999985"/>
       <use xlink:href="#STIXGeneral-Regular-30" x="99.999969"/>
      </g>
     </g>
    </g>
    <g id="text_7">
     <!-- Epoch -->
     <g transform="translate(270.605 344.625313)scale(0.18 -0.18)">
      <defs>
       <path id="STIXGeneral-Regular-45" d="M 3821 1082 
L 3526 0 
L 77 0 
L 77 122 
Q 442 147 538 252 
Q 634 358 634 730 
L 634 3520 
Q 634 3878 534 3987 
Q 435 4096 77 4115 
L 77 4237 
L 3469 4237 
L 3494 3322 
L 3334 3322 
Q 3264 3750 3085 3872 
Q 2906 3994 2349 3994 
L 1510 3994 
Q 1370 3994 1328 3952 
Q 1286 3910 1286 3763 
L 1286 2355 
L 2253 2355 
Q 2656 2355 2787 2470 
Q 2918 2586 2976 2970 
L 3123 2970 
L 3123 1472 
L 2976 1472 
Q 2918 1875 2790 1984 
Q 2662 2093 2253 2093 
L 1286 2093 
L 1286 538 
Q 1286 346 1420 291 
Q 1555 237 1933 237 
L 2163 237 
Q 2848 237 3136 403 
Q 3424 570 3642 1082 
L 3821 1082 
z
" transform="scale(0.015625)"/>
       <path id="STIXGeneral-Regular-70" d="M 1018 2931 
L 1018 2438 
Q 1421 2944 1939 2944 
Q 2406 2944 2707 2560 
Q 3008 2176 3008 1581 
Q 3008 883 2621 409 
Q 2234 -64 1664 -64 
Q 1466 -64 1328 -6 
Q 1190 51 1018 211 
L 1018 -794 
Q 1018 -1094 1120 -1180 
Q 1222 -1267 1581 -1274 
L 1581 -1389 
L 32 -1389 
L 32 -1280 
Q 314 -1254 397 -1171 
Q 480 -1088 480 -838 
L 480 2157 
Q 480 2381 429 2451 
Q 378 2522 218 2522 
Q 115 2522 58 2515 
L 58 2618 
Q 506 2752 979 2944 
L 1018 2931 
z
M 1018 2138 
L 1018 563 
Q 1018 422 1238 281 
Q 1459 141 1683 141 
Q 2029 141 2243 467 
Q 2458 794 2458 1325 
Q 2458 1888 2243 2224 
Q 2029 2560 1670 2560 
Q 1446 2560 1232 2419 
Q 1018 2278 1018 2138 
z
" transform="scale(0.015625)"/>
       <path id="STIXGeneral-Regular-6f" d="M 3008 1478 
Q 3008 806 2608 371 
Q 2208 -64 1568 -64 
Q 979 -64 582 368 
Q 186 800 186 1459 
Q 186 2125 582 2534 
Q 979 2944 1626 2944 
Q 2221 2944 2614 2537 
Q 3008 2131 3008 1478 
z
M 2432 1306 
Q 2432 2035 2112 2445 
Q 1856 2765 1504 2765 
Q 1171 2765 966 2493 
Q 762 2221 762 1747 
Q 762 928 1101 435 
Q 1318 115 1677 115 
Q 2029 115 2230 432 
Q 2432 749 2432 1306 
z
" transform="scale(0.015625)"/>
       <path id="STIXGeneral-Regular-63" d="M 2547 998 
L 2637 941 
Q 2362 403 2112 205 
Q 1786 -64 1376 -64 
Q 845 -64 502 336 
Q 160 736 160 1357 
Q 160 2170 698 2618 
Q 1094 2944 1562 2944 
Q 1965 2944 2256 2749 
Q 2547 2554 2547 2285 
Q 2547 2176 2457 2096 
Q 2368 2016 2246 2016 
Q 2022 2016 1939 2310 
L 1901 2451 
Q 1850 2630 1773 2694 
Q 1696 2758 1523 2758 
Q 1133 2758 893 2451 
Q 653 2144 653 1645 
Q 653 1094 928 745 
Q 1203 397 1645 397 
Q 1920 397 2118 528 
Q 2317 659 2547 998 
z
" transform="scale(0.015625)"/>
       <path id="STIXGeneral-Regular-68" d="M 3117 0 
L 1760 0 
L 1760 96 
Q 2042 128 2118 224 
Q 2195 320 2195 653 
L 2195 1920 
Q 2195 2598 1722 2598 
Q 1530 2598 1370 2508 
Q 1210 2419 1005 2195 
L 1005 653 
Q 1005 320 1081 224 
Q 1158 128 1440 96 
L 1440 0 
L 58 0 
L 58 96 
Q 333 134 400 224 
Q 467 314 467 653 
L 467 3667 
Q 467 3872 406 3933 
Q 346 3994 141 3994 
Q 83 3994 64 3987 
L 64 4090 
L 237 4141 
Q 730 4288 973 4371 
L 1005 4352 
L 1005 2406 
Q 1229 2694 1446 2819 
Q 1664 2944 1946 2944 
Q 2733 2944 2733 1926 
L 2733 653 
Q 2733 320 2793 233 
Q 2854 147 3117 96 
L 3117 0 
z
" transform="scale(0.015625)"/>
      </defs>
      <use xlink:href="#STIXGeneral-Regular-45"/>
      <use xlink:href="#STIXGeneral-Regular-70" x="61.099991"/>
      <use xlink:href="#STIXGeneral-Regular-6f" x="111.099976"/>
      <use xlink:href="#STIXGeneral-Regular-63" x="161.09996"/>
      <use xlink:href="#STIXGeneral-Regular-68" x="205.499954"/>
     </g>
    </g>
   </g>
   <g id="matplotlib.axis_2">
    <g id="ytick_1">
     <g id="line2d_13">
      <path d="M 70.4 289.789105 
L 516.8 289.789105 
" clip-path="url(#p1d02b5229d)" style="fill: none; stroke: #b0b0b0; stroke-width: 0.8; stroke-linecap: square"/>
     </g>
     <g id="line2d_14">
      <defs>
       <path id="mc9228e9036" d="M 0 0 
L -3.5 0 
" style="stroke: #000000; stroke-width: 0.8"/>
      </defs>
      <g>
       <use xlink:href="#mc9228e9036" x="70.4" y="289.789105" style="stroke: #000000; stroke-width: 0.8"/>
      </g>
     </g>
     <g id="text_8">
      <!-- 250 -->
      <g transform="translate(36.4 295.935823)scale(0.18 -0.18)">
       <use xlink:href="#STIXGeneral-Regular-32"/>
       <use xlink:href="#STIXGeneral-Regular-35" x="49.999985"/>
       <use xlink:href="#STIXGeneral-Regular-30" x="99.999969"/>
      </g>
     </g>
    </g>
    <g id="ytick_2">
     <g id="line2d_15">
      <path d="M 70.4 242.277019 
L 516.8 242.277019 
" clip-path="url(#p1d02b5229d)" style="fill: none; stroke: #b0b0b0; stroke-width: 0.8; stroke-linecap: square"/>
     </g>
     <g id="line2d_16">
      <g>
       <use xlink:href="#mc9228e9036" x="70.4" y="242.277019" style="stroke: #000000; stroke-width: 0.8"/>
      </g>
     </g>
     <g id="text_9">
      <!-- 500 -->
      <g transform="translate(36.4 248.423737)scale(0.18 -0.18)">
       <use xlink:href="#STIXGeneral-Regular-35"/>
       <use xlink:href="#STIXGeneral-Regular-30" x="49.999985"/>
       <use xlink:href="#STIXGeneral-Regular-30" x="99.999969"/>
      </g>
     </g>
    </g>
    <g id="ytick_3">
     <g id="line2d_17">
      <path d="M 70.4 194.764933 
L 516.8 194.764933 
" clip-path="url(#p1d02b5229d)" style="fill: none; stroke: #b0b0b0; stroke-width: 0.8; stroke-linecap: square"/>
     </g>
     <g id="line2d_18">
      <g>
       <use xlink:href="#mc9228e9036" x="70.4" y="194.764933" style="stroke: #000000; stroke-width: 0.8"/>
      </g>
     </g>
     <g id="text_10">
      <!-- 750 -->
      <g transform="translate(36.4 200.911651)scale(0.18 -0.18)">
       <defs>
        <path id="STIXGeneral-Regular-37" d="M 2874 4134 
L 1517 -51 
L 1101 -51 
L 2368 3763 
L 992 3763 
Q 717 3763 582 3667 
Q 448 3571 243 3238 
L 128 3296 
L 512 4237 
L 2874 4237 
L 2874 4134 
z
" transform="scale(0.015625)"/>
       </defs>
       <use xlink:href="#STIXGeneral-Regular-37"/>
       <use xlink:href="#STIXGeneral-Regular-35" x="49.999985"/>
       <use xlink:href="#STIXGeneral-Regular-30" x="99.999969"/>
      </g>
     </g>
    </g>
    <g id="ytick_4">
     <g id="line2d_19">
      <path d="M 70.4 147.252847 
L 516.8 147.252847 
" clip-path="url(#p1d02b5229d)" style="fill: none; stroke: #b0b0b0; stroke-width: 0.8; stroke-linecap: square"/>
     </g>
     <g id="line2d_20">
      <g>
       <use xlink:href="#mc9228e9036" x="70.4" y="147.252847" style="stroke: #000000; stroke-width: 0.8"/>
      </g>
     </g>
     <g id="text_11">
      <!-- 1000 -->
      <g transform="translate(27.4 153.399565)scale(0.18 -0.18)">
       <use xlink:href="#STIXGeneral-Regular-31"/>
       <use xlink:href="#STIXGeneral-Regular-30" x="49.999985"/>
       <use xlink:href="#STIXGeneral-Regular-30" x="99.999969"/>
       <use xlink:href="#STIXGeneral-Regular-30" x="149.999954"/>
      </g>
     </g>
    </g>
    <g id="ytick_5">
     <g id="line2d_21">
      <path d="M 70.4 99.740761 
L 516.8 99.740761 
" clip-path="url(#p1d02b5229d)" style="fill: none; stroke: #b0b0b0; stroke-width: 0.8; stroke-linecap: square"/>
     </g>
     <g id="line2d_22">
      <g>
       <use xlink:href="#mc9228e9036" x="70.4" y="99.740761" style="stroke: #000000; stroke-width: 0.8"/>
      </g>
     </g>
     <g id="text_12">
      <!-- 1250 -->
      <g transform="translate(27.4 105.887479)scale(0.18 -0.18)">
       <use xlink:href="#STIXGeneral-Regular-31"/>
       <use xlink:href="#STIXGeneral-Regular-32" x="49.999985"/>
       <use xlink:href="#STIXGeneral-Regular-35" x="99.999969"/>
       <use xlink:href="#STIXGeneral-Regular-30" x="149.999954"/>
      </g>
     </g>
    </g>
    <g id="ytick_6">
     <g id="line2d_23">
      <path d="M 70.4 52.228675 
L 516.8 52.228675 
" clip-path="url(#p1d02b5229d)" style="fill: none; stroke: #b0b0b0; stroke-width: 0.8; stroke-linecap: square"/>
     </g>
     <g id="line2d_24">
      <g>
       <use xlink:href="#mc9228e9036" x="70.4" y="52.228675" style="stroke: #000000; stroke-width: 0.8"/>
      </g>
     </g>
     <g id="text_13">
      <!-- 1500 -->
      <g transform="translate(27.4 58.375393)scale(0.18 -0.18)">
       <use xlink:href="#STIXGeneral-Regular-31"/>
       <use xlink:href="#STIXGeneral-Regular-35" x="49.999985"/>
       <use xlink:href="#STIXGeneral-Regular-30" x="99.999969"/>
       <use xlink:href="#STIXGeneral-Regular-30" x="149.999954"/>
      </g>
     </g>
    </g>
    <g id="text_14">
     <!-- Average Return -->
     <g transform="translate(19.476562 223.764844)rotate(-90)scale(0.18 -0.18)">
      <defs>
       <path id="STIXGeneral-Regular-41" d="M 4525 0 
L 2893 0 
L 2893 122 
Q 3149 122 3245 179 
Q 3334 224 3334 333 
Q 3334 499 3213 781 
L 2950 1382 
L 1274 1382 
L 979 653 
Q 922 506 922 384 
Q 922 237 1027 179 
Q 1133 122 1370 122 
L 1370 0 
L 96 0 
L 96 122 
Q 365 147 486 316 
Q 608 486 902 1190 
L 2221 4314 
L 2349 4314 
L 3923 710 
Q 4064 378 4176 262 
Q 4288 147 4525 122 
L 4525 0 
z
M 2861 1645 
L 2118 3405 
L 1382 1645 
L 2861 1645 
z
" transform="scale(0.015625)"/>
       <path id="STIXGeneral-Regular-76" d="M 3053 2880 
L 3053 2784 
Q 2906 2771 2835 2688 
Q 2765 2605 2637 2285 
L 1818 230 
Q 1690 -90 1638 -90 
Q 1587 -90 1523 77 
Q 1510 96 1497 141 
Q 1485 186 1472 211 
L 704 2048 
Q 499 2534 403 2652 
Q 307 2771 122 2784 
L 122 2880 
L 1376 2880 
L 1376 2784 
Q 1210 2771 1146 2732 
Q 1082 2694 1082 2611 
Q 1082 2509 1139 2368 
L 1792 730 
L 2426 2387 
Q 2464 2483 2464 2579 
Q 2464 2758 2163 2784 
L 2163 2880 
L 3053 2880 
z
" transform="scale(0.015625)"/>
       <path id="STIXGeneral-Regular-65" d="M 2611 1050 
L 2714 1005 
Q 2330 -64 1376 -64 
Q 813 -64 486 329 
Q 160 723 160 1389 
Q 160 2074 525 2509 
Q 890 2944 1485 2944 
Q 2061 2944 2374 2502 
Q 2560 2246 2592 1773 
L 621 1773 
Q 646 1370 700 1158 
Q 755 947 915 730 
Q 1184 378 1626 378 
Q 1939 378 2153 531 
Q 2368 685 2611 1050 
z
M 634 1978 
L 1939 1978 
Q 1882 2381 1750 2547 
Q 1619 2714 1312 2714 
Q 1043 2714 864 2525 
Q 685 2336 634 1978 
z
" transform="scale(0.015625)"/>
       <path id="STIXGeneral-Regular-72" d="M 1024 2931 
L 1024 2342 
Q 1267 2688 1430 2816 
Q 1594 2944 1792 2944 
Q 1958 2944 2051 2854 
Q 2144 2765 2144 2605 
Q 2144 2470 2077 2393 
Q 2010 2317 1894 2317 
Q 1773 2317 1638 2445 
Q 1536 2541 1472 2541 
Q 1338 2541 1181 2355 
Q 1024 2170 1024 2016 
L 1024 576 
Q 1024 301 1133 205 
Q 1242 109 1568 96 
L 1568 0 
L 32 0 
L 32 96 
Q 339 154 412 224 
Q 486 294 486 538 
L 486 2138 
Q 486 2349 438 2435 
Q 390 2522 269 2522 
Q 166 2522 45 2496 
L 45 2598 
Q 448 2726 992 2944 
L 1024 2931 
z
" transform="scale(0.015625)"/>
       <path id="STIXGeneral-Regular-61" d="M 2829 422 
L 2829 243 
Q 2586 -64 2253 -64 
Q 1888 -64 1843 403 
L 1837 403 
Q 1427 -64 909 -64 
Q 608 -64 422 112 
Q 237 288 237 602 
Q 237 1050 685 1350 
Q 992 1555 1837 1869 
L 1837 2214 
Q 1837 2502 1699 2646 
Q 1562 2790 1338 2790 
Q 1146 2790 1018 2697 
Q 890 2605 890 2477 
Q 890 2419 909 2348 
Q 928 2278 928 2208 
Q 928 2112 841 2029 
Q 755 1946 634 1946 
Q 525 1946 441 2029 
Q 358 2112 358 2240 
Q 358 2547 685 2752 
Q 986 2944 1421 2944 
Q 1939 2944 2176 2656 
Q 2291 2522 2323 2384 
Q 2355 2246 2355 1946 
L 2355 723 
Q 2355 301 2554 301 
Q 2682 301 2829 422 
z
M 1837 813 
L 1837 1715 
Q 1248 1510 1018 1293 
Q 800 1094 800 800 
Q 800 557 921 432 
Q 1043 307 1242 307 
Q 1453 307 1613 410 
Q 1747 506 1792 589 
Q 1837 672 1837 813 
z
" transform="scale(0.015625)"/>
       <path id="STIXGeneral-Regular-67" d="M 3008 2483 
L 2477 2483 
Q 2598 2208 2598 1946 
Q 2598 1453 2265 1203 
Q 1933 954 1600 954 
Q 1530 954 1357 973 
L 1235 986 
Q 1107 947 979 812 
Q 851 678 851 582 
Q 851 435 1350 410 
L 2176 371 
Q 2528 358 2739 172 
Q 2950 -13 2950 -314 
Q 2950 -685 2566 -986 
Q 2035 -1395 1286 -1395 
Q 826 -1395 502 -1212 
Q 179 -1030 179 -774 
Q 179 -595 320 -419 
Q 461 -243 806 6 
Q 602 102 534 172 
Q 467 243 467 346 
Q 467 531 762 787 
Q 909 915 1037 1043 
Q 717 1203 579 1401 
Q 442 1600 442 1901 
Q 442 2336 752 2640 
Q 1062 2944 1510 2944 
Q 1766 2944 2022 2848 
L 2163 2797 
Q 2349 2733 2515 2733 
L 3008 2733 
L 3008 2483 
z
M 973 2163 
L 973 2144 
Q 973 1683 1155 1398 
Q 1338 1114 1632 1114 
Q 1850 1114 1978 1270 
Q 2106 1427 2106 1690 
Q 2106 2112 1914 2464 
Q 1754 2765 1446 2765 
Q 1222 2765 1097 2605 
Q 973 2445 973 2163 
z
M 2771 -410 
Q 2771 -230 2595 -163 
Q 2419 -96 1978 -96 
Q 1344 -96 941 -13 
Q 749 -243 688 -348 
Q 627 -454 627 -563 
Q 627 -774 880 -902 
Q 1133 -1030 1555 -1030 
Q 2099 -1030 2435 -860 
Q 2771 -691 2771 -410 
z
" transform="scale(0.015625)"/>
       <path id="STIXGeneral-Regular-20" transform="scale(0.015625)"/>
       <path id="STIXGeneral-Regular-52" d="M 4224 0 
L 3187 0 
L 1664 1971 
L 1306 1958 
L 1306 717 
Q 1306 352 1405 249 
Q 1504 147 1875 122 
L 1875 0 
L 109 0 
L 109 122 
Q 474 154 563 262 
Q 653 371 653 794 
L 653 3526 
Q 653 3885 563 3987 
Q 474 4090 109 4115 
L 109 4237 
L 1850 4237 
Q 2726 4237 3187 3859 
Q 3501 3603 3501 3091 
Q 3501 2221 2342 2042 
L 3622 422 
Q 3757 256 3878 198 
Q 4000 141 4224 122 
L 4224 0 
z
M 1306 3731 
L 1306 2195 
Q 1766 2202 1990 2246 
Q 2214 2291 2438 2413 
Q 2803 2618 2803 3142 
Q 2803 4000 1632 4000 
Q 1459 4000 1382 3945 
Q 1306 3891 1306 3731 
z
" transform="scale(0.015625)"/>
       <path id="STIXGeneral-Regular-74" d="M 1702 493 
L 1786 422 
Q 1478 -64 1011 -64 
Q 448 -64 448 749 
L 448 2675 
L 109 2675 
Q 83 2694 83 2720 
Q 83 2771 192 2842 
Q 435 2982 813 3526 
Q 826 3546 874 3606 
Q 922 3667 941 3706 
Q 986 3706 986 3622 
L 986 2880 
L 1632 2880 
L 1632 2675 
L 986 2675 
L 986 845 
Q 986 538 1062 403 
Q 1139 269 1318 269 
Q 1510 269 1702 493 
z
" transform="scale(0.015625)"/>
       <path id="STIXGeneral-Regular-75" d="M 3072 320 
L 3072 230 
Q 2573 96 2195 -58 
L 2163 -38 
L 2163 486 
L 2150 486 
Q 1747 -64 1235 -64 
Q 870 -64 662 160 
Q 454 384 454 755 
L 454 2362 
Q 454 2598 371 2688 
Q 288 2778 58 2790 
L 58 2880 
L 992 2880 
L 992 813 
Q 992 595 1123 451 
Q 1254 307 1446 307 
Q 1760 307 1984 506 
Q 2067 582 2099 649 
Q 2131 717 2131 877 
L 2131 2355 
Q 2131 2605 2041 2678 
Q 1952 2752 1658 2771 
L 1658 2880 
L 2669 2880 
L 2669 685 
Q 2669 461 2742 390 
Q 2816 320 3034 320 
L 3072 320 
z
" transform="scale(0.015625)"/>
       <path id="STIXGeneral-Regular-6e" d="M 3104 0 
L 1773 0 
L 1779 96 
Q 2016 115 2096 233 
Q 2176 352 2176 672 
L 2176 1946 
Q 2176 2592 1709 2592 
Q 1549 2592 1408 2515 
Q 1267 2438 1050 2227 
L 1050 461 
Q 1050 269 1136 192 
Q 1222 115 1466 96 
L 1466 0 
L 115 0 
L 115 96 
Q 358 115 435 214 
Q 512 314 512 602 
L 512 2157 
Q 512 2394 467 2483 
Q 422 2573 288 2573 
Q 160 2573 102 2547 
L 102 2656 
Q 550 2784 979 2944 
L 1030 2925 
L 1030 2426 
L 1037 2426 
Q 1491 2944 1958 2944 
Q 2323 2944 2518 2688 
Q 2714 2432 2714 1958 
L 2714 544 
Q 2714 288 2790 205 
Q 2867 122 3104 96 
L 3104 0 
z
" transform="scale(0.015625)"/>
      </defs>
      <use xlink:href="#STIXGeneral-Regular-41"/>
      <use xlink:href="#STIXGeneral-Regular-76" x="72.199982"/>
      <use xlink:href="#STIXGeneral-Regular-65" x="122.199966"/>
      <use xlink:href="#STIXGeneral-Regular-72" x="166.59996"/>
      <use xlink:href="#STIXGeneral-Regular-61" x="199.899948"/>
      <use xlink:href="#STIXGeneral-Regular-67" x="244.299942"/>
      <use xlink:href="#STIXGeneral-Regular-65" x="294.299927"/>
      <use xlink:href="#STIXGeneral-Regular-20" x="338.699921"/>
      <use xlink:href="#STIXGeneral-Regular-52" x="363.699905"/>
      <use xlink:href="#STIXGeneral-Regular-65" x="430.399902"/>
      <use xlink:href="#STIXGeneral-Regular-74" x="474.799896"/>
      <use xlink:href="#STIXGeneral-Regular-75" x="502.599884"/>
      <use xlink:href="#STIXGeneral-Regular-72" x="552.599869"/>
      <use xlink:href="#STIXGeneral-Regular-6e" x="585.899857"/>
     </g>
    </g>
   </g>
   <g id="line2d_25">
    <path d="M 90.690909 244.202656 
L 91.481978 261.007637 
L 92.273046 254.871901 
L 93.064115 244.384869 
L 93.855183 247.204041 
L 94.646252 237.36601 
L 95.437321 225.209882 
L 96.228389 218.989324 
L 97.019458 213.736301 
L 98.601595 186.660159 
L 99.392663 191.061358 
L 100.183732 185.976989 
L 100.974801 204.591985 
L 101.765869 226.465018 
L 102.556938 236.858769 
L 103.348006 236.905772 
L 104.139075 222.884562 
L 104.930144 212.584707 
L 105.721212 195.977639 
L 106.512281 187.232367 
L 107.303349 183.665874 
L 108.094418 185.270771 
L 109.676555 205.04471 
L 110.467624 211.418522 
L 111.258692 211.522134 
L 112.049761 210.502372 
L 112.840829 212.931144 
L 113.631898 209.296323 
L 115.214035 190.93181 
L 116.005104 184.261039 
L 116.796172 186.562772 
L 117.587241 182.432215 
L 119.169378 188.344121 
L 119.960447 186.888042 
L 120.751515 201.47228 
L 122.333652 218.290716 
L 123.124721 209.810257 
L 123.915789 203.968302 
L 124.706858 198.959599 
L 126.288995 200.525866 
L 127.080064 201.637199 
L 127.871132 196.95674 
L 128.662201 193.44679 
L 129.45327 183.276924 
L 130.244338 177.987112 
L 131.826475 177.730858 
L 132.617544 172.589793 
L 133.408612 170.640887 
L 134.199681 167.926413 
L 134.99075 172.454005 
L 135.781818 175.410761 
L 136.572887 181.106315 
L 137.363955 180.839433 
L 138.155024 178.293307 
L 138.946093 176.475979 
L 139.737161 178.749925 
L 140.52823 175.7685 
L 141.319298 174.543592 
L 142.110367 172.586356 
L 142.901435 171.78073 
L 143.692504 178.318472 
L 144.483573 175.926547 
L 146.06571 179.799387 
L 146.856778 179.365034 
L 147.647847 177.770037 
L 148.438915 177.112505 
L 149.229984 172.227606 
L 150.021053 170.74037 
L 150.812121 163.309972 
L 151.60319 159.428067 
L 152.394258 157.842827 
L 153.185327 159.177868 
L 153.976396 161.620784 
L 154.767464 159.118782 
L 155.558533 151.897399 
L 156.349601 146.196407 
L 157.931738 129.386696 
L 158.722807 129.622793 
L 159.513876 120.786884 
L 160.304944 118.414886 
L 161.096013 124.269258 
L 161.887081 124.321266 
L 162.67815 121.424074 
L 163.469219 121.912657 
L 164.260287 112.277859 
L 165.051356 106.801447 
L 165.842424 106.593056 
L 167.424561 103.118661 
L 168.21563 102.355648 
L 169.006699 98.871943 
L 169.797767 99.191408 
L 170.588836 97.726075 
L 171.379904 102.670057 
L 172.170973 101.460051 
L 172.962041 98.681766 
L 173.75311 93.069334 
L 175.335247 86.50167 
L 176.126316 84.542805 
L 176.917384 75.939834 
L 177.708453 75.104518 
L 178.499522 73.34348 
L 179.29059 70.857011 
L 180.081659 78.631017 
L 180.872727 80.556674 
L 181.663796 84.724093 
L 182.454864 81.224167 
L 183.245933 73.014853 
L 184.037002 74.643 
L 184.82807 75.34456 
L 185.619139 75.582834 
L 186.410207 77.49399 
L 187.201276 79.099231 
L 187.992344 80.319275 
L 188.783413 79.906102 
L 189.574482 80.020237 
L 190.36555 80.646048 
L 191.156619 87.577386 
L 191.947687 101.494772 
L 192.738756 102.18825 
L 194.320893 120.697391 
L 195.111962 121.229936 
L 195.90303 109.037258 
L 196.694099 93.820892 
L 197.485167 89.114225 
L 199.067305 65.607294 
L 199.858373 65.317006 
L 200.649442 62.408393 
L 201.44051 60.425014 
L 202.231579 62.375833 
L 203.022648 59.622763 
L 203.813716 54.685006 
L 204.604785 57.265945 
L 205.395853 55.526681 
L 206.186922 55.746193 
L 206.97799 57.166721 
L 207.769059 55.491413 
L 208.560128 51.329774 
L 209.351196 50.830516 
L 210.142265 54.62384 
L 210.933333 54.119189 
L 211.724402 49.232234 
L 213.306539 50.168529 
L 214.097608 52.199932 
L 214.888676 52.92437 
L 215.679745 47.475849 
L 217.261882 52.648571 
L 218.052951 47.720839 
L 218.844019 48.932744 
L 219.635088 48.819444 
L 220.426156 45.147096 
L 221.217225 46.038497 
L 222.008293 44.074239 
L 222.799362 43.405399 
L 223.590431 41.195268 
L 224.381499 42.493425 
L 225.172568 48.309593 
L 225.963636 45.582903 
L 226.754705 46.920422 
L 227.545774 46.259905 
L 228.336842 40.531875 
L 229.127911 43.758173 
L 229.918979 45.039203 
L 231.501116 51.96162 
L 232.292185 56.293621 
L 233.083254 61.457509 
L 233.874322 60.974879 
L 234.665391 60.750249 
L 235.456459 62.603406 
L 236.247528 63.728487 
L 237.038596 73.401332 
L 237.829665 74.611214 
L 238.620734 75.011435 
L 239.411802 70.812305 
L 240.202871 67.269824 
L 240.993939 66.505723 
L 242.576077 74.543773 
L 243.367145 73.905252 
L 244.158214 81.943573 
L 244.949282 85.231498 
L 245.740351 93.809055 
L 246.531419 94.09283 
L 247.322488 110.094771 
L 248.113557 120.031295 
L 248.904625 117.133458 
L 249.695694 104.05762 
L 250.486762 86.520692 
L 251.277831 76.365556 
L 252.0689 69.951527 
L 252.859968 65.784927 
L 253.651037 64.718338 
L 254.442105 65.460281 
L 255.233174 65.773368 
L 256.815311 68.913524 
L 257.60638 67.831051 
L 258.397448 71.952904 
L 259.188517 71.407152 
L 259.979585 74.478466 
L 260.770654 76.506079 
L 261.561722 77.447067 
L 262.352791 75.757128 
L 263.14386 80.894003 
L 263.934928 83.652044 
L 264.725997 90.214273 
L 265.517065 95.815489 
L 266.308134 85.621419 
L 267.099203 79.848856 
L 267.890271 84.116527 
L 268.68134 83.241969 
L 269.472408 85.817444 
L 270.263477 76.213053 
L 271.054545 73.91456 
L 271.845614 69.488538 
L 272.636683 67.906531 
L 273.427751 73.980355 
L 274.21882 70.208607 
L 275.009888 62.507475 
L 275.800957 57.449008 
L 276.592026 58.013209 
L 277.383094 57.017159 
L 278.174163 57.967552 
L 278.965231 57.845632 
L 279.7563 55.270505 
L 280.547368 58.500821 
L 281.338437 59.830577 
L 282.129506 61.974053 
L 282.920574 69.531167 
L 283.711643 71.241752 
L 284.502711 76.137591 
L 285.29378 83.307939 
L 286.084848 86.089594 
L 286.875917 85.308197 
L 287.666986 92.111353 
L 288.458054 95.641272 
L 289.249123 99.731011 
L 290.83126 106.743392 
L 291.622329 112.424769 
L 292.413397 110.812885 
L 293.204466 110.337356 
L 293.995534 113.397716 
L 294.786603 118.426428 
L 296.36874 123.290899 
L 297.950877 131.032707 
L 298.741946 132.591598 
L 299.533014 130.751474 
L 300.324083 133.383706 
L 301.115152 131.580407 
L 301.90622 132.405472 
L 302.697289 136.049282 
L 303.488357 137.248746 
L 304.279426 138.952369 
L 305.070494 141.573766 
L 306.652632 144.177587 
L 307.4437 146.752659 
L 308.234769 148.119272 
L 309.025837 147.484845 
L 309.816906 147.566578 
L 310.607974 146.21275 
L 312.190112 144.823712 
L 312.98118 145.130865 
L 313.772249 143.765984 
L 314.563317 146.718615 
L 315.354386 148.588772 
L 316.145455 146.707253 
L 316.936523 145.467881 
L 317.727592 146.047056 
L 318.51866 143.759102 
L 319.309729 145.044766 
L 320.100797 148.464313 
L 320.891866 151.077895 
L 321.682935 150.505397 
L 322.474003 150.644383 
L 323.265072 151.506935 
L 324.05614 152.933479 
L 324.847209 153.330579 
L 325.638278 154.663181 
L 326.429346 154.408373 
L 327.220415 156.248281 
L 328.011483 155.694579 
L 328.802552 155.859671 
L 329.59362 154.240719 
L 330.384689 152.239996 
L 331.175758 152.129097 
L 331.966826 150.789127 
L 332.757895 153.234749 
L 334.340032 153.581324 
L 335.1311 152.829989 
L 335.922169 153.722542 
L 336.713238 154.082867 
L 337.504306 154.882413 
L 338.295375 153.688444 
L 339.086443 152.731782 
L 339.877512 154.255788 
L 340.668581 152.528473 
L 342.250718 154.537041 
L 343.041786 155.387304 
L 343.832855 154.083071 
L 344.623923 155.971777 
L 345.414992 158.715188 
L 346.206061 159.421534 
L 346.997129 159.819479 
L 348.579266 156.685788 
L 349.370335 158.312462 
L 350.161404 156.562173 
L 350.952472 155.706168 
L 351.743541 155.6713 
L 352.534609 155.277981 
L 353.325678 156.121928 
L 354.116746 156.07093 
L 354.907815 155.467235 
L 355.698884 153.270193 
L 356.489952 154.113104 
L 357.281021 157.866093 
L 358.863158 150.781408 
L 359.654226 150.280809 
L 360.445295 148.50011 
L 361.236364 150.265049 
L 362.027432 151.133314 
L 362.818501 150.201819 
L 363.609569 148.516769 
L 364.400638 150.100405 
L 365.191707 149.893755 
L 365.982775 148.23886 
L 366.773844 148.202665 
L 367.564912 147.770586 
L 368.355981 148.775809 
L 369.147049 149.44418 
L 369.938118 149.718947 
L 370.729187 149.359035 
L 371.520255 151.536635 
L 372.311324 152.35718 
L 373.102392 152.588816 
L 373.893461 151.798742 
L 374.68453 149.730718 
L 375.475598 149.540849 
L 376.266667 147.701297 
L 377.057735 146.417943 
L 377.848804 147.357725 
L 378.639872 148.096266 
L 379.430941 147.582988 
L 380.22201 144.8948 
L 381.013078 144.111529 
L 381.804147 144.809112 
L 382.595215 146.848325 
L 383.386284 146.734392 
L 384.177352 148.759742 
L 384.968421 148.412199 
L 385.75949 147.354269 
L 386.550558 147.630254 
L 387.341627 146.229528 
L 388.132695 144.149668 
L 388.923764 145.933241 
L 390.505901 147.889155 
L 391.29697 150.977965 
L 392.088038 146.006609 
L 392.879107 148.486483 
L 393.670175 148.826476 
L 394.461244 148.249218 
L 395.252313 144.835898 
L 396.043381 145.56263 
L 396.83445 144.356941 
L 397.625518 147.213461 
L 398.416587 148.016622 
L 399.207656 145.509418 
L 399.998724 147.773839 
L 400.789793 149.459574 
L 401.580861 151.884796 
L 402.37193 153.865276 
L 403.162998 154.506341 
L 403.954067 154.522691 
L 404.745136 154.901425 
L 405.536204 155.553323 
L 406.327273 154.490128 
L 407.118341 156.685491 
L 407.90941 152.61397 
L 408.700478 152.73272 
L 410.282616 151.836721 
L 411.864753 148.946811 
L 412.655821 146.729212 
L 413.44689 141.33455 
L 414.237959 141.301182 
L 415.029027 139.361301 
L 415.820096 137.824783 
L 416.611164 137.235531 
L 417.402233 139.163794 
L 418.193301 140.156817 
L 418.98437 140.79489 
L 419.775439 141.115597 
L 420.566507 142.787879 
L 421.357576 142.068105 
L 422.148644 142.087456 
L 422.939713 144.293244 
L 423.730781 147.2558 
L 425.312919 139.371592 
L 426.103987 138.339541 
L 426.895056 137.832363 
L 427.686124 138.42789 
L 428.477193 140.360785 
L 429.268262 139.662943 
L 430.05933 143.037841 
L 430.850399 138.385183 
L 431.641467 137.447312 
L 432.432536 136.824466 
L 433.223604 134.615279 
L 434.014673 135.655665 
L 434.805742 139.562837 
L 435.59681 141.581122 
L 436.387879 141.962756 
L 437.178947 146.214409 
L 437.970016 142.411426 
L 438.761085 145.824826 
L 439.552153 146.732261 
L 440.343222 143.688924 
L 441.13429 142.840446 
L 441.925359 145.873436 
L 442.716427 145.450627 
L 443.507496 143.373619 
L 444.298565 143.313235 
L 445.089633 146.280307 
L 445.880702 148.658131 
L 446.67177 148.685106 
L 447.462839 143.603714 
L 448.253907 145.392249 
L 449.044976 147.760738 
L 449.836045 151.492445 
L 450.627113 150.923849 
L 451.418182 154.591936 
L 452.20925 153.405631 
L 453.000319 152.902498 
L 453.791388 153.264989 
L 454.582456 152.276442 
L 456.164593 148.81378 
L 456.955662 150.818416 
L 457.74673 146.924557 
L 458.537799 149.703345 
L 459.328868 149.577959 
L 460.119936 146.620531 
L 460.911005 148.581628 
L 461.702073 147.745704 
L 462.493142 147.447208 
L 463.284211 145.361697 
L 464.075279 144.630124 
L 464.866348 145.853282 
L 466.448485 141.863573 
L 467.239553 142.066573 
L 468.030622 145.830963 
L 468.821691 139.871092 
L 469.612759 141.026329 
L 470.403828 139.014108 
L 471.194896 140.593406 
L 471.985965 138.663895 
L 472.777033 140.288871 
L 474.359171 139.056167 
L 475.150239 130.464074 
L 475.941308 126.09415 
L 476.732376 128.046719 
L 477.523445 131.212562 
L 478.314514 128.254402 
L 479.105582 129.752671 
L 479.896651 128.816469 
L 480.687719 135.47768 
L 481.478788 132.76712 
L 482.269856 126.418416 
L 483.060925 118.629519 
L 483.851994 121.534135 
L 484.643062 121.23344 
L 485.434131 123.939429 
L 486.225199 125.875664 
L 487.016268 129.611948 
L 487.807337 126.580063 
L 488.598405 117.699624 
L 489.389474 114.519 
L 490.180542 112.178469 
L 491.762679 101.454753 
L 492.553748 106.847872 
L 494.926954 100.935597 
L 495.718022 109.492438 
L 496.509091 110.047853 
L 496.509091 110.047853 
" clip-path="url(#p1d02b5229d)" style="fill: none; stroke: #1f77b4; stroke-width: 1.5; stroke-linecap: square"/>
   </g>
   <g id="line2d_26">
    <path d="M 90.690909 292.531875 
L 91.481978 285.799291 
L 92.273046 271.456143 
L 93.064115 277.920321 
L 93.855183 278.81949 
L 94.646252 276.290629 
L 95.437321 276.519064 
L 96.228389 281.447226 
L 97.019458 283.937789 
L 97.810526 268.069603 
L 98.601595 273.462301 
L 99.392663 277.629025 
L 100.183732 279.757017 
L 100.974801 272.455478 
L 102.556938 264.920371 
L 103.348006 268.426144 
L 104.139075 246.669716 
L 104.930144 231.347593 
L 105.721212 219.908891 
L 106.512281 211.241983 
L 107.303349 212.352561 
L 108.094418 215.495448 
L 108.885486 215.885644 
L 109.676555 214.805551 
L 110.467624 214.326442 
L 111.258692 230.860684 
L 112.049761 232.102625 
L 112.840829 213.708348 
L 113.631898 200.158926 
L 114.422967 193.618612 
L 116.005104 172.817518 
L 116.796172 152.379001 
L 118.378309 137.653115 
L 119.169378 148.076772 
L 119.960447 146.979051 
L 120.751515 139.349853 
L 121.542584 154.253384 
L 122.333652 147.19179 
L 123.124721 146.457536 
L 123.915789 138.782179 
L 124.706858 129.175779 
L 125.497927 117.566579 
L 126.288995 114.579408 
L 127.080064 109.714632 
L 127.871132 108.882586 
L 128.662201 108.29819 
L 130.244338 104.8918 
L 131.035407 107.735625 
L 131.826475 114.764869 
L 132.617544 117.651307 
L 134.199681 111.031787 
L 134.99075 108.910589 
L 135.781818 108.547745 
L 136.572887 107.731034 
L 137.363955 107.929533 
L 138.155024 104.613565 
L 138.946093 100.61412 
L 139.737161 101.075925 
L 140.52823 98.515311 
L 141.319298 98.668275 
L 142.110367 100.246793 
L 142.901435 93.800772 
L 143.692504 95.150618 
L 144.483573 94.877964 
L 145.274641 94.091741 
L 146.06571 91.65928 
L 146.856778 93.556541 
L 147.647847 92.009398 
L 148.438915 94.941516 
L 149.229984 93.760113 
L 150.021053 97.430048 
L 150.812121 97.251997 
L 151.60319 97.559004 
L 152.394258 102.024697 
L 153.185327 102.052224 
L 153.976396 97.923022 
L 154.767464 98.146963 
L 155.558533 92.841611 
L 156.349601 92.191722 
L 157.14067 94.702698 
L 157.931738 104.594026 
L 158.722807 102.985926 
L 159.513876 106.35982 
L 160.304944 105.937998 
L 161.096013 107.164619 
L 163.469219 124.632554 
L 164.260287 126.415832 
L 165.051356 130.268847 
L 165.842424 128.95167 
L 167.424561 122.67824 
L 168.21563 119.136465 
L 169.006699 117.001072 
L 169.797767 114.384672 
L 170.588836 115.194816 
L 171.379904 113.158456 
L 172.170973 114.862225 
L 172.962041 114.081263 
L 173.75311 112.133028 
L 174.544179 116.316936 
L 175.335247 111.197888 
L 177.708453 89.2209 
L 178.499522 86.546282 
L 179.29059 86.297536 
L 180.081659 87.724447 
L 180.872727 93.296576 
L 181.663796 92.487854 
L 182.454864 84.574811 
L 184.037002 93.530812 
L 184.82807 92.599406 
L 185.619139 97.275466 
L 186.410207 95.557218 
L 187.992344 93.67367 
L 188.783413 97.266733 
L 189.574482 97.312904 
L 190.36555 90.554322 
L 191.156619 91.865784 
L 191.947687 93.955958 
L 192.738756 100.94298 
L 193.529825 101.720986 
L 194.320893 101.825817 
L 195.111962 102.519623 
L 196.694099 101.008566 
L 197.485167 103.47275 
L 198.276236 100.779671 
L 199.067305 102.653335 
L 199.858373 100.789961 
L 200.649442 96.360697 
L 201.44051 97.501266 
L 202.231579 100.105624 
L 203.022648 99.927228 
L 203.813716 103.852964 
L 204.604785 103.707441 
L 205.395853 103.911548 
L 206.186922 103.516213 
L 206.97799 105.577438 
L 208.560128 98.667992 
L 209.351196 98.841685 
L 210.142265 95.899875 
L 210.933333 94.663667 
L 211.724402 94.049687 
L 212.51547 93.134148 
L 213.306539 99.114657 
L 214.097608 97.846985 
L 214.888676 96.360069 
L 215.679745 97.983675 
L 216.470813 103.33011 
L 217.261882 107.74321 
L 218.052951 108.596598 
L 218.844019 110.231586 
L 219.635088 105.273866 
L 220.426156 103.490896 
L 221.217225 104.765436 
L 222.008293 102.970595 
L 222.799362 103.324268 
L 223.590431 107.135754 
L 224.381499 105.955525 
L 225.172568 107.006384 
L 225.963636 105.356402 
L 226.754705 102.328535 
L 227.545774 104.880291 
L 228.336842 110.655408 
L 229.127911 110.773381 
L 229.918979 113.446176 
L 230.710048 113.482362 
L 231.501116 114.468087 
L 232.292185 118.131336 
L 233.083254 120.828078 
L 233.874322 122.061388 
L 234.665391 119.3777 
L 235.456459 116.193966 
L 236.247528 113.589835 
L 237.038596 114.943921 
L 237.829665 113.086064 
L 238.620734 110.762028 
L 239.411802 112.03592 
L 240.202871 112.341996 
L 240.993939 110.625195 
L 241.785008 108.600534 
L 242.576077 105.907499 
L 243.367145 101.299883 
L 244.158214 99.417934 
L 244.949282 98.762568 
L 245.740351 98.449358 
L 246.531419 94.988675 
L 247.322488 94.135608 
L 248.113557 97.235105 
L 248.904625 99.6769 
L 250.486762 110.121602 
L 251.277831 109.631398 
L 252.0689 106.072491 
L 252.859968 101.848127 
L 253.651037 101.351963 
L 254.442105 101.667449 
L 255.233174 102.373787 
L 256.024242 105.072277 
L 256.815311 103.708503 
L 257.60638 100.425865 
L 258.397448 101.502883 
L 259.188517 100.412147 
L 259.979585 102.605758 
L 260.770654 104.110274 
L 261.561722 104.873557 
L 262.352791 107.889737 
L 263.14386 102.64196 
L 263.934928 100.739846 
L 264.725997 96.592167 
L 265.517065 94.238719 
L 266.308134 96.693168 
L 267.099203 97.415593 
L 267.890271 98.951624 
L 268.68134 101.276019 
L 269.472408 99.246891 
L 270.263477 96.537878 
L 271.054545 96.344783 
L 271.845614 91.46532 
L 272.636683 90.170953 
L 273.427751 91.749234 
L 274.21882 92.275499 
L 275.009888 90.001496 
L 275.800957 86.472585 
L 276.592026 87.034576 
L 277.383094 91.020189 
L 278.174163 90.078352 
L 278.965231 91.11179 
L 279.7563 93.097194 
L 280.547368 89.625218 
L 281.338437 91.115684 
L 282.920574 99.881345 
L 283.711643 100.855641 
L 285.29378 102.474105 
L 286.084848 101.989479 
L 286.875917 104.637845 
L 287.666986 106.545382 
L 288.458054 109.866978 
L 289.249123 109.393529 
L 290.83126 106.980578 
L 291.622329 104.708414 
L 292.413397 106.879848 
L 293.204466 106.831268 
L 293.995534 105.763535 
L 294.786603 109.318176 
L 295.577671 110.91271 
L 296.36874 108.210526 
L 297.159809 110.687523 
L 297.950877 109.727257 
L 298.741946 111.499688 
L 299.533014 108.815362 
L 300.324083 105.073386 
L 301.115152 108.846171 
L 301.90622 111.848749 
L 302.697289 113.528202 
L 303.488357 115.787697 
L 304.279426 116.10016 
L 305.070494 113.147627 
L 305.861563 112.12253 
L 306.652632 115.164028 
L 307.4437 115.820973 
L 308.234769 114.96265 
L 309.816906 108.002525 
L 310.607974 108.39787 
L 311.399043 112.891639 
L 312.190112 109.223128 
L 312.98118 112.064901 
L 314.563317 103.539497 
L 315.354386 104.471023 
L 316.145455 107.465044 
L 316.936523 101.199324 
L 317.727592 100.386365 
L 318.51866 100.787103 
L 319.309729 95.514483 
L 320.100797 97.027343 
L 320.891866 96.255684 
L 321.682935 94.773451 
L 322.474003 94.656063 
L 323.265072 96.396564 
L 324.847209 96.461609 
L 325.638278 95.705956 
L 326.429346 91.416427 
L 327.220415 93.948755 
L 328.011483 91.087083 
L 328.802552 92.966884 
L 329.59362 95.831944 
L 330.384689 96.56322 
L 331.175758 95.823065 
L 331.966826 96.267679 
L 332.757895 95.183267 
L 333.548963 96.038401 
L 334.340032 95.517703 
L 335.1311 90.694578 
L 335.922169 93.892987 
L 336.713238 94.580142 
L 337.504306 89.334748 
L 338.295375 88.551228 
L 339.086443 85.988849 
L 339.877512 90.325911 
L 340.668581 87.397714 
L 341.459649 91.367412 
L 342.250718 88.647092 
L 343.041786 91.360492 
L 343.832855 95.364944 
L 344.623923 100.679002 
L 345.414992 106.812917 
L 346.206061 108.237695 
L 346.997129 108.900926 
L 347.788198 109.218113 
L 348.579266 109.040123 
L 349.370335 110.547747 
L 350.161404 113.699476 
L 350.952472 108.752401 
L 351.743541 108.245486 
L 352.534609 106.485501 
L 353.325678 109.481371 
L 354.116746 110.913171 
L 354.907815 110.278061 
L 355.698884 108.74196 
L 356.489952 108.131187 
L 357.281021 105.019351 
L 358.072089 103.735757 
L 359.654226 95.456457 
L 360.445295 95.734618 
L 361.236364 96.464337 
L 362.027432 95.93283 
L 362.818501 94.749576 
L 363.609569 97.112246 
L 364.400638 88.85235 
L 365.191707 88.138666 
L 365.982775 91.693602 
L 366.773844 94.42748 
L 367.564912 95.007694 
L 368.355981 96.154164 
L 369.147049 95.647721 
L 369.938118 97.88241 
L 370.729187 102.81034 
L 371.520255 102.842729 
L 372.311324 102.358776 
L 373.102392 102.329145 
L 373.893461 95.782269 
L 374.68453 100.349053 
L 375.475598 99.020605 
L 376.266667 100.066754 
L 377.057735 99.203798 
L 377.848804 96.59875 
L 378.639872 95.579466 
L 379.430941 95.372564 
L 380.22201 101.988969 
L 381.804147 99.437551 
L 382.595215 100.300914 
L 383.386284 100.244927 
L 384.177352 98.341325 
L 384.968421 97.645212 
L 385.75949 98.491737 
L 386.550558 107.125119 
L 387.341627 107.799758 
L 388.132695 109.879232 
L 388.923764 108.038872 
L 389.714833 105.695629 
L 390.505901 105.765352 
L 391.29697 108.298832 
L 392.879107 100.883801 
L 393.670175 99.885504 
L 394.461244 97.354844 
L 395.252313 99.539959 
L 396.043381 95.673686 
L 396.83445 90.671587 
L 397.625518 92.262937 
L 398.416587 95.712911 
L 399.207656 96.728043 
L 399.998724 98.564391 
L 400.789793 99.055354 
L 401.580861 104.117445 
L 402.37193 98.688176 
L 403.162998 94.034028 
L 403.954067 96.780112 
L 404.745136 98.332108 
L 405.536204 95.795025 
L 406.327273 96.556167 
L 407.118341 94.53196 
L 407.90941 95.953012 
L 408.700478 96.546822 
L 409.491547 95.990199 
L 410.282616 96.294845 
L 411.073684 94.640827 
L 411.864753 94.176013 
L 412.655821 95.100313 
L 413.44689 96.61537 
L 414.237959 95.788469 
L 415.029027 95.655071 
L 415.820096 96.790795 
L 416.611164 96.958495 
L 417.402233 98.027323 
L 418.193301 102.049624 
L 418.98437 96.914401 
L 419.775439 101.923676 
L 420.566507 96.706532 
L 421.357576 96.928715 
L 422.148644 100.97857 
L 422.939713 101.618122 
L 423.730781 103.999106 
L 424.52185 101.788845 
L 425.312919 103.551624 
L 426.103987 101.766018 
L 426.895056 101.041585 
L 427.686124 101.379637 
L 428.477193 97.251241 
L 429.268262 97.957726 
L 430.850399 90.530357 
L 431.641467 89.851285 
L 432.432536 88.443851 
L 433.223604 86.513583 
L 434.014673 89.302154 
L 434.805742 91.041925 
L 435.59681 84.560745 
L 436.387879 80.074777 
L 437.178947 81.964772 
L 437.970016 79.762771 
L 438.761085 82.894473 
L 439.552153 87.344465 
L 440.343222 90.111887 
L 441.13429 87.383282 
L 441.925359 90.201082 
L 442.716427 84.9015 
L 443.507496 83.721926 
L 444.298565 78.253192 
L 445.089633 78.388117 
L 445.880702 82.915563 
L 446.67177 82.793267 
L 447.462839 79.303028 
L 448.253907 77.3383 
L 449.044976 78.658654 
L 449.836045 74.168154 
L 450.627113 81.846725 
L 451.418182 87.766065 
L 452.20925 85.289239 
L 452.20925 85.289239 
" clip-path="url(#p1d02b5229d)" style="fill: none; stroke: #ff7f0e; stroke-width: 1.5; stroke-linecap: square"/>
   </g>
   <g id="line2d_27">
    <path d="M 90.690909 291.765609 
L 91.481978 290.545937 
L 92.273046 291.121691 
L 93.064115 288.035457 
L 93.855183 283.924002 
L 94.646252 284.309982 
L 95.437321 282.916737 
L 96.228389 282.595411 
L 97.019458 284.192449 
L 97.810526 281.019471 
L 98.601595 279.747889 
L 99.392663 276.593639 
L 100.183732 269.692376 
L 100.974801 266.951561 
L 101.765869 260.407811 
L 102.556938 262.438133 
L 103.348006 264.107468 
L 104.139075 259.60114 
L 104.930144 262.052029 
L 105.721212 260.06163 
L 106.512281 247.910423 
L 107.303349 219.136961 
L 108.094418 198.611559 
L 108.885486 170.598386 
L 109.676555 156.854983 
L 111.258692 139.947974 
L 112.049761 142.033014 
L 112.840829 143.510793 
L 113.631898 142.02418 
L 114.422967 146.131398 
L 115.214035 149.638206 
L 116.005104 147.039012 
L 116.796172 147.285317 
L 117.587241 142.982535 
L 118.378309 142.238674 
L 119.169378 138.357893 
L 119.960447 142.340142 
L 120.751515 152.054506 
L 121.542584 165.737577 
L 122.333652 174.2146 
L 123.915789 150.841428 
L 124.706858 169.717927 
L 125.497927 193.83319 
L 126.288995 198.391224 
L 127.080064 187.962788 
L 127.871132 180.197093 
L 128.662201 159.475292 
L 129.45327 164.121163 
L 130.244338 182.258742 
L 131.035407 183.715332 
L 131.826475 200.996852 
L 132.617544 180.140607 
L 133.408612 172.959313 
L 134.199681 171.928522 
L 134.99075 199.958135 
L 135.781818 190.999364 
L 136.572887 186.947243 
L 137.363955 175.723674 
L 138.946093 161.979874 
L 139.737161 151.687885 
L 141.319298 144.376618 
L 142.110367 135.930336 
L 142.901435 139.269752 
L 144.483573 127.790373 
L 145.274641 133.687296 
L 146.06571 147.628443 
L 146.856778 152.965558 
L 147.647847 164.763766 
L 148.438915 170.544896 
L 149.229984 154.850469 
L 150.021053 145.31907 
L 150.812121 127.934529 
L 151.60319 121.001584 
L 152.394258 141.228231 
L 153.185327 137.53476 
L 153.976396 140.576284 
L 154.767464 142.52164 
L 155.558533 147.376436 
L 157.14067 159.081286 
L 157.931738 156.579448 
L 158.722807 136.295068 
L 159.513876 138.05103 
L 160.304944 142.054041 
L 161.096013 135.341145 
L 161.887081 119.360796 
L 162.67815 107.374387 
L 163.469219 98.136672 
L 164.260287 97.416307 
L 165.051356 87.761945 
L 165.842424 87.450757 
L 166.633493 89.197164 
L 167.424561 97.805109 
L 168.21563 97.592482 
L 169.006699 103.293071 
L 169.797767 114.49737 
L 170.588836 117.651393 
L 171.379904 111.86191 
L 172.170973 115.241151 
L 172.962041 115.442209 
L 174.544179 120.619848 
L 175.335247 112.618615 
L 176.126316 111.867074 
L 176.917384 113.717757 
L 177.708453 106.259678 
L 178.499522 104.342187 
L 179.29059 98.944446 
L 180.081659 95.258705 
L 180.872727 85.211645 
L 181.663796 87.078814 
L 182.454864 84.97271 
L 183.245933 85.138188 
L 184.037002 95.082776 
L 184.82807 102.454505 
L 185.619139 97.76863 
L 186.410207 106.980948 
L 187.201276 104.229544 
L 187.992344 94.429265 
L 188.783413 87.228419 
L 189.574482 87.140784 
L 190.36555 93.007039 
L 191.156619 129.458431 
L 191.947687 158.230647 
L 192.738756 193.148668 
L 193.529825 211.518829 
L 194.320893 225.089072 
L 195.111962 232.843895 
L 195.90303 234.156529 
L 196.694099 232.650695 
L 197.485167 235.884456 
L 198.276236 238.596751 
L 199.067305 240.045571 
L 199.858373 240.285223 
L 200.649442 236.17546 
L 201.44051 233.24874 
L 202.231579 231.225958 
L 203.022648 220.506266 
L 203.813716 226.440228 
L 204.604785 227.955961 
L 205.395853 225.219549 
L 206.186922 223.641523 
L 206.97799 225.076854 
L 209.351196 129.483373 
L 210.142265 118.561616 
L 210.933333 111.933999 
L 211.724402 98.725162 
L 212.51547 92.581517 
L 213.306539 93.339974 
L 214.097608 92.775525 
L 214.888676 95.980375 
L 215.679745 104.482781 
L 216.470813 107.830834 
L 217.261882 101.9533 
L 218.844019 96.555003 
L 219.635088 97.447724 
L 220.426156 96.858722 
L 221.217225 99.593105 
L 222.008293 98.755627 
L 222.799362 103.412239 
L 223.590431 109.117935 
L 224.381499 112.283164 
L 225.172568 117.854846 
L 225.963636 118.947193 
L 226.754705 111.68372 
L 227.545774 107.914952 
L 228.336842 112.031697 
L 229.127911 115.344759 
L 230.710048 138.456387 
L 231.501116 128.660405 
L 232.292185 121.794341 
L 233.083254 116.620724 
L 233.874322 108.447041 
L 234.665391 103.832693 
L 235.456459 100.213237 
L 236.247528 103.376976 
L 237.038596 101.863814 
L 237.829665 103.446441 
L 238.620734 107.284149 
L 239.411802 108.80237 
L 240.202871 107.444396 
L 240.993939 108.7216 
L 242.576077 117.112775 
L 243.367145 121.712023 
L 244.158214 120.884446 
L 245.740351 115.824585 
L 246.531419 110.952217 
L 247.322488 112.90464 
L 248.113557 103.362537 
L 248.904625 101.364329 
L 249.695694 99.990008 
L 251.277831 99.905815 
L 252.0689 101.213199 
L 252.859968 102.90343 
L 253.651037 118.096725 
L 254.442105 126.389045 
L 255.233174 126.182511 
L 256.024242 137.950698 
L 256.815311 137.069418 
L 257.60638 125.743334 
L 258.397448 120.486397 
L 259.188517 116.132249 
L 259.979585 110.748766 
L 260.770654 107.402698 
L 261.561722 111.753539 
L 262.352791 119.608645 
L 263.14386 122.75174 
L 263.934928 144.338553 
L 265.517065 177.212044 
L 267.890271 205.862847 
L 268.68134 204.095355 
L 269.472408 203.242288 
L 270.263477 202.813855 
L 271.054545 213.752154 
L 271.845614 214.285317 
L 272.636683 214.667662 
L 273.427751 212.61255 
L 274.21882 214.150068 
L 275.009888 206.209181 
L 275.800957 203.003843 
L 276.592026 204.014498 
L 277.383094 203.063696 
L 278.174163 204.204564 
L 278.965231 208.036468 
L 279.7563 207.932191 
L 280.547368 212.211032 
L 281.338437 213.690189 
L 282.129506 213.677835 
L 282.920574 214.86472 
L 283.711643 211.360548 
L 284.502711 215.392946 
L 285.29378 218.386752 
L 286.084848 217.822357 
L 286.875917 218.285506 
L 287.666986 218.371073 
L 288.458054 212.367448 
L 290.040191 206.452201 
L 290.83126 209.633046 
L 291.622329 206.655756 
L 292.413397 206.961714 
L 293.204466 205.889225 
L 293.995534 205.583012 
L 294.786603 204.243924 
L 296.36874 202.535705 
L 297.159809 206.196848 
L 297.950877 209.277624 
L 298.741946 209.192882 
L 299.533014 206.524358 
L 300.324083 208.948018 
L 301.115152 208.235598 
L 301.90622 207.151676 
L 302.697289 207.611681 
L 303.488357 209.40255 
L 304.279426 214.3233 
L 305.070494 216.981449 
L 305.861563 218.234784 
L 306.652632 215.721768 
L 307.4437 213.750224 
L 308.234769 213.425549 
L 309.025837 214.662798 
L 309.816906 219.168308 
L 310.607974 219.752251 
L 311.399043 215.384699 
L 312.190112 212.538346 
L 312.98118 210.570141 
L 313.772249 209.22995 
L 314.563317 206.565807 
L 315.354386 202.230709 
L 316.145455 205.34695 
L 316.936523 203.746211 
L 317.727592 200.971028 
L 318.51866 203.001793 
L 319.309729 194.670058 
L 320.891866 185.26536 
L 321.682935 179.992766 
L 322.474003 158.714911 
L 323.265072 140.738135 
L 326.429346 110.447309 
L 327.220415 111.905189 
L 329.59362 94.655108 
L 330.384689 90.977516 
L 331.175758 85.59192 
L 331.966826 83.598475 
L 332.757895 82.184734 
L 334.340032 85.912826 
L 335.922169 93.311781 
L 336.713238 93.671426 
L 337.504306 99.836783 
L 338.295375 104.916623 
L 339.086443 103.30271 
L 339.877512 102.551497 
L 340.668581 103.485246 
L 341.459649 105.285106 
L 342.250718 106.711916 
L 343.041786 102.649852 
L 343.832855 104.00405 
L 344.623923 104.851581 
L 345.414992 101.586702 
L 346.206061 100.555059 
L 346.997129 102.109194 
L 347.788198 107.499126 
L 348.579266 105.55706 
L 350.161404 111.680044 
L 350.952472 117.295744 
L 351.743541 116.409231 
L 352.534609 117.784358 
L 353.325678 113.988374 
L 354.116746 116.205195 
L 354.907815 114.97859 
L 355.698884 118.593592 
L 356.489952 126.57205 
L 357.281021 123.78208 
L 358.072089 121.525647 
L 358.863158 126.726804 
L 359.654226 128.011462 
L 360.445295 133.718652 
L 361.236364 133.781402 
L 362.027432 133.536317 
L 362.818501 134.548933 
L 363.609569 133.927591 
L 364.400638 132.817031 
L 365.191707 132.150064 
L 365.982775 128.545797 
L 366.773844 128.334378 
L 368.355981 130.997159 
L 369.147049 135.6157 
L 370.729187 139.061622 
L 371.520255 139.411349 
L 372.311324 140.978838 
L 373.102392 144.464634 
L 373.893461 144.559861 
L 375.475598 141.988038 
L 376.266667 139.451251 
L 377.057735 138.305406 
L 377.848804 138.839832 
L 378.639872 136.245621 
L 379.430941 132.007316 
L 381.013078 133.391285 
L 381.804147 131.962296 
L 382.595215 124.510382 
L 383.386284 120.962713 
L 384.177352 120.268633 
L 384.968421 122.485097 
L 385.75949 122.999651 
L 386.550558 124.621824 
L 387.341627 121.423455 
L 388.132695 124.321046 
L 388.923764 122.099922 
L 390.505901 109.693657 
L 391.29697 112.885004 
L 392.088038 113.791916 
L 393.670175 117.179111 
L 394.461244 116.641603 
L 395.252313 118.104931 
L 396.83445 122.150633 
L 397.625518 124.358344 
L 398.416587 125.749905 
L 399.207656 126.043872 
L 399.998724 129.441729 
L 400.789793 131.228212 
L 401.580861 131.63341 
L 402.37193 128.631213 
L 403.162998 130.522892 
L 403.954067 130.350945 
L 404.745136 128.531942 
L 405.536204 129.357467 
L 406.327273 130.664932 
L 407.118341 129.287639 
L 407.90941 129.609989 
L 408.700478 128.855273 
L 409.491547 129.994627 
L 410.282616 129.635989 
L 411.073684 127.084298 
L 411.864753 126.575795 
L 412.655821 122.825297 
L 413.44689 117.480866 
L 414.237959 118.471038 
L 415.029027 118.461004 
L 415.820096 121.784709 
L 416.611164 124.099295 
L 417.402233 123.302138 
L 418.193301 121.549081 
L 418.98437 118.027612 
L 420.566507 113.983419 
L 421.357576 116.851625 
L 422.148644 118.921484 
L 422.939713 117.390855 
L 423.730781 119.949027 
L 424.52185 119.981295 
L 426.103987 122.303008 
L 426.895056 122.714009 
L 427.686124 122.096651 
L 428.477193 123.923234 
L 429.268262 121.838667 
L 430.05933 125.581262 
L 430.850399 121.564252 
L 431.641467 121.846265 
L 432.432536 125.071419 
L 433.223604 124.893457 
L 434.014673 127.843034 
L 434.805742 132.110784 
L 435.59681 133.8623 
L 436.387879 139.746176 
L 437.178947 141.382352 
L 437.970016 142.731636 
L 438.761085 141.790665 
L 439.552153 141.240651 
L 440.343222 140.486857 
L 441.13429 139.397149 
L 441.925359 137.711096 
L 442.716427 135.393364 
L 443.507496 132.159126 
L 444.298565 132.21629 
L 445.089633 130.227493 
L 445.880702 132.105685 
L 447.462839 131.368696 
L 448.253907 130.307408 
L 449.044976 130.107766 
L 449.836045 126.033137 
L 450.627113 124.867614 
L 451.418182 124.587612 
L 452.20925 124.076077 
L 453.000319 122.88492 
L 454.582456 123.955659 
L 455.373525 122.66477 
L 456.164593 121.973225 
L 456.955662 122.076179 
L 457.74673 120.052004 
L 458.537799 119.550895 
L 459.328868 121.276806 
L 460.911005 127.195314 
L 461.702073 126.247989 
L 462.493142 125.967785 
L 463.284211 123.856539 
L 464.075279 124.747685 
L 465.657416 124.363286 
L 466.448485 123.533564 
L 468.030622 125.677034 
L 468.821691 123.812115 
L 469.612759 122.698138 
L 470.403828 122.972264 
L 471.194896 124.475902 
L 471.985965 124.382763 
L 472.777033 128.912056 
L 473.568102 127.690137 
L 474.359171 129.118043 
L 475.150239 128.614252 
L 475.941308 128.59448 
L 476.732376 129.846976 
L 478.314514 133.471726 
L 479.105582 133.511849 
L 479.896651 133.095434 
L 480.687719 128.932259 
L 481.478788 130.305977 
L 482.269856 130.946794 
L 483.060925 132.017816 
L 483.851994 133.893878 
L 483.851994 133.893878 
" clip-path="url(#p1d02b5229d)" style="fill: none; stroke: #2ca02c; stroke-width: 1.5; stroke-linecap: square"/>
   </g>
   <g id="patch_3">
    <path d="M 70.4 305.131875 
L 70.4 27.931875 
" style="fill: none; stroke: #000000; stroke-width: 0.8; stroke-linejoin: miter; stroke-linecap: square"/>
   </g>
   <g id="patch_4">
    <path d="M 516.8 305.131875 
L 516.8 27.931875 
" style="fill: none; stroke: #000000; stroke-width: 0.8; stroke-linejoin: miter; stroke-linecap: square"/>
   </g>
   <g id="patch_5">
    <path d="M 70.4 305.131875 
L 516.8 305.131875 
" style="fill: none; stroke: #000000; stroke-width: 0.8; stroke-linejoin: miter; stroke-linecap: square"/>
   </g>
   <g id="patch_6">
    <path d="M 70.4 27.931875 
L 516.8 27.931875 
" style="fill: none; stroke: #000000; stroke-width: 0.8; stroke-linejoin: miter; stroke-linecap: square"/>
   </g>
   <g id="text_15">
    <!-- ML10 Meta Test Average  Return -->
    <g transform="translate(146.326813 21.931875)scale(0.216 -0.216)">
     <defs>
      <path id="STIXGeneral-Regular-4d" d="M 5530 0 
L 3738 0 
L 3738 122 
Q 4115 147 4214 265 
Q 4314 384 4314 787 
L 4314 3661 
L 2682 0 
L 2592 0 
L 979 3514 
L 979 966 
Q 979 448 1088 294 
Q 1197 141 1574 122 
L 1574 0 
L 77 0 
L 77 122 
Q 358 141 480 205 
Q 602 269 650 432 
Q 698 595 698 966 
L 698 3514 
Q 698 3878 589 3984 
Q 480 4090 90 4115 
L 90 4237 
L 1357 4237 
L 2835 1024 
L 4250 4237 
L 5523 4237 
L 5523 4115 
Q 5178 4109 5072 3993 
Q 4966 3878 4966 3520 
L 4966 717 
Q 4966 378 5072 262 
Q 5178 147 5530 122 
L 5530 0 
z
" transform="scale(0.015625)"/>
      <path id="STIXGeneral-Regular-4c" d="M 3827 1114 
L 3520 0 
L 77 0 
L 77 122 
Q 429 141 531 256 
Q 634 371 634 736 
L 634 3494 
Q 634 3872 541 3981 
Q 448 4090 77 4115 
L 77 4237 
L 1888 4237 
L 1888 4115 
Q 1498 4090 1392 3984 
Q 1286 3878 1286 3507 
L 1286 538 
Q 1286 358 1398 304 
Q 1510 250 1862 250 
L 2310 250 
Q 3085 250 3392 640 
Q 3520 813 3661 1114 
L 3827 1114 
z
" transform="scale(0.015625)"/>
      <path id="STIXGeneral-Regular-54" d="M 3795 3149 
L 3642 3149 
Q 3539 3674 3353 3821 
Q 3168 3968 2656 3968 
L 2278 3968 
L 2278 710 
Q 2278 346 2387 243 
Q 2496 141 2893 122 
L 2893 0 
L 1024 0 
L 1024 122 
Q 1427 147 1526 256 
Q 1626 365 1626 787 
L 1626 3968 
L 1242 3968 
Q 723 3968 540 3817 
Q 358 3667 262 3149 
L 109 3149 
L 154 4237 
L 3750 4237 
L 3795 3149 
z
" transform="scale(0.015625)"/>
      <path id="STIXGeneral-Regular-73" d="M 998 1926 
L 1664 1523 
Q 1984 1331 2105 1164 
Q 2227 998 2227 736 
Q 2227 416 1961 176 
Q 1696 -64 1331 -64 
Q 1030 -64 864 -6 
Q 691 51 570 51 
Q 461 51 416 -26 
L 333 -26 
L 333 979 
L 435 979 
Q 538 512 730 294 
Q 922 77 1248 77 
Q 1485 77 1632 211 
Q 1779 346 1779 550 
Q 1779 845 1440 1030 
L 1094 1222 
Q 326 1651 326 2150 
Q 326 2522 566 2730 
Q 806 2938 1210 2938 
Q 1491 2938 1638 2867 
Q 1754 2816 1818 2816 
Q 1862 2816 1920 2880 
L 1990 2880 
L 2022 2010 
L 1926 2010 
Q 1818 2445 1654 2621 
Q 1491 2797 1203 2797 
Q 986 2797 854 2688 
Q 723 2579 723 2362 
Q 723 2253 796 2128 
Q 870 2003 998 1926 
z
" transform="scale(0.015625)"/>
     </defs>
     <use xlink:href="#STIXGeneral-Regular-4d"/>
     <use xlink:href="#STIXGeneral-Regular-4c" x="88.899994"/>
     <use xlink:href="#STIXGeneral-Regular-31" x="149.999985"/>
     <use xlink:href="#STIXGeneral-Regular-30" x="199.999969"/>
     <use xlink:href="#STIXGeneral-Regular-20" x="249.999954"/>
     <use xlink:href="#STIXGeneral-Regular-4d" x="274.999939"/>
     <use xlink:href="#STIXGeneral-Regular-65" x="363.899933"/>
     <use xlink:href="#STIXGeneral-Regular-74" x="408.299927"/>
     <use xlink:href="#STIXGeneral-Regular-61" x="436.099915"/>
     <use xlink:href="#STIXGeneral-Regular-20" x="480.499908"/>
     <use xlink:href="#STIXGeneral-Regular-54" x="505.499893"/>
     <use xlink:href="#STIXGeneral-Regular-65" x="566.599884"/>
     <use xlink:href="#STIXGeneral-Regular-73" x="610.999878"/>
     <use xlink:href="#STIXGeneral-Regular-74" x="649.899872"/>
     <use xlink:href="#STIXGeneral-Regular-20" x="677.69986"/>
     <use xlink:href="#STIXGeneral-Regular-41" x="702.699844"/>
     <use xlink:href="#STIXGeneral-Regular-76" x="774.899826"/>
     <use xlink:href="#STIXGeneral-Regular-65" x="824.899811"/>
     <use xlink:href="#STIXGeneral-Regular-72" x="869.299805"/>
     <use xlink:href="#STIXGeneral-Regular-61" x="902.599792"/>
     <use xlink:href="#STIXGeneral-Regular-67" x="946.999786"/>
     <use xlink:href="#STIXGeneral-Regular-65" x="996.999771"/>
     <use xlink:href="#STIXGeneral-Regular-20" x="1041.399765"/>
     <use xlink:href="#STIXGeneral-Regular-20" x="1066.39975"/>
     <use xlink:href="#STIXGeneral-Regular-52" x="1091.399734"/>
     <use xlink:href="#STIXGeneral-Regular-65" x="1158.099731"/>
     <use xlink:href="#STIXGeneral-Regular-74" x="1202.499725"/>
     <use xlink:href="#STIXGeneral-Regular-75" x="1230.299713"/>
     <use xlink:href="#STIXGeneral-Regular-72" x="1280.299698"/>
     <use xlink:href="#STIXGeneral-Regular-6e" x="1313.599686"/>
    </g>
   </g>
   <g id="legend_1">
    <g id="patch_7">
     <path d="M 398.554687 298.131875 
L 507 298.131875 
Q 509.8 298.131875 509.8 295.331875 
L 509.8 237.216563 
Q 509.8 234.416562 507 234.416562 
L 398.554687 234.416562 
Q 395.754687 234.416562 395.754687 237.216563 
L 395.754687 295.331875 
Q 395.754687 298.131875 398.554687 298.131875 
z
" style="fill: #ffffff; opacity: 0.8; stroke: #cccccc; stroke-linejoin: miter"/>
    </g>
    <g id="line2d_28">
     <path d="M 401.354687 244.916562 
L 415.354687 244.916562 
L 429.354687 244.916562 
" style="fill: none; stroke: #1f77b4; stroke-width: 1.5; stroke-linecap: square"/>
    </g>
    <g id="text_16">
     <!-- disc=0.95 -->
     <g transform="translate(440.554687 249.816563)scale(0.14 -0.14)">
      <defs>
       <path id="STIXGeneral-Regular-64" d="M 3142 269 
L 2202 -64 
L 2176 -45 
L 2176 365 
Q 1869 -64 1357 -64 
Q 826 -64 499 317 
Q 173 698 173 1312 
Q 173 1990 563 2467 
Q 954 2944 1504 2944 
Q 1850 2944 2176 2669 
L 2176 3667 
Q 2176 3866 2118 3930 
Q 2061 3994 1882 3994 
Q 1792 3994 1741 3987 
L 1741 4090 
Q 2323 4243 2682 4371 
L 2714 4358 
L 2714 730 
Q 2714 506 2768 435 
Q 2822 365 2995 365 
Q 3034 365 3142 371 
L 3142 269 
z
M 2176 653 
L 2176 2125 
Q 2176 2381 1981 2573 
Q 1786 2765 1523 2765 
Q 1158 2765 940 2438 
Q 723 2112 723 1568 
Q 723 979 963 624 
Q 1203 269 1606 269 
Q 1907 269 2080 474 
Q 2176 582 2176 653 
z
" transform="scale(0.015625)"/>
       <path id="STIXGeneral-Regular-69" d="M 1152 4045 
Q 1152 3904 1056 3811 
Q 960 3718 819 3718 
Q 685 3718 592 3811 
Q 499 3904 499 4045 
Q 499 4179 595 4275 
Q 691 4371 826 4371 
Q 966 4371 1059 4275 
Q 1152 4179 1152 4045 
z
M 1619 0 
L 102 0 
L 102 96 
Q 435 115 521 211 
Q 608 307 608 666 
L 608 2118 
Q 608 2342 563 2432 
Q 518 2522 397 2522 
Q 243 2522 128 2490 
L 128 2592 
L 1120 2944 
L 1146 2918 
L 1146 672 
Q 1146 314 1226 218 
Q 1306 122 1619 96 
L 1619 0 
z
" transform="scale(0.015625)"/>
       <path id="STIXGeneral-Regular-3d" d="M 4077 2048 
L 307 2048 
L 307 2470 
L 4077 2470 
L 4077 2048 
z
M 4077 768 
L 307 768 
L 307 1190 
L 4077 1190 
L 4077 768 
z
" transform="scale(0.015625)"/>
       <path id="STIXGeneral-Regular-2e" d="M 1158 275 
Q 1158 134 1052 32 
Q 947 -70 800 -70 
Q 653 -70 550 32 
Q 448 134 448 281 
Q 448 429 553 534 
Q 659 640 806 640 
Q 947 640 1052 531 
Q 1158 422 1158 275 
z
" transform="scale(0.015625)"/>
       <path id="STIXGeneral-Regular-39" d="M 378 -141 
L 358 -13 
Q 1094 115 1603 608 
Q 2112 1101 2304 1882 
Q 1933 1517 1344 1517 
Q 826 1517 509 1875 
Q 192 2234 192 2816 
Q 192 3462 573 3894 
Q 954 4326 1523 4326 
Q 2131 4326 2528 3840 
Q 2938 3328 2938 2522 
Q 2938 1958 2742 1462 
Q 2547 966 2170 621 
Q 1773 262 1395 105 
Q 1018 -51 378 -141 
z
M 2317 2272 
L 2317 2522 
Q 2317 4147 1472 4147 
Q 1171 4147 1005 3930 
Q 909 3802 845 3546 
Q 781 3290 781 3034 
Q 781 2464 995 2128 
Q 1210 1792 1568 1792 
Q 1824 1792 2070 1917 
Q 2317 2042 2317 2272 
z
" transform="scale(0.015625)"/>
      </defs>
      <use xlink:href="#STIXGeneral-Regular-64"/>
      <use xlink:href="#STIXGeneral-Regular-69" x="49.999985"/>
      <use xlink:href="#STIXGeneral-Regular-73" x="77.799973"/>
      <use xlink:href="#STIXGeneral-Regular-63" x="116.699966"/>
      <use xlink:href="#STIXGeneral-Regular-3d" x="161.09996"/>
      <use xlink:href="#STIXGeneral-Regular-30" x="229.599945"/>
      <use xlink:href="#STIXGeneral-Regular-2e" x="279.59993"/>
      <use xlink:href="#STIXGeneral-Regular-39" x="304.599915"/>
      <use xlink:href="#STIXGeneral-Regular-35" x="354.599899"/>
     </g>
    </g>
    <g id="line2d_29">
     <path d="M 401.354687 264.755 
L 415.354687 264.755 
L 429.354687 264.755 
" style="fill: none; stroke: #ff7f0e; stroke-width: 1.5; stroke-linecap: square"/>
    </g>
    <g id="text_17">
     <!-- disc=0.99 -->
     <g transform="translate(440.554687 269.655)scale(0.14 -0.14)">
      <use xlink:href="#STIXGeneral-Regular-64"/>
      <use xlink:href="#STIXGeneral-Regular-69" x="49.999985"/>
      <use xlink:href="#STIXGeneral-Regular-73" x="77.799973"/>
      <use xlink:href="#STIXGeneral-Regular-63" x="116.699966"/>
      <use xlink:href="#STIXGeneral-Regular-3d" x="161.09996"/>
      <use xlink:href="#STIXGeneral-Regular-30" x="229.599945"/>
      <use xlink:href="#STIXGeneral-Regular-2e" x="279.59993"/>
      <use xlink:href="#STIXGeneral-Regular-39" x="304.599915"/>
      <use xlink:href="#STIXGeneral-Regular-39" x="354.599899"/>
     </g>
    </g>
    <g id="line2d_30">
     <path d="M 401.354687 284.593438 
L 415.354687 284.593438 
L 429.354687 284.593438 
" style="fill: none; stroke: #2ca02c; stroke-width: 1.5; stroke-linecap: square"/>
    </g>
    <g id="text_18">
     <!-- disc=0.999 -->
     <g transform="translate(440.554687 289.493438)scale(0.14 -0.14)">
      <use xlink:href="#STIXGeneral-Regular-64"/>
      <use xlink:href="#STIXGeneral-Regular-69" x="49.999985"/>
      <use xlink:href="#STIXGeneral-Regular-73" x="77.799973"/>
      <use xlink:href="#STIXGeneral-Regular-63" x="116.699966"/>
      <use xlink:href="#STIXGeneral-Regular-3d" x="161.09996"/>
      <use xlink:href="#STIXGeneral-Regular-30" x="229.599945"/>
      <use xlink:href="#STIXGeneral-Regular-2e" x="279.59993"/>
      <use xlink:href="#STIXGeneral-Regular-39" x="304.599915"/>
      <use xlink:href="#STIXGeneral-Regular-39" x="354.599899"/>
      <use xlink:href="#STIXGeneral-Regular-39" x="404.599884"/>
     </g>
    </g>
   </g>
  </g>
 </g>
 <defs>
  <clipPath id="p1d02b5229d">
   <rect x="70.4" y="27.931875" width="446.4" height="277.2"/>
  </clipPath>
 </defs>
</svg>
