<?xml version="1.0" encoding="utf-8" standalone="no"?>
<!DOCTYPE svg PUBLIC "-//W3C//DTD SVG 1.1//EN"
  "http://www.w3.org/Graphics/SVG/1.1/DTD/svg11.dtd">
<svg xmlns:xlink="http://www.w3.org/1999/xlink" width="536.01382pt" height="355.731875pt" viewBox="0 0 536.01382 355.731875" xmlns="http://www.w3.org/2000/svg" version="1.1">
 <metadata>
  <rdf:RDF xmlns:dc="http://purl.org/dc/elements/1.1/" xmlns:cc="http://creativecommons.org/ns#" xmlns:rdf="http://www.w3.org/1999/02/22-rdf-syntax-ns#">
   <cc:Work>
    <dc:type rdf:resource="http://purl.org/dc/dcmitype/StillImage"/>
    <dc:date>2021-12-11T12:12:34.123330</dc:date>
    <dc:format>image/svg+xml</dc:format>
    <dc:creator>
     <cc:Agent>
      <dc:title>Matplotlib v3.5.0, https://matplotlib.org/</dc:title>
     </cc:Agent>
    </dc:creator>
   </cc:Work>
  </rdf:RDF>
 </metadata>
 <defs>
  <style type="text/css">*{stroke-linejoin: round; stroke-linecap: butt}</style>
 </defs>
 <g id="figure_1">
  <g id="patch_1">
   <path d="M 0 355.731875 
L 536.01382 355.731875 
L 536.01382 0 
L 0 0 
z
" style="fill: #ffffff"/>
  </g>
  <g id="axes_1">
   <g id="patch_2">
    <path d="M 70.4 305.131875 
L 516.8 305.131875 
L 516.8 27.931875 
L 70.4 27.931875 
z
" style="fill: #ffffff"/>
   </g>
   <g id="matplotlib.axis_1">
    <g id="xtick_1">
     <g id="line2d_1">
      <path d="M 90.690909 305.131875 
L 90.690909 27.931875 
" clip-path="url(#pcbc12765f0)" style="fill: none; stroke: #b0b0b0; stroke-width: 0.8; stroke-linecap: square"/>
     </g>
     <g id="line2d_2">
      <defs>
       <path id="m1f6539bb10" d="M 0 0 
L 0 3.5 
" style="stroke: #000000; stroke-width: 0.8"/>
      </defs>
      <g>
       <use xlink:href="#m1f6539bb10" x="90.690909" y="305.131875" style="stroke: #000000; stroke-width: 0.8"/>
      </g>
     </g>
     <g id="text_1">
      <!-- 0 -->
      <g transform="translate(86.190909 324.425313)scale(0.18 -0.18)">
       <defs>
        <path id="STIXGeneral-Regular-30" d="M 3046 2112 
Q 3046 1683 2963 1302 
Q 2880 922 2717 602 
Q 2554 282 2266 96 
Q 1978 -90 1600 -90 
Q 1210 -90 915 108 
Q 621 307 461 640 
Q 301 973 227 1350 
Q 154 1728 154 2150 
Q 154 2746 301 3222 
Q 448 3699 790 4012 
Q 1133 4326 1626 4326 
Q 2253 4326 2649 3712 
Q 3046 3098 3046 2112 
z
M 2432 2080 
Q 2432 3091 2217 3625 
Q 2003 4160 1587 4160 
Q 1190 4160 979 3622 
Q 768 3085 768 2106 
Q 768 1120 979 598 
Q 1190 77 1600 77 
Q 2003 77 2217 598 
Q 2432 1120 2432 2080 
z
" transform="scale(0.015625)"/>
       </defs>
       <use xlink:href="#STIXGeneral-Regular-30"/>
      </g>
     </g>
    </g>
    <g id="xtick_2">
     <g id="line2d_3">
      <path d="M 151.351325 305.131875 
L 151.351325 27.931875 
" clip-path="url(#pcbc12765f0)" style="fill: none; stroke: #b0b0b0; stroke-width: 0.8; stroke-linecap: square"/>
     </g>
     <g id="line2d_4">
      <g>
       <use xlink:href="#m1f6539bb10" x="151.351325" y="305.131875" style="stroke: #000000; stroke-width: 0.8"/>
      </g>
     </g>
     <g id="text_2">
      <!-- 100 -->
      <g transform="translate(137.851325 324.425313)scale(0.18 -0.18)">
       <defs>
        <path id="STIXGeneral-Regular-31" d="M 2522 0 
L 755 0 
L 755 96 
Q 1107 115 1235 227 
Q 1363 339 1363 608 
L 1363 3482 
Q 1363 3795 1171 3795 
Q 1082 3795 883 3718 
L 710 3654 
L 710 3744 
L 1856 4326 
L 1914 4307 
L 1914 486 
Q 1914 275 2042 185 
Q 2170 96 2522 96 
L 2522 0 
z
" transform="scale(0.015625)"/>
       </defs>
       <use xlink:href="#STIXGeneral-Regular-31"/>
       <use xlink:href="#STIXGeneral-Regular-30" x="49.999985"/>
       <use xlink:href="#STIXGeneral-Regular-30" x="99.999969"/>
      </g>
     </g>
    </g>
    <g id="xtick_3">
     <g id="line2d_5">
      <path d="M 212.011741 305.131875 
L 212.011741 27.931875 
" clip-path="url(#pcbc12765f0)" style="fill: none; stroke: #b0b0b0; stroke-width: 0.8; stroke-linecap: square"/>
     </g>
     <g id="line2d_6">
      <g>
       <use xlink:href="#m1f6539bb10" x="212.011741" y="305.131875" style="stroke: #000000; stroke-width: 0.8"/>
      </g>
     </g>
     <g id="text_3">
      <!-- 200 -->
      <g transform="translate(198.511741 324.425313)scale(0.18 -0.18)">
       <defs>
        <path id="STIXGeneral-Regular-32" d="M 3034 877 
L 2688 0 
L 186 0 
L 186 77 
L 1325 1286 
Q 1773 1754 1965 2144 
Q 2157 2534 2157 2950 
Q 2157 3379 1920 3616 
Q 1683 3853 1267 3853 
Q 922 3853 720 3673 
Q 518 3494 326 3021 
L 192 3053 
Q 301 3648 630 3987 
Q 960 4326 1523 4326 
Q 2054 4326 2380 4006 
Q 2707 3686 2707 3200 
Q 2707 2477 1888 1613 
L 832 486 
L 2330 486 
Q 2541 486 2665 569 
Q 2790 653 2944 915 
L 3034 877 
z
" transform="scale(0.015625)"/>
       </defs>
       <use xlink:href="#STIXGeneral-Regular-32"/>
       <use xlink:href="#STIXGeneral-Regular-30" x="49.999985"/>
       <use xlink:href="#STIXGeneral-Regular-30" x="99.999969"/>
      </g>
     </g>
    </g>
    <g id="xtick_4">
     <g id="line2d_7">
      <path d="M 272.672157 305.131875 
L 272.672157 27.931875 
" clip-path="url(#pcbc12765f0)" style="fill: none; stroke: #b0b0b0; stroke-width: 0.8; stroke-linecap: square"/>
     </g>
     <g id="line2d_8">
      <g>
       <use xlink:href="#m1f6539bb10" x="272.672157" y="305.131875" style="stroke: #000000; stroke-width: 0.8"/>
      </g>
     </g>
     <g id="text_4">
      <!-- 300 -->
      <g transform="translate(259.172157 324.425313)scale(0.18 -0.18)">
       <defs>
        <path id="STIXGeneral-Regular-33" d="M 390 3264 
L 288 3290 
Q 435 3770 748 4048 
Q 1062 4326 1542 4326 
Q 1990 4326 2265 4083 
Q 2541 3840 2541 3450 
Q 2541 2925 1946 2566 
Q 2298 2413 2477 2227 
Q 2758 1914 2758 1402 
Q 2758 890 2464 506 
Q 2246 211 1840 60 
Q 1434 -90 979 -90 
Q 262 -90 262 275 
Q 262 378 339 442 
Q 416 506 525 506 
Q 685 506 915 339 
Q 1197 141 1466 141 
Q 1818 141 2058 425 
Q 2298 710 2298 1120 
Q 2298 1856 1632 2048 
Q 1434 2112 979 2112 
L 979 2202 
Q 1338 2323 1517 2432 
Q 2035 2726 2035 3290 
Q 2035 3610 1852 3776 
Q 1670 3942 1344 3942 
Q 768 3942 390 3264 
z
" transform="scale(0.015625)"/>
       </defs>
       <use xlink:href="#STIXGeneral-Regular-33"/>
       <use xlink:href="#STIXGeneral-Regular-30" x="49.999985"/>
       <use xlink:href="#STIXGeneral-Regular-30" x="99.999969"/>
      </g>
     </g>
    </g>
    <g id="xtick_5">
     <g id="line2d_9">
      <path d="M 333.332572 305.131875 
L 333.332572 27.931875 
" clip-path="url(#pcbc12765f0)" style="fill: none; stroke: #b0b0b0; stroke-width: 0.8; stroke-linecap: square"/>
     </g>
     <g id="line2d_10">
      <g>
       <use xlink:href="#m1f6539bb10" x="333.332572" y="305.131875" style="stroke: #000000; stroke-width: 0.8"/>
      </g>
     </g>
     <g id="text_5">
      <!-- 400 -->
      <g transform="translate(319.832572 324.425313)scale(0.18 -0.18)">
       <defs>
        <path id="STIXGeneral-Regular-34" d="M 3027 1069 
L 2368 1069 
L 2368 0 
L 1869 0 
L 1869 1069 
L 77 1069 
L 77 1478 
L 2086 4326 
L 2368 4326 
L 2368 1478 
L 3027 1478 
L 3027 1069 
z
M 1869 1478 
L 1869 3674 
L 333 1478 
L 1869 1478 
z
" transform="scale(0.015625)"/>
       </defs>
       <use xlink:href="#STIXGeneral-Regular-34"/>
       <use xlink:href="#STIXGeneral-Regular-30" x="49.999985"/>
       <use xlink:href="#STIXGeneral-Regular-30" x="99.999969"/>
      </g>
     </g>
    </g>
    <g id="xtick_6">
     <g id="line2d_11">
      <path d="M 393.992988 305.131875 
L 393.992988 27.931875 
" clip-path="url(#pcbc12765f0)" style="fill: none; stroke: #b0b0b0; stroke-width: 0.8; stroke-linecap: square"/>
     </g>
     <g id="line2d_12">
      <g>
       <use xlink:href="#m1f6539bb10" x="393.992988" y="305.131875" style="stroke: #000000; stroke-width: 0.8"/>
      </g>
     </g>
     <g id="text_6">
      <!-- 500 -->
      <g transform="translate(380.492988 324.425313)scale(0.18 -0.18)">
       <defs>
        <path id="STIXGeneral-Regular-35" d="M 2803 4358 
L 2573 3814 
Q 2534 3731 2400 3731 
L 1158 3731 
L 902 3187 
Q 1606 3053 1920 2896 
Q 2234 2739 2502 2368 
Q 2726 2061 2726 1555 
Q 2726 1094 2576 780 
Q 2426 467 2099 224 
Q 1664 -90 1011 -90 
Q 646 -90 422 19 
Q 198 128 198 307 
Q 198 550 486 550 
Q 717 550 960 352 
Q 1210 147 1414 147 
Q 1747 147 2012 480 
Q 2278 813 2278 1229 
Q 2278 1843 1850 2189 
Q 1293 2637 486 2637 
Q 410 2637 410 2688 
L 416 2720 
L 1114 4237 
L 2438 4237 
Q 2547 4237 2608 4269 
Q 2669 4301 2746 4403 
L 2803 4358 
z
" transform="scale(0.015625)"/>
       </defs>
       <use xlink:href="#STIXGeneral-Regular-35"/>
       <use xlink:href="#STIXGeneral-Regular-30" x="49.999985"/>
       <use xlink:href="#STIXGeneral-Regular-30" x="99.999969"/>
      </g>
     </g>
    </g>
    <g id="xtick_7">
     <g id="line2d_13">
      <path d="M 454.653404 305.131875 
L 454.653404 27.931875 
" clip-path="url(#pcbc12765f0)" style="fill: none; stroke: #b0b0b0; stroke-width: 0.8; stroke-linecap: square"/>
     </g>
     <g id="line2d_14">
      <g>
       <use xlink:href="#m1f6539bb10" x="454.653404" y="305.131875" style="stroke: #000000; stroke-width: 0.8"/>
      </g>
     </g>
     <g id="text_7">
      <!-- 600 -->
      <g transform="translate(441.153404 324.425313)scale(0.18 -0.18)">
       <defs>
        <path id="STIXGeneral-Regular-36" d="M 2854 4378 
L 2867 4275 
Q 2112 4154 1606 3664 
Q 1101 3174 973 2451 
Q 1344 2739 1786 2739 
Q 2349 2739 2672 2380 
Q 2995 2022 2995 1402 
Q 2995 774 2669 378 
Q 2291 -90 1651 -90 
Q 870 -90 518 557 
Q 218 1107 218 1786 
Q 218 2835 915 3552 
Q 1312 3962 1731 4131 
Q 2150 4301 2854 4378 
z
M 2419 1203 
Q 2419 2445 1555 2445 
Q 1235 2445 1024 2275 
Q 813 2106 813 1702 
Q 813 954 1046 522 
Q 1280 90 1722 90 
Q 2061 90 2240 394 
Q 2419 698 2419 1203 
z
" transform="scale(0.015625)"/>
       </defs>
       <use xlink:href="#STIXGeneral-Regular-36"/>
       <use xlink:href="#STIXGeneral-Regular-30" x="49.999985"/>
       <use xlink:href="#STIXGeneral-Regular-30" x="99.999969"/>
      </g>
     </g>
    </g>
    <g id="xtick_8">
     <g id="line2d_15">
      <path d="M 515.31382 305.131875 
L 515.31382 27.931875 
" clip-path="url(#pcbc12765f0)" style="fill: none; stroke: #b0b0b0; stroke-width: 0.8; stroke-linecap: square"/>
     </g>
     <g id="line2d_16">
      <g>
       <use xlink:href="#m1f6539bb10" x="515.31382" y="305.131875" style="stroke: #000000; stroke-width: 0.8"/>
      </g>
     </g>
     <g id="text_8">
      <!-- 700 -->
      <g transform="translate(501.81382 324.425313)scale(0.18 -0.18)">
       <defs>
        <path id="STIXGeneral-Regular-37" d="M 2874 4134 
L 1517 -51 
L 1101 -51 
L 2368 3763 
L 992 3763 
Q 717 3763 582 3667 
Q 448 3571 243 3238 
L 128 3296 
L 512 4237 
L 2874 4237 
L 2874 4134 
z
" transform="scale(0.015625)"/>
       </defs>
       <use xlink:href="#STIXGeneral-Regular-37"/>
       <use xlink:href="#STIXGeneral-Regular-30" x="49.999985"/>
       <use xlink:href="#STIXGeneral-Regular-30" x="99.999969"/>
      </g>
     </g>
    </g>
    <g id="text_9">
     <!-- Epoch -->
     <g transform="translate(270.605 344.625313)scale(0.18 -0.18)">
      <defs>
       <path id="STIXGeneral-Regular-45" d="M 3821 1082 
L 3526 0 
L 77 0 
L 77 122 
Q 442 147 538 252 
Q 634 358 634 730 
L 634 3520 
Q 634 3878 534 3987 
Q 435 4096 77 4115 
L 77 4237 
L 3469 4237 
L 3494 3322 
L 3334 3322 
Q 3264 3750 3085 3872 
Q 2906 3994 2349 3994 
L 1510 3994 
Q 1370 3994 1328 3952 
Q 1286 3910 1286 3763 
L 1286 2355 
L 2253 2355 
Q 2656 2355 2787 2470 
Q 2918 2586 2976 2970 
L 3123 2970 
L 3123 1472 
L 2976 1472 
Q 2918 1875 2790 1984 
Q 2662 2093 2253 2093 
L 1286 2093 
L 1286 538 
Q 1286 346 1420 291 
Q 1555 237 1933 237 
L 2163 237 
Q 2848 237 3136 403 
Q 3424 570 3642 1082 
L 3821 1082 
z
" transform="scale(0.015625)"/>
       <path id="STIXGeneral-Regular-70" d="M 1018 2931 
L 1018 2438 
Q 1421 2944 1939 2944 
Q 2406 2944 2707 2560 
Q 3008 2176 3008 1581 
Q 3008 883 2621 409 
Q 2234 -64 1664 -64 
Q 1466 -64 1328 -6 
Q 1190 51 1018 211 
L 1018 -794 
Q 1018 -1094 1120 -1180 
Q 1222 -1267 1581 -1274 
L 1581 -1389 
L 32 -1389 
L 32 -1280 
Q 314 -1254 397 -1171 
Q 480 -1088 480 -838 
L 480 2157 
Q 480 2381 429 2451 
Q 378 2522 218 2522 
Q 115 2522 58 2515 
L 58 2618 
Q 506 2752 979 2944 
L 1018 2931 
z
M 1018 2138 
L 1018 563 
Q 1018 422 1238 281 
Q 1459 141 1683 141 
Q 2029 141 2243 467 
Q 2458 794 2458 1325 
Q 2458 1888 2243 2224 
Q 2029 2560 1670 2560 
Q 1446 2560 1232 2419 
Q 1018 2278 1018 2138 
z
" transform="scale(0.015625)"/>
       <path id="STIXGeneral-Regular-6f" d="M 3008 1478 
Q 3008 806 2608 371 
Q 2208 -64 1568 -64 
Q 979 -64 582 368 
Q 186 800 186 1459 
Q 186 2125 582 2534 
Q 979 2944 1626 2944 
Q 2221 2944 2614 2537 
Q 3008 2131 3008 1478 
z
M 2432 1306 
Q 2432 2035 2112 2445 
Q 1856 2765 1504 2765 
Q 1171 2765 966 2493 
Q 762 2221 762 1747 
Q 762 928 1101 435 
Q 1318 115 1677 115 
Q 2029 115 2230 432 
Q 2432 749 2432 1306 
z
" transform="scale(0.015625)"/>
       <path id="STIXGeneral-Regular-63" d="M 2547 998 
L 2637 941 
Q 2362 403 2112 205 
Q 1786 -64 1376 -64 
Q 845 -64 502 336 
Q 160 736 160 1357 
Q 160 2170 698 2618 
Q 1094 2944 1562 2944 
Q 1965 2944 2256 2749 
Q 2547 2554 2547 2285 
Q 2547 2176 2457 2096 
Q 2368 2016 2246 2016 
Q 2022 2016 1939 2310 
L 1901 2451 
Q 1850 2630 1773 2694 
Q 1696 2758 1523 2758 
Q 1133 2758 893 2451 
Q 653 2144 653 1645 
Q 653 1094 928 745 
Q 1203 397 1645 397 
Q 1920 397 2118 528 
Q 2317 659 2547 998 
z
" transform="scale(0.015625)"/>
       <path id="STIXGeneral-Regular-68" d="M 3117 0 
L 1760 0 
L 1760 96 
Q 2042 128 2118 224 
Q 2195 320 2195 653 
L 2195 1920 
Q 2195 2598 1722 2598 
Q 1530 2598 1370 2508 
Q 1210 2419 1005 2195 
L 1005 653 
Q 1005 320 1081 224 
Q 1158 128 1440 96 
L 1440 0 
L 58 0 
L 58 96 
Q 333 134 400 224 
Q 467 314 467 653 
L 467 3667 
Q 467 3872 406 3933 
Q 346 3994 141 3994 
Q 83 3994 64 3987 
L 64 4090 
L 237 4141 
Q 730 4288 973 4371 
L 1005 4352 
L 1005 2406 
Q 1229 2694 1446 2819 
Q 1664 2944 1946 2944 
Q 2733 2944 2733 1926 
L 2733 653 
Q 2733 320 2793 233 
Q 2854 147 3117 96 
L 3117 0 
z
" transform="scale(0.015625)"/>
      </defs>
      <use xlink:href="#STIXGeneral-Regular-45"/>
      <use xlink:href="#STIXGeneral-Regular-70" x="61.099991"/>
      <use xlink:href="#STIXGeneral-Regular-6f" x="111.099976"/>
      <use xlink:href="#STIXGeneral-Regular-63" x="161.09996"/>
      <use xlink:href="#STIXGeneral-Regular-68" x="205.499954"/>
     </g>
    </g>
   </g>
   <g id="matplotlib.axis_2">
    <g id="ytick_1">
     <g id="line2d_17">
      <path d="M 70.4 292.203344 
L 516.8 292.203344 
" clip-path="url(#pcbc12765f0)" style="fill: none; stroke: #b0b0b0; stroke-width: 0.8; stroke-linecap: square"/>
     </g>
     <g id="line2d_18">
      <defs>
       <path id="m98a25f5664" d="M 0 0 
L -3.5 0 
" style="stroke: #000000; stroke-width: 0.8"/>
      </defs>
      <g>
       <use xlink:href="#m98a25f5664" x="70.4" y="292.203344" style="stroke: #000000; stroke-width: 0.8"/>
      </g>
     </g>
     <g id="text_10">
      <!-- 250 -->
      <g transform="translate(36.4 298.350062)scale(0.18 -0.18)">
       <use xlink:href="#STIXGeneral-Regular-32"/>
       <use xlink:href="#STIXGeneral-Regular-35" x="49.999985"/>
       <use xlink:href="#STIXGeneral-Regular-30" x="99.999969"/>
      </g>
     </g>
    </g>
    <g id="ytick_2">
     <g id="line2d_19">
      <path d="M 70.4 248.626349 
L 516.8 248.626349 
" clip-path="url(#pcbc12765f0)" style="fill: none; stroke: #b0b0b0; stroke-width: 0.8; stroke-linecap: square"/>
     </g>
     <g id="line2d_20">
      <g>
       <use xlink:href="#m98a25f5664" x="70.4" y="248.626349" style="stroke: #000000; stroke-width: 0.8"/>
      </g>
     </g>
     <g id="text_11">
      <!-- 500 -->
      <g transform="translate(36.4 254.773068)scale(0.18 -0.18)">
       <use xlink:href="#STIXGeneral-Regular-35"/>
       <use xlink:href="#STIXGeneral-Regular-30" x="49.999985"/>
       <use xlink:href="#STIXGeneral-Regular-30" x="99.999969"/>
      </g>
     </g>
    </g>
    <g id="ytick_3">
     <g id="line2d_21">
      <path d="M 70.4 205.049355 
L 516.8 205.049355 
" clip-path="url(#pcbc12765f0)" style="fill: none; stroke: #b0b0b0; stroke-width: 0.8; stroke-linecap: square"/>
     </g>
     <g id="line2d_22">
      <g>
       <use xlink:href="#m98a25f5664" x="70.4" y="205.049355" style="stroke: #000000; stroke-width: 0.8"/>
      </g>
     </g>
     <g id="text_12">
      <!-- 750 -->
      <g transform="translate(36.4 211.196074)scale(0.18 -0.18)">
       <use xlink:href="#STIXGeneral-Regular-37"/>
       <use xlink:href="#STIXGeneral-Regular-35" x="49.999985"/>
       <use xlink:href="#STIXGeneral-Regular-30" x="99.999969"/>
      </g>
     </g>
    </g>
    <g id="ytick_4">
     <g id="line2d_23">
      <path d="M 70.4 161.47236 
L 516.8 161.47236 
" clip-path="url(#pcbc12765f0)" style="fill: none; stroke: #b0b0b0; stroke-width: 0.8; stroke-linecap: square"/>
     </g>
     <g id="line2d_24">
      <g>
       <use xlink:href="#m98a25f5664" x="70.4" y="161.47236" style="stroke: #000000; stroke-width: 0.8"/>
      </g>
     </g>
     <g id="text_13">
      <!-- 1000 -->
      <g transform="translate(27.4 167.619079)scale(0.18 -0.18)">
       <use xlink:href="#STIXGeneral-Regular-31"/>
       <use xlink:href="#STIXGeneral-Regular-30" x="49.999985"/>
       <use xlink:href="#STIXGeneral-Regular-30" x="99.999969"/>
       <use xlink:href="#STIXGeneral-Regular-30" x="149.999954"/>
      </g>
     </g>
    </g>
    <g id="ytick_5">
     <g id="line2d_25">
      <path d="M 70.4 117.895366 
L 516.8 117.895366 
" clip-path="url(#pcbc12765f0)" style="fill: none; stroke: #b0b0b0; stroke-width: 0.8; stroke-linecap: square"/>
     </g>
     <g id="line2d_26">
      <g>
       <use xlink:href="#m98a25f5664" x="70.4" y="117.895366" style="stroke: #000000; stroke-width: 0.8"/>
      </g>
     </g>
     <g id="text_14">
      <!-- 1250 -->
      <g transform="translate(27.4 124.042085)scale(0.18 -0.18)">
       <use xlink:href="#STIXGeneral-Regular-31"/>
       <use xlink:href="#STIXGeneral-Regular-32" x="49.999985"/>
       <use xlink:href="#STIXGeneral-Regular-35" x="99.999969"/>
       <use xlink:href="#STIXGeneral-Regular-30" x="149.999954"/>
      </g>
     </g>
    </g>
    <g id="ytick_6">
     <g id="line2d_27">
      <path d="M 70.4 74.318372 
L 516.8 74.318372 
" clip-path="url(#pcbc12765f0)" style="fill: none; stroke: #b0b0b0; stroke-width: 0.8; stroke-linecap: square"/>
     </g>
     <g id="line2d_28">
      <g>
       <use xlink:href="#m98a25f5664" x="70.4" y="74.318372" style="stroke: #000000; stroke-width: 0.8"/>
      </g>
     </g>
     <g id="text_15">
      <!-- 1500 -->
      <g transform="translate(27.4 80.46509)scale(0.18 -0.18)">
       <use xlink:href="#STIXGeneral-Regular-31"/>
       <use xlink:href="#STIXGeneral-Regular-35" x="49.999985"/>
       <use xlink:href="#STIXGeneral-Regular-30" x="99.999969"/>
       <use xlink:href="#STIXGeneral-Regular-30" x="149.999954"/>
      </g>
     </g>
    </g>
    <g id="ytick_7">
     <g id="line2d_29">
      <path d="M 70.4 30.741377 
L 516.8 30.741377 
" clip-path="url(#pcbc12765f0)" style="fill: none; stroke: #b0b0b0; stroke-width: 0.8; stroke-linecap: square"/>
     </g>
     <g id="line2d_30">
      <g>
       <use xlink:href="#m98a25f5664" x="70.4" y="30.741377" style="stroke: #000000; stroke-width: 0.8"/>
      </g>
     </g>
     <g id="text_16">
      <!-- 1750 -->
      <g transform="translate(27.4 36.888096)scale(0.18 -0.18)">
       <use xlink:href="#STIXGeneral-Regular-31"/>
       <use xlink:href="#STIXGeneral-Regular-37" x="49.999985"/>
       <use xlink:href="#STIXGeneral-Regular-35" x="99.999969"/>
       <use xlink:href="#STIXGeneral-Regular-30" x="149.999954"/>
      </g>
     </g>
    </g>
    <g id="text_17">
     <!-- Average Return -->
     <g transform="translate(19.476562 223.764844)rotate(-90)scale(0.18 -0.18)">
      <defs>
       <path id="STIXGeneral-Regular-41" d="M 4525 0 
L 2893 0 
L 2893 122 
Q 3149 122 3245 179 
Q 3334 224 3334 333 
Q 3334 499 3213 781 
L 2950 1382 
L 1274 1382 
L 979 653 
Q 922 506 922 384 
Q 922 237 1027 179 
Q 1133 122 1370 122 
L 1370 0 
L 96 0 
L 96 122 
Q 365 147 486 316 
Q 608 486 902 1190 
L 2221 4314 
L 2349 4314 
L 3923 710 
Q 4064 378 4176 262 
Q 4288 147 4525 122 
L 4525 0 
z
M 2861 1645 
L 2118 3405 
L 1382 1645 
L 2861 1645 
z
" transform="scale(0.015625)"/>
       <path id="STIXGeneral-Regular-76" d="M 3053 2880 
L 3053 2784 
Q 2906 2771 2835 2688 
Q 2765 2605 2637 2285 
L 1818 230 
Q 1690 -90 1638 -90 
Q 1587 -90 1523 77 
Q 1510 96 1497 141 
Q 1485 186 1472 211 
L 704 2048 
Q 499 2534 403 2652 
Q 307 2771 122 2784 
L 122 2880 
L 1376 2880 
L 1376 2784 
Q 1210 2771 1146 2732 
Q 1082 2694 1082 2611 
Q 1082 2509 1139 2368 
L 1792 730 
L 2426 2387 
Q 2464 2483 2464 2579 
Q 2464 2758 2163 2784 
L 2163 2880 
L 3053 2880 
z
" transform="scale(0.015625)"/>
       <path id="STIXGeneral-Regular-65" d="M 2611 1050 
L 2714 1005 
Q 2330 -64 1376 -64 
Q 813 -64 486 329 
Q 160 723 160 1389 
Q 160 2074 525 2509 
Q 890 2944 1485 2944 
Q 2061 2944 2374 2502 
Q 2560 2246 2592 1773 
L 621 1773 
Q 646 1370 700 1158 
Q 755 947 915 730 
Q 1184 378 1626 378 
Q 1939 378 2153 531 
Q 2368 685 2611 1050 
z
M 634 1978 
L 1939 1978 
Q 1882 2381 1750 2547 
Q 1619 2714 1312 2714 
Q 1043 2714 864 2525 
Q 685 2336 634 1978 
z
" transform="scale(0.015625)"/>
       <path id="STIXGeneral-Regular-72" d="M 1024 2931 
L 1024 2342 
Q 1267 2688 1430 2816 
Q 1594 2944 1792 2944 
Q 1958 2944 2051 2854 
Q 2144 2765 2144 2605 
Q 2144 2470 2077 2393 
Q 2010 2317 1894 2317 
Q 1773 2317 1638 2445 
Q 1536 2541 1472 2541 
Q 1338 2541 1181 2355 
Q 1024 2170 1024 2016 
L 1024 576 
Q 1024 301 1133 205 
Q 1242 109 1568 96 
L 1568 0 
L 32 0 
L 32 96 
Q 339 154 412 224 
Q 486 294 486 538 
L 486 2138 
Q 486 2349 438 2435 
Q 390 2522 269 2522 
Q 166 2522 45 2496 
L 45 2598 
Q 448 2726 992 2944 
L 1024 2931 
z
" transform="scale(0.015625)"/>
       <path id="STIXGeneral-Regular-61" d="M 2829 422 
L 2829 243 
Q 2586 -64 2253 -64 
Q 1888 -64 1843 403 
L 1837 403 
Q 1427 -64 909 -64 
Q 608 -64 422 112 
Q 237 288 237 602 
Q 237 1050 685 1350 
Q 992 1555 1837 1869 
L 1837 2214 
Q 1837 2502 1699 2646 
Q 1562 2790 1338 2790 
Q 1146 2790 1018 2697 
Q 890 2605 890 2477 
Q 890 2419 909 2348 
Q 928 2278 928 2208 
Q 928 2112 841 2029 
Q 755 1946 634 1946 
Q 525 1946 441 2029 
Q 358 2112 358 2240 
Q 358 2547 685 2752 
Q 986 2944 1421 2944 
Q 1939 2944 2176 2656 
Q 2291 2522 2323 2384 
Q 2355 2246 2355 1946 
L 2355 723 
Q 2355 301 2554 301 
Q 2682 301 2829 422 
z
M 1837 813 
L 1837 1715 
Q 1248 1510 1018 1293 
Q 800 1094 800 800 
Q 800 557 921 432 
Q 1043 307 1242 307 
Q 1453 307 1613 410 
Q 1747 506 1792 589 
Q 1837 672 1837 813 
z
" transform="scale(0.015625)"/>
       <path id="STIXGeneral-Regular-67" d="M 3008 2483 
L 2477 2483 
Q 2598 2208 2598 1946 
Q 2598 1453 2265 1203 
Q 1933 954 1600 954 
Q 1530 954 1357 973 
L 1235 986 
Q 1107 947 979 812 
Q 851 678 851 582 
Q 851 435 1350 410 
L 2176 371 
Q 2528 358 2739 172 
Q 2950 -13 2950 -314 
Q 2950 -685 2566 -986 
Q 2035 -1395 1286 -1395 
Q 826 -1395 502 -1212 
Q 179 -1030 179 -774 
Q 179 -595 320 -419 
Q 461 -243 806 6 
Q 602 102 534 172 
Q 467 243 467 346 
Q 467 531 762 787 
Q 909 915 1037 1043 
Q 717 1203 579 1401 
Q 442 1600 442 1901 
Q 442 2336 752 2640 
Q 1062 2944 1510 2944 
Q 1766 2944 2022 2848 
L 2163 2797 
Q 2349 2733 2515 2733 
L 3008 2733 
L 3008 2483 
z
M 973 2163 
L 973 2144 
Q 973 1683 1155 1398 
Q 1338 1114 1632 1114 
Q 1850 1114 1978 1270 
Q 2106 1427 2106 1690 
Q 2106 2112 1914 2464 
Q 1754 2765 1446 2765 
Q 1222 2765 1097 2605 
Q 973 2445 973 2163 
z
M 2771 -410 
Q 2771 -230 2595 -163 
Q 2419 -96 1978 -96 
Q 1344 -96 941 -13 
Q 749 -243 688 -348 
Q 627 -454 627 -563 
Q 627 -774 880 -902 
Q 1133 -1030 1555 -1030 
Q 2099 -1030 2435 -860 
Q 2771 -691 2771 -410 
z
" transform="scale(0.015625)"/>
       <path id="STIXGeneral-Regular-20" transform="scale(0.015625)"/>
       <path id="STIXGeneral-Regular-52" d="M 4224 0 
L 3187 0 
L 1664 1971 
L 1306 1958 
L 1306 717 
Q 1306 352 1405 249 
Q 1504 147 1875 122 
L 1875 0 
L 109 0 
L 109 122 
Q 474 154 563 262 
Q 653 371 653 794 
L 653 3526 
Q 653 3885 563 3987 
Q 474 4090 109 4115 
L 109 4237 
L 1850 4237 
Q 2726 4237 3187 3859 
Q 3501 3603 3501 3091 
Q 3501 2221 2342 2042 
L 3622 422 
Q 3757 256 3878 198 
Q 4000 141 4224 122 
L 4224 0 
z
M 1306 3731 
L 1306 2195 
Q 1766 2202 1990 2246 
Q 2214 2291 2438 2413 
Q 2803 2618 2803 3142 
Q 2803 4000 1632 4000 
Q 1459 4000 1382 3945 
Q 1306 3891 1306 3731 
z
" transform="scale(0.015625)"/>
       <path id="STIXGeneral-Regular-74" d="M 1702 493 
L 1786 422 
Q 1478 -64 1011 -64 
Q 448 -64 448 749 
L 448 2675 
L 109 2675 
Q 83 2694 83 2720 
Q 83 2771 192 2842 
Q 435 2982 813 3526 
Q 826 3546 874 3606 
Q 922 3667 941 3706 
Q 986 3706 986 3622 
L 986 2880 
L 1632 2880 
L 1632 2675 
L 986 2675 
L 986 845 
Q 986 538 1062 403 
Q 1139 269 1318 269 
Q 1510 269 1702 493 
z
" transform="scale(0.015625)"/>
       <path id="STIXGeneral-Regular-75" d="M 3072 320 
L 3072 230 
Q 2573 96 2195 -58 
L 2163 -38 
L 2163 486 
L 2150 486 
Q 1747 -64 1235 -64 
Q 870 -64 662 160 
Q 454 384 454 755 
L 454 2362 
Q 454 2598 371 2688 
Q 288 2778 58 2790 
L 58 2880 
L 992 2880 
L 992 813 
Q 992 595 1123 451 
Q 1254 307 1446 307 
Q 1760 307 1984 506 
Q 2067 582 2099 649 
Q 2131 717 2131 877 
L 2131 2355 
Q 2131 2605 2041 2678 
Q 1952 2752 1658 2771 
L 1658 2880 
L 2669 2880 
L 2669 685 
Q 2669 461 2742 390 
Q 2816 320 3034 320 
L 3072 320 
z
" transform="scale(0.015625)"/>
       <path id="STIXGeneral-Regular-6e" d="M 3104 0 
L 1773 0 
L 1779 96 
Q 2016 115 2096 233 
Q 2176 352 2176 672 
L 2176 1946 
Q 2176 2592 1709 2592 
Q 1549 2592 1408 2515 
Q 1267 2438 1050 2227 
L 1050 461 
Q 1050 269 1136 192 
Q 1222 115 1466 96 
L 1466 0 
L 115 0 
L 115 96 
Q 358 115 435 214 
Q 512 314 512 602 
L 512 2157 
Q 512 2394 467 2483 
Q 422 2573 288 2573 
Q 160 2573 102 2547 
L 102 2656 
Q 550 2784 979 2944 
L 1030 2925 
L 1030 2426 
L 1037 2426 
Q 1491 2944 1958 2944 
Q 2323 2944 2518 2688 
Q 2714 2432 2714 1958 
L 2714 544 
Q 2714 288 2790 205 
Q 2867 122 3104 96 
L 3104 0 
z
" transform="scale(0.015625)"/>
      </defs>
      <use xlink:href="#STIXGeneral-Regular-41"/>
      <use xlink:href="#STIXGeneral-Regular-76" x="72.199982"/>
      <use xlink:href="#STIXGeneral-Regular-65" x="122.199966"/>
      <use xlink:href="#STIXGeneral-Regular-72" x="166.59996"/>
      <use xlink:href="#STIXGeneral-Regular-61" x="199.899948"/>
      <use xlink:href="#STIXGeneral-Regular-67" x="244.299942"/>
      <use xlink:href="#STIXGeneral-Regular-65" x="294.299927"/>
      <use xlink:href="#STIXGeneral-Regular-20" x="338.699921"/>
      <use xlink:href="#STIXGeneral-Regular-52" x="363.699905"/>
      <use xlink:href="#STIXGeneral-Regular-65" x="430.399902"/>
      <use xlink:href="#STIXGeneral-Regular-74" x="474.799896"/>
      <use xlink:href="#STIXGeneral-Regular-75" x="502.599884"/>
      <use xlink:href="#STIXGeneral-Regular-72" x="552.599869"/>
      <use xlink:href="#STIXGeneral-Regular-6e" x="585.899857"/>
     </g>
    </g>
   </g>
   <g id="line2d_31">
    <path d="M 90.690909 289.228857 
L 91.297513 289.701378 
L 91.904117 289.723442 
L 92.510722 285.582035 
L 93.117326 254.601804 
L 93.72393 245.206195 
L 94.330534 241.013611 
L 94.937138 230.044494 
L 95.543742 233.687684 
L 96.150347 230.533825 
L 96.756951 249.476367 
L 97.363555 261.204587 
L 97.970159 263.442175 
L 98.576763 264.351471 
L 99.789971 234.916038 
L 100.396576 236.027845 
L 101.00318 239.862347 
L 101.609784 245.452758 
L 102.216388 244.339014 
L 102.822992 237.155347 
L 103.429596 235.295344 
L 104.036201 233.888053 
L 104.642805 229.218717 
L 105.249409 223.64952 
L 105.856013 223.165568 
L 106.462617 206.862851 
L 107.069221 199.006192 
L 107.675826 188.486158 
L 108.28243 180.658952 
L 108.889034 185.508212 
L 109.495638 181.156661 
L 110.102242 191.565924 
L 110.708846 186.139852 
L 111.31545 184.074504 
L 111.922055 187.335691 
L 112.528659 191.702825 
L 113.135263 183.951346 
L 113.741867 172.36424 
L 114.348471 173.149399 
L 114.955075 169.718787 
L 116.168284 149.551208 
L 116.774888 143.693266 
L 117.381492 139.881002 
L 117.988096 143.787765 
L 118.5947 140.547507 
L 119.807909 130.235394 
L 120.414513 127.885048 
L 121.021117 128.455874 
L 121.627721 134.340835 
L 122.234325 136.168863 
L 122.840929 138.634933 
L 123.447534 144.623364 
L 124.054138 144.806251 
L 124.660742 143.301089 
L 125.267346 144.290791 
L 125.87395 144.187048 
L 126.480554 142.41261 
L 127.087159 142.304615 
L 127.693763 138.819594 
L 128.300367 138.108398 
L 128.906971 139.160421 
L 129.513575 138.49722 
L 130.120179 144.027634 
L 130.726784 144.684639 
L 131.333388 143.525382 
L 131.939992 142.786599 
L 132.546596 139.936246 
L 133.1532 139.861924 
L 133.759804 139.532344 
L 134.366408 141.511582 
L 134.973013 141.012346 
L 135.579617 138.51175 
L 136.186221 133.811683 
L 137.399429 131.886849 
L 138.006033 129.863084 
L 138.612638 125.165134 
L 139.219242 122.636415 
L 139.825846 123.762034 
L 140.43245 127.265698 
L 141.039054 126.777728 
L 141.645658 120.505485 
L 142.252263 119.467183 
L 142.858867 117.594971 
L 143.465471 118.384027 
L 144.072075 121.213147 
L 144.678679 123.427201 
L 145.285283 123.5106 
L 145.891887 123.019102 
L 146.498492 121.814482 
L 147.105096 121.554545 
L 147.7117 120.421786 
L 148.318304 118.505796 
L 148.924908 117.120026 
L 149.531512 122.178565 
L 150.138117 124.042744 
L 150.744721 125.507467 
L 151.351325 122.015043 
L 151.957929 120.367947 
L 152.564533 120.793005 
L 153.777742 126.503809 
L 154.384346 130.109019 
L 154.99095 128.50162 
L 155.597554 128.49499 
L 156.204158 127.485072 
L 156.810762 131.10146 
L 157.417366 131.226902 
L 158.023971 129.144612 
L 158.630575 132.019248 
L 159.843783 127.654187 
L 160.450387 131.297615 
L 161.056991 128.232755 
L 161.663596 128.287472 
L 162.2702 129.371146 
L 162.876804 131.71813 
L 163.483408 130.341384 
L 164.696616 134.42179 
L 165.303221 135.277994 
L 165.909825 137.306825 
L 166.516429 138.875353 
L 167.123033 138.799483 
L 167.729637 140.328605 
L 168.336241 137.353887 
L 168.942845 139.149025 
L 169.54945 140.085939 
L 170.156054 140.13318 
L 170.762658 139.022225 
L 171.369262 136.641425 
L 171.975866 139.596926 
L 172.58247 140.073361 
L 173.189075 140.712348 
L 173.795679 139.297202 
L 174.402283 139.923443 
L 175.008887 136.027203 
L 175.615491 135.976409 
L 176.222095 135.095296 
L 176.8287 135.460868 
L 177.435304 138.552292 
L 178.041908 138.500849 
L 178.648512 139.254105 
L 179.255116 139.625296 
L 179.86172 137.397758 
L 180.468325 138.282071 
L 181.074929 136.564834 
L 181.681533 134.466788 
L 182.288137 134.340103 
L 183.501345 130.764718 
L 184.107949 133.208498 
L 184.714554 134.169954 
L 185.321158 132.757521 
L 185.927762 132.405987 
L 186.534366 132.652302 
L 187.14097 131.866786 
L 187.747574 135.576706 
L 188.960783 138.513659 
L 189.567387 140.525217 
L 190.173991 136.133096 
L 191.387199 135.131126 
L 191.993804 129.02686 
L 192.600408 127.537728 
L 193.813616 128.797561 
L 194.42022 127.308756 
L 195.026824 127.592469 
L 195.633428 126.541494 
L 196.240033 124.121673 
L 196.846637 126.471227 
L 197.453241 125.703292 
L 198.059845 127.884395 
L 198.666449 131.346535 
L 199.273053 138.483406 
L 199.879658 142.843771 
L 200.486262 145.674888 
L 201.092866 147.176389 
L 201.69947 143.819894 
L 202.306074 143.873368 
L 203.519283 137.502051 
L 204.125887 132.797814 
L 204.732491 133.028658 
L 205.339095 131.493595 
L 205.945699 127.138962 
L 206.552303 124.609642 
L 207.158907 124.220516 
L 207.765512 129.349453 
L 208.372116 123.884337 
L 208.97872 125.018034 
L 209.585324 124.700612 
L 210.191928 122.511855 
L 210.798532 123.953969 
L 211.405137 128.986501 
L 212.011741 127.675913 
L 213.831553 125.875176 
L 214.438157 123.836111 
L 215.044762 122.736244 
L 215.651366 125.751235 
L 216.25797 127.293261 
L 216.864574 124.556571 
L 217.471178 126.349718 
L 218.077782 124.948449 
L 218.684386 127.612768 
L 219.290991 125.192641 
L 219.897595 126.256881 
L 220.504199 121.885935 
L 221.110803 124.299429 
L 221.717407 120.336335 
L 222.324011 121.534057 
L 222.930616 120.585018 
L 223.53722 126.088432 
L 224.143824 121.442471 
L 224.750428 121.738171 
L 225.357032 122.36017 
L 225.963636 119.107491 
L 226.570241 118.265769 
L 227.176845 119.670583 
L 229.603261 109.289 
L 230.209865 110.779008 
L 230.81647 115.006814 
L 231.423074 116.662196 
L 232.029678 115.935061 
L 232.636282 115.871679 
L 233.242886 122.277921 
L 233.84949 122.336595 
L 234.456095 124.520316 
L 235.062699 122.846171 
L 235.669303 123.940061 
L 236.275907 124.116325 
L 236.882511 131.461286 
L 237.489115 133.355113 
L 238.09572 134.099948 
L 239.308928 122.657498 
L 239.915532 122.422563 
L 240.522136 117.333205 
L 241.12874 117.323554 
L 241.735344 116.391794 
L 242.341949 122.663773 
L 242.948553 121.927695 
L 243.555157 115.415024 
L 244.161761 110.725368 
L 244.768365 110.51541 
L 245.374969 113.398214 
L 245.981574 114.653018 
L 246.588178 110.5272 
L 247.194782 111.89486 
L 248.40799 116.577963 
L 249.014594 117.902102 
L 249.621199 114.053806 
L 250.227803 111.72578 
L 250.834407 116.837521 
L 251.441011 111.611004 
L 252.047615 112.175946 
L 252.654219 111.67591 
L 253.260823 111.597705 
L 253.867428 109.643336 
L 254.474032 111.881593 
L 255.080636 117.549742 
L 255.68724 113.200251 
L 256.293844 114.440353 
L 256.900448 113.112295 
L 257.507053 108.284545 
L 259.326865 121.906111 
L 259.933469 119.490404 
L 260.540073 122.896223 
L 261.146678 122.745443 
L 261.753282 120.708104 
L 262.359886 119.740363 
L 262.96649 122.584461 
L 263.573094 126.723274 
L 264.179698 122.017557 
L 264.786302 118.691537 
L 265.392907 112.270196 
L 265.999511 109.296846 
L 267.212719 97.104483 
L 267.819323 94.848325 
L 268.425927 88.343771 
L 269.032532 86.73592 
L 269.639136 86.442899 
L 270.24574 94.227846 
L 270.852344 104.913903 
L 271.458948 108.710084 
L 272.065552 110.501381 
L 272.672157 101.296815 
L 273.278761 99.196324 
L 273.885365 94.083841 
L 274.491969 87.820148 
L 275.098573 84.818402 
L 275.705177 80.823236 
L 276.918386 91.808843 
L 278.131594 85.275766 
L 278.738198 81.989493 
L 279.344802 75.723608 
L 279.951406 70.718711 
L 280.558011 64.598895 
L 281.164615 61.49645 
L 281.771219 63.474091 
L 282.377823 63.975556 
L 283.591031 68.284002 
L 284.197636 68.974024 
L 284.80424 65.855067 
L 285.410844 68.054311 
L 286.017448 73.089571 
L 286.624052 73.319715 
L 287.230656 75.079435 
L 287.83726 72.335719 
L 288.443865 71.67507 
L 289.050469 66.038445 
L 289.657073 70.688987 
L 290.263677 71.659385 
L 290.870281 75.300806 
L 291.476885 72.004242 
L 292.08349 75.333216 
L 292.690094 77.989941 
L 293.296698 79.536288 
L 293.903302 79.018583 
L 294.509906 71.966181 
L 295.11651 71.279891 
L 295.723115 72.396835 
L 296.329719 75.841085 
L 296.936323 80.894115 
L 297.542927 77.691657 
L 298.149531 75.385981 
L 298.756135 69.511115 
L 299.36274 60.089862 
L 300.575948 56.714219 
L 301.182552 57.537187 
L 301.789156 65.119056 
L 302.39576 66.611268 
L 303.002364 66.204358 
L 303.608969 69.46239 
L 304.215573 70.268836 
L 304.822177 72.004478 
L 305.428781 71.831793 
L 306.035385 71.221948 
L 306.641989 71.402754 
L 307.248594 64.221887 
L 307.855198 62.008238 
L 308.461802 63.612524 
L 309.068406 61.903699 
L 309.67501 63.697758 
L 310.281614 61.058345 
L 310.888219 60.525941 
L 311.494823 58.396546 
L 312.101427 63.742834 
L 312.708031 61.030093 
L 313.314635 67.311171 
L 313.921239 67.129214 
L 314.527843 68.373736 
L 315.134448 74.773134 
L 315.741052 77.426083 
L 316.347656 76.58663 
L 316.95426 77.384804 
L 317.560864 77.21065 
L 318.167468 75.885592 
L 318.774073 74.107982 
L 319.987281 65.482908 
L 320.593885 67.101757 
L 321.200489 65.649649 
L 321.807093 64.626793 
L 322.413698 70.519362 
L 323.020302 72.324753 
L 323.626906 71.538483 
L 324.23351 65.185248 
L 324.840114 62.001216 
L 325.446718 62.132804 
L 326.053322 63.186325 
L 326.659927 62.035857 
L 327.266531 61.211594 
L 328.479739 58.595479 
L 329.086343 53.173753 
L 329.692947 50.260064 
L 330.299552 51.086809 
L 331.51276 57.223882 
L 332.119364 59.187344 
L 332.725968 58.633644 
L 333.332572 58.879015 
L 333.939177 62.368977 
L 334.545781 64.780725 
L 336.972197 49.900755 
L 337.578801 51.020194 
L 338.185406 49.299787 
L 338.79201 47.033828 
L 339.398614 47.034204 
L 340.005218 60.827817 
L 343.038239 109.436576 
L 343.644843 109.566959 
L 344.251447 111.278628 
L 344.858051 108.722766 
L 345.464656 104.410645 
L 346.07126 109.277295 
L 346.677864 116.553443 
L 347.284468 121.368699 
L 347.891072 121.180184 
L 348.497676 126.599549 
L 349.10428 136.423507 
L 349.710885 138.092394 
L 350.317489 138.056372 
L 350.924093 134.65207 
L 351.530697 132.049064 
L 352.137301 132.365812 
L 353.35051 140.824326 
L 353.957114 140.462742 
L 354.563718 141.221533 
L 355.170322 140.681797 
L 355.776926 141.461262 
L 356.990135 138.955385 
L 357.596739 144.104479 
L 358.203343 141.201571 
L 358.809947 145.808578 
L 359.416551 144.599555 
L 360.023155 144.821839 
L 360.629759 149.70437 
L 361.236364 150.565897 
L 361.842968 149.926167 
L 362.449572 156.039927 
L 363.056176 150.61949 
L 363.66278 144.06993 
L 364.269384 142.852343 
L 364.875989 146.444092 
L 365.482593 151.815831 
L 366.695801 148.044534 
L 367.302405 149.632135 
L 367.909009 146.716845 
L 368.515614 145.415808 
L 369.122218 150.460162 
L 369.728822 150.706247 
L 370.335426 148.017359 
L 370.94203 142.073835 
L 371.548634 132.801236 
L 372.155238 137.641089 
L 372.761843 135.393706 
L 373.368447 135.402759 
L 373.975051 136.579766 
L 374.581655 132.652424 
L 375.188259 140.261261 
L 375.794863 135.02305 
L 376.401468 137.441875 
L 377.008072 132.834777 
L 377.614676 131.448181 
L 378.22128 128.191376 
L 378.827884 133.10147 
L 379.434488 131.887174 
L 380.041093 133.592789 
L 381.254301 140.674953 
L 381.860905 141.481506 
L 382.467509 145.135996 
L 383.074113 143.197429 
L 383.680717 141.636351 
L 384.287322 143.157685 
L 384.893926 138.683229 
L 385.50053 131.796183 
L 386.713738 122.989533 
L 387.320342 121.468407 
L 387.926947 120.799243 
L 388.533551 122.317396 
L 389.140155 119.256697 
L 389.746759 119.679242 
L 390.353363 125.818957 
L 390.959967 134.733566 
L 391.566572 134.174218 
L 392.77978 118.876884 
L 393.386384 116.488332 
L 393.992988 122.920728 
L 394.599592 123.727232 
L 395.206196 128.876757 
L 395.812801 137.047636 
L 396.419405 122.612275 
L 397.026009 125.562941 
L 397.632613 122.47219 
L 398.239217 117.815646 
L 398.845821 114.380346 
L 399.452426 111.900997 
L 400.05903 112.245119 
L 400.665634 117.227571 
L 401.272238 123.221276 
L 401.878842 131.265579 
L 402.485446 132.393503 
L 403.092051 130.391583 
L 403.698655 124.882769 
L 404.911863 117.274038 
L 405.518467 121.266982 
L 406.125071 128.565518 
L 406.731675 137.547655 
L 407.33828 136.662497 
L 407.944884 130.529682 
L 408.551488 129.005343 
L 409.158092 124.04242 
L 409.764696 122.579852 
L 410.3713 127.357184 
L 410.977905 128.815433 
L 411.584509 124.365895 
L 412.191113 123.500183 
L 412.797717 116.008939 
L 413.404321 114.073967 
L 414.010925 118.490702 
L 414.61753 118.792437 
L 415.224134 113.290443 
L 415.830738 116.605306 
L 416.437342 123.843932 
L 417.65055 128.252516 
L 418.257155 130.278022 
L 418.863759 130.498289 
L 419.470363 124.177156 
L 420.076967 123.563206 
L 420.683571 126.01899 
L 421.290175 131.963937 
L 421.896779 129.719479 
L 422.503384 132.220526 
L 423.109988 137.281538 
L 423.716592 140.196539 
L 424.323196 139.409154 
L 424.9298 135.103403 
L 426.143009 120.401993 
L 426.749613 118.766114 
L 427.356217 120.995139 
L 427.962821 125.308173 
L 428.569425 127.705999 
L 429.176029 127.105751 
L 429.782634 119.719442 
L 430.995842 113.988203 
L 432.20905 96.742999 
L 432.815654 92.620757 
L 433.422258 94.063238 
L 434.028863 98.587808 
L 434.635467 99.482478 
L 435.242071 97.814828 
L 436.455279 76.796504 
L 437.061883 81.811455 
L 437.668488 82.487805 
L 438.275092 88.599443 
L 438.881696 90.702787 
L 440.094904 95.451169 
L 440.701508 90.912013 
L 441.308113 91.420418 
L 441.914717 94.932753 
L 442.521321 100.802806 
L 444.341133 121.087279 
L 444.947737 126.9863 
L 445.554342 127.857532 
L 446.160946 130.284357 
L 446.76755 130.703583 
L 447.374154 135.132858 
L 447.980758 135.131589 
L 448.587362 141.881823 
L 449.800571 147.56538 
L 450.407175 153.965718 
L 451.013779 152.879653 
L 452.226987 155.187145 
L 452.833592 157.044269 
L 453.440196 154.363171 
L 454.0468 154.075542 
L 454.653404 152.418223 
L 455.260008 152.112672 
L 455.866612 147.731974 
L 456.473216 146.541852 
L 457.079821 142.777108 
L 457.686425 140.184089 
L 458.293029 138.709388 
L 458.899633 140.636374 
L 459.506237 140.251914 
L 460.112841 139.329496 
L 460.719446 145.336025 
L 461.32605 147.13166 
L 461.932654 146.627255 
L 462.539258 141.359618 
L 463.145862 142.473206 
L 463.752466 141.468037 
L 464.359071 143.717297 
L 464.965675 147.384868 
L 465.572279 148.145097 
L 466.178883 146.087949 
L 466.785487 139.267753 
L 467.392091 140.602222 
L 467.998695 136.177579 
L 468.6053 139.060996 
L 469.211904 147.951397 
L 469.818508 153.345288 
L 470.425112 157.337811 
L 471.63832 156.02147 
L 472.244925 157.012932 
L 472.851529 158.447355 
L 473.458133 157.804254 
L 474.064737 155.725997 
L 474.671341 152.496954 
L 475.88455 157.571254 
L 476.491154 161.164665 
L 477.097758 162.217312 
L 477.704362 158.502546 
L 478.310966 156.420035 
L 478.91757 156.813731 
L 479.524174 157.979478 
L 480.130779 161.364014 
L 480.737383 161.240701 
L 481.343987 159.344662 
L 481.950591 161.371431 
L 482.557195 160.088696 
L 483.163799 156.195147 
L 483.770404 155.665164 
L 484.377008 155.459598 
L 484.983612 152.862651 
L 485.590216 156.607701 
L 486.19682 158.12917 
L 486.803424 155.432 
L 487.410029 154.219508 
L 488.016633 154.91584 
L 488.623237 154.853833 
L 489.229841 157.513053 
L 489.836445 157.24906 
L 490.443049 155.878807 
L 491.049653 158.359464 
L 491.656258 158.96419 
L 492.262862 158.12547 
L 492.869466 157.713359 
L 493.47607 157.165377 
L 494.082674 157.267536 
L 494.689278 157.831873 
L 495.295883 154.597651 
L 495.902487 153.970548 
L 496.509091 149.840732 
L 496.509091 149.840732 
" clip-path="url(#pcbc12765f0)" style="fill: none; stroke: #1f77b4; stroke-width: 1.5; stroke-linecap: square"/>
   </g>
   <g id="line2d_32">
    <path d="M 90.690909 292.249711 
L 91.297513 292.531875 
L 91.904117 289.17551 
L 92.510722 261.442612 
L 93.117326 240.106857 
L 93.72393 225.153951 
L 94.937138 213.260582 
L 95.543742 212.281254 
L 96.150347 218.450794 
L 96.756951 210.337731 
L 97.363555 213.055312 
L 97.970159 203.998973 
L 98.576763 200.260433 
L 99.183367 197.470853 
L 99.789971 195.753429 
L 100.396576 190.733506 
L 101.609784 193.150111 
L 102.216388 196.939212 
L 103.429596 176.137451 
L 104.036201 184.265371 
L 104.642805 189.732289 
L 105.856013 222.80317 
L 106.462617 230.543066 
L 107.069221 235.250735 
L 107.675826 235.93217 
L 108.28243 230.271189 
L 108.889034 220.570733 
L 109.495638 191.707371 
L 110.708846 155.934567 
L 111.31545 148.608603 
L 111.922055 143.101216 
L 112.528659 143.00154 
L 113.741867 119.895019 
L 114.348471 121.832355 
L 114.955075 128.289055 
L 115.56168 126.30396 
L 116.168284 122.877472 
L 116.774888 123.888191 
L 117.381492 123.609865 
L 117.988096 115.907462 
L 118.5947 109.661849 
L 119.201305 106.102748 
L 120.414513 95.430829 
L 121.021117 97.282333 
L 121.627721 90.41581 
L 122.840929 85.792826 
L 123.447534 92.465229 
L 124.054138 94.445728 
L 124.660742 90.440628 
L 125.267346 108.847745 
L 125.87395 105.402699 
L 126.480554 104.167336 
L 127.087159 110.263877 
L 127.693763 114.843599 
L 128.300367 134.009534 
L 128.906971 140.889882 
L 129.513575 142.676933 
L 130.120179 136.331824 
L 130.726784 127.300677 
L 131.333388 121.495149 
L 131.939992 119.088746 
L 132.546596 118.724243 
L 133.1532 108.938169 
L 133.759804 110.900375 
L 134.366408 114.090828 
L 134.973013 114.294039 
L 135.579617 107.217029 
L 136.186221 110.091194 
L 136.792825 103.140781 
L 137.399429 101.760984 
L 138.006033 104.948003 
L 138.612638 103.435564 
L 139.219242 106.098436 
L 139.825846 104.173785 
L 140.43245 97.22579 
L 141.039054 93.734981 
L 141.645658 91.919482 
L 142.252263 84.490318 
L 142.858867 84.408332 
L 143.465471 83.808624 
L 144.072075 83.599165 
L 144.678679 82.954498 
L 145.891887 75.085248 
L 146.498492 72.464593 
L 147.105096 78.318162 
L 147.7117 74.519055 
L 148.318304 76.981405 
L 148.924908 84.352238 
L 149.531512 79.604317 
L 150.138117 77.912457 
L 150.744721 78.065681 
L 151.351325 72.268721 
L 151.957929 71.973844 
L 152.564533 69.504879 
L 153.171137 69.522165 
L 153.777742 72.43622 
L 154.384346 74.655949 
L 154.99095 73.285706 
L 155.597554 72.638481 
L 156.810762 83.380369 
L 157.417366 80.569472 
L 158.023971 85.821694 
L 158.630575 85.150636 
L 159.237179 88.928983 
L 159.843783 90.691035 
L 160.450387 94.946502 
L 161.056991 95.501514 
L 161.663596 91.19243 
L 162.2702 92.859414 
L 162.876804 89.809173 
L 163.483408 91.625343 
L 164.090012 88.9376 
L 164.696616 85.69783 
L 165.303221 84.597217 
L 165.909825 86.103519 
L 166.516429 83.741333 
L 167.123033 82.75728 
L 167.729637 88.019579 
L 168.336241 80.719816 
L 168.942845 80.932412 
L 169.54945 83.222256 
L 170.156054 88.963965 
L 170.762658 87.917104 
L 171.369262 83.350453 
L 171.975866 85.414248 
L 172.58247 83.0364 
L 173.189075 85.128593 
L 173.795679 83.618863 
L 174.402283 85.223945 
L 175.008887 86.511516 
L 175.615491 87.26032 
L 176.222095 92.99751 
L 176.8287 88.992872 
L 177.435304 93.464089 
L 178.041908 93.107093 
L 178.648512 94.04355 
L 179.255116 95.778088 
L 179.86172 94.553709 
L 180.468325 95.520133 
L 181.074929 101.661663 
L 181.681533 103.791002 
L 182.288137 100.595044 
L 182.894741 100.308423 
L 184.107949 94.075853 
L 184.714554 97.269682 
L 185.321158 99.585195 
L 185.927762 97.119445 
L 186.534366 100.09301 
L 187.14097 101.146792 
L 188.354179 101.889449 
L 189.567387 99.667284 
L 190.173991 99.488833 
L 190.780595 104.876166 
L 191.387199 108.585495 
L 191.993804 103.794839 
L 192.600408 104.938032 
L 193.207012 104.246948 
L 193.813616 111.289897 
L 194.42022 113.303273 
L 195.026824 113.193947 
L 195.633428 115.263547 
L 196.240033 112.37665 
L 196.846637 108.767442 
L 197.453241 109.728515 
L 198.059845 111.928019 
L 198.666449 111.105691 
L 199.273053 111.057469 
L 199.879658 110.317064 
L 200.486262 109.921208 
L 201.092866 109.345623 
L 202.306074 112.545706 
L 202.912678 114.470094 
L 203.519283 114.124793 
L 204.125887 108.323253 
L 204.732491 104.72463 
L 205.339095 106.819081 
L 205.945699 107.625631 
L 206.552303 112.974942 
L 207.158907 110.072667 
L 207.765512 113.925193 
L 208.97872 110.036476 
L 209.585324 109.539779 
L 210.191928 104.536551 
L 210.798532 103.515078 
L 211.405137 103.552751 
L 212.011741 105.067297 
L 212.618345 109.372715 
L 213.224949 111.592106 
L 213.831553 108.554313 
L 214.438157 109.677936 
L 215.044762 112.695956 
L 215.651366 111.180831 
L 216.25797 111.914353 
L 216.864574 115.682761 
L 217.471178 116.234252 
L 218.077782 115.301728 
L 218.684386 116.361083 
L 219.897595 113.303285 
L 220.504199 112.481308 
L 221.110803 114.152477 
L 222.324011 119.003505 
L 222.930616 118.368162 
L 223.53722 119.15424 
L 224.143824 121.208856 
L 224.750428 121.261548 
L 225.357032 116.736466 
L 225.963636 115.713071 
L 226.570241 115.967213 
L 227.176845 121.904825 
L 227.783449 122.665238 
L 228.390053 122.000229 
L 228.996657 121.54837 
L 230.209865 114.802491 
L 230.81647 116.224469 
L 231.423074 115.989882 
L 232.029678 114.525487 
L 233.242886 114.978087 
L 233.84949 113.367689 
L 234.456095 112.771811 
L 235.062699 109.6948 
L 235.669303 109.774883 
L 236.275907 105.862797 
L 236.882511 111.618067 
L 237.489115 113.308735 
L 238.09572 109.850425 
L 238.702324 111.778769 
L 239.308928 112.580155 
L 239.915532 111.569028 
L 240.522136 108.645919 
L 241.12874 108.027882 
L 241.735344 110.075591 
L 242.341949 108.576662 
L 242.948553 104.22285 
L 243.555157 106.800267 
L 244.161761 108.782386 
L 244.768365 109.169168 
L 245.374969 110.118095 
L 245.981574 116.995171 
L 246.588178 116.492305 
L 247.194782 115.042068 
L 247.801386 117.037471 
L 248.40799 117.830817 
L 249.014594 117.973392 
L 249.621199 119.58563 
L 250.227803 123.049543 
L 250.834407 121.223912 
L 251.441011 122.438998 
L 252.047615 121.504975 
L 252.654219 113.115801 
L 253.260823 112.479565 
L 253.867428 109.82324 
L 254.474032 109.511766 
L 255.080636 111.564109 
L 255.68724 109.796405 
L 256.293844 111.173345 
L 256.900448 113.148325 
L 257.507053 112.68217 
L 258.113657 115.795219 
L 258.720261 116.132202 
L 259.326865 115.46343 
L 259.933469 112.552694 
L 260.540073 115.031323 
L 261.146678 115.017001 
L 261.753282 117.267525 
L 262.359886 115.370971 
L 262.96649 115.506176 
L 263.573094 119.27953 
L 264.179698 120.73696 
L 265.392907 120.344727 
L 266.606115 123.42819 
L 267.212719 122.845802 
L 268.425927 127.086516 
L 269.032532 123.247612 
L 269.639136 125.816663 
L 270.24574 126.959237 
L 270.852344 127.622686 
L 271.458948 127.405971 
L 272.672157 125.256627 
L 273.278761 123.531768 
L 273.885365 123.801447 
L 274.491969 123.096132 
L 275.098573 119.846234 
L 275.705177 122.521645 
L 276.311781 122.618233 
L 276.918386 123.994331 
L 277.52499 120.148442 
L 278.131594 119.069014 
L 278.738198 120.944831 
L 279.951406 126.664873 
L 280.558011 127.037576 
L 281.164615 130.483861 
L 281.771219 127.639969 
L 282.377823 128.084065 
L 282.984427 128.971443 
L 283.591031 129.596471 
L 284.197636 134.680187 
L 284.80424 131.585583 
L 285.410844 131.877882 
L 286.017448 134.497777 
L 286.624052 131.522787 
L 287.230656 127.774062 
L 287.83726 126.941352 
L 289.050469 118.698767 
L 290.263677 115.053413 
L 290.870281 115.166195 
L 291.476885 117.165184 
L 292.08349 113.701813 
L 292.690094 111.025331 
L 293.903302 108.227697 
L 294.509906 108.578101 
L 295.11651 108.75835 
L 295.723115 110.241618 
L 296.329719 109.134237 
L 296.936323 108.493887 
L 297.542927 115.415002 
L 298.149531 113.53247 
L 298.756135 115.39138 
L 299.36274 113.7502 
L 299.969344 114.86335 
L 300.575948 115.460333 
L 301.182552 121.303931 
L 301.789156 121.810171 
L 302.39576 120.618024 
L 303.002364 121.134398 
L 303.608969 126.453867 
L 304.215573 122.570916 
L 304.822177 121.956982 
L 305.428781 122.34189 
L 306.035385 118.055084 
L 306.641989 115.27166 
L 307.248594 116.694969 
L 307.855198 117.422835 
L 308.461802 115.916371 
L 309.068406 115.106114 
L 309.67501 116.867776 
L 310.281614 119.466054 
L 310.888219 119.063706 
L 311.494823 121.505262 
L 312.101427 120.848226 
L 312.708031 121.209776 
L 313.314635 116.159745 
L 313.921239 117.404885 
L 314.527843 117.253236 
L 315.134448 119.1821 
L 316.347656 125.16644 
L 317.560864 126.198315 
L 318.167468 128.548358 
L 318.774073 126.230738 
L 319.380677 127.002597 
L 319.987281 127.420068 
L 320.593885 128.522165 
L 321.200489 131.214435 
L 321.807093 135.234303 
L 322.413698 137.050861 
L 323.020302 141.587847 
L 324.23351 133.072973 
L 324.840114 130.071197 
L 325.446718 130.714342 
L 326.659927 133.866321 
L 327.266531 133.034763 
L 327.873135 131.876846 
L 328.479739 131.510702 
L 329.086343 135.544785 
L 329.692947 136.663381 
L 330.906156 130.704396 
L 331.51276 132.063441 
L 332.119364 130.571874 
L 333.939177 132.486903 
L 334.545781 128.648225 
L 335.152385 129.465634 
L 335.758989 127.451397 
L 336.365593 126.128934 
L 336.972197 123.824211 
L 337.578801 121.95723 
L 338.185406 119.50859 
L 338.79201 118.938368 
L 339.398614 120.160113 
L 340.005218 118.780723 
L 340.611822 117.888277 
L 341.218426 116.158986 
L 342.431635 114.698427 
L 343.038239 116.098248 
L 343.644843 114.751035 
L 344.858051 125.943049 
L 345.464656 128.878937 
L 346.07126 127.657318 
L 347.284468 135.104859 
L 347.891072 131.749037 
L 348.497676 132.445658 
L 349.10428 131.704925 
L 349.710885 132.156656 
L 350.317489 130.719613 
L 350.924093 130.448536 
L 351.530697 128.503668 
L 352.137301 124.041015 
L 352.743905 124.025289 
L 354.563718 135.659983 
L 355.170322 133.800627 
L 355.776926 132.668996 
L 356.38353 128.926104 
L 356.990135 128.120503 
L 357.596739 130.210023 
L 358.203343 126.960283 
L 358.809947 125.168967 
L 359.416551 121.455642 
L 360.023155 116.886073 
L 361.236364 122.883731 
L 361.842968 122.156544 
L 362.449572 124.602552 
L 363.056176 123.831354 
L 363.66278 121.473113 
L 364.269384 119.684172 
L 364.875989 116.800728 
L 365.482593 112.803177 
L 366.089197 106.219068 
L 366.695801 108.104983 
L 367.302405 109.429241 
L 367.909009 113.127301 
L 368.515614 109.084284 
L 369.122218 111.656219 
L 369.728822 113.581785 
L 370.335426 116.206257 
L 370.94203 115.582251 
L 371.548634 115.275876 
L 372.155238 116.606318 
L 372.761843 119.691789 
L 373.975051 124.962398 
L 374.581655 122.782516 
L 375.794863 124.718588 
L 377.008072 127.871203 
L 377.614676 128.440631 
L 378.22128 125.220812 
L 379.434488 121.420873 
L 380.041093 116.028082 
L 380.647697 117.273186 
L 381.254301 117.664117 
L 381.860905 115.459292 
L 382.467509 110.119985 
L 383.074113 108.976665 
L 383.680717 112.344994 
L 384.893926 108.341938 
L 385.50053 107.554276 
L 386.107134 107.805593 
L 386.713738 106.088633 
L 387.320342 107.246498 
L 387.926947 108.766244 
L 388.533551 105.392745 
L 389.140155 106.213245 
L 389.746759 108.743586 
L 390.353363 111.856062 
L 390.959967 116.167817 
L 391.566572 110.852556 
L 392.173176 115.971482 
L 392.77978 117.83332 
L 393.386384 117.724692 
L 394.599592 119.013999 
L 395.206196 117.90992 
L 395.812801 115.060495 
L 396.419405 111.118975 
L 397.026009 114.105496 
L 397.632613 113.654785 
L 398.239217 116.65054 
L 398.845821 114.11163 
L 399.452426 116.482953 
L 400.665634 127.445084 
L 401.272238 129.757416 
L 401.878842 129.820236 
L 402.485446 127.019977 
L 403.092051 128.952873 
L 404.305259 121.606926 
L 405.518467 118.455888 
L 406.125071 114.675677 
L 406.731675 119.501102 
L 407.33828 117.487367 
L 407.944884 116.084288 
L 408.551488 110.795477 
L 409.158092 107.037144 
L 410.977905 127.468789 
L 411.584509 123.770542 
L 412.797717 122.392816 
L 413.404321 124.29834 
L 414.010925 122.282637 
L 414.61753 119.64961 
L 415.224134 118.954823 
L 415.830738 117.04338 
L 416.437342 117.606332 
L 417.043946 115.719634 
L 417.65055 116.776303 
L 418.257155 121.379982 
L 418.863759 124.038311 
L 419.470363 127.727098 
L 420.076967 124.390295 
L 420.683571 122.492364 
L 421.290175 119.550318 
L 421.896779 115.209298 
L 422.503384 112.595248 
L 423.109988 112.466126 
L 423.716592 116.133909 
L 424.323196 118.294534 
L 424.9298 117.616317 
L 425.536404 119.940244 
L 426.143009 123.953756 
L 426.749613 121.659292 
L 427.356217 126.692926 
L 427.962821 132.867656 
L 428.569425 143.648321 
L 429.176029 145.222704 
L 429.782634 153.821892 
L 430.389238 159.479375 
L 430.995842 163.333321 
L 431.602446 165.470031 
L 432.20905 169.729043 
L 432.815654 170.512228 
L 433.422258 169.80719 
L 434.028863 169.54487 
L 434.635467 173.072603 
L 435.242071 170.055834 
L 435.848675 168.605368 
L 436.455279 165.704281 
L 437.061883 166.533217 
L 437.668488 161.192861 
L 438.275092 161.372767 
L 438.881696 159.450899 
L 439.4883 157.116467 
L 440.094904 152.75436 
L 440.701508 154.367869 
L 441.308113 148.984414 
L 441.914717 145.846559 
L 442.521321 147.864132 
L 443.127925 146.385465 
L 443.734529 141.760907 
L 444.341133 141.859735 
L 444.947737 137.888841 
L 445.554342 140.96165 
L 446.160946 146.445981 
L 446.76755 144.156588 
L 447.374154 145.669204 
L 447.980758 153.24451 
L 448.587362 159.26757 
L 449.193967 162.178327 
L 449.800571 170.586159 
L 450.407175 174.14887 
L 451.013779 166.408512 
L 451.620383 160.136806 
L 452.226987 156.028648 
L 452.833592 154.697325 
L 453.440196 152.594243 
L 454.0468 147.865197 
L 454.653404 144.964643 
L 455.260008 144.466441 
L 455.866612 138.327693 
L 456.473216 144.487355 
L 457.079821 151.844322 
L 457.686425 149.014469 
L 458.293029 144.602843 
L 458.899633 143.956689 
L 459.506237 143.931886 
L 460.112841 138.654614 
L 460.719446 141.17767 
L 461.32605 141.766114 
L 461.932654 142.883914 
L 462.539258 146.235013 
L 463.145862 148.103656 
L 463.752466 155.015811 
L 464.359071 156.487116 
L 464.965675 152.803838 
L 465.572279 151.471368 
L 466.178883 148.131706 
L 466.785487 149.059389 
L 467.392091 150.595 
L 467.998695 160.062977 
L 469.211904 173.343815 
L 469.818508 182.936482 
L 471.031716 192.656818 
L 471.63832 194.77997 
L 472.244925 201.110576 
L 472.851529 204.196746 
L 473.458133 202.108499 
L 474.064737 201.852954 
L 474.671341 202.718886 
L 475.277945 198.056171 
L 475.88455 191.506668 
L 476.491154 186.267768 
L 477.704362 190.824885 
L 478.310966 200.064556 
L 479.524174 189.819356 
L 480.130779 185.679405 
L 480.130779 185.679405 
" clip-path="url(#pcbc12765f0)" style="fill: none; stroke: #ff7f0e; stroke-width: 1.5; stroke-linecap: square"/>
   </g>
   <g id="line2d_33">
    <path d="M 90.690909 285.211305 
L 91.297513 284.476737 
L 91.904117 282.604524 
L 92.510722 282.488835 
L 93.117326 256.72569 
L 93.72393 242.229654 
L 94.330534 239.036637 
L 94.937138 207.757597 
L 95.543742 225.686807 
L 96.150347 236.399481 
L 96.756951 242.575345 
L 97.363555 246.342097 
L 97.970159 232.036014 
L 99.183367 175.23447 
L 99.789971 159.454835 
L 100.396576 150.26598 
L 101.00318 146.789177 
L 101.609784 145.466476 
L 102.216388 137.146104 
L 102.822992 141.495563 
L 103.429596 142.668389 
L 104.036201 144.897228 
L 104.642805 143.009893 
L 105.249409 149.218012 
L 105.856013 147.576538 
L 106.462617 144.637345 
L 107.069221 143.484077 
L 107.675826 140.588754 
L 108.28243 138.592277 
L 109.495638 127.921803 
L 110.102242 126.238861 
L 110.708846 124.027911 
L 111.31545 124.602796 
L 111.922055 123.076002 
L 112.528659 120.360646 
L 113.135263 118.437859 
L 113.741867 118.861877 
L 114.348471 116.960657 
L 114.955075 117.549055 
L 115.56168 117.701691 
L 116.774888 124.259398 
L 117.381492 125.367827 
L 117.988096 126.213941 
L 118.5947 127.792447 
L 119.201305 126.257312 
L 119.807909 126.420133 
L 120.414513 125.52147 
L 121.021117 123.414768 
L 121.627721 122.872219 
L 122.234325 119.903821 
L 122.840929 117.959683 
L 124.054138 117.441939 
L 124.660742 116.660633 
L 125.267346 110.056898 
L 125.87395 108.924225 
L 127.087159 105.785487 
L 127.693763 109.620435 
L 128.300367 110.008468 
L 128.906971 104.108532 
L 129.513575 102.577376 
L 130.120179 103.130104 
L 130.726784 101.047116 
L 131.333388 103.260256 
L 131.939992 104.548895 
L 133.1532 113.651249 
L 133.759804 115.431931 
L 134.366408 114.548507 
L 135.579617 119.170152 
L 136.186221 117.78234 
L 137.399429 122.323734 
L 138.006033 122.318898 
L 138.612638 120.627975 
L 139.219242 123.857905 
L 139.825846 121.693643 
L 140.43245 124.61773 
L 141.039054 126.321082 
L 141.645658 122.223034 
L 142.252263 123.320701 
L 142.858867 120.728219 
L 143.465471 121.071436 
L 144.072075 120.088012 
L 144.678679 122.062787 
L 145.285283 121.002577 
L 145.891887 120.616108 
L 146.498492 120.761917 
L 147.105096 115.394507 
L 147.7117 115.75135 
L 148.318304 118.168272 
L 148.924908 118.532175 
L 150.138117 116.750846 
L 150.744721 119.151515 
L 151.351325 114.300974 
L 152.564533 123.00322 
L 153.171137 122.640593 
L 153.777742 124.63477 
L 154.384346 123.944112 
L 154.99095 125.188417 
L 155.597554 123.313623 
L 156.204158 122.343811 
L 156.810762 123.743724 
L 157.417366 122.763949 
L 158.023971 121.133538 
L 158.630575 122.758566 
L 159.843783 123.251483 
L 160.450387 126.276042 
L 161.056991 127.508029 
L 161.663596 130.357973 
L 162.2702 127.438267 
L 162.876804 127.986628 
L 163.483408 130.890074 
L 164.090012 137.674077 
L 164.696616 136.669819 
L 165.303221 134.283432 
L 165.909825 137.309102 
L 166.516429 134.931571 
L 167.123033 129.247937 
L 167.729637 130.076795 
L 168.336241 129.72623 
L 168.942845 129.813704 
L 169.54945 129.263958 
L 170.156054 129.634619 
L 170.762658 127.511995 
L 171.369262 133.098528 
L 171.975866 132.895408 
L 172.58247 135.781575 
L 173.189075 135.54133 
L 173.795679 134.28334 
L 174.402283 137.63544 
L 175.008887 137.844731 
L 175.615491 139.330768 
L 176.222095 136.432085 
L 176.8287 138.817744 
L 177.435304 137.650283 
L 178.041908 135.479695 
L 178.648512 136.603373 
L 179.255116 135.805732 
L 179.86172 136.087677 
L 180.468325 137.993012 
L 181.074929 137.242147 
L 182.288137 128.268491 
L 182.894741 131.072581 
L 183.501345 132.060304 
L 184.714554 135.921897 
L 185.321158 135.081441 
L 185.927762 132.547305 
L 186.534366 132.281228 
L 187.14097 134.214435 
L 187.747574 134.977341 
L 188.354179 139.310466 
L 188.960783 141.438825 
L 189.567387 146.021725 
L 190.173991 143.739378 
L 190.780595 141.909203 
L 191.387199 141.948431 
L 192.600408 146.115559 
L 193.207012 147.640429 
L 193.813616 145.41173 
L 194.42022 144.557416 
L 195.026824 147.170353 
L 195.633428 147.363201 
L 196.240033 146.756043 
L 196.846637 146.977024 
L 197.453241 146.38501 
L 198.059845 146.811386 
L 199.273053 150.053953 
L 199.879658 149.113337 
L 200.486262 148.62201 
L 201.092866 149.167288 
L 201.69947 148.512066 
L 202.306074 150.931096 
L 202.912678 150.835786 
L 203.519283 146.755677 
L 204.125887 147.954479 
L 204.732491 148.229887 
L 205.339095 146.772068 
L 205.945699 139.379092 
L 206.552303 133.934822 
L 207.158907 139.277943 
L 207.765512 138.729963 
L 208.372116 139.118724 
L 208.97872 134.975241 
L 210.191928 141.448963 
L 210.798532 145.510808 
L 211.405137 147.935565 
L 212.011741 149.25671 
L 212.618345 151.432779 
L 213.224949 150.389186 
L 213.831553 146.021758 
L 215.044762 144.687747 
L 215.651366 141.073479 
L 216.25797 139.339096 
L 216.864574 141.633911 
L 217.471178 145.157937 
L 218.077782 147.790468 
L 218.684386 145.785353 
L 219.290991 147.686396 
L 219.897595 146.436662 
L 220.504199 145.495789 
L 221.110803 144.882344 
L 221.717407 145.098846 
L 222.324011 148.251544 
L 223.53722 143.892906 
L 224.750428 148.189677 
L 225.357032 149.491914 
L 225.963636 151.838665 
L 226.570241 151.218063 
L 227.176845 151.667511 
L 227.783449 151.184574 
L 228.390053 151.603159 
L 228.996657 147.951446 
L 229.603261 146.440142 
L 230.209865 147.322843 
L 230.81647 145.376677 
L 231.423074 144.96663 
L 232.029678 142.952737 
L 232.636282 141.979352 
L 233.242886 142.117779 
L 233.84949 140.843812 
L 234.456095 140.450552 
L 235.062699 137.849658 
L 235.669303 136.953169 
L 236.275907 139.034083 
L 236.882511 141.877915 
L 237.489115 141.33639 
L 238.09572 141.846043 
L 238.702324 142.563288 
L 239.308928 141.43386 
L 239.915532 139.76206 
L 240.522136 139.908792 
L 241.12874 134.504597 
L 241.735344 131.348647 
L 242.341949 129.92885 
L 242.948553 129.415339 
L 243.555157 127.393211 
L 244.161761 127.541008 
L 244.768365 129.396002 
L 245.374969 130.560796 
L 245.981574 132.741283 
L 246.588178 130.977175 
L 247.194782 130.513341 
L 247.801386 124.60182 
L 248.40799 122.057868 
L 249.014594 123.784995 
L 249.621199 128.423736 
L 250.227803 128.929138 
L 250.834407 128.776447 
L 251.441011 125.202664 
L 252.047615 119.139009 
L 252.654219 117.56263 
L 253.260823 114.927266 
L 253.867428 122.129782 
L 254.474032 120.843827 
L 255.080636 114.782142 
L 255.68724 112.306552 
L 256.293844 114.647394 
L 256.900448 110.579302 
L 257.507053 109.872861 
L 258.113657 115.131557 
L 258.720261 114.929319 
L 259.326865 114.343286 
L 259.933469 114.946513 
L 260.540073 119.789926 
L 261.146678 116.669761 
L 261.753282 117.068193 
L 262.359886 117.019449 
L 262.96649 111.284995 
L 263.573094 112.744538 
L 264.179698 113.275521 
L 264.786302 113.506089 
L 265.392907 110.25962 
L 265.999511 114.475611 
L 266.606115 112.645592 
L 267.212719 112.164969 
L 267.819323 112.474553 
L 268.425927 110.928195 
L 269.032532 115.260327 
L 269.639136 115.104851 
L 270.24574 116.507763 
L 270.852344 112.709965 
L 271.458948 111.697546 
L 272.672157 114.347372 
L 273.278761 117.333247 
L 273.885365 118.384296 
L 274.491969 118.699179 
L 275.098573 114.487777 
L 275.705177 112.71921 
L 276.311781 111.318671 
L 276.918386 112.981565 
L 277.52499 116.827858 
L 278.131594 118.606582 
L 278.738198 121.492569 
L 279.344802 118.717491 
L 279.951406 118.575307 
L 280.558011 118.311127 
L 281.164615 116.652481 
L 281.771219 110.13362 
L 282.377823 110.257294 
L 282.984427 109.92402 
L 283.591031 107.302051 
L 284.197636 111.1954 
L 284.80424 115.924909 
L 285.410844 114.766877 
L 286.017448 118.102181 
L 286.624052 116.952823 
L 287.230656 119.407782 
L 287.83726 113.097549 
L 288.443865 114.771963 
L 289.050469 117.726121 
L 289.657073 122.53263 
L 290.263677 120.425327 
L 290.870281 119.532822 
L 291.476885 121.005427 
L 292.08349 114.428617 
L 292.690094 110.97461 
L 293.296698 109.452196 
L 293.903302 110.081441 
L 294.509906 113.190686 
L 295.11651 113.951455 
L 295.723115 117.391561 
L 296.329719 115.143707 
L 296.936323 111.411222 
L 297.542927 108.668247 
L 298.149531 112.784081 
L 298.756135 115.185475 
L 299.36274 122.125005 
L 299.969344 120.3195 
L 300.575948 123.79887 
L 301.182552 124.73263 
L 301.789156 119.94289 
L 302.39576 117.729264 
L 303.002364 118.10299 
L 303.608969 121.468379 
L 304.215573 109.137086 
L 304.822177 111.592771 
L 305.428781 107.848433 
L 306.035385 110.117794 
L 306.641989 110.84105 
L 307.248594 108.578644 
L 307.855198 100.950496 
L 308.461802 102.48368 
L 309.068406 104.533001 
L 309.67501 109.65201 
L 310.281614 108.452369 
L 310.888219 104.690288 
L 311.494823 109.692031 
L 312.101427 117.083918 
L 312.708031 120.527274 
L 313.314635 116.816876 
L 313.921239 120.26574 
L 315.134448 131.33284 
L 315.741052 123.745918 
L 316.347656 120.959373 
L 316.95426 124.940242 
L 317.560864 124.581183 
L 318.167468 125.423009 
L 318.774073 122.762755 
L 319.380677 119.592163 
L 319.987281 119.744939 
L 320.593885 119.008259 
L 321.807093 99.248629 
L 322.413698 97.864658 
L 323.020302 97.637961 
L 323.626906 94.964852 
L 324.23351 98.389465 
L 324.840114 92.045779 
L 325.446718 91.596938 
L 326.053322 90.144296 
L 326.659927 84.869434 
L 327.266531 86.391121 
L 327.873135 86.361286 
L 328.479739 85.220504 
L 329.086343 81.525026 
L 329.692947 80.266867 
L 330.299552 80.360999 
L 330.906156 76.116506 
L 331.51276 68.31811 
L 332.119364 62.898646 
L 333.332572 58.622733 
L 334.545781 47.594359 
L 335.758989 40.531875 
L 336.365593 42.275859 
L 336.972197 46.008372 
L 337.578801 47.303501 
L 338.185406 43.025434 
L 339.398614 52.07686 
L 340.005218 51.62345 
L 340.611822 53.941001 
L 341.218426 53.871566 
L 341.825031 51.769607 
L 342.431635 52.702602 
L 343.038239 57.200303 
L 343.644843 53.791557 
L 344.251447 54.288287 
L 344.858051 54.483467 
L 346.07126 58.849492 
L 346.677864 59.547781 
L 347.284468 58.062056 
L 347.891072 64.86237 
L 348.497676 64.167583 
L 349.10428 66.790845 
L 349.710885 64.385397 
L 350.317489 62.578592 
L 350.924093 63.66472 
L 351.530697 62.090762 
L 352.137301 61.419279 
L 352.743905 61.497838 
L 353.35051 55.677647 
L 353.957114 53.677363 
L 354.563718 52.799773 
L 355.170322 50.792444 
L 355.776926 50.987702 
L 356.38353 55.520389 
L 356.990135 62.319183 
L 357.596739 61.360925 
L 358.203343 58.211769 
L 359.416551 62.130169 
L 360.023155 61.293723 
L 360.629759 63.987513 
L 361.236364 57.399465 
L 361.842968 58.513627 
L 362.449572 56.416331 
L 363.056176 58.396302 
L 363.66278 57.048231 
L 364.269384 55.347065 
L 364.875989 58.379545 
L 365.482593 63.183189 
L 366.089197 66.269778 
L 366.695801 67.327618 
L 367.302405 70.472288 
L 367.909009 69.497325 
L 368.515614 68.152141 
L 369.122218 67.773302 
L 369.728822 70.697058 
L 370.335426 74.73358 
L 370.94203 74.788974 
L 371.548634 74.173006 
L 372.155238 77.256987 
L 372.761843 73.124467 
L 373.368447 71.544352 
L 373.975051 73.984829 
L 374.581655 70.66751 
L 375.188259 71.478506 
L 375.794863 67.455991 
L 377.008072 80.228038 
L 377.614676 79.066037 
L 378.22128 76.710961 
L 378.827884 80.486344 
L 380.041093 91.7033 
L 380.647697 93.600157 
L 381.254301 87.224431 
L 381.860905 91.209048 
L 382.467509 90.261063 
L 383.074113 84.873201 
L 383.680717 88.885696 
L 384.287322 85.912855 
L 384.893926 85.233742 
L 385.50053 82.559122 
L 386.107134 88.229631 
L 386.713738 76.460316 
L 387.320342 76.844487 
L 387.926947 81.394363 
L 388.533551 73.392433 
L 389.140155 70.107481 
L 389.746759 72.553771 
L 390.353363 71.789083 
L 390.353363 71.789083 
" clip-path="url(#pcbc12765f0)" style="fill: none; stroke: #2ca02c; stroke-width: 1.5; stroke-linecap: square"/>
   </g>
   <g id="line2d_34">
    <path d="M 90.690909 289.500421 
L 91.297513 287.715973 
L 91.904117 287.247018 
L 92.510722 287.346803 
L 93.72393 280.119488 
L 94.937138 256.90255 
L 96.150347 263.715748 
L 96.756951 256.089241 
L 97.363555 251.543087 
L 97.970159 253.150891 
L 98.576763 238.627342 
L 99.183367 218.512372 
L 99.789971 203.782334 
L 101.609784 167.435492 
L 102.216388 150.531117 
L 102.822992 138.78199 
L 103.429596 131.668706 
L 104.036201 126.424458 
L 104.642805 122.402862 
L 105.249409 120.637594 
L 105.856013 122.571593 
L 106.462617 125.978089 
L 107.069221 130.025677 
L 107.675826 127.880816 
L 108.28243 122.659016 
L 108.889034 120.778281 
L 109.495638 120.262777 
L 110.102242 118.760683 
L 110.708846 113.850019 
L 111.31545 111.597602 
L 111.922055 112.64469 
L 112.528659 110.980419 
L 113.135263 106.268041 
L 113.741867 107.130121 
L 114.348471 108.37062 
L 114.955075 110.51866 
L 115.56168 111.876289 
L 116.168284 112.596707 
L 116.774888 112.640382 
L 117.381492 109.844279 
L 117.988096 108.519982 
L 119.201305 111.66092 
L 119.807909 111.328168 
L 120.414513 116.639501 
L 121.021117 117.862689 
L 121.627721 116.654378 
L 122.234325 116.397368 
L 122.840929 114.092492 
L 123.447534 114.036827 
L 124.054138 116.252426 
L 124.660742 115.709575 
L 125.267346 117.413999 
L 125.87395 112.061373 
L 126.480554 110.676389 
L 127.087159 111.464624 
L 127.693763 110.292261 
L 128.300367 113.61163 
L 128.906971 114.315057 
L 129.513575 113.89635 
L 130.120179 114.138201 
L 130.726784 112.691696 
L 131.333388 113.365048 
L 131.939992 117.869468 
L 132.546596 119.086927 
L 133.1532 115.395112 
L 133.759804 119.474192 
L 134.366408 119.22002 
L 134.973013 120.718769 
L 135.579617 120.851915 
L 136.186221 118.308902 
L 136.792825 119.673185 
L 138.006033 127.156313 
L 138.612638 124.366685 
L 139.219242 123.085961 
L 139.825846 123.39993 
L 140.43245 125.552791 
L 141.645658 128.381083 
L 142.252263 127.747522 
L 142.858867 130.380998 
L 143.465471 128.024609 
L 144.072075 126.853496 
L 144.678679 128.953203 
L 145.285283 127.272542 
L 145.891887 127.527529 
L 146.498492 126.404899 
L 147.105096 124.475018 
L 147.7117 125.371677 
L 148.318304 128.912348 
L 148.924908 126.78247 
L 149.531512 127.634675 
L 150.138117 128.689102 
L 150.744721 128.13792 
L 151.351325 125.715787 
L 151.957929 127.357129 
L 152.564533 126.92198 
L 153.171137 122.853989 
L 153.777742 123.769167 
L 154.384346 121.244973 
L 154.99095 124.296372 
L 155.597554 120.782646 
L 156.204158 123.380641 
L 156.810762 120.824833 
L 157.417366 120.444531 
L 158.023971 127.369376 
L 158.630575 126.405289 
L 159.237179 123.94157 
L 159.843783 126.524978 
L 160.450387 126.484114 
L 161.056991 128.843334 
L 161.663596 127.346024 
L 162.2702 129.029082 
L 162.876804 124.449537 
L 163.483408 123.640689 
L 164.090012 125.395969 
L 164.696616 121.537678 
L 165.303221 129.461067 
L 165.909825 128.717752 
L 166.516429 127.756976 
L 167.123033 129.45437 
L 167.729637 131.807734 
L 168.336241 128.608984 
L 168.942845 127.173966 
L 169.54945 128.916723 
L 170.156054 127.85514 
L 170.762658 125.526841 
L 171.369262 127.529608 
L 171.975866 126.883263 
L 172.58247 131.565639 
L 173.189075 127.107163 
L 173.795679 129.246237 
L 174.402283 126.8542 
L 175.008887 122.14718 
L 175.615491 124.554599 
L 176.222095 123.193943 
L 176.8287 126.22619 
L 177.435304 126.663789 
L 178.041908 124.731362 
L 178.648512 127.250877 
L 179.255116 123.741222 
L 179.86172 124.527376 
L 180.468325 125.760346 
L 181.074929 128.482201 
L 182.288137 127.106575 
L 182.894741 125.961847 
L 183.501345 125.200027 
L 184.107949 124.091647 
L 184.714554 122.027516 
L 185.321158 125.304371 
L 186.534366 127.810826 
L 187.14097 126.680679 
L 187.747574 126.805292 
L 188.354179 126.688373 
L 188.960783 125.506871 
L 190.173991 125.716371 
L 190.780595 125.580908 
L 191.387199 124.430437 
L 191.993804 125.117306 
L 192.600408 123.814673 
L 193.207012 125.658897 
L 194.42022 122.649231 
L 195.026824 126.714584 
L 195.633428 126.793157 
L 196.240033 130.556805 
L 196.846637 129.72039 
L 197.453241 124.675494 
L 198.059845 123.374767 
L 198.666449 126.489527 
L 199.273053 131.78482 
L 199.879658 132.700716 
L 200.486262 131.972613 
L 201.092866 129.398853 
L 201.69947 131.560633 
L 202.306074 130.317861 
L 202.912678 130.517911 
L 203.519283 130.957407 
L 204.125887 132.597482 
L 204.732491 129.123839 
L 205.339095 123.889879 
L 205.945699 122.848484 
L 206.552303 128.350122 
L 207.158907 126.6944 
L 207.765512 125.849861 
L 208.372116 123.046366 
L 208.97872 123.615412 
L 210.191928 122.62804 
L 210.798532 123.163826 
L 211.405137 129.60532 
L 212.011741 128.53485 
L 212.618345 130.417089 
L 213.224949 130.480328 
L 213.831553 132.355339 
L 214.438157 133.150046 
L 215.044762 130.505277 
L 215.651366 131.283386 
L 216.25797 134.58428 
L 216.864574 135.047724 
L 217.471178 133.944332 
L 218.077782 131.598284 
L 218.684386 128.380201 
L 219.290991 127.106096 
L 219.897595 130.377892 
L 220.504199 127.707706 
L 221.110803 130.723147 
L 221.717407 134.88396 
L 222.324011 132.398866 
L 222.930616 132.586103 
L 223.53722 130.727598 
L 224.143824 127.143868 
L 224.750428 127.919297 
L 225.357032 131.700423 
L 225.963636 130.002188 
L 226.570241 126.290708 
L 227.176845 127.794078 
L 227.783449 129.602689 
L 228.390053 129.936681 
L 228.996657 124.820325 
L 229.603261 125.104178 
L 230.209865 124.905158 
L 231.423074 129.253578 
L 232.029678 127.003746 
L 232.636282 127.193237 
L 233.242886 128.813224 
L 233.84949 129.53132 
L 234.456095 131.223349 
L 235.062699 129.747469 
L 235.669303 130.169012 
L 236.275907 128.769161 
L 236.882511 128.195658 
L 237.489115 131.20678 
L 238.09572 130.895833 
L 238.702324 129.944573 
L 239.915532 121.22213 
L 240.522136 117.476476 
L 241.735344 126.182745 
L 242.341949 128.207226 
L 242.948553 126.566584 
L 243.555157 127.814396 
L 244.161761 131.255068 
L 244.768365 132.832099 
L 245.374969 133.114807 
L 245.981574 132.662464 
L 246.588178 132.040961 
L 247.194782 129.535255 
L 247.801386 131.500917 
L 248.40799 131.652868 
L 249.014594 131.341708 
L 250.227803 128.120886 
L 250.834407 124.457698 
L 251.441011 123.50945 
L 252.047615 120.556592 
L 252.654219 121.707132 
L 253.260823 123.306905 
L 253.867428 124.549176 
L 254.474032 125.238425 
L 255.080636 124.888194 
L 255.68724 124.958923 
L 256.293844 126.280498 
L 256.900448 125.631555 
L 257.507053 129.417691 
L 258.113657 130.441122 
L 258.720261 128.419555 
L 259.326865 128.382862 
L 259.933469 128.032308 
L 260.540073 127.146404 
L 261.146678 125.343043 
L 261.753282 126.871408 
L 262.359886 128.063439 
L 262.96649 130.595367 
L 263.573094 128.280071 
L 264.179698 130.660066 
L 264.786302 126.658003 
L 265.392907 126.977842 
L 265.999511 127.892128 
L 266.606115 128.122605 
L 267.212719 125.224655 
L 267.819323 126.245603 
L 268.425927 129.44381 
L 269.032532 129.614404 
L 269.639136 128.577894 
L 270.24574 122.830763 
L 270.852344 123.628212 
L 271.458948 127.756152 
L 272.065552 129.27921 
L 272.672157 130.139433 
L 273.278761 133.108654 
L 273.885365 132.583269 
L 274.491969 132.502776 
L 275.705177 132.953434 
L 276.311781 127.145292 
L 276.918386 131.923489 
L 277.52499 132.944216 
L 278.131594 137.571234 
L 278.738198 138.823092 
L 279.344802 139.621657 
L 279.951406 134.774555 
L 280.558011 136.779583 
L 281.164615 137.912851 
L 281.771219 136.888806 
L 282.377823 134.457534 
L 283.591031 130.526773 
L 284.197636 130.737137 
L 284.80424 136.756939 
L 285.410844 135.934717 
L 286.017448 135.523984 
L 286.624052 135.74666 
L 287.230656 134.626866 
L 287.83726 134.939668 
L 288.443865 134.237697 
L 289.050469 133.783364 
L 289.657073 134.99571 
L 290.263677 134.400488 
L 290.870281 134.198172 
L 291.476885 133.871247 
L 292.08349 131.531997 
L 292.690094 131.626313 
L 293.296698 136.784943 
L 293.903302 136.356606 
L 294.509906 131.401451 
L 295.11651 133.520738 
L 295.723115 132.700691 
L 296.329719 128.355555 
L 296.936323 126.675854 
L 297.542927 127.945834 
L 298.149531 132.273084 
L 298.756135 133.93023 
L 299.36274 130.346321 
L 299.969344 127.859352 
L 300.575948 131.024104 
L 301.182552 130.063802 
L 301.789156 135.695121 
L 302.39576 140.136749 
L 303.002364 139.559342 
L 303.608969 138.244961 
L 304.215573 138.346511 
L 304.822177 134.619954 
L 305.428781 135.885005 
L 306.035385 134.472225 
L 306.641989 135.109673 
L 307.248594 137.03744 
L 307.855198 140.734894 
L 308.461802 140.338194 
L 309.068406 141.552513 
L 309.67501 137.535791 
L 310.281614 138.204652 
L 310.888219 137.025136 
L 311.494823 135.143281 
L 312.101427 132.618394 
L 312.708031 131.060455 
L 313.314635 128.817327 
L 313.921239 128.239145 
L 314.527843 129.97657 
L 315.134448 129.568855 
L 315.741052 130.805742 
L 316.347656 130.651636 
L 317.560864 128.507611 
L 318.167468 131.75988 
L 318.774073 132.57532 
L 319.380677 130.905173 
L 319.987281 127.760527 
L 321.200489 129.035313 
L 321.807093 130.447351 
L 322.413698 129.913609 
L 323.020302 128.715448 
L 323.626906 131.353743 
L 324.840114 132.957616 
L 325.446718 131.21699 
L 326.053322 129.9314 
L 326.659927 125.572843 
L 327.266531 129.78973 
L 327.873135 132.397807 
L 328.479739 131.263561 
L 329.086343 132.892389 
L 329.692947 137.254598 
L 330.299552 139.461014 
L 330.906156 142.160347 
L 331.51276 143.98899 
L 332.119364 141.264464 
L 332.725968 140.736945 
L 333.332572 141.40163 
L 333.939177 143.043348 
L 334.545781 141.38934 
L 335.152385 143.682964 
L 335.758989 140.488491 
L 336.365593 139.827471 
L 336.972197 140.675578 
L 337.578801 141.243689 
L 338.185406 144.015147 
L 338.79201 143.483256 
L 339.398614 143.700536 
L 340.005218 141.930649 
L 340.611822 142.57456 
L 341.825031 137.919729 
L 342.431635 139.991606 
L 343.038239 141.019963 
L 343.644843 137.819232 
L 344.251447 136.969852 
L 344.858051 135.715227 
L 345.464656 139.109859 
L 346.07126 138.641028 
L 346.677864 138.493151 
L 347.284468 136.716429 
L 347.891072 139.32088 
L 348.497676 138.336527 
L 349.10428 138.85369 
L 349.710885 141.211102 
L 350.317489 139.110776 
L 350.924093 139.509008 
L 351.530697 139.562872 
L 352.137301 140.515253 
L 352.743905 140.219125 
L 353.35051 140.681519 
L 354.563718 142.152045 
L 355.170322 140.707503 
L 357.596739 133.505232 
L 358.203343 132.154667 
L 358.809947 129.795575 
L 359.416551 131.216037 
L 360.023155 130.048163 
L 360.629759 130.848155 
L 361.236364 135.816113 
L 361.842968 137.061613 
L 362.449572 138.588719 
L 362.449572 138.588719 
" clip-path="url(#pcbc12765f0)" style="fill: none; stroke: #d62728; stroke-width: 1.5; stroke-linecap: square"/>
   </g>
   <g id="patch_3">
    <path d="M 70.4 305.131875 
L 70.4 27.931875 
" style="fill: none; stroke: #000000; stroke-width: 0.8; stroke-linejoin: miter; stroke-linecap: square"/>
   </g>
   <g id="patch_4">
    <path d="M 516.8 305.131875 
L 516.8 27.931875 
" style="fill: none; stroke: #000000; stroke-width: 0.8; stroke-linejoin: miter; stroke-linecap: square"/>
   </g>
   <g id="patch_5">
    <path d="M 70.4 305.131875 
L 516.8 305.131875 
" style="fill: none; stroke: #000000; stroke-width: 0.8; stroke-linejoin: miter; stroke-linecap: square"/>
   </g>
   <g id="patch_6">
    <path d="M 70.4 27.931875 
L 516.8 27.931875 
" style="fill: none; stroke: #000000; stroke-width: 0.8; stroke-linejoin: miter; stroke-linecap: square"/>
   </g>
   <g id="text_18">
    <!-- ML10 Meta Test Average  Return -->
    <g transform="translate(146.326813 21.931875)scale(0.216 -0.216)">
     <defs>
      <path id="STIXGeneral-Regular-4d" d="M 5530 0 
L 3738 0 
L 3738 122 
Q 4115 147 4214 265 
Q 4314 384 4314 787 
L 4314 3661 
L 2682 0 
L 2592 0 
L 979 3514 
L 979 966 
Q 979 448 1088 294 
Q 1197 141 1574 122 
L 1574 0 
L 77 0 
L 77 122 
Q 358 141 480 205 
Q 602 269 650 432 
Q 698 595 698 966 
L 698 3514 
Q 698 3878 589 3984 
Q 480 4090 90 4115 
L 90 4237 
L 1357 4237 
L 2835 1024 
L 4250 4237 
L 5523 4237 
L 5523 4115 
Q 5178 4109 5072 3993 
Q 4966 3878 4966 3520 
L 4966 717 
Q 4966 378 5072 262 
Q 5178 147 5530 122 
L 5530 0 
z
" transform="scale(0.015625)"/>
      <path id="STIXGeneral-Regular-4c" d="M 3827 1114 
L 3520 0 
L 77 0 
L 77 122 
Q 429 141 531 256 
Q 634 371 634 736 
L 634 3494 
Q 634 3872 541 3981 
Q 448 4090 77 4115 
L 77 4237 
L 1888 4237 
L 1888 4115 
Q 1498 4090 1392 3984 
Q 1286 3878 1286 3507 
L 1286 538 
Q 1286 358 1398 304 
Q 1510 250 1862 250 
L 2310 250 
Q 3085 250 3392 640 
Q 3520 813 3661 1114 
L 3827 1114 
z
" transform="scale(0.015625)"/>
      <path id="STIXGeneral-Regular-54" d="M 3795 3149 
L 3642 3149 
Q 3539 3674 3353 3821 
Q 3168 3968 2656 3968 
L 2278 3968 
L 2278 710 
Q 2278 346 2387 243 
Q 2496 141 2893 122 
L 2893 0 
L 1024 0 
L 1024 122 
Q 1427 147 1526 256 
Q 1626 365 1626 787 
L 1626 3968 
L 1242 3968 
Q 723 3968 540 3817 
Q 358 3667 262 3149 
L 109 3149 
L 154 4237 
L 3750 4237 
L 3795 3149 
z
" transform="scale(0.015625)"/>
      <path id="STIXGeneral-Regular-73" d="M 998 1926 
L 1664 1523 
Q 1984 1331 2105 1164 
Q 2227 998 2227 736 
Q 2227 416 1961 176 
Q 1696 -64 1331 -64 
Q 1030 -64 864 -6 
Q 691 51 570 51 
Q 461 51 416 -26 
L 333 -26 
L 333 979 
L 435 979 
Q 538 512 730 294 
Q 922 77 1248 77 
Q 1485 77 1632 211 
Q 1779 346 1779 550 
Q 1779 845 1440 1030 
L 1094 1222 
Q 326 1651 326 2150 
Q 326 2522 566 2730 
Q 806 2938 1210 2938 
Q 1491 2938 1638 2867 
Q 1754 2816 1818 2816 
Q 1862 2816 1920 2880 
L 1990 2880 
L 2022 2010 
L 1926 2010 
Q 1818 2445 1654 2621 
Q 1491 2797 1203 2797 
Q 986 2797 854 2688 
Q 723 2579 723 2362 
Q 723 2253 796 2128 
Q 870 2003 998 1926 
z
" transform="scale(0.015625)"/>
     </defs>
     <use xlink:href="#STIXGeneral-Regular-4d"/>
     <use xlink:href="#STIXGeneral-Regular-4c" x="88.899994"/>
     <use xlink:href="#STIXGeneral-Regular-31" x="149.999985"/>
     <use xlink:href="#STIXGeneral-Regular-30" x="199.999969"/>
     <use xlink:href="#STIXGeneral-Regular-20" x="249.999954"/>
     <use xlink:href="#STIXGeneral-Regular-4d" x="274.999939"/>
     <use xlink:href="#STIXGeneral-Regular-65" x="363.899933"/>
     <use xlink:href="#STIXGeneral-Regular-74" x="408.299927"/>
     <use xlink:href="#STIXGeneral-Regular-61" x="436.099915"/>
     <use xlink:href="#STIXGeneral-Regular-20" x="480.499908"/>
     <use xlink:href="#STIXGeneral-Regular-54" x="505.499893"/>
     <use xlink:href="#STIXGeneral-Regular-65" x="566.599884"/>
     <use xlink:href="#STIXGeneral-Regular-73" x="610.999878"/>
     <use xlink:href="#STIXGeneral-Regular-74" x="649.899872"/>
     <use xlink:href="#STIXGeneral-Regular-20" x="677.69986"/>
     <use xlink:href="#STIXGeneral-Regular-41" x="702.699844"/>
     <use xlink:href="#STIXGeneral-Regular-76" x="774.899826"/>
     <use xlink:href="#STIXGeneral-Regular-65" x="824.899811"/>
     <use xlink:href="#STIXGeneral-Regular-72" x="869.299805"/>
     <use xlink:href="#STIXGeneral-Regular-61" x="902.599792"/>
     <use xlink:href="#STIXGeneral-Regular-67" x="946.999786"/>
     <use xlink:href="#STIXGeneral-Regular-65" x="996.999771"/>
     <use xlink:href="#STIXGeneral-Regular-20" x="1041.399765"/>
     <use xlink:href="#STIXGeneral-Regular-20" x="1066.39975"/>
     <use xlink:href="#STIXGeneral-Regular-52" x="1091.399734"/>
     <use xlink:href="#STIXGeneral-Regular-65" x="1158.099731"/>
     <use xlink:href="#STIXGeneral-Regular-74" x="1202.499725"/>
     <use xlink:href="#STIXGeneral-Regular-75" x="1230.299713"/>
     <use xlink:href="#STIXGeneral-Regular-72" x="1280.299698"/>
     <use xlink:href="#STIXGeneral-Regular-6e" x="1313.599686"/>
    </g>
   </g>
   <g id="legend_1">
    <g id="patch_7">
     <path d="M 419.94625 298.131875 
L 507 298.131875 
Q 509.8 298.131875 509.8 295.331875 
L 509.8 217.378125 
Q 509.8 214.578125 507 214.578125 
L 419.94625 214.578125 
Q 417.14625 214.578125 417.14625 217.378125 
L 417.14625 295.331875 
Q 417.14625 298.131875 419.94625 298.131875 
z
" style="fill: #ffffff; opacity: 0.8; stroke: #cccccc; stroke-linejoin: miter"/>
    </g>
    <g id="line2d_35">
     <path d="M 422.74625 225.078125 
L 436.74625 225.078125 
L 450.74625 225.078125 
" style="fill: none; stroke: #1f77b4; stroke-width: 1.5; stroke-linecap: square"/>
    </g>
    <g id="text_19">
     <!-- eps=10 -->
     <g transform="translate(461.94625 229.978125)scale(0.14 -0.14)">
      <defs>
       <path id="STIXGeneral-Regular-3d" d="M 4077 2048 
L 307 2048 
L 307 2470 
L 4077 2470 
L 4077 2048 
z
M 4077 768 
L 307 768 
L 307 1190 
L 4077 1190 
L 4077 768 
z
" transform="scale(0.015625)"/>
      </defs>
      <use xlink:href="#STIXGeneral-Regular-65"/>
      <use xlink:href="#STIXGeneral-Regular-70" x="44.399994"/>
      <use xlink:href="#STIXGeneral-Regular-73" x="94.399979"/>
      <use xlink:href="#STIXGeneral-Regular-3d" x="133.299973"/>
      <use xlink:href="#STIXGeneral-Regular-31" x="201.799957"/>
      <use xlink:href="#STIXGeneral-Regular-30" x="251.799942"/>
     </g>
    </g>
    <g id="line2d_36">
     <path d="M 422.74625 244.916562 
L 436.74625 244.916562 
L 450.74625 244.916562 
" style="fill: none; stroke: #ff7f0e; stroke-width: 1.5; stroke-linecap: square"/>
    </g>
    <g id="text_20">
     <!-- eps=20 -->
     <g transform="translate(461.94625 249.816563)scale(0.14 -0.14)">
      <use xlink:href="#STIXGeneral-Regular-65"/>
      <use xlink:href="#STIXGeneral-Regular-70" x="44.399994"/>
      <use xlink:href="#STIXGeneral-Regular-73" x="94.399979"/>
      <use xlink:href="#STIXGeneral-Regular-3d" x="133.299973"/>
      <use xlink:href="#STIXGeneral-Regular-32" x="201.799957"/>
      <use xlink:href="#STIXGeneral-Regular-30" x="251.799942"/>
     </g>
    </g>
    <g id="line2d_37">
     <path d="M 422.74625 264.755 
L 436.74625 264.755 
L 450.74625 264.755 
" style="fill: none; stroke: #2ca02c; stroke-width: 1.5; stroke-linecap: square"/>
    </g>
    <g id="text_21">
     <!-- eps=45 -->
     <g transform="translate(461.94625 269.655)scale(0.14 -0.14)">
      <use xlink:href="#STIXGeneral-Regular-65"/>
      <use xlink:href="#STIXGeneral-Regular-70" x="44.399994"/>
      <use xlink:href="#STIXGeneral-Regular-73" x="94.399979"/>
      <use xlink:href="#STIXGeneral-Regular-3d" x="133.299973"/>
      <use xlink:href="#STIXGeneral-Regular-34" x="201.799957"/>
      <use xlink:href="#STIXGeneral-Regular-35" x="251.799942"/>
     </g>
    </g>
    <g id="line2d_38">
     <path d="M 422.74625 284.593438 
L 436.74625 284.593438 
L 450.74625 284.593438 
" style="fill: none; stroke: #d62728; stroke-width: 1.5; stroke-linecap: square"/>
    </g>
    <g id="text_22">
     <!-- eps=60 -->
     <g transform="translate(461.94625 289.493438)scale(0.14 -0.14)">
      <use xlink:href="#STIXGeneral-Regular-65"/>
      <use xlink:href="#STIXGeneral-Regular-70" x="44.399994"/>
      <use xlink:href="#STIXGeneral-Regular-73" x="94.399979"/>
      <use xlink:href="#STIXGeneral-Regular-3d" x="133.299973"/>
      <use xlink:href="#STIXGeneral-Regular-36" x="201.799957"/>
      <use xlink:href="#STIXGeneral-Regular-30" x="251.799942"/>
     </g>
    </g>
   </g>
  </g>
 </g>
 <defs>
  <clipPath id="pcbc12765f0">
   <rect x="70.4" y="27.931875" width="446.4" height="277.2"/>
  </clipPath>
 </defs>
</svg>
