<?xml version="1.0" encoding="utf-8" standalone="no"?>
<!DOCTYPE svg PUBLIC "-//W3C//DTD SVG 1.1//EN"
  "http://www.w3.org/Graphics/SVG/1.1/DTD/svg11.dtd">
<svg xmlns:xlink="http://www.w3.org/1999/xlink" width="524pt" height="355.731875pt" viewBox="0 0 524 355.731875" xmlns="http://www.w3.org/2000/svg" version="1.1">
 <metadata>
  <rdf:RDF xmlns:dc="http://purl.org/dc/elements/1.1/" xmlns:cc="http://creativecommons.org/ns#" xmlns:rdf="http://www.w3.org/1999/02/22-rdf-syntax-ns#">
   <cc:Work>
    <dc:type rdf:resource="http://purl.org/dc/dcmitype/StillImage"/>
    <dc:date>2021-12-11T12:12:18.513872</dc:date>
    <dc:format>image/svg+xml</dc:format>
    <dc:creator>
     <cc:Agent>
      <dc:title>Matplotlib v3.5.0, https://matplotlib.org/</dc:title>
     </cc:Agent>
    </dc:creator>
   </cc:Work>
  </rdf:RDF>
 </metadata>
 <defs>
  <style type="text/css">*{stroke-linejoin: round; stroke-linecap: butt}</style>
 </defs>
 <g id="figure_1">
  <g id="patch_1">
   <path d="M 0 355.731875 
L 524 355.731875 
L 524 0 
L 0 0 
z
" style="fill: #ffffff"/>
  </g>
  <g id="axes_1">
   <g id="patch_2">
    <path d="M 70.4 305.131875 
L 516.8 305.131875 
L 516.8 27.931875 
L 70.4 27.931875 
z
" style="fill: #ffffff"/>
   </g>
   <g id="matplotlib.axis_1">
    <g id="xtick_1">
     <g id="line2d_1">
      <path d="M 90.690909 305.131875 
L 90.690909 27.931875 
" clip-path="url(#p963ed2802f)" style="fill: none; stroke: #b0b0b0; stroke-width: 0.8; stroke-linecap: square"/>
     </g>
     <g id="line2d_2">
      <defs>
       <path id="m3f55cb746e" d="M 0 0 
L 0 3.5 
" style="stroke: #000000; stroke-width: 0.8"/>
      </defs>
      <g>
       <use xlink:href="#m3f55cb746e" x="90.690909" y="305.131875" style="stroke: #000000; stroke-width: 0.8"/>
      </g>
     </g>
     <g id="text_1">
      <!-- 0 -->
      <g transform="translate(86.190909 324.425313)scale(0.18 -0.18)">
       <defs>
        <path id="STIXGeneral-Regular-30" d="M 3046 2112 
Q 3046 1683 2963 1302 
Q 2880 922 2717 602 
Q 2554 282 2266 96 
Q 1978 -90 1600 -90 
Q 1210 -90 915 108 
Q 621 307 461 640 
Q 301 973 227 1350 
Q 154 1728 154 2150 
Q 154 2746 301 3222 
Q 448 3699 790 4012 
Q 1133 4326 1626 4326 
Q 2253 4326 2649 3712 
Q 3046 3098 3046 2112 
z
M 2432 2080 
Q 2432 3091 2217 3625 
Q 2003 4160 1587 4160 
Q 1190 4160 979 3622 
Q 768 3085 768 2106 
Q 768 1120 979 598 
Q 1190 77 1600 77 
Q 2003 77 2217 598 
Q 2432 1120 2432 2080 
z
" transform="scale(0.015625)"/>
       </defs>
       <use xlink:href="#STIXGeneral-Regular-30"/>
      </g>
     </g>
    </g>
    <g id="xtick_2">
     <g id="line2d_3">
      <path d="M 168.285208 305.131875 
L 168.285208 27.931875 
" clip-path="url(#p963ed2802f)" style="fill: none; stroke: #b0b0b0; stroke-width: 0.8; stroke-linecap: square"/>
     </g>
     <g id="line2d_4">
      <g>
       <use xlink:href="#m3f55cb746e" x="168.285208" y="305.131875" style="stroke: #000000; stroke-width: 0.8"/>
      </g>
     </g>
     <g id="text_2">
      <!-- 100 -->
      <g transform="translate(154.785208 324.425313)scale(0.18 -0.18)">
       <defs>
        <path id="STIXGeneral-Regular-31" d="M 2522 0 
L 755 0 
L 755 96 
Q 1107 115 1235 227 
Q 1363 339 1363 608 
L 1363 3482 
Q 1363 3795 1171 3795 
Q 1082 3795 883 3718 
L 710 3654 
L 710 3744 
L 1856 4326 
L 1914 4307 
L 1914 486 
Q 1914 275 2042 185 
Q 2170 96 2522 96 
L 2522 0 
z
" transform="scale(0.015625)"/>
       </defs>
       <use xlink:href="#STIXGeneral-Regular-31"/>
       <use xlink:href="#STIXGeneral-Regular-30" x="49.999985"/>
       <use xlink:href="#STIXGeneral-Regular-30" x="99.999969"/>
      </g>
     </g>
    </g>
    <g id="xtick_3">
     <g id="line2d_5">
      <path d="M 245.879506 305.131875 
L 245.879506 27.931875 
" clip-path="url(#p963ed2802f)" style="fill: none; stroke: #b0b0b0; stroke-width: 0.8; stroke-linecap: square"/>
     </g>
     <g id="line2d_6">
      <g>
       <use xlink:href="#m3f55cb746e" x="245.879506" y="305.131875" style="stroke: #000000; stroke-width: 0.8"/>
      </g>
     </g>
     <g id="text_3">
      <!-- 200 -->
      <g transform="translate(232.379506 324.425313)scale(0.18 -0.18)">
       <defs>
        <path id="STIXGeneral-Regular-32" d="M 3034 877 
L 2688 0 
L 186 0 
L 186 77 
L 1325 1286 
Q 1773 1754 1965 2144 
Q 2157 2534 2157 2950 
Q 2157 3379 1920 3616 
Q 1683 3853 1267 3853 
Q 922 3853 720 3673 
Q 518 3494 326 3021 
L 192 3053 
Q 301 3648 630 3987 
Q 960 4326 1523 4326 
Q 2054 4326 2380 4006 
Q 2707 3686 2707 3200 
Q 2707 2477 1888 1613 
L 832 486 
L 2330 486 
Q 2541 486 2665 569 
Q 2790 653 2944 915 
L 3034 877 
z
" transform="scale(0.015625)"/>
       </defs>
       <use xlink:href="#STIXGeneral-Regular-32"/>
       <use xlink:href="#STIXGeneral-Regular-30" x="49.999985"/>
       <use xlink:href="#STIXGeneral-Regular-30" x="99.999969"/>
      </g>
     </g>
    </g>
    <g id="xtick_4">
     <g id="line2d_7">
      <path d="M 323.473805 305.131875 
L 323.473805 27.931875 
" clip-path="url(#p963ed2802f)" style="fill: none; stroke: #b0b0b0; stroke-width: 0.8; stroke-linecap: square"/>
     </g>
     <g id="line2d_8">
      <g>
       <use xlink:href="#m3f55cb746e" x="323.473805" y="305.131875" style="stroke: #000000; stroke-width: 0.8"/>
      </g>
     </g>
     <g id="text_4">
      <!-- 300 -->
      <g transform="translate(309.973805 324.425313)scale(0.18 -0.18)">
       <defs>
        <path id="STIXGeneral-Regular-33" d="M 390 3264 
L 288 3290 
Q 435 3770 748 4048 
Q 1062 4326 1542 4326 
Q 1990 4326 2265 4083 
Q 2541 3840 2541 3450 
Q 2541 2925 1946 2566 
Q 2298 2413 2477 2227 
Q 2758 1914 2758 1402 
Q 2758 890 2464 506 
Q 2246 211 1840 60 
Q 1434 -90 979 -90 
Q 262 -90 262 275 
Q 262 378 339 442 
Q 416 506 525 506 
Q 685 506 915 339 
Q 1197 141 1466 141 
Q 1818 141 2058 425 
Q 2298 710 2298 1120 
Q 2298 1856 1632 2048 
Q 1434 2112 979 2112 
L 979 2202 
Q 1338 2323 1517 2432 
Q 2035 2726 2035 3290 
Q 2035 3610 1852 3776 
Q 1670 3942 1344 3942 
Q 768 3942 390 3264 
z
" transform="scale(0.015625)"/>
       </defs>
       <use xlink:href="#STIXGeneral-Regular-33"/>
       <use xlink:href="#STIXGeneral-Regular-30" x="49.999985"/>
       <use xlink:href="#STIXGeneral-Regular-30" x="99.999969"/>
      </g>
     </g>
    </g>
    <g id="xtick_5">
     <g id="line2d_9">
      <path d="M 401.068104 305.131875 
L 401.068104 27.931875 
" clip-path="url(#p963ed2802f)" style="fill: none; stroke: #b0b0b0; stroke-width: 0.8; stroke-linecap: square"/>
     </g>
     <g id="line2d_10">
      <g>
       <use xlink:href="#m3f55cb746e" x="401.068104" y="305.131875" style="stroke: #000000; stroke-width: 0.8"/>
      </g>
     </g>
     <g id="text_5">
      <!-- 400 -->
      <g transform="translate(387.568104 324.425313)scale(0.18 -0.18)">
       <defs>
        <path id="STIXGeneral-Regular-34" d="M 3027 1069 
L 2368 1069 
L 2368 0 
L 1869 0 
L 1869 1069 
L 77 1069 
L 77 1478 
L 2086 4326 
L 2368 4326 
L 2368 1478 
L 3027 1478 
L 3027 1069 
z
M 1869 1478 
L 1869 3674 
L 333 1478 
L 1869 1478 
z
" transform="scale(0.015625)"/>
       </defs>
       <use xlink:href="#STIXGeneral-Regular-34"/>
       <use xlink:href="#STIXGeneral-Regular-30" x="49.999985"/>
       <use xlink:href="#STIXGeneral-Regular-30" x="99.999969"/>
      </g>
     </g>
    </g>
    <g id="xtick_6">
     <g id="line2d_11">
      <path d="M 478.662402 305.131875 
L 478.662402 27.931875 
" clip-path="url(#p963ed2802f)" style="fill: none; stroke: #b0b0b0; stroke-width: 0.8; stroke-linecap: square"/>
     </g>
     <g id="line2d_12">
      <g>
       <use xlink:href="#m3f55cb746e" x="478.662402" y="305.131875" style="stroke: #000000; stroke-width: 0.8"/>
      </g>
     </g>
     <g id="text_6">
      <!-- 500 -->
      <g transform="translate(465.162402 324.425313)scale(0.18 -0.18)">
       <defs>
        <path id="STIXGeneral-Regular-35" d="M 2803 4358 
L 2573 3814 
Q 2534 3731 2400 3731 
L 1158 3731 
L 902 3187 
Q 1606 3053 1920 2896 
Q 2234 2739 2502 2368 
Q 2726 2061 2726 1555 
Q 2726 1094 2576 780 
Q 2426 467 2099 224 
Q 1664 -90 1011 -90 
Q 646 -90 422 19 
Q 198 128 198 307 
Q 198 550 486 550 
Q 717 550 960 352 
Q 1210 147 1414 147 
Q 1747 147 2012 480 
Q 2278 813 2278 1229 
Q 2278 1843 1850 2189 
Q 1293 2637 486 2637 
Q 410 2637 410 2688 
L 416 2720 
L 1114 4237 
L 2438 4237 
Q 2547 4237 2608 4269 
Q 2669 4301 2746 4403 
L 2803 4358 
z
" transform="scale(0.015625)"/>
       </defs>
       <use xlink:href="#STIXGeneral-Regular-35"/>
       <use xlink:href="#STIXGeneral-Regular-30" x="49.999985"/>
       <use xlink:href="#STIXGeneral-Regular-30" x="99.999969"/>
      </g>
     </g>
    </g>
    <g id="text_7">
     <!-- Epoch -->
     <g transform="translate(270.605 344.625313)scale(0.18 -0.18)">
      <defs>
       <path id="STIXGeneral-Regular-45" d="M 3821 1082 
L 3526 0 
L 77 0 
L 77 122 
Q 442 147 538 252 
Q 634 358 634 730 
L 634 3520 
Q 634 3878 534 3987 
Q 435 4096 77 4115 
L 77 4237 
L 3469 4237 
L 3494 3322 
L 3334 3322 
Q 3264 3750 3085 3872 
Q 2906 3994 2349 3994 
L 1510 3994 
Q 1370 3994 1328 3952 
Q 1286 3910 1286 3763 
L 1286 2355 
L 2253 2355 
Q 2656 2355 2787 2470 
Q 2918 2586 2976 2970 
L 3123 2970 
L 3123 1472 
L 2976 1472 
Q 2918 1875 2790 1984 
Q 2662 2093 2253 2093 
L 1286 2093 
L 1286 538 
Q 1286 346 1420 291 
Q 1555 237 1933 237 
L 2163 237 
Q 2848 237 3136 403 
Q 3424 570 3642 1082 
L 3821 1082 
z
" transform="scale(0.015625)"/>
       <path id="STIXGeneral-Regular-70" d="M 1018 2931 
L 1018 2438 
Q 1421 2944 1939 2944 
Q 2406 2944 2707 2560 
Q 3008 2176 3008 1581 
Q 3008 883 2621 409 
Q 2234 -64 1664 -64 
Q 1466 -64 1328 -6 
Q 1190 51 1018 211 
L 1018 -794 
Q 1018 -1094 1120 -1180 
Q 1222 -1267 1581 -1274 
L 1581 -1389 
L 32 -1389 
L 32 -1280 
Q 314 -1254 397 -1171 
Q 480 -1088 480 -838 
L 480 2157 
Q 480 2381 429 2451 
Q 378 2522 218 2522 
Q 115 2522 58 2515 
L 58 2618 
Q 506 2752 979 2944 
L 1018 2931 
z
M 1018 2138 
L 1018 563 
Q 1018 422 1238 281 
Q 1459 141 1683 141 
Q 2029 141 2243 467 
Q 2458 794 2458 1325 
Q 2458 1888 2243 2224 
Q 2029 2560 1670 2560 
Q 1446 2560 1232 2419 
Q 1018 2278 1018 2138 
z
" transform="scale(0.015625)"/>
       <path id="STIXGeneral-Regular-6f" d="M 3008 1478 
Q 3008 806 2608 371 
Q 2208 -64 1568 -64 
Q 979 -64 582 368 
Q 186 800 186 1459 
Q 186 2125 582 2534 
Q 979 2944 1626 2944 
Q 2221 2944 2614 2537 
Q 3008 2131 3008 1478 
z
M 2432 1306 
Q 2432 2035 2112 2445 
Q 1856 2765 1504 2765 
Q 1171 2765 966 2493 
Q 762 2221 762 1747 
Q 762 928 1101 435 
Q 1318 115 1677 115 
Q 2029 115 2230 432 
Q 2432 749 2432 1306 
z
" transform="scale(0.015625)"/>
       <path id="STIXGeneral-Regular-63" d="M 2547 998 
L 2637 941 
Q 2362 403 2112 205 
Q 1786 -64 1376 -64 
Q 845 -64 502 336 
Q 160 736 160 1357 
Q 160 2170 698 2618 
Q 1094 2944 1562 2944 
Q 1965 2944 2256 2749 
Q 2547 2554 2547 2285 
Q 2547 2176 2457 2096 
Q 2368 2016 2246 2016 
Q 2022 2016 1939 2310 
L 1901 2451 
Q 1850 2630 1773 2694 
Q 1696 2758 1523 2758 
Q 1133 2758 893 2451 
Q 653 2144 653 1645 
Q 653 1094 928 745 
Q 1203 397 1645 397 
Q 1920 397 2118 528 
Q 2317 659 2547 998 
z
" transform="scale(0.015625)"/>
       <path id="STIXGeneral-Regular-68" d="M 3117 0 
L 1760 0 
L 1760 96 
Q 2042 128 2118 224 
Q 2195 320 2195 653 
L 2195 1920 
Q 2195 2598 1722 2598 
Q 1530 2598 1370 2508 
Q 1210 2419 1005 2195 
L 1005 653 
Q 1005 320 1081 224 
Q 1158 128 1440 96 
L 1440 0 
L 58 0 
L 58 96 
Q 333 134 400 224 
Q 467 314 467 653 
L 467 3667 
Q 467 3872 406 3933 
Q 346 3994 141 3994 
Q 83 3994 64 3987 
L 64 4090 
L 237 4141 
Q 730 4288 973 4371 
L 1005 4352 
L 1005 2406 
Q 1229 2694 1446 2819 
Q 1664 2944 1946 2944 
Q 2733 2944 2733 1926 
L 2733 653 
Q 2733 320 2793 233 
Q 2854 147 3117 96 
L 3117 0 
z
" transform="scale(0.015625)"/>
      </defs>
      <use xlink:href="#STIXGeneral-Regular-45"/>
      <use xlink:href="#STIXGeneral-Regular-70" x="61.099991"/>
      <use xlink:href="#STIXGeneral-Regular-6f" x="111.099976"/>
      <use xlink:href="#STIXGeneral-Regular-63" x="161.09996"/>
      <use xlink:href="#STIXGeneral-Regular-68" x="205.499954"/>
     </g>
    </g>
   </g>
   <g id="matplotlib.axis_2">
    <g id="ytick_1">
     <g id="line2d_13">
      <path d="M 70.4 289.775177 
L 516.8 289.775177 
" clip-path="url(#p963ed2802f)" style="fill: none; stroke: #b0b0b0; stroke-width: 0.8; stroke-linecap: square"/>
     </g>
     <g id="line2d_14">
      <defs>
       <path id="m1bc0c74dab" d="M 0 0 
L -3.5 0 
" style="stroke: #000000; stroke-width: 0.8"/>
      </defs>
      <g>
       <use xlink:href="#m1bc0c74dab" x="70.4" y="289.775177" style="stroke: #000000; stroke-width: 0.8"/>
      </g>
     </g>
     <g id="text_8">
      <!-- 200 -->
      <g transform="translate(36.4 295.921896)scale(0.18 -0.18)">
       <use xlink:href="#STIXGeneral-Regular-32"/>
       <use xlink:href="#STIXGeneral-Regular-30" x="49.999985"/>
       <use xlink:href="#STIXGeneral-Regular-30" x="99.999969"/>
      </g>
     </g>
    </g>
    <g id="ytick_2">
     <g id="line2d_15">
      <path d="M 70.4 248.789326 
L 516.8 248.789326 
" clip-path="url(#p963ed2802f)" style="fill: none; stroke: #b0b0b0; stroke-width: 0.8; stroke-linecap: square"/>
     </g>
     <g id="line2d_16">
      <g>
       <use xlink:href="#m1bc0c74dab" x="70.4" y="248.789326" style="stroke: #000000; stroke-width: 0.8"/>
      </g>
     </g>
     <g id="text_9">
      <!-- 400 -->
      <g transform="translate(36.4 254.936045)scale(0.18 -0.18)">
       <use xlink:href="#STIXGeneral-Regular-34"/>
       <use xlink:href="#STIXGeneral-Regular-30" x="49.999985"/>
       <use xlink:href="#STIXGeneral-Regular-30" x="99.999969"/>
      </g>
     </g>
    </g>
    <g id="ytick_3">
     <g id="line2d_17">
      <path d="M 70.4 207.803476 
L 516.8 207.803476 
" clip-path="url(#p963ed2802f)" style="fill: none; stroke: #b0b0b0; stroke-width: 0.8; stroke-linecap: square"/>
     </g>
     <g id="line2d_18">
      <g>
       <use xlink:href="#m1bc0c74dab" x="70.4" y="207.803476" style="stroke: #000000; stroke-width: 0.8"/>
      </g>
     </g>
     <g id="text_10">
      <!-- 600 -->
      <g transform="translate(36.4 213.950194)scale(0.18 -0.18)">
       <defs>
        <path id="STIXGeneral-Regular-36" d="M 2854 4378 
L 2867 4275 
Q 2112 4154 1606 3664 
Q 1101 3174 973 2451 
Q 1344 2739 1786 2739 
Q 2349 2739 2672 2380 
Q 2995 2022 2995 1402 
Q 2995 774 2669 378 
Q 2291 -90 1651 -90 
Q 870 -90 518 557 
Q 218 1107 218 1786 
Q 218 2835 915 3552 
Q 1312 3962 1731 4131 
Q 2150 4301 2854 4378 
z
M 2419 1203 
Q 2419 2445 1555 2445 
Q 1235 2445 1024 2275 
Q 813 2106 813 1702 
Q 813 954 1046 522 
Q 1280 90 1722 90 
Q 2061 90 2240 394 
Q 2419 698 2419 1203 
z
" transform="scale(0.015625)"/>
       </defs>
       <use xlink:href="#STIXGeneral-Regular-36"/>
       <use xlink:href="#STIXGeneral-Regular-30" x="49.999985"/>
       <use xlink:href="#STIXGeneral-Regular-30" x="99.999969"/>
      </g>
     </g>
    </g>
    <g id="ytick_4">
     <g id="line2d_19">
      <path d="M 70.4 166.817625 
L 516.8 166.817625 
" clip-path="url(#p963ed2802f)" style="fill: none; stroke: #b0b0b0; stroke-width: 0.8; stroke-linecap: square"/>
     </g>
     <g id="line2d_20">
      <g>
       <use xlink:href="#m1bc0c74dab" x="70.4" y="166.817625" style="stroke: #000000; stroke-width: 0.8"/>
      </g>
     </g>
     <g id="text_11">
      <!-- 800 -->
      <g transform="translate(36.4 172.964343)scale(0.18 -0.18)">
       <defs>
        <path id="STIXGeneral-Regular-38" d="M 2848 992 
Q 2848 499 2505 204 
Q 2163 -90 1587 -90 
Q 1050 -90 704 204 
Q 358 499 358 954 
Q 358 1293 524 1533 
Q 691 1773 1190 2125 
Q 710 2522 553 2765 
Q 397 3008 397 3328 
Q 397 3782 745 4054 
Q 1094 4326 1638 4326 
Q 2106 4326 2410 4060 
Q 2714 3795 2714 3411 
Q 2714 3059 2531 2848 
Q 2349 2637 1856 2374 
Q 2432 1990 2640 1689 
Q 2848 1389 2848 992 
z
M 2272 3411 
Q 2272 3744 2086 3945 
Q 1901 4147 1574 4147 
Q 1248 4147 1059 3977 
Q 870 3808 870 3513 
Q 870 3219 1059 2979 
Q 1248 2739 1670 2490 
Q 1997 2682 2134 2896 
Q 2272 3110 2272 3411 
z
M 1734 1741 
L 1357 1997 
Q 1075 1766 960 1545 
Q 845 1325 845 1011 
Q 845 576 1065 333 
Q 1286 90 1658 90 
Q 1971 90 2166 285 
Q 2362 480 2362 794 
Q 2362 1082 2214 1299 
Q 2067 1517 1734 1741 
z
" transform="scale(0.015625)"/>
       </defs>
       <use xlink:href="#STIXGeneral-Regular-38"/>
       <use xlink:href="#STIXGeneral-Regular-30" x="49.999985"/>
       <use xlink:href="#STIXGeneral-Regular-30" x="99.999969"/>
      </g>
     </g>
    </g>
    <g id="ytick_5">
     <g id="line2d_21">
      <path d="M 70.4 125.831774 
L 516.8 125.831774 
" clip-path="url(#p963ed2802f)" style="fill: none; stroke: #b0b0b0; stroke-width: 0.8; stroke-linecap: square"/>
     </g>
     <g id="line2d_22">
      <g>
       <use xlink:href="#m1bc0c74dab" x="70.4" y="125.831774" style="stroke: #000000; stroke-width: 0.8"/>
      </g>
     </g>
     <g id="text_12">
      <!-- 1000 -->
      <g transform="translate(27.4 131.978493)scale(0.18 -0.18)">
       <use xlink:href="#STIXGeneral-Regular-31"/>
       <use xlink:href="#STIXGeneral-Regular-30" x="49.999985"/>
       <use xlink:href="#STIXGeneral-Regular-30" x="99.999969"/>
       <use xlink:href="#STIXGeneral-Regular-30" x="149.999954"/>
      </g>
     </g>
    </g>
    <g id="ytick_6">
     <g id="line2d_23">
      <path d="M 70.4 84.845923 
L 516.8 84.845923 
" clip-path="url(#p963ed2802f)" style="fill: none; stroke: #b0b0b0; stroke-width: 0.8; stroke-linecap: square"/>
     </g>
     <g id="line2d_24">
      <g>
       <use xlink:href="#m1bc0c74dab" x="70.4" y="84.845923" style="stroke: #000000; stroke-width: 0.8"/>
      </g>
     </g>
     <g id="text_13">
      <!-- 1200 -->
      <g transform="translate(27.4 90.992642)scale(0.18 -0.18)">
       <use xlink:href="#STIXGeneral-Regular-31"/>
       <use xlink:href="#STIXGeneral-Regular-32" x="49.999985"/>
       <use xlink:href="#STIXGeneral-Regular-30" x="99.999969"/>
       <use xlink:href="#STIXGeneral-Regular-30" x="149.999954"/>
      </g>
     </g>
    </g>
    <g id="ytick_7">
     <g id="line2d_25">
      <path d="M 70.4 43.860072 
L 516.8 43.860072 
" clip-path="url(#p963ed2802f)" style="fill: none; stroke: #b0b0b0; stroke-width: 0.8; stroke-linecap: square"/>
     </g>
     <g id="line2d_26">
      <g>
       <use xlink:href="#m1bc0c74dab" x="70.4" y="43.860072" style="stroke: #000000; stroke-width: 0.8"/>
      </g>
     </g>
     <g id="text_14">
      <!-- 1400 -->
      <g transform="translate(27.4 50.006791)scale(0.18 -0.18)">
       <use xlink:href="#STIXGeneral-Regular-31"/>
       <use xlink:href="#STIXGeneral-Regular-34" x="49.999985"/>
       <use xlink:href="#STIXGeneral-Regular-30" x="99.999969"/>
       <use xlink:href="#STIXGeneral-Regular-30" x="149.999954"/>
      </g>
     </g>
    </g>
    <g id="text_15">
     <!-- Average Return -->
     <g transform="translate(19.476562 223.764844)rotate(-90)scale(0.18 -0.18)">
      <defs>
       <path id="STIXGeneral-Regular-41" d="M 4525 0 
L 2893 0 
L 2893 122 
Q 3149 122 3245 179 
Q 3334 224 3334 333 
Q 3334 499 3213 781 
L 2950 1382 
L 1274 1382 
L 979 653 
Q 922 506 922 384 
Q 922 237 1027 179 
Q 1133 122 1370 122 
L 1370 0 
L 96 0 
L 96 122 
Q 365 147 486 316 
Q 608 486 902 1190 
L 2221 4314 
L 2349 4314 
L 3923 710 
Q 4064 378 4176 262 
Q 4288 147 4525 122 
L 4525 0 
z
M 2861 1645 
L 2118 3405 
L 1382 1645 
L 2861 1645 
z
" transform="scale(0.015625)"/>
       <path id="STIXGeneral-Regular-76" d="M 3053 2880 
L 3053 2784 
Q 2906 2771 2835 2688 
Q 2765 2605 2637 2285 
L 1818 230 
Q 1690 -90 1638 -90 
Q 1587 -90 1523 77 
Q 1510 96 1497 141 
Q 1485 186 1472 211 
L 704 2048 
Q 499 2534 403 2652 
Q 307 2771 122 2784 
L 122 2880 
L 1376 2880 
L 1376 2784 
Q 1210 2771 1146 2732 
Q 1082 2694 1082 2611 
Q 1082 2509 1139 2368 
L 1792 730 
L 2426 2387 
Q 2464 2483 2464 2579 
Q 2464 2758 2163 2784 
L 2163 2880 
L 3053 2880 
z
" transform="scale(0.015625)"/>
       <path id="STIXGeneral-Regular-65" d="M 2611 1050 
L 2714 1005 
Q 2330 -64 1376 -64 
Q 813 -64 486 329 
Q 160 723 160 1389 
Q 160 2074 525 2509 
Q 890 2944 1485 2944 
Q 2061 2944 2374 2502 
Q 2560 2246 2592 1773 
L 621 1773 
Q 646 1370 700 1158 
Q 755 947 915 730 
Q 1184 378 1626 378 
Q 1939 378 2153 531 
Q 2368 685 2611 1050 
z
M 634 1978 
L 1939 1978 
Q 1882 2381 1750 2547 
Q 1619 2714 1312 2714 
Q 1043 2714 864 2525 
Q 685 2336 634 1978 
z
" transform="scale(0.015625)"/>
       <path id="STIXGeneral-Regular-72" d="M 1024 2931 
L 1024 2342 
Q 1267 2688 1430 2816 
Q 1594 2944 1792 2944 
Q 1958 2944 2051 2854 
Q 2144 2765 2144 2605 
Q 2144 2470 2077 2393 
Q 2010 2317 1894 2317 
Q 1773 2317 1638 2445 
Q 1536 2541 1472 2541 
Q 1338 2541 1181 2355 
Q 1024 2170 1024 2016 
L 1024 576 
Q 1024 301 1133 205 
Q 1242 109 1568 96 
L 1568 0 
L 32 0 
L 32 96 
Q 339 154 412 224 
Q 486 294 486 538 
L 486 2138 
Q 486 2349 438 2435 
Q 390 2522 269 2522 
Q 166 2522 45 2496 
L 45 2598 
Q 448 2726 992 2944 
L 1024 2931 
z
" transform="scale(0.015625)"/>
       <path id="STIXGeneral-Regular-61" d="M 2829 422 
L 2829 243 
Q 2586 -64 2253 -64 
Q 1888 -64 1843 403 
L 1837 403 
Q 1427 -64 909 -64 
Q 608 -64 422 112 
Q 237 288 237 602 
Q 237 1050 685 1350 
Q 992 1555 1837 1869 
L 1837 2214 
Q 1837 2502 1699 2646 
Q 1562 2790 1338 2790 
Q 1146 2790 1018 2697 
Q 890 2605 890 2477 
Q 890 2419 909 2348 
Q 928 2278 928 2208 
Q 928 2112 841 2029 
Q 755 1946 634 1946 
Q 525 1946 441 2029 
Q 358 2112 358 2240 
Q 358 2547 685 2752 
Q 986 2944 1421 2944 
Q 1939 2944 2176 2656 
Q 2291 2522 2323 2384 
Q 2355 2246 2355 1946 
L 2355 723 
Q 2355 301 2554 301 
Q 2682 301 2829 422 
z
M 1837 813 
L 1837 1715 
Q 1248 1510 1018 1293 
Q 800 1094 800 800 
Q 800 557 921 432 
Q 1043 307 1242 307 
Q 1453 307 1613 410 
Q 1747 506 1792 589 
Q 1837 672 1837 813 
z
" transform="scale(0.015625)"/>
       <path id="STIXGeneral-Regular-67" d="M 3008 2483 
L 2477 2483 
Q 2598 2208 2598 1946 
Q 2598 1453 2265 1203 
Q 1933 954 1600 954 
Q 1530 954 1357 973 
L 1235 986 
Q 1107 947 979 812 
Q 851 678 851 582 
Q 851 435 1350 410 
L 2176 371 
Q 2528 358 2739 172 
Q 2950 -13 2950 -314 
Q 2950 -685 2566 -986 
Q 2035 -1395 1286 -1395 
Q 826 -1395 502 -1212 
Q 179 -1030 179 -774 
Q 179 -595 320 -419 
Q 461 -243 806 6 
Q 602 102 534 172 
Q 467 243 467 346 
Q 467 531 762 787 
Q 909 915 1037 1043 
Q 717 1203 579 1401 
Q 442 1600 442 1901 
Q 442 2336 752 2640 
Q 1062 2944 1510 2944 
Q 1766 2944 2022 2848 
L 2163 2797 
Q 2349 2733 2515 2733 
L 3008 2733 
L 3008 2483 
z
M 973 2163 
L 973 2144 
Q 973 1683 1155 1398 
Q 1338 1114 1632 1114 
Q 1850 1114 1978 1270 
Q 2106 1427 2106 1690 
Q 2106 2112 1914 2464 
Q 1754 2765 1446 2765 
Q 1222 2765 1097 2605 
Q 973 2445 973 2163 
z
M 2771 -410 
Q 2771 -230 2595 -163 
Q 2419 -96 1978 -96 
Q 1344 -96 941 -13 
Q 749 -243 688 -348 
Q 627 -454 627 -563 
Q 627 -774 880 -902 
Q 1133 -1030 1555 -1030 
Q 2099 -1030 2435 -860 
Q 2771 -691 2771 -410 
z
" transform="scale(0.015625)"/>
       <path id="STIXGeneral-Regular-20" transform="scale(0.015625)"/>
       <path id="STIXGeneral-Regular-52" d="M 4224 0 
L 3187 0 
L 1664 1971 
L 1306 1958 
L 1306 717 
Q 1306 352 1405 249 
Q 1504 147 1875 122 
L 1875 0 
L 109 0 
L 109 122 
Q 474 154 563 262 
Q 653 371 653 794 
L 653 3526 
Q 653 3885 563 3987 
Q 474 4090 109 4115 
L 109 4237 
L 1850 4237 
Q 2726 4237 3187 3859 
Q 3501 3603 3501 3091 
Q 3501 2221 2342 2042 
L 3622 422 
Q 3757 256 3878 198 
Q 4000 141 4224 122 
L 4224 0 
z
M 1306 3731 
L 1306 2195 
Q 1766 2202 1990 2246 
Q 2214 2291 2438 2413 
Q 2803 2618 2803 3142 
Q 2803 4000 1632 4000 
Q 1459 4000 1382 3945 
Q 1306 3891 1306 3731 
z
" transform="scale(0.015625)"/>
       <path id="STIXGeneral-Regular-74" d="M 1702 493 
L 1786 422 
Q 1478 -64 1011 -64 
Q 448 -64 448 749 
L 448 2675 
L 109 2675 
Q 83 2694 83 2720 
Q 83 2771 192 2842 
Q 435 2982 813 3526 
Q 826 3546 874 3606 
Q 922 3667 941 3706 
Q 986 3706 986 3622 
L 986 2880 
L 1632 2880 
L 1632 2675 
L 986 2675 
L 986 845 
Q 986 538 1062 403 
Q 1139 269 1318 269 
Q 1510 269 1702 493 
z
" transform="scale(0.015625)"/>
       <path id="STIXGeneral-Regular-75" d="M 3072 320 
L 3072 230 
Q 2573 96 2195 -58 
L 2163 -38 
L 2163 486 
L 2150 486 
Q 1747 -64 1235 -64 
Q 870 -64 662 160 
Q 454 384 454 755 
L 454 2362 
Q 454 2598 371 2688 
Q 288 2778 58 2790 
L 58 2880 
L 992 2880 
L 992 813 
Q 992 595 1123 451 
Q 1254 307 1446 307 
Q 1760 307 1984 506 
Q 2067 582 2099 649 
Q 2131 717 2131 877 
L 2131 2355 
Q 2131 2605 2041 2678 
Q 1952 2752 1658 2771 
L 1658 2880 
L 2669 2880 
L 2669 685 
Q 2669 461 2742 390 
Q 2816 320 3034 320 
L 3072 320 
z
" transform="scale(0.015625)"/>
       <path id="STIXGeneral-Regular-6e" d="M 3104 0 
L 1773 0 
L 1779 96 
Q 2016 115 2096 233 
Q 2176 352 2176 672 
L 2176 1946 
Q 2176 2592 1709 2592 
Q 1549 2592 1408 2515 
Q 1267 2438 1050 2227 
L 1050 461 
Q 1050 269 1136 192 
Q 1222 115 1466 96 
L 1466 0 
L 115 0 
L 115 96 
Q 358 115 435 214 
Q 512 314 512 602 
L 512 2157 
Q 512 2394 467 2483 
Q 422 2573 288 2573 
Q 160 2573 102 2547 
L 102 2656 
Q 550 2784 979 2944 
L 1030 2925 
L 1030 2426 
L 1037 2426 
Q 1491 2944 1958 2944 
Q 2323 2944 2518 2688 
Q 2714 2432 2714 1958 
L 2714 544 
Q 2714 288 2790 205 
Q 2867 122 3104 96 
L 3104 0 
z
" transform="scale(0.015625)"/>
      </defs>
      <use xlink:href="#STIXGeneral-Regular-41"/>
      <use xlink:href="#STIXGeneral-Regular-76" x="72.199982"/>
      <use xlink:href="#STIXGeneral-Regular-65" x="122.199966"/>
      <use xlink:href="#STIXGeneral-Regular-72" x="166.59996"/>
      <use xlink:href="#STIXGeneral-Regular-61" x="199.899948"/>
      <use xlink:href="#STIXGeneral-Regular-67" x="244.299942"/>
      <use xlink:href="#STIXGeneral-Regular-65" x="294.299927"/>
      <use xlink:href="#STIXGeneral-Regular-20" x="338.699921"/>
      <use xlink:href="#STIXGeneral-Regular-52" x="363.699905"/>
      <use xlink:href="#STIXGeneral-Regular-65" x="430.399902"/>
      <use xlink:href="#STIXGeneral-Regular-74" x="474.799896"/>
      <use xlink:href="#STIXGeneral-Regular-75" x="502.599884"/>
      <use xlink:href="#STIXGeneral-Regular-72" x="552.599869"/>
      <use xlink:href="#STIXGeneral-Regular-6e" x="585.899857"/>
     </g>
    </g>
   </g>
   <g id="line2d_27">
    <path d="M 90.690909 279.579672 
L 91.466852 280.110962 
L 92.242795 276.486186 
L 93.018738 275.716292 
L 93.794681 263.528479 
L 94.570624 236.483284 
L 95.346567 226.401472 
L 96.12251 202.457428 
L 96.898453 197.411926 
L 98.450339 171.987555 
L 99.226282 160.4334 
L 101.554111 148.875209 
L 102.330054 138.707045 
L 103.105997 132.391737 
L 103.88194 139.710393 
L 104.657883 140.758137 
L 105.433826 140.502722 
L 106.209769 135.228092 
L 106.985712 124.941847 
L 107.761655 128.253502 
L 108.537598 132.254871 
L 109.313541 135.226847 
L 110.089484 140.004036 
L 110.865427 143.732813 
L 111.64137 142.324135 
L 112.417313 141.922753 
L 113.193256 141.092407 
L 113.969199 145.06546 
L 114.745142 142.429585 
L 115.521085 140.357556 
L 116.297028 140.075305 
L 117.072971 143.523141 
L 117.848914 142.076985 
L 118.624857 137.209484 
L 119.4008 129.877876 
L 120.176743 119.924098 
L 120.952686 113.50619 
L 121.728629 111.520852 
L 122.504572 113.424551 
L 123.280515 114.500438 
L 124.056458 117.430532 
L 124.8324 114.361163 
L 125.608343 131.318954 
L 126.384286 136.181713 
L 127.160229 137.982029 
L 127.936172 135.192508 
L 128.712115 131.92459 
L 129.488058 126.347593 
L 130.264001 127.939955 
L 131.039944 119.65705 
L 131.815887 117.911231 
L 132.59183 104.604086 
L 133.367773 95.122856 
L 134.143716 83.101583 
L 134.919659 78.993608 
L 135.695602 76.383881 
L 136.471545 78.512676 
L 137.247488 76.817858 
L 138.023431 80.956669 
L 138.799374 80.603256 
L 139.575317 84.54656 
L 140.35126 93.395401 
L 141.127203 100.34549 
L 141.903146 100.59289 
L 142.679089 102.079954 
L 143.455032 97.608269 
L 144.230975 96.329584 
L 145.006918 99.898408 
L 145.782861 104.839298 
L 146.558804 104.489551 
L 147.334747 102.961512 
L 148.11069 102.036503 
L 149.662576 99.415788 
L 150.438519 103.952089 
L 151.214462 99.447362 
L 151.990405 90.522251 
L 152.766348 95.720941 
L 153.542291 91.535868 
L 154.318234 91.497733 
L 155.094177 87.888121 
L 155.87012 79.497937 
L 156.646063 72.786489 
L 157.422006 75.857997 
L 158.197949 80.673928 
L 158.973892 80.067541 
L 159.749835 83.977694 
L 160.525778 72.384795 
L 161.301721 72.097291 
L 162.077664 74.786133 
L 162.853607 79.680058 
L 163.62955 79.42607 
L 164.405493 79.353838 
L 165.181436 79.798437 
L 165.957379 69.524938 
L 166.733322 65.012461 
L 167.509265 62.442891 
L 169.061151 55.993196 
L 169.837094 57.9478 
L 170.613037 61.77978 
L 171.38898 70.045051 
L 172.164923 70.143548 
L 172.940866 70.921879 
L 173.716809 69.919051 
L 174.492752 62.621271 
L 175.268695 65.903565 
L 176.044638 62.185474 
L 176.820581 67.733666 
L 177.596524 68.242903 
L 179.14841 56.363233 
L 179.924353 56.020256 
L 180.700295 58.12742 
L 182.252181 74.107449 
L 183.028124 68.970169 
L 184.58001 73.614594 
L 185.355953 70.971995 
L 186.131896 72.65935 
L 186.907839 67.448388 
L 187.683782 70.521611 
L 188.459725 71.086288 
L 189.235668 75.08031 
L 190.011611 73.590441 
L 190.787554 72.342397 
L 191.563497 78.417465 
L 192.33944 70.19586 
L 193.115383 66.370707 
L 193.891326 64.942871 
L 194.667269 62.716026 
L 195.443212 59.550305 
L 196.219155 60.781427 
L 196.995098 59.629918 
L 197.771041 60.585281 
L 198.546984 59.120993 
L 199.322927 55.196029 
L 200.09887 48.501074 
L 200.874813 45.557897 
L 201.650756 46.081796 
L 202.426699 49.285798 
L 203.978585 57.034721 
L 204.754528 53.632289 
L 205.530471 54.228083 
L 207.082357 46.120382 
L 207.8583 43.243964 
L 208.634243 48.572452 
L 209.410186 48.380028 
L 210.186129 48.063106 
L 210.962072 47.274745 
L 211.738015 51.408385 
L 212.513958 77.368178 
L 214.065844 109.226668 
L 214.841787 111.17483 
L 215.61773 103.094243 
L 216.393673 101.521567 
L 217.169616 114.196661 
L 217.945559 99.868313 
L 218.721502 95.547332 
L 219.497445 95.063243 
L 220.273388 90.083061 
L 221.049331 87.86727 
L 221.825274 86.052338 
L 222.601217 82.297408 
L 223.37716 79.830585 
L 224.153103 82.728343 
L 225.704989 75.108309 
L 226.480932 78.010218 
L 227.256875 82.436297 
L 228.032818 76.754566 
L 228.808761 72.000088 
L 229.584704 74.965242 
L 230.360647 71.120106 
L 231.13659 84.097175 
L 231.912533 101.093085 
L 232.688476 110.44849 
L 233.464419 122.43041 
L 234.240362 129.791325 
L 235.016305 130.869088 
L 235.792248 124.90182 
L 236.568191 113.466334 
L 237.344133 109.93093 
L 238.120076 99.502118 
L 238.896019 98.551998 
L 239.671962 95.002878 
L 241.223848 86.215628 
L 241.999791 86.833832 
L 242.775734 86.590646 
L 243.551677 85.799098 
L 244.32762 83.310749 
L 245.103563 81.721259 
L 245.879506 82.42497 
L 246.655449 78.900517 
L 247.431392 78.793432 
L 248.207335 80.0912 
L 249.759221 84.156165 
L 250.535164 82.258067 
L 251.311107 82.197718 
L 252.08705 84.480802 
L 252.862993 88.14603 
L 253.638936 86.015806 
L 254.414879 87.455086 
L 255.190822 89.241886 
L 255.966765 88.822025 
L 256.742708 91.531856 
L 257.518651 93.380045 
L 258.294594 93.64997 
L 259.070537 93.664591 
L 259.84648 92.757437 
L 260.622423 91.607152 
L 261.398366 92.551512 
L 262.950252 95.31179 
L 263.726195 95.910431 
L 264.502138 98.566455 
L 265.278081 99.339391 
L 266.054024 99.072782 
L 266.829967 100.807712 
L 268.381853 108.818319 
L 269.157796 109.61298 
L 269.933739 109.634289 
L 270.709682 111.065679 
L 271.485625 109.912284 
L 272.261568 111.778241 
L 273.037511 108.176457 
L 273.813454 109.5099 
L 274.589397 107.059866 
L 275.36534 105.81776 
L 276.141283 103.458488 
L 276.917226 105.133734 
L 277.693169 104.230549 
L 278.469112 106.650845 
L 279.245055 106.334488 
L 280.020998 107.131906 
L 280.796941 109.245098 
L 281.572884 110.526782 
L 282.348827 110.126475 
L 283.12477 111.849869 
L 284.676656 106.015204 
L 285.452599 104.475011 
L 286.228542 101.699918 
L 287.004485 97.262293 
L 287.780428 95.800285 
L 289.332314 93.798048 
L 290.108257 91.831106 
L 290.8842 93.189212 
L 291.660143 98.852193 
L 292.436086 99.491051 
L 293.212029 101.368999 
L 293.987971 99.792433 
L 294.763914 99.756867 
L 295.539857 99.973758 
L 296.3158 101.086713 
L 297.091743 98.936568 
L 297.867686 101.486473 
L 298.643629 102.353888 
L 299.419572 102.531561 
L 300.195515 101.190882 
L 300.971458 100.312398 
L 301.747401 98.689797 
L 303.299287 96.423436 
L 304.07523 99.013345 
L 304.851173 98.232348 
L 305.627116 100.406497 
L 306.403059 101.645795 
L 307.179002 100.84558 
L 307.954945 100.648529 
L 308.730888 99.352436 
L 309.506831 100.725927 
L 310.282774 100.171972 
L 311.058717 101.353154 
L 311.83466 98.063071 
L 312.610603 97.889277 
L 313.386546 99.384149 
L 314.162489 98.018695 
L 314.938432 100.188418 
L 315.714375 99.626006 
L 316.490318 101.045037 
L 317.266261 103.416224 
L 318.042204 100.270504 
L 318.818147 99.149806 
L 319.59409 97.572877 
L 320.370033 98.429637 
L 321.145976 96.881792 
L 321.921919 97.87996 
L 322.697862 97.973273 
L 323.473805 101.884281 
L 324.249748 103.041607 
L 325.025691 99.458184 
L 325.801634 97.187394 
L 326.577577 93.686451 
L 327.35352 93.354551 
L 328.129463 95.141884 
L 328.905406 95.833243 
L 329.681349 96.739829 
L 330.457292 91.945113 
L 331.233235 90.50604 
L 332.009178 89.641246 
L 332.785121 94.364716 
L 333.561064 93.80954 
L 334.337007 99.08212 
L 335.11295 103.015784 
L 335.888893 104.6912 
L 336.664836 103.255901 
L 337.440779 107.00728 
L 338.216722 108.098177 
L 338.992665 105.89152 
L 339.768608 103.304429 
L 340.544551 103.199127 
L 341.320494 104.101505 
L 342.87238 103.507204 
L 343.648323 102.701131 
L 344.424266 105.307887 
L 345.200209 105.044497 
L 345.976152 101.949792 
L 346.752095 105.3277 
L 347.528038 107.112052 
L 348.303981 113.525603 
L 349.079924 114.655449 
L 349.855867 113.524566 
L 350.631809 114.206314 
L 351.407752 112.699084 
L 352.183695 110.586765 
L 352.959638 113.245549 
L 353.735581 116.709233 
L 354.511524 117.690357 
L 355.287467 118.370919 
L 356.06341 118.830378 
L 356.839353 121.011301 
L 357.615296 120.288478 
L 358.391239 122.092591 
L 359.167182 121.031181 
L 359.943125 118.842296 
L 360.719068 117.451417 
L 361.495011 116.296016 
L 363.046897 115.259944 
L 363.82284 116.243429 
L 364.598783 113.42495 
L 365.374726 111.260434 
L 366.150669 110.696588 
L 366.926612 109.646211 
L 367.702555 112.107705 
L 368.478498 115.162497 
L 369.254441 109.671973 
L 370.030384 108.943467 
L 370.806327 109.225297 
L 371.58227 108.360732 
L 372.358213 109.196438 
L 373.134156 106.655553 
L 373.910099 106.547665 
L 374.686042 108.327796 
L 376.237928 105.078937 
L 377.013871 105.458405 
L 377.789814 102.804919 
L 378.565757 104.996504 
L 379.3417 102.164389 
L 380.117643 103.526851 
L 380.893586 104.635142 
L 381.669529 104.263192 
L 382.445472 103.047697 
L 383.221415 104.045519 
L 383.997358 104.729386 
L 384.773301 107.894403 
L 385.549244 106.376308 
L 386.325187 106.803375 
L 387.10113 108.188668 
L 387.877073 105.380168 
L 388.653016 104.796302 
L 390.204902 108.727374 
L 390.980845 107.266657 
L 391.756788 108.872653 
L 393.308674 110.684509 
L 394.084617 106.720914 
L 394.86056 107.75758 
L 395.636503 109.383293 
L 396.412446 109.050175 
L 397.188389 109.11144 
L 397.964332 110.03873 
L 398.740275 112.472398 
L 399.516218 110.63697 
L 400.292161 111.340392 
L 401.068104 108.506181 
L 402.61999 107.882841 
L 403.395933 106.79475 
L 404.171876 106.379184 
L 404.947819 106.706149 
L 406.499705 106.798587 
L 408.05159 105.148373 
L 408.827533 106.321875 
L 409.603476 106.478601 
L 410.379419 107.933915 
L 411.155362 107.716756 
L 411.931305 108.938864 
L 412.707248 107.96225 
L 413.483191 108.399117 
L 414.259134 112.699704 
L 415.035077 111.473555 
L 416.586963 110.275822 
L 417.362906 110.348794 
L 418.914792 108.867989 
L 419.690735 105.887904 
L 420.466678 104.529303 
L 421.242621 107.854464 
L 422.794507 110.136609 
L 423.57045 109.266296 
L 424.346393 110.293045 
L 425.122336 110.682112 
L 425.898279 115.199964 
L 426.674222 117.910785 
L 427.450165 120.089216 
L 428.226108 121.430552 
L 429.777994 118.560743 
L 430.553937 121.56362 
L 431.32988 120.697048 
L 432.105823 122.933443 
L 432.881766 122.964969 
L 433.657709 125.09304 
L 434.433652 122.334717 
L 435.209595 118.904864 
L 435.985538 116.178501 
L 436.761481 114.709408 
L 437.537424 113.723737 
L 438.313367 112.026586 
L 439.08931 108.136895 
L 439.865253 107.059483 
L 440.641196 109.277742 
L 441.417139 109.773821 
L 442.193082 110.032114 
L 442.969025 112.319324 
L 443.744968 113.583152 
L 444.520911 113.903713 
L 445.296854 116.670453 
L 446.072797 118.052562 
L 446.84874 118.971233 
L 447.624683 117.217863 
L 448.400626 118.842283 
L 449.952512 115.226297 
L 450.728455 112.766701 
L 451.504398 116.167324 
L 452.280341 117.547766 
L 453.056284 120.593155 
L 453.832227 123.093778 
L 454.60817 120.411804 
L 455.384113 120.561199 
L 456.935999 117.92051 
L 457.711942 120.448084 
L 458.487885 117.762317 
L 459.263828 117.616452 
L 460.039771 119.056942 
L 460.815714 122.281629 
L 461.591657 119.769807 
L 462.3676 121.627856 
L 463.143542 121.604133 
L 463.919485 120.604592 
L 464.695428 120.212649 
L 465.471371 119.982016 
L 466.247314 119.344701 
L 467.023257 121.561682 
L 467.7992 123.08882 
L 468.575143 122.215668 
L 469.351086 125.408147 
L 470.127029 126.21595 
L 470.902972 125.853533 
L 471.678915 124.543243 
L 472.454858 129.641261 
L 474.006744 128.987331 
L 474.782687 129.143748 
L 475.55863 127.658937 
L 476.334573 129.553923 
L 477.110516 130.435078 
L 477.886459 130.606786 
L 478.662402 130.302214 
L 479.438345 132.588293 
L 480.214288 133.959655 
L 480.990231 133.68486 
L 482.542117 137.016125 
L 483.31806 141.128965 
L 484.094003 140.496944 
L 484.869946 137.299049 
L 485.645889 137.536232 
L 486.421832 138.346167 
L 486.421832 138.346167 
" clip-path="url(#p963ed2802f)" style="fill: none; stroke: #1f77b4; stroke-width: 1.5; stroke-linecap: square"/>
   </g>
   <g id="line2d_28">
    <path d="M 90.690909 275.022141 
L 91.466852 276.140699 
L 93.018738 265.094795 
L 93.794681 261.582624 
L 94.570624 255.289341 
L 95.346567 207.84497 
L 96.12251 197.048573 
L 96.898453 180.101197 
L 97.674396 181.057117 
L 98.450339 188.570326 
L 99.226282 211.23301 
L 100.002225 196.748086 
L 100.778168 188.972198 
L 101.554111 199.399925 
L 102.330054 216.049937 
L 103.105997 223.06179 
L 103.88194 217.851137 
L 104.657883 220.871888 
L 106.985712 158.195558 
L 107.761655 151.0533 
L 108.537598 178.523699 
L 109.313541 191.577911 
L 110.089484 195.071362 
L 110.865427 194.966224 
L 111.64137 168.50407 
L 112.417313 158.309047 
L 113.193256 141.039179 
L 113.969199 129.024976 
L 114.745142 127.005337 
L 115.521085 135.834541 
L 116.297028 135.940335 
L 117.848914 121.764479 
L 118.624857 118.283245 
L 119.4008 131.792083 
L 120.952686 105.769524 
L 121.728629 95.374126 
L 122.504572 87.120885 
L 123.280515 82.157834 
L 124.056458 78.266927 
L 124.8324 80.420954 
L 125.608343 82.02948 
L 126.384286 78.111525 
L 127.160229 78.53047 
L 127.936172 76.733514 
L 128.712115 71.766128 
L 129.488058 70.214497 
L 130.264001 72.045011 
L 131.815887 83.465176 
L 132.59183 117.777763 
L 133.367773 127.826639 
L 134.143716 127.130072 
L 134.919659 133.667969 
L 135.695602 143.216185 
L 136.471545 150.893619 
L 137.247488 143.486001 
L 138.023431 127.619087 
L 138.799374 121.183443 
L 139.575317 112.642506 
L 140.35126 122.319659 
L 141.127203 128.820289 
L 141.903146 133.788025 
L 142.679089 145.350385 
L 143.455032 149.020159 
L 144.230975 150.521087 
L 145.006918 135.979789 
L 145.782861 136.262787 
L 146.558804 124.073865 
L 147.334747 116.618313 
L 148.11069 114.37933 
L 148.886633 108.591138 
L 149.662576 100.140482 
L 150.438519 94.526887 
L 151.214462 90.90638 
L 151.990405 90.46857 
L 152.766348 94.13227 
L 153.542291 95.087447 
L 154.318234 103.899169 
L 155.094177 110.908173 
L 155.87012 115.828417 
L 156.646063 117.980908 
L 157.422006 122.618059 
L 158.197949 123.601304 
L 158.973892 125.153068 
L 159.749835 123.888311 
L 160.525778 126.529992 
L 161.301721 124.58597 
L 162.077664 121.309511 
L 162.853607 121.703213 
L 163.62955 119.557012 
L 164.405493 119.930639 
L 165.181436 119.328465 
L 165.957379 116.974433 
L 166.733322 110.89459 
L 167.509265 108.487347 
L 168.285208 107.20002 
L 169.061151 110.576851 
L 169.837094 112.848654 
L 170.613037 111.591543 
L 173.716809 112.306411 
L 174.492752 111.970972 
L 175.268695 109.800167 
L 176.044638 103.746146 
L 176.820581 105.468031 
L 177.596524 101.327779 
L 178.372467 103.112501 
L 179.14841 106.393958 
L 179.924353 109.127204 
L 180.700295 113.067613 
L 181.476238 119.285909 
L 182.252181 118.176314 
L 183.804067 114.688092 
L 184.58001 116.929217 
L 186.131896 120.442716 
L 186.907839 116.146349 
L 187.683782 114.944488 
L 188.459725 111.663116 
L 189.235668 106.546307 
L 190.011611 97.535375 
L 190.787554 85.856949 
L 192.33944 83.831957 
L 193.891326 89.48199 
L 194.667269 87.064298 
L 195.443212 81.369045 
L 196.219155 77.679332 
L 196.995098 76.787137 
L 197.771041 79.448087 
L 198.546984 77.305528 
L 199.322927 78.337364 
L 200.09887 77.076961 
L 200.874813 79.345286 
L 201.650756 79.89581 
L 202.426699 82.413424 
L 203.202642 86.235571 
L 203.978585 88.276469 
L 205.530471 85.02252 
L 206.306414 84.005794 
L 207.082357 83.646117 
L 207.8583 80.377775 
L 208.634243 76.237336 
L 209.410186 65.173831 
L 210.186129 59.828643 
L 210.962072 56.031989 
L 212.513958 40.531875 
L 213.289901 45.748474 
L 214.065844 43.646434 
L 214.841787 41.958821 
L 215.61773 45.363329 
L 216.393673 41.320015 
L 217.169616 44.309032 
L 217.945559 51.800567 
L 218.721502 57.826303 
L 219.497445 62.885385 
L 220.273388 65.111864 
L 221.049331 70.958476 
L 221.825274 78.244857 
L 222.601217 79.99194 
L 223.37716 74.528893 
L 224.153103 70.875588 
L 224.929046 72.979104 
L 225.704989 77.119319 
L 226.480932 82.53965 
L 227.256875 82.863391 
L 228.032818 80.238138 
L 228.808761 80.087925 
L 229.584704 77.928241 
L 230.360647 72.257132 
L 231.13659 68.342313 
L 231.912533 65.900023 
L 232.688476 62.80415 
L 233.464419 62.522841 
L 234.240362 62.652394 
L 235.792248 79.593931 
L 236.568191 78.390103 
L 237.344133 79.704131 
L 238.120076 74.367275 
L 238.896019 72.174797 
L 239.671962 75.383705 
L 240.447905 74.614049 
L 241.223848 72.754454 
L 241.999791 78.605031 
L 242.775734 78.953933 
L 243.551677 77.589022 
L 244.32762 78.762371 
L 245.103563 81.532504 
L 246.655449 78.922689 
L 247.431392 79.900445 
L 248.207335 83.461634 
L 248.983278 84.242863 
L 249.759221 88.020317 
L 250.535164 88.651419 
L 251.311107 84.044865 
L 252.08705 80.705049 
L 252.862993 78.805126 
L 253.638936 78.188081 
L 254.414879 80.075869 
L 255.190822 82.473419 
L 255.966765 83.78559 
L 256.742708 82.056565 
L 257.518651 81.154575 
L 258.294594 77.822311 
L 259.070537 76.625329 
L 259.84648 79.397431 
L 260.622423 77.700313 
L 261.398366 73.558782 
L 262.174309 72.402051 
L 262.950252 75.06574 
L 263.726195 82.233487 
L 264.502138 84.241809 
L 265.278081 86.56953 
L 266.054024 85.56742 
L 266.829967 87.847441 
L 267.60591 87.744316 
L 268.381853 83.917516 
L 269.157796 84.583475 
L 269.933739 83.770505 
L 270.709682 86.374583 
L 271.485625 87.656924 
L 272.261568 89.288071 
L 273.037511 89.954033 
L 273.813454 89.237035 
L 274.589397 88.056133 
L 275.36534 91.744245 
L 276.141283 92.60509 
L 276.917226 95.547967 
L 277.693169 96.074181 
L 278.469112 95.85187 
L 279.245055 97.950742 
L 280.020998 97.923453 
L 280.796941 96.675994 
L 281.572884 98.849971 
L 282.348827 91.963021 
L 283.12477 90.719143 
L 283.900713 87.810102 
L 284.676656 89.766242 
L 285.452599 88.589033 
L 286.228542 89.117657 
L 287.004485 88.912742 
L 287.780428 87.391591 
L 288.556371 87.354232 
L 289.332314 83.231331 
L 290.108257 83.655358 
L 290.8842 78.168643 
L 291.660143 75.71099 
L 292.436086 76.742049 
L 293.212029 72.626678 
L 293.987971 72.012146 
L 294.763914 68.506988 
L 295.539857 65.985609 
L 296.3158 66.86254 
L 297.867686 60.157989 
L 298.643629 60.474904 
L 299.419572 65.810768 
L 300.971458 74.774245 
L 301.747401 69.193235 
L 302.523344 73.005055 
L 303.299287 73.071157 
L 304.07523 70.097807 
L 304.851173 74.222604 
L 305.627116 73.50723 
L 306.403059 70.861388 
L 307.179002 66.9877 
L 308.730888 62.002684 
L 309.506831 61.082446 
L 310.282774 63.873642 
L 311.058717 65.369797 
L 311.83466 70.752298 
L 312.610603 74.741278 
L 313.386546 71.55998 
L 314.162489 69.453527 
L 314.938432 70.946664 
L 315.714375 75.999438 
L 316.490318 75.725447 
L 317.266261 79.838831 
L 318.042204 79.257998 
L 319.59409 80.931276 
L 321.145976 78.530764 
L 321.921919 79.398751 
L 322.697862 78.569483 
L 323.473805 77.541247 
L 324.249748 78.934493 
L 325.025691 81.327243 
L 325.801634 84.262348 
L 327.35352 78.212803 
L 328.129463 75.637713 
L 328.905406 73.561024 
L 330.457292 66.967579 
L 331.233235 72.305423 
L 332.009178 78.82246 
L 332.785121 83.643386 
L 333.561064 85.013802 
L 334.337007 85.543787 
L 335.11295 84.235732 
L 335.888893 84.662754 
L 336.664836 81.700877 
L 337.440779 81.264647 
L 338.216722 79.535143 
L 339.768608 81.061457 
L 341.320494 87.683472 
L 342.096437 91.920341 
L 342.87238 93.170467 
L 343.648323 96.730035 
L 344.424266 99.478552 
L 345.200209 100.558173 
L 345.976152 102.588718 
L 346.752095 102.906847 
L 347.528038 106.57867 
L 348.303981 106.215245 
L 349.079924 105.359147 
L 349.855867 106.102101 
L 350.631809 107.133123 
L 351.407752 106.213686 
L 352.183695 107.896473 
L 352.959638 107.163556 
L 353.735581 104.2254 
L 354.511524 102.029503 
L 355.287467 101.926972 
L 356.06341 101.120573 
L 356.839353 103.5953 
L 357.615296 104.268754 
L 359.167182 102.896799 
L 359.943125 101.387801 
L 360.719068 104.623604 
L 361.495011 100.239466 
L 362.270954 97.253849 
L 363.046897 96.421974 
L 363.82284 97.446521 
L 364.598783 97.077268 
L 365.374726 97.395596 
L 366.150669 93.132324 
L 366.926612 94.345179 
L 367.702555 91.378282 
L 368.478498 87.477276 
L 370.030384 81.580287 
L 370.806327 85.75395 
L 371.58227 86.625518 
L 372.358213 89.228761 
L 373.910099 84.771839 
L 374.686042 87.439696 
L 375.461985 86.347342 
L 376.237928 87.84805 
L 377.013871 88.064103 
L 377.789814 92.70484 
L 378.565757 90.306343 
L 379.3417 88.631436 
L 380.117643 82.26482 
L 380.893586 81.337265 
L 381.669529 90.253787 
L 383.221415 100.474291 
L 383.997358 99.89345 
L 384.773301 98.783506 
L 385.549244 95.703146 
L 386.325187 96.437129 
L 387.10113 93.768488 
L 387.877073 93.150143 
L 388.653016 88.878756 
L 389.428959 86.182179 
L 390.980845 94.849948 
L 391.756788 91.244417 
L 392.532731 86.131829 
L 393.308674 79.685715 
L 394.084617 79.150909 
L 394.86056 76.477001 
L 395.636503 72.928931 
L 396.412446 71.328562 
L 397.188389 71.869737 
L 397.964332 76.159203 
L 398.740275 77.391777 
L 399.516218 75.837965 
L 400.292161 77.164922 
L 401.068104 75.33388 
L 401.844047 77.491778 
L 402.61999 78.229406 
L 404.171876 84.660176 
L 404.947819 83.233658 
L 405.723762 82.42923 
L 406.499705 86.227573 
L 407.275647 88.679028 
L 408.05159 89.156744 
L 408.827533 87.845846 
L 409.603476 86.913015 
L 410.379419 85.455441 
L 411.155362 82.977935 
L 411.931305 81.166876 
L 412.707248 84.780526 
L 413.483191 89.624013 
L 415.035077 95.617895 
L 415.81102 95.542206 
L 416.586963 91.901015 
L 417.362906 93.610616 
L 418.138849 92.407601 
L 418.914792 86.360243 
L 419.690735 78.688779 
L 420.466678 81.20571 
L 421.242621 78.315534 
L 422.018564 79.096705 
L 422.794507 79.267799 
L 423.57045 76.053974 
L 424.346393 80.092833 
L 425.122336 81.496735 
L 426.674222 86.073544 
L 427.450165 82.137373 
L 428.226108 82.825654 
L 429.002051 82.90312 
L 430.553937 85.172577 
L 431.32988 85.621481 
L 432.105823 85.211945 
L 432.881766 83.117958 
L 433.657709 84.301564 
L 434.433652 84.433644 
L 435.209595 85.776739 
L 435.985538 86.327144 
L 436.761481 83.608455 
L 437.537424 84.832382 
L 438.313367 87.177794 
L 440.641196 98.137687 
L 441.417139 98.789326 
L 442.193082 97.23227 
L 442.969025 94.449071 
L 443.744968 93.808751 
L 444.520911 94.343838 
L 445.296854 95.070086 
L 446.072797 93.145937 
L 446.84874 94.196228 
L 447.624683 94.089888 
L 448.400626 94.983407 
L 450.728455 101.988737 
L 452.280341 98.033397 
L 453.056284 98.598831 
L 453.832227 102.140481 
L 454.60817 101.034193 
L 455.384113 99.549403 
L 456.160056 101.49943 
L 456.935999 99.949691 
L 457.711942 101.356992 
L 458.487885 102.005179 
L 459.263828 103.197267 
L 460.039771 102.077503 
L 460.815714 99.218075 
L 461.591657 97.427421 
L 462.3676 99.057684 
L 463.143542 98.958052 
L 463.919485 99.821806 
L 464.695428 102.719218 
L 465.471371 99.082566 
L 466.247314 102.999821 
L 467.023257 105.340418 
L 467.7992 103.050887 
L 468.575143 106.76989 
L 469.351086 106.597796 
L 470.127029 104.580232 
L 470.902972 104.325196 
L 471.678915 104.570516 
L 472.454858 101.74063 
L 473.230801 99.455708 
L 474.006744 103.739852 
L 474.782687 104.305484 
L 475.55863 100.293619 
L 476.334573 94.994185 
L 477.110516 96.898612 
L 477.886459 97.308295 
L 478.662402 99.171416 
L 479.438345 94.619892 
L 480.214288 98.100666 
L 480.990231 99.506369 
L 481.766174 106.133639 
L 482.542117 109.672676 
L 482.542117 109.672676 
" clip-path="url(#p963ed2802f)" style="fill: none; stroke: #ff7f0e; stroke-width: 1.5; stroke-linecap: square"/>
   </g>
   <g id="line2d_29">
    <path d="M 90.690909 260.972773 
L 91.466852 265.0143 
L 92.242795 272.115418 
L 93.018738 275.307014 
L 93.794681 275.186211 
L 94.570624 277.089491 
L 95.346567 280.345654 
L 96.898453 283.837651 
L 97.674396 284.606999 
L 98.450339 284.859095 
L 99.226282 286.449576 
L 100.002225 287.334361 
L 100.778168 288.689425 
L 101.554111 291.312664 
L 102.330054 292.531875 
L 103.105997 290.062359 
L 103.88194 289.696189 
L 104.657883 285.993835 
L 105.433826 285.474882 
L 106.209769 283.305218 
L 106.985712 282.015646 
L 107.761655 282.876724 
L 108.537598 282.030929 
L 109.313541 282.011531 
L 110.089484 282.980829 
L 110.865427 280.268988 
L 111.64137 279.074562 
L 112.417313 278.347007 
L 113.193256 276.11667 
L 113.969199 274.646788 
L 114.745142 274.070051 
L 115.521085 274.672992 
L 116.297028 273.531844 
L 117.072971 274.882679 
L 117.848914 273.346137 
L 118.624857 278.463206 
L 119.4008 279.802954 
L 120.176743 283.457784 
L 120.952686 285.539238 
L 121.728629 284.548718 
L 122.504572 283.075859 
L 123.280515 281.115185 
L 124.056458 280.304189 
L 124.8324 283.975105 
L 125.608343 286.078541 
L 126.384286 287.636893 
L 127.160229 285.245799 
L 127.936172 284.702323 
L 128.712115 282.409624 
L 129.488058 283.209373 
L 130.264001 278.046382 
L 131.039944 278.022981 
L 131.815887 277.471469 
L 133.367773 282.426472 
L 134.143716 280.36182 
L 134.919659 279.25521 
L 135.695602 280.017177 
L 136.471545 282.3249 
L 137.247488 280.762202 
L 138.023431 281.651472 
L 138.799374 281.658846 
L 139.575317 284.635384 
L 140.35126 284.266871 
L 141.127203 284.760888 
L 141.903146 285.832893 
L 142.679089 283.552329 
L 143.455032 285.781234 
L 144.230975 285.143216 
L 145.006918 286.969203 
L 145.782861 286.587222 
L 146.558804 282.950984 
L 147.334747 281.067001 
L 148.11069 273.665822 
L 148.886633 264.491773 
L 149.662576 272.81294 
L 150.438519 276.600247 
L 151.214462 265.000621 
L 151.990405 260.210737 
L 152.766348 263.14888 
L 153.542291 262.042143 
L 154.318234 260.552996 
L 155.094177 240.686045 
L 155.87012 244.805922 
L 156.646063 240.218613 
L 157.422006 256.706632 
L 158.197949 263.944024 
L 158.973892 264.898 
L 159.749835 265.178757 
L 160.525778 263.264425 
L 161.301721 264.279152 
L 162.077664 266.448696 
L 162.853607 263.790927 
L 163.62955 257.078871 
L 164.405493 244.114062 
L 165.181436 216.032236 
L 165.957379 220.866072 
L 166.733322 228.755725 
L 167.509265 225.534385 
L 168.285208 220.988692 
L 169.061151 223.06285 
L 169.837094 219.403257 
L 170.613037 210.462382 
L 171.38898 202.984454 
L 172.164923 203.353319 
L 172.940866 198.798076 
L 173.716809 191.719049 
L 175.268695 169.548562 
L 176.820581 156.539958 
L 177.596524 161.077464 
L 178.372467 161.044579 
L 179.14841 157.638823 
L 179.924353 150.153096 
L 181.476238 146.17041 
L 182.252181 153.111625 
L 183.028124 155.300212 
L 183.804067 152.353043 
L 184.58001 153.858666 
L 185.355953 146.037577 
L 186.131896 150.631026 
L 186.907839 150.202206 
L 187.683782 150.670417 
L 188.459725 160.428461 
L 189.235668 157.239488 
L 190.011611 160.243361 
L 190.787554 164.103142 
L 191.563497 158.143516 
L 192.33944 153.335709 
L 193.115383 149.731386 
L 193.891326 140.128414 
L 195.443212 139.191337 
L 196.219155 139.252961 
L 196.995098 141.913035 
L 197.771041 142.092801 
L 198.546984 138.477382 
L 200.09887 121.264559 
L 200.874813 122.156175 
L 201.650756 126.276861 
L 202.426699 131.836455 
L 203.202642 127.933501 
L 203.978585 136.310144 
L 204.754528 140.291015 
L 205.530471 129.122132 
L 206.306414 129.051864 
L 207.082357 129.726856 
L 207.8583 142.07645 
L 208.634243 144.019814 
L 209.410186 149.074274 
L 210.186129 151.29782 
L 210.962072 152.172058 
L 211.738015 156.865885 
L 212.513958 144.069579 
L 214.065844 157.284892 
L 214.841787 155.143534 
L 215.61773 151.458461 
L 216.393673 149.446412 
L 217.169616 153.627237 
L 217.945559 142.580306 
L 218.721502 153.965765 
L 219.497445 141.254894 
L 220.273388 140.706161 
L 221.049331 160.354757 
L 221.825274 163.995655 
L 222.601217 169.294243 
L 223.37716 170.402564 
L 224.929046 150.188224 
L 225.704989 151.216653 
L 226.480932 150.332918 
L 228.032818 143.82793 
L 228.808761 142.146542 
L 229.584704 152.94171 
L 230.360647 161.504826 
L 231.13659 164.859146 
L 231.912533 170.046275 
L 232.688476 172.444402 
L 233.464419 176.300333 
L 234.240362 173.539 
L 235.016305 170.068162 
L 235.792248 170.901487 
L 236.568191 177.14386 
L 237.344133 170.20639 
L 238.120076 166.620082 
L 238.896019 169.600759 
L 239.671962 167.580999 
L 241.223848 185.696634 
L 241.999791 186.154447 
L 242.775734 189.17208 
L 243.551677 180.629905 
L 244.32762 168.838085 
L 245.879506 176.406878 
L 246.655449 182.70797 
L 247.431392 182.637086 
L 248.207335 178.590495 
L 248.983278 178.432338 
L 249.759221 179.075789 
L 250.535164 181.44575 
L 251.311107 175.461821 
L 252.862993 173.858362 
L 253.638936 174.223949 
L 254.414879 174.894846 
L 255.190822 172.190099 
L 255.966765 172.329243 
L 256.742708 166.216626 
L 257.518651 158.920176 
L 258.294594 157.969804 
L 259.070537 153.067493 
L 259.84648 154.116949 
L 260.622423 152.562494 
L 261.398366 156.0985 
L 262.174309 161.149101 
L 262.950252 160.877444 
L 263.726195 161.44321 
L 264.502138 150.119287 
L 265.278081 137.013063 
L 266.054024 128.701076 
L 266.829967 117.387883 
L 267.60591 110.747441 
L 268.381853 100.450764 
L 269.157796 87.508632 
L 269.933739 86.112189 
L 270.709682 92.773423 
L 271.485625 96.537748 
L 272.261568 94.599545 
L 273.037511 112.583445 
L 273.813454 117.921691 
L 274.589397 124.378216 
L 275.36534 135.668693 
L 276.141283 143.056912 
L 276.917226 139.143294 
L 278.469112 152.227269 
L 279.245055 157.490955 
L 280.020998 161.845391 
L 280.796941 165.088276 
L 281.572884 158.924271 
L 283.900713 129.813911 
L 285.452599 102.465569 
L 286.228542 99.00016 
L 287.004485 94.397023 
L 287.780428 92.460151 
L 288.556371 97.747115 
L 289.332314 98.980591 
L 290.108257 92.204966 
L 290.8842 92.837064 
L 291.660143 94.550154 
L 292.436086 100.999988 
L 293.212029 104.056275 
L 293.987971 112.594641 
L 294.763914 109.770603 
L 295.539857 102.122185 
L 296.3158 93.312603 
L 297.091743 100.422141 
L 298.643629 97.226846 
L 300.195515 102.854482 
L 300.971458 98.701262 
L 301.747401 105.852873 
L 302.523344 98.668681 
L 303.299287 99.420039 
L 304.07523 109.523672 
L 304.851173 112.909894 
L 305.627116 113.150198 
L 306.403059 112.781196 
L 307.179002 113.633212 
L 307.954945 111.869236 
L 308.730888 104.802301 
L 309.506831 102.794829 
L 310.282774 105.157755 
L 311.058717 97.582899 
L 311.83466 94.079102 
L 312.610603 90.048307 
L 313.386546 78.219235 
L 314.162489 77.85655 
L 314.938432 73.981021 
L 315.714375 79.86154 
L 316.490318 77.132144 
L 317.266261 77.167372 
L 318.818147 80.190788 
L 319.59409 81.897244 
L 320.370033 83.116601 
L 321.145976 83.353903 
L 321.921919 83.159252 
L 322.697862 81.001173 
L 323.473805 80.670345 
L 324.249748 76.057853 
L 325.025691 77.315747 
L 325.801634 78.839869 
L 326.577577 80.719831 
L 327.35352 78.751846 
L 328.129463 79.51413 
L 328.905406 77.170454 
L 329.681349 72.695783 
L 330.457292 69.659929 
L 331.233235 67.076576 
L 332.009178 62.182675 
L 332.785121 53.249022 
L 333.561064 52.171191 
L 334.337007 57.396146 
L 335.11295 57.121058 
L 336.664836 64.685055 
L 337.440779 64.886653 
L 338.216722 64.856486 
L 338.992665 62.295572 
L 339.768608 65.22382 
L 340.544551 67.680911 
L 341.320494 67.655179 
L 342.096437 72.338803 
L 342.87238 72.747874 
L 343.648323 74.238171 
L 344.424266 76.495229 
L 345.200209 79.971562 
L 345.976152 88.735555 
L 346.752095 95.882901 
L 347.528038 94.968688 
L 348.303981 96.125846 
L 349.079924 95.53522 
L 349.855867 97.352494 
L 350.631809 97.016889 
L 351.407752 96.369785 
L 352.183695 93.86807 
L 352.959638 96.254973 
L 353.735581 97.279187 
L 354.511524 100.099287 
L 355.287467 116.546889 
L 356.839353 135.871774 
L 357.615296 130.35892 
L 358.391239 117.49585 
L 359.167182 116.309318 
L 359.943125 118.170257 
L 360.719068 111.370662 
L 361.495011 108.105989 
L 362.270954 104.17178 
L 363.046897 96.666719 
L 363.82284 96.207423 
L 364.598783 89.477565 
L 365.374726 91.600475 
L 366.150669 94.272194 
L 366.926612 94.308486 
L 367.702555 90.735685 
L 368.478498 81.846349 
L 369.254441 81.511961 
L 370.030384 80.98097 
L 370.806327 80.260872 
L 371.58227 81.258214 
L 372.358213 84.613659 
L 373.134156 84.772936 
L 373.910099 86.475637 
L 374.686042 85.356456 
L 375.461985 84.484832 
L 376.237928 86.642618 
L 377.789814 83.51854 
L 378.565757 81.504528 
L 379.3417 85.573639 
L 380.117643 83.448196 
L 380.893586 85.190343 
L 381.669529 82.45989 
L 382.445472 81.709608 
L 383.221415 74.532866 
L 384.773301 71.358233 
L 386.325187 80.500308 
L 387.10113 87.167593 
L 387.877073 92.235617 
L 388.653016 95.617687 
L 389.428959 93.136394 
L 390.204902 93.430132 
L 390.980845 94.956387 
L 391.756788 99.074489 
L 392.532731 109.739379 
L 393.308674 118.685194 
L 394.084617 105.179225 
L 394.86056 101.943683 
L 395.636503 100.822676 
L 396.412446 94.887112 
L 397.188389 91.762699 
L 397.964332 82.565893 
L 399.516218 80.496334 
L 400.292161 95.91865 
L 401.068104 108.063212 
L 401.844047 111.743655 
L 402.61999 117.904489 
L 403.395933 121.233833 
L 404.171876 121.970734 
L 404.947819 123.759089 
L 405.723762 122.778146 
L 406.499705 128.60948 
L 407.275647 131.799605 
L 408.05159 126.267459 
L 408.827533 129.03392 
L 409.603476 130.489837 
L 410.379419 129.031632 
L 411.155362 134.548431 
L 411.931305 129.826079 
L 412.707248 122.730339 
L 413.483191 123.087561 
L 414.259134 116.643699 
L 415.035077 121.391821 
L 415.81102 114.651841 
L 416.586963 103.368116 
L 417.362906 94.258446 
L 418.138849 90.825526 
L 418.914792 86.673365 
L 419.690735 88.109014 
L 420.466678 77.761084 
L 421.242621 80.442994 
L 422.018564 71.962035 
L 422.794507 79.728008 
L 423.57045 82.568124 
L 424.346393 84.405368 
L 425.122336 80.662338 
L 425.898279 89.593119 
L 426.674222 85.967361 
L 427.450165 90.971365 
L 428.226108 84.138874 
L 429.002051 87.737605 
L 429.777994 85.596731 
L 430.553937 87.818129 
L 431.32988 88.029019 
L 432.105823 88.690371 
L 432.881766 78.93747 
L 433.657709 77.095499 
L 434.433652 74.687044 
L 435.985538 93.116269 
L 437.537424 114.88141 
L 438.313367 120.693053 
L 439.08931 128.942428 
L 439.865253 133.452531 
L 440.641196 132.119955 
L 441.417139 132.372969 
L 442.193082 128.359885 
L 442.969025 129.450706 
L 443.744968 125.167245 
L 444.520911 121.942395 
L 445.296854 124.596949 
L 446.072797 137.900408 
L 446.84874 143.430427 
L 447.624683 138.909339 
L 448.400626 138.831098 
L 449.176569 137.659864 
L 449.952512 135.734098 
L 450.728455 137.795366 
L 451.504398 136.064391 
L 452.280341 141.472862 
L 453.056284 145.315461 
L 453.832227 147.151345 
L 454.60817 151.64548 
L 455.384113 154.19841 
L 456.160056 151.789728 
L 456.935999 145.340352 
L 457.711942 143.132845 
L 458.487885 150.60605 
L 459.263828 149.075159 
L 460.039771 140.79242 
L 460.815714 130.150954 
L 462.3676 125.614172 
L 463.143542 119.950395 
L 463.919485 122.513865 
L 464.695428 127.922533 
L 465.471371 126.304996 
L 466.247314 124.316057 
L 467.023257 134.462836 
L 467.7992 135.688277 
L 468.575143 139.110441 
L 469.351086 135.458396 
L 470.127029 137.533935 
L 470.902972 144.650621 
L 471.678915 146.155384 
L 473.230801 158.999634 
L 474.006744 160.672093 
L 474.782687 155.468453 
L 475.55863 160.649066 
L 476.334573 154.058321 
L 477.110516 153.092094 
L 477.886459 159.156078 
L 478.662402 159.289143 
L 479.438345 150.533349 
L 480.214288 140.269592 
L 480.990231 135.77196 
L 481.766174 133.226708 
L 482.542117 135.976399 
L 483.31806 131.891602 
L 484.094003 147.822693 
L 484.869946 154.786901 
L 485.645889 158.743646 
L 486.421832 167.435588 
L 487.197775 169.582447 
L 487.973718 168.877106 
L 488.749661 167.726517 
L 489.525604 157.571014 
L 490.301547 138.017102 
L 491.07749 123.905114 
L 491.853433 114.466829 
L 492.629376 111.081054 
L 493.405319 100.693859 
L 494.181262 97.37626 
L 494.957205 92.604647 
L 495.733148 97.164921 
L 496.509091 91.931149 
L 496.509091 91.931149 
" clip-path="url(#p963ed2802f)" style="fill: none; stroke: #2ca02c; stroke-width: 1.5; stroke-linecap: square"/>
   </g>
   <g id="patch_3">
    <path d="M 70.4 305.131875 
L 70.4 27.931875 
" style="fill: none; stroke: #000000; stroke-width: 0.8; stroke-linejoin: miter; stroke-linecap: square"/>
   </g>
   <g id="patch_4">
    <path d="M 516.8 305.131875 
L 516.8 27.931875 
" style="fill: none; stroke: #000000; stroke-width: 0.8; stroke-linejoin: miter; stroke-linecap: square"/>
   </g>
   <g id="patch_5">
    <path d="M 70.4 305.131875 
L 516.8 305.131875 
" style="fill: none; stroke: #000000; stroke-width: 0.8; stroke-linejoin: miter; stroke-linecap: square"/>
   </g>
   <g id="patch_6">
    <path d="M 70.4 27.931875 
L 516.8 27.931875 
" style="fill: none; stroke: #000000; stroke-width: 0.8; stroke-linejoin: miter; stroke-linecap: square"/>
   </g>
   <g id="text_16">
    <!-- ML10 Meta Test Average  Return -->
    <g transform="translate(146.326813 21.931875)scale(0.216 -0.216)">
     <defs>
      <path id="STIXGeneral-Regular-4d" d="M 5530 0 
L 3738 0 
L 3738 122 
Q 4115 147 4214 265 
Q 4314 384 4314 787 
L 4314 3661 
L 2682 0 
L 2592 0 
L 979 3514 
L 979 966 
Q 979 448 1088 294 
Q 1197 141 1574 122 
L 1574 0 
L 77 0 
L 77 122 
Q 358 141 480 205 
Q 602 269 650 432 
Q 698 595 698 966 
L 698 3514 
Q 698 3878 589 3984 
Q 480 4090 90 4115 
L 90 4237 
L 1357 4237 
L 2835 1024 
L 4250 4237 
L 5523 4237 
L 5523 4115 
Q 5178 4109 5072 3993 
Q 4966 3878 4966 3520 
L 4966 717 
Q 4966 378 5072 262 
Q 5178 147 5530 122 
L 5530 0 
z
" transform="scale(0.015625)"/>
      <path id="STIXGeneral-Regular-4c" d="M 3827 1114 
L 3520 0 
L 77 0 
L 77 122 
Q 429 141 531 256 
Q 634 371 634 736 
L 634 3494 
Q 634 3872 541 3981 
Q 448 4090 77 4115 
L 77 4237 
L 1888 4237 
L 1888 4115 
Q 1498 4090 1392 3984 
Q 1286 3878 1286 3507 
L 1286 538 
Q 1286 358 1398 304 
Q 1510 250 1862 250 
L 2310 250 
Q 3085 250 3392 640 
Q 3520 813 3661 1114 
L 3827 1114 
z
" transform="scale(0.015625)"/>
      <path id="STIXGeneral-Regular-54" d="M 3795 3149 
L 3642 3149 
Q 3539 3674 3353 3821 
Q 3168 3968 2656 3968 
L 2278 3968 
L 2278 710 
Q 2278 346 2387 243 
Q 2496 141 2893 122 
L 2893 0 
L 1024 0 
L 1024 122 
Q 1427 147 1526 256 
Q 1626 365 1626 787 
L 1626 3968 
L 1242 3968 
Q 723 3968 540 3817 
Q 358 3667 262 3149 
L 109 3149 
L 154 4237 
L 3750 4237 
L 3795 3149 
z
" transform="scale(0.015625)"/>
      <path id="STIXGeneral-Regular-73" d="M 998 1926 
L 1664 1523 
Q 1984 1331 2105 1164 
Q 2227 998 2227 736 
Q 2227 416 1961 176 
Q 1696 -64 1331 -64 
Q 1030 -64 864 -6 
Q 691 51 570 51 
Q 461 51 416 -26 
L 333 -26 
L 333 979 
L 435 979 
Q 538 512 730 294 
Q 922 77 1248 77 
Q 1485 77 1632 211 
Q 1779 346 1779 550 
Q 1779 845 1440 1030 
L 1094 1222 
Q 326 1651 326 2150 
Q 326 2522 566 2730 
Q 806 2938 1210 2938 
Q 1491 2938 1638 2867 
Q 1754 2816 1818 2816 
Q 1862 2816 1920 2880 
L 1990 2880 
L 2022 2010 
L 1926 2010 
Q 1818 2445 1654 2621 
Q 1491 2797 1203 2797 
Q 986 2797 854 2688 
Q 723 2579 723 2362 
Q 723 2253 796 2128 
Q 870 2003 998 1926 
z
" transform="scale(0.015625)"/>
     </defs>
     <use xlink:href="#STIXGeneral-Regular-4d"/>
     <use xlink:href="#STIXGeneral-Regular-4c" x="88.899994"/>
     <use xlink:href="#STIXGeneral-Regular-31" x="149.999985"/>
     <use xlink:href="#STIXGeneral-Regular-30" x="199.999969"/>
     <use xlink:href="#STIXGeneral-Regular-20" x="249.999954"/>
     <use xlink:href="#STIXGeneral-Regular-4d" x="274.999939"/>
     <use xlink:href="#STIXGeneral-Regular-65" x="363.899933"/>
     <use xlink:href="#STIXGeneral-Regular-74" x="408.299927"/>
     <use xlink:href="#STIXGeneral-Regular-61" x="436.099915"/>
     <use xlink:href="#STIXGeneral-Regular-20" x="480.499908"/>
     <use xlink:href="#STIXGeneral-Regular-54" x="505.499893"/>
     <use xlink:href="#STIXGeneral-Regular-65" x="566.599884"/>
     <use xlink:href="#STIXGeneral-Regular-73" x="610.999878"/>
     <use xlink:href="#STIXGeneral-Regular-74" x="649.899872"/>
     <use xlink:href="#STIXGeneral-Regular-20" x="677.69986"/>
     <use xlink:href="#STIXGeneral-Regular-41" x="702.699844"/>
     <use xlink:href="#STIXGeneral-Regular-76" x="774.899826"/>
     <use xlink:href="#STIXGeneral-Regular-65" x="824.899811"/>
     <use xlink:href="#STIXGeneral-Regular-72" x="869.299805"/>
     <use xlink:href="#STIXGeneral-Regular-61" x="902.599792"/>
     <use xlink:href="#STIXGeneral-Regular-67" x="946.999786"/>
     <use xlink:href="#STIXGeneral-Regular-65" x="996.999771"/>
     <use xlink:href="#STIXGeneral-Regular-20" x="1041.399765"/>
     <use xlink:href="#STIXGeneral-Regular-20" x="1066.39975"/>
     <use xlink:href="#STIXGeneral-Regular-52" x="1091.399734"/>
     <use xlink:href="#STIXGeneral-Regular-65" x="1158.099731"/>
     <use xlink:href="#STIXGeneral-Regular-74" x="1202.499725"/>
     <use xlink:href="#STIXGeneral-Regular-75" x="1230.299713"/>
     <use xlink:href="#STIXGeneral-Regular-72" x="1280.299698"/>
     <use xlink:href="#STIXGeneral-Regular-6e" x="1313.599686"/>
    </g>
   </g>
   <g id="legend_1">
    <g id="patch_7">
     <path d="M 386.125313 298.131875 
L 507 298.131875 
Q 509.8 298.131875 509.8 295.331875 
L 509.8 237.216563 
Q 509.8 234.416562 507 234.416562 
L 386.125313 234.416562 
Q 383.325312 234.416562 383.325312 237.216563 
L 383.325312 295.331875 
Q 383.325312 298.131875 386.125313 298.131875 
z
" style="fill: #ffffff; opacity: 0.8; stroke: #cccccc; stroke-linejoin: miter"/>
    </g>
    <g id="line2d_30">
     <path d="M 388.925313 244.916562 
L 402.925313 244.916562 
L 416.925313 244.916562 
" style="fill: none; stroke: #1f77b4; stroke-width: 1.5; stroke-linecap: square"/>
    </g>
    <g id="text_17">
     <!-- inner-lr=0.05 -->
     <g transform="translate(428.125313 249.816563)scale(0.14 -0.14)">
      <defs>
       <path id="STIXGeneral-Regular-69" d="M 1152 4045 
Q 1152 3904 1056 3811 
Q 960 3718 819 3718 
Q 685 3718 592 3811 
Q 499 3904 499 4045 
Q 499 4179 595 4275 
Q 691 4371 826 4371 
Q 966 4371 1059 4275 
Q 1152 4179 1152 4045 
z
M 1619 0 
L 102 0 
L 102 96 
Q 435 115 521 211 
Q 608 307 608 666 
L 608 2118 
Q 608 2342 563 2432 
Q 518 2522 397 2522 
Q 243 2522 128 2490 
L 128 2592 
L 1120 2944 
L 1146 2918 
L 1146 672 
Q 1146 314 1226 218 
Q 1306 122 1619 96 
L 1619 0 
z
" transform="scale(0.015625)"/>
       <path id="STIXGeneral-Regular-2d" d="M 1824 1242 
L 250 1242 
L 250 1645 
L 1824 1645 
L 1824 1242 
z
" transform="scale(0.015625)"/>
       <path id="STIXGeneral-Regular-6c" d="M 1645 0 
L 134 0 
L 134 96 
Q 435 122 531 221 
Q 627 320 627 589 
L 627 3590 
Q 627 3821 569 3910 
Q 512 4000 358 4000 
Q 224 4000 122 3987 
L 122 4090 
Q 730 4237 1133 4371 
L 1165 4346 
L 1165 557 
Q 1165 288 1254 201 
Q 1344 115 1645 96 
L 1645 0 
z
" transform="scale(0.015625)"/>
       <path id="STIXGeneral-Regular-3d" d="M 4077 2048 
L 307 2048 
L 307 2470 
L 4077 2470 
L 4077 2048 
z
M 4077 768 
L 307 768 
L 307 1190 
L 4077 1190 
L 4077 768 
z
" transform="scale(0.015625)"/>
       <path id="STIXGeneral-Regular-2e" d="M 1158 275 
Q 1158 134 1052 32 
Q 947 -70 800 -70 
Q 653 -70 550 32 
Q 448 134 448 281 
Q 448 429 553 534 
Q 659 640 806 640 
Q 947 640 1052 531 
Q 1158 422 1158 275 
z
" transform="scale(0.015625)"/>
      </defs>
      <use xlink:href="#STIXGeneral-Regular-69"/>
      <use xlink:href="#STIXGeneral-Regular-6e" x="27.799988"/>
      <use xlink:href="#STIXGeneral-Regular-6e" x="77.799973"/>
      <use xlink:href="#STIXGeneral-Regular-65" x="127.799957"/>
      <use xlink:href="#STIXGeneral-Regular-72" x="172.199951"/>
      <use xlink:href="#STIXGeneral-Regular-2d" x="205.499939"/>
      <use xlink:href="#STIXGeneral-Regular-6c" x="238.799927"/>
      <use xlink:href="#STIXGeneral-Regular-72" x="266.599915"/>
      <use xlink:href="#STIXGeneral-Regular-3d" x="299.899902"/>
      <use xlink:href="#STIXGeneral-Regular-30" x="368.399887"/>
      <use xlink:href="#STIXGeneral-Regular-2e" x="418.399872"/>
      <use xlink:href="#STIXGeneral-Regular-30" x="443.399857"/>
      <use xlink:href="#STIXGeneral-Regular-35" x="493.399841"/>
     </g>
    </g>
    <g id="line2d_31">
     <path d="M 388.925313 264.755 
L 402.925313 264.755 
L 416.925313 264.755 
" style="fill: none; stroke: #ff7f0e; stroke-width: 1.5; stroke-linecap: square"/>
    </g>
    <g id="text_18">
     <!-- inner-lr=0.1 -->
     <g transform="translate(428.125313 269.655)scale(0.14 -0.14)">
      <use xlink:href="#STIXGeneral-Regular-69"/>
      <use xlink:href="#STIXGeneral-Regular-6e" x="27.799988"/>
      <use xlink:href="#STIXGeneral-Regular-6e" x="77.799973"/>
      <use xlink:href="#STIXGeneral-Regular-65" x="127.799957"/>
      <use xlink:href="#STIXGeneral-Regular-72" x="172.199951"/>
      <use xlink:href="#STIXGeneral-Regular-2d" x="205.499939"/>
      <use xlink:href="#STIXGeneral-Regular-6c" x="238.799927"/>
      <use xlink:href="#STIXGeneral-Regular-72" x="266.599915"/>
      <use xlink:href="#STIXGeneral-Regular-3d" x="299.899902"/>
      <use xlink:href="#STIXGeneral-Regular-30" x="368.399887"/>
      <use xlink:href="#STIXGeneral-Regular-2e" x="418.399872"/>
      <use xlink:href="#STIXGeneral-Regular-31" x="443.399857"/>
     </g>
    </g>
    <g id="line2d_32">
     <path d="M 388.925313 284.593438 
L 402.925313 284.593438 
L 416.925313 284.593438 
" style="fill: none; stroke: #2ca02c; stroke-width: 1.5; stroke-linecap: square"/>
    </g>
    <g id="text_19">
     <!-- inner-lr=0.5 -->
     <g transform="translate(428.125313 289.493438)scale(0.14 -0.14)">
      <use xlink:href="#STIXGeneral-Regular-69"/>
      <use xlink:href="#STIXGeneral-Regular-6e" x="27.799988"/>
      <use xlink:href="#STIXGeneral-Regular-6e" x="77.799973"/>
      <use xlink:href="#STIXGeneral-Regular-65" x="127.799957"/>
      <use xlink:href="#STIXGeneral-Regular-72" x="172.199951"/>
      <use xlink:href="#STIXGeneral-Regular-2d" x="205.499939"/>
      <use xlink:href="#STIXGeneral-Regular-6c" x="238.799927"/>
      <use xlink:href="#STIXGeneral-Regular-72" x="266.599915"/>
      <use xlink:href="#STIXGeneral-Regular-3d" x="299.899902"/>
      <use xlink:href="#STIXGeneral-Regular-30" x="368.399887"/>
      <use xlink:href="#STIXGeneral-Regular-2e" x="418.399872"/>
      <use xlink:href="#STIXGeneral-Regular-35" x="443.399857"/>
     </g>
    </g>
   </g>
  </g>
 </g>
 <defs>
  <clipPath id="p963ed2802f">
   <rect x="70.4" y="27.931875" width="446.4" height="277.2"/>
  </clipPath>
 </defs>
</svg>
