<?xml version="1.0" encoding="utf-8" standalone="no"?>
<!DOCTYPE svg PUBLIC "-//W3C//DTD SVG 1.1//EN"
  "http://www.w3.org/Graphics/SVG/1.1/DTD/svg11.dtd">
<svg xmlns:xlink="http://www.w3.org/1999/xlink" width="510.5pt" height="355.769pt" viewBox="0 0 510.5 355.769" xmlns="http://www.w3.org/2000/svg" version="1.1">
 <metadata>
  <rdf:RDF xmlns:dc="http://purl.org/dc/elements/1.1/" xmlns:cc="http://creativecommons.org/ns#" xmlns:rdf="http://www.w3.org/1999/02/22-rdf-syntax-ns#">
   <cc:Work>
    <dc:type rdf:resource="http://purl.org/dc/dcmitype/StillImage"/>
    <dc:date>2021-12-11T16:38:34.199632</dc:date>
    <dc:format>image/svg+xml</dc:format>
    <dc:creator>
     <cc:Agent>
      <dc:title>Matplotlib v3.5.0, https://matplotlib.org/</dc:title>
     </cc:Agent>
    </dc:creator>
   </cc:Work>
  </rdf:RDF>
 </metadata>
 <defs>
  <style type="text/css">*{stroke-linejoin: round; stroke-linecap: butt}</style>
 </defs>
 <g id="figure_1">
  <g id="patch_1">
   <path d="M 0 355.769 
L 510.5 355.769 
L 510.5 0 
L 0 0 
z
" style="fill: #ffffff"/>
  </g>
  <g id="axes_1">
   <g id="patch_2">
    <path d="M 56.9 305.152125 
L 503.3 305.152125 
L 503.3 27.952125 
L 56.9 27.952125 
z
" style="fill: #ffffff"/>
   </g>
   <g id="matplotlib.axis_1">
    <g id="xtick_1">
     <g id="line2d_1">
      <path d="M 76.369415 305.152125 
L 76.369415 27.952125 
" clip-path="url(#pc8be2742e1)" style="fill: none; stroke: #b0b0b0; stroke-width: 0.8; stroke-linecap: square"/>
     </g>
     <g id="line2d_2">
      <defs>
       <path id="m28d47b93b9" d="M 0 0 
L 0 3.5 
" style="stroke: #000000; stroke-width: 0.8"/>
      </defs>
      <g>
       <use xlink:href="#m28d47b93b9" x="76.369415" y="305.152125" style="stroke: #000000; stroke-width: 0.8"/>
      </g>
     </g>
     <g id="text_1">
      <!-- 0 -->
      <g transform="translate(71.869415 324.445562)scale(0.18 -0.18)">
       <defs>
        <path id="STIXGeneral-Regular-30" d="M 3046 2112 
Q 3046 1683 2963 1302 
Q 2880 922 2717 602 
Q 2554 282 2266 96 
Q 1978 -90 1600 -90 
Q 1210 -90 915 108 
Q 621 307 461 640 
Q 301 973 227 1350 
Q 154 1728 154 2150 
Q 154 2746 301 3222 
Q 448 3699 790 4012 
Q 1133 4326 1626 4326 
Q 2253 4326 2649 3712 
Q 3046 3098 3046 2112 
z
M 2432 2080 
Q 2432 3091 2217 3625 
Q 2003 4160 1587 4160 
Q 1190 4160 979 3622 
Q 768 3085 768 2106 
Q 768 1120 979 598 
Q 1190 77 1600 77 
Q 2003 77 2217 598 
Q 2432 1120 2432 2080 
z
" transform="scale(0.015625)"/>
       </defs>
       <use xlink:href="#STIXGeneral-Regular-30"/>
      </g>
     </g>
    </g>
    <g id="xtick_2">
     <g id="line2d_3">
      <path d="M 167.646559 305.152125 
L 167.646559 27.952125 
" clip-path="url(#pc8be2742e1)" style="fill: none; stroke: #b0b0b0; stroke-width: 0.8; stroke-linecap: square"/>
     </g>
     <g id="line2d_4">
      <g>
       <use xlink:href="#m28d47b93b9" x="167.646559" y="305.152125" style="stroke: #000000; stroke-width: 0.8"/>
      </g>
     </g>
     <g id="text_2">
      <!-- 1 -->
      <g transform="translate(163.146559 324.445562)scale(0.18 -0.18)">
       <defs>
        <path id="STIXGeneral-Regular-31" d="M 2522 0 
L 755 0 
L 755 96 
Q 1107 115 1235 227 
Q 1363 339 1363 608 
L 1363 3482 
Q 1363 3795 1171 3795 
Q 1082 3795 883 3718 
L 710 3654 
L 710 3744 
L 1856 4326 
L 1914 4307 
L 1914 486 
Q 1914 275 2042 185 
Q 2170 96 2522 96 
L 2522 0 
z
" transform="scale(0.015625)"/>
       </defs>
       <use xlink:href="#STIXGeneral-Regular-31"/>
      </g>
     </g>
    </g>
    <g id="xtick_3">
     <g id="line2d_5">
      <path d="M 258.923703 305.152125 
L 258.923703 27.952125 
" clip-path="url(#pc8be2742e1)" style="fill: none; stroke: #b0b0b0; stroke-width: 0.8; stroke-linecap: square"/>
     </g>
     <g id="line2d_6">
      <g>
       <use xlink:href="#m28d47b93b9" x="258.923703" y="305.152125" style="stroke: #000000; stroke-width: 0.8"/>
      </g>
     </g>
     <g id="text_3">
      <!-- 2 -->
      <g transform="translate(254.423703 324.445562)scale(0.18 -0.18)">
       <defs>
        <path id="STIXGeneral-Regular-32" d="M 3034 877 
L 2688 0 
L 186 0 
L 186 77 
L 1325 1286 
Q 1773 1754 1965 2144 
Q 2157 2534 2157 2950 
Q 2157 3379 1920 3616 
Q 1683 3853 1267 3853 
Q 922 3853 720 3673 
Q 518 3494 326 3021 
L 192 3053 
Q 301 3648 630 3987 
Q 960 4326 1523 4326 
Q 2054 4326 2380 4006 
Q 2707 3686 2707 3200 
Q 2707 2477 1888 1613 
L 832 486 
L 2330 486 
Q 2541 486 2665 569 
Q 2790 653 2944 915 
L 3034 877 
z
" transform="scale(0.015625)"/>
       </defs>
       <use xlink:href="#STIXGeneral-Regular-32"/>
      </g>
     </g>
    </g>
    <g id="xtick_4">
     <g id="line2d_7">
      <path d="M 350.200847 305.152125 
L 350.200847 27.952125 
" clip-path="url(#pc8be2742e1)" style="fill: none; stroke: #b0b0b0; stroke-width: 0.8; stroke-linecap: square"/>
     </g>
     <g id="line2d_8">
      <g>
       <use xlink:href="#m28d47b93b9" x="350.200847" y="305.152125" style="stroke: #000000; stroke-width: 0.8"/>
      </g>
     </g>
     <g id="text_4">
      <!-- 3 -->
      <g transform="translate(345.700847 324.445562)scale(0.18 -0.18)">
       <defs>
        <path id="STIXGeneral-Regular-33" d="M 390 3264 
L 288 3290 
Q 435 3770 748 4048 
Q 1062 4326 1542 4326 
Q 1990 4326 2265 4083 
Q 2541 3840 2541 3450 
Q 2541 2925 1946 2566 
Q 2298 2413 2477 2227 
Q 2758 1914 2758 1402 
Q 2758 890 2464 506 
Q 2246 211 1840 60 
Q 1434 -90 979 -90 
Q 262 -90 262 275 
Q 262 378 339 442 
Q 416 506 525 506 
Q 685 506 915 339 
Q 1197 141 1466 141 
Q 1818 141 2058 425 
Q 2298 710 2298 1120 
Q 2298 1856 1632 2048 
Q 1434 2112 979 2112 
L 979 2202 
Q 1338 2323 1517 2432 
Q 2035 2726 2035 3290 
Q 2035 3610 1852 3776 
Q 1670 3942 1344 3942 
Q 768 3942 390 3264 
z
" transform="scale(0.015625)"/>
       </defs>
       <use xlink:href="#STIXGeneral-Regular-33"/>
      </g>
     </g>
    </g>
    <g id="xtick_5">
     <g id="line2d_9">
      <path d="M 441.47799 305.152125 
L 441.47799 27.952125 
" clip-path="url(#pc8be2742e1)" style="fill: none; stroke: #b0b0b0; stroke-width: 0.8; stroke-linecap: square"/>
     </g>
     <g id="line2d_10">
      <g>
       <use xlink:href="#m28d47b93b9" x="441.47799" y="305.152125" style="stroke: #000000; stroke-width: 0.8"/>
      </g>
     </g>
     <g id="text_5">
      <!-- 4 -->
      <g transform="translate(436.97799 324.445562)scale(0.18 -0.18)">
       <defs>
        <path id="STIXGeneral-Regular-34" d="M 3027 1069 
L 2368 1069 
L 2368 0 
L 1869 0 
L 1869 1069 
L 77 1069 
L 77 1478 
L 2086 4326 
L 2368 4326 
L 2368 1478 
L 3027 1478 
L 3027 1069 
z
M 1869 1478 
L 1869 3674 
L 333 1478 
L 1869 1478 
z
" transform="scale(0.015625)"/>
       </defs>
       <use xlink:href="#STIXGeneral-Regular-34"/>
      </g>
     </g>
    </g>
    <g id="text_6">
     <!-- Training Environment Steps -->
     <g transform="translate(178.104688 344.645562)scale(0.18 -0.18)">
      <defs>
       <path id="STIXGeneral-Regular-54" d="M 3795 3149 
L 3642 3149 
Q 3539 3674 3353 3821 
Q 3168 3968 2656 3968 
L 2278 3968 
L 2278 710 
Q 2278 346 2387 243 
Q 2496 141 2893 122 
L 2893 0 
L 1024 0 
L 1024 122 
Q 1427 147 1526 256 
Q 1626 365 1626 787 
L 1626 3968 
L 1242 3968 
Q 723 3968 540 3817 
Q 358 3667 262 3149 
L 109 3149 
L 154 4237 
L 3750 4237 
L 3795 3149 
z
" transform="scale(0.015625)"/>
       <path id="STIXGeneral-Regular-72" d="M 1024 2931 
L 1024 2342 
Q 1267 2688 1430 2816 
Q 1594 2944 1792 2944 
Q 1958 2944 2051 2854 
Q 2144 2765 2144 2605 
Q 2144 2470 2077 2393 
Q 2010 2317 1894 2317 
Q 1773 2317 1638 2445 
Q 1536 2541 1472 2541 
Q 1338 2541 1181 2355 
Q 1024 2170 1024 2016 
L 1024 576 
Q 1024 301 1133 205 
Q 1242 109 1568 96 
L 1568 0 
L 32 0 
L 32 96 
Q 339 154 412 224 
Q 486 294 486 538 
L 486 2138 
Q 486 2349 438 2435 
Q 390 2522 269 2522 
Q 166 2522 45 2496 
L 45 2598 
Q 448 2726 992 2944 
L 1024 2931 
z
" transform="scale(0.015625)"/>
       <path id="STIXGeneral-Regular-61" d="M 2829 422 
L 2829 243 
Q 2586 -64 2253 -64 
Q 1888 -64 1843 403 
L 1837 403 
Q 1427 -64 909 -64 
Q 608 -64 422 112 
Q 237 288 237 602 
Q 237 1050 685 1350 
Q 992 1555 1837 1869 
L 1837 2214 
Q 1837 2502 1699 2646 
Q 1562 2790 1338 2790 
Q 1146 2790 1018 2697 
Q 890 2605 890 2477 
Q 890 2419 909 2348 
Q 928 2278 928 2208 
Q 928 2112 841 2029 
Q 755 1946 634 1946 
Q 525 1946 441 2029 
Q 358 2112 358 2240 
Q 358 2547 685 2752 
Q 986 2944 1421 2944 
Q 1939 2944 2176 2656 
Q 2291 2522 2323 2384 
Q 2355 2246 2355 1946 
L 2355 723 
Q 2355 301 2554 301 
Q 2682 301 2829 422 
z
M 1837 813 
L 1837 1715 
Q 1248 1510 1018 1293 
Q 800 1094 800 800 
Q 800 557 921 432 
Q 1043 307 1242 307 
Q 1453 307 1613 410 
Q 1747 506 1792 589 
Q 1837 672 1837 813 
z
" transform="scale(0.015625)"/>
       <path id="STIXGeneral-Regular-69" d="M 1152 4045 
Q 1152 3904 1056 3811 
Q 960 3718 819 3718 
Q 685 3718 592 3811 
Q 499 3904 499 4045 
Q 499 4179 595 4275 
Q 691 4371 826 4371 
Q 966 4371 1059 4275 
Q 1152 4179 1152 4045 
z
M 1619 0 
L 102 0 
L 102 96 
Q 435 115 521 211 
Q 608 307 608 666 
L 608 2118 
Q 608 2342 563 2432 
Q 518 2522 397 2522 
Q 243 2522 128 2490 
L 128 2592 
L 1120 2944 
L 1146 2918 
L 1146 672 
Q 1146 314 1226 218 
Q 1306 122 1619 96 
L 1619 0 
z
" transform="scale(0.015625)"/>
       <path id="STIXGeneral-Regular-6e" d="M 3104 0 
L 1773 0 
L 1779 96 
Q 2016 115 2096 233 
Q 2176 352 2176 672 
L 2176 1946 
Q 2176 2592 1709 2592 
Q 1549 2592 1408 2515 
Q 1267 2438 1050 2227 
L 1050 461 
Q 1050 269 1136 192 
Q 1222 115 1466 96 
L 1466 0 
L 115 0 
L 115 96 
Q 358 115 435 214 
Q 512 314 512 602 
L 512 2157 
Q 512 2394 467 2483 
Q 422 2573 288 2573 
Q 160 2573 102 2547 
L 102 2656 
Q 550 2784 979 2944 
L 1030 2925 
L 1030 2426 
L 1037 2426 
Q 1491 2944 1958 2944 
Q 2323 2944 2518 2688 
Q 2714 2432 2714 1958 
L 2714 544 
Q 2714 288 2790 205 
Q 2867 122 3104 96 
L 3104 0 
z
" transform="scale(0.015625)"/>
       <path id="STIXGeneral-Regular-67" d="M 3008 2483 
L 2477 2483 
Q 2598 2208 2598 1946 
Q 2598 1453 2265 1203 
Q 1933 954 1600 954 
Q 1530 954 1357 973 
L 1235 986 
Q 1107 947 979 812 
Q 851 678 851 582 
Q 851 435 1350 410 
L 2176 371 
Q 2528 358 2739 172 
Q 2950 -13 2950 -314 
Q 2950 -685 2566 -986 
Q 2035 -1395 1286 -1395 
Q 826 -1395 502 -1212 
Q 179 -1030 179 -774 
Q 179 -595 320 -419 
Q 461 -243 806 6 
Q 602 102 534 172 
Q 467 243 467 346 
Q 467 531 762 787 
Q 909 915 1037 1043 
Q 717 1203 579 1401 
Q 442 1600 442 1901 
Q 442 2336 752 2640 
Q 1062 2944 1510 2944 
Q 1766 2944 2022 2848 
L 2163 2797 
Q 2349 2733 2515 2733 
L 3008 2733 
L 3008 2483 
z
M 973 2163 
L 973 2144 
Q 973 1683 1155 1398 
Q 1338 1114 1632 1114 
Q 1850 1114 1978 1270 
Q 2106 1427 2106 1690 
Q 2106 2112 1914 2464 
Q 1754 2765 1446 2765 
Q 1222 2765 1097 2605 
Q 973 2445 973 2163 
z
M 2771 -410 
Q 2771 -230 2595 -163 
Q 2419 -96 1978 -96 
Q 1344 -96 941 -13 
Q 749 -243 688 -348 
Q 627 -454 627 -563 
Q 627 -774 880 -902 
Q 1133 -1030 1555 -1030 
Q 2099 -1030 2435 -860 
Q 2771 -691 2771 -410 
z
" transform="scale(0.015625)"/>
       <path id="STIXGeneral-Regular-20" transform="scale(0.015625)"/>
       <path id="STIXGeneral-Regular-45" d="M 3821 1082 
L 3526 0 
L 77 0 
L 77 122 
Q 442 147 538 252 
Q 634 358 634 730 
L 634 3520 
Q 634 3878 534 3987 
Q 435 4096 77 4115 
L 77 4237 
L 3469 4237 
L 3494 3322 
L 3334 3322 
Q 3264 3750 3085 3872 
Q 2906 3994 2349 3994 
L 1510 3994 
Q 1370 3994 1328 3952 
Q 1286 3910 1286 3763 
L 1286 2355 
L 2253 2355 
Q 2656 2355 2787 2470 
Q 2918 2586 2976 2970 
L 3123 2970 
L 3123 1472 
L 2976 1472 
Q 2918 1875 2790 1984 
Q 2662 2093 2253 2093 
L 1286 2093 
L 1286 538 
Q 1286 346 1420 291 
Q 1555 237 1933 237 
L 2163 237 
Q 2848 237 3136 403 
Q 3424 570 3642 1082 
L 3821 1082 
z
" transform="scale(0.015625)"/>
       <path id="STIXGeneral-Regular-76" d="M 3053 2880 
L 3053 2784 
Q 2906 2771 2835 2688 
Q 2765 2605 2637 2285 
L 1818 230 
Q 1690 -90 1638 -90 
Q 1587 -90 1523 77 
Q 1510 96 1497 141 
Q 1485 186 1472 211 
L 704 2048 
Q 499 2534 403 2652 
Q 307 2771 122 2784 
L 122 2880 
L 1376 2880 
L 1376 2784 
Q 1210 2771 1146 2732 
Q 1082 2694 1082 2611 
Q 1082 2509 1139 2368 
L 1792 730 
L 2426 2387 
Q 2464 2483 2464 2579 
Q 2464 2758 2163 2784 
L 2163 2880 
L 3053 2880 
z
" transform="scale(0.015625)"/>
       <path id="STIXGeneral-Regular-6f" d="M 3008 1478 
Q 3008 806 2608 371 
Q 2208 -64 1568 -64 
Q 979 -64 582 368 
Q 186 800 186 1459 
Q 186 2125 582 2534 
Q 979 2944 1626 2944 
Q 2221 2944 2614 2537 
Q 3008 2131 3008 1478 
z
M 2432 1306 
Q 2432 2035 2112 2445 
Q 1856 2765 1504 2765 
Q 1171 2765 966 2493 
Q 762 2221 762 1747 
Q 762 928 1101 435 
Q 1318 115 1677 115 
Q 2029 115 2230 432 
Q 2432 749 2432 1306 
z
" transform="scale(0.015625)"/>
       <path id="STIXGeneral-Regular-6d" d="M 4960 0 
L 3565 0 
L 3565 96 
Q 3834 122 3907 208 
Q 3981 294 3981 576 
L 3981 1894 
Q 3981 2278 3869 2444 
Q 3757 2611 3488 2611 
Q 3264 2611 3107 2521 
Q 2950 2432 2803 2221 
L 2803 608 
Q 2803 301 2896 201 
Q 2989 102 3264 96 
L 3264 0 
L 1830 0 
L 1830 96 
Q 2112 115 2189 188 
Q 2266 262 2266 550 
L 2266 1901 
Q 2266 2611 1850 2611 
Q 1670 2611 1468 2531 
Q 1267 2451 1171 2336 
Q 1088 2240 1088 2227 
L 1088 448 
Q 1088 243 1177 176 
Q 1267 109 1523 96 
L 1523 0 
L 102 0 
L 102 96 
Q 371 102 460 195 
Q 550 288 550 563 
L 550 2150 
Q 550 2387 499 2480 
Q 448 2573 326 2573 
Q 230 2573 122 2547 
L 122 2656 
Q 557 2778 1011 2944 
L 1062 2925 
L 1062 2451 
L 1075 2451 
Q 1363 2752 1584 2848 
Q 1805 2944 2054 2944 
Q 2560 2944 2733 2406 
Q 3232 2944 3776 2944 
Q 4518 2944 4518 1792 
L 4518 493 
Q 4518 282 4582 202 
Q 4646 122 4794 109 
L 4960 96 
L 4960 0 
z
" transform="scale(0.015625)"/>
       <path id="STIXGeneral-Regular-65" d="M 2611 1050 
L 2714 1005 
Q 2330 -64 1376 -64 
Q 813 -64 486 329 
Q 160 723 160 1389 
Q 160 2074 525 2509 
Q 890 2944 1485 2944 
Q 2061 2944 2374 2502 
Q 2560 2246 2592 1773 
L 621 1773 
Q 646 1370 700 1158 
Q 755 947 915 730 
Q 1184 378 1626 378 
Q 1939 378 2153 531 
Q 2368 685 2611 1050 
z
M 634 1978 
L 1939 1978 
Q 1882 2381 1750 2547 
Q 1619 2714 1312 2714 
Q 1043 2714 864 2525 
Q 685 2336 634 1978 
z
" transform="scale(0.015625)"/>
       <path id="STIXGeneral-Regular-74" d="M 1702 493 
L 1786 422 
Q 1478 -64 1011 -64 
Q 448 -64 448 749 
L 448 2675 
L 109 2675 
Q 83 2694 83 2720 
Q 83 2771 192 2842 
Q 435 2982 813 3526 
Q 826 3546 874 3606 
Q 922 3667 941 3706 
Q 986 3706 986 3622 
L 986 2880 
L 1632 2880 
L 1632 2675 
L 986 2675 
L 986 845 
Q 986 538 1062 403 
Q 1139 269 1318 269 
Q 1510 269 1702 493 
z
" transform="scale(0.015625)"/>
       <path id="STIXGeneral-Regular-53" d="M 3002 2963 
L 2842 2963 
Q 2733 3360 2579 3565 
Q 2189 4064 1651 4064 
Q 1357 4064 1181 3894 
Q 1005 3725 1005 3456 
Q 1005 3328 1069 3206 
Q 1133 3085 1206 2998 
Q 1280 2912 1465 2784 
Q 1651 2656 1766 2589 
Q 1882 2522 2150 2362 
Q 2669 2061 2905 1763 
Q 3142 1466 3142 1107 
Q 3142 576 2771 243 
Q 2400 -90 1837 -90 
Q 1421 -90 1082 58 
Q 915 128 781 128 
Q 704 128 653 70 
Q 602 13 602 -83 
L 461 -83 
L 275 1274 
L 416 1274 
Q 845 141 1734 141 
Q 2074 141 2285 342 
Q 2496 544 2496 858 
Q 2496 1158 2310 1363 
Q 2003 1696 1235 2106 
Q 454 2522 454 3206 
Q 454 3718 768 4022 
Q 1082 4326 1568 4326 
Q 1907 4326 2240 4186 
Q 2413 4109 2522 4109 
Q 2688 4109 2726 4326 
L 2861 4326 
L 3002 2963 
z
" transform="scale(0.015625)"/>
       <path id="STIXGeneral-Regular-70" d="M 1018 2931 
L 1018 2438 
Q 1421 2944 1939 2944 
Q 2406 2944 2707 2560 
Q 3008 2176 3008 1581 
Q 3008 883 2621 409 
Q 2234 -64 1664 -64 
Q 1466 -64 1328 -6 
Q 1190 51 1018 211 
L 1018 -794 
Q 1018 -1094 1120 -1180 
Q 1222 -1267 1581 -1274 
L 1581 -1389 
L 32 -1389 
L 32 -1280 
Q 314 -1254 397 -1171 
Q 480 -1088 480 -838 
L 480 2157 
Q 480 2381 429 2451 
Q 378 2522 218 2522 
Q 115 2522 58 2515 
L 58 2618 
Q 506 2752 979 2944 
L 1018 2931 
z
M 1018 2138 
L 1018 563 
Q 1018 422 1238 281 
Q 1459 141 1683 141 
Q 2029 141 2243 467 
Q 2458 794 2458 1325 
Q 2458 1888 2243 2224 
Q 2029 2560 1670 2560 
Q 1446 2560 1232 2419 
Q 1018 2278 1018 2138 
z
" transform="scale(0.015625)"/>
       <path id="STIXGeneral-Regular-73" d="M 998 1926 
L 1664 1523 
Q 1984 1331 2105 1164 
Q 2227 998 2227 736 
Q 2227 416 1961 176 
Q 1696 -64 1331 -64 
Q 1030 -64 864 -6 
Q 691 51 570 51 
Q 461 51 416 -26 
L 333 -26 
L 333 979 
L 435 979 
Q 538 512 730 294 
Q 922 77 1248 77 
Q 1485 77 1632 211 
Q 1779 346 1779 550 
Q 1779 845 1440 1030 
L 1094 1222 
Q 326 1651 326 2150 
Q 326 2522 566 2730 
Q 806 2938 1210 2938 
Q 1491 2938 1638 2867 
Q 1754 2816 1818 2816 
Q 1862 2816 1920 2880 
L 1990 2880 
L 2022 2010 
L 1926 2010 
Q 1818 2445 1654 2621 
Q 1491 2797 1203 2797 
Q 986 2797 854 2688 
Q 723 2579 723 2362 
Q 723 2253 796 2128 
Q 870 2003 998 1926 
z
" transform="scale(0.015625)"/>
      </defs>
      <use xlink:href="#STIXGeneral-Regular-54"/>
      <use xlink:href="#STIXGeneral-Regular-72" x="61.099991"/>
      <use xlink:href="#STIXGeneral-Regular-61" x="94.399979"/>
      <use xlink:href="#STIXGeneral-Regular-69" x="138.799973"/>
      <use xlink:href="#STIXGeneral-Regular-6e" x="166.59996"/>
      <use xlink:href="#STIXGeneral-Regular-69" x="216.599945"/>
      <use xlink:href="#STIXGeneral-Regular-6e" x="244.399933"/>
      <use xlink:href="#STIXGeneral-Regular-67" x="294.399918"/>
      <use xlink:href="#STIXGeneral-Regular-20" x="344.399902"/>
      <use xlink:href="#STIXGeneral-Regular-45" x="369.399887"/>
      <use xlink:href="#STIXGeneral-Regular-6e" x="430.499878"/>
      <use xlink:href="#STIXGeneral-Regular-76" x="480.499863"/>
      <use xlink:href="#STIXGeneral-Regular-69" x="530.499847"/>
      <use xlink:href="#STIXGeneral-Regular-72" x="558.299835"/>
      <use xlink:href="#STIXGeneral-Regular-6f" x="591.599823"/>
      <use xlink:href="#STIXGeneral-Regular-6e" x="641.599808"/>
      <use xlink:href="#STIXGeneral-Regular-6d" x="691.599792"/>
      <use xlink:href="#STIXGeneral-Regular-65" x="769.39978"/>
      <use xlink:href="#STIXGeneral-Regular-6e" x="813.799774"/>
      <use xlink:href="#STIXGeneral-Regular-74" x="863.799759"/>
      <use xlink:href="#STIXGeneral-Regular-20" x="891.599747"/>
      <use xlink:href="#STIXGeneral-Regular-53" x="916.599731"/>
      <use xlink:href="#STIXGeneral-Regular-74" x="972.199722"/>
      <use xlink:href="#STIXGeneral-Regular-65" x="999.99971"/>
      <use xlink:href="#STIXGeneral-Regular-70" x="1044.399704"/>
      <use xlink:href="#STIXGeneral-Regular-73" x="1094.399689"/>
     </g>
    </g>
    <g id="text_7">
     <!-- 1e8 -->
     <g transform="translate(477.306875 343.645562)scale(0.18 -0.18)">
      <defs>
       <path id="STIXGeneral-Regular-38" d="M 2848 992 
Q 2848 499 2505 204 
Q 2163 -90 1587 -90 
Q 1050 -90 704 204 
Q 358 499 358 954 
Q 358 1293 524 1533 
Q 691 1773 1190 2125 
Q 710 2522 553 2765 
Q 397 3008 397 3328 
Q 397 3782 745 4054 
Q 1094 4326 1638 4326 
Q 2106 4326 2410 4060 
Q 2714 3795 2714 3411 
Q 2714 3059 2531 2848 
Q 2349 2637 1856 2374 
Q 2432 1990 2640 1689 
Q 2848 1389 2848 992 
z
M 2272 3411 
Q 2272 3744 2086 3945 
Q 1901 4147 1574 4147 
Q 1248 4147 1059 3977 
Q 870 3808 870 3513 
Q 870 3219 1059 2979 
Q 1248 2739 1670 2490 
Q 1997 2682 2134 2896 
Q 2272 3110 2272 3411 
z
M 1734 1741 
L 1357 1997 
Q 1075 1766 960 1545 
Q 845 1325 845 1011 
Q 845 576 1065 333 
Q 1286 90 1658 90 
Q 1971 90 2166 285 
Q 2362 480 2362 794 
Q 2362 1082 2214 1299 
Q 2067 1517 1734 1741 
z
" transform="scale(0.015625)"/>
      </defs>
      <use xlink:href="#STIXGeneral-Regular-31"/>
      <use xlink:href="#STIXGeneral-Regular-65" x="49.999985"/>
      <use xlink:href="#STIXGeneral-Regular-38" x="94.399979"/>
     </g>
    </g>
   </g>
   <g id="matplotlib.axis_2">
    <g id="ytick_1">
     <g id="line2d_11">
      <path d="M 56.9 292.552125 
L 503.3 292.552125 
" clip-path="url(#pc8be2742e1)" style="fill: none; stroke: #b0b0b0; stroke-width: 0.8; stroke-linecap: square"/>
     </g>
     <g id="line2d_12">
      <defs>
       <path id="m677eb3e623" d="M 0 0 
L -3.5 0 
" style="stroke: #000000; stroke-width: 0.8"/>
      </defs>
      <g>
       <use xlink:href="#m677eb3e623" x="56.9" y="292.552125" style="stroke: #000000; stroke-width: 0.8"/>
      </g>
     </g>
     <g id="text_8">
      <!-- 0.0 -->
      <g transform="translate(27.4 298.698844)scale(0.18 -0.18)">
       <defs>
        <path id="STIXGeneral-Regular-2e" d="M 1158 275 
Q 1158 134 1052 32 
Q 947 -70 800 -70 
Q 653 -70 550 32 
Q 448 134 448 281 
Q 448 429 553 534 
Q 659 640 806 640 
Q 947 640 1052 531 
Q 1158 422 1158 275 
z
" transform="scale(0.015625)"/>
       </defs>
       <use xlink:href="#STIXGeneral-Regular-30"/>
       <use xlink:href="#STIXGeneral-Regular-2e" x="49.999985"/>
       <use xlink:href="#STIXGeneral-Regular-30" x="74.999969"/>
      </g>
     </g>
    </g>
    <g id="ytick_2">
     <g id="line2d_13">
      <path d="M 56.9 242.152125 
L 503.3 242.152125 
" clip-path="url(#pc8be2742e1)" style="fill: none; stroke: #b0b0b0; stroke-width: 0.8; stroke-linecap: square"/>
     </g>
     <g id="line2d_14">
      <g>
       <use xlink:href="#m677eb3e623" x="56.9" y="242.152125" style="stroke: #000000; stroke-width: 0.8"/>
      </g>
     </g>
     <g id="text_9">
      <!-- 0.2 -->
      <g transform="translate(27.4 248.298844)scale(0.18 -0.18)">
       <use xlink:href="#STIXGeneral-Regular-30"/>
       <use xlink:href="#STIXGeneral-Regular-2e" x="49.999985"/>
       <use xlink:href="#STIXGeneral-Regular-32" x="74.999969"/>
      </g>
     </g>
    </g>
    <g id="ytick_3">
     <g id="line2d_15">
      <path d="M 56.9 191.752125 
L 503.3 191.752125 
" clip-path="url(#pc8be2742e1)" style="fill: none; stroke: #b0b0b0; stroke-width: 0.8; stroke-linecap: square"/>
     </g>
     <g id="line2d_16">
      <g>
       <use xlink:href="#m677eb3e623" x="56.9" y="191.752125" style="stroke: #000000; stroke-width: 0.8"/>
      </g>
     </g>
     <g id="text_10">
      <!-- 0.4 -->
      <g transform="translate(27.4 197.898844)scale(0.18 -0.18)">
       <use xlink:href="#STIXGeneral-Regular-30"/>
       <use xlink:href="#STIXGeneral-Regular-2e" x="49.999985"/>
       <use xlink:href="#STIXGeneral-Regular-34" x="74.999969"/>
      </g>
     </g>
    </g>
    <g id="ytick_4">
     <g id="line2d_17">
      <path d="M 56.9 141.352125 
L 503.3 141.352125 
" clip-path="url(#pc8be2742e1)" style="fill: none; stroke: #b0b0b0; stroke-width: 0.8; stroke-linecap: square"/>
     </g>
     <g id="line2d_18">
      <g>
       <use xlink:href="#m677eb3e623" x="56.9" y="141.352125" style="stroke: #000000; stroke-width: 0.8"/>
      </g>
     </g>
     <g id="text_11">
      <!-- 0.6 -->
      <g transform="translate(27.4 147.498844)scale(0.18 -0.18)">
       <defs>
        <path id="STIXGeneral-Regular-36" d="M 2854 4378 
L 2867 4275 
Q 2112 4154 1606 3664 
Q 1101 3174 973 2451 
Q 1344 2739 1786 2739 
Q 2349 2739 2672 2380 
Q 2995 2022 2995 1402 
Q 2995 774 2669 378 
Q 2291 -90 1651 -90 
Q 870 -90 518 557 
Q 218 1107 218 1786 
Q 218 2835 915 3552 
Q 1312 3962 1731 4131 
Q 2150 4301 2854 4378 
z
M 2419 1203 
Q 2419 2445 1555 2445 
Q 1235 2445 1024 2275 
Q 813 2106 813 1702 
Q 813 954 1046 522 
Q 1280 90 1722 90 
Q 2061 90 2240 394 
Q 2419 698 2419 1203 
z
" transform="scale(0.015625)"/>
       </defs>
       <use xlink:href="#STIXGeneral-Regular-30"/>
       <use xlink:href="#STIXGeneral-Regular-2e" x="49.999985"/>
       <use xlink:href="#STIXGeneral-Regular-36" x="74.999969"/>
      </g>
     </g>
    </g>
    <g id="ytick_5">
     <g id="line2d_19">
      <path d="M 56.9 90.952125 
L 503.3 90.952125 
" clip-path="url(#pc8be2742e1)" style="fill: none; stroke: #b0b0b0; stroke-width: 0.8; stroke-linecap: square"/>
     </g>
     <g id="line2d_20">
      <g>
       <use xlink:href="#m677eb3e623" x="56.9" y="90.952125" style="stroke: #000000; stroke-width: 0.8"/>
      </g>
     </g>
     <g id="text_12">
      <!-- 0.8 -->
      <g transform="translate(27.4 97.098844)scale(0.18 -0.18)">
       <use xlink:href="#STIXGeneral-Regular-30"/>
       <use xlink:href="#STIXGeneral-Regular-2e" x="49.999985"/>
       <use xlink:href="#STIXGeneral-Regular-38" x="74.999969"/>
      </g>
     </g>
    </g>
    <g id="ytick_6">
     <g id="line2d_21">
      <path d="M 56.9 40.552125 
L 503.3 40.552125 
" clip-path="url(#pc8be2742e1)" style="fill: none; stroke: #b0b0b0; stroke-width: 0.8; stroke-linecap: square"/>
     </g>
     <g id="line2d_22">
      <g>
       <use xlink:href="#m677eb3e623" x="56.9" y="40.552125" style="stroke: #000000; stroke-width: 0.8"/>
      </g>
     </g>
     <g id="text_13">
      <!-- 1.0 -->
      <g transform="translate(27.4 46.698844)scale(0.18 -0.18)">
       <use xlink:href="#STIXGeneral-Regular-31"/>
       <use xlink:href="#STIXGeneral-Regular-2e" x="49.999985"/>
       <use xlink:href="#STIXGeneral-Regular-30" x="74.999969"/>
      </g>
     </g>
    </g>
    <g id="text_14">
     <!-- Success Rate -->
     <g transform="translate(19.493438 213.7965)rotate(-90)scale(0.18 -0.18)">
      <defs>
       <path id="STIXGeneral-Regular-75" d="M 3072 320 
L 3072 230 
Q 2573 96 2195 -58 
L 2163 -38 
L 2163 486 
L 2150 486 
Q 1747 -64 1235 -64 
Q 870 -64 662 160 
Q 454 384 454 755 
L 454 2362 
Q 454 2598 371 2688 
Q 288 2778 58 2790 
L 58 2880 
L 992 2880 
L 992 813 
Q 992 595 1123 451 
Q 1254 307 1446 307 
Q 1760 307 1984 506 
Q 2067 582 2099 649 
Q 2131 717 2131 877 
L 2131 2355 
Q 2131 2605 2041 2678 
Q 1952 2752 1658 2771 
L 1658 2880 
L 2669 2880 
L 2669 685 
Q 2669 461 2742 390 
Q 2816 320 3034 320 
L 3072 320 
z
" transform="scale(0.015625)"/>
       <path id="STIXGeneral-Regular-63" d="M 2547 998 
L 2637 941 
Q 2362 403 2112 205 
Q 1786 -64 1376 -64 
Q 845 -64 502 336 
Q 160 736 160 1357 
Q 160 2170 698 2618 
Q 1094 2944 1562 2944 
Q 1965 2944 2256 2749 
Q 2547 2554 2547 2285 
Q 2547 2176 2457 2096 
Q 2368 2016 2246 2016 
Q 2022 2016 1939 2310 
L 1901 2451 
Q 1850 2630 1773 2694 
Q 1696 2758 1523 2758 
Q 1133 2758 893 2451 
Q 653 2144 653 1645 
Q 653 1094 928 745 
Q 1203 397 1645 397 
Q 1920 397 2118 528 
Q 2317 659 2547 998 
z
" transform="scale(0.015625)"/>
       <path id="STIXGeneral-Regular-52" d="M 4224 0 
L 3187 0 
L 1664 1971 
L 1306 1958 
L 1306 717 
Q 1306 352 1405 249 
Q 1504 147 1875 122 
L 1875 0 
L 109 0 
L 109 122 
Q 474 154 563 262 
Q 653 371 653 794 
L 653 3526 
Q 653 3885 563 3987 
Q 474 4090 109 4115 
L 109 4237 
L 1850 4237 
Q 2726 4237 3187 3859 
Q 3501 3603 3501 3091 
Q 3501 2221 2342 2042 
L 3622 422 
Q 3757 256 3878 198 
Q 4000 141 4224 122 
L 4224 0 
z
M 1306 3731 
L 1306 2195 
Q 1766 2202 1990 2246 
Q 2214 2291 2438 2413 
Q 2803 2618 2803 3142 
Q 2803 4000 1632 4000 
Q 1459 4000 1382 3945 
Q 1306 3891 1306 3731 
z
" transform="scale(0.015625)"/>
      </defs>
      <use xlink:href="#STIXGeneral-Regular-53"/>
      <use xlink:href="#STIXGeneral-Regular-75" x="55.599991"/>
      <use xlink:href="#STIXGeneral-Regular-63" x="105.599976"/>
      <use xlink:href="#STIXGeneral-Regular-63" x="149.999969"/>
      <use xlink:href="#STIXGeneral-Regular-65" x="194.399963"/>
      <use xlink:href="#STIXGeneral-Regular-73" x="238.799957"/>
      <use xlink:href="#STIXGeneral-Regular-73" x="277.699951"/>
      <use xlink:href="#STIXGeneral-Regular-20" x="316.599945"/>
      <use xlink:href="#STIXGeneral-Regular-52" x="341.59993"/>
      <use xlink:href="#STIXGeneral-Regular-61" x="408.299927"/>
      <use xlink:href="#STIXGeneral-Regular-74" x="452.699921"/>
      <use xlink:href="#STIXGeneral-Regular-65" x="480.499908"/>
     </g>
    </g>
   </g>
   <g id="line2d_23">
    <path d="M 77.190909 292.552125 
L 101.014244 292.552125 
L 101.835738 290.536125 
L 102.657232 291.342525 
L 103.478727 291.826365 
L 105.121715 292.290851 
L 105.943209 292.395361 
L 106.764704 290.442067 
L 107.586198 291.28609 
L 108.407692 291.792504 
L 109.229187 292.096352 
L 110.872175 292.388047 
L 113.336658 292.516684 
L 121.551601 292.551911 
L 181.520685 292.552125 
L 182.342179 290.536125 
L 183.163673 291.342525 
L 183.985167 291.826365 
L 185.628156 292.290851 
L 188.092639 292.49569 
L 193.843099 292.550545 
L 197.129076 292.55192 
L 197.95057 290.536002 
L 198.772065 279.246452 
L 200.415053 266.392483 
L 201.236548 272.82434 
L 202.058042 272.651454 
L 202.879536 280.611722 
L 203.701031 285.387883 
L 204.522525 286.23758 
L 205.344019 286.747398 
L 206.165513 278.989289 
L 206.987008 280.382423 
L 207.808502 285.250304 
L 208.629996 288.171032 
L 209.451491 289.923469 
L 210.272985 290.974932 
L 211.094479 291.605809 
L 211.915974 291.984335 
L 212.737468 290.195451 
L 213.558962 289.122121 
L 214.380456 290.494122 
L 215.201951 291.317323 
L 216.023445 291.811244 
L 216.844939 290.091597 
L 217.666434 289.059808 
L 218.487928 290.456735 
L 219.309422 291.294891 
L 220.130916 291.797785 
L 220.952411 292.099521 
L 222.595399 292.389187 
L 223.416894 292.454362 
L 224.238388 290.477468 
L 225.059882 289.291331 
L 225.881377 290.595648 
L 226.702871 291.378239 
L 227.524365 291.847793 
L 228.345859 290.113526 
L 229.167354 291.088966 
L 229.988848 291.674229 
L 230.810342 287.993388 
L 231.631837 287.800883 
L 232.453331 279.621379 
L 233.274825 266.649677 
L 234.096319 260.882657 
L 234.917814 263.470444 
L 235.739308 254.943116 
L 236.560802 257.89072 
L 237.382297 247.563282 
L 238.203791 255.478819 
L 239.84678 276.786535 
L 240.668274 283.092771 
L 241.489768 284.860513 
L 242.311262 287.937158 
L 243.132757 289.783145 
L 243.954251 290.890737 
L 245.59724 277.035625 
L 246.418734 263.082225 
L 247.240228 256.726184 
L 248.061722 256.94456 
L 248.883217 265.139586 
L 249.704711 268.040602 
L 250.526205 259.70121 
L 251.3477 266.793576 
L 252.169194 265.000996 
L 252.990688 269.973448 
L 253.812183 276.988919 
L 254.633677 281.198201 
L 255.455171 283.723771 
L 257.09816 274.455517 
L 257.919654 275.646161 
L 258.741148 272.328546 
L 259.562643 272.353978 
L 260.384137 278.417237 
L 261.205631 255.847192 
L 262.027126 256.417165 
L 262.84862 250.711149 
L 263.670114 267.447539 
L 264.491608 259.345373 
L 265.313103 264.564074 
L 266.134597 267.695295 
L 266.956091 243.366026 
L 267.777586 240.864466 
L 268.59908 225.251528 
L 269.420574 219.915768 
L 270.242068 202.60231 
L 271.063563 194.230236 
L 271.885057 199.286991 
L 272.706551 190.225044 
L 273.528046 186.803877 
L 274.34954 192.815175 
L 275.171034 206.501956 
L 275.992529 200.602023 
L 276.814023 201.094062 
L 277.635517 189.293288 
L 278.457011 168.100823 
L 279.278506 167.481344 
L 280.1 177.189656 
L 280.921494 150.75864 
L 281.742989 140.948032 
L 282.564483 129.013666 
L 283.385977 131.933049 
L 284.207471 123.604677 
L 285.028966 128.687655 
L 285.85046 127.705441 
L 286.671954 123.084116 
L 287.493449 134.423319 
L 288.314943 127.114843 
L 289.136437 124.745755 
L 289.957932 117.276302 
L 290.779426 108.762634 
L 291.60092 103.654433 
L 293.243909 116.894553 
L 294.065403 120.629579 
L 294.886897 106.742598 
L 295.708392 98.41041 
L 296.529886 93.411097 
L 297.35138 90.411509 
L 298.172874 108.771755 
L 298.994369 109.7079 
L 299.815863 98.173593 
L 300.637357 93.269006 
L 301.458852 94.358257 
L 302.280346 86.947803 
L 303.10184 88.54953 
L 304.744829 110.247189 
L 305.566323 112.609165 
L 306.387817 130.154347 
L 307.209312 134.633456 
L 308.030806 115.144924 
L 308.8523 111.515803 
L 309.673795 113.370333 
L 310.495289 96.33905 
L 311.316783 90.152283 
L 312.138278 86.440222 
L 312.959772 84.212986 
L 313.781266 94.972639 
L 314.60276 99.412432 
L 315.424255 89.980308 
L 316.245749 88.353035 
L 317.067243 89.39267 
L 317.888738 77.92045 
L 318.710232 73.053123 
L 320.35322 101.442882 
L 321.996209 92.712797 
L 322.817703 92.008527 
L 323.639198 83.521967 
L 324.460692 88.510033 
L 325.282186 99.566871 
L 326.103681 104.18497 
L 327.746669 70.314346 
L 328.568163 66.473456 
L 329.389658 80.296925 
L 330.211152 88.591006 
L 331.032646 101.631453 
L 331.854141 107.439723 
L 332.675635 102.860687 
L 333.497129 104.145261 
L 334.318623 100.884009 
L 335.140118 82.799256 
L 335.961612 73.964402 
L 336.783106 68.663489 
L 337.604601 65.482942 
L 338.426095 59.542617 
L 339.247589 68.074423 
L 340.069084 91.337501 
L 340.890578 85.135349 
L 341.712072 83.430062 
L 342.533566 84.422888 
L 343.355061 80.986581 
L 344.176555 78.924797 
L 344.998049 79.703731 
L 345.819544 74.123091 
L 346.641038 72.790705 
L 347.462532 76.023276 
L 348.284026 77.962818 
L 349.105521 79.126543 
L 349.927015 71.760774 
L 350.748509 67.341313 
L 351.570004 72.75364 
L 352.391498 65.921034 
L 353.212992 73.917471 
L 354.034487 76.699335 
L 354.855981 80.384452 
L 356.498969 72.229365 
L 357.320464 83.75047 
L 358.141958 90.663133 
L 358.963452 90.778729 
L 359.784947 92.86409 
L 360.606441 80.003302 
L 361.427935 82.366832 
L 362.24943 97.896949 
L 363.070924 103.183016 
L 363.892418 96.27466 
L 364.713912 104.225647 
L 365.535407 115.04424 
L 366.356901 97.343394 
L 367.178395 92.770887 
L 367.99989 83.979383 
L 368.821384 78.70448 
L 369.642878 81.587539 
L 370.464372 89.365374 
L 371.285867 92.016077 
L 372.107361 91.590495 
L 372.928855 87.30315 
L 373.75035 78.682742 
L 374.571844 93.670497 
L 375.393338 84.519148 
L 376.214833 91.12434 
L 377.036327 95.087455 
L 377.857821 91.417324 
L 378.679315 95.263245 
L 379.50081 101.602794 
L 380.322304 93.310529 
L 381.143798 106.479165 
L 381.965293 100.268348 
L 382.786787 100.57386 
L 383.608281 90.677164 
L 384.429775 86.755151 
L 385.25127 86.417941 
L 386.072764 76.135613 
L 386.894258 71.98222 
L 387.715753 65.458182 
L 388.537247 61.54376 
L 389.358741 63.227108 
L 390.180236 60.205115 
L 391.00173 54.359917 
L 391.823224 62.948799 
L 392.644718 60.03813 
L 393.466213 60.307726 
L 394.287707 70.549486 
L 395.109201 78.710541 
L 395.930696 85.623177 
L 396.75219 83.722759 
L 397.573684 90.646506 
L 398.395179 80.688756 
L 399.216673 68.666106 
L 400.038167 79.596516 
L 400.859661 68.010762 
L 401.681156 67.10731 
L 402.50265 72.613238 
L 404.145639 62.980525 
L 404.967133 60.057165 
L 405.788627 60.319147 
L 406.610121 58.460339 
L 407.431616 55.329055 
L 408.25311 57.482282 
L 409.074604 56.758219 
L 409.896099 66.403784 
L 410.717593 64.127119 
L 411.539087 64.777124 
L 412.360582 57.103122 
L 413.182076 58.546722 
L 414.00357 71.508882 
L 414.825064 73.238178 
L 415.646559 68.227755 
L 416.468053 81.349504 
L 417.289547 81.158555 
L 418.111042 77.011983 
L 418.932536 78.556043 
L 419.75403 77.466474 
L 420.575524 78.828737 
L 421.397019 77.630091 
L 422.218513 78.926907 
L 423.040007 91.800991 
L 423.861502 91.461444 
L 424.682996 89.241717 
L 425.50449 91.941883 
L 426.325985 93.561983 
L 427.147479 94.534043 
L 427.968973 83.021278 
L 429.611962 73.178623 
L 430.433456 76.256026 
L 431.25495 76.086464 
L 432.076445 71.952731 
L 432.897939 65.440489 
L 433.719433 77.661146 
L 434.540927 78.94554 
L 435.362422 69.636174 
L 436.183916 66.066553 
L 437.00541 74.004783 
L 437.826905 76.751722 
L 438.648399 80.415884 
L 439.469893 84.630379 
L 440.291388 93.207077 
L 441.112882 98.353095 
L 441.934376 89.344706 
L 442.75587 85.955676 
L 443.577365 81.906254 
L 444.398859 85.524601 
L 445.220353 87.69561 
L 446.041848 82.950214 
L 446.863342 82.118981 
L 447.684836 81.620241 
L 448.506331 77.288995 
L 449.327825 76.706246 
L 450.149319 96.516595 
L 450.970813 90.25881 
L 451.792308 80.456138 
L 452.613802 84.654532 
L 453.435296 77.093571 
L 454.256791 78.604995 
L 455.078285 81.527848 
L 455.899779 93.361556 
L 456.721273 94.413786 
L 457.542768 86.98112 
L 458.364262 86.553523 
L 459.185756 88.312963 
L 460.007251 85.33663 
L 460.828745 101.694825 
L 461.650239 103.445744 
L 462.471734 102.480298 
L 463.293228 87.789031 
L 464.114722 101.150268 
L 464.936216 97.07101 
L 465.757711 98.655457 
L 466.579205 87.510124 
L 467.400699 78.806927 
L 468.222194 77.617005 
L 469.043688 97.06305 
L 470.686676 108.070458 
L 471.508171 97.191127 
L 472.329665 108.807524 
L 473.151159 109.729361 
L 473.972654 124.394468 
L 475.615642 113.877766 
L 476.437137 118.819507 
L 477.258631 119.768553 
L 478.080125 112.273983 
L 478.901619 113.825241 
L 479.723114 118.787992 
L 480.544608 109.669648 
L 481.366102 102.182638 
L 482.187597 105.75443 
L 483.009091 93.785506 
L 483.009091 93.785506 
" clip-path="url(#pc8be2742e1)" style="fill: none; stroke: #1f77b4; stroke-width: 1.5; stroke-linecap: square"/>
   </g>
   <g id="line2d_24">
    <path d="M 77.190909 292.552125 
L 78.012403 292.552125 
L 78.833898 284.488125 
L 79.655392 287.713725 
L 80.476886 209.009084 
L 81.298381 163.802303 
L 82.119875 166.918233 
L 82.941369 122.41979 
L 83.762863 190.472724 
L 84.584358 231.304484 
L 85.405852 255.803541 
L 86.227346 270.502974 
L 87.870335 144.704028 
L 89.513324 89.336413 
L 90.334818 69.822698 
L 91.156312 60.130467 
L 91.977806 52.29913 
L 92.799301 49.616326 
L 93.620795 45.990646 
L 94.442289 43.815237 
L 95.263784 42.509992 
L 96.085278 41.726845 
L 96.906772 45.288959 
L 97.728266 43.394226 
L 98.549761 44.273383 
L 99.371255 44.800878 
L 100.192749 43.101377 
L 101.014244 46.113678 
L 101.835738 43.889057 
L 102.657232 42.554284 
L 103.478727 41.753421 
L 104.300221 41.272902 
L 105.121715 40.984591 
L 105.943209 44.843607 
L 106.764704 43.127014 
L 107.586198 42.097059 
L 108.407692 41.479085 
L 109.229187 41.108301 
L 110.872175 40.752348 
L 113.336658 40.595373 
L 119.908612 40.552851 
L 435.362422 40.552125 
L 483.009091 40.552125 
L 483.009091 40.552125 
" clip-path="url(#pc8be2742e1)" style="fill: none; stroke: #ff7f0e; stroke-width: 1.5; stroke-linecap: square"/>
   </g>
   <g id="line2d_25">
    <path d="M 77.190909 292.552125 
L 334.318623 292.552125 
L 335.140118 290.536125 
L 335.961612 291.342525 
L 336.783106 291.826365 
L 338.426095 292.290851 
L 340.890578 292.49569 
L 346.641038 292.550545 
L 483.009091 292.552125 
L 483.009091 292.552125 
" clip-path="url(#pc8be2742e1)" style="fill: none; stroke: #2ca02c; stroke-width: 1.5; stroke-linecap: square"/>
   </g>
   <g id="line2d_26">
    <path d="M 77.190909 292.552125 
L 80.476886 292.552125 
L 81.298381 288.520125 
L 82.119875 290.132925 
L 82.941369 285.052605 
L 83.762863 275.956413 
L 84.584358 276.546698 
L 85.405852 262.788869 
L 86.227346 264.614171 
L 87.048841 271.757353 
L 87.870335 263.947262 
L 88.691829 251.197208 
L 89.513324 249.595174 
L 90.334818 250.649955 
L 91.156312 257.330823 
L 91.977806 251.259343 
L 92.799301 253.664456 
L 93.620795 261.155524 
L 94.442289 263.634164 
L 95.263784 261.089348 
L 96.085278 257.546459 
L 96.906772 267.516726 
L 97.728266 265.434886 
L 98.549761 260.153782 
L 99.371255 265.049119 
L 100.192749 263.954322 
L 101.014244 263.297443 
L 101.835738 262.903316 
L 102.657232 266.69884 
L 103.478727 252.848155 
L 104.300221 256.633743 
L 105.121715 252.857095 
L 105.943209 240.511107 
L 106.764704 247.215514 
L 107.586198 249.222159 
L 108.407692 246.394145 
L 109.229187 250.745337 
L 110.050681 261.420052 
L 110.872175 259.760881 
L 111.693669 270.861379 
L 112.515164 271.473677 
L 113.336658 271.841057 
L 114.158152 272.061484 
L 114.979647 276.225741 
L 115.801141 272.676294 
L 116.622635 270.546626 
L 117.44413 275.316826 
L 118.265624 268.098945 
L 119.087118 247.640216 
L 119.908612 243.42898 
L 120.730107 228.806238 
L 121.551601 230.112593 
L 122.373095 240.976406 
L 123.19459 249.510694 
L 124.016084 230.439265 
L 124.837578 223.02841 
L 125.659073 210.517895 
L 126.480567 207.043586 
L 127.302061 200.927001 
L 128.123555 203.30505 
L 128.94505 188.60388 
L 129.766544 183.815177 
L 130.588038 182.957957 
L 131.409533 184.459625 
L 132.231027 197.456624 
L 133.052521 189.126824 
L 133.874015 184.128943 
L 134.69551 195.242217 
L 135.517004 197.878179 
L 136.338498 185.347757 
L 137.159993 191.941503 
L 137.981487 191.865751 
L 138.802981 177.708299 
L 139.624476 185.34183 
L 140.44597 187.905947 
L 141.267464 187.42842 
L 142.088958 173.029902 
L 142.910453 176.486791 
L 143.731947 174.528926 
L 144.553441 177.386206 
L 145.374936 179.100574 
L 146.19643 178.113193 
L 147.017924 181.552767 
L 147.839418 171.520508 
L 148.660913 177.597156 
L 149.482407 171.163146 
L 150.303901 175.366738 
L 151.125396 171.840893 
L 151.94689 179.805385 
L 152.768384 178.53608 
L 153.589879 173.742498 
L 154.411373 172.88235 
L 155.232867 174.382259 
L 156.054361 169.234207 
L 156.875856 184.289374 
L 157.69735 195.338475 
L 158.518844 201.967936 
L 159.340339 189.817613 
L 160.161833 206.719418 
L 160.983327 212.828501 
L 161.804821 214.477949 
L 162.626316 227.563619 
L 163.44781 199.127019 
L 164.269304 212.305062 
L 165.090799 210.131887 
L 165.912293 198.747982 
L 166.733787 208.045639 
L 167.555282 195.480233 
L 169.19827 179.385443 
L 170.019764 176.268117 
L 170.841259 170.365722 
L 171.662753 180.936284 
L 172.484247 181.230621 
L 173.305742 185.439222 
L 174.127236 177.884383 
L 174.94873 185.44748 
L 175.770225 202.081339 
L 176.591719 224.157653 
L 178.234707 211.078914 
L 179.056202 215.444198 
L 179.877696 209.999367 
L 180.69919 190.604472 
L 181.520685 185.015533 
L 182.342179 177.63017 
L 183.163673 169.16695 
L 183.985167 170.137021 
L 184.806662 170.719064 
L 185.628156 183.164287 
L 186.44965 198.695422 
L 187.271145 201.966103 
L 188.092639 207.96051 
L 188.914133 205.509155 
L 189.735628 200.006342 
L 190.557122 202.752655 
L 191.378616 208.432442 
L 192.20011 205.792314 
L 193.021605 202.192239 
L 194.664593 193.494567 
L 195.486088 180.701592 
L 196.307582 185.121805 
L 197.129076 177.693933 
L 197.95057 195.41321 
L 198.772065 204.028775 
L 199.593559 209.198114 
L 200.415053 208.267718 
L 201.236548 191.581481 
L 202.058042 203.745738 
L 202.879536 192.900292 
L 203.701031 204.537025 
L 204.522525 209.503064 
L 205.344019 200.38669 
L 206.165513 200.964862 
L 206.987008 195.263769 
L 207.808502 195.875112 
L 208.629996 192.209918 
L 209.451491 210.170801 
L 210.272985 212.883329 
L 211.094479 230.638848 
L 211.915974 217.100159 
L 212.737468 221.072946 
L 213.558962 223.456619 
L 214.380456 238.998822 
L 215.201951 230.180142 
L 216.023445 236.984934 
L 216.844939 222.923809 
L 217.666434 212.471136 
L 218.487928 216.279531 
L 219.309422 208.484569 
L 220.130916 207.839591 
L 221.773905 195.527614 
L 222.595399 206.113418 
L 223.416894 206.416901 
L 224.238388 200.55099 
L 225.059882 199.047444 
L 225.881377 198.145317 
L 226.702871 205.668039 
L 227.524365 196.069674 
L 228.345859 206.438654 
L 229.167354 202.580043 
L 229.988848 200.264876 
L 230.810342 204.923776 
L 231.631837 213.767117 
L 232.453331 198.913119 
L 233.274825 181.936719 
L 234.096319 177.798883 
L 234.917814 201.52418 
L 235.739308 199.631358 
L 236.560802 198.495665 
L 237.382297 187.73425 
L 238.203791 197.405401 
L 239.025285 211.272091 
L 239.84678 219.592105 
L 240.668274 236.680113 
L 241.489768 244.916918 
L 242.311262 259.939001 
L 243.132757 254.84025 
L 243.954251 235.653 
L 244.775745 232.204651 
L 247.240228 194.68379 
L 248.061722 213.671124 
L 248.883217 227.079523 
L 249.704711 233.108564 
L 250.526205 230.677989 
L 251.3477 241.315643 
L 252.169194 235.602237 
L 252.990688 236.206192 
L 253.812183 228.504564 
L 254.633677 231.947589 
L 256.276665 203.400092 
L 257.09816 202.772904 
L 257.919654 216.508593 
L 259.562643 233.726853 
L 260.384137 231.048963 
L 261.205631 237.506227 
L 262.027126 251.460586 
L 262.84862 253.785202 
L 263.670114 257.195971 
L 264.491608 247.146433 
L 265.313103 247.164709 
L 266.134597 241.127676 
L 266.956091 241.537455 
L 267.777586 237.751324 
L 268.59908 229.431643 
L 269.420574 236.535835 
L 270.242068 248.862351 
L 271.063563 244.162261 
L 271.885057 253.438206 
L 272.706551 252.955774 
L 273.528046 250.650314 
L 274.34954 259.347038 
L 275.171034 248.437074 
L 275.992529 247.939093 
L 276.814023 243.608306 
L 277.635517 255.121834 
L 278.457011 264.04595 
L 279.278506 255.28842 
L 280.1 256.081902 
L 280.921494 248.493991 
L 281.742989 249.989245 
L 282.564483 256.934397 
L 283.385977 253.037487 
L 284.207471 262.795343 
L 285.028966 252.522056 
L 285.85046 248.374083 
L 286.671954 249.9173 
L 287.493449 242.779231 
L 288.314943 246.560389 
L 289.136437 256.893083 
L 289.957932 248.9807 
L 290.779426 252.29727 
L 291.60092 254.287212 
L 292.422414 257.497177 
L 294.886897 233.048097 
L 295.708392 222.577708 
L 296.529886 216.295474 
L 297.35138 224.622135 
L 298.172874 241.714131 
L 298.994369 239.873329 
L 299.815863 236.752848 
L 300.637357 236.896559 
L 302.280346 260.420121 
L 303.10184 263.192923 
L 303.923335 262.840604 
L 304.744829 256.581212 
L 305.566323 258.873577 
L 306.387817 252.184996 
L 307.209312 256.235848 
L 308.030806 256.650359 
L 308.8523 260.931065 
L 309.673795 251.403489 
L 310.495289 255.766944 
L 311.316783 256.369016 
L 312.959772 265.414206 
L 313.781266 250.061375 
L 314.60276 236.817674 
L 315.424255 236.935454 
L 316.245749 228.942121 
L 317.067243 228.178124 
L 318.710232 242.363084 
L 319.531726 246.310701 
L 320.35322 234.567269 
L 321.174715 229.537212 
L 321.996209 226.519177 
L 322.817703 244.868356 
L 323.639198 253.861864 
L 324.460692 257.241968 
L 325.282186 255.238031 
L 326.103681 254.035669 
L 326.925175 251.298251 
L 327.746669 247.6398 
L 329.389658 227.193289 
L 330.211152 233.176823 
L 331.032646 244.830944 
L 331.854141 253.839416 
L 332.675635 255.2125 
L 333.497129 260.06835 
L 335.140118 249.811565 
L 336.783106 236.442325 
L 337.604601 242.758245 
L 338.426095 230.419798 
L 339.247589 233.096729 
L 340.069084 248.814887 
L 340.890578 250.181783 
L 341.712072 251.00192 
L 342.533566 259.558002 
L 343.355061 258.643651 
L 344.176555 258.095041 
L 344.998049 257.765874 
L 345.819544 263.616375 
L 346.641038 273.174675 
L 347.462532 270.845655 
L 349.105521 260.142596 
L 349.927015 246.898409 
L 350.748509 244.999895 
L 351.570004 251.924787 
L 352.391498 248.015722 
L 353.212992 247.686282 
L 354.034487 245.472619 
L 354.855981 248.176422 
L 355.677475 241.734704 
L 356.498969 227.789672 
L 357.320464 237.566653 
L 358.141958 251.496842 
L 359.784947 260.434623 
L 360.606441 257.153624 
L 361.427935 259.217025 
L 362.24943 254.407064 
L 363.070924 255.553088 
L 363.892418 252.208702 
L 364.713912 244.154072 
L 365.535407 253.433293 
L 366.356901 248.920826 
L 367.178395 242.181346 
L 367.99989 228.057657 
L 368.821384 223.615443 
L 369.642878 249.174116 
L 370.464372 258.46132 
L 371.285867 264.033642 
L 372.107361 261.329035 
L 372.928855 269.786271 
L 373.75035 272.844613 
L 374.571844 260.567617 
L 375.393338 257.233421 
L 376.214833 251.200902 
L 377.036327 251.613392 
L 377.857821 253.876885 
L 378.679315 255.234981 
L 379.50081 241.937838 
L 380.322304 250.087553 
L 381.143798 252.961382 
L 381.965293 258.717679 
L 382.786787 248.059458 
L 383.608281 245.696524 
L 384.429775 252.342765 
L 385.25127 250.282508 
L 386.072764 255.094355 
L 386.894258 253.949463 
L 387.715753 249.230528 
L 388.537247 250.431167 
L 389.358741 259.21555 
L 390.180236 258.43818 
L 391.00173 264.019758 
L 391.823224 265.352705 
L 392.644718 256.072473 
L 393.466213 262.600334 
L 394.287707 254.42105 
L 395.109201 255.56148 
L 395.930696 256.245738 
L 396.75219 248.592293 
L 397.573684 256.096226 
L 398.395179 254.550586 
L 399.216673 249.591201 
L 400.038167 256.695571 
L 400.859661 252.894192 
L 401.681156 260.693365 
L 402.50265 263.356869 
L 403.324144 268.986971 
L 404.145639 260.269032 
L 404.967133 253.022269 
L 405.788627 256.738212 
L 406.610121 252.919776 
L 407.431616 258.692716 
L 408.25311 252.076479 
L 409.074604 250.122737 
L 409.896099 254.998492 
L 410.717593 253.891946 
L 411.539087 251.212017 
L 412.360582 247.58806 
L 413.182076 239.365687 
L 414.00357 246.528262 
L 415.646559 255.420335 
L 417.289547 265.072681 
L 418.111042 261.952458 
L 418.932536 260.080325 
L 419.75403 267.021045 
L 420.575524 267.153477 
L 421.397019 261.184936 
L 422.218513 251.555812 
L 423.040007 247.794337 
L 423.861502 245.537452 
L 425.50449 258.289243 
L 426.325985 255.866396 
L 427.147479 256.428688 
L 427.968973 260.798062 
L 428.790467 261.403688 
L 429.611962 269.831063 
L 430.433456 266.823488 
L 431.25495 267.034943 
L 432.076445 263.129815 
L 432.897939 266.834739 
L 433.719433 260.993694 
L 434.540927 259.505066 
L 435.362422 262.64389 
L 436.183916 258.479184 
L 437.00541 260.012361 
L 437.826905 250.852267 
L 438.648399 261.48421 
L 439.469893 261.815376 
L 440.291388 262.014076 
L 441.112882 264.149295 
L 441.934376 265.430427 
L 443.577365 251.741913 
L 445.220353 260.522849 
L 446.041848 261.238559 
L 446.863342 257.635986 
L 447.684836 263.538442 
L 448.506331 267.079915 
L 449.327825 261.1408 
L 450.149319 257.57733 
L 450.970813 255.439248 
L 451.792308 250.124399 
L 452.613802 263.063489 
L 453.435296 262.762944 
L 454.256791 256.534616 
L 455.078285 254.81362 
L 456.721273 244.694263 
L 457.542768 247.709408 
L 458.364262 249.518495 
L 459.185756 252.619947 
L 460.007251 252.464819 
L 460.828745 250.35574 
L 461.650239 247.074294 
L 462.471734 249.137427 
L 463.293228 242.311307 
L 464.114722 248.295634 
L 464.936216 251.88623 
L 465.757711 247.992588 
L 466.579205 251.704403 
L 467.400699 243.851492 
L 468.222194 233.091744 
L 469.043688 236.715896 
L 469.865182 242.922388 
L 470.686676 244.630282 
L 471.508171 247.67102 
L 472.329665 253.527462 
L 473.151159 253.009328 
L 473.972654 244.634447 
L 474.794148 241.625518 
L 475.615642 249.900161 
L 476.437137 252.848947 
L 477.258631 250.586217 
L 478.080125 243.180581 
L 478.901619 246.801199 
L 479.723114 244.941569 
L 480.544608 247.857792 
L 481.366102 251.623525 
L 482.187597 241.786966 
L 483.009091 247.98103 
L 483.009091 247.98103 
" clip-path="url(#pc8be2742e1)" style="fill: none; stroke: #d62728; stroke-width: 1.5; stroke-linecap: square"/>
   </g>
   <g id="line2d_27">
    <path d="M 77.190909 292.552125 
L 483.009091 292.552125 
L 483.009091 292.552125 
" clip-path="url(#pc8be2742e1)" style="fill: none; stroke: #9467bd; stroke-width: 1.5; stroke-linecap: square"/>
   </g>
   <g id="patch_3">
    <path d="M 56.9 305.152125 
L 56.9 27.952125 
" style="fill: none; stroke: #000000; stroke-width: 0.8; stroke-linejoin: miter; stroke-linecap: square"/>
   </g>
   <g id="patch_4">
    <path d="M 503.3 305.152125 
L 503.3 27.952125 
" style="fill: none; stroke: #000000; stroke-width: 0.8; stroke-linejoin: miter; stroke-linecap: square"/>
   </g>
   <g id="patch_5">
    <path d="M 56.9 305.152125 
L 503.3 305.152125 
" style="fill: none; stroke: #000000; stroke-width: 0.8; stroke-linejoin: miter; stroke-linecap: square"/>
   </g>
   <g id="patch_6">
    <path d="M 56.9 27.952125 
L 503.3 27.952125 
" style="fill: none; stroke: #000000; stroke-width: 0.8; stroke-linejoin: miter; stroke-linecap: square"/>
   </g>
   <g id="text_15">
    <!-- ML10 Meta Testing -->
    <g transform="translate(193.104313 21.952125)scale(0.216 -0.216)">
     <defs>
      <path id="STIXGeneral-Regular-4d" d="M 5530 0 
L 3738 0 
L 3738 122 
Q 4115 147 4214 265 
Q 4314 384 4314 787 
L 4314 3661 
L 2682 0 
L 2592 0 
L 979 3514 
L 979 966 
Q 979 448 1088 294 
Q 1197 141 1574 122 
L 1574 0 
L 77 0 
L 77 122 
Q 358 141 480 205 
Q 602 269 650 432 
Q 698 595 698 966 
L 698 3514 
Q 698 3878 589 3984 
Q 480 4090 90 4115 
L 90 4237 
L 1357 4237 
L 2835 1024 
L 4250 4237 
L 5523 4237 
L 5523 4115 
Q 5178 4109 5072 3993 
Q 4966 3878 4966 3520 
L 4966 717 
Q 4966 378 5072 262 
Q 5178 147 5530 122 
L 5530 0 
z
" transform="scale(0.015625)"/>
      <path id="STIXGeneral-Regular-4c" d="M 3827 1114 
L 3520 0 
L 77 0 
L 77 122 
Q 429 141 531 256 
Q 634 371 634 736 
L 634 3494 
Q 634 3872 541 3981 
Q 448 4090 77 4115 
L 77 4237 
L 1888 4237 
L 1888 4115 
Q 1498 4090 1392 3984 
Q 1286 3878 1286 3507 
L 1286 538 
Q 1286 358 1398 304 
Q 1510 250 1862 250 
L 2310 250 
Q 3085 250 3392 640 
Q 3520 813 3661 1114 
L 3827 1114 
z
" transform="scale(0.015625)"/>
     </defs>
     <use xlink:href="#STIXGeneral-Regular-4d"/>
     <use xlink:href="#STIXGeneral-Regular-4c" x="88.899994"/>
     <use xlink:href="#STIXGeneral-Regular-31" x="149.999985"/>
     <use xlink:href="#STIXGeneral-Regular-30" x="199.999969"/>
     <use xlink:href="#STIXGeneral-Regular-20" x="249.999954"/>
     <use xlink:href="#STIXGeneral-Regular-4d" x="274.999939"/>
     <use xlink:href="#STIXGeneral-Regular-65" x="363.899933"/>
     <use xlink:href="#STIXGeneral-Regular-74" x="408.299927"/>
     <use xlink:href="#STIXGeneral-Regular-61" x="436.099915"/>
     <use xlink:href="#STIXGeneral-Regular-20" x="480.499908"/>
     <use xlink:href="#STIXGeneral-Regular-54" x="505.499893"/>
     <use xlink:href="#STIXGeneral-Regular-65" x="566.599884"/>
     <use xlink:href="#STIXGeneral-Regular-73" x="610.999878"/>
     <use xlink:href="#STIXGeneral-Regular-74" x="649.899872"/>
     <use xlink:href="#STIXGeneral-Regular-69" x="677.69986"/>
     <use xlink:href="#STIXGeneral-Regular-6e" x="705.499847"/>
     <use xlink:href="#STIXGeneral-Regular-67" x="755.499832"/>
    </g>
   </g>
   <g id="legend_1">
    <g id="patch_7">
     <path d="M 387.294687 205.052125 
L 497.7 205.052125 
Q 500.5 205.052125 500.5 202.252125 
L 500.5 130.852125 
Q 500.5 128.052125 497.7 128.052125 
L 387.294687 128.052125 
Q 384.494687 128.052125 384.494687 130.852125 
L 384.494687 202.252125 
Q 384.494687 205.052125 387.294687 205.052125 
z
" style="fill: #ffffff; opacity: 0.8; stroke: #cccccc; stroke-linejoin: miter"/>
    </g>
    <g id="line2d_28">
     <path d="M 388.694687 137.963687 
L 395.694687 137.963687 
L 402.694687 137.963687 
" style="fill: none; stroke: #1f77b4; stroke-width: 1.5; stroke-linecap: square"/>
    </g>
    <g id="text_16">
     <!-- drawer-open-v2 -->
     <g transform="translate(406.894687 141.813687)scale(0.14 -0.14)">
      <defs>
       <path id="STIXGeneral-Regular-64" d="M 3142 269 
L 2202 -64 
L 2176 -45 
L 2176 365 
Q 1869 -64 1357 -64 
Q 826 -64 499 317 
Q 173 698 173 1312 
Q 173 1990 563 2467 
Q 954 2944 1504 2944 
Q 1850 2944 2176 2669 
L 2176 3667 
Q 2176 3866 2118 3930 
Q 2061 3994 1882 3994 
Q 1792 3994 1741 3987 
L 1741 4090 
Q 2323 4243 2682 4371 
L 2714 4358 
L 2714 730 
Q 2714 506 2768 435 
Q 2822 365 2995 365 
Q 3034 365 3142 371 
L 3142 269 
z
M 2176 653 
L 2176 2125 
Q 2176 2381 1981 2573 
Q 1786 2765 1523 2765 
Q 1158 2765 940 2438 
Q 723 2112 723 1568 
Q 723 979 963 624 
Q 1203 269 1606 269 
Q 1907 269 2080 474 
Q 2176 582 2176 653 
z
" transform="scale(0.015625)"/>
       <path id="STIXGeneral-Regular-77" d="M 4442 2880 
L 4442 2784 
Q 4346 2752 4301 2691 
Q 4256 2630 4179 2438 
L 3296 224 
Q 3168 -90 3117 -90 
Q 3085 -90 3062 -48 
Q 3040 -6 2963 186 
L 2381 1696 
L 1664 160 
Q 1549 -90 1504 -90 
Q 1446 -90 1338 192 
L 474 2381 
Q 378 2630 314 2700 
Q 250 2771 134 2784 
L 134 2880 
L 1286 2880 
L 1286 2784 
Q 1120 2765 1056 2720 
Q 992 2675 992 2573 
Q 992 2477 1030 2381 
L 1664 710 
L 2246 1984 
L 2118 2342 
Q 2029 2598 1942 2681 
Q 1856 2765 1677 2784 
L 1677 2880 
L 2976 2880 
L 2976 2784 
Q 2752 2752 2678 2707 
Q 2605 2662 2605 2560 
Q 2605 2458 2714 2176 
L 3251 742 
L 3827 2163 
Q 3936 2432 3936 2592 
Q 3936 2669 3875 2710 
Q 3814 2752 3654 2784 
L 3654 2880 
L 4442 2880 
z
" transform="scale(0.015625)"/>
       <path id="STIXGeneral-Regular-2d" d="M 1824 1242 
L 250 1242 
L 250 1645 
L 1824 1645 
L 1824 1242 
z
" transform="scale(0.015625)"/>
      </defs>
      <use xlink:href="#STIXGeneral-Regular-64"/>
      <use xlink:href="#STIXGeneral-Regular-72" x="49.999985"/>
      <use xlink:href="#STIXGeneral-Regular-61" x="83.299973"/>
      <use xlink:href="#STIXGeneral-Regular-77" x="127.699966"/>
      <use xlink:href="#STIXGeneral-Regular-65" x="199.899948"/>
      <use xlink:href="#STIXGeneral-Regular-72" x="244.299942"/>
      <use xlink:href="#STIXGeneral-Regular-2d" x="277.59993"/>
      <use xlink:href="#STIXGeneral-Regular-6f" x="310.899918"/>
      <use xlink:href="#STIXGeneral-Regular-70" x="360.899902"/>
      <use xlink:href="#STIXGeneral-Regular-65" x="410.899887"/>
      <use xlink:href="#STIXGeneral-Regular-6e" x="455.299881"/>
      <use xlink:href="#STIXGeneral-Regular-2d" x="505.299866"/>
      <use xlink:href="#STIXGeneral-Regular-76" x="538.599854"/>
      <use xlink:href="#STIXGeneral-Regular-32" x="588.599838"/>
     </g>
    </g>
    <g id="line2d_29">
     <path d="M 388.694687 151.963687 
L 395.694687 151.963687 
L 402.694687 151.963687 
" style="fill: none; stroke: #ff7f0e; stroke-width: 1.5; stroke-linecap: square"/>
    </g>
    <g id="text_17">
     <!-- door-close-v2 -->
     <g transform="translate(406.894687 155.813687)scale(0.14 -0.14)">
      <defs>
       <path id="STIXGeneral-Regular-6c" d="M 1645 0 
L 134 0 
L 134 96 
Q 435 122 531 221 
Q 627 320 627 589 
L 627 3590 
Q 627 3821 569 3910 
Q 512 4000 358 4000 
Q 224 4000 122 3987 
L 122 4090 
Q 730 4237 1133 4371 
L 1165 4346 
L 1165 557 
Q 1165 288 1254 201 
Q 1344 115 1645 96 
L 1645 0 
z
" transform="scale(0.015625)"/>
      </defs>
      <use xlink:href="#STIXGeneral-Regular-64"/>
      <use xlink:href="#STIXGeneral-Regular-6f" x="49.999985"/>
      <use xlink:href="#STIXGeneral-Regular-6f" x="99.999969"/>
      <use xlink:href="#STIXGeneral-Regular-72" x="149.999954"/>
      <use xlink:href="#STIXGeneral-Regular-2d" x="183.299942"/>
      <use xlink:href="#STIXGeneral-Regular-63" x="216.59993"/>
      <use xlink:href="#STIXGeneral-Regular-6c" x="260.999924"/>
      <use xlink:href="#STIXGeneral-Regular-6f" x="288.799911"/>
      <use xlink:href="#STIXGeneral-Regular-73" x="338.799896"/>
      <use xlink:href="#STIXGeneral-Regular-65" x="377.69989"/>
      <use xlink:href="#STIXGeneral-Regular-2d" x="422.099884"/>
      <use xlink:href="#STIXGeneral-Regular-76" x="455.399872"/>
      <use xlink:href="#STIXGeneral-Regular-32" x="505.399857"/>
     </g>
    </g>
    <g id="line2d_30">
     <path d="M 388.694687 165.963687 
L 395.694687 165.963687 
L 402.694687 165.963687 
" style="fill: none; stroke: #2ca02c; stroke-width: 1.5; stroke-linecap: square"/>
    </g>
    <g id="text_18">
     <!-- shelf-place-v2 -->
     <g transform="translate(406.894687 169.813687)scale(0.14 -0.14)">
      <defs>
       <path id="STIXGeneral-Regular-68" d="M 3117 0 
L 1760 0 
L 1760 96 
Q 2042 128 2118 224 
Q 2195 320 2195 653 
L 2195 1920 
Q 2195 2598 1722 2598 
Q 1530 2598 1370 2508 
Q 1210 2419 1005 2195 
L 1005 653 
Q 1005 320 1081 224 
Q 1158 128 1440 96 
L 1440 0 
L 58 0 
L 58 96 
Q 333 134 400 224 
Q 467 314 467 653 
L 467 3667 
Q 467 3872 406 3933 
Q 346 3994 141 3994 
Q 83 3994 64 3987 
L 64 4090 
L 237 4141 
Q 730 4288 973 4371 
L 1005 4352 
L 1005 2406 
Q 1229 2694 1446 2819 
Q 1664 2944 1946 2944 
Q 2733 2944 2733 1926 
L 2733 653 
Q 2733 320 2793 233 
Q 2854 147 3117 96 
L 3117 0 
z
" transform="scale(0.015625)"/>
       <path id="STIXGeneral-Regular-66" d="M 134 2880 
L 659 2880 
Q 666 3264 710 3478 
Q 755 3693 883 3910 
Q 1152 4371 1786 4371 
Q 2074 4371 2262 4259 
Q 2451 4147 2451 3974 
Q 2451 3866 2374 3789 
Q 2298 3712 2182 3712 
Q 2029 3712 1894 3942 
Q 1741 4192 1555 4192 
Q 1197 4192 1197 3622 
L 1197 2880 
L 1978 2880 
L 1978 2675 
L 1197 2675 
L 1197 666 
Q 1197 307 1299 208 
Q 1402 109 1792 96 
L 1792 0 
L 128 0 
L 128 96 
Q 474 115 566 214 
Q 659 314 659 666 
L 659 2675 
L 134 2675 
L 134 2880 
z
" transform="scale(0.015625)"/>
      </defs>
      <use xlink:href="#STIXGeneral-Regular-73"/>
      <use xlink:href="#STIXGeneral-Regular-68" x="38.899994"/>
      <use xlink:href="#STIXGeneral-Regular-65" x="88.899979"/>
      <use xlink:href="#STIXGeneral-Regular-6c" x="133.299973"/>
      <use xlink:href="#STIXGeneral-Regular-66" x="161.09996"/>
      <use xlink:href="#STIXGeneral-Regular-2d" x="194.399948"/>
      <use xlink:href="#STIXGeneral-Regular-70" x="227.699936"/>
      <use xlink:href="#STIXGeneral-Regular-6c" x="277.699921"/>
      <use xlink:href="#STIXGeneral-Regular-61" x="305.499908"/>
      <use xlink:href="#STIXGeneral-Regular-63" x="349.899902"/>
      <use xlink:href="#STIXGeneral-Regular-65" x="394.299896"/>
      <use xlink:href="#STIXGeneral-Regular-2d" x="438.69989"/>
      <use xlink:href="#STIXGeneral-Regular-76" x="471.999878"/>
      <use xlink:href="#STIXGeneral-Regular-32" x="521.999863"/>
     </g>
    </g>
    <g id="line2d_31">
     <path d="M 388.694687 179.963687 
L 395.694687 179.963687 
L 402.694687 179.963687 
" style="fill: none; stroke: #d62728; stroke-width: 1.5; stroke-linecap: square"/>
    </g>
    <g id="text_19">
     <!-- sweep-into-v2 -->
     <g transform="translate(406.894687 183.813687)scale(0.14 -0.14)">
      <use xlink:href="#STIXGeneral-Regular-73"/>
      <use xlink:href="#STIXGeneral-Regular-77" x="38.899994"/>
      <use xlink:href="#STIXGeneral-Regular-65" x="111.099976"/>
      <use xlink:href="#STIXGeneral-Regular-65" x="155.499969"/>
      <use xlink:href="#STIXGeneral-Regular-70" x="199.899963"/>
      <use xlink:href="#STIXGeneral-Regular-2d" x="249.899948"/>
      <use xlink:href="#STIXGeneral-Regular-69" x="283.199936"/>
      <use xlink:href="#STIXGeneral-Regular-6e" x="310.999924"/>
      <use xlink:href="#STIXGeneral-Regular-74" x="360.999908"/>
      <use xlink:href="#STIXGeneral-Regular-6f" x="388.799896"/>
      <use xlink:href="#STIXGeneral-Regular-2d" x="438.799881"/>
      <use xlink:href="#STIXGeneral-Regular-76" x="472.099869"/>
      <use xlink:href="#STIXGeneral-Regular-32" x="522.099854"/>
     </g>
    </g>
    <g id="line2d_32">
     <path d="M 388.694687 193.963687 
L 395.694687 193.963687 
L 402.694687 193.963687 
" style="fill: none; stroke: #9467bd; stroke-width: 1.5; stroke-linecap: square"/>
    </g>
    <g id="text_20">
     <!-- lever-pull-v2 -->
     <g transform="translate(406.894687 197.813687)scale(0.14 -0.14)">
      <use xlink:href="#STIXGeneral-Regular-6c"/>
      <use xlink:href="#STIXGeneral-Regular-65" x="27.799988"/>
      <use xlink:href="#STIXGeneral-Regular-76" x="72.199982"/>
      <use xlink:href="#STIXGeneral-Regular-65" x="122.199966"/>
      <use xlink:href="#STIXGeneral-Regular-72" x="166.59996"/>
      <use xlink:href="#STIXGeneral-Regular-2d" x="199.899948"/>
      <use xlink:href="#STIXGeneral-Regular-70" x="233.199936"/>
      <use xlink:href="#STIXGeneral-Regular-75" x="283.199921"/>
      <use xlink:href="#STIXGeneral-Regular-6c" x="333.199905"/>
      <use xlink:href="#STIXGeneral-Regular-6c" x="360.999893"/>
      <use xlink:href="#STIXGeneral-Regular-2d" x="388.799881"/>
      <use xlink:href="#STIXGeneral-Regular-76" x="422.099869"/>
      <use xlink:href="#STIXGeneral-Regular-32" x="472.099854"/>
     </g>
    </g>
   </g>
  </g>
 </g>
 <defs>
  <clipPath id="pc8be2742e1">
   <rect x="56.9" y="27.952125" width="446.4" height="277.2"/>
  </clipPath>
 </defs>
</svg>
