<?xml version="1.0" encoding="utf-8" standalone="no"?>
<!DOCTYPE svg PUBLIC "-//W3C//DTD SVG 1.1//EN"
  "http://www.w3.org/Graphics/SVG/1.1/DTD/svg11.dtd">
<svg xmlns:xlink="http://www.w3.org/1999/xlink" width="524pt" height="355.769pt" viewBox="0 0 524 355.769" xmlns="http://www.w3.org/2000/svg" version="1.1">
 <metadata>
  <rdf:RDF xmlns:dc="http://purl.org/dc/elements/1.1/" xmlns:cc="http://creativecommons.org/ns#" xmlns:rdf="http://www.w3.org/1999/02/22-rdf-syntax-ns#">
   <cc:Work>
    <dc:type rdf:resource="http://purl.org/dc/dcmitype/StillImage"/>
    <dc:date>2021-12-11T16:38:04.874631</dc:date>
    <dc:format>image/svg+xml</dc:format>
    <dc:creator>
     <cc:Agent>
      <dc:title>Matplotlib v3.5.0, https://matplotlib.org/</dc:title>
     </cc:Agent>
    </dc:creator>
   </cc:Work>
  </rdf:RDF>
 </metadata>
 <defs>
  <style type="text/css">*{stroke-linejoin: round; stroke-linecap: butt}</style>
 </defs>
 <g id="figure_1">
  <g id="patch_1">
   <path d="M 0 355.769 
L 524 355.769 
L 524 0 
L 0 0 
z
" style="fill: #ffffff"/>
  </g>
  <g id="axes_1">
   <g id="patch_2">
    <path d="M 70.4 305.152125 
L 516.8 305.152125 
L 516.8 27.952125 
L 70.4 27.952125 
z
" style="fill: #ffffff"/>
   </g>
   <g id="matplotlib.axis_1">
    <g id="xtick_1">
     <g id="line2d_1">
      <path d="M 89.890479 305.152125 
L 89.890479 27.952125 
" clip-path="url(#pa7610d5f48)" style="fill: none; stroke: #b0b0b0; stroke-width: 0.8; stroke-linecap: square"/>
     </g>
     <g id="line2d_2">
      <defs>
       <path id="m29c0344dab" d="M 0 0 
L 0 3.5 
" style="stroke: #000000; stroke-width: 0.8"/>
      </defs>
      <g>
       <use xlink:href="#m29c0344dab" x="89.890479" y="305.152125" style="stroke: #000000; stroke-width: 0.8"/>
      </g>
     </g>
     <g id="text_1">
      <!-- 0.0 -->
      <g transform="translate(78.640479 324.445562)scale(0.18 -0.18)">
       <defs>
        <path id="STIXGeneral-Regular-30" d="M 3046 2112 
Q 3046 1683 2963 1302 
Q 2880 922 2717 602 
Q 2554 282 2266 96 
Q 1978 -90 1600 -90 
Q 1210 -90 915 108 
Q 621 307 461 640 
Q 301 973 227 1350 
Q 154 1728 154 2150 
Q 154 2746 301 3222 
Q 448 3699 790 4012 
Q 1133 4326 1626 4326 
Q 2253 4326 2649 3712 
Q 3046 3098 3046 2112 
z
M 2432 2080 
Q 2432 3091 2217 3625 
Q 2003 4160 1587 4160 
Q 1190 4160 979 3622 
Q 768 3085 768 2106 
Q 768 1120 979 598 
Q 1190 77 1600 77 
Q 2003 77 2217 598 
Q 2432 1120 2432 2080 
z
" transform="scale(0.015625)"/>
        <path id="STIXGeneral-Regular-2e" d="M 1158 275 
Q 1158 134 1052 32 
Q 947 -70 800 -70 
Q 653 -70 550 32 
Q 448 134 448 281 
Q 448 429 553 534 
Q 659 640 806 640 
Q 947 640 1052 531 
Q 1158 422 1158 275 
z
" transform="scale(0.015625)"/>
       </defs>
       <use xlink:href="#STIXGeneral-Regular-30"/>
       <use xlink:href="#STIXGeneral-Regular-2e" x="49.999985"/>
       <use xlink:href="#STIXGeneral-Regular-30" x="74.999969"/>
      </g>
     </g>
    </g>
    <g id="xtick_2">
     <g id="line2d_3">
      <path d="M 169.933513 305.152125 
L 169.933513 27.952125 
" clip-path="url(#pa7610d5f48)" style="fill: none; stroke: #b0b0b0; stroke-width: 0.8; stroke-linecap: square"/>
     </g>
     <g id="line2d_4">
      <g>
       <use xlink:href="#m29c0344dab" x="169.933513" y="305.152125" style="stroke: #000000; stroke-width: 0.8"/>
      </g>
     </g>
     <g id="text_2">
      <!-- 0.2 -->
      <g transform="translate(158.683513 324.445562)scale(0.18 -0.18)">
       <defs>
        <path id="STIXGeneral-Regular-32" d="M 3034 877 
L 2688 0 
L 186 0 
L 186 77 
L 1325 1286 
Q 1773 1754 1965 2144 
Q 2157 2534 2157 2950 
Q 2157 3379 1920 3616 
Q 1683 3853 1267 3853 
Q 922 3853 720 3673 
Q 518 3494 326 3021 
L 192 3053 
Q 301 3648 630 3987 
Q 960 4326 1523 4326 
Q 2054 4326 2380 4006 
Q 2707 3686 2707 3200 
Q 2707 2477 1888 1613 
L 832 486 
L 2330 486 
Q 2541 486 2665 569 
Q 2790 653 2944 915 
L 3034 877 
z
" transform="scale(0.015625)"/>
       </defs>
       <use xlink:href="#STIXGeneral-Regular-30"/>
       <use xlink:href="#STIXGeneral-Regular-2e" x="49.999985"/>
       <use xlink:href="#STIXGeneral-Regular-32" x="74.999969"/>
      </g>
     </g>
    </g>
    <g id="xtick_3">
     <g id="line2d_5">
      <path d="M 249.976547 305.152125 
L 249.976547 27.952125 
" clip-path="url(#pa7610d5f48)" style="fill: none; stroke: #b0b0b0; stroke-width: 0.8; stroke-linecap: square"/>
     </g>
     <g id="line2d_6">
      <g>
       <use xlink:href="#m29c0344dab" x="249.976547" y="305.152125" style="stroke: #000000; stroke-width: 0.8"/>
      </g>
     </g>
     <g id="text_3">
      <!-- 0.4 -->
      <g transform="translate(238.726547 324.445562)scale(0.18 -0.18)">
       <defs>
        <path id="STIXGeneral-Regular-34" d="M 3027 1069 
L 2368 1069 
L 2368 0 
L 1869 0 
L 1869 1069 
L 77 1069 
L 77 1478 
L 2086 4326 
L 2368 4326 
L 2368 1478 
L 3027 1478 
L 3027 1069 
z
M 1869 1478 
L 1869 3674 
L 333 1478 
L 1869 1478 
z
" transform="scale(0.015625)"/>
       </defs>
       <use xlink:href="#STIXGeneral-Regular-30"/>
       <use xlink:href="#STIXGeneral-Regular-2e" x="49.999985"/>
       <use xlink:href="#STIXGeneral-Regular-34" x="74.999969"/>
      </g>
     </g>
    </g>
    <g id="xtick_4">
     <g id="line2d_7">
      <path d="M 330.01958 305.152125 
L 330.01958 27.952125 
" clip-path="url(#pa7610d5f48)" style="fill: none; stroke: #b0b0b0; stroke-width: 0.8; stroke-linecap: square"/>
     </g>
     <g id="line2d_8">
      <g>
       <use xlink:href="#m29c0344dab" x="330.01958" y="305.152125" style="stroke: #000000; stroke-width: 0.8"/>
      </g>
     </g>
     <g id="text_4">
      <!-- 0.6 -->
      <g transform="translate(318.76958 324.445562)scale(0.18 -0.18)">
       <defs>
        <path id="STIXGeneral-Regular-36" d="M 2854 4378 
L 2867 4275 
Q 2112 4154 1606 3664 
Q 1101 3174 973 2451 
Q 1344 2739 1786 2739 
Q 2349 2739 2672 2380 
Q 2995 2022 2995 1402 
Q 2995 774 2669 378 
Q 2291 -90 1651 -90 
Q 870 -90 518 557 
Q 218 1107 218 1786 
Q 218 2835 915 3552 
Q 1312 3962 1731 4131 
Q 2150 4301 2854 4378 
z
M 2419 1203 
Q 2419 2445 1555 2445 
Q 1235 2445 1024 2275 
Q 813 2106 813 1702 
Q 813 954 1046 522 
Q 1280 90 1722 90 
Q 2061 90 2240 394 
Q 2419 698 2419 1203 
z
" transform="scale(0.015625)"/>
       </defs>
       <use xlink:href="#STIXGeneral-Regular-30"/>
       <use xlink:href="#STIXGeneral-Regular-2e" x="49.999985"/>
       <use xlink:href="#STIXGeneral-Regular-36" x="74.999969"/>
      </g>
     </g>
    </g>
    <g id="xtick_5">
     <g id="line2d_9">
      <path d="M 410.062614 305.152125 
L 410.062614 27.952125 
" clip-path="url(#pa7610d5f48)" style="fill: none; stroke: #b0b0b0; stroke-width: 0.8; stroke-linecap: square"/>
     </g>
     <g id="line2d_10">
      <g>
       <use xlink:href="#m29c0344dab" x="410.062614" y="305.152125" style="stroke: #000000; stroke-width: 0.8"/>
      </g>
     </g>
     <g id="text_5">
      <!-- 0.8 -->
      <g transform="translate(398.812614 324.445562)scale(0.18 -0.18)">
       <defs>
        <path id="STIXGeneral-Regular-38" d="M 2848 992 
Q 2848 499 2505 204 
Q 2163 -90 1587 -90 
Q 1050 -90 704 204 
Q 358 499 358 954 
Q 358 1293 524 1533 
Q 691 1773 1190 2125 
Q 710 2522 553 2765 
Q 397 3008 397 3328 
Q 397 3782 745 4054 
Q 1094 4326 1638 4326 
Q 2106 4326 2410 4060 
Q 2714 3795 2714 3411 
Q 2714 3059 2531 2848 
Q 2349 2637 1856 2374 
Q 2432 1990 2640 1689 
Q 2848 1389 2848 992 
z
M 2272 3411 
Q 2272 3744 2086 3945 
Q 1901 4147 1574 4147 
Q 1248 4147 1059 3977 
Q 870 3808 870 3513 
Q 870 3219 1059 2979 
Q 1248 2739 1670 2490 
Q 1997 2682 2134 2896 
Q 2272 3110 2272 3411 
z
M 1734 1741 
L 1357 1997 
Q 1075 1766 960 1545 
Q 845 1325 845 1011 
Q 845 576 1065 333 
Q 1286 90 1658 90 
Q 1971 90 2166 285 
Q 2362 480 2362 794 
Q 2362 1082 2214 1299 
Q 2067 1517 1734 1741 
z
" transform="scale(0.015625)"/>
       </defs>
       <use xlink:href="#STIXGeneral-Regular-30"/>
       <use xlink:href="#STIXGeneral-Regular-2e" x="49.999985"/>
       <use xlink:href="#STIXGeneral-Regular-38" x="74.999969"/>
      </g>
     </g>
    </g>
    <g id="xtick_6">
     <g id="line2d_11">
      <path d="M 490.105648 305.152125 
L 490.105648 27.952125 
" clip-path="url(#pa7610d5f48)" style="fill: none; stroke: #b0b0b0; stroke-width: 0.8; stroke-linecap: square"/>
     </g>
     <g id="line2d_12">
      <g>
       <use xlink:href="#m29c0344dab" x="490.105648" y="305.152125" style="stroke: #000000; stroke-width: 0.8"/>
      </g>
     </g>
     <g id="text_6">
      <!-- 1.0 -->
      <g transform="translate(478.855648 324.445562)scale(0.18 -0.18)">
       <defs>
        <path id="STIXGeneral-Regular-31" d="M 2522 0 
L 755 0 
L 755 96 
Q 1107 115 1235 227 
Q 1363 339 1363 608 
L 1363 3482 
Q 1363 3795 1171 3795 
Q 1082 3795 883 3718 
L 710 3654 
L 710 3744 
L 1856 4326 
L 1914 4307 
L 1914 486 
Q 1914 275 2042 185 
Q 2170 96 2522 96 
L 2522 0 
z
" transform="scale(0.015625)"/>
       </defs>
       <use xlink:href="#STIXGeneral-Regular-31"/>
       <use xlink:href="#STIXGeneral-Regular-2e" x="49.999985"/>
       <use xlink:href="#STIXGeneral-Regular-30" x="74.999969"/>
      </g>
     </g>
    </g>
    <g id="text_7">
     <!-- Training Environment Steps -->
     <g transform="translate(191.604688 344.645562)scale(0.18 -0.18)">
      <defs>
       <path id="STIXGeneral-Regular-54" d="M 3795 3149 
L 3642 3149 
Q 3539 3674 3353 3821 
Q 3168 3968 2656 3968 
L 2278 3968 
L 2278 710 
Q 2278 346 2387 243 
Q 2496 141 2893 122 
L 2893 0 
L 1024 0 
L 1024 122 
Q 1427 147 1526 256 
Q 1626 365 1626 787 
L 1626 3968 
L 1242 3968 
Q 723 3968 540 3817 
Q 358 3667 262 3149 
L 109 3149 
L 154 4237 
L 3750 4237 
L 3795 3149 
z
" transform="scale(0.015625)"/>
       <path id="STIXGeneral-Regular-72" d="M 1024 2931 
L 1024 2342 
Q 1267 2688 1430 2816 
Q 1594 2944 1792 2944 
Q 1958 2944 2051 2854 
Q 2144 2765 2144 2605 
Q 2144 2470 2077 2393 
Q 2010 2317 1894 2317 
Q 1773 2317 1638 2445 
Q 1536 2541 1472 2541 
Q 1338 2541 1181 2355 
Q 1024 2170 1024 2016 
L 1024 576 
Q 1024 301 1133 205 
Q 1242 109 1568 96 
L 1568 0 
L 32 0 
L 32 96 
Q 339 154 412 224 
Q 486 294 486 538 
L 486 2138 
Q 486 2349 438 2435 
Q 390 2522 269 2522 
Q 166 2522 45 2496 
L 45 2598 
Q 448 2726 992 2944 
L 1024 2931 
z
" transform="scale(0.015625)"/>
       <path id="STIXGeneral-Regular-61" d="M 2829 422 
L 2829 243 
Q 2586 -64 2253 -64 
Q 1888 -64 1843 403 
L 1837 403 
Q 1427 -64 909 -64 
Q 608 -64 422 112 
Q 237 288 237 602 
Q 237 1050 685 1350 
Q 992 1555 1837 1869 
L 1837 2214 
Q 1837 2502 1699 2646 
Q 1562 2790 1338 2790 
Q 1146 2790 1018 2697 
Q 890 2605 890 2477 
Q 890 2419 909 2348 
Q 928 2278 928 2208 
Q 928 2112 841 2029 
Q 755 1946 634 1946 
Q 525 1946 441 2029 
Q 358 2112 358 2240 
Q 358 2547 685 2752 
Q 986 2944 1421 2944 
Q 1939 2944 2176 2656 
Q 2291 2522 2323 2384 
Q 2355 2246 2355 1946 
L 2355 723 
Q 2355 301 2554 301 
Q 2682 301 2829 422 
z
M 1837 813 
L 1837 1715 
Q 1248 1510 1018 1293 
Q 800 1094 800 800 
Q 800 557 921 432 
Q 1043 307 1242 307 
Q 1453 307 1613 410 
Q 1747 506 1792 589 
Q 1837 672 1837 813 
z
" transform="scale(0.015625)"/>
       <path id="STIXGeneral-Regular-69" d="M 1152 4045 
Q 1152 3904 1056 3811 
Q 960 3718 819 3718 
Q 685 3718 592 3811 
Q 499 3904 499 4045 
Q 499 4179 595 4275 
Q 691 4371 826 4371 
Q 966 4371 1059 4275 
Q 1152 4179 1152 4045 
z
M 1619 0 
L 102 0 
L 102 96 
Q 435 115 521 211 
Q 608 307 608 666 
L 608 2118 
Q 608 2342 563 2432 
Q 518 2522 397 2522 
Q 243 2522 128 2490 
L 128 2592 
L 1120 2944 
L 1146 2918 
L 1146 672 
Q 1146 314 1226 218 
Q 1306 122 1619 96 
L 1619 0 
z
" transform="scale(0.015625)"/>
       <path id="STIXGeneral-Regular-6e" d="M 3104 0 
L 1773 0 
L 1779 96 
Q 2016 115 2096 233 
Q 2176 352 2176 672 
L 2176 1946 
Q 2176 2592 1709 2592 
Q 1549 2592 1408 2515 
Q 1267 2438 1050 2227 
L 1050 461 
Q 1050 269 1136 192 
Q 1222 115 1466 96 
L 1466 0 
L 115 0 
L 115 96 
Q 358 115 435 214 
Q 512 314 512 602 
L 512 2157 
Q 512 2394 467 2483 
Q 422 2573 288 2573 
Q 160 2573 102 2547 
L 102 2656 
Q 550 2784 979 2944 
L 1030 2925 
L 1030 2426 
L 1037 2426 
Q 1491 2944 1958 2944 
Q 2323 2944 2518 2688 
Q 2714 2432 2714 1958 
L 2714 544 
Q 2714 288 2790 205 
Q 2867 122 3104 96 
L 3104 0 
z
" transform="scale(0.015625)"/>
       <path id="STIXGeneral-Regular-67" d="M 3008 2483 
L 2477 2483 
Q 2598 2208 2598 1946 
Q 2598 1453 2265 1203 
Q 1933 954 1600 954 
Q 1530 954 1357 973 
L 1235 986 
Q 1107 947 979 812 
Q 851 678 851 582 
Q 851 435 1350 410 
L 2176 371 
Q 2528 358 2739 172 
Q 2950 -13 2950 -314 
Q 2950 -685 2566 -986 
Q 2035 -1395 1286 -1395 
Q 826 -1395 502 -1212 
Q 179 -1030 179 -774 
Q 179 -595 320 -419 
Q 461 -243 806 6 
Q 602 102 534 172 
Q 467 243 467 346 
Q 467 531 762 787 
Q 909 915 1037 1043 
Q 717 1203 579 1401 
Q 442 1600 442 1901 
Q 442 2336 752 2640 
Q 1062 2944 1510 2944 
Q 1766 2944 2022 2848 
L 2163 2797 
Q 2349 2733 2515 2733 
L 3008 2733 
L 3008 2483 
z
M 973 2163 
L 973 2144 
Q 973 1683 1155 1398 
Q 1338 1114 1632 1114 
Q 1850 1114 1978 1270 
Q 2106 1427 2106 1690 
Q 2106 2112 1914 2464 
Q 1754 2765 1446 2765 
Q 1222 2765 1097 2605 
Q 973 2445 973 2163 
z
M 2771 -410 
Q 2771 -230 2595 -163 
Q 2419 -96 1978 -96 
Q 1344 -96 941 -13 
Q 749 -243 688 -348 
Q 627 -454 627 -563 
Q 627 -774 880 -902 
Q 1133 -1030 1555 -1030 
Q 2099 -1030 2435 -860 
Q 2771 -691 2771 -410 
z
" transform="scale(0.015625)"/>
       <path id="STIXGeneral-Regular-20" transform="scale(0.015625)"/>
       <path id="STIXGeneral-Regular-45" d="M 3821 1082 
L 3526 0 
L 77 0 
L 77 122 
Q 442 147 538 252 
Q 634 358 634 730 
L 634 3520 
Q 634 3878 534 3987 
Q 435 4096 77 4115 
L 77 4237 
L 3469 4237 
L 3494 3322 
L 3334 3322 
Q 3264 3750 3085 3872 
Q 2906 3994 2349 3994 
L 1510 3994 
Q 1370 3994 1328 3952 
Q 1286 3910 1286 3763 
L 1286 2355 
L 2253 2355 
Q 2656 2355 2787 2470 
Q 2918 2586 2976 2970 
L 3123 2970 
L 3123 1472 
L 2976 1472 
Q 2918 1875 2790 1984 
Q 2662 2093 2253 2093 
L 1286 2093 
L 1286 538 
Q 1286 346 1420 291 
Q 1555 237 1933 237 
L 2163 237 
Q 2848 237 3136 403 
Q 3424 570 3642 1082 
L 3821 1082 
z
" transform="scale(0.015625)"/>
       <path id="STIXGeneral-Regular-76" d="M 3053 2880 
L 3053 2784 
Q 2906 2771 2835 2688 
Q 2765 2605 2637 2285 
L 1818 230 
Q 1690 -90 1638 -90 
Q 1587 -90 1523 77 
Q 1510 96 1497 141 
Q 1485 186 1472 211 
L 704 2048 
Q 499 2534 403 2652 
Q 307 2771 122 2784 
L 122 2880 
L 1376 2880 
L 1376 2784 
Q 1210 2771 1146 2732 
Q 1082 2694 1082 2611 
Q 1082 2509 1139 2368 
L 1792 730 
L 2426 2387 
Q 2464 2483 2464 2579 
Q 2464 2758 2163 2784 
L 2163 2880 
L 3053 2880 
z
" transform="scale(0.015625)"/>
       <path id="STIXGeneral-Regular-6f" d="M 3008 1478 
Q 3008 806 2608 371 
Q 2208 -64 1568 -64 
Q 979 -64 582 368 
Q 186 800 186 1459 
Q 186 2125 582 2534 
Q 979 2944 1626 2944 
Q 2221 2944 2614 2537 
Q 3008 2131 3008 1478 
z
M 2432 1306 
Q 2432 2035 2112 2445 
Q 1856 2765 1504 2765 
Q 1171 2765 966 2493 
Q 762 2221 762 1747 
Q 762 928 1101 435 
Q 1318 115 1677 115 
Q 2029 115 2230 432 
Q 2432 749 2432 1306 
z
" transform="scale(0.015625)"/>
       <path id="STIXGeneral-Regular-6d" d="M 4960 0 
L 3565 0 
L 3565 96 
Q 3834 122 3907 208 
Q 3981 294 3981 576 
L 3981 1894 
Q 3981 2278 3869 2444 
Q 3757 2611 3488 2611 
Q 3264 2611 3107 2521 
Q 2950 2432 2803 2221 
L 2803 608 
Q 2803 301 2896 201 
Q 2989 102 3264 96 
L 3264 0 
L 1830 0 
L 1830 96 
Q 2112 115 2189 188 
Q 2266 262 2266 550 
L 2266 1901 
Q 2266 2611 1850 2611 
Q 1670 2611 1468 2531 
Q 1267 2451 1171 2336 
Q 1088 2240 1088 2227 
L 1088 448 
Q 1088 243 1177 176 
Q 1267 109 1523 96 
L 1523 0 
L 102 0 
L 102 96 
Q 371 102 460 195 
Q 550 288 550 563 
L 550 2150 
Q 550 2387 499 2480 
Q 448 2573 326 2573 
Q 230 2573 122 2547 
L 122 2656 
Q 557 2778 1011 2944 
L 1062 2925 
L 1062 2451 
L 1075 2451 
Q 1363 2752 1584 2848 
Q 1805 2944 2054 2944 
Q 2560 2944 2733 2406 
Q 3232 2944 3776 2944 
Q 4518 2944 4518 1792 
L 4518 493 
Q 4518 282 4582 202 
Q 4646 122 4794 109 
L 4960 96 
L 4960 0 
z
" transform="scale(0.015625)"/>
       <path id="STIXGeneral-Regular-65" d="M 2611 1050 
L 2714 1005 
Q 2330 -64 1376 -64 
Q 813 -64 486 329 
Q 160 723 160 1389 
Q 160 2074 525 2509 
Q 890 2944 1485 2944 
Q 2061 2944 2374 2502 
Q 2560 2246 2592 1773 
L 621 1773 
Q 646 1370 700 1158 
Q 755 947 915 730 
Q 1184 378 1626 378 
Q 1939 378 2153 531 
Q 2368 685 2611 1050 
z
M 634 1978 
L 1939 1978 
Q 1882 2381 1750 2547 
Q 1619 2714 1312 2714 
Q 1043 2714 864 2525 
Q 685 2336 634 1978 
z
" transform="scale(0.015625)"/>
       <path id="STIXGeneral-Regular-74" d="M 1702 493 
L 1786 422 
Q 1478 -64 1011 -64 
Q 448 -64 448 749 
L 448 2675 
L 109 2675 
Q 83 2694 83 2720 
Q 83 2771 192 2842 
Q 435 2982 813 3526 
Q 826 3546 874 3606 
Q 922 3667 941 3706 
Q 986 3706 986 3622 
L 986 2880 
L 1632 2880 
L 1632 2675 
L 986 2675 
L 986 845 
Q 986 538 1062 403 
Q 1139 269 1318 269 
Q 1510 269 1702 493 
z
" transform="scale(0.015625)"/>
       <path id="STIXGeneral-Regular-53" d="M 3002 2963 
L 2842 2963 
Q 2733 3360 2579 3565 
Q 2189 4064 1651 4064 
Q 1357 4064 1181 3894 
Q 1005 3725 1005 3456 
Q 1005 3328 1069 3206 
Q 1133 3085 1206 2998 
Q 1280 2912 1465 2784 
Q 1651 2656 1766 2589 
Q 1882 2522 2150 2362 
Q 2669 2061 2905 1763 
Q 3142 1466 3142 1107 
Q 3142 576 2771 243 
Q 2400 -90 1837 -90 
Q 1421 -90 1082 58 
Q 915 128 781 128 
Q 704 128 653 70 
Q 602 13 602 -83 
L 461 -83 
L 275 1274 
L 416 1274 
Q 845 141 1734 141 
Q 2074 141 2285 342 
Q 2496 544 2496 858 
Q 2496 1158 2310 1363 
Q 2003 1696 1235 2106 
Q 454 2522 454 3206 
Q 454 3718 768 4022 
Q 1082 4326 1568 4326 
Q 1907 4326 2240 4186 
Q 2413 4109 2522 4109 
Q 2688 4109 2726 4326 
L 2861 4326 
L 3002 2963 
z
" transform="scale(0.015625)"/>
       <path id="STIXGeneral-Regular-70" d="M 1018 2931 
L 1018 2438 
Q 1421 2944 1939 2944 
Q 2406 2944 2707 2560 
Q 3008 2176 3008 1581 
Q 3008 883 2621 409 
Q 2234 -64 1664 -64 
Q 1466 -64 1328 -6 
Q 1190 51 1018 211 
L 1018 -794 
Q 1018 -1094 1120 -1180 
Q 1222 -1267 1581 -1274 
L 1581 -1389 
L 32 -1389 
L 32 -1280 
Q 314 -1254 397 -1171 
Q 480 -1088 480 -838 
L 480 2157 
Q 480 2381 429 2451 
Q 378 2522 218 2522 
Q 115 2522 58 2515 
L 58 2618 
Q 506 2752 979 2944 
L 1018 2931 
z
M 1018 2138 
L 1018 563 
Q 1018 422 1238 281 
Q 1459 141 1683 141 
Q 2029 141 2243 467 
Q 2458 794 2458 1325 
Q 2458 1888 2243 2224 
Q 2029 2560 1670 2560 
Q 1446 2560 1232 2419 
Q 1018 2278 1018 2138 
z
" transform="scale(0.015625)"/>
       <path id="STIXGeneral-Regular-73" d="M 998 1926 
L 1664 1523 
Q 1984 1331 2105 1164 
Q 2227 998 2227 736 
Q 2227 416 1961 176 
Q 1696 -64 1331 -64 
Q 1030 -64 864 -6 
Q 691 51 570 51 
Q 461 51 416 -26 
L 333 -26 
L 333 979 
L 435 979 
Q 538 512 730 294 
Q 922 77 1248 77 
Q 1485 77 1632 211 
Q 1779 346 1779 550 
Q 1779 845 1440 1030 
L 1094 1222 
Q 326 1651 326 2150 
Q 326 2522 566 2730 
Q 806 2938 1210 2938 
Q 1491 2938 1638 2867 
Q 1754 2816 1818 2816 
Q 1862 2816 1920 2880 
L 1990 2880 
L 2022 2010 
L 1926 2010 
Q 1818 2445 1654 2621 
Q 1491 2797 1203 2797 
Q 986 2797 854 2688 
Q 723 2579 723 2362 
Q 723 2253 796 2128 
Q 870 2003 998 1926 
z
" transform="scale(0.015625)"/>
      </defs>
      <use xlink:href="#STIXGeneral-Regular-54"/>
      <use xlink:href="#STIXGeneral-Regular-72" x="61.099991"/>
      <use xlink:href="#STIXGeneral-Regular-61" x="94.399979"/>
      <use xlink:href="#STIXGeneral-Regular-69" x="138.799973"/>
      <use xlink:href="#STIXGeneral-Regular-6e" x="166.59996"/>
      <use xlink:href="#STIXGeneral-Regular-69" x="216.599945"/>
      <use xlink:href="#STIXGeneral-Regular-6e" x="244.399933"/>
      <use xlink:href="#STIXGeneral-Regular-67" x="294.399918"/>
      <use xlink:href="#STIXGeneral-Regular-20" x="344.399902"/>
      <use xlink:href="#STIXGeneral-Regular-45" x="369.399887"/>
      <use xlink:href="#STIXGeneral-Regular-6e" x="430.499878"/>
      <use xlink:href="#STIXGeneral-Regular-76" x="480.499863"/>
      <use xlink:href="#STIXGeneral-Regular-69" x="530.499847"/>
      <use xlink:href="#STIXGeneral-Regular-72" x="558.299835"/>
      <use xlink:href="#STIXGeneral-Regular-6f" x="591.599823"/>
      <use xlink:href="#STIXGeneral-Regular-6e" x="641.599808"/>
      <use xlink:href="#STIXGeneral-Regular-6d" x="691.599792"/>
      <use xlink:href="#STIXGeneral-Regular-65" x="769.39978"/>
      <use xlink:href="#STIXGeneral-Regular-6e" x="813.799774"/>
      <use xlink:href="#STIXGeneral-Regular-74" x="863.799759"/>
      <use xlink:href="#STIXGeneral-Regular-20" x="891.599747"/>
      <use xlink:href="#STIXGeneral-Regular-53" x="916.599731"/>
      <use xlink:href="#STIXGeneral-Regular-74" x="972.199722"/>
      <use xlink:href="#STIXGeneral-Regular-65" x="999.99971"/>
      <use xlink:href="#STIXGeneral-Regular-70" x="1044.399704"/>
      <use xlink:href="#STIXGeneral-Regular-73" x="1094.399689"/>
     </g>
    </g>
    <g id="text_8">
     <!-- 1e8 -->
     <g transform="translate(490.806875 343.645562)scale(0.18 -0.18)">
      <use xlink:href="#STIXGeneral-Regular-31"/>
      <use xlink:href="#STIXGeneral-Regular-65" x="49.999985"/>
      <use xlink:href="#STIXGeneral-Regular-38" x="94.399979"/>
     </g>
    </g>
   </g>
   <g id="matplotlib.axis_2">
    <g id="ytick_1">
     <g id="line2d_13">
      <path d="M 70.4 292.552125 
L 516.8 292.552125 
" clip-path="url(#pa7610d5f48)" style="fill: none; stroke: #b0b0b0; stroke-width: 0.8; stroke-linecap: square"/>
     </g>
     <g id="line2d_14">
      <defs>
       <path id="mc5b242ed4b" d="M 0 0 
L -3.5 0 
" style="stroke: #000000; stroke-width: 0.8"/>
      </defs>
      <g>
       <use xlink:href="#mc5b242ed4b" x="70.4" y="292.552125" style="stroke: #000000; stroke-width: 0.8"/>
      </g>
     </g>
     <g id="text_9">
      <!-- 0 -->
      <g transform="translate(54.4 298.698844)scale(0.18 -0.18)">
       <use xlink:href="#STIXGeneral-Regular-30"/>
      </g>
     </g>
    </g>
    <g id="ytick_2">
     <g id="line2d_15">
      <path d="M 70.4 229.798967 
L 516.8 229.798967 
" clip-path="url(#pa7610d5f48)" style="fill: none; stroke: #b0b0b0; stroke-width: 0.8; stroke-linecap: square"/>
     </g>
     <g id="line2d_16">
      <g>
       <use xlink:href="#mc5b242ed4b" x="70.4" y="229.798967" style="stroke: #000000; stroke-width: 0.8"/>
      </g>
     </g>
     <g id="text_10">
      <!-- 1000 -->
      <g transform="translate(27.4 235.945686)scale(0.18 -0.18)">
       <use xlink:href="#STIXGeneral-Regular-31"/>
       <use xlink:href="#STIXGeneral-Regular-30" x="49.999985"/>
       <use xlink:href="#STIXGeneral-Regular-30" x="99.999969"/>
       <use xlink:href="#STIXGeneral-Regular-30" x="149.999954"/>
      </g>
     </g>
    </g>
    <g id="ytick_3">
     <g id="line2d_17">
      <path d="M 70.4 167.04581 
L 516.8 167.04581 
" clip-path="url(#pa7610d5f48)" style="fill: none; stroke: #b0b0b0; stroke-width: 0.8; stroke-linecap: square"/>
     </g>
     <g id="line2d_18">
      <g>
       <use xlink:href="#mc5b242ed4b" x="70.4" y="167.04581" style="stroke: #000000; stroke-width: 0.8"/>
      </g>
     </g>
     <g id="text_11">
      <!-- 2000 -->
      <g transform="translate(27.4 173.192529)scale(0.18 -0.18)">
       <use xlink:href="#STIXGeneral-Regular-32"/>
       <use xlink:href="#STIXGeneral-Regular-30" x="49.999985"/>
       <use xlink:href="#STIXGeneral-Regular-30" x="99.999969"/>
       <use xlink:href="#STIXGeneral-Regular-30" x="149.999954"/>
      </g>
     </g>
    </g>
    <g id="ytick_4">
     <g id="line2d_19">
      <path d="M 70.4 104.292652 
L 516.8 104.292652 
" clip-path="url(#pa7610d5f48)" style="fill: none; stroke: #b0b0b0; stroke-width: 0.8; stroke-linecap: square"/>
     </g>
     <g id="line2d_20">
      <g>
       <use xlink:href="#mc5b242ed4b" x="70.4" y="104.292652" style="stroke: #000000; stroke-width: 0.8"/>
      </g>
     </g>
     <g id="text_12">
      <!-- 3000 -->
      <g transform="translate(27.4 110.439371)scale(0.18 -0.18)">
       <defs>
        <path id="STIXGeneral-Regular-33" d="M 390 3264 
L 288 3290 
Q 435 3770 748 4048 
Q 1062 4326 1542 4326 
Q 1990 4326 2265 4083 
Q 2541 3840 2541 3450 
Q 2541 2925 1946 2566 
Q 2298 2413 2477 2227 
Q 2758 1914 2758 1402 
Q 2758 890 2464 506 
Q 2246 211 1840 60 
Q 1434 -90 979 -90 
Q 262 -90 262 275 
Q 262 378 339 442 
Q 416 506 525 506 
Q 685 506 915 339 
Q 1197 141 1466 141 
Q 1818 141 2058 425 
Q 2298 710 2298 1120 
Q 2298 1856 1632 2048 
Q 1434 2112 979 2112 
L 979 2202 
Q 1338 2323 1517 2432 
Q 2035 2726 2035 3290 
Q 2035 3610 1852 3776 
Q 1670 3942 1344 3942 
Q 768 3942 390 3264 
z
" transform="scale(0.015625)"/>
       </defs>
       <use xlink:href="#STIXGeneral-Regular-33"/>
       <use xlink:href="#STIXGeneral-Regular-30" x="49.999985"/>
       <use xlink:href="#STIXGeneral-Regular-30" x="99.999969"/>
       <use xlink:href="#STIXGeneral-Regular-30" x="149.999954"/>
      </g>
     </g>
    </g>
    <g id="ytick_5">
     <g id="line2d_21">
      <path d="M 70.4 41.539495 
L 516.8 41.539495 
" clip-path="url(#pa7610d5f48)" style="fill: none; stroke: #b0b0b0; stroke-width: 0.8; stroke-linecap: square"/>
     </g>
     <g id="line2d_22">
      <g>
       <use xlink:href="#mc5b242ed4b" x="70.4" y="41.539495" style="stroke: #000000; stroke-width: 0.8"/>
      </g>
     </g>
     <g id="text_13">
      <!-- 4000 -->
      <g transform="translate(27.4 47.686214)scale(0.18 -0.18)">
       <use xlink:href="#STIXGeneral-Regular-34"/>
       <use xlink:href="#STIXGeneral-Regular-30" x="49.999985"/>
       <use xlink:href="#STIXGeneral-Regular-30" x="99.999969"/>
       <use xlink:href="#STIXGeneral-Regular-30" x="149.999954"/>
      </g>
     </g>
    </g>
    <g id="text_14">
     <!-- Average Test Return -->
     <g transform="translate(19.476562 241.533375)rotate(-90)scale(0.18 -0.18)">
      <defs>
       <path id="STIXGeneral-Regular-41" d="M 4525 0 
L 2893 0 
L 2893 122 
Q 3149 122 3245 179 
Q 3334 224 3334 333 
Q 3334 499 3213 781 
L 2950 1382 
L 1274 1382 
L 979 653 
Q 922 506 922 384 
Q 922 237 1027 179 
Q 1133 122 1370 122 
L 1370 0 
L 96 0 
L 96 122 
Q 365 147 486 316 
Q 608 486 902 1190 
L 2221 4314 
L 2349 4314 
L 3923 710 
Q 4064 378 4176 262 
Q 4288 147 4525 122 
L 4525 0 
z
M 2861 1645 
L 2118 3405 
L 1382 1645 
L 2861 1645 
z
" transform="scale(0.015625)"/>
       <path id="STIXGeneral-Regular-52" d="M 4224 0 
L 3187 0 
L 1664 1971 
L 1306 1958 
L 1306 717 
Q 1306 352 1405 249 
Q 1504 147 1875 122 
L 1875 0 
L 109 0 
L 109 122 
Q 474 154 563 262 
Q 653 371 653 794 
L 653 3526 
Q 653 3885 563 3987 
Q 474 4090 109 4115 
L 109 4237 
L 1850 4237 
Q 2726 4237 3187 3859 
Q 3501 3603 3501 3091 
Q 3501 2221 2342 2042 
L 3622 422 
Q 3757 256 3878 198 
Q 4000 141 4224 122 
L 4224 0 
z
M 1306 3731 
L 1306 2195 
Q 1766 2202 1990 2246 
Q 2214 2291 2438 2413 
Q 2803 2618 2803 3142 
Q 2803 4000 1632 4000 
Q 1459 4000 1382 3945 
Q 1306 3891 1306 3731 
z
" transform="scale(0.015625)"/>
       <path id="STIXGeneral-Regular-75" d="M 3072 320 
L 3072 230 
Q 2573 96 2195 -58 
L 2163 -38 
L 2163 486 
L 2150 486 
Q 1747 -64 1235 -64 
Q 870 -64 662 160 
Q 454 384 454 755 
L 454 2362 
Q 454 2598 371 2688 
Q 288 2778 58 2790 
L 58 2880 
L 992 2880 
L 992 813 
Q 992 595 1123 451 
Q 1254 307 1446 307 
Q 1760 307 1984 506 
Q 2067 582 2099 649 
Q 2131 717 2131 877 
L 2131 2355 
Q 2131 2605 2041 2678 
Q 1952 2752 1658 2771 
L 1658 2880 
L 2669 2880 
L 2669 685 
Q 2669 461 2742 390 
Q 2816 320 3034 320 
L 3072 320 
z
" transform="scale(0.015625)"/>
      </defs>
      <use xlink:href="#STIXGeneral-Regular-41"/>
      <use xlink:href="#STIXGeneral-Regular-76" x="72.199982"/>
      <use xlink:href="#STIXGeneral-Regular-65" x="122.199966"/>
      <use xlink:href="#STIXGeneral-Regular-72" x="166.59996"/>
      <use xlink:href="#STIXGeneral-Regular-61" x="199.899948"/>
      <use xlink:href="#STIXGeneral-Regular-67" x="244.299942"/>
      <use xlink:href="#STIXGeneral-Regular-65" x="294.299927"/>
      <use xlink:href="#STIXGeneral-Regular-20" x="338.699921"/>
      <use xlink:href="#STIXGeneral-Regular-54" x="363.699905"/>
      <use xlink:href="#STIXGeneral-Regular-65" x="424.799896"/>
      <use xlink:href="#STIXGeneral-Regular-73" x="469.19989"/>
      <use xlink:href="#STIXGeneral-Regular-74" x="508.099884"/>
      <use xlink:href="#STIXGeneral-Regular-20" x="535.899872"/>
      <use xlink:href="#STIXGeneral-Regular-52" x="560.899857"/>
      <use xlink:href="#STIXGeneral-Regular-65" x="627.599854"/>
      <use xlink:href="#STIXGeneral-Regular-74" x="671.999847"/>
      <use xlink:href="#STIXGeneral-Regular-75" x="699.799835"/>
      <use xlink:href="#STIXGeneral-Regular-72" x="749.79982"/>
      <use xlink:href="#STIXGeneral-Regular-6e" x="783.099808"/>
     </g>
    </g>
   </g>
   <g id="line2d_23">
    <path d="M 90.690909 234.846713 
L 91.491339 231.791526 
L 92.29177 233.636803 
L 93.0922 232.369166 
L 93.89263 235.934845 
L 94.693061 237.012885 
L 95.493491 239.565469 
L 96.293921 237.126823 
L 97.094352 229.864494 
L 97.894782 230.771335 
L 98.695212 232.136734 
L 99.495643 232.840056 
L 100.296073 234.639253 
L 101.096503 234.446574 
L 101.896934 233.49315 
L 102.697364 233.340232 
L 103.497795 232.822919 
L 104.298225 230.382191 
L 105.098655 229.053844 
L 106.699516 219.422349 
L 107.499946 217.394638 
L 108.300377 216.049365 
L 109.100807 212.699467 
L 109.901237 213.001191 
L 111.502098 204.521981 
L 112.302528 198.48344 
L 113.102959 200.175561 
L 113.903389 200.522974 
L 114.703819 203.595004 
L 115.50425 201.927379 
L 116.30468 201.971301 
L 117.10511 197.549126 
L 117.905541 194.717434 
L 118.705971 192.912796 
L 119.506401 192.785865 
L 120.306832 193.671647 
L 121.107262 190.986655 
L 121.907692 189.192968 
L 122.708123 186.908337 
L 123.508553 181.707931 
L 124.308983 172.677952 
L 125.109414 171.576683 
L 125.909844 167.978124 
L 127.510705 162.41139 
L 128.311135 160.527963 
L 129.111565 160.138534 
L 129.911996 160.296741 
L 130.712426 158.875374 
L 131.512856 157.956767 
L 132.313287 161.382256 
L 133.113717 163.063859 
L 133.914147 160.447808 
L 134.714578 160.691597 
L 135.515008 157.425287 
L 136.315438 154.786089 
L 137.115869 152.685683 
L 137.916299 154.76449 
L 138.716729 156.394697 
L 139.51716 156.239164 
L 140.31759 155.939587 
L 141.11802 156.084478 
L 141.918451 154.096188 
L 142.718881 152.935633 
L 143.519311 152.89102 
L 144.319742 153.010386 
L 145.120172 151.834976 
L 145.920602 151.48784 
L 146.721033 150.655214 
L 147.521463 149.109891 
L 149.122324 148.939872 
L 149.922754 148.466875 
L 150.723185 147.102932 
L 151.523615 146.789141 
L 152.324045 147.520366 
L 153.924906 148.778908 
L 154.725336 148.247419 
L 155.525767 146.435939 
L 156.326197 145.714385 
L 157.126627 144.634654 
L 157.927058 143.874167 
L 158.727488 144.705092 
L 159.527918 143.924653 
L 160.328349 145.949486 
L 161.128779 146.202651 
L 162.72964 150.359244 
L 163.53007 148.602843 
L 164.3305 148.978432 
L 165.130931 146.714667 
L 165.931361 145.493901 
L 167.532222 147.811828 
L 168.332652 146.455729 
L 169.133082 146.564995 
L 169.933513 145.738607 
L 170.733943 145.866354 
L 171.534373 144.383481 
L 172.334804 143.438273 
L 174.736095 141.580423 
L 176.336955 141.536349 
L 177.137386 140.746467 
L 177.937816 140.964857 
L 178.738246 142.571202 
L 179.538677 143.326895 
L 180.339107 144.908574 
L 181.139537 147.057632 
L 181.939968 149.923108 
L 182.740398 149.106186 
L 183.540828 148.840724 
L 184.341259 147.278553 
L 185.141689 144.919088 
L 185.942119 146.287474 
L 187.54298 142.379161 
L 188.34341 141.436724 
L 189.143841 140.749224 
L 190.744701 140.159434 
L 191.545132 140.198111 
L 192.345562 142.918955 
L 193.145992 141.969886 
L 193.946423 142.11599 
L 194.746853 141.570979 
L 195.547283 141.398153 
L 196.347714 142.549398 
L 197.148144 142.48696 
L 197.948575 143.863128 
L 198.749005 142.736158 
L 199.549435 141.303592 
L 200.349866 140.666894 
L 201.150296 140.727732 
L 201.950726 140.668089 
L 202.751157 140.239869 
L 203.551587 140.116391 
L 204.352017 142.135184 
L 205.152448 142.751463 
L 205.952878 142.321685 
L 206.753308 141.558264 
L 207.553739 141.143182 
L 208.354169 141.205686 
L 209.154599 140.124074 
L 209.95503 139.577933 
L 210.75546 139.741941 
L 213.156751 139.174307 
L 213.957181 140.248765 
L 214.757612 139.880583 
L 215.558042 139.826497 
L 217.158903 138.979123 
L 217.959333 138.73949 
L 218.759763 138.6299 
L 219.560194 138.666837 
L 220.360624 138.859279 
L 221.161054 139.801253 
L 221.961485 139.797106 
L 222.761915 139.584983 
L 223.562345 139.527344 
L 224.362776 138.959806 
L 225.163206 139.280937 
L 225.963636 139.419222 
L 226.764067 139.125649 
L 227.564497 139.888737 
L 228.364927 141.22905 
L 229.165358 143.07317 
L 230.766218 142.198531 
L 231.566649 141.707623 
L 232.367079 142.674214 
L 233.96794 142.223252 
L 234.76837 142.738854 
L 235.5688 142.031112 
L 237.169661 141.549254 
L 237.970091 141.133933 
L 238.770522 141.311426 
L 239.570952 140.846935 
L 240.371382 140.761642 
L 241.972243 141.20464 
L 242.772673 140.611046 
L 243.573104 139.637163 
L 244.373534 139.673373 
L 245.173964 140.3852 
L 245.974395 141.696325 
L 246.774825 142.133016 
L 247.575256 142.01883 
L 248.375686 142.354734 
L 249.176116 142.266331 
L 249.976547 141.256744 
L 250.776977 142.41272 
L 251.577407 143.88491 
L 252.377838 142.389831 
L 253.178268 142.548102 
L 253.978698 142.114872 
L 254.779129 143.175956 
L 255.579559 146.237347 
L 256.379989 146.526036 
L 257.98085 146.435189 
L 258.78128 145.026133 
L 259.581711 145.300071 
L 260.382141 145.790131 
L 261.182571 146.503302 
L 261.983002 148.464937 
L 262.783432 148.385911 
L 263.583862 147.972952 
L 264.384293 146.307182 
L 265.184723 145.234175 
L 265.985153 142.891672 
L 266.785584 141.231322 
L 267.586014 140.394047 
L 268.386444 140.707639 
L 269.186875 140.235899 
L 269.987305 139.96146 
L 270.787735 141.316415 
L 271.588166 142.114264 
L 272.388596 142.138411 
L 273.189026 144.208169 
L 273.989457 144.28648 
L 274.789887 144.829621 
L 275.590317 143.963233 
L 276.390748 144.221091 
L 277.991608 141.862318 
L 278.792039 141.051412 
L 279.592469 142.817965 
L 280.392899 142.547744 
L 281.19333 143.209522 
L 282.79419 140.624997 
L 284.395051 139.117351 
L 285.195481 139.39649 
L 285.995912 140.612301 
L 286.796342 140.135664 
L 287.596772 139.864353 
L 288.397203 139.451081 
L 289.197633 139.45128 
L 289.998063 139.849135 
L 290.798494 139.68073 
L 291.598924 138.586999 
L 292.399354 137.950242 
L 293.199785 137.479536 
L 294.000215 137.598905 
L 295.601076 137.193069 
L 296.401506 136.91854 
L 297.201937 137.27058 
L 298.802797 137.193152 
L 299.603228 137.581145 
L 300.403658 137.180427 
L 301.204088 137.126173 
L 302.004519 137.417313 
L 302.804949 137.201366 
L 304.40581 138.331877 
L 305.20624 138.235393 
L 306.00667 138.430022 
L 306.807101 138.09719 
L 307.607531 138.465658 
L 308.407961 138.321544 
L 309.208392 137.832108 
L 310.008822 138.479149 
L 310.809252 138.747046 
L 312.410113 140.478522 
L 313.210543 140.030032 
L 314.010974 139.26547 
L 314.811404 138.192389 
L 315.611834 138.515013 
L 316.412265 138.128659 
L 318.013125 138.320744 
L 318.813556 138.314294 
L 319.613986 138.804869 
L 320.414416 139.502647 
L 321.214847 141.341203 
L 322.015277 140.117604 
L 322.815707 139.311462 
L 323.616138 139.74344 
L 325.216998 141.846973 
L 326.017429 141.262368 
L 326.817859 142.871012 
L 328.41872 144.035785 
L 329.21915 145.626507 
L 330.01958 144.00287 
L 331.620441 141.806065 
L 332.420871 142.164058 
L 333.221302 142.760576 
L 334.021732 140.511822 
L 334.822162 142.872868 
L 335.622593 144.717547 
L 337.223453 140.225659 
L 338.023884 139.616957 
L 338.824314 140.187322 
L 339.624744 141.711806 
L 340.425175 140.455887 
L 341.225605 141.811204 
L 342.026036 142.930548 
L 342.826466 146.038626 
L 343.626896 145.601939 
L 344.427327 146.006422 
L 345.227757 145.805071 
L 346.028187 144.014157 
L 346.828618 142.727829 
L 347.629048 144.003728 
L 348.429478 143.759854 
L 349.229909 144.740568 
L 350.030339 147.63827 
L 350.830769 146.704875 
L 351.6312 147.539282 
L 352.43163 144.98082 
L 353.23206 145.586232 
L 354.032491 143.859725 
L 354.832921 146.482815 
L 355.633351 145.124527 
L 356.433782 145.35445 
L 357.234212 146.427058 
L 358.034642 145.277739 
L 358.835073 145.007325 
L 359.635503 144.420188 
L 360.435933 144.882655 
L 361.236364 145.95555 
L 362.036794 148.066326 
L 362.837224 148.93008 
L 363.637655 148.613789 
L 364.438085 149.294506 
L 365.238515 147.729797 
L 366.038946 145.763487 
L 367.639806 143.81853 
L 368.440237 144.62649 
L 369.240667 146.759412 
L 370.041097 148.169808 
L 370.841528 145.862478 
L 371.641958 146.287847 
L 372.442388 146.891189 
L 373.242819 146.453165 
L 374.043249 147.530161 
L 374.843679 147.505464 
L 375.64411 146.785126 
L 376.44454 147.293056 
L 377.24497 148.726624 
L 378.045401 148.581555 
L 378.845831 148.812214 
L 379.646261 149.471976 
L 380.446692 148.394997 
L 381.247122 148.217405 
L 382.047552 153.558957 
L 382.847983 154.382756 
L 383.648413 154.402017 
L 384.448843 156.904598 
L 385.249274 158.088018 
L 386.049704 158.428929 
L 386.850134 156.64906 
L 387.650565 155.427302 
L 388.450995 154.589258 
L 389.251425 153.22648 
L 390.051856 154.008014 
L 390.852286 152.517039 
L 391.652717 150.630971 
L 392.453147 149.520229 
L 393.253577 151.609216 
L 394.054008 152.799825 
L 394.854438 150.597143 
L 395.654868 149.623599 
L 396.455299 147.119968 
L 397.255729 145.946679 
L 398.056159 145.098251 
L 398.85659 143.999076 
L 399.65702 145.678333 
L 400.45745 146.122684 
L 401.257881 147.640687 
L 402.058311 151.910609 
L 402.858741 152.929312 
L 403.659172 155.714367 
L 404.459602 157.436479 
L 405.260032 155.476022 
L 406.060463 152.797399 
L 407.661323 150.462848 
L 408.461754 149.920755 
L 409.262184 154.297095 
L 410.062614 150.963384 
L 410.863045 150.12444 
L 411.663475 149.080214 
L 412.463905 150.87663 
L 413.264336 151.687086 
L 414.064766 153.492874 
L 414.865196 157.596122 
L 415.665627 160.86811 
L 416.466057 160.61843 
L 417.266487 161.518083 
L 418.066918 164.061214 
L 418.867348 161.117248 
L 419.667778 159.353613 
L 420.468209 160.776297 
L 421.268639 160.323636 
L 422.069069 161.663742 
L 422.8695 158.680781 
L 423.66993 156.975782 
L 424.47036 154.864285 
L 425.270791 156.257392 
L 426.071221 153.542003 
L 426.871651 151.748355 
L 427.672082 148.753268 
L 428.472512 147.573599 
L 429.272942 144.873784 
L 430.073373 144.653167 
L 430.873803 146.734372 
L 431.674233 146.906498 
L 432.474664 147.870583 
L 433.275094 147.118753 
L 434.075524 145.268958 
L 434.875955 146.086019 
L 435.676385 145.789072 
L 436.476815 146.540269 
L 438.077676 142.08475 
L 438.878107 142.14752 
L 439.678537 141.805942 
L 440.478967 142.272043 
L 441.279398 143.178972 
L 442.079828 141.500914 
L 442.880258 141.008489 
L 443.680689 142.078804 
L 444.481119 145.096562 
L 445.281549 146.783592 
L 446.08198 150.955713 
L 446.88241 153.4595 
L 447.68284 159.180608 
L 448.483271 160.300932 
L 449.283701 163.134446 
L 450.084131 164.128934 
L 450.884562 164.055249 
L 451.684992 165.363038 
L 452.485422 166.912378 
L 453.285853 165.434304 
L 454.086283 167.877869 
L 455.687144 167.613637 
L 456.487574 165.355412 
L 457.288004 166.878442 
L 458.088435 167.028684 
L 458.888865 165.716247 
L 460.489726 167.215853 
L 461.290156 169.6727 
L 462.090586 167.325283 
L 462.891017 167.211382 
L 463.691447 165.717004 
L 464.491877 167.896315 
L 465.292308 168.610623 
L 466.092738 166.235227 
L 466.893168 168.366589 
L 467.693599 166.927204 
L 468.494029 168.039486 
L 469.294459 167.778378 
L 470.09489 168.843062 
L 470.89532 168.899288 
L 471.69575 167.252968 
L 472.496181 167.964867 
L 473.296611 167.760561 
L 474.097041 169.528914 
L 474.897472 171.718415 
L 475.697902 170.742215 
L 476.498332 169.003028 
L 477.298763 166.050714 
L 478.099193 160.948763 
L 478.899623 163.469498 
L 479.700054 162.790254 
L 480.500484 160.455175 
L 481.300914 158.836477 
L 482.101345 160.109308 
L 482.901775 156.755836 
L 483.702205 155.067588 
L 484.502636 152.504574 
L 485.303066 156.616076 
L 486.103497 157.179063 
L 486.903927 155.432628 
L 487.704357 159.554482 
L 488.504788 165.395806 
L 489.305218 165.937131 
L 490.105648 166.274201 
L 490.906079 167.220978 
L 492.506939 159.592314 
L 493.30737 159.22604 
L 494.1078 158.276476 
L 494.90823 161.940504 
L 495.708661 164.870464 
L 496.509091 165.818943 
L 496.509091 165.818943 
" clip-path="url(#pa7610d5f48)" style="fill: none; stroke: #1f77b4; stroke-width: 1.5; stroke-linecap: square"/>
   </g>
   <g id="line2d_24">
    <path d="M 90.690909 269.343398 
L 91.491339 274.776109 
L 92.29177 260.411979 
L 93.89263 276.161598 
L 94.693061 281.244927 
L 96.293921 286.269891 
L 97.094352 287.77241 
L 97.894782 288.6808 
L 98.695212 289.24113 
L 100.296073 289.774978 
L 101.896934 289.980235 
L 104.298225 290.147046 
L 105.098655 289.469014 
L 105.899086 289.828457 
L 106.699516 289.98808 
L 108.300377 289.342347 
L 109.100807 289.514592 
L 110.701668 288.488911 
L 112.302528 288.710775 
L 113.903389 289.45364 
L 114.703819 289.288586 
L 115.50425 288.971412 
L 116.30468 289.232443 
L 117.10511 288.90748 
L 117.905541 288.145761 
L 118.705971 287.158264 
L 120.306832 285.692497 
L 121.907692 284.405894 
L 122.708123 284.849506 
L 124.308983 283.779412 
L 125.109414 282.326221 
L 125.909844 282.213939 
L 126.710274 282.375387 
L 127.510705 282.341103 
L 128.311135 281.346332 
L 129.111565 271.352745 
L 129.911996 250.619039 
L 130.712426 207.419553 
L 133.113717 112.458887 
L 133.914147 105.185071 
L 134.714578 102.341552 
L 135.515008 85.620995 
L 136.315438 79.011826 
L 137.115869 80.633789 
L 137.916299 73.203412 
L 138.716729 75.006003 
L 139.51716 83.13204 
L 140.31759 73.532746 
L 141.11802 66.111007 
L 141.918451 63.790554 
L 142.718881 60.747568 
L 143.519311 58.329825 
L 144.319742 53.62427 
L 145.120172 50.712145 
L 145.920602 50.229088 
L 146.721033 49.332859 
L 147.521463 49.963605 
L 149.122324 44.449039 
L 149.922754 43.964015 
L 150.723185 40.756806 
L 151.523615 40.552125 
L 152.324045 49.135386 
L 153.124476 52.493605 
L 153.924906 53.894131 
L 154.725336 62.495646 
L 155.525767 68.780382 
L 156.326197 64.825372 
L 157.126627 74.449477 
L 157.927058 76.228751 
L 158.727488 72.704991 
L 159.527918 65.302923 
L 160.328349 65.952226 
L 161.128779 69.671133 
L 162.72964 55.627084 
L 163.53007 54.028982 
L 164.3305 58.884158 
L 165.130931 60.20983 
L 165.931361 60.804643 
L 166.731791 62.542266 
L 167.532222 68.471454 
L 168.332652 71.865931 
L 169.133082 79.593556 
L 169.933513 83.108057 
L 170.733943 83.29634 
L 171.534373 84.740706 
L 172.334804 90.813129 
L 173.135234 92.348334 
L 173.935664 96.07668 
L 174.736095 100.482208 
L 175.536525 99.745342 
L 176.336955 106.150596 
L 177.137386 109.929072 
L 177.937816 106.130157 
L 178.738246 105.60916 
L 179.538677 107.320032 
L 180.339107 105.459603 
L 181.139537 99.944975 
L 181.939968 97.877601 
L 182.740398 102.689216 
L 183.540828 102.475211 
L 184.341259 108.420431 
L 185.141689 113.168978 
L 185.942119 113.751448 
L 186.74255 111.364733 
L 187.54298 113.629196 
L 188.34341 108.700975 
L 189.143841 111.866043 
L 189.944271 112.566933 
L 190.744701 110.095956 
L 191.545132 109.593655 
L 192.345562 116.563931 
L 193.145992 121.531553 
L 193.946423 124.471533 
L 194.746853 128.089307 
L 195.547283 125.967955 
L 196.347714 124.929556 
L 197.148144 124.999166 
L 197.948575 122.88337 
L 198.749005 125.257945 
L 199.549435 122.397102 
L 200.349866 120.640016 
L 201.150296 119.562005 
L 201.950726 122.874463 
L 202.751157 113.636212 
L 203.551587 119.859302 
L 204.352017 121.500613 
L 205.152448 119.445782 
L 205.952878 120.004902 
L 206.753308 118.249898 
L 207.553739 117.306713 
L 208.354169 111.937722 
L 209.154599 110.604671 
L 209.95503 115.042939 
L 210.75546 111.188568 
L 211.55589 102.590218 
L 212.356321 97.597742 
L 213.156751 101.240849 
L 213.957181 91.278884 
L 214.757612 86.392127 
L 215.558042 91.527163 
L 216.358472 91.475245 
L 217.158903 90.61897 
L 217.959333 94.393158 
L 218.759763 99.165799 
L 219.560194 97.395271 
L 220.360624 96.688019 
L 221.161054 84.524592 
L 221.961485 86.032888 
L 222.761915 75.191755 
L 223.562345 81.071227 
L 224.362776 82.122318 
L 225.163206 82.950307 
L 225.963636 87.133273 
L 226.764067 89.234765 
L 227.564497 86.295592 
L 228.364927 86.464414 
L 229.165358 88.437792 
L 229.965788 83.922159 
L 230.766218 93.379655 
L 232.367079 102.040902 
L 233.167509 101.856028 
L 233.96794 99.854045 
L 234.76837 101.803843 
L 235.5688 109.92644 
L 236.369231 114.890218 
L 237.169661 118.822358 
L 237.970091 108.181976 
L 238.770522 111.861955 
L 239.570952 113.126311 
L 240.371382 107.330235 
L 241.171813 109.984957 
L 241.972243 111.981801 
L 242.772673 114.982535 
L 243.573104 118.756286 
L 244.373534 123.48141 
L 245.173964 125.301134 
L 245.974395 128.819573 
L 246.774825 129.257314 
L 247.575256 133.042593 
L 248.375686 137.563284 
L 249.176116 135.425914 
L 249.976547 136.826239 
L 250.776977 136.420986 
L 251.577407 136.449346 
L 252.377838 138.283716 
L 253.178268 141.022887 
L 253.978698 141.91087 
L 254.779129 141.70571 
L 255.579559 143.779832 
L 256.379989 143.046607 
L 257.18042 141.61185 
L 257.98085 140.919645 
L 258.78128 138.747522 
L 260.382141 137.081049 
L 261.182571 137.705556 
L 261.983002 137.790155 
L 262.783432 134.901254 
L 263.583862 135.771795 
L 264.384293 134.30585 
L 265.184723 134.278175 
L 265.985153 134.074396 
L 266.785584 133.1838 
L 267.586014 133.520928 
L 268.386444 134.608777 
L 269.186875 132.274835 
L 269.987305 128.462812 
L 270.787735 126.482096 
L 272.388596 121.682988 
L 273.189026 120.4102 
L 273.989457 120.964111 
L 274.789887 120.563918 
L 275.590317 122.079555 
L 276.390748 121.983894 
L 277.191178 121.263514 
L 277.991608 123.468585 
L 278.792039 124.283475 
L 279.592469 120.712101 
L 280.392899 121.143401 
L 281.19333 118.726242 
L 281.99376 118.632176 
L 282.79419 116.220353 
L 283.594621 120.019779 
L 284.395051 122.071661 
L 285.195481 124.468325 
L 285.995912 123.372696 
L 286.796342 123.596148 
L 287.596772 122.321724 
L 288.397203 119.105204 
L 289.197633 120.513613 
L 289.998063 120.500484 
L 291.598924 125.194814 
L 292.399354 126.394987 
L 293.199785 129.693125 
L 294.000215 129.873394 
L 294.800646 129.089002 
L 295.601076 127.979253 
L 296.401506 125.687888 
L 297.201937 124.537853 
L 298.002367 126.232428 
L 298.802797 126.24047 
L 299.603228 125.279841 
L 300.403658 124.812191 
L 301.204088 125.059622 
L 302.804949 129.297554 
L 304.40581 132.355875 
L 305.20624 129.284121 
L 306.00667 131.614748 
L 307.607531 134.23864 
L 308.407961 133.920045 
L 309.208392 133.354759 
L 310.809252 136.577942 
L 311.609683 134.407332 
L 312.410113 134.243654 
L 313.210543 133.753706 
L 314.010974 132.120325 
L 314.811404 132.554804 
L 315.611834 132.717838 
L 316.412265 131.180448 
L 317.212695 133.68104 
L 318.813556 129.380867 
L 320.414416 133.145445 
L 321.214847 133.88764 
L 322.015277 135.798898 
L 322.815707 136.183007 
L 323.616138 137.871526 
L 324.416568 140.308118 
L 326.017429 142.20462 
L 326.817859 143.392417 
L 327.618289 142.990602 
L 329.21915 144.528132 
L 330.01958 141.166495 
L 330.820011 139.795097 
L 331.620441 140.172585 
L 333.221302 144.263122 
L 334.021732 145.008002 
L 334.822162 142.951343 
L 335.622593 144.086831 
L 336.423023 143.464022 
L 337.223453 143.628378 
L 338.824314 140.796704 
L 339.624744 143.461799 
L 340.425175 140.831905 
L 341.225605 142.651428 
L 342.026036 143.374074 
L 342.826466 144.82172 
L 343.626896 144.541526 
L 344.427327 143.434282 
L 345.227757 142.794173 
L 346.028187 145.417001 
L 346.828618 147.229729 
L 347.629048 148.746129 
L 348.429478 147.565001 
L 349.229909 148.337563 
L 350.030339 147.222613 
L 350.830769 145.679781 
L 351.6312 145.648755 
L 352.43163 147.421981 
L 353.23206 147.156273 
L 354.032491 147.204424 
L 354.832921 146.574468 
L 355.633351 145.406233 
L 356.433782 146.110614 
L 357.234212 146.197598 
L 358.034642 145.943678 
L 358.835073 147.424243 
L 359.635503 144.830463 
L 360.435933 145.212243 
L 361.236364 143.130482 
L 362.036794 146.010773 
L 362.837224 147.519207 
L 363.637655 150.087318 
L 364.438085 150.803104 
L 365.238515 146.258535 
L 366.038946 145.328355 
L 366.839376 142.998634 
L 367.639806 139.805142 
L 368.440237 141.799635 
L 369.240667 139.757146 
L 370.041097 138.192626 
L 370.841528 139.230014 
L 371.641958 138.043997 
L 372.442388 136.172306 
L 373.242819 137.183873 
L 374.843679 138.358849 
L 375.64411 140.665734 
L 376.44454 144.795536 
L 377.24497 144.968158 
L 378.045401 143.002023 
L 378.845831 143.312411 
L 379.646261 144.637326 
L 380.446692 142.892769 
L 381.247122 142.809787 
L 382.047552 142.874252 
L 382.847983 140.374909 
L 383.648413 141.191508 
L 384.448843 139.48116 
L 385.249274 140.053288 
L 386.049704 138.772066 
L 386.850134 136.885647 
L 387.650565 136.880736 
L 388.450995 138.781348 
L 389.251425 139.687421 
L 390.051856 142.525299 
L 390.852286 140.443968 
L 391.652717 140.522074 
L 392.453147 141.703059 
L 393.253577 141.2447 
L 394.054008 141.828274 
L 394.854438 142.99095 
L 395.654868 144.680815 
L 396.455299 147.583016 
L 398.056159 144.8802 
L 398.85659 144.493117 
L 399.65702 144.793368 
L 400.45745 146.401864 
L 401.257881 148.454209 
L 402.058311 151.289015 
L 402.858741 153.393277 
L 403.659172 151.32062 
L 404.459602 150.491363 
L 405.260032 147.425739 
L 406.060463 143.54443 
L 406.860893 143.737881 
L 407.661323 143.310425 
L 409.262184 137.893485 
L 410.062614 135.856277 
L 410.863045 135.518404 
L 411.663475 138.03166 
L 412.463905 138.095685 
L 413.264336 137.848131 
L 414.064766 140.752767 
L 414.865196 141.387918 
L 415.665627 141.3445 
L 416.466057 141.669107 
L 417.266487 140.6784 
L 418.066918 142.946795 
L 418.867348 144.559635 
L 419.667778 144.850652 
L 420.468209 146.671847 
L 421.268639 143.174471 
L 422.069069 140.929801 
L 422.8695 141.549397 
L 423.66993 142.013728 
L 424.47036 143.239274 
L 425.270791 141.947368 
L 426.071221 142.906829 
L 426.871651 142.496643 
L 427.672082 141.541777 
L 428.472512 142.295081 
L 430.073373 142.589235 
L 430.873803 143.808878 
L 431.674233 144.007881 
L 432.474664 143.993644 
L 433.275094 144.373626 
L 434.075524 144.953192 
L 434.875955 147.872041 
L 435.676385 145.572572 
L 436.476815 145.257801 
L 437.277246 148.356676 
L 438.077676 146.43491 
L 438.878107 141.126438 
L 439.678537 143.754878 
L 440.478967 143.069684 
L 441.279398 142.071698 
L 442.079828 145.145785 
L 442.880258 145.178639 
L 443.680689 146.827641 
L 444.481119 147.269074 
L 445.281549 147.840449 
L 446.08198 146.608054 
L 446.88241 146.045061 
L 447.68284 144.523792 
L 448.483271 146.754063 
L 449.283701 149.36625 
L 450.084131 150.217826 
L 450.884562 149.917283 
L 451.684992 151.904099 
L 452.485422 149.725749 
L 453.285853 153.729145 
L 454.086283 154.523967 
L 454.886713 156.170005 
L 455.687144 159.301249 
L 456.487574 159.530917 
L 457.288004 157.832832 
L 458.088435 157.163377 
L 458.888865 157.592521 
L 459.689295 158.354993 
L 460.489726 159.424595 
L 461.290156 158.614454 
L 462.090586 159.518879 
L 463.691447 157.794498 
L 464.491877 154.388552 
L 465.292308 156.806538 
L 466.092738 152.746249 
L 466.893168 151.124573 
L 467.693599 150.416754 
L 468.494029 151.85965 
L 469.294459 151.675467 
L 470.09489 147.37923 
L 470.89532 144.430521 
L 471.69575 143.270853 
L 472.496181 144.294341 
L 473.296611 146.223186 
L 474.097041 146.559438 
L 474.897472 148.541057 
L 475.697902 151.152331 
L 476.498332 152.184241 
L 478.099193 150.601732 
L 478.899623 148.221865 
L 479.700054 148.465109 
L 481.300914 146.727811 
L 482.101345 144.01868 
L 482.901775 140.583496 
L 483.702205 140.341602 
L 485.303066 137.550359 
L 486.103497 137.290821 
L 486.903927 136.730572 
L 487.704357 138.233581 
L 488.504788 138.907667 
L 489.305218 139.411292 
L 490.105648 140.414593 
L 490.906079 138.955837 
L 491.706509 137.956768 
L 492.506939 137.56687 
L 493.30737 139.329989 
L 494.1078 140.375689 
L 494.90823 141.219326 
L 495.708661 143.380286 
L 496.509091 144.192277 
L 496.509091 144.192277 
" clip-path="url(#pa7610d5f48)" style="fill: none; stroke: #ff7f0e; stroke-width: 1.5; stroke-linecap: square"/>
   </g>
   <g id="line2d_25">
    <path d="M 90.690909 292.552125 
L 141.918451 292.512654 
L 142.718881 292.328062 
L 145.120172 292.479952 
L 147.521463 292.5162 
L 148.321893 292.245402 
L 149.922754 292.425498 
L 153.924906 292.524112 
L 154.725336 292.378669 
L 157.126627 292.450675 
L 157.927058 292.486102 
L 158.727488 292.341923 
L 161.128779 292.491066 
L 169.133082 292.540131 
L 170.733943 292.353874 
L 177.137386 292.506309 
L 177.937816 292.328311 
L 178.738246 292.283477 
L 179.538677 292.006164 
L 180.339107 291.886867 
L 181.139537 291.576873 
L 181.939968 290.525811 
L 182.740398 291.112417 
L 183.540828 291.143088 
L 184.341259 291.552182 
L 185.141689 291.814298 
L 186.74255 291.272054 
L 187.54298 291.74036 
L 188.34341 292.029662 
L 189.944271 291.866241 
L 190.744701 291.156515 
L 191.545132 291.60815 
L 193.946423 292.010461 
L 194.746853 292.22219 
L 195.547283 292.209005 
L 196.347714 292.341685 
L 197.148144 291.899799 
L 198.749005 292.296434 
L 200.349866 292.173815 
L 201.150296 292.018872 
L 201.950726 291.206184 
L 202.751157 290.833374 
L 203.551587 290.607341 
L 204.352017 290.921755 
L 205.152448 289.711888 
L 205.952878 290.029922 
L 206.753308 289.853412 
L 207.553739 290.20764 
L 209.154599 290.38784 
L 210.75546 290.946637 
L 212.356321 291.182158 
L 213.156751 290.924059 
L 213.957181 290.396759 
L 214.757612 290.461867 
L 215.558042 290.642895 
L 216.358472 291.27507 
L 217.959333 291.793682 
L 218.759763 291.966704 
L 220.360624 291.854185 
L 221.161054 291.666281 
L 221.961485 291.017847 
L 223.562345 291.102635 
L 224.362776 290.028488 
L 225.163206 290.181654 
L 225.963636 289.879326 
L 227.564497 289.960975 
L 228.364927 289.384846 
L 229.165358 289.094573 
L 229.965788 289.051012 
L 230.766218 288.861586 
L 231.566649 289.785175 
L 232.367079 289.91444 
L 233.167509 289.771141 
L 233.96794 289.154058 
L 234.76837 288.940105 
L 235.5688 288.432864 
L 236.369231 288.257113 
L 237.169661 288.204428 
L 237.970091 287.823748 
L 238.770522 288.554812 
L 239.570952 289.723564 
L 240.371382 290.418607 
L 241.171813 290.616701 
L 243.573104 289.113121 
L 244.373534 287.83358 
L 245.173964 287.851416 
L 245.974395 287.683016 
L 246.774825 288.040509 
L 247.575256 287.929115 
L 248.375686 288.137046 
L 249.176116 288.49707 
L 249.976547 289.17368 
L 250.776977 288.598931 
L 251.577407 288.51365 
L 252.377838 288.233208 
L 253.178268 288.705021 
L 253.978698 288.20122 
L 254.779129 289.238945 
L 255.579559 289.96557 
L 256.379989 290.059981 
L 257.18042 289.613734 
L 257.98085 289.582404 
L 258.78128 289.897192 
L 259.581711 289.864944 
L 261.182571 290.664561 
L 261.983002 290.629693 
L 262.783432 290.723239 
L 263.583862 289.988584 
L 264.384293 289.835451 
L 265.184723 290.415594 
L 265.985153 290.066458 
L 266.785584 290.428631 
L 267.586014 291.006773 
L 268.386444 290.71752 
L 269.987305 291.266818 
L 270.787735 291.223086 
L 271.588166 290.077777 
L 272.388596 289.883292 
L 273.189026 289.572856 
L 274.789887 287.958397 
L 275.590317 287.201308 
L 276.390748 287.323562 
L 277.191178 287.208202 
L 277.991608 287.524836 
L 279.592469 285.972381 
L 280.392899 286.349947 
L 281.99376 285.04374 
L 282.79419 285.080214 
L 283.594621 285.83021 
L 284.395051 285.487529 
L 285.195481 285.740517 
L 285.995912 286.421825 
L 286.796342 285.889999 
L 287.596772 285.75843 
L 288.397203 285.9151 
L 289.998063 285.585921 
L 290.798494 285.508766 
L 291.598924 284.898318 
L 292.399354 285.473712 
L 294.000215 285.971328 
L 294.800646 286.44635 
L 296.401506 286.029353 
L 297.201937 287.2354 
L 298.002367 287.03014 
L 298.802797 287.084631 
L 299.603228 287.871423 
L 300.403658 287.978695 
L 301.204088 287.832687 
L 304.40581 288.899698 
L 305.20624 289.569371 
L 306.00667 289.937329 
L 306.807101 290.529172 
L 308.407961 288.693343 
L 309.208392 288.399943 
L 310.008822 287.205948 
L 310.809252 288.411518 
L 311.609683 288.144786 
L 312.410113 288.599145 
L 313.210543 288.732743 
L 314.010974 288.660428 
L 314.811404 288.079447 
L 318.013125 288.757434 
L 318.813556 287.945143 
L 319.613986 287.406811 
L 320.414416 286.499341 
L 321.214847 285.152293 
L 322.015277 285.813948 
L 322.815707 286.197902 
L 323.616138 286.738372 
L 324.416568 287.48182 
L 325.216998 287.357798 
L 326.017429 288.062557 
L 329.21915 287.80535 
L 330.01958 288.116719 
L 330.820011 287.330892 
L 331.620441 285.254828 
L 332.420871 285.049917 
L 333.221302 284.65776 
L 334.021732 284.90314 
L 335.622593 284.381838 
L 337.223453 282.948414 
L 338.023884 282.602315 
L 338.824314 281.275751 
L 339.624744 280.916082 
L 340.425175 280.780198 
L 341.225605 279.42447 
L 342.026036 280.064008 
L 342.826466 280.138749 
L 343.626896 281.439665 
L 344.427327 283.818788 
L 345.227757 285.094359 
L 346.028187 286.076986 
L 346.828618 285.143213 
L 347.629048 284.963058 
L 348.429478 284.991599 
L 350.030339 286.190797 
L 350.830769 286.281079 
L 351.6312 284.499426 
L 352.43163 283.945618 
L 353.23206 284.534026 
L 354.832921 281.116933 
L 355.633351 280.956286 
L 356.433782 279.205489 
L 357.234212 279.786024 
L 358.034642 278.620261 
L 359.635503 279.934178 
L 360.435933 279.598215 
L 361.236364 279.551121 
L 362.036794 280.892935 
L 362.837224 280.397642 
L 363.637655 278.88929 
L 364.438085 278.165805 
L 365.238515 278.677735 
L 366.038946 278.692712 
L 366.839376 280.208802 
L 367.639806 280.122547 
L 370.041097 281.143287 
L 370.841528 281.371539 
L 371.641958 280.573161 
L 372.442388 278.715612 
L 373.242819 278.745193 
L 374.843679 281.213042 
L 375.64411 283.01259 
L 376.44454 282.430287 
L 377.24497 282.827121 
L 378.045401 282.748891 
L 378.845831 283.272902 
L 379.646261 284.392152 
L 381.247122 285.88749 
L 382.047552 284.496562 
L 382.847983 283.85313 
L 383.648413 284.284432 
L 384.448843 281.861226 
L 385.249274 279.012393 
L 386.049704 278.636492 
L 386.850134 279.432879 
L 387.650565 278.806576 
L 388.450995 278.829182 
L 389.251425 279.146177 
L 390.852286 278.355177 
L 391.652717 278.920272 
L 392.453147 279.31762 
L 393.253577 280.347696 
L 394.054008 281.012211 
L 395.654868 281.809076 
L 396.455299 279.986159 
L 397.255729 280.557561 
L 398.056159 279.624535 
L 398.85659 278.290938 
L 399.65702 277.805382 
L 400.45745 279.400748 
L 401.257881 278.211369 
L 402.058311 277.902341 
L 402.858741 278.188977 
L 403.659172 277.771426 
L 404.459602 278.067232 
L 405.260032 278.601342 
L 406.060463 279.678253 
L 406.860893 281.329335 
L 407.661323 280.25392 
L 408.461754 281.436288 
L 409.262184 281.358592 
L 410.863045 281.792675 
L 411.663475 283.150576 
L 412.463905 284.18335 
L 414.064766 283.885416 
L 414.865196 283.388411 
L 416.466057 283.865295 
L 417.266487 283.295035 
L 418.066918 282.914207 
L 418.867348 282.914649 
L 419.667778 282.502944 
L 420.468209 283.420775 
L 421.268639 283.436806 
L 422.069069 283.0013 
L 422.8695 283.489225 
L 423.66993 283.067374 
L 424.47036 282.040586 
L 425.270791 281.874199 
L 426.071221 282.487548 
L 426.871651 283.398088 
L 427.672082 284.866669 
L 428.472512 285.334115 
L 429.272942 284.354593 
L 430.073373 283.932448 
L 430.873803 284.10859 
L 431.674233 284.978264 
L 432.474664 284.809494 
L 433.275094 285.117568 
L 434.075524 285.094614 
L 434.875955 285.844241 
L 435.676385 286.022574 
L 436.476815 285.166721 
L 437.277246 284.058841 
L 438.077676 283.651584 
L 438.878107 282.965461 
L 440.478967 283.266509 
L 441.279398 283.074552 
L 442.079828 281.224211 
L 442.880258 280.497799 
L 443.680689 278.948697 
L 444.481119 279.189678 
L 445.281549 278.768294 
L 446.08198 280.131167 
L 446.88241 281.959933 
L 447.68284 282.722663 
L 448.483271 284.896552 
L 449.283701 284.647184 
L 450.084131 284.560126 
L 450.884562 285.166892 
L 451.684992 283.78979 
L 452.485422 282.071394 
L 453.285853 283.066269 
L 454.086283 281.47187 
L 454.886713 280.778322 
L 456.487574 281.454293 
L 457.288004 281.477272 
L 458.088435 283.10423 
L 459.689295 282.529124 
L 460.489726 283.324034 
L 461.290156 283.19408 
L 462.090586 283.690002 
L 462.891017 283.5298 
L 463.691447 283.058128 
L 464.491877 282.853823 
L 465.292308 284.059298 
L 466.092738 284.150711 
L 466.893168 285.413128 
L 467.693599 285.478412 
L 468.494029 285.8178 
L 470.09489 285.651762 
L 470.89532 285.534127 
L 471.69575 286.134292 
L 472.496181 285.979867 
L 473.296611 286.365118 
L 474.097041 285.943074 
L 475.697902 285.632685 
L 476.498332 287.271187 
L 477.298763 288.067732 
L 478.099193 288.121714 
L 478.899623 287.665442 
L 479.700054 287.928769 
L 480.500484 288.513353 
L 481.300914 288.413754 
L 482.101345 288.168377 
L 483.702205 288.076053 
L 484.502636 287.109949 
L 485.303066 285.870676 
L 486.103497 285.773693 
L 486.903927 285.210432 
L 487.704357 286.090858 
L 488.504788 285.63364 
L 489.305218 286.264946 
L 490.105648 287.40543 
L 490.906079 288.09502 
L 491.706509 289.065339 
L 492.506939 289.31426 
L 493.30737 288.680496 
L 494.1078 288.681954 
L 494.90823 288.915225 
L 495.708661 288.569673 
L 496.509091 288.812076 
L 496.509091 288.812076 
" clip-path="url(#pa7610d5f48)" style="fill: none; stroke: #2ca02c; stroke-width: 1.5; stroke-linecap: square"/>
   </g>
   <g id="line2d_26">
    <path d="M 90.690909 290.939542 
L 92.29177 289.707163 
L 93.0922 286.222603 
L 93.89263 283.334905 
L 94.693061 282.985162 
L 96.293921 283.741396 
L 97.094352 280.82825 
L 98.695212 276.932989 
L 100.296073 279.498452 
L 101.096503 281.357021 
L 101.896934 277.671392 
L 102.697364 280.938676 
L 103.497795 283.16098 
L 104.298225 284.281534 
L 105.098655 281.457161 
L 105.899086 280.052131 
L 106.699516 270.800769 
L 107.499946 273.861925 
L 108.300377 276.070582 
L 109.100807 276.840735 
L 109.901237 277.89635 
L 111.502098 280.438317 
L 112.302528 278.331067 
L 113.102959 280.842219 
L 113.903389 279.275614 
L 114.703819 279.532654 
L 115.50425 278.729424 
L 116.30468 276.44077 
L 117.10511 275.994287 
L 118.705971 277.97071 
L 119.506401 279.265079 
L 120.306832 276.871827 
L 121.107262 279.053876 
L 121.907692 277.645388 
L 122.708123 268.918028 
L 123.508553 267.285507 
L 124.308983 269.411707 
L 125.109414 269.859774 
L 125.909844 269.692636 
L 126.710274 271.20847 
L 127.510705 273.530235 
L 128.311135 271.073881 
L 129.111565 273.836676 
L 129.911996 271.449892 
L 130.712426 268.113308 
L 131.512856 266.28666 
L 132.313287 268.241314 
L 133.113717 271.384701 
L 133.914147 272.307285 
L 134.714578 268.519166 
L 135.515008 271.006882 
L 136.315438 274.209892 
L 137.115869 274.315098 
L 137.916299 275.142689 
L 138.716729 274.166678 
L 139.51716 269.076644 
L 140.31759 269.485838 
L 141.11802 268.996815 
L 141.918451 272.461256 
L 142.718881 271.700146 
L 143.519311 270.568879 
L 144.319742 274.168277 
L 145.120172 273.471559 
L 145.920602 271.076373 
L 146.721033 270.785208 
L 147.521463 269.560415 
L 148.321893 270.026002 
L 149.122324 271.58311 
L 149.922754 271.152594 
L 150.723185 271.339689 
L 151.523615 267.250778 
L 152.324045 268.168338 
L 153.124476 267.729917 
L 153.924906 267.728302 
L 154.725336 267.297715 
L 155.525767 264.92747 
L 156.326197 263.014042 
L 157.126627 258.685539 
L 157.927058 260.209967 
L 158.727488 259.738949 
L 159.527918 262.710198 
L 160.328349 264.156746 
L 161.128779 266.805918 
L 161.929209 268.560038 
L 162.72964 270.928951 
L 163.53007 266.371978 
L 164.3305 266.332782 
L 165.130931 265.983965 
L 165.931361 267.487607 
L 166.731791 267.95124 
L 167.532222 266.120672 
L 168.332652 265.138253 
L 169.133082 266.75404 
L 169.933513 261.64524 
L 170.733943 261.961273 
L 171.534373 261.257793 
L 172.334804 263.409283 
L 173.135234 261.889494 
L 173.935664 261.577889 
L 174.736095 260.457561 
L 175.536525 259.812627 
L 176.336955 258.804798 
L 177.137386 253.256231 
L 177.937816 250.401737 
L 178.738246 249.153208 
L 179.538677 247.049549 
L 180.339107 248.052669 
L 181.139537 247.595693 
L 181.939968 240.485791 
L 182.740398 241.012478 
L 183.540828 246.620948 
L 184.341259 244.527832 
L 185.141689 247.177808 
L 185.942119 247.367886 
L 186.74255 245.975676 
L 187.54298 253.803254 
L 188.34341 254.701932 
L 189.143841 257.584743 
L 189.944271 259.221301 
L 190.744701 258.516201 
L 191.545132 258.402406 
L 192.345562 260.851218 
L 193.145992 259.933808 
L 193.946423 258.357484 
L 194.746853 255.573632 
L 195.547283 255.890517 
L 196.347714 249.778299 
L 197.148144 249.230648 
L 197.948575 253.513946 
L 198.749005 257.009584 
L 199.549435 250.235543 
L 200.349866 254.832995 
L 201.950726 242.651213 
L 202.751157 242.580846 
L 203.551587 244.819328 
L 204.352017 248.973698 
L 205.152448 247.305266 
L 205.952878 248.619538 
L 206.753308 244.027905 
L 207.553739 245.759638 
L 208.354169 241.595569 
L 209.154599 241.175423 
L 209.95503 244.078517 
L 210.75546 245.229012 
L 211.55589 244.045612 
L 212.356321 242.658788 
L 213.156751 241.766733 
L 213.957181 244.704557 
L 214.757612 244.681785 
L 215.558042 244.874195 
L 216.358472 242.352906 
L 217.158903 240.739904 
L 217.959333 243.597397 
L 218.759763 242.109102 
L 219.560194 237.756623 
L 220.360624 244.237267 
L 221.961485 233.424148 
L 222.761915 238.265377 
L 223.562345 237.033747 
L 224.362776 238.432481 
L 225.163206 234.897381 
L 225.963636 237.771914 
L 226.764067 238.065969 
L 227.564497 236.045129 
L 228.364927 235.465446 
L 229.165358 234.221572 
L 229.965788 234.748882 
L 230.766218 232.605004 
L 231.566649 228.586409 
L 232.367079 229.828196 
L 233.167509 230.158664 
L 233.96794 233.739499 
L 234.76837 233.933869 
L 235.5688 235.987776 
L 236.369231 235.265728 
L 237.169661 232.885945 
L 237.970091 232.334402 
L 238.770522 232.530731 
L 239.570952 229.537917 
L 240.371382 235.382932 
L 241.171813 237.391547 
L 241.972243 235.869521 
L 242.772673 232.304803 
L 243.573104 237.329056 
L 244.373534 235.834973 
L 245.173964 235.750991 
L 245.974395 240.099638 
L 247.575256 238.550459 
L 248.375686 237.555987 
L 249.976547 234.104359 
L 250.776977 225.149604 
L 252.377838 235.09162 
L 253.178268 237.758459 
L 253.978698 226.688527 
L 254.779129 231.150794 
L 255.579559 234.002555 
L 256.379989 233.011374 
L 257.18042 237.054688 
L 257.98085 239.935135 
L 258.78128 240.871599 
L 259.581711 233.784726 
L 260.382141 234.712426 
L 261.182571 231.211569 
L 261.983002 230.570526 
L 262.783432 232.783294 
L 263.583862 228.293243 
L 264.384293 227.779017 
L 265.184723 234.629993 
L 265.985153 232.383179 
L 266.785584 230.600017 
L 267.586014 234.126637 
L 268.386444 233.258782 
L 269.186875 229.946193 
L 269.987305 233.66071 
L 270.787735 234.491048 
L 271.588166 230.784431 
L 272.388596 229.09974 
L 273.189026 233.939459 
L 273.989457 232.665637 
L 274.789887 234.018213 
L 276.390748 222.071911 
L 277.191178 223.009307 
L 277.991608 227.044321 
L 278.792039 225.223745 
L 279.592469 218.277998 
L 280.392899 222.058501 
L 281.19333 220.038264 
L 281.99376 221.047106 
L 282.79419 221.224477 
L 283.594621 220.584145 
L 284.395051 220.181366 
L 285.195481 222.709254 
L 285.995912 224.531183 
L 286.796342 221.718357 
L 287.596772 225.521462 
L 288.397203 227.304256 
L 289.197633 224.931993 
L 289.998063 225.476262 
L 290.798494 223.577801 
L 291.598924 226.307979 
L 292.399354 218.659064 
L 293.199785 215.564969 
L 294.000215 217.576579 
L 294.800646 211.686221 
L 295.601076 207.568313 
L 296.401506 211.100953 
L 298.002367 216.720642 
L 298.802797 217.345131 
L 299.603228 216.548013 
L 300.403658 216.305961 
L 301.204088 212.338891 
L 302.004519 211.263296 
L 302.804949 210.79734 
L 303.605379 210.654309 
L 305.20624 218.484883 
L 306.00667 216.326714 
L 306.807101 217.606138 
L 307.607531 216.602668 
L 308.407961 219.556539 
L 309.208392 220.755669 
L 310.008822 225.611753 
L 310.809252 233.124696 
L 311.609683 235.263836 
L 312.410113 234.38833 
L 313.210543 232.153572 
L 314.010974 227.312106 
L 314.811404 226.520166 
L 315.611834 216.517044 
L 316.412265 213.651768 
L 317.212695 212.614554 
L 318.013125 216.433178 
L 318.813556 212.160884 
L 319.613986 212.836904 
L 320.414416 213.9523 
L 321.214847 216.923203 
L 322.015277 214.883265 
L 322.815707 217.375463 
L 323.616138 220.841458 
L 324.416568 216.112938 
L 326.017429 217.52921 
L 326.817859 219.843624 
L 327.618289 224.867724 
L 328.41872 225.022359 
L 329.21915 218.316127 
L 330.01958 213.604674 
L 330.820011 215.306189 
L 331.620441 219.135811 
L 332.420871 220.894386 
L 333.221302 215.70791 
L 334.021732 218.422423 
L 334.822162 217.456036 
L 335.622593 219.609827 
L 336.423023 217.993735 
L 337.223453 219.351349 
L 338.023884 222.889039 
L 338.824314 219.113313 
L 339.624744 222.095056 
L 340.425175 222.789559 
L 341.225605 222.483805 
L 342.026036 224.041818 
L 342.826466 227.470833 
L 343.626896 229.546502 
L 345.227757 234.361721 
L 346.028187 236.277416 
L 346.828618 234.722168 
L 347.629048 234.998786 
L 348.429478 231.827824 
L 349.229909 231.236354 
L 350.030339 226.808009 
L 350.830769 223.208581 
L 351.6312 220.949603 
L 352.43163 216.219742 
L 353.23206 216.385989 
L 354.032491 219.205807 
L 354.832921 221.42113 
L 355.633351 224.033996 
L 356.433782 223.944076 
L 357.234212 218.844826 
L 358.034642 211.721148 
L 358.835073 211.384554 
L 359.635503 215.379427 
L 360.435933 216.654414 
L 361.236364 214.020447 
L 362.036794 215.801227 
L 363.637655 225.011043 
L 364.438085 232.292135 
L 365.238515 235.174605 
L 366.038946 236.806228 
L 366.839376 239.167386 
L 368.440237 240.895612 
L 369.240667 235.875098 
L 370.041097 239.29045 
L 370.841528 240.812425 
L 371.641958 240.588374 
L 372.442388 244.016539 
L 373.242819 242.489156 
L 374.043249 246.330766 
L 374.843679 245.676616 
L 375.64411 244.384554 
L 376.44454 241.389313 
L 377.24497 236.408271 
L 378.045401 224.479114 
L 378.845831 222.229882 
L 379.646261 225.740617 
L 380.446692 223.967605 
L 381.247122 226.220681 
L 382.047552 230.59658 
L 382.847983 233.267239 
L 383.648413 234.823196 
L 384.448843 230.539226 
L 385.249274 225.40893 
L 386.049704 231.839125 
L 386.850134 236.497465 
L 387.650565 243.250212 
L 388.450995 247.672632 
L 389.251425 248.14858 
L 390.051856 250.138568 
L 390.852286 251.421199 
L 391.652717 249.089386 
L 392.453147 247.728666 
L 394.854438 236.200183 
L 396.455299 238.723162 
L 397.255729 238.297439 
L 398.056159 243.662888 
L 398.85659 246.932205 
L 399.65702 243.658061 
L 400.45745 246.898685 
L 401.257881 248.468729 
L 402.058311 246.801704 
L 402.858741 245.994578 
L 403.659172 243.637778 
L 404.459602 244.27932 
L 405.260032 240.544761 
L 406.060463 237.610582 
L 406.860893 241.264981 
L 407.661323 246.79464 
L 408.461754 246.681609 
L 409.262184 247.497049 
L 410.062614 248.889514 
L 410.863045 251.770077 
L 411.663475 251.000273 
L 412.463905 252.661511 
L 413.264336 251.067923 
L 414.064766 242.081047 
L 414.865196 242.561163 
L 415.665627 249.304289 
L 416.466057 254.528827 
L 417.266487 252.6931 
L 418.066918 251.640255 
L 418.867348 248.497121 
L 419.667778 252.217829 
L 420.468209 250.938537 
L 422.069069 250.0361 
L 423.66993 249.54595 
L 424.47036 250.812033 
L 425.270791 249.555118 
L 426.071221 246.283804 
L 426.871651 247.426589 
L 428.472512 242.067901 
L 430.073373 253.699473 
L 430.873803 256.577713 
L 431.674233 258.194092 
L 432.474664 253.665939 
L 433.275094 253.26075 
L 434.075524 253.071229 
L 434.875955 250.848833 
L 435.676385 251.655616 
L 436.476815 244.228038 
L 437.277246 246.513883 
L 438.077676 243.212025 
L 438.878107 241.466394 
L 439.678537 239.25821 
L 440.478967 234.1375 
L 441.279398 234.974009 
L 442.880258 230.652558 
L 443.680689 231.915081 
L 444.481119 238.8561 
L 445.281549 236.888912 
L 446.08198 235.682837 
L 446.88241 236.826938 
L 447.68284 237.275799 
L 448.483271 234.188532 
L 449.283701 239.496913 
L 450.084131 240.820258 
L 450.884562 232.210737 
L 452.485422 233.014974 
L 453.285853 233.926014 
L 454.086283 235.650309 
L 454.886713 237.863482 
L 455.687144 237.61808 
L 456.487574 239.378977 
L 457.288004 237.29791 
L 458.088435 235.728664 
L 458.888865 232.304567 
L 459.689295 231.340241 
L 460.489726 222.121426 
L 461.290156 223.053678 
L 462.090586 225.416832 
L 462.891017 230.424456 
L 463.691447 237.728636 
L 464.491877 239.535029 
L 465.292308 242.553072 
L 466.092738 241.382419 
L 466.893168 239.821124 
L 467.693599 236.028472 
L 468.494029 235.880467 
L 469.294459 231.061225 
L 470.09489 236.816755 
L 471.69575 235.469574 
L 472.496181 238.948537 
L 473.296611 237.970075 
L 474.097041 236.475158 
L 474.897472 241.237372 
L 475.697902 240.740684 
L 476.498332 236.641075 
L 477.298763 236.017397 
L 478.099193 235.706922 
L 478.899623 232.737789 
L 479.700054 233.035871 
L 480.500484 235.76943 
L 482.101345 238.722853 
L 482.901775 236.492013 
L 483.702205 228.100926 
L 484.502636 224.953659 
L 485.303066 228.61815 
L 486.103497 233.304062 
L 486.903927 239.034063 
L 487.704357 235.167735 
L 488.504788 233.575877 
L 489.305218 237.179016 
L 490.105648 242.772507 
L 490.906079 244.512237 
L 491.706509 244.314033 
L 492.506939 238.635929 
L 493.30737 237.790252 
L 494.1078 239.216547 
L 494.90823 243.358383 
L 495.708661 246.597474 
L 496.509091 247.323964 
L 496.509091 247.323964 
" clip-path="url(#pa7610d5f48)" style="fill: none; stroke: #d62728; stroke-width: 1.5; stroke-linecap: square"/>
   </g>
   <g id="line2d_27">
    <path d="M 90.690909 278.913416 
L 91.491339 279.218646 
L 92.29177 279.38127 
L 93.89263 280.653315 
L 95.493491 281.555291 
L 96.293921 281.50379 
L 97.894782 280.932805 
L 98.695212 280.430198 
L 101.096503 280.067724 
L 101.896934 280.154331 
L 102.697364 280.591111 
L 103.497795 280.655033 
L 105.098655 280.391268 
L 105.899086 280.262164 
L 106.699516 280.519098 
L 108.300377 280.485138 
L 109.100807 280.220226 
L 109.901237 279.766516 
L 110.701668 279.510124 
L 111.502098 279.066627 
L 113.102959 279.044048 
L 113.903389 278.570864 
L 114.703819 278.314459 
L 115.50425 278.54266 
L 116.30468 278.415843 
L 120.306832 279.118167 
L 121.907692 278.740697 
L 122.708123 278.348794 
L 124.308983 278.141365 
L 125.109414 278.452478 
L 125.909844 278.630814 
L 127.510705 278.473 
L 128.311135 278.118291 
L 131.512856 278.021155 
L 132.313287 278.070171 
L 133.113717 278.265129 
L 136.315438 278.4614 
L 137.115869 278.426687 
L 137.916299 278.575051 
L 138.716729 278.972122 
L 140.31759 278.897763 
L 141.918451 278.511349 
L 143.519311 277.914096 
L 144.319742 277.817348 
L 145.920602 277.768695 
L 146.721033 277.424791 
L 147.521463 277.278636 
L 149.922754 277.743044 
L 150.723185 277.841237 
L 153.124476 277.447854 
L 153.924906 277.321784 
L 155.525767 276.838366 
L 157.927058 276.170013 
L 159.527918 276.144418 
L 161.128779 276.450649 
L 163.53007 276.381423 
L 164.3305 276.412518 
L 166.731791 276.094791 
L 168.332652 275.94933 
L 173.935664 275.628085 
L 176.336955 275.633227 
L 178.738246 275.599395 
L 193.946423 275.401746 
L 198.749005 275.486345 
L 203.551587 275.389574 
L 207.553739 275.554545 
L 213.957181 275.686583 
L 218.759763 275.593234 
L 235.5688 275.422756 
L 238.770522 275.405518 
L 241.972243 275.452402 
L 249.176116 275.262284 
L 263.583862 275.236489 
L 266.785584 275.239534 
L 271.588166 275.430142 
L 275.590317 275.36558 
L 278.792039 275.30988 
L 281.19333 275.339251 
L 286.796342 275.2894 
L 290.798494 275.233617 
L 293.199785 275.160837 
L 309.208392 275.171886 
L 311.609683 275.178918 
L 315.611834 275.212012 
L 318.813556 275.235624 
L 332.420871 275.44663 
L 336.423023 275.507089 
L 338.824314 275.619963 
L 340.425175 275.73515 
L 342.026036 275.742048 
L 343.626896 275.90252 
L 345.227757 276.170597 
L 346.828618 276.10469 
L 347.629048 276.022067 
L 350.030339 276.080669 
L 352.43163 275.788517 
L 354.832921 275.809653 
L 357.234212 275.747891 
L 358.835073 275.683741 
L 362.036794 275.528522 
L 365.238515 275.647244 
L 366.839376 275.701549 
L 369.240667 275.700734 
L 370.841528 275.794496 
L 377.24497 275.648914 
L 381.247122 275.678232 
L 385.249274 275.810918 
L 386.850134 275.82875 
L 387.650565 275.886624 
L 389.251425 275.772419 
L 393.253577 275.985732 
L 398.056159 275.927669 
L 399.65702 275.966567 
L 401.257881 275.982933 
L 405.260032 276.229185 
L 407.661323 276.011547 
L 410.863045 276.17408 
L 411.663475 276.093714 
L 420.468209 276.521733 
L 422.069069 276.489296 
L 426.071221 276.350965 
L 428.472512 276.223959 
L 431.674233 276.25862 
L 439.678537 275.936427 
L 442.079828 275.789302 
L 443.680689 275.882228 
L 445.281549 276.044911 
L 446.88241 276.13783 
L 450.084131 276.625013 
L 455.687144 276.909331 
L 462.090586 276.506279 
L 466.092738 276.66455 
L 470.09489 276.506283 
L 470.89532 276.57538 
L 472.496181 276.517769 
L 474.897472 276.61868 
L 477.298763 276.443918 
L 478.899623 276.313026 
L 485.303066 275.959813 
L 490.105648 276.266973 
L 496.509091 276.129305 
L 496.509091 276.129305 
" clip-path="url(#pa7610d5f48)" style="fill: none; stroke: #9467bd; stroke-width: 1.5; stroke-linecap: square"/>
   </g>
   <g id="patch_3">
    <path d="M 70.4 305.152125 
L 70.4 27.952125 
" style="fill: none; stroke: #000000; stroke-width: 0.8; stroke-linejoin: miter; stroke-linecap: square"/>
   </g>
   <g id="patch_4">
    <path d="M 516.8 305.152125 
L 516.8 27.952125 
" style="fill: none; stroke: #000000; stroke-width: 0.8; stroke-linejoin: miter; stroke-linecap: square"/>
   </g>
   <g id="patch_5">
    <path d="M 70.4 305.152125 
L 516.8 305.152125 
" style="fill: none; stroke: #000000; stroke-width: 0.8; stroke-linejoin: miter; stroke-linecap: square"/>
   </g>
   <g id="patch_6">
    <path d="M 70.4 27.952125 
L 516.8 27.952125 
" style="fill: none; stroke: #000000; stroke-width: 0.8; stroke-linejoin: miter; stroke-linecap: square"/>
   </g>
   <g id="text_15">
    <!-- ML10 Meta Testing -->
    <g transform="translate(206.604313 21.952125)scale(0.216 -0.216)">
     <defs>
      <path id="STIXGeneral-Regular-4d" d="M 5530 0 
L 3738 0 
L 3738 122 
Q 4115 147 4214 265 
Q 4314 384 4314 787 
L 4314 3661 
L 2682 0 
L 2592 0 
L 979 3514 
L 979 966 
Q 979 448 1088 294 
Q 1197 141 1574 122 
L 1574 0 
L 77 0 
L 77 122 
Q 358 141 480 205 
Q 602 269 650 432 
Q 698 595 698 966 
L 698 3514 
Q 698 3878 589 3984 
Q 480 4090 90 4115 
L 90 4237 
L 1357 4237 
L 2835 1024 
L 4250 4237 
L 5523 4237 
L 5523 4115 
Q 5178 4109 5072 3993 
Q 4966 3878 4966 3520 
L 4966 717 
Q 4966 378 5072 262 
Q 5178 147 5530 122 
L 5530 0 
z
" transform="scale(0.015625)"/>
      <path id="STIXGeneral-Regular-4c" d="M 3827 1114 
L 3520 0 
L 77 0 
L 77 122 
Q 429 141 531 256 
Q 634 371 634 736 
L 634 3494 
Q 634 3872 541 3981 
Q 448 4090 77 4115 
L 77 4237 
L 1888 4237 
L 1888 4115 
Q 1498 4090 1392 3984 
Q 1286 3878 1286 3507 
L 1286 538 
Q 1286 358 1398 304 
Q 1510 250 1862 250 
L 2310 250 
Q 3085 250 3392 640 
Q 3520 813 3661 1114 
L 3827 1114 
z
" transform="scale(0.015625)"/>
     </defs>
     <use xlink:href="#STIXGeneral-Regular-4d"/>
     <use xlink:href="#STIXGeneral-Regular-4c" x="88.899994"/>
     <use xlink:href="#STIXGeneral-Regular-31" x="149.999985"/>
     <use xlink:href="#STIXGeneral-Regular-30" x="199.999969"/>
     <use xlink:href="#STIXGeneral-Regular-20" x="249.999954"/>
     <use xlink:href="#STIXGeneral-Regular-4d" x="274.999939"/>
     <use xlink:href="#STIXGeneral-Regular-65" x="363.899933"/>
     <use xlink:href="#STIXGeneral-Regular-74" x="408.299927"/>
     <use xlink:href="#STIXGeneral-Regular-61" x="436.099915"/>
     <use xlink:href="#STIXGeneral-Regular-20" x="480.499908"/>
     <use xlink:href="#STIXGeneral-Regular-54" x="505.499893"/>
     <use xlink:href="#STIXGeneral-Regular-65" x="566.599884"/>
     <use xlink:href="#STIXGeneral-Regular-73" x="610.999878"/>
     <use xlink:href="#STIXGeneral-Regular-74" x="649.899872"/>
     <use xlink:href="#STIXGeneral-Regular-69" x="677.69986"/>
     <use xlink:href="#STIXGeneral-Regular-6e" x="705.499847"/>
     <use xlink:href="#STIXGeneral-Regular-67" x="755.499832"/>
    </g>
   </g>
   <g id="legend_1">
    <g id="patch_7">
     <path d="M 400.794688 107.752125 
L 511.2 107.752125 
Q 514 107.752125 514 104.952125 
L 514 33.552125 
Q 514 30.752125 511.2 30.752125 
L 400.794688 30.752125 
Q 397.994687 30.752125 397.994687 33.552125 
L 397.994687 104.952125 
Q 397.994687 107.752125 400.794688 107.752125 
z
" style="fill: #ffffff; opacity: 0.8; stroke: #cccccc; stroke-linejoin: miter"/>
    </g>
    <g id="line2d_28">
     <path d="M 402.194687 40.663687 
L 409.194687 40.663687 
L 416.194687 40.663687 
" style="fill: none; stroke: #1f77b4; stroke-width: 1.5; stroke-linecap: square"/>
    </g>
    <g id="text_16">
     <!-- drawer-open-v2 -->
     <g transform="translate(420.394687 44.513687)scale(0.14 -0.14)">
      <defs>
       <path id="STIXGeneral-Regular-64" d="M 3142 269 
L 2202 -64 
L 2176 -45 
L 2176 365 
Q 1869 -64 1357 -64 
Q 826 -64 499 317 
Q 173 698 173 1312 
Q 173 1990 563 2467 
Q 954 2944 1504 2944 
Q 1850 2944 2176 2669 
L 2176 3667 
Q 2176 3866 2118 3930 
Q 2061 3994 1882 3994 
Q 1792 3994 1741 3987 
L 1741 4090 
Q 2323 4243 2682 4371 
L 2714 4358 
L 2714 730 
Q 2714 506 2768 435 
Q 2822 365 2995 365 
Q 3034 365 3142 371 
L 3142 269 
z
M 2176 653 
L 2176 2125 
Q 2176 2381 1981 2573 
Q 1786 2765 1523 2765 
Q 1158 2765 940 2438 
Q 723 2112 723 1568 
Q 723 979 963 624 
Q 1203 269 1606 269 
Q 1907 269 2080 474 
Q 2176 582 2176 653 
z
" transform="scale(0.015625)"/>
       <path id="STIXGeneral-Regular-77" d="M 4442 2880 
L 4442 2784 
Q 4346 2752 4301 2691 
Q 4256 2630 4179 2438 
L 3296 224 
Q 3168 -90 3117 -90 
Q 3085 -90 3062 -48 
Q 3040 -6 2963 186 
L 2381 1696 
L 1664 160 
Q 1549 -90 1504 -90 
Q 1446 -90 1338 192 
L 474 2381 
Q 378 2630 314 2700 
Q 250 2771 134 2784 
L 134 2880 
L 1286 2880 
L 1286 2784 
Q 1120 2765 1056 2720 
Q 992 2675 992 2573 
Q 992 2477 1030 2381 
L 1664 710 
L 2246 1984 
L 2118 2342 
Q 2029 2598 1942 2681 
Q 1856 2765 1677 2784 
L 1677 2880 
L 2976 2880 
L 2976 2784 
Q 2752 2752 2678 2707 
Q 2605 2662 2605 2560 
Q 2605 2458 2714 2176 
L 3251 742 
L 3827 2163 
Q 3936 2432 3936 2592 
Q 3936 2669 3875 2710 
Q 3814 2752 3654 2784 
L 3654 2880 
L 4442 2880 
z
" transform="scale(0.015625)"/>
       <path id="STIXGeneral-Regular-2d" d="M 1824 1242 
L 250 1242 
L 250 1645 
L 1824 1645 
L 1824 1242 
z
" transform="scale(0.015625)"/>
      </defs>
      <use xlink:href="#STIXGeneral-Regular-64"/>
      <use xlink:href="#STIXGeneral-Regular-72" x="49.999985"/>
      <use xlink:href="#STIXGeneral-Regular-61" x="83.299973"/>
      <use xlink:href="#STIXGeneral-Regular-77" x="127.699966"/>
      <use xlink:href="#STIXGeneral-Regular-65" x="199.899948"/>
      <use xlink:href="#STIXGeneral-Regular-72" x="244.299942"/>
      <use xlink:href="#STIXGeneral-Regular-2d" x="277.59993"/>
      <use xlink:href="#STIXGeneral-Regular-6f" x="310.899918"/>
      <use xlink:href="#STIXGeneral-Regular-70" x="360.899902"/>
      <use xlink:href="#STIXGeneral-Regular-65" x="410.899887"/>
      <use xlink:href="#STIXGeneral-Regular-6e" x="455.299881"/>
      <use xlink:href="#STIXGeneral-Regular-2d" x="505.299866"/>
      <use xlink:href="#STIXGeneral-Regular-76" x="538.599854"/>
      <use xlink:href="#STIXGeneral-Regular-32" x="588.599838"/>
     </g>
    </g>
    <g id="line2d_29">
     <path d="M 402.194687 54.663687 
L 409.194687 54.663687 
L 416.194687 54.663687 
" style="fill: none; stroke: #ff7f0e; stroke-width: 1.5; stroke-linecap: square"/>
    </g>
    <g id="text_17">
     <!-- door-close-v2 -->
     <g transform="translate(420.394687 58.513687)scale(0.14 -0.14)">
      <defs>
       <path id="STIXGeneral-Regular-63" d="M 2547 998 
L 2637 941 
Q 2362 403 2112 205 
Q 1786 -64 1376 -64 
Q 845 -64 502 336 
Q 160 736 160 1357 
Q 160 2170 698 2618 
Q 1094 2944 1562 2944 
Q 1965 2944 2256 2749 
Q 2547 2554 2547 2285 
Q 2547 2176 2457 2096 
Q 2368 2016 2246 2016 
Q 2022 2016 1939 2310 
L 1901 2451 
Q 1850 2630 1773 2694 
Q 1696 2758 1523 2758 
Q 1133 2758 893 2451 
Q 653 2144 653 1645 
Q 653 1094 928 745 
Q 1203 397 1645 397 
Q 1920 397 2118 528 
Q 2317 659 2547 998 
z
" transform="scale(0.015625)"/>
       <path id="STIXGeneral-Regular-6c" d="M 1645 0 
L 134 0 
L 134 96 
Q 435 122 531 221 
Q 627 320 627 589 
L 627 3590 
Q 627 3821 569 3910 
Q 512 4000 358 4000 
Q 224 4000 122 3987 
L 122 4090 
Q 730 4237 1133 4371 
L 1165 4346 
L 1165 557 
Q 1165 288 1254 201 
Q 1344 115 1645 96 
L 1645 0 
z
" transform="scale(0.015625)"/>
      </defs>
      <use xlink:href="#STIXGeneral-Regular-64"/>
      <use xlink:href="#STIXGeneral-Regular-6f" x="49.999985"/>
      <use xlink:href="#STIXGeneral-Regular-6f" x="99.999969"/>
      <use xlink:href="#STIXGeneral-Regular-72" x="149.999954"/>
      <use xlink:href="#STIXGeneral-Regular-2d" x="183.299942"/>
      <use xlink:href="#STIXGeneral-Regular-63" x="216.59993"/>
      <use xlink:href="#STIXGeneral-Regular-6c" x="260.999924"/>
      <use xlink:href="#STIXGeneral-Regular-6f" x="288.799911"/>
      <use xlink:href="#STIXGeneral-Regular-73" x="338.799896"/>
      <use xlink:href="#STIXGeneral-Regular-65" x="377.69989"/>
      <use xlink:href="#STIXGeneral-Regular-2d" x="422.099884"/>
      <use xlink:href="#STIXGeneral-Regular-76" x="455.399872"/>
      <use xlink:href="#STIXGeneral-Regular-32" x="505.399857"/>
     </g>
    </g>
    <g id="line2d_30">
     <path d="M 402.194687 68.663687 
L 409.194687 68.663687 
L 416.194687 68.663687 
" style="fill: none; stroke: #2ca02c; stroke-width: 1.5; stroke-linecap: square"/>
    </g>
    <g id="text_18">
     <!-- shelf-place-v2 -->
     <g transform="translate(420.394687 72.513687)scale(0.14 -0.14)">
      <defs>
       <path id="STIXGeneral-Regular-68" d="M 3117 0 
L 1760 0 
L 1760 96 
Q 2042 128 2118 224 
Q 2195 320 2195 653 
L 2195 1920 
Q 2195 2598 1722 2598 
Q 1530 2598 1370 2508 
Q 1210 2419 1005 2195 
L 1005 653 
Q 1005 320 1081 224 
Q 1158 128 1440 96 
L 1440 0 
L 58 0 
L 58 96 
Q 333 134 400 224 
Q 467 314 467 653 
L 467 3667 
Q 467 3872 406 3933 
Q 346 3994 141 3994 
Q 83 3994 64 3987 
L 64 4090 
L 237 4141 
Q 730 4288 973 4371 
L 1005 4352 
L 1005 2406 
Q 1229 2694 1446 2819 
Q 1664 2944 1946 2944 
Q 2733 2944 2733 1926 
L 2733 653 
Q 2733 320 2793 233 
Q 2854 147 3117 96 
L 3117 0 
z
" transform="scale(0.015625)"/>
       <path id="STIXGeneral-Regular-66" d="M 134 2880 
L 659 2880 
Q 666 3264 710 3478 
Q 755 3693 883 3910 
Q 1152 4371 1786 4371 
Q 2074 4371 2262 4259 
Q 2451 4147 2451 3974 
Q 2451 3866 2374 3789 
Q 2298 3712 2182 3712 
Q 2029 3712 1894 3942 
Q 1741 4192 1555 4192 
Q 1197 4192 1197 3622 
L 1197 2880 
L 1978 2880 
L 1978 2675 
L 1197 2675 
L 1197 666 
Q 1197 307 1299 208 
Q 1402 109 1792 96 
L 1792 0 
L 128 0 
L 128 96 
Q 474 115 566 214 
Q 659 314 659 666 
L 659 2675 
L 134 2675 
L 134 2880 
z
" transform="scale(0.015625)"/>
      </defs>
      <use xlink:href="#STIXGeneral-Regular-73"/>
      <use xlink:href="#STIXGeneral-Regular-68" x="38.899994"/>
      <use xlink:href="#STIXGeneral-Regular-65" x="88.899979"/>
      <use xlink:href="#STIXGeneral-Regular-6c" x="133.299973"/>
      <use xlink:href="#STIXGeneral-Regular-66" x="161.09996"/>
      <use xlink:href="#STIXGeneral-Regular-2d" x="194.399948"/>
      <use xlink:href="#STIXGeneral-Regular-70" x="227.699936"/>
      <use xlink:href="#STIXGeneral-Regular-6c" x="277.699921"/>
      <use xlink:href="#STIXGeneral-Regular-61" x="305.499908"/>
      <use xlink:href="#STIXGeneral-Regular-63" x="349.899902"/>
      <use xlink:href="#STIXGeneral-Regular-65" x="394.299896"/>
      <use xlink:href="#STIXGeneral-Regular-2d" x="438.69989"/>
      <use xlink:href="#STIXGeneral-Regular-76" x="471.999878"/>
      <use xlink:href="#STIXGeneral-Regular-32" x="521.999863"/>
     </g>
    </g>
    <g id="line2d_31">
     <path d="M 402.194687 82.663687 
L 409.194687 82.663687 
L 416.194687 82.663687 
" style="fill: none; stroke: #d62728; stroke-width: 1.5; stroke-linecap: square"/>
    </g>
    <g id="text_19">
     <!-- sweep-into-v2 -->
     <g transform="translate(420.394687 86.513687)scale(0.14 -0.14)">
      <use xlink:href="#STIXGeneral-Regular-73"/>
      <use xlink:href="#STIXGeneral-Regular-77" x="38.899994"/>
      <use xlink:href="#STIXGeneral-Regular-65" x="111.099976"/>
      <use xlink:href="#STIXGeneral-Regular-65" x="155.499969"/>
      <use xlink:href="#STIXGeneral-Regular-70" x="199.899963"/>
      <use xlink:href="#STIXGeneral-Regular-2d" x="249.899948"/>
      <use xlink:href="#STIXGeneral-Regular-69" x="283.199936"/>
      <use xlink:href="#STIXGeneral-Regular-6e" x="310.999924"/>
      <use xlink:href="#STIXGeneral-Regular-74" x="360.999908"/>
      <use xlink:href="#STIXGeneral-Regular-6f" x="388.799896"/>
      <use xlink:href="#STIXGeneral-Regular-2d" x="438.799881"/>
      <use xlink:href="#STIXGeneral-Regular-76" x="472.099869"/>
      <use xlink:href="#STIXGeneral-Regular-32" x="522.099854"/>
     </g>
    </g>
    <g id="line2d_32">
     <path d="M 402.194687 96.663687 
L 409.194687 96.663687 
L 416.194687 96.663687 
" style="fill: none; stroke: #9467bd; stroke-width: 1.5; stroke-linecap: square"/>
    </g>
    <g id="text_20">
     <!-- lever-pull-v2 -->
     <g transform="translate(420.394687 100.513687)scale(0.14 -0.14)">
      <use xlink:href="#STIXGeneral-Regular-6c"/>
      <use xlink:href="#STIXGeneral-Regular-65" x="27.799988"/>
      <use xlink:href="#STIXGeneral-Regular-76" x="72.199982"/>
      <use xlink:href="#STIXGeneral-Regular-65" x="122.199966"/>
      <use xlink:href="#STIXGeneral-Regular-72" x="166.59996"/>
      <use xlink:href="#STIXGeneral-Regular-2d" x="199.899948"/>
      <use xlink:href="#STIXGeneral-Regular-70" x="233.199936"/>
      <use xlink:href="#STIXGeneral-Regular-75" x="283.199921"/>
      <use xlink:href="#STIXGeneral-Regular-6c" x="333.199905"/>
      <use xlink:href="#STIXGeneral-Regular-6c" x="360.999893"/>
      <use xlink:href="#STIXGeneral-Regular-2d" x="388.799881"/>
      <use xlink:href="#STIXGeneral-Regular-76" x="422.099869"/>
      <use xlink:href="#STIXGeneral-Regular-32" x="472.099854"/>
     </g>
    </g>
   </g>
  </g>
 </g>
 <defs>
  <clipPath id="pa7610d5f48">
   <rect x="70.4" y="27.952125" width="446.4" height="277.2"/>
  </clipPath>
 </defs>
</svg>
