<?xml version="1.0" encoding="utf-8" standalone="no"?>
<!DOCTYPE svg PUBLIC "-//W3C//DTD SVG 1.1//EN"
  "http://www.w3.org/Graphics/SVG/1.1/DTD/svg11.dtd">
<svg xmlns:xlink="http://www.w3.org/1999/xlink" width="524pt" height="355.769pt" viewBox="0 0 524 355.769" xmlns="http://www.w3.org/2000/svg" version="1.1">
 <metadata>
  <rdf:RDF xmlns:dc="http://purl.org/dc/elements/1.1/" xmlns:cc="http://creativecommons.org/ns#" xmlns:rdf="http://www.w3.org/1999/02/22-rdf-syntax-ns#">
   <cc:Work>
    <dc:type rdf:resource="http://purl.org/dc/dcmitype/StillImage"/>
    <dc:date>2021-12-11T15:59:38.292665</dc:date>
    <dc:format>image/svg+xml</dc:format>
    <dc:creator>
     <cc:Agent>
      <dc:title>Matplotlib v3.5.0, https://matplotlib.org/</dc:title>
     </cc:Agent>
    </dc:creator>
   </cc:Work>
  </rdf:RDF>
 </metadata>
 <defs>
  <style type="text/css">*{stroke-linejoin: round; stroke-linecap: butt}</style>
 </defs>
 <g id="figure_1">
  <g id="patch_1">
   <path d="M 0 355.769 
L 524 355.769 
L 524 0 
L 0 0 
z
" style="fill: #ffffff"/>
  </g>
  <g id="axes_1">
   <g id="patch_2">
    <path d="M 70.4 305.152125 
L 516.8 305.152125 
L 516.8 27.952125 
L 70.4 27.952125 
z
" style="fill: #ffffff"/>
   </g>
   <g id="matplotlib.axis_1">
    <g id="xtick_1">
     <g id="line2d_1">
      <path d="M 89.785065 305.152125 
L 89.785065 27.952125 
" clip-path="url(#p4855e01773)" style="fill: none; stroke: #b0b0b0; stroke-width: 0.8; stroke-linecap: square"/>
     </g>
     <g id="line2d_2">
      <defs>
       <path id="ma3aab18038" d="M 0 0 
L 0 3.5 
" style="stroke: #000000; stroke-width: 0.8"/>
      </defs>
      <g>
       <use xlink:href="#ma3aab18038" x="89.785065" y="305.152125" style="stroke: #000000; stroke-width: 0.8"/>
      </g>
     </g>
     <g id="text_1">
      <!-- 0 -->
      <g transform="translate(85.285065 324.445562)scale(0.18 -0.18)">
       <defs>
        <path id="STIXGeneral-Regular-30" d="M 3046 2112 
Q 3046 1683 2963 1302 
Q 2880 922 2717 602 
Q 2554 282 2266 96 
Q 1978 -90 1600 -90 
Q 1210 -90 915 108 
Q 621 307 461 640 
Q 301 973 227 1350 
Q 154 1728 154 2150 
Q 154 2746 301 3222 
Q 448 3699 790 4012 
Q 1133 4326 1626 4326 
Q 2253 4326 2649 3712 
Q 3046 3098 3046 2112 
z
M 2432 2080 
Q 2432 3091 2217 3625 
Q 2003 4160 1587 4160 
Q 1190 4160 979 3622 
Q 768 3085 768 2106 
Q 768 1120 979 598 
Q 1190 77 1600 77 
Q 2003 77 2217 598 
Q 2432 1120 2432 2080 
z
" transform="scale(0.015625)"/>
       </defs>
       <use xlink:href="#STIXGeneral-Regular-30"/>
      </g>
     </g>
    </g>
    <g id="xtick_2">
     <g id="line2d_3">
      <path d="M 165.272078 305.152125 
L 165.272078 27.952125 
" clip-path="url(#p4855e01773)" style="fill: none; stroke: #b0b0b0; stroke-width: 0.8; stroke-linecap: square"/>
     </g>
     <g id="line2d_4">
      <g>
       <use xlink:href="#ma3aab18038" x="165.272078" y="305.152125" style="stroke: #000000; stroke-width: 0.8"/>
      </g>
     </g>
     <g id="text_2">
      <!-- 1 -->
      <g transform="translate(160.772078 324.445562)scale(0.18 -0.18)">
       <defs>
        <path id="STIXGeneral-Regular-31" d="M 2522 0 
L 755 0 
L 755 96 
Q 1107 115 1235 227 
Q 1363 339 1363 608 
L 1363 3482 
Q 1363 3795 1171 3795 
Q 1082 3795 883 3718 
L 710 3654 
L 710 3744 
L 1856 4326 
L 1914 4307 
L 1914 486 
Q 1914 275 2042 185 
Q 2170 96 2522 96 
L 2522 0 
z
" transform="scale(0.015625)"/>
       </defs>
       <use xlink:href="#STIXGeneral-Regular-31"/>
      </g>
     </g>
    </g>
    <g id="xtick_3">
     <g id="line2d_5">
      <path d="M 240.759091 305.152125 
L 240.759091 27.952125 
" clip-path="url(#p4855e01773)" style="fill: none; stroke: #b0b0b0; stroke-width: 0.8; stroke-linecap: square"/>
     </g>
     <g id="line2d_6">
      <g>
       <use xlink:href="#ma3aab18038" x="240.759091" y="305.152125" style="stroke: #000000; stroke-width: 0.8"/>
      </g>
     </g>
     <g id="text_3">
      <!-- 2 -->
      <g transform="translate(236.259091 324.445562)scale(0.18 -0.18)">
       <defs>
        <path id="STIXGeneral-Regular-32" d="M 3034 877 
L 2688 0 
L 186 0 
L 186 77 
L 1325 1286 
Q 1773 1754 1965 2144 
Q 2157 2534 2157 2950 
Q 2157 3379 1920 3616 
Q 1683 3853 1267 3853 
Q 922 3853 720 3673 
Q 518 3494 326 3021 
L 192 3053 
Q 301 3648 630 3987 
Q 960 4326 1523 4326 
Q 2054 4326 2380 4006 
Q 2707 3686 2707 3200 
Q 2707 2477 1888 1613 
L 832 486 
L 2330 486 
Q 2541 486 2665 569 
Q 2790 653 2944 915 
L 3034 877 
z
" transform="scale(0.015625)"/>
       </defs>
       <use xlink:href="#STIXGeneral-Regular-32"/>
      </g>
     </g>
    </g>
    <g id="xtick_4">
     <g id="line2d_7">
      <path d="M 316.246104 305.152125 
L 316.246104 27.952125 
" clip-path="url(#p4855e01773)" style="fill: none; stroke: #b0b0b0; stroke-width: 0.8; stroke-linecap: square"/>
     </g>
     <g id="line2d_8">
      <g>
       <use xlink:href="#ma3aab18038" x="316.246104" y="305.152125" style="stroke: #000000; stroke-width: 0.8"/>
      </g>
     </g>
     <g id="text_4">
      <!-- 3 -->
      <g transform="translate(311.746104 324.445562)scale(0.18 -0.18)">
       <defs>
        <path id="STIXGeneral-Regular-33" d="M 390 3264 
L 288 3290 
Q 435 3770 748 4048 
Q 1062 4326 1542 4326 
Q 1990 4326 2265 4083 
Q 2541 3840 2541 3450 
Q 2541 2925 1946 2566 
Q 2298 2413 2477 2227 
Q 2758 1914 2758 1402 
Q 2758 890 2464 506 
Q 2246 211 1840 60 
Q 1434 -90 979 -90 
Q 262 -90 262 275 
Q 262 378 339 442 
Q 416 506 525 506 
Q 685 506 915 339 
Q 1197 141 1466 141 
Q 1818 141 2058 425 
Q 2298 710 2298 1120 
Q 2298 1856 1632 2048 
Q 1434 2112 979 2112 
L 979 2202 
Q 1338 2323 1517 2432 
Q 2035 2726 2035 3290 
Q 2035 3610 1852 3776 
Q 1670 3942 1344 3942 
Q 768 3942 390 3264 
z
" transform="scale(0.015625)"/>
       </defs>
       <use xlink:href="#STIXGeneral-Regular-33"/>
      </g>
     </g>
    </g>
    <g id="xtick_5">
     <g id="line2d_9">
      <path d="M 391.733117 305.152125 
L 391.733117 27.952125 
" clip-path="url(#p4855e01773)" style="fill: none; stroke: #b0b0b0; stroke-width: 0.8; stroke-linecap: square"/>
     </g>
     <g id="line2d_10">
      <g>
       <use xlink:href="#ma3aab18038" x="391.733117" y="305.152125" style="stroke: #000000; stroke-width: 0.8"/>
      </g>
     </g>
     <g id="text_5">
      <!-- 4 -->
      <g transform="translate(387.233117 324.445562)scale(0.18 -0.18)">
       <defs>
        <path id="STIXGeneral-Regular-34" d="M 3027 1069 
L 2368 1069 
L 2368 0 
L 1869 0 
L 1869 1069 
L 77 1069 
L 77 1478 
L 2086 4326 
L 2368 4326 
L 2368 1478 
L 3027 1478 
L 3027 1069 
z
M 1869 1478 
L 1869 3674 
L 333 1478 
L 1869 1478 
z
" transform="scale(0.015625)"/>
       </defs>
       <use xlink:href="#STIXGeneral-Regular-34"/>
      </g>
     </g>
    </g>
    <g id="xtick_6">
     <g id="line2d_11">
      <path d="M 467.22013 305.152125 
L 467.22013 27.952125 
" clip-path="url(#p4855e01773)" style="fill: none; stroke: #b0b0b0; stroke-width: 0.8; stroke-linecap: square"/>
     </g>
     <g id="line2d_12">
      <g>
       <use xlink:href="#ma3aab18038" x="467.22013" y="305.152125" style="stroke: #000000; stroke-width: 0.8"/>
      </g>
     </g>
     <g id="text_6">
      <!-- 5 -->
      <g transform="translate(462.72013 324.445562)scale(0.18 -0.18)">
       <defs>
        <path id="STIXGeneral-Regular-35" d="M 2803 4358 
L 2573 3814 
Q 2534 3731 2400 3731 
L 1158 3731 
L 902 3187 
Q 1606 3053 1920 2896 
Q 2234 2739 2502 2368 
Q 2726 2061 2726 1555 
Q 2726 1094 2576 780 
Q 2426 467 2099 224 
Q 1664 -90 1011 -90 
Q 646 -90 422 19 
Q 198 128 198 307 
Q 198 550 486 550 
Q 717 550 960 352 
Q 1210 147 1414 147 
Q 1747 147 2012 480 
Q 2278 813 2278 1229 
Q 2278 1843 1850 2189 
Q 1293 2637 486 2637 
Q 410 2637 410 2688 
L 416 2720 
L 1114 4237 
L 2438 4237 
Q 2547 4237 2608 4269 
Q 2669 4301 2746 4403 
L 2803 4358 
z
" transform="scale(0.015625)"/>
       </defs>
       <use xlink:href="#STIXGeneral-Regular-35"/>
      </g>
     </g>
    </g>
    <g id="text_7">
     <!-- Training Environment Steps -->
     <g transform="translate(191.604688 344.645562)scale(0.18 -0.18)">
      <defs>
       <path id="STIXGeneral-Regular-54" d="M 3795 3149 
L 3642 3149 
Q 3539 3674 3353 3821 
Q 3168 3968 2656 3968 
L 2278 3968 
L 2278 710 
Q 2278 346 2387 243 
Q 2496 141 2893 122 
L 2893 0 
L 1024 0 
L 1024 122 
Q 1427 147 1526 256 
Q 1626 365 1626 787 
L 1626 3968 
L 1242 3968 
Q 723 3968 540 3817 
Q 358 3667 262 3149 
L 109 3149 
L 154 4237 
L 3750 4237 
L 3795 3149 
z
" transform="scale(0.015625)"/>
       <path id="STIXGeneral-Regular-72" d="M 1024 2931 
L 1024 2342 
Q 1267 2688 1430 2816 
Q 1594 2944 1792 2944 
Q 1958 2944 2051 2854 
Q 2144 2765 2144 2605 
Q 2144 2470 2077 2393 
Q 2010 2317 1894 2317 
Q 1773 2317 1638 2445 
Q 1536 2541 1472 2541 
Q 1338 2541 1181 2355 
Q 1024 2170 1024 2016 
L 1024 576 
Q 1024 301 1133 205 
Q 1242 109 1568 96 
L 1568 0 
L 32 0 
L 32 96 
Q 339 154 412 224 
Q 486 294 486 538 
L 486 2138 
Q 486 2349 438 2435 
Q 390 2522 269 2522 
Q 166 2522 45 2496 
L 45 2598 
Q 448 2726 992 2944 
L 1024 2931 
z
" transform="scale(0.015625)"/>
       <path id="STIXGeneral-Regular-61" d="M 2829 422 
L 2829 243 
Q 2586 -64 2253 -64 
Q 1888 -64 1843 403 
L 1837 403 
Q 1427 -64 909 -64 
Q 608 -64 422 112 
Q 237 288 237 602 
Q 237 1050 685 1350 
Q 992 1555 1837 1869 
L 1837 2214 
Q 1837 2502 1699 2646 
Q 1562 2790 1338 2790 
Q 1146 2790 1018 2697 
Q 890 2605 890 2477 
Q 890 2419 909 2348 
Q 928 2278 928 2208 
Q 928 2112 841 2029 
Q 755 1946 634 1946 
Q 525 1946 441 2029 
Q 358 2112 358 2240 
Q 358 2547 685 2752 
Q 986 2944 1421 2944 
Q 1939 2944 2176 2656 
Q 2291 2522 2323 2384 
Q 2355 2246 2355 1946 
L 2355 723 
Q 2355 301 2554 301 
Q 2682 301 2829 422 
z
M 1837 813 
L 1837 1715 
Q 1248 1510 1018 1293 
Q 800 1094 800 800 
Q 800 557 921 432 
Q 1043 307 1242 307 
Q 1453 307 1613 410 
Q 1747 506 1792 589 
Q 1837 672 1837 813 
z
" transform="scale(0.015625)"/>
       <path id="STIXGeneral-Regular-69" d="M 1152 4045 
Q 1152 3904 1056 3811 
Q 960 3718 819 3718 
Q 685 3718 592 3811 
Q 499 3904 499 4045 
Q 499 4179 595 4275 
Q 691 4371 826 4371 
Q 966 4371 1059 4275 
Q 1152 4179 1152 4045 
z
M 1619 0 
L 102 0 
L 102 96 
Q 435 115 521 211 
Q 608 307 608 666 
L 608 2118 
Q 608 2342 563 2432 
Q 518 2522 397 2522 
Q 243 2522 128 2490 
L 128 2592 
L 1120 2944 
L 1146 2918 
L 1146 672 
Q 1146 314 1226 218 
Q 1306 122 1619 96 
L 1619 0 
z
" transform="scale(0.015625)"/>
       <path id="STIXGeneral-Regular-6e" d="M 3104 0 
L 1773 0 
L 1779 96 
Q 2016 115 2096 233 
Q 2176 352 2176 672 
L 2176 1946 
Q 2176 2592 1709 2592 
Q 1549 2592 1408 2515 
Q 1267 2438 1050 2227 
L 1050 461 
Q 1050 269 1136 192 
Q 1222 115 1466 96 
L 1466 0 
L 115 0 
L 115 96 
Q 358 115 435 214 
Q 512 314 512 602 
L 512 2157 
Q 512 2394 467 2483 
Q 422 2573 288 2573 
Q 160 2573 102 2547 
L 102 2656 
Q 550 2784 979 2944 
L 1030 2925 
L 1030 2426 
L 1037 2426 
Q 1491 2944 1958 2944 
Q 2323 2944 2518 2688 
Q 2714 2432 2714 1958 
L 2714 544 
Q 2714 288 2790 205 
Q 2867 122 3104 96 
L 3104 0 
z
" transform="scale(0.015625)"/>
       <path id="STIXGeneral-Regular-67" d="M 3008 2483 
L 2477 2483 
Q 2598 2208 2598 1946 
Q 2598 1453 2265 1203 
Q 1933 954 1600 954 
Q 1530 954 1357 973 
L 1235 986 
Q 1107 947 979 812 
Q 851 678 851 582 
Q 851 435 1350 410 
L 2176 371 
Q 2528 358 2739 172 
Q 2950 -13 2950 -314 
Q 2950 -685 2566 -986 
Q 2035 -1395 1286 -1395 
Q 826 -1395 502 -1212 
Q 179 -1030 179 -774 
Q 179 -595 320 -419 
Q 461 -243 806 6 
Q 602 102 534 172 
Q 467 243 467 346 
Q 467 531 762 787 
Q 909 915 1037 1043 
Q 717 1203 579 1401 
Q 442 1600 442 1901 
Q 442 2336 752 2640 
Q 1062 2944 1510 2944 
Q 1766 2944 2022 2848 
L 2163 2797 
Q 2349 2733 2515 2733 
L 3008 2733 
L 3008 2483 
z
M 973 2163 
L 973 2144 
Q 973 1683 1155 1398 
Q 1338 1114 1632 1114 
Q 1850 1114 1978 1270 
Q 2106 1427 2106 1690 
Q 2106 2112 1914 2464 
Q 1754 2765 1446 2765 
Q 1222 2765 1097 2605 
Q 973 2445 973 2163 
z
M 2771 -410 
Q 2771 -230 2595 -163 
Q 2419 -96 1978 -96 
Q 1344 -96 941 -13 
Q 749 -243 688 -348 
Q 627 -454 627 -563 
Q 627 -774 880 -902 
Q 1133 -1030 1555 -1030 
Q 2099 -1030 2435 -860 
Q 2771 -691 2771 -410 
z
" transform="scale(0.015625)"/>
       <path id="STIXGeneral-Regular-20" transform="scale(0.015625)"/>
       <path id="STIXGeneral-Regular-45" d="M 3821 1082 
L 3526 0 
L 77 0 
L 77 122 
Q 442 147 538 252 
Q 634 358 634 730 
L 634 3520 
Q 634 3878 534 3987 
Q 435 4096 77 4115 
L 77 4237 
L 3469 4237 
L 3494 3322 
L 3334 3322 
Q 3264 3750 3085 3872 
Q 2906 3994 2349 3994 
L 1510 3994 
Q 1370 3994 1328 3952 
Q 1286 3910 1286 3763 
L 1286 2355 
L 2253 2355 
Q 2656 2355 2787 2470 
Q 2918 2586 2976 2970 
L 3123 2970 
L 3123 1472 
L 2976 1472 
Q 2918 1875 2790 1984 
Q 2662 2093 2253 2093 
L 1286 2093 
L 1286 538 
Q 1286 346 1420 291 
Q 1555 237 1933 237 
L 2163 237 
Q 2848 237 3136 403 
Q 3424 570 3642 1082 
L 3821 1082 
z
" transform="scale(0.015625)"/>
       <path id="STIXGeneral-Regular-76" d="M 3053 2880 
L 3053 2784 
Q 2906 2771 2835 2688 
Q 2765 2605 2637 2285 
L 1818 230 
Q 1690 -90 1638 -90 
Q 1587 -90 1523 77 
Q 1510 96 1497 141 
Q 1485 186 1472 211 
L 704 2048 
Q 499 2534 403 2652 
Q 307 2771 122 2784 
L 122 2880 
L 1376 2880 
L 1376 2784 
Q 1210 2771 1146 2732 
Q 1082 2694 1082 2611 
Q 1082 2509 1139 2368 
L 1792 730 
L 2426 2387 
Q 2464 2483 2464 2579 
Q 2464 2758 2163 2784 
L 2163 2880 
L 3053 2880 
z
" transform="scale(0.015625)"/>
       <path id="STIXGeneral-Regular-6f" d="M 3008 1478 
Q 3008 806 2608 371 
Q 2208 -64 1568 -64 
Q 979 -64 582 368 
Q 186 800 186 1459 
Q 186 2125 582 2534 
Q 979 2944 1626 2944 
Q 2221 2944 2614 2537 
Q 3008 2131 3008 1478 
z
M 2432 1306 
Q 2432 2035 2112 2445 
Q 1856 2765 1504 2765 
Q 1171 2765 966 2493 
Q 762 2221 762 1747 
Q 762 928 1101 435 
Q 1318 115 1677 115 
Q 2029 115 2230 432 
Q 2432 749 2432 1306 
z
" transform="scale(0.015625)"/>
       <path id="STIXGeneral-Regular-6d" d="M 4960 0 
L 3565 0 
L 3565 96 
Q 3834 122 3907 208 
Q 3981 294 3981 576 
L 3981 1894 
Q 3981 2278 3869 2444 
Q 3757 2611 3488 2611 
Q 3264 2611 3107 2521 
Q 2950 2432 2803 2221 
L 2803 608 
Q 2803 301 2896 201 
Q 2989 102 3264 96 
L 3264 0 
L 1830 0 
L 1830 96 
Q 2112 115 2189 188 
Q 2266 262 2266 550 
L 2266 1901 
Q 2266 2611 1850 2611 
Q 1670 2611 1468 2531 
Q 1267 2451 1171 2336 
Q 1088 2240 1088 2227 
L 1088 448 
Q 1088 243 1177 176 
Q 1267 109 1523 96 
L 1523 0 
L 102 0 
L 102 96 
Q 371 102 460 195 
Q 550 288 550 563 
L 550 2150 
Q 550 2387 499 2480 
Q 448 2573 326 2573 
Q 230 2573 122 2547 
L 122 2656 
Q 557 2778 1011 2944 
L 1062 2925 
L 1062 2451 
L 1075 2451 
Q 1363 2752 1584 2848 
Q 1805 2944 2054 2944 
Q 2560 2944 2733 2406 
Q 3232 2944 3776 2944 
Q 4518 2944 4518 1792 
L 4518 493 
Q 4518 282 4582 202 
Q 4646 122 4794 109 
L 4960 96 
L 4960 0 
z
" transform="scale(0.015625)"/>
       <path id="STIXGeneral-Regular-65" d="M 2611 1050 
L 2714 1005 
Q 2330 -64 1376 -64 
Q 813 -64 486 329 
Q 160 723 160 1389 
Q 160 2074 525 2509 
Q 890 2944 1485 2944 
Q 2061 2944 2374 2502 
Q 2560 2246 2592 1773 
L 621 1773 
Q 646 1370 700 1158 
Q 755 947 915 730 
Q 1184 378 1626 378 
Q 1939 378 2153 531 
Q 2368 685 2611 1050 
z
M 634 1978 
L 1939 1978 
Q 1882 2381 1750 2547 
Q 1619 2714 1312 2714 
Q 1043 2714 864 2525 
Q 685 2336 634 1978 
z
" transform="scale(0.015625)"/>
       <path id="STIXGeneral-Regular-74" d="M 1702 493 
L 1786 422 
Q 1478 -64 1011 -64 
Q 448 -64 448 749 
L 448 2675 
L 109 2675 
Q 83 2694 83 2720 
Q 83 2771 192 2842 
Q 435 2982 813 3526 
Q 826 3546 874 3606 
Q 922 3667 941 3706 
Q 986 3706 986 3622 
L 986 2880 
L 1632 2880 
L 1632 2675 
L 986 2675 
L 986 845 
Q 986 538 1062 403 
Q 1139 269 1318 269 
Q 1510 269 1702 493 
z
" transform="scale(0.015625)"/>
       <path id="STIXGeneral-Regular-53" d="M 3002 2963 
L 2842 2963 
Q 2733 3360 2579 3565 
Q 2189 4064 1651 4064 
Q 1357 4064 1181 3894 
Q 1005 3725 1005 3456 
Q 1005 3328 1069 3206 
Q 1133 3085 1206 2998 
Q 1280 2912 1465 2784 
Q 1651 2656 1766 2589 
Q 1882 2522 2150 2362 
Q 2669 2061 2905 1763 
Q 3142 1466 3142 1107 
Q 3142 576 2771 243 
Q 2400 -90 1837 -90 
Q 1421 -90 1082 58 
Q 915 128 781 128 
Q 704 128 653 70 
Q 602 13 602 -83 
L 461 -83 
L 275 1274 
L 416 1274 
Q 845 141 1734 141 
Q 2074 141 2285 342 
Q 2496 544 2496 858 
Q 2496 1158 2310 1363 
Q 2003 1696 1235 2106 
Q 454 2522 454 3206 
Q 454 3718 768 4022 
Q 1082 4326 1568 4326 
Q 1907 4326 2240 4186 
Q 2413 4109 2522 4109 
Q 2688 4109 2726 4326 
L 2861 4326 
L 3002 2963 
z
" transform="scale(0.015625)"/>
       <path id="STIXGeneral-Regular-70" d="M 1018 2931 
L 1018 2438 
Q 1421 2944 1939 2944 
Q 2406 2944 2707 2560 
Q 3008 2176 3008 1581 
Q 3008 883 2621 409 
Q 2234 -64 1664 -64 
Q 1466 -64 1328 -6 
Q 1190 51 1018 211 
L 1018 -794 
Q 1018 -1094 1120 -1180 
Q 1222 -1267 1581 -1274 
L 1581 -1389 
L 32 -1389 
L 32 -1280 
Q 314 -1254 397 -1171 
Q 480 -1088 480 -838 
L 480 2157 
Q 480 2381 429 2451 
Q 378 2522 218 2522 
Q 115 2522 58 2515 
L 58 2618 
Q 506 2752 979 2944 
L 1018 2931 
z
M 1018 2138 
L 1018 563 
Q 1018 422 1238 281 
Q 1459 141 1683 141 
Q 2029 141 2243 467 
Q 2458 794 2458 1325 
Q 2458 1888 2243 2224 
Q 2029 2560 1670 2560 
Q 1446 2560 1232 2419 
Q 1018 2278 1018 2138 
z
" transform="scale(0.015625)"/>
       <path id="STIXGeneral-Regular-73" d="M 998 1926 
L 1664 1523 
Q 1984 1331 2105 1164 
Q 2227 998 2227 736 
Q 2227 416 1961 176 
Q 1696 -64 1331 -64 
Q 1030 -64 864 -6 
Q 691 51 570 51 
Q 461 51 416 -26 
L 333 -26 
L 333 979 
L 435 979 
Q 538 512 730 294 
Q 922 77 1248 77 
Q 1485 77 1632 211 
Q 1779 346 1779 550 
Q 1779 845 1440 1030 
L 1094 1222 
Q 326 1651 326 2150 
Q 326 2522 566 2730 
Q 806 2938 1210 2938 
Q 1491 2938 1638 2867 
Q 1754 2816 1818 2816 
Q 1862 2816 1920 2880 
L 1990 2880 
L 2022 2010 
L 1926 2010 
Q 1818 2445 1654 2621 
Q 1491 2797 1203 2797 
Q 986 2797 854 2688 
Q 723 2579 723 2362 
Q 723 2253 796 2128 
Q 870 2003 998 1926 
z
" transform="scale(0.015625)"/>
      </defs>
      <use xlink:href="#STIXGeneral-Regular-54"/>
      <use xlink:href="#STIXGeneral-Regular-72" x="61.099991"/>
      <use xlink:href="#STIXGeneral-Regular-61" x="94.399979"/>
      <use xlink:href="#STIXGeneral-Regular-69" x="138.799973"/>
      <use xlink:href="#STIXGeneral-Regular-6e" x="166.59996"/>
      <use xlink:href="#STIXGeneral-Regular-69" x="216.599945"/>
      <use xlink:href="#STIXGeneral-Regular-6e" x="244.399933"/>
      <use xlink:href="#STIXGeneral-Regular-67" x="294.399918"/>
      <use xlink:href="#STIXGeneral-Regular-20" x="344.399902"/>
      <use xlink:href="#STIXGeneral-Regular-45" x="369.399887"/>
      <use xlink:href="#STIXGeneral-Regular-6e" x="430.499878"/>
      <use xlink:href="#STIXGeneral-Regular-76" x="480.499863"/>
      <use xlink:href="#STIXGeneral-Regular-69" x="530.499847"/>
      <use xlink:href="#STIXGeneral-Regular-72" x="558.299835"/>
      <use xlink:href="#STIXGeneral-Regular-6f" x="591.599823"/>
      <use xlink:href="#STIXGeneral-Regular-6e" x="641.599808"/>
      <use xlink:href="#STIXGeneral-Regular-6d" x="691.599792"/>
      <use xlink:href="#STIXGeneral-Regular-65" x="769.39978"/>
      <use xlink:href="#STIXGeneral-Regular-6e" x="813.799774"/>
      <use xlink:href="#STIXGeneral-Regular-74" x="863.799759"/>
      <use xlink:href="#STIXGeneral-Regular-20" x="891.599747"/>
      <use xlink:href="#STIXGeneral-Regular-53" x="916.599731"/>
      <use xlink:href="#STIXGeneral-Regular-74" x="972.199722"/>
      <use xlink:href="#STIXGeneral-Regular-65" x="999.99971"/>
      <use xlink:href="#STIXGeneral-Regular-70" x="1044.399704"/>
      <use xlink:href="#STIXGeneral-Regular-73" x="1094.399689"/>
     </g>
    </g>
    <g id="text_8">
     <!-- 1e8 -->
     <g transform="translate(490.806875 343.645562)scale(0.18 -0.18)">
      <defs>
       <path id="STIXGeneral-Regular-38" d="M 2848 992 
Q 2848 499 2505 204 
Q 2163 -90 1587 -90 
Q 1050 -90 704 204 
Q 358 499 358 954 
Q 358 1293 524 1533 
Q 691 1773 1190 2125 
Q 710 2522 553 2765 
Q 397 3008 397 3328 
Q 397 3782 745 4054 
Q 1094 4326 1638 4326 
Q 2106 4326 2410 4060 
Q 2714 3795 2714 3411 
Q 2714 3059 2531 2848 
Q 2349 2637 1856 2374 
Q 2432 1990 2640 1689 
Q 2848 1389 2848 992 
z
M 2272 3411 
Q 2272 3744 2086 3945 
Q 1901 4147 1574 4147 
Q 1248 4147 1059 3977 
Q 870 3808 870 3513 
Q 870 3219 1059 2979 
Q 1248 2739 1670 2490 
Q 1997 2682 2134 2896 
Q 2272 3110 2272 3411 
z
M 1734 1741 
L 1357 1997 
Q 1075 1766 960 1545 
Q 845 1325 845 1011 
Q 845 576 1065 333 
Q 1286 90 1658 90 
Q 1971 90 2166 285 
Q 2362 480 2362 794 
Q 2362 1082 2214 1299 
Q 2067 1517 1734 1741 
z
" transform="scale(0.015625)"/>
      </defs>
      <use xlink:href="#STIXGeneral-Regular-31"/>
      <use xlink:href="#STIXGeneral-Regular-65" x="49.999985"/>
      <use xlink:href="#STIXGeneral-Regular-38" x="94.399979"/>
     </g>
    </g>
   </g>
   <g id="matplotlib.axis_2">
    <g id="ytick_1">
     <g id="line2d_13">
      <path d="M 70.4 292.55794 
L 516.8 292.55794 
" clip-path="url(#p4855e01773)" style="fill: none; stroke: #b0b0b0; stroke-width: 0.8; stroke-linecap: square"/>
     </g>
     <g id="line2d_14">
      <defs>
       <path id="m941ee72e06" d="M 0 0 
L -3.5 0 
" style="stroke: #000000; stroke-width: 0.8"/>
      </defs>
      <g>
       <use xlink:href="#m941ee72e06" x="70.4" y="292.55794" style="stroke: #000000; stroke-width: 0.8"/>
      </g>
     </g>
     <g id="text_9">
      <!-- 0 -->
      <g transform="translate(54.4 298.704659)scale(0.18 -0.18)">
       <use xlink:href="#STIXGeneral-Regular-30"/>
      </g>
     </g>
    </g>
    <g id="ytick_2">
     <g id="line2d_15">
      <path d="M 70.4 213.90309 
L 516.8 213.90309 
" clip-path="url(#p4855e01773)" style="fill: none; stroke: #b0b0b0; stroke-width: 0.8; stroke-linecap: square"/>
     </g>
     <g id="line2d_16">
      <g>
       <use xlink:href="#m941ee72e06" x="70.4" y="213.90309" style="stroke: #000000; stroke-width: 0.8"/>
      </g>
     </g>
     <g id="text_10">
      <!-- 1000 -->
      <g transform="translate(27.4 220.049809)scale(0.18 -0.18)">
       <use xlink:href="#STIXGeneral-Regular-31"/>
       <use xlink:href="#STIXGeneral-Regular-30" x="49.999985"/>
       <use xlink:href="#STIXGeneral-Regular-30" x="99.999969"/>
       <use xlink:href="#STIXGeneral-Regular-30" x="149.999954"/>
      </g>
     </g>
    </g>
    <g id="ytick_3">
     <g id="line2d_17">
      <path d="M 70.4 135.248239 
L 516.8 135.248239 
" clip-path="url(#p4855e01773)" style="fill: none; stroke: #b0b0b0; stroke-width: 0.8; stroke-linecap: square"/>
     </g>
     <g id="line2d_18">
      <g>
       <use xlink:href="#m941ee72e06" x="70.4" y="135.248239" style="stroke: #000000; stroke-width: 0.8"/>
      </g>
     </g>
     <g id="text_11">
      <!-- 2000 -->
      <g transform="translate(27.4 141.394958)scale(0.18 -0.18)">
       <use xlink:href="#STIXGeneral-Regular-32"/>
       <use xlink:href="#STIXGeneral-Regular-30" x="49.999985"/>
       <use xlink:href="#STIXGeneral-Regular-30" x="99.999969"/>
       <use xlink:href="#STIXGeneral-Regular-30" x="149.999954"/>
      </g>
     </g>
    </g>
    <g id="ytick_4">
     <g id="line2d_19">
      <path d="M 70.4 56.593389 
L 516.8 56.593389 
" clip-path="url(#p4855e01773)" style="fill: none; stroke: #b0b0b0; stroke-width: 0.8; stroke-linecap: square"/>
     </g>
     <g id="line2d_20">
      <g>
       <use xlink:href="#m941ee72e06" x="70.4" y="56.593389" style="stroke: #000000; stroke-width: 0.8"/>
      </g>
     </g>
     <g id="text_12">
      <!-- 3000 -->
      <g transform="translate(27.4 62.740108)scale(0.18 -0.18)">
       <use xlink:href="#STIXGeneral-Regular-33"/>
       <use xlink:href="#STIXGeneral-Regular-30" x="49.999985"/>
       <use xlink:href="#STIXGeneral-Regular-30" x="99.999969"/>
       <use xlink:href="#STIXGeneral-Regular-30" x="149.999954"/>
      </g>
     </g>
    </g>
    <g id="text_13">
     <!-- Average Test Return -->
     <g transform="translate(19.476562 241.533375)rotate(-90)scale(0.18 -0.18)">
      <defs>
       <path id="STIXGeneral-Regular-41" d="M 4525 0 
L 2893 0 
L 2893 122 
Q 3149 122 3245 179 
Q 3334 224 3334 333 
Q 3334 499 3213 781 
L 2950 1382 
L 1274 1382 
L 979 653 
Q 922 506 922 384 
Q 922 237 1027 179 
Q 1133 122 1370 122 
L 1370 0 
L 96 0 
L 96 122 
Q 365 147 486 316 
Q 608 486 902 1190 
L 2221 4314 
L 2349 4314 
L 3923 710 
Q 4064 378 4176 262 
Q 4288 147 4525 122 
L 4525 0 
z
M 2861 1645 
L 2118 3405 
L 1382 1645 
L 2861 1645 
z
" transform="scale(0.015625)"/>
       <path id="STIXGeneral-Regular-52" d="M 4224 0 
L 3187 0 
L 1664 1971 
L 1306 1958 
L 1306 717 
Q 1306 352 1405 249 
Q 1504 147 1875 122 
L 1875 0 
L 109 0 
L 109 122 
Q 474 154 563 262 
Q 653 371 653 794 
L 653 3526 
Q 653 3885 563 3987 
Q 474 4090 109 4115 
L 109 4237 
L 1850 4237 
Q 2726 4237 3187 3859 
Q 3501 3603 3501 3091 
Q 3501 2221 2342 2042 
L 3622 422 
Q 3757 256 3878 198 
Q 4000 141 4224 122 
L 4224 0 
z
M 1306 3731 
L 1306 2195 
Q 1766 2202 1990 2246 
Q 2214 2291 2438 2413 
Q 2803 2618 2803 3142 
Q 2803 4000 1632 4000 
Q 1459 4000 1382 3945 
Q 1306 3891 1306 3731 
z
" transform="scale(0.015625)"/>
       <path id="STIXGeneral-Regular-75" d="M 3072 320 
L 3072 230 
Q 2573 96 2195 -58 
L 2163 -38 
L 2163 486 
L 2150 486 
Q 1747 -64 1235 -64 
Q 870 -64 662 160 
Q 454 384 454 755 
L 454 2362 
Q 454 2598 371 2688 
Q 288 2778 58 2790 
L 58 2880 
L 992 2880 
L 992 813 
Q 992 595 1123 451 
Q 1254 307 1446 307 
Q 1760 307 1984 506 
Q 2067 582 2099 649 
Q 2131 717 2131 877 
L 2131 2355 
Q 2131 2605 2041 2678 
Q 1952 2752 1658 2771 
L 1658 2880 
L 2669 2880 
L 2669 685 
Q 2669 461 2742 390 
Q 2816 320 3034 320 
L 3072 320 
z
" transform="scale(0.015625)"/>
      </defs>
      <use xlink:href="#STIXGeneral-Regular-41"/>
      <use xlink:href="#STIXGeneral-Regular-76" x="72.199982"/>
      <use xlink:href="#STIXGeneral-Regular-65" x="122.199966"/>
      <use xlink:href="#STIXGeneral-Regular-72" x="166.59996"/>
      <use xlink:href="#STIXGeneral-Regular-61" x="199.899948"/>
      <use xlink:href="#STIXGeneral-Regular-67" x="244.299942"/>
      <use xlink:href="#STIXGeneral-Regular-65" x="294.299927"/>
      <use xlink:href="#STIXGeneral-Regular-20" x="338.699921"/>
      <use xlink:href="#STIXGeneral-Regular-54" x="363.699905"/>
      <use xlink:href="#STIXGeneral-Regular-65" x="424.799896"/>
      <use xlink:href="#STIXGeneral-Regular-73" x="469.19989"/>
      <use xlink:href="#STIXGeneral-Regular-74" x="508.099884"/>
      <use xlink:href="#STIXGeneral-Regular-20" x="535.899872"/>
      <use xlink:href="#STIXGeneral-Regular-52" x="560.899857"/>
      <use xlink:href="#STIXGeneral-Regular-65" x="627.599854"/>
      <use xlink:href="#STIXGeneral-Regular-74" x="671.999847"/>
      <use xlink:href="#STIXGeneral-Regular-75" x="699.799835"/>
      <use xlink:href="#STIXGeneral-Regular-72" x="749.79982"/>
      <use xlink:href="#STIXGeneral-Regular-6e" x="783.099808"/>
     </g>
    </g>
   </g>
   <g id="line2d_21">
    <path d="M 90.690909 214.321563 
L 91.596753 214.285996 
L 92.502597 215.043515 
L 93.408442 215.531843 
L 94.314286 209.767265 
L 95.22013 211.005992 
L 96.125974 211.791873 
L 97.031818 214.82269 
L 97.937662 214.314427 
L 98.843506 212.978396 
L 99.749351 205.378721 
L 100.655195 200.522205 
L 101.561039 204.859834 
L 102.466883 195.586183 
L 103.372727 189.016834 
L 104.278571 175.749003 
L 105.184416 164.681883 
L 106.09026 158.997559 
L 107.901948 142.311425 
L 108.807792 141.124587 
L 109.713636 139.400195 
L 110.619481 137.180372 
L 111.525325 138.922247 
L 113.337013 132.681275 
L 114.242857 134.953058 
L 115.148701 140.192525 
L 116.054545 133.168519 
L 116.96039 128.939997 
L 117.866234 126.312799 
L 118.772078 126.130883 
L 119.677922 124.065648 
L 120.583766 119.926608 
L 121.48961 115.226569 
L 122.395455 118.783465 
L 123.301299 118.03471 
L 125.112987 113.483051 
L 126.018831 113.015083 
L 126.924675 113.170291 
L 127.830519 113.6287 
L 128.736364 112.222828 
L 129.642208 112.018537 
L 130.548052 111.070947 
L 131.453896 109.125902 
L 132.35974 110.378825 
L 134.171429 111.164526 
L 135.077273 111.319487 
L 135.983117 110.3137 
L 136.888961 107.617633 
L 137.794805 105.861617 
L 138.700649 105.448115 
L 139.606494 105.753908 
L 140.512338 106.647789 
L 142.324026 107.04829 
L 143.22987 108.252484 
L 144.135714 108.106332 
L 145.041558 108.220417 
L 145.947403 106.527522 
L 147.759091 106.23179 
L 148.664935 108.183756 
L 149.570779 107.788513 
L 150.476623 107.523062 
L 151.382468 108.354221 
L 152.288312 108.648314 
L 153.194156 107.521288 
L 154.1 106.855749 
L 155.005844 107.80899 
L 155.911688 106.260502 
L 156.817532 107.383295 
L 157.723377 107.516265 
L 158.629221 106.71873 
L 159.535065 107.768572 
L 160.440909 107.730955 
L 161.346753 107.029933 
L 162.252597 106.670369 
L 163.158442 106.069322 
L 164.064286 107.042954 
L 164.97013 106.285207 
L 165.875974 104.966378 
L 166.781818 104.15262 
L 167.687662 104.5561 
L 169.499351 105.931643 
L 170.405195 104.941528 
L 171.311039 106.542191 
L 172.216883 107.787827 
L 173.122727 109.847893 
L 174.028571 110.531289 
L 174.934416 108.407981 
L 175.84026 108.390399 
L 176.746104 109.537812 
L 177.651948 111.762834 
L 178.557792 109.131568 
L 179.463636 107.445403 
L 180.369481 106.220522 
L 181.275325 106.054405 
L 182.181169 106.252663 
L 183.087013 105.038172 
L 183.992857 104.195697 
L 184.898701 103.85922 
L 185.804545 102.152714 
L 186.71039 103.336377 
L 187.616234 103.995787 
L 188.522078 106.102798 
L 189.427922 105.310327 
L 191.23961 107.398365 
L 192.145455 109.132385 
L 193.051299 106.446493 
L 193.957143 106.615976 
L 194.862987 108.119726 
L 195.768831 108.890944 
L 196.674675 111.754844 
L 197.580519 112.623973 
L 198.486364 108.391211 
L 199.392208 105.230103 
L 200.298052 104.548456 
L 201.203896 105.136326 
L 202.10974 106.211605 
L 203.015584 107.593938 
L 203.921429 105.978148 
L 204.827273 107.056773 
L 205.733117 108.771487 
L 206.638961 108.516222 
L 207.544805 107.44572 
L 209.356494 106.217829 
L 210.262338 105.673202 
L 211.168182 107.319565 
L 212.074026 106.409189 
L 212.97987 106.756978 
L 213.885714 105.026349 
L 214.791558 104.192459 
L 215.697403 102.97857 
L 216.603247 104.753481 
L 217.509091 105.997552 
L 219.320779 104.958061 
L 220.226623 106.617615 
L 221.132468 105.260884 
L 222.038312 104.507411 
L 222.944156 106.350052 
L 223.85 106.617402 
L 224.755844 108.347636 
L 225.661688 107.349438 
L 227.473377 106.116806 
L 228.379221 105.74604 
L 230.190909 107.286725 
L 232.002597 105.326153 
L 232.908442 106.296098 
L 233.814286 106.874224 
L 234.72013 106.675577 
L 235.625974 106.331724 
L 236.531818 106.186869 
L 237.437662 104.506473 
L 238.343506 106.959471 
L 239.249351 107.568924 
L 240.155195 107.766095 
L 241.061039 106.548325 
L 241.966883 105.712062 
L 243.778571 107.391389 
L 244.684416 106.367729 
L 245.59026 106.370467 
L 246.496104 106.944285 
L 247.401948 106.179151 
L 248.307792 107.936363 
L 249.213636 108.086236 
L 250.119481 108.372744 
L 251.025325 107.480165 
L 251.931169 106.87336 
L 252.837013 107.878325 
L 253.742857 109.795301 
L 254.648701 112.39421 
L 255.554545 110.78749 
L 256.46039 111.869337 
L 257.366234 111.718593 
L 258.272078 113.327192 
L 260.083766 114.261395 
L 260.98961 113.666628 
L 261.895455 111.085549 
L 262.801299 111.826764 
L 263.707143 113.891859 
L 264.612987 113.50293 
L 265.518831 114.235637 
L 266.424675 113.187586 
L 267.330519 113.591047 
L 268.236364 114.430677 
L 269.142208 114.240357 
L 270.048052 114.630025 
L 270.953896 116.379813 
L 271.85974 119.215075 
L 272.765584 122.666248 
L 273.671429 121.741408 
L 274.577273 121.297228 
L 275.483117 124.067826 
L 276.388961 124.234537 
L 277.294805 125.401428 
L 278.200649 124.47873 
L 279.106494 124.135397 
L 280.012338 121.61335 
L 280.918182 122.738271 
L 281.824026 123.434376 
L 282.72987 124.273381 
L 283.635714 124.164421 
L 284.541558 123.943455 
L 285.447403 123.018229 
L 286.353247 125.064686 
L 287.259091 123.620101 
L 288.164935 121.475216 
L 289.070779 118.864864 
L 289.976623 115.906968 
L 290.882468 114.24764 
L 291.788312 114.246605 
L 292.694156 112.510784 
L 294.505844 108.277496 
L 295.411688 108.758475 
L 296.317532 108.191882 
L 297.223377 109.648783 
L 298.129221 110.550568 
L 299.940909 108.516956 
L 300.846753 107.169693 
L 301.752597 107.316362 
L 302.658442 108.241139 
L 303.564286 107.559695 
L 304.47013 111.452089 
L 305.375974 115.943782 
L 306.281818 114.09327 
L 307.187662 113.423629 
L 308.093506 112.08917 
L 308.999351 111.260382 
L 309.905195 111.042418 
L 310.811039 111.511237 
L 311.716883 111.042189 
L 312.622727 111.013201 
L 313.528571 109.389144 
L 314.434416 109.350588 
L 315.34026 109.097327 
L 316.246104 108.18861 
L 317.151948 109.556336 
L 318.057792 108.472088 
L 318.963636 108.585297 
L 319.869481 113.445285 
L 320.775325 114.100658 
L 321.681169 112.747805 
L 322.587013 112.480509 
L 324.398701 117.877023 
L 325.304545 116.238812 
L 326.21039 115.044631 
L 327.116234 111.906682 
L 328.022078 110.898487 
L 328.927922 108.321868 
L 329.833766 107.263003 
L 330.73961 107.618751 
L 331.645455 107.715754 
L 332.551299 108.396289 
L 333.457143 107.647685 
L 334.362987 108.737976 
L 336.174675 109.657344 
L 337.080519 108.993576 
L 337.986364 110.972651 
L 338.892208 110.513037 
L 339.798052 107.143821 
L 341.60974 107.152505 
L 342.515584 107.538342 
L 343.421429 107.427404 
L 344.327273 105.037189 
L 345.233117 104.57391 
L 346.138961 104.738752 
L 347.044805 104.648948 
L 348.856494 107.133079 
L 349.762338 107.811403 
L 350.668182 107.257802 
L 351.574026 107.678731 
L 352.47987 107.901094 
L 353.385714 109.124565 
L 354.291558 109.518143 
L 355.197403 111.356482 
L 356.103247 111.611066 
L 357.009091 109.84622 
L 357.914935 107.232443 
L 358.820779 106.859577 
L 360.632468 108.176206 
L 361.538312 108.95859 
L 362.444156 112.424302 
L 363.35 114.546552 
L 364.255844 114.012476 
L 365.161688 114.126737 
L 366.973377 113.585849 
L 367.879221 114.862979 
L 368.785065 116.833829 
L 369.690909 118.183519 
L 370.596753 120.692569 
L 371.502597 122.863708 
L 372.408442 123.041051 
L 373.314286 120.785246 
L 374.22013 122.34793 
L 375.125974 125.670994 
L 376.031818 127.398013 
L 376.937662 127.275533 
L 377.843506 125.145973 
L 378.749351 122.185645 
L 379.655195 122.393786 
L 380.561039 125.218714 
L 381.466883 125.819069 
L 382.372727 125.245787 
L 383.278571 125.205137 
L 384.184416 126.020312 
L 385.996104 126.026413 
L 386.901948 128.726996 
L 387.807792 127.505801 
L 388.713636 127.461552 
L 389.619481 128.272369 
L 390.525325 129.417963 
L 391.431169 129.173743 
L 392.337013 127.796478 
L 393.242857 127.179468 
L 394.148701 125.491371 
L 395.054545 123.326081 
L 395.96039 123.286207 
L 396.866234 121.767602 
L 398.677922 119.611063 
L 399.583766 119.888226 
L 400.48961 119.845359 
L 401.395455 121.980105 
L 402.301299 122.42251 
L 404.112987 122.594307 
L 405.018831 124.276571 
L 405.924675 127.455002 
L 406.830519 134.023359 
L 407.736364 138.387992 
L 408.642208 136.874934 
L 409.548052 136.510563 
L 410.453896 135.748039 
L 411.35974 135.494927 
L 412.265584 132.480592 
L 413.171429 130.578826 
L 414.077273 131.843499 
L 415.888961 131.930852 
L 416.794805 131.331984 
L 417.700649 132.615221 
L 418.606494 129.563682 
L 419.512338 127.819656 
L 420.418182 126.498938 
L 421.324026 123.962813 
L 424.041558 115.34882 
L 424.947403 112.932146 
L 425.853247 112.655282 
L 426.759091 112.594834 
L 427.664935 111.94256 
L 428.570779 112.639306 
L 429.476623 111.575324 
L 430.382468 111.07849 
L 431.288312 109.07176 
L 432.194156 108.666452 
L 433.1 109.839147 
L 434.005844 109.014041 
L 434.911688 107.979715 
L 435.817532 108.158073 
L 436.723377 109.861144 
L 437.629221 109.801789 
L 438.535065 112.060233 
L 439.440909 110.74148 
L 441.252597 114.792632 
L 442.158442 112.972367 
L 443.064286 111.822499 
L 443.97013 111.37084 
L 444.875974 114.159902 
L 445.781818 112.607561 
L 446.687662 120.36915 
L 447.593506 124.110546 
L 448.499351 126.355768 
L 449.405195 127.508376 
L 450.311039 123.8641 
L 451.216883 122.271578 
L 452.122727 119.68294 
L 453.028571 118.813847 
L 453.934416 119.04853 
L 454.84026 120.101513 
L 455.746104 119.434331 
L 456.651948 118.175654 
L 457.557792 117.719528 
L 458.463636 117.839888 
L 459.369481 121.748809 
L 460.275325 123.886287 
L 462.087013 122.971847 
L 462.992857 121.868972 
L 463.898701 123.411741 
L 464.804545 121.922737 
L 465.71039 118.942285 
L 466.616234 118.561075 
L 467.522078 118.342273 
L 468.427922 119.666683 
L 469.333766 118.389304 
L 470.23961 116.788343 
L 471.145455 121.266458 
L 472.051299 123.338521 
L 472.957143 123.084022 
L 473.862987 123.463202 
L 474.768831 123.565516 
L 475.674675 122.385033 
L 476.580519 119.378432 
L 477.486364 120.069734 
L 478.392208 118.800258 
L 479.298052 119.882029 
L 480.203896 119.93234 
L 481.10974 119.475097 
L 482.015584 120.351354 
L 482.921429 120.513976 
L 483.827273 121.490002 
L 484.733117 119.793789 
L 485.638961 116.550184 
L 486.544805 115.512276 
L 487.450649 115.625807 
L 488.356494 115.953064 
L 489.262338 115.730681 
L 490.168182 115.063121 
L 491.074026 112.507265 
L 491.97987 111.582228 
L 492.885714 112.265697 
L 493.791558 113.3645 
L 494.697403 120.153353 
L 495.603247 124.490757 
L 496.509091 123.961892 
L 496.509091 123.961892 
" clip-path="url(#p4855e01773)" style="fill: none; stroke: #1f77b4; stroke-width: 1.5; stroke-linecap: square"/>
   </g>
   <g id="line2d_22">
    <path d="M 90.690909 285.862459 
L 91.596753 282.125416 
L 92.502597 281.555961 
L 93.408442 282.080928 
L 95.22013 280.517246 
L 97.031818 238.780741 
L 97.937662 240.288077 
L 98.843506 248.386164 
L 99.749351 239.643459 
L 100.655195 237.72615 
L 101.561039 239.921288 
L 102.466883 220.149358 
L 103.372727 183.74077 
L 105.184416 153.890454 
L 106.09026 132.616538 
L 106.996104 115.373171 
L 108.807792 67.957152 
L 109.713636 55.883425 
L 110.619481 46.023716 
L 111.525325 40.565186 
L 112.431169 40.552125 
L 113.337013 44.080162 
L 114.242857 46.393928 
L 115.148701 52.490902 
L 116.054545 52.143388 
L 116.96039 50.76025 
L 117.866234 53.086047 
L 118.772078 52.229086 
L 119.677922 54.01799 
L 121.48961 52.475166 
L 122.395455 51.211419 
L 123.301299 56.364843 
L 124.207143 57.372191 
L 125.112987 60.053088 
L 126.018831 61.772357 
L 126.924675 65.772894 
L 127.830519 66.55864 
L 128.736364 65.766134 
L 129.642208 69.426278 
L 130.548052 70.444308 
L 131.453896 75.208747 
L 132.35974 73.272868 
L 133.265584 74.905884 
L 134.171429 74.022472 
L 135.077273 77.471915 
L 135.983117 82.082233 
L 136.888961 80.813729 
L 137.794805 84.744373 
L 138.700649 83.191824 
L 139.606494 79.920443 
L 140.512338 85.564061 
L 142.324026 91.337787 
L 143.22987 84.277569 
L 144.135714 87.737324 
L 145.041558 90.716356 
L 145.947403 89.571516 
L 146.853247 88.187334 
L 150.476623 99.594723 
L 151.382468 101.146374 
L 152.288312 99.326257 
L 153.194156 101.990947 
L 154.1 105.408009 
L 155.005844 109.737809 
L 155.911688 110.951432 
L 156.817532 109.654666 
L 157.723377 110.578785 
L 158.629221 110.892099 
L 159.535065 111.83413 
L 160.440909 111.4009 
L 161.346753 112.639698 
L 162.252597 111.738576 
L 163.158442 107.592538 
L 164.064286 108.873704 
L 164.97013 108.085951 
L 165.875974 108.076119 
L 167.687662 106.649198 
L 168.593506 106.544841 
L 169.499351 106.597428 
L 170.405195 105.040505 
L 171.311039 104.89853 
L 172.216883 104.050701 
L 173.122727 104.181127 
L 174.028571 104.67713 
L 174.934416 103.788902 
L 175.84026 103.243376 
L 176.746104 105.134396 
L 177.651948 104.378718 
L 178.557792 105.047687 
L 179.463636 104.869158 
L 180.369481 105.202062 
L 181.275325 106.449588 
L 182.181169 106.216086 
L 183.087013 106.949968 
L 183.992857 104.685553 
L 184.898701 103.17017 
L 185.804545 104.641418 
L 186.71039 107.790931 
L 187.616234 107.498974 
L 188.522078 106.75074 
L 189.427922 107.835616 
L 190.333766 110.710614 
L 191.23961 112.141019 
L 192.145455 112.252017 
L 193.051299 109.792782 
L 193.957143 110.617811 
L 194.862987 109.812519 
L 195.768831 110.327146 
L 196.674675 108.501803 
L 197.580519 106.939154 
L 198.486364 106.445865 
L 199.392208 106.769613 
L 200.298052 106.52414 
L 201.203896 109.189435 
L 202.10974 112.376956 
L 203.921429 112.57375 
L 204.827273 109.511012 
L 205.733117 109.103743 
L 206.638961 106.689929 
L 207.544805 102.967332 
L 209.356494 103.759414 
L 211.168182 98.959791 
L 212.074026 99.665007 
L 212.97987 100.107224 
L 213.885714 99.115583 
L 214.791558 97.838935 
L 215.697403 96.200361 
L 216.603247 96.446122 
L 217.509091 98.084073 
L 218.414935 99.087606 
L 219.320779 97.741251 
L 220.226623 97.58413 
L 221.132468 96.68605 
L 222.038312 97.671355 
L 222.944156 99.33328 
L 223.85 99.016155 
L 224.755844 99.961113 
L 225.661688 99.61848 
L 226.567532 98.395764 
L 228.379221 101.660184 
L 229.285065 102.678033 
L 230.190909 101.62735 
L 231.096753 101.582067 
L 232.002597 103.331721 
L 232.908442 103.22713 
L 233.814286 104.349698 
L 234.72013 104.926127 
L 235.625974 104.024574 
L 236.531818 104.596686 
L 237.437662 101.999644 
L 238.343506 102.072747 
L 239.249351 101.536882 
L 240.155195 101.381599 
L 241.061039 100.045113 
L 242.872727 102.910108 
L 243.778571 102.910348 
L 245.59026 101.811488 
L 246.496104 102.338656 
L 247.401948 102.442328 
L 248.307792 102.864784 
L 249.213636 100.893231 
L 251.025325 98.271673 
L 251.931169 99.768186 
L 252.837013 100.383612 
L 253.742857 102.556022 
L 254.648701 100.769124 
L 255.554545 101.625051 
L 256.46039 103.051441 
L 257.366234 102.984186 
L 258.272078 102.801479 
L 259.177922 102.374585 
L 260.083766 101.538915 
L 260.98961 101.192126 
L 261.895455 100.64765 
L 262.801299 96.700598 
L 263.707143 98.51593 
L 264.612987 98.35318 
L 265.518831 97.30144 
L 266.424675 100.333908 
L 267.330519 101.498425 
L 268.236364 101.232446 
L 270.048052 102.762241 
L 270.953896 101.755532 
L 271.85974 102.131589 
L 272.765584 103.198392 
L 273.671429 100.294735 
L 274.577273 100.491667 
L 275.483117 100.315922 
L 276.388961 100.509003 
L 278.200649 101.358106 
L 279.106494 101.601419 
L 280.012338 102.704469 
L 280.918182 102.564057 
L 281.824026 102.649472 
L 282.72987 101.435015 
L 283.635714 102.808775 
L 284.541558 102.474186 
L 285.447403 105.591684 
L 286.353247 104.965022 
L 287.259091 107.013806 
L 288.164935 105.999355 
L 289.070779 107.183777 
L 289.976623 110.495248 
L 290.882468 110.967664 
L 291.788312 112.351705 
L 292.694156 111.425054 
L 293.6 109.979695 
L 294.505844 109.105475 
L 295.411688 108.059877 
L 296.317532 107.353364 
L 297.223377 107.542412 
L 298.129221 105.089249 
L 299.035065 105.365026 
L 299.940909 105.266368 
L 300.846753 104.847512 
L 301.752597 104.252244 
L 302.658442 103.859159 
L 303.564286 102.41601 
L 304.47013 100.649937 
L 305.375974 102.493948 
L 306.281818 102.090918 
L 307.187662 101.301029 
L 308.093506 102.498572 
L 308.999351 101.009792 
L 309.905195 101.344262 
L 310.811039 102.330763 
L 311.716883 102.003185 
L 312.622727 100.713052 
L 313.528571 101.498081 
L 314.434416 100.788201 
L 315.34026 101.839648 
L 316.246104 101.768813 
L 317.151948 100.870111 
L 318.057792 100.210949 
L 318.963636 100.94338 
L 319.869481 100.568478 
L 320.775325 101.003645 
L 321.681169 101.126447 
L 322.587013 100.628113 
L 323.492857 100.390447 
L 324.398701 101.792824 
L 325.304545 103.671165 
L 326.21039 105.205662 
L 327.116234 104.430334 
L 328.022078 103.883303 
L 328.927922 104.084859 
L 329.833766 101.680658 
L 330.73961 102.698766 
L 331.645455 102.42375 
L 332.551299 104.06728 
L 333.457143 104.541635 
L 334.362987 104.800807 
L 335.268831 107.594382 
L 336.174675 107.668972 
L 337.080519 107.169954 
L 337.986364 107.462476 
L 338.892208 107.495603 
L 339.798052 107.976271 
L 340.703896 107.327081 
L 341.60974 106.185769 
L 342.515584 106.886121 
L 343.421429 106.382921 
L 344.327273 105.551624 
L 345.233117 107.156318 
L 347.044805 107.620221 
L 347.950649 109.305295 
L 349.762338 110.60497 
L 350.668182 107.606718 
L 351.574026 106.923453 
L 352.47987 108.287137 
L 353.385714 103.214714 
L 354.291558 103.702203 
L 355.197403 104.792781 
L 356.103247 105.351245 
L 357.009091 105.164528 
L 357.914935 106.252076 
L 358.820779 105.404901 
L 359.726623 106.836568 
L 360.632468 109.088266 
L 361.538312 107.137816 
L 362.444156 107.316047 
L 363.35 107.338761 
L 365.161688 106.565387 
L 366.067532 108.416298 
L 366.973377 107.832262 
L 367.879221 107.69172 
L 368.785065 107.748858 
L 369.690909 107.921095 
L 370.596753 107.45889 
L 371.502597 106.19113 
L 372.408442 103.689813 
L 373.314286 100.797708 
L 374.22013 103.795416 
L 376.031818 104.944781 
L 376.937662 102.613489 
L 377.843506 102.696559 
L 378.749351 101.836263 
L 379.655195 102.936858 
L 380.561039 105.212642 
L 381.466883 103.223268 
L 382.372727 104.303814 
L 383.278571 104.769092 
L 384.184416 104.735414 
L 385.09026 105.659003 
L 385.996104 104.16542 
L 386.901948 104.426502 
L 387.807792 104.143406 
L 388.713636 104.665627 
L 389.619481 106.814298 
L 390.525325 106.072608 
L 391.431169 107.030508 
L 392.337013 108.151438 
L 393.242857 109.677324 
L 394.148701 110.375373 
L 395.96039 104.218938 
L 396.866234 104.592326 
L 397.772078 104.7355 
L 398.677922 102.219618 
L 399.583766 102.089576 
L 400.48961 103.27883 
L 401.395455 101.542269 
L 402.301299 101.612891 
L 403.207143 100.606352 
L 404.112987 102.772146 
L 405.018831 99.845937 
L 405.924675 103.7798 
L 406.830519 105.074705 
L 407.736364 105.681488 
L 408.642208 103.920309 
L 409.548052 107.321021 
L 410.453896 104.584778 
L 411.35974 107.963347 
L 412.265584 107.332738 
L 413.171429 108.347885 
L 414.077273 105.178491 
L 414.983117 105.732775 
L 415.888961 105.770613 
L 416.794805 106.550438 
L 417.700649 103.529314 
L 418.606494 105.94052 
L 419.512338 107.121684 
L 420.418182 107.454821 
L 421.324026 105.831347 
L 422.22987 104.91587 
L 423.135714 106.382313 
L 424.041558 105.053968 
L 424.947403 102.97749 
L 425.853247 102.546811 
L 426.759091 103.685832 
L 427.664935 104.415977 
L 428.570779 103.175336 
L 429.476623 104.988333 
L 430.382468 106.229715 
L 431.288312 107.138314 
L 432.194156 106.761122 
L 433.1 106.711596 
L 434.005844 106.472354 
L 434.911688 108.353765 
L 435.817532 108.564592 
L 436.723377 109.154246 
L 438.535065 107.198488 
L 439.440909 106.778031 
L 440.346753 105.214779 
L 441.252597 105.612209 
L 442.158442 106.687773 
L 443.97013 107.032479 
L 444.875974 106.306521 
L 446.687662 102.838283 
L 447.593506 102.827011 
L 448.499351 104.233278 
L 449.405195 104.011756 
L 450.311039 106.626256 
L 451.216883 107.081859 
L 452.122727 108.14448 
L 453.028571 107.684127 
L 453.934416 108.445598 
L 454.84026 109.76677 
L 455.746104 110.080547 
L 456.651948 109.953179 
L 457.557792 110.814526 
L 458.463636 109.385763 
L 459.369481 110.335163 
L 460.275325 110.944007 
L 461.181169 110.399898 
L 462.087013 110.408906 
L 462.992857 111.505946 
L 463.898701 111.096531 
L 464.804545 108.893682 
L 465.71039 108.763355 
L 466.616234 106.861242 
L 467.522078 106.486114 
L 468.427922 104.985185 
L 469.333766 104.499954 
L 470.23961 106.035152 
L 471.145455 107.916782 
L 472.051299 108.019306 
L 472.957143 106.197652 
L 473.862987 106.655473 
L 474.768831 106.399607 
L 475.674675 105.631235 
L 476.580519 105.755138 
L 477.486364 104.907774 
L 478.392208 105.205745 
L 479.298052 104.543312 
L 480.203896 106.111232 
L 481.10974 105.11577 
L 482.015584 105.860733 
L 482.921429 105.282662 
L 483.827273 106.195742 
L 484.733117 105.321404 
L 485.638961 105.833494 
L 487.450649 102.586819 
L 488.356494 102.004955 
L 489.262338 103.958895 
L 490.168182 105.270395 
L 491.074026 104.012484 
L 492.885714 100.978183 
L 493.791558 104.205393 
L 494.697403 104.32268 
L 495.603247 103.334552 
L 496.509091 104.742973 
L 496.509091 104.742973 
" clip-path="url(#p4855e01773)" style="fill: none; stroke: #ff7f0e; stroke-width: 1.5; stroke-linecap: square"/>
   </g>
   <g id="line2d_23">
    <path d="M 90.690909 292.493349 
L 96.125974 292.551976 
L 98.843506 292.468592 
L 103.372727 292.296362 
L 105.184416 291.478202 
L 106.996104 290.83621 
L 107.901948 290.919912 
L 108.807792 290.420136 
L 109.713636 290.082356 
L 110.619481 290.162546 
L 111.525325 289.97543 
L 112.431169 289.457143 
L 113.337013 289.466269 
L 114.242857 289.91467 
L 115.148701 289.406134 
L 116.054545 289.688181 
L 116.96039 289.037389 
L 117.866234 288.961522 
L 118.772078 288.295918 
L 119.677922 287.980059 
L 120.583766 286.346084 
L 122.395455 285.600844 
L 123.301299 284.049307 
L 124.207143 284.148244 
L 125.112987 284.833838 
L 126.018831 283.996625 
L 126.924675 284.291558 
L 127.830519 284.071336 
L 128.736364 282.394708 
L 129.642208 281.2377 
L 130.548052 281.635376 
L 131.453896 281.909797 
L 132.35974 282.595932 
L 133.265584 284.524577 
L 135.077273 285.54067 
L 135.983117 285.622734 
L 136.888961 285.067065 
L 137.794805 283.476436 
L 138.700649 284.464121 
L 139.606494 282.858202 
L 140.512338 282.442645 
L 142.324026 282.176091 
L 143.22987 282.993029 
L 144.135714 282.755047 
L 145.041558 281.826595 
L 145.947403 279.703412 
L 146.853247 281.017845 
L 147.759091 281.034149 
L 148.664935 278.166105 
L 149.570779 277.703166 
L 150.476623 276.969504 
L 152.288312 274.534593 
L 153.194156 274.52974 
L 154.1 272.942899 
L 155.005844 274.692991 
L 155.911688 274.94413 
L 156.817532 274.861378 
L 157.723377 274.155033 
L 158.629221 274.830787 
L 159.535065 274.736656 
L 160.440909 274.993291 
L 161.346753 273.12687 
L 162.252597 273.242871 
L 163.158442 274.293854 
L 164.064286 273.748889 
L 164.97013 274.890577 
L 165.875974 275.153483 
L 166.781818 276.664066 
L 167.687662 276.906779 
L 168.593506 279.517167 
L 169.499351 280.924815 
L 170.405195 281.311034 
L 171.311039 282.298125 
L 172.216883 282.710781 
L 173.122727 282.206179 
L 174.028571 280.37247 
L 174.934416 281.422851 
L 175.84026 280.256044 
L 176.746104 280.511934 
L 177.651948 280.315193 
L 178.557792 281.151302 
L 179.463636 280.034419 
L 180.369481 281.309468 
L 181.275325 281.3057 
L 182.181169 282.963689 
L 183.087013 283.96275 
L 183.992857 284.63538 
L 184.898701 282.001205 
L 185.804545 282.18356 
L 186.71039 280.507702 
L 187.616234 279.659941 
L 188.522078 279.070975 
L 189.427922 279.226111 
L 190.333766 280.582547 
L 191.23961 281.500005 
L 193.051299 281.675009 
L 193.957143 282.625122 
L 194.862987 281.797093 
L 195.768831 282.462174 
L 196.674675 284.24185 
L 197.580519 286.384938 
L 198.486364 287.041287 
L 199.392208 287.174405 
L 200.298052 286.319769 
L 201.203896 283.472184 
L 202.10974 284.149087 
L 203.015584 284.231856 
L 203.921429 285.545101 
L 204.827273 287.542981 
L 205.733117 287.030558 
L 206.638961 287.221976 
L 207.544805 286.945884 
L 210.262338 288.782876 
L 212.074026 288.402548 
L 212.97987 289.395408 
L 214.791558 286.919117 
L 215.697403 287.357525 
L 216.603247 287.469327 
L 217.509091 288.283346 
L 218.414935 286.915766 
L 219.320779 286.752731 
L 220.226623 287.839492 
L 221.132468 286.779667 
L 222.038312 287.034087 
L 222.944156 287.15806 
L 223.85 286.239401 
L 224.755844 286.052014 
L 225.661688 286.330548 
L 226.567532 286.431482 
L 227.473377 285.066516 
L 228.379221 283.415537 
L 229.285065 284.337778 
L 230.190909 285.492339 
L 232.002597 285.546699 
L 232.908442 286.583659 
L 233.814286 284.83395 
L 234.72013 283.617981 
L 235.625974 284.120614 
L 236.531818 285.446541 
L 237.437662 286.131176 
L 239.249351 287.17696 
L 240.155195 286.652937 
L 241.061039 287.133033 
L 241.966883 284.124266 
L 242.872727 285.927914 
L 243.778571 285.961727 
L 244.684416 284.971021 
L 245.59026 285.450255 
L 246.496104 285.644588 
L 247.401948 286.455842 
L 248.307792 286.817992 
L 249.213636 287.534987 
L 250.119481 285.77309 
L 251.025325 286.144993 
L 251.931169 287.503239 
L 252.837013 287.998236 
L 253.742857 287.149374 
L 254.648701 286.721359 
L 255.554545 286.602894 
L 256.46039 287.40329 
L 257.366234 285.136945 
L 258.272078 283.787922 
L 259.177922 284.058644 
L 260.083766 286.264396 
L 260.98961 286.036893 
L 261.895455 287.147073 
L 262.801299 286.0658 
L 263.707143 286.098009 
L 264.612987 285.384604 
L 265.518831 285.39811 
L 266.424675 286.175817 
L 267.330519 285.619017 
L 268.236364 286.176824 
L 269.142208 286.033391 
L 270.048052 285.107977 
L 271.85974 284.623117 
L 272.765584 286.296344 
L 273.671429 284.42098 
L 274.577273 285.477143 
L 275.483117 287.341525 
L 276.388961 288.14375 
L 277.294805 286.957584 
L 278.200649 287.977312 
L 279.106494 287.178406 
L 280.012338 285.602255 
L 280.918182 286.686406 
L 281.824026 285.861674 
L 282.72987 284.258001 
L 283.635714 285.309334 
L 285.447403 285.028091 
L 286.353247 284.064758 
L 287.259091 282.682194 
L 288.164935 281.94328 
L 289.070779 281.936078 
L 289.976623 282.815315 
L 291.788312 285.162454 
L 292.694156 286.063536 
L 293.6 283.788793 
L 294.505844 285.330691 
L 295.411688 286.415282 
L 296.317532 285.465923 
L 297.223377 282.303486 
L 298.129221 284.619205 
L 299.035065 285.771946 
L 299.940909 286.60018 
L 300.846753 286.63605 
L 301.752597 287.530822 
L 302.658442 288.164672 
L 303.564286 289.22134 
L 304.47013 286.105771 
L 305.375974 284.296269 
L 307.187662 287.951199 
L 308.093506 287.583732 
L 308.999351 287.025951 
L 309.905195 288.530039 
L 310.811039 288.752036 
L 311.716883 286.370709 
L 312.622727 286.59766 
L 313.528571 287.682367 
L 314.434416 287.543904 
L 315.34026 287.750051 
L 316.246104 287.40934 
L 317.151948 287.736191 
L 318.057792 286.379511 
L 318.963636 287.20247 
L 319.869481 286.477268 
L 320.775325 286.050024 
L 321.681169 287.863335 
L 322.587013 288.470429 
L 323.492857 288.624343 
L 324.398701 289.470911 
L 325.304545 289.113213 
L 326.21039 289.839249 
L 327.116234 288.03076 
L 328.927922 289.075359 
L 329.833766 289.053625 
L 330.73961 286.101508 
L 331.645455 284.382271 
L 332.551299 284.158688 
L 333.457143 284.480337 
L 334.362987 285.697922 
L 335.268831 285.564048 
L 336.174675 284.622331 
L 337.080519 285.208534 
L 337.986364 286.091886 
L 338.892208 287.293854 
L 339.798052 285.688915 
L 340.703896 285.825229 
L 342.515584 282.972071 
L 343.421429 282.96532 
L 344.327273 282.29676 
L 345.233117 282.572203 
L 346.138961 283.415254 
L 347.044805 283.412881 
L 347.950649 283.935712 
L 348.856494 284.314184 
L 350.668182 286.468175 
L 351.574026 285.869332 
L 352.47987 286.619119 
L 353.385714 286.235093 
L 354.291558 287.361788 
L 355.197403 286.442158 
L 356.103247 287.125674 
L 357.009091 286.797428 
L 357.914935 287.504181 
L 358.820779 285.992171 
L 359.726623 286.583505 
L 360.632468 285.631729 
L 361.538312 285.480762 
L 362.444156 285.763985 
L 363.35 284.629387 
L 365.161688 286.121316 
L 366.067532 285.61983 
L 366.973377 284.902809 
L 368.785065 287.148909 
L 369.690909 286.587761 
L 370.596753 287.40641 
L 371.502597 286.502442 
L 372.408442 287.056911 
L 373.314286 285.962171 
L 375.125974 285.635134 
L 376.031818 286.381545 
L 376.937662 285.852443 
L 377.843506 284.914617 
L 378.749351 282.435469 
L 379.655195 281.485098 
L 380.561039 282.647892 
L 381.466883 284.705825 
L 382.372727 285.015282 
L 383.278571 285.596184 
L 384.184416 282.981824 
L 385.09026 283.676856 
L 385.996104 285.044437 
L 386.901948 285.291222 
L 387.807792 285.250441 
L 388.713636 283.741407 
L 389.619481 281.107545 
L 391.431169 283.137313 
L 392.337013 281.504971 
L 393.242857 282.862658 
L 394.148701 285.212867 
L 395.054545 283.943178 
L 395.96039 285.713782 
L 396.866234 285.764687 
L 397.772078 286.079906 
L 398.677922 280.966829 
L 399.583766 282.008014 
L 400.48961 281.714963 
L 401.395455 282.820075 
L 402.301299 282.931152 
L 403.207143 282.595304 
L 404.112987 281.839583 
L 405.018831 282.761115 
L 405.924675 283.347211 
L 406.830519 282.509145 
L 407.736364 282.821052 
L 408.642208 285.131536 
L 409.548052 283.461225 
L 410.453896 281.046432 
L 411.35974 281.341721 
L 412.265584 281.886263 
L 413.171429 280.913316 
L 414.077273 282.64011 
L 414.983117 284.876499 
L 415.888961 285.117121 
L 416.794805 284.803109 
L 417.700649 283.439753 
L 418.606494 284.231575 
L 419.512338 282.739152 
L 420.418182 281.896733 
L 421.324026 281.21205 
L 422.22987 282.088627 
L 423.135714 282.61706 
L 424.041558 281.912367 
L 424.947403 282.853894 
L 425.853247 284.251327 
L 426.759091 284.515114 
L 427.664935 285.150328 
L 428.570779 286.234876 
L 429.476623 285.966824 
L 430.382468 284.739448 
L 431.288312 284.993817 
L 432.194156 284.507418 
L 433.1 281.710448 
L 434.005844 281.761783 
L 434.911688 285.269227 
L 435.817532 286.024747 
L 436.723377 286.461748 
L 437.629221 286.351319 
L 438.535065 285.49781 
L 439.440909 283.898827 
L 440.346753 283.115676 
L 441.252597 281.221631 
L 442.158442 280.199537 
L 443.064286 280.828175 
L 443.97013 280.551001 
L 444.875974 280.751189 
L 445.781818 282.417678 
L 446.687662 281.820292 
L 447.593506 284.479163 
L 448.499351 286.383164 
L 449.405195 287.68663 
L 450.311039 287.791183 
L 451.216883 288.458238 
L 453.028571 286.561421 
L 453.934416 286.380154 
L 454.84026 286.775901 
L 455.746104 287.996137 
L 456.651948 287.981101 
L 457.557792 285.778825 
L 458.463636 287.359126 
L 459.369481 286.497733 
L 460.275325 286.968952 
L 461.181169 287.824783 
L 462.087013 286.799048 
L 462.992857 286.438683 
L 463.898701 284.42663 
L 464.804545 284.599358 
L 465.71039 284.169928 
L 466.616234 285.991437 
L 467.522078 287.522937 
L 468.427922 287.271475 
L 469.333766 287.137601 
L 470.23961 286.158401 
L 471.145455 286.602193 
L 472.051299 284.33779 
L 472.957143 283.683773 
L 473.862987 283.937344 
L 474.768831 284.411922 
L 475.674675 284.210763 
L 476.580519 284.213215 
L 477.486364 284.854178 
L 478.392208 284.962303 
L 479.298052 286.23299 
L 480.203896 286.898345 
L 481.10974 287.407476 
L 482.015584 286.543483 
L 482.921429 286.554498 
L 483.827273 287.410255 
L 485.638961 288.341209 
L 486.544805 286.102355 
L 487.450649 284.441339 
L 488.356494 283.789049 
L 489.262338 283.352567 
L 490.168182 282.545672 
L 491.074026 284.698332 
L 491.97987 284.134122 
L 492.885714 282.062126 
L 493.791558 282.824595 
L 494.697403 282.914695 
L 495.603247 281.99202 
L 496.509091 281.981387 
L 496.509091 281.981387 
" clip-path="url(#p4855e01773)" style="fill: none; stroke: #2ca02c; stroke-width: 1.5; stroke-linecap: square"/>
   </g>
   <g id="line2d_24">
    <path d="M 90.690909 289.661569 
L 91.596753 289.224936 
L 92.502597 287.821286 
L 93.408442 286.894182 
L 94.314286 284.883372 
L 95.22013 277.117192 
L 96.125974 270.97079 
L 97.031818 263.280006 
L 97.937662 270.008967 
L 98.843506 271.252544 
L 99.749351 270.522652 
L 100.655195 267.097042 
L 103.372727 259.341005 
L 104.278571 255.131832 
L 105.184416 254.79519 
L 106.09026 254.30439 
L 106.996104 253.365004 
L 107.901948 248.940682 
L 109.713636 245.008013 
L 110.619481 245.238262 
L 111.525325 240.109317 
L 112.431169 239.766792 
L 113.337013 243.706107 
L 114.242857 246.29197 
L 115.148701 244.520227 
L 116.054545 246.67512 
L 116.96039 241.233343 
L 117.866234 237.304909 
L 118.772078 237.960679 
L 119.677922 235.284336 
L 120.583766 230.862598 
L 121.48961 231.725457 
L 122.395455 232.200864 
L 123.301299 225.612622 
L 124.207143 216.242386 
L 125.112987 216.983469 
L 126.018831 219.325388 
L 126.924675 219.775842 
L 127.830519 221.870735 
L 128.736364 227.399276 
L 129.642208 225.224408 
L 131.453896 212.354883 
L 132.35974 216.194567 
L 134.171429 214.770445 
L 135.077273 222.630517 
L 135.983117 221.771255 
L 136.888961 223.562325 
L 137.794805 222.446022 
L 138.700649 218.229005 
L 139.606494 222.688061 
L 140.512338 221.557616 
L 141.418182 217.346615 
L 142.324026 218.298362 
L 144.135714 205.01351 
L 145.041558 204.596097 
L 145.947403 206.902842 
L 146.853247 214.590564 
L 147.759091 213.503928 
L 148.664935 210.799477 
L 149.570779 208.998362 
L 150.476623 204.055867 
L 151.382468 204.370069 
L 152.288312 217.287673 
L 153.194156 218.490909 
L 154.1 209.030739 
L 155.005844 211.149319 
L 155.911688 210.691572 
L 156.817532 214.367463 
L 157.723377 214.337213 
L 158.629221 208.399484 
L 159.535065 209.622015 
L 160.440909 217.8744 
L 161.346753 228.07784 
L 162.252597 222.950727 
L 163.158442 223.751918 
L 164.064286 222.727317 
L 164.97013 228.035946 
L 165.875974 232.211809 
L 166.781818 235.585774 
L 167.687662 234.215527 
L 168.593506 236.938592 
L 169.499351 229.523416 
L 170.405195 229.014883 
L 171.311039 231.269126 
L 172.216883 226.676656 
L 173.122727 225.576747 
L 174.028571 223.727487 
L 174.934416 221.340118 
L 175.84026 225.100754 
L 176.746104 229.798134 
L 177.651948 223.713951 
L 178.557792 226.763753 
L 179.463636 232.117773 
L 180.369481 230.503904 
L 181.275325 223.919393 
L 182.181169 225.972491 
L 183.087013 224.448564 
L 183.992857 217.679653 
L 184.898701 224.20201 
L 185.804545 218.516688 
L 186.71039 222.719125 
L 187.616234 215.265944 
L 188.522078 220.384835 
L 190.333766 208.016416 
L 191.23961 220.226429 
L 192.145455 216.105823 
L 193.051299 215.601562 
L 193.957143 219.399585 
L 194.862987 219.375014 
L 195.768831 222.787405 
L 196.674675 216.560708 
L 197.580519 218.913908 
L 198.486364 212.65781 
L 199.392208 213.586525 
L 200.298052 219.317749 
L 201.203896 210.245617 
L 202.10974 223.173714 
L 203.015584 219.904516 
L 203.921429 217.952847 
L 204.827273 221.796098 
L 205.733117 226.273289 
L 206.638961 221.514914 
L 207.544805 223.393803 
L 208.450649 226.975013 
L 209.356494 224.258838 
L 210.262338 221.187445 
L 211.168182 226.572323 
L 212.074026 225.540457 
L 212.97987 234.370717 
L 213.885714 228.169421 
L 214.791558 236.441505 
L 215.697403 233.45602 
L 216.603247 220.762825 
L 217.509091 222.548306 
L 218.414935 220.319117 
L 219.320779 229.18323 
L 220.226623 227.560185 
L 221.132468 226.501951 
L 222.038312 231.727203 
L 222.944156 220.189986 
L 223.85 223.004537 
L 224.755844 223.33329 
L 225.661688 230.572901 
L 226.567532 230.783349 
L 227.473377 229.456005 
L 228.379221 227.249937 
L 229.285065 222.857414 
L 231.096753 215.68407 
L 232.002597 222.349766 
L 232.908442 222.998741 
L 233.814286 226.160797 
L 234.72013 224.458022 
L 235.625974 225.45663 
L 236.531818 223.408818 
L 237.437662 224.341071 
L 238.343506 221.571075 
L 239.249351 221.130798 
L 240.155195 221.273357 
L 241.061039 220.736386 
L 241.966883 224.652861 
L 242.872727 217.564673 
L 243.778571 220.9675 
L 244.684416 219.976973 
L 245.59026 216.896743 
L 246.496104 224.813773 
L 247.401948 224.868676 
L 248.307792 230.848611 
L 249.213636 230.116169 
L 250.119481 221.65021 
L 251.025325 220.462535 
L 251.931169 225.261868 
L 252.837013 234.984947 
L 253.742857 233.832634 
L 254.648701 231.821443 
L 255.554545 226.817148 
L 256.46039 228.361442 
L 257.366234 228.106677 
L 258.272078 228.512721 
L 259.177922 229.209394 
L 260.083766 231.032898 
L 260.98961 224.362799 
L 261.895455 214.579469 
L 262.801299 216.558176 
L 263.707143 225.092024 
L 264.612987 222.618905 
L 265.518831 221.068312 
L 266.424675 211.955123 
L 267.330519 212.205419 
L 268.236364 209.861607 
L 269.142208 208.48132 
L 270.048052 209.443236 
L 270.953896 223.465339 
L 271.85974 218.075603 
L 272.765584 216.126692 
L 273.671429 221.963544 
L 274.577273 225.335263 
L 275.483117 222.691467 
L 276.388961 215.580418 
L 277.294805 216.909972 
L 278.200649 223.769806 
L 279.106494 225.6857 
L 280.012338 226.215543 
L 281.824026 211.686632 
L 282.72987 210.831375 
L 283.635714 215.927683 
L 284.541558 210.584573 
L 285.447403 215.239998 
L 286.353247 224.143959 
L 287.259091 219.256055 
L 288.164935 223.494518 
L 289.070779 220.620069 
L 289.976623 211.315647 
L 290.882468 213.022714 
L 291.788312 218.972714 
L 292.694156 216.851802 
L 293.6 214.230445 
L 294.505844 219.12487 
L 295.411688 222.761033 
L 296.317532 225.732348 
L 297.223377 215.706363 
L 298.129221 215.572553 
L 299.035065 214.690681 
L 299.940909 219.993364 
L 300.846753 226.499742 
L 301.752597 220.946893 
L 302.658442 220.276899 
L 303.564286 225.092238 
L 304.47013 227.810168 
L 305.375974 227.134413 
L 306.281818 224.192465 
L 307.187662 224.785965 
L 308.093506 222.11407 
L 308.999351 223.666815 
L 309.905195 228.83454 
L 310.811039 226.470294 
L 311.716883 227.484806 
L 313.528571 208.665309 
L 314.434416 201.091874 
L 315.34026 210.479096 
L 316.246104 221.029239 
L 317.151948 224.835471 
L 318.057792 224.253081 
L 318.963636 225.410247 
L 319.869481 229.472122 
L 320.775325 232.334489 
L 321.681169 232.368468 
L 322.587013 231.500707 
L 323.492857 227.541741 
L 324.398701 216.976461 
L 325.304545 221.524354 
L 326.21039 220.774371 
L 327.116234 225.735075 
L 328.022078 223.218255 
L 328.927922 221.201758 
L 329.833766 216.426482 
L 330.73961 215.76593 
L 331.645455 210.958935 
L 332.551299 211.361705 
L 333.457143 214.86756 
L 334.362987 215.118214 
L 335.268831 213.584745 
L 336.174675 213.209909 
L 337.080519 213.910771 
L 337.986364 213.716149 
L 338.892208 211.482597 
L 339.798052 224.499275 
L 340.703896 227.32056 
L 341.60974 225.403614 
L 342.515584 225.613552 
L 343.421429 225.514315 
L 344.327273 227.426817 
L 345.233117 221.965611 
L 346.138961 224.193517 
L 347.950649 228.964269 
L 348.856494 221.584127 
L 349.762338 224.634397 
L 350.668182 218.036181 
L 351.574026 219.65321 
L 352.47987 219.424258 
L 353.385714 224.23626 
L 354.291558 215.699112 
L 355.197403 216.054536 
L 356.103247 221.787327 
L 357.009091 224.452445 
L 357.914935 222.909447 
L 358.820779 212.631673 
L 359.726623 211.737918 
L 360.632468 219.05643 
L 361.538312 223.732687 
L 362.444156 221.798309 
L 363.35 227.507651 
L 364.255844 226.595196 
L 366.067532 225.269367 
L 366.973377 227.381208 
L 367.879221 212.088767 
L 368.785065 219.685134 
L 369.690909 221.03016 
L 370.596753 228.640944 
L 371.502597 231.527305 
L 372.408442 235.097245 
L 373.314286 230.369912 
L 374.22013 230.43844 
L 375.125974 229.406369 
L 376.031818 223.985142 
L 376.937662 221.463061 
L 377.843506 220.270427 
L 378.749351 221.783613 
L 379.655195 221.888064 
L 380.561039 229.195933 
L 381.466883 226.663758 
L 382.372727 224.905141 
L 383.278571 224.360156 
L 384.184416 223.638216 
L 385.09026 222.753399 
L 385.996104 221.263578 
L 386.901948 217.048347 
L 387.807792 221.326628 
L 388.713636 221.06725 
L 389.619481 220.313269 
L 390.525325 218.209227 
L 391.431169 211.141576 
L 392.337013 213.221838 
L 393.242857 222.547485 
L 394.148701 220.134942 
L 395.054545 215.365212 
L 395.96039 221.504347 
L 396.866234 220.746348 
L 397.772078 211.678216 
L 398.677922 216.556059 
L 399.583766 218.236471 
L 400.48961 227.153304 
L 401.395455 229.421895 
L 402.301299 220.739211 
L 403.207143 216.398068 
L 404.112987 222.018089 
L 405.018831 220.164087 
L 405.924675 225.197079 
L 406.830519 228.203212 
L 407.736364 221.618985 
L 408.642208 219.610552 
L 409.548052 218.461328 
L 410.453896 216.015989 
L 411.35974 215.40757 
L 412.265584 215.242908 
L 413.171429 218.459454 
L 414.077273 222.926992 
L 414.983117 228.371945 
L 415.888961 227.13585 
L 416.794805 230.015465 
L 417.700649 224.094952 
L 418.606494 225.405172 
L 419.512338 224.806273 
L 420.418182 222.406369 
L 421.324026 221.578279 
L 422.22987 221.106152 
L 423.135714 216.956987 
L 424.041558 220.435537 
L 424.947403 227.918122 
L 425.853247 226.316678 
L 426.759091 227.788322 
L 427.664935 226.719211 
L 429.476623 220.82291 
L 430.382468 228.571427 
L 431.288312 231.166243 
L 432.194156 228.68138 
L 433.1 223.235585 
L 434.005844 225.678005 
L 434.911688 222.629233 
L 435.817532 224.686827 
L 436.723377 220.784565 
L 437.629221 219.218763 
L 439.440909 229.877425 
L 440.346753 232.047562 
L 441.252597 227.576613 
L 442.158442 226.419458 
L 443.064286 216.912755 
L 443.97013 227.067214 
L 444.875974 230.705685 
L 445.781818 229.808611 
L 446.687662 228.066054 
L 447.593506 231.53126 
L 448.499351 230.996694 
L 449.405195 234.804436 
L 450.311039 239.78642 
L 451.216883 234.087316 
L 452.122727 235.397712 
L 453.028571 239.145283 
L 453.934416 242.023622 
L 454.84026 235.558479 
L 455.746104 239.840062 
L 456.651948 234.031091 
L 457.557792 234.339761 
L 458.463636 235.947367 
L 459.369481 233.153992 
L 460.275325 236.162097 
L 461.181169 235.11872 
L 462.087013 237.152587 
L 462.992857 233.483988 
L 463.898701 235.735766 
L 464.804545 233.595675 
L 465.71039 232.349013 
L 466.616234 237.526385 
L 467.522078 238.949545 
L 468.427922 232.110405 
L 469.333766 232.064629 
L 470.23961 230.323286 
L 471.145455 231.103112 
L 472.051299 230.137664 
L 472.957143 232.495908 
L 473.862987 227.423031 
L 474.768831 232.996624 
L 475.674675 232.954198 
L 476.580519 236.987806 
L 477.486364 241.831052 
L 478.392208 237.970098 
L 479.298052 237.205385 
L 480.203896 234.990053 
L 481.10974 238.098119 
L 482.015584 236.701789 
L 482.921429 238.211433 
L 483.827273 237.067059 
L 484.733117 240.87612 
L 485.638961 239.779682 
L 486.544805 240.587536 
L 487.450649 239.311798 
L 488.356494 235.694616 
L 489.262338 231.034672 
L 490.168182 228.182247 
L 491.074026 224.46324 
L 491.97987 230.707672 
L 492.885714 230.92251 
L 493.791558 227.490417 
L 494.697403 231.593812 
L 495.603247 231.912663 
L 496.509091 234.503212 
L 496.509091 234.503212 
" clip-path="url(#p4855e01773)" style="fill: none; stroke: #d62728; stroke-width: 1.5; stroke-linecap: square"/>
   </g>
   <g id="line2d_25">
    <path d="M 90.690909 276.033853 
L 93.408442 276.465931 
L 94.314286 276.476694 
L 95.22013 276.015726 
L 96.125974 275.83822 
L 97.031818 275.389808 
L 97.937662 275.331418 
L 98.843506 275.111635 
L 100.655195 274.952701 
L 101.561039 274.68151 
L 102.466883 273.99829 
L 103.372727 273.814352 
L 104.278571 273.387696 
L 106.996104 272.407725 
L 107.901948 272.080666 
L 109.713636 271.898357 
L 112.431169 271.778152 
L 115.148701 271.955545 
L 116.054545 272.050885 
L 116.96039 271.973675 
L 117.866234 272.036065 
L 122.395455 271.55369 
L 125.112987 271.554857 
L 126.924675 271.542954 
L 129.642208 271.433652 
L 134.171429 271.422032 
L 144.135714 271.297181 
L 148.664935 271.353164 
L 151.382468 271.34092 
L 159.535065 271.246637 
L 177.651948 271.077317 
L 183.087013 271.163294 
L 192.145455 271.328836 
L 193.957143 271.408565 
L 195.768831 271.430057 
L 198.486364 271.448261 
L 201.203896 271.371118 
L 215.697403 271.417373 
L 218.414935 271.339159 
L 222.944156 271.354938 
L 225.661688 271.211568 
L 227.473377 271.286452 
L 231.096753 271.358598 
L 240.155195 271.463053 
L 244.684416 271.46384 
L 247.401948 271.32612 
L 251.931169 271.180401 
L 252.837013 271.289202 
L 255.554545 271.31851 
L 257.366234 271.278148 
L 260.083766 271.270252 
L 264.612987 271.189674 
L 266.424675 271.166154 
L 269.142208 271.146214 
L 277.294805 271.187494 
L 279.106494 271.295174 
L 284.541558 271.172026 
L 289.070779 271.54422 
L 291.788312 271.610418 
L 294.505844 271.691872 
L 296.317532 271.621018 
L 303.564286 271.540502 
L 305.375974 271.399109 
L 310.811039 271.46426 
L 316.246104 271.498894 
L 320.775325 271.408383 
L 323.492857 271.371155 
L 326.21039 271.372682 
L 334.362987 271.854308 
L 337.080519 271.850872 
L 341.60974 271.893292 
L 348.856494 271.615803 
L 354.291558 271.451997 
L 357.009091 271.376799 
L 363.35 271.498799 
L 365.161688 271.456534 
L 369.690909 271.427618 
L 373.314286 271.364731 
L 395.054545 271.680094 
L 396.866234 271.729741 
L 399.583766 271.650487 
L 412.265584 271.655146 
L 415.888961 271.878036 
L 430.382468 271.858967 
L 432.194156 271.933282 
L 438.535065 272.051932 
L 441.252597 272.050101 
L 443.97013 272.011463 
L 449.405195 271.932417 
L 452.122727 272.061981 
L 455.746104 272.027874 
L 459.369481 272.139753 
L 461.181169 272.103441 
L 462.992857 272.127788 
L 464.804545 272.180626 
L 470.23961 272.096952 
L 472.051299 272.170035 
L 473.862987 272.181987 
L 483.827273 272.08269 
L 493.791558 272.536107 
L 495.603247 272.709851 
L 496.509091 272.695833 
L 496.509091 272.695833 
" clip-path="url(#p4855e01773)" style="fill: none; stroke: #9467bd; stroke-width: 1.5; stroke-linecap: square"/>
   </g>
   <g id="patch_3">
    <path d="M 70.4 305.152125 
L 70.4 27.952125 
" style="fill: none; stroke: #000000; stroke-width: 0.8; stroke-linejoin: miter; stroke-linecap: square"/>
   </g>
   <g id="patch_4">
    <path d="M 516.8 305.152125 
L 516.8 27.952125 
" style="fill: none; stroke: #000000; stroke-width: 0.8; stroke-linejoin: miter; stroke-linecap: square"/>
   </g>
   <g id="patch_5">
    <path d="M 70.4 305.152125 
L 516.8 305.152125 
" style="fill: none; stroke: #000000; stroke-width: 0.8; stroke-linejoin: miter; stroke-linecap: square"/>
   </g>
   <g id="patch_6">
    <path d="M 70.4 27.952125 
L 516.8 27.952125 
" style="fill: none; stroke: #000000; stroke-width: 0.8; stroke-linejoin: miter; stroke-linecap: square"/>
   </g>
   <g id="text_14">
    <!-- ML10 Meta Testing -->
    <g transform="translate(206.604313 21.952125)scale(0.216 -0.216)">
     <defs>
      <path id="STIXGeneral-Regular-4d" d="M 5530 0 
L 3738 0 
L 3738 122 
Q 4115 147 4214 265 
Q 4314 384 4314 787 
L 4314 3661 
L 2682 0 
L 2592 0 
L 979 3514 
L 979 966 
Q 979 448 1088 294 
Q 1197 141 1574 122 
L 1574 0 
L 77 0 
L 77 122 
Q 358 141 480 205 
Q 602 269 650 432 
Q 698 595 698 966 
L 698 3514 
Q 698 3878 589 3984 
Q 480 4090 90 4115 
L 90 4237 
L 1357 4237 
L 2835 1024 
L 4250 4237 
L 5523 4237 
L 5523 4115 
Q 5178 4109 5072 3993 
Q 4966 3878 4966 3520 
L 4966 717 
Q 4966 378 5072 262 
Q 5178 147 5530 122 
L 5530 0 
z
" transform="scale(0.015625)"/>
      <path id="STIXGeneral-Regular-4c" d="M 3827 1114 
L 3520 0 
L 77 0 
L 77 122 
Q 429 141 531 256 
Q 634 371 634 736 
L 634 3494 
Q 634 3872 541 3981 
Q 448 4090 77 4115 
L 77 4237 
L 1888 4237 
L 1888 4115 
Q 1498 4090 1392 3984 
Q 1286 3878 1286 3507 
L 1286 538 
Q 1286 358 1398 304 
Q 1510 250 1862 250 
L 2310 250 
Q 3085 250 3392 640 
Q 3520 813 3661 1114 
L 3827 1114 
z
" transform="scale(0.015625)"/>
     </defs>
     <use xlink:href="#STIXGeneral-Regular-4d"/>
     <use xlink:href="#STIXGeneral-Regular-4c" x="88.899994"/>
     <use xlink:href="#STIXGeneral-Regular-31" x="149.999985"/>
     <use xlink:href="#STIXGeneral-Regular-30" x="199.999969"/>
     <use xlink:href="#STIXGeneral-Regular-20" x="249.999954"/>
     <use xlink:href="#STIXGeneral-Regular-4d" x="274.999939"/>
     <use xlink:href="#STIXGeneral-Regular-65" x="363.899933"/>
     <use xlink:href="#STIXGeneral-Regular-74" x="408.299927"/>
     <use xlink:href="#STIXGeneral-Regular-61" x="436.099915"/>
     <use xlink:href="#STIXGeneral-Regular-20" x="480.499908"/>
     <use xlink:href="#STIXGeneral-Regular-54" x="505.499893"/>
     <use xlink:href="#STIXGeneral-Regular-65" x="566.599884"/>
     <use xlink:href="#STIXGeneral-Regular-73" x="610.999878"/>
     <use xlink:href="#STIXGeneral-Regular-74" x="649.899872"/>
     <use xlink:href="#STIXGeneral-Regular-69" x="677.69986"/>
     <use xlink:href="#STIXGeneral-Regular-6e" x="705.499847"/>
     <use xlink:href="#STIXGeneral-Regular-67" x="755.499832"/>
    </g>
   </g>
   <g id="legend_1">
    <g id="patch_7">
     <path d="M 226.497344 218.248219 
L 360.702656 218.248219 
Q 363.502656 218.248219 363.502656 215.448219 
L 363.502656 117.656031 
Q 363.502656 114.856031 360.702656 114.856031 
L 226.497344 114.856031 
Q 223.697344 114.856031 223.697344 117.656031 
L 223.697344 215.448219 
Q 223.697344 218.248219 226.497344 218.248219 
z
" style="fill: #ffffff; opacity: 0.8; stroke: #cccccc; stroke-linejoin: miter"/>
    </g>
    <g id="line2d_26">
     <path d="M 229.297344 125.356031 
L 243.297344 125.356031 
L 257.297344 125.356031 
" style="fill: none; stroke: #1f77b4; stroke-width: 1.5; stroke-linecap: square"/>
    </g>
    <g id="text_15">
     <!-- drawer-open-v2 -->
     <g transform="translate(268.497344 130.256031)scale(0.14 -0.14)">
      <defs>
       <path id="STIXGeneral-Regular-64" d="M 3142 269 
L 2202 -64 
L 2176 -45 
L 2176 365 
Q 1869 -64 1357 -64 
Q 826 -64 499 317 
Q 173 698 173 1312 
Q 173 1990 563 2467 
Q 954 2944 1504 2944 
Q 1850 2944 2176 2669 
L 2176 3667 
Q 2176 3866 2118 3930 
Q 2061 3994 1882 3994 
Q 1792 3994 1741 3987 
L 1741 4090 
Q 2323 4243 2682 4371 
L 2714 4358 
L 2714 730 
Q 2714 506 2768 435 
Q 2822 365 2995 365 
Q 3034 365 3142 371 
L 3142 269 
z
M 2176 653 
L 2176 2125 
Q 2176 2381 1981 2573 
Q 1786 2765 1523 2765 
Q 1158 2765 940 2438 
Q 723 2112 723 1568 
Q 723 979 963 624 
Q 1203 269 1606 269 
Q 1907 269 2080 474 
Q 2176 582 2176 653 
z
" transform="scale(0.015625)"/>
       <path id="STIXGeneral-Regular-77" d="M 4442 2880 
L 4442 2784 
Q 4346 2752 4301 2691 
Q 4256 2630 4179 2438 
L 3296 224 
Q 3168 -90 3117 -90 
Q 3085 -90 3062 -48 
Q 3040 -6 2963 186 
L 2381 1696 
L 1664 160 
Q 1549 -90 1504 -90 
Q 1446 -90 1338 192 
L 474 2381 
Q 378 2630 314 2700 
Q 250 2771 134 2784 
L 134 2880 
L 1286 2880 
L 1286 2784 
Q 1120 2765 1056 2720 
Q 992 2675 992 2573 
Q 992 2477 1030 2381 
L 1664 710 
L 2246 1984 
L 2118 2342 
Q 2029 2598 1942 2681 
Q 1856 2765 1677 2784 
L 1677 2880 
L 2976 2880 
L 2976 2784 
Q 2752 2752 2678 2707 
Q 2605 2662 2605 2560 
Q 2605 2458 2714 2176 
L 3251 742 
L 3827 2163 
Q 3936 2432 3936 2592 
Q 3936 2669 3875 2710 
Q 3814 2752 3654 2784 
L 3654 2880 
L 4442 2880 
z
" transform="scale(0.015625)"/>
       <path id="STIXGeneral-Regular-2d" d="M 1824 1242 
L 250 1242 
L 250 1645 
L 1824 1645 
L 1824 1242 
z
" transform="scale(0.015625)"/>
      </defs>
      <use xlink:href="#STIXGeneral-Regular-64"/>
      <use xlink:href="#STIXGeneral-Regular-72" x="49.999985"/>
      <use xlink:href="#STIXGeneral-Regular-61" x="83.299973"/>
      <use xlink:href="#STIXGeneral-Regular-77" x="127.699966"/>
      <use xlink:href="#STIXGeneral-Regular-65" x="199.899948"/>
      <use xlink:href="#STIXGeneral-Regular-72" x="244.299942"/>
      <use xlink:href="#STIXGeneral-Regular-2d" x="277.59993"/>
      <use xlink:href="#STIXGeneral-Regular-6f" x="310.899918"/>
      <use xlink:href="#STIXGeneral-Regular-70" x="360.899902"/>
      <use xlink:href="#STIXGeneral-Regular-65" x="410.899887"/>
      <use xlink:href="#STIXGeneral-Regular-6e" x="455.299881"/>
      <use xlink:href="#STIXGeneral-Regular-2d" x="505.299866"/>
      <use xlink:href="#STIXGeneral-Regular-76" x="538.599854"/>
      <use xlink:href="#STIXGeneral-Regular-32" x="588.599838"/>
     </g>
    </g>
    <g id="line2d_27">
     <path d="M 229.297344 145.194469 
L 243.297344 145.194469 
L 257.297344 145.194469 
" style="fill: none; stroke: #ff7f0e; stroke-width: 1.5; stroke-linecap: square"/>
    </g>
    <g id="text_16">
     <!-- door-close-v2 -->
     <g transform="translate(268.497344 150.094469)scale(0.14 -0.14)">
      <defs>
       <path id="STIXGeneral-Regular-63" d="M 2547 998 
L 2637 941 
Q 2362 403 2112 205 
Q 1786 -64 1376 -64 
Q 845 -64 502 336 
Q 160 736 160 1357 
Q 160 2170 698 2618 
Q 1094 2944 1562 2944 
Q 1965 2944 2256 2749 
Q 2547 2554 2547 2285 
Q 2547 2176 2457 2096 
Q 2368 2016 2246 2016 
Q 2022 2016 1939 2310 
L 1901 2451 
Q 1850 2630 1773 2694 
Q 1696 2758 1523 2758 
Q 1133 2758 893 2451 
Q 653 2144 653 1645 
Q 653 1094 928 745 
Q 1203 397 1645 397 
Q 1920 397 2118 528 
Q 2317 659 2547 998 
z
" transform="scale(0.015625)"/>
       <path id="STIXGeneral-Regular-6c" d="M 1645 0 
L 134 0 
L 134 96 
Q 435 122 531 221 
Q 627 320 627 589 
L 627 3590 
Q 627 3821 569 3910 
Q 512 4000 358 4000 
Q 224 4000 122 3987 
L 122 4090 
Q 730 4237 1133 4371 
L 1165 4346 
L 1165 557 
Q 1165 288 1254 201 
Q 1344 115 1645 96 
L 1645 0 
z
" transform="scale(0.015625)"/>
      </defs>
      <use xlink:href="#STIXGeneral-Regular-64"/>
      <use xlink:href="#STIXGeneral-Regular-6f" x="49.999985"/>
      <use xlink:href="#STIXGeneral-Regular-6f" x="99.999969"/>
      <use xlink:href="#STIXGeneral-Regular-72" x="149.999954"/>
      <use xlink:href="#STIXGeneral-Regular-2d" x="183.299942"/>
      <use xlink:href="#STIXGeneral-Regular-63" x="216.59993"/>
      <use xlink:href="#STIXGeneral-Regular-6c" x="260.999924"/>
      <use xlink:href="#STIXGeneral-Regular-6f" x="288.799911"/>
      <use xlink:href="#STIXGeneral-Regular-73" x="338.799896"/>
      <use xlink:href="#STIXGeneral-Regular-65" x="377.69989"/>
      <use xlink:href="#STIXGeneral-Regular-2d" x="422.099884"/>
      <use xlink:href="#STIXGeneral-Regular-76" x="455.399872"/>
      <use xlink:href="#STIXGeneral-Regular-32" x="505.399857"/>
     </g>
    </g>
    <g id="line2d_28">
     <path d="M 229.297344 165.032906 
L 243.297344 165.032906 
L 257.297344 165.032906 
" style="fill: none; stroke: #2ca02c; stroke-width: 1.5; stroke-linecap: square"/>
    </g>
    <g id="text_17">
     <!-- shelf-place-v2 -->
     <g transform="translate(268.497344 169.932906)scale(0.14 -0.14)">
      <defs>
       <path id="STIXGeneral-Regular-68" d="M 3117 0 
L 1760 0 
L 1760 96 
Q 2042 128 2118 224 
Q 2195 320 2195 653 
L 2195 1920 
Q 2195 2598 1722 2598 
Q 1530 2598 1370 2508 
Q 1210 2419 1005 2195 
L 1005 653 
Q 1005 320 1081 224 
Q 1158 128 1440 96 
L 1440 0 
L 58 0 
L 58 96 
Q 333 134 400 224 
Q 467 314 467 653 
L 467 3667 
Q 467 3872 406 3933 
Q 346 3994 141 3994 
Q 83 3994 64 3987 
L 64 4090 
L 237 4141 
Q 730 4288 973 4371 
L 1005 4352 
L 1005 2406 
Q 1229 2694 1446 2819 
Q 1664 2944 1946 2944 
Q 2733 2944 2733 1926 
L 2733 653 
Q 2733 320 2793 233 
Q 2854 147 3117 96 
L 3117 0 
z
" transform="scale(0.015625)"/>
       <path id="STIXGeneral-Regular-66" d="M 134 2880 
L 659 2880 
Q 666 3264 710 3478 
Q 755 3693 883 3910 
Q 1152 4371 1786 4371 
Q 2074 4371 2262 4259 
Q 2451 4147 2451 3974 
Q 2451 3866 2374 3789 
Q 2298 3712 2182 3712 
Q 2029 3712 1894 3942 
Q 1741 4192 1555 4192 
Q 1197 4192 1197 3622 
L 1197 2880 
L 1978 2880 
L 1978 2675 
L 1197 2675 
L 1197 666 
Q 1197 307 1299 208 
Q 1402 109 1792 96 
L 1792 0 
L 128 0 
L 128 96 
Q 474 115 566 214 
Q 659 314 659 666 
L 659 2675 
L 134 2675 
L 134 2880 
z
" transform="scale(0.015625)"/>
      </defs>
      <use xlink:href="#STIXGeneral-Regular-73"/>
      <use xlink:href="#STIXGeneral-Regular-68" x="38.899994"/>
      <use xlink:href="#STIXGeneral-Regular-65" x="88.899979"/>
      <use xlink:href="#STIXGeneral-Regular-6c" x="133.299973"/>
      <use xlink:href="#STIXGeneral-Regular-66" x="161.09996"/>
      <use xlink:href="#STIXGeneral-Regular-2d" x="194.399948"/>
      <use xlink:href="#STIXGeneral-Regular-70" x="227.699936"/>
      <use xlink:href="#STIXGeneral-Regular-6c" x="277.699921"/>
      <use xlink:href="#STIXGeneral-Regular-61" x="305.499908"/>
      <use xlink:href="#STIXGeneral-Regular-63" x="349.899902"/>
      <use xlink:href="#STIXGeneral-Regular-65" x="394.299896"/>
      <use xlink:href="#STIXGeneral-Regular-2d" x="438.69989"/>
      <use xlink:href="#STIXGeneral-Regular-76" x="471.999878"/>
      <use xlink:href="#STIXGeneral-Regular-32" x="521.999863"/>
     </g>
    </g>
    <g id="line2d_29">
     <path d="M 229.297344 184.871344 
L 243.297344 184.871344 
L 257.297344 184.871344 
" style="fill: none; stroke: #d62728; stroke-width: 1.5; stroke-linecap: square"/>
    </g>
    <g id="text_18">
     <!-- sweep-into-v2 -->
     <g transform="translate(268.497344 189.771344)scale(0.14 -0.14)">
      <use xlink:href="#STIXGeneral-Regular-73"/>
      <use xlink:href="#STIXGeneral-Regular-77" x="38.899994"/>
      <use xlink:href="#STIXGeneral-Regular-65" x="111.099976"/>
      <use xlink:href="#STIXGeneral-Regular-65" x="155.499969"/>
      <use xlink:href="#STIXGeneral-Regular-70" x="199.899963"/>
      <use xlink:href="#STIXGeneral-Regular-2d" x="249.899948"/>
      <use xlink:href="#STIXGeneral-Regular-69" x="283.199936"/>
      <use xlink:href="#STIXGeneral-Regular-6e" x="310.999924"/>
      <use xlink:href="#STIXGeneral-Regular-74" x="360.999908"/>
      <use xlink:href="#STIXGeneral-Regular-6f" x="388.799896"/>
      <use xlink:href="#STIXGeneral-Regular-2d" x="438.799881"/>
      <use xlink:href="#STIXGeneral-Regular-76" x="472.099869"/>
      <use xlink:href="#STIXGeneral-Regular-32" x="522.099854"/>
     </g>
    </g>
    <g id="line2d_30">
     <path d="M 229.297344 204.709781 
L 243.297344 204.709781 
L 257.297344 204.709781 
" style="fill: none; stroke: #9467bd; stroke-width: 1.5; stroke-linecap: square"/>
    </g>
    <g id="text_19">
     <!-- lever-pull-v2 -->
     <g transform="translate(268.497344 209.609781)scale(0.14 -0.14)">
      <use xlink:href="#STIXGeneral-Regular-6c"/>
      <use xlink:href="#STIXGeneral-Regular-65" x="27.799988"/>
      <use xlink:href="#STIXGeneral-Regular-76" x="72.199982"/>
      <use xlink:href="#STIXGeneral-Regular-65" x="122.199966"/>
      <use xlink:href="#STIXGeneral-Regular-72" x="166.59996"/>
      <use xlink:href="#STIXGeneral-Regular-2d" x="199.899948"/>
      <use xlink:href="#STIXGeneral-Regular-70" x="233.199936"/>
      <use xlink:href="#STIXGeneral-Regular-75" x="283.199921"/>
      <use xlink:href="#STIXGeneral-Regular-6c" x="333.199905"/>
      <use xlink:href="#STIXGeneral-Regular-6c" x="360.999893"/>
      <use xlink:href="#STIXGeneral-Regular-2d" x="388.799881"/>
      <use xlink:href="#STIXGeneral-Regular-76" x="422.099869"/>
      <use xlink:href="#STIXGeneral-Regular-32" x="472.099854"/>
     </g>
    </g>
   </g>
  </g>
 </g>
 <defs>
  <clipPath id="p4855e01773">
   <rect x="70.4" y="27.952125" width="446.4" height="277.2"/>
  </clipPath>
 </defs>
</svg>
