<?xml version="1.0" encoding="utf-8" standalone="no"?>
<!DOCTYPE svg PUBLIC "-//W3C//DTD SVG 1.1//EN"
  "http://www.w3.org/Graphics/SVG/1.1/DTD/svg11.dtd">
<svg xmlns:xlink="http://www.w3.org/1999/xlink" width="510.5pt" height="355.769pt" viewBox="0 0 510.5 355.769" xmlns="http://www.w3.org/2000/svg" version="1.1">
 <metadata>
  <rdf:RDF xmlns:dc="http://purl.org/dc/elements/1.1/" xmlns:cc="http://creativecommons.org/ns#" xmlns:rdf="http://www.w3.org/1999/02/22-rdf-syntax-ns#">
   <cc:Work>
    <dc:type rdf:resource="http://purl.org/dc/dcmitype/StillImage"/>
    <dc:date>2021-12-11T20:29:45.883111</dc:date>
    <dc:format>image/svg+xml</dc:format>
    <dc:creator>
     <cc:Agent>
      <dc:title>Matplotlib v3.5.0, https://matplotlib.org/</dc:title>
     </cc:Agent>
    </dc:creator>
   </cc:Work>
  </rdf:RDF>
 </metadata>
 <defs>
  <style type="text/css">*{stroke-linejoin: round; stroke-linecap: butt}</style>
 </defs>
 <g id="figure_1">
  <g id="patch_1">
   <path d="M 0 355.769 
L 510.5 355.769 
L 510.5 0 
L 0 0 
z
" style="fill: #ffffff"/>
  </g>
  <g id="axes_1">
   <g id="patch_2">
    <path d="M 56.9 305.152125 
L 503.3 305.152125 
L 503.3 27.952125 
L 56.9 27.952125 
z
" style="fill: #ffffff"/>
   </g>
   <g id="matplotlib.axis_1">
    <g id="xtick_1">
     <g id="line2d_1">
      <path d="M 76.374374 305.152125 
L 76.374374 27.952125 
" clip-path="url(#p09716cb85a)" style="fill: none; stroke: #b0b0b0; stroke-width: 0.8; stroke-linecap: square"/>
     </g>
     <g id="line2d_2">
      <defs>
       <path id="m3e8b3dca8c" d="M 0 0 
L 0 3.5 
" style="stroke: #000000; stroke-width: 0.8"/>
      </defs>
      <g>
       <use xlink:href="#m3e8b3dca8c" x="76.374374" y="305.152125" style="stroke: #000000; stroke-width: 0.8"/>
      </g>
     </g>
     <g id="text_1">
      <!-- 0.0 -->
      <g transform="translate(65.124374 324.445562)scale(0.18 -0.18)">
       <defs>
        <path id="STIXGeneral-Regular-30" d="M 3046 2112 
Q 3046 1683 2963 1302 
Q 2880 922 2717 602 
Q 2554 282 2266 96 
Q 1978 -90 1600 -90 
Q 1210 -90 915 108 
Q 621 307 461 640 
Q 301 973 227 1350 
Q 154 1728 154 2150 
Q 154 2746 301 3222 
Q 448 3699 790 4012 
Q 1133 4326 1626 4326 
Q 2253 4326 2649 3712 
Q 3046 3098 3046 2112 
z
M 2432 2080 
Q 2432 3091 2217 3625 
Q 2003 4160 1587 4160 
Q 1190 4160 979 3622 
Q 768 3085 768 2106 
Q 768 1120 979 598 
Q 1190 77 1600 77 
Q 2003 77 2217 598 
Q 2432 1120 2432 2080 
z
" transform="scale(0.015625)"/>
        <path id="STIXGeneral-Regular-2e" d="M 1158 275 
Q 1158 134 1052 32 
Q 947 -70 800 -70 
Q 653 -70 550 32 
Q 448 134 448 281 
Q 448 429 553 534 
Q 659 640 806 640 
Q 947 640 1052 531 
Q 1158 422 1158 275 
z
" transform="scale(0.015625)"/>
       </defs>
       <use xlink:href="#STIXGeneral-Regular-30"/>
       <use xlink:href="#STIXGeneral-Regular-2e" x="49.999985"/>
       <use xlink:href="#STIXGeneral-Regular-30" x="74.999969"/>
      </g>
     </g>
    </g>
    <g id="xtick_2">
     <g id="line2d_3">
      <path d="M 158.027931 305.152125 
L 158.027931 27.952125 
" clip-path="url(#p09716cb85a)" style="fill: none; stroke: #b0b0b0; stroke-width: 0.8; stroke-linecap: square"/>
     </g>
     <g id="line2d_4">
      <g>
       <use xlink:href="#m3e8b3dca8c" x="158.027931" y="305.152125" style="stroke: #000000; stroke-width: 0.8"/>
      </g>
     </g>
     <g id="text_2">
      <!-- 0.2 -->
      <g transform="translate(146.777931 324.445562)scale(0.18 -0.18)">
       <defs>
        <path id="STIXGeneral-Regular-32" d="M 3034 877 
L 2688 0 
L 186 0 
L 186 77 
L 1325 1286 
Q 1773 1754 1965 2144 
Q 2157 2534 2157 2950 
Q 2157 3379 1920 3616 
Q 1683 3853 1267 3853 
Q 922 3853 720 3673 
Q 518 3494 326 3021 
L 192 3053 
Q 301 3648 630 3987 
Q 960 4326 1523 4326 
Q 2054 4326 2380 4006 
Q 2707 3686 2707 3200 
Q 2707 2477 1888 1613 
L 832 486 
L 2330 486 
Q 2541 486 2665 569 
Q 2790 653 2944 915 
L 3034 877 
z
" transform="scale(0.015625)"/>
       </defs>
       <use xlink:href="#STIXGeneral-Regular-30"/>
       <use xlink:href="#STIXGeneral-Regular-2e" x="49.999985"/>
       <use xlink:href="#STIXGeneral-Regular-32" x="74.999969"/>
      </g>
     </g>
    </g>
    <g id="xtick_3">
     <g id="line2d_5">
      <path d="M 239.681489 305.152125 
L 239.681489 27.952125 
" clip-path="url(#p09716cb85a)" style="fill: none; stroke: #b0b0b0; stroke-width: 0.8; stroke-linecap: square"/>
     </g>
     <g id="line2d_6">
      <g>
       <use xlink:href="#m3e8b3dca8c" x="239.681489" y="305.152125" style="stroke: #000000; stroke-width: 0.8"/>
      </g>
     </g>
     <g id="text_3">
      <!-- 0.4 -->
      <g transform="translate(228.431489 324.445562)scale(0.18 -0.18)">
       <defs>
        <path id="STIXGeneral-Regular-34" d="M 3027 1069 
L 2368 1069 
L 2368 0 
L 1869 0 
L 1869 1069 
L 77 1069 
L 77 1478 
L 2086 4326 
L 2368 4326 
L 2368 1478 
L 3027 1478 
L 3027 1069 
z
M 1869 1478 
L 1869 3674 
L 333 1478 
L 1869 1478 
z
" transform="scale(0.015625)"/>
       </defs>
       <use xlink:href="#STIXGeneral-Regular-30"/>
       <use xlink:href="#STIXGeneral-Regular-2e" x="49.999985"/>
       <use xlink:href="#STIXGeneral-Regular-34" x="74.999969"/>
      </g>
     </g>
    </g>
    <g id="xtick_4">
     <g id="line2d_7">
      <path d="M 321.335047 305.152125 
L 321.335047 27.952125 
" clip-path="url(#p09716cb85a)" style="fill: none; stroke: #b0b0b0; stroke-width: 0.8; stroke-linecap: square"/>
     </g>
     <g id="line2d_8">
      <g>
       <use xlink:href="#m3e8b3dca8c" x="321.335047" y="305.152125" style="stroke: #000000; stroke-width: 0.8"/>
      </g>
     </g>
     <g id="text_4">
      <!-- 0.6 -->
      <g transform="translate(310.085047 324.445562)scale(0.18 -0.18)">
       <defs>
        <path id="STIXGeneral-Regular-36" d="M 2854 4378 
L 2867 4275 
Q 2112 4154 1606 3664 
Q 1101 3174 973 2451 
Q 1344 2739 1786 2739 
Q 2349 2739 2672 2380 
Q 2995 2022 2995 1402 
Q 2995 774 2669 378 
Q 2291 -90 1651 -90 
Q 870 -90 518 557 
Q 218 1107 218 1786 
Q 218 2835 915 3552 
Q 1312 3962 1731 4131 
Q 2150 4301 2854 4378 
z
M 2419 1203 
Q 2419 2445 1555 2445 
Q 1235 2445 1024 2275 
Q 813 2106 813 1702 
Q 813 954 1046 522 
Q 1280 90 1722 90 
Q 2061 90 2240 394 
Q 2419 698 2419 1203 
z
" transform="scale(0.015625)"/>
       </defs>
       <use xlink:href="#STIXGeneral-Regular-30"/>
       <use xlink:href="#STIXGeneral-Regular-2e" x="49.999985"/>
       <use xlink:href="#STIXGeneral-Regular-36" x="74.999969"/>
      </g>
     </g>
    </g>
    <g id="xtick_5">
     <g id="line2d_9">
      <path d="M 402.988604 305.152125 
L 402.988604 27.952125 
" clip-path="url(#p09716cb85a)" style="fill: none; stroke: #b0b0b0; stroke-width: 0.8; stroke-linecap: square"/>
     </g>
     <g id="line2d_10">
      <g>
       <use xlink:href="#m3e8b3dca8c" x="402.988604" y="305.152125" style="stroke: #000000; stroke-width: 0.8"/>
      </g>
     </g>
     <g id="text_5">
      <!-- 0.8 -->
      <g transform="translate(391.738604 324.445562)scale(0.18 -0.18)">
       <defs>
        <path id="STIXGeneral-Regular-38" d="M 2848 992 
Q 2848 499 2505 204 
Q 2163 -90 1587 -90 
Q 1050 -90 704 204 
Q 358 499 358 954 
Q 358 1293 524 1533 
Q 691 1773 1190 2125 
Q 710 2522 553 2765 
Q 397 3008 397 3328 
Q 397 3782 745 4054 
Q 1094 4326 1638 4326 
Q 2106 4326 2410 4060 
Q 2714 3795 2714 3411 
Q 2714 3059 2531 2848 
Q 2349 2637 1856 2374 
Q 2432 1990 2640 1689 
Q 2848 1389 2848 992 
z
M 2272 3411 
Q 2272 3744 2086 3945 
Q 1901 4147 1574 4147 
Q 1248 4147 1059 3977 
Q 870 3808 870 3513 
Q 870 3219 1059 2979 
Q 1248 2739 1670 2490 
Q 1997 2682 2134 2896 
Q 2272 3110 2272 3411 
z
M 1734 1741 
L 1357 1997 
Q 1075 1766 960 1545 
Q 845 1325 845 1011 
Q 845 576 1065 333 
Q 1286 90 1658 90 
Q 1971 90 2166 285 
Q 2362 480 2362 794 
Q 2362 1082 2214 1299 
Q 2067 1517 1734 1741 
z
" transform="scale(0.015625)"/>
       </defs>
       <use xlink:href="#STIXGeneral-Regular-30"/>
       <use xlink:href="#STIXGeneral-Regular-2e" x="49.999985"/>
       <use xlink:href="#STIXGeneral-Regular-38" x="74.999969"/>
      </g>
     </g>
    </g>
    <g id="xtick_6">
     <g id="line2d_11">
      <path d="M 484.642162 305.152125 
L 484.642162 27.952125 
" clip-path="url(#p09716cb85a)" style="fill: none; stroke: #b0b0b0; stroke-width: 0.8; stroke-linecap: square"/>
     </g>
     <g id="line2d_12">
      <g>
       <use xlink:href="#m3e8b3dca8c" x="484.642162" y="305.152125" style="stroke: #000000; stroke-width: 0.8"/>
      </g>
     </g>
     <g id="text_6">
      <!-- 1.0 -->
      <g transform="translate(473.392162 324.445562)scale(0.18 -0.18)">
       <defs>
        <path id="STIXGeneral-Regular-31" d="M 2522 0 
L 755 0 
L 755 96 
Q 1107 115 1235 227 
Q 1363 339 1363 608 
L 1363 3482 
Q 1363 3795 1171 3795 
Q 1082 3795 883 3718 
L 710 3654 
L 710 3744 
L 1856 4326 
L 1914 4307 
L 1914 486 
Q 1914 275 2042 185 
Q 2170 96 2522 96 
L 2522 0 
z
" transform="scale(0.015625)"/>
       </defs>
       <use xlink:href="#STIXGeneral-Regular-31"/>
       <use xlink:href="#STIXGeneral-Regular-2e" x="49.999985"/>
       <use xlink:href="#STIXGeneral-Regular-30" x="74.999969"/>
      </g>
     </g>
    </g>
    <g id="text_7">
     <!-- Training Environment Steps -->
     <g transform="translate(178.104688 344.645562)scale(0.18 -0.18)">
      <defs>
       <path id="STIXGeneral-Regular-54" d="M 3795 3149 
L 3642 3149 
Q 3539 3674 3353 3821 
Q 3168 3968 2656 3968 
L 2278 3968 
L 2278 710 
Q 2278 346 2387 243 
Q 2496 141 2893 122 
L 2893 0 
L 1024 0 
L 1024 122 
Q 1427 147 1526 256 
Q 1626 365 1626 787 
L 1626 3968 
L 1242 3968 
Q 723 3968 540 3817 
Q 358 3667 262 3149 
L 109 3149 
L 154 4237 
L 3750 4237 
L 3795 3149 
z
" transform="scale(0.015625)"/>
       <path id="STIXGeneral-Regular-72" d="M 1024 2931 
L 1024 2342 
Q 1267 2688 1430 2816 
Q 1594 2944 1792 2944 
Q 1958 2944 2051 2854 
Q 2144 2765 2144 2605 
Q 2144 2470 2077 2393 
Q 2010 2317 1894 2317 
Q 1773 2317 1638 2445 
Q 1536 2541 1472 2541 
Q 1338 2541 1181 2355 
Q 1024 2170 1024 2016 
L 1024 576 
Q 1024 301 1133 205 
Q 1242 109 1568 96 
L 1568 0 
L 32 0 
L 32 96 
Q 339 154 412 224 
Q 486 294 486 538 
L 486 2138 
Q 486 2349 438 2435 
Q 390 2522 269 2522 
Q 166 2522 45 2496 
L 45 2598 
Q 448 2726 992 2944 
L 1024 2931 
z
" transform="scale(0.015625)"/>
       <path id="STIXGeneral-Regular-61" d="M 2829 422 
L 2829 243 
Q 2586 -64 2253 -64 
Q 1888 -64 1843 403 
L 1837 403 
Q 1427 -64 909 -64 
Q 608 -64 422 112 
Q 237 288 237 602 
Q 237 1050 685 1350 
Q 992 1555 1837 1869 
L 1837 2214 
Q 1837 2502 1699 2646 
Q 1562 2790 1338 2790 
Q 1146 2790 1018 2697 
Q 890 2605 890 2477 
Q 890 2419 909 2348 
Q 928 2278 928 2208 
Q 928 2112 841 2029 
Q 755 1946 634 1946 
Q 525 1946 441 2029 
Q 358 2112 358 2240 
Q 358 2547 685 2752 
Q 986 2944 1421 2944 
Q 1939 2944 2176 2656 
Q 2291 2522 2323 2384 
Q 2355 2246 2355 1946 
L 2355 723 
Q 2355 301 2554 301 
Q 2682 301 2829 422 
z
M 1837 813 
L 1837 1715 
Q 1248 1510 1018 1293 
Q 800 1094 800 800 
Q 800 557 921 432 
Q 1043 307 1242 307 
Q 1453 307 1613 410 
Q 1747 506 1792 589 
Q 1837 672 1837 813 
z
" transform="scale(0.015625)"/>
       <path id="STIXGeneral-Regular-69" d="M 1152 4045 
Q 1152 3904 1056 3811 
Q 960 3718 819 3718 
Q 685 3718 592 3811 
Q 499 3904 499 4045 
Q 499 4179 595 4275 
Q 691 4371 826 4371 
Q 966 4371 1059 4275 
Q 1152 4179 1152 4045 
z
M 1619 0 
L 102 0 
L 102 96 
Q 435 115 521 211 
Q 608 307 608 666 
L 608 2118 
Q 608 2342 563 2432 
Q 518 2522 397 2522 
Q 243 2522 128 2490 
L 128 2592 
L 1120 2944 
L 1146 2918 
L 1146 672 
Q 1146 314 1226 218 
Q 1306 122 1619 96 
L 1619 0 
z
" transform="scale(0.015625)"/>
       <path id="STIXGeneral-Regular-6e" d="M 3104 0 
L 1773 0 
L 1779 96 
Q 2016 115 2096 233 
Q 2176 352 2176 672 
L 2176 1946 
Q 2176 2592 1709 2592 
Q 1549 2592 1408 2515 
Q 1267 2438 1050 2227 
L 1050 461 
Q 1050 269 1136 192 
Q 1222 115 1466 96 
L 1466 0 
L 115 0 
L 115 96 
Q 358 115 435 214 
Q 512 314 512 602 
L 512 2157 
Q 512 2394 467 2483 
Q 422 2573 288 2573 
Q 160 2573 102 2547 
L 102 2656 
Q 550 2784 979 2944 
L 1030 2925 
L 1030 2426 
L 1037 2426 
Q 1491 2944 1958 2944 
Q 2323 2944 2518 2688 
Q 2714 2432 2714 1958 
L 2714 544 
Q 2714 288 2790 205 
Q 2867 122 3104 96 
L 3104 0 
z
" transform="scale(0.015625)"/>
       <path id="STIXGeneral-Regular-67" d="M 3008 2483 
L 2477 2483 
Q 2598 2208 2598 1946 
Q 2598 1453 2265 1203 
Q 1933 954 1600 954 
Q 1530 954 1357 973 
L 1235 986 
Q 1107 947 979 812 
Q 851 678 851 582 
Q 851 435 1350 410 
L 2176 371 
Q 2528 358 2739 172 
Q 2950 -13 2950 -314 
Q 2950 -685 2566 -986 
Q 2035 -1395 1286 -1395 
Q 826 -1395 502 -1212 
Q 179 -1030 179 -774 
Q 179 -595 320 -419 
Q 461 -243 806 6 
Q 602 102 534 172 
Q 467 243 467 346 
Q 467 531 762 787 
Q 909 915 1037 1043 
Q 717 1203 579 1401 
Q 442 1600 442 1901 
Q 442 2336 752 2640 
Q 1062 2944 1510 2944 
Q 1766 2944 2022 2848 
L 2163 2797 
Q 2349 2733 2515 2733 
L 3008 2733 
L 3008 2483 
z
M 973 2163 
L 973 2144 
Q 973 1683 1155 1398 
Q 1338 1114 1632 1114 
Q 1850 1114 1978 1270 
Q 2106 1427 2106 1690 
Q 2106 2112 1914 2464 
Q 1754 2765 1446 2765 
Q 1222 2765 1097 2605 
Q 973 2445 973 2163 
z
M 2771 -410 
Q 2771 -230 2595 -163 
Q 2419 -96 1978 -96 
Q 1344 -96 941 -13 
Q 749 -243 688 -348 
Q 627 -454 627 -563 
Q 627 -774 880 -902 
Q 1133 -1030 1555 -1030 
Q 2099 -1030 2435 -860 
Q 2771 -691 2771 -410 
z
" transform="scale(0.015625)"/>
       <path id="STIXGeneral-Regular-20" transform="scale(0.015625)"/>
       <path id="STIXGeneral-Regular-45" d="M 3821 1082 
L 3526 0 
L 77 0 
L 77 122 
Q 442 147 538 252 
Q 634 358 634 730 
L 634 3520 
Q 634 3878 534 3987 
Q 435 4096 77 4115 
L 77 4237 
L 3469 4237 
L 3494 3322 
L 3334 3322 
Q 3264 3750 3085 3872 
Q 2906 3994 2349 3994 
L 1510 3994 
Q 1370 3994 1328 3952 
Q 1286 3910 1286 3763 
L 1286 2355 
L 2253 2355 
Q 2656 2355 2787 2470 
Q 2918 2586 2976 2970 
L 3123 2970 
L 3123 1472 
L 2976 1472 
Q 2918 1875 2790 1984 
Q 2662 2093 2253 2093 
L 1286 2093 
L 1286 538 
Q 1286 346 1420 291 
Q 1555 237 1933 237 
L 2163 237 
Q 2848 237 3136 403 
Q 3424 570 3642 1082 
L 3821 1082 
z
" transform="scale(0.015625)"/>
       <path id="STIXGeneral-Regular-76" d="M 3053 2880 
L 3053 2784 
Q 2906 2771 2835 2688 
Q 2765 2605 2637 2285 
L 1818 230 
Q 1690 -90 1638 -90 
Q 1587 -90 1523 77 
Q 1510 96 1497 141 
Q 1485 186 1472 211 
L 704 2048 
Q 499 2534 403 2652 
Q 307 2771 122 2784 
L 122 2880 
L 1376 2880 
L 1376 2784 
Q 1210 2771 1146 2732 
Q 1082 2694 1082 2611 
Q 1082 2509 1139 2368 
L 1792 730 
L 2426 2387 
Q 2464 2483 2464 2579 
Q 2464 2758 2163 2784 
L 2163 2880 
L 3053 2880 
z
" transform="scale(0.015625)"/>
       <path id="STIXGeneral-Regular-6f" d="M 3008 1478 
Q 3008 806 2608 371 
Q 2208 -64 1568 -64 
Q 979 -64 582 368 
Q 186 800 186 1459 
Q 186 2125 582 2534 
Q 979 2944 1626 2944 
Q 2221 2944 2614 2537 
Q 3008 2131 3008 1478 
z
M 2432 1306 
Q 2432 2035 2112 2445 
Q 1856 2765 1504 2765 
Q 1171 2765 966 2493 
Q 762 2221 762 1747 
Q 762 928 1101 435 
Q 1318 115 1677 115 
Q 2029 115 2230 432 
Q 2432 749 2432 1306 
z
" transform="scale(0.015625)"/>
       <path id="STIXGeneral-Regular-6d" d="M 4960 0 
L 3565 0 
L 3565 96 
Q 3834 122 3907 208 
Q 3981 294 3981 576 
L 3981 1894 
Q 3981 2278 3869 2444 
Q 3757 2611 3488 2611 
Q 3264 2611 3107 2521 
Q 2950 2432 2803 2221 
L 2803 608 
Q 2803 301 2896 201 
Q 2989 102 3264 96 
L 3264 0 
L 1830 0 
L 1830 96 
Q 2112 115 2189 188 
Q 2266 262 2266 550 
L 2266 1901 
Q 2266 2611 1850 2611 
Q 1670 2611 1468 2531 
Q 1267 2451 1171 2336 
Q 1088 2240 1088 2227 
L 1088 448 
Q 1088 243 1177 176 
Q 1267 109 1523 96 
L 1523 0 
L 102 0 
L 102 96 
Q 371 102 460 195 
Q 550 288 550 563 
L 550 2150 
Q 550 2387 499 2480 
Q 448 2573 326 2573 
Q 230 2573 122 2547 
L 122 2656 
Q 557 2778 1011 2944 
L 1062 2925 
L 1062 2451 
L 1075 2451 
Q 1363 2752 1584 2848 
Q 1805 2944 2054 2944 
Q 2560 2944 2733 2406 
Q 3232 2944 3776 2944 
Q 4518 2944 4518 1792 
L 4518 493 
Q 4518 282 4582 202 
Q 4646 122 4794 109 
L 4960 96 
L 4960 0 
z
" transform="scale(0.015625)"/>
       <path id="STIXGeneral-Regular-65" d="M 2611 1050 
L 2714 1005 
Q 2330 -64 1376 -64 
Q 813 -64 486 329 
Q 160 723 160 1389 
Q 160 2074 525 2509 
Q 890 2944 1485 2944 
Q 2061 2944 2374 2502 
Q 2560 2246 2592 1773 
L 621 1773 
Q 646 1370 700 1158 
Q 755 947 915 730 
Q 1184 378 1626 378 
Q 1939 378 2153 531 
Q 2368 685 2611 1050 
z
M 634 1978 
L 1939 1978 
Q 1882 2381 1750 2547 
Q 1619 2714 1312 2714 
Q 1043 2714 864 2525 
Q 685 2336 634 1978 
z
" transform="scale(0.015625)"/>
       <path id="STIXGeneral-Regular-74" d="M 1702 493 
L 1786 422 
Q 1478 -64 1011 -64 
Q 448 -64 448 749 
L 448 2675 
L 109 2675 
Q 83 2694 83 2720 
Q 83 2771 192 2842 
Q 435 2982 813 3526 
Q 826 3546 874 3606 
Q 922 3667 941 3706 
Q 986 3706 986 3622 
L 986 2880 
L 1632 2880 
L 1632 2675 
L 986 2675 
L 986 845 
Q 986 538 1062 403 
Q 1139 269 1318 269 
Q 1510 269 1702 493 
z
" transform="scale(0.015625)"/>
       <path id="STIXGeneral-Regular-53" d="M 3002 2963 
L 2842 2963 
Q 2733 3360 2579 3565 
Q 2189 4064 1651 4064 
Q 1357 4064 1181 3894 
Q 1005 3725 1005 3456 
Q 1005 3328 1069 3206 
Q 1133 3085 1206 2998 
Q 1280 2912 1465 2784 
Q 1651 2656 1766 2589 
Q 1882 2522 2150 2362 
Q 2669 2061 2905 1763 
Q 3142 1466 3142 1107 
Q 3142 576 2771 243 
Q 2400 -90 1837 -90 
Q 1421 -90 1082 58 
Q 915 128 781 128 
Q 704 128 653 70 
Q 602 13 602 -83 
L 461 -83 
L 275 1274 
L 416 1274 
Q 845 141 1734 141 
Q 2074 141 2285 342 
Q 2496 544 2496 858 
Q 2496 1158 2310 1363 
Q 2003 1696 1235 2106 
Q 454 2522 454 3206 
Q 454 3718 768 4022 
Q 1082 4326 1568 4326 
Q 1907 4326 2240 4186 
Q 2413 4109 2522 4109 
Q 2688 4109 2726 4326 
L 2861 4326 
L 3002 2963 
z
" transform="scale(0.015625)"/>
       <path id="STIXGeneral-Regular-70" d="M 1018 2931 
L 1018 2438 
Q 1421 2944 1939 2944 
Q 2406 2944 2707 2560 
Q 3008 2176 3008 1581 
Q 3008 883 2621 409 
Q 2234 -64 1664 -64 
Q 1466 -64 1328 -6 
Q 1190 51 1018 211 
L 1018 -794 
Q 1018 -1094 1120 -1180 
Q 1222 -1267 1581 -1274 
L 1581 -1389 
L 32 -1389 
L 32 -1280 
Q 314 -1254 397 -1171 
Q 480 -1088 480 -838 
L 480 2157 
Q 480 2381 429 2451 
Q 378 2522 218 2522 
Q 115 2522 58 2515 
L 58 2618 
Q 506 2752 979 2944 
L 1018 2931 
z
M 1018 2138 
L 1018 563 
Q 1018 422 1238 281 
Q 1459 141 1683 141 
Q 2029 141 2243 467 
Q 2458 794 2458 1325 
Q 2458 1888 2243 2224 
Q 2029 2560 1670 2560 
Q 1446 2560 1232 2419 
Q 1018 2278 1018 2138 
z
" transform="scale(0.015625)"/>
       <path id="STIXGeneral-Regular-73" d="M 998 1926 
L 1664 1523 
Q 1984 1331 2105 1164 
Q 2227 998 2227 736 
Q 2227 416 1961 176 
Q 1696 -64 1331 -64 
Q 1030 -64 864 -6 
Q 691 51 570 51 
Q 461 51 416 -26 
L 333 -26 
L 333 979 
L 435 979 
Q 538 512 730 294 
Q 922 77 1248 77 
Q 1485 77 1632 211 
Q 1779 346 1779 550 
Q 1779 845 1440 1030 
L 1094 1222 
Q 326 1651 326 2150 
Q 326 2522 566 2730 
Q 806 2938 1210 2938 
Q 1491 2938 1638 2867 
Q 1754 2816 1818 2816 
Q 1862 2816 1920 2880 
L 1990 2880 
L 2022 2010 
L 1926 2010 
Q 1818 2445 1654 2621 
Q 1491 2797 1203 2797 
Q 986 2797 854 2688 
Q 723 2579 723 2362 
Q 723 2253 796 2128 
Q 870 2003 998 1926 
z
" transform="scale(0.015625)"/>
      </defs>
      <use xlink:href="#STIXGeneral-Regular-54"/>
      <use xlink:href="#STIXGeneral-Regular-72" x="61.099991"/>
      <use xlink:href="#STIXGeneral-Regular-61" x="94.399979"/>
      <use xlink:href="#STIXGeneral-Regular-69" x="138.799973"/>
      <use xlink:href="#STIXGeneral-Regular-6e" x="166.59996"/>
      <use xlink:href="#STIXGeneral-Regular-69" x="216.599945"/>
      <use xlink:href="#STIXGeneral-Regular-6e" x="244.399933"/>
      <use xlink:href="#STIXGeneral-Regular-67" x="294.399918"/>
      <use xlink:href="#STIXGeneral-Regular-20" x="344.399902"/>
      <use xlink:href="#STIXGeneral-Regular-45" x="369.399887"/>
      <use xlink:href="#STIXGeneral-Regular-6e" x="430.499878"/>
      <use xlink:href="#STIXGeneral-Regular-76" x="480.499863"/>
      <use xlink:href="#STIXGeneral-Regular-69" x="530.499847"/>
      <use xlink:href="#STIXGeneral-Regular-72" x="558.299835"/>
      <use xlink:href="#STIXGeneral-Regular-6f" x="591.599823"/>
      <use xlink:href="#STIXGeneral-Regular-6e" x="641.599808"/>
      <use xlink:href="#STIXGeneral-Regular-6d" x="691.599792"/>
      <use xlink:href="#STIXGeneral-Regular-65" x="769.39978"/>
      <use xlink:href="#STIXGeneral-Regular-6e" x="813.799774"/>
      <use xlink:href="#STIXGeneral-Regular-74" x="863.799759"/>
      <use xlink:href="#STIXGeneral-Regular-20" x="891.599747"/>
      <use xlink:href="#STIXGeneral-Regular-53" x="916.599731"/>
      <use xlink:href="#STIXGeneral-Regular-74" x="972.199722"/>
      <use xlink:href="#STIXGeneral-Regular-65" x="999.99971"/>
      <use xlink:href="#STIXGeneral-Regular-70" x="1044.399704"/>
      <use xlink:href="#STIXGeneral-Regular-73" x="1094.399689"/>
     </g>
    </g>
    <g id="text_8">
     <!-- 1e8 -->
     <g transform="translate(477.306875 343.645562)scale(0.18 -0.18)">
      <use xlink:href="#STIXGeneral-Regular-31"/>
      <use xlink:href="#STIXGeneral-Regular-65" x="49.999985"/>
      <use xlink:href="#STIXGeneral-Regular-38" x="94.399979"/>
     </g>
    </g>
   </g>
   <g id="matplotlib.axis_2">
    <g id="ytick_1">
     <g id="line2d_13">
      <path d="M 56.9 292.552125 
L 503.3 292.552125 
" clip-path="url(#p09716cb85a)" style="fill: none; stroke: #b0b0b0; stroke-width: 0.8; stroke-linecap: square"/>
     </g>
     <g id="line2d_14">
      <defs>
       <path id="md89def8118" d="M 0 0 
L -3.5 0 
" style="stroke: #000000; stroke-width: 0.8"/>
      </defs>
      <g>
       <use xlink:href="#md89def8118" x="56.9" y="292.552125" style="stroke: #000000; stroke-width: 0.8"/>
      </g>
     </g>
     <g id="text_9">
      <!-- 0.0 -->
      <g transform="translate(27.4 298.698844)scale(0.18 -0.18)">
       <use xlink:href="#STIXGeneral-Regular-30"/>
       <use xlink:href="#STIXGeneral-Regular-2e" x="49.999985"/>
       <use xlink:href="#STIXGeneral-Regular-30" x="74.999969"/>
      </g>
     </g>
    </g>
    <g id="ytick_2">
     <g id="line2d_15">
      <path d="M 56.9 242.152125 
L 503.3 242.152125 
" clip-path="url(#p09716cb85a)" style="fill: none; stroke: #b0b0b0; stroke-width: 0.8; stroke-linecap: square"/>
     </g>
     <g id="line2d_16">
      <g>
       <use xlink:href="#md89def8118" x="56.9" y="242.152125" style="stroke: #000000; stroke-width: 0.8"/>
      </g>
     </g>
     <g id="text_10">
      <!-- 0.2 -->
      <g transform="translate(27.4 248.298844)scale(0.18 -0.18)">
       <use xlink:href="#STIXGeneral-Regular-30"/>
       <use xlink:href="#STIXGeneral-Regular-2e" x="49.999985"/>
       <use xlink:href="#STIXGeneral-Regular-32" x="74.999969"/>
      </g>
     </g>
    </g>
    <g id="ytick_3">
     <g id="line2d_17">
      <path d="M 56.9 191.752125 
L 503.3 191.752125 
" clip-path="url(#p09716cb85a)" style="fill: none; stroke: #b0b0b0; stroke-width: 0.8; stroke-linecap: square"/>
     </g>
     <g id="line2d_18">
      <g>
       <use xlink:href="#md89def8118" x="56.9" y="191.752125" style="stroke: #000000; stroke-width: 0.8"/>
      </g>
     </g>
     <g id="text_11">
      <!-- 0.4 -->
      <g transform="translate(27.4 197.898844)scale(0.18 -0.18)">
       <use xlink:href="#STIXGeneral-Regular-30"/>
       <use xlink:href="#STIXGeneral-Regular-2e" x="49.999985"/>
       <use xlink:href="#STIXGeneral-Regular-34" x="74.999969"/>
      </g>
     </g>
    </g>
    <g id="ytick_4">
     <g id="line2d_19">
      <path d="M 56.9 141.352125 
L 503.3 141.352125 
" clip-path="url(#p09716cb85a)" style="fill: none; stroke: #b0b0b0; stroke-width: 0.8; stroke-linecap: square"/>
     </g>
     <g id="line2d_20">
      <g>
       <use xlink:href="#md89def8118" x="56.9" y="141.352125" style="stroke: #000000; stroke-width: 0.8"/>
      </g>
     </g>
     <g id="text_12">
      <!-- 0.6 -->
      <g transform="translate(27.4 147.498843)scale(0.18 -0.18)">
       <use xlink:href="#STIXGeneral-Regular-30"/>
       <use xlink:href="#STIXGeneral-Regular-2e" x="49.999985"/>
       <use xlink:href="#STIXGeneral-Regular-36" x="74.999969"/>
      </g>
     </g>
    </g>
    <g id="ytick_5">
     <g id="line2d_21">
      <path d="M 56.9 90.952125 
L 503.3 90.952125 
" clip-path="url(#p09716cb85a)" style="fill: none; stroke: #b0b0b0; stroke-width: 0.8; stroke-linecap: square"/>
     </g>
     <g id="line2d_22">
      <g>
       <use xlink:href="#md89def8118" x="56.9" y="90.952125" style="stroke: #000000; stroke-width: 0.8"/>
      </g>
     </g>
     <g id="text_13">
      <!-- 0.8 -->
      <g transform="translate(27.4 97.098843)scale(0.18 -0.18)">
       <use xlink:href="#STIXGeneral-Regular-30"/>
       <use xlink:href="#STIXGeneral-Regular-2e" x="49.999985"/>
       <use xlink:href="#STIXGeneral-Regular-38" x="74.999969"/>
      </g>
     </g>
    </g>
    <g id="ytick_6">
     <g id="line2d_23">
      <path d="M 56.9 40.552125 
L 503.3 40.552125 
" clip-path="url(#p09716cb85a)" style="fill: none; stroke: #b0b0b0; stroke-width: 0.8; stroke-linecap: square"/>
     </g>
     <g id="line2d_24">
      <g>
       <use xlink:href="#md89def8118" x="56.9" y="40.552125" style="stroke: #000000; stroke-width: 0.8"/>
      </g>
     </g>
     <g id="text_14">
      <!-- 1.0 -->
      <g transform="translate(27.4 46.698843)scale(0.18 -0.18)">
       <use xlink:href="#STIXGeneral-Regular-31"/>
       <use xlink:href="#STIXGeneral-Regular-2e" x="49.999985"/>
       <use xlink:href="#STIXGeneral-Regular-30" x="74.999969"/>
      </g>
     </g>
    </g>
    <g id="text_15">
     <!-- Success Rate -->
     <g transform="translate(19.493438 213.7965)rotate(-90)scale(0.18 -0.18)">
      <defs>
       <path id="STIXGeneral-Regular-75" d="M 3072 320 
L 3072 230 
Q 2573 96 2195 -58 
L 2163 -38 
L 2163 486 
L 2150 486 
Q 1747 -64 1235 -64 
Q 870 -64 662 160 
Q 454 384 454 755 
L 454 2362 
Q 454 2598 371 2688 
Q 288 2778 58 2790 
L 58 2880 
L 992 2880 
L 992 813 
Q 992 595 1123 451 
Q 1254 307 1446 307 
Q 1760 307 1984 506 
Q 2067 582 2099 649 
Q 2131 717 2131 877 
L 2131 2355 
Q 2131 2605 2041 2678 
Q 1952 2752 1658 2771 
L 1658 2880 
L 2669 2880 
L 2669 685 
Q 2669 461 2742 390 
Q 2816 320 3034 320 
L 3072 320 
z
" transform="scale(0.015625)"/>
       <path id="STIXGeneral-Regular-63" d="M 2547 998 
L 2637 941 
Q 2362 403 2112 205 
Q 1786 -64 1376 -64 
Q 845 -64 502 336 
Q 160 736 160 1357 
Q 160 2170 698 2618 
Q 1094 2944 1562 2944 
Q 1965 2944 2256 2749 
Q 2547 2554 2547 2285 
Q 2547 2176 2457 2096 
Q 2368 2016 2246 2016 
Q 2022 2016 1939 2310 
L 1901 2451 
Q 1850 2630 1773 2694 
Q 1696 2758 1523 2758 
Q 1133 2758 893 2451 
Q 653 2144 653 1645 
Q 653 1094 928 745 
Q 1203 397 1645 397 
Q 1920 397 2118 528 
Q 2317 659 2547 998 
z
" transform="scale(0.015625)"/>
       <path id="STIXGeneral-Regular-52" d="M 4224 0 
L 3187 0 
L 1664 1971 
L 1306 1958 
L 1306 717 
Q 1306 352 1405 249 
Q 1504 147 1875 122 
L 1875 0 
L 109 0 
L 109 122 
Q 474 154 563 262 
Q 653 371 653 794 
L 653 3526 
Q 653 3885 563 3987 
Q 474 4090 109 4115 
L 109 4237 
L 1850 4237 
Q 2726 4237 3187 3859 
Q 3501 3603 3501 3091 
Q 3501 2221 2342 2042 
L 3622 422 
Q 3757 256 3878 198 
Q 4000 141 4224 122 
L 4224 0 
z
M 1306 3731 
L 1306 2195 
Q 1766 2202 1990 2246 
Q 2214 2291 2438 2413 
Q 2803 2618 2803 3142 
Q 2803 4000 1632 4000 
Q 1459 4000 1382 3945 
Q 1306 3891 1306 3731 
z
" transform="scale(0.015625)"/>
      </defs>
      <use xlink:href="#STIXGeneral-Regular-53"/>
      <use xlink:href="#STIXGeneral-Regular-75" x="55.599991"/>
      <use xlink:href="#STIXGeneral-Regular-63" x="105.599976"/>
      <use xlink:href="#STIXGeneral-Regular-63" x="149.999969"/>
      <use xlink:href="#STIXGeneral-Regular-65" x="194.399963"/>
      <use xlink:href="#STIXGeneral-Regular-73" x="238.799957"/>
      <use xlink:href="#STIXGeneral-Regular-73" x="277.699951"/>
      <use xlink:href="#STIXGeneral-Regular-20" x="316.599945"/>
      <use xlink:href="#STIXGeneral-Regular-52" x="341.59993"/>
      <use xlink:href="#STIXGeneral-Regular-61" x="408.299927"/>
      <use xlink:href="#STIXGeneral-Regular-74" x="452.699921"/>
      <use xlink:href="#STIXGeneral-Regular-65" x="480.499908"/>
     </g>
    </g>
   </g>
   <g id="line2d_25">
    <path d="M 77.190909 292.552125 
L 114.751546 292.552125 
L 115.568081 290.536125 
L 116.384617 291.342525 
L 117.201152 291.826365 
L 118.017688 292.116669 
L 118.834224 290.274851 
L 119.650759 291.185761 
L 120.467295 291.732307 
L 121.28383 292.060234 
L 122.916901 292.375044 
L 123.733437 292.445877 
L 124.549973 290.472376 
L 125.366508 291.304276 
L 126.183044 289.787415 
L 126.999579 290.893299 
L 127.816115 291.55683 
L 128.63265 291.954948 
L 130.265722 292.337141 
L 132.715328 292.505688 
L 133.531864 290.508263 
L 134.348399 291.325808 
L 135.164935 291.816335 
L 136.798006 292.287241 
L 137.614542 292.393194 
L 138.431077 290.440767 
L 139.247613 291.28531 
L 140.064149 291.792036 
L 140.880684 292.096072 
L 142.513755 292.387946 
L 144.963362 292.516662 
L 153.128718 292.551911 
L 158.027931 292.552115 
L 158.844467 286.504119 
L 159.661002 282.875322 
L 160.477538 286.746043 
L 161.294074 285.036476 
L 162.110609 286.026736 
L 162.927145 286.620891 
L 163.74368 286.977385 
L 164.560216 287.191281 
L 165.376751 285.303619 
L 166.193287 282.155021 
L 167.826358 282.357968 
L 168.642894 284.419631 
L 169.459429 285.656628 
L 170.275965 282.366827 
L 171.0925 280.392946 
L 171.909036 281.224618 
L 172.725572 269.627621 
L 173.542107 268.717422 
L 174.358643 268.171303 
L 175.175178 273.891632 
L 175.991714 271.275829 
L 176.808249 263.658348 
L 177.624785 267.151859 
L 178.441321 273.279965 
L 179.257856 274.940829 
L 180.074392 275.937348 
L 180.890927 282.583259 
L 181.707463 286.570805 
L 182.523999 286.947333 
L 183.340534 287.17325 
L 184.15707 289.3248 
L 184.973605 288.59973 
L 185.790141 288.164688 
L 187.423212 287.747048 
L 189.872819 287.562868 
L 190.689354 283.510571 
L 191.50589 285.111193 
L 192.322425 288.087566 
L 193.138961 285.841389 
L 193.955497 284.493684 
L 194.772032 287.71706 
L 195.588568 287.635086 
L 196.405103 289.601902 
L 197.221639 288.765991 
L 198.038175 288.264445 
L 198.85471 289.979517 
L 199.671246 291.00856 
L 200.487781 291.625986 
L 201.304317 291.996442 
L 202.937388 292.352079 
L 205.386995 292.508915 
L 206.20353 292.526199 
L 207.020066 290.520569 
L 207.836601 291.333192 
L 208.653137 289.804765 
L 209.469673 288.887709 
L 210.286208 290.353475 
L 211.102744 291.232935 
L 211.919279 291.760611 
L 212.735815 292.077217 
L 214.368886 292.381158 
L 216.818493 292.515196 
L 217.635028 290.513968 
L 218.451564 287.297231 
L 219.2681 279.319188 
L 220.084635 284.612363 
L 220.901171 287.788268 
L 221.717706 289.693811 
L 222.534242 290.837136 
L 223.350777 285.475132 
L 224.167313 284.273929 
L 224.983849 275.489208 
L 225.800384 276.266375 
L 226.61692 282.780675 
L 227.433455 282.657255 
L 228.249991 284.599203 
L 229.066526 287.780372 
L 229.883062 289.689073 
L 230.699598 290.834294 
L 231.516133 291.521426 
L 232.332669 291.933706 
L 233.96574 292.329494 
L 234.782275 290.402546 
L 235.598811 291.262378 
L 236.415347 289.762277 
L 237.231882 286.846216 
L 238.048418 283.08058 
L 238.864953 286.869198 
L 239.681489 289.142369 
L 240.498025 288.490271 
L 241.31456 290.115013 
L 242.131096 291.089858 
L 242.947631 289.658765 
L 243.764167 290.816109 
L 244.580702 291.510515 
L 245.397238 291.927159 
L 247.030309 292.327137 
L 249.479916 292.503528 
L 253.562594 292.548346 
L 254.379129 288.517858 
L 255.195665 290.131565 
L 256.0122 287.067789 
L 256.828736 287.245523 
L 257.645272 283.320164 
L 258.461807 280.964949 
L 259.278343 283.583819 
L 260.094878 283.139142 
L 260.911414 282.872335 
L 261.72795 276.664251 
L 262.544485 264.8754 
L 263.361021 257.802089 
L 264.177556 271.702103 
L 264.994092 265.930112 
L 265.810627 264.482917 
L 266.627163 257.5666 
L 267.443699 269.54481 
L 268.260234 274.715736 
L 269.07677 281.850292 
L 269.893305 278.067025 
L 271.526376 277.660689 
L 272.342912 279.585264 
L 273.159448 268.644009 
L 273.975983 268.127255 
L 274.792519 273.865203 
L 275.609054 277.307972 
L 276.42559 283.405633 
L 277.242125 285.04823 
L 278.058661 288.049788 
L 278.875197 289.850723 
L 279.691732 290.931284 
L 280.508268 291.57962 
L 281.324803 291.968622 
L 282.141339 292.202023 
L 282.957875 290.326064 
L 283.77441 291.216488 
L 284.590946 289.734743 
L 285.407481 288.845696 
L 286.224017 276.216267 
L 287.040552 268.63861 
L 287.857088 276.188016 
L 288.673624 274.66966 
L 289.490159 279.806646 
L 290.306695 280.872838 
L 291.12323 283.528553 
L 291.939766 283.105982 
L 293.572837 274.233113 
L 294.389373 279.544718 
L 295.205908 282.731681 
L 296.022444 282.627859 
L 296.838979 286.597565 
L 297.655515 288.979389 
L 298.47205 290.408483 
L 299.288586 291.26594 
L 300.105122 291.780414 
L 300.921657 292.089098 
L 301.738193 290.258309 
L 302.554728 289.159835 
L 303.371264 288.500751 
L 304.1878 286.089301 
L 305.004335 286.658431 
L 305.820871 289.015908 
L 306.637406 288.414395 
L 307.453942 290.069487 
L 308.270477 291.062542 
L 309.087013 291.658375 
L 309.903549 289.999875 
L 310.720084 291.020775 
L 311.53662 289.617315 
L 312.353155 290.791239 
L 313.169691 291.495593 
L 313.986226 287.886206 
L 314.802762 289.752574 
L 315.619298 290.872394 
L 316.435833 289.528287 
L 317.252369 290.737822 
L 318.068904 291.463543 
L 318.88544 291.898976 
L 320.518511 292.316991 
L 322.968118 292.501336 
L 328.683867 292.550703 
L 347.464185 292.552125 
L 348.280721 290.536125 
L 349.097256 291.342525 
L 349.913792 291.826365 
L 351.546863 292.290851 
L 352.363399 290.379361 
L 353.179934 291.248467 
L 353.99647 291.76993 
L 354.813005 292.082808 
L 356.446076 292.383171 
L 358.079148 292.491302 
L 358.895683 290.499631 
L 359.712219 289.304629 
L 360.528754 290.603627 
L 361.34529 291.383026 
L 362.161825 287.818666 
L 362.978361 289.71205 
L 363.794897 290.84808 
L 364.611432 285.481698 
L 365.427968 286.293869 
L 366.244503 286.781171 
L 367.061039 289.089553 
L 367.877575 290.474582 
L 368.69411 291.305599 
L 369.510646 289.788209 
L 370.327181 288.877776 
L 371.143717 290.347515 
L 371.960252 291.229359 
L 372.776788 289.742466 
L 373.593324 290.866329 
L 374.409859 291.540648 
L 375.226395 291.945239 
L 376.04293 292.187993 
L 376.859466 290.317646 
L 377.676001 291.211438 
L 378.492537 291.747713 
L 379.309073 292.069478 
L 380.942144 292.378372 
L 383.391751 292.514594 
L 390.740571 292.551747 
L 426.668136 292.552125 
L 427.484672 290.536125 
L 428.301207 291.342525 
L 429.117743 289.810365 
L 429.934278 288.891069 
L 431.56735 276.315745 
L 432.383885 278.778297 
L 433.200421 274.207828 
L 434.016956 267.433547 
L 434.833492 269.416978 
L 435.650027 270.607037 
L 436.466563 271.321072 
L 437.283099 263.685494 
L 438.099634 267.168146 
L 438.91617 267.241738 
L 439.732705 265.269893 
L 440.549241 264.086786 
L 441.365776 269.424922 
L 442.182312 262.547803 
L 442.998848 266.485532 
L 443.815383 268.848169 
L 444.631919 268.249752 
L 446.26499 279.368071 
L 447.081526 280.609692 
L 447.898061 281.354666 
L 448.714597 285.833649 
L 449.531132 288.52104 
L 450.347668 288.117474 
L 451.164203 287.875334 
L 451.980739 289.746051 
L 452.797275 290.86848 
L 453.61381 289.525938 
L 454.430346 290.736413 
L 455.246881 291.462698 
L 456.063417 291.898469 
L 457.696488 292.316809 
L 460.146095 292.501297 
L 463.412237 292.545538 
L 464.228773 290.532173 
L 465.045308 291.340154 
L 465.861844 289.808942 
L 466.678379 290.906215 
L 467.494915 289.548579 
L 468.311451 288.733998 
L 469.127986 288.245249 
L 469.944522 289.967999 
L 470.761057 291.001649 
L 471.577593 291.62184 
L 472.394128 291.993954 
L 473.210664 292.217222 
L 474.0272 290.335183 
L 474.843735 289.20596 
L 475.660271 290.544426 
L 476.476806 291.347506 
L 477.293342 289.813353 
L 478.109877 284.860862 
L 478.926413 285.921367 
L 479.742949 286.55767 
L 480.559484 282.907452 
L 481.37602 286.765321 
L 482.192555 287.064043 
L 483.009091 289.259276 
L 483.009091 289.259276 
" clip-path="url(#p09716cb85a)" style="fill: none; stroke: #1f77b4; stroke-width: 1.5; stroke-linecap: square"/>
   </g>
   <g id="line2d_26">
    <path d="M 77.190909 292.552125 
L 82.090123 292.552125 
L 82.906658 288.520125 
L 83.723194 290.132925 
L 84.539729 291.100605 
L 85.356265 289.665213 
L 86.1728 290.819978 
L 86.989336 291.512837 
L 87.805872 291.928552 
L 89.438943 292.327639 
L 90.255478 292.417433 
L 91.072014 286.42331 
L 91.888549 288.874836 
L 92.705085 290.345752 
L 93.521621 250.9083 
L 94.338156 197.005831 
L 95.971227 120.261063 
L 96.787763 104.50549 
L 97.604299 99.084143 
L 98.420834 79.703338 
L 99.23737 88.234853 
L 100.053905 113.513762 
L 100.870441 126.665109 
L 101.686976 120.443912 
L 102.503512 128.807195 
L 103.320048 151.969168 
L 104.136583 188.042351 
L 104.953119 197.590261 
L 105.769654 213.399007 
L 106.58619 220.868254 
L 107.402725 223.333804 
L 108.219261 236.909132 
L 109.035797 255.134329 
L 109.852332 255.989448 
L 110.668868 226.262519 
L 111.485403 180.202358 
L 112.301939 190.870264 
L 113.118474 225.495009 
L 114.751546 206.318762 
L 115.568081 208.556108 
L 116.384617 183.690516 
L 117.201152 174.819162 
L 118.017688 175.544346 
L 118.834224 145.739458 
L 119.650759 166.160525 
L 120.467295 123.981163 
L 121.28383 100.68955 
L 122.100366 133.08258 
L 122.916901 182.758398 
L 123.733437 150.06789 
L 124.549973 182.869584 
L 125.366508 190.454599 
L 126.183044 192.98961 
L 126.999579 176.366616 
L 127.816115 134.13682 
L 128.63265 100.734944 
L 129.449186 94.805817 
L 130.265722 77.136342 
L 131.082257 100.806655 
L 131.898793 90.816841 
L 132.715328 98.934952 
L 133.531864 109.853818 
L 134.348399 150.677142 
L 135.981471 188.25473 
L 136.798006 209.813688 
L 137.614542 198.557063 
L 139.247613 151.865902 
L 140.064149 155.724393 
L 140.880684 192.311485 
L 141.69722 188.055741 
L 142.513755 199.614293 
L 143.330291 206.549425 
L 144.146826 216.758505 
L 144.963362 220.867954 
L 145.779898 223.333623 
L 146.596433 208.685025 
L 147.412969 185.783865 
L 148.229504 202.28317 
L 149.04604 208.150751 
L 149.862575 203.607301 
L 150.679111 184.753228 
L 151.495647 173.440785 
L 152.312182 144.477322 
L 153.945253 107.3988 
L 154.761789 110.900131 
L 155.578324 98.888931 
L 156.39486 101.762208 
L 157.211396 107.518176 
L 158.027931 110.971756 
L 158.844467 143.283903 
L 159.661002 156.623191 
L 160.477538 164.626764 
L 161.294074 169.428907 
L 162.110609 154.166196 
L 162.927145 173.232566 
L 163.74368 148.384387 
L 164.560216 139.523479 
L 165.376751 120.094936 
L 166.193287 112.469812 
L 167.009823 87.734739 
L 168.642894 59.957067 
L 169.459429 52.19509 
L 170.275965 47.537904 
L 171.0925 44.743592 
L 171.909036 43.067005 
L 172.725572 42.061053 
L 173.542107 47.505482 
L 174.358643 58.836137 
L 175.175178 51.522532 
L 175.991714 69.310372 
L 176.808249 57.807073 
L 177.624785 50.905094 
L 178.441321 46.763906 
L 179.257856 44.279193 
L 180.074392 46.820368 
L 180.890927 104.79307 
L 182.523999 209.234066 
L 183.340534 242.561289 
L 184.15707 262.557624 
L 184.973605 274.555424 
L 185.790141 281.754105 
L 186.606676 286.073313 
L 187.423212 288.664838 
L 188.239748 290.219753 
L 189.056283 291.152702 
L 189.872819 287.680471 
L 190.689354 289.629133 
L 191.50589 286.76633 
L 192.322425 283.032648 
L 193.138961 262.648439 
L 193.955497 272.593914 
L 194.772032 280.577198 
L 195.588568 285.367169 
L 196.405103 288.241151 
L 197.221639 287.949541 
L 198.85471 182.837597 
L 199.671246 148.099411 
L 201.304317 118.379549 
L 202.120852 115.472576 
L 203.753924 107.440288 
L 204.570459 112.941022 
L 205.386995 110.193462 
L 206.20353 120.640927 
L 207.020066 128.925403 
L 207.836601 119.784091 
L 208.653137 122.363302 
L 209.469673 113.830832 
L 210.286208 112.743346 
L 211.102744 120.154859 
L 211.919279 122.585763 
L 212.735815 111.94831 
L 213.55235 121.693836 
L 214.368886 125.525153 
L 215.185422 117.74394 
L 216.001957 123.155216 
L 216.818493 122.369979 
L 217.635028 103.754836 
L 218.451564 100.649754 
L 219.2681 110.8827 
L 220.084635 110.974467 
L 221.717706 139.689771 
L 224.167313 83.738655 
L 224.983849 74.528041 
L 225.800384 62.953673 
L 227.433455 49.826281 
L 228.249991 48.132616 
L 229.066526 47.116418 
L 229.883062 46.506698 
L 230.699598 44.124869 
L 231.516133 42.695771 
L 232.332669 41.838312 
L 233.149204 41.323837 
L 233.96574 45.047154 
L 234.782275 55.345143 
L 235.598811 55.475936 
L 236.415347 49.506411 
L 237.231882 45.924697 
L 238.048418 43.775668 
L 238.864953 44.502249 
L 239.681489 46.954201 
L 240.498025 46.409369 
L 241.31456 44.066471 
L 242.131096 44.67673 
L 242.947631 45.042886 
L 243.764167 57.35858 
L 244.580702 74.827999 
L 246.213774 145.62744 
L 247.030309 145.933316 
L 247.846845 162.244841 
L 248.66338 163.967754 
L 250.296451 114.818549 
L 251.112987 99.223978 
L 251.929523 79.787239 
L 252.746058 68.125195 
L 253.562594 75.239968 
L 254.379129 103.700832 
L 255.195665 118.761347 
L 256.0122 172.149658 
L 256.828736 214.262645 
L 257.645272 241.546437 
L 258.461807 257.916712 
L 259.278343 271.770877 
L 260.094878 276.051377 
L 260.911414 274.587676 
L 261.72795 275.725456 
L 262.544485 272.376123 
L 263.361021 280.446524 
L 264.177556 277.224765 
L 264.994092 279.323709 
L 265.810627 278.567075 
L 266.627163 280.129095 
L 267.443699 281.066307 
L 268.260234 279.612634 
L 269.07677 282.772431 
L 269.893305 280.636309 
L 270.709841 283.386635 
L 271.526376 287.052831 
L 272.342912 287.236549 
L 273.159448 289.362779 
L 273.975983 290.638518 
L 274.792519 289.387961 
L 275.609054 290.653626 
L 276.42559 291.413026 
L 277.242125 291.868665 
L 278.875197 292.30608 
L 281.324803 292.498979 
L 287.040552 292.550637 
L 300.105122 292.552125 
L 300.921657 290.536125 
L 301.738193 291.342525 
L 302.554728 289.810365 
L 303.371264 290.907069 
L 304.1878 291.565091 
L 305.004335 289.943905 
L 305.820871 286.955193 
L 306.637406 289.193966 
L 307.453942 288.52123 
L 308.270477 284.085588 
L 309.087013 283.440203 
L 309.903549 287.084972 
L 310.720084 283.223833 
L 311.53662 268.811149 
L 312.353155 270.24354 
L 313.986226 236.540235 
L 314.802762 224.672991 
L 315.619298 217.552644 
L 316.435833 176.992438 
L 317.252369 142.576311 
L 318.068904 123.942639 
L 318.88544 108.730434 
L 320.518511 69.934715 
L 321.335047 62.213681 
L 323.784653 47.89214 
L 324.601189 44.956134 
L 325.417725 43.19453 
L 326.23426 42.137568 
L 327.050796 43.519389 
L 327.867331 42.332483 
L 328.683867 41.62034 
L 329.500402 41.193054 
L 331.133474 40.782859 
L 332.766545 40.635189 
L 333.58308 42.617961 
L 334.399616 43.807625 
L 335.216151 44.521423 
L 336.032687 42.933703 
L 336.849223 41.981072 
L 337.665758 41.409493 
L 338.482294 43.082544 
L 339.298829 42.070376 
L 340.115365 43.479073 
L 340.9319 42.308294 
L 341.748436 41.605826 
L 342.564972 41.184345 
L 344.198043 40.779724 
L 345.014578 40.688684 
L 345.831114 44.666063 
L 346.64765 45.036485 
L 348.280721 45.392091 
L 349.913792 53.987311 
L 351.546863 71.999992 
L 352.363399 67.484843 
L 353.179934 58.727754 
L 353.99647 69.601503 
L 354.813005 66.04575 
L 356.446076 77.550632 
L 357.262612 68.799229 
L 358.079148 65.564386 
L 359.712219 57.217341 
L 360.528754 56.599255 
L 361.34529 50.180403 
L 362.161825 46.329091 
L 362.978361 46.034303 
L 363.794897 49.889432 
L 364.611432 52.202509 
L 365.427968 55.606354 
L 366.244503 55.632662 
L 367.061039 53.632449 
L 367.877575 54.44832 
L 368.69411 56.95384 
L 369.510646 60.473156 
L 370.327181 52.504744 
L 371.143717 51.755698 
L 371.960252 49.290267 
L 372.776788 45.79501 
L 373.593324 43.697856 
L 374.409859 42.439563 
L 375.226395 47.732588 
L 376.04293 67.036406 
L 376.859466 58.458691 
L 377.676001 55.328067 
L 378.492537 53.449692 
L 379.309073 50.306663 
L 380.125608 46.404848 
L 380.942144 44.063758 
L 381.758679 46.691107 
L 382.575215 50.283514 
L 383.391751 48.406956 
L 384.208286 47.281022 
L 385.024822 44.589463 
L 385.841357 42.974528 
L 386.657893 42.005566 
L 387.474428 45.456192 
L 388.290964 43.494565 
L 389.1075 46.349591 
L 389.924035 44.030604 
L 390.740571 42.639212 
L 391.557106 41.804377 
L 392.373642 41.303476 
L 393.190177 41.002936 
L 394.006713 40.822611 
L 394.823249 42.730415 
L 395.639784 41.859099 
L 396.45632 41.336309 
L 397.272855 41.022635 
L 398.905926 40.721508 
L 401.355533 40.588711 
L 408.704353 40.552493 
L 409.520889 42.568344 
L 410.337425 43.777854 
L 411.15396 46.519564 
L 411.970496 44.132588 
L 412.787031 44.716401 
L 413.603567 45.066688 
L 414.420102 45.276861 
L 415.236638 43.386966 
L 416.053174 44.269028 
L 416.869709 42.782266 
L 417.686245 41.89021 
L 418.50278 41.354976 
L 419.319316 41.033835 
L 420.135851 46.889151 
L 420.952387 44.354341 
L 421.768923 42.833454 
L 422.585458 41.920922 
L 423.401994 41.373403 
L 424.218529 43.06089 
L 425.035065 42.057384 
L 425.851601 41.45528 
L 426.668136 41.094018 
L 428.301207 40.747206 
L 429.117743 42.685172 
L 429.934278 41.831953 
L 430.750814 41.320021 
L 431.56735 41.012863 
L 432.383885 40.828567 
L 433.200421 44.749992 
L 434.016956 45.086843 
L 434.833492 43.272956 
L 435.650027 44.200621 
L 436.466563 42.741223 
L 437.283099 41.865583 
L 438.099634 41.3402 
L 438.91617 41.02497 
L 440.549241 40.722349 
L 442.998848 40.588893 
L 451.164203 40.552347 
L 460.96263 40.552125 
L 461.779166 42.568123 
L 462.595701 41.761724 
L 463.412237 41.277884 
L 465.045308 40.813398 
L 466.678379 40.646183 
L 467.494915 42.624558 
L 468.311451 41.795584 
L 469.127986 45.330203 
L 469.944522 47.450974 
L 470.761057 44.691434 
L 471.577593 49.08371 
L 472.394128 47.687074 
L 473.210664 44.833094 
L 474.0272 43.120706 
L 474.843735 42.093274 
L 475.660271 41.476814 
L 476.476806 41.106938 
L 478.109877 40.751857 
L 480.559484 40.595267 
L 483.009091 40.561443 
L 483.009091 40.561443 
" clip-path="url(#p09716cb85a)" style="fill: none; stroke: #ff7f0e; stroke-width: 1.5; stroke-linecap: square"/>
   </g>
   <g id="line2d_27">
    <path d="M 77.190909 292.552125 
L 483.009091 292.552125 
L 483.009091 292.552125 
" clip-path="url(#p09716cb85a)" style="fill: none; stroke: #2ca02c; stroke-width: 1.5; stroke-linecap: square"/>
   </g>
   <g id="line2d_28">
    <path d="M 77.190909 292.552125 
L 78.007445 290.536125 
L 78.82398 287.310525 
L 79.640516 281.343165 
L 80.457051 281.794749 
L 81.273587 286.0977 
L 82.090123 284.64747 
L 82.906658 281.761332 
L 83.723194 286.077649 
L 84.539729 282.61944 
L 85.356265 280.544514 
L 86.989336 270.085385 
L 87.805872 268.992081 
L 88.622407 258.256098 
L 89.438943 265.926509 
L 90.255478 264.480756 
L 91.072014 267.645304 
L 91.888549 269.544032 
L 92.705085 262.61927 
L 93.521621 264.512412 
L 94.338156 259.600297 
L 95.154692 266.733029 
L 95.971227 260.932667 
L 96.787763 249.388451 
L 97.604299 260.605921 
L 98.420834 265.320403 
L 99.23737 272.181092 
L 100.870441 263.848953 
L 101.686976 267.266222 
L 102.503512 265.284583 
L 103.320048 266.1116 
L 104.136583 270.63981 
L 104.953119 263.276736 
L 105.769654 258.858892 
L 106.58619 250.160185 
L 107.402725 259.052961 
L 108.219261 266.404627 
L 109.035797 266.783626 
L 109.852332 273.059026 
L 111.485403 255.697809 
L 112.301939 254.311536 
L 113.118474 253.479772 
L 113.93501 250.964712 
L 114.751546 253.487677 
L 115.568081 255.001456 
L 116.384617 251.877723 
L 117.201152 258.067484 
L 118.017688 257.74934 
L 118.834224 261.590454 
L 119.650759 267.927122 
L 120.467295 269.713124 
L 121.28383 268.768724 
L 122.100366 252.074085 
L 122.916901 260.201301 
L 123.733437 257.013631 
L 124.549973 245.02103 
L 125.366508 243.873467 
L 126.183044 241.168931 
L 126.999579 243.578208 
L 127.816115 234.943774 
L 128.63265 235.811115 
L 129.449186 242.379519 
L 130.265722 250.352562 
L 131.082257 255.136387 
L 131.898793 247.926682 
L 132.715328 239.56886 
L 133.531864 234.554167 
L 134.348399 225.497351 
L 135.164935 218.04726 
L 135.981471 219.625206 
L 136.798006 224.603974 
L 137.614542 219.527235 
L 138.431077 222.529192 
L 139.247613 214.250364 
L 140.064149 207.267069 
L 140.880684 213.157091 
L 141.69722 220.723105 
L 142.513755 233.326713 
L 143.330291 232.824879 
L 144.963362 249.277517 
L 145.779898 254.49136 
L 146.596433 263.667666 
L 147.412969 253.04545 
L 148.229504 254.73612 
L 149.04604 259.782522 
L 149.862575 262.810363 
L 150.679111 252.531068 
L 151.495647 238.299489 
L 152.312182 229.760542 
L 153.128718 240.765175 
L 153.945253 235.271956 
L 154.761789 236.008024 
L 155.578324 240.481663 
L 156.39486 249.213848 
L 157.211396 240.34116 
L 158.027931 243.081545 
L 158.844467 244.725776 
L 159.661002 243.696315 
L 160.477538 226.950638 
L 161.294074 231.015233 
L 162.110609 229.421991 
L 162.927145 232.498044 
L 163.74368 238.375676 
L 164.560216 225.774255 
L 165.376751 232.325403 
L 166.193287 236.256091 
L 167.009823 242.646505 
L 168.642894 259.264502 
L 169.459429 260.483552 
L 170.275965 245.086981 
L 171.0925 245.929038 
L 171.909036 248.450273 
L 173.542107 235.952259 
L 174.358643 218.272205 
L 175.175178 217.744172 
L 175.991714 203.315353 
L 176.808249 206.754063 
L 177.624785 224.945288 
L 178.441321 221.748021 
L 180.074392 221.904247 
L 180.890927 209.843398 
L 181.707463 210.670889 
L 182.523999 233.343383 
L 183.340534 242.91488 
L 184.15707 244.625777 
L 184.973605 249.684316 
L 185.790141 244.65544 
L 186.606676 243.654114 
L 187.423212 245.069317 
L 188.239748 239.870441 
L 189.056283 242.799114 
L 189.872819 240.524318 
L 190.689354 237.143442 
L 191.50589 229.066914 
L 192.322425 232.284998 
L 193.138961 216.071848 
L 193.955497 210.375957 
L 194.772032 208.974424 
L 195.588568 204.101505 
L 196.405103 213.273754 
L 197.221639 230.873102 
L 198.038175 225.30471 
L 198.85471 223.979676 
L 199.671246 221.168654 
L 200.487781 233.594043 
L 201.304317 237.017275 
L 202.120852 226.975216 
L 202.937388 214.90198 
L 203.753924 213.706039 
L 204.570459 217.020473 
L 205.386995 225.057134 
L 206.20353 241.97513 
L 207.020066 238.013929 
L 207.836601 227.573208 
L 208.653137 223.324773 
L 210.286208 237.390277 
L 211.102744 241.311016 
L 211.919279 247.695459 
L 212.735815 245.478125 
L 213.55235 256.243725 
L 214.368886 262.703085 
L 215.185422 270.610701 
L 216.001957 273.339271 
L 216.818493 270.944412 
L 217.635028 257.411498 
L 218.451564 247.275749 
L 219.2681 255.306299 
L 220.084635 258.10863 
L 220.901171 267.854028 
L 221.717706 267.653267 
L 223.350777 275.927736 
L 224.167313 276.529492 
L 224.983849 272.858545 
L 225.800384 270.655977 
L 226.61692 267.318436 
L 227.433455 273.379912 
L 228.249991 270.968797 
L 229.066526 273.554128 
L 230.699598 284.503246 
L 231.516133 287.722798 
L 232.332669 287.638529 
L 233.149204 285.571967 
L 233.96574 286.34803 
L 234.782275 282.781668 
L 235.598811 268.54585 
L 236.415347 270.08436 
L 237.231882 277.055466 
L 238.048418 265.110129 
L 238.864953 272.054927 
L 239.681489 260.093806 
L 240.498025 267.029134 
L 241.31456 261.110331 
L 242.131096 273.687048 
L 242.947631 279.217079 
L 243.764167 280.519098 
L 244.580702 279.284309 
L 245.397238 284.591435 
L 246.213774 285.759711 
L 247.030309 286.460677 
L 247.846845 278.817256 
L 248.66338 278.263204 
L 249.479916 277.930772 
L 250.296451 279.747313 
L 251.112987 282.853238 
L 251.929523 282.700793 
L 252.746058 274.545326 
L 253.562594 279.732046 
L 254.379129 268.732078 
L 255.195665 262.132097 
L 256.0122 262.204108 
L 256.828736 252.167315 
L 257.645272 252.193239 
L 258.461807 260.272794 
L 259.278343 261.088527 
L 260.094878 269.641966 
L 260.911414 252.598031 
L 261.72795 248.419668 
L 263.361021 264.56844 
L 264.177556 265.681914 
L 264.994092 264.333999 
L 265.810627 265.541249 
L 266.627163 274.329599 
L 267.443699 275.57061 
L 268.260234 280.347216 
L 269.07677 281.19718 
L 269.893305 281.707158 
L 270.709841 282.013145 
L 271.526376 284.212737 
L 272.342912 283.516492 
L 273.159448 283.098745 
L 273.975983 270.752098 
L 274.792519 269.392108 
L 275.609054 274.624115 
L 276.42559 265.667319 
L 277.242125 272.389242 
L 278.058661 280.454395 
L 278.875197 283.277487 
L 279.691732 284.971342 
L 280.508268 288.003655 
L 281.324803 265.631044 
L 282.957875 246.572536 
L 283.77441 260.932372 
L 284.590946 235.276273 
L 285.407481 236.010614 
L 286.224017 222.339217 
L 287.040552 216.15238 
L 287.857088 212.440277 
L 288.673624 212.229017 
L 289.490159 214.118259 
L 290.306695 223.315805 
L 291.12323 234.882334 
L 291.939766 235.77425 
L 292.756301 238.3254 
L 293.572837 241.872089 
L 294.389373 246.016104 
L 295.205908 244.470512 
L 296.022444 243.543157 
L 296.838979 259.114744 
L 297.655515 268.457697 
L 298.47205 272.047468 
L 299.288586 278.233331 
L 300.105122 279.928849 
L 300.921657 282.962159 
L 301.738193 282.766146 
L 302.554728 284.664537 
L 303.371264 285.803572 
L 304.1878 284.470994 
L 305.004335 283.671446 
L 305.820871 283.191718 
L 306.637406 280.887881 
L 307.453942 277.489579 
L 308.270477 279.482597 
L 309.087013 282.694408 
L 309.903549 282.605495 
L 310.720084 280.536147 
L 311.53662 283.326538 
L 312.353155 285.000773 
L 313.169691 286.005314 
L 313.986226 284.592038 
L 314.802762 281.728073 
L 315.619298 280.009694 
L 316.435833 278.978667 
L 317.252369 270.29605 
L 318.068904 271.13448 
L 318.88544 265.589538 
L 319.701975 262.262573 
L 320.518511 266.314394 
L 321.335047 268.745486 
L 322.151582 268.188142 
L 322.968118 263.821735 
L 323.784653 263.217891 
L 324.601189 266.887585 
L 325.417725 267.073401 
L 326.23426 269.200891 
L 327.050796 272.493384 
L 327.867331 278.500881 
L 328.683867 270.009378 
L 329.500402 262.898477 
L 330.316938 262.663937 
L 331.133474 258.491212 
L 331.950009 268.083577 
L 332.766545 265.774997 
L 333.58308 264.389848 
L 334.399616 267.590759 
L 335.216151 265.479306 
L 336.849223 278.37071 
L 337.665758 269.931276 
L 338.482294 274.947616 
L 339.298829 277.957419 
L 340.115365 277.747302 
L 340.9319 269.557231 
L 341.748436 274.723189 
L 342.564972 275.806763 
L 343.381507 270.408908 
L 344.198043 273.218195 
L 345.014578 272.887767 
L 345.831114 274.70551 
L 346.64765 273.780156 
L 347.464185 275.240944 
L 348.280721 276.117417 
L 349.097256 276.6433 
L 349.913792 274.94283 
L 350.730327 277.954548 
L 351.546863 279.761579 
L 353.179934 266.577929 
L 353.99647 262.855607 
L 354.813005 270.702214 
L 355.629541 267.346179 
L 356.446076 267.348557 
L 357.262612 263.317984 
L 358.079148 262.915641 
L 358.895683 250.578235 
L 359.712219 245.191791 
L 360.528754 248.007925 
L 361.34529 235.585604 
L 362.161825 236.196212 
L 362.978361 248.658577 
L 363.794897 246.055996 
L 364.611432 260.622448 
L 365.427968 269.362319 
L 366.244503 276.622241 
L 367.877575 285.607767 
L 368.69411 286.36951 
L 369.510646 288.842556 
L 370.327181 288.310384 
L 371.143717 281.94308 
L 371.960252 284.170698 
L 372.776788 287.523269 
L 374.409859 287.516137 
L 375.226395 275.418532 
L 376.04293 266.14397 
L 376.859466 274.691232 
L 377.676001 271.755589 
L 378.492537 263.946204 
L 380.125608 277.818793 
L 380.942144 283.712126 
L 381.758679 285.232126 
L 382.575215 284.128125 
L 383.391751 287.497725 
L 385.024822 287.506941 
L 385.841357 285.493015 
L 386.657893 280.252659 
L 387.474428 283.156445 
L 388.290964 286.914717 
L 389.1075 283.12168 
L 389.924035 284.877858 
L 390.740571 283.915565 
L 391.557106 287.370189 
L 392.373642 285.410964 
L 393.190177 284.235428 
L 394.006713 287.562107 
L 394.823249 289.558114 
L 395.639784 288.739719 
L 396.45632 282.200681 
L 397.272855 280.293259 
L 398.905926 247.818933 
L 399.722462 265.71221 
L 400.538998 276.448176 
L 401.355533 278.857756 
L 402.172069 284.335503 
L 402.988604 285.606152 
L 403.80514 282.336541 
L 404.621676 278.358775 
L 405.438211 275.972115 
L 407.071282 265.213722 
L 407.887818 253.973083 
L 408.704353 261.3407 
L 409.520889 257.69727 
L 410.337425 255.511213 
L 411.15396 266.295578 
L 412.787031 278.664568 
L 413.603567 278.171591 
L 414.420102 275.859805 
L 415.236638 276.488733 
L 416.053174 272.83409 
L 416.869709 278.705304 
L 417.686245 282.228032 
L 418.50278 286.357669 
L 419.319316 286.819452 
L 420.135851 285.080521 
L 420.952387 282.021163 
L 421.768923 280.185548 
L 423.401994 266.730557 
L 424.218529 268.995185 
L 425.035065 258.25796 
L 425.851601 267.943626 
L 426.668136 263.675026 
L 427.484672 261.113865 
L 428.301207 273.689169 
L 429.117743 265.106352 
L 429.934278 274.068661 
L 430.750814 269.366047 
L 431.56735 272.592478 
L 432.383885 280.576337 
L 433.200421 285.366652 
L 434.016956 284.208841 
L 434.833492 283.514155 
L 435.650027 287.129343 
L 436.466563 283.250456 
L 437.283099 284.955124 
L 438.099634 285.977924 
L 438.91617 288.607605 
L 439.732705 290.185413 
L 440.549241 289.116098 
L 441.365776 290.490509 
L 442.182312 291.315155 
L 442.998848 291.809943 
L 443.815383 292.106816 
L 444.631919 290.26894 
L 445.448454 291.182214 
L 446.26499 291.730178 
L 447.081526 290.042957 
L 447.898061 287.014624 
L 448.714597 285.197625 
L 449.531132 288.139425 
L 450.347668 289.904505 
L 451.164203 288.947553 
L 451.980739 290.389382 
L 452.797275 291.254479 
L 453.61381 289.757537 
L 454.430346 288.859373 
L 455.246881 290.336474 
L 456.063417 291.222734 
L 456.879952 287.722491 
L 457.696488 289.654344 
L 458.513024 290.813457 
L 459.329559 291.508924 
L 460.146095 291.926204 
L 460.96263 292.176573 
L 461.779166 290.310794 
L 462.595701 287.175326 
L 463.412237 285.294046 
L 464.228773 276.101278 
L 465.045308 258.489617 
L 465.861844 266.06662 
L 466.678379 276.660822 
L 467.494915 283.017343 
L 468.311451 286.831256 
L 469.944522 287.267012 
L 470.761057 289.381057 
L 471.577593 290.649484 
L 472.394128 289.394541 
L 473.210664 290.657574 
L 474.0272 291.415395 
L 474.843735 291.870087 
L 475.660271 292.142902 
L 476.476806 290.290591 
L 477.293342 291.195205 
L 478.109877 289.721973 
L 478.926413 288.838034 
L 479.742949 270.16367 
L 482.192555 285.055099 
L 483.009091 282.005909 
L 483.009091 282.005909 
" clip-path="url(#p09716cb85a)" style="fill: none; stroke: #d62728; stroke-width: 1.5; stroke-linecap: square"/>
   </g>
   <g id="line2d_29">
    <path d="M 77.190909 292.552125 
L 483.009091 292.552125 
L 483.009091 292.552125 
" clip-path="url(#p09716cb85a)" style="fill: none; stroke: #9467bd; stroke-width: 1.5; stroke-linecap: square"/>
   </g>
   <g id="patch_3">
    <path d="M 56.9 305.152125 
L 56.9 27.952125 
" style="fill: none; stroke: #000000; stroke-width: 0.8; stroke-linejoin: miter; stroke-linecap: square"/>
   </g>
   <g id="patch_4">
    <path d="M 503.3 305.152125 
L 503.3 27.952125 
" style="fill: none; stroke: #000000; stroke-width: 0.8; stroke-linejoin: miter; stroke-linecap: square"/>
   </g>
   <g id="patch_5">
    <path d="M 56.9 305.152125 
L 503.3 305.152125 
" style="fill: none; stroke: #000000; stroke-width: 0.8; stroke-linejoin: miter; stroke-linecap: square"/>
   </g>
   <g id="patch_6">
    <path d="M 56.9 27.952125 
L 503.3 27.952125 
" style="fill: none; stroke: #000000; stroke-width: 0.8; stroke-linejoin: miter; stroke-linecap: square"/>
   </g>
   <g id="text_16">
    <!-- ML10 Meta Testing -->
    <g transform="translate(193.104313 21.952125)scale(0.216 -0.216)">
     <defs>
      <path id="STIXGeneral-Regular-4d" d="M 5530 0 
L 3738 0 
L 3738 122 
Q 4115 147 4214 265 
Q 4314 384 4314 787 
L 4314 3661 
L 2682 0 
L 2592 0 
L 979 3514 
L 979 966 
Q 979 448 1088 294 
Q 1197 141 1574 122 
L 1574 0 
L 77 0 
L 77 122 
Q 358 141 480 205 
Q 602 269 650 432 
Q 698 595 698 966 
L 698 3514 
Q 698 3878 589 3984 
Q 480 4090 90 4115 
L 90 4237 
L 1357 4237 
L 2835 1024 
L 4250 4237 
L 5523 4237 
L 5523 4115 
Q 5178 4109 5072 3993 
Q 4966 3878 4966 3520 
L 4966 717 
Q 4966 378 5072 262 
Q 5178 147 5530 122 
L 5530 0 
z
" transform="scale(0.015625)"/>
      <path id="STIXGeneral-Regular-4c" d="M 3827 1114 
L 3520 0 
L 77 0 
L 77 122 
Q 429 141 531 256 
Q 634 371 634 736 
L 634 3494 
Q 634 3872 541 3981 
Q 448 4090 77 4115 
L 77 4237 
L 1888 4237 
L 1888 4115 
Q 1498 4090 1392 3984 
Q 1286 3878 1286 3507 
L 1286 538 
Q 1286 358 1398 304 
Q 1510 250 1862 250 
L 2310 250 
Q 3085 250 3392 640 
Q 3520 813 3661 1114 
L 3827 1114 
z
" transform="scale(0.015625)"/>
     </defs>
     <use xlink:href="#STIXGeneral-Regular-4d"/>
     <use xlink:href="#STIXGeneral-Regular-4c" x="88.899994"/>
     <use xlink:href="#STIXGeneral-Regular-31" x="149.999985"/>
     <use xlink:href="#STIXGeneral-Regular-30" x="199.999969"/>
     <use xlink:href="#STIXGeneral-Regular-20" x="249.999954"/>
     <use xlink:href="#STIXGeneral-Regular-4d" x="274.999939"/>
     <use xlink:href="#STIXGeneral-Regular-65" x="363.899933"/>
     <use xlink:href="#STIXGeneral-Regular-74" x="408.299927"/>
     <use xlink:href="#STIXGeneral-Regular-61" x="436.099915"/>
     <use xlink:href="#STIXGeneral-Regular-20" x="480.499908"/>
     <use xlink:href="#STIXGeneral-Regular-54" x="505.499893"/>
     <use xlink:href="#STIXGeneral-Regular-65" x="566.599884"/>
     <use xlink:href="#STIXGeneral-Regular-73" x="610.999878"/>
     <use xlink:href="#STIXGeneral-Regular-74" x="649.899872"/>
     <use xlink:href="#STIXGeneral-Regular-69" x="677.69986"/>
     <use xlink:href="#STIXGeneral-Regular-6e" x="705.499847"/>
     <use xlink:href="#STIXGeneral-Regular-67" x="755.499832"/>
    </g>
   </g>
   <g id="legend_1">
    <g id="patch_7">
     <path d="M 387.294687 205.052125 
L 497.7 205.052125 
Q 500.5 205.052125 500.5 202.252125 
L 500.5 130.852125 
Q 500.5 128.052125 497.7 128.052125 
L 387.294687 128.052125 
Q 384.494687 128.052125 384.494687 130.852125 
L 384.494687 202.252125 
Q 384.494687 205.052125 387.294687 205.052125 
z
" style="fill: #ffffff; opacity: 0.8; stroke: #cccccc; stroke-linejoin: miter"/>
    </g>
    <g id="line2d_30">
     <path d="M 388.694687 137.963687 
L 395.694687 137.963687 
L 402.694687 137.963687 
" style="fill: none; stroke: #1f77b4; stroke-width: 1.5; stroke-linecap: square"/>
    </g>
    <g id="text_17">
     <!-- drawer-open-v2 -->
     <g transform="translate(406.894687 141.813687)scale(0.14 -0.14)">
      <defs>
       <path id="STIXGeneral-Regular-64" d="M 3142 269 
L 2202 -64 
L 2176 -45 
L 2176 365 
Q 1869 -64 1357 -64 
Q 826 -64 499 317 
Q 173 698 173 1312 
Q 173 1990 563 2467 
Q 954 2944 1504 2944 
Q 1850 2944 2176 2669 
L 2176 3667 
Q 2176 3866 2118 3930 
Q 2061 3994 1882 3994 
Q 1792 3994 1741 3987 
L 1741 4090 
Q 2323 4243 2682 4371 
L 2714 4358 
L 2714 730 
Q 2714 506 2768 435 
Q 2822 365 2995 365 
Q 3034 365 3142 371 
L 3142 269 
z
M 2176 653 
L 2176 2125 
Q 2176 2381 1981 2573 
Q 1786 2765 1523 2765 
Q 1158 2765 940 2438 
Q 723 2112 723 1568 
Q 723 979 963 624 
Q 1203 269 1606 269 
Q 1907 269 2080 474 
Q 2176 582 2176 653 
z
" transform="scale(0.015625)"/>
       <path id="STIXGeneral-Regular-77" d="M 4442 2880 
L 4442 2784 
Q 4346 2752 4301 2691 
Q 4256 2630 4179 2438 
L 3296 224 
Q 3168 -90 3117 -90 
Q 3085 -90 3062 -48 
Q 3040 -6 2963 186 
L 2381 1696 
L 1664 160 
Q 1549 -90 1504 -90 
Q 1446 -90 1338 192 
L 474 2381 
Q 378 2630 314 2700 
Q 250 2771 134 2784 
L 134 2880 
L 1286 2880 
L 1286 2784 
Q 1120 2765 1056 2720 
Q 992 2675 992 2573 
Q 992 2477 1030 2381 
L 1664 710 
L 2246 1984 
L 2118 2342 
Q 2029 2598 1942 2681 
Q 1856 2765 1677 2784 
L 1677 2880 
L 2976 2880 
L 2976 2784 
Q 2752 2752 2678 2707 
Q 2605 2662 2605 2560 
Q 2605 2458 2714 2176 
L 3251 742 
L 3827 2163 
Q 3936 2432 3936 2592 
Q 3936 2669 3875 2710 
Q 3814 2752 3654 2784 
L 3654 2880 
L 4442 2880 
z
" transform="scale(0.015625)"/>
       <path id="STIXGeneral-Regular-2d" d="M 1824 1242 
L 250 1242 
L 250 1645 
L 1824 1645 
L 1824 1242 
z
" transform="scale(0.015625)"/>
      </defs>
      <use xlink:href="#STIXGeneral-Regular-64"/>
      <use xlink:href="#STIXGeneral-Regular-72" x="49.999985"/>
      <use xlink:href="#STIXGeneral-Regular-61" x="83.299973"/>
      <use xlink:href="#STIXGeneral-Regular-77" x="127.699966"/>
      <use xlink:href="#STIXGeneral-Regular-65" x="199.899948"/>
      <use xlink:href="#STIXGeneral-Regular-72" x="244.299942"/>
      <use xlink:href="#STIXGeneral-Regular-2d" x="277.59993"/>
      <use xlink:href="#STIXGeneral-Regular-6f" x="310.899918"/>
      <use xlink:href="#STIXGeneral-Regular-70" x="360.899902"/>
      <use xlink:href="#STIXGeneral-Regular-65" x="410.899887"/>
      <use xlink:href="#STIXGeneral-Regular-6e" x="455.299881"/>
      <use xlink:href="#STIXGeneral-Regular-2d" x="505.299866"/>
      <use xlink:href="#STIXGeneral-Regular-76" x="538.599854"/>
      <use xlink:href="#STIXGeneral-Regular-32" x="588.599838"/>
     </g>
    </g>
    <g id="line2d_31">
     <path d="M 388.694687 151.963687 
L 395.694687 151.963687 
L 402.694687 151.963687 
" style="fill: none; stroke: #ff7f0e; stroke-width: 1.5; stroke-linecap: square"/>
    </g>
    <g id="text_18">
     <!-- door-close-v2 -->
     <g transform="translate(406.894687 155.813687)scale(0.14 -0.14)">
      <defs>
       <path id="STIXGeneral-Regular-6c" d="M 1645 0 
L 134 0 
L 134 96 
Q 435 122 531 221 
Q 627 320 627 589 
L 627 3590 
Q 627 3821 569 3910 
Q 512 4000 358 4000 
Q 224 4000 122 3987 
L 122 4090 
Q 730 4237 1133 4371 
L 1165 4346 
L 1165 557 
Q 1165 288 1254 201 
Q 1344 115 1645 96 
L 1645 0 
z
" transform="scale(0.015625)"/>
      </defs>
      <use xlink:href="#STIXGeneral-Regular-64"/>
      <use xlink:href="#STIXGeneral-Regular-6f" x="49.999985"/>
      <use xlink:href="#STIXGeneral-Regular-6f" x="99.999969"/>
      <use xlink:href="#STIXGeneral-Regular-72" x="149.999954"/>
      <use xlink:href="#STIXGeneral-Regular-2d" x="183.299942"/>
      <use xlink:href="#STIXGeneral-Regular-63" x="216.59993"/>
      <use xlink:href="#STIXGeneral-Regular-6c" x="260.999924"/>
      <use xlink:href="#STIXGeneral-Regular-6f" x="288.799911"/>
      <use xlink:href="#STIXGeneral-Regular-73" x="338.799896"/>
      <use xlink:href="#STIXGeneral-Regular-65" x="377.69989"/>
      <use xlink:href="#STIXGeneral-Regular-2d" x="422.099884"/>
      <use xlink:href="#STIXGeneral-Regular-76" x="455.399872"/>
      <use xlink:href="#STIXGeneral-Regular-32" x="505.399857"/>
     </g>
    </g>
    <g id="line2d_32">
     <path d="M 388.694687 165.963687 
L 395.694687 165.963687 
L 402.694687 165.963687 
" style="fill: none; stroke: #2ca02c; stroke-width: 1.5; stroke-linecap: square"/>
    </g>
    <g id="text_19">
     <!-- shelf-place-v2 -->
     <g transform="translate(406.894687 169.813687)scale(0.14 -0.14)">
      <defs>
       <path id="STIXGeneral-Regular-68" d="M 3117 0 
L 1760 0 
L 1760 96 
Q 2042 128 2118 224 
Q 2195 320 2195 653 
L 2195 1920 
Q 2195 2598 1722 2598 
Q 1530 2598 1370 2508 
Q 1210 2419 1005 2195 
L 1005 653 
Q 1005 320 1081 224 
Q 1158 128 1440 96 
L 1440 0 
L 58 0 
L 58 96 
Q 333 134 400 224 
Q 467 314 467 653 
L 467 3667 
Q 467 3872 406 3933 
Q 346 3994 141 3994 
Q 83 3994 64 3987 
L 64 4090 
L 237 4141 
Q 730 4288 973 4371 
L 1005 4352 
L 1005 2406 
Q 1229 2694 1446 2819 
Q 1664 2944 1946 2944 
Q 2733 2944 2733 1926 
L 2733 653 
Q 2733 320 2793 233 
Q 2854 147 3117 96 
L 3117 0 
z
" transform="scale(0.015625)"/>
       <path id="STIXGeneral-Regular-66" d="M 134 2880 
L 659 2880 
Q 666 3264 710 3478 
Q 755 3693 883 3910 
Q 1152 4371 1786 4371 
Q 2074 4371 2262 4259 
Q 2451 4147 2451 3974 
Q 2451 3866 2374 3789 
Q 2298 3712 2182 3712 
Q 2029 3712 1894 3942 
Q 1741 4192 1555 4192 
Q 1197 4192 1197 3622 
L 1197 2880 
L 1978 2880 
L 1978 2675 
L 1197 2675 
L 1197 666 
Q 1197 307 1299 208 
Q 1402 109 1792 96 
L 1792 0 
L 128 0 
L 128 96 
Q 474 115 566 214 
Q 659 314 659 666 
L 659 2675 
L 134 2675 
L 134 2880 
z
" transform="scale(0.015625)"/>
      </defs>
      <use xlink:href="#STIXGeneral-Regular-73"/>
      <use xlink:href="#STIXGeneral-Regular-68" x="38.899994"/>
      <use xlink:href="#STIXGeneral-Regular-65" x="88.899979"/>
      <use xlink:href="#STIXGeneral-Regular-6c" x="133.299973"/>
      <use xlink:href="#STIXGeneral-Regular-66" x="161.09996"/>
      <use xlink:href="#STIXGeneral-Regular-2d" x="194.399948"/>
      <use xlink:href="#STIXGeneral-Regular-70" x="227.699936"/>
      <use xlink:href="#STIXGeneral-Regular-6c" x="277.699921"/>
      <use xlink:href="#STIXGeneral-Regular-61" x="305.499908"/>
      <use xlink:href="#STIXGeneral-Regular-63" x="349.899902"/>
      <use xlink:href="#STIXGeneral-Regular-65" x="394.299896"/>
      <use xlink:href="#STIXGeneral-Regular-2d" x="438.69989"/>
      <use xlink:href="#STIXGeneral-Regular-76" x="471.999878"/>
      <use xlink:href="#STIXGeneral-Regular-32" x="521.999863"/>
     </g>
    </g>
    <g id="line2d_33">
     <path d="M 388.694687 179.963687 
L 395.694687 179.963687 
L 402.694687 179.963687 
" style="fill: none; stroke: #d62728; stroke-width: 1.5; stroke-linecap: square"/>
    </g>
    <g id="text_20">
     <!-- sweep-into-v2 -->
     <g transform="translate(406.894687 183.813687)scale(0.14 -0.14)">
      <use xlink:href="#STIXGeneral-Regular-73"/>
      <use xlink:href="#STIXGeneral-Regular-77" x="38.899994"/>
      <use xlink:href="#STIXGeneral-Regular-65" x="111.099976"/>
      <use xlink:href="#STIXGeneral-Regular-65" x="155.499969"/>
      <use xlink:href="#STIXGeneral-Regular-70" x="199.899963"/>
      <use xlink:href="#STIXGeneral-Regular-2d" x="249.899948"/>
      <use xlink:href="#STIXGeneral-Regular-69" x="283.199936"/>
      <use xlink:href="#STIXGeneral-Regular-6e" x="310.999924"/>
      <use xlink:href="#STIXGeneral-Regular-74" x="360.999908"/>
      <use xlink:href="#STIXGeneral-Regular-6f" x="388.799896"/>
      <use xlink:href="#STIXGeneral-Regular-2d" x="438.799881"/>
      <use xlink:href="#STIXGeneral-Regular-76" x="472.099869"/>
      <use xlink:href="#STIXGeneral-Regular-32" x="522.099854"/>
     </g>
    </g>
    <g id="line2d_34">
     <path d="M 388.694687 193.963687 
L 395.694687 193.963687 
L 402.694687 193.963687 
" style="fill: none; stroke: #9467bd; stroke-width: 1.5; stroke-linecap: square"/>
    </g>
    <g id="text_21">
     <!-- lever-pull-v2 -->
     <g transform="translate(406.894687 197.813687)scale(0.14 -0.14)">
      <use xlink:href="#STIXGeneral-Regular-6c"/>
      <use xlink:href="#STIXGeneral-Regular-65" x="27.799988"/>
      <use xlink:href="#STIXGeneral-Regular-76" x="72.199982"/>
      <use xlink:href="#STIXGeneral-Regular-65" x="122.199966"/>
      <use xlink:href="#STIXGeneral-Regular-72" x="166.59996"/>
      <use xlink:href="#STIXGeneral-Regular-2d" x="199.899948"/>
      <use xlink:href="#STIXGeneral-Regular-70" x="233.199936"/>
      <use xlink:href="#STIXGeneral-Regular-75" x="283.199921"/>
      <use xlink:href="#STIXGeneral-Regular-6c" x="333.199905"/>
      <use xlink:href="#STIXGeneral-Regular-6c" x="360.999893"/>
      <use xlink:href="#STIXGeneral-Regular-2d" x="388.799881"/>
      <use xlink:href="#STIXGeneral-Regular-76" x="422.099869"/>
      <use xlink:href="#STIXGeneral-Regular-32" x="472.099854"/>
     </g>
    </g>
   </g>
  </g>
 </g>
 <defs>
  <clipPath id="p09716cb85a">
   <rect x="56.9" y="27.952125" width="446.4" height="277.2"/>
  </clipPath>
 </defs>
</svg>
