<?xml version="1.0" encoding="utf-8" standalone="no"?>
<!DOCTYPE svg PUBLIC "-//W3C//DTD SVG 1.1//EN"
  "http://www.w3.org/Graphics/SVG/1.1/DTD/svg11.dtd">
<svg xmlns:xlink="http://www.w3.org/1999/xlink" width="524pt" height="355.769pt" viewBox="0 0 524 355.769" xmlns="http://www.w3.org/2000/svg" version="1.1">
 <metadata>
  <rdf:RDF xmlns:dc="http://purl.org/dc/elements/1.1/" xmlns:cc="http://creativecommons.org/ns#" xmlns:rdf="http://www.w3.org/1999/02/22-rdf-syntax-ns#">
   <cc:Work>
    <dc:type rdf:resource="http://purl.org/dc/dcmitype/StillImage"/>
    <dc:date>2021-12-11T15:59:49.993357</dc:date>
    <dc:format>image/svg+xml</dc:format>
    <dc:creator>
     <cc:Agent>
      <dc:title>Matplotlib v3.5.0, https://matplotlib.org/</dc:title>
     </cc:Agent>
    </dc:creator>
   </cc:Work>
  </rdf:RDF>
 </metadata>
 <defs>
  <style type="text/css">*{stroke-linejoin: round; stroke-linecap: butt}</style>
 </defs>
 <g id="figure_1">
  <g id="patch_1">
   <path d="M 0 355.769 
L 524 355.769 
L 524 0 
L 0 0 
z
" style="fill: #ffffff"/>
  </g>
  <g id="axes_1">
   <g id="patch_2">
    <path d="M 70.4 305.152125 
L 516.8 305.152125 
L 516.8 27.952125 
L 70.4 27.952125 
z
" style="fill: #ffffff"/>
   </g>
   <g id="matplotlib.axis_1">
    <g id="xtick_1">
     <g id="line2d_1">
      <path d="M 89.874374 305.152125 
L 89.874374 27.952125 
" clip-path="url(#pf7192f023d)" style="fill: none; stroke: #b0b0b0; stroke-width: 0.8; stroke-linecap: square"/>
     </g>
     <g id="line2d_2">
      <defs>
       <path id="mc4f6929889" d="M 0 0 
L 0 3.5 
" style="stroke: #000000; stroke-width: 0.8"/>
      </defs>
      <g>
       <use xlink:href="#mc4f6929889" x="89.874374" y="305.152125" style="stroke: #000000; stroke-width: 0.8"/>
      </g>
     </g>
     <g id="text_1">
      <!-- 0.0 -->
      <g transform="translate(78.624374 324.445562)scale(0.18 -0.18)">
       <defs>
        <path id="STIXGeneral-Regular-30" d="M 3046 2112 
Q 3046 1683 2963 1302 
Q 2880 922 2717 602 
Q 2554 282 2266 96 
Q 1978 -90 1600 -90 
Q 1210 -90 915 108 
Q 621 307 461 640 
Q 301 973 227 1350 
Q 154 1728 154 2150 
Q 154 2746 301 3222 
Q 448 3699 790 4012 
Q 1133 4326 1626 4326 
Q 2253 4326 2649 3712 
Q 3046 3098 3046 2112 
z
M 2432 2080 
Q 2432 3091 2217 3625 
Q 2003 4160 1587 4160 
Q 1190 4160 979 3622 
Q 768 3085 768 2106 
Q 768 1120 979 598 
Q 1190 77 1600 77 
Q 2003 77 2217 598 
Q 2432 1120 2432 2080 
z
" transform="scale(0.015625)"/>
        <path id="STIXGeneral-Regular-2e" d="M 1158 275 
Q 1158 134 1052 32 
Q 947 -70 800 -70 
Q 653 -70 550 32 
Q 448 134 448 281 
Q 448 429 553 534 
Q 659 640 806 640 
Q 947 640 1052 531 
Q 1158 422 1158 275 
z
" transform="scale(0.015625)"/>
       </defs>
       <use xlink:href="#STIXGeneral-Regular-30"/>
       <use xlink:href="#STIXGeneral-Regular-2e" x="49.999985"/>
       <use xlink:href="#STIXGeneral-Regular-30" x="74.999969"/>
      </g>
     </g>
    </g>
    <g id="xtick_2">
     <g id="line2d_3">
      <path d="M 171.527931 305.152125 
L 171.527931 27.952125 
" clip-path="url(#pf7192f023d)" style="fill: none; stroke: #b0b0b0; stroke-width: 0.8; stroke-linecap: square"/>
     </g>
     <g id="line2d_4">
      <g>
       <use xlink:href="#mc4f6929889" x="171.527931" y="305.152125" style="stroke: #000000; stroke-width: 0.8"/>
      </g>
     </g>
     <g id="text_2">
      <!-- 0.2 -->
      <g transform="translate(160.277931 324.445562)scale(0.18 -0.18)">
       <defs>
        <path id="STIXGeneral-Regular-32" d="M 3034 877 
L 2688 0 
L 186 0 
L 186 77 
L 1325 1286 
Q 1773 1754 1965 2144 
Q 2157 2534 2157 2950 
Q 2157 3379 1920 3616 
Q 1683 3853 1267 3853 
Q 922 3853 720 3673 
Q 518 3494 326 3021 
L 192 3053 
Q 301 3648 630 3987 
Q 960 4326 1523 4326 
Q 2054 4326 2380 4006 
Q 2707 3686 2707 3200 
Q 2707 2477 1888 1613 
L 832 486 
L 2330 486 
Q 2541 486 2665 569 
Q 2790 653 2944 915 
L 3034 877 
z
" transform="scale(0.015625)"/>
       </defs>
       <use xlink:href="#STIXGeneral-Regular-30"/>
       <use xlink:href="#STIXGeneral-Regular-2e" x="49.999985"/>
       <use xlink:href="#STIXGeneral-Regular-32" x="74.999969"/>
      </g>
     </g>
    </g>
    <g id="xtick_3">
     <g id="line2d_5">
      <path d="M 253.181489 305.152125 
L 253.181489 27.952125 
" clip-path="url(#pf7192f023d)" style="fill: none; stroke: #b0b0b0; stroke-width: 0.8; stroke-linecap: square"/>
     </g>
     <g id="line2d_6">
      <g>
       <use xlink:href="#mc4f6929889" x="253.181489" y="305.152125" style="stroke: #000000; stroke-width: 0.8"/>
      </g>
     </g>
     <g id="text_3">
      <!-- 0.4 -->
      <g transform="translate(241.931489 324.445562)scale(0.18 -0.18)">
       <defs>
        <path id="STIXGeneral-Regular-34" d="M 3027 1069 
L 2368 1069 
L 2368 0 
L 1869 0 
L 1869 1069 
L 77 1069 
L 77 1478 
L 2086 4326 
L 2368 4326 
L 2368 1478 
L 3027 1478 
L 3027 1069 
z
M 1869 1478 
L 1869 3674 
L 333 1478 
L 1869 1478 
z
" transform="scale(0.015625)"/>
       </defs>
       <use xlink:href="#STIXGeneral-Regular-30"/>
       <use xlink:href="#STIXGeneral-Regular-2e" x="49.999985"/>
       <use xlink:href="#STIXGeneral-Regular-34" x="74.999969"/>
      </g>
     </g>
    </g>
    <g id="xtick_4">
     <g id="line2d_7">
      <path d="M 334.835047 305.152125 
L 334.835047 27.952125 
" clip-path="url(#pf7192f023d)" style="fill: none; stroke: #b0b0b0; stroke-width: 0.8; stroke-linecap: square"/>
     </g>
     <g id="line2d_8">
      <g>
       <use xlink:href="#mc4f6929889" x="334.835047" y="305.152125" style="stroke: #000000; stroke-width: 0.8"/>
      </g>
     </g>
     <g id="text_4">
      <!-- 0.6 -->
      <g transform="translate(323.585047 324.445562)scale(0.18 -0.18)">
       <defs>
        <path id="STIXGeneral-Regular-36" d="M 2854 4378 
L 2867 4275 
Q 2112 4154 1606 3664 
Q 1101 3174 973 2451 
Q 1344 2739 1786 2739 
Q 2349 2739 2672 2380 
Q 2995 2022 2995 1402 
Q 2995 774 2669 378 
Q 2291 -90 1651 -90 
Q 870 -90 518 557 
Q 218 1107 218 1786 
Q 218 2835 915 3552 
Q 1312 3962 1731 4131 
Q 2150 4301 2854 4378 
z
M 2419 1203 
Q 2419 2445 1555 2445 
Q 1235 2445 1024 2275 
Q 813 2106 813 1702 
Q 813 954 1046 522 
Q 1280 90 1722 90 
Q 2061 90 2240 394 
Q 2419 698 2419 1203 
z
" transform="scale(0.015625)"/>
       </defs>
       <use xlink:href="#STIXGeneral-Regular-30"/>
       <use xlink:href="#STIXGeneral-Regular-2e" x="49.999985"/>
       <use xlink:href="#STIXGeneral-Regular-36" x="74.999969"/>
      </g>
     </g>
    </g>
    <g id="xtick_5">
     <g id="line2d_9">
      <path d="M 416.488604 305.152125 
L 416.488604 27.952125 
" clip-path="url(#pf7192f023d)" style="fill: none; stroke: #b0b0b0; stroke-width: 0.8; stroke-linecap: square"/>
     </g>
     <g id="line2d_10">
      <g>
       <use xlink:href="#mc4f6929889" x="416.488604" y="305.152125" style="stroke: #000000; stroke-width: 0.8"/>
      </g>
     </g>
     <g id="text_5">
      <!-- 0.8 -->
      <g transform="translate(405.238604 324.445562)scale(0.18 -0.18)">
       <defs>
        <path id="STIXGeneral-Regular-38" d="M 2848 992 
Q 2848 499 2505 204 
Q 2163 -90 1587 -90 
Q 1050 -90 704 204 
Q 358 499 358 954 
Q 358 1293 524 1533 
Q 691 1773 1190 2125 
Q 710 2522 553 2765 
Q 397 3008 397 3328 
Q 397 3782 745 4054 
Q 1094 4326 1638 4326 
Q 2106 4326 2410 4060 
Q 2714 3795 2714 3411 
Q 2714 3059 2531 2848 
Q 2349 2637 1856 2374 
Q 2432 1990 2640 1689 
Q 2848 1389 2848 992 
z
M 2272 3411 
Q 2272 3744 2086 3945 
Q 1901 4147 1574 4147 
Q 1248 4147 1059 3977 
Q 870 3808 870 3513 
Q 870 3219 1059 2979 
Q 1248 2739 1670 2490 
Q 1997 2682 2134 2896 
Q 2272 3110 2272 3411 
z
M 1734 1741 
L 1357 1997 
Q 1075 1766 960 1545 
Q 845 1325 845 1011 
Q 845 576 1065 333 
Q 1286 90 1658 90 
Q 1971 90 2166 285 
Q 2362 480 2362 794 
Q 2362 1082 2214 1299 
Q 2067 1517 1734 1741 
z
" transform="scale(0.015625)"/>
       </defs>
       <use xlink:href="#STIXGeneral-Regular-30"/>
       <use xlink:href="#STIXGeneral-Regular-2e" x="49.999985"/>
       <use xlink:href="#STIXGeneral-Regular-38" x="74.999969"/>
      </g>
     </g>
    </g>
    <g id="xtick_6">
     <g id="line2d_11">
      <path d="M 498.142162 305.152125 
L 498.142162 27.952125 
" clip-path="url(#pf7192f023d)" style="fill: none; stroke: #b0b0b0; stroke-width: 0.8; stroke-linecap: square"/>
     </g>
     <g id="line2d_12">
      <g>
       <use xlink:href="#mc4f6929889" x="498.142162" y="305.152125" style="stroke: #000000; stroke-width: 0.8"/>
      </g>
     </g>
     <g id="text_6">
      <!-- 1.0 -->
      <g transform="translate(486.892162 324.445562)scale(0.18 -0.18)">
       <defs>
        <path id="STIXGeneral-Regular-31" d="M 2522 0 
L 755 0 
L 755 96 
Q 1107 115 1235 227 
Q 1363 339 1363 608 
L 1363 3482 
Q 1363 3795 1171 3795 
Q 1082 3795 883 3718 
L 710 3654 
L 710 3744 
L 1856 4326 
L 1914 4307 
L 1914 486 
Q 1914 275 2042 185 
Q 2170 96 2522 96 
L 2522 0 
z
" transform="scale(0.015625)"/>
       </defs>
       <use xlink:href="#STIXGeneral-Regular-31"/>
       <use xlink:href="#STIXGeneral-Regular-2e" x="49.999985"/>
       <use xlink:href="#STIXGeneral-Regular-30" x="74.999969"/>
      </g>
     </g>
    </g>
    <g id="text_7">
     <!-- Training Environment Steps -->
     <g transform="translate(191.604688 344.645562)scale(0.18 -0.18)">
      <defs>
       <path id="STIXGeneral-Regular-54" d="M 3795 3149 
L 3642 3149 
Q 3539 3674 3353 3821 
Q 3168 3968 2656 3968 
L 2278 3968 
L 2278 710 
Q 2278 346 2387 243 
Q 2496 141 2893 122 
L 2893 0 
L 1024 0 
L 1024 122 
Q 1427 147 1526 256 
Q 1626 365 1626 787 
L 1626 3968 
L 1242 3968 
Q 723 3968 540 3817 
Q 358 3667 262 3149 
L 109 3149 
L 154 4237 
L 3750 4237 
L 3795 3149 
z
" transform="scale(0.015625)"/>
       <path id="STIXGeneral-Regular-72" d="M 1024 2931 
L 1024 2342 
Q 1267 2688 1430 2816 
Q 1594 2944 1792 2944 
Q 1958 2944 2051 2854 
Q 2144 2765 2144 2605 
Q 2144 2470 2077 2393 
Q 2010 2317 1894 2317 
Q 1773 2317 1638 2445 
Q 1536 2541 1472 2541 
Q 1338 2541 1181 2355 
Q 1024 2170 1024 2016 
L 1024 576 
Q 1024 301 1133 205 
Q 1242 109 1568 96 
L 1568 0 
L 32 0 
L 32 96 
Q 339 154 412 224 
Q 486 294 486 538 
L 486 2138 
Q 486 2349 438 2435 
Q 390 2522 269 2522 
Q 166 2522 45 2496 
L 45 2598 
Q 448 2726 992 2944 
L 1024 2931 
z
" transform="scale(0.015625)"/>
       <path id="STIXGeneral-Regular-61" d="M 2829 422 
L 2829 243 
Q 2586 -64 2253 -64 
Q 1888 -64 1843 403 
L 1837 403 
Q 1427 -64 909 -64 
Q 608 -64 422 112 
Q 237 288 237 602 
Q 237 1050 685 1350 
Q 992 1555 1837 1869 
L 1837 2214 
Q 1837 2502 1699 2646 
Q 1562 2790 1338 2790 
Q 1146 2790 1018 2697 
Q 890 2605 890 2477 
Q 890 2419 909 2348 
Q 928 2278 928 2208 
Q 928 2112 841 2029 
Q 755 1946 634 1946 
Q 525 1946 441 2029 
Q 358 2112 358 2240 
Q 358 2547 685 2752 
Q 986 2944 1421 2944 
Q 1939 2944 2176 2656 
Q 2291 2522 2323 2384 
Q 2355 2246 2355 1946 
L 2355 723 
Q 2355 301 2554 301 
Q 2682 301 2829 422 
z
M 1837 813 
L 1837 1715 
Q 1248 1510 1018 1293 
Q 800 1094 800 800 
Q 800 557 921 432 
Q 1043 307 1242 307 
Q 1453 307 1613 410 
Q 1747 506 1792 589 
Q 1837 672 1837 813 
z
" transform="scale(0.015625)"/>
       <path id="STIXGeneral-Regular-69" d="M 1152 4045 
Q 1152 3904 1056 3811 
Q 960 3718 819 3718 
Q 685 3718 592 3811 
Q 499 3904 499 4045 
Q 499 4179 595 4275 
Q 691 4371 826 4371 
Q 966 4371 1059 4275 
Q 1152 4179 1152 4045 
z
M 1619 0 
L 102 0 
L 102 96 
Q 435 115 521 211 
Q 608 307 608 666 
L 608 2118 
Q 608 2342 563 2432 
Q 518 2522 397 2522 
Q 243 2522 128 2490 
L 128 2592 
L 1120 2944 
L 1146 2918 
L 1146 672 
Q 1146 314 1226 218 
Q 1306 122 1619 96 
L 1619 0 
z
" transform="scale(0.015625)"/>
       <path id="STIXGeneral-Regular-6e" d="M 3104 0 
L 1773 0 
L 1779 96 
Q 2016 115 2096 233 
Q 2176 352 2176 672 
L 2176 1946 
Q 2176 2592 1709 2592 
Q 1549 2592 1408 2515 
Q 1267 2438 1050 2227 
L 1050 461 
Q 1050 269 1136 192 
Q 1222 115 1466 96 
L 1466 0 
L 115 0 
L 115 96 
Q 358 115 435 214 
Q 512 314 512 602 
L 512 2157 
Q 512 2394 467 2483 
Q 422 2573 288 2573 
Q 160 2573 102 2547 
L 102 2656 
Q 550 2784 979 2944 
L 1030 2925 
L 1030 2426 
L 1037 2426 
Q 1491 2944 1958 2944 
Q 2323 2944 2518 2688 
Q 2714 2432 2714 1958 
L 2714 544 
Q 2714 288 2790 205 
Q 2867 122 3104 96 
L 3104 0 
z
" transform="scale(0.015625)"/>
       <path id="STIXGeneral-Regular-67" d="M 3008 2483 
L 2477 2483 
Q 2598 2208 2598 1946 
Q 2598 1453 2265 1203 
Q 1933 954 1600 954 
Q 1530 954 1357 973 
L 1235 986 
Q 1107 947 979 812 
Q 851 678 851 582 
Q 851 435 1350 410 
L 2176 371 
Q 2528 358 2739 172 
Q 2950 -13 2950 -314 
Q 2950 -685 2566 -986 
Q 2035 -1395 1286 -1395 
Q 826 -1395 502 -1212 
Q 179 -1030 179 -774 
Q 179 -595 320 -419 
Q 461 -243 806 6 
Q 602 102 534 172 
Q 467 243 467 346 
Q 467 531 762 787 
Q 909 915 1037 1043 
Q 717 1203 579 1401 
Q 442 1600 442 1901 
Q 442 2336 752 2640 
Q 1062 2944 1510 2944 
Q 1766 2944 2022 2848 
L 2163 2797 
Q 2349 2733 2515 2733 
L 3008 2733 
L 3008 2483 
z
M 973 2163 
L 973 2144 
Q 973 1683 1155 1398 
Q 1338 1114 1632 1114 
Q 1850 1114 1978 1270 
Q 2106 1427 2106 1690 
Q 2106 2112 1914 2464 
Q 1754 2765 1446 2765 
Q 1222 2765 1097 2605 
Q 973 2445 973 2163 
z
M 2771 -410 
Q 2771 -230 2595 -163 
Q 2419 -96 1978 -96 
Q 1344 -96 941 -13 
Q 749 -243 688 -348 
Q 627 -454 627 -563 
Q 627 -774 880 -902 
Q 1133 -1030 1555 -1030 
Q 2099 -1030 2435 -860 
Q 2771 -691 2771 -410 
z
" transform="scale(0.015625)"/>
       <path id="STIXGeneral-Regular-20" transform="scale(0.015625)"/>
       <path id="STIXGeneral-Regular-45" d="M 3821 1082 
L 3526 0 
L 77 0 
L 77 122 
Q 442 147 538 252 
Q 634 358 634 730 
L 634 3520 
Q 634 3878 534 3987 
Q 435 4096 77 4115 
L 77 4237 
L 3469 4237 
L 3494 3322 
L 3334 3322 
Q 3264 3750 3085 3872 
Q 2906 3994 2349 3994 
L 1510 3994 
Q 1370 3994 1328 3952 
Q 1286 3910 1286 3763 
L 1286 2355 
L 2253 2355 
Q 2656 2355 2787 2470 
Q 2918 2586 2976 2970 
L 3123 2970 
L 3123 1472 
L 2976 1472 
Q 2918 1875 2790 1984 
Q 2662 2093 2253 2093 
L 1286 2093 
L 1286 538 
Q 1286 346 1420 291 
Q 1555 237 1933 237 
L 2163 237 
Q 2848 237 3136 403 
Q 3424 570 3642 1082 
L 3821 1082 
z
" transform="scale(0.015625)"/>
       <path id="STIXGeneral-Regular-76" d="M 3053 2880 
L 3053 2784 
Q 2906 2771 2835 2688 
Q 2765 2605 2637 2285 
L 1818 230 
Q 1690 -90 1638 -90 
Q 1587 -90 1523 77 
Q 1510 96 1497 141 
Q 1485 186 1472 211 
L 704 2048 
Q 499 2534 403 2652 
Q 307 2771 122 2784 
L 122 2880 
L 1376 2880 
L 1376 2784 
Q 1210 2771 1146 2732 
Q 1082 2694 1082 2611 
Q 1082 2509 1139 2368 
L 1792 730 
L 2426 2387 
Q 2464 2483 2464 2579 
Q 2464 2758 2163 2784 
L 2163 2880 
L 3053 2880 
z
" transform="scale(0.015625)"/>
       <path id="STIXGeneral-Regular-6f" d="M 3008 1478 
Q 3008 806 2608 371 
Q 2208 -64 1568 -64 
Q 979 -64 582 368 
Q 186 800 186 1459 
Q 186 2125 582 2534 
Q 979 2944 1626 2944 
Q 2221 2944 2614 2537 
Q 3008 2131 3008 1478 
z
M 2432 1306 
Q 2432 2035 2112 2445 
Q 1856 2765 1504 2765 
Q 1171 2765 966 2493 
Q 762 2221 762 1747 
Q 762 928 1101 435 
Q 1318 115 1677 115 
Q 2029 115 2230 432 
Q 2432 749 2432 1306 
z
" transform="scale(0.015625)"/>
       <path id="STIXGeneral-Regular-6d" d="M 4960 0 
L 3565 0 
L 3565 96 
Q 3834 122 3907 208 
Q 3981 294 3981 576 
L 3981 1894 
Q 3981 2278 3869 2444 
Q 3757 2611 3488 2611 
Q 3264 2611 3107 2521 
Q 2950 2432 2803 2221 
L 2803 608 
Q 2803 301 2896 201 
Q 2989 102 3264 96 
L 3264 0 
L 1830 0 
L 1830 96 
Q 2112 115 2189 188 
Q 2266 262 2266 550 
L 2266 1901 
Q 2266 2611 1850 2611 
Q 1670 2611 1468 2531 
Q 1267 2451 1171 2336 
Q 1088 2240 1088 2227 
L 1088 448 
Q 1088 243 1177 176 
Q 1267 109 1523 96 
L 1523 0 
L 102 0 
L 102 96 
Q 371 102 460 195 
Q 550 288 550 563 
L 550 2150 
Q 550 2387 499 2480 
Q 448 2573 326 2573 
Q 230 2573 122 2547 
L 122 2656 
Q 557 2778 1011 2944 
L 1062 2925 
L 1062 2451 
L 1075 2451 
Q 1363 2752 1584 2848 
Q 1805 2944 2054 2944 
Q 2560 2944 2733 2406 
Q 3232 2944 3776 2944 
Q 4518 2944 4518 1792 
L 4518 493 
Q 4518 282 4582 202 
Q 4646 122 4794 109 
L 4960 96 
L 4960 0 
z
" transform="scale(0.015625)"/>
       <path id="STIXGeneral-Regular-65" d="M 2611 1050 
L 2714 1005 
Q 2330 -64 1376 -64 
Q 813 -64 486 329 
Q 160 723 160 1389 
Q 160 2074 525 2509 
Q 890 2944 1485 2944 
Q 2061 2944 2374 2502 
Q 2560 2246 2592 1773 
L 621 1773 
Q 646 1370 700 1158 
Q 755 947 915 730 
Q 1184 378 1626 378 
Q 1939 378 2153 531 
Q 2368 685 2611 1050 
z
M 634 1978 
L 1939 1978 
Q 1882 2381 1750 2547 
Q 1619 2714 1312 2714 
Q 1043 2714 864 2525 
Q 685 2336 634 1978 
z
" transform="scale(0.015625)"/>
       <path id="STIXGeneral-Regular-74" d="M 1702 493 
L 1786 422 
Q 1478 -64 1011 -64 
Q 448 -64 448 749 
L 448 2675 
L 109 2675 
Q 83 2694 83 2720 
Q 83 2771 192 2842 
Q 435 2982 813 3526 
Q 826 3546 874 3606 
Q 922 3667 941 3706 
Q 986 3706 986 3622 
L 986 2880 
L 1632 2880 
L 1632 2675 
L 986 2675 
L 986 845 
Q 986 538 1062 403 
Q 1139 269 1318 269 
Q 1510 269 1702 493 
z
" transform="scale(0.015625)"/>
       <path id="STIXGeneral-Regular-53" d="M 3002 2963 
L 2842 2963 
Q 2733 3360 2579 3565 
Q 2189 4064 1651 4064 
Q 1357 4064 1181 3894 
Q 1005 3725 1005 3456 
Q 1005 3328 1069 3206 
Q 1133 3085 1206 2998 
Q 1280 2912 1465 2784 
Q 1651 2656 1766 2589 
Q 1882 2522 2150 2362 
Q 2669 2061 2905 1763 
Q 3142 1466 3142 1107 
Q 3142 576 2771 243 
Q 2400 -90 1837 -90 
Q 1421 -90 1082 58 
Q 915 128 781 128 
Q 704 128 653 70 
Q 602 13 602 -83 
L 461 -83 
L 275 1274 
L 416 1274 
Q 845 141 1734 141 
Q 2074 141 2285 342 
Q 2496 544 2496 858 
Q 2496 1158 2310 1363 
Q 2003 1696 1235 2106 
Q 454 2522 454 3206 
Q 454 3718 768 4022 
Q 1082 4326 1568 4326 
Q 1907 4326 2240 4186 
Q 2413 4109 2522 4109 
Q 2688 4109 2726 4326 
L 2861 4326 
L 3002 2963 
z
" transform="scale(0.015625)"/>
       <path id="STIXGeneral-Regular-70" d="M 1018 2931 
L 1018 2438 
Q 1421 2944 1939 2944 
Q 2406 2944 2707 2560 
Q 3008 2176 3008 1581 
Q 3008 883 2621 409 
Q 2234 -64 1664 -64 
Q 1466 -64 1328 -6 
Q 1190 51 1018 211 
L 1018 -794 
Q 1018 -1094 1120 -1180 
Q 1222 -1267 1581 -1274 
L 1581 -1389 
L 32 -1389 
L 32 -1280 
Q 314 -1254 397 -1171 
Q 480 -1088 480 -838 
L 480 2157 
Q 480 2381 429 2451 
Q 378 2522 218 2522 
Q 115 2522 58 2515 
L 58 2618 
Q 506 2752 979 2944 
L 1018 2931 
z
M 1018 2138 
L 1018 563 
Q 1018 422 1238 281 
Q 1459 141 1683 141 
Q 2029 141 2243 467 
Q 2458 794 2458 1325 
Q 2458 1888 2243 2224 
Q 2029 2560 1670 2560 
Q 1446 2560 1232 2419 
Q 1018 2278 1018 2138 
z
" transform="scale(0.015625)"/>
       <path id="STIXGeneral-Regular-73" d="M 998 1926 
L 1664 1523 
Q 1984 1331 2105 1164 
Q 2227 998 2227 736 
Q 2227 416 1961 176 
Q 1696 -64 1331 -64 
Q 1030 -64 864 -6 
Q 691 51 570 51 
Q 461 51 416 -26 
L 333 -26 
L 333 979 
L 435 979 
Q 538 512 730 294 
Q 922 77 1248 77 
Q 1485 77 1632 211 
Q 1779 346 1779 550 
Q 1779 845 1440 1030 
L 1094 1222 
Q 326 1651 326 2150 
Q 326 2522 566 2730 
Q 806 2938 1210 2938 
Q 1491 2938 1638 2867 
Q 1754 2816 1818 2816 
Q 1862 2816 1920 2880 
L 1990 2880 
L 2022 2010 
L 1926 2010 
Q 1818 2445 1654 2621 
Q 1491 2797 1203 2797 
Q 986 2797 854 2688 
Q 723 2579 723 2362 
Q 723 2253 796 2128 
Q 870 2003 998 1926 
z
" transform="scale(0.015625)"/>
      </defs>
      <use xlink:href="#STIXGeneral-Regular-54"/>
      <use xlink:href="#STIXGeneral-Regular-72" x="61.099991"/>
      <use xlink:href="#STIXGeneral-Regular-61" x="94.399979"/>
      <use xlink:href="#STIXGeneral-Regular-69" x="138.799973"/>
      <use xlink:href="#STIXGeneral-Regular-6e" x="166.59996"/>
      <use xlink:href="#STIXGeneral-Regular-69" x="216.599945"/>
      <use xlink:href="#STIXGeneral-Regular-6e" x="244.399933"/>
      <use xlink:href="#STIXGeneral-Regular-67" x="294.399918"/>
      <use xlink:href="#STIXGeneral-Regular-20" x="344.399902"/>
      <use xlink:href="#STIXGeneral-Regular-45" x="369.399887"/>
      <use xlink:href="#STIXGeneral-Regular-6e" x="430.499878"/>
      <use xlink:href="#STIXGeneral-Regular-76" x="480.499863"/>
      <use xlink:href="#STIXGeneral-Regular-69" x="530.499847"/>
      <use xlink:href="#STIXGeneral-Regular-72" x="558.299835"/>
      <use xlink:href="#STIXGeneral-Regular-6f" x="591.599823"/>
      <use xlink:href="#STIXGeneral-Regular-6e" x="641.599808"/>
      <use xlink:href="#STIXGeneral-Regular-6d" x="691.599792"/>
      <use xlink:href="#STIXGeneral-Regular-65" x="769.39978"/>
      <use xlink:href="#STIXGeneral-Regular-6e" x="813.799774"/>
      <use xlink:href="#STIXGeneral-Regular-74" x="863.799759"/>
      <use xlink:href="#STIXGeneral-Regular-20" x="891.599747"/>
      <use xlink:href="#STIXGeneral-Regular-53" x="916.599731"/>
      <use xlink:href="#STIXGeneral-Regular-74" x="972.199722"/>
      <use xlink:href="#STIXGeneral-Regular-65" x="999.99971"/>
      <use xlink:href="#STIXGeneral-Regular-70" x="1044.399704"/>
      <use xlink:href="#STIXGeneral-Regular-73" x="1094.399689"/>
     </g>
    </g>
    <g id="text_8">
     <!-- 1e8 -->
     <g transform="translate(490.806875 343.645562)scale(0.18 -0.18)">
      <use xlink:href="#STIXGeneral-Regular-31"/>
      <use xlink:href="#STIXGeneral-Regular-65" x="49.999985"/>
      <use xlink:href="#STIXGeneral-Regular-38" x="94.399979"/>
     </g>
    </g>
   </g>
   <g id="matplotlib.axis_2">
    <g id="ytick_1">
     <g id="line2d_13">
      <path d="M 70.4 292.553222 
L 516.8 292.553222 
" clip-path="url(#pf7192f023d)" style="fill: none; stroke: #b0b0b0; stroke-width: 0.8; stroke-linecap: square"/>
     </g>
     <g id="line2d_14">
      <defs>
       <path id="md5b878fb8e" d="M 0 0 
L -3.5 0 
" style="stroke: #000000; stroke-width: 0.8"/>
      </defs>
      <g>
       <use xlink:href="#md5b878fb8e" x="70.4" y="292.553222" style="stroke: #000000; stroke-width: 0.8"/>
      </g>
     </g>
     <g id="text_9">
      <!-- 0 -->
      <g transform="translate(54.4 298.699941)scale(0.18 -0.18)">
       <use xlink:href="#STIXGeneral-Regular-30"/>
      </g>
     </g>
    </g>
    <g id="ytick_2">
     <g id="line2d_15">
      <path d="M 70.4 227.86364 
L 516.8 227.86364 
" clip-path="url(#pf7192f023d)" style="fill: none; stroke: #b0b0b0; stroke-width: 0.8; stroke-linecap: square"/>
     </g>
     <g id="line2d_16">
      <g>
       <use xlink:href="#md5b878fb8e" x="70.4" y="227.86364" style="stroke: #000000; stroke-width: 0.8"/>
      </g>
     </g>
     <g id="text_10">
      <!-- 1000 -->
      <g transform="translate(27.4 234.010359)scale(0.18 -0.18)">
       <use xlink:href="#STIXGeneral-Regular-31"/>
       <use xlink:href="#STIXGeneral-Regular-30" x="49.999985"/>
       <use xlink:href="#STIXGeneral-Regular-30" x="99.999969"/>
       <use xlink:href="#STIXGeneral-Regular-30" x="149.999954"/>
      </g>
     </g>
    </g>
    <g id="ytick_3">
     <g id="line2d_17">
      <path d="M 70.4 163.174059 
L 516.8 163.174059 
" clip-path="url(#pf7192f023d)" style="fill: none; stroke: #b0b0b0; stroke-width: 0.8; stroke-linecap: square"/>
     </g>
     <g id="line2d_18">
      <g>
       <use xlink:href="#md5b878fb8e" x="70.4" y="163.174059" style="stroke: #000000; stroke-width: 0.8"/>
      </g>
     </g>
     <g id="text_11">
      <!-- 2000 -->
      <g transform="translate(27.4 169.320777)scale(0.18 -0.18)">
       <use xlink:href="#STIXGeneral-Regular-32"/>
       <use xlink:href="#STIXGeneral-Regular-30" x="49.999985"/>
       <use xlink:href="#STIXGeneral-Regular-30" x="99.999969"/>
       <use xlink:href="#STIXGeneral-Regular-30" x="149.999954"/>
      </g>
     </g>
    </g>
    <g id="ytick_4">
     <g id="line2d_19">
      <path d="M 70.4 98.484477 
L 516.8 98.484477 
" clip-path="url(#pf7192f023d)" style="fill: none; stroke: #b0b0b0; stroke-width: 0.8; stroke-linecap: square"/>
     </g>
     <g id="line2d_20">
      <g>
       <use xlink:href="#md5b878fb8e" x="70.4" y="98.484477" style="stroke: #000000; stroke-width: 0.8"/>
      </g>
     </g>
     <g id="text_12">
      <!-- 3000 -->
      <g transform="translate(27.4 104.631196)scale(0.18 -0.18)">
       <defs>
        <path id="STIXGeneral-Regular-33" d="M 390 3264 
L 288 3290 
Q 435 3770 748 4048 
Q 1062 4326 1542 4326 
Q 1990 4326 2265 4083 
Q 2541 3840 2541 3450 
Q 2541 2925 1946 2566 
Q 2298 2413 2477 2227 
Q 2758 1914 2758 1402 
Q 2758 890 2464 506 
Q 2246 211 1840 60 
Q 1434 -90 979 -90 
Q 262 -90 262 275 
Q 262 378 339 442 
Q 416 506 525 506 
Q 685 506 915 339 
Q 1197 141 1466 141 
Q 1818 141 2058 425 
Q 2298 710 2298 1120 
Q 2298 1856 1632 2048 
Q 1434 2112 979 2112 
L 979 2202 
Q 1338 2323 1517 2432 
Q 2035 2726 2035 3290 
Q 2035 3610 1852 3776 
Q 1670 3942 1344 3942 
Q 768 3942 390 3264 
z
" transform="scale(0.015625)"/>
       </defs>
       <use xlink:href="#STIXGeneral-Regular-33"/>
       <use xlink:href="#STIXGeneral-Regular-30" x="49.999985"/>
       <use xlink:href="#STIXGeneral-Regular-30" x="99.999969"/>
       <use xlink:href="#STIXGeneral-Regular-30" x="149.999954"/>
      </g>
     </g>
    </g>
    <g id="ytick_5">
     <g id="line2d_21">
      <path d="M 70.4 33.794895 
L 516.8 33.794895 
" clip-path="url(#pf7192f023d)" style="fill: none; stroke: #b0b0b0; stroke-width: 0.8; stroke-linecap: square"/>
     </g>
     <g id="line2d_22">
      <g>
       <use xlink:href="#md5b878fb8e" x="70.4" y="33.794895" style="stroke: #000000; stroke-width: 0.8"/>
      </g>
     </g>
     <g id="text_13">
      <!-- 4000 -->
      <g transform="translate(27.4 39.941614)scale(0.18 -0.18)">
       <use xlink:href="#STIXGeneral-Regular-34"/>
       <use xlink:href="#STIXGeneral-Regular-30" x="49.999985"/>
       <use xlink:href="#STIXGeneral-Regular-30" x="99.999969"/>
       <use xlink:href="#STIXGeneral-Regular-30" x="149.999954"/>
      </g>
     </g>
    </g>
    <g id="text_14">
     <!-- Average Test Return -->
     <g transform="translate(19.476562 241.533375)rotate(-90)scale(0.18 -0.18)">
      <defs>
       <path id="STIXGeneral-Regular-41" d="M 4525 0 
L 2893 0 
L 2893 122 
Q 3149 122 3245 179 
Q 3334 224 3334 333 
Q 3334 499 3213 781 
L 2950 1382 
L 1274 1382 
L 979 653 
Q 922 506 922 384 
Q 922 237 1027 179 
Q 1133 122 1370 122 
L 1370 0 
L 96 0 
L 96 122 
Q 365 147 486 316 
Q 608 486 902 1190 
L 2221 4314 
L 2349 4314 
L 3923 710 
Q 4064 378 4176 262 
Q 4288 147 4525 122 
L 4525 0 
z
M 2861 1645 
L 2118 3405 
L 1382 1645 
L 2861 1645 
z
" transform="scale(0.015625)"/>
       <path id="STIXGeneral-Regular-52" d="M 4224 0 
L 3187 0 
L 1664 1971 
L 1306 1958 
L 1306 717 
Q 1306 352 1405 249 
Q 1504 147 1875 122 
L 1875 0 
L 109 0 
L 109 122 
Q 474 154 563 262 
Q 653 371 653 794 
L 653 3526 
Q 653 3885 563 3987 
Q 474 4090 109 4115 
L 109 4237 
L 1850 4237 
Q 2726 4237 3187 3859 
Q 3501 3603 3501 3091 
Q 3501 2221 2342 2042 
L 3622 422 
Q 3757 256 3878 198 
Q 4000 141 4224 122 
L 4224 0 
z
M 1306 3731 
L 1306 2195 
Q 1766 2202 1990 2246 
Q 2214 2291 2438 2413 
Q 2803 2618 2803 3142 
Q 2803 4000 1632 4000 
Q 1459 4000 1382 3945 
Q 1306 3891 1306 3731 
z
" transform="scale(0.015625)"/>
       <path id="STIXGeneral-Regular-75" d="M 3072 320 
L 3072 230 
Q 2573 96 2195 -58 
L 2163 -38 
L 2163 486 
L 2150 486 
Q 1747 -64 1235 -64 
Q 870 -64 662 160 
Q 454 384 454 755 
L 454 2362 
Q 454 2598 371 2688 
Q 288 2778 58 2790 
L 58 2880 
L 992 2880 
L 992 813 
Q 992 595 1123 451 
Q 1254 307 1446 307 
Q 1760 307 1984 506 
Q 2067 582 2099 649 
Q 2131 717 2131 877 
L 2131 2355 
Q 2131 2605 2041 2678 
Q 1952 2752 1658 2771 
L 1658 2880 
L 2669 2880 
L 2669 685 
Q 2669 461 2742 390 
Q 2816 320 3034 320 
L 3072 320 
z
" transform="scale(0.015625)"/>
      </defs>
      <use xlink:href="#STIXGeneral-Regular-41"/>
      <use xlink:href="#STIXGeneral-Regular-76" x="72.199982"/>
      <use xlink:href="#STIXGeneral-Regular-65" x="122.199966"/>
      <use xlink:href="#STIXGeneral-Regular-72" x="166.59996"/>
      <use xlink:href="#STIXGeneral-Regular-61" x="199.899948"/>
      <use xlink:href="#STIXGeneral-Regular-67" x="244.299942"/>
      <use xlink:href="#STIXGeneral-Regular-65" x="294.299927"/>
      <use xlink:href="#STIXGeneral-Regular-20" x="338.699921"/>
      <use xlink:href="#STIXGeneral-Regular-54" x="363.699905"/>
      <use xlink:href="#STIXGeneral-Regular-65" x="424.799896"/>
      <use xlink:href="#STIXGeneral-Regular-73" x="469.19989"/>
      <use xlink:href="#STIXGeneral-Regular-74" x="508.099884"/>
      <use xlink:href="#STIXGeneral-Regular-20" x="535.899872"/>
      <use xlink:href="#STIXGeneral-Regular-52" x="560.899857"/>
      <use xlink:href="#STIXGeneral-Regular-65" x="627.599854"/>
      <use xlink:href="#STIXGeneral-Regular-74" x="671.999847"/>
      <use xlink:href="#STIXGeneral-Regular-75" x="699.799835"/>
      <use xlink:href="#STIXGeneral-Regular-72" x="749.79982"/>
      <use xlink:href="#STIXGeneral-Regular-6e" x="783.099808"/>
     </g>
    </g>
   </g>
   <g id="line2d_23">
    <path d="M 90.690909 233.92517 
L 91.507445 232.096195 
L 92.32398 235.608276 
L 93.140516 233.045537 
L 93.957051 229.363344 
L 95.590123 225.309822 
L 96.406658 229.608164 
L 97.223194 228.842236 
L 98.039729 224.702886 
L 98.856265 227.359109 
L 99.6728 226.117128 
L 100.489336 216.643429 
L 101.305872 211.264883 
L 102.122407 208.930356 
L 102.938943 205.783156 
L 103.755478 206.896733 
L 104.572014 204.711105 
L 105.388549 207.57293 
L 106.205085 205.161304 
L 107.021621 202.368387 
L 107.838156 204.225266 
L 108.654692 203.286803 
L 109.471227 201.545362 
L 110.287763 203.275054 
L 111.104299 201.406902 
L 111.920834 202.047886 
L 112.73737 203.493868 
L 114.370441 189.644708 
L 115.186976 191.154253 
L 116.003512 190.556222 
L 116.820048 186.109562 
L 117.636583 183.746596 
L 119.269654 183.327361 
L 120.08619 179.98204 
L 120.902725 180.187487 
L 121.719261 177.664146 
L 122.535797 176.36934 
L 123.352332 176.453707 
L 124.168868 176.887609 
L 124.985403 173.342001 
L 125.801939 179.039919 
L 126.618474 180.265986 
L 127.43501 184.250099 
L 128.251546 182.116174 
L 129.068081 181.63648 
L 129.884617 175.319622 
L 130.701152 174.467846 
L 131.517688 178.048579 
L 132.334224 180.355414 
L 133.150759 183.540715 
L 133.967295 183.545796 
L 134.78383 190.378491 
L 135.600366 193.859735 
L 136.416901 195.240598 
L 137.233437 194.893178 
L 138.866508 205.339385 
L 139.683044 205.786717 
L 140.499579 202.96772 
L 141.316115 203.264165 
L 142.13265 202.729225 
L 142.949186 208.24352 
L 143.765722 208.75896 
L 144.582257 208.347854 
L 145.398793 205.826919 
L 146.215328 201.472695 
L 147.031864 203.72692 
L 147.848399 204.766658 
L 148.664935 204.326292 
L 149.481471 203.550581 
L 150.298006 198.385511 
L 151.114542 190.862829 
L 151.931077 185.155072 
L 152.747613 181.681341 
L 153.564149 177.480297 
L 154.380684 176.681705 
L 155.19722 173.894361 
L 156.013755 173.434173 
L 156.830291 172.154816 
L 157.646826 172.521664 
L 158.463362 175.629016 
L 159.279898 171.42562 
L 160.096433 171.652201 
L 160.912969 172.79275 
L 162.54604 164.158565 
L 163.362575 163.049124 
L 164.179111 162.485867 
L 164.995647 160.040833 
L 165.812182 161.790629 
L 166.628718 166.116458 
L 167.445253 164.817378 
L 168.261789 164.363071 
L 169.89486 168.636442 
L 170.711396 173.72249 
L 171.527931 174.427359 
L 173.161002 181.52959 
L 173.977538 180.436438 
L 174.794074 181.486852 
L 175.610609 181.887159 
L 176.427145 181.415868 
L 178.060216 186.17036 
L 178.876751 184.47344 
L 179.693287 183.240681 
L 180.509823 182.321108 
L 181.326358 179.704232 
L 182.142894 177.613228 
L 182.959429 176.518771 
L 183.775965 177.864678 
L 184.5925 177.304587 
L 185.409036 175.484738 
L 187.042107 176.587498 
L 187.858643 172.158008 
L 188.675178 170.847655 
L 189.491714 168.51255 
L 190.308249 171.292804 
L 191.124785 169.044409 
L 191.941321 173.057551 
L 192.757856 175.55411 
L 193.574392 174.082199 
L 194.390927 181.993172 
L 196.023999 182.800869 
L 196.840534 182.418722 
L 197.65707 182.955332 
L 198.473605 181.251035 
L 199.290141 176.271512 
L 200.106676 172.59159 
L 200.923212 172.393889 
L 201.739748 176.377462 
L 202.556283 179.575572 
L 203.372819 180.987038 
L 204.189354 178.130313 
L 205.00589 179.147177 
L 205.822425 178.604724 
L 206.638961 180.291901 
L 207.455497 180.880402 
L 208.272032 180.726972 
L 209.088568 180.079875 
L 209.905103 177.16951 
L 210.721639 171.537576 
L 212.35471 167.372242 
L 213.171246 163.692753 
L 213.987781 166.348781 
L 214.804317 170.403047 
L 216.437388 165.677154 
L 217.253924 170.071684 
L 218.070459 170.655727 
L 218.886995 174.345743 
L 219.70353 173.24294 
L 220.520066 170.723934 
L 221.336601 173.137094 
L 222.969673 170.279911 
L 223.786208 171.889591 
L 224.602744 172.266726 
L 225.419279 174.590204 
L 226.235815 176.560552 
L 227.05235 176.404644 
L 227.868886 180.048707 
L 228.685422 184.367447 
L 229.501957 186.730578 
L 230.318493 188.100685 
L 231.135028 186.567792 
L 231.951564 184.786747 
L 232.7681 182.425067 
L 233.584635 182.462564 
L 234.401171 183.14797 
L 235.217706 185.19006 
L 236.034242 178.487417 
L 236.850777 180.305831 
L 237.667313 182.822204 
L 238.483849 178.203904 
L 239.300384 178.147134 
L 240.11692 177.723681 
L 240.933455 181.43064 
L 241.749991 181.056448 
L 243.383062 189.546668 
L 244.199598 191.724636 
L 245.016133 188.827302 
L 245.832669 191.72312 
L 246.649204 194.092573 
L 247.46574 195.476839 
L 248.282275 194.873028 
L 249.098811 193.075333 
L 249.915347 192.407157 
L 250.731882 189.492594 
L 251.548418 188.795466 
L 252.364953 188.631883 
L 253.998025 181.821274 
L 254.81456 179.119132 
L 255.631096 172.372103 
L 256.447631 170.816653 
L 257.264167 166.526928 
L 258.080702 163.355987 
L 258.897238 162.524017 
L 259.713774 158.446287 
L 260.530309 156.409222 
L 261.346845 157.839944 
L 262.16338 158.001701 
L 262.979916 158.324165 
L 263.796451 160.361472 
L 264.612987 161.369753 
L 265.429523 161.33528 
L 266.246058 163.981102 
L 269.5122 170.288021 
L 270.328736 167.245265 
L 271.145272 165.638211 
L 271.961807 165.113523 
L 272.778343 165.028577 
L 273.594878 165.326184 
L 274.411414 164.390878 
L 275.22795 169.007002 
L 277.677556 176.201613 
L 278.494092 175.781177 
L 279.310627 174.946441 
L 280.127163 173.739039 
L 280.943699 170.758116 
L 281.760234 166.985396 
L 282.57677 161.903957 
L 283.393305 161.387584 
L 284.209841 160.345864 
L 285.026376 158.554809 
L 285.842912 157.34501 
L 286.659448 158.804198 
L 287.475983 159.786736 
L 288.292519 158.887132 
L 289.109054 155.963824 
L 289.92559 153.458196 
L 290.742125 154.499482 
L 291.558661 156.784925 
L 292.375197 154.61647 
L 293.191732 154.924651 
L 294.008268 154.083833 
L 294.824803 151.513994 
L 295.641339 149.887558 
L 296.457875 149.058278 
L 297.27441 149.603855 
L 298.090946 152.515594 
L 298.907481 154.505912 
L 299.724017 155.884436 
L 300.540552 157.76505 
L 301.357088 158.550847 
L 302.173624 157.287135 
L 302.990159 158.124997 
L 304.62323 157.289026 
L 305.439766 159.18717 
L 306.256301 160.676745 
L 307.072837 160.542741 
L 308.705908 158.872506 
L 309.522444 160.766686 
L 310.338979 159.960881 
L 311.155515 162.670479 
L 311.97205 165.907773 
L 313.605122 162.763874 
L 314.421657 162.642587 
L 315.238193 164.706069 
L 316.054728 164.04585 
L 316.871264 164.283515 
L 317.6878 162.636475 
L 318.504335 161.354134 
L 320.137406 155.959993 
L 320.953942 152.391551 
L 322.587013 146.393549 
L 323.403549 144.754498 
L 324.220084 144.092956 
L 325.853155 146.758211 
L 328.302762 157.427398 
L 329.935833 159.137837 
L 330.752369 157.599321 
L 332.38544 156.547385 
L 333.201975 160.666078 
L 334.018511 154.736082 
L 334.835047 153.091323 
L 335.651582 151.096429 
L 336.468118 146.893922 
L 337.284653 143.45543 
L 338.101189 140.662208 
L 338.917725 138.853914 
L 339.73426 137.829287 
L 340.550796 137.754215 
L 342.183867 137.284186 
L 343.000402 137.561909 
L 343.816938 137.250813 
L 344.633474 137.155573 
L 345.450009 138.072374 
L 346.266545 137.914666 
L 347.08308 137.308639 
L 347.899616 136.966016 
L 348.716151 136.324331 
L 349.532687 135.969447 
L 350.349223 136.573589 
L 351.165758 136.655938 
L 351.982294 136.905089 
L 352.798829 137.931332 
L 354.4319 139.432395 
L 355.248436 140.507696 
L 356.064972 140.323328 
L 356.881507 139.199658 
L 357.698043 138.697344 
L 358.514578 137.851382 
L 359.331114 137.771009 
L 360.14765 138.884538 
L 360.964185 140.31953 
L 361.780721 142.514723 
L 362.597256 142.863718 
L 363.413792 141.123167 
L 364.230327 140.166616 
L 365.046863 140.91903 
L 365.863399 140.795493 
L 366.679934 140.484464 
L 367.49647 141.268001 
L 368.313005 142.416258 
L 369.129541 141.95521 
L 369.946076 143.512246 
L 370.762612 147.583925 
L 371.579148 149.384459 
L 372.395683 150.361725 
L 373.212219 151.553784 
L 374.028754 149.812099 
L 374.84529 149.15676 
L 375.661825 149.919093 
L 376.478361 151.161884 
L 377.294897 154.629107 
L 378.111432 156.843612 
L 378.927968 159.568053 
L 379.744503 160.184399 
L 380.561039 162.327672 
L 381.377575 162.268585 
L 382.19411 162.680678 
L 383.010646 161.852925 
L 383.827181 161.439895 
L 384.643717 159.696046 
L 385.460252 159.281812 
L 386.276788 157.996083 
L 387.093324 156.474184 
L 387.909859 152.456084 
L 388.726395 149.804318 
L 389.54293 147.87432 
L 390.359466 146.860199 
L 391.176001 145.541714 
L 391.992537 144.958691 
L 392.809073 142.123269 
L 393.625608 140.264688 
L 394.442144 139.932587 
L 395.258679 139.939411 
L 396.075215 140.506178 
L 396.891751 141.754558 
L 399.341357 144.03521 
L 400.157893 143.437092 
L 400.974428 141.118095 
L 401.790964 140.008431 
L 402.6075 139.929407 
L 403.424035 138.785466 
L 404.240571 138.332337 
L 405.057106 139.075076 
L 405.873642 139.089295 
L 406.690177 138.374643 
L 407.506713 139.29636 
L 409.139784 142.205986 
L 409.95632 146.440536 
L 410.772855 148.773785 
L 411.589391 150.387456 
L 414.038998 145.252618 
L 414.855533 143.057845 
L 415.672069 141.765101 
L 417.30514 138.499517 
L 418.121676 138.225723 
L 418.938211 136.555784 
L 419.754747 135.409311 
L 420.571282 135.016018 
L 422.204353 134.734259 
L 423.837425 135.192437 
L 424.65396 135.871626 
L 426.287031 135.730482 
L 427.103567 135.581525 
L 427.920102 135.195799 
L 428.736638 135.484223 
L 429.553174 135.539586 
L 430.369709 135.442338 
L 431.186245 135.555208 
L 432.00278 135.82252 
L 432.819316 136.328043 
L 433.635851 137.534306 
L 434.452387 138.412941 
L 435.268923 138.652891 
L 436.085458 140.631935 
L 436.901994 141.664681 
L 437.718529 143.253561 
L 438.535065 143.465966 
L 439.351601 145.521032 
L 440.168136 145.931168 
L 440.984672 149.452128 
L 441.801207 151.205898 
L 442.617743 153.371093 
L 444.250814 159.107858 
L 445.06735 162.500967 
L 445.883885 163.406979 
L 446.700421 163.429185 
L 448.333492 169.114448 
L 449.150027 169.584217 
L 449.966563 170.671053 
L 451.599634 171.566794 
L 452.41617 169.292641 
L 453.232705 167.443015 
L 454.049241 167.358917 
L 454.865776 164.948618 
L 455.682312 164.366493 
L 456.498848 162.091806 
L 457.315383 163.409324 
L 458.131919 161.338869 
L 458.948454 160.720326 
L 459.76499 157.773317 
L 460.581526 155.550433 
L 461.398061 151.901827 
L 462.214597 150.134068 
L 463.847668 144.835693 
L 464.664203 143.116507 
L 465.480739 141.888425 
L 466.297275 140.252788 
L 467.11381 138.262451 
L 467.930346 137.697228 
L 468.746881 137.990404 
L 469.563417 137.863942 
L 470.379952 137.93574 
L 471.196488 139.159826 
L 472.013024 142.712015 
L 472.829559 144.810124 
L 473.646095 143.94973 
L 474.46263 143.284878 
L 475.279166 143.086605 
L 476.095701 144.105907 
L 476.912237 144.531499 
L 477.728773 145.437534 
L 478.545308 146.016861 
L 479.361844 145.645113 
L 480.178379 144.925895 
L 480.994915 144.016659 
L 481.811451 142.05499 
L 482.627986 141.097005 
L 483.444522 140.926631 
L 484.261057 140.40673 
L 485.077593 140.945198 
L 485.894128 140.936144 
L 486.710664 141.382105 
L 487.5272 140.178543 
L 488.343735 140.415657 
L 489.160271 139.03832 
L 489.976806 138.427648 
L 490.793342 138.110281 
L 491.609877 136.064451 
L 492.426413 135.568273 
L 493.242949 135.339736 
L 494.059484 133.718815 
L 494.87602 133.550933 
L 495.692555 133.967418 
L 496.509091 135.861378 
L 496.509091 135.861378 
" clip-path="url(#pf7192f023d)" style="fill: none; stroke: #1f77b4; stroke-width: 1.5; stroke-linecap: square"/>
   </g>
   <g id="line2d_24">
    <path d="M 90.690909 289.841629 
L 91.507445 289.725704 
L 95.590123 290.262813 
L 96.406658 286.562732 
L 97.223194 288.148181 
L 98.039729 289.006055 
L 98.856265 286.781194 
L 99.6728 287.56314 
L 100.489336 288.777267 
L 101.305872 289.591803 
L 102.122407 290.14565 
L 103.755478 290.772374 
L 104.572014 285.744094 
L 105.388549 287.823336 
L 106.205085 289.1466 
L 107.021621 267.601817 
L 108.654692 181.039269 
L 109.471227 140.176653 
L 111.104299 96.96659 
L 111.920834 80.565325 
L 112.73737 79.16866 
L 113.553905 92.698602 
L 114.370441 97.932562 
L 116.003512 110.199938 
L 116.820048 111.979711 
L 118.453119 109.258737 
L 119.269654 117.008289 
L 120.08619 116.899262 
L 120.902725 115.181468 
L 121.719261 129.899553 
L 122.535797 155.993843 
L 123.352332 162.780413 
L 124.168868 149.21217 
L 124.985403 143.716794 
L 125.801939 175.916855 
L 126.618474 217.6996 
L 127.43501 220.312635 
L 128.251546 201.53381 
L 129.068081 186.565526 
L 129.884617 159.447252 
L 130.701152 166.230107 
L 131.517688 192.248161 
L 132.334224 191.550039 
L 133.150759 210.085774 
L 133.967295 171.586268 
L 134.78383 154.127615 
L 135.600366 165.391683 
L 136.416901 208.167988 
L 137.233437 190.346942 
L 138.049973 184.075897 
L 138.866508 158.724829 
L 141.316115 121.657588 
L 142.13265 115.895132 
L 142.949186 104.972632 
L 143.765722 86.999538 
L 144.582257 92.911816 
L 145.398793 88.981895 
L 146.215328 88.363208 
L 147.031864 95.442252 
L 147.848399 119.739614 
L 148.664935 130.496791 
L 149.481471 144.242671 
L 150.298006 165.726471 
L 151.114542 150.147249 
L 151.931077 137.682214 
L 152.747613 121.212769 
L 153.564149 122.51715 
L 154.380684 157.182343 
L 155.19722 145.599396 
L 156.013755 142.612989 
L 156.830291 144.020038 
L 157.646826 150.812671 
L 158.463362 153.377616 
L 159.279898 164.230607 
L 160.096433 154.885494 
L 160.912969 126.911662 
L 161.729504 130.293898 
L 162.54604 136.873924 
L 163.362575 125.469535 
L 164.179111 106.487763 
L 164.995647 99.888603 
L 165.812182 87.224745 
L 167.445253 67.744048 
L 168.261789 69.009705 
L 169.078324 63.73574 
L 169.89486 67.909093 
L 170.711396 70.045044 
L 171.527931 69.92755 
L 172.344467 90.497144 
L 173.161002 94.096974 
L 173.977538 93.479068 
L 174.794074 95.642715 
L 176.427145 104.907109 
L 177.24368 95.757496 
L 178.060216 90.351414 
L 178.876751 86.07486 
L 179.693287 87.113496 
L 180.509823 72.076492 
L 182.142894 50.704925 
L 182.959429 44.40484 
L 183.775965 41.033306 
L 184.5925 42.357439 
L 185.409036 40.552125 
L 186.225572 41.413244 
L 187.042107 58.120871 
L 187.858643 82.315409 
L 188.675178 76.477928 
L 189.491714 104.548308 
L 190.308249 96.485205 
L 191.124785 73.388746 
L 191.941321 57.408952 
L 192.757856 51.018364 
L 193.574392 63.117093 
L 194.390927 119.069203 
L 196.023999 213.950337 
L 196.840534 242.416316 
L 197.65707 261.575826 
L 198.473605 272.808348 
L 199.290141 279.742394 
L 200.106676 283.951264 
L 200.923212 286.732193 
L 201.739748 288.326007 
L 202.556283 289.039508 
L 203.372819 286.9607 
L 204.189354 287.911166 
L 205.00589 285.302982 
L 205.822425 283.698641 
L 206.638961 266.329411 
L 207.455497 273.537336 
L 208.272032 279.506946 
L 209.088568 282.425877 
L 209.905103 284.389525 
L 210.721639 283.9192 
L 213.171246 134.149904 
L 213.987781 108.875904 
L 214.804317 92.820177 
L 215.620852 81.189223 
L 216.437388 77.377951 
L 218.070459 73.19511 
L 218.886995 70.951843 
L 219.70353 79.407731 
L 220.520066 86.275143 
L 221.336601 80.455391 
L 222.153137 76.571859 
L 222.969673 71.518687 
L 223.786208 69.105694 
L 224.602744 69.851974 
L 225.419279 68.495945 
L 226.235815 64.205838 
L 227.868886 72.571115 
L 228.685422 72.335688 
L 229.501957 79.826167 
L 230.318493 80.792528 
L 231.135028 72.786458 
L 231.951564 72.726981 
L 232.7681 80.259989 
L 233.584635 84.740538 
L 234.401171 97.040034 
L 235.217706 114.442276 
L 236.034242 102.421592 
L 236.850777 86.65998 
L 237.667313 74.101077 
L 238.483849 68.007467 
L 239.300384 60.23161 
L 240.11692 59.570558 
L 240.933455 58.257433 
L 241.749991 60.42414 
L 242.566526 57.308823 
L 243.383062 56.428574 
L 244.199598 55.378973 
L 245.016133 55.169523 
L 245.832669 54.664896 
L 246.649204 58.551622 
L 247.46574 63.553146 
L 248.282275 73.407453 
L 249.098811 76.841265 
L 249.915347 71.595179 
L 250.731882 64.821563 
L 251.548418 64.645913 
L 252.364953 62.47582 
L 253.181489 56.749578 
L 253.998025 58.670623 
L 254.81456 61.923798 
L 255.631096 64.672907 
L 256.447631 64.928394 
L 257.264167 70.995312 
L 258.080702 79.542155 
L 258.897238 102.970994 
L 259.713774 122.024248 
L 260.530309 123.502709 
L 261.346845 144.712811 
L 262.16338 144.870738 
L 262.979916 126.192351 
L 263.796451 112.262594 
L 265.429523 94.516878 
L 266.246058 89.441611 
L 267.062594 91.139088 
L 267.879129 107.324621 
L 268.695665 114.904666 
L 270.328736 182.199024 
L 271.145272 211.824719 
L 272.778343 248.533186 
L 273.594878 257.830998 
L 274.411414 259.553399 
L 275.22795 259.154543 
L 276.044485 253.512384 
L 276.861021 262.630154 
L 277.677556 259.834596 
L 278.494092 260.802944 
L 279.310627 258.073251 
L 280.127163 259.411467 
L 280.943699 249.697382 
L 281.760234 246.910102 
L 282.57677 250.852887 
L 283.393305 249.134018 
L 284.209841 252.902686 
L 285.026376 261.007483 
L 285.842912 259.716623 
L 286.659448 264.75856 
L 287.475983 269.04863 
L 288.292519 269.42885 
L 289.109054 273.212642 
L 289.92559 275.935573 
L 290.742125 277.777157 
L 291.558661 278.719324 
L 294.824803 280.796152 
L 295.641339 281.487694 
L 296.457875 281.825666 
L 298.090946 282.881736 
L 298.907481 283.26588 
L 299.724017 283.262331 
L 300.540552 283.053257 
L 301.357088 283.385022 
L 304.62323 283.355472 
L 305.439766 283.28007 
L 306.256301 282.853126 
L 307.072837 282.700955 
L 307.889373 282.809997 
L 308.705908 282.208979 
L 309.522444 282.480005 
L 310.338979 280.255316 
L 311.97205 280.567988 
L 312.788586 279.271945 
L 313.605122 276.626249 
L 314.421657 272.832543 
L 315.238193 269.587366 
L 316.054728 267.053574 
L 317.6878 273.554014 
L 318.504335 272.52628 
L 319.320871 270.880885 
L 320.137406 272.667231 
L 320.953942 272.5438 
L 321.770477 267.006408 
L 322.587013 264.000883 
L 323.403549 268.843672 
L 324.220084 267.002343 
L 325.03662 256.691396 
L 325.853155 256.636073 
L 326.669691 239.430582 
L 328.302762 215.343716 
L 329.119298 207.738569 
L 329.935833 174.936539 
L 330.752369 147.964256 
L 331.568904 133.849203 
L 332.38544 125.858235 
L 333.201975 109.182049 
L 334.018511 100.449294 
L 334.835047 100.596761 
L 335.651582 92.956365 
L 336.468118 87.876797 
L 337.284653 83.873141 
L 338.101189 78.845877 
L 338.917725 72.622034 
L 339.73426 67.8385 
L 340.550796 65.031837 
L 341.367331 67.38783 
L 342.183867 72.338543 
L 343.000402 82.045178 
L 344.633474 95.491501 
L 345.450009 97.346194 
L 346.266545 103.822357 
L 347.08308 102.870942 
L 347.899616 104.240484 
L 348.716151 106.457754 
L 350.349223 102.399828 
L 351.165758 97.963391 
L 351.982294 97.437927 
L 352.798829 97.929007 
L 353.615365 93.667979 
L 354.4319 93.6448 
L 355.248436 93.960108 
L 356.064972 103.24873 
L 356.881507 106.290291 
L 357.698043 110.737347 
L 358.514578 114.32466 
L 359.331114 122.403769 
L 360.14765 121.925671 
L 360.964185 122.907897 
L 361.780721 119.563556 
L 362.597256 123.379147 
L 363.413792 123.58628 
L 364.230327 132.12375 
L 365.046863 142.810117 
L 365.863399 142.240402 
L 366.679934 138.635035 
L 367.49647 147.743522 
L 368.313005 146.936577 
L 369.129541 158.31178 
L 369.946076 154.207495 
L 370.762612 153.507425 
L 371.579148 154.820843 
L 372.395683 157.197569 
L 373.212219 156.12146 
L 374.028754 155.42357 
L 374.84529 154.28498 
L 375.661825 150.685205 
L 376.478361 148.662849 
L 377.294897 147.165875 
L 378.111432 146.849752 
L 378.927968 145.436801 
L 379.744503 145.737769 
L 380.561039 142.987476 
L 381.377575 145.340082 
L 382.19411 149.454754 
L 383.010646 151.082213 
L 383.827181 149.935058 
L 384.643717 149.448724 
L 385.460252 146.40536 
L 386.276788 146.215995 
L 387.093324 147.348232 
L 387.909859 146.48208 
L 388.726395 146.521986 
L 389.54293 152.320703 
L 390.359466 150.652819 
L 391.176001 147.687029 
L 391.992537 140.00144 
L 392.809073 135.475289 
L 393.625608 133.991663 
L 394.442144 134.080505 
L 395.258679 136.97295 
L 396.075215 138.380421 
L 396.891751 131.020268 
L 397.708286 132.800566 
L 398.524822 125.493308 
L 400.157893 107.642411 
L 400.974428 114.461647 
L 401.790964 116.932689 
L 402.6075 124.310879 
L 403.424035 128.168336 
L 404.240571 126.130154 
L 405.057106 125.647442 
L 407.506713 136.892936 
L 408.323249 138.77793 
L 409.139784 138.792905 
L 409.95632 142.433193 
L 410.772855 143.29315 
L 411.589391 145.091841 
L 412.405926 147.463995 
L 413.222462 147.858779 
L 414.038998 148.857604 
L 415.672069 152.0585 
L 417.30514 154.788674 
L 418.121676 155.70007 
L 418.938211 155.799873 
L 419.754747 155.776619 
L 420.571282 155.381832 
L 421.387818 154.552052 
L 422.204353 148.096431 
L 423.020889 145.335871 
L 423.837425 139.103189 
L 424.65396 137.616344 
L 425.470496 137.63986 
L 426.287031 140.096855 
L 427.103567 143.027533 
L 427.920102 142.831544 
L 428.736638 139.665998 
L 429.553174 135.757679 
L 431.186245 124.379704 
L 432.00278 126.381531 
L 432.819316 128.717158 
L 433.635851 126.26445 
L 434.452387 130.94471 
L 435.268923 131.964736 
L 436.085458 134.794341 
L 436.901994 136.631269 
L 437.718529 137.658912 
L 438.535065 138.080602 
L 440.168136 136.96856 
L 440.984672 135.663048 
L 441.801207 122.024941 
L 442.617743 120.800693 
L 443.434278 124.236019 
L 444.250814 122.620377 
L 445.06735 124.718016 
L 447.516956 135.970701 
L 448.333492 137.984814 
L 449.150027 138.283819 
L 449.966563 139.825007 
L 450.783099 136.361473 
L 451.599634 133.721115 
L 452.41617 133.158731 
L 453.232705 132.863096 
L 454.865776 128.088148 
L 455.682312 127.759322 
L 456.498848 126.928763 
L 457.315383 128.535644 
L 458.131919 130.828991 
L 458.948454 131.52967 
L 460.581526 134.687805 
L 461.398061 134.696517 
L 462.214597 135.028477 
L 463.031132 135.8055 
L 463.847668 135.33441 
L 464.664203 135.203183 
L 465.480739 135.607988 
L 466.297275 137.32158 
L 467.11381 137.673047 
L 467.930346 137.799199 
L 468.746881 137.687303 
L 469.563417 135.673932 
L 470.379952 134.317243 
L 471.196488 135.712138 
L 472.013024 136.385526 
L 472.829559 138.280129 
L 473.646095 137.681789 
L 474.46263 138.256235 
L 475.279166 137.612833 
L 476.095701 137.301431 
L 476.912237 139.003437 
L 477.728773 138.920609 
L 479.361844 141.839759 
L 480.178379 143.536548 
L 480.994915 141.973937 
L 481.811451 140.785193 
L 482.627986 142.198799 
L 483.444522 142.822458 
L 484.261057 144.357129 
L 485.077593 152.600831 
L 485.894128 152.484252 
L 486.710664 153.473552 
L 487.5272 152.917648 
L 488.343735 149.061833 
L 489.976806 154.389482 
L 490.793342 155.190747 
L 491.609877 157.122479 
L 493.242949 157.249309 
L 494.059484 158.286742 
L 494.87602 158.920618 
L 496.509091 159.580026 
L 496.509091 159.580026 
" clip-path="url(#pf7192f023d)" style="fill: none; stroke: #ff7f0e; stroke-width: 1.5; stroke-linecap: square"/>
   </g>
   <g id="line2d_25">
    <path d="M 90.690909 292.544376 
L 108.654692 292.552125 
L 109.471227 292.468595 
L 113.553905 292.542912 
L 145.398793 292.489442 
L 148.664935 292.54027 
L 149.481471 292.345469 
L 150.298006 292.295012 
L 151.931077 292.374647 
L 155.19722 292.398181 
L 158.463362 292.504168 
L 163.362575 292.526521 
L 165.812182 292.470174 
L 169.89486 292.511129 
L 176.427145 292.191409 
L 178.060216 292.313383 
L 179.693287 292.312265 
L 183.775965 292.453052 
L 186.225572 292.433652 
L 187.858643 292.366752 
L 189.491714 292.378894 
L 194.390927 292.449321 
L 196.023999 292.462391 
L 199.290141 292.488508 
L 200.106676 292.38072 
L 201.739748 292.415227 
L 203.372819 292.375481 
L 205.00589 292.357741 
L 209.905103 292.316503 
L 212.35471 292.349771 
L 214.804317 292.278978 
L 218.070459 291.994625 
L 218.886995 292.121099 
L 220.520066 291.976171 
L 223.786208 291.741629 
L 225.419279 291.386201 
L 226.235815 291.683359 
L 228.685422 292.009244 
L 231.135028 292.06115 
L 232.7681 291.10791 
L 233.584635 291.468319 
L 234.401171 291.332065 
L 235.217706 291.492144 
L 236.850777 292.094679 
L 237.667313 291.903736 
L 238.483849 291.427354 
L 239.300384 291.111632 
L 240.11692 290.441219 
L 240.933455 290.266104 
L 241.749991 290.468177 
L 242.566526 289.774123 
L 243.383062 290.313634 
L 244.199598 290.178123 
L 245.016133 290.256985 
L 246.649204 291.066206 
L 248.282275 291.481431 
L 249.098811 291.508779 
L 250.731882 291.830263 
L 251.548418 291.491646 
L 252.364953 291.691282 
L 253.998025 291.46249 
L 254.81456 291.635268 
L 256.447631 291.047707 
L 257.264167 291.069335 
L 259.713774 290.183615 
L 260.530309 290.730067 
L 261.346845 290.956927 
L 262.16338 291.026703 
L 262.979916 290.528308 
L 263.796451 290.929134 
L 264.612987 290.745821 
L 266.246058 291.032317 
L 267.062594 291.057364 
L 267.879129 290.933684 
L 270.328736 291.256371 
L 271.145272 291.373712 
L 271.961807 291.327841 
L 272.778343 291.475551 
L 274.411414 291.956553 
L 276.044485 291.735884 
L 277.677556 291.260544 
L 279.310627 291.161348 
L 280.943699 290.541818 
L 281.760234 290.901053 
L 282.57677 290.941629 
L 283.393305 291.229363 
L 285.026376 290.70071 
L 285.842912 290.874103 
L 286.659448 290.846522 
L 287.475983 291.040199 
L 289.109054 291.636623 
L 289.92559 291.699214 
L 291.558661 291.974115 
L 292.375197 292.086472 
L 293.191732 292.035302 
L 294.824803 291.605644 
L 295.641339 291.496195 
L 296.457875 290.746321 
L 297.27441 290.189776 
L 298.907481 290.519795 
L 299.724017 290.167337 
L 300.540552 290.503175 
L 301.357088 290.512327 
L 302.173624 290.324937 
L 303.806695 290.427524 
L 304.62323 290.797956 
L 305.439766 290.899133 
L 306.256301 290.874051 
L 307.072837 291.055655 
L 307.889373 291.108872 
L 308.705908 291.381418 
L 309.522444 291.517282 
L 311.155515 291.543638 
L 311.97205 291.215305 
L 313.605122 290.889783 
L 314.421657 290.884038 
L 315.238193 291.112206 
L 317.6878 291.474032 
L 318.504335 291.586614 
L 319.320871 291.329362 
L 320.137406 290.727707 
L 322.587013 290.547301 
L 323.403549 290.236809 
L 325.03662 291.063779 
L 325.853155 290.87602 
L 326.669691 290.997018 
L 327.486226 291.288894 
L 328.302762 291.192601 
L 329.119298 290.207028 
L 329.935833 289.864043 
L 330.752369 290.186906 
L 331.568904 290.262793 
L 332.38544 290.788212 
L 334.018511 291.090185 
L 335.651582 290.601491 
L 336.468118 290.87419 
L 337.284653 291.264836 
L 338.101189 291.364378 
L 338.917725 290.419313 
L 339.73426 289.937264 
L 340.550796 289.617912 
L 341.367331 289.585461 
L 343.000402 289.194554 
L 343.816938 289.481995 
L 344.633474 289.236856 
L 345.450009 289.870396 
L 346.266545 289.674069 
L 347.08308 289.610175 
L 347.899616 290.055637 
L 348.716151 289.769489 
L 349.532687 289.872552 
L 350.349223 289.422437 
L 351.982294 288.954399 
L 352.798829 288.878435 
L 353.615365 289.085137 
L 355.248436 288.835133 
L 356.881507 289.710219 
L 357.698043 289.676931 
L 358.514578 289.440314 
L 359.331114 289.633163 
L 360.14765 288.724871 
L 360.964185 288.805823 
L 361.780721 288.681665 
L 363.413792 289.058127 
L 365.046863 290.078286 
L 365.863399 289.951024 
L 366.679934 290.172204 
L 367.49647 290.264109 
L 368.313005 290.708421 
L 369.129541 290.971254 
L 369.946076 291.410044 
L 370.762612 291.345983 
L 372.395683 291.590933 
L 373.212219 291.177358 
L 376.478361 291.016772 
L 377.294897 291.234046 
L 378.111432 291.315143 
L 378.927968 290.629726 
L 379.744503 290.560996 
L 380.561039 289.993811 
L 383.010646 289.770116 
L 384.643717 290.300971 
L 385.460252 290.217158 
L 386.276788 289.317185 
L 387.909859 289.872961 
L 388.726395 290.041997 
L 389.54293 290.094168 
L 391.176001 290.660254 
L 391.992537 290.515131 
L 392.809073 290.130694 
L 393.625608 290.136278 
L 394.442144 289.380867 
L 395.258679 289.237715 
L 396.075215 288.605512 
L 396.891751 288.39196 
L 397.708286 288.414997 
L 398.524822 289.382068 
L 399.341357 290.056134 
L 400.157893 288.991051 
L 401.790964 289.180281 
L 402.6075 288.726641 
L 404.240571 289.23512 
L 405.057106 290.063857 
L 405.873642 289.871513 
L 407.506713 289.856066 
L 408.323249 289.968379 
L 409.139784 289.844238 
L 409.95632 289.953457 
L 410.772855 289.381631 
L 412.405926 290.068252 
L 413.222462 289.808111 
L 414.038998 288.628105 
L 414.855533 288.148539 
L 417.30514 289.555182 
L 418.121676 290.254847 
L 418.938211 290.545567 
L 419.754747 291.023857 
L 421.387818 291.457976 
L 422.204353 291.444441 
L 425.470496 290.457648 
L 426.287031 289.838173 
L 427.103567 289.827758 
L 427.920102 290.27081 
L 430.369709 289.97076 
L 431.186245 290.489561 
L 432.00278 290.686209 
L 432.819316 290.636859 
L 434.452387 291.031474 
L 436.085458 291.080111 
L 436.901994 291.322849 
L 437.718529 291.352498 
L 438.535065 291.008484 
L 440.168136 290.779547 
L 441.801207 291.007721 
L 442.617743 290.503954 
L 443.434278 290.417216 
L 444.250814 290.550954 
L 445.06735 289.923839 
L 445.883885 290.362281 
L 446.700421 290.147487 
L 447.516956 290.527227 
L 448.333492 290.566252 
L 449.966563 290.930732 
L 450.783099 290.924047 
L 451.599634 291.211535 
L 452.41617 291.139469 
L 453.232705 291.276533 
L 454.049241 291.28924 
L 454.865776 291.184453 
L 455.682312 290.865127 
L 456.498848 290.068498 
L 457.315383 290.435451 
L 458.131919 290.272834 
L 458.948454 290.509261 
L 460.581526 290.517603 
L 462.214597 291.281404 
L 463.031132 291.253377 
L 463.847668 291.404947 
L 464.664203 291.349576 
L 465.480739 291.547245 
L 466.297275 291.360537 
L 467.11381 291.49647 
L 467.930346 291.500336 
L 468.746881 291.375179 
L 470.379952 291.658778 
L 471.196488 291.536238 
L 472.013024 291.259502 
L 472.829559 291.123013 
L 474.46263 290.339372 
L 475.279166 290.636954 
L 476.095701 289.94572 
L 476.912237 289.783292 
L 477.728773 289.816922 
L 479.361844 290.473191 
L 480.178379 290.090495 
L 480.994915 289.856942 
L 481.811451 289.763408 
L 482.627986 290.224938 
L 483.444522 290.536803 
L 484.261057 289.8203 
L 486.710664 290.603578 
L 487.5272 290.20295 
L 488.343735 290.474388 
L 489.160271 290.946962 
L 491.609877 291.234738 
L 494.059484 290.687645 
L 494.87602 291.239641 
L 496.509091 291.450278 
L 496.509091 291.450278 
" clip-path="url(#pf7192f023d)" style="fill: none; stroke: #2ca02c; stroke-width: 1.5; stroke-linecap: square"/>
   </g>
   <g id="line2d_26">
    <path d="M 90.690909 289.620796 
L 91.507445 289.4273 
L 92.32398 286.960149 
L 93.140516 284.078657 
L 93.957051 280.493133 
L 94.773587 282.963832 
L 95.590123 282.774364 
L 96.406658 281.793722 
L 97.223194 283.97232 
L 98.039729 282.0012 
L 98.856265 279.252449 
L 99.6728 274.379012 
L 100.489336 270.422132 
L 101.305872 270.29736 
L 102.122407 261.262745 
L 102.938943 267.432443 
L 103.755478 268.59596 
L 104.572014 267.975061 
L 105.388549 267.053999 
L 106.205085 265.248481 
L 107.021621 268.734467 
L 107.838156 263.742551 
L 108.654692 269.705912 
L 109.471227 264.461802 
L 110.287763 260.662758 
L 111.104299 268.965631 
L 111.920834 270.537534 
L 112.73737 274.177721 
L 113.553905 270.794088 
L 114.370441 269.859318 
L 115.186976 269.388154 
L 116.003512 269.752914 
L 116.820048 267.994926 
L 117.636583 271.968901 
L 118.453119 266.291506 
L 119.269654 257.985111 
L 120.08619 255.767705 
L 120.902725 263.835116 
L 121.719261 268.194401 
L 122.535797 266.844603 
L 123.352332 274.322181 
L 124.168868 266.628779 
L 124.985403 257.544902 
L 125.801939 252.434902 
L 126.618474 250.775128 
L 127.43501 252.140353 
L 128.251546 255.349081 
L 129.068081 257.495336 
L 129.884617 255.491108 
L 130.701152 257.238821 
L 131.517688 258.229515 
L 132.334224 258.861062 
L 133.150759 266.615568 
L 133.967295 269.415044 
L 134.78383 268.076566 
L 135.600366 251.799164 
L 136.416901 255.796536 
L 137.233437 258.909374 
L 138.049973 253.165228 
L 138.866508 254.236887 
L 139.683044 254.439036 
L 140.499579 257.876157 
L 141.316115 252.939307 
L 142.13265 253.522751 
L 142.949186 252.447144 
L 143.765722 255.725556 
L 144.582257 256.17505 
L 145.398793 253.032703 
L 146.215328 248.209776 
L 147.031864 249.143556 
L 148.664935 246.00954 
L 149.481471 253.284248 
L 150.298006 246.974805 
L 151.114542 243.053728 
L 151.931077 244.865547 
L 153.564149 226.086601 
L 154.380684 226.763505 
L 156.013755 243.20603 
L 156.830291 246.083746 
L 157.646826 247.049557 
L 158.463362 251.220936 
L 159.279898 254.402711 
L 160.096433 259.1489 
L 160.912969 251.592698 
L 161.729504 255.349998 
L 162.54604 260.164186 
L 163.362575 261.313755 
L 164.179111 253.772934 
L 164.995647 242.616792 
L 165.812182 237.903141 
L 166.628718 242.560102 
L 167.445253 236.933706 
L 168.261789 235.649781 
L 169.078324 241.743208 
L 169.89486 249.968647 
L 170.711396 242.432638 
L 171.527931 251.511347 
L 172.344467 246.596418 
L 173.161002 244.950513 
L 173.977538 236.935236 
L 174.794074 239.636475 
L 175.610609 235.177716 
L 176.427145 235.431495 
L 177.24368 246.575396 
L 178.060216 236.120516 
L 178.876751 240.49915 
L 180.509823 246.270527 
L 181.326358 256.498777 
L 182.142894 259.145223 
L 182.959429 259.776667 
L 183.775965 244.451619 
L 184.5925 247.162949 
L 185.409036 247.55607 
L 186.225572 246.718348 
L 187.042107 246.731081 
L 187.858643 239.83936 
L 188.675178 239.068007 
L 189.491714 229.425706 
L 190.308249 229.932456 
L 191.124785 238.402296 
L 191.941321 238.131777 
L 192.757856 241.697196 
L 193.574392 241.023565 
L 194.390927 239.593749 
L 195.207463 243.183386 
L 196.023999 253.839672 
L 196.840534 256.917541 
L 198.473605 264.947253 
L 199.290141 265.288196 
L 200.106676 262.114133 
L 200.923212 264.973896 
L 201.739748 264.171397 
L 202.556283 262.349693 
L 203.372819 262.895131 
L 204.189354 257.335723 
L 205.00589 253.793805 
L 205.822425 252.448531 
L 206.638961 249.643518 
L 207.455497 252.233597 
L 208.272032 248.931463 
L 209.088568 241.999216 
L 209.905103 240.319531 
L 210.721639 249.111539 
L 211.538175 248.44115 
L 212.35471 247.469631 
L 213.171246 243.836602 
L 213.987781 247.62293 
L 214.804317 248.476259 
L 215.620852 240.054498 
L 216.437388 235.853449 
L 217.253924 234.909042 
L 218.070459 235.961408 
L 218.886995 239.691878 
L 219.70353 247.261833 
L 220.520066 248.933518 
L 221.336601 242.279208 
L 222.153137 243.231269 
L 222.969673 245.127197 
L 223.786208 247.589233 
L 224.602744 245.993131 
L 225.419279 249.877476 
L 226.235815 250.069872 
L 227.05235 253.33306 
L 227.868886 255.219729 
L 228.685422 256.325438 
L 230.318493 255.233299 
L 231.135028 252.522762 
L 231.951564 248.562418 
L 232.7681 250.657897 
L 233.584635 251.100125 
L 234.401171 256.930528 
L 235.217706 258.058937 
L 237.667313 262.814084 
L 238.483849 260.081982 
L 239.300384 260.512881 
L 240.11692 256.384529 
L 240.933455 259.379154 
L 241.749991 255.007381 
L 242.566526 257.62902 
L 243.383062 259.772248 
L 244.199598 261.495421 
L 245.016133 262.089148 
L 245.832669 261.290575 
L 246.649204 261.475803 
L 247.46574 262.17406 
L 248.282275 260.522034 
L 249.098811 257.572027 
L 249.915347 259.266085 
L 250.731882 264.365417 
L 251.548418 257.292922 
L 252.364953 262.615059 
L 253.181489 255.534673 
L 253.998025 253.594195 
L 254.81456 250.766793 
L 255.631096 255.312134 
L 256.447631 256.926365 
L 257.264167 257.687625 
L 258.080702 255.682011 
L 258.897238 259.621205 
L 259.713774 259.695075 
L 260.530309 259.404315 
L 261.346845 256.796253 
L 262.16338 254.852609 
L 262.979916 254.259096 
L 263.796451 256.368863 
L 264.612987 256.357011 
L 265.429523 255.994039 
L 266.246058 252.387274 
L 267.062594 256.362544 
L 267.879129 251.875521 
L 268.695665 248.034329 
L 269.5122 246.980248 
L 270.328736 247.181962 
L 271.145272 246.527143 
L 271.961807 246.07297 
L 272.778343 245.400232 
L 273.594878 249.358215 
L 274.411414 245.341628 
L 275.22795 239.680333 
L 276.044485 242.140959 
L 276.861021 249.645778 
L 277.677556 251.144766 
L 278.494092 251.400955 
L 279.310627 251.523714 
L 280.127163 254.227007 
L 280.943699 253.75083 
L 281.760234 254.549275 
L 282.57677 257.418696 
L 283.393305 257.789554 
L 284.209841 257.355634 
L 285.026376 257.86274 
L 285.842912 260.018526 
L 286.659448 260.83241 
L 287.475983 257.925152 
L 288.292519 258.012952 
L 289.109054 258.963678 
L 289.92559 253.207101 
L 290.742125 257.321937 
L 291.558661 259.497087 
L 292.375197 260.32018 
L 293.191732 260.360517 
L 294.008268 261.186683 
L 294.824803 253.094411 
L 296.457875 244.879603 
L 297.27441 249.525946 
L 298.090946 240.70421 
L 298.907481 238.547088 
L 299.724017 235.627757 
L 300.540552 233.160067 
L 301.357088 229.755077 
L 302.173624 229.726969 
L 302.990159 227.596017 
L 303.806695 234.314666 
L 304.62323 239.554476 
L 305.439766 237.674466 
L 306.256301 232.069887 
L 307.072837 236.186855 
L 307.889373 235.665757 
L 308.705908 234.789538 
L 309.522444 233.071838 
L 311.155515 244.411894 
L 311.97205 245.959058 
L 312.788586 251.115848 
L 313.605122 251.274815 
L 314.421657 251.805007 
L 315.238193 252.049225 
L 316.054728 257.243572 
L 316.871264 261.018138 
L 317.6878 260.392296 
L 318.504335 255.132375 
L 319.320871 254.726504 
L 320.137406 253.005895 
L 320.953942 254.440797 
L 321.770477 258.382479 
L 322.587013 257.107664 
L 323.403549 259.527841 
L 324.220084 258.91395 
L 325.03662 262.542107 
L 325.853155 264.953949 
L 326.669691 264.198071 
L 327.486226 265.353006 
L 328.302762 265.073894 
L 329.119298 263.973634 
L 329.935833 259.887517 
L 330.752369 257.461314 
L 331.568904 259.200951 
L 332.38544 254.026548 
L 333.201975 252.42238 
L 334.018511 255.386455 
L 334.835047 259.624689 
L 335.651582 259.85596 
L 336.468118 259.491669 
L 337.284653 256.177514 
L 338.101189 257.668779 
L 338.917725 257.48558 
L 339.73426 260.374707 
L 340.550796 261.175254 
L 341.367331 262.15266 
L 342.183867 260.930206 
L 343.000402 257.268051 
L 343.816938 256.547677 
L 344.633474 251.270205 
L 345.450009 258.365232 
L 346.266545 260.966307 
L 347.08308 259.836889 
L 347.899616 257.092083 
L 348.716151 257.476807 
L 349.532687 262.805727 
L 350.349223 267.034103 
L 351.165758 264.648847 
L 351.982294 267.434992 
L 352.798829 267.421277 
L 354.4319 262.801762 
L 355.248436 264.184734 
L 356.064972 263.849616 
L 356.881507 258.267398 
L 357.698043 259.337215 
L 358.514578 262.415457 
L 359.331114 263.803803 
L 360.14765 262.538374 
L 360.964185 262.340505 
L 361.780721 257.082345 
L 363.413792 255.630337 
L 364.230327 253.944537 
L 365.046863 255.552865 
L 365.863399 251.701563 
L 366.679934 251.553811 
L 367.49647 250.333318 
L 368.313005 251.758314 
L 369.129541 250.511457 
L 369.946076 252.59815 
L 370.762612 249.029003 
L 371.579148 247.575103 
L 372.395683 243.092956 
L 373.212219 241.576227 
L 374.028754 242.727974 
L 374.84529 238.36012 
L 375.661825 240.746185 
L 376.478361 243.720357 
L 377.294897 243.828948 
L 378.111432 249.798595 
L 379.744503 254.268877 
L 380.561039 255.910924 
L 381.377575 256.294329 
L 382.19411 257.739963 
L 383.010646 257.203811 
L 383.827181 256.293548 
L 384.643717 256.149291 
L 385.460252 255.5319 
L 386.276788 256.194065 
L 387.093324 257.295997 
L 387.909859 257.611968 
L 388.726395 252.577627 
L 389.54293 249.700249 
L 390.359466 253.1607 
L 391.176001 254.773657 
L 391.992537 250.577862 
L 392.809073 252.29118 
L 393.625608 254.546103 
L 394.442144 259.290915 
L 395.258679 257.427676 
L 396.075215 258.764058 
L 396.891751 259.722535 
L 397.708286 262.042833 
L 398.524822 263.86521 
L 399.341357 261.197466 
L 400.157893 260.764729 
L 400.974428 261.69204 
L 401.790964 261.87877 
L 402.6075 257.879685 
L 403.424035 257.759731 
L 405.057106 260.389839 
L 405.873642 259.829885 
L 406.690177 260.043039 
L 407.506713 259.890809 
L 408.323249 258.746238 
L 409.139784 257.950146 
L 409.95632 255.859279 
L 410.772855 256.350497 
L 411.589391 253.278565 
L 412.405926 247.236964 
L 413.222462 252.126667 
L 414.038998 253.733377 
L 414.855533 251.703149 
L 415.672069 252.590838 
L 416.488604 254.753893 
L 417.30514 252.240606 
L 418.121676 251.427208 
L 418.938211 251.440978 
L 419.754747 253.915414 
L 420.571282 253.768974 
L 421.387818 250.469771 
L 422.204353 256.20985 
L 423.020889 252.389799 
L 423.837425 249.558692 
L 424.65396 252.238202 
L 425.470496 252.307782 
L 426.287031 256.298831 
L 427.103567 257.446841 
L 427.920102 256.153694 
L 428.736638 256.253339 
L 429.553174 254.107045 
L 430.369709 256.749234 
L 431.186245 257.990466 
L 432.00278 260.322237 
L 432.819316 260.912981 
L 433.635851 259.361956 
L 434.452387 258.287003 
L 435.268923 256.927548 
L 436.085458 254.053539 
L 436.901994 253.127057 
L 437.718529 251.488258 
L 438.535065 250.375952 
L 439.351601 251.999182 
L 440.168136 248.872239 
L 440.984672 252.57804 
L 441.801207 257.251875 
L 442.617743 257.389322 
L 443.434278 256.482832 
L 444.250814 254.594287 
L 445.06735 254.607594 
L 445.883885 256.879041 
L 446.700421 256.795248 
L 447.516956 259.144166 
L 448.333492 257.88245 
L 449.150027 259.426108 
L 449.966563 255.021687 
L 450.783099 256.863398 
L 451.599634 257.190126 
L 452.41617 258.403059 
L 453.232705 258.012854 
L 454.049241 256.755888 
L 454.865776 256.221351 
L 455.682312 257.226761 
L 457.315383 257.626437 
L 458.131919 257.017825 
L 458.948454 256.213105 
L 459.76499 256.164619 
L 460.581526 256.522624 
L 461.398061 252.922 
L 462.214597 252.018567 
L 463.031132 252.948434 
L 463.847668 255.436425 
L 464.664203 255.412054 
L 465.480739 257.273791 
L 466.297275 258.199124 
L 467.930346 256.521978 
L 468.746881 256.551948 
L 469.563417 255.18323 
L 470.379952 255.506594 
L 471.196488 255.976185 
L 472.013024 257.257087 
L 472.829559 257.739415 
L 474.46263 257.630096 
L 475.279166 254.417988 
L 476.095701 255.900233 
L 476.912237 253.592684 
L 477.728773 252.332512 
L 478.545308 248.604901 
L 479.361844 249.179808 
L 480.178379 250.340143 
L 480.994915 250.063423 
L 481.811451 251.946193 
L 482.627986 251.797374 
L 483.444522 253.66957 
L 484.261057 253.119717 
L 485.077593 252.103312 
L 485.894128 250.228348 
L 486.710664 251.040865 
L 487.5272 252.166824 
L 488.343735 255.325299 
L 489.160271 255.36311 
L 489.976806 256.414148 
L 490.793342 258.380153 
L 491.609877 258.424596 
L 492.426413 258.35384 
L 493.242949 251.41344 
L 494.059484 254.742535 
L 494.87602 254.81547 
L 495.692555 255.775212 
L 496.509091 256.551669 
L 496.509091 256.551669 
" clip-path="url(#pf7192f023d)" style="fill: none; stroke: #d62728; stroke-width: 1.5; stroke-linecap: square"/>
   </g>
   <g id="line2d_27">
    <path d="M 90.690909 279.336024 
L 91.507445 279.395693 
L 92.32398 279.240359 
L 93.957051 279.526859 
L 94.773587 279.669088 
L 95.590123 279.313719 
L 96.406658 279.168909 
L 97.223194 278.882507 
L 98.039729 278.728283 
L 98.856265 278.955963 
L 99.6728 278.886264 
L 100.489336 279.336363 
L 101.305872 279.34808 
L 102.122407 279.021594 
L 103.755478 279.383125 
L 105.388549 279.696216 
L 106.205085 279.201794 
L 107.838156 279.541028 
L 108.654692 280.142746 
L 111.920834 281.203843 
L 112.73737 281.057285 
L 113.553905 280.438005 
L 114.370441 280.443622 
L 115.186976 280.279286 
L 116.820048 280.320226 
L 117.636583 280.518553 
L 118.453119 280.377837 
L 119.269654 279.918395 
L 120.08619 278.985016 
L 120.902725 279.238122 
L 121.719261 279.225987 
L 122.535797 279.071983 
L 123.352332 279.139047 
L 124.168868 279.078135 
L 125.801939 277.699732 
L 127.43501 277.171739 
L 128.251546 277.100841 
L 129.068081 277.182939 
L 132.334224 278.093025 
L 133.150759 278.016532 
L 133.967295 278.207895 
L 135.600366 277.742614 
L 136.416901 277.332023 
L 137.233437 277.142327 
L 138.866508 277.025882 
L 139.683044 276.782042 
L 142.949186 276.363509 
L 143.765722 276.165255 
L 144.582257 275.847053 
L 145.398793 275.653643 
L 146.215328 275.633907 
L 147.031864 275.39105 
L 147.848399 275.425882 
L 148.664935 275.667907 
L 149.481471 275.697492 
L 150.298006 275.577711 
L 152.747613 276.257665 
L 153.564149 276.202812 
L 154.380684 276.014073 
L 155.19722 275.971102 
L 156.830291 276.525474 
L 160.096433 276.987054 
L 161.729504 276.771462 
L 164.179111 276.630029 
L 165.812182 276.337495 
L 166.628718 276.292883 
L 167.445253 276.069771 
L 169.078324 275.968662 
L 169.89486 276.136588 
L 171.527931 276.167068 
L 172.344467 275.953127 
L 173.161002 276.03894 
L 174.794074 275.916792 
L 176.427145 275.472538 
L 178.060216 275.41769 
L 180.509823 276.524316 
L 181.326358 276.731604 
L 182.959429 277.740892 
L 183.775965 277.926105 
L 187.858643 276.395284 
L 188.675178 276.279262 
L 189.491714 275.913013 
L 190.308249 275.976814 
L 191.124785 276.171469 
L 191.941321 276.202423 
L 192.757856 276.345281 
L 193.574392 276.320133 
L 194.390927 275.928009 
L 195.207463 275.409865 
L 196.023999 274.376146 
L 196.840534 274.447924 
L 197.65707 273.649874 
L 198.473605 273.461397 
L 199.290141 273.431087 
L 200.106676 273.621175 
L 200.923212 273.655049 
L 201.739748 273.488525 
L 204.189354 274.870131 
L 205.00589 275.075003 
L 205.822425 275.148801 
L 206.638961 275.342274 
L 207.455497 275.097701 
L 209.088568 275.173285 
L 209.905103 275.130882 
L 210.721639 274.847488 
L 211.538175 274.739585 
L 212.35471 274.975003 
L 213.171246 275.049219 
L 213.987781 275.263827 
L 214.804317 275.229724 
L 215.620852 275.315798 
L 218.070459 274.795038 
L 218.886995 274.945757 
L 220.520066 274.316152 
L 221.336601 274.417534 
L 222.153137 274.181911 
L 223.786208 274.227501 
L 224.602744 273.886402 
L 225.419279 273.855093 
L 226.235815 274.259979 
L 227.05235 274.522536 
L 227.868886 274.584441 
L 229.501957 274.848208 
L 231.135028 274.844081 
L 231.951564 274.67601 
L 233.584635 275.241515 
L 236.034242 275.288565 
L 238.483849 275.552961 
L 239.300384 275.417133 
L 240.11692 275.14036 
L 240.933455 275.311466 
L 242.566526 274.95004 
L 243.383062 275.233365 
L 244.199598 275.101231 
L 247.46574 275.510953 
L 248.282275 275.565708 
L 249.915347 275.34167 
L 251.548418 275.311323 
L 252.364953 275.446104 
L 253.181489 275.706424 
L 253.998025 275.670823 
L 258.080702 274.47684 
L 258.897238 274.051813 
L 259.713774 273.460353 
L 260.530309 273.411759 
L 261.346845 273.180706 
L 262.16338 273.235026 
L 262.979916 273.406717 
L 263.796451 273.841664 
L 266.246058 274.653958 
L 268.695665 275.102297 
L 274.411414 274.817399 
L 276.861021 274.971703 
L 277.677556 274.960878 
L 278.494092 274.831702 
L 281.760234 274.856356 
L 287.475983 274.588819 
L 288.292519 274.676782 
L 289.109054 274.611732 
L 289.92559 274.124574 
L 292.375197 273.159019 
L 294.008268 273.101296 
L 294.824803 273.128129 
L 298.907481 274.099507 
L 299.724017 274.171028 
L 301.357088 274.109439 
L 302.173624 274.182786 
L 302.990159 273.872339 
L 303.806695 273.767764 
L 304.62323 273.882755 
L 305.439766 273.69462 
L 307.889373 273.864503 
L 311.155515 274.421469 
L 312.788586 274.261559 
L 314.421657 274.327532 
L 315.238193 274.484269 
L 320.137406 274.718624 
L 323.403549 274.827152 
L 324.220084 274.77894 
L 325.853155 274.974443 
L 345.450009 274.965451 
L 347.08308 274.891746 
L 351.165758 274.944256 
L 354.4319 275.022961 
L 357.698043 274.850585 
L 359.331114 274.721739 
L 361.780721 274.862301 
L 362.597256 274.98939 
L 363.413792 274.99195 
L 364.230327 274.79215 
L 367.49647 274.775478 
L 368.313005 274.751254 
L 369.129541 274.534326 
L 369.946076 274.66288 
L 370.762612 274.507368 
L 372.395683 274.396442 
L 373.212219 274.320704 
L 374.028754 274.498375 
L 374.84529 274.450654 
L 375.661825 274.715374 
L 376.478361 274.681152 
L 377.294897 274.794265 
L 379.744503 274.625309 
L 381.377575 274.790879 
L 384.643717 274.762875 
L 387.909859 274.161643 
L 389.54293 274.661378 
L 391.176001 274.632193 
L 393.625608 274.454388 
L 400.157893 274.560025 
L 401.790964 274.370054 
L 403.424035 274.473945 
L 405.873642 274.559544 
L 406.690177 274.407144 
L 409.139784 274.428847 
L 410.772855 274.246424 
L 414.855533 274.015791 
L 416.488604 273.666344 
L 418.938211 273.664723 
L 420.571282 273.902204 
L 421.387818 273.646321 
L 422.204353 273.642459 
L 423.837425 273.956821 
L 424.65396 273.920923 
L 425.470496 274.098934 
L 427.103567 274.028943 
L 427.920102 274.104057 
L 428.736638 273.97583 
L 430.369709 274.066929 
L 431.186245 274.281219 
L 433.635851 274.45752 
L 434.452387 274.173033 
L 436.085458 274.2832 
L 436.901994 274.109604 
L 438.535065 273.573247 
L 439.351601 273.622501 
L 440.168136 273.51368 
L 440.984672 273.874316 
L 441.801207 274.107728 
L 442.617743 274.013068 
L 445.06735 274.533766 
L 446.700421 274.603072 
L 447.516956 274.447815 
L 448.333492 273.779098 
L 449.150027 273.565078 
L 449.966563 273.573503 
L 451.599634 274.113423 
L 452.41617 273.954494 
L 453.232705 273.48337 
L 454.865776 273.187252 
L 456.498848 273.771195 
L 458.131919 273.359546 
L 458.948454 273.312216 
L 459.76499 272.980411 
L 461.398061 272.771911 
L 462.214597 272.757719 
L 463.031132 273.07811 
L 463.847668 272.861622 
L 464.664203 272.764521 
L 465.480739 272.403473 
L 468.746881 272.864595 
L 471.196488 272.724549 
L 472.013024 272.854382 
L 472.829559 273.229105 
L 475.279166 273.745082 
L 479.361844 273.728034 
L 480.178379 273.70472 
L 480.994915 273.512889 
L 481.811451 272.978161 
L 482.627986 272.676371 
L 483.444522 272.598112 
L 484.261057 272.691175 
L 485.894128 272.020222 
L 486.710664 271.954045 
L 489.976806 272.696889 
L 490.793342 273.012312 
L 493.242949 273.233422 
L 494.059484 273.04016 
L 496.509091 273.138895 
L 496.509091 273.138895 
" clip-path="url(#pf7192f023d)" style="fill: none; stroke: #9467bd; stroke-width: 1.5; stroke-linecap: square"/>
   </g>
   <g id="patch_3">
    <path d="M 70.4 305.152125 
L 70.4 27.952125 
" style="fill: none; stroke: #000000; stroke-width: 0.8; stroke-linejoin: miter; stroke-linecap: square"/>
   </g>
   <g id="patch_4">
    <path d="M 516.8 305.152125 
L 516.8 27.952125 
" style="fill: none; stroke: #000000; stroke-width: 0.8; stroke-linejoin: miter; stroke-linecap: square"/>
   </g>
   <g id="patch_5">
    <path d="M 70.4 305.152125 
L 516.8 305.152125 
" style="fill: none; stroke: #000000; stroke-width: 0.8; stroke-linejoin: miter; stroke-linecap: square"/>
   </g>
   <g id="patch_6">
    <path d="M 70.4 27.952125 
L 516.8 27.952125 
" style="fill: none; stroke: #000000; stroke-width: 0.8; stroke-linejoin: miter; stroke-linecap: square"/>
   </g>
   <g id="text_15">
    <!-- ML10 Meta Testing -->
    <g transform="translate(206.604313 21.952125)scale(0.216 -0.216)">
     <defs>
      <path id="STIXGeneral-Regular-4d" d="M 5530 0 
L 3738 0 
L 3738 122 
Q 4115 147 4214 265 
Q 4314 384 4314 787 
L 4314 3661 
L 2682 0 
L 2592 0 
L 979 3514 
L 979 966 
Q 979 448 1088 294 
Q 1197 141 1574 122 
L 1574 0 
L 77 0 
L 77 122 
Q 358 141 480 205 
Q 602 269 650 432 
Q 698 595 698 966 
L 698 3514 
Q 698 3878 589 3984 
Q 480 4090 90 4115 
L 90 4237 
L 1357 4237 
L 2835 1024 
L 4250 4237 
L 5523 4237 
L 5523 4115 
Q 5178 4109 5072 3993 
Q 4966 3878 4966 3520 
L 4966 717 
Q 4966 378 5072 262 
Q 5178 147 5530 122 
L 5530 0 
z
" transform="scale(0.015625)"/>
      <path id="STIXGeneral-Regular-4c" d="M 3827 1114 
L 3520 0 
L 77 0 
L 77 122 
Q 429 141 531 256 
Q 634 371 634 736 
L 634 3494 
Q 634 3872 541 3981 
Q 448 4090 77 4115 
L 77 4237 
L 1888 4237 
L 1888 4115 
Q 1498 4090 1392 3984 
Q 1286 3878 1286 3507 
L 1286 538 
Q 1286 358 1398 304 
Q 1510 250 1862 250 
L 2310 250 
Q 3085 250 3392 640 
Q 3520 813 3661 1114 
L 3827 1114 
z
" transform="scale(0.015625)"/>
     </defs>
     <use xlink:href="#STIXGeneral-Regular-4d"/>
     <use xlink:href="#STIXGeneral-Regular-4c" x="88.899994"/>
     <use xlink:href="#STIXGeneral-Regular-31" x="149.999985"/>
     <use xlink:href="#STIXGeneral-Regular-30" x="199.999969"/>
     <use xlink:href="#STIXGeneral-Regular-20" x="249.999954"/>
     <use xlink:href="#STIXGeneral-Regular-4d" x="274.999939"/>
     <use xlink:href="#STIXGeneral-Regular-65" x="363.899933"/>
     <use xlink:href="#STIXGeneral-Regular-74" x="408.299927"/>
     <use xlink:href="#STIXGeneral-Regular-61" x="436.099915"/>
     <use xlink:href="#STIXGeneral-Regular-20" x="480.499908"/>
     <use xlink:href="#STIXGeneral-Regular-54" x="505.499893"/>
     <use xlink:href="#STIXGeneral-Regular-65" x="566.599884"/>
     <use xlink:href="#STIXGeneral-Regular-73" x="610.999878"/>
     <use xlink:href="#STIXGeneral-Regular-74" x="649.899872"/>
     <use xlink:href="#STIXGeneral-Regular-69" x="677.69986"/>
     <use xlink:href="#STIXGeneral-Regular-6e" x="705.499847"/>
     <use xlink:href="#STIXGeneral-Regular-67" x="755.499832"/>
    </g>
   </g>
   <g id="legend_1">
    <g id="patch_7">
     <path d="M 80.2 138.344312 
L 214.405313 138.344312 
Q 217.205313 138.344312 217.205313 135.544312 
L 217.205313 37.752125 
Q 217.205313 34.952125 214.405313 34.952125 
L 80.2 34.952125 
Q 77.4 34.952125 77.4 37.752125 
L 77.4 135.544312 
Q 77.4 138.344312 80.2 138.344312 
z
" style="fill: #ffffff; opacity: 0.8; stroke: #cccccc; stroke-linejoin: miter"/>
    </g>
    <g id="line2d_28">
     <path d="M 83 45.452125 
L 97 45.452125 
L 111 45.452125 
" style="fill: none; stroke: #1f77b4; stroke-width: 1.5; stroke-linecap: square"/>
    </g>
    <g id="text_16">
     <!-- drawer-open-v2 -->
     <g transform="translate(122.2 50.352125)scale(0.14 -0.14)">
      <defs>
       <path id="STIXGeneral-Regular-64" d="M 3142 269 
L 2202 -64 
L 2176 -45 
L 2176 365 
Q 1869 -64 1357 -64 
Q 826 -64 499 317 
Q 173 698 173 1312 
Q 173 1990 563 2467 
Q 954 2944 1504 2944 
Q 1850 2944 2176 2669 
L 2176 3667 
Q 2176 3866 2118 3930 
Q 2061 3994 1882 3994 
Q 1792 3994 1741 3987 
L 1741 4090 
Q 2323 4243 2682 4371 
L 2714 4358 
L 2714 730 
Q 2714 506 2768 435 
Q 2822 365 2995 365 
Q 3034 365 3142 371 
L 3142 269 
z
M 2176 653 
L 2176 2125 
Q 2176 2381 1981 2573 
Q 1786 2765 1523 2765 
Q 1158 2765 940 2438 
Q 723 2112 723 1568 
Q 723 979 963 624 
Q 1203 269 1606 269 
Q 1907 269 2080 474 
Q 2176 582 2176 653 
z
" transform="scale(0.015625)"/>
       <path id="STIXGeneral-Regular-77" d="M 4442 2880 
L 4442 2784 
Q 4346 2752 4301 2691 
Q 4256 2630 4179 2438 
L 3296 224 
Q 3168 -90 3117 -90 
Q 3085 -90 3062 -48 
Q 3040 -6 2963 186 
L 2381 1696 
L 1664 160 
Q 1549 -90 1504 -90 
Q 1446 -90 1338 192 
L 474 2381 
Q 378 2630 314 2700 
Q 250 2771 134 2784 
L 134 2880 
L 1286 2880 
L 1286 2784 
Q 1120 2765 1056 2720 
Q 992 2675 992 2573 
Q 992 2477 1030 2381 
L 1664 710 
L 2246 1984 
L 2118 2342 
Q 2029 2598 1942 2681 
Q 1856 2765 1677 2784 
L 1677 2880 
L 2976 2880 
L 2976 2784 
Q 2752 2752 2678 2707 
Q 2605 2662 2605 2560 
Q 2605 2458 2714 2176 
L 3251 742 
L 3827 2163 
Q 3936 2432 3936 2592 
Q 3936 2669 3875 2710 
Q 3814 2752 3654 2784 
L 3654 2880 
L 4442 2880 
z
" transform="scale(0.015625)"/>
       <path id="STIXGeneral-Regular-2d" d="M 1824 1242 
L 250 1242 
L 250 1645 
L 1824 1645 
L 1824 1242 
z
" transform="scale(0.015625)"/>
      </defs>
      <use xlink:href="#STIXGeneral-Regular-64"/>
      <use xlink:href="#STIXGeneral-Regular-72" x="49.999985"/>
      <use xlink:href="#STIXGeneral-Regular-61" x="83.299973"/>
      <use xlink:href="#STIXGeneral-Regular-77" x="127.699966"/>
      <use xlink:href="#STIXGeneral-Regular-65" x="199.899948"/>
      <use xlink:href="#STIXGeneral-Regular-72" x="244.299942"/>
      <use xlink:href="#STIXGeneral-Regular-2d" x="277.59993"/>
      <use xlink:href="#STIXGeneral-Regular-6f" x="310.899918"/>
      <use xlink:href="#STIXGeneral-Regular-70" x="360.899902"/>
      <use xlink:href="#STIXGeneral-Regular-65" x="410.899887"/>
      <use xlink:href="#STIXGeneral-Regular-6e" x="455.299881"/>
      <use xlink:href="#STIXGeneral-Regular-2d" x="505.299866"/>
      <use xlink:href="#STIXGeneral-Regular-76" x="538.599854"/>
      <use xlink:href="#STIXGeneral-Regular-32" x="588.599838"/>
     </g>
    </g>
    <g id="line2d_29">
     <path d="M 83 65.290562 
L 97 65.290562 
L 111 65.290562 
" style="fill: none; stroke: #ff7f0e; stroke-width: 1.5; stroke-linecap: square"/>
    </g>
    <g id="text_17">
     <!-- door-close-v2 -->
     <g transform="translate(122.2 70.190562)scale(0.14 -0.14)">
      <defs>
       <path id="STIXGeneral-Regular-63" d="M 2547 998 
L 2637 941 
Q 2362 403 2112 205 
Q 1786 -64 1376 -64 
Q 845 -64 502 336 
Q 160 736 160 1357 
Q 160 2170 698 2618 
Q 1094 2944 1562 2944 
Q 1965 2944 2256 2749 
Q 2547 2554 2547 2285 
Q 2547 2176 2457 2096 
Q 2368 2016 2246 2016 
Q 2022 2016 1939 2310 
L 1901 2451 
Q 1850 2630 1773 2694 
Q 1696 2758 1523 2758 
Q 1133 2758 893 2451 
Q 653 2144 653 1645 
Q 653 1094 928 745 
Q 1203 397 1645 397 
Q 1920 397 2118 528 
Q 2317 659 2547 998 
z
" transform="scale(0.015625)"/>
       <path id="STIXGeneral-Regular-6c" d="M 1645 0 
L 134 0 
L 134 96 
Q 435 122 531 221 
Q 627 320 627 589 
L 627 3590 
Q 627 3821 569 3910 
Q 512 4000 358 4000 
Q 224 4000 122 3987 
L 122 4090 
Q 730 4237 1133 4371 
L 1165 4346 
L 1165 557 
Q 1165 288 1254 201 
Q 1344 115 1645 96 
L 1645 0 
z
" transform="scale(0.015625)"/>
      </defs>
      <use xlink:href="#STIXGeneral-Regular-64"/>
      <use xlink:href="#STIXGeneral-Regular-6f" x="49.999985"/>
      <use xlink:href="#STIXGeneral-Regular-6f" x="99.999969"/>
      <use xlink:href="#STIXGeneral-Regular-72" x="149.999954"/>
      <use xlink:href="#STIXGeneral-Regular-2d" x="183.299942"/>
      <use xlink:href="#STIXGeneral-Regular-63" x="216.59993"/>
      <use xlink:href="#STIXGeneral-Regular-6c" x="260.999924"/>
      <use xlink:href="#STIXGeneral-Regular-6f" x="288.799911"/>
      <use xlink:href="#STIXGeneral-Regular-73" x="338.799896"/>
      <use xlink:href="#STIXGeneral-Regular-65" x="377.69989"/>
      <use xlink:href="#STIXGeneral-Regular-2d" x="422.099884"/>
      <use xlink:href="#STIXGeneral-Regular-76" x="455.399872"/>
      <use xlink:href="#STIXGeneral-Regular-32" x="505.399857"/>
     </g>
    </g>
    <g id="line2d_30">
     <path d="M 83 85.129 
L 97 85.129 
L 111 85.129 
" style="fill: none; stroke: #2ca02c; stroke-width: 1.5; stroke-linecap: square"/>
    </g>
    <g id="text_18">
     <!-- shelf-place-v2 -->
     <g transform="translate(122.2 90.029)scale(0.14 -0.14)">
      <defs>
       <path id="STIXGeneral-Regular-68" d="M 3117 0 
L 1760 0 
L 1760 96 
Q 2042 128 2118 224 
Q 2195 320 2195 653 
L 2195 1920 
Q 2195 2598 1722 2598 
Q 1530 2598 1370 2508 
Q 1210 2419 1005 2195 
L 1005 653 
Q 1005 320 1081 224 
Q 1158 128 1440 96 
L 1440 0 
L 58 0 
L 58 96 
Q 333 134 400 224 
Q 467 314 467 653 
L 467 3667 
Q 467 3872 406 3933 
Q 346 3994 141 3994 
Q 83 3994 64 3987 
L 64 4090 
L 237 4141 
Q 730 4288 973 4371 
L 1005 4352 
L 1005 2406 
Q 1229 2694 1446 2819 
Q 1664 2944 1946 2944 
Q 2733 2944 2733 1926 
L 2733 653 
Q 2733 320 2793 233 
Q 2854 147 3117 96 
L 3117 0 
z
" transform="scale(0.015625)"/>
       <path id="STIXGeneral-Regular-66" d="M 134 2880 
L 659 2880 
Q 666 3264 710 3478 
Q 755 3693 883 3910 
Q 1152 4371 1786 4371 
Q 2074 4371 2262 4259 
Q 2451 4147 2451 3974 
Q 2451 3866 2374 3789 
Q 2298 3712 2182 3712 
Q 2029 3712 1894 3942 
Q 1741 4192 1555 4192 
Q 1197 4192 1197 3622 
L 1197 2880 
L 1978 2880 
L 1978 2675 
L 1197 2675 
L 1197 666 
Q 1197 307 1299 208 
Q 1402 109 1792 96 
L 1792 0 
L 128 0 
L 128 96 
Q 474 115 566 214 
Q 659 314 659 666 
L 659 2675 
L 134 2675 
L 134 2880 
z
" transform="scale(0.015625)"/>
      </defs>
      <use xlink:href="#STIXGeneral-Regular-73"/>
      <use xlink:href="#STIXGeneral-Regular-68" x="38.899994"/>
      <use xlink:href="#STIXGeneral-Regular-65" x="88.899979"/>
      <use xlink:href="#STIXGeneral-Regular-6c" x="133.299973"/>
      <use xlink:href="#STIXGeneral-Regular-66" x="161.09996"/>
      <use xlink:href="#STIXGeneral-Regular-2d" x="194.399948"/>
      <use xlink:href="#STIXGeneral-Regular-70" x="227.699936"/>
      <use xlink:href="#STIXGeneral-Regular-6c" x="277.699921"/>
      <use xlink:href="#STIXGeneral-Regular-61" x="305.499908"/>
      <use xlink:href="#STIXGeneral-Regular-63" x="349.899902"/>
      <use xlink:href="#STIXGeneral-Regular-65" x="394.299896"/>
      <use xlink:href="#STIXGeneral-Regular-2d" x="438.69989"/>
      <use xlink:href="#STIXGeneral-Regular-76" x="471.999878"/>
      <use xlink:href="#STIXGeneral-Regular-32" x="521.999863"/>
     </g>
    </g>
    <g id="line2d_31">
     <path d="M 83 104.967437 
L 97 104.967437 
L 111 104.967437 
" style="fill: none; stroke: #d62728; stroke-width: 1.5; stroke-linecap: square"/>
    </g>
    <g id="text_19">
     <!-- sweep-into-v2 -->
     <g transform="translate(122.2 109.867437)scale(0.14 -0.14)">
      <use xlink:href="#STIXGeneral-Regular-73"/>
      <use xlink:href="#STIXGeneral-Regular-77" x="38.899994"/>
      <use xlink:href="#STIXGeneral-Regular-65" x="111.099976"/>
      <use xlink:href="#STIXGeneral-Regular-65" x="155.499969"/>
      <use xlink:href="#STIXGeneral-Regular-70" x="199.899963"/>
      <use xlink:href="#STIXGeneral-Regular-2d" x="249.899948"/>
      <use xlink:href="#STIXGeneral-Regular-69" x="283.199936"/>
      <use xlink:href="#STIXGeneral-Regular-6e" x="310.999924"/>
      <use xlink:href="#STIXGeneral-Regular-74" x="360.999908"/>
      <use xlink:href="#STIXGeneral-Regular-6f" x="388.799896"/>
      <use xlink:href="#STIXGeneral-Regular-2d" x="438.799881"/>
      <use xlink:href="#STIXGeneral-Regular-76" x="472.099869"/>
      <use xlink:href="#STIXGeneral-Regular-32" x="522.099854"/>
     </g>
    </g>
    <g id="line2d_32">
     <path d="M 83 124.805875 
L 97 124.805875 
L 111 124.805875 
" style="fill: none; stroke: #9467bd; stroke-width: 1.5; stroke-linecap: square"/>
    </g>
    <g id="text_20">
     <!-- lever-pull-v2 -->
     <g transform="translate(122.2 129.705875)scale(0.14 -0.14)">
      <use xlink:href="#STIXGeneral-Regular-6c"/>
      <use xlink:href="#STIXGeneral-Regular-65" x="27.799988"/>
      <use xlink:href="#STIXGeneral-Regular-76" x="72.199982"/>
      <use xlink:href="#STIXGeneral-Regular-65" x="122.199966"/>
      <use xlink:href="#STIXGeneral-Regular-72" x="166.59996"/>
      <use xlink:href="#STIXGeneral-Regular-2d" x="199.899948"/>
      <use xlink:href="#STIXGeneral-Regular-70" x="233.199936"/>
      <use xlink:href="#STIXGeneral-Regular-75" x="283.199921"/>
      <use xlink:href="#STIXGeneral-Regular-6c" x="333.199905"/>
      <use xlink:href="#STIXGeneral-Regular-6c" x="360.999893"/>
      <use xlink:href="#STIXGeneral-Regular-2d" x="388.799881"/>
      <use xlink:href="#STIXGeneral-Regular-76" x="422.099869"/>
      <use xlink:href="#STIXGeneral-Regular-32" x="472.099854"/>
     </g>
    </g>
   </g>
  </g>
 </g>
 <defs>
  <clipPath id="pf7192f023d">
   <rect x="70.4" y="27.952125" width="446.4" height="277.2"/>
  </clipPath>
 </defs>
</svg>
