<?xml version="1.0" encoding="utf-8" standalone="no"?>
<!DOCTYPE svg PUBLIC "-//W3C//DTD SVG 1.1//EN"
  "http://www.w3.org/Graphics/SVG/1.1/DTD/svg11.dtd">
<svg xmlns:xlink="http://www.w3.org/1999/xlink" width="517.457273pt" height="355.769pt" viewBox="0 0 517.457273 355.769" xmlns="http://www.w3.org/2000/svg" version="1.1">
 <metadata>
  <rdf:RDF xmlns:dc="http://purl.org/dc/elements/1.1/" xmlns:cc="http://creativecommons.org/ns#" xmlns:rdf="http://www.w3.org/1999/02/22-rdf-syntax-ns#">
   <cc:Work>
    <dc:type rdf:resource="http://purl.org/dc/dcmitype/StillImage"/>
    <dc:date>2021-12-23T18:11:46.072221</dc:date>
    <dc:format>image/svg+xml</dc:format>
    <dc:creator>
     <cc:Agent>
      <dc:title>Matplotlib v3.5.1, https://matplotlib.org/</dc:title>
     </cc:Agent>
    </dc:creator>
   </cc:Work>
  </rdf:RDF>
 </metadata>
 <defs>
  <style type="text/css">*{stroke-linejoin: round; stroke-linecap: butt}</style>
 </defs>
 <g id="figure_1">
  <g id="patch_1">
   <path d="M 0 355.769 
L 517.457273 355.769 
L 517.457273 0 
L 0 0 
z
" style="fill: #ffffff"/>
  </g>
  <g id="axes_1">
   <g id="patch_2">
    <path d="M 61.4 305.152125 
L 507.8 305.152125 
L 507.8 27.952125 
L 61.4 27.952125 
z
" style="fill: #ffffff"/>
   </g>
   <g id="matplotlib.axis_1">
    <g id="xtick_1">
     <g id="line2d_1">
      <path d="M 76.28 305.152125 
L 76.28 27.952125 
" clip-path="url(#pc72058da0e)" style="fill: none; stroke: #b0b0b0; stroke-width: 0.8; stroke-linecap: square"/>
     </g>
     <g id="line2d_2">
      <defs>
       <path id="m7b4e12ef1b" d="M 0 0 
L 0 3.5 
" style="stroke: #000000; stroke-width: 0.8"/>
      </defs>
      <g>
       <use xlink:href="#m7b4e12ef1b" x="76.28" y="305.152125" style="stroke: #000000; stroke-width: 0.8"/>
      </g>
     </g>
     <g id="text_1">
      <!-- 0.0 -->
      <g transform="translate(65.03 324.445562)scale(0.18 -0.18)">
       <defs>
        <path id="STIXGeneral-Regular-30" d="M 3046 2112 
Q 3046 1683 2963 1302 
Q 2880 922 2717 602 
Q 2554 282 2266 96 
Q 1978 -90 1600 -90 
Q 1210 -90 915 108 
Q 621 307 461 640 
Q 301 973 227 1350 
Q 154 1728 154 2150 
Q 154 2746 301 3222 
Q 448 3699 790 4012 
Q 1133 4326 1626 4326 
Q 2253 4326 2649 3712 
Q 3046 3098 3046 2112 
z
M 2432 2080 
Q 2432 3091 2217 3625 
Q 2003 4160 1587 4160 
Q 1190 4160 979 3622 
Q 768 3085 768 2106 
Q 768 1120 979 598 
Q 1190 77 1600 77 
Q 2003 77 2217 598 
Q 2432 1120 2432 2080 
z
" transform="scale(0.015625)"/>
        <path id="STIXGeneral-Regular-2e" d="M 1158 275 
Q 1158 134 1052 32 
Q 947 -70 800 -70 
Q 653 -70 550 32 
Q 448 134 448 281 
Q 448 429 553 534 
Q 659 640 806 640 
Q 947 640 1052 531 
Q 1158 422 1158 275 
z
" transform="scale(0.015625)"/>
       </defs>
       <use xlink:href="#STIXGeneral-Regular-30"/>
       <use xlink:href="#STIXGeneral-Regular-2e" x="49.999985"/>
       <use xlink:href="#STIXGeneral-Regular-30" x="74.999969"/>
      </g>
     </g>
    </g>
    <g id="xtick_2">
     <g id="line2d_3">
      <path d="M 181.961818 305.152125 
L 181.961818 27.952125 
" clip-path="url(#pc72058da0e)" style="fill: none; stroke: #b0b0b0; stroke-width: 0.8; stroke-linecap: square"/>
     </g>
     <g id="line2d_4">
      <g>
       <use xlink:href="#m7b4e12ef1b" x="181.961818" y="305.152125" style="stroke: #000000; stroke-width: 0.8"/>
      </g>
     </g>
     <g id="text_2">
      <!-- 0.5 -->
      <g transform="translate(170.711818 324.445562)scale(0.18 -0.18)">
       <defs>
        <path id="STIXGeneral-Regular-35" d="M 2803 4358 
L 2573 3814 
Q 2534 3731 2400 3731 
L 1158 3731 
L 902 3187 
Q 1606 3053 1920 2896 
Q 2234 2739 2502 2368 
Q 2726 2061 2726 1555 
Q 2726 1094 2576 780 
Q 2426 467 2099 224 
Q 1664 -90 1011 -90 
Q 646 -90 422 19 
Q 198 128 198 307 
Q 198 550 486 550 
Q 717 550 960 352 
Q 1210 147 1414 147 
Q 1747 147 2012 480 
Q 2278 813 2278 1229 
Q 2278 1843 1850 2189 
Q 1293 2637 486 2637 
Q 410 2637 410 2688 
L 416 2720 
L 1114 4237 
L 2438 4237 
Q 2547 4237 2608 4269 
Q 2669 4301 2746 4403 
L 2803 4358 
z
" transform="scale(0.015625)"/>
       </defs>
       <use xlink:href="#STIXGeneral-Regular-30"/>
       <use xlink:href="#STIXGeneral-Regular-2e" x="49.999985"/>
       <use xlink:href="#STIXGeneral-Regular-35" x="74.999969"/>
      </g>
     </g>
    </g>
    <g id="xtick_3">
     <g id="line2d_5">
      <path d="M 287.643636 305.152125 
L 287.643636 27.952125 
" clip-path="url(#pc72058da0e)" style="fill: none; stroke: #b0b0b0; stroke-width: 0.8; stroke-linecap: square"/>
     </g>
     <g id="line2d_6">
      <g>
       <use xlink:href="#m7b4e12ef1b" x="287.643636" y="305.152125" style="stroke: #000000; stroke-width: 0.8"/>
      </g>
     </g>
     <g id="text_3">
      <!-- 1.0 -->
      <g transform="translate(276.393636 324.445562)scale(0.18 -0.18)">
       <defs>
        <path id="STIXGeneral-Regular-31" d="M 2522 0 
L 755 0 
L 755 96 
Q 1107 115 1235 227 
Q 1363 339 1363 608 
L 1363 3482 
Q 1363 3795 1171 3795 
Q 1082 3795 883 3718 
L 710 3654 
L 710 3744 
L 1856 4326 
L 1914 4307 
L 1914 486 
Q 1914 275 2042 185 
Q 2170 96 2522 96 
L 2522 0 
z
" transform="scale(0.015625)"/>
       </defs>
       <use xlink:href="#STIXGeneral-Regular-31"/>
       <use xlink:href="#STIXGeneral-Regular-2e" x="49.999985"/>
       <use xlink:href="#STIXGeneral-Regular-30" x="74.999969"/>
      </g>
     </g>
    </g>
    <g id="xtick_4">
     <g id="line2d_7">
      <path d="M 393.325455 305.152125 
L 393.325455 27.952125 
" clip-path="url(#pc72058da0e)" style="fill: none; stroke: #b0b0b0; stroke-width: 0.8; stroke-linecap: square"/>
     </g>
     <g id="line2d_8">
      <g>
       <use xlink:href="#m7b4e12ef1b" x="393.325455" y="305.152125" style="stroke: #000000; stroke-width: 0.8"/>
      </g>
     </g>
     <g id="text_4">
      <!-- 1.5 -->
      <g transform="translate(382.075455 324.445562)scale(0.18 -0.18)">
       <use xlink:href="#STIXGeneral-Regular-31"/>
       <use xlink:href="#STIXGeneral-Regular-2e" x="49.999985"/>
       <use xlink:href="#STIXGeneral-Regular-35" x="74.999969"/>
      </g>
     </g>
    </g>
    <g id="xtick_5">
     <g id="line2d_9">
      <path d="M 499.007273 305.152125 
L 499.007273 27.952125 
" clip-path="url(#pc72058da0e)" style="fill: none; stroke: #b0b0b0; stroke-width: 0.8; stroke-linecap: square"/>
     </g>
     <g id="line2d_10">
      <g>
       <use xlink:href="#m7b4e12ef1b" x="499.007273" y="305.152125" style="stroke: #000000; stroke-width: 0.8"/>
      </g>
     </g>
     <g id="text_5">
      <!-- 2.0 -->
      <g transform="translate(487.757273 324.445562)scale(0.18 -0.18)">
       <defs>
        <path id="STIXGeneral-Regular-32" d="M 3034 877 
L 2688 0 
L 186 0 
L 186 77 
L 1325 1286 
Q 1773 1754 1965 2144 
Q 2157 2534 2157 2950 
Q 2157 3379 1920 3616 
Q 1683 3853 1267 3853 
Q 922 3853 720 3673 
Q 518 3494 326 3021 
L 192 3053 
Q 301 3648 630 3987 
Q 960 4326 1523 4326 
Q 2054 4326 2380 4006 
Q 2707 3686 2707 3200 
Q 2707 2477 1888 1613 
L 832 486 
L 2330 486 
Q 2541 486 2665 569 
Q 2790 653 2944 915 
L 3034 877 
z
" transform="scale(0.015625)"/>
       </defs>
       <use xlink:href="#STIXGeneral-Regular-32"/>
       <use xlink:href="#STIXGeneral-Regular-2e" x="49.999985"/>
       <use xlink:href="#STIXGeneral-Regular-30" x="74.999969"/>
      </g>
     </g>
    </g>
    <g id="text_6">
     <!-- Training Environment Steps -->
     <g transform="translate(182.604688 344.645562)scale(0.18 -0.18)">
      <defs>
       <path id="STIXGeneral-Regular-54" d="M 3795 3149 
L 3642 3149 
Q 3539 3674 3353 3821 
Q 3168 3968 2656 3968 
L 2278 3968 
L 2278 710 
Q 2278 346 2387 243 
Q 2496 141 2893 122 
L 2893 0 
L 1024 0 
L 1024 122 
Q 1427 147 1526 256 
Q 1626 365 1626 787 
L 1626 3968 
L 1242 3968 
Q 723 3968 540 3817 
Q 358 3667 262 3149 
L 109 3149 
L 154 4237 
L 3750 4237 
L 3795 3149 
z
" transform="scale(0.015625)"/>
       <path id="STIXGeneral-Regular-72" d="M 1024 2931 
L 1024 2342 
Q 1267 2688 1430 2816 
Q 1594 2944 1792 2944 
Q 1958 2944 2051 2854 
Q 2144 2765 2144 2605 
Q 2144 2470 2077 2393 
Q 2010 2317 1894 2317 
Q 1773 2317 1638 2445 
Q 1536 2541 1472 2541 
Q 1338 2541 1181 2355 
Q 1024 2170 1024 2016 
L 1024 576 
Q 1024 301 1133 205 
Q 1242 109 1568 96 
L 1568 0 
L 32 0 
L 32 96 
Q 339 154 412 224 
Q 486 294 486 538 
L 486 2138 
Q 486 2349 438 2435 
Q 390 2522 269 2522 
Q 166 2522 45 2496 
L 45 2598 
Q 448 2726 992 2944 
L 1024 2931 
z
" transform="scale(0.015625)"/>
       <path id="STIXGeneral-Regular-61" d="M 2829 422 
L 2829 243 
Q 2586 -64 2253 -64 
Q 1888 -64 1843 403 
L 1837 403 
Q 1427 -64 909 -64 
Q 608 -64 422 112 
Q 237 288 237 602 
Q 237 1050 685 1350 
Q 992 1555 1837 1869 
L 1837 2214 
Q 1837 2502 1699 2646 
Q 1562 2790 1338 2790 
Q 1146 2790 1018 2697 
Q 890 2605 890 2477 
Q 890 2419 909 2348 
Q 928 2278 928 2208 
Q 928 2112 841 2029 
Q 755 1946 634 1946 
Q 525 1946 441 2029 
Q 358 2112 358 2240 
Q 358 2547 685 2752 
Q 986 2944 1421 2944 
Q 1939 2944 2176 2656 
Q 2291 2522 2323 2384 
Q 2355 2246 2355 1946 
L 2355 723 
Q 2355 301 2554 301 
Q 2682 301 2829 422 
z
M 1837 813 
L 1837 1715 
Q 1248 1510 1018 1293 
Q 800 1094 800 800 
Q 800 557 921 432 
Q 1043 307 1242 307 
Q 1453 307 1613 410 
Q 1747 506 1792 589 
Q 1837 672 1837 813 
z
" transform="scale(0.015625)"/>
       <path id="STIXGeneral-Regular-69" d="M 1152 4045 
Q 1152 3904 1056 3811 
Q 960 3718 819 3718 
Q 685 3718 592 3811 
Q 499 3904 499 4045 
Q 499 4179 595 4275 
Q 691 4371 826 4371 
Q 966 4371 1059 4275 
Q 1152 4179 1152 4045 
z
M 1619 0 
L 102 0 
L 102 96 
Q 435 115 521 211 
Q 608 307 608 666 
L 608 2118 
Q 608 2342 563 2432 
Q 518 2522 397 2522 
Q 243 2522 128 2490 
L 128 2592 
L 1120 2944 
L 1146 2918 
L 1146 672 
Q 1146 314 1226 218 
Q 1306 122 1619 96 
L 1619 0 
z
" transform="scale(0.015625)"/>
       <path id="STIXGeneral-Regular-6e" d="M 3104 0 
L 1773 0 
L 1779 96 
Q 2016 115 2096 233 
Q 2176 352 2176 672 
L 2176 1946 
Q 2176 2592 1709 2592 
Q 1549 2592 1408 2515 
Q 1267 2438 1050 2227 
L 1050 461 
Q 1050 269 1136 192 
Q 1222 115 1466 96 
L 1466 0 
L 115 0 
L 115 96 
Q 358 115 435 214 
Q 512 314 512 602 
L 512 2157 
Q 512 2394 467 2483 
Q 422 2573 288 2573 
Q 160 2573 102 2547 
L 102 2656 
Q 550 2784 979 2944 
L 1030 2925 
L 1030 2426 
L 1037 2426 
Q 1491 2944 1958 2944 
Q 2323 2944 2518 2688 
Q 2714 2432 2714 1958 
L 2714 544 
Q 2714 288 2790 205 
Q 2867 122 3104 96 
L 3104 0 
z
" transform="scale(0.015625)"/>
       <path id="STIXGeneral-Regular-67" d="M 3008 2483 
L 2477 2483 
Q 2598 2208 2598 1946 
Q 2598 1453 2265 1203 
Q 1933 954 1600 954 
Q 1530 954 1357 973 
L 1235 986 
Q 1107 947 979 812 
Q 851 678 851 582 
Q 851 435 1350 410 
L 2176 371 
Q 2528 358 2739 172 
Q 2950 -13 2950 -314 
Q 2950 -685 2566 -986 
Q 2035 -1395 1286 -1395 
Q 826 -1395 502 -1212 
Q 179 -1030 179 -774 
Q 179 -595 320 -419 
Q 461 -243 806 6 
Q 602 102 534 172 
Q 467 243 467 346 
Q 467 531 762 787 
Q 909 915 1037 1043 
Q 717 1203 579 1401 
Q 442 1600 442 1901 
Q 442 2336 752 2640 
Q 1062 2944 1510 2944 
Q 1766 2944 2022 2848 
L 2163 2797 
Q 2349 2733 2515 2733 
L 3008 2733 
L 3008 2483 
z
M 973 2163 
L 973 2144 
Q 973 1683 1155 1398 
Q 1338 1114 1632 1114 
Q 1850 1114 1978 1270 
Q 2106 1427 2106 1690 
Q 2106 2112 1914 2464 
Q 1754 2765 1446 2765 
Q 1222 2765 1097 2605 
Q 973 2445 973 2163 
z
M 2771 -410 
Q 2771 -230 2595 -163 
Q 2419 -96 1978 -96 
Q 1344 -96 941 -13 
Q 749 -243 688 -348 
Q 627 -454 627 -563 
Q 627 -774 880 -902 
Q 1133 -1030 1555 -1030 
Q 2099 -1030 2435 -860 
Q 2771 -691 2771 -410 
z
" transform="scale(0.015625)"/>
       <path id="STIXGeneral-Regular-20" transform="scale(0.015625)"/>
       <path id="STIXGeneral-Regular-45" d="M 3821 1082 
L 3526 0 
L 77 0 
L 77 122 
Q 442 147 538 252 
Q 634 358 634 730 
L 634 3520 
Q 634 3878 534 3987 
Q 435 4096 77 4115 
L 77 4237 
L 3469 4237 
L 3494 3322 
L 3334 3322 
Q 3264 3750 3085 3872 
Q 2906 3994 2349 3994 
L 1510 3994 
Q 1370 3994 1328 3952 
Q 1286 3910 1286 3763 
L 1286 2355 
L 2253 2355 
Q 2656 2355 2787 2470 
Q 2918 2586 2976 2970 
L 3123 2970 
L 3123 1472 
L 2976 1472 
Q 2918 1875 2790 1984 
Q 2662 2093 2253 2093 
L 1286 2093 
L 1286 538 
Q 1286 346 1420 291 
Q 1555 237 1933 237 
L 2163 237 
Q 2848 237 3136 403 
Q 3424 570 3642 1082 
L 3821 1082 
z
" transform="scale(0.015625)"/>
       <path id="STIXGeneral-Regular-76" d="M 3053 2880 
L 3053 2784 
Q 2906 2771 2835 2688 
Q 2765 2605 2637 2285 
L 1818 230 
Q 1690 -90 1638 -90 
Q 1587 -90 1523 77 
Q 1510 96 1497 141 
Q 1485 186 1472 211 
L 704 2048 
Q 499 2534 403 2652 
Q 307 2771 122 2784 
L 122 2880 
L 1376 2880 
L 1376 2784 
Q 1210 2771 1146 2732 
Q 1082 2694 1082 2611 
Q 1082 2509 1139 2368 
L 1792 730 
L 2426 2387 
Q 2464 2483 2464 2579 
Q 2464 2758 2163 2784 
L 2163 2880 
L 3053 2880 
z
" transform="scale(0.015625)"/>
       <path id="STIXGeneral-Regular-6f" d="M 3008 1478 
Q 3008 806 2608 371 
Q 2208 -64 1568 -64 
Q 979 -64 582 368 
Q 186 800 186 1459 
Q 186 2125 582 2534 
Q 979 2944 1626 2944 
Q 2221 2944 2614 2537 
Q 3008 2131 3008 1478 
z
M 2432 1306 
Q 2432 2035 2112 2445 
Q 1856 2765 1504 2765 
Q 1171 2765 966 2493 
Q 762 2221 762 1747 
Q 762 928 1101 435 
Q 1318 115 1677 115 
Q 2029 115 2230 432 
Q 2432 749 2432 1306 
z
" transform="scale(0.015625)"/>
       <path id="STIXGeneral-Regular-6d" d="M 4960 0 
L 3565 0 
L 3565 96 
Q 3834 122 3907 208 
Q 3981 294 3981 576 
L 3981 1894 
Q 3981 2278 3869 2444 
Q 3757 2611 3488 2611 
Q 3264 2611 3107 2521 
Q 2950 2432 2803 2221 
L 2803 608 
Q 2803 301 2896 201 
Q 2989 102 3264 96 
L 3264 0 
L 1830 0 
L 1830 96 
Q 2112 115 2189 188 
Q 2266 262 2266 550 
L 2266 1901 
Q 2266 2611 1850 2611 
Q 1670 2611 1468 2531 
Q 1267 2451 1171 2336 
Q 1088 2240 1088 2227 
L 1088 448 
Q 1088 243 1177 176 
Q 1267 109 1523 96 
L 1523 0 
L 102 0 
L 102 96 
Q 371 102 460 195 
Q 550 288 550 563 
L 550 2150 
Q 550 2387 499 2480 
Q 448 2573 326 2573 
Q 230 2573 122 2547 
L 122 2656 
Q 557 2778 1011 2944 
L 1062 2925 
L 1062 2451 
L 1075 2451 
Q 1363 2752 1584 2848 
Q 1805 2944 2054 2944 
Q 2560 2944 2733 2406 
Q 3232 2944 3776 2944 
Q 4518 2944 4518 1792 
L 4518 493 
Q 4518 282 4582 202 
Q 4646 122 4794 109 
L 4960 96 
L 4960 0 
z
" transform="scale(0.015625)"/>
       <path id="STIXGeneral-Regular-65" d="M 2611 1050 
L 2714 1005 
Q 2330 -64 1376 -64 
Q 813 -64 486 329 
Q 160 723 160 1389 
Q 160 2074 525 2509 
Q 890 2944 1485 2944 
Q 2061 2944 2374 2502 
Q 2560 2246 2592 1773 
L 621 1773 
Q 646 1370 700 1158 
Q 755 947 915 730 
Q 1184 378 1626 378 
Q 1939 378 2153 531 
Q 2368 685 2611 1050 
z
M 634 1978 
L 1939 1978 
Q 1882 2381 1750 2547 
Q 1619 2714 1312 2714 
Q 1043 2714 864 2525 
Q 685 2336 634 1978 
z
" transform="scale(0.015625)"/>
       <path id="STIXGeneral-Regular-74" d="M 1702 493 
L 1786 422 
Q 1478 -64 1011 -64 
Q 448 -64 448 749 
L 448 2675 
L 109 2675 
Q 83 2694 83 2720 
Q 83 2771 192 2842 
Q 435 2982 813 3526 
Q 826 3546 874 3606 
Q 922 3667 941 3706 
Q 986 3706 986 3622 
L 986 2880 
L 1632 2880 
L 1632 2675 
L 986 2675 
L 986 845 
Q 986 538 1062 403 
Q 1139 269 1318 269 
Q 1510 269 1702 493 
z
" transform="scale(0.015625)"/>
       <path id="STIXGeneral-Regular-53" d="M 3002 2963 
L 2842 2963 
Q 2733 3360 2579 3565 
Q 2189 4064 1651 4064 
Q 1357 4064 1181 3894 
Q 1005 3725 1005 3456 
Q 1005 3328 1069 3206 
Q 1133 3085 1206 2998 
Q 1280 2912 1465 2784 
Q 1651 2656 1766 2589 
Q 1882 2522 2150 2362 
Q 2669 2061 2905 1763 
Q 3142 1466 3142 1107 
Q 3142 576 2771 243 
Q 2400 -90 1837 -90 
Q 1421 -90 1082 58 
Q 915 128 781 128 
Q 704 128 653 70 
Q 602 13 602 -83 
L 461 -83 
L 275 1274 
L 416 1274 
Q 845 141 1734 141 
Q 2074 141 2285 342 
Q 2496 544 2496 858 
Q 2496 1158 2310 1363 
Q 2003 1696 1235 2106 
Q 454 2522 454 3206 
Q 454 3718 768 4022 
Q 1082 4326 1568 4326 
Q 1907 4326 2240 4186 
Q 2413 4109 2522 4109 
Q 2688 4109 2726 4326 
L 2861 4326 
L 3002 2963 
z
" transform="scale(0.015625)"/>
       <path id="STIXGeneral-Regular-70" d="M 1018 2931 
L 1018 2438 
Q 1421 2944 1939 2944 
Q 2406 2944 2707 2560 
Q 3008 2176 3008 1581 
Q 3008 883 2621 409 
Q 2234 -64 1664 -64 
Q 1466 -64 1328 -6 
Q 1190 51 1018 211 
L 1018 -794 
Q 1018 -1094 1120 -1180 
Q 1222 -1267 1581 -1274 
L 1581 -1389 
L 32 -1389 
L 32 -1280 
Q 314 -1254 397 -1171 
Q 480 -1088 480 -838 
L 480 2157 
Q 480 2381 429 2451 
Q 378 2522 218 2522 
Q 115 2522 58 2515 
L 58 2618 
Q 506 2752 979 2944 
L 1018 2931 
z
M 1018 2138 
L 1018 563 
Q 1018 422 1238 281 
Q 1459 141 1683 141 
Q 2029 141 2243 467 
Q 2458 794 2458 1325 
Q 2458 1888 2243 2224 
Q 2029 2560 1670 2560 
Q 1446 2560 1232 2419 
Q 1018 2278 1018 2138 
z
" transform="scale(0.015625)"/>
       <path id="STIXGeneral-Regular-73" d="M 998 1926 
L 1664 1523 
Q 1984 1331 2105 1164 
Q 2227 998 2227 736 
Q 2227 416 1961 176 
Q 1696 -64 1331 -64 
Q 1030 -64 864 -6 
Q 691 51 570 51 
Q 461 51 416 -26 
L 333 -26 
L 333 979 
L 435 979 
Q 538 512 730 294 
Q 922 77 1248 77 
Q 1485 77 1632 211 
Q 1779 346 1779 550 
Q 1779 845 1440 1030 
L 1094 1222 
Q 326 1651 326 2150 
Q 326 2522 566 2730 
Q 806 2938 1210 2938 
Q 1491 2938 1638 2867 
Q 1754 2816 1818 2816 
Q 1862 2816 1920 2880 
L 1990 2880 
L 2022 2010 
L 1926 2010 
Q 1818 2445 1654 2621 
Q 1491 2797 1203 2797 
Q 986 2797 854 2688 
Q 723 2579 723 2362 
Q 723 2253 796 2128 
Q 870 2003 998 1926 
z
" transform="scale(0.015625)"/>
      </defs>
      <use xlink:href="#STIXGeneral-Regular-54"/>
      <use xlink:href="#STIXGeneral-Regular-72" x="61.099991"/>
      <use xlink:href="#STIXGeneral-Regular-61" x="94.399979"/>
      <use xlink:href="#STIXGeneral-Regular-69" x="138.799973"/>
      <use xlink:href="#STIXGeneral-Regular-6e" x="166.59996"/>
      <use xlink:href="#STIXGeneral-Regular-69" x="216.599945"/>
      <use xlink:href="#STIXGeneral-Regular-6e" x="244.399933"/>
      <use xlink:href="#STIXGeneral-Regular-67" x="294.399918"/>
      <use xlink:href="#STIXGeneral-Regular-20" x="344.399902"/>
      <use xlink:href="#STIXGeneral-Regular-45" x="369.399887"/>
      <use xlink:href="#STIXGeneral-Regular-6e" x="430.499878"/>
      <use xlink:href="#STIXGeneral-Regular-76" x="480.499863"/>
      <use xlink:href="#STIXGeneral-Regular-69" x="530.499847"/>
      <use xlink:href="#STIXGeneral-Regular-72" x="558.299835"/>
      <use xlink:href="#STIXGeneral-Regular-6f" x="591.599823"/>
      <use xlink:href="#STIXGeneral-Regular-6e" x="641.599808"/>
      <use xlink:href="#STIXGeneral-Regular-6d" x="691.599792"/>
      <use xlink:href="#STIXGeneral-Regular-65" x="769.39978"/>
      <use xlink:href="#STIXGeneral-Regular-6e" x="813.799774"/>
      <use xlink:href="#STIXGeneral-Regular-74" x="863.799759"/>
      <use xlink:href="#STIXGeneral-Regular-20" x="891.599747"/>
      <use xlink:href="#STIXGeneral-Regular-53" x="916.599731"/>
      <use xlink:href="#STIXGeneral-Regular-74" x="972.199722"/>
      <use xlink:href="#STIXGeneral-Regular-65" x="999.99971"/>
      <use xlink:href="#STIXGeneral-Regular-70" x="1044.399704"/>
      <use xlink:href="#STIXGeneral-Regular-73" x="1094.399689"/>
     </g>
    </g>
    <g id="text_7">
     <!-- 1e8 -->
     <g transform="translate(481.806875 343.645562)scale(0.18 -0.18)">
      <defs>
       <path id="STIXGeneral-Regular-38" d="M 2848 992 
Q 2848 499 2505 204 
Q 2163 -90 1587 -90 
Q 1050 -90 704 204 
Q 358 499 358 954 
Q 358 1293 524 1533 
Q 691 1773 1190 2125 
Q 710 2522 553 2765 
Q 397 3008 397 3328 
Q 397 3782 745 4054 
Q 1094 4326 1638 4326 
Q 2106 4326 2410 4060 
Q 2714 3795 2714 3411 
Q 2714 3059 2531 2848 
Q 2349 2637 1856 2374 
Q 2432 1990 2640 1689 
Q 2848 1389 2848 992 
z
M 2272 3411 
Q 2272 3744 2086 3945 
Q 1901 4147 1574 4147 
Q 1248 4147 1059 3977 
Q 870 3808 870 3513 
Q 870 3219 1059 2979 
Q 1248 2739 1670 2490 
Q 1997 2682 2134 2896 
Q 2272 3110 2272 3411 
z
M 1734 1741 
L 1357 1997 
Q 1075 1766 960 1545 
Q 845 1325 845 1011 
Q 845 576 1065 333 
Q 1286 90 1658 90 
Q 1971 90 2166 285 
Q 2362 480 2362 794 
Q 2362 1082 2214 1299 
Q 2067 1517 1734 1741 
z
" transform="scale(0.015625)"/>
      </defs>
      <use xlink:href="#STIXGeneral-Regular-31"/>
      <use xlink:href="#STIXGeneral-Regular-65" x="49.999985"/>
      <use xlink:href="#STIXGeneral-Regular-38" x="94.399979"/>
     </g>
    </g>
   </g>
   <g id="matplotlib.axis_2">
    <g id="ytick_1">
     <g id="line2d_11">
      <path d="M 61.4 296.713672 
L 507.8 296.713672 
" clip-path="url(#pc72058da0e)" style="fill: none; stroke: #b0b0b0; stroke-width: 0.8; stroke-linecap: square"/>
     </g>
     <g id="line2d_12">
      <defs>
       <path id="mf535caddea" d="M 0 0 
L -3.5 0 
" style="stroke: #000000; stroke-width: 0.8"/>
      </defs>
      <g>
       <use xlink:href="#mf535caddea" x="61.4" y="296.713672" style="stroke: #000000; stroke-width: 0.8"/>
      </g>
     </g>
     <g id="text_8">
      <!-- 100 -->
      <g transform="translate(27.4 302.86039)scale(0.18 -0.18)">
       <use xlink:href="#STIXGeneral-Regular-31"/>
       <use xlink:href="#STIXGeneral-Regular-30" x="49.999985"/>
       <use xlink:href="#STIXGeneral-Regular-30" x="99.999969"/>
      </g>
     </g>
    </g>
    <g id="ytick_2">
     <g id="line2d_13">
      <path d="M 61.4 224.097638 
L 507.8 224.097638 
" clip-path="url(#pc72058da0e)" style="fill: none; stroke: #b0b0b0; stroke-width: 0.8; stroke-linecap: square"/>
     </g>
     <g id="line2d_14">
      <g>
       <use xlink:href="#mf535caddea" x="61.4" y="224.097638" style="stroke: #000000; stroke-width: 0.8"/>
      </g>
     </g>
     <g id="text_9">
      <!-- 200 -->
      <g transform="translate(27.4 230.244357)scale(0.18 -0.18)">
       <use xlink:href="#STIXGeneral-Regular-32"/>
       <use xlink:href="#STIXGeneral-Regular-30" x="49.999985"/>
       <use xlink:href="#STIXGeneral-Regular-30" x="99.999969"/>
      </g>
     </g>
    </g>
    <g id="ytick_3">
     <g id="line2d_15">
      <path d="M 61.4 151.481604 
L 507.8 151.481604 
" clip-path="url(#pc72058da0e)" style="fill: none; stroke: #b0b0b0; stroke-width: 0.8; stroke-linecap: square"/>
     </g>
     <g id="line2d_16">
      <g>
       <use xlink:href="#mf535caddea" x="61.4" y="151.481604" style="stroke: #000000; stroke-width: 0.8"/>
      </g>
     </g>
     <g id="text_10">
      <!-- 300 -->
      <g transform="translate(27.4 157.628323)scale(0.18 -0.18)">
       <defs>
        <path id="STIXGeneral-Regular-33" d="M 390 3264 
L 288 3290 
Q 435 3770 748 4048 
Q 1062 4326 1542 4326 
Q 1990 4326 2265 4083 
Q 2541 3840 2541 3450 
Q 2541 2925 1946 2566 
Q 2298 2413 2477 2227 
Q 2758 1914 2758 1402 
Q 2758 890 2464 506 
Q 2246 211 1840 60 
Q 1434 -90 979 -90 
Q 262 -90 262 275 
Q 262 378 339 442 
Q 416 506 525 506 
Q 685 506 915 339 
Q 1197 141 1466 141 
Q 1818 141 2058 425 
Q 2298 710 2298 1120 
Q 2298 1856 1632 2048 
Q 1434 2112 979 2112 
L 979 2202 
Q 1338 2323 1517 2432 
Q 2035 2726 2035 3290 
Q 2035 3610 1852 3776 
Q 1670 3942 1344 3942 
Q 768 3942 390 3264 
z
" transform="scale(0.015625)"/>
       </defs>
       <use xlink:href="#STIXGeneral-Regular-33"/>
       <use xlink:href="#STIXGeneral-Regular-30" x="49.999985"/>
       <use xlink:href="#STIXGeneral-Regular-30" x="99.999969"/>
      </g>
     </g>
    </g>
    <g id="ytick_4">
     <g id="line2d_17">
      <path d="M 61.4 78.86557 
L 507.8 78.86557 
" clip-path="url(#pc72058da0e)" style="fill: none; stroke: #b0b0b0; stroke-width: 0.8; stroke-linecap: square"/>
     </g>
     <g id="line2d_18">
      <g>
       <use xlink:href="#mf535caddea" x="61.4" y="78.86557" style="stroke: #000000; stroke-width: 0.8"/>
      </g>
     </g>
     <g id="text_11">
      <!-- 400 -->
      <g transform="translate(27.4 85.012289)scale(0.18 -0.18)">
       <defs>
        <path id="STIXGeneral-Regular-34" d="M 3027 1069 
L 2368 1069 
L 2368 0 
L 1869 0 
L 1869 1069 
L 77 1069 
L 77 1478 
L 2086 4326 
L 2368 4326 
L 2368 1478 
L 3027 1478 
L 3027 1069 
z
M 1869 1478 
L 1869 3674 
L 333 1478 
L 1869 1478 
z
" transform="scale(0.015625)"/>
       </defs>
       <use xlink:href="#STIXGeneral-Regular-34"/>
       <use xlink:href="#STIXGeneral-Regular-30" x="49.999985"/>
       <use xlink:href="#STIXGeneral-Regular-30" x="99.999969"/>
      </g>
     </g>
    </g>
    <g id="text_12">
     <!-- Average Test Return -->
     <g transform="translate(19.476562 241.533375)rotate(-90)scale(0.18 -0.18)">
      <defs>
       <path id="STIXGeneral-Regular-41" d="M 4525 0 
L 2893 0 
L 2893 122 
Q 3149 122 3245 179 
Q 3334 224 3334 333 
Q 3334 499 3213 781 
L 2950 1382 
L 1274 1382 
L 979 653 
Q 922 506 922 384 
Q 922 237 1027 179 
Q 1133 122 1370 122 
L 1370 0 
L 96 0 
L 96 122 
Q 365 147 486 316 
Q 608 486 902 1190 
L 2221 4314 
L 2349 4314 
L 3923 710 
Q 4064 378 4176 262 
Q 4288 147 4525 122 
L 4525 0 
z
M 2861 1645 
L 2118 3405 
L 1382 1645 
L 2861 1645 
z
" transform="scale(0.015625)"/>
       <path id="STIXGeneral-Regular-52" d="M 4224 0 
L 3187 0 
L 1664 1971 
L 1306 1958 
L 1306 717 
Q 1306 352 1405 249 
Q 1504 147 1875 122 
L 1875 0 
L 109 0 
L 109 122 
Q 474 154 563 262 
Q 653 371 653 794 
L 653 3526 
Q 653 3885 563 3987 
Q 474 4090 109 4115 
L 109 4237 
L 1850 4237 
Q 2726 4237 3187 3859 
Q 3501 3603 3501 3091 
Q 3501 2221 2342 2042 
L 3622 422 
Q 3757 256 3878 198 
Q 4000 141 4224 122 
L 4224 0 
z
M 1306 3731 
L 1306 2195 
Q 1766 2202 1990 2246 
Q 2214 2291 2438 2413 
Q 2803 2618 2803 3142 
Q 2803 4000 1632 4000 
Q 1459 4000 1382 3945 
Q 1306 3891 1306 3731 
z
" transform="scale(0.015625)"/>
       <path id="STIXGeneral-Regular-75" d="M 3072 320 
L 3072 230 
Q 2573 96 2195 -58 
L 2163 -38 
L 2163 486 
L 2150 486 
Q 1747 -64 1235 -64 
Q 870 -64 662 160 
Q 454 384 454 755 
L 454 2362 
Q 454 2598 371 2688 
Q 288 2778 58 2790 
L 58 2880 
L 992 2880 
L 992 813 
Q 992 595 1123 451 
Q 1254 307 1446 307 
Q 1760 307 1984 506 
Q 2067 582 2099 649 
Q 2131 717 2131 877 
L 2131 2355 
Q 2131 2605 2041 2678 
Q 1952 2752 1658 2771 
L 1658 2880 
L 2669 2880 
L 2669 685 
Q 2669 461 2742 390 
Q 2816 320 3034 320 
L 3072 320 
z
" transform="scale(0.015625)"/>
      </defs>
      <use xlink:href="#STIXGeneral-Regular-41"/>
      <use xlink:href="#STIXGeneral-Regular-76" x="72.199982"/>
      <use xlink:href="#STIXGeneral-Regular-65" x="122.199966"/>
      <use xlink:href="#STIXGeneral-Regular-72" x="166.59996"/>
      <use xlink:href="#STIXGeneral-Regular-61" x="199.899948"/>
      <use xlink:href="#STIXGeneral-Regular-67" x="244.299942"/>
      <use xlink:href="#STIXGeneral-Regular-65" x="294.299927"/>
      <use xlink:href="#STIXGeneral-Regular-20" x="338.699921"/>
      <use xlink:href="#STIXGeneral-Regular-54" x="363.699905"/>
      <use xlink:href="#STIXGeneral-Regular-65" x="424.799896"/>
      <use xlink:href="#STIXGeneral-Regular-73" x="469.19989"/>
      <use xlink:href="#STIXGeneral-Regular-74" x="508.099884"/>
      <use xlink:href="#STIXGeneral-Regular-20" x="535.899872"/>
      <use xlink:href="#STIXGeneral-Regular-52" x="560.899857"/>
      <use xlink:href="#STIXGeneral-Regular-65" x="627.599854"/>
      <use xlink:href="#STIXGeneral-Regular-74" x="671.999847"/>
      <use xlink:href="#STIXGeneral-Regular-75" x="699.799835"/>
      <use xlink:href="#STIXGeneral-Regular-72" x="749.79982"/>
      <use xlink:href="#STIXGeneral-Regular-6e" x="783.099808"/>
     </g>
    </g>
   </g>
   <g id="line2d_19">
    <path d="M 81.690909 134.349645 
L 87.101818 140.730451 
L 92.512727 136.539118 
L 97.923636 170.53904 
L 103.334545 208.086266 
L 108.745455 224.423429 
L 114.156364 235.730439 
L 119.567273 240.012065 
L 124.978182 251.878498 
L 130.389091 246.564583 
L 135.8 243.144756 
L 141.210909 243.134685 
L 146.621818 243.16375 
L 152.032727 247.53593 
L 157.443636 244.885955 
L 162.854545 240.93173 
L 168.265455 244.686957 
L 173.676364 246.319302 
L 179.087273 248.405697 
L 184.498182 252.623577 
L 189.909091 252.148297 
L 195.32 245.186012 
L 200.730909 244.582016 
L 206.141818 247.897897 
L 211.552727 239.528667 
L 216.963636 245.27407 
L 222.374545 247.079986 
L 227.785455 253.37488 
L 233.196364 251.568484 
L 238.607273 250.776112 
L 244.018182 252.407755 
L 249.429091 254.678867 
L 254.84 259.666068 
L 260.250909 259.948699 
L 265.661818 258.154893 
L 271.072727 257.819799 
L 276.483636 257.955894 
L 281.894545 260.950034 
L 287.305455 262.511193 
L 292.716364 262.797252 
L 298.127273 258.845197 
L 303.538182 260.143436 
L 308.949091 262.987257 
L 314.36 262.166529 
L 319.770909 261.89558 
L 325.181818 263.745468 
L 330.592727 260.302623 
L 336.003636 261.37732 
L 341.414545 263.049843 
L 346.825455 262.629991 
L 352.236364 263.519753 
L 357.647273 263.085712 
L 363.058182 261.67308 
L 368.469091 258.471232 
L 373.88 250.8068 
L 379.290909 249.095727 
L 384.701818 250.143401 
L 390.112727 248.659633 
L 395.523636 248.422864 
L 400.934545 243.720689 
L 406.345455 236.72909 
L 411.756364 238.66602 
L 417.167273 241.806122 
L 422.578182 244.95546 
L 427.989091 244.993074 
" clip-path="url(#pc72058da0e)" style="fill: none; stroke: #1f77b4; stroke-width: 1.5; stroke-linecap: square"/>
   </g>
   <g id="line2d_20">
    <path d="M 81.690909 80.126512 
L 87.101818 96.40611 
L 92.512727 131.257337 
L 97.923636 110.361687 
L 103.334545 98.455699 
L 108.745455 168.563036 
L 114.156364 204.815847 
L 119.567273 228.554147 
L 124.978182 243.627895 
L 130.389091 243.614689 
L 135.8 247.659055 
L 141.210909 248.846534 
L 146.621818 246.169607 
L 152.032727 236.8006 
L 157.443636 239.843144 
L 162.854545 240.758589 
L 168.265455 249.002931 
L 173.676364 240.182965 
L 179.087273 245.650732 
L 184.498182 245.339013 
L 189.909091 248.992765 
L 195.32 249.990817 
L 200.730909 247.993577 
L 206.141818 249.058957 
L 211.552727 247.704733 
L 216.963636 249.712309 
L 222.374545 251.54238 
L 227.785455 252.85476 
L 233.196364 255.054181 
L 238.607273 258.472066 
L 244.018182 258.037706 
L 249.429091 259.304362 
L 254.84 259.753181 
L 260.250909 263.218193 
L 265.661818 261.394683 
L 271.072727 233.876035 
L 276.483636 247.675742 
L 281.894545 256.824924 
L 287.305455 259.803458 
L 292.716364 264.579759 
L 298.127273 266.764613 
L 303.538182 266.039573 
L 308.949091 264.070429 
L 314.36 261.04522 
L 319.770909 265.228807 
L 325.181818 262.832683 
L 330.592727 260.528279 
L 336.003636 261.354043 
L 341.414545 262.613251 
L 346.825455 263.036291 
L 352.236364 264.391694 
L 357.647273 263.437411 
L 363.058182 266.089558 
L 368.469091 266.621159 
L 373.88 262.975547 
L 379.290909 259.038721 
L 384.701818 258.913521 
L 390.112727 254.996715 
L 395.523636 262.052526 
L 400.934545 238.79342 
L 406.345455 246.048021 
L 411.756364 246.033891 
L 417.167273 252.900198 
L 422.578182 261.0388 
L 427.989091 260.933601 
" clip-path="url(#pc72058da0e)" style="fill: none; stroke: #ff7f0e; stroke-width: 1.5; stroke-linecap: square"/>
   </g>
   <g id="line2d_21">
    <path d="M 81.690909 184.169224 
L 87.101818 151.634444 
L 92.512727 134.417274 
L 97.923636 110.319993 
L 103.334545 156.429233 
L 108.745455 175.051404 
L 114.156364 205.298502 
L 119.567273 222.106817 
L 124.978182 244.395442 
L 130.389091 245.790461 
L 135.8 250.785201 
L 141.210909 252.976222 
L 146.621818 254.583382 
L 152.032727 259.571189 
L 157.443636 261.90567 
L 162.854545 268.455779 
L 168.265455 265.827144 
L 173.676364 264.719915 
L 179.087273 267.887563 
L 184.498182 270.915473 
L 189.909091 268.217743 
L 195.32 266.996455 
L 200.730909 261.615077 
L 206.141818 258.649643 
L 211.552727 262.933524 
L 216.963636 261.744896 
L 222.374545 255.782587 
L 227.785455 255.055789 
L 233.196364 251.730381 
L 238.607273 251.565013 
L 244.018182 255.262958 
L 249.429091 251.401347 
L 254.84 250.395586 
L 260.250909 251.899298 
L 265.661818 248.10086 
L 271.072727 248.994605 
L 276.483636 245.180365 
L 281.894545 245.776331 
L 287.305455 241.08883 
L 292.716364 237.333318 
L 298.127273 240.419386 
L 303.538182 238.209625 
L 308.949091 249.542383 
L 314.36 250.140693 
L 319.770909 253.998429 
L 325.181818 252.316003 
L 330.592727 249.148281 
L 336.003636 247.15639 
L 341.414545 245.244655 
L 346.825455 243.810102 
L 352.236364 242.304659 
L 357.647273 247.866977 
L 363.058182 249.402813 
L 368.469091 246.334369 
L 373.88 243.348208 
L 379.290909 237.571467 
L 384.701818 242.643294 
L 390.112727 242.047933 
L 395.523636 241.724322 
L 400.934545 242.268078 
L 406.345455 238.554533 
L 411.756364 240.689617 
L 417.167273 240.817343 
L 422.578182 245.275681 
L 427.989091 248.907621 
L 433.4 249.017755 
" clip-path="url(#pc72058da0e)" style="fill: none; stroke: #2ca02c; stroke-width: 1.5; stroke-linecap: square"/>
   </g>
   <g id="line2d_22">
    <path d="M 81.690909 180.90138 
L 87.101818 223.347686 
L 92.512727 235.785204 
L 97.923636 247.075972 
L 103.334545 249.015776 
L 108.745455 253.521436 
L 114.156364 256.111205 
L 119.567273 259.202427 
L 124.978182 267.4298 
L 130.389091 242.586574 
L 135.8 238.312359 
L 141.210909 249.895054 
L 146.621818 262.901187 
L 152.032727 267.726076 
L 157.443636 240.543523 
L 162.854545 203.64723 
L 168.265455 197.83438 
L 173.676364 105.703355 
L 179.087273 127.233738 
L 184.498182 172.914608 
L 189.909091 183.431073 
L 195.32 136.081027 
L 200.730909 106.21969 
L 206.141818 86.560732 
L 211.552727 114.803269 
L 216.963636 159.605501 
L 222.374545 107.838513 
L 227.785455 145.999877 
L 233.196364 163.019637 
L 238.607273 148.216435 
L 244.018182 135.719048 
L 249.429091 193.272967 
L 254.84 168.831271 
L 260.250909 148.639164 
L 265.661818 142.577358 
L 271.072727 147.246743 
L 276.483636 111.160583 
L 281.894545 85.312598 
L 287.305455 92.805618 
L 292.716364 138.259728 
L 298.127273 107.609392 
L 303.538182 115.351593 
L 308.949091 136.65967 
L 314.36 136.386182 
L 319.770909 116.200628 
L 325.181818 122.929806 
L 330.592727 105.664914 
L 336.003636 106.089841 
L 341.414545 99.819468 
L 346.825455 64.65721 
L 352.236364 126.339744 
L 357.647273 115.074508 
L 363.058182 80.071735 
L 368.469091 109.368057 
L 373.88 125.276275 
L 379.290909 119.425853 
L 384.701818 165.62054 
L 390.112727 132.647801 
L 395.523636 131.825009 
L 400.934545 178.511155 
L 406.345455 199.548991 
L 411.756364 191.538599 
" clip-path="url(#pc72058da0e)" style="fill: none; stroke: #d62728; stroke-width: 1.5; stroke-linecap: square"/>
   </g>
   <g id="line2d_23">
    <path d="M 81.690909 40.552125 
L 87.101818 133.979145 
L 92.512727 167.476649 
L 97.923636 169.164061 
L 103.334545 207.735742 
L 108.745455 228.732829 
L 114.156364 200.94654 
L 119.567273 222.424396 
L 124.978182 223.642293 
L 130.389091 242.30062 
L 135.8 250.707043 
L 141.210909 262.187185 
L 146.621818 270.735222 
L 152.032727 266.884033 
L 157.443636 261.93103 
L 162.854545 256.601449 
L 168.265455 244.911636 
L 173.676364 171.284712 
L 179.087273 206.376657 
L 184.498182 211.573469 
L 189.909091 130.106766 
L 195.32 150.627266 
L 200.730909 190.766244 
L 206.141818 214.546052 
L 211.552727 185.696882 
L 216.963636 211.891639 
L 222.374545 191.082775 
L 227.785455 204.249704 
L 233.196364 181.766979 
L 238.607273 206.759644 
L 244.018182 162.350306 
L 249.429091 164.62403 
L 254.84 186.48652 
L 260.250909 207.443847 
L 265.661818 219.588614 
L 271.072727 235.160993 
L 276.483636 240.024068 
L 281.894545 244.758337 
L 287.305455 231.844703 
L 292.716364 249.993482 
L 298.127273 250.512024 
L 303.538182 199.877988 
L 308.949091 218.434223 
L 314.36 210.977878 
L 319.770909 173.19362 
L 325.181818 201.392768 
L 330.592727 209.227191 
L 336.003636 219.290359 
L 341.414545 194.637673 
L 346.825455 218.361904 
L 352.236364 214.547347 
L 357.647273 213.118881 
L 363.058182 207.47911 
L 368.469091 197.119531 
L 373.88 226.82331 
L 379.290909 232.182257 
L 384.701818 227.923373 
L 390.112727 235.846211 
L 395.523636 246.452291 
L 400.934545 255.775308 
L 406.345455 245.132529 
L 411.756364 235.47056 
L 417.167273 244.643792 
L 422.578182 233.153527 
L 427.989091 206.908768 
L 433.4 207.705387 
L 438.810909 194.512614 
L 444.221818 205.695677 
L 449.632727 221.928235 
L 455.043636 230.504647 
L 460.454545 223.089076 
L 465.865455 218.527428 
L 471.276364 216.683013 
L 476.687273 215.111646 
L 482.098182 227.591034 
L 487.509091 224.478445 
" clip-path="url(#pc72058da0e)" style="fill: none; stroke: #9467bd; stroke-width: 1.5; stroke-linecap: square"/>
   </g>
   <g id="line2d_24">
    <path d="M 81.690909 120.071513 
L 87.101818 159.86404 
L 92.512727 203.558619 
L 97.923636 230.743623 
L 103.334545 231.197112 
L 108.745455 243.330435 
L 114.156364 257.961222 
L 119.567273 189.308081 
L 124.978182 203.598175 
L 130.389091 228.441259 
L 135.8 224.377217 
L 141.210909 229.149735 
L 146.621818 241.703232 
L 152.032727 253.595652 
L 157.443636 265.680974 
L 162.854545 256.839441 
L 168.265455 241.140279 
L 173.676364 252.696506 
L 179.087273 258.670753 
L 184.498182 259.274941 
L 189.909091 264.307404 
L 195.32 260.222738 
L 200.730909 254.287061 
L 206.141818 255.244434 
L 211.552727 254.530455 
L 216.963636 252.864009 
L 222.374545 253.088403 
L 227.785455 258.102536 
L 233.196364 257.193951 
L 238.607273 260.613799 
L 244.018182 255.288509 
L 249.429091 242.962724 
L 254.84 257.06956 
L 260.250909 263.549999 
L 265.661818 246.289055 
L 271.072727 220.308354 
L 276.483636 204.01815 
L 281.894545 232.049085 
L 287.305455 250.5281 
L 292.716364 259.185181 
L 298.127273 248.995015 
L 303.538182 255.412221 
L 308.949091 264.662941 
L 314.36 244.936198 
L 319.770909 208.924758 
L 325.181818 222.243994 
L 330.592727 227.952244 
L 336.003636 232.453209 
L 341.414545 237.843741 
L 346.825455 193.412566 
L 352.236364 113.060394 
L 357.647273 110.230725 
L 363.058182 92.257687 
L 368.469091 109.796751 
L 373.88 139.139956 
L 379.290909 191.283854 
L 384.701818 219.969285 
L 390.112727 239.794987 
L 395.523636 209.366429 
L 400.934545 212.542938 
L 406.345455 199.175667 
L 411.756364 195.090988 
L 417.167273 187.63474 
L 422.578182 167.537969 
L 427.989091 157.903839 
" clip-path="url(#pc72058da0e)" style="fill: none; stroke: #8c564b; stroke-width: 1.5; stroke-linecap: square"/>
   </g>
   <g id="line2d_25">
    <path d="M 81.690909 239.813298 
L 87.101818 245.724821 
L 92.512727 235.662828 
L 97.923636 219.178169 
L 103.334545 194.800333 
L 108.745455 193.944954 
L 114.156364 193.837771 
L 119.567273 183.432343 
L 124.978182 185.402441 
L 130.389091 187.809501 
L 135.8 193.896544 
L 141.210909 201.541208 
L 146.621818 214.459552 
L 152.032727 226.062151 
L 157.443636 230.762947 
L 162.854545 238.548741 
L 168.265455 242.909295 
L 173.676364 239.510086 
L 179.087273 253.266795 
L 184.498182 256.092396 
L 189.909091 264.005481 
L 195.32 269.89827 
L 200.730909 268.815789 
L 206.141818 269.753038 
L 211.552727 270.16728 
L 216.963636 272.229829 
L 222.374545 274.279017 
L 227.785455 274.962232 
L 233.196364 273.229585 
L 238.607273 272.790444 
L 244.018182 272.853492 
L 249.429091 275.50761 
L 254.84 272.924413 
L 260.250909 271.313425 
L 265.661818 272.140794 
L 271.072727 271.872474 
L 276.483636 273.037522 
L 281.894545 276.366682 
L 287.305455 276.307684 
L 292.716364 278.934394 
L 298.127273 279.710168 
L 303.538182 277.437131 
L 308.949091 275.924727 
L 314.36 273.171483 
L 319.770909 275.551473 
L 325.181818 274.033496 
L 330.592727 272.250076 
L 336.003636 265.955216 
L 341.414545 264.979114 
L 346.825455 261.651546 
L 352.236364 261.342096 
L 357.647273 262.755082 
L 363.058182 264.694787 
L 368.469091 268.715508 
L 373.88 270.163053 
L 379.290909 274.590011 
L 384.701818 277.714035 
L 390.112727 276.104281 
L 395.523636 274.425732 
L 400.934545 277.328858 
L 406.345455 277.820209 
L 411.756364 277.790688 
L 417.167273 278.578714 
L 422.578182 278.8026 
L 427.989091 280.842594 
L 433.4 281.399812 
" clip-path="url(#pc72058da0e)" style="fill: none; stroke: #e377c2; stroke-width: 1.5; stroke-linecap: square"/>
   </g>
   <g id="line2d_26">
    <path d="M 81.690909 222.477694 
L 87.101818 223.433394 
L 92.512727 184.684514 
L 97.923636 156.973068 
L 103.334545 134.567082 
L 108.745455 138.308839 
L 114.156364 134.759662 
L 119.567273 111.283329 
L 124.978182 104.444967 
L 130.389091 95.556064 
L 135.8 114.506785 
L 141.210909 129.293273 
L 146.621818 128.966438 
L 152.032727 149.970522 
L 157.443636 160.318108 
L 162.854545 156.590434 
L 168.265455 173.226606 
L 173.676364 187.673042 
L 179.087273 199.420845 
L 184.498182 195.239996 
L 189.909091 206.903017 
L 195.32 222.034043 
L 200.730909 229.470279 
L 206.141818 234.58135 
L 211.552727 221.4823 
L 216.963636 230.562444 
L 222.374545 238.909636 
L 227.785455 243.728579 
L 233.196364 243.189267 
L 238.607273 244.615011 
L 244.018182 244.477616 
L 249.429091 244.865145 
L 254.84 246.260586 
L 260.250909 242.121144 
L 265.661818 243.925136 
L 271.072727 237.798528 
L 276.483636 239.039689 
L 281.894545 247.818656 
L 287.305455 255.109357 
L 292.716364 262.560541 
L 298.127273 267.917203 
L 303.538182 271.861361 
L 308.949091 270.431041 
L 314.36 269.909661 
L 319.770909 271.023092 
L 325.181818 277.587086 
L 330.592727 280.696067 
L 336.003636 282.406581 
L 341.414545 282.007534 
L 346.825455 284.204231 
L 352.236364 286.942993 
L 357.647273 287.290043 
L 363.058182 287.897927 
L 368.469091 289.278391 
L 373.88 290.406751 
L 379.290909 291.166934 
L 384.701818 292.168781 
L 390.112727 292.552125 
L 395.523636 292.130302 
L 400.934545 292.494798 
L 406.345455 291.817604 
L 411.756364 291.625197 
L 417.167273 292.304413 
L 422.578182 292.412308 
L 427.989091 291.336258 
" clip-path="url(#pc72058da0e)" style="fill: none; stroke: #7f7f7f; stroke-width: 1.5; stroke-linecap: square"/>
   </g>
   <g id="line2d_27">
    <path d="M 81.690909 203.546511 
L 87.101818 204.824711 
L 92.512727 164.909518 
L 97.923636 134.676748 
L 103.334545 103.22456 
L 108.745455 104.991111 
L 114.156364 124.840458 
L 119.567273 116.637844 
L 124.978182 147.744958 
L 130.389091 161.442027 
L 135.8 183.883774 
L 141.210909 196.687672 
L 146.621818 199.875888 
L 152.032727 182.586845 
L 157.443636 133.323464 
L 162.854545 113.32868 
L 168.265455 100.03269 
L 173.676364 97.102611 
L 179.087273 125.376142 
L 184.498182 120.814589 
L 189.909091 158.485917 
L 195.32 192.798276 
L 200.730909 206.9446 
L 206.141818 223.936221 
L 211.552727 239.137517 
L 216.963636 235.447978 
L 222.374545 243.417518 
L 227.785455 241.432017 
L 233.196364 214.012699 
L 238.607273 225.498704 
L 244.018182 224.806994 
L 249.429091 223.106764 
L 254.84 218.453875 
L 260.250909 217.094659 
L 265.661818 223.597513 
L 271.072727 229.938999 
L 276.483636 241.982069 
L 281.894545 248.575566 
L 287.305455 251.225758 
L 292.716364 258.199415 
L 298.127273 260.196836 
L 303.538182 256.974676 
L 308.949091 257.944426 
L 314.36 243.858179 
L 319.770909 251.849813 
L 325.181818 256.59761 
L 330.592727 255.997451 
L 336.003636 259.530589 
L 341.414545 261.509388 
L 346.825455 266.7161 
L 352.236364 270.806621 
L 357.647273 266.924692 
L 363.058182 265.226147 
L 368.469091 268.455665 
L 373.88 273.546407 
" clip-path="url(#pc72058da0e)" style="fill: none; stroke: #bcbd22; stroke-width: 1.5; stroke-linecap: square"/>
   </g>
   <g id="patch_3">
    <path d="M 61.4 305.152125 
L 61.4 27.952125 
" style="fill: none; stroke: #000000; stroke-width: 0.8; stroke-linejoin: miter; stroke-linecap: square"/>
   </g>
   <g id="patch_4">
    <path d="M 507.8 305.152125 
L 507.8 27.952125 
" style="fill: none; stroke: #000000; stroke-width: 0.8; stroke-linejoin: miter; stroke-linecap: square"/>
   </g>
   <g id="patch_5">
    <path d="M 61.4 305.152125 
L 507.8 305.152125 
" style="fill: none; stroke: #000000; stroke-width: 0.8; stroke-linejoin: miter; stroke-linecap: square"/>
   </g>
   <g id="patch_6">
    <path d="M 61.4 27.952125 
L 507.8 27.952125 
" style="fill: none; stroke: #000000; stroke-width: 0.8; stroke-linejoin: miter; stroke-linecap: square"/>
   </g>
   <g id="text_13">
    <!-- ML10 Meta Testing -->
    <g transform="translate(197.604313 21.952125)scale(0.216 -0.216)">
     <defs>
      <path id="STIXGeneral-Regular-4d" d="M 5530 0 
L 3738 0 
L 3738 122 
Q 4115 147 4214 265 
Q 4314 384 4314 787 
L 4314 3661 
L 2682 0 
L 2592 0 
L 979 3514 
L 979 966 
Q 979 448 1088 294 
Q 1197 141 1574 122 
L 1574 0 
L 77 0 
L 77 122 
Q 358 141 480 205 
Q 602 269 650 432 
Q 698 595 698 966 
L 698 3514 
Q 698 3878 589 3984 
Q 480 4090 90 4115 
L 90 4237 
L 1357 4237 
L 2835 1024 
L 4250 4237 
L 5523 4237 
L 5523 4115 
Q 5178 4109 5072 3993 
Q 4966 3878 4966 3520 
L 4966 717 
Q 4966 378 5072 262 
Q 5178 147 5530 122 
L 5530 0 
z
" transform="scale(0.015625)"/>
      <path id="STIXGeneral-Regular-4c" d="M 3827 1114 
L 3520 0 
L 77 0 
L 77 122 
Q 429 141 531 256 
Q 634 371 634 736 
L 634 3494 
Q 634 3872 541 3981 
Q 448 4090 77 4115 
L 77 4237 
L 1888 4237 
L 1888 4115 
Q 1498 4090 1392 3984 
Q 1286 3878 1286 3507 
L 1286 538 
Q 1286 358 1398 304 
Q 1510 250 1862 250 
L 2310 250 
Q 3085 250 3392 640 
Q 3520 813 3661 1114 
L 3827 1114 
z
" transform="scale(0.015625)"/>
     </defs>
     <use xlink:href="#STIXGeneral-Regular-4d"/>
     <use xlink:href="#STIXGeneral-Regular-4c" x="88.899994"/>
     <use xlink:href="#STIXGeneral-Regular-31" x="149.999985"/>
     <use xlink:href="#STIXGeneral-Regular-30" x="199.999969"/>
     <use xlink:href="#STIXGeneral-Regular-20" x="249.999954"/>
     <use xlink:href="#STIXGeneral-Regular-4d" x="274.999939"/>
     <use xlink:href="#STIXGeneral-Regular-65" x="363.899933"/>
     <use xlink:href="#STIXGeneral-Regular-74" x="408.299927"/>
     <use xlink:href="#STIXGeneral-Regular-61" x="436.099915"/>
     <use xlink:href="#STIXGeneral-Regular-20" x="480.499908"/>
     <use xlink:href="#STIXGeneral-Regular-54" x="505.499893"/>
     <use xlink:href="#STIXGeneral-Regular-65" x="566.599884"/>
     <use xlink:href="#STIXGeneral-Regular-73" x="610.999878"/>
     <use xlink:href="#STIXGeneral-Regular-74" x="649.899872"/>
     <use xlink:href="#STIXGeneral-Regular-69" x="677.69986"/>
     <use xlink:href="#STIXGeneral-Regular-6e" x="705.499847"/>
     <use xlink:href="#STIXGeneral-Regular-67" x="755.499832"/>
    </g>
   </g>
   <g id="legend_1">
    <g id="patch_7">
     <path d="M 316.590625 164.102125 
L 502.2 164.102125 
Q 505 164.102125 505 161.302125 
L 505 33.552125 
Q 505 30.752125 502.2 30.752125 
L 316.590625 30.752125 
Q 313.790625 30.752125 313.790625 33.552125 
L 313.790625 161.302125 
Q 313.790625 164.102125 316.590625 164.102125 
z
" style="fill: #ffffff; opacity: 0.8; stroke: #cccccc; stroke-linejoin: miter"/>
    </g>
    <g id="line2d_28">
     <path d="M 317.990625 40.663687 
L 324.990625 40.663687 
L 331.990625 40.663687 
" style="fill: none; stroke: #1f77b4; stroke-width: 1.5; stroke-linecap: square"/>
    </g>
    <g id="text_14">
     <!-- pol-lr=0.0001_val-lr=0.0001 -->
     <g transform="translate(336.190625 44.513687)scale(0.14 -0.14)">
      <defs>
       <path id="STIXGeneral-Regular-6c" d="M 1645 0 
L 134 0 
L 134 96 
Q 435 122 531 221 
Q 627 320 627 589 
L 627 3590 
Q 627 3821 569 3910 
Q 512 4000 358 4000 
Q 224 4000 122 3987 
L 122 4090 
Q 730 4237 1133 4371 
L 1165 4346 
L 1165 557 
Q 1165 288 1254 201 
Q 1344 115 1645 96 
L 1645 0 
z
" transform="scale(0.015625)"/>
       <path id="STIXGeneral-Regular-2d" d="M 1824 1242 
L 250 1242 
L 250 1645 
L 1824 1645 
L 1824 1242 
z
" transform="scale(0.015625)"/>
       <path id="STIXGeneral-Regular-3d" d="M 4077 2048 
L 307 2048 
L 307 2470 
L 4077 2470 
L 4077 2048 
z
M 4077 768 
L 307 768 
L 307 1190 
L 4077 1190 
L 4077 768 
z
" transform="scale(0.015625)"/>
       <path id="STIXGeneral-Regular-5f" d="M 3200 -800 
L 0 -800 
L 0 -480 
L 3200 -480 
L 3200 -800 
z
" transform="scale(0.015625)"/>
      </defs>
      <use xlink:href="#STIXGeneral-Regular-70"/>
      <use xlink:href="#STIXGeneral-Regular-6f" x="49.999985"/>
      <use xlink:href="#STIXGeneral-Regular-6c" x="99.999969"/>
      <use xlink:href="#STIXGeneral-Regular-2d" x="127.799957"/>
      <use xlink:href="#STIXGeneral-Regular-6c" x="161.099945"/>
      <use xlink:href="#STIXGeneral-Regular-72" x="188.899933"/>
      <use xlink:href="#STIXGeneral-Regular-3d" x="222.199921"/>
      <use xlink:href="#STIXGeneral-Regular-30" x="290.699905"/>
      <use xlink:href="#STIXGeneral-Regular-2e" x="340.69989"/>
      <use xlink:href="#STIXGeneral-Regular-30" x="365.699875"/>
      <use xlink:href="#STIXGeneral-Regular-30" x="415.69986"/>
      <use xlink:href="#STIXGeneral-Regular-30" x="465.699844"/>
      <use xlink:href="#STIXGeneral-Regular-31" x="515.699829"/>
      <use xlink:href="#STIXGeneral-Regular-5f" x="565.699814"/>
      <use xlink:href="#STIXGeneral-Regular-76" x="615.699799"/>
      <use xlink:href="#STIXGeneral-Regular-61" x="665.699783"/>
      <use xlink:href="#STIXGeneral-Regular-6c" x="710.099777"/>
      <use xlink:href="#STIXGeneral-Regular-2d" x="737.899765"/>
      <use xlink:href="#STIXGeneral-Regular-6c" x="771.199753"/>
      <use xlink:href="#STIXGeneral-Regular-72" x="798.999741"/>
      <use xlink:href="#STIXGeneral-Regular-3d" x="832.299728"/>
      <use xlink:href="#STIXGeneral-Regular-30" x="900.799713"/>
      <use xlink:href="#STIXGeneral-Regular-2e" x="950.799698"/>
      <use xlink:href="#STIXGeneral-Regular-30" x="975.799683"/>
      <use xlink:href="#STIXGeneral-Regular-30" x="1025.799667"/>
      <use xlink:href="#STIXGeneral-Regular-30" x="1075.799652"/>
      <use xlink:href="#STIXGeneral-Regular-31" x="1125.799637"/>
     </g>
    </g>
    <g id="line2d_29">
     <path d="M 317.990625 54.663687 
L 324.990625 54.663687 
L 331.990625 54.663687 
" style="fill: none; stroke: #ff7f0e; stroke-width: 1.5; stroke-linecap: square"/>
    </g>
    <g id="text_15">
     <!-- pol-lr=0.0001_val-lr=0.001 -->
     <g transform="translate(336.190625 58.513687)scale(0.14 -0.14)">
      <use xlink:href="#STIXGeneral-Regular-70"/>
      <use xlink:href="#STIXGeneral-Regular-6f" x="49.999985"/>
      <use xlink:href="#STIXGeneral-Regular-6c" x="99.999969"/>
      <use xlink:href="#STIXGeneral-Regular-2d" x="127.799957"/>
      <use xlink:href="#STIXGeneral-Regular-6c" x="161.099945"/>
      <use xlink:href="#STIXGeneral-Regular-72" x="188.899933"/>
      <use xlink:href="#STIXGeneral-Regular-3d" x="222.199921"/>
      <use xlink:href="#STIXGeneral-Regular-30" x="290.699905"/>
      <use xlink:href="#STIXGeneral-Regular-2e" x="340.69989"/>
      <use xlink:href="#STIXGeneral-Regular-30" x="365.699875"/>
      <use xlink:href="#STIXGeneral-Regular-30" x="415.69986"/>
      <use xlink:href="#STIXGeneral-Regular-30" x="465.699844"/>
      <use xlink:href="#STIXGeneral-Regular-31" x="515.699829"/>
      <use xlink:href="#STIXGeneral-Regular-5f" x="565.699814"/>
      <use xlink:href="#STIXGeneral-Regular-76" x="615.699799"/>
      <use xlink:href="#STIXGeneral-Regular-61" x="665.699783"/>
      <use xlink:href="#STIXGeneral-Regular-6c" x="710.099777"/>
      <use xlink:href="#STIXGeneral-Regular-2d" x="737.899765"/>
      <use xlink:href="#STIXGeneral-Regular-6c" x="771.199753"/>
      <use xlink:href="#STIXGeneral-Regular-72" x="798.999741"/>
      <use xlink:href="#STIXGeneral-Regular-3d" x="832.299728"/>
      <use xlink:href="#STIXGeneral-Regular-30" x="900.799713"/>
      <use xlink:href="#STIXGeneral-Regular-2e" x="950.799698"/>
      <use xlink:href="#STIXGeneral-Regular-30" x="975.799683"/>
      <use xlink:href="#STIXGeneral-Regular-30" x="1025.799667"/>
      <use xlink:href="#STIXGeneral-Regular-31" x="1075.799652"/>
     </g>
    </g>
    <g id="line2d_30">
     <path d="M 317.990625 68.733687 
L 324.990625 68.733687 
L 331.990625 68.733687 
" style="fill: none; stroke: #2ca02c; stroke-width: 1.5; stroke-linecap: square"/>
    </g>
    <g id="text_16">
     <!-- pol-lr=0.0001_val-lr=1e-05 -->
     <g transform="translate(336.190625 72.583687)scale(0.14 -0.14)">
      <use xlink:href="#STIXGeneral-Regular-70"/>
      <use xlink:href="#STIXGeneral-Regular-6f" x="49.999985"/>
      <use xlink:href="#STIXGeneral-Regular-6c" x="99.999969"/>
      <use xlink:href="#STIXGeneral-Regular-2d" x="127.799957"/>
      <use xlink:href="#STIXGeneral-Regular-6c" x="161.099945"/>
      <use xlink:href="#STIXGeneral-Regular-72" x="188.899933"/>
      <use xlink:href="#STIXGeneral-Regular-3d" x="222.199921"/>
      <use xlink:href="#STIXGeneral-Regular-30" x="290.699905"/>
      <use xlink:href="#STIXGeneral-Regular-2e" x="340.69989"/>
      <use xlink:href="#STIXGeneral-Regular-30" x="365.699875"/>
      <use xlink:href="#STIXGeneral-Regular-30" x="415.69986"/>
      <use xlink:href="#STIXGeneral-Regular-30" x="465.699844"/>
      <use xlink:href="#STIXGeneral-Regular-31" x="515.699829"/>
      <use xlink:href="#STIXGeneral-Regular-5f" x="565.699814"/>
      <use xlink:href="#STIXGeneral-Regular-76" x="615.699799"/>
      <use xlink:href="#STIXGeneral-Regular-61" x="665.699783"/>
      <use xlink:href="#STIXGeneral-Regular-6c" x="710.099777"/>
      <use xlink:href="#STIXGeneral-Regular-2d" x="737.899765"/>
      <use xlink:href="#STIXGeneral-Regular-6c" x="771.199753"/>
      <use xlink:href="#STIXGeneral-Regular-72" x="798.999741"/>
      <use xlink:href="#STIXGeneral-Regular-3d" x="832.299728"/>
      <use xlink:href="#STIXGeneral-Regular-31" x="900.799713"/>
      <use xlink:href="#STIXGeneral-Regular-65" x="950.799698"/>
      <use xlink:href="#STIXGeneral-Regular-2d" x="995.199692"/>
      <use xlink:href="#STIXGeneral-Regular-30" x="1028.49968"/>
      <use xlink:href="#STIXGeneral-Regular-35" x="1078.499664"/>
     </g>
    </g>
    <g id="line2d_31">
     <path d="M 317.990625 82.803687 
L 324.990625 82.803687 
L 331.990625 82.803687 
" style="fill: none; stroke: #d62728; stroke-width: 1.5; stroke-linecap: square"/>
    </g>
    <g id="text_17">
     <!-- pol-lr=0.001_va-lr=1e-05 -->
     <g transform="translate(336.190625 86.653687)scale(0.14 -0.14)">
      <use xlink:href="#STIXGeneral-Regular-70"/>
      <use xlink:href="#STIXGeneral-Regular-6f" x="49.999985"/>
      <use xlink:href="#STIXGeneral-Regular-6c" x="99.999969"/>
      <use xlink:href="#STIXGeneral-Regular-2d" x="127.799957"/>
      <use xlink:href="#STIXGeneral-Regular-6c" x="161.099945"/>
      <use xlink:href="#STIXGeneral-Regular-72" x="188.899933"/>
      <use xlink:href="#STIXGeneral-Regular-3d" x="222.199921"/>
      <use xlink:href="#STIXGeneral-Regular-30" x="290.699905"/>
      <use xlink:href="#STIXGeneral-Regular-2e" x="340.69989"/>
      <use xlink:href="#STIXGeneral-Regular-30" x="365.699875"/>
      <use xlink:href="#STIXGeneral-Regular-30" x="415.69986"/>
      <use xlink:href="#STIXGeneral-Regular-31" x="465.699844"/>
      <use xlink:href="#STIXGeneral-Regular-5f" x="515.699829"/>
      <use xlink:href="#STIXGeneral-Regular-76" x="565.699814"/>
      <use xlink:href="#STIXGeneral-Regular-61" x="615.699799"/>
      <use xlink:href="#STIXGeneral-Regular-2d" x="660.099792"/>
      <use xlink:href="#STIXGeneral-Regular-6c" x="693.39978"/>
      <use xlink:href="#STIXGeneral-Regular-72" x="721.199768"/>
      <use xlink:href="#STIXGeneral-Regular-3d" x="754.499756"/>
      <use xlink:href="#STIXGeneral-Regular-31" x="822.999741"/>
      <use xlink:href="#STIXGeneral-Regular-65" x="872.999725"/>
      <use xlink:href="#STIXGeneral-Regular-2d" x="917.399719"/>
      <use xlink:href="#STIXGeneral-Regular-30" x="950.699707"/>
      <use xlink:href="#STIXGeneral-Regular-35" x="1000.699692"/>
     </g>
    </g>
    <g id="line2d_32">
     <path d="M 317.990625 96.803687 
L 324.990625 96.803687 
L 331.990625 96.803687 
" style="fill: none; stroke: #9467bd; stroke-width: 1.5; stroke-linecap: square"/>
    </g>
    <g id="text_18">
     <!-- pol-lr=0.001_val-lr=0.0001 -->
     <g transform="translate(336.190625 100.653687)scale(0.14 -0.14)">
      <use xlink:href="#STIXGeneral-Regular-70"/>
      <use xlink:href="#STIXGeneral-Regular-6f" x="49.999985"/>
      <use xlink:href="#STIXGeneral-Regular-6c" x="99.999969"/>
      <use xlink:href="#STIXGeneral-Regular-2d" x="127.799957"/>
      <use xlink:href="#STIXGeneral-Regular-6c" x="161.099945"/>
      <use xlink:href="#STIXGeneral-Regular-72" x="188.899933"/>
      <use xlink:href="#STIXGeneral-Regular-3d" x="222.199921"/>
      <use xlink:href="#STIXGeneral-Regular-30" x="290.699905"/>
      <use xlink:href="#STIXGeneral-Regular-2e" x="340.69989"/>
      <use xlink:href="#STIXGeneral-Regular-30" x="365.699875"/>
      <use xlink:href="#STIXGeneral-Regular-30" x="415.69986"/>
      <use xlink:href="#STIXGeneral-Regular-31" x="465.699844"/>
      <use xlink:href="#STIXGeneral-Regular-5f" x="515.699829"/>
      <use xlink:href="#STIXGeneral-Regular-76" x="565.699814"/>
      <use xlink:href="#STIXGeneral-Regular-61" x="615.699799"/>
      <use xlink:href="#STIXGeneral-Regular-6c" x="660.099792"/>
      <use xlink:href="#STIXGeneral-Regular-2d" x="687.89978"/>
      <use xlink:href="#STIXGeneral-Regular-6c" x="721.199768"/>
      <use xlink:href="#STIXGeneral-Regular-72" x="748.999756"/>
      <use xlink:href="#STIXGeneral-Regular-3d" x="782.299744"/>
      <use xlink:href="#STIXGeneral-Regular-30" x="850.799728"/>
      <use xlink:href="#STIXGeneral-Regular-2e" x="900.799713"/>
      <use xlink:href="#STIXGeneral-Regular-30" x="925.799698"/>
      <use xlink:href="#STIXGeneral-Regular-30" x="975.799683"/>
      <use xlink:href="#STIXGeneral-Regular-30" x="1025.799667"/>
      <use xlink:href="#STIXGeneral-Regular-31" x="1075.799652"/>
     </g>
    </g>
    <g id="line2d_33">
     <path d="M 317.990625 110.803687 
L 324.990625 110.803687 
L 331.990625 110.803687 
" style="fill: none; stroke: #8c564b; stroke-width: 1.5; stroke-linecap: square"/>
    </g>
    <g id="text_19">
     <!-- pol-lr=0.001_val-lr=0.001 -->
     <g transform="translate(336.190625 114.653687)scale(0.14 -0.14)">
      <use xlink:href="#STIXGeneral-Regular-70"/>
      <use xlink:href="#STIXGeneral-Regular-6f" x="49.999985"/>
      <use xlink:href="#STIXGeneral-Regular-6c" x="99.999969"/>
      <use xlink:href="#STIXGeneral-Regular-2d" x="127.799957"/>
      <use xlink:href="#STIXGeneral-Regular-6c" x="161.099945"/>
      <use xlink:href="#STIXGeneral-Regular-72" x="188.899933"/>
      <use xlink:href="#STIXGeneral-Regular-3d" x="222.199921"/>
      <use xlink:href="#STIXGeneral-Regular-30" x="290.699905"/>
      <use xlink:href="#STIXGeneral-Regular-2e" x="340.69989"/>
      <use xlink:href="#STIXGeneral-Regular-30" x="365.699875"/>
      <use xlink:href="#STIXGeneral-Regular-30" x="415.69986"/>
      <use xlink:href="#STIXGeneral-Regular-31" x="465.699844"/>
      <use xlink:href="#STIXGeneral-Regular-5f" x="515.699829"/>
      <use xlink:href="#STIXGeneral-Regular-76" x="565.699814"/>
      <use xlink:href="#STIXGeneral-Regular-61" x="615.699799"/>
      <use xlink:href="#STIXGeneral-Regular-6c" x="660.099792"/>
      <use xlink:href="#STIXGeneral-Regular-2d" x="687.89978"/>
      <use xlink:href="#STIXGeneral-Regular-6c" x="721.199768"/>
      <use xlink:href="#STIXGeneral-Regular-72" x="748.999756"/>
      <use xlink:href="#STIXGeneral-Regular-3d" x="782.299744"/>
      <use xlink:href="#STIXGeneral-Regular-30" x="850.799728"/>
      <use xlink:href="#STIXGeneral-Regular-2e" x="900.799713"/>
      <use xlink:href="#STIXGeneral-Regular-30" x="925.799698"/>
      <use xlink:href="#STIXGeneral-Regular-30" x="975.799683"/>
      <use xlink:href="#STIXGeneral-Regular-31" x="1025.799667"/>
     </g>
    </g>
    <g id="line2d_34">
     <path d="M 317.990625 124.873687 
L 324.990625 124.873687 
L 331.990625 124.873687 
" style="fill: none; stroke: #e377c2; stroke-width: 1.5; stroke-linecap: square"/>
    </g>
    <g id="text_20">
     <!-- pol-lr=1e-05_va-lr=0.001 -->
     <g transform="translate(336.190625 128.723687)scale(0.14 -0.14)">
      <use xlink:href="#STIXGeneral-Regular-70"/>
      <use xlink:href="#STIXGeneral-Regular-6f" x="49.999985"/>
      <use xlink:href="#STIXGeneral-Regular-6c" x="99.999969"/>
      <use xlink:href="#STIXGeneral-Regular-2d" x="127.799957"/>
      <use xlink:href="#STIXGeneral-Regular-6c" x="161.099945"/>
      <use xlink:href="#STIXGeneral-Regular-72" x="188.899933"/>
      <use xlink:href="#STIXGeneral-Regular-3d" x="222.199921"/>
      <use xlink:href="#STIXGeneral-Regular-31" x="290.699905"/>
      <use xlink:href="#STIXGeneral-Regular-65" x="340.69989"/>
      <use xlink:href="#STIXGeneral-Regular-2d" x="385.099884"/>
      <use xlink:href="#STIXGeneral-Regular-30" x="418.399872"/>
      <use xlink:href="#STIXGeneral-Regular-35" x="468.399857"/>
      <use xlink:href="#STIXGeneral-Regular-5f" x="518.399841"/>
      <use xlink:href="#STIXGeneral-Regular-76" x="568.399826"/>
      <use xlink:href="#STIXGeneral-Regular-61" x="618.399811"/>
      <use xlink:href="#STIXGeneral-Regular-2d" x="662.799805"/>
      <use xlink:href="#STIXGeneral-Regular-6c" x="696.099792"/>
      <use xlink:href="#STIXGeneral-Regular-72" x="723.89978"/>
      <use xlink:href="#STIXGeneral-Regular-3d" x="757.199768"/>
      <use xlink:href="#STIXGeneral-Regular-30" x="825.699753"/>
      <use xlink:href="#STIXGeneral-Regular-2e" x="875.699738"/>
      <use xlink:href="#STIXGeneral-Regular-30" x="900.699722"/>
      <use xlink:href="#STIXGeneral-Regular-30" x="950.699707"/>
      <use xlink:href="#STIXGeneral-Regular-31" x="1000.699692"/>
     </g>
    </g>
    <g id="line2d_35">
     <path d="M 317.990625 138.943687 
L 324.990625 138.943687 
L 331.990625 138.943687 
" style="fill: none; stroke: #7f7f7f; stroke-width: 1.5; stroke-linecap: square"/>
    </g>
    <g id="text_21">
     <!-- pol-lr=1e-05_val-lr=0.0001 -->
     <g transform="translate(336.190625 142.793687)scale(0.14 -0.14)">
      <use xlink:href="#STIXGeneral-Regular-70"/>
      <use xlink:href="#STIXGeneral-Regular-6f" x="49.999985"/>
      <use xlink:href="#STIXGeneral-Regular-6c" x="99.999969"/>
      <use xlink:href="#STIXGeneral-Regular-2d" x="127.799957"/>
      <use xlink:href="#STIXGeneral-Regular-6c" x="161.099945"/>
      <use xlink:href="#STIXGeneral-Regular-72" x="188.899933"/>
      <use xlink:href="#STIXGeneral-Regular-3d" x="222.199921"/>
      <use xlink:href="#STIXGeneral-Regular-31" x="290.699905"/>
      <use xlink:href="#STIXGeneral-Regular-65" x="340.69989"/>
      <use xlink:href="#STIXGeneral-Regular-2d" x="385.099884"/>
      <use xlink:href="#STIXGeneral-Regular-30" x="418.399872"/>
      <use xlink:href="#STIXGeneral-Regular-35" x="468.399857"/>
      <use xlink:href="#STIXGeneral-Regular-5f" x="518.399841"/>
      <use xlink:href="#STIXGeneral-Regular-76" x="568.399826"/>
      <use xlink:href="#STIXGeneral-Regular-61" x="618.399811"/>
      <use xlink:href="#STIXGeneral-Regular-6c" x="662.799805"/>
      <use xlink:href="#STIXGeneral-Regular-2d" x="690.599792"/>
      <use xlink:href="#STIXGeneral-Regular-6c" x="723.89978"/>
      <use xlink:href="#STIXGeneral-Regular-72" x="751.699768"/>
      <use xlink:href="#STIXGeneral-Regular-3d" x="784.999756"/>
      <use xlink:href="#STIXGeneral-Regular-30" x="853.499741"/>
      <use xlink:href="#STIXGeneral-Regular-2e" x="903.499725"/>
      <use xlink:href="#STIXGeneral-Regular-30" x="928.49971"/>
      <use xlink:href="#STIXGeneral-Regular-30" x="978.499695"/>
      <use xlink:href="#STIXGeneral-Regular-30" x="1028.49968"/>
      <use xlink:href="#STIXGeneral-Regular-31" x="1078.499664"/>
     </g>
    </g>
    <g id="line2d_36">
     <path d="M 317.990625 153.013687 
L 324.990625 153.013687 
L 331.990625 153.013687 
" style="fill: none; stroke: #bcbd22; stroke-width: 1.5; stroke-linecap: square"/>
    </g>
    <g id="text_22">
     <!-- pol-lr=1e-05_val-lr=1e-05 -->
     <g transform="translate(336.190625 156.863687)scale(0.14 -0.14)">
      <use xlink:href="#STIXGeneral-Regular-70"/>
      <use xlink:href="#STIXGeneral-Regular-6f" x="49.999985"/>
      <use xlink:href="#STIXGeneral-Regular-6c" x="99.999969"/>
      <use xlink:href="#STIXGeneral-Regular-2d" x="127.799957"/>
      <use xlink:href="#STIXGeneral-Regular-6c" x="161.099945"/>
      <use xlink:href="#STIXGeneral-Regular-72" x="188.899933"/>
      <use xlink:href="#STIXGeneral-Regular-3d" x="222.199921"/>
      <use xlink:href="#STIXGeneral-Regular-31" x="290.699905"/>
      <use xlink:href="#STIXGeneral-Regular-65" x="340.69989"/>
      <use xlink:href="#STIXGeneral-Regular-2d" x="385.099884"/>
      <use xlink:href="#STIXGeneral-Regular-30" x="418.399872"/>
      <use xlink:href="#STIXGeneral-Regular-35" x="468.399857"/>
      <use xlink:href="#STIXGeneral-Regular-5f" x="518.399841"/>
      <use xlink:href="#STIXGeneral-Regular-76" x="568.399826"/>
      <use xlink:href="#STIXGeneral-Regular-61" x="618.399811"/>
      <use xlink:href="#STIXGeneral-Regular-6c" x="662.799805"/>
      <use xlink:href="#STIXGeneral-Regular-2d" x="690.599792"/>
      <use xlink:href="#STIXGeneral-Regular-6c" x="723.89978"/>
      <use xlink:href="#STIXGeneral-Regular-72" x="751.699768"/>
      <use xlink:href="#STIXGeneral-Regular-3d" x="784.999756"/>
      <use xlink:href="#STIXGeneral-Regular-31" x="853.499741"/>
      <use xlink:href="#STIXGeneral-Regular-65" x="903.499725"/>
      <use xlink:href="#STIXGeneral-Regular-2d" x="947.899719"/>
      <use xlink:href="#STIXGeneral-Regular-30" x="981.199707"/>
      <use xlink:href="#STIXGeneral-Regular-35" x="1031.199692"/>
     </g>
    </g>
   </g>
  </g>
 </g>
 <defs>
  <clipPath id="pc72058da0e">
   <rect x="61.4" y="27.952125" width="446.4" height="277.2"/>
  </clipPath>
 </defs>
</svg>
