<?xml version="1.0" encoding="utf-8" standalone="no"?>
<!DOCTYPE svg PUBLIC "-//W3C//DTD SVG 1.1//EN"
  "http://www.w3.org/Graphics/SVG/1.1/DTD/svg11.dtd">
<svg xmlns:xlink="http://www.w3.org/1999/xlink" width="515pt" height="355.769pt" viewBox="0 0 515 355.769" xmlns="http://www.w3.org/2000/svg" version="1.1">
 <metadata>
  <rdf:RDF xmlns:dc="http://purl.org/dc/elements/1.1/" xmlns:cc="http://creativecommons.org/ns#" xmlns:rdf="http://www.w3.org/1999/02/22-rdf-syntax-ns#">
   <cc:Work>
    <dc:type rdf:resource="http://purl.org/dc/dcmitype/StillImage"/>
    <dc:date>2021-12-11T16:05:13.905282</dc:date>
    <dc:format>image/svg+xml</dc:format>
    <dc:creator>
     <cc:Agent>
      <dc:title>Matplotlib v3.5.0, https://matplotlib.org/</dc:title>
     </cc:Agent>
    </dc:creator>
   </cc:Work>
  </rdf:RDF>
 </metadata>
 <defs>
  <style type="text/css">*{stroke-linejoin: round; stroke-linecap: butt}</style>
 </defs>
 <g id="figure_1">
  <g id="patch_1">
   <path d="M 0 355.769 
L 515 355.769 
L 515 0 
L 0 0 
z
" style="fill: #ffffff"/>
  </g>
  <g id="axes_1">
   <g id="patch_2">
    <path d="M 61.4 305.152125 
L 507.8 305.152125 
L 507.8 27.952125 
L 61.4 27.952125 
z
" style="fill: #ffffff"/>
   </g>
   <g id="matplotlib.axis_1">
    <g id="xtick_1">
     <g id="line2d_1">
      <path d="M 81.122536 305.152125 
L 81.122536 27.952125 
" clip-path="url(#p515764f0af)" style="fill: none; stroke: #b0b0b0; stroke-width: 0.8; stroke-linecap: square"/>
     </g>
     <g id="line2d_2">
      <defs>
       <path id="mfe053f027d" d="M 0 0 
L 0 3.5 
" style="stroke: #000000; stroke-width: 0.8"/>
      </defs>
      <g>
       <use xlink:href="#mfe053f027d" x="81.122536" y="305.152125" style="stroke: #000000; stroke-width: 0.8"/>
      </g>
     </g>
     <g id="text_1">
      <!-- 0 -->
      <g transform="translate(76.622536 324.445562)scale(0.18 -0.18)">
       <defs>
        <path id="STIXGeneral-Regular-30" d="M 3046 2112 
Q 3046 1683 2963 1302 
Q 2880 922 2717 602 
Q 2554 282 2266 96 
Q 1978 -90 1600 -90 
Q 1210 -90 915 108 
Q 621 307 461 640 
Q 301 973 227 1350 
Q 154 1728 154 2150 
Q 154 2746 301 3222 
Q 448 3699 790 4012 
Q 1133 4326 1626 4326 
Q 2253 4326 2649 3712 
Q 3046 3098 3046 2112 
z
M 2432 2080 
Q 2432 3091 2217 3625 
Q 2003 4160 1587 4160 
Q 1190 4160 979 3622 
Q 768 3085 768 2106 
Q 768 1120 979 598 
Q 1190 77 1600 77 
Q 2003 77 2217 598 
Q 2432 1120 2432 2080 
z
" transform="scale(0.015625)"/>
       </defs>
       <use xlink:href="#STIXGeneral-Regular-30"/>
      </g>
     </g>
    </g>
    <g id="xtick_2">
     <g id="line2d_3">
      <path d="M 162.318651 305.152125 
L 162.318651 27.952125 
" clip-path="url(#p515764f0af)" style="fill: none; stroke: #b0b0b0; stroke-width: 0.8; stroke-linecap: square"/>
     </g>
     <g id="line2d_4">
      <g>
       <use xlink:href="#mfe053f027d" x="162.318651" y="305.152125" style="stroke: #000000; stroke-width: 0.8"/>
      </g>
     </g>
     <g id="text_2">
      <!-- 1 -->
      <g transform="translate(157.818651 324.445562)scale(0.18 -0.18)">
       <defs>
        <path id="STIXGeneral-Regular-31" d="M 2522 0 
L 755 0 
L 755 96 
Q 1107 115 1235 227 
Q 1363 339 1363 608 
L 1363 3482 
Q 1363 3795 1171 3795 
Q 1082 3795 883 3718 
L 710 3654 
L 710 3744 
L 1856 4326 
L 1914 4307 
L 1914 486 
Q 1914 275 2042 185 
Q 2170 96 2522 96 
L 2522 0 
z
" transform="scale(0.015625)"/>
       </defs>
       <use xlink:href="#STIXGeneral-Regular-31"/>
      </g>
     </g>
    </g>
    <g id="xtick_3">
     <g id="line2d_5">
      <path d="M 243.514766 305.152125 
L 243.514766 27.952125 
" clip-path="url(#p515764f0af)" style="fill: none; stroke: #b0b0b0; stroke-width: 0.8; stroke-linecap: square"/>
     </g>
     <g id="line2d_6">
      <g>
       <use xlink:href="#mfe053f027d" x="243.514766" y="305.152125" style="stroke: #000000; stroke-width: 0.8"/>
      </g>
     </g>
     <g id="text_3">
      <!-- 2 -->
      <g transform="translate(239.014766 324.445562)scale(0.18 -0.18)">
       <defs>
        <path id="STIXGeneral-Regular-32" d="M 3034 877 
L 2688 0 
L 186 0 
L 186 77 
L 1325 1286 
Q 1773 1754 1965 2144 
Q 2157 2534 2157 2950 
Q 2157 3379 1920 3616 
Q 1683 3853 1267 3853 
Q 922 3853 720 3673 
Q 518 3494 326 3021 
L 192 3053 
Q 301 3648 630 3987 
Q 960 4326 1523 4326 
Q 2054 4326 2380 4006 
Q 2707 3686 2707 3200 
Q 2707 2477 1888 1613 
L 832 486 
L 2330 486 
Q 2541 486 2665 569 
Q 2790 653 2944 915 
L 3034 877 
z
" transform="scale(0.015625)"/>
       </defs>
       <use xlink:href="#STIXGeneral-Regular-32"/>
      </g>
     </g>
    </g>
    <g id="xtick_4">
     <g id="line2d_7">
      <path d="M 324.710881 305.152125 
L 324.710881 27.952125 
" clip-path="url(#p515764f0af)" style="fill: none; stroke: #b0b0b0; stroke-width: 0.8; stroke-linecap: square"/>
     </g>
     <g id="line2d_8">
      <g>
       <use xlink:href="#mfe053f027d" x="324.710881" y="305.152125" style="stroke: #000000; stroke-width: 0.8"/>
      </g>
     </g>
     <g id="text_4">
      <!-- 3 -->
      <g transform="translate(320.210881 324.445562)scale(0.18 -0.18)">
       <defs>
        <path id="STIXGeneral-Regular-33" d="M 390 3264 
L 288 3290 
Q 435 3770 748 4048 
Q 1062 4326 1542 4326 
Q 1990 4326 2265 4083 
Q 2541 3840 2541 3450 
Q 2541 2925 1946 2566 
Q 2298 2413 2477 2227 
Q 2758 1914 2758 1402 
Q 2758 890 2464 506 
Q 2246 211 1840 60 
Q 1434 -90 979 -90 
Q 262 -90 262 275 
Q 262 378 339 442 
Q 416 506 525 506 
Q 685 506 915 339 
Q 1197 141 1466 141 
Q 1818 141 2058 425 
Q 2298 710 2298 1120 
Q 2298 1856 1632 2048 
Q 1434 2112 979 2112 
L 979 2202 
Q 1338 2323 1517 2432 
Q 2035 2726 2035 3290 
Q 2035 3610 1852 3776 
Q 1670 3942 1344 3942 
Q 768 3942 390 3264 
z
" transform="scale(0.015625)"/>
       </defs>
       <use xlink:href="#STIXGeneral-Regular-33"/>
      </g>
     </g>
    </g>
    <g id="xtick_5">
     <g id="line2d_9">
      <path d="M 405.906996 305.152125 
L 405.906996 27.952125 
" clip-path="url(#p515764f0af)" style="fill: none; stroke: #b0b0b0; stroke-width: 0.8; stroke-linecap: square"/>
     </g>
     <g id="line2d_10">
      <g>
       <use xlink:href="#mfe053f027d" x="405.906996" y="305.152125" style="stroke: #000000; stroke-width: 0.8"/>
      </g>
     </g>
     <g id="text_5">
      <!-- 4 -->
      <g transform="translate(401.406996 324.445562)scale(0.18 -0.18)">
       <defs>
        <path id="STIXGeneral-Regular-34" d="M 3027 1069 
L 2368 1069 
L 2368 0 
L 1869 0 
L 1869 1069 
L 77 1069 
L 77 1478 
L 2086 4326 
L 2368 4326 
L 2368 1478 
L 3027 1478 
L 3027 1069 
z
M 1869 1478 
L 1869 3674 
L 333 1478 
L 1869 1478 
z
" transform="scale(0.015625)"/>
       </defs>
       <use xlink:href="#STIXGeneral-Regular-34"/>
      </g>
     </g>
    </g>
    <g id="xtick_6">
     <g id="line2d_11">
      <path d="M 487.10311 305.152125 
L 487.10311 27.952125 
" clip-path="url(#p515764f0af)" style="fill: none; stroke: #b0b0b0; stroke-width: 0.8; stroke-linecap: square"/>
     </g>
     <g id="line2d_12">
      <g>
       <use xlink:href="#mfe053f027d" x="487.10311" y="305.152125" style="stroke: #000000; stroke-width: 0.8"/>
      </g>
     </g>
     <g id="text_6">
      <!-- 5 -->
      <g transform="translate(482.60311 324.445562)scale(0.18 -0.18)">
       <defs>
        <path id="STIXGeneral-Regular-35" d="M 2803 4358 
L 2573 3814 
Q 2534 3731 2400 3731 
L 1158 3731 
L 902 3187 
Q 1606 3053 1920 2896 
Q 2234 2739 2502 2368 
Q 2726 2061 2726 1555 
Q 2726 1094 2576 780 
Q 2426 467 2099 224 
Q 1664 -90 1011 -90 
Q 646 -90 422 19 
Q 198 128 198 307 
Q 198 550 486 550 
Q 717 550 960 352 
Q 1210 147 1414 147 
Q 1747 147 2012 480 
Q 2278 813 2278 1229 
Q 2278 1843 1850 2189 
Q 1293 2637 486 2637 
Q 410 2637 410 2688 
L 416 2720 
L 1114 4237 
L 2438 4237 
Q 2547 4237 2608 4269 
Q 2669 4301 2746 4403 
L 2803 4358 
z
" transform="scale(0.015625)"/>
       </defs>
       <use xlink:href="#STIXGeneral-Regular-35"/>
      </g>
     </g>
    </g>
    <g id="text_7">
     <!-- Training Environment Steps -->
     <g transform="translate(182.604688 344.645562)scale(0.18 -0.18)">
      <defs>
       <path id="STIXGeneral-Regular-54" d="M 3795 3149 
L 3642 3149 
Q 3539 3674 3353 3821 
Q 3168 3968 2656 3968 
L 2278 3968 
L 2278 710 
Q 2278 346 2387 243 
Q 2496 141 2893 122 
L 2893 0 
L 1024 0 
L 1024 122 
Q 1427 147 1526 256 
Q 1626 365 1626 787 
L 1626 3968 
L 1242 3968 
Q 723 3968 540 3817 
Q 358 3667 262 3149 
L 109 3149 
L 154 4237 
L 3750 4237 
L 3795 3149 
z
" transform="scale(0.015625)"/>
       <path id="STIXGeneral-Regular-72" d="M 1024 2931 
L 1024 2342 
Q 1267 2688 1430 2816 
Q 1594 2944 1792 2944 
Q 1958 2944 2051 2854 
Q 2144 2765 2144 2605 
Q 2144 2470 2077 2393 
Q 2010 2317 1894 2317 
Q 1773 2317 1638 2445 
Q 1536 2541 1472 2541 
Q 1338 2541 1181 2355 
Q 1024 2170 1024 2016 
L 1024 576 
Q 1024 301 1133 205 
Q 1242 109 1568 96 
L 1568 0 
L 32 0 
L 32 96 
Q 339 154 412 224 
Q 486 294 486 538 
L 486 2138 
Q 486 2349 438 2435 
Q 390 2522 269 2522 
Q 166 2522 45 2496 
L 45 2598 
Q 448 2726 992 2944 
L 1024 2931 
z
" transform="scale(0.015625)"/>
       <path id="STIXGeneral-Regular-61" d="M 2829 422 
L 2829 243 
Q 2586 -64 2253 -64 
Q 1888 -64 1843 403 
L 1837 403 
Q 1427 -64 909 -64 
Q 608 -64 422 112 
Q 237 288 237 602 
Q 237 1050 685 1350 
Q 992 1555 1837 1869 
L 1837 2214 
Q 1837 2502 1699 2646 
Q 1562 2790 1338 2790 
Q 1146 2790 1018 2697 
Q 890 2605 890 2477 
Q 890 2419 909 2348 
Q 928 2278 928 2208 
Q 928 2112 841 2029 
Q 755 1946 634 1946 
Q 525 1946 441 2029 
Q 358 2112 358 2240 
Q 358 2547 685 2752 
Q 986 2944 1421 2944 
Q 1939 2944 2176 2656 
Q 2291 2522 2323 2384 
Q 2355 2246 2355 1946 
L 2355 723 
Q 2355 301 2554 301 
Q 2682 301 2829 422 
z
M 1837 813 
L 1837 1715 
Q 1248 1510 1018 1293 
Q 800 1094 800 800 
Q 800 557 921 432 
Q 1043 307 1242 307 
Q 1453 307 1613 410 
Q 1747 506 1792 589 
Q 1837 672 1837 813 
z
" transform="scale(0.015625)"/>
       <path id="STIXGeneral-Regular-69" d="M 1152 4045 
Q 1152 3904 1056 3811 
Q 960 3718 819 3718 
Q 685 3718 592 3811 
Q 499 3904 499 4045 
Q 499 4179 595 4275 
Q 691 4371 826 4371 
Q 966 4371 1059 4275 
Q 1152 4179 1152 4045 
z
M 1619 0 
L 102 0 
L 102 96 
Q 435 115 521 211 
Q 608 307 608 666 
L 608 2118 
Q 608 2342 563 2432 
Q 518 2522 397 2522 
Q 243 2522 128 2490 
L 128 2592 
L 1120 2944 
L 1146 2918 
L 1146 672 
Q 1146 314 1226 218 
Q 1306 122 1619 96 
L 1619 0 
z
" transform="scale(0.015625)"/>
       <path id="STIXGeneral-Regular-6e" d="M 3104 0 
L 1773 0 
L 1779 96 
Q 2016 115 2096 233 
Q 2176 352 2176 672 
L 2176 1946 
Q 2176 2592 1709 2592 
Q 1549 2592 1408 2515 
Q 1267 2438 1050 2227 
L 1050 461 
Q 1050 269 1136 192 
Q 1222 115 1466 96 
L 1466 0 
L 115 0 
L 115 96 
Q 358 115 435 214 
Q 512 314 512 602 
L 512 2157 
Q 512 2394 467 2483 
Q 422 2573 288 2573 
Q 160 2573 102 2547 
L 102 2656 
Q 550 2784 979 2944 
L 1030 2925 
L 1030 2426 
L 1037 2426 
Q 1491 2944 1958 2944 
Q 2323 2944 2518 2688 
Q 2714 2432 2714 1958 
L 2714 544 
Q 2714 288 2790 205 
Q 2867 122 3104 96 
L 3104 0 
z
" transform="scale(0.015625)"/>
       <path id="STIXGeneral-Regular-67" d="M 3008 2483 
L 2477 2483 
Q 2598 2208 2598 1946 
Q 2598 1453 2265 1203 
Q 1933 954 1600 954 
Q 1530 954 1357 973 
L 1235 986 
Q 1107 947 979 812 
Q 851 678 851 582 
Q 851 435 1350 410 
L 2176 371 
Q 2528 358 2739 172 
Q 2950 -13 2950 -314 
Q 2950 -685 2566 -986 
Q 2035 -1395 1286 -1395 
Q 826 -1395 502 -1212 
Q 179 -1030 179 -774 
Q 179 -595 320 -419 
Q 461 -243 806 6 
Q 602 102 534 172 
Q 467 243 467 346 
Q 467 531 762 787 
Q 909 915 1037 1043 
Q 717 1203 579 1401 
Q 442 1600 442 1901 
Q 442 2336 752 2640 
Q 1062 2944 1510 2944 
Q 1766 2944 2022 2848 
L 2163 2797 
Q 2349 2733 2515 2733 
L 3008 2733 
L 3008 2483 
z
M 973 2163 
L 973 2144 
Q 973 1683 1155 1398 
Q 1338 1114 1632 1114 
Q 1850 1114 1978 1270 
Q 2106 1427 2106 1690 
Q 2106 2112 1914 2464 
Q 1754 2765 1446 2765 
Q 1222 2765 1097 2605 
Q 973 2445 973 2163 
z
M 2771 -410 
Q 2771 -230 2595 -163 
Q 2419 -96 1978 -96 
Q 1344 -96 941 -13 
Q 749 -243 688 -348 
Q 627 -454 627 -563 
Q 627 -774 880 -902 
Q 1133 -1030 1555 -1030 
Q 2099 -1030 2435 -860 
Q 2771 -691 2771 -410 
z
" transform="scale(0.015625)"/>
       <path id="STIXGeneral-Regular-20" transform="scale(0.015625)"/>
       <path id="STIXGeneral-Regular-45" d="M 3821 1082 
L 3526 0 
L 77 0 
L 77 122 
Q 442 147 538 252 
Q 634 358 634 730 
L 634 3520 
Q 634 3878 534 3987 
Q 435 4096 77 4115 
L 77 4237 
L 3469 4237 
L 3494 3322 
L 3334 3322 
Q 3264 3750 3085 3872 
Q 2906 3994 2349 3994 
L 1510 3994 
Q 1370 3994 1328 3952 
Q 1286 3910 1286 3763 
L 1286 2355 
L 2253 2355 
Q 2656 2355 2787 2470 
Q 2918 2586 2976 2970 
L 3123 2970 
L 3123 1472 
L 2976 1472 
Q 2918 1875 2790 1984 
Q 2662 2093 2253 2093 
L 1286 2093 
L 1286 538 
Q 1286 346 1420 291 
Q 1555 237 1933 237 
L 2163 237 
Q 2848 237 3136 403 
Q 3424 570 3642 1082 
L 3821 1082 
z
" transform="scale(0.015625)"/>
       <path id="STIXGeneral-Regular-76" d="M 3053 2880 
L 3053 2784 
Q 2906 2771 2835 2688 
Q 2765 2605 2637 2285 
L 1818 230 
Q 1690 -90 1638 -90 
Q 1587 -90 1523 77 
Q 1510 96 1497 141 
Q 1485 186 1472 211 
L 704 2048 
Q 499 2534 403 2652 
Q 307 2771 122 2784 
L 122 2880 
L 1376 2880 
L 1376 2784 
Q 1210 2771 1146 2732 
Q 1082 2694 1082 2611 
Q 1082 2509 1139 2368 
L 1792 730 
L 2426 2387 
Q 2464 2483 2464 2579 
Q 2464 2758 2163 2784 
L 2163 2880 
L 3053 2880 
z
" transform="scale(0.015625)"/>
       <path id="STIXGeneral-Regular-6f" d="M 3008 1478 
Q 3008 806 2608 371 
Q 2208 -64 1568 -64 
Q 979 -64 582 368 
Q 186 800 186 1459 
Q 186 2125 582 2534 
Q 979 2944 1626 2944 
Q 2221 2944 2614 2537 
Q 3008 2131 3008 1478 
z
M 2432 1306 
Q 2432 2035 2112 2445 
Q 1856 2765 1504 2765 
Q 1171 2765 966 2493 
Q 762 2221 762 1747 
Q 762 928 1101 435 
Q 1318 115 1677 115 
Q 2029 115 2230 432 
Q 2432 749 2432 1306 
z
" transform="scale(0.015625)"/>
       <path id="STIXGeneral-Regular-6d" d="M 4960 0 
L 3565 0 
L 3565 96 
Q 3834 122 3907 208 
Q 3981 294 3981 576 
L 3981 1894 
Q 3981 2278 3869 2444 
Q 3757 2611 3488 2611 
Q 3264 2611 3107 2521 
Q 2950 2432 2803 2221 
L 2803 608 
Q 2803 301 2896 201 
Q 2989 102 3264 96 
L 3264 0 
L 1830 0 
L 1830 96 
Q 2112 115 2189 188 
Q 2266 262 2266 550 
L 2266 1901 
Q 2266 2611 1850 2611 
Q 1670 2611 1468 2531 
Q 1267 2451 1171 2336 
Q 1088 2240 1088 2227 
L 1088 448 
Q 1088 243 1177 176 
Q 1267 109 1523 96 
L 1523 0 
L 102 0 
L 102 96 
Q 371 102 460 195 
Q 550 288 550 563 
L 550 2150 
Q 550 2387 499 2480 
Q 448 2573 326 2573 
Q 230 2573 122 2547 
L 122 2656 
Q 557 2778 1011 2944 
L 1062 2925 
L 1062 2451 
L 1075 2451 
Q 1363 2752 1584 2848 
Q 1805 2944 2054 2944 
Q 2560 2944 2733 2406 
Q 3232 2944 3776 2944 
Q 4518 2944 4518 1792 
L 4518 493 
Q 4518 282 4582 202 
Q 4646 122 4794 109 
L 4960 96 
L 4960 0 
z
" transform="scale(0.015625)"/>
       <path id="STIXGeneral-Regular-65" d="M 2611 1050 
L 2714 1005 
Q 2330 -64 1376 -64 
Q 813 -64 486 329 
Q 160 723 160 1389 
Q 160 2074 525 2509 
Q 890 2944 1485 2944 
Q 2061 2944 2374 2502 
Q 2560 2246 2592 1773 
L 621 1773 
Q 646 1370 700 1158 
Q 755 947 915 730 
Q 1184 378 1626 378 
Q 1939 378 2153 531 
Q 2368 685 2611 1050 
z
M 634 1978 
L 1939 1978 
Q 1882 2381 1750 2547 
Q 1619 2714 1312 2714 
Q 1043 2714 864 2525 
Q 685 2336 634 1978 
z
" transform="scale(0.015625)"/>
       <path id="STIXGeneral-Regular-74" d="M 1702 493 
L 1786 422 
Q 1478 -64 1011 -64 
Q 448 -64 448 749 
L 448 2675 
L 109 2675 
Q 83 2694 83 2720 
Q 83 2771 192 2842 
Q 435 2982 813 3526 
Q 826 3546 874 3606 
Q 922 3667 941 3706 
Q 986 3706 986 3622 
L 986 2880 
L 1632 2880 
L 1632 2675 
L 986 2675 
L 986 845 
Q 986 538 1062 403 
Q 1139 269 1318 269 
Q 1510 269 1702 493 
z
" transform="scale(0.015625)"/>
       <path id="STIXGeneral-Regular-53" d="M 3002 2963 
L 2842 2963 
Q 2733 3360 2579 3565 
Q 2189 4064 1651 4064 
Q 1357 4064 1181 3894 
Q 1005 3725 1005 3456 
Q 1005 3328 1069 3206 
Q 1133 3085 1206 2998 
Q 1280 2912 1465 2784 
Q 1651 2656 1766 2589 
Q 1882 2522 2150 2362 
Q 2669 2061 2905 1763 
Q 3142 1466 3142 1107 
Q 3142 576 2771 243 
Q 2400 -90 1837 -90 
Q 1421 -90 1082 58 
Q 915 128 781 128 
Q 704 128 653 70 
Q 602 13 602 -83 
L 461 -83 
L 275 1274 
L 416 1274 
Q 845 141 1734 141 
Q 2074 141 2285 342 
Q 2496 544 2496 858 
Q 2496 1158 2310 1363 
Q 2003 1696 1235 2106 
Q 454 2522 454 3206 
Q 454 3718 768 4022 
Q 1082 4326 1568 4326 
Q 1907 4326 2240 4186 
Q 2413 4109 2522 4109 
Q 2688 4109 2726 4326 
L 2861 4326 
L 3002 2963 
z
" transform="scale(0.015625)"/>
       <path id="STIXGeneral-Regular-70" d="M 1018 2931 
L 1018 2438 
Q 1421 2944 1939 2944 
Q 2406 2944 2707 2560 
Q 3008 2176 3008 1581 
Q 3008 883 2621 409 
Q 2234 -64 1664 -64 
Q 1466 -64 1328 -6 
Q 1190 51 1018 211 
L 1018 -794 
Q 1018 -1094 1120 -1180 
Q 1222 -1267 1581 -1274 
L 1581 -1389 
L 32 -1389 
L 32 -1280 
Q 314 -1254 397 -1171 
Q 480 -1088 480 -838 
L 480 2157 
Q 480 2381 429 2451 
Q 378 2522 218 2522 
Q 115 2522 58 2515 
L 58 2618 
Q 506 2752 979 2944 
L 1018 2931 
z
M 1018 2138 
L 1018 563 
Q 1018 422 1238 281 
Q 1459 141 1683 141 
Q 2029 141 2243 467 
Q 2458 794 2458 1325 
Q 2458 1888 2243 2224 
Q 2029 2560 1670 2560 
Q 1446 2560 1232 2419 
Q 1018 2278 1018 2138 
z
" transform="scale(0.015625)"/>
       <path id="STIXGeneral-Regular-73" d="M 998 1926 
L 1664 1523 
Q 1984 1331 2105 1164 
Q 2227 998 2227 736 
Q 2227 416 1961 176 
Q 1696 -64 1331 -64 
Q 1030 -64 864 -6 
Q 691 51 570 51 
Q 461 51 416 -26 
L 333 -26 
L 333 979 
L 435 979 
Q 538 512 730 294 
Q 922 77 1248 77 
Q 1485 77 1632 211 
Q 1779 346 1779 550 
Q 1779 845 1440 1030 
L 1094 1222 
Q 326 1651 326 2150 
Q 326 2522 566 2730 
Q 806 2938 1210 2938 
Q 1491 2938 1638 2867 
Q 1754 2816 1818 2816 
Q 1862 2816 1920 2880 
L 1990 2880 
L 2022 2010 
L 1926 2010 
Q 1818 2445 1654 2621 
Q 1491 2797 1203 2797 
Q 986 2797 854 2688 
Q 723 2579 723 2362 
Q 723 2253 796 2128 
Q 870 2003 998 1926 
z
" transform="scale(0.015625)"/>
      </defs>
      <use xlink:href="#STIXGeneral-Regular-54"/>
      <use xlink:href="#STIXGeneral-Regular-72" x="61.099991"/>
      <use xlink:href="#STIXGeneral-Regular-61" x="94.399979"/>
      <use xlink:href="#STIXGeneral-Regular-69" x="138.799973"/>
      <use xlink:href="#STIXGeneral-Regular-6e" x="166.59996"/>
      <use xlink:href="#STIXGeneral-Regular-69" x="216.599945"/>
      <use xlink:href="#STIXGeneral-Regular-6e" x="244.399933"/>
      <use xlink:href="#STIXGeneral-Regular-67" x="294.399918"/>
      <use xlink:href="#STIXGeneral-Regular-20" x="344.399902"/>
      <use xlink:href="#STIXGeneral-Regular-45" x="369.399887"/>
      <use xlink:href="#STIXGeneral-Regular-6e" x="430.499878"/>
      <use xlink:href="#STIXGeneral-Regular-76" x="480.499863"/>
      <use xlink:href="#STIXGeneral-Regular-69" x="530.499847"/>
      <use xlink:href="#STIXGeneral-Regular-72" x="558.299835"/>
      <use xlink:href="#STIXGeneral-Regular-6f" x="591.599823"/>
      <use xlink:href="#STIXGeneral-Regular-6e" x="641.599808"/>
      <use xlink:href="#STIXGeneral-Regular-6d" x="691.599792"/>
      <use xlink:href="#STIXGeneral-Regular-65" x="769.39978"/>
      <use xlink:href="#STIXGeneral-Regular-6e" x="813.799774"/>
      <use xlink:href="#STIXGeneral-Regular-74" x="863.799759"/>
      <use xlink:href="#STIXGeneral-Regular-20" x="891.599747"/>
      <use xlink:href="#STIXGeneral-Regular-53" x="916.599731"/>
      <use xlink:href="#STIXGeneral-Regular-74" x="972.199722"/>
      <use xlink:href="#STIXGeneral-Regular-65" x="999.99971"/>
      <use xlink:href="#STIXGeneral-Regular-70" x="1044.399704"/>
      <use xlink:href="#STIXGeneral-Regular-73" x="1094.399689"/>
     </g>
    </g>
    <g id="text_8">
     <!-- 1e7 -->
     <g transform="translate(481.806875 343.645562)scale(0.18 -0.18)">
      <defs>
       <path id="STIXGeneral-Regular-37" d="M 2874 4134 
L 1517 -51 
L 1101 -51 
L 2368 3763 
L 992 3763 
Q 717 3763 582 3667 
Q 448 3571 243 3238 
L 128 3296 
L 512 4237 
L 2874 4237 
L 2874 4134 
z
" transform="scale(0.015625)"/>
      </defs>
      <use xlink:href="#STIXGeneral-Regular-31"/>
      <use xlink:href="#STIXGeneral-Regular-65" x="49.999985"/>
      <use xlink:href="#STIXGeneral-Regular-37" x="94.399979"/>
     </g>
    </g>
   </g>
   <g id="matplotlib.axis_2">
    <g id="ytick_1">
     <g id="line2d_13">
      <path d="M 61.4 257.938883 
L 507.8 257.938883 
" clip-path="url(#p515764f0af)" style="fill: none; stroke: #b0b0b0; stroke-width: 0.8; stroke-linecap: square"/>
     </g>
     <g id="line2d_14">
      <defs>
       <path id="mcd83eff8d5" d="M 0 0 
L -3.5 0 
" style="stroke: #000000; stroke-width: 0.8"/>
      </defs>
      <g>
       <use xlink:href="#mcd83eff8d5" x="61.4" y="257.938883" style="stroke: #000000; stroke-width: 0.8"/>
      </g>
     </g>
     <g id="text_9">
      <!-- 200 -->
      <g transform="translate(27.4 264.085602)scale(0.18 -0.18)">
       <use xlink:href="#STIXGeneral-Regular-32"/>
       <use xlink:href="#STIXGeneral-Regular-30" x="49.999985"/>
       <use xlink:href="#STIXGeneral-Regular-30" x="99.999969"/>
      </g>
     </g>
    </g>
    <g id="ytick_2">
     <g id="line2d_15">
      <path d="M 61.4 193.915445 
L 507.8 193.915445 
" clip-path="url(#p515764f0af)" style="fill: none; stroke: #b0b0b0; stroke-width: 0.8; stroke-linecap: square"/>
     </g>
     <g id="line2d_16">
      <g>
       <use xlink:href="#mcd83eff8d5" x="61.4" y="193.915445" style="stroke: #000000; stroke-width: 0.8"/>
      </g>
     </g>
     <g id="text_10">
      <!-- 400 -->
      <g transform="translate(27.4 200.062163)scale(0.18 -0.18)">
       <use xlink:href="#STIXGeneral-Regular-34"/>
       <use xlink:href="#STIXGeneral-Regular-30" x="49.999985"/>
       <use xlink:href="#STIXGeneral-Regular-30" x="99.999969"/>
      </g>
     </g>
    </g>
    <g id="ytick_3">
     <g id="line2d_17">
      <path d="M 61.4 129.892006 
L 507.8 129.892006 
" clip-path="url(#p515764f0af)" style="fill: none; stroke: #b0b0b0; stroke-width: 0.8; stroke-linecap: square"/>
     </g>
     <g id="line2d_18">
      <g>
       <use xlink:href="#mcd83eff8d5" x="61.4" y="129.892006" style="stroke: #000000; stroke-width: 0.8"/>
      </g>
     </g>
     <g id="text_11">
      <!-- 600 -->
      <g transform="translate(27.4 136.038725)scale(0.18 -0.18)">
       <defs>
        <path id="STIXGeneral-Regular-36" d="M 2854 4378 
L 2867 4275 
Q 2112 4154 1606 3664 
Q 1101 3174 973 2451 
Q 1344 2739 1786 2739 
Q 2349 2739 2672 2380 
Q 2995 2022 2995 1402 
Q 2995 774 2669 378 
Q 2291 -90 1651 -90 
Q 870 -90 518 557 
Q 218 1107 218 1786 
Q 218 2835 915 3552 
Q 1312 3962 1731 4131 
Q 2150 4301 2854 4378 
z
M 2419 1203 
Q 2419 2445 1555 2445 
Q 1235 2445 1024 2275 
Q 813 2106 813 1702 
Q 813 954 1046 522 
Q 1280 90 1722 90 
Q 2061 90 2240 394 
Q 2419 698 2419 1203 
z
" transform="scale(0.015625)"/>
       </defs>
       <use xlink:href="#STIXGeneral-Regular-36"/>
       <use xlink:href="#STIXGeneral-Regular-30" x="49.999985"/>
       <use xlink:href="#STIXGeneral-Regular-30" x="99.999969"/>
      </g>
     </g>
    </g>
    <g id="ytick_4">
     <g id="line2d_19">
      <path d="M 61.4 65.868568 
L 507.8 65.868568 
" clip-path="url(#p515764f0af)" style="fill: none; stroke: #b0b0b0; stroke-width: 0.8; stroke-linecap: square"/>
     </g>
     <g id="line2d_20">
      <g>
       <use xlink:href="#mcd83eff8d5" x="61.4" y="65.868568" style="stroke: #000000; stroke-width: 0.8"/>
      </g>
     </g>
     <g id="text_12">
      <!-- 800 -->
      <g transform="translate(27.4 72.015287)scale(0.18 -0.18)">
       <defs>
        <path id="STIXGeneral-Regular-38" d="M 2848 992 
Q 2848 499 2505 204 
Q 2163 -90 1587 -90 
Q 1050 -90 704 204 
Q 358 499 358 954 
Q 358 1293 524 1533 
Q 691 1773 1190 2125 
Q 710 2522 553 2765 
Q 397 3008 397 3328 
Q 397 3782 745 4054 
Q 1094 4326 1638 4326 
Q 2106 4326 2410 4060 
Q 2714 3795 2714 3411 
Q 2714 3059 2531 2848 
Q 2349 2637 1856 2374 
Q 2432 1990 2640 1689 
Q 2848 1389 2848 992 
z
M 2272 3411 
Q 2272 3744 2086 3945 
Q 1901 4147 1574 4147 
Q 1248 4147 1059 3977 
Q 870 3808 870 3513 
Q 870 3219 1059 2979 
Q 1248 2739 1670 2490 
Q 1997 2682 2134 2896 
Q 2272 3110 2272 3411 
z
M 1734 1741 
L 1357 1997 
Q 1075 1766 960 1545 
Q 845 1325 845 1011 
Q 845 576 1065 333 
Q 1286 90 1658 90 
Q 1971 90 2166 285 
Q 2362 480 2362 794 
Q 2362 1082 2214 1299 
Q 2067 1517 1734 1741 
z
" transform="scale(0.015625)"/>
       </defs>
       <use xlink:href="#STIXGeneral-Regular-38"/>
       <use xlink:href="#STIXGeneral-Regular-30" x="49.999985"/>
       <use xlink:href="#STIXGeneral-Regular-30" x="99.999969"/>
      </g>
     </g>
    </g>
    <g id="text_13">
     <!-- Average Test Return -->
     <g transform="translate(19.476562 241.533375)rotate(-90)scale(0.18 -0.18)">
      <defs>
       <path id="STIXGeneral-Regular-41" d="M 4525 0 
L 2893 0 
L 2893 122 
Q 3149 122 3245 179 
Q 3334 224 3334 333 
Q 3334 499 3213 781 
L 2950 1382 
L 1274 1382 
L 979 653 
Q 922 506 922 384 
Q 922 237 1027 179 
Q 1133 122 1370 122 
L 1370 0 
L 96 0 
L 96 122 
Q 365 147 486 316 
Q 608 486 902 1190 
L 2221 4314 
L 2349 4314 
L 3923 710 
Q 4064 378 4176 262 
Q 4288 147 4525 122 
L 4525 0 
z
M 2861 1645 
L 2118 3405 
L 1382 1645 
L 2861 1645 
z
" transform="scale(0.015625)"/>
       <path id="STIXGeneral-Regular-52" d="M 4224 0 
L 3187 0 
L 1664 1971 
L 1306 1958 
L 1306 717 
Q 1306 352 1405 249 
Q 1504 147 1875 122 
L 1875 0 
L 109 0 
L 109 122 
Q 474 154 563 262 
Q 653 371 653 794 
L 653 3526 
Q 653 3885 563 3987 
Q 474 4090 109 4115 
L 109 4237 
L 1850 4237 
Q 2726 4237 3187 3859 
Q 3501 3603 3501 3091 
Q 3501 2221 2342 2042 
L 3622 422 
Q 3757 256 3878 198 
Q 4000 141 4224 122 
L 4224 0 
z
M 1306 3731 
L 1306 2195 
Q 1766 2202 1990 2246 
Q 2214 2291 2438 2413 
Q 2803 2618 2803 3142 
Q 2803 4000 1632 4000 
Q 1459 4000 1382 3945 
Q 1306 3891 1306 3731 
z
" transform="scale(0.015625)"/>
       <path id="STIXGeneral-Regular-75" d="M 3072 320 
L 3072 230 
Q 2573 96 2195 -58 
L 2163 -38 
L 2163 486 
L 2150 486 
Q 1747 -64 1235 -64 
Q 870 -64 662 160 
Q 454 384 454 755 
L 454 2362 
Q 454 2598 371 2688 
Q 288 2778 58 2790 
L 58 2880 
L 992 2880 
L 992 813 
Q 992 595 1123 451 
Q 1254 307 1446 307 
Q 1760 307 1984 506 
Q 2067 582 2099 649 
Q 2131 717 2131 877 
L 2131 2355 
Q 2131 2605 2041 2678 
Q 1952 2752 1658 2771 
L 1658 2880 
L 2669 2880 
L 2669 685 
Q 2669 461 2742 390 
Q 2816 320 3034 320 
L 3072 320 
z
" transform="scale(0.015625)"/>
      </defs>
      <use xlink:href="#STIXGeneral-Regular-41"/>
      <use xlink:href="#STIXGeneral-Regular-76" x="72.199982"/>
      <use xlink:href="#STIXGeneral-Regular-65" x="122.199966"/>
      <use xlink:href="#STIXGeneral-Regular-72" x="166.59996"/>
      <use xlink:href="#STIXGeneral-Regular-61" x="199.899948"/>
      <use xlink:href="#STIXGeneral-Regular-67" x="244.299942"/>
      <use xlink:href="#STIXGeneral-Regular-65" x="294.299927"/>
      <use xlink:href="#STIXGeneral-Regular-20" x="338.699921"/>
      <use xlink:href="#STIXGeneral-Regular-54" x="363.699905"/>
      <use xlink:href="#STIXGeneral-Regular-65" x="424.799896"/>
      <use xlink:href="#STIXGeneral-Regular-73" x="469.19989"/>
      <use xlink:href="#STIXGeneral-Regular-74" x="508.099884"/>
      <use xlink:href="#STIXGeneral-Regular-20" x="535.899872"/>
      <use xlink:href="#STIXGeneral-Regular-52" x="560.899857"/>
      <use xlink:href="#STIXGeneral-Regular-65" x="627.599854"/>
      <use xlink:href="#STIXGeneral-Regular-74" x="671.999847"/>
      <use xlink:href="#STIXGeneral-Regular-75" x="699.799835"/>
      <use xlink:href="#STIXGeneral-Regular-72" x="749.79982"/>
      <use xlink:href="#STIXGeneral-Regular-6e" x="783.099808"/>
     </g>
    </g>
   </g>
   <g id="line2d_21">
    <path d="M 81.934497 258.521542 
L 82.340478 256.052049 
L 82.746459 264.050174 
L 83.152439 268.429058 
L 83.55842 263.399917 
L 83.9644 271.52372 
L 84.370381 270.932618 
L 84.776361 209.850923 
L 85.182342 241.030197 
L 85.588323 255.135349 
L 86.400284 276.134055 
L 86.806264 218.21211 
L 87.212245 246.734505 
L 87.618225 263.501929 
L 88.024206 274.996815 
L 88.430187 280.550017 
L 88.836167 284.39677 
L 89.242148 286.946879 
L 89.648128 288.61346 
L 90.054109 288.606605 
L 90.460089 288.81897 
L 90.86607 289.656972 
L 91.272051 289.735269 
L 91.678031 290.683209 
L 92.084012 288.869098 
L 92.489992 285.207978 
L 92.895973 285.414303 
L 93.301954 287.344669 
L 93.707934 288.605106 
L 94.113915 288.350728 
L 94.519895 289.489711 
L 94.925876 289.708145 
L 95.331856 290.457575 
L 95.737837 290.72745 
L 96.143818 291.158659 
L 96.549798 291.755824 
L 97.361759 290.229969 
L 98.17372 286.304618 
L 98.579701 286.872817 
L 98.985682 286.02145 
L 99.391662 288.618347 
L 99.797643 289.751618 
L 100.203623 290.47682 
L 100.609604 291.587717 
L 101.015584 291.474571 
L 101.421565 290.322427 
L 101.827546 288.498488 
L 102.233526 287.334306 
L 102.639507 285.690963 
L 103.451468 287.787872 
L 103.857448 288.247764 
L 104.263429 286.383669 
L 104.66941 286.483984 
L 105.07539 288.427631 
L 105.481371 287.496814 
L 106.293332 289.305733 
L 106.699312 289.565235 
L 107.105293 290.280789 
L 107.511274 290.24162 
L 107.917254 290.651158 
L 108.323235 290.045874 
L 108.729215 289.722631 
L 109.135196 287.500092 
L 109.541176 289.383846 
L 109.947157 290.492053 
L 110.353138 290.188712 
L 110.759118 291.211618 
L 111.165099 289.501182 
L 111.571079 291.105307 
L 111.97706 289.557451 
L 112.38304 289.972295 
L 112.789021 287.085171 
L 113.195002 288.728031 
L 113.600982 287.698348 
L 114.006963 288.732987 
L 114.412943 288.469468 
L 114.818924 287.734118 
L 115.224905 289.26139 
L 115.630885 289.435725 
L 116.442846 290.849242 
L 116.848827 289.811212 
L 117.254807 289.767363 
L 117.660788 289.953976 
L 118.066769 290.494299 
L 118.472749 288.146977 
L 118.87873 287.907136 
L 119.28471 288.629073 
L 119.690691 290.329563 
L 120.096671 290.644144 
L 120.502652 289.577953 
L 120.908633 291.161027 
L 121.314613 286.889156 
L 121.720594 288.118623 
L 122.126574 287.250025 
L 122.938535 286.247684 
L 123.344516 288.040999 
L 123.750497 287.399339 
L 124.156477 289.504967 
L 124.562458 289.187579 
L 124.968438 290.110083 
L 125.374419 288.302079 
L 125.780399 287.819309 
L 126.18638 289.192167 
L 126.592361 289.455811 
L 127.404322 290.922574 
L 127.810302 288.499215 
L 128.216283 289.291732 
L 129.028244 286.62814 
L 129.434225 286.366702 
L 130.246186 289.699768 
L 130.652166 291.196004 
L 131.058147 289.540442 
L 131.464127 290.371959 
L 131.870108 288.192902 
L 132.276089 290.097004 
L 132.682069 289.296345 
L 133.08805 289.005278 
L 133.49403 287.3322 
L 133.900011 286.865704 
L 134.305991 288.336557 
L 134.711972 289.293975 
L 135.523933 288.483546 
L 135.929914 290.020306 
L 136.335894 290.794475 
L 136.741875 290.369353 
L 137.147856 291.449841 
L 137.553836 291.239325 
L 137.959817 289.044475 
L 138.365797 289.599185 
L 138.771778 290.659349 
L 139.583739 289.281504 
L 139.98972 290.814012 
L 140.3957 291.100186 
L 140.801681 290.184424 
L 141.207661 286.809524 
L 142.019622 285.236838 
L 142.425603 287.358738 
L 142.831584 288.727689 
L 143.237564 286.873714 
L 143.643545 287.835225 
L 144.455506 290.48031 
L 144.861486 289.650192 
L 145.267467 290.549019 
L 145.673448 288.656393 
L 146.079428 290.219763 
L 146.485409 288.314048 
L 146.891389 288.632328 
L 147.29737 287.86528 
L 147.70335 287.439449 
L 148.109331 287.26655 
L 148.515312 285.273847 
L 149.327273 288.342926 
L 149.733253 287.871157 
L 150.545214 290.061252 
L 150.951195 290.040641 
L 151.357176 290.154403 
L 151.763156 287.437692 
L 152.575117 291.331874 
L 152.981098 288.804619 
L 153.387078 287.117214 
L 154.19904 287.628382 
L 154.60502 287.350603 
L 155.011001 289.383364 
L 155.416981 290.123715 
L 155.822962 289.279107 
L 156.228942 289.071546 
L 156.634923 288.691043 
L 157.040904 289.893027 
L 157.446884 290.441056 
L 157.852865 290.416212 
L 158.258845 288.089777 
L 158.664826 287.300449 
L 159.070807 289.209549 
L 159.476787 288.074436 
L 159.882768 287.510787 
L 160.288748 288.844984 
L 160.694729 289.002399 
L 161.100709 290.588513 
L 161.50669 290.969054 
L 161.912671 287.512604 
L 162.318651 289.96048 
L 162.724632 291.121902 
L 163.130612 290.887175 
L 163.536593 288.624495 
L 163.942573 287.851984 
L 164.348554 287.714742 
L 164.754535 288.163835 
L 165.160515 289.778134 
L 165.566496 289.382238 
L 165.972476 289.435493 
L 166.378457 290.641504 
L 166.784437 290.425331 
L 167.190418 290.768203 
L 167.596399 289.050057 
L 168.002379 289.279964 
L 168.40836 287.55555 
L 168.81434 284.705896 
L 169.220321 286.64972 
L 170.438263 289.662015 
L 171.250224 287.618505 
L 171.656204 289.015014 
L 172.062185 288.843082 
L 172.874146 291.491173 
L 173.686107 288.295893 
L 174.092088 288.688532 
L 174.498068 285.879208 
L 174.904049 285.415949 
L 175.310029 285.928643 
L 176.121991 289.067393 
L 176.527971 289.059153 
L 176.933952 288.458815 
L 177.339932 289.453609 
L 177.745913 289.882604 
L 178.151893 290.045224 
L 178.557874 289.483761 
L 178.963855 288.543609 
L 179.369835 290.123756 
L 179.775816 289.809874 
L 180.181796 289.893911 
L 180.587777 291.205986 
L 180.993758 290.421889 
L 181.399738 291.472914 
L 182.211699 288.414883 
L 182.61768 290.294147 
L 183.02366 289.387522 
L 183.429641 289.943272 
L 183.835622 288.320959 
L 184.241602 288.846372 
L 184.647583 287.410271 
L 185.053563 288.809574 
L 185.459544 288.645698 
L 185.865524 288.211618 
L 186.271505 288.20058 
L 186.677486 287.61133 
L 187.083466 289.345043 
L 187.489447 290.285426 
L 187.895427 290.692217 
L 188.301408 289.806986 
L 188.707388 289.82241 
L 189.113369 288.936648 
L 189.51935 290.199697 
L 189.92533 286.415917 
L 190.331311 286.899695 
L 190.737291 289.065061 
L 191.143272 290.039779 
L 191.549252 289.19221 
L 191.955233 289.873023 
L 192.361214 287.36755 
L 192.767194 289.835938 
L 193.173175 289.476783 
L 193.579155 289.466024 
L 193.985136 288.516651 
L 194.391116 286.71447 
L 194.797097 288.110958 
L 195.203078 287.582872 
L 195.609058 289.519271 
L 196.015039 288.998305 
L 196.421019 289.304151 
L 196.827 289.92633 
L 197.638961 290.513705 
L 198.044942 290.148566 
L 198.450922 289.957276 
L 198.856903 290.305167 
L 199.668864 289.367497 
L 200.074844 288.30157 
L 200.480825 285.689379 
L 200.886806 288.34256 
L 201.292786 289.785913 
L 201.698767 290.088419 
L 202.104747 288.783183 
L 202.510728 286.316835 
L 202.916709 287.235154 
L 203.322689 289.790026 
L 203.72867 290.051301 
L 204.13465 288.355604 
L 204.540631 288.936605 
L 204.946611 287.936703 
L 205.352592 287.356155 
L 205.758573 289.236333 
L 206.164553 290.127565 
L 206.570534 289.215208 
L 206.976514 287.798622 
L 207.382495 288.685314 
L 207.788475 287.605007 
L 208.194456 289.431854 
L 208.600437 286.974011 
L 209.006417 288.251186 
L 209.412398 288.205641 
L 209.818378 289.225648 
L 210.224359 289.920783 
L 210.630339 288.488179 
L 211.03632 288.293906 
L 211.442301 289.841249 
L 211.848281 290.134859 
L 212.254262 290.743413 
L 212.660242 288.912604 
L 213.066223 290.538489 
L 213.472203 289.522703 
L 213.878184 289.225191 
L 214.284165 288.119477 
L 214.690145 289.55456 
L 215.096126 289.615981 
L 215.502106 287.112126 
L 215.908087 286.601723 
L 216.720048 289.379142 
L 217.532009 290.246414 
L 217.93799 289.360892 
L 218.34397 290.068448 
L 218.749951 288.550761 
L 219.155931 288.632054 
L 219.561912 288.902074 
L 219.967893 287.645488 
L 220.373873 289.173722 
L 220.779854 289.224228 
L 221.185834 286.484508 
L 221.591815 288.757657 
L 221.997795 289.181374 
L 222.403776 290.869664 
L 222.809757 291.047411 
L 223.215737 289.598957 
L 224.433679 287.714254 
L 224.83966 289.017803 
L 225.24564 289.845281 
L 225.651621 290.261063 
L 226.057601 290.324641 
L 226.869562 286.570865 
L 227.275543 285.855556 
L 227.681524 287.596219 
L 228.087504 288.484402 
L 228.493485 285.479188 
L 228.899465 286.009318 
L 229.711426 289.02409 
L 230.117407 290.18118 
L 230.523388 290.232509 
L 230.929368 287.747378 
L 231.335349 288.347784 
L 231.741329 289.163423 
L 232.14731 290.630232 
L 232.55329 290.539858 
L 232.959271 290.837737 
L 233.365252 291.836681 
L 233.771232 290.549884 
L 234.177213 289.891866 
L 234.583193 287.574068 
L 234.989174 289.12752 
L 235.395154 288.464775 
L 235.801135 288.857268 
L 236.207116 285.625993 
L 236.613096 287.488855 
L 237.019077 287.21704 
L 237.831038 289.862511 
L 238.237018 288.684748 
L 238.642999 290.033239 
L 239.04898 289.891672 
L 239.45496 289.080631 
L 239.860941 288.524919 
L 240.266921 287.44599 
L 240.672902 287.879171 
L 241.078882 286.433938 
L 241.890844 288.861679 
L 242.296824 290.710188 
L 242.702805 290.212534 
L 243.108785 290.259546 
L 243.514766 291.539597 
L 243.920746 291.790131 
L 244.326727 290.122726 
L 244.732708 289.601842 
L 245.138688 288.047628 
L 245.950649 289.398108 
L 246.35663 289.290445 
L 246.76261 290.0884 
L 247.574572 289.403686 
L 248.386533 285.031243 
L 248.792513 286.444832 
L 249.198494 288.74276 
L 249.604475 288.583995 
L 250.010455 287.72194 
L 250.822416 289.723477 
L 251.228397 287.56881 
L 251.634377 287.60031 
L 252.040358 287.375688 
L 252.446339 289.797772 
L 252.852319 290.977053 
L 253.2583 290.521726 
L 253.66428 290.99288 
L 254.070261 291.943295 
L 254.882222 288.826995 
L 255.288203 289.789398 
L 255.694183 286.696244 
L 256.506144 288.5307 
L 256.912125 286.35257 
L 257.318105 285.41578 
L 258.130067 289.060081 
L 258.536047 287.406276 
L 258.942028 289.495175 
L 259.348008 290.277441 
L 259.753989 290.229372 
L 260.159969 290.712953 
L 260.56595 291.425021 
L 260.971931 291.17791 
L 261.783892 289.94906 
L 262.189872 288.093591 
L 262.595853 289.090334 
L 263.001833 287.546834 
L 263.407814 289.113019 
L 263.813795 290.104349 
L 264.219775 290.603583 
L 264.625756 289.523521 
L 265.031736 288.956163 
L 265.437717 289.866899 
L 265.843697 289.586502 
L 266.249678 289.628836 
L 266.655659 290.4521 
L 267.061639 290.857729 
L 267.46762 290.886958 
L 267.8736 287.920742 
L 268.279581 288.372587 
L 268.685561 285.701427 
L 269.091542 288.495346 
L 269.497523 289.260294 
L 269.903503 288.928387 
L 270.309484 287.730543 
L 270.715464 289.618262 
L 271.121445 288.085663 
L 271.527426 288.963058 
L 271.933406 286.367225 
L 272.339387 287.578573 
L 272.745367 289.980255 
L 273.151348 290.70742 
L 273.557328 287.89862 
L 273.963309 289.929631 
L 274.36929 289.598633 
L 274.77527 288.855984 
L 275.181251 288.7382 
L 275.587231 287.920805 
L 275.993212 288.919371 
L 276.399192 289.283563 
L 277.211154 287.453883 
L 277.617134 288.886896 
L 278.023115 288.058913 
L 278.429095 288.771413 
L 278.835076 288.627536 
L 279.241056 289.619327 
L 279.647037 289.081179 
L 280.053018 288.773208 
L 280.458998 287.366908 
L 280.864979 289.223749 
L 281.270959 290.090061 
L 282.08292 287.380638 
L 282.488901 287.487185 
L 282.894882 289.608724 
L 283.300862 289.691423 
L 284.112823 291.323366 
L 284.518804 290.099836 
L 284.924784 290.484325 
L 285.330765 289.660755 
L 285.736746 289.633289 
L 286.142726 288.094951 
L 286.548707 287.411548 
L 286.954687 289.288064 
L 287.360668 287.969898 
L 287.766648 288.692845 
L 288.172629 286.762455 
L 288.57861 286.26195 
L 288.98459 288.467951 
L 289.390571 288.382437 
L 289.796551 289.61563 
L 290.608512 290.019177 
L 291.014493 289.577023 
L 291.420474 290.139954 
L 291.826454 288.091018 
L 292.232435 289.712257 
L 292.638415 288.304126 
L 293.044396 290.16502 
L 293.450377 287.234905 
L 293.856357 286.958575 
L 294.262338 289.632324 
L 294.668318 291.254764 
L 295.074299 288.897819 
L 295.480279 288.762232 
L 295.88626 287.435776 
L 296.292241 287.764972 
L 296.698221 287.76305 
L 297.510182 289.764547 
L 297.916163 290.292019 
L 298.322143 291.176149 
L 298.728124 290.793716 
L 299.134105 291.109362 
L 299.946066 288.285721 
L 300.352046 287.628601 
L 300.758027 288.337104 
L 301.164007 287.388998 
L 301.569988 288.815476 
L 301.975969 286.937889 
L 302.381949 288.493645 
L 302.78793 288.96622 
L 303.19391 290.560229 
L 303.599891 290.717597 
L 304.005871 290.044312 
L 304.411852 290.706432 
L 304.817833 288.47892 
L 305.629794 286.995576 
L 306.035774 287.865108 
L 306.441755 285.098728 
L 306.847735 288.162341 
L 307.253716 288.857985 
L 307.659697 289.930097 
L 308.065677 290.459454 
L 308.471658 289.57591 
L 308.877638 287.886048 
L 309.283619 288.632931 
L 309.689599 289.037693 
L 310.09558 290.268925 
L 310.501561 289.972501 
L 310.907541 285.946743 
L 311.313522 288.338818 
L 311.719502 289.335324 
L 312.125483 288.172647 
L 312.531463 288.154489 
L 312.937444 289.560849 
L 313.343425 289.784444 
L 313.749405 290.270374 
L 314.155386 289.545164 
L 314.561366 289.900892 
L 314.967347 290.695343 
L 315.373328 289.619841 
L 315.779308 289.400921 
L 316.185289 289.048407 
L 316.591269 289.112756 
L 316.99725 288.316547 
L 317.809211 288.277775 
L 318.215192 286.5566 
L 318.621172 288.664339 
L 319.027153 288.778517 
L 319.433133 287.435057 
L 320.245094 288.858275 
L 320.651075 287.814087 
L 321.057056 284.651695 
L 321.463036 287.597755 
L 321.869017 289.049531 
L 322.274997 287.204568 
L 322.680978 288.846069 
L 323.086958 289.689827 
L 323.492939 291.250506 
L 323.89892 291.854028 
L 324.3049 290.801379 
L 324.710881 291.869658 
L 325.116861 291.272358 
L 325.522842 290.216016 
L 325.928822 289.761058 
L 326.334803 289.747208 
L 326.740784 288.19583 
L 327.146764 289.249688 
L 327.552745 287.339178 
L 327.958725 288.406568 
L 328.364706 287.422972 
L 328.770686 287.285486 
L 329.176667 288.865182 
L 329.582648 286.899305 
L 329.988628 289.171375 
L 330.394609 287.559418 
L 330.800589 287.440257 
L 331.20657 288.338689 
L 331.61255 289.544417 
L 332.018531 289.934027 
L 332.424512 290.127112 
L 332.830492 291.194855 
L 333.236473 291.533358 
L 333.642453 289.97859 
L 334.048434 290.082493 
L 334.454414 289.738458 
L 334.860395 289.898481 
L 335.266376 288.946586 
L 335.672356 289.06459 
L 336.078337 288.010641 
L 336.484317 288.265041 
L 336.890298 289.087295 
L 337.296279 289.072213 
L 337.702259 289.450659 
L 338.10824 290.38123 
L 338.51422 288.991742 
L 338.920201 286.578378 
L 339.326181 287.043808 
L 339.732162 286.56739 
L 340.138143 288.962895 
L 340.544123 289.547227 
L 340.950104 288.504384 
L 341.356084 288.68883 
L 341.762065 289.734107 
L 342.168045 289.719241 
L 342.574026 288.725234 
L 343.385987 290.474318 
L 343.791968 289.208111 
L 344.197948 288.353041 
L 345.009909 290.939087 
L 345.41589 288.901451 
L 345.821871 288.199741 
L 346.227851 288.306435 
L 346.633832 287.162623 
L 347.039812 287.137071 
L 347.445793 287.831915 
L 347.851773 287.08192 
L 348.257754 288.373448 
L 348.663735 287.510067 
L 349.069715 289.561873 
L 349.475696 290.466834 
L 349.881676 289.547954 
L 350.287657 286.708692 
L 350.693637 286.644246 
L 351.099618 286.974904 
L 351.505599 288.788108 
L 351.911579 288.52242 
L 352.31756 289.515967 
L 352.72354 289.620429 
L 353.129521 290.879902 
L 353.535501 289.159916 
L 353.941482 290.81873 
L 354.347463 290.57255 
L 354.753443 288.600942 
L 355.159424 290.336059 
L 355.565404 291.366952 
L 355.971385 288.856912 
L 356.377365 287.921841 
L 356.783346 288.427218 
L 357.189327 289.298165 
L 357.595307 288.028994 
L 358.001288 289.593176 
L 358.407268 289.281371 
L 358.813249 289.382118 
L 359.21923 289.899827 
L 359.62521 288.710061 
L 360.031191 289.934387 
L 360.437171 288.898145 
L 360.843152 288.772342 
L 361.249132 289.301849 
L 361.655113 289.401642 
L 362.061094 288.122978 
L 362.467074 289.476672 
L 362.873055 289.845052 
L 363.279035 288.338915 
L 363.685016 287.322963 
L 364.090996 288.070234 
L 364.496977 289.277765 
L 364.902958 288.54058 
L 365.308938 290.317532 
L 365.714919 290.167057 
L 366.120899 290.310468 
L 366.52688 289.080285 
L 366.93286 288.711503 
L 367.338841 286.987802 
L 367.744822 289.139838 
L 368.150802 290.478556 
L 368.556783 286.627479 
L 369.368744 289.562449 
L 369.774724 289.208717 
L 370.180705 290.229229 
L 370.992666 290.896594 
L 371.398647 288.481562 
L 371.804627 287.868859 
L 372.210608 288.877463 
L 372.616588 288.582741 
L 373.022569 285.810978 
L 373.42855 285.109502 
L 373.83453 287.89936 
L 374.646491 290.682517 
L 375.052472 290.124562 
L 375.458452 289.328777 
L 375.864433 290.725142 
L 376.270414 289.640617 
L 376.676394 289.078764 
L 377.082375 287.062778 
L 377.488355 287.684179 
L 377.894336 287.113433 
L 378.300316 287.635499 
L 379.112278 286.318423 
L 379.518258 287.290465 
L 379.924239 289.048769 
L 380.330219 289.220367 
L 381.142181 289.910307 
L 381.548161 287.75239 
L 382.360122 290.402163 
L 382.766103 289.954252 
L 383.172083 289.847752 
L 383.984045 288.18012 
L 384.390025 288.341772 
L 384.796006 290.211383 
L 385.607967 291.021121 
L 386.013947 291.408203 
L 386.419928 288.81684 
L 386.825909 288.922993 
L 387.231889 288.763805 
L 387.63787 286.903569 
L 388.449831 289.556777 
L 388.855811 289.859432 
L 389.261792 289.041199 
L 389.667773 290.248385 
L 390.073753 290.087793 
L 390.479734 290.302616 
L 390.885714 290.186986 
L 391.291695 289.870675 
L 391.697675 288.071506 
L 392.103656 289.311874 
L 392.509637 289.902628 
L 392.915617 289.036269 
L 393.321598 287.165388 
L 393.727578 285.874851 
L 394.539539 288.479015 
L 394.94552 287.915583 
L 395.351501 288.650837 
L 395.757481 290.405632 
L 396.163462 291.075568 
L 396.569442 289.95526 
L 397.381403 288.705157 
L 397.787384 288.384828 
L 398.193365 288.677327 
L 398.599345 287.891964 
L 399.005326 289.48557 
L 399.411306 286.815507 
L 399.817287 287.589994 
L 400.223267 289.34655 
L 400.629248 289.813187 
L 401.035229 289.202779 
L 401.441209 287.710157 
L 401.84719 288.764334 
L 402.25317 289.133136 
L 402.659151 289.070263 
L 403.065132 287.932093 
L 403.471112 288.036153 
L 403.877093 289.847486 
L 404.283073 288.017364 
L 404.689054 289.231915 
L 405.095034 289.252156 
L 405.501015 288.350873 
L 405.906996 290.423727 
L 406.312976 291.608082 
L 406.718957 288.79375 
L 407.530918 287.482388 
L 408.342879 290.103098 
L 409.15484 287.933589 
L 409.560821 289.404662 
L 409.966801 289.244786 
L 410.372782 290.317979 
L 411.184743 289.781464 
L 411.590724 288.243957 
L 411.996704 288.093859 
L 412.402685 285.097822 
L 412.808665 286.561022 
L 413.214646 288.455112 
L 413.620626 288.940144 
L 414.026607 289.833554 
L 414.432588 289.478424 
L 414.838568 290.674874 
L 415.244549 291.451196 
L 415.650529 291.503146 
L 416.46249 289.201297 
L 416.868471 288.8778 
L 417.274452 286.451297 
L 417.680432 285.475258 
L 418.492393 288.261197 
L 418.898374 288.62031 
L 419.304354 289.793966 
L 419.710335 289.534613 
L 420.116316 289.941169 
L 420.522296 289.825569 
L 420.928277 290.594929 
L 421.334257 289.549922 
L 421.740238 290.574593 
L 422.146218 290.606649 
L 422.552199 288.460014 
L 422.95818 287.918795 
L 423.36416 288.062621 
L 423.770141 288.68138 
L 424.176121 290.187768 
L 424.582102 288.012857 
L 424.988083 289.955261 
L 425.800044 287.31046 
L 426.206024 289.512925 
L 426.612005 290.264368 
L 427.017985 288.063773 
L 427.423966 287.098001 
L 427.829947 286.59982 
L 428.235927 286.71658 
L 428.641908 288.650332 
L 429.047888 290.002434 
L 429.453869 290.788679 
L 429.859849 287.860917 
L 430.26583 288.935217 
L 430.671811 287.769511 
L 431.483772 289.261501 
L 432.295733 290.07165 
L 432.701713 288.416501 
L 433.107694 289.262795 
L 433.513675 288.875871 
L 433.919655 286.708394 
L 434.325636 289.01267 
L 434.731616 289.099138 
L 435.137597 290.878659 
L 435.543577 290.578024 
L 435.949558 290.678311 
L 436.355539 290.06928 
L 436.761519 290.078745 
L 437.1675 289.127345 
L 437.57348 288.784781 
L 437.979461 289.723267 
L 438.385441 286.975669 
L 439.197403 288.624668 
L 439.603383 288.789251 
L 440.009364 286.776501 
L 440.415344 288.321003 
L 440.821325 289.039905 
L 441.227305 288.481864 
L 441.633286 286.422978 
L 442.039267 286.074944 
L 442.851228 289.038126 
L 443.257208 288.352611 
L 443.663189 286.14895 
L 444.069169 287.625231 
L 444.47515 289.654495 
L 444.881131 289.431434 
L 445.287111 290.336929 
L 445.693092 291.566279 
L 446.099072 290.725378 
L 446.911034 292.552125 
L 447.317014 291.273112 
L 447.722995 287.798928 
L 448.128975 289.346918 
L 448.534956 287.681762 
L 448.940936 288.038068 
L 449.346917 289.540671 
L 449.752898 288.592804 
L 450.158878 289.750227 
L 450.564859 289.436282 
L 450.970839 288.361092 
L 451.37682 287.784965 
L 451.7828 289.8194 
L 452.188781 289.421519 
L 452.594762 287.06024 
L 453.000742 287.521277 
L 453.406723 286.941848 
L 453.812703 287.111274 
L 454.218684 288.13153 
L 454.624664 289.89413 
L 455.030645 290.649483 
L 455.436626 290.878566 
L 455.842606 290.640703 
L 456.248587 290.127237 
L 456.654567 291.513335 
L 457.872509 286.738141 
L 458.27849 287.999978 
L 458.68447 288.153112 
L 459.090451 287.597847 
L 459.496431 289.246548 
L 459.902412 290.158002 
L 460.308392 290.024342 
L 460.714373 290.79969 
L 461.120354 290.106805 
L 461.526334 288.712745 
L 461.932315 287.808646 
L 462.338295 289.540517 
L 462.744276 289.671318 
L 463.150256 290.333337 
L 463.556237 289.644501 
L 463.962218 289.211283 
L 464.368198 288.14138 
L 464.774179 289.058544 
L 465.180159 288.96084 
L 465.58614 290.119255 
L 465.99212 290.096873 
L 466.398101 287.633973 
L 466.804082 288.825313 
L 467.210062 288.507889 
L 467.616043 286.921643 
L 468.022023 287.77781 
L 468.428004 288.2002 
L 468.833985 289.336833 
L 469.239965 289.484734 
L 469.645946 289.794946 
L 470.051926 290.578016 
L 470.457907 287.986521 
L 470.863887 289.392677 
L 471.269868 289.063228 
L 471.675849 289.774927 
L 472.081829 290.04962 
L 472.48781 289.838622 
L 472.89379 288.638235 
L 473.299771 289.801874 
L 474.111732 290.423402 
L 474.517713 287.318448 
L 474.923693 287.554512 
L 475.329674 288.129143 
L 475.735654 290.074438 
L 476.141635 289.469242 
L 476.547615 288.090649 
L 476.953596 287.93545 
L 477.359577 288.179621 
L 477.765557 289.397833 
L 478.171538 289.157676 
L 478.577518 288.610959 
L 478.983499 287.269023 
L 479.389479 288.756696 
L 479.79546 289.179937 
L 480.201441 288.967289 
L 480.607421 289.863515 
L 481.013402 290.261882 
L 481.419382 289.302641 
L 481.825363 290.309867 
L 482.231343 287.859036 
L 482.637324 287.090775 
L 483.043305 285.808275 
L 483.855266 289.482255 
L 484.261246 288.117456 
L 484.667227 287.549004 
L 485.073207 289.709895 
L 485.479188 288.476644 
L 485.885169 288.149232 
L 486.291149 288.602546 
L 486.69713 288.59091 
L 487.10311 290.399018 
L 487.509091 290.796024 
L 487.509091 290.796024 
" clip-path="url(#p515764f0af)" style="fill: none; stroke: #1f77b4; stroke-width: 1.5; stroke-linecap: square"/>
   </g>
   <g id="line2d_22">
    <path d="M 81.690909 283.553648 
L 81.934497 236.815996 
L 82.178086 236.450846 
L 82.421674 249.249469 
L 82.665262 246.102976 
L 82.908851 250.258578 
L 83.152439 258.142696 
L 83.396028 251.498108 
L 83.639616 240.351648 
L 83.883204 203.209494 
L 84.126793 218.89074 
L 84.370381 225.913342 
L 84.857558 248.202751 
L 85.101146 253.517034 
L 85.344734 253.631203 
L 85.588323 265.516814 
L 85.831911 267.157948 
L 86.075499 271.943566 
L 86.319088 271.336838 
L 86.562676 266.734597 
L 87.293441 261.430951 
L 87.537029 261.865188 
L 88.024206 248.944452 
L 88.267794 254.318136 
L 88.511383 252.448097 
L 88.754971 245.98294 
L 89.242148 212.433372 
L 89.485736 201.897693 
L 89.729324 201.269603 
L 89.972913 222.176589 
L 90.460089 240.386707 
L 90.703678 232.521378 
L 90.947266 238.328542 
L 91.190855 212.797073 
L 91.678031 238.078807 
L 91.92162 188.298611 
L 92.165208 177.034047 
L 92.895973 83.744678 
L 93.38315 54.793519 
L 93.870326 117.009029 
L 94.357503 208.911446 
L 94.601091 223.806479 
L 94.84468 211.335506 
L 95.088268 215.423716 
L 95.331856 213.944801 
L 95.819033 209.756391 
L 96.062621 162.683208 
L 96.30621 161.039314 
L 96.793386 171.056647 
L 97.036975 164.15269 
L 97.280563 88.20155 
L 97.524151 130.519964 
L 97.76774 86.088255 
L 98.011328 78.456555 
L 98.254917 123.00765 
L 98.498505 74.64489 
L 98.742093 49.945464 
L 98.985682 102.167812 
L 99.22927 122.451645 
L 99.472858 158.022061 
L 99.960035 48.517829 
L 100.203623 50.533274 
L 100.447212 40.552125 
L 100.934388 126.929963 
L 101.177977 108.067043 
L 101.421565 123.445696 
L 101.665153 146.178595 
L 101.908742 155.784267 
L 102.15233 154.204295 
L 102.395918 163.69997 
L 102.639507 166.318682 
L 102.883095 166.322484 
L 103.126683 182.412417 
L 103.61386 186.460026 
L 103.857448 189.979351 
L 104.101037 188.017713 
L 104.344625 172.815283 
L 104.588213 177.393879 
L 104.831802 166.334959 
L 105.562567 153.128969 
L 105.806155 152.255189 
L 106.049744 155.7614 
L 106.293332 171.2901 
L 106.780509 182.463507 
L 107.024097 190.376342 
L 107.267685 186.133403 
L 107.511274 171.312951 
L 107.754862 181.957848 
L 107.99845 180.318321 
L 108.485627 188.07518 
L 108.729215 185.644513 
L 108.972804 194.882732 
L 109.216392 197.193934 
L 109.947157 208.350797 
L 110.190745 205.119528 
L 110.92151 187.018707 
L 111.165099 155.296803 
L 111.408687 154.754523 
L 111.652275 117.08657 
L 111.895864 135.95228 
L 112.139452 135.626314 
L 112.38304 129.193364 
L 112.870217 133.40319 
L 113.113806 157.764915 
L 113.357394 164.782578 
L 113.600982 157.618859 
L 114.088159 177.35667 
L 114.331747 147.838042 
L 114.818924 182.07784 
L 115.062512 178.376457 
L 115.306101 153.903505 
L 115.549689 146.961779 
L 115.793277 127.086554 
L 116.280454 115.736931 
L 116.524042 130.71012 
L 117.011219 168.283161 
L 117.254807 181.065449 
L 117.741984 173.71997 
L 118.472749 195.622257 
L 118.716337 177.751717 
L 118.959926 189.671083 
L 119.203514 182.925659 
L 119.447102 181.490595 
L 119.690691 188.748907 
L 119.934279 163.613165 
L 120.177868 166.164496 
L 120.421456 171.626612 
L 120.665044 172.948646 
L 120.908633 173.531278 
L 121.152221 176.224082 
L 121.395809 166.020973 
L 121.882986 172.985514 
L 122.126574 149.458621 
L 122.613751 188.77435 
L 122.857339 185.566583 
L 123.344516 183.274714 
L 123.831693 171.444818 
L 124.075281 179.934433 
L 124.562458 172.704326 
L 125.049634 147.065019 
L 125.293223 147.332856 
L 125.536811 144.03598 
L 126.023988 165.995792 
L 126.267576 142.807224 
L 126.511164 143.871761 
L 126.754753 156.791015 
L 126.998341 144.124541 
L 127.241929 103.695483 
L 127.729106 134.631459 
L 127.972695 137.27527 
L 128.216283 130.178518 
L 128.459871 145.32498 
L 128.70346 130.742001 
L 128.947048 136.152397 
L 129.190636 134.253478 
L 129.434225 150.795646 
L 129.677813 150.996106 
L 129.921401 147.144779 
L 130.16499 141.456106 
L 130.408578 150.766459 
L 130.652166 145.875538 
L 130.895755 130.075971 
L 131.139343 124.495806 
L 131.382931 139.840907 
L 131.62652 142.511414 
L 131.870108 140.351255 
L 132.113696 146.982812 
L 132.357285 147.122707 
L 132.600873 141.222947 
L 132.844461 152.518298 
L 133.08805 173.295138 
L 133.331638 171.579648 
L 133.575226 172.759652 
L 133.818815 191.231879 
L 134.062403 171.752703 
L 134.305991 183.667666 
L 134.305991 183.667666 
" clip-path="url(#p515764f0af)" style="fill: none; stroke: #ff7f0e; stroke-width: 1.5; stroke-linecap: square"/>
   </g>
   <g id="line2d_23">
    <path d="M 81.934497 258.49901 
L 82.340478 265.271419 
L 82.746459 276.921704 
L 83.152439 221.32322 
L 83.55842 217.139893 
L 83.9644 243.821435 
L 84.370381 255.313478 
L 84.776361 262.572642 
L 85.182342 261.797191 
L 85.588323 259.418589 
L 85.994303 262.608601 
L 86.400284 269.265053 
L 86.806264 272.308727 
L 87.212245 270.594432 
L 87.618225 270.714207 
L 88.024206 271.972749 
L 88.430187 270.386349 
L 88.836167 266.763366 
L 90.054109 273.834534 
L 90.460089 275.395925 
L 90.86607 273.551556 
L 91.272051 276.680516 
L 91.678031 278.538781 
L 92.084012 221.760146 
L 92.489992 240.68301 
L 92.895973 253.761927 
L 93.707934 265.533234 
L 94.113915 268.9795 
L 94.519895 269.786765 
L 94.925876 270.299871 
L 95.331856 224.207974 
L 95.737837 243.119654 
L 96.955779 267.598966 
L 97.361759 266.58846 
L 97.76774 268.807796 
L 98.17372 272.400835 
L 98.579701 270.453858 
L 98.985682 267.695474 
L 99.391662 270.879551 
L 99.797643 272.935564 
L 100.203623 274.318533 
L 100.609604 274.885055 
L 101.015584 271.926463 
L 101.421565 275.626609 
L 101.827546 278.071077 
L 102.233526 221.484181 
L 102.639507 240.280273 
L 103.045487 252.22838 
L 103.857448 264.967033 
L 104.263429 268.632896 
L 105.07539 270.694693 
L 105.481371 224.473175 
L 105.887351 243.454114 
L 106.699312 264.308917 
L 107.105293 269.192985 
L 107.511274 268.319374 
L 107.917254 269.211266 
L 108.323235 271.894481 
L 108.729215 270.42311 
L 109.135196 266.931449 
L 109.541176 270.625592 
L 109.947157 270.240139 
L 110.353138 271.518341 
L 110.759118 273.833538 
L 111.165099 272.881061 
L 111.97706 278.20657 
L 112.38304 221.305194 
L 112.789021 240.375795 
L 113.195002 252.030645 
L 114.006963 265.060957 
L 114.412943 268.69496 
L 114.818924 269.741179 
L 115.224905 269.64812 
L 115.630885 222.383798 
L 116.036866 241.440442 
L 116.848827 262.959856 
L 117.254807 268.294092 
L 117.660788 267.897716 
L 118.066769 269.51229 
L 118.472749 272.821314 
L 118.87873 270.999387 
L 119.28471 267.846285 
L 120.502652 274.345175 
L 120.908633 274.663445 
L 121.314613 273.362769 
L 121.720594 276.567256 
L 122.126574 278.634033 
L 122.532555 221.81904 
L 122.938535 240.59751 
L 123.344516 253.606378 
L 123.750497 260.454084 
L 124.156477 265.091529 
L 124.562458 267.499397 
L 124.968438 268.692636 
L 125.374419 270.41626 
L 125.780399 224.312797 
L 126.18638 242.605475 
L 126.998341 263.175315 
L 127.404322 268.091256 
L 127.810302 267.282298 
L 128.216283 269.403344 
L 128.622263 272.764465 
L 129.028244 271.05863 
L 129.434225 268.078827 
L 129.840205 271.348344 
L 130.246186 271.789257 
L 131.058147 275.210651 
L 131.464127 271.450827 
L 131.870108 275.46776 
L 132.276089 277.914176 
L 132.682069 221.309222 
L 133.49403 253.087576 
L 134.305991 263.343445 
L 134.711972 266.373181 
L 135.523933 270.166347 
L 135.929914 223.851368 
L 136.335894 242.044035 
L 137.147856 263.261224 
L 137.553836 268.670211 
L 137.959817 268.456528 
L 138.365797 270.121919 
L 138.771778 272.899617 
L 139.177758 271.153498 
L 139.583739 267.986676 
L 140.3957 271.592437 
L 140.801681 273.827551 
L 141.207661 275.400657 
L 141.613642 273.748809 
L 142.019622 276.846365 
L 142.425603 278.499647 
L 142.831584 221.278943 
L 143.237564 240.232169 
L 143.643545 253.459538 
L 144.455506 263.763158 
L 144.861486 267.840926 
L 145.267467 268.778474 
L 145.673448 270.467015 
L 146.079428 222.844757 
L 146.485409 242.459759 
L 147.29737 264.015661 
L 147.70335 269.110293 
L 148.109331 268.711725 
L 148.515312 270.324777 
L 148.921292 273.317444 
L 149.733253 267.764573 
L 150.139234 271.217418 
L 150.545214 272.525632 
L 150.951195 274.259885 
L 151.357176 275.448702 
L 151.763156 273.841066 
L 152.169137 275.388707 
L 152.575117 276.249417 
L 152.981098 220.137061 
L 153.387078 239.716252 
L 153.793059 253.157275 
L 154.19904 260.154084 
L 155.011001 267.587493 
L 155.822962 270.562482 
L 156.228942 223.68394 
L 156.634923 242.991022 
L 157.446884 262.999368 
L 157.852865 268.257459 
L 158.258845 268.137666 
L 158.664826 269.95935 
L 159.070807 272.891739 
L 159.476787 271.066585 
L 159.882768 268.079505 
L 160.288748 271.262308 
L 160.694729 272.130764 
L 161.50669 274.352821 
L 161.912671 273.183923 
L 162.318651 274.698129 
L 162.724632 277.461436 
L 163.130612 220.924897 
L 163.942573 252.133225 
L 164.754535 265.023531 
L 165.160515 267.326685 
L 165.972476 270.289713 
L 166.378457 222.922193 
L 166.784437 241.039106 
L 167.596399 263.02666 
L 168.002379 268.556674 
L 168.40836 268.076148 
L 168.81434 269.938988 
L 169.220321 272.857873 
L 169.626301 271.072136 
L 170.032282 267.824528 
L 170.844243 272.900134 
L 171.250224 274.599353 
L 171.656204 275.571486 
L 172.062185 273.163551 
L 172.468165 276.450345 
L 172.874146 278.393497 
L 173.280127 221.544186 
L 173.686107 240.524787 
L 174.092088 253.635109 
L 174.904049 265.653937 
L 175.310029 268.806609 
L 175.71601 269.784804 
L 176.121991 270.117462 
L 176.527971 224.021845 
L 176.933952 243.205705 
L 177.745913 264.128456 
L 178.151893 268.935954 
L 178.557874 268.532158 
L 179.369835 271.713831 
L 179.775816 270.383243 
L 180.181796 266.805842 
L 180.587777 267.659136 
L 180.993758 271.16664 
L 181.399738 273.226107 
L 181.805719 274.296866 
L 182.211699 273.13552 
L 183.02366 277.409514 
L 183.429641 220.297939 
L 183.835622 239.737496 
L 184.241602 252.87268 
L 185.053563 264.126576 
L 185.459544 268.132676 
L 186.271505 270.695781 
L 186.677486 224.261281 
L 187.083466 241.763429 
L 187.895427 261.300103 
L 188.301408 267.511617 
L 188.707388 267.641334 
L 189.113369 269.674823 
L 189.51935 272.705224 
L 189.92533 271.046489 
L 190.331311 268.04335 
L 190.737291 271.311937 
L 191.143272 272.137519 
L 191.549252 274.161013 
L 191.955233 275.60259 
L 192.361214 273.923475 
L 193.173175 278.284214 
L 193.579155 220.315261 
L 194.391116 252.496456 
L 195.203078 265.190104 
L 195.609058 268.305904 
L 196.015039 268.754596 
L 196.421019 270.209888 
L 196.827 223.794369 
L 197.23298 243.017399 
L 198.044942 264.05303 
L 198.450922 269.174339 
L 198.856903 266.44159 
L 199.262883 268.78844 
L 199.668864 272.381384 
L 200.480825 267.051267 
L 200.886806 270.706183 
L 201.698767 274.39368 
L 202.104747 275.707804 
L 202.510728 273.998169 
L 202.916709 276.756478 
L 203.322689 277.936971 
L 203.72867 221.275054 
L 204.13465 240.380771 
L 204.540631 252.065922 
L 204.946611 259.529811 
L 205.352592 264.767168 
L 205.758573 267.724642 
L 206.570534 270.291353 
L 206.976514 224.268357 
L 207.382495 243.167008 
L 208.194456 263.737588 
L 208.600437 268.995189 
L 209.006417 267.410115 
L 209.412398 268.268937 
L 209.818378 271.785332 
L 210.224359 270.318026 
L 210.630339 267.625372 
L 211.03632 271.159998 
L 211.442301 271.02834 
L 212.254262 274.793171 
L 212.660242 273.424058 
L 213.066223 276.521869 
L 213.472203 278.474785 
L 213.878184 221.554578 
L 214.284165 239.352294 
L 214.690145 251.383091 
L 215.502106 264.818747 
L 215.908087 268.545999 
L 216.314067 268.146945 
L 216.720048 268.499871 
L 217.126029 222.899063 
L 217.532009 242.454996 
L 218.34397 263.92674 
L 218.749951 268.871751 
L 219.155931 268.490583 
L 219.561912 270.159573 
L 219.967893 273.178195 
L 220.779854 267.88842 
L 221.185834 271.304119 
L 221.591815 272.191291 
L 221.997795 274.169264 
L 222.403776 274.187886 
L 222.809757 272.746605 
L 223.215737 276.25811 
L 223.621718 278.458837 
L 224.027698 221.684623 
L 224.433679 240.545075 
L 224.83966 253.416575 
L 225.651621 263.415792 
L 226.057601 267.628585 
L 226.869562 270.659281 
L 227.275543 224.482298 
L 227.681524 241.974013 
L 228.493485 263.689696 
L 228.899465 268.978041 
L 229.305446 267.866414 
L 229.711426 268.287501 
L 230.117407 270.788561 
L 230.523388 269.864174 
L 230.929368 267.32186 
L 231.335349 270.734603 
L 232.14731 274.244177 
L 232.55329 275.489127 
L 232.959271 273.592022 
L 233.771232 278.462706 
L 234.177213 221.29076 
L 234.583193 240.409284 
L 234.989174 252.677743 
L 235.395154 259.867682 
L 236.207116 268.361982 
L 237.019077 269.98011 
L 237.425057 222.582812 
L 237.831038 241.923438 
L 238.642999 263.030852 
L 239.04898 268.544944 
L 239.45496 268.300911 
L 239.860941 268.874432 
L 240.266921 272.39826 
L 240.672902 270.728043 
L 241.078882 267.795719 
L 241.484863 271.257617 
L 241.890844 273.295189 
L 242.296824 273.176006 
L 242.702805 275.013647 
L 243.108785 273.545093 
L 243.514766 276.284551 
L 243.920746 278.225703 
L 244.326727 221.542906 
L 244.732708 239.727595 
L 245.138688 252.746506 
L 245.950649 265.275882 
L 246.35663 268.513393 
L 247.168591 270.66972 
L 247.574572 224.492415 
L 247.980552 243.483262 
L 248.792513 264.420551 
L 249.198494 267.361671 
L 249.604475 267.424971 
L 250.416436 271.648157 
L 250.822416 270.235127 
L 251.228397 267.474988 
L 251.634377 271.045302 
L 252.040358 273.044301 
L 252.852319 275.473336 
L 253.2583 272.358374 
L 254.070261 276.576178 
L 254.476241 219.083528 
L 254.882222 239.041448 
L 255.288203 252.478013 
L 256.100164 265.21962 
L 256.506144 268.757202 
L 257.318105 271.044908 
L 257.724086 224.482051 
L 258.130067 242.642351 
L 258.942028 262.866656 
L 259.348008 267.712578 
L 259.753989 266.35231 
L 260.159969 267.462443 
L 260.56595 270.990981 
L 260.971931 269.898073 
L 261.377911 267.235466 
L 261.783892 270.921465 
L 262.189872 273.135464 
L 263.001833 275.869975 
L 263.407814 273.527288 
L 263.813795 276.639212 
L 264.219775 277.877001 
L 264.625756 220.554188 
L 265.031736 239.873232 
L 265.437717 252.977084 
L 266.249678 265.212412 
L 266.655659 268.664558 
L 267.061639 269.446375 
L 267.46762 270.753022 
L 267.8736 224.543045 
L 268.279581 242.017506 
L 269.091542 262.363092 
L 269.497523 267.749468 
L 269.903503 267.768603 
L 270.715464 271.571502 
L 271.121445 270.384141 
L 271.527426 266.744995 
L 271.933406 270.618943 
L 272.339387 272.943715 
L 272.745367 273.051571 
L 273.151348 274.19774 
L 273.557328 273.085688 
L 273.963309 276.273381 
L 274.36929 278.467188 
L 274.77527 221.687679 
L 275.181251 239.399375 
L 275.587231 251.694517 
L 276.399192 264.074258 
L 276.805173 268.088183 
L 277.211154 267.862558 
L 277.617134 269.7053 
L 278.023115 223.148818 
L 278.429095 242.549942 
L 279.241056 263.96027 
L 279.647037 268.825069 
L 280.053018 268.504904 
L 280.458998 269.96226 
L 280.864979 272.261998 
L 281.270959 270.399218 
L 281.67694 267.682303 
L 282.08292 271.178436 
L 282.488901 273.294162 
L 283.300862 275.849603 
L 283.706843 272.285287 
L 284.112823 275.895649 
L 284.518804 278.245384 
L 284.924784 221.248985 
L 285.736746 253.008931 
L 286.548707 265.252407 
L 286.954687 268.599868 
L 287.360668 269.68519 
L 287.766648 270.19218 
L 288.172629 224.206188 
L 288.57861 243.324509 
L 289.390571 263.290661 
L 289.796551 268.47858 
L 290.202532 266.810173 
L 290.608512 269.148071 
L 291.014493 272.608738 
L 291.420474 270.726548 
L 291.826454 267.821559 
L 292.232435 271.206003 
L 292.638415 272.083022 
L 293.450377 275.320556 
L 293.856357 273.776185 
L 294.262338 275.808443 
L 294.668318 276.822239 
L 295.074299 219.907029 
L 295.88626 252.307962 
L 296.292241 259.525924 
L 297.104202 268.432825 
L 297.510182 269.253185 
L 297.916163 270.480885 
L 298.322143 223.000226 
L 298.728124 241.836585 
L 299.540085 263.308646 
L 299.946066 268.604346 
L 300.352046 268.337 
L 300.758027 270.030718 
L 301.164007 273.151796 
L 301.569988 271.109046 
L 301.975969 267.79818 
L 302.381949 271.219497 
L 302.78793 273.085842 
L 303.19391 273.202927 
L 303.599891 274.989261 
L 304.005871 273.541922 
L 304.411852 275.22152 
L 304.817833 277.829548 
L 305.223813 221.147709 
L 306.035774 252.55992 
L 306.441755 259.813174 
L 306.847735 263.010156 
L 307.253716 267.152982 
L 307.659697 267.971616 
L 308.065677 269.770135 
L 308.471658 223.959424 
L 308.877638 243.13895 
L 309.689599 264.126247 
L 310.09558 268.567237 
L 310.501561 268.346391 
L 310.907541 270.097095 
L 311.313522 272.400874 
L 311.719502 270.686468 
L 312.125483 267.828219 
L 312.531463 271.042279 
L 312.937444 271.884939 
L 313.749405 275.430095 
L 314.155386 272.623826 
L 314.561366 276.104179 
L 314.967347 278.260714 
L 315.373328 221.575299 
L 315.779308 238.77541 
L 316.185289 251.11297 
L 316.99725 264.470545 
L 317.40323 268.338958 
L 318.215192 270.889687 
L 318.621172 224.373131 
L 319.027153 242.66745 
L 319.839114 264.041747 
L 320.245094 269.107477 
L 320.651075 268.700772 
L 321.463036 271.991326 
L 321.869017 269.760942 
L 322.274997 266.528586 
L 322.680978 270.310671 
L 323.086958 272.72277 
L 323.492939 272.974759 
L 323.89892 274.777276 
L 324.3049 273.314736 
L 325.116861 278.340887 
L 325.522842 221.344715 
L 326.334803 251.227973 
L 326.740784 258.944984 
L 327.146764 264.506387 
L 327.552745 268.3461 
L 328.364706 270.868501 
L 328.770686 224.586057 
L 329.176667 242.030267 
L 329.988628 263.632152 
L 330.394609 268.945994 
L 330.800589 268.599217 
L 331.20657 270.078737 
L 331.61255 273.122599 
L 332.018531 271.234674 
L 332.424512 266.669903 
L 332.830492 270.333302 
L 333.642453 273.521384 
L 334.048434 274.02355 
L 334.454414 272.8625 
L 334.860395 276.285208 
L 335.266376 278.444561 
L 335.672356 221.622412 
L 336.078337 240.295851 
L 336.484317 252.237727 
L 337.296279 264.19016 
L 337.702259 268.025281 
L 338.51422 269.803276 
L 338.920201 223.968961 
L 339.326181 243.174727 
L 340.138143 263.597661 
L 340.544123 268.161265 
L 340.950104 266.648442 
L 341.356084 269.073903 
L 341.762065 272.523745 
L 342.168045 270.648226 
L 342.574026 267.735373 
L 342.980007 271.188628 
L 343.385987 272.00475 
L 344.197948 275.510128 
L 344.603929 273.216803 
L 345.009909 276.328574 
L 345.41589 278.501277 
L 345.821871 221.735792 
L 346.227851 240.22981 
L 346.633832 252.181061 
L 347.445793 265.114133 
L 347.851773 268.696522 
L 348.257754 268.230393 
L 348.663735 270.13739 
L 349.069715 222.150714 
L 349.475696 241.601733 
L 350.287657 263.745814 
L 350.693637 268.984173 
L 351.099618 268.34553 
L 351.505599 269.118151 
L 351.911579 272.570022 
L 352.31756 270.753053 
L 352.72354 267.622887 
L 353.129521 270.922789 
L 353.535501 273.146776 
L 353.941482 273.180704 
L 354.347463 274.959415 
L 354.753443 273.396462 
L 355.565404 278.152717 
L 355.971385 220.760406 
L 356.377365 239.960641 
L 356.783346 253.298159 
L 357.595307 265.371129 
L 358.001288 267.354342 
L 358.813249 270.385411 
L 359.21923 223.564583 
L 359.62521 242.686809 
L 360.437171 261.772769 
L 360.843152 267.79702 
L 361.249132 267.787444 
L 361.655113 268.967755 
L 362.061094 272.513723 
L 362.467074 270.394065 
L 362.873055 266.039372 
L 363.279035 270.205433 
L 364.090996 274.472862 
L 364.496977 275.787481 
L 364.902958 273.97633 
L 365.308938 276.790916 
L 365.714919 278.766762 
L 366.120899 221.764488 
L 366.93286 252.820707 
L 367.338841 259.975484 
L 368.150802 267.071754 
L 368.556783 268.74916 
L 368.962763 269.677308 
L 369.368744 223.723998 
L 369.774724 243.009875 
L 370.586686 262.449793 
L 370.992666 268.081765 
L 371.398647 267.921332 
L 371.804627 269.849914 
L 372.210608 272.956764 
L 372.616588 270.914268 
L 373.022569 267.987361 
L 373.42855 271.367495 
L 373.83453 271.671473 
L 374.240511 273.562992 
L 374.646491 274.817459 
L 375.052472 273.390241 
L 375.458452 276.641625 
L 375.864433 278.633866 
L 376.270414 221.057848 
L 376.676394 240.120541 
L 377.082375 253.418488 
L 377.894336 265.373368 
L 378.300316 268.872258 
L 378.706297 269.666048 
L 379.112278 270.962545 
L 379.518258 224.252825 
L 379.924239 242.455286 
L 380.7362 262.522685 
L 381.142181 267.053844 
L 381.548161 267.233578 
L 382.360122 270.898176 
L 382.766103 269.940027 
L 383.172083 267.14411 
L 383.578064 270.828679 
L 384.390025 274.726437 
L 384.796006 275.753543 
L 385.201986 272.71072 
L 386.013947 277.88186 
L 386.419928 221.202285 
L 387.231889 252.550957 
L 388.04385 265.188097 
L 388.449831 268.680845 
L 388.855811 268.437779 
L 389.261792 270.240209 
L 389.667773 223.89481 
L 390.073753 242.944623 
L 390.885714 262.712337 
L 391.291695 268.221894 
L 391.697675 268.152047 
L 392.103656 268.43651 
L 392.509637 271.759551 
L 392.915617 269.731774 
L 393.321598 267.038188 
L 393.727578 270.799469 
L 394.133559 273.03866 
L 394.94552 275.834438 
L 395.351501 273.323724 
L 396.163462 277.914543 
L 396.569442 219.886914 
L 396.975423 238.795894 
L 397.381403 252.382227 
L 398.193365 265.141944 
L 398.599345 268.435837 
L 399.005326 269.137326 
L 399.411306 270.670371 
L 399.817287 224.472891 
L 400.223267 241.835615 
L 401.035229 262.529778 
L 401.441209 268.253375 
L 401.84719 267.400796 
L 402.25317 269.359684 
L 402.659151 272.596391 
L 403.065132 270.933714 
L 403.471112 267.194011 
L 403.877093 270.633488 
L 404.689054 274.599045 
L 405.095034 275.882798 
L 405.501015 274.110048 
L 405.906996 275.395755 
L 406.312976 277.784727 
L 406.718957 221.303087 
L 407.124937 240.280652 
L 407.530918 253.513633 
L 407.936898 260.170428 
L 408.74886 268.025648 
L 409.560821 270.21577 
L 409.966801 224.151535 
L 410.372782 242.229248 
L 411.184743 262.345782 
L 411.590724 267.729162 
L 411.996704 267.857201 
L 412.402685 269.809644 
L 412.808665 272.994046 
L 413.620626 266.631494 
L 414.432588 272.443797 
L 414.838568 274.279952 
L 415.244549 275.573893 
L 415.650529 272.336552 
L 416.05651 276.009056 
L 416.46249 278.277727 
L 416.868471 220.104645 
L 417.274452 239.439392 
L 417.680432 252.997046 
L 418.086413 260.053404 
L 418.898374 268.120247 
L 419.304354 268.599586 
L 419.710335 269.544446 
L 420.116316 223.743231 
L 420.522296 242.960148 
L 421.334257 263.881322 
L 421.740238 267.565237 
L 422.146218 266.903849 
L 422.552199 269.201837 
L 422.95818 272.616152 
L 423.770141 266.958654 
L 424.582102 272.778503 
L 425.394063 275.730644 
L 425.800044 273.905371 
L 426.206024 276.780611 
L 426.612005 278.748357 
L 427.017985 221.861883 
L 427.423966 240.676157 
L 427.829947 252.524639 
L 428.641908 265.207212 
L 429.047888 267.464034 
L 429.453869 267.313749 
L 429.859849 269.584534 
L 430.26583 223.767385 
L 430.671811 242.289869 
L 431.483772 263.90738 
L 431.889752 268.80505 
L 432.295733 267.477464 
L 432.701713 269.570997 
L 433.107694 272.716946 
L 433.919655 267.598604 
L 434.325636 270.977777 
L 434.731616 271.671807 
L 435.543577 274.999803 
L 435.949558 273.391221 
L 436.355539 276.637888 
L 436.761519 278.374032 
L 437.1675 221.653896 
L 437.57348 240.515738 
L 437.979461 253.380879 
L 438.791422 265.552253 
L 439.197403 267.491226 
L 439.603383 267.514436 
L 440.009364 269.693675 
L 440.415344 223.597393 
L 440.821325 242.195941 
L 441.633286 263.96012 
L 442.039267 269.065249 
L 442.445247 267.855889 
L 442.851228 268.574399 
L 443.257208 272.167331 
L 443.663189 270.729337 
L 444.069169 267.427482 
L 444.47515 270.830529 
L 444.881131 273.066542 
L 445.287111 274.559447 
L 445.693092 275.376402 
L 446.099072 273.635943 
L 446.911034 276.984292 
L 447.317014 219.323754 
L 447.722995 239.187628 
L 448.128975 251.790138 
L 448.940936 264.840508 
L 449.346917 268.392073 
L 450.158878 270.424956 
L 450.564859 224.341359 
L 450.970839 243.295054 
L 451.7828 262.273431 
L 452.188781 268.110108 
L 452.594762 268.122606 
L 453.000742 269.686638 
L 453.406723 272.907904 
L 453.812703 271.179394 
L 454.218684 267.990758 
L 454.624664 270.545294 
L 455.030645 272.095012 
L 455.436626 274.094627 
L 455.842606 275.399517 
L 456.248587 273.776335 
L 456.654567 275.12875 
L 457.060548 277.597902 
L 457.466528 221.062203 
L 457.872509 239.515832 
L 458.27849 252.736896 
L 459.090451 265.163991 
L 459.496431 268.574819 
L 459.902412 269.211768 
L 460.308392 269.213842 
L 460.714373 223.410132 
L 461.120354 242.081005 
L 461.932315 263.880511 
L 462.338295 267.288675 
L 462.744276 267.525515 
L 463.150256 268.232945 
L 463.556237 271.834064 
L 463.962218 270.480831 
L 464.368198 267.72021 
L 464.774179 271.182867 
L 465.180159 273.22183 
L 465.58614 273.990231 
L 465.99212 275.278135 
L 466.398101 273.734181 
L 466.804082 276.824191 
L 467.210062 277.569184 
L 467.616043 221.131839 
L 468.428004 252.91393 
L 468.833985 258.926036 
L 469.645946 267.563176 
L 470.051926 268.778741 
L 470.457907 270.449036 
L 470.863887 224.295262 
L 471.269868 243.33517 
L 472.081829 264.249549 
L 472.48781 268.887655 
L 472.89379 268.400512 
L 473.299771 269.071886 
L 473.705751 272.464966 
L 474.517713 267.235947 
L 474.923693 270.925835 
L 475.329674 271.645018 
L 475.735654 273.594515 
L 476.141635 273.990381 
L 476.547615 272.955883 
L 476.953596 276.199212 
L 477.359577 278.424596 
L 477.765557 221.148499 
L 478.577518 252.588924 
L 478.983499 259.020217 
L 479.79546 267.727247 
L 480.201441 267.656215 
L 480.607421 269.443023 
L 481.013402 222.54203 
L 481.419382 242.220419 
L 482.231343 263.26477 
L 482.637324 268.725811 
L 483.043305 268.455093 
L 483.449285 270.017865 
L 483.855266 272.926848 
L 484.261246 271.168659 
L 484.667227 268.129678 
L 485.073207 271.106802 
L 485.479188 273.217339 
L 485.885169 274.038522 
L 486.291149 275.546484 
L 486.69713 273.852537 
L 487.509091 278.664474 
L 487.509091 278.664474 
" clip-path="url(#p515764f0af)" style="fill: none; stroke: #2ca02c; stroke-width: 1.5; stroke-linecap: square"/>
   </g>
   <g id="patch_3">
    <path d="M 61.4 305.152125 
L 61.4 27.952125 
" style="fill: none; stroke: #000000; stroke-width: 0.8; stroke-linejoin: miter; stroke-linecap: square"/>
   </g>
   <g id="patch_4">
    <path d="M 507.8 305.152125 
L 507.8 27.952125 
" style="fill: none; stroke: #000000; stroke-width: 0.8; stroke-linejoin: miter; stroke-linecap: square"/>
   </g>
   <g id="patch_5">
    <path d="M 61.4 305.152125 
L 507.8 305.152125 
" style="fill: none; stroke: #000000; stroke-width: 0.8; stroke-linejoin: miter; stroke-linecap: square"/>
   </g>
   <g id="patch_6">
    <path d="M 61.4 27.952125 
L 507.8 27.952125 
" style="fill: none; stroke: #000000; stroke-width: 0.8; stroke-linejoin: miter; stroke-linecap: square"/>
   </g>
   <g id="text_14">
    <!-- ML10 Meta Testing -->
    <g transform="translate(197.604313 21.952125)scale(0.216 -0.216)">
     <defs>
      <path id="STIXGeneral-Regular-4d" d="M 5530 0 
L 3738 0 
L 3738 122 
Q 4115 147 4214 265 
Q 4314 384 4314 787 
L 4314 3661 
L 2682 0 
L 2592 0 
L 979 3514 
L 979 966 
Q 979 448 1088 294 
Q 1197 141 1574 122 
L 1574 0 
L 77 0 
L 77 122 
Q 358 141 480 205 
Q 602 269 650 432 
Q 698 595 698 966 
L 698 3514 
Q 698 3878 589 3984 
Q 480 4090 90 4115 
L 90 4237 
L 1357 4237 
L 2835 1024 
L 4250 4237 
L 5523 4237 
L 5523 4115 
Q 5178 4109 5072 3993 
Q 4966 3878 4966 3520 
L 4966 717 
Q 4966 378 5072 262 
Q 5178 147 5530 122 
L 5530 0 
z
" transform="scale(0.015625)"/>
      <path id="STIXGeneral-Regular-4c" d="M 3827 1114 
L 3520 0 
L 77 0 
L 77 122 
Q 429 141 531 256 
Q 634 371 634 736 
L 634 3494 
Q 634 3872 541 3981 
Q 448 4090 77 4115 
L 77 4237 
L 1888 4237 
L 1888 4115 
Q 1498 4090 1392 3984 
Q 1286 3878 1286 3507 
L 1286 538 
Q 1286 358 1398 304 
Q 1510 250 1862 250 
L 2310 250 
Q 3085 250 3392 640 
Q 3520 813 3661 1114 
L 3827 1114 
z
" transform="scale(0.015625)"/>
     </defs>
     <use xlink:href="#STIXGeneral-Regular-4d"/>
     <use xlink:href="#STIXGeneral-Regular-4c" x="88.899994"/>
     <use xlink:href="#STIXGeneral-Regular-31" x="149.999985"/>
     <use xlink:href="#STIXGeneral-Regular-30" x="199.999969"/>
     <use xlink:href="#STIXGeneral-Regular-20" x="249.999954"/>
     <use xlink:href="#STIXGeneral-Regular-4d" x="274.999939"/>
     <use xlink:href="#STIXGeneral-Regular-65" x="363.899933"/>
     <use xlink:href="#STIXGeneral-Regular-74" x="408.299927"/>
     <use xlink:href="#STIXGeneral-Regular-61" x="436.099915"/>
     <use xlink:href="#STIXGeneral-Regular-20" x="480.499908"/>
     <use xlink:href="#STIXGeneral-Regular-54" x="505.499893"/>
     <use xlink:href="#STIXGeneral-Regular-65" x="566.599884"/>
     <use xlink:href="#STIXGeneral-Regular-73" x="610.999878"/>
     <use xlink:href="#STIXGeneral-Regular-74" x="649.899872"/>
     <use xlink:href="#STIXGeneral-Regular-69" x="677.69986"/>
     <use xlink:href="#STIXGeneral-Regular-6e" x="705.499847"/>
     <use xlink:href="#STIXGeneral-Regular-67" x="755.499832"/>
    </g>
   </g>
   <g id="legend_1">
    <g id="patch_7">
     <path d="M 410.178438 98.667437 
L 498 98.667437 
Q 500.8 98.667437 500.8 95.867437 
L 500.8 37.752125 
Q 500.8 34.952125 498 34.952125 
L 410.178438 34.952125 
Q 407.378438 34.952125 407.378438 37.752125 
L 407.378438 95.867437 
Q 407.378438 98.667437 410.178438 98.667437 
z
" style="fill: #ffffff; opacity: 0.8; stroke: #cccccc; stroke-linejoin: miter"/>
    </g>
    <g id="line2d_24">
     <path d="M 412.978438 45.452125 
L 426.978438 45.452125 
L 440.978438 45.452125 
" style="fill: none; stroke: #1f77b4; stroke-width: 1.5; stroke-linecap: square"/>
    </g>
    <g id="text_15">
     <!-- lr=1e-4 -->
     <g transform="translate(452.178438 50.352125)scale(0.14 -0.14)">
      <defs>
       <path id="STIXGeneral-Regular-6c" d="M 1645 0 
L 134 0 
L 134 96 
Q 435 122 531 221 
Q 627 320 627 589 
L 627 3590 
Q 627 3821 569 3910 
Q 512 4000 358 4000 
Q 224 4000 122 3987 
L 122 4090 
Q 730 4237 1133 4371 
L 1165 4346 
L 1165 557 
Q 1165 288 1254 201 
Q 1344 115 1645 96 
L 1645 0 
z
" transform="scale(0.015625)"/>
       <path id="STIXGeneral-Regular-3d" d="M 4077 2048 
L 307 2048 
L 307 2470 
L 4077 2470 
L 4077 2048 
z
M 4077 768 
L 307 768 
L 307 1190 
L 4077 1190 
L 4077 768 
z
" transform="scale(0.015625)"/>
       <path id="STIXGeneral-Regular-2d" d="M 1824 1242 
L 250 1242 
L 250 1645 
L 1824 1645 
L 1824 1242 
z
" transform="scale(0.015625)"/>
      </defs>
      <use xlink:href="#STIXGeneral-Regular-6c"/>
      <use xlink:href="#STIXGeneral-Regular-72" x="27.799988"/>
      <use xlink:href="#STIXGeneral-Regular-3d" x="61.099976"/>
      <use xlink:href="#STIXGeneral-Regular-31" x="129.59996"/>
      <use xlink:href="#STIXGeneral-Regular-65" x="179.599945"/>
      <use xlink:href="#STIXGeneral-Regular-2d" x="223.999939"/>
      <use xlink:href="#STIXGeneral-Regular-34" x="257.299927"/>
     </g>
    </g>
    <g id="line2d_25">
     <path d="M 412.978438 65.290562 
L 426.978438 65.290562 
L 440.978438 65.290562 
" style="fill: none; stroke: #ff7f0e; stroke-width: 1.5; stroke-linecap: square"/>
    </g>
    <g id="text_16">
     <!-- lr=3e-4 -->
     <g transform="translate(452.178438 70.190562)scale(0.14 -0.14)">
      <use xlink:href="#STIXGeneral-Regular-6c"/>
      <use xlink:href="#STIXGeneral-Regular-72" x="27.799988"/>
      <use xlink:href="#STIXGeneral-Regular-3d" x="61.099976"/>
      <use xlink:href="#STIXGeneral-Regular-33" x="129.59996"/>
      <use xlink:href="#STIXGeneral-Regular-65" x="179.599945"/>
      <use xlink:href="#STIXGeneral-Regular-2d" x="223.999939"/>
      <use xlink:href="#STIXGeneral-Regular-34" x="257.299927"/>
     </g>
    </g>
    <g id="line2d_26">
     <path d="M 412.978438 85.129 
L 426.978438 85.129 
L 440.978438 85.129 
" style="fill: none; stroke: #2ca02c; stroke-width: 1.5; stroke-linecap: square"/>
    </g>
    <g id="text_17">
     <!-- lr=7e-4 -->
     <g transform="translate(452.178438 90.029)scale(0.14 -0.14)">
      <use xlink:href="#STIXGeneral-Regular-6c"/>
      <use xlink:href="#STIXGeneral-Regular-72" x="27.799988"/>
      <use xlink:href="#STIXGeneral-Regular-3d" x="61.099976"/>
      <use xlink:href="#STIXGeneral-Regular-37" x="129.59996"/>
      <use xlink:href="#STIXGeneral-Regular-65" x="179.599945"/>
      <use xlink:href="#STIXGeneral-Regular-2d" x="223.999939"/>
      <use xlink:href="#STIXGeneral-Regular-34" x="257.299927"/>
     </g>
    </g>
   </g>
  </g>
 </g>
 <defs>
  <clipPath id="p515764f0af">
   <rect x="61.4" y="27.952125" width="446.4" height="277.2"/>
  </clipPath>
 </defs>
</svg>
