<?xml version="1.0" encoding="utf-8" standalone="no"?>
<!DOCTYPE svg PUBLIC "-//W3C//DTD SVG 1.1//EN"
  "http://www.w3.org/Graphics/SVG/1.1/DTD/svg11.dtd">
<svg xmlns:xlink="http://www.w3.org/1999/xlink" width="525.18951pt" height="355.769pt" viewBox="0 0 525.18951 355.769" xmlns="http://www.w3.org/2000/svg" version="1.1">
 <metadata>
  <rdf:RDF xmlns:dc="http://purl.org/dc/elements/1.1/" xmlns:cc="http://creativecommons.org/ns#" xmlns:rdf="http://www.w3.org/1999/02/22-rdf-syntax-ns#">
   <cc:Work>
    <dc:type rdf:resource="http://purl.org/dc/dcmitype/StillImage"/>
    <dc:date>2021-12-23T18:11:39.135741</dc:date>
    <dc:format>image/svg+xml</dc:format>
    <dc:creator>
     <cc:Agent>
      <dc:title>Matplotlib v3.5.1, https://matplotlib.org/</dc:title>
     </cc:Agent>
    </dc:creator>
   </cc:Work>
  </rdf:RDF>
 </metadata>
 <defs>
  <style type="text/css">*{stroke-linejoin: round; stroke-linecap: butt}</style>
 </defs>
 <g id="figure_1">
  <g id="patch_1">
   <path d="M 0 355.769 
L 525.18951 355.769 
L 525.18951 0 
L 0 0 
z
" style="fill: #ffffff"/>
  </g>
  <g id="axes_1">
   <g id="patch_2">
    <path d="M 61.4 305.152125 
L 507.8 305.152125 
L 507.8 27.952125 
L 61.4 27.952125 
z
" style="fill: #ffffff"/>
   </g>
   <g id="matplotlib.axis_1">
    <g id="xtick_1">
     <g id="line2d_1">
      <path d="M 75.447552 305.152125 
L 75.447552 27.952125 
" clip-path="url(#p4d56b8d857)" style="fill: none; stroke: #b0b0b0; stroke-width: 0.8; stroke-linecap: square"/>
     </g>
     <g id="line2d_2">
      <defs>
       <path id="md7b8cb9291" d="M 0 0 
L 0 3.5 
" style="stroke: #000000; stroke-width: 0.8"/>
      </defs>
      <g>
       <use xlink:href="#md7b8cb9291" x="75.447552" y="305.152125" style="stroke: #000000; stroke-width: 0.8"/>
      </g>
     </g>
     <g id="text_1">
      <!-- 0.00 -->
      <g transform="translate(59.697552 324.445562)scale(0.18 -0.18)">
       <defs>
        <path id="STIXGeneral-Regular-30" d="M 3046 2112 
Q 3046 1683 2963 1302 
Q 2880 922 2717 602 
Q 2554 282 2266 96 
Q 1978 -90 1600 -90 
Q 1210 -90 915 108 
Q 621 307 461 640 
Q 301 973 227 1350 
Q 154 1728 154 2150 
Q 154 2746 301 3222 
Q 448 3699 790 4012 
Q 1133 4326 1626 4326 
Q 2253 4326 2649 3712 
Q 3046 3098 3046 2112 
z
M 2432 2080 
Q 2432 3091 2217 3625 
Q 2003 4160 1587 4160 
Q 1190 4160 979 3622 
Q 768 3085 768 2106 
Q 768 1120 979 598 
Q 1190 77 1600 77 
Q 2003 77 2217 598 
Q 2432 1120 2432 2080 
z
" transform="scale(0.015625)"/>
        <path id="STIXGeneral-Regular-2e" d="M 1158 275 
Q 1158 134 1052 32 
Q 947 -70 800 -70 
Q 653 -70 550 32 
Q 448 134 448 281 
Q 448 429 553 534 
Q 659 640 806 640 
Q 947 640 1052 531 
Q 1158 422 1158 275 
z
" transform="scale(0.015625)"/>
       </defs>
       <use xlink:href="#STIXGeneral-Regular-30"/>
       <use xlink:href="#STIXGeneral-Regular-2e" x="49.999985"/>
       <use xlink:href="#STIXGeneral-Regular-30" x="74.999969"/>
       <use xlink:href="#STIXGeneral-Regular-30" x="124.999954"/>
      </g>
     </g>
    </g>
    <g id="xtick_2">
     <g id="line2d_3">
      <path d="M 136.417832 305.152125 
L 136.417832 27.952125 
" clip-path="url(#p4d56b8d857)" style="fill: none; stroke: #b0b0b0; stroke-width: 0.8; stroke-linecap: square"/>
     </g>
     <g id="line2d_4">
      <g>
       <use xlink:href="#md7b8cb9291" x="136.417832" y="305.152125" style="stroke: #000000; stroke-width: 0.8"/>
      </g>
     </g>
     <g id="text_2">
      <!-- 0.25 -->
      <g transform="translate(120.667832 324.445562)scale(0.18 -0.18)">
       <defs>
        <path id="STIXGeneral-Regular-32" d="M 3034 877 
L 2688 0 
L 186 0 
L 186 77 
L 1325 1286 
Q 1773 1754 1965 2144 
Q 2157 2534 2157 2950 
Q 2157 3379 1920 3616 
Q 1683 3853 1267 3853 
Q 922 3853 720 3673 
Q 518 3494 326 3021 
L 192 3053 
Q 301 3648 630 3987 
Q 960 4326 1523 4326 
Q 2054 4326 2380 4006 
Q 2707 3686 2707 3200 
Q 2707 2477 1888 1613 
L 832 486 
L 2330 486 
Q 2541 486 2665 569 
Q 2790 653 2944 915 
L 3034 877 
z
" transform="scale(0.015625)"/>
        <path id="STIXGeneral-Regular-35" d="M 2803 4358 
L 2573 3814 
Q 2534 3731 2400 3731 
L 1158 3731 
L 902 3187 
Q 1606 3053 1920 2896 
Q 2234 2739 2502 2368 
Q 2726 2061 2726 1555 
Q 2726 1094 2576 780 
Q 2426 467 2099 224 
Q 1664 -90 1011 -90 
Q 646 -90 422 19 
Q 198 128 198 307 
Q 198 550 486 550 
Q 717 550 960 352 
Q 1210 147 1414 147 
Q 1747 147 2012 480 
Q 2278 813 2278 1229 
Q 2278 1843 1850 2189 
Q 1293 2637 486 2637 
Q 410 2637 410 2688 
L 416 2720 
L 1114 4237 
L 2438 4237 
Q 2547 4237 2608 4269 
Q 2669 4301 2746 4403 
L 2803 4358 
z
" transform="scale(0.015625)"/>
       </defs>
       <use xlink:href="#STIXGeneral-Regular-30"/>
       <use xlink:href="#STIXGeneral-Regular-2e" x="49.999985"/>
       <use xlink:href="#STIXGeneral-Regular-32" x="74.999969"/>
       <use xlink:href="#STIXGeneral-Regular-35" x="124.999954"/>
      </g>
     </g>
    </g>
    <g id="xtick_3">
     <g id="line2d_5">
      <path d="M 197.388112 305.152125 
L 197.388112 27.952125 
" clip-path="url(#p4d56b8d857)" style="fill: none; stroke: #b0b0b0; stroke-width: 0.8; stroke-linecap: square"/>
     </g>
     <g id="line2d_6">
      <g>
       <use xlink:href="#md7b8cb9291" x="197.388112" y="305.152125" style="stroke: #000000; stroke-width: 0.8"/>
      </g>
     </g>
     <g id="text_3">
      <!-- 0.50 -->
      <g transform="translate(181.638112 324.445562)scale(0.18 -0.18)">
       <use xlink:href="#STIXGeneral-Regular-30"/>
       <use xlink:href="#STIXGeneral-Regular-2e" x="49.999985"/>
       <use xlink:href="#STIXGeneral-Regular-35" x="74.999969"/>
       <use xlink:href="#STIXGeneral-Regular-30" x="124.999954"/>
      </g>
     </g>
    </g>
    <g id="xtick_4">
     <g id="line2d_7">
      <path d="M 258.358392 305.152125 
L 258.358392 27.952125 
" clip-path="url(#p4d56b8d857)" style="fill: none; stroke: #b0b0b0; stroke-width: 0.8; stroke-linecap: square"/>
     </g>
     <g id="line2d_8">
      <g>
       <use xlink:href="#md7b8cb9291" x="258.358392" y="305.152125" style="stroke: #000000; stroke-width: 0.8"/>
      </g>
     </g>
     <g id="text_4">
      <!-- 0.75 -->
      <g transform="translate(242.608392 324.445562)scale(0.18 -0.18)">
       <defs>
        <path id="STIXGeneral-Regular-37" d="M 2874 4134 
L 1517 -51 
L 1101 -51 
L 2368 3763 
L 992 3763 
Q 717 3763 582 3667 
Q 448 3571 243 3238 
L 128 3296 
L 512 4237 
L 2874 4237 
L 2874 4134 
z
" transform="scale(0.015625)"/>
       </defs>
       <use xlink:href="#STIXGeneral-Regular-30"/>
       <use xlink:href="#STIXGeneral-Regular-2e" x="49.999985"/>
       <use xlink:href="#STIXGeneral-Regular-37" x="74.999969"/>
       <use xlink:href="#STIXGeneral-Regular-35" x="124.999954"/>
      </g>
     </g>
    </g>
    <g id="xtick_5">
     <g id="line2d_9">
      <path d="M 319.328671 305.152125 
L 319.328671 27.952125 
" clip-path="url(#p4d56b8d857)" style="fill: none; stroke: #b0b0b0; stroke-width: 0.8; stroke-linecap: square"/>
     </g>
     <g id="line2d_10">
      <g>
       <use xlink:href="#md7b8cb9291" x="319.328671" y="305.152125" style="stroke: #000000; stroke-width: 0.8"/>
      </g>
     </g>
     <g id="text_5">
      <!-- 1.00 -->
      <g transform="translate(303.578671 324.445562)scale(0.18 -0.18)">
       <defs>
        <path id="STIXGeneral-Regular-31" d="M 2522 0 
L 755 0 
L 755 96 
Q 1107 115 1235 227 
Q 1363 339 1363 608 
L 1363 3482 
Q 1363 3795 1171 3795 
Q 1082 3795 883 3718 
L 710 3654 
L 710 3744 
L 1856 4326 
L 1914 4307 
L 1914 486 
Q 1914 275 2042 185 
Q 2170 96 2522 96 
L 2522 0 
z
" transform="scale(0.015625)"/>
       </defs>
       <use xlink:href="#STIXGeneral-Regular-31"/>
       <use xlink:href="#STIXGeneral-Regular-2e" x="49.999985"/>
       <use xlink:href="#STIXGeneral-Regular-30" x="74.999969"/>
       <use xlink:href="#STIXGeneral-Regular-30" x="124.999954"/>
      </g>
     </g>
    </g>
    <g id="xtick_6">
     <g id="line2d_11">
      <path d="M 380.298951 305.152125 
L 380.298951 27.952125 
" clip-path="url(#p4d56b8d857)" style="fill: none; stroke: #b0b0b0; stroke-width: 0.8; stroke-linecap: square"/>
     </g>
     <g id="line2d_12">
      <g>
       <use xlink:href="#md7b8cb9291" x="380.298951" y="305.152125" style="stroke: #000000; stroke-width: 0.8"/>
      </g>
     </g>
     <g id="text_6">
      <!-- 1.25 -->
      <g transform="translate(364.548951 324.445562)scale(0.18 -0.18)">
       <use xlink:href="#STIXGeneral-Regular-31"/>
       <use xlink:href="#STIXGeneral-Regular-2e" x="49.999985"/>
       <use xlink:href="#STIXGeneral-Regular-32" x="74.999969"/>
       <use xlink:href="#STIXGeneral-Regular-35" x="124.999954"/>
      </g>
     </g>
    </g>
    <g id="xtick_7">
     <g id="line2d_13">
      <path d="M 441.269231 305.152125 
L 441.269231 27.952125 
" clip-path="url(#p4d56b8d857)" style="fill: none; stroke: #b0b0b0; stroke-width: 0.8; stroke-linecap: square"/>
     </g>
     <g id="line2d_14">
      <g>
       <use xlink:href="#md7b8cb9291" x="441.269231" y="305.152125" style="stroke: #000000; stroke-width: 0.8"/>
      </g>
     </g>
     <g id="text_7">
      <!-- 1.50 -->
      <g transform="translate(425.519231 324.445562)scale(0.18 -0.18)">
       <use xlink:href="#STIXGeneral-Regular-31"/>
       <use xlink:href="#STIXGeneral-Regular-2e" x="49.999985"/>
       <use xlink:href="#STIXGeneral-Regular-35" x="74.999969"/>
       <use xlink:href="#STIXGeneral-Regular-30" x="124.999954"/>
      </g>
     </g>
    </g>
    <g id="xtick_8">
     <g id="line2d_15">
      <path d="M 502.23951 305.152125 
L 502.23951 27.952125 
" clip-path="url(#p4d56b8d857)" style="fill: none; stroke: #b0b0b0; stroke-width: 0.8; stroke-linecap: square"/>
     </g>
     <g id="line2d_16">
      <g>
       <use xlink:href="#md7b8cb9291" x="502.23951" y="305.152125" style="stroke: #000000; stroke-width: 0.8"/>
      </g>
     </g>
     <g id="text_8">
      <!-- 1.75 -->
      <g transform="translate(486.48951 324.445562)scale(0.18 -0.18)">
       <use xlink:href="#STIXGeneral-Regular-31"/>
       <use xlink:href="#STIXGeneral-Regular-2e" x="49.999985"/>
       <use xlink:href="#STIXGeneral-Regular-37" x="74.999969"/>
       <use xlink:href="#STIXGeneral-Regular-35" x="124.999954"/>
      </g>
     </g>
    </g>
    <g id="text_9">
     <!-- Training Environment Steps -->
     <g transform="translate(182.604688 344.645562)scale(0.18 -0.18)">
      <defs>
       <path id="STIXGeneral-Regular-54" d="M 3795 3149 
L 3642 3149 
Q 3539 3674 3353 3821 
Q 3168 3968 2656 3968 
L 2278 3968 
L 2278 710 
Q 2278 346 2387 243 
Q 2496 141 2893 122 
L 2893 0 
L 1024 0 
L 1024 122 
Q 1427 147 1526 256 
Q 1626 365 1626 787 
L 1626 3968 
L 1242 3968 
Q 723 3968 540 3817 
Q 358 3667 262 3149 
L 109 3149 
L 154 4237 
L 3750 4237 
L 3795 3149 
z
" transform="scale(0.015625)"/>
       <path id="STIXGeneral-Regular-72" d="M 1024 2931 
L 1024 2342 
Q 1267 2688 1430 2816 
Q 1594 2944 1792 2944 
Q 1958 2944 2051 2854 
Q 2144 2765 2144 2605 
Q 2144 2470 2077 2393 
Q 2010 2317 1894 2317 
Q 1773 2317 1638 2445 
Q 1536 2541 1472 2541 
Q 1338 2541 1181 2355 
Q 1024 2170 1024 2016 
L 1024 576 
Q 1024 301 1133 205 
Q 1242 109 1568 96 
L 1568 0 
L 32 0 
L 32 96 
Q 339 154 412 224 
Q 486 294 486 538 
L 486 2138 
Q 486 2349 438 2435 
Q 390 2522 269 2522 
Q 166 2522 45 2496 
L 45 2598 
Q 448 2726 992 2944 
L 1024 2931 
z
" transform="scale(0.015625)"/>
       <path id="STIXGeneral-Regular-61" d="M 2829 422 
L 2829 243 
Q 2586 -64 2253 -64 
Q 1888 -64 1843 403 
L 1837 403 
Q 1427 -64 909 -64 
Q 608 -64 422 112 
Q 237 288 237 602 
Q 237 1050 685 1350 
Q 992 1555 1837 1869 
L 1837 2214 
Q 1837 2502 1699 2646 
Q 1562 2790 1338 2790 
Q 1146 2790 1018 2697 
Q 890 2605 890 2477 
Q 890 2419 909 2348 
Q 928 2278 928 2208 
Q 928 2112 841 2029 
Q 755 1946 634 1946 
Q 525 1946 441 2029 
Q 358 2112 358 2240 
Q 358 2547 685 2752 
Q 986 2944 1421 2944 
Q 1939 2944 2176 2656 
Q 2291 2522 2323 2384 
Q 2355 2246 2355 1946 
L 2355 723 
Q 2355 301 2554 301 
Q 2682 301 2829 422 
z
M 1837 813 
L 1837 1715 
Q 1248 1510 1018 1293 
Q 800 1094 800 800 
Q 800 557 921 432 
Q 1043 307 1242 307 
Q 1453 307 1613 410 
Q 1747 506 1792 589 
Q 1837 672 1837 813 
z
" transform="scale(0.015625)"/>
       <path id="STIXGeneral-Regular-69" d="M 1152 4045 
Q 1152 3904 1056 3811 
Q 960 3718 819 3718 
Q 685 3718 592 3811 
Q 499 3904 499 4045 
Q 499 4179 595 4275 
Q 691 4371 826 4371 
Q 966 4371 1059 4275 
Q 1152 4179 1152 4045 
z
M 1619 0 
L 102 0 
L 102 96 
Q 435 115 521 211 
Q 608 307 608 666 
L 608 2118 
Q 608 2342 563 2432 
Q 518 2522 397 2522 
Q 243 2522 128 2490 
L 128 2592 
L 1120 2944 
L 1146 2918 
L 1146 672 
Q 1146 314 1226 218 
Q 1306 122 1619 96 
L 1619 0 
z
" transform="scale(0.015625)"/>
       <path id="STIXGeneral-Regular-6e" d="M 3104 0 
L 1773 0 
L 1779 96 
Q 2016 115 2096 233 
Q 2176 352 2176 672 
L 2176 1946 
Q 2176 2592 1709 2592 
Q 1549 2592 1408 2515 
Q 1267 2438 1050 2227 
L 1050 461 
Q 1050 269 1136 192 
Q 1222 115 1466 96 
L 1466 0 
L 115 0 
L 115 96 
Q 358 115 435 214 
Q 512 314 512 602 
L 512 2157 
Q 512 2394 467 2483 
Q 422 2573 288 2573 
Q 160 2573 102 2547 
L 102 2656 
Q 550 2784 979 2944 
L 1030 2925 
L 1030 2426 
L 1037 2426 
Q 1491 2944 1958 2944 
Q 2323 2944 2518 2688 
Q 2714 2432 2714 1958 
L 2714 544 
Q 2714 288 2790 205 
Q 2867 122 3104 96 
L 3104 0 
z
" transform="scale(0.015625)"/>
       <path id="STIXGeneral-Regular-67" d="M 3008 2483 
L 2477 2483 
Q 2598 2208 2598 1946 
Q 2598 1453 2265 1203 
Q 1933 954 1600 954 
Q 1530 954 1357 973 
L 1235 986 
Q 1107 947 979 812 
Q 851 678 851 582 
Q 851 435 1350 410 
L 2176 371 
Q 2528 358 2739 172 
Q 2950 -13 2950 -314 
Q 2950 -685 2566 -986 
Q 2035 -1395 1286 -1395 
Q 826 -1395 502 -1212 
Q 179 -1030 179 -774 
Q 179 -595 320 -419 
Q 461 -243 806 6 
Q 602 102 534 172 
Q 467 243 467 346 
Q 467 531 762 787 
Q 909 915 1037 1043 
Q 717 1203 579 1401 
Q 442 1600 442 1901 
Q 442 2336 752 2640 
Q 1062 2944 1510 2944 
Q 1766 2944 2022 2848 
L 2163 2797 
Q 2349 2733 2515 2733 
L 3008 2733 
L 3008 2483 
z
M 973 2163 
L 973 2144 
Q 973 1683 1155 1398 
Q 1338 1114 1632 1114 
Q 1850 1114 1978 1270 
Q 2106 1427 2106 1690 
Q 2106 2112 1914 2464 
Q 1754 2765 1446 2765 
Q 1222 2765 1097 2605 
Q 973 2445 973 2163 
z
M 2771 -410 
Q 2771 -230 2595 -163 
Q 2419 -96 1978 -96 
Q 1344 -96 941 -13 
Q 749 -243 688 -348 
Q 627 -454 627 -563 
Q 627 -774 880 -902 
Q 1133 -1030 1555 -1030 
Q 2099 -1030 2435 -860 
Q 2771 -691 2771 -410 
z
" transform="scale(0.015625)"/>
       <path id="STIXGeneral-Regular-20" transform="scale(0.015625)"/>
       <path id="STIXGeneral-Regular-45" d="M 3821 1082 
L 3526 0 
L 77 0 
L 77 122 
Q 442 147 538 252 
Q 634 358 634 730 
L 634 3520 
Q 634 3878 534 3987 
Q 435 4096 77 4115 
L 77 4237 
L 3469 4237 
L 3494 3322 
L 3334 3322 
Q 3264 3750 3085 3872 
Q 2906 3994 2349 3994 
L 1510 3994 
Q 1370 3994 1328 3952 
Q 1286 3910 1286 3763 
L 1286 2355 
L 2253 2355 
Q 2656 2355 2787 2470 
Q 2918 2586 2976 2970 
L 3123 2970 
L 3123 1472 
L 2976 1472 
Q 2918 1875 2790 1984 
Q 2662 2093 2253 2093 
L 1286 2093 
L 1286 538 
Q 1286 346 1420 291 
Q 1555 237 1933 237 
L 2163 237 
Q 2848 237 3136 403 
Q 3424 570 3642 1082 
L 3821 1082 
z
" transform="scale(0.015625)"/>
       <path id="STIXGeneral-Regular-76" d="M 3053 2880 
L 3053 2784 
Q 2906 2771 2835 2688 
Q 2765 2605 2637 2285 
L 1818 230 
Q 1690 -90 1638 -90 
Q 1587 -90 1523 77 
Q 1510 96 1497 141 
Q 1485 186 1472 211 
L 704 2048 
Q 499 2534 403 2652 
Q 307 2771 122 2784 
L 122 2880 
L 1376 2880 
L 1376 2784 
Q 1210 2771 1146 2732 
Q 1082 2694 1082 2611 
Q 1082 2509 1139 2368 
L 1792 730 
L 2426 2387 
Q 2464 2483 2464 2579 
Q 2464 2758 2163 2784 
L 2163 2880 
L 3053 2880 
z
" transform="scale(0.015625)"/>
       <path id="STIXGeneral-Regular-6f" d="M 3008 1478 
Q 3008 806 2608 371 
Q 2208 -64 1568 -64 
Q 979 -64 582 368 
Q 186 800 186 1459 
Q 186 2125 582 2534 
Q 979 2944 1626 2944 
Q 2221 2944 2614 2537 
Q 3008 2131 3008 1478 
z
M 2432 1306 
Q 2432 2035 2112 2445 
Q 1856 2765 1504 2765 
Q 1171 2765 966 2493 
Q 762 2221 762 1747 
Q 762 928 1101 435 
Q 1318 115 1677 115 
Q 2029 115 2230 432 
Q 2432 749 2432 1306 
z
" transform="scale(0.015625)"/>
       <path id="STIXGeneral-Regular-6d" d="M 4960 0 
L 3565 0 
L 3565 96 
Q 3834 122 3907 208 
Q 3981 294 3981 576 
L 3981 1894 
Q 3981 2278 3869 2444 
Q 3757 2611 3488 2611 
Q 3264 2611 3107 2521 
Q 2950 2432 2803 2221 
L 2803 608 
Q 2803 301 2896 201 
Q 2989 102 3264 96 
L 3264 0 
L 1830 0 
L 1830 96 
Q 2112 115 2189 188 
Q 2266 262 2266 550 
L 2266 1901 
Q 2266 2611 1850 2611 
Q 1670 2611 1468 2531 
Q 1267 2451 1171 2336 
Q 1088 2240 1088 2227 
L 1088 448 
Q 1088 243 1177 176 
Q 1267 109 1523 96 
L 1523 0 
L 102 0 
L 102 96 
Q 371 102 460 195 
Q 550 288 550 563 
L 550 2150 
Q 550 2387 499 2480 
Q 448 2573 326 2573 
Q 230 2573 122 2547 
L 122 2656 
Q 557 2778 1011 2944 
L 1062 2925 
L 1062 2451 
L 1075 2451 
Q 1363 2752 1584 2848 
Q 1805 2944 2054 2944 
Q 2560 2944 2733 2406 
Q 3232 2944 3776 2944 
Q 4518 2944 4518 1792 
L 4518 493 
Q 4518 282 4582 202 
Q 4646 122 4794 109 
L 4960 96 
L 4960 0 
z
" transform="scale(0.015625)"/>
       <path id="STIXGeneral-Regular-65" d="M 2611 1050 
L 2714 1005 
Q 2330 -64 1376 -64 
Q 813 -64 486 329 
Q 160 723 160 1389 
Q 160 2074 525 2509 
Q 890 2944 1485 2944 
Q 2061 2944 2374 2502 
Q 2560 2246 2592 1773 
L 621 1773 
Q 646 1370 700 1158 
Q 755 947 915 730 
Q 1184 378 1626 378 
Q 1939 378 2153 531 
Q 2368 685 2611 1050 
z
M 634 1978 
L 1939 1978 
Q 1882 2381 1750 2547 
Q 1619 2714 1312 2714 
Q 1043 2714 864 2525 
Q 685 2336 634 1978 
z
" transform="scale(0.015625)"/>
       <path id="STIXGeneral-Regular-74" d="M 1702 493 
L 1786 422 
Q 1478 -64 1011 -64 
Q 448 -64 448 749 
L 448 2675 
L 109 2675 
Q 83 2694 83 2720 
Q 83 2771 192 2842 
Q 435 2982 813 3526 
Q 826 3546 874 3606 
Q 922 3667 941 3706 
Q 986 3706 986 3622 
L 986 2880 
L 1632 2880 
L 1632 2675 
L 986 2675 
L 986 845 
Q 986 538 1062 403 
Q 1139 269 1318 269 
Q 1510 269 1702 493 
z
" transform="scale(0.015625)"/>
       <path id="STIXGeneral-Regular-53" d="M 3002 2963 
L 2842 2963 
Q 2733 3360 2579 3565 
Q 2189 4064 1651 4064 
Q 1357 4064 1181 3894 
Q 1005 3725 1005 3456 
Q 1005 3328 1069 3206 
Q 1133 3085 1206 2998 
Q 1280 2912 1465 2784 
Q 1651 2656 1766 2589 
Q 1882 2522 2150 2362 
Q 2669 2061 2905 1763 
Q 3142 1466 3142 1107 
Q 3142 576 2771 243 
Q 2400 -90 1837 -90 
Q 1421 -90 1082 58 
Q 915 128 781 128 
Q 704 128 653 70 
Q 602 13 602 -83 
L 461 -83 
L 275 1274 
L 416 1274 
Q 845 141 1734 141 
Q 2074 141 2285 342 
Q 2496 544 2496 858 
Q 2496 1158 2310 1363 
Q 2003 1696 1235 2106 
Q 454 2522 454 3206 
Q 454 3718 768 4022 
Q 1082 4326 1568 4326 
Q 1907 4326 2240 4186 
Q 2413 4109 2522 4109 
Q 2688 4109 2726 4326 
L 2861 4326 
L 3002 2963 
z
" transform="scale(0.015625)"/>
       <path id="STIXGeneral-Regular-70" d="M 1018 2931 
L 1018 2438 
Q 1421 2944 1939 2944 
Q 2406 2944 2707 2560 
Q 3008 2176 3008 1581 
Q 3008 883 2621 409 
Q 2234 -64 1664 -64 
Q 1466 -64 1328 -6 
Q 1190 51 1018 211 
L 1018 -794 
Q 1018 -1094 1120 -1180 
Q 1222 -1267 1581 -1274 
L 1581 -1389 
L 32 -1389 
L 32 -1280 
Q 314 -1254 397 -1171 
Q 480 -1088 480 -838 
L 480 2157 
Q 480 2381 429 2451 
Q 378 2522 218 2522 
Q 115 2522 58 2515 
L 58 2618 
Q 506 2752 979 2944 
L 1018 2931 
z
M 1018 2138 
L 1018 563 
Q 1018 422 1238 281 
Q 1459 141 1683 141 
Q 2029 141 2243 467 
Q 2458 794 2458 1325 
Q 2458 1888 2243 2224 
Q 2029 2560 1670 2560 
Q 1446 2560 1232 2419 
Q 1018 2278 1018 2138 
z
" transform="scale(0.015625)"/>
       <path id="STIXGeneral-Regular-73" d="M 998 1926 
L 1664 1523 
Q 1984 1331 2105 1164 
Q 2227 998 2227 736 
Q 2227 416 1961 176 
Q 1696 -64 1331 -64 
Q 1030 -64 864 -6 
Q 691 51 570 51 
Q 461 51 416 -26 
L 333 -26 
L 333 979 
L 435 979 
Q 538 512 730 294 
Q 922 77 1248 77 
Q 1485 77 1632 211 
Q 1779 346 1779 550 
Q 1779 845 1440 1030 
L 1094 1222 
Q 326 1651 326 2150 
Q 326 2522 566 2730 
Q 806 2938 1210 2938 
Q 1491 2938 1638 2867 
Q 1754 2816 1818 2816 
Q 1862 2816 1920 2880 
L 1990 2880 
L 2022 2010 
L 1926 2010 
Q 1818 2445 1654 2621 
Q 1491 2797 1203 2797 
Q 986 2797 854 2688 
Q 723 2579 723 2362 
Q 723 2253 796 2128 
Q 870 2003 998 1926 
z
" transform="scale(0.015625)"/>
      </defs>
      <use xlink:href="#STIXGeneral-Regular-54"/>
      <use xlink:href="#STIXGeneral-Regular-72" x="61.099991"/>
      <use xlink:href="#STIXGeneral-Regular-61" x="94.399979"/>
      <use xlink:href="#STIXGeneral-Regular-69" x="138.799973"/>
      <use xlink:href="#STIXGeneral-Regular-6e" x="166.59996"/>
      <use xlink:href="#STIXGeneral-Regular-69" x="216.599945"/>
      <use xlink:href="#STIXGeneral-Regular-6e" x="244.399933"/>
      <use xlink:href="#STIXGeneral-Regular-67" x="294.399918"/>
      <use xlink:href="#STIXGeneral-Regular-20" x="344.399902"/>
      <use xlink:href="#STIXGeneral-Regular-45" x="369.399887"/>
      <use xlink:href="#STIXGeneral-Regular-6e" x="430.499878"/>
      <use xlink:href="#STIXGeneral-Regular-76" x="480.499863"/>
      <use xlink:href="#STIXGeneral-Regular-69" x="530.499847"/>
      <use xlink:href="#STIXGeneral-Regular-72" x="558.299835"/>
      <use xlink:href="#STIXGeneral-Regular-6f" x="591.599823"/>
      <use xlink:href="#STIXGeneral-Regular-6e" x="641.599808"/>
      <use xlink:href="#STIXGeneral-Regular-6d" x="691.599792"/>
      <use xlink:href="#STIXGeneral-Regular-65" x="769.39978"/>
      <use xlink:href="#STIXGeneral-Regular-6e" x="813.799774"/>
      <use xlink:href="#STIXGeneral-Regular-74" x="863.799759"/>
      <use xlink:href="#STIXGeneral-Regular-20" x="891.599747"/>
      <use xlink:href="#STIXGeneral-Regular-53" x="916.599731"/>
      <use xlink:href="#STIXGeneral-Regular-74" x="972.199722"/>
      <use xlink:href="#STIXGeneral-Regular-65" x="999.99971"/>
      <use xlink:href="#STIXGeneral-Regular-70" x="1044.399704"/>
      <use xlink:href="#STIXGeneral-Regular-73" x="1094.399689"/>
     </g>
    </g>
    <g id="text_10">
     <!-- 1e8 -->
     <g transform="translate(481.806875 343.645562)scale(0.18 -0.18)">
      <defs>
       <path id="STIXGeneral-Regular-38" d="M 2848 992 
Q 2848 499 2505 204 
Q 2163 -90 1587 -90 
Q 1050 -90 704 204 
Q 358 499 358 954 
Q 358 1293 524 1533 
Q 691 1773 1190 2125 
Q 710 2522 553 2765 
Q 397 3008 397 3328 
Q 397 3782 745 4054 
Q 1094 4326 1638 4326 
Q 2106 4326 2410 4060 
Q 2714 3795 2714 3411 
Q 2714 3059 2531 2848 
Q 2349 2637 1856 2374 
Q 2432 1990 2640 1689 
Q 2848 1389 2848 992 
z
M 2272 3411 
Q 2272 3744 2086 3945 
Q 1901 4147 1574 4147 
Q 1248 4147 1059 3977 
Q 870 3808 870 3513 
Q 870 3219 1059 2979 
Q 1248 2739 1670 2490 
Q 1997 2682 2134 2896 
Q 2272 3110 2272 3411 
z
M 1734 1741 
L 1357 1997 
Q 1075 1766 960 1545 
Q 845 1325 845 1011 
Q 845 576 1065 333 
Q 1286 90 1658 90 
Q 1971 90 2166 285 
Q 2362 480 2362 794 
Q 2362 1082 2214 1299 
Q 2067 1517 1734 1741 
z
" transform="scale(0.015625)"/>
      </defs>
      <use xlink:href="#STIXGeneral-Regular-31"/>
      <use xlink:href="#STIXGeneral-Regular-65" x="49.999985"/>
      <use xlink:href="#STIXGeneral-Regular-38" x="94.399979"/>
     </g>
    </g>
   </g>
   <g id="matplotlib.axis_2">
    <g id="ytick_1">
     <g id="line2d_17">
      <path d="M 61.4 288.701643 
L 507.8 288.701643 
" clip-path="url(#p4d56b8d857)" style="fill: none; stroke: #b0b0b0; stroke-width: 0.8; stroke-linecap: square"/>
     </g>
     <g id="line2d_18">
      <defs>
       <path id="m6fd32a45c9" d="M 0 0 
L -3.5 0 
" style="stroke: #000000; stroke-width: 0.8"/>
      </defs>
      <g>
       <use xlink:href="#m6fd32a45c9" x="61.4" y="288.701643" style="stroke: #000000; stroke-width: 0.8"/>
      </g>
     </g>
     <g id="text_11">
      <!-- 100 -->
      <g transform="translate(27.4 294.848362)scale(0.18 -0.18)">
       <use xlink:href="#STIXGeneral-Regular-31"/>
       <use xlink:href="#STIXGeneral-Regular-30" x="49.999985"/>
       <use xlink:href="#STIXGeneral-Regular-30" x="99.999969"/>
      </g>
     </g>
    </g>
    <g id="ytick_2">
     <g id="line2d_19">
      <path d="M 61.4 248.705099 
L 507.8 248.705099 
" clip-path="url(#p4d56b8d857)" style="fill: none; stroke: #b0b0b0; stroke-width: 0.8; stroke-linecap: square"/>
     </g>
     <g id="line2d_20">
      <g>
       <use xlink:href="#m6fd32a45c9" x="61.4" y="248.705099" style="stroke: #000000; stroke-width: 0.8"/>
      </g>
     </g>
     <g id="text_12">
      <!-- 200 -->
      <g transform="translate(27.4 254.851818)scale(0.18 -0.18)">
       <use xlink:href="#STIXGeneral-Regular-32"/>
       <use xlink:href="#STIXGeneral-Regular-30" x="49.999985"/>
       <use xlink:href="#STIXGeneral-Regular-30" x="99.999969"/>
      </g>
     </g>
    </g>
    <g id="ytick_3">
     <g id="line2d_21">
      <path d="M 61.4 208.708555 
L 507.8 208.708555 
" clip-path="url(#p4d56b8d857)" style="fill: none; stroke: #b0b0b0; stroke-width: 0.8; stroke-linecap: square"/>
     </g>
     <g id="line2d_22">
      <g>
       <use xlink:href="#m6fd32a45c9" x="61.4" y="208.708555" style="stroke: #000000; stroke-width: 0.8"/>
      </g>
     </g>
     <g id="text_13">
      <!-- 300 -->
      <g transform="translate(27.4 214.855274)scale(0.18 -0.18)">
       <defs>
        <path id="STIXGeneral-Regular-33" d="M 390 3264 
L 288 3290 
Q 435 3770 748 4048 
Q 1062 4326 1542 4326 
Q 1990 4326 2265 4083 
Q 2541 3840 2541 3450 
Q 2541 2925 1946 2566 
Q 2298 2413 2477 2227 
Q 2758 1914 2758 1402 
Q 2758 890 2464 506 
Q 2246 211 1840 60 
Q 1434 -90 979 -90 
Q 262 -90 262 275 
Q 262 378 339 442 
Q 416 506 525 506 
Q 685 506 915 339 
Q 1197 141 1466 141 
Q 1818 141 2058 425 
Q 2298 710 2298 1120 
Q 2298 1856 1632 2048 
Q 1434 2112 979 2112 
L 979 2202 
Q 1338 2323 1517 2432 
Q 2035 2726 2035 3290 
Q 2035 3610 1852 3776 
Q 1670 3942 1344 3942 
Q 768 3942 390 3264 
z
" transform="scale(0.015625)"/>
       </defs>
       <use xlink:href="#STIXGeneral-Regular-33"/>
       <use xlink:href="#STIXGeneral-Regular-30" x="49.999985"/>
       <use xlink:href="#STIXGeneral-Regular-30" x="99.999969"/>
      </g>
     </g>
    </g>
    <g id="ytick_4">
     <g id="line2d_23">
      <path d="M 61.4 168.712012 
L 507.8 168.712012 
" clip-path="url(#p4d56b8d857)" style="fill: none; stroke: #b0b0b0; stroke-width: 0.8; stroke-linecap: square"/>
     </g>
     <g id="line2d_24">
      <g>
       <use xlink:href="#m6fd32a45c9" x="61.4" y="168.712012" style="stroke: #000000; stroke-width: 0.8"/>
      </g>
     </g>
     <g id="text_14">
      <!-- 400 -->
      <g transform="translate(27.4 174.85873)scale(0.18 -0.18)">
       <defs>
        <path id="STIXGeneral-Regular-34" d="M 3027 1069 
L 2368 1069 
L 2368 0 
L 1869 0 
L 1869 1069 
L 77 1069 
L 77 1478 
L 2086 4326 
L 2368 4326 
L 2368 1478 
L 3027 1478 
L 3027 1069 
z
M 1869 1478 
L 1869 3674 
L 333 1478 
L 1869 1478 
z
" transform="scale(0.015625)"/>
       </defs>
       <use xlink:href="#STIXGeneral-Regular-34"/>
       <use xlink:href="#STIXGeneral-Regular-30" x="49.999985"/>
       <use xlink:href="#STIXGeneral-Regular-30" x="99.999969"/>
      </g>
     </g>
    </g>
    <g id="ytick_5">
     <g id="line2d_25">
      <path d="M 61.4 128.715468 
L 507.8 128.715468 
" clip-path="url(#p4d56b8d857)" style="fill: none; stroke: #b0b0b0; stroke-width: 0.8; stroke-linecap: square"/>
     </g>
     <g id="line2d_26">
      <g>
       <use xlink:href="#m6fd32a45c9" x="61.4" y="128.715468" style="stroke: #000000; stroke-width: 0.8"/>
      </g>
     </g>
     <g id="text_15">
      <!-- 500 -->
      <g transform="translate(27.4 134.862187)scale(0.18 -0.18)">
       <use xlink:href="#STIXGeneral-Regular-35"/>
       <use xlink:href="#STIXGeneral-Regular-30" x="49.999985"/>
       <use xlink:href="#STIXGeneral-Regular-30" x="99.999969"/>
      </g>
     </g>
    </g>
    <g id="ytick_6">
     <g id="line2d_27">
      <path d="M 61.4 88.718924 
L 507.8 88.718924 
" clip-path="url(#p4d56b8d857)" style="fill: none; stroke: #b0b0b0; stroke-width: 0.8; stroke-linecap: square"/>
     </g>
     <g id="line2d_28">
      <g>
       <use xlink:href="#m6fd32a45c9" x="61.4" y="88.718924" style="stroke: #000000; stroke-width: 0.8"/>
      </g>
     </g>
     <g id="text_16">
      <!-- 600 -->
      <g transform="translate(27.4 94.865643)scale(0.18 -0.18)">
       <defs>
        <path id="STIXGeneral-Regular-36" d="M 2854 4378 
L 2867 4275 
Q 2112 4154 1606 3664 
Q 1101 3174 973 2451 
Q 1344 2739 1786 2739 
Q 2349 2739 2672 2380 
Q 2995 2022 2995 1402 
Q 2995 774 2669 378 
Q 2291 -90 1651 -90 
Q 870 -90 518 557 
Q 218 1107 218 1786 
Q 218 2835 915 3552 
Q 1312 3962 1731 4131 
Q 2150 4301 2854 4378 
z
M 2419 1203 
Q 2419 2445 1555 2445 
Q 1235 2445 1024 2275 
Q 813 2106 813 1702 
Q 813 954 1046 522 
Q 1280 90 1722 90 
Q 2061 90 2240 394 
Q 2419 698 2419 1203 
z
" transform="scale(0.015625)"/>
       </defs>
       <use xlink:href="#STIXGeneral-Regular-36"/>
       <use xlink:href="#STIXGeneral-Regular-30" x="49.999985"/>
       <use xlink:href="#STIXGeneral-Regular-30" x="99.999969"/>
      </g>
     </g>
    </g>
    <g id="ytick_7">
     <g id="line2d_29">
      <path d="M 61.4 48.72238 
L 507.8 48.72238 
" clip-path="url(#p4d56b8d857)" style="fill: none; stroke: #b0b0b0; stroke-width: 0.8; stroke-linecap: square"/>
     </g>
     <g id="line2d_30">
      <g>
       <use xlink:href="#m6fd32a45c9" x="61.4" y="48.72238" style="stroke: #000000; stroke-width: 0.8"/>
      </g>
     </g>
     <g id="text_17">
      <!-- 700 -->
      <g transform="translate(27.4 54.869099)scale(0.18 -0.18)">
       <use xlink:href="#STIXGeneral-Regular-37"/>
       <use xlink:href="#STIXGeneral-Regular-30" x="49.999985"/>
       <use xlink:href="#STIXGeneral-Regular-30" x="99.999969"/>
      </g>
     </g>
    </g>
    <g id="text_18">
     <!-- Average Test Return -->
     <g transform="translate(19.476562 241.533375)rotate(-90)scale(0.18 -0.18)">
      <defs>
       <path id="STIXGeneral-Regular-41" d="M 4525 0 
L 2893 0 
L 2893 122 
Q 3149 122 3245 179 
Q 3334 224 3334 333 
Q 3334 499 3213 781 
L 2950 1382 
L 1274 1382 
L 979 653 
Q 922 506 922 384 
Q 922 237 1027 179 
Q 1133 122 1370 122 
L 1370 0 
L 96 0 
L 96 122 
Q 365 147 486 316 
Q 608 486 902 1190 
L 2221 4314 
L 2349 4314 
L 3923 710 
Q 4064 378 4176 262 
Q 4288 147 4525 122 
L 4525 0 
z
M 2861 1645 
L 2118 3405 
L 1382 1645 
L 2861 1645 
z
" transform="scale(0.015625)"/>
       <path id="STIXGeneral-Regular-52" d="M 4224 0 
L 3187 0 
L 1664 1971 
L 1306 1958 
L 1306 717 
Q 1306 352 1405 249 
Q 1504 147 1875 122 
L 1875 0 
L 109 0 
L 109 122 
Q 474 154 563 262 
Q 653 371 653 794 
L 653 3526 
Q 653 3885 563 3987 
Q 474 4090 109 4115 
L 109 4237 
L 1850 4237 
Q 2726 4237 3187 3859 
Q 3501 3603 3501 3091 
Q 3501 2221 2342 2042 
L 3622 422 
Q 3757 256 3878 198 
Q 4000 141 4224 122 
L 4224 0 
z
M 1306 3731 
L 1306 2195 
Q 1766 2202 1990 2246 
Q 2214 2291 2438 2413 
Q 2803 2618 2803 3142 
Q 2803 4000 1632 4000 
Q 1459 4000 1382 3945 
Q 1306 3891 1306 3731 
z
" transform="scale(0.015625)"/>
       <path id="STIXGeneral-Regular-75" d="M 3072 320 
L 3072 230 
Q 2573 96 2195 -58 
L 2163 -38 
L 2163 486 
L 2150 486 
Q 1747 -64 1235 -64 
Q 870 -64 662 160 
Q 454 384 454 755 
L 454 2362 
Q 454 2598 371 2688 
Q 288 2778 58 2790 
L 58 2880 
L 992 2880 
L 992 813 
Q 992 595 1123 451 
Q 1254 307 1446 307 
Q 1760 307 1984 506 
Q 2067 582 2099 649 
Q 2131 717 2131 877 
L 2131 2355 
Q 2131 2605 2041 2678 
Q 1952 2752 1658 2771 
L 1658 2880 
L 2669 2880 
L 2669 685 
Q 2669 461 2742 390 
Q 2816 320 3034 320 
L 3072 320 
z
" transform="scale(0.015625)"/>
      </defs>
      <use xlink:href="#STIXGeneral-Regular-41"/>
      <use xlink:href="#STIXGeneral-Regular-76" x="72.199982"/>
      <use xlink:href="#STIXGeneral-Regular-65" x="122.199966"/>
      <use xlink:href="#STIXGeneral-Regular-72" x="166.59996"/>
      <use xlink:href="#STIXGeneral-Regular-61" x="199.899948"/>
      <use xlink:href="#STIXGeneral-Regular-67" x="244.299942"/>
      <use xlink:href="#STIXGeneral-Regular-65" x="294.299927"/>
      <use xlink:href="#STIXGeneral-Regular-20" x="338.699921"/>
      <use xlink:href="#STIXGeneral-Regular-54" x="363.699905"/>
      <use xlink:href="#STIXGeneral-Regular-65" x="424.799896"/>
      <use xlink:href="#STIXGeneral-Regular-73" x="469.19989"/>
      <use xlink:href="#STIXGeneral-Regular-74" x="508.099884"/>
      <use xlink:href="#STIXGeneral-Regular-20" x="535.899872"/>
      <use xlink:href="#STIXGeneral-Regular-52" x="560.899857"/>
      <use xlink:href="#STIXGeneral-Regular-65" x="627.599854"/>
      <use xlink:href="#STIXGeneral-Regular-74" x="671.999847"/>
      <use xlink:href="#STIXGeneral-Regular-75" x="699.799835"/>
      <use xlink:href="#STIXGeneral-Regular-72" x="749.79982"/>
      <use xlink:href="#STIXGeneral-Regular-6e" x="783.099808"/>
     </g>
    </g>
   </g>
   <g id="line2d_31">
    <path d="M 81.690909 225.247556 
L 87.934266 238.321253 
L 94.177622 252.761002 
L 100.420979 259.794841 
L 106.664336 264.269952 
L 112.907692 267.32618 
L 119.151049 269.808493 
L 125.394406 272.498815 
L 131.637762 266.606155 
L 137.881119 263.693359 
L 144.124476 257.419829 
L 150.367832 252.033169 
L 156.611189 253.745113 
L 162.854545 253.216779 
L 169.097902 261.461771 
L 175.341259 259.673135 
L 181.584615 261.333791 
L 187.827972 252.102668 
L 194.071329 249.880925 
L 200.314685 253.399293 
L 206.558042 250.183791 
L 212.801399 249.613131 
L 219.044755 258.597702 
L 225.288112 264.401328 
L 231.531469 265.406651 
L 237.774825 269.004322 
L 244.018182 267.685021 
L 250.261538 268.72915 
L 256.504895 266.371814 
L 262.748252 262.082081 
L 268.991608 258.374144 
L 275.234965 255.628221 
L 281.478322 252.675892 
L 287.721678 256.953606 
L 293.965035 260.871072 
L 300.208392 259.85688 
L 306.451748 263.097108 
L 312.695105 258.95974 
L 318.938462 261.627108 
L 325.181818 262.079931 
L 331.425175 259.580718 
L 337.668531 256.962872 
L 343.911888 255.462779 
L 350.155245 256.73315 
L 356.398601 256.928015 
L 362.641958 261.99526 
L 368.885315 258.707097 
L 375.128671 257.066331 
L 381.372028 256.104537 
L 387.615385 254.813048 
L 393.858741 264.987017 
L 400.102098 263.707401 
L 406.345455 267.499733 
L 412.588811 271.799895 
L 418.832168 274.571991 
L 425.075524 276.772118 
L 431.318881 269.706667 
L 437.562238 273.773051 
L 443.805594 274.692417 
" clip-path="url(#p4d56b8d857)" style="fill: none; stroke: #1f77b4; stroke-width: 1.5; stroke-linecap: square"/>
   </g>
   <g id="line2d_32">
    <path d="M 81.690909 244.86743 
L 87.934266 246.251285 
L 94.177622 254.452033 
L 100.420979 260.893061 
L 106.664336 261.126219 
L 112.907692 266.967398 
L 119.151049 270.341798 
L 125.394406 272.62983 
L 131.637762 274.409528 
L 137.881119 275.541607 
L 144.124476 266.084073 
L 150.367832 270.040706 
L 156.611189 263.880335 
L 162.854545 245.972524 
L 169.097902 211.112108 
L 175.341259 204.742136 
L 181.584615 200.966999 
L 187.827972 206.621828 
L 194.071329 216.817714 
L 200.314685 205.578775 
L 206.558042 216.672991 
L 212.801399 179.415337 
L 219.044755 176.898068 
L 225.288112 198.470656 
L 231.531469 212.878501 
L 237.774825 218.035871 
L 244.018182 206.977238 
L 250.261538 229.263563 
L 256.504895 239.140077 
L 262.748252 237.720184 
L 268.991608 239.283975 
L 275.234965 248.389375 
L 281.478322 251.290716 
L 287.721678 241.699359 
L 293.965035 230.310684 
L 300.208392 243.112352 
L 306.451748 238.580092 
L 312.695105 241.097261 
L 318.938462 242.960794 
L 325.181818 245.281258 
L 331.425175 249.859262 
L 337.668531 249.878556 
L 343.911888 255.628538 
L 350.155245 252.900548 
L 356.398601 250.93319 
L 362.641958 254.86858 
L 368.885315 252.917899 
L 375.128671 261.922524 
L 381.372028 267.665556 
L 387.615385 267.013767 
L 393.858741 267.387936 
L 400.102098 267.781087 
L 406.345455 271.002864 
L 412.588811 265.724198 
L 418.832168 265.257109 
L 425.075524 262.589469 
L 431.318881 265.701235 
L 437.562238 265.21621 
L 443.805594 266.108303 
L 450.048951 268.769996 
L 456.292308 268.262291 
L 462.535664 271.416994 
L 468.779021 271.340696 
L 475.022378 273.228353 
L 481.265734 276.039323 
L 487.509091 273.180754 
" clip-path="url(#p4d56b8d857)" style="fill: none; stroke: #ff7f0e; stroke-width: 1.5; stroke-linecap: square"/>
   </g>
   <g id="line2d_33">
    <path d="M 81.690909 251.087095 
L 87.934266 251.847437 
L 94.177622 255.712511 
L 100.420979 250.336812 
L 106.664336 138.287083 
L 112.907692 186.056888 
L 119.151049 211.499731 
L 125.394406 202.890246 
L 131.637762 221.835621 
L 137.881119 212.124604 
L 144.124476 224.399733 
L 150.367832 237.899346 
L 156.611189 239.858414 
L 162.854545 243.739668 
L 169.097902 245.692382 
L 175.341259 240.451815 
L 181.584615 235.836984 
L 187.827972 234.215623 
L 194.071329 230.46841 
L 200.314685 245.284176 
L 206.558042 244.737145 
L 212.801399 237.076156 
L 219.044755 225.235306 
L 225.288112 203.232381 
L 231.531469 207.660231 
L 237.774825 193.644128 
L 244.018182 193.267435 
L 250.261538 193.994032 
L 256.504895 133.642069 
L 262.748252 91.202631 
L 268.991608 68.758355 
L 275.234965 49.236532 
L 281.478322 45.016316 
L 287.721678 52.238617 
L 293.965035 55.228432 
L 300.208392 57.706773 
L 306.451748 41.180393 
L 312.695105 55.851786 
L 318.938462 40.552125 
L 325.181818 62.197536 
L 331.425175 76.043858 
L 337.668531 105.604966 
L 343.911888 100.022167 
L 350.155245 71.38893 
L 356.398601 143.414888 
L 362.641958 105.201136 
L 368.885315 143.424486 
L 375.128671 111.374107 
L 381.372028 97.805909 
L 387.615385 117.694429 
L 393.858741 115.817401 
L 400.102098 163.135675 
L 406.345455 131.403451 
L 412.588811 111.90483 
L 418.832168 95.781001 
L 425.075524 128.224348 
L 431.318881 115.40196 
L 437.562238 168.59393 
L 443.805594 123.36319 
L 450.048951 169.716738 
L 456.292308 138.464389 
L 462.535664 114.031224 
L 468.779021 96.55316 
L 475.022378 122.050683 
L 481.265734 115.750711 
" clip-path="url(#p4d56b8d857)" style="fill: none; stroke: #2ca02c; stroke-width: 1.5; stroke-linecap: square"/>
   </g>
   <g id="line2d_34">
    <path d="M 81.690909 197.428732 
L 87.934266 210.086415 
L 94.177622 198.715415 
L 100.420979 202.979377 
L 106.664336 191.264871 
L 112.907692 205.254912 
L 119.151049 225.172968 
L 125.394406 247.750781 
L 131.637762 261.978908 
L 137.881119 268.535805 
L 144.124476 273.09269 
L 150.367832 275.558083 
L 156.611189 279.552336 
L 162.854545 281.556009 
L 169.097902 281.861074 
L 175.341259 280.879653 
L 181.584615 280.984156 
L 187.827972 281.931637 
L 194.071329 281.203974 
L 200.314685 282.256118 
L 206.558042 271.937088 
L 212.801399 273.560952 
L 219.044755 272.929141 
L 225.288112 270.019842 
L 231.531469 263.39556 
L 237.774825 263.763018 
L 244.018182 268.162598 
L 250.261538 273.2603 
L 256.504895 271.817693 
L 262.748252 272.289904 
L 268.991608 274.115842 
L 275.234965 273.871757 
L 281.478322 278.731666 
L 287.721678 276.163705 
L 293.965035 261.291814 
L 300.208392 258.90738 
L 306.451748 264.404681 
L 312.695105 252.615407 
L 318.938462 247.811039 
L 325.181818 254.576181 
L 331.425175 257.78353 
L 337.668531 260.615708 
L 343.911888 263.102427 
L 350.155245 258.883375 
L 356.398601 256.210333 
L 362.641958 254.276162 
L 368.885315 258.652418 
L 375.128671 265.633549 
L 381.372028 262.926962 
L 387.615385 263.993671 
L 393.858741 271.363855 
L 400.102098 270.726348 
L 406.345455 272.675056 
L 412.588811 271.250081 
L 418.832168 271.658378 
L 425.075524 272.643566 
L 431.318881 273.439822 
L 437.562238 273.894282 
L 443.805594 273.669203 
L 450.048951 276.280809 
L 456.292308 279.486152 
L 462.535664 276.519473 
L 468.779021 269.747808 
L 475.022378 269.82273 
L 481.265734 271.542831 
L 487.509091 276.060796 
" clip-path="url(#p4d56b8d857)" style="fill: none; stroke: #d62728; stroke-width: 1.5; stroke-linecap: square"/>
   </g>
   <g id="line2d_35">
    <path d="M 81.690909 233.615967 
L 87.934266 219.420722 
L 94.177622 221.968561 
L 100.420979 194.724081 
L 106.664336 219.88848 
L 112.907692 235.114383 
L 119.151049 249.27962 
L 125.394406 257.91283 
L 131.637762 262.984403 
L 137.881119 265.056672 
L 144.124476 262.186356 
L 150.367832 265.650737 
L 156.611189 265.918967 
L 162.854545 268.829368 
L 169.097902 268.390514 
L 175.341259 266.615072 
L 181.584615 267.005105 
L 187.827972 269.453121 
L 194.071329 268.108472 
L 200.314685 267.606008 
L 206.558042 267.770033 
L 212.801399 268.791437 
L 219.044755 264.272916 
L 225.288112 259.967511 
L 231.531469 262.927824 
L 237.774825 261.606482 
L 244.018182 266.040854 
L 250.261538 266.010382 
L 256.504895 267.066002 
L 262.748252 270.850208 
L 268.991608 269.657425 
L 275.234965 269.012921 
L 281.478322 269.70756 
L 287.721678 271.749453 
L 293.965035 270.255831 
L 300.208392 271.694267 
L 306.451748 273.70019 
L 312.695105 273.659052 
L 318.938462 273.387201 
L 325.181818 272.216137 
L 331.425175 271.691904 
L 337.668531 272.049892 
L 343.911888 271.022175 
L 350.155245 272.058324 
L 356.398601 273.158461 
L 362.641958 273.870155 
L 368.885315 272.944798 
L 375.128671 275.288549 
L 381.372028 277.976263 
L 387.615385 276.747566 
L 393.858741 273.799921 
L 400.102098 272.0073 
L 406.345455 272.280471 
L 412.588811 271.514722 
L 418.832168 270.146922 
" clip-path="url(#p4d56b8d857)" style="fill: none; stroke: #9467bd; stroke-width: 1.5; stroke-linecap: square"/>
   </g>
   <g id="line2d_36">
    <path d="M 81.690909 214.840399 
L 87.934266 213.746103 
L 94.177622 228.2048 
L 100.420979 201.910395 
L 106.664336 218.828022 
L 112.907692 233.506125 
L 119.151049 249.622359 
L 125.394406 256.909447 
L 131.637762 253.260076 
L 137.881119 254.843919 
L 144.124476 258.798364 
L 150.367832 261.046392 
L 156.611189 265.320119 
L 162.854545 265.782608 
L 169.097902 258.561377 
L 175.341259 228.870935 
L 181.584615 218.7294 
L 187.827972 173.662442 
L 194.071329 150.648814 
L 200.314685 130.008229 
L 206.558042 186.146781 
L 212.801399 212.471697 
L 219.044755 223.063235 
L 225.288112 245.535794 
L 231.531469 250.926519 
L 237.774825 260.079056 
L 244.018182 266.446208 
L 250.261538 251.173166 
L 256.504895 258.255105 
L 262.748252 264.084159 
L 268.991608 270.694355 
L 275.234965 270.29812 
L 281.478322 270.152812 
L 287.721678 271.46869 
L 293.965035 269.254111 
L 300.208392 266.67253 
L 306.451748 258.185611 
L 312.695105 246.733949 
L 318.938462 247.41111 
L 325.181818 231.71331 
L 331.425175 244.735057 
L 337.668531 245.746446 
L 343.911888 257.00205 
L 350.155245 263.589545 
L 356.398601 253.1318 
L 362.641958 256.289749 
L 368.885315 251.055672 
L 375.128671 251.873196 
L 381.372028 260.114777 
L 387.615385 249.553211 
L 393.858741 253.455597 
L 400.102098 247.759695 
L 406.345455 252.633364 
L 412.588811 248.610515 
L 418.832168 254.34999 
L 425.075524 246.733109 
L 431.318881 256.717651 
L 437.562238 266.139259 
L 443.805594 267.037749 
L 450.048951 268.271459 
L 456.292308 266.967596 
" clip-path="url(#p4d56b8d857)" style="fill: none; stroke: #8c564b; stroke-width: 1.5; stroke-linecap: square"/>
   </g>
   <g id="line2d_37">
    <path d="M 81.690909 288.762072 
L 87.934266 288.757077 
L 94.177622 288.75663 
L 100.420979 288.759688 
L 106.664336 288.727806 
L 112.907692 288.742906 
L 119.151049 288.745578 
L 125.394406 288.747181 
L 131.637762 288.754531 
L 137.881119 288.758941 
L 144.124476 288.755199 
L 150.367832 288.741433 
L 156.611189 288.705428 
L 162.854545 288.709037 
L 169.097902 288.725256 
L 175.341259 288.734988 
L 181.584615 288.744631 
L 187.827972 288.746613 
L 194.071329 288.751703 
L 200.314685 288.769372 
L 206.558042 288.761457 
L 212.801399 288.756708 
L 219.044755 288.753859 
L 225.288112 288.755759 
L 231.531469 288.757105 
L 237.774825 288.754097 
L 244.018182 288.727677 
L 250.261538 288.73644 
L 256.504895 288.741698 
L 262.748252 288.727329 
L 268.991608 288.739734 
L 275.234965 288.743675 
L 281.478322 288.746039 
L 287.721678 288.760499 
L 293.965035 288.756134 
L 300.208392 288.753652 
L 306.451748 288.739069 
L 312.695105 288.747223 
L 318.938462 288.753472 
L 325.181818 288.751917 
L 331.425175 288.734652 
L 337.668531 288.747014 
L 343.911888 288.724664 
L 350.155245 288.740486 
L 356.398601 288.731169 
L 362.641958 288.726686 
L 368.885315 288.735846 
L 375.128671 288.741341 
L 381.372028 288.744639 
L 387.615385 288.746617 
L 393.858741 288.757169 
L 400.102098 288.754135 
L 406.345455 288.758704 
L 412.588811 288.755056 
L 418.832168 288.759256 
L 425.075524 288.755388 
L 431.318881 288.732107 
L 437.562238 288.720682 
" clip-path="url(#p4d56b8d857)" style="fill: none; stroke: #e377c2; stroke-width: 1.5; stroke-linecap: square"/>
   </g>
   <g id="line2d_38">
    <path d="M 81.690909 292.552125 
L 87.934266 292.514824 
L 94.177622 291.853578 
L 100.420979 274.526343 
L 106.664336 271.502871 
L 112.907692 269.688788 
L 119.151049 268.605972 
L 125.394406 267.955714 
L 131.637762 267.560493 
L 137.881119 267.322519 
L 144.124476 267.189792 
L 150.367832 267.10531 
L 156.611189 267.04117 
L 162.854545 267.018754 
L 169.097902 266.983109 
L 175.341259 266.982928 
L 181.584615 266.976822 
L 187.827972 266.973158 
L 194.071329 266.97096 
L 200.314685 266.978505 
L 206.558042 266.974168 
L 212.801399 266.98084 
L 219.044755 266.975569 
L 225.288112 266.972407 
L 231.531469 266.970509 
L 237.774825 266.94678 
L 244.018182 266.955133 
L 250.261538 266.970017 
L 256.504895 266.955031 
L 262.748252 266.960084 
L 268.991608 266.963115 
L 275.234965 266.975622 
L 281.478322 266.952367 
L 287.721678 266.968357 
L 293.965035 266.968602 
L 300.208392 266.978099 
L 306.451748 266.983103 
L 312.695105 266.996083 
L 318.938462 266.984715 
L 325.181818 266.977894 
L 331.425175 266.973802 
L 337.668531 266.971346 
L 343.911888 261.960462 
L 350.155245 258.953931 
L 356.398601 257.150013 
L 362.641958 256.067662 
L 368.885315 255.418252 
L 375.128671 255.028605 
L 381.372028 268.430958 
L 387.615385 276.478245 
L 393.858741 281.306446 
L 400.102098 284.197663 
L 406.345455 285.934552 
L 412.588811 286.956483 
L 418.832168 287.587685 
L 425.075524 287.966406 
L 431.318881 288.193639 
" clip-path="url(#p4d56b8d857)" style="fill: none; stroke: #7f7f7f; stroke-width: 1.5; stroke-linecap: square"/>
   </g>
   <g id="line2d_39">
    <path d="M 81.690909 288.760467 
L 87.934266 290.723218 
L 94.177622 291.572232 
L 100.420979 283.577107 
L 106.664336 271.995231 
L 112.907692 265.037175 
L 119.151049 269.003484 
L 125.394406 268.13614 
L 131.637762 267.668749 
L 137.881119 267.388315 
L 144.124476 262.210643 
L 150.367832 259.264141 
L 156.611189 262.141854 
L 162.854545 264.009795 
L 169.097902 267.815011 
L 175.341259 268.402842 
L 181.584615 275.679449 
L 187.827972 278.858466 
L 194.071329 273.70889 
L 200.314685 270.688516 
L 206.558042 269.200175 
L 212.801399 268.266651 
L 219.044755 267.731674 
L 225.288112 267.411039 
L 231.531469 267.212772 
L 237.774825 267.124601 
L 244.018182 266.3694 
L 250.261538 260.685985 
L 256.504895 274.044971 
L 262.748252 281.545604 
L 268.991608 283.660033 
L 275.234965 281.991327 
L 281.478322 278.635074 
L 287.721678 277.514644 
L 293.965035 273.295852 
L 300.208392 270.76762 
L 306.451748 274.537854 
L 312.695105 282.479406 
L 318.938462 285.595114 
L 325.181818 287.468603 
L 331.425175 288.579594 
L 337.668531 288.64759 
L 343.911888 288.52935 
L 350.155245 288.617444 
L 356.398601 288.6703 
L 362.641958 288.702014 
L 368.885315 288.721043 
L 375.128671 288.732459 
L 381.372028 288.73931 
L 387.615385 288.732531 
L 393.858741 288.752868 
L 400.102098 288.751555 
L 406.345455 288.760026 
L 412.588811 288.748516 
L 418.832168 288.748944 
L 425.075524 288.7492 
L 431.318881 288.749354 
L 437.562238 288.749446 
L 443.805594 288.749502 
L 450.048951 288.755924 
L 456.292308 288.756785 
" clip-path="url(#p4d56b8d857)" style="fill: none; stroke: #bcbd22; stroke-width: 1.5; stroke-linecap: square"/>
   </g>
   <g id="patch_3">
    <path d="M 61.4 305.152125 
L 61.4 27.952125 
" style="fill: none; stroke: #000000; stroke-width: 0.8; stroke-linejoin: miter; stroke-linecap: square"/>
   </g>
   <g id="patch_4">
    <path d="M 507.8 305.152125 
L 507.8 27.952125 
" style="fill: none; stroke: #000000; stroke-width: 0.8; stroke-linejoin: miter; stroke-linecap: square"/>
   </g>
   <g id="patch_5">
    <path d="M 61.4 305.152125 
L 507.8 305.152125 
" style="fill: none; stroke: #000000; stroke-width: 0.8; stroke-linejoin: miter; stroke-linecap: square"/>
   </g>
   <g id="patch_6">
    <path d="M 61.4 27.952125 
L 507.8 27.952125 
" style="fill: none; stroke: #000000; stroke-width: 0.8; stroke-linejoin: miter; stroke-linecap: square"/>
   </g>
   <g id="text_19">
    <!-- ML10 Meta Testing -->
    <g transform="translate(197.604313 21.952125)scale(0.216 -0.216)">
     <defs>
      <path id="STIXGeneral-Regular-4d" d="M 5530 0 
L 3738 0 
L 3738 122 
Q 4115 147 4214 265 
Q 4314 384 4314 787 
L 4314 3661 
L 2682 0 
L 2592 0 
L 979 3514 
L 979 966 
Q 979 448 1088 294 
Q 1197 141 1574 122 
L 1574 0 
L 77 0 
L 77 122 
Q 358 141 480 205 
Q 602 269 650 432 
Q 698 595 698 966 
L 698 3514 
Q 698 3878 589 3984 
Q 480 4090 90 4115 
L 90 4237 
L 1357 4237 
L 2835 1024 
L 4250 4237 
L 5523 4237 
L 5523 4115 
Q 5178 4109 5072 3993 
Q 4966 3878 4966 3520 
L 4966 717 
Q 4966 378 5072 262 
Q 5178 147 5530 122 
L 5530 0 
z
" transform="scale(0.015625)"/>
      <path id="STIXGeneral-Regular-4c" d="M 3827 1114 
L 3520 0 
L 77 0 
L 77 122 
Q 429 141 531 256 
Q 634 371 634 736 
L 634 3494 
Q 634 3872 541 3981 
Q 448 4090 77 4115 
L 77 4237 
L 1888 4237 
L 1888 4115 
Q 1498 4090 1392 3984 
Q 1286 3878 1286 3507 
L 1286 538 
Q 1286 358 1398 304 
Q 1510 250 1862 250 
L 2310 250 
Q 3085 250 3392 640 
Q 3520 813 3661 1114 
L 3827 1114 
z
" transform="scale(0.015625)"/>
     </defs>
     <use xlink:href="#STIXGeneral-Regular-4d"/>
     <use xlink:href="#STIXGeneral-Regular-4c" x="88.899994"/>
     <use xlink:href="#STIXGeneral-Regular-31" x="149.999985"/>
     <use xlink:href="#STIXGeneral-Regular-30" x="199.999969"/>
     <use xlink:href="#STIXGeneral-Regular-20" x="249.999954"/>
     <use xlink:href="#STIXGeneral-Regular-4d" x="274.999939"/>
     <use xlink:href="#STIXGeneral-Regular-65" x="363.899933"/>
     <use xlink:href="#STIXGeneral-Regular-74" x="408.299927"/>
     <use xlink:href="#STIXGeneral-Regular-61" x="436.099915"/>
     <use xlink:href="#STIXGeneral-Regular-20" x="480.499908"/>
     <use xlink:href="#STIXGeneral-Regular-54" x="505.499893"/>
     <use xlink:href="#STIXGeneral-Regular-65" x="566.599884"/>
     <use xlink:href="#STIXGeneral-Regular-73" x="610.999878"/>
     <use xlink:href="#STIXGeneral-Regular-74" x="649.899872"/>
     <use xlink:href="#STIXGeneral-Regular-69" x="677.69986"/>
     <use xlink:href="#STIXGeneral-Regular-6e" x="705.499847"/>
     <use xlink:href="#STIXGeneral-Regular-67" x="755.499832"/>
    </g>
   </g>
   <g id="legend_1">
    <g id="patch_7">
     <path d="M 67 163.752125 
L 238.609375 163.752125 
Q 241.409375 163.752125 241.409375 160.952125 
L 241.409375 33.552125 
Q 241.409375 30.752125 238.609375 30.752125 
L 67 30.752125 
Q 64.2 30.752125 64.2 33.552125 
L 64.2 160.952125 
Q 64.2 163.752125 67 163.752125 
z
" style="fill: #ffffff; opacity: 0.8; stroke: #cccccc; stroke-linejoin: miter"/>
    </g>
    <g id="line2d_40">
     <path d="M 68.4 40.663687 
L 75.4 40.663687 
L 82.4 40.663687 
" style="fill: none; stroke: #1f77b4; stroke-width: 1.5; stroke-linecap: square"/>
    </g>
    <g id="text_20">
     <!-- pol-lr=0.001_val-lr=0.001 -->
     <g transform="translate(86.6 44.513687)scale(0.14 -0.14)">
      <defs>
       <path id="STIXGeneral-Regular-6c" d="M 1645 0 
L 134 0 
L 134 96 
Q 435 122 531 221 
Q 627 320 627 589 
L 627 3590 
Q 627 3821 569 3910 
Q 512 4000 358 4000 
Q 224 4000 122 3987 
L 122 4090 
Q 730 4237 1133 4371 
L 1165 4346 
L 1165 557 
Q 1165 288 1254 201 
Q 1344 115 1645 96 
L 1645 0 
z
" transform="scale(0.015625)"/>
       <path id="STIXGeneral-Regular-2d" d="M 1824 1242 
L 250 1242 
L 250 1645 
L 1824 1645 
L 1824 1242 
z
" transform="scale(0.015625)"/>
       <path id="STIXGeneral-Regular-3d" d="M 4077 2048 
L 307 2048 
L 307 2470 
L 4077 2470 
L 4077 2048 
z
M 4077 768 
L 307 768 
L 307 1190 
L 4077 1190 
L 4077 768 
z
" transform="scale(0.015625)"/>
       <path id="STIXGeneral-Regular-5f" d="M 3200 -800 
L 0 -800 
L 0 -480 
L 3200 -480 
L 3200 -800 
z
" transform="scale(0.015625)"/>
      </defs>
      <use xlink:href="#STIXGeneral-Regular-70"/>
      <use xlink:href="#STIXGeneral-Regular-6f" x="49.999985"/>
      <use xlink:href="#STIXGeneral-Regular-6c" x="99.999969"/>
      <use xlink:href="#STIXGeneral-Regular-2d" x="127.799957"/>
      <use xlink:href="#STIXGeneral-Regular-6c" x="161.099945"/>
      <use xlink:href="#STIXGeneral-Regular-72" x="188.899933"/>
      <use xlink:href="#STIXGeneral-Regular-3d" x="222.199921"/>
      <use xlink:href="#STIXGeneral-Regular-30" x="290.699905"/>
      <use xlink:href="#STIXGeneral-Regular-2e" x="340.69989"/>
      <use xlink:href="#STIXGeneral-Regular-30" x="365.699875"/>
      <use xlink:href="#STIXGeneral-Regular-30" x="415.69986"/>
      <use xlink:href="#STIXGeneral-Regular-31" x="465.699844"/>
      <use xlink:href="#STIXGeneral-Regular-5f" x="515.699829"/>
      <use xlink:href="#STIXGeneral-Regular-76" x="565.699814"/>
      <use xlink:href="#STIXGeneral-Regular-61" x="615.699799"/>
      <use xlink:href="#STIXGeneral-Regular-6c" x="660.099792"/>
      <use xlink:href="#STIXGeneral-Regular-2d" x="687.89978"/>
      <use xlink:href="#STIXGeneral-Regular-6c" x="721.199768"/>
      <use xlink:href="#STIXGeneral-Regular-72" x="748.999756"/>
      <use xlink:href="#STIXGeneral-Regular-3d" x="782.299744"/>
      <use xlink:href="#STIXGeneral-Regular-30" x="850.799728"/>
      <use xlink:href="#STIXGeneral-Regular-2e" x="900.799713"/>
      <use xlink:href="#STIXGeneral-Regular-30" x="925.799698"/>
      <use xlink:href="#STIXGeneral-Regular-30" x="975.799683"/>
      <use xlink:href="#STIXGeneral-Regular-31" x="1025.799667"/>
     </g>
    </g>
    <g id="line2d_41">
     <path d="M 68.4 54.663687 
L 75.4 54.663687 
L 82.4 54.663687 
" style="fill: none; stroke: #ff7f0e; stroke-width: 1.5; stroke-linecap: square"/>
    </g>
    <g id="text_21">
     <!-- pol-lr=0.001_val-lr=0.01 -->
     <g transform="translate(86.6 58.513687)scale(0.14 -0.14)">
      <use xlink:href="#STIXGeneral-Regular-70"/>
      <use xlink:href="#STIXGeneral-Regular-6f" x="49.999985"/>
      <use xlink:href="#STIXGeneral-Regular-6c" x="99.999969"/>
      <use xlink:href="#STIXGeneral-Regular-2d" x="127.799957"/>
      <use xlink:href="#STIXGeneral-Regular-6c" x="161.099945"/>
      <use xlink:href="#STIXGeneral-Regular-72" x="188.899933"/>
      <use xlink:href="#STIXGeneral-Regular-3d" x="222.199921"/>
      <use xlink:href="#STIXGeneral-Regular-30" x="290.699905"/>
      <use xlink:href="#STIXGeneral-Regular-2e" x="340.69989"/>
      <use xlink:href="#STIXGeneral-Regular-30" x="365.699875"/>
      <use xlink:href="#STIXGeneral-Regular-30" x="415.69986"/>
      <use xlink:href="#STIXGeneral-Regular-31" x="465.699844"/>
      <use xlink:href="#STIXGeneral-Regular-5f" x="515.699829"/>
      <use xlink:href="#STIXGeneral-Regular-76" x="565.699814"/>
      <use xlink:href="#STIXGeneral-Regular-61" x="615.699799"/>
      <use xlink:href="#STIXGeneral-Regular-6c" x="660.099792"/>
      <use xlink:href="#STIXGeneral-Regular-2d" x="687.89978"/>
      <use xlink:href="#STIXGeneral-Regular-6c" x="721.199768"/>
      <use xlink:href="#STIXGeneral-Regular-72" x="748.999756"/>
      <use xlink:href="#STIXGeneral-Regular-3d" x="782.299744"/>
      <use xlink:href="#STIXGeneral-Regular-30" x="850.799728"/>
      <use xlink:href="#STIXGeneral-Regular-2e" x="900.799713"/>
      <use xlink:href="#STIXGeneral-Regular-30" x="925.799698"/>
      <use xlink:href="#STIXGeneral-Regular-31" x="975.799683"/>
     </g>
    </g>
    <g id="line2d_42">
     <path d="M 68.4 68.663687 
L 75.4 68.663687 
L 82.4 68.663687 
" style="fill: none; stroke: #2ca02c; stroke-width: 1.5; stroke-linecap: square"/>
    </g>
    <g id="text_22">
     <!-- pol-lr=0.001_val-lr=0.1 -->
     <g transform="translate(86.6 72.513687)scale(0.14 -0.14)">
      <use xlink:href="#STIXGeneral-Regular-70"/>
      <use xlink:href="#STIXGeneral-Regular-6f" x="49.999985"/>
      <use xlink:href="#STIXGeneral-Regular-6c" x="99.999969"/>
      <use xlink:href="#STIXGeneral-Regular-2d" x="127.799957"/>
      <use xlink:href="#STIXGeneral-Regular-6c" x="161.099945"/>
      <use xlink:href="#STIXGeneral-Regular-72" x="188.899933"/>
      <use xlink:href="#STIXGeneral-Regular-3d" x="222.199921"/>
      <use xlink:href="#STIXGeneral-Regular-30" x="290.699905"/>
      <use xlink:href="#STIXGeneral-Regular-2e" x="340.69989"/>
      <use xlink:href="#STIXGeneral-Regular-30" x="365.699875"/>
      <use xlink:href="#STIXGeneral-Regular-30" x="415.69986"/>
      <use xlink:href="#STIXGeneral-Regular-31" x="465.699844"/>
      <use xlink:href="#STIXGeneral-Regular-5f" x="515.699829"/>
      <use xlink:href="#STIXGeneral-Regular-76" x="565.699814"/>
      <use xlink:href="#STIXGeneral-Regular-61" x="615.699799"/>
      <use xlink:href="#STIXGeneral-Regular-6c" x="660.099792"/>
      <use xlink:href="#STIXGeneral-Regular-2d" x="687.89978"/>
      <use xlink:href="#STIXGeneral-Regular-6c" x="721.199768"/>
      <use xlink:href="#STIXGeneral-Regular-72" x="748.999756"/>
      <use xlink:href="#STIXGeneral-Regular-3d" x="782.299744"/>
      <use xlink:href="#STIXGeneral-Regular-30" x="850.799728"/>
      <use xlink:href="#STIXGeneral-Regular-2e" x="900.799713"/>
      <use xlink:href="#STIXGeneral-Regular-31" x="925.799698"/>
     </g>
    </g>
    <g id="line2d_43">
     <path d="M 68.4 82.663687 
L 75.4 82.663687 
L 82.4 82.663687 
" style="fill: none; stroke: #d62728; stroke-width: 1.5; stroke-linecap: square"/>
    </g>
    <g id="text_23">
     <!-- pol-lr=0.01_val-lr=0.001 -->
     <g transform="translate(86.6 86.513687)scale(0.14 -0.14)">
      <use xlink:href="#STIXGeneral-Regular-70"/>
      <use xlink:href="#STIXGeneral-Regular-6f" x="49.999985"/>
      <use xlink:href="#STIXGeneral-Regular-6c" x="99.999969"/>
      <use xlink:href="#STIXGeneral-Regular-2d" x="127.799957"/>
      <use xlink:href="#STIXGeneral-Regular-6c" x="161.099945"/>
      <use xlink:href="#STIXGeneral-Regular-72" x="188.899933"/>
      <use xlink:href="#STIXGeneral-Regular-3d" x="222.199921"/>
      <use xlink:href="#STIXGeneral-Regular-30" x="290.699905"/>
      <use xlink:href="#STIXGeneral-Regular-2e" x="340.69989"/>
      <use xlink:href="#STIXGeneral-Regular-30" x="365.699875"/>
      <use xlink:href="#STIXGeneral-Regular-31" x="415.69986"/>
      <use xlink:href="#STIXGeneral-Regular-5f" x="465.699844"/>
      <use xlink:href="#STIXGeneral-Regular-76" x="515.699829"/>
      <use xlink:href="#STIXGeneral-Regular-61" x="565.699814"/>
      <use xlink:href="#STIXGeneral-Regular-6c" x="610.099808"/>
      <use xlink:href="#STIXGeneral-Regular-2d" x="637.899796"/>
      <use xlink:href="#STIXGeneral-Regular-6c" x="671.199783"/>
      <use xlink:href="#STIXGeneral-Regular-72" x="698.999771"/>
      <use xlink:href="#STIXGeneral-Regular-3d" x="732.299759"/>
      <use xlink:href="#STIXGeneral-Regular-30" x="800.799744"/>
      <use xlink:href="#STIXGeneral-Regular-2e" x="850.799728"/>
      <use xlink:href="#STIXGeneral-Regular-30" x="875.799713"/>
      <use xlink:href="#STIXGeneral-Regular-30" x="925.799698"/>
      <use xlink:href="#STIXGeneral-Regular-31" x="975.799683"/>
     </g>
    </g>
    <g id="line2d_44">
     <path d="M 68.4 96.663687 
L 75.4 96.663687 
L 82.4 96.663687 
" style="fill: none; stroke: #9467bd; stroke-width: 1.5; stroke-linecap: square"/>
    </g>
    <g id="text_24">
     <!-- pol-lr=0.01_val-lr=0.01 -->
     <g transform="translate(86.6 100.513687)scale(0.14 -0.14)">
      <use xlink:href="#STIXGeneral-Regular-70"/>
      <use xlink:href="#STIXGeneral-Regular-6f" x="49.999985"/>
      <use xlink:href="#STIXGeneral-Regular-6c" x="99.999969"/>
      <use xlink:href="#STIXGeneral-Regular-2d" x="127.799957"/>
      <use xlink:href="#STIXGeneral-Regular-6c" x="161.099945"/>
      <use xlink:href="#STIXGeneral-Regular-72" x="188.899933"/>
      <use xlink:href="#STIXGeneral-Regular-3d" x="222.199921"/>
      <use xlink:href="#STIXGeneral-Regular-30" x="290.699905"/>
      <use xlink:href="#STIXGeneral-Regular-2e" x="340.69989"/>
      <use xlink:href="#STIXGeneral-Regular-30" x="365.699875"/>
      <use xlink:href="#STIXGeneral-Regular-31" x="415.69986"/>
      <use xlink:href="#STIXGeneral-Regular-5f" x="465.699844"/>
      <use xlink:href="#STIXGeneral-Regular-76" x="515.699829"/>
      <use xlink:href="#STIXGeneral-Regular-61" x="565.699814"/>
      <use xlink:href="#STIXGeneral-Regular-6c" x="610.099808"/>
      <use xlink:href="#STIXGeneral-Regular-2d" x="637.899796"/>
      <use xlink:href="#STIXGeneral-Regular-6c" x="671.199783"/>
      <use xlink:href="#STIXGeneral-Regular-72" x="698.999771"/>
      <use xlink:href="#STIXGeneral-Regular-3d" x="732.299759"/>
      <use xlink:href="#STIXGeneral-Regular-30" x="800.799744"/>
      <use xlink:href="#STIXGeneral-Regular-2e" x="850.799728"/>
      <use xlink:href="#STIXGeneral-Regular-30" x="875.799713"/>
      <use xlink:href="#STIXGeneral-Regular-31" x="925.799698"/>
     </g>
    </g>
    <g id="line2d_45">
     <path d="M 68.4 110.663687 
L 75.4 110.663687 
L 82.4 110.663687 
" style="fill: none; stroke: #8c564b; stroke-width: 1.5; stroke-linecap: square"/>
    </g>
    <g id="text_25">
     <!-- pol-lr=0.01_val-lr=0.1 -->
     <g transform="translate(86.6 114.513687)scale(0.14 -0.14)">
      <use xlink:href="#STIXGeneral-Regular-70"/>
      <use xlink:href="#STIXGeneral-Regular-6f" x="49.999985"/>
      <use xlink:href="#STIXGeneral-Regular-6c" x="99.999969"/>
      <use xlink:href="#STIXGeneral-Regular-2d" x="127.799957"/>
      <use xlink:href="#STIXGeneral-Regular-6c" x="161.099945"/>
      <use xlink:href="#STIXGeneral-Regular-72" x="188.899933"/>
      <use xlink:href="#STIXGeneral-Regular-3d" x="222.199921"/>
      <use xlink:href="#STIXGeneral-Regular-30" x="290.699905"/>
      <use xlink:href="#STIXGeneral-Regular-2e" x="340.69989"/>
      <use xlink:href="#STIXGeneral-Regular-30" x="365.699875"/>
      <use xlink:href="#STIXGeneral-Regular-31" x="415.69986"/>
      <use xlink:href="#STIXGeneral-Regular-5f" x="465.699844"/>
      <use xlink:href="#STIXGeneral-Regular-76" x="515.699829"/>
      <use xlink:href="#STIXGeneral-Regular-61" x="565.699814"/>
      <use xlink:href="#STIXGeneral-Regular-6c" x="610.099808"/>
      <use xlink:href="#STIXGeneral-Regular-2d" x="637.899796"/>
      <use xlink:href="#STIXGeneral-Regular-6c" x="671.199783"/>
      <use xlink:href="#STIXGeneral-Regular-72" x="698.999771"/>
      <use xlink:href="#STIXGeneral-Regular-3d" x="732.299759"/>
      <use xlink:href="#STIXGeneral-Regular-30" x="800.799744"/>
      <use xlink:href="#STIXGeneral-Regular-2e" x="850.799728"/>
      <use xlink:href="#STIXGeneral-Regular-31" x="875.799713"/>
     </g>
    </g>
    <g id="line2d_46">
     <path d="M 68.4 124.663687 
L 75.4 124.663687 
L 82.4 124.663687 
" style="fill: none; stroke: #e377c2; stroke-width: 1.5; stroke-linecap: square"/>
    </g>
    <g id="text_26">
     <!-- pol-lr=0.1_val-lr=0.001 -->
     <g transform="translate(86.6 128.513687)scale(0.14 -0.14)">
      <use xlink:href="#STIXGeneral-Regular-70"/>
      <use xlink:href="#STIXGeneral-Regular-6f" x="49.999985"/>
      <use xlink:href="#STIXGeneral-Regular-6c" x="99.999969"/>
      <use xlink:href="#STIXGeneral-Regular-2d" x="127.799957"/>
      <use xlink:href="#STIXGeneral-Regular-6c" x="161.099945"/>
      <use xlink:href="#STIXGeneral-Regular-72" x="188.899933"/>
      <use xlink:href="#STIXGeneral-Regular-3d" x="222.199921"/>
      <use xlink:href="#STIXGeneral-Regular-30" x="290.699905"/>
      <use xlink:href="#STIXGeneral-Regular-2e" x="340.69989"/>
      <use xlink:href="#STIXGeneral-Regular-31" x="365.699875"/>
      <use xlink:href="#STIXGeneral-Regular-5f" x="415.69986"/>
      <use xlink:href="#STIXGeneral-Regular-76" x="465.699844"/>
      <use xlink:href="#STIXGeneral-Regular-61" x="515.699829"/>
      <use xlink:href="#STIXGeneral-Regular-6c" x="560.099823"/>
      <use xlink:href="#STIXGeneral-Regular-2d" x="587.899811"/>
      <use xlink:href="#STIXGeneral-Regular-6c" x="621.199799"/>
      <use xlink:href="#STIXGeneral-Regular-72" x="648.999786"/>
      <use xlink:href="#STIXGeneral-Regular-3d" x="682.299774"/>
      <use xlink:href="#STIXGeneral-Regular-30" x="750.799759"/>
      <use xlink:href="#STIXGeneral-Regular-2e" x="800.799744"/>
      <use xlink:href="#STIXGeneral-Regular-30" x="825.799728"/>
      <use xlink:href="#STIXGeneral-Regular-30" x="875.799713"/>
      <use xlink:href="#STIXGeneral-Regular-31" x="925.799698"/>
     </g>
    </g>
    <g id="line2d_47">
     <path d="M 68.4 138.663687 
L 75.4 138.663687 
L 82.4 138.663687 
" style="fill: none; stroke: #7f7f7f; stroke-width: 1.5; stroke-linecap: square"/>
    </g>
    <g id="text_27">
     <!-- pol-lr=0.1_val-lr=0.01 -->
     <g transform="translate(86.6 142.513687)scale(0.14 -0.14)">
      <use xlink:href="#STIXGeneral-Regular-70"/>
      <use xlink:href="#STIXGeneral-Regular-6f" x="49.999985"/>
      <use xlink:href="#STIXGeneral-Regular-6c" x="99.999969"/>
      <use xlink:href="#STIXGeneral-Regular-2d" x="127.799957"/>
      <use xlink:href="#STIXGeneral-Regular-6c" x="161.099945"/>
      <use xlink:href="#STIXGeneral-Regular-72" x="188.899933"/>
      <use xlink:href="#STIXGeneral-Regular-3d" x="222.199921"/>
      <use xlink:href="#STIXGeneral-Regular-30" x="290.699905"/>
      <use xlink:href="#STIXGeneral-Regular-2e" x="340.69989"/>
      <use xlink:href="#STIXGeneral-Regular-31" x="365.699875"/>
      <use xlink:href="#STIXGeneral-Regular-5f" x="415.69986"/>
      <use xlink:href="#STIXGeneral-Regular-76" x="465.699844"/>
      <use xlink:href="#STIXGeneral-Regular-61" x="515.699829"/>
      <use xlink:href="#STIXGeneral-Regular-6c" x="560.099823"/>
      <use xlink:href="#STIXGeneral-Regular-2d" x="587.899811"/>
      <use xlink:href="#STIXGeneral-Regular-6c" x="621.199799"/>
      <use xlink:href="#STIXGeneral-Regular-72" x="648.999786"/>
      <use xlink:href="#STIXGeneral-Regular-3d" x="682.299774"/>
      <use xlink:href="#STIXGeneral-Regular-30" x="750.799759"/>
      <use xlink:href="#STIXGeneral-Regular-2e" x="800.799744"/>
      <use xlink:href="#STIXGeneral-Regular-30" x="825.799728"/>
      <use xlink:href="#STIXGeneral-Regular-31" x="875.799713"/>
     </g>
    </g>
    <g id="line2d_48">
     <path d="M 68.4 152.663687 
L 75.4 152.663687 
L 82.4 152.663687 
" style="fill: none; stroke: #bcbd22; stroke-width: 1.5; stroke-linecap: square"/>
    </g>
    <g id="text_28">
     <!-- pol-lr=0.1_val-lr=0.1 -->
     <g transform="translate(86.6 156.513687)scale(0.14 -0.14)">
      <use xlink:href="#STIXGeneral-Regular-70"/>
      <use xlink:href="#STIXGeneral-Regular-6f" x="49.999985"/>
      <use xlink:href="#STIXGeneral-Regular-6c" x="99.999969"/>
      <use xlink:href="#STIXGeneral-Regular-2d" x="127.799957"/>
      <use xlink:href="#STIXGeneral-Regular-6c" x="161.099945"/>
      <use xlink:href="#STIXGeneral-Regular-72" x="188.899933"/>
      <use xlink:href="#STIXGeneral-Regular-3d" x="222.199921"/>
      <use xlink:href="#STIXGeneral-Regular-30" x="290.699905"/>
      <use xlink:href="#STIXGeneral-Regular-2e" x="340.69989"/>
      <use xlink:href="#STIXGeneral-Regular-31" x="365.699875"/>
      <use xlink:href="#STIXGeneral-Regular-5f" x="415.69986"/>
      <use xlink:href="#STIXGeneral-Regular-76" x="465.699844"/>
      <use xlink:href="#STIXGeneral-Regular-61" x="515.699829"/>
      <use xlink:href="#STIXGeneral-Regular-6c" x="560.099823"/>
      <use xlink:href="#STIXGeneral-Regular-2d" x="587.899811"/>
      <use xlink:href="#STIXGeneral-Regular-6c" x="621.199799"/>
      <use xlink:href="#STIXGeneral-Regular-72" x="648.999786"/>
      <use xlink:href="#STIXGeneral-Regular-3d" x="682.299774"/>
      <use xlink:href="#STIXGeneral-Regular-30" x="750.799759"/>
      <use xlink:href="#STIXGeneral-Regular-2e" x="800.799744"/>
      <use xlink:href="#STIXGeneral-Regular-31" x="825.799728"/>
     </g>
    </g>
   </g>
  </g>
 </g>
 <defs>
  <clipPath id="p4d56b8d857">
   <rect x="61.4" y="27.952125" width="446.4" height="277.2"/>
  </clipPath>
 </defs>
</svg>
