<?xml version="1.0" encoding="utf-8" standalone="no"?>
<!DOCTYPE svg PUBLIC "-//W3C//DTD SVG 1.1//EN"
  "http://www.w3.org/Graphics/SVG/1.1/DTD/svg11.dtd">
<svg xmlns:xlink="http://www.w3.org/1999/xlink" width="524pt" height="355.769pt" viewBox="0 0 524 355.769" xmlns="http://www.w3.org/2000/svg" version="1.1">
 <metadata>
  <rdf:RDF xmlns:dc="http://purl.org/dc/elements/1.1/" xmlns:cc="http://creativecommons.org/ns#" xmlns:rdf="http://www.w3.org/1999/02/22-rdf-syntax-ns#">
   <cc:Work>
    <dc:type rdf:resource="http://purl.org/dc/dcmitype/StillImage"/>
    <dc:date>2021-12-11T20:28:59.644569</dc:date>
    <dc:format>image/svg+xml</dc:format>
    <dc:creator>
     <cc:Agent>
      <dc:title>Matplotlib v3.5.0, https://matplotlib.org/</dc:title>
     </cc:Agent>
    </dc:creator>
   </cc:Work>
  </rdf:RDF>
 </metadata>
 <defs>
  <style type="text/css">*{stroke-linejoin: round; stroke-linecap: butt}</style>
 </defs>
 <g id="figure_1">
  <g id="patch_1">
   <path d="M 0 355.769 
L 524 355.769 
L 524 0 
L 0 0 
z
" style="fill: #ffffff"/>
  </g>
  <g id="axes_1">
   <g id="patch_2">
    <path d="M 70.4 305.152125 
L 516.8 305.152125 
L 516.8 27.952125 
L 70.4 27.952125 
z
" style="fill: #ffffff"/>
   </g>
   <g id="matplotlib.axis_1">
    <g id="xtick_1">
     <g id="line2d_1">
      <path d="M 89.874374 305.152125 
L 89.874374 27.952125 
" clip-path="url(#p3c3b1a7fa4)" style="fill: none; stroke: #b0b0b0; stroke-width: 0.8; stroke-linecap: square"/>
     </g>
     <g id="line2d_2">
      <defs>
       <path id="m7485308ed9" d="M 0 0 
L 0 3.5 
" style="stroke: #000000; stroke-width: 0.8"/>
      </defs>
      <g>
       <use xlink:href="#m7485308ed9" x="89.874374" y="305.152125" style="stroke: #000000; stroke-width: 0.8"/>
      </g>
     </g>
     <g id="text_1">
      <!-- 0.0 -->
      <g transform="translate(78.624374 324.445562)scale(0.18 -0.18)">
       <defs>
        <path id="STIXGeneral-Regular-30" d="M 3046 2112 
Q 3046 1683 2963 1302 
Q 2880 922 2717 602 
Q 2554 282 2266 96 
Q 1978 -90 1600 -90 
Q 1210 -90 915 108 
Q 621 307 461 640 
Q 301 973 227 1350 
Q 154 1728 154 2150 
Q 154 2746 301 3222 
Q 448 3699 790 4012 
Q 1133 4326 1626 4326 
Q 2253 4326 2649 3712 
Q 3046 3098 3046 2112 
z
M 2432 2080 
Q 2432 3091 2217 3625 
Q 2003 4160 1587 4160 
Q 1190 4160 979 3622 
Q 768 3085 768 2106 
Q 768 1120 979 598 
Q 1190 77 1600 77 
Q 2003 77 2217 598 
Q 2432 1120 2432 2080 
z
" transform="scale(0.015625)"/>
        <path id="STIXGeneral-Regular-2e" d="M 1158 275 
Q 1158 134 1052 32 
Q 947 -70 800 -70 
Q 653 -70 550 32 
Q 448 134 448 281 
Q 448 429 553 534 
Q 659 640 806 640 
Q 947 640 1052 531 
Q 1158 422 1158 275 
z
" transform="scale(0.015625)"/>
       </defs>
       <use xlink:href="#STIXGeneral-Regular-30"/>
       <use xlink:href="#STIXGeneral-Regular-2e" x="49.999985"/>
       <use xlink:href="#STIXGeneral-Regular-30" x="74.999969"/>
      </g>
     </g>
    </g>
    <g id="xtick_2">
     <g id="line2d_3">
      <path d="M 171.527931 305.152125 
L 171.527931 27.952125 
" clip-path="url(#p3c3b1a7fa4)" style="fill: none; stroke: #b0b0b0; stroke-width: 0.8; stroke-linecap: square"/>
     </g>
     <g id="line2d_4">
      <g>
       <use xlink:href="#m7485308ed9" x="171.527931" y="305.152125" style="stroke: #000000; stroke-width: 0.8"/>
      </g>
     </g>
     <g id="text_2">
      <!-- 0.2 -->
      <g transform="translate(160.277931 324.445562)scale(0.18 -0.18)">
       <defs>
        <path id="STIXGeneral-Regular-32" d="M 3034 877 
L 2688 0 
L 186 0 
L 186 77 
L 1325 1286 
Q 1773 1754 1965 2144 
Q 2157 2534 2157 2950 
Q 2157 3379 1920 3616 
Q 1683 3853 1267 3853 
Q 922 3853 720 3673 
Q 518 3494 326 3021 
L 192 3053 
Q 301 3648 630 3987 
Q 960 4326 1523 4326 
Q 2054 4326 2380 4006 
Q 2707 3686 2707 3200 
Q 2707 2477 1888 1613 
L 832 486 
L 2330 486 
Q 2541 486 2665 569 
Q 2790 653 2944 915 
L 3034 877 
z
" transform="scale(0.015625)"/>
       </defs>
       <use xlink:href="#STIXGeneral-Regular-30"/>
       <use xlink:href="#STIXGeneral-Regular-2e" x="49.999985"/>
       <use xlink:href="#STIXGeneral-Regular-32" x="74.999969"/>
      </g>
     </g>
    </g>
    <g id="xtick_3">
     <g id="line2d_5">
      <path d="M 253.181489 305.152125 
L 253.181489 27.952125 
" clip-path="url(#p3c3b1a7fa4)" style="fill: none; stroke: #b0b0b0; stroke-width: 0.8; stroke-linecap: square"/>
     </g>
     <g id="line2d_6">
      <g>
       <use xlink:href="#m7485308ed9" x="253.181489" y="305.152125" style="stroke: #000000; stroke-width: 0.8"/>
      </g>
     </g>
     <g id="text_3">
      <!-- 0.4 -->
      <g transform="translate(241.931489 324.445562)scale(0.18 -0.18)">
       <defs>
        <path id="STIXGeneral-Regular-34" d="M 3027 1069 
L 2368 1069 
L 2368 0 
L 1869 0 
L 1869 1069 
L 77 1069 
L 77 1478 
L 2086 4326 
L 2368 4326 
L 2368 1478 
L 3027 1478 
L 3027 1069 
z
M 1869 1478 
L 1869 3674 
L 333 1478 
L 1869 1478 
z
" transform="scale(0.015625)"/>
       </defs>
       <use xlink:href="#STIXGeneral-Regular-30"/>
       <use xlink:href="#STIXGeneral-Regular-2e" x="49.999985"/>
       <use xlink:href="#STIXGeneral-Regular-34" x="74.999969"/>
      </g>
     </g>
    </g>
    <g id="xtick_4">
     <g id="line2d_7">
      <path d="M 334.835047 305.152125 
L 334.835047 27.952125 
" clip-path="url(#p3c3b1a7fa4)" style="fill: none; stroke: #b0b0b0; stroke-width: 0.8; stroke-linecap: square"/>
     </g>
     <g id="line2d_8">
      <g>
       <use xlink:href="#m7485308ed9" x="334.835047" y="305.152125" style="stroke: #000000; stroke-width: 0.8"/>
      </g>
     </g>
     <g id="text_4">
      <!-- 0.6 -->
      <g transform="translate(323.585047 324.445562)scale(0.18 -0.18)">
       <defs>
        <path id="STIXGeneral-Regular-36" d="M 2854 4378 
L 2867 4275 
Q 2112 4154 1606 3664 
Q 1101 3174 973 2451 
Q 1344 2739 1786 2739 
Q 2349 2739 2672 2380 
Q 2995 2022 2995 1402 
Q 2995 774 2669 378 
Q 2291 -90 1651 -90 
Q 870 -90 518 557 
Q 218 1107 218 1786 
Q 218 2835 915 3552 
Q 1312 3962 1731 4131 
Q 2150 4301 2854 4378 
z
M 2419 1203 
Q 2419 2445 1555 2445 
Q 1235 2445 1024 2275 
Q 813 2106 813 1702 
Q 813 954 1046 522 
Q 1280 90 1722 90 
Q 2061 90 2240 394 
Q 2419 698 2419 1203 
z
" transform="scale(0.015625)"/>
       </defs>
       <use xlink:href="#STIXGeneral-Regular-30"/>
       <use xlink:href="#STIXGeneral-Regular-2e" x="49.999985"/>
       <use xlink:href="#STIXGeneral-Regular-36" x="74.999969"/>
      </g>
     </g>
    </g>
    <g id="xtick_5">
     <g id="line2d_9">
      <path d="M 416.488604 305.152125 
L 416.488604 27.952125 
" clip-path="url(#p3c3b1a7fa4)" style="fill: none; stroke: #b0b0b0; stroke-width: 0.8; stroke-linecap: square"/>
     </g>
     <g id="line2d_10">
      <g>
       <use xlink:href="#m7485308ed9" x="416.488604" y="305.152125" style="stroke: #000000; stroke-width: 0.8"/>
      </g>
     </g>
     <g id="text_5">
      <!-- 0.8 -->
      <g transform="translate(405.238604 324.445562)scale(0.18 -0.18)">
       <defs>
        <path id="STIXGeneral-Regular-38" d="M 2848 992 
Q 2848 499 2505 204 
Q 2163 -90 1587 -90 
Q 1050 -90 704 204 
Q 358 499 358 954 
Q 358 1293 524 1533 
Q 691 1773 1190 2125 
Q 710 2522 553 2765 
Q 397 3008 397 3328 
Q 397 3782 745 4054 
Q 1094 4326 1638 4326 
Q 2106 4326 2410 4060 
Q 2714 3795 2714 3411 
Q 2714 3059 2531 2848 
Q 2349 2637 1856 2374 
Q 2432 1990 2640 1689 
Q 2848 1389 2848 992 
z
M 2272 3411 
Q 2272 3744 2086 3945 
Q 1901 4147 1574 4147 
Q 1248 4147 1059 3977 
Q 870 3808 870 3513 
Q 870 3219 1059 2979 
Q 1248 2739 1670 2490 
Q 1997 2682 2134 2896 
Q 2272 3110 2272 3411 
z
M 1734 1741 
L 1357 1997 
Q 1075 1766 960 1545 
Q 845 1325 845 1011 
Q 845 576 1065 333 
Q 1286 90 1658 90 
Q 1971 90 2166 285 
Q 2362 480 2362 794 
Q 2362 1082 2214 1299 
Q 2067 1517 1734 1741 
z
" transform="scale(0.015625)"/>
       </defs>
       <use xlink:href="#STIXGeneral-Regular-30"/>
       <use xlink:href="#STIXGeneral-Regular-2e" x="49.999985"/>
       <use xlink:href="#STIXGeneral-Regular-38" x="74.999969"/>
      </g>
     </g>
    </g>
    <g id="xtick_6">
     <g id="line2d_11">
      <path d="M 498.142162 305.152125 
L 498.142162 27.952125 
" clip-path="url(#p3c3b1a7fa4)" style="fill: none; stroke: #b0b0b0; stroke-width: 0.8; stroke-linecap: square"/>
     </g>
     <g id="line2d_12">
      <g>
       <use xlink:href="#m7485308ed9" x="498.142162" y="305.152125" style="stroke: #000000; stroke-width: 0.8"/>
      </g>
     </g>
     <g id="text_6">
      <!-- 1.0 -->
      <g transform="translate(486.892162 324.445562)scale(0.18 -0.18)">
       <defs>
        <path id="STIXGeneral-Regular-31" d="M 2522 0 
L 755 0 
L 755 96 
Q 1107 115 1235 227 
Q 1363 339 1363 608 
L 1363 3482 
Q 1363 3795 1171 3795 
Q 1082 3795 883 3718 
L 710 3654 
L 710 3744 
L 1856 4326 
L 1914 4307 
L 1914 486 
Q 1914 275 2042 185 
Q 2170 96 2522 96 
L 2522 0 
z
" transform="scale(0.015625)"/>
       </defs>
       <use xlink:href="#STIXGeneral-Regular-31"/>
       <use xlink:href="#STIXGeneral-Regular-2e" x="49.999985"/>
       <use xlink:href="#STIXGeneral-Regular-30" x="74.999969"/>
      </g>
     </g>
    </g>
    <g id="text_7">
     <!-- Training Environment Steps -->
     <g transform="translate(191.604688 344.645562)scale(0.18 -0.18)">
      <defs>
       <path id="STIXGeneral-Regular-54" d="M 3795 3149 
L 3642 3149 
Q 3539 3674 3353 3821 
Q 3168 3968 2656 3968 
L 2278 3968 
L 2278 710 
Q 2278 346 2387 243 
Q 2496 141 2893 122 
L 2893 0 
L 1024 0 
L 1024 122 
Q 1427 147 1526 256 
Q 1626 365 1626 787 
L 1626 3968 
L 1242 3968 
Q 723 3968 540 3817 
Q 358 3667 262 3149 
L 109 3149 
L 154 4237 
L 3750 4237 
L 3795 3149 
z
" transform="scale(0.015625)"/>
       <path id="STIXGeneral-Regular-72" d="M 1024 2931 
L 1024 2342 
Q 1267 2688 1430 2816 
Q 1594 2944 1792 2944 
Q 1958 2944 2051 2854 
Q 2144 2765 2144 2605 
Q 2144 2470 2077 2393 
Q 2010 2317 1894 2317 
Q 1773 2317 1638 2445 
Q 1536 2541 1472 2541 
Q 1338 2541 1181 2355 
Q 1024 2170 1024 2016 
L 1024 576 
Q 1024 301 1133 205 
Q 1242 109 1568 96 
L 1568 0 
L 32 0 
L 32 96 
Q 339 154 412 224 
Q 486 294 486 538 
L 486 2138 
Q 486 2349 438 2435 
Q 390 2522 269 2522 
Q 166 2522 45 2496 
L 45 2598 
Q 448 2726 992 2944 
L 1024 2931 
z
" transform="scale(0.015625)"/>
       <path id="STIXGeneral-Regular-61" d="M 2829 422 
L 2829 243 
Q 2586 -64 2253 -64 
Q 1888 -64 1843 403 
L 1837 403 
Q 1427 -64 909 -64 
Q 608 -64 422 112 
Q 237 288 237 602 
Q 237 1050 685 1350 
Q 992 1555 1837 1869 
L 1837 2214 
Q 1837 2502 1699 2646 
Q 1562 2790 1338 2790 
Q 1146 2790 1018 2697 
Q 890 2605 890 2477 
Q 890 2419 909 2348 
Q 928 2278 928 2208 
Q 928 2112 841 2029 
Q 755 1946 634 1946 
Q 525 1946 441 2029 
Q 358 2112 358 2240 
Q 358 2547 685 2752 
Q 986 2944 1421 2944 
Q 1939 2944 2176 2656 
Q 2291 2522 2323 2384 
Q 2355 2246 2355 1946 
L 2355 723 
Q 2355 301 2554 301 
Q 2682 301 2829 422 
z
M 1837 813 
L 1837 1715 
Q 1248 1510 1018 1293 
Q 800 1094 800 800 
Q 800 557 921 432 
Q 1043 307 1242 307 
Q 1453 307 1613 410 
Q 1747 506 1792 589 
Q 1837 672 1837 813 
z
" transform="scale(0.015625)"/>
       <path id="STIXGeneral-Regular-69" d="M 1152 4045 
Q 1152 3904 1056 3811 
Q 960 3718 819 3718 
Q 685 3718 592 3811 
Q 499 3904 499 4045 
Q 499 4179 595 4275 
Q 691 4371 826 4371 
Q 966 4371 1059 4275 
Q 1152 4179 1152 4045 
z
M 1619 0 
L 102 0 
L 102 96 
Q 435 115 521 211 
Q 608 307 608 666 
L 608 2118 
Q 608 2342 563 2432 
Q 518 2522 397 2522 
Q 243 2522 128 2490 
L 128 2592 
L 1120 2944 
L 1146 2918 
L 1146 672 
Q 1146 314 1226 218 
Q 1306 122 1619 96 
L 1619 0 
z
" transform="scale(0.015625)"/>
       <path id="STIXGeneral-Regular-6e" d="M 3104 0 
L 1773 0 
L 1779 96 
Q 2016 115 2096 233 
Q 2176 352 2176 672 
L 2176 1946 
Q 2176 2592 1709 2592 
Q 1549 2592 1408 2515 
Q 1267 2438 1050 2227 
L 1050 461 
Q 1050 269 1136 192 
Q 1222 115 1466 96 
L 1466 0 
L 115 0 
L 115 96 
Q 358 115 435 214 
Q 512 314 512 602 
L 512 2157 
Q 512 2394 467 2483 
Q 422 2573 288 2573 
Q 160 2573 102 2547 
L 102 2656 
Q 550 2784 979 2944 
L 1030 2925 
L 1030 2426 
L 1037 2426 
Q 1491 2944 1958 2944 
Q 2323 2944 2518 2688 
Q 2714 2432 2714 1958 
L 2714 544 
Q 2714 288 2790 205 
Q 2867 122 3104 96 
L 3104 0 
z
" transform="scale(0.015625)"/>
       <path id="STIXGeneral-Regular-67" d="M 3008 2483 
L 2477 2483 
Q 2598 2208 2598 1946 
Q 2598 1453 2265 1203 
Q 1933 954 1600 954 
Q 1530 954 1357 973 
L 1235 986 
Q 1107 947 979 812 
Q 851 678 851 582 
Q 851 435 1350 410 
L 2176 371 
Q 2528 358 2739 172 
Q 2950 -13 2950 -314 
Q 2950 -685 2566 -986 
Q 2035 -1395 1286 -1395 
Q 826 -1395 502 -1212 
Q 179 -1030 179 -774 
Q 179 -595 320 -419 
Q 461 -243 806 6 
Q 602 102 534 172 
Q 467 243 467 346 
Q 467 531 762 787 
Q 909 915 1037 1043 
Q 717 1203 579 1401 
Q 442 1600 442 1901 
Q 442 2336 752 2640 
Q 1062 2944 1510 2944 
Q 1766 2944 2022 2848 
L 2163 2797 
Q 2349 2733 2515 2733 
L 3008 2733 
L 3008 2483 
z
M 973 2163 
L 973 2144 
Q 973 1683 1155 1398 
Q 1338 1114 1632 1114 
Q 1850 1114 1978 1270 
Q 2106 1427 2106 1690 
Q 2106 2112 1914 2464 
Q 1754 2765 1446 2765 
Q 1222 2765 1097 2605 
Q 973 2445 973 2163 
z
M 2771 -410 
Q 2771 -230 2595 -163 
Q 2419 -96 1978 -96 
Q 1344 -96 941 -13 
Q 749 -243 688 -348 
Q 627 -454 627 -563 
Q 627 -774 880 -902 
Q 1133 -1030 1555 -1030 
Q 2099 -1030 2435 -860 
Q 2771 -691 2771 -410 
z
" transform="scale(0.015625)"/>
       <path id="STIXGeneral-Regular-20" transform="scale(0.015625)"/>
       <path id="STIXGeneral-Regular-45" d="M 3821 1082 
L 3526 0 
L 77 0 
L 77 122 
Q 442 147 538 252 
Q 634 358 634 730 
L 634 3520 
Q 634 3878 534 3987 
Q 435 4096 77 4115 
L 77 4237 
L 3469 4237 
L 3494 3322 
L 3334 3322 
Q 3264 3750 3085 3872 
Q 2906 3994 2349 3994 
L 1510 3994 
Q 1370 3994 1328 3952 
Q 1286 3910 1286 3763 
L 1286 2355 
L 2253 2355 
Q 2656 2355 2787 2470 
Q 2918 2586 2976 2970 
L 3123 2970 
L 3123 1472 
L 2976 1472 
Q 2918 1875 2790 1984 
Q 2662 2093 2253 2093 
L 1286 2093 
L 1286 538 
Q 1286 346 1420 291 
Q 1555 237 1933 237 
L 2163 237 
Q 2848 237 3136 403 
Q 3424 570 3642 1082 
L 3821 1082 
z
" transform="scale(0.015625)"/>
       <path id="STIXGeneral-Regular-76" d="M 3053 2880 
L 3053 2784 
Q 2906 2771 2835 2688 
Q 2765 2605 2637 2285 
L 1818 230 
Q 1690 -90 1638 -90 
Q 1587 -90 1523 77 
Q 1510 96 1497 141 
Q 1485 186 1472 211 
L 704 2048 
Q 499 2534 403 2652 
Q 307 2771 122 2784 
L 122 2880 
L 1376 2880 
L 1376 2784 
Q 1210 2771 1146 2732 
Q 1082 2694 1082 2611 
Q 1082 2509 1139 2368 
L 1792 730 
L 2426 2387 
Q 2464 2483 2464 2579 
Q 2464 2758 2163 2784 
L 2163 2880 
L 3053 2880 
z
" transform="scale(0.015625)"/>
       <path id="STIXGeneral-Regular-6f" d="M 3008 1478 
Q 3008 806 2608 371 
Q 2208 -64 1568 -64 
Q 979 -64 582 368 
Q 186 800 186 1459 
Q 186 2125 582 2534 
Q 979 2944 1626 2944 
Q 2221 2944 2614 2537 
Q 3008 2131 3008 1478 
z
M 2432 1306 
Q 2432 2035 2112 2445 
Q 1856 2765 1504 2765 
Q 1171 2765 966 2493 
Q 762 2221 762 1747 
Q 762 928 1101 435 
Q 1318 115 1677 115 
Q 2029 115 2230 432 
Q 2432 749 2432 1306 
z
" transform="scale(0.015625)"/>
       <path id="STIXGeneral-Regular-6d" d="M 4960 0 
L 3565 0 
L 3565 96 
Q 3834 122 3907 208 
Q 3981 294 3981 576 
L 3981 1894 
Q 3981 2278 3869 2444 
Q 3757 2611 3488 2611 
Q 3264 2611 3107 2521 
Q 2950 2432 2803 2221 
L 2803 608 
Q 2803 301 2896 201 
Q 2989 102 3264 96 
L 3264 0 
L 1830 0 
L 1830 96 
Q 2112 115 2189 188 
Q 2266 262 2266 550 
L 2266 1901 
Q 2266 2611 1850 2611 
Q 1670 2611 1468 2531 
Q 1267 2451 1171 2336 
Q 1088 2240 1088 2227 
L 1088 448 
Q 1088 243 1177 176 
Q 1267 109 1523 96 
L 1523 0 
L 102 0 
L 102 96 
Q 371 102 460 195 
Q 550 288 550 563 
L 550 2150 
Q 550 2387 499 2480 
Q 448 2573 326 2573 
Q 230 2573 122 2547 
L 122 2656 
Q 557 2778 1011 2944 
L 1062 2925 
L 1062 2451 
L 1075 2451 
Q 1363 2752 1584 2848 
Q 1805 2944 2054 2944 
Q 2560 2944 2733 2406 
Q 3232 2944 3776 2944 
Q 4518 2944 4518 1792 
L 4518 493 
Q 4518 282 4582 202 
Q 4646 122 4794 109 
L 4960 96 
L 4960 0 
z
" transform="scale(0.015625)"/>
       <path id="STIXGeneral-Regular-65" d="M 2611 1050 
L 2714 1005 
Q 2330 -64 1376 -64 
Q 813 -64 486 329 
Q 160 723 160 1389 
Q 160 2074 525 2509 
Q 890 2944 1485 2944 
Q 2061 2944 2374 2502 
Q 2560 2246 2592 1773 
L 621 1773 
Q 646 1370 700 1158 
Q 755 947 915 730 
Q 1184 378 1626 378 
Q 1939 378 2153 531 
Q 2368 685 2611 1050 
z
M 634 1978 
L 1939 1978 
Q 1882 2381 1750 2547 
Q 1619 2714 1312 2714 
Q 1043 2714 864 2525 
Q 685 2336 634 1978 
z
" transform="scale(0.015625)"/>
       <path id="STIXGeneral-Regular-74" d="M 1702 493 
L 1786 422 
Q 1478 -64 1011 -64 
Q 448 -64 448 749 
L 448 2675 
L 109 2675 
Q 83 2694 83 2720 
Q 83 2771 192 2842 
Q 435 2982 813 3526 
Q 826 3546 874 3606 
Q 922 3667 941 3706 
Q 986 3706 986 3622 
L 986 2880 
L 1632 2880 
L 1632 2675 
L 986 2675 
L 986 845 
Q 986 538 1062 403 
Q 1139 269 1318 269 
Q 1510 269 1702 493 
z
" transform="scale(0.015625)"/>
       <path id="STIXGeneral-Regular-53" d="M 3002 2963 
L 2842 2963 
Q 2733 3360 2579 3565 
Q 2189 4064 1651 4064 
Q 1357 4064 1181 3894 
Q 1005 3725 1005 3456 
Q 1005 3328 1069 3206 
Q 1133 3085 1206 2998 
Q 1280 2912 1465 2784 
Q 1651 2656 1766 2589 
Q 1882 2522 2150 2362 
Q 2669 2061 2905 1763 
Q 3142 1466 3142 1107 
Q 3142 576 2771 243 
Q 2400 -90 1837 -90 
Q 1421 -90 1082 58 
Q 915 128 781 128 
Q 704 128 653 70 
Q 602 13 602 -83 
L 461 -83 
L 275 1274 
L 416 1274 
Q 845 141 1734 141 
Q 2074 141 2285 342 
Q 2496 544 2496 858 
Q 2496 1158 2310 1363 
Q 2003 1696 1235 2106 
Q 454 2522 454 3206 
Q 454 3718 768 4022 
Q 1082 4326 1568 4326 
Q 1907 4326 2240 4186 
Q 2413 4109 2522 4109 
Q 2688 4109 2726 4326 
L 2861 4326 
L 3002 2963 
z
" transform="scale(0.015625)"/>
       <path id="STIXGeneral-Regular-70" d="M 1018 2931 
L 1018 2438 
Q 1421 2944 1939 2944 
Q 2406 2944 2707 2560 
Q 3008 2176 3008 1581 
Q 3008 883 2621 409 
Q 2234 -64 1664 -64 
Q 1466 -64 1328 -6 
Q 1190 51 1018 211 
L 1018 -794 
Q 1018 -1094 1120 -1180 
Q 1222 -1267 1581 -1274 
L 1581 -1389 
L 32 -1389 
L 32 -1280 
Q 314 -1254 397 -1171 
Q 480 -1088 480 -838 
L 480 2157 
Q 480 2381 429 2451 
Q 378 2522 218 2522 
Q 115 2522 58 2515 
L 58 2618 
Q 506 2752 979 2944 
L 1018 2931 
z
M 1018 2138 
L 1018 563 
Q 1018 422 1238 281 
Q 1459 141 1683 141 
Q 2029 141 2243 467 
Q 2458 794 2458 1325 
Q 2458 1888 2243 2224 
Q 2029 2560 1670 2560 
Q 1446 2560 1232 2419 
Q 1018 2278 1018 2138 
z
" transform="scale(0.015625)"/>
       <path id="STIXGeneral-Regular-73" d="M 998 1926 
L 1664 1523 
Q 1984 1331 2105 1164 
Q 2227 998 2227 736 
Q 2227 416 1961 176 
Q 1696 -64 1331 -64 
Q 1030 -64 864 -6 
Q 691 51 570 51 
Q 461 51 416 -26 
L 333 -26 
L 333 979 
L 435 979 
Q 538 512 730 294 
Q 922 77 1248 77 
Q 1485 77 1632 211 
Q 1779 346 1779 550 
Q 1779 845 1440 1030 
L 1094 1222 
Q 326 1651 326 2150 
Q 326 2522 566 2730 
Q 806 2938 1210 2938 
Q 1491 2938 1638 2867 
Q 1754 2816 1818 2816 
Q 1862 2816 1920 2880 
L 1990 2880 
L 2022 2010 
L 1926 2010 
Q 1818 2445 1654 2621 
Q 1491 2797 1203 2797 
Q 986 2797 854 2688 
Q 723 2579 723 2362 
Q 723 2253 796 2128 
Q 870 2003 998 1926 
z
" transform="scale(0.015625)"/>
      </defs>
      <use xlink:href="#STIXGeneral-Regular-54"/>
      <use xlink:href="#STIXGeneral-Regular-72" x="61.099991"/>
      <use xlink:href="#STIXGeneral-Regular-61" x="94.399979"/>
      <use xlink:href="#STIXGeneral-Regular-69" x="138.799973"/>
      <use xlink:href="#STIXGeneral-Regular-6e" x="166.59996"/>
      <use xlink:href="#STIXGeneral-Regular-69" x="216.599945"/>
      <use xlink:href="#STIXGeneral-Regular-6e" x="244.399933"/>
      <use xlink:href="#STIXGeneral-Regular-67" x="294.399918"/>
      <use xlink:href="#STIXGeneral-Regular-20" x="344.399902"/>
      <use xlink:href="#STIXGeneral-Regular-45" x="369.399887"/>
      <use xlink:href="#STIXGeneral-Regular-6e" x="430.499878"/>
      <use xlink:href="#STIXGeneral-Regular-76" x="480.499863"/>
      <use xlink:href="#STIXGeneral-Regular-69" x="530.499847"/>
      <use xlink:href="#STIXGeneral-Regular-72" x="558.299835"/>
      <use xlink:href="#STIXGeneral-Regular-6f" x="591.599823"/>
      <use xlink:href="#STIXGeneral-Regular-6e" x="641.599808"/>
      <use xlink:href="#STIXGeneral-Regular-6d" x="691.599792"/>
      <use xlink:href="#STIXGeneral-Regular-65" x="769.39978"/>
      <use xlink:href="#STIXGeneral-Regular-6e" x="813.799774"/>
      <use xlink:href="#STIXGeneral-Regular-74" x="863.799759"/>
      <use xlink:href="#STIXGeneral-Regular-20" x="891.599747"/>
      <use xlink:href="#STIXGeneral-Regular-53" x="916.599731"/>
      <use xlink:href="#STIXGeneral-Regular-74" x="972.199722"/>
      <use xlink:href="#STIXGeneral-Regular-65" x="999.99971"/>
      <use xlink:href="#STIXGeneral-Regular-70" x="1044.399704"/>
      <use xlink:href="#STIXGeneral-Regular-73" x="1094.399689"/>
     </g>
    </g>
    <g id="text_8">
     <!-- 1e8 -->
     <g transform="translate(490.806875 343.645562)scale(0.18 -0.18)">
      <use xlink:href="#STIXGeneral-Regular-31"/>
      <use xlink:href="#STIXGeneral-Regular-65" x="49.999985"/>
      <use xlink:href="#STIXGeneral-Regular-38" x="94.399979"/>
     </g>
    </g>
   </g>
   <g id="matplotlib.axis_2">
    <g id="ytick_1">
     <g id="line2d_13">
      <path d="M 70.4 292.55323 
L 516.8 292.55323 
" clip-path="url(#p3c3b1a7fa4)" style="fill: none; stroke: #b0b0b0; stroke-width: 0.8; stroke-linecap: square"/>
     </g>
     <g id="line2d_14">
      <defs>
       <path id="m76c02fe9c4" d="M 0 0 
L -3.5 0 
" style="stroke: #000000; stroke-width: 0.8"/>
      </defs>
      <g>
       <use xlink:href="#m76c02fe9c4" x="70.4" y="292.55323" style="stroke: #000000; stroke-width: 0.8"/>
      </g>
     </g>
     <g id="text_9">
      <!-- 0 -->
      <g transform="translate(54.4 298.699949)scale(0.18 -0.18)">
       <use xlink:href="#STIXGeneral-Regular-30"/>
      </g>
     </g>
    </g>
    <g id="ytick_2">
     <g id="line2d_15">
      <path d="M 70.4 217.001126 
L 516.8 217.001126 
" clip-path="url(#p3c3b1a7fa4)" style="fill: none; stroke: #b0b0b0; stroke-width: 0.8; stroke-linecap: square"/>
     </g>
     <g id="line2d_16">
      <g>
       <use xlink:href="#m76c02fe9c4" x="70.4" y="217.001126" style="stroke: #000000; stroke-width: 0.8"/>
      </g>
     </g>
     <g id="text_10">
      <!-- 1000 -->
      <g transform="translate(27.4 223.147844)scale(0.18 -0.18)">
       <use xlink:href="#STIXGeneral-Regular-31"/>
       <use xlink:href="#STIXGeneral-Regular-30" x="49.999985"/>
       <use xlink:href="#STIXGeneral-Regular-30" x="99.999969"/>
       <use xlink:href="#STIXGeneral-Regular-30" x="149.999954"/>
      </g>
     </g>
    </g>
    <g id="ytick_3">
     <g id="line2d_17">
      <path d="M 70.4 141.449021 
L 516.8 141.449021 
" clip-path="url(#p3c3b1a7fa4)" style="fill: none; stroke: #b0b0b0; stroke-width: 0.8; stroke-linecap: square"/>
     </g>
     <g id="line2d_18">
      <g>
       <use xlink:href="#m76c02fe9c4" x="70.4" y="141.449021" style="stroke: #000000; stroke-width: 0.8"/>
      </g>
     </g>
     <g id="text_11">
      <!-- 2000 -->
      <g transform="translate(27.4 147.59574)scale(0.18 -0.18)">
       <use xlink:href="#STIXGeneral-Regular-32"/>
       <use xlink:href="#STIXGeneral-Regular-30" x="49.999985"/>
       <use xlink:href="#STIXGeneral-Regular-30" x="99.999969"/>
       <use xlink:href="#STIXGeneral-Regular-30" x="149.999954"/>
      </g>
     </g>
    </g>
    <g id="ytick_4">
     <g id="line2d_19">
      <path d="M 70.4 65.896916 
L 516.8 65.896916 
" clip-path="url(#p3c3b1a7fa4)" style="fill: none; stroke: #b0b0b0; stroke-width: 0.8; stroke-linecap: square"/>
     </g>
     <g id="line2d_20">
      <g>
       <use xlink:href="#m76c02fe9c4" x="70.4" y="65.896916" style="stroke: #000000; stroke-width: 0.8"/>
      </g>
     </g>
     <g id="text_12">
      <!-- 3000 -->
      <g transform="translate(27.4 72.043635)scale(0.18 -0.18)">
       <defs>
        <path id="STIXGeneral-Regular-33" d="M 390 3264 
L 288 3290 
Q 435 3770 748 4048 
Q 1062 4326 1542 4326 
Q 1990 4326 2265 4083 
Q 2541 3840 2541 3450 
Q 2541 2925 1946 2566 
Q 2298 2413 2477 2227 
Q 2758 1914 2758 1402 
Q 2758 890 2464 506 
Q 2246 211 1840 60 
Q 1434 -90 979 -90 
Q 262 -90 262 275 
Q 262 378 339 442 
Q 416 506 525 506 
Q 685 506 915 339 
Q 1197 141 1466 141 
Q 1818 141 2058 425 
Q 2298 710 2298 1120 
Q 2298 1856 1632 2048 
Q 1434 2112 979 2112 
L 979 2202 
Q 1338 2323 1517 2432 
Q 2035 2726 2035 3290 
Q 2035 3610 1852 3776 
Q 1670 3942 1344 3942 
Q 768 3942 390 3264 
z
" transform="scale(0.015625)"/>
       </defs>
       <use xlink:href="#STIXGeneral-Regular-33"/>
       <use xlink:href="#STIXGeneral-Regular-30" x="49.999985"/>
       <use xlink:href="#STIXGeneral-Regular-30" x="99.999969"/>
       <use xlink:href="#STIXGeneral-Regular-30" x="149.999954"/>
      </g>
     </g>
    </g>
    <g id="text_13">
     <!-- Average Test Return -->
     <g transform="translate(19.476562 241.533375)rotate(-90)scale(0.18 -0.18)">
      <defs>
       <path id="STIXGeneral-Regular-41" d="M 4525 0 
L 2893 0 
L 2893 122 
Q 3149 122 3245 179 
Q 3334 224 3334 333 
Q 3334 499 3213 781 
L 2950 1382 
L 1274 1382 
L 979 653 
Q 922 506 922 384 
Q 922 237 1027 179 
Q 1133 122 1370 122 
L 1370 0 
L 96 0 
L 96 122 
Q 365 147 486 316 
Q 608 486 902 1190 
L 2221 4314 
L 2349 4314 
L 3923 710 
Q 4064 378 4176 262 
Q 4288 147 4525 122 
L 4525 0 
z
M 2861 1645 
L 2118 3405 
L 1382 1645 
L 2861 1645 
z
" transform="scale(0.015625)"/>
       <path id="STIXGeneral-Regular-52" d="M 4224 0 
L 3187 0 
L 1664 1971 
L 1306 1958 
L 1306 717 
Q 1306 352 1405 249 
Q 1504 147 1875 122 
L 1875 0 
L 109 0 
L 109 122 
Q 474 154 563 262 
Q 653 371 653 794 
L 653 3526 
Q 653 3885 563 3987 
Q 474 4090 109 4115 
L 109 4237 
L 1850 4237 
Q 2726 4237 3187 3859 
Q 3501 3603 3501 3091 
Q 3501 2221 2342 2042 
L 3622 422 
Q 3757 256 3878 198 
Q 4000 141 4224 122 
L 4224 0 
z
M 1306 3731 
L 1306 2195 
Q 1766 2202 1990 2246 
Q 2214 2291 2438 2413 
Q 2803 2618 2803 3142 
Q 2803 4000 1632 4000 
Q 1459 4000 1382 3945 
Q 1306 3891 1306 3731 
z
" transform="scale(0.015625)"/>
       <path id="STIXGeneral-Regular-75" d="M 3072 320 
L 3072 230 
Q 2573 96 2195 -58 
L 2163 -38 
L 2163 486 
L 2150 486 
Q 1747 -64 1235 -64 
Q 870 -64 662 160 
Q 454 384 454 755 
L 454 2362 
Q 454 2598 371 2688 
Q 288 2778 58 2790 
L 58 2880 
L 992 2880 
L 992 813 
Q 992 595 1123 451 
Q 1254 307 1446 307 
Q 1760 307 1984 506 
Q 2067 582 2099 649 
Q 2131 717 2131 877 
L 2131 2355 
Q 2131 2605 2041 2678 
Q 1952 2752 1658 2771 
L 1658 2880 
L 2669 2880 
L 2669 685 
Q 2669 461 2742 390 
Q 2816 320 3034 320 
L 3072 320 
z
" transform="scale(0.015625)"/>
      </defs>
      <use xlink:href="#STIXGeneral-Regular-41"/>
      <use xlink:href="#STIXGeneral-Regular-76" x="72.199982"/>
      <use xlink:href="#STIXGeneral-Regular-65" x="122.199966"/>
      <use xlink:href="#STIXGeneral-Regular-72" x="166.59996"/>
      <use xlink:href="#STIXGeneral-Regular-61" x="199.899948"/>
      <use xlink:href="#STIXGeneral-Regular-67" x="244.299942"/>
      <use xlink:href="#STIXGeneral-Regular-65" x="294.299927"/>
      <use xlink:href="#STIXGeneral-Regular-20" x="338.699921"/>
      <use xlink:href="#STIXGeneral-Regular-54" x="363.699905"/>
      <use xlink:href="#STIXGeneral-Regular-65" x="424.799896"/>
      <use xlink:href="#STIXGeneral-Regular-73" x="469.19989"/>
      <use xlink:href="#STIXGeneral-Regular-74" x="508.099884"/>
      <use xlink:href="#STIXGeneral-Regular-20" x="535.899872"/>
      <use xlink:href="#STIXGeneral-Regular-52" x="560.899857"/>
      <use xlink:href="#STIXGeneral-Regular-65" x="627.599854"/>
      <use xlink:href="#STIXGeneral-Regular-74" x="671.999847"/>
      <use xlink:href="#STIXGeneral-Regular-75" x="699.799835"/>
      <use xlink:href="#STIXGeneral-Regular-72" x="749.79982"/>
      <use xlink:href="#STIXGeneral-Regular-6e" x="783.099808"/>
     </g>
    </g>
   </g>
   <g id="line2d_21">
    <path d="M 90.690909 221.86547 
L 92.32398 220.858849 
L 93.957051 217.441419 
L 94.773587 214.813927 
L 95.590123 214.6028 
L 96.406658 214.918196 
L 97.223194 215.895782 
L 98.039729 209.101212 
L 98.856265 208.17057 
L 99.6728 203.833044 
L 100.489336 200.150115 
L 101.305872 198.445085 
L 102.122407 195.403926 
L 102.938943 185.547964 
L 103.755478 183.933217 
L 104.572014 178.254186 
L 106.205085 171.86817 
L 107.021621 164.275821 
L 107.838156 163.848674 
L 108.654692 158.989606 
L 109.471227 156.513913 
L 110.287763 156.394508 
L 111.104299 155.549374 
L 111.920834 153.771594 
L 112.73737 153.623279 
L 113.553905 155.160398 
L 114.370441 159.620699 
L 115.186976 160.951794 
L 116.003512 159.352103 
L 116.820048 158.592476 
L 117.636583 162.166862 
L 118.453119 157.1152 
L 120.08619 151.677987 
L 120.902725 155.632345 
L 121.719261 153.888256 
L 122.535797 148.249105 
L 124.168868 135.401533 
L 124.985403 136.384167 
L 125.801939 136.278138 
L 126.618474 137.854624 
L 127.43501 135.971336 
L 128.251546 137.384972 
L 129.068081 137.571416 
L 129.884617 137.884023 
L 130.701152 136.214437 
L 131.517688 135.51499 
L 132.334224 134.462897 
L 133.150759 130.594145 
L 133.967295 130.383277 
L 135.600366 127.640636 
L 136.416901 128.873161 
L 137.233437 128.963947 
L 138.049973 130.114307 
L 138.866508 128.666857 
L 139.683044 128.507514 
L 141.316115 131.011332 
L 142.13265 131.618585 
L 142.949186 131.672074 
L 143.765722 131.053556 
L 145.398793 125.709531 
L 146.215328 129.360384 
L 147.848399 130.421991 
L 148.664935 132.563016 
L 149.481471 136.536407 
L 150.298006 137.153368 
L 151.114542 141.270855 
L 151.931077 143.014781 
L 153.564149 135.043676 
L 154.380684 132.150015 
L 155.19722 135.695689 
L 156.013755 135.486567 
L 156.830291 138.754243 
L 157.646826 140.689346 
L 158.463362 137.939037 
L 159.279898 133.867871 
L 161.729504 129.174094 
L 162.54604 130.211916 
L 163.362575 130.741837 
L 164.179111 127.212114 
L 164.995647 127.574654 
L 165.812182 126.775965 
L 166.628718 124.437639 
L 167.445253 125.461216 
L 168.261789 123.368723 
L 169.078324 123.210459 
L 169.89486 122.191818 
L 170.711396 119.146401 
L 172.344467 115.421411 
L 173.977538 113.815868 
L 174.794074 114.521184 
L 175.610609 113.819429 
L 176.427145 115.054192 
L 177.24368 117.407099 
L 178.060216 118.288163 
L 178.876751 117.68 
L 179.693287 119.244928 
L 180.509823 124.114638 
L 181.326358 126.028219 
L 182.142894 124.676516 
L 182.959429 123.589765 
L 183.775965 122.73171 
L 184.5925 122.379189 
L 185.409036 120.035432 
L 186.225572 119.648577 
L 187.042107 121.046221 
L 187.858643 119.2979 
L 188.675178 116.483785 
L 190.308249 121.378157 
L 191.124785 123.717319 
L 191.941321 124.795307 
L 192.757856 121.573566 
L 193.574392 121.360469 
L 194.390927 123.355691 
L 195.207463 122.253671 
L 196.023999 120.509586 
L 196.840534 119.831945 
L 197.65707 117.65998 
L 198.473605 115.921896 
L 199.290141 115.516495 
L 200.106676 116.076888 
L 201.739748 114.511385 
L 202.556283 114.125852 
L 203.372819 116.800144 
L 204.189354 116.178611 
L 205.00589 115.077241 
L 205.822425 114.999357 
L 206.638961 114.163307 
L 207.455497 113.838634 
L 208.272032 113.276399 
L 209.088568 113.877719 
L 209.905103 111.931679 
L 210.721639 111.515687 
L 211.538175 110.833526 
L 212.35471 112.336931 
L 213.987781 110.965406 
L 214.804317 111.054984 
L 215.620852 110.251156 
L 216.437388 109.939257 
L 217.253924 110.640851 
L 218.070459 112.970154 
L 218.886995 116.418895 
L 219.70353 118.040596 
L 220.520066 118.280031 
L 221.336601 116.248832 
L 222.153137 113.303917 
L 222.969673 112.977961 
L 223.786208 111.119039 
L 224.602744 109.760636 
L 225.419279 108.996591 
L 226.235815 109.106295 
L 227.05235 108.976929 
L 227.868886 109.507327 
L 228.685422 109.234194 
L 229.501957 109.194502 
L 230.318493 108.083313 
L 231.135028 107.495692 
L 231.951564 108.610049 
L 232.7681 107.702242 
L 233.584635 108.026969 
L 234.401171 107.495486 
L 235.217706 108.813237 
L 236.034242 109.061292 
L 236.850777 108.153848 
L 237.667313 108.12856 
L 238.483849 107.83363 
L 239.300384 108.209066 
L 240.11692 108.353699 
L 240.933455 108.00643 
L 241.749991 109.519071 
L 242.566526 108.605414 
L 244.199598 110.785855 
L 245.016133 110.680231 
L 245.832669 109.382156 
L 246.649204 109.48505 
L 247.46574 112.026319 
L 248.282275 113.505166 
L 249.098811 112.349919 
L 249.915347 112.605842 
L 250.731882 114.539482 
L 251.548418 119.875218 
L 252.364953 120.889176 
L 253.181489 118.272287 
L 253.998025 116.263996 
L 254.81456 116.196619 
L 255.631096 115.035454 
L 256.447631 116.329287 
L 257.264167 115.998941 
L 258.897238 120.913909 
L 259.713774 125.239374 
L 260.530309 127.370664 
L 261.346845 126.894106 
L 262.16338 127.394334 
L 262.979916 126.23222 
L 263.796451 128.347917 
L 264.612987 124.632468 
L 265.429523 123.74087 
L 266.246058 123.793608 
L 267.062594 126.999783 
L 267.879129 135.38227 
L 268.695665 133.991936 
L 269.5122 128.946393 
L 270.328736 125.244424 
L 271.145272 127.563047 
L 271.961807 130.687219 
L 272.778343 128.673504 
L 273.594878 124.970366 
L 274.411414 124.204927 
L 275.22795 126.98437 
L 276.044485 129.110941 
L 276.861021 128.911883 
L 277.677556 132.14728 
L 278.494092 134.676245 
L 279.310627 136.82133 
L 280.127163 138.473953 
L 280.943699 136.267227 
L 281.760234 126.832068 
L 282.57677 124.990876 
L 283.393305 121.440199 
L 284.209841 119.281748 
L 285.026376 119.708853 
L 285.842912 117.77586 
L 286.659448 115.066981 
L 288.292519 110.691607 
L 289.109054 111.284181 
L 289.92559 112.424139 
L 290.742125 111.971962 
L 291.558661 112.349305 
L 292.375197 112.116318 
L 293.191732 112.11871 
L 294.008268 112.609449 
L 294.824803 114.77723 
L 295.641339 113.770896 
L 296.457875 114.754413 
L 297.27441 114.524081 
L 298.090946 114.552496 
L 298.907481 112.449806 
L 299.724017 111.659316 
L 301.357088 112.463783 
L 302.173624 111.268788 
L 302.990159 111.373406 
L 303.806695 111.083826 
L 304.62323 112.26795 
L 305.439766 112.756682 
L 306.256301 115.784273 
L 307.889373 118.459056 
L 308.705908 122.139967 
L 309.522444 125.298891 
L 310.338979 129.135544 
L 311.155515 129.880896 
L 312.788586 139.489461 
L 313.605122 140.625771 
L 314.421657 140.892154 
L 316.054728 132.847556 
L 316.871264 125.927307 
L 317.6878 126.783369 
L 318.504335 125.430191 
L 319.320871 126.949686 
L 320.953942 131.241572 
L 322.587013 141.710766 
L 323.403549 140.04045 
L 324.220084 137.424928 
L 325.03662 135.510812 
L 325.853155 132.176208 
L 326.669691 124.608887 
L 327.486226 121.39295 
L 328.302762 121.386927 
L 329.119298 117.806194 
L 329.935833 116.565051 
L 330.752369 112.495113 
L 332.38544 112.197323 
L 333.201975 110.883864 
L 334.018511 110.747087 
L 335.651582 107.646588 
L 336.468118 107.067849 
L 337.284653 107.108511 
L 338.101189 106.739056 
L 338.917725 108.464642 
L 339.73426 108.946 
L 340.550796 109.714348 
L 341.367331 113.97239 
L 342.183867 115.838266 
L 343.000402 116.63083 
L 343.816938 113.855009 
L 344.633474 114.527086 
L 346.266545 112.810699 
L 347.08308 111.635605 
L 347.899616 111.036675 
L 348.716151 113.989628 
L 349.532687 115.512845 
L 350.349223 115.678271 
L 351.165758 114.83145 
L 351.982294 115.784398 
L 352.798829 115.918717 
L 353.615365 116.601822 
L 354.4319 115.514647 
L 355.248436 116.155197 
L 356.064972 120.734713 
L 356.881507 120.856773 
L 357.698043 120.215348 
L 358.514578 118.831759 
L 359.331114 118.224123 
L 360.14765 120.146992 
L 360.964185 117.13082 
L 361.780721 116.027145 
L 362.597256 113.426587 
L 363.413792 111.665654 
L 364.230327 112.474967 
L 365.046863 110.754993 
L 365.863399 111.063365 
L 366.679934 110.723316 
L 367.49647 112.13256 
L 368.313005 110.235949 
L 369.946076 109.166021 
L 370.762612 109.641005 
L 371.579148 109.97709 
L 372.395683 110.581823 
L 373.212219 109.40537 
L 374.84529 108.000115 
L 375.661825 107.662477 
L 376.478361 108.502285 
L 377.294897 109.072993 
L 378.111432 111.991878 
L 378.927968 113.696689 
L 379.744503 114.911053 
L 380.561039 114.229113 
L 381.377575 114.042259 
L 382.19411 114.007964 
L 383.010646 114.182295 
L 383.827181 113.837167 
L 384.643717 112.237659 
L 386.276788 111.656645 
L 387.093324 112.228126 
L 387.909859 111.843752 
L 388.726395 111.675215 
L 389.54293 111.915965 
L 390.359466 112.921776 
L 391.176001 112.352353 
L 391.992537 111.084655 
L 392.809073 112.458494 
L 393.625608 111.016042 
L 394.442144 109.875152 
L 395.258679 111.011565 
L 396.075215 111.394479 
L 396.891751 111.962287 
L 397.708286 111.059903 
L 398.524822 110.553696 
L 399.341357 109.446803 
L 400.157893 109.872425 
L 400.974428 109.987577 
L 401.790964 109.958635 
L 402.6075 109.445687 
L 405.057106 107.282709 
L 405.873642 109.124732 
L 406.690177 110.511148 
L 407.506713 109.963132 
L 408.323249 108.81498 
L 409.139784 108.981112 
L 409.95632 108.851714 
L 410.772855 108.214289 
L 411.589391 107.140562 
L 412.405926 106.542122 
L 413.222462 106.76385 
L 415.672069 105.322328 
L 416.488604 105.651313 
L 417.30514 105.404437 
L 418.121676 104.989312 
L 420.571282 107.552753 
L 421.387818 106.543649 
L 422.204353 106.724179 
L 423.020889 106.568625 
L 423.837425 105.986182 
L 425.470496 105.639616 
L 426.287031 105.995838 
L 427.103567 105.291435 
L 427.920102 106.394408 
L 429.553174 105.612287 
L 430.369709 105.361248 
L 431.186245 105.569837 
L 432.00278 106.177771 
L 432.819316 106.062931 
L 433.635851 106.673789 
L 434.452387 106.110954 
L 435.268923 105.800537 
L 436.085458 107.04777 
L 436.901994 106.899467 
L 437.718529 106.130996 
L 438.535065 106.640721 
L 439.351601 106.300741 
L 440.168136 106.43068 
L 440.984672 106.084503 
L 441.801207 106.261589 
L 442.617743 105.566074 
L 443.434278 106.218963 
L 445.06735 107.085731 
L 446.700421 106.316331 
L 447.516956 105.393674 
L 448.333492 105.136231 
L 449.150027 105.016973 
L 449.966563 105.256296 
L 450.783099 105.681949 
L 452.41617 105.326723 
L 455.682312 104.108634 
L 457.315383 104.10136 
L 458.131919 104.191839 
L 458.948454 104.723004 
L 459.76499 105.087101 
L 460.581526 104.879177 
L 462.214597 104.795861 
L 463.031132 105.097606 
L 463.847668 105.047061 
L 465.480739 104.500687 
L 466.297275 104.592485 
L 467.930346 104.4317 
L 468.746881 106.610611 
L 469.563417 106.99192 
L 470.379952 109.047465 
L 471.196488 108.163968 
L 472.013024 108.223546 
L 472.829559 108.431808 
L 473.646095 110.581812 
L 474.46263 109.935475 
L 475.279166 113.84675 
L 476.095701 112.96969 
L 476.912237 113.157488 
L 477.728773 109.848018 
L 478.545308 108.112676 
L 479.361844 107.384584 
L 480.178379 108.245233 
L 481.811451 106.346883 
L 482.627986 106.195371 
L 483.444522 106.449931 
L 484.261057 106.325433 
L 485.077593 105.950717 
L 485.894128 106.865846 
L 486.710664 106.791139 
L 487.5272 106.155681 
L 488.343735 105.741779 
L 489.160271 105.625559 
L 490.793342 104.750895 
L 491.609877 104.645189 
L 492.426413 105.32208 
L 493.242949 106.55441 
L 494.87602 107.518708 
L 495.692555 108.376152 
L 496.509091 109.582724 
L 496.509091 109.582724 
" clip-path="url(#p3c3b1a7fa4)" style="fill: none; stroke: #1f77b4; stroke-width: 1.5; stroke-linecap: square"/>
   </g>
   <g id="line2d_22">
    <path d="M 90.690909 288.886341 
L 92.32398 288.681389 
L 93.140516 287.959088 
L 93.957051 287.563868 
L 94.773587 286.89858 
L 95.590123 286.935854 
L 96.406658 286.737194 
L 97.223194 287.761576 
L 98.039729 288.375178 
L 98.856265 288.740009 
L 99.6728 288.278291 
L 100.489336 287.681743 
L 101.305872 287.64595 
L 102.122407 285.093897 
L 103.755478 288.374204 
L 104.572014 289.189102 
L 105.388549 289.75673 
L 107.021621 290.03284 
L 108.654692 286.685407 
L 109.471227 284.201484 
L 110.287763 282.185516 
L 111.104299 241.529635 
L 111.920834 237.2946 
L 112.73737 222.442928 
L 113.553905 202.933252 
L 114.370441 160.469251 
L 115.186976 151.34507 
L 116.003512 111.788299 
L 116.820048 108.141224 
L 117.636583 89.467968 
L 118.453119 76.456326 
L 119.269654 59.03327 
L 120.902725 49.606122 
L 121.719261 51.974673 
L 122.535797 65.359893 
L 123.352332 81.798218 
L 124.168868 93.778893 
L 125.801939 68.561575 
L 126.618474 60.668251 
L 127.43501 61.993926 
L 128.251546 69.581546 
L 129.068081 87.416835 
L 129.884617 81.738961 
L 131.517688 59.027077 
L 132.334224 55.781082 
L 133.150759 49.61286 
L 133.967295 50.443149 
L 134.78383 48.843756 
L 135.600366 46.128979 
L 136.416901 40.552125 
L 137.233437 43.146193 
L 138.049973 49.638459 
L 138.866508 47.034737 
L 139.683044 42.62067 
L 140.499579 45.51861 
L 142.13265 50.221633 
L 143.765722 53.021446 
L 145.398793 47.378999 
L 146.215328 45.605884 
L 147.848399 41.625884 
L 148.664935 43.013583 
L 149.481471 43.337147 
L 150.298006 44.184318 
L 151.114542 44.607609 
L 151.931077 49.886891 
L 152.747613 52.955327 
L 153.564149 58.408215 
L 154.380684 65.965146 
L 155.19722 67.071601 
L 156.013755 69.689757 
L 156.830291 74.96173 
L 157.646826 77.80378 
L 158.463362 81.409965 
L 160.096433 87.257466 
L 161.729504 91.379528 
L 162.54604 89.731677 
L 163.362575 86.031 
L 164.179111 84.108811 
L 164.995647 80.219006 
L 165.812182 78.974092 
L 166.628718 80.15519 
L 167.445253 83.243445 
L 168.261789 81.903731 
L 169.89486 86.428335 
L 170.711396 86.315957 
L 171.527931 84.673578 
L 172.344467 82.331046 
L 173.161002 88.451542 
L 173.977538 93.326439 
L 174.794074 97.274813 
L 175.610609 98.302581 
L 176.427145 90.34151 
L 177.24368 89.967497 
L 178.060216 93.050884 
L 178.876751 94.592201 
L 179.693287 98.366227 
L 180.509823 102.943083 
L 181.326358 104.977465 
L 182.142894 101.688903 
L 182.959429 94.994187 
L 183.775965 100.528102 
L 184.5925 101.308373 
L 185.409036 97.559209 
L 186.225572 95.674758 
L 187.042107 96.935526 
L 187.858643 103.032207 
L 188.675178 103.306278 
L 189.491714 105.732031 
L 190.308249 106.963777 
L 191.124785 104.895364 
L 191.941321 105.96573 
L 192.757856 106.069427 
L 193.574392 105.76389 
L 194.390927 108.070755 
L 195.207463 107.075956 
L 196.023999 108.90514 
L 196.840534 105.851963 
L 197.65707 111.107899 
L 198.473605 107.885313 
L 199.290141 106.466505 
L 200.106676 108.903367 
L 200.923212 112.46356 
L 201.739748 109.05255 
L 202.556283 103.698924 
L 203.372819 107.155594 
L 204.189354 113.025551 
L 205.00589 107.108145 
L 205.822425 106.701569 
L 206.638961 101.837045 
L 207.455497 101.765161 
L 208.272032 96.06579 
L 209.088568 99.294111 
L 210.721639 93.560986 
L 211.538175 99.001538 
L 212.35471 106.74799 
L 213.171246 110.411161 
L 213.987781 116.705374 
L 214.804317 120.809691 
L 215.620852 123.715626 
L 216.437388 122.85466 
L 217.253924 126.212097 
L 218.070459 130.250462 
L 218.886995 133.684267 
L 219.70353 133.688629 
L 220.520066 128.212657 
L 221.336601 127.851655 
L 222.153137 127.225509 
L 222.969673 125.716576 
L 223.786208 126.075711 
L 224.602744 125.707817 
L 225.419279 128.572662 
L 226.235815 129.533812 
L 227.05235 123.884248 
L 227.868886 119.72275 
L 228.685422 120.969391 
L 229.501957 116.611618 
L 230.318493 118.594041 
L 231.135028 119.202393 
L 231.951564 122.331129 
L 232.7681 118.199631 
L 234.401171 113.30463 
L 235.217706 106.508864 
L 236.034242 106.283492 
L 236.850777 106.313052 
L 237.667313 106.824688 
L 238.483849 108.899862 
L 239.300384 110.352653 
L 240.11692 110.769466 
L 240.933455 111.054297 
L 241.749991 108.585912 
L 242.566526 109.608215 
L 243.383062 106.869349 
L 244.199598 107.795081 
L 245.016133 108.058339 
L 245.832669 110.648806 
L 246.649204 109.829997 
L 247.46574 112.526384 
L 248.282275 110.210098 
L 249.098811 106.848417 
L 249.915347 106.201195 
L 250.731882 105.191786 
L 251.548418 101.778908 
L 252.364953 106.954028 
L 253.181489 106.628991 
L 253.998025 109.811701 
L 254.81456 108.117181 
L 255.631096 108.98061 
L 256.447631 108.807602 
L 257.264167 109.957564 
L 258.080702 108.408203 
L 258.897238 110.587216 
L 259.713774 109.976715 
L 260.530309 108.679323 
L 261.346845 108.44926 
L 262.16338 103.282935 
L 263.796451 107.649776 
L 264.612987 106.917698 
L 265.429523 107.99094 
L 266.246058 98.554441 
L 267.062594 90.602184 
L 267.879129 88.30947 
L 268.695665 89.807183 
L 269.5122 92.959477 
L 270.328736 91.769183 
L 271.145272 93.500246 
L 271.961807 94.680397 
L 272.778343 95.594883 
L 273.594878 97.646331 
L 274.411414 96.932877 
L 275.22795 100.064275 
L 276.044485 99.115363 
L 276.861021 97.861228 
L 277.677556 100.266368 
L 278.494092 105.333725 
L 279.310627 102.920111 
L 280.127163 105.596504 
L 280.943699 106.800498 
L 281.760234 108.272439 
L 282.57677 111.286549 
L 283.393305 111.997325 
L 284.209841 107.782501 
L 285.026376 108.32072 
L 285.842912 108.659057 
L 288.292519 107.368812 
L 289.109054 109.593103 
L 289.92559 111.186083 
L 291.558661 115.404842 
L 292.375197 115.646265 
L 293.191732 115.055238 
L 294.008268 105.034269 
L 294.824803 103.683363 
L 295.641339 100.116163 
L 296.457875 104.345963 
L 297.27441 101.217251 
L 298.090946 102.245128 
L 298.907481 98.983278 
L 299.724017 93.570339 
L 300.540552 80.190551 
L 302.173624 68.77365 
L 302.990159 70.133626 
L 303.806695 76.679345 
L 304.62323 84.636958 
L 305.439766 80.716939 
L 306.256301 82.879247 
L 307.072837 86.198661 
L 307.889373 86.910462 
L 308.705908 85.200812 
L 309.522444 89.97701 
L 310.338979 88.516634 
L 311.97205 92.553258 
L 312.788586 94.790446 
L 313.605122 98.788748 
L 314.421657 104.696999 
L 315.238193 107.550433 
L 316.054728 104.743312 
L 316.871264 105.206247 
L 317.6878 104.261126 
L 318.504335 106.764214 
L 319.320871 104.423533 
L 320.137406 102.508285 
L 320.953942 103.020383 
L 321.770477 102.19537 
L 322.587013 103.657251 
L 325.03662 106.880989 
L 326.669691 112.543315 
L 327.486226 113.944112 
L 328.302762 112.992678 
L 329.119298 115.159799 
L 329.935833 111.87518 
L 330.752369 110.883472 
L 331.568904 107.773876 
L 332.38544 108.201405 
L 334.018511 117.964112 
L 334.835047 124.098814 
L 335.651582 125.588255 
L 336.468118 123.564406 
L 337.284653 127.52048 
L 338.101189 129.017587 
L 338.917725 129.748456 
L 339.73426 127.934639 
L 340.550796 130.953344 
L 341.367331 133.123926 
L 342.183867 131.83683 
L 343.000402 128.660311 
L 343.816938 128.543517 
L 344.633474 128.744505 
L 345.450009 127.585184 
L 346.266545 130.449276 
L 347.08308 133.781938 
L 347.899616 135.26501 
L 348.716151 133.17903 
L 349.532687 129.871547 
L 350.349223 123.973104 
L 351.165758 123.069943 
L 351.982294 121.726767 
L 352.798829 121.789267 
L 353.615365 117.60024 
L 354.4319 119.918956 
L 355.248436 115.163785 
L 356.064972 116.209046 
L 356.881507 113.364525 
L 358.514578 118.293289 
L 359.331114 116.205627 
L 360.14765 118.194642 
L 360.964185 118.546893 
L 361.780721 119.26459 
L 363.413792 117.970273 
L 364.230327 115.320921 
L 365.046863 114.690084 
L 365.863399 112.545699 
L 366.679934 116.701711 
L 367.49647 117.613535 
L 368.313005 113.376536 
L 369.946076 115.80845 
L 370.762612 114.967365 
L 371.579148 110.53585 
L 372.395683 112.000801 
L 373.212219 103.560856 
L 374.028754 107.297875 
L 374.84529 105.49779 
L 375.661825 111.129334 
L 376.478361 110.51013 
L 377.294897 112.374146 
L 378.111432 110.388928 
L 378.927968 108.943059 
L 379.744503 108.456199 
L 381.377575 113.747296 
L 382.19411 115.553191 
L 383.010646 116.857776 
L 383.827181 120.856037 
L 384.643717 118.091103 
L 385.460252 121.329077 
L 386.276788 125.265567 
L 387.093324 128.393141 
L 387.909859 130.691324 
L 388.726395 128.507045 
L 389.54293 129.718087 
L 391.176001 135.844308 
L 391.992537 137.506349 
L 392.809073 140.015656 
L 393.625608 140.694325 
L 394.442144 142.967626 
L 395.258679 143.207895 
L 396.075215 144.895868 
L 396.891751 144.580075 
L 397.708286 139.695693 
L 398.524822 140.917736 
L 399.341357 143.643575 
L 400.157893 137.644198 
L 400.974428 137.390365 
L 401.790964 136.170781 
L 402.6075 134.292911 
L 403.424035 133.224772 
L 404.240571 135.054183 
L 405.057106 133.141699 
L 405.873642 136.259833 
L 406.690177 137.78991 
L 407.506713 137.489671 
L 408.323249 136.620188 
L 409.139784 137.57379 
L 409.95632 141.396676 
L 410.772855 142.015527 
L 411.589391 140.313121 
L 413.222462 134.380874 
L 414.038998 134.567963 
L 414.855533 135.763017 
L 415.672069 135.732622 
L 416.488604 139.40612 
L 417.30514 139.791165 
L 418.121676 141.830669 
L 418.938211 137.701807 
L 419.754747 136.819252 
L 420.571282 131.982976 
L 421.387818 128.350007 
L 422.204353 122.504134 
L 423.837425 136.169782 
L 424.65396 126.788866 
L 425.470496 123.336025 
L 426.287031 119.231623 
L 427.103567 120.662438 
L 428.736638 127.11912 
L 429.553174 128.509881 
L 430.369709 127.42958 
L 432.00278 132.796354 
L 432.819316 139.081136 
L 433.635851 139.475524 
L 434.452387 137.841589 
L 435.268923 138.301112 
L 436.085458 141.483386 
L 436.901994 140.947976 
L 437.718529 135.682059 
L 438.535065 132.094252 
L 439.351601 134.395535 
L 440.168136 130.30203 
L 440.984672 134.838743 
L 441.801207 133.643583 
L 442.617743 137.17451 
L 443.434278 137.252942 
L 444.250814 139.957499 
L 445.06735 140.514554 
L 445.883885 131.622709 
L 446.700421 139.03302 
L 447.516956 139.612024 
L 448.333492 142.771322 
L 449.150027 143.980513 
L 449.966563 142.609701 
L 450.783099 140.772358 
L 451.599634 137.812477 
L 452.41617 137.976784 
L 453.232705 133.753419 
L 454.049241 128.775725 
L 454.865776 132.695246 
L 455.682312 132.407707 
L 456.498848 130.081123 
L 457.315383 123.907232 
L 458.131919 127.127366 
L 458.948454 131.581521 
L 459.76499 129.884831 
L 460.581526 132.964632 
L 461.398061 131.881638 
L 462.214597 132.607583 
L 463.847668 130.404253 
L 464.664203 128.355247 
L 465.480739 128.632119 
L 466.297275 127.154076 
L 467.11381 125.43257 
L 467.930346 126.125146 
L 468.746881 127.512451 
L 470.379952 136.858479 
L 471.196488 137.150209 
L 472.013024 138.32446 
L 472.829559 130.919938 
L 473.646095 131.473706 
L 474.46263 126.529825 
L 475.279166 129.789595 
L 476.095701 125.473872 
L 476.912237 124.094409 
L 477.728773 122.991526 
L 478.545308 125.691644 
L 479.361844 117.053192 
L 480.178379 113.200531 
L 480.994915 115.476999 
L 481.811451 119.202503 
L 482.627986 129.152174 
L 483.444522 135.83902 
L 484.261057 139.390101 
L 485.077593 141.456638 
L 485.894128 137.198583 
L 486.710664 130.657868 
L 487.5272 133.241936 
L 488.343735 132.715136 
L 489.160271 133.974591 
L 489.976806 129.124253 
L 490.793342 128.133435 
L 491.609877 131.496687 
L 492.426413 130.917505 
L 493.242949 126.684943 
L 494.059484 123.988325 
L 494.87602 115.474786 
L 495.692555 109.167103 
L 496.509091 116.246451 
L 496.509091 116.246451 
" clip-path="url(#p3c3b1a7fa4)" style="fill: none; stroke: #ff7f0e; stroke-width: 1.5; stroke-linecap: square"/>
   </g>
   <g id="line2d_23">
    <path d="M 90.690909 292.552125 
L 111.104299 292.496356 
L 112.73737 292.119209 
L 115.186976 292.388064 
L 116.003512 292.19758 
L 116.820048 291.852487 
L 118.453119 291.730102 
L 119.269654 291.76635 
L 120.08619 291.687047 
L 120.902725 291.797603 
L 121.719261 291.703479 
L 122.535797 291.833234 
L 123.352332 291.730601 
L 125.801939 292.024874 
L 126.618474 291.830648 
L 127.43501 291.88022 
L 128.251546 292.140071 
L 131.517688 292.213663 
L 133.967295 290.901176 
L 134.78383 290.305374 
L 135.600366 289.927572 
L 136.416901 290.038998 
L 137.233437 289.52757 
L 141.316115 289.274982 
L 142.949186 288.527811 
L 143.765722 288.581567 
L 145.398793 288.914498 
L 146.215328 289.374648 
L 147.031864 289.38588 
L 147.848399 289.136328 
L 149.481471 289.847889 
L 150.298006 289.935447 
L 151.114542 290.318931 
L 151.931077 290.441065 
L 152.747613 290.980914 
L 153.564149 291.086559 
L 154.380684 290.737225 
L 155.19722 290.612105 
L 156.013755 290.708577 
L 156.830291 290.930808 
L 157.646826 290.718432 
L 158.463362 290.986361 
L 159.279898 289.841304 
L 160.096433 289.210114 
L 161.729504 289.061403 
L 162.54604 288.569638 
L 163.362575 288.510634 
L 164.179111 289.050413 
L 164.995647 290.130824 
L 165.812182 290.703163 
L 166.628718 290.698925 
L 167.445253 290.413056 
L 169.078324 291.101387 
L 170.711396 289.919432 
L 171.527931 289.921258 
L 172.344467 290.132749 
L 173.161002 289.111981 
L 173.977538 288.696582 
L 174.794074 288.606603 
L 175.610609 288.211769 
L 176.427145 288.397805 
L 177.24368 289.052327 
L 178.060216 289.18499 
L 179.693287 288.164465 
L 180.509823 288.044474 
L 181.326358 287.602265 
L 183.775965 287.37169 
L 184.5925 286.899076 
L 185.409036 286.588752 
L 186.225572 286.402235 
L 187.042107 286.497289 
L 187.858643 286.398548 
L 188.675178 286.08242 
L 189.491714 285.338614 
L 190.308249 285.864006 
L 191.124785 286.552355 
L 192.757856 286.590206 
L 194.390927 285.76742 
L 195.207463 285.978803 
L 196.840534 284.666594 
L 199.290141 284.486374 
L 200.106676 283.983358 
L 200.923212 283.64186 
L 201.739748 283.944347 
L 203.372819 282.818255 
L 204.189354 282.827732 
L 205.00589 282.471386 
L 205.822425 282.255896 
L 206.638961 280.519104 
L 207.455497 279.104205 
L 208.272032 279.374591 
L 209.088568 279.87581 
L 209.905103 279.634212 
L 210.721639 278.444241 
L 211.538175 278.620926 
L 212.35471 279.212187 
L 213.987781 281.471377 
L 214.804317 281.809327 
L 215.620852 280.923971 
L 216.437388 279.810871 
L 217.253924 280.06991 
L 218.070459 279.514798 
L 218.886995 278.75623 
L 219.70353 279.324664 
L 220.520066 278.627964 
L 221.336601 278.182182 
L 222.153137 277.516738 
L 222.969673 278.070398 
L 223.786208 278.332799 
L 224.602744 278.347801 
L 225.419279 277.052173 
L 227.05235 275.606811 
L 227.868886 275.454358 
L 228.685422 275.450632 
L 229.501957 274.882642 
L 230.318493 275.041251 
L 231.135028 275.540028 
L 231.951564 275.508199 
L 232.7681 276.137311 
L 233.584635 277.039213 
L 234.401171 276.710021 
L 235.217706 275.705284 
L 236.034242 275.213094 
L 237.667313 276.346128 
L 238.483849 275.638106 
L 239.300384 275.439719 
L 240.11692 274.969529 
L 240.933455 273.137152 
L 241.749991 272.599076 
L 242.566526 270.660705 
L 243.383062 270.652035 
L 245.016133 269.674944 
L 245.832669 269.423038 
L 246.649204 269.416452 
L 247.46574 268.862346 
L 248.282275 268.854044 
L 249.098811 267.988544 
L 249.915347 267.997724 
L 250.731882 268.385481 
L 251.548418 267.533161 
L 253.181489 269.865591 
L 253.998025 270.847306 
L 254.81456 269.960866 
L 255.631096 270.479379 
L 256.447631 270.573815 
L 257.264167 271.375541 
L 258.080702 271.741926 
L 258.897238 272.92309 
L 259.713774 273.109559 
L 260.530309 271.930112 
L 261.346845 271.297352 
L 262.16338 271.18081 
L 262.979916 271.492217 
L 263.796451 271.345196 
L 264.612987 271.651847 
L 265.429523 270.228866 
L 266.246058 271.086725 
L 267.062594 272.303787 
L 267.879129 270.603378 
L 268.695665 272.173322 
L 269.5122 272.197184 
L 270.328736 270.489612 
L 271.145272 271.474487 
L 271.961807 270.681971 
L 272.778343 271.038208 
L 273.594878 270.865674 
L 274.411414 270.320057 
L 275.22795 268.996029 
L 276.861021 268.347785 
L 277.677556 268.97544 
L 278.494092 267.882431 
L 280.127163 269.956151 
L 280.943699 268.956957 
L 281.760234 269.900853 
L 282.57677 268.163107 
L 283.393305 269.266215 
L 284.209841 269.094418 
L 285.026376 268.794033 
L 285.842912 269.570474 
L 286.659448 269.995989 
L 287.475983 270.816046 
L 288.292519 273.842317 
L 289.92559 271.836458 
L 290.742125 273.160711 
L 291.558661 272.906119 
L 292.375197 272.529358 
L 293.191732 271.914693 
L 294.008268 271.508069 
L 294.824803 272.559553 
L 295.641339 273.148209 
L 296.457875 274.360782 
L 297.27441 273.443831 
L 298.090946 274.300482 
L 298.907481 273.972845 
L 300.540552 272.755532 
L 301.357088 273.159638 
L 302.173624 273.395067 
L 302.990159 273.119646 
L 303.806695 272.303313 
L 304.62323 273.890719 
L 305.439766 273.218662 
L 306.256301 271.648762 
L 307.072837 272.232701 
L 307.889373 272.040008 
L 308.705908 273.118016 
L 309.522444 272.219521 
L 310.338979 274.303078 
L 311.155515 274.242254 
L 311.97205 272.914322 
L 312.788586 273.652512 
L 314.421657 274.547579 
L 315.238193 274.324841 
L 316.054728 274.639811 
L 316.871264 274.075436 
L 317.6878 274.323534 
L 318.504335 275.136727 
L 319.320871 275.630213 
L 320.137406 274.132181 
L 320.953942 272.06336 
L 321.770477 271.764962 
L 322.587013 272.022789 
L 323.403549 272.675958 
L 324.220084 271.312471 
L 325.03662 271.874552 
L 325.853155 272.042976 
L 326.669691 271.764337 
L 327.486226 273.050667 
L 329.119298 273.27883 
L 329.935833 272.173927 
L 330.752369 270.621866 
L 331.568904 269.374488 
L 332.38544 269.746277 
L 333.201975 269.817428 
L 334.835047 270.699574 
L 335.651582 270.459572 
L 336.468118 269.871552 
L 337.284653 270.553156 
L 338.101189 270.957071 
L 338.917725 271.485161 
L 339.73426 270.940174 
L 340.550796 271.870954 
L 341.367331 273.68757 
L 342.183867 274.326796 
L 343.000402 274.044781 
L 344.633474 275.552369 
L 345.450009 275.353362 
L 346.266545 274.424128 
L 347.08308 274.086623 
L 347.899616 274.072394 
L 348.716151 272.253917 
L 349.532687 272.439327 
L 350.349223 273.565282 
L 351.165758 275.588708 
L 351.982294 275.784041 
L 352.798829 274.561819 
L 353.615365 274.54221 
L 354.4319 273.673173 
L 355.248436 273.398112 
L 356.064972 273.793361 
L 356.881507 274.522314 
L 357.698043 274.818577 
L 358.514578 275.645244 
L 359.331114 274.879896 
L 360.14765 273.794286 
L 360.964185 273.318159 
L 361.780721 271.42104 
L 362.597256 272.678023 
L 363.413792 272.947097 
L 364.230327 273.445295 
L 365.046863 272.626139 
L 365.863399 274.239867 
L 366.679934 273.948124 
L 367.49647 274.758463 
L 368.313005 273.782686 
L 369.129541 273.785318 
L 369.946076 275.093807 
L 370.762612 274.593526 
L 371.579148 274.48339 
L 372.395683 275.735851 
L 373.212219 276.405821 
L 374.028754 278.850729 
L 374.84529 279.04428 
L 375.661825 280.049381 
L 376.478361 279.087702 
L 377.294897 277.402606 
L 378.111432 276.088629 
L 379.744503 277.087691 
L 380.561039 277.254547 
L 381.377575 275.988458 
L 382.19411 275.864047 
L 383.010646 273.586239 
L 383.827181 274.401021 
L 384.643717 274.799621 
L 385.460252 273.933211 
L 386.276788 273.633413 
L 387.093324 273.489416 
L 387.909859 273.769067 
L 388.726395 272.99866 
L 390.359466 270.75982 
L 391.176001 273.77639 
L 391.992537 273.610967 
L 392.809073 272.19994 
L 394.442144 273.491493 
L 395.258679 273.000469 
L 396.075215 272.857417 
L 396.891751 272.34988 
L 397.708286 273.06518 
L 398.524822 271.731706 
L 399.341357 271.664191 
L 400.157893 271.297677 
L 400.974428 271.574341 
L 401.790964 270.066395 
L 402.6075 270.945323 
L 403.424035 271.499911 
L 405.057106 273.583662 
L 405.873642 273.960093 
L 406.690177 272.924008 
L 407.506713 273.55956 
L 408.323249 273.948737 
L 411.589391 275.016744 
L 412.405926 275.400733 
L 413.222462 273.840764 
L 414.038998 274.825897 
L 415.672069 281.119109 
L 416.488604 281.761306 
L 417.30514 282.259115 
L 418.121676 279.857265 
L 419.754747 281.467351 
L 420.571282 279.961934 
L 421.387818 279.169312 
L 422.204353 276.77067 
L 423.020889 275.695639 
L 423.837425 277.790403 
L 424.65396 277.919432 
L 425.470496 277.914421 
L 426.287031 278.636286 
L 427.103567 276.832611 
L 427.920102 276.954189 
L 429.553174 276.074043 
L 430.369709 277.469342 
L 431.186245 277.644478 
L 432.00278 276.946532 
L 432.819316 277.163298 
L 433.635851 276.863512 
L 434.452387 277.063133 
L 435.268923 276.122869 
L 436.085458 276.702653 
L 436.901994 273.015676 
L 437.718529 272.449218 
L 438.535065 273.591916 
L 439.351601 275.236707 
L 440.168136 274.408298 
L 440.984672 274.849736 
L 441.801207 273.355118 
L 442.617743 273.395058 
L 443.434278 273.609279 
L 444.250814 272.366167 
L 445.06735 272.779321 
L 445.883885 273.479979 
L 446.700421 274.828997 
L 447.516956 275.508087 
L 448.333492 275.726486 
L 449.150027 276.265503 
L 449.966563 275.790317 
L 450.783099 273.201498 
L 451.599634 273.31346 
L 452.41617 272.788156 
L 453.232705 273.88209 
L 454.049241 276.160053 
L 454.865776 276.409001 
L 455.682312 278.504732 
L 456.498848 279.429176 
L 457.315383 280.559342 
L 458.131919 279.053596 
L 458.948454 279.184699 
L 459.76499 280.55809 
L 460.581526 280.60277 
L 461.398061 282.169549 
L 462.214597 280.519896 
L 463.031132 280.974695 
L 463.847668 280.690668 
L 464.664203 282.360811 
L 465.480739 283.767443 
L 466.297275 283.530512 
L 467.11381 281.381308 
L 468.746881 278.953594 
L 469.563417 280.785758 
L 470.379952 282.292629 
L 471.196488 284.130855 
L 472.013024 284.784428 
L 472.829559 285.731011 
L 473.646095 284.972231 
L 474.46263 283.542245 
L 475.279166 283.087244 
L 476.095701 282.865319 
L 476.912237 283.566064 
L 477.728773 284.115154 
L 478.545308 283.544404 
L 479.361844 283.188515 
L 480.178379 280.481381 
L 480.994915 278.327965 
L 481.811451 277.136802 
L 482.627986 276.616235 
L 483.444522 277.904361 
L 485.077593 279.842756 
L 485.894128 280.320035 
L 486.710664 280.364298 
L 488.343735 280.816991 
L 489.160271 281.441876 
L 489.976806 281.183893 
L 490.793342 279.313985 
L 491.609877 278.568858 
L 492.426413 276.904387 
L 494.059484 280.850275 
L 494.87602 280.988364 
L 495.692555 279.380182 
L 496.509091 279.14584 
L 496.509091 279.14584 
" clip-path="url(#p3c3b1a7fa4)" style="fill: none; stroke: #2ca02c; stroke-width: 1.5; stroke-linecap: square"/>
   </g>
   <g id="line2d_24">
    <path d="M 90.690909 289.899603 
L 91.507445 289.421055 
L 92.32398 289.150133 
L 93.140516 288.424512 
L 93.957051 288.504144 
L 94.773587 286.565908 
L 95.590123 282.56259 
L 96.406658 281.784116 
L 97.223194 280.54901 
L 98.039729 276.83104 
L 98.856265 277.315517 
L 99.6728 278.676789 
L 100.489336 277.178532 
L 101.305872 273.274868 
L 102.122407 276.833003 
L 102.938943 274.218695 
L 103.755478 271.981185 
L 104.572014 271.404537 
L 105.388549 269.628976 
L 106.205085 269.96174 
L 107.021621 258.0436 
L 107.838156 263.537184 
L 108.654692 263.158855 
L 109.471227 265.108894 
L 110.287763 265.422774 
L 111.104299 266.329491 
L 111.920834 266.582672 
L 112.73737 261.346856 
L 113.553905 257.102496 
L 114.370441 254.371916 
L 115.186976 254.32152 
L 116.820048 260.910706 
L 117.636583 253.404515 
L 118.453119 250.977958 
L 119.269654 243.072755 
L 120.08619 243.286639 
L 120.902725 249.440163 
L 121.719261 243.005603 
L 122.535797 249.75048 
L 123.352332 245.728945 
L 124.168868 251.117617 
L 124.985403 255.121982 
L 125.801939 255.806142 
L 126.618474 255.43688 
L 127.43501 259.250324 
L 128.251546 259.436514 
L 129.068081 254.579988 
L 129.884617 252.876423 
L 130.701152 254.048196 
L 131.517688 251.150167 
L 132.334224 251.070542 
L 133.150759 244.761385 
L 133.967295 237.398206 
L 134.78383 234.999082 
L 135.600366 240.629066 
L 136.416901 242.73909 
L 137.233437 249.051644 
L 138.049973 250.885387 
L 138.866508 252.235315 
L 139.683044 255.283832 
L 140.499579 255.652547 
L 141.316115 255.190551 
L 142.13265 255.525935 
L 142.949186 253.516573 
L 143.765722 255.78335 
L 144.582257 253.82968 
L 145.398793 253.581696 
L 146.215328 252.486134 
L 147.031864 253.69186 
L 148.664935 255.296807 
L 149.481471 254.626367 
L 150.298006 256.96974 
L 151.114542 257.334108 
L 151.931077 258.073061 
L 152.747613 256.275862 
L 153.564149 251.942294 
L 154.380684 250.540991 
L 155.19722 251.605633 
L 156.013755 249.316492 
L 156.830291 249.539979 
L 157.646826 247.244872 
L 158.463362 249.607806 
L 159.279898 251.322062 
L 160.096433 254.354119 
L 160.912969 251.846798 
L 161.729504 249.773554 
L 162.54604 250.340102 
L 163.362575 252.336067 
L 164.179111 252.597376 
L 164.995647 252.686442 
L 165.812182 251.481756 
L 166.628718 249.461296 
L 167.445253 248.798114 
L 168.261789 249.237314 
L 169.078324 250.942825 
L 169.89486 247.194463 
L 170.711396 245.000919 
L 171.527931 244.213767 
L 172.344467 246.634309 
L 173.161002 244.181243 
L 173.977538 244.523511 
L 174.794074 248.427817 
L 175.610609 248.477282 
L 176.427145 251.244789 
L 177.24368 254.437589 
L 178.060216 251.747219 
L 178.876751 250.443832 
L 180.509823 254.538411 
L 181.326358 254.183305 
L 182.142894 255.473609 
L 183.775965 255.691554 
L 184.5925 254.401255 
L 185.409036 254.67623 
L 186.225572 251.93863 
L 187.042107 251.502341 
L 187.858643 248.302304 
L 188.675178 246.000306 
L 189.491714 245.106553 
L 190.308249 249.515324 
L 191.124785 244.752525 
L 191.941321 242.796343 
L 192.757856 243.009162 
L 193.574392 246.550059 
L 194.390927 244.906812 
L 195.207463 242.097848 
L 196.840534 244.916719 
L 197.65707 245.850677 
L 198.473605 246.588012 
L 199.290141 248.384885 
L 200.106676 248.143535 
L 200.923212 248.92409 
L 202.556283 249.548684 
L 203.372819 248.611388 
L 204.189354 249.370516 
L 205.00589 246.484677 
L 205.822425 247.145914 
L 206.638961 245.807835 
L 207.455497 242.846968 
L 208.272032 242.662035 
L 209.088568 241.161297 
L 209.905103 241.527252 
L 210.721639 240.665649 
L 211.538175 245.61033 
L 212.35471 248.976358 
L 213.171246 251.670204 
L 213.987781 252.087319 
L 214.804317 254.422333 
L 215.620852 254.299112 
L 216.437388 252.716102 
L 217.253924 251.582958 
L 218.070459 250.102407 
L 218.886995 249.672899 
L 219.70353 250.385078 
L 220.520066 249.271194 
L 221.336601 249.86253 
L 222.153137 250.016018 
L 222.969673 249.203508 
L 223.786208 249.784466 
L 224.602744 247.181995 
L 225.419279 243.711793 
L 226.235815 243.405814 
L 227.05235 241.356388 
L 227.868886 242.18242 
L 228.685422 242.112023 
L 230.318493 244.781653 
L 231.135028 243.974223 
L 231.951564 246.358135 
L 232.7681 245.740292 
L 233.584635 245.70586 
L 235.217706 244.185224 
L 236.034242 245.069999 
L 236.850777 245.662063 
L 237.667313 247.546934 
L 238.483849 245.554551 
L 239.300384 246.344574 
L 240.11692 247.752423 
L 240.933455 245.119379 
L 241.749991 244.632562 
L 242.566526 244.513849 
L 243.383062 240.526266 
L 244.199598 237.280751 
L 245.016133 235.410106 
L 245.832669 237.284679 
L 247.46574 241.90845 
L 248.282275 242.525244 
L 249.098811 242.2686 
L 249.915347 242.88321 
L 250.731882 243.933079 
L 251.548418 243.947519 
L 252.364953 246.229727 
L 253.181489 247.640032 
L 253.998025 247.19871 
L 254.81456 247.257006 
L 255.631096 246.090428 
L 256.447631 247.148363 
L 257.264167 240.654869 
L 258.080702 236.75354 
L 258.897238 237.327405 
L 259.713774 239.72241 
L 261.346845 242.763703 
L 262.16338 243.013713 
L 262.979916 243.531192 
L 263.796451 244.931242 
L 264.612987 245.738116 
L 265.429523 244.161872 
L 266.246058 232.416359 
L 267.062594 227.37017 
L 267.879129 221.169214 
L 268.695665 226.583419 
L 269.5122 228.709768 
L 270.328736 233.096909 
L 271.145272 239.347299 
L 271.961807 237.262363 
L 272.778343 228.595562 
L 273.594878 227.101317 
L 274.411414 231.320392 
L 275.22795 238.50029 
L 276.044485 240.98718 
L 276.861021 239.532619 
L 277.677556 241.455827 
L 278.494092 236.737649 
L 279.310627 230.948813 
L 280.127163 229.060781 
L 280.943699 229.972548 
L 282.57677 236.721021 
L 283.393305 237.883934 
L 284.209841 237.711768 
L 285.842912 227.772126 
L 286.659448 226.640695 
L 288.292519 234.347666 
L 289.109054 234.952629 
L 289.92559 237.052347 
L 290.742125 233.641262 
L 291.558661 225.890639 
L 293.191732 218.232032 
L 294.008268 219.799707 
L 294.824803 218.025987 
L 295.641339 221.573514 
L 296.457875 222.720325 
L 297.27441 227.917355 
L 298.090946 226.264158 
L 298.907481 226.640223 
L 299.724017 224.479329 
L 300.540552 226.436823 
L 301.357088 227.62228 
L 302.173624 230.414914 
L 302.990159 229.384717 
L 303.806695 224.486216 
L 304.62323 230.753269 
L 305.439766 231.904557 
L 306.256301 225.787941 
L 307.072837 224.729468 
L 307.889373 227.550755 
L 308.705908 228.449316 
L 309.522444 232.112494 
L 310.338979 231.82003 
L 311.97205 233.99388 
L 313.605122 223.370857 
L 314.421657 226.95416 
L 315.238193 226.812551 
L 316.871264 222.566669 
L 318.504335 217.593327 
L 319.320871 223.580027 
L 320.137406 223.523994 
L 320.953942 219.210914 
L 321.770477 222.300005 
L 322.587013 221.500117 
L 323.403549 215.86987 
L 324.220084 216.621067 
L 325.03662 218.471509 
L 325.853155 213.149648 
L 326.669691 215.789129 
L 327.486226 214.303943 
L 328.302762 216.317288 
L 329.119298 213.781414 
L 329.935833 216.672388 
L 330.752369 216.868737 
L 331.568904 224.871185 
L 332.38544 222.283787 
L 333.201975 218.779324 
L 334.018511 220.304588 
L 334.835047 223.409072 
L 336.468118 222.808979 
L 337.284653 230.104621 
L 338.101189 231.922556 
L 338.917725 229.918767 
L 339.73426 229.806856 
L 340.550796 220.748742 
L 341.367331 228.793129 
L 342.183867 226.04085 
L 343.000402 229.09549 
L 343.816938 228.266303 
L 344.633474 231.50246 
L 345.450009 232.735503 
L 346.266545 227.830354 
L 347.08308 228.38069 
L 347.899616 227.513556 
L 348.716151 228.949207 
L 349.532687 225.244674 
L 350.349223 227.131038 
L 351.165758 230.000017 
L 351.982294 229.401808 
L 352.798829 235.871763 
L 353.615365 227.911789 
L 354.4319 226.999923 
L 356.064972 242.108204 
L 356.881507 243.174465 
L 358.514578 228.453153 
L 360.14765 229.269845 
L 361.780721 232.124975 
L 362.597256 231.299834 
L 363.413792 235.929565 
L 364.230327 235.539027 
L 365.046863 229.706364 
L 365.863399 232.265272 
L 366.679934 230.400241 
L 367.49647 230.8417 
L 368.313005 228.400933 
L 369.129541 223.726253 
L 369.946076 224.279768 
L 370.762612 221.042264 
L 371.579148 231.95592 
L 372.395683 226.4069 
L 373.212219 228.826934 
L 374.028754 232.210628 
L 374.84529 227.821257 
L 375.661825 221.955564 
L 376.478361 219.283948 
L 377.294897 220.215046 
L 378.111432 224.660778 
L 378.927968 226.763451 
L 379.744503 227.750984 
L 381.377575 233.007589 
L 382.19411 228.743925 
L 383.010646 230.361058 
L 383.827181 222.604796 
L 384.643717 228.48629 
L 385.460252 231.461704 
L 386.276788 223.840468 
L 387.093324 231.91563 
L 387.909859 231.049824 
L 388.726395 237.503803 
L 389.54293 241.837411 
L 390.359466 237.551819 
L 391.176001 236.615744 
L 391.992537 237.996409 
L 392.809073 240.003992 
L 393.625608 241.305837 
L 394.442144 231.451312 
L 395.258679 233.740051 
L 396.075215 238.906951 
L 396.891751 238.731969 
L 397.708286 242.067223 
L 398.524822 242.546778 
L 399.341357 242.074167 
L 400.157893 246.404976 
L 400.974428 242.662074 
L 401.790964 235.455192 
L 402.6075 229.528753 
L 403.424035 230.575336 
L 404.240571 233.839635 
L 405.057106 238.193006 
L 405.873642 230.807607 
L 406.690177 225.625739 
L 407.506713 230.303793 
L 408.323249 230.124596 
L 409.139784 231.949617 
L 409.95632 219.938488 
L 410.772855 223.961609 
L 411.589391 218.175876 
L 412.405926 218.159202 
L 413.222462 223.616491 
L 414.038998 224.399047 
L 414.855533 218.766301 
L 415.672069 222.113094 
L 416.488604 223.389878 
L 417.30514 218.238827 
L 418.121676 207.777409 
L 418.938211 218.617847 
L 419.754747 219.493033 
L 420.571282 220.775306 
L 421.387818 217.889833 
L 422.204353 216.514917 
L 423.837425 223.213253 
L 424.65396 230.410808 
L 425.470496 233.890824 
L 426.287031 232.156201 
L 427.103567 237.198666 
L 427.920102 233.367325 
L 428.736638 231.41218 
L 429.553174 219.269939 
L 430.369709 217.286088 
L 431.186245 219.803362 
L 432.00278 223.778936 
L 432.819316 228.530788 
L 433.635851 230.58429 
L 434.452387 234.246151 
L 435.268923 233.565804 
L 436.085458 231.066793 
L 436.901994 231.156476 
L 437.718529 228.839107 
L 438.535065 227.631753 
L 439.351601 236.870647 
L 440.168136 237.185769 
L 440.984672 228.294377 
L 441.801207 222.580007 
L 442.617743 219.807606 
L 443.434278 223.34944 
L 444.250814 216.796028 
L 445.06735 221.625443 
L 445.883885 218.153947 
L 446.700421 211.898717 
L 447.516956 218.496389 
L 448.333492 218.755239 
L 449.966563 221.43803 
L 450.783099 218.011001 
L 451.599634 219.010031 
L 452.41617 224.035764 
L 453.232705 220.392654 
L 454.049241 226.177812 
L 454.865776 225.726223 
L 455.682312 228.786629 
L 456.498848 230.24983 
L 457.315383 231.290671 
L 458.131919 228.751478 
L 458.948454 227.951045 
L 459.76499 227.925206 
L 460.581526 232.060843 
L 461.398061 223.284096 
L 462.214597 224.690808 
L 463.031132 223.197853 
L 463.847668 227.40781 
L 464.664203 228.368977 
L 465.480739 235.823838 
L 466.297275 240.47876 
L 467.11381 240.834284 
L 467.930346 243.19783 
L 468.746881 242.201201 
L 469.563417 240.033417 
L 470.379952 236.4445 
L 471.196488 224.528441 
L 472.013024 229.970744 
L 472.829559 230.925574 
L 473.646095 229.462262 
L 474.46263 239.925404 
L 475.279166 239.739478 
L 476.095701 240.60426 
L 476.912237 242.218244 
L 477.728773 238.678844 
L 478.545308 238.520343 
L 480.178379 237.609619 
L 480.994915 240.734264 
L 481.811451 241.955136 
L 482.627986 239.978912 
L 483.444522 233.22807 
L 484.261057 225.235362 
L 485.077593 215.331788 
L 485.894128 218.703715 
L 486.710664 213.299322 
L 487.5272 218.729572 
L 488.343735 226.011801 
L 489.160271 230.03841 
L 489.976806 238.012212 
L 490.793342 227.907065 
L 491.609877 225.31698 
L 492.426413 227.360663 
L 493.242949 236.110069 
L 494.059484 242.696201 
L 495.692555 235.088582 
L 496.509091 233.119561 
L 496.509091 233.119561 
" clip-path="url(#p3c3b1a7fa4)" style="fill: none; stroke: #d62728; stroke-width: 1.5; stroke-linecap: square"/>
   </g>
   <g id="line2d_25">
    <path d="M 90.690909 276.75319 
L 92.32398 276.450752 
L 93.140516 276.898217 
L 94.773587 276.306072 
L 95.590123 276.588462 
L 97.223194 276.150447 
L 98.856265 276.823447 
L 101.305872 275.866741 
L 102.122407 276.393273 
L 104.572014 275.664372 
L 105.388549 275.874146 
L 107.021621 275.643853 
L 107.838156 275.609598 
L 110.287763 275.041646 
L 111.104299 275.017944 
L 111.920834 274.606169 
L 113.553905 274.20188 
L 114.370441 273.974577 
L 115.186976 273.919885 
L 116.003512 274.452196 
L 117.636583 274.484489 
L 119.269654 274.285074 
L 121.719261 275.030902 
L 122.535797 274.934535 
L 124.168868 274.424256 
L 126.618474 274.28009 
L 127.43501 274.037481 
L 128.251546 273.650054 
L 131.517688 273.075104 
L 135.600366 273.283096 
L 136.416901 273.539456 
L 137.233437 273.64216 
L 138.866508 273.578064 
L 143.765722 272.803159 
L 147.031864 272.847028 
L 149.481471 273.099766 
L 151.114542 273.125555 
L 151.931077 273.224646 
L 152.747613 273.166187 
L 154.380684 272.856132 
L 156.830291 272.717555 
L 158.463362 272.575926 
L 160.096433 272.601783 
L 161.729504 272.514458 
L 164.179111 272.537967 
L 172.344467 272.168357 
L 182.142894 271.802962 
L 184.5925 271.933831 
L 187.042107 272.121296 
L 197.65707 271.915233 
L 200.106676 272.008743 
L 202.556283 271.869015 
L 213.987781 272.092536 
L 215.620852 272.184971 
L 219.70353 272.038165 
L 224.602744 272.20774 
L 231.135028 272.288582 
L 232.7681 272.326163 
L 236.034242 272.263221 
L 237.667313 272.327858 
L 249.915347 271.974283 
L 251.548418 272.033619 
L 253.998025 271.961641 
L 264.612987 271.962182 
L 265.429523 271.909068 
L 267.062594 272.10404 
L 268.695665 272.015168 
L 269.5122 271.845229 
L 271.145272 272.059944 
L 271.961807 272.155393 
L 273.594878 272.065972 
L 276.861021 272.179046 
L 278.494092 272.344287 
L 280.127163 272.214425 
L 281.760234 272.284674 
L 285.842912 271.955585 
L 286.659448 271.851918 
L 287.475983 271.584042 
L 289.109054 271.733493 
L 290.742125 271.341192 
L 292.375197 271.527637 
L 293.191732 271.475689 
L 294.008268 271.615997 
L 294.824803 271.624143 
L 297.27441 271.948994 
L 298.090946 272.227386 
L 301.357088 272.712028 
L 306.256301 273.224696 
L 315.238193 273.369769 
L 320.953942 273.255237 
L 322.587013 273.260638 
L 324.220084 273.06184 
L 329.119298 272.095587 
L 332.38544 272.058881 
L 333.201975 272.143264 
L 334.835047 271.958058 
L 335.651582 271.728504 
L 337.284653 271.546022 
L 339.73426 271.404493 
L 340.550796 271.471723 
L 342.183867 271.399251 
L 343.816938 271.50676 
L 347.899616 271.479694 
L 349.532687 271.736163 
L 350.349223 271.906028 
L 351.982294 271.810531 
L 352.798829 271.977723 
L 354.4319 271.85405 
L 355.248436 271.75423 
L 356.064972 271.802307 
L 357.698043 271.462945 
L 361.780721 271.635594 
L 363.413792 271.748573 
L 364.230327 271.846644 
L 365.863399 272.273053 
L 368.313005 272.54697 
L 370.762612 272.225625 
L 371.579148 272.191465 
L 372.395683 271.969737 
L 375.661825 272.426061 
L 376.478361 272.433767 
L 378.111432 272.616967 
L 378.927968 272.628668 
L 379.744503 272.496878 
L 381.377575 272.729194 
L 383.010646 272.911521 
L 390.359466 272.894352 
L 391.992537 272.877484 
L 393.625608 272.979211 
L 395.258679 273.082332 
L 396.891751 273.110293 
L 397.708286 273.145337 
L 398.524822 272.955799 
L 400.157893 272.877908 
L 401.790964 272.529297 
L 405.873642 272.556066 
L 407.506713 272.68287 
L 408.323249 272.751134 
L 409.95632 272.727265 
L 413.222462 272.935581 
L 415.672069 272.674091 
L 418.121676 272.618382 
L 420.571282 272.565056 
L 423.837425 272.808516 
L 427.103567 272.622246 
L 428.736638 272.476127 
L 430.369709 272.160644 
L 431.186245 271.941997 
L 435.268923 271.96349 
L 438.535065 271.276489 
L 439.351601 271.299963 
L 440.168136 271.100047 
L 444.250814 270.802463 
L 449.966563 271.060295 
L 453.232705 270.779519 
L 456.498848 270.353607 
L 457.315383 270.482775 
L 458.948454 270.586497 
L 459.76499 270.64462 
L 460.581526 270.589093 
L 463.031132 270.736655 
L 464.664203 270.535758 
L 465.480739 270.39433 
L 466.297275 270.429885 
L 467.930346 270.157291 
L 468.746881 270.443794 
L 469.563417 270.505996 
L 470.379952 270.68486 
L 471.196488 270.54423 
L 472.013024 270.678163 
L 472.829559 270.599542 
L 473.646095 270.756824 
L 474.46263 270.67591 
L 476.095701 271.209984 
L 476.912237 271.325421 
L 479.361844 271.313144 
L 480.994915 271.648327 
L 481.811451 271.491605 
L 484.261057 271.889308 
L 486.710664 271.930873 
L 488.343735 271.388759 
L 489.160271 271.395032 
L 489.976806 271.177567 
L 490.793342 271.089641 
L 491.609877 271.140886 
L 493.242949 270.993127 
L 495.692555 271.09668 
L 496.509091 271.135787 
L 496.509091 271.135787 
" clip-path="url(#p3c3b1a7fa4)" style="fill: none; stroke: #9467bd; stroke-width: 1.5; stroke-linecap: square"/>
   </g>
   <g id="patch_3">
    <path d="M 70.4 305.152125 
L 70.4 27.952125 
" style="fill: none; stroke: #000000; stroke-width: 0.8; stroke-linejoin: miter; stroke-linecap: square"/>
   </g>
   <g id="patch_4">
    <path d="M 516.8 305.152125 
L 516.8 27.952125 
" style="fill: none; stroke: #000000; stroke-width: 0.8; stroke-linejoin: miter; stroke-linecap: square"/>
   </g>
   <g id="patch_5">
    <path d="M 70.4 305.152125 
L 516.8 305.152125 
" style="fill: none; stroke: #000000; stroke-width: 0.8; stroke-linejoin: miter; stroke-linecap: square"/>
   </g>
   <g id="patch_6">
    <path d="M 70.4 27.952125 
L 516.8 27.952125 
" style="fill: none; stroke: #000000; stroke-width: 0.8; stroke-linejoin: miter; stroke-linecap: square"/>
   </g>
   <g id="text_14">
    <!-- ML10 Meta Testing -->
    <g transform="translate(206.604313 21.952125)scale(0.216 -0.216)">
     <defs>
      <path id="STIXGeneral-Regular-4d" d="M 5530 0 
L 3738 0 
L 3738 122 
Q 4115 147 4214 265 
Q 4314 384 4314 787 
L 4314 3661 
L 2682 0 
L 2592 0 
L 979 3514 
L 979 966 
Q 979 448 1088 294 
Q 1197 141 1574 122 
L 1574 0 
L 77 0 
L 77 122 
Q 358 141 480 205 
Q 602 269 650 432 
Q 698 595 698 966 
L 698 3514 
Q 698 3878 589 3984 
Q 480 4090 90 4115 
L 90 4237 
L 1357 4237 
L 2835 1024 
L 4250 4237 
L 5523 4237 
L 5523 4115 
Q 5178 4109 5072 3993 
Q 4966 3878 4966 3520 
L 4966 717 
Q 4966 378 5072 262 
Q 5178 147 5530 122 
L 5530 0 
z
" transform="scale(0.015625)"/>
      <path id="STIXGeneral-Regular-4c" d="M 3827 1114 
L 3520 0 
L 77 0 
L 77 122 
Q 429 141 531 256 
Q 634 371 634 736 
L 634 3494 
Q 634 3872 541 3981 
Q 448 4090 77 4115 
L 77 4237 
L 1888 4237 
L 1888 4115 
Q 1498 4090 1392 3984 
Q 1286 3878 1286 3507 
L 1286 538 
Q 1286 358 1398 304 
Q 1510 250 1862 250 
L 2310 250 
Q 3085 250 3392 640 
Q 3520 813 3661 1114 
L 3827 1114 
z
" transform="scale(0.015625)"/>
     </defs>
     <use xlink:href="#STIXGeneral-Regular-4d"/>
     <use xlink:href="#STIXGeneral-Regular-4c" x="88.899994"/>
     <use xlink:href="#STIXGeneral-Regular-31" x="149.999985"/>
     <use xlink:href="#STIXGeneral-Regular-30" x="199.999969"/>
     <use xlink:href="#STIXGeneral-Regular-20" x="249.999954"/>
     <use xlink:href="#STIXGeneral-Regular-4d" x="274.999939"/>
     <use xlink:href="#STIXGeneral-Regular-65" x="363.899933"/>
     <use xlink:href="#STIXGeneral-Regular-74" x="408.299927"/>
     <use xlink:href="#STIXGeneral-Regular-61" x="436.099915"/>
     <use xlink:href="#STIXGeneral-Regular-20" x="480.499908"/>
     <use xlink:href="#STIXGeneral-Regular-54" x="505.499893"/>
     <use xlink:href="#STIXGeneral-Regular-65" x="566.599884"/>
     <use xlink:href="#STIXGeneral-Regular-73" x="610.999878"/>
     <use xlink:href="#STIXGeneral-Regular-74" x="649.899872"/>
     <use xlink:href="#STIXGeneral-Regular-69" x="677.69986"/>
     <use xlink:href="#STIXGeneral-Regular-6e" x="705.499847"/>
     <use xlink:href="#STIXGeneral-Regular-67" x="755.499832"/>
    </g>
   </g>
   <g id="legend_1">
    <g id="patch_7">
     <path d="M 238.397344 205.052125 
L 348.802656 205.052125 
Q 351.602656 205.052125 351.602656 202.252125 
L 351.602656 130.852125 
Q 351.602656 128.052125 348.802656 128.052125 
L 238.397344 128.052125 
Q 235.597344 128.052125 235.597344 130.852125 
L 235.597344 202.252125 
Q 235.597344 205.052125 238.397344 205.052125 
z
" style="fill: #ffffff; opacity: 0.8; stroke: #cccccc; stroke-linejoin: miter"/>
    </g>
    <g id="line2d_26">
     <path d="M 239.797344 137.963687 
L 246.797344 137.963687 
L 253.797344 137.963687 
" style="fill: none; stroke: #1f77b4; stroke-width: 1.5; stroke-linecap: square"/>
    </g>
    <g id="text_15">
     <!-- drawer-open-v2 -->
     <g transform="translate(257.997344 141.813687)scale(0.14 -0.14)">
      <defs>
       <path id="STIXGeneral-Regular-64" d="M 3142 269 
L 2202 -64 
L 2176 -45 
L 2176 365 
Q 1869 -64 1357 -64 
Q 826 -64 499 317 
Q 173 698 173 1312 
Q 173 1990 563 2467 
Q 954 2944 1504 2944 
Q 1850 2944 2176 2669 
L 2176 3667 
Q 2176 3866 2118 3930 
Q 2061 3994 1882 3994 
Q 1792 3994 1741 3987 
L 1741 4090 
Q 2323 4243 2682 4371 
L 2714 4358 
L 2714 730 
Q 2714 506 2768 435 
Q 2822 365 2995 365 
Q 3034 365 3142 371 
L 3142 269 
z
M 2176 653 
L 2176 2125 
Q 2176 2381 1981 2573 
Q 1786 2765 1523 2765 
Q 1158 2765 940 2438 
Q 723 2112 723 1568 
Q 723 979 963 624 
Q 1203 269 1606 269 
Q 1907 269 2080 474 
Q 2176 582 2176 653 
z
" transform="scale(0.015625)"/>
       <path id="STIXGeneral-Regular-77" d="M 4442 2880 
L 4442 2784 
Q 4346 2752 4301 2691 
Q 4256 2630 4179 2438 
L 3296 224 
Q 3168 -90 3117 -90 
Q 3085 -90 3062 -48 
Q 3040 -6 2963 186 
L 2381 1696 
L 1664 160 
Q 1549 -90 1504 -90 
Q 1446 -90 1338 192 
L 474 2381 
Q 378 2630 314 2700 
Q 250 2771 134 2784 
L 134 2880 
L 1286 2880 
L 1286 2784 
Q 1120 2765 1056 2720 
Q 992 2675 992 2573 
Q 992 2477 1030 2381 
L 1664 710 
L 2246 1984 
L 2118 2342 
Q 2029 2598 1942 2681 
Q 1856 2765 1677 2784 
L 1677 2880 
L 2976 2880 
L 2976 2784 
Q 2752 2752 2678 2707 
Q 2605 2662 2605 2560 
Q 2605 2458 2714 2176 
L 3251 742 
L 3827 2163 
Q 3936 2432 3936 2592 
Q 3936 2669 3875 2710 
Q 3814 2752 3654 2784 
L 3654 2880 
L 4442 2880 
z
" transform="scale(0.015625)"/>
       <path id="STIXGeneral-Regular-2d" d="M 1824 1242 
L 250 1242 
L 250 1645 
L 1824 1645 
L 1824 1242 
z
" transform="scale(0.015625)"/>
      </defs>
      <use xlink:href="#STIXGeneral-Regular-64"/>
      <use xlink:href="#STIXGeneral-Regular-72" x="49.999985"/>
      <use xlink:href="#STIXGeneral-Regular-61" x="83.299973"/>
      <use xlink:href="#STIXGeneral-Regular-77" x="127.699966"/>
      <use xlink:href="#STIXGeneral-Regular-65" x="199.899948"/>
      <use xlink:href="#STIXGeneral-Regular-72" x="244.299942"/>
      <use xlink:href="#STIXGeneral-Regular-2d" x="277.59993"/>
      <use xlink:href="#STIXGeneral-Regular-6f" x="310.899918"/>
      <use xlink:href="#STIXGeneral-Regular-70" x="360.899902"/>
      <use xlink:href="#STIXGeneral-Regular-65" x="410.899887"/>
      <use xlink:href="#STIXGeneral-Regular-6e" x="455.299881"/>
      <use xlink:href="#STIXGeneral-Regular-2d" x="505.299866"/>
      <use xlink:href="#STIXGeneral-Regular-76" x="538.599854"/>
      <use xlink:href="#STIXGeneral-Regular-32" x="588.599838"/>
     </g>
    </g>
    <g id="line2d_27">
     <path d="M 239.797344 151.963687 
L 246.797344 151.963687 
L 253.797344 151.963687 
" style="fill: none; stroke: #ff7f0e; stroke-width: 1.5; stroke-linecap: square"/>
    </g>
    <g id="text_16">
     <!-- door-close-v2 -->
     <g transform="translate(257.997344 155.813687)scale(0.14 -0.14)">
      <defs>
       <path id="STIXGeneral-Regular-63" d="M 2547 998 
L 2637 941 
Q 2362 403 2112 205 
Q 1786 -64 1376 -64 
Q 845 -64 502 336 
Q 160 736 160 1357 
Q 160 2170 698 2618 
Q 1094 2944 1562 2944 
Q 1965 2944 2256 2749 
Q 2547 2554 2547 2285 
Q 2547 2176 2457 2096 
Q 2368 2016 2246 2016 
Q 2022 2016 1939 2310 
L 1901 2451 
Q 1850 2630 1773 2694 
Q 1696 2758 1523 2758 
Q 1133 2758 893 2451 
Q 653 2144 653 1645 
Q 653 1094 928 745 
Q 1203 397 1645 397 
Q 1920 397 2118 528 
Q 2317 659 2547 998 
z
" transform="scale(0.015625)"/>
       <path id="STIXGeneral-Regular-6c" d="M 1645 0 
L 134 0 
L 134 96 
Q 435 122 531 221 
Q 627 320 627 589 
L 627 3590 
Q 627 3821 569 3910 
Q 512 4000 358 4000 
Q 224 4000 122 3987 
L 122 4090 
Q 730 4237 1133 4371 
L 1165 4346 
L 1165 557 
Q 1165 288 1254 201 
Q 1344 115 1645 96 
L 1645 0 
z
" transform="scale(0.015625)"/>
      </defs>
      <use xlink:href="#STIXGeneral-Regular-64"/>
      <use xlink:href="#STIXGeneral-Regular-6f" x="49.999985"/>
      <use xlink:href="#STIXGeneral-Regular-6f" x="99.999969"/>
      <use xlink:href="#STIXGeneral-Regular-72" x="149.999954"/>
      <use xlink:href="#STIXGeneral-Regular-2d" x="183.299942"/>
      <use xlink:href="#STIXGeneral-Regular-63" x="216.59993"/>
      <use xlink:href="#STIXGeneral-Regular-6c" x="260.999924"/>
      <use xlink:href="#STIXGeneral-Regular-6f" x="288.799911"/>
      <use xlink:href="#STIXGeneral-Regular-73" x="338.799896"/>
      <use xlink:href="#STIXGeneral-Regular-65" x="377.69989"/>
      <use xlink:href="#STIXGeneral-Regular-2d" x="422.099884"/>
      <use xlink:href="#STIXGeneral-Regular-76" x="455.399872"/>
      <use xlink:href="#STIXGeneral-Regular-32" x="505.399857"/>
     </g>
    </g>
    <g id="line2d_28">
     <path d="M 239.797344 165.963687 
L 246.797344 165.963687 
L 253.797344 165.963687 
" style="fill: none; stroke: #2ca02c; stroke-width: 1.5; stroke-linecap: square"/>
    </g>
    <g id="text_17">
     <!-- shelf-place-v2 -->
     <g transform="translate(257.997344 169.813687)scale(0.14 -0.14)">
      <defs>
       <path id="STIXGeneral-Regular-68" d="M 3117 0 
L 1760 0 
L 1760 96 
Q 2042 128 2118 224 
Q 2195 320 2195 653 
L 2195 1920 
Q 2195 2598 1722 2598 
Q 1530 2598 1370 2508 
Q 1210 2419 1005 2195 
L 1005 653 
Q 1005 320 1081 224 
Q 1158 128 1440 96 
L 1440 0 
L 58 0 
L 58 96 
Q 333 134 400 224 
Q 467 314 467 653 
L 467 3667 
Q 467 3872 406 3933 
Q 346 3994 141 3994 
Q 83 3994 64 3987 
L 64 4090 
L 237 4141 
Q 730 4288 973 4371 
L 1005 4352 
L 1005 2406 
Q 1229 2694 1446 2819 
Q 1664 2944 1946 2944 
Q 2733 2944 2733 1926 
L 2733 653 
Q 2733 320 2793 233 
Q 2854 147 3117 96 
L 3117 0 
z
" transform="scale(0.015625)"/>
       <path id="STIXGeneral-Regular-66" d="M 134 2880 
L 659 2880 
Q 666 3264 710 3478 
Q 755 3693 883 3910 
Q 1152 4371 1786 4371 
Q 2074 4371 2262 4259 
Q 2451 4147 2451 3974 
Q 2451 3866 2374 3789 
Q 2298 3712 2182 3712 
Q 2029 3712 1894 3942 
Q 1741 4192 1555 4192 
Q 1197 4192 1197 3622 
L 1197 2880 
L 1978 2880 
L 1978 2675 
L 1197 2675 
L 1197 666 
Q 1197 307 1299 208 
Q 1402 109 1792 96 
L 1792 0 
L 128 0 
L 128 96 
Q 474 115 566 214 
Q 659 314 659 666 
L 659 2675 
L 134 2675 
L 134 2880 
z
" transform="scale(0.015625)"/>
      </defs>
      <use xlink:href="#STIXGeneral-Regular-73"/>
      <use xlink:href="#STIXGeneral-Regular-68" x="38.899994"/>
      <use xlink:href="#STIXGeneral-Regular-65" x="88.899979"/>
      <use xlink:href="#STIXGeneral-Regular-6c" x="133.299973"/>
      <use xlink:href="#STIXGeneral-Regular-66" x="161.09996"/>
      <use xlink:href="#STIXGeneral-Regular-2d" x="194.399948"/>
      <use xlink:href="#STIXGeneral-Regular-70" x="227.699936"/>
      <use xlink:href="#STIXGeneral-Regular-6c" x="277.699921"/>
      <use xlink:href="#STIXGeneral-Regular-61" x="305.499908"/>
      <use xlink:href="#STIXGeneral-Regular-63" x="349.899902"/>
      <use xlink:href="#STIXGeneral-Regular-65" x="394.299896"/>
      <use xlink:href="#STIXGeneral-Regular-2d" x="438.69989"/>
      <use xlink:href="#STIXGeneral-Regular-76" x="471.999878"/>
      <use xlink:href="#STIXGeneral-Regular-32" x="521.999863"/>
     </g>
    </g>
    <g id="line2d_29">
     <path d="M 239.797344 179.963687 
L 246.797344 179.963687 
L 253.797344 179.963687 
" style="fill: none; stroke: #d62728; stroke-width: 1.5; stroke-linecap: square"/>
    </g>
    <g id="text_18">
     <!-- sweep-into-v2 -->
     <g transform="translate(257.997344 183.813687)scale(0.14 -0.14)">
      <use xlink:href="#STIXGeneral-Regular-73"/>
      <use xlink:href="#STIXGeneral-Regular-77" x="38.899994"/>
      <use xlink:href="#STIXGeneral-Regular-65" x="111.099976"/>
      <use xlink:href="#STIXGeneral-Regular-65" x="155.499969"/>
      <use xlink:href="#STIXGeneral-Regular-70" x="199.899963"/>
      <use xlink:href="#STIXGeneral-Regular-2d" x="249.899948"/>
      <use xlink:href="#STIXGeneral-Regular-69" x="283.199936"/>
      <use xlink:href="#STIXGeneral-Regular-6e" x="310.999924"/>
      <use xlink:href="#STIXGeneral-Regular-74" x="360.999908"/>
      <use xlink:href="#STIXGeneral-Regular-6f" x="388.799896"/>
      <use xlink:href="#STIXGeneral-Regular-2d" x="438.799881"/>
      <use xlink:href="#STIXGeneral-Regular-76" x="472.099869"/>
      <use xlink:href="#STIXGeneral-Regular-32" x="522.099854"/>
     </g>
    </g>
    <g id="line2d_30">
     <path d="M 239.797344 193.963687 
L 246.797344 193.963687 
L 253.797344 193.963687 
" style="fill: none; stroke: #9467bd; stroke-width: 1.5; stroke-linecap: square"/>
    </g>
    <g id="text_19">
     <!-- lever-pull-v2 -->
     <g transform="translate(257.997344 197.813687)scale(0.14 -0.14)">
      <use xlink:href="#STIXGeneral-Regular-6c"/>
      <use xlink:href="#STIXGeneral-Regular-65" x="27.799988"/>
      <use xlink:href="#STIXGeneral-Regular-76" x="72.199982"/>
      <use xlink:href="#STIXGeneral-Regular-65" x="122.199966"/>
      <use xlink:href="#STIXGeneral-Regular-72" x="166.59996"/>
      <use xlink:href="#STIXGeneral-Regular-2d" x="199.899948"/>
      <use xlink:href="#STIXGeneral-Regular-70" x="233.199936"/>
      <use xlink:href="#STIXGeneral-Regular-75" x="283.199921"/>
      <use xlink:href="#STIXGeneral-Regular-6c" x="333.199905"/>
      <use xlink:href="#STIXGeneral-Regular-6c" x="360.999893"/>
      <use xlink:href="#STIXGeneral-Regular-2d" x="388.799881"/>
      <use xlink:href="#STIXGeneral-Regular-76" x="422.099869"/>
      <use xlink:href="#STIXGeneral-Regular-32" x="472.099854"/>
     </g>
    </g>
   </g>
  </g>
 </g>
 <defs>
  <clipPath id="p3c3b1a7fa4">
   <rect x="70.4" y="27.952125" width="446.4" height="277.2"/>
  </clipPath>
 </defs>
</svg>
