<?xml version="1.0" encoding="utf-8" standalone="no"?>
<!DOCTYPE svg PUBLIC "-//W3C//DTD SVG 1.1//EN"
  "http://www.w3.org/Graphics/SVG/1.1/DTD/svg11.dtd">
<svg xmlns:xlink="http://www.w3.org/1999/xlink" width="524pt" height="355.769pt" viewBox="0 0 524 355.769" xmlns="http://www.w3.org/2000/svg" version="1.1">
 <metadata>
  <rdf:RDF xmlns:dc="http://purl.org/dc/elements/1.1/" xmlns:cc="http://creativecommons.org/ns#" xmlns:rdf="http://www.w3.org/1999/02/22-rdf-syntax-ns#">
   <cc:Work>
    <dc:type rdf:resource="http://purl.org/dc/dcmitype/StillImage"/>
    <dc:date>2021-12-11T15:59:07.683745</dc:date>
    <dc:format>image/svg+xml</dc:format>
    <dc:creator>
     <cc:Agent>
      <dc:title>Matplotlib v3.5.0, https://matplotlib.org/</dc:title>
     </cc:Agent>
    </dc:creator>
   </cc:Work>
  </rdf:RDF>
 </metadata>
 <defs>
  <style type="text/css">*{stroke-linejoin: round; stroke-linecap: butt}</style>
 </defs>
 <g id="figure_1">
  <g id="patch_1">
   <path d="M 0 355.769 
L 524 355.769 
L 524 0 
L 0 0 
z
" style="fill: #ffffff"/>
  </g>
  <g id="axes_1">
   <g id="patch_2">
    <path d="M 70.4 305.152125 
L 516.8 305.152125 
L 516.8 27.952125 
L 70.4 27.952125 
z
" style="fill: #ffffff"/>
   </g>
   <g id="matplotlib.axis_1">
    <g id="xtick_1">
     <g id="line2d_1">
      <path d="M 89.876013 305.152125 
L 89.876013 27.952125 
" clip-path="url(#pc91e6c23e5)" style="fill: none; stroke: #b0b0b0; stroke-width: 0.8; stroke-linecap: square"/>
     </g>
     <g id="line2d_2">
      <defs>
       <path id="m4bb1731d43" d="M 0 0 
L 0 3.5 
" style="stroke: #000000; stroke-width: 0.8"/>
      </defs>
      <g>
       <use xlink:href="#m4bb1731d43" x="89.876013" y="305.152125" style="stroke: #000000; stroke-width: 0.8"/>
      </g>
     </g>
     <g id="text_1">
      <!-- 0.0 -->
      <g transform="translate(78.626013 324.445562)scale(0.18 -0.18)">
       <defs>
        <path id="STIXGeneral-Regular-30" d="M 3046 2112 
Q 3046 1683 2963 1302 
Q 2880 922 2717 602 
Q 2554 282 2266 96 
Q 1978 -90 1600 -90 
Q 1210 -90 915 108 
Q 621 307 461 640 
Q 301 973 227 1350 
Q 154 1728 154 2150 
Q 154 2746 301 3222 
Q 448 3699 790 4012 
Q 1133 4326 1626 4326 
Q 2253 4326 2649 3712 
Q 3046 3098 3046 2112 
z
M 2432 2080 
Q 2432 3091 2217 3625 
Q 2003 4160 1587 4160 
Q 1190 4160 979 3622 
Q 768 3085 768 2106 
Q 768 1120 979 598 
Q 1190 77 1600 77 
Q 2003 77 2217 598 
Q 2432 1120 2432 2080 
z
" transform="scale(0.015625)"/>
        <path id="STIXGeneral-Regular-2e" d="M 1158 275 
Q 1158 134 1052 32 
Q 947 -70 800 -70 
Q 653 -70 550 32 
Q 448 134 448 281 
Q 448 429 553 534 
Q 659 640 806 640 
Q 947 640 1052 531 
Q 1158 422 1158 275 
z
" transform="scale(0.015625)"/>
       </defs>
       <use xlink:href="#STIXGeneral-Regular-30"/>
       <use xlink:href="#STIXGeneral-Regular-2e" x="49.999985"/>
       <use xlink:href="#STIXGeneral-Regular-30" x="74.999969"/>
      </g>
     </g>
    </g>
    <g id="xtick_2">
     <g id="line2d_3">
      <path d="M 171.365608 305.152125 
L 171.365608 27.952125 
" clip-path="url(#pc91e6c23e5)" style="fill: none; stroke: #b0b0b0; stroke-width: 0.8; stroke-linecap: square"/>
     </g>
     <g id="line2d_4">
      <g>
       <use xlink:href="#m4bb1731d43" x="171.365608" y="305.152125" style="stroke: #000000; stroke-width: 0.8"/>
      </g>
     </g>
     <g id="text_2">
      <!-- 0.2 -->
      <g transform="translate(160.115608 324.445562)scale(0.18 -0.18)">
       <defs>
        <path id="STIXGeneral-Regular-32" d="M 3034 877 
L 2688 0 
L 186 0 
L 186 77 
L 1325 1286 
Q 1773 1754 1965 2144 
Q 2157 2534 2157 2950 
Q 2157 3379 1920 3616 
Q 1683 3853 1267 3853 
Q 922 3853 720 3673 
Q 518 3494 326 3021 
L 192 3053 
Q 301 3648 630 3987 
Q 960 4326 1523 4326 
Q 2054 4326 2380 4006 
Q 2707 3686 2707 3200 
Q 2707 2477 1888 1613 
L 832 486 
L 2330 486 
Q 2541 486 2665 569 
Q 2790 653 2944 915 
L 3034 877 
z
" transform="scale(0.015625)"/>
       </defs>
       <use xlink:href="#STIXGeneral-Regular-30"/>
       <use xlink:href="#STIXGeneral-Regular-2e" x="49.999985"/>
       <use xlink:href="#STIXGeneral-Regular-32" x="74.999969"/>
      </g>
     </g>
    </g>
    <g id="xtick_3">
     <g id="line2d_5">
      <path d="M 252.855203 305.152125 
L 252.855203 27.952125 
" clip-path="url(#pc91e6c23e5)" style="fill: none; stroke: #b0b0b0; stroke-width: 0.8; stroke-linecap: square"/>
     </g>
     <g id="line2d_6">
      <g>
       <use xlink:href="#m4bb1731d43" x="252.855203" y="305.152125" style="stroke: #000000; stroke-width: 0.8"/>
      </g>
     </g>
     <g id="text_3">
      <!-- 0.4 -->
      <g transform="translate(241.605203 324.445562)scale(0.18 -0.18)">
       <defs>
        <path id="STIXGeneral-Regular-34" d="M 3027 1069 
L 2368 1069 
L 2368 0 
L 1869 0 
L 1869 1069 
L 77 1069 
L 77 1478 
L 2086 4326 
L 2368 4326 
L 2368 1478 
L 3027 1478 
L 3027 1069 
z
M 1869 1478 
L 1869 3674 
L 333 1478 
L 1869 1478 
z
" transform="scale(0.015625)"/>
       </defs>
       <use xlink:href="#STIXGeneral-Regular-30"/>
       <use xlink:href="#STIXGeneral-Regular-2e" x="49.999985"/>
       <use xlink:href="#STIXGeneral-Regular-34" x="74.999969"/>
      </g>
     </g>
    </g>
    <g id="xtick_4">
     <g id="line2d_7">
      <path d="M 334.344797 305.152125 
L 334.344797 27.952125 
" clip-path="url(#pc91e6c23e5)" style="fill: none; stroke: #b0b0b0; stroke-width: 0.8; stroke-linecap: square"/>
     </g>
     <g id="line2d_8">
      <g>
       <use xlink:href="#m4bb1731d43" x="334.344797" y="305.152125" style="stroke: #000000; stroke-width: 0.8"/>
      </g>
     </g>
     <g id="text_4">
      <!-- 0.6 -->
      <g transform="translate(323.094797 324.445562)scale(0.18 -0.18)">
       <defs>
        <path id="STIXGeneral-Regular-36" d="M 2854 4378 
L 2867 4275 
Q 2112 4154 1606 3664 
Q 1101 3174 973 2451 
Q 1344 2739 1786 2739 
Q 2349 2739 2672 2380 
Q 2995 2022 2995 1402 
Q 2995 774 2669 378 
Q 2291 -90 1651 -90 
Q 870 -90 518 557 
Q 218 1107 218 1786 
Q 218 2835 915 3552 
Q 1312 3962 1731 4131 
Q 2150 4301 2854 4378 
z
M 2419 1203 
Q 2419 2445 1555 2445 
Q 1235 2445 1024 2275 
Q 813 2106 813 1702 
Q 813 954 1046 522 
Q 1280 90 1722 90 
Q 2061 90 2240 394 
Q 2419 698 2419 1203 
z
" transform="scale(0.015625)"/>
       </defs>
       <use xlink:href="#STIXGeneral-Regular-30"/>
       <use xlink:href="#STIXGeneral-Regular-2e" x="49.999985"/>
       <use xlink:href="#STIXGeneral-Regular-36" x="74.999969"/>
      </g>
     </g>
    </g>
    <g id="xtick_5">
     <g id="line2d_9">
      <path d="M 415.834392 305.152125 
L 415.834392 27.952125 
" clip-path="url(#pc91e6c23e5)" style="fill: none; stroke: #b0b0b0; stroke-width: 0.8; stroke-linecap: square"/>
     </g>
     <g id="line2d_10">
      <g>
       <use xlink:href="#m4bb1731d43" x="415.834392" y="305.152125" style="stroke: #000000; stroke-width: 0.8"/>
      </g>
     </g>
     <g id="text_5">
      <!-- 0.8 -->
      <g transform="translate(404.584392 324.445562)scale(0.18 -0.18)">
       <defs>
        <path id="STIXGeneral-Regular-38" d="M 2848 992 
Q 2848 499 2505 204 
Q 2163 -90 1587 -90 
Q 1050 -90 704 204 
Q 358 499 358 954 
Q 358 1293 524 1533 
Q 691 1773 1190 2125 
Q 710 2522 553 2765 
Q 397 3008 397 3328 
Q 397 3782 745 4054 
Q 1094 4326 1638 4326 
Q 2106 4326 2410 4060 
Q 2714 3795 2714 3411 
Q 2714 3059 2531 2848 
Q 2349 2637 1856 2374 
Q 2432 1990 2640 1689 
Q 2848 1389 2848 992 
z
M 2272 3411 
Q 2272 3744 2086 3945 
Q 1901 4147 1574 4147 
Q 1248 4147 1059 3977 
Q 870 3808 870 3513 
Q 870 3219 1059 2979 
Q 1248 2739 1670 2490 
Q 1997 2682 2134 2896 
Q 2272 3110 2272 3411 
z
M 1734 1741 
L 1357 1997 
Q 1075 1766 960 1545 
Q 845 1325 845 1011 
Q 845 576 1065 333 
Q 1286 90 1658 90 
Q 1971 90 2166 285 
Q 2362 480 2362 794 
Q 2362 1082 2214 1299 
Q 2067 1517 1734 1741 
z
" transform="scale(0.015625)"/>
       </defs>
       <use xlink:href="#STIXGeneral-Regular-30"/>
       <use xlink:href="#STIXGeneral-Regular-2e" x="49.999985"/>
       <use xlink:href="#STIXGeneral-Regular-38" x="74.999969"/>
      </g>
     </g>
    </g>
    <g id="xtick_6">
     <g id="line2d_11">
      <path d="M 497.323987 305.152125 
L 497.323987 27.952125 
" clip-path="url(#pc91e6c23e5)" style="fill: none; stroke: #b0b0b0; stroke-width: 0.8; stroke-linecap: square"/>
     </g>
     <g id="line2d_12">
      <g>
       <use xlink:href="#m4bb1731d43" x="497.323987" y="305.152125" style="stroke: #000000; stroke-width: 0.8"/>
      </g>
     </g>
     <g id="text_6">
      <!-- 1.0 -->
      <g transform="translate(486.073987 324.445562)scale(0.18 -0.18)">
       <defs>
        <path id="STIXGeneral-Regular-31" d="M 2522 0 
L 755 0 
L 755 96 
Q 1107 115 1235 227 
Q 1363 339 1363 608 
L 1363 3482 
Q 1363 3795 1171 3795 
Q 1082 3795 883 3718 
L 710 3654 
L 710 3744 
L 1856 4326 
L 1914 4307 
L 1914 486 
Q 1914 275 2042 185 
Q 2170 96 2522 96 
L 2522 0 
z
" transform="scale(0.015625)"/>
       </defs>
       <use xlink:href="#STIXGeneral-Regular-31"/>
       <use xlink:href="#STIXGeneral-Regular-2e" x="49.999985"/>
       <use xlink:href="#STIXGeneral-Regular-30" x="74.999969"/>
      </g>
     </g>
    </g>
    <g id="text_7">
     <!-- Training Environment Steps -->
     <g transform="translate(191.604688 344.645562)scale(0.18 -0.18)">
      <defs>
       <path id="STIXGeneral-Regular-54" d="M 3795 3149 
L 3642 3149 
Q 3539 3674 3353 3821 
Q 3168 3968 2656 3968 
L 2278 3968 
L 2278 710 
Q 2278 346 2387 243 
Q 2496 141 2893 122 
L 2893 0 
L 1024 0 
L 1024 122 
Q 1427 147 1526 256 
Q 1626 365 1626 787 
L 1626 3968 
L 1242 3968 
Q 723 3968 540 3817 
Q 358 3667 262 3149 
L 109 3149 
L 154 4237 
L 3750 4237 
L 3795 3149 
z
" transform="scale(0.015625)"/>
       <path id="STIXGeneral-Regular-72" d="M 1024 2931 
L 1024 2342 
Q 1267 2688 1430 2816 
Q 1594 2944 1792 2944 
Q 1958 2944 2051 2854 
Q 2144 2765 2144 2605 
Q 2144 2470 2077 2393 
Q 2010 2317 1894 2317 
Q 1773 2317 1638 2445 
Q 1536 2541 1472 2541 
Q 1338 2541 1181 2355 
Q 1024 2170 1024 2016 
L 1024 576 
Q 1024 301 1133 205 
Q 1242 109 1568 96 
L 1568 0 
L 32 0 
L 32 96 
Q 339 154 412 224 
Q 486 294 486 538 
L 486 2138 
Q 486 2349 438 2435 
Q 390 2522 269 2522 
Q 166 2522 45 2496 
L 45 2598 
Q 448 2726 992 2944 
L 1024 2931 
z
" transform="scale(0.015625)"/>
       <path id="STIXGeneral-Regular-61" d="M 2829 422 
L 2829 243 
Q 2586 -64 2253 -64 
Q 1888 -64 1843 403 
L 1837 403 
Q 1427 -64 909 -64 
Q 608 -64 422 112 
Q 237 288 237 602 
Q 237 1050 685 1350 
Q 992 1555 1837 1869 
L 1837 2214 
Q 1837 2502 1699 2646 
Q 1562 2790 1338 2790 
Q 1146 2790 1018 2697 
Q 890 2605 890 2477 
Q 890 2419 909 2348 
Q 928 2278 928 2208 
Q 928 2112 841 2029 
Q 755 1946 634 1946 
Q 525 1946 441 2029 
Q 358 2112 358 2240 
Q 358 2547 685 2752 
Q 986 2944 1421 2944 
Q 1939 2944 2176 2656 
Q 2291 2522 2323 2384 
Q 2355 2246 2355 1946 
L 2355 723 
Q 2355 301 2554 301 
Q 2682 301 2829 422 
z
M 1837 813 
L 1837 1715 
Q 1248 1510 1018 1293 
Q 800 1094 800 800 
Q 800 557 921 432 
Q 1043 307 1242 307 
Q 1453 307 1613 410 
Q 1747 506 1792 589 
Q 1837 672 1837 813 
z
" transform="scale(0.015625)"/>
       <path id="STIXGeneral-Regular-69" d="M 1152 4045 
Q 1152 3904 1056 3811 
Q 960 3718 819 3718 
Q 685 3718 592 3811 
Q 499 3904 499 4045 
Q 499 4179 595 4275 
Q 691 4371 826 4371 
Q 966 4371 1059 4275 
Q 1152 4179 1152 4045 
z
M 1619 0 
L 102 0 
L 102 96 
Q 435 115 521 211 
Q 608 307 608 666 
L 608 2118 
Q 608 2342 563 2432 
Q 518 2522 397 2522 
Q 243 2522 128 2490 
L 128 2592 
L 1120 2944 
L 1146 2918 
L 1146 672 
Q 1146 314 1226 218 
Q 1306 122 1619 96 
L 1619 0 
z
" transform="scale(0.015625)"/>
       <path id="STIXGeneral-Regular-6e" d="M 3104 0 
L 1773 0 
L 1779 96 
Q 2016 115 2096 233 
Q 2176 352 2176 672 
L 2176 1946 
Q 2176 2592 1709 2592 
Q 1549 2592 1408 2515 
Q 1267 2438 1050 2227 
L 1050 461 
Q 1050 269 1136 192 
Q 1222 115 1466 96 
L 1466 0 
L 115 0 
L 115 96 
Q 358 115 435 214 
Q 512 314 512 602 
L 512 2157 
Q 512 2394 467 2483 
Q 422 2573 288 2573 
Q 160 2573 102 2547 
L 102 2656 
Q 550 2784 979 2944 
L 1030 2925 
L 1030 2426 
L 1037 2426 
Q 1491 2944 1958 2944 
Q 2323 2944 2518 2688 
Q 2714 2432 2714 1958 
L 2714 544 
Q 2714 288 2790 205 
Q 2867 122 3104 96 
L 3104 0 
z
" transform="scale(0.015625)"/>
       <path id="STIXGeneral-Regular-67" d="M 3008 2483 
L 2477 2483 
Q 2598 2208 2598 1946 
Q 2598 1453 2265 1203 
Q 1933 954 1600 954 
Q 1530 954 1357 973 
L 1235 986 
Q 1107 947 979 812 
Q 851 678 851 582 
Q 851 435 1350 410 
L 2176 371 
Q 2528 358 2739 172 
Q 2950 -13 2950 -314 
Q 2950 -685 2566 -986 
Q 2035 -1395 1286 -1395 
Q 826 -1395 502 -1212 
Q 179 -1030 179 -774 
Q 179 -595 320 -419 
Q 461 -243 806 6 
Q 602 102 534 172 
Q 467 243 467 346 
Q 467 531 762 787 
Q 909 915 1037 1043 
Q 717 1203 579 1401 
Q 442 1600 442 1901 
Q 442 2336 752 2640 
Q 1062 2944 1510 2944 
Q 1766 2944 2022 2848 
L 2163 2797 
Q 2349 2733 2515 2733 
L 3008 2733 
L 3008 2483 
z
M 973 2163 
L 973 2144 
Q 973 1683 1155 1398 
Q 1338 1114 1632 1114 
Q 1850 1114 1978 1270 
Q 2106 1427 2106 1690 
Q 2106 2112 1914 2464 
Q 1754 2765 1446 2765 
Q 1222 2765 1097 2605 
Q 973 2445 973 2163 
z
M 2771 -410 
Q 2771 -230 2595 -163 
Q 2419 -96 1978 -96 
Q 1344 -96 941 -13 
Q 749 -243 688 -348 
Q 627 -454 627 -563 
Q 627 -774 880 -902 
Q 1133 -1030 1555 -1030 
Q 2099 -1030 2435 -860 
Q 2771 -691 2771 -410 
z
" transform="scale(0.015625)"/>
       <path id="STIXGeneral-Regular-20" transform="scale(0.015625)"/>
       <path id="STIXGeneral-Regular-45" d="M 3821 1082 
L 3526 0 
L 77 0 
L 77 122 
Q 442 147 538 252 
Q 634 358 634 730 
L 634 3520 
Q 634 3878 534 3987 
Q 435 4096 77 4115 
L 77 4237 
L 3469 4237 
L 3494 3322 
L 3334 3322 
Q 3264 3750 3085 3872 
Q 2906 3994 2349 3994 
L 1510 3994 
Q 1370 3994 1328 3952 
Q 1286 3910 1286 3763 
L 1286 2355 
L 2253 2355 
Q 2656 2355 2787 2470 
Q 2918 2586 2976 2970 
L 3123 2970 
L 3123 1472 
L 2976 1472 
Q 2918 1875 2790 1984 
Q 2662 2093 2253 2093 
L 1286 2093 
L 1286 538 
Q 1286 346 1420 291 
Q 1555 237 1933 237 
L 2163 237 
Q 2848 237 3136 403 
Q 3424 570 3642 1082 
L 3821 1082 
z
" transform="scale(0.015625)"/>
       <path id="STIXGeneral-Regular-76" d="M 3053 2880 
L 3053 2784 
Q 2906 2771 2835 2688 
Q 2765 2605 2637 2285 
L 1818 230 
Q 1690 -90 1638 -90 
Q 1587 -90 1523 77 
Q 1510 96 1497 141 
Q 1485 186 1472 211 
L 704 2048 
Q 499 2534 403 2652 
Q 307 2771 122 2784 
L 122 2880 
L 1376 2880 
L 1376 2784 
Q 1210 2771 1146 2732 
Q 1082 2694 1082 2611 
Q 1082 2509 1139 2368 
L 1792 730 
L 2426 2387 
Q 2464 2483 2464 2579 
Q 2464 2758 2163 2784 
L 2163 2880 
L 3053 2880 
z
" transform="scale(0.015625)"/>
       <path id="STIXGeneral-Regular-6f" d="M 3008 1478 
Q 3008 806 2608 371 
Q 2208 -64 1568 -64 
Q 979 -64 582 368 
Q 186 800 186 1459 
Q 186 2125 582 2534 
Q 979 2944 1626 2944 
Q 2221 2944 2614 2537 
Q 3008 2131 3008 1478 
z
M 2432 1306 
Q 2432 2035 2112 2445 
Q 1856 2765 1504 2765 
Q 1171 2765 966 2493 
Q 762 2221 762 1747 
Q 762 928 1101 435 
Q 1318 115 1677 115 
Q 2029 115 2230 432 
Q 2432 749 2432 1306 
z
" transform="scale(0.015625)"/>
       <path id="STIXGeneral-Regular-6d" d="M 4960 0 
L 3565 0 
L 3565 96 
Q 3834 122 3907 208 
Q 3981 294 3981 576 
L 3981 1894 
Q 3981 2278 3869 2444 
Q 3757 2611 3488 2611 
Q 3264 2611 3107 2521 
Q 2950 2432 2803 2221 
L 2803 608 
Q 2803 301 2896 201 
Q 2989 102 3264 96 
L 3264 0 
L 1830 0 
L 1830 96 
Q 2112 115 2189 188 
Q 2266 262 2266 550 
L 2266 1901 
Q 2266 2611 1850 2611 
Q 1670 2611 1468 2531 
Q 1267 2451 1171 2336 
Q 1088 2240 1088 2227 
L 1088 448 
Q 1088 243 1177 176 
Q 1267 109 1523 96 
L 1523 0 
L 102 0 
L 102 96 
Q 371 102 460 195 
Q 550 288 550 563 
L 550 2150 
Q 550 2387 499 2480 
Q 448 2573 326 2573 
Q 230 2573 122 2547 
L 122 2656 
Q 557 2778 1011 2944 
L 1062 2925 
L 1062 2451 
L 1075 2451 
Q 1363 2752 1584 2848 
Q 1805 2944 2054 2944 
Q 2560 2944 2733 2406 
Q 3232 2944 3776 2944 
Q 4518 2944 4518 1792 
L 4518 493 
Q 4518 282 4582 202 
Q 4646 122 4794 109 
L 4960 96 
L 4960 0 
z
" transform="scale(0.015625)"/>
       <path id="STIXGeneral-Regular-65" d="M 2611 1050 
L 2714 1005 
Q 2330 -64 1376 -64 
Q 813 -64 486 329 
Q 160 723 160 1389 
Q 160 2074 525 2509 
Q 890 2944 1485 2944 
Q 2061 2944 2374 2502 
Q 2560 2246 2592 1773 
L 621 1773 
Q 646 1370 700 1158 
Q 755 947 915 730 
Q 1184 378 1626 378 
Q 1939 378 2153 531 
Q 2368 685 2611 1050 
z
M 634 1978 
L 1939 1978 
Q 1882 2381 1750 2547 
Q 1619 2714 1312 2714 
Q 1043 2714 864 2525 
Q 685 2336 634 1978 
z
" transform="scale(0.015625)"/>
       <path id="STIXGeneral-Regular-74" d="M 1702 493 
L 1786 422 
Q 1478 -64 1011 -64 
Q 448 -64 448 749 
L 448 2675 
L 109 2675 
Q 83 2694 83 2720 
Q 83 2771 192 2842 
Q 435 2982 813 3526 
Q 826 3546 874 3606 
Q 922 3667 941 3706 
Q 986 3706 986 3622 
L 986 2880 
L 1632 2880 
L 1632 2675 
L 986 2675 
L 986 845 
Q 986 538 1062 403 
Q 1139 269 1318 269 
Q 1510 269 1702 493 
z
" transform="scale(0.015625)"/>
       <path id="STIXGeneral-Regular-53" d="M 3002 2963 
L 2842 2963 
Q 2733 3360 2579 3565 
Q 2189 4064 1651 4064 
Q 1357 4064 1181 3894 
Q 1005 3725 1005 3456 
Q 1005 3328 1069 3206 
Q 1133 3085 1206 2998 
Q 1280 2912 1465 2784 
Q 1651 2656 1766 2589 
Q 1882 2522 2150 2362 
Q 2669 2061 2905 1763 
Q 3142 1466 3142 1107 
Q 3142 576 2771 243 
Q 2400 -90 1837 -90 
Q 1421 -90 1082 58 
Q 915 128 781 128 
Q 704 128 653 70 
Q 602 13 602 -83 
L 461 -83 
L 275 1274 
L 416 1274 
Q 845 141 1734 141 
Q 2074 141 2285 342 
Q 2496 544 2496 858 
Q 2496 1158 2310 1363 
Q 2003 1696 1235 2106 
Q 454 2522 454 3206 
Q 454 3718 768 4022 
Q 1082 4326 1568 4326 
Q 1907 4326 2240 4186 
Q 2413 4109 2522 4109 
Q 2688 4109 2726 4326 
L 2861 4326 
L 3002 2963 
z
" transform="scale(0.015625)"/>
       <path id="STIXGeneral-Regular-70" d="M 1018 2931 
L 1018 2438 
Q 1421 2944 1939 2944 
Q 2406 2944 2707 2560 
Q 3008 2176 3008 1581 
Q 3008 883 2621 409 
Q 2234 -64 1664 -64 
Q 1466 -64 1328 -6 
Q 1190 51 1018 211 
L 1018 -794 
Q 1018 -1094 1120 -1180 
Q 1222 -1267 1581 -1274 
L 1581 -1389 
L 32 -1389 
L 32 -1280 
Q 314 -1254 397 -1171 
Q 480 -1088 480 -838 
L 480 2157 
Q 480 2381 429 2451 
Q 378 2522 218 2522 
Q 115 2522 58 2515 
L 58 2618 
Q 506 2752 979 2944 
L 1018 2931 
z
M 1018 2138 
L 1018 563 
Q 1018 422 1238 281 
Q 1459 141 1683 141 
Q 2029 141 2243 467 
Q 2458 794 2458 1325 
Q 2458 1888 2243 2224 
Q 2029 2560 1670 2560 
Q 1446 2560 1232 2419 
Q 1018 2278 1018 2138 
z
" transform="scale(0.015625)"/>
       <path id="STIXGeneral-Regular-73" d="M 998 1926 
L 1664 1523 
Q 1984 1331 2105 1164 
Q 2227 998 2227 736 
Q 2227 416 1961 176 
Q 1696 -64 1331 -64 
Q 1030 -64 864 -6 
Q 691 51 570 51 
Q 461 51 416 -26 
L 333 -26 
L 333 979 
L 435 979 
Q 538 512 730 294 
Q 922 77 1248 77 
Q 1485 77 1632 211 
Q 1779 346 1779 550 
Q 1779 845 1440 1030 
L 1094 1222 
Q 326 1651 326 2150 
Q 326 2522 566 2730 
Q 806 2938 1210 2938 
Q 1491 2938 1638 2867 
Q 1754 2816 1818 2816 
Q 1862 2816 1920 2880 
L 1990 2880 
L 2022 2010 
L 1926 2010 
Q 1818 2445 1654 2621 
Q 1491 2797 1203 2797 
Q 986 2797 854 2688 
Q 723 2579 723 2362 
Q 723 2253 796 2128 
Q 870 2003 998 1926 
z
" transform="scale(0.015625)"/>
      </defs>
      <use xlink:href="#STIXGeneral-Regular-54"/>
      <use xlink:href="#STIXGeneral-Regular-72" x="61.099991"/>
      <use xlink:href="#STIXGeneral-Regular-61" x="94.399979"/>
      <use xlink:href="#STIXGeneral-Regular-69" x="138.799973"/>
      <use xlink:href="#STIXGeneral-Regular-6e" x="166.59996"/>
      <use xlink:href="#STIXGeneral-Regular-69" x="216.599945"/>
      <use xlink:href="#STIXGeneral-Regular-6e" x="244.399933"/>
      <use xlink:href="#STIXGeneral-Regular-67" x="294.399918"/>
      <use xlink:href="#STIXGeneral-Regular-20" x="344.399902"/>
      <use xlink:href="#STIXGeneral-Regular-45" x="369.399887"/>
      <use xlink:href="#STIXGeneral-Regular-6e" x="430.499878"/>
      <use xlink:href="#STIXGeneral-Regular-76" x="480.499863"/>
      <use xlink:href="#STIXGeneral-Regular-69" x="530.499847"/>
      <use xlink:href="#STIXGeneral-Regular-72" x="558.299835"/>
      <use xlink:href="#STIXGeneral-Regular-6f" x="591.599823"/>
      <use xlink:href="#STIXGeneral-Regular-6e" x="641.599808"/>
      <use xlink:href="#STIXGeneral-Regular-6d" x="691.599792"/>
      <use xlink:href="#STIXGeneral-Regular-65" x="769.39978"/>
      <use xlink:href="#STIXGeneral-Regular-6e" x="813.799774"/>
      <use xlink:href="#STIXGeneral-Regular-74" x="863.799759"/>
      <use xlink:href="#STIXGeneral-Regular-20" x="891.599747"/>
      <use xlink:href="#STIXGeneral-Regular-53" x="916.599731"/>
      <use xlink:href="#STIXGeneral-Regular-74" x="972.199722"/>
      <use xlink:href="#STIXGeneral-Regular-65" x="999.99971"/>
      <use xlink:href="#STIXGeneral-Regular-70" x="1044.399704"/>
      <use xlink:href="#STIXGeneral-Regular-73" x="1094.399689"/>
     </g>
    </g>
    <g id="text_8">
     <!-- 1e8 -->
     <g transform="translate(490.806875 343.645562)scale(0.18 -0.18)">
      <use xlink:href="#STIXGeneral-Regular-31"/>
      <use xlink:href="#STIXGeneral-Regular-65" x="49.999985"/>
      <use xlink:href="#STIXGeneral-Regular-38" x="94.399979"/>
     </g>
    </g>
   </g>
   <g id="matplotlib.axis_2">
    <g id="ytick_1">
     <g id="line2d_13">
      <path d="M 70.4 292.552263 
L 516.8 292.552263 
" clip-path="url(#pc91e6c23e5)" style="fill: none; stroke: #b0b0b0; stroke-width: 0.8; stroke-linecap: square"/>
     </g>
     <g id="line2d_14">
      <defs>
       <path id="me42cb1abae" d="M 0 0 
L -3.5 0 
" style="stroke: #000000; stroke-width: 0.8"/>
      </defs>
      <g>
       <use xlink:href="#me42cb1abae" x="70.4" y="292.552263" style="stroke: #000000; stroke-width: 0.8"/>
      </g>
     </g>
     <g id="text_9">
      <!-- 0 -->
      <g transform="translate(54.4 298.698982)scale(0.18 -0.18)">
       <use xlink:href="#STIXGeneral-Regular-30"/>
      </g>
     </g>
    </g>
    <g id="ytick_2">
     <g id="line2d_15">
      <path d="M 70.4 223.321655 
L 516.8 223.321655 
" clip-path="url(#pc91e6c23e5)" style="fill: none; stroke: #b0b0b0; stroke-width: 0.8; stroke-linecap: square"/>
     </g>
     <g id="line2d_16">
      <g>
       <use xlink:href="#me42cb1abae" x="70.4" y="223.321655" style="stroke: #000000; stroke-width: 0.8"/>
      </g>
     </g>
     <g id="text_10">
      <!-- 1000 -->
      <g transform="translate(27.4 229.468374)scale(0.18 -0.18)">
       <use xlink:href="#STIXGeneral-Regular-31"/>
       <use xlink:href="#STIXGeneral-Regular-30" x="49.999985"/>
       <use xlink:href="#STIXGeneral-Regular-30" x="99.999969"/>
       <use xlink:href="#STIXGeneral-Regular-30" x="149.999954"/>
      </g>
     </g>
    </g>
    <g id="ytick_3">
     <g id="line2d_17">
      <path d="M 70.4 154.091047 
L 516.8 154.091047 
" clip-path="url(#pc91e6c23e5)" style="fill: none; stroke: #b0b0b0; stroke-width: 0.8; stroke-linecap: square"/>
     </g>
     <g id="line2d_18">
      <g>
       <use xlink:href="#me42cb1abae" x="70.4" y="154.091047" style="stroke: #000000; stroke-width: 0.8"/>
      </g>
     </g>
     <g id="text_11">
      <!-- 2000 -->
      <g transform="translate(27.4 160.237766)scale(0.18 -0.18)">
       <use xlink:href="#STIXGeneral-Regular-32"/>
       <use xlink:href="#STIXGeneral-Regular-30" x="49.999985"/>
       <use xlink:href="#STIXGeneral-Regular-30" x="99.999969"/>
       <use xlink:href="#STIXGeneral-Regular-30" x="149.999954"/>
      </g>
     </g>
    </g>
    <g id="ytick_4">
     <g id="line2d_19">
      <path d="M 70.4 84.860439 
L 516.8 84.860439 
" clip-path="url(#pc91e6c23e5)" style="fill: none; stroke: #b0b0b0; stroke-width: 0.8; stroke-linecap: square"/>
     </g>
     <g id="line2d_20">
      <g>
       <use xlink:href="#me42cb1abae" x="70.4" y="84.860439" style="stroke: #000000; stroke-width: 0.8"/>
      </g>
     </g>
     <g id="text_12">
      <!-- 3000 -->
      <g transform="translate(27.4 91.007158)scale(0.18 -0.18)">
       <defs>
        <path id="STIXGeneral-Regular-33" d="M 390 3264 
L 288 3290 
Q 435 3770 748 4048 
Q 1062 4326 1542 4326 
Q 1990 4326 2265 4083 
Q 2541 3840 2541 3450 
Q 2541 2925 1946 2566 
Q 2298 2413 2477 2227 
Q 2758 1914 2758 1402 
Q 2758 890 2464 506 
Q 2246 211 1840 60 
Q 1434 -90 979 -90 
Q 262 -90 262 275 
Q 262 378 339 442 
Q 416 506 525 506 
Q 685 506 915 339 
Q 1197 141 1466 141 
Q 1818 141 2058 425 
Q 2298 710 2298 1120 
Q 2298 1856 1632 2048 
Q 1434 2112 979 2112 
L 979 2202 
Q 1338 2323 1517 2432 
Q 2035 2726 2035 3290 
Q 2035 3610 1852 3776 
Q 1670 3942 1344 3942 
Q 768 3942 390 3264 
z
" transform="scale(0.015625)"/>
       </defs>
       <use xlink:href="#STIXGeneral-Regular-33"/>
       <use xlink:href="#STIXGeneral-Regular-30" x="49.999985"/>
       <use xlink:href="#STIXGeneral-Regular-30" x="99.999969"/>
       <use xlink:href="#STIXGeneral-Regular-30" x="149.999954"/>
      </g>
     </g>
    </g>
    <g id="text_13">
     <!-- Average Test Return -->
     <g transform="translate(19.476562 241.533375)rotate(-90)scale(0.18 -0.18)">
      <defs>
       <path id="STIXGeneral-Regular-41" d="M 4525 0 
L 2893 0 
L 2893 122 
Q 3149 122 3245 179 
Q 3334 224 3334 333 
Q 3334 499 3213 781 
L 2950 1382 
L 1274 1382 
L 979 653 
Q 922 506 922 384 
Q 922 237 1027 179 
Q 1133 122 1370 122 
L 1370 0 
L 96 0 
L 96 122 
Q 365 147 486 316 
Q 608 486 902 1190 
L 2221 4314 
L 2349 4314 
L 3923 710 
Q 4064 378 4176 262 
Q 4288 147 4525 122 
L 4525 0 
z
M 2861 1645 
L 2118 3405 
L 1382 1645 
L 2861 1645 
z
" transform="scale(0.015625)"/>
       <path id="STIXGeneral-Regular-52" d="M 4224 0 
L 3187 0 
L 1664 1971 
L 1306 1958 
L 1306 717 
Q 1306 352 1405 249 
Q 1504 147 1875 122 
L 1875 0 
L 109 0 
L 109 122 
Q 474 154 563 262 
Q 653 371 653 794 
L 653 3526 
Q 653 3885 563 3987 
Q 474 4090 109 4115 
L 109 4237 
L 1850 4237 
Q 2726 4237 3187 3859 
Q 3501 3603 3501 3091 
Q 3501 2221 2342 2042 
L 3622 422 
Q 3757 256 3878 198 
Q 4000 141 4224 122 
L 4224 0 
z
M 1306 3731 
L 1306 2195 
Q 1766 2202 1990 2246 
Q 2214 2291 2438 2413 
Q 2803 2618 2803 3142 
Q 2803 4000 1632 4000 
Q 1459 4000 1382 3945 
Q 1306 3891 1306 3731 
z
" transform="scale(0.015625)"/>
       <path id="STIXGeneral-Regular-75" d="M 3072 320 
L 3072 230 
Q 2573 96 2195 -58 
L 2163 -38 
L 2163 486 
L 2150 486 
Q 1747 -64 1235 -64 
Q 870 -64 662 160 
Q 454 384 454 755 
L 454 2362 
Q 454 2598 371 2688 
Q 288 2778 58 2790 
L 58 2880 
L 992 2880 
L 992 813 
Q 992 595 1123 451 
Q 1254 307 1446 307 
Q 1760 307 1984 506 
Q 2067 582 2099 649 
Q 2131 717 2131 877 
L 2131 2355 
Q 2131 2605 2041 2678 
Q 1952 2752 1658 2771 
L 1658 2880 
L 2669 2880 
L 2669 685 
Q 2669 461 2742 390 
Q 2816 320 3034 320 
L 3072 320 
z
" transform="scale(0.015625)"/>
      </defs>
      <use xlink:href="#STIXGeneral-Regular-41"/>
      <use xlink:href="#STIXGeneral-Regular-76" x="72.199982"/>
      <use xlink:href="#STIXGeneral-Regular-65" x="122.199966"/>
      <use xlink:href="#STIXGeneral-Regular-72" x="166.59996"/>
      <use xlink:href="#STIXGeneral-Regular-61" x="199.899948"/>
      <use xlink:href="#STIXGeneral-Regular-67" x="244.299942"/>
      <use xlink:href="#STIXGeneral-Regular-65" x="294.299927"/>
      <use xlink:href="#STIXGeneral-Regular-20" x="338.699921"/>
      <use xlink:href="#STIXGeneral-Regular-54" x="363.699905"/>
      <use xlink:href="#STIXGeneral-Regular-65" x="424.799896"/>
      <use xlink:href="#STIXGeneral-Regular-73" x="469.19989"/>
      <use xlink:href="#STIXGeneral-Regular-74" x="508.099884"/>
      <use xlink:href="#STIXGeneral-Regular-20" x="535.899872"/>
      <use xlink:href="#STIXGeneral-Regular-52" x="560.899857"/>
      <use xlink:href="#STIXGeneral-Regular-65" x="627.599854"/>
      <use xlink:href="#STIXGeneral-Regular-74" x="671.999847"/>
      <use xlink:href="#STIXGeneral-Regular-75" x="699.799835"/>
      <use xlink:href="#STIXGeneral-Regular-72" x="749.79982"/>
      <use xlink:href="#STIXGeneral-Regular-6e" x="783.099808"/>
     </g>
    </g>
   </g>
   <g id="line2d_21">
    <path d="M 90.690909 228.432771 
L 91.505805 221.392812 
L 92.320701 224.049127 
L 93.135597 223.938813 
L 93.950493 218.770745 
L 94.765389 217.506156 
L 95.580285 213.173182 
L 96.395181 211.289817 
L 97.210077 211.593432 
L 98.024973 207.772828 
L 98.839869 209.173544 
L 99.654765 214.488456 
L 100.46966 214.79041 
L 101.284556 212.738095 
L 102.099452 214.792063 
L 102.914348 206.743895 
L 103.729244 210.2248 
L 104.54414 206.177199 
L 105.359036 206.266344 
L 106.173932 206.769705 
L 106.988828 208.603351 
L 107.803724 208.085814 
L 108.61862 204.134262 
L 109.433516 203.851225 
L 110.248412 202.55599 
L 111.063308 194.565682 
L 112.6931 180.818128 
L 113.507996 172.930341 
L 114.322892 159.38945 
L 115.137788 158.622239 
L 115.952683 153.195417 
L 116.767579 152.48883 
L 117.582475 151.499789 
L 118.397371 147.412707 
L 119.212267 144.638271 
L 120.027163 142.848529 
L 120.842059 139.802483 
L 122.471851 140.117968 
L 123.286747 141.977962 
L 124.916539 151.267029 
L 125.731435 151.324559 
L 127.361227 143.212043 
L 128.176123 141.112596 
L 128.991019 141.46158 
L 130.620811 143.77704 
L 132.250602 138.67253 
L 133.065498 138.554974 
L 133.880394 136.75285 
L 134.69529 135.976982 
L 135.510186 133.878504 
L 136.325082 133.936429 
L 137.139978 132.505671 
L 137.954874 131.357956 
L 138.76977 132.041587 
L 139.584666 131.242055 
L 140.399562 131.214559 
L 141.214458 131.758174 
L 142.029354 133.354468 
L 142.84425 134.007338 
L 143.659146 135.055062 
L 144.474042 134.711269 
L 145.288938 132.56417 
L 146.103834 133.161167 
L 146.918729 131.308245 
L 148.548521 131.198794 
L 149.363417 132.911357 
L 150.178313 131.720506 
L 150.993209 131.896839 
L 151.808105 131.39654 
L 152.623001 131.920685 
L 153.437897 132.063833 
L 154.252793 132.533046 
L 155.067689 132.750643 
L 155.882585 131.60602 
L 158.327273 131.6517 
L 159.142169 132.607823 
L 159.957065 132.194217 
L 160.771961 132.083778 
L 161.586857 133.929179 
L 162.401752 133.510222 
L 163.216648 131.879239 
L 164.031544 131.63114 
L 164.84644 132.132927 
L 165.661336 132.224063 
L 166.476232 133.932862 
L 167.291128 134.315277 
L 168.106024 133.895541 
L 168.92092 135.64514 
L 170.550712 131.522597 
L 171.365608 131.008701 
L 172.180504 130.318831 
L 172.9954 129.079882 
L 173.810296 128.927481 
L 174.625192 129.123442 
L 175.440088 130.631276 
L 176.254984 129.129692 
L 177.06988 129.151145 
L 177.884775 130.258902 
L 179.514567 133.366259 
L 180.329463 135.768145 
L 181.144359 141.119487 
L 181.959255 145.20991 
L 182.774151 143.905358 
L 183.589047 139.315349 
L 184.403943 137.920197 
L 185.218839 138.136716 
L 186.033735 141.017293 
L 186.848631 144.877577 
L 187.663527 145.59358 
L 188.478423 143.417867 
L 189.293319 140.870263 
L 190.108215 137.439928 
L 190.923111 136.245278 
L 191.738007 135.991494 
L 192.552903 139.968661 
L 194.182694 152.504139 
L 194.99759 159.508568 
L 195.812486 160.870756 
L 196.627382 159.566042 
L 197.442278 160.127751 
L 198.257174 157.768782 
L 199.07207 158.948852 
L 200.701862 152.096133 
L 201.516758 147.072697 
L 202.331654 141.00086 
L 203.14655 137.630191 
L 203.961446 137.770888 
L 204.776342 136.869527 
L 205.591238 134.939947 
L 207.22103 134.419054 
L 208.035926 133.847768 
L 208.850821 134.346338 
L 209.665717 135.544159 
L 210.480613 134.998886 
L 211.295509 136.489837 
L 212.110405 136.076389 
L 212.925301 138.591682 
L 213.740197 142.786188 
L 214.555093 139.907393 
L 215.369989 136.310633 
L 216.184885 133.370366 
L 217.814677 130.61502 
L 218.629573 131.526824 
L 219.444469 131.18113 
L 220.259365 133.017328 
L 221.074261 134.025727 
L 221.889157 133.102886 
L 223.518949 133.756759 
L 224.333844 135.989917 
L 225.14874 140.13019 
L 225.963636 140.250609 
L 226.778532 138.622045 
L 227.593428 140.285838 
L 228.408324 139.544046 
L 229.22322 139.884407 
L 230.038116 141.6105 
L 230.853012 141.991926 
L 231.667908 139.850567 
L 232.482804 140.041236 
L 233.2977 143.47208 
L 234.112596 142.025571 
L 234.927492 143.211401 
L 235.742388 149.530683 
L 236.557284 154.93106 
L 237.37218 154.418716 
L 238.187076 150.45113 
L 239.001972 144.373123 
L 239.816867 139.418713 
L 240.631763 142.05044 
L 241.446659 141.855495 
L 242.261555 138.466991 
L 243.076451 134.036872 
L 243.891347 132.564531 
L 244.706243 132.645825 
L 245.521139 132.287662 
L 246.336035 129.820275 
L 247.150931 129.387037 
L 247.965827 129.86538 
L 248.780723 129.683288 
L 249.595619 131.726942 
L 250.410515 132.779071 
L 251.225411 133.580511 
L 252.040307 134.04567 
L 252.855203 134.846327 
L 253.670099 139.83667 
L 254.484995 145.991026 
L 255.29989 149.587667 
L 256.114786 150.926702 
L 256.929682 151.959507 
L 257.744578 149.395444 
L 258.559474 147.706855 
L 259.37437 145.674437 
L 260.189266 144.044619 
L 261.004162 148.423369 
L 261.819058 147.624856 
L 263.44885 138.523059 
L 264.263746 137.190948 
L 265.078642 136.427615 
L 265.893538 137.746259 
L 266.708434 141.250285 
L 267.52333 142.863969 
L 268.338226 143.312334 
L 269.153122 144.468155 
L 269.968018 143.641846 
L 270.782913 146.129467 
L 271.597809 146.268452 
L 272.412705 145.014862 
L 273.227601 141.032863 
L 274.042497 139.920116 
L 274.857393 139.565838 
L 275.672289 141.972243 
L 276.487185 142.387485 
L 278.116977 140.06026 
L 278.931873 140.523819 
L 279.746769 141.404477 
L 280.561665 138.745215 
L 281.376561 139.107808 
L 282.191457 138.392969 
L 283.006353 136.428924 
L 283.821249 136.97202 
L 284.636145 140.87927 
L 285.451041 141.801256 
L 286.265936 144.882027 
L 287.080832 152.767308 
L 287.895728 156.048937 
L 288.710624 161.691744 
L 289.52552 163.721593 
L 290.340416 164.123379 
L 291.155312 159.574697 
L 291.970208 159.552005 
L 292.785104 160.48905 
L 293.6 163.133506 
L 294.414896 164.519925 
L 295.229792 166.366498 
L 296.044688 165.583929 
L 296.859584 163.44473 
L 297.67448 158.283901 
L 299.304272 153.135614 
L 300.119168 151.188847 
L 300.934064 150.202185 
L 301.748959 150.492111 
L 302.563855 152.03303 
L 303.378751 150.475894 
L 305.008543 143.286413 
L 305.823439 144.498501 
L 307.453231 139.939971 
L 308.268127 140.574496 
L 309.083023 138.820785 
L 309.897919 138.692301 
L 310.712815 136.518997 
L 311.527711 135.198058 
L 312.342607 132.336716 
L 313.157503 130.655426 
L 313.972399 130.02433 
L 314.787295 132.17833 
L 315.602191 133.487186 
L 316.417087 132.688924 
L 317.231982 132.719514 
L 318.046878 132.12173 
L 319.67667 130.312371 
L 320.491566 131.343336 
L 321.306462 129.816401 
L 322.121358 129.392338 
L 322.936254 129.519805 
L 323.75115 130.136487 
L 324.566046 128.804525 
L 325.380942 127.062811 
L 326.195838 127.330392 
L 327.010734 126.443131 
L 327.82563 127.159968 
L 328.640526 128.090052 
L 329.455422 131.800691 
L 330.270318 132.190029 
L 331.085214 132.166404 
L 331.90011 133.84606 
L 332.715005 134.485356 
L 333.529901 131.668499 
L 334.344797 130.246328 
L 335.159693 127.296792 
L 335.974589 126.609718 
L 336.789485 126.71976 
L 337.604381 126.337259 
L 338.419277 126.268348 
L 339.234173 128.165797 
L 340.049069 129.744658 
L 341.678861 137.478552 
L 342.493757 138.379728 
L 343.308653 137.090718 
L 344.123549 138.515844 
L 344.938445 141.677008 
L 345.753341 147.059468 
L 346.568237 153.228479 
L 347.383133 154.270616 
L 348.198028 155.85678 
L 349.012924 160.272694 
L 349.82782 163.408035 
L 350.642716 166.012305 
L 352.272508 156.153 
L 353.087404 156.031305 
L 353.9023 157.820125 
L 355.532092 148.64803 
L 356.346988 148.490164 
L 357.161884 148.043092 
L 357.97678 147.929779 
L 358.791676 148.214591 
L 359.606572 151.490605 
L 360.421468 153.140914 
L 361.236364 153.128408 
L 362.05126 156.973145 
L 362.866156 156.21108 
L 363.681051 152.506446 
L 364.495947 156.622204 
L 365.310843 157.645067 
L 366.125739 154.174301 
L 366.940635 152.766765 
L 367.755531 156.757515 
L 368.570427 155.202896 
L 369.385323 156.235679 
L 370.200219 162.75957 
L 371.015115 170.995115 
L 371.830011 173.40435 
L 372.644907 173.110515 
L 373.459803 168.484941 
L 374.274699 162.359072 
L 375.089595 162.232346 
L 375.904491 157.992086 
L 376.719387 153.090807 
L 377.534283 149.691055 
L 378.349179 145.120238 
L 379.164074 144.005119 
L 379.97897 145.763216 
L 380.793866 146.393976 
L 381.608762 143.445138 
L 382.423658 138.992472 
L 383.238554 141.829676 
L 384.05345 137.356276 
L 384.868346 136.601647 
L 385.683242 137.029464 
L 386.498138 136.755878 
L 387.313034 134.112614 
L 388.12793 132.687273 
L 389.757722 131.410329 
L 390.572618 131.309865 
L 391.387514 129.229648 
L 392.20241 126.26103 
L 393.017306 126.783081 
L 393.832202 126.119193 
L 394.647097 126.62954 
L 395.461993 126.525015 
L 396.276889 127.938677 
L 397.091785 127.795233 
L 398.721577 128.454066 
L 399.536473 129.088623 
L 400.351369 128.575242 
L 401.166265 128.356496 
L 401.981161 131.724741 
L 402.796057 138.002389 
L 403.610953 137.479629 
L 404.425849 135.498576 
L 405.240745 136.858361 
L 406.055641 139.776923 
L 406.870537 140.676368 
L 407.685433 140.237023 
L 408.500329 138.794725 
L 409.315225 138.892686 
L 410.13012 136.585127 
L 410.945016 134.981475 
L 411.759912 131.341256 
L 412.574808 130.490685 
L 414.2046 126.706998 
L 415.019496 126.955341 
L 415.834392 128.928763 
L 416.649288 127.745123 
L 417.464184 127.724662 
L 418.27908 130.245286 
L 419.093976 127.628535 
L 420.723768 127.139596 
L 421.538664 125.014117 
L 423.168456 126.170616 
L 423.983352 126.905398 
L 424.798248 126.287289 
L 425.613143 126.152355 
L 426.428039 127.016886 
L 427.242935 125.690183 
L 428.057831 125.905942 
L 428.872727 124.82944 
L 429.687623 125.103562 
L 430.502519 124.199227 
L 431.317415 128.525113 
L 432.132311 129.065083 
L 432.947207 126.29395 
L 434.576999 125.24997 
L 436.206791 124.857268 
L 437.021687 123.884472 
L 437.836583 123.448971 
L 438.651479 122.145696 
L 439.466375 121.335288 
L 440.281271 121.298231 
L 441.096166 121.933761 
L 441.911062 121.656145 
L 442.725958 120.927401 
L 444.35575 120.294731 
L 446.800438 120.292652 
L 447.615334 121.265058 
L 448.43023 121.269695 
L 449.245126 122.608216 
L 450.060022 123.267648 
L 450.874918 122.071909 
L 451.689814 124.108533 
L 452.50471 123.738811 
L 454.134502 123.782117 
L 454.949398 126.147337 
L 455.764294 126.008409 
L 456.579189 127.855538 
L 457.394085 127.380084 
L 458.208981 128.852107 
L 459.023877 128.646432 
L 459.838773 127.572682 
L 460.653669 127.136461 
L 461.468565 125.505484 
L 462.283461 124.372177 
L 463.098357 125.611936 
L 463.913253 127.140119 
L 464.728149 126.502578 
L 465.543045 128.046118 
L 466.357941 126.841954 
L 467.172837 129.57002 
L 467.987733 131.237114 
L 468.802629 129.697087 
L 469.617525 127.487931 
L 470.432421 124.517385 
L 471.247317 124.105384 
L 472.062212 123.922242 
L 472.877108 125.084902 
L 474.5069 126.878663 
L 475.321796 125.453914 
L 476.136692 126.65591 
L 476.951588 124.474426 
L 477.766484 122.96075 
L 478.58138 121.8813 
L 479.396276 121.867834 
L 480.211172 122.260893 
L 481.026068 122.175489 
L 481.840964 121.135912 
L 482.65586 119.692216 
L 483.470756 119.870508 
L 484.285652 119.596303 
L 485.100548 119.017234 
L 486.73034 118.661474 
L 487.545235 118.662386 
L 488.360131 118.813354 
L 489.175027 118.450427 
L 489.989923 118.393944 
L 491.619715 118.567957 
L 492.434611 118.342206 
L 493.249507 118.643476 
L 494.879299 118.61255 
L 495.694195 118.302882 
L 496.509091 118.380353 
L 496.509091 118.380353 
" clip-path="url(#pc91e6c23e5)" style="fill: none; stroke: #1f77b4; stroke-width: 1.5; stroke-linecap: square"/>
   </g>
   <g id="line2d_22">
    <path d="M 90.690909 287.761659 
L 91.505805 288.011029 
L 92.320701 287.440193 
L 93.135597 287.443585 
L 93.950493 287.725943 
L 94.765389 288.394284 
L 95.580285 288.11534 
L 96.395181 284.923958 
L 97.210077 286.166216 
L 98.024973 286.817472 
L 98.839869 283.846344 
L 99.654765 276.395059 
L 100.46966 280.783455 
L 101.284556 278.146003 
L 102.914348 243.663683 
L 103.729244 224.042981 
L 104.54414 216.050899 
L 105.359036 220.766776 
L 106.173932 229.651195 
L 106.988828 234.470813 
L 107.803724 244.67637 
L 108.61862 245.87881 
L 109.433516 243.206484 
L 110.248412 251.182589 
L 111.063308 263.308063 
L 111.878204 269.306424 
L 112.6931 258.718926 
L 113.507996 239.979599 
L 114.322892 218.497383 
L 115.137788 203.073825 
L 116.767579 179.458036 
L 117.582475 178.484124 
L 118.397371 168.221631 
L 119.212267 159.460801 
L 120.842059 146.358196 
L 121.656955 144.24512 
L 122.471851 143.425949 
L 124.916539 88.566687 
L 125.731435 78.120176 
L 126.546331 76.608047 
L 127.361227 76.695906 
L 128.176123 88.306962 
L 128.991019 89.188847 
L 129.805915 100.889216 
L 130.620811 107.602794 
L 131.435706 112.510663 
L 132.250602 119.659758 
L 133.065498 120.577725 
L 133.880394 118.599634 
L 134.69529 119.86021 
L 136.325082 92.104876 
L 137.139978 87.556729 
L 137.954874 72.515684 
L 138.76977 61.426714 
L 139.584666 60.036318 
L 140.399562 62.123443 
L 141.214458 97.596635 
L 142.029354 124.008645 
L 142.84425 139.056125 
L 143.659146 133.526898 
L 144.474042 150.265901 
L 145.288938 130.234039 
L 146.103834 99.909903 
L 147.733625 67.958195 
L 148.548521 60.204774 
L 149.363417 58.971253 
L 150.178313 54.377112 
L 150.993209 58.075928 
L 151.808105 58.030519 
L 152.623001 49.379228 
L 153.437897 54.164436 
L 154.252793 53.727338 
L 155.067689 45.786046 
L 155.882585 40.552125 
L 156.697481 52.053059 
L 157.512377 105.869996 
L 158.327273 139.040593 
L 159.142169 129.848032 
L 159.957065 135.867375 
L 160.771961 135.771216 
L 161.586857 121.592707 
L 162.401752 129.565313 
L 163.216648 163.79762 
L 164.031544 178.849295 
L 164.84644 202.528518 
L 165.661336 216.937516 
L 166.476232 225.211582 
L 167.291128 224.888186 
L 168.106024 222.701711 
L 168.92092 213.766107 
L 169.735816 223.004971 
L 170.550712 238.048936 
L 171.365608 233.301595 
L 172.180504 229.718625 
L 172.9954 217.939402 
L 174.625192 199.18654 
L 175.440088 202.458386 
L 176.254984 181.897521 
L 177.06988 193.118191 
L 177.884775 187.296258 
L 178.699671 162.881101 
L 179.514567 160.934951 
L 180.329463 172.003369 
L 181.144359 173.352963 
L 181.959255 189.71806 
L 182.774151 200.896651 
L 183.589047 206.329016 
L 184.403943 202.430798 
L 185.218839 204.433086 
L 186.033735 214.940506 
L 186.848631 222.134367 
L 187.663527 233.621844 
L 188.478423 249.239637 
L 189.293319 251.440374 
L 190.108215 260.179484 
L 190.923111 262.870036 
L 191.738007 265.964439 
L 192.552903 270.990587 
L 194.182694 275.583237 
L 194.99759 276.456208 
L 195.812486 274.740407 
L 196.627382 272.091948 
L 197.442278 273.678509 
L 198.257174 274.908259 
L 199.07207 274.860892 
L 199.886966 274.372411 
L 200.701862 274.968032 
L 201.516758 273.337003 
L 202.331654 269.76397 
L 203.14655 271.478978 
L 203.961446 272.91731 
L 204.776342 273.763926 
L 205.591238 275.573851 
L 206.406134 276.134644 
L 207.22103 273.679959 
L 208.035926 274.142583 
L 208.850821 275.732364 
L 209.665717 276.851324 
L 210.480613 277.69747 
L 211.295509 278.057163 
L 212.925301 279.17683 
L 213.740197 279.180361 
L 214.555093 278.130889 
L 215.369989 277.683906 
L 216.184885 276.546199 
L 216.999781 276.868695 
L 217.814677 276.985077 
L 218.629573 275.013369 
L 219.444469 273.637259 
L 220.259365 274.803771 
L 221.074261 274.162838 
L 221.889157 272.514687 
L 222.704053 272.277894 
L 223.518949 267.845061 
L 225.14874 261.677428 
L 225.963636 265.274573 
L 226.778532 267.927928 
L 227.593428 269.80333 
L 228.408324 271.149648 
L 229.22322 268.729563 
L 230.038116 270.821318 
L 230.853012 272.074028 
L 231.667908 272.6612 
L 232.482804 272.903124 
L 233.2977 273.261944 
L 234.927492 275.043056 
L 235.742388 275.212526 
L 236.557284 275.849563 
L 238.187076 275.594061 
L 239.001972 274.917261 
L 239.816867 275.544647 
L 241.446659 275.972142 
L 242.261555 275.768457 
L 243.076451 275.692167 
L 243.891347 275.185137 
L 244.706243 275.16493 
L 246.336035 274.636476 
L 247.150931 275.008756 
L 247.965827 275.113525 
L 248.780723 274.937444 
L 250.410515 274.729458 
L 252.040307 273.704536 
L 252.855203 273.800667 
L 253.670099 273.590535 
L 254.484995 273.668204 
L 256.114786 272.073526 
L 256.929682 271.121775 
L 257.744578 270.673828 
L 258.559474 270.094204 
L 260.189266 271.569783 
L 261.004162 271.808413 
L 262.633954 269.605272 
L 264.263746 270.435117 
L 265.893538 269.421187 
L 266.708434 268.008923 
L 267.52333 268.324471 
L 269.153122 272.006767 
L 269.968018 273.000166 
L 271.597809 270.238709 
L 272.412705 271.38456 
L 273.227601 274.223075 
L 274.042497 274.880707 
L 274.857393 277.994045 
L 275.672289 276.553939 
L 276.487185 277.779326 
L 277.302081 276.15703 
L 278.116977 277.069615 
L 278.931873 275.393488 
L 279.746769 274.954274 
L 280.561665 274.378434 
L 281.376561 273.290849 
L 282.191457 273.228137 
L 283.006353 272.224009 
L 284.636145 271.766464 
L 285.451041 269.982337 
L 286.265936 267.596756 
L 287.080832 265.576785 
L 287.895728 264.993584 
L 288.710624 265.126938 
L 289.52552 267.635746 
L 290.340416 269.186564 
L 291.155312 272.32137 
L 291.970208 272.586207 
L 292.785104 274.171979 
L 293.6 275.092166 
L 294.414896 275.344517 
L 295.229792 274.640667 
L 296.044688 273.333129 
L 296.859584 273.959251 
L 297.67448 272.06415 
L 298.489376 272.653451 
L 300.934064 267.574305 
L 301.748959 268.342301 
L 302.563855 271.417598 
L 304.193647 274.514889 
L 305.823439 276.734145 
L 306.638335 274.877744 
L 307.453231 275.713995 
L 308.268127 277.368259 
L 309.083023 275.958769 
L 309.897919 272.51935 
L 310.712815 270.486465 
L 311.527711 270.471316 
L 312.342607 270.341137 
L 313.972399 271.402335 
L 314.787295 273.315403 
L 315.602191 273.935344 
L 316.417087 273.19235 
L 317.231982 273.006904 
L 318.046878 273.869335 
L 318.861774 272.716742 
L 319.67667 271.103973 
L 320.491566 272.71803 
L 321.306462 273.558334 
L 322.121358 270.049591 
L 322.936254 271.370363 
L 323.75115 270.74293 
L 324.566046 265.386475 
L 325.380942 265.342575 
L 326.195838 263.865078 
L 327.010734 266.67696 
L 327.82563 267.463407 
L 328.640526 267.238977 
L 329.455422 263.927187 
L 330.270318 262.450161 
L 331.085214 260.112898 
L 331.90011 254.052756 
L 332.715005 251.547382 
L 333.529901 246.467655 
L 334.344797 247.360852 
L 335.159693 242.070886 
L 335.974589 245.07186 
L 336.789485 250.547037 
L 337.604381 250.921502 
L 338.419277 246.173202 
L 340.049069 233.195659 
L 340.863965 229.449304 
L 341.678861 232.728441 
L 342.493757 233.487223 
L 343.308653 241.680048 
L 344.123549 242.858725 
L 344.938445 241.386452 
L 345.753341 238.240168 
L 346.568237 232.256015 
L 347.383133 231.408867 
L 348.198028 229.995462 
L 349.012924 224.129777 
L 349.82782 225.966016 
L 350.642716 221.000126 
L 351.457612 223.6629 
L 352.272508 232.920878 
L 353.087404 232.098158 
L 353.9023 225.854993 
L 354.717196 225.937462 
L 355.532092 219.964472 
L 356.346988 224.693785 
L 357.161884 226.614642 
L 357.97678 230.70112 
L 358.791676 239.228222 
L 359.606572 241.425066 
L 361.236364 256.677295 
L 362.05126 258.490152 
L 362.866156 259.454503 
L 363.681051 260.899156 
L 364.495947 264.070112 
L 365.310843 263.908446 
L 366.125739 266.982308 
L 366.940635 264.553584 
L 367.755531 260.616245 
L 368.570427 261.385897 
L 369.385323 262.623324 
L 370.200219 262.257466 
L 371.015115 260.421262 
L 371.830011 262.462567 
L 372.644907 267.001674 
L 373.459803 261.651444 
L 374.274699 270.626839 
L 375.089595 270.146996 
L 375.904491 274.022148 
L 376.719387 273.63618 
L 377.534283 277.258871 
L 379.164074 281.010442 
L 379.97897 280.760133 
L 380.793866 278.116248 
L 381.608762 277.549024 
L 382.423658 280.683719 
L 383.238554 274.434035 
L 384.05345 275.985939 
L 384.868346 280.237264 
L 386.498138 281.05221 
L 387.313034 279.607321 
L 388.12793 280.832534 
L 388.942826 281.420976 
L 389.757722 280.808409 
L 390.572618 279.680061 
L 391.387514 277.717173 
L 392.20241 280.060446 
L 393.017306 280.497233 
L 393.832202 280.206319 
L 394.647097 278.870226 
L 395.461993 279.314703 
L 396.276889 273.910022 
L 397.091785 277.61034 
L 397.906681 274.331639 
L 398.721577 274.488475 
L 400.351369 272.835224 
L 401.166265 273.07465 
L 401.981161 271.590281 
L 402.796057 270.3546 
L 403.610953 271.676387 
L 404.425849 275.417939 
L 405.240745 271.997482 
L 406.055641 272.968082 
L 406.870537 273.598326 
L 407.685433 270.519314 
L 409.315225 275.737448 
L 410.13012 277.654131 
L 410.945016 276.906579 
L 411.759912 277.634057 
L 412.574808 272.53432 
L 413.389704 276.163869 
L 414.2046 276.307444 
L 415.019496 271.355862 
L 415.834392 269.789785 
L 416.649288 275.024881 
L 417.464184 273.333209 
L 418.27908 272.875306 
L 419.093976 274.354659 
L 419.908872 275.491112 
L 420.723768 277.40923 
L 421.538664 274.305225 
L 422.35356 273.790498 
L 423.168456 275.603496 
L 423.983352 272.665785 
L 424.798248 276.077749 
L 425.613143 277.287276 
L 426.428039 278.968641 
L 427.242935 279.586715 
L 428.057831 281.584493 
L 428.872727 279.040347 
L 429.687623 279.981726 
L 430.502519 273.261469 
L 431.317415 268.735285 
L 432.132311 272.0943 
L 432.947207 270.473859 
L 433.762103 269.36601 
L 434.576999 270.719092 
L 435.391895 269.230048 
L 436.206791 273.393211 
L 437.021687 273.501701 
L 437.836583 269.082126 
L 438.651479 269.976779 
L 439.466375 263.861886 
L 440.281271 265.069643 
L 441.096166 265.783093 
L 441.911062 265.294222 
L 442.725958 265.800521 
L 443.540854 266.097327 
L 444.35575 264.404061 
L 445.170646 267.177327 
L 445.985542 270.425901 
L 446.800438 268.738237 
L 447.615334 269.39383 
L 448.43023 272.193397 
L 449.245126 274.453248 
L 450.060022 274.634141 
L 450.874918 275.109766 
L 451.689814 274.126461 
L 452.50471 276.125951 
L 453.319606 275.621433 
L 454.134502 273.367132 
L 454.949398 269.256236 
L 455.764294 270.440825 
L 456.579189 267.222159 
L 457.394085 266.920946 
L 458.208981 265.714381 
L 459.023877 258.855474 
L 459.838773 254.795692 
L 460.653669 261.290399 
L 461.468565 258.415758 
L 462.283461 253.601324 
L 463.098357 250.871035 
L 463.913253 249.007003 
L 464.728149 243.666043 
L 465.543045 247.057525 
L 466.357941 246.028404 
L 467.172837 252.904377 
L 467.987733 252.43301 
L 468.802629 258.997493 
L 469.617525 263.989426 
L 470.432421 264.800186 
L 472.062212 273.189905 
L 472.877108 268.557276 
L 473.692004 271.506153 
L 474.5069 270.958053 
L 475.321796 271.63061 
L 476.136692 270.826762 
L 476.951588 268.675721 
L 477.766484 267.144302 
L 478.58138 267.346426 
L 479.396276 267.671366 
L 480.211172 271.085541 
L 481.026068 272.172919 
L 481.840964 271.351591 
L 482.65586 276.86434 
L 483.470756 279.455358 
L 484.285652 280.922798 
L 485.100548 283.471042 
L 485.915444 283.605722 
L 486.73034 284.858667 
L 487.545235 285.622611 
L 488.360131 286.737642 
L 489.175027 283.61125 
L 489.989923 284.170874 
L 490.804819 284.158506 
L 491.619715 284.760024 
L 492.434611 284.79146 
L 493.249507 283.000118 
L 494.064403 283.899169 
L 494.879299 283.650176 
L 495.694195 282.941663 
L 496.509091 285.134356 
L 496.509091 285.134356 
" clip-path="url(#pc91e6c23e5)" style="fill: none; stroke: #ff7f0e; stroke-width: 1.5; stroke-linecap: square"/>
   </g>
   <g id="line2d_23">
    <path d="M 90.690909 292.55209 
L 128.176123 292.393563 
L 129.805915 292.155056 
L 130.620811 292.148531 
L 131.435706 292.28675 
L 132.250602 292.121682 
L 134.69529 292.151738 
L 136.325082 291.793214 
L 137.954874 291.864284 
L 139.584666 291.595729 
L 140.399562 291.312824 
L 142.029354 291.971232 
L 144.474042 291.783286 
L 145.288938 291.776692 
L 146.103834 291.523283 
L 146.918729 291.564214 
L 147.733625 291.413992 
L 148.548521 291.517343 
L 150.178313 290.547564 
L 150.993209 291.193664 
L 151.808105 290.586311 
L 153.437897 290.62766 
L 154.252793 290.910405 
L 155.882585 291.006868 
L 156.697481 290.580055 
L 157.512377 290.561209 
L 158.327273 290.426104 
L 159.142169 290.070898 
L 159.957065 290.154682 
L 160.771961 290.482809 
L 161.586857 290.247738 
L 163.216648 290.295972 
L 164.031544 289.996759 
L 164.84644 290.189722 
L 165.661336 289.926457 
L 166.476232 290.333139 
L 167.291128 289.998538 
L 168.106024 290.137185 
L 168.92092 289.766481 
L 170.550712 290.178474 
L 171.365608 289.785617 
L 172.180504 289.146195 
L 172.9954 289.654553 
L 173.810296 289.062646 
L 174.625192 289.164737 
L 175.440088 288.74909 
L 176.254984 288.817252 
L 177.06988 289.245824 
L 177.884775 288.05171 
L 178.699671 288.077504 
L 179.514567 287.825953 
L 180.329463 287.409603 
L 181.144359 287.21514 
L 181.959255 287.254826 
L 182.774151 287.007805 
L 183.589047 287.498037 
L 184.403943 286.911884 
L 186.033735 287.932939 
L 186.848631 287.567993 
L 187.663527 287.937442 
L 188.478423 288.452349 
L 189.293319 287.927651 
L 190.108215 288.486767 
L 191.738007 287.366315 
L 192.552903 287.183364 
L 193.367798 286.657677 
L 194.99759 286.042776 
L 195.812486 286.491091 
L 196.627382 285.856288 
L 197.442278 286.104106 
L 198.257174 285.453334 
L 199.886966 286.471876 
L 200.701862 286.553396 
L 201.516758 287.110254 
L 202.331654 287.054792 
L 203.14655 286.803086 
L 203.961446 286.984414 
L 204.776342 286.520832 
L 205.591238 287.138144 
L 206.406134 286.627246 
L 208.035926 287.350801 
L 209.665717 287.604018 
L 210.480613 287.493005 
L 211.295509 287.953732 
L 212.110405 287.911972 
L 212.925301 287.475355 
L 213.740197 286.418596 
L 214.555093 286.147886 
L 215.369989 285.713698 
L 216.184885 285.0989 
L 216.999781 284.834955 
L 217.814677 284.006734 
L 218.629573 283.885177 
L 219.444469 284.351698 
L 220.259365 284.97611 
L 221.889157 283.150415 
L 222.704053 283.960342 
L 223.518949 283.869887 
L 224.333844 284.736929 
L 225.14874 284.506099 
L 225.963636 283.843309 
L 226.778532 282.998004 
L 227.593428 283.193186 
L 228.408324 282.685157 
L 229.22322 282.797869 
L 230.038116 281.636914 
L 230.853012 282.279517 
L 231.667908 282.128014 
L 232.482804 280.787125 
L 233.2977 281.240646 
L 234.112596 280.060868 
L 234.927492 280.169885 
L 236.557284 278.824697 
L 237.37218 279.43333 
L 238.187076 280.51872 
L 239.001972 281.024563 
L 239.816867 282.076345 
L 240.631763 280.391596 
L 241.446659 280.983181 
L 242.261555 280.910106 
L 243.891347 283.790116 
L 244.706243 283.696885 
L 245.521139 283.848849 
L 246.336035 282.858182 
L 247.150931 283.880203 
L 247.965827 283.454299 
L 248.780723 283.62137 
L 249.595619 281.535846 
L 250.410515 280.680881 
L 251.225411 281.454501 
L 252.855203 279.196059 
L 253.670099 279.797778 
L 254.484995 278.858736 
L 255.29989 279.284366 
L 256.114786 279.167777 
L 256.929682 279.220214 
L 257.744578 280.182435 
L 258.559474 279.939191 
L 259.37437 279.916698 
L 260.189266 277.516032 
L 261.004162 279.263629 
L 262.633954 279.073361 
L 263.44885 279.79344 
L 264.263746 277.820804 
L 265.078642 277.634491 
L 265.893538 278.255148 
L 266.708434 278.406439 
L 267.52333 279.319812 
L 268.338226 279.379058 
L 269.153122 279.163389 
L 269.968018 277.373796 
L 270.782913 278.681071 
L 271.597809 280.331456 
L 272.412705 281.662751 
L 273.227601 283.775584 
L 274.042497 283.796343 
L 274.857393 282.977701 
L 275.672289 283.921322 
L 276.487185 283.948513 
L 277.302081 282.642726 
L 278.116977 282.038311 
L 278.931873 284.311488 
L 279.746769 283.855573 
L 281.376561 279.907107 
L 282.191457 278.432736 
L 283.006353 278.239507 
L 283.821249 276.671198 
L 284.636145 277.40357 
L 285.451041 278.444774 
L 286.265936 279.271443 
L 287.080832 279.106533 
L 287.895728 278.592089 
L 288.710624 278.74595 
L 289.52552 279.641443 
L 290.340416 280.935786 
L 291.155312 280.179385 
L 292.785104 277.294429 
L 293.6 276.365862 
L 294.414896 276.112506 
L 295.229792 276.35838 
L 296.044688 276.437737 
L 296.859584 276.647857 
L 297.67448 273.871282 
L 298.489376 274.217795 
L 299.304272 274.825553 
L 300.119168 276.870004 
L 300.934064 276.437979 
L 301.748959 276.517733 
L 302.563855 276.001816 
L 303.378751 276.107897 
L 305.008543 273.000755 
L 305.823439 273.170447 
L 306.638335 274.481131 
L 307.453231 274.431912 
L 309.897919 272.394795 
L 311.527711 273.79987 
L 313.157503 276.986198 
L 314.787295 278.282304 
L 315.602191 278.564932 
L 316.417087 278.648818 
L 317.231982 279.97522 
L 318.046878 279.973097 
L 318.861774 279.352103 
L 319.67667 277.821897 
L 320.491566 274.507771 
L 321.306462 274.283636 
L 322.121358 272.40111 
L 322.936254 272.897036 
L 323.75115 272.372666 
L 324.566046 272.723832 
L 325.380942 272.835125 
L 326.195838 275.305177 
L 327.010734 274.498997 
L 327.82563 276.066423 
L 328.640526 276.764421 
L 329.455422 277.946543 
L 330.270318 278.457414 
L 331.085214 278.461382 
L 331.90011 276.62115 
L 332.715005 276.582857 
L 333.529901 277.757433 
L 334.344797 277.54079 
L 335.159693 279.384988 
L 336.789485 279.420441 
L 337.604381 278.895936 
L 338.419277 276.494522 
L 339.234173 275.967405 
L 340.049069 275.617576 
L 340.863965 273.540304 
L 341.678861 274.723472 
L 342.493757 275.552093 
L 344.123549 272.27745 
L 344.938445 275.867655 
L 345.753341 278.283251 
L 346.568237 280.046539 
L 347.383133 281.422212 
L 348.198028 280.173856 
L 349.012924 280.447472 
L 349.82782 277.001198 
L 350.642716 277.515588 
L 351.457612 276.933964 
L 352.272508 277.80635 
L 353.087404 280.075419 
L 354.717196 281.557549 
L 356.346988 287.157508 
L 357.161884 288.561057 
L 357.97678 289.296372 
L 360.421468 287.381415 
L 361.236364 283.665324 
L 362.05126 281.330479 
L 363.681051 281.917534 
L 364.495947 283.00453 
L 365.310843 283.15833 
L 366.125739 280.827294 
L 366.940635 279.24529 
L 367.755531 279.648987 
L 368.570427 278.772536 
L 369.385323 278.336938 
L 370.200219 277.499647 
L 371.015115 278.788174 
L 371.830011 278.88898 
L 372.644907 280.361215 
L 373.459803 280.958887 
L 374.274699 279.650025 
L 375.089595 277.781369 
L 375.904491 273.519236 
L 376.719387 272.825239 
L 377.534283 274.204916 
L 378.349179 274.0409 
L 379.164074 274.10774 
L 379.97897 275.784941 
L 380.793866 273.417892 
L 381.608762 273.300028 
L 382.423658 274.451105 
L 383.238554 275.09583 
L 384.05345 275.521472 
L 384.868346 274.211373 
L 385.683242 271.967182 
L 386.498138 270.292585 
L 387.313034 270.98835 
L 388.12793 269.84135 
L 388.942826 270.034542 
L 389.757722 271.063322 
L 390.572618 270.670753 
L 391.387514 270.074043 
L 392.20241 269.721368 
L 393.017306 268.552906 
L 393.832202 269.28817 
L 394.647097 268.602877 
L 395.461993 269.303798 
L 396.276889 270.278895 
L 397.091785 270.341981 
L 397.906681 269.840379 
L 398.721577 270.627192 
L 399.536473 269.316379 
L 400.351369 268.540131 
L 401.166265 268.690654 
L 401.981161 266.702206 
L 402.796057 267.972625 
L 403.610953 268.2448 
L 404.425849 268.116746 
L 405.240745 267.107684 
L 406.055641 265.504483 
L 406.870537 265.949679 
L 407.685433 264.978586 
L 408.500329 263.075422 
L 409.315225 266.527184 
L 410.13012 268.323606 
L 410.945016 268.327444 
L 411.759912 269.256897 
L 412.574808 269.248115 
L 413.389704 269.914253 
L 414.2046 270.427436 
L 415.019496 270.420789 
L 415.834392 268.046874 
L 416.649288 269.019126 
L 417.464184 269.040375 
L 419.093976 267.16271 
L 419.908872 266.886187 
L 420.723768 268.841581 
L 421.538664 269.074482 
L 422.35356 269.011244 
L 423.168456 270.258563 
L 423.983352 272.315029 
L 424.798248 270.60521 
L 425.613143 267.69094 
L 426.428039 268.473337 
L 427.242935 266.453792 
L 428.057831 267.755488 
L 428.872727 266.828083 
L 429.687623 266.428754 
L 431.317415 268.293663 
L 432.132311 267.004505 
L 432.947207 266.71877 
L 434.576999 267.330288 
L 435.391895 270.17725 
L 436.206791 267.530941 
L 437.021687 265.991755 
L 437.836583 265.001106 
L 438.651479 266.580053 
L 439.466375 263.536076 
L 440.281271 264.587036 
L 441.096166 265.341268 
L 441.911062 263.810046 
L 442.725958 264.004064 
L 443.540854 262.933762 
L 444.35575 264.09413 
L 445.170646 264.814621 
L 445.985542 266.149733 
L 446.800438 267.737719 
L 447.615334 268.703401 
L 448.43023 270.050765 
L 449.245126 272.747049 
L 450.060022 273.239235 
L 450.874918 272.424632 
L 451.689814 272.565433 
L 452.50471 271.831168 
L 453.319606 270.01081 
L 454.134502 269.929764 
L 454.949398 270.664374 
L 455.764294 269.554037 
L 456.579189 267.398515 
L 457.394085 266.544115 
L 458.208981 265.126971 
L 459.023877 264.746419 
L 459.838773 263.89616 
L 460.653669 261.40468 
L 461.468565 261.703459 
L 462.283461 260.757904 
L 463.098357 262.352901 
L 463.913253 260.157655 
L 464.728149 259.196392 
L 465.543045 260.848623 
L 466.357941 261.722482 
L 467.172837 262.357394 
L 467.987733 262.673499 
L 468.802629 262.605248 
L 469.617525 261.932626 
L 470.432421 260.476346 
L 471.247317 260.744205 
L 472.062212 261.903959 
L 472.877108 263.613 
L 473.692004 266.659714 
L 474.5069 267.36197 
L 475.321796 267.467226 
L 476.136692 266.207956 
L 476.951588 264.542521 
L 477.766484 264.76458 
L 478.58138 263.913865 
L 481.026068 265.46334 
L 481.840964 266.733311 
L 482.65586 265.271776 
L 483.470756 264.073762 
L 484.285652 264.739708 
L 485.100548 266.487219 
L 485.915444 264.587883 
L 486.73034 264.371182 
L 487.545235 264.709174 
L 488.360131 266.226113 
L 489.175027 265.826713 
L 489.989923 266.442597 
L 490.804819 264.308014 
L 491.619715 265.046135 
L 492.434611 263.357422 
L 494.064403 262.354528 
L 494.879299 262.722493 
L 496.509091 260.465817 
L 496.509091 260.465817 
" clip-path="url(#pc91e6c23e5)" style="fill: none; stroke: #2ca02c; stroke-width: 1.5; stroke-linecap: square"/>
   </g>
   <g id="line2d_24">
    <path d="M 90.690909 289.800981 
L 91.505805 289.19609 
L 92.320701 289.184019 
L 93.950493 287.999037 
L 94.765389 286.554556 
L 95.580285 284.427225 
L 96.395181 281.11543 
L 97.210077 282.148791 
L 98.024973 281.952204 
L 98.839869 277.739849 
L 100.46966 272.224406 
L 101.284556 272.866826 
L 102.099452 272.035297 
L 102.914348 273.191605 
L 103.729244 270.229655 
L 104.54414 269.986227 
L 105.359036 266.443932 
L 106.173932 267.647016 
L 106.988828 268.444449 
L 107.803724 266.458709 
L 108.61862 261.272632 
L 109.433516 266.942748 
L 110.248412 258.946682 
L 111.063308 257.483876 
L 111.878204 253.485103 
L 112.6931 251.437625 
L 113.507996 258.094702 
L 114.322892 259.868638 
L 115.137788 260.090486 
L 115.952683 262.771434 
L 116.767579 261.239139 
L 117.582475 256.998955 
L 118.397371 261.710592 
L 119.212267 269.49599 
L 120.027163 271.571353 
L 120.842059 266.407608 
L 121.656955 266.963119 
L 122.471851 265.45053 
L 123.286747 261.421687 
L 124.916539 257.963488 
L 125.731435 255.986573 
L 127.361227 241.662157 
L 128.176123 244.272571 
L 128.991019 241.491085 
L 129.805915 250.746453 
L 130.620811 244.468099 
L 131.435706 246.085132 
L 132.250602 250.053568 
L 133.065498 246.941991 
L 133.880394 244.583713 
L 134.69529 238.448434 
L 135.510186 242.816388 
L 136.325082 229.783296 
L 137.139978 234.962641 
L 137.954874 235.789206 
L 138.76977 236.151656 
L 139.584666 241.759816 
L 140.399562 236.705601 
L 142.029354 243.044532 
L 142.84425 235.903961 
L 143.659146 242.782209 
L 144.474042 245.433268 
L 145.288938 240.311154 
L 146.103834 240.028378 
L 146.918729 241.017716 
L 147.733625 242.483297 
L 148.548521 243.019303 
L 149.363417 240.724026 
L 150.178313 241.117587 
L 150.993209 241.316281 
L 151.808105 243.669571 
L 152.623001 247.154296 
L 153.437897 243.12378 
L 155.067689 252.575146 
L 155.882585 253.538574 
L 156.697481 255.446722 
L 157.512377 256.319933 
L 158.327273 254.930642 
L 159.142169 257.87691 
L 159.957065 253.582599 
L 160.771961 254.921929 
L 161.586857 254.832064 
L 162.401752 258.316441 
L 163.216648 259.246101 
L 164.031544 256.85659 
L 164.84644 254.994253 
L 165.661336 251.89318 
L 166.476232 252.36233 
L 167.291128 246.849169 
L 168.106024 247.75787 
L 168.92092 249.74524 
L 169.735816 249.862541 
L 170.550712 249.806435 
L 171.365608 253.136436 
L 172.180504 251.06914 
L 172.9954 247.932504 
L 173.810296 247.771059 
L 174.625192 245.550482 
L 175.440088 247.267798 
L 176.254984 246.348013 
L 177.06988 248.039312 
L 177.884775 242.446398 
L 178.699671 246.312341 
L 179.514567 246.079443 
L 180.329463 243.534486 
L 181.144359 243.129366 
L 181.959255 249.1075 
L 182.774151 249.66884 
L 183.589047 249.089752 
L 184.403943 246.239994 
L 185.218839 242.921233 
L 186.033735 243.359001 
L 186.848631 239.787853 
L 187.663527 239.123057 
L 188.478423 237.778416 
L 189.293319 241.019494 
L 190.108215 238.725581 
L 190.923111 243.318212 
L 191.738007 245.081879 
L 192.552903 244.840194 
L 193.367798 249.615891 
L 194.182694 248.639725 
L 194.99759 250.914616 
L 195.812486 249.31724 
L 196.627382 248.258354 
L 197.442278 249.633438 
L 198.257174 248.9807 
L 199.07207 249.409944 
L 199.886966 254.049559 
L 200.701862 252.671558 
L 201.516758 254.363006 
L 202.331654 253.881121 
L 203.14655 250.570152 
L 203.961446 246.139438 
L 204.776342 243.746463 
L 205.591238 239.337236 
L 206.406134 239.456239 
L 207.22103 243.525574 
L 208.035926 246.947399 
L 208.850821 251.148989 
L 209.665717 254.138103 
L 210.480613 252.734025 
L 211.295509 252.114596 
L 212.110405 249.584523 
L 213.740197 251.14447 
L 215.369989 253.76404 
L 216.184885 254.037163 
L 216.999781 252.516599 
L 217.814677 251.871538 
L 218.629573 252.626666 
L 219.444469 249.985424 
L 220.259365 251.955479 
L 221.074261 252.897401 
L 221.889157 253.487486 
L 222.704053 255.322272 
L 223.518949 254.870084 
L 224.333844 253.256222 
L 225.14874 251.252266 
L 225.963636 256.280629 
L 226.778532 256.827059 
L 227.593428 251.341186 
L 228.408324 251.131191 
L 229.22322 255.430087 
L 230.038116 256.512214 
L 230.853012 255.950369 
L 231.667908 254.818925 
L 232.482804 254.695858 
L 233.2977 255.113521 
L 234.112596 252.173024 
L 234.927492 254.849645 
L 235.742388 255.761027 
L 236.557284 253.717572 
L 237.37218 256.285509 
L 238.187076 256.460691 
L 239.001972 253.730068 
L 239.816867 249.950705 
L 241.446659 249.030222 
L 242.261555 244.25215 
L 243.076451 243.125153 
L 243.891347 243.09291 
L 245.521139 249.037419 
L 246.336035 247.629554 
L 247.150931 248.462306 
L 247.965827 249.059078 
L 248.780723 246.536702 
L 249.595619 247.398078 
L 250.410515 248.060429 
L 251.225411 244.444775 
L 252.040307 247.699717 
L 252.855203 249.025374 
L 253.670099 251.001277 
L 254.484995 254.251724 
L 256.114786 254.720972 
L 256.929682 256.323371 
L 257.744578 256.237867 
L 258.559474 255.822674 
L 259.37437 255.566166 
L 260.189266 256.089249 
L 261.004162 257.623639 
L 261.819058 256.864283 
L 262.633954 254.986314 
L 263.44885 254.292262 
L 264.263746 253.402637 
L 265.078642 248.73969 
L 265.893538 250.219286 
L 266.708434 250.396518 
L 267.52333 250.94406 
L 268.338226 252.14787 
L 269.153122 255.825408 
L 269.968018 255.877624 
L 270.782913 256.723217 
L 271.597809 255.449233 
L 272.412705 255.708182 
L 273.227601 252.031367 
L 274.042497 252.754263 
L 274.857393 252.933416 
L 276.487185 256.661266 
L 277.302081 255.374573 
L 278.116977 256.154146 
L 278.931873 257.651032 
L 279.746769 257.450012 
L 280.561665 257.711635 
L 281.376561 256.276498 
L 282.191457 257.380461 
L 283.006353 256.784679 
L 283.821249 255.379302 
L 284.636145 254.972697 
L 285.451041 253.680457 
L 287.080832 249.874928 
L 287.895728 250.586335 
L 288.710624 252.183032 
L 289.52552 255.389233 
L 290.340416 256.85146 
L 291.155312 259.636994 
L 291.970208 261.306887 
L 292.785104 261.783325 
L 293.6 262.702056 
L 294.414896 260.092211 
L 295.229792 260.886356 
L 296.044688 261.271572 
L 296.859584 258.725375 
L 297.67448 257.685678 
L 298.489376 256.976749 
L 299.304272 259.715825 
L 300.119168 257.837439 
L 300.934064 257.644979 
L 301.748959 256.992442 
L 302.563855 257.051888 
L 303.378751 262.179878 
L 304.193647 258.196901 
L 305.008543 259.29549 
L 305.823439 259.775484 
L 306.638335 262.195595 
L 307.453231 262.10871 
L 308.268127 262.996858 
L 309.897919 260.373778 
L 310.712815 259.618156 
L 311.527711 257.370639 
L 313.157503 250.989722 
L 313.972399 253.417346 
L 314.787295 252.98192 
L 315.602191 253.981549 
L 316.417087 255.450672 
L 317.231982 256.227564 
L 318.046878 254.914611 
L 318.861774 255.08439 
L 319.67667 252.584875 
L 320.491566 251.342328 
L 321.306462 248.220463 
L 322.121358 252.0241 
L 322.936254 251.924597 
L 323.75115 249.747021 
L 324.566046 245.80531 
L 325.380942 244.772648 
L 326.195838 248.208274 
L 327.010734 242.962471 
L 327.82563 244.194494 
L 328.640526 246.278709 
L 329.455422 243.123938 
L 330.270318 243.656359 
L 331.085214 241.990337 
L 331.90011 243.809779 
L 332.715005 242.644717 
L 333.529901 244.267751 
L 334.344797 244.028799 
L 335.974589 237.239754 
L 336.789485 241.690734 
L 337.604381 236.184591 
L 338.419277 235.43159 
L 339.234173 241.520387 
L 340.049069 243.850378 
L 340.863965 247.15862 
L 341.678861 252.712369 
L 342.493757 255.489996 
L 343.308653 254.837042 
L 344.123549 255.021463 
L 344.938445 255.929414 
L 345.753341 255.882635 
L 346.568237 256.9264 
L 347.383133 255.925156 
L 348.198028 256.752484 
L 349.012924 258.35434 
L 349.82782 256.876597 
L 350.642716 258.237422 
L 351.457612 258.685859 
L 353.087404 260.411548 
L 353.9023 259.3373 
L 354.717196 258.988502 
L 355.532092 257.56727 
L 356.346988 259.156155 
L 357.161884 260.005099 
L 357.97678 262.489096 
L 358.791676 261.53136 
L 359.606572 264.295835 
L 360.421468 254.394913 
L 361.236364 252.554271 
L 362.05126 253.877516 
L 362.866156 253.933994 
L 363.681051 254.616519 
L 364.495947 254.359487 
L 365.310843 254.528706 
L 366.125739 248.903351 
L 366.940635 247.704079 
L 367.755531 249.761047 
L 368.570427 239.669286 
L 369.385323 238.419542 
L 370.200219 244.035664 
L 371.015115 246.22534 
L 371.830011 247.894271 
L 372.644907 251.604152 
L 373.459803 251.636919 
L 374.274699 249.670084 
L 375.089595 246.797654 
L 375.904491 248.650043 
L 376.719387 252.986132 
L 377.534283 250.664286 
L 378.349179 247.999255 
L 379.164074 250.870589 
L 379.97897 246.119162 
L 380.793866 248.446521 
L 381.608762 246.050576 
L 382.423658 249.056005 
L 383.238554 244.093012 
L 384.05345 244.201321 
L 384.868346 240.208113 
L 385.683242 243.250335 
L 386.498138 247.304605 
L 387.313034 247.655724 
L 388.12793 249.109719 
L 388.942826 244.635201 
L 389.757722 243.213337 
L 390.572618 246.261145 
L 391.387514 244.524594 
L 392.20241 244.560269 
L 393.017306 240.763477 
L 393.832202 237.54615 
L 394.647097 236.407806 
L 395.461993 239.925624 
L 396.276889 240.585566 
L 397.091785 242.360911 
L 397.906681 241.195238 
L 399.536473 243.066197 
L 400.351369 246.418856 
L 401.166265 245.791158 
L 401.981161 244.893109 
L 403.610953 248.952322 
L 404.425849 250.19344 
L 405.240745 250.553979 
L 406.055641 253.481515 
L 406.870537 254.152761 
L 407.685433 255.580679 
L 408.500329 255.612891 
L 410.13012 262.708873 
L 410.945016 264.298993 
L 411.759912 264.318853 
L 412.574808 265.811016 
L 413.389704 264.988899 
L 414.2046 263.503273 
L 415.019496 264.020969 
L 415.834392 260.760855 
L 416.649288 261.435146 
L 417.464184 261.551604 
L 418.27908 262.680023 
L 419.093976 256.902185 
L 420.723768 260.63834 
L 421.538664 260.879364 
L 422.35356 259.934893 
L 423.168456 263.712844 
L 423.983352 260.295184 
L 424.798248 257.364837 
L 425.613143 257.250597 
L 426.428039 258.866963 
L 427.242935 259.48363 
L 428.057831 264.357881 
L 428.872727 264.931588 
L 429.687623 264.28754 
L 430.502519 263.82731 
L 431.317415 264.488069 
L 433.762103 254.773462 
L 434.576999 258.294684 
L 435.391895 261.05703 
L 436.206791 260.459131 
L 437.021687 255.996722 
L 437.836583 254.063224 
L 438.651479 249.103811 
L 439.466375 249.08 
L 440.281271 247.837968 
L 441.096166 245.686754 
L 441.911062 246.6536 
L 443.540854 247.403145 
L 444.35575 249.801385 
L 445.170646 250.86463 
L 445.985542 254.392251 
L 446.800438 253.830472 
L 447.615334 253.52442 
L 448.43023 259.139031 
L 449.245126 258.581383 
L 450.874918 255.105761 
L 451.689814 254.362314 
L 452.50471 256.235677 
L 453.319606 257.8276 
L 454.134502 256.977015 
L 454.949398 256.895441 
L 455.764294 257.308658 
L 456.579189 256.672627 
L 457.394085 256.284153 
L 458.208981 255.404717 
L 459.023877 256.19316 
L 459.838773 253.44426 
L 460.653669 252.443608 
L 461.468565 250.649838 
L 462.283461 249.746673 
L 463.098357 252.056135 
L 463.913253 252.237809 
L 464.728149 247.644092 
L 465.543045 246.298932 
L 466.357941 252.378337 
L 467.172837 254.778486 
L 468.802629 256.495194 
L 469.617525 255.761143 
L 470.432421 254.166596 
L 471.247317 257.894292 
L 472.062212 258.280882 
L 472.877108 255.870962 
L 473.692004 256.392231 
L 474.5069 255.967013 
L 475.321796 256.639447 
L 476.136692 254.403447 
L 476.951588 251.03177 
L 477.766484 252.385851 
L 478.58138 248.684583 
L 479.396276 248.246741 
L 481.026068 250.949206 
L 481.840964 249.781595 
L 482.65586 249.920668 
L 483.470756 248.950223 
L 484.285652 249.348329 
L 485.100548 251.871878 
L 485.915444 251.622511 
L 486.73034 256.120637 
L 487.545235 258.349553 
L 488.360131 259.086415 
L 489.175027 256.136518 
L 489.989923 255.718001 
L 490.804819 258.925251 
L 491.619715 258.754511 
L 492.434611 259.485726 
L 493.249507 258.842356 
L 494.064403 258.920392 
L 494.879299 257.733796 
L 495.694195 257.899618 
L 496.509091 254.486525 
L 496.509091 254.486525 
" clip-path="url(#pc91e6c23e5)" style="fill: none; stroke: #d62728; stroke-width: 1.5; stroke-linecap: square"/>
   </g>
   <g id="line2d_25">
    <path d="M 90.690909 276.961093 
L 92.320701 277.126069 
L 93.135597 277.849174 
L 93.950493 278.155694 
L 94.765389 278.075116 
L 95.580285 277.374957 
L 96.395181 276.955435 
L 97.210077 276.261054 
L 99.654765 275.439421 
L 100.46966 275.382212 
L 102.099452 274.984922 
L 102.914348 275.446999 
L 104.54414 274.789742 
L 106.988828 274.403883 
L 107.803724 274.410979 
L 108.61862 274.194634 
L 109.433516 274.099018 
L 111.063308 274.452974 
L 111.878204 274.434095 
L 112.6931 274.204817 
L 114.322892 274.084749 
L 115.137788 274.043904 
L 115.952683 273.852373 
L 117.582475 273.836133 
L 118.397371 273.683671 
L 123.286747 273.563704 
L 127.361227 273.502115 
L 131.435706 273.156625 
L 134.69529 273.276723 
L 136.325082 273.080825 
L 137.139978 272.941177 
L 145.288938 272.977503 
L 146.918729 273.013614 
L 148.548521 273.053271 
L 151.808105 272.954828 
L 152.623001 272.993179 
L 153.437897 272.901815 
L 155.067689 272.906614 
L 155.882585 272.852717 
L 156.697481 272.686942 
L 157.512377 272.309016 
L 158.327273 271.680299 
L 159.142169 271.811876 
L 159.957065 272.148332 
L 161.586857 272.305092 
L 163.216648 271.914813 
L 164.031544 271.959786 
L 165.661336 271.730524 
L 166.476232 271.500287 
L 167.291128 270.884856 
L 168.106024 269.847927 
L 168.92092 270.111491 
L 170.550712 270.173949 
L 171.365608 270.609496 
L 172.180504 270.761394 
L 172.9954 269.974482 
L 173.810296 270.310694 
L 174.625192 270.962394 
L 177.06988 271.438333 
L 177.884775 271.780693 
L 178.699671 271.85524 
L 179.514567 271.731683 
L 180.329463 271.82077 
L 181.144359 271.495996 
L 181.959255 271.291276 
L 182.774151 271.435799 
L 183.589047 271.055743 
L 185.218839 271.743164 
L 186.848631 270.890213 
L 187.663527 270.075861 
L 188.478423 268.34907 
L 189.293319 267.862061 
L 190.108215 265.710971 
L 190.923111 264.586495 
L 191.738007 264.601089 
L 192.552903 263.89249 
L 193.367798 263.866694 
L 194.182694 262.396514 
L 194.99759 261.470644 
L 195.812486 260.895424 
L 197.442278 261.561436 
L 198.257174 261.50606 
L 199.07207 261.08311 
L 199.886966 261.916454 
L 200.701862 261.499836 
L 201.516758 260.551273 
L 202.331654 259.858447 
L 203.14655 258.843223 
L 203.961446 258.664961 
L 204.776342 260.023724 
L 206.406134 258.669512 
L 207.22103 258.709043 
L 208.035926 260.272655 
L 208.850821 259.642444 
L 209.665717 259.438779 
L 210.480613 258.7067 
L 211.295509 258.874861 
L 212.110405 258.272792 
L 212.925301 257.995477 
L 213.740197 257.504681 
L 215.369989 257.261127 
L 216.184885 257.197335 
L 216.999781 256.226329 
L 217.814677 255.803659 
L 218.629573 255.674347 
L 219.444469 255.391932 
L 220.259365 254.646186 
L 221.074261 255.972952 
L 221.889157 257.045095 
L 222.704053 257.884201 
L 223.518949 258.047138 
L 224.333844 258.716732 
L 225.14874 260.026232 
L 225.963636 259.654185 
L 226.778532 258.469722 
L 227.593428 258.41268 
L 228.408324 258.061671 
L 229.22322 258.594133 
L 230.038116 257.379745 
L 230.853012 258.140933 
L 231.667908 257.907635 
L 233.2977 258.212789 
L 234.927492 257.489974 
L 235.742388 257.352044 
L 236.557284 256.55214 
L 237.37218 256.870559 
L 238.187076 257.457555 
L 239.816867 255.812229 
L 240.631763 255.424078 
L 241.446659 255.541301 
L 242.261555 256.125959 
L 243.076451 255.982215 
L 243.891347 255.393776 
L 244.706243 255.378173 
L 246.336035 256.464165 
L 247.150931 256.955428 
L 247.965827 258.369034 
L 248.780723 259.107476 
L 249.595619 258.044785 
L 250.410515 258.157899 
L 251.225411 258.598165 
L 252.040307 258.23082 
L 252.855203 257.16715 
L 253.670099 256.708861 
L 254.484995 257.71976 
L 255.29989 257.06605 
L 256.114786 257.495693 
L 256.929682 257.467256 
L 257.744578 257.551948 
L 258.559474 257.850538 
L 259.37437 257.606167 
L 260.189266 257.971373 
L 261.004162 259.133811 
L 261.819058 259.39547 
L 262.633954 259.913269 
L 263.44885 259.311339 
L 264.263746 258.950064 
L 265.078642 258.354476 
L 267.52333 260.065104 
L 269.153122 261.888305 
L 269.968018 261.601692 
L 270.782913 260.892365 
L 271.597809 261.281214 
L 272.412705 262.773432 
L 273.227601 264.961475 
L 274.042497 266.469658 
L 274.857393 266.114864 
L 275.672289 265.286112 
L 276.487185 265.370778 
L 277.302081 264.968846 
L 278.116977 265.556766 
L 278.931873 265.299153 
L 279.746769 265.675803 
L 280.561665 263.816071 
L 281.376561 262.656303 
L 282.191457 262.595042 
L 283.006353 262.039794 
L 283.821249 261.893197 
L 284.636145 262.017629 
L 285.451041 261.512465 
L 286.265936 262.345365 
L 287.080832 262.740351 
L 287.895728 262.510319 
L 290.340416 266.986917 
L 291.155312 267.773772 
L 291.970208 267.922693 
L 292.785104 267.838126 
L 293.6 268.126201 
L 294.414896 268.234512 
L 295.229792 268.154311 
L 296.044688 267.836925 
L 297.67448 264.250136 
L 298.489376 263.597447 
L 299.304272 262.336865 
L 300.119168 262.825254 
L 300.934064 262.061862 
L 301.748959 261.98765 
L 302.563855 262.629352 
L 303.378751 261.120883 
L 304.193647 262.748798 
L 305.008543 264.698131 
L 305.823439 266.942567 
L 306.638335 267.936889 
L 307.453231 267.756317 
L 308.268127 268.348629 
L 309.897919 265.281621 
L 310.712815 264.32457 
L 311.527711 264.055413 
L 312.342607 263.999722 
L 313.157503 263.230556 
L 313.972399 262.095757 
L 314.787295 262.915153 
L 316.417087 262.327236 
L 317.231982 261.851292 
L 318.046878 262.38056 
L 318.861774 262.150767 
L 319.67667 262.382416 
L 320.491566 263.218785 
L 321.306462 264.570059 
L 322.936254 265.451398 
L 323.75115 265.25638 
L 324.566046 264.798018 
L 325.380942 265.744711 
L 326.195838 267.315159 
L 327.010734 268.024412 
L 327.82563 268.552489 
L 328.640526 269.465144 
L 329.455422 270.931597 
L 330.270318 271.691308 
L 331.90011 272.034618 
L 332.715005 272.464875 
L 335.159693 271.418343 
L 335.974589 271.883955 
L 336.789485 272.170251 
L 337.604381 272.67216 
L 338.419277 272.833306 
L 339.234173 272.752126 
L 340.863965 272.096398 
L 341.678861 272.217014 
L 342.493757 272.486873 
L 346.568237 270.717926 
L 347.383133 270.485224 
L 348.198028 269.901698 
L 349.012924 269.535575 
L 349.82782 268.892453 
L 350.642716 269.778239 
L 351.457612 270.435365 
L 352.272508 270.287091 
L 353.087404 270.634758 
L 353.9023 270.556586 
L 354.717196 269.897667 
L 355.532092 269.499205 
L 356.346988 269.848425 
L 357.161884 269.718973 
L 357.97678 270.06669 
L 359.606572 269.769454 
L 360.421468 270.604439 
L 361.236364 270.777325 
L 362.05126 270.73447 
L 362.866156 271.213846 
L 363.681051 271.226016 
L 364.495947 271.438577 
L 366.940635 271.116351 
L 368.570427 269.702097 
L 369.385323 269.827448 
L 370.200219 270.524531 
L 371.015115 270.974672 
L 372.644907 271.059729 
L 373.459803 271.623728 
L 374.274699 272.011195 
L 375.089595 272.237388 
L 375.904491 272.103934 
L 376.719387 272.184528 
L 379.164074 270.866643 
L 379.97897 271.33792 
L 381.608762 271.704449 
L 382.423658 271.808118 
L 383.238554 271.757748 
L 384.05345 271.486835 
L 384.868346 271.744771 
L 385.683242 271.432509 
L 386.498138 270.939854 
L 387.313034 271.479985 
L 388.942826 271.869876 
L 389.757722 272.360383 
L 390.572618 272.492699 
L 391.387514 271.890506 
L 392.20241 272.06591 
L 393.017306 272.082316 
L 393.832202 272.25576 
L 394.647097 272.610622 
L 395.461993 272.83861 
L 396.276889 272.902231 
L 397.906681 273.17702 
L 398.721577 272.78515 
L 399.536473 272.826093 
L 400.351369 272.609667 
L 401.166265 272.613003 
L 402.796057 271.669124 
L 405.240745 271.437574 
L 406.870537 271.842278 
L 407.685433 271.465687 
L 408.500329 271.417811 
L 409.315225 271.650967 
L 410.13012 270.716427 
L 411.759912 270.069795 
L 412.574808 270.239547 
L 413.389704 269.968692 
L 415.019496 270.790867 
L 415.834392 270.805391 
L 416.649288 269.979266 
L 417.464184 269.7068 
L 418.27908 269.710951 
L 419.093976 269.15607 
L 419.908872 268.829665 
L 420.723768 268.24109 
L 421.538664 267.905477 
L 422.35356 267.40952 
L 423.168456 267.64183 
L 423.983352 266.942275 
L 424.798248 266.531496 
L 425.613143 266.373976 
L 427.242935 266.628892 
L 428.057831 265.723744 
L 430.502519 265.378874 
L 431.317415 265.599187 
L 432.132311 265.184901 
L 432.947207 265.717794 
L 434.576999 265.468947 
L 435.391895 264.997735 
L 437.021687 265.094725 
L 437.836583 265.897914 
L 438.651479 265.897384 
L 439.466375 266.229637 
L 440.281271 266.189321 
L 441.096166 265.900205 
L 441.911062 265.354927 
L 442.725958 265.62936 
L 443.540854 266.139084 
L 444.35575 266.474254 
L 445.985542 267.491323 
L 446.800438 267.412429 
L 447.615334 267.097384 
L 448.43023 267.322488 
L 449.245126 267.96906 
L 450.060022 267.733029 
L 450.874918 268.052771 
L 451.689814 268.242896 
L 452.50471 267.69368 
L 453.319606 267.543693 
L 454.134502 267.758701 
L 454.949398 267.720518 
L 455.764294 267.907171 
L 456.579189 267.951146 
L 457.394085 268.370786 
L 459.023877 268.147866 
L 459.838773 267.732535 
L 463.098357 267.224096 
L 463.913253 266.828017 
L 464.728149 266.628457 
L 465.543045 266.837773 
L 466.357941 267.278727 
L 467.172837 267.508713 
L 467.987733 267.265376 
L 468.802629 266.855342 
L 469.617525 266.822881 
L 470.432421 266.617539 
L 471.247317 266.608291 
L 472.062212 266.001622 
L 472.877108 266.162013 
L 473.692004 266.054689 
L 474.5069 266.414969 
L 475.321796 266.952896 
L 476.136692 267.687918 
L 477.766484 267.94231 
L 479.396276 267.914262 
L 480.211172 268.533844 
L 481.840964 269.425816 
L 482.65586 269.314186 
L 484.285652 268.413164 
L 485.915444 267.996656 
L 487.545235 268.31727 
L 488.360131 268.654551 
L 489.989923 267.245296 
L 490.804819 266.741751 
L 491.619715 266.045577 
L 492.434611 265.678442 
L 493.249507 265.789743 
L 494.064403 265.276152 
L 494.879299 265.540096 
L 495.694195 265.389824 
L 496.509091 265.359869 
L 496.509091 265.359869 
" clip-path="url(#pc91e6c23e5)" style="fill: none; stroke: #9467bd; stroke-width: 1.5; stroke-linecap: square"/>
   </g>
   <g id="patch_3">
    <path d="M 70.4 305.152125 
L 70.4 27.952125 
" style="fill: none; stroke: #000000; stroke-width: 0.8; stroke-linejoin: miter; stroke-linecap: square"/>
   </g>
   <g id="patch_4">
    <path d="M 516.8 305.152125 
L 516.8 27.952125 
" style="fill: none; stroke: #000000; stroke-width: 0.8; stroke-linejoin: miter; stroke-linecap: square"/>
   </g>
   <g id="patch_5">
    <path d="M 70.4 305.152125 
L 516.8 305.152125 
" style="fill: none; stroke: #000000; stroke-width: 0.8; stroke-linejoin: miter; stroke-linecap: square"/>
   </g>
   <g id="patch_6">
    <path d="M 70.4 27.952125 
L 516.8 27.952125 
" style="fill: none; stroke: #000000; stroke-width: 0.8; stroke-linejoin: miter; stroke-linecap: square"/>
   </g>
   <g id="text_14">
    <!-- ML10 Meta Testing -->
    <g transform="translate(206.604313 21.952125)scale(0.216 -0.216)">
     <defs>
      <path id="STIXGeneral-Regular-4d" d="M 5530 0 
L 3738 0 
L 3738 122 
Q 4115 147 4214 265 
Q 4314 384 4314 787 
L 4314 3661 
L 2682 0 
L 2592 0 
L 979 3514 
L 979 966 
Q 979 448 1088 294 
Q 1197 141 1574 122 
L 1574 0 
L 77 0 
L 77 122 
Q 358 141 480 205 
Q 602 269 650 432 
Q 698 595 698 966 
L 698 3514 
Q 698 3878 589 3984 
Q 480 4090 90 4115 
L 90 4237 
L 1357 4237 
L 2835 1024 
L 4250 4237 
L 5523 4237 
L 5523 4115 
Q 5178 4109 5072 3993 
Q 4966 3878 4966 3520 
L 4966 717 
Q 4966 378 5072 262 
Q 5178 147 5530 122 
L 5530 0 
z
" transform="scale(0.015625)"/>
      <path id="STIXGeneral-Regular-4c" d="M 3827 1114 
L 3520 0 
L 77 0 
L 77 122 
Q 429 141 531 256 
Q 634 371 634 736 
L 634 3494 
Q 634 3872 541 3981 
Q 448 4090 77 4115 
L 77 4237 
L 1888 4237 
L 1888 4115 
Q 1498 4090 1392 3984 
Q 1286 3878 1286 3507 
L 1286 538 
Q 1286 358 1398 304 
Q 1510 250 1862 250 
L 2310 250 
Q 3085 250 3392 640 
Q 3520 813 3661 1114 
L 3827 1114 
z
" transform="scale(0.015625)"/>
     </defs>
     <use xlink:href="#STIXGeneral-Regular-4d"/>
     <use xlink:href="#STIXGeneral-Regular-4c" x="88.899994"/>
     <use xlink:href="#STIXGeneral-Regular-31" x="149.999985"/>
     <use xlink:href="#STIXGeneral-Regular-30" x="199.999969"/>
     <use xlink:href="#STIXGeneral-Regular-20" x="249.999954"/>
     <use xlink:href="#STIXGeneral-Regular-4d" x="274.999939"/>
     <use xlink:href="#STIXGeneral-Regular-65" x="363.899933"/>
     <use xlink:href="#STIXGeneral-Regular-74" x="408.299927"/>
     <use xlink:href="#STIXGeneral-Regular-61" x="436.099915"/>
     <use xlink:href="#STIXGeneral-Regular-20" x="480.499908"/>
     <use xlink:href="#STIXGeneral-Regular-54" x="505.499893"/>
     <use xlink:href="#STIXGeneral-Regular-65" x="566.599884"/>
     <use xlink:href="#STIXGeneral-Regular-73" x="610.999878"/>
     <use xlink:href="#STIXGeneral-Regular-74" x="649.899872"/>
     <use xlink:href="#STIXGeneral-Regular-69" x="677.69986"/>
     <use xlink:href="#STIXGeneral-Regular-6e" x="705.499847"/>
     <use xlink:href="#STIXGeneral-Regular-67" x="755.499832"/>
    </g>
   </g>
   <g id="legend_1">
    <g id="patch_7">
     <path d="M 226.497344 138.344312 
L 360.702656 138.344312 
Q 363.502656 138.344312 363.502656 135.544312 
L 363.502656 37.752125 
Q 363.502656 34.952125 360.702656 34.952125 
L 226.497344 34.952125 
Q 223.697344 34.952125 223.697344 37.752125 
L 223.697344 135.544312 
Q 223.697344 138.344312 226.497344 138.344312 
z
" style="fill: #ffffff; opacity: 0.8; stroke: #cccccc; stroke-linejoin: miter"/>
    </g>
    <g id="line2d_26">
     <path d="M 229.297344 45.452125 
L 243.297344 45.452125 
L 257.297344 45.452125 
" style="fill: none; stroke: #1f77b4; stroke-width: 1.5; stroke-linecap: square"/>
    </g>
    <g id="text_15">
     <!-- drawer-open-v2 -->
     <g transform="translate(268.497344 50.352125)scale(0.14 -0.14)">
      <defs>
       <path id="STIXGeneral-Regular-64" d="M 3142 269 
L 2202 -64 
L 2176 -45 
L 2176 365 
Q 1869 -64 1357 -64 
Q 826 -64 499 317 
Q 173 698 173 1312 
Q 173 1990 563 2467 
Q 954 2944 1504 2944 
Q 1850 2944 2176 2669 
L 2176 3667 
Q 2176 3866 2118 3930 
Q 2061 3994 1882 3994 
Q 1792 3994 1741 3987 
L 1741 4090 
Q 2323 4243 2682 4371 
L 2714 4358 
L 2714 730 
Q 2714 506 2768 435 
Q 2822 365 2995 365 
Q 3034 365 3142 371 
L 3142 269 
z
M 2176 653 
L 2176 2125 
Q 2176 2381 1981 2573 
Q 1786 2765 1523 2765 
Q 1158 2765 940 2438 
Q 723 2112 723 1568 
Q 723 979 963 624 
Q 1203 269 1606 269 
Q 1907 269 2080 474 
Q 2176 582 2176 653 
z
" transform="scale(0.015625)"/>
       <path id="STIXGeneral-Regular-77" d="M 4442 2880 
L 4442 2784 
Q 4346 2752 4301 2691 
Q 4256 2630 4179 2438 
L 3296 224 
Q 3168 -90 3117 -90 
Q 3085 -90 3062 -48 
Q 3040 -6 2963 186 
L 2381 1696 
L 1664 160 
Q 1549 -90 1504 -90 
Q 1446 -90 1338 192 
L 474 2381 
Q 378 2630 314 2700 
Q 250 2771 134 2784 
L 134 2880 
L 1286 2880 
L 1286 2784 
Q 1120 2765 1056 2720 
Q 992 2675 992 2573 
Q 992 2477 1030 2381 
L 1664 710 
L 2246 1984 
L 2118 2342 
Q 2029 2598 1942 2681 
Q 1856 2765 1677 2784 
L 1677 2880 
L 2976 2880 
L 2976 2784 
Q 2752 2752 2678 2707 
Q 2605 2662 2605 2560 
Q 2605 2458 2714 2176 
L 3251 742 
L 3827 2163 
Q 3936 2432 3936 2592 
Q 3936 2669 3875 2710 
Q 3814 2752 3654 2784 
L 3654 2880 
L 4442 2880 
z
" transform="scale(0.015625)"/>
       <path id="STIXGeneral-Regular-2d" d="M 1824 1242 
L 250 1242 
L 250 1645 
L 1824 1645 
L 1824 1242 
z
" transform="scale(0.015625)"/>
      </defs>
      <use xlink:href="#STIXGeneral-Regular-64"/>
      <use xlink:href="#STIXGeneral-Regular-72" x="49.999985"/>
      <use xlink:href="#STIXGeneral-Regular-61" x="83.299973"/>
      <use xlink:href="#STIXGeneral-Regular-77" x="127.699966"/>
      <use xlink:href="#STIXGeneral-Regular-65" x="199.899948"/>
      <use xlink:href="#STIXGeneral-Regular-72" x="244.299942"/>
      <use xlink:href="#STIXGeneral-Regular-2d" x="277.59993"/>
      <use xlink:href="#STIXGeneral-Regular-6f" x="310.899918"/>
      <use xlink:href="#STIXGeneral-Regular-70" x="360.899902"/>
      <use xlink:href="#STIXGeneral-Regular-65" x="410.899887"/>
      <use xlink:href="#STIXGeneral-Regular-6e" x="455.299881"/>
      <use xlink:href="#STIXGeneral-Regular-2d" x="505.299866"/>
      <use xlink:href="#STIXGeneral-Regular-76" x="538.599854"/>
      <use xlink:href="#STIXGeneral-Regular-32" x="588.599838"/>
     </g>
    </g>
    <g id="line2d_27">
     <path d="M 229.297344 65.290562 
L 243.297344 65.290562 
L 257.297344 65.290562 
" style="fill: none; stroke: #ff7f0e; stroke-width: 1.5; stroke-linecap: square"/>
    </g>
    <g id="text_16">
     <!-- door-close-v2 -->
     <g transform="translate(268.497344 70.190562)scale(0.14 -0.14)">
      <defs>
       <path id="STIXGeneral-Regular-63" d="M 2547 998 
L 2637 941 
Q 2362 403 2112 205 
Q 1786 -64 1376 -64 
Q 845 -64 502 336 
Q 160 736 160 1357 
Q 160 2170 698 2618 
Q 1094 2944 1562 2944 
Q 1965 2944 2256 2749 
Q 2547 2554 2547 2285 
Q 2547 2176 2457 2096 
Q 2368 2016 2246 2016 
Q 2022 2016 1939 2310 
L 1901 2451 
Q 1850 2630 1773 2694 
Q 1696 2758 1523 2758 
Q 1133 2758 893 2451 
Q 653 2144 653 1645 
Q 653 1094 928 745 
Q 1203 397 1645 397 
Q 1920 397 2118 528 
Q 2317 659 2547 998 
z
" transform="scale(0.015625)"/>
       <path id="STIXGeneral-Regular-6c" d="M 1645 0 
L 134 0 
L 134 96 
Q 435 122 531 221 
Q 627 320 627 589 
L 627 3590 
Q 627 3821 569 3910 
Q 512 4000 358 4000 
Q 224 4000 122 3987 
L 122 4090 
Q 730 4237 1133 4371 
L 1165 4346 
L 1165 557 
Q 1165 288 1254 201 
Q 1344 115 1645 96 
L 1645 0 
z
" transform="scale(0.015625)"/>
      </defs>
      <use xlink:href="#STIXGeneral-Regular-64"/>
      <use xlink:href="#STIXGeneral-Regular-6f" x="49.999985"/>
      <use xlink:href="#STIXGeneral-Regular-6f" x="99.999969"/>
      <use xlink:href="#STIXGeneral-Regular-72" x="149.999954"/>
      <use xlink:href="#STIXGeneral-Regular-2d" x="183.299942"/>
      <use xlink:href="#STIXGeneral-Regular-63" x="216.59993"/>
      <use xlink:href="#STIXGeneral-Regular-6c" x="260.999924"/>
      <use xlink:href="#STIXGeneral-Regular-6f" x="288.799911"/>
      <use xlink:href="#STIXGeneral-Regular-73" x="338.799896"/>
      <use xlink:href="#STIXGeneral-Regular-65" x="377.69989"/>
      <use xlink:href="#STIXGeneral-Regular-2d" x="422.099884"/>
      <use xlink:href="#STIXGeneral-Regular-76" x="455.399872"/>
      <use xlink:href="#STIXGeneral-Regular-32" x="505.399857"/>
     </g>
    </g>
    <g id="line2d_28">
     <path d="M 229.297344 85.129 
L 243.297344 85.129 
L 257.297344 85.129 
" style="fill: none; stroke: #2ca02c; stroke-width: 1.5; stroke-linecap: square"/>
    </g>
    <g id="text_17">
     <!-- shelf-place-v2 -->
     <g transform="translate(268.497344 90.029)scale(0.14 -0.14)">
      <defs>
       <path id="STIXGeneral-Regular-68" d="M 3117 0 
L 1760 0 
L 1760 96 
Q 2042 128 2118 224 
Q 2195 320 2195 653 
L 2195 1920 
Q 2195 2598 1722 2598 
Q 1530 2598 1370 2508 
Q 1210 2419 1005 2195 
L 1005 653 
Q 1005 320 1081 224 
Q 1158 128 1440 96 
L 1440 0 
L 58 0 
L 58 96 
Q 333 134 400 224 
Q 467 314 467 653 
L 467 3667 
Q 467 3872 406 3933 
Q 346 3994 141 3994 
Q 83 3994 64 3987 
L 64 4090 
L 237 4141 
Q 730 4288 973 4371 
L 1005 4352 
L 1005 2406 
Q 1229 2694 1446 2819 
Q 1664 2944 1946 2944 
Q 2733 2944 2733 1926 
L 2733 653 
Q 2733 320 2793 233 
Q 2854 147 3117 96 
L 3117 0 
z
" transform="scale(0.015625)"/>
       <path id="STIXGeneral-Regular-66" d="M 134 2880 
L 659 2880 
Q 666 3264 710 3478 
Q 755 3693 883 3910 
Q 1152 4371 1786 4371 
Q 2074 4371 2262 4259 
Q 2451 4147 2451 3974 
Q 2451 3866 2374 3789 
Q 2298 3712 2182 3712 
Q 2029 3712 1894 3942 
Q 1741 4192 1555 4192 
Q 1197 4192 1197 3622 
L 1197 2880 
L 1978 2880 
L 1978 2675 
L 1197 2675 
L 1197 666 
Q 1197 307 1299 208 
Q 1402 109 1792 96 
L 1792 0 
L 128 0 
L 128 96 
Q 474 115 566 214 
Q 659 314 659 666 
L 659 2675 
L 134 2675 
L 134 2880 
z
" transform="scale(0.015625)"/>
      </defs>
      <use xlink:href="#STIXGeneral-Regular-73"/>
      <use xlink:href="#STIXGeneral-Regular-68" x="38.899994"/>
      <use xlink:href="#STIXGeneral-Regular-65" x="88.899979"/>
      <use xlink:href="#STIXGeneral-Regular-6c" x="133.299973"/>
      <use xlink:href="#STIXGeneral-Regular-66" x="161.09996"/>
      <use xlink:href="#STIXGeneral-Regular-2d" x="194.399948"/>
      <use xlink:href="#STIXGeneral-Regular-70" x="227.699936"/>
      <use xlink:href="#STIXGeneral-Regular-6c" x="277.699921"/>
      <use xlink:href="#STIXGeneral-Regular-61" x="305.499908"/>
      <use xlink:href="#STIXGeneral-Regular-63" x="349.899902"/>
      <use xlink:href="#STIXGeneral-Regular-65" x="394.299896"/>
      <use xlink:href="#STIXGeneral-Regular-2d" x="438.69989"/>
      <use xlink:href="#STIXGeneral-Regular-76" x="471.999878"/>
      <use xlink:href="#STIXGeneral-Regular-32" x="521.999863"/>
     </g>
    </g>
    <g id="line2d_29">
     <path d="M 229.297344 104.967437 
L 243.297344 104.967437 
L 257.297344 104.967437 
" style="fill: none; stroke: #d62728; stroke-width: 1.5; stroke-linecap: square"/>
    </g>
    <g id="text_18">
     <!-- sweep-into-v2 -->
     <g transform="translate(268.497344 109.867437)scale(0.14 -0.14)">
      <use xlink:href="#STIXGeneral-Regular-73"/>
      <use xlink:href="#STIXGeneral-Regular-77" x="38.899994"/>
      <use xlink:href="#STIXGeneral-Regular-65" x="111.099976"/>
      <use xlink:href="#STIXGeneral-Regular-65" x="155.499969"/>
      <use xlink:href="#STIXGeneral-Regular-70" x="199.899963"/>
      <use xlink:href="#STIXGeneral-Regular-2d" x="249.899948"/>
      <use xlink:href="#STIXGeneral-Regular-69" x="283.199936"/>
      <use xlink:href="#STIXGeneral-Regular-6e" x="310.999924"/>
      <use xlink:href="#STIXGeneral-Regular-74" x="360.999908"/>
      <use xlink:href="#STIXGeneral-Regular-6f" x="388.799896"/>
      <use xlink:href="#STIXGeneral-Regular-2d" x="438.799881"/>
      <use xlink:href="#STIXGeneral-Regular-76" x="472.099869"/>
      <use xlink:href="#STIXGeneral-Regular-32" x="522.099854"/>
     </g>
    </g>
    <g id="line2d_30">
     <path d="M 229.297344 124.805875 
L 243.297344 124.805875 
L 257.297344 124.805875 
" style="fill: none; stroke: #9467bd; stroke-width: 1.5; stroke-linecap: square"/>
    </g>
    <g id="text_19">
     <!-- lever-pull-v2 -->
     <g transform="translate(268.497344 129.705875)scale(0.14 -0.14)">
      <use xlink:href="#STIXGeneral-Regular-6c"/>
      <use xlink:href="#STIXGeneral-Regular-65" x="27.799988"/>
      <use xlink:href="#STIXGeneral-Regular-76" x="72.199982"/>
      <use xlink:href="#STIXGeneral-Regular-65" x="122.199966"/>
      <use xlink:href="#STIXGeneral-Regular-72" x="166.59996"/>
      <use xlink:href="#STIXGeneral-Regular-2d" x="199.899948"/>
      <use xlink:href="#STIXGeneral-Regular-70" x="233.199936"/>
      <use xlink:href="#STIXGeneral-Regular-75" x="283.199921"/>
      <use xlink:href="#STIXGeneral-Regular-6c" x="333.199905"/>
      <use xlink:href="#STIXGeneral-Regular-6c" x="360.999893"/>
      <use xlink:href="#STIXGeneral-Regular-2d" x="388.799881"/>
      <use xlink:href="#STIXGeneral-Regular-76" x="422.099869"/>
      <use xlink:href="#STIXGeneral-Regular-32" x="472.099854"/>
     </g>
    </g>
   </g>
  </g>
 </g>
 <defs>
  <clipPath id="pc91e6c23e5">
   <rect x="70.4" y="27.952125" width="446.4" height="277.2"/>
  </clipPath>
 </defs>
</svg>
