<?xml version="1.0" encoding="utf-8" standalone="no"?>
<!DOCTYPE svg PUBLIC "-//W3C//DTD SVG 1.1//EN"
  "http://www.w3.org/Graphics/SVG/1.1/DTD/svg11.dtd">
<svg xmlns:xlink="http://www.w3.org/1999/xlink" width="524pt" height="355.769pt" viewBox="0 0 524 355.769" xmlns="http://www.w3.org/2000/svg" version="1.1">
 <metadata>
  <rdf:RDF xmlns:dc="http://purl.org/dc/elements/1.1/" xmlns:cc="http://creativecommons.org/ns#" xmlns:rdf="http://www.w3.org/1999/02/22-rdf-syntax-ns#">
   <cc:Work>
    <dc:type rdf:resource="http://purl.org/dc/dcmitype/StillImage"/>
    <dc:date>2021-12-11T15:59:20.636083</dc:date>
    <dc:format>image/svg+xml</dc:format>
    <dc:creator>
     <cc:Agent>
      <dc:title>Matplotlib v3.5.0, https://matplotlib.org/</dc:title>
     </cc:Agent>
    </dc:creator>
   </cc:Work>
  </rdf:RDF>
 </metadata>
 <defs>
  <style type="text/css">*{stroke-linejoin: round; stroke-linecap: butt}</style>
 </defs>
 <g id="figure_1">
  <g id="patch_1">
   <path d="M 0 355.769 
L 524 355.769 
L 524 0 
L 0 0 
z
" style="fill: #ffffff"/>
  </g>
  <g id="axes_1">
   <g id="patch_2">
    <path d="M 70.4 305.152125 
L 516.8 305.152125 
L 516.8 27.952125 
L 70.4 27.952125 
z
" style="fill: #ffffff"/>
   </g>
   <g id="matplotlib.axis_1">
    <g id="xtick_1">
     <g id="line2d_1">
      <path d="M 89.914966 305.152125 
L 89.914966 27.952125 
" clip-path="url(#p21d102d166)" style="fill: none; stroke: #b0b0b0; stroke-width: 0.8; stroke-linecap: square"/>
     </g>
     <g id="line2d_2">
      <defs>
       <path id="mb2e899ec60" d="M 0 0 
L 0 3.5 
" style="stroke: #000000; stroke-width: 0.8"/>
      </defs>
      <g>
       <use xlink:href="#mb2e899ec60" x="89.914966" y="305.152125" style="stroke: #000000; stroke-width: 0.8"/>
      </g>
     </g>
     <g id="text_1">
      <!-- 0.0 -->
      <g transform="translate(78.664966 324.445562)scale(0.18 -0.18)">
       <defs>
        <path id="STIXGeneral-Regular-30" d="M 3046 2112 
Q 3046 1683 2963 1302 
Q 2880 922 2717 602 
Q 2554 282 2266 96 
Q 1978 -90 1600 -90 
Q 1210 -90 915 108 
Q 621 307 461 640 
Q 301 973 227 1350 
Q 154 1728 154 2150 
Q 154 2746 301 3222 
Q 448 3699 790 4012 
Q 1133 4326 1626 4326 
Q 2253 4326 2649 3712 
Q 3046 3098 3046 2112 
z
M 2432 2080 
Q 2432 3091 2217 3625 
Q 2003 4160 1587 4160 
Q 1190 4160 979 3622 
Q 768 3085 768 2106 
Q 768 1120 979 598 
Q 1190 77 1600 77 
Q 2003 77 2217 598 
Q 2432 1120 2432 2080 
z
" transform="scale(0.015625)"/>
        <path id="STIXGeneral-Regular-2e" d="M 1158 275 
Q 1158 134 1052 32 
Q 947 -70 800 -70 
Q 653 -70 550 32 
Q 448 134 448 281 
Q 448 429 553 534 
Q 659 640 806 640 
Q 947 640 1052 531 
Q 1158 422 1158 275 
z
" transform="scale(0.015625)"/>
       </defs>
       <use xlink:href="#STIXGeneral-Regular-30"/>
       <use xlink:href="#STIXGeneral-Regular-2e" x="49.999985"/>
       <use xlink:href="#STIXGeneral-Regular-30" x="74.999969"/>
      </g>
     </g>
    </g>
    <g id="xtick_2">
     <g id="line2d_3">
      <path d="M 167.509265 305.152125 
L 167.509265 27.952125 
" clip-path="url(#p21d102d166)" style="fill: none; stroke: #b0b0b0; stroke-width: 0.8; stroke-linecap: square"/>
     </g>
     <g id="line2d_4">
      <g>
       <use xlink:href="#mb2e899ec60" x="167.509265" y="305.152125" style="stroke: #000000; stroke-width: 0.8"/>
      </g>
     </g>
     <g id="text_2">
      <!-- 0.2 -->
      <g transform="translate(156.259265 324.445562)scale(0.18 -0.18)">
       <defs>
        <path id="STIXGeneral-Regular-32" d="M 3034 877 
L 2688 0 
L 186 0 
L 186 77 
L 1325 1286 
Q 1773 1754 1965 2144 
Q 2157 2534 2157 2950 
Q 2157 3379 1920 3616 
Q 1683 3853 1267 3853 
Q 922 3853 720 3673 
Q 518 3494 326 3021 
L 192 3053 
Q 301 3648 630 3987 
Q 960 4326 1523 4326 
Q 2054 4326 2380 4006 
Q 2707 3686 2707 3200 
Q 2707 2477 1888 1613 
L 832 486 
L 2330 486 
Q 2541 486 2665 569 
Q 2790 653 2944 915 
L 3034 877 
z
" transform="scale(0.015625)"/>
       </defs>
       <use xlink:href="#STIXGeneral-Regular-30"/>
       <use xlink:href="#STIXGeneral-Regular-2e" x="49.999985"/>
       <use xlink:href="#STIXGeneral-Regular-32" x="74.999969"/>
      </g>
     </g>
    </g>
    <g id="xtick_3">
     <g id="line2d_5">
      <path d="M 245.103563 305.152125 
L 245.103563 27.952125 
" clip-path="url(#p21d102d166)" style="fill: none; stroke: #b0b0b0; stroke-width: 0.8; stroke-linecap: square"/>
     </g>
     <g id="line2d_6">
      <g>
       <use xlink:href="#mb2e899ec60" x="245.103563" y="305.152125" style="stroke: #000000; stroke-width: 0.8"/>
      </g>
     </g>
     <g id="text_3">
      <!-- 0.4 -->
      <g transform="translate(233.853563 324.445562)scale(0.18 -0.18)">
       <defs>
        <path id="STIXGeneral-Regular-34" d="M 3027 1069 
L 2368 1069 
L 2368 0 
L 1869 0 
L 1869 1069 
L 77 1069 
L 77 1478 
L 2086 4326 
L 2368 4326 
L 2368 1478 
L 3027 1478 
L 3027 1069 
z
M 1869 1478 
L 1869 3674 
L 333 1478 
L 1869 1478 
z
" transform="scale(0.015625)"/>
       </defs>
       <use xlink:href="#STIXGeneral-Regular-30"/>
       <use xlink:href="#STIXGeneral-Regular-2e" x="49.999985"/>
       <use xlink:href="#STIXGeneral-Regular-34" x="74.999969"/>
      </g>
     </g>
    </g>
    <g id="xtick_4">
     <g id="line2d_7">
      <path d="M 322.697862 305.152125 
L 322.697862 27.952125 
" clip-path="url(#p21d102d166)" style="fill: none; stroke: #b0b0b0; stroke-width: 0.8; stroke-linecap: square"/>
     </g>
     <g id="line2d_8">
      <g>
       <use xlink:href="#mb2e899ec60" x="322.697862" y="305.152125" style="stroke: #000000; stroke-width: 0.8"/>
      </g>
     </g>
     <g id="text_4">
      <!-- 0.6 -->
      <g transform="translate(311.447862 324.445562)scale(0.18 -0.18)">
       <defs>
        <path id="STIXGeneral-Regular-36" d="M 2854 4378 
L 2867 4275 
Q 2112 4154 1606 3664 
Q 1101 3174 973 2451 
Q 1344 2739 1786 2739 
Q 2349 2739 2672 2380 
Q 2995 2022 2995 1402 
Q 2995 774 2669 378 
Q 2291 -90 1651 -90 
Q 870 -90 518 557 
Q 218 1107 218 1786 
Q 218 2835 915 3552 
Q 1312 3962 1731 4131 
Q 2150 4301 2854 4378 
z
M 2419 1203 
Q 2419 2445 1555 2445 
Q 1235 2445 1024 2275 
Q 813 2106 813 1702 
Q 813 954 1046 522 
Q 1280 90 1722 90 
Q 2061 90 2240 394 
Q 2419 698 2419 1203 
z
" transform="scale(0.015625)"/>
       </defs>
       <use xlink:href="#STIXGeneral-Regular-30"/>
       <use xlink:href="#STIXGeneral-Regular-2e" x="49.999985"/>
       <use xlink:href="#STIXGeneral-Regular-36" x="74.999969"/>
      </g>
     </g>
    </g>
    <g id="xtick_5">
     <g id="line2d_9">
      <path d="M 400.292161 305.152125 
L 400.292161 27.952125 
" clip-path="url(#p21d102d166)" style="fill: none; stroke: #b0b0b0; stroke-width: 0.8; stroke-linecap: square"/>
     </g>
     <g id="line2d_10">
      <g>
       <use xlink:href="#mb2e899ec60" x="400.292161" y="305.152125" style="stroke: #000000; stroke-width: 0.8"/>
      </g>
     </g>
     <g id="text_5">
      <!-- 0.8 -->
      <g transform="translate(389.042161 324.445562)scale(0.18 -0.18)">
       <defs>
        <path id="STIXGeneral-Regular-38" d="M 2848 992 
Q 2848 499 2505 204 
Q 2163 -90 1587 -90 
Q 1050 -90 704 204 
Q 358 499 358 954 
Q 358 1293 524 1533 
Q 691 1773 1190 2125 
Q 710 2522 553 2765 
Q 397 3008 397 3328 
Q 397 3782 745 4054 
Q 1094 4326 1638 4326 
Q 2106 4326 2410 4060 
Q 2714 3795 2714 3411 
Q 2714 3059 2531 2848 
Q 2349 2637 1856 2374 
Q 2432 1990 2640 1689 
Q 2848 1389 2848 992 
z
M 2272 3411 
Q 2272 3744 2086 3945 
Q 1901 4147 1574 4147 
Q 1248 4147 1059 3977 
Q 870 3808 870 3513 
Q 870 3219 1059 2979 
Q 1248 2739 1670 2490 
Q 1997 2682 2134 2896 
Q 2272 3110 2272 3411 
z
M 1734 1741 
L 1357 1997 
Q 1075 1766 960 1545 
Q 845 1325 845 1011 
Q 845 576 1065 333 
Q 1286 90 1658 90 
Q 1971 90 2166 285 
Q 2362 480 2362 794 
Q 2362 1082 2214 1299 
Q 2067 1517 1734 1741 
z
" transform="scale(0.015625)"/>
       </defs>
       <use xlink:href="#STIXGeneral-Regular-30"/>
       <use xlink:href="#STIXGeneral-Regular-2e" x="49.999985"/>
       <use xlink:href="#STIXGeneral-Regular-38" x="74.999969"/>
      </g>
     </g>
    </g>
    <g id="xtick_6">
     <g id="line2d_11">
      <path d="M 477.886459 305.152125 
L 477.886459 27.952125 
" clip-path="url(#p21d102d166)" style="fill: none; stroke: #b0b0b0; stroke-width: 0.8; stroke-linecap: square"/>
     </g>
     <g id="line2d_12">
      <g>
       <use xlink:href="#mb2e899ec60" x="477.886459" y="305.152125" style="stroke: #000000; stroke-width: 0.8"/>
      </g>
     </g>
     <g id="text_6">
      <!-- 1.0 -->
      <g transform="translate(466.636459 324.445562)scale(0.18 -0.18)">
       <defs>
        <path id="STIXGeneral-Regular-31" d="M 2522 0 
L 755 0 
L 755 96 
Q 1107 115 1235 227 
Q 1363 339 1363 608 
L 1363 3482 
Q 1363 3795 1171 3795 
Q 1082 3795 883 3718 
L 710 3654 
L 710 3744 
L 1856 4326 
L 1914 4307 
L 1914 486 
Q 1914 275 2042 185 
Q 2170 96 2522 96 
L 2522 0 
z
" transform="scale(0.015625)"/>
       </defs>
       <use xlink:href="#STIXGeneral-Regular-31"/>
       <use xlink:href="#STIXGeneral-Regular-2e" x="49.999985"/>
       <use xlink:href="#STIXGeneral-Regular-30" x="74.999969"/>
      </g>
     </g>
    </g>
    <g id="text_7">
     <!-- Training Environment Steps -->
     <g transform="translate(191.604688 344.645562)scale(0.18 -0.18)">
      <defs>
       <path id="STIXGeneral-Regular-54" d="M 3795 3149 
L 3642 3149 
Q 3539 3674 3353 3821 
Q 3168 3968 2656 3968 
L 2278 3968 
L 2278 710 
Q 2278 346 2387 243 
Q 2496 141 2893 122 
L 2893 0 
L 1024 0 
L 1024 122 
Q 1427 147 1526 256 
Q 1626 365 1626 787 
L 1626 3968 
L 1242 3968 
Q 723 3968 540 3817 
Q 358 3667 262 3149 
L 109 3149 
L 154 4237 
L 3750 4237 
L 3795 3149 
z
" transform="scale(0.015625)"/>
       <path id="STIXGeneral-Regular-72" d="M 1024 2931 
L 1024 2342 
Q 1267 2688 1430 2816 
Q 1594 2944 1792 2944 
Q 1958 2944 2051 2854 
Q 2144 2765 2144 2605 
Q 2144 2470 2077 2393 
Q 2010 2317 1894 2317 
Q 1773 2317 1638 2445 
Q 1536 2541 1472 2541 
Q 1338 2541 1181 2355 
Q 1024 2170 1024 2016 
L 1024 576 
Q 1024 301 1133 205 
Q 1242 109 1568 96 
L 1568 0 
L 32 0 
L 32 96 
Q 339 154 412 224 
Q 486 294 486 538 
L 486 2138 
Q 486 2349 438 2435 
Q 390 2522 269 2522 
Q 166 2522 45 2496 
L 45 2598 
Q 448 2726 992 2944 
L 1024 2931 
z
" transform="scale(0.015625)"/>
       <path id="STIXGeneral-Regular-61" d="M 2829 422 
L 2829 243 
Q 2586 -64 2253 -64 
Q 1888 -64 1843 403 
L 1837 403 
Q 1427 -64 909 -64 
Q 608 -64 422 112 
Q 237 288 237 602 
Q 237 1050 685 1350 
Q 992 1555 1837 1869 
L 1837 2214 
Q 1837 2502 1699 2646 
Q 1562 2790 1338 2790 
Q 1146 2790 1018 2697 
Q 890 2605 890 2477 
Q 890 2419 909 2348 
Q 928 2278 928 2208 
Q 928 2112 841 2029 
Q 755 1946 634 1946 
Q 525 1946 441 2029 
Q 358 2112 358 2240 
Q 358 2547 685 2752 
Q 986 2944 1421 2944 
Q 1939 2944 2176 2656 
Q 2291 2522 2323 2384 
Q 2355 2246 2355 1946 
L 2355 723 
Q 2355 301 2554 301 
Q 2682 301 2829 422 
z
M 1837 813 
L 1837 1715 
Q 1248 1510 1018 1293 
Q 800 1094 800 800 
Q 800 557 921 432 
Q 1043 307 1242 307 
Q 1453 307 1613 410 
Q 1747 506 1792 589 
Q 1837 672 1837 813 
z
" transform="scale(0.015625)"/>
       <path id="STIXGeneral-Regular-69" d="M 1152 4045 
Q 1152 3904 1056 3811 
Q 960 3718 819 3718 
Q 685 3718 592 3811 
Q 499 3904 499 4045 
Q 499 4179 595 4275 
Q 691 4371 826 4371 
Q 966 4371 1059 4275 
Q 1152 4179 1152 4045 
z
M 1619 0 
L 102 0 
L 102 96 
Q 435 115 521 211 
Q 608 307 608 666 
L 608 2118 
Q 608 2342 563 2432 
Q 518 2522 397 2522 
Q 243 2522 128 2490 
L 128 2592 
L 1120 2944 
L 1146 2918 
L 1146 672 
Q 1146 314 1226 218 
Q 1306 122 1619 96 
L 1619 0 
z
" transform="scale(0.015625)"/>
       <path id="STIXGeneral-Regular-6e" d="M 3104 0 
L 1773 0 
L 1779 96 
Q 2016 115 2096 233 
Q 2176 352 2176 672 
L 2176 1946 
Q 2176 2592 1709 2592 
Q 1549 2592 1408 2515 
Q 1267 2438 1050 2227 
L 1050 461 
Q 1050 269 1136 192 
Q 1222 115 1466 96 
L 1466 0 
L 115 0 
L 115 96 
Q 358 115 435 214 
Q 512 314 512 602 
L 512 2157 
Q 512 2394 467 2483 
Q 422 2573 288 2573 
Q 160 2573 102 2547 
L 102 2656 
Q 550 2784 979 2944 
L 1030 2925 
L 1030 2426 
L 1037 2426 
Q 1491 2944 1958 2944 
Q 2323 2944 2518 2688 
Q 2714 2432 2714 1958 
L 2714 544 
Q 2714 288 2790 205 
Q 2867 122 3104 96 
L 3104 0 
z
" transform="scale(0.015625)"/>
       <path id="STIXGeneral-Regular-67" d="M 3008 2483 
L 2477 2483 
Q 2598 2208 2598 1946 
Q 2598 1453 2265 1203 
Q 1933 954 1600 954 
Q 1530 954 1357 973 
L 1235 986 
Q 1107 947 979 812 
Q 851 678 851 582 
Q 851 435 1350 410 
L 2176 371 
Q 2528 358 2739 172 
Q 2950 -13 2950 -314 
Q 2950 -685 2566 -986 
Q 2035 -1395 1286 -1395 
Q 826 -1395 502 -1212 
Q 179 -1030 179 -774 
Q 179 -595 320 -419 
Q 461 -243 806 6 
Q 602 102 534 172 
Q 467 243 467 346 
Q 467 531 762 787 
Q 909 915 1037 1043 
Q 717 1203 579 1401 
Q 442 1600 442 1901 
Q 442 2336 752 2640 
Q 1062 2944 1510 2944 
Q 1766 2944 2022 2848 
L 2163 2797 
Q 2349 2733 2515 2733 
L 3008 2733 
L 3008 2483 
z
M 973 2163 
L 973 2144 
Q 973 1683 1155 1398 
Q 1338 1114 1632 1114 
Q 1850 1114 1978 1270 
Q 2106 1427 2106 1690 
Q 2106 2112 1914 2464 
Q 1754 2765 1446 2765 
Q 1222 2765 1097 2605 
Q 973 2445 973 2163 
z
M 2771 -410 
Q 2771 -230 2595 -163 
Q 2419 -96 1978 -96 
Q 1344 -96 941 -13 
Q 749 -243 688 -348 
Q 627 -454 627 -563 
Q 627 -774 880 -902 
Q 1133 -1030 1555 -1030 
Q 2099 -1030 2435 -860 
Q 2771 -691 2771 -410 
z
" transform="scale(0.015625)"/>
       <path id="STIXGeneral-Regular-20" transform="scale(0.015625)"/>
       <path id="STIXGeneral-Regular-45" d="M 3821 1082 
L 3526 0 
L 77 0 
L 77 122 
Q 442 147 538 252 
Q 634 358 634 730 
L 634 3520 
Q 634 3878 534 3987 
Q 435 4096 77 4115 
L 77 4237 
L 3469 4237 
L 3494 3322 
L 3334 3322 
Q 3264 3750 3085 3872 
Q 2906 3994 2349 3994 
L 1510 3994 
Q 1370 3994 1328 3952 
Q 1286 3910 1286 3763 
L 1286 2355 
L 2253 2355 
Q 2656 2355 2787 2470 
Q 2918 2586 2976 2970 
L 3123 2970 
L 3123 1472 
L 2976 1472 
Q 2918 1875 2790 1984 
Q 2662 2093 2253 2093 
L 1286 2093 
L 1286 538 
Q 1286 346 1420 291 
Q 1555 237 1933 237 
L 2163 237 
Q 2848 237 3136 403 
Q 3424 570 3642 1082 
L 3821 1082 
z
" transform="scale(0.015625)"/>
       <path id="STIXGeneral-Regular-76" d="M 3053 2880 
L 3053 2784 
Q 2906 2771 2835 2688 
Q 2765 2605 2637 2285 
L 1818 230 
Q 1690 -90 1638 -90 
Q 1587 -90 1523 77 
Q 1510 96 1497 141 
Q 1485 186 1472 211 
L 704 2048 
Q 499 2534 403 2652 
Q 307 2771 122 2784 
L 122 2880 
L 1376 2880 
L 1376 2784 
Q 1210 2771 1146 2732 
Q 1082 2694 1082 2611 
Q 1082 2509 1139 2368 
L 1792 730 
L 2426 2387 
Q 2464 2483 2464 2579 
Q 2464 2758 2163 2784 
L 2163 2880 
L 3053 2880 
z
" transform="scale(0.015625)"/>
       <path id="STIXGeneral-Regular-6f" d="M 3008 1478 
Q 3008 806 2608 371 
Q 2208 -64 1568 -64 
Q 979 -64 582 368 
Q 186 800 186 1459 
Q 186 2125 582 2534 
Q 979 2944 1626 2944 
Q 2221 2944 2614 2537 
Q 3008 2131 3008 1478 
z
M 2432 1306 
Q 2432 2035 2112 2445 
Q 1856 2765 1504 2765 
Q 1171 2765 966 2493 
Q 762 2221 762 1747 
Q 762 928 1101 435 
Q 1318 115 1677 115 
Q 2029 115 2230 432 
Q 2432 749 2432 1306 
z
" transform="scale(0.015625)"/>
       <path id="STIXGeneral-Regular-6d" d="M 4960 0 
L 3565 0 
L 3565 96 
Q 3834 122 3907 208 
Q 3981 294 3981 576 
L 3981 1894 
Q 3981 2278 3869 2444 
Q 3757 2611 3488 2611 
Q 3264 2611 3107 2521 
Q 2950 2432 2803 2221 
L 2803 608 
Q 2803 301 2896 201 
Q 2989 102 3264 96 
L 3264 0 
L 1830 0 
L 1830 96 
Q 2112 115 2189 188 
Q 2266 262 2266 550 
L 2266 1901 
Q 2266 2611 1850 2611 
Q 1670 2611 1468 2531 
Q 1267 2451 1171 2336 
Q 1088 2240 1088 2227 
L 1088 448 
Q 1088 243 1177 176 
Q 1267 109 1523 96 
L 1523 0 
L 102 0 
L 102 96 
Q 371 102 460 195 
Q 550 288 550 563 
L 550 2150 
Q 550 2387 499 2480 
Q 448 2573 326 2573 
Q 230 2573 122 2547 
L 122 2656 
Q 557 2778 1011 2944 
L 1062 2925 
L 1062 2451 
L 1075 2451 
Q 1363 2752 1584 2848 
Q 1805 2944 2054 2944 
Q 2560 2944 2733 2406 
Q 3232 2944 3776 2944 
Q 4518 2944 4518 1792 
L 4518 493 
Q 4518 282 4582 202 
Q 4646 122 4794 109 
L 4960 96 
L 4960 0 
z
" transform="scale(0.015625)"/>
       <path id="STIXGeneral-Regular-65" d="M 2611 1050 
L 2714 1005 
Q 2330 -64 1376 -64 
Q 813 -64 486 329 
Q 160 723 160 1389 
Q 160 2074 525 2509 
Q 890 2944 1485 2944 
Q 2061 2944 2374 2502 
Q 2560 2246 2592 1773 
L 621 1773 
Q 646 1370 700 1158 
Q 755 947 915 730 
Q 1184 378 1626 378 
Q 1939 378 2153 531 
Q 2368 685 2611 1050 
z
M 634 1978 
L 1939 1978 
Q 1882 2381 1750 2547 
Q 1619 2714 1312 2714 
Q 1043 2714 864 2525 
Q 685 2336 634 1978 
z
" transform="scale(0.015625)"/>
       <path id="STIXGeneral-Regular-74" d="M 1702 493 
L 1786 422 
Q 1478 -64 1011 -64 
Q 448 -64 448 749 
L 448 2675 
L 109 2675 
Q 83 2694 83 2720 
Q 83 2771 192 2842 
Q 435 2982 813 3526 
Q 826 3546 874 3606 
Q 922 3667 941 3706 
Q 986 3706 986 3622 
L 986 2880 
L 1632 2880 
L 1632 2675 
L 986 2675 
L 986 845 
Q 986 538 1062 403 
Q 1139 269 1318 269 
Q 1510 269 1702 493 
z
" transform="scale(0.015625)"/>
       <path id="STIXGeneral-Regular-53" d="M 3002 2963 
L 2842 2963 
Q 2733 3360 2579 3565 
Q 2189 4064 1651 4064 
Q 1357 4064 1181 3894 
Q 1005 3725 1005 3456 
Q 1005 3328 1069 3206 
Q 1133 3085 1206 2998 
Q 1280 2912 1465 2784 
Q 1651 2656 1766 2589 
Q 1882 2522 2150 2362 
Q 2669 2061 2905 1763 
Q 3142 1466 3142 1107 
Q 3142 576 2771 243 
Q 2400 -90 1837 -90 
Q 1421 -90 1082 58 
Q 915 128 781 128 
Q 704 128 653 70 
Q 602 13 602 -83 
L 461 -83 
L 275 1274 
L 416 1274 
Q 845 141 1734 141 
Q 2074 141 2285 342 
Q 2496 544 2496 858 
Q 2496 1158 2310 1363 
Q 2003 1696 1235 2106 
Q 454 2522 454 3206 
Q 454 3718 768 4022 
Q 1082 4326 1568 4326 
Q 1907 4326 2240 4186 
Q 2413 4109 2522 4109 
Q 2688 4109 2726 4326 
L 2861 4326 
L 3002 2963 
z
" transform="scale(0.015625)"/>
       <path id="STIXGeneral-Regular-70" d="M 1018 2931 
L 1018 2438 
Q 1421 2944 1939 2944 
Q 2406 2944 2707 2560 
Q 3008 2176 3008 1581 
Q 3008 883 2621 409 
Q 2234 -64 1664 -64 
Q 1466 -64 1328 -6 
Q 1190 51 1018 211 
L 1018 -794 
Q 1018 -1094 1120 -1180 
Q 1222 -1267 1581 -1274 
L 1581 -1389 
L 32 -1389 
L 32 -1280 
Q 314 -1254 397 -1171 
Q 480 -1088 480 -838 
L 480 2157 
Q 480 2381 429 2451 
Q 378 2522 218 2522 
Q 115 2522 58 2515 
L 58 2618 
Q 506 2752 979 2944 
L 1018 2931 
z
M 1018 2138 
L 1018 563 
Q 1018 422 1238 281 
Q 1459 141 1683 141 
Q 2029 141 2243 467 
Q 2458 794 2458 1325 
Q 2458 1888 2243 2224 
Q 2029 2560 1670 2560 
Q 1446 2560 1232 2419 
Q 1018 2278 1018 2138 
z
" transform="scale(0.015625)"/>
       <path id="STIXGeneral-Regular-73" d="M 998 1926 
L 1664 1523 
Q 1984 1331 2105 1164 
Q 2227 998 2227 736 
Q 2227 416 1961 176 
Q 1696 -64 1331 -64 
Q 1030 -64 864 -6 
Q 691 51 570 51 
Q 461 51 416 -26 
L 333 -26 
L 333 979 
L 435 979 
Q 538 512 730 294 
Q 922 77 1248 77 
Q 1485 77 1632 211 
Q 1779 346 1779 550 
Q 1779 845 1440 1030 
L 1094 1222 
Q 326 1651 326 2150 
Q 326 2522 566 2730 
Q 806 2938 1210 2938 
Q 1491 2938 1638 2867 
Q 1754 2816 1818 2816 
Q 1862 2816 1920 2880 
L 1990 2880 
L 2022 2010 
L 1926 2010 
Q 1818 2445 1654 2621 
Q 1491 2797 1203 2797 
Q 986 2797 854 2688 
Q 723 2579 723 2362 
Q 723 2253 796 2128 
Q 870 2003 998 1926 
z
" transform="scale(0.015625)"/>
      </defs>
      <use xlink:href="#STIXGeneral-Regular-54"/>
      <use xlink:href="#STIXGeneral-Regular-72" x="61.099991"/>
      <use xlink:href="#STIXGeneral-Regular-61" x="94.399979"/>
      <use xlink:href="#STIXGeneral-Regular-69" x="138.799973"/>
      <use xlink:href="#STIXGeneral-Regular-6e" x="166.59996"/>
      <use xlink:href="#STIXGeneral-Regular-69" x="216.599945"/>
      <use xlink:href="#STIXGeneral-Regular-6e" x="244.399933"/>
      <use xlink:href="#STIXGeneral-Regular-67" x="294.399918"/>
      <use xlink:href="#STIXGeneral-Regular-20" x="344.399902"/>
      <use xlink:href="#STIXGeneral-Regular-45" x="369.399887"/>
      <use xlink:href="#STIXGeneral-Regular-6e" x="430.499878"/>
      <use xlink:href="#STIXGeneral-Regular-76" x="480.499863"/>
      <use xlink:href="#STIXGeneral-Regular-69" x="530.499847"/>
      <use xlink:href="#STIXGeneral-Regular-72" x="558.299835"/>
      <use xlink:href="#STIXGeneral-Regular-6f" x="591.599823"/>
      <use xlink:href="#STIXGeneral-Regular-6e" x="641.599808"/>
      <use xlink:href="#STIXGeneral-Regular-6d" x="691.599792"/>
      <use xlink:href="#STIXGeneral-Regular-65" x="769.39978"/>
      <use xlink:href="#STIXGeneral-Regular-6e" x="813.799774"/>
      <use xlink:href="#STIXGeneral-Regular-74" x="863.799759"/>
      <use xlink:href="#STIXGeneral-Regular-20" x="891.599747"/>
      <use xlink:href="#STIXGeneral-Regular-53" x="916.599731"/>
      <use xlink:href="#STIXGeneral-Regular-74" x="972.199722"/>
      <use xlink:href="#STIXGeneral-Regular-65" x="999.99971"/>
      <use xlink:href="#STIXGeneral-Regular-70" x="1044.399704"/>
      <use xlink:href="#STIXGeneral-Regular-73" x="1094.399689"/>
     </g>
    </g>
    <g id="text_8">
     <!-- 1e8 -->
     <g transform="translate(490.806875 343.645562)scale(0.18 -0.18)">
      <use xlink:href="#STIXGeneral-Regular-31"/>
      <use xlink:href="#STIXGeneral-Regular-65" x="49.999985"/>
      <use xlink:href="#STIXGeneral-Regular-38" x="94.399979"/>
     </g>
    </g>
   </g>
   <g id="matplotlib.axis_2">
    <g id="ytick_1">
     <g id="line2d_13">
      <path d="M 70.4 292.552125 
L 516.8 292.552125 
" clip-path="url(#p21d102d166)" style="fill: none; stroke: #b0b0b0; stroke-width: 0.8; stroke-linecap: square"/>
     </g>
     <g id="line2d_14">
      <defs>
       <path id="m980a3d1302" d="M 0 0 
L -3.5 0 
" style="stroke: #000000; stroke-width: 0.8"/>
      </defs>
      <g>
       <use xlink:href="#m980a3d1302" x="70.4" y="292.552125" style="stroke: #000000; stroke-width: 0.8"/>
      </g>
     </g>
     <g id="text_9">
      <!-- 0 -->
      <g transform="translate(54.4 298.698844)scale(0.18 -0.18)">
       <use xlink:href="#STIXGeneral-Regular-30"/>
      </g>
     </g>
    </g>
    <g id="ytick_2">
     <g id="line2d_15">
      <path d="M 70.4 250.581008 
L 516.8 250.581008 
" clip-path="url(#p21d102d166)" style="fill: none; stroke: #b0b0b0; stroke-width: 0.8; stroke-linecap: square"/>
     </g>
     <g id="line2d_16">
      <g>
       <use xlink:href="#m980a3d1302" x="70.4" y="250.581008" style="stroke: #000000; stroke-width: 0.8"/>
      </g>
     </g>
     <g id="text_10">
      <!-- 500 -->
      <g transform="translate(36.4 256.727727)scale(0.18 -0.18)">
       <defs>
        <path id="STIXGeneral-Regular-35" d="M 2803 4358 
L 2573 3814 
Q 2534 3731 2400 3731 
L 1158 3731 
L 902 3187 
Q 1606 3053 1920 2896 
Q 2234 2739 2502 2368 
Q 2726 2061 2726 1555 
Q 2726 1094 2576 780 
Q 2426 467 2099 224 
Q 1664 -90 1011 -90 
Q 646 -90 422 19 
Q 198 128 198 307 
Q 198 550 486 550 
Q 717 550 960 352 
Q 1210 147 1414 147 
Q 1747 147 2012 480 
Q 2278 813 2278 1229 
Q 2278 1843 1850 2189 
Q 1293 2637 486 2637 
Q 410 2637 410 2688 
L 416 2720 
L 1114 4237 
L 2438 4237 
Q 2547 4237 2608 4269 
Q 2669 4301 2746 4403 
L 2803 4358 
z
" transform="scale(0.015625)"/>
       </defs>
       <use xlink:href="#STIXGeneral-Regular-35"/>
       <use xlink:href="#STIXGeneral-Regular-30" x="49.999985"/>
       <use xlink:href="#STIXGeneral-Regular-30" x="99.999969"/>
      </g>
     </g>
    </g>
    <g id="ytick_3">
     <g id="line2d_17">
      <path d="M 70.4 208.609891 
L 516.8 208.609891 
" clip-path="url(#p21d102d166)" style="fill: none; stroke: #b0b0b0; stroke-width: 0.8; stroke-linecap: square"/>
     </g>
     <g id="line2d_18">
      <g>
       <use xlink:href="#m980a3d1302" x="70.4" y="208.609891" style="stroke: #000000; stroke-width: 0.8"/>
      </g>
     </g>
     <g id="text_11">
      <!-- 1000 -->
      <g transform="translate(27.4 214.75661)scale(0.18 -0.18)">
       <use xlink:href="#STIXGeneral-Regular-31"/>
       <use xlink:href="#STIXGeneral-Regular-30" x="49.999985"/>
       <use xlink:href="#STIXGeneral-Regular-30" x="99.999969"/>
       <use xlink:href="#STIXGeneral-Regular-30" x="149.999954"/>
      </g>
     </g>
    </g>
    <g id="ytick_4">
     <g id="line2d_19">
      <path d="M 70.4 166.638774 
L 516.8 166.638774 
" clip-path="url(#p21d102d166)" style="fill: none; stroke: #b0b0b0; stroke-width: 0.8; stroke-linecap: square"/>
     </g>
     <g id="line2d_20">
      <g>
       <use xlink:href="#m980a3d1302" x="70.4" y="166.638774" style="stroke: #000000; stroke-width: 0.8"/>
      </g>
     </g>
     <g id="text_12">
      <!-- 1500 -->
      <g transform="translate(27.4 172.785493)scale(0.18 -0.18)">
       <use xlink:href="#STIXGeneral-Regular-31"/>
       <use xlink:href="#STIXGeneral-Regular-35" x="49.999985"/>
       <use xlink:href="#STIXGeneral-Regular-30" x="99.999969"/>
       <use xlink:href="#STIXGeneral-Regular-30" x="149.999954"/>
      </g>
     </g>
    </g>
    <g id="ytick_5">
     <g id="line2d_21">
      <path d="M 70.4 124.667657 
L 516.8 124.667657 
" clip-path="url(#p21d102d166)" style="fill: none; stroke: #b0b0b0; stroke-width: 0.8; stroke-linecap: square"/>
     </g>
     <g id="line2d_22">
      <g>
       <use xlink:href="#m980a3d1302" x="70.4" y="124.667657" style="stroke: #000000; stroke-width: 0.8"/>
      </g>
     </g>
     <g id="text_13">
      <!-- 2000 -->
      <g transform="translate(27.4 130.814376)scale(0.18 -0.18)">
       <use xlink:href="#STIXGeneral-Regular-32"/>
       <use xlink:href="#STIXGeneral-Regular-30" x="49.999985"/>
       <use xlink:href="#STIXGeneral-Regular-30" x="99.999969"/>
       <use xlink:href="#STIXGeneral-Regular-30" x="149.999954"/>
      </g>
     </g>
    </g>
    <g id="ytick_6">
     <g id="line2d_23">
      <path d="M 70.4 82.696541 
L 516.8 82.696541 
" clip-path="url(#p21d102d166)" style="fill: none; stroke: #b0b0b0; stroke-width: 0.8; stroke-linecap: square"/>
     </g>
     <g id="line2d_24">
      <g>
       <use xlink:href="#m980a3d1302" x="70.4" y="82.696541" style="stroke: #000000; stroke-width: 0.8"/>
      </g>
     </g>
     <g id="text_14">
      <!-- 2500 -->
      <g transform="translate(27.4 88.843259)scale(0.18 -0.18)">
       <use xlink:href="#STIXGeneral-Regular-32"/>
       <use xlink:href="#STIXGeneral-Regular-35" x="49.999985"/>
       <use xlink:href="#STIXGeneral-Regular-30" x="99.999969"/>
       <use xlink:href="#STIXGeneral-Regular-30" x="149.999954"/>
      </g>
     </g>
    </g>
    <g id="ytick_7">
     <g id="line2d_25">
      <path d="M 70.4 40.725424 
L 516.8 40.725424 
" clip-path="url(#p21d102d166)" style="fill: none; stroke: #b0b0b0; stroke-width: 0.8; stroke-linecap: square"/>
     </g>
     <g id="line2d_26">
      <g>
       <use xlink:href="#m980a3d1302" x="70.4" y="40.725424" style="stroke: #000000; stroke-width: 0.8"/>
      </g>
     </g>
     <g id="text_15">
      <!-- 3000 -->
      <g transform="translate(27.4 46.872142)scale(0.18 -0.18)">
       <defs>
        <path id="STIXGeneral-Regular-33" d="M 390 3264 
L 288 3290 
Q 435 3770 748 4048 
Q 1062 4326 1542 4326 
Q 1990 4326 2265 4083 
Q 2541 3840 2541 3450 
Q 2541 2925 1946 2566 
Q 2298 2413 2477 2227 
Q 2758 1914 2758 1402 
Q 2758 890 2464 506 
Q 2246 211 1840 60 
Q 1434 -90 979 -90 
Q 262 -90 262 275 
Q 262 378 339 442 
Q 416 506 525 506 
Q 685 506 915 339 
Q 1197 141 1466 141 
Q 1818 141 2058 425 
Q 2298 710 2298 1120 
Q 2298 1856 1632 2048 
Q 1434 2112 979 2112 
L 979 2202 
Q 1338 2323 1517 2432 
Q 2035 2726 2035 3290 
Q 2035 3610 1852 3776 
Q 1670 3942 1344 3942 
Q 768 3942 390 3264 
z
" transform="scale(0.015625)"/>
       </defs>
       <use xlink:href="#STIXGeneral-Regular-33"/>
       <use xlink:href="#STIXGeneral-Regular-30" x="49.999985"/>
       <use xlink:href="#STIXGeneral-Regular-30" x="99.999969"/>
       <use xlink:href="#STIXGeneral-Regular-30" x="149.999954"/>
      </g>
     </g>
    </g>
    <g id="text_16">
     <!-- Average Test Return -->
     <g transform="translate(19.476562 241.533375)rotate(-90)scale(0.18 -0.18)">
      <defs>
       <path id="STIXGeneral-Regular-41" d="M 4525 0 
L 2893 0 
L 2893 122 
Q 3149 122 3245 179 
Q 3334 224 3334 333 
Q 3334 499 3213 781 
L 2950 1382 
L 1274 1382 
L 979 653 
Q 922 506 922 384 
Q 922 237 1027 179 
Q 1133 122 1370 122 
L 1370 0 
L 96 0 
L 96 122 
Q 365 147 486 316 
Q 608 486 902 1190 
L 2221 4314 
L 2349 4314 
L 3923 710 
Q 4064 378 4176 262 
Q 4288 147 4525 122 
L 4525 0 
z
M 2861 1645 
L 2118 3405 
L 1382 1645 
L 2861 1645 
z
" transform="scale(0.015625)"/>
       <path id="STIXGeneral-Regular-52" d="M 4224 0 
L 3187 0 
L 1664 1971 
L 1306 1958 
L 1306 717 
Q 1306 352 1405 249 
Q 1504 147 1875 122 
L 1875 0 
L 109 0 
L 109 122 
Q 474 154 563 262 
Q 653 371 653 794 
L 653 3526 
Q 653 3885 563 3987 
Q 474 4090 109 4115 
L 109 4237 
L 1850 4237 
Q 2726 4237 3187 3859 
Q 3501 3603 3501 3091 
Q 3501 2221 2342 2042 
L 3622 422 
Q 3757 256 3878 198 
Q 4000 141 4224 122 
L 4224 0 
z
M 1306 3731 
L 1306 2195 
Q 1766 2202 1990 2246 
Q 2214 2291 2438 2413 
Q 2803 2618 2803 3142 
Q 2803 4000 1632 4000 
Q 1459 4000 1382 3945 
Q 1306 3891 1306 3731 
z
" transform="scale(0.015625)"/>
       <path id="STIXGeneral-Regular-75" d="M 3072 320 
L 3072 230 
Q 2573 96 2195 -58 
L 2163 -38 
L 2163 486 
L 2150 486 
Q 1747 -64 1235 -64 
Q 870 -64 662 160 
Q 454 384 454 755 
L 454 2362 
Q 454 2598 371 2688 
Q 288 2778 58 2790 
L 58 2880 
L 992 2880 
L 992 813 
Q 992 595 1123 451 
Q 1254 307 1446 307 
Q 1760 307 1984 506 
Q 2067 582 2099 649 
Q 2131 717 2131 877 
L 2131 2355 
Q 2131 2605 2041 2678 
Q 1952 2752 1658 2771 
L 1658 2880 
L 2669 2880 
L 2669 685 
Q 2669 461 2742 390 
Q 2816 320 3034 320 
L 3072 320 
z
" transform="scale(0.015625)"/>
      </defs>
      <use xlink:href="#STIXGeneral-Regular-41"/>
      <use xlink:href="#STIXGeneral-Regular-76" x="72.199982"/>
      <use xlink:href="#STIXGeneral-Regular-65" x="122.199966"/>
      <use xlink:href="#STIXGeneral-Regular-72" x="166.59996"/>
      <use xlink:href="#STIXGeneral-Regular-61" x="199.899948"/>
      <use xlink:href="#STIXGeneral-Regular-67" x="244.299942"/>
      <use xlink:href="#STIXGeneral-Regular-65" x="294.299927"/>
      <use xlink:href="#STIXGeneral-Regular-20" x="338.699921"/>
      <use xlink:href="#STIXGeneral-Regular-54" x="363.699905"/>
      <use xlink:href="#STIXGeneral-Regular-65" x="424.799896"/>
      <use xlink:href="#STIXGeneral-Regular-73" x="469.19989"/>
      <use xlink:href="#STIXGeneral-Regular-74" x="508.099884"/>
      <use xlink:href="#STIXGeneral-Regular-20" x="535.899872"/>
      <use xlink:href="#STIXGeneral-Regular-52" x="560.899857"/>
      <use xlink:href="#STIXGeneral-Regular-65" x="627.599854"/>
      <use xlink:href="#STIXGeneral-Regular-74" x="671.999847"/>
      <use xlink:href="#STIXGeneral-Regular-75" x="699.799835"/>
      <use xlink:href="#STIXGeneral-Regular-72" x="749.79982"/>
      <use xlink:href="#STIXGeneral-Regular-6e" x="783.099808"/>
     </g>
    </g>
   </g>
   <g id="line2d_27">
    <path d="M 90.690909 211.463912 
L 91.466852 214.933439 
L 92.242795 219.562389 
L 93.018738 220.262504 
L 93.794681 219.290068 
L 94.570624 218.922324 
L 95.346567 223.648516 
L 96.12251 224.126105 
L 96.898453 225.246055 
L 97.674396 224.800995 
L 98.450339 224.714721 
L 99.226282 227.787974 
L 100.002225 228.87029 
L 100.778168 230.947348 
L 101.554111 235.448648 
L 102.330054 237.111823 
L 103.105997 233.3806 
L 103.88194 231.679397 
L 104.657883 224.633423 
L 105.433826 224.434037 
L 106.209769 221.694667 
L 106.985712 217.649669 
L 107.761655 217.980506 
L 108.537598 215.281927 
L 109.313541 215.904628 
L 110.089484 218.389601 
L 111.64137 213.835775 
L 112.417313 213.273396 
L 113.193256 210.643173 
L 113.969199 206.476602 
L 114.745142 209.78673 
L 115.521085 209.473866 
L 116.297028 208.401639 
L 117.072971 209.52337 
L 118.624857 226.50551 
L 119.4008 225.630797 
L 120.952686 233.51093 
L 121.728629 233.917021 
L 122.504572 227.095532 
L 123.280515 222.537304 
L 124.056458 221.459541 
L 124.8324 226.623312 
L 125.608343 229.267368 
L 126.384286 234.329424 
L 127.160229 229.462974 
L 127.936172 229.181322 
L 128.712115 227.200233 
L 129.488058 227.888827 
L 130.264001 223.38526 
L 131.039944 224.00373 
L 131.815887 222.833796 
L 132.59183 225.066145 
L 133.367773 226.880601 
L 134.143716 225.235674 
L 134.919659 219.356699 
L 135.695602 218.354422 
L 136.471545 223.751683 
L 137.247488 223.364676 
L 138.023431 227.555883 
L 138.799374 226.566991 
L 139.575317 229.481387 
L 140.35126 231.113559 
L 141.127203 229.249309 
L 141.903146 229.911831 
L 142.679089 222.908997 
L 143.455032 227.724837 
L 144.230975 229.537494 
L 145.006918 232.240842 
L 145.782861 230.126429 
L 146.558804 228.38974 
L 147.334747 228.725418 
L 148.11069 226.416921 
L 148.886633 224.461694 
L 149.662576 226.30605 
L 150.438519 227.34609 
L 151.214462 220.896691 
L 151.990405 219.168444 
L 152.766348 215.273367 
L 153.542291 214.336973 
L 154.318234 214.564787 
L 155.094177 210.837921 
L 155.87012 203.149941 
L 156.646063 203.000893 
L 157.422006 210.522487 
L 158.197949 210.742331 
L 158.973892 207.006804 
L 159.749835 207.23688 
L 160.525778 204.335669 
L 161.301721 204.770416 
L 162.077664 203.566685 
L 162.853607 198.816608 
L 163.62955 195.277912 
L 164.405493 192.763605 
L 165.181436 193.564285 
L 165.957379 192.206116 
L 166.733322 198.886 
L 167.509265 196.853575 
L 168.285208 200.953345 
L 169.061151 206.528865 
L 169.837094 205.904382 
L 170.613037 204.810523 
L 171.38898 201.908797 
L 172.164923 203.419335 
L 172.940866 202.314729 
L 173.716809 201.511378 
L 174.492752 201.242359 
L 175.268695 201.588708 
L 176.044638 198.495874 
L 176.820581 189.640658 
L 177.596524 184.049298 
L 178.372467 176.012694 
L 179.14841 170.952213 
L 179.924353 164.564363 
L 180.700295 160.889237 
L 181.476238 159.339919 
L 183.028124 168.180639 
L 183.804067 166.79499 
L 184.58001 165.154668 
L 185.355953 162.442733 
L 186.131896 167.435531 
L 187.683782 165.166999 
L 188.459725 168.854793 
L 189.235668 165.498971 
L 190.011611 164.535863 
L 190.787554 163.897406 
L 191.563497 165.026075 
L 193.115383 161.538833 
L 193.891326 156.298132 
L 194.667269 152.612637 
L 195.443212 155.911529 
L 196.219155 156.219958 
L 196.995098 153.549652 
L 197.771041 153.25923 
L 198.546984 150.586154 
L 199.322927 152.995505 
L 200.09887 148.348922 
L 200.874813 145.497471 
L 202.426699 145.990999 
L 203.202642 144.493427 
L 203.978585 138.415041 
L 204.754528 139.776919 
L 205.530471 140.095548 
L 206.306414 141.026872 
L 207.082357 139.695568 
L 207.8583 142.055925 
L 208.634243 139.631342 
L 209.410186 134.949285 
L 210.186129 138.316616 
L 210.962072 138.651322 
L 211.738015 143.279028 
L 212.513958 139.327157 
L 213.289901 136.728349 
L 214.065844 140.063852 
L 214.841787 140.83315 
L 216.393673 150.180131 
L 217.169616 155.308617 
L 217.945559 155.033249 
L 218.721502 156.718869 
L 219.497445 156.531588 
L 221.049331 167.243309 
L 221.825274 174.289866 
L 222.601217 175.411802 
L 223.37716 173.992006 
L 224.153103 169.482928 
L 224.929046 164.138843 
L 225.704989 158.009329 
L 226.480932 156.06365 
L 227.256875 152.130731 
L 228.808761 159.840996 
L 229.584704 162.581019 
L 230.360647 171.128888 
L 231.13659 181.489646 
L 231.912533 189.287841 
L 232.688476 191.596186 
L 233.464419 198.301786 
L 234.240362 202.876834 
L 235.016305 205.399302 
L 235.792248 204.528837 
L 236.568191 202.288062 
L 237.344133 199.115837 
L 238.120076 196.826663 
L 238.896019 197.021956 
L 239.671962 200.008165 
L 241.223848 202.748977 
L 241.999791 202.877817 
L 242.775734 202.43711 
L 243.551677 199.542572 
L 244.32762 197.739921 
L 245.103563 200.412044 
L 245.879506 199.443706 
L 246.655449 200.897696 
L 247.431392 195.460478 
L 248.207335 195.416639 
L 248.983278 194.405187 
L 249.759221 187.388322 
L 250.535164 178.781421 
L 251.311107 172.432896 
L 252.08705 171.781472 
L 252.862993 170.953003 
L 253.638936 167.29705 
L 254.414879 160.923241 
L 255.190822 158.96326 
L 255.966765 158.724572 
L 256.742708 155.855999 
L 257.518651 148.309875 
L 258.294594 143.406821 
L 259.070537 140.645699 
L 259.84648 137.093976 
L 260.622423 130.212377 
L 261.398366 126.706423 
L 262.174309 122.091088 
L 262.950252 116.046074 
L 263.726195 111.344802 
L 264.502138 107.759426 
L 265.278081 108.446252 
L 266.054024 109.892911 
L 266.829967 113.392069 
L 267.60591 115.080066 
L 268.381853 114.917092 
L 269.157796 112.476433 
L 269.933739 113.720429 
L 270.709682 120.177133 
L 271.485625 122.213201 
L 272.261568 128.576746 
L 273.037511 129.317383 
L 273.813454 134.904033 
L 274.589397 134.348468 
L 275.36534 139.192901 
L 276.141283 139.969982 
L 276.917226 138.431917 
L 277.693169 139.686186 
L 278.469112 139.277045 
L 279.245055 139.7111 
L 280.020998 141.157257 
L 280.796941 140.181764 
L 281.572884 138.397729 
L 282.348827 136.139378 
L 283.12477 131.935029 
L 283.900713 131.94811 
L 284.676656 124.810462 
L 285.452599 123.560525 
L 286.228542 120.018187 
L 287.004485 115.415989 
L 287.780428 117.092362 
L 288.556371 119.865317 
L 289.332314 121.74934 
L 290.108257 118.070421 
L 290.8842 121.565264 
L 291.660143 126.228171 
L 292.436086 129.019484 
L 293.212029 123.656679 
L 293.987971 126.002439 
L 294.763914 125.179196 
L 295.539857 122.008567 
L 296.3158 117.652429 
L 297.091743 122.312639 
L 297.867686 120.259925 
L 298.643629 119.126831 
L 299.419572 116.947548 
L 300.971458 109.829068 
L 301.747401 111.60306 
L 302.523344 108.51629 
L 303.299287 108.37496 
L 304.07523 109.324997 
L 304.851173 108.639304 
L 305.627116 107.409713 
L 306.403059 104.206434 
L 307.179002 104.25652 
L 307.954945 103.707189 
L 309.506831 109.652443 
L 310.282774 109.260057 
L 311.058717 104.154688 
L 313.386546 95.403805 
L 314.162489 94.430412 
L 314.938432 93.735703 
L 315.714375 93.904497 
L 316.490318 91.906013 
L 317.266261 91.856267 
L 318.042204 91.372926 
L 318.818147 91.785545 
L 319.59409 90.44446 
L 321.145976 90.677706 
L 321.921919 90.50502 
L 322.697862 90.527233 
L 325.025691 89.265515 
L 325.801634 89.164234 
L 326.577577 88.575465 
L 328.129463 88.345197 
L 328.905406 88.38253 
L 330.457292 87.672794 
L 331.233235 88.587514 
L 332.009178 87.502308 
L 332.785121 87.681738 
L 333.561064 86.748577 
L 334.337007 87.633758 
L 335.11295 86.679122 
L 335.888893 87.712948 
L 336.664836 86.824596 
L 337.440779 87.677623 
L 338.216722 89.17981 
L 338.992665 89.870209 
L 339.768608 91.990698 
L 340.544551 93.005434 
L 341.320494 97.369256 
L 343.648323 117.860763 
L 344.424266 122.416991 
L 345.200209 123.32177 
L 346.752095 140.439971 
L 347.528038 145.400462 
L 348.303981 147.83781 
L 349.079924 147.410358 
L 349.855867 144.037072 
L 350.631809 143.908732 
L 351.407752 142.534981 
L 352.183695 139.577105 
L 352.959638 138.279239 
L 353.735581 135.816187 
L 354.511524 135.114945 
L 356.06341 132.275526 
L 356.839353 130.150686 
L 357.615296 131.375194 
L 359.167182 127.211301 
L 359.943125 129.180215 
L 360.719068 128.552322 
L 361.495011 130.119386 
L 362.270954 132.815804 
L 363.046897 131.432019 
L 363.82284 132.862819 
L 364.598783 133.600968 
L 365.374726 132.603342 
L 366.926612 132.974152 
L 367.702555 136.207459 
L 368.478498 129.415402 
L 369.254441 124.362683 
L 370.806327 119.959924 
L 371.58227 119.869982 
L 372.358213 116.023098 
L 373.134156 118.183637 
L 373.910099 120.727478 
L 374.686042 118.76686 
L 375.461985 117.527836 
L 376.237928 119.301574 
L 377.013871 113.987682 
L 377.789814 112.001459 
L 378.565757 111.920943 
L 379.3417 116.134514 
L 380.117643 113.760061 
L 380.893586 109.654533 
L 381.669529 100.867382 
L 382.445472 94.791665 
L 383.221415 86.102265 
L 383.997358 87.553221 
L 384.773301 87.603168 
L 385.549244 97.809895 
L 387.10113 109.765812 
L 387.877073 112.3459 
L 388.653016 111.188553 
L 389.428959 112.923994 
L 390.204902 106.923448 
L 390.980845 106.867663 
L 391.756788 107.506238 
L 392.532731 107.692775 
L 393.308674 105.861311 
L 394.084617 100.856226 
L 394.86056 104.935505 
L 395.636503 106.028676 
L 396.412446 111.817409 
L 397.188389 114.359185 
L 397.964332 111.01774 
L 398.740275 114.975387 
L 399.516218 117.799406 
L 400.292161 117.433606 
L 401.068104 114.198107 
L 401.844047 113.673874 
L 402.61999 112.376874 
L 403.395933 106.549492 
L 404.171876 106.309299 
L 404.947819 104.462878 
L 405.723762 96.681003 
L 406.499705 92.243145 
L 407.275647 95.478897 
L 408.05159 94.754379 
L 408.827533 94.947661 
L 409.603476 99.209909 
L 410.379419 92.622621 
L 411.155362 91.879145 
L 411.931305 98.99327 
L 412.707248 99.994729 
L 413.483191 97.660757 
L 414.259134 88.906436 
L 415.035077 92.286277 
L 415.81102 92.197862 
L 416.586963 85.407162 
L 417.362906 91.450224 
L 418.138849 93.47924 
L 418.914792 94.42101 
L 419.690735 87.869574 
L 420.466678 82.873506 
L 421.242621 83.982936 
L 422.018564 82.817613 
L 422.794507 87.10057 
L 424.346393 98.777459 
L 425.122336 101.806767 
L 425.898279 108.510421 
L 426.674222 106.983982 
L 427.450165 101.275985 
L 428.226108 94.293355 
L 429.002051 96.494339 
L 429.777994 97.256984 
L 430.553937 100.942675 
L 431.32988 98.906596 
L 432.105823 91.687751 
L 432.881766 86.742806 
L 433.657709 88.410294 
L 434.433652 82.488577 
L 435.985538 94.279091 
L 436.761481 97.333573 
L 437.537424 96.286994 
L 438.313367 100.498316 
L 439.865253 105.446049 
L 440.641196 102.246491 
L 441.417139 102.953238 
L 442.193082 106.869571 
L 443.744968 111.169982 
L 444.520911 107.367336 
L 445.296854 108.420615 
L 446.072797 111.292472 
L 446.84874 106.771653 
L 447.624683 106.13683 
L 448.400626 105.960111 
L 449.176569 107.155561 
L 449.952512 109.432468 
L 450.728455 110.790144 
L 451.504398 111.367605 
L 452.280341 110.583796 
L 453.056284 108.915834 
L 453.832227 109.331876 
L 454.60817 106.701423 
L 455.384113 107.693636 
L 456.160056 110.437868 
L 456.935999 109.925231 
L 457.711942 108.947989 
L 458.487885 110.28556 
L 459.263828 108.875536 
L 460.815714 103.001965 
L 461.591657 102.422488 
L 462.3676 106.177701 
L 463.143542 105.45092 
L 464.695428 110.163666 
L 465.471371 110.078862 
L 466.247314 112.369936 
L 467.023257 115.306324 
L 467.7992 112.228034 
L 468.575143 112.421103 
L 469.351086 109.815395 
L 470.127029 110.475465 
L 470.902972 113.42408 
L 471.678915 108.311199 
L 472.454858 107.89593 
L 473.230801 110.667689 
L 474.006744 111.594972 
L 474.782687 109.124305 
L 475.55863 108.44098 
L 476.334573 104.434027 
L 477.886459 106.047567 
L 478.662402 102.580481 
L 479.438345 108.111298 
L 480.214288 106.697701 
L 480.990231 109.572323 
L 481.766174 105.119514 
L 482.542117 102.316669 
L 483.31806 101.968463 
L 484.094003 100.475436 
L 484.869946 103.673451 
L 485.645889 102.639134 
L 486.421832 97.590139 
L 487.197775 96.26841 
L 487.973718 88.956249 
L 488.749661 86.878635 
L 489.525604 77.384545 
L 490.301547 76.211225 
L 491.07749 73.256368 
L 491.853433 68.523178 
L 492.629376 70.220957 
L 493.405319 66.199065 
L 494.181262 69.703776 
L 494.957205 67.19878 
L 495.733148 67.287988 
L 496.509091 64.853847 
L 496.509091 64.853847 
" clip-path="url(#p21d102d166)" style="fill: none; stroke: #1f77b4; stroke-width: 1.5; stroke-linecap: square"/>
   </g>
   <g id="line2d_28">
    <path d="M 90.690909 252.998105 
L 91.466852 257.44889 
L 92.242795 266.985924 
L 93.018738 272.895605 
L 93.794681 273.859917 
L 94.570624 277.602173 
L 95.346567 279.415956 
L 96.12251 283.172092 
L 96.898453 285.526849 
L 97.674396 286.846427 
L 99.226282 288.121027 
L 100.778168 288.739427 
L 101.554111 288.885387 
L 102.330054 288.81399 
L 103.105997 287.753911 
L 103.88194 287.823943 
L 104.657883 287.13239 
L 105.433826 286.083833 
L 106.209769 283.997338 
L 107.761655 286.984525 
L 108.537598 287.772759 
L 109.313541 288.051689 
L 110.089484 288.477531 
L 111.64137 288.87897 
L 113.193256 289.064453 
L 114.745142 289.143505 
L 118.624857 289.155217 
L 120.176743 289.157474 
L 121.728629 289.053212 
L 128.712115 289.163477 
L 131.039944 289.102479 
L 131.815887 289.040898 
L 132.59183 288.828529 
L 133.367773 288.018709 
L 134.143716 287.997518 
L 134.919659 287.444969 
L 135.695602 286.372251 
L 136.471545 284.463781 
L 137.247488 283.653915 
L 138.023431 283.546601 
L 138.799374 283.745771 
L 140.35126 286.973827 
L 141.127203 288.134518 
L 142.679089 289.328497 
L 143.455032 289.513399 
L 144.230975 289.514889 
L 145.006918 289.726059 
L 145.782861 289.441151 
L 146.558804 288.834837 
L 147.334747 282.896553 
L 148.11069 269.27591 
L 148.886633 251.270482 
L 149.662576 265.101593 
L 150.438519 270.848802 
L 151.214462 252.850461 
L 151.990405 249.79681 
L 152.766348 257.412322 
L 153.542291 258.053648 
L 154.318234 251.883389 
L 155.094177 212.247339 
L 155.87012 229.300984 
L 156.646063 217.364452 
L 157.422006 243.150932 
L 158.197949 257.350911 
L 158.973892 263.40407 
L 159.749835 262.454147 
L 160.525778 260.907809 
L 162.077664 272.410566 
L 162.853607 274.803931 
L 163.62955 262.737184 
L 164.405493 237.264391 
L 165.181436 178.312699 
L 165.957379 189.7862 
L 166.733322 203.049909 
L 167.509265 199.24055 
L 168.285208 187.287457 
L 169.061151 184.35334 
L 169.837094 176.324405 
L 170.613037 159.422113 
L 171.38898 154.738619 
L 172.164923 154.811282 
L 173.716809 138.401579 
L 174.492752 116.932319 
L 175.268695 88.772794 
L 176.044638 80.187622 
L 176.820581 74.559941 
L 177.596524 90.628461 
L 178.372467 99.339872 
L 179.14841 96.360119 
L 179.924353 88.413654 
L 180.700295 83.453527 
L 181.476238 87.174246 
L 183.028124 99.682938 
L 183.804067 95.185248 
L 184.58001 96.651178 
L 185.355953 92.520302 
L 186.131896 90.006019 
L 187.683782 84.505316 
L 188.459725 97.135031 
L 189.235668 92.853594 
L 190.011611 102.811363 
L 190.787554 110.052586 
L 191.563497 97.324018 
L 193.115383 88.959033 
L 193.891326 83.025537 
L 194.667269 87.416302 
L 195.443212 87.292422 
L 196.219155 78.398184 
L 196.995098 91.640418 
L 197.771041 91.949909 
L 198.546984 90.998891 
L 199.322927 76.268373 
L 200.09887 58.500453 
L 201.650756 69.308627 
L 202.426699 88.821257 
L 203.202642 77.419554 
L 204.754528 110.217478 
L 205.530471 94.435503 
L 206.306414 94.771837 
L 207.082357 92.297692 
L 207.8583 111.892309 
L 208.634243 122.092549 
L 209.410186 138.469319 
L 210.186129 140.083195 
L 210.962072 136.580789 
L 211.738015 135.087804 
L 212.513958 124.127622 
L 213.289901 141.736434 
L 214.065844 152.903261 
L 214.841787 155.274086 
L 216.393673 130.822309 
L 217.169616 146.056172 
L 217.945559 118.039661 
L 218.721502 126.479423 
L 219.497445 108.654979 
L 220.273388 95.509961 
L 221.049331 119.24474 
L 221.825274 120.533612 
L 222.601217 140.260956 
L 223.37716 147.053804 
L 224.929046 112.104088 
L 226.480932 132.616832 
L 227.256875 131.134574 
L 228.032818 120.95165 
L 228.808761 116.853238 
L 229.584704 142.521177 
L 230.360647 148.417584 
L 231.13659 151.848882 
L 231.912533 157.667617 
L 232.688476 155.863877 
L 233.464419 147.193752 
L 234.240362 140.947342 
L 235.016305 132.471728 
L 235.792248 143.536723 
L 236.568191 145.960532 
L 237.344133 139.942947 
L 238.120076 139.69536 
L 238.896019 141.106002 
L 239.671962 137.65891 
L 241.999791 167.350477 
L 242.775734 170.292379 
L 243.551677 158.134139 
L 244.32762 139.833524 
L 245.103563 136.127093 
L 245.879506 133.4699 
L 247.431392 152.858011 
L 248.207335 145.054406 
L 248.983278 142.333466 
L 250.535164 162.75471 
L 252.08705 152.255957 
L 252.862993 154.755601 
L 253.638936 156.821698 
L 254.414879 164.165482 
L 255.190822 163.751222 
L 255.966765 169.375765 
L 256.742708 167.26389 
L 257.518651 159.733905 
L 258.294594 166.204447 
L 259.070537 161.327335 
L 259.84648 163.716903 
L 260.622423 156.125091 
L 261.398366 166.226781 
L 262.174309 173.239813 
L 262.950252 178.778126 
L 263.726195 180.235329 
L 264.502138 160.955899 
L 265.278081 136.371486 
L 266.054024 122.380056 
L 266.829967 103.288424 
L 267.60591 87.521044 
L 269.157796 50.537727 
L 269.933739 51.225874 
L 270.709682 52.99693 
L 271.485625 58.107694 
L 272.261568 50.391018 
L 273.037511 94.006451 
L 273.813454 96.247657 
L 274.589397 111.360673 
L 275.36534 120.766585 
L 276.141283 132.164707 
L 276.917226 123.303178 
L 278.469112 154.079471 
L 280.020998 171.575314 
L 280.796941 177.944704 
L 281.572884 173.162685 
L 283.900713 114.161779 
L 285.452599 73.804688 
L 287.004485 59.57993 
L 287.780428 55.236121 
L 288.556371 59.781231 
L 290.108257 62.41332 
L 290.8842 72.17054 
L 291.660143 68.785914 
L 292.436086 87.076315 
L 293.212029 101.976831 
L 293.987971 119.753266 
L 294.763914 116.109698 
L 295.539857 105.786874 
L 296.3158 90.049111 
L 297.091743 92.484321 
L 297.867686 89.860419 
L 298.643629 91.041146 
L 299.419572 94.217893 
L 300.195515 94.800638 
L 300.971458 83.983583 
L 301.747401 102.323179 
L 302.523344 91.362431 
L 303.299287 88.399294 
L 304.07523 106.860872 
L 304.851173 115.056657 
L 305.627116 119.460499 
L 306.403059 118.747717 
L 307.179002 114.423358 
L 307.954945 108.528115 
L 308.730888 92.142045 
L 309.506831 85.013761 
L 310.282774 85.463403 
L 311.058717 78.950516 
L 311.83466 76.805743 
L 312.610603 80.987051 
L 313.386546 67.262745 
L 314.938432 57.530583 
L 315.714375 61.860842 
L 316.490318 58.5061 
L 317.266261 57.268548 
L 318.042204 62.753252 
L 318.818147 60.144238 
L 319.59409 63.007619 
L 320.370033 63.854764 
L 321.145976 62.990947 
L 321.921919 65.043306 
L 322.697862 69.052054 
L 323.473805 67.049409 
L 324.249748 62.387295 
L 325.025691 61.968584 
L 325.801634 62.023558 
L 326.577577 65.020908 
L 327.35352 62.96282 
L 328.129463 65.027684 
L 328.905406 66.035811 
L 329.681349 65.278232 
L 330.457292 70.515067 
L 331.233235 73.477651 
L 332.009178 64.182655 
L 332.785121 51.609072 
L 333.561064 57.985004 
L 334.337007 57.317646 
L 335.11295 52.517116 
L 335.888893 57.296495 
L 336.664836 59.169775 
L 337.440779 57.970396 
L 338.216722 64.069452 
L 338.992665 59.062325 
L 339.768608 66.98218 
L 340.544551 67.116328 
L 341.320494 69.990043 
L 342.096437 71.423073 
L 342.87238 64.937593 
L 343.648323 62.127266 
L 344.424266 69.670757 
L 345.200209 81.001467 
L 345.976152 82.429722 
L 346.752095 89.409622 
L 347.528038 82.118789 
L 348.303981 80.358016 
L 349.079924 77.820258 
L 349.855867 81.492185 
L 350.631809 86.208862 
L 351.407752 85.571858 
L 352.183695 84.167125 
L 352.959638 84.995384 
L 353.735581 86.535756 
L 354.511524 96.542004 
L 355.287467 136.060157 
L 356.839353 175.83852 
L 357.615296 161.86964 
L 358.391239 138.366644 
L 359.167182 130.252468 
L 359.943125 134.05604 
L 360.719068 118.453962 
L 361.495011 118.411558 
L 362.270954 108.267362 
L 363.046897 107.047076 
L 364.598783 96.282006 
L 365.374726 93.387843 
L 366.150669 89.296725 
L 366.926612 86.648986 
L 368.478498 70.86872 
L 369.254441 68.580408 
L 370.030384 67.170615 
L 370.806327 66.721153 
L 371.58227 68.547728 
L 372.358213 71.076134 
L 373.134156 70.596754 
L 374.686042 61.123495 
L 375.461985 54.621396 
L 377.013871 48.588864 
L 377.789814 52.75548 
L 378.565757 49.917313 
L 379.3417 47.556155 
L 380.117643 46.298647 
L 381.669529 55.600999 
L 382.445472 62.20133 
L 383.997358 51.96748 
L 384.773301 46.685535 
L 385.549244 45.854078 
L 386.325187 51.221716 
L 387.10113 64.219094 
L 387.877073 72.679737 
L 388.653016 78.18959 
L 389.428959 73.735092 
L 390.204902 81.977383 
L 390.980845 83.296167 
L 391.756788 90.589296 
L 392.532731 109.895332 
L 393.308674 133.573985 
L 394.084617 112.431138 
L 394.86056 103.16174 
L 395.636503 104.115822 
L 396.412446 94.857693 
L 397.964332 66.443251 
L 399.516218 40.552125 
L 400.292161 72.576949 
L 401.068104 99.158435 
L 401.844047 114.882236 
L 402.61999 138.197143 
L 403.395933 146.388942 
L 404.171876 142.631703 
L 404.947819 147.95974 
L 405.723762 154.45555 
L 406.499705 174.843328 
L 407.275647 173.24022 
L 408.05159 157.573574 
L 408.827533 165.518133 
L 409.603476 167.010311 
L 410.379419 172.769918 
L 411.155362 188.182995 
L 411.931305 172.716108 
L 412.707248 160.96116 
L 413.483191 161.064902 
L 414.259134 159.092962 
L 415.035077 160.418158 
L 415.81102 151.94802 
L 416.586963 131.949137 
L 417.362906 100.267386 
L 418.138849 91.70561 
L 418.914792 88.315543 
L 419.690735 95.463677 
L 420.466678 73.504771 
L 421.242621 75.362179 
L 422.018564 55.424444 
L 422.794507 71.106808 
L 423.57045 78.090272 
L 424.346393 79.566573 
L 425.122336 69.16096 
L 425.898279 72.171124 
L 426.674222 64.161834 
L 427.450165 73.299804 
L 428.226108 70.872407 
L 429.002051 73.390764 
L 429.777994 74.647346 
L 430.553937 80.148465 
L 431.32988 82.326762 
L 432.105823 88.955539 
L 432.881766 74.002355 
L 433.657709 76.938643 
L 434.433652 72.281056 
L 435.209595 79.848124 
L 435.985538 98.329542 
L 436.761481 109.925452 
L 437.537424 132.418813 
L 439.08931 146.805386 
L 439.865253 148.337736 
L 440.641196 145.682785 
L 441.417139 140.219364 
L 442.193082 129.950207 
L 442.969025 131.316343 
L 443.744968 119.144935 
L 445.296854 123.091102 
L 446.072797 147.697991 
L 446.84874 157.478501 
L 447.624683 160.596838 
L 448.400626 153.143375 
L 449.176569 144.342165 
L 449.952512 138.297987 
L 451.504398 136.445725 
L 453.832227 152.267094 
L 454.60817 163.703397 
L 455.384113 166.277182 
L 456.935999 151.510902 
L 457.711942 149.962955 
L 458.487885 164.206811 
L 459.263828 164.358516 
L 460.039771 147.457188 
L 460.815714 137.428733 
L 461.591657 129.10493 
L 462.3676 117.737096 
L 463.143542 113.806107 
L 463.919485 119.11355 
L 464.695428 127.928802 
L 465.471371 126.461378 
L 466.247314 127.172707 
L 467.023257 136.780937 
L 467.7992 140.22342 
L 468.575143 147.831971 
L 469.351086 145.929242 
L 470.902972 158.322673 
L 471.678915 163.028521 
L 472.454858 181.392921 
L 473.230801 190.516017 
L 474.006744 195.538553 
L 474.782687 199.553492 
L 475.55863 204.840862 
L 476.334573 196.699449 
L 477.110516 194.208865 
L 477.886459 204.036006 
L 478.662402 210.680656 
L 479.438345 191.139036 
L 480.214288 167.547017 
L 480.990231 155.487181 
L 481.766174 158.47337 
L 482.542117 167.334511 
L 483.31806 158.549155 
L 484.094003 192.191667 
L 484.869946 203.888919 
L 485.645889 209.874388 
L 486.421832 231.875405 
L 487.197775 246.161437 
L 487.973718 252.840397 
L 488.749661 253.532803 
L 489.525604 241.418843 
L 491.07749 180.795934 
L 491.853433 164.733353 
L 492.629376 152.405382 
L 493.405319 147.094703 
L 494.181262 137.228966 
L 494.957205 129.800219 
L 495.733148 134.402063 
L 496.509091 128.874559 
L 496.509091 128.874559 
" clip-path="url(#p21d102d166)" style="fill: none; stroke: #ff7f0e; stroke-width: 1.5; stroke-linecap: square"/>
   </g>
   <g id="line2d_29">
    <path d="M 90.690909 292.552125 
L 139.575317 292.54883 
L 140.35126 292.410239 
L 143.455032 292.532901 
L 154.318234 292.547107 
L 155.094177 292.427963 
L 158.197949 292.53435 
L 171.38898 292.546643 
L 198.546984 292.501583 
L 200.09887 292.40514 
L 203.202642 292.530711 
L 203.978585 292.438406 
L 208.634243 292.52901 
L 214.841787 292.541749 
L 217.945559 292.418349 
L 218.721502 292.469174 
L 221.049331 292.281295 
L 222.601217 292.387942 
L 223.37716 292.167035 
L 224.153103 292.143261 
L 226.480932 292.351693 
L 227.256875 292.359034 
L 228.032818 292.076722 
L 229.584704 292.260776 
L 230.360647 291.992905 
L 231.13659 292.113959 
L 231.912533 292.086251 
L 232.688476 291.849211 
L 233.464419 291.940291 
L 234.240362 291.794662 
L 235.016305 291.437701 
L 236.568191 291.884912 
L 237.344133 292.022524 
L 238.120076 291.856555 
L 238.896019 291.829899 
L 239.671962 291.672434 
L 241.223848 291.80729 
L 241.999791 291.591922 
L 242.775734 291.001477 
L 243.551677 291.450972 
L 244.32762 291.033076 
L 245.103563 290.889457 
L 246.655449 291.209516 
L 247.431392 291.376776 
L 248.207335 291.694149 
L 249.759221 291.918098 
L 250.535164 291.883724 
L 251.311107 291.494505 
L 253.638936 292.107169 
L 255.190822 291.604225 
L 255.966765 291.946778 
L 256.742708 291.777681 
L 257.518651 291.379602 
L 259.070537 291.470117 
L 259.84648 291.40502 
L 261.398366 291.897609 
L 262.174309 291.965404 
L 262.950252 291.863786 
L 263.726195 292.103434 
L 264.502138 292.173258 
L 265.278081 292.084289 
L 266.054024 291.748636 
L 266.829967 291.749878 
L 267.60591 291.981638 
L 268.381853 291.751324 
L 269.157796 291.095209 
L 269.933739 291.524018 
L 270.709682 291.572303 
L 271.485625 291.110651 
L 272.261568 290.792412 
L 273.037511 290.950298 
L 273.813454 291.453149 
L 274.589397 290.81971 
L 275.36534 291.13884 
L 276.141283 290.757026 
L 276.917226 290.962292 
L 277.693169 289.663992 
L 278.469112 289.294332 
L 279.245055 288.721484 
L 280.020998 289.284406 
L 280.796941 288.507212 
L 281.572884 288.459699 
L 282.348827 287.334257 
L 283.12477 287.361121 
L 283.900713 286.713284 
L 284.676656 287.005565 
L 285.452599 287.665426 
L 286.228542 288.67563 
L 287.004485 288.836729 
L 287.780428 289.326499 
L 288.556371 288.324919 
L 289.332314 288.991679 
L 290.108257 288.607523 
L 290.8842 288.769263 
L 292.436086 289.474755 
L 293.987971 286.239992 
L 294.763914 285.724318 
L 295.539857 286.152549 
L 296.3158 287.052362 
L 297.867686 288.228753 
L 298.643629 289.293878 
L 300.195515 289.838303 
L 300.971458 289.746489 
L 301.747401 290.105344 
L 302.523344 290.71977 
L 303.299287 290.702649 
L 304.07523 290.052217 
L 304.851173 290.422732 
L 305.627116 289.87417 
L 306.403059 290.074505 
L 307.179002 289.285767 
L 307.954945 289.474462 
L 308.730888 289.873317 
L 309.506831 290.502007 
L 310.282774 291.28653 
L 311.058717 290.341827 
L 311.83466 290.060375 
L 312.610603 290.562428 
L 314.162489 290.686474 
L 314.938432 289.886011 
L 315.714375 289.543265 
L 317.266261 289.685603 
L 318.042204 289.238459 
L 318.818147 289.60398 
L 319.59409 290.690542 
L 320.370033 291.368129 
L 321.145976 291.043562 
L 321.921919 291.129361 
L 322.697862 291.09559 
L 324.249748 291.565356 
L 325.025691 291.665983 
L 325.801634 292.01421 
L 326.577577 290.624244 
L 327.35352 290.202299 
L 328.129463 289.347339 
L 328.905406 289.255979 
L 329.681349 287.615351 
L 331.233235 285.862001 
L 332.009178 284.758306 
L 332.785121 285.638658 
L 333.561064 284.982135 
L 334.337007 284.09783 
L 335.11295 284.141568 
L 335.888893 284.484209 
L 336.664836 284.511123 
L 337.440779 283.660332 
L 338.216722 283.448487 
L 338.992665 281.369215 
L 339.768608 280.375855 
L 340.544551 280.924624 
L 341.320494 280.745218 
L 342.096437 281.022737 
L 342.87238 280.750285 
L 343.648323 279.858802 
L 344.424266 280.035697 
L 345.200209 279.619836 
L 345.976152 280.940517 
L 346.752095 280.944565 
L 347.528038 280.406294 
L 349.079924 281.247014 
L 349.855867 280.709474 
L 350.631809 282.36354 
L 351.407752 282.136649 
L 352.959638 284.48461 
L 353.735581 284.723108 
L 354.511524 285.386596 
L 355.287467 285.783929 
L 356.06341 283.830449 
L 356.839353 284.32123 
L 357.615296 282.405388 
L 358.391239 281.759367 
L 359.167182 279.251855 
L 360.719068 278.76955 
L 361.495011 280.264345 
L 362.270954 280.493035 
L 363.82284 275.770912 
L 364.598783 274.792576 
L 365.374726 276.233139 
L 366.150669 273.40913 
L 366.926612 272.584514 
L 367.702555 273.979547 
L 368.478498 276.027848 
L 369.254441 274.687221 
L 370.030384 276.262134 
L 370.806327 275.512234 
L 371.58227 278.496963 
L 372.358213 278.148227 
L 373.134156 277.472573 
L 373.910099 278.600816 
L 374.686042 281.230406 
L 375.461985 285.294562 
L 376.237928 285.99759 
L 377.013871 286.355549 
L 377.789814 285.361876 
L 378.565757 285.45433 
L 379.3417 286.644475 
L 380.117643 284.47226 
L 380.893586 285.562933 
L 381.669529 284.617765 
L 382.445472 281.827926 
L 383.221415 282.791152 
L 384.773301 282.277187 
L 385.549244 282.039832 
L 386.325187 280.242218 
L 387.877073 277.573013 
L 388.653016 276.91004 
L 389.428959 277.570048 
L 390.204902 279.139118 
L 390.980845 279.129664 
L 391.756788 277.096135 
L 392.532731 279.188912 
L 393.308674 277.313796 
L 394.084617 275.962355 
L 394.86056 274.213278 
L 395.636503 273.966828 
L 396.412446 270.973984 
L 397.188389 274.952793 
L 397.964332 277.02766 
L 399.516218 282.394278 
L 400.292161 283.788414 
L 401.068104 285.601179 
L 402.61999 282.783116 
L 403.395933 285.314575 
L 404.171876 285.910347 
L 404.947819 285.858728 
L 405.723762 286.098848 
L 406.499705 280.647649 
L 407.275647 284.985546 
L 408.05159 287.837003 
L 408.827533 288.503848 
L 410.379419 285.127219 
L 411.155362 284.302812 
L 411.931305 283.849843 
L 412.707248 281.400866 
L 413.483191 281.152456 
L 414.259134 278.123777 
L 415.035077 277.18279 
L 415.81102 278.204497 
L 416.586963 282.344154 
L 417.362906 284.697388 
L 418.138849 282.040815 
L 418.914792 276.334621 
L 419.690735 278.480824 
L 420.466678 282.247919 
L 421.242621 283.708195 
L 422.018564 284.588987 
L 423.57045 280.491885 
L 424.346393 277.766356 
L 425.122336 279.698913 
L 425.898279 281.054861 
L 426.674222 283.57848 
L 427.450165 282.906197 
L 428.226108 280.496362 
L 429.002051 279.864599 
L 429.777994 276.555886 
L 430.553937 275.165217 
L 432.105823 277.997315 
L 432.881766 278.162633 
L 433.657709 273.304811 
L 434.433652 276.2689 
L 435.209595 276.146052 
L 435.985538 278.268418 
L 436.761481 282.25762 
L 437.537424 284.207854 
L 438.313367 286.77112 
L 439.08931 288.464663 
L 439.865253 287.759323 
L 440.641196 286.637447 
L 441.417139 286.40359 
L 442.969025 288.773585 
L 443.744968 286.655648 
L 444.520911 287.570382 
L 445.296854 288.710403 
L 446.072797 289.168416 
L 446.84874 290.374932 
L 447.624683 291.245643 
L 449.176569 292.042498 
L 450.728455 292.368659 
L 453.056284 292.512496 
L 454.60817 292.537859 
L 455.384113 292.238912 
L 456.935999 292.28199 
L 457.711942 292.173771 
L 458.487885 291.313054 
L 459.263828 291.300917 
L 460.039771 290.775451 
L 460.815714 290.793158 
L 461.591657 291.256481 
L 463.143542 290.829902 
L 463.919485 290.753213 
L 464.695428 290.442022 
L 465.471371 290.545934 
L 466.247314 290.84284 
L 467.023257 290.63638 
L 467.7992 289.975123 
L 469.351086 288.24152 
L 470.127029 288.845014 
L 470.902972 290.087533 
L 471.678915 289.52993 
L 472.454858 289.543076 
L 473.230801 287.000843 
L 474.006744 287.559483 
L 474.782687 287.027774 
L 475.55863 286.995943 
L 476.334573 285.100872 
L 477.110516 286.436153 
L 477.886459 286.307302 
L 478.662402 285.897278 
L 479.438345 286.830249 
L 480.214288 287.054323 
L 480.990231 288.19961 
L 481.766174 285.478264 
L 482.542117 285.092126 
L 483.31806 283.348548 
L 484.094003 283.469699 
L 484.869946 283.305092 
L 485.645889 285.39611 
L 486.421832 286.456373 
L 487.197775 285.244606 
L 487.973718 283.577649 
L 488.749661 280.927871 
L 489.525604 279.219045 
L 490.301547 279.117436 
L 491.07749 278.453868 
L 491.853433 279.445114 
L 492.629376 281.577158 
L 493.405319 279.818131 
L 494.181262 280.279853 
L 494.957205 279.784397 
L 495.733148 280.30903 
L 496.509091 280.674407 
L 496.509091 280.674407 
" clip-path="url(#p21d102d166)" style="fill: none; stroke: #2ca02c; stroke-width: 1.5; stroke-linecap: square"/>
   </g>
   <g id="line2d_30">
    <path d="M 90.690909 288.037689 
L 91.466852 288.665511 
L 92.242795 288.971697 
L 93.018738 289.031307 
L 93.794681 288.887461 
L 94.570624 289.154701 
L 95.346567 288.662722 
L 96.12251 287.963837 
L 96.898453 288.059799 
L 97.674396 288.505609 
L 100.002225 287.706164 
L 100.778168 287.572163 
L 101.554111 287.651385 
L 102.330054 287.98383 
L 103.105997 287.442148 
L 103.88194 287.94522 
L 105.433826 288.467353 
L 108.537598 289.309317 
L 110.089484 288.236213 
L 110.865427 285.037633 
L 111.64137 284.824267 
L 112.417313 284.048735 
L 113.193256 281.643553 
L 113.969199 282.747814 
L 114.745142 278.620838 
L 115.521085 280.177332 
L 116.297028 278.702395 
L 117.072971 280.814875 
L 117.848914 269.492325 
L 118.624857 271.557879 
L 120.176743 278.612014 
L 120.952686 278.698392 
L 121.728629 275.946455 
L 122.504572 279.537956 
L 123.280515 280.003234 
L 124.056458 279.735674 
L 124.8324 282.18579 
L 125.608343 283.40595 
L 126.384286 281.564314 
L 127.160229 282.219383 
L 127.936172 281.945017 
L 128.712115 279.439988 
L 129.488058 280.214744 
L 130.264001 273.711586 
L 131.039944 272.712587 
L 131.815887 272.724054 
L 132.59183 275.48746 
L 133.367773 278.934581 
L 134.143716 276.336394 
L 135.695602 283.498602 
L 136.471545 284.940547 
L 138.023431 281.728095 
L 138.799374 282.732998 
L 139.575317 284.591997 
L 140.35126 280.965699 
L 141.127203 283.24327 
L 141.903146 284.340707 
L 142.679089 286.116568 
L 143.455032 286.089658 
L 144.230975 283.145255 
L 145.006918 283.522891 
L 145.782861 284.97157 
L 146.558804 279.914795 
L 147.334747 281.966109 
L 149.662576 285.439841 
L 150.438519 286.289161 
L 151.214462 286.310038 
L 151.990405 280.841865 
L 152.766348 282.493927 
L 153.542291 279.990209 
L 154.318234 282.526504 
L 155.094177 284.590255 
L 155.87012 282.966997 
L 156.646063 284.898521 
L 157.422006 285.752213 
L 158.197949 286.439121 
L 158.973892 286.076133 
L 159.749835 287.123438 
L 160.525778 287.711564 
L 161.301721 284.146676 
L 162.077664 284.512125 
L 162.853607 281.944022 
L 163.62955 283.512191 
L 164.405493 284.563227 
L 165.181436 285.042896 
L 165.957379 284.730208 
L 166.733322 281.382033 
L 167.509265 280.815208 
L 168.285208 279.646345 
L 169.061151 281.624408 
L 169.837094 282.829821 
L 170.613037 282.025005 
L 171.38898 273.89546 
L 172.940866 272.580448 
L 173.716809 267.502209 
L 174.492752 266.232135 
L 175.268695 271.543405 
L 176.044638 270.775477 
L 176.820581 272.112372 
L 177.596524 270.942866 
L 178.372467 270.244606 
L 179.14841 271.440374 
L 179.924353 270.547043 
L 180.700295 275.03791 
L 181.476238 268.32308 
L 182.252181 271.159001 
L 183.028124 265.121408 
L 183.804067 264.482809 
L 184.58001 267.118872 
L 185.355953 257.470579 
L 186.131896 264.051392 
L 186.907839 267.235408 
L 187.683782 271.640403 
L 188.459725 275.380845 
L 189.235668 276.646457 
L 190.011611 273.858101 
L 190.787554 275.346471 
L 191.563497 274.86043 
L 192.33944 271.022148 
L 193.115383 269.679242 
L 193.891326 261.410506 
L 194.667269 260.001039 
L 195.443212 256.026856 
L 196.219155 265.102128 
L 196.995098 260.294291 
L 197.771041 260.484229 
L 198.546984 256.359817 
L 199.322927 250.285593 
L 200.09887 256.310298 
L 200.874813 255.491152 
L 201.650756 258.698867 
L 202.426699 250.4354 
L 203.202642 255.321063 
L 203.978585 262.25617 
L 204.754528 252.978621 
L 205.530471 246.173293 
L 206.306414 245.464077 
L 207.082357 251.248388 
L 207.8583 254.429173 
L 208.634243 250.75146 
L 209.410186 249.438821 
L 210.186129 249.198676 
L 210.962072 253.574056 
L 211.738015 259.847986 
L 212.513958 248.530868 
L 213.289901 248.192026 
L 214.065844 247.109431 
L 214.841787 239.720592 
L 215.61773 241.126899 
L 216.393673 243.540508 
L 217.169616 231.652316 
L 217.945559 236.923366 
L 218.721502 249.40877 
L 219.497445 241.356799 
L 220.273388 248.557537 
L 221.049331 259.265746 
L 221.825274 257.608304 
L 222.601217 247.511786 
L 223.37716 244.71144 
L 224.929046 248.0794 
L 225.704989 245.518943 
L 226.480932 236.279156 
L 227.256875 234.784373 
L 228.032818 234.996898 
L 228.808761 232.171365 
L 229.584704 225.972832 
L 230.360647 229.321381 
L 231.13659 222.33165 
L 231.912533 219.396624 
L 232.688476 224.174076 
L 233.464419 233.513057 
L 234.240362 229.630219 
L 235.016305 228.77198 
L 235.792248 220.210574 
L 236.568191 232.667192 
L 238.120076 222.644433 
L 238.896019 227.571947 
L 239.671962 224.325041 
L 241.223848 237.763683 
L 241.999791 230.971025 
L 242.775734 235.502766 
L 243.551677 232.734326 
L 244.32762 228.864778 
L 245.103563 237.873663 
L 245.879506 249.005552 
L 246.655449 251.122553 
L 247.431392 246.480056 
L 248.207335 245.783586 
L 248.983278 248.959646 
L 249.759221 246.999244 
L 250.535164 250.882804 
L 251.311107 250.945249 
L 252.08705 254.432924 
L 252.862993 250.545658 
L 253.638936 252.477983 
L 254.414879 253.217415 
L 255.190822 250.142771 
L 255.966765 244.928716 
L 256.742708 238.093146 
L 257.518651 238.590309 
L 258.294594 234.779536 
L 259.070537 232.031542 
L 259.84648 235.185917 
L 260.622423 246.303181 
L 261.398366 246.77767 
L 262.174309 254.872129 
L 262.950252 255.34084 
L 263.726195 259.535459 
L 264.502138 259.29909 
L 265.278081 256.649378 
L 266.054024 252.40166 
L 266.829967 244.656007 
L 267.60591 244.844413 
L 268.381853 242.52754 
L 269.933739 232.479427 
L 270.709682 237.871701 
L 271.485625 238.787469 
L 272.261568 236.399308 
L 273.037511 228.511757 
L 273.813454 231.067671 
L 274.589397 230.435955 
L 275.36534 238.655458 
L 276.917226 244.67088 
L 277.693169 243.168297 
L 278.469112 242.033877 
L 279.245055 244.179906 
L 280.020998 242.927845 
L 280.796941 245.410538 
L 281.572884 239.517725 
L 282.348827 243.990471 
L 283.12477 245.469173 
L 283.900713 247.396849 
L 284.676656 244.145143 
L 285.452599 240.015839 
L 286.228542 243.407177 
L 287.004485 245.527681 
L 287.780428 244.044481 
L 288.556371 248.621657 
L 289.332314 247.347087 
L 290.8842 224.491642 
L 291.660143 226.64811 
L 292.436086 218.051752 
L 293.212029 216.522975 
L 293.987971 215.337874 
L 294.763914 214.886598 
L 295.539857 212.999937 
L 296.3158 214.045335 
L 297.091743 220.571911 
L 297.867686 221.296935 
L 298.643629 217.172544 
L 299.419572 221.817566 
L 300.195515 231.466153 
L 300.971458 237.554327 
L 301.747401 231.813321 
L 302.523344 230.491972 
L 303.299287 235.486425 
L 304.07523 237.557649 
L 304.851173 236.540153 
L 305.627116 234.353298 
L 306.403059 237.469697 
L 307.179002 245.033096 
L 307.954945 248.037974 
L 308.730888 246.846362 
L 309.506831 247.10323 
L 310.282774 251.289787 
L 311.058717 247.635136 
L 311.83466 245.76606 
L 312.610603 235.587204 
L 313.386546 227.922601 
L 314.162489 233.08997 
L 314.938432 231.19503 
L 315.714375 239.788002 
L 316.490318 239.533259 
L 317.266261 241.314513 
L 318.042204 240.577398 
L 318.818147 245.931148 
L 319.59409 246.573338 
L 320.370033 247.474371 
L 321.145976 247.938263 
L 321.921919 245.124255 
L 322.697862 236.608949 
L 323.473805 237.896604 
L 324.249748 233.042235 
L 325.025691 236.804673 
L 325.801634 238.939754 
L 326.577577 240.723419 
L 327.35352 238.710632 
L 328.129463 239.048739 
L 328.905406 233.506887 
L 329.681349 227.091463 
L 330.457292 217.26949 
L 331.233235 209.163956 
L 332.009178 210.785871 
L 333.561064 197.704285 
L 334.337007 209.00578 
L 335.11295 215.080297 
L 335.888893 216.684471 
L 336.664836 224.522257 
L 337.440779 227.758581 
L 338.216722 221.916081 
L 338.992665 223.965418 
L 339.768608 222.438776 
L 340.544551 226.479295 
L 341.320494 220.339572 
L 342.096437 222.067883 
L 342.87238 224.132024 
L 343.648323 223.769168 
L 344.424266 216.597571 
L 345.200209 212.045832 
L 345.976152 219.130534 
L 346.752095 218.448068 
L 348.303981 220.266831 
L 349.079924 221.73181 
L 349.855867 226.181666 
L 350.631809 219.352427 
L 351.407752 220.287477 
L 352.183695 218.015342 
L 352.959638 222.312313 
L 353.735581 225.04152 
L 354.511524 221.232912 
L 355.287467 215.893798 
L 356.06341 220.231035 
L 356.839353 221.559662 
L 357.615296 224.508616 
L 358.391239 224.428077 
L 359.167182 234.394929 
L 359.943125 231.544651 
L 360.719068 233.504063 
L 361.495011 224.131824 
L 362.270954 223.83032 
L 363.046897 213.899549 
L 363.82284 218.383095 
L 364.598783 210.318882 
L 365.374726 217.436608 
L 366.150669 229.987739 
L 366.926612 232.739143 
L 367.702555 228.204471 
L 368.478498 221.278728 
L 369.254441 227.567211 
L 370.030384 228.183179 
L 370.806327 230.438871 
L 371.58227 227.733748 
L 372.358213 236.008604 
L 373.134156 236.660845 
L 373.910099 241.606489 
L 374.686042 242.140324 
L 375.461985 244.159787 
L 377.013871 253.814666 
L 377.789814 249.770779 
L 378.565757 247.170615 
L 379.3417 251.574891 
L 380.117643 252.265932 
L 380.893586 254.044327 
L 381.669529 252.192548 
L 382.445472 252.051248 
L 383.221415 249.307355 
L 383.997358 250.669712 
L 384.773301 254.003103 
L 385.549244 255.354666 
L 386.325187 256.008719 
L 387.10113 253.83643 
L 387.877073 254.674217 
L 388.653016 258.326245 
L 389.428959 255.167014 
L 390.204902 250.878272 
L 391.756788 255.080796 
L 392.532731 255.122884 
L 393.308674 254.195561 
L 394.084617 253.511793 
L 394.86056 254.255454 
L 395.636503 251.609153 
L 396.412446 247.022506 
L 397.188389 248.374762 
L 397.964332 243.430856 
L 399.516218 249.674075 
L 400.292161 247.822905 
L 401.068104 247.644263 
L 401.844047 242.032182 
L 402.61999 234.315826 
L 403.395933 235.957422 
L 404.171876 240.111918 
L 404.947819 240.051036 
L 405.723762 239.738602 
L 406.499705 242.107437 
L 407.275647 243.085143 
L 408.05159 245.79016 
L 408.827533 243.094681 
L 409.603476 242.227963 
L 410.379419 242.538555 
L 411.155362 239.797763 
L 411.931305 239.524446 
L 412.707248 238.731545 
L 413.483191 242.264904 
L 414.259134 242.71524 
L 415.035077 248.929344 
L 415.81102 242.189932 
L 416.586963 241.542168 
L 417.362906 245.391229 
L 418.138849 247.035131 
L 418.914792 246.019499 
L 419.690735 245.429594 
L 420.466678 246.500438 
L 421.242621 247.037226 
L 422.018564 249.655265 
L 422.794507 247.113734 
L 423.57045 241.895994 
L 424.346393 240.979428 
L 425.122336 238.884795 
L 425.898279 245.775199 
L 426.674222 245.079957 
L 427.450165 252.375989 
L 428.226108 250.394275 
L 429.002051 254.003629 
L 429.777994 251.368418 
L 430.553937 248.169163 
L 431.32988 247.16877 
L 432.105823 247.322229 
L 432.881766 246.44464 
L 433.657709 242.814181 
L 434.433652 245.235621 
L 435.209595 250.110405 
L 435.985538 242.02965 
L 436.761481 245.456088 
L 437.537424 243.926346 
L 438.313367 241.519196 
L 439.08931 246.368745 
L 439.865253 252.382974 
L 440.641196 256.545231 
L 441.417139 261.943121 
L 442.969025 257.266769 
L 443.744968 261.120432 
L 444.520911 255.881747 
L 445.296854 257.461726 
L 446.072797 256.195278 
L 446.84874 260.427455 
L 447.624683 247.427228 
L 448.400626 254.008965 
L 449.176569 258.748727 
L 449.952512 258.081783 
L 450.728455 261.454062 
L 451.504398 258.0943 
L 452.280341 264.42759 
L 453.056284 267.999466 
L 453.832227 266.766463 
L 454.60817 267.057713 
L 455.384113 268.669033 
L 456.160056 268.040885 
L 456.935999 262.854436 
L 457.711942 260.732681 
L 458.487885 261.324411 
L 459.263828 259.908823 
L 460.039771 263.475693 
L 460.815714 254.392055 
L 461.591657 258.547304 
L 462.3676 261.869508 
L 463.143542 255.464051 
L 463.919485 253.22926 
L 464.695428 253.533991 
L 465.471371 251.798109 
L 466.247314 244.446649 
L 467.023257 253.536512 
L 467.7992 256.825874 
L 468.575143 257.374796 
L 469.351086 255.863443 
L 470.127029 252.456494 
L 471.678915 260.432379 
L 472.454858 256.362202 
L 473.230801 260.163573 
L 474.006744 257.926564 
L 474.782687 246.852405 
L 475.55863 253.555596 
L 476.334573 254.697431 
L 477.110516 253.309564 
L 477.886459 254.561777 
L 478.662402 251.563609 
L 479.438345 246.47854 
L 480.214288 250.112739 
L 480.990231 249.259784 
L 482.542117 248.377104 
L 483.31806 250.400392 
L 484.094003 250.836453 
L 484.869946 250.455161 
L 485.645889 251.340907 
L 486.421832 250.532477 
L 487.197775 243.018395 
L 487.973718 243.707225 
L 488.749661 245.441746 
L 489.525604 248.286136 
L 490.301547 241.383802 
L 491.07749 246.265111 
L 491.853433 246.654302 
L 492.629376 248.771009 
L 493.405319 239.239258 
L 494.181262 238.655172 
L 494.957205 239.665657 
L 495.733148 244.073676 
L 496.509091 241.098545 
L 496.509091 241.098545 
" clip-path="url(#p21d102d166)" style="fill: none; stroke: #d62728; stroke-width: 1.5; stroke-linecap: square"/>
   </g>
   <g id="line2d_31">
    <path d="M 90.690909 274.776983 
L 91.466852 274.50621 
L 92.242795 274.578819 
L 93.794681 274.351735 
L 94.570624 274.611752 
L 95.346567 275.230248 
L 96.12251 275.485737 
L 96.898453 275.274333 
L 98.450339 275.694989 
L 99.226282 275.679424 
L 102.330054 278.025801 
L 103.88194 278.66488 
L 104.657883 278.513848 
L 105.433826 278.477335 
L 106.209769 278.636694 
L 107.761655 277.974476 
L 108.537598 278.044638 
L 110.865427 276.851294 
L 111.64137 276.812379 
L 112.417313 276.537307 
L 113.193256 276.942366 
L 113.969199 276.930875 
L 114.745142 276.550512 
L 115.521085 276.558375 
L 116.297028 276.876008 
L 117.072971 276.351363 
L 117.848914 276.276119 
L 118.624857 275.881031 
L 119.4008 275.82098 
L 120.176743 276.206568 
L 120.952686 276.290825 
L 121.728629 276.646783 
L 122.504572 276.83544 
L 123.280515 276.885855 
L 124.056458 276.56285 
L 124.8324 276.434247 
L 125.608343 276.86502 
L 126.384286 276.876319 
L 127.936172 275.607075 
L 128.712115 275.387105 
L 129.488058 275.55286 
L 131.039944 276.381025 
L 131.815887 276.471406 
L 133.367773 277.382991 
L 134.143716 277.418288 
L 134.919659 277.801326 
L 135.695602 278.05663 
L 136.471545 277.851974 
L 137.247488 277.525671 
L 138.023431 276.801754 
L 138.799374 276.601257 
L 139.575317 276.23373 
L 140.35126 276.073623 
L 141.127203 275.456625 
L 141.903146 275.201715 
L 142.679089 275.199362 
L 143.455032 274.777689 
L 144.230975 274.593541 
L 145.006918 275.038451 
L 145.782861 275.252021 
L 146.558804 275.182961 
L 148.886633 274.345997 
L 149.662576 274.690429 
L 150.438519 274.847099 
L 151.214462 275.498783 
L 151.990405 275.928047 
L 153.542291 277.094375 
L 154.318234 277.447288 
L 156.646063 279.5518 
L 158.197949 278.847452 
L 158.973892 278.839514 
L 159.749835 279.083441 
L 160.525778 279.045167 
L 162.853607 277.515173 
L 165.181436 278.322964 
L 165.957379 278.41945 
L 166.733322 277.97988 
L 168.285208 277.504373 
L 169.061151 277.133255 
L 169.837094 277.083858 
L 171.38898 277.974664 
L 172.164923 277.748401 
L 172.940866 278.066362 
L 173.716809 278.0526 
L 174.492752 278.266951 
L 175.268695 278.14018 
L 176.044638 277.385485 
L 176.820581 277.08285 
L 178.372467 277.023824 
L 179.924353 276.791035 
L 180.700295 276.958803 
L 182.252181 277.661203 
L 183.028124 277.870296 
L 183.804067 278.354555 
L 184.58001 278.978173 
L 186.131896 279.798393 
L 187.683782 280.059718 
L 190.011611 279.771499 
L 191.563497 279.464874 
L 193.115383 279.270245 
L 196.219155 278.299068 
L 196.995098 277.971587 
L 197.771041 278.144871 
L 198.546984 278.502217 
L 199.322927 278.446392 
L 200.09887 278.130638 
L 200.874813 278.01745 
L 201.650756 277.704823 
L 202.426699 277.583297 
L 203.202642 277.5892 
L 203.978585 277.290556 
L 204.754528 277.221431 
L 207.082357 275.295847 
L 207.8583 275.428217 
L 210.186129 275.064523 
L 210.962072 275.643728 
L 211.738015 275.863572 
L 212.513958 275.877382 
L 213.289901 275.489714 
L 214.065844 274.854137 
L 216.393673 274.396297 
L 217.169616 274.554435 
L 217.945559 274.937142 
L 218.721502 275.593835 
L 219.497445 275.685459 
L 220.273388 275.530313 
L 221.049331 275.720141 
L 221.825274 276.436584 
L 222.601217 276.491524 
L 223.37716 276.409651 
L 224.153103 276.205053 
L 224.929046 276.362178 
L 225.704989 276.252912 
L 226.480932 275.918383 
L 227.256875 276.029483 
L 228.032818 275.944382 
L 228.808761 275.430784 
L 229.584704 275.236921 
L 231.912533 275.16588 
L 232.688476 275.032421 
L 233.464419 275.464134 
L 235.016305 275.568338 
L 235.792248 275.392544 
L 237.344133 275.328347 
L 238.120076 275.564097 
L 238.896019 275.161964 
L 241.223848 274.273024 
L 241.999791 273.803782 
L 242.775734 273.541642 
L 243.551677 273.41832 
L 244.32762 273.658453 
L 245.879506 273.700921 
L 247.431392 273.215858 
L 248.207335 273.154668 
L 248.983278 273.285433 
L 249.759221 272.858052 
L 250.535164 272.648578 
L 251.311107 272.612331 
L 252.08705 273.007346 
L 253.638936 273.456523 
L 254.414879 273.430149 
L 255.190822 273.533468 
L 255.966765 273.304088 
L 256.742708 272.770082 
L 257.518651 272.803408 
L 259.84648 273.577897 
L 261.398366 273.429597 
L 262.174309 273.213672 
L 262.950252 272.796905 
L 263.726195 272.765442 
L 265.278081 272.398193 
L 268.381853 272.759873 
L 271.485625 272.833977 
L 272.261568 272.923909 
L 273.037511 273.129951 
L 273.813454 273.176477 
L 274.589397 273.107652 
L 275.36534 273.442458 
L 276.141283 273.578849 
L 276.917226 272.944227 
L 278.469112 272.424774 
L 280.020998 271.863347 
L 280.796941 271.405634 
L 283.900713 270.985161 
L 284.676656 270.46979 
L 285.452599 270.147163 
L 286.228542 269.50118 
L 289.332314 268.806693 
L 290.108257 269.048547 
L 290.8842 268.477005 
L 291.660143 268.21752 
L 292.436086 268.569706 
L 293.212029 268.441915 
L 293.987971 268.605199 
L 294.763914 268.255113 
L 295.539857 267.542438 
L 296.3158 267.648398 
L 297.091743 268.056859 
L 297.867686 268.315425 
L 299.419572 267.315781 
L 300.195515 266.286005 
L 300.971458 266.370572 
L 301.747401 266.286198 
L 302.523344 266.326854 
L 303.299287 265.992822 
L 304.07523 265.853452 
L 305.627116 265.978908 
L 306.403059 265.822485 
L 307.179002 265.067106 
L 308.730888 264.359101 
L 309.506831 263.596547 
L 310.282774 263.407675 
L 311.058717 264.111382 
L 311.83466 264.296066 
L 314.162489 264.26858 
L 314.938432 264.507706 
L 315.714375 263.802199 
L 316.490318 263.758384 
L 317.266261 263.256024 
L 318.042204 262.444923 
L 318.818147 262.108235 
L 319.59409 262.352148 
L 320.370033 262.253687 
L 321.145976 263.400972 
L 321.921919 263.850848 
L 323.473805 264.1263 
L 324.249748 264.359409 
L 325.025691 263.980063 
L 325.801634 264.664586 
L 326.577577 265.712616 
L 327.35352 266.338088 
L 328.129463 266.418333 
L 328.905406 266.20606 
L 329.681349 266.194702 
L 330.457292 265.731984 
L 332.009178 265.461973 
L 332.785121 265.5893 
L 333.561064 264.766802 
L 334.337007 264.83291 
L 335.11295 263.906423 
L 335.888893 263.531507 
L 336.664836 262.788445 
L 338.216722 259.553473 
L 338.992665 258.655168 
L 339.768608 257.132097 
L 340.544551 256.426242 
L 342.096437 254.595265 
L 342.87238 254.052739 
L 343.648323 253.765701 
L 344.424266 253.283325 
L 345.200209 253.135243 
L 345.976152 252.507134 
L 346.752095 252.469604 
L 347.528038 252.597058 
L 348.303981 252.911254 
L 349.079924 252.790315 
L 349.855867 252.301278 
L 351.407752 252.178042 
L 352.183695 252.51191 
L 352.959638 252.402316 
L 353.735581 252.454966 
L 354.511524 252.070861 
L 355.287467 252.634692 
L 356.06341 252.009059 
L 356.839353 251.742068 
L 357.615296 252.162565 
L 358.391239 252.23102 
L 359.167182 252.436154 
L 359.943125 253.614378 
L 360.719068 254.152065 
L 361.495011 253.818552 
L 362.270954 253.281579 
L 363.046897 252.974657 
L 363.82284 253.396727 
L 364.598783 253.598768 
L 366.150669 252.908561 
L 367.702555 254.103662 
L 368.478498 255.373151 
L 369.254441 257.081471 
L 370.030384 257.388016 
L 370.806327 257.084492 
L 371.58227 257.110902 
L 372.358213 257.375467 
L 373.134156 256.04393 
L 373.910099 255.854212 
L 374.686042 256.891737 
L 375.461985 256.764095 
L 377.013871 256.891882 
L 377.789814 256.499044 
L 378.565757 257.800575 
L 380.117643 259.447661 
L 380.893586 259.691525 
L 381.669529 260.941739 
L 382.445472 261.811638 
L 383.221415 262.488253 
L 385.549244 260.270982 
L 387.10113 257.08136 
L 387.877073 256.969026 
L 388.653016 256.554212 
L 389.428959 256.690621 
L 390.204902 257.77014 
L 390.980845 257.591348 
L 391.756788 257.975989 
L 392.532731 258.191076 
L 393.308674 257.468058 
L 394.084617 257.989904 
L 394.86056 257.558809 
L 395.636503 256.108389 
L 396.412446 255.000779 
L 397.188389 255.33794 
L 397.964332 256.518035 
L 399.516218 259.779039 
L 400.292161 260.163149 
L 401.068104 260.056056 
L 401.844047 259.458981 
L 402.61999 259.140804 
L 403.395933 259.42209 
L 404.171876 260.178478 
L 404.947819 260.472046 
L 405.723762 259.82138 
L 406.499705 258.896861 
L 409.603476 257.317729 
L 410.379419 256.544708 
L 411.155362 256.739148 
L 412.707248 255.609181 
L 413.483191 255.286076 
L 414.259134 255.393143 
L 415.035077 255.139516 
L 415.81102 255.611763 
L 416.586963 255.799509 
L 417.362906 256.578582 
L 418.138849 257.09312 
L 419.690735 258.546631 
L 420.466678 259.470284 
L 421.242621 259.999145 
L 422.018564 260.233703 
L 422.794507 260.846171 
L 423.57045 261.223891 
L 425.122336 260.987471 
L 426.674222 261.59977 
L 427.450165 261.79465 
L 428.226108 261.602745 
L 429.002051 261.276298 
L 429.777994 260.816309 
L 430.553937 260.769029 
L 431.32988 260.587435 
L 432.105823 261.018123 
L 432.881766 261.653819 
L 433.657709 261.765825 
L 434.433652 262.026888 
L 435.985538 263.138834 
L 436.761481 263.589777 
L 437.537424 263.782244 
L 438.313367 264.325112 
L 439.08931 264.673503 
L 441.417139 264.92702 
L 442.193082 264.29016 
L 442.969025 264.157103 
L 444.520911 263.159161 
L 445.296854 262.836591 
L 446.84874 264.040341 
L 448.400626 264.857885 
L 449.176569 264.985352 
L 450.728455 265.522378 
L 453.056284 265.832676 
L 454.60817 265.917552 
L 455.384113 266.267787 
L 456.935999 266.431999 
L 457.711942 266.666017 
L 458.487885 266.65928 
L 459.263828 266.209937 
L 460.039771 266.11184 
L 460.815714 266.279556 
L 461.591657 266.162485 
L 463.143542 265.452949 
L 466.247314 265.113013 
L 467.023257 264.466398 
L 469.351086 262.915935 
L 471.678915 263.371782 
L 472.454858 263.159606 
L 473.230801 262.631711 
L 474.006744 261.785586 
L 476.334573 259.927863 
L 477.110516 259.712206 
L 478.662402 260.85074 
L 480.214288 261.207462 
L 480.990231 260.888838 
L 481.766174 260.306542 
L 483.31806 261.193901 
L 484.869946 261.029206 
L 485.645889 261.205012 
L 486.421832 261.802929 
L 487.973718 262.128146 
L 488.749661 262.072119 
L 489.525604 261.745338 
L 490.301547 261.119098 
L 491.07749 260.332233 
L 491.853433 260.417209 
L 493.405319 259.213881 
L 495.733148 258.264736 
L 496.509091 258.116957 
L 496.509091 258.116957 
" clip-path="url(#p21d102d166)" style="fill: none; stroke: #9467bd; stroke-width: 1.5; stroke-linecap: square"/>
   </g>
   <g id="patch_3">
    <path d="M 70.4 305.152125 
L 70.4 27.952125 
" style="fill: none; stroke: #000000; stroke-width: 0.8; stroke-linejoin: miter; stroke-linecap: square"/>
   </g>
   <g id="patch_4">
    <path d="M 516.8 305.152125 
L 516.8 27.952125 
" style="fill: none; stroke: #000000; stroke-width: 0.8; stroke-linejoin: miter; stroke-linecap: square"/>
   </g>
   <g id="patch_5">
    <path d="M 70.4 305.152125 
L 516.8 305.152125 
" style="fill: none; stroke: #000000; stroke-width: 0.8; stroke-linejoin: miter; stroke-linecap: square"/>
   </g>
   <g id="patch_6">
    <path d="M 70.4 27.952125 
L 516.8 27.952125 
" style="fill: none; stroke: #000000; stroke-width: 0.8; stroke-linejoin: miter; stroke-linecap: square"/>
   </g>
   <g id="text_17">
    <!-- ML10 Meta Testing -->
    <g transform="translate(206.604313 21.952125)scale(0.216 -0.216)">
     <defs>
      <path id="STIXGeneral-Regular-4d" d="M 5530 0 
L 3738 0 
L 3738 122 
Q 4115 147 4214 265 
Q 4314 384 4314 787 
L 4314 3661 
L 2682 0 
L 2592 0 
L 979 3514 
L 979 966 
Q 979 448 1088 294 
Q 1197 141 1574 122 
L 1574 0 
L 77 0 
L 77 122 
Q 358 141 480 205 
Q 602 269 650 432 
Q 698 595 698 966 
L 698 3514 
Q 698 3878 589 3984 
Q 480 4090 90 4115 
L 90 4237 
L 1357 4237 
L 2835 1024 
L 4250 4237 
L 5523 4237 
L 5523 4115 
Q 5178 4109 5072 3993 
Q 4966 3878 4966 3520 
L 4966 717 
Q 4966 378 5072 262 
Q 5178 147 5530 122 
L 5530 0 
z
" transform="scale(0.015625)"/>
      <path id="STIXGeneral-Regular-4c" d="M 3827 1114 
L 3520 0 
L 77 0 
L 77 122 
Q 429 141 531 256 
Q 634 371 634 736 
L 634 3494 
Q 634 3872 541 3981 
Q 448 4090 77 4115 
L 77 4237 
L 1888 4237 
L 1888 4115 
Q 1498 4090 1392 3984 
Q 1286 3878 1286 3507 
L 1286 538 
Q 1286 358 1398 304 
Q 1510 250 1862 250 
L 2310 250 
Q 3085 250 3392 640 
Q 3520 813 3661 1114 
L 3827 1114 
z
" transform="scale(0.015625)"/>
     </defs>
     <use xlink:href="#STIXGeneral-Regular-4d"/>
     <use xlink:href="#STIXGeneral-Regular-4c" x="88.899994"/>
     <use xlink:href="#STIXGeneral-Regular-31" x="149.999985"/>
     <use xlink:href="#STIXGeneral-Regular-30" x="199.999969"/>
     <use xlink:href="#STIXGeneral-Regular-20" x="249.999954"/>
     <use xlink:href="#STIXGeneral-Regular-4d" x="274.999939"/>
     <use xlink:href="#STIXGeneral-Regular-65" x="363.899933"/>
     <use xlink:href="#STIXGeneral-Regular-74" x="408.299927"/>
     <use xlink:href="#STIXGeneral-Regular-61" x="436.099915"/>
     <use xlink:href="#STIXGeneral-Regular-20" x="480.499908"/>
     <use xlink:href="#STIXGeneral-Regular-54" x="505.499893"/>
     <use xlink:href="#STIXGeneral-Regular-65" x="566.599884"/>
     <use xlink:href="#STIXGeneral-Regular-73" x="610.999878"/>
     <use xlink:href="#STIXGeneral-Regular-74" x="649.899872"/>
     <use xlink:href="#STIXGeneral-Regular-69" x="677.69986"/>
     <use xlink:href="#STIXGeneral-Regular-6e" x="705.499847"/>
     <use xlink:href="#STIXGeneral-Regular-67" x="755.499832"/>
    </g>
   </g>
   <g id="legend_1">
    <g id="patch_7">
     <path d="M 80.2 138.344312 
L 214.405313 138.344312 
Q 217.205313 138.344312 217.205313 135.544312 
L 217.205313 37.752125 
Q 217.205313 34.952125 214.405313 34.952125 
L 80.2 34.952125 
Q 77.4 34.952125 77.4 37.752125 
L 77.4 135.544312 
Q 77.4 138.344312 80.2 138.344312 
z
" style="fill: #ffffff; opacity: 0.8; stroke: #cccccc; stroke-linejoin: miter"/>
    </g>
    <g id="line2d_32">
     <path d="M 83 45.452125 
L 97 45.452125 
L 111 45.452125 
" style="fill: none; stroke: #1f77b4; stroke-width: 1.5; stroke-linecap: square"/>
    </g>
    <g id="text_18">
     <!-- drawer-open-v2 -->
     <g transform="translate(122.2 50.352125)scale(0.14 -0.14)">
      <defs>
       <path id="STIXGeneral-Regular-64" d="M 3142 269 
L 2202 -64 
L 2176 -45 
L 2176 365 
Q 1869 -64 1357 -64 
Q 826 -64 499 317 
Q 173 698 173 1312 
Q 173 1990 563 2467 
Q 954 2944 1504 2944 
Q 1850 2944 2176 2669 
L 2176 3667 
Q 2176 3866 2118 3930 
Q 2061 3994 1882 3994 
Q 1792 3994 1741 3987 
L 1741 4090 
Q 2323 4243 2682 4371 
L 2714 4358 
L 2714 730 
Q 2714 506 2768 435 
Q 2822 365 2995 365 
Q 3034 365 3142 371 
L 3142 269 
z
M 2176 653 
L 2176 2125 
Q 2176 2381 1981 2573 
Q 1786 2765 1523 2765 
Q 1158 2765 940 2438 
Q 723 2112 723 1568 
Q 723 979 963 624 
Q 1203 269 1606 269 
Q 1907 269 2080 474 
Q 2176 582 2176 653 
z
" transform="scale(0.015625)"/>
       <path id="STIXGeneral-Regular-77" d="M 4442 2880 
L 4442 2784 
Q 4346 2752 4301 2691 
Q 4256 2630 4179 2438 
L 3296 224 
Q 3168 -90 3117 -90 
Q 3085 -90 3062 -48 
Q 3040 -6 2963 186 
L 2381 1696 
L 1664 160 
Q 1549 -90 1504 -90 
Q 1446 -90 1338 192 
L 474 2381 
Q 378 2630 314 2700 
Q 250 2771 134 2784 
L 134 2880 
L 1286 2880 
L 1286 2784 
Q 1120 2765 1056 2720 
Q 992 2675 992 2573 
Q 992 2477 1030 2381 
L 1664 710 
L 2246 1984 
L 2118 2342 
Q 2029 2598 1942 2681 
Q 1856 2765 1677 2784 
L 1677 2880 
L 2976 2880 
L 2976 2784 
Q 2752 2752 2678 2707 
Q 2605 2662 2605 2560 
Q 2605 2458 2714 2176 
L 3251 742 
L 3827 2163 
Q 3936 2432 3936 2592 
Q 3936 2669 3875 2710 
Q 3814 2752 3654 2784 
L 3654 2880 
L 4442 2880 
z
" transform="scale(0.015625)"/>
       <path id="STIXGeneral-Regular-2d" d="M 1824 1242 
L 250 1242 
L 250 1645 
L 1824 1645 
L 1824 1242 
z
" transform="scale(0.015625)"/>
      </defs>
      <use xlink:href="#STIXGeneral-Regular-64"/>
      <use xlink:href="#STIXGeneral-Regular-72" x="49.999985"/>
      <use xlink:href="#STIXGeneral-Regular-61" x="83.299973"/>
      <use xlink:href="#STIXGeneral-Regular-77" x="127.699966"/>
      <use xlink:href="#STIXGeneral-Regular-65" x="199.899948"/>
      <use xlink:href="#STIXGeneral-Regular-72" x="244.299942"/>
      <use xlink:href="#STIXGeneral-Regular-2d" x="277.59993"/>
      <use xlink:href="#STIXGeneral-Regular-6f" x="310.899918"/>
      <use xlink:href="#STIXGeneral-Regular-70" x="360.899902"/>
      <use xlink:href="#STIXGeneral-Regular-65" x="410.899887"/>
      <use xlink:href="#STIXGeneral-Regular-6e" x="455.299881"/>
      <use xlink:href="#STIXGeneral-Regular-2d" x="505.299866"/>
      <use xlink:href="#STIXGeneral-Regular-76" x="538.599854"/>
      <use xlink:href="#STIXGeneral-Regular-32" x="588.599838"/>
     </g>
    </g>
    <g id="line2d_33">
     <path d="M 83 65.290562 
L 97 65.290562 
L 111 65.290562 
" style="fill: none; stroke: #ff7f0e; stroke-width: 1.5; stroke-linecap: square"/>
    </g>
    <g id="text_19">
     <!-- door-close-v2 -->
     <g transform="translate(122.2 70.190562)scale(0.14 -0.14)">
      <defs>
       <path id="STIXGeneral-Regular-63" d="M 2547 998 
L 2637 941 
Q 2362 403 2112 205 
Q 1786 -64 1376 -64 
Q 845 -64 502 336 
Q 160 736 160 1357 
Q 160 2170 698 2618 
Q 1094 2944 1562 2944 
Q 1965 2944 2256 2749 
Q 2547 2554 2547 2285 
Q 2547 2176 2457 2096 
Q 2368 2016 2246 2016 
Q 2022 2016 1939 2310 
L 1901 2451 
Q 1850 2630 1773 2694 
Q 1696 2758 1523 2758 
Q 1133 2758 893 2451 
Q 653 2144 653 1645 
Q 653 1094 928 745 
Q 1203 397 1645 397 
Q 1920 397 2118 528 
Q 2317 659 2547 998 
z
" transform="scale(0.015625)"/>
       <path id="STIXGeneral-Regular-6c" d="M 1645 0 
L 134 0 
L 134 96 
Q 435 122 531 221 
Q 627 320 627 589 
L 627 3590 
Q 627 3821 569 3910 
Q 512 4000 358 4000 
Q 224 4000 122 3987 
L 122 4090 
Q 730 4237 1133 4371 
L 1165 4346 
L 1165 557 
Q 1165 288 1254 201 
Q 1344 115 1645 96 
L 1645 0 
z
" transform="scale(0.015625)"/>
      </defs>
      <use xlink:href="#STIXGeneral-Regular-64"/>
      <use xlink:href="#STIXGeneral-Regular-6f" x="49.999985"/>
      <use xlink:href="#STIXGeneral-Regular-6f" x="99.999969"/>
      <use xlink:href="#STIXGeneral-Regular-72" x="149.999954"/>
      <use xlink:href="#STIXGeneral-Regular-2d" x="183.299942"/>
      <use xlink:href="#STIXGeneral-Regular-63" x="216.59993"/>
      <use xlink:href="#STIXGeneral-Regular-6c" x="260.999924"/>
      <use xlink:href="#STIXGeneral-Regular-6f" x="288.799911"/>
      <use xlink:href="#STIXGeneral-Regular-73" x="338.799896"/>
      <use xlink:href="#STIXGeneral-Regular-65" x="377.69989"/>
      <use xlink:href="#STIXGeneral-Regular-2d" x="422.099884"/>
      <use xlink:href="#STIXGeneral-Regular-76" x="455.399872"/>
      <use xlink:href="#STIXGeneral-Regular-32" x="505.399857"/>
     </g>
    </g>
    <g id="line2d_34">
     <path d="M 83 85.129 
L 97 85.129 
L 111 85.129 
" style="fill: none; stroke: #2ca02c; stroke-width: 1.5; stroke-linecap: square"/>
    </g>
    <g id="text_20">
     <!-- shelf-place-v2 -->
     <g transform="translate(122.2 90.029)scale(0.14 -0.14)">
      <defs>
       <path id="STIXGeneral-Regular-68" d="M 3117 0 
L 1760 0 
L 1760 96 
Q 2042 128 2118 224 
Q 2195 320 2195 653 
L 2195 1920 
Q 2195 2598 1722 2598 
Q 1530 2598 1370 2508 
Q 1210 2419 1005 2195 
L 1005 653 
Q 1005 320 1081 224 
Q 1158 128 1440 96 
L 1440 0 
L 58 0 
L 58 96 
Q 333 134 400 224 
Q 467 314 467 653 
L 467 3667 
Q 467 3872 406 3933 
Q 346 3994 141 3994 
Q 83 3994 64 3987 
L 64 4090 
L 237 4141 
Q 730 4288 973 4371 
L 1005 4352 
L 1005 2406 
Q 1229 2694 1446 2819 
Q 1664 2944 1946 2944 
Q 2733 2944 2733 1926 
L 2733 653 
Q 2733 320 2793 233 
Q 2854 147 3117 96 
L 3117 0 
z
" transform="scale(0.015625)"/>
       <path id="STIXGeneral-Regular-66" d="M 134 2880 
L 659 2880 
Q 666 3264 710 3478 
Q 755 3693 883 3910 
Q 1152 4371 1786 4371 
Q 2074 4371 2262 4259 
Q 2451 4147 2451 3974 
Q 2451 3866 2374 3789 
Q 2298 3712 2182 3712 
Q 2029 3712 1894 3942 
Q 1741 4192 1555 4192 
Q 1197 4192 1197 3622 
L 1197 2880 
L 1978 2880 
L 1978 2675 
L 1197 2675 
L 1197 666 
Q 1197 307 1299 208 
Q 1402 109 1792 96 
L 1792 0 
L 128 0 
L 128 96 
Q 474 115 566 214 
Q 659 314 659 666 
L 659 2675 
L 134 2675 
L 134 2880 
z
" transform="scale(0.015625)"/>
      </defs>
      <use xlink:href="#STIXGeneral-Regular-73"/>
      <use xlink:href="#STIXGeneral-Regular-68" x="38.899994"/>
      <use xlink:href="#STIXGeneral-Regular-65" x="88.899979"/>
      <use xlink:href="#STIXGeneral-Regular-6c" x="133.299973"/>
      <use xlink:href="#STIXGeneral-Regular-66" x="161.09996"/>
      <use xlink:href="#STIXGeneral-Regular-2d" x="194.399948"/>
      <use xlink:href="#STIXGeneral-Regular-70" x="227.699936"/>
      <use xlink:href="#STIXGeneral-Regular-6c" x="277.699921"/>
      <use xlink:href="#STIXGeneral-Regular-61" x="305.499908"/>
      <use xlink:href="#STIXGeneral-Regular-63" x="349.899902"/>
      <use xlink:href="#STIXGeneral-Regular-65" x="394.299896"/>
      <use xlink:href="#STIXGeneral-Regular-2d" x="438.69989"/>
      <use xlink:href="#STIXGeneral-Regular-76" x="471.999878"/>
      <use xlink:href="#STIXGeneral-Regular-32" x="521.999863"/>
     </g>
    </g>
    <g id="line2d_35">
     <path d="M 83 104.967437 
L 97 104.967437 
L 111 104.967437 
" style="fill: none; stroke: #d62728; stroke-width: 1.5; stroke-linecap: square"/>
    </g>
    <g id="text_21">
     <!-- sweep-into-v2 -->
     <g transform="translate(122.2 109.867437)scale(0.14 -0.14)">
      <use xlink:href="#STIXGeneral-Regular-73"/>
      <use xlink:href="#STIXGeneral-Regular-77" x="38.899994"/>
      <use xlink:href="#STIXGeneral-Regular-65" x="111.099976"/>
      <use xlink:href="#STIXGeneral-Regular-65" x="155.499969"/>
      <use xlink:href="#STIXGeneral-Regular-70" x="199.899963"/>
      <use xlink:href="#STIXGeneral-Regular-2d" x="249.899948"/>
      <use xlink:href="#STIXGeneral-Regular-69" x="283.199936"/>
      <use xlink:href="#STIXGeneral-Regular-6e" x="310.999924"/>
      <use xlink:href="#STIXGeneral-Regular-74" x="360.999908"/>
      <use xlink:href="#STIXGeneral-Regular-6f" x="388.799896"/>
      <use xlink:href="#STIXGeneral-Regular-2d" x="438.799881"/>
      <use xlink:href="#STIXGeneral-Regular-76" x="472.099869"/>
      <use xlink:href="#STIXGeneral-Regular-32" x="522.099854"/>
     </g>
    </g>
    <g id="line2d_36">
     <path d="M 83 124.805875 
L 97 124.805875 
L 111 124.805875 
" style="fill: none; stroke: #9467bd; stroke-width: 1.5; stroke-linecap: square"/>
    </g>
    <g id="text_22">
     <!-- lever-pull-v2 -->
     <g transform="translate(122.2 129.705875)scale(0.14 -0.14)">
      <use xlink:href="#STIXGeneral-Regular-6c"/>
      <use xlink:href="#STIXGeneral-Regular-65" x="27.799988"/>
      <use xlink:href="#STIXGeneral-Regular-76" x="72.199982"/>
      <use xlink:href="#STIXGeneral-Regular-65" x="122.199966"/>
      <use xlink:href="#STIXGeneral-Regular-72" x="166.59996"/>
      <use xlink:href="#STIXGeneral-Regular-2d" x="199.899948"/>
      <use xlink:href="#STIXGeneral-Regular-70" x="233.199936"/>
      <use xlink:href="#STIXGeneral-Regular-75" x="283.199921"/>
      <use xlink:href="#STIXGeneral-Regular-6c" x="333.199905"/>
      <use xlink:href="#STIXGeneral-Regular-6c" x="360.999893"/>
      <use xlink:href="#STIXGeneral-Regular-2d" x="388.799881"/>
      <use xlink:href="#STIXGeneral-Regular-76" x="422.099869"/>
      <use xlink:href="#STIXGeneral-Regular-32" x="472.099854"/>
     </g>
    </g>
   </g>
  </g>
 </g>
 <defs>
  <clipPath id="p21d102d166">
   <rect x="70.4" y="27.952125" width="446.4" height="277.2"/>
  </clipPath>
 </defs>
</svg>
