<?xml version="1.0" encoding="utf-8" standalone="no"?>
<!DOCTYPE svg PUBLIC "-//W3C//DTD SVG 1.1//EN"
  "http://www.w3.org/Graphics/SVG/1.1/DTD/svg11.dtd">
<svg xmlns:xlink="http://www.w3.org/1999/xlink" width="510.5pt" height="355.769pt" viewBox="0 0 510.5 355.769" xmlns="http://www.w3.org/2000/svg" version="1.1">
 <metadata>
  <rdf:RDF xmlns:dc="http://purl.org/dc/elements/1.1/" xmlns:cc="http://creativecommons.org/ns#" xmlns:rdf="http://www.w3.org/1999/02/22-rdf-syntax-ns#">
   <cc:Work>
    <dc:type rdf:resource="http://purl.org/dc/dcmitype/StillImage"/>
    <dc:date>2021-12-11T20:29:12.428523</dc:date>
    <dc:format>image/svg+xml</dc:format>
    <dc:creator>
     <cc:Agent>
      <dc:title>Matplotlib v3.5.0, https://matplotlib.org/</dc:title>
     </cc:Agent>
    </dc:creator>
   </cc:Work>
  </rdf:RDF>
 </metadata>
 <defs>
  <style type="text/css">*{stroke-linejoin: round; stroke-linecap: butt}</style>
 </defs>
 <g id="figure_1">
  <g id="patch_1">
   <path d="M 0 355.769 
L 510.5 355.769 
L 510.5 0 
L 0 0 
z
" style="fill: #ffffff"/>
  </g>
  <g id="axes_1">
   <g id="patch_2">
    <path d="M 56.9 305.152125 
L 503.3 305.152125 
L 503.3 27.952125 
L 56.9 27.952125 
z
" style="fill: #ffffff"/>
   </g>
   <g id="matplotlib.axis_1">
    <g id="xtick_1">
     <g id="line2d_1">
      <path d="M 76.387309 305.152125 
L 76.387309 27.952125 
" clip-path="url(#p0f861dc630)" style="fill: none; stroke: #b0b0b0; stroke-width: 0.8; stroke-linecap: square"/>
     </g>
     <g id="line2d_2">
      <defs>
       <path id="m2e273940cf" d="M 0 0 
L 0 3.5 
" style="stroke: #000000; stroke-width: 0.8"/>
      </defs>
      <g>
       <use xlink:href="#m2e273940cf" x="76.387309" y="305.152125" style="stroke: #000000; stroke-width: 0.8"/>
      </g>
     </g>
     <g id="text_1">
      <!-- 0.0 -->
      <g transform="translate(65.137309 324.445562)scale(0.18 -0.18)">
       <defs>
        <path id="STIXGeneral-Regular-30" d="M 3046 2112 
Q 3046 1683 2963 1302 
Q 2880 922 2717 602 
Q 2554 282 2266 96 
Q 1978 -90 1600 -90 
Q 1210 -90 915 108 
Q 621 307 461 640 
Q 301 973 227 1350 
Q 154 1728 154 2150 
Q 154 2746 301 3222 
Q 448 3699 790 4012 
Q 1133 4326 1626 4326 
Q 2253 4326 2649 3712 
Q 3046 3098 3046 2112 
z
M 2432 2080 
Q 2432 3091 2217 3625 
Q 2003 4160 1587 4160 
Q 1190 4160 979 3622 
Q 768 3085 768 2106 
Q 768 1120 979 598 
Q 1190 77 1600 77 
Q 2003 77 2217 598 
Q 2432 1120 2432 2080 
z
" transform="scale(0.015625)"/>
        <path id="STIXGeneral-Regular-2e" d="M 1158 275 
Q 1158 134 1052 32 
Q 947 -70 800 -70 
Q 653 -70 550 32 
Q 448 134 448 281 
Q 448 429 553 534 
Q 659 640 806 640 
Q 947 640 1052 531 
Q 1158 422 1158 275 
z
" transform="scale(0.015625)"/>
       </defs>
       <use xlink:href="#STIXGeneral-Regular-30"/>
       <use xlink:href="#STIXGeneral-Regular-2e" x="49.999985"/>
       <use xlink:href="#STIXGeneral-Regular-30" x="74.999969"/>
      </g>
     </g>
    </g>
    <g id="xtick_2">
     <g id="line2d_3">
      <path d="M 156.747345 305.152125 
L 156.747345 27.952125 
" clip-path="url(#p0f861dc630)" style="fill: none; stroke: #b0b0b0; stroke-width: 0.8; stroke-linecap: square"/>
     </g>
     <g id="line2d_4">
      <g>
       <use xlink:href="#m2e273940cf" x="156.747345" y="305.152125" style="stroke: #000000; stroke-width: 0.8"/>
      </g>
     </g>
     <g id="text_2">
      <!-- 0.2 -->
      <g transform="translate(145.497345 324.445562)scale(0.18 -0.18)">
       <defs>
        <path id="STIXGeneral-Regular-32" d="M 3034 877 
L 2688 0 
L 186 0 
L 186 77 
L 1325 1286 
Q 1773 1754 1965 2144 
Q 2157 2534 2157 2950 
Q 2157 3379 1920 3616 
Q 1683 3853 1267 3853 
Q 922 3853 720 3673 
Q 518 3494 326 3021 
L 192 3053 
Q 301 3648 630 3987 
Q 960 4326 1523 4326 
Q 2054 4326 2380 4006 
Q 2707 3686 2707 3200 
Q 2707 2477 1888 1613 
L 832 486 
L 2330 486 
Q 2541 486 2665 569 
Q 2790 653 2944 915 
L 3034 877 
z
" transform="scale(0.015625)"/>
       </defs>
       <use xlink:href="#STIXGeneral-Regular-30"/>
       <use xlink:href="#STIXGeneral-Regular-2e" x="49.999985"/>
       <use xlink:href="#STIXGeneral-Regular-32" x="74.999969"/>
      </g>
     </g>
    </g>
    <g id="xtick_3">
     <g id="line2d_5">
      <path d="M 237.107381 305.152125 
L 237.107381 27.952125 
" clip-path="url(#p0f861dc630)" style="fill: none; stroke: #b0b0b0; stroke-width: 0.8; stroke-linecap: square"/>
     </g>
     <g id="line2d_6">
      <g>
       <use xlink:href="#m2e273940cf" x="237.107381" y="305.152125" style="stroke: #000000; stroke-width: 0.8"/>
      </g>
     </g>
     <g id="text_3">
      <!-- 0.4 -->
      <g transform="translate(225.857381 324.445562)scale(0.18 -0.18)">
       <defs>
        <path id="STIXGeneral-Regular-34" d="M 3027 1069 
L 2368 1069 
L 2368 0 
L 1869 0 
L 1869 1069 
L 77 1069 
L 77 1478 
L 2086 4326 
L 2368 4326 
L 2368 1478 
L 3027 1478 
L 3027 1069 
z
M 1869 1478 
L 1869 3674 
L 333 1478 
L 1869 1478 
z
" transform="scale(0.015625)"/>
       </defs>
       <use xlink:href="#STIXGeneral-Regular-30"/>
       <use xlink:href="#STIXGeneral-Regular-2e" x="49.999985"/>
       <use xlink:href="#STIXGeneral-Regular-34" x="74.999969"/>
      </g>
     </g>
    </g>
    <g id="xtick_4">
     <g id="line2d_7">
      <path d="M 317.467417 305.152125 
L 317.467417 27.952125 
" clip-path="url(#p0f861dc630)" style="fill: none; stroke: #b0b0b0; stroke-width: 0.8; stroke-linecap: square"/>
     </g>
     <g id="line2d_8">
      <g>
       <use xlink:href="#m2e273940cf" x="317.467417" y="305.152125" style="stroke: #000000; stroke-width: 0.8"/>
      </g>
     </g>
     <g id="text_4">
      <!-- 0.6 -->
      <g transform="translate(306.217417 324.445562)scale(0.18 -0.18)">
       <defs>
        <path id="STIXGeneral-Regular-36" d="M 2854 4378 
L 2867 4275 
Q 2112 4154 1606 3664 
Q 1101 3174 973 2451 
Q 1344 2739 1786 2739 
Q 2349 2739 2672 2380 
Q 2995 2022 2995 1402 
Q 2995 774 2669 378 
Q 2291 -90 1651 -90 
Q 870 -90 518 557 
Q 218 1107 218 1786 
Q 218 2835 915 3552 
Q 1312 3962 1731 4131 
Q 2150 4301 2854 4378 
z
M 2419 1203 
Q 2419 2445 1555 2445 
Q 1235 2445 1024 2275 
Q 813 2106 813 1702 
Q 813 954 1046 522 
Q 1280 90 1722 90 
Q 2061 90 2240 394 
Q 2419 698 2419 1203 
z
" transform="scale(0.015625)"/>
       </defs>
       <use xlink:href="#STIXGeneral-Regular-30"/>
       <use xlink:href="#STIXGeneral-Regular-2e" x="49.999985"/>
       <use xlink:href="#STIXGeneral-Regular-36" x="74.999969"/>
      </g>
     </g>
    </g>
    <g id="xtick_5">
     <g id="line2d_9">
      <path d="M 397.827453 305.152125 
L 397.827453 27.952125 
" clip-path="url(#p0f861dc630)" style="fill: none; stroke: #b0b0b0; stroke-width: 0.8; stroke-linecap: square"/>
     </g>
     <g id="line2d_10">
      <g>
       <use xlink:href="#m2e273940cf" x="397.827453" y="305.152125" style="stroke: #000000; stroke-width: 0.8"/>
      </g>
     </g>
     <g id="text_5">
      <!-- 0.8 -->
      <g transform="translate(386.577453 324.445562)scale(0.18 -0.18)">
       <defs>
        <path id="STIXGeneral-Regular-38" d="M 2848 992 
Q 2848 499 2505 204 
Q 2163 -90 1587 -90 
Q 1050 -90 704 204 
Q 358 499 358 954 
Q 358 1293 524 1533 
Q 691 1773 1190 2125 
Q 710 2522 553 2765 
Q 397 3008 397 3328 
Q 397 3782 745 4054 
Q 1094 4326 1638 4326 
Q 2106 4326 2410 4060 
Q 2714 3795 2714 3411 
Q 2714 3059 2531 2848 
Q 2349 2637 1856 2374 
Q 2432 1990 2640 1689 
Q 2848 1389 2848 992 
z
M 2272 3411 
Q 2272 3744 2086 3945 
Q 1901 4147 1574 4147 
Q 1248 4147 1059 3977 
Q 870 3808 870 3513 
Q 870 3219 1059 2979 
Q 1248 2739 1670 2490 
Q 1997 2682 2134 2896 
Q 2272 3110 2272 3411 
z
M 1734 1741 
L 1357 1997 
Q 1075 1766 960 1545 
Q 845 1325 845 1011 
Q 845 576 1065 333 
Q 1286 90 1658 90 
Q 1971 90 2166 285 
Q 2362 480 2362 794 
Q 2362 1082 2214 1299 
Q 2067 1517 1734 1741 
z
" transform="scale(0.015625)"/>
       </defs>
       <use xlink:href="#STIXGeneral-Regular-30"/>
       <use xlink:href="#STIXGeneral-Regular-2e" x="49.999985"/>
       <use xlink:href="#STIXGeneral-Regular-38" x="74.999969"/>
      </g>
     </g>
    </g>
    <g id="xtick_6">
     <g id="line2d_11">
      <path d="M 478.187489 305.152125 
L 478.187489 27.952125 
" clip-path="url(#p0f861dc630)" style="fill: none; stroke: #b0b0b0; stroke-width: 0.8; stroke-linecap: square"/>
     </g>
     <g id="line2d_12">
      <g>
       <use xlink:href="#m2e273940cf" x="478.187489" y="305.152125" style="stroke: #000000; stroke-width: 0.8"/>
      </g>
     </g>
     <g id="text_6">
      <!-- 1.0 -->
      <g transform="translate(466.937489 324.445562)scale(0.18 -0.18)">
       <defs>
        <path id="STIXGeneral-Regular-31" d="M 2522 0 
L 755 0 
L 755 96 
Q 1107 115 1235 227 
Q 1363 339 1363 608 
L 1363 3482 
Q 1363 3795 1171 3795 
Q 1082 3795 883 3718 
L 710 3654 
L 710 3744 
L 1856 4326 
L 1914 4307 
L 1914 486 
Q 1914 275 2042 185 
Q 2170 96 2522 96 
L 2522 0 
z
" transform="scale(0.015625)"/>
       </defs>
       <use xlink:href="#STIXGeneral-Regular-31"/>
       <use xlink:href="#STIXGeneral-Regular-2e" x="49.999985"/>
       <use xlink:href="#STIXGeneral-Regular-30" x="74.999969"/>
      </g>
     </g>
    </g>
    <g id="text_7">
     <!-- Training Environment Steps -->
     <g transform="translate(178.104688 344.645562)scale(0.18 -0.18)">
      <defs>
       <path id="STIXGeneral-Regular-54" d="M 3795 3149 
L 3642 3149 
Q 3539 3674 3353 3821 
Q 3168 3968 2656 3968 
L 2278 3968 
L 2278 710 
Q 2278 346 2387 243 
Q 2496 141 2893 122 
L 2893 0 
L 1024 0 
L 1024 122 
Q 1427 147 1526 256 
Q 1626 365 1626 787 
L 1626 3968 
L 1242 3968 
Q 723 3968 540 3817 
Q 358 3667 262 3149 
L 109 3149 
L 154 4237 
L 3750 4237 
L 3795 3149 
z
" transform="scale(0.015625)"/>
       <path id="STIXGeneral-Regular-72" d="M 1024 2931 
L 1024 2342 
Q 1267 2688 1430 2816 
Q 1594 2944 1792 2944 
Q 1958 2944 2051 2854 
Q 2144 2765 2144 2605 
Q 2144 2470 2077 2393 
Q 2010 2317 1894 2317 
Q 1773 2317 1638 2445 
Q 1536 2541 1472 2541 
Q 1338 2541 1181 2355 
Q 1024 2170 1024 2016 
L 1024 576 
Q 1024 301 1133 205 
Q 1242 109 1568 96 
L 1568 0 
L 32 0 
L 32 96 
Q 339 154 412 224 
Q 486 294 486 538 
L 486 2138 
Q 486 2349 438 2435 
Q 390 2522 269 2522 
Q 166 2522 45 2496 
L 45 2598 
Q 448 2726 992 2944 
L 1024 2931 
z
" transform="scale(0.015625)"/>
       <path id="STIXGeneral-Regular-61" d="M 2829 422 
L 2829 243 
Q 2586 -64 2253 -64 
Q 1888 -64 1843 403 
L 1837 403 
Q 1427 -64 909 -64 
Q 608 -64 422 112 
Q 237 288 237 602 
Q 237 1050 685 1350 
Q 992 1555 1837 1869 
L 1837 2214 
Q 1837 2502 1699 2646 
Q 1562 2790 1338 2790 
Q 1146 2790 1018 2697 
Q 890 2605 890 2477 
Q 890 2419 909 2348 
Q 928 2278 928 2208 
Q 928 2112 841 2029 
Q 755 1946 634 1946 
Q 525 1946 441 2029 
Q 358 2112 358 2240 
Q 358 2547 685 2752 
Q 986 2944 1421 2944 
Q 1939 2944 2176 2656 
Q 2291 2522 2323 2384 
Q 2355 2246 2355 1946 
L 2355 723 
Q 2355 301 2554 301 
Q 2682 301 2829 422 
z
M 1837 813 
L 1837 1715 
Q 1248 1510 1018 1293 
Q 800 1094 800 800 
Q 800 557 921 432 
Q 1043 307 1242 307 
Q 1453 307 1613 410 
Q 1747 506 1792 589 
Q 1837 672 1837 813 
z
" transform="scale(0.015625)"/>
       <path id="STIXGeneral-Regular-69" d="M 1152 4045 
Q 1152 3904 1056 3811 
Q 960 3718 819 3718 
Q 685 3718 592 3811 
Q 499 3904 499 4045 
Q 499 4179 595 4275 
Q 691 4371 826 4371 
Q 966 4371 1059 4275 
Q 1152 4179 1152 4045 
z
M 1619 0 
L 102 0 
L 102 96 
Q 435 115 521 211 
Q 608 307 608 666 
L 608 2118 
Q 608 2342 563 2432 
Q 518 2522 397 2522 
Q 243 2522 128 2490 
L 128 2592 
L 1120 2944 
L 1146 2918 
L 1146 672 
Q 1146 314 1226 218 
Q 1306 122 1619 96 
L 1619 0 
z
" transform="scale(0.015625)"/>
       <path id="STIXGeneral-Regular-6e" d="M 3104 0 
L 1773 0 
L 1779 96 
Q 2016 115 2096 233 
Q 2176 352 2176 672 
L 2176 1946 
Q 2176 2592 1709 2592 
Q 1549 2592 1408 2515 
Q 1267 2438 1050 2227 
L 1050 461 
Q 1050 269 1136 192 
Q 1222 115 1466 96 
L 1466 0 
L 115 0 
L 115 96 
Q 358 115 435 214 
Q 512 314 512 602 
L 512 2157 
Q 512 2394 467 2483 
Q 422 2573 288 2573 
Q 160 2573 102 2547 
L 102 2656 
Q 550 2784 979 2944 
L 1030 2925 
L 1030 2426 
L 1037 2426 
Q 1491 2944 1958 2944 
Q 2323 2944 2518 2688 
Q 2714 2432 2714 1958 
L 2714 544 
Q 2714 288 2790 205 
Q 2867 122 3104 96 
L 3104 0 
z
" transform="scale(0.015625)"/>
       <path id="STIXGeneral-Regular-67" d="M 3008 2483 
L 2477 2483 
Q 2598 2208 2598 1946 
Q 2598 1453 2265 1203 
Q 1933 954 1600 954 
Q 1530 954 1357 973 
L 1235 986 
Q 1107 947 979 812 
Q 851 678 851 582 
Q 851 435 1350 410 
L 2176 371 
Q 2528 358 2739 172 
Q 2950 -13 2950 -314 
Q 2950 -685 2566 -986 
Q 2035 -1395 1286 -1395 
Q 826 -1395 502 -1212 
Q 179 -1030 179 -774 
Q 179 -595 320 -419 
Q 461 -243 806 6 
Q 602 102 534 172 
Q 467 243 467 346 
Q 467 531 762 787 
Q 909 915 1037 1043 
Q 717 1203 579 1401 
Q 442 1600 442 1901 
Q 442 2336 752 2640 
Q 1062 2944 1510 2944 
Q 1766 2944 2022 2848 
L 2163 2797 
Q 2349 2733 2515 2733 
L 3008 2733 
L 3008 2483 
z
M 973 2163 
L 973 2144 
Q 973 1683 1155 1398 
Q 1338 1114 1632 1114 
Q 1850 1114 1978 1270 
Q 2106 1427 2106 1690 
Q 2106 2112 1914 2464 
Q 1754 2765 1446 2765 
Q 1222 2765 1097 2605 
Q 973 2445 973 2163 
z
M 2771 -410 
Q 2771 -230 2595 -163 
Q 2419 -96 1978 -96 
Q 1344 -96 941 -13 
Q 749 -243 688 -348 
Q 627 -454 627 -563 
Q 627 -774 880 -902 
Q 1133 -1030 1555 -1030 
Q 2099 -1030 2435 -860 
Q 2771 -691 2771 -410 
z
" transform="scale(0.015625)"/>
       <path id="STIXGeneral-Regular-20" transform="scale(0.015625)"/>
       <path id="STIXGeneral-Regular-45" d="M 3821 1082 
L 3526 0 
L 77 0 
L 77 122 
Q 442 147 538 252 
Q 634 358 634 730 
L 634 3520 
Q 634 3878 534 3987 
Q 435 4096 77 4115 
L 77 4237 
L 3469 4237 
L 3494 3322 
L 3334 3322 
Q 3264 3750 3085 3872 
Q 2906 3994 2349 3994 
L 1510 3994 
Q 1370 3994 1328 3952 
Q 1286 3910 1286 3763 
L 1286 2355 
L 2253 2355 
Q 2656 2355 2787 2470 
Q 2918 2586 2976 2970 
L 3123 2970 
L 3123 1472 
L 2976 1472 
Q 2918 1875 2790 1984 
Q 2662 2093 2253 2093 
L 1286 2093 
L 1286 538 
Q 1286 346 1420 291 
Q 1555 237 1933 237 
L 2163 237 
Q 2848 237 3136 403 
Q 3424 570 3642 1082 
L 3821 1082 
z
" transform="scale(0.015625)"/>
       <path id="STIXGeneral-Regular-76" d="M 3053 2880 
L 3053 2784 
Q 2906 2771 2835 2688 
Q 2765 2605 2637 2285 
L 1818 230 
Q 1690 -90 1638 -90 
Q 1587 -90 1523 77 
Q 1510 96 1497 141 
Q 1485 186 1472 211 
L 704 2048 
Q 499 2534 403 2652 
Q 307 2771 122 2784 
L 122 2880 
L 1376 2880 
L 1376 2784 
Q 1210 2771 1146 2732 
Q 1082 2694 1082 2611 
Q 1082 2509 1139 2368 
L 1792 730 
L 2426 2387 
Q 2464 2483 2464 2579 
Q 2464 2758 2163 2784 
L 2163 2880 
L 3053 2880 
z
" transform="scale(0.015625)"/>
       <path id="STIXGeneral-Regular-6f" d="M 3008 1478 
Q 3008 806 2608 371 
Q 2208 -64 1568 -64 
Q 979 -64 582 368 
Q 186 800 186 1459 
Q 186 2125 582 2534 
Q 979 2944 1626 2944 
Q 2221 2944 2614 2537 
Q 3008 2131 3008 1478 
z
M 2432 1306 
Q 2432 2035 2112 2445 
Q 1856 2765 1504 2765 
Q 1171 2765 966 2493 
Q 762 2221 762 1747 
Q 762 928 1101 435 
Q 1318 115 1677 115 
Q 2029 115 2230 432 
Q 2432 749 2432 1306 
z
" transform="scale(0.015625)"/>
       <path id="STIXGeneral-Regular-6d" d="M 4960 0 
L 3565 0 
L 3565 96 
Q 3834 122 3907 208 
Q 3981 294 3981 576 
L 3981 1894 
Q 3981 2278 3869 2444 
Q 3757 2611 3488 2611 
Q 3264 2611 3107 2521 
Q 2950 2432 2803 2221 
L 2803 608 
Q 2803 301 2896 201 
Q 2989 102 3264 96 
L 3264 0 
L 1830 0 
L 1830 96 
Q 2112 115 2189 188 
Q 2266 262 2266 550 
L 2266 1901 
Q 2266 2611 1850 2611 
Q 1670 2611 1468 2531 
Q 1267 2451 1171 2336 
Q 1088 2240 1088 2227 
L 1088 448 
Q 1088 243 1177 176 
Q 1267 109 1523 96 
L 1523 0 
L 102 0 
L 102 96 
Q 371 102 460 195 
Q 550 288 550 563 
L 550 2150 
Q 550 2387 499 2480 
Q 448 2573 326 2573 
Q 230 2573 122 2547 
L 122 2656 
Q 557 2778 1011 2944 
L 1062 2925 
L 1062 2451 
L 1075 2451 
Q 1363 2752 1584 2848 
Q 1805 2944 2054 2944 
Q 2560 2944 2733 2406 
Q 3232 2944 3776 2944 
Q 4518 2944 4518 1792 
L 4518 493 
Q 4518 282 4582 202 
Q 4646 122 4794 109 
L 4960 96 
L 4960 0 
z
" transform="scale(0.015625)"/>
       <path id="STIXGeneral-Regular-65" d="M 2611 1050 
L 2714 1005 
Q 2330 -64 1376 -64 
Q 813 -64 486 329 
Q 160 723 160 1389 
Q 160 2074 525 2509 
Q 890 2944 1485 2944 
Q 2061 2944 2374 2502 
Q 2560 2246 2592 1773 
L 621 1773 
Q 646 1370 700 1158 
Q 755 947 915 730 
Q 1184 378 1626 378 
Q 1939 378 2153 531 
Q 2368 685 2611 1050 
z
M 634 1978 
L 1939 1978 
Q 1882 2381 1750 2547 
Q 1619 2714 1312 2714 
Q 1043 2714 864 2525 
Q 685 2336 634 1978 
z
" transform="scale(0.015625)"/>
       <path id="STIXGeneral-Regular-74" d="M 1702 493 
L 1786 422 
Q 1478 -64 1011 -64 
Q 448 -64 448 749 
L 448 2675 
L 109 2675 
Q 83 2694 83 2720 
Q 83 2771 192 2842 
Q 435 2982 813 3526 
Q 826 3546 874 3606 
Q 922 3667 941 3706 
Q 986 3706 986 3622 
L 986 2880 
L 1632 2880 
L 1632 2675 
L 986 2675 
L 986 845 
Q 986 538 1062 403 
Q 1139 269 1318 269 
Q 1510 269 1702 493 
z
" transform="scale(0.015625)"/>
       <path id="STIXGeneral-Regular-53" d="M 3002 2963 
L 2842 2963 
Q 2733 3360 2579 3565 
Q 2189 4064 1651 4064 
Q 1357 4064 1181 3894 
Q 1005 3725 1005 3456 
Q 1005 3328 1069 3206 
Q 1133 3085 1206 2998 
Q 1280 2912 1465 2784 
Q 1651 2656 1766 2589 
Q 1882 2522 2150 2362 
Q 2669 2061 2905 1763 
Q 3142 1466 3142 1107 
Q 3142 576 2771 243 
Q 2400 -90 1837 -90 
Q 1421 -90 1082 58 
Q 915 128 781 128 
Q 704 128 653 70 
Q 602 13 602 -83 
L 461 -83 
L 275 1274 
L 416 1274 
Q 845 141 1734 141 
Q 2074 141 2285 342 
Q 2496 544 2496 858 
Q 2496 1158 2310 1363 
Q 2003 1696 1235 2106 
Q 454 2522 454 3206 
Q 454 3718 768 4022 
Q 1082 4326 1568 4326 
Q 1907 4326 2240 4186 
Q 2413 4109 2522 4109 
Q 2688 4109 2726 4326 
L 2861 4326 
L 3002 2963 
z
" transform="scale(0.015625)"/>
       <path id="STIXGeneral-Regular-70" d="M 1018 2931 
L 1018 2438 
Q 1421 2944 1939 2944 
Q 2406 2944 2707 2560 
Q 3008 2176 3008 1581 
Q 3008 883 2621 409 
Q 2234 -64 1664 -64 
Q 1466 -64 1328 -6 
Q 1190 51 1018 211 
L 1018 -794 
Q 1018 -1094 1120 -1180 
Q 1222 -1267 1581 -1274 
L 1581 -1389 
L 32 -1389 
L 32 -1280 
Q 314 -1254 397 -1171 
Q 480 -1088 480 -838 
L 480 2157 
Q 480 2381 429 2451 
Q 378 2522 218 2522 
Q 115 2522 58 2515 
L 58 2618 
Q 506 2752 979 2944 
L 1018 2931 
z
M 1018 2138 
L 1018 563 
Q 1018 422 1238 281 
Q 1459 141 1683 141 
Q 2029 141 2243 467 
Q 2458 794 2458 1325 
Q 2458 1888 2243 2224 
Q 2029 2560 1670 2560 
Q 1446 2560 1232 2419 
Q 1018 2278 1018 2138 
z
" transform="scale(0.015625)"/>
       <path id="STIXGeneral-Regular-73" d="M 998 1926 
L 1664 1523 
Q 1984 1331 2105 1164 
Q 2227 998 2227 736 
Q 2227 416 1961 176 
Q 1696 -64 1331 -64 
Q 1030 -64 864 -6 
Q 691 51 570 51 
Q 461 51 416 -26 
L 333 -26 
L 333 979 
L 435 979 
Q 538 512 730 294 
Q 922 77 1248 77 
Q 1485 77 1632 211 
Q 1779 346 1779 550 
Q 1779 845 1440 1030 
L 1094 1222 
Q 326 1651 326 2150 
Q 326 2522 566 2730 
Q 806 2938 1210 2938 
Q 1491 2938 1638 2867 
Q 1754 2816 1818 2816 
Q 1862 2816 1920 2880 
L 1990 2880 
L 2022 2010 
L 1926 2010 
Q 1818 2445 1654 2621 
Q 1491 2797 1203 2797 
Q 986 2797 854 2688 
Q 723 2579 723 2362 
Q 723 2253 796 2128 
Q 870 2003 998 1926 
z
" transform="scale(0.015625)"/>
      </defs>
      <use xlink:href="#STIXGeneral-Regular-54"/>
      <use xlink:href="#STIXGeneral-Regular-72" x="61.099991"/>
      <use xlink:href="#STIXGeneral-Regular-61" x="94.399979"/>
      <use xlink:href="#STIXGeneral-Regular-69" x="138.799973"/>
      <use xlink:href="#STIXGeneral-Regular-6e" x="166.59996"/>
      <use xlink:href="#STIXGeneral-Regular-69" x="216.599945"/>
      <use xlink:href="#STIXGeneral-Regular-6e" x="244.399933"/>
      <use xlink:href="#STIXGeneral-Regular-67" x="294.399918"/>
      <use xlink:href="#STIXGeneral-Regular-20" x="344.399902"/>
      <use xlink:href="#STIXGeneral-Regular-45" x="369.399887"/>
      <use xlink:href="#STIXGeneral-Regular-6e" x="430.499878"/>
      <use xlink:href="#STIXGeneral-Regular-76" x="480.499863"/>
      <use xlink:href="#STIXGeneral-Regular-69" x="530.499847"/>
      <use xlink:href="#STIXGeneral-Regular-72" x="558.299835"/>
      <use xlink:href="#STIXGeneral-Regular-6f" x="591.599823"/>
      <use xlink:href="#STIXGeneral-Regular-6e" x="641.599808"/>
      <use xlink:href="#STIXGeneral-Regular-6d" x="691.599792"/>
      <use xlink:href="#STIXGeneral-Regular-65" x="769.39978"/>
      <use xlink:href="#STIXGeneral-Regular-6e" x="813.799774"/>
      <use xlink:href="#STIXGeneral-Regular-74" x="863.799759"/>
      <use xlink:href="#STIXGeneral-Regular-20" x="891.599747"/>
      <use xlink:href="#STIXGeneral-Regular-53" x="916.599731"/>
      <use xlink:href="#STIXGeneral-Regular-74" x="972.199722"/>
      <use xlink:href="#STIXGeneral-Regular-65" x="999.99971"/>
      <use xlink:href="#STIXGeneral-Regular-70" x="1044.399704"/>
      <use xlink:href="#STIXGeneral-Regular-73" x="1094.399689"/>
     </g>
    </g>
    <g id="text_8">
     <!-- 1e8 -->
     <g transform="translate(477.306875 343.645562)scale(0.18 -0.18)">
      <use xlink:href="#STIXGeneral-Regular-31"/>
      <use xlink:href="#STIXGeneral-Regular-65" x="49.999985"/>
      <use xlink:href="#STIXGeneral-Regular-38" x="94.399979"/>
     </g>
    </g>
   </g>
   <g id="matplotlib.axis_2">
    <g id="ytick_1">
     <g id="line2d_13">
      <path d="M 56.9 292.552125 
L 503.3 292.552125 
" clip-path="url(#p0f861dc630)" style="fill: none; stroke: #b0b0b0; stroke-width: 0.8; stroke-linecap: square"/>
     </g>
     <g id="line2d_14">
      <defs>
       <path id="mff4066efac" d="M 0 0 
L -3.5 0 
" style="stroke: #000000; stroke-width: 0.8"/>
      </defs>
      <g>
       <use xlink:href="#mff4066efac" x="56.9" y="292.552125" style="stroke: #000000; stroke-width: 0.8"/>
      </g>
     </g>
     <g id="text_9">
      <!-- 0.0 -->
      <g transform="translate(27.4 298.698844)scale(0.18 -0.18)">
       <use xlink:href="#STIXGeneral-Regular-30"/>
       <use xlink:href="#STIXGeneral-Regular-2e" x="49.999985"/>
       <use xlink:href="#STIXGeneral-Regular-30" x="74.999969"/>
      </g>
     </g>
    </g>
    <g id="ytick_2">
     <g id="line2d_15">
      <path d="M 56.9 242.152125 
L 503.3 242.152125 
" clip-path="url(#p0f861dc630)" style="fill: none; stroke: #b0b0b0; stroke-width: 0.8; stroke-linecap: square"/>
     </g>
     <g id="line2d_16">
      <g>
       <use xlink:href="#mff4066efac" x="56.9" y="242.152125" style="stroke: #000000; stroke-width: 0.8"/>
      </g>
     </g>
     <g id="text_10">
      <!-- 0.2 -->
      <g transform="translate(27.4 248.298844)scale(0.18 -0.18)">
       <use xlink:href="#STIXGeneral-Regular-30"/>
       <use xlink:href="#STIXGeneral-Regular-2e" x="49.999985"/>
       <use xlink:href="#STIXGeneral-Regular-32" x="74.999969"/>
      </g>
     </g>
    </g>
    <g id="ytick_3">
     <g id="line2d_17">
      <path d="M 56.9 191.752125 
L 503.3 191.752125 
" clip-path="url(#p0f861dc630)" style="fill: none; stroke: #b0b0b0; stroke-width: 0.8; stroke-linecap: square"/>
     </g>
     <g id="line2d_18">
      <g>
       <use xlink:href="#mff4066efac" x="56.9" y="191.752125" style="stroke: #000000; stroke-width: 0.8"/>
      </g>
     </g>
     <g id="text_11">
      <!-- 0.4 -->
      <g transform="translate(27.4 197.898844)scale(0.18 -0.18)">
       <use xlink:href="#STIXGeneral-Regular-30"/>
       <use xlink:href="#STIXGeneral-Regular-2e" x="49.999985"/>
       <use xlink:href="#STIXGeneral-Regular-34" x="74.999969"/>
      </g>
     </g>
    </g>
    <g id="ytick_4">
     <g id="line2d_19">
      <path d="M 56.9 141.352125 
L 503.3 141.352125 
" clip-path="url(#p0f861dc630)" style="fill: none; stroke: #b0b0b0; stroke-width: 0.8; stroke-linecap: square"/>
     </g>
     <g id="line2d_20">
      <g>
       <use xlink:href="#mff4066efac" x="56.9" y="141.352125" style="stroke: #000000; stroke-width: 0.8"/>
      </g>
     </g>
     <g id="text_12">
      <!-- 0.6 -->
      <g transform="translate(27.4 147.498844)scale(0.18 -0.18)">
       <use xlink:href="#STIXGeneral-Regular-30"/>
       <use xlink:href="#STIXGeneral-Regular-2e" x="49.999985"/>
       <use xlink:href="#STIXGeneral-Regular-36" x="74.999969"/>
      </g>
     </g>
    </g>
    <g id="ytick_5">
     <g id="line2d_21">
      <path d="M 56.9 90.952125 
L 503.3 90.952125 
" clip-path="url(#p0f861dc630)" style="fill: none; stroke: #b0b0b0; stroke-width: 0.8; stroke-linecap: square"/>
     </g>
     <g id="line2d_22">
      <g>
       <use xlink:href="#mff4066efac" x="56.9" y="90.952125" style="stroke: #000000; stroke-width: 0.8"/>
      </g>
     </g>
     <g id="text_13">
      <!-- 0.8 -->
      <g transform="translate(27.4 97.098844)scale(0.18 -0.18)">
       <use xlink:href="#STIXGeneral-Regular-30"/>
       <use xlink:href="#STIXGeneral-Regular-2e" x="49.999985"/>
       <use xlink:href="#STIXGeneral-Regular-38" x="74.999969"/>
      </g>
     </g>
    </g>
    <g id="ytick_6">
     <g id="line2d_23">
      <path d="M 56.9 40.552125 
L 503.3 40.552125 
" clip-path="url(#p0f861dc630)" style="fill: none; stroke: #b0b0b0; stroke-width: 0.8; stroke-linecap: square"/>
     </g>
     <g id="line2d_24">
      <g>
       <use xlink:href="#mff4066efac" x="56.9" y="40.552125" style="stroke: #000000; stroke-width: 0.8"/>
      </g>
     </g>
     <g id="text_14">
      <!-- 1.0 -->
      <g transform="translate(27.4 46.698844)scale(0.18 -0.18)">
       <use xlink:href="#STIXGeneral-Regular-31"/>
       <use xlink:href="#STIXGeneral-Regular-2e" x="49.999985"/>
       <use xlink:href="#STIXGeneral-Regular-30" x="74.999969"/>
      </g>
     </g>
    </g>
    <g id="text_15">
     <!-- Success Rate -->
     <g transform="translate(19.493438 213.7965)rotate(-90)scale(0.18 -0.18)">
      <defs>
       <path id="STIXGeneral-Regular-75" d="M 3072 320 
L 3072 230 
Q 2573 96 2195 -58 
L 2163 -38 
L 2163 486 
L 2150 486 
Q 1747 -64 1235 -64 
Q 870 -64 662 160 
Q 454 384 454 755 
L 454 2362 
Q 454 2598 371 2688 
Q 288 2778 58 2790 
L 58 2880 
L 992 2880 
L 992 813 
Q 992 595 1123 451 
Q 1254 307 1446 307 
Q 1760 307 1984 506 
Q 2067 582 2099 649 
Q 2131 717 2131 877 
L 2131 2355 
Q 2131 2605 2041 2678 
Q 1952 2752 1658 2771 
L 1658 2880 
L 2669 2880 
L 2669 685 
Q 2669 461 2742 390 
Q 2816 320 3034 320 
L 3072 320 
z
" transform="scale(0.015625)"/>
       <path id="STIXGeneral-Regular-63" d="M 2547 998 
L 2637 941 
Q 2362 403 2112 205 
Q 1786 -64 1376 -64 
Q 845 -64 502 336 
Q 160 736 160 1357 
Q 160 2170 698 2618 
Q 1094 2944 1562 2944 
Q 1965 2944 2256 2749 
Q 2547 2554 2547 2285 
Q 2547 2176 2457 2096 
Q 2368 2016 2246 2016 
Q 2022 2016 1939 2310 
L 1901 2451 
Q 1850 2630 1773 2694 
Q 1696 2758 1523 2758 
Q 1133 2758 893 2451 
Q 653 2144 653 1645 
Q 653 1094 928 745 
Q 1203 397 1645 397 
Q 1920 397 2118 528 
Q 2317 659 2547 998 
z
" transform="scale(0.015625)"/>
       <path id="STIXGeneral-Regular-52" d="M 4224 0 
L 3187 0 
L 1664 1971 
L 1306 1958 
L 1306 717 
Q 1306 352 1405 249 
Q 1504 147 1875 122 
L 1875 0 
L 109 0 
L 109 122 
Q 474 154 563 262 
Q 653 371 653 794 
L 653 3526 
Q 653 3885 563 3987 
Q 474 4090 109 4115 
L 109 4237 
L 1850 4237 
Q 2726 4237 3187 3859 
Q 3501 3603 3501 3091 
Q 3501 2221 2342 2042 
L 3622 422 
Q 3757 256 3878 198 
Q 4000 141 4224 122 
L 4224 0 
z
M 1306 3731 
L 1306 2195 
Q 1766 2202 1990 2246 
Q 2214 2291 2438 2413 
Q 2803 2618 2803 3142 
Q 2803 4000 1632 4000 
Q 1459 4000 1382 3945 
Q 1306 3891 1306 3731 
z
" transform="scale(0.015625)"/>
      </defs>
      <use xlink:href="#STIXGeneral-Regular-53"/>
      <use xlink:href="#STIXGeneral-Regular-75" x="55.599991"/>
      <use xlink:href="#STIXGeneral-Regular-63" x="105.599976"/>
      <use xlink:href="#STIXGeneral-Regular-63" x="149.999969"/>
      <use xlink:href="#STIXGeneral-Regular-65" x="194.399963"/>
      <use xlink:href="#STIXGeneral-Regular-73" x="238.799957"/>
      <use xlink:href="#STIXGeneral-Regular-73" x="277.699951"/>
      <use xlink:href="#STIXGeneral-Regular-20" x="316.599945"/>
      <use xlink:href="#STIXGeneral-Regular-52" x="341.59993"/>
      <use xlink:href="#STIXGeneral-Regular-61" x="408.299927"/>
      <use xlink:href="#STIXGeneral-Regular-74" x="452.699921"/>
      <use xlink:href="#STIXGeneral-Regular-65" x="480.499908"/>
     </g>
    </g>
   </g>
   <g id="line2d_25">
    <path d="M 77.190909 292.552125 
L 144.693339 292.552125 
L 145.49694 288.520125 
L 146.30054 288.116925 
L 147.10414 287.875005 
L 147.907741 289.745853 
L 148.711341 290.868362 
L 149.514941 291.541867 
L 150.318542 289.92997 
L 151.122142 290.978832 
L 151.925743 291.608149 
L 152.729343 291.98574 
L 154.336544 292.348226 
L 155.140144 290.413786 
L 155.943744 291.269121 
L 156.747345 291.782323 
L 157.550945 292.090244 
L 159.158146 292.385848 
L 161.568947 292.516209 
L 169.60495 292.551908 
L 171.212151 292.552047 
L 172.015752 290.536078 
L 172.819352 291.342497 
L 173.622952 289.810348 
L 174.426553 290.907059 
L 175.230153 291.565085 
L 176.033753 289.943901 
L 176.837354 290.987191 
L 177.640954 291.613164 
L 178.444554 291.988749 
L 180.051755 292.34931 
L 182.462556 292.508317 
L 187.284158 292.550081 
L 188.087759 290.534899 
L 188.891359 291.341789 
L 189.694959 289.809924 
L 190.49856 290.906804 
L 191.30216 291.564932 
L 192.105761 291.959809 
L 193.712961 292.338891 
L 196.123762 292.506067 
L 202.552565 292.551351 
L 203.356166 290.535661 
L 204.159766 291.342247 
L 204.963366 291.826198 
L 206.570567 292.290791 
L 208.981368 292.495677 
L 214.606571 292.550545 
L 228.267777 292.552125 
L 229.071377 290.536125 
L 229.874977 291.342525 
L 230.678578 291.826365 
L 232.285779 292.290851 
L 234.69658 292.49569 
L 240.321782 292.550545 
L 383.362646 292.552125 
L 429.167867 292.552125 
L 429.971467 290.536125 
L 430.775068 291.342525 
L 431.578668 291.826365 
L 433.185869 292.290851 
L 435.59667 292.49569 
L 441.221872 292.550545 
L 483.009091 292.552125 
L 483.009091 292.552125 
" clip-path="url(#p0f861dc630)" style="fill: none; stroke: #1f77b4; stroke-width: 1.5; stroke-linecap: square"/>
   </g>
   <g id="line2d_26">
    <path d="M 77.190909 287.512125 
L 77.994509 289.528125 
L 78.79811 290.737725 
L 79.60171 291.463485 
L 80.405311 289.882941 
L 81.208911 282.886615 
L 82.012511 185.952819 
L 82.816112 139.888542 
L 83.619712 120.313974 
L 84.423312 104.537237 
L 85.226913 111.199191 
L 86.030513 173.660365 
L 86.834113 132.513069 
L 87.637714 111.856694 
L 89.244914 214.19617 
L 90.048515 243.522552 
L 90.852115 226.84638 
L 91.655716 253.128678 
L 92.459316 194.306056 
L 93.262916 146.916482 
L 94.066517 108.402741 
L 94.870117 89.326493 
L 95.673717 160.536746 
L 96.477318 211.326897 
L 97.280918 235.752989 
L 98.084518 248.392643 
L 98.888119 171.304436 
L 99.691719 157.307511 
L 100.49532 116.653357 
L 101.29892 86.212864 
L 102.10252 73.996569 
L 102.906121 90.858792 
L 103.709721 84.848124 
L 104.513321 71.161727 
L 105.316922 68.997888 
L 106.120522 81.811584 
L 106.924122 123.771802 
L 109.334923 79.171415 
L 110.138524 65.739697 
L 110.942124 55.664668 
L 111.745725 49.619651 
L 112.549325 48.008639 
L 113.352925 49.058035 
L 114.156526 45.655671 
L 114.960126 47.646255 
L 115.763726 44.808603 
L 116.567327 43.106012 
L 117.370927 48.132457 
L 118.174527 51.148325 
L 118.978128 52.957845 
L 119.781728 56.059555 
L 120.585329 116.384583 
L 121.388929 108.227603 
L 122.192529 107.365411 
L 122.99613 110.880098 
L 124.60333 165.057394 
L 125.406931 133.399287 
L 126.210531 96.260422 
L 127.014131 80.025104 
L 127.817732 66.25191 
L 128.621332 78.147999 
L 129.424932 75.20565 
L 130.228533 79.488241 
L 131.032133 98.185792 
L 131.835734 91.260328 
L 132.639334 93.15305 
L 133.442934 72.11268 
L 134.246535 71.584458 
L 135.853735 54.142966 
L 136.657336 48.70663 
L 137.460936 45.444828 
L 138.264536 43.487747 
L 139.068137 42.313498 
L 139.871737 41.608949 
L 140.675338 41.186219 
L 142.282538 40.780399 
L 144.693339 40.601432 
L 151.122142 40.552953 
L 172.819352 40.552125 
L 173.622952 42.568123 
L 174.426553 41.761724 
L 175.230153 41.277884 
L 176.837354 40.813398 
L 179.248155 40.60856 
L 184.873357 40.553705 
L 327.914221 40.552125 
L 352.825833 40.552125 
L 353.629433 42.568123 
L 354.433033 43.777722 
L 355.236634 48.535483 
L 356.040234 47.358138 
L 356.843834 52.699731 
L 357.647435 55.904687 
L 359.254635 47.288646 
L 360.058236 44.594038 
L 360.861836 42.977273 
L 361.665437 42.007214 
L 362.469037 43.441176 
L 363.272637 42.285556 
L 364.076238 41.592183 
L 364.879838 41.17616 
L 366.487039 40.776778 
L 368.89784 40.60065 
L 371.308641 40.562606 
L 372.112241 42.574412 
L 372.915842 45.797499 
L 373.719442 45.715348 
L 374.523042 47.682061 
L 375.326643 44.830086 
L 376.130243 45.1349 
L 376.933843 43.30179 
L 377.737444 42.201924 
L 378.541044 41.542004 
L 379.344644 43.162051 
L 380.148245 42.11808 
L 380.951845 41.491698 
L 381.755446 41.115869 
L 382.559046 42.906369 
L 383.362646 41.964672 
L 384.166247 41.399653 
L 384.969847 43.07664 
L 385.773447 46.098836 
L 386.577048 49.928152 
L 387.380648 56.257744 
L 388.184248 58.039494 
L 389.791449 48.057177 
L 390.59505 47.071154 
L 391.39865 46.479541 
L 392.20225 44.108574 
L 393.005851 44.701993 
L 393.809451 43.042046 
L 394.613051 42.046077 
L 395.416652 43.464494 
L 396.220252 42.299547 
L 397.023852 41.600578 
L 397.827453 41.181197 
L 399.434653 40.778591 
L 401.845455 40.601042 
L 408.274257 40.552947 
L 429.971467 40.552125 
L 430.775068 42.568123 
L 431.578668 41.761724 
L 432.382268 41.277884 
L 433.989469 40.813398 
L 434.793069 42.724887 
L 435.59667 41.855782 
L 436.40027 43.350317 
L 437.20387 42.23104 
L 438.007471 41.559474 
L 438.811071 41.156535 
L 439.614671 42.930769 
L 440.418272 46.011313 
L 441.221872 43.827638 
L 442.025473 42.517433 
L 442.829073 41.73131 
L 443.632673 43.275634 
L 444.436274 44.202228 
L 445.239874 48.790187 
L 446.043474 47.51096 
L 446.847075 46.743424 
L 447.650675 44.266905 
L 448.454275 42.780993 
L 449.257876 49.953444 
L 450.061476 50.224919 
L 450.865077 52.403801 
L 451.668677 53.711131 
L 452.472277 48.447529 
L 453.275878 47.305365 
L 454.079478 46.620067 
L 454.883078 44.19289 
L 455.686679 42.736584 
L 456.490279 41.862801 
L 457.293879 41.33853 
L 458.09748 43.039966 
L 458.90108 42.04483 
L 459.70468 41.447748 
L 460.508281 43.105497 
L 461.311881 42.084148 
L 462.115482 41.471339 
L 462.919082 41.103653 
L 463.722682 42.89904 
L 464.526283 43.976272 
L 465.329883 46.638615 
L 466.133483 52.268018 
L 466.937084 61.693659 
L 467.740684 57.269048 
L 468.544284 64.694277 
L 469.347885 67.133417 
L 470.151485 64.564898 
L 470.955086 69.071788 
L 471.758686 71.775921 
L 472.562286 71.382403 
L 473.365887 61.06629 
L 474.973087 86.241223 
L 475.776688 80.061584 
L 476.580288 80.385803 
L 477.383888 80.580335 
L 478.187489 92.793048 
L 478.991089 96.08868 
L 479.794689 85.970058 
L 480.59829 85.946886 
L 481.40189 93.99698 
L 482.205491 114.95504 
L 483.009091 119.465871 
L 483.009091 119.465871 
" clip-path="url(#p0f861dc630)" style="fill: none; stroke: #ff7f0e; stroke-width: 1.5; stroke-linecap: square"/>
   </g>
   <g id="line2d_27">
    <path d="M 77.190909 292.552125 
L 483.009091 292.552125 
L 483.009091 292.552125 
" clip-path="url(#p0f861dc630)" style="fill: none; stroke: #2ca02c; stroke-width: 1.5; stroke-linecap: square"/>
   </g>
   <g id="line2d_28">
    <path d="M 77.190909 292.552125 
L 77.994509 292.552125 
L 78.79811 288.520125 
L 80.405311 276.182205 
L 81.208911 264.586172 
L 82.012511 259.644554 
L 82.816112 262.727582 
L 83.619712 260.545399 
L 84.423312 267.30009 
L 85.226913 263.288904 
L 86.030513 262.898193 
L 86.834113 270.727766 
L 87.637714 277.441509 
L 88.441314 273.405755 
L 89.244914 275.016303 
L 90.048515 265.902632 
L 90.852115 262.450429 
L 91.655716 266.427108 
L 92.459316 276.877115 
L 93.262916 279.115119 
L 94.066517 282.473921 
L 94.870117 284.489203 
L 95.673717 281.666372 
L 96.477318 271.908673 
L 97.280918 264.038054 
L 98.084518 259.315683 
L 98.888119 252.450259 
L 99.691719 256.395006 
L 100.49532 250.697853 
L 101.29892 257.359562 
L 102.10252 255.308587 
L 102.906121 258.110003 
L 103.709721 257.774852 
L 104.513321 249.509761 
L 105.316922 250.598707 
L 106.120522 253.268074 
L 106.924122 252.853695 
L 107.727723 258.653067 
L 108.531323 260.11669 
L 109.334923 256.962865 
L 110.138524 257.086569 
L 110.942124 265.224791 
L 111.745725 266.075725 
L 112.549325 274.650285 
L 113.352925 269.715021 
L 114.156526 268.769863 
L 114.960126 274.250768 
L 115.763726 269.475311 
L 116.567327 268.626036 
L 117.370927 262.068472 
L 118.174527 254.101933 
L 118.978128 249.32201 
L 119.781728 232.342055 
L 120.585329 234.250083 
L 122.192529 221.16339 
L 122.99613 229.558884 
L 123.79973 222.500181 
L 124.60333 220.280957 
L 125.406931 214.917424 
L 127.014131 224.686834 
L 127.817732 225.624951 
L 128.621332 236.267821 
L 129.424932 236.605543 
L 130.228533 240.840175 
L 131.032133 249.428955 
L 132.639334 262.915784 
L 133.442934 268.722321 
L 134.246535 260.110242 
L 135.050135 248.894995 
L 135.853735 246.197847 
L 136.657336 252.643558 
L 137.460936 260.542985 
L 138.264536 255.20264 
L 139.068137 266.110434 
L 139.871737 268.623111 
L 140.675338 272.146717 
L 141.478938 272.24488 
L 142.282538 268.271778 
L 143.086139 271.935917 
L 143.889739 266.0704 
L 144.693339 274.64709 
L 145.49694 277.777104 
L 146.30054 271.591113 
L 147.10414 261.831517 
L 147.907741 260.00776 
L 148.711341 258.913506 
L 149.514941 264.304954 
L 150.318542 261.491822 
L 151.122142 253.755943 
L 151.925743 255.162416 
L 152.729343 247.9423 
L 153.532943 261.75423 
L 154.336544 263.993388 
L 155.140144 265.336882 
L 155.943744 260.09498 
L 156.747345 260.981838 
L 157.550945 263.529953 
L 158.354545 273.122822 
L 159.158146 280.894543 
L 159.961746 285.557576 
L 160.765347 288.355395 
L 161.568947 290.034087 
L 162.372547 291.041302 
L 163.176148 291.645631 
L 163.979748 292.008229 
L 164.783348 286.177787 
L 165.586949 276.631523 
L 167.194149 265.451108 
L 167.99775 270.243515 
L 168.80135 273.118959 
L 169.60495 276.860226 
L 170.408551 267.008986 
L 171.212151 267.146241 
L 172.819352 240.666807 
L 173.622952 233.196934 
L 175.230153 252.637056 
L 176.033753 266.587084 
L 176.837354 266.8931 
L 177.640954 271.10871 
L 178.444554 273.638076 
L 179.248155 261.043695 
L 180.051755 245.423067 
L 180.855356 223.95469 
L 182.462556 234.391448 
L 183.266157 257.655719 
L 184.069757 257.502281 
L 184.873357 263.458219 
L 185.676958 246.871781 
L 186.480558 232.887919 
L 187.284158 236.593601 
L 188.087759 238.817011 
L 188.891359 238.135056 
L 189.694959 247.805884 
L 190.49856 249.576381 
L 191.30216 252.654678 
L 192.105761 250.469656 
L 192.909361 257.222644 
L 193.712961 267.322436 
L 194.516562 271.366312 
L 195.320162 277.824637 
L 196.123762 277.667632 
L 196.927363 281.60543 
L 197.730963 279.936108 
L 198.534563 284.982515 
L 199.338164 277.930359 
L 200.141764 277.731065 
L 201.748965 265.846944 
L 202.552565 272.497016 
L 203.356166 260.359059 
L 204.159766 255.092285 
L 204.963366 255.964221 
L 206.570567 276.96128 
L 208.177768 240.168222 
L 208.981368 238.945783 
L 209.784968 224.100318 
L 210.588569 225.273042 
L 211.392169 221.944674 
L 212.19577 234.059655 
L 212.99937 253.424643 
L 213.80297 256.979636 
L 214.606571 257.096632 
L 215.410171 261.198829 
L 216.213771 271.724147 
L 217.017372 276.023338 
L 217.820972 264.490852 
L 218.624572 247.491361 
L 219.428173 243.339667 
L 220.231773 256.97665 
L 221.035374 253.062839 
L 221.838974 232.570552 
L 222.642574 232.371182 
L 223.446175 220.155558 
L 224.249775 216.858185 
L 225.053375 214.879762 
L 225.856976 219.740708 
L 226.660576 216.609276 
L 227.464176 220.778416 
L 228.267777 219.247899 
L 229.071377 208.249589 
L 229.874977 211.730602 
L 230.678578 219.867212 
L 231.482178 220.717177 
L 232.285779 221.227156 
L 233.089379 223.549145 
L 233.892979 228.974337 
L 234.69658 240.293452 
L 235.50018 232.972921 
L 236.30378 230.596604 
L 237.107381 229.170813 
L 237.910981 236.379337 
L 238.714581 230.624452 
L 239.518182 223.139522 
L 240.321782 218.648564 
L 241.125383 222.001989 
L 241.928983 213.934042 
L 242.732583 217.157275 
L 243.536184 213.043215 
L 245.143384 200.626517 
L 245.946985 203.12476 
L 246.750585 220.751705 
L 247.554185 223.263874 
L 248.357786 228.803175 
L 249.161386 226.078755 
L 249.964986 218.396102 
L 250.768587 213.786511 
L 251.572187 223.116757 
L 252.375788 224.682905 
L 253.179388 225.622594 
L 253.982988 222.154405 
L 255.590189 210.357744 
L 256.393789 223.075496 
L 257.19739 222.642148 
L 258.00099 220.366137 
L 258.80459 216.984533 
L 259.608191 214.955571 
L 260.411791 227.850192 
L 262.018992 215.633829 
L 262.822592 210.113146 
L 263.626193 220.912738 
L 264.429793 229.408492 
L 265.233393 226.441945 
L 266.036994 218.614017 
L 266.840594 228.02926 
L 267.644194 229.646406 
L 268.447795 240.696694 
L 269.251395 247.326866 
L 270.054995 251.30497 
L 270.858596 251.675832 
L 271.662196 249.882349 
L 272.465797 258.886259 
L 273.269397 258.240606 
L 274.072997 251.805213 
L 274.876598 260.039978 
L 275.680198 248.852837 
L 276.483798 246.172552 
L 277.287399 226.420382 
L 278.090999 240.777079 
L 278.894599 239.311098 
L 279.6982 252.543509 
L 280.5018 256.450956 
L 281.305401 254.763424 
L 282.109001 253.750905 
L 282.912601 245.079393 
L 283.716202 243.908486 
L 284.519802 247.237942 
L 285.323402 251.251615 
L 286.127003 247.611819 
L 286.930603 249.459942 
L 287.734203 260.648815 
L 288.537804 265.346139 
L 289.341404 274.212534 
L 290.145005 275.50037 
L 290.948605 280.305072 
L 291.752205 283.187893 
L 292.555806 284.917586 
L 293.359406 283.939402 
L 294.163006 287.384491 
L 294.966607 289.451545 
L 295.770207 278.595777 
L 296.573807 280.146316 
L 297.377408 285.10864 
L 298.181008 280.022034 
L 298.984608 276.970071 
L 299.788209 277.154893 
L 301.39541 251.930721 
L 302.19901 237.939282 
L 303.00261 251.720419 
L 303.806211 249.909101 
L 304.609811 242.774311 
L 306.217012 268.987312 
L 307.824212 282.859192 
L 308.627813 286.736365 
L 309.431413 285.030669 
L 310.235014 286.023252 
L 311.038614 284.602801 
L 311.842214 279.718531 
L 312.645815 272.755969 
L 313.449415 272.610431 
L 314.253015 278.571109 
L 315.056616 270.051515 
L 315.860216 277.035759 
L 316.663816 277.194306 
L 317.467417 275.273434 
L 318.271017 282.18491 
L 319.074617 286.331796 
L 319.878218 286.803928 
L 320.681818 287.087207 
L 321.485419 277.177174 
L 322.289019 277.279155 
L 323.092619 273.308343 
L 323.89622 281.005856 
L 324.69982 285.624363 
L 325.50342 288.395468 
L 326.307021 288.042131 
L 327.110621 289.846129 
L 327.914221 290.928527 
L 328.717822 291.577966 
L 329.521422 291.96763 
L 331.128623 292.341707 
L 331.932223 292.425874 
L 332.735824 288.444375 
L 333.539424 290.087475 
L 334.343024 291.073335 
L 335.146625 291.664851 
L 335.950225 292.019761 
L 336.753825 292.232706 
L 337.557426 290.344474 
L 338.361026 291.227534 
L 339.164626 291.757371 
L 339.968227 290.059272 
L 340.771827 291.056413 
L 341.575428 291.654698 
L 342.379028 292.013669 
L 343.986229 292.358281 
L 344.789829 290.419819 
L 345.593429 291.272741 
L 346.39703 289.768495 
L 347.20063 290.881947 
L 348.00423 291.550018 
L 348.807831 291.950861 
L 349.611431 292.191367 
L 350.415032 290.31967 
L 351.218632 287.180652 
L 352.022232 289.329241 
L 352.825833 290.618395 
L 353.629433 289.375887 
L 354.433033 290.646382 
L 355.236634 291.408679 
L 356.040234 289.850058 
L 356.843834 286.898885 
L 358.451035 278.824159 
L 359.254635 280.283345 
L 360.058236 285.190857 
L 363.272637 257.245464 
L 364.076238 253.224128 
L 364.879838 252.827327 
L 365.683438 254.605246 
L 366.487039 249.623997 
L 368.89784 275.94141 
L 369.70144 274.521696 
L 370.505041 269.637868 
L 371.308641 266.707571 
L 372.915842 241.718486 
L 373.719442 239.875941 
L 374.523042 242.802414 
L 375.326643 240.526299 
L 376.130243 245.20863 
L 377.737444 231.559667 
L 378.541044 237.81265 
L 380.148245 225.671513 
L 380.951845 224.199757 
L 381.755446 229.364705 
L 382.559046 242.543673 
L 383.362646 242.387054 
L 384.166247 248.341082 
L 384.969847 243.849499 
L 385.773447 233.090548 
L 386.577048 234.699179 
L 387.380648 219.536358 
L 388.184248 242.694665 
L 388.987849 246.509649 
L 389.791449 230.654639 
L 390.59505 225.173632 
L 391.39865 223.901029 
L 392.20225 233.217467 
L 393.005851 226.711329 
L 393.809451 230.871647 
L 394.613051 209.175838 
L 395.416652 212.286351 
L 396.220252 208.104659 
L 397.023852 197.531646 
L 397.827453 203.283838 
L 398.631053 210.767153 
L 399.434653 221.305142 
L 400.238254 227.627935 
L 401.041854 253.597611 
L 401.845455 257.083417 
L 403.452655 248.736989 
L 405.059856 262.666676 
L 405.863456 260.508856 
L 406.667057 257.198164 
L 407.470657 259.243749 
L 408.274257 258.455099 
L 409.077858 247.90191 
L 409.881458 245.601996 
L 410.685059 248.254048 
L 411.488659 261.941279 
L 412.292259 270.153617 
L 413.09586 273.065021 
L 413.89946 276.827862 
L 414.70306 264.973567 
L 415.506661 271.97299 
L 416.310261 276.172644 
L 417.113861 268.612436 
L 417.917462 251.980313 
L 418.721062 262.161038 
L 419.524662 266.253473 
L 420.328263 274.756934 
L 421.131863 279.85901 
L 421.935464 260.744257 
L 422.739064 259.355404 
L 423.542664 256.506093 
L 424.346265 256.812506 
L 425.149865 265.060353 
L 425.953465 255.897062 
L 426.757066 242.335087 
L 428.364266 259.152392 
L 429.167867 272.512285 
L 429.971467 274.480221 
L 430.775068 273.644983 
L 431.578668 265.07984 
L 432.382268 263.972754 
L 433.185869 263.308503 
L 433.989469 266.941952 
L 434.793069 275.170021 
L 435.59667 276.074863 
L 436.40027 270.569768 
L 437.20387 279.362711 
L 438.007471 282.622477 
L 438.811071 282.562336 
L 439.614671 284.542252 
L 440.418272 285.730201 
L 441.221872 288.458971 
L 442.025473 286.064232 
L 442.829073 286.64339 
L 443.632673 289.006884 
L 444.436274 290.42498 
L 445.239874 291.275838 
L 446.043474 291.786353 
L 446.847075 288.060662 
L 447.650675 289.857247 
L 448.454275 290.935198 
L 449.257876 291.581969 
L 450.061476 291.970031 
L 451.668677 292.342571 
L 454.079478 292.506861 
L 455.686679 292.53583 
L 456.490279 290.526348 
L 457.293879 291.336659 
L 458.09748 291.822845 
L 458.90108 292.114557 
L 459.70468 290.273584 
L 460.508281 289.169001 
L 461.311881 290.52225 
L 462.115482 291.3342 
L 462.919082 289.80537 
L 463.722682 290.904072 
L 464.526283 291.563293 
L 465.329883 285.910826 
L 466.133483 286.551346 
L 466.937084 288.951657 
L 467.740684 290.391844 
L 468.544284 289.239957 
L 469.347885 288.548824 
L 470.151485 290.150144 
L 470.955086 291.110937 
L 471.758686 291.687412 
L 472.562286 292.033297 
L 473.365887 288.208828 
L 474.169487 281.882147 
L 474.973087 286.150138 
L 475.776688 282.662933 
L 476.580288 284.60261 
L 477.383888 283.750416 
L 478.187489 275.1751 
L 479.794689 253.233996 
L 480.59829 266.945247 
L 481.40189 273.155999 
L 482.205491 274.866449 
L 483.009091 281.94072 
L 483.009091 281.94072 
" clip-path="url(#p0f861dc630)" style="fill: none; stroke: #d62728; stroke-width: 1.5; stroke-linecap: square"/>
   </g>
   <g id="line2d_29">
    <path d="M 77.190909 292.552125 
L 483.009091 292.552125 
L 483.009091 292.552125 
" clip-path="url(#p0f861dc630)" style="fill: none; stroke: #9467bd; stroke-width: 1.5; stroke-linecap: square"/>
   </g>
   <g id="patch_3">
    <path d="M 56.9 305.152125 
L 56.9 27.952125 
" style="fill: none; stroke: #000000; stroke-width: 0.8; stroke-linejoin: miter; stroke-linecap: square"/>
   </g>
   <g id="patch_4">
    <path d="M 503.3 305.152125 
L 503.3 27.952125 
" style="fill: none; stroke: #000000; stroke-width: 0.8; stroke-linejoin: miter; stroke-linecap: square"/>
   </g>
   <g id="patch_5">
    <path d="M 56.9 305.152125 
L 503.3 305.152125 
" style="fill: none; stroke: #000000; stroke-width: 0.8; stroke-linejoin: miter; stroke-linecap: square"/>
   </g>
   <g id="patch_6">
    <path d="M 56.9 27.952125 
L 503.3 27.952125 
" style="fill: none; stroke: #000000; stroke-width: 0.8; stroke-linejoin: miter; stroke-linecap: square"/>
   </g>
   <g id="text_16">
    <!-- ML10 Meta Testing -->
    <g transform="translate(193.104313 21.952125)scale(0.216 -0.216)">
     <defs>
      <path id="STIXGeneral-Regular-4d" d="M 5530 0 
L 3738 0 
L 3738 122 
Q 4115 147 4214 265 
Q 4314 384 4314 787 
L 4314 3661 
L 2682 0 
L 2592 0 
L 979 3514 
L 979 966 
Q 979 448 1088 294 
Q 1197 141 1574 122 
L 1574 0 
L 77 0 
L 77 122 
Q 358 141 480 205 
Q 602 269 650 432 
Q 698 595 698 966 
L 698 3514 
Q 698 3878 589 3984 
Q 480 4090 90 4115 
L 90 4237 
L 1357 4237 
L 2835 1024 
L 4250 4237 
L 5523 4237 
L 5523 4115 
Q 5178 4109 5072 3993 
Q 4966 3878 4966 3520 
L 4966 717 
Q 4966 378 5072 262 
Q 5178 147 5530 122 
L 5530 0 
z
" transform="scale(0.015625)"/>
      <path id="STIXGeneral-Regular-4c" d="M 3827 1114 
L 3520 0 
L 77 0 
L 77 122 
Q 429 141 531 256 
Q 634 371 634 736 
L 634 3494 
Q 634 3872 541 3981 
Q 448 4090 77 4115 
L 77 4237 
L 1888 4237 
L 1888 4115 
Q 1498 4090 1392 3984 
Q 1286 3878 1286 3507 
L 1286 538 
Q 1286 358 1398 304 
Q 1510 250 1862 250 
L 2310 250 
Q 3085 250 3392 640 
Q 3520 813 3661 1114 
L 3827 1114 
z
" transform="scale(0.015625)"/>
     </defs>
     <use xlink:href="#STIXGeneral-Regular-4d"/>
     <use xlink:href="#STIXGeneral-Regular-4c" x="88.899994"/>
     <use xlink:href="#STIXGeneral-Regular-31" x="149.999985"/>
     <use xlink:href="#STIXGeneral-Regular-30" x="199.999969"/>
     <use xlink:href="#STIXGeneral-Regular-20" x="249.999954"/>
     <use xlink:href="#STIXGeneral-Regular-4d" x="274.999939"/>
     <use xlink:href="#STIXGeneral-Regular-65" x="363.899933"/>
     <use xlink:href="#STIXGeneral-Regular-74" x="408.299927"/>
     <use xlink:href="#STIXGeneral-Regular-61" x="436.099915"/>
     <use xlink:href="#STIXGeneral-Regular-20" x="480.499908"/>
     <use xlink:href="#STIXGeneral-Regular-54" x="505.499893"/>
     <use xlink:href="#STIXGeneral-Regular-65" x="566.599884"/>
     <use xlink:href="#STIXGeneral-Regular-73" x="610.999878"/>
     <use xlink:href="#STIXGeneral-Regular-74" x="649.899872"/>
     <use xlink:href="#STIXGeneral-Regular-69" x="677.69986"/>
     <use xlink:href="#STIXGeneral-Regular-6e" x="705.499847"/>
     <use xlink:href="#STIXGeneral-Regular-67" x="755.499832"/>
    </g>
   </g>
   <g id="legend_1">
    <g id="patch_7">
     <path d="M 387.294687 205.052125 
L 497.7 205.052125 
Q 500.5 205.052125 500.5 202.252125 
L 500.5 130.852125 
Q 500.5 128.052125 497.7 128.052125 
L 387.294687 128.052125 
Q 384.494687 128.052125 384.494687 130.852125 
L 384.494687 202.252125 
Q 384.494687 205.052125 387.294687 205.052125 
z
" style="fill: #ffffff; opacity: 0.8; stroke: #cccccc; stroke-linejoin: miter"/>
    </g>
    <g id="line2d_30">
     <path d="M 388.694687 137.963687 
L 395.694687 137.963687 
L 402.694687 137.963687 
" style="fill: none; stroke: #1f77b4; stroke-width: 1.5; stroke-linecap: square"/>
    </g>
    <g id="text_17">
     <!-- drawer-open-v2 -->
     <g transform="translate(406.894687 141.813687)scale(0.14 -0.14)">
      <defs>
       <path id="STIXGeneral-Regular-64" d="M 3142 269 
L 2202 -64 
L 2176 -45 
L 2176 365 
Q 1869 -64 1357 -64 
Q 826 -64 499 317 
Q 173 698 173 1312 
Q 173 1990 563 2467 
Q 954 2944 1504 2944 
Q 1850 2944 2176 2669 
L 2176 3667 
Q 2176 3866 2118 3930 
Q 2061 3994 1882 3994 
Q 1792 3994 1741 3987 
L 1741 4090 
Q 2323 4243 2682 4371 
L 2714 4358 
L 2714 730 
Q 2714 506 2768 435 
Q 2822 365 2995 365 
Q 3034 365 3142 371 
L 3142 269 
z
M 2176 653 
L 2176 2125 
Q 2176 2381 1981 2573 
Q 1786 2765 1523 2765 
Q 1158 2765 940 2438 
Q 723 2112 723 1568 
Q 723 979 963 624 
Q 1203 269 1606 269 
Q 1907 269 2080 474 
Q 2176 582 2176 653 
z
" transform="scale(0.015625)"/>
       <path id="STIXGeneral-Regular-77" d="M 4442 2880 
L 4442 2784 
Q 4346 2752 4301 2691 
Q 4256 2630 4179 2438 
L 3296 224 
Q 3168 -90 3117 -90 
Q 3085 -90 3062 -48 
Q 3040 -6 2963 186 
L 2381 1696 
L 1664 160 
Q 1549 -90 1504 -90 
Q 1446 -90 1338 192 
L 474 2381 
Q 378 2630 314 2700 
Q 250 2771 134 2784 
L 134 2880 
L 1286 2880 
L 1286 2784 
Q 1120 2765 1056 2720 
Q 992 2675 992 2573 
Q 992 2477 1030 2381 
L 1664 710 
L 2246 1984 
L 2118 2342 
Q 2029 2598 1942 2681 
Q 1856 2765 1677 2784 
L 1677 2880 
L 2976 2880 
L 2976 2784 
Q 2752 2752 2678 2707 
Q 2605 2662 2605 2560 
Q 2605 2458 2714 2176 
L 3251 742 
L 3827 2163 
Q 3936 2432 3936 2592 
Q 3936 2669 3875 2710 
Q 3814 2752 3654 2784 
L 3654 2880 
L 4442 2880 
z
" transform="scale(0.015625)"/>
       <path id="STIXGeneral-Regular-2d" d="M 1824 1242 
L 250 1242 
L 250 1645 
L 1824 1645 
L 1824 1242 
z
" transform="scale(0.015625)"/>
      </defs>
      <use xlink:href="#STIXGeneral-Regular-64"/>
      <use xlink:href="#STIXGeneral-Regular-72" x="49.999985"/>
      <use xlink:href="#STIXGeneral-Regular-61" x="83.299973"/>
      <use xlink:href="#STIXGeneral-Regular-77" x="127.699966"/>
      <use xlink:href="#STIXGeneral-Regular-65" x="199.899948"/>
      <use xlink:href="#STIXGeneral-Regular-72" x="244.299942"/>
      <use xlink:href="#STIXGeneral-Regular-2d" x="277.59993"/>
      <use xlink:href="#STIXGeneral-Regular-6f" x="310.899918"/>
      <use xlink:href="#STIXGeneral-Regular-70" x="360.899902"/>
      <use xlink:href="#STIXGeneral-Regular-65" x="410.899887"/>
      <use xlink:href="#STIXGeneral-Regular-6e" x="455.299881"/>
      <use xlink:href="#STIXGeneral-Regular-2d" x="505.299866"/>
      <use xlink:href="#STIXGeneral-Regular-76" x="538.599854"/>
      <use xlink:href="#STIXGeneral-Regular-32" x="588.599838"/>
     </g>
    </g>
    <g id="line2d_31">
     <path d="M 388.694687 151.963687 
L 395.694687 151.963687 
L 402.694687 151.963687 
" style="fill: none; stroke: #ff7f0e; stroke-width: 1.5; stroke-linecap: square"/>
    </g>
    <g id="text_18">
     <!-- door-close-v2 -->
     <g transform="translate(406.894687 155.813687)scale(0.14 -0.14)">
      <defs>
       <path id="STIXGeneral-Regular-6c" d="M 1645 0 
L 134 0 
L 134 96 
Q 435 122 531 221 
Q 627 320 627 589 
L 627 3590 
Q 627 3821 569 3910 
Q 512 4000 358 4000 
Q 224 4000 122 3987 
L 122 4090 
Q 730 4237 1133 4371 
L 1165 4346 
L 1165 557 
Q 1165 288 1254 201 
Q 1344 115 1645 96 
L 1645 0 
z
" transform="scale(0.015625)"/>
      </defs>
      <use xlink:href="#STIXGeneral-Regular-64"/>
      <use xlink:href="#STIXGeneral-Regular-6f" x="49.999985"/>
      <use xlink:href="#STIXGeneral-Regular-6f" x="99.999969"/>
      <use xlink:href="#STIXGeneral-Regular-72" x="149.999954"/>
      <use xlink:href="#STIXGeneral-Regular-2d" x="183.299942"/>
      <use xlink:href="#STIXGeneral-Regular-63" x="216.59993"/>
      <use xlink:href="#STIXGeneral-Regular-6c" x="260.999924"/>
      <use xlink:href="#STIXGeneral-Regular-6f" x="288.799911"/>
      <use xlink:href="#STIXGeneral-Regular-73" x="338.799896"/>
      <use xlink:href="#STIXGeneral-Regular-65" x="377.69989"/>
      <use xlink:href="#STIXGeneral-Regular-2d" x="422.099884"/>
      <use xlink:href="#STIXGeneral-Regular-76" x="455.399872"/>
      <use xlink:href="#STIXGeneral-Regular-32" x="505.399857"/>
     </g>
    </g>
    <g id="line2d_32">
     <path d="M 388.694687 165.963687 
L 395.694687 165.963687 
L 402.694687 165.963687 
" style="fill: none; stroke: #2ca02c; stroke-width: 1.5; stroke-linecap: square"/>
    </g>
    <g id="text_19">
     <!-- shelf-place-v2 -->
     <g transform="translate(406.894687 169.813687)scale(0.14 -0.14)">
      <defs>
       <path id="STIXGeneral-Regular-68" d="M 3117 0 
L 1760 0 
L 1760 96 
Q 2042 128 2118 224 
Q 2195 320 2195 653 
L 2195 1920 
Q 2195 2598 1722 2598 
Q 1530 2598 1370 2508 
Q 1210 2419 1005 2195 
L 1005 653 
Q 1005 320 1081 224 
Q 1158 128 1440 96 
L 1440 0 
L 58 0 
L 58 96 
Q 333 134 400 224 
Q 467 314 467 653 
L 467 3667 
Q 467 3872 406 3933 
Q 346 3994 141 3994 
Q 83 3994 64 3987 
L 64 4090 
L 237 4141 
Q 730 4288 973 4371 
L 1005 4352 
L 1005 2406 
Q 1229 2694 1446 2819 
Q 1664 2944 1946 2944 
Q 2733 2944 2733 1926 
L 2733 653 
Q 2733 320 2793 233 
Q 2854 147 3117 96 
L 3117 0 
z
" transform="scale(0.015625)"/>
       <path id="STIXGeneral-Regular-66" d="M 134 2880 
L 659 2880 
Q 666 3264 710 3478 
Q 755 3693 883 3910 
Q 1152 4371 1786 4371 
Q 2074 4371 2262 4259 
Q 2451 4147 2451 3974 
Q 2451 3866 2374 3789 
Q 2298 3712 2182 3712 
Q 2029 3712 1894 3942 
Q 1741 4192 1555 4192 
Q 1197 4192 1197 3622 
L 1197 2880 
L 1978 2880 
L 1978 2675 
L 1197 2675 
L 1197 666 
Q 1197 307 1299 208 
Q 1402 109 1792 96 
L 1792 0 
L 128 0 
L 128 96 
Q 474 115 566 214 
Q 659 314 659 666 
L 659 2675 
L 134 2675 
L 134 2880 
z
" transform="scale(0.015625)"/>
      </defs>
      <use xlink:href="#STIXGeneral-Regular-73"/>
      <use xlink:href="#STIXGeneral-Regular-68" x="38.899994"/>
      <use xlink:href="#STIXGeneral-Regular-65" x="88.899979"/>
      <use xlink:href="#STIXGeneral-Regular-6c" x="133.299973"/>
      <use xlink:href="#STIXGeneral-Regular-66" x="161.09996"/>
      <use xlink:href="#STIXGeneral-Regular-2d" x="194.399948"/>
      <use xlink:href="#STIXGeneral-Regular-70" x="227.699936"/>
      <use xlink:href="#STIXGeneral-Regular-6c" x="277.699921"/>
      <use xlink:href="#STIXGeneral-Regular-61" x="305.499908"/>
      <use xlink:href="#STIXGeneral-Regular-63" x="349.899902"/>
      <use xlink:href="#STIXGeneral-Regular-65" x="394.299896"/>
      <use xlink:href="#STIXGeneral-Regular-2d" x="438.69989"/>
      <use xlink:href="#STIXGeneral-Regular-76" x="471.999878"/>
      <use xlink:href="#STIXGeneral-Regular-32" x="521.999863"/>
     </g>
    </g>
    <g id="line2d_33">
     <path d="M 388.694687 179.963687 
L 395.694687 179.963687 
L 402.694687 179.963687 
" style="fill: none; stroke: #d62728; stroke-width: 1.5; stroke-linecap: square"/>
    </g>
    <g id="text_20">
     <!-- sweep-into-v2 -->
     <g transform="translate(406.894687 183.813687)scale(0.14 -0.14)">
      <use xlink:href="#STIXGeneral-Regular-73"/>
      <use xlink:href="#STIXGeneral-Regular-77" x="38.899994"/>
      <use xlink:href="#STIXGeneral-Regular-65" x="111.099976"/>
      <use xlink:href="#STIXGeneral-Regular-65" x="155.499969"/>
      <use xlink:href="#STIXGeneral-Regular-70" x="199.899963"/>
      <use xlink:href="#STIXGeneral-Regular-2d" x="249.899948"/>
      <use xlink:href="#STIXGeneral-Regular-69" x="283.199936"/>
      <use xlink:href="#STIXGeneral-Regular-6e" x="310.999924"/>
      <use xlink:href="#STIXGeneral-Regular-74" x="360.999908"/>
      <use xlink:href="#STIXGeneral-Regular-6f" x="388.799896"/>
      <use xlink:href="#STIXGeneral-Regular-2d" x="438.799881"/>
      <use xlink:href="#STIXGeneral-Regular-76" x="472.099869"/>
      <use xlink:href="#STIXGeneral-Regular-32" x="522.099854"/>
     </g>
    </g>
    <g id="line2d_34">
     <path d="M 388.694687 193.963687 
L 395.694687 193.963687 
L 402.694687 193.963687 
" style="fill: none; stroke: #9467bd; stroke-width: 1.5; stroke-linecap: square"/>
    </g>
    <g id="text_21">
     <!-- lever-pull-v2 -->
     <g transform="translate(406.894687 197.813687)scale(0.14 -0.14)">
      <use xlink:href="#STIXGeneral-Regular-6c"/>
      <use xlink:href="#STIXGeneral-Regular-65" x="27.799988"/>
      <use xlink:href="#STIXGeneral-Regular-76" x="72.199982"/>
      <use xlink:href="#STIXGeneral-Regular-65" x="122.199966"/>
      <use xlink:href="#STIXGeneral-Regular-72" x="166.59996"/>
      <use xlink:href="#STIXGeneral-Regular-2d" x="199.899948"/>
      <use xlink:href="#STIXGeneral-Regular-70" x="233.199936"/>
      <use xlink:href="#STIXGeneral-Regular-75" x="283.199921"/>
      <use xlink:href="#STIXGeneral-Regular-6c" x="333.199905"/>
      <use xlink:href="#STIXGeneral-Regular-6c" x="360.999893"/>
      <use xlink:href="#STIXGeneral-Regular-2d" x="388.799881"/>
      <use xlink:href="#STIXGeneral-Regular-76" x="422.099869"/>
      <use xlink:href="#STIXGeneral-Regular-32" x="472.099854"/>
     </g>
    </g>
   </g>
  </g>
 </g>
 <defs>
  <clipPath id="p0f861dc630">
   <rect x="56.9" y="27.952125" width="446.4" height="277.2"/>
  </clipPath>
 </defs>
</svg>
