<?xml version="1.0" encoding="utf-8" standalone="no"?>
<!DOCTYPE svg PUBLIC "-//W3C//DTD SVG 1.1//EN"
  "http://www.w3.org/Graphics/SVG/1.1/DTD/svg11.dtd">
<svg xmlns:xlink="http://www.w3.org/1999/xlink" width="510.5pt" height="355.769pt" viewBox="0 0 510.5 355.769" xmlns="http://www.w3.org/2000/svg" version="1.1">
 <metadata>
  <rdf:RDF xmlns:dc="http://purl.org/dc/elements/1.1/" xmlns:cc="http://creativecommons.org/ns#" xmlns:rdf="http://www.w3.org/1999/02/22-rdf-syntax-ns#">
   <cc:Work>
    <dc:type rdf:resource="http://purl.org/dc/dcmitype/StillImage"/>
    <dc:date>2021-12-11T20:28:57.244695</dc:date>
    <dc:format>image/svg+xml</dc:format>
    <dc:creator>
     <cc:Agent>
      <dc:title>Matplotlib v3.5.0, https://matplotlib.org/</dc:title>
     </cc:Agent>
    </dc:creator>
   </cc:Work>
  </rdf:RDF>
 </metadata>
 <defs>
  <style type="text/css">*{stroke-linejoin: round; stroke-linecap: butt}</style>
 </defs>
 <g id="figure_1">
  <g id="patch_1">
   <path d="M 0 355.769 
L 510.5 355.769 
L 510.5 0 
L 0 0 
z
" style="fill: #ffffff"/>
  </g>
  <g id="axes_1">
   <g id="patch_2">
    <path d="M 56.9 305.152125 
L 503.3 305.152125 
L 503.3 27.952125 
L 56.9 27.952125 
z
" style="fill: #ffffff"/>
   </g>
   <g id="matplotlib.axis_1">
    <g id="xtick_1">
     <g id="line2d_1">
      <path d="M 76.376013 305.152125 
L 76.376013 27.952125 
" clip-path="url(#pb3f3148767)" style="fill: none; stroke: #b0b0b0; stroke-width: 0.8; stroke-linecap: square"/>
     </g>
     <g id="line2d_2">
      <defs>
       <path id="mdae1dd69f1" d="M 0 0 
L 0 3.5 
" style="stroke: #000000; stroke-width: 0.8"/>
      </defs>
      <g>
       <use xlink:href="#mdae1dd69f1" x="76.376013" y="305.152125" style="stroke: #000000; stroke-width: 0.8"/>
      </g>
     </g>
     <g id="text_1">
      <!-- 0.0 -->
      <g transform="translate(65.126013 324.445562)scale(0.18 -0.18)">
       <defs>
        <path id="STIXGeneral-Regular-30" d="M 3046 2112 
Q 3046 1683 2963 1302 
Q 2880 922 2717 602 
Q 2554 282 2266 96 
Q 1978 -90 1600 -90 
Q 1210 -90 915 108 
Q 621 307 461 640 
Q 301 973 227 1350 
Q 154 1728 154 2150 
Q 154 2746 301 3222 
Q 448 3699 790 4012 
Q 1133 4326 1626 4326 
Q 2253 4326 2649 3712 
Q 3046 3098 3046 2112 
z
M 2432 2080 
Q 2432 3091 2217 3625 
Q 2003 4160 1587 4160 
Q 1190 4160 979 3622 
Q 768 3085 768 2106 
Q 768 1120 979 598 
Q 1190 77 1600 77 
Q 2003 77 2217 598 
Q 2432 1120 2432 2080 
z
" transform="scale(0.015625)"/>
        <path id="STIXGeneral-Regular-2e" d="M 1158 275 
Q 1158 134 1052 32 
Q 947 -70 800 -70 
Q 653 -70 550 32 
Q 448 134 448 281 
Q 448 429 553 534 
Q 659 640 806 640 
Q 947 640 1052 531 
Q 1158 422 1158 275 
z
" transform="scale(0.015625)"/>
       </defs>
       <use xlink:href="#STIXGeneral-Regular-30"/>
       <use xlink:href="#STIXGeneral-Regular-2e" x="49.999985"/>
       <use xlink:href="#STIXGeneral-Regular-30" x="74.999969"/>
      </g>
     </g>
    </g>
    <g id="xtick_2">
     <g id="line2d_3">
      <path d="M 157.865608 305.152125 
L 157.865608 27.952125 
" clip-path="url(#pb3f3148767)" style="fill: none; stroke: #b0b0b0; stroke-width: 0.8; stroke-linecap: square"/>
     </g>
     <g id="line2d_4">
      <g>
       <use xlink:href="#mdae1dd69f1" x="157.865608" y="305.152125" style="stroke: #000000; stroke-width: 0.8"/>
      </g>
     </g>
     <g id="text_2">
      <!-- 0.2 -->
      <g transform="translate(146.615608 324.445562)scale(0.18 -0.18)">
       <defs>
        <path id="STIXGeneral-Regular-32" d="M 3034 877 
L 2688 0 
L 186 0 
L 186 77 
L 1325 1286 
Q 1773 1754 1965 2144 
Q 2157 2534 2157 2950 
Q 2157 3379 1920 3616 
Q 1683 3853 1267 3853 
Q 922 3853 720 3673 
Q 518 3494 326 3021 
L 192 3053 
Q 301 3648 630 3987 
Q 960 4326 1523 4326 
Q 2054 4326 2380 4006 
Q 2707 3686 2707 3200 
Q 2707 2477 1888 1613 
L 832 486 
L 2330 486 
Q 2541 486 2665 569 
Q 2790 653 2944 915 
L 3034 877 
z
" transform="scale(0.015625)"/>
       </defs>
       <use xlink:href="#STIXGeneral-Regular-30"/>
       <use xlink:href="#STIXGeneral-Regular-2e" x="49.999985"/>
       <use xlink:href="#STIXGeneral-Regular-32" x="74.999969"/>
      </g>
     </g>
    </g>
    <g id="xtick_3">
     <g id="line2d_5">
      <path d="M 239.355203 305.152125 
L 239.355203 27.952125 
" clip-path="url(#pb3f3148767)" style="fill: none; stroke: #b0b0b0; stroke-width: 0.8; stroke-linecap: square"/>
     </g>
     <g id="line2d_6">
      <g>
       <use xlink:href="#mdae1dd69f1" x="239.355203" y="305.152125" style="stroke: #000000; stroke-width: 0.8"/>
      </g>
     </g>
     <g id="text_3">
      <!-- 0.4 -->
      <g transform="translate(228.105203 324.445562)scale(0.18 -0.18)">
       <defs>
        <path id="STIXGeneral-Regular-34" d="M 3027 1069 
L 2368 1069 
L 2368 0 
L 1869 0 
L 1869 1069 
L 77 1069 
L 77 1478 
L 2086 4326 
L 2368 4326 
L 2368 1478 
L 3027 1478 
L 3027 1069 
z
M 1869 1478 
L 1869 3674 
L 333 1478 
L 1869 1478 
z
" transform="scale(0.015625)"/>
       </defs>
       <use xlink:href="#STIXGeneral-Regular-30"/>
       <use xlink:href="#STIXGeneral-Regular-2e" x="49.999985"/>
       <use xlink:href="#STIXGeneral-Regular-34" x="74.999969"/>
      </g>
     </g>
    </g>
    <g id="xtick_4">
     <g id="line2d_7">
      <path d="M 320.844797 305.152125 
L 320.844797 27.952125 
" clip-path="url(#pb3f3148767)" style="fill: none; stroke: #b0b0b0; stroke-width: 0.8; stroke-linecap: square"/>
     </g>
     <g id="line2d_8">
      <g>
       <use xlink:href="#mdae1dd69f1" x="320.844797" y="305.152125" style="stroke: #000000; stroke-width: 0.8"/>
      </g>
     </g>
     <g id="text_4">
      <!-- 0.6 -->
      <g transform="translate(309.594797 324.445562)scale(0.18 -0.18)">
       <defs>
        <path id="STIXGeneral-Regular-36" d="M 2854 4378 
L 2867 4275 
Q 2112 4154 1606 3664 
Q 1101 3174 973 2451 
Q 1344 2739 1786 2739 
Q 2349 2739 2672 2380 
Q 2995 2022 2995 1402 
Q 2995 774 2669 378 
Q 2291 -90 1651 -90 
Q 870 -90 518 557 
Q 218 1107 218 1786 
Q 218 2835 915 3552 
Q 1312 3962 1731 4131 
Q 2150 4301 2854 4378 
z
M 2419 1203 
Q 2419 2445 1555 2445 
Q 1235 2445 1024 2275 
Q 813 2106 813 1702 
Q 813 954 1046 522 
Q 1280 90 1722 90 
Q 2061 90 2240 394 
Q 2419 698 2419 1203 
z
" transform="scale(0.015625)"/>
       </defs>
       <use xlink:href="#STIXGeneral-Regular-30"/>
       <use xlink:href="#STIXGeneral-Regular-2e" x="49.999985"/>
       <use xlink:href="#STIXGeneral-Regular-36" x="74.999969"/>
      </g>
     </g>
    </g>
    <g id="xtick_5">
     <g id="line2d_9">
      <path d="M 402.334392 305.152125 
L 402.334392 27.952125 
" clip-path="url(#pb3f3148767)" style="fill: none; stroke: #b0b0b0; stroke-width: 0.8; stroke-linecap: square"/>
     </g>
     <g id="line2d_10">
      <g>
       <use xlink:href="#mdae1dd69f1" x="402.334392" y="305.152125" style="stroke: #000000; stroke-width: 0.8"/>
      </g>
     </g>
     <g id="text_5">
      <!-- 0.8 -->
      <g transform="translate(391.084392 324.445562)scale(0.18 -0.18)">
       <defs>
        <path id="STIXGeneral-Regular-38" d="M 2848 992 
Q 2848 499 2505 204 
Q 2163 -90 1587 -90 
Q 1050 -90 704 204 
Q 358 499 358 954 
Q 358 1293 524 1533 
Q 691 1773 1190 2125 
Q 710 2522 553 2765 
Q 397 3008 397 3328 
Q 397 3782 745 4054 
Q 1094 4326 1638 4326 
Q 2106 4326 2410 4060 
Q 2714 3795 2714 3411 
Q 2714 3059 2531 2848 
Q 2349 2637 1856 2374 
Q 2432 1990 2640 1689 
Q 2848 1389 2848 992 
z
M 2272 3411 
Q 2272 3744 2086 3945 
Q 1901 4147 1574 4147 
Q 1248 4147 1059 3977 
Q 870 3808 870 3513 
Q 870 3219 1059 2979 
Q 1248 2739 1670 2490 
Q 1997 2682 2134 2896 
Q 2272 3110 2272 3411 
z
M 1734 1741 
L 1357 1997 
Q 1075 1766 960 1545 
Q 845 1325 845 1011 
Q 845 576 1065 333 
Q 1286 90 1658 90 
Q 1971 90 2166 285 
Q 2362 480 2362 794 
Q 2362 1082 2214 1299 
Q 2067 1517 1734 1741 
z
" transform="scale(0.015625)"/>
       </defs>
       <use xlink:href="#STIXGeneral-Regular-30"/>
       <use xlink:href="#STIXGeneral-Regular-2e" x="49.999985"/>
       <use xlink:href="#STIXGeneral-Regular-38" x="74.999969"/>
      </g>
     </g>
    </g>
    <g id="xtick_6">
     <g id="line2d_11">
      <path d="M 483.823987 305.152125 
L 483.823987 27.952125 
" clip-path="url(#pb3f3148767)" style="fill: none; stroke: #b0b0b0; stroke-width: 0.8; stroke-linecap: square"/>
     </g>
     <g id="line2d_12">
      <g>
       <use xlink:href="#mdae1dd69f1" x="483.823987" y="305.152125" style="stroke: #000000; stroke-width: 0.8"/>
      </g>
     </g>
     <g id="text_6">
      <!-- 1.0 -->
      <g transform="translate(472.573987 324.445562)scale(0.18 -0.18)">
       <defs>
        <path id="STIXGeneral-Regular-31" d="M 2522 0 
L 755 0 
L 755 96 
Q 1107 115 1235 227 
Q 1363 339 1363 608 
L 1363 3482 
Q 1363 3795 1171 3795 
Q 1082 3795 883 3718 
L 710 3654 
L 710 3744 
L 1856 4326 
L 1914 4307 
L 1914 486 
Q 1914 275 2042 185 
Q 2170 96 2522 96 
L 2522 0 
z
" transform="scale(0.015625)"/>
       </defs>
       <use xlink:href="#STIXGeneral-Regular-31"/>
       <use xlink:href="#STIXGeneral-Regular-2e" x="49.999985"/>
       <use xlink:href="#STIXGeneral-Regular-30" x="74.999969"/>
      </g>
     </g>
    </g>
    <g id="text_7">
     <!-- Training Environment Steps -->
     <g transform="translate(178.104688 344.645562)scale(0.18 -0.18)">
      <defs>
       <path id="STIXGeneral-Regular-54" d="M 3795 3149 
L 3642 3149 
Q 3539 3674 3353 3821 
Q 3168 3968 2656 3968 
L 2278 3968 
L 2278 710 
Q 2278 346 2387 243 
Q 2496 141 2893 122 
L 2893 0 
L 1024 0 
L 1024 122 
Q 1427 147 1526 256 
Q 1626 365 1626 787 
L 1626 3968 
L 1242 3968 
Q 723 3968 540 3817 
Q 358 3667 262 3149 
L 109 3149 
L 154 4237 
L 3750 4237 
L 3795 3149 
z
" transform="scale(0.015625)"/>
       <path id="STIXGeneral-Regular-72" d="M 1024 2931 
L 1024 2342 
Q 1267 2688 1430 2816 
Q 1594 2944 1792 2944 
Q 1958 2944 2051 2854 
Q 2144 2765 2144 2605 
Q 2144 2470 2077 2393 
Q 2010 2317 1894 2317 
Q 1773 2317 1638 2445 
Q 1536 2541 1472 2541 
Q 1338 2541 1181 2355 
Q 1024 2170 1024 2016 
L 1024 576 
Q 1024 301 1133 205 
Q 1242 109 1568 96 
L 1568 0 
L 32 0 
L 32 96 
Q 339 154 412 224 
Q 486 294 486 538 
L 486 2138 
Q 486 2349 438 2435 
Q 390 2522 269 2522 
Q 166 2522 45 2496 
L 45 2598 
Q 448 2726 992 2944 
L 1024 2931 
z
" transform="scale(0.015625)"/>
       <path id="STIXGeneral-Regular-61" d="M 2829 422 
L 2829 243 
Q 2586 -64 2253 -64 
Q 1888 -64 1843 403 
L 1837 403 
Q 1427 -64 909 -64 
Q 608 -64 422 112 
Q 237 288 237 602 
Q 237 1050 685 1350 
Q 992 1555 1837 1869 
L 1837 2214 
Q 1837 2502 1699 2646 
Q 1562 2790 1338 2790 
Q 1146 2790 1018 2697 
Q 890 2605 890 2477 
Q 890 2419 909 2348 
Q 928 2278 928 2208 
Q 928 2112 841 2029 
Q 755 1946 634 1946 
Q 525 1946 441 2029 
Q 358 2112 358 2240 
Q 358 2547 685 2752 
Q 986 2944 1421 2944 
Q 1939 2944 2176 2656 
Q 2291 2522 2323 2384 
Q 2355 2246 2355 1946 
L 2355 723 
Q 2355 301 2554 301 
Q 2682 301 2829 422 
z
M 1837 813 
L 1837 1715 
Q 1248 1510 1018 1293 
Q 800 1094 800 800 
Q 800 557 921 432 
Q 1043 307 1242 307 
Q 1453 307 1613 410 
Q 1747 506 1792 589 
Q 1837 672 1837 813 
z
" transform="scale(0.015625)"/>
       <path id="STIXGeneral-Regular-69" d="M 1152 4045 
Q 1152 3904 1056 3811 
Q 960 3718 819 3718 
Q 685 3718 592 3811 
Q 499 3904 499 4045 
Q 499 4179 595 4275 
Q 691 4371 826 4371 
Q 966 4371 1059 4275 
Q 1152 4179 1152 4045 
z
M 1619 0 
L 102 0 
L 102 96 
Q 435 115 521 211 
Q 608 307 608 666 
L 608 2118 
Q 608 2342 563 2432 
Q 518 2522 397 2522 
Q 243 2522 128 2490 
L 128 2592 
L 1120 2944 
L 1146 2918 
L 1146 672 
Q 1146 314 1226 218 
Q 1306 122 1619 96 
L 1619 0 
z
" transform="scale(0.015625)"/>
       <path id="STIXGeneral-Regular-6e" d="M 3104 0 
L 1773 0 
L 1779 96 
Q 2016 115 2096 233 
Q 2176 352 2176 672 
L 2176 1946 
Q 2176 2592 1709 2592 
Q 1549 2592 1408 2515 
Q 1267 2438 1050 2227 
L 1050 461 
Q 1050 269 1136 192 
Q 1222 115 1466 96 
L 1466 0 
L 115 0 
L 115 96 
Q 358 115 435 214 
Q 512 314 512 602 
L 512 2157 
Q 512 2394 467 2483 
Q 422 2573 288 2573 
Q 160 2573 102 2547 
L 102 2656 
Q 550 2784 979 2944 
L 1030 2925 
L 1030 2426 
L 1037 2426 
Q 1491 2944 1958 2944 
Q 2323 2944 2518 2688 
Q 2714 2432 2714 1958 
L 2714 544 
Q 2714 288 2790 205 
Q 2867 122 3104 96 
L 3104 0 
z
" transform="scale(0.015625)"/>
       <path id="STIXGeneral-Regular-67" d="M 3008 2483 
L 2477 2483 
Q 2598 2208 2598 1946 
Q 2598 1453 2265 1203 
Q 1933 954 1600 954 
Q 1530 954 1357 973 
L 1235 986 
Q 1107 947 979 812 
Q 851 678 851 582 
Q 851 435 1350 410 
L 2176 371 
Q 2528 358 2739 172 
Q 2950 -13 2950 -314 
Q 2950 -685 2566 -986 
Q 2035 -1395 1286 -1395 
Q 826 -1395 502 -1212 
Q 179 -1030 179 -774 
Q 179 -595 320 -419 
Q 461 -243 806 6 
Q 602 102 534 172 
Q 467 243 467 346 
Q 467 531 762 787 
Q 909 915 1037 1043 
Q 717 1203 579 1401 
Q 442 1600 442 1901 
Q 442 2336 752 2640 
Q 1062 2944 1510 2944 
Q 1766 2944 2022 2848 
L 2163 2797 
Q 2349 2733 2515 2733 
L 3008 2733 
L 3008 2483 
z
M 973 2163 
L 973 2144 
Q 973 1683 1155 1398 
Q 1338 1114 1632 1114 
Q 1850 1114 1978 1270 
Q 2106 1427 2106 1690 
Q 2106 2112 1914 2464 
Q 1754 2765 1446 2765 
Q 1222 2765 1097 2605 
Q 973 2445 973 2163 
z
M 2771 -410 
Q 2771 -230 2595 -163 
Q 2419 -96 1978 -96 
Q 1344 -96 941 -13 
Q 749 -243 688 -348 
Q 627 -454 627 -563 
Q 627 -774 880 -902 
Q 1133 -1030 1555 -1030 
Q 2099 -1030 2435 -860 
Q 2771 -691 2771 -410 
z
" transform="scale(0.015625)"/>
       <path id="STIXGeneral-Regular-20" transform="scale(0.015625)"/>
       <path id="STIXGeneral-Regular-45" d="M 3821 1082 
L 3526 0 
L 77 0 
L 77 122 
Q 442 147 538 252 
Q 634 358 634 730 
L 634 3520 
Q 634 3878 534 3987 
Q 435 4096 77 4115 
L 77 4237 
L 3469 4237 
L 3494 3322 
L 3334 3322 
Q 3264 3750 3085 3872 
Q 2906 3994 2349 3994 
L 1510 3994 
Q 1370 3994 1328 3952 
Q 1286 3910 1286 3763 
L 1286 2355 
L 2253 2355 
Q 2656 2355 2787 2470 
Q 2918 2586 2976 2970 
L 3123 2970 
L 3123 1472 
L 2976 1472 
Q 2918 1875 2790 1984 
Q 2662 2093 2253 2093 
L 1286 2093 
L 1286 538 
Q 1286 346 1420 291 
Q 1555 237 1933 237 
L 2163 237 
Q 2848 237 3136 403 
Q 3424 570 3642 1082 
L 3821 1082 
z
" transform="scale(0.015625)"/>
       <path id="STIXGeneral-Regular-76" d="M 3053 2880 
L 3053 2784 
Q 2906 2771 2835 2688 
Q 2765 2605 2637 2285 
L 1818 230 
Q 1690 -90 1638 -90 
Q 1587 -90 1523 77 
Q 1510 96 1497 141 
Q 1485 186 1472 211 
L 704 2048 
Q 499 2534 403 2652 
Q 307 2771 122 2784 
L 122 2880 
L 1376 2880 
L 1376 2784 
Q 1210 2771 1146 2732 
Q 1082 2694 1082 2611 
Q 1082 2509 1139 2368 
L 1792 730 
L 2426 2387 
Q 2464 2483 2464 2579 
Q 2464 2758 2163 2784 
L 2163 2880 
L 3053 2880 
z
" transform="scale(0.015625)"/>
       <path id="STIXGeneral-Regular-6f" d="M 3008 1478 
Q 3008 806 2608 371 
Q 2208 -64 1568 -64 
Q 979 -64 582 368 
Q 186 800 186 1459 
Q 186 2125 582 2534 
Q 979 2944 1626 2944 
Q 2221 2944 2614 2537 
Q 3008 2131 3008 1478 
z
M 2432 1306 
Q 2432 2035 2112 2445 
Q 1856 2765 1504 2765 
Q 1171 2765 966 2493 
Q 762 2221 762 1747 
Q 762 928 1101 435 
Q 1318 115 1677 115 
Q 2029 115 2230 432 
Q 2432 749 2432 1306 
z
" transform="scale(0.015625)"/>
       <path id="STIXGeneral-Regular-6d" d="M 4960 0 
L 3565 0 
L 3565 96 
Q 3834 122 3907 208 
Q 3981 294 3981 576 
L 3981 1894 
Q 3981 2278 3869 2444 
Q 3757 2611 3488 2611 
Q 3264 2611 3107 2521 
Q 2950 2432 2803 2221 
L 2803 608 
Q 2803 301 2896 201 
Q 2989 102 3264 96 
L 3264 0 
L 1830 0 
L 1830 96 
Q 2112 115 2189 188 
Q 2266 262 2266 550 
L 2266 1901 
Q 2266 2611 1850 2611 
Q 1670 2611 1468 2531 
Q 1267 2451 1171 2336 
Q 1088 2240 1088 2227 
L 1088 448 
Q 1088 243 1177 176 
Q 1267 109 1523 96 
L 1523 0 
L 102 0 
L 102 96 
Q 371 102 460 195 
Q 550 288 550 563 
L 550 2150 
Q 550 2387 499 2480 
Q 448 2573 326 2573 
Q 230 2573 122 2547 
L 122 2656 
Q 557 2778 1011 2944 
L 1062 2925 
L 1062 2451 
L 1075 2451 
Q 1363 2752 1584 2848 
Q 1805 2944 2054 2944 
Q 2560 2944 2733 2406 
Q 3232 2944 3776 2944 
Q 4518 2944 4518 1792 
L 4518 493 
Q 4518 282 4582 202 
Q 4646 122 4794 109 
L 4960 96 
L 4960 0 
z
" transform="scale(0.015625)"/>
       <path id="STIXGeneral-Regular-65" d="M 2611 1050 
L 2714 1005 
Q 2330 -64 1376 -64 
Q 813 -64 486 329 
Q 160 723 160 1389 
Q 160 2074 525 2509 
Q 890 2944 1485 2944 
Q 2061 2944 2374 2502 
Q 2560 2246 2592 1773 
L 621 1773 
Q 646 1370 700 1158 
Q 755 947 915 730 
Q 1184 378 1626 378 
Q 1939 378 2153 531 
Q 2368 685 2611 1050 
z
M 634 1978 
L 1939 1978 
Q 1882 2381 1750 2547 
Q 1619 2714 1312 2714 
Q 1043 2714 864 2525 
Q 685 2336 634 1978 
z
" transform="scale(0.015625)"/>
       <path id="STIXGeneral-Regular-74" d="M 1702 493 
L 1786 422 
Q 1478 -64 1011 -64 
Q 448 -64 448 749 
L 448 2675 
L 109 2675 
Q 83 2694 83 2720 
Q 83 2771 192 2842 
Q 435 2982 813 3526 
Q 826 3546 874 3606 
Q 922 3667 941 3706 
Q 986 3706 986 3622 
L 986 2880 
L 1632 2880 
L 1632 2675 
L 986 2675 
L 986 845 
Q 986 538 1062 403 
Q 1139 269 1318 269 
Q 1510 269 1702 493 
z
" transform="scale(0.015625)"/>
       <path id="STIXGeneral-Regular-53" d="M 3002 2963 
L 2842 2963 
Q 2733 3360 2579 3565 
Q 2189 4064 1651 4064 
Q 1357 4064 1181 3894 
Q 1005 3725 1005 3456 
Q 1005 3328 1069 3206 
Q 1133 3085 1206 2998 
Q 1280 2912 1465 2784 
Q 1651 2656 1766 2589 
Q 1882 2522 2150 2362 
Q 2669 2061 2905 1763 
Q 3142 1466 3142 1107 
Q 3142 576 2771 243 
Q 2400 -90 1837 -90 
Q 1421 -90 1082 58 
Q 915 128 781 128 
Q 704 128 653 70 
Q 602 13 602 -83 
L 461 -83 
L 275 1274 
L 416 1274 
Q 845 141 1734 141 
Q 2074 141 2285 342 
Q 2496 544 2496 858 
Q 2496 1158 2310 1363 
Q 2003 1696 1235 2106 
Q 454 2522 454 3206 
Q 454 3718 768 4022 
Q 1082 4326 1568 4326 
Q 1907 4326 2240 4186 
Q 2413 4109 2522 4109 
Q 2688 4109 2726 4326 
L 2861 4326 
L 3002 2963 
z
" transform="scale(0.015625)"/>
       <path id="STIXGeneral-Regular-70" d="M 1018 2931 
L 1018 2438 
Q 1421 2944 1939 2944 
Q 2406 2944 2707 2560 
Q 3008 2176 3008 1581 
Q 3008 883 2621 409 
Q 2234 -64 1664 -64 
Q 1466 -64 1328 -6 
Q 1190 51 1018 211 
L 1018 -794 
Q 1018 -1094 1120 -1180 
Q 1222 -1267 1581 -1274 
L 1581 -1389 
L 32 -1389 
L 32 -1280 
Q 314 -1254 397 -1171 
Q 480 -1088 480 -838 
L 480 2157 
Q 480 2381 429 2451 
Q 378 2522 218 2522 
Q 115 2522 58 2515 
L 58 2618 
Q 506 2752 979 2944 
L 1018 2931 
z
M 1018 2138 
L 1018 563 
Q 1018 422 1238 281 
Q 1459 141 1683 141 
Q 2029 141 2243 467 
Q 2458 794 2458 1325 
Q 2458 1888 2243 2224 
Q 2029 2560 1670 2560 
Q 1446 2560 1232 2419 
Q 1018 2278 1018 2138 
z
" transform="scale(0.015625)"/>
       <path id="STIXGeneral-Regular-73" d="M 998 1926 
L 1664 1523 
Q 1984 1331 2105 1164 
Q 2227 998 2227 736 
Q 2227 416 1961 176 
Q 1696 -64 1331 -64 
Q 1030 -64 864 -6 
Q 691 51 570 51 
Q 461 51 416 -26 
L 333 -26 
L 333 979 
L 435 979 
Q 538 512 730 294 
Q 922 77 1248 77 
Q 1485 77 1632 211 
Q 1779 346 1779 550 
Q 1779 845 1440 1030 
L 1094 1222 
Q 326 1651 326 2150 
Q 326 2522 566 2730 
Q 806 2938 1210 2938 
Q 1491 2938 1638 2867 
Q 1754 2816 1818 2816 
Q 1862 2816 1920 2880 
L 1990 2880 
L 2022 2010 
L 1926 2010 
Q 1818 2445 1654 2621 
Q 1491 2797 1203 2797 
Q 986 2797 854 2688 
Q 723 2579 723 2362 
Q 723 2253 796 2128 
Q 870 2003 998 1926 
z
" transform="scale(0.015625)"/>
      </defs>
      <use xlink:href="#STIXGeneral-Regular-54"/>
      <use xlink:href="#STIXGeneral-Regular-72" x="61.099991"/>
      <use xlink:href="#STIXGeneral-Regular-61" x="94.399979"/>
      <use xlink:href="#STIXGeneral-Regular-69" x="138.799973"/>
      <use xlink:href="#STIXGeneral-Regular-6e" x="166.59996"/>
      <use xlink:href="#STIXGeneral-Regular-69" x="216.599945"/>
      <use xlink:href="#STIXGeneral-Regular-6e" x="244.399933"/>
      <use xlink:href="#STIXGeneral-Regular-67" x="294.399918"/>
      <use xlink:href="#STIXGeneral-Regular-20" x="344.399902"/>
      <use xlink:href="#STIXGeneral-Regular-45" x="369.399887"/>
      <use xlink:href="#STIXGeneral-Regular-6e" x="430.499878"/>
      <use xlink:href="#STIXGeneral-Regular-76" x="480.499863"/>
      <use xlink:href="#STIXGeneral-Regular-69" x="530.499847"/>
      <use xlink:href="#STIXGeneral-Regular-72" x="558.299835"/>
      <use xlink:href="#STIXGeneral-Regular-6f" x="591.599823"/>
      <use xlink:href="#STIXGeneral-Regular-6e" x="641.599808"/>
      <use xlink:href="#STIXGeneral-Regular-6d" x="691.599792"/>
      <use xlink:href="#STIXGeneral-Regular-65" x="769.39978"/>
      <use xlink:href="#STIXGeneral-Regular-6e" x="813.799774"/>
      <use xlink:href="#STIXGeneral-Regular-74" x="863.799759"/>
      <use xlink:href="#STIXGeneral-Regular-20" x="891.599747"/>
      <use xlink:href="#STIXGeneral-Regular-53" x="916.599731"/>
      <use xlink:href="#STIXGeneral-Regular-74" x="972.199722"/>
      <use xlink:href="#STIXGeneral-Regular-65" x="999.99971"/>
      <use xlink:href="#STIXGeneral-Regular-70" x="1044.399704"/>
      <use xlink:href="#STIXGeneral-Regular-73" x="1094.399689"/>
     </g>
    </g>
    <g id="text_8">
     <!-- 1e8 -->
     <g transform="translate(477.306875 343.645562)scale(0.18 -0.18)">
      <use xlink:href="#STIXGeneral-Regular-31"/>
      <use xlink:href="#STIXGeneral-Regular-65" x="49.999985"/>
      <use xlink:href="#STIXGeneral-Regular-38" x="94.399979"/>
     </g>
    </g>
   </g>
   <g id="matplotlib.axis_2">
    <g id="ytick_1">
     <g id="line2d_13">
      <path d="M 56.9 292.552125 
L 503.3 292.552125 
" clip-path="url(#pb3f3148767)" style="fill: none; stroke: #b0b0b0; stroke-width: 0.8; stroke-linecap: square"/>
     </g>
     <g id="line2d_14">
      <defs>
       <path id="m7870223ef2" d="M 0 0 
L -3.5 0 
" style="stroke: #000000; stroke-width: 0.8"/>
      </defs>
      <g>
       <use xlink:href="#m7870223ef2" x="56.9" y="292.552125" style="stroke: #000000; stroke-width: 0.8"/>
      </g>
     </g>
     <g id="text_9">
      <!-- 0.0 -->
      <g transform="translate(27.4 298.698844)scale(0.18 -0.18)">
       <use xlink:href="#STIXGeneral-Regular-30"/>
       <use xlink:href="#STIXGeneral-Regular-2e" x="49.999985"/>
       <use xlink:href="#STIXGeneral-Regular-30" x="74.999969"/>
      </g>
     </g>
    </g>
    <g id="ytick_2">
     <g id="line2d_15">
      <path d="M 56.9 240.157653 
L 503.3 240.157653 
" clip-path="url(#pb3f3148767)" style="fill: none; stroke: #b0b0b0; stroke-width: 0.8; stroke-linecap: square"/>
     </g>
     <g id="line2d_16">
      <g>
       <use xlink:href="#m7870223ef2" x="56.9" y="240.157653" style="stroke: #000000; stroke-width: 0.8"/>
      </g>
     </g>
     <g id="text_10">
      <!-- 0.2 -->
      <g transform="translate(27.4 246.304372)scale(0.18 -0.18)">
       <use xlink:href="#STIXGeneral-Regular-30"/>
       <use xlink:href="#STIXGeneral-Regular-2e" x="49.999985"/>
       <use xlink:href="#STIXGeneral-Regular-32" x="74.999969"/>
      </g>
     </g>
    </g>
    <g id="ytick_3">
     <g id="line2d_17">
      <path d="M 56.9 187.763181 
L 503.3 187.763181 
" clip-path="url(#pb3f3148767)" style="fill: none; stroke: #b0b0b0; stroke-width: 0.8; stroke-linecap: square"/>
     </g>
     <g id="line2d_18">
      <g>
       <use xlink:href="#m7870223ef2" x="56.9" y="187.763181" style="stroke: #000000; stroke-width: 0.8"/>
      </g>
     </g>
     <g id="text_11">
      <!-- 0.4 -->
      <g transform="translate(27.4 193.9099)scale(0.18 -0.18)">
       <use xlink:href="#STIXGeneral-Regular-30"/>
       <use xlink:href="#STIXGeneral-Regular-2e" x="49.999985"/>
       <use xlink:href="#STIXGeneral-Regular-34" x="74.999969"/>
      </g>
     </g>
    </g>
    <g id="ytick_4">
     <g id="line2d_19">
      <path d="M 56.9 135.368709 
L 503.3 135.368709 
" clip-path="url(#pb3f3148767)" style="fill: none; stroke: #b0b0b0; stroke-width: 0.8; stroke-linecap: square"/>
     </g>
     <g id="line2d_20">
      <g>
       <use xlink:href="#m7870223ef2" x="56.9" y="135.368709" style="stroke: #000000; stroke-width: 0.8"/>
      </g>
     </g>
     <g id="text_12">
      <!-- 0.6 -->
      <g transform="translate(27.4 141.515427)scale(0.18 -0.18)">
       <use xlink:href="#STIXGeneral-Regular-30"/>
       <use xlink:href="#STIXGeneral-Regular-2e" x="49.999985"/>
       <use xlink:href="#STIXGeneral-Regular-36" x="74.999969"/>
      </g>
     </g>
    </g>
    <g id="ytick_5">
     <g id="line2d_21">
      <path d="M 56.9 82.974237 
L 503.3 82.974237 
" clip-path="url(#pb3f3148767)" style="fill: none; stroke: #b0b0b0; stroke-width: 0.8; stroke-linecap: square"/>
     </g>
     <g id="line2d_22">
      <g>
       <use xlink:href="#m7870223ef2" x="56.9" y="82.974237" style="stroke: #000000; stroke-width: 0.8"/>
      </g>
     </g>
     <g id="text_13">
      <!-- 0.8 -->
      <g transform="translate(27.4 89.120955)scale(0.18 -0.18)">
       <use xlink:href="#STIXGeneral-Regular-30"/>
       <use xlink:href="#STIXGeneral-Regular-2e" x="49.999985"/>
       <use xlink:href="#STIXGeneral-Regular-38" x="74.999969"/>
      </g>
     </g>
    </g>
    <g id="ytick_6">
     <g id="line2d_23">
      <path d="M 56.9 30.579764 
L 503.3 30.579764 
" clip-path="url(#pb3f3148767)" style="fill: none; stroke: #b0b0b0; stroke-width: 0.8; stroke-linecap: square"/>
     </g>
     <g id="line2d_24">
      <g>
       <use xlink:href="#m7870223ef2" x="56.9" y="30.579764" style="stroke: #000000; stroke-width: 0.8"/>
      </g>
     </g>
     <g id="text_14">
      <!-- 1.0 -->
      <g transform="translate(27.4 36.726483)scale(0.18 -0.18)">
       <use xlink:href="#STIXGeneral-Regular-31"/>
       <use xlink:href="#STIXGeneral-Regular-2e" x="49.999985"/>
       <use xlink:href="#STIXGeneral-Regular-30" x="74.999969"/>
      </g>
     </g>
    </g>
    <g id="text_15">
     <!-- Success Rate -->
     <g transform="translate(19.493438 213.7965)rotate(-90)scale(0.18 -0.18)">
      <defs>
       <path id="STIXGeneral-Regular-75" d="M 3072 320 
L 3072 230 
Q 2573 96 2195 -58 
L 2163 -38 
L 2163 486 
L 2150 486 
Q 1747 -64 1235 -64 
Q 870 -64 662 160 
Q 454 384 454 755 
L 454 2362 
Q 454 2598 371 2688 
Q 288 2778 58 2790 
L 58 2880 
L 992 2880 
L 992 813 
Q 992 595 1123 451 
Q 1254 307 1446 307 
Q 1760 307 1984 506 
Q 2067 582 2099 649 
Q 2131 717 2131 877 
L 2131 2355 
Q 2131 2605 2041 2678 
Q 1952 2752 1658 2771 
L 1658 2880 
L 2669 2880 
L 2669 685 
Q 2669 461 2742 390 
Q 2816 320 3034 320 
L 3072 320 
z
" transform="scale(0.015625)"/>
       <path id="STIXGeneral-Regular-63" d="M 2547 998 
L 2637 941 
Q 2362 403 2112 205 
Q 1786 -64 1376 -64 
Q 845 -64 502 336 
Q 160 736 160 1357 
Q 160 2170 698 2618 
Q 1094 2944 1562 2944 
Q 1965 2944 2256 2749 
Q 2547 2554 2547 2285 
Q 2547 2176 2457 2096 
Q 2368 2016 2246 2016 
Q 2022 2016 1939 2310 
L 1901 2451 
Q 1850 2630 1773 2694 
Q 1696 2758 1523 2758 
Q 1133 2758 893 2451 
Q 653 2144 653 1645 
Q 653 1094 928 745 
Q 1203 397 1645 397 
Q 1920 397 2118 528 
Q 2317 659 2547 998 
z
" transform="scale(0.015625)"/>
       <path id="STIXGeneral-Regular-52" d="M 4224 0 
L 3187 0 
L 1664 1971 
L 1306 1958 
L 1306 717 
Q 1306 352 1405 249 
Q 1504 147 1875 122 
L 1875 0 
L 109 0 
L 109 122 
Q 474 154 563 262 
Q 653 371 653 794 
L 653 3526 
Q 653 3885 563 3987 
Q 474 4090 109 4115 
L 109 4237 
L 1850 4237 
Q 2726 4237 3187 3859 
Q 3501 3603 3501 3091 
Q 3501 2221 2342 2042 
L 3622 422 
Q 3757 256 3878 198 
Q 4000 141 4224 122 
L 4224 0 
z
M 1306 3731 
L 1306 2195 
Q 1766 2202 1990 2246 
Q 2214 2291 2438 2413 
Q 2803 2618 2803 3142 
Q 2803 4000 1632 4000 
Q 1459 4000 1382 3945 
Q 1306 3891 1306 3731 
z
" transform="scale(0.015625)"/>
      </defs>
      <use xlink:href="#STIXGeneral-Regular-53"/>
      <use xlink:href="#STIXGeneral-Regular-75" x="55.599991"/>
      <use xlink:href="#STIXGeneral-Regular-63" x="105.599976"/>
      <use xlink:href="#STIXGeneral-Regular-63" x="149.999969"/>
      <use xlink:href="#STIXGeneral-Regular-65" x="194.399963"/>
      <use xlink:href="#STIXGeneral-Regular-73" x="238.799957"/>
      <use xlink:href="#STIXGeneral-Regular-73" x="277.699951"/>
      <use xlink:href="#STIXGeneral-Regular-20" x="316.599945"/>
      <use xlink:href="#STIXGeneral-Regular-52" x="341.59993"/>
      <use xlink:href="#STIXGeneral-Regular-61" x="408.299927"/>
      <use xlink:href="#STIXGeneral-Regular-74" x="452.699921"/>
      <use xlink:href="#STIXGeneral-Regular-65" x="480.499908"/>
     </g>
    </g>
   </g>
   <g id="line2d_25">
    <path d="M 77.190909 292.552125 
L 88.599452 292.552125 
L 89.414348 290.456346 
L 90.229244 291.294658 
L 91.04414 289.701866 
L 91.859036 290.841969 
L 92.673932 291.526032 
L 93.488828 291.936469 
L 95.11862 292.330489 
L 97.563308 292.504252 
L 98.378204 290.427622 
L 99.1931 291.277423 
L 100.007996 291.787304 
L 100.822892 292.093232 
L 102.452683 292.386924 
L 104.897371 292.516442 
L 113.046331 292.551909 
L 143.197481 292.552125 
L 144.012377 290.456346 
L 144.827273 291.294658 
L 145.642169 291.797645 
L 146.457065 290.003658 
L 147.271961 291.023045 
L 148.086857 291.634677 
L 148.901752 292.001656 
L 150.531544 292.353956 
L 152.976232 292.509321 
L 159.4954 292.551406 
L 166.829463 292.552118 
L 167.644359 290.456342 
L 168.459255 291.294655 
L 169.274151 291.797643 
L 170.089047 292.099436 
L 171.718839 292.389157 
L 174.163527 292.516924 
L 182.312486 292.551912 
L 183.127382 292.551997 
L 183.942278 288.360491 
L 184.757174 287.941366 
L 185.57207 287.689891 
L 186.386966 285.443227 
L 187.201862 286.191007 
L 188.016758 286.639675 
L 188.831654 289.004655 
L 189.64655 290.423643 
L 190.461446 287.083478 
L 191.276342 289.270937 
L 192.091238 290.583412 
L 192.906134 291.370897 
L 193.72103 291.843388 
L 195.350821 292.29698 
L 197.795509 292.497014 
L 203.499781 292.550582 
L 351.810843 292.552125 
L 483.009091 292.552125 
L 483.009091 292.552125 
" clip-path="url(#pb3f3148767)" style="fill: none; stroke: #1f77b4; stroke-width: 1.5; stroke-linecap: square"/>
   </g>
   <g id="line2d_26">
    <path d="M 77.190909 292.552125 
L 78.005805 292.552125 
L 78.820701 290.456346 
L 79.635597 291.294658 
L 80.450493 291.797645 
L 81.265389 292.099437 
L 82.080285 292.280512 
L 82.895181 288.1976 
L 83.710077 289.93941 
L 84.524973 290.984496 
L 85.339869 291.611548 
L 86.154765 291.987779 
L 87.784556 292.34896 
L 90.229244 292.508241 
L 96.748412 292.551388 
L 100.822892 292.552068 
L 101.637788 290.456312 
L 102.452683 289.198858 
L 103.267579 280.06127 
L 104.082475 285.057612 
L 104.897371 279.672302 
L 105.712267 261.770664 
L 106.527163 257.317017 
L 107.342059 231.591262 
L 108.156955 220.347366 
L 108.971851 203.122134 
L 109.786747 146.67986 
L 110.601643 102.335599 
L 111.416539 73.633265 
L 112.231435 58.507642 
L 113.046331 47.336491 
L 113.861227 42.729577 
L 114.676123 63.019 
L 115.491019 56.330643 
L 116.305915 69.083862 
L 117.120811 76.735794 
L 117.935706 75.039616 
L 118.750602 84.5008 
L 119.565498 85.985956 
L 120.380394 84.781267 
L 121.19529 90.345791 
L 122.010186 72.726717 
L 122.825082 60.059496 
L 123.639978 52.459163 
L 124.454874 43.707404 
L 125.26977 40.552125 
L 126.084666 42.850518 
L 126.899562 48.421113 
L 127.714458 89.487486 
L 128.529354 118.318869 
L 129.34425 137.71348 
L 130.159146 134.679792 
L 130.974042 147.530033 
L 131.788938 125.899273 
L 132.603834 94.058807 
L 134.233625 60.557865 
L 135.048521 52.758185 
L 135.863417 52.26993 
L 136.678313 47.785424 
L 137.493209 47.190497 
L 138.308105 51.025101 
L 139.123001 42.846966 
L 139.937897 50.514759 
L 140.752793 53.019658 
L 141.567689 48.235261 
L 142.382585 45.364622 
L 143.197481 60.408467 
L 144.012377 115.541909 
L 144.827273 152.813534 
L 145.642169 139.548264 
L 146.457065 146.25956 
L 147.271961 143.999 
L 148.086857 130.06799 
L 148.901752 140.571395 
L 149.716648 172.022783 
L 150.531544 188.797835 
L 151.34644 215.629099 
L 152.161336 235.919415 
L 152.976232 241.806268 
L 153.791128 230.667926 
L 154.606024 226.080701 
L 155.42092 217.041029 
L 156.235816 230.479237 
L 157.050712 246.925277 
L 158.680504 233.791728 
L 159.4954 217.476088 
L 160.310296 205.590925 
L 161.940088 195.438636 
L 162.754984 175.602222 
L 163.56988 190.945499 
L 164.384775 181.289457 
L 165.199671 152.442265 
L 166.014567 149.8044 
L 166.829463 164.987912 
L 167.644359 169.906462 
L 168.459255 187.528043 
L 169.274151 193.909434 
L 170.089047 201.929826 
L 170.903943 192.07161 
L 172.533735 201.469733 
L 173.348631 210.657566 
L 174.163527 226.649159 
L 174.978423 253.010345 
L 175.793319 256.252384 
L 176.608215 266.580723 
L 178.238007 275.238461 
L 179.052903 282.163926 
L 179.867798 284.223427 
L 180.682694 287.554906 
L 181.49759 289.553794 
L 182.312486 288.657347 
L 183.127382 286.023701 
L 183.942278 288.63507 
L 184.757174 290.201892 
L 185.57207 291.141985 
L 186.386966 291.706041 
L 187.201862 292.044475 
L 188.016758 290.151756 
L 188.831654 286.920346 
L 189.64655 289.173058 
L 190.461446 290.524685 
L 191.276342 291.335661 
L 192.091238 291.822246 
L 192.906134 292.114198 
L 193.72103 290.19359 
L 194.535926 291.137004 
L 195.350821 291.703052 
L 196.165717 292.042681 
L 197.795509 292.368725 
L 200.240197 292.512511 
L 201.869989 292.537864 
L 202.684885 290.447789 
L 203.499781 291.289524 
L 204.314677 291.794564 
L 205.129573 290.00181 
L 205.944469 291.021936 
L 206.759365 291.634011 
L 207.574261 292.001257 
L 209.204053 292.353812 
L 210.018949 290.337359 
L 210.833844 289.127486 
L 211.64874 286.305784 
L 212.463636 288.80432 
L 213.278532 290.303442 
L 214.093428 291.202915 
L 214.908324 291.742599 
L 215.72322 287.874852 
L 216.538116 289.745761 
L 217.353012 290.868307 
L 218.167908 291.541834 
L 218.982804 289.850172 
L 219.7977 290.930953 
L 220.612596 291.579422 
L 221.427492 291.968503 
L 223.057284 292.342021 
L 224.687076 292.476488 
L 225.501972 290.410964 
L 226.316867 291.267428 
L 227.131763 291.781307 
L 227.946659 292.089634 
L 229.576451 292.385628 
L 232.021139 292.516162 
L 240.170099 292.551908 
L 244.244578 292.552108 
L 245.059474 290.456336 
L 245.87437 291.294652 
L 246.689266 291.797641 
L 247.504162 292.099435 
L 248.319058 292.280511 
L 249.133954 290.293378 
L 249.94885 291.196877 
L 250.763746 291.738976 
L 251.578642 289.968457 
L 252.393538 288.906145 
L 253.208434 288.268758 
L 254.02333 285.790547 
L 254.838226 286.3994 
L 255.653122 284.668932 
L 256.468018 287.822209 
L 257.282913 285.522618 
L 258.097809 284.142863 
L 258.912705 285.410789 
L 259.727601 288.267323 
L 260.542497 287.885465 
L 261.357393 289.752129 
L 262.172289 286.68057 
L 262.987185 289.029192 
L 263.802081 286.246807 
L 264.616977 288.768934 
L 265.431873 290.282211 
L 266.246769 289.094398 
L 267.061665 288.38171 
L 267.876561 290.049876 
L 268.691457 288.954997 
L 269.506353 286.20229 
L 270.321249 288.742224 
L 271.136145 290.266185 
L 271.951041 291.180561 
L 272.765936 289.633408 
L 273.580832 290.800895 
L 274.395728 291.501387 
L 275.210624 291.921682 
L 276.840416 292.325166 
L 277.655312 292.415949 
L 278.470208 288.278862 
L 279.285104 287.892388 
L 280.1 289.756283 
L 280.914896 290.87462 
L 281.729792 287.354064 
L 282.544688 287.33751 
L 283.359584 289.423356 
L 284.17448 288.579085 
L 286.619168 267.718238 
L 287.434064 262.98134 
L 288.248959 266.426539 
L 289.063855 270.589437 
L 289.878751 273.087176 
L 290.693647 266.202703 
L 291.508543 268.359357 
L 292.323439 273.844906 
L 293.138335 272.944678 
L 294.768127 284.235977 
L 295.583023 287.562436 
L 296.397919 289.558312 
L 297.212815 290.755837 
L 298.027711 291.474352 
L 298.842607 291.905461 
L 299.657503 290.068348 
L 300.472399 291.061859 
L 301.287295 291.657965 
L 302.102191 289.91985 
L 302.917087 286.781203 
L 303.731982 286.993793 
L 304.546878 285.025568 
L 305.361774 283.844633 
L 306.17667 278.944515 
L 306.991566 282.29178 
L 307.806462 284.300139 
L 308.621358 283.409376 
L 309.436254 287.066475 
L 310.25115 287.164956 
L 311.066046 285.128266 
L 311.880942 283.906252 
L 312.695838 285.268822 
L 313.510734 286.086365 
L 314.32563 282.385332 
L 315.140526 284.356271 
L 315.955422 279.251497 
L 316.770318 265.709737 
L 317.585214 263.872019 
L 318.40011 250.194716 
L 319.215005 254.563006 
L 320.029901 248.800865 
L 320.844797 257.918253 
L 321.659693 248.718234 
L 322.474589 253.677118 
L 323.289485 256.652448 
L 324.104381 260.533424 
L 324.919277 248.191558 
L 325.734173 247.073774 
L 326.549069 235.92421 
L 327.363965 229.234472 
L 328.178861 233.603744 
L 328.993757 236.225307 
L 329.808653 241.989804 
L 330.623549 249.640059 
L 331.438445 243.751318 
L 332.253341 244.40963 
L 333.068237 236.421504 
L 333.883133 233.724406 
L 335.512924 222.332919 
L 336.32782 225.271255 
L 337.142716 216.555362 
L 338.772508 230.403361 
L 339.587404 221.730405 
L 340.4023 206.047738 
L 341.217196 211.308588 
L 342.032092 210.273541 
L 343.661884 233.590931 
L 344.47678 240.409178 
L 345.291676 250.787462 
L 346.106572 252.822875 
L 346.921468 258.23568 
L 347.736364 261.483364 
L 348.55126 259.240416 
L 349.366156 257.894647 
L 350.181051 265.470302 
L 350.995947 267.919916 
L 351.810843 271.485463 
L 352.625739 277.816349 
L 353.440635 271.135986 
L 354.255531 269.223547 
L 355.070427 268.076084 
L 355.885323 269.483385 
L 356.700219 270.327766 
L 357.515115 266.642836 
L 358.330011 266.527657 
L 359.144907 272.745887 
L 359.959803 261.806371 
L 360.774699 274.104673 
L 361.589595 268.908981 
L 362.404491 274.174681 
L 363.219387 275.238322 
L 364.034283 282.163843 
L 364.849179 282.127598 
L 365.664074 284.20163 
L 366.47897 285.446049 
L 367.293866 282.001143 
L 368.108762 284.125757 
L 368.923658 287.496304 
L 369.738554 276.943959 
L 370.55345 276.899889 
L 371.368346 283.160784 
L 372.183242 284.821541 
L 372.998138 287.913775 
L 374.62793 287.529073 
L 375.442826 287.442515 
L 376.257722 289.486359 
L 377.072618 286.521108 
L 377.887514 284.741957 
L 378.70241 287.866024 
L 379.517306 289.740464 
L 380.332202 288.76935 
L 381.147097 283.995123 
L 381.961993 285.322145 
L 382.776889 281.926801 
L 383.591785 286.17693 
L 384.406681 282.439672 
L 385.221577 284.388874 
L 386.036473 281.366838 
L 386.851369 283.745174 
L 387.666265 285.172176 
L 388.481161 281.836819 
L 389.296057 279.835605 
L 390.110953 278.634876 
L 390.925849 284.201776 
L 391.740745 277.063021 
L 393.370537 276.916309 
L 394.185433 272.691741 
L 395.000329 276.444337 
L 395.815225 280.791673 
L 396.63012 281.304296 
L 397.445016 283.707649 
L 398.259912 283.053882 
L 399.074808 274.278506 
L 399.889704 281.587954 
L 400.7046 281.782064 
L 401.519496 277.706973 
L 402.334392 279.453476 
L 403.149288 284.692936 
L 403.964184 283.645054 
L 404.77908 280.920546 
L 405.593976 281.38162 
L 406.408872 283.754043 
L 407.223768 285.177497 
L 408.038664 279.744233 
L 408.85356 276.484274 
L 409.668456 278.719857 
L 410.483352 277.965428 
L 411.298248 281.704328 
L 412.113143 279.75611 
L 412.928039 280.682958 
L 413.742935 283.334846 
L 414.557831 284.925979 
L 415.372727 279.593322 
L 416.187623 278.489507 
L 417.002519 275.731439 
L 417.817415 267.789261 
L 418.632311 273.502849 
L 419.447207 270.643665 
L 420.262103 271.023934 
L 421.076999 275.443652 
L 421.891895 273.903926 
L 422.706791 281.363206 
L 423.521687 281.647216 
L 424.336583 275.530285 
L 425.151479 278.147463 
L 425.966375 271.334655 
L 426.781271 269.342748 
L 427.596166 274.434941 
L 428.411062 269.107142 
L 429.225958 268.00624 
L 430.040854 269.441479 
L 430.85575 266.111064 
L 431.670646 270.400152 
L 432.485542 270.877826 
L 433.300438 269.068651 
L 434.115334 270.078925 
L 434.93023 276.972426 
L 435.745126 279.012748 
L 436.560022 278.141162 
L 437.374918 277.618211 
L 438.189814 275.208661 
L 439.00471 280.050268 
L 439.819606 274.572116 
L 440.634502 271.285225 
L 441.449398 265.121533 
L 442.264294 271.902212 
L 443.894085 271.705172 
L 444.708981 271.660838 
L 445.523877 259.059563 
L 446.338773 255.690357 
L 447.153669 264.147728 
L 447.968565 262.934814 
L 448.783461 253.823949 
L 449.598357 248.35743 
L 450.413253 245.077519 
L 451.228149 236.822237 
L 452.043045 242.347961 
L 452.857941 241.471838 
L 453.672837 247.2335 
L 454.487733 248.59472 
L 455.302629 257.794566 
L 456.117525 265.410253 
L 456.932421 267.883887 
L 457.747317 275.655403 
L 458.562212 278.222534 
L 459.377108 271.379698 
L 460.192004 275.657111 
L 461.0069 274.032001 
L 461.821796 273.056935 
L 462.636692 274.567675 
L 463.451588 273.378339 
L 464.266484 270.568959 
L 465.08138 266.787552 
L 465.896276 268.710266 
L 466.711172 269.863894 
L 467.526068 270.556071 
L 468.340964 268.875598 
L 469.15586 276.25043 
L 469.970756 278.57955 
L 470.785652 279.977023 
L 471.600548 282.911285 
L 472.415444 284.671842 
L 473.23034 287.823955 
L 474.045235 287.619444 
L 474.860131 289.592517 
L 475.675027 284.489023 
L 476.489923 283.522706 
L 477.304819 285.038695 
L 478.119715 285.948288 
L 478.934611 286.494044 
L 479.749507 284.725719 
L 480.564403 285.760502 
L 481.379299 284.285594 
L 482.194195 283.400649 
L 483.009091 287.061239 
L 483.009091 287.061239 
" clip-path="url(#pb3f3148767)" style="fill: none; stroke: #ff7f0e; stroke-width: 1.5; stroke-linecap: square"/>
   </g>
   <g id="line2d_27">
    <path d="M 77.190909 292.552125 
L 483.009091 292.552125 
L 483.009091 292.552125 
" clip-path="url(#pb3f3148767)" style="fill: none; stroke: #2ca02c; stroke-width: 1.5; stroke-linecap: square"/>
   </g>
   <g id="line2d_28">
    <path d="M 77.190909 292.552125 
L 80.450493 292.552125 
L 81.265389 288.360567 
L 82.080285 285.845633 
L 82.895181 282.240893 
L 83.710077 284.269607 
L 84.524973 283.391057 
L 85.339869 276.576589 
L 86.154765 274.583688 
L 86.96966 269.19639 
L 87.784556 270.155569 
L 88.599452 260.25218 
L 89.414348 262.693264 
L 90.229244 259.966356 
L 91.04414 266.713327 
L 91.859036 258.186836 
L 92.673932 261.454057 
L 93.488828 263.414389 
L 94.303724 262.494811 
L 95.11862 259.847284 
L 95.933516 266.641884 
L 96.748412 260.23975 
L 97.563308 258.494248 
L 98.378204 255.351168 
L 99.1931 247.177983 
L 100.007996 254.848745 
L 100.822892 257.355424 
L 101.637788 252.572094 
L 102.452683 260.180991 
L 103.267579 256.363214 
L 104.082475 247.785211 
L 104.897371 257.308861 
L 105.712267 269.310388 
L 106.527163 263.93663 
L 107.342059 264.903934 
L 108.156955 261.292758 
L 108.971851 259.126053 
L 109.786747 257.826029 
L 110.601643 257.046015 
L 111.416539 254.482228 
L 112.231435 248.752398 
L 113.046331 239.027164 
L 113.861227 224.808907 
L 115.491019 215.770094 
L 116.305915 227.620896 
L 117.120811 217.965146 
L 117.935706 220.554813 
L 118.750602 232.587507 
L 119.565498 229.32823 
L 120.380394 235.755777 
L 121.19529 227.037632 
L 122.010186 232.28564 
L 122.825082 218.668213 
L 123.639978 214.689316 
L 124.454874 218.589315 
L 125.26977 214.641978 
L 126.084666 220.656691 
L 126.899562 215.882403 
L 127.714458 217.209387 
L 128.529354 224.292915 
L 129.34425 226.447253 
L 130.159146 236.122971 
L 130.974042 239.832622 
L 131.788938 235.771077 
L 132.603834 233.33415 
L 133.418729 229.776216 
L 134.233625 231.833012 
L 135.048521 237.258646 
L 135.863417 234.226692 
L 136.678313 232.407519 
L 137.493209 231.316015 
L 138.308105 228.565335 
L 139.123001 237.39382 
L 139.937897 230.116238 
L 140.752793 238.324362 
L 141.567689 243.249236 
L 142.382585 244.108381 
L 143.197481 246.719648 
L 144.012377 250.382187 
L 144.827273 252.57971 
L 145.642169 264.377118 
L 146.457065 258.88089 
L 147.271961 261.87049 
L 148.086857 261.568471 
L 148.901752 263.483038 
L 149.716648 262.536 
L 150.531544 268.255113 
L 151.34644 261.207687 
L 152.161336 263.266568 
L 152.976232 266.597675 
L 153.791128 260.213224 
L 154.606024 264.765669 
L 155.42092 265.401357 
L 156.235816 267.878549 
L 157.050712 269.364864 
L 157.865608 276.54399 
L 158.680504 278.755686 
L 159.4954 273.795367 
L 160.310296 270.819176 
L 161.125192 262.746125 
L 161.940088 270.476967 
L 162.754984 273.019694 
L 163.56988 272.449551 
L 164.384775 251.149676 
L 165.199671 261.423319 
L 166.014567 265.491726 
L 166.829463 255.358097 
L 167.644359 249.277919 
L 168.459255 256.108707 
L 169.274151 258.111401 
L 170.089047 265.600354 
L 170.903943 265.902168 
L 171.718839 259.79592 
L 172.533735 251.940613 
L 173.348631 234.652756 
L 174.163527 232.663158 
L 174.978423 225.18206 
L 175.793319 241.651192 
L 176.608215 249.436892 
L 177.423111 258.29987 
L 178.238007 257.33032 
L 179.052903 256.74859 
L 179.867798 262.686888 
L 180.682694 255.770972 
L 181.49759 262.100318 
L 183.127382 243.865455 
L 183.942278 244.478112 
L 184.757174 242.749928 
L 185.57207 254.287692 
L 186.386966 261.21035 
L 187.201862 263.268165 
L 188.016758 270.790191 
L 188.831654 275.303407 
L 189.64655 261.245105 
L 190.461446 242.331229 
L 191.276342 235.174463 
L 192.091238 222.497286 
L 192.906134 225.369876 
L 193.72103 239.668102 
L 194.535926 250.342817 
L 195.350821 263.034982 
L 196.165717 268.554503 
L 196.980613 263.4831 
L 197.795509 260.440257 
L 198.610405 254.422994 
L 200.240197 264.155186 
L 201.055093 262.939288 
L 201.869989 274.784423 
L 202.684885 279.795725 
L 203.499781 276.51517 
L 204.314677 278.738394 
L 205.129573 284.263886 
L 205.944469 281.291845 
L 206.759365 285.795957 
L 207.574261 288.498424 
L 208.389157 290.119905 
L 209.204053 288.997014 
L 210.018949 284.131722 
L 210.833844 277.020989 
L 211.64874 272.754549 
L 212.463636 276.482021 
L 213.278532 274.526948 
L 214.093428 260.779229 
L 214.908324 260.913715 
L 215.72322 271.4733 
L 216.538116 267.330157 
L 217.353012 269.035829 
L 218.167908 267.963453 
L 218.982804 269.415806 
L 219.7977 272.382997 
L 220.612596 267.875975 
L 222.242388 282.411244 
L 223.057284 282.276039 
L 223.87218 284.290694 
L 224.687076 287.595267 
L 225.501972 285.386452 
L 226.316867 277.773827 
L 227.131763 275.302031 
L 227.946659 275.914732 
L 228.761555 257.420343 
L 229.576451 252.611045 
L 230.391347 249.725466 
L 231.206243 264.760351 
L 232.021139 273.781282 
L 232.836035 277.098061 
L 233.650931 279.088129 
L 234.465827 278.186391 
L 235.280723 271.358012 
L 236.095619 273.54832 
L 236.910515 276.958285 
L 237.725411 262.238032 
L 238.540307 272.26789 
L 239.355203 276.190026 
L 240.170099 278.543308 
L 240.984995 284.146835 
L 241.79989 287.508951 
L 242.614786 289.526221 
L 243.429682 290.736582 
L 244.244578 291.462799 
L 245.059474 287.706972 
L 245.87437 285.453476 
L 246.689266 282.005599 
L 248.319058 282.048883 
L 249.133954 277.867065 
L 249.94885 269.070637 
L 250.763746 267.984337 
L 251.578642 261.045222 
L 252.393538 269.456425 
L 253.208434 272.407369 
L 254.02333 278.369492 
L 254.838226 279.850988 
L 255.653122 284.931443 
L 256.468018 281.692379 
L 257.282913 283.940499 
L 258.097809 274.810476 
L 258.912705 277.715578 
L 259.727601 268.979745 
L 260.542497 272.12136 
L 261.357393 269.814772 
L 262.172289 274.718155 
L 262.987185 281.851743 
L 263.802081 284.036117 
L 264.616977 285.346741 
L 265.431873 286.133116 
L 266.246769 288.70072 
L 267.061665 286.049724 
L 267.876561 284.459127 
L 268.691457 285.600547 
L 269.506353 288.381178 
L 270.321249 285.857999 
L 271.136145 286.439871 
L 271.951041 276.310099 
L 272.765936 276.519573 
L 273.580832 278.741036 
L 274.395728 284.265472 
L 275.210624 283.388575 
L 276.02552 284.958216 
L 276.840416 287.99578 
L 277.655312 289.818318 
L 278.470208 288.816062 
L 279.285104 288.214708 
L 280.1 289.949675 
L 280.914896 288.894876 
L 281.729792 281.97466 
L 282.544688 279.91831 
L 283.359584 278.684499 
L 284.17448 275.848434 
L 284.989376 272.051016 
L 285.804272 276.059902 
L 286.619168 267.986339 
L 287.434064 269.429538 
L 288.248959 272.391236 
L 289.063855 272.072476 
L 289.878751 280.264336 
L 290.693647 276.796336 
L 291.508543 278.907094 
L 292.323439 275.981991 
L 293.138335 282.610045 
L 293.953231 284.491098 
L 294.768127 287.715509 
L 295.583023 285.458598 
L 296.397919 282.008672 
L 297.212815 282.034496 
L 298.842607 269.903769 
L 299.657503 258.005322 
L 300.472399 269.728264 
L 301.287295 268.378914 
L 302.102191 275.95242 
L 302.917087 276.304965 
L 303.731982 276.516493 
L 304.546878 278.739188 
L 305.361774 282.168584 
L 306.17667 271.651548 
L 306.991566 263.245548 
L 307.806462 256.106168 
L 308.621358 266.492993 
L 309.436254 262.246194 
L 310.25115 251.314999 
L 311.066046 248.947838 
L 311.880942 245.431764 
L 312.695838 253.801014 
L 313.510734 244.152112 
L 314.32563 244.650107 
L 315.140526 242.853125 
L 315.955422 237.583379 
L 316.770318 240.708867 
L 317.585214 234.201045 
L 318.40011 236.583688 
L 319.215005 231.725938 
L 320.029901 230.907067 
L 320.844797 236.703079 
L 321.659693 225.510236 
L 322.474589 218.79453 
L 323.289485 235.722895 
L 324.104381 231.209463 
L 324.919277 230.597182 
L 325.734173 238.612928 
L 326.549069 241.326596 
L 327.363965 249.242135 
L 328.178861 262.374573 
L 328.993757 268.158257 
L 329.808653 275.820026 
L 330.623549 272.033971 
L 331.438445 273.953896 
L 332.253341 270.914293 
L 333.068237 273.282089 
L 333.883133 272.606988 
L 334.698028 268.01037 
L 335.512924 273.635514 
L 336.32782 270.723264 
L 337.142716 277.35903 
L 337.957612 281.340489 
L 338.772508 279.537807 
L 339.587404 282.647755 
L 340.4023 282.417945 
L 341.217196 275.992723 
L 342.032092 272.137589 
L 342.846988 271.920288 
L 343.661884 278.077244 
L 344.47678 281.771418 
L 345.291676 275.604806 
L 346.106572 278.192176 
L 346.921468 254.595251 
L 347.736364 250.91599 
L 348.55126 246.612655 
L 350.181051 233.679184 
L 350.995947 221.600119 
L 351.810843 229.023132 
L 352.625739 227.189605 
L 353.440635 226.089488 
L 354.255531 227.525197 
L 355.070427 211.62039 
L 355.885323 216.747959 
L 356.700219 224.016058 
L 357.515115 234.664254 
L 358.330011 241.053172 
L 359.144907 240.694964 
L 359.959803 230.001144 
L 360.774699 223.584852 
L 361.589595 230.213972 
L 362.404491 229.999887 
L 363.219387 234.062993 
L 364.034283 226.021961 
L 364.849179 229.580459 
L 365.664074 231.715558 
L 366.47897 212.03883 
L 367.293866 198.137013 
L 368.108762 196.083259 
L 368.923658 209.521459 
L 369.738554 209.201264 
L 370.55345 204.817587 
L 371.368346 197.995824 
L 372.183242 200.190103 
L 372.998138 199.41089 
L 373.813034 203.134923 
L 374.62793 207.465119 
L 375.442826 203.7759 
L 376.257722 205.753929 
L 377.072618 204.844966 
L 377.887514 202.203808 
L 378.70241 198.523337 
L 379.517306 206.793947 
L 380.332202 211.756314 
L 381.147097 214.733734 
L 381.961993 218.615966 
L 382.776889 223.041083 
L 383.591785 223.600376 
L 384.406681 223.935951 
L 385.221577 224.137296 
L 386.036473 215.874986 
L 386.851369 223.492274 
L 387.666265 238.541541 
L 388.481161 247.571102 
L 390.110953 261.688505 
L 390.925849 261.45928 
L 391.740745 259.225966 
L 392.555641 262.077535 
L 393.370537 257.50114 
L 394.185433 267.329976 
L 395.000329 271.131499 
L 396.63012 280.229986 
L 397.445016 280.967284 
L 398.259912 279.313884 
L 399.074808 282.513402 
L 399.889704 276.049996 
L 400.7046 280.555069 
L 401.519496 279.066555 
L 402.334392 278.173446 
L 403.149288 275.541802 
L 403.964184 271.867037 
L 404.77908 265.47062 
L 405.593976 257.441211 
L 406.408872 256.815124 
L 407.223768 262.726809 
L 408.038664 264.178041 
L 408.85356 254.569885 
L 409.668456 263.475445 
L 410.483352 262.531444 
L 411.298248 243.103032 
L 412.113143 233.541765 
L 412.928039 234.092341 
L 413.742935 230.23113 
L 414.557831 246.776413 
L 415.372727 258.799361 
L 416.187623 263.917351 
L 417.002519 262.796588 
L 417.817415 264.219908 
L 418.632311 256.690784 
L 419.447207 252.17331 
L 420.262103 236.888151 
L 421.076999 248.674846 
L 421.891895 253.651085 
L 422.706791 246.157933 
L 423.521687 237.470485 
L 424.336583 234.353795 
L 425.151479 226.196443 
L 425.966375 225.493591 
L 426.781271 220.88032 
L 427.596166 224.399696 
L 428.411062 228.6071 
L 429.225958 218.556869 
L 430.85575 227.770657 
L 431.670646 226.43812 
L 432.485542 223.542817 
L 433.300438 223.901416 
L 434.115334 232.499689 
L 434.93023 237.658653 
L 435.745126 236.562474 
L 436.560022 227.52165 
L 437.374918 222.097155 
L 438.189814 214.650902 
L 439.00471 216.470487 
L 439.819606 219.658017 
L 440.634502 213.187419 
L 441.449398 213.496617 
L 442.264294 219.969474 
L 443.079189 213.374293 
L 443.894085 211.512964 
L 444.708981 218.779283 
L 445.523877 223.139074 
L 446.338773 223.65917 
L 447.153669 221.875447 
L 448.783461 211.360803 
L 449.598357 212.400647 
L 450.413253 221.407671 
L 451.228149 210.045654 
L 452.043045 196.941107 
L 452.857941 214.227725 
L 453.672837 226.695474 
L 454.487733 229.984567 
L 456.117525 229.78885 
L 456.932421 233.936371 
L 457.747317 234.329105 
L 458.562212 238.756302 
L 459.377108 226.74217 
L 460.192004 225.821028 
L 461.0069 225.268342 
L 461.821796 216.553614 
L 462.636692 221.803672 
L 463.451588 206.091698 
L 464.266484 200.856071 
L 465.08138 199.810471 
L 465.896276 201.278891 
L 466.711172 200.064163 
L 467.526068 201.431107 
L 468.340964 195.963936 
L 469.15586 194.779413 
L 469.970756 194.0687 
L 471.600548 205.54193 
L 472.415444 208.909324 
L 473.23034 227.695992 
L 474.045235 228.489099 
L 474.860131 239.443857 
L 475.675027 229.25048 
L 477.304819 229.524579 
L 478.119715 231.68203 
L 478.934611 228.784943 
L 479.749507 216.567795 
L 480.564403 213.429065 
L 481.379299 217.833165 
L 482.194195 212.092507 
L 483.009091 219.127008 
L 483.009091 219.127008 
" clip-path="url(#pb3f3148767)" style="fill: none; stroke: #d62728; stroke-width: 1.5; stroke-linecap: square"/>
   </g>
   <g id="line2d_29">
    <path d="M 77.190909 292.552125 
L 289.063855 292.552125 
L 289.878751 290.456346 
L 290.693647 291.294658 
L 291.508543 291.797645 
L 292.323439 292.099437 
L 293.953231 292.389157 
L 296.397919 292.516924 
L 304.546878 292.551912 
L 483.009091 292.552125 
L 483.009091 292.552125 
" clip-path="url(#pb3f3148767)" style="fill: none; stroke: #9467bd; stroke-width: 1.5; stroke-linecap: square"/>
   </g>
   <g id="patch_3">
    <path d="M 56.9 305.152125 
L 56.9 27.952125 
" style="fill: none; stroke: #000000; stroke-width: 0.8; stroke-linejoin: miter; stroke-linecap: square"/>
   </g>
   <g id="patch_4">
    <path d="M 503.3 305.152125 
L 503.3 27.952125 
" style="fill: none; stroke: #000000; stroke-width: 0.8; stroke-linejoin: miter; stroke-linecap: square"/>
   </g>
   <g id="patch_5">
    <path d="M 56.9 305.152125 
L 503.3 305.152125 
" style="fill: none; stroke: #000000; stroke-width: 0.8; stroke-linejoin: miter; stroke-linecap: square"/>
   </g>
   <g id="patch_6">
    <path d="M 56.9 27.952125 
L 503.3 27.952125 
" style="fill: none; stroke: #000000; stroke-width: 0.8; stroke-linejoin: miter; stroke-linecap: square"/>
   </g>
   <g id="text_16">
    <!-- ML10 Meta Testing -->
    <g transform="translate(193.104313 21.952125)scale(0.216 -0.216)">
     <defs>
      <path id="STIXGeneral-Regular-4d" d="M 5530 0 
L 3738 0 
L 3738 122 
Q 4115 147 4214 265 
Q 4314 384 4314 787 
L 4314 3661 
L 2682 0 
L 2592 0 
L 979 3514 
L 979 966 
Q 979 448 1088 294 
Q 1197 141 1574 122 
L 1574 0 
L 77 0 
L 77 122 
Q 358 141 480 205 
Q 602 269 650 432 
Q 698 595 698 966 
L 698 3514 
Q 698 3878 589 3984 
Q 480 4090 90 4115 
L 90 4237 
L 1357 4237 
L 2835 1024 
L 4250 4237 
L 5523 4237 
L 5523 4115 
Q 5178 4109 5072 3993 
Q 4966 3878 4966 3520 
L 4966 717 
Q 4966 378 5072 262 
Q 5178 147 5530 122 
L 5530 0 
z
" transform="scale(0.015625)"/>
      <path id="STIXGeneral-Regular-4c" d="M 3827 1114 
L 3520 0 
L 77 0 
L 77 122 
Q 429 141 531 256 
Q 634 371 634 736 
L 634 3494 
Q 634 3872 541 3981 
Q 448 4090 77 4115 
L 77 4237 
L 1888 4237 
L 1888 4115 
Q 1498 4090 1392 3984 
Q 1286 3878 1286 3507 
L 1286 538 
Q 1286 358 1398 304 
Q 1510 250 1862 250 
L 2310 250 
Q 3085 250 3392 640 
Q 3520 813 3661 1114 
L 3827 1114 
z
" transform="scale(0.015625)"/>
     </defs>
     <use xlink:href="#STIXGeneral-Regular-4d"/>
     <use xlink:href="#STIXGeneral-Regular-4c" x="88.899994"/>
     <use xlink:href="#STIXGeneral-Regular-31" x="149.999985"/>
     <use xlink:href="#STIXGeneral-Regular-30" x="199.999969"/>
     <use xlink:href="#STIXGeneral-Regular-20" x="249.999954"/>
     <use xlink:href="#STIXGeneral-Regular-4d" x="274.999939"/>
     <use xlink:href="#STIXGeneral-Regular-65" x="363.899933"/>
     <use xlink:href="#STIXGeneral-Regular-74" x="408.299927"/>
     <use xlink:href="#STIXGeneral-Regular-61" x="436.099915"/>
     <use xlink:href="#STIXGeneral-Regular-20" x="480.499908"/>
     <use xlink:href="#STIXGeneral-Regular-54" x="505.499893"/>
     <use xlink:href="#STIXGeneral-Regular-65" x="566.599884"/>
     <use xlink:href="#STIXGeneral-Regular-73" x="610.999878"/>
     <use xlink:href="#STIXGeneral-Regular-74" x="649.899872"/>
     <use xlink:href="#STIXGeneral-Regular-69" x="677.69986"/>
     <use xlink:href="#STIXGeneral-Regular-6e" x="705.499847"/>
     <use xlink:href="#STIXGeneral-Regular-67" x="755.499832"/>
    </g>
   </g>
   <g id="legend_1">
    <g id="patch_7">
     <path d="M 387.294687 107.752125 
L 497.7 107.752125 
Q 500.5 107.752125 500.5 104.952125 
L 500.5 33.552125 
Q 500.5 30.752125 497.7 30.752125 
L 387.294687 30.752125 
Q 384.494687 30.752125 384.494687 33.552125 
L 384.494687 104.952125 
Q 384.494687 107.752125 387.294687 107.752125 
z
" style="fill: #ffffff; opacity: 0.8; stroke: #cccccc; stroke-linejoin: miter"/>
    </g>
    <g id="line2d_30">
     <path d="M 388.694687 40.663687 
L 395.694687 40.663687 
L 402.694687 40.663687 
" style="fill: none; stroke: #1f77b4; stroke-width: 1.5; stroke-linecap: square"/>
    </g>
    <g id="text_17">
     <!-- drawer-open-v2 -->
     <g transform="translate(406.894687 44.513687)scale(0.14 -0.14)">
      <defs>
       <path id="STIXGeneral-Regular-64" d="M 3142 269 
L 2202 -64 
L 2176 -45 
L 2176 365 
Q 1869 -64 1357 -64 
Q 826 -64 499 317 
Q 173 698 173 1312 
Q 173 1990 563 2467 
Q 954 2944 1504 2944 
Q 1850 2944 2176 2669 
L 2176 3667 
Q 2176 3866 2118 3930 
Q 2061 3994 1882 3994 
Q 1792 3994 1741 3987 
L 1741 4090 
Q 2323 4243 2682 4371 
L 2714 4358 
L 2714 730 
Q 2714 506 2768 435 
Q 2822 365 2995 365 
Q 3034 365 3142 371 
L 3142 269 
z
M 2176 653 
L 2176 2125 
Q 2176 2381 1981 2573 
Q 1786 2765 1523 2765 
Q 1158 2765 940 2438 
Q 723 2112 723 1568 
Q 723 979 963 624 
Q 1203 269 1606 269 
Q 1907 269 2080 474 
Q 2176 582 2176 653 
z
" transform="scale(0.015625)"/>
       <path id="STIXGeneral-Regular-77" d="M 4442 2880 
L 4442 2784 
Q 4346 2752 4301 2691 
Q 4256 2630 4179 2438 
L 3296 224 
Q 3168 -90 3117 -90 
Q 3085 -90 3062 -48 
Q 3040 -6 2963 186 
L 2381 1696 
L 1664 160 
Q 1549 -90 1504 -90 
Q 1446 -90 1338 192 
L 474 2381 
Q 378 2630 314 2700 
Q 250 2771 134 2784 
L 134 2880 
L 1286 2880 
L 1286 2784 
Q 1120 2765 1056 2720 
Q 992 2675 992 2573 
Q 992 2477 1030 2381 
L 1664 710 
L 2246 1984 
L 2118 2342 
Q 2029 2598 1942 2681 
Q 1856 2765 1677 2784 
L 1677 2880 
L 2976 2880 
L 2976 2784 
Q 2752 2752 2678 2707 
Q 2605 2662 2605 2560 
Q 2605 2458 2714 2176 
L 3251 742 
L 3827 2163 
Q 3936 2432 3936 2592 
Q 3936 2669 3875 2710 
Q 3814 2752 3654 2784 
L 3654 2880 
L 4442 2880 
z
" transform="scale(0.015625)"/>
       <path id="STIXGeneral-Regular-2d" d="M 1824 1242 
L 250 1242 
L 250 1645 
L 1824 1645 
L 1824 1242 
z
" transform="scale(0.015625)"/>
      </defs>
      <use xlink:href="#STIXGeneral-Regular-64"/>
      <use xlink:href="#STIXGeneral-Regular-72" x="49.999985"/>
      <use xlink:href="#STIXGeneral-Regular-61" x="83.299973"/>
      <use xlink:href="#STIXGeneral-Regular-77" x="127.699966"/>
      <use xlink:href="#STIXGeneral-Regular-65" x="199.899948"/>
      <use xlink:href="#STIXGeneral-Regular-72" x="244.299942"/>
      <use xlink:href="#STIXGeneral-Regular-2d" x="277.59993"/>
      <use xlink:href="#STIXGeneral-Regular-6f" x="310.899918"/>
      <use xlink:href="#STIXGeneral-Regular-70" x="360.899902"/>
      <use xlink:href="#STIXGeneral-Regular-65" x="410.899887"/>
      <use xlink:href="#STIXGeneral-Regular-6e" x="455.299881"/>
      <use xlink:href="#STIXGeneral-Regular-2d" x="505.299866"/>
      <use xlink:href="#STIXGeneral-Regular-76" x="538.599854"/>
      <use xlink:href="#STIXGeneral-Regular-32" x="588.599838"/>
     </g>
    </g>
    <g id="line2d_31">
     <path d="M 388.694687 54.663687 
L 395.694687 54.663687 
L 402.694687 54.663687 
" style="fill: none; stroke: #ff7f0e; stroke-width: 1.5; stroke-linecap: square"/>
    </g>
    <g id="text_18">
     <!-- door-close-v2 -->
     <g transform="translate(406.894687 58.513687)scale(0.14 -0.14)">
      <defs>
       <path id="STIXGeneral-Regular-6c" d="M 1645 0 
L 134 0 
L 134 96 
Q 435 122 531 221 
Q 627 320 627 589 
L 627 3590 
Q 627 3821 569 3910 
Q 512 4000 358 4000 
Q 224 4000 122 3987 
L 122 4090 
Q 730 4237 1133 4371 
L 1165 4346 
L 1165 557 
Q 1165 288 1254 201 
Q 1344 115 1645 96 
L 1645 0 
z
" transform="scale(0.015625)"/>
      </defs>
      <use xlink:href="#STIXGeneral-Regular-64"/>
      <use xlink:href="#STIXGeneral-Regular-6f" x="49.999985"/>
      <use xlink:href="#STIXGeneral-Regular-6f" x="99.999969"/>
      <use xlink:href="#STIXGeneral-Regular-72" x="149.999954"/>
      <use xlink:href="#STIXGeneral-Regular-2d" x="183.299942"/>
      <use xlink:href="#STIXGeneral-Regular-63" x="216.59993"/>
      <use xlink:href="#STIXGeneral-Regular-6c" x="260.999924"/>
      <use xlink:href="#STIXGeneral-Regular-6f" x="288.799911"/>
      <use xlink:href="#STIXGeneral-Regular-73" x="338.799896"/>
      <use xlink:href="#STIXGeneral-Regular-65" x="377.69989"/>
      <use xlink:href="#STIXGeneral-Regular-2d" x="422.099884"/>
      <use xlink:href="#STIXGeneral-Regular-76" x="455.399872"/>
      <use xlink:href="#STIXGeneral-Regular-32" x="505.399857"/>
     </g>
    </g>
    <g id="line2d_32">
     <path d="M 388.694687 68.663687 
L 395.694687 68.663687 
L 402.694687 68.663687 
" style="fill: none; stroke: #2ca02c; stroke-width: 1.5; stroke-linecap: square"/>
    </g>
    <g id="text_19">
     <!-- shelf-place-v2 -->
     <g transform="translate(406.894687 72.513687)scale(0.14 -0.14)">
      <defs>
       <path id="STIXGeneral-Regular-68" d="M 3117 0 
L 1760 0 
L 1760 96 
Q 2042 128 2118 224 
Q 2195 320 2195 653 
L 2195 1920 
Q 2195 2598 1722 2598 
Q 1530 2598 1370 2508 
Q 1210 2419 1005 2195 
L 1005 653 
Q 1005 320 1081 224 
Q 1158 128 1440 96 
L 1440 0 
L 58 0 
L 58 96 
Q 333 134 400 224 
Q 467 314 467 653 
L 467 3667 
Q 467 3872 406 3933 
Q 346 3994 141 3994 
Q 83 3994 64 3987 
L 64 4090 
L 237 4141 
Q 730 4288 973 4371 
L 1005 4352 
L 1005 2406 
Q 1229 2694 1446 2819 
Q 1664 2944 1946 2944 
Q 2733 2944 2733 1926 
L 2733 653 
Q 2733 320 2793 233 
Q 2854 147 3117 96 
L 3117 0 
z
" transform="scale(0.015625)"/>
       <path id="STIXGeneral-Regular-66" d="M 134 2880 
L 659 2880 
Q 666 3264 710 3478 
Q 755 3693 883 3910 
Q 1152 4371 1786 4371 
Q 2074 4371 2262 4259 
Q 2451 4147 2451 3974 
Q 2451 3866 2374 3789 
Q 2298 3712 2182 3712 
Q 2029 3712 1894 3942 
Q 1741 4192 1555 4192 
Q 1197 4192 1197 3622 
L 1197 2880 
L 1978 2880 
L 1978 2675 
L 1197 2675 
L 1197 666 
Q 1197 307 1299 208 
Q 1402 109 1792 96 
L 1792 0 
L 128 0 
L 128 96 
Q 474 115 566 214 
Q 659 314 659 666 
L 659 2675 
L 134 2675 
L 134 2880 
z
" transform="scale(0.015625)"/>
      </defs>
      <use xlink:href="#STIXGeneral-Regular-73"/>
      <use xlink:href="#STIXGeneral-Regular-68" x="38.899994"/>
      <use xlink:href="#STIXGeneral-Regular-65" x="88.899979"/>
      <use xlink:href="#STIXGeneral-Regular-6c" x="133.299973"/>
      <use xlink:href="#STIXGeneral-Regular-66" x="161.09996"/>
      <use xlink:href="#STIXGeneral-Regular-2d" x="194.399948"/>
      <use xlink:href="#STIXGeneral-Regular-70" x="227.699936"/>
      <use xlink:href="#STIXGeneral-Regular-6c" x="277.699921"/>
      <use xlink:href="#STIXGeneral-Regular-61" x="305.499908"/>
      <use xlink:href="#STIXGeneral-Regular-63" x="349.899902"/>
      <use xlink:href="#STIXGeneral-Regular-65" x="394.299896"/>
      <use xlink:href="#STIXGeneral-Regular-2d" x="438.69989"/>
      <use xlink:href="#STIXGeneral-Regular-76" x="471.999878"/>
      <use xlink:href="#STIXGeneral-Regular-32" x="521.999863"/>
     </g>
    </g>
    <g id="line2d_33">
     <path d="M 388.694687 82.663687 
L 395.694687 82.663687 
L 402.694687 82.663687 
" style="fill: none; stroke: #d62728; stroke-width: 1.5; stroke-linecap: square"/>
    </g>
    <g id="text_20">
     <!-- sweep-into-v2 -->
     <g transform="translate(406.894687 86.513687)scale(0.14 -0.14)">
      <use xlink:href="#STIXGeneral-Regular-73"/>
      <use xlink:href="#STIXGeneral-Regular-77" x="38.899994"/>
      <use xlink:href="#STIXGeneral-Regular-65" x="111.099976"/>
      <use xlink:href="#STIXGeneral-Regular-65" x="155.499969"/>
      <use xlink:href="#STIXGeneral-Regular-70" x="199.899963"/>
      <use xlink:href="#STIXGeneral-Regular-2d" x="249.899948"/>
      <use xlink:href="#STIXGeneral-Regular-69" x="283.199936"/>
      <use xlink:href="#STIXGeneral-Regular-6e" x="310.999924"/>
      <use xlink:href="#STIXGeneral-Regular-74" x="360.999908"/>
      <use xlink:href="#STIXGeneral-Regular-6f" x="388.799896"/>
      <use xlink:href="#STIXGeneral-Regular-2d" x="438.799881"/>
      <use xlink:href="#STIXGeneral-Regular-76" x="472.099869"/>
      <use xlink:href="#STIXGeneral-Regular-32" x="522.099854"/>
     </g>
    </g>
    <g id="line2d_34">
     <path d="M 388.694687 96.663687 
L 395.694687 96.663687 
L 402.694687 96.663687 
" style="fill: none; stroke: #9467bd; stroke-width: 1.5; stroke-linecap: square"/>
    </g>
    <g id="text_21">
     <!-- lever-pull-v2 -->
     <g transform="translate(406.894687 100.513687)scale(0.14 -0.14)">
      <use xlink:href="#STIXGeneral-Regular-6c"/>
      <use xlink:href="#STIXGeneral-Regular-65" x="27.799988"/>
      <use xlink:href="#STIXGeneral-Regular-76" x="72.199982"/>
      <use xlink:href="#STIXGeneral-Regular-65" x="122.199966"/>
      <use xlink:href="#STIXGeneral-Regular-72" x="166.59996"/>
      <use xlink:href="#STIXGeneral-Regular-2d" x="199.899948"/>
      <use xlink:href="#STIXGeneral-Regular-70" x="233.199936"/>
      <use xlink:href="#STIXGeneral-Regular-75" x="283.199921"/>
      <use xlink:href="#STIXGeneral-Regular-6c" x="333.199905"/>
      <use xlink:href="#STIXGeneral-Regular-6c" x="360.999893"/>
      <use xlink:href="#STIXGeneral-Regular-2d" x="388.799881"/>
      <use xlink:href="#STIXGeneral-Regular-76" x="422.099869"/>
      <use xlink:href="#STIXGeneral-Regular-32" x="472.099854"/>
     </g>
    </g>
   </g>
  </g>
 </g>
 <defs>
  <clipPath id="pb3f3148767">
   <rect x="56.9" y="27.952125" width="446.4" height="277.2"/>
  </clipPath>
 </defs>
</svg>
