<?xml version="1.0" encoding="utf-8" standalone="no"?>
<!DOCTYPE svg PUBLIC "-//W3C//DTD SVG 1.1//EN"
  "http://www.w3.org/Graphics/SVG/1.1/DTD/svg11.dtd">
<svg xmlns:xlink="http://www.w3.org/1999/xlink" width="510.5pt" height="355.769pt" viewBox="0 0 510.5 355.769" xmlns="http://www.w3.org/2000/svg" version="1.1">
 <metadata>
  <rdf:RDF xmlns:dc="http://purl.org/dc/elements/1.1/" xmlns:cc="http://creativecommons.org/ns#" xmlns:rdf="http://www.w3.org/1999/02/22-rdf-syntax-ns#">
   <cc:Work>
    <dc:type rdf:resource="http://purl.org/dc/dcmitype/StillImage"/>
    <dc:date>2021-12-11T20:29:11.866588</dc:date>
    <dc:format>image/svg+xml</dc:format>
    <dc:creator>
     <cc:Agent>
      <dc:title>Matplotlib v3.5.0, https://matplotlib.org/</dc:title>
     </cc:Agent>
    </dc:creator>
   </cc:Work>
  </rdf:RDF>
 </metadata>
 <defs>
  <style type="text/css">*{stroke-linejoin: round; stroke-linecap: butt}</style>
 </defs>
 <g id="figure_1">
  <g id="patch_1">
   <path d="M 0 355.769 
L 510.5 355.769 
L 510.5 0 
L 0 0 
z
" style="fill: #ffffff"/>
  </g>
  <g id="axes_1">
   <g id="patch_2">
    <path d="M 56.9 305.152125 
L 503.3 305.152125 
L 503.3 27.952125 
L 56.9 27.952125 
z
" style="fill: #ffffff"/>
   </g>
   <g id="matplotlib.axis_1">
    <g id="xtick_1">
     <g id="line2d_1">
      <path d="M 76.395187 305.152125 
L 76.395187 27.952125 
" clip-path="url(#pe155748fc4)" style="fill: none; stroke: #b0b0b0; stroke-width: 0.8; stroke-linecap: square"/>
     </g>
     <g id="line2d_2">
      <defs>
       <path id="ma36cd9e0b2" d="M 0 0 
L 0 3.5 
" style="stroke: #000000; stroke-width: 0.8"/>
      </defs>
      <g>
       <use xlink:href="#ma36cd9e0b2" x="76.395187" y="305.152125" style="stroke: #000000; stroke-width: 0.8"/>
      </g>
     </g>
     <g id="text_1">
      <!-- 0.0 -->
      <g transform="translate(65.145187 324.445562)scale(0.18 -0.18)">
       <defs>
        <path id="STIXGeneral-Regular-30" d="M 3046 2112 
Q 3046 1683 2963 1302 
Q 2880 922 2717 602 
Q 2554 282 2266 96 
Q 1978 -90 1600 -90 
Q 1210 -90 915 108 
Q 621 307 461 640 
Q 301 973 227 1350 
Q 154 1728 154 2150 
Q 154 2746 301 3222 
Q 448 3699 790 4012 
Q 1133 4326 1626 4326 
Q 2253 4326 2649 3712 
Q 3046 3098 3046 2112 
z
M 2432 2080 
Q 2432 3091 2217 3625 
Q 2003 4160 1587 4160 
Q 1190 4160 979 3622 
Q 768 3085 768 2106 
Q 768 1120 979 598 
Q 1190 77 1600 77 
Q 2003 77 2217 598 
Q 2432 1120 2432 2080 
z
" transform="scale(0.015625)"/>
        <path id="STIXGeneral-Regular-2e" d="M 1158 275 
Q 1158 134 1052 32 
Q 947 -70 800 -70 
Q 653 -70 550 32 
Q 448 134 448 281 
Q 448 429 553 534 
Q 659 640 806 640 
Q 947 640 1052 531 
Q 1158 422 1158 275 
z
" transform="scale(0.015625)"/>
       </defs>
       <use xlink:href="#STIXGeneral-Regular-30"/>
       <use xlink:href="#STIXGeneral-Regular-2e" x="49.999985"/>
       <use xlink:href="#STIXGeneral-Regular-30" x="74.999969"/>
      </g>
     </g>
    </g>
    <g id="xtick_2">
     <g id="line2d_3">
      <path d="M 155.96738 305.152125 
L 155.96738 27.952125 
" clip-path="url(#pe155748fc4)" style="fill: none; stroke: #b0b0b0; stroke-width: 0.8; stroke-linecap: square"/>
     </g>
     <g id="line2d_4">
      <g>
       <use xlink:href="#ma36cd9e0b2" x="155.96738" y="305.152125" style="stroke: #000000; stroke-width: 0.8"/>
      </g>
     </g>
     <g id="text_2">
      <!-- 0.2 -->
      <g transform="translate(144.71738 324.445562)scale(0.18 -0.18)">
       <defs>
        <path id="STIXGeneral-Regular-32" d="M 3034 877 
L 2688 0 
L 186 0 
L 186 77 
L 1325 1286 
Q 1773 1754 1965 2144 
Q 2157 2534 2157 2950 
Q 2157 3379 1920 3616 
Q 1683 3853 1267 3853 
Q 922 3853 720 3673 
Q 518 3494 326 3021 
L 192 3053 
Q 301 3648 630 3987 
Q 960 4326 1523 4326 
Q 2054 4326 2380 4006 
Q 2707 3686 2707 3200 
Q 2707 2477 1888 1613 
L 832 486 
L 2330 486 
Q 2541 486 2665 569 
Q 2790 653 2944 915 
L 3034 877 
z
" transform="scale(0.015625)"/>
       </defs>
       <use xlink:href="#STIXGeneral-Regular-30"/>
       <use xlink:href="#STIXGeneral-Regular-2e" x="49.999985"/>
       <use xlink:href="#STIXGeneral-Regular-32" x="74.999969"/>
      </g>
     </g>
    </g>
    <g id="xtick_3">
     <g id="line2d_5">
      <path d="M 235.539572 305.152125 
L 235.539572 27.952125 
" clip-path="url(#pe155748fc4)" style="fill: none; stroke: #b0b0b0; stroke-width: 0.8; stroke-linecap: square"/>
     </g>
     <g id="line2d_6">
      <g>
       <use xlink:href="#ma36cd9e0b2" x="235.539572" y="305.152125" style="stroke: #000000; stroke-width: 0.8"/>
      </g>
     </g>
     <g id="text_3">
      <!-- 0.4 -->
      <g transform="translate(224.289572 324.445562)scale(0.18 -0.18)">
       <defs>
        <path id="STIXGeneral-Regular-34" d="M 3027 1069 
L 2368 1069 
L 2368 0 
L 1869 0 
L 1869 1069 
L 77 1069 
L 77 1478 
L 2086 4326 
L 2368 4326 
L 2368 1478 
L 3027 1478 
L 3027 1069 
z
M 1869 1478 
L 1869 3674 
L 333 1478 
L 1869 1478 
z
" transform="scale(0.015625)"/>
       </defs>
       <use xlink:href="#STIXGeneral-Regular-30"/>
       <use xlink:href="#STIXGeneral-Regular-2e" x="49.999985"/>
       <use xlink:href="#STIXGeneral-Regular-34" x="74.999969"/>
      </g>
     </g>
    </g>
    <g id="xtick_4">
     <g id="line2d_7">
      <path d="M 315.111765 305.152125 
L 315.111765 27.952125 
" clip-path="url(#pe155748fc4)" style="fill: none; stroke: #b0b0b0; stroke-width: 0.8; stroke-linecap: square"/>
     </g>
     <g id="line2d_8">
      <g>
       <use xlink:href="#ma36cd9e0b2" x="315.111765" y="305.152125" style="stroke: #000000; stroke-width: 0.8"/>
      </g>
     </g>
     <g id="text_4">
      <!-- 0.6 -->
      <g transform="translate(303.861765 324.445562)scale(0.18 -0.18)">
       <defs>
        <path id="STIXGeneral-Regular-36" d="M 2854 4378 
L 2867 4275 
Q 2112 4154 1606 3664 
Q 1101 3174 973 2451 
Q 1344 2739 1786 2739 
Q 2349 2739 2672 2380 
Q 2995 2022 2995 1402 
Q 2995 774 2669 378 
Q 2291 -90 1651 -90 
Q 870 -90 518 557 
Q 218 1107 218 1786 
Q 218 2835 915 3552 
Q 1312 3962 1731 4131 
Q 2150 4301 2854 4378 
z
M 2419 1203 
Q 2419 2445 1555 2445 
Q 1235 2445 1024 2275 
Q 813 2106 813 1702 
Q 813 954 1046 522 
Q 1280 90 1722 90 
Q 2061 90 2240 394 
Q 2419 698 2419 1203 
z
" transform="scale(0.015625)"/>
       </defs>
       <use xlink:href="#STIXGeneral-Regular-30"/>
       <use xlink:href="#STIXGeneral-Regular-2e" x="49.999985"/>
       <use xlink:href="#STIXGeneral-Regular-36" x="74.999969"/>
      </g>
     </g>
    </g>
    <g id="xtick_5">
     <g id="line2d_9">
      <path d="M 394.683957 305.152125 
L 394.683957 27.952125 
" clip-path="url(#pe155748fc4)" style="fill: none; stroke: #b0b0b0; stroke-width: 0.8; stroke-linecap: square"/>
     </g>
     <g id="line2d_10">
      <g>
       <use xlink:href="#ma36cd9e0b2" x="394.683957" y="305.152125" style="stroke: #000000; stroke-width: 0.8"/>
      </g>
     </g>
     <g id="text_5">
      <!-- 0.8 -->
      <g transform="translate(383.433957 324.445562)scale(0.18 -0.18)">
       <defs>
        <path id="STIXGeneral-Regular-38" d="M 2848 992 
Q 2848 499 2505 204 
Q 2163 -90 1587 -90 
Q 1050 -90 704 204 
Q 358 499 358 954 
Q 358 1293 524 1533 
Q 691 1773 1190 2125 
Q 710 2522 553 2765 
Q 397 3008 397 3328 
Q 397 3782 745 4054 
Q 1094 4326 1638 4326 
Q 2106 4326 2410 4060 
Q 2714 3795 2714 3411 
Q 2714 3059 2531 2848 
Q 2349 2637 1856 2374 
Q 2432 1990 2640 1689 
Q 2848 1389 2848 992 
z
M 2272 3411 
Q 2272 3744 2086 3945 
Q 1901 4147 1574 4147 
Q 1248 4147 1059 3977 
Q 870 3808 870 3513 
Q 870 3219 1059 2979 
Q 1248 2739 1670 2490 
Q 1997 2682 2134 2896 
Q 2272 3110 2272 3411 
z
M 1734 1741 
L 1357 1997 
Q 1075 1766 960 1545 
Q 845 1325 845 1011 
Q 845 576 1065 333 
Q 1286 90 1658 90 
Q 1971 90 2166 285 
Q 2362 480 2362 794 
Q 2362 1082 2214 1299 
Q 2067 1517 1734 1741 
z
" transform="scale(0.015625)"/>
       </defs>
       <use xlink:href="#STIXGeneral-Regular-30"/>
       <use xlink:href="#STIXGeneral-Regular-2e" x="49.999985"/>
       <use xlink:href="#STIXGeneral-Regular-38" x="74.999969"/>
      </g>
     </g>
    </g>
    <g id="xtick_6">
     <g id="line2d_11">
      <path d="M 474.25615 305.152125 
L 474.25615 27.952125 
" clip-path="url(#pe155748fc4)" style="fill: none; stroke: #b0b0b0; stroke-width: 0.8; stroke-linecap: square"/>
     </g>
     <g id="line2d_12">
      <g>
       <use xlink:href="#ma36cd9e0b2" x="474.25615" y="305.152125" style="stroke: #000000; stroke-width: 0.8"/>
      </g>
     </g>
     <g id="text_6">
      <!-- 1.0 -->
      <g transform="translate(463.00615 324.445562)scale(0.18 -0.18)">
       <defs>
        <path id="STIXGeneral-Regular-31" d="M 2522 0 
L 755 0 
L 755 96 
Q 1107 115 1235 227 
Q 1363 339 1363 608 
L 1363 3482 
Q 1363 3795 1171 3795 
Q 1082 3795 883 3718 
L 710 3654 
L 710 3744 
L 1856 4326 
L 1914 4307 
L 1914 486 
Q 1914 275 2042 185 
Q 2170 96 2522 96 
L 2522 0 
z
" transform="scale(0.015625)"/>
       </defs>
       <use xlink:href="#STIXGeneral-Regular-31"/>
       <use xlink:href="#STIXGeneral-Regular-2e" x="49.999985"/>
       <use xlink:href="#STIXGeneral-Regular-30" x="74.999969"/>
      </g>
     </g>
    </g>
    <g id="text_7">
     <!-- Training Environment Steps -->
     <g transform="translate(178.104688 344.645562)scale(0.18 -0.18)">
      <defs>
       <path id="STIXGeneral-Regular-54" d="M 3795 3149 
L 3642 3149 
Q 3539 3674 3353 3821 
Q 3168 3968 2656 3968 
L 2278 3968 
L 2278 710 
Q 2278 346 2387 243 
Q 2496 141 2893 122 
L 2893 0 
L 1024 0 
L 1024 122 
Q 1427 147 1526 256 
Q 1626 365 1626 787 
L 1626 3968 
L 1242 3968 
Q 723 3968 540 3817 
Q 358 3667 262 3149 
L 109 3149 
L 154 4237 
L 3750 4237 
L 3795 3149 
z
" transform="scale(0.015625)"/>
       <path id="STIXGeneral-Regular-72" d="M 1024 2931 
L 1024 2342 
Q 1267 2688 1430 2816 
Q 1594 2944 1792 2944 
Q 1958 2944 2051 2854 
Q 2144 2765 2144 2605 
Q 2144 2470 2077 2393 
Q 2010 2317 1894 2317 
Q 1773 2317 1638 2445 
Q 1536 2541 1472 2541 
Q 1338 2541 1181 2355 
Q 1024 2170 1024 2016 
L 1024 576 
Q 1024 301 1133 205 
Q 1242 109 1568 96 
L 1568 0 
L 32 0 
L 32 96 
Q 339 154 412 224 
Q 486 294 486 538 
L 486 2138 
Q 486 2349 438 2435 
Q 390 2522 269 2522 
Q 166 2522 45 2496 
L 45 2598 
Q 448 2726 992 2944 
L 1024 2931 
z
" transform="scale(0.015625)"/>
       <path id="STIXGeneral-Regular-61" d="M 2829 422 
L 2829 243 
Q 2586 -64 2253 -64 
Q 1888 -64 1843 403 
L 1837 403 
Q 1427 -64 909 -64 
Q 608 -64 422 112 
Q 237 288 237 602 
Q 237 1050 685 1350 
Q 992 1555 1837 1869 
L 1837 2214 
Q 1837 2502 1699 2646 
Q 1562 2790 1338 2790 
Q 1146 2790 1018 2697 
Q 890 2605 890 2477 
Q 890 2419 909 2348 
Q 928 2278 928 2208 
Q 928 2112 841 2029 
Q 755 1946 634 1946 
Q 525 1946 441 2029 
Q 358 2112 358 2240 
Q 358 2547 685 2752 
Q 986 2944 1421 2944 
Q 1939 2944 2176 2656 
Q 2291 2522 2323 2384 
Q 2355 2246 2355 1946 
L 2355 723 
Q 2355 301 2554 301 
Q 2682 301 2829 422 
z
M 1837 813 
L 1837 1715 
Q 1248 1510 1018 1293 
Q 800 1094 800 800 
Q 800 557 921 432 
Q 1043 307 1242 307 
Q 1453 307 1613 410 
Q 1747 506 1792 589 
Q 1837 672 1837 813 
z
" transform="scale(0.015625)"/>
       <path id="STIXGeneral-Regular-69" d="M 1152 4045 
Q 1152 3904 1056 3811 
Q 960 3718 819 3718 
Q 685 3718 592 3811 
Q 499 3904 499 4045 
Q 499 4179 595 4275 
Q 691 4371 826 4371 
Q 966 4371 1059 4275 
Q 1152 4179 1152 4045 
z
M 1619 0 
L 102 0 
L 102 96 
Q 435 115 521 211 
Q 608 307 608 666 
L 608 2118 
Q 608 2342 563 2432 
Q 518 2522 397 2522 
Q 243 2522 128 2490 
L 128 2592 
L 1120 2944 
L 1146 2918 
L 1146 672 
Q 1146 314 1226 218 
Q 1306 122 1619 96 
L 1619 0 
z
" transform="scale(0.015625)"/>
       <path id="STIXGeneral-Regular-6e" d="M 3104 0 
L 1773 0 
L 1779 96 
Q 2016 115 2096 233 
Q 2176 352 2176 672 
L 2176 1946 
Q 2176 2592 1709 2592 
Q 1549 2592 1408 2515 
Q 1267 2438 1050 2227 
L 1050 461 
Q 1050 269 1136 192 
Q 1222 115 1466 96 
L 1466 0 
L 115 0 
L 115 96 
Q 358 115 435 214 
Q 512 314 512 602 
L 512 2157 
Q 512 2394 467 2483 
Q 422 2573 288 2573 
Q 160 2573 102 2547 
L 102 2656 
Q 550 2784 979 2944 
L 1030 2925 
L 1030 2426 
L 1037 2426 
Q 1491 2944 1958 2944 
Q 2323 2944 2518 2688 
Q 2714 2432 2714 1958 
L 2714 544 
Q 2714 288 2790 205 
Q 2867 122 3104 96 
L 3104 0 
z
" transform="scale(0.015625)"/>
       <path id="STIXGeneral-Regular-67" d="M 3008 2483 
L 2477 2483 
Q 2598 2208 2598 1946 
Q 2598 1453 2265 1203 
Q 1933 954 1600 954 
Q 1530 954 1357 973 
L 1235 986 
Q 1107 947 979 812 
Q 851 678 851 582 
Q 851 435 1350 410 
L 2176 371 
Q 2528 358 2739 172 
Q 2950 -13 2950 -314 
Q 2950 -685 2566 -986 
Q 2035 -1395 1286 -1395 
Q 826 -1395 502 -1212 
Q 179 -1030 179 -774 
Q 179 -595 320 -419 
Q 461 -243 806 6 
Q 602 102 534 172 
Q 467 243 467 346 
Q 467 531 762 787 
Q 909 915 1037 1043 
Q 717 1203 579 1401 
Q 442 1600 442 1901 
Q 442 2336 752 2640 
Q 1062 2944 1510 2944 
Q 1766 2944 2022 2848 
L 2163 2797 
Q 2349 2733 2515 2733 
L 3008 2733 
L 3008 2483 
z
M 973 2163 
L 973 2144 
Q 973 1683 1155 1398 
Q 1338 1114 1632 1114 
Q 1850 1114 1978 1270 
Q 2106 1427 2106 1690 
Q 2106 2112 1914 2464 
Q 1754 2765 1446 2765 
Q 1222 2765 1097 2605 
Q 973 2445 973 2163 
z
M 2771 -410 
Q 2771 -230 2595 -163 
Q 2419 -96 1978 -96 
Q 1344 -96 941 -13 
Q 749 -243 688 -348 
Q 627 -454 627 -563 
Q 627 -774 880 -902 
Q 1133 -1030 1555 -1030 
Q 2099 -1030 2435 -860 
Q 2771 -691 2771 -410 
z
" transform="scale(0.015625)"/>
       <path id="STIXGeneral-Regular-20" transform="scale(0.015625)"/>
       <path id="STIXGeneral-Regular-45" d="M 3821 1082 
L 3526 0 
L 77 0 
L 77 122 
Q 442 147 538 252 
Q 634 358 634 730 
L 634 3520 
Q 634 3878 534 3987 
Q 435 4096 77 4115 
L 77 4237 
L 3469 4237 
L 3494 3322 
L 3334 3322 
Q 3264 3750 3085 3872 
Q 2906 3994 2349 3994 
L 1510 3994 
Q 1370 3994 1328 3952 
Q 1286 3910 1286 3763 
L 1286 2355 
L 2253 2355 
Q 2656 2355 2787 2470 
Q 2918 2586 2976 2970 
L 3123 2970 
L 3123 1472 
L 2976 1472 
Q 2918 1875 2790 1984 
Q 2662 2093 2253 2093 
L 1286 2093 
L 1286 538 
Q 1286 346 1420 291 
Q 1555 237 1933 237 
L 2163 237 
Q 2848 237 3136 403 
Q 3424 570 3642 1082 
L 3821 1082 
z
" transform="scale(0.015625)"/>
       <path id="STIXGeneral-Regular-76" d="M 3053 2880 
L 3053 2784 
Q 2906 2771 2835 2688 
Q 2765 2605 2637 2285 
L 1818 230 
Q 1690 -90 1638 -90 
Q 1587 -90 1523 77 
Q 1510 96 1497 141 
Q 1485 186 1472 211 
L 704 2048 
Q 499 2534 403 2652 
Q 307 2771 122 2784 
L 122 2880 
L 1376 2880 
L 1376 2784 
Q 1210 2771 1146 2732 
Q 1082 2694 1082 2611 
Q 1082 2509 1139 2368 
L 1792 730 
L 2426 2387 
Q 2464 2483 2464 2579 
Q 2464 2758 2163 2784 
L 2163 2880 
L 3053 2880 
z
" transform="scale(0.015625)"/>
       <path id="STIXGeneral-Regular-6f" d="M 3008 1478 
Q 3008 806 2608 371 
Q 2208 -64 1568 -64 
Q 979 -64 582 368 
Q 186 800 186 1459 
Q 186 2125 582 2534 
Q 979 2944 1626 2944 
Q 2221 2944 2614 2537 
Q 3008 2131 3008 1478 
z
M 2432 1306 
Q 2432 2035 2112 2445 
Q 1856 2765 1504 2765 
Q 1171 2765 966 2493 
Q 762 2221 762 1747 
Q 762 928 1101 435 
Q 1318 115 1677 115 
Q 2029 115 2230 432 
Q 2432 749 2432 1306 
z
" transform="scale(0.015625)"/>
       <path id="STIXGeneral-Regular-6d" d="M 4960 0 
L 3565 0 
L 3565 96 
Q 3834 122 3907 208 
Q 3981 294 3981 576 
L 3981 1894 
Q 3981 2278 3869 2444 
Q 3757 2611 3488 2611 
Q 3264 2611 3107 2521 
Q 2950 2432 2803 2221 
L 2803 608 
Q 2803 301 2896 201 
Q 2989 102 3264 96 
L 3264 0 
L 1830 0 
L 1830 96 
Q 2112 115 2189 188 
Q 2266 262 2266 550 
L 2266 1901 
Q 2266 2611 1850 2611 
Q 1670 2611 1468 2531 
Q 1267 2451 1171 2336 
Q 1088 2240 1088 2227 
L 1088 448 
Q 1088 243 1177 176 
Q 1267 109 1523 96 
L 1523 0 
L 102 0 
L 102 96 
Q 371 102 460 195 
Q 550 288 550 563 
L 550 2150 
Q 550 2387 499 2480 
Q 448 2573 326 2573 
Q 230 2573 122 2547 
L 122 2656 
Q 557 2778 1011 2944 
L 1062 2925 
L 1062 2451 
L 1075 2451 
Q 1363 2752 1584 2848 
Q 1805 2944 2054 2944 
Q 2560 2944 2733 2406 
Q 3232 2944 3776 2944 
Q 4518 2944 4518 1792 
L 4518 493 
Q 4518 282 4582 202 
Q 4646 122 4794 109 
L 4960 96 
L 4960 0 
z
" transform="scale(0.015625)"/>
       <path id="STIXGeneral-Regular-65" d="M 2611 1050 
L 2714 1005 
Q 2330 -64 1376 -64 
Q 813 -64 486 329 
Q 160 723 160 1389 
Q 160 2074 525 2509 
Q 890 2944 1485 2944 
Q 2061 2944 2374 2502 
Q 2560 2246 2592 1773 
L 621 1773 
Q 646 1370 700 1158 
Q 755 947 915 730 
Q 1184 378 1626 378 
Q 1939 378 2153 531 
Q 2368 685 2611 1050 
z
M 634 1978 
L 1939 1978 
Q 1882 2381 1750 2547 
Q 1619 2714 1312 2714 
Q 1043 2714 864 2525 
Q 685 2336 634 1978 
z
" transform="scale(0.015625)"/>
       <path id="STIXGeneral-Regular-74" d="M 1702 493 
L 1786 422 
Q 1478 -64 1011 -64 
Q 448 -64 448 749 
L 448 2675 
L 109 2675 
Q 83 2694 83 2720 
Q 83 2771 192 2842 
Q 435 2982 813 3526 
Q 826 3546 874 3606 
Q 922 3667 941 3706 
Q 986 3706 986 3622 
L 986 2880 
L 1632 2880 
L 1632 2675 
L 986 2675 
L 986 845 
Q 986 538 1062 403 
Q 1139 269 1318 269 
Q 1510 269 1702 493 
z
" transform="scale(0.015625)"/>
       <path id="STIXGeneral-Regular-53" d="M 3002 2963 
L 2842 2963 
Q 2733 3360 2579 3565 
Q 2189 4064 1651 4064 
Q 1357 4064 1181 3894 
Q 1005 3725 1005 3456 
Q 1005 3328 1069 3206 
Q 1133 3085 1206 2998 
Q 1280 2912 1465 2784 
Q 1651 2656 1766 2589 
Q 1882 2522 2150 2362 
Q 2669 2061 2905 1763 
Q 3142 1466 3142 1107 
Q 3142 576 2771 243 
Q 2400 -90 1837 -90 
Q 1421 -90 1082 58 
Q 915 128 781 128 
Q 704 128 653 70 
Q 602 13 602 -83 
L 461 -83 
L 275 1274 
L 416 1274 
Q 845 141 1734 141 
Q 2074 141 2285 342 
Q 2496 544 2496 858 
Q 2496 1158 2310 1363 
Q 2003 1696 1235 2106 
Q 454 2522 454 3206 
Q 454 3718 768 4022 
Q 1082 4326 1568 4326 
Q 1907 4326 2240 4186 
Q 2413 4109 2522 4109 
Q 2688 4109 2726 4326 
L 2861 4326 
L 3002 2963 
z
" transform="scale(0.015625)"/>
       <path id="STIXGeneral-Regular-70" d="M 1018 2931 
L 1018 2438 
Q 1421 2944 1939 2944 
Q 2406 2944 2707 2560 
Q 3008 2176 3008 1581 
Q 3008 883 2621 409 
Q 2234 -64 1664 -64 
Q 1466 -64 1328 -6 
Q 1190 51 1018 211 
L 1018 -794 
Q 1018 -1094 1120 -1180 
Q 1222 -1267 1581 -1274 
L 1581 -1389 
L 32 -1389 
L 32 -1280 
Q 314 -1254 397 -1171 
Q 480 -1088 480 -838 
L 480 2157 
Q 480 2381 429 2451 
Q 378 2522 218 2522 
Q 115 2522 58 2515 
L 58 2618 
Q 506 2752 979 2944 
L 1018 2931 
z
M 1018 2138 
L 1018 563 
Q 1018 422 1238 281 
Q 1459 141 1683 141 
Q 2029 141 2243 467 
Q 2458 794 2458 1325 
Q 2458 1888 2243 2224 
Q 2029 2560 1670 2560 
Q 1446 2560 1232 2419 
Q 1018 2278 1018 2138 
z
" transform="scale(0.015625)"/>
       <path id="STIXGeneral-Regular-73" d="M 998 1926 
L 1664 1523 
Q 1984 1331 2105 1164 
Q 2227 998 2227 736 
Q 2227 416 1961 176 
Q 1696 -64 1331 -64 
Q 1030 -64 864 -6 
Q 691 51 570 51 
Q 461 51 416 -26 
L 333 -26 
L 333 979 
L 435 979 
Q 538 512 730 294 
Q 922 77 1248 77 
Q 1485 77 1632 211 
Q 1779 346 1779 550 
Q 1779 845 1440 1030 
L 1094 1222 
Q 326 1651 326 2150 
Q 326 2522 566 2730 
Q 806 2938 1210 2938 
Q 1491 2938 1638 2867 
Q 1754 2816 1818 2816 
Q 1862 2816 1920 2880 
L 1990 2880 
L 2022 2010 
L 1926 2010 
Q 1818 2445 1654 2621 
Q 1491 2797 1203 2797 
Q 986 2797 854 2688 
Q 723 2579 723 2362 
Q 723 2253 796 2128 
Q 870 2003 998 1926 
z
" transform="scale(0.015625)"/>
      </defs>
      <use xlink:href="#STIXGeneral-Regular-54"/>
      <use xlink:href="#STIXGeneral-Regular-72" x="61.099991"/>
      <use xlink:href="#STIXGeneral-Regular-61" x="94.399979"/>
      <use xlink:href="#STIXGeneral-Regular-69" x="138.799973"/>
      <use xlink:href="#STIXGeneral-Regular-6e" x="166.59996"/>
      <use xlink:href="#STIXGeneral-Regular-69" x="216.599945"/>
      <use xlink:href="#STIXGeneral-Regular-6e" x="244.399933"/>
      <use xlink:href="#STIXGeneral-Regular-67" x="294.399918"/>
      <use xlink:href="#STIXGeneral-Regular-20" x="344.399902"/>
      <use xlink:href="#STIXGeneral-Regular-45" x="369.399887"/>
      <use xlink:href="#STIXGeneral-Regular-6e" x="430.499878"/>
      <use xlink:href="#STIXGeneral-Regular-76" x="480.499863"/>
      <use xlink:href="#STIXGeneral-Regular-69" x="530.499847"/>
      <use xlink:href="#STIXGeneral-Regular-72" x="558.299835"/>
      <use xlink:href="#STIXGeneral-Regular-6f" x="591.599823"/>
      <use xlink:href="#STIXGeneral-Regular-6e" x="641.599808"/>
      <use xlink:href="#STIXGeneral-Regular-6d" x="691.599792"/>
      <use xlink:href="#STIXGeneral-Regular-65" x="769.39978"/>
      <use xlink:href="#STIXGeneral-Regular-6e" x="813.799774"/>
      <use xlink:href="#STIXGeneral-Regular-74" x="863.799759"/>
      <use xlink:href="#STIXGeneral-Regular-20" x="891.599747"/>
      <use xlink:href="#STIXGeneral-Regular-53" x="916.599731"/>
      <use xlink:href="#STIXGeneral-Regular-74" x="972.199722"/>
      <use xlink:href="#STIXGeneral-Regular-65" x="999.99971"/>
      <use xlink:href="#STIXGeneral-Regular-70" x="1044.399704"/>
      <use xlink:href="#STIXGeneral-Regular-73" x="1094.399689"/>
     </g>
    </g>
    <g id="text_8">
     <!-- 1e8 -->
     <g transform="translate(477.306875 343.645562)scale(0.18 -0.18)">
      <use xlink:href="#STIXGeneral-Regular-31"/>
      <use xlink:href="#STIXGeneral-Regular-65" x="49.999985"/>
      <use xlink:href="#STIXGeneral-Regular-38" x="94.399979"/>
     </g>
    </g>
   </g>
   <g id="matplotlib.axis_2">
    <g id="ytick_1">
     <g id="line2d_13">
      <path d="M 56.9 292.552125 
L 503.3 292.552125 
" clip-path="url(#pe155748fc4)" style="fill: none; stroke: #b0b0b0; stroke-width: 0.8; stroke-linecap: square"/>
     </g>
     <g id="line2d_14">
      <defs>
       <path id="mf0792e8010" d="M 0 0 
L -3.5 0 
" style="stroke: #000000; stroke-width: 0.8"/>
      </defs>
      <g>
       <use xlink:href="#mf0792e8010" x="56.9" y="292.552125" style="stroke: #000000; stroke-width: 0.8"/>
      </g>
     </g>
     <g id="text_9">
      <!-- 0.0 -->
      <g transform="translate(27.4 298.698844)scale(0.18 -0.18)">
       <use xlink:href="#STIXGeneral-Regular-30"/>
       <use xlink:href="#STIXGeneral-Regular-2e" x="49.999985"/>
       <use xlink:href="#STIXGeneral-Regular-30" x="74.999969"/>
      </g>
     </g>
    </g>
    <g id="ytick_2">
     <g id="line2d_15">
      <path d="M 56.9 242.152125 
L 503.3 242.152125 
" clip-path="url(#pe155748fc4)" style="fill: none; stroke: #b0b0b0; stroke-width: 0.8; stroke-linecap: square"/>
     </g>
     <g id="line2d_16">
      <g>
       <use xlink:href="#mf0792e8010" x="56.9" y="242.152125" style="stroke: #000000; stroke-width: 0.8"/>
      </g>
     </g>
     <g id="text_10">
      <!-- 0.2 -->
      <g transform="translate(27.4 248.298844)scale(0.18 -0.18)">
       <use xlink:href="#STIXGeneral-Regular-30"/>
       <use xlink:href="#STIXGeneral-Regular-2e" x="49.999985"/>
       <use xlink:href="#STIXGeneral-Regular-32" x="74.999969"/>
      </g>
     </g>
    </g>
    <g id="ytick_3">
     <g id="line2d_17">
      <path d="M 56.9 191.752125 
L 503.3 191.752125 
" clip-path="url(#pe155748fc4)" style="fill: none; stroke: #b0b0b0; stroke-width: 0.8; stroke-linecap: square"/>
     </g>
     <g id="line2d_18">
      <g>
       <use xlink:href="#mf0792e8010" x="56.9" y="191.752125" style="stroke: #000000; stroke-width: 0.8"/>
      </g>
     </g>
     <g id="text_11">
      <!-- 0.4 -->
      <g transform="translate(27.4 197.898844)scale(0.18 -0.18)">
       <use xlink:href="#STIXGeneral-Regular-30"/>
       <use xlink:href="#STIXGeneral-Regular-2e" x="49.999985"/>
       <use xlink:href="#STIXGeneral-Regular-34" x="74.999969"/>
      </g>
     </g>
    </g>
    <g id="ytick_4">
     <g id="line2d_19">
      <path d="M 56.9 141.352125 
L 503.3 141.352125 
" clip-path="url(#pe155748fc4)" style="fill: none; stroke: #b0b0b0; stroke-width: 0.8; stroke-linecap: square"/>
     </g>
     <g id="line2d_20">
      <g>
       <use xlink:href="#mf0792e8010" x="56.9" y="141.352125" style="stroke: #000000; stroke-width: 0.8"/>
      </g>
     </g>
     <g id="text_12">
      <!-- 0.6 -->
      <g transform="translate(27.4 147.498844)scale(0.18 -0.18)">
       <use xlink:href="#STIXGeneral-Regular-30"/>
       <use xlink:href="#STIXGeneral-Regular-2e" x="49.999985"/>
       <use xlink:href="#STIXGeneral-Regular-36" x="74.999969"/>
      </g>
     </g>
    </g>
    <g id="ytick_5">
     <g id="line2d_21">
      <path d="M 56.9 90.952125 
L 503.3 90.952125 
" clip-path="url(#pe155748fc4)" style="fill: none; stroke: #b0b0b0; stroke-width: 0.8; stroke-linecap: square"/>
     </g>
     <g id="line2d_22">
      <g>
       <use xlink:href="#mf0792e8010" x="56.9" y="90.952125" style="stroke: #000000; stroke-width: 0.8"/>
      </g>
     </g>
     <g id="text_13">
      <!-- 0.8 -->
      <g transform="translate(27.4 97.098844)scale(0.18 -0.18)">
       <use xlink:href="#STIXGeneral-Regular-30"/>
       <use xlink:href="#STIXGeneral-Regular-2e" x="49.999985"/>
       <use xlink:href="#STIXGeneral-Regular-38" x="74.999969"/>
      </g>
     </g>
    </g>
    <g id="ytick_6">
     <g id="line2d_23">
      <path d="M 56.9 40.552125 
L 503.3 40.552125 
" clip-path="url(#pe155748fc4)" style="fill: none; stroke: #b0b0b0; stroke-width: 0.8; stroke-linecap: square"/>
     </g>
     <g id="line2d_24">
      <g>
       <use xlink:href="#mf0792e8010" x="56.9" y="40.552125" style="stroke: #000000; stroke-width: 0.8"/>
      </g>
     </g>
     <g id="text_14">
      <!-- 1.0 -->
      <g transform="translate(27.4 46.698844)scale(0.18 -0.18)">
       <use xlink:href="#STIXGeneral-Regular-31"/>
       <use xlink:href="#STIXGeneral-Regular-2e" x="49.999985"/>
       <use xlink:href="#STIXGeneral-Regular-30" x="74.999969"/>
      </g>
     </g>
    </g>
    <g id="text_15">
     <!-- Success Rate -->
     <g transform="translate(19.493438 213.7965)rotate(-90)scale(0.18 -0.18)">
      <defs>
       <path id="STIXGeneral-Regular-75" d="M 3072 320 
L 3072 230 
Q 2573 96 2195 -58 
L 2163 -38 
L 2163 486 
L 2150 486 
Q 1747 -64 1235 -64 
Q 870 -64 662 160 
Q 454 384 454 755 
L 454 2362 
Q 454 2598 371 2688 
Q 288 2778 58 2790 
L 58 2880 
L 992 2880 
L 992 813 
Q 992 595 1123 451 
Q 1254 307 1446 307 
Q 1760 307 1984 506 
Q 2067 582 2099 649 
Q 2131 717 2131 877 
L 2131 2355 
Q 2131 2605 2041 2678 
Q 1952 2752 1658 2771 
L 1658 2880 
L 2669 2880 
L 2669 685 
Q 2669 461 2742 390 
Q 2816 320 3034 320 
L 3072 320 
z
" transform="scale(0.015625)"/>
       <path id="STIXGeneral-Regular-63" d="M 2547 998 
L 2637 941 
Q 2362 403 2112 205 
Q 1786 -64 1376 -64 
Q 845 -64 502 336 
Q 160 736 160 1357 
Q 160 2170 698 2618 
Q 1094 2944 1562 2944 
Q 1965 2944 2256 2749 
Q 2547 2554 2547 2285 
Q 2547 2176 2457 2096 
Q 2368 2016 2246 2016 
Q 2022 2016 1939 2310 
L 1901 2451 
Q 1850 2630 1773 2694 
Q 1696 2758 1523 2758 
Q 1133 2758 893 2451 
Q 653 2144 653 1645 
Q 653 1094 928 745 
Q 1203 397 1645 397 
Q 1920 397 2118 528 
Q 2317 659 2547 998 
z
" transform="scale(0.015625)"/>
       <path id="STIXGeneral-Regular-52" d="M 4224 0 
L 3187 0 
L 1664 1971 
L 1306 1958 
L 1306 717 
Q 1306 352 1405 249 
Q 1504 147 1875 122 
L 1875 0 
L 109 0 
L 109 122 
Q 474 154 563 262 
Q 653 371 653 794 
L 653 3526 
Q 653 3885 563 3987 
Q 474 4090 109 4115 
L 109 4237 
L 1850 4237 
Q 2726 4237 3187 3859 
Q 3501 3603 3501 3091 
Q 3501 2221 2342 2042 
L 3622 422 
Q 3757 256 3878 198 
Q 4000 141 4224 122 
L 4224 0 
z
M 1306 3731 
L 1306 2195 
Q 1766 2202 1990 2246 
Q 2214 2291 2438 2413 
Q 2803 2618 2803 3142 
Q 2803 4000 1632 4000 
Q 1459 4000 1382 3945 
Q 1306 3891 1306 3731 
z
" transform="scale(0.015625)"/>
      </defs>
      <use xlink:href="#STIXGeneral-Regular-53"/>
      <use xlink:href="#STIXGeneral-Regular-75" x="55.599991"/>
      <use xlink:href="#STIXGeneral-Regular-63" x="105.599976"/>
      <use xlink:href="#STIXGeneral-Regular-63" x="149.999969"/>
      <use xlink:href="#STIXGeneral-Regular-65" x="194.399963"/>
      <use xlink:href="#STIXGeneral-Regular-73" x="238.799957"/>
      <use xlink:href="#STIXGeneral-Regular-73" x="277.699951"/>
      <use xlink:href="#STIXGeneral-Regular-20" x="316.599945"/>
      <use xlink:href="#STIXGeneral-Regular-52" x="341.59993"/>
      <use xlink:href="#STIXGeneral-Regular-61" x="408.299927"/>
      <use xlink:href="#STIXGeneral-Regular-74" x="452.699921"/>
      <use xlink:href="#STIXGeneral-Regular-65" x="480.499908"/>
     </g>
    </g>
   </g>
   <g id="line2d_25">
    <path d="M 77.190909 292.552125 
L 98.675401 292.552125 
L 99.471123 290.536125 
L 100.266845 291.342525 
L 101.062567 287.794365 
L 102.654011 287.613732 
L 103.449733 289.589089 
L 104.245455 286.742303 
L 105.041176 287.050232 
L 105.836898 285.218989 
L 106.63262 288.152244 
L 107.428342 289.912196 
L 108.224064 290.968168 
L 109.019786 291.601751 
L 109.815508 291.9819 
L 111.406952 292.346844 
L 113.794118 292.507784 
L 114.58984 282.44552 
L 115.385561 284.472162 
L 116.181283 287.704147 
L 116.977005 289.643338 
L 117.772727 290.806853 
L 118.568449 291.504962 
L 119.364171 291.923827 
L 120.955615 292.325938 
L 121.751337 292.416413 
L 122.547059 290.454698 
L 123.342781 291.293669 
L 124.138503 291.797051 
L 124.934225 292.099081 
L 125.729947 292.280298 
L 126.525668 290.373029 
L 127.32139 291.244667 
L 128.117112 291.76765 
L 128.912834 292.08144 
L 130.504278 292.382679 
L 132.095722 292.491124 
L 132.891444 290.499525 
L 133.687166 291.320565 
L 134.482888 291.813189 
L 135.27861 292.108763 
L 136.074332 288.254108 
L 136.870053 289.973315 
L 137.665775 291.004839 
L 138.461497 291.623753 
L 139.257219 291.995102 
L 140.052941 290.201911 
L 140.848663 289.125997 
L 141.644385 290.496448 
L 142.440107 291.318719 
L 143.235829 289.796081 
L 144.031551 290.898499 
L 144.827273 291.559949 
L 145.622995 291.95682 
L 146.418717 290.178942 
L 147.214439 291.128215 
L 148.01016 291.697779 
L 148.805882 290.023517 
L 149.601604 289.018961 
L 150.397326 290.432226 
L 151.193048 291.280186 
L 151.98877 289.772962 
L 152.784492 290.884627 
L 153.580214 289.535626 
L 154.375936 288.726226 
L 155.171658 290.256585 
L 155.96738 291.174801 
L 156.763102 291.725731 
L 157.558824 292.056288 
L 159.150267 292.373624 
L 159.945989 292.445024 
L 160.741711 288.455865 
L 161.537433 288.078369 
L 162.333155 287.851871 
L 163.128877 289.731973 
L 163.924599 290.860034 
L 164.720321 291.53687 
L 165.516043 291.942972 
L 167.107487 292.33283 
L 167.903209 290.404548 
L 168.69893 289.247579 
L 169.494652 286.537397 
L 170.290374 288.943288 
L 171.086096 290.386823 
L 171.881818 291.252944 
L 172.67754 285.724616 
L 173.473262 288.45562 
L 174.268984 288.078222 
L 175.064706 287.851783 
L 175.860428 289.73192 
L 176.65615 290.860002 
L 177.451872 289.520851 
L 178.247594 290.733361 
L 179.043316 289.444866 
L 179.839037 288.67177 
L 180.634759 290.223912 
L 181.430481 289.139197 
L 182.226203 290.504368 
L 183.021925 291.323471 
L 183.817647 291.814933 
L 185.409091 292.286736 
L 186.204813 292.392891 
L 187.000535 290.440585 
L 187.796257 289.269201 
L 188.591979 290.582371 
L 189.387701 291.370272 
L 190.183422 291.843013 
L 191.774866 292.296845 
L 194.162032 292.496984 
L 199.732086 292.550581 
L 200.527807 290.535199 
L 201.323529 291.341969 
L 202.119251 291.826032 
L 202.914973 292.116469 
L 203.710695 290.274731 
L 204.506417 291.185689 
L 205.302139 291.732263 
L 206.097861 290.044208 
L 206.893583 291.047375 
L 207.689305 291.649275 
L 208.485027 287.978415 
L 209.280749 285.775899 
L 210.076471 288.486389 
L 210.872193 286.080684 
L 211.667914 288.66926 
L 212.463636 290.222406 
L 213.259358 291.154294 
L 214.05508 291.713426 
L 214.850802 292.048906 
L 216.442246 292.370966 
L 217.237968 288.41143 
L 218.03369 286.035708 
L 218.829412 288.642275 
L 219.625134 290.206215 
L 220.420856 291.144579 
L 221.216578 291.707597 
L 222.012299 292.045408 
L 223.603743 292.369707 
L 225.990909 292.512723 
L 233.152406 292.551728 
L 234.74385 292.551982 
L 235.539572 290.536039 
L 236.335294 291.342474 
L 237.131016 291.826334 
L 238.72246 292.29084 
L 241.109626 292.495688 
L 246.679679 292.550545 
L 249.066845 292.551784 
L 249.862567 290.53592 
L 250.658289 291.342402 
L 251.454011 291.826291 
L 253.045455 292.290825 
L 255.43262 292.495684 
L 257.819786 292.539934 
L 258.615508 286.49681 
L 259.41123 288.918936 
L 260.206952 290.372212 
L 261.002674 289.228177 
L 261.798396 290.557756 
L 262.594118 291.355504 
L 263.38984 291.834152 
L 264.981283 292.293655 
L 267.368449 292.496295 
L 272.938503 292.550562 
L 279.304278 292.552099 
L 280.1 290.536109 
L 280.895722 291.342516 
L 281.691444 285.778359 
L 282.487166 288.487866 
L 283.282888 290.113569 
L 284.07861 289.072992 
L 284.874332 290.464645 
L 285.670053 291.299637 
L 286.465775 289.784632 
L 287.261497 286.859629 
L 288.057219 285.104628 
L 288.852941 286.067627 
L 289.648663 284.629426 
L 290.444385 285.782506 
L 291.240107 288.490353 
L 292.035829 286.083062 
L 292.831551 284.638687 
L 293.627273 285.788062 
L 294.422995 286.477688 
L 295.218717 288.907463 
L 296.014439 290.365328 
L 296.81016 291.240047 
L 297.605882 291.764878 
L 298.401604 292.079777 
L 299.197326 290.252716 
L 299.993048 287.14048 
L 301.584492 287.378333 
L 302.380214 285.41585 
L 303.175936 284.23836 
L 303.971658 287.563866 
L 304.76738 289.55917 
L 305.563102 290.756352 
L 306.358824 291.474661 
L 307.154545 289.889647 
L 307.950267 290.954638 
L 308.745989 291.593633 
L 309.541711 291.97703 
L 310.337433 290.191068 
L 311.133155 287.103491 
L 311.928877 289.282944 
L 312.724599 286.558617 
L 313.520321 280.89202 
L 314.316043 285.556062 
L 315.111765 288.354487 
L 315.907487 288.017542 
L 316.703209 287.815375 
L 317.49893 289.710075 
L 318.294652 288.830895 
L 319.090374 288.303387 
L 319.886096 290.002882 
L 320.681818 291.022579 
L 321.47754 289.618398 
L 322.273262 288.775889 
L 323.068984 286.254383 
L 323.864706 286.75748 
L 324.660428 287.059338 
L 325.45615 289.256453 
L 326.251872 288.558722 
L 327.047594 290.156083 
L 327.843316 289.0985 
L 328.639037 288.46395 
L 329.434759 286.06722 
L 330.230481 284.629182 
L 331.026203 285.782359 
L 331.821925 288.490266 
L 332.617647 276.003009 
L 333.413369 276.574656 
L 334.209091 274.901644 
L 335.004813 271.881836 
L 335.800535 276.117952 
L 336.596257 274.627621 
L 337.391979 275.749423 
L 338.187701 276.422504 
L 338.983422 270.778353 
L 339.779144 279.487862 
L 340.574866 280.681567 
L 341.370588 283.41379 
L 342.16631 287.069124 
L 342.962032 289.262324 
L 343.757754 290.578245 
L 344.553476 289.351797 
L 345.349198 290.631928 
L 346.14492 291.400007 
L 346.940642 287.828854 
L 347.736364 285.686163 
L 348.532086 284.400548 
L 349.327807 283.629179 
L 350.123529 283.166357 
L 350.919251 282.888664 
L 351.714973 286.754049 
L 352.510695 289.073279 
L 353.306417 276.352817 
L 354.102139 276.784541 
L 354.897861 279.059574 
L 355.693583 278.408595 
L 356.489305 284.066007 
L 357.285027 285.444454 
L 358.080749 286.271523 
L 358.876471 286.767764 
L 359.672193 289.081508 
L 360.467914 288.453755 
L 361.263636 290.093103 
L 362.059358 291.076712 
L 362.85508 289.650877 
L 363.650802 290.811376 
L 364.446524 291.507676 
L 365.242246 291.925455 
L 366.037968 292.176123 
L 366.83369 290.310524 
L 367.629412 291.207164 
L 368.425134 287.713149 
L 369.220856 289.648739 
L 370.016578 286.778094 
L 370.812299 289.087706 
L 371.608021 290.473474 
L 372.403743 291.304934 
L 373.199465 291.803811 
L 373.995187 286.055136 
L 374.790909 288.653932 
L 375.586631 290.213209 
L 376.382353 291.148775 
L 377.178075 291.710115 
L 377.973797 292.046919 
L 379.565241 292.370251 
L 381.952406 292.51284 
L 389.113904 292.551729 
L 401.845455 292.552125 
L 402.641176 288.520125 
L 403.436898 290.132925 
L 404.23262 291.100605 
L 405.028342 291.681213 
L 405.824064 292.029578 
L 407.415508 292.364008 
L 409.802674 292.511492 
L 416.964171 292.551716 
L 451.180214 292.552125 
L 451.975936 290.536125 
L 452.771658 291.342525 
L 453.56738 291.826365 
L 455.158824 292.290851 
L 457.545989 292.49569 
L 463.116043 292.550545 
L 476.643316 292.552125 
L 477.439037 290.536125 
L 478.234759 291.342525 
L 479.030481 289.810365 
L 479.826203 290.907069 
L 480.621925 291.565091 
L 481.417647 291.959905 
L 483.009091 292.338926 
L 483.009091 292.338926 
" clip-path="url(#pe155748fc4)" style="fill: none; stroke: #1f77b4; stroke-width: 1.5; stroke-linecap: square"/>
   </g>
   <g id="line2d_26">
    <path d="M 77.190909 292.552125 
L 79.578075 292.552125 
L 80.373797 248.200125 
L 81.169519 193.364922 
L 81.965241 186.671803 
L 82.760963 202.815932 
L 83.556684 202.422408 
L 84.352406 188.074295 
L 85.148128 151.24143 
L 85.94385 153.333706 
L 86.739572 170.717074 
L 87.535294 165.019092 
L 88.331016 151.520307 
L 89.126738 143.421035 
L 89.92246 154.689472 
L 90.718182 199.754533 
L 91.513904 230.82557 
L 92.309626 247.452192 
L 93.105348 255.412165 
L 93.90107 262.204149 
L 94.696791 260.23134 
L 95.492513 267.111654 
L 96.288235 265.191843 
L 97.879679 278.267223 
L 98.675401 279.949184 
L 99.471123 278.942361 
L 100.266845 284.386266 
L 101.062567 287.65261 
L 101.858289 281.548416 
L 102.654011 269.8219 
L 103.449733 266.81799 
L 104.245455 262.999644 
L 105.041176 252.644637 
L 105.836898 224.255632 
L 106.63262 215.286228 
L 107.428342 201.840587 
L 108.224064 185.709204 
L 109.019786 204.254373 
L 109.815508 195.221474 
L 110.61123 203.913733 
L 111.406952 203.081088 
L 112.202674 198.549502 
L 112.998396 218.006551 
L 114.58984 237.491718 
L 115.385561 231.291881 
L 116.181283 233.619979 
L 116.977005 210.824836 
L 117.772727 203.195751 
L 118.568449 190.554302 
L 119.364171 182.969432 
L 120.159893 144.14651 
L 120.955615 130.932753 
L 121.751337 100.828502 
L 123.342781 80.798822 
L 124.138503 86.876146 
L 124.934225 78.42654 
L 125.729947 93.516775 
L 126.525668 92.490914 
L 127.32139 136.227397 
L 128.117112 154.405288 
L 128.912834 167.328024 
L 129.708556 165.001667 
L 130.504278 195.86185 
L 131.3 184.13796 
L 132.095722 175.087628 
L 132.891444 171.673427 
L 133.687166 173.656905 
L 134.482888 170.814993 
L 135.27861 161.045848 
L 136.074332 165.26436 
L 136.870053 163.763468 
L 137.665775 160.846928 
L 138.461497 144.985006 
L 140.052941 87.421561 
L 140.848663 72.705789 
L 141.644385 67.908321 
L 142.440107 73.093846 
L 143.235829 72.173158 
L 144.031551 59.524745 
L 144.827273 51.935697 
L 145.622995 47.382268 
L 146.418717 54.730213 
L 147.214439 59.13898 
L 148.01016 61.784241 
L 148.805882 61.355393 
L 149.601604 65.130086 
L 150.397326 63.3629 
L 151.193048 76.414593 
L 151.98877 84.245609 
L 153.580214 61.926577 
L 155.171658 49.456527 
L 155.96738 45.894766 
L 156.763102 43.75771 
L 157.558824 42.475476 
L 158.354545 41.706135 
L 159.150267 43.260529 
L 159.945989 44.193166 
L 160.741711 42.736749 
L 161.537433 41.8629 
L 162.333155 41.33859 
L 163.128877 45.056006 
L 163.924599 43.254454 
L 164.720321 44.18952 
L 165.516043 56.846561 
L 167.107487 47.627721 
L 167.903209 44.797482 
L 168.69893 43.099339 
L 169.494652 42.080454 
L 170.290374 47.517122 
L 171.086096 56.827124 
L 171.881818 64.429123 
L 172.67754 81.086323 
L 173.473262 85.032642 
L 174.268984 67.240435 
L 175.860428 54.595116 
L 176.65615 50.993918 
L 177.451872 56.897203 
L 178.247594 66.487174 
L 179.043316 72.241157 
L 179.839037 65.613545 
L 180.634759 77.76498 
L 181.430481 72.95984 
L 182.226203 62.012752 
L 183.021925 63.508504 
L 184.613369 53.251621 
L 185.409091 50.187821 
L 186.204813 46.333542 
L 187.000535 44.020975 
L 187.796257 42.633435 
L 188.591979 43.816909 
L 189.387701 42.510996 
L 190.183422 41.727447 
L 190.979144 41.257318 
L 192.570588 40.805995 
L 193.36631 42.720445 
L 194.162032 41.853117 
L 194.957754 51.412723 
L 195.753476 59.164484 
L 196.549198 51.71954 
L 197.34492 47.252574 
L 198.140642 48.604397 
L 198.936364 45.383488 
L 199.732086 43.450943 
L 200.527807 44.307414 
L 201.323529 48.853299 
L 202.914973 137.082947 
L 203.710695 173.062619 
L 204.506417 174.490421 
L 205.302139 161.2351 
L 206.097861 143.201911 
L 206.893583 152.541997 
L 207.689305 115.810046 
L 209.280749 74.499374 
L 210.076471 60.920474 
L 210.872193 52.773135 
L 211.667914 49.900729 
L 212.463636 46.161287 
L 213.259358 47.949625 
L 214.05508 57.086625 
L 214.850802 50.472825 
L 215.646524 48.520543 
L 216.442246 45.333176 
L 217.237968 45.436754 
L 218.03369 43.482902 
L 218.829412 44.326589 
L 219.625134 54.912804 
L 220.420856 57.232531 
L 221.216578 78.784366 
L 222.012299 123.971469 
L 222.808021 151.083731 
L 223.603743 183.479089 
L 224.399465 206.948303 
L 225.195187 221.029832 
L 225.990909 207.30275 
L 226.786631 176.890502 
L 227.582353 160.65915 
L 228.378075 120.680339 
L 229.173797 108.789052 
L 229.969519 99.638282 
L 230.765241 110.275816 
L 231.560963 88.43434 
L 232.356684 85.409457 
L 233.152406 79.562525 
L 233.948128 78.070363 
L 234.74385 67.09507 
L 235.539572 60.509894 
L 236.335294 58.574787 
L 237.131016 53.38172 
L 237.926738 52.281884 
L 238.72246 47.589981 
L 239.518182 46.790836 
L 240.313904 44.295352 
L 241.109626 42.798061 
L 241.905348 41.899687 
L 242.70107 41.360662 
L 243.496791 43.053245 
L 244.292513 42.052797 
L 245.088235 43.468526 
L 245.883957 42.301966 
L 246.679679 41.602029 
L 247.475401 45.21407 
L 248.271123 47.381294 
L 249.066845 44.649626 
L 249.862567 43.010626 
L 250.658289 42.027226 
L 251.454011 41.437185 
L 252.249733 41.083161 
L 253.841176 40.743298 
L 256.228342 40.593418 
L 263.38984 40.552541 
L 483.009091 40.552125 
L 483.009091 40.552125 
" clip-path="url(#pe155748fc4)" style="fill: none; stroke: #ff7f0e; stroke-width: 1.5; stroke-linecap: square"/>
   </g>
   <g id="line2d_27">
    <path d="M 77.190909 292.552125 
L 483.009091 292.552125 
L 483.009091 292.552125 
" clip-path="url(#pe155748fc4)" style="fill: none; stroke: #2ca02c; stroke-width: 1.5; stroke-linecap: square"/>
   </g>
   <g id="line2d_28">
    <path d="M 77.190909 292.552125 
L 77.986631 292.552125 
L 78.782353 288.520125 
L 79.578075 286.100925 
L 80.373797 284.649405 
L 81.169519 279.746493 
L 81.965241 280.836746 
L 82.760963 273.426898 
L 83.556684 281.076989 
L 84.352406 283.651043 
L 85.148128 283.179476 
L 85.94385 278.864536 
L 86.739572 282.323572 
L 87.535294 284.398993 
L 88.331016 283.628246 
L 89.126738 273.085797 
L 90.718182 264.174647 
L 91.513904 265.445638 
L 92.309626 258.144232 
L 93.105348 259.81139 
L 93.90107 248.715684 
L 94.696791 252.138261 
L 97.083957 252.211851 
L 97.879679 256.251961 
L 98.675401 256.660026 
L 99.471123 260.936866 
L 100.266845 243.342968 
L 101.062567 250.930631 
L 101.858289 251.451229 
L 102.654011 257.811587 
L 103.449733 259.611803 
L 104.245455 258.675932 
L 105.041176 258.114409 
L 105.836898 257.777495 
L 106.63262 257.575347 
L 107.428342 255.438059 
L 108.224064 248.107685 
L 109.019786 245.725461 
L 109.815508 258.408127 
L 110.61123 255.937726 
L 111.406952 268.567486 
L 112.202674 260.017341 
L 112.998396 271.015255 
L 113.794118 259.470002 
L 114.58984 256.574852 
L 115.385561 250.805761 
L 116.977005 236.800235 
L 117.772727 244.988991 
L 118.568449 241.838245 
L 119.364171 239.947797 
L 120.159893 238.813528 
L 120.955615 230.068966 
L 121.751337 232.88623 
L 122.547059 236.592587 
L 123.342781 244.864402 
L 124.138503 239.747492 
L 124.934225 238.693345 
L 125.729947 250.156857 
L 126.525668 253.002964 
L 127.32139 238.582627 
L 128.912834 254.575906 
L 129.708556 255.654393 
L 130.504278 242.189486 
L 131.3 240.158542 
L 132.095722 242.971974 
L 132.891444 250.708035 
L 133.687166 249.30167 
L 134.482888 248.457851 
L 135.27861 243.919561 
L 136.074332 249.260587 
L 137.665775 236.243972 
L 138.461497 246.671234 
L 139.257219 236.79959 
L 140.052941 228.860603 
L 140.848663 232.161212 
L 141.644385 236.157577 
L 142.440107 226.459397 
L 143.235829 222.656487 
L 144.031551 222.390742 
L 144.827273 224.247296 
L 145.622995 227.377228 
L 146.418717 221.191188 
L 147.214439 213.447561 
L 148.01016 222.913387 
L 148.805882 214.480881 
L 149.601604 211.437378 
L 150.397326 223.723277 
L 151.193048 229.078816 
L 151.98877 226.244139 
L 152.784492 232.607333 
L 153.580214 240.45725 
L 154.375936 237.103201 
L 155.171658 231.05877 
L 155.96738 227.432112 
L 156.763102 219.208117 
L 157.558824 218.305719 
L 158.354545 217.76428 
L 159.150267 227.519418 
L 159.945989 233.3725 
L 160.741711 218.740351 
L 161.537433 220.04106 
L 162.333155 224.853487 
L 163.128877 215.644941 
L 163.924599 222.215815 
L 164.720321 212.046339 
L 165.516043 222.072654 
L 166.311765 228.088442 
L 167.107487 219.601915 
L 167.903209 212.493998 
L 168.69893 222.341249 
L 169.494652 228.249599 
L 170.290374 231.79461 
L 171.086096 244.001616 
L 171.881818 235.19782 
L 172.67754 223.867541 
L 173.473262 215.053373 
L 174.268984 215.812873 
L 175.064706 224.332574 
L 175.860428 213.316395 
L 176.65615 216.786687 
L 177.451872 214.836863 
L 178.247594 217.698968 
L 179.043316 211.352229 
L 180.634759 223.403364 
L 181.430481 226.870869 
L 182.226203 228.951372 
L 183.021925 226.167673 
L 183.817647 230.545454 
L 185.409091 219.829723 
L 186.204813 228.758684 
L 187.000535 232.10006 
L 187.796257 234.104886 
L 188.591979 237.323782 
L 189.387701 231.191119 
L 190.183422 231.543522 
L 190.979144 225.706962 
L 191.774866 230.269027 
L 192.570588 237.038266 
L 193.36631 237.067809 
L 194.162032 235.069536 
L 194.957754 241.934572 
L 195.753476 225.893592 
L 196.549198 224.333005 
L 197.34492 229.444653 
L 198.140642 232.511642 
L 198.936364 234.351835 
L 199.732086 227.39195 
L 200.527807 231.28002 
L 201.323529 231.596863 
L 202.119251 231.786968 
L 202.914973 223.837032 
L 203.710695 225.11507 
L 204.506417 227.897892 
L 205.302139 231.583586 
L 206.097861 241.859001 
L 206.893583 254.072251 
L 207.689305 251.3202 
L 208.485027 247.65297 
L 209.280749 259.564632 
L 210.076471 260.663629 
L 210.872193 263.339027 
L 211.667914 268.976267 
L 212.463636 272.35861 
L 213.259358 260.276016 
L 214.05508 269.15446 
L 214.850802 270.449526 
L 215.646524 269.210565 
L 216.442246 272.499189 
L 217.237968 278.504364 
L 218.03369 270.011468 
L 218.829412 264.915731 
L 219.625134 269.922289 
L 220.420856 264.862223 
L 221.216578 267.874184 
L 222.012299 267.66536 
L 222.808021 265.524066 
L 223.603743 266.25529 
L 224.399465 268.710024 
L 225.195187 268.166864 
L 225.990909 267.840968 
L 226.786631 265.629431 
L 227.582353 260.270509 
L 229.173797 273.269943 
L 229.969519 270.902816 
L 230.765241 243.274538 
L 231.560963 246.857573 
L 232.356684 249.007394 
L 233.152406 254.329287 
L 233.948128 245.426423 
L 234.74385 260.244704 
L 235.539572 255.023671 
L 236.335294 253.907053 
L 237.926738 264.527899 
L 238.72246 263.64159 
L 239.518182 269.157804 
L 240.313904 266.419533 
L 241.109626 260.74457 
L 241.905348 257.339592 
L 242.70107 263.360606 
L 243.496791 264.957213 
L 244.292513 259.867178 
L 245.088235 260.845157 
L 245.883957 257.399945 
L 246.679679 255.332817 
L 247.475401 264.17254 
L 248.271123 257.380374 
L 249.066845 259.353074 
L 249.862567 252.472694 
L 250.658289 258.424466 
L 251.454011 255.94753 
L 252.249733 252.445367 
L 253.045455 262.440071 
L 253.841176 268.436892 
L 254.636898 272.034986 
L 255.43262 274.193842 
L 256.228342 269.441155 
L 257.024064 266.589543 
L 257.819786 268.910576 
L 258.615508 278.367196 
L 259.41123 280.009168 
L 260.206952 278.978351 
L 261.002674 278.359861 
L 261.798396 282.020766 
L 262.594118 280.18531 
L 263.38984 283.116036 
L 264.981283 282.703933 
L 265.777005 274.54721 
L 266.572727 267.637176 
L 267.368449 263.491156 
L 268.164171 248.907544 
L 268.959893 248.221376 
L 269.755615 249.825676 
L 270.551337 246.756255 
L 272.142781 273.646412 
L 273.734225 284.536468 
L 274.529947 285.726731 
L 275.325668 286.440889 
L 276.12139 282.837383 
L 277.712834 282.603618 
L 278.508556 282.551021 
L 279.304278 284.535463 
L 280.1 283.710128 
L 280.895722 279.182927 
L 281.691444 266.386605 
L 282.487166 268.788813 
L 283.282888 274.262138 
L 284.07861 277.546133 
L 284.874332 275.48453 
L 285.670053 278.279568 
L 286.465775 275.924591 
L 287.261497 276.527605 
L 288.057219 280.921413 
L 288.852941 273.477698 
L 289.648663 277.075469 
L 290.444385 277.218131 
L 291.240107 279.319729 
L 292.035829 278.564688 
L 292.831551 276.095663 
L 293.627273 272.598247 
L 294.422995 270.499798 
L 295.218717 259.160729 
L 296.014439 264.453287 
L 296.81016 265.612822 
L 297.605882 274.372543 
L 298.401604 273.580376 
L 299.197326 277.137076 
L 300.78877 285.793107 
L 301.584492 288.496714 
L 302.380214 290.118879 
L 303.175936 289.076177 
L 303.971658 290.466556 
L 304.76738 291.300784 
L 305.563102 289.78532 
L 306.358824 286.860042 
L 307.154545 285.104875 
L 307.950267 286.067775 
L 308.745989 288.661515 
L 309.541711 290.217759 
L 310.337433 287.119506 
L 311.133155 281.228554 
L 311.928877 267.613981 
L 312.724599 269.525239 
L 313.520321 274.703993 
L 314.316043 267.731246 
L 315.111765 269.595598 
L 315.907487 278.778209 
L 316.703209 282.271775 
L 317.49893 284.367915 
L 318.294652 287.641599 
L 319.090374 289.605809 
L 319.886096 288.768336 
L 320.681818 288.265851 
L 321.47754 289.980361 
L 322.273262 288.993067 
L 323.068984 288.40069 
L 323.864706 288.045264 
L 324.660428 285.816009 
L 325.45615 288.510455 
L 326.251872 290.127123 
L 327.047594 289.081124 
L 327.843316 290.469524 
L 328.639037 287.270565 
L 329.434759 285.351189 
L 330.230481 288.231563 
L 331.026203 289.959788 
L 331.821925 288.980723 
L 332.617647 282.345284 
L 333.413369 284.41202 
L 334.209091 287.668062 
L 335.004813 289.621687 
L 335.800535 290.793862 
L 336.596257 287.465168 
L 337.391979 289.499951 
L 338.187701 290.72082 
L 338.983422 289.437342 
L 339.779144 284.635255 
L 340.574866 287.802003 
L 341.370588 289.702052 
L 342.16631 290.842081 
L 342.962032 291.526099 
L 343.757754 291.936509 
L 345.349198 283.863304 
L 346.14492 283.306832 
L 346.940642 284.988949 
L 347.736364 288.01422 
L 348.532086 289.829382 
L 349.327807 288.902479 
L 350.123529 290.362337 
L 350.919251 287.206253 
L 352.510695 278.934811 
L 353.306417 266.237736 
L 354.102139 266.683491 
L 354.897861 268.966945 
L 355.693583 268.321017 
L 356.489305 273.98146 
L 357.285027 275.361726 
L 358.080749 278.205886 
L 358.876471 279.912382 
L 359.672193 276.904279 
L 360.467914 277.115418 
L 361.263636 281.274101 
L 362.059358 281.75331 
L 362.85508 280.024836 
L 363.650802 285.035752 
L 364.446524 286.026301 
L 365.242246 286.620631 
L 366.037968 282.945229 
L 366.83369 276.707987 
L 367.629412 268.933642 
L 368.425134 274.349035 
L 369.220856 269.534271 
L 370.016578 274.709413 
L 370.812299 277.814498 
L 371.608021 283.709549 
L 372.403743 285.230579 
L 373.199465 280.095198 
L 373.995187 285.077969 
L 374.790909 288.067631 
L 376.382353 287.712107 
L 377.178075 285.616114 
L 377.973797 288.390519 
L 378.769519 288.039161 
L 379.565241 289.844347 
L 380.360963 290.927458 
L 381.156684 291.577325 
L 381.952406 291.967245 
L 382.748128 292.201197 
L 383.54385 290.325568 
L 384.339572 291.216191 
L 385.135294 287.718565 
L 385.931016 289.651989 
L 386.726738 284.764043 
L 387.52246 287.879276 
L 389.113904 279.1771 
L 389.909626 280.49511 
L 390.705348 275.237916 
L 391.50107 272.083599 
L 392.296791 270.191009 
L 394.683957 285.061004 
L 395.479679 279.993453 
L 396.275401 285.016922 
L 397.071123 283.999003 
L 397.866845 285.404252 
L 398.662567 282.215401 
L 399.458289 286.350091 
L 400.254011 288.830904 
L 401.049733 288.303393 
L 401.845455 287.986886 
L 402.641176 289.812981 
L 403.436898 288.892639 
L 404.23262 290.356433 
L 405.028342 291.23471 
L 405.824064 291.761676 
L 406.619786 290.061856 
L 407.415508 287.025963 
L 408.21123 283.188428 
L 409.006952 284.917907 
L 409.802674 275.875594 
L 410.598396 264.402206 
L 411.394118 271.630174 
L 412.18984 275.966954 
L 412.985561 278.569023 
L 413.781283 280.130264 
L 414.577005 270.987008 
L 415.372727 273.565055 
L 416.168449 277.127883 
L 416.964171 283.29758 
L 417.759893 284.983398 
L 419.351337 274.908983 
L 420.147059 275.91824 
L 420.942781 280.555794 
L 421.738503 283.338326 
L 422.534225 285.007846 
L 423.329947 286.009558 
L 424.92139 275.278401 
L 425.717112 282.18789 
L 426.512834 278.269584 
L 427.308556 281.966601 
L 428.104278 284.18481 
L 428.9 285.515736 
L 429.695722 288.330292 
L 430.491444 290.019025 
L 431.287166 291.032265 
L 432.082888 289.624209 
L 432.87861 270.635375 
L 433.674332 263.274075 
L 434.470053 262.889296 
L 435.265775 270.722427 
L 436.061497 275.422307 
L 436.857219 282.274234 
L 437.652941 284.36939 
L 438.448663 287.642484 
L 439.244385 287.590341 
L 440.040107 289.575054 
L 440.835829 290.765883 
L 441.631551 291.48038 
L 442.427273 291.909078 
L 444.018717 292.320628 
L 446.405882 292.502122 
L 447.201604 292.522123 
L 447.997326 290.518124 
L 448.793048 291.331724 
L 449.58877 287.787885 
L 450.384492 287.677581 
L 451.180214 289.627399 
L 451.975936 288.781289 
L 452.771658 290.289623 
L 453.56738 291.194624 
L 454.363102 287.705625 
L 455.158824 289.644225 
L 455.954545 290.807385 
L 456.750267 291.505281 
L 457.545989 291.924019 
L 458.341711 288.143261 
L 459.137433 287.890807 
L 459.933155 285.723334 
L 460.728877 288.45485 
L 461.524599 290.09376 
L 462.320321 291.077106 
L 463.116043 289.651114 
L 463.911765 286.779518 
L 464.707487 287.072561 
L 465.503209 289.264387 
L 466.29893 290.579482 
L 467.094652 291.368539 
L 467.890374 291.841974 
L 469.481818 292.29647 
L 470.27754 286.350732 
L 471.073262 286.815289 
L 471.868984 289.110024 
L 472.664706 290.486864 
L 473.460428 291.312969 
L 474.25615 291.808631 
L 475.051872 282.026029 
L 475.847594 284.220467 
L 476.643316 287.55313 
L 477.439037 289.552728 
L 478.234759 284.704487 
L 479.030481 285.827542 
L 479.826203 286.501375 
L 480.621925 286.905675 
L 481.417647 285.132255 
L 482.213369 288.100203 
L 483.009091 289.880972 
L 483.009091 289.880972 
" clip-path="url(#pe155748fc4)" style="fill: none; stroke: #d62728; stroke-width: 1.5; stroke-linecap: square"/>
   </g>
   <g id="line2d_29">
    <path d="M 77.190909 292.552125 
L 259.41123 292.552125 
L 260.206952 290.536125 
L 261.002674 291.342525 
L 261.798396 291.826365 
L 263.38984 292.290851 
L 264.185561 290.379361 
L 264.981283 291.248467 
L 265.777005 291.76993 
L 266.572727 290.066808 
L 267.368449 287.028935 
L 268.164171 287.222211 
L 268.959893 289.354177 
L 269.755615 290.633356 
L 270.551337 291.400864 
L 271.347059 291.861368 
L 272.142781 292.137671 
L 272.938503 290.287453 
L 273.734225 289.177322 
L 274.529947 288.511243 
L 275.325668 290.127596 
L 276.12139 291.097407 
L 276.917112 291.679294 
L 277.712834 292.028427 
L 278.508556 290.221906 
L 279.304278 291.153994 
L 280.1 291.713246 
L 280.895722 292.048798 
L 282.487166 292.370927 
L 284.874332 292.512986 
L 292.035829 292.551731 
L 483.009091 292.552125 
L 483.009091 292.552125 
" clip-path="url(#pe155748fc4)" style="fill: none; stroke: #9467bd; stroke-width: 1.5; stroke-linecap: square"/>
   </g>
   <g id="patch_3">
    <path d="M 56.9 305.152125 
L 56.9 27.952125 
" style="fill: none; stroke: #000000; stroke-width: 0.8; stroke-linejoin: miter; stroke-linecap: square"/>
   </g>
   <g id="patch_4">
    <path d="M 503.3 305.152125 
L 503.3 27.952125 
" style="fill: none; stroke: #000000; stroke-width: 0.8; stroke-linejoin: miter; stroke-linecap: square"/>
   </g>
   <g id="patch_5">
    <path d="M 56.9 305.152125 
L 503.3 305.152125 
" style="fill: none; stroke: #000000; stroke-width: 0.8; stroke-linejoin: miter; stroke-linecap: square"/>
   </g>
   <g id="patch_6">
    <path d="M 56.9 27.952125 
L 503.3 27.952125 
" style="fill: none; stroke: #000000; stroke-width: 0.8; stroke-linejoin: miter; stroke-linecap: square"/>
   </g>
   <g id="text_16">
    <!-- ML10 Meta Testing -->
    <g transform="translate(193.104313 21.952125)scale(0.216 -0.216)">
     <defs>
      <path id="STIXGeneral-Regular-4d" d="M 5530 0 
L 3738 0 
L 3738 122 
Q 4115 147 4214 265 
Q 4314 384 4314 787 
L 4314 3661 
L 2682 0 
L 2592 0 
L 979 3514 
L 979 966 
Q 979 448 1088 294 
Q 1197 141 1574 122 
L 1574 0 
L 77 0 
L 77 122 
Q 358 141 480 205 
Q 602 269 650 432 
Q 698 595 698 966 
L 698 3514 
Q 698 3878 589 3984 
Q 480 4090 90 4115 
L 90 4237 
L 1357 4237 
L 2835 1024 
L 4250 4237 
L 5523 4237 
L 5523 4115 
Q 5178 4109 5072 3993 
Q 4966 3878 4966 3520 
L 4966 717 
Q 4966 378 5072 262 
Q 5178 147 5530 122 
L 5530 0 
z
" transform="scale(0.015625)"/>
      <path id="STIXGeneral-Regular-4c" d="M 3827 1114 
L 3520 0 
L 77 0 
L 77 122 
Q 429 141 531 256 
Q 634 371 634 736 
L 634 3494 
Q 634 3872 541 3981 
Q 448 4090 77 4115 
L 77 4237 
L 1888 4237 
L 1888 4115 
Q 1498 4090 1392 3984 
Q 1286 3878 1286 3507 
L 1286 538 
Q 1286 358 1398 304 
Q 1510 250 1862 250 
L 2310 250 
Q 3085 250 3392 640 
Q 3520 813 3661 1114 
L 3827 1114 
z
" transform="scale(0.015625)"/>
     </defs>
     <use xlink:href="#STIXGeneral-Regular-4d"/>
     <use xlink:href="#STIXGeneral-Regular-4c" x="88.899994"/>
     <use xlink:href="#STIXGeneral-Regular-31" x="149.999985"/>
     <use xlink:href="#STIXGeneral-Regular-30" x="199.999969"/>
     <use xlink:href="#STIXGeneral-Regular-20" x="249.999954"/>
     <use xlink:href="#STIXGeneral-Regular-4d" x="274.999939"/>
     <use xlink:href="#STIXGeneral-Regular-65" x="363.899933"/>
     <use xlink:href="#STIXGeneral-Regular-74" x="408.299927"/>
     <use xlink:href="#STIXGeneral-Regular-61" x="436.099915"/>
     <use xlink:href="#STIXGeneral-Regular-20" x="480.499908"/>
     <use xlink:href="#STIXGeneral-Regular-54" x="505.499893"/>
     <use xlink:href="#STIXGeneral-Regular-65" x="566.599884"/>
     <use xlink:href="#STIXGeneral-Regular-73" x="610.999878"/>
     <use xlink:href="#STIXGeneral-Regular-74" x="649.899872"/>
     <use xlink:href="#STIXGeneral-Regular-69" x="677.69986"/>
     <use xlink:href="#STIXGeneral-Regular-6e" x="705.499847"/>
     <use xlink:href="#STIXGeneral-Regular-67" x="755.499832"/>
    </g>
   </g>
   <g id="legend_1">
    <g id="patch_7">
     <path d="M 387.294687 205.052125 
L 497.7 205.052125 
Q 500.5 205.052125 500.5 202.252125 
L 500.5 130.852125 
Q 500.5 128.052125 497.7 128.052125 
L 387.294687 128.052125 
Q 384.494687 128.052125 384.494687 130.852125 
L 384.494687 202.252125 
Q 384.494687 205.052125 387.294687 205.052125 
z
" style="fill: #ffffff; opacity: 0.8; stroke: #cccccc; stroke-linejoin: miter"/>
    </g>
    <g id="line2d_30">
     <path d="M 388.694687 137.963687 
L 395.694687 137.963687 
L 402.694687 137.963687 
" style="fill: none; stroke: #1f77b4; stroke-width: 1.5; stroke-linecap: square"/>
    </g>
    <g id="text_17">
     <!-- drawer-open-v2 -->
     <g transform="translate(406.894687 141.813687)scale(0.14 -0.14)">
      <defs>
       <path id="STIXGeneral-Regular-64" d="M 3142 269 
L 2202 -64 
L 2176 -45 
L 2176 365 
Q 1869 -64 1357 -64 
Q 826 -64 499 317 
Q 173 698 173 1312 
Q 173 1990 563 2467 
Q 954 2944 1504 2944 
Q 1850 2944 2176 2669 
L 2176 3667 
Q 2176 3866 2118 3930 
Q 2061 3994 1882 3994 
Q 1792 3994 1741 3987 
L 1741 4090 
Q 2323 4243 2682 4371 
L 2714 4358 
L 2714 730 
Q 2714 506 2768 435 
Q 2822 365 2995 365 
Q 3034 365 3142 371 
L 3142 269 
z
M 2176 653 
L 2176 2125 
Q 2176 2381 1981 2573 
Q 1786 2765 1523 2765 
Q 1158 2765 940 2438 
Q 723 2112 723 1568 
Q 723 979 963 624 
Q 1203 269 1606 269 
Q 1907 269 2080 474 
Q 2176 582 2176 653 
z
" transform="scale(0.015625)"/>
       <path id="STIXGeneral-Regular-77" d="M 4442 2880 
L 4442 2784 
Q 4346 2752 4301 2691 
Q 4256 2630 4179 2438 
L 3296 224 
Q 3168 -90 3117 -90 
Q 3085 -90 3062 -48 
Q 3040 -6 2963 186 
L 2381 1696 
L 1664 160 
Q 1549 -90 1504 -90 
Q 1446 -90 1338 192 
L 474 2381 
Q 378 2630 314 2700 
Q 250 2771 134 2784 
L 134 2880 
L 1286 2880 
L 1286 2784 
Q 1120 2765 1056 2720 
Q 992 2675 992 2573 
Q 992 2477 1030 2381 
L 1664 710 
L 2246 1984 
L 2118 2342 
Q 2029 2598 1942 2681 
Q 1856 2765 1677 2784 
L 1677 2880 
L 2976 2880 
L 2976 2784 
Q 2752 2752 2678 2707 
Q 2605 2662 2605 2560 
Q 2605 2458 2714 2176 
L 3251 742 
L 3827 2163 
Q 3936 2432 3936 2592 
Q 3936 2669 3875 2710 
Q 3814 2752 3654 2784 
L 3654 2880 
L 4442 2880 
z
" transform="scale(0.015625)"/>
       <path id="STIXGeneral-Regular-2d" d="M 1824 1242 
L 250 1242 
L 250 1645 
L 1824 1645 
L 1824 1242 
z
" transform="scale(0.015625)"/>
      </defs>
      <use xlink:href="#STIXGeneral-Regular-64"/>
      <use xlink:href="#STIXGeneral-Regular-72" x="49.999985"/>
      <use xlink:href="#STIXGeneral-Regular-61" x="83.299973"/>
      <use xlink:href="#STIXGeneral-Regular-77" x="127.699966"/>
      <use xlink:href="#STIXGeneral-Regular-65" x="199.899948"/>
      <use xlink:href="#STIXGeneral-Regular-72" x="244.299942"/>
      <use xlink:href="#STIXGeneral-Regular-2d" x="277.59993"/>
      <use xlink:href="#STIXGeneral-Regular-6f" x="310.899918"/>
      <use xlink:href="#STIXGeneral-Regular-70" x="360.899902"/>
      <use xlink:href="#STIXGeneral-Regular-65" x="410.899887"/>
      <use xlink:href="#STIXGeneral-Regular-6e" x="455.299881"/>
      <use xlink:href="#STIXGeneral-Regular-2d" x="505.299866"/>
      <use xlink:href="#STIXGeneral-Regular-76" x="538.599854"/>
      <use xlink:href="#STIXGeneral-Regular-32" x="588.599838"/>
     </g>
    </g>
    <g id="line2d_31">
     <path d="M 388.694687 151.963687 
L 395.694687 151.963687 
L 402.694687 151.963687 
" style="fill: none; stroke: #ff7f0e; stroke-width: 1.5; stroke-linecap: square"/>
    </g>
    <g id="text_18">
     <!-- door-close-v2 -->
     <g transform="translate(406.894687 155.813687)scale(0.14 -0.14)">
      <defs>
       <path id="STIXGeneral-Regular-6c" d="M 1645 0 
L 134 0 
L 134 96 
Q 435 122 531 221 
Q 627 320 627 589 
L 627 3590 
Q 627 3821 569 3910 
Q 512 4000 358 4000 
Q 224 4000 122 3987 
L 122 4090 
Q 730 4237 1133 4371 
L 1165 4346 
L 1165 557 
Q 1165 288 1254 201 
Q 1344 115 1645 96 
L 1645 0 
z
" transform="scale(0.015625)"/>
      </defs>
      <use xlink:href="#STIXGeneral-Regular-64"/>
      <use xlink:href="#STIXGeneral-Regular-6f" x="49.999985"/>
      <use xlink:href="#STIXGeneral-Regular-6f" x="99.999969"/>
      <use xlink:href="#STIXGeneral-Regular-72" x="149.999954"/>
      <use xlink:href="#STIXGeneral-Regular-2d" x="183.299942"/>
      <use xlink:href="#STIXGeneral-Regular-63" x="216.59993"/>
      <use xlink:href="#STIXGeneral-Regular-6c" x="260.999924"/>
      <use xlink:href="#STIXGeneral-Regular-6f" x="288.799911"/>
      <use xlink:href="#STIXGeneral-Regular-73" x="338.799896"/>
      <use xlink:href="#STIXGeneral-Regular-65" x="377.69989"/>
      <use xlink:href="#STIXGeneral-Regular-2d" x="422.099884"/>
      <use xlink:href="#STIXGeneral-Regular-76" x="455.399872"/>
      <use xlink:href="#STIXGeneral-Regular-32" x="505.399857"/>
     </g>
    </g>
    <g id="line2d_32">
     <path d="M 388.694687 165.963687 
L 395.694687 165.963687 
L 402.694687 165.963687 
" style="fill: none; stroke: #2ca02c; stroke-width: 1.5; stroke-linecap: square"/>
    </g>
    <g id="text_19">
     <!-- shelf-place-v2 -->
     <g transform="translate(406.894687 169.813687)scale(0.14 -0.14)">
      <defs>
       <path id="STIXGeneral-Regular-68" d="M 3117 0 
L 1760 0 
L 1760 96 
Q 2042 128 2118 224 
Q 2195 320 2195 653 
L 2195 1920 
Q 2195 2598 1722 2598 
Q 1530 2598 1370 2508 
Q 1210 2419 1005 2195 
L 1005 653 
Q 1005 320 1081 224 
Q 1158 128 1440 96 
L 1440 0 
L 58 0 
L 58 96 
Q 333 134 400 224 
Q 467 314 467 653 
L 467 3667 
Q 467 3872 406 3933 
Q 346 3994 141 3994 
Q 83 3994 64 3987 
L 64 4090 
L 237 4141 
Q 730 4288 973 4371 
L 1005 4352 
L 1005 2406 
Q 1229 2694 1446 2819 
Q 1664 2944 1946 2944 
Q 2733 2944 2733 1926 
L 2733 653 
Q 2733 320 2793 233 
Q 2854 147 3117 96 
L 3117 0 
z
" transform="scale(0.015625)"/>
       <path id="STIXGeneral-Regular-66" d="M 134 2880 
L 659 2880 
Q 666 3264 710 3478 
Q 755 3693 883 3910 
Q 1152 4371 1786 4371 
Q 2074 4371 2262 4259 
Q 2451 4147 2451 3974 
Q 2451 3866 2374 3789 
Q 2298 3712 2182 3712 
Q 2029 3712 1894 3942 
Q 1741 4192 1555 4192 
Q 1197 4192 1197 3622 
L 1197 2880 
L 1978 2880 
L 1978 2675 
L 1197 2675 
L 1197 666 
Q 1197 307 1299 208 
Q 1402 109 1792 96 
L 1792 0 
L 128 0 
L 128 96 
Q 474 115 566 214 
Q 659 314 659 666 
L 659 2675 
L 134 2675 
L 134 2880 
z
" transform="scale(0.015625)"/>
      </defs>
      <use xlink:href="#STIXGeneral-Regular-73"/>
      <use xlink:href="#STIXGeneral-Regular-68" x="38.899994"/>
      <use xlink:href="#STIXGeneral-Regular-65" x="88.899979"/>
      <use xlink:href="#STIXGeneral-Regular-6c" x="133.299973"/>
      <use xlink:href="#STIXGeneral-Regular-66" x="161.09996"/>
      <use xlink:href="#STIXGeneral-Regular-2d" x="194.399948"/>
      <use xlink:href="#STIXGeneral-Regular-70" x="227.699936"/>
      <use xlink:href="#STIXGeneral-Regular-6c" x="277.699921"/>
      <use xlink:href="#STIXGeneral-Regular-61" x="305.499908"/>
      <use xlink:href="#STIXGeneral-Regular-63" x="349.899902"/>
      <use xlink:href="#STIXGeneral-Regular-65" x="394.299896"/>
      <use xlink:href="#STIXGeneral-Regular-2d" x="438.69989"/>
      <use xlink:href="#STIXGeneral-Regular-76" x="471.999878"/>
      <use xlink:href="#STIXGeneral-Regular-32" x="521.999863"/>
     </g>
    </g>
    <g id="line2d_33">
     <path d="M 388.694687 179.963687 
L 395.694687 179.963687 
L 402.694687 179.963687 
" style="fill: none; stroke: #d62728; stroke-width: 1.5; stroke-linecap: square"/>
    </g>
    <g id="text_20">
     <!-- sweep-into-v2 -->
     <g transform="translate(406.894687 183.813687)scale(0.14 -0.14)">
      <use xlink:href="#STIXGeneral-Regular-73"/>
      <use xlink:href="#STIXGeneral-Regular-77" x="38.899994"/>
      <use xlink:href="#STIXGeneral-Regular-65" x="111.099976"/>
      <use xlink:href="#STIXGeneral-Regular-65" x="155.499969"/>
      <use xlink:href="#STIXGeneral-Regular-70" x="199.899963"/>
      <use xlink:href="#STIXGeneral-Regular-2d" x="249.899948"/>
      <use xlink:href="#STIXGeneral-Regular-69" x="283.199936"/>
      <use xlink:href="#STIXGeneral-Regular-6e" x="310.999924"/>
      <use xlink:href="#STIXGeneral-Regular-74" x="360.999908"/>
      <use xlink:href="#STIXGeneral-Regular-6f" x="388.799896"/>
      <use xlink:href="#STIXGeneral-Regular-2d" x="438.799881"/>
      <use xlink:href="#STIXGeneral-Regular-76" x="472.099869"/>
      <use xlink:href="#STIXGeneral-Regular-32" x="522.099854"/>
     </g>
    </g>
    <g id="line2d_34">
     <path d="M 388.694687 193.963687 
L 395.694687 193.963687 
L 402.694687 193.963687 
" style="fill: none; stroke: #9467bd; stroke-width: 1.5; stroke-linecap: square"/>
    </g>
    <g id="text_21">
     <!-- lever-pull-v2 -->
     <g transform="translate(406.894687 197.813687)scale(0.14 -0.14)">
      <use xlink:href="#STIXGeneral-Regular-6c"/>
      <use xlink:href="#STIXGeneral-Regular-65" x="27.799988"/>
      <use xlink:href="#STIXGeneral-Regular-76" x="72.199982"/>
      <use xlink:href="#STIXGeneral-Regular-65" x="122.199966"/>
      <use xlink:href="#STIXGeneral-Regular-72" x="166.59996"/>
      <use xlink:href="#STIXGeneral-Regular-2d" x="199.899948"/>
      <use xlink:href="#STIXGeneral-Regular-70" x="233.199936"/>
      <use xlink:href="#STIXGeneral-Regular-75" x="283.199921"/>
      <use xlink:href="#STIXGeneral-Regular-6c" x="333.199905"/>
      <use xlink:href="#STIXGeneral-Regular-6c" x="360.999893"/>
      <use xlink:href="#STIXGeneral-Regular-2d" x="388.799881"/>
      <use xlink:href="#STIXGeneral-Regular-76" x="422.099869"/>
      <use xlink:href="#STIXGeneral-Regular-32" x="472.099854"/>
     </g>
    </g>
   </g>
  </g>
 </g>
 <defs>
  <clipPath id="pe155748fc4">
   <rect x="56.9" y="27.952125" width="446.4" height="277.2"/>
  </clipPath>
 </defs>
</svg>
