<?xml version="1.0" encoding="utf-8" standalone="no"?>
<!DOCTYPE svg PUBLIC "-//W3C//DTD SVG 1.1//EN"
  "http://www.w3.org/Graphics/SVG/1.1/DTD/svg11.dtd">
<svg xmlns:xlink="http://www.w3.org/1999/xlink" width="510.5pt" height="355.769pt" viewBox="0 0 510.5 355.769" xmlns="http://www.w3.org/2000/svg" version="1.1">
 <metadata>
  <rdf:RDF xmlns:dc="http://purl.org/dc/elements/1.1/" xmlns:cc="http://creativecommons.org/ns#" xmlns:rdf="http://www.w3.org/1999/02/22-rdf-syntax-ns#">
   <cc:Work>
    <dc:type rdf:resource="http://purl.org/dc/dcmitype/StillImage"/>
    <dc:date>2021-12-11T20:28:57.603545</dc:date>
    <dc:format>image/svg+xml</dc:format>
    <dc:creator>
     <cc:Agent>
      <dc:title>Matplotlib v3.5.0, https://matplotlib.org/</dc:title>
     </cc:Agent>
    </dc:creator>
   </cc:Work>
  </rdf:RDF>
 </metadata>
 <defs>
  <style type="text/css">*{stroke-linejoin: round; stroke-linecap: butt}</style>
 </defs>
 <g id="figure_1">
  <g id="patch_1">
   <path d="M 0 355.769 
L 510.5 355.769 
L 510.5 0 
L 0 0 
z
" style="fill: #ffffff"/>
  </g>
  <g id="axes_1">
   <g id="patch_2">
    <path d="M 56.9 305.152125 
L 503.3 305.152125 
L 503.3 27.952125 
L 56.9 27.952125 
z
" style="fill: #ffffff"/>
   </g>
   <g id="matplotlib.axis_1">
    <g id="xtick_1">
     <g id="line2d_1">
      <path d="M 76.390479 305.152125 
L 76.390479 27.952125 
" clip-path="url(#pe11d8add05)" style="fill: none; stroke: #b0b0b0; stroke-width: 0.8; stroke-linecap: square"/>
     </g>
     <g id="line2d_2">
      <defs>
       <path id="m9a905a5cdd" d="M 0 0 
L 0 3.5 
" style="stroke: #000000; stroke-width: 0.8"/>
      </defs>
      <g>
       <use xlink:href="#m9a905a5cdd" x="76.390479" y="305.152125" style="stroke: #000000; stroke-width: 0.8"/>
      </g>
     </g>
     <g id="text_1">
      <!-- 0.0 -->
      <g transform="translate(65.140479 324.445562)scale(0.18 -0.18)">
       <defs>
        <path id="STIXGeneral-Regular-30" d="M 3046 2112 
Q 3046 1683 2963 1302 
Q 2880 922 2717 602 
Q 2554 282 2266 96 
Q 1978 -90 1600 -90 
Q 1210 -90 915 108 
Q 621 307 461 640 
Q 301 973 227 1350 
Q 154 1728 154 2150 
Q 154 2746 301 3222 
Q 448 3699 790 4012 
Q 1133 4326 1626 4326 
Q 2253 4326 2649 3712 
Q 3046 3098 3046 2112 
z
M 2432 2080 
Q 2432 3091 2217 3625 
Q 2003 4160 1587 4160 
Q 1190 4160 979 3622 
Q 768 3085 768 2106 
Q 768 1120 979 598 
Q 1190 77 1600 77 
Q 2003 77 2217 598 
Q 2432 1120 2432 2080 
z
" transform="scale(0.015625)"/>
        <path id="STIXGeneral-Regular-2e" d="M 1158 275 
Q 1158 134 1052 32 
Q 947 -70 800 -70 
Q 653 -70 550 32 
Q 448 134 448 281 
Q 448 429 553 534 
Q 659 640 806 640 
Q 947 640 1052 531 
Q 1158 422 1158 275 
z
" transform="scale(0.015625)"/>
       </defs>
       <use xlink:href="#STIXGeneral-Regular-30"/>
       <use xlink:href="#STIXGeneral-Regular-2e" x="49.999985"/>
       <use xlink:href="#STIXGeneral-Regular-30" x="74.999969"/>
      </g>
     </g>
    </g>
    <g id="xtick_2">
     <g id="line2d_3">
      <path d="M 156.433513 305.152125 
L 156.433513 27.952125 
" clip-path="url(#pe11d8add05)" style="fill: none; stroke: #b0b0b0; stroke-width: 0.8; stroke-linecap: square"/>
     </g>
     <g id="line2d_4">
      <g>
       <use xlink:href="#m9a905a5cdd" x="156.433513" y="305.152125" style="stroke: #000000; stroke-width: 0.8"/>
      </g>
     </g>
     <g id="text_2">
      <!-- 0.2 -->
      <g transform="translate(145.183513 324.445562)scale(0.18 -0.18)">
       <defs>
        <path id="STIXGeneral-Regular-32" d="M 3034 877 
L 2688 0 
L 186 0 
L 186 77 
L 1325 1286 
Q 1773 1754 1965 2144 
Q 2157 2534 2157 2950 
Q 2157 3379 1920 3616 
Q 1683 3853 1267 3853 
Q 922 3853 720 3673 
Q 518 3494 326 3021 
L 192 3053 
Q 301 3648 630 3987 
Q 960 4326 1523 4326 
Q 2054 4326 2380 4006 
Q 2707 3686 2707 3200 
Q 2707 2477 1888 1613 
L 832 486 
L 2330 486 
Q 2541 486 2665 569 
Q 2790 653 2944 915 
L 3034 877 
z
" transform="scale(0.015625)"/>
       </defs>
       <use xlink:href="#STIXGeneral-Regular-30"/>
       <use xlink:href="#STIXGeneral-Regular-2e" x="49.999985"/>
       <use xlink:href="#STIXGeneral-Regular-32" x="74.999969"/>
      </g>
     </g>
    </g>
    <g id="xtick_3">
     <g id="line2d_5">
      <path d="M 236.476547 305.152125 
L 236.476547 27.952125 
" clip-path="url(#pe11d8add05)" style="fill: none; stroke: #b0b0b0; stroke-width: 0.8; stroke-linecap: square"/>
     </g>
     <g id="line2d_6">
      <g>
       <use xlink:href="#m9a905a5cdd" x="236.476547" y="305.152125" style="stroke: #000000; stroke-width: 0.8"/>
      </g>
     </g>
     <g id="text_3">
      <!-- 0.4 -->
      <g transform="translate(225.226547 324.445562)scale(0.18 -0.18)">
       <defs>
        <path id="STIXGeneral-Regular-34" d="M 3027 1069 
L 2368 1069 
L 2368 0 
L 1869 0 
L 1869 1069 
L 77 1069 
L 77 1478 
L 2086 4326 
L 2368 4326 
L 2368 1478 
L 3027 1478 
L 3027 1069 
z
M 1869 1478 
L 1869 3674 
L 333 1478 
L 1869 1478 
z
" transform="scale(0.015625)"/>
       </defs>
       <use xlink:href="#STIXGeneral-Regular-30"/>
       <use xlink:href="#STIXGeneral-Regular-2e" x="49.999985"/>
       <use xlink:href="#STIXGeneral-Regular-34" x="74.999969"/>
      </g>
     </g>
    </g>
    <g id="xtick_4">
     <g id="line2d_7">
      <path d="M 316.51958 305.152125 
L 316.51958 27.952125 
" clip-path="url(#pe11d8add05)" style="fill: none; stroke: #b0b0b0; stroke-width: 0.8; stroke-linecap: square"/>
     </g>
     <g id="line2d_8">
      <g>
       <use xlink:href="#m9a905a5cdd" x="316.51958" y="305.152125" style="stroke: #000000; stroke-width: 0.8"/>
      </g>
     </g>
     <g id="text_4">
      <!-- 0.6 -->
      <g transform="translate(305.26958 324.445562)scale(0.18 -0.18)">
       <defs>
        <path id="STIXGeneral-Regular-36" d="M 2854 4378 
L 2867 4275 
Q 2112 4154 1606 3664 
Q 1101 3174 973 2451 
Q 1344 2739 1786 2739 
Q 2349 2739 2672 2380 
Q 2995 2022 2995 1402 
Q 2995 774 2669 378 
Q 2291 -90 1651 -90 
Q 870 -90 518 557 
Q 218 1107 218 1786 
Q 218 2835 915 3552 
Q 1312 3962 1731 4131 
Q 2150 4301 2854 4378 
z
M 2419 1203 
Q 2419 2445 1555 2445 
Q 1235 2445 1024 2275 
Q 813 2106 813 1702 
Q 813 954 1046 522 
Q 1280 90 1722 90 
Q 2061 90 2240 394 
Q 2419 698 2419 1203 
z
" transform="scale(0.015625)"/>
       </defs>
       <use xlink:href="#STIXGeneral-Regular-30"/>
       <use xlink:href="#STIXGeneral-Regular-2e" x="49.999985"/>
       <use xlink:href="#STIXGeneral-Regular-36" x="74.999969"/>
      </g>
     </g>
    </g>
    <g id="xtick_5">
     <g id="line2d_9">
      <path d="M 396.562614 305.152125 
L 396.562614 27.952125 
" clip-path="url(#pe11d8add05)" style="fill: none; stroke: #b0b0b0; stroke-width: 0.8; stroke-linecap: square"/>
     </g>
     <g id="line2d_10">
      <g>
       <use xlink:href="#m9a905a5cdd" x="396.562614" y="305.152125" style="stroke: #000000; stroke-width: 0.8"/>
      </g>
     </g>
     <g id="text_5">
      <!-- 0.8 -->
      <g transform="translate(385.312614 324.445562)scale(0.18 -0.18)">
       <defs>
        <path id="STIXGeneral-Regular-38" d="M 2848 992 
Q 2848 499 2505 204 
Q 2163 -90 1587 -90 
Q 1050 -90 704 204 
Q 358 499 358 954 
Q 358 1293 524 1533 
Q 691 1773 1190 2125 
Q 710 2522 553 2765 
Q 397 3008 397 3328 
Q 397 3782 745 4054 
Q 1094 4326 1638 4326 
Q 2106 4326 2410 4060 
Q 2714 3795 2714 3411 
Q 2714 3059 2531 2848 
Q 2349 2637 1856 2374 
Q 2432 1990 2640 1689 
Q 2848 1389 2848 992 
z
M 2272 3411 
Q 2272 3744 2086 3945 
Q 1901 4147 1574 4147 
Q 1248 4147 1059 3977 
Q 870 3808 870 3513 
Q 870 3219 1059 2979 
Q 1248 2739 1670 2490 
Q 1997 2682 2134 2896 
Q 2272 3110 2272 3411 
z
M 1734 1741 
L 1357 1997 
Q 1075 1766 960 1545 
Q 845 1325 845 1011 
Q 845 576 1065 333 
Q 1286 90 1658 90 
Q 1971 90 2166 285 
Q 2362 480 2362 794 
Q 2362 1082 2214 1299 
Q 2067 1517 1734 1741 
z
" transform="scale(0.015625)"/>
       </defs>
       <use xlink:href="#STIXGeneral-Regular-30"/>
       <use xlink:href="#STIXGeneral-Regular-2e" x="49.999985"/>
       <use xlink:href="#STIXGeneral-Regular-38" x="74.999969"/>
      </g>
     </g>
    </g>
    <g id="xtick_6">
     <g id="line2d_11">
      <path d="M 476.605648 305.152125 
L 476.605648 27.952125 
" clip-path="url(#pe11d8add05)" style="fill: none; stroke: #b0b0b0; stroke-width: 0.8; stroke-linecap: square"/>
     </g>
     <g id="line2d_12">
      <g>
       <use xlink:href="#m9a905a5cdd" x="476.605648" y="305.152125" style="stroke: #000000; stroke-width: 0.8"/>
      </g>
     </g>
     <g id="text_6">
      <!-- 1.0 -->
      <g transform="translate(465.355648 324.445562)scale(0.18 -0.18)">
       <defs>
        <path id="STIXGeneral-Regular-31" d="M 2522 0 
L 755 0 
L 755 96 
Q 1107 115 1235 227 
Q 1363 339 1363 608 
L 1363 3482 
Q 1363 3795 1171 3795 
Q 1082 3795 883 3718 
L 710 3654 
L 710 3744 
L 1856 4326 
L 1914 4307 
L 1914 486 
Q 1914 275 2042 185 
Q 2170 96 2522 96 
L 2522 0 
z
" transform="scale(0.015625)"/>
       </defs>
       <use xlink:href="#STIXGeneral-Regular-31"/>
       <use xlink:href="#STIXGeneral-Regular-2e" x="49.999985"/>
       <use xlink:href="#STIXGeneral-Regular-30" x="74.999969"/>
      </g>
     </g>
    </g>
    <g id="text_7">
     <!-- Training Environment Steps -->
     <g transform="translate(178.104688 344.645562)scale(0.18 -0.18)">
      <defs>
       <path id="STIXGeneral-Regular-54" d="M 3795 3149 
L 3642 3149 
Q 3539 3674 3353 3821 
Q 3168 3968 2656 3968 
L 2278 3968 
L 2278 710 
Q 2278 346 2387 243 
Q 2496 141 2893 122 
L 2893 0 
L 1024 0 
L 1024 122 
Q 1427 147 1526 256 
Q 1626 365 1626 787 
L 1626 3968 
L 1242 3968 
Q 723 3968 540 3817 
Q 358 3667 262 3149 
L 109 3149 
L 154 4237 
L 3750 4237 
L 3795 3149 
z
" transform="scale(0.015625)"/>
       <path id="STIXGeneral-Regular-72" d="M 1024 2931 
L 1024 2342 
Q 1267 2688 1430 2816 
Q 1594 2944 1792 2944 
Q 1958 2944 2051 2854 
Q 2144 2765 2144 2605 
Q 2144 2470 2077 2393 
Q 2010 2317 1894 2317 
Q 1773 2317 1638 2445 
Q 1536 2541 1472 2541 
Q 1338 2541 1181 2355 
Q 1024 2170 1024 2016 
L 1024 576 
Q 1024 301 1133 205 
Q 1242 109 1568 96 
L 1568 0 
L 32 0 
L 32 96 
Q 339 154 412 224 
Q 486 294 486 538 
L 486 2138 
Q 486 2349 438 2435 
Q 390 2522 269 2522 
Q 166 2522 45 2496 
L 45 2598 
Q 448 2726 992 2944 
L 1024 2931 
z
" transform="scale(0.015625)"/>
       <path id="STIXGeneral-Regular-61" d="M 2829 422 
L 2829 243 
Q 2586 -64 2253 -64 
Q 1888 -64 1843 403 
L 1837 403 
Q 1427 -64 909 -64 
Q 608 -64 422 112 
Q 237 288 237 602 
Q 237 1050 685 1350 
Q 992 1555 1837 1869 
L 1837 2214 
Q 1837 2502 1699 2646 
Q 1562 2790 1338 2790 
Q 1146 2790 1018 2697 
Q 890 2605 890 2477 
Q 890 2419 909 2348 
Q 928 2278 928 2208 
Q 928 2112 841 2029 
Q 755 1946 634 1946 
Q 525 1946 441 2029 
Q 358 2112 358 2240 
Q 358 2547 685 2752 
Q 986 2944 1421 2944 
Q 1939 2944 2176 2656 
Q 2291 2522 2323 2384 
Q 2355 2246 2355 1946 
L 2355 723 
Q 2355 301 2554 301 
Q 2682 301 2829 422 
z
M 1837 813 
L 1837 1715 
Q 1248 1510 1018 1293 
Q 800 1094 800 800 
Q 800 557 921 432 
Q 1043 307 1242 307 
Q 1453 307 1613 410 
Q 1747 506 1792 589 
Q 1837 672 1837 813 
z
" transform="scale(0.015625)"/>
       <path id="STIXGeneral-Regular-69" d="M 1152 4045 
Q 1152 3904 1056 3811 
Q 960 3718 819 3718 
Q 685 3718 592 3811 
Q 499 3904 499 4045 
Q 499 4179 595 4275 
Q 691 4371 826 4371 
Q 966 4371 1059 4275 
Q 1152 4179 1152 4045 
z
M 1619 0 
L 102 0 
L 102 96 
Q 435 115 521 211 
Q 608 307 608 666 
L 608 2118 
Q 608 2342 563 2432 
Q 518 2522 397 2522 
Q 243 2522 128 2490 
L 128 2592 
L 1120 2944 
L 1146 2918 
L 1146 672 
Q 1146 314 1226 218 
Q 1306 122 1619 96 
L 1619 0 
z
" transform="scale(0.015625)"/>
       <path id="STIXGeneral-Regular-6e" d="M 3104 0 
L 1773 0 
L 1779 96 
Q 2016 115 2096 233 
Q 2176 352 2176 672 
L 2176 1946 
Q 2176 2592 1709 2592 
Q 1549 2592 1408 2515 
Q 1267 2438 1050 2227 
L 1050 461 
Q 1050 269 1136 192 
Q 1222 115 1466 96 
L 1466 0 
L 115 0 
L 115 96 
Q 358 115 435 214 
Q 512 314 512 602 
L 512 2157 
Q 512 2394 467 2483 
Q 422 2573 288 2573 
Q 160 2573 102 2547 
L 102 2656 
Q 550 2784 979 2944 
L 1030 2925 
L 1030 2426 
L 1037 2426 
Q 1491 2944 1958 2944 
Q 2323 2944 2518 2688 
Q 2714 2432 2714 1958 
L 2714 544 
Q 2714 288 2790 205 
Q 2867 122 3104 96 
L 3104 0 
z
" transform="scale(0.015625)"/>
       <path id="STIXGeneral-Regular-67" d="M 3008 2483 
L 2477 2483 
Q 2598 2208 2598 1946 
Q 2598 1453 2265 1203 
Q 1933 954 1600 954 
Q 1530 954 1357 973 
L 1235 986 
Q 1107 947 979 812 
Q 851 678 851 582 
Q 851 435 1350 410 
L 2176 371 
Q 2528 358 2739 172 
Q 2950 -13 2950 -314 
Q 2950 -685 2566 -986 
Q 2035 -1395 1286 -1395 
Q 826 -1395 502 -1212 
Q 179 -1030 179 -774 
Q 179 -595 320 -419 
Q 461 -243 806 6 
Q 602 102 534 172 
Q 467 243 467 346 
Q 467 531 762 787 
Q 909 915 1037 1043 
Q 717 1203 579 1401 
Q 442 1600 442 1901 
Q 442 2336 752 2640 
Q 1062 2944 1510 2944 
Q 1766 2944 2022 2848 
L 2163 2797 
Q 2349 2733 2515 2733 
L 3008 2733 
L 3008 2483 
z
M 973 2163 
L 973 2144 
Q 973 1683 1155 1398 
Q 1338 1114 1632 1114 
Q 1850 1114 1978 1270 
Q 2106 1427 2106 1690 
Q 2106 2112 1914 2464 
Q 1754 2765 1446 2765 
Q 1222 2765 1097 2605 
Q 973 2445 973 2163 
z
M 2771 -410 
Q 2771 -230 2595 -163 
Q 2419 -96 1978 -96 
Q 1344 -96 941 -13 
Q 749 -243 688 -348 
Q 627 -454 627 -563 
Q 627 -774 880 -902 
Q 1133 -1030 1555 -1030 
Q 2099 -1030 2435 -860 
Q 2771 -691 2771 -410 
z
" transform="scale(0.015625)"/>
       <path id="STIXGeneral-Regular-20" transform="scale(0.015625)"/>
       <path id="STIXGeneral-Regular-45" d="M 3821 1082 
L 3526 0 
L 77 0 
L 77 122 
Q 442 147 538 252 
Q 634 358 634 730 
L 634 3520 
Q 634 3878 534 3987 
Q 435 4096 77 4115 
L 77 4237 
L 3469 4237 
L 3494 3322 
L 3334 3322 
Q 3264 3750 3085 3872 
Q 2906 3994 2349 3994 
L 1510 3994 
Q 1370 3994 1328 3952 
Q 1286 3910 1286 3763 
L 1286 2355 
L 2253 2355 
Q 2656 2355 2787 2470 
Q 2918 2586 2976 2970 
L 3123 2970 
L 3123 1472 
L 2976 1472 
Q 2918 1875 2790 1984 
Q 2662 2093 2253 2093 
L 1286 2093 
L 1286 538 
Q 1286 346 1420 291 
Q 1555 237 1933 237 
L 2163 237 
Q 2848 237 3136 403 
Q 3424 570 3642 1082 
L 3821 1082 
z
" transform="scale(0.015625)"/>
       <path id="STIXGeneral-Regular-76" d="M 3053 2880 
L 3053 2784 
Q 2906 2771 2835 2688 
Q 2765 2605 2637 2285 
L 1818 230 
Q 1690 -90 1638 -90 
Q 1587 -90 1523 77 
Q 1510 96 1497 141 
Q 1485 186 1472 211 
L 704 2048 
Q 499 2534 403 2652 
Q 307 2771 122 2784 
L 122 2880 
L 1376 2880 
L 1376 2784 
Q 1210 2771 1146 2732 
Q 1082 2694 1082 2611 
Q 1082 2509 1139 2368 
L 1792 730 
L 2426 2387 
Q 2464 2483 2464 2579 
Q 2464 2758 2163 2784 
L 2163 2880 
L 3053 2880 
z
" transform="scale(0.015625)"/>
       <path id="STIXGeneral-Regular-6f" d="M 3008 1478 
Q 3008 806 2608 371 
Q 2208 -64 1568 -64 
Q 979 -64 582 368 
Q 186 800 186 1459 
Q 186 2125 582 2534 
Q 979 2944 1626 2944 
Q 2221 2944 2614 2537 
Q 3008 2131 3008 1478 
z
M 2432 1306 
Q 2432 2035 2112 2445 
Q 1856 2765 1504 2765 
Q 1171 2765 966 2493 
Q 762 2221 762 1747 
Q 762 928 1101 435 
Q 1318 115 1677 115 
Q 2029 115 2230 432 
Q 2432 749 2432 1306 
z
" transform="scale(0.015625)"/>
       <path id="STIXGeneral-Regular-6d" d="M 4960 0 
L 3565 0 
L 3565 96 
Q 3834 122 3907 208 
Q 3981 294 3981 576 
L 3981 1894 
Q 3981 2278 3869 2444 
Q 3757 2611 3488 2611 
Q 3264 2611 3107 2521 
Q 2950 2432 2803 2221 
L 2803 608 
Q 2803 301 2896 201 
Q 2989 102 3264 96 
L 3264 0 
L 1830 0 
L 1830 96 
Q 2112 115 2189 188 
Q 2266 262 2266 550 
L 2266 1901 
Q 2266 2611 1850 2611 
Q 1670 2611 1468 2531 
Q 1267 2451 1171 2336 
Q 1088 2240 1088 2227 
L 1088 448 
Q 1088 243 1177 176 
Q 1267 109 1523 96 
L 1523 0 
L 102 0 
L 102 96 
Q 371 102 460 195 
Q 550 288 550 563 
L 550 2150 
Q 550 2387 499 2480 
Q 448 2573 326 2573 
Q 230 2573 122 2547 
L 122 2656 
Q 557 2778 1011 2944 
L 1062 2925 
L 1062 2451 
L 1075 2451 
Q 1363 2752 1584 2848 
Q 1805 2944 2054 2944 
Q 2560 2944 2733 2406 
Q 3232 2944 3776 2944 
Q 4518 2944 4518 1792 
L 4518 493 
Q 4518 282 4582 202 
Q 4646 122 4794 109 
L 4960 96 
L 4960 0 
z
" transform="scale(0.015625)"/>
       <path id="STIXGeneral-Regular-65" d="M 2611 1050 
L 2714 1005 
Q 2330 -64 1376 -64 
Q 813 -64 486 329 
Q 160 723 160 1389 
Q 160 2074 525 2509 
Q 890 2944 1485 2944 
Q 2061 2944 2374 2502 
Q 2560 2246 2592 1773 
L 621 1773 
Q 646 1370 700 1158 
Q 755 947 915 730 
Q 1184 378 1626 378 
Q 1939 378 2153 531 
Q 2368 685 2611 1050 
z
M 634 1978 
L 1939 1978 
Q 1882 2381 1750 2547 
Q 1619 2714 1312 2714 
Q 1043 2714 864 2525 
Q 685 2336 634 1978 
z
" transform="scale(0.015625)"/>
       <path id="STIXGeneral-Regular-74" d="M 1702 493 
L 1786 422 
Q 1478 -64 1011 -64 
Q 448 -64 448 749 
L 448 2675 
L 109 2675 
Q 83 2694 83 2720 
Q 83 2771 192 2842 
Q 435 2982 813 3526 
Q 826 3546 874 3606 
Q 922 3667 941 3706 
Q 986 3706 986 3622 
L 986 2880 
L 1632 2880 
L 1632 2675 
L 986 2675 
L 986 845 
Q 986 538 1062 403 
Q 1139 269 1318 269 
Q 1510 269 1702 493 
z
" transform="scale(0.015625)"/>
       <path id="STIXGeneral-Regular-53" d="M 3002 2963 
L 2842 2963 
Q 2733 3360 2579 3565 
Q 2189 4064 1651 4064 
Q 1357 4064 1181 3894 
Q 1005 3725 1005 3456 
Q 1005 3328 1069 3206 
Q 1133 3085 1206 2998 
Q 1280 2912 1465 2784 
Q 1651 2656 1766 2589 
Q 1882 2522 2150 2362 
Q 2669 2061 2905 1763 
Q 3142 1466 3142 1107 
Q 3142 576 2771 243 
Q 2400 -90 1837 -90 
Q 1421 -90 1082 58 
Q 915 128 781 128 
Q 704 128 653 70 
Q 602 13 602 -83 
L 461 -83 
L 275 1274 
L 416 1274 
Q 845 141 1734 141 
Q 2074 141 2285 342 
Q 2496 544 2496 858 
Q 2496 1158 2310 1363 
Q 2003 1696 1235 2106 
Q 454 2522 454 3206 
Q 454 3718 768 4022 
Q 1082 4326 1568 4326 
Q 1907 4326 2240 4186 
Q 2413 4109 2522 4109 
Q 2688 4109 2726 4326 
L 2861 4326 
L 3002 2963 
z
" transform="scale(0.015625)"/>
       <path id="STIXGeneral-Regular-70" d="M 1018 2931 
L 1018 2438 
Q 1421 2944 1939 2944 
Q 2406 2944 2707 2560 
Q 3008 2176 3008 1581 
Q 3008 883 2621 409 
Q 2234 -64 1664 -64 
Q 1466 -64 1328 -6 
Q 1190 51 1018 211 
L 1018 -794 
Q 1018 -1094 1120 -1180 
Q 1222 -1267 1581 -1274 
L 1581 -1389 
L 32 -1389 
L 32 -1280 
Q 314 -1254 397 -1171 
Q 480 -1088 480 -838 
L 480 2157 
Q 480 2381 429 2451 
Q 378 2522 218 2522 
Q 115 2522 58 2515 
L 58 2618 
Q 506 2752 979 2944 
L 1018 2931 
z
M 1018 2138 
L 1018 563 
Q 1018 422 1238 281 
Q 1459 141 1683 141 
Q 2029 141 2243 467 
Q 2458 794 2458 1325 
Q 2458 1888 2243 2224 
Q 2029 2560 1670 2560 
Q 1446 2560 1232 2419 
Q 1018 2278 1018 2138 
z
" transform="scale(0.015625)"/>
       <path id="STIXGeneral-Regular-73" d="M 998 1926 
L 1664 1523 
Q 1984 1331 2105 1164 
Q 2227 998 2227 736 
Q 2227 416 1961 176 
Q 1696 -64 1331 -64 
Q 1030 -64 864 -6 
Q 691 51 570 51 
Q 461 51 416 -26 
L 333 -26 
L 333 979 
L 435 979 
Q 538 512 730 294 
Q 922 77 1248 77 
Q 1485 77 1632 211 
Q 1779 346 1779 550 
Q 1779 845 1440 1030 
L 1094 1222 
Q 326 1651 326 2150 
Q 326 2522 566 2730 
Q 806 2938 1210 2938 
Q 1491 2938 1638 2867 
Q 1754 2816 1818 2816 
Q 1862 2816 1920 2880 
L 1990 2880 
L 2022 2010 
L 1926 2010 
Q 1818 2445 1654 2621 
Q 1491 2797 1203 2797 
Q 986 2797 854 2688 
Q 723 2579 723 2362 
Q 723 2253 796 2128 
Q 870 2003 998 1926 
z
" transform="scale(0.015625)"/>
      </defs>
      <use xlink:href="#STIXGeneral-Regular-54"/>
      <use xlink:href="#STIXGeneral-Regular-72" x="61.099991"/>
      <use xlink:href="#STIXGeneral-Regular-61" x="94.399979"/>
      <use xlink:href="#STIXGeneral-Regular-69" x="138.799973"/>
      <use xlink:href="#STIXGeneral-Regular-6e" x="166.59996"/>
      <use xlink:href="#STIXGeneral-Regular-69" x="216.599945"/>
      <use xlink:href="#STIXGeneral-Regular-6e" x="244.399933"/>
      <use xlink:href="#STIXGeneral-Regular-67" x="294.399918"/>
      <use xlink:href="#STIXGeneral-Regular-20" x="344.399902"/>
      <use xlink:href="#STIXGeneral-Regular-45" x="369.399887"/>
      <use xlink:href="#STIXGeneral-Regular-6e" x="430.499878"/>
      <use xlink:href="#STIXGeneral-Regular-76" x="480.499863"/>
      <use xlink:href="#STIXGeneral-Regular-69" x="530.499847"/>
      <use xlink:href="#STIXGeneral-Regular-72" x="558.299835"/>
      <use xlink:href="#STIXGeneral-Regular-6f" x="591.599823"/>
      <use xlink:href="#STIXGeneral-Regular-6e" x="641.599808"/>
      <use xlink:href="#STIXGeneral-Regular-6d" x="691.599792"/>
      <use xlink:href="#STIXGeneral-Regular-65" x="769.39978"/>
      <use xlink:href="#STIXGeneral-Regular-6e" x="813.799774"/>
      <use xlink:href="#STIXGeneral-Regular-74" x="863.799759"/>
      <use xlink:href="#STIXGeneral-Regular-20" x="891.599747"/>
      <use xlink:href="#STIXGeneral-Regular-53" x="916.599731"/>
      <use xlink:href="#STIXGeneral-Regular-74" x="972.199722"/>
      <use xlink:href="#STIXGeneral-Regular-65" x="999.99971"/>
      <use xlink:href="#STIXGeneral-Regular-70" x="1044.399704"/>
      <use xlink:href="#STIXGeneral-Regular-73" x="1094.399689"/>
     </g>
    </g>
    <g id="text_8">
     <!-- 1e8 -->
     <g transform="translate(477.306875 343.645562)scale(0.18 -0.18)">
      <use xlink:href="#STIXGeneral-Regular-31"/>
      <use xlink:href="#STIXGeneral-Regular-65" x="49.999985"/>
      <use xlink:href="#STIXGeneral-Regular-38" x="94.399979"/>
     </g>
    </g>
   </g>
   <g id="matplotlib.axis_2">
    <g id="ytick_1">
     <g id="line2d_13">
      <path d="M 56.9 292.552125 
L 503.3 292.552125 
" clip-path="url(#pe11d8add05)" style="fill: none; stroke: #b0b0b0; stroke-width: 0.8; stroke-linecap: square"/>
     </g>
     <g id="line2d_14">
      <defs>
       <path id="m29996064bc" d="M 0 0 
L -3.5 0 
" style="stroke: #000000; stroke-width: 0.8"/>
      </defs>
      <g>
       <use xlink:href="#m29996064bc" x="56.9" y="292.552125" style="stroke: #000000; stroke-width: 0.8"/>
      </g>
     </g>
     <g id="text_9">
      <!-- 0.0 -->
      <g transform="translate(27.4 298.698844)scale(0.18 -0.18)">
       <use xlink:href="#STIXGeneral-Regular-30"/>
       <use xlink:href="#STIXGeneral-Regular-2e" x="49.999985"/>
       <use xlink:href="#STIXGeneral-Regular-30" x="74.999969"/>
      </g>
     </g>
    </g>
    <g id="ytick_2">
     <g id="line2d_15">
      <path d="M 56.9 242.152125 
L 503.3 242.152125 
" clip-path="url(#pe11d8add05)" style="fill: none; stroke: #b0b0b0; stroke-width: 0.8; stroke-linecap: square"/>
     </g>
     <g id="line2d_16">
      <g>
       <use xlink:href="#m29996064bc" x="56.9" y="242.152125" style="stroke: #000000; stroke-width: 0.8"/>
      </g>
     </g>
     <g id="text_10">
      <!-- 0.2 -->
      <g transform="translate(27.4 248.298844)scale(0.18 -0.18)">
       <use xlink:href="#STIXGeneral-Regular-30"/>
       <use xlink:href="#STIXGeneral-Regular-2e" x="49.999985"/>
       <use xlink:href="#STIXGeneral-Regular-32" x="74.999969"/>
      </g>
     </g>
    </g>
    <g id="ytick_3">
     <g id="line2d_17">
      <path d="M 56.9 191.752125 
L 503.3 191.752125 
" clip-path="url(#pe11d8add05)" style="fill: none; stroke: #b0b0b0; stroke-width: 0.8; stroke-linecap: square"/>
     </g>
     <g id="line2d_18">
      <g>
       <use xlink:href="#m29996064bc" x="56.9" y="191.752125" style="stroke: #000000; stroke-width: 0.8"/>
      </g>
     </g>
     <g id="text_11">
      <!-- 0.4 -->
      <g transform="translate(27.4 197.898844)scale(0.18 -0.18)">
       <use xlink:href="#STIXGeneral-Regular-30"/>
       <use xlink:href="#STIXGeneral-Regular-2e" x="49.999985"/>
       <use xlink:href="#STIXGeneral-Regular-34" x="74.999969"/>
      </g>
     </g>
    </g>
    <g id="ytick_4">
     <g id="line2d_19">
      <path d="M 56.9 141.352125 
L 503.3 141.352125 
" clip-path="url(#pe11d8add05)" style="fill: none; stroke: #b0b0b0; stroke-width: 0.8; stroke-linecap: square"/>
     </g>
     <g id="line2d_20">
      <g>
       <use xlink:href="#m29996064bc" x="56.9" y="141.352125" style="stroke: #000000; stroke-width: 0.8"/>
      </g>
     </g>
     <g id="text_12">
      <!-- 0.6 -->
      <g transform="translate(27.4 147.498844)scale(0.18 -0.18)">
       <use xlink:href="#STIXGeneral-Regular-30"/>
       <use xlink:href="#STIXGeneral-Regular-2e" x="49.999985"/>
       <use xlink:href="#STIXGeneral-Regular-36" x="74.999969"/>
      </g>
     </g>
    </g>
    <g id="ytick_5">
     <g id="line2d_21">
      <path d="M 56.9 90.952125 
L 503.3 90.952125 
" clip-path="url(#pe11d8add05)" style="fill: none; stroke: #b0b0b0; stroke-width: 0.8; stroke-linecap: square"/>
     </g>
     <g id="line2d_22">
      <g>
       <use xlink:href="#m29996064bc" x="56.9" y="90.952125" style="stroke: #000000; stroke-width: 0.8"/>
      </g>
     </g>
     <g id="text_13">
      <!-- 0.8 -->
      <g transform="translate(27.4 97.098844)scale(0.18 -0.18)">
       <use xlink:href="#STIXGeneral-Regular-30"/>
       <use xlink:href="#STIXGeneral-Regular-2e" x="49.999985"/>
       <use xlink:href="#STIXGeneral-Regular-38" x="74.999969"/>
      </g>
     </g>
    </g>
    <g id="ytick_6">
     <g id="line2d_23">
      <path d="M 56.9 40.552125 
L 503.3 40.552125 
" clip-path="url(#pe11d8add05)" style="fill: none; stroke: #b0b0b0; stroke-width: 0.8; stroke-linecap: square"/>
     </g>
     <g id="line2d_24">
      <g>
       <use xlink:href="#m29996064bc" x="56.9" y="40.552125" style="stroke: #000000; stroke-width: 0.8"/>
      </g>
     </g>
     <g id="text_14">
      <!-- 1.0 -->
      <g transform="translate(27.4 46.698844)scale(0.18 -0.18)">
       <use xlink:href="#STIXGeneral-Regular-31"/>
       <use xlink:href="#STIXGeneral-Regular-2e" x="49.999985"/>
       <use xlink:href="#STIXGeneral-Regular-30" x="74.999969"/>
      </g>
     </g>
    </g>
    <g id="text_15">
     <!-- Success Rate -->
     <g transform="translate(19.493438 213.7965)rotate(-90)scale(0.18 -0.18)">
      <defs>
       <path id="STIXGeneral-Regular-75" d="M 3072 320 
L 3072 230 
Q 2573 96 2195 -58 
L 2163 -38 
L 2163 486 
L 2150 486 
Q 1747 -64 1235 -64 
Q 870 -64 662 160 
Q 454 384 454 755 
L 454 2362 
Q 454 2598 371 2688 
Q 288 2778 58 2790 
L 58 2880 
L 992 2880 
L 992 813 
Q 992 595 1123 451 
Q 1254 307 1446 307 
Q 1760 307 1984 506 
Q 2067 582 2099 649 
Q 2131 717 2131 877 
L 2131 2355 
Q 2131 2605 2041 2678 
Q 1952 2752 1658 2771 
L 1658 2880 
L 2669 2880 
L 2669 685 
Q 2669 461 2742 390 
Q 2816 320 3034 320 
L 3072 320 
z
" transform="scale(0.015625)"/>
       <path id="STIXGeneral-Regular-63" d="M 2547 998 
L 2637 941 
Q 2362 403 2112 205 
Q 1786 -64 1376 -64 
Q 845 -64 502 336 
Q 160 736 160 1357 
Q 160 2170 698 2618 
Q 1094 2944 1562 2944 
Q 1965 2944 2256 2749 
Q 2547 2554 2547 2285 
Q 2547 2176 2457 2096 
Q 2368 2016 2246 2016 
Q 2022 2016 1939 2310 
L 1901 2451 
Q 1850 2630 1773 2694 
Q 1696 2758 1523 2758 
Q 1133 2758 893 2451 
Q 653 2144 653 1645 
Q 653 1094 928 745 
Q 1203 397 1645 397 
Q 1920 397 2118 528 
Q 2317 659 2547 998 
z
" transform="scale(0.015625)"/>
       <path id="STIXGeneral-Regular-52" d="M 4224 0 
L 3187 0 
L 1664 1971 
L 1306 1958 
L 1306 717 
Q 1306 352 1405 249 
Q 1504 147 1875 122 
L 1875 0 
L 109 0 
L 109 122 
Q 474 154 563 262 
Q 653 371 653 794 
L 653 3526 
Q 653 3885 563 3987 
Q 474 4090 109 4115 
L 109 4237 
L 1850 4237 
Q 2726 4237 3187 3859 
Q 3501 3603 3501 3091 
Q 3501 2221 2342 2042 
L 3622 422 
Q 3757 256 3878 198 
Q 4000 141 4224 122 
L 4224 0 
z
M 1306 3731 
L 1306 2195 
Q 1766 2202 1990 2246 
Q 2214 2291 2438 2413 
Q 2803 2618 2803 3142 
Q 2803 4000 1632 4000 
Q 1459 4000 1382 3945 
Q 1306 3891 1306 3731 
z
" transform="scale(0.015625)"/>
      </defs>
      <use xlink:href="#STIXGeneral-Regular-53"/>
      <use xlink:href="#STIXGeneral-Regular-75" x="55.599991"/>
      <use xlink:href="#STIXGeneral-Regular-63" x="105.599976"/>
      <use xlink:href="#STIXGeneral-Regular-63" x="149.999969"/>
      <use xlink:href="#STIXGeneral-Regular-65" x="194.399963"/>
      <use xlink:href="#STIXGeneral-Regular-73" x="238.799957"/>
      <use xlink:href="#STIXGeneral-Regular-73" x="277.699951"/>
      <use xlink:href="#STIXGeneral-Regular-20" x="316.599945"/>
      <use xlink:href="#STIXGeneral-Regular-52" x="341.59993"/>
      <use xlink:href="#STIXGeneral-Regular-61" x="408.299927"/>
      <use xlink:href="#STIXGeneral-Regular-74" x="452.699921"/>
      <use xlink:href="#STIXGeneral-Regular-65" x="480.499908"/>
     </g>
    </g>
   </g>
   <g id="line2d_25">
    <path d="M 77.190909 292.552125 
L 98.002098 292.552125 
L 98.802528 290.536125 
L 99.602959 291.342525 
L 100.403389 291.826365 
L 102.00425 292.290851 
L 104.405541 292.49569 
L 107.607262 292.544811 
L 108.407692 290.531737 
L 109.208123 291.339892 
L 110.008553 291.824785 
L 111.609414 292.290283 
L 114.010705 292.495567 
L 119.613717 292.550542 
L 120.414147 290.535175 
L 121.214578 291.341955 
L 122.015008 291.826023 
L 123.615869 292.290728 
L 126.01716 292.495663 
L 131.620172 292.550544 
L 214.064497 292.552125 
L 214.864927 290.536125 
L 215.665358 289.326525 
L 216.465788 290.616765 
L 217.266218 291.390909 
L 218.066649 291.855395 
L 219.667509 292.301302 
L 222.0688 292.497947 
L 227.671813 292.550608 
L 234.875686 292.55211 
L 235.676116 290.536116 
L 236.476547 291.34252 
L 237.276977 291.826362 
L 238.877838 292.29085 
L 241.279129 292.49569 
L 246.882141 292.550545 
L 256.487305 292.552122 
L 257.287735 290.536123 
L 258.088166 291.342524 
L 258.888596 291.826364 
L 259.689026 292.116669 
L 260.489457 290.274851 
L 261.289887 287.153761 
L 262.090317 287.297107 
L 262.890748 289.399114 
L 263.691178 290.660318 
L 264.491608 291.417041 
L 265.292039 291.871075 
L 266.092469 290.127495 
L 266.892899 291.097347 
L 267.69333 291.679258 
L 268.49376 292.028405 
L 270.094621 292.363586 
L 272.495912 292.511401 
L 279.699785 292.551715 
L 330.927327 292.552125 
L 331.727757 290.536125 
L 332.528187 291.342525 
L 333.328618 291.826365 
L 334.929478 292.290851 
L 337.330769 292.49569 
L 342.933782 292.550545 
L 344.534642 292.551556 
L 345.335073 290.535784 
L 346.135503 289.32632 
L 346.935933 290.616642 
L 347.736364 291.390835 
L 348.536794 291.855351 
L 350.137655 292.301286 
L 352.538946 292.497944 
L 358.141958 292.550608 
L 376.551856 292.552125 
L 377.352286 290.536125 
L 378.152717 291.342525 
L 378.953147 291.826365 
L 380.554008 292.290851 
L 382.955299 292.49569 
L 388.558311 292.550545 
L 398.963905 292.552123 
L 399.764336 288.520124 
L 400.564766 290.132924 
L 401.365196 291.100605 
L 402.165627 287.649213 
L 402.966057 287.594378 
L 403.766487 289.577477 
L 404.566918 290.767336 
L 405.367348 291.481252 
L 406.167778 291.909601 
L 407.768639 292.320816 
L 410.16993 292.502162 
L 416.573373 292.551286 
L 427.779398 292.552124 
L 428.579828 290.536125 
L 429.380258 291.342525 
L 430.180689 291.826365 
L 431.781549 292.290851 
L 434.18284 292.49569 
L 439.785853 292.550545 
L 454.994029 292.552125 
L 455.794459 290.536125 
L 456.59489 291.342525 
L 457.39532 291.826365 
L 458.996181 292.290851 
L 461.397472 292.49569 
L 467.000484 292.550545 
L 483.009091 292.552125 
L 483.009091 292.552125 
" clip-path="url(#pe11d8add05)" style="fill: none; stroke: #1f77b4; stroke-width: 1.5; stroke-linecap: square"/>
   </g>
   <g id="line2d_26">
    <path d="M 77.190909 267.352125 
L 77.991339 277.432125 
L 78.79177 261.304125 
L 79.5922 271.787325 
L 80.39263 280.093245 
L 81.193061 285.076797 
L 81.993491 288.066928 
L 82.793921 289.861007 
L 83.594352 290.937454 
L 84.394782 291.583322 
L 85.195212 291.970843 
L 86.796073 292.342864 
L 89.197364 292.506925 
L 90.798225 292.535853 
L 91.598655 290.526362 
L 92.399086 291.336667 
L 93.199516 291.82285 
L 94.800377 292.289586 
L 97.201668 292.495417 
L 102.80468 292.550538 
L 104.405541 292.551554 
L 105.205971 290.535782 
L 106.006401 291.342319 
L 106.806832 291.826242 
L 108.407692 292.290807 
L 110.808983 292.49568 
L 111.609414 290.502258 
L 112.409844 291.322205 
L 113.210274 291.814173 
L 114.010705 292.109354 
L 114.811135 288.254462 
L 115.611565 269.813527 
L 117.212426 163.406231 
L 118.012856 124.344591 
L 118.813287 90.827605 
L 119.613717 72.733411 
L 120.414147 69.940899 
L 121.214578 64.23339 
L 122.015008 54.760884 
L 122.815438 53.109382 
L 123.615869 52.118482 
L 124.416299 51.523941 
L 125.216729 55.199213 
L 126.01716 65.46838 
L 126.81759 55.501878 
L 127.61802 49.521977 
L 128.418451 47.950034 
L 129.218881 44.990871 
L 130.019311 43.215372 
L 130.819742 42.150073 
L 131.620172 41.510894 
L 132.420602 43.143385 
L 133.221033 42.106881 
L 134.021463 41.484978 
L 134.821893 41.111837 
L 135.622324 40.887952 
L 136.422754 42.769619 
L 137.223185 41.882622 
L 138.023615 41.350423 
L 138.824045 53.127104 
L 139.624476 56.161111 
L 140.424906 53.949519 
L 141.225336 64.718564 
L 142.025767 67.147989 
L 142.826197 60.541645 
L 143.626627 68.67384 
L 144.427058 65.489152 
L 145.227488 55.514341 
L 146.027918 49.529455 
L 146.828349 51.986523 
L 147.628779 53.460764 
L 148.429209 48.297308 
L 149.22964 45.199235 
L 150.03007 43.340391 
L 150.8305 42.225085 
L 151.630931 41.555901 
L 152.431361 41.15439 
L 154.032222 40.768941 
L 156.433513 40.598957 
L 162.836955 40.552912 
L 183.648144 40.552125 
L 184.448575 42.568123 
L 185.249005 41.761724 
L 186.049435 41.277884 
L 187.650296 40.813398 
L 190.051587 40.60856 
L 195.654599 40.553705 
L 338.1312 40.552125 
L 483.009091 40.552125 
L 483.009091 40.552125 
" clip-path="url(#pe11d8add05)" style="fill: none; stroke: #ff7f0e; stroke-width: 1.5; stroke-linecap: square"/>
   </g>
   <g id="line2d_27">
    <path d="M 77.190909 292.552125 
L 483.009091 292.552125 
L 483.009091 292.552125 
" clip-path="url(#pe11d8add05)" style="fill: none; stroke: #2ca02c; stroke-width: 1.5; stroke-linecap: square"/>
   </g>
   <g id="line2d_28">
    <path d="M 77.190909 292.552125 
L 78.79177 292.552125 
L 79.5922 288.520125 
L 80.39263 282.068925 
L 81.193061 278.198205 
L 81.993491 277.891773 
L 82.793921 275.691914 
L 83.594352 272.355998 
L 84.394782 272.370449 
L 85.195212 274.39512 
L 85.995643 277.625922 
L 86.796073 279.564403 
L 87.596503 282.743492 
L 88.396934 272.554945 
L 89.197364 280.553817 
L 89.997795 285.35314 
L 90.798225 286.216734 
L 91.598655 282.702891 
L 92.399086 282.610584 
L 93.199516 274.491201 
L 93.999946 275.667571 
L 94.800377 274.357393 
L 95.600807 277.603286 
L 96.401237 277.534822 
L 97.201668 281.525743 
L 98.002098 283.920296 
L 98.802528 279.309028 
L 99.602959 282.590267 
L 100.403389 278.51101 
L 101.203819 280.095456 
L 102.00425 272.982124 
L 103.60511 272.604525 
L 104.405541 276.551565 
L 105.205971 276.903789 
L 106.006401 273.083123 
L 106.806832 274.822724 
L 107.607262 277.882485 
L 108.407692 279.718341 
L 109.208123 270.739854 
L 110.008553 267.368763 
L 110.808983 265.346108 
L 111.609414 266.148515 
L 112.409844 268.645959 
L 113.210274 270.144426 
L 114.010705 271.043506 
L 114.811135 271.582953 
L 115.611565 267.874622 
L 116.411996 263.633623 
L 117.212426 257.057023 
L 118.012856 253.111063 
L 118.813287 260.823488 
L 120.414147 270.243416 
L 121.214578 271.1029 
L 122.015008 275.65059 
L 122.815438 276.363204 
L 123.615869 272.758772 
L 124.416299 274.628114 
L 125.216729 275.749718 
L 126.01716 266.342681 
L 126.81759 266.746459 
L 127.61802 266.988725 
L 128.418451 271.166085 
L 129.218881 273.672501 
L 130.019311 275.176351 
L 130.819742 276.078661 
L 131.620172 276.620047 
L 132.420602 276.944878 
L 133.221033 273.107777 
L 134.021463 272.821516 
L 134.821893 274.66576 
L 135.622324 273.756306 
L 136.422754 275.226634 
L 137.223185 280.14083 
L 138.023615 277.041348 
L 138.824045 275.181659 
L 139.624476 274.065846 
L 140.424906 277.428358 
L 141.225336 281.461865 
L 142.025767 277.833969 
L 142.826197 277.673231 
L 143.626627 269.512789 
L 144.427058 266.632524 
L 145.227488 258.856363 
L 146.027918 264.270668 
L 146.828349 265.503251 
L 147.628779 268.258801 
L 148.429209 269.912131 
L 149.22964 274.936128 
L 150.03007 263.838526 
L 150.8305 263.227966 
L 151.630931 254.797629 
L 152.431361 257.803428 
L 153.231791 259.606907 
L 154.032222 252.624994 
L 154.832652 258.515846 
L 155.633082 268.098358 
L 156.433513 257.719864 
L 157.233943 255.524769 
L 158.034373 256.223711 
L 158.834804 258.659077 
L 159.635234 250.040296 
L 160.435664 250.917028 
L 162.036525 240.065891 
L 162.836955 238.884385 
L 163.637386 224.063479 
L 164.437816 221.218936 
L 165.238246 225.560212 
L 166.038677 224.132977 
L 166.839107 223.276636 
L 167.639537 214.69883 
L 168.439968 201.488148 
L 169.240398 205.65774 
L 170.040828 216.223494 
L 170.841259 214.498947 
L 171.641689 223.544219 
L 172.442119 226.955382 
L 173.24255 222.954078 
L 174.04298 236.681297 
L 174.84341 240.885627 
L 175.643841 251.472226 
L 176.444271 253.792186 
L 177.244701 253.168162 
L 178.045132 252.793747 
L 179.645992 252.43431 
L 180.446423 250.337435 
L 181.246853 249.07931 
L 182.047283 246.308436 
L 182.847714 228.51791 
L 183.648144 225.907596 
L 184.448575 230.389408 
L 185.249005 233.078495 
L 186.049435 228.643947 
L 186.849866 240.095218 
L 188.450726 216.010039 
L 189.251157 214.370874 
L 190.051587 219.435376 
L 190.852017 228.522075 
L 191.652448 217.846094 
L 192.452878 231.600507 
L 193.253308 215.661153 
L 194.053739 212.145542 
L 194.854169 216.084175 
L 195.654599 204.335356 
L 197.25546 217.651689 
L 198.05589 215.355864 
L 198.856321 218.010368 
L 199.656751 203.475071 
L 200.457181 214.913893 
L 201.257612 213.713187 
L 202.058042 215.008761 
L 202.858472 213.770107 
L 203.658903 202.946916 
L 204.459333 210.564999 
L 205.259763 213.119848 
L 206.060194 200.540759 
L 206.860624 209.121305 
L 207.661054 204.189634 
L 208.461485 191.150631 
L 209.261915 201.471228 
L 210.062345 199.599587 
L 210.862776 202.508602 
L 211.663206 198.206011 
L 212.463636 195.624456 
L 213.264067 196.091524 
L 214.064497 196.371765 
L 214.864927 192.50791 
L 215.665358 196.237595 
L 216.465788 188.395406 
L 217.266218 183.690093 
L 218.066649 184.898907 
L 218.867079 187.640194 
L 219.667509 185.252966 
L 220.46794 199.94863 
L 221.26837 190.622027 
L 222.0688 197.122066 
L 222.869231 192.958091 
L 223.669661 192.475704 
L 224.470091 182.106272 
L 225.270522 181.932614 
L 226.070952 189.892417 
L 226.871382 200.716299 
L 227.671813 205.19463 
L 229.272673 191.349828 
L 230.073104 197.558746 
L 230.873534 201.284097 
L 231.673964 189.40731 
L 232.474395 196.393235 
L 233.274825 208.648792 
L 234.075256 199.874127 
L 234.875686 202.673326 
L 235.676116 194.272846 
L 236.476547 181.168559 
L 237.276977 175.321986 
L 238.077407 171.814041 
L 238.877838 191.885275 
L 239.678268 201.912014 
L 240.478698 185.75206 
L 241.279129 180.088087 
L 242.079559 186.769703 
L 242.879989 182.714671 
L 243.68042 194.393653 
L 245.28128 181.010276 
L 246.081711 185.307015 
L 246.882141 183.853059 
L 247.682571 172.900683 
L 248.483002 174.393259 
L 249.283432 183.352806 
L 250.083862 174.616536 
L 250.884293 177.438772 
L 251.684723 175.100114 
L 252.485153 169.66492 
L 253.285584 178.499802 
L 254.086014 185.816731 
L 254.886444 188.190888 
L 255.686875 189.615382 
L 256.487305 184.422079 
L 257.287735 183.322097 
L 258.088166 178.63011 
L 258.888596 179.846916 
L 259.689026 188.640998 
L 260.489457 189.885448 
L 261.289887 184.584118 
L 262.090317 175.355323 
L 262.890748 153.690043 
L 263.691178 160.850877 
L 264.491608 169.179376 
L 265.292039 170.144477 
L 266.092469 172.739535 
L 266.892899 158.168571 
L 267.69333 155.473992 
L 268.49376 161.921246 
L 269.29419 165.789599 
L 270.094621 178.19061 
L 270.895051 179.583216 
L 271.695481 174.37078 
L 272.495912 171.243318 
L 273.296342 157.27084 
L 274.096772 158.967356 
L 274.897203 162.001264 
L 275.697633 165.837609 
L 276.498063 172.171416 
L 277.298494 161.859701 
L 278.098924 157.68867 
L 278.899354 165.266051 
L 279.699785 165.780481 
L 280.500215 164.07314 
L 281.300646 154.984732 
L 282.101076 151.547691 
L 282.901506 145.453464 
L 283.701937 153.892928 
L 284.502367 158.956607 
L 285.302797 157.962812 
L 286.103228 167.446537 
L 286.903658 173.136773 
L 287.704088 164.454913 
L 288.504519 149.165795 
L 289.304949 152.088325 
L 290.105379 137.713846 
L 290.90581 157.313159 
L 291.70624 154.960745 
L 292.50667 145.485299 
L 293.307101 151.896031 
L 294.107531 143.64647 
L 294.907961 170.952733 
L 295.708392 175.24049 
L 297.309252 233.385536 
L 298.109683 224.796172 
L 298.910113 221.658552 
L 299.710543 213.72798 
L 300.510974 194.857638 
L 301.311404 197.647431 
L 302.111834 171.09731 
L 302.912265 159.199234 
L 303.712695 152.060388 
L 304.513125 149.793084 
L 305.313556 138.3527 
L 306.113986 143.58447 
L 306.914416 152.771532 
L 307.714847 166.34777 
L 308.515277 150.30151 
L 309.315707 140.673753 
L 310.116138 149.009104 
L 310.916568 139.89831 
L 311.716998 138.463835 
L 312.517429 149.699151 
L 313.317859 136.280342 
L 314.118289 140.325057 
L 314.91872 138.719884 
L 315.71915 147.836782 
L 316.51958 139.194917 
L 317.320011 148.121802 
L 318.120441 161.541931 
L 318.920871 157.498009 
L 319.721302 149.023655 
L 320.521732 149.987043 
L 321.322162 150.565075 
L 322.122593 148.895897 
L 322.923023 147.89439 
L 323.723453 155.357484 
L 324.523884 165.883341 
L 325.324314 166.150854 
L 326.124744 184.455363 
L 326.925175 193.422068 
L 327.725605 194.770091 
L 328.526036 203.642903 
L 330.126896 217.402406 
L 330.927327 229.318293 
L 331.727757 238.483826 
L 332.528187 243.983146 
L 333.328618 237.202739 
L 334.129048 239.182493 
L 334.929478 234.322347 
L 335.729909 233.422259 
L 336.530339 220.786204 
L 337.330769 197.076574 
L 338.1312 182.850796 
L 338.93163 182.379328 
L 339.73206 174.032449 
L 340.532491 169.024321 
L 341.332921 186.179443 
L 342.133351 196.472517 
L 342.933782 190.55236 
L 343.734212 170.872264 
L 344.534642 159.064206 
L 346.135503 169.098074 
L 346.935933 168.079694 
L 347.736364 157.388664 
L 348.536794 163.07005 
L 350.137655 204.408978 
L 350.938085 229.586237 
L 352.538946 242.870005 
L 353.339376 244.598852 
L 354.139806 241.604162 
L 354.940237 243.839346 
L 355.740667 229.052457 
L 356.541097 244.372324 
L 357.341528 245.500244 
L 358.141958 244.160996 
L 358.942388 245.373447 
L 359.742819 238.036919 
L 360.543249 243.715002 
L 361.343679 247.121851 
L 362.14411 249.165961 
L 363.74497 222.501104 
L 364.545401 192.057514 
L 365.345831 191.935358 
L 366.146261 197.910064 
L 366.946692 195.446888 
L 367.747122 204.048982 
L 368.547552 203.162238 
L 369.347983 206.662193 
L 370.148413 208.762167 
L 370.948843 216.070151 
L 371.749274 208.358941 
L 372.549704 227.924215 
L 373.350134 229.583379 
L 374.150565 246.706878 
L 374.950995 261.012977 
L 375.751425 259.516636 
L 376.551856 260.634832 
L 377.352286 265.337749 
L 378.152717 252.0315 
L 378.953147 244.047751 
L 379.753577 233.209499 
L 380.554008 228.722549 
L 381.354438 215.95038 
L 382.154868 200.223077 
L 382.955299 208.930696 
L 383.755729 216.171269 
L 384.556159 234.627611 
L 385.35659 249.733417 
L 386.15702 248.7169 
L 386.95745 258.18699 
L 387.757881 265.885044 
L 390.159172 249.939555 
L 390.959602 252.872583 
L 391.760032 232.456398 
L 392.560463 232.30269 
L 393.360893 240.274464 
L 394.161323 251.105528 
L 394.961754 247.524167 
L 395.762184 253.43935 
L 396.562614 256.98846 
L 397.363045 271.213926 
L 398.163475 267.653206 
L 399.764336 267.460514 
L 400.564766 251.289159 
L 401.365196 253.682346 
L 402.165627 269.230257 
L 402.966057 274.527004 
L 403.766487 269.641053 
L 404.566918 262.677482 
L 405.367348 258.49934 
L 406.167778 266.072454 
L 406.968209 266.584322 
L 407.768639 270.923443 
L 408.569069 265.462916 
L 409.3695 266.218599 
L 410.16993 252.56001 
L 410.97036 260.492856 
L 411.770791 261.220564 
L 412.571221 245.529188 
L 413.371651 236.114363 
L 414.172082 228.449467 
L 414.972512 233.93053 
L 415.772942 253.347168 
L 416.573373 267.013151 
L 417.373803 275.212741 
L 418.174233 276.100494 
L 418.974664 266.553147 
L 419.775094 262.840738 
L 420.575524 262.629293 
L 421.375955 256.454425 
L 422.176385 254.765505 
L 422.976815 239.640152 
L 423.777246 244.676942 
L 424.577676 229.555015 
L 425.378107 228.54586 
L 426.178537 229.956366 
L 426.978967 210.64267 
L 427.779398 215.182452 
L 429.380258 204.622242 
L 430.180689 195.442196 
L 430.981119 212.110167 
L 431.781549 197.91895 
L 432.58198 189.404219 
L 433.38241 192.359382 
L 434.18284 188.084479 
L 434.983271 185.519538 
L 435.783701 194.060572 
L 436.584131 193.137193 
L 437.384562 182.503166 
L 438.985422 173.5041 
L 439.785853 184.835309 
L 440.586283 183.570035 
L 441.386713 184.826873 
L 442.187144 187.596973 
L 442.987574 193.291032 
L 443.788004 184.61147 
L 445.388865 152.087088 
L 446.189295 155.857105 
L 446.989726 129.895112 
L 447.790156 144.557917 
L 448.590586 141.2596 
L 449.391017 163.47261 
L 450.191447 178.816415 
L 450.991877 186.006699 
L 451.792308 196.36887 
L 452.592738 196.538173 
L 453.393168 182.527756 
L 454.193599 164.041503 
L 454.994029 165.045752 
L 455.794459 153.552301 
L 456.59489 166.816232 
L 457.39532 166.710589 
L 458.19575 158.583205 
L 458.996181 155.722773 
L 459.796611 170.134513 
L 460.597041 156.605557 
L 461.397472 174.696183 
L 462.197902 165.39056 
L 462.998332 165.855186 
L 463.798763 168.149963 
L 464.599193 173.558828 
L 465.399623 168.740149 
L 466.200054 169.88094 
L 467.800914 187.910497 
L 468.601345 185.415148 
L 469.401775 173.837937 
L 470.202205 154.795609 
L 471.002636 153.450215 
L 471.803066 152.642979 
L 472.603497 172.318636 
L 473.403927 180.092031 
L 474.204357 166.61207 
L 475.004788 168.604093 
L 475.805218 173.831306 
L 476.605648 170.919634 
L 477.406079 179.25263 
L 478.206509 182.236429 
L 479.006939 186.042707 
L 479.80737 192.358473 
L 480.6078 188.083934 
L 481.40823 189.55121 
L 483.009091 199.426994 
L 483.009091 199.426994 
" clip-path="url(#pe11d8add05)" style="fill: none; stroke: #d62728; stroke-width: 1.5; stroke-linecap: square"/>
   </g>
   <g id="line2d_29">
    <path d="M 77.190909 292.552125 
L 483.009091 292.552125 
L 483.009091 292.552125 
" clip-path="url(#pe11d8add05)" style="fill: none; stroke: #9467bd; stroke-width: 1.5; stroke-linecap: square"/>
   </g>
   <g id="patch_3">
    <path d="M 56.9 305.152125 
L 56.9 27.952125 
" style="fill: none; stroke: #000000; stroke-width: 0.8; stroke-linejoin: miter; stroke-linecap: square"/>
   </g>
   <g id="patch_4">
    <path d="M 503.3 305.152125 
L 503.3 27.952125 
" style="fill: none; stroke: #000000; stroke-width: 0.8; stroke-linejoin: miter; stroke-linecap: square"/>
   </g>
   <g id="patch_5">
    <path d="M 56.9 305.152125 
L 503.3 305.152125 
" style="fill: none; stroke: #000000; stroke-width: 0.8; stroke-linejoin: miter; stroke-linecap: square"/>
   </g>
   <g id="patch_6">
    <path d="M 56.9 27.952125 
L 503.3 27.952125 
" style="fill: none; stroke: #000000; stroke-width: 0.8; stroke-linejoin: miter; stroke-linecap: square"/>
   </g>
   <g id="text_16">
    <!-- ML10 Meta Testing -->
    <g transform="translate(193.104313 21.952125)scale(0.216 -0.216)">
     <defs>
      <path id="STIXGeneral-Regular-4d" d="M 5530 0 
L 3738 0 
L 3738 122 
Q 4115 147 4214 265 
Q 4314 384 4314 787 
L 4314 3661 
L 2682 0 
L 2592 0 
L 979 3514 
L 979 966 
Q 979 448 1088 294 
Q 1197 141 1574 122 
L 1574 0 
L 77 0 
L 77 122 
Q 358 141 480 205 
Q 602 269 650 432 
Q 698 595 698 966 
L 698 3514 
Q 698 3878 589 3984 
Q 480 4090 90 4115 
L 90 4237 
L 1357 4237 
L 2835 1024 
L 4250 4237 
L 5523 4237 
L 5523 4115 
Q 5178 4109 5072 3993 
Q 4966 3878 4966 3520 
L 4966 717 
Q 4966 378 5072 262 
Q 5178 147 5530 122 
L 5530 0 
z
" transform="scale(0.015625)"/>
      <path id="STIXGeneral-Regular-4c" d="M 3827 1114 
L 3520 0 
L 77 0 
L 77 122 
Q 429 141 531 256 
Q 634 371 634 736 
L 634 3494 
Q 634 3872 541 3981 
Q 448 4090 77 4115 
L 77 4237 
L 1888 4237 
L 1888 4115 
Q 1498 4090 1392 3984 
Q 1286 3878 1286 3507 
L 1286 538 
Q 1286 358 1398 304 
Q 1510 250 1862 250 
L 2310 250 
Q 3085 250 3392 640 
Q 3520 813 3661 1114 
L 3827 1114 
z
" transform="scale(0.015625)"/>
     </defs>
     <use xlink:href="#STIXGeneral-Regular-4d"/>
     <use xlink:href="#STIXGeneral-Regular-4c" x="88.899994"/>
     <use xlink:href="#STIXGeneral-Regular-31" x="149.999985"/>
     <use xlink:href="#STIXGeneral-Regular-30" x="199.999969"/>
     <use xlink:href="#STIXGeneral-Regular-20" x="249.999954"/>
     <use xlink:href="#STIXGeneral-Regular-4d" x="274.999939"/>
     <use xlink:href="#STIXGeneral-Regular-65" x="363.899933"/>
     <use xlink:href="#STIXGeneral-Regular-74" x="408.299927"/>
     <use xlink:href="#STIXGeneral-Regular-61" x="436.099915"/>
     <use xlink:href="#STIXGeneral-Regular-20" x="480.499908"/>
     <use xlink:href="#STIXGeneral-Regular-54" x="505.499893"/>
     <use xlink:href="#STIXGeneral-Regular-65" x="566.599884"/>
     <use xlink:href="#STIXGeneral-Regular-73" x="610.999878"/>
     <use xlink:href="#STIXGeneral-Regular-74" x="649.899872"/>
     <use xlink:href="#STIXGeneral-Regular-69" x="677.69986"/>
     <use xlink:href="#STIXGeneral-Regular-6e" x="705.499847"/>
     <use xlink:href="#STIXGeneral-Regular-67" x="755.499832"/>
    </g>
   </g>
   <g id="legend_1">
    <g id="patch_7">
     <path d="M 62.5 205.052125 
L 172.905313 205.052125 
Q 175.705313 205.052125 175.705313 202.252125 
L 175.705313 130.852125 
Q 175.705313 128.052125 172.905313 128.052125 
L 62.5 128.052125 
Q 59.7 128.052125 59.7 130.852125 
L 59.7 202.252125 
Q 59.7 205.052125 62.5 205.052125 
z
" style="fill: #ffffff; opacity: 0.8; stroke: #cccccc; stroke-linejoin: miter"/>
    </g>
    <g id="line2d_30">
     <path d="M 63.9 137.963687 
L 70.9 137.963687 
L 77.9 137.963687 
" style="fill: none; stroke: #1f77b4; stroke-width: 1.5; stroke-linecap: square"/>
    </g>
    <g id="text_17">
     <!-- drawer-open-v2 -->
     <g transform="translate(82.1 141.813687)scale(0.14 -0.14)">
      <defs>
       <path id="STIXGeneral-Regular-64" d="M 3142 269 
L 2202 -64 
L 2176 -45 
L 2176 365 
Q 1869 -64 1357 -64 
Q 826 -64 499 317 
Q 173 698 173 1312 
Q 173 1990 563 2467 
Q 954 2944 1504 2944 
Q 1850 2944 2176 2669 
L 2176 3667 
Q 2176 3866 2118 3930 
Q 2061 3994 1882 3994 
Q 1792 3994 1741 3987 
L 1741 4090 
Q 2323 4243 2682 4371 
L 2714 4358 
L 2714 730 
Q 2714 506 2768 435 
Q 2822 365 2995 365 
Q 3034 365 3142 371 
L 3142 269 
z
M 2176 653 
L 2176 2125 
Q 2176 2381 1981 2573 
Q 1786 2765 1523 2765 
Q 1158 2765 940 2438 
Q 723 2112 723 1568 
Q 723 979 963 624 
Q 1203 269 1606 269 
Q 1907 269 2080 474 
Q 2176 582 2176 653 
z
" transform="scale(0.015625)"/>
       <path id="STIXGeneral-Regular-77" d="M 4442 2880 
L 4442 2784 
Q 4346 2752 4301 2691 
Q 4256 2630 4179 2438 
L 3296 224 
Q 3168 -90 3117 -90 
Q 3085 -90 3062 -48 
Q 3040 -6 2963 186 
L 2381 1696 
L 1664 160 
Q 1549 -90 1504 -90 
Q 1446 -90 1338 192 
L 474 2381 
Q 378 2630 314 2700 
Q 250 2771 134 2784 
L 134 2880 
L 1286 2880 
L 1286 2784 
Q 1120 2765 1056 2720 
Q 992 2675 992 2573 
Q 992 2477 1030 2381 
L 1664 710 
L 2246 1984 
L 2118 2342 
Q 2029 2598 1942 2681 
Q 1856 2765 1677 2784 
L 1677 2880 
L 2976 2880 
L 2976 2784 
Q 2752 2752 2678 2707 
Q 2605 2662 2605 2560 
Q 2605 2458 2714 2176 
L 3251 742 
L 3827 2163 
Q 3936 2432 3936 2592 
Q 3936 2669 3875 2710 
Q 3814 2752 3654 2784 
L 3654 2880 
L 4442 2880 
z
" transform="scale(0.015625)"/>
       <path id="STIXGeneral-Regular-2d" d="M 1824 1242 
L 250 1242 
L 250 1645 
L 1824 1645 
L 1824 1242 
z
" transform="scale(0.015625)"/>
      </defs>
      <use xlink:href="#STIXGeneral-Regular-64"/>
      <use xlink:href="#STIXGeneral-Regular-72" x="49.999985"/>
      <use xlink:href="#STIXGeneral-Regular-61" x="83.299973"/>
      <use xlink:href="#STIXGeneral-Regular-77" x="127.699966"/>
      <use xlink:href="#STIXGeneral-Regular-65" x="199.899948"/>
      <use xlink:href="#STIXGeneral-Regular-72" x="244.299942"/>
      <use xlink:href="#STIXGeneral-Regular-2d" x="277.59993"/>
      <use xlink:href="#STIXGeneral-Regular-6f" x="310.899918"/>
      <use xlink:href="#STIXGeneral-Regular-70" x="360.899902"/>
      <use xlink:href="#STIXGeneral-Regular-65" x="410.899887"/>
      <use xlink:href="#STIXGeneral-Regular-6e" x="455.299881"/>
      <use xlink:href="#STIXGeneral-Regular-2d" x="505.299866"/>
      <use xlink:href="#STIXGeneral-Regular-76" x="538.599854"/>
      <use xlink:href="#STIXGeneral-Regular-32" x="588.599838"/>
     </g>
    </g>
    <g id="line2d_31">
     <path d="M 63.9 151.963687 
L 70.9 151.963687 
L 77.9 151.963687 
" style="fill: none; stroke: #ff7f0e; stroke-width: 1.5; stroke-linecap: square"/>
    </g>
    <g id="text_18">
     <!-- door-close-v2 -->
     <g transform="translate(82.1 155.813687)scale(0.14 -0.14)">
      <defs>
       <path id="STIXGeneral-Regular-6c" d="M 1645 0 
L 134 0 
L 134 96 
Q 435 122 531 221 
Q 627 320 627 589 
L 627 3590 
Q 627 3821 569 3910 
Q 512 4000 358 4000 
Q 224 4000 122 3987 
L 122 4090 
Q 730 4237 1133 4371 
L 1165 4346 
L 1165 557 
Q 1165 288 1254 201 
Q 1344 115 1645 96 
L 1645 0 
z
" transform="scale(0.015625)"/>
      </defs>
      <use xlink:href="#STIXGeneral-Regular-64"/>
      <use xlink:href="#STIXGeneral-Regular-6f" x="49.999985"/>
      <use xlink:href="#STIXGeneral-Regular-6f" x="99.999969"/>
      <use xlink:href="#STIXGeneral-Regular-72" x="149.999954"/>
      <use xlink:href="#STIXGeneral-Regular-2d" x="183.299942"/>
      <use xlink:href="#STIXGeneral-Regular-63" x="216.59993"/>
      <use xlink:href="#STIXGeneral-Regular-6c" x="260.999924"/>
      <use xlink:href="#STIXGeneral-Regular-6f" x="288.799911"/>
      <use xlink:href="#STIXGeneral-Regular-73" x="338.799896"/>
      <use xlink:href="#STIXGeneral-Regular-65" x="377.69989"/>
      <use xlink:href="#STIXGeneral-Regular-2d" x="422.099884"/>
      <use xlink:href="#STIXGeneral-Regular-76" x="455.399872"/>
      <use xlink:href="#STIXGeneral-Regular-32" x="505.399857"/>
     </g>
    </g>
    <g id="line2d_32">
     <path d="M 63.9 165.963687 
L 70.9 165.963687 
L 77.9 165.963687 
" style="fill: none; stroke: #2ca02c; stroke-width: 1.5; stroke-linecap: square"/>
    </g>
    <g id="text_19">
     <!-- shelf-place-v2 -->
     <g transform="translate(82.1 169.813687)scale(0.14 -0.14)">
      <defs>
       <path id="STIXGeneral-Regular-68" d="M 3117 0 
L 1760 0 
L 1760 96 
Q 2042 128 2118 224 
Q 2195 320 2195 653 
L 2195 1920 
Q 2195 2598 1722 2598 
Q 1530 2598 1370 2508 
Q 1210 2419 1005 2195 
L 1005 653 
Q 1005 320 1081 224 
Q 1158 128 1440 96 
L 1440 0 
L 58 0 
L 58 96 
Q 333 134 400 224 
Q 467 314 467 653 
L 467 3667 
Q 467 3872 406 3933 
Q 346 3994 141 3994 
Q 83 3994 64 3987 
L 64 4090 
L 237 4141 
Q 730 4288 973 4371 
L 1005 4352 
L 1005 2406 
Q 1229 2694 1446 2819 
Q 1664 2944 1946 2944 
Q 2733 2944 2733 1926 
L 2733 653 
Q 2733 320 2793 233 
Q 2854 147 3117 96 
L 3117 0 
z
" transform="scale(0.015625)"/>
       <path id="STIXGeneral-Regular-66" d="M 134 2880 
L 659 2880 
Q 666 3264 710 3478 
Q 755 3693 883 3910 
Q 1152 4371 1786 4371 
Q 2074 4371 2262 4259 
Q 2451 4147 2451 3974 
Q 2451 3866 2374 3789 
Q 2298 3712 2182 3712 
Q 2029 3712 1894 3942 
Q 1741 4192 1555 4192 
Q 1197 4192 1197 3622 
L 1197 2880 
L 1978 2880 
L 1978 2675 
L 1197 2675 
L 1197 666 
Q 1197 307 1299 208 
Q 1402 109 1792 96 
L 1792 0 
L 128 0 
L 128 96 
Q 474 115 566 214 
Q 659 314 659 666 
L 659 2675 
L 134 2675 
L 134 2880 
z
" transform="scale(0.015625)"/>
      </defs>
      <use xlink:href="#STIXGeneral-Regular-73"/>
      <use xlink:href="#STIXGeneral-Regular-68" x="38.899994"/>
      <use xlink:href="#STIXGeneral-Regular-65" x="88.899979"/>
      <use xlink:href="#STIXGeneral-Regular-6c" x="133.299973"/>
      <use xlink:href="#STIXGeneral-Regular-66" x="161.09996"/>
      <use xlink:href="#STIXGeneral-Regular-2d" x="194.399948"/>
      <use xlink:href="#STIXGeneral-Regular-70" x="227.699936"/>
      <use xlink:href="#STIXGeneral-Regular-6c" x="277.699921"/>
      <use xlink:href="#STIXGeneral-Regular-61" x="305.499908"/>
      <use xlink:href="#STIXGeneral-Regular-63" x="349.899902"/>
      <use xlink:href="#STIXGeneral-Regular-65" x="394.299896"/>
      <use xlink:href="#STIXGeneral-Regular-2d" x="438.69989"/>
      <use xlink:href="#STIXGeneral-Regular-76" x="471.999878"/>
      <use xlink:href="#STIXGeneral-Regular-32" x="521.999863"/>
     </g>
    </g>
    <g id="line2d_33">
     <path d="M 63.9 179.963687 
L 70.9 179.963687 
L 77.9 179.963687 
" style="fill: none; stroke: #d62728; stroke-width: 1.5; stroke-linecap: square"/>
    </g>
    <g id="text_20">
     <!-- sweep-into-v2 -->
     <g transform="translate(82.1 183.813687)scale(0.14 -0.14)">
      <use xlink:href="#STIXGeneral-Regular-73"/>
      <use xlink:href="#STIXGeneral-Regular-77" x="38.899994"/>
      <use xlink:href="#STIXGeneral-Regular-65" x="111.099976"/>
      <use xlink:href="#STIXGeneral-Regular-65" x="155.499969"/>
      <use xlink:href="#STIXGeneral-Regular-70" x="199.899963"/>
      <use xlink:href="#STIXGeneral-Regular-2d" x="249.899948"/>
      <use xlink:href="#STIXGeneral-Regular-69" x="283.199936"/>
      <use xlink:href="#STIXGeneral-Regular-6e" x="310.999924"/>
      <use xlink:href="#STIXGeneral-Regular-74" x="360.999908"/>
      <use xlink:href="#STIXGeneral-Regular-6f" x="388.799896"/>
      <use xlink:href="#STIXGeneral-Regular-2d" x="438.799881"/>
      <use xlink:href="#STIXGeneral-Regular-76" x="472.099869"/>
      <use xlink:href="#STIXGeneral-Regular-32" x="522.099854"/>
     </g>
    </g>
    <g id="line2d_34">
     <path d="M 63.9 193.963687 
L 70.9 193.963687 
L 77.9 193.963687 
" style="fill: none; stroke: #9467bd; stroke-width: 1.5; stroke-linecap: square"/>
    </g>
    <g id="text_21">
     <!-- lever-pull-v2 -->
     <g transform="translate(82.1 197.813687)scale(0.14 -0.14)">
      <use xlink:href="#STIXGeneral-Regular-6c"/>
      <use xlink:href="#STIXGeneral-Regular-65" x="27.799988"/>
      <use xlink:href="#STIXGeneral-Regular-76" x="72.199982"/>
      <use xlink:href="#STIXGeneral-Regular-65" x="122.199966"/>
      <use xlink:href="#STIXGeneral-Regular-72" x="166.59996"/>
      <use xlink:href="#STIXGeneral-Regular-2d" x="199.899948"/>
      <use xlink:href="#STIXGeneral-Regular-70" x="233.199936"/>
      <use xlink:href="#STIXGeneral-Regular-75" x="283.199921"/>
      <use xlink:href="#STIXGeneral-Regular-6c" x="333.199905"/>
      <use xlink:href="#STIXGeneral-Regular-6c" x="360.999893"/>
      <use xlink:href="#STIXGeneral-Regular-2d" x="388.799881"/>
      <use xlink:href="#STIXGeneral-Regular-76" x="422.099869"/>
      <use xlink:href="#STIXGeneral-Regular-32" x="472.099854"/>
     </g>
    </g>
   </g>
  </g>
 </g>
 <defs>
  <clipPath id="pe11d8add05">
   <rect x="56.9" y="27.952125" width="446.4" height="277.2"/>
  </clipPath>
 </defs>
</svg>
