<?xml version="1.0" encoding="utf-8" standalone="no"?>
<!DOCTYPE svg PUBLIC "-//W3C//DTD SVG 1.1//EN"
  "http://www.w3.org/Graphics/SVG/1.1/DTD/svg11.dtd">
<svg xmlns:xlink="http://www.w3.org/1999/xlink" width="524pt" height="377.416875pt" viewBox="0 0 524 377.416875" xmlns="http://www.w3.org/2000/svg" version="1.1">
 <metadata>
  <rdf:RDF xmlns:dc="http://purl.org/dc/elements/1.1/" xmlns:cc="http://creativecommons.org/ns#" xmlns:rdf="http://www.w3.org/1999/02/22-rdf-syntax-ns#">
   <cc:Work>
    <dc:type rdf:resource="http://purl.org/dc/dcmitype/StillImage"/>
    <dc:date>2021-12-16T16:50:03.067768</dc:date>
    <dc:format>image/svg+xml</dc:format>
    <dc:creator>
     <cc:Agent>
      <dc:title>Matplotlib v3.5.0, https://matplotlib.org/</dc:title>
     </cc:Agent>
    </dc:creator>
   </cc:Work>
  </rdf:RDF>
 </metadata>
 <defs>
  <style type="text/css">*{stroke-linejoin: round; stroke-linecap: butt}</style>
 </defs>
 <g id="figure_1">
  <g id="patch_1">
   <path d="M 0 377.416875 
L 524 377.416875 
L 524 0 
L 0 0 
z
" style="fill: #ffffff"/>
  </g>
  <g id="axes_1">
   <g id="patch_2">
    <path d="M 70.4 326.8 
L 516.8 326.8 
L 516.8 49.6 
L 70.4 49.6 
z
" style="fill: #ffffff"/>
   </g>
   <g id="matplotlib.axis_1">
    <g id="xtick_1">
     <g id="line2d_1">
      <path d="M 89.890479 326.8 
L 89.890479 49.6 
" clip-path="url(#p6b8ada7f91)" style="fill: none; stroke: #b0b0b0; stroke-width: 0.8; stroke-linecap: square"/>
     </g>
     <g id="line2d_2">
      <defs>
       <path id="md2e5e3afeb" d="M 0 0 
L 0 3.5 
" style="stroke: #000000; stroke-width: 0.8"/>
      </defs>
      <g>
       <use xlink:href="#md2e5e3afeb" x="89.890479" y="326.8" style="stroke: #000000; stroke-width: 0.8"/>
      </g>
     </g>
     <g id="text_1">
      <!-- 0.0 -->
      <g transform="translate(78.640479 346.093437)scale(0.18 -0.18)">
       <defs>
        <path id="STIXGeneral-Regular-30" d="M 3046 2112 
Q 3046 1683 2963 1302 
Q 2880 922 2717 602 
Q 2554 282 2266 96 
Q 1978 -90 1600 -90 
Q 1210 -90 915 108 
Q 621 307 461 640 
Q 301 973 227 1350 
Q 154 1728 154 2150 
Q 154 2746 301 3222 
Q 448 3699 790 4012 
Q 1133 4326 1626 4326 
Q 2253 4326 2649 3712 
Q 3046 3098 3046 2112 
z
M 2432 2080 
Q 2432 3091 2217 3625 
Q 2003 4160 1587 4160 
Q 1190 4160 979 3622 
Q 768 3085 768 2106 
Q 768 1120 979 598 
Q 1190 77 1600 77 
Q 2003 77 2217 598 
Q 2432 1120 2432 2080 
z
" transform="scale(0.015625)"/>
        <path id="STIXGeneral-Regular-2e" d="M 1158 275 
Q 1158 134 1052 32 
Q 947 -70 800 -70 
Q 653 -70 550 32 
Q 448 134 448 281 
Q 448 429 553 534 
Q 659 640 806 640 
Q 947 640 1052 531 
Q 1158 422 1158 275 
z
" transform="scale(0.015625)"/>
       </defs>
       <use xlink:href="#STIXGeneral-Regular-30"/>
       <use xlink:href="#STIXGeneral-Regular-2e" x="49.999985"/>
       <use xlink:href="#STIXGeneral-Regular-30" x="74.999969"/>
      </g>
     </g>
    </g>
    <g id="xtick_2">
     <g id="line2d_3">
      <path d="M 169.933513 326.8 
L 169.933513 49.6 
" clip-path="url(#p6b8ada7f91)" style="fill: none; stroke: #b0b0b0; stroke-width: 0.8; stroke-linecap: square"/>
     </g>
     <g id="line2d_4">
      <g>
       <use xlink:href="#md2e5e3afeb" x="169.933513" y="326.8" style="stroke: #000000; stroke-width: 0.8"/>
      </g>
     </g>
     <g id="text_2">
      <!-- 0.2 -->
      <g transform="translate(158.683513 346.093437)scale(0.18 -0.18)">
       <defs>
        <path id="STIXGeneral-Regular-32" d="M 3034 877 
L 2688 0 
L 186 0 
L 186 77 
L 1325 1286 
Q 1773 1754 1965 2144 
Q 2157 2534 2157 2950 
Q 2157 3379 1920 3616 
Q 1683 3853 1267 3853 
Q 922 3853 720 3673 
Q 518 3494 326 3021 
L 192 3053 
Q 301 3648 630 3987 
Q 960 4326 1523 4326 
Q 2054 4326 2380 4006 
Q 2707 3686 2707 3200 
Q 2707 2477 1888 1613 
L 832 486 
L 2330 486 
Q 2541 486 2665 569 
Q 2790 653 2944 915 
L 3034 877 
z
" transform="scale(0.015625)"/>
       </defs>
       <use xlink:href="#STIXGeneral-Regular-30"/>
       <use xlink:href="#STIXGeneral-Regular-2e" x="49.999985"/>
       <use xlink:href="#STIXGeneral-Regular-32" x="74.999969"/>
      </g>
     </g>
    </g>
    <g id="xtick_3">
     <g id="line2d_5">
      <path d="M 249.976547 326.8 
L 249.976547 49.6 
" clip-path="url(#p6b8ada7f91)" style="fill: none; stroke: #b0b0b0; stroke-width: 0.8; stroke-linecap: square"/>
     </g>
     <g id="line2d_6">
      <g>
       <use xlink:href="#md2e5e3afeb" x="249.976547" y="326.8" style="stroke: #000000; stroke-width: 0.8"/>
      </g>
     </g>
     <g id="text_3">
      <!-- 0.4 -->
      <g transform="translate(238.726547 346.093437)scale(0.18 -0.18)">
       <defs>
        <path id="STIXGeneral-Regular-34" d="M 3027 1069 
L 2368 1069 
L 2368 0 
L 1869 0 
L 1869 1069 
L 77 1069 
L 77 1478 
L 2086 4326 
L 2368 4326 
L 2368 1478 
L 3027 1478 
L 3027 1069 
z
M 1869 1478 
L 1869 3674 
L 333 1478 
L 1869 1478 
z
" transform="scale(0.015625)"/>
       </defs>
       <use xlink:href="#STIXGeneral-Regular-30"/>
       <use xlink:href="#STIXGeneral-Regular-2e" x="49.999985"/>
       <use xlink:href="#STIXGeneral-Regular-34" x="74.999969"/>
      </g>
     </g>
    </g>
    <g id="xtick_4">
     <g id="line2d_7">
      <path d="M 330.01958 326.8 
L 330.01958 49.6 
" clip-path="url(#p6b8ada7f91)" style="fill: none; stroke: #b0b0b0; stroke-width: 0.8; stroke-linecap: square"/>
     </g>
     <g id="line2d_8">
      <g>
       <use xlink:href="#md2e5e3afeb" x="330.01958" y="326.8" style="stroke: #000000; stroke-width: 0.8"/>
      </g>
     </g>
     <g id="text_4">
      <!-- 0.6 -->
      <g transform="translate(318.76958 346.093437)scale(0.18 -0.18)">
       <defs>
        <path id="STIXGeneral-Regular-36" d="M 2854 4378 
L 2867 4275 
Q 2112 4154 1606 3664 
Q 1101 3174 973 2451 
Q 1344 2739 1786 2739 
Q 2349 2739 2672 2380 
Q 2995 2022 2995 1402 
Q 2995 774 2669 378 
Q 2291 -90 1651 -90 
Q 870 -90 518 557 
Q 218 1107 218 1786 
Q 218 2835 915 3552 
Q 1312 3962 1731 4131 
Q 2150 4301 2854 4378 
z
M 2419 1203 
Q 2419 2445 1555 2445 
Q 1235 2445 1024 2275 
Q 813 2106 813 1702 
Q 813 954 1046 522 
Q 1280 90 1722 90 
Q 2061 90 2240 394 
Q 2419 698 2419 1203 
z
" transform="scale(0.015625)"/>
       </defs>
       <use xlink:href="#STIXGeneral-Regular-30"/>
       <use xlink:href="#STIXGeneral-Regular-2e" x="49.999985"/>
       <use xlink:href="#STIXGeneral-Regular-36" x="74.999969"/>
      </g>
     </g>
    </g>
    <g id="xtick_5">
     <g id="line2d_9">
      <path d="M 410.062614 326.8 
L 410.062614 49.6 
" clip-path="url(#p6b8ada7f91)" style="fill: none; stroke: #b0b0b0; stroke-width: 0.8; stroke-linecap: square"/>
     </g>
     <g id="line2d_10">
      <g>
       <use xlink:href="#md2e5e3afeb" x="410.062614" y="326.8" style="stroke: #000000; stroke-width: 0.8"/>
      </g>
     </g>
     <g id="text_5">
      <!-- 0.8 -->
      <g transform="translate(398.812614 346.093437)scale(0.18 -0.18)">
       <defs>
        <path id="STIXGeneral-Regular-38" d="M 2848 992 
Q 2848 499 2505 204 
Q 2163 -90 1587 -90 
Q 1050 -90 704 204 
Q 358 499 358 954 
Q 358 1293 524 1533 
Q 691 1773 1190 2125 
Q 710 2522 553 2765 
Q 397 3008 397 3328 
Q 397 3782 745 4054 
Q 1094 4326 1638 4326 
Q 2106 4326 2410 4060 
Q 2714 3795 2714 3411 
Q 2714 3059 2531 2848 
Q 2349 2637 1856 2374 
Q 2432 1990 2640 1689 
Q 2848 1389 2848 992 
z
M 2272 3411 
Q 2272 3744 2086 3945 
Q 1901 4147 1574 4147 
Q 1248 4147 1059 3977 
Q 870 3808 870 3513 
Q 870 3219 1059 2979 
Q 1248 2739 1670 2490 
Q 1997 2682 2134 2896 
Q 2272 3110 2272 3411 
z
M 1734 1741 
L 1357 1997 
Q 1075 1766 960 1545 
Q 845 1325 845 1011 
Q 845 576 1065 333 
Q 1286 90 1658 90 
Q 1971 90 2166 285 
Q 2362 480 2362 794 
Q 2362 1082 2214 1299 
Q 2067 1517 1734 1741 
z
" transform="scale(0.015625)"/>
       </defs>
       <use xlink:href="#STIXGeneral-Regular-30"/>
       <use xlink:href="#STIXGeneral-Regular-2e" x="49.999985"/>
       <use xlink:href="#STIXGeneral-Regular-38" x="74.999969"/>
      </g>
     </g>
    </g>
    <g id="xtick_6">
     <g id="line2d_11">
      <path d="M 490.105648 326.8 
L 490.105648 49.6 
" clip-path="url(#p6b8ada7f91)" style="fill: none; stroke: #b0b0b0; stroke-width: 0.8; stroke-linecap: square"/>
     </g>
     <g id="line2d_12">
      <g>
       <use xlink:href="#md2e5e3afeb" x="490.105648" y="326.8" style="stroke: #000000; stroke-width: 0.8"/>
      </g>
     </g>
     <g id="text_6">
      <!-- 1.0 -->
      <g transform="translate(478.855648 346.093437)scale(0.18 -0.18)">
       <defs>
        <path id="STIXGeneral-Regular-31" d="M 2522 0 
L 755 0 
L 755 96 
Q 1107 115 1235 227 
Q 1363 339 1363 608 
L 1363 3482 
Q 1363 3795 1171 3795 
Q 1082 3795 883 3718 
L 710 3654 
L 710 3744 
L 1856 4326 
L 1914 4307 
L 1914 486 
Q 1914 275 2042 185 
Q 2170 96 2522 96 
L 2522 0 
z
" transform="scale(0.015625)"/>
       </defs>
       <use xlink:href="#STIXGeneral-Regular-31"/>
       <use xlink:href="#STIXGeneral-Regular-2e" x="49.999985"/>
       <use xlink:href="#STIXGeneral-Regular-30" x="74.999969"/>
      </g>
     </g>
    </g>
    <g id="text_7">
     <!-- Training Environment Steps -->
     <g transform="translate(191.604688 366.293437)scale(0.18 -0.18)">
      <defs>
       <path id="STIXGeneral-Regular-54" d="M 3795 3149 
L 3642 3149 
Q 3539 3674 3353 3821 
Q 3168 3968 2656 3968 
L 2278 3968 
L 2278 710 
Q 2278 346 2387 243 
Q 2496 141 2893 122 
L 2893 0 
L 1024 0 
L 1024 122 
Q 1427 147 1526 256 
Q 1626 365 1626 787 
L 1626 3968 
L 1242 3968 
Q 723 3968 540 3817 
Q 358 3667 262 3149 
L 109 3149 
L 154 4237 
L 3750 4237 
L 3795 3149 
z
" transform="scale(0.015625)"/>
       <path id="STIXGeneral-Regular-72" d="M 1024 2931 
L 1024 2342 
Q 1267 2688 1430 2816 
Q 1594 2944 1792 2944 
Q 1958 2944 2051 2854 
Q 2144 2765 2144 2605 
Q 2144 2470 2077 2393 
Q 2010 2317 1894 2317 
Q 1773 2317 1638 2445 
Q 1536 2541 1472 2541 
Q 1338 2541 1181 2355 
Q 1024 2170 1024 2016 
L 1024 576 
Q 1024 301 1133 205 
Q 1242 109 1568 96 
L 1568 0 
L 32 0 
L 32 96 
Q 339 154 412 224 
Q 486 294 486 538 
L 486 2138 
Q 486 2349 438 2435 
Q 390 2522 269 2522 
Q 166 2522 45 2496 
L 45 2598 
Q 448 2726 992 2944 
L 1024 2931 
z
" transform="scale(0.015625)"/>
       <path id="STIXGeneral-Regular-61" d="M 2829 422 
L 2829 243 
Q 2586 -64 2253 -64 
Q 1888 -64 1843 403 
L 1837 403 
Q 1427 -64 909 -64 
Q 608 -64 422 112 
Q 237 288 237 602 
Q 237 1050 685 1350 
Q 992 1555 1837 1869 
L 1837 2214 
Q 1837 2502 1699 2646 
Q 1562 2790 1338 2790 
Q 1146 2790 1018 2697 
Q 890 2605 890 2477 
Q 890 2419 909 2348 
Q 928 2278 928 2208 
Q 928 2112 841 2029 
Q 755 1946 634 1946 
Q 525 1946 441 2029 
Q 358 2112 358 2240 
Q 358 2547 685 2752 
Q 986 2944 1421 2944 
Q 1939 2944 2176 2656 
Q 2291 2522 2323 2384 
Q 2355 2246 2355 1946 
L 2355 723 
Q 2355 301 2554 301 
Q 2682 301 2829 422 
z
M 1837 813 
L 1837 1715 
Q 1248 1510 1018 1293 
Q 800 1094 800 800 
Q 800 557 921 432 
Q 1043 307 1242 307 
Q 1453 307 1613 410 
Q 1747 506 1792 589 
Q 1837 672 1837 813 
z
" transform="scale(0.015625)"/>
       <path id="STIXGeneral-Regular-69" d="M 1152 4045 
Q 1152 3904 1056 3811 
Q 960 3718 819 3718 
Q 685 3718 592 3811 
Q 499 3904 499 4045 
Q 499 4179 595 4275 
Q 691 4371 826 4371 
Q 966 4371 1059 4275 
Q 1152 4179 1152 4045 
z
M 1619 0 
L 102 0 
L 102 96 
Q 435 115 521 211 
Q 608 307 608 666 
L 608 2118 
Q 608 2342 563 2432 
Q 518 2522 397 2522 
Q 243 2522 128 2490 
L 128 2592 
L 1120 2944 
L 1146 2918 
L 1146 672 
Q 1146 314 1226 218 
Q 1306 122 1619 96 
L 1619 0 
z
" transform="scale(0.015625)"/>
       <path id="STIXGeneral-Regular-6e" d="M 3104 0 
L 1773 0 
L 1779 96 
Q 2016 115 2096 233 
Q 2176 352 2176 672 
L 2176 1946 
Q 2176 2592 1709 2592 
Q 1549 2592 1408 2515 
Q 1267 2438 1050 2227 
L 1050 461 
Q 1050 269 1136 192 
Q 1222 115 1466 96 
L 1466 0 
L 115 0 
L 115 96 
Q 358 115 435 214 
Q 512 314 512 602 
L 512 2157 
Q 512 2394 467 2483 
Q 422 2573 288 2573 
Q 160 2573 102 2547 
L 102 2656 
Q 550 2784 979 2944 
L 1030 2925 
L 1030 2426 
L 1037 2426 
Q 1491 2944 1958 2944 
Q 2323 2944 2518 2688 
Q 2714 2432 2714 1958 
L 2714 544 
Q 2714 288 2790 205 
Q 2867 122 3104 96 
L 3104 0 
z
" transform="scale(0.015625)"/>
       <path id="STIXGeneral-Regular-67" d="M 3008 2483 
L 2477 2483 
Q 2598 2208 2598 1946 
Q 2598 1453 2265 1203 
Q 1933 954 1600 954 
Q 1530 954 1357 973 
L 1235 986 
Q 1107 947 979 812 
Q 851 678 851 582 
Q 851 435 1350 410 
L 2176 371 
Q 2528 358 2739 172 
Q 2950 -13 2950 -314 
Q 2950 -685 2566 -986 
Q 2035 -1395 1286 -1395 
Q 826 -1395 502 -1212 
Q 179 -1030 179 -774 
Q 179 -595 320 -419 
Q 461 -243 806 6 
Q 602 102 534 172 
Q 467 243 467 346 
Q 467 531 762 787 
Q 909 915 1037 1043 
Q 717 1203 579 1401 
Q 442 1600 442 1901 
Q 442 2336 752 2640 
Q 1062 2944 1510 2944 
Q 1766 2944 2022 2848 
L 2163 2797 
Q 2349 2733 2515 2733 
L 3008 2733 
L 3008 2483 
z
M 973 2163 
L 973 2144 
Q 973 1683 1155 1398 
Q 1338 1114 1632 1114 
Q 1850 1114 1978 1270 
Q 2106 1427 2106 1690 
Q 2106 2112 1914 2464 
Q 1754 2765 1446 2765 
Q 1222 2765 1097 2605 
Q 973 2445 973 2163 
z
M 2771 -410 
Q 2771 -230 2595 -163 
Q 2419 -96 1978 -96 
Q 1344 -96 941 -13 
Q 749 -243 688 -348 
Q 627 -454 627 -563 
Q 627 -774 880 -902 
Q 1133 -1030 1555 -1030 
Q 2099 -1030 2435 -860 
Q 2771 -691 2771 -410 
z
" transform="scale(0.015625)"/>
       <path id="STIXGeneral-Regular-20" transform="scale(0.015625)"/>
       <path id="STIXGeneral-Regular-45" d="M 3821 1082 
L 3526 0 
L 77 0 
L 77 122 
Q 442 147 538 252 
Q 634 358 634 730 
L 634 3520 
Q 634 3878 534 3987 
Q 435 4096 77 4115 
L 77 4237 
L 3469 4237 
L 3494 3322 
L 3334 3322 
Q 3264 3750 3085 3872 
Q 2906 3994 2349 3994 
L 1510 3994 
Q 1370 3994 1328 3952 
Q 1286 3910 1286 3763 
L 1286 2355 
L 2253 2355 
Q 2656 2355 2787 2470 
Q 2918 2586 2976 2970 
L 3123 2970 
L 3123 1472 
L 2976 1472 
Q 2918 1875 2790 1984 
Q 2662 2093 2253 2093 
L 1286 2093 
L 1286 538 
Q 1286 346 1420 291 
Q 1555 237 1933 237 
L 2163 237 
Q 2848 237 3136 403 
Q 3424 570 3642 1082 
L 3821 1082 
z
" transform="scale(0.015625)"/>
       <path id="STIXGeneral-Regular-76" d="M 3053 2880 
L 3053 2784 
Q 2906 2771 2835 2688 
Q 2765 2605 2637 2285 
L 1818 230 
Q 1690 -90 1638 -90 
Q 1587 -90 1523 77 
Q 1510 96 1497 141 
Q 1485 186 1472 211 
L 704 2048 
Q 499 2534 403 2652 
Q 307 2771 122 2784 
L 122 2880 
L 1376 2880 
L 1376 2784 
Q 1210 2771 1146 2732 
Q 1082 2694 1082 2611 
Q 1082 2509 1139 2368 
L 1792 730 
L 2426 2387 
Q 2464 2483 2464 2579 
Q 2464 2758 2163 2784 
L 2163 2880 
L 3053 2880 
z
" transform="scale(0.015625)"/>
       <path id="STIXGeneral-Regular-6f" d="M 3008 1478 
Q 3008 806 2608 371 
Q 2208 -64 1568 -64 
Q 979 -64 582 368 
Q 186 800 186 1459 
Q 186 2125 582 2534 
Q 979 2944 1626 2944 
Q 2221 2944 2614 2537 
Q 3008 2131 3008 1478 
z
M 2432 1306 
Q 2432 2035 2112 2445 
Q 1856 2765 1504 2765 
Q 1171 2765 966 2493 
Q 762 2221 762 1747 
Q 762 928 1101 435 
Q 1318 115 1677 115 
Q 2029 115 2230 432 
Q 2432 749 2432 1306 
z
" transform="scale(0.015625)"/>
       <path id="STIXGeneral-Regular-6d" d="M 4960 0 
L 3565 0 
L 3565 96 
Q 3834 122 3907 208 
Q 3981 294 3981 576 
L 3981 1894 
Q 3981 2278 3869 2444 
Q 3757 2611 3488 2611 
Q 3264 2611 3107 2521 
Q 2950 2432 2803 2221 
L 2803 608 
Q 2803 301 2896 201 
Q 2989 102 3264 96 
L 3264 0 
L 1830 0 
L 1830 96 
Q 2112 115 2189 188 
Q 2266 262 2266 550 
L 2266 1901 
Q 2266 2611 1850 2611 
Q 1670 2611 1468 2531 
Q 1267 2451 1171 2336 
Q 1088 2240 1088 2227 
L 1088 448 
Q 1088 243 1177 176 
Q 1267 109 1523 96 
L 1523 0 
L 102 0 
L 102 96 
Q 371 102 460 195 
Q 550 288 550 563 
L 550 2150 
Q 550 2387 499 2480 
Q 448 2573 326 2573 
Q 230 2573 122 2547 
L 122 2656 
Q 557 2778 1011 2944 
L 1062 2925 
L 1062 2451 
L 1075 2451 
Q 1363 2752 1584 2848 
Q 1805 2944 2054 2944 
Q 2560 2944 2733 2406 
Q 3232 2944 3776 2944 
Q 4518 2944 4518 1792 
L 4518 493 
Q 4518 282 4582 202 
Q 4646 122 4794 109 
L 4960 96 
L 4960 0 
z
" transform="scale(0.015625)"/>
       <path id="STIXGeneral-Regular-65" d="M 2611 1050 
L 2714 1005 
Q 2330 -64 1376 -64 
Q 813 -64 486 329 
Q 160 723 160 1389 
Q 160 2074 525 2509 
Q 890 2944 1485 2944 
Q 2061 2944 2374 2502 
Q 2560 2246 2592 1773 
L 621 1773 
Q 646 1370 700 1158 
Q 755 947 915 730 
Q 1184 378 1626 378 
Q 1939 378 2153 531 
Q 2368 685 2611 1050 
z
M 634 1978 
L 1939 1978 
Q 1882 2381 1750 2547 
Q 1619 2714 1312 2714 
Q 1043 2714 864 2525 
Q 685 2336 634 1978 
z
" transform="scale(0.015625)"/>
       <path id="STIXGeneral-Regular-74" d="M 1702 493 
L 1786 422 
Q 1478 -64 1011 -64 
Q 448 -64 448 749 
L 448 2675 
L 109 2675 
Q 83 2694 83 2720 
Q 83 2771 192 2842 
Q 435 2982 813 3526 
Q 826 3546 874 3606 
Q 922 3667 941 3706 
Q 986 3706 986 3622 
L 986 2880 
L 1632 2880 
L 1632 2675 
L 986 2675 
L 986 845 
Q 986 538 1062 403 
Q 1139 269 1318 269 
Q 1510 269 1702 493 
z
" transform="scale(0.015625)"/>
       <path id="STIXGeneral-Regular-53" d="M 3002 2963 
L 2842 2963 
Q 2733 3360 2579 3565 
Q 2189 4064 1651 4064 
Q 1357 4064 1181 3894 
Q 1005 3725 1005 3456 
Q 1005 3328 1069 3206 
Q 1133 3085 1206 2998 
Q 1280 2912 1465 2784 
Q 1651 2656 1766 2589 
Q 1882 2522 2150 2362 
Q 2669 2061 2905 1763 
Q 3142 1466 3142 1107 
Q 3142 576 2771 243 
Q 2400 -90 1837 -90 
Q 1421 -90 1082 58 
Q 915 128 781 128 
Q 704 128 653 70 
Q 602 13 602 -83 
L 461 -83 
L 275 1274 
L 416 1274 
Q 845 141 1734 141 
Q 2074 141 2285 342 
Q 2496 544 2496 858 
Q 2496 1158 2310 1363 
Q 2003 1696 1235 2106 
Q 454 2522 454 3206 
Q 454 3718 768 4022 
Q 1082 4326 1568 4326 
Q 1907 4326 2240 4186 
Q 2413 4109 2522 4109 
Q 2688 4109 2726 4326 
L 2861 4326 
L 3002 2963 
z
" transform="scale(0.015625)"/>
       <path id="STIXGeneral-Regular-70" d="M 1018 2931 
L 1018 2438 
Q 1421 2944 1939 2944 
Q 2406 2944 2707 2560 
Q 3008 2176 3008 1581 
Q 3008 883 2621 409 
Q 2234 -64 1664 -64 
Q 1466 -64 1328 -6 
Q 1190 51 1018 211 
L 1018 -794 
Q 1018 -1094 1120 -1180 
Q 1222 -1267 1581 -1274 
L 1581 -1389 
L 32 -1389 
L 32 -1280 
Q 314 -1254 397 -1171 
Q 480 -1088 480 -838 
L 480 2157 
Q 480 2381 429 2451 
Q 378 2522 218 2522 
Q 115 2522 58 2515 
L 58 2618 
Q 506 2752 979 2944 
L 1018 2931 
z
M 1018 2138 
L 1018 563 
Q 1018 422 1238 281 
Q 1459 141 1683 141 
Q 2029 141 2243 467 
Q 2458 794 2458 1325 
Q 2458 1888 2243 2224 
Q 2029 2560 1670 2560 
Q 1446 2560 1232 2419 
Q 1018 2278 1018 2138 
z
" transform="scale(0.015625)"/>
       <path id="STIXGeneral-Regular-73" d="M 998 1926 
L 1664 1523 
Q 1984 1331 2105 1164 
Q 2227 998 2227 736 
Q 2227 416 1961 176 
Q 1696 -64 1331 -64 
Q 1030 -64 864 -6 
Q 691 51 570 51 
Q 461 51 416 -26 
L 333 -26 
L 333 979 
L 435 979 
Q 538 512 730 294 
Q 922 77 1248 77 
Q 1485 77 1632 211 
Q 1779 346 1779 550 
Q 1779 845 1440 1030 
L 1094 1222 
Q 326 1651 326 2150 
Q 326 2522 566 2730 
Q 806 2938 1210 2938 
Q 1491 2938 1638 2867 
Q 1754 2816 1818 2816 
Q 1862 2816 1920 2880 
L 1990 2880 
L 2022 2010 
L 1926 2010 
Q 1818 2445 1654 2621 
Q 1491 2797 1203 2797 
Q 986 2797 854 2688 
Q 723 2579 723 2362 
Q 723 2253 796 2128 
Q 870 2003 998 1926 
z
" transform="scale(0.015625)"/>
      </defs>
      <use xlink:href="#STIXGeneral-Regular-54"/>
      <use xlink:href="#STIXGeneral-Regular-72" x="61.099991"/>
      <use xlink:href="#STIXGeneral-Regular-61" x="94.399979"/>
      <use xlink:href="#STIXGeneral-Regular-69" x="138.799973"/>
      <use xlink:href="#STIXGeneral-Regular-6e" x="166.59996"/>
      <use xlink:href="#STIXGeneral-Regular-69" x="216.599945"/>
      <use xlink:href="#STIXGeneral-Regular-6e" x="244.399933"/>
      <use xlink:href="#STIXGeneral-Regular-67" x="294.399918"/>
      <use xlink:href="#STIXGeneral-Regular-20" x="344.399902"/>
      <use xlink:href="#STIXGeneral-Regular-45" x="369.399887"/>
      <use xlink:href="#STIXGeneral-Regular-6e" x="430.499878"/>
      <use xlink:href="#STIXGeneral-Regular-76" x="480.499863"/>
      <use xlink:href="#STIXGeneral-Regular-69" x="530.499847"/>
      <use xlink:href="#STIXGeneral-Regular-72" x="558.299835"/>
      <use xlink:href="#STIXGeneral-Regular-6f" x="591.599823"/>
      <use xlink:href="#STIXGeneral-Regular-6e" x="641.599808"/>
      <use xlink:href="#STIXGeneral-Regular-6d" x="691.599792"/>
      <use xlink:href="#STIXGeneral-Regular-65" x="769.39978"/>
      <use xlink:href="#STIXGeneral-Regular-6e" x="813.799774"/>
      <use xlink:href="#STIXGeneral-Regular-74" x="863.799759"/>
      <use xlink:href="#STIXGeneral-Regular-20" x="891.599747"/>
      <use xlink:href="#STIXGeneral-Regular-53" x="916.599731"/>
      <use xlink:href="#STIXGeneral-Regular-74" x="972.199722"/>
      <use xlink:href="#STIXGeneral-Regular-65" x="999.99971"/>
      <use xlink:href="#STIXGeneral-Regular-70" x="1044.399704"/>
      <use xlink:href="#STIXGeneral-Regular-73" x="1094.399689"/>
     </g>
    </g>
    <g id="text_8">
     <!-- 1e8 -->
     <g transform="translate(490.806875 365.293437)scale(0.18 -0.18)">
      <use xlink:href="#STIXGeneral-Regular-31"/>
      <use xlink:href="#STIXGeneral-Regular-65" x="49.999985"/>
      <use xlink:href="#STIXGeneral-Regular-38" x="94.399979"/>
     </g>
    </g>
   </g>
   <g id="matplotlib.axis_2">
    <g id="ytick_1">
     <g id="line2d_13">
      <path d="M 70.4 302.42523 
L 516.8 302.42523 
" clip-path="url(#p6b8ada7f91)" style="fill: none; stroke: #b0b0b0; stroke-width: 0.8; stroke-linecap: square"/>
     </g>
     <g id="line2d_14">
      <defs>
       <path id="mca02be7092" d="M 0 0 
L -3.5 0 
" style="stroke: #000000; stroke-width: 0.8"/>
      </defs>
      <g>
       <use xlink:href="#mca02be7092" x="70.4" y="302.42523" style="stroke: #000000; stroke-width: 0.8"/>
      </g>
     </g>
     <g id="text_9">
      <!-- 200 -->
      <g transform="translate(36.4 308.571948)scale(0.18 -0.18)">
       <use xlink:href="#STIXGeneral-Regular-32"/>
       <use xlink:href="#STIXGeneral-Regular-30" x="49.999985"/>
       <use xlink:href="#STIXGeneral-Regular-30" x="99.999969"/>
      </g>
     </g>
    </g>
    <g id="ytick_2">
     <g id="line2d_15">
      <path d="M 70.4 262.792169 
L 516.8 262.792169 
" clip-path="url(#p6b8ada7f91)" style="fill: none; stroke: #b0b0b0; stroke-width: 0.8; stroke-linecap: square"/>
     </g>
     <g id="line2d_16">
      <g>
       <use xlink:href="#mca02be7092" x="70.4" y="262.792169" style="stroke: #000000; stroke-width: 0.8"/>
      </g>
     </g>
     <g id="text_10">
      <!-- 400 -->
      <g transform="translate(36.4 268.938888)scale(0.18 -0.18)">
       <use xlink:href="#STIXGeneral-Regular-34"/>
       <use xlink:href="#STIXGeneral-Regular-30" x="49.999985"/>
       <use xlink:href="#STIXGeneral-Regular-30" x="99.999969"/>
      </g>
     </g>
    </g>
    <g id="ytick_3">
     <g id="line2d_17">
      <path d="M 70.4 223.159108 
L 516.8 223.159108 
" clip-path="url(#p6b8ada7f91)" style="fill: none; stroke: #b0b0b0; stroke-width: 0.8; stroke-linecap: square"/>
     </g>
     <g id="line2d_18">
      <g>
       <use xlink:href="#mca02be7092" x="70.4" y="223.159108" style="stroke: #000000; stroke-width: 0.8"/>
      </g>
     </g>
     <g id="text_11">
      <!-- 600 -->
      <g transform="translate(36.4 229.305827)scale(0.18 -0.18)">
       <use xlink:href="#STIXGeneral-Regular-36"/>
       <use xlink:href="#STIXGeneral-Regular-30" x="49.999985"/>
       <use xlink:href="#STIXGeneral-Regular-30" x="99.999969"/>
      </g>
     </g>
    </g>
    <g id="ytick_4">
     <g id="line2d_19">
      <path d="M 70.4 183.526047 
L 516.8 183.526047 
" clip-path="url(#p6b8ada7f91)" style="fill: none; stroke: #b0b0b0; stroke-width: 0.8; stroke-linecap: square"/>
     </g>
     <g id="line2d_20">
      <g>
       <use xlink:href="#mca02be7092" x="70.4" y="183.526047" style="stroke: #000000; stroke-width: 0.8"/>
      </g>
     </g>
     <g id="text_12">
      <!-- 800 -->
      <g transform="translate(36.4 189.672766)scale(0.18 -0.18)">
       <use xlink:href="#STIXGeneral-Regular-38"/>
       <use xlink:href="#STIXGeneral-Regular-30" x="49.999985"/>
       <use xlink:href="#STIXGeneral-Regular-30" x="99.999969"/>
      </g>
     </g>
    </g>
    <g id="ytick_5">
     <g id="line2d_21">
      <path d="M 70.4 143.892986 
L 516.8 143.892986 
" clip-path="url(#p6b8ada7f91)" style="fill: none; stroke: #b0b0b0; stroke-width: 0.8; stroke-linecap: square"/>
     </g>
     <g id="line2d_22">
      <g>
       <use xlink:href="#mca02be7092" x="70.4" y="143.892986" style="stroke: #000000; stroke-width: 0.8"/>
      </g>
     </g>
     <g id="text_13">
      <!-- 1000 -->
      <g transform="translate(27.4 150.039705)scale(0.18 -0.18)">
       <use xlink:href="#STIXGeneral-Regular-31"/>
       <use xlink:href="#STIXGeneral-Regular-30" x="49.999985"/>
       <use xlink:href="#STIXGeneral-Regular-30" x="99.999969"/>
       <use xlink:href="#STIXGeneral-Regular-30" x="149.999954"/>
      </g>
     </g>
    </g>
    <g id="ytick_6">
     <g id="line2d_23">
      <path d="M 70.4 104.259926 
L 516.8 104.259926 
" clip-path="url(#p6b8ada7f91)" style="fill: none; stroke: #b0b0b0; stroke-width: 0.8; stroke-linecap: square"/>
     </g>
     <g id="line2d_24">
      <g>
       <use xlink:href="#mca02be7092" x="70.4" y="104.259926" style="stroke: #000000; stroke-width: 0.8"/>
      </g>
     </g>
     <g id="text_14">
      <!-- 1200 -->
      <g transform="translate(27.4 110.406644)scale(0.18 -0.18)">
       <use xlink:href="#STIXGeneral-Regular-31"/>
       <use xlink:href="#STIXGeneral-Regular-32" x="49.999985"/>
       <use xlink:href="#STIXGeneral-Regular-30" x="99.999969"/>
       <use xlink:href="#STIXGeneral-Regular-30" x="149.999954"/>
      </g>
     </g>
    </g>
    <g id="ytick_7">
     <g id="line2d_25">
      <path d="M 70.4 64.626865 
L 516.8 64.626865 
" clip-path="url(#p6b8ada7f91)" style="fill: none; stroke: #b0b0b0; stroke-width: 0.8; stroke-linecap: square"/>
     </g>
     <g id="line2d_26">
      <g>
       <use xlink:href="#mca02be7092" x="70.4" y="64.626865" style="stroke: #000000; stroke-width: 0.8"/>
      </g>
     </g>
     <g id="text_15">
      <!-- 1400 -->
      <g transform="translate(27.4 70.773583)scale(0.18 -0.18)">
       <use xlink:href="#STIXGeneral-Regular-31"/>
       <use xlink:href="#STIXGeneral-Regular-34" x="49.999985"/>
       <use xlink:href="#STIXGeneral-Regular-30" x="99.999969"/>
       <use xlink:href="#STIXGeneral-Regular-30" x="149.999954"/>
      </g>
     </g>
    </g>
    <g id="text_16">
     <!-- Average Test Return -->
     <g transform="translate(19.476562 263.18125)rotate(-90)scale(0.18 -0.18)">
      <defs>
       <path id="STIXGeneral-Regular-41" d="M 4525 0 
L 2893 0 
L 2893 122 
Q 3149 122 3245 179 
Q 3334 224 3334 333 
Q 3334 499 3213 781 
L 2950 1382 
L 1274 1382 
L 979 653 
Q 922 506 922 384 
Q 922 237 1027 179 
Q 1133 122 1370 122 
L 1370 0 
L 96 0 
L 96 122 
Q 365 147 486 316 
Q 608 486 902 1190 
L 2221 4314 
L 2349 4314 
L 3923 710 
Q 4064 378 4176 262 
Q 4288 147 4525 122 
L 4525 0 
z
M 2861 1645 
L 2118 3405 
L 1382 1645 
L 2861 1645 
z
" transform="scale(0.015625)"/>
       <path id="STIXGeneral-Regular-52" d="M 4224 0 
L 3187 0 
L 1664 1971 
L 1306 1958 
L 1306 717 
Q 1306 352 1405 249 
Q 1504 147 1875 122 
L 1875 0 
L 109 0 
L 109 122 
Q 474 154 563 262 
Q 653 371 653 794 
L 653 3526 
Q 653 3885 563 3987 
Q 474 4090 109 4115 
L 109 4237 
L 1850 4237 
Q 2726 4237 3187 3859 
Q 3501 3603 3501 3091 
Q 3501 2221 2342 2042 
L 3622 422 
Q 3757 256 3878 198 
Q 4000 141 4224 122 
L 4224 0 
z
M 1306 3731 
L 1306 2195 
Q 1766 2202 1990 2246 
Q 2214 2291 2438 2413 
Q 2803 2618 2803 3142 
Q 2803 4000 1632 4000 
Q 1459 4000 1382 3945 
Q 1306 3891 1306 3731 
z
" transform="scale(0.015625)"/>
       <path id="STIXGeneral-Regular-75" d="M 3072 320 
L 3072 230 
Q 2573 96 2195 -58 
L 2163 -38 
L 2163 486 
L 2150 486 
Q 1747 -64 1235 -64 
Q 870 -64 662 160 
Q 454 384 454 755 
L 454 2362 
Q 454 2598 371 2688 
Q 288 2778 58 2790 
L 58 2880 
L 992 2880 
L 992 813 
Q 992 595 1123 451 
Q 1254 307 1446 307 
Q 1760 307 1984 506 
Q 2067 582 2099 649 
Q 2131 717 2131 877 
L 2131 2355 
Q 2131 2605 2041 2678 
Q 1952 2752 1658 2771 
L 1658 2880 
L 2669 2880 
L 2669 685 
Q 2669 461 2742 390 
Q 2816 320 3034 320 
L 3072 320 
z
" transform="scale(0.015625)"/>
      </defs>
      <use xlink:href="#STIXGeneral-Regular-41"/>
      <use xlink:href="#STIXGeneral-Regular-76" x="72.199982"/>
      <use xlink:href="#STIXGeneral-Regular-65" x="122.199966"/>
      <use xlink:href="#STIXGeneral-Regular-72" x="166.59996"/>
      <use xlink:href="#STIXGeneral-Regular-61" x="199.899948"/>
      <use xlink:href="#STIXGeneral-Regular-67" x="244.299942"/>
      <use xlink:href="#STIXGeneral-Regular-65" x="294.299927"/>
      <use xlink:href="#STIXGeneral-Regular-20" x="338.699921"/>
      <use xlink:href="#STIXGeneral-Regular-54" x="363.699905"/>
      <use xlink:href="#STIXGeneral-Regular-65" x="424.799896"/>
      <use xlink:href="#STIXGeneral-Regular-73" x="469.19989"/>
      <use xlink:href="#STIXGeneral-Regular-74" x="508.099884"/>
      <use xlink:href="#STIXGeneral-Regular-20" x="535.899872"/>
      <use xlink:href="#STIXGeneral-Regular-52" x="560.899857"/>
      <use xlink:href="#STIXGeneral-Regular-65" x="627.599854"/>
      <use xlink:href="#STIXGeneral-Regular-74" x="671.999847"/>
      <use xlink:href="#STIXGeneral-Regular-75" x="699.799835"/>
      <use xlink:href="#STIXGeneral-Regular-72" x="749.79982"/>
      <use xlink:href="#STIXGeneral-Regular-6e" x="783.099808"/>
     </g>
    </g>
   </g>
   <g id="line2d_27">
    <path d="M 90.690909 281.323014 
L 91.491339 282.632429 
L 92.29177 274.434958 
L 93.0922 277.125689 
L 93.89263 282.611703 
L 95.493491 290.393238 
L 96.293921 290.542737 
L 97.094352 284.899293 
L 98.695212 284.289712 
L 99.495643 285.607424 
L 100.296073 287.630324 
L 101.096503 288.708038 
L 101.896934 285.890318 
L 102.697364 288.172162 
L 103.497795 289.346819 
L 104.298225 288.417637 
L 105.098655 285.316384 
L 105.899086 281.619313 
L 106.699516 272.913547 
L 107.499946 273.366568 
L 108.300377 273.682261 
L 109.100807 271.982861 
L 109.901237 272.195211 
L 111.502098 267.770648 
L 112.302528 262.719905 
L 113.102959 265.58464 
L 113.903389 264.759164 
L 114.703819 266.59646 
L 115.50425 264.978893 
L 116.30468 263.646664 
L 117.10511 260.452614 
L 117.905541 258.861543 
L 118.705971 257.835341 
L 119.506401 258.219941 
L 120.306832 256.878049 
L 121.107262 256.034803 
L 121.907692 253.486076 
L 122.708123 246.562043 
L 124.308983 237.082161 
L 125.109414 235.948297 
L 125.909844 233.608653 
L 126.710274 232.86889 
L 127.510705 232.498231 
L 128.311135 228.907418 
L 129.111565 224.07362 
L 129.911996 209.558106 
L 130.712426 179.213317 
L 131.512856 157.299475 
L 133.113717 124.134697 
L 133.914147 118.505316 
L 134.714578 114.465439 
L 135.515008 103.470206 
L 136.315438 99.680637 
L 137.115869 99.425066 
L 137.916299 96.658235 
L 139.51716 100.252462 
L 140.31759 94.232102 
L 141.11802 89.21684 
L 141.918451 88.552962 
L 142.718881 85.083025 
L 143.519311 82.704114 
L 144.319742 82.05268 
L 145.120172 79.058781 
L 145.920602 76.989702 
L 148.321893 72.52551 
L 149.122324 71.911905 
L 149.922754 71.108998 
L 151.523615 65.46883 
L 152.324045 71.853873 
L 153.124476 73.968408 
L 153.924906 75.211178 
L 154.725336 79.758527 
L 155.525767 81.005331 
L 156.326197 76.681021 
L 157.126627 79.20686 
L 157.927058 80.719586 
L 158.727488 78.604378 
L 159.527918 75.369759 
L 160.328349 78.117204 
L 161.128779 82.394786 
L 161.929209 80.168522 
L 162.72964 78.704246 
L 163.53007 73.730645 
L 164.3305 77.033076 
L 165.130931 76.137499 
L 165.931361 76.656263 
L 166.731791 78.758257 
L 167.532222 81.958087 
L 168.332652 82.601647 
L 169.133082 88.53378 
L 169.933513 86.86526 
L 170.733943 87.201763 
L 171.534373 86.724175 
L 172.334804 91.330399 
L 173.135234 90.959358 
L 174.736095 94.398422 
L 175.536525 93.50958 
L 176.336955 96.932508 
L 177.137386 95.322016 
L 177.937816 91.132525 
L 178.738246 90.981004 
L 179.538677 91.02542 
L 180.339107 91.379333 
L 181.139537 88.754046 
L 181.939968 84.120075 
L 183.540828 90.635509 
L 184.341259 92.316497 
L 185.141689 95.624736 
L 185.942119 96.837608 
L 186.74255 93.09118 
L 187.54298 98.441394 
L 188.34341 95.467217 
L 189.143841 98.759429 
L 189.944271 99.972294 
L 190.744701 97.34535 
L 191.545132 97.247353 
L 192.345562 105.014584 
L 193.145992 107.101 
L 193.946423 108.122317 
L 194.746853 108.458654 
L 195.547283 107.213626 
L 196.347714 103.507996 
L 197.148144 102.893482 
L 197.948575 105.300123 
L 198.749005 108.393418 
L 199.549435 101.348193 
L 200.349866 102.667993 
L 201.150296 97.809027 
L 201.950726 95.77616 
L 202.751157 89.396575 
L 204.352017 99.64397 
L 205.152448 96.938172 
L 205.952878 98.080976 
L 206.753308 93.50927 
L 207.553739 93.984293 
L 208.354169 88.067043 
L 209.154599 86.361479 
L 209.95503 90.864146 
L 210.75546 89.397772 
L 211.55589 83.188076 
L 212.356321 79.085086 
L 213.156751 80.628243 
L 213.957181 76.517469 
L 214.757612 73.204273 
L 215.558042 76.603868 
L 217.158903 73.466793 
L 217.959333 77.649738 
L 218.759763 79.76955 
L 219.560194 75.901351 
L 220.360624 79.608614 
L 221.161054 69.06597 
L 221.961485 66.068873 
L 222.761915 62.2 
L 223.562345 65.118659 
L 224.362776 65.65044 
L 225.163206 64.26702 
L 225.963636 68.626528 
L 226.764067 69.997594 
L 227.564497 67.33325 
L 228.364927 67.514213 
L 229.165358 68.940947 
L 229.965788 66.147409 
L 230.766218 70.317026 
L 231.566649 70.828987 
L 232.367079 75.016942 
L 233.167509 74.879855 
L 233.96794 75.306755 
L 234.76837 76.862339 
L 235.5688 82.508163 
L 236.369231 84.911508 
L 237.169661 85.688664 
L 237.970091 78.130114 
L 238.770522 81.158813 
L 239.570952 80.534312 
L 240.371382 80.950261 
L 241.171813 84.162062 
L 241.972243 84.276734 
L 242.772673 83.228815 
L 243.573104 87.824284 
L 244.373534 89.062379 
L 245.173964 90.614394 
L 245.974395 96.299268 
L 246.774825 96.583748 
L 247.575256 98.321993 
L 248.375686 100.870618 
L 249.176116 98.673154 
L 249.976547 98.188034 
L 250.776977 92.631319 
L 251.577407 96.683747 
L 252.377838 99.842136 
L 253.178268 103.649396 
L 253.978698 96.619684 
L 254.779129 100.6447 
L 255.579559 106.145342 
L 256.379989 105.285348 
L 257.98085 107.949554 
L 258.78128 106.488265 
L 259.581711 101.596535 
L 260.382141 102.262048 
L 261.182571 101.146533 
L 261.983002 102.018076 
L 262.783432 101.597674 
L 263.583862 98.589291 
L 264.384293 96.17676 
L 265.184723 100.169983 
L 265.985153 96.940179 
L 266.785584 94.433714 
L 267.586014 96.742049 
L 268.386444 96.901928 
L 269.186875 93.189414 
L 269.987305 93.204067 
L 270.787735 93.331778 
L 271.588166 89.231247 
L 272.388596 86.574399 
L 273.189026 89.954878 
L 273.989457 88.980303 
L 274.789887 89.447595 
L 276.390748 81.955418 
L 277.191178 81.245197 
L 277.991608 84.651831 
L 278.792039 83.0009 
L 279.592469 77.027238 
L 280.392899 79.748587 
L 281.19333 76.929877 
L 281.99376 76.319667 
L 282.79419 74.073255 
L 283.594621 76.013316 
L 284.395051 76.393177 
L 285.195481 79.852292 
L 285.995912 81.525518 
L 286.796342 79.242077 
L 287.596772 80.587835 
L 288.397203 79.513696 
L 289.197633 78.773237 
L 289.998063 79.264673 
L 290.798494 79.295833 
L 291.598924 81.479582 
L 292.399354 77.35806 
L 293.199785 77.345939 
L 294.000215 78.962344 
L 295.601076 71.369304 
L 296.401506 71.820883 
L 297.201937 73.721169 
L 298.002367 76.507138 
L 298.802797 76.931101 
L 299.603228 76.564586 
L 300.403658 75.938855 
L 301.204088 73.48388 
L 302.804949 75.577786 
L 303.605379 77.076493 
L 304.40581 80.894717 
L 305.20624 81.859259 
L 306.00667 82.338931 
L 306.807101 84.087013 
L 307.607531 83.979286 
L 308.407961 84.959729 
L 309.208392 84.853449 
L 310.008822 88.658288 
L 310.809252 95.274818 
L 311.609683 95.646469 
L 312.410113 95.841437 
L 313.210543 93.933436 
L 314.010974 89.312383 
L 314.811404 88.03346 
L 315.611834 82.132687 
L 316.412265 79.226535 
L 318.013125 81.470753 
L 318.813556 76.972998 
L 320.414416 80.326552 
L 321.214847 82.996037 
L 322.015277 82.552242 
L 322.815707 84.084654 
L 323.616138 87.944147 
L 324.416568 87.58104 
L 325.216998 89.271949 
L 326.017429 90.386893 
L 327.618289 96.912371 
L 328.41872 97.798476 
L 329.21915 95.049158 
L 330.01958 89.131814 
L 330.820011 88.122055 
L 331.620441 88.823462 
L 332.420871 91.356799 
L 333.221302 89.498198 
L 334.021732 90.398161 
L 334.822162 89.808886 
L 335.622593 92.915996 
L 336.423023 89.676779 
L 337.223453 88.742093 
L 338.023884 89.532753 
L 338.824314 85.78734 
L 339.624744 90.145297 
L 340.425175 88.060776 
L 341.225605 88.998319 
L 342.026036 91.572184 
L 342.826466 96.694577 
L 343.626896 98.44345 
L 344.427327 101.219938 
L 345.227757 102.986828 
L 346.028187 105.340969 
L 346.828618 104.061579 
L 347.629048 105.833857 
L 348.429478 102.983004 
L 349.229909 104.133475 
L 350.030339 102.806477 
L 350.830769 98.947464 
L 351.6312 96.836462 
L 352.43163 92.964277 
L 353.23206 93.636514 
L 354.032491 93.313485 
L 354.832921 94.889512 
L 355.633351 94.845541 
L 356.433782 94.276371 
L 357.234212 92.10958 
L 358.034642 85.935588 
L 360.435933 88.911424 
L 361.236364 86.56577 
L 362.036794 91.665204 
L 362.837224 95.762736 
L 363.637655 99.168492 
L 364.438085 104.232195 
L 365.238515 102.52073 
L 366.038946 101.767547 
L 366.839376 102.171028 
L 367.639806 99.962582 
L 368.440237 102.534762 
L 369.240667 99.610304 
L 370.041097 101.936364 
L 370.841528 102.257388 
L 371.641958 101.112077 
L 372.442388 101.284946 
L 373.242819 100.675571 
L 374.043249 104.870749 
L 374.843679 105.620062 
L 375.64411 106.926124 
L 376.44454 107.609769 
L 377.24497 105.73616 
L 378.045401 96.810793 
L 378.845831 96.054352 
L 379.646261 100.237982 
L 380.446692 97.87966 
L 381.247122 99.568567 
L 382.047552 104.871212 
L 382.847983 105.130142 
L 383.648413 106.912371 
L 385.249274 99.290643 
L 386.049704 102.560102 
L 386.850134 103.661278 
L 388.450995 110.221622 
L 389.251425 110.411051 
L 390.051856 113.723568 
L 390.852286 112.089201 
L 391.652717 109.833163 
L 392.453147 109.322081 
L 394.054008 107.876669 
L 394.854438 104.834741 
L 395.654868 106.274928 
L 396.455299 106.15163 
L 397.255729 104.628257 
L 398.056159 106.124226 
L 398.85659 106.440122 
L 399.65702 105.308348 
L 400.45745 109.633848 
L 401.257881 112.164822 
L 402.058311 115.448519 
L 402.858741 117.150527 
L 403.659172 115.894466 
L 404.459602 117.107755 
L 406.060463 106.475746 
L 406.860893 109.110945 
L 407.661323 110.949331 
L 408.461754 109.529906 
L 409.262184 111.17107 
L 410.062614 108.762439 
L 411.663475 111.27968 
L 412.463905 114.186999 
L 413.264336 113.442394 
L 414.064766 110.671097 
L 414.865196 113.749366 
L 415.665627 120.192931 
L 416.466057 123.743921 
L 417.266487 122.199922 
L 418.066918 124.392962 
L 418.867348 121.56211 
L 419.667778 122.725645 
L 420.468209 124.525461 
L 421.268639 121.715863 
L 422.069069 120.604067 
L 423.66993 118.003095 
L 424.47036 117.580388 
L 425.270791 116.75759 
L 426.071221 113.941565 
L 426.871651 113.807673 
L 427.672082 110.596413 
L 428.472512 108.840691 
L 429.272942 110.369028 
L 430.073373 113.692646 
L 430.873803 117.700033 
L 431.674233 119.483108 
L 432.474664 117.101123 
L 433.275094 116.774536 
L 434.075524 115.829677 
L 434.875955 117.22606 
L 435.676385 116.192563 
L 436.476815 111.208319 
L 437.277246 112.471446 
L 438.878107 102.650954 
L 439.678537 102.753913 
L 440.478967 99.433951 
L 441.279398 99.769091 
L 442.079828 98.185052 
L 442.880258 95.978349 
L 443.680689 97.57208 
L 444.481119 104.373875 
L 445.281549 104.313278 
L 446.08198 106.265849 
L 447.68284 112.940855 
L 448.483271 114.552681 
L 449.283701 121.230614 
L 450.084131 123.276825 
L 450.884562 118.018905 
L 451.684992 119.564879 
L 452.485422 118.380929 
L 453.285853 121.203524 
L 454.886713 125.263945 
L 455.687144 127.213417 
L 456.487574 127.202168 
L 457.288004 125.754724 
L 458.088435 125.386674 
L 458.888865 122.449876 
L 459.689295 122.606304 
L 460.489726 118.389417 
L 461.290156 119.954679 
L 462.090586 120.816931 
L 462.891017 123.284314 
L 463.691447 126.182022 
L 464.491877 126.42419 
L 465.292308 131.107272 
L 466.092738 126.325417 
L 466.893168 126.428686 
L 467.693599 122.654911 
L 468.494029 124.344643 
L 469.294459 121.013583 
L 470.09489 122.54732 
L 470.89532 120.269583 
L 471.69575 118.408834 
L 472.496181 121.605199 
L 473.296611 122.354384 
L 474.097041 122.513672 
L 474.897472 128.022593 
L 475.697902 128.651959 
L 477.298763 124.34013 
L 478.099193 120.351627 
L 478.899623 118.259285 
L 480.500484 118.346173 
L 481.300914 117.553381 
L 482.101345 117.408055 
L 482.901775 111.681238 
L 483.702205 105.059146 
L 484.502636 99.932634 
L 486.103497 106.358535 
L 487.704357 109.908289 
L 488.504788 112.770346 
L 489.305218 116.130465 
L 490.105648 121.244147 
L 490.906079 122.441542 
L 491.706509 119.806602 
L 492.506939 113.738636 
L 493.30737 113.671808 
L 494.1078 114.645228 
L 495.708661 125.302342 
L 496.509091 127.018502 
L 496.509091 127.018502 
" clip-path="url(#p6b8ada7f91)" style="fill: none; stroke: #1f77b4; stroke-width: 1.5; stroke-linecap: square"/>
   </g>
   <g id="line2d_28">
    <path d="M 90.790963 314.2 
L 98.294997 298.377365 
L 105.799032 294.572302 
L 113.303066 293.35903 
L 120.807101 294.154218 
L 128.311135 288.931928 
L 135.815169 285.21931 
L 143.319204 273.910744 
L 150.823238 278.05691 
L 158.327273 277.189547 
L 165.831307 277.058824 
L 173.335342 278.30566 
L 180.839376 274.981285 
L 188.34341 269.606824 
L 195.847445 270.580214 
L 203.351479 270.370657 
L 210.855514 272.233577 
L 218.359548 275.661791 
L 225.863583 275.143349 
L 233.367617 275.022114 
L 240.871651 271.561101 
L 248.375686 271.790504 
L 255.87972 274.657919 
L 263.383755 279.175225 
L 270.887789 281.142003 
L 278.391824 283.257716 
L 285.895858 282.928084 
L 293.399892 282.791302 
" clip-path="url(#p6b8ada7f91)" style="fill: none; stroke: #ff7f0e; stroke-width: 1.5; stroke-linecap: square"/>
   </g>
   <g id="patch_3">
    <path d="M 70.4 326.8 
L 70.4 49.6 
" style="fill: none; stroke: #000000; stroke-width: 0.8; stroke-linejoin: miter; stroke-linecap: square"/>
   </g>
   <g id="patch_4">
    <path d="M 516.8 326.8 
L 516.8 49.6 
" style="fill: none; stroke: #000000; stroke-width: 0.8; stroke-linejoin: miter; stroke-linecap: square"/>
   </g>
   <g id="patch_5">
    <path d="M 70.4 326.8 
L 516.8 326.8 
" style="fill: none; stroke: #000000; stroke-width: 0.8; stroke-linejoin: miter; stroke-linecap: square"/>
   </g>
   <g id="patch_6">
    <path d="M 70.4 49.6 
L 516.8 49.6 
" style="fill: none; stroke: #000000; stroke-width: 0.8; stroke-linejoin: miter; stroke-linecap: square"/>
   </g>
   <g id="legend_1">
    <g id="patch_7">
     <path d="M 411.604062 323.2 
L 509.6 323.2 
Q 513.2 323.2 513.2 319.6 
L 513.2 263.8 
Q 513.2 260.2 509.6 260.2 
L 411.604062 260.2 
Q 408.004062 260.2 408.004062 263.8 
L 408.004062 319.6 
Q 408.004062 323.2 411.604062 323.2 
z
" style="fill: #ffffff; opacity: 0.8; stroke: #cccccc; stroke-linejoin: miter"/>
    </g>
    <g id="line2d_29">
     <path d="M 413.404062 272.943437 
L 422.404062 272.943437 
L 431.404062 272.943437 
" style="fill: none; stroke: #1f77b4; stroke-width: 1.5; stroke-linecap: square"/>
    </g>
    <g id="text_17">
     <!-- MAML -->
     <g transform="translate(436.804062 277.893437)scale(0.18 -0.18)">
      <defs>
       <path id="STIXGeneral-Regular-4d" d="M 5530 0 
L 3738 0 
L 3738 122 
Q 4115 147 4214 265 
Q 4314 384 4314 787 
L 4314 3661 
L 2682 0 
L 2592 0 
L 979 3514 
L 979 966 
Q 979 448 1088 294 
Q 1197 141 1574 122 
L 1574 0 
L 77 0 
L 77 122 
Q 358 141 480 205 
Q 602 269 650 432 
Q 698 595 698 966 
L 698 3514 
Q 698 3878 589 3984 
Q 480 4090 90 4115 
L 90 4237 
L 1357 4237 
L 2835 1024 
L 4250 4237 
L 5523 4237 
L 5523 4115 
Q 5178 4109 5072 3993 
Q 4966 3878 4966 3520 
L 4966 717 
Q 4966 378 5072 262 
Q 5178 147 5530 122 
L 5530 0 
z
" transform="scale(0.015625)"/>
       <path id="STIXGeneral-Regular-4c" d="M 3827 1114 
L 3520 0 
L 77 0 
L 77 122 
Q 429 141 531 256 
Q 634 371 634 736 
L 634 3494 
Q 634 3872 541 3981 
Q 448 4090 77 4115 
L 77 4237 
L 1888 4237 
L 1888 4115 
Q 1498 4090 1392 3984 
Q 1286 3878 1286 3507 
L 1286 538 
Q 1286 358 1398 304 
Q 1510 250 1862 250 
L 2310 250 
Q 3085 250 3392 640 
Q 3520 813 3661 1114 
L 3827 1114 
z
" transform="scale(0.015625)"/>
      </defs>
      <use xlink:href="#STIXGeneral-Regular-4d"/>
      <use xlink:href="#STIXGeneral-Regular-41" x="88.899994"/>
      <use xlink:href="#STIXGeneral-Regular-4d" x="161.099976"/>
      <use xlink:href="#STIXGeneral-Regular-4c" x="249.999969"/>
     </g>
    </g>
    <g id="line2d_30">
     <path d="M 413.404062 290.943437 
L 422.404062 290.943437 
L 431.404062 290.943437 
" style="fill: none; stroke: #ff7f0e; stroke-width: 1.5; stroke-linecap: square"/>
    </g>
    <g id="text_18">
     <!-- PEARL -->
     <g transform="translate(436.804062 295.893437)scale(0.18 -0.18)">
      <defs>
       <path id="STIXGeneral-Regular-50" d="M 102 4237 
L 1760 4237 
Q 2669 4237 3149 3834 
Q 3469 3565 3469 3072 
Q 3469 2560 3104 2234 
Q 2835 1990 2553 1916 
Q 2272 1843 1734 1843 
Q 1549 1843 1293 1862 
L 1293 717 
Q 1293 352 1398 246 
Q 1504 141 1894 122 
L 1894 0 
L 102 0 
L 102 122 
Q 474 147 557 256 
Q 640 365 640 781 
L 640 3526 
Q 640 3885 547 3987 
Q 454 4090 102 4115 
L 102 4237 
z
M 1293 3770 
L 1293 2118 
Q 1510 2099 1683 2099 
Q 2202 2099 2486 2352 
Q 2771 2605 2771 3040 
Q 2771 3558 2476 3779 
Q 2182 4000 1517 4000 
Q 1382 4000 1337 3952 
Q 1293 3904 1293 3770 
z
" transform="scale(0.015625)"/>
      </defs>
      <use xlink:href="#STIXGeneral-Regular-50"/>
      <use xlink:href="#STIXGeneral-Regular-45" x="55.699997"/>
      <use xlink:href="#STIXGeneral-Regular-41" x="116.799988"/>
      <use xlink:href="#STIXGeneral-Regular-52" x="188.999969"/>
      <use xlink:href="#STIXGeneral-Regular-4c" x="255.699966"/>
     </g>
    </g>
    <g id="line2d_31">
     <path d="M 413.404062 308.943437 
L 422.404062 308.943437 
L 431.404062 308.943437 
" style="fill: none; stroke: #2ca02c; stroke-width: 1.5; stroke-linecap: square"/>
    </g>
    <g id="text_19">
     <!-- MACAW -->
     <g transform="translate(436.804062 313.893437)scale(0.18 -0.18)">
      <defs>
       <path id="STIXGeneral-Regular-43" d="M 3930 838 
L 4051 723 
Q 3482 -90 2304 -90 
Q 1376 -90 794 480 
Q 179 1082 179 2080 
Q 179 3014 755 3661 
Q 1357 4326 2310 4326 
Q 2720 4326 3072 4230 
Q 3475 4115 3514 4115 
Q 3725 4115 3782 4326 
L 3910 4326 
L 3968 2874 
L 3821 2874 
Q 3718 3334 3488 3584 
Q 3034 4070 2458 4070 
Q 1747 4070 1334 3548 
Q 922 3027 922 2182 
Q 922 1152 1382 653 
Q 1811 192 2522 192 
Q 2944 192 3251 339 
Q 3558 486 3930 838 
z
" transform="scale(0.015625)"/>
       <path id="STIXGeneral-Regular-57" d="M 5965 4237 
L 5965 4115 
Q 5709 4064 5616 3990 
Q 5523 3917 5434 3667 
Q 4704 1709 4128 -70 
L 4032 -70 
Q 3642 1011 3008 2637 
L 2022 -70 
L 1926 -70 
Q 1709 576 1277 1753 
Q 845 2931 698 3347 
Q 538 3808 406 3958 
Q 275 4109 32 4115 
L 32 4237 
L 1594 4237 
L 1594 4115 
Q 1357 4109 1270 4064 
Q 1184 4019 1184 3917 
Q 1184 3808 1254 3616 
L 2176 1210 
L 2842 3021 
L 2662 3501 
Q 2509 3917 2400 4013 
Q 2291 4109 2010 4115 
L 2010 4237 
L 3706 4237 
L 3706 4115 
Q 3213 4102 3213 3891 
Q 3213 3808 3322 3520 
L 4237 1190 
L 5043 3360 
Q 5152 3667 5152 3853 
Q 5152 4109 4704 4115 
L 4704 4237 
L 5965 4237 
z
" transform="scale(0.015625)"/>
      </defs>
      <use xlink:href="#STIXGeneral-Regular-4d"/>
      <use xlink:href="#STIXGeneral-Regular-41" x="88.899994"/>
      <use xlink:href="#STIXGeneral-Regular-43" x="161.099976"/>
      <use xlink:href="#STIXGeneral-Regular-41" x="227.799973"/>
      <use xlink:href="#STIXGeneral-Regular-57" x="299.999954"/>
     </g>
    </g>
   </g>
  </g>
  <g id="axes_2">
   <g id="matplotlib.axis_3">
    <g id="xtick_7">
     <g id="line2d_32">
      <defs>
       <path id="m767f3f7062" d="M 0 0 
L 0 -3.5 
" style="stroke: #2ca02c; stroke-width: 0.8"/>
      </defs>
      <g>
       <use xlink:href="#m767f3f7062" x="84.35" y="49.6" style="fill: #2ca02c; stroke: #2ca02c; stroke-width: 0.8"/>
      </g>
     </g>
     <g id="text_20">
      <!-- 0.00 -->
      <g style="fill: #2ca02c" transform="translate(68.6 38.693437)scale(0.18 -0.18)">
       <use xlink:href="#STIXGeneral-Regular-30"/>
       <use xlink:href="#STIXGeneral-Regular-2e" x="49.999985"/>
       <use xlink:href="#STIXGeneral-Regular-30" x="74.999969"/>
       <use xlink:href="#STIXGeneral-Regular-30" x="124.999954"/>
      </g>
     </g>
    </g>
    <g id="xtick_8">
     <g id="line2d_33">
      <g>
       <use xlink:href="#m767f3f7062" x="146.27294" y="49.6" style="fill: #2ca02c; stroke: #2ca02c; stroke-width: 0.8"/>
      </g>
     </g>
     <g id="text_21">
      <!-- 0.25 -->
      <g style="fill: #2ca02c" transform="translate(130.52294 38.693437)scale(0.18 -0.18)">
       <defs>
        <path id="STIXGeneral-Regular-35" d="M 2803 4358 
L 2573 3814 
Q 2534 3731 2400 3731 
L 1158 3731 
L 902 3187 
Q 1606 3053 1920 2896 
Q 2234 2739 2502 2368 
Q 2726 2061 2726 1555 
Q 2726 1094 2576 780 
Q 2426 467 2099 224 
Q 1664 -90 1011 -90 
Q 646 -90 422 19 
Q 198 128 198 307 
Q 198 550 486 550 
Q 717 550 960 352 
Q 1210 147 1414 147 
Q 1747 147 2012 480 
Q 2278 813 2278 1229 
Q 2278 1843 1850 2189 
Q 1293 2637 486 2637 
Q 410 2637 410 2688 
L 416 2720 
L 1114 4237 
L 2438 4237 
Q 2547 4237 2608 4269 
Q 2669 4301 2746 4403 
L 2803 4358 
z
" transform="scale(0.015625)"/>
       </defs>
       <use xlink:href="#STIXGeneral-Regular-30"/>
       <use xlink:href="#STIXGeneral-Regular-2e" x="49.999985"/>
       <use xlink:href="#STIXGeneral-Regular-32" x="74.999969"/>
       <use xlink:href="#STIXGeneral-Regular-35" x="124.999954"/>
      </g>
     </g>
    </g>
    <g id="xtick_9">
     <g id="line2d_34">
      <g>
       <use xlink:href="#m767f3f7062" x="208.195881" y="49.6" style="fill: #2ca02c; stroke: #2ca02c; stroke-width: 0.8"/>
      </g>
     </g>
     <g id="text_22">
      <!-- 0.50 -->
      <g style="fill: #2ca02c" transform="translate(192.445881 38.693437)scale(0.18 -0.18)">
       <use xlink:href="#STIXGeneral-Regular-30"/>
       <use xlink:href="#STIXGeneral-Regular-2e" x="49.999985"/>
       <use xlink:href="#STIXGeneral-Regular-35" x="74.999969"/>
       <use xlink:href="#STIXGeneral-Regular-30" x="124.999954"/>
      </g>
     </g>
    </g>
    <g id="xtick_10">
     <g id="line2d_35">
      <g>
       <use xlink:href="#m767f3f7062" x="270.118821" y="49.6" style="fill: #2ca02c; stroke: #2ca02c; stroke-width: 0.8"/>
      </g>
     </g>
     <g id="text_23">
      <!-- 0.75 -->
      <g style="fill: #2ca02c" transform="translate(254.368821 38.693437)scale(0.18 -0.18)">
       <defs>
        <path id="STIXGeneral-Regular-37" d="M 2874 4134 
L 1517 -51 
L 1101 -51 
L 2368 3763 
L 992 3763 
Q 717 3763 582 3667 
Q 448 3571 243 3238 
L 128 3296 
L 512 4237 
L 2874 4237 
L 2874 4134 
z
" transform="scale(0.015625)"/>
       </defs>
       <use xlink:href="#STIXGeneral-Regular-30"/>
       <use xlink:href="#STIXGeneral-Regular-2e" x="49.999985"/>
       <use xlink:href="#STIXGeneral-Regular-37" x="74.999969"/>
       <use xlink:href="#STIXGeneral-Regular-35" x="124.999954"/>
      </g>
     </g>
    </g>
    <g id="xtick_11">
     <g id="line2d_36">
      <g>
       <use xlink:href="#m767f3f7062" x="332.041761" y="49.6" style="fill: #2ca02c; stroke: #2ca02c; stroke-width: 0.8"/>
      </g>
     </g>
     <g id="text_24">
      <!-- 1.00 -->
      <g style="fill: #2ca02c" transform="translate(316.291761 38.693437)scale(0.18 -0.18)">
       <use xlink:href="#STIXGeneral-Regular-31"/>
       <use xlink:href="#STIXGeneral-Regular-2e" x="49.999985"/>
       <use xlink:href="#STIXGeneral-Regular-30" x="74.999969"/>
       <use xlink:href="#STIXGeneral-Regular-30" x="124.999954"/>
      </g>
     </g>
    </g>
    <g id="xtick_12">
     <g id="line2d_37">
      <g>
       <use xlink:href="#m767f3f7062" x="393.964702" y="49.6" style="fill: #2ca02c; stroke: #2ca02c; stroke-width: 0.8"/>
      </g>
     </g>
     <g id="text_25">
      <!-- 1.25 -->
      <g style="fill: #2ca02c" transform="translate(378.214702 38.693437)scale(0.18 -0.18)">
       <use xlink:href="#STIXGeneral-Regular-31"/>
       <use xlink:href="#STIXGeneral-Regular-2e" x="49.999985"/>
       <use xlink:href="#STIXGeneral-Regular-32" x="74.999969"/>
       <use xlink:href="#STIXGeneral-Regular-35" x="124.999954"/>
      </g>
     </g>
    </g>
    <g id="xtick_13">
     <g id="line2d_38">
      <g>
       <use xlink:href="#m767f3f7062" x="455.887642" y="49.6" style="fill: #2ca02c; stroke: #2ca02c; stroke-width: 0.8"/>
      </g>
     </g>
     <g id="text_26">
      <!-- 1.50 -->
      <g style="fill: #2ca02c" transform="translate(440.137642 38.693437)scale(0.18 -0.18)">
       <use xlink:href="#STIXGeneral-Regular-31"/>
       <use xlink:href="#STIXGeneral-Regular-2e" x="49.999985"/>
       <use xlink:href="#STIXGeneral-Regular-35" x="74.999969"/>
       <use xlink:href="#STIXGeneral-Regular-30" x="124.999954"/>
      </g>
     </g>
    </g>
    <g id="text_27">
     <!-- Training Steps -->
     <g style="fill: #2ca02c" transform="translate(240.851563 22.4)scale(0.18 -0.18)">
      <use xlink:href="#STIXGeneral-Regular-54"/>
      <use xlink:href="#STIXGeneral-Regular-72" x="61.099991"/>
      <use xlink:href="#STIXGeneral-Regular-61" x="94.399979"/>
      <use xlink:href="#STIXGeneral-Regular-69" x="138.799973"/>
      <use xlink:href="#STIXGeneral-Regular-6e" x="166.59996"/>
      <use xlink:href="#STIXGeneral-Regular-69" x="216.599945"/>
      <use xlink:href="#STIXGeneral-Regular-6e" x="244.399933"/>
      <use xlink:href="#STIXGeneral-Regular-67" x="294.399918"/>
      <use xlink:href="#STIXGeneral-Regular-20" x="344.399902"/>
      <use xlink:href="#STIXGeneral-Regular-53" x="369.399887"/>
      <use xlink:href="#STIXGeneral-Regular-74" x="424.999878"/>
      <use xlink:href="#STIXGeneral-Regular-65" x="452.799866"/>
      <use xlink:href="#STIXGeneral-Regular-70" x="497.19986"/>
      <use xlink:href="#STIXGeneral-Regular-73" x="547.199844"/>
     </g>
    </g>
    <g id="text_28">
     <!-- 1e8 -->
     <g style="fill: #2ca02c" transform="translate(490.806875 19.493437)scale(0.18 -0.18)">
      <use xlink:href="#STIXGeneral-Regular-31"/>
      <use xlink:href="#STIXGeneral-Regular-65" x="49.999985"/>
      <use xlink:href="#STIXGeneral-Regular-38" x="94.399979"/>
     </g>
    </g>
   </g>
   <g id="line2d_39">
    <path d="M 90.690909 303.605404 
L 97.031818 303.98212 
L 103.372727 305.897094 
L 109.713636 303.233672 
L 116.054545 247.717953 
L 122.395455 271.385793 
L 128.736364 283.991604 
L 135.077273 279.725983 
L 141.418182 289.112584 
L 147.759091 284.301201 
L 154.1 290.382988 
L 160.440909 297.071454 
L 166.781818 298.042086 
L 173.122727 299.965077 
L 179.463636 300.93256 
L 185.804545 298.33609 
L 192.145455 296.049644 
L 198.486364 295.246331 
L 204.827273 293.389751 
L 211.168182 300.730313 
L 217.509091 300.459283 
L 223.85 296.663599 
L 230.190909 290.796978 
L 236.531818 279.895495 
L 242.872727 282.0893 
L 249.213636 275.144937 
L 255.554545 274.958302 
L 261.895455 275.318299 
L 268.236364 245.416553 
L 274.577273 224.389675 
L 280.918182 213.269523 
L 287.259091 203.597317 
L 293.6 201.506385 
L 299.940909 205.084718 
L 306.281818 206.56604 
L 312.622727 207.79395 
L 318.963636 199.605854 
L 325.304545 206.874885 
L 331.645455 199.294575 
L 337.986364 210.018925 
L 344.327273 216.87917 
L 350.668182 231.5254 
L 357.009091 228.759368 
L 363.35 214.572857 
L 369.690909 250.258555 
L 376.031818 231.32532 
L 382.372727 250.263311 
L 388.713636 234.383756 
L 395.054545 227.66131 
L 401.395455 237.515198 
L 407.736364 236.585213 
L 414.077273 260.029339 
L 420.418182 244.307416 
L 426.759091 234.646706 
L 433.1 226.658057 
L 439.440909 242.73231 
L 445.781818 236.37938 
L 452.122727 262.733665 
L 458.463636 240.32382 
L 464.804545 263.289967 
L 471.145455 247.8058 
L 477.486364 235.70024 
L 483.827273 227.040628 
L 490.168182 239.67353 
L 496.509091 236.552171 
" clip-path="url(#p6b8ada7f91)" style="fill: none; stroke: #2ca02c; stroke-width: 1.5; stroke-linecap: square"/>
   </g>
   <g id="patch_8">
    <path d="M 70.4 326.8 
L 70.4 49.6 
" style="fill: none; stroke: #000000; stroke-width: 0.8; stroke-linejoin: miter; stroke-linecap: square"/>
   </g>
   <g id="patch_9">
    <path d="M 516.8 326.8 
L 516.8 49.6 
" style="fill: none; stroke: #000000; stroke-width: 0.8; stroke-linejoin: miter; stroke-linecap: square"/>
   </g>
   <g id="patch_10">
    <path d="M 70.4 326.8 
L 516.8 326.8 
" style="fill: none; stroke: #000000; stroke-width: 0.8; stroke-linejoin: miter; stroke-linecap: square"/>
   </g>
   <g id="patch_11">
    <path d="M 70.4 49.6 
L 516.8 49.6 
" style="fill: none; stroke: #000000; stroke-width: 0.8; stroke-linejoin: miter; stroke-linecap: square"/>
   </g>
  </g>
 </g>
 <defs>
  <clipPath id="p6b8ada7f91">
   <rect x="70.4" y="49.6" width="446.4" height="277.2"/>
  </clipPath>
 </defs>
</svg>
