<?xml version="1.0" encoding="utf-8" standalone="no"?>
<!DOCTYPE svg PUBLIC "-//W3C//DTD SVG 1.1//EN"
  "http://www.w3.org/Graphics/SVG/1.1/DTD/svg11.dtd">
<svg xmlns:xlink="http://www.w3.org/1999/xlink" width="524pt" height="398.169pt" viewBox="0 0 524 398.169" xmlns="http://www.w3.org/2000/svg" version="1.1">
 <metadata>
  <rdf:RDF xmlns:dc="http://purl.org/dc/elements/1.1/" xmlns:cc="http://creativecommons.org/ns#" xmlns:rdf="http://www.w3.org/1999/02/22-rdf-syntax-ns#">
   <cc:Work>
    <dc:type rdf:resource="http://purl.org/dc/dcmitype/StillImage"/>
    <dc:date>2021-12-12T17:12:37.464053</dc:date>
    <dc:format>image/svg+xml</dc:format>
    <dc:creator>
     <cc:Agent>
      <dc:title>Matplotlib v3.5.0, https://matplotlib.org/</dc:title>
     </cc:Agent>
    </dc:creator>
   </cc:Work>
  </rdf:RDF>
 </metadata>
 <defs>
  <style type="text/css">*{stroke-linejoin: round; stroke-linecap: butt}</style>
 </defs>
 <g id="figure_1">
  <g id="patch_1">
   <path d="M 0 398.169 
L 524 398.169 
L 524 0 
L 0 0 
z
" style="fill: #ffffff"/>
  </g>
  <g id="axes_1">
   <g id="patch_2">
    <path d="M 70.4 347.552125 
L 516.8 347.552125 
L 516.8 70.352125 
L 70.4 70.352125 
z
" style="fill: #ffffff"/>
   </g>
   <g id="matplotlib.axis_1">
    <g id="xtick_1">
     <g id="line2d_1">
      <path d="M 89.890479 347.552125 
L 89.890479 70.352125 
" clip-path="url(#pdd5b134c23)" style="fill: none; stroke: #b0b0b0; stroke-width: 0.8; stroke-linecap: square"/>
     </g>
     <g id="line2d_2">
      <defs>
       <path id="mbfa010a88a" d="M 0 0 
L 0 3.5 
" style="stroke: #000000; stroke-width: 0.8"/>
      </defs>
      <g>
       <use xlink:href="#mbfa010a88a" x="89.890479" y="347.552125" style="stroke: #000000; stroke-width: 0.8"/>
      </g>
     </g>
     <g id="text_1">
      <!-- 0.0 -->
      <g transform="translate(78.640479 366.845562)scale(0.18 -0.18)">
       <defs>
        <path id="STIXGeneral-Regular-30" d="M 3046 2112 
Q 3046 1683 2963 1302 
Q 2880 922 2717 602 
Q 2554 282 2266 96 
Q 1978 -90 1600 -90 
Q 1210 -90 915 108 
Q 621 307 461 640 
Q 301 973 227 1350 
Q 154 1728 154 2150 
Q 154 2746 301 3222 
Q 448 3699 790 4012 
Q 1133 4326 1626 4326 
Q 2253 4326 2649 3712 
Q 3046 3098 3046 2112 
z
M 2432 2080 
Q 2432 3091 2217 3625 
Q 2003 4160 1587 4160 
Q 1190 4160 979 3622 
Q 768 3085 768 2106 
Q 768 1120 979 598 
Q 1190 77 1600 77 
Q 2003 77 2217 598 
Q 2432 1120 2432 2080 
z
" transform="scale(0.015625)"/>
        <path id="STIXGeneral-Regular-2e" d="M 1158 275 
Q 1158 134 1052 32 
Q 947 -70 800 -70 
Q 653 -70 550 32 
Q 448 134 448 281 
Q 448 429 553 534 
Q 659 640 806 640 
Q 947 640 1052 531 
Q 1158 422 1158 275 
z
" transform="scale(0.015625)"/>
       </defs>
       <use xlink:href="#STIXGeneral-Regular-30"/>
       <use xlink:href="#STIXGeneral-Regular-2e" x="49.999985"/>
       <use xlink:href="#STIXGeneral-Regular-30" x="74.999969"/>
      </g>
     </g>
    </g>
    <g id="xtick_2">
     <g id="line2d_3">
      <path d="M 169.933513 347.552125 
L 169.933513 70.352125 
" clip-path="url(#pdd5b134c23)" style="fill: none; stroke: #b0b0b0; stroke-width: 0.8; stroke-linecap: square"/>
     </g>
     <g id="line2d_4">
      <g>
       <use xlink:href="#mbfa010a88a" x="169.933513" y="347.552125" style="stroke: #000000; stroke-width: 0.8"/>
      </g>
     </g>
     <g id="text_2">
      <!-- 0.2 -->
      <g transform="translate(158.683513 366.845562)scale(0.18 -0.18)">
       <defs>
        <path id="STIXGeneral-Regular-32" d="M 3034 877 
L 2688 0 
L 186 0 
L 186 77 
L 1325 1286 
Q 1773 1754 1965 2144 
Q 2157 2534 2157 2950 
Q 2157 3379 1920 3616 
Q 1683 3853 1267 3853 
Q 922 3853 720 3673 
Q 518 3494 326 3021 
L 192 3053 
Q 301 3648 630 3987 
Q 960 4326 1523 4326 
Q 2054 4326 2380 4006 
Q 2707 3686 2707 3200 
Q 2707 2477 1888 1613 
L 832 486 
L 2330 486 
Q 2541 486 2665 569 
Q 2790 653 2944 915 
L 3034 877 
z
" transform="scale(0.015625)"/>
       </defs>
       <use xlink:href="#STIXGeneral-Regular-30"/>
       <use xlink:href="#STIXGeneral-Regular-2e" x="49.999985"/>
       <use xlink:href="#STIXGeneral-Regular-32" x="74.999969"/>
      </g>
     </g>
    </g>
    <g id="xtick_3">
     <g id="line2d_5">
      <path d="M 249.976547 347.552125 
L 249.976547 70.352125 
" clip-path="url(#pdd5b134c23)" style="fill: none; stroke: #b0b0b0; stroke-width: 0.8; stroke-linecap: square"/>
     </g>
     <g id="line2d_6">
      <g>
       <use xlink:href="#mbfa010a88a" x="249.976547" y="347.552125" style="stroke: #000000; stroke-width: 0.8"/>
      </g>
     </g>
     <g id="text_3">
      <!-- 0.4 -->
      <g transform="translate(238.726547 366.845562)scale(0.18 -0.18)">
       <defs>
        <path id="STIXGeneral-Regular-34" d="M 3027 1069 
L 2368 1069 
L 2368 0 
L 1869 0 
L 1869 1069 
L 77 1069 
L 77 1478 
L 2086 4326 
L 2368 4326 
L 2368 1478 
L 3027 1478 
L 3027 1069 
z
M 1869 1478 
L 1869 3674 
L 333 1478 
L 1869 1478 
z
" transform="scale(0.015625)"/>
       </defs>
       <use xlink:href="#STIXGeneral-Regular-30"/>
       <use xlink:href="#STIXGeneral-Regular-2e" x="49.999985"/>
       <use xlink:href="#STIXGeneral-Regular-34" x="74.999969"/>
      </g>
     </g>
    </g>
    <g id="xtick_4">
     <g id="line2d_7">
      <path d="M 330.01958 347.552125 
L 330.01958 70.352125 
" clip-path="url(#pdd5b134c23)" style="fill: none; stroke: #b0b0b0; stroke-width: 0.8; stroke-linecap: square"/>
     </g>
     <g id="line2d_8">
      <g>
       <use xlink:href="#mbfa010a88a" x="330.01958" y="347.552125" style="stroke: #000000; stroke-width: 0.8"/>
      </g>
     </g>
     <g id="text_4">
      <!-- 0.6 -->
      <g transform="translate(318.76958 366.845562)scale(0.18 -0.18)">
       <defs>
        <path id="STIXGeneral-Regular-36" d="M 2854 4378 
L 2867 4275 
Q 2112 4154 1606 3664 
Q 1101 3174 973 2451 
Q 1344 2739 1786 2739 
Q 2349 2739 2672 2380 
Q 2995 2022 2995 1402 
Q 2995 774 2669 378 
Q 2291 -90 1651 -90 
Q 870 -90 518 557 
Q 218 1107 218 1786 
Q 218 2835 915 3552 
Q 1312 3962 1731 4131 
Q 2150 4301 2854 4378 
z
M 2419 1203 
Q 2419 2445 1555 2445 
Q 1235 2445 1024 2275 
Q 813 2106 813 1702 
Q 813 954 1046 522 
Q 1280 90 1722 90 
Q 2061 90 2240 394 
Q 2419 698 2419 1203 
z
" transform="scale(0.015625)"/>
       </defs>
       <use xlink:href="#STIXGeneral-Regular-30"/>
       <use xlink:href="#STIXGeneral-Regular-2e" x="49.999985"/>
       <use xlink:href="#STIXGeneral-Regular-36" x="74.999969"/>
      </g>
     </g>
    </g>
    <g id="xtick_5">
     <g id="line2d_9">
      <path d="M 410.062614 347.552125 
L 410.062614 70.352125 
" clip-path="url(#pdd5b134c23)" style="fill: none; stroke: #b0b0b0; stroke-width: 0.8; stroke-linecap: square"/>
     </g>
     <g id="line2d_10">
      <g>
       <use xlink:href="#mbfa010a88a" x="410.062614" y="347.552125" style="stroke: #000000; stroke-width: 0.8"/>
      </g>
     </g>
     <g id="text_5">
      <!-- 0.8 -->
      <g transform="translate(398.812614 366.845562)scale(0.18 -0.18)">
       <defs>
        <path id="STIXGeneral-Regular-38" d="M 2848 992 
Q 2848 499 2505 204 
Q 2163 -90 1587 -90 
Q 1050 -90 704 204 
Q 358 499 358 954 
Q 358 1293 524 1533 
Q 691 1773 1190 2125 
Q 710 2522 553 2765 
Q 397 3008 397 3328 
Q 397 3782 745 4054 
Q 1094 4326 1638 4326 
Q 2106 4326 2410 4060 
Q 2714 3795 2714 3411 
Q 2714 3059 2531 2848 
Q 2349 2637 1856 2374 
Q 2432 1990 2640 1689 
Q 2848 1389 2848 992 
z
M 2272 3411 
Q 2272 3744 2086 3945 
Q 1901 4147 1574 4147 
Q 1248 4147 1059 3977 
Q 870 3808 870 3513 
Q 870 3219 1059 2979 
Q 1248 2739 1670 2490 
Q 1997 2682 2134 2896 
Q 2272 3110 2272 3411 
z
M 1734 1741 
L 1357 1997 
Q 1075 1766 960 1545 
Q 845 1325 845 1011 
Q 845 576 1065 333 
Q 1286 90 1658 90 
Q 1971 90 2166 285 
Q 2362 480 2362 794 
Q 2362 1082 2214 1299 
Q 2067 1517 1734 1741 
z
" transform="scale(0.015625)"/>
       </defs>
       <use xlink:href="#STIXGeneral-Regular-30"/>
       <use xlink:href="#STIXGeneral-Regular-2e" x="49.999985"/>
       <use xlink:href="#STIXGeneral-Regular-38" x="74.999969"/>
      </g>
     </g>
    </g>
    <g id="xtick_6">
     <g id="line2d_11">
      <path d="M 490.105648 347.552125 
L 490.105648 70.352125 
" clip-path="url(#pdd5b134c23)" style="fill: none; stroke: #b0b0b0; stroke-width: 0.8; stroke-linecap: square"/>
     </g>
     <g id="line2d_12">
      <g>
       <use xlink:href="#mbfa010a88a" x="490.105648" y="347.552125" style="stroke: #000000; stroke-width: 0.8"/>
      </g>
     </g>
     <g id="text_6">
      <!-- 1.0 -->
      <g transform="translate(478.855648 366.845562)scale(0.18 -0.18)">
       <defs>
        <path id="STIXGeneral-Regular-31" d="M 2522 0 
L 755 0 
L 755 96 
Q 1107 115 1235 227 
Q 1363 339 1363 608 
L 1363 3482 
Q 1363 3795 1171 3795 
Q 1082 3795 883 3718 
L 710 3654 
L 710 3744 
L 1856 4326 
L 1914 4307 
L 1914 486 
Q 1914 275 2042 185 
Q 2170 96 2522 96 
L 2522 0 
z
" transform="scale(0.015625)"/>
       </defs>
       <use xlink:href="#STIXGeneral-Regular-31"/>
       <use xlink:href="#STIXGeneral-Regular-2e" x="49.999985"/>
       <use xlink:href="#STIXGeneral-Regular-30" x="74.999969"/>
      </g>
     </g>
    </g>
    <g id="text_7">
     <!-- Training Environment Steps -->
     <g transform="translate(191.604688 387.045562)scale(0.18 -0.18)">
      <defs>
       <path id="STIXGeneral-Regular-54" d="M 3795 3149 
L 3642 3149 
Q 3539 3674 3353 3821 
Q 3168 3968 2656 3968 
L 2278 3968 
L 2278 710 
Q 2278 346 2387 243 
Q 2496 141 2893 122 
L 2893 0 
L 1024 0 
L 1024 122 
Q 1427 147 1526 256 
Q 1626 365 1626 787 
L 1626 3968 
L 1242 3968 
Q 723 3968 540 3817 
Q 358 3667 262 3149 
L 109 3149 
L 154 4237 
L 3750 4237 
L 3795 3149 
z
" transform="scale(0.015625)"/>
       <path id="STIXGeneral-Regular-72" d="M 1024 2931 
L 1024 2342 
Q 1267 2688 1430 2816 
Q 1594 2944 1792 2944 
Q 1958 2944 2051 2854 
Q 2144 2765 2144 2605 
Q 2144 2470 2077 2393 
Q 2010 2317 1894 2317 
Q 1773 2317 1638 2445 
Q 1536 2541 1472 2541 
Q 1338 2541 1181 2355 
Q 1024 2170 1024 2016 
L 1024 576 
Q 1024 301 1133 205 
Q 1242 109 1568 96 
L 1568 0 
L 32 0 
L 32 96 
Q 339 154 412 224 
Q 486 294 486 538 
L 486 2138 
Q 486 2349 438 2435 
Q 390 2522 269 2522 
Q 166 2522 45 2496 
L 45 2598 
Q 448 2726 992 2944 
L 1024 2931 
z
" transform="scale(0.015625)"/>
       <path id="STIXGeneral-Regular-61" d="M 2829 422 
L 2829 243 
Q 2586 -64 2253 -64 
Q 1888 -64 1843 403 
L 1837 403 
Q 1427 -64 909 -64 
Q 608 -64 422 112 
Q 237 288 237 602 
Q 237 1050 685 1350 
Q 992 1555 1837 1869 
L 1837 2214 
Q 1837 2502 1699 2646 
Q 1562 2790 1338 2790 
Q 1146 2790 1018 2697 
Q 890 2605 890 2477 
Q 890 2419 909 2348 
Q 928 2278 928 2208 
Q 928 2112 841 2029 
Q 755 1946 634 1946 
Q 525 1946 441 2029 
Q 358 2112 358 2240 
Q 358 2547 685 2752 
Q 986 2944 1421 2944 
Q 1939 2944 2176 2656 
Q 2291 2522 2323 2384 
Q 2355 2246 2355 1946 
L 2355 723 
Q 2355 301 2554 301 
Q 2682 301 2829 422 
z
M 1837 813 
L 1837 1715 
Q 1248 1510 1018 1293 
Q 800 1094 800 800 
Q 800 557 921 432 
Q 1043 307 1242 307 
Q 1453 307 1613 410 
Q 1747 506 1792 589 
Q 1837 672 1837 813 
z
" transform="scale(0.015625)"/>
       <path id="STIXGeneral-Regular-69" d="M 1152 4045 
Q 1152 3904 1056 3811 
Q 960 3718 819 3718 
Q 685 3718 592 3811 
Q 499 3904 499 4045 
Q 499 4179 595 4275 
Q 691 4371 826 4371 
Q 966 4371 1059 4275 
Q 1152 4179 1152 4045 
z
M 1619 0 
L 102 0 
L 102 96 
Q 435 115 521 211 
Q 608 307 608 666 
L 608 2118 
Q 608 2342 563 2432 
Q 518 2522 397 2522 
Q 243 2522 128 2490 
L 128 2592 
L 1120 2944 
L 1146 2918 
L 1146 672 
Q 1146 314 1226 218 
Q 1306 122 1619 96 
L 1619 0 
z
" transform="scale(0.015625)"/>
       <path id="STIXGeneral-Regular-6e" d="M 3104 0 
L 1773 0 
L 1779 96 
Q 2016 115 2096 233 
Q 2176 352 2176 672 
L 2176 1946 
Q 2176 2592 1709 2592 
Q 1549 2592 1408 2515 
Q 1267 2438 1050 2227 
L 1050 461 
Q 1050 269 1136 192 
Q 1222 115 1466 96 
L 1466 0 
L 115 0 
L 115 96 
Q 358 115 435 214 
Q 512 314 512 602 
L 512 2157 
Q 512 2394 467 2483 
Q 422 2573 288 2573 
Q 160 2573 102 2547 
L 102 2656 
Q 550 2784 979 2944 
L 1030 2925 
L 1030 2426 
L 1037 2426 
Q 1491 2944 1958 2944 
Q 2323 2944 2518 2688 
Q 2714 2432 2714 1958 
L 2714 544 
Q 2714 288 2790 205 
Q 2867 122 3104 96 
L 3104 0 
z
" transform="scale(0.015625)"/>
       <path id="STIXGeneral-Regular-67" d="M 3008 2483 
L 2477 2483 
Q 2598 2208 2598 1946 
Q 2598 1453 2265 1203 
Q 1933 954 1600 954 
Q 1530 954 1357 973 
L 1235 986 
Q 1107 947 979 812 
Q 851 678 851 582 
Q 851 435 1350 410 
L 2176 371 
Q 2528 358 2739 172 
Q 2950 -13 2950 -314 
Q 2950 -685 2566 -986 
Q 2035 -1395 1286 -1395 
Q 826 -1395 502 -1212 
Q 179 -1030 179 -774 
Q 179 -595 320 -419 
Q 461 -243 806 6 
Q 602 102 534 172 
Q 467 243 467 346 
Q 467 531 762 787 
Q 909 915 1037 1043 
Q 717 1203 579 1401 
Q 442 1600 442 1901 
Q 442 2336 752 2640 
Q 1062 2944 1510 2944 
Q 1766 2944 2022 2848 
L 2163 2797 
Q 2349 2733 2515 2733 
L 3008 2733 
L 3008 2483 
z
M 973 2163 
L 973 2144 
Q 973 1683 1155 1398 
Q 1338 1114 1632 1114 
Q 1850 1114 1978 1270 
Q 2106 1427 2106 1690 
Q 2106 2112 1914 2464 
Q 1754 2765 1446 2765 
Q 1222 2765 1097 2605 
Q 973 2445 973 2163 
z
M 2771 -410 
Q 2771 -230 2595 -163 
Q 2419 -96 1978 -96 
Q 1344 -96 941 -13 
Q 749 -243 688 -348 
Q 627 -454 627 -563 
Q 627 -774 880 -902 
Q 1133 -1030 1555 -1030 
Q 2099 -1030 2435 -860 
Q 2771 -691 2771 -410 
z
" transform="scale(0.015625)"/>
       <path id="STIXGeneral-Regular-20" transform="scale(0.015625)"/>
       <path id="STIXGeneral-Regular-45" d="M 3821 1082 
L 3526 0 
L 77 0 
L 77 122 
Q 442 147 538 252 
Q 634 358 634 730 
L 634 3520 
Q 634 3878 534 3987 
Q 435 4096 77 4115 
L 77 4237 
L 3469 4237 
L 3494 3322 
L 3334 3322 
Q 3264 3750 3085 3872 
Q 2906 3994 2349 3994 
L 1510 3994 
Q 1370 3994 1328 3952 
Q 1286 3910 1286 3763 
L 1286 2355 
L 2253 2355 
Q 2656 2355 2787 2470 
Q 2918 2586 2976 2970 
L 3123 2970 
L 3123 1472 
L 2976 1472 
Q 2918 1875 2790 1984 
Q 2662 2093 2253 2093 
L 1286 2093 
L 1286 538 
Q 1286 346 1420 291 
Q 1555 237 1933 237 
L 2163 237 
Q 2848 237 3136 403 
Q 3424 570 3642 1082 
L 3821 1082 
z
" transform="scale(0.015625)"/>
       <path id="STIXGeneral-Regular-76" d="M 3053 2880 
L 3053 2784 
Q 2906 2771 2835 2688 
Q 2765 2605 2637 2285 
L 1818 230 
Q 1690 -90 1638 -90 
Q 1587 -90 1523 77 
Q 1510 96 1497 141 
Q 1485 186 1472 211 
L 704 2048 
Q 499 2534 403 2652 
Q 307 2771 122 2784 
L 122 2880 
L 1376 2880 
L 1376 2784 
Q 1210 2771 1146 2732 
Q 1082 2694 1082 2611 
Q 1082 2509 1139 2368 
L 1792 730 
L 2426 2387 
Q 2464 2483 2464 2579 
Q 2464 2758 2163 2784 
L 2163 2880 
L 3053 2880 
z
" transform="scale(0.015625)"/>
       <path id="STIXGeneral-Regular-6f" d="M 3008 1478 
Q 3008 806 2608 371 
Q 2208 -64 1568 -64 
Q 979 -64 582 368 
Q 186 800 186 1459 
Q 186 2125 582 2534 
Q 979 2944 1626 2944 
Q 2221 2944 2614 2537 
Q 3008 2131 3008 1478 
z
M 2432 1306 
Q 2432 2035 2112 2445 
Q 1856 2765 1504 2765 
Q 1171 2765 966 2493 
Q 762 2221 762 1747 
Q 762 928 1101 435 
Q 1318 115 1677 115 
Q 2029 115 2230 432 
Q 2432 749 2432 1306 
z
" transform="scale(0.015625)"/>
       <path id="STIXGeneral-Regular-6d" d="M 4960 0 
L 3565 0 
L 3565 96 
Q 3834 122 3907 208 
Q 3981 294 3981 576 
L 3981 1894 
Q 3981 2278 3869 2444 
Q 3757 2611 3488 2611 
Q 3264 2611 3107 2521 
Q 2950 2432 2803 2221 
L 2803 608 
Q 2803 301 2896 201 
Q 2989 102 3264 96 
L 3264 0 
L 1830 0 
L 1830 96 
Q 2112 115 2189 188 
Q 2266 262 2266 550 
L 2266 1901 
Q 2266 2611 1850 2611 
Q 1670 2611 1468 2531 
Q 1267 2451 1171 2336 
Q 1088 2240 1088 2227 
L 1088 448 
Q 1088 243 1177 176 
Q 1267 109 1523 96 
L 1523 0 
L 102 0 
L 102 96 
Q 371 102 460 195 
Q 550 288 550 563 
L 550 2150 
Q 550 2387 499 2480 
Q 448 2573 326 2573 
Q 230 2573 122 2547 
L 122 2656 
Q 557 2778 1011 2944 
L 1062 2925 
L 1062 2451 
L 1075 2451 
Q 1363 2752 1584 2848 
Q 1805 2944 2054 2944 
Q 2560 2944 2733 2406 
Q 3232 2944 3776 2944 
Q 4518 2944 4518 1792 
L 4518 493 
Q 4518 282 4582 202 
Q 4646 122 4794 109 
L 4960 96 
L 4960 0 
z
" transform="scale(0.015625)"/>
       <path id="STIXGeneral-Regular-65" d="M 2611 1050 
L 2714 1005 
Q 2330 -64 1376 -64 
Q 813 -64 486 329 
Q 160 723 160 1389 
Q 160 2074 525 2509 
Q 890 2944 1485 2944 
Q 2061 2944 2374 2502 
Q 2560 2246 2592 1773 
L 621 1773 
Q 646 1370 700 1158 
Q 755 947 915 730 
Q 1184 378 1626 378 
Q 1939 378 2153 531 
Q 2368 685 2611 1050 
z
M 634 1978 
L 1939 1978 
Q 1882 2381 1750 2547 
Q 1619 2714 1312 2714 
Q 1043 2714 864 2525 
Q 685 2336 634 1978 
z
" transform="scale(0.015625)"/>
       <path id="STIXGeneral-Regular-74" d="M 1702 493 
L 1786 422 
Q 1478 -64 1011 -64 
Q 448 -64 448 749 
L 448 2675 
L 109 2675 
Q 83 2694 83 2720 
Q 83 2771 192 2842 
Q 435 2982 813 3526 
Q 826 3546 874 3606 
Q 922 3667 941 3706 
Q 986 3706 986 3622 
L 986 2880 
L 1632 2880 
L 1632 2675 
L 986 2675 
L 986 845 
Q 986 538 1062 403 
Q 1139 269 1318 269 
Q 1510 269 1702 493 
z
" transform="scale(0.015625)"/>
       <path id="STIXGeneral-Regular-53" d="M 3002 2963 
L 2842 2963 
Q 2733 3360 2579 3565 
Q 2189 4064 1651 4064 
Q 1357 4064 1181 3894 
Q 1005 3725 1005 3456 
Q 1005 3328 1069 3206 
Q 1133 3085 1206 2998 
Q 1280 2912 1465 2784 
Q 1651 2656 1766 2589 
Q 1882 2522 2150 2362 
Q 2669 2061 2905 1763 
Q 3142 1466 3142 1107 
Q 3142 576 2771 243 
Q 2400 -90 1837 -90 
Q 1421 -90 1082 58 
Q 915 128 781 128 
Q 704 128 653 70 
Q 602 13 602 -83 
L 461 -83 
L 275 1274 
L 416 1274 
Q 845 141 1734 141 
Q 2074 141 2285 342 
Q 2496 544 2496 858 
Q 2496 1158 2310 1363 
Q 2003 1696 1235 2106 
Q 454 2522 454 3206 
Q 454 3718 768 4022 
Q 1082 4326 1568 4326 
Q 1907 4326 2240 4186 
Q 2413 4109 2522 4109 
Q 2688 4109 2726 4326 
L 2861 4326 
L 3002 2963 
z
" transform="scale(0.015625)"/>
       <path id="STIXGeneral-Regular-70" d="M 1018 2931 
L 1018 2438 
Q 1421 2944 1939 2944 
Q 2406 2944 2707 2560 
Q 3008 2176 3008 1581 
Q 3008 883 2621 409 
Q 2234 -64 1664 -64 
Q 1466 -64 1328 -6 
Q 1190 51 1018 211 
L 1018 -794 
Q 1018 -1094 1120 -1180 
Q 1222 -1267 1581 -1274 
L 1581 -1389 
L 32 -1389 
L 32 -1280 
Q 314 -1254 397 -1171 
Q 480 -1088 480 -838 
L 480 2157 
Q 480 2381 429 2451 
Q 378 2522 218 2522 
Q 115 2522 58 2515 
L 58 2618 
Q 506 2752 979 2944 
L 1018 2931 
z
M 1018 2138 
L 1018 563 
Q 1018 422 1238 281 
Q 1459 141 1683 141 
Q 2029 141 2243 467 
Q 2458 794 2458 1325 
Q 2458 1888 2243 2224 
Q 2029 2560 1670 2560 
Q 1446 2560 1232 2419 
Q 1018 2278 1018 2138 
z
" transform="scale(0.015625)"/>
       <path id="STIXGeneral-Regular-73" d="M 998 1926 
L 1664 1523 
Q 1984 1331 2105 1164 
Q 2227 998 2227 736 
Q 2227 416 1961 176 
Q 1696 -64 1331 -64 
Q 1030 -64 864 -6 
Q 691 51 570 51 
Q 461 51 416 -26 
L 333 -26 
L 333 979 
L 435 979 
Q 538 512 730 294 
Q 922 77 1248 77 
Q 1485 77 1632 211 
Q 1779 346 1779 550 
Q 1779 845 1440 1030 
L 1094 1222 
Q 326 1651 326 2150 
Q 326 2522 566 2730 
Q 806 2938 1210 2938 
Q 1491 2938 1638 2867 
Q 1754 2816 1818 2816 
Q 1862 2816 1920 2880 
L 1990 2880 
L 2022 2010 
L 1926 2010 
Q 1818 2445 1654 2621 
Q 1491 2797 1203 2797 
Q 986 2797 854 2688 
Q 723 2579 723 2362 
Q 723 2253 796 2128 
Q 870 2003 998 1926 
z
" transform="scale(0.015625)"/>
      </defs>
      <use xlink:href="#STIXGeneral-Regular-54"/>
      <use xlink:href="#STIXGeneral-Regular-72" x="61.099991"/>
      <use xlink:href="#STIXGeneral-Regular-61" x="94.399979"/>
      <use xlink:href="#STIXGeneral-Regular-69" x="138.799973"/>
      <use xlink:href="#STIXGeneral-Regular-6e" x="166.59996"/>
      <use xlink:href="#STIXGeneral-Regular-69" x="216.599945"/>
      <use xlink:href="#STIXGeneral-Regular-6e" x="244.399933"/>
      <use xlink:href="#STIXGeneral-Regular-67" x="294.399918"/>
      <use xlink:href="#STIXGeneral-Regular-20" x="344.399902"/>
      <use xlink:href="#STIXGeneral-Regular-45" x="369.399887"/>
      <use xlink:href="#STIXGeneral-Regular-6e" x="430.499878"/>
      <use xlink:href="#STIXGeneral-Regular-76" x="480.499863"/>
      <use xlink:href="#STIXGeneral-Regular-69" x="530.499847"/>
      <use xlink:href="#STIXGeneral-Regular-72" x="558.299835"/>
      <use xlink:href="#STIXGeneral-Regular-6f" x="591.599823"/>
      <use xlink:href="#STIXGeneral-Regular-6e" x="641.599808"/>
      <use xlink:href="#STIXGeneral-Regular-6d" x="691.599792"/>
      <use xlink:href="#STIXGeneral-Regular-65" x="769.39978"/>
      <use xlink:href="#STIXGeneral-Regular-6e" x="813.799774"/>
      <use xlink:href="#STIXGeneral-Regular-74" x="863.799759"/>
      <use xlink:href="#STIXGeneral-Regular-20" x="891.599747"/>
      <use xlink:href="#STIXGeneral-Regular-53" x="916.599731"/>
      <use xlink:href="#STIXGeneral-Regular-74" x="972.199722"/>
      <use xlink:href="#STIXGeneral-Regular-65" x="999.99971"/>
      <use xlink:href="#STIXGeneral-Regular-70" x="1044.399704"/>
      <use xlink:href="#STIXGeneral-Regular-73" x="1094.399689"/>
     </g>
    </g>
    <g id="text_8">
     <!-- 1e8 -->
     <g transform="translate(490.806875 386.045562)scale(0.18 -0.18)">
      <use xlink:href="#STIXGeneral-Regular-31"/>
      <use xlink:href="#STIXGeneral-Regular-65" x="49.999985"/>
      <use xlink:href="#STIXGeneral-Regular-38" x="94.399979"/>
     </g>
    </g>
   </g>
   <g id="matplotlib.axis_2">
    <g id="ytick_1">
     <g id="line2d_13">
      <path d="M 70.4 309.597975 
L 516.8 309.597975 
" clip-path="url(#pdd5b134c23)" style="fill: none; stroke: #b0b0b0; stroke-width: 0.8; stroke-linecap: square"/>
     </g>
     <g id="line2d_14">
      <defs>
       <path id="m62d7d6a99b" d="M 0 0 
L -3.5 0 
" style="stroke: #000000; stroke-width: 0.8"/>
      </defs>
      <g>
       <use xlink:href="#m62d7d6a99b" x="70.4" y="309.597975" style="stroke: #000000; stroke-width: 0.8"/>
      </g>
     </g>
     <g id="text_9">
      <!-- 250 -->
      <g transform="translate(36.4 315.744693)scale(0.18 -0.18)">
       <defs>
        <path id="STIXGeneral-Regular-35" d="M 2803 4358 
L 2573 3814 
Q 2534 3731 2400 3731 
L 1158 3731 
L 902 3187 
Q 1606 3053 1920 2896 
Q 2234 2739 2502 2368 
Q 2726 2061 2726 1555 
Q 2726 1094 2576 780 
Q 2426 467 2099 224 
Q 1664 -90 1011 -90 
Q 646 -90 422 19 
Q 198 128 198 307 
Q 198 550 486 550 
Q 717 550 960 352 
Q 1210 147 1414 147 
Q 1747 147 2012 480 
Q 2278 813 2278 1229 
Q 2278 1843 1850 2189 
Q 1293 2637 486 2637 
Q 410 2637 410 2688 
L 416 2720 
L 1114 4237 
L 2438 4237 
Q 2547 4237 2608 4269 
Q 2669 4301 2746 4403 
L 2803 4358 
z
" transform="scale(0.015625)"/>
       </defs>
       <use xlink:href="#STIXGeneral-Regular-32"/>
       <use xlink:href="#STIXGeneral-Regular-35" x="49.999985"/>
       <use xlink:href="#STIXGeneral-Regular-30" x="99.999969"/>
      </g>
     </g>
    </g>
    <g id="ytick_2">
     <g id="line2d_15">
      <path d="M 70.4 260.846308 
L 516.8 260.846308 
" clip-path="url(#pdd5b134c23)" style="fill: none; stroke: #b0b0b0; stroke-width: 0.8; stroke-linecap: square"/>
     </g>
     <g id="line2d_16">
      <g>
       <use xlink:href="#m62d7d6a99b" x="70.4" y="260.846308" style="stroke: #000000; stroke-width: 0.8"/>
      </g>
     </g>
     <g id="text_10">
      <!-- 500 -->
      <g transform="translate(36.4 266.993027)scale(0.18 -0.18)">
       <use xlink:href="#STIXGeneral-Regular-35"/>
       <use xlink:href="#STIXGeneral-Regular-30" x="49.999985"/>
       <use xlink:href="#STIXGeneral-Regular-30" x="99.999969"/>
      </g>
     </g>
    </g>
    <g id="ytick_3">
     <g id="line2d_17">
      <path d="M 70.4 212.094641 
L 516.8 212.094641 
" clip-path="url(#pdd5b134c23)" style="fill: none; stroke: #b0b0b0; stroke-width: 0.8; stroke-linecap: square"/>
     </g>
     <g id="line2d_18">
      <g>
       <use xlink:href="#m62d7d6a99b" x="70.4" y="212.094641" style="stroke: #000000; stroke-width: 0.8"/>
      </g>
     </g>
     <g id="text_11">
      <!-- 750 -->
      <g transform="translate(36.4 218.24136)scale(0.18 -0.18)">
       <defs>
        <path id="STIXGeneral-Regular-37" d="M 2874 4134 
L 1517 -51 
L 1101 -51 
L 2368 3763 
L 992 3763 
Q 717 3763 582 3667 
Q 448 3571 243 3238 
L 128 3296 
L 512 4237 
L 2874 4237 
L 2874 4134 
z
" transform="scale(0.015625)"/>
       </defs>
       <use xlink:href="#STIXGeneral-Regular-37"/>
       <use xlink:href="#STIXGeneral-Regular-35" x="49.999985"/>
       <use xlink:href="#STIXGeneral-Regular-30" x="99.999969"/>
      </g>
     </g>
    </g>
    <g id="ytick_4">
     <g id="line2d_19">
      <path d="M 70.4 163.342974 
L 516.8 163.342974 
" clip-path="url(#pdd5b134c23)" style="fill: none; stroke: #b0b0b0; stroke-width: 0.8; stroke-linecap: square"/>
     </g>
     <g id="line2d_20">
      <g>
       <use xlink:href="#m62d7d6a99b" x="70.4" y="163.342974" style="stroke: #000000; stroke-width: 0.8"/>
      </g>
     </g>
     <g id="text_12">
      <!-- 1000 -->
      <g transform="translate(27.4 169.489693)scale(0.18 -0.18)">
       <use xlink:href="#STIXGeneral-Regular-31"/>
       <use xlink:href="#STIXGeneral-Regular-30" x="49.999985"/>
       <use xlink:href="#STIXGeneral-Regular-30" x="99.999969"/>
       <use xlink:href="#STIXGeneral-Regular-30" x="149.999954"/>
      </g>
     </g>
    </g>
    <g id="ytick_5">
     <g id="line2d_21">
      <path d="M 70.4 114.591307 
L 516.8 114.591307 
" clip-path="url(#pdd5b134c23)" style="fill: none; stroke: #b0b0b0; stroke-width: 0.8; stroke-linecap: square"/>
     </g>
     <g id="line2d_22">
      <g>
       <use xlink:href="#m62d7d6a99b" x="70.4" y="114.591307" style="stroke: #000000; stroke-width: 0.8"/>
      </g>
     </g>
     <g id="text_13">
      <!-- 1250 -->
      <g transform="translate(27.4 120.738026)scale(0.18 -0.18)">
       <use xlink:href="#STIXGeneral-Regular-31"/>
       <use xlink:href="#STIXGeneral-Regular-32" x="49.999985"/>
       <use xlink:href="#STIXGeneral-Regular-35" x="99.999969"/>
       <use xlink:href="#STIXGeneral-Regular-30" x="149.999954"/>
      </g>
     </g>
    </g>
    <g id="text_14">
     <!-- Average Test Return -->
     <g transform="translate(19.476562 283.933375)rotate(-90)scale(0.18 -0.18)">
      <defs>
       <path id="STIXGeneral-Regular-41" d="M 4525 0 
L 2893 0 
L 2893 122 
Q 3149 122 3245 179 
Q 3334 224 3334 333 
Q 3334 499 3213 781 
L 2950 1382 
L 1274 1382 
L 979 653 
Q 922 506 922 384 
Q 922 237 1027 179 
Q 1133 122 1370 122 
L 1370 0 
L 96 0 
L 96 122 
Q 365 147 486 316 
Q 608 486 902 1190 
L 2221 4314 
L 2349 4314 
L 3923 710 
Q 4064 378 4176 262 
Q 4288 147 4525 122 
L 4525 0 
z
M 2861 1645 
L 2118 3405 
L 1382 1645 
L 2861 1645 
z
" transform="scale(0.015625)"/>
       <path id="STIXGeneral-Regular-52" d="M 4224 0 
L 3187 0 
L 1664 1971 
L 1306 1958 
L 1306 717 
Q 1306 352 1405 249 
Q 1504 147 1875 122 
L 1875 0 
L 109 0 
L 109 122 
Q 474 154 563 262 
Q 653 371 653 794 
L 653 3526 
Q 653 3885 563 3987 
Q 474 4090 109 4115 
L 109 4237 
L 1850 4237 
Q 2726 4237 3187 3859 
Q 3501 3603 3501 3091 
Q 3501 2221 2342 2042 
L 3622 422 
Q 3757 256 3878 198 
Q 4000 141 4224 122 
L 4224 0 
z
M 1306 3731 
L 1306 2195 
Q 1766 2202 1990 2246 
Q 2214 2291 2438 2413 
Q 2803 2618 2803 3142 
Q 2803 4000 1632 4000 
Q 1459 4000 1382 3945 
Q 1306 3891 1306 3731 
z
" transform="scale(0.015625)"/>
       <path id="STIXGeneral-Regular-75" d="M 3072 320 
L 3072 230 
Q 2573 96 2195 -58 
L 2163 -38 
L 2163 486 
L 2150 486 
Q 1747 -64 1235 -64 
Q 870 -64 662 160 
Q 454 384 454 755 
L 454 2362 
Q 454 2598 371 2688 
Q 288 2778 58 2790 
L 58 2880 
L 992 2880 
L 992 813 
Q 992 595 1123 451 
Q 1254 307 1446 307 
Q 1760 307 1984 506 
Q 2067 582 2099 649 
Q 2131 717 2131 877 
L 2131 2355 
Q 2131 2605 2041 2678 
Q 1952 2752 1658 2771 
L 1658 2880 
L 2669 2880 
L 2669 685 
Q 2669 461 2742 390 
Q 2816 320 3034 320 
L 3072 320 
z
" transform="scale(0.015625)"/>
      </defs>
      <use xlink:href="#STIXGeneral-Regular-41"/>
      <use xlink:href="#STIXGeneral-Regular-76" x="72.199982"/>
      <use xlink:href="#STIXGeneral-Regular-65" x="122.199966"/>
      <use xlink:href="#STIXGeneral-Regular-72" x="166.59996"/>
      <use xlink:href="#STIXGeneral-Regular-61" x="199.899948"/>
      <use xlink:href="#STIXGeneral-Regular-67" x="244.299942"/>
      <use xlink:href="#STIXGeneral-Regular-65" x="294.299927"/>
      <use xlink:href="#STIXGeneral-Regular-20" x="338.699921"/>
      <use xlink:href="#STIXGeneral-Regular-54" x="363.699905"/>
      <use xlink:href="#STIXGeneral-Regular-65" x="424.799896"/>
      <use xlink:href="#STIXGeneral-Regular-73" x="469.19989"/>
      <use xlink:href="#STIXGeneral-Regular-74" x="508.099884"/>
      <use xlink:href="#STIXGeneral-Regular-20" x="535.899872"/>
      <use xlink:href="#STIXGeneral-Regular-52" x="560.899857"/>
      <use xlink:href="#STIXGeneral-Regular-65" x="627.599854"/>
      <use xlink:href="#STIXGeneral-Regular-74" x="671.999847"/>
      <use xlink:href="#STIXGeneral-Regular-75" x="699.799835"/>
      <use xlink:href="#STIXGeneral-Regular-72" x="749.79982"/>
      <use xlink:href="#STIXGeneral-Regular-6e" x="783.099808"/>
     </g>
    </g>
   </g>
   <g id="line2d_23">
    <path d="M 90.690909 298.582449 
L 91.491339 299.870992 
L 92.29177 291.804184 
L 93.0922 294.452027 
L 93.89263 299.850597 
L 95.493491 307.508099 
L 96.293921 307.655215 
L 97.094352 302.101725 
L 98.695212 301.50186 
L 99.495643 302.798568 
L 100.296073 304.789225 
L 101.096503 305.849761 
L 101.896934 303.076953 
L 102.697364 305.322426 
L 103.497795 306.478359 
L 104.298225 305.563988 
L 105.098655 302.512167 
L 105.899086 298.874026 
L 106.699516 290.307024 
L 107.499946 290.752824 
L 108.300377 291.063485 
L 109.100807 289.391173 
L 109.901237 289.600137 
L 111.502098 285.2461 
L 112.302528 280.275863 
L 113.102959 283.094936 
L 113.903389 282.282617 
L 114.703819 284.090627 
L 115.50425 282.498843 
L 116.30468 281.18785 
L 117.10511 278.044711 
L 117.905541 276.479 
L 118.705971 275.469156 
L 119.506401 275.847625 
L 120.306832 274.527123 
L 121.107262 273.697317 
L 121.907692 271.189215 
L 122.708123 264.375548 
L 124.308983 255.046769 
L 125.109414 253.930978 
L 125.909844 251.628626 
L 126.710274 250.900655 
L 127.510705 250.535904 
L 128.311135 247.002326 
L 129.111565 242.245576 
L 129.911996 227.961431 
L 130.712426 198.10032 
L 131.512856 176.535771 
L 133.113717 143.89962 
L 133.914147 138.359967 
L 134.714578 134.384484 
L 135.515008 123.564509 
L 136.315438 119.835343 
L 137.115869 119.583846 
L 137.916299 116.861116 
L 139.51716 120.398053 
L 140.31759 114.473654 
L 141.11802 109.538333 
L 141.918451 108.885037 
L 142.718881 105.470408 
L 143.519311 103.129416 
L 144.319742 102.488365 
L 145.120172 99.542187 
L 145.920602 97.506088 
L 148.321893 93.113052 
L 149.122324 92.509228 
L 149.922754 91.719119 
L 151.523615 86.168852 
L 152.324045 92.452121 
L 153.124476 94.532952 
L 153.924906 95.755912 
L 154.725336 100.230779 
L 155.525767 101.457711 
L 156.326197 97.202327 
L 157.126627 99.687905 
L 157.927058 101.17652 
L 158.727488 99.095027 
L 159.527918 95.911966 
L 160.328349 98.615618 
L 161.128779 102.825018 
L 161.929209 100.634239 
L 162.72964 99.193303 
L 163.53007 94.298979 
L 164.3305 97.54877 
L 165.130931 96.667468 
L 165.931361 97.177964 
L 166.731791 99.246453 
L 167.532222 102.39528 
L 168.332652 103.028582 
L 169.133082 108.86616 
L 169.933513 107.224235 
L 170.733943 107.555375 
L 171.534373 107.0854 
L 172.334804 111.618203 
L 173.135234 111.253076 
L 174.736095 114.637324 
L 175.536525 113.762649 
L 176.336955 117.131018 
L 177.137386 115.546196 
L 177.937816 111.423483 
L 178.738246 111.274377 
L 179.538677 111.318085 
L 180.339107 111.666357 
L 181.139537 109.082915 
L 181.939968 104.522807 
L 183.540828 110.934389 
L 184.341259 112.588583 
L 185.141689 115.84409 
L 185.942119 117.037631 
L 186.74255 113.350918 
L 187.54298 118.615853 
L 188.34341 115.689083 
L 189.143841 118.928819 
L 189.944271 120.122352 
L 190.744701 117.537279 
L 191.545132 117.440844 
L 192.345562 125.08427 
L 193.145992 127.13743 
L 193.946423 128.142468 
L 194.746853 128.473443 
L 195.547283 127.248261 
L 196.347714 123.601696 
L 197.148144 122.996977 
L 197.948575 125.365258 
L 198.749005 128.409248 
L 199.549435 121.476319 
L 200.349866 122.775082 
L 201.150296 117.993565 
L 201.950726 115.993101 
L 202.751157 109.715203 
L 204.352017 119.799261 
L 205.152448 117.136591 
L 205.952878 118.26118 
L 206.753308 113.762344 
L 207.553739 114.229796 
L 208.354169 108.406863 
L 209.154599 106.728484 
L 209.95503 111.159381 
L 210.75546 109.716381 
L 211.55589 103.605663 
L 212.356321 99.568072 
L 213.156751 101.086633 
L 213.957181 97.041382 
L 214.757612 93.780997 
L 215.558042 97.126404 
L 217.158903 94.039332 
L 217.959333 98.155603 
L 218.759763 100.241627 
L 219.560194 96.435085 
L 220.360624 100.083257 
L 221.161054 89.708655 
L 221.961485 86.75933 
L 222.761915 82.952125 
L 223.562345 85.824262 
L 224.362776 86.347567 
L 225.163206 84.986198 
L 225.963636 89.276218 
L 226.764067 90.62543 
L 227.564497 88.003554 
L 228.364927 88.181632 
L 229.165358 89.585626 
L 229.965788 86.836614 
L 230.766218 90.939771 
L 231.566649 91.443571 
L 232.367079 95.564773 
L 233.167509 95.42987 
L 233.96794 95.849966 
L 234.76837 97.380755 
L 235.5688 102.936588 
L 236.369231 105.301625 
L 237.169661 106.066394 
L 237.970091 98.628323 
L 238.770522 101.608746 
L 239.570952 100.994199 
L 240.371382 101.403518 
L 241.171813 104.564125 
L 241.972243 104.676969 
L 242.772673 103.645754 
L 243.573104 108.167973 
L 244.373534 109.386333 
L 245.173964 110.913611 
L 245.974395 116.507871 
L 246.774825 116.787816 
L 247.575256 118.498355 
L 248.375686 121.006357 
L 249.176116 118.843919 
L 249.976547 118.366531 
L 250.776977 112.898387 
L 251.577407 116.886222 
L 252.377838 119.994268 
L 253.178268 123.740843 
L 253.978698 116.823179 
L 254.779129 120.78404 
L 255.579559 126.197004 
L 256.379989 125.350719 
L 257.98085 127.972459 
L 258.78128 126.534462 
L 259.581711 121.720703 
L 260.382141 122.375608 
L 261.182571 121.277874 
L 261.983002 122.135524 
L 262.783432 121.721824 
L 263.583862 118.761392 
L 264.384293 116.387316 
L 265.184723 120.316889 
L 265.985153 117.138566 
L 266.785584 114.672052 
L 267.586014 116.943594 
L 268.386444 117.100925 
L 269.186875 113.447587 
L 269.987305 113.462006 
L 270.787735 113.587681 
L 271.588166 109.55251 
L 272.388596 106.938011 
L 273.189026 110.264607 
L 273.989457 109.305566 
L 274.789887 109.76541 
L 276.390748 102.392653 
L 277.191178 101.693753 
L 277.991608 105.046087 
L 278.792039 103.421471 
L 279.592469 97.543026 
L 280.392899 100.220998 
L 281.19333 97.447216 
L 281.99376 96.846733 
L 282.79419 94.636127 
L 283.594621 96.545265 
L 284.395051 96.919071 
L 285.195481 100.32305 
L 285.995912 101.969605 
L 286.796342 99.722561 
L 287.596772 101.046868 
L 288.397203 99.989851 
L 289.197633 99.261194 
L 289.998063 99.744797 
L 290.798494 99.775461 
L 291.598924 101.924402 
L 292.399354 97.868575 
L 293.199785 97.856647 
L 294.000215 99.447287 
L 295.601076 91.975276 
L 296.401506 92.419657 
L 297.201937 94.289653 
L 298.002367 97.031216 
L 298.802797 97.448421 
L 299.603228 97.087748 
L 300.403658 96.47199 
L 301.204088 94.056146 
L 302.804949 96.116677 
L 303.605379 97.591495 
L 304.40581 101.348859 
L 305.20624 102.298027 
L 306.00667 102.770054 
L 306.807101 104.490273 
L 307.607531 104.384262 
L 308.407961 105.349078 
L 309.208392 105.244492 
L 310.008822 108.988683 
L 310.809252 115.49975 
L 311.609683 115.865477 
L 312.410113 116.057338 
L 313.210543 114.179749 
L 314.010974 109.632352 
L 314.811404 108.373815 
L 315.611834 102.567096 
L 316.412265 99.707267 
L 318.013125 101.915713 
L 318.813556 97.48965 
L 320.414416 100.78975 
L 321.214847 103.416685 
L 322.015277 102.979964 
L 322.815707 104.487951 
L 323.616138 108.285925 
L 324.416568 107.928607 
L 325.216998 109.592564 
L 326.017429 110.689736 
L 327.618289 117.111201 
L 328.41872 117.983182 
L 329.21915 115.277687 
L 330.01958 109.454662 
L 330.820011 108.460998 
L 331.620441 109.151225 
L 332.420871 111.644182 
L 333.221302 109.815206 
L 334.021732 110.700824 
L 334.822162 110.120942 
L 335.622593 113.178526 
L 336.423023 109.990941 
L 337.223453 109.071153 
L 338.023884 109.84921 
L 338.824314 106.163497 
L 339.624744 110.451991 
L 340.425175 108.400696 
L 341.225605 109.323295 
L 342.026036 111.856134 
L 342.826466 116.896879 
L 343.626896 118.617876 
L 344.427327 121.350108 
L 345.227757 123.088836 
L 346.028187 125.405453 
L 346.828618 124.146455 
L 347.629048 125.890484 
L 348.429478 123.085072 
L 349.229909 124.217206 
L 350.030339 122.911359 
L 350.830769 119.113856 
L 351.6312 117.036502 
L 352.43163 113.226038 
L 353.23206 113.88756 
L 354.032491 113.56968 
L 354.832921 115.120586 
L 355.633351 115.077315 
L 356.433782 114.517217 
L 357.234212 112.384964 
L 358.034642 106.309382 
L 360.435933 109.237785 
L 361.236364 106.929519 
L 362.036794 111.947671 
L 362.837224 115.979891 
L 363.637655 119.331361 
L 364.438085 124.314352 
L 365.238515 122.630166 
L 366.038946 121.888989 
L 366.839376 122.286039 
L 367.639806 120.112794 
L 368.440237 122.643975 
L 369.240667 119.766131 
L 370.041097 122.055115 
L 370.841528 122.371022 
L 371.641958 121.243967 
L 372.442388 121.41408 
L 373.242819 120.814419 
L 374.043249 124.942727 
L 374.843679 125.680097 
L 375.64411 126.965341 
L 376.44454 127.63809 
L 377.24497 125.794344 
L 378.045401 117.011242 
L 378.845831 116.266859 
L 379.646261 120.383805 
L 380.446692 118.063073 
L 381.247122 119.725059 
L 382.047552 124.943184 
L 382.847983 125.197986 
L 383.648413 126.951808 
L 385.249274 119.451565 
L 386.049704 122.668911 
L 386.850134 123.752535 
L 388.450995 130.208311 
L 389.251425 130.39472 
L 390.051856 133.654438 
L 390.852286 132.046122 
L 391.652717 129.826044 
L 392.453147 129.323108 
L 394.054008 127.900735 
L 394.854438 124.907294 
L 395.654868 126.324525 
L 396.455299 126.203192 
L 397.255729 124.704101 
L 398.056159 126.176225 
L 398.85659 126.487086 
L 399.65702 125.373352 
L 400.45745 129.629906 
L 401.257881 132.120537 
L 402.058311 135.351894 
L 402.858741 137.026773 
L 403.659172 135.790733 
L 404.459602 136.984684 
L 406.060463 126.522142 
L 406.860893 129.115338 
L 407.661323 130.924421 
L 408.461754 129.52762 
L 409.262184 131.142625 
L 410.062614 128.772386 
L 411.663475 131.249504 
L 412.463905 134.110482 
L 413.264336 133.377745 
L 414.064766 130.650622 
L 414.865196 133.679825 
L 415.665627 140.020683 
L 416.466057 143.515072 
L 417.266487 141.995684 
L 418.066918 144.153769 
L 418.867348 141.368038 
L 419.667778 142.513027 
L 420.468209 144.284155 
L 421.268639 141.519341 
L 422.069069 140.425266 
L 423.66993 137.865752 
L 424.47036 137.449783 
L 425.270791 136.640099 
L 426.071221 133.86896 
L 426.871651 133.737202 
L 427.672082 130.577128 
L 428.472512 128.849391 
L 429.272942 130.353368 
L 430.073373 133.624009 
L 430.873803 137.56752 
L 431.674233 139.322175 
L 432.474664 136.978157 
L 433.275094 136.656775 
L 434.075524 135.726977 
L 434.875955 137.101102 
L 435.676385 136.084078 
L 436.476815 131.17928 
L 437.277246 132.422275 
L 438.878107 122.758315 
L 439.678537 122.859633 
L 440.478967 119.592589 
L 441.279398 119.922387 
L 442.079828 118.363597 
L 442.880258 116.192068 
L 443.680689 117.760395 
L 444.481119 124.453774 
L 445.281549 124.394143 
L 446.08198 126.315591 
L 447.68284 132.884201 
L 448.483271 134.470336 
L 449.283701 141.041827 
L 450.084131 143.055422 
L 450.884562 137.88131 
L 451.684992 139.402642 
L 452.485422 138.237564 
L 453.285853 141.015168 
L 454.886713 145.010868 
L 455.687144 146.929267 
L 456.487574 146.918197 
L 457.288004 145.493825 
L 458.088435 145.131641 
L 458.888865 142.241654 
L 459.689295 142.395589 
L 460.489726 138.245917 
L 461.290156 139.786229 
L 462.090586 140.634737 
L 462.891017 143.062791 
L 463.691447 145.914312 
L 464.491877 146.152619 
L 465.292308 150.761056 
L 466.092738 146.055421 
L 466.893168 146.157044 
L 467.693599 142.443421 
L 468.494029 144.10622 
L 469.294459 140.828254 
L 470.09489 142.337545 
L 470.89532 140.096114 
L 471.69575 138.265024 
L 472.496181 141.41044 
L 473.296611 142.147684 
L 474.097041 142.304433 
L 474.897472 147.725545 
L 475.697902 148.344879 
L 477.298763 144.101778 
L 478.099193 140.176849 
L 478.899623 138.117859 
L 480.500484 138.203362 
L 481.300914 137.423206 
L 482.101345 137.280197 
L 482.901775 131.644661 
L 483.702205 125.128122 
L 484.502636 120.083323 
L 486.103497 126.406799 
L 487.704357 129.899972 
L 488.504788 132.71641 
L 489.305218 136.022971 
L 490.105648 141.055144 
L 490.906079 142.233453 
L 491.706509 139.640512 
L 492.506939 133.669266 
L 493.30737 133.603503 
L 494.1078 134.561407 
L 495.708661 145.048653 
L 496.509091 146.737459 
L 496.509091 146.737459 
" clip-path="url(#pdd5b134c23)" style="fill: none; stroke: #1f77b4; stroke-width: 1.5; stroke-linecap: square"/>
   </g>
   <g id="line2d_24">
    <path d="M 90.690909 267.925119 
L 91.491339 263.612505 
L 92.29177 255.799839 
L 93.0922 230.437558 
L 94.693061 205.904258 
L 95.493491 214.711162 
L 96.293921 212.780839 
L 97.094352 211.703133 
L 97.894782 208.881809 
L 98.695212 213.904167 
L 99.495643 210.809945 
L 100.296073 214.553631 
L 101.096503 211.051925 
L 101.896934 205.924224 
L 102.697364 209.182244 
L 103.497795 198.152283 
L 104.298225 183.878147 
L 105.098655 180.042277 
L 105.899086 180.079617 
L 106.699516 177.397693 
L 107.499946 179.388897 
L 108.300377 171.536105 
L 109.100807 167.644967 
L 109.901237 165.977573 
L 110.701668 153.167612 
L 111.502098 151.231875 
L 112.302528 162.027413 
L 113.102959 160.470056 
L 113.903389 150.081655 
L 114.703819 145.552734 
L 115.50425 151.34954 
L 116.30468 148.16878 
L 117.10511 142.228627 
L 117.905541 141.86613 
L 118.705971 144.411404 
L 119.506401 136.117916 
L 120.306832 131.249372 
L 121.107262 131.140913 
L 121.907692 134.731383 
L 122.708123 142.231515 
L 123.508553 142.177359 
L 124.308983 146.513815 
L 125.109414 146.267811 
L 125.909844 147.543043 
L 126.710274 154.804651 
L 127.510705 156.145035 
L 128.311135 152.239407 
L 129.111565 154.982771 
L 129.911996 154.885346 
L 130.712426 143.209798 
L 131.512856 142.596231 
L 132.313287 135.565633 
L 133.914147 116.944009 
L 135.515008 106.377756 
L 136.315438 107.923713 
L 137.115869 105.220469 
L 137.916299 106.522118 
L 138.716729 103.908516 
L 139.51716 102.331327 
L 140.31759 107.778586 
L 141.11802 106.249549 
L 141.918451 99.393593 
L 142.718881 98.255023 
L 143.519311 102.09076 
L 144.319742 102.657358 
L 145.120172 107.645664 
L 145.920602 126.257225 
L 146.721033 135.714435 
L 147.521463 150.858153 
L 148.321893 153.264253 
L 149.122324 151.587864 
L 149.922754 156.892796 
L 151.523615 138.532573 
L 152.324045 130.325608 
L 153.924906 121.751888 
L 154.725336 126.134277 
L 155.525767 133.774372 
L 156.326197 145.971392 
L 157.126627 143.783106 
L 157.927058 141.966535 
L 158.727488 134.545169 
L 159.527918 121.486405 
L 160.328349 118.096289 
L 161.128779 109.438791 
L 161.929209 103.985461 
L 162.72964 107.153863 
L 163.53007 106.06877 
L 164.3305 102.388807 
L 165.130931 100.856344 
L 165.931361 101.555984 
L 166.731791 102.60415 
L 167.532222 106.446975 
L 168.332652 104.982756 
L 169.133082 104.340471 
L 170.733943 109.386854 
L 171.534373 115.518023 
L 172.334804 117.030455 
L 173.135234 115.432689 
L 173.935664 114.458279 
L 174.736095 117.819748 
L 175.536525 122.961002 
L 176.336955 116.386678 
L 177.137386 111.540806 
L 177.937816 112.409556 
L 178.738246 116.325379 
L 179.538677 117.219646 
L 180.339107 115.77106 
L 181.139537 117.357984 
L 181.939968 114.853968 
L 182.740398 115.999327 
L 183.540828 113.635326 
L 184.341259 112.105006 
L 185.942119 105.013614 
L 186.74255 104.416298 
L 187.54298 104.381754 
L 188.34341 103.436193 
L 189.143841 99.974179 
L 189.944271 100.113296 
L 190.744701 103.782079 
L 191.545132 108.081404 
L 192.345562 107.621713 
L 193.145992 108.029289 
L 193.946423 112.14107 
L 194.746853 110.686857 
L 195.547283 108.544824 
L 196.347714 102.197553 
L 197.148144 102.828735 
L 197.948575 106.353916 
L 198.749005 111.325768 
L 199.549435 115.565691 
L 200.349866 120.650093 
L 201.150296 119.747945 
L 201.950726 111.371949 
L 202.751157 111.392882 
L 203.551587 108.653239 
L 204.352017 112.707076 
L 205.152448 115.23849 
L 205.952878 118.226192 
L 206.753308 122.90157 
L 207.553739 126.339435 
L 208.354169 126.467304 
L 209.154599 129.061382 
L 209.95503 130.459576 
L 211.55589 135.360943 
L 212.356321 139.420625 
L 213.156751 141.188136 
L 213.957181 140.052609 
L 214.757612 138.123126 
L 215.558042 135.442032 
L 216.358472 134.986315 
L 217.158903 134.738051 
L 217.959333 133.325786 
L 218.759763 134.799883 
L 219.560194 135.890764 
L 220.360624 137.641701 
L 221.161054 137.077268 
L 221.961485 137.621338 
L 222.761915 137.850029 
L 223.562345 140.722355 
L 224.362776 140.951112 
L 225.163206 143.073539 
L 225.963636 141.896911 
L 226.764067 141.933492 
L 227.564497 141.008496 
L 228.364927 141.795465 
L 229.165358 141.868225 
L 229.965788 142.670665 
L 230.766218 142.168592 
L 231.566649 142.745307 
L 233.167509 143.21257 
L 235.5688 140.588924 
L 236.369231 141.502978 
L 237.169661 144.776609 
L 237.970091 143.742094 
L 238.770522 146.811115 
L 239.570952 146.120192 
L 240.371382 147.783697 
L 241.171813 147.602096 
L 241.972243 146.916866 
L 243.573104 141.894715 
L 244.373534 141.586142 
L 245.173964 140.898352 
L 245.974395 142.150452 
L 246.774825 140.974231 
L 247.575256 141.594972 
L 248.375686 140.772791 
L 249.176116 141.911197 
L 249.976547 144.933388 
L 250.776977 145.442205 
L 251.577407 146.53511 
L 252.377838 145.542543 
L 253.978698 149.552792 
L 254.779129 151.236041 
L 255.579559 152.50885 
L 256.379989 154.230515 
L 257.18042 151.752422 
L 257.98085 149.755864 
L 258.78128 151.264695 
L 259.581711 153.380586 
L 260.382141 153.17663 
L 261.182571 156.691265 
L 261.983002 156.468459 
L 262.783432 156.970842 
L 263.583862 158.942325 
L 265.184723 156.463346 
L 265.985153 156.877783 
L 266.785584 154.751097 
L 268.386444 155.548131 
L 269.186875 154.47631 
L 269.987305 154.375856 
L 270.787735 155.356146 
L 271.588166 154.720043 
L 272.388596 152.899475 
L 273.189026 152.945171 
L 273.989457 154.385406 
L 274.789887 154.494867 
L 275.590317 151.914386 
L 276.390748 152.570415 
L 277.191178 156.538577 
L 277.991608 157.465374 
L 279.592469 156.367306 
L 280.392899 155.585 
L 281.19333 152.890264 
L 281.99376 152.438397 
L 282.79419 153.741099 
L 284.395051 155.421071 
L 285.195481 155.373498 
L 285.995912 155.987505 
L 286.796342 158.171109 
L 287.596772 159.920403 
L 288.397203 158.166621 
L 289.197633 157.182165 
L 289.998063 161.115171 
L 290.798494 157.61291 
L 291.598924 157.064618 
L 292.399354 158.086697 
L 293.199785 158.080022 
L 294.000215 156.645698 
L 294.800646 157.278876 
L 295.601076 154.235074 
L 296.401506 154.326589 
L 297.201937 156.874851 
L 298.002367 153.289501 
L 298.802797 154.836181 
L 299.603228 155.5348 
L 300.403658 154.317019 
L 301.204088 155.781023 
L 302.004519 152.813186 
L 302.804949 152.656171 
L 303.605379 150.314967 
L 304.40581 151.779595 
L 305.20624 151.430782 
L 306.00667 152.722616 
L 306.807101 153.659531 
L 307.607531 154.101448 
L 308.407961 153.818437 
L 309.208392 151.676206 
L 310.008822 152.459196 
L 310.809252 149.823403 
L 311.609683 146.465072 
L 313.210543 148.600738 
L 314.010974 145.865731 
L 314.811404 146.785284 
L 316.412265 147.533108 
L 317.212695 146.566033 
L 318.013125 150.31446 
L 318.813556 151.698974 
L 319.613986 149.84317 
L 320.414416 150.882608 
L 321.214847 150.29063 
L 322.015277 149.400289 
L 322.815707 149.099455 
L 323.616138 147.573436 
L 324.416568 151.876463 
L 325.216998 154.146963 
L 326.017429 152.227105 
L 326.817859 154.515572 
L 327.618289 153.606618 
L 328.41872 152.516607 
L 329.21915 152.105921 
L 330.01958 150.356882 
L 330.820011 147.72382 
L 331.620441 147.981035 
L 332.420871 150.606835 
L 334.021732 154.222162 
L 334.822162 152.233528 
L 335.622593 149.706637 
L 336.423023 151.119478 
L 337.223453 150.447225 
L 338.023884 150.751077 
L 338.824314 152.117588 
L 339.624744 150.82569 
L 340.425175 150.818256 
L 341.225605 149.277786 
L 342.026036 146.656336 
L 342.826466 146.956282 
L 343.626896 145.791885 
L 344.427327 141.216536 
L 345.227757 145.608334 
L 346.028187 147.755486 
L 346.828618 149.55326 
L 347.629048 152.144684 
L 349.229909 149.186699 
L 350.030339 149.321389 
L 350.830769 148.623052 
L 351.6312 149.2351 
L 352.43163 147.443478 
L 353.23206 147.398145 
L 354.032491 142.426927 
L 354.832921 145.979756 
L 355.633351 147.418486 
L 356.433782 148.294654 
L 358.034642 146.197082 
L 358.835073 145.004148 
L 359.635503 145.155368 
L 360.435933 141.949888 
L 361.236364 143.739639 
L 362.036794 145.018056 
L 362.837224 148.458783 
L 363.637655 147.470669 
L 364.438085 149.657142 
L 365.238515 148.198111 
L 366.038946 148.492257 
L 366.839376 150.83888 
L 368.440237 157.131763 
L 369.240667 158.744069 
L 370.041097 157.792864 
L 370.841528 154.070528 
L 371.641958 157.048193 
L 372.442388 157.23152 
L 373.242819 158.236356 
L 374.043249 158.252219 
L 374.843679 155.785981 
L 375.64411 156.369395 
L 376.44454 158.369954 
L 377.24497 158.169984 
L 378.045401 159.440048 
L 378.845831 163.158351 
L 379.646261 161.244532 
L 380.446692 159.699533 
L 381.247122 158.760013 
L 382.047552 158.419044 
L 382.847983 159.294794 
L 383.648413 154.775583 
L 384.448843 156.111636 
L 385.249274 151.936903 
L 386.049704 151.825722 
L 386.850134 151.013904 
L 387.650565 153.093664 
L 388.450995 153.694466 
L 389.251425 152.412996 
L 390.051856 153.796577 
L 390.852286 156.180808 
L 392.453147 156.190871 
L 393.253577 161.718666 
L 394.054008 164.068856 
L 394.854438 160.133545 
L 395.654868 161.498742 
L 396.455299 159.055255 
L 397.255729 159.487912 
L 398.056159 156.716681 
L 398.85659 154.693599 
L 399.65702 158.069414 
L 400.45745 157.029442 
L 401.257881 156.900346 
L 402.058311 154.850216 
L 402.858741 155.833902 
L 403.659172 157.418843 
L 404.459602 158.101907 
L 405.260032 153.824377 
L 406.060463 155.196746 
L 406.860893 160.108876 
L 407.661323 160.881658 
L 408.461754 157.018183 
L 409.262184 155.21739 
L 410.062614 155.180571 
L 410.863045 155.845783 
L 411.663475 156.832111 
L 412.463905 158.730723 
L 413.264336 160.030505 
L 414.064766 159.112316 
L 414.865196 165.064099 
L 415.665627 166.324483 
L 417.266487 167.249336 
L 418.066918 166.8909 
L 418.867348 169.267342 
L 419.667778 168.672698 
L 420.468209 167.403137 
L 422.069069 169.078243 
L 422.8695 168.305963 
L 423.66993 168.681353 
L 424.47036 167.807946 
L 425.270791 171.018665 
L 426.071221 169.883858 
L 426.871651 171.297868 
L 428.472512 171.57628 
L 429.272942 171.115543 
L 430.073373 173.687804 
L 431.674233 167.775892 
L 432.474664 166.511375 
L 434.075524 165.079363 
L 434.875955 164.846306 
L 435.676385 162.666466 
L 436.476815 162.28584 
L 437.277246 158.670256 
L 438.077676 158.497648 
L 438.878107 157.515725 
L 439.678537 154.094471 
L 440.478967 153.334999 
L 441.279398 150.706543 
L 442.079828 148.77325 
L 442.880258 150.183962 
L 443.680689 145.357914 
L 444.481119 145.080993 
L 445.281549 145.229764 
L 446.08198 142.817705 
L 446.88241 145.298063 
L 447.68284 144.46568 
L 448.483271 143.02639 
L 449.283701 144.233915 
L 450.084131 144.901413 
L 450.884562 146.170958 
L 451.684992 145.539273 
L 452.485422 144.188352 
L 453.285853 141.396358 
L 454.086283 139.388603 
L 454.886713 140.992779 
L 455.687144 143.590636 
L 456.487574 144.935263 
L 457.288004 141.988979 
L 458.088435 137.914293 
L 459.689295 134.598548 
L 460.489726 134.210947 
L 461.290156 133.429731 
L 462.090586 132.980807 
L 462.891017 130.447918 
L 463.691447 133.243278 
L 464.491877 133.585004 
L 465.292308 135.891283 
L 466.092738 135.725577 
L 466.893168 136.933011 
L 467.693599 135.068568 
L 468.494029 135.162981 
L 469.294459 136.630494 
L 470.09489 136.210875 
L 470.89532 133.633211 
L 471.69575 127.10464 
L 472.496181 131.488383 
L 473.296611 132.56484 
L 474.097041 132.441334 
L 475.697902 132.534058 
L 476.498332 130.552391 
L 477.298763 132.480888 
L 478.899623 135.689383 
L 479.700054 135.906592 
L 480.500484 133.810956 
L 481.300914 132.314015 
L 482.101345 126.744023 
L 482.901775 127.785811 
L 483.702205 125.017263 
L 484.502636 124.525642 
L 484.502636 124.525642 
" clip-path="url(#pdd5b134c23)" style="fill: none; stroke: #2ca02c; stroke-width: 1.5; stroke-linecap: square"/>
   </g>
   <g id="patch_3">
    <path d="M 70.4 347.552125 
L 70.4 70.352125 
" style="fill: none; stroke: #000000; stroke-width: 0.8; stroke-linejoin: miter; stroke-linecap: square"/>
   </g>
   <g id="patch_4">
    <path d="M 516.8 347.552125 
L 516.8 70.352125 
" style="fill: none; stroke: #000000; stroke-width: 0.8; stroke-linejoin: miter; stroke-linecap: square"/>
   </g>
   <g id="patch_5">
    <path d="M 70.4 347.552125 
L 516.8 347.552125 
" style="fill: none; stroke: #000000; stroke-width: 0.8; stroke-linejoin: miter; stroke-linecap: square"/>
   </g>
   <g id="patch_6">
    <path d="M 70.4 70.352125 
L 516.8 70.352125 
" style="fill: none; stroke: #000000; stroke-width: 0.8; stroke-linejoin: miter; stroke-linecap: square"/>
   </g>
   <g id="text_15">
    <!-- Meta Testing -->
    <g transform="translate(236.304313 21.952125)scale(0.216 -0.216)">
     <defs>
      <path id="STIXGeneral-Regular-4d" d="M 5530 0 
L 3738 0 
L 3738 122 
Q 4115 147 4214 265 
Q 4314 384 4314 787 
L 4314 3661 
L 2682 0 
L 2592 0 
L 979 3514 
L 979 966 
Q 979 448 1088 294 
Q 1197 141 1574 122 
L 1574 0 
L 77 0 
L 77 122 
Q 358 141 480 205 
Q 602 269 650 432 
Q 698 595 698 966 
L 698 3514 
Q 698 3878 589 3984 
Q 480 4090 90 4115 
L 90 4237 
L 1357 4237 
L 2835 1024 
L 4250 4237 
L 5523 4237 
L 5523 4115 
Q 5178 4109 5072 3993 
Q 4966 3878 4966 3520 
L 4966 717 
Q 4966 378 5072 262 
Q 5178 147 5530 122 
L 5530 0 
z
" transform="scale(0.015625)"/>
     </defs>
     <use xlink:href="#STIXGeneral-Regular-4d"/>
     <use xlink:href="#STIXGeneral-Regular-65" x="88.899994"/>
     <use xlink:href="#STIXGeneral-Regular-74" x="133.299988"/>
     <use xlink:href="#STIXGeneral-Regular-61" x="161.099976"/>
     <use xlink:href="#STIXGeneral-Regular-20" x="205.499969"/>
     <use xlink:href="#STIXGeneral-Regular-54" x="230.499954"/>
     <use xlink:href="#STIXGeneral-Regular-65" x="291.599945"/>
     <use xlink:href="#STIXGeneral-Regular-73" x="335.999939"/>
     <use xlink:href="#STIXGeneral-Regular-74" x="374.899933"/>
     <use xlink:href="#STIXGeneral-Regular-69" x="402.699921"/>
     <use xlink:href="#STIXGeneral-Regular-6e" x="430.499908"/>
     <use xlink:href="#STIXGeneral-Regular-67" x="480.499893"/>
    </g>
   </g>
   <g id="legend_1">
    <g id="patch_7">
     <path d="M 434.980937 344.752125 
L 511.2 344.752125 
Q 514 344.752125 514 341.952125 
L 514 298.552125 
Q 514 295.752125 511.2 295.752125 
L 434.980937 295.752125 
Q 432.180937 295.752125 432.180937 298.552125 
L 432.180937 341.952125 
Q 432.180937 344.752125 434.980937 344.752125 
z
" style="fill: #ffffff; opacity: 0.8; stroke: #cccccc; stroke-linejoin: miter"/>
    </g>
    <g id="line2d_25">
     <path d="M 436.380937 305.663687 
L 443.380937 305.663687 
L 450.380937 305.663687 
" style="fill: none; stroke: #1f77b4; stroke-width: 1.5; stroke-linecap: square"/>
    </g>
    <g id="text_16">
     <!-- MAML -->
     <g transform="translate(454.580937 309.513687)scale(0.14 -0.14)">
      <defs>
       <path id="STIXGeneral-Regular-4c" d="M 3827 1114 
L 3520 0 
L 77 0 
L 77 122 
Q 429 141 531 256 
Q 634 371 634 736 
L 634 3494 
Q 634 3872 541 3981 
Q 448 4090 77 4115 
L 77 4237 
L 1888 4237 
L 1888 4115 
Q 1498 4090 1392 3984 
Q 1286 3878 1286 3507 
L 1286 538 
Q 1286 358 1398 304 
Q 1510 250 1862 250 
L 2310 250 
Q 3085 250 3392 640 
Q 3520 813 3661 1114 
L 3827 1114 
z
" transform="scale(0.015625)"/>
      </defs>
      <use xlink:href="#STIXGeneral-Regular-4d"/>
      <use xlink:href="#STIXGeneral-Regular-41" x="88.899994"/>
      <use xlink:href="#STIXGeneral-Regular-4d" x="161.099976"/>
      <use xlink:href="#STIXGeneral-Regular-4c" x="249.999969"/>
     </g>
    </g>
    <g id="line2d_26">
     <path d="M 436.380937 319.663687 
L 443.380937 319.663687 
L 450.380937 319.663687 
" style="fill: none; stroke: #ff7f0e; stroke-width: 1.5; stroke-linecap: square"/>
    </g>
    <g id="text_17">
     <!-- PEARL -->
     <g transform="translate(454.580937 323.513687)scale(0.14 -0.14)">
      <defs>
       <path id="STIXGeneral-Regular-50" d="M 102 4237 
L 1760 4237 
Q 2669 4237 3149 3834 
Q 3469 3565 3469 3072 
Q 3469 2560 3104 2234 
Q 2835 1990 2553 1916 
Q 2272 1843 1734 1843 
Q 1549 1843 1293 1862 
L 1293 717 
Q 1293 352 1398 246 
Q 1504 141 1894 122 
L 1894 0 
L 102 0 
L 102 122 
Q 474 147 557 256 
Q 640 365 640 781 
L 640 3526 
Q 640 3885 547 3987 
Q 454 4090 102 4115 
L 102 4237 
z
M 1293 3770 
L 1293 2118 
Q 1510 2099 1683 2099 
Q 2202 2099 2486 2352 
Q 2771 2605 2771 3040 
Q 2771 3558 2476 3779 
Q 2182 4000 1517 4000 
Q 1382 4000 1337 3952 
Q 1293 3904 1293 3770 
z
" transform="scale(0.015625)"/>
      </defs>
      <use xlink:href="#STIXGeneral-Regular-50"/>
      <use xlink:href="#STIXGeneral-Regular-45" x="55.699997"/>
      <use xlink:href="#STIXGeneral-Regular-41" x="116.799988"/>
      <use xlink:href="#STIXGeneral-Regular-52" x="188.999969"/>
      <use xlink:href="#STIXGeneral-Regular-4c" x="255.699966"/>
     </g>
    </g>
    <g id="line2d_27">
     <path d="M 436.380937 333.663687 
L 443.380937 333.663687 
L 450.380937 333.663687 
" style="fill: none; stroke: #2ca02c; stroke-width: 1.5; stroke-linecap: square"/>
    </g>
    <g id="text_18">
     <!-- MACAW -->
     <g transform="translate(454.580937 337.513687)scale(0.14 -0.14)">
      <defs>
       <path id="STIXGeneral-Regular-43" d="M 3930 838 
L 4051 723 
Q 3482 -90 2304 -90 
Q 1376 -90 794 480 
Q 179 1082 179 2080 
Q 179 3014 755 3661 
Q 1357 4326 2310 4326 
Q 2720 4326 3072 4230 
Q 3475 4115 3514 4115 
Q 3725 4115 3782 4326 
L 3910 4326 
L 3968 2874 
L 3821 2874 
Q 3718 3334 3488 3584 
Q 3034 4070 2458 4070 
Q 1747 4070 1334 3548 
Q 922 3027 922 2182 
Q 922 1152 1382 653 
Q 1811 192 2522 192 
Q 2944 192 3251 339 
Q 3558 486 3930 838 
z
" transform="scale(0.015625)"/>
       <path id="STIXGeneral-Regular-57" d="M 5965 4237 
L 5965 4115 
Q 5709 4064 5616 3990 
Q 5523 3917 5434 3667 
Q 4704 1709 4128 -70 
L 4032 -70 
Q 3642 1011 3008 2637 
L 2022 -70 
L 1926 -70 
Q 1709 576 1277 1753 
Q 845 2931 698 3347 
Q 538 3808 406 3958 
Q 275 4109 32 4115 
L 32 4237 
L 1594 4237 
L 1594 4115 
Q 1357 4109 1270 4064 
Q 1184 4019 1184 3917 
Q 1184 3808 1254 3616 
L 2176 1210 
L 2842 3021 
L 2662 3501 
Q 2509 3917 2400 4013 
Q 2291 4109 2010 4115 
L 2010 4237 
L 3706 4237 
L 3706 4115 
Q 3213 4102 3213 3891 
Q 3213 3808 3322 3520 
L 4237 1190 
L 5043 3360 
Q 5152 3667 5152 3853 
Q 5152 4109 4704 4115 
L 4704 4237 
L 5965 4237 
z
" transform="scale(0.015625)"/>
      </defs>
      <use xlink:href="#STIXGeneral-Regular-4d"/>
      <use xlink:href="#STIXGeneral-Regular-41" x="88.899994"/>
      <use xlink:href="#STIXGeneral-Regular-43" x="161.099976"/>
      <use xlink:href="#STIXGeneral-Regular-41" x="227.799973"/>
      <use xlink:href="#STIXGeneral-Regular-57" x="299.999954"/>
     </g>
    </g>
   </g>
  </g>
  <g id="axes_2">
   <g id="matplotlib.axis_3">
    <g id="xtick_7">
     <g id="line2d_28">
      <defs>
       <path id="maee84a4ba7" d="M 0 0 
L 0 -3.5 
" style="stroke: #ff7f0e; stroke-width: 0.8"/>
      </defs>
      <g>
       <use xlink:href="#maee84a4ba7" x="86.307071" y="70.352125" style="fill: #ff7f0e; stroke: #ff7f0e; stroke-width: 0.8"/>
      </g>
     </g>
     <g id="text_19">
      <!-- 0 -->
      <g style="fill: #ff7f0e" transform="translate(81.807071 59.445562)scale(0.18 -0.18)">
       <use xlink:href="#STIXGeneral-Regular-30"/>
      </g>
     </g>
    </g>
    <g id="xtick_8">
     <g id="line2d_29">
      <g>
       <use xlink:href="#maee84a4ba7" x="148.933333" y="70.352125" style="fill: #ff7f0e; stroke: #ff7f0e; stroke-width: 0.8"/>
      </g>
     </g>
     <g id="text_20">
      <!-- 1 -->
      <g style="fill: #ff7f0e" transform="translate(144.433333 59.445562)scale(0.18 -0.18)">
       <use xlink:href="#STIXGeneral-Regular-31"/>
      </g>
     </g>
    </g>
    <g id="xtick_9">
     <g id="line2d_30">
      <g>
       <use xlink:href="#maee84a4ba7" x="211.559596" y="70.352125" style="fill: #ff7f0e; stroke: #ff7f0e; stroke-width: 0.8"/>
      </g>
     </g>
     <g id="text_21">
      <!-- 2 -->
      <g style="fill: #ff7f0e" transform="translate(207.059596 59.445562)scale(0.18 -0.18)">
       <use xlink:href="#STIXGeneral-Regular-32"/>
      </g>
     </g>
    </g>
    <g id="xtick_10">
     <g id="line2d_31">
      <g>
       <use xlink:href="#maee84a4ba7" x="274.185859" y="70.352125" style="fill: #ff7f0e; stroke: #ff7f0e; stroke-width: 0.8"/>
      </g>
     </g>
     <g id="text_22">
      <!-- 3 -->
      <g style="fill: #ff7f0e" transform="translate(269.685859 59.445562)scale(0.18 -0.18)">
       <defs>
        <path id="STIXGeneral-Regular-33" d="M 390 3264 
L 288 3290 
Q 435 3770 748 4048 
Q 1062 4326 1542 4326 
Q 1990 4326 2265 4083 
Q 2541 3840 2541 3450 
Q 2541 2925 1946 2566 
Q 2298 2413 2477 2227 
Q 2758 1914 2758 1402 
Q 2758 890 2464 506 
Q 2246 211 1840 60 
Q 1434 -90 979 -90 
Q 262 -90 262 275 
Q 262 378 339 442 
Q 416 506 525 506 
Q 685 506 915 339 
Q 1197 141 1466 141 
Q 1818 141 2058 425 
Q 2298 710 2298 1120 
Q 2298 1856 1632 2048 
Q 1434 2112 979 2112 
L 979 2202 
Q 1338 2323 1517 2432 
Q 2035 2726 2035 3290 
Q 2035 3610 1852 3776 
Q 1670 3942 1344 3942 
Q 768 3942 390 3264 
z
" transform="scale(0.015625)"/>
       </defs>
       <use xlink:href="#STIXGeneral-Regular-33"/>
      </g>
     </g>
    </g>
    <g id="xtick_11">
     <g id="line2d_32">
      <g>
       <use xlink:href="#maee84a4ba7" x="336.812121" y="70.352125" style="fill: #ff7f0e; stroke: #ff7f0e; stroke-width: 0.8"/>
      </g>
     </g>
     <g id="text_23">
      <!-- 4 -->
      <g style="fill: #ff7f0e" transform="translate(332.312121 59.445562)scale(0.18 -0.18)">
       <use xlink:href="#STIXGeneral-Regular-34"/>
      </g>
     </g>
    </g>
    <g id="xtick_12">
     <g id="line2d_33">
      <g>
       <use xlink:href="#maee84a4ba7" x="399.438384" y="70.352125" style="fill: #ff7f0e; stroke: #ff7f0e; stroke-width: 0.8"/>
      </g>
     </g>
     <g id="text_24">
      <!-- 5 -->
      <g style="fill: #ff7f0e" transform="translate(394.938384 59.445562)scale(0.18 -0.18)">
       <use xlink:href="#STIXGeneral-Regular-35"/>
      </g>
     </g>
    </g>
    <g id="xtick_13">
     <g id="line2d_34">
      <g>
       <use xlink:href="#maee84a4ba7" x="462.064646" y="70.352125" style="fill: #ff7f0e; stroke: #ff7f0e; stroke-width: 0.8"/>
      </g>
     </g>
     <g id="text_25">
      <!-- 6 -->
      <g style="fill: #ff7f0e" transform="translate(457.564646 59.445562)scale(0.18 -0.18)">
       <use xlink:href="#STIXGeneral-Regular-36"/>
      </g>
     </g>
    </g>
    <g id="text_26">
     <!-- 1e6 -->
     <g style="fill: #ff7f0e" transform="translate(490.806875 40.245562)scale(0.18 -0.18)">
      <use xlink:href="#STIXGeneral-Regular-31"/>
      <use xlink:href="#STIXGeneral-Regular-65" x="49.999985"/>
      <use xlink:href="#STIXGeneral-Regular-36" x="94.399979"/>
     </g>
    </g>
   </g>
   <g id="line2d_35">
    <path d="M 90.690909 334.952125 
L 92.569697 306.480821 
L 94.448485 306.258382 
L 96.327273 314.054954 
L 98.206061 312.138196 
L 100.084848 314.669676 
L 101.963636 319.472465 
L 103.842424 315.424764 
L 105.721212 308.634644 
L 107.6 286.008656 
L 109.478788 295.561244 
L 111.357576 299.839222 
L 113.236364 307.911302 
L 115.115152 313.417322 
L 116.993939 316.654638 
L 118.872727 316.724187 
L 120.751515 323.964577 
L 122.630303 324.964311 
L 124.509091 327.879579 
L 126.387879 327.509977 
L 128.266667 324.706417 
L 132.024242 322.325033 
L 133.90303 321.475581 
L 135.781818 321.740106 
L 137.660606 316.868454 
L 139.539394 313.869146 
L 141.418182 317.142648 
L 143.29697 316.003471 
L 145.175758 312.065073 
L 147.054545 300.726286 
L 148.933333 291.627591 
L 150.812121 285.209543 
L 152.690909 284.826928 
L 154.569697 297.562893 
L 156.448485 302.138393 
L 158.327273 308.656001 
L 160.206061 303.864657 
L 162.084848 307.402223 
L 163.963636 291.849148 
L 165.842424 300.964624 
L 167.721212 307.250091 
L 169.6 276.925353 
L 171.478788 270.063287 
L 175.236364 228.535541 
L 177.115152 213.233946 
L 178.993939 204.754657 
L 180.872727 195.59769 
L 184.630303 233.497682 
L 186.509091 268.996253 
L 188.387879 289.48213 
L 190.266667 298.555778 
L 192.145455 290.958801 
L 194.024242 293.449228 
L 195.90303 292.548313 
L 197.781818 290.983748 
L 199.660606 289.996847 
L 201.539394 261.321148 
L 203.418182 260.319732 
L 205.29697 263.797134 
L 207.175758 266.422018 
L 209.054545 262.216316 
L 210.933333 215.948952 
L 212.812121 241.728176 
L 214.690909 214.66159 
L 216.569697 210.012566 
L 218.448485 237.151879 
L 220.327273 207.690604 
L 222.206061 192.644386 
L 224.084848 224.456818 
L 225.963636 236.813176 
L 227.842424 258.481704 
L 229.721212 219.45932 
L 231.6 191.77471 
L 233.478788 193.002465 
L 235.357576 186.922221 
L 239.115152 239.541245 
L 240.993939 228.050468 
L 242.872727 237.418725 
L 244.751515 251.266987 
L 246.630303 257.118501 
L 248.509091 256.156024 
L 250.387879 261.940531 
L 252.266667 263.535779 
L 254.145455 263.538095 
L 256.024242 273.339643 
L 257.90303 274.41287 
L 259.781818 275.805337 
L 261.660606 277.949214 
L 263.539394 276.754237 
L 265.418182 267.493331 
L 267.29697 270.282487 
L 269.175758 263.545695 
L 271.054545 260.668236 
L 272.933333 258.758162 
L 274.812121 255.500965 
L 276.690909 254.968682 
L 278.569697 257.10457 
L 280.448485 266.564231 
L 282.327273 269.471402 
L 284.206061 273.370766 
L 286.084848 278.191049 
L 287.963636 275.606367 
L 289.842424 266.578152 
L 291.721212 273.062733 
L 293.6 272.063977 
L 297.357576 276.789245 
L 299.236364 275.308549 
L 301.115152 280.93622 
L 302.993939 282.344141 
L 304.872727 284.64022 
L 306.751515 287.569753 
L 308.630303 289.140598 
L 310.509091 287.172197 
L 312.387879 283.942749 
L 314.266667 279.871216 
L 316.145455 276.14567 
L 318.024242 256.821551 
L 319.90303 256.491208 
L 321.781818 233.544918 
L 323.660606 245.037395 
L 325.539394 244.838825 
L 327.418182 240.920047 
L 329.29697 242.370188 
L 331.175758 243.484558 
L 333.054545 258.325057 
L 334.933333 262.600026 
L 336.812121 258.236084 
L 338.690909 263.81012 
L 340.569697 270.25982 
L 342.448485 252.277877 
L 344.327273 263.388145 
L 346.206061 273.135828 
L 348.084848 270.881047 
L 349.963636 255.972792 
L 351.842424 251.744081 
L 353.721212 239.636636 
L 355.6 236.32363 
L 357.478788 232.722755 
L 359.357576 241.844014 
L 361.236364 255.867649 
L 363.115152 264.732486 
L 364.993939 272.519108 
L 366.872727 269.808843 
L 368.751515 268.044442 
L 372.509091 277.06714 
L 374.387879 281.386718 
L 376.266667 270.500472 
L 378.145455 277.761425 
L 380.024242 273.652297 
L 381.90303 272.778095 
L 383.781818 277.199661 
L 385.660606 261.887652 
L 387.539394 263.441853 
L 389.418182 266.769225 
L 391.29697 267.574573 
L 393.175758 267.929496 
L 395.054545 269.569879 
L 396.933333 263.354423 
L 398.812121 265.100083 
L 400.690909 267.597032 
L 402.569697 253.26509 
L 404.448485 267.432396 
L 406.327273 277.21516 
L 408.206061 275.261076 
L 410.084848 274.62244 
L 411.963636 273.864932 
L 413.842424 270.434209 
L 415.721212 266.658481 
L 417.6 271.830123 
L 419.478788 269.386497 
L 421.357576 267.42574 
L 423.236364 259.322897 
L 425.115152 251.806972 
L 426.993939 251.970131 
L 428.872727 249.961765 
L 432.630303 263.339083 
L 434.509091 249.213239 
L 436.387879 249.861727 
L 438.266667 257.731784 
L 440.145455 250.015714 
L 442.024242 225.387433 
L 445.781818 244.232787 
L 447.660606 245.843324 
L 449.539394 241.520176 
L 451.418182 250.746988 
L 453.29697 241.863435 
L 455.175758 245.159301 
L 457.054545 244.002531 
L 458.933333 254.079569 
L 460.812121 254.201683 
L 462.690909 251.85556 
L 464.569697 248.390176 
L 466.448485 254.061788 
L 468.327273 251.082373 
L 470.206061 241.457707 
L 472.084848 238.058423 
L 473.963636 247.40624 
L 475.842424 249.03304 
L 477.721212 247.71713 
L 479.6 251.756894 
L 481.478788 251.842115 
L 483.357576 248.248141 
L 485.236364 255.128961 
L 487.115152 267.785646 
L 488.993939 266.740616 
L 490.872727 267.459442 
L 492.751515 278.71222 
L 494.630303 266.846037 
L 496.509091 274.104307 
L 496.509091 274.104307 
" clip-path="url(#pdd5b134c23)" style="fill: none; stroke: #ff7f0e; stroke-width: 1.5; stroke-linecap: square"/>
   </g>
   <g id="patch_8">
    <path d="M 70.4 347.552125 
L 70.4 70.352125 
" style="fill: none; stroke: #000000; stroke-width: 0.8; stroke-linejoin: miter; stroke-linecap: square"/>
   </g>
   <g id="patch_9">
    <path d="M 516.8 347.552125 
L 516.8 70.352125 
" style="fill: none; stroke: #000000; stroke-width: 0.8; stroke-linejoin: miter; stroke-linecap: square"/>
   </g>
   <g id="patch_10">
    <path d="M 70.4 347.552125 
L 516.8 347.552125 
" style="fill: none; stroke: #000000; stroke-width: 0.8; stroke-linejoin: miter; stroke-linecap: square"/>
   </g>
   <g id="patch_11">
    <path d="M 70.4 70.352125 
L 516.8 70.352125 
" style="fill: none; stroke: #000000; stroke-width: 0.8; stroke-linejoin: miter; stroke-linecap: square"/>
   </g>
  </g>
 </g>
 <defs>
  <clipPath id="pdd5b134c23">
   <rect x="70.4" y="70.352125" width="446.4" height="277.2"/>
  </clipPath>
 </defs>
</svg>
